<?xml version="1.0" encoding="utf-8" standalone="no"?>
<!DOCTYPE svg PUBLIC "-//W3C//DTD SVG 1.1//EN"
  "http://www.w3.org/Graphics/SVG/1.1/DTD/svg11.dtd">
<svg xmlns:xlink="http://www.w3.org/1999/xlink" width="327.029062pt" height="352.342812pt" viewBox="0 0 327.029062 352.342812" xmlns="http://www.w3.org/2000/svg" version="1.1">
 <metadata>
  <rdf:RDF xmlns:dc="http://purl.org/dc/elements/1.1/" xmlns:cc="http://creativecommons.org/ns#" xmlns:rdf="http://www.w3.org/1999/02/22-rdf-syntax-ns#">
   <cc:Work>
    <dc:type rdf:resource="http://purl.org/dc/dcmitype/StillImage"/>
    <dc:date>2024-06-07T14:14:53.463813</dc:date>
    <dc:format>image/svg+xml</dc:format>
    <dc:creator>
     <cc:Agent>
      <dc:title>Matplotlib v3.7.1, https://matplotlib.org/</dc:title>
     </cc:Agent>
    </dc:creator>
   </cc:Work>
  </rdf:RDF>
 </metadata>
 <defs>
  <style type="text/css">*{stroke-linejoin: round; stroke-linecap: butt}</style>
 </defs>
 <g id="figure_1">
  <g id="patch_1">
   <path d="M 0 352.342812 
L 327.029062 352.342812 
L 327.029062 0 
L 0 0 
z
" style="fill: #ffffff"/>
  </g>
  <g id="axes_1">
   <g id="patch_2">
    <path d="M 45.469063 301.237187 
L 319.829063 301.237187 
L 319.829063 26.877187 
L 45.469063 26.877187 
z
" style="fill: #ffffff"/>
   </g>
   <g id="line2d_1">
    <path d="M 202.084338 193.508926 
L 202.084338 154.907315 
" clip-path="url(#pfd2718c036)" style="fill: none; stroke: #00bfbf; stroke-width: 1.5; stroke-linecap: square"/>
   </g>
   <g id="line2d_2">
    <path d="M 163.482727 154.907315 
L 202.084338 154.907315 
" clip-path="url(#pfd2718c036)" style="fill: none; stroke: #00bfbf; stroke-width: 1.5; stroke-linecap: square"/>
   </g>
   <g id="line2d_3">
    <path d="M 229.244804 140.620814 
L 229.244804 102.019202 
" clip-path="url(#pfd2718c036)" style="fill: none; stroke: #008000; stroke-width: 1.5; stroke-linecap: square"/>
   </g>
   <g id="line2d_4">
    <path d="M 190.643193 102.019202 
L 229.244804 102.019202 
" clip-path="url(#pfd2718c036)" style="fill: none; stroke: #008000; stroke-width: 1.5; stroke-linecap: square"/>
   </g>
   <g id="line2d_5">
    <path d="M 257.131154 129.306537 
L 257.131154 90.704926 
" clip-path="url(#pfd2718c036)" style="fill: none; stroke: #0000ff; stroke-width: 1.5; stroke-linecap: square"/>
   </g>
   <g id="line2d_6">
    <path d="M 218.529543 90.704926 
L 257.131154 90.704926 
" clip-path="url(#pfd2718c036)" style="fill: none; stroke: #0000ff; stroke-width: 1.5; stroke-linecap: square"/>
   </g>
   <g id="line2d_7">
    <path d="M 284.264771 105.188755 
L 284.264771 66.587144 
" clip-path="url(#pfd2718c036)" style="fill: none; stroke: #000000; stroke-width: 1.5; stroke-linecap: square"/>
   </g>
   <g id="line2d_8">
    <path d="M 245.663159 66.587144 
L 284.264771 66.587144 
" clip-path="url(#pfd2718c036)" style="fill: none; stroke: #000000; stroke-width: 1.5; stroke-linecap: square"/>
   </g>
   <g id="line2d_9">
    <path d="M 296.453628 88.86151 
L 296.453628 50.259899 
" clip-path="url(#pfd2718c036)" style="fill: none; stroke: #ff0000; stroke-width: 1.5; stroke-linecap: square"/>
   </g>
   <g id="line2d_10">
    <path d="M 257.852017 50.259899 
L 296.453628 50.259899 
" clip-path="url(#pfd2718c036)" style="fill: none; stroke: #ff0000; stroke-width: 1.5; stroke-linecap: square"/>
   </g>
   <g id="matplotlib.axis_1">
    <g id="xtick_1">
     <g id="line2d_11">
      <path d="M 126.374306 301.237187 
L 126.374306 26.877187 
" clip-path="url(#pfd2718c036)" style="fill: none; stroke: #b0b0b0; stroke-width: 0.8; stroke-linecap: square"/>
     </g>
     <g id="line2d_12">
      <defs>
       <path id="m81d9acf59b" d="M 0 0 
L 0 3.5 
" style="stroke: #000000; stroke-width: 0.8"/>
      </defs>
      <g>
       <use xlink:href="#m81d9acf59b" x="126.374306" y="301.237187" style="stroke: #000000; stroke-width: 0.8"/>
      </g>
     </g>
     <g id="text_1">
      <!-- 2 -->
      <g transform="translate(120.966181 321.154531) scale(0.17 -0.17)">
       <defs>
        <path id="DejaVuSans-32" d="M 1228 531 
L 3431 531 
L 3431 0 
L 469 0 
L 469 531 
Q 828 903 1448 1529 
Q 2069 2156 2228 2338 
Q 2531 2678 2651 2914 
Q 2772 3150 2772 3378 
Q 2772 3750 2511 3984 
Q 2250 4219 1831 4219 
Q 1534 4219 1204 4116 
Q 875 4013 500 3803 
L 500 4441 
Q 881 4594 1212 4672 
Q 1544 4750 1819 4750 
Q 2544 4750 2975 4387 
Q 3406 4025 3406 3419 
Q 3406 3131 3298 2873 
Q 3191 2616 2906 2266 
Q 2828 2175 2409 1742 
Q 1991 1309 1228 531 
z
" transform="scale(0.015625)"/>
       </defs>
       <use xlink:href="#DejaVuSans-32"/>
      </g>
     </g>
    </g>
    <g id="xtick_2">
     <g id="line2d_13">
      <path d="M 207.27955 301.237187 
L 207.27955 26.877187 
" clip-path="url(#pfd2718c036)" style="fill: none; stroke: #b0b0b0; stroke-width: 0.8; stroke-linecap: square"/>
     </g>
     <g id="line2d_14">
      <g>
       <use xlink:href="#m81d9acf59b" x="207.27955" y="301.237187" style="stroke: #000000; stroke-width: 0.8"/>
      </g>
     </g>
     <g id="text_2">
      <!-- 4 -->
      <g transform="translate(201.871425 321.154531) scale(0.17 -0.17)">
       <defs>
        <path id="DejaVuSans-34" d="M 2419 4116 
L 825 1625 
L 2419 1625 
L 2419 4116 
z
M 2253 4666 
L 3047 4666 
L 3047 1625 
L 3713 1625 
L 3713 1100 
L 3047 1100 
L 3047 0 
L 2419 0 
L 2419 1100 
L 313 1100 
L 313 1709 
L 2253 4666 
z
" transform="scale(0.015625)"/>
       </defs>
       <use xlink:href="#DejaVuSans-34"/>
      </g>
     </g>
    </g>
    <g id="xtick_3">
     <g id="line2d_15">
      <path d="M 288.184793 301.237187 
L 288.184793 26.877187 
" clip-path="url(#pfd2718c036)" style="fill: none; stroke: #b0b0b0; stroke-width: 0.8; stroke-linecap: square"/>
     </g>
     <g id="line2d_16">
      <g>
       <use xlink:href="#m81d9acf59b" x="288.184793" y="301.237187" style="stroke: #000000; stroke-width: 0.8"/>
      </g>
     </g>
     <g id="text_3">
      <!-- 6 -->
      <g transform="translate(282.776668 321.154531) scale(0.17 -0.17)">
       <defs>
        <path id="DejaVuSans-36" d="M 2113 2584 
Q 1688 2584 1439 2293 
Q 1191 2003 1191 1497 
Q 1191 994 1439 701 
Q 1688 409 2113 409 
Q 2538 409 2786 701 
Q 3034 994 3034 1497 
Q 3034 2003 2786 2293 
Q 2538 2584 2113 2584 
z
M 3366 4563 
L 3366 3988 
Q 3128 4100 2886 4159 
Q 2644 4219 2406 4219 
Q 1781 4219 1451 3797 
Q 1122 3375 1075 2522 
Q 1259 2794 1537 2939 
Q 1816 3084 2150 3084 
Q 2853 3084 3261 2657 
Q 3669 2231 3669 1497 
Q 3669 778 3244 343 
Q 2819 -91 2113 -91 
Q 1303 -91 875 529 
Q 447 1150 447 2328 
Q 447 3434 972 4092 
Q 1497 4750 2381 4750 
Q 2619 4750 2861 4703 
Q 3103 4656 3366 4563 
z
" transform="scale(0.015625)"/>
       </defs>
       <use xlink:href="#DejaVuSans-36"/>
      </g>
     </g>
    </g>
    <g id="text_4">
     <!-- log10(ERT of base-CMA-ES) -->
     <g transform="translate(66.736953 341.607344) scale(0.17 -0.17)">
      <defs>
       <path id="DejaVuSans-6c" d="M 603 4863 
L 1178 4863 
L 1178 0 
L 603 0 
L 603 4863 
z
" transform="scale(0.015625)"/>
       <path id="DejaVuSans-6f" d="M 1959 3097 
Q 1497 3097 1228 2736 
Q 959 2375 959 1747 
Q 959 1119 1226 758 
Q 1494 397 1959 397 
Q 2419 397 2687 759 
Q 2956 1122 2956 1747 
Q 2956 2369 2687 2733 
Q 2419 3097 1959 3097 
z
M 1959 3584 
Q 2709 3584 3137 3096 
Q 3566 2609 3566 1747 
Q 3566 888 3137 398 
Q 2709 -91 1959 -91 
Q 1206 -91 779 398 
Q 353 888 353 1747 
Q 353 2609 779 3096 
Q 1206 3584 1959 3584 
z
" transform="scale(0.015625)"/>
       <path id="DejaVuSans-67" d="M 2906 1791 
Q 2906 2416 2648 2759 
Q 2391 3103 1925 3103 
Q 1463 3103 1205 2759 
Q 947 2416 947 1791 
Q 947 1169 1205 825 
Q 1463 481 1925 481 
Q 2391 481 2648 825 
Q 2906 1169 2906 1791 
z
M 3481 434 
Q 3481 -459 3084 -895 
Q 2688 -1331 1869 -1331 
Q 1566 -1331 1297 -1286 
Q 1028 -1241 775 -1147 
L 775 -588 
Q 1028 -725 1275 -790 
Q 1522 -856 1778 -856 
Q 2344 -856 2625 -561 
Q 2906 -266 2906 331 
L 2906 616 
Q 2728 306 2450 153 
Q 2172 0 1784 0 
Q 1141 0 747 490 
Q 353 981 353 1791 
Q 353 2603 747 3093 
Q 1141 3584 1784 3584 
Q 2172 3584 2450 3431 
Q 2728 3278 2906 2969 
L 2906 3500 
L 3481 3500 
L 3481 434 
z
" transform="scale(0.015625)"/>
       <path id="DejaVuSans-31" d="M 794 531 
L 1825 531 
L 1825 4091 
L 703 3866 
L 703 4441 
L 1819 4666 
L 2450 4666 
L 2450 531 
L 3481 531 
L 3481 0 
L 794 0 
L 794 531 
z
" transform="scale(0.015625)"/>
       <path id="DejaVuSans-30" d="M 2034 4250 
Q 1547 4250 1301 3770 
Q 1056 3291 1056 2328 
Q 1056 1369 1301 889 
Q 1547 409 2034 409 
Q 2525 409 2770 889 
Q 3016 1369 3016 2328 
Q 3016 3291 2770 3770 
Q 2525 4250 2034 4250 
z
M 2034 4750 
Q 2819 4750 3233 4129 
Q 3647 3509 3647 2328 
Q 3647 1150 3233 529 
Q 2819 -91 2034 -91 
Q 1250 -91 836 529 
Q 422 1150 422 2328 
Q 422 3509 836 4129 
Q 1250 4750 2034 4750 
z
" transform="scale(0.015625)"/>
       <path id="DejaVuSans-28" d="M 1984 4856 
Q 1566 4138 1362 3434 
Q 1159 2731 1159 2009 
Q 1159 1288 1364 580 
Q 1569 -128 1984 -844 
L 1484 -844 
Q 1016 -109 783 600 
Q 550 1309 550 2009 
Q 550 2706 781 3412 
Q 1013 4119 1484 4856 
L 1984 4856 
z
" transform="scale(0.015625)"/>
       <path id="DejaVuSans-45" d="M 628 4666 
L 3578 4666 
L 3578 4134 
L 1259 4134 
L 1259 2753 
L 3481 2753 
L 3481 2222 
L 1259 2222 
L 1259 531 
L 3634 531 
L 3634 0 
L 628 0 
L 628 4666 
z
" transform="scale(0.015625)"/>
       <path id="DejaVuSans-52" d="M 2841 2188 
Q 3044 2119 3236 1894 
Q 3428 1669 3622 1275 
L 4263 0 
L 3584 0 
L 2988 1197 
Q 2756 1666 2539 1819 
Q 2322 1972 1947 1972 
L 1259 1972 
L 1259 0 
L 628 0 
L 628 4666 
L 2053 4666 
Q 2853 4666 3247 4331 
Q 3641 3997 3641 3322 
Q 3641 2881 3436 2590 
Q 3231 2300 2841 2188 
z
M 1259 4147 
L 1259 2491 
L 2053 2491 
Q 2509 2491 2742 2702 
Q 2975 2913 2975 3322 
Q 2975 3731 2742 3939 
Q 2509 4147 2053 4147 
L 1259 4147 
z
" transform="scale(0.015625)"/>
       <path id="DejaVuSans-54" d="M -19 4666 
L 3928 4666 
L 3928 4134 
L 2272 4134 
L 2272 0 
L 1638 0 
L 1638 4134 
L -19 4134 
L -19 4666 
z
" transform="scale(0.015625)"/>
       <path id="DejaVuSans-20" transform="scale(0.015625)"/>
       <path id="DejaVuSans-66" d="M 2375 4863 
L 2375 4384 
L 1825 4384 
Q 1516 4384 1395 4259 
Q 1275 4134 1275 3809 
L 1275 3500 
L 2222 3500 
L 2222 3053 
L 1275 3053 
L 1275 0 
L 697 0 
L 697 3053 
L 147 3053 
L 147 3500 
L 697 3500 
L 697 3744 
Q 697 4328 969 4595 
Q 1241 4863 1831 4863 
L 2375 4863 
z
" transform="scale(0.015625)"/>
       <path id="DejaVuSans-62" d="M 3116 1747 
Q 3116 2381 2855 2742 
Q 2594 3103 2138 3103 
Q 1681 3103 1420 2742 
Q 1159 2381 1159 1747 
Q 1159 1113 1420 752 
Q 1681 391 2138 391 
Q 2594 391 2855 752 
Q 3116 1113 3116 1747 
z
M 1159 2969 
Q 1341 3281 1617 3432 
Q 1894 3584 2278 3584 
Q 2916 3584 3314 3078 
Q 3713 2572 3713 1747 
Q 3713 922 3314 415 
Q 2916 -91 2278 -91 
Q 1894 -91 1617 61 
Q 1341 213 1159 525 
L 1159 0 
L 581 0 
L 581 4863 
L 1159 4863 
L 1159 2969 
z
" transform="scale(0.015625)"/>
       <path id="DejaVuSans-61" d="M 2194 1759 
Q 1497 1759 1228 1600 
Q 959 1441 959 1056 
Q 959 750 1161 570 
Q 1363 391 1709 391 
Q 2188 391 2477 730 
Q 2766 1069 2766 1631 
L 2766 1759 
L 2194 1759 
z
M 3341 1997 
L 3341 0 
L 2766 0 
L 2766 531 
Q 2569 213 2275 61 
Q 1981 -91 1556 -91 
Q 1019 -91 701 211 
Q 384 513 384 1019 
Q 384 1609 779 1909 
Q 1175 2209 1959 2209 
L 2766 2209 
L 2766 2266 
Q 2766 2663 2505 2880 
Q 2244 3097 1772 3097 
Q 1472 3097 1187 3025 
Q 903 2953 641 2809 
L 641 3341 
Q 956 3463 1253 3523 
Q 1550 3584 1831 3584 
Q 2591 3584 2966 3190 
Q 3341 2797 3341 1997 
z
" transform="scale(0.015625)"/>
       <path id="DejaVuSans-73" d="M 2834 3397 
L 2834 2853 
Q 2591 2978 2328 3040 
Q 2066 3103 1784 3103 
Q 1356 3103 1142 2972 
Q 928 2841 928 2578 
Q 928 2378 1081 2264 
Q 1234 2150 1697 2047 
L 1894 2003 
Q 2506 1872 2764 1633 
Q 3022 1394 3022 966 
Q 3022 478 2636 193 
Q 2250 -91 1575 -91 
Q 1294 -91 989 -36 
Q 684 19 347 128 
L 347 722 
Q 666 556 975 473 
Q 1284 391 1588 391 
Q 1994 391 2212 530 
Q 2431 669 2431 922 
Q 2431 1156 2273 1281 
Q 2116 1406 1581 1522 
L 1381 1569 
Q 847 1681 609 1914 
Q 372 2147 372 2553 
Q 372 3047 722 3315 
Q 1072 3584 1716 3584 
Q 2034 3584 2315 3537 
Q 2597 3491 2834 3397 
z
" transform="scale(0.015625)"/>
       <path id="DejaVuSans-65" d="M 3597 1894 
L 3597 1613 
L 953 1613 
Q 991 1019 1311 708 
Q 1631 397 2203 397 
Q 2534 397 2845 478 
Q 3156 559 3463 722 
L 3463 178 
Q 3153 47 2828 -22 
Q 2503 -91 2169 -91 
Q 1331 -91 842 396 
Q 353 884 353 1716 
Q 353 2575 817 3079 
Q 1281 3584 2069 3584 
Q 2775 3584 3186 3129 
Q 3597 2675 3597 1894 
z
M 3022 2063 
Q 3016 2534 2758 2815 
Q 2500 3097 2075 3097 
Q 1594 3097 1305 2825 
Q 1016 2553 972 2059 
L 3022 2063 
z
" transform="scale(0.015625)"/>
       <path id="DejaVuSans-2d" d="M 313 2009 
L 1997 2009 
L 1997 1497 
L 313 1497 
L 313 2009 
z
" transform="scale(0.015625)"/>
       <path id="DejaVuSans-43" d="M 4122 4306 
L 4122 3641 
Q 3803 3938 3442 4084 
Q 3081 4231 2675 4231 
Q 1875 4231 1450 3742 
Q 1025 3253 1025 2328 
Q 1025 1406 1450 917 
Q 1875 428 2675 428 
Q 3081 428 3442 575 
Q 3803 722 4122 1019 
L 4122 359 
Q 3791 134 3420 21 
Q 3050 -91 2638 -91 
Q 1578 -91 968 557 
Q 359 1206 359 2328 
Q 359 3453 968 4101 
Q 1578 4750 2638 4750 
Q 3056 4750 3426 4639 
Q 3797 4528 4122 4306 
z
" transform="scale(0.015625)"/>
       <path id="DejaVuSans-4d" d="M 628 4666 
L 1569 4666 
L 2759 1491 
L 3956 4666 
L 4897 4666 
L 4897 0 
L 4281 0 
L 4281 4097 
L 3078 897 
L 2444 897 
L 1241 4097 
L 1241 0 
L 628 0 
L 628 4666 
z
" transform="scale(0.015625)"/>
       <path id="DejaVuSans-41" d="M 2188 4044 
L 1331 1722 
L 3047 1722 
L 2188 4044 
z
M 1831 4666 
L 2547 4666 
L 4325 0 
L 3669 0 
L 3244 1197 
L 1141 1197 
L 716 0 
L 50 0 
L 1831 4666 
z
" transform="scale(0.015625)"/>
       <path id="DejaVuSans-53" d="M 3425 4513 
L 3425 3897 
Q 3066 4069 2747 4153 
Q 2428 4238 2131 4238 
Q 1616 4238 1336 4038 
Q 1056 3838 1056 3469 
Q 1056 3159 1242 3001 
Q 1428 2844 1947 2747 
L 2328 2669 
Q 3034 2534 3370 2195 
Q 3706 1856 3706 1288 
Q 3706 609 3251 259 
Q 2797 -91 1919 -91 
Q 1588 -91 1214 -16 
Q 841 59 441 206 
L 441 856 
Q 825 641 1194 531 
Q 1563 422 1919 422 
Q 2459 422 2753 634 
Q 3047 847 3047 1241 
Q 3047 1584 2836 1778 
Q 2625 1972 2144 2069 
L 1759 2144 
Q 1053 2284 737 2584 
Q 422 2884 422 3419 
Q 422 4038 858 4394 
Q 1294 4750 2059 4750 
Q 2388 4750 2728 4690 
Q 3069 4631 3425 4513 
z
" transform="scale(0.015625)"/>
       <path id="DejaVuSans-29" d="M 513 4856 
L 1013 4856 
Q 1481 4119 1714 3412 
Q 1947 2706 1947 2009 
Q 1947 1309 1714 600 
Q 1481 -109 1013 -844 
L 513 -844 
Q 928 -128 1133 580 
Q 1338 1288 1338 2009 
Q 1338 2731 1133 3434 
Q 928 4138 513 4856 
z
" transform="scale(0.015625)"/>
      </defs>
      <use xlink:href="#DejaVuSans-6c"/>
      <use xlink:href="#DejaVuSans-6f" x="27.783203"/>
      <use xlink:href="#DejaVuSans-67" x="88.964844"/>
      <use xlink:href="#DejaVuSans-31" x="152.441406"/>
      <use xlink:href="#DejaVuSans-30" x="216.064453"/>
      <use xlink:href="#DejaVuSans-28" x="279.6875"/>
      <use xlink:href="#DejaVuSans-45" x="318.701172"/>
      <use xlink:href="#DejaVuSans-52" x="381.884766"/>
      <use xlink:href="#DejaVuSans-54" x="444.117188"/>
      <use xlink:href="#DejaVuSans-20" x="505.201172"/>
      <use xlink:href="#DejaVuSans-6f" x="536.988281"/>
      <use xlink:href="#DejaVuSans-66" x="598.169922"/>
      <use xlink:href="#DejaVuSans-20" x="633.375"/>
      <use xlink:href="#DejaVuSans-62" x="665.162109"/>
      <use xlink:href="#DejaVuSans-61" x="728.638672"/>
      <use xlink:href="#DejaVuSans-73" x="789.917969"/>
      <use xlink:href="#DejaVuSans-65" x="842.017578"/>
      <use xlink:href="#DejaVuSans-2d" x="903.541016"/>
      <use xlink:href="#DejaVuSans-43" x="939.625"/>
      <use xlink:href="#DejaVuSans-4d" x="1009.449219"/>
      <use xlink:href="#DejaVuSans-41" x="1095.728516"/>
      <use xlink:href="#DejaVuSans-2d" x="1161.886719"/>
      <use xlink:href="#DejaVuSans-45" x="1197.970703"/>
      <use xlink:href="#DejaVuSans-53" x="1261.154297"/>
      <use xlink:href="#DejaVuSans-29" x="1324.630859"/>
     </g>
    </g>
   </g>
   <g id="matplotlib.axis_2">
    <g id="ytick_1">
     <g id="line2d_17">
      <path d="M 45.469063 220.331944 
L 319.829063 220.331944 
" clip-path="url(#pfd2718c036)" style="fill: none; stroke: #b0b0b0; stroke-width: 0.8; stroke-linecap: square"/>
     </g>
     <g id="line2d_18">
      <defs>
       <path id="md125361d17" d="M 0 0 
L -3.5 0 
" style="stroke: #000000; stroke-width: 0.8"/>
      </defs>
      <g>
       <use xlink:href="#md125361d17" x="45.469063" y="220.331944" style="stroke: #000000; stroke-width: 0.8"/>
      </g>
     </g>
     <g id="text_5">
      <!-- 2 -->
      <g transform="translate(27.652813 226.790616) scale(0.17 -0.17)">
       <use xlink:href="#DejaVuSans-32"/>
      </g>
     </g>
    </g>
    <g id="ytick_2">
     <g id="line2d_19">
      <path d="M 45.469063 139.4267 
L 319.829063 139.4267 
" clip-path="url(#pfd2718c036)" style="fill: none; stroke: #b0b0b0; stroke-width: 0.8; stroke-linecap: square"/>
     </g>
     <g id="line2d_20">
      <g>
       <use xlink:href="#md125361d17" x="45.469063" y="139.4267" style="stroke: #000000; stroke-width: 0.8"/>
      </g>
     </g>
     <g id="text_6">
      <!-- 4 -->
      <g transform="translate(27.652813 145.885372) scale(0.17 -0.17)">
       <use xlink:href="#DejaVuSans-34"/>
      </g>
     </g>
    </g>
    <g id="ytick_3">
     <g id="line2d_21">
      <path d="M 45.469063 58.521457 
L 319.829063 58.521457 
" clip-path="url(#pfd2718c036)" style="fill: none; stroke: #b0b0b0; stroke-width: 0.8; stroke-linecap: square"/>
     </g>
     <g id="line2d_22">
      <g>
       <use xlink:href="#md125361d17" x="45.469063" y="58.521457" style="stroke: #000000; stroke-width: 0.8"/>
      </g>
     </g>
     <g id="text_7">
      <!-- 6 -->
      <g transform="translate(27.652813 64.980129) scale(0.17 -0.17)">
       <use xlink:href="#DejaVuSans-36"/>
      </g>
     </g>
    </g>
    <g id="text_8">
     <!-- log10(ERT of LB-CMA) -->
     <g transform="translate(20.117344 256.631484) rotate(-90) scale(0.17 -0.17)">
      <defs>
       <path id="DejaVuSans-4c" d="M 628 4666 
L 1259 4666 
L 1259 531 
L 3531 531 
L 3531 0 
L 628 0 
L 628 4666 
z
" transform="scale(0.015625)"/>
       <path id="DejaVuSans-42" d="M 1259 2228 
L 1259 519 
L 2272 519 
Q 2781 519 3026 730 
Q 3272 941 3272 1375 
Q 3272 1813 3026 2020 
Q 2781 2228 2272 2228 
L 1259 2228 
z
M 1259 4147 
L 1259 2741 
L 2194 2741 
Q 2656 2741 2882 2914 
Q 3109 3088 3109 3444 
Q 3109 3797 2882 3972 
Q 2656 4147 2194 4147 
L 1259 4147 
z
M 628 4666 
L 2241 4666 
Q 2963 4666 3353 4366 
Q 3744 4066 3744 3513 
Q 3744 3084 3544 2831 
Q 3344 2578 2956 2516 
Q 3422 2416 3680 2098 
Q 3938 1781 3938 1306 
Q 3938 681 3513 340 
Q 3088 0 2303 0 
L 628 0 
L 628 4666 
z
" transform="scale(0.015625)"/>
      </defs>
      <use xlink:href="#DejaVuSans-6c"/>
      <use xlink:href="#DejaVuSans-6f" x="27.783203"/>
      <use xlink:href="#DejaVuSans-67" x="88.964844"/>
      <use xlink:href="#DejaVuSans-31" x="152.441406"/>
      <use xlink:href="#DejaVuSans-30" x="216.064453"/>
      <use xlink:href="#DejaVuSans-28" x="279.6875"/>
      <use xlink:href="#DejaVuSans-45" x="318.701172"/>
      <use xlink:href="#DejaVuSans-52" x="381.884766"/>
      <use xlink:href="#DejaVuSans-54" x="444.117188"/>
      <use xlink:href="#DejaVuSans-20" x="505.201172"/>
      <use xlink:href="#DejaVuSans-6f" x="536.988281"/>
      <use xlink:href="#DejaVuSans-66" x="598.169922"/>
      <use xlink:href="#DejaVuSans-20" x="633.375"/>
      <use xlink:href="#DejaVuSans-4c" x="665.162109"/>
      <use xlink:href="#DejaVuSans-42" x="720.875"/>
      <use xlink:href="#DejaVuSans-2d" x="789.478516"/>
      <use xlink:href="#DejaVuSans-43" x="825.5625"/>
      <use xlink:href="#DejaVuSans-4d" x="895.386719"/>
      <use xlink:href="#DejaVuSans-41" x="981.666016"/>
      <use xlink:href="#DejaVuSans-29" x="1050.074219"/>
     </g>
    </g>
   </g>
   <g id="line2d_23">
    <defs>
     <path id="m5c7887d9c6" d="M -7 0 
L 7 0 
M 0 7 
L 0 -7 
" style="stroke: #00bfbf; stroke-width: 3"/>
    </defs>
    <g>
     <use xlink:href="#m5c7887d9c6" x="45.469063" y="301.237187" style="fill-opacity: 0; stroke: #00bfbf; stroke-width: 3"/>
     <use xlink:href="#m5c7887d9c6" x="46.602898" y="300.103352" style="fill-opacity: 0; stroke: #00bfbf; stroke-width: 3"/>
     <use xlink:href="#m5c7887d9c6" x="62.255822" y="284.906774" style="fill-opacity: 0; stroke: #00bfbf; stroke-width: 3"/>
     <use xlink:href="#m5c7887d9c6" x="90.440666" y="256.817515" style="fill-opacity: 0; stroke: #00bfbf; stroke-width: 3"/>
     <use xlink:href="#m5c7887d9c6" x="168.315121" y="194.299934" style="fill-opacity: 0; stroke: #00bfbf; stroke-width: 3"/>
     <use xlink:href="#m5c7887d9c6" x="173.018705" y="182.10918" style="fill-opacity: 0; stroke: #00bfbf; stroke-width: 3"/>
     <use xlink:href="#m5c7887d9c6" x="175.097288" y="181.214824" style="fill-opacity: 0; stroke: #00bfbf; stroke-width: 3"/>
     <use xlink:href="#m5c7887d9c6" x="178.345669" y="180.828608" style="fill-opacity: 0; stroke: #00bfbf; stroke-width: 3"/>
     <use xlink:href="#m5c7887d9c6" x="180.101944" y="178.877746" style="fill-opacity: 0; stroke: #00bfbf; stroke-width: 3"/>
     <use xlink:href="#m5c7887d9c6" x="180.496877" y="178.617486" style="fill-opacity: 0; stroke: #00bfbf; stroke-width: 3"/>
     <use xlink:href="#m5c7887d9c6" x="181.108476" y="177.884142" style="fill-opacity: 0; stroke: #00bfbf; stroke-width: 3"/>
     <use xlink:href="#m5c7887d9c6" x="181.398042" y="177.579427" style="fill-opacity: 0; stroke: #00bfbf; stroke-width: 3"/>
     <use xlink:href="#m5c7887d9c6" x="182.861284" y="176.93482" style="fill-opacity: 0; stroke: #00bfbf; stroke-width: 3"/>
     <use xlink:href="#m5c7887d9c6" x="183.10873" y="176.58861" style="fill-opacity: 0; stroke: #00bfbf; stroke-width: 3"/>
     <use xlink:href="#m5c7887d9c6" x="183.64834" y="176.189181" style="fill-opacity: 0; stroke: #00bfbf; stroke-width: 3"/>
     <use xlink:href="#m5c7887d9c6" x="183.698621" y="175.678345" style="fill-opacity: 0; stroke: #00bfbf; stroke-width: 3"/>
     <use xlink:href="#m5c7887d9c6" x="184.035186" y="174.680007" style="fill-opacity: 0; stroke: #00bfbf; stroke-width: 3"/>
     <use xlink:href="#m5c7887d9c6" x="184.068579" y="174.138713" style="fill-opacity: 0; stroke: #00bfbf; stroke-width: 3"/>
     <use xlink:href="#m5c7887d9c6" x="184.521402" y="173.90126" style="fill-opacity: 0; stroke: #00bfbf; stroke-width: 3"/>
     <use xlink:href="#m5c7887d9c6" x="184.714975" y="173.495933" style="fill-opacity: 0; stroke: #00bfbf; stroke-width: 3"/>
     <use xlink:href="#m5c7887d9c6" x="185.109494" y="173.119664" style="fill-opacity: 0; stroke: #00bfbf; stroke-width: 3"/>
     <use xlink:href="#m5c7887d9c6" x="185.221663" y="172.716972" style="fill-opacity: 0; stroke: #00bfbf; stroke-width: 3"/>
    </g>
   </g>
   <g id="line2d_24">
    <defs>
     <path id="m5fde20b2a9" d="M -0 7 
L 7 -7 
L -7 -7 
z
" style="stroke: #008000; stroke-width: 3; stroke-linejoin: miter"/>
    </defs>
    <g>
     <use xlink:href="#m5fde20b2a9" x="45.469063" y="301.237187" style="fill-opacity: 0; stroke: #008000; stroke-width: 3; stroke-linejoin: miter"/>
     <use xlink:href="#m5fde20b2a9" x="47.667972" y="299.038278" style="fill-opacity: 0; stroke: #008000; stroke-width: 3; stroke-linejoin: miter"/>
     <use xlink:href="#m5fde20b2a9" x="93.277734" y="250.65442" style="fill-opacity: 0; stroke: #008000; stroke-width: 3; stroke-linejoin: miter"/>
     <use xlink:href="#m5fde20b2a9" x="163.827848" y="210.406969" style="fill-opacity: 0; stroke: #008000; stroke-width: 3; stroke-linejoin: miter"/>
     <use xlink:href="#m5fde20b2a9" x="209.335264" y="127.127396" style="fill-opacity: 0; stroke: #008000; stroke-width: 3; stroke-linejoin: miter"/>
     <use xlink:href="#m5fde20b2a9" x="209.804765" y="126.713411" style="fill-opacity: 0; stroke: #008000; stroke-width: 3; stroke-linejoin: miter"/>
     <use xlink:href="#m5fde20b2a9" x="210.621852" y="126.165003" style="fill-opacity: 0; stroke: #008000; stroke-width: 3; stroke-linejoin: miter"/>
     <use xlink:href="#m5fde20b2a9" x="210.702328" y="125.753954" style="fill-opacity: 0; stroke: #008000; stroke-width: 3; stroke-linejoin: miter"/>
     <use xlink:href="#m5fde20b2a9" x="211.056718" y="123.173944" style="fill-opacity: 0; stroke: #008000; stroke-width: 3; stroke-linejoin: miter"/>
     <use xlink:href="#m5fde20b2a9" x="211.257437" y="123.044214" style="fill-opacity: 0; stroke: #008000; stroke-width: 3; stroke-linejoin: miter"/>
     <use xlink:href="#m5fde20b2a9" x="211.683417" y="122.909304" style="fill-opacity: 0; stroke: #008000; stroke-width: 3; stroke-linejoin: miter"/>
     <use xlink:href="#m5fde20b2a9" x="211.939327" y="122.851489" style="fill-opacity: 0; stroke: #008000; stroke-width: 3; stroke-linejoin: miter"/>
     <use xlink:href="#m5fde20b2a9" x="212.149893" y="122.692499" style="fill-opacity: 0; stroke: #008000; stroke-width: 3; stroke-linejoin: miter"/>
     <use xlink:href="#m5fde20b2a9" x="212.297773" y="122.604659" style="fill-opacity: 0; stroke: #008000; stroke-width: 3; stroke-linejoin: miter"/>
     <use xlink:href="#m5fde20b2a9" x="212.680774" y="122.504914" style="fill-opacity: 0; stroke: #008000; stroke-width: 3; stroke-linejoin: miter"/>
     <use xlink:href="#m5fde20b2a9" x="212.867611" y="122.413913" style="fill-opacity: 0; stroke: #008000; stroke-width: 3; stroke-linejoin: miter"/>
     <use xlink:href="#m5fde20b2a9" x="213.220653" y="122.188649" style="fill-opacity: 0; stroke: #008000; stroke-width: 3; stroke-linejoin: miter"/>
     <use xlink:href="#m5fde20b2a9" x="213.461856" y="122.112158" style="fill-opacity: 0; stroke: #008000; stroke-width: 3; stroke-linejoin: miter"/>
     <use xlink:href="#m5fde20b2a9" x="213.750675" y="121.997044" style="fill-opacity: 0; stroke: #008000; stroke-width: 3; stroke-linejoin: miter"/>
     <use xlink:href="#m5fde20b2a9" x="213.915936" y="121.871982" style="fill-opacity: 0; stroke: #008000; stroke-width: 3; stroke-linejoin: miter"/>
     <use xlink:href="#m5fde20b2a9" x="214.118901" y="121.731927" style="fill-opacity: 0; stroke: #008000; stroke-width: 3; stroke-linejoin: miter"/>
     <use xlink:href="#m5fde20b2a9" x="214.280278" y="121.625093" style="fill-opacity: 0; stroke: #008000; stroke-width: 3; stroke-linejoin: miter"/>
    </g>
   </g>
   <g id="line2d_25">
    <defs>
     <path id="m0e23952e78" d="M 0 -7 
L -1.571598 -2.163119 
L -6.657396 -2.163119 
L -2.542899 0.826238 
L -4.114497 5.663119 
L -0 2.673762 
L 4.114497 5.663119 
L 2.542899 0.826238 
L 6.657396 -2.163119 
L 1.571598 -2.163119 
z
" style="stroke: #0000ff; stroke-width: 3; stroke-linejoin: bevel"/>
    </defs>
    <g>
     <use xlink:href="#m0e23952e78" x="45.469063" y="301.237187" style="fill-opacity: 0; stroke: #0000ff; stroke-width: 3; stroke-linejoin: bevel"/>
     <use xlink:href="#m0e23952e78" x="65.903704" y="286.860825" style="fill-opacity: 0; stroke: #0000ff; stroke-width: 3; stroke-linejoin: bevel"/>
     <use xlink:href="#m0e23952e78" x="148.130499" y="203.228226" style="fill-opacity: 0; stroke: #0000ff; stroke-width: 3; stroke-linejoin: bevel"/>
     <use xlink:href="#m0e23952e78" x="218.49207" y="124.130199" style="fill-opacity: 0; stroke: #0000ff; stroke-width: 3; stroke-linejoin: bevel"/>
     <use xlink:href="#m0e23952e78" x="236.801746" y="104.754497" style="fill-opacity: 0; stroke: #0000ff; stroke-width: 3; stroke-linejoin: bevel"/>
     <use xlink:href="#m0e23952e78" x="236.972264" y="104.565164" style="fill-opacity: 0; stroke: #0000ff; stroke-width: 3; stroke-linejoin: bevel"/>
     <use xlink:href="#m0e23952e78" x="237.183723" y="104.38819" style="fill-opacity: 0; stroke: #0000ff; stroke-width: 3; stroke-linejoin: bevel"/>
     <use xlink:href="#m0e23952e78" x="237.308074" y="104.246423" style="fill-opacity: 0; stroke: #0000ff; stroke-width: 3; stroke-linejoin: bevel"/>
     <use xlink:href="#m0e23952e78" x="237.621724" y="104.053932" style="fill-opacity: 0; stroke: #0000ff; stroke-width: 3; stroke-linejoin: bevel"/>
     <use xlink:href="#m0e23952e78" x="237.808913" y="103.941332" style="fill-opacity: 0; stroke: #0000ff; stroke-width: 3; stroke-linejoin: bevel"/>
     <use xlink:href="#m0e23952e78" x="238.13934" y="103.754428" style="fill-opacity: 0; stroke: #0000ff; stroke-width: 3; stroke-linejoin: bevel"/>
     <use xlink:href="#m0e23952e78" x="238.252649" y="103.65583" style="fill-opacity: 0; stroke: #0000ff; stroke-width: 3; stroke-linejoin: bevel"/>
     <use xlink:href="#m0e23952e78" x="238.534447" y="103.460051" style="fill-opacity: 0; stroke: #0000ff; stroke-width: 3; stroke-linejoin: bevel"/>
     <use xlink:href="#m0e23952e78" x="238.704201" y="103.336372" style="fill-opacity: 0; stroke: #0000ff; stroke-width: 3; stroke-linejoin: bevel"/>
     <use xlink:href="#m0e23952e78" x="238.940464" y="103.142869" style="fill-opacity: 0; stroke: #0000ff; stroke-width: 3; stroke-linejoin: bevel"/>
     <use xlink:href="#m0e23952e78" x="239.085007" y="103.028121" style="fill-opacity: 0; stroke: #0000ff; stroke-width: 3; stroke-linejoin: bevel"/>
     <use xlink:href="#m0e23952e78" x="239.268425" y="102.873171" style="fill-opacity: 0; stroke: #0000ff; stroke-width: 3; stroke-linejoin: bevel"/>
     <use xlink:href="#m0e23952e78" x="239.567295" y="102.731639" style="fill-opacity: 0; stroke: #0000ff; stroke-width: 3; stroke-linejoin: bevel"/>
     <use xlink:href="#m0e23952e78" x="239.769062" y="102.568762" style="fill-opacity: 0; stroke: #0000ff; stroke-width: 3; stroke-linejoin: bevel"/>
     <use xlink:href="#m0e23952e78" x="239.969285" y="102.473694" style="fill-opacity: 0; stroke: #0000ff; stroke-width: 3; stroke-linejoin: bevel"/>
     <use xlink:href="#m0e23952e78" x="240.236851" y="102.285879" style="fill-opacity: 0; stroke: #0000ff; stroke-width: 3; stroke-linejoin: bevel"/>
     <use xlink:href="#m0e23952e78" x="240.473603" y="102.160549" style="fill-opacity: 0; stroke: #0000ff; stroke-width: 3; stroke-linejoin: bevel"/>
    </g>
   </g>
   <g id="line2d_26">
    <defs>
     <path id="m41979b88a9" d="M 0 7 
C 1.856422 7 3.637059 6.262436 4.949747 4.949747 
C 6.262436 3.637059 7 1.856422 7 0 
C 7 -1.856422 6.262436 -3.637059 4.949747 -4.949747 
C 3.637059 -6.262436 1.856422 -7 0 -7 
C -1.856422 -7 -3.637059 -6.262436 -4.949747 -4.949747 
C -6.262436 -3.637059 -7 -1.856422 -7 0 
C -7 1.856422 -6.262436 3.637059 -4.949747 4.949747 
C -3.637059 6.262436 -1.856422 7 0 7 
z
" style="stroke: #000000; stroke-width: 3"/>
    </defs>
    <g>
     <use xlink:href="#m41979b88a9" x="45.469063" y="301.237187" style="fill-opacity: 0; stroke: #000000; stroke-width: 3"/>
     <use xlink:href="#m41979b88a9" x="121.335816" y="228.356436" style="fill-opacity: 0; stroke: #000000; stroke-width: 3"/>
     <use xlink:href="#m41979b88a9" x="225.957802" y="123.377915" style="fill-opacity: 0; stroke: #000000; stroke-width: 3"/>
     <use xlink:href="#m41979b88a9" x="257.606179" y="84.124439" style="fill-opacity: 0; stroke: #000000; stroke-width: 3"/>
     <use xlink:href="#m41979b88a9" x="257.827528" y="83.943775" style="fill-opacity: 0; stroke: #000000; stroke-width: 3"/>
     <use xlink:href="#m41979b88a9" x="257.99027" y="83.861412" style="fill-opacity: 0; stroke: #000000; stroke-width: 3"/>
     <use xlink:href="#m41979b88a9" x="258.225679" y="83.663309" style="fill-opacity: 0; stroke: #000000; stroke-width: 3"/>
     <use xlink:href="#m41979b88a9" x="258.370069" y="83.497418" style="fill-opacity: 0; stroke: #000000; stroke-width: 3"/>
     <use xlink:href="#m41979b88a9" x="258.708359" y="83.306596" style="fill-opacity: 0; stroke: #000000; stroke-width: 3"/>
     <use xlink:href="#m41979b88a9" x="258.861252" y="83.160057" style="fill-opacity: 0; stroke: #000000; stroke-width: 3"/>
     <use xlink:href="#m41979b88a9" x="259.241663" y="82.973551" style="fill-opacity: 0; stroke: #000000; stroke-width: 3"/>
     <use xlink:href="#m41979b88a9" x="259.431676" y="82.862411" style="fill-opacity: 0; stroke: #000000; stroke-width: 3"/>
     <use xlink:href="#m41979b88a9" x="259.721328" y="82.645145" style="fill-opacity: 0; stroke: #000000; stroke-width: 3"/>
     <use xlink:href="#m41979b88a9" x="259.921678" y="82.514" style="fill-opacity: 0; stroke: #000000; stroke-width: 3"/>
     <use xlink:href="#m41979b88a9" x="260.174585" y="82.334562" style="fill-opacity: 0; stroke: #000000; stroke-width: 3"/>
     <use xlink:href="#m41979b88a9" x="260.333077" y="82.202321" style="fill-opacity: 0; stroke: #000000; stroke-width: 3"/>
     <use xlink:href="#m41979b88a9" x="260.589019" y="82.009444" style="fill-opacity: 0; stroke: #000000; stroke-width: 3"/>
     <use xlink:href="#m41979b88a9" x="260.743436" y="81.905245" style="fill-opacity: 0; stroke: #000000; stroke-width: 3"/>
     <use xlink:href="#m41979b88a9" x="260.981598" y="81.735097" style="fill-opacity: 0; stroke: #000000; stroke-width: 3"/>
     <use xlink:href="#m41979b88a9" x="261.145334" y="81.597516" style="fill-opacity: 0; stroke: #000000; stroke-width: 3"/>
     <use xlink:href="#m41979b88a9" x="261.359396" y="81.44615" style="fill-opacity: 0; stroke: #000000; stroke-width: 3"/>
     <use xlink:href="#m41979b88a9" x="262.718825" y="81.331306" style="fill-opacity: 0; stroke: #000000; stroke-width: 3"/>
    </g>
   </g>
   <g id="line2d_27">
    <defs>
     <path id="ma70213b57d" d="M -7 7 
L 7 7 
L 7 -7 
L -7 -7 
z
" style="stroke: #ff0000; stroke-width: 3; stroke-linejoin: miter"/>
    </defs>
    <g>
     <use xlink:href="#ma70213b57d" x="45.469063" y="301.237187" style="fill-opacity: 0; stroke: #ff0000; stroke-width: 3; stroke-linejoin: miter"/>
     <use xlink:href="#ma70213b57d" x="131.340343" y="212.489542" style="fill-opacity: 0; stroke: #ff0000; stroke-width: 3; stroke-linejoin: miter"/>
     <use xlink:href="#ma70213b57d" x="243.73598" y="102.090859" style="fill-opacity: 0; stroke: #ff0000; stroke-width: 3; stroke-linejoin: miter"/>
    </g>
   </g>
   <g id="line2d_28">
    <defs>
     <path id="mb4f1888d79" d="M -4 4 
L 4 4 
L 4 -4 
L -4 -4 
z
" style="stroke: #ff0000; stroke-linejoin: miter"/>
    </defs>
    <g>
     <use xlink:href="#mb4f1888d79" x="289.33144" y="40.615086" style="fill-opacity: 0; stroke: #ff0000; stroke-linejoin: miter"/>
     <use xlink:href="#mb4f1888d79" x="289.605738" y="40.573254" style="fill-opacity: 0; stroke: #ff0000; stroke-linejoin: miter"/>
     <use xlink:href="#mb4f1888d79" x="289.783912" y="40.542852" style="fill-opacity: 0; stroke: #ff0000; stroke-linejoin: miter"/>
     <use xlink:href="#mb4f1888d79" x="290.075216" y="40.499339" style="fill-opacity: 0; stroke: #ff0000; stroke-linejoin: miter"/>
     <use xlink:href="#mb4f1888d79" x="290.275281" y="40.462164" style="fill-opacity: 0; stroke: #ff0000; stroke-linejoin: miter"/>
     <use xlink:href="#mb4f1888d79" x="296.020882" y="40.414331" style="fill-opacity: 0; stroke: #ff0000; stroke-linejoin: miter"/>
     <use xlink:href="#mb4f1888d79" x="297.825529" y="40.372505" style="fill-opacity: 0; stroke: #ff0000; stroke-linejoin: miter"/>
     <use xlink:href="#mb4f1888d79" x="301.876088" y="40.326794" style="fill-opacity: 0; stroke: #ff0000; stroke-linejoin: miter"/>
     <use xlink:href="#mb4f1888d79" x="301.953329" y="40.297486" style="fill-opacity: 0; stroke: #ff0000; stroke-linejoin: miter"/>
     <use xlink:href="#mb4f1888d79" x="302.086733" y="40.256776" style="fill-opacity: 0; stroke: #ff0000; stroke-linejoin: miter"/>
     <use xlink:href="#mb4f1888d79" x="302.158937" y="40.224229" style="fill-opacity: 0; stroke: #ff0000; stroke-linejoin: miter"/>
     <use xlink:href="#mb4f1888d79" x="302.261901" y="40.186506" style="fill-opacity: 0; stroke: #ff0000; stroke-linejoin: miter"/>
     <use xlink:href="#mb4f1888d79" x="302.327516" y="40.158597" style="fill-opacity: 0; stroke: #ff0000; stroke-linejoin: miter"/>
     <use xlink:href="#mb4f1888d79" x="302.455466" y="40.120987" style="fill-opacity: 0; stroke: #ff0000; stroke-linejoin: miter"/>
     <use xlink:href="#mb4f1888d79" x="302.51472" y="40.090329" style="fill-opacity: 0; stroke: #ff0000; stroke-linejoin: miter"/>
     <use xlink:href="#mb4f1888d79" x="302.603949" y="40.046608" style="fill-opacity: 0; stroke: #ff0000; stroke-linejoin: miter"/>
     <use xlink:href="#mb4f1888d79" x="302.678062" y="40.009532" style="fill-opacity: 0; stroke: #ff0000; stroke-linejoin: miter"/>
     <use xlink:href="#mb4f1888d79" x="302.771038" y="39.968361" style="fill-opacity: 0; stroke: #ff0000; stroke-linejoin: miter"/>
     <use xlink:href="#mb4f1888d79" x="302.846858" y="39.941949" style="fill-opacity: 0; stroke: #ff0000; stroke-linejoin: miter"/>
    </g>
   </g>
   <g id="line2d_29">
    <path d="M 45.469063 301.237187 
L 319.829063 26.877187 
" clip-path="url(#pfd2718c036)" style="fill: none; stroke: #000000; stroke-width: 1.5; stroke-linecap: square"/>
   </g>
   <g id="line2d_30">
    <path d="M 85.921684 301.237187 
L 328.029062 59.129809 
" clip-path="url(#pfd2718c036)" style="fill: none; stroke: #d3d3d3; stroke-linecap: square"/>
   </g>
   <g id="line2d_31">
    <path d="M 126.374306 301.237187 
L 328.029062 99.582431 
" clip-path="url(#pfd2718c036)" style="fill: none; stroke: #d3d3d3; stroke-linecap: square"/>
   </g>
   <g id="line2d_32">
    <path d="M 45.469063 260.784566 
L 307.253628 -1 
" clip-path="url(#pfd2718c036)" style="fill: none; stroke: #d3d3d3; stroke-linecap: square"/>
   </g>
   <g id="line2d_33">
    <path d="M 45.469063 220.331944 
L 266.801006 -1 
" clip-path="url(#pfd2718c036)" style="fill: none; stroke: #d3d3d3; stroke-linecap: square"/>
   </g>
   <g id="patch_3">
    <path d="M 45.469063 301.237187 
L 45.469063 26.877187 
" style="fill: none; stroke: #000000; stroke-width: 0.8; stroke-linejoin: miter; stroke-linecap: square"/>
   </g>
   <g id="patch_4">
    <path d="M 319.829063 301.237187 
L 319.829063 26.877187 
" style="fill: none; stroke: #000000; stroke-width: 0.8; stroke-linejoin: miter; stroke-linecap: square"/>
   </g>
   <g id="patch_5">
    <path d="M 45.469063 301.237187 
L 319.829063 301.237187 
" style="fill: none; stroke: #000000; stroke-width: 0.8; stroke-linejoin: miter; stroke-linecap: square"/>
   </g>
   <g id="patch_6">
    <path d="M 45.469063 26.877187 
L 319.829063 26.877187 
" style="fill: none; stroke: #000000; stroke-width: 0.8; stroke-linejoin: miter; stroke-linecap: square"/>
   </g>
   <g id="text_9">
    <!-- 22 targets: 3e21..1e-8 -->
    <g transform="translate(48.212663 40.114794) scale(0.102 -0.102)">
     <defs>
      <path id="DejaVuSans-74" d="M 1172 4494 
L 1172 3500 
L 2356 3500 
L 2356 3053 
L 1172 3053 
L 1172 1153 
Q 1172 725 1289 603 
Q 1406 481 1766 481 
L 2356 481 
L 2356 0 
L 1766 0 
Q 1100 0 847 248 
Q 594 497 594 1153 
L 594 3053 
L 172 3053 
L 172 3500 
L 594 3500 
L 594 4494 
L 1172 4494 
z
" transform="scale(0.015625)"/>
      <path id="DejaVuSans-72" d="M 2631 2963 
Q 2534 3019 2420 3045 
Q 2306 3072 2169 3072 
Q 1681 3072 1420 2755 
Q 1159 2438 1159 1844 
L 1159 0 
L 581 0 
L 581 3500 
L 1159 3500 
L 1159 2956 
Q 1341 3275 1631 3429 
Q 1922 3584 2338 3584 
Q 2397 3584 2469 3576 
Q 2541 3569 2628 3553 
L 2631 2963 
z
" transform="scale(0.015625)"/>
      <path id="DejaVuSans-3a" d="M 750 794 
L 1409 794 
L 1409 0 
L 750 0 
L 750 794 
z
M 750 3309 
L 1409 3309 
L 1409 2516 
L 750 2516 
L 750 3309 
z
" transform="scale(0.015625)"/>
      <path id="DejaVuSans-33" d="M 2597 2516 
Q 3050 2419 3304 2112 
Q 3559 1806 3559 1356 
Q 3559 666 3084 287 
Q 2609 -91 1734 -91 
Q 1441 -91 1130 -33 
Q 819 25 488 141 
L 488 750 
Q 750 597 1062 519 
Q 1375 441 1716 441 
Q 2309 441 2620 675 
Q 2931 909 2931 1356 
Q 2931 1769 2642 2001 
Q 2353 2234 1838 2234 
L 1294 2234 
L 1294 2753 
L 1863 2753 
Q 2328 2753 2575 2939 
Q 2822 3125 2822 3475 
Q 2822 3834 2567 4026 
Q 2313 4219 1838 4219 
Q 1578 4219 1281 4162 
Q 984 4106 628 3988 
L 628 4550 
Q 988 4650 1302 4700 
Q 1616 4750 1894 4750 
Q 2613 4750 3031 4423 
Q 3450 4097 3450 3541 
Q 3450 3153 3228 2886 
Q 3006 2619 2597 2516 
z
" transform="scale(0.015625)"/>
      <path id="DejaVuSans-2e" d="M 684 794 
L 1344 794 
L 1344 0 
L 684 0 
L 684 794 
z
" transform="scale(0.015625)"/>
      <path id="DejaVuSans-38" d="M 2034 2216 
Q 1584 2216 1326 1975 
Q 1069 1734 1069 1313 
Q 1069 891 1326 650 
Q 1584 409 2034 409 
Q 2484 409 2743 651 
Q 3003 894 3003 1313 
Q 3003 1734 2745 1975 
Q 2488 2216 2034 2216 
z
M 1403 2484 
Q 997 2584 770 2862 
Q 544 3141 544 3541 
Q 544 4100 942 4425 
Q 1341 4750 2034 4750 
Q 2731 4750 3128 4425 
Q 3525 4100 3525 3541 
Q 3525 3141 3298 2862 
Q 3072 2584 2669 2484 
Q 3125 2378 3379 2068 
Q 3634 1759 3634 1313 
Q 3634 634 3220 271 
Q 2806 -91 2034 -91 
Q 1263 -91 848 271 
Q 434 634 434 1313 
Q 434 1759 690 2068 
Q 947 2378 1403 2484 
z
M 1172 3481 
Q 1172 3119 1398 2916 
Q 1625 2713 2034 2713 
Q 2441 2713 2670 2916 
Q 2900 3119 2900 3481 
Q 2900 3844 2670 4047 
Q 2441 4250 2034 4250 
Q 1625 4250 1398 4047 
Q 1172 3844 1172 3481 
z
" transform="scale(0.015625)"/>
     </defs>
     <use xlink:href="#DejaVuSans-32"/>
     <use xlink:href="#DejaVuSans-32" x="63.623047"/>
     <use xlink:href="#DejaVuSans-20" x="127.246094"/>
     <use xlink:href="#DejaVuSans-74" x="159.033203"/>
     <use xlink:href="#DejaVuSans-61" x="198.242188"/>
     <use xlink:href="#DejaVuSans-72" x="259.521484"/>
     <use xlink:href="#DejaVuSans-67" x="298.884766"/>
     <use xlink:href="#DejaVuSans-65" x="362.361328"/>
     <use xlink:href="#DejaVuSans-74" x="423.884766"/>
     <use xlink:href="#DejaVuSans-73" x="463.09375"/>
     <use xlink:href="#DejaVuSans-3a" x="515.193359"/>
     <use xlink:href="#DejaVuSans-20" x="548.884766"/>
     <use xlink:href="#DejaVuSans-33" x="580.671875"/>
     <use xlink:href="#DejaVuSans-65" x="644.294922"/>
     <use xlink:href="#DejaVuSans-32" x="705.818359"/>
     <use xlink:href="#DejaVuSans-31" x="769.441406"/>
     <use xlink:href="#DejaVuSans-2e" x="833.064453"/>
     <use xlink:href="#DejaVuSans-2e" x="864.851562"/>
     <use xlink:href="#DejaVuSans-31" x="896.638672"/>
     <use xlink:href="#DejaVuSans-65" x="960.261719"/>
     <use xlink:href="#DejaVuSans-2d" x="1021.785156"/>
     <use xlink:href="#DejaVuSans-38" x="1057.869141"/>
    </g>
    <!-- 15 and 15 instances -->
    <g transform="translate(48.212663 51.536562) scale(0.102 -0.102)">
     <defs>
      <path id="DejaVuSans-35" d="M 691 4666 
L 3169 4666 
L 3169 4134 
L 1269 4134 
L 1269 2991 
Q 1406 3038 1543 3061 
Q 1681 3084 1819 3084 
Q 2600 3084 3056 2656 
Q 3513 2228 3513 1497 
Q 3513 744 3044 326 
Q 2575 -91 1722 -91 
Q 1428 -91 1123 -41 
Q 819 9 494 109 
L 494 744 
Q 775 591 1075 516 
Q 1375 441 1709 441 
Q 2250 441 2565 725 
Q 2881 1009 2881 1497 
Q 2881 1984 2565 2268 
Q 2250 2553 1709 2553 
Q 1456 2553 1204 2497 
Q 953 2441 691 2322 
L 691 4666 
z
" transform="scale(0.015625)"/>
      <path id="DejaVuSans-6e" d="M 3513 2113 
L 3513 0 
L 2938 0 
L 2938 2094 
Q 2938 2591 2744 2837 
Q 2550 3084 2163 3084 
Q 1697 3084 1428 2787 
Q 1159 2491 1159 1978 
L 1159 0 
L 581 0 
L 581 3500 
L 1159 3500 
L 1159 2956 
Q 1366 3272 1645 3428 
Q 1925 3584 2291 3584 
Q 2894 3584 3203 3211 
Q 3513 2838 3513 2113 
z
" transform="scale(0.015625)"/>
      <path id="DejaVuSans-64" d="M 2906 2969 
L 2906 4863 
L 3481 4863 
L 3481 0 
L 2906 0 
L 2906 525 
Q 2725 213 2448 61 
Q 2172 -91 1784 -91 
Q 1150 -91 751 415 
Q 353 922 353 1747 
Q 353 2572 751 3078 
Q 1150 3584 1784 3584 
Q 2172 3584 2448 3432 
Q 2725 3281 2906 2969 
z
M 947 1747 
Q 947 1113 1208 752 
Q 1469 391 1925 391 
Q 2381 391 2643 752 
Q 2906 1113 2906 1747 
Q 2906 2381 2643 2742 
Q 2381 3103 1925 3103 
Q 1469 3103 1208 2742 
Q 947 2381 947 1747 
z
" transform="scale(0.015625)"/>
      <path id="DejaVuSans-69" d="M 603 3500 
L 1178 3500 
L 1178 0 
L 603 0 
L 603 3500 
z
M 603 4863 
L 1178 4863 
L 1178 4134 
L 603 4134 
L 603 4863 
z
" transform="scale(0.015625)"/>
      <path id="DejaVuSans-63" d="M 3122 3366 
L 3122 2828 
Q 2878 2963 2633 3030 
Q 2388 3097 2138 3097 
Q 1578 3097 1268 2742 
Q 959 2388 959 1747 
Q 959 1106 1268 751 
Q 1578 397 2138 397 
Q 2388 397 2633 464 
Q 2878 531 3122 666 
L 3122 134 
Q 2881 22 2623 -34 
Q 2366 -91 2075 -91 
Q 1284 -91 818 406 
Q 353 903 353 1747 
Q 353 2603 823 3093 
Q 1294 3584 2113 3584 
Q 2378 3584 2631 3529 
Q 2884 3475 3122 3366 
z
" transform="scale(0.015625)"/>
     </defs>
     <use xlink:href="#DejaVuSans-31"/>
     <use xlink:href="#DejaVuSans-35" x="63.623047"/>
     <use xlink:href="#DejaVuSans-20" x="127.246094"/>
     <use xlink:href="#DejaVuSans-61" x="159.033203"/>
     <use xlink:href="#DejaVuSans-6e" x="220.3125"/>
     <use xlink:href="#DejaVuSans-64" x="283.691406"/>
     <use xlink:href="#DejaVuSans-20" x="347.167969"/>
     <use xlink:href="#DejaVuSans-31" x="378.955078"/>
     <use xlink:href="#DejaVuSans-35" x="442.578125"/>
     <use xlink:href="#DejaVuSans-20" x="506.201172"/>
     <use xlink:href="#DejaVuSans-69" x="537.988281"/>
     <use xlink:href="#DejaVuSans-6e" x="565.771484"/>
     <use xlink:href="#DejaVuSans-73" x="629.150391"/>
     <use xlink:href="#DejaVuSans-74" x="681.25"/>
     <use xlink:href="#DejaVuSans-61" x="720.458984"/>
     <use xlink:href="#DejaVuSans-6e" x="781.738281"/>
     <use xlink:href="#DejaVuSans-63" x="845.117188"/>
     <use xlink:href="#DejaVuSans-65" x="900.097656"/>
     <use xlink:href="#DejaVuSans-73" x="961.621094"/>
    </g>
   </g>
   <g id="text_10">
    <!-- v2.6.3 -->
    <g style="fill: #808080" transform="translate(166.967813 296.4139) scale(0.1 -0.1)">
     <defs>
      <path id="DejaVuSans-76" d="M 191 3500 
L 800 3500 
L 1894 563 
L 2988 3500 
L 3597 3500 
L 2284 0 
L 1503 0 
L 191 3500 
z
" transform="scale(0.015625)"/>
     </defs>
     <use xlink:href="#DejaVuSans-76"/>
     <use xlink:href="#DejaVuSans-32" x="59.179688"/>
     <use xlink:href="#DejaVuSans-2e" x="122.802734"/>
     <use xlink:href="#DejaVuSans-36" x="154.589844"/>
     <use xlink:href="#DejaVuSans-2e" x="218.212891"/>
     <use xlink:href="#DejaVuSans-33" x="250"/>
    </g>
   </g>
   <g id="text_11">
    <!-- 15 Rastrigin -->
    <g transform="translate(128.435313 20.877187) scale(0.18 -0.18)">
     <use xlink:href="#DejaVuSans-31"/>
     <use xlink:href="#DejaVuSans-35" x="63.623047"/>
     <use xlink:href="#DejaVuSans-20" x="127.246094"/>
     <use xlink:href="#DejaVuSans-52" x="159.033203"/>
     <use xlink:href="#DejaVuSans-61" x="226.265625"/>
     <use xlink:href="#DejaVuSans-73" x="287.544922"/>
     <use xlink:href="#DejaVuSans-74" x="339.644531"/>
     <use xlink:href="#DejaVuSans-72" x="378.853516"/>
     <use xlink:href="#DejaVuSans-69" x="419.966797"/>
     <use xlink:href="#DejaVuSans-67" x="447.75"/>
     <use xlink:href="#DejaVuSans-69" x="511.226562"/>
     <use xlink:href="#DejaVuSans-6e" x="539.009766"/>
    </g>
   </g>
  </g>
 </g>
 <defs>
  <clipPath id="pfd2718c036">
   <rect x="45.469063" y="26.877187" width="274.36" height="274.36"/>
  </clipPath>
 </defs>
</svg>
