<?xml version="1.0" encoding="utf-8" standalone="no"?>
<!DOCTYPE svg PUBLIC "-//W3C//DTD SVG 1.1//EN"
  "http://www.w3.org/Graphics/SVG/1.1/DTD/svg11.dtd">
<svg xmlns:xlink="http://www.w3.org/1999/xlink" width="460.8pt" height="345.6pt" viewBox="0 0 460.8 345.6" xmlns="http://www.w3.org/2000/svg" version="1.1">
 <metadata>
  <rdf:RDF xmlns:dc="http://purl.org/dc/elements/1.1/" xmlns:cc="http://creativecommons.org/ns#" xmlns:rdf="http://www.w3.org/1999/02/22-rdf-syntax-ns#">
   <cc:Work>
    <dc:type rdf:resource="http://purl.org/dc/dcmitype/StillImage"/>
    <dc:date>2024-06-05T13:43:14.872479</dc:date>
    <dc:format>image/svg+xml</dc:format>
    <dc:creator>
     <cc:Agent>
      <dc:title>Matplotlib v3.7.1, https://matplotlib.org/</dc:title>
     </cc:Agent>
    </dc:creator>
   </cc:Work>
  </rdf:RDF>
 </metadata>
 <defs>
  <style type="text/css">*{stroke-linejoin: round; stroke-linecap: butt}</style>
 </defs>
 <g id="figure_1">
  <g id="patch_1">
   <path d="M 0 345.6 
L 460.8 345.6 
L 460.8 0 
L 0 0 
z
" style="fill: #ffffff"/>
  </g>
  <g id="axes_1">
   <g id="patch_2">
    <path d="M 34.16 291.28 
L 453.192 291.28 
L 453.192 3 
L 34.16 3 
z
" style="fill: #ffffff"/>
   </g>
   <g id="matplotlib.axis_1">
    <g id="xtick_1">
     <g id="line2d_1">
      <path d="M 164.060171 291.28 
L 164.060171 3 
" clip-path="url(#p6f5fb21dbc)" style="fill: none; stroke: #b0b0b0; stroke-width: 0.8; stroke-linecap: square"/>
     </g>
     <g id="line2d_2">
      <defs>
       <path id="m3aad740907" d="M 0 0 
L 0 3.5 
" style="stroke: #000000; stroke-width: 0.8"/>
      </defs>
      <g>
       <use xlink:href="#m3aad740907" x="164.060171" y="291.28" style="stroke: #000000; stroke-width: 0.8"/>
      </g>
     </g>
     <g id="text_1">
      <!-- -1 -->
      <g transform="translate(154.089859 313.476875) scale(0.2 -0.2)">
       <defs>
        <path id="DejaVuSans-2d" d="M 313 2009 
L 1997 2009 
L 1997 1497 
L 313 1497 
L 313 2009 
z
" transform="scale(0.015625)"/>
        <path id="DejaVuSans-31" d="M 794 531 
L 1825 531 
L 1825 4091 
L 703 3866 
L 703 4441 
L 1819 4666 
L 2450 4666 
L 2450 531 
L 3481 531 
L 3481 0 
L 794 0 
L 794 531 
z
" transform="scale(0.015625)"/>
       </defs>
       <use xlink:href="#DejaVuSans-2d"/>
       <use xlink:href="#DejaVuSans-31" x="36.083984"/>
      </g>
     </g>
    </g>
    <g id="xtick_2">
     <g id="line2d_3">
      <path d="M 323.291829 291.28 
L 323.291829 3 
" clip-path="url(#p6f5fb21dbc)" style="fill: none; stroke: #b0b0b0; stroke-width: 0.8; stroke-linecap: square"/>
     </g>
     <g id="line2d_4">
      <g>
       <use xlink:href="#m3aad740907" x="323.291829" y="291.28" style="stroke: #000000; stroke-width: 0.8"/>
      </g>
     </g>
     <g id="text_2">
      <!-- 1 -->
      <g transform="translate(316.929329 313.476875) scale(0.2 -0.2)">
       <use xlink:href="#DejaVuSans-31"/>
      </g>
     </g>
    </g>
    <g id="xtick_3">
     <g id="line2d_5">
      <defs>
       <path id="mf9183bffef" d="M 0 0 
L 0 2 
" style="stroke: #000000; stroke-width: 0.6"/>
      </defs>
      <g>
       <use xlink:href="#mf9183bffef" x="42.814917" y="291.28" style="stroke: #000000; stroke-width: 0.6"/>
      </g>
     </g>
    </g>
    <g id="xtick_4">
     <g id="line2d_6">
      <g>
       <use xlink:href="#mf9183bffef" x="52.762018" y="291.28" style="stroke: #000000; stroke-width: 0.6"/>
      </g>
     </g>
    </g>
    <g id="xtick_5">
     <g id="line2d_7">
      <g>
       <use xlink:href="#mf9183bffef" x="60.477589" y="291.28" style="stroke: #000000; stroke-width: 0.6"/>
      </g>
     </g>
    </g>
    <g id="xtick_6">
     <g id="line2d_8">
      <g>
       <use xlink:href="#mf9183bffef" x="66.78167" y="291.28" style="stroke: #000000; stroke-width: 0.6"/>
      </g>
     </g>
    </g>
    <g id="xtick_7">
     <g id="line2d_9">
      <g>
       <use xlink:href="#mf9183bffef" x="72.111694" y="291.28" style="stroke: #000000; stroke-width: 0.6"/>
      </g>
     </g>
    </g>
    <g id="xtick_8">
     <g id="line2d_10">
      <g>
       <use xlink:href="#mf9183bffef" x="76.728771" y="291.28" style="stroke: #000000; stroke-width: 0.6"/>
      </g>
     </g>
    </g>
    <g id="xtick_9">
     <g id="line2d_11">
      <g>
       <use xlink:href="#mf9183bffef" x="80.801322" y="291.28" style="stroke: #000000; stroke-width: 0.6"/>
      </g>
     </g>
    </g>
    <g id="xtick_10">
     <g id="line2d_12">
      <g>
       <use xlink:href="#mf9183bffef" x="108.411095" y="291.28" style="stroke: #000000; stroke-width: 0.6"/>
      </g>
     </g>
    </g>
    <g id="xtick_11">
     <g id="line2d_13">
      <g>
       <use xlink:href="#mf9183bffef" x="122.430746" y="291.28" style="stroke: #000000; stroke-width: 0.6"/>
      </g>
     </g>
    </g>
    <g id="xtick_12">
     <g id="line2d_14">
      <g>
       <use xlink:href="#mf9183bffef" x="132.377847" y="291.28" style="stroke: #000000; stroke-width: 0.6"/>
      </g>
     </g>
    </g>
    <g id="xtick_13">
     <g id="line2d_15">
      <g>
       <use xlink:href="#mf9183bffef" x="140.093418" y="291.28" style="stroke: #000000; stroke-width: 0.6"/>
      </g>
     </g>
    </g>
    <g id="xtick_14">
     <g id="line2d_16">
      <g>
       <use xlink:href="#mf9183bffef" x="146.397499" y="291.28" style="stroke: #000000; stroke-width: 0.6"/>
      </g>
     </g>
    </g>
    <g id="xtick_15">
     <g id="line2d_17">
      <g>
       <use xlink:href="#mf9183bffef" x="151.727523" y="291.28" style="stroke: #000000; stroke-width: 0.6"/>
      </g>
     </g>
    </g>
    <g id="xtick_16">
     <g id="line2d_18">
      <g>
       <use xlink:href="#mf9183bffef" x="156.3446" y="291.28" style="stroke: #000000; stroke-width: 0.6"/>
      </g>
     </g>
    </g>
    <g id="xtick_17">
     <g id="line2d_19">
      <g>
       <use xlink:href="#mf9183bffef" x="160.41715" y="291.28" style="stroke: #000000; stroke-width: 0.6"/>
      </g>
     </g>
    </g>
    <g id="xtick_18">
     <g id="line2d_20">
      <g>
       <use xlink:href="#mf9183bffef" x="188.026924" y="291.28" style="stroke: #000000; stroke-width: 0.6"/>
      </g>
     </g>
    </g>
    <g id="xtick_19">
     <g id="line2d_21">
      <g>
       <use xlink:href="#mf9183bffef" x="202.046575" y="291.28" style="stroke: #000000; stroke-width: 0.6"/>
      </g>
     </g>
    </g>
    <g id="xtick_20">
     <g id="line2d_22">
      <g>
       <use xlink:href="#mf9183bffef" x="211.993676" y="291.28" style="stroke: #000000; stroke-width: 0.6"/>
      </g>
     </g>
    </g>
    <g id="xtick_21">
     <g id="line2d_23">
      <g>
       <use xlink:href="#mf9183bffef" x="219.709247" y="291.28" style="stroke: #000000; stroke-width: 0.6"/>
      </g>
     </g>
    </g>
    <g id="xtick_22">
     <g id="line2d_24">
      <g>
       <use xlink:href="#mf9183bffef" x="226.013328" y="291.28" style="stroke: #000000; stroke-width: 0.6"/>
      </g>
     </g>
    </g>
    <g id="xtick_23">
     <g id="line2d_25">
      <g>
       <use xlink:href="#mf9183bffef" x="231.343352" y="291.28" style="stroke: #000000; stroke-width: 0.6"/>
      </g>
     </g>
    </g>
    <g id="xtick_24">
     <g id="line2d_26">
      <g>
       <use xlink:href="#mf9183bffef" x="235.960429" y="291.28" style="stroke: #000000; stroke-width: 0.6"/>
      </g>
     </g>
    </g>
    <g id="xtick_25">
     <g id="line2d_27">
      <g>
       <use xlink:href="#mf9183bffef" x="240.032979" y="291.28" style="stroke: #000000; stroke-width: 0.6"/>
      </g>
     </g>
    </g>
    <g id="xtick_26">
     <g id="line2d_28">
      <g>
       <use xlink:href="#mf9183bffef" x="267.642753" y="291.28" style="stroke: #000000; stroke-width: 0.6"/>
      </g>
     </g>
    </g>
    <g id="xtick_27">
     <g id="line2d_29">
      <g>
       <use xlink:href="#mf9183bffef" x="281.662404" y="291.28" style="stroke: #000000; stroke-width: 0.6"/>
      </g>
     </g>
    </g>
    <g id="xtick_28">
     <g id="line2d_30">
      <g>
       <use xlink:href="#mf9183bffef" x="291.609505" y="291.28" style="stroke: #000000; stroke-width: 0.6"/>
      </g>
     </g>
    </g>
    <g id="xtick_29">
     <g id="line2d_31">
      <g>
       <use xlink:href="#mf9183bffef" x="299.325076" y="291.28" style="stroke: #000000; stroke-width: 0.6"/>
      </g>
     </g>
    </g>
    <g id="xtick_30">
     <g id="line2d_32">
      <g>
       <use xlink:href="#mf9183bffef" x="305.629157" y="291.28" style="stroke: #000000; stroke-width: 0.6"/>
      </g>
     </g>
    </g>
    <g id="xtick_31">
     <g id="line2d_33">
      <g>
       <use xlink:href="#mf9183bffef" x="310.959181" y="291.28" style="stroke: #000000; stroke-width: 0.6"/>
      </g>
     </g>
    </g>
    <g id="xtick_32">
     <g id="line2d_34">
      <g>
       <use xlink:href="#mf9183bffef" x="315.576258" y="291.28" style="stroke: #000000; stroke-width: 0.6"/>
      </g>
     </g>
    </g>
    <g id="xtick_33">
     <g id="line2d_35">
      <g>
       <use xlink:href="#mf9183bffef" x="319.648808" y="291.28" style="stroke: #000000; stroke-width: 0.6"/>
      </g>
     </g>
    </g>
    <g id="xtick_34">
     <g id="line2d_36">
      <g>
       <use xlink:href="#mf9183bffef" x="347.258582" y="291.28" style="stroke: #000000; stroke-width: 0.6"/>
      </g>
     </g>
    </g>
    <g id="xtick_35">
     <g id="line2d_37">
      <g>
       <use xlink:href="#mf9183bffef" x="361.278233" y="291.28" style="stroke: #000000; stroke-width: 0.6"/>
      </g>
     </g>
    </g>
    <g id="xtick_36">
     <g id="line2d_38">
      <g>
       <use xlink:href="#mf9183bffef" x="371.225334" y="291.28" style="stroke: #000000; stroke-width: 0.6"/>
      </g>
     </g>
    </g>
    <g id="xtick_37">
     <g id="line2d_39">
      <g>
       <use xlink:href="#mf9183bffef" x="378.940905" y="291.28" style="stroke: #000000; stroke-width: 0.6"/>
      </g>
     </g>
    </g>
    <g id="xtick_38">
     <g id="line2d_40">
      <g>
       <use xlink:href="#mf9183bffef" x="385.244986" y="291.28" style="stroke: #000000; stroke-width: 0.6"/>
      </g>
     </g>
    </g>
    <g id="xtick_39">
     <g id="line2d_41">
      <g>
       <use xlink:href="#mf9183bffef" x="390.57501" y="291.28" style="stroke: #000000; stroke-width: 0.6"/>
      </g>
     </g>
    </g>
    <g id="xtick_40">
     <g id="line2d_42">
      <g>
       <use xlink:href="#mf9183bffef" x="395.192087" y="291.28" style="stroke: #000000; stroke-width: 0.6"/>
      </g>
     </g>
    </g>
    <g id="xtick_41">
     <g id="line2d_43">
      <g>
       <use xlink:href="#mf9183bffef" x="399.264637" y="291.28" style="stroke: #000000; stroke-width: 0.6"/>
      </g>
     </g>
    </g>
    <g id="xtick_42">
     <g id="line2d_44">
      <g>
       <use xlink:href="#mf9183bffef" x="426.874411" y="291.28" style="stroke: #000000; stroke-width: 0.6"/>
      </g>
     </g>
    </g>
    <g id="xtick_43">
     <g id="line2d_45">
      <g>
       <use xlink:href="#mf9183bffef" x="440.894062" y="291.28" style="stroke: #000000; stroke-width: 0.6"/>
      </g>
     </g>
    </g>
    <g id="xtick_44">
     <g id="line2d_46">
      <g>
       <use xlink:href="#mf9183bffef" x="450.841163" y="291.28" style="stroke: #000000; stroke-width: 0.6"/>
      </g>
     </g>
    </g>
    <g id="text_3">
     <!-- log10 of FEvals ratio -->
     <g transform="translate(141.371312 336.833125) scale(0.2 -0.2)">
      <defs>
       <path id="DejaVuSans-6c" d="M 603 4863 
L 1178 4863 
L 1178 0 
L 603 0 
L 603 4863 
z
" transform="scale(0.015625)"/>
       <path id="DejaVuSans-6f" d="M 1959 3097 
Q 1497 3097 1228 2736 
Q 959 2375 959 1747 
Q 959 1119 1226 758 
Q 1494 397 1959 397 
Q 2419 397 2687 759 
Q 2956 1122 2956 1747 
Q 2956 2369 2687 2733 
Q 2419 3097 1959 3097 
z
M 1959 3584 
Q 2709 3584 3137 3096 
Q 3566 2609 3566 1747 
Q 3566 888 3137 398 
Q 2709 -91 1959 -91 
Q 1206 -91 779 398 
Q 353 888 353 1747 
Q 353 2609 779 3096 
Q 1206 3584 1959 3584 
z
" transform="scale(0.015625)"/>
       <path id="DejaVuSans-67" d="M 2906 1791 
Q 2906 2416 2648 2759 
Q 2391 3103 1925 3103 
Q 1463 3103 1205 2759 
Q 947 2416 947 1791 
Q 947 1169 1205 825 
Q 1463 481 1925 481 
Q 2391 481 2648 825 
Q 2906 1169 2906 1791 
z
M 3481 434 
Q 3481 -459 3084 -895 
Q 2688 -1331 1869 -1331 
Q 1566 -1331 1297 -1286 
Q 1028 -1241 775 -1147 
L 775 -588 
Q 1028 -725 1275 -790 
Q 1522 -856 1778 -856 
Q 2344 -856 2625 -561 
Q 2906 -266 2906 331 
L 2906 616 
Q 2728 306 2450 153 
Q 2172 0 1784 0 
Q 1141 0 747 490 
Q 353 981 353 1791 
Q 353 2603 747 3093 
Q 1141 3584 1784 3584 
Q 2172 3584 2450 3431 
Q 2728 3278 2906 2969 
L 2906 3500 
L 3481 3500 
L 3481 434 
z
" transform="scale(0.015625)"/>
       <path id="DejaVuSans-30" d="M 2034 4250 
Q 1547 4250 1301 3770 
Q 1056 3291 1056 2328 
Q 1056 1369 1301 889 
Q 1547 409 2034 409 
Q 2525 409 2770 889 
Q 3016 1369 3016 2328 
Q 3016 3291 2770 3770 
Q 2525 4250 2034 4250 
z
M 2034 4750 
Q 2819 4750 3233 4129 
Q 3647 3509 3647 2328 
Q 3647 1150 3233 529 
Q 2819 -91 2034 -91 
Q 1250 -91 836 529 
Q 422 1150 422 2328 
Q 422 3509 836 4129 
Q 1250 4750 2034 4750 
z
" transform="scale(0.015625)"/>
       <path id="DejaVuSans-20" transform="scale(0.015625)"/>
       <path id="DejaVuSans-66" d="M 2375 4863 
L 2375 4384 
L 1825 4384 
Q 1516 4384 1395 4259 
Q 1275 4134 1275 3809 
L 1275 3500 
L 2222 3500 
L 2222 3053 
L 1275 3053 
L 1275 0 
L 697 0 
L 697 3053 
L 147 3053 
L 147 3500 
L 697 3500 
L 697 3744 
Q 697 4328 969 4595 
Q 1241 4863 1831 4863 
L 2375 4863 
z
" transform="scale(0.015625)"/>
       <path id="DejaVuSans-46" d="M 628 4666 
L 3309 4666 
L 3309 4134 
L 1259 4134 
L 1259 2759 
L 3109 2759 
L 3109 2228 
L 1259 2228 
L 1259 0 
L 628 0 
L 628 4666 
z
" transform="scale(0.015625)"/>
       <path id="DejaVuSans-45" d="M 628 4666 
L 3578 4666 
L 3578 4134 
L 1259 4134 
L 1259 2753 
L 3481 2753 
L 3481 2222 
L 1259 2222 
L 1259 531 
L 3634 531 
L 3634 0 
L 628 0 
L 628 4666 
z
" transform="scale(0.015625)"/>
       <path id="DejaVuSans-76" d="M 191 3500 
L 800 3500 
L 1894 563 
L 2988 3500 
L 3597 3500 
L 2284 0 
L 1503 0 
L 191 3500 
z
" transform="scale(0.015625)"/>
       <path id="DejaVuSans-61" d="M 2194 1759 
Q 1497 1759 1228 1600 
Q 959 1441 959 1056 
Q 959 750 1161 570 
Q 1363 391 1709 391 
Q 2188 391 2477 730 
Q 2766 1069 2766 1631 
L 2766 1759 
L 2194 1759 
z
M 3341 1997 
L 3341 0 
L 2766 0 
L 2766 531 
Q 2569 213 2275 61 
Q 1981 -91 1556 -91 
Q 1019 -91 701 211 
Q 384 513 384 1019 
Q 384 1609 779 1909 
Q 1175 2209 1959 2209 
L 2766 2209 
L 2766 2266 
Q 2766 2663 2505 2880 
Q 2244 3097 1772 3097 
Q 1472 3097 1187 3025 
Q 903 2953 641 2809 
L 641 3341 
Q 956 3463 1253 3523 
Q 1550 3584 1831 3584 
Q 2591 3584 2966 3190 
Q 3341 2797 3341 1997 
z
" transform="scale(0.015625)"/>
       <path id="DejaVuSans-73" d="M 2834 3397 
L 2834 2853 
Q 2591 2978 2328 3040 
Q 2066 3103 1784 3103 
Q 1356 3103 1142 2972 
Q 928 2841 928 2578 
Q 928 2378 1081 2264 
Q 1234 2150 1697 2047 
L 1894 2003 
Q 2506 1872 2764 1633 
Q 3022 1394 3022 966 
Q 3022 478 2636 193 
Q 2250 -91 1575 -91 
Q 1294 -91 989 -36 
Q 684 19 347 128 
L 347 722 
Q 666 556 975 473 
Q 1284 391 1588 391 
Q 1994 391 2212 530 
Q 2431 669 2431 922 
Q 2431 1156 2273 1281 
Q 2116 1406 1581 1522 
L 1381 1569 
Q 847 1681 609 1914 
Q 372 2147 372 2553 
Q 372 3047 722 3315 
Q 1072 3584 1716 3584 
Q 2034 3584 2315 3537 
Q 2597 3491 2834 3397 
z
" transform="scale(0.015625)"/>
       <path id="DejaVuSans-72" d="M 2631 2963 
Q 2534 3019 2420 3045 
Q 2306 3072 2169 3072 
Q 1681 3072 1420 2755 
Q 1159 2438 1159 1844 
L 1159 0 
L 581 0 
L 581 3500 
L 1159 3500 
L 1159 2956 
Q 1341 3275 1631 3429 
Q 1922 3584 2338 3584 
Q 2397 3584 2469 3576 
Q 2541 3569 2628 3553 
L 2631 2963 
z
" transform="scale(0.015625)"/>
       <path id="DejaVuSans-74" d="M 1172 4494 
L 1172 3500 
L 2356 3500 
L 2356 3053 
L 1172 3053 
L 1172 1153 
Q 1172 725 1289 603 
Q 1406 481 1766 481 
L 2356 481 
L 2356 0 
L 1766 0 
Q 1100 0 847 248 
Q 594 497 594 1153 
L 594 3053 
L 172 3053 
L 172 3500 
L 594 3500 
L 594 4494 
L 1172 4494 
z
" transform="scale(0.015625)"/>
       <path id="DejaVuSans-69" d="M 603 3500 
L 1178 3500 
L 1178 0 
L 603 0 
L 603 3500 
z
M 603 4863 
L 1178 4863 
L 1178 4134 
L 603 4134 
L 603 4863 
z
" transform="scale(0.015625)"/>
      </defs>
      <use xlink:href="#DejaVuSans-6c"/>
      <use xlink:href="#DejaVuSans-6f" x="27.783203"/>
      <use xlink:href="#DejaVuSans-67" x="88.964844"/>
      <use xlink:href="#DejaVuSans-31" x="152.441406"/>
      <use xlink:href="#DejaVuSans-30" x="216.064453"/>
      <use xlink:href="#DejaVuSans-20" x="279.6875"/>
      <use xlink:href="#DejaVuSans-6f" x="311.474609"/>
      <use xlink:href="#DejaVuSans-66" x="372.65625"/>
      <use xlink:href="#DejaVuSans-20" x="407.861328"/>
      <use xlink:href="#DejaVuSans-46" x="439.648438"/>
      <use xlink:href="#DejaVuSans-45" x="497.167969"/>
      <use xlink:href="#DejaVuSans-76" x="560.351562"/>
      <use xlink:href="#DejaVuSans-61" x="619.53125"/>
      <use xlink:href="#DejaVuSans-6c" x="680.810547"/>
      <use xlink:href="#DejaVuSans-73" x="708.59375"/>
      <use xlink:href="#DejaVuSans-20" x="760.693359"/>
      <use xlink:href="#DejaVuSans-72" x="792.480469"/>
      <use xlink:href="#DejaVuSans-61" x="833.59375"/>
      <use xlink:href="#DejaVuSans-74" x="894.873047"/>
      <use xlink:href="#DejaVuSans-69" x="934.082031"/>
      <use xlink:href="#DejaVuSans-6f" x="961.865234"/>
     </g>
    </g>
   </g>
   <g id="matplotlib.axis_2">
    <g id="ytick_1">
     <g id="line2d_47">
      <path d="M 34.16 288.453725 
L 453.192 288.453725 
" clip-path="url(#p6f5fb21dbc)" style="fill: none; stroke: #b0b0b0; stroke-width: 0.8; stroke-linecap: square"/>
     </g>
     <g id="line2d_48">
      <defs>
       <path id="m031c78f3e5" d="M 0 0 
L -3.5 0 
" style="stroke: #000000; stroke-width: 0.8"/>
      </defs>
      <g>
       <use xlink:href="#m031c78f3e5" x="34.16" y="288.453725" style="stroke: #000000; stroke-width: 0.8"/>
      </g>
     </g>
    </g>
    <g id="ytick_2">
     <g id="line2d_49">
      <path d="M 34.16 217.796863 
L 453.192 217.796863 
" clip-path="url(#p6f5fb21dbc)" style="fill: none; stroke: #b0b0b0; stroke-width: 0.8; stroke-linecap: square"/>
     </g>
     <g id="line2d_50">
      <g>
       <use xlink:href="#m031c78f3e5" x="34.16" y="217.796863" style="stroke: #000000; stroke-width: 0.8"/>
      </g>
     </g>
    </g>
    <g id="ytick_3">
     <g id="line2d_51">
      <path d="M 34.16 147.14 
L 453.192 147.14 
" clip-path="url(#p6f5fb21dbc)" style="fill: none; stroke: #b0b0b0; stroke-width: 0.8; stroke-linecap: square"/>
     </g>
     <g id="line2d_52">
      <g>
       <use xlink:href="#m031c78f3e5" x="34.16" y="147.14" style="stroke: #000000; stroke-width: 0.8"/>
      </g>
     </g>
    </g>
    <g id="ytick_4">
     <g id="line2d_53">
      <path d="M 34.16 76.483137 
L 453.192 76.483137 
" clip-path="url(#p6f5fb21dbc)" style="fill: none; stroke: #b0b0b0; stroke-width: 0.8; stroke-linecap: square"/>
     </g>
     <g id="line2d_54">
      <g>
       <use xlink:href="#m031c78f3e5" x="34.16" y="76.483137" style="stroke: #000000; stroke-width: 0.8"/>
      </g>
     </g>
    </g>
    <g id="ytick_5">
     <g id="line2d_55">
      <path d="M 34.16 5.826275 
L 453.192 5.826275 
" clip-path="url(#p6f5fb21dbc)" style="fill: none; stroke: #b0b0b0; stroke-width: 0.8; stroke-linecap: square"/>
     </g>
     <g id="line2d_56">
      <g>
       <use xlink:href="#m031c78f3e5" x="34.16" y="5.826275" style="stroke: #000000; stroke-width: 0.8"/>
      </g>
     </g>
    </g>
    <g id="text_4">
     <!-- proportion of trials -->
     <g transform="translate(19.000625 240.14625) rotate(-90) scale(0.2 -0.2)">
      <defs>
       <path id="DejaVuSans-70" d="M 1159 525 
L 1159 -1331 
L 581 -1331 
L 581 3500 
L 1159 3500 
L 1159 2969 
Q 1341 3281 1617 3432 
Q 1894 3584 2278 3584 
Q 2916 3584 3314 3078 
Q 3713 2572 3713 1747 
Q 3713 922 3314 415 
Q 2916 -91 2278 -91 
Q 1894 -91 1617 61 
Q 1341 213 1159 525 
z
M 3116 1747 
Q 3116 2381 2855 2742 
Q 2594 3103 2138 3103 
Q 1681 3103 1420 2742 
Q 1159 2381 1159 1747 
Q 1159 1113 1420 752 
Q 1681 391 2138 391 
Q 2594 391 2855 752 
Q 3116 1113 3116 1747 
z
" transform="scale(0.015625)"/>
       <path id="DejaVuSans-6e" d="M 3513 2113 
L 3513 0 
L 2938 0 
L 2938 2094 
Q 2938 2591 2744 2837 
Q 2550 3084 2163 3084 
Q 1697 3084 1428 2787 
Q 1159 2491 1159 1978 
L 1159 0 
L 581 0 
L 581 3500 
L 1159 3500 
L 1159 2956 
Q 1366 3272 1645 3428 
Q 1925 3584 2291 3584 
Q 2894 3584 3203 3211 
Q 3513 2838 3513 2113 
z
" transform="scale(0.015625)"/>
      </defs>
      <use xlink:href="#DejaVuSans-70"/>
      <use xlink:href="#DejaVuSans-72" x="63.476562"/>
      <use xlink:href="#DejaVuSans-6f" x="102.339844"/>
      <use xlink:href="#DejaVuSans-70" x="163.521484"/>
      <use xlink:href="#DejaVuSans-6f" x="226.998047"/>
      <use xlink:href="#DejaVuSans-72" x="288.179688"/>
      <use xlink:href="#DejaVuSans-74" x="329.292969"/>
      <use xlink:href="#DejaVuSans-69" x="368.501953"/>
      <use xlink:href="#DejaVuSans-6f" x="396.285156"/>
      <use xlink:href="#DejaVuSans-6e" x="457.466797"/>
      <use xlink:href="#DejaVuSans-20" x="520.845703"/>
      <use xlink:href="#DejaVuSans-6f" x="552.632812"/>
      <use xlink:href="#DejaVuSans-66" x="613.814453"/>
      <use xlink:href="#DejaVuSans-20" x="649.019531"/>
      <use xlink:href="#DejaVuSans-74" x="680.806641"/>
      <use xlink:href="#DejaVuSans-72" x="720.015625"/>
      <use xlink:href="#DejaVuSans-69" x="761.128906"/>
      <use xlink:href="#DejaVuSans-61" x="788.912109"/>
      <use xlink:href="#DejaVuSans-6c" x="850.191406"/>
      <use xlink:href="#DejaVuSans-73" x="877.974609"/>
     </g>
    </g>
   </g>
   <g id="line2d_57">
    <path d="M 34.16 263.496944 
L 53.022888 263.496944 
L 53.022888 263.17283 
L 58.581898 263.17283 
L 58.581898 262.848716 
L 74.993096 262.848716 
L 74.993096 262.524602 
L 79.782867 262.524602 
L 79.782867 262.200487 
L 80.552105 262.200487 
L 80.552105 261.876373 
L 81.385019 261.876373 
L 81.385019 261.552259 
L 81.611743 261.552259 
L 81.611743 261.228145 
L 82.787465 261.228145 
L 82.787465 260.904031 
L 85.341876 260.904031 
L 85.3432 260.255803 
L 86.518292 260.255803 
L 86.518292 259.931689 
L 86.944029 259.931689 
L 86.944029 259.607575 
L 87.72182 259.607575 
L 87.827949 258.959347 
L 89.00304 258.959347 
L 89.00304 258.635233 
L 90.63199 258.635233 
L 90.63199 258.311119 
L 91.143052 258.311119 
L 91.143052 257.987005 
L 92.934762 257.987005 
L 92.934762 257.662891 
L 95.004323 257.662891 
L 95.004323 257.338777 
L 95.419511 257.338777 
L 95.419511 257.014663 
L 96.98452 257.014663 
L 96.98452 256.690549 
L 97.358017 256.690549 
L 97.358017 256.366435 
L 98.159612 256.366435 
L 98.159612 256.042321 
L 100.039726 256.042321 
L 100.039726 255.718207 
L 103.581951 255.718207 
L 103.581951 255.394092 
L 104.576082 255.394092 
L 104.576082 255.069978 
L 104.757672 255.069978 
L 104.757672 254.745864 
L 106.395375 254.745864 
L 106.395375 254.42175 
L 108.371721 254.42175 
L 108.371721 254.097636 
L 109.547443 254.097636 
L 109.547443 253.773522 
L 109.692027 253.773522 
L 109.692027 253.449408 
L 109.973874 253.449408 
L 110.023645 252.80118 
L 111.149595 252.80118 
L 111.149595 252.477066 
L 112.446608 252.477066 
L 112.508394 251.828838 
L 112.602198 251.828838 
L 112.602198 251.504724 
L 113.113259 251.504724 
L 113.113259 251.18061 
L 114.481798 251.18061 
L 114.481798 250.856496 
L 116.08395 250.856496 
L 116.08395 250.532382 
L 116.704804 250.532382 
L 116.704804 250.208268 
L 116.974531 250.208268 
L 116.974531 249.884154 
L 117.391969 249.884154 
L 117.391969 249.56004 
L 117.90303 249.56004 
L 117.90303 249.235926 
L 118.994121 249.235926 
L 118.994121 248.911811 
L 119.189553 248.911811 
L 119.189553 248.587697 
L 119.328224 248.587697 
L 119.328224 248.263583 
L 119.505182 248.263583 
L 119.505182 247.939469 
L 121.027056 247.939469 
L 121.033605 247.291241 
L 121.664966 247.291241 
L 121.764302 246.643013 
L 122.009933 246.643013 
L 122.009933 246.318899 
L 123.366454 246.318899 
L 123.366454 245.994785 
L 123.511804 245.994785 
L 123.518353 245.346557 
L 124.117995 245.346557 
L 124.117995 245.022443 
L 125.720147 245.022443 
L 125.720147 244.698329 
L 126.799704 244.698329 
L 126.799704 244.374215 
L 128.346124 244.374215 
L 128.401856 243.401873 
L 132.668376 243.401873 
L 132.674925 242.753645 
L 133.155353 242.753645 
L 133.155353 242.42953 
L 134.416816 242.42953 
L 134.416816 242.105416 
L 134.757506 242.105416 
L 134.757506 241.781302 
L 136.259102 241.781302 
L 136.259102 241.457188 
L 138.74385 241.457188 
L 138.74385 241.133074 
L 139.206587 241.133074 
L 139.206587 240.80896 
L 140.808739 240.80896 
L 140.808739 240.484846 
L 141.744457 240.484846 
L 141.776697 239.836618 
L 144.257928 239.836618 
L 144.261445 239.18839 
L 145.433019 239.18839 
L 145.433019 238.864276 
L 145.918426 238.864276 
L 145.918426 238.540162 
L 147.303467 238.540162 
L 147.303467 238.216048 
L 147.900422 238.216048 
L 147.900422 237.891934 
L 148.403174 237.891934 
L 148.403174 237.56782 
L 151.84949 237.56782 
L 151.84949 237.243706 
L 153.418017 237.243706 
L 153.418017 236.919592 
L 157.559746 236.919592 
L 157.559746 236.595478 
L 165.617723 236.595478 
L 165.617723 236.271364 
L 168.102471 236.271364 
L 168.102471 235.94725 
L 168.938373 235.94725 
L 168.938373 235.623135 
L 170.333312 235.623135 
L 170.333312 235.299021 
L 171.509033 235.299021 
L 171.509033 234.974907 
L 175.619532 234.974907 
L 175.619532 234.650793 
L 176.443388 234.650793 
L 176.443388 234.326679 
L 177.259043 234.326679 
L 177.259043 234.002565 
L 178.402972 234.002565 
L 178.402972 233.678451 
L 179.353559 233.678451 
L 179.353559 233.354337 
L 179.86462 233.354337 
L 179.948332 232.381995 
L 183.725892 232.381995 
L 183.725892 232.057881 
L 183.961982 232.057881 
L 183.961982 231.733767 
L 186.079585 231.733767 
L 186.079585 231.409653 
L 187.825456 231.409653 
L 187.825456 231.085539 
L 188.761294 231.085539 
L 188.761294 230.761425 
L 190.310205 230.761425 
L 190.310205 230.437311 
L 190.614085 230.437311 
L 190.614085 230.113197 
L 193.450219 230.113197 
L 193.450219 229.789083 
L 195.116944 229.789083 
L 195.173829 229.140854 
L 196.173094 229.140854 
L 196.173094 228.81674 
L 197.305085 228.81674 
L 197.305085 228.492626 
L 199.466777 228.492626 
L 199.466777 228.168512 
L 199.654596 228.168512 
L 199.654596 227.844398 
L 200.691424 227.844398 
L 200.691424 227.520284 
L 201.168177 227.520284 
L 201.168177 227.19617 
L 201.623002 227.19617 
L 201.623002 226.872056 
L 202.864095 226.872056 
L 202.864095 226.547942 
L 203.03372 226.547942 
L 203.03372 226.223828 
L 204.208811 226.223828 
L 204.208811 225.899714 
L 204.542116 225.899714 
L 204.542116 225.5756 
L 204.833153 225.5756 
L 204.833153 225.251486 
L 205.025915 225.251486 
L 205.025915 224.927372 
L 205.213606 224.927372 
L 205.213606 224.603258 
L 205.717208 224.603258 
L 205.717208 224.279144 
L 206.341292 224.279144 
L 206.341292 223.95503 
L 206.991827 223.95503 
L 206.991827 223.630916 
L 207.182012 223.630916 
L 207.182012 223.306802 
L 207.518753 223.306802 
L 207.518753 222.982688 
L 208.167548 222.982688 
L 208.167548 222.658573 
L 208.936043 222.658573 
L 208.936043 222.334459 
L 209.154385 222.334459 
L 209.165222 221.686231 
L 209.276587 221.686231 
L 209.276587 221.362117 
L 210.340313 221.362117 
L 210.340313 221.038003 
L 210.584925 221.038003 
L 210.639782 220.065661 
L 210.903628 220.065661 
L 210.903628 219.741547 
L 211.814874 219.741547 
L 211.814874 219.417433 
L 212.078719 219.417433 
L 212.133678 218.769205 
L 212.387945 218.769205 
L 212.387945 218.445091 
L 212.51925 218.445091 
L 212.51925 218.120977 
L 213.101903 218.120977 
L 213.208065 217.472749 
L 213.694342 217.472749 
L 213.694342 217.148635 
L 214.003109 217.148635 
L 214.003109 216.824521 
L 214.304232 216.824521 
L 214.383156 216.176292 
L 214.713395 216.176292 
L 214.713395 215.852178 
L 216.012074 215.852178 
L 216.04737 215.20395 
L 216.523135 215.20395 
L 216.576019 214.555722 
L 216.66115 214.555722 
L 216.756784 213.907494 
L 216.781184 213.907494 
L 216.781184 213.58338 
L 217.152022 213.58338 
L 217.152022 213.259266 
L 218.231344 213.259266 
L 218.333853 212.611038 
L 218.49519 212.611038 
L 218.49519 212.286924 
L 218.796671 212.286924 
L 218.796671 211.96281 
L 219.20294 211.96281 
L 219.20294 211.638696 
L 219.550734 211.638696 
L 219.550734 211.314582 
L 220.110812 211.314582 
L 220.110812 210.990468 
L 220.267944 210.990468 
L 220.378661 210.34224 
L 220.384407 210.34224 
L 220.488294 209.694012 
L 220.799627 209.694012 
L 220.799627 209.369897 
L 221.695059 209.369897 
L 221.695059 209.045783 
L 221.827115 209.045783 
L 221.827115 208.721669 
L 222.340194 208.721669 
L 222.340194 208.397555 
L 222.7381 208.397555 
L 222.7381 208.073441 
L 222.973042 208.073441 
L 223.073375 207.101099 
L 223.361498 207.101099 
L 223.398574 206.452871 
L 224.35568 206.452871 
L 224.35568 206.128757 
L 224.53245 206.128757 
L 224.53245 205.804643 
L 225.104637 205.804643 
L 225.156408 205.156415 
L 225.279017 205.156415 
L 225.313016 204.508187 
L 225.419809 204.508187 
L 225.419809 204.184073 
L 225.718416 204.184073 
L 225.718416 203.859959 
L 225.89394 203.859959 
L 225.89394 203.535845 
L 226.096852 203.535845 
L 226.096852 203.211731 
L 227.069662 203.211731 
L 227.069662 202.887616 
L 227.254069 202.887616 
L 227.254069 202.563502 
L 227.714165 202.563502 
L 227.714165 202.239388 
L 228.223187 202.239388 
L 228.243451 201.59116 
L 228.734248 201.59116 
L 228.734248 201.267046 
L 229.047162 201.267046 
L 229.047162 200.942932 
L 229.222561 200.942932 
L 229.222561 200.618818 
L 229.419173 200.618818 
L 229.419173 200.294704 
L 229.882931 200.294704 
L 229.882931 199.97059 
L 230.184053 199.97059 
L 230.211857 199.322362 
L 231.387579 199.322362 
L 231.387579 198.998248 
L 231.53191 198.998248 
L 231.53191 198.674134 
L 231.775459 198.674134 
L 231.775459 198.35002 
L 231.927192 198.35002 
L 232.004017 197.701792 
L 232.129614 197.701792 
L 232.219472 197.053564 
L 232.269958 197.053564 
L 232.269958 196.72945 
L 232.540971 196.72945 
L 232.59552 196.081221 
L 233.159017 196.081221 
L 233.159017 195.757107 
L 233.394563 195.757107 
L 233.488587 195.108879 
L 233.61477 195.108879 
L 233.61477 194.784765 
L 233.845667 194.784765 
L 233.845667 194.460651 
L 234.353528 194.460651 
L 234.395324 193.812423 
L 234.523286 193.812423 
L 234.523286 193.488309 
L 234.754706 193.488309 
L 234.790491 192.840081 
L 234.914187 192.840081 
L 234.949213 192.191853 
L 235.085707 192.191853 
L 235.085707 191.867739 
L 235.246421 191.867739 
L 235.320227 191.219511 
L 235.425249 191.219511 
L 235.488792 190.571283 
L 235.584073 190.571283 
L 235.584073 190.247169 
L 235.90372 190.247169 
L 235.964447 189.59894 
L 236.28112 189.59894 
L 236.321934 188.950712 
L 236.843541 188.950712 
L 236.843541 188.626598 
L 237.199695 188.626598 
L 237.263698 187.97837 
L 237.630922 187.97837 
L 237.630922 187.654256 
L 237.74324 187.654256 
L 237.826692 186.681914 
L 237.88851 186.681914 
L 237.88851 186.3578 
L 238.717576 186.3578 
L 238.724124 185.709572 
L 238.918962 185.709572 
L 238.987924 185.061344 
L 239.122229 185.061344 
L 239.232104 184.413116 
L 239.28652 184.413116 
L 239.28652 184.089002 
L 239.660642 184.089002 
L 239.743166 183.116659 
L 239.811034 183.116659 
L 239.811034 182.792545 
L 239.972944 182.792545 
L 239.972944 182.468431 
L 240.225972 182.468431 
L 240.274066 181.496089 
L 240.526826 181.496089 
L 240.526826 181.171975 
L 240.688482 181.171975 
L 240.688482 180.847861 
L 241.007643 180.847861 
L 241.007643 180.523747 
L 241.244894 180.523747 
L 241.308765 179.875519 
L 241.422256 179.875519 
L 241.520941 179.227291 
L 241.570063 179.227291 
L 241.640214 178.254949 
L 241.871186 178.254949 
L 241.871186 177.930835 
L 242.001386 177.930835 
L 242.057681 176.958493 
L 242.265232 176.958493 
L 242.265232 176.634378 
L 242.597348 176.634378 
L 242.635017 175.662036 
L 242.971507 175.662036 
L 243.051903 175.013808 
L 243.146078 175.013808 
L 243.207292 174.36558 
L 243.604437 174.36558 
L 243.665683 173.393238 
L 243.853317 173.393238 
L 243.912 172.096782 
L 243.986571 172.096782 
L 243.989725 171.448554 
L 244.228104 171.448554 
L 244.321923 170.800326 
L 244.569669 170.800326 
L 244.617132 170.152097 
L 244.849077 170.152097 
L 244.855626 169.503869 
L 244.965126 169.503869 
L 244.965126 169.179755 
L 245.370039 169.179755 
L 245.370039 168.855641 
L 245.496563 168.855641 
L 245.514153 168.207413 
L 245.958131 168.207413 
L 246.02011 167.559185 
L 246.310712 167.559185 
L 246.330187 166.586843 
L 246.502674 166.586843 
L 246.594032 165.290387 
L 246.671434 165.290387 
L 246.763487 164.318045 
L 247.00735 164.318045 
L 247.00735 163.993931 
L 247.274549 163.993931 
L 247.385526 163.345702 
L 247.751432 163.345702 
L 247.751432 163.021588 
L 247.912864 163.021588 
L 247.912864 162.697474 
L 248.203106 162.697474 
L 248.209655 162.049246 
L 248.379864 162.049246 
L 248.379864 161.725132 
L 248.561247 161.725132 
L 248.63984 161.076904 
L 248.89192 161.076904 
L 248.898469 160.428676 
L 249.013818 160.428676 
L 249.013818 160.104562 
L 249.35807 160.104562 
L 249.361044 159.456334 
L 249.560275 159.456334 
L 249.560275 159.13222 
L 249.691648 159.13222 
L 249.691648 158.808106 
L 249.99277 158.808106 
L 250.037805 158.159878 
L 250.283914 158.159878 
L 250.283914 157.835764 
L 250.677572 157.835764 
L 250.677572 157.51165 
L 251.115904 157.51165 
L 251.135821 156.863421 
L 251.459635 156.863421 
L 251.480116 156.215193 
L 251.735909 156.215193 
L 251.735909 155.891079 
L 252.042753 155.891079 
L 252.042753 155.566965 
L 252.349688 155.566965 
L 252.349688 155.242851 
L 252.625795 155.242851 
L 252.625795 154.918737 
L 253.027083 154.918737 
L 253.027083 154.594623 
L 253.338422 154.594623 
L 253.338422 154.270509 
L 253.489514 154.270509 
L 253.495602 153.622281 
L 253.949621 153.622281 
L 253.949621 153.298167 
L 254.390286 153.298167 
L 254.390286 152.974053 
L 254.89041 152.974053 
L 254.995489 151.677597 
L 255.146466 151.677597 
L 255.213577 151.029369 
L 255.458017 151.029369 
L 255.458017 150.705255 
L 255.716093 150.705255 
L 255.716093 150.38114 
L 255.842426 150.38114 
L 255.862579 149.732912 
L 256.143549 149.732912 
L 256.171223 149.084684 
L 256.39399 149.084684 
L 256.405773 148.436456 
L 256.648244 148.436456 
L 256.730718 147.464114 
L 256.899917 147.464114 
L 256.971411 146.491772 
L 257.473927 146.491772 
L 257.473927 146.167658 
L 257.660812 146.167658 
L 257.660812 145.843544 
L 257.886687 145.843544 
L 257.886687 145.51943 
L 258.387635 145.51943 
L 258.398402 144.871202 
L 258.500467 144.871202 
L 258.598367 144.222974 
L 258.762619 144.222974 
L 258.835904 143.574745 
L 258.911183 143.574745 
L 258.911183 143.250631 
L 259.078316 143.250631 
L 259.078316 142.926517 
L 259.242129 142.926517 
L 259.304161 142.278289 
L 259.467216 142.278289 
L 259.567633 141.630061 
L 259.815222 141.630061 
L 259.815222 141.305947 
L 260.081123 141.305947 
L 260.18262 140.333605 
L 260.424274 140.333605 
L 260.424274 140.009491 
L 260.778106 140.009491 
L 260.778106 139.685377 
L 260.901338 139.685377 
L 260.975612 139.037149 
L 261.046722 139.037149 
L 261.116313 138.388921 
L 261.210545 138.388921 
L 261.210545 138.064807 
L 261.374767 138.064807 
L 261.374767 137.740693 
L 261.555684 137.740693 
L 261.608483 137.092464 
L 261.675889 137.092464 
L 261.697933 136.444236 
L 261.819529 136.444236 
L 261.819529 136.120122 
L 261.988497 136.120122 
L 261.999055 135.471894 
L 262.20045 135.471894 
L 262.20045 135.14778 
L 262.451347 135.14778 
L 262.526872 134.175438 
L 262.796592 134.175438 
L 262.796592 133.851324 
L 263.131799 133.851324 
L 263.237255 133.203096 
L 263.419027 133.203096 
L 263.435152 132.554868 
L 263.554857 132.554868 
L 263.608946 131.582526 
L 263.676494 131.582526 
L 263.742194 130.934298 
L 263.798022 130.934298 
L 263.798022 130.610183 
L 264.032807 130.610183 
L 264.123966 129.961955 
L 264.24471 129.961955 
L 264.24471 129.637841 
L 264.355973 129.637841 
L 264.449635 128.989613 
L 264.85849 128.989613 
L 264.85849 128.665499 
L 265.117342 128.665499 
L 265.117342 128.341385 
L 265.252374 128.341385 
L 265.252374 128.017271 
L 265.440399 128.017271 
L 265.440399 127.693157 
L 265.598718 127.693157 
L 265.598718 127.369043 
L 265.813508 127.369043 
L 265.813508 127.044929 
L 266.030188 127.044929 
L 266.102701 126.396701 
L 266.229494 126.396701 
L 266.229494 126.072587 
L 266.478367 126.072587 
L 266.478367 125.748473 
L 266.689157 125.748473 
L 266.689157 125.424359 
L 267.073279 125.424359 
L 267.073279 125.100245 
L 267.337124 125.100245 
L 267.337124 124.776131 
L 267.903327 124.776131 
L 267.909876 124.127903 
L 268.06262 124.127903 
L 268.111618 123.479674 
L 268.578105 123.479674 
L 268.578105 123.15556 
L 268.711897 123.15556 
L 268.711897 122.831446 
L 268.952747 122.831446 
L 268.952747 122.507332 
L 269.283798 122.507332 
L 269.283798 122.183218 
L 269.641561 122.183218 
L 269.740447 121.210876 
L 269.772256 121.210876 
L 269.772256 120.886762 
L 270.153671 120.886762 
L 270.153671 120.562648 
L 270.841829 120.562648 
L 270.86805 119.91442 
L 271.215008 119.91442 
L 271.215008 119.590306 
L 271.434857 119.590306 
L 271.478854 118.942078 
L 271.56352 118.942078 
L 271.56352 118.617964 
L 272.133201 118.617964 
L 272.169157 117.969736 
L 272.307274 117.969736 
L 272.307274 117.645622 
L 272.78386 117.645622 
L 272.78386 117.321507 
L 273.094476 117.321507 
L 273.094476 116.997393 
L 273.315347 116.997393 
L 273.320399 116.349165 
L 273.783291 116.349165 
L 273.891527 115.700937 
L 274.240288 115.700937 
L 274.240288 115.376823 
L 274.569157 115.376823 
L 274.569157 115.052709 
L 275.053456 115.052709 
L 275.067546 114.404481 
L 276.125829 114.404481 
L 276.204904 113.756253 
L 276.387161 113.756253 
L 276.387161 113.432139 
L 276.696368 113.432139 
L 276.696368 113.108025 
L 277.106112 113.108025 
L 277.112661 112.459797 
L 277.2583 112.459797 
L 277.263764 111.811569 
L 277.374588 111.811569 
L 277.374588 111.487455 
L 278.220391 111.487455 
L 278.282416 110.839226 
L 278.505358 110.839226 
L 278.505358 110.515112 
L 279.149306 110.515112 
L 279.149306 110.190998 
L 279.403021 110.190998 
L 279.44352 109.54277 
L 279.839063 109.54277 
L 279.839063 109.218656 
L 280.14827 109.218656 
L 280.14827 108.894542 
L 280.398064 108.894542 
L 280.398064 108.570428 
L 280.970512 108.570428 
L 280.970512 108.246314 
L 281.118779 108.246314 
L 281.118779 107.9222 
L 281.699215 107.9222 
L 281.734317 107.273972 
L 282.248951 107.273972 
L 282.341257 106.625744 
L 283.100526 106.625744 
L 283.135373 105.977516 
L 283.283467 105.977516 
L 283.308243 105.329288 
L 283.405063 105.329288 
L 283.405063 105.005174 
L 283.57869 105.005174 
L 283.57869 104.68106 
L 284.816639 104.68106 
L 284.816639 104.356945 
L 285.25808 104.356945 
L 285.272427 103.708717 
L 286.385358 103.708717 
L 286.385358 103.384603 
L 286.550512 103.384603 
L 286.655704 102.736375 
L 287.719063 102.736375 
L 287.719063 102.412261 
L 287.961889 102.412261 
L 288.02827 101.764033 
L 288.268104 101.764033 
L 288.368461 101.115805 
L 288.541246 101.115805 
L 288.541246 100.791691 
L 288.652968 100.791691 
L 288.709982 100.143463 
L 289.022416 100.143463 
L 289.022416 99.819349 
L 289.18193 99.819349 
L 289.190788 99.171121 
L 289.439744 99.171121 
L 289.439744 98.847007 
L 289.614317 98.847007 
L 289.614317 98.522893 
L 289.790004 98.522893 
L 289.852356 97.874665 
L 289.970613 97.874665 
L 290.027779 97.226436 
L 290.524493 97.226436 
L 290.524493 96.902322 
L 290.766182 96.902322 
L 290.833701 96.254094 
L 290.914305 96.254094 
L 290.914305 95.92998 
L 291.178151 95.92998 
L 291.184685 95.281752 
L 291.706986 95.281752 
L 291.706986 94.957638 
L 292.157792 94.957638 
L 292.230533 93.985296 
L 292.338158 93.985296 
L 292.419748 93.337068 
L 292.793773 93.337068 
L 292.794697 92.68884 
L 293.224593 92.68884 
L 293.291238 92.040612 
L 293.344668 92.040612 
L 293.351216 91.392384 
L 293.482587 91.392384 
L 293.54797 90.744155 
L 293.814785 90.744155 
L 293.857177 90.095927 
L 294.138419 90.095927 
L 294.138419 89.771813 
L 294.347183 89.771813 
L 294.347183 89.447699 
L 294.664367 89.447699 
L 294.664367 89.123585 
L 295.110135 89.123585 
L 295.110135 88.799471 
L 295.443224 88.799471 
L 295.443224 88.475357 
L 295.770698 88.475357 
L 295.770698 88.151243 
L 296.023961 88.151243 
L 296.023961 87.827129 
L 296.358893 87.827129 
L 296.358893 87.503015 
L 296.589981 87.503015 
L 296.663475 86.854787 
L 296.850333 86.854787 
L 296.850333 86.530673 
L 297.187023 86.530673 
L 297.272719 85.882445 
L 297.35495 85.882445 
L 297.35495 85.558331 
L 297.855753 85.558331 
L 297.855753 85.234217 
L 298.549017 85.234217 
L 298.549017 84.910103 
L 298.890887 84.910103 
L 298.980347 84.261874 
L 299.072565 84.261874 
L 299.072565 83.93776 
L 299.395412 83.93776 
L 299.395412 83.613646 
L 299.548845 83.613646 
L 299.548845 83.289532 
L 299.797775 83.289532 
L 299.797775 82.965418 
L 300.321323 82.965418 
L 300.321323 82.641304 
L 300.727187 82.641304 
L 300.727187 82.31719 
L 301.028342 82.31719 
L 301.133097 81.668962 
L 301.233256 81.668962 
L 301.233256 81.344848 
L 301.606205 81.344848 
L 301.606205 81.020734 
L 301.997482 81.020734 
L 302.036336 80.372506 
L 302.147082 80.372506 
L 302.147082 80.048392 
L 302.342789 80.048392 
L 302.418888 79.400164 
L 302.612729 79.400164 
L 302.612729 79.07605 
L 302.93991 79.07605 
L 302.93991 78.751936 
L 303.249118 78.751936 
L 303.249118 78.427822 
L 303.861487 78.427822 
L 303.861487 78.103708 
L 304.505334 78.103708 
L 304.505334 77.779593 
L 304.672138 77.779593 
L 304.672138 77.455479 
L 304.835165 77.455479 
L 304.835165 77.131365 
L 305.195686 77.131365 
L 305.195686 76.807251 
L 305.350594 76.807251 
L 305.452552 75.834909 
L 305.488238 75.834909 
L 305.515976 75.186681 
L 305.873591 75.186681 
L 305.873591 74.862567 
L 306.390876 74.862567 
L 306.390876 74.538453 
L 306.634697 74.538453 
L 306.634697 74.214339 
L 306.940347 74.214339 
L 307.036804 73.241997 
L 307.639634 73.241997 
L 307.639634 72.917883 
L 307.975045 72.917883 
L 307.975045 72.593769 
L 308.175094 72.593769 
L 308.272302 71.621427 
L 308.537466 71.621427 
L 308.576713 70.973198 
L 308.73585 70.973198 
L 308.73585 70.649084 
L 309.07036 70.649084 
L 309.08892 70.000856 
L 309.508799 70.000856 
L 309.508799 69.676742 
L 309.818006 69.676742 
L 309.818006 69.352628 
L 310.105059 69.352628 
L 310.105059 69.028514 
L 310.222789 69.028514 
L 310.222789 68.7044 
L 310.409041 68.7044 
L 310.422625 68.056172 
L 310.667479 68.056172 
L 310.731833 67.407944 
L 311.404054 67.407944 
L 311.404054 67.08383 
L 311.591187 67.08383 
L 311.647478 66.111488 
L 311.810829 66.111488 
L 311.810829 65.787374 
L 312.137524 65.787374 
L 312.137524 65.46326 
L 312.294583 65.46326 
L 312.31788 64.815031 
L 312.493994 64.815031 
L 312.513997 64.166803 
L 312.947681 64.166803 
L 313.028219 63.518575 
L 313.122038 63.518575 
L 313.122038 63.194461 
L 313.256888 63.194461 
L 313.256888 62.870347 
L 313.368237 62.870347 
L 313.476728 61.573891 
L 313.543341 61.573891 
L 313.543341 61.249777 
L 313.780436 61.249777 
L 313.780436 60.925663 
L 314.094309 60.925663 
L 314.094309 60.601549 
L 314.725487 60.601549 
L 314.725487 60.277435 
L 314.842936 60.277435 
L 314.842936 59.953321 
L 315.001506 59.953321 
L 315.001506 59.629207 
L 315.366483 59.629207 
L 315.366483 59.305093 
L 315.677688 59.305093 
L 315.690321 58.656865 
L 316.051696 58.656865 
L 316.051696 58.33275 
L 316.173668 58.33275 
L 316.173668 58.008636 
L 316.659051 58.008636 
L 316.659051 57.684522 
L 317.011393 57.684522 
L 317.011393 57.360408 
L 317.320601 57.360408 
L 317.320601 57.036294 
L 318.236038 57.036294 
L 318.236038 56.71218 
L 318.379718 56.71218 
L 318.417704 56.063952 
L 318.789064 56.063952 
L 318.789064 55.739838 
L 318.906648 55.739838 
L 318.906648 55.415724 
L 319.197145 55.415724 
L 319.293544 54.767496 
L 319.455835 54.767496 
L 319.455835 54.443382 
L 319.59985 54.443382 
L 319.59985 54.119268 
L 320.582639 54.119268 
L 320.582639 53.795154 
L 320.78954 53.795154 
L 320.78954 53.47104 
L 321.098748 53.47104 
L 321.098748 53.146926 
L 321.696779 53.146926 
L 321.696779 52.822812 
L 321.8186 52.822812 
L 321.8186 52.498698 
L 322.342147 52.498698 
L 322.342147 52.174584 
L 322.684795 52.174584 
L 322.684795 51.85047 
L 322.809829 51.85047 
L 322.809829 51.526355 
L 324.939843 51.526355 
L 324.939843 51.202241 
L 325.359542 51.202241 
L 325.443636 50.554013 
L 325.882312 50.554013 
L 325.882312 50.229899 
L 326.100234 50.229899 
L 326.100234 49.905785 
L 326.541688 49.905785 
L 326.541688 49.581671 
L 326.693247 49.581671 
L 326.693247 49.257557 
L 327.002454 49.257557 
L 327.002454 48.933443 
L 327.875392 48.933443 
L 327.875392 48.609329 
L 328.1846 48.609329 
L 328.1846 48.285215 
L 328.342169 48.285215 
L 328.342169 47.961101 
L 328.588502 47.961101 
L 328.665336 46.988759 
L 329.167852 46.988759 
L 329.167852 46.664645 
L 329.660459 46.664645 
L 329.770647 46.016417 
L 330.241964 46.016417 
L 330.241964 45.692303 
L 330.472183 45.692303 
L 330.472183 45.368189 
L 330.795349 45.368189 
L 330.795349 45.044074 
L 331.297866 45.044074 
L 331.297866 44.71996 
L 332.012525 44.71996 
L 332.012525 44.395846 
L 332.926351 44.395846 
L 332.926351 44.071732 
L 334.701728 44.071732 
L 334.701728 43.747618 
L 335.157974 43.747618 
L 335.157974 43.423504 
L 335.451407 43.423504 
L 335.451407 43.09939 
L 335.564166 43.09939 
L 335.564166 42.775276 
L 335.974954 42.775276 
L 336.0718 42.127048 
L 336.746311 42.127048 
L 336.746311 41.802934 
L 337.935335 41.802934 
L 337.935335 41.47882 
L 338.178814 41.47882 
L 338.178814 41.154706 
L 338.596856 41.154706 
L 338.596856 40.830592 
L 339.120403 40.830592 
L 339.120403 40.506478 
L 339.515119 40.506478 
L 339.515119 40.182364 
L 339.68721 40.182364 
L 339.68721 39.85825 
L 342.532106 39.85825 
L 342.532106 39.534136 
L 342.660568 39.534136 
L 342.660568 39.210022 
L 343.293266 39.210022 
L 343.293266 38.885908 
L 343.904512 38.885908 
L 343.904512 38.561793 
L 344.310315 38.561793 
L 344.310315 38.237679 
L 344.930817 38.237679 
L 344.930817 37.913565 
L 345.784876 37.913565 
L 345.784876 37.589451 
L 346.048722 37.589451 
L 346.048722 37.265337 
L 346.438715 37.265337 
L 346.438715 36.941223 
L 346.737681 36.941223 
L 346.737681 36.617109 
L 347.664344 36.617109 
L 347.664344 36.292995 
L 348.246077 36.292995 
L 348.353158 35.644767 
L 349.196973 35.644767 
L 349.196973 35.320653 
L 349.941261 35.320653 
L 349.960478 34.672425 
L 350.330051 34.672425 
L 350.379118 34.024197 
L 351.468874 34.024197 
L 351.468874 33.700083 
L 352.342422 33.700083 
L 352.342422 33.375969 
L 352.869183 33.375969 
L 352.869183 33.051855 
L 353.524567 33.051855 
L 353.524567 32.727741 
L 354.343744 32.727741 
L 354.343744 32.403627 
L 354.607589 32.403627 
L 354.607589 32.079513 
L 354.743218 32.079513 
L 354.743218 31.755398 
L 356.091979 31.755398 
L 356.091979 31.431284 
L 356.223212 31.431284 
L 356.223212 31.10717 
L 356.912026 31.10717 
L 356.912026 30.783056 
L 357.14193 30.783056 
L 357.14193 30.458942 
L 357.56654 30.458942 
L 357.56654 30.134828 
L 357.830386 30.134828 
L 357.830386 29.810714 
L 359.446008 29.810714 
L 359.446008 29.4866 
L 360.134822 29.4866 
L 360.143068 28.838372 
L 361.434219 28.838372 
L 361.434219 28.514258 
L 363.78373 28.514258 
L 363.832931 27.86603 
L 365.752136 27.86603 
L 365.752136 27.541916 
L 366.182441 27.541916 
L 366.182441 27.217802 
L 367.364565 27.217802 
L 367.364565 26.893688 
L 368.150848 26.893688 
L 368.150848 26.569574 
L 369.155049 26.569574 
L 369.155049 26.24546 
L 371.55376 26.24546 
L 371.55376 25.921346 
L 372.148994 25.921346 
L 372.148994 25.597232 
L 373.283519 25.597232 
L 373.283519 25.273117 
L 375.682231 25.273117 
L 375.682231 24.949003 
L 375.923433 24.949003 
L 375.923433 24.624889 
L 376.56735 24.624889 
L 376.56735 24.300775 
L 379.146229 24.300775 
L 379.146229 23.976661 
L 380.910318 23.976661 
L 380.910318 23.652547 
L 382.925804 23.652547 
L 382.925804 23.328433 
L 383.30903 23.328433 
L 383.30903 23.004319 
L 385.126218 23.004319 
L 385.126218 22.680205 
L 385.324516 22.680205 
L 385.324516 22.356091 
L 385.824193 22.356091 
L 385.824193 22.031977 
L 386.988566 22.031977 
L 386.988566 21.707863 
L 388.222904 21.707863 
L 388.222904 21.383749 
L 388.349014 21.383749 
L 388.349014 21.059635 
L 392.805906 21.059635 
L 392.805906 20.735521 
L 399.199679 20.735521 
L 399.199679 20.411407 
L 401.364773 20.411407 
L 401.364773 20.087293 
L 404.58757 20.087293 
L 404.58757 19.763179 
L 404.811832 19.763179 
L 404.811832 19.439065 
L 405.89068 19.439065 
L 405.89068 19.114951 
L 408.24019 19.114951 
L 408.24019 18.790836 
L 410.208596 18.790836 
L 410.208596 18.466722 
L 413.370699 18.466722 
L 413.370699 18.142608 
L 413.611509 18.142608 
L 413.611509 17.818494 
L 416.593496 17.818494 
L 416.593496 17.49438 
L 417.73998 17.49438 
L 417.73998 17.170266 
L 425.366779 17.170266 
L 425.366779 16.846152 
L 427.382265 16.846152 
L 427.382265 16.522038 
L 430.280653 16.522038 
L 430.280653 16.197924 
L 453.192 16.197924 
L 453.192 16.197924 
" clip-path="url(#p6f5fb21dbc)" style="fill: none; stroke: #000000; stroke-width: 3; stroke-linecap: square"/>
   </g>
   <g id="line2d_58">
    <path clip-path="url(#p6f5fb21dbc)" style="fill: none; stroke: #000000; stroke-width: 3; stroke-linecap: square"/>
   </g>
   <g id="line2d_59">
    <path d="M 34.16 162.841525 
L 207.497547 162.841525 
L 207.497547 160.747988 
L 208.001236 160.747988 
L 208.001236 158.654452 
L 212.985086 158.654452 
L 212.985086 156.560915 
L 214.736068 156.560915 
L 214.736068 154.467378 
L 214.792871 154.467378 
L 214.792871 152.373842 
L 217.030038 152.373842 
L 217.030038 150.280305 
L 217.533726 150.280305 
L 217.533726 148.186768 
L 222.517576 148.186768 
L 222.517576 146.093232 
L 224.268558 146.093232 
L 224.268558 143.999695 
L 224.325361 143.999695 
L 224.325361 141.906158 
L 235.182792 141.906158 
L 235.182792 139.812622 
L 235.68648 139.812622 
L 235.68648 137.719085 
L 236.234158 137.719085 
L 236.234158 135.625548 
L 236.737846 135.625548 
L 236.737846 133.532012 
L 236.793258 133.532012 
L 236.793258 131.438475 
L 237.296947 131.438475 
L 237.296947 129.344938 
L 240.67033 129.344938 
L 240.67033 127.251402 
L 241.721696 127.251402 
L 241.721696 125.157865 
L 242.280797 125.157865 
L 242.280797 123.064328 
L 242.421312 123.064328 
L 242.421312 120.970792 
L 242.478116 120.970792 
L 242.478116 118.877255 
L 243.472678 118.877255 
L 243.472678 116.783718 
L 243.529481 116.783718 
L 243.529481 114.690182 
L 244.031779 114.690182 
L 244.031779 112.596645 
L 244.088582 112.596645 
L 244.088582 110.503108 
L 244.413885 110.503108 
L 244.413885 108.409572 
L 244.917574 108.409572 
L 244.917574 106.316035 
L 249.901423 106.316035 
L 249.901423 104.222498 
L 251.652405 104.222498 
L 251.652405 102.128962 
L 251.709209 102.128962 
L 251.709209 100.035425 
L 453.192 100.035425 
" clip-path="url(#p6f5fb21dbc)" style="fill: none; stroke: #00bfbf; stroke-width: 3; stroke-linecap: square"/>
   </g>
   <g id="line2d_60">
    <path clip-path="url(#p6f5fb21dbc)" style="fill: none; stroke: #00bfbf; stroke-width: 3; stroke-linecap: square"/>
   </g>
   <g id="line2d_61">
    <path d="M 34.16 162.841525 
L 207.608436 162.841525 
L 207.608436 160.747988 
L 207.968074 160.747988 
L 207.968074 158.654452 
L 212.783093 158.654452 
L 212.783093 156.560915 
L 214.501153 156.560915 
L 214.501153 154.467378 
L 214.849543 154.467378 
L 214.849543 152.373842 
L 217.639406 152.373842 
L 217.639406 150.280305 
L 217.999044 150.280305 
L 217.999044 148.186768 
L 222.814063 148.186768 
L 222.814063 146.093232 
L 224.532123 146.093232 
L 224.532123 143.999695 
L 224.880513 143.999695 
L 224.880513 141.906158 
L 235.794639 141.906158 
L 235.794639 139.812622 
L 236.154277 139.812622 
L 236.154277 137.719085 
L 236.870965 137.719085 
L 236.870965 135.625548 
L 237.230603 135.625548 
L 237.230603 133.532012 
L 237.452072 133.532012 
L 237.452072 131.438475 
L 237.81171 131.438475 
L 237.81171 129.344938 
L 240.969296 129.344938 
L 240.969296 127.251402 
L 242.045622 127.251402 
L 242.045622 125.157865 
L 242.626729 125.157865 
L 242.626729 123.064328 
L 242.687357 123.064328 
L 242.687357 120.970792 
L 243.035746 120.970792 
L 243.035746 118.877255 
L 243.763682 118.877255 
L 243.763682 116.783718 
L 244.112072 116.783718 
L 244.112072 114.690182 
L 244.344789 114.690182 
L 244.344789 112.596645 
L 244.693179 112.596645 
L 244.693179 110.503108 
L 244.705133 110.503108 
L 244.705133 108.409572 
L 245.064771 108.409572 
L 245.064771 106.316035 
L 249.879791 106.316035 
L 249.879791 104.222498 
L 251.597851 104.222498 
L 251.597851 102.128962 
L 251.946241 102.128962 
L 251.946241 100.035425 
L 453.192 100.035425 
" clip-path="url(#p6f5fb21dbc)" style="fill: none; stroke: #bf00bf; stroke-width: 3; stroke-linecap: square"/>
   </g>
   <g id="line2d_62">
    <path clip-path="url(#p6f5fb21dbc)" style="fill: none; stroke: #bf00bf; stroke-width: 3; stroke-linecap: square"/>
   </g>
   <g id="line2d_63">
    <path d="M 34.16 162.841525 
L 207.164757 162.841525 
L 207.164757 160.747988 
L 207.388407 160.747988 
L 207.388407 158.654452 
L 212.053104 158.654452 
L 212.053104 156.560915 
L 214.006507 156.560915 
L 214.006507 154.467378 
L 214.048838 154.467378 
L 214.048838 152.373842 
L 217.467254 152.373842 
L 217.467254 150.280305 
L 217.690903 150.280305 
L 217.690903 148.186768 
L 222.355601 148.186768 
L 222.355601 146.093232 
L 224.309003 146.093232 
L 224.309003 143.999695 
L 224.351334 143.999695 
L 224.351334 141.906158 
L 235.350961 141.906158 
L 235.350961 139.812622 
L 235.57461 139.812622 
L 235.57461 137.719085 
L 236.55021 137.719085 
L 236.55021 135.625548 
L 236.773859 135.625548 
L 236.773859 133.532012 
L 237.491584 133.532012 
L 237.491584 131.438475 
L 237.715234 131.438475 
L 237.715234 129.344938 
L 240.239308 129.344938 
L 240.239308 127.251402 
L 241.438557 127.251402 
L 241.438557 125.157865 
L 242.19271 125.157865 
L 242.19271 123.064328 
L 242.235041 123.064328 
L 242.235041 120.970792 
L 242.379931 120.970792 
L 242.379931 118.877255 
L 243.391959 118.877255 
L 243.391959 116.783718 
L 243.43429 116.783718 
L 243.43429 114.690182 
L 244.333334 114.690182 
L 244.333334 112.596645 
L 244.375665 112.596645 
L 244.375665 110.503108 
L 244.943363 110.503108 
L 244.943363 108.409572 
L 245.167012 108.409572 
L 245.167012 106.316035 
L 249.83171 106.316035 
L 249.83171 104.222498 
L 251.785113 104.222498 
L 251.785113 102.128962 
L 251.827444 102.128962 
L 251.827444 100.035425 
L 453.192 100.035425 
" clip-path="url(#p6f5fb21dbc)" style="fill: none; stroke: #ff0000; stroke-width: 3; stroke-linecap: square"/>
   </g>
   <g id="line2d_64">
    <path clip-path="url(#p6f5fb21dbc)" style="fill: none; stroke: #ff0000; stroke-width: 3; stroke-linecap: square"/>
   </g>
   <g id="line2d_65">
    <path d="M 243.676 291.28 
L 243.676 3 
" clip-path="url(#p6f5fb21dbc)" style="fill: none; stroke: #000000; stroke-width: 1.5; stroke-linecap: square"/>
   </g>
   <g id="line2d_66">
    <path d="M 34.16 147.14 
L 453.192 147.14 
" clip-path="url(#p6f5fb21dbc)" style="fill: none; stroke-dasharray: 2,3.3; stroke-dashoffset: 0; stroke: #000000; stroke-width: 2"/>
   </g>
   <g id="patch_3">
    <path d="M 34.16 291.28 
L 34.16 3 
" style="fill: none; stroke: #000000; stroke-width: 0.8; stroke-linejoin: miter; stroke-linecap: square"/>
   </g>
   <g id="patch_4">
    <path d="M 453.192 291.28 
L 453.192 3 
" style="fill: none; stroke: #000000; stroke-width: 0.8; stroke-linejoin: miter; stroke-linecap: square"/>
   </g>
   <g id="patch_5">
    <path d="M 34.16 291.28 
L 453.192 291.28 
" style="fill: none; stroke: #000000; stroke-width: 0.8; stroke-linejoin: miter; stroke-linecap: square"/>
   </g>
   <g id="patch_6">
    <path d="M 34.16 3 
L 453.192 3 
" style="fill: none; stroke: #000000; stroke-width: 0.8; stroke-linejoin: miter; stroke-linecap: square"/>
   </g>
   <g id="text_5">
    <!-- f6-f9,40-D -->
    <g transform="translate(343.64261 285.5144) scale(0.2 -0.2)">
     <defs>
      <path id="DejaVuSans-36" d="M 2113 2584 
Q 1688 2584 1439 2293 
Q 1191 2003 1191 1497 
Q 1191 994 1439 701 
Q 1688 409 2113 409 
Q 2538 409 2786 701 
Q 3034 994 3034 1497 
Q 3034 2003 2786 2293 
Q 2538 2584 2113 2584 
z
M 3366 4563 
L 3366 3988 
Q 3128 4100 2886 4159 
Q 2644 4219 2406 4219 
Q 1781 4219 1451 3797 
Q 1122 3375 1075 2522 
Q 1259 2794 1537 2939 
Q 1816 3084 2150 3084 
Q 2853 3084 3261 2657 
Q 3669 2231 3669 1497 
Q 3669 778 3244 343 
Q 2819 -91 2113 -91 
Q 1303 -91 875 529 
Q 447 1150 447 2328 
Q 447 3434 972 4092 
Q 1497 4750 2381 4750 
Q 2619 4750 2861 4703 
Q 3103 4656 3366 4563 
z
" transform="scale(0.015625)"/>
      <path id="DejaVuSans-39" d="M 703 97 
L 703 672 
Q 941 559 1184 500 
Q 1428 441 1663 441 
Q 2288 441 2617 861 
Q 2947 1281 2994 2138 
Q 2813 1869 2534 1725 
Q 2256 1581 1919 1581 
Q 1219 1581 811 2004 
Q 403 2428 403 3163 
Q 403 3881 828 4315 
Q 1253 4750 1959 4750 
Q 2769 4750 3195 4129 
Q 3622 3509 3622 2328 
Q 3622 1225 3098 567 
Q 2575 -91 1691 -91 
Q 1453 -91 1209 -44 
Q 966 3 703 97 
z
M 1959 2075 
Q 2384 2075 2632 2365 
Q 2881 2656 2881 3163 
Q 2881 3666 2632 3958 
Q 2384 4250 1959 4250 
Q 1534 4250 1286 3958 
Q 1038 3666 1038 3163 
Q 1038 2656 1286 2365 
Q 1534 2075 1959 2075 
z
" transform="scale(0.015625)"/>
      <path id="DejaVuSans-2c" d="M 750 794 
L 1409 794 
L 1409 256 
L 897 -744 
L 494 -744 
L 750 256 
L 750 794 
z
" transform="scale(0.015625)"/>
      <path id="DejaVuSans-34" d="M 2419 4116 
L 825 1625 
L 2419 1625 
L 2419 4116 
z
M 2253 4666 
L 3047 4666 
L 3047 1625 
L 3713 1625 
L 3713 1100 
L 3047 1100 
L 3047 0 
L 2419 0 
L 2419 1100 
L 313 1100 
L 313 1709 
L 2253 4666 
z
" transform="scale(0.015625)"/>
      <path id="DejaVuSans-44" d="M 1259 4147 
L 1259 519 
L 2022 519 
Q 2988 519 3436 956 
Q 3884 1394 3884 2338 
Q 3884 3275 3436 3711 
Q 2988 4147 2022 4147 
L 1259 4147 
z
M 628 4666 
L 1925 4666 
Q 3281 4666 3915 4102 
Q 4550 3538 4550 2338 
Q 4550 1131 3912 565 
Q 3275 0 1925 0 
L 628 0 
L 628 4666 
z
" transform="scale(0.015625)"/>
     </defs>
     <use xlink:href="#DejaVuSans-66"/>
     <use xlink:href="#DejaVuSans-36" x="35.205078"/>
     <use xlink:href="#DejaVuSans-2d" x="98.828125"/>
     <use xlink:href="#DejaVuSans-66" x="134.912109"/>
     <use xlink:href="#DejaVuSans-39" x="170.117188"/>
     <use xlink:href="#DejaVuSans-2c" x="233.740234"/>
     <use xlink:href="#DejaVuSans-34" x="265.527344"/>
     <use xlink:href="#DejaVuSans-30" x="329.150391"/>
     <use xlink:href="#DejaVuSans-2d" x="392.773438"/>
     <use xlink:href="#DejaVuSans-44" x="428.857422"/>
    </g>
   </g>
   <g id="text_6">
    <!-- v2.6.3 -->
    <g style="fill: #808080" transform="translate(227.99475 286.317512) scale(0.1 -0.1)">
     <defs>
      <path id="DejaVuSans-32" d="M 1228 531 
L 3431 531 
L 3431 0 
L 469 0 
L 469 531 
Q 828 903 1448 1529 
Q 2069 2156 2228 2338 
Q 2531 2678 2651 2914 
Q 2772 3150 2772 3378 
Q 2772 3750 2511 3984 
Q 2250 4219 1831 4219 
Q 1534 4219 1204 4116 
Q 875 4013 500 3803 
L 500 4441 
Q 881 4594 1212 4672 
Q 1544 4750 1819 4750 
Q 2544 4750 2975 4387 
Q 3406 4025 3406 3419 
Q 3406 3131 3298 2873 
Q 3191 2616 2906 2266 
Q 2828 2175 2409 1742 
Q 1991 1309 1228 531 
z
" transform="scale(0.015625)"/>
      <path id="DejaVuSans-2e" d="M 684 794 
L 1344 794 
L 1344 0 
L 684 0 
L 684 794 
z
" transform="scale(0.015625)"/>
      <path id="DejaVuSans-33" d="M 2597 2516 
Q 3050 2419 3304 2112 
Q 3559 1806 3559 1356 
Q 3559 666 3084 287 
Q 2609 -91 1734 -91 
Q 1441 -91 1130 -33 
Q 819 25 488 141 
L 488 750 
Q 750 597 1062 519 
Q 1375 441 1716 441 
Q 2309 441 2620 675 
Q 2931 909 2931 1356 
Q 2931 1769 2642 2001 
Q 2353 2234 1838 2234 
L 1294 2234 
L 1294 2753 
L 1863 2753 
Q 2328 2753 2575 2939 
Q 2822 3125 2822 3475 
Q 2822 3834 2567 4026 
Q 2313 4219 1838 4219 
Q 1578 4219 1281 4162 
Q 984 4106 628 3988 
L 628 4550 
Q 988 4650 1302 4700 
Q 1616 4750 1894 4750 
Q 2613 4750 3031 4423 
Q 3450 4097 3450 3541 
Q 3450 3153 3228 2886 
Q 3006 2619 2597 2516 
z
" transform="scale(0.015625)"/>
     </defs>
     <use xlink:href="#DejaVuSans-76"/>
     <use xlink:href="#DejaVuSans-32" x="59.179688"/>
     <use xlink:href="#DejaVuSans-2e" x="122.802734"/>
     <use xlink:href="#DejaVuSans-36" x="154.589844"/>
     <use xlink:href="#DejaVuSans-2e" x="218.212891"/>
     <use xlink:href="#DejaVuSans-33" x="250"/>
    </g>
   </g>
   <g id="legend_1">
    <g id="patch_7">
     <path d="M 48.16 136.425 
L 177.381875 136.425 
Q 181.381875 136.425 181.381875 132.425 
L 181.381875 17 
Q 181.381875 13 177.381875 13 
L 48.16 13 
Q 44.16 13 44.16 17 
L 44.16 132.425 
Q 44.16 136.425 48.16 136.425 
z
" style="fill: #ffffff; opacity: 0.2; stroke: #cccccc; stroke-linejoin: miter"/>
    </g>
    <g id="line2d_67">
     <path d="M 52.16 29.196875 
L 72.16 29.196875 
L 92.16 29.196875 
" style="fill: none; stroke: #000000; stroke-width: 3; stroke-linecap: square"/>
    </g>
    <g id="text_7">
     <!-- 1: 4/4 -->
     <g transform="translate(108.16 36.196875) scale(0.2 -0.2)">
      <defs>
       <path id="DejaVuSans-3a" d="M 750 794 
L 1409 794 
L 1409 0 
L 750 0 
L 750 794 
z
M 750 3309 
L 1409 3309 
L 1409 2516 
L 750 2516 
L 750 3309 
z
" transform="scale(0.015625)"/>
       <path id="DejaVuSans-2f" d="M 1625 4666 
L 2156 4666 
L 531 -594 
L 0 -594 
L 1625 4666 
z
" transform="scale(0.015625)"/>
      </defs>
      <use xlink:href="#DejaVuSans-31"/>
      <use xlink:href="#DejaVuSans-3a" x="63.623047"/>
      <use xlink:href="#DejaVuSans-20" x="97.314453"/>
      <use xlink:href="#DejaVuSans-34" x="129.101562"/>
      <use xlink:href="#DejaVuSans-2f" x="192.724609"/>
      <use xlink:href="#DejaVuSans-34" x="226.416016"/>
     </g>
    </g>
    <g id="line2d_68">
     <path d="M 52.16 58.553125 
L 72.16 58.553125 
L 92.16 58.553125 
" style="fill: none; stroke: #00bfbf; stroke-width: 3; stroke-linecap: square"/>
    </g>
    <g id="text_8">
     <!-- -1: 1/1 -->
     <g transform="translate(108.16 65.553125) scale(0.2 -0.2)">
      <use xlink:href="#DejaVuSans-2d"/>
      <use xlink:href="#DejaVuSans-31" x="36.083984"/>
      <use xlink:href="#DejaVuSans-3a" x="99.707031"/>
      <use xlink:href="#DejaVuSans-20" x="133.398438"/>
      <use xlink:href="#DejaVuSans-31" x="165.185547"/>
      <use xlink:href="#DejaVuSans-2f" x="228.808594"/>
      <use xlink:href="#DejaVuSans-31" x="262.5"/>
     </g>
    </g>
    <g id="line2d_69">
     <path d="M 52.16 87.909375 
L 72.16 87.909375 
L 92.16 87.909375 
" style="fill: none; stroke: #bf00bf; stroke-width: 3; stroke-linecap: square"/>
    </g>
    <g id="text_9">
     <!-- -4: 1/1 -->
     <g transform="translate(108.16 94.909375) scale(0.2 -0.2)">
      <use xlink:href="#DejaVuSans-2d"/>
      <use xlink:href="#DejaVuSans-34" x="36.083984"/>
      <use xlink:href="#DejaVuSans-3a" x="99.707031"/>
      <use xlink:href="#DejaVuSans-20" x="133.398438"/>
      <use xlink:href="#DejaVuSans-31" x="165.185547"/>
      <use xlink:href="#DejaVuSans-2f" x="228.808594"/>
      <use xlink:href="#DejaVuSans-31" x="262.5"/>
     </g>
    </g>
    <g id="line2d_70">
     <path d="M 52.16 117.265625 
L 72.16 117.265625 
L 92.16 117.265625 
" style="fill: none; stroke: #ff0000; stroke-width: 3; stroke-linecap: square"/>
    </g>
    <g id="text_10">
     <!-- -8: 1/1 -->
     <g transform="translate(108.16 124.265625) scale(0.2 -0.2)">
      <defs>
       <path id="DejaVuSans-38" d="M 2034 2216 
Q 1584 2216 1326 1975 
Q 1069 1734 1069 1313 
Q 1069 891 1326 650 
Q 1584 409 2034 409 
Q 2484 409 2743 651 
Q 3003 894 3003 1313 
Q 3003 1734 2745 1975 
Q 2488 2216 2034 2216 
z
M 1403 2484 
Q 997 2584 770 2862 
Q 544 3141 544 3541 
Q 544 4100 942 4425 
Q 1341 4750 2034 4750 
Q 2731 4750 3128 4425 
Q 3525 4100 3525 3541 
Q 3525 3141 3298 2862 
Q 3072 2584 2669 2484 
Q 3125 2378 3379 2068 
Q 3634 1759 3634 1313 
Q 3634 634 3220 271 
Q 2806 -91 2034 -91 
Q 1263 -91 848 271 
Q 434 634 434 1313 
Q 434 1759 690 2068 
Q 947 2378 1403 2484 
z
M 1172 3481 
Q 1172 3119 1398 2916 
Q 1625 2713 2034 2713 
Q 2441 2713 2670 2916 
Q 2900 3119 2900 3481 
Q 2900 3844 2670 4047 
Q 2441 4250 2034 4250 
Q 1625 4250 1398 4047 
Q 1172 3844 1172 3481 
z
" transform="scale(0.015625)"/>
      </defs>
      <use xlink:href="#DejaVuSans-2d"/>
      <use xlink:href="#DejaVuSans-38" x="36.083984"/>
      <use xlink:href="#DejaVuSans-3a" x="99.707031"/>
      <use xlink:href="#DejaVuSans-20" x="133.398438"/>
      <use xlink:href="#DejaVuSans-31" x="165.185547"/>
      <use xlink:href="#DejaVuSans-2f" x="228.808594"/>
      <use xlink:href="#DejaVuSans-31" x="262.5"/>
     </g>
    </g>
   </g>
  </g>
 </g>
 <defs>
  <clipPath id="p6f5fb21dbc">
   <rect x="34.16" y="3" width="419.032" height="288.28"/>
  </clipPath>
 </defs>
</svg>
