<?xml version="1.0" encoding="utf-8" standalone="no"?>
<!DOCTYPE svg PUBLIC "-//W3C//DTD SVG 1.1//EN"
  "http://www.w3.org/Graphics/SVG/1.1/DTD/svg11.dtd">
<svg xmlns:xlink="http://www.w3.org/1999/xlink" width="460.8pt" height="345.6pt" viewBox="0 0 460.8 345.6" xmlns="http://www.w3.org/2000/svg" version="1.1">
 <metadata>
  <rdf:RDF xmlns:dc="http://purl.org/dc/elements/1.1/" xmlns:cc="http://creativecommons.org/ns#" xmlns:rdf="http://www.w3.org/1999/02/22-rdf-syntax-ns#">
   <cc:Work>
    <dc:type rdf:resource="http://purl.org/dc/dcmitype/StillImage"/>
    <dc:date>2024-06-05T13:43:19.713959</dc:date>
    <dc:format>image/svg+xml</dc:format>
    <dc:creator>
     <cc:Agent>
      <dc:title>Matplotlib v3.7.1, https://matplotlib.org/</dc:title>
     </cc:Agent>
    </dc:creator>
   </cc:Work>
  </rdf:RDF>
 </metadata>
 <defs>
  <style type="text/css">*{stroke-linejoin: round; stroke-linecap: butt}</style>
 </defs>
 <g id="figure_1">
  <g id="patch_1">
   <path d="M 0 345.6 
L 460.8 345.6 
L 460.8 0 
L 0 0 
z
" style="fill: #ffffff"/>
  </g>
  <g id="axes_1">
   <g id="patch_2">
    <path d="M 34.16 291.28 
L 453.192 291.28 
L 453.192 3 
L 34.16 3 
z
" style="fill: #ffffff"/>
   </g>
   <g id="matplotlib.axis_1">
    <g id="xtick_1">
     <g id="line2d_1">
      <path d="M 132.212494 291.28 
L 132.212494 3 
" clip-path="url(#p399db32a0f)" style="fill: none; stroke: #b0b0b0; stroke-width: 0.8; stroke-linecap: square"/>
     </g>
     <g id="line2d_2">
      <defs>
       <path id="m12710cafd9" d="M 0 0 
L 0 3.5 
" style="stroke: #000000; stroke-width: 0.8"/>
      </defs>
      <g>
       <use xlink:href="#m12710cafd9" x="132.212494" y="291.28" style="stroke: #000000; stroke-width: 0.8"/>
      </g>
     </g>
     <g id="text_1">
      <!-- -2 -->
      <g transform="translate(122.242181 313.476875) scale(0.2 -0.2)">
       <defs>
        <path id="DejaVuSans-2d" d="M 313 2009 
L 1997 2009 
L 1997 1497 
L 313 1497 
L 313 2009 
z
" transform="scale(0.015625)"/>
        <path id="DejaVuSans-32" d="M 1228 531 
L 3431 531 
L 3431 0 
L 469 0 
L 469 531 
Q 828 903 1448 1529 
Q 2069 2156 2228 2338 
Q 2531 2678 2651 2914 
Q 2772 3150 2772 3378 
Q 2772 3750 2511 3984 
Q 2250 4219 1831 4219 
Q 1534 4219 1204 4116 
Q 875 4013 500 3803 
L 500 4441 
Q 881 4594 1212 4672 
Q 1544 4750 1819 4750 
Q 2544 4750 2975 4387 
Q 3406 4025 3406 3419 
Q 3406 3131 3298 2873 
Q 3191 2616 2906 2266 
Q 2828 2175 2409 1742 
Q 1991 1309 1228 531 
z
" transform="scale(0.015625)"/>
       </defs>
       <use xlink:href="#DejaVuSans-2d"/>
       <use xlink:href="#DejaVuSans-32" x="36.083984"/>
      </g>
     </g>
    </g>
    <g id="xtick_2">
     <g id="line2d_3">
      <path d="M 243.676 291.28 
L 243.676 3 
" clip-path="url(#p399db32a0f)" style="fill: none; stroke: #b0b0b0; stroke-width: 0.8; stroke-linecap: square"/>
     </g>
     <g id="line2d_4">
      <g>
       <use xlink:href="#m12710cafd9" x="243.676" y="291.28" style="stroke: #000000; stroke-width: 0.8"/>
      </g>
     </g>
     <g id="text_2">
      <!-- 0 -->
      <g transform="translate(237.3135 313.476875) scale(0.2 -0.2)">
       <defs>
        <path id="DejaVuSans-30" d="M 2034 4250 
Q 1547 4250 1301 3770 
Q 1056 3291 1056 2328 
Q 1056 1369 1301 889 
Q 1547 409 2034 409 
Q 2525 409 2770 889 
Q 3016 1369 3016 2328 
Q 3016 3291 2770 3770 
Q 2525 4250 2034 4250 
z
M 2034 4750 
Q 2819 4750 3233 4129 
Q 3647 3509 3647 2328 
Q 3647 1150 3233 529 
Q 2819 -91 2034 -91 
Q 1250 -91 836 529 
Q 422 1150 422 2328 
Q 422 3509 836 4129 
Q 1250 4750 2034 4750 
z
" transform="scale(0.015625)"/>
       </defs>
       <use xlink:href="#DejaVuSans-30"/>
      </g>
     </g>
    </g>
    <g id="xtick_3">
     <g id="line2d_5">
      <path d="M 355.139506 291.28 
L 355.139506 3 
" clip-path="url(#p399db32a0f)" style="fill: none; stroke: #b0b0b0; stroke-width: 0.8; stroke-linecap: square"/>
     </g>
     <g id="line2d_6">
      <g>
       <use xlink:href="#m12710cafd9" x="355.139506" y="291.28" style="stroke: #000000; stroke-width: 0.8"/>
      </g>
     </g>
     <g id="text_3">
      <!-- 2 -->
      <g transform="translate(348.777006 313.476875) scale(0.2 -0.2)">
       <use xlink:href="#DejaVuSans-32"/>
      </g>
     </g>
    </g>
    <g id="text_4">
     <!-- log10 of FEvals ratio -->
     <g transform="translate(141.371312 336.833125) scale(0.2 -0.2)">
      <defs>
       <path id="DejaVuSans-6c" d="M 603 4863 
L 1178 4863 
L 1178 0 
L 603 0 
L 603 4863 
z
" transform="scale(0.015625)"/>
       <path id="DejaVuSans-6f" d="M 1959 3097 
Q 1497 3097 1228 2736 
Q 959 2375 959 1747 
Q 959 1119 1226 758 
Q 1494 397 1959 397 
Q 2419 397 2687 759 
Q 2956 1122 2956 1747 
Q 2956 2369 2687 2733 
Q 2419 3097 1959 3097 
z
M 1959 3584 
Q 2709 3584 3137 3096 
Q 3566 2609 3566 1747 
Q 3566 888 3137 398 
Q 2709 -91 1959 -91 
Q 1206 -91 779 398 
Q 353 888 353 1747 
Q 353 2609 779 3096 
Q 1206 3584 1959 3584 
z
" transform="scale(0.015625)"/>
       <path id="DejaVuSans-67" d="M 2906 1791 
Q 2906 2416 2648 2759 
Q 2391 3103 1925 3103 
Q 1463 3103 1205 2759 
Q 947 2416 947 1791 
Q 947 1169 1205 825 
Q 1463 481 1925 481 
Q 2391 481 2648 825 
Q 2906 1169 2906 1791 
z
M 3481 434 
Q 3481 -459 3084 -895 
Q 2688 -1331 1869 -1331 
Q 1566 -1331 1297 -1286 
Q 1028 -1241 775 -1147 
L 775 -588 
Q 1028 -725 1275 -790 
Q 1522 -856 1778 -856 
Q 2344 -856 2625 -561 
Q 2906 -266 2906 331 
L 2906 616 
Q 2728 306 2450 153 
Q 2172 0 1784 0 
Q 1141 0 747 490 
Q 353 981 353 1791 
Q 353 2603 747 3093 
Q 1141 3584 1784 3584 
Q 2172 3584 2450 3431 
Q 2728 3278 2906 2969 
L 2906 3500 
L 3481 3500 
L 3481 434 
z
" transform="scale(0.015625)"/>
       <path id="DejaVuSans-31" d="M 794 531 
L 1825 531 
L 1825 4091 
L 703 3866 
L 703 4441 
L 1819 4666 
L 2450 4666 
L 2450 531 
L 3481 531 
L 3481 0 
L 794 0 
L 794 531 
z
" transform="scale(0.015625)"/>
       <path id="DejaVuSans-20" transform="scale(0.015625)"/>
       <path id="DejaVuSans-66" d="M 2375 4863 
L 2375 4384 
L 1825 4384 
Q 1516 4384 1395 4259 
Q 1275 4134 1275 3809 
L 1275 3500 
L 2222 3500 
L 2222 3053 
L 1275 3053 
L 1275 0 
L 697 0 
L 697 3053 
L 147 3053 
L 147 3500 
L 697 3500 
L 697 3744 
Q 697 4328 969 4595 
Q 1241 4863 1831 4863 
L 2375 4863 
z
" transform="scale(0.015625)"/>
       <path id="DejaVuSans-46" d="M 628 4666 
L 3309 4666 
L 3309 4134 
L 1259 4134 
L 1259 2759 
L 3109 2759 
L 3109 2228 
L 1259 2228 
L 1259 0 
L 628 0 
L 628 4666 
z
" transform="scale(0.015625)"/>
       <path id="DejaVuSans-45" d="M 628 4666 
L 3578 4666 
L 3578 4134 
L 1259 4134 
L 1259 2753 
L 3481 2753 
L 3481 2222 
L 1259 2222 
L 1259 531 
L 3634 531 
L 3634 0 
L 628 0 
L 628 4666 
z
" transform="scale(0.015625)"/>
       <path id="DejaVuSans-76" d="M 191 3500 
L 800 3500 
L 1894 563 
L 2988 3500 
L 3597 3500 
L 2284 0 
L 1503 0 
L 191 3500 
z
" transform="scale(0.015625)"/>
       <path id="DejaVuSans-61" d="M 2194 1759 
Q 1497 1759 1228 1600 
Q 959 1441 959 1056 
Q 959 750 1161 570 
Q 1363 391 1709 391 
Q 2188 391 2477 730 
Q 2766 1069 2766 1631 
L 2766 1759 
L 2194 1759 
z
M 3341 1997 
L 3341 0 
L 2766 0 
L 2766 531 
Q 2569 213 2275 61 
Q 1981 -91 1556 -91 
Q 1019 -91 701 211 
Q 384 513 384 1019 
Q 384 1609 779 1909 
Q 1175 2209 1959 2209 
L 2766 2209 
L 2766 2266 
Q 2766 2663 2505 2880 
Q 2244 3097 1772 3097 
Q 1472 3097 1187 3025 
Q 903 2953 641 2809 
L 641 3341 
Q 956 3463 1253 3523 
Q 1550 3584 1831 3584 
Q 2591 3584 2966 3190 
Q 3341 2797 3341 1997 
z
" transform="scale(0.015625)"/>
       <path id="DejaVuSans-73" d="M 2834 3397 
L 2834 2853 
Q 2591 2978 2328 3040 
Q 2066 3103 1784 3103 
Q 1356 3103 1142 2972 
Q 928 2841 928 2578 
Q 928 2378 1081 2264 
Q 1234 2150 1697 2047 
L 1894 2003 
Q 2506 1872 2764 1633 
Q 3022 1394 3022 966 
Q 3022 478 2636 193 
Q 2250 -91 1575 -91 
Q 1294 -91 989 -36 
Q 684 19 347 128 
L 347 722 
Q 666 556 975 473 
Q 1284 391 1588 391 
Q 1994 391 2212 530 
Q 2431 669 2431 922 
Q 2431 1156 2273 1281 
Q 2116 1406 1581 1522 
L 1381 1569 
Q 847 1681 609 1914 
Q 372 2147 372 2553 
Q 372 3047 722 3315 
Q 1072 3584 1716 3584 
Q 2034 3584 2315 3537 
Q 2597 3491 2834 3397 
z
" transform="scale(0.015625)"/>
       <path id="DejaVuSans-72" d="M 2631 2963 
Q 2534 3019 2420 3045 
Q 2306 3072 2169 3072 
Q 1681 3072 1420 2755 
Q 1159 2438 1159 1844 
L 1159 0 
L 581 0 
L 581 3500 
L 1159 3500 
L 1159 2956 
Q 1341 3275 1631 3429 
Q 1922 3584 2338 3584 
Q 2397 3584 2469 3576 
Q 2541 3569 2628 3553 
L 2631 2963 
z
" transform="scale(0.015625)"/>
       <path id="DejaVuSans-74" d="M 1172 4494 
L 1172 3500 
L 2356 3500 
L 2356 3053 
L 1172 3053 
L 1172 1153 
Q 1172 725 1289 603 
Q 1406 481 1766 481 
L 2356 481 
L 2356 0 
L 1766 0 
Q 1100 0 847 248 
Q 594 497 594 1153 
L 594 3053 
L 172 3053 
L 172 3500 
L 594 3500 
L 594 4494 
L 1172 4494 
z
" transform="scale(0.015625)"/>
       <path id="DejaVuSans-69" d="M 603 3500 
L 1178 3500 
L 1178 0 
L 603 0 
L 603 3500 
z
M 603 4863 
L 1178 4863 
L 1178 4134 
L 603 4134 
L 603 4863 
z
" transform="scale(0.015625)"/>
      </defs>
      <use xlink:href="#DejaVuSans-6c"/>
      <use xlink:href="#DejaVuSans-6f" x="27.783203"/>
      <use xlink:href="#DejaVuSans-67" x="88.964844"/>
      <use xlink:href="#DejaVuSans-31" x="152.441406"/>
      <use xlink:href="#DejaVuSans-30" x="216.064453"/>
      <use xlink:href="#DejaVuSans-20" x="279.6875"/>
      <use xlink:href="#DejaVuSans-6f" x="311.474609"/>
      <use xlink:href="#DejaVuSans-66" x="372.65625"/>
      <use xlink:href="#DejaVuSans-20" x="407.861328"/>
      <use xlink:href="#DejaVuSans-46" x="439.648438"/>
      <use xlink:href="#DejaVuSans-45" x="497.167969"/>
      <use xlink:href="#DejaVuSans-76" x="560.351562"/>
      <use xlink:href="#DejaVuSans-61" x="619.53125"/>
      <use xlink:href="#DejaVuSans-6c" x="680.810547"/>
      <use xlink:href="#DejaVuSans-73" x="708.59375"/>
      <use xlink:href="#DejaVuSans-20" x="760.693359"/>
      <use xlink:href="#DejaVuSans-72" x="792.480469"/>
      <use xlink:href="#DejaVuSans-61" x="833.59375"/>
      <use xlink:href="#DejaVuSans-74" x="894.873047"/>
      <use xlink:href="#DejaVuSans-69" x="934.082031"/>
      <use xlink:href="#DejaVuSans-6f" x="961.865234"/>
     </g>
    </g>
   </g>
   <g id="matplotlib.axis_2">
    <g id="ytick_1">
     <g id="line2d_7">
      <path d="M 34.16 288.453725 
L 453.192 288.453725 
" clip-path="url(#p399db32a0f)" style="fill: none; stroke: #b0b0b0; stroke-width: 0.8; stroke-linecap: square"/>
     </g>
     <g id="line2d_8">
      <defs>
       <path id="mccc43960c4" d="M 0 0 
L -3.5 0 
" style="stroke: #000000; stroke-width: 0.8"/>
      </defs>
      <g>
       <use xlink:href="#mccc43960c4" x="34.16" y="288.453725" style="stroke: #000000; stroke-width: 0.8"/>
      </g>
     </g>
    </g>
    <g id="ytick_2">
     <g id="line2d_9">
      <path d="M 34.16 217.796863 
L 453.192 217.796863 
" clip-path="url(#p399db32a0f)" style="fill: none; stroke: #b0b0b0; stroke-width: 0.8; stroke-linecap: square"/>
     </g>
     <g id="line2d_10">
      <g>
       <use xlink:href="#mccc43960c4" x="34.16" y="217.796863" style="stroke: #000000; stroke-width: 0.8"/>
      </g>
     </g>
    </g>
    <g id="ytick_3">
     <g id="line2d_11">
      <path d="M 34.16 147.14 
L 453.192 147.14 
" clip-path="url(#p399db32a0f)" style="fill: none; stroke: #b0b0b0; stroke-width: 0.8; stroke-linecap: square"/>
     </g>
     <g id="line2d_12">
      <g>
       <use xlink:href="#mccc43960c4" x="34.16" y="147.14" style="stroke: #000000; stroke-width: 0.8"/>
      </g>
     </g>
    </g>
    <g id="ytick_4">
     <g id="line2d_13">
      <path d="M 34.16 76.483137 
L 453.192 76.483137 
" clip-path="url(#p399db32a0f)" style="fill: none; stroke: #b0b0b0; stroke-width: 0.8; stroke-linecap: square"/>
     </g>
     <g id="line2d_14">
      <g>
       <use xlink:href="#mccc43960c4" x="34.16" y="76.483137" style="stroke: #000000; stroke-width: 0.8"/>
      </g>
     </g>
    </g>
    <g id="ytick_5">
     <g id="line2d_15">
      <path d="M 34.16 5.826275 
L 453.192 5.826275 
" clip-path="url(#p399db32a0f)" style="fill: none; stroke: #b0b0b0; stroke-width: 0.8; stroke-linecap: square"/>
     </g>
     <g id="line2d_16">
      <g>
       <use xlink:href="#mccc43960c4" x="34.16" y="5.826275" style="stroke: #000000; stroke-width: 0.8"/>
      </g>
     </g>
    </g>
    <g id="text_5">
     <!-- proportion of trials -->
     <g transform="translate(19.000625 240.14625) rotate(-90) scale(0.2 -0.2)">
      <defs>
       <path id="DejaVuSans-70" d="M 1159 525 
L 1159 -1331 
L 581 -1331 
L 581 3500 
L 1159 3500 
L 1159 2969 
Q 1341 3281 1617 3432 
Q 1894 3584 2278 3584 
Q 2916 3584 3314 3078 
Q 3713 2572 3713 1747 
Q 3713 922 3314 415 
Q 2916 -91 2278 -91 
Q 1894 -91 1617 61 
Q 1341 213 1159 525 
z
M 3116 1747 
Q 3116 2381 2855 2742 
Q 2594 3103 2138 3103 
Q 1681 3103 1420 2742 
Q 1159 2381 1159 1747 
Q 1159 1113 1420 752 
Q 1681 391 2138 391 
Q 2594 391 2855 752 
Q 3116 1113 3116 1747 
z
" transform="scale(0.015625)"/>
       <path id="DejaVuSans-6e" d="M 3513 2113 
L 3513 0 
L 2938 0 
L 2938 2094 
Q 2938 2591 2744 2837 
Q 2550 3084 2163 3084 
Q 1697 3084 1428 2787 
Q 1159 2491 1159 1978 
L 1159 0 
L 581 0 
L 581 3500 
L 1159 3500 
L 1159 2956 
Q 1366 3272 1645 3428 
Q 1925 3584 2291 3584 
Q 2894 3584 3203 3211 
Q 3513 2838 3513 2113 
z
" transform="scale(0.015625)"/>
      </defs>
      <use xlink:href="#DejaVuSans-70"/>
      <use xlink:href="#DejaVuSans-72" x="63.476562"/>
      <use xlink:href="#DejaVuSans-6f" x="102.339844"/>
      <use xlink:href="#DejaVuSans-70" x="163.521484"/>
      <use xlink:href="#DejaVuSans-6f" x="226.998047"/>
      <use xlink:href="#DejaVuSans-72" x="288.179688"/>
      <use xlink:href="#DejaVuSans-74" x="329.292969"/>
      <use xlink:href="#DejaVuSans-69" x="368.501953"/>
      <use xlink:href="#DejaVuSans-6f" x="396.285156"/>
      <use xlink:href="#DejaVuSans-6e" x="457.466797"/>
      <use xlink:href="#DejaVuSans-20" x="520.845703"/>
      <use xlink:href="#DejaVuSans-6f" x="552.632812"/>
      <use xlink:href="#DejaVuSans-66" x="613.814453"/>
      <use xlink:href="#DejaVuSans-20" x="649.019531"/>
      <use xlink:href="#DejaVuSans-74" x="680.806641"/>
      <use xlink:href="#DejaVuSans-72" x="720.015625"/>
      <use xlink:href="#DejaVuSans-69" x="761.128906"/>
      <use xlink:href="#DejaVuSans-61" x="788.912109"/>
      <use xlink:href="#DejaVuSans-6c" x="850.191406"/>
      <use xlink:href="#DejaVuSans-73" x="877.974609"/>
     </g>
    </g>
   </g>
   <g id="line2d_17">
    <path d="M 34.16 250.07222 
L 52.00628 250.07222 
L 52.00628 249.781451 
L 69.918898 249.781451 
L 69.918898 249.490682 
L 77.496125 249.490682 
L 77.496125 249.199913 
L 78.252738 249.199913 
L 78.252738 248.909144 
L 80.211282 248.909144 
L 80.211282 248.618375 
L 86.444475 248.618375 
L 86.444475 248.327606 
L 88.95071 248.327606 
L 88.95071 248.036837 
L 91.619757 248.036837 
L 91.619757 247.746068 
L 92.102244 247.746068 
L 92.102244 247.455299 
L 94.69713 247.455299 
L 94.69713 247.16453 
L 95.083672 247.16453 
L 95.083672 246.873761 
L 98.1239 246.873761 
L 98.1239 246.582992 
L 101.379423 246.582992 
L 101.379423 246.292223 
L 103.249134 246.292223 
L 103.249134 246.001454 
L 105.549464 246.001454 
L 105.579995 245.419916 
L 109.532374 245.419916 
L 109.532374 245.129147 
L 109.782195 245.129147 
L 109.782195 244.838378 
L 110.014862 244.838378 
L 110.014862 244.547609 
L 113.734754 244.547609 
L 113.830118 243.675302 
L 114.596535 243.675302 
L 114.649477 243.093764 
L 117.155712 243.093764 
L 117.155712 242.802995 
L 119.292041 242.802995 
L 119.292041 242.512226 
L 121.591004 242.512226 
L 121.591004 242.221457 
L 126.057952 242.221457 
L 126.057952 241.930688 
L 126.540439 241.930688 
L 126.540439 241.639919 
L 128.564187 241.639919 
L 128.564187 241.34915 
L 129.046674 241.34915 
L 129.046674 241.058381 
L 131.454136 241.058381 
L 131.454136 240.767612 
L 131.742736 240.767612 
L 131.83794 239.895305 
L 132.509153 239.895305 
L 132.509153 239.604536 
L 133.754465 239.604536 
L 133.784996 239.022998 
L 134.479362 239.022998 
L 134.479362 238.732229 
L 135.817618 238.732229 
L 135.817618 238.441461 
L 137.987197 238.441461 
L 137.987197 238.150692 
L 138.323853 238.150692 
L 138.323853 237.859923 
L 139.503621 237.859923 
L 139.503621 237.569154 
L 142.86261 237.569154 
L 142.86261 237.278385 
L 143.345098 237.278385 
L 143.345098 236.987616 
L 144.772046 236.987616 
L 144.772046 236.696847 
L 145.16294 236.696847 
L 145.193471 236.115309 
L 145.645428 236.115309 
L 145.675959 235.533771 
L 148.268313 235.533771 
L 148.268313 234.952233 
L 149.03473 234.952233 
L 149.03473 234.661464 
L 149.395672 234.661464 
L 149.395672 234.370695 
L 149.878159 234.370695 
L 149.878159 234.079926 
L 150.774548 234.079926 
L 150.774548 233.498388 
L 151.540965 233.498388 
L 151.540965 233.207619 
L 152.622277 233.207619 
L 152.622277 232.91685 
L 154.189524 232.91685 
L 154.189524 232.626081 
L 154.922607 232.626081 
L 154.953137 232.044543 
L 155.525965 232.044543 
L 155.525965 231.753774 
L 156.029198 231.753774 
L 156.029198 231.463005 
L 158.535434 231.463005 
L 158.535434 231.172236 
L 159.155338 231.172236 
L 159.155338 230.881467 
L 165.072972 230.881467 
L 165.072972 230.299929 
L 165.839389 230.299929 
L 165.839389 230.00916 
L 167.373301 230.00916 
L 167.403832 228.846084 
L 168.139719 228.846084 
L 168.17025 228.264546 
L 171.606033 228.264546 
L 171.606033 227.683008 
L 172.37245 227.683008 
L 172.37245 227.392239 
L 172.833857 227.392239 
L 172.903806 226.810701 
L 172.977047 226.810701 
L 172.977047 226.519932 
L 174.055986 226.519932 
L 174.055986 226.229163 
L 174.240247 226.229163 
L 174.240247 225.938394 
L 175.134187 225.938394 
L 175.164718 225.356856 
L 178.130372 225.356856 
L 178.130372 225.066087 
L 178.537172 225.066087 
L 178.537172 224.775318 
L 179.366919 224.775318 
L 179.366919 224.484549 
L 184.385522 224.484549 
L 184.385522 224.19378 
L 184.86801 224.19378 
L 184.86801 223.903011 
L 185.273383 223.903011 
L 185.273383 223.612242 
L 185.454687 223.612242 
L 185.454687 223.321473 
L 185.63736 223.321473 
L 185.63736 223.030704 
L 186.638674 223.030704 
L 186.71327 222.449166 
L 186.973801 222.449166 
L 186.973801 222.158397 
L 188.049711 222.158397 
L 188.049711 221.867628 
L 188.375779 221.867628 
L 188.375779 221.57686 
L 189.61415 221.57686 
L 189.61415 221.286091 
L 189.951846 221.286091 
L 189.951846 220.995322 
L 192.495862 220.995322 
L 192.495862 220.704553 
L 192.770268 220.704553 
L 192.770268 220.413784 
L 193.345212 220.413784 
L 193.449765 219.832246 
L 194.145189 219.832246 
L 194.145189 219.541477 
L 195.727855 219.541477 
L 195.727855 219.250708 
L 196.844655 219.250708 
L 196.844655 218.959939 
L 197.251454 218.959939 
L 197.251454 218.66917 
L 198.683227 218.66917 
L 198.683227 218.378401 
L 199.353619 218.378401 
L 199.353619 218.087632 
L 200.998448 218.087632 
L 200.998448 217.796863 
L 201.534047 217.796863 
L 201.534047 217.506094 
L 202.334889 217.506094 
L 202.334889 217.215325 
L 203.987666 217.215325 
L 203.987666 216.924556 
L 204.16897 216.924556 
L 204.16897 216.633787 
L 204.551292 216.633787 
L 204.551292 216.343018 
L 204.771133 216.343018 
L 204.877837 215.76148 
L 205.503822 215.76148 
L 205.508367 215.179942 
L 205.962679 215.179942 
L 205.962679 214.889173 
L 206.107574 214.889173 
L 206.107574 214.598404 
L 206.288397 214.598404 
L 206.288397 214.307635 
L 206.579732 214.307635 
L 206.595883 213.435328 
L 206.844808 213.435328 
L 206.844808 213.144559 
L 206.974336 213.144559 
L 206.994701 212.563021 
L 207.362301 212.563021 
L 207.362301 212.272252 
L 207.864464 212.272252 
L 207.864464 211.981483 
L 208.251374 211.981483 
L 208.328432 211.399945 
L 209.199985 211.399945 
L 209.308485 210.818407 
L 209.368628 210.818407 
L 209.368628 210.527638 
L 209.578208 210.527638 
L 209.67665 209.655331 
L 209.805745 209.655331 
L 209.805745 209.364562 
L 209.985008 209.364562 
L 209.985008 209.073793 
L 210.125241 209.073793 
L 210.125241 208.783024 
L 210.318126 208.783024 
L 210.318126 208.492255 
L 210.433263 208.492255 
L 210.433263 208.201486 
L 210.644926 208.201486 
L 210.654118 207.619948 
L 210.803989 207.619948 
L 210.803989 207.329179 
L 211.035608 207.329179 
L 211.060918 206.747641 
L 211.671726 206.747641 
L 211.744068 206.166103 
L 212.059494 206.166103 
L 212.059494 205.875334 
L 213.008167 205.875334 
L 213.008167 205.584565 
L 214.147779 205.584565 
L 214.147779 205.293796 
L 214.356769 205.293796 
L 214.442137 204.42149 
L 215.087858 204.42149 
L 215.160342 203.839952 
L 215.246034 203.839952 
L 215.246034 203.549183 
L 215.460157 203.549183 
L 215.460157 203.258414 
L 216.496783 203.258414 
L 216.496783 202.967645 
L 216.721219 202.967645 
L 216.721219 202.676876 
L 216.902523 202.676876 
L 216.902523 202.386107 
L 217.39751 202.386107 
L 217.39751 202.095338 
L 217.767044 202.095338 
L 217.797129 201.5138 
L 217.934546 201.5138 
L 217.978434 200.641493 
L 219.075686 200.641493 
L 219.075686 200.350724 
L 219.191219 200.350724 
L 219.191219 199.769186 
L 219.307305 199.769186 
L 219.307305 199.478417 
L 219.820167 199.478417 
L 219.820167 199.187648 
L 220.015765 199.187648 
L 220.015765 198.896879 
L 220.864909 198.896879 
L 220.928574 198.024572 
L 221.061986 198.024572 
L 221.076869 197.443034 
L 221.654766 197.443034 
L 221.654766 197.152265 
L 222.137896 197.152265 
L 222.137896 196.861496 
L 222.423212 196.861496 
L 222.423212 196.570727 
L 222.813974 196.570727 
L 222.813974 196.279958 
L 223.555281 196.279958 
L 223.583104 195.69842 
L 224.390041 195.69842 
L 224.390041 195.407651 
L 224.631508 195.407651 
L 224.730099 194.244575 
L 224.793048 194.244575 
L 224.793048 193.953806 
L 224.935508 193.953806 
L 224.961717 193.081499 
L 225.274031 193.081499 
L 225.374829 191.918423 
L 225.627326 191.918423 
L 225.670178 191.336885 
L 225.868958 191.336885 
L 225.868958 191.046116 
L 226.018828 191.046116 
L 226.018828 190.755347 
L 226.262087 190.755347 
L 226.262087 190.464578 
L 226.383939 190.464578 
L 226.383939 190.173809 
L 226.569634 190.173809 
L 226.569634 189.88304 
L 226.877655 189.88304 
L 226.956176 188.719964 
L 227.112602 188.719964 
L 227.175691 188.138427 
L 227.264197 188.138427 
L 227.264197 187.847658 
L 227.51972 187.847658 
L 227.558621 187.26612 
L 227.812537 187.26612 
L 227.863501 186.684582 
L 228.117836 186.684582 
L 228.117836 186.393813 
L 228.251601 186.393813 
L 228.251601 186.103044 
L 228.46116 186.103044 
L 228.46116 185.812275 
L 228.692779 185.812275 
L 228.715222 184.649199 
L 228.821032 184.649199 
L 228.821032 184.35843 
L 229.118781 184.35843 
L 229.174947 183.776892 
L 229.291534 183.776892 
L 229.40124 182.904585 
L 229.449216 182.904585 
L 229.449216 182.613816 
L 229.665092 182.613816 
L 229.665092 182.323047 
L 229.856015 182.323047 
L 229.856015 182.032278 
L 230.012125 182.032278 
L 230.012125 181.741509 
L 230.131063 181.741509 
L 230.157473 181.159971 
L 230.375798 181.159971 
L 230.375798 180.869202 
L 230.71432 180.869202 
L 230.71432 180.578433 
L 230.926045 180.578433 
L 230.942446 179.996895 
L 231.156327 179.996895 
L 231.206974 179.415357 
L 231.538187 179.415357 
L 231.538187 179.124588 
L 231.693153 179.124588 
L 231.702376 178.54305 
L 231.826978 178.54305 
L 231.924772 177.961512 
L 232.082307 177.961512 
L 232.192222 177.379974 
L 232.263611 177.379974 
L 232.278887 176.798436 
L 232.412351 176.798436 
L 232.412351 176.507667 
L 232.599022 176.507667 
L 232.633232 175.926129 
L 232.960009 175.926129 
L 233.063241 175.053822 
L 233.249333 175.053822 
L 233.249333 174.763053 
L 233.545729 174.763053 
L 233.656133 174.181515 
L 234.155511 174.181515 
L 234.20545 173.018439 
L 234.290526 173.018439 
L 234.290526 172.72767 
L 234.437069 172.72767 
L 234.543973 172.146132 
L 234.731824 172.146132 
L 234.775592 171.564595 
L 235.026803 171.564595 
L 235.026803 171.273826 
L 235.145529 171.273826 
L 235.245587 170.401519 
L 235.484052 170.401519 
L 235.532028 169.529212 
L 235.612574 169.529212 
L 235.612574 169.238443 
L 235.756141 169.238443 
L 235.854992 168.366136 
L 235.968148 168.366136 
L 236.036296 167.493829 
L 236.084235 167.493829 
L 236.084235 167.20306 
L 236.325673 167.20306 
L 236.423074 166.621522 
L 236.472107 166.621522 
L 236.481326 166.039984 
L 236.592227 166.039984 
L 236.592227 165.749215 
L 236.773531 165.749215 
L 236.789662 165.167677 
L 236.978197 165.167677 
L 237.02128 164.586139 
L 237.304589 164.586139 
L 237.410515 164.004601 
L 237.48139 164.004601 
L 237.48139 163.713832 
L 237.729741 163.713832 
L 237.729741 163.423063 
L 237.881528 163.423063 
L 237.985163 162.259987 
L 238.096407 162.259987 
L 238.096407 161.969218 
L 238.216782 161.969218 
L 238.314638 161.096911 
L 238.486425 161.096911 
L 238.561476 160.515373 
L 238.793095 160.515373 
L 238.793095 160.224604 
L 238.925242 160.224604 
L 238.967096 159.352297 
L 239.10119 159.352297 
L 239.10119 159.061528 
L 239.335233 159.061528 
L 239.335233 158.770759 
L 239.449583 158.770759 
L 239.516538 157.607683 
L 239.614728 157.607683 
L 239.618633 157.026145 
L 239.944938 157.026145 
L 239.944938 156.735376 
L 240.154135 156.735376 
L 240.212388 155.5723 
L 240.392344 155.5723 
L 240.392344 155.281532 
L 240.573649 155.281532 
L 240.684049 154.699994 
L 240.932993 154.699994 
L 240.972317 154.118456 
L 241.1947 154.118456 
L 241.253581 153.246149 
L 241.440197 153.246149 
L 241.440197 152.95538 
L 241.738647 152.95538 
L 241.738647 152.664611 
L 241.918963 152.664611 
L 241.949493 152.083073 
L 242.536778 152.083073 
L 242.536778 151.792304 
L 242.755585 151.792304 
L 242.828332 150.338459 
L 242.936889 150.338459 
L 242.936889 150.04769 
L 243.214874 150.04769 
L 243.214874 149.756921 
L 243.444381 149.756921 
L 243.52556 148.884614 
L 243.638179 148.884614 
L 243.676 147.721538 
L 243.926821 147.721538 
L 243.926821 147.430769 
L 244.38446 147.430769 
L 244.444445 146.558462 
L 244.664055 146.558462 
L 244.733111 145.976924 
L 244.80197 145.976924 
L 244.80197 145.686155 
L 245.033589 145.686155 
L 245.033589 145.395386 
L 245.469709 145.395386 
L 245.492151 144.813848 
L 245.607257 144.813848 
L 245.607257 144.523079 
L 245.742049 144.523079 
L 245.742049 144.23231 
L 245.915279 144.23231 
L 245.915279 143.941541 
L 246.139548 143.941541 
L 246.244201 141.906158 
L 246.309464 141.906158 
L 246.368104 141.033851 
L 246.425505 141.033851 
L 246.425505 140.743082 
L 246.608178 140.743082 
L 246.608178 140.452313 
L 246.907993 140.452313 
L 246.956742 139.580006 
L 247.046698 139.580006 
L 247.096352 138.7077 
L 247.295265 138.7077 
L 247.295265 138.416931 
L 247.407062 138.416931 
L 247.407062 138.126162 
L 247.727761 138.126162 
L 247.727761 137.835393 
L 248.28332 137.835393 
L 248.297123 137.253855 
L 248.437175 137.253855 
L 248.464173 136.672317 
L 248.632843 136.672317 
L 248.726762 135.509241 
L 248.838663 135.509241 
L 248.838663 135.218472 
L 249.21488 135.218472 
L 249.264836 134.636934 
L 249.42029 134.636934 
L 249.42029 134.346165 
L 249.540953 134.346165 
L 249.540953 134.055396 
L 249.758813 134.055396 
L 249.789705 133.473858 
L 250.002071 133.473858 
L 250.069523 132.89232 
L 250.202324 132.89232 
L 250.29079 132.310782 
L 250.584968 132.310782 
L 250.639055 131.438475 
L 250.736455 131.438475 
L 250.846816 129.693861 
L 251.067455 129.693861 
L 251.067455 129.112323 
L 251.213999 129.112323 
L 251.312768 128.530785 
L 251.552521 128.530785 
L 251.552521 128.240016 
L 251.714965 128.240016 
L 251.714965 127.949247 
L 251.976632 127.949247 
L 252.022517 127.07694 
L 252.540577 127.07694 
L 252.540577 126.786171 
L 252.745078 126.786171 
L 252.771603 125.913864 
L 253.168679 125.913864 
L 253.210057 124.750788 
L 253.301516 124.750788 
L 253.301516 124.460019 
L 253.776316 124.460019 
L 253.871048 123.296943 
L 253.95987 123.296943 
L 253.95987 123.006174 
L 254.31603 123.006174 
L 254.31603 122.715405 
L 254.883295 122.715405 
L 254.993712 121.843099 
L 255.273602 121.843099 
L 255.290094 120.970792 
L 255.570025 120.970792 
L 255.570025 120.680023 
L 255.753579 120.680023 
L 255.83461 119.807716 
L 256.04002 119.807716 
L 256.04002 119.516947 
L 256.152335 119.516947 
L 256.195673 118.64464 
L 256.367844 118.64464 
L 256.383345 118.063102 
L 256.544288 118.063102 
L 256.544288 117.772333 
L 256.698672 117.772333 
L 256.721867 116.609257 
L 256.844659 116.609257 
L 256.90454 116.027719 
L 257.140391 116.027719 
L 257.140391 115.73695 
L 257.281522 115.73695 
L 257.281522 115.446181 
L 257.548022 115.446181 
L 257.553262 114.573874 
L 257.709923 114.573874 
L 257.709923 114.283105 
L 258.03051 114.283105 
L 258.03051 113.701567 
L 258.217126 113.701567 
L 258.217126 113.410798 
L 258.398024 113.410798 
L 258.398024 113.120029 
L 258.659221 113.120029 
L 258.659221 112.82926 
L 258.967556 112.82926 
L 258.985571 112.247722 
L 259.593526 112.247722 
L 259.654045 111.375415 
L 259.904891 111.375415 
L 259.908997 110.793877 
L 260.01681 110.793877 
L 260.086195 109.92157 
L 260.163058 109.92157 
L 260.169839 109.049263 
L 260.315796 109.049263 
L 260.315796 108.758494 
L 260.442838 108.758494 
L 260.452929 107.595418 
L 260.739371 107.595418 
L 260.739371 107.304649 
L 260.919045 107.304649 
L 260.919045 107.01388 
L 261.08164 107.01388 
L 261.177457 106.141573 
L 261.325845 106.141573 
L 261.325845 105.850804 
L 261.497868 105.850804 
L 261.497868 105.560036 
L 261.810518 105.560036 
L 261.865955 104.687729 
L 261.943874 104.687729 
L 262.026306 104.106191 
L 262.20761 104.106191 
L 262.20761 103.815422 
L 262.558952 103.815422 
L 262.558952 103.524653 
L 262.743168 103.524653 
L 262.824447 102.652346 
L 263.034488 102.652346 
L 263.034488 102.361577 
L 263.444881 102.361577 
L 263.444881 102.070808 
L 263.684922 102.070808 
L 263.710443 101.198501 
L 264.018465 101.198501 
L 264.08208 100.616963 
L 264.245658 100.616963 
L 264.245658 100.326194 
L 264.575967 100.326194 
L 264.575967 100.035425 
L 265.052743 100.035425 
L 265.052743 99.744656 
L 265.277582 99.744656 
L 265.36424 98.872349 
L 265.622275 98.872349 
L 265.622275 98.58158 
L 265.853894 98.58158 
L 265.853894 98.290811 
L 266.000142 98.290811 
L 266.000142 98.000042 
L 266.197219 98.000042 
L 266.306284 96.836966 
L 266.351866 96.836966 
L 266.410332 95.964659 
L 266.535742 95.964659 
L 266.535742 95.383121 
L 266.659887 95.383121 
L 266.693423 94.801583 
L 266.933497 94.801583 
L 266.979864 93.929276 
L 267.052008 93.929276 
L 267.052008 93.638507 
L 267.233312 93.638507 
L 267.307689 92.7662 
L 267.523797 92.7662 
L 267.523797 92.184662 
L 267.769333 92.184662 
L 267.870475 91.603124 
L 267.97672 91.603124 
L 268.062056 91.021586 
L 268.243361 91.021586 
L 268.348653 90.440048 
L 268.78143 90.440048 
L 268.818539 89.276972 
L 268.938342 89.276972 
L 268.938342 88.986204 
L 269.085887 88.986204 
L 269.085887 88.695435 
L 269.522007 88.695435 
L 269.625601 87.823128 
L 269.772828 87.823128 
L 269.772828 87.532359 
L 269.976932 87.532359 
L 269.976932 86.369283 
L 270.098134 86.369283 
L 270.108089 85.787745 
L 270.266804 85.787745 
L 270.359362 85.206207 
L 270.510062 85.206207 
L 270.553245 84.3339 
L 270.736799 84.3339 
L 270.736799 84.043131 
L 271.392774 84.043131 
L 271.392774 83.752362 
L 271.828894 83.752362 
L 271.828894 83.461593 
L 272.034304 83.461593 
L 272.094388 82.880055 
L 272.372827 82.880055 
L 272.480777 82.007748 
L 272.886005 82.007748 
L 272.886005 81.716979 
L 273.253069 81.716979 
L 273.360882 80.844672 
L 273.610594 80.844672 
L 273.610594 80.553903 
L 274.31018 80.553903 
L 274.399541 79.972365 
L 274.618515 79.972365 
L 274.618515 79.681596 
L 275.123836 79.681596 
L 275.123836 79.390827 
L 275.249246 79.390827 
L 275.249246 79.100058 
L 275.43615 79.100058 
L 275.43615 78.227751 
L 275.814017 78.227751 
L 275.814017 77.646213 
L 276.133885 77.646213 
L 276.133885 77.355444 
L 276.39033 77.355444 
L 276.39033 77.064675 
L 276.579424 77.064675 
L 276.673421 76.483137 
L 276.793739 76.483137 
L 276.793739 75.901599 
L 277.359385 75.901599 
L 277.359385 75.61083 
L 277.506479 75.61083 
L 277.506479 75.320061 
L 277.846093 75.320061 
L 277.846093 75.029292 
L 278.516528 75.029292 
L 278.538501 74.447754 
L 278.737862 74.447754 
L 278.737862 74.156985 
L 279.385267 74.156985 
L 279.404439 73.575447 
L 279.758384 73.575447 
L 279.758384 72.412372 
L 279.969141 72.412372 
L 279.969141 72.121603 
L 280.162037 72.121603 
L 280.162037 71.830834 
L 280.461852 71.830834 
L 280.524801 70.958527 
L 280.594187 70.958527 
L 280.594187 70.667758 
L 281.141545 70.667758 
L 281.141545 70.376989 
L 281.273235 70.376989 
L 281.273235 70.08622 
L 281.471901 70.08622 
L 281.471901 69.795451 
L 282.054511 69.795451 
L 282.054511 69.504682 
L 282.168899 69.504682 
L 282.168899 69.213913 
L 282.610564 69.213913 
L 282.717612 68.050837 
L 284.192914 68.050837 
L 284.192914 67.760068 
L 284.469228 67.760068 
L 284.499759 67.17853 
L 285.827196 67.17853 
L 285.827196 66.887761 
L 286.564431 66.887761 
L 286.564431 66.596992 
L 287.519269 66.596992 
L 287.519269 66.015454 
L 287.741303 66.015454 
L 287.741303 65.724685 
L 287.923976 65.724685 
L 287.923976 65.433916 
L 288.70196 65.433916 
L 288.751352 64.852378 
L 289.307437 64.852378 
L 289.307437 64.561609 
L 290.364548 64.561609 
L 290.364548 64.27084 
L 291.155968 64.27084 
L 291.155968 63.980071 
L 291.835962 63.980071 
L 291.835962 63.398533 
L 292.398552 63.398533 
L 292.398552 63.107764 
L 292.60238 63.107764 
L 292.60238 62.816995 
L 292.727789 62.816995 
L 292.727789 62.526226 
L 293.668265 62.526226 
L 293.668265 62.235457 
L 293.822727 62.235457 
L 293.822727 61.944688 
L 294.006788 61.944688 
L 294.006788 61.653919 
L 294.519966 61.653919 
L 294.519966 61.36315 
L 294.994843 61.36315 
L 294.994843 61.072381 
L 295.944141 61.072381 
L 295.944141 60.781612 
L 296.216405 60.781612 
L 296.252477 60.200074 
L 297.447979 60.200074 
L 297.447979 59.618536 
L 298.024291 59.618536 
L 298.024291 59.327767 
L 299.545668 59.327767 
L 299.596848 58.746229 
L 300.555717 58.746229 
L 300.555717 58.45546 
L 300.969843 58.45546 
L 300.969843 58.164691 
L 301.96575 58.164691 
L 301.979892 57.583153 
L 302.907196 57.583153 
L 302.907196 57.292384 
L 304.264785 57.292384 
L 304.264785 57.001615 
L 309.877095 57.001615 
L 309.877095 56.710846 
L 311.99851 56.710846 
L 311.99851 56.420077 
L 317.024212 56.420077 
L 317.024212 56.129308 
L 318.03426 56.129308 
L 318.03426 55.838539 
L 323.69181 55.838539 
L 323.69181 55.547771 
L 324.368365 55.547771 
L 324.368365 55.257002 
L 324.676387 55.257002 
L 324.676387 54.966233 
L 328.082158 54.966233 
L 328.082158 54.675464 
L 329.819264 54.675464 
L 329.819264 54.384695 
L 331.395331 54.384695 
L 331.395331 54.093926 
L 333.986013 54.093926 
L 333.986013 53.803157 
L 335.723118 53.803157 
L 335.723118 53.512388 
L 337.299185 53.512388 
L 337.299185 53.221619 
L 340.627063 53.221619 
L 340.627063 52.93085 
L 341.627095 52.93085 
L 341.627095 52.640081 
L 343.3642 52.640081 
L 343.3642 52.349312 
L 344.940267 52.349312 
L 344.940267 52.058543 
L 350.643469 52.058543 
L 350.643469 51.767774 
L 352.56694 51.767774 
L 352.56694 51.186236 
L 352.801077 51.186236 
L 352.801077 50.895467 
L 353.109099 50.895467 
L 353.109099 50.604698 
L 354.304045 50.604698 
L 354.304045 50.02316 
L 355.880112 50.02316 
L 355.880112 49.441622 
L 356.547323 49.441622 
L 356.547323 49.150853 
L 364.188405 49.150853 
L 364.188405 48.860084 
L 364.644518 48.860084 
L 364.644518 48.569315 
L 366.381623 48.569315 
L 366.381623 48.278546 
L 367.95769 48.278546 
L 367.95769 47.987777 
L 369.059775 47.987777 
L 369.059775 47.697008 
L 372.369529 47.697008 
L 372.369529 47.406239 
L 375.12825 47.406239 
L 375.12825 46.824701 
L 378.273384 46.824701 
L 378.273384 46.533932 
L 380.309678 46.533932 
L 380.309678 46.243163 
L 380.6177 46.243163 
L 380.6177 45.952394 
L 385.914466 45.952394 
L 385.914466 45.661625 
L 387.205829 45.661625 
L 387.205829 45.370856 
L 396.568376 45.370856 
L 396.568376 45.080087 
L 396.854311 45.080087 
L 396.854311 44.498549 
L 408.931889 44.498549 
L 408.931889 44.20778 
L 453.192 44.20778 
L 453.192 44.20778 
" clip-path="url(#p399db32a0f)" style="fill: none; stroke: #000000; stroke-width: 3; stroke-linecap: square"/>
   </g>
   <g id="line2d_18">
    <path clip-path="url(#p399db32a0f)" style="fill: none; stroke: #000000; stroke-width: 3; stroke-linecap: square"/>
   </g>
   <g id="line2d_19">
    <path d="M 34.16 255.9779 
L 120.212132 255.9779 
L 120.212132 255.539038 
L 120.354267 255.539038 
L 120.445648 254.661313 
L 126.852628 254.661313 
L 126.852628 254.22245 
L 126.994762 254.22245 
L 127.086144 253.344725 
L 138.054957 253.344725 
L 138.054957 252.905863 
L 144.695452 252.905863 
L 144.695452 252.467 
L 148.295528 252.467 
L 148.295528 252.028138 
L 154.357137 252.028138 
L 154.357137 251.589275 
L 154.590862 251.589275 
L 154.590862 251.150413 
L 154.936024 251.150413 
L 154.936024 250.71155 
L 156.242753 250.71155 
L 156.286697 249.833825 
L 160.997632 249.833825 
L 160.997632 249.394963 
L 161.231358 249.394963 
L 161.231358 248.9561 
L 162.883249 248.9561 
L 162.927192 248.078375 
L 169.525404 248.078375 
L 169.539753 247.20065 
L 170.412663 247.20065 
L 170.412663 246.761788 
L 171.123861 246.761788 
L 171.123861 246.322925 
L 171.481492 246.322925 
L 171.535985 245.4452 
L 171.705436 245.4452 
L 171.705436 245.006338 
L 172.424985 245.006338 
L 172.424985 244.567475 
L 173.646496 244.567475 
L 173.646496 244.128613 
L 174.51224 244.128613 
L 174.51224 243.68975 
L 174.654375 243.68975 
L 174.745756 242.812025 
L 175.726583 242.812025 
L 175.726583 242.373163 
L 176.957224 242.373163 
L 177.053159 241.056575 
L 178.555681 241.056575 
L 178.555681 240.617713 
L 178.913312 240.617713 
L 178.967805 239.739988 
L 179.137256 239.739988 
L 179.137256 239.301125 
L 179.856805 239.301125 
L 179.856805 238.862263 
L 181.078316 238.862263 
L 181.078316 238.4234 
L 182.367078 238.4234 
L 182.367078 237.984538 
L 187.441758 237.984538 
L 187.441758 237.545675 
L 187.949351 237.545675 
L 187.949351 237.106813 
L 188.091485 237.106813 
L 188.182866 236.229088 
L 188.90292 236.229088 
L 188.90292 235.790225 
L 189.045054 235.790225 
L 189.136436 234.9125 
L 192.355065 234.9125 
L 192.355065 234.473638 
L 194.082253 234.473638 
L 194.082253 234.034775 
L 202.595636 234.034775 
L 202.595636 233.595913 
L 205.792175 233.595913 
L 205.792175 233.15705 
L 206.745744 233.15705 
L 206.745744 232.718188 
L 208.623161 232.718188 
L 208.657245 231.840463 
L 208.765296 231.840463 
L 208.856677 230.962738 
L 208.886216 230.962738 
L 208.89097 230.085013 
L 209.02835 230.085013 
L 209.119732 229.207288 
L 209.463213 229.207288 
L 209.463213 228.768425 
L 209.605347 228.768425 
L 209.696729 227.8907 
L 210.542861 227.8907 
L 210.586805 227.012975 
L 214.860179 227.012975 
L 214.860179 226.574113 
L 215.056035 226.574113 
L 215.056035 226.13525 
L 216.032747 226.13525 
L 216.032747 225.696388 
L 216.986316 225.696388 
L 216.986316 225.257525 
L 219.354586 225.257525 
L 219.354586 224.818663 
L 219.542653 224.818663 
L 219.542653 224.3798 
L 220.212636 224.3798 
L 220.212636 223.940938 
L 221.838214 223.940938 
L 221.838214 223.502075 
L 222.094355 223.502075 
L 222.107106 222.62435 
L 222.32808 222.62435 
L 222.32808 222.185488 
L 223.047924 222.185488 
L 223.047924 221.746625 
L 223.281649 221.746625 
L 223.314656 220.8689 
L 223.979972 220.8689 
L 224.023915 219.991175 
L 224.712771 219.991175 
L 224.712771 219.552313 
L 224.933541 219.552313 
L 224.977484 218.674588 
L 225.701103 218.674588 
L 225.800441 217.796863 
L 225.996296 217.796863 
L 226.086623 216.919138 
L 226.228757 216.919138 
L 226.320139 216.041413 
L 226.465986 216.041413 
L 226.465986 215.60255 
L 226.729041 215.60255 
L 226.786406 214.724825 
L 226.974472 214.724825 
L 226.974472 214.285963 
L 227.306037 214.285963 
L 227.306037 213.8471 
L 227.644456 213.8471 
L 227.644456 213.408238 
L 228.620448 213.408238 
L 228.699549 212.530513 
L 228.747602 212.530513 
L 228.747602 212.09165 
L 229.270034 212.09165 
L 229.328454 211.213925 
L 229.498295 211.213925 
L 229.52431 210.3362 
L 229.694151 210.3362 
L 229.694151 209.897338 
L 230.026691 209.897338 
L 230.102183 209.019613 
L 230.746475 209.019613 
L 230.778474 208.141888 
L 230.96887 208.141888 
L 230.97433 207.264163 
L 231.155446 207.264163 
L 231.155446 206.8253 
L 231.29758 206.8253 
L 231.388961 205.947575 
L 232.50003 205.947575 
L 232.514379 205.06985 
L 233.132923 205.06985 
L 233.132923 204.630988 
L 234.098487 204.630988 
L 234.098487 204.192125 
L 234.456118 204.192125 
L 234.510611 203.3144 
L 234.680062 203.3144 
L 234.696788 201.997813 
L 235.206727 201.997813 
L 235.206727 201.55895 
L 235.399611 201.55895 
L 235.399611 201.120088 
L 236.280896 201.120088 
L 236.280896 200.681225 
L 236.621122 200.681225 
L 236.706557 198.925775 
L 236.862471 198.925775 
L 236.969612 198.04805 
L 237.546609 198.04805 
L 237.58202 197.170325 
L 238.149881 197.170325 
L 238.149881 196.731463 
L 238.803531 196.731463 
L 238.887977 195.414875 
L 239.103451 195.414875 
L 239.103451 194.976013 
L 239.560709 194.976013 
L 239.639811 194.098288 
L 240.472085 194.098288 
L 240.472085 193.659425 
L 240.829716 193.659425 
L 240.884209 192.7817 
L 241.013539 192.7817 
L 241.05366 191.465113 
L 241.741865 191.465113 
L 241.773208 190.587388 
L 241.909131 190.587388 
L 242.002338 188.393075 
L 242.768165 188.393075 
L 242.768165 187.954213 
L 242.994719 187.954213 
L 243.090059 185.321038 
L 243.167824 185.321038 
L 243.264946 183.126725 
L 243.337665 183.126725 
L 243.337665 182.687863 
L 243.463801 182.687863 
L 243.541415 181.371275 
L 243.586446 181.371275 
L 243.683549 180.054688 
L 243.774931 180.054688 
L 243.882476 178.7381 
L 243.929447 178.7381 
L 243.99857 176.98265 
L 244.10642 176.98265 
L 244.20132 175.2272 
L 244.41737 175.2272 
L 244.41737 174.788338 
L 244.538742 174.788338 
L 244.617844 173.47175 
L 244.653782 173.47175 
L 244.740298 170.838575 
L 244.825968 170.838575 
L 244.916837 169.083125 
L 244.96078 169.083125 
L 245.031798 168.2054 
L 245.086291 168.2054 
L 245.188143 166.888813 
L 245.242636 166.888813 
L 245.255742 166.011088 
L 245.375714 166.011088 
L 245.437144 164.6945 
L 245.493834 164.6945 
L 245.537777 163.816775 
L 245.606985 163.816775 
L 245.606985 163.377913 
L 245.785428 163.377913 
L 245.785428 162.93905 
L 245.975291 162.93905 
L 246.047479 161.622463 
L 246.10908 161.622463 
L 246.197552 159.42815 
L 246.260599 159.42815 
L 246.367003 158.550425 
L 246.618231 158.550425 
L 246.672724 157.6727 
L 246.842174 157.6727 
L 246.887164 156.794975 
L 247.086552 156.794975 
L 247.196802 155.91725 
L 247.353146 155.91725 
L 247.353146 155.478388 
L 247.561723 155.478388 
L 247.561723 155.039525 
L 247.818847 155.039525 
L 247.833196 154.1618 
L 248.308062 154.1618 
L 248.308062 153.722938 
L 248.445359 153.722938 
L 248.445359 153.284075 
L 248.783234 153.284075 
L 248.783234 152.845213 
L 248.99827 152.845213 
L 248.99827 152.40635 
L 249.417304 152.40635 
L 249.417304 151.967488 
L 249.675002 151.967488 
L 249.774935 151.089763 
L 249.829428 151.089763 
L 249.844843 150.212038 
L 249.998879 150.212038 
L 249.998879 149.773175 
L 250.718428 149.773175 
L 250.718428 149.334313 
L 251.125022 149.334313 
L 251.125022 148.89545 
L 251.939939 148.89545 
L 251.939939 148.456588 
L 254.170019 148.456588 
L 254.170019 148.017725 
L 255.178976 148.017725 
L 255.178976 147.578863 
L 256.132545 147.578863 
L 256.132545 147.14 
L 258.823692 147.14 
L 258.823692 146.701137 
L 258.940126 146.701137 
L 259.019228 145.823412 
L 259.086747 145.823412 
L 259.086747 145.38455 
L 259.238842 145.38455 
L 259.238842 144.945687 
L 259.574104 144.945687 
L 259.663744 143.6291 
L 260.231627 143.6291 
L 260.231627 143.190237 
L 260.421861 143.190237 
L 260.465353 142.312512 
L 261.172561 142.312512 
L 261.172561 141.87365 
L 261.288548 141.87365 
L 261.384239 140.995925 
L 261.530192 140.995925 
L 261.584685 140.1182 
L 261.754136 140.1182 
L 261.821897 139.240475 
L 262.117244 139.240475 
L 262.161187 138.36275 
L 262.24049 138.36275 
L 262.298101 136.6073 
L 262.473684 136.6073 
L 262.473684 136.168437 
L 263.695195 136.168437 
L 263.695195 135.729575 
L 263.838946 135.729575 
L 263.882209 134.85185 
L 264.137612 134.85185 
L 264.23984 133.535262 
L 264.251071 133.535262 
L 264.294333 132.657537 
L 264.400667 132.657537 
L 264.463784 131.34095 
L 264.977663 131.34095 
L 264.977663 130.902087 
L 265.14007 130.902087 
L 265.183332 130.024362 
L 265.30045 130.024362 
L 265.30045 129.5855 
L 265.526406 129.5855 
L 265.534175 128.707775 
L 266.361581 128.707775 
L 266.404843 127.83005 
L 267.186067 127.83005 
L 267.23001 126.952325 
L 268.462393 126.952325 
L 268.462393 126.513462 
L 271.624811 126.513462 
L 271.624811 126.0746 
L 275.852786 126.0746 
L 275.852786 125.635737 
L 276.115841 125.635737 
L 276.115841 125.196875 
L 276.287154 125.196875 
L 276.287154 124.758012 
L 276.407214 124.758012 
L 276.407214 124.31915 
L 276.692838 124.31915 
L 276.692838 123.880287 
L 277.686419 123.880287 
L 277.686419 123.441425 
L 277.920145 123.441425 
L 277.920145 123.002562 
L 279.572036 123.002562 
L 279.615979 122.124837 
L 281.355977 122.124837 
L 281.355977 121.685975 
L 281.601073 121.685975 
L 281.601073 121.247112 
L 282.329212 121.247112 
L 282.329212 120.80825 
L 282.517279 120.80825 
L 282.517279 120.369387 
L 283.187262 120.369387 
L 283.187262 119.930525 
L 284.511621 119.930525 
L 284.511621 119.491662 
L 284.699688 119.491662 
L 284.699688 119.0528 
L 284.81284 119.0528 
L 284.81284 118.613937 
L 285.369671 118.613937 
L 285.369671 118.175075 
L 286.289282 118.175075 
L 286.289282 117.736212 
L 286.669896 117.736212 
L 286.669896 117.29735 
L 286.995249 117.29735 
L 286.995249 116.858487 
L 288.471691 116.858487 
L 288.471691 116.419625 
L 288.675729 116.419625 
L 288.70281 115.5419 
L 288.890876 115.5419 
L 288.890876 115.103037 
L 289.560859 115.103037 
L 289.560859 114.664175 
L 289.844324 114.664175 
L 289.844324 114.225312 
L 290.797894 114.225312 
L 290.858138 113.347587 
L 291.186438 113.347587 
L 291.186438 112.908725 
L 291.75557 112.908725 
L 291.817171 112.031 
L 291.943636 112.031 
L 292.005237 111.153275 
L 292.61362 111.153275 
L 292.67522 109.836687 
L 292.904892 109.836687 
L 292.904892 109.397825 
L 293.061237 109.397825 
L 293.092959 108.5201 
L 293.249303 108.5201 
L 293.316248 107.642375 
L 293.741946 107.642375 
L 293.762942 106.76465 
L 293.919286 106.76465 
L 294.016153 105.886925 
L 294.204219 105.886925 
L 294.300799 104.570337 
L 294.491325 104.570337 
L 294.491325 104.131475 
L 294.679391 104.131475 
L 294.679391 103.692612 
L 294.874203 103.692612 
L 294.874203 103.25375 
L 295.049326 103.25375 
L 295.049326 102.814887 
L 295.349374 102.814887 
L 295.38852 101.937162 
L 295.544865 101.937162 
L 295.544865 101.4983 
L 295.715639 101.4983 
L 295.77724 100.620575 
L 296.499781 100.620575 
L 296.499781 100.181712 
L 296.864961 100.181712 
L 296.974953 99.303987 
L 297.021306 99.303987 
L 297.021306 98.865125 
L 297.648029 98.865125 
L 297.648029 98.426262 
L 297.836096 98.426262 
L 297.836096 97.9874 
L 297.976222 97.9874 
L 297.976222 97.548537 
L 298.102086 97.548537 
L 298.163687 96.670812 
L 298.385071 96.670812 
L 298.451394 95.793087 
L 298.506079 95.793087 
L 298.506079 95.354225 
L 299.055865 95.354225 
L 299.055865 94.915362 
L 299.251409 94.915362 
L 299.251409 94.4765 
L 299.407753 94.4765 
L 299.407753 94.037637 
L 300.131657 94.037637 
L 300.131657 93.598775 
L 300.36267 93.598775 
L 300.36267 93.159912 
L 300.837841 93.159912 
L 300.837841 92.72105 
L 301.608099 92.72105 
L 301.608099 92.282187 
L 303.988165 92.282187 
L 303.994546 91.404462 
L 306.170574 91.404462 
L 306.170574 90.9656 
L 309.403286 90.9656 
L 309.403286 90.526737 
L 309.591352 90.526737 
L 309.591352 90.087875 
L 310.261335 90.087875 
L 310.361763 89.21015 
L 310.518135 89.21015 
L 310.518135 88.771287 
L 310.77104 88.771287 
L 310.78119 87.893562 
L 311.358187 87.893562 
L 311.358187 87.4547 
L 311.886914 87.4547 
L 311.886914 87.015837 
L 312.069672 87.015837 
L 312.112934 86.138112 
L 312.257738 86.138112 
L 312.301 85.260387 
L 312.927721 85.260387 
L 312.970983 84.382662 
L 313.363355 84.382662 
L 313.414523 83.504937 
L 313.476124 83.504937 
L 313.476124 83.066075 
L 314.5533 83.066075 
L 314.596562 81.749487 
L 314.72019 81.749487 
L 314.72019 81.310625 
L 315.675106 81.310625 
L 315.749802 80.4329 
L 316.029741 80.4329 
L 316.122005 79.116312 
L 316.150277 79.116312 
L 316.150277 78.67745 
L 318.416188 78.67745 
L 318.45945 77.799725 
L 319.306982 77.799725 
L 319.306982 77.360862 
L 327.981597 77.360862 
L 327.981597 76.922 
L 329.559115 76.922 
L 329.559115 76.483137 
L 330.512684 76.483137 
L 330.512684 76.044275 
L 331.062239 76.044275 
L 331.062239 75.605412 
L 333.050419 75.605412 
L 333.050419 75.16655 
L 333.728625 75.16655 
L 333.771887 74.288825 
L 345.436389 74.288825 
L 345.436389 73.849962 
L 350.232926 73.849962 
L 350.232926 73.4111 
L 350.495981 73.4111 
L 350.495981 72.972237 
L 351.072978 72.972237 
L 351.072978 72.533375 
L 367.696388 72.533375 
L 367.696388 72.094512 
L 372.76521 72.094512 
L 372.76521 71.65565 
L 385.15118 71.65565 
L 385.15118 71.216787 
L 453.192 71.216787 
L 453.192 71.216787 
" clip-path="url(#p399db32a0f)" style="fill: none; stroke: #00bfbf; stroke-width: 3; stroke-linecap: square"/>
   </g>
   <g id="line2d_20">
    <path clip-path="url(#p399db32a0f)" style="fill: none; stroke: #00bfbf; stroke-width: 3; stroke-linecap: square"/>
   </g>
   <g id="line2d_21">
    <path d="M 34.16 227.075037 
L 129.045227 227.075037 
L 129.10534 226.123429 
L 129.33502 226.123429 
L 129.33502 225.647625 
L 132.348748 225.647625 
L 132.408861 224.696018 
L 132.638541 224.696018 
L 132.638541 224.220214 
L 146.501182 224.220214 
L 146.501182 223.74441 
L 149.804703 223.74441 
L 149.804703 223.268606 
L 150.537314 223.268606 
L 150.537314 222.792803 
L 153.840835 222.792803 
L 153.840835 222.316999 
L 162.606776 222.316999 
L 162.606776 221.841195 
L 163.284804 221.841195 
L 163.284804 221.365391 
L 164.194994 221.365391 
L 164.194994 220.889587 
L 164.654238 220.889587 
L 164.654238 220.413784 
L 165.910298 220.413784 
L 165.910298 219.93798 
L 166.588325 219.93798 
L 166.588325 219.462176 
L 167.498516 219.462176 
L 167.498516 218.986372 
L 167.95776 218.986372 
L 167.95776 218.510568 
L 176.310512 218.510568 
L 176.310512 218.034765 
L 179.560677 218.034765 
L 179.614033 217.083157 
L 182.864199 217.083157 
L 182.864199 216.607353 
L 183.511681 216.607353 
L 183.511681 216.131549 
L 186.815202 216.131549 
L 186.815202 215.655746 
L 188.647297 215.655746 
L 188.70741 214.704138 
L 188.937091 214.704138 
L 188.937091 214.228334 
L 189.413588 214.228334 
L 189.473701 213.276727 
L 189.703381 213.276727 
L 189.703381 212.800923 
L 206.103252 212.800923 
L 206.103252 212.325119 
L 206.869543 212.325119 
L 206.869543 211.849315 
L 208.95583 211.849315 
L 209.015943 210.897708 
L 209.245624 210.897708 
L 209.245624 210.421904 
L 209.382815 210.421904 
L 209.442928 209.470296 
L 209.672608 209.470296 
L 209.672608 208.994493 
L 210.084847 208.994493 
L 210.14496 207.567081 
L 210.374641 207.567081 
L 210.374641 207.091277 
L 210.502063 207.091277 
L 210.502063 206.615474 
L 210.682693 206.615474 
L 210.682693 206.13967 
L 210.820496 206.13967 
L 210.905675 205.188062 
L 211.322871 205.188062 
L 211.322871 204.712259 
L 211.76737 204.712259 
L 211.76737 204.236455 
L 211.948 204.236455 
L 211.948 203.760651 
L 212.085803 203.760651 
L 212.085803 203.284847 
L 214.355554 203.284847 
L 214.415667 202.33324 
L 214.626392 202.33324 
L 214.645347 201.381632 
L 222.208847 201.381632 
L 222.208847 200.905828 
L 222.886874 200.905828 
L 222.975138 199.954221 
L 223.653165 199.954221 
L 223.653165 199.478417 
L 223.797065 199.478417 
L 223.797065 199.002613 
L 224.256309 199.002613 
L 224.256309 198.526809 
L 224.563355 198.526809 
L 224.563355 198.051005 
L 225.022599 198.051005 
L 225.022599 197.575202 
L 226.162184 197.575202 
L 226.222297 196.623594 
L 226.411785 196.623594 
L 226.472944 195.196183 
L 226.731532 195.196183 
L 226.83877 194.244575 
L 227.006936 194.244575 
L 227.006936 193.768771 
L 227.130341 193.768771 
L 227.130341 193.292968 
L 227.395925 193.292968 
L 227.395925 192.817164 
L 227.540802 192.817164 
L 227.593423 191.389752 
L 227.714358 191.389752 
L 227.774054 190.438145 
L 227.911857 190.438145 
L 227.911857 189.962341 
L 228.272243 189.962341 
L 228.272243 189.486537 
L 228.395648 189.486537 
L 228.395648 189.010733 
L 229.76016 189.010733 
L 229.76016 188.53493 
L 230.018748 188.53493 
L 230.1018 187.583322 
L 230.360389 187.583322 
L 230.447917 186.631715 
L 230.874902 186.631715 
L 230.935029 185.204303 
L 230.995142 185.204303 
L 230.995142 184.728499 
L 231.17163 184.728499 
L 231.224822 183.776892 
L 231.576934 183.776892 
L 231.576934 183.301088 
L 231.811509 183.301088 
L 231.811509 182.825284 
L 235.847641 182.825284 
L 235.912583 181.873677 
L 236.678873 181.873677 
L 236.678873 181.397873 
L 239.162748 181.397873 
L 239.162748 180.922069 
L 239.837218 180.922069 
L 239.929038 179.970461 
L 240.583908 179.970461 
L 240.583908 179.494658 
L 240.961216 179.494658 
L 240.961216 179.018854 
L 241.888698 179.018854 
L 241.888698 178.54305 
L 242.001551 178.54305 
L 242.001551 178.067246 
L 242.181203 178.067246 
L 242.181203 177.591443 
L 242.500508 177.591443 
L 242.552694 176.164031 
L 242.681139 176.164031 
L 242.681139 175.688227 
L 242.818942 175.688227 
L 242.818942 175.212424 
L 242.944365 175.212424 
L 242.944365 174.73662 
L 243.113752 174.73662 
L 243.195945 172.833405 
L 243.266858 172.833405 
L 243.335072 171.881797 
L 243.44651 171.881797 
L 243.515703 170.454386 
L 243.618139 170.454386 
L 243.692301 167.599563 
L 243.818001 167.599563 
L 243.921982 165.220544 
L 244.024203 165.220544 
L 244.105598 163.317329 
L 244.212764 163.317329 
L 244.277315 160.93831 
L 244.324424 160.93831 
L 244.40843 159.986702 
L 244.461252 159.986702 
L 244.564842 158.083487 
L 244.590072 158.083487 
L 244.590072 157.607683 
L 244.733838 157.607683 
L 244.733838 157.13188 
L 244.871641 157.13188 
L 244.871641 156.656076 
L 244.991826 156.656076 
L 245.024005 155.704468 
L 245.175913 155.704468 
L 245.234615 154.752861 
L 245.401313 154.752861 
L 245.460552 153.801253 
L 245.517554 153.801253 
L 245.517554 153.325449 
L 245.693859 153.325449 
L 245.71914 152.373842 
L 246.136168 152.373842 
L 246.136168 151.898038 
L 246.328795 151.898038 
L 246.328795 151.422234 
L 247.654271 151.422234 
L 247.654271 150.94643 
L 247.917103 150.94643 
L 247.917103 150.470627 
L 248.390984 150.470627 
L 248.390984 149.994823 
L 248.595131 149.994823 
L 248.595131 149.519019 
L 249.423383 149.519019 
L 249.505321 148.567411 
L 249.765024 148.567411 
L 249.765024 148.091608 
L 249.964565 148.091608 
L 249.964565 147.615804 
L 250.576265 147.615804 
L 250.576265 147.14 
L 252.427116 147.14 
L 252.427116 146.664196 
L 256.221115 146.664196 
L 256.221115 146.188392 
L 256.6481 146.188392 
L 256.6481 145.712589 
L 257.350133 145.712589 
L 257.350133 145.236785 
L 258.760563 145.236785 
L 258.824825 144.285177 
L 258.895413 144.285177 
L 259.005382 143.33357 
L 259.075065 143.33357 
L 259.128787 141.906158 
L 259.272564 141.906158 
L 259.272564 141.430355 
L 259.446556 141.430355 
L 259.471281 140.478747 
L 259.571515 140.478747 
L 259.644055 139.527139 
L 259.723733 139.527139 
L 259.723733 139.051336 
L 259.839945 139.051336 
L 259.948824 137.623924 
L 259.96335 137.623924 
L 259.96335 137.14812 
L 260.089807 137.14812 
L 260.089807 136.672317 
L 260.287306 136.672317 
L 260.287306 136.196513 
L 260.401761 136.196513 
L 260.401761 135.720709 
L 260.59487 135.720709 
L 260.600298 134.769101 
L 260.718275 134.769101 
L 260.718275 134.293298 
L 260.876306 134.293298 
L 260.876306 133.817494 
L 261.058081 133.817494 
L 261.088144 132.865886 
L 261.181486 132.865886 
L 261.181486 132.390083 
L 261.311951 132.390083 
L 261.311951 131.914279 
L 261.620839 131.914279 
L 261.620839 131.438475 
L 261.771195 131.438475 
L 261.771195 130.962671 
L 262.064085 130.962671 
L 262.064085 130.486867 
L 263.422284 130.486867 
L 263.422284 130.011064 
L 263.849269 130.011064 
L 263.849269 129.53526 
L 264.496578 129.53526 
L 264.551301 128.583652 
L 264.871004 128.583652 
L 264.871004 128.107848 
L 265.123776 128.107848 
L 265.174606 126.680437 
L 266.084796 126.680437 
L 266.084796 126.204633 
L 266.54404 126.204633 
L 266.54404 125.728829 
L 268.822008 125.728829 
L 268.822008 125.253026 
L 270.924942 125.253026 
L 270.924942 124.777222 
L 271.691232 124.777222 
L 271.691232 124.301418 
L 273.427469 124.301418 
L 273.427469 123.825614 
L 273.999997 123.825614 
L 273.999997 123.349811 
L 274.179649 123.349811 
L 274.179649 122.874007 
L 274.55114 122.874007 
L 274.55114 122.398203 
L 274.83456 122.398203 
L 274.83456 121.922399 
L 275.014212 121.922399 
L 275.014212 121.446595 
L 275.194391 121.446595 
L 275.194391 120.970792 
L 275.385703 120.970792 
L 275.385703 120.494988 
L 275.589485 120.494988 
L 275.589485 120.019184 
L 275.769137 120.019184 
L 275.769137 119.54338 
L 276.028954 119.54338 
L 276.052695 118.591773 
L 276.140628 118.591773 
L 276.232347 117.640165 
L 276.603839 117.640165 
L 276.677634 116.688557 
L 276.783879 116.688557 
L 276.783879 116.212754 
L 277.193738 116.212754 
L 277.24709 115.261146 
L 277.871766 115.261146 
L 277.871766 114.785342 
L 278.200314 114.785342 
L 278.200314 114.309539 
L 278.781956 114.309539 
L 278.781956 113.833735 
L 279.2412 113.833735 
L 279.2412 113.357931 
L 280.628638 113.357931 
L 280.628638 112.882127 
L 281.450479 112.882127 
L 281.450479 112.406323 
L 285.401483 112.406323 
L 285.401483 111.93052 
L 290.897474 111.93052 
L 290.897474 111.454716 
L 291.233474 111.454716 
L 291.233474 110.978912 
L 291.660459 110.978912 
L 291.660459 110.503108 
L 292.362491 110.503108 
L 292.362491 110.027304 
L 294.147639 110.027304 
L 294.147639 109.551501 
L 296.633198 109.551501 
L 296.633198 109.075697 
L 298.098643 109.075697 
L 298.098643 108.599893 
L 308.439828 108.599893 
L 308.439828 108.124089 
L 313.212673 108.124089 
L 313.212673 107.648285 
L 318.362634 107.648285 
L 318.362634 107.172482 
L 319.128925 107.172482 
L 319.128925 106.696678 
L 325.909833 106.696678 
L 325.909833 106.220874 
L 338.671167 106.220874 
L 338.671167 105.74507 
L 339.098152 105.74507 
L 339.098152 105.269267 
L 339.800184 105.269267 
L 339.800184 104.793463 
L 344.07089 104.793463 
L 344.07089 104.317659 
L 355.87752 104.317659 
L 355.87752 103.841855 
L 360.650365 103.841855 
L 360.650365 103.366051 
L 373.347525 103.366051 
L 373.347525 102.890248 
L 453.192 102.890248 
L 453.192 102.890248 
" clip-path="url(#p399db32a0f)" style="fill: none; stroke: #bf00bf; stroke-width: 3; stroke-linecap: square"/>
   </g>
   <g id="line2d_22">
    <path clip-path="url(#p399db32a0f)" style="fill: none; stroke: #bf00bf; stroke-width: 3; stroke-linecap: square"/>
   </g>
   <g id="line2d_23">
    <path d="M 34.16 227.075037 
L 132.573646 227.075037 
L 132.573646 226.599233 
L 132.79031 226.599233 
L 132.874161 225.647625 
L 134.26266 225.647625 
L 134.26266 225.171821 
L 134.479323 225.171821 
L 134.563175 224.220214 
L 150.141135 224.220214 
L 150.141135 223.74441 
L 151.830149 223.74441 
L 151.830149 223.268606 
L 154.150686 223.268606 
L 154.150686 222.792803 
L 155.8397 222.792803 
L 155.8397 222.316999 
L 165.778974 222.316999 
L 165.778974 221.841195 
L 166.109464 221.841195 
L 166.109464 221.365391 
L 166.481128 221.365391 
L 166.481128 220.889587 
L 167.467988 220.889587 
L 167.467988 220.413784 
L 167.745899 220.413784 
L 167.798478 219.462176 
L 167.974789 219.462176 
L 167.974789 218.986372 
L 168.170142 218.986372 
L 168.170142 218.510568 
L 169.434913 218.510568 
L 169.434913 218.034765 
L 169.663802 218.034765 
L 169.663802 217.558961 
L 181.924927 217.558961 
L 181.924927 217.083157 
L 183.613941 217.083157 
L 183.613941 216.607353 
L 186.167136 216.607353 
L 186.167136 216.131549 
L 187.85615 216.131549 
L 187.85615 215.655746 
L 188.678192 215.655746 
L 188.678192 215.179942 
L 188.894855 215.179942 
L 188.978706 214.228334 
L 189.774107 214.228334 
L 189.774107 213.752531 
L 189.99077 213.752531 
L 190.074621 212.800923 
L 206.24568 212.800923 
L 206.24568 212.325119 
L 207.005132 212.325119 
L 207.005132 211.849315 
L 207.341595 211.849315 
L 207.341595 211.373512 
L 208.694146 211.373512 
L 208.694146 210.897708 
L 209.001521 210.897708 
L 209.001521 210.421904 
L 209.218184 210.421904 
L 209.302035 209.470296 
L 209.81809 209.470296 
L 209.81809 208.994493 
L 210.034753 208.994493 
L 210.118604 208.042885 
L 210.255232 208.042885 
L 210.255232 207.567081 
L 210.375225 207.567081 
L 210.375225 207.091277 
L 210.591888 207.091277 
L 210.675739 206.13967 
L 211.351147 206.13967 
L 211.351147 205.663866 
L 211.856116 205.663866 
L 211.856116 205.188062 
L 212.136231 205.188062 
L 212.136231 204.712259 
L 212.36733 204.712259 
L 212.36733 204.236455 
L 212.690028 204.236455 
L 212.690028 203.760651 
L 212.970144 203.760651 
L 212.970144 203.284847 
L 213.201243 203.284847 
L 213.201243 202.809043 
L 214.810976 202.809043 
L 214.810976 202.33324 
L 215.02764 202.33324 
L 215.111491 201.381632 
L 221.88352 201.381632 
L 221.88352 200.905828 
L 222.21401 200.905828 
L 222.21401 200.430024 
L 222.585674 200.430024 
L 222.585674 199.954221 
L 222.979435 199.954221 
L 222.979435 199.478417 
L 223.309925 199.478417 
L 223.309925 199.002613 
L 223.681589 199.002613 
L 223.681589 198.526809 
L 223.850444 198.526809 
L 223.850444 198.051005 
L 224.079334 198.051005 
L 224.079334 197.575202 
L 224.946359 197.575202 
L 224.946359 197.099398 
L 225.175249 197.099398 
L 225.175249 196.623594 
L 226.451929 196.623594 
L 226.451929 196.14779 
L 226.56901 196.14779 
L 226.668593 195.196183 
L 226.752444 195.196183 
L 226.752444 194.720379 
L 227.102596 194.720379 
L 227.102596 194.244575 
L 227.315916 194.244575 
L 227.385578 193.292968 
L 227.798467 193.292968 
L 227.798467 192.817164 
L 227.942713 192.817164 
L 227.96496 191.865556 
L 228.078583 191.865556 
L 228.160729 190.913949 
L 228.245076 190.913949 
L 228.309682 189.962341 
L 228.476175 189.962341 
L 228.527145 189.010733 
L 228.994641 189.010733 
L 228.994641 188.53493 
L 229.361058 188.53493 
L 229.361058 188.059126 
L 230.555256 188.059126 
L 230.578561 187.107518 
L 230.768577 187.107518 
L 230.768577 186.631715 
L 230.97392 186.631715 
L 230.97392 186.155911 
L 231.183064 186.155911 
L 231.18724 185.204303 
L 231.39513 185.204303 
L 231.466732 183.776892 
L 231.683395 183.776892 
L 231.767246 182.825284 
L 231.952264 182.825284 
L 231.952264 182.34948 
L 232.378465 182.34948 
L 232.378465 181.873677 
L 236.388016 181.873677 
L 236.388016 181.397873 
L 238.029473 181.397873 
L 238.029473 180.922069 
L 239.125388 180.922069 
L 239.125388 180.446265 
L 239.827941 180.446265 
L 239.827941 179.970461 
L 240.395532 179.970461 
L 240.395532 179.494658 
L 240.785032 179.494658 
L 240.785032 179.018854 
L 241.975869 179.018854 
L 241.975869 178.54305 
L 242.159746 178.54305 
L 242.206849 177.591443 
L 242.271681 177.591443 
L 242.271681 177.115639 
L 242.439862 177.115639 
L 242.537339 175.688227 
L 242.670961 175.688227 
L 242.774825 174.73662 
L 242.837488 174.73662 
L 242.909003 173.785012 
L 243.023418 173.785012 
L 243.128047 172.357601 
L 243.280602 172.357601 
L 243.369749 169.502778 
L 243.518007 169.502778 
L 243.612272 168.075367 
L 243.6714 168.075367 
L 243.73467 165.696348 
L 243.818521 165.696348 
L 243.911043 163.317329 
L 243.961959 163.317329 
L 244.034186 161.889917 
L 244.10308 161.889917 
L 244.173773 160.93831 
L 244.237693 160.93831 
L 244.314301 158.559291 
L 244.402663 158.559291 
L 244.476 157.13188 
L 244.5454 157.13188 
L 244.656356 155.228664 
L 244.8655 155.228664 
L 244.8655 154.752861 
L 244.990342 154.752861 
L 244.990342 154.277057 
L 245.219232 154.277057 
L 245.219232 153.801253 
L 245.428529 153.801253 
L 245.51666 152.849645 
L 245.547477 152.849645 
L 245.547477 152.373842 
L 245.72998 152.373842 
L 245.776367 151.422234 
L 245.847193 151.422234 
L 245.847193 150.94643 
L 246.018251 150.94643 
L 246.056337 149.994823 
L 248.016304 149.994823 
L 248.028969 149.043215 
L 248.346794 149.043215 
L 248.346794 148.567411 
L 248.718458 148.567411 
L 248.718458 148.091608 
L 249.03422 148.091608 
L 249.03422 147.615804 
L 249.470911 147.615804 
L 249.470911 147.14 
L 249.889575 147.14 
L 249.983229 146.188392 
L 250.098719 146.188392 
L 250.098719 145.712589 
L 250.212119 145.712589 
L 250.212119 145.236785 
L 253.043771 145.236785 
L 253.043771 144.760981 
L 257.589367 144.760981 
L 257.589367 144.285177 
L 258.242005 144.285177 
L 258.352802 143.33357 
L 258.464359 143.33357 
L 258.478189 142.381962 
L 258.644681 142.381962 
L 258.644681 141.906158 
L 258.77984 141.906158 
L 258.830776 140.478747 
L 258.946333 140.478747 
L 258.946333 140.002943 
L 259.070398 140.002943 
L 259.169371 138.575532 
L 259.199096 138.575532 
L 259.278381 137.14812 
L 259.445855 137.14812 
L 259.445855 136.672317 
L 259.636769 136.672317 
L 259.726505 134.769101 
L 259.838229 134.769101 
L 259.838229 134.293298 
L 259.987747 134.293298 
L 260.003186 133.34169 
L 260.338799 133.34169 
L 260.389933 131.914279 
L 260.705215 131.914279 
L 260.705215 131.438475 
L 261.085495 131.438475 
L 261.085495 130.962671 
L 261.624182 130.962671 
L 261.624182 130.486867 
L 261.853072 130.486867 
L 261.853072 130.011064 
L 262.595011 130.011064 
L 262.595011 129.53526 
L 263.109677 129.53526 
L 263.109677 129.059456 
L 263.411579 129.059456 
L 263.411579 128.583652 
L 263.968714 128.583652 
L 263.968714 128.107848 
L 264.162257 128.107848 
L 264.205592 127.156241 
L 264.432315 127.156241 
L 264.432315 126.680437 
L 264.672059 126.680437 
L 264.672059 126.204633 
L 265.00255 126.204633 
L 265.095047 125.253026 
L 265.374214 125.253026 
L 265.374214 124.777222 
L 266.638984 124.777222 
L 266.638984 124.301418 
L 266.867874 124.301418 
L 266.867874 123.825614 
L 268.404466 123.825614 
L 268.404466 123.349811 
L 272.839468 123.349811 
L 272.839468 122.874007 
L 273.141119 122.874007 
L 273.141119 122.398203 
L 273.431677 122.398203 
L 273.454547 121.446595 
L 273.756198 121.446595 
L 273.756198 120.970792 
L 274.011878 120.970792 
L 274.046756 119.54338 
L 274.313529 119.54338 
L 274.313529 119.067576 
L 274.604087 119.067576 
L 274.713907 117.640165 
L 275.015558 117.640165 
L 275.015558 117.164361 
L 275.205425 117.164361 
L 275.306117 116.212754 
L 275.80321 116.212754 
L 275.907454 115.261146 
L 276.723334 115.261146 
L 276.723334 114.785342 
L 277.053825 114.785342 
L 277.053825 114.309539 
L 277.425489 114.309539 
L 277.425489 113.833735 
L 278.690259 113.833735 
L 278.690259 113.357931 
L 278.919149 113.357931 
L 278.919149 112.882127 
L 280.045419 112.882127 
L 280.045419 112.406323 
L 280.818012 112.406323 
L 280.818012 111.93052 
L 283.433007 111.93052 
L 283.433007 111.454716 
L 284.249575 111.454716 
L 284.249575 110.978912 
L 284.80671 110.978912 
L 284.80671 110.503108 
L 285.060221 110.503108 
L 285.060221 110.027304 
L 289.242462 110.027304 
L 289.242462 109.551501 
L 292.869288 109.551501 
L 292.869288 109.075697 
L 297.111496 109.075697 
L 297.111496 108.599893 
L 300.883415 108.599893 
L 300.883415 108.124089 
L 305.898217 108.124089 
L 305.898217 107.648285 
L 313.693913 107.648285 
L 313.693913 107.172482 
L 314.789828 107.172482 
L 314.789828 106.696678 
L 317.949492 106.696678 
L 317.949492 106.220874 
L 334.017242 106.220874 
L 334.017242 105.74507 
L 334.833811 105.74507 
L 334.833811 105.269267 
L 335.390946 105.269267 
L 335.390946 104.793463 
L 339.826697 104.793463 
L 339.826697 104.317659 
L 351.46765 104.317659 
L 351.46765 103.841855 
L 356.482453 103.841855 
L 356.482453 103.366051 
L 368.533728 103.366051 
L 368.533728 102.890248 
L 453.192 102.890248 
L 453.192 102.890248 
" clip-path="url(#p399db32a0f)" style="fill: none; stroke: #ff0000; stroke-width: 3; stroke-linecap: square"/>
   </g>
   <g id="line2d_24">
    <path clip-path="url(#p399db32a0f)" style="fill: none; stroke: #ff0000; stroke-width: 3; stroke-linecap: square"/>
   </g>
   <g id="line2d_25">
    <path d="M 243.676 291.28 
L 243.676 3 
" clip-path="url(#p399db32a0f)" style="fill: none; stroke: #000000; stroke-width: 1.5; stroke-linecap: square"/>
   </g>
   <g id="line2d_26">
    <path d="M 34.16 147.14 
L 453.192 147.14 
" clip-path="url(#p399db32a0f)" style="fill: none; stroke-dasharray: 2,3.3; stroke-dashoffset: 0; stroke: #000000; stroke-width: 2"/>
   </g>
   <g id="patch_3">
    <path d="M 34.16 291.28 
L 34.16 3 
" style="fill: none; stroke: #000000; stroke-width: 0.8; stroke-linejoin: miter; stroke-linecap: square"/>
   </g>
   <g id="patch_4">
    <path d="M 453.192 291.28 
L 453.192 3 
" style="fill: none; stroke: #000000; stroke-width: 0.8; stroke-linejoin: miter; stroke-linecap: square"/>
   </g>
   <g id="patch_5">
    <path d="M 34.16 291.28 
L 453.192 291.28 
" style="fill: none; stroke: #000000; stroke-width: 0.8; stroke-linejoin: miter; stroke-linecap: square"/>
   </g>
   <g id="patch_6">
    <path d="M 34.16 3 
L 453.192 3 
" style="fill: none; stroke: #000000; stroke-width: 0.8; stroke-linejoin: miter; stroke-linecap: square"/>
   </g>
   <g id="text_6">
    <!-- f20-f24,10-D -->
    <g transform="translate(318.19261 285.5144) scale(0.2 -0.2)">
     <defs>
      <path id="DejaVuSans-34" d="M 2419 4116 
L 825 1625 
L 2419 1625 
L 2419 4116 
z
M 2253 4666 
L 3047 4666 
L 3047 1625 
L 3713 1625 
L 3713 1100 
L 3047 1100 
L 3047 0 
L 2419 0 
L 2419 1100 
L 313 1100 
L 313 1709 
L 2253 4666 
z
" transform="scale(0.015625)"/>
      <path id="DejaVuSans-2c" d="M 750 794 
L 1409 794 
L 1409 256 
L 897 -744 
L 494 -744 
L 750 256 
L 750 794 
z
" transform="scale(0.015625)"/>
      <path id="DejaVuSans-44" d="M 1259 4147 
L 1259 519 
L 2022 519 
Q 2988 519 3436 956 
Q 3884 1394 3884 2338 
Q 3884 3275 3436 3711 
Q 2988 4147 2022 4147 
L 1259 4147 
z
M 628 4666 
L 1925 4666 
Q 3281 4666 3915 4102 
Q 4550 3538 4550 2338 
Q 4550 1131 3912 565 
Q 3275 0 1925 0 
L 628 0 
L 628 4666 
z
" transform="scale(0.015625)"/>
     </defs>
     <use xlink:href="#DejaVuSans-66"/>
     <use xlink:href="#DejaVuSans-32" x="35.205078"/>
     <use xlink:href="#DejaVuSans-30" x="98.828125"/>
     <use xlink:href="#DejaVuSans-2d" x="162.451172"/>
     <use xlink:href="#DejaVuSans-66" x="198.535156"/>
     <use xlink:href="#DejaVuSans-32" x="233.740234"/>
     <use xlink:href="#DejaVuSans-34" x="297.363281"/>
     <use xlink:href="#DejaVuSans-2c" x="360.986328"/>
     <use xlink:href="#DejaVuSans-31" x="392.773438"/>
     <use xlink:href="#DejaVuSans-30" x="456.396484"/>
     <use xlink:href="#DejaVuSans-2d" x="520.019531"/>
     <use xlink:href="#DejaVuSans-44" x="556.103516"/>
    </g>
   </g>
   <g id="text_7">
    <!-- v2.6.3 -->
    <g style="fill: #808080" transform="translate(227.99475 286.317512) scale(0.1 -0.1)">
     <defs>
      <path id="DejaVuSans-2e" d="M 684 794 
L 1344 794 
L 1344 0 
L 684 0 
L 684 794 
z
" transform="scale(0.015625)"/>
      <path id="DejaVuSans-36" d="M 2113 2584 
Q 1688 2584 1439 2293 
Q 1191 2003 1191 1497 
Q 1191 994 1439 701 
Q 1688 409 2113 409 
Q 2538 409 2786 701 
Q 3034 994 3034 1497 
Q 3034 2003 2786 2293 
Q 2538 2584 2113 2584 
z
M 3366 4563 
L 3366 3988 
Q 3128 4100 2886 4159 
Q 2644 4219 2406 4219 
Q 1781 4219 1451 3797 
Q 1122 3375 1075 2522 
Q 1259 2794 1537 2939 
Q 1816 3084 2150 3084 
Q 2853 3084 3261 2657 
Q 3669 2231 3669 1497 
Q 3669 778 3244 343 
Q 2819 -91 2113 -91 
Q 1303 -91 875 529 
Q 447 1150 447 2328 
Q 447 3434 972 4092 
Q 1497 4750 2381 4750 
Q 2619 4750 2861 4703 
Q 3103 4656 3366 4563 
z
" transform="scale(0.015625)"/>
      <path id="DejaVuSans-33" d="M 2597 2516 
Q 3050 2419 3304 2112 
Q 3559 1806 3559 1356 
Q 3559 666 3084 287 
Q 2609 -91 1734 -91 
Q 1441 -91 1130 -33 
Q 819 25 488 141 
L 488 750 
Q 750 597 1062 519 
Q 1375 441 1716 441 
Q 2309 441 2620 675 
Q 2931 909 2931 1356 
Q 2931 1769 2642 2001 
Q 2353 2234 1838 2234 
L 1294 2234 
L 1294 2753 
L 1863 2753 
Q 2328 2753 2575 2939 
Q 2822 3125 2822 3475 
Q 2822 3834 2567 4026 
Q 2313 4219 1838 4219 
Q 1578 4219 1281 4162 
Q 984 4106 628 3988 
L 628 4550 
Q 988 4650 1302 4700 
Q 1616 4750 1894 4750 
Q 2613 4750 3031 4423 
Q 3450 4097 3450 3541 
Q 3450 3153 3228 2886 
Q 3006 2619 2597 2516 
z
" transform="scale(0.015625)"/>
     </defs>
     <use xlink:href="#DejaVuSans-76"/>
     <use xlink:href="#DejaVuSans-32" x="59.179688"/>
     <use xlink:href="#DejaVuSans-2e" x="122.802734"/>
     <use xlink:href="#DejaVuSans-36" x="154.589844"/>
     <use xlink:href="#DejaVuSans-2e" x="218.212891"/>
     <use xlink:href="#DejaVuSans-33" x="250"/>
    </g>
   </g>
   <g id="legend_1">
    <g id="patch_7">
     <path d="M 48.16 136.425 
L 177.381875 136.425 
Q 181.381875 136.425 181.381875 132.425 
L 181.381875 17 
Q 181.381875 13 177.381875 13 
L 48.16 13 
Q 44.16 13 44.16 17 
L 44.16 132.425 
Q 44.16 136.425 48.16 136.425 
z
" style="fill: #ffffff; opacity: 0.2; stroke: #cccccc; stroke-linejoin: miter"/>
    </g>
    <g id="line2d_27">
     <path d="M 52.16 29.196875 
L 72.16 29.196875 
L 92.16 29.196875 
" style="fill: none; stroke: #000000; stroke-width: 3; stroke-linecap: square"/>
    </g>
    <g id="text_8">
     <!-- 1: 5/5 -->
     <g transform="translate(108.16 36.196875) scale(0.2 -0.2)">
      <defs>
       <path id="DejaVuSans-3a" d="M 750 794 
L 1409 794 
L 1409 0 
L 750 0 
L 750 794 
z
M 750 3309 
L 1409 3309 
L 1409 2516 
L 750 2516 
L 750 3309 
z
" transform="scale(0.015625)"/>
       <path id="DejaVuSans-35" d="M 691 4666 
L 3169 4666 
L 3169 4134 
L 1269 4134 
L 1269 2991 
Q 1406 3038 1543 3061 
Q 1681 3084 1819 3084 
Q 2600 3084 3056 2656 
Q 3513 2228 3513 1497 
Q 3513 744 3044 326 
Q 2575 -91 1722 -91 
Q 1428 -91 1123 -41 
Q 819 9 494 109 
L 494 744 
Q 775 591 1075 516 
Q 1375 441 1709 441 
Q 2250 441 2565 725 
Q 2881 1009 2881 1497 
Q 2881 1984 2565 2268 
Q 2250 2553 1709 2553 
Q 1456 2553 1204 2497 
Q 953 2441 691 2322 
L 691 4666 
z
" transform="scale(0.015625)"/>
       <path id="DejaVuSans-2f" d="M 1625 4666 
L 2156 4666 
L 531 -594 
L 0 -594 
L 1625 4666 
z
" transform="scale(0.015625)"/>
      </defs>
      <use xlink:href="#DejaVuSans-31"/>
      <use xlink:href="#DejaVuSans-3a" x="63.623047"/>
      <use xlink:href="#DejaVuSans-20" x="97.314453"/>
      <use xlink:href="#DejaVuSans-35" x="129.101562"/>
      <use xlink:href="#DejaVuSans-2f" x="192.724609"/>
      <use xlink:href="#DejaVuSans-35" x="226.416016"/>
     </g>
    </g>
    <g id="line2d_28">
     <path d="M 52.16 58.553125 
L 72.16 58.553125 
L 92.16 58.553125 
" style="fill: none; stroke: #00bfbf; stroke-width: 3; stroke-linecap: square"/>
    </g>
    <g id="text_9">
     <!-- -1: 3/4 -->
     <g transform="translate(108.16 65.553125) scale(0.2 -0.2)">
      <use xlink:href="#DejaVuSans-2d"/>
      <use xlink:href="#DejaVuSans-31" x="36.083984"/>
      <use xlink:href="#DejaVuSans-3a" x="99.707031"/>
      <use xlink:href="#DejaVuSans-20" x="133.398438"/>
      <use xlink:href="#DejaVuSans-33" x="165.185547"/>
      <use xlink:href="#DejaVuSans-2f" x="228.808594"/>
      <use xlink:href="#DejaVuSans-34" x="262.5"/>
     </g>
    </g>
    <g id="line2d_29">
     <path d="M 52.16 87.909375 
L 72.16 87.909375 
L 92.16 87.909375 
" style="fill: none; stroke: #bf00bf; stroke-width: 3; stroke-linecap: square"/>
    </g>
    <g id="text_10">
     <!-- -4: 3/4 -->
     <g transform="translate(108.16 94.909375) scale(0.2 -0.2)">
      <use xlink:href="#DejaVuSans-2d"/>
      <use xlink:href="#DejaVuSans-34" x="36.083984"/>
      <use xlink:href="#DejaVuSans-3a" x="99.707031"/>
      <use xlink:href="#DejaVuSans-20" x="133.398438"/>
      <use xlink:href="#DejaVuSans-33" x="165.185547"/>
      <use xlink:href="#DejaVuSans-2f" x="228.808594"/>
      <use xlink:href="#DejaVuSans-34" x="262.5"/>
     </g>
    </g>
    <g id="line2d_30">
     <path d="M 52.16 117.265625 
L 72.16 117.265625 
L 92.16 117.265625 
" style="fill: none; stroke: #ff0000; stroke-width: 3; stroke-linecap: square"/>
    </g>
    <g id="text_11">
     <!-- -8: 3/4 -->
     <g transform="translate(108.16 124.265625) scale(0.2 -0.2)">
      <defs>
       <path id="DejaVuSans-38" d="M 2034 2216 
Q 1584 2216 1326 1975 
Q 1069 1734 1069 1313 
Q 1069 891 1326 650 
Q 1584 409 2034 409 
Q 2484 409 2743 651 
Q 3003 894 3003 1313 
Q 3003 1734 2745 1975 
Q 2488 2216 2034 2216 
z
M 1403 2484 
Q 997 2584 770 2862 
Q 544 3141 544 3541 
Q 544 4100 942 4425 
Q 1341 4750 2034 4750 
Q 2731 4750 3128 4425 
Q 3525 4100 3525 3541 
Q 3525 3141 3298 2862 
Q 3072 2584 2669 2484 
Q 3125 2378 3379 2068 
Q 3634 1759 3634 1313 
Q 3634 634 3220 271 
Q 2806 -91 2034 -91 
Q 1263 -91 848 271 
Q 434 634 434 1313 
Q 434 1759 690 2068 
Q 947 2378 1403 2484 
z
M 1172 3481 
Q 1172 3119 1398 2916 
Q 1625 2713 2034 2713 
Q 2441 2713 2670 2916 
Q 2900 3119 2900 3481 
Q 2900 3844 2670 4047 
Q 2441 4250 2034 4250 
Q 1625 4250 1398 4047 
Q 1172 3844 1172 3481 
z
" transform="scale(0.015625)"/>
      </defs>
      <use xlink:href="#DejaVuSans-2d"/>
      <use xlink:href="#DejaVuSans-38" x="36.083984"/>
      <use xlink:href="#DejaVuSans-3a" x="99.707031"/>
      <use xlink:href="#DejaVuSans-20" x="133.398438"/>
      <use xlink:href="#DejaVuSans-33" x="165.185547"/>
      <use xlink:href="#DejaVuSans-2f" x="228.808594"/>
      <use xlink:href="#DejaVuSans-34" x="262.5"/>
     </g>
    </g>
   </g>
  </g>
 </g>
 <defs>
  <clipPath id="p399db32a0f">
   <rect x="34.16" y="3" width="419.032" height="288.28"/>
  </clipPath>
 </defs>
</svg>
