<?xml version="1.0" encoding="utf-8" standalone="no"?>
<!DOCTYPE svg PUBLIC "-//W3C//DTD SVG 1.1//EN"
  "http://www.w3.org/Graphics/SVG/1.1/DTD/svg11.dtd">
<svg xmlns:xlink="http://www.w3.org/1999/xlink" width="460.8pt" height="345.6pt" viewBox="0 0 460.8 345.6" xmlns="http://www.w3.org/2000/svg" version="1.1">
 <metadata>
  <rdf:RDF xmlns:dc="http://purl.org/dc/elements/1.1/" xmlns:cc="http://creativecommons.org/ns#" xmlns:rdf="http://www.w3.org/1999/02/22-rdf-syntax-ns#">
   <cc:Work>
    <dc:type rdf:resource="http://purl.org/dc/dcmitype/StillImage"/>
    <dc:date>2024-06-05T13:43:24.437422</dc:date>
    <dc:format>image/svg+xml</dc:format>
    <dc:creator>
     <cc:Agent>
      <dc:title>Matplotlib v3.7.1, https://matplotlib.org/</dc:title>
     </cc:Agent>
    </dc:creator>
   </cc:Work>
  </rdf:RDF>
 </metadata>
 <defs>
  <style type="text/css">*{stroke-linejoin: round; stroke-linecap: butt}</style>
 </defs>
 <g id="figure_1">
  <g id="patch_1">
   <path d="M 0 345.6 
L 460.8 345.6 
L 460.8 0 
L 0 0 
z
" style="fill: #ffffff"/>
  </g>
  <g id="axes_1">
   <g id="patch_2">
    <path d="M 62.208 293.76 
L 460.8 293.76 
L 460.8 3.456 
L 62.208 3.456 
z
" style="fill: #ffffff"/>
   </g>
   <g id="line2d_1"/>
   <g id="line2d_2">
    <path d="M 237.875976 293.76 
L 237.875976 289.927604 
L 238.580941 289.927604 
L 238.580941 286.095208 
L 285.832889 286.095208 
L 285.832889 282.262812 
L 323.049141 282.262812 
L 323.049141 278.430416 
L 352.556743 278.430416 
L 352.556743 274.59802 
L 359.434665 274.59802 
L 359.434665 270.765624 
L 360.580958 270.765624 
L 360.580958 266.933228 
L 385.967955 266.933228 
L 385.967955 263.100832 
L 391.207905 263.100832 
L 391.207905 259.268436 
L 396.781487 259.268436 
L 396.781487 255.43604 
L 404.334254 255.43604 
L 404.334254 251.603644 
L 404.655766 251.603644 
L 404.655766 247.771248 
L 408.015797 247.771248 
L 408.015797 243.938851 
L 412.037888 243.938851 
L 412.037888 240.106455 
L 418.097023 240.106455 
L 418.097023 236.274059 
L 430.239276 236.274059 
L 430.239276 232.441663 
L 437.464023 232.441663 
L 437.464023 228.609267 
L 437.464023 228.609267 
L 437.464023 228.609267 
L 460.8 228.609267 
" clip-path="url(#p7de6080cc4)" style="fill: none; stroke: #f5deb3; stroke-width: 1.5; stroke-linecap: square"/>
   </g>
   <g id="line2d_3"/>
   <g id="line2d_4"/>
   <g id="line2d_5">
    <path d="M 340.551875 293.76 
L 340.551875 289.927604 
L 376.589981 289.927604 
L 376.589981 286.095208 
L 386.851906 286.095208 
L 386.851906 282.262812 
L 392.738356 282.262812 
L 392.738356 278.430416 
L 424.791538 278.430416 
L 424.791538 274.59802 
L 461.8 274.59802 
" clip-path="url(#p7de6080cc4)" style="fill: none; stroke: #f5deb3; stroke-width: 1.5; stroke-linecap: square"/>
   </g>
   <g id="line2d_6">
    <path d="M 248.565221 293.76 
L 248.565221 290.417794 
L 322.264682 290.417794 
L 322.264682 287.075588 
L 327.861811 287.075588 
L 327.861811 283.733382 
L 345.131387 283.733382 
L 345.131387 280.391177 
L 355.825101 280.391177 
L 355.825101 277.048971 
L 358.980898 277.048971 
L 358.980898 273.706765 
L 364.308502 273.706765 
L 364.308502 270.364559 
L 387.567089 270.364559 
L 387.567089 267.022353 
L 397.127814 267.022353 
L 397.127814 263.680147 
L 397.269721 263.680147 
L 397.269721 260.337942 
L 397.80557 260.337942 
L 397.80557 256.995736 
L 430.10658 256.995736 
L 430.10658 253.65353 
L 444.661328 253.65353 
L 444.661328 250.311324 
L 450.779031 250.311324 
L 450.779031 246.969118 
L 461.8 246.969118 
" clip-path="url(#p7de6080cc4)" style="fill: none; stroke: #f5deb3; stroke-width: 1.5; stroke-linecap: square"/>
   </g>
   <g id="line2d_7">
    <path d="M 318.165589 293.76 
L 318.165589 289.927604 
L 419.451059 289.927604 
L 419.451059 286.095208 
L 419.451059 286.095208 
L 419.451059 286.095208 
L 460.8 286.095208 
" clip-path="url(#p7de6080cc4)" style="fill: none; stroke: #f5deb3; stroke-width: 1.5; stroke-linecap: square"/>
   </g>
   <g id="line2d_8"/>
   <g id="line2d_9">
    <path d="M 238.466665 293.76 
L 238.466665 289.927604 
L 303.931233 289.927604 
L 303.931233 286.095208 
L 305.67857 286.095208 
L 305.67857 282.262812 
L 334.687844 282.262812 
L 334.687844 278.430416 
L 348.933223 278.430416 
L 348.933223 274.59802 
L 362.016444 274.59802 
L 362.016444 270.765624 
L 383.253464 270.765624 
L 383.253464 266.933228 
L 396.085285 266.933228 
L 396.085285 263.100832 
L 400.879881 263.100832 
L 400.879881 259.268436 
L 402.03328 259.268436 
L 402.03328 255.43604 
L 413.6941 255.43604 
L 413.6941 251.603644 
L 417.823447 251.603644 
L 417.823447 247.771248 
L 435.481658 247.771248 
L 435.481658 243.938851 
L 435.481658 243.938851 
L 435.481658 243.938851 
L 460.8 243.938851 
" clip-path="url(#p7de6080cc4)" style="fill: none; stroke: #f5deb3; stroke-width: 1.5; stroke-linecap: square"/>
   </g>
   <g id="line2d_10"/>
   <g id="line2d_11">
    <path d="M 347.536522 293.76 
L 347.536522 289.927604 
L 351.599516 289.927604 
L 351.599516 286.095208 
L 434.618148 286.095208 
L 434.618148 282.262812 
L 456.906921 282.262812 
L 456.906921 278.430416 
L 461.8 278.430416 
" clip-path="url(#p7de6080cc4)" style="fill: none; stroke: #f5deb3; stroke-width: 1.5; stroke-linecap: square"/>
   </g>
   <g id="line2d_12"/>
   <g id="line2d_13">
    <path d="M 229.965783 293.76 
L 229.965783 291.364752 
L 233.759104 291.364752 
L 233.759104 288.969505 
L 256.216665 288.969505 
L 256.216665 286.574257 
L 262.595879 286.574257 
L 262.595879 284.17901 
L 289.948548 284.17901 
L 289.948548 281.783762 
L 292.915195 281.783762 
L 292.915195 279.388515 
L 311.831542 279.388515 
L 311.831542 276.993267 
L 312.327759 276.993267 
L 312.327759 274.59802 
L 322.378733 274.59802 
L 322.378733 272.202772 
L 329.925924 272.202772 
L 329.925924 269.807525 
L 329.975643 269.807525 
L 329.975643 267.412277 
L 333.250362 267.412277 
L 333.250362 265.01703 
L 337.170989 265.01703 
L 337.170989 262.621782 
L 340.33024 262.621782 
L 340.33024 260.226535 
L 354.600493 260.226535 
L 354.600493 257.831287 
L 365.361417 257.831287 
L 365.361417 255.43604 
L 372.136566 255.43604 
L 372.136566 253.040792 
L 375.148639 253.040792 
L 375.148639 250.645545 
L 378.880974 250.645545 
L 378.880974 248.250297 
L 379.999331 248.250297 
L 379.999331 245.85505 
L 380.927902 245.85505 
L 380.927902 243.459802 
L 381.470893 243.459802 
L 381.470893 241.064554 
L 382.873651 241.064554 
L 382.873651 238.669307 
L 386.192017 238.669307 
L 386.192017 236.274059 
L 386.769408 236.274059 
L 386.769408 233.878812 
L 388.585859 233.878812 
L 388.585859 231.483564 
L 389.321512 231.483564 
L 389.321512 229.088317 
L 390.962239 229.088317 
L 390.962239 226.693069 
L 395.931087 226.693069 
L 395.931087 224.297822 
L 400.557928 224.297822 
L 400.557928 221.902574 
L 404.656527 221.902574 
L 404.656527 219.507327 
L 406.73761 219.507327 
L 406.73761 217.112079 
L 410.124218 217.112079 
L 410.124218 214.716832 
L 414.610174 214.716832 
L 414.610174 212.321584 
L 414.610174 212.321584 
L 414.610174 212.321584 
L 460.8 212.321584 
" clip-path="url(#p7de6080cc4)" style="fill: none; stroke: #f5deb3; stroke-width: 1.5; stroke-linecap: square"/>
   </g>
   <g id="line2d_14">
    <path d="M 440.120747 293.76 
L 440.120747 289.927604 
L 446.806869 289.927604 
L 446.806869 286.095208 
L 447.786433 286.095208 
L 447.786433 282.262812 
L 451.226532 282.262812 
L 451.226532 278.430416 
L 457.596455 278.430416 
L 457.596455 274.59802 
L 457.749785 274.59802 
L 457.749785 270.765624 
L 461.152594 270.765624 
L 461.152594 266.933228 
L 461.8 266.933228 
" clip-path="url(#p7de6080cc4)" style="fill: none; stroke: #f5deb3; stroke-width: 1.5; stroke-linecap: square"/>
   </g>
   <g id="line2d_15"/>
   <g id="line2d_16">
    <path d="M 260.108945 293.76 
L 260.108945 289.927604 
L 264.012893 289.927604 
L 264.012893 286.095208 
L 340.924987 286.095208 
L 340.924987 282.262812 
L 380.858393 282.262812 
L 380.858393 278.430416 
L 393.289289 278.430416 
L 393.289289 274.59802 
L 399.198354 274.59802 
L 399.198354 270.765624 
L 417.096594 270.765624 
L 417.096594 266.933228 
L 433.860054 266.933228 
L 433.860054 263.100832 
L 433.860054 263.100832 
L 433.860054 263.100832 
L 460.8 263.100832 
" clip-path="url(#p7de6080cc4)" style="fill: none; stroke: #f5deb3; stroke-width: 1.5; stroke-linecap: square"/>
   </g>
   <g id="line2d_17">
    <path d="M 442.358528 293.76 
L 442.358528 289.927604 
L 461.8 289.927604 
" clip-path="url(#p7de6080cc4)" style="fill: none; stroke: #f5deb3; stroke-width: 1.5; stroke-linecap: square"/>
   </g>
   <g id="line2d_18">
    <path d="M 261.864619 293.76 
L 261.864619 289.927604 
L 264.189516 289.927604 
L 264.189516 286.095208 
L 269.028108 286.095208 
L 269.028108 282.262812 
L 329.991167 282.262812 
L 329.991167 278.430416 
L 331.333445 278.430416 
L 331.333445 274.59802 
L 369.407836 274.59802 
L 369.407836 270.765624 
L 369.902867 270.765624 
L 369.902867 266.933228 
L 383.472815 266.933228 
L 383.472815 263.100832 
L 394.09098 263.100832 
L 394.09098 259.268436 
L 397.794789 259.268436 
L 397.794789 255.43604 
L 406.30234 255.43604 
L 406.30234 251.603644 
L 427.996087 251.603644 
L 427.996087 247.771248 
L 440.664391 247.771248 
L 440.664391 243.938851 
L 457.651717 243.938851 
L 457.651717 240.106455 
L 457.651717 240.106455 
L 457.651717 240.106455 
L 460.8 240.106455 
" clip-path="url(#p7de6080cc4)" style="fill: none; stroke: #f5deb3; stroke-width: 1.5; stroke-linecap: square"/>
   </g>
   <g id="line2d_19">
    <path d="M 329.045992 293.76 
L 329.045992 289.927604 
L 329.626345 289.927604 
L 329.626345 286.095208 
L 425.796403 286.095208 
L 425.796403 282.262812 
L 461.8 282.262812 
" clip-path="url(#p7de6080cc4)" style="fill: none; stroke: #f5deb3; stroke-width: 1.5; stroke-linecap: square"/>
   </g>
   <g id="line2d_20">
    <path d="M 318.36159 293.76 
L 318.36159 289.927604 
L 326.228038 289.927604 
L 326.228038 286.095208 
L 359.856428 286.095208 
L 359.856428 282.262812 
L 375.255905 282.262812 
L 375.255905 278.430416 
L 396.853866 278.430416 
L 396.853866 274.59802 
L 413.11003 274.59802 
L 413.11003 270.765624 
L 427.082485 270.765624 
L 427.082485 266.933228 
L 427.082485 266.933228 
L 427.082485 266.933228 
L 460.8 266.933228 
" clip-path="url(#p7de6080cc4)" style="fill: none; stroke: #f5deb3; stroke-width: 1.5; stroke-linecap: square"/>
   </g>
   <g id="matplotlib.axis_1">
    <g id="xtick_1">
     <g id="line2d_21">
      <path d="M 62.208 293.76 
L 62.208 3.456 
" clip-path="url(#p7de6080cc4)" style="fill: none; stroke: #b0b0b0; stroke-width: 0.8; stroke-linecap: square"/>
     </g>
     <g id="line2d_22">
      <defs>
       <path id="m58a0c015a1" d="M 0 0 
L 0 3.5 
" style="stroke: #000000; stroke-width: 0.8"/>
      </defs>
      <g>
       <use xlink:href="#m58a0c015a1" x="62.208" y="293.76" style="stroke: #000000; stroke-width: 0.8"/>
      </g>
     </g>
     <g id="text_1">
      <!-- 0 -->
      <g transform="translate(55.8455 315.956875) scale(0.2 -0.2)">
       <defs>
        <path id="DejaVuSans-30" d="M 2034 4250 
Q 1547 4250 1301 3770 
Q 1056 3291 1056 2328 
Q 1056 1369 1301 889 
Q 1547 409 2034 409 
Q 2525 409 2770 889 
Q 3016 1369 3016 2328 
Q 3016 3291 2770 3770 
Q 2525 4250 2034 4250 
z
M 2034 4750 
Q 2819 4750 3233 4129 
Q 3647 3509 3647 2328 
Q 3647 1150 3233 529 
Q 2819 -91 2034 -91 
Q 1250 -91 836 529 
Q 422 1150 422 2328 
Q 422 3509 836 4129 
Q 1250 4750 2034 4750 
z
" transform="scale(0.015625)"/>
       </defs>
       <use xlink:href="#DejaVuSans-30"/>
      </g>
     </g>
    </g>
    <g id="xtick_2">
     <g id="line2d_23">
      <path d="M 251.990238 293.76 
L 251.990238 3.456 
" clip-path="url(#p7de6080cc4)" style="fill: none; stroke: #b0b0b0; stroke-width: 0.8; stroke-linecap: square"/>
     </g>
     <g id="line2d_24">
      <g>
       <use xlink:href="#m58a0c015a1" x="251.990238" y="293.76" style="stroke: #000000; stroke-width: 0.8"/>
      </g>
     </g>
     <g id="text_2">
      <!-- 2 -->
      <g transform="translate(245.627738 315.956875) scale(0.2 -0.2)">
       <defs>
        <path id="DejaVuSans-32" d="M 1228 531 
L 3431 531 
L 3431 0 
L 469 0 
L 469 531 
Q 828 903 1448 1529 
Q 2069 2156 2228 2338 
Q 2531 2678 2651 2914 
Q 2772 3150 2772 3378 
Q 2772 3750 2511 3984 
Q 2250 4219 1831 4219 
Q 1534 4219 1204 4116 
Q 875 4013 500 3803 
L 500 4441 
Q 881 4594 1212 4672 
Q 1544 4750 1819 4750 
Q 2544 4750 2975 4387 
Q 3406 4025 3406 3419 
Q 3406 3131 3298 2873 
Q 3191 2616 2906 2266 
Q 2828 2175 2409 1742 
Q 1991 1309 1228 531 
z
" transform="scale(0.015625)"/>
       </defs>
       <use xlink:href="#DejaVuSans-32"/>
      </g>
     </g>
    </g>
    <g id="xtick_3">
     <g id="line2d_25">
      <path d="M 441.772475 293.76 
L 441.772475 3.456 
" clip-path="url(#p7de6080cc4)" style="fill: none; stroke: #b0b0b0; stroke-width: 0.8; stroke-linecap: square"/>
     </g>
     <g id="line2d_26">
      <g>
       <use xlink:href="#m58a0c015a1" x="441.772475" y="293.76" style="stroke: #000000; stroke-width: 0.8"/>
      </g>
     </g>
     <g id="text_3">
      <!-- 4 -->
      <g transform="translate(435.409975 315.956875) scale(0.2 -0.2)">
       <defs>
        <path id="DejaVuSans-34" d="M 2419 4116 
L 825 1625 
L 2419 1625 
L 2419 4116 
z
M 2253 4666 
L 3047 4666 
L 3047 1625 
L 3713 1625 
L 3713 1100 
L 3047 1100 
L 3047 0 
L 2419 0 
L 2419 1100 
L 313 1100 
L 313 1709 
L 2253 4666 
z
" transform="scale(0.015625)"/>
       </defs>
       <use xlink:href="#DejaVuSans-34"/>
      </g>
     </g>
    </g>
    <g id="xtick_4">
     <g id="line2d_27">
      <path d="M 90.773073 293.76 
L 90.773073 3.456 
" clip-path="url(#p7de6080cc4)" style="fill: none; stroke: #b0b0b0; stroke-width: 0.8; stroke-linecap: square"/>
     </g>
     <g id="line2d_28">
      <defs>
       <path id="m4705b72df3" d="M 0 0 
L 0 2 
" style="stroke: #000000; stroke-width: 0.6"/>
      </defs>
      <g>
       <use xlink:href="#m4705b72df3" x="90.773073" y="293.76" style="stroke: #000000; stroke-width: 0.6"/>
      </g>
     </g>
    </g>
    <g id="xtick_5">
     <g id="line2d_29">
      <path d="M 107.48257 293.76 
L 107.48257 3.456 
" clip-path="url(#p7de6080cc4)" style="fill: none; stroke: #b0b0b0; stroke-width: 0.8; stroke-linecap: square"/>
     </g>
     <g id="line2d_30">
      <g>
       <use xlink:href="#m4705b72df3" x="107.48257" y="293.76" style="stroke: #000000; stroke-width: 0.6"/>
      </g>
     </g>
    </g>
    <g id="xtick_6">
     <g id="line2d_31">
      <path d="M 119.338146 293.76 
L 119.338146 3.456 
" clip-path="url(#p7de6080cc4)" style="fill: none; stroke: #b0b0b0; stroke-width: 0.8; stroke-linecap: square"/>
     </g>
     <g id="line2d_32">
      <g>
       <use xlink:href="#m4705b72df3" x="119.338146" y="293.76" style="stroke: #000000; stroke-width: 0.6"/>
      </g>
     </g>
    </g>
    <g id="xtick_7">
     <g id="line2d_33">
      <path d="M 128.534046 293.76 
L 128.534046 3.456 
" clip-path="url(#p7de6080cc4)" style="fill: none; stroke: #b0b0b0; stroke-width: 0.8; stroke-linecap: square"/>
     </g>
     <g id="line2d_34">
      <g>
       <use xlink:href="#m4705b72df3" x="128.534046" y="293.76" style="stroke: #000000; stroke-width: 0.6"/>
      </g>
     </g>
    </g>
    <g id="xtick_8">
     <g id="line2d_35">
      <path d="M 136.047643 293.76 
L 136.047643 3.456 
" clip-path="url(#p7de6080cc4)" style="fill: none; stroke: #b0b0b0; stroke-width: 0.8; stroke-linecap: square"/>
     </g>
     <g id="line2d_36">
      <g>
       <use xlink:href="#m4705b72df3" x="136.047643" y="293.76" style="stroke: #000000; stroke-width: 0.6"/>
      </g>
     </g>
    </g>
    <g id="xtick_9">
     <g id="line2d_37">
      <path d="M 142.400299 293.76 
L 142.400299 3.456 
" clip-path="url(#p7de6080cc4)" style="fill: none; stroke: #b0b0b0; stroke-width: 0.8; stroke-linecap: square"/>
     </g>
     <g id="line2d_38">
      <g>
       <use xlink:href="#m4705b72df3" x="142.400299" y="293.76" style="stroke: #000000; stroke-width: 0.6"/>
      </g>
     </g>
    </g>
    <g id="xtick_10">
     <g id="line2d_39">
      <path d="M 147.903219 293.76 
L 147.903219 3.456 
" clip-path="url(#p7de6080cc4)" style="fill: none; stroke: #b0b0b0; stroke-width: 0.8; stroke-linecap: square"/>
     </g>
     <g id="line2d_40">
      <g>
       <use xlink:href="#m4705b72df3" x="147.903219" y="293.76" style="stroke: #000000; stroke-width: 0.6"/>
      </g>
     </g>
    </g>
    <g id="xtick_11">
     <g id="line2d_41">
      <path d="M 152.757139 293.76 
L 152.757139 3.456 
" clip-path="url(#p7de6080cc4)" style="fill: none; stroke: #b0b0b0; stroke-width: 0.8; stroke-linecap: square"/>
     </g>
     <g id="line2d_42">
      <g>
       <use xlink:href="#m4705b72df3" x="152.757139" y="293.76" style="stroke: #000000; stroke-width: 0.6"/>
      </g>
     </g>
    </g>
    <g id="xtick_12">
     <g id="line2d_43">
      <path d="M 185.664192 293.76 
L 185.664192 3.456 
" clip-path="url(#p7de6080cc4)" style="fill: none; stroke: #b0b0b0; stroke-width: 0.8; stroke-linecap: square"/>
     </g>
     <g id="line2d_44">
      <g>
       <use xlink:href="#m4705b72df3" x="185.664192" y="293.76" style="stroke: #000000; stroke-width: 0.6"/>
      </g>
     </g>
    </g>
    <g id="xtick_13">
     <g id="line2d_45">
      <path d="M 202.373688 293.76 
L 202.373688 3.456 
" clip-path="url(#p7de6080cc4)" style="fill: none; stroke: #b0b0b0; stroke-width: 0.8; stroke-linecap: square"/>
     </g>
     <g id="line2d_46">
      <g>
       <use xlink:href="#m4705b72df3" x="202.373688" y="293.76" style="stroke: #000000; stroke-width: 0.6"/>
      </g>
     </g>
    </g>
    <g id="xtick_14">
     <g id="line2d_47">
      <path d="M 214.229265 293.76 
L 214.229265 3.456 
" clip-path="url(#p7de6080cc4)" style="fill: none; stroke: #b0b0b0; stroke-width: 0.8; stroke-linecap: square"/>
     </g>
     <g id="line2d_48">
      <g>
       <use xlink:href="#m4705b72df3" x="214.229265" y="293.76" style="stroke: #000000; stroke-width: 0.6"/>
      </g>
     </g>
    </g>
    <g id="xtick_15">
     <g id="line2d_49">
      <path d="M 223.425164 293.76 
L 223.425164 3.456 
" clip-path="url(#p7de6080cc4)" style="fill: none; stroke: #b0b0b0; stroke-width: 0.8; stroke-linecap: square"/>
     </g>
     <g id="line2d_50">
      <g>
       <use xlink:href="#m4705b72df3" x="223.425164" y="293.76" style="stroke: #000000; stroke-width: 0.6"/>
      </g>
     </g>
    </g>
    <g id="xtick_16">
     <g id="line2d_51">
      <path d="M 230.938762 293.76 
L 230.938762 3.456 
" clip-path="url(#p7de6080cc4)" style="fill: none; stroke: #b0b0b0; stroke-width: 0.8; stroke-linecap: square"/>
     </g>
     <g id="line2d_52">
      <g>
       <use xlink:href="#m4705b72df3" x="230.938762" y="293.76" style="stroke: #000000; stroke-width: 0.6"/>
      </g>
     </g>
    </g>
    <g id="xtick_17">
     <g id="line2d_53">
      <path d="M 237.291417 293.76 
L 237.291417 3.456 
" clip-path="url(#p7de6080cc4)" style="fill: none; stroke: #b0b0b0; stroke-width: 0.8; stroke-linecap: square"/>
     </g>
     <g id="line2d_54">
      <g>
       <use xlink:href="#m4705b72df3" x="237.291417" y="293.76" style="stroke: #000000; stroke-width: 0.6"/>
      </g>
     </g>
    </g>
    <g id="xtick_18">
     <g id="line2d_55">
      <path d="M 242.794338 293.76 
L 242.794338 3.456 
" clip-path="url(#p7de6080cc4)" style="fill: none; stroke: #b0b0b0; stroke-width: 0.8; stroke-linecap: square"/>
     </g>
     <g id="line2d_56">
      <g>
       <use xlink:href="#m4705b72df3" x="242.794338" y="293.76" style="stroke: #000000; stroke-width: 0.6"/>
      </g>
     </g>
    </g>
    <g id="xtick_19">
     <g id="line2d_57">
      <path d="M 247.648258 293.76 
L 247.648258 3.456 
" clip-path="url(#p7de6080cc4)" style="fill: none; stroke: #b0b0b0; stroke-width: 0.8; stroke-linecap: square"/>
     </g>
     <g id="line2d_58">
      <g>
       <use xlink:href="#m4705b72df3" x="247.648258" y="293.76" style="stroke: #000000; stroke-width: 0.6"/>
      </g>
     </g>
    </g>
    <g id="xtick_20">
     <g id="line2d_59">
      <path d="M 280.555311 293.76 
L 280.555311 3.456 
" clip-path="url(#p7de6080cc4)" style="fill: none; stroke: #b0b0b0; stroke-width: 0.8; stroke-linecap: square"/>
     </g>
     <g id="line2d_60">
      <g>
       <use xlink:href="#m4705b72df3" x="280.555311" y="293.76" style="stroke: #000000; stroke-width: 0.6"/>
      </g>
     </g>
    </g>
    <g id="xtick_21">
     <g id="line2d_61">
      <path d="M 297.264807 293.76 
L 297.264807 3.456 
" clip-path="url(#p7de6080cc4)" style="fill: none; stroke: #b0b0b0; stroke-width: 0.8; stroke-linecap: square"/>
     </g>
     <g id="line2d_62">
      <g>
       <use xlink:href="#m4705b72df3" x="297.264807" y="293.76" style="stroke: #000000; stroke-width: 0.6"/>
      </g>
     </g>
    </g>
    <g id="xtick_22">
     <g id="line2d_63">
      <path d="M 309.120384 293.76 
L 309.120384 3.456 
" clip-path="url(#p7de6080cc4)" style="fill: none; stroke: #b0b0b0; stroke-width: 0.8; stroke-linecap: square"/>
     </g>
     <g id="line2d_64">
      <g>
       <use xlink:href="#m4705b72df3" x="309.120384" y="293.76" style="stroke: #000000; stroke-width: 0.6"/>
      </g>
     </g>
    </g>
    <g id="xtick_23">
     <g id="line2d_65">
      <path d="M 318.316283 293.76 
L 318.316283 3.456 
" clip-path="url(#p7de6080cc4)" style="fill: none; stroke: #b0b0b0; stroke-width: 0.8; stroke-linecap: square"/>
     </g>
     <g id="line2d_66">
      <g>
       <use xlink:href="#m4705b72df3" x="318.316283" y="293.76" style="stroke: #000000; stroke-width: 0.6"/>
      </g>
     </g>
    </g>
    <g id="xtick_24">
     <g id="line2d_67">
      <path d="M 325.82988 293.76 
L 325.82988 3.456 
" clip-path="url(#p7de6080cc4)" style="fill: none; stroke: #b0b0b0; stroke-width: 0.8; stroke-linecap: square"/>
     </g>
     <g id="line2d_68">
      <g>
       <use xlink:href="#m4705b72df3" x="325.82988" y="293.76" style="stroke: #000000; stroke-width: 0.6"/>
      </g>
     </g>
    </g>
    <g id="xtick_25">
     <g id="line2d_69">
      <path d="M 332.182536 293.76 
L 332.182536 3.456 
" clip-path="url(#p7de6080cc4)" style="fill: none; stroke: #b0b0b0; stroke-width: 0.8; stroke-linecap: square"/>
     </g>
     <g id="line2d_70">
      <g>
       <use xlink:href="#m4705b72df3" x="332.182536" y="293.76" style="stroke: #000000; stroke-width: 0.6"/>
      </g>
     </g>
    </g>
    <g id="xtick_26">
     <g id="line2d_71">
      <path d="M 337.685457 293.76 
L 337.685457 3.456 
" clip-path="url(#p7de6080cc4)" style="fill: none; stroke: #b0b0b0; stroke-width: 0.8; stroke-linecap: square"/>
     </g>
     <g id="line2d_72">
      <g>
       <use xlink:href="#m4705b72df3" x="337.685457" y="293.76" style="stroke: #000000; stroke-width: 0.6"/>
      </g>
     </g>
    </g>
    <g id="xtick_27">
     <g id="line2d_73">
      <path d="M 342.539377 293.76 
L 342.539377 3.456 
" clip-path="url(#p7de6080cc4)" style="fill: none; stroke: #b0b0b0; stroke-width: 0.8; stroke-linecap: square"/>
     </g>
     <g id="line2d_74">
      <g>
       <use xlink:href="#m4705b72df3" x="342.539377" y="293.76" style="stroke: #000000; stroke-width: 0.6"/>
      </g>
     </g>
    </g>
    <g id="xtick_28">
     <g id="line2d_75">
      <path d="M 375.446429 293.76 
L 375.446429 3.456 
" clip-path="url(#p7de6080cc4)" style="fill: none; stroke: #b0b0b0; stroke-width: 0.8; stroke-linecap: square"/>
     </g>
     <g id="line2d_76">
      <g>
       <use xlink:href="#m4705b72df3" x="375.446429" y="293.76" style="stroke: #000000; stroke-width: 0.6"/>
      </g>
     </g>
    </g>
    <g id="xtick_29">
     <g id="line2d_77">
      <path d="M 392.155926 293.76 
L 392.155926 3.456 
" clip-path="url(#p7de6080cc4)" style="fill: none; stroke: #b0b0b0; stroke-width: 0.8; stroke-linecap: square"/>
     </g>
     <g id="line2d_78">
      <g>
       <use xlink:href="#m4705b72df3" x="392.155926" y="293.76" style="stroke: #000000; stroke-width: 0.6"/>
      </g>
     </g>
    </g>
    <g id="xtick_30">
     <g id="line2d_79">
      <path d="M 404.011503 293.76 
L 404.011503 3.456 
" clip-path="url(#p7de6080cc4)" style="fill: none; stroke: #b0b0b0; stroke-width: 0.8; stroke-linecap: square"/>
     </g>
     <g id="line2d_80">
      <g>
       <use xlink:href="#m4705b72df3" x="404.011503" y="293.76" style="stroke: #000000; stroke-width: 0.6"/>
      </g>
     </g>
    </g>
    <g id="xtick_31">
     <g id="line2d_81">
      <path d="M 413.207402 293.76 
L 413.207402 3.456 
" clip-path="url(#p7de6080cc4)" style="fill: none; stroke: #b0b0b0; stroke-width: 0.8; stroke-linecap: square"/>
     </g>
     <g id="line2d_82">
      <g>
       <use xlink:href="#m4705b72df3" x="413.207402" y="293.76" style="stroke: #000000; stroke-width: 0.6"/>
      </g>
     </g>
    </g>
    <g id="xtick_32">
     <g id="line2d_83">
      <path d="M 420.720999 293.76 
L 420.720999 3.456 
" clip-path="url(#p7de6080cc4)" style="fill: none; stroke: #b0b0b0; stroke-width: 0.8; stroke-linecap: square"/>
     </g>
     <g id="line2d_84">
      <g>
       <use xlink:href="#m4705b72df3" x="420.720999" y="293.76" style="stroke: #000000; stroke-width: 0.6"/>
      </g>
     </g>
    </g>
    <g id="xtick_33">
     <g id="line2d_85">
      <path d="M 427.073655 293.76 
L 427.073655 3.456 
" clip-path="url(#p7de6080cc4)" style="fill: none; stroke: #b0b0b0; stroke-width: 0.8; stroke-linecap: square"/>
     </g>
     <g id="line2d_86">
      <g>
       <use xlink:href="#m4705b72df3" x="427.073655" y="293.76" style="stroke: #000000; stroke-width: 0.6"/>
      </g>
     </g>
    </g>
    <g id="xtick_34">
     <g id="line2d_87">
      <path d="M 432.576576 293.76 
L 432.576576 3.456 
" clip-path="url(#p7de6080cc4)" style="fill: none; stroke: #b0b0b0; stroke-width: 0.8; stroke-linecap: square"/>
     </g>
     <g id="line2d_88">
      <g>
       <use xlink:href="#m4705b72df3" x="432.576576" y="293.76" style="stroke: #000000; stroke-width: 0.6"/>
      </g>
     </g>
    </g>
    <g id="xtick_35">
     <g id="line2d_89">
      <path d="M 437.430496 293.76 
L 437.430496 3.456 
" clip-path="url(#p7de6080cc4)" style="fill: none; stroke: #b0b0b0; stroke-width: 0.8; stroke-linecap: square"/>
     </g>
     <g id="line2d_90">
      <g>
       <use xlink:href="#m4705b72df3" x="437.430496" y="293.76" style="stroke: #000000; stroke-width: 0.6"/>
      </g>
     </g>
    </g>
    <g id="text_4">
     <!-- log10 of FEvals / DIM -->
     <g transform="translate(156.430563 339.313125) scale(0.2 -0.2)">
      <defs>
       <path id="DejaVuSans-6c" d="M 603 4863 
L 1178 4863 
L 1178 0 
L 603 0 
L 603 4863 
z
" transform="scale(0.015625)"/>
       <path id="DejaVuSans-6f" d="M 1959 3097 
Q 1497 3097 1228 2736 
Q 959 2375 959 1747 
Q 959 1119 1226 758 
Q 1494 397 1959 397 
Q 2419 397 2687 759 
Q 2956 1122 2956 1747 
Q 2956 2369 2687 2733 
Q 2419 3097 1959 3097 
z
M 1959 3584 
Q 2709 3584 3137 3096 
Q 3566 2609 3566 1747 
Q 3566 888 3137 398 
Q 2709 -91 1959 -91 
Q 1206 -91 779 398 
Q 353 888 353 1747 
Q 353 2609 779 3096 
Q 1206 3584 1959 3584 
z
" transform="scale(0.015625)"/>
       <path id="DejaVuSans-67" d="M 2906 1791 
Q 2906 2416 2648 2759 
Q 2391 3103 1925 3103 
Q 1463 3103 1205 2759 
Q 947 2416 947 1791 
Q 947 1169 1205 825 
Q 1463 481 1925 481 
Q 2391 481 2648 825 
Q 2906 1169 2906 1791 
z
M 3481 434 
Q 3481 -459 3084 -895 
Q 2688 -1331 1869 -1331 
Q 1566 -1331 1297 -1286 
Q 1028 -1241 775 -1147 
L 775 -588 
Q 1028 -725 1275 -790 
Q 1522 -856 1778 -856 
Q 2344 -856 2625 -561 
Q 2906 -266 2906 331 
L 2906 616 
Q 2728 306 2450 153 
Q 2172 0 1784 0 
Q 1141 0 747 490 
Q 353 981 353 1791 
Q 353 2603 747 3093 
Q 1141 3584 1784 3584 
Q 2172 3584 2450 3431 
Q 2728 3278 2906 2969 
L 2906 3500 
L 3481 3500 
L 3481 434 
z
" transform="scale(0.015625)"/>
       <path id="DejaVuSans-31" d="M 794 531 
L 1825 531 
L 1825 4091 
L 703 3866 
L 703 4441 
L 1819 4666 
L 2450 4666 
L 2450 531 
L 3481 531 
L 3481 0 
L 794 0 
L 794 531 
z
" transform="scale(0.015625)"/>
       <path id="DejaVuSans-20" transform="scale(0.015625)"/>
       <path id="DejaVuSans-66" d="M 2375 4863 
L 2375 4384 
L 1825 4384 
Q 1516 4384 1395 4259 
Q 1275 4134 1275 3809 
L 1275 3500 
L 2222 3500 
L 2222 3053 
L 1275 3053 
L 1275 0 
L 697 0 
L 697 3053 
L 147 3053 
L 147 3500 
L 697 3500 
L 697 3744 
Q 697 4328 969 4595 
Q 1241 4863 1831 4863 
L 2375 4863 
z
" transform="scale(0.015625)"/>
       <path id="DejaVuSans-46" d="M 628 4666 
L 3309 4666 
L 3309 4134 
L 1259 4134 
L 1259 2759 
L 3109 2759 
L 3109 2228 
L 1259 2228 
L 1259 0 
L 628 0 
L 628 4666 
z
" transform="scale(0.015625)"/>
       <path id="DejaVuSans-45" d="M 628 4666 
L 3578 4666 
L 3578 4134 
L 1259 4134 
L 1259 2753 
L 3481 2753 
L 3481 2222 
L 1259 2222 
L 1259 531 
L 3634 531 
L 3634 0 
L 628 0 
L 628 4666 
z
" transform="scale(0.015625)"/>
       <path id="DejaVuSans-76" d="M 191 3500 
L 800 3500 
L 1894 563 
L 2988 3500 
L 3597 3500 
L 2284 0 
L 1503 0 
L 191 3500 
z
" transform="scale(0.015625)"/>
       <path id="DejaVuSans-61" d="M 2194 1759 
Q 1497 1759 1228 1600 
Q 959 1441 959 1056 
Q 959 750 1161 570 
Q 1363 391 1709 391 
Q 2188 391 2477 730 
Q 2766 1069 2766 1631 
L 2766 1759 
L 2194 1759 
z
M 3341 1997 
L 3341 0 
L 2766 0 
L 2766 531 
Q 2569 213 2275 61 
Q 1981 -91 1556 -91 
Q 1019 -91 701 211 
Q 384 513 384 1019 
Q 384 1609 779 1909 
Q 1175 2209 1959 2209 
L 2766 2209 
L 2766 2266 
Q 2766 2663 2505 2880 
Q 2244 3097 1772 3097 
Q 1472 3097 1187 3025 
Q 903 2953 641 2809 
L 641 3341 
Q 956 3463 1253 3523 
Q 1550 3584 1831 3584 
Q 2591 3584 2966 3190 
Q 3341 2797 3341 1997 
z
" transform="scale(0.015625)"/>
       <path id="DejaVuSans-73" d="M 2834 3397 
L 2834 2853 
Q 2591 2978 2328 3040 
Q 2066 3103 1784 3103 
Q 1356 3103 1142 2972 
Q 928 2841 928 2578 
Q 928 2378 1081 2264 
Q 1234 2150 1697 2047 
L 1894 2003 
Q 2506 1872 2764 1633 
Q 3022 1394 3022 966 
Q 3022 478 2636 193 
Q 2250 -91 1575 -91 
Q 1294 -91 989 -36 
Q 684 19 347 128 
L 347 722 
Q 666 556 975 473 
Q 1284 391 1588 391 
Q 1994 391 2212 530 
Q 2431 669 2431 922 
Q 2431 1156 2273 1281 
Q 2116 1406 1581 1522 
L 1381 1569 
Q 847 1681 609 1914 
Q 372 2147 372 2553 
Q 372 3047 722 3315 
Q 1072 3584 1716 3584 
Q 2034 3584 2315 3537 
Q 2597 3491 2834 3397 
z
" transform="scale(0.015625)"/>
       <path id="DejaVuSans-2f" d="M 1625 4666 
L 2156 4666 
L 531 -594 
L 0 -594 
L 1625 4666 
z
" transform="scale(0.015625)"/>
       <path id="DejaVuSans-44" d="M 1259 4147 
L 1259 519 
L 2022 519 
Q 2988 519 3436 956 
Q 3884 1394 3884 2338 
Q 3884 3275 3436 3711 
Q 2988 4147 2022 4147 
L 1259 4147 
z
M 628 4666 
L 1925 4666 
Q 3281 4666 3915 4102 
Q 4550 3538 4550 2338 
Q 4550 1131 3912 565 
Q 3275 0 1925 0 
L 628 0 
L 628 4666 
z
" transform="scale(0.015625)"/>
       <path id="DejaVuSans-49" d="M 628 4666 
L 1259 4666 
L 1259 0 
L 628 0 
L 628 4666 
z
" transform="scale(0.015625)"/>
       <path id="DejaVuSans-4d" d="M 628 4666 
L 1569 4666 
L 2759 1491 
L 3956 4666 
L 4897 4666 
L 4897 0 
L 4281 0 
L 4281 4097 
L 3078 897 
L 2444 897 
L 1241 4097 
L 1241 0 
L 628 0 
L 628 4666 
z
" transform="scale(0.015625)"/>
      </defs>
      <use xlink:href="#DejaVuSans-6c"/>
      <use xlink:href="#DejaVuSans-6f" x="27.783203"/>
      <use xlink:href="#DejaVuSans-67" x="88.964844"/>
      <use xlink:href="#DejaVuSans-31" x="152.441406"/>
      <use xlink:href="#DejaVuSans-30" x="216.064453"/>
      <use xlink:href="#DejaVuSans-20" x="279.6875"/>
      <use xlink:href="#DejaVuSans-6f" x="311.474609"/>
      <use xlink:href="#DejaVuSans-66" x="372.65625"/>
      <use xlink:href="#DejaVuSans-20" x="407.861328"/>
      <use xlink:href="#DejaVuSans-46" x="439.648438"/>
      <use xlink:href="#DejaVuSans-45" x="497.167969"/>
      <use xlink:href="#DejaVuSans-76" x="560.351562"/>
      <use xlink:href="#DejaVuSans-61" x="619.53125"/>
      <use xlink:href="#DejaVuSans-6c" x="680.810547"/>
      <use xlink:href="#DejaVuSans-73" x="708.59375"/>
      <use xlink:href="#DejaVuSans-20" x="760.693359"/>
      <use xlink:href="#DejaVuSans-2f" x="792.480469"/>
      <use xlink:href="#DejaVuSans-20" x="826.171875"/>
      <use xlink:href="#DejaVuSans-44" x="857.958984"/>
      <use xlink:href="#DejaVuSans-49" x="934.960938"/>
      <use xlink:href="#DejaVuSans-4d" x="964.453125"/>
     </g>
    </g>
   </g>
   <g id="matplotlib.axis_2">
    <g id="ytick_1">
     <g id="line2d_91">
      <path d="M 62.208 293.76 
L 460.8 293.76 
" clip-path="url(#p7de6080cc4)" style="fill: none; stroke: #b0b0b0; stroke-width: 0.8; stroke-linecap: square"/>
     </g>
     <g id="line2d_92">
      <defs>
       <path id="maf8a06b617" d="M 0 0 
L -3.5 0 
" style="stroke: #000000; stroke-width: 0.8"/>
      </defs>
      <g>
       <use xlink:href="#maf8a06b617" x="62.208" y="293.76" style="stroke: #000000; stroke-width: 0.8"/>
      </g>
     </g>
     <g id="text_5">
      <!-- 0.0 -->
      <g transform="translate(29.763 299.83875) scale(0.16 -0.16)">
       <defs>
        <path id="DejaVuSans-2e" d="M 684 794 
L 1344 794 
L 1344 0 
L 684 0 
L 684 794 
z
" transform="scale(0.015625)"/>
       </defs>
       <use xlink:href="#DejaVuSans-30"/>
       <use xlink:href="#DejaVuSans-2e" x="63.623047"/>
       <use xlink:href="#DejaVuSans-30" x="95.410156"/>
      </g>
     </g>
    </g>
    <g id="ytick_2">
     <g id="line2d_93">
      <path d="M 62.208 236.274059 
L 460.8 236.274059 
" clip-path="url(#p7de6080cc4)" style="fill: none; stroke: #b0b0b0; stroke-width: 0.8; stroke-linecap: square"/>
     </g>
     <g id="line2d_94">
      <g>
       <use xlink:href="#maf8a06b617" x="62.208" y="236.274059" style="stroke: #000000; stroke-width: 0.8"/>
      </g>
     </g>
     <g id="text_6">
      <!-- 0.2 -->
      <g transform="translate(29.763 242.352809) scale(0.16 -0.16)">
       <use xlink:href="#DejaVuSans-30"/>
       <use xlink:href="#DejaVuSans-2e" x="63.623047"/>
       <use xlink:href="#DejaVuSans-32" x="95.410156"/>
      </g>
     </g>
    </g>
    <g id="ytick_3">
     <g id="line2d_95">
      <path d="M 62.208 178.788119 
L 460.8 178.788119 
" clip-path="url(#p7de6080cc4)" style="fill: none; stroke: #b0b0b0; stroke-width: 0.8; stroke-linecap: square"/>
     </g>
     <g id="line2d_96">
      <g>
       <use xlink:href="#maf8a06b617" x="62.208" y="178.788119" style="stroke: #000000; stroke-width: 0.8"/>
      </g>
     </g>
     <g id="text_7">
      <!-- 0.4 -->
      <g transform="translate(29.763 184.866869) scale(0.16 -0.16)">
       <use xlink:href="#DejaVuSans-30"/>
       <use xlink:href="#DejaVuSans-2e" x="63.623047"/>
       <use xlink:href="#DejaVuSans-34" x="95.410156"/>
      </g>
     </g>
    </g>
    <g id="ytick_4">
     <g id="line2d_97">
      <path d="M 62.208 121.302178 
L 460.8 121.302178 
" clip-path="url(#p7de6080cc4)" style="fill: none; stroke: #b0b0b0; stroke-width: 0.8; stroke-linecap: square"/>
     </g>
     <g id="line2d_98">
      <g>
       <use xlink:href="#maf8a06b617" x="62.208" y="121.302178" style="stroke: #000000; stroke-width: 0.8"/>
      </g>
     </g>
     <g id="text_8">
      <!-- 0.6 -->
      <g transform="translate(29.763 127.380928) scale(0.16 -0.16)">
       <defs>
        <path id="DejaVuSans-36" d="M 2113 2584 
Q 1688 2584 1439 2293 
Q 1191 2003 1191 1497 
Q 1191 994 1439 701 
Q 1688 409 2113 409 
Q 2538 409 2786 701 
Q 3034 994 3034 1497 
Q 3034 2003 2786 2293 
Q 2538 2584 2113 2584 
z
M 3366 4563 
L 3366 3988 
Q 3128 4100 2886 4159 
Q 2644 4219 2406 4219 
Q 1781 4219 1451 3797 
Q 1122 3375 1075 2522 
Q 1259 2794 1537 2939 
Q 1816 3084 2150 3084 
Q 2853 3084 3261 2657 
Q 3669 2231 3669 1497 
Q 3669 778 3244 343 
Q 2819 -91 2113 -91 
Q 1303 -91 875 529 
Q 447 1150 447 2328 
Q 447 3434 972 4092 
Q 1497 4750 2381 4750 
Q 2619 4750 2861 4703 
Q 3103 4656 3366 4563 
z
" transform="scale(0.015625)"/>
       </defs>
       <use xlink:href="#DejaVuSans-30"/>
       <use xlink:href="#DejaVuSans-2e" x="63.623047"/>
       <use xlink:href="#DejaVuSans-36" x="95.410156"/>
      </g>
     </g>
    </g>
    <g id="ytick_5">
     <g id="line2d_99">
      <path d="M 62.208 63.816238 
L 460.8 63.816238 
" clip-path="url(#p7de6080cc4)" style="fill: none; stroke: #b0b0b0; stroke-width: 0.8; stroke-linecap: square"/>
     </g>
     <g id="line2d_100">
      <g>
       <use xlink:href="#maf8a06b617" x="62.208" y="63.816238" style="stroke: #000000; stroke-width: 0.8"/>
      </g>
     </g>
     <g id="text_9">
      <!-- 0.8 -->
      <g transform="translate(29.763 69.894988) scale(0.16 -0.16)">
       <defs>
        <path id="DejaVuSans-38" d="M 2034 2216 
Q 1584 2216 1326 1975 
Q 1069 1734 1069 1313 
Q 1069 891 1326 650 
Q 1584 409 2034 409 
Q 2484 409 2743 651 
Q 3003 894 3003 1313 
Q 3003 1734 2745 1975 
Q 2488 2216 2034 2216 
z
M 1403 2484 
Q 997 2584 770 2862 
Q 544 3141 544 3541 
Q 544 4100 942 4425 
Q 1341 4750 2034 4750 
Q 2731 4750 3128 4425 
Q 3525 4100 3525 3541 
Q 3525 3141 3298 2862 
Q 3072 2584 2669 2484 
Q 3125 2378 3379 2068 
Q 3634 1759 3634 1313 
Q 3634 634 3220 271 
Q 2806 -91 2034 -91 
Q 1263 -91 848 271 
Q 434 634 434 1313 
Q 434 1759 690 2068 
Q 947 2378 1403 2484 
z
M 1172 3481 
Q 1172 3119 1398 2916 
Q 1625 2713 2034 2713 
Q 2441 2713 2670 2916 
Q 2900 3119 2900 3481 
Q 2900 3844 2670 4047 
Q 2441 4250 2034 4250 
Q 1625 4250 1398 4047 
Q 1172 3844 1172 3481 
z
" transform="scale(0.015625)"/>
       </defs>
       <use xlink:href="#DejaVuSans-30"/>
       <use xlink:href="#DejaVuSans-2e" x="63.623047"/>
       <use xlink:href="#DejaVuSans-38" x="95.410156"/>
      </g>
     </g>
    </g>
    <g id="ytick_6">
     <g id="line2d_101">
      <path d="M 62.208 6.330297 
L 460.8 6.330297 
" clip-path="url(#p7de6080cc4)" style="fill: none; stroke: #b0b0b0; stroke-width: 0.8; stroke-linecap: square"/>
     </g>
     <g id="line2d_102">
      <g>
       <use xlink:href="#maf8a06b617" x="62.208" y="6.330297" style="stroke: #000000; stroke-width: 0.8"/>
      </g>
     </g>
     <g id="text_10">
      <!-- 1.0 -->
      <g transform="translate(29.763 12.409047) scale(0.16 -0.16)">
       <use xlink:href="#DejaVuSans-31"/>
       <use xlink:href="#DejaVuSans-2e" x="63.623047"/>
       <use xlink:href="#DejaVuSans-30" x="95.410156"/>
      </g>
     </g>
    </g>
    <g id="text_11">
     <!-- proportion of trials -->
     <g transform="translate(21.603625 241.61425) rotate(-90) scale(0.2 -0.2)">
      <defs>
       <path id="DejaVuSans-70" d="M 1159 525 
L 1159 -1331 
L 581 -1331 
L 581 3500 
L 1159 3500 
L 1159 2969 
Q 1341 3281 1617 3432 
Q 1894 3584 2278 3584 
Q 2916 3584 3314 3078 
Q 3713 2572 3713 1747 
Q 3713 922 3314 415 
Q 2916 -91 2278 -91 
Q 1894 -91 1617 61 
Q 1341 213 1159 525 
z
M 3116 1747 
Q 3116 2381 2855 2742 
Q 2594 3103 2138 3103 
Q 1681 3103 1420 2742 
Q 1159 2381 1159 1747 
Q 1159 1113 1420 752 
Q 1681 391 2138 391 
Q 2594 391 2855 752 
Q 3116 1113 3116 1747 
z
" transform="scale(0.015625)"/>
       <path id="DejaVuSans-72" d="M 2631 2963 
Q 2534 3019 2420 3045 
Q 2306 3072 2169 3072 
Q 1681 3072 1420 2755 
Q 1159 2438 1159 1844 
L 1159 0 
L 581 0 
L 581 3500 
L 1159 3500 
L 1159 2956 
Q 1341 3275 1631 3429 
Q 1922 3584 2338 3584 
Q 2397 3584 2469 3576 
Q 2541 3569 2628 3553 
L 2631 2963 
z
" transform="scale(0.015625)"/>
       <path id="DejaVuSans-74" d="M 1172 4494 
L 1172 3500 
L 2356 3500 
L 2356 3053 
L 1172 3053 
L 1172 1153 
Q 1172 725 1289 603 
Q 1406 481 1766 481 
L 2356 481 
L 2356 0 
L 1766 0 
Q 1100 0 847 248 
Q 594 497 594 1153 
L 594 3053 
L 172 3053 
L 172 3500 
L 594 3500 
L 594 4494 
L 1172 4494 
z
" transform="scale(0.015625)"/>
       <path id="DejaVuSans-69" d="M 603 3500 
L 1178 3500 
L 1178 0 
L 603 0 
L 603 3500 
z
M 603 4863 
L 1178 4863 
L 1178 4134 
L 603 4134 
L 603 4863 
z
" transform="scale(0.015625)"/>
       <path id="DejaVuSans-6e" d="M 3513 2113 
L 3513 0 
L 2938 0 
L 2938 2094 
Q 2938 2591 2744 2837 
Q 2550 3084 2163 3084 
Q 1697 3084 1428 2787 
Q 1159 2491 1159 1978 
L 1159 0 
L 581 0 
L 581 3500 
L 1159 3500 
L 1159 2956 
Q 1366 3272 1645 3428 
Q 1925 3584 2291 3584 
Q 2894 3584 3203 3211 
Q 3513 2838 3513 2113 
z
" transform="scale(0.015625)"/>
      </defs>
      <use xlink:href="#DejaVuSans-70"/>
      <use xlink:href="#DejaVuSans-72" x="63.476562"/>
      <use xlink:href="#DejaVuSans-6f" x="102.339844"/>
      <use xlink:href="#DejaVuSans-70" x="163.521484"/>
      <use xlink:href="#DejaVuSans-6f" x="226.998047"/>
      <use xlink:href="#DejaVuSans-72" x="288.179688"/>
      <use xlink:href="#DejaVuSans-74" x="329.292969"/>
      <use xlink:href="#DejaVuSans-69" x="368.501953"/>
      <use xlink:href="#DejaVuSans-6f" x="396.285156"/>
      <use xlink:href="#DejaVuSans-6e" x="457.466797"/>
      <use xlink:href="#DejaVuSans-20" x="520.845703"/>
      <use xlink:href="#DejaVuSans-6f" x="552.632812"/>
      <use xlink:href="#DejaVuSans-66" x="613.814453"/>
      <use xlink:href="#DejaVuSans-20" x="649.019531"/>
      <use xlink:href="#DejaVuSans-74" x="680.806641"/>
      <use xlink:href="#DejaVuSans-72" x="720.015625"/>
      <use xlink:href="#DejaVuSans-69" x="761.128906"/>
      <use xlink:href="#DejaVuSans-61" x="788.912109"/>
      <use xlink:href="#DejaVuSans-6c" x="850.191406"/>
      <use xlink:href="#DejaVuSans-73" x="877.974609"/>
     </g>
    </g>
   </g>
   <g id="line2d_103">
    <path d="M 174.960016 293.76 
L 174.960016 289.927604 
L 177.548665 289.927604 
L 177.548665 286.095208 
L 186.074252 286.095208 
L 186.074252 282.262812 
L 187.772872 282.262812 
L 187.772872 278.430416 
L 187.821787 278.430416 
L 187.821787 274.59802 
L 188.452451 274.59802 
L 188.452451 270.765624 
L 188.931094 270.765624 
L 188.931094 266.933228 
L 193.434554 266.933228 
L 193.434554 263.100832 
L 195.958024 263.100832 
L 195.958024 259.268436 
L 196.357355 259.268436 
L 196.357355 255.43604 
L 198.974786 255.43604 
L 198.974786 251.603644 
L 199.383 251.603644 
L 199.383 247.771248 
L 201.576149 247.771248 
L 201.576149 243.938851 
L 203.088638 243.938851 
L 203.088638 240.106455 
L 203.591827 240.106455 
L 203.591827 236.274059 
L 204.872071 236.274059 
L 204.872071 232.441663 
L 213.9968 232.441663 
L 213.9968 228.609267 
L 228.352283 228.609267 
L 228.352283 224.776871 
L 276.804339 224.776871 
L 276.804339 220.944475 
L 279.049706 220.944475 
L 279.049706 217.112079 
L 327.265832 217.112079 
L 327.265832 213.279683 
L 329.315105 213.279683 
L 329.315105 209.447287 
L 346.43386 209.447287 
L 346.43386 205.614891 
L 352.704601 205.614891 
L 352.704601 201.782495 
L 382.666646 201.782495 
L 382.666646 197.950099 
L 390.307301 197.950099 
L 390.307301 194.117703 
L 400.286194 194.117703 
L 400.286194 190.285307 
L 412.332972 190.285307 
L 412.332972 186.452911 
L 427.150999 186.452911 
L 427.150999 182.620515 
L 427.150999 182.620515 
L 427.150999 182.620515 
L 460.8 182.620515 
" clip-path="url(#p7de6080cc4)" style="fill: none; stroke: #000000; stroke-width: 1.5; stroke-linecap: square"/>
   </g>
   <g id="line2d_104">
    <defs>
     <path id="mdca301322a" d="M 0 14.142136 
L 8.485281 0 
L 0 -14.142136 
L -8.485281 0 
z
" style="stroke: #000000; stroke-width: 1.5; stroke-linejoin: miter"/>
    </defs>
    <g clip-path="url(#p7de6080cc4)">
     <use xlink:href="#mdca301322a" x="196.357355" y="259.268436" style="fill-opacity: 0; stroke: #000000; stroke-width: 1.5; stroke-linejoin: miter"/>
     <use xlink:href="#mdca301322a" x="228.352283" y="228.609267" style="fill-opacity: 0; stroke: #000000; stroke-width: 1.5; stroke-linejoin: miter"/>
     <use xlink:href="#mdca301322a" x="352.704601" y="205.614891" style="fill-opacity: 0; stroke: #000000; stroke-width: 1.5; stroke-linejoin: miter"/>
     <use xlink:href="#mdca301322a" x="412.332972" y="190.285307" style="fill-opacity: 0; stroke: #000000; stroke-width: 1.5; stroke-linejoin: miter"/>
     <use xlink:href="#mdca301322a" x="427.150999" y="182.620515" style="fill-opacity: 0; stroke: #000000; stroke-width: 1.5; stroke-linejoin: miter"/>
    </g>
   </g>
   <g id="line2d_105">
    <path clip-path="url(#p7de6080cc4)" style="fill: none; stroke: #000000; stroke-width: 1.5; stroke-linecap: square"/>
    <g clip-path="url(#p7de6080cc4)">
     <use xlink:href="#mdca301322a" x="-1" y="581.189703" style="fill-opacity: 0; stroke: #000000; stroke-width: 1.5; stroke-linejoin: miter"/>
     <use xlink:href="#mdca301322a" x="460.8" y="581.189703" style="fill-opacity: 0; stroke: #000000; stroke-width: 1.5; stroke-linejoin: miter"/>
    </g>
   </g>
   <g id="line2d_106">
    <path d="M 178.29458 293.76 
L 178.29458 289.927604 
L 178.845288 289.927604 
L 178.845288 286.095208 
L 180.629579 286.095208 
L 180.629579 282.262812 
L 180.861753 282.262812 
L 180.861753 278.430416 
L 181.607409 278.430416 
L 181.607409 274.59802 
L 182.618076 274.59802 
L 182.618076 270.765624 
L 183.278341 270.765624 
L 183.278341 266.933228 
L 183.658667 266.933228 
L 183.658667 263.100832 
L 185.302011 263.100832 
L 185.302011 259.268436 
L 188.114063 259.268436 
L 188.114063 255.43604 
L 189.357171 255.43604 
L 189.357171 251.603644 
L 189.451259 251.603644 
L 189.451259 247.771248 
L 190.288525 247.771248 
L 190.288525 243.938851 
L 192.222388 243.938851 
L 192.222388 240.106455 
L 194.653521 240.106455 
L 194.653521 236.274059 
L 202.408016 236.274059 
L 202.408016 232.441663 
L 207.68298 232.441663 
L 207.68298 228.609267 
L 213.789059 228.609267 
L 213.789059 224.776871 
L 322.3806 224.776871 
L 322.3806 220.944475 
L 328.679076 220.944475 
L 328.679076 217.112079 
L 339.685093 217.112079 
L 339.685093 213.279683 
L 341.520661 213.279683 
L 341.520661 209.447287 
L 349.101478 209.447287 
L 349.101478 205.614891 
L 353.902648 205.614891 
L 353.902648 201.782495 
L 361.770234 201.782495 
L 361.770234 197.950099 
L 378.003919 197.950099 
L 378.003919 194.117703 
L 396.427272 194.117703 
L 396.427272 190.285307 
L 396.583021 190.285307 
L 396.583021 186.452911 
L 408.849164 186.452911 
L 408.849164 182.620515 
L 408.849164 182.620515 
L 408.849164 182.620515 
L 460.8 182.620515 
" clip-path="url(#p7de6080cc4)" style="fill: none; stroke: #000000; stroke-width: 1.5; stroke-linecap: square"/>
   </g>
   <g id="line2d_107">
    <defs>
     <path id="mbd93104a4c" d="M 0 7.5 
C 1.989023 7.5 3.896849 6.709753 5.303301 5.303301 
C 6.709753 3.896849 7.5 1.989023 7.5 0 
C 7.5 -1.989023 6.709753 -3.896849 5.303301 -5.303301 
C 3.896849 -6.709753 1.989023 -7.5 0 -7.5 
C -1.989023 -7.5 -3.896849 -6.709753 -5.303301 -5.303301 
C -6.709753 -3.896849 -7.5 -1.989023 -7.5 0 
C -7.5 1.989023 -6.709753 3.896849 -5.303301 5.303301 
C -3.896849 6.709753 -1.989023 7.5 0 7.5 
z
" style="stroke: #000000; stroke-width: 1.5"/>
    </defs>
    <g clip-path="url(#p7de6080cc4)">
     <use xlink:href="#mbd93104a4c" x="207.68298" y="232.441663" style="fill-opacity: 0; stroke: #000000; stroke-width: 1.5"/>
     <use xlink:href="#mbd93104a4c" x="213.789059" y="228.609267" style="fill-opacity: 0; stroke: #000000; stroke-width: 1.5"/>
     <use xlink:href="#mbd93104a4c" x="361.770234" y="201.782495" style="fill-opacity: 0; stroke: #000000; stroke-width: 1.5"/>
     <use xlink:href="#mbd93104a4c" x="408.849164" y="186.452911" style="fill-opacity: 0; stroke: #000000; stroke-width: 1.5"/>
     <use xlink:href="#mbd93104a4c" x="408.849164" y="182.620515" style="fill-opacity: 0; stroke: #000000; stroke-width: 1.5"/>
    </g>
   </g>
   <g id="line2d_108">
    <path clip-path="url(#p7de6080cc4)" style="fill: none; stroke: #000000; stroke-width: 1.5; stroke-linecap: square"/>
   </g>
   <g id="line2d_109">
    <path d="M 271.64816 293.76 
L 271.64816 289.927604 
L 290.494501 289.927604 
L 290.494501 286.095208 
L 303.690988 286.095208 
L 303.690988 282.262812 
L 334.41688 282.262812 
L 334.41688 278.430416 
L 342.764276 278.430416 
L 342.764276 274.59802 
L 345.1851 274.59802 
L 345.1851 270.765624 
L 364.163124 270.765624 
L 364.163124 266.933228 
L 369.991168 266.933228 
L 369.991168 263.100832 
L 383.813125 263.100832 
L 383.813125 259.268436 
L 391.145306 259.268436 
L 391.145306 255.43604 
L 395.66292 255.43604 
L 395.66292 251.603644 
L 399.688121 251.603644 
L 399.688121 247.771248 
L 401.768413 247.771248 
L 401.768413 243.938851 
L 411.450122 243.938851 
L 411.450122 240.106455 
L 412.113497 240.106455 
L 412.113497 236.274059 
L 413.754535 236.274059 
L 413.754535 232.441663 
L 414.245501 232.441663 
L 414.245501 228.609267 
L 414.40493 228.609267 
L 414.40493 224.776871 
L 414.999673 224.776871 
L 414.999673 220.944475 
L 416.270699 220.944475 
L 416.270699 217.112079 
L 416.764704 217.112079 
L 416.764704 213.279683 
L 416.775288 213.279683 
L 416.775288 209.447287 
L 418.477547 209.447287 
L 418.477547 205.614891 
L 429.605685 205.614891 
L 429.605685 201.782495 
L 439.635971 201.782495 
L 439.635971 197.950099 
L 439.635971 197.950099 
L 439.635971 197.950099 
L 460.8 197.950099 
" clip-path="url(#p7de6080cc4)" style="fill: none; stroke: #00bfbf; stroke-width: 1.5; stroke-linecap: square"/>
   </g>
   <g id="line2d_110">
    <defs>
     <path id="mc84726be47" d="M 0 14.142136 
L 8.485281 0 
L 0 -14.142136 
L -8.485281 0 
z
" style="stroke: #00bfbf; stroke-width: 1.5; stroke-linejoin: miter"/>
    </defs>
    <g clip-path="url(#p7de6080cc4)">
     <use xlink:href="#mc84726be47" x="342.764276" y="278.430416" style="fill-opacity: 0; stroke: #00bfbf; stroke-width: 1.5; stroke-linejoin: miter"/>
     <use xlink:href="#mc84726be47" x="399.688121" y="251.603644" style="fill-opacity: 0; stroke: #00bfbf; stroke-width: 1.5; stroke-linejoin: miter"/>
     <use xlink:href="#mc84726be47" x="439.635971" y="201.782495" style="fill-opacity: 0; stroke: #00bfbf; stroke-width: 1.5; stroke-linejoin: miter"/>
     <use xlink:href="#mc84726be47" x="439.635971" y="197.950099" style="fill-opacity: 0; stroke: #00bfbf; stroke-width: 1.5; stroke-linejoin: miter"/>
    </g>
   </g>
   <g id="line2d_111">
    <path clip-path="url(#p7de6080cc4)" style="fill: none; stroke: #00bfbf; stroke-width: 1.5; stroke-linecap: square"/>
    <g clip-path="url(#p7de6080cc4)">
     <use xlink:href="#mc84726be47" x="-1" y="581.189703" style="fill-opacity: 0; stroke: #00bfbf; stroke-width: 1.5; stroke-linejoin: miter"/>
     <use xlink:href="#mc84726be47" x="460.8" y="581.189703" style="fill-opacity: 0; stroke: #00bfbf; stroke-width: 1.5; stroke-linejoin: miter"/>
    </g>
   </g>
   <g id="line2d_112">
    <path d="M 366.377187 293.76 
L 366.377187 289.927604 
L 371.426577 289.927604 
L 371.426577 286.095208 
L 384.167328 286.095208 
L 384.167328 282.262812 
L 397.332465 282.262812 
L 397.332465 278.430416 
L 397.616498 278.430416 
L 397.616498 274.59802 
L 400.469046 274.59802 
L 400.469046 270.765624 
L 401.848025 270.765624 
L 401.848025 266.933228 
L 410.143311 266.933228 
L 410.143311 263.100832 
L 411.941534 263.100832 
L 411.941534 259.268436 
L 412.894458 259.268436 
L 412.894458 255.43604 
L 416.994093 255.43604 
L 416.994093 251.603644 
L 420.38843 251.603644 
L 420.38843 247.771248 
L 420.74057 247.771248 
L 420.74057 243.938851 
L 421.598143 243.938851 
L 421.598143 240.106455 
L 425.159504 240.106455 
L 425.159504 236.274059 
L 425.588043 236.274059 
L 425.588043 232.441663 
L 426.091231 232.441663 
L 426.091231 228.609267 
L 426.685482 228.609267 
L 426.685482 224.776871 
L 428.496907 224.776871 
L 428.496907 220.944475 
L 437.8155 220.944475 
L 437.8155 217.112079 
L 437.8155 217.112079 
L 437.8155 217.112079 
L 460.8 217.112079 
" clip-path="url(#p7de6080cc4)" style="fill: none; stroke: #00bfbf; stroke-width: 1.5; stroke-linecap: square"/>
   </g>
   <g id="line2d_113">
    <defs>
     <path id="m3bf7584829" d="M 0 7.5 
C 1.989023 7.5 3.896849 6.709753 5.303301 5.303301 
C 6.709753 3.896849 7.5 1.989023 7.5 0 
C 7.5 -1.989023 6.709753 -3.896849 5.303301 -5.303301 
C 3.896849 -6.709753 1.989023 -7.5 0 -7.5 
C -1.989023 -7.5 -3.896849 -6.709753 -5.303301 -5.303301 
C -6.709753 -3.896849 -7.5 -1.989023 -7.5 0 
C -7.5 1.989023 -6.709753 3.896849 -5.303301 5.303301 
C -3.896849 6.709753 -1.989023 7.5 0 7.5 
z
" style="stroke: #00bfbf; stroke-width: 1.5"/>
    </defs>
    <g clip-path="url(#p7de6080cc4)">
     <use xlink:href="#m3bf7584829" x="401.848025" y="270.765624" style="fill-opacity: 0; stroke: #00bfbf; stroke-width: 1.5"/>
     <use xlink:href="#m3bf7584829" x="426.685482" y="228.609267" style="fill-opacity: 0; stroke: #00bfbf; stroke-width: 1.5"/>
     <use xlink:href="#m3bf7584829" x="437.8155" y="217.112079" style="fill-opacity: 0; stroke: #00bfbf; stroke-width: 1.5"/>
    </g>
   </g>
   <g id="line2d_114">
    <path clip-path="url(#p7de6080cc4)" style="fill: none; stroke: #00bfbf; stroke-width: 1.5; stroke-linecap: square"/>
   </g>
   <g id="line2d_115">
    <path d="M 305.723346 293.76 
L 305.723346 289.927604 
L 322.10711 289.927604 
L 322.10711 286.095208 
L 348.983184 286.095208 
L 348.983184 282.262812 
L 370.000575 282.262812 
L 370.000575 278.430416 
L 373.258786 278.430416 
L 373.258786 274.59802 
L 392.067572 274.59802 
L 392.067572 270.765624 
L 400.119799 270.765624 
L 400.119799 266.933228 
L 402.156322 266.933228 
L 402.156322 263.100832 
L 414.459535 263.100832 
L 414.459535 259.268436 
L 431.337127 259.268436 
L 431.337127 255.43604 
L 431.337127 255.43604 
L 431.337127 255.43604 
L 460.8 255.43604 
" clip-path="url(#p7de6080cc4)" style="fill: none; stroke: #bf00bf; stroke-width: 1.5; stroke-linecap: square"/>
   </g>
   <g id="line2d_116">
    <defs>
     <path id="m5cf0bce8fe" d="M 0 14.142136 
L 8.485281 0 
L 0 -14.142136 
L -8.485281 0 
z
" style="stroke: #bf00bf; stroke-width: 1.5; stroke-linejoin: miter"/>
    </defs>
    <g clip-path="url(#p7de6080cc4)">
     <use xlink:href="#m5cf0bce8fe" x="322.10711" y="289.927604" style="fill-opacity: 0; stroke: #bf00bf; stroke-width: 1.5; stroke-linejoin: miter"/>
     <use xlink:href="#m5cf0bce8fe" x="370.000575" y="282.262812" style="fill-opacity: 0; stroke: #bf00bf; stroke-width: 1.5; stroke-linejoin: miter"/>
     <use xlink:href="#m5cf0bce8fe" x="402.156322" y="266.933228" style="fill-opacity: 0; stroke: #bf00bf; stroke-width: 1.5; stroke-linejoin: miter"/>
     <use xlink:href="#m5cf0bce8fe" x="431.337127" y="255.43604" style="fill-opacity: 0; stroke: #bf00bf; stroke-width: 1.5; stroke-linejoin: miter"/>
    </g>
   </g>
   <g id="line2d_117">
    <path clip-path="url(#p7de6080cc4)" style="fill: none; stroke: #bf00bf; stroke-width: 1.5; stroke-linecap: square"/>
    <g clip-path="url(#p7de6080cc4)">
     <use xlink:href="#m5cf0bce8fe" x="-1" y="581.189703" style="fill-opacity: 0; stroke: #bf00bf; stroke-width: 1.5; stroke-linejoin: miter"/>
     <use xlink:href="#m5cf0bce8fe" x="460.8" y="581.189703" style="fill-opacity: 0; stroke: #bf00bf; stroke-width: 1.5; stroke-linejoin: miter"/>
    </g>
   </g>
   <g id="line2d_118">
    <path d="M 373.465234 293.76 
L 373.465234 289.927604 
L 398.232726 289.927604 
L 398.232726 286.095208 
L 402.361919 286.095208 
L 402.361919 282.262812 
L 404.259564 282.262812 
L 404.259564 278.430416 
L 412.888229 278.430416 
L 412.888229 274.59802 
L 416.31238 274.59802 
L 416.31238 270.765624 
L 426.595944 270.765624 
L 426.595944 266.933228 
L 426.595944 266.933228 
L 426.595944 266.933228 
L 460.8 266.933228 
" clip-path="url(#p7de6080cc4)" style="fill: none; stroke: #bf00bf; stroke-width: 1.5; stroke-linecap: square"/>
   </g>
   <g id="line2d_119">
    <defs>
     <path id="mc793156fff" d="M 0 7.5 
C 1.989023 7.5 3.896849 6.709753 5.303301 5.303301 
C 6.709753 3.896849 7.5 1.989023 7.5 0 
C 7.5 -1.989023 6.709753 -3.896849 5.303301 -5.303301 
C 3.896849 -6.709753 1.989023 -7.5 0 -7.5 
C -1.989023 -7.5 -3.896849 -6.709753 -5.303301 -5.303301 
C -6.709753 -3.896849 -7.5 -1.989023 -7.5 0 
C -7.5 1.989023 -6.709753 3.896849 -5.303301 5.303301 
C -3.896849 6.709753 -1.989023 7.5 0 7.5 
z
" style="stroke: #bf00bf; stroke-width: 1.5"/>
    </defs>
    <g clip-path="url(#p7de6080cc4)">
     <use xlink:href="#mc793156fff" x="404.259564" y="282.262812" style="fill-opacity: 0; stroke: #bf00bf; stroke-width: 1.5"/>
     <use xlink:href="#mc793156fff" x="426.595944" y="270.765624" style="fill-opacity: 0; stroke: #bf00bf; stroke-width: 1.5"/>
     <use xlink:href="#mc793156fff" x="426.595944" y="266.933228" style="fill-opacity: 0; stroke: #bf00bf; stroke-width: 1.5"/>
    </g>
   </g>
   <g id="line2d_120">
    <path clip-path="url(#p7de6080cc4)" style="fill: none; stroke: #bf00bf; stroke-width: 1.5; stroke-linecap: square"/>
   </g>
   <g id="line2d_121">
    <path d="M 309.305416 293.76 
L 309.305416 289.927604 
L 329.296167 289.927604 
L 329.296167 286.095208 
L 359.781913 286.095208 
L 359.781913 282.262812 
L 382.726698 282.262812 
L 382.726698 278.430416 
L 382.966036 278.430416 
L 382.966036 274.59802 
L 393.783134 274.59802 
L 393.783134 270.765624 
L 402.787048 270.765624 
L 402.787048 266.933228 
L 416.239698 266.933228 
L 416.239698 263.100832 
L 434.045266 263.100832 
L 434.045266 259.268436 
L 435.186319 259.268436 
L 435.186319 255.43604 
L 435.186319 255.43604 
L 435.186319 255.43604 
L 460.8 255.43604 
" clip-path="url(#p7de6080cc4)" style="fill: none; stroke: #ff0000; stroke-width: 3; stroke-linecap: square"/>
   </g>
   <g id="line2d_122">
    <defs>
     <path id="m68f523872e" d="M 0 14.142136 
L 8.485281 0 
L 0 -14.142136 
L -8.485281 0 
z
" style="stroke: #ff0000; stroke-width: 3; stroke-linejoin: miter"/>
    </defs>
    <g clip-path="url(#p7de6080cc4)">
     <use xlink:href="#m68f523872e" x="329.296167" y="289.927604" style="fill-opacity: 0; stroke: #ff0000; stroke-width: 3; stroke-linejoin: miter"/>
     <use xlink:href="#m68f523872e" x="382.726698" y="282.262812" style="fill-opacity: 0; stroke: #ff0000; stroke-width: 3; stroke-linejoin: miter"/>
     <use xlink:href="#m68f523872e" x="434.045266" y="263.100832" style="fill-opacity: 0; stroke: #ff0000; stroke-width: 3; stroke-linejoin: miter"/>
     <use xlink:href="#m68f523872e" x="435.186319" y="255.43604" style="fill-opacity: 0; stroke: #ff0000; stroke-width: 3; stroke-linejoin: miter"/>
    </g>
   </g>
   <g id="line2d_123">
    <path clip-path="url(#p7de6080cc4)" style="fill: none; stroke: #ff0000; stroke-width: 3; stroke-linecap: square"/>
    <g clip-path="url(#p7de6080cc4)">
     <use xlink:href="#m68f523872e" x="-1" y="581.189703" style="fill-opacity: 0; stroke: #ff0000; stroke-width: 3; stroke-linejoin: miter"/>
     <use xlink:href="#m68f523872e" x="460.8" y="581.189703" style="fill-opacity: 0; stroke: #ff0000; stroke-width: 3; stroke-linejoin: miter"/>
    </g>
   </g>
   <g id="line2d_124">
    <path d="M 374.418912 293.76 
L 374.418912 289.927604 
L 400.22384 289.927604 
L 400.22384 286.095208 
L 405.812157 286.095208 
L 405.812157 282.262812 
L 409.024235 282.262812 
L 409.024235 278.430416 
L 414.793588 278.430416 
L 414.793588 274.59802 
L 428.040104 274.59802 
L 428.040104 270.765624 
L 428.040104 270.765624 
L 428.040104 270.765624 
L 460.8 270.765624 
" clip-path="url(#p7de6080cc4)" style="fill: none; stroke: #ff0000; stroke-width: 3; stroke-linecap: square"/>
   </g>
   <g id="line2d_125">
    <defs>
     <path id="m8ba56caaf5" d="M 0 7.5 
C 1.989023 7.5 3.896849 6.709753 5.303301 5.303301 
C 6.709753 3.896849 7.5 1.989023 7.5 0 
C 7.5 -1.989023 6.709753 -3.896849 5.303301 -5.303301 
C 3.896849 -6.709753 1.989023 -7.5 0 -7.5 
C -1.989023 -7.5 -3.896849 -6.709753 -5.303301 -5.303301 
C -6.709753 -3.896849 -7.5 -1.989023 -7.5 0 
C -7.5 1.989023 -6.709753 3.896849 -5.303301 5.303301 
C -3.896849 6.709753 -1.989023 7.5 0 7.5 
z
" style="stroke: #ff0000; stroke-width: 3"/>
    </defs>
    <g clip-path="url(#p7de6080cc4)">
     <use xlink:href="#m8ba56caaf5" x="374.418912" y="293.76" style="fill-opacity: 0; stroke: #ff0000; stroke-width: 3"/>
     <use xlink:href="#m8ba56caaf5" x="409.024235" y="282.262812" style="fill-opacity: 0; stroke: #ff0000; stroke-width: 3"/>
     <use xlink:href="#m8ba56caaf5" x="428.040104" y="270.765624" style="fill-opacity: 0; stroke: #ff0000; stroke-width: 3"/>
    </g>
   </g>
   <g id="line2d_126">
    <path clip-path="url(#p7de6080cc4)" style="fill: none; stroke: #ff0000; stroke-width: 3; stroke-linecap: square"/>
   </g>
   <g id="line2d_127">
    <path d="M 441.819429 293.76 
L 441.819429 3.456 
" clip-path="url(#p7de6080cc4)" style="fill: none; stroke: #000000; stroke-width: 1.5; stroke-linecap: square"/>
    <defs>
     <path id="m8bac73371c" d="M -10 0 
L 10 0 
M 0 10 
L 0 -10 
" style="stroke: #000000; stroke-width: 3"/>
    </defs>
    <g clip-path="url(#p7de6080cc4)">
     <use xlink:href="#m8bac73371c" x="441.819429" y="293.76" style="stroke: #000000; stroke-width: 3"/>
     <use xlink:href="#m8bac73371c" x="441.819429" y="3.456" style="stroke: #000000; stroke-width: 3"/>
    </g>
   </g>
   <g id="line2d_128">
    <path d="M 441.813254 293.76 
L 441.813254 3.456 
" clip-path="url(#p7de6080cc4)" style="fill: none; stroke: #000000; stroke-width: 1.5; stroke-linecap: square"/>
    <defs>
     <path id="m9b8bafba40" d="M 0 7.5 
C 1.989023 7.5 3.896849 6.709753 5.303301 5.303301 
C 6.709753 3.896849 7.5 1.989023 7.5 0 
C 7.5 -1.989023 6.709753 -3.896849 5.303301 -5.303301 
C 3.896849 -6.709753 1.989023 -7.5 0 -7.5 
C -1.989023 -7.5 -3.896849 -6.709753 -5.303301 -5.303301 
C -6.709753 -3.896849 -7.5 -1.989023 -7.5 0 
C -7.5 1.989023 -6.709753 3.896849 -5.303301 5.303301 
C -3.896849 6.709753 -1.989023 7.5 0 7.5 
z
" style="stroke: #000000; stroke-width: 3"/>
    </defs>
    <g clip-path="url(#p7de6080cc4)">
     <use xlink:href="#m9b8bafba40" x="441.813254" y="293.76" style="fill-opacity: 0; stroke: #000000; stroke-width: 3"/>
     <use xlink:href="#m9b8bafba40" x="441.813254" y="3.456" style="fill-opacity: 0; stroke: #000000; stroke-width: 3"/>
    </g>
   </g>
   <g id="patch_3">
    <path d="M 62.208 293.76 
L 62.208 3.456 
" style="fill: none; stroke: #000000; stroke-width: 0.8; stroke-linejoin: miter; stroke-linecap: square"/>
   </g>
   <g id="patch_4">
    <path d="M 460.8 293.76 
L 460.8 3.456 
" style="fill: none; stroke: #000000; stroke-width: 0.8; stroke-linejoin: miter; stroke-linecap: square"/>
   </g>
   <g id="patch_5">
    <path d="M 62.208 293.76 
L 460.8 293.76 
" style="fill: none; stroke: #000000; stroke-width: 0.8; stroke-linejoin: miter; stroke-linecap: square"/>
   </g>
   <g id="patch_6">
    <path d="M 62.208 3.456 
L 460.8 3.456 
" style="fill: none; stroke: #000000; stroke-width: 0.8; stroke-linejoin: miter; stroke-linecap: square"/>
   </g>
   <g id="text_12">
    <!-- f20-f24 -->
    <g transform="translate(225.405563 24.458955) scale(0.2 -0.2)">
     <defs>
      <path id="DejaVuSans-2d" d="M 313 2009 
L 1997 2009 
L 1997 1497 
L 313 1497 
L 313 2009 
z
" transform="scale(0.015625)"/>
     </defs>
     <use xlink:href="#DejaVuSans-66"/>
     <use xlink:href="#DejaVuSans-32" x="35.205078"/>
     <use xlink:href="#DejaVuSans-30" x="98.828125"/>
     <use xlink:href="#DejaVuSans-2d" x="162.451172"/>
     <use xlink:href="#DejaVuSans-66" x="198.535156"/>
     <use xlink:href="#DejaVuSans-32" x="233.740234"/>
     <use xlink:href="#DejaVuSans-34" x="297.363281"/>
    </g>
   </g>
   <g id="text_13">
    <!-- absolute targets -->
    <g transform="translate(62.208 601.118162) scale(0.14 -0.14)">
     <defs>
      <path id="DejaVuSans-62" d="M 3116 1747 
Q 3116 2381 2855 2742 
Q 2594 3103 2138 3103 
Q 1681 3103 1420 2742 
Q 1159 2381 1159 1747 
Q 1159 1113 1420 752 
Q 1681 391 2138 391 
Q 2594 391 2855 752 
Q 3116 1113 3116 1747 
z
M 1159 2969 
Q 1341 3281 1617 3432 
Q 1894 3584 2278 3584 
Q 2916 3584 3314 3078 
Q 3713 2572 3713 1747 
Q 3713 922 3314 415 
Q 2916 -91 2278 -91 
Q 1894 -91 1617 61 
Q 1341 213 1159 525 
L 1159 0 
L 581 0 
L 581 4863 
L 1159 4863 
L 1159 2969 
z
" transform="scale(0.015625)"/>
      <path id="DejaVuSans-75" d="M 544 1381 
L 544 3500 
L 1119 3500 
L 1119 1403 
Q 1119 906 1312 657 
Q 1506 409 1894 409 
Q 2359 409 2629 706 
Q 2900 1003 2900 1516 
L 2900 3500 
L 3475 3500 
L 3475 0 
L 2900 0 
L 2900 538 
Q 2691 219 2414 64 
Q 2138 -91 1772 -91 
Q 1169 -91 856 284 
Q 544 659 544 1381 
z
M 1991 3584 
L 1991 3584 
z
" transform="scale(0.015625)"/>
      <path id="DejaVuSans-65" d="M 3597 1894 
L 3597 1613 
L 953 1613 
Q 991 1019 1311 708 
Q 1631 397 2203 397 
Q 2534 397 2845 478 
Q 3156 559 3463 722 
L 3463 178 
Q 3153 47 2828 -22 
Q 2503 -91 2169 -91 
Q 1331 -91 842 396 
Q 353 884 353 1716 
Q 353 2575 817 3079 
Q 1281 3584 2069 3584 
Q 2775 3584 3186 3129 
Q 3597 2675 3597 1894 
z
M 3022 2063 
Q 3016 2534 2758 2815 
Q 2500 3097 2075 3097 
Q 1594 3097 1305 2825 
Q 1016 2553 972 2059 
L 3022 2063 
z
" transform="scale(0.015625)"/>
     </defs>
     <use xlink:href="#DejaVuSans-61"/>
     <use xlink:href="#DejaVuSans-62" x="61.279297"/>
     <use xlink:href="#DejaVuSans-73" x="124.755859"/>
     <use xlink:href="#DejaVuSans-6f" x="176.855469"/>
     <use xlink:href="#DejaVuSans-6c" x="238.037109"/>
     <use xlink:href="#DejaVuSans-75" x="265.820312"/>
     <use xlink:href="#DejaVuSans-74" x="329.199219"/>
     <use xlink:href="#DejaVuSans-65" x="368.408203"/>
     <use xlink:href="#DejaVuSans-20" x="429.931641"/>
     <use xlink:href="#DejaVuSans-74" x="461.71875"/>
     <use xlink:href="#DejaVuSans-61" x="500.927734"/>
     <use xlink:href="#DejaVuSans-72" x="562.207031"/>
     <use xlink:href="#DejaVuSans-67" x="601.570312"/>
     <use xlink:href="#DejaVuSans-65" x="665.046875"/>
     <use xlink:href="#DejaVuSans-74" x="726.570312"/>
     <use xlink:href="#DejaVuSans-73" x="765.779297"/>
    </g>
   </g>
   <g id="text_14">
    <!-- v2.6.3 -->
    <g style="fill: #808080" transform="translate(245.82275 288.777272) scale(0.1 -0.1)">
     <defs>
      <path id="DejaVuSans-33" d="M 2597 2516 
Q 3050 2419 3304 2112 
Q 3559 1806 3559 1356 
Q 3559 666 3084 287 
Q 2609 -91 1734 -91 
Q 1441 -91 1130 -33 
Q 819 25 488 141 
L 488 750 
Q 750 597 1062 519 
Q 1375 441 1716 441 
Q 2309 441 2620 675 
Q 2931 909 2931 1356 
Q 2931 1769 2642 2001 
Q 2353 2234 1838 2234 
L 1294 2234 
L 1294 2753 
L 1863 2753 
Q 2328 2753 2575 2939 
Q 2822 3125 2822 3475 
Q 2822 3834 2567 4026 
Q 2313 4219 1838 4219 
Q 1578 4219 1281 4162 
Q 984 4106 628 3988 
L 628 4550 
Q 988 4650 1302 4700 
Q 1616 4750 1894 4750 
Q 2613 4750 3031 4423 
Q 3450 4097 3450 3541 
Q 3450 3153 3228 2886 
Q 3006 2619 2597 2516 
z
" transform="scale(0.015625)"/>
     </defs>
     <use xlink:href="#DejaVuSans-76"/>
     <use xlink:href="#DejaVuSans-32" x="59.179688"/>
     <use xlink:href="#DejaVuSans-2e" x="122.802734"/>
     <use xlink:href="#DejaVuSans-36" x="154.589844"/>
     <use xlink:href="#DejaVuSans-2e" x="218.212891"/>
     <use xlink:href="#DejaVuSans-33" x="250"/>
    </g>
   </g>
   <g id="legend_1">
    <g id="patch_7">
     <path d="M 76.208 136.881 
L 160.148625 136.881 
Q 164.148625 136.881 164.148625 132.881 
L 164.148625 17.456 
Q 164.148625 13.456 160.148625 13.456 
L 76.208 13.456 
Q 72.208 13.456 72.208 17.456 
L 72.208 132.881 
Q 72.208 136.881 76.208 136.881 
z
" style="fill: #ffffff; opacity: 0.2; stroke: #cccccc; stroke-linejoin: miter"/>
    </g>
    <g id="line2d_129">
     <path d="M 80.208 29.652875 
L 80.208 29.652875 
L 100.208 29.652875 
L 100.208 29.652875 
L 120.208 29.652875 
" style="fill: none; stroke: #000000; stroke-width: 1.5; stroke-linecap: square"/>
    </g>
    <g id="text_15">
     <!-- 1 -->
     <g transform="translate(136.208 36.652875) scale(0.2 -0.2)">
      <use xlink:href="#DejaVuSans-31"/>
     </g>
    </g>
    <g id="line2d_130">
     <path d="M 80.208 59.009125 
L 80.208 59.009125 
L 100.208 59.009125 
L 100.208 59.009125 
L 120.208 59.009125 
" style="fill: none; stroke: #00bfbf; stroke-width: 1.5; stroke-linecap: square"/>
    </g>
    <g id="text_16">
     <!-- -1 -->
     <g transform="translate(136.208 66.009125) scale(0.2 -0.2)">
      <use xlink:href="#DejaVuSans-2d"/>
      <use xlink:href="#DejaVuSans-31" x="36.083984"/>
     </g>
    </g>
    <g id="line2d_131">
     <path d="M 80.208 88.365375 
L 80.208 88.365375 
L 100.208 88.365375 
L 100.208 88.365375 
L 120.208 88.365375 
" style="fill: none; stroke: #bf00bf; stroke-width: 1.5; stroke-linecap: square"/>
    </g>
    <g id="text_17">
     <!-- -4 -->
     <g transform="translate(136.208 95.365375) scale(0.2 -0.2)">
      <use xlink:href="#DejaVuSans-2d"/>
      <use xlink:href="#DejaVuSans-34" x="36.083984"/>
     </g>
    </g>
    <g id="line2d_132">
     <path d="M 80.208 117.721625 
L 80.208 117.721625 
L 100.208 117.721625 
L 100.208 117.721625 
L 120.208 117.721625 
" style="fill: none; stroke: #ff0000; stroke-width: 3; stroke-linecap: square"/>
    </g>
    <g id="text_18">
     <!-- -8 -->
     <g transform="translate(136.208 124.721625) scale(0.2 -0.2)">
      <use xlink:href="#DejaVuSans-2d"/>
      <use xlink:href="#DejaVuSans-38" x="36.083984"/>
     </g>
    </g>
   </g>
  </g>
 </g>
 <defs>
  <clipPath id="p7de6080cc4">
   <rect x="62.208" y="3.456" width="398.592" height="290.304"/>
  </clipPath>
 </defs>
</svg>
