<?xml version="1.0" encoding="utf-8" standalone="no"?>
<!DOCTYPE svg PUBLIC "-//W3C//DTD SVG 1.1//EN"
  "http://www.w3.org/Graphics/SVG/1.1/DTD/svg11.dtd">
<svg xmlns:xlink="http://www.w3.org/1999/xlink" width="460.8pt" height="345.6pt" viewBox="0 0 460.8 345.6" xmlns="http://www.w3.org/2000/svg" version="1.1">
 <metadata>
  <rdf:RDF xmlns:dc="http://purl.org/dc/elements/1.1/" xmlns:cc="http://creativecommons.org/ns#" xmlns:rdf="http://www.w3.org/1999/02/22-rdf-syntax-ns#">
   <cc:Work>
    <dc:type rdf:resource="http://purl.org/dc/dcmitype/StillImage"/>
    <dc:date>2024-06-05T13:43:25.191370</dc:date>
    <dc:format>image/svg+xml</dc:format>
    <dc:creator>
     <cc:Agent>
      <dc:title>Matplotlib v3.7.1, https://matplotlib.org/</dc:title>
     </cc:Agent>
    </dc:creator>
   </cc:Work>
  </rdf:RDF>
 </metadata>
 <defs>
  <style type="text/css">*{stroke-linejoin: round; stroke-linecap: butt}</style>
 </defs>
 <g id="figure_1">
  <g id="patch_1">
   <path d="M 0 345.6 
L 460.8 345.6 
L 460.8 0 
L 0 0 
z
" style="fill: #ffffff"/>
  </g>
  <g id="axes_1">
   <g id="patch_2">
    <path d="M 62.208 293.76 
L 460.8 293.76 
L 460.8 3.456 
L 62.208 3.456 
z
" style="fill: #ffffff"/>
   </g>
   <g id="line2d_1"/>
   <g id="line2d_2"/>
   <g id="line2d_3"/>
   <g id="line2d_4"/>
   <g id="line2d_5">
    <path d="M 411.113086 293.76 
L 411.113086 289.927604 
L 412.55882 289.927604 
L 412.55882 286.095208 
L 412.767612 286.095208 
L 412.767612 282.262812 
L 442.093285 282.262812 
L 442.093285 278.430416 
L 442.943274 278.430416 
L 443.0371 270.765624 
L 443.165089 270.765624 
L 443.165089 266.933228 
L 443.619751 266.933228 
L 443.720601 259.268436 
L 444.212151 259.268436 
L 444.212151 255.43604 
L 444.707119 255.43604 
L 444.707119 251.603644 
L 445.924075 251.603644 
L 445.924075 247.771248 
L 447.136889 247.771248 
L 447.136889 243.938851 
L 447.944439 243.938851 
L 447.944439 240.106455 
L 448.483806 240.106455 
L 448.565927 232.441663 
L 448.766127 232.441663 
L 448.766127 228.609267 
L 449.478283 228.609267 
L 449.478283 224.776871 
L 450.954443 224.776871 
L 450.954443 220.944475 
L 458.931863 220.944475 
L 458.931863 217.112079 
L 461.8 217.112079 
L 461.8 217.112079 
" clip-path="url(#p41262b971c)" style="fill: none; stroke: #f5deb3; stroke-width: 1.5; stroke-linecap: square"/>
   </g>
   <g id="line2d_6"/>
   <g id="line2d_7"/>
   <g id="line2d_8"/>
   <g id="line2d_9"/>
   <g id="line2d_10"/>
   <g id="line2d_11"/>
   <g id="line2d_12"/>
   <g id="line2d_13"/>
   <g id="line2d_14"/>
   <g id="line2d_15"/>
   <g id="line2d_16"/>
   <g id="line2d_17">
    <path d="M 428.077036 293.76 
L 428.077036 289.927604 
L 429.236837 289.927604 
L 429.236837 286.095208 
L 430.927797 286.095208 
L 430.927797 282.262812 
L 431.837074 282.262812 
L 431.837074 278.430416 
L 431.935162 278.430416 
L 431.935162 274.59802 
L 432.255559 274.59802 
L 432.255559 270.765624 
L 432.769556 270.765624 
L 432.769556 266.933228 
L 432.833597 266.933228 
L 432.833597 263.100832 
L 434.031096 263.100832 
L 434.031096 259.268436 
L 434.12795 259.268436 
L 434.12795 255.43604 
L 436.711312 255.43604 
L 436.711312 251.603644 
L 461.8 251.603644 
" clip-path="url(#p41262b971c)" style="fill: none; stroke: #f5deb3; stroke-width: 1.5; stroke-linecap: square"/>
   </g>
   <g id="line2d_18"/>
   <g id="line2d_19">
    <path clip-path="url(#p41262b971c)" style="fill: none; stroke: #f5deb3; stroke-width: 1.5; stroke-linecap: square"/>
   </g>
   <g id="line2d_20"/>
   <g id="matplotlib.axis_1">
    <g id="xtick_1">
     <g id="line2d_21">
      <path d="M 157.099119 293.76 
L 157.099119 3.456 
" clip-path="url(#p41262b971c)" style="fill: none; stroke: #b0b0b0; stroke-width: 0.8; stroke-linecap: square"/>
     </g>
     <g id="line2d_22">
      <defs>
       <path id="m2f9abf68df" d="M 0 0 
L 0 3.5 
" style="stroke: #000000; stroke-width: 0.8"/>
      </defs>
      <g>
       <use xlink:href="#m2f9abf68df" x="157.099119" y="293.76" style="stroke: #000000; stroke-width: 0.8"/>
      </g>
     </g>
     <g id="text_1">
      <!-- 1 -->
      <g transform="translate(150.736619 315.956875) scale(0.2 -0.2)">
       <defs>
        <path id="DejaVuSans-31" d="M 794 531 
L 1825 531 
L 1825 4091 
L 703 3866 
L 703 4441 
L 1819 4666 
L 2450 4666 
L 2450 531 
L 3481 531 
L 3481 0 
L 794 0 
L 794 531 
z
" transform="scale(0.015625)"/>
       </defs>
       <use xlink:href="#DejaVuSans-31"/>
      </g>
     </g>
    </g>
    <g id="xtick_2">
     <g id="line2d_23">
      <path d="M 346.881356 293.76 
L 346.881356 3.456 
" clip-path="url(#p41262b971c)" style="fill: none; stroke: #b0b0b0; stroke-width: 0.8; stroke-linecap: square"/>
     </g>
     <g id="line2d_24">
      <g>
       <use xlink:href="#m2f9abf68df" x="346.881356" y="293.76" style="stroke: #000000; stroke-width: 0.8"/>
      </g>
     </g>
     <g id="text_2">
      <!-- 3 -->
      <g transform="translate(340.518856 315.956875) scale(0.2 -0.2)">
       <defs>
        <path id="DejaVuSans-33" d="M 2597 2516 
Q 3050 2419 3304 2112 
Q 3559 1806 3559 1356 
Q 3559 666 3084 287 
Q 2609 -91 1734 -91 
Q 1441 -91 1130 -33 
Q 819 25 488 141 
L 488 750 
Q 750 597 1062 519 
Q 1375 441 1716 441 
Q 2309 441 2620 675 
Q 2931 909 2931 1356 
Q 2931 1769 2642 2001 
Q 2353 2234 1838 2234 
L 1294 2234 
L 1294 2753 
L 1863 2753 
Q 2328 2753 2575 2939 
Q 2822 3125 2822 3475 
Q 2822 3834 2567 4026 
Q 2313 4219 1838 4219 
Q 1578 4219 1281 4162 
Q 984 4106 628 3988 
L 628 4550 
Q 988 4650 1302 4700 
Q 1616 4750 1894 4750 
Q 2613 4750 3031 4423 
Q 3450 4097 3450 3541 
Q 3450 3153 3228 2886 
Q 3006 2619 2597 2516 
z
" transform="scale(0.015625)"/>
       </defs>
       <use xlink:href="#DejaVuSans-33"/>
      </g>
     </g>
    </g>
    <g id="xtick_3">
     <g id="line2d_25">
      <path d="M 90.773073 293.76 
L 90.773073 3.456 
" clip-path="url(#p41262b971c)" style="fill: none; stroke: #b0b0b0; stroke-width: 0.8; stroke-linecap: square"/>
     </g>
     <g id="line2d_26">
      <defs>
       <path id="mf42829369d" d="M 0 0 
L 0 2 
" style="stroke: #000000; stroke-width: 0.6"/>
      </defs>
      <g>
       <use xlink:href="#mf42829369d" x="90.773073" y="293.76" style="stroke: #000000; stroke-width: 0.6"/>
      </g>
     </g>
    </g>
    <g id="xtick_4">
     <g id="line2d_27">
      <path d="M 107.48257 293.76 
L 107.48257 3.456 
" clip-path="url(#p41262b971c)" style="fill: none; stroke: #b0b0b0; stroke-width: 0.8; stroke-linecap: square"/>
     </g>
     <g id="line2d_28">
      <g>
       <use xlink:href="#mf42829369d" x="107.48257" y="293.76" style="stroke: #000000; stroke-width: 0.6"/>
      </g>
     </g>
    </g>
    <g id="xtick_5">
     <g id="line2d_29">
      <path d="M 119.338146 293.76 
L 119.338146 3.456 
" clip-path="url(#p41262b971c)" style="fill: none; stroke: #b0b0b0; stroke-width: 0.8; stroke-linecap: square"/>
     </g>
     <g id="line2d_30">
      <g>
       <use xlink:href="#mf42829369d" x="119.338146" y="293.76" style="stroke: #000000; stroke-width: 0.6"/>
      </g>
     </g>
    </g>
    <g id="xtick_6">
     <g id="line2d_31">
      <path d="M 128.534046 293.76 
L 128.534046 3.456 
" clip-path="url(#p41262b971c)" style="fill: none; stroke: #b0b0b0; stroke-width: 0.8; stroke-linecap: square"/>
     </g>
     <g id="line2d_32">
      <g>
       <use xlink:href="#mf42829369d" x="128.534046" y="293.76" style="stroke: #000000; stroke-width: 0.6"/>
      </g>
     </g>
    </g>
    <g id="xtick_7">
     <g id="line2d_33">
      <path d="M 136.047643 293.76 
L 136.047643 3.456 
" clip-path="url(#p41262b971c)" style="fill: none; stroke: #b0b0b0; stroke-width: 0.8; stroke-linecap: square"/>
     </g>
     <g id="line2d_34">
      <g>
       <use xlink:href="#mf42829369d" x="136.047643" y="293.76" style="stroke: #000000; stroke-width: 0.6"/>
      </g>
     </g>
    </g>
    <g id="xtick_8">
     <g id="line2d_35">
      <path d="M 142.400299 293.76 
L 142.400299 3.456 
" clip-path="url(#p41262b971c)" style="fill: none; stroke: #b0b0b0; stroke-width: 0.8; stroke-linecap: square"/>
     </g>
     <g id="line2d_36">
      <g>
       <use xlink:href="#mf42829369d" x="142.400299" y="293.76" style="stroke: #000000; stroke-width: 0.6"/>
      </g>
     </g>
    </g>
    <g id="xtick_9">
     <g id="line2d_37">
      <path d="M 147.903219 293.76 
L 147.903219 3.456 
" clip-path="url(#p41262b971c)" style="fill: none; stroke: #b0b0b0; stroke-width: 0.8; stroke-linecap: square"/>
     </g>
     <g id="line2d_38">
      <g>
       <use xlink:href="#mf42829369d" x="147.903219" y="293.76" style="stroke: #000000; stroke-width: 0.6"/>
      </g>
     </g>
    </g>
    <g id="xtick_10">
     <g id="line2d_39">
      <path d="M 152.757139 293.76 
L 152.757139 3.456 
" clip-path="url(#p41262b971c)" style="fill: none; stroke: #b0b0b0; stroke-width: 0.8; stroke-linecap: square"/>
     </g>
     <g id="line2d_40">
      <g>
       <use xlink:href="#mf42829369d" x="152.757139" y="293.76" style="stroke: #000000; stroke-width: 0.6"/>
      </g>
     </g>
    </g>
    <g id="xtick_11">
     <g id="line2d_41">
      <path d="M 185.664192 293.76 
L 185.664192 3.456 
" clip-path="url(#p41262b971c)" style="fill: none; stroke: #b0b0b0; stroke-width: 0.8; stroke-linecap: square"/>
     </g>
     <g id="line2d_42">
      <g>
       <use xlink:href="#mf42829369d" x="185.664192" y="293.76" style="stroke: #000000; stroke-width: 0.6"/>
      </g>
     </g>
    </g>
    <g id="xtick_12">
     <g id="line2d_43">
      <path d="M 202.373688 293.76 
L 202.373688 3.456 
" clip-path="url(#p41262b971c)" style="fill: none; stroke: #b0b0b0; stroke-width: 0.8; stroke-linecap: square"/>
     </g>
     <g id="line2d_44">
      <g>
       <use xlink:href="#mf42829369d" x="202.373688" y="293.76" style="stroke: #000000; stroke-width: 0.6"/>
      </g>
     </g>
    </g>
    <g id="xtick_13">
     <g id="line2d_45">
      <path d="M 214.229265 293.76 
L 214.229265 3.456 
" clip-path="url(#p41262b971c)" style="fill: none; stroke: #b0b0b0; stroke-width: 0.8; stroke-linecap: square"/>
     </g>
     <g id="line2d_46">
      <g>
       <use xlink:href="#mf42829369d" x="214.229265" y="293.76" style="stroke: #000000; stroke-width: 0.6"/>
      </g>
     </g>
    </g>
    <g id="xtick_14">
     <g id="line2d_47">
      <path d="M 223.425164 293.76 
L 223.425164 3.456 
" clip-path="url(#p41262b971c)" style="fill: none; stroke: #b0b0b0; stroke-width: 0.8; stroke-linecap: square"/>
     </g>
     <g id="line2d_48">
      <g>
       <use xlink:href="#mf42829369d" x="223.425164" y="293.76" style="stroke: #000000; stroke-width: 0.6"/>
      </g>
     </g>
    </g>
    <g id="xtick_15">
     <g id="line2d_49">
      <path d="M 230.938762 293.76 
L 230.938762 3.456 
" clip-path="url(#p41262b971c)" style="fill: none; stroke: #b0b0b0; stroke-width: 0.8; stroke-linecap: square"/>
     </g>
     <g id="line2d_50">
      <g>
       <use xlink:href="#mf42829369d" x="230.938762" y="293.76" style="stroke: #000000; stroke-width: 0.6"/>
      </g>
     </g>
    </g>
    <g id="xtick_16">
     <g id="line2d_51">
      <path d="M 237.291417 293.76 
L 237.291417 3.456 
" clip-path="url(#p41262b971c)" style="fill: none; stroke: #b0b0b0; stroke-width: 0.8; stroke-linecap: square"/>
     </g>
     <g id="line2d_52">
      <g>
       <use xlink:href="#mf42829369d" x="237.291417" y="293.76" style="stroke: #000000; stroke-width: 0.6"/>
      </g>
     </g>
    </g>
    <g id="xtick_17">
     <g id="line2d_53">
      <path d="M 242.794338 293.76 
L 242.794338 3.456 
" clip-path="url(#p41262b971c)" style="fill: none; stroke: #b0b0b0; stroke-width: 0.8; stroke-linecap: square"/>
     </g>
     <g id="line2d_54">
      <g>
       <use xlink:href="#mf42829369d" x="242.794338" y="293.76" style="stroke: #000000; stroke-width: 0.6"/>
      </g>
     </g>
    </g>
    <g id="xtick_18">
     <g id="line2d_55">
      <path d="M 247.648258 293.76 
L 247.648258 3.456 
" clip-path="url(#p41262b971c)" style="fill: none; stroke: #b0b0b0; stroke-width: 0.8; stroke-linecap: square"/>
     </g>
     <g id="line2d_56">
      <g>
       <use xlink:href="#mf42829369d" x="247.648258" y="293.76" style="stroke: #000000; stroke-width: 0.6"/>
      </g>
     </g>
    </g>
    <g id="xtick_19">
     <g id="line2d_57">
      <path d="M 280.555311 293.76 
L 280.555311 3.456 
" clip-path="url(#p41262b971c)" style="fill: none; stroke: #b0b0b0; stroke-width: 0.8; stroke-linecap: square"/>
     </g>
     <g id="line2d_58">
      <g>
       <use xlink:href="#mf42829369d" x="280.555311" y="293.76" style="stroke: #000000; stroke-width: 0.6"/>
      </g>
     </g>
    </g>
    <g id="xtick_20">
     <g id="line2d_59">
      <path d="M 297.264807 293.76 
L 297.264807 3.456 
" clip-path="url(#p41262b971c)" style="fill: none; stroke: #b0b0b0; stroke-width: 0.8; stroke-linecap: square"/>
     </g>
     <g id="line2d_60">
      <g>
       <use xlink:href="#mf42829369d" x="297.264807" y="293.76" style="stroke: #000000; stroke-width: 0.6"/>
      </g>
     </g>
    </g>
    <g id="xtick_21">
     <g id="line2d_61">
      <path d="M 309.120384 293.76 
L 309.120384 3.456 
" clip-path="url(#p41262b971c)" style="fill: none; stroke: #b0b0b0; stroke-width: 0.8; stroke-linecap: square"/>
     </g>
     <g id="line2d_62">
      <g>
       <use xlink:href="#mf42829369d" x="309.120384" y="293.76" style="stroke: #000000; stroke-width: 0.6"/>
      </g>
     </g>
    </g>
    <g id="xtick_22">
     <g id="line2d_63">
      <path d="M 318.316283 293.76 
L 318.316283 3.456 
" clip-path="url(#p41262b971c)" style="fill: none; stroke: #b0b0b0; stroke-width: 0.8; stroke-linecap: square"/>
     </g>
     <g id="line2d_64">
      <g>
       <use xlink:href="#mf42829369d" x="318.316283" y="293.76" style="stroke: #000000; stroke-width: 0.6"/>
      </g>
     </g>
    </g>
    <g id="xtick_23">
     <g id="line2d_65">
      <path d="M 325.82988 293.76 
L 325.82988 3.456 
" clip-path="url(#p41262b971c)" style="fill: none; stroke: #b0b0b0; stroke-width: 0.8; stroke-linecap: square"/>
     </g>
     <g id="line2d_66">
      <g>
       <use xlink:href="#mf42829369d" x="325.82988" y="293.76" style="stroke: #000000; stroke-width: 0.6"/>
      </g>
     </g>
    </g>
    <g id="xtick_24">
     <g id="line2d_67">
      <path d="M 332.182536 293.76 
L 332.182536 3.456 
" clip-path="url(#p41262b971c)" style="fill: none; stroke: #b0b0b0; stroke-width: 0.8; stroke-linecap: square"/>
     </g>
     <g id="line2d_68">
      <g>
       <use xlink:href="#mf42829369d" x="332.182536" y="293.76" style="stroke: #000000; stroke-width: 0.6"/>
      </g>
     </g>
    </g>
    <g id="xtick_25">
     <g id="line2d_69">
      <path d="M 337.685457 293.76 
L 337.685457 3.456 
" clip-path="url(#p41262b971c)" style="fill: none; stroke: #b0b0b0; stroke-width: 0.8; stroke-linecap: square"/>
     </g>
     <g id="line2d_70">
      <g>
       <use xlink:href="#mf42829369d" x="337.685457" y="293.76" style="stroke: #000000; stroke-width: 0.6"/>
      </g>
     </g>
    </g>
    <g id="xtick_26">
     <g id="line2d_71">
      <path d="M 342.539377 293.76 
L 342.539377 3.456 
" clip-path="url(#p41262b971c)" style="fill: none; stroke: #b0b0b0; stroke-width: 0.8; stroke-linecap: square"/>
     </g>
     <g id="line2d_72">
      <g>
       <use xlink:href="#mf42829369d" x="342.539377" y="293.76" style="stroke: #000000; stroke-width: 0.6"/>
      </g>
     </g>
    </g>
    <g id="xtick_27">
     <g id="line2d_73">
      <path d="M 375.446429 293.76 
L 375.446429 3.456 
" clip-path="url(#p41262b971c)" style="fill: none; stroke: #b0b0b0; stroke-width: 0.8; stroke-linecap: square"/>
     </g>
     <g id="line2d_74">
      <g>
       <use xlink:href="#mf42829369d" x="375.446429" y="293.76" style="stroke: #000000; stroke-width: 0.6"/>
      </g>
     </g>
    </g>
    <g id="xtick_28">
     <g id="line2d_75">
      <path d="M 392.155926 293.76 
L 392.155926 3.456 
" clip-path="url(#p41262b971c)" style="fill: none; stroke: #b0b0b0; stroke-width: 0.8; stroke-linecap: square"/>
     </g>
     <g id="line2d_76">
      <g>
       <use xlink:href="#mf42829369d" x="392.155926" y="293.76" style="stroke: #000000; stroke-width: 0.6"/>
      </g>
     </g>
    </g>
    <g id="xtick_29">
     <g id="line2d_77">
      <path d="M 404.011503 293.76 
L 404.011503 3.456 
" clip-path="url(#p41262b971c)" style="fill: none; stroke: #b0b0b0; stroke-width: 0.8; stroke-linecap: square"/>
     </g>
     <g id="line2d_78">
      <g>
       <use xlink:href="#mf42829369d" x="404.011503" y="293.76" style="stroke: #000000; stroke-width: 0.6"/>
      </g>
     </g>
    </g>
    <g id="xtick_30">
     <g id="line2d_79">
      <path d="M 413.207402 293.76 
L 413.207402 3.456 
" clip-path="url(#p41262b971c)" style="fill: none; stroke: #b0b0b0; stroke-width: 0.8; stroke-linecap: square"/>
     </g>
     <g id="line2d_80">
      <g>
       <use xlink:href="#mf42829369d" x="413.207402" y="293.76" style="stroke: #000000; stroke-width: 0.6"/>
      </g>
     </g>
    </g>
    <g id="xtick_31">
     <g id="line2d_81">
      <path d="M 420.720999 293.76 
L 420.720999 3.456 
" clip-path="url(#p41262b971c)" style="fill: none; stroke: #b0b0b0; stroke-width: 0.8; stroke-linecap: square"/>
     </g>
     <g id="line2d_82">
      <g>
       <use xlink:href="#mf42829369d" x="420.720999" y="293.76" style="stroke: #000000; stroke-width: 0.6"/>
      </g>
     </g>
    </g>
    <g id="xtick_32">
     <g id="line2d_83">
      <path d="M 427.073655 293.76 
L 427.073655 3.456 
" clip-path="url(#p41262b971c)" style="fill: none; stroke: #b0b0b0; stroke-width: 0.8; stroke-linecap: square"/>
     </g>
     <g id="line2d_84">
      <g>
       <use xlink:href="#mf42829369d" x="427.073655" y="293.76" style="stroke: #000000; stroke-width: 0.6"/>
      </g>
     </g>
    </g>
    <g id="xtick_33">
     <g id="line2d_85">
      <path d="M 432.576576 293.76 
L 432.576576 3.456 
" clip-path="url(#p41262b971c)" style="fill: none; stroke: #b0b0b0; stroke-width: 0.8; stroke-linecap: square"/>
     </g>
     <g id="line2d_86">
      <g>
       <use xlink:href="#mf42829369d" x="432.576576" y="293.76" style="stroke: #000000; stroke-width: 0.6"/>
      </g>
     </g>
    </g>
    <g id="xtick_34">
     <g id="line2d_87">
      <path d="M 437.430496 293.76 
L 437.430496 3.456 
" clip-path="url(#p41262b971c)" style="fill: none; stroke: #b0b0b0; stroke-width: 0.8; stroke-linecap: square"/>
     </g>
     <g id="line2d_88">
      <g>
       <use xlink:href="#mf42829369d" x="437.430496" y="293.76" style="stroke: #000000; stroke-width: 0.6"/>
      </g>
     </g>
    </g>
    <g id="text_3">
     <!-- log10 of FEvals / DIM -->
     <g transform="translate(156.430563 339.313125) scale(0.2 -0.2)">
      <defs>
       <path id="DejaVuSans-6c" d="M 603 4863 
L 1178 4863 
L 1178 0 
L 603 0 
L 603 4863 
z
" transform="scale(0.015625)"/>
       <path id="DejaVuSans-6f" d="M 1959 3097 
Q 1497 3097 1228 2736 
Q 959 2375 959 1747 
Q 959 1119 1226 758 
Q 1494 397 1959 397 
Q 2419 397 2687 759 
Q 2956 1122 2956 1747 
Q 2956 2369 2687 2733 
Q 2419 3097 1959 3097 
z
M 1959 3584 
Q 2709 3584 3137 3096 
Q 3566 2609 3566 1747 
Q 3566 888 3137 398 
Q 2709 -91 1959 -91 
Q 1206 -91 779 398 
Q 353 888 353 1747 
Q 353 2609 779 3096 
Q 1206 3584 1959 3584 
z
" transform="scale(0.015625)"/>
       <path id="DejaVuSans-67" d="M 2906 1791 
Q 2906 2416 2648 2759 
Q 2391 3103 1925 3103 
Q 1463 3103 1205 2759 
Q 947 2416 947 1791 
Q 947 1169 1205 825 
Q 1463 481 1925 481 
Q 2391 481 2648 825 
Q 2906 1169 2906 1791 
z
M 3481 434 
Q 3481 -459 3084 -895 
Q 2688 -1331 1869 -1331 
Q 1566 -1331 1297 -1286 
Q 1028 -1241 775 -1147 
L 775 -588 
Q 1028 -725 1275 -790 
Q 1522 -856 1778 -856 
Q 2344 -856 2625 -561 
Q 2906 -266 2906 331 
L 2906 616 
Q 2728 306 2450 153 
Q 2172 0 1784 0 
Q 1141 0 747 490 
Q 353 981 353 1791 
Q 353 2603 747 3093 
Q 1141 3584 1784 3584 
Q 2172 3584 2450 3431 
Q 2728 3278 2906 2969 
L 2906 3500 
L 3481 3500 
L 3481 434 
z
" transform="scale(0.015625)"/>
       <path id="DejaVuSans-30" d="M 2034 4250 
Q 1547 4250 1301 3770 
Q 1056 3291 1056 2328 
Q 1056 1369 1301 889 
Q 1547 409 2034 409 
Q 2525 409 2770 889 
Q 3016 1369 3016 2328 
Q 3016 3291 2770 3770 
Q 2525 4250 2034 4250 
z
M 2034 4750 
Q 2819 4750 3233 4129 
Q 3647 3509 3647 2328 
Q 3647 1150 3233 529 
Q 2819 -91 2034 -91 
Q 1250 -91 836 529 
Q 422 1150 422 2328 
Q 422 3509 836 4129 
Q 1250 4750 2034 4750 
z
" transform="scale(0.015625)"/>
       <path id="DejaVuSans-20" transform="scale(0.015625)"/>
       <path id="DejaVuSans-66" d="M 2375 4863 
L 2375 4384 
L 1825 4384 
Q 1516 4384 1395 4259 
Q 1275 4134 1275 3809 
L 1275 3500 
L 2222 3500 
L 2222 3053 
L 1275 3053 
L 1275 0 
L 697 0 
L 697 3053 
L 147 3053 
L 147 3500 
L 697 3500 
L 697 3744 
Q 697 4328 969 4595 
Q 1241 4863 1831 4863 
L 2375 4863 
z
" transform="scale(0.015625)"/>
       <path id="DejaVuSans-46" d="M 628 4666 
L 3309 4666 
L 3309 4134 
L 1259 4134 
L 1259 2759 
L 3109 2759 
L 3109 2228 
L 1259 2228 
L 1259 0 
L 628 0 
L 628 4666 
z
" transform="scale(0.015625)"/>
       <path id="DejaVuSans-45" d="M 628 4666 
L 3578 4666 
L 3578 4134 
L 1259 4134 
L 1259 2753 
L 3481 2753 
L 3481 2222 
L 1259 2222 
L 1259 531 
L 3634 531 
L 3634 0 
L 628 0 
L 628 4666 
z
" transform="scale(0.015625)"/>
       <path id="DejaVuSans-76" d="M 191 3500 
L 800 3500 
L 1894 563 
L 2988 3500 
L 3597 3500 
L 2284 0 
L 1503 0 
L 191 3500 
z
" transform="scale(0.015625)"/>
       <path id="DejaVuSans-61" d="M 2194 1759 
Q 1497 1759 1228 1600 
Q 959 1441 959 1056 
Q 959 750 1161 570 
Q 1363 391 1709 391 
Q 2188 391 2477 730 
Q 2766 1069 2766 1631 
L 2766 1759 
L 2194 1759 
z
M 3341 1997 
L 3341 0 
L 2766 0 
L 2766 531 
Q 2569 213 2275 61 
Q 1981 -91 1556 -91 
Q 1019 -91 701 211 
Q 384 513 384 1019 
Q 384 1609 779 1909 
Q 1175 2209 1959 2209 
L 2766 2209 
L 2766 2266 
Q 2766 2663 2505 2880 
Q 2244 3097 1772 3097 
Q 1472 3097 1187 3025 
Q 903 2953 641 2809 
L 641 3341 
Q 956 3463 1253 3523 
Q 1550 3584 1831 3584 
Q 2591 3584 2966 3190 
Q 3341 2797 3341 1997 
z
" transform="scale(0.015625)"/>
       <path id="DejaVuSans-73" d="M 2834 3397 
L 2834 2853 
Q 2591 2978 2328 3040 
Q 2066 3103 1784 3103 
Q 1356 3103 1142 2972 
Q 928 2841 928 2578 
Q 928 2378 1081 2264 
Q 1234 2150 1697 2047 
L 1894 2003 
Q 2506 1872 2764 1633 
Q 3022 1394 3022 966 
Q 3022 478 2636 193 
Q 2250 -91 1575 -91 
Q 1294 -91 989 -36 
Q 684 19 347 128 
L 347 722 
Q 666 556 975 473 
Q 1284 391 1588 391 
Q 1994 391 2212 530 
Q 2431 669 2431 922 
Q 2431 1156 2273 1281 
Q 2116 1406 1581 1522 
L 1381 1569 
Q 847 1681 609 1914 
Q 372 2147 372 2553 
Q 372 3047 722 3315 
Q 1072 3584 1716 3584 
Q 2034 3584 2315 3537 
Q 2597 3491 2834 3397 
z
" transform="scale(0.015625)"/>
       <path id="DejaVuSans-2f" d="M 1625 4666 
L 2156 4666 
L 531 -594 
L 0 -594 
L 1625 4666 
z
" transform="scale(0.015625)"/>
       <path id="DejaVuSans-44" d="M 1259 4147 
L 1259 519 
L 2022 519 
Q 2988 519 3436 956 
Q 3884 1394 3884 2338 
Q 3884 3275 3436 3711 
Q 2988 4147 2022 4147 
L 1259 4147 
z
M 628 4666 
L 1925 4666 
Q 3281 4666 3915 4102 
Q 4550 3538 4550 2338 
Q 4550 1131 3912 565 
Q 3275 0 1925 0 
L 628 0 
L 628 4666 
z
" transform="scale(0.015625)"/>
       <path id="DejaVuSans-49" d="M 628 4666 
L 1259 4666 
L 1259 0 
L 628 0 
L 628 4666 
z
" transform="scale(0.015625)"/>
       <path id="DejaVuSans-4d" d="M 628 4666 
L 1569 4666 
L 2759 1491 
L 3956 4666 
L 4897 4666 
L 4897 0 
L 4281 0 
L 4281 4097 
L 3078 897 
L 2444 897 
L 1241 4097 
L 1241 0 
L 628 0 
L 628 4666 
z
" transform="scale(0.015625)"/>
      </defs>
      <use xlink:href="#DejaVuSans-6c"/>
      <use xlink:href="#DejaVuSans-6f" x="27.783203"/>
      <use xlink:href="#DejaVuSans-67" x="88.964844"/>
      <use xlink:href="#DejaVuSans-31" x="152.441406"/>
      <use xlink:href="#DejaVuSans-30" x="216.064453"/>
      <use xlink:href="#DejaVuSans-20" x="279.6875"/>
      <use xlink:href="#DejaVuSans-6f" x="311.474609"/>
      <use xlink:href="#DejaVuSans-66" x="372.65625"/>
      <use xlink:href="#DejaVuSans-20" x="407.861328"/>
      <use xlink:href="#DejaVuSans-46" x="439.648438"/>
      <use xlink:href="#DejaVuSans-45" x="497.167969"/>
      <use xlink:href="#DejaVuSans-76" x="560.351562"/>
      <use xlink:href="#DejaVuSans-61" x="619.53125"/>
      <use xlink:href="#DejaVuSans-6c" x="680.810547"/>
      <use xlink:href="#DejaVuSans-73" x="708.59375"/>
      <use xlink:href="#DejaVuSans-20" x="760.693359"/>
      <use xlink:href="#DejaVuSans-2f" x="792.480469"/>
      <use xlink:href="#DejaVuSans-20" x="826.171875"/>
      <use xlink:href="#DejaVuSans-44" x="857.958984"/>
      <use xlink:href="#DejaVuSans-49" x="934.960938"/>
      <use xlink:href="#DejaVuSans-4d" x="964.453125"/>
     </g>
    </g>
   </g>
   <g id="matplotlib.axis_2">
    <g id="ytick_1">
     <g id="line2d_89">
      <path d="M 62.208 293.76 
L 460.8 293.76 
" clip-path="url(#p41262b971c)" style="fill: none; stroke: #b0b0b0; stroke-width: 0.8; stroke-linecap: square"/>
     </g>
     <g id="line2d_90">
      <defs>
       <path id="m338990b523" d="M 0 0 
L -3.5 0 
" style="stroke: #000000; stroke-width: 0.8"/>
      </defs>
      <g>
       <use xlink:href="#m338990b523" x="62.208" y="293.76" style="stroke: #000000; stroke-width: 0.8"/>
      </g>
     </g>
     <g id="text_4">
      <!-- 0.0 -->
      <g transform="translate(29.763 299.83875) scale(0.16 -0.16)">
       <defs>
        <path id="DejaVuSans-2e" d="M 684 794 
L 1344 794 
L 1344 0 
L 684 0 
L 684 794 
z
" transform="scale(0.015625)"/>
       </defs>
       <use xlink:href="#DejaVuSans-30"/>
       <use xlink:href="#DejaVuSans-2e" x="63.623047"/>
       <use xlink:href="#DejaVuSans-30" x="95.410156"/>
      </g>
     </g>
    </g>
    <g id="ytick_2">
     <g id="line2d_91">
      <path d="M 62.208 236.274059 
L 460.8 236.274059 
" clip-path="url(#p41262b971c)" style="fill: none; stroke: #b0b0b0; stroke-width: 0.8; stroke-linecap: square"/>
     </g>
     <g id="line2d_92">
      <g>
       <use xlink:href="#m338990b523" x="62.208" y="236.274059" style="stroke: #000000; stroke-width: 0.8"/>
      </g>
     </g>
     <g id="text_5">
      <!-- 0.2 -->
      <g transform="translate(29.763 242.352809) scale(0.16 -0.16)">
       <defs>
        <path id="DejaVuSans-32" d="M 1228 531 
L 3431 531 
L 3431 0 
L 469 0 
L 469 531 
Q 828 903 1448 1529 
Q 2069 2156 2228 2338 
Q 2531 2678 2651 2914 
Q 2772 3150 2772 3378 
Q 2772 3750 2511 3984 
Q 2250 4219 1831 4219 
Q 1534 4219 1204 4116 
Q 875 4013 500 3803 
L 500 4441 
Q 881 4594 1212 4672 
Q 1544 4750 1819 4750 
Q 2544 4750 2975 4387 
Q 3406 4025 3406 3419 
Q 3406 3131 3298 2873 
Q 3191 2616 2906 2266 
Q 2828 2175 2409 1742 
Q 1991 1309 1228 531 
z
" transform="scale(0.015625)"/>
       </defs>
       <use xlink:href="#DejaVuSans-30"/>
       <use xlink:href="#DejaVuSans-2e" x="63.623047"/>
       <use xlink:href="#DejaVuSans-32" x="95.410156"/>
      </g>
     </g>
    </g>
    <g id="ytick_3">
     <g id="line2d_93">
      <path d="M 62.208 178.788119 
L 460.8 178.788119 
" clip-path="url(#p41262b971c)" style="fill: none; stroke: #b0b0b0; stroke-width: 0.8; stroke-linecap: square"/>
     </g>
     <g id="line2d_94">
      <g>
       <use xlink:href="#m338990b523" x="62.208" y="178.788119" style="stroke: #000000; stroke-width: 0.8"/>
      </g>
     </g>
     <g id="text_6">
      <!-- 0.4 -->
      <g transform="translate(29.763 184.866869) scale(0.16 -0.16)">
       <defs>
        <path id="DejaVuSans-34" d="M 2419 4116 
L 825 1625 
L 2419 1625 
L 2419 4116 
z
M 2253 4666 
L 3047 4666 
L 3047 1625 
L 3713 1625 
L 3713 1100 
L 3047 1100 
L 3047 0 
L 2419 0 
L 2419 1100 
L 313 1100 
L 313 1709 
L 2253 4666 
z
" transform="scale(0.015625)"/>
       </defs>
       <use xlink:href="#DejaVuSans-30"/>
       <use xlink:href="#DejaVuSans-2e" x="63.623047"/>
       <use xlink:href="#DejaVuSans-34" x="95.410156"/>
      </g>
     </g>
    </g>
    <g id="ytick_4">
     <g id="line2d_95">
      <path d="M 62.208 121.302178 
L 460.8 121.302178 
" clip-path="url(#p41262b971c)" style="fill: none; stroke: #b0b0b0; stroke-width: 0.8; stroke-linecap: square"/>
     </g>
     <g id="line2d_96">
      <g>
       <use xlink:href="#m338990b523" x="62.208" y="121.302178" style="stroke: #000000; stroke-width: 0.8"/>
      </g>
     </g>
     <g id="text_7">
      <!-- 0.6 -->
      <g transform="translate(29.763 127.380928) scale(0.16 -0.16)">
       <defs>
        <path id="DejaVuSans-36" d="M 2113 2584 
Q 1688 2584 1439 2293 
Q 1191 2003 1191 1497 
Q 1191 994 1439 701 
Q 1688 409 2113 409 
Q 2538 409 2786 701 
Q 3034 994 3034 1497 
Q 3034 2003 2786 2293 
Q 2538 2584 2113 2584 
z
M 3366 4563 
L 3366 3988 
Q 3128 4100 2886 4159 
Q 2644 4219 2406 4219 
Q 1781 4219 1451 3797 
Q 1122 3375 1075 2522 
Q 1259 2794 1537 2939 
Q 1816 3084 2150 3084 
Q 2853 3084 3261 2657 
Q 3669 2231 3669 1497 
Q 3669 778 3244 343 
Q 2819 -91 2113 -91 
Q 1303 -91 875 529 
Q 447 1150 447 2328 
Q 447 3434 972 4092 
Q 1497 4750 2381 4750 
Q 2619 4750 2861 4703 
Q 3103 4656 3366 4563 
z
" transform="scale(0.015625)"/>
       </defs>
       <use xlink:href="#DejaVuSans-30"/>
       <use xlink:href="#DejaVuSans-2e" x="63.623047"/>
       <use xlink:href="#DejaVuSans-36" x="95.410156"/>
      </g>
     </g>
    </g>
    <g id="ytick_5">
     <g id="line2d_97">
      <path d="M 62.208 63.816238 
L 460.8 63.816238 
" clip-path="url(#p41262b971c)" style="fill: none; stroke: #b0b0b0; stroke-width: 0.8; stroke-linecap: square"/>
     </g>
     <g id="line2d_98">
      <g>
       <use xlink:href="#m338990b523" x="62.208" y="63.816238" style="stroke: #000000; stroke-width: 0.8"/>
      </g>
     </g>
     <g id="text_8">
      <!-- 0.8 -->
      <g transform="translate(29.763 69.894988) scale(0.16 -0.16)">
       <defs>
        <path id="DejaVuSans-38" d="M 2034 2216 
Q 1584 2216 1326 1975 
Q 1069 1734 1069 1313 
Q 1069 891 1326 650 
Q 1584 409 2034 409 
Q 2484 409 2743 651 
Q 3003 894 3003 1313 
Q 3003 1734 2745 1975 
Q 2488 2216 2034 2216 
z
M 1403 2484 
Q 997 2584 770 2862 
Q 544 3141 544 3541 
Q 544 4100 942 4425 
Q 1341 4750 2034 4750 
Q 2731 4750 3128 4425 
Q 3525 4100 3525 3541 
Q 3525 3141 3298 2862 
Q 3072 2584 2669 2484 
Q 3125 2378 3379 2068 
Q 3634 1759 3634 1313 
Q 3634 634 3220 271 
Q 2806 -91 2034 -91 
Q 1263 -91 848 271 
Q 434 634 434 1313 
Q 434 1759 690 2068 
Q 947 2378 1403 2484 
z
M 1172 3481 
Q 1172 3119 1398 2916 
Q 1625 2713 2034 2713 
Q 2441 2713 2670 2916 
Q 2900 3119 2900 3481 
Q 2900 3844 2670 4047 
Q 2441 4250 2034 4250 
Q 1625 4250 1398 4047 
Q 1172 3844 1172 3481 
z
" transform="scale(0.015625)"/>
       </defs>
       <use xlink:href="#DejaVuSans-30"/>
       <use xlink:href="#DejaVuSans-2e" x="63.623047"/>
       <use xlink:href="#DejaVuSans-38" x="95.410156"/>
      </g>
     </g>
    </g>
    <g id="ytick_6">
     <g id="line2d_99">
      <path d="M 62.208 6.330297 
L 460.8 6.330297 
" clip-path="url(#p41262b971c)" style="fill: none; stroke: #b0b0b0; stroke-width: 0.8; stroke-linecap: square"/>
     </g>
     <g id="line2d_100">
      <g>
       <use xlink:href="#m338990b523" x="62.208" y="6.330297" style="stroke: #000000; stroke-width: 0.8"/>
      </g>
     </g>
     <g id="text_9">
      <!-- 1.0 -->
      <g transform="translate(29.763 12.409047) scale(0.16 -0.16)">
       <use xlink:href="#DejaVuSans-31"/>
       <use xlink:href="#DejaVuSans-2e" x="63.623047"/>
       <use xlink:href="#DejaVuSans-30" x="95.410156"/>
      </g>
     </g>
    </g>
    <g id="text_10">
     <!-- proportion of trials -->
     <g transform="translate(21.603625 241.61425) rotate(-90) scale(0.2 -0.2)">
      <defs>
       <path id="DejaVuSans-70" d="M 1159 525 
L 1159 -1331 
L 581 -1331 
L 581 3500 
L 1159 3500 
L 1159 2969 
Q 1341 3281 1617 3432 
Q 1894 3584 2278 3584 
Q 2916 3584 3314 3078 
Q 3713 2572 3713 1747 
Q 3713 922 3314 415 
Q 2916 -91 2278 -91 
Q 1894 -91 1617 61 
Q 1341 213 1159 525 
z
M 3116 1747 
Q 3116 2381 2855 2742 
Q 2594 3103 2138 3103 
Q 1681 3103 1420 2742 
Q 1159 2381 1159 1747 
Q 1159 1113 1420 752 
Q 1681 391 2138 391 
Q 2594 391 2855 752 
Q 3116 1113 3116 1747 
z
" transform="scale(0.015625)"/>
       <path id="DejaVuSans-72" d="M 2631 2963 
Q 2534 3019 2420 3045 
Q 2306 3072 2169 3072 
Q 1681 3072 1420 2755 
Q 1159 2438 1159 1844 
L 1159 0 
L 581 0 
L 581 3500 
L 1159 3500 
L 1159 2956 
Q 1341 3275 1631 3429 
Q 1922 3584 2338 3584 
Q 2397 3584 2469 3576 
Q 2541 3569 2628 3553 
L 2631 2963 
z
" transform="scale(0.015625)"/>
       <path id="DejaVuSans-74" d="M 1172 4494 
L 1172 3500 
L 2356 3500 
L 2356 3053 
L 1172 3053 
L 1172 1153 
Q 1172 725 1289 603 
Q 1406 481 1766 481 
L 2356 481 
L 2356 0 
L 1766 0 
Q 1100 0 847 248 
Q 594 497 594 1153 
L 594 3053 
L 172 3053 
L 172 3500 
L 594 3500 
L 594 4494 
L 1172 4494 
z
" transform="scale(0.015625)"/>
       <path id="DejaVuSans-69" d="M 603 3500 
L 1178 3500 
L 1178 0 
L 603 0 
L 603 3500 
z
M 603 4863 
L 1178 4863 
L 1178 4134 
L 603 4134 
L 603 4863 
z
" transform="scale(0.015625)"/>
       <path id="DejaVuSans-6e" d="M 3513 2113 
L 3513 0 
L 2938 0 
L 2938 2094 
Q 2938 2591 2744 2837 
Q 2550 3084 2163 3084 
Q 1697 3084 1428 2787 
Q 1159 2491 1159 1978 
L 1159 0 
L 581 0 
L 581 3500 
L 1159 3500 
L 1159 2956 
Q 1366 3272 1645 3428 
Q 1925 3584 2291 3584 
Q 2894 3584 3203 3211 
Q 3513 2838 3513 2113 
z
" transform="scale(0.015625)"/>
      </defs>
      <use xlink:href="#DejaVuSans-70"/>
      <use xlink:href="#DejaVuSans-72" x="63.476562"/>
      <use xlink:href="#DejaVuSans-6f" x="102.339844"/>
      <use xlink:href="#DejaVuSans-70" x="163.521484"/>
      <use xlink:href="#DejaVuSans-6f" x="226.998047"/>
      <use xlink:href="#DejaVuSans-72" x="288.179688"/>
      <use xlink:href="#DejaVuSans-74" x="329.292969"/>
      <use xlink:href="#DejaVuSans-69" x="368.501953"/>
      <use xlink:href="#DejaVuSans-6f" x="396.285156"/>
      <use xlink:href="#DejaVuSans-6e" x="457.466797"/>
      <use xlink:href="#DejaVuSans-20" x="520.845703"/>
      <use xlink:href="#DejaVuSans-6f" x="552.632812"/>
      <use xlink:href="#DejaVuSans-66" x="613.814453"/>
      <use xlink:href="#DejaVuSans-20" x="649.019531"/>
      <use xlink:href="#DejaVuSans-74" x="680.806641"/>
      <use xlink:href="#DejaVuSans-72" x="720.015625"/>
      <use xlink:href="#DejaVuSans-69" x="761.128906"/>
      <use xlink:href="#DejaVuSans-61" x="788.912109"/>
      <use xlink:href="#DejaVuSans-6c" x="850.191406"/>
      <use xlink:href="#DejaVuSans-73" x="877.974609"/>
     </g>
    </g>
   </g>
   <g id="line2d_101">
    <path d="M 202.95341 293.76 
L 202.95341 289.927604 
L 206.705364 289.927604 
L 206.705364 286.095208 
L 212.439503 286.095208 
L 212.439503 282.262812 
L 212.707628 282.262812 
L 212.707628 278.430416 
L 216.848677 278.430416 
L 216.848677 274.59802 
L 218.227249 274.59802 
L 218.227249 270.765624 
L 219.1975 270.765624 
L 219.1975 266.933228 
L 222.969335 266.933228 
L 222.969335 263.100832 
L 231.855724 263.100832 
L 231.855724 259.268436 
L 235.945032 259.268436 
L 235.945032 255.43604 
L 238.107497 255.43604 
L 238.107497 251.603644 
L 238.865252 251.603644 
L 238.865252 247.771248 
L 241.152261 247.771248 
L 241.152261 243.938851 
L 244.236923 243.938851 
L 244.236923 240.106455 
L 246.262992 240.106455 
L 246.262992 236.274059 
L 246.616633 236.274059 
L 246.616633 232.441663 
L 250.554034 232.441663 
L 250.554034 228.609267 
L 256.540832 228.609267 
L 256.540832 224.776871 
L 261.669577 224.776871 
L 261.669577 220.944475 
L 266.003409 220.944475 
L 266.003409 217.112079 
L 268.062942 217.112079 
L 268.062942 213.279683 
L 269.000843 213.279683 
L 269.000843 209.447287 
L 270.631839 209.447287 
L 270.631839 205.614891 
L 280.000398 205.614891 
L 280.000398 201.782495 
L 284.356473 201.782495 
L 284.356473 197.950099 
L 350.721958 197.950099 
L 350.721958 194.117703 
L 353.385917 194.117703 
L 353.385917 190.285307 
L 353.90786 190.285307 
L 353.90786 186.452911 
L 354.353722 186.452911 
L 354.353722 182.620515 
L 354.411263 182.620515 
L 354.411263 178.788119 
L 356.656706 178.788119 
L 356.656706 174.955723 
L 357.500536 174.955723 
L 357.500536 171.123327 
L 358.586497 171.123327 
L 358.586497 167.290931 
L 360.646667 167.290931 
L 360.646667 163.458535 
L 364.034901 163.458535 
L 364.034901 159.626139 
L 372.142706 159.626139 
L 372.142706 155.793743 
L 376.190732 155.793743 
L 376.190732 151.961347 
L 378.15807 151.961347 
L 378.15807 148.12895 
L 379.469184 148.12895 
L 379.469184 144.296554 
L 381.338047 144.296554 
L 381.338047 140.464158 
L 384.620482 140.464158 
L 384.620482 136.631762 
L 386.285182 136.631762 
L 386.285182 132.799366 
L 386.765494 132.799366 
L 386.765494 128.96697 
L 388.147241 128.96697 
L 388.147241 125.134574 
L 395.011531 125.134574 
L 395.011531 121.302178 
L 397.764828 121.302178 
L 397.764828 117.469782 
L 399.447706 117.469782 
L 399.447706 113.637386 
L 415.101739 113.637386 
L 415.101739 109.80499 
L 417.11965 109.80499 
L 417.11965 105.972594 
L 417.728095 105.972594 
L 417.728095 102.140198 
L 417.853463 102.140198 
L 417.853463 98.307802 
L 419.029394 98.307802 
L 419.029394 94.475406 
L 420.176006 94.475406 
L 420.176006 90.64301 
L 420.446206 90.64301 
L 420.446206 86.810614 
L 440.034436 86.810614 
L 440.034436 82.978218 
L 440.035296 82.978218 
L 440.035296 79.145822 
L 440.035296 79.145822 
L 440.035296 79.145822 
L 460.8 79.145822 
" clip-path="url(#p41262b971c)" style="fill: none; stroke: #000000; stroke-width: 1.5; stroke-linecap: square"/>
   </g>
   <g id="line2d_102">
    <defs>
     <path id="mac971a4eb0" d="M 0 14.142136 
L 8.485281 0 
L 0 -14.142136 
L -8.485281 0 
z
" style="stroke: #000000; stroke-width: 1.5; stroke-linejoin: miter"/>
    </defs>
    <g clip-path="url(#p41262b971c)">
     <use xlink:href="#mac971a4eb0" x="250.554034" y="232.441663" style="fill-opacity: 0; stroke: #000000; stroke-width: 1.5; stroke-linejoin: miter"/>
     <use xlink:href="#mac971a4eb0" x="284.356473" y="201.782495" style="fill-opacity: 0; stroke: #000000; stroke-width: 1.5; stroke-linejoin: miter"/>
     <use xlink:href="#mac971a4eb0" x="388.147241" y="128.96697" style="fill-opacity: 0; stroke: #000000; stroke-width: 1.5; stroke-linejoin: miter"/>
     <use xlink:href="#mac971a4eb0" x="440.035296" y="82.978218" style="fill-opacity: 0; stroke: #000000; stroke-width: 1.5; stroke-linejoin: miter"/>
     <use xlink:href="#mac971a4eb0" x="440.035296" y="79.145822" style="fill-opacity: 0; stroke: #000000; stroke-width: 1.5; stroke-linejoin: miter"/>
    </g>
   </g>
   <g id="line2d_103">
    <path clip-path="url(#p41262b971c)" style="fill: none; stroke: #000000; stroke-width: 1.5; stroke-linecap: square"/>
    <g clip-path="url(#p41262b971c)">
     <use xlink:href="#mac971a4eb0" x="-1" y="581.189703" style="fill-opacity: 0; stroke: #000000; stroke-width: 1.5; stroke-linejoin: miter"/>
     <use xlink:href="#mac971a4eb0" x="460.8" y="581.189703" style="fill-opacity: 0; stroke: #000000; stroke-width: 1.5; stroke-linejoin: miter"/>
    </g>
   </g>
   <g id="line2d_104">
    <path d="M 197.339076 293.76 
L 197.339076 289.927604 
L 206.457293 289.927604 
L 206.457293 286.095208 
L 209.600102 286.095208 
L 209.600102 282.262812 
L 209.80134 282.262812 
L 209.80134 278.430416 
L 214.048573 278.430416 
L 214.048573 274.59802 
L 218.945587 274.59802 
L 218.945587 270.765624 
L 221.462882 270.765624 
L 221.462882 266.933228 
L 224.221038 266.933228 
L 224.221038 263.100832 
L 234.63174 263.100832 
L 234.63174 259.268436 
L 236.7283 259.268436 
L 236.7283 255.43604 
L 244.024978 255.43604 
L 244.024978 251.603644 
L 246.34578 251.603644 
L 246.34578 247.771248 
L 247.842406 247.771248 
L 247.842406 243.938851 
L 248.092306 243.938851 
L 248.092306 240.106455 
L 248.844163 240.106455 
L 248.844163 236.274059 
L 250.22199 236.274059 
L 250.22199 232.441663 
L 250.340118 232.441663 
L 250.340118 228.609267 
L 251.949006 228.609267 
L 251.949006 224.776871 
L 252.796216 224.776871 
L 252.796216 220.944475 
L 257.344791 220.944475 
L 257.344791 217.112079 
L 268.341018 217.112079 
L 268.341018 213.279683 
L 269.014478 213.279683 
L 269.014478 209.447287 
L 269.616697 209.447287 
L 269.616697 205.614891 
L 280.873462 205.614891 
L 280.873462 201.782495 
L 353.983374 201.782495 
L 353.983374 197.950099 
L 356.372091 197.950099 
L 356.372091 194.117703 
L 356.601405 194.117703 
L 356.601405 190.285307 
L 358.019584 190.285307 
L 358.019584 186.452911 
L 358.3485 186.452911 
L 358.3485 182.620515 
L 358.445887 182.620515 
L 358.445887 178.788119 
L 363.344226 178.788119 
L 363.344226 174.955723 
L 363.804593 174.955723 
L 363.804593 171.123327 
L 368.701007 171.123327 
L 368.701007 167.290931 
L 371.030548 167.290931 
L 371.030548 163.458535 
L 374.540732 163.458535 
L 374.540732 159.626139 
L 377.177497 159.626139 
L 377.177497 155.793743 
L 378.708097 155.793743 
L 378.708097 151.961347 
L 382.029221 151.961347 
L 382.029221 148.12895 
L 383.587551 148.12895 
L 383.587551 144.296554 
L 385.352823 144.296554 
L 385.352823 140.464158 
L 386.087102 140.464158 
L 386.087102 136.631762 
L 397.419302 136.631762 
L 397.419302 132.799366 
L 401.605997 132.799366 
L 401.605997 128.96697 
L 401.869735 128.96697 
L 401.869735 125.134574 
L 402.59423 125.134574 
L 402.59423 121.302178 
L 403.027534 121.302178 
L 403.027534 117.469782 
L 415.033395 117.469782 
L 415.033395 113.637386 
L 419.910153 113.637386 
L 419.910153 109.80499 
L 421.909286 109.80499 
L 421.909286 105.972594 
L 422.070629 105.972594 
L 422.070629 102.140198 
L 422.563711 102.140198 
L 422.563711 98.307802 
L 423.791374 98.307802 
L 423.791374 94.475406 
L 424.43956 94.475406 
L 424.43956 90.64301 
L 424.473592 90.64301 
L 424.473592 86.810614 
L 425.140228 86.810614 
L 425.140228 82.978218 
L 425.188942 82.978218 
L 425.188942 79.145822 
L 432.881051 79.145822 
L 432.881051 75.313426 
L 441.280586 75.313426 
L 441.280586 71.48103 
L 441.280586 71.48103 
L 441.280586 71.48103 
L 460.8 71.48103 
" clip-path="url(#p41262b971c)" style="fill: none; stroke: #000000; stroke-width: 1.5; stroke-linecap: square"/>
   </g>
   <g id="line2d_105">
    <defs>
     <path id="m224060ce8d" d="M 0 7.5 
C 1.989023 7.5 3.896849 6.709753 5.303301 5.303301 
C 6.709753 3.896849 7.5 1.989023 7.5 0 
C 7.5 -1.989023 6.709753 -3.896849 5.303301 -5.303301 
C 3.896849 -6.709753 1.989023 -7.5 0 -7.5 
C -1.989023 -7.5 -3.896849 -6.709753 -5.303301 -5.303301 
C -6.709753 -3.896849 -7.5 -1.989023 -7.5 0 
C -7.5 1.989023 -6.709753 3.896849 -5.303301 5.303301 
C -3.896849 6.709753 -1.989023 7.5 0 7.5 
z
" style="stroke: #000000; stroke-width: 1.5"/>
    </defs>
    <g clip-path="url(#p41262b971c)">
     <use xlink:href="#m224060ce8d" x="257.344791" y="220.944475" style="fill-opacity: 0; stroke: #000000; stroke-width: 1.5"/>
     <use xlink:href="#m224060ce8d" x="353.983374" y="201.782495" style="fill-opacity: 0; stroke: #000000; stroke-width: 1.5"/>
     <use xlink:href="#m224060ce8d" x="415.033395" y="117.469782" style="fill-opacity: 0; stroke: #000000; stroke-width: 1.5"/>
     <use xlink:href="#m224060ce8d" x="441.280586" y="75.313426" style="fill-opacity: 0; stroke: #000000; stroke-width: 1.5"/>
     <use xlink:href="#m224060ce8d" x="441.280586" y="71.48103" style="fill-opacity: 0; stroke: #000000; stroke-width: 1.5"/>
    </g>
   </g>
   <g id="line2d_106">
    <path clip-path="url(#p41262b971c)" style="fill: none; stroke: #000000; stroke-width: 1.5; stroke-linecap: square"/>
   </g>
   <g id="line2d_107">
    <path d="M 264.227813 293.76 
L 264.227813 289.927604 
L 355.458596 289.927604 
L 355.458596 286.095208 
L 358.114612 286.095208 
L 358.114612 282.262812 
L 358.333677 282.262812 
L 358.333677 278.430416 
L 358.999329 278.430416 
L 358.999329 274.59802 
L 360.242641 274.59802 
L 360.242641 270.765624 
L 361.60263 270.765624 
L 361.60263 266.933228 
L 361.816869 266.933228 
L 361.816869 263.100832 
L 362.401408 263.100832 
L 362.401408 259.268436 
L 367.488044 259.268436 
L 367.488044 255.43604 
L 377.556089 255.43604 
L 377.556089 251.603644 
L 388.993909 251.603644 
L 388.993909 247.771248 
L 389.326662 247.771248 
L 389.326662 243.938851 
L 390.57331 243.938851 
L 390.57331 240.106455 
L 390.579019 240.106455 
L 390.579019 236.274059 
L 390.920149 236.274059 
L 390.920149 232.441663 
L 391.961434 232.441663 
L 391.961434 228.609267 
L 393.002297 228.609267 
L 393.002297 224.776871 
L 393.424047 224.776871 
L 393.424047 220.944475 
L 394.235883 220.944475 
L 394.235883 217.112079 
L 396.99855 217.112079 
L 396.99855 213.279683 
L 397.926958 213.279683 
L 397.926958 209.447287 
L 399.305033 209.447287 
L 399.305033 205.614891 
L 399.758145 205.614891 
L 399.758145 201.782495 
L 400.365623 201.782495 
L 400.365623 197.950099 
L 402.589965 197.950099 
L 402.589965 194.117703 
L 414.890034 194.117703 
L 414.890034 190.285307 
L 415.932449 190.285307 
L 415.932449 186.452911 
L 416.370815 186.452911 
L 416.370815 182.620515 
L 416.466499 182.620515 
L 416.466499 178.788119 
L 418.831407 178.788119 
L 418.831407 174.955723 
L 419.325136 174.955723 
L 419.325136 171.123327 
L 420.769908 171.123327 
L 420.769908 167.290931 
L 420.876277 167.290931 
L 420.876277 163.458535 
L 420.97674 163.458535 
L 420.97674 159.626139 
L 421.41316 159.626139 
L 421.41316 155.793743 
L 422.089236 155.793743 
L 422.089236 151.961347 
L 441.767014 151.961347 
L 441.767014 148.12895 
L 441.767014 148.12895 
L 441.767014 148.12895 
L 460.8 148.12895 
" clip-path="url(#p41262b971c)" style="fill: none; stroke: #00bfbf; stroke-width: 1.5; stroke-linecap: square"/>
   </g>
   <g id="line2d_108">
    <defs>
     <path id="m035203d3b4" d="M 0 14.142136 
L 8.485281 0 
L 0 -14.142136 
L -8.485281 0 
z
" style="stroke: #00bfbf; stroke-width: 1.5; stroke-linejoin: miter"/>
    </defs>
    <g clip-path="url(#p41262b971c)">
     <use xlink:href="#m035203d3b4" x="264.227813" y="293.76" style="fill-opacity: 0; stroke: #00bfbf; stroke-width: 1.5; stroke-linejoin: miter"/>
     <use xlink:href="#m035203d3b4" x="400.365623" y="201.782495" style="fill-opacity: 0; stroke: #00bfbf; stroke-width: 1.5; stroke-linejoin: miter"/>
     <use xlink:href="#m035203d3b4" x="441.767014" y="151.961347" style="fill-opacity: 0; stroke: #00bfbf; stroke-width: 1.5; stroke-linejoin: miter"/>
     <use xlink:href="#m035203d3b4" x="441.767014" y="148.12895" style="fill-opacity: 0; stroke: #00bfbf; stroke-width: 1.5; stroke-linejoin: miter"/>
    </g>
   </g>
   <g id="line2d_109">
    <path clip-path="url(#p41262b971c)" style="fill: none; stroke: #00bfbf; stroke-width: 1.5; stroke-linecap: square"/>
    <g clip-path="url(#p41262b971c)">
     <use xlink:href="#m035203d3b4" x="-1" y="581.189703" style="fill-opacity: 0; stroke: #00bfbf; stroke-width: 1.5; stroke-linejoin: miter"/>
     <use xlink:href="#m035203d3b4" x="460.8" y="581.189703" style="fill-opacity: 0; stroke: #00bfbf; stroke-width: 1.5; stroke-linejoin: miter"/>
    </g>
   </g>
   <g id="line2d_110">
    <path d="M 263.196813 293.76 
L 263.196813 289.927604 
L 362.440978 289.927604 
L 362.440978 286.095208 
L 362.514366 286.095208 
L 362.514366 282.262812 
L 362.829012 282.262812 
L 362.829012 278.430416 
L 363.0836 278.430416 
L 363.0836 274.59802 
L 363.231444 274.59802 
L 363.231444 270.765624 
L 377.093935 270.765624 
L 377.093935 266.933228 
L 394.427755 266.933228 
L 394.427755 263.100832 
L 396.881435 263.100832 
L 396.881435 259.268436 
L 399.41086 259.268436 
L 399.41086 255.43604 
L 399.572105 255.43604 
L 399.572105 251.603644 
L 401.599989 251.603644 
L 401.599989 247.771248 
L 402.1741 247.771248 
L 402.1741 243.938851 
L 402.934839 243.938851 
L 402.934839 240.106455 
L 403.560882 240.106455 
L 403.560882 236.274059 
L 404.130841 236.274059 
L 404.130841 232.441663 
L 404.788677 232.441663 
L 404.788677 228.609267 
L 417.821236 228.609267 
L 417.821236 224.776871 
L 418.081282 224.776871 
L 418.081282 220.944475 
L 418.558698 220.944475 
L 418.558698 217.112079 
L 422.12875 217.112079 
L 422.12875 213.279683 
L 422.925661 213.279683 
L 422.925661 209.447287 
L 422.996566 209.447287 
L 422.996566 205.614891 
L 423.371016 205.614891 
L 423.371016 201.782495 
L 423.43264 201.782495 
L 423.43264 197.950099 
L 423.885779 197.950099 
L 423.885779 194.117703 
L 424.040531 194.117703 
L 424.040531 190.285307 
L 424.165495 190.285307 
L 424.165495 186.452911 
L 425.159813 186.452911 
L 425.159813 182.620515 
L 425.324453 182.620515 
L 425.324453 178.788119 
L 425.633793 178.788119 
L 425.633793 174.955723 
L 426.106452 174.955723 
L 426.106452 171.123327 
L 426.13492 171.123327 
L 426.13492 167.290931 
L 426.817946 167.290931 
L 426.817946 163.458535 
L 429.77296 163.458535 
L 429.77296 159.626139 
L 434.453837 159.626139 
L 434.453837 155.793743 
L 441.408112 155.793743 
L 441.408112 151.961347 
L 441.408112 151.961347 
L 441.408112 151.961347 
L 460.8 151.961347 
" clip-path="url(#p41262b971c)" style="fill: none; stroke: #00bfbf; stroke-width: 1.5; stroke-linecap: square"/>
   </g>
   <g id="line2d_111">
    <defs>
     <path id="m9eeb76073b" d="M 0 7.5 
C 1.989023 7.5 3.896849 6.709753 5.303301 5.303301 
C 6.709753 3.896849 7.5 1.989023 7.5 0 
C 7.5 -1.989023 6.709753 -3.896849 5.303301 -5.303301 
C 3.896849 -6.709753 1.989023 -7.5 0 -7.5 
C -1.989023 -7.5 -3.896849 -6.709753 -5.303301 -5.303301 
C -6.709753 -3.896849 -7.5 -1.989023 -7.5 0 
C -7.5 1.989023 -6.709753 3.896849 -5.303301 5.303301 
C -3.896849 6.709753 -1.989023 7.5 0 7.5 
z
" style="stroke: #00bfbf; stroke-width: 1.5"/>
    </defs>
    <g clip-path="url(#p41262b971c)">
     <use xlink:href="#m9eeb76073b" x="263.196813" y="293.76" style="fill-opacity: 0; stroke: #00bfbf; stroke-width: 1.5"/>
     <use xlink:href="#m9eeb76073b" x="377.093935" y="270.765624" style="fill-opacity: 0; stroke: #00bfbf; stroke-width: 1.5"/>
     <use xlink:href="#m9eeb76073b" x="426.13492" y="171.123327" style="fill-opacity: 0; stroke: #00bfbf; stroke-width: 1.5"/>
     <use xlink:href="#m9eeb76073b" x="441.408112" y="151.961347" style="fill-opacity: 0; stroke: #00bfbf; stroke-width: 1.5"/>
    </g>
   </g>
   <g id="line2d_112">
    <path clip-path="url(#p41262b971c)" style="fill: none; stroke: #00bfbf; stroke-width: 1.5; stroke-linecap: square"/>
   </g>
   <g id="line2d_113">
    <path d="M 301.435406 293.76 
L 301.435406 289.927604 
L 365.218391 289.927604 
L 365.218391 286.095208 
L 366.3123 286.095208 
L 366.3123 282.262812 
L 366.389382 282.262812 
L 366.389382 278.430416 
L 366.794892 278.430416 
L 366.794892 274.59802 
L 368.901956 274.59802 
L 368.901956 270.765624 
L 369.678913 270.765624 
L 369.678913 266.933228 
L 370.282978 266.933228 
L 370.282978 263.100832 
L 370.454868 263.100832 
L 370.454868 259.268436 
L 375.404167 259.268436 
L 375.404167 255.43604 
L 382.570987 255.43604 
L 382.570987 251.603644 
L 394.006683 251.603644 
L 394.006683 247.771248 
L 394.479723 247.771248 
L 394.479723 243.938851 
L 395.228213 243.938851 
L 395.228213 240.106455 
L 395.474191 240.106455 
L 395.474191 236.274059 
L 396.02999 236.274059 
L 396.02999 232.441663 
L 397.079083 232.441663 
L 397.079083 228.609267 
L 397.329739 228.609267 
L 397.329739 224.776871 
L 397.743842 224.776871 
L 397.743842 220.944475 
L 398.766517 220.944475 
L 398.766517 217.112079 
L 400.953737 217.112079 
L 400.953737 213.279683 
L 401.357595 213.279683 
L 401.357595 209.447287 
L 401.525369 209.447287 
L 401.525369 205.614891 
L 401.705812 205.614891 
L 401.705812 201.782495 
L 404.122878 201.782495 
L 404.122878 197.950099 
L 406.065329 197.950099 
L 406.065329 194.117703 
L 419.741163 194.117703 
L 419.741163 190.285307 
L 420.952501 190.285307 
L 420.952501 186.452911 
L 421.680427 186.452911 
L 421.680427 182.620515 
L 421.885756 182.620515 
L 421.885756 178.788119 
L 422.009762 178.788119 
L 422.009762 174.955723 
L 422.608842 174.955723 
L 422.608842 171.123327 
L 423.117603 171.123327 
L 423.117603 167.290931 
L 424.01153 167.290931 
L 424.01153 163.458535 
L 425.062566 163.458535 
L 425.062566 159.626139 
L 425.665483 159.626139 
L 425.665483 155.793743 
L 426.676121 155.793743 
L 426.676121 151.961347 
L 426.676121 151.961347 
L 426.676121 151.961347 
L 460.8 151.961347 
" clip-path="url(#p41262b971c)" style="fill: none; stroke: #bf00bf; stroke-width: 1.5; stroke-linecap: square"/>
   </g>
   <g id="line2d_114">
    <defs>
     <path id="m923fd53b98" d="M 0 14.142136 
L 8.485281 0 
L 0 -14.142136 
L -8.485281 0 
z
" style="stroke: #bf00bf; stroke-width: 1.5; stroke-linejoin: miter"/>
    </defs>
    <g clip-path="url(#p41262b971c)">
     <use xlink:href="#m923fd53b98" x="370.282978" y="266.933228" style="fill-opacity: 0; stroke: #bf00bf; stroke-width: 1.5; stroke-linejoin: miter"/>
     <use xlink:href="#m923fd53b98" x="401.357595" y="213.279683" style="fill-opacity: 0; stroke: #bf00bf; stroke-width: 1.5; stroke-linejoin: miter"/>
     <use xlink:href="#m923fd53b98" x="426.676121" y="155.793743" style="fill-opacity: 0; stroke: #bf00bf; stroke-width: 1.5; stroke-linejoin: miter"/>
     <use xlink:href="#m923fd53b98" x="426.676121" y="151.961347" style="fill-opacity: 0; stroke: #bf00bf; stroke-width: 1.5; stroke-linejoin: miter"/>
    </g>
   </g>
   <g id="line2d_115">
    <path clip-path="url(#p41262b971c)" style="fill: none; stroke: #bf00bf; stroke-width: 1.5; stroke-linecap: square"/>
    <g clip-path="url(#p41262b971c)">
     <use xlink:href="#m923fd53b98" x="-1" y="581.189703" style="fill-opacity: 0; stroke: #bf00bf; stroke-width: 1.5; stroke-linejoin: miter"/>
     <use xlink:href="#m923fd53b98" x="460.8" y="581.189703" style="fill-opacity: 0; stroke: #bf00bf; stroke-width: 1.5; stroke-linejoin: miter"/>
    </g>
   </g>
   <g id="line2d_116">
    <path d="M 309.916257 293.76 
L 309.916257 289.927604 
L 370.541995 289.927604 
L 370.541995 286.095208 
L 371.787886 286.095208 
L 371.787886 282.262812 
L 372.63592 282.262812 
L 372.63592 278.430416 
L 374.323737 278.430416 
L 374.323737 274.59802 
L 375.290048 274.59802 
L 375.290048 270.765624 
L 384.800275 270.765624 
L 384.800275 266.933228 
L 401.142218 266.933228 
L 401.142218 263.100832 
L 402.031118 263.100832 
L 402.031118 259.268436 
L 405.364705 259.268436 
L 405.364705 255.43604 
L 405.579245 255.43604 
L 405.579245 251.603644 
L 406.317443 251.603644 
L 406.317443 247.771248 
L 406.346172 247.771248 
L 406.346172 243.938851 
L 407.188366 243.938851 
L 407.188366 240.106455 
L 407.661364 240.106455 
L 407.661364 236.274059 
L 407.906506 236.274059 
L 407.906506 232.441663 
L 410.583316 232.441663 
L 410.583316 228.609267 
L 422.84175 228.609267 
L 422.84175 224.776871 
L 422.861318 224.776871 
L 422.861318 220.944475 
L 423.491442 220.944475 
L 423.491442 217.112079 
L 425.997218 217.112079 
L 425.997218 213.279683 
L 426.446926 213.279683 
L 426.446926 209.447287 
L 426.690088 209.447287 
L 426.690088 205.614891 
L 427.03095 205.614891 
L 427.03095 201.782495 
L 427.474679 201.782495 
L 427.474679 197.950099 
L 427.480509 197.950099 
L 427.480509 194.117703 
L 427.592282 194.117703 
L 427.592282 190.285307 
L 427.688095 190.285307 
L 427.688095 186.452911 
L 427.841512 186.452911 
L 427.841512 182.620515 
L 427.916709 182.620515 
L 427.916709 178.788119 
L 428.069566 178.788119 
L 428.069566 174.955723 
L 428.342918 174.955723 
L 428.342918 171.123327 
L 429.069751 171.123327 
L 429.069751 167.290931 
L 429.686023 167.290931 
L 429.686023 163.458535 
L 433.928282 163.458535 
L 433.928282 159.626139 
L 436.182921 159.626139 
L 436.182921 155.793743 
L 436.182921 155.793743 
L 436.182921 155.793743 
L 460.8 155.793743 
" clip-path="url(#p41262b971c)" style="fill: none; stroke: #bf00bf; stroke-width: 1.5; stroke-linecap: square"/>
   </g>
   <g id="line2d_117">
    <defs>
     <path id="m0c59af92ea" d="M 0 7.5 
C 1.989023 7.5 3.896849 6.709753 5.303301 5.303301 
C 6.709753 3.896849 7.5 1.989023 7.5 0 
C 7.5 -1.989023 6.709753 -3.896849 5.303301 -5.303301 
C 3.896849 -6.709753 1.989023 -7.5 0 -7.5 
C -1.989023 -7.5 -3.896849 -6.709753 -5.303301 -5.303301 
C -6.709753 -3.896849 -7.5 -1.989023 -7.5 0 
C -7.5 1.989023 -6.709753 3.896849 -5.303301 5.303301 
C -3.896849 6.709753 -1.989023 7.5 0 7.5 
z
" style="stroke: #bf00bf; stroke-width: 1.5"/>
    </defs>
    <g clip-path="url(#p41262b971c)">
     <use xlink:href="#m0c59af92ea" x="309.916257" y="293.76" style="fill-opacity: 0; stroke: #bf00bf; stroke-width: 1.5"/>
     <use xlink:href="#m0c59af92ea" x="384.800275" y="270.765624" style="fill-opacity: 0; stroke: #bf00bf; stroke-width: 1.5"/>
     <use xlink:href="#m0c59af92ea" x="428.069566" y="178.788119" style="fill-opacity: 0; stroke: #bf00bf; stroke-width: 1.5"/>
     <use xlink:href="#m0c59af92ea" x="436.182921" y="155.793743" style="fill-opacity: 0; stroke: #bf00bf; stroke-width: 1.5"/>
    </g>
   </g>
   <g id="line2d_118">
    <path clip-path="url(#p41262b971c)" style="fill: none; stroke: #bf00bf; stroke-width: 1.5; stroke-linecap: square"/>
   </g>
   <g id="line2d_119">
    <path d="M 324.423891 293.76 
L 324.423891 289.927604 
L 374.2363 289.927604 
L 374.2363 286.095208 
L 374.551262 286.095208 
L 374.551262 282.262812 
L 374.686337 282.262812 
L 374.686337 278.430416 
L 374.9906 278.430416 
L 374.9906 274.59802 
L 377.023097 274.59802 
L 377.023097 270.765624 
L 377.645068 270.765624 
L 377.645068 266.933228 
L 377.899698 266.933228 
L 377.899698 263.100832 
L 378.218317 263.100832 
L 378.218317 259.268436 
L 382.003747 259.268436 
L 382.003747 255.43604 
L 388.58511 255.43604 
L 388.58511 251.603644 
L 399.098364 251.603644 
L 399.098364 247.771248 
L 399.652348 247.771248 
L 399.652348 243.938851 
L 399.823489 243.938851 
L 399.823489 240.106455 
L 401.062613 240.106455 
L 401.062613 236.274059 
L 401.557366 236.274059 
L 401.557366 232.441663 
L 402.240028 232.441663 
L 402.240028 228.609267 
L 402.60809 228.609267 
L 402.60809 224.776871 
L 403.17657 224.776871 
L 403.17657 220.944475 
L 403.807003 220.944475 
L 403.807003 217.112079 
L 403.898534 217.112079 
L 403.898534 213.279683 
L 404.025151 213.279683 
L 404.025151 209.447287 
L 406.014574 209.447287 
L 406.014574 205.614891 
L 406.157119 205.614891 
L 406.157119 201.782495 
L 409.151528 201.782495 
L 409.151528 197.950099 
L 410.625677 197.950099 
L 410.625677 194.117703 
L 422.773846 194.117703 
L 422.773846 190.285307 
L 424.73285 190.285307 
L 424.73285 186.452911 
L 425.696236 186.452911 
L 425.696236 182.620515 
L 426.21119 182.620515 
L 426.21119 178.788119 
L 426.698258 178.788119 
L 426.698258 174.955723 
L 427.384211 174.955723 
L 427.384211 171.123327 
L 427.699259 171.123327 
L 427.699259 167.290931 
L 427.970173 167.290931 
L 427.970173 163.458535 
L 428.033778 163.458535 
L 428.033778 159.626139 
L 431.2022 159.626139 
L 431.2022 155.793743 
L 432.69463 155.793743 
L 432.69463 151.961347 
L 432.69463 151.961347 
L 432.69463 151.961347 
L 460.8 151.961347 
" clip-path="url(#p41262b971c)" style="fill: none; stroke: #ff0000; stroke-width: 3; stroke-linecap: square"/>
   </g>
   <g id="line2d_120">
    <defs>
     <path id="m3a91ce735f" d="M 0 14.142136 
L 8.485281 0 
L 0 -14.142136 
L -8.485281 0 
z
" style="stroke: #ff0000; stroke-width: 3; stroke-linejoin: miter"/>
    </defs>
    <g clip-path="url(#p41262b971c)">
     <use xlink:href="#m3a91ce735f" x="377.899698" y="266.933228" style="fill-opacity: 0; stroke: #ff0000; stroke-width: 3; stroke-linejoin: miter"/>
     <use xlink:href="#m3a91ce735f" x="410.625677" y="197.950099" style="fill-opacity: 0; stroke: #ff0000; stroke-width: 3; stroke-linejoin: miter"/>
     <use xlink:href="#m3a91ce735f" x="432.69463" y="155.793743" style="fill-opacity: 0; stroke: #ff0000; stroke-width: 3; stroke-linejoin: miter"/>
     <use xlink:href="#m3a91ce735f" x="432.69463" y="151.961347" style="fill-opacity: 0; stroke: #ff0000; stroke-width: 3; stroke-linejoin: miter"/>
    </g>
   </g>
   <g id="line2d_121">
    <path clip-path="url(#p41262b971c)" style="fill: none; stroke: #ff0000; stroke-width: 3; stroke-linecap: square"/>
    <g clip-path="url(#p41262b971c)">
     <use xlink:href="#m3a91ce735f" x="-1" y="581.189703" style="fill-opacity: 0; stroke: #ff0000; stroke-width: 3; stroke-linejoin: miter"/>
     <use xlink:href="#m3a91ce735f" x="460.8" y="581.189703" style="fill-opacity: 0; stroke: #ff0000; stroke-width: 3; stroke-linejoin: miter"/>
    </g>
   </g>
   <g id="line2d_122">
    <path d="M 340.420725 293.76 
L 340.420725 289.927604 
L 380.065237 289.927604 
L 380.065237 286.095208 
L 382.233328 286.095208 
L 382.233328 282.262812 
L 383.345427 282.262812 
L 383.345427 278.430416 
L 383.768951 278.430416 
L 383.768951 274.59802 
L 383.800509 274.59802 
L 383.800509 270.765624 
L 392.188881 270.765624 
L 392.188881 266.933228 
L 408.272552 266.933228 
L 408.272552 263.100832 
L 408.331042 263.100832 
L 408.331042 259.268436 
L 409.752819 259.268436 
L 409.752819 255.43604 
L 409.793803 255.43604 
L 409.793803 251.603644 
L 410.451124 251.603644 
L 410.451124 247.771248 
L 411.211827 247.771248 
L 411.211827 243.938851 
L 413.153587 243.938851 
L 413.153587 240.106455 
L 414.632673 240.106455 
L 414.632673 236.274059 
L 414.867874 236.274059 
L 414.867874 232.441663 
L 417.600122 232.441663 
L 417.600122 228.609267 
L 428.544369 228.609267 
L 428.544369 224.776871 
L 428.785383 224.776871 
L 428.785383 220.944475 
L 429.020223 220.944475 
L 429.020223 217.112079 
L 429.329881 217.112079 
L 429.329881 213.279683 
L 429.381126 213.279683 
L 429.381126 209.447287 
L 429.868379 209.447287 
L 429.868379 205.614891 
L 430.484292 205.614891 
L 430.484292 201.782495 
L 430.623072 201.782495 
L 430.623072 197.950099 
L 430.844071 197.950099 
L 430.844071 194.117703 
L 430.989409 194.117703 
L 430.989409 190.285307 
L 431.420388 190.285307 
L 431.420388 186.452911 
L 431.637032 186.452911 
L 431.637032 182.620515 
L 432.688722 182.620515 
L 432.688722 178.788119 
L 432.990971 178.788119 
L 432.990971 174.955723 
L 433.042064 174.955723 
L 433.042064 171.123327 
L 433.481698 171.123327 
L 433.481698 167.290931 
L 434.509541 167.290931 
L 434.509541 163.458535 
L 438.303325 163.458535 
L 438.303325 159.626139 
L 439.032497 159.626139 
L 439.032497 155.793743 
L 439.032497 155.793743 
L 439.032497 155.793743 
L 460.8 155.793743 
" clip-path="url(#p41262b971c)" style="fill: none; stroke: #ff0000; stroke-width: 3; stroke-linecap: square"/>
   </g>
   <g id="line2d_123">
    <defs>
     <path id="m2035445e96" d="M 0 7.5 
C 1.989023 7.5 3.896849 6.709753 5.303301 5.303301 
C 6.709753 3.896849 7.5 1.989023 7.5 0 
C 7.5 -1.989023 6.709753 -3.896849 5.303301 -5.303301 
C 3.896849 -6.709753 1.989023 -7.5 0 -7.5 
C -1.989023 -7.5 -3.896849 -6.709753 -5.303301 -5.303301 
C -6.709753 -3.896849 -7.5 -1.989023 -7.5 0 
C -7.5 1.989023 -6.709753 3.896849 -5.303301 5.303301 
C -3.896849 6.709753 -1.989023 7.5 0 7.5 
z
" style="stroke: #ff0000; stroke-width: 3"/>
    </defs>
    <g clip-path="url(#p41262b971c)">
     <use xlink:href="#m2035445e96" x="340.420725" y="293.76" style="fill-opacity: 0; stroke: #ff0000; stroke-width: 3"/>
     <use xlink:href="#m2035445e96" x="409.793803" y="255.43604" style="fill-opacity: 0; stroke: #ff0000; stroke-width: 3"/>
     <use xlink:href="#m2035445e96" x="433.481698" y="171.123327" style="fill-opacity: 0; stroke: #ff0000; stroke-width: 3"/>
     <use xlink:href="#m2035445e96" x="439.032497" y="155.793743" style="fill-opacity: 0; stroke: #ff0000; stroke-width: 3"/>
    </g>
   </g>
   <g id="line2d_124">
    <path clip-path="url(#p41262b971c)" style="fill: none; stroke: #ff0000; stroke-width: 3; stroke-linecap: square"/>
   </g>
   <g id="line2d_125">
    <path d="M 441.796267 293.76 
L 441.796267 3.456 
" clip-path="url(#p41262b971c)" style="fill: none; stroke: #000000; stroke-width: 1.5; stroke-linecap: square"/>
    <defs>
     <path id="m3688d065b1" d="M -10 0 
L 10 0 
M 0 10 
L 0 -10 
" style="stroke: #000000; stroke-width: 3"/>
    </defs>
    <g clip-path="url(#p41262b971c)">
     <use xlink:href="#m3688d065b1" x="441.796267" y="293.76" style="stroke: #000000; stroke-width: 3"/>
     <use xlink:href="#m3688d065b1" x="441.796267" y="3.456" style="stroke: #000000; stroke-width: 3"/>
    </g>
   </g>
   <g id="line2d_126">
    <path d="M 441.796267 293.76 
L 441.796267 3.456 
" clip-path="url(#p41262b971c)" style="fill: none; stroke: #000000; stroke-width: 1.5; stroke-linecap: square"/>
    <defs>
     <path id="m377815fcda" d="M 0 7.5 
C 1.989023 7.5 3.896849 6.709753 5.303301 5.303301 
C 6.709753 3.896849 7.5 1.989023 7.5 0 
C 7.5 -1.989023 6.709753 -3.896849 5.303301 -5.303301 
C 3.896849 -6.709753 1.989023 -7.5 0 -7.5 
C -1.989023 -7.5 -3.896849 -6.709753 -5.303301 -5.303301 
C -6.709753 -3.896849 -7.5 -1.989023 -7.5 0 
C -7.5 1.989023 -6.709753 3.896849 -5.303301 5.303301 
C -3.896849 6.709753 -1.989023 7.5 0 7.5 
z
" style="stroke: #000000; stroke-width: 3"/>
    </defs>
    <g clip-path="url(#p41262b971c)">
     <use xlink:href="#m377815fcda" x="441.796267" y="293.76" style="fill-opacity: 0; stroke: #000000; stroke-width: 3"/>
     <use xlink:href="#m377815fcda" x="441.796267" y="3.456" style="fill-opacity: 0; stroke: #000000; stroke-width: 3"/>
    </g>
   </g>
   <g id="patch_3">
    <path d="M 62.208 293.76 
L 62.208 3.456 
" style="fill: none; stroke: #000000; stroke-width: 0.8; stroke-linejoin: miter; stroke-linecap: square"/>
   </g>
   <g id="patch_4">
    <path d="M 460.8 293.76 
L 460.8 3.456 
" style="fill: none; stroke: #000000; stroke-width: 0.8; stroke-linejoin: miter; stroke-linecap: square"/>
   </g>
   <g id="patch_5">
    <path d="M 62.208 293.76 
L 460.8 293.76 
" style="fill: none; stroke: #000000; stroke-width: 0.8; stroke-linejoin: miter; stroke-linecap: square"/>
   </g>
   <g id="patch_6">
    <path d="M 62.208 3.456 
L 460.8 3.456 
" style="fill: none; stroke: #000000; stroke-width: 0.8; stroke-linejoin: miter; stroke-linecap: square"/>
   </g>
   <g id="text_11">
    <!-- f15-f19 -->
    <g transform="translate(225.405563 24.458955) scale(0.2 -0.2)">
     <defs>
      <path id="DejaVuSans-35" d="M 691 4666 
L 3169 4666 
L 3169 4134 
L 1269 4134 
L 1269 2991 
Q 1406 3038 1543 3061 
Q 1681 3084 1819 3084 
Q 2600 3084 3056 2656 
Q 3513 2228 3513 1497 
Q 3513 744 3044 326 
Q 2575 -91 1722 -91 
Q 1428 -91 1123 -41 
Q 819 9 494 109 
L 494 744 
Q 775 591 1075 516 
Q 1375 441 1709 441 
Q 2250 441 2565 725 
Q 2881 1009 2881 1497 
Q 2881 1984 2565 2268 
Q 2250 2553 1709 2553 
Q 1456 2553 1204 2497 
Q 953 2441 691 2322 
L 691 4666 
z
" transform="scale(0.015625)"/>
      <path id="DejaVuSans-2d" d="M 313 2009 
L 1997 2009 
L 1997 1497 
L 313 1497 
L 313 2009 
z
" transform="scale(0.015625)"/>
      <path id="DejaVuSans-39" d="M 703 97 
L 703 672 
Q 941 559 1184 500 
Q 1428 441 1663 441 
Q 2288 441 2617 861 
Q 2947 1281 2994 2138 
Q 2813 1869 2534 1725 
Q 2256 1581 1919 1581 
Q 1219 1581 811 2004 
Q 403 2428 403 3163 
Q 403 3881 828 4315 
Q 1253 4750 1959 4750 
Q 2769 4750 3195 4129 
Q 3622 3509 3622 2328 
Q 3622 1225 3098 567 
Q 2575 -91 1691 -91 
Q 1453 -91 1209 -44 
Q 966 3 703 97 
z
M 1959 2075 
Q 2384 2075 2632 2365 
Q 2881 2656 2881 3163 
Q 2881 3666 2632 3958 
Q 2384 4250 1959 4250 
Q 1534 4250 1286 3958 
Q 1038 3666 1038 3163 
Q 1038 2656 1286 2365 
Q 1534 2075 1959 2075 
z
" transform="scale(0.015625)"/>
     </defs>
     <use xlink:href="#DejaVuSans-66"/>
     <use xlink:href="#DejaVuSans-31" x="35.205078"/>
     <use xlink:href="#DejaVuSans-35" x="98.828125"/>
     <use xlink:href="#DejaVuSans-2d" x="162.451172"/>
     <use xlink:href="#DejaVuSans-66" x="198.535156"/>
     <use xlink:href="#DejaVuSans-31" x="233.740234"/>
     <use xlink:href="#DejaVuSans-39" x="297.363281"/>
    </g>
   </g>
   <g id="text_12">
    <!-- absolute targets -->
    <g transform="translate(62.208 608.591335) scale(0.14 -0.14)">
     <defs>
      <path id="DejaVuSans-62" d="M 3116 1747 
Q 3116 2381 2855 2742 
Q 2594 3103 2138 3103 
Q 1681 3103 1420 2742 
Q 1159 2381 1159 1747 
Q 1159 1113 1420 752 
Q 1681 391 2138 391 
Q 2594 391 2855 752 
Q 3116 1113 3116 1747 
z
M 1159 2969 
Q 1341 3281 1617 3432 
Q 1894 3584 2278 3584 
Q 2916 3584 3314 3078 
Q 3713 2572 3713 1747 
Q 3713 922 3314 415 
Q 2916 -91 2278 -91 
Q 1894 -91 1617 61 
Q 1341 213 1159 525 
L 1159 0 
L 581 0 
L 581 4863 
L 1159 4863 
L 1159 2969 
z
" transform="scale(0.015625)"/>
      <path id="DejaVuSans-75" d="M 544 1381 
L 544 3500 
L 1119 3500 
L 1119 1403 
Q 1119 906 1312 657 
Q 1506 409 1894 409 
Q 2359 409 2629 706 
Q 2900 1003 2900 1516 
L 2900 3500 
L 3475 3500 
L 3475 0 
L 2900 0 
L 2900 538 
Q 2691 219 2414 64 
Q 2138 -91 1772 -91 
Q 1169 -91 856 284 
Q 544 659 544 1381 
z
M 1991 3584 
L 1991 3584 
z
" transform="scale(0.015625)"/>
      <path id="DejaVuSans-65" d="M 3597 1894 
L 3597 1613 
L 953 1613 
Q 991 1019 1311 708 
Q 1631 397 2203 397 
Q 2534 397 2845 478 
Q 3156 559 3463 722 
L 3463 178 
Q 3153 47 2828 -22 
Q 2503 -91 2169 -91 
Q 1331 -91 842 396 
Q 353 884 353 1716 
Q 353 2575 817 3079 
Q 1281 3584 2069 3584 
Q 2775 3584 3186 3129 
Q 3597 2675 3597 1894 
z
M 3022 2063 
Q 3016 2534 2758 2815 
Q 2500 3097 2075 3097 
Q 1594 3097 1305 2825 
Q 1016 2553 972 2059 
L 3022 2063 
z
" transform="scale(0.015625)"/>
     </defs>
     <use xlink:href="#DejaVuSans-61"/>
     <use xlink:href="#DejaVuSans-62" x="61.279297"/>
     <use xlink:href="#DejaVuSans-73" x="124.755859"/>
     <use xlink:href="#DejaVuSans-6f" x="176.855469"/>
     <use xlink:href="#DejaVuSans-6c" x="238.037109"/>
     <use xlink:href="#DejaVuSans-75" x="265.820312"/>
     <use xlink:href="#DejaVuSans-74" x="329.199219"/>
     <use xlink:href="#DejaVuSans-65" x="368.408203"/>
     <use xlink:href="#DejaVuSans-20" x="429.931641"/>
     <use xlink:href="#DejaVuSans-74" x="461.71875"/>
     <use xlink:href="#DejaVuSans-61" x="500.927734"/>
     <use xlink:href="#DejaVuSans-72" x="562.207031"/>
     <use xlink:href="#DejaVuSans-67" x="601.570312"/>
     <use xlink:href="#DejaVuSans-65" x="665.046875"/>
     <use xlink:href="#DejaVuSans-74" x="726.570312"/>
     <use xlink:href="#DejaVuSans-73" x="765.779297"/>
    </g>
   </g>
   <g id="text_13">
    <!-- v2.6.3 -->
    <g style="fill: #808080" transform="translate(245.82275 288.777272) scale(0.1 -0.1)">
     <use xlink:href="#DejaVuSans-76"/>
     <use xlink:href="#DejaVuSans-32" x="59.179688"/>
     <use xlink:href="#DejaVuSans-2e" x="122.802734"/>
     <use xlink:href="#DejaVuSans-36" x="154.589844"/>
     <use xlink:href="#DejaVuSans-2e" x="218.212891"/>
     <use xlink:href="#DejaVuSans-33" x="250"/>
    </g>
   </g>
   <g id="legend_1">
    <g id="patch_7">
     <path d="M 76.208 136.881 
L 160.148625 136.881 
Q 164.148625 136.881 164.148625 132.881 
L 164.148625 17.456 
Q 164.148625 13.456 160.148625 13.456 
L 76.208 13.456 
Q 72.208 13.456 72.208 17.456 
L 72.208 132.881 
Q 72.208 136.881 76.208 136.881 
z
" style="fill: #ffffff; opacity: 0.2; stroke: #cccccc; stroke-linejoin: miter"/>
    </g>
    <g id="line2d_127">
     <path d="M 80.208 29.652875 
L 80.208 29.652875 
L 100.208 29.652875 
L 100.208 29.652875 
L 120.208 29.652875 
" style="fill: none; stroke: #000000; stroke-width: 1.5; stroke-linecap: square"/>
    </g>
    <g id="text_14">
     <!-- 1 -->
     <g transform="translate(136.208 36.652875) scale(0.2 -0.2)">
      <use xlink:href="#DejaVuSans-31"/>
     </g>
    </g>
    <g id="line2d_128">
     <path d="M 80.208 59.009125 
L 80.208 59.009125 
L 100.208 59.009125 
L 100.208 59.009125 
L 120.208 59.009125 
" style="fill: none; stroke: #00bfbf; stroke-width: 1.5; stroke-linecap: square"/>
    </g>
    <g id="text_15">
     <!-- -1 -->
     <g transform="translate(136.208 66.009125) scale(0.2 -0.2)">
      <use xlink:href="#DejaVuSans-2d"/>
      <use xlink:href="#DejaVuSans-31" x="36.083984"/>
     </g>
    </g>
    <g id="line2d_129">
     <path d="M 80.208 88.365375 
L 80.208 88.365375 
L 100.208 88.365375 
L 100.208 88.365375 
L 120.208 88.365375 
" style="fill: none; stroke: #bf00bf; stroke-width: 1.5; stroke-linecap: square"/>
    </g>
    <g id="text_16">
     <!-- -4 -->
     <g transform="translate(136.208 95.365375) scale(0.2 -0.2)">
      <use xlink:href="#DejaVuSans-2d"/>
      <use xlink:href="#DejaVuSans-34" x="36.083984"/>
     </g>
    </g>
    <g id="line2d_130">
     <path d="M 80.208 117.721625 
L 80.208 117.721625 
L 100.208 117.721625 
L 100.208 117.721625 
L 120.208 117.721625 
" style="fill: none; stroke: #ff0000; stroke-width: 3; stroke-linecap: square"/>
    </g>
    <g id="text_17">
     <!-- -8 -->
     <g transform="translate(136.208 124.721625) scale(0.2 -0.2)">
      <use xlink:href="#DejaVuSans-2d"/>
      <use xlink:href="#DejaVuSans-38" x="36.083984"/>
     </g>
    </g>
   </g>
  </g>
 </g>
 <defs>
  <clipPath id="p41262b971c">
   <rect x="62.208" y="3.456" width="398.592" height="290.304"/>
  </clipPath>
 </defs>
</svg>
