<?xml version="1.0" encoding="utf-8" standalone="no"?>
<!DOCTYPE svg PUBLIC "-//W3C//DTD SVG 1.1//EN"
  "http://www.w3.org/Graphics/SVG/1.1/DTD/svg11.dtd">
<svg xmlns:xlink="http://www.w3.org/1999/xlink" width="460.8pt" height="345.6pt" viewBox="0 0 460.8 345.6" xmlns="http://www.w3.org/2000/svg" version="1.1">
 <metadata>
  <rdf:RDF xmlns:dc="http://purl.org/dc/elements/1.1/" xmlns:cc="http://creativecommons.org/ns#" xmlns:rdf="http://www.w3.org/1999/02/22-rdf-syntax-ns#">
   <cc:Work>
    <dc:type rdf:resource="http://purl.org/dc/dcmitype/StillImage"/>
    <dc:date>2024-06-05T13:43:23.793567</dc:date>
    <dc:format>image/svg+xml</dc:format>
    <dc:creator>
     <cc:Agent>
      <dc:title>Matplotlib v3.7.1, https://matplotlib.org/</dc:title>
     </cc:Agent>
    </dc:creator>
   </cc:Work>
  </rdf:RDF>
 </metadata>
 <defs>
  <style type="text/css">*{stroke-linejoin: round; stroke-linecap: butt}</style>
 </defs>
 <g id="figure_1">
  <g id="patch_1">
   <path d="M 0 345.6 
L 460.8 345.6 
L 460.8 0 
L 0 0 
z
" style="fill: #ffffff"/>
  </g>
  <g id="axes_1">
   <g id="patch_2">
    <path d="M 62.208 293.76 
L 460.8 293.76 
L 460.8 3.456 
L 62.208 3.456 
z
" style="fill: #ffffff"/>
   </g>
   <g id="line2d_1"/>
   <g id="line2d_2">
    <path d="M 370.364059 293.76 
L 370.364059 288.969505 
L 372.59233 288.969505 
L 372.59233 284.17901 
L 377.88125 284.17901 
L 377.88125 279.388515 
L 378.746154 279.388515 
L 378.746154 274.59802 
L 381.005847 274.59802 
L 381.005847 269.807525 
L 382.141912 269.807525 
L 382.141912 265.01703 
L 382.683072 265.01703 
L 382.683072 260.226535 
L 382.705539 260.226535 
L 382.705539 255.43604 
L 382.813813 255.43604 
L 382.813813 250.645545 
L 383.145486 250.645545 
L 383.145486 245.85505 
L 383.212952 245.85505 
L 383.212952 241.064554 
L 383.397704 241.064554 
L 383.397704 236.274059 
L 383.400677 236.274059 
L 383.400677 231.483564 
L 383.466879 231.483564 
L 383.466879 226.693069 
L 383.525777 226.693069 
L 383.525777 221.902574 
L 383.79462 221.902574 
L 383.79462 217.112079 
L 383.968411 217.112079 
L 383.968411 212.321584 
L 384.54 212.321584 
L 384.54 207.531089 
L 385.210806 207.531089 
L 385.210806 202.740594 
L 385.270919 202.740594 
L 385.270919 197.950099 
L 387.911135 197.950099 
L 387.911135 193.159604 
L 389.641786 193.159604 
L 389.641786 188.369109 
L 404.771738 188.369109 
L 404.771738 183.578614 
L 409.36221 183.578614 
L 409.36221 178.788119 
L 410.647828 178.788119 
L 410.647828 173.997624 
L 411.568434 173.997624 
L 411.568434 169.207129 
L 412.508133 169.207129 
L 412.508133 164.416634 
L 412.743238 164.416634 
L 412.743238 159.626139 
L 425.201728 159.626139 
L 425.201728 154.835644 
L 429.208617 154.835644 
L 429.208617 150.045149 
L 429.208617 150.045149 
L 429.208617 150.045149 
L 460.8 150.045149 
" clip-path="url(#pa0cdbd57f4)" style="fill: none; stroke: #f5deb3; stroke-width: 1.5; stroke-linecap: square"/>
   </g>
   <g id="line2d_3"/>
   <g id="line2d_4"/>
   <g id="line2d_5">
    <path d="M 328.869323 293.76 
L 328.869323 288.969505 
L 329.798245 288.969505 
L 329.798245 284.17901 
L 330.338939 284.17901 
L 330.338939 279.388515 
L 330.569167 279.388515 
L 330.569167 274.59802 
L 330.896933 274.59802 
L 330.896933 269.807525 
L 330.965207 269.807525 
L 330.965207 265.01703 
L 333.44923 265.01703 
L 333.44923 260.226535 
L 333.627252 260.226535 
L 333.627252 255.43604 
L 333.856831 255.43604 
L 333.856831 250.645545 
L 335.151966 250.645545 
L 335.151966 245.85505 
L 335.225852 245.85505 
L 335.225852 241.064554 
L 336.134411 241.064554 
L 336.134411 236.274059 
L 338.312981 236.274059 
L 338.312981 231.483564 
L 338.533089 231.483564 
L 338.533089 226.693069 
L 338.884836 226.693069 
L 338.884836 221.902574 
L 371.822774 221.902574 
L 371.822774 217.112079 
L 372.513307 217.112079 
L 372.513307 212.321584 
L 372.702597 212.321584 
L 372.702597 207.531089 
L 372.801036 207.531089 
L 372.801036 202.740594 
L 373.331513 202.740594 
L 373.331513 197.950099 
L 373.451179 197.950099 
L 373.451179 193.159604 
L 373.648059 193.159604 
L 373.648059 188.369109 
L 373.828468 188.369109 
L 373.828468 183.578614 
L 374.290374 183.578614 
L 374.290374 178.788119 
L 374.820971 178.788119 
L 374.820971 173.997624 
L 374.855998 173.997624 
L 374.855998 169.207129 
L 374.862268 169.207129 
L 374.862268 164.416634 
L 375.031207 164.416634 
L 375.031207 159.626139 
L 375.437671 159.626139 
L 375.437671 154.835644 
L 376.088411 154.835644 
L 376.088411 150.045149 
L 376.235734 150.045149 
L 376.235734 145.254653 
L 376.244829 145.254653 
L 376.244829 140.464158 
L 376.295323 140.464158 
L 376.295323 135.673663 
L 376.44543 135.673663 
L 376.44543 130.883168 
L 376.696564 130.883168 
L 376.696564 126.092673 
L 376.751 126.092673 
L 376.751 121.302178 
L 377.600114 121.302178 
L 377.600114 116.511683 
L 378.635691 116.511683 
L 378.635691 111.721188 
L 378.69334 111.721188 
L 378.69334 106.930693 
L 379.443946 106.930693 
L 379.443946 102.140198 
L 379.554131 102.140198 
L 379.554131 97.349703 
L 401.0864 97.349703 
L 401.0864 92.559208 
L 402.059484 92.559208 
L 402.059484 87.768713 
L 402.195639 87.768713 
L 402.195639 82.978218 
L 402.708168 82.978218 
L 402.708168 78.187723 
L 402.934575 78.187723 
L 402.934575 73.397228 
L 403.591077 73.397228 
L 403.591077 68.606733 
L 404.22883 68.606733 
L 404.22883 63.816238 
L 404.812681 63.816238 
L 404.812681 59.025743 
L 405.099653 59.025743 
L 405.099653 54.235248 
L 405.773183 54.235248 
L 405.773183 49.444752 
L 405.967195 49.444752 
L 405.967195 44.654257 
L 406.276262 44.654257 
L 406.276262 39.863762 
L 408.406584 39.863762 
L 408.406584 35.073267 
L 408.88465 35.073267 
L 408.88465 30.282772 
L 409.185619 30.282772 
L 409.185619 25.492277 
L 409.667135 25.492277 
L 409.667135 20.701782 
L 409.906915 20.701782 
L 409.906915 15.911287 
L 409.939048 15.911287 
L 409.939048 11.120792 
L 432.260232 11.120792 
L 432.260232 6.330297 
L 432.260232 6.330297 
L 432.260232 6.330297 
L 460.8 6.330297 
" clip-path="url(#pa0cdbd57f4)" style="fill: none; stroke: #f5deb3; stroke-width: 1.5; stroke-linecap: square"/>
   </g>
   <g id="line2d_6">
    <path d="M 377.884649 293.76 
L 377.884649 288.969505 
L 380.376747 288.969505 
L 380.376747 284.17901 
L 383.180087 284.17901 
L 383.180087 279.388515 
L 387.965156 279.388515 
L 387.965156 274.59802 
L 389.167453 274.59802 
L 389.167453 269.807525 
L 399.059752 269.807525 
L 399.059752 265.01703 
L 404.473808 265.01703 
L 404.473808 260.226535 
L 407.591999 260.226535 
L 407.591999 255.43604 
L 409.484406 255.43604 
L 409.484406 250.645545 
L 413.882843 250.645545 
L 413.882843 245.85505 
L 415.453288 245.85505 
L 415.453288 241.064554 
L 419.036729 241.064554 
L 419.036729 236.274059 
L 431.744665 236.274059 
L 431.744665 231.483564 
L 433.036843 231.483564 
L 433.036843 226.693069 
L 450.595799 226.693069 
L 450.595799 221.902574 
L 461.8 221.902574 
" clip-path="url(#pa0cdbd57f4)" style="fill: none; stroke: #f5deb3; stroke-width: 1.5; stroke-linecap: square"/>
   </g>
   <g id="line2d_7">
    <path d="M 311.358562 293.76 
L 311.358562 291.364752 
L 313.216427 291.364752 
L 313.216427 288.969505 
L 313.407207 288.969505 
L 313.407207 286.574257 
L 313.502267 286.574257 
L 313.502267 284.17901 
L 314.348079 284.17901 
L 314.348079 281.783762 
L 314.533703 281.783762 
L 314.533703 279.388515 
L 315.08561 279.388515 
L 315.08561 276.993267 
L 315.17688 276.993267 
L 315.17688 274.59802 
L 315.267948 274.59802 
L 315.267948 272.202772 
L 315.358816 272.202772 
L 315.358816 269.807525 
L 315.449484 269.807525 
L 315.449484 267.412277 
L 315.539953 267.412277 
L 315.539953 265.01703 
L 315.630223 265.01703 
L 315.630223 262.621782 
L 315.899854 262.621782 
L 315.899854 260.226535 
L 315.989341 260.226535 
L 315.989341 257.831287 
L 316.167733 257.831287 
L 316.167733 255.43604 
L 316.25664 255.43604 
L 316.25664 253.040792 
L 316.345356 253.040792 
L 316.345356 250.645545 
L 316.433881 250.645545 
L 316.433881 248.250297 
L 316.698322 248.250297 
L 316.698322 245.85505 
L 316.786093 245.85505 
L 316.786093 243.459802 
L 316.873678 243.459802 
L 316.873678 241.064554 
L 316.961077 241.064554 
L 316.961077 238.669307 
L 317.048291 238.669307 
L 317.048291 236.274059 
L 317.048291 236.274059 
L 317.048291 233.878812 
L 317.135321 233.878812 
L 317.135321 231.483564 
L 317.222167 231.483564 
L 317.222167 229.088317 
L 317.308831 229.088317 
L 317.308831 226.693069 
L 317.481613 226.693069 
L 317.481613 224.297822 
L 317.481613 224.297822 
L 317.481613 221.902574 
L 317.481613 221.902574 
L 317.481613 219.507327 
L 317.567734 219.507327 
L 317.567734 217.112079 
L 317.567734 217.112079 
L 317.567734 214.716832 
L 317.653674 214.716832 
L 317.653674 212.321584 
L 317.653674 212.321584 
L 317.653674 209.926337 
L 317.910427 209.926337 
L 317.910427 207.531089 
L 317.910427 207.531089 
L 317.910427 205.135842 
L 317.910427 205.135842 
L 317.910427 202.740594 
L 318.08071 202.740594 
L 318.08071 200.345347 
L 318.08071 200.345347 
L 318.08071 197.950099 
L 318.503367 197.950099 
L 318.503367 195.554851 
L 318.58738 195.554851 
L 318.58738 193.159604 
L 318.671223 193.159604 
L 318.671223 190.764356 
L 318.921732 190.764356 
L 318.921732 188.369109 
L 319.170728 188.369109 
L 319.170728 185.973861 
L 319.253393 185.973861 
L 319.253393 183.578614 
L 319.745933 183.578614 
L 319.745933 181.183366 
L 319.745933 181.183366 
L 319.745933 178.788119 
L 319.827454 178.788119 
L 319.827454 176.392871 
L 340.763959 176.392871 
L 340.763959 173.997624 
L 343.831912 173.997624 
L 343.831912 171.602376 
L 343.922782 171.602376 
L 343.922782 169.207129 
L 344.508604 169.207129 
L 344.508604 166.811881 
L 345.042069 166.811881 
L 345.042069 164.416634 
L 346.174751 164.416634 
L 346.174751 162.021386 
L 347.193373 162.021386 
L 347.193373 159.626139 
L 347.402454 159.626139 
L 347.402454 157.230891 
L 347.817459 157.230891 
L 347.817459 154.835644 
L 361.942163 154.835644 
L 361.942163 152.440396 
L 383.633187 152.440396 
L 383.633187 150.045149 
L 383.633187 150.045149 
L 383.633187 150.045149 
L 460.8 150.045149 
" clip-path="url(#pa0cdbd57f4)" style="fill: none; stroke: #f5deb3; stroke-width: 1.5; stroke-linecap: square"/>
   </g>
   <g id="line2d_8"/>
   <g id="line2d_9"/>
   <g id="line2d_10"/>
   <g id="line2d_11">
    <path d="M 453.661779 293.76 
L 453.661779 288.969505 
L 461.8 288.969505 
" clip-path="url(#pa0cdbd57f4)" style="fill: none; stroke: #f5deb3; stroke-width: 1.5; stroke-linecap: square"/>
   </g>
   <g id="line2d_12"/>
   <g id="line2d_13">
    <path d="M 272.66498 293.76 
L 272.66498 288.969505 
L 275.374923 288.969505 
L 275.374923 284.17901 
L 281.325913 284.17901 
L 281.325913 279.388515 
L 282.374206 279.388515 
L 282.374206 274.59802 
L 282.673779 274.59802 
L 282.673779 269.807525 
L 283.039146 269.807525 
L 283.039146 265.01703 
L 284.930245 265.01703 
L 284.930245 260.226535 
L 285.022791 260.226535 
L 285.022791 255.43604 
L 285.188852 255.43604 
L 285.188852 250.645545 
L 285.290005 250.645545 
L 285.290005 245.85505 
L 286.605135 245.85505 
L 286.605135 241.064554 
L 287.073946 241.064554 
L 287.073946 236.274059 
L 287.624362 236.274059 
L 287.624362 231.483564 
L 288.657094 231.483564 
L 288.657094 226.693069 
L 290.409418 226.693069 
L 290.409418 221.902574 
L 291.125095 221.902574 
L 291.125095 217.112079 
L 292.827322 217.112079 
L 292.827322 212.321584 
L 294.270426 212.321584 
L 294.270426 207.531089 
L 296.203828 207.531089 
L 296.203828 202.740594 
L 296.221443 202.740594 
L 296.221443 197.950099 
L 309.997023 197.950099 
L 309.997023 193.159604 
L 314.576594 193.159604 
L 314.576594 188.369109 
L 314.978499 188.369109 
L 314.978499 183.578614 
L 315.612625 183.578614 
L 315.612625 178.788119 
L 315.674186 178.788119 
L 315.674186 173.997624 
L 316.416623 173.997624 
L 316.416623 169.207129 
L 316.51576 169.207129 
L 316.51576 164.416634 
L 316.636127 164.416634 
L 316.636127 159.626139 
L 317.107746 159.626139 
L 317.107746 154.835644 
L 317.599196 154.835644 
L 317.599196 150.045149 
L 318.246165 150.045149 
L 318.246165 145.254653 
L 318.338943 145.254653 
L 318.338943 140.464158 
L 318.564857 140.464158 
L 318.564857 135.673663 
L 319.777765 135.673663 
L 319.777765 130.883168 
L 319.867162 130.883168 
L 319.867162 126.092673 
L 320.639756 126.092673 
L 320.639756 121.302178 
L 321.208401 121.302178 
L 321.208401 116.511683 
L 321.937611 116.511683 
L 321.937611 111.721188 
L 323.649117 111.721188 
L 323.649117 106.930693 
L 324.135055 106.930693 
L 324.135055 102.140198 
L 324.186909 102.140198 
L 324.186909 97.349703 
L 324.194057 97.349703 
L 324.194057 92.559208 
L 324.208347 92.559208 
L 324.208347 87.768713 
L 330.374324 87.768713 
L 330.374324 82.978218 
L 330.702112 82.978218 
L 330.702112 78.187723 
L 330.702112 78.187723 
L 330.702112 78.187723 
L 460.8 78.187723 
" clip-path="url(#pa0cdbd57f4)" style="fill: none; stroke: #f5deb3; stroke-width: 1.5; stroke-linecap: square"/>
   </g>
   <g id="line2d_14"/>
   <g id="line2d_15"/>
   <g id="line2d_16">
    <path d="M 425.485685 293.76 
L 425.485685 288.969505 
L 439.928339 288.969505 
L 439.928339 284.17901 
L 442.847428 284.17901 
L 442.847428 279.388515 
L 442.847428 279.388515 
L 442.847428 279.388515 
L 460.8 279.388515 
" clip-path="url(#pa0cdbd57f4)" style="fill: none; stroke: #f5deb3; stroke-width: 1.5; stroke-linecap: square"/>
   </g>
   <g id="line2d_17">
    <path d="M 363.382212 293.76 
L 363.382212 288.969505 
L 364.322 288.969505 
L 364.322 284.17901 
L 365.352204 284.17901 
L 365.352204 279.388515 
L 365.513126 279.388515 
L 365.513126 274.59802 
L 366.457351 274.59802 
L 366.457351 269.807525 
L 366.935092 269.807525 
L 366.935092 265.01703 
L 369.568557 265.01703 
L 369.568557 260.226535 
L 370.713388 260.226535 
L 370.713388 255.43604 
L 371.506575 255.43604 
L 371.506575 250.645545 
L 371.759165 250.645545 
L 371.759165 245.85505 
L 372.834529 245.85505 
L 372.834529 241.064554 
L 375.480929 241.064554 
L 375.480929 236.274059 
L 375.674516 236.274059 
L 375.674516 231.483564 
L 376.322564 231.483564 
L 376.322564 226.693069 
L 376.704059 226.693069 
L 376.704059 221.902574 
L 451.152258 221.902574 
L 451.152258 217.112079 
L 452.228583 217.112079 
L 452.228583 212.321584 
L 452.260466 212.321584 
L 452.260466 207.531089 
L 452.354454 207.531089 
L 452.354454 202.740594 
L 452.377321 202.740594 
L 452.377321 197.950099 
L 452.411318 197.950099 
L 452.411318 193.159604 
L 452.766879 193.159604 
L 452.766879 188.369109 
L 452.846572 188.369109 
L 452.846572 183.578614 
L 452.909444 183.578614 
L 452.909444 178.788119 
L 452.975676 178.788119 
L 452.975676 173.997624 
L 453.334827 173.997624 
L 453.334827 169.207129 
L 453.411177 169.207129 
L 453.411177 164.416634 
L 453.580245 164.416634 
L 453.580245 159.626139 
L 453.744154 159.626139 
L 453.744154 154.835644 
L 453.769111 154.835644 
L 453.769111 150.045149 
L 453.769342 150.045149 
L 453.769342 145.254653 
L 453.974896 145.254653 
L 453.974896 140.464158 
L 453.982787 140.464158 
L 453.982787 135.673663 
L 454.043645 135.673663 
L 454.043645 130.883168 
L 454.128085 130.883168 
L 454.128085 126.092673 
L 454.803607 126.092673 
L 454.803607 121.302178 
L 454.817273 121.302178 
L 454.817273 116.511683 
L 454.951134 116.511683 
L 454.951134 111.721188 
L 454.983522 111.721188 
L 454.983522 106.930693 
L 455.161017 106.930693 
L 455.161017 102.140198 
L 455.248698 102.140198 
L 455.248698 97.349703 
L 455.467496 97.349703 
L 455.467496 92.559208 
L 455.496379 92.559208 
L 455.496379 87.768713 
L 455.743461 87.768713 
L 455.743461 82.978218 
L 455.874718 82.978218 
L 455.874718 78.187723 
L 461.8 78.187723 
" clip-path="url(#pa0cdbd57f4)" style="fill: none; stroke: #f5deb3; stroke-width: 1.5; stroke-linecap: square"/>
   </g>
   <g id="line2d_18">
    <path d="M 340.118335 293.76 
L 340.118335 288.969505 
L 340.234715 288.969505 
L 340.234715 284.17901 
L 340.870189 284.17901 
L 340.870189 279.388515 
L 341.465475 279.388515 
L 341.465475 274.59802 
L 341.626131 274.59802 
L 341.626131 269.807525 
L 341.910722 269.807525 
L 341.910722 265.01703 
L 342.918824 265.01703 
L 342.918824 260.226535 
L 343.250951 260.226535 
L 343.250951 255.43604 
L 343.488794 255.43604 
L 343.488794 250.645545 
L 343.954871 250.645545 
L 343.954871 245.85505 
L 344.38072 245.85505 
L 344.38072 241.064554 
L 344.88232 241.064554 
L 344.88232 236.274059 
L 345.963546 236.274059 
L 345.963546 231.483564 
L 346.230262 231.483564 
L 346.230262 226.693069 
L 349.967985 226.693069 
L 349.967985 221.902574 
L 360.766738 221.902574 
L 360.766738 217.112079 
L 369.09592 217.112079 
L 369.09592 212.321584 
L 377.160205 212.321584 
L 377.160205 207.531089 
L 377.624063 207.531089 
L 377.624063 202.740594 
L 377.954023 202.740594 
L 377.954023 197.950099 
L 378.119465 197.950099 
L 378.119465 193.159604 
L 378.868176 193.159604 
L 378.868176 188.369109 
L 378.919345 188.369109 
L 378.919345 183.578614 
L 379.566718 183.578614 
L 379.566718 178.788119 
L 379.795878 178.788119 
L 379.795878 173.997624 
L 379.951794 173.997624 
L 379.951794 169.207129 
L 380.108963 169.207129 
L 380.108963 164.416634 
L 381.001796 164.416634 
L 381.001796 159.626139 
L 381.190434 159.626139 
L 381.190434 154.835644 
L 381.199844 154.835644 
L 381.199844 150.045149 
L 381.466442 150.045149 
L 381.466442 145.254653 
L 381.493585 145.254653 
L 381.493585 140.464158 
L 381.747245 140.464158 
L 381.747245 135.673663 
L 382.674428 135.673663 
L 382.674428 130.883168 
L 382.715041 130.883168 
L 382.715041 126.092673 
L 382.894295 126.092673 
L 382.894295 121.302178 
L 383.262414 121.302178 
L 383.262414 116.511683 
L 383.648388 116.511683 
L 383.648388 111.721188 
L 384.746049 111.721188 
L 384.746049 106.930693 
L 385.506056 106.930693 
L 385.506056 102.140198 
L 408.111977 102.140198 
L 408.111977 97.349703 
L 410.86803 97.349703 
L 410.86803 92.559208 
L 412.606936 92.559208 
L 412.606936 87.768713 
L 422.625896 87.768713 
L 422.625896 82.978218 
L 434.081787 82.978218 
L 434.081787 78.187723 
L 434.081787 78.187723 
L 434.081787 78.187723 
L 460.8 78.187723 
" clip-path="url(#pa0cdbd57f4)" style="fill: none; stroke: #f5deb3; stroke-width: 1.5; stroke-linecap: square"/>
   </g>
   <g id="line2d_19">
    <path d="M 330.590589 293.76 
L 330.590589 288.969505 
L 330.680748 288.969505 
L 330.680748 284.17901 
L 330.839192 284.17901 
L 330.839192 279.388515 
L 331.981882 279.388515 
L 331.981882 274.59802 
L 332.431987 274.59802 
L 332.431987 269.807525 
L 332.822199 269.807525 
L 332.822199 265.01703 
L 372.052189 265.01703 
L 372.052189 260.226535 
L 372.365355 260.226535 
L 372.365355 255.43604 
L 372.534874 255.43604 
L 372.534874 250.645545 
L 374.617016 250.645545 
L 374.617016 245.85505 
L 375.014032 245.85505 
L 375.014032 241.064554 
L 406.819737 241.064554 
L 406.819737 236.274059 
L 407.774362 236.274059 
L 407.774362 231.483564 
L 410.975626 231.483564 
L 410.975626 226.693069 
L 411.20988 226.693069 
L 411.20988 221.902574 
L 411.395899 221.902574 
L 411.395899 217.112079 
L 411.651756 217.112079 
L 411.651756 212.321584 
L 411.7253 212.321584 
L 411.7253 207.531089 
L 411.726368 207.531089 
L 411.726368 202.740594 
L 411.766504 202.740594 
L 411.766504 197.950099 
L 412.0328 197.950099 
L 412.0328 193.159604 
L 412.205439 193.159604 
L 412.205439 188.369109 
L 412.330657 188.369109 
L 412.330657 183.578614 
L 412.768445 183.578614 
L 412.768445 178.788119 
L 412.842103 178.788119 
L 412.842103 173.997624 
L 413.000832 173.997624 
L 413.000832 169.207129 
L 413.075523 169.207129 
L 413.075523 164.416634 
L 413.215025 164.416634 
L 413.215025 159.626139 
L 413.246122 159.626139 
L 413.246122 154.835644 
L 413.253121 154.835644 
L 413.253121 150.045149 
L 413.305367 150.045149 
L 413.305367 145.254653 
L 413.556621 145.254653 
L 413.556621 140.464158 
L 413.658652 140.464158 
L 413.658652 135.673663 
L 414.030956 135.673663 
L 414.030956 130.883168 
L 414.193026 130.883168 
L 414.193026 126.092673 
L 414.304532 126.092673 
L 414.304532 121.302178 
L 414.351655 121.302178 
L 414.351655 116.511683 
L 414.355263 116.511683 
L 414.355263 111.721188 
L 414.535024 111.721188 
L 414.535024 106.930693 
L 414.736644 106.930693 
L 414.736644 102.140198 
L 414.943803 102.140198 
L 414.943803 97.349703 
L 415.026495 97.349703 
L 415.026495 92.559208 
L 415.054481 92.559208 
L 415.054481 87.768713 
L 415.296304 87.768713 
L 415.296304 82.978218 
L 415.694147 82.978218 
L 415.694147 78.187723 
L 415.725561 78.187723 
L 415.725561 73.397228 
L 416.050316 73.397228 
L 416.050316 68.606733 
L 416.359173 68.606733 
L 416.359173 63.816238 
L 416.783223 63.816238 
L 416.783223 59.025743 
L 418.115136 59.025743 
L 418.115136 54.235248 
L 418.883866 54.235248 
L 418.883866 49.444752 
L 422.045029 49.444752 
L 422.045029 44.654257 
L 423.328002 44.654257 
L 423.328002 39.863762 
L 423.609595 39.863762 
L 423.609595 35.073267 
L 424.843152 35.073267 
L 424.843152 30.282772 
L 425.166596 30.282772 
L 425.166596 25.492277 
L 431.723108 25.492277 
L 431.723108 20.701782 
L 435.125592 20.701782 
L 435.125592 15.911287 
L 437.498666 15.911287 
L 437.498666 11.120792 
L 453.144972 11.120792 
L 453.144972 6.330297 
L 453.144972 6.330297 
L 453.144972 6.330297 
L 460.8 6.330297 
" clip-path="url(#pa0cdbd57f4)" style="fill: none; stroke: #f5deb3; stroke-width: 1.5; stroke-linecap: square"/>
   </g>
   <g id="line2d_20"/>
   <g id="matplotlib.axis_1">
    <g id="xtick_1">
     <g id="line2d_21">
      <path d="M 62.208 293.76 
L 62.208 3.456 
" clip-path="url(#pa0cdbd57f4)" style="fill: none; stroke: #b0b0b0; stroke-width: 0.8; stroke-linecap: square"/>
     </g>
     <g id="line2d_22">
      <defs>
       <path id="m87b8be6766" d="M 0 0 
L 0 3.5 
" style="stroke: #000000; stroke-width: 0.8"/>
      </defs>
      <g>
       <use xlink:href="#m87b8be6766" x="62.208" y="293.76" style="stroke: #000000; stroke-width: 0.8"/>
      </g>
     </g>
     <g id="text_1">
      <!-- 0 -->
      <g transform="translate(55.8455 315.956875) scale(0.2 -0.2)">
       <defs>
        <path id="DejaVuSans-30" d="M 2034 4250 
Q 1547 4250 1301 3770 
Q 1056 3291 1056 2328 
Q 1056 1369 1301 889 
Q 1547 409 2034 409 
Q 2525 409 2770 889 
Q 3016 1369 3016 2328 
Q 3016 3291 2770 3770 
Q 2525 4250 2034 4250 
z
M 2034 4750 
Q 2819 4750 3233 4129 
Q 3647 3509 3647 2328 
Q 3647 1150 3233 529 
Q 2819 -91 2034 -91 
Q 1250 -91 836 529 
Q 422 1150 422 2328 
Q 422 3509 836 4129 
Q 1250 4750 2034 4750 
z
" transform="scale(0.015625)"/>
       </defs>
       <use xlink:href="#DejaVuSans-30"/>
      </g>
     </g>
    </g>
    <g id="xtick_2">
     <g id="line2d_23">
      <path d="M 251.990238 293.76 
L 251.990238 3.456 
" clip-path="url(#pa0cdbd57f4)" style="fill: none; stroke: #b0b0b0; stroke-width: 0.8; stroke-linecap: square"/>
     </g>
     <g id="line2d_24">
      <g>
       <use xlink:href="#m87b8be6766" x="251.990238" y="293.76" style="stroke: #000000; stroke-width: 0.8"/>
      </g>
     </g>
     <g id="text_2">
      <!-- 2 -->
      <g transform="translate(245.627738 315.956875) scale(0.2 -0.2)">
       <defs>
        <path id="DejaVuSans-32" d="M 1228 531 
L 3431 531 
L 3431 0 
L 469 0 
L 469 531 
Q 828 903 1448 1529 
Q 2069 2156 2228 2338 
Q 2531 2678 2651 2914 
Q 2772 3150 2772 3378 
Q 2772 3750 2511 3984 
Q 2250 4219 1831 4219 
Q 1534 4219 1204 4116 
Q 875 4013 500 3803 
L 500 4441 
Q 881 4594 1212 4672 
Q 1544 4750 1819 4750 
Q 2544 4750 2975 4387 
Q 3406 4025 3406 3419 
Q 3406 3131 3298 2873 
Q 3191 2616 2906 2266 
Q 2828 2175 2409 1742 
Q 1991 1309 1228 531 
z
" transform="scale(0.015625)"/>
       </defs>
       <use xlink:href="#DejaVuSans-32"/>
      </g>
     </g>
    </g>
    <g id="xtick_3">
     <g id="line2d_25">
      <path d="M 441.772475 293.76 
L 441.772475 3.456 
" clip-path="url(#pa0cdbd57f4)" style="fill: none; stroke: #b0b0b0; stroke-width: 0.8; stroke-linecap: square"/>
     </g>
     <g id="line2d_26">
      <g>
       <use xlink:href="#m87b8be6766" x="441.772475" y="293.76" style="stroke: #000000; stroke-width: 0.8"/>
      </g>
     </g>
     <g id="text_3">
      <!-- 4 -->
      <g transform="translate(435.409975 315.956875) scale(0.2 -0.2)">
       <defs>
        <path id="DejaVuSans-34" d="M 2419 4116 
L 825 1625 
L 2419 1625 
L 2419 4116 
z
M 2253 4666 
L 3047 4666 
L 3047 1625 
L 3713 1625 
L 3713 1100 
L 3047 1100 
L 3047 0 
L 2419 0 
L 2419 1100 
L 313 1100 
L 313 1709 
L 2253 4666 
z
" transform="scale(0.015625)"/>
       </defs>
       <use xlink:href="#DejaVuSans-34"/>
      </g>
     </g>
    </g>
    <g id="xtick_4">
     <g id="line2d_27">
      <path d="M 90.773073 293.76 
L 90.773073 3.456 
" clip-path="url(#pa0cdbd57f4)" style="fill: none; stroke: #b0b0b0; stroke-width: 0.8; stroke-linecap: square"/>
     </g>
     <g id="line2d_28">
      <defs>
       <path id="m0110ad6bab" d="M 0 0 
L 0 2 
" style="stroke: #000000; stroke-width: 0.6"/>
      </defs>
      <g>
       <use xlink:href="#m0110ad6bab" x="90.773073" y="293.76" style="stroke: #000000; stroke-width: 0.6"/>
      </g>
     </g>
    </g>
    <g id="xtick_5">
     <g id="line2d_29">
      <path d="M 107.48257 293.76 
L 107.48257 3.456 
" clip-path="url(#pa0cdbd57f4)" style="fill: none; stroke: #b0b0b0; stroke-width: 0.8; stroke-linecap: square"/>
     </g>
     <g id="line2d_30">
      <g>
       <use xlink:href="#m0110ad6bab" x="107.48257" y="293.76" style="stroke: #000000; stroke-width: 0.6"/>
      </g>
     </g>
    </g>
    <g id="xtick_6">
     <g id="line2d_31">
      <path d="M 119.338146 293.76 
L 119.338146 3.456 
" clip-path="url(#pa0cdbd57f4)" style="fill: none; stroke: #b0b0b0; stroke-width: 0.8; stroke-linecap: square"/>
     </g>
     <g id="line2d_32">
      <g>
       <use xlink:href="#m0110ad6bab" x="119.338146" y="293.76" style="stroke: #000000; stroke-width: 0.6"/>
      </g>
     </g>
    </g>
    <g id="xtick_7">
     <g id="line2d_33">
      <path d="M 128.534046 293.76 
L 128.534046 3.456 
" clip-path="url(#pa0cdbd57f4)" style="fill: none; stroke: #b0b0b0; stroke-width: 0.8; stroke-linecap: square"/>
     </g>
     <g id="line2d_34">
      <g>
       <use xlink:href="#m0110ad6bab" x="128.534046" y="293.76" style="stroke: #000000; stroke-width: 0.6"/>
      </g>
     </g>
    </g>
    <g id="xtick_8">
     <g id="line2d_35">
      <path d="M 136.047643 293.76 
L 136.047643 3.456 
" clip-path="url(#pa0cdbd57f4)" style="fill: none; stroke: #b0b0b0; stroke-width: 0.8; stroke-linecap: square"/>
     </g>
     <g id="line2d_36">
      <g>
       <use xlink:href="#m0110ad6bab" x="136.047643" y="293.76" style="stroke: #000000; stroke-width: 0.6"/>
      </g>
     </g>
    </g>
    <g id="xtick_9">
     <g id="line2d_37">
      <path d="M 142.400299 293.76 
L 142.400299 3.456 
" clip-path="url(#pa0cdbd57f4)" style="fill: none; stroke: #b0b0b0; stroke-width: 0.8; stroke-linecap: square"/>
     </g>
     <g id="line2d_38">
      <g>
       <use xlink:href="#m0110ad6bab" x="142.400299" y="293.76" style="stroke: #000000; stroke-width: 0.6"/>
      </g>
     </g>
    </g>
    <g id="xtick_10">
     <g id="line2d_39">
      <path d="M 147.903219 293.76 
L 147.903219 3.456 
" clip-path="url(#pa0cdbd57f4)" style="fill: none; stroke: #b0b0b0; stroke-width: 0.8; stroke-linecap: square"/>
     </g>
     <g id="line2d_40">
      <g>
       <use xlink:href="#m0110ad6bab" x="147.903219" y="293.76" style="stroke: #000000; stroke-width: 0.6"/>
      </g>
     </g>
    </g>
    <g id="xtick_11">
     <g id="line2d_41">
      <path d="M 152.757139 293.76 
L 152.757139 3.456 
" clip-path="url(#pa0cdbd57f4)" style="fill: none; stroke: #b0b0b0; stroke-width: 0.8; stroke-linecap: square"/>
     </g>
     <g id="line2d_42">
      <g>
       <use xlink:href="#m0110ad6bab" x="152.757139" y="293.76" style="stroke: #000000; stroke-width: 0.6"/>
      </g>
     </g>
    </g>
    <g id="xtick_12">
     <g id="line2d_43">
      <path d="M 185.664192 293.76 
L 185.664192 3.456 
" clip-path="url(#pa0cdbd57f4)" style="fill: none; stroke: #b0b0b0; stroke-width: 0.8; stroke-linecap: square"/>
     </g>
     <g id="line2d_44">
      <g>
       <use xlink:href="#m0110ad6bab" x="185.664192" y="293.76" style="stroke: #000000; stroke-width: 0.6"/>
      </g>
     </g>
    </g>
    <g id="xtick_13">
     <g id="line2d_45">
      <path d="M 202.373688 293.76 
L 202.373688 3.456 
" clip-path="url(#pa0cdbd57f4)" style="fill: none; stroke: #b0b0b0; stroke-width: 0.8; stroke-linecap: square"/>
     </g>
     <g id="line2d_46">
      <g>
       <use xlink:href="#m0110ad6bab" x="202.373688" y="293.76" style="stroke: #000000; stroke-width: 0.6"/>
      </g>
     </g>
    </g>
    <g id="xtick_14">
     <g id="line2d_47">
      <path d="M 214.229265 293.76 
L 214.229265 3.456 
" clip-path="url(#pa0cdbd57f4)" style="fill: none; stroke: #b0b0b0; stroke-width: 0.8; stroke-linecap: square"/>
     </g>
     <g id="line2d_48">
      <g>
       <use xlink:href="#m0110ad6bab" x="214.229265" y="293.76" style="stroke: #000000; stroke-width: 0.6"/>
      </g>
     </g>
    </g>
    <g id="xtick_15">
     <g id="line2d_49">
      <path d="M 223.425164 293.76 
L 223.425164 3.456 
" clip-path="url(#pa0cdbd57f4)" style="fill: none; stroke: #b0b0b0; stroke-width: 0.8; stroke-linecap: square"/>
     </g>
     <g id="line2d_50">
      <g>
       <use xlink:href="#m0110ad6bab" x="223.425164" y="293.76" style="stroke: #000000; stroke-width: 0.6"/>
      </g>
     </g>
    </g>
    <g id="xtick_16">
     <g id="line2d_51">
      <path d="M 230.938762 293.76 
L 230.938762 3.456 
" clip-path="url(#pa0cdbd57f4)" style="fill: none; stroke: #b0b0b0; stroke-width: 0.8; stroke-linecap: square"/>
     </g>
     <g id="line2d_52">
      <g>
       <use xlink:href="#m0110ad6bab" x="230.938762" y="293.76" style="stroke: #000000; stroke-width: 0.6"/>
      </g>
     </g>
    </g>
    <g id="xtick_17">
     <g id="line2d_53">
      <path d="M 237.291417 293.76 
L 237.291417 3.456 
" clip-path="url(#pa0cdbd57f4)" style="fill: none; stroke: #b0b0b0; stroke-width: 0.8; stroke-linecap: square"/>
     </g>
     <g id="line2d_54">
      <g>
       <use xlink:href="#m0110ad6bab" x="237.291417" y="293.76" style="stroke: #000000; stroke-width: 0.6"/>
      </g>
     </g>
    </g>
    <g id="xtick_18">
     <g id="line2d_55">
      <path d="M 242.794338 293.76 
L 242.794338 3.456 
" clip-path="url(#pa0cdbd57f4)" style="fill: none; stroke: #b0b0b0; stroke-width: 0.8; stroke-linecap: square"/>
     </g>
     <g id="line2d_56">
      <g>
       <use xlink:href="#m0110ad6bab" x="242.794338" y="293.76" style="stroke: #000000; stroke-width: 0.6"/>
      </g>
     </g>
    </g>
    <g id="xtick_19">
     <g id="line2d_57">
      <path d="M 247.648258 293.76 
L 247.648258 3.456 
" clip-path="url(#pa0cdbd57f4)" style="fill: none; stroke: #b0b0b0; stroke-width: 0.8; stroke-linecap: square"/>
     </g>
     <g id="line2d_58">
      <g>
       <use xlink:href="#m0110ad6bab" x="247.648258" y="293.76" style="stroke: #000000; stroke-width: 0.6"/>
      </g>
     </g>
    </g>
    <g id="xtick_20">
     <g id="line2d_59">
      <path d="M 280.555311 293.76 
L 280.555311 3.456 
" clip-path="url(#pa0cdbd57f4)" style="fill: none; stroke: #b0b0b0; stroke-width: 0.8; stroke-linecap: square"/>
     </g>
     <g id="line2d_60">
      <g>
       <use xlink:href="#m0110ad6bab" x="280.555311" y="293.76" style="stroke: #000000; stroke-width: 0.6"/>
      </g>
     </g>
    </g>
    <g id="xtick_21">
     <g id="line2d_61">
      <path d="M 297.264807 293.76 
L 297.264807 3.456 
" clip-path="url(#pa0cdbd57f4)" style="fill: none; stroke: #b0b0b0; stroke-width: 0.8; stroke-linecap: square"/>
     </g>
     <g id="line2d_62">
      <g>
       <use xlink:href="#m0110ad6bab" x="297.264807" y="293.76" style="stroke: #000000; stroke-width: 0.6"/>
      </g>
     </g>
    </g>
    <g id="xtick_22">
     <g id="line2d_63">
      <path d="M 309.120384 293.76 
L 309.120384 3.456 
" clip-path="url(#pa0cdbd57f4)" style="fill: none; stroke: #b0b0b0; stroke-width: 0.8; stroke-linecap: square"/>
     </g>
     <g id="line2d_64">
      <g>
       <use xlink:href="#m0110ad6bab" x="309.120384" y="293.76" style="stroke: #000000; stroke-width: 0.6"/>
      </g>
     </g>
    </g>
    <g id="xtick_23">
     <g id="line2d_65">
      <path d="M 318.316283 293.76 
L 318.316283 3.456 
" clip-path="url(#pa0cdbd57f4)" style="fill: none; stroke: #b0b0b0; stroke-width: 0.8; stroke-linecap: square"/>
     </g>
     <g id="line2d_66">
      <g>
       <use xlink:href="#m0110ad6bab" x="318.316283" y="293.76" style="stroke: #000000; stroke-width: 0.6"/>
      </g>
     </g>
    </g>
    <g id="xtick_24">
     <g id="line2d_67">
      <path d="M 325.82988 293.76 
L 325.82988 3.456 
" clip-path="url(#pa0cdbd57f4)" style="fill: none; stroke: #b0b0b0; stroke-width: 0.8; stroke-linecap: square"/>
     </g>
     <g id="line2d_68">
      <g>
       <use xlink:href="#m0110ad6bab" x="325.82988" y="293.76" style="stroke: #000000; stroke-width: 0.6"/>
      </g>
     </g>
    </g>
    <g id="xtick_25">
     <g id="line2d_69">
      <path d="M 332.182536 293.76 
L 332.182536 3.456 
" clip-path="url(#pa0cdbd57f4)" style="fill: none; stroke: #b0b0b0; stroke-width: 0.8; stroke-linecap: square"/>
     </g>
     <g id="line2d_70">
      <g>
       <use xlink:href="#m0110ad6bab" x="332.182536" y="293.76" style="stroke: #000000; stroke-width: 0.6"/>
      </g>
     </g>
    </g>
    <g id="xtick_26">
     <g id="line2d_71">
      <path d="M 337.685457 293.76 
L 337.685457 3.456 
" clip-path="url(#pa0cdbd57f4)" style="fill: none; stroke: #b0b0b0; stroke-width: 0.8; stroke-linecap: square"/>
     </g>
     <g id="line2d_72">
      <g>
       <use xlink:href="#m0110ad6bab" x="337.685457" y="293.76" style="stroke: #000000; stroke-width: 0.6"/>
      </g>
     </g>
    </g>
    <g id="xtick_27">
     <g id="line2d_73">
      <path d="M 342.539377 293.76 
L 342.539377 3.456 
" clip-path="url(#pa0cdbd57f4)" style="fill: none; stroke: #b0b0b0; stroke-width: 0.8; stroke-linecap: square"/>
     </g>
     <g id="line2d_74">
      <g>
       <use xlink:href="#m0110ad6bab" x="342.539377" y="293.76" style="stroke: #000000; stroke-width: 0.6"/>
      </g>
     </g>
    </g>
    <g id="xtick_28">
     <g id="line2d_75">
      <path d="M 375.446429 293.76 
L 375.446429 3.456 
" clip-path="url(#pa0cdbd57f4)" style="fill: none; stroke: #b0b0b0; stroke-width: 0.8; stroke-linecap: square"/>
     </g>
     <g id="line2d_76">
      <g>
       <use xlink:href="#m0110ad6bab" x="375.446429" y="293.76" style="stroke: #000000; stroke-width: 0.6"/>
      </g>
     </g>
    </g>
    <g id="xtick_29">
     <g id="line2d_77">
      <path d="M 392.155926 293.76 
L 392.155926 3.456 
" clip-path="url(#pa0cdbd57f4)" style="fill: none; stroke: #b0b0b0; stroke-width: 0.8; stroke-linecap: square"/>
     </g>
     <g id="line2d_78">
      <g>
       <use xlink:href="#m0110ad6bab" x="392.155926" y="293.76" style="stroke: #000000; stroke-width: 0.6"/>
      </g>
     </g>
    </g>
    <g id="xtick_30">
     <g id="line2d_79">
      <path d="M 404.011503 293.76 
L 404.011503 3.456 
" clip-path="url(#pa0cdbd57f4)" style="fill: none; stroke: #b0b0b0; stroke-width: 0.8; stroke-linecap: square"/>
     </g>
     <g id="line2d_80">
      <g>
       <use xlink:href="#m0110ad6bab" x="404.011503" y="293.76" style="stroke: #000000; stroke-width: 0.6"/>
      </g>
     </g>
    </g>
    <g id="xtick_31">
     <g id="line2d_81">
      <path d="M 413.207402 293.76 
L 413.207402 3.456 
" clip-path="url(#pa0cdbd57f4)" style="fill: none; stroke: #b0b0b0; stroke-width: 0.8; stroke-linecap: square"/>
     </g>
     <g id="line2d_82">
      <g>
       <use xlink:href="#m0110ad6bab" x="413.207402" y="293.76" style="stroke: #000000; stroke-width: 0.6"/>
      </g>
     </g>
    </g>
    <g id="xtick_32">
     <g id="line2d_83">
      <path d="M 420.720999 293.76 
L 420.720999 3.456 
" clip-path="url(#pa0cdbd57f4)" style="fill: none; stroke: #b0b0b0; stroke-width: 0.8; stroke-linecap: square"/>
     </g>
     <g id="line2d_84">
      <g>
       <use xlink:href="#m0110ad6bab" x="420.720999" y="293.76" style="stroke: #000000; stroke-width: 0.6"/>
      </g>
     </g>
    </g>
    <g id="xtick_33">
     <g id="line2d_85">
      <path d="M 427.073655 293.76 
L 427.073655 3.456 
" clip-path="url(#pa0cdbd57f4)" style="fill: none; stroke: #b0b0b0; stroke-width: 0.8; stroke-linecap: square"/>
     </g>
     <g id="line2d_86">
      <g>
       <use xlink:href="#m0110ad6bab" x="427.073655" y="293.76" style="stroke: #000000; stroke-width: 0.6"/>
      </g>
     </g>
    </g>
    <g id="xtick_34">
     <g id="line2d_87">
      <path d="M 432.576576 293.76 
L 432.576576 3.456 
" clip-path="url(#pa0cdbd57f4)" style="fill: none; stroke: #b0b0b0; stroke-width: 0.8; stroke-linecap: square"/>
     </g>
     <g id="line2d_88">
      <g>
       <use xlink:href="#m0110ad6bab" x="432.576576" y="293.76" style="stroke: #000000; stroke-width: 0.6"/>
      </g>
     </g>
    </g>
    <g id="xtick_35">
     <g id="line2d_89">
      <path d="M 437.430496 293.76 
L 437.430496 3.456 
" clip-path="url(#pa0cdbd57f4)" style="fill: none; stroke: #b0b0b0; stroke-width: 0.8; stroke-linecap: square"/>
     </g>
     <g id="line2d_90">
      <g>
       <use xlink:href="#m0110ad6bab" x="437.430496" y="293.76" style="stroke: #000000; stroke-width: 0.6"/>
      </g>
     </g>
    </g>
    <g id="text_4">
     <!-- log10 of FEvals / DIM -->
     <g transform="translate(156.430563 339.313125) scale(0.2 -0.2)">
      <defs>
       <path id="DejaVuSans-6c" d="M 603 4863 
L 1178 4863 
L 1178 0 
L 603 0 
L 603 4863 
z
" transform="scale(0.015625)"/>
       <path id="DejaVuSans-6f" d="M 1959 3097 
Q 1497 3097 1228 2736 
Q 959 2375 959 1747 
Q 959 1119 1226 758 
Q 1494 397 1959 397 
Q 2419 397 2687 759 
Q 2956 1122 2956 1747 
Q 2956 2369 2687 2733 
Q 2419 3097 1959 3097 
z
M 1959 3584 
Q 2709 3584 3137 3096 
Q 3566 2609 3566 1747 
Q 3566 888 3137 398 
Q 2709 -91 1959 -91 
Q 1206 -91 779 398 
Q 353 888 353 1747 
Q 353 2609 779 3096 
Q 1206 3584 1959 3584 
z
" transform="scale(0.015625)"/>
       <path id="DejaVuSans-67" d="M 2906 1791 
Q 2906 2416 2648 2759 
Q 2391 3103 1925 3103 
Q 1463 3103 1205 2759 
Q 947 2416 947 1791 
Q 947 1169 1205 825 
Q 1463 481 1925 481 
Q 2391 481 2648 825 
Q 2906 1169 2906 1791 
z
M 3481 434 
Q 3481 -459 3084 -895 
Q 2688 -1331 1869 -1331 
Q 1566 -1331 1297 -1286 
Q 1028 -1241 775 -1147 
L 775 -588 
Q 1028 -725 1275 -790 
Q 1522 -856 1778 -856 
Q 2344 -856 2625 -561 
Q 2906 -266 2906 331 
L 2906 616 
Q 2728 306 2450 153 
Q 2172 0 1784 0 
Q 1141 0 747 490 
Q 353 981 353 1791 
Q 353 2603 747 3093 
Q 1141 3584 1784 3584 
Q 2172 3584 2450 3431 
Q 2728 3278 2906 2969 
L 2906 3500 
L 3481 3500 
L 3481 434 
z
" transform="scale(0.015625)"/>
       <path id="DejaVuSans-31" d="M 794 531 
L 1825 531 
L 1825 4091 
L 703 3866 
L 703 4441 
L 1819 4666 
L 2450 4666 
L 2450 531 
L 3481 531 
L 3481 0 
L 794 0 
L 794 531 
z
" transform="scale(0.015625)"/>
       <path id="DejaVuSans-20" transform="scale(0.015625)"/>
       <path id="DejaVuSans-66" d="M 2375 4863 
L 2375 4384 
L 1825 4384 
Q 1516 4384 1395 4259 
Q 1275 4134 1275 3809 
L 1275 3500 
L 2222 3500 
L 2222 3053 
L 1275 3053 
L 1275 0 
L 697 0 
L 697 3053 
L 147 3053 
L 147 3500 
L 697 3500 
L 697 3744 
Q 697 4328 969 4595 
Q 1241 4863 1831 4863 
L 2375 4863 
z
" transform="scale(0.015625)"/>
       <path id="DejaVuSans-46" d="M 628 4666 
L 3309 4666 
L 3309 4134 
L 1259 4134 
L 1259 2759 
L 3109 2759 
L 3109 2228 
L 1259 2228 
L 1259 0 
L 628 0 
L 628 4666 
z
" transform="scale(0.015625)"/>
       <path id="DejaVuSans-45" d="M 628 4666 
L 3578 4666 
L 3578 4134 
L 1259 4134 
L 1259 2753 
L 3481 2753 
L 3481 2222 
L 1259 2222 
L 1259 531 
L 3634 531 
L 3634 0 
L 628 0 
L 628 4666 
z
" transform="scale(0.015625)"/>
       <path id="DejaVuSans-76" d="M 191 3500 
L 800 3500 
L 1894 563 
L 2988 3500 
L 3597 3500 
L 2284 0 
L 1503 0 
L 191 3500 
z
" transform="scale(0.015625)"/>
       <path id="DejaVuSans-61" d="M 2194 1759 
Q 1497 1759 1228 1600 
Q 959 1441 959 1056 
Q 959 750 1161 570 
Q 1363 391 1709 391 
Q 2188 391 2477 730 
Q 2766 1069 2766 1631 
L 2766 1759 
L 2194 1759 
z
M 3341 1997 
L 3341 0 
L 2766 0 
L 2766 531 
Q 2569 213 2275 61 
Q 1981 -91 1556 -91 
Q 1019 -91 701 211 
Q 384 513 384 1019 
Q 384 1609 779 1909 
Q 1175 2209 1959 2209 
L 2766 2209 
L 2766 2266 
Q 2766 2663 2505 2880 
Q 2244 3097 1772 3097 
Q 1472 3097 1187 3025 
Q 903 2953 641 2809 
L 641 3341 
Q 956 3463 1253 3523 
Q 1550 3584 1831 3584 
Q 2591 3584 2966 3190 
Q 3341 2797 3341 1997 
z
" transform="scale(0.015625)"/>
       <path id="DejaVuSans-73" d="M 2834 3397 
L 2834 2853 
Q 2591 2978 2328 3040 
Q 2066 3103 1784 3103 
Q 1356 3103 1142 2972 
Q 928 2841 928 2578 
Q 928 2378 1081 2264 
Q 1234 2150 1697 2047 
L 1894 2003 
Q 2506 1872 2764 1633 
Q 3022 1394 3022 966 
Q 3022 478 2636 193 
Q 2250 -91 1575 -91 
Q 1294 -91 989 -36 
Q 684 19 347 128 
L 347 722 
Q 666 556 975 473 
Q 1284 391 1588 391 
Q 1994 391 2212 530 
Q 2431 669 2431 922 
Q 2431 1156 2273 1281 
Q 2116 1406 1581 1522 
L 1381 1569 
Q 847 1681 609 1914 
Q 372 2147 372 2553 
Q 372 3047 722 3315 
Q 1072 3584 1716 3584 
Q 2034 3584 2315 3537 
Q 2597 3491 2834 3397 
z
" transform="scale(0.015625)"/>
       <path id="DejaVuSans-2f" d="M 1625 4666 
L 2156 4666 
L 531 -594 
L 0 -594 
L 1625 4666 
z
" transform="scale(0.015625)"/>
       <path id="DejaVuSans-44" d="M 1259 4147 
L 1259 519 
L 2022 519 
Q 2988 519 3436 956 
Q 3884 1394 3884 2338 
Q 3884 3275 3436 3711 
Q 2988 4147 2022 4147 
L 1259 4147 
z
M 628 4666 
L 1925 4666 
Q 3281 4666 3915 4102 
Q 4550 3538 4550 2338 
Q 4550 1131 3912 565 
Q 3275 0 1925 0 
L 628 0 
L 628 4666 
z
" transform="scale(0.015625)"/>
       <path id="DejaVuSans-49" d="M 628 4666 
L 1259 4666 
L 1259 0 
L 628 0 
L 628 4666 
z
" transform="scale(0.015625)"/>
       <path id="DejaVuSans-4d" d="M 628 4666 
L 1569 4666 
L 2759 1491 
L 3956 4666 
L 4897 4666 
L 4897 0 
L 4281 0 
L 4281 4097 
L 3078 897 
L 2444 897 
L 1241 4097 
L 1241 0 
L 628 0 
L 628 4666 
z
" transform="scale(0.015625)"/>
      </defs>
      <use xlink:href="#DejaVuSans-6c"/>
      <use xlink:href="#DejaVuSans-6f" x="27.783203"/>
      <use xlink:href="#DejaVuSans-67" x="88.964844"/>
      <use xlink:href="#DejaVuSans-31" x="152.441406"/>
      <use xlink:href="#DejaVuSans-30" x="216.064453"/>
      <use xlink:href="#DejaVuSans-20" x="279.6875"/>
      <use xlink:href="#DejaVuSans-6f" x="311.474609"/>
      <use xlink:href="#DejaVuSans-66" x="372.65625"/>
      <use xlink:href="#DejaVuSans-20" x="407.861328"/>
      <use xlink:href="#DejaVuSans-46" x="439.648438"/>
      <use xlink:href="#DejaVuSans-45" x="497.167969"/>
      <use xlink:href="#DejaVuSans-76" x="560.351562"/>
      <use xlink:href="#DejaVuSans-61" x="619.53125"/>
      <use xlink:href="#DejaVuSans-6c" x="680.810547"/>
      <use xlink:href="#DejaVuSans-73" x="708.59375"/>
      <use xlink:href="#DejaVuSans-20" x="760.693359"/>
      <use xlink:href="#DejaVuSans-2f" x="792.480469"/>
      <use xlink:href="#DejaVuSans-20" x="826.171875"/>
      <use xlink:href="#DejaVuSans-44" x="857.958984"/>
      <use xlink:href="#DejaVuSans-49" x="934.960938"/>
      <use xlink:href="#DejaVuSans-4d" x="964.453125"/>
     </g>
    </g>
   </g>
   <g id="matplotlib.axis_2">
    <g id="ytick_1">
     <g id="line2d_91">
      <path d="M 62.208 293.76 
L 460.8 293.76 
" clip-path="url(#pa0cdbd57f4)" style="fill: none; stroke: #b0b0b0; stroke-width: 0.8; stroke-linecap: square"/>
     </g>
     <g id="line2d_92">
      <defs>
       <path id="me2f066a73d" d="M 0 0 
L -3.5 0 
" style="stroke: #000000; stroke-width: 0.8"/>
      </defs>
      <g>
       <use xlink:href="#me2f066a73d" x="62.208" y="293.76" style="stroke: #000000; stroke-width: 0.8"/>
      </g>
     </g>
     <g id="text_5">
      <!-- 0.0 -->
      <g transform="translate(29.763 299.83875) scale(0.16 -0.16)">
       <defs>
        <path id="DejaVuSans-2e" d="M 684 794 
L 1344 794 
L 1344 0 
L 684 0 
L 684 794 
z
" transform="scale(0.015625)"/>
       </defs>
       <use xlink:href="#DejaVuSans-30"/>
       <use xlink:href="#DejaVuSans-2e" x="63.623047"/>
       <use xlink:href="#DejaVuSans-30" x="95.410156"/>
      </g>
     </g>
    </g>
    <g id="ytick_2">
     <g id="line2d_93">
      <path d="M 62.208 236.274059 
L 460.8 236.274059 
" clip-path="url(#pa0cdbd57f4)" style="fill: none; stroke: #b0b0b0; stroke-width: 0.8; stroke-linecap: square"/>
     </g>
     <g id="line2d_94">
      <g>
       <use xlink:href="#me2f066a73d" x="62.208" y="236.274059" style="stroke: #000000; stroke-width: 0.8"/>
      </g>
     </g>
     <g id="text_6">
      <!-- 0.2 -->
      <g transform="translate(29.763 242.352809) scale(0.16 -0.16)">
       <use xlink:href="#DejaVuSans-30"/>
       <use xlink:href="#DejaVuSans-2e" x="63.623047"/>
       <use xlink:href="#DejaVuSans-32" x="95.410156"/>
      </g>
     </g>
    </g>
    <g id="ytick_3">
     <g id="line2d_95">
      <path d="M 62.208 178.788119 
L 460.8 178.788119 
" clip-path="url(#pa0cdbd57f4)" style="fill: none; stroke: #b0b0b0; stroke-width: 0.8; stroke-linecap: square"/>
     </g>
     <g id="line2d_96">
      <g>
       <use xlink:href="#me2f066a73d" x="62.208" y="178.788119" style="stroke: #000000; stroke-width: 0.8"/>
      </g>
     </g>
     <g id="text_7">
      <!-- 0.4 -->
      <g transform="translate(29.763 184.866869) scale(0.16 -0.16)">
       <use xlink:href="#DejaVuSans-30"/>
       <use xlink:href="#DejaVuSans-2e" x="63.623047"/>
       <use xlink:href="#DejaVuSans-34" x="95.410156"/>
      </g>
     </g>
    </g>
    <g id="ytick_4">
     <g id="line2d_97">
      <path d="M 62.208 121.302178 
L 460.8 121.302178 
" clip-path="url(#pa0cdbd57f4)" style="fill: none; stroke: #b0b0b0; stroke-width: 0.8; stroke-linecap: square"/>
     </g>
     <g id="line2d_98">
      <g>
       <use xlink:href="#me2f066a73d" x="62.208" y="121.302178" style="stroke: #000000; stroke-width: 0.8"/>
      </g>
     </g>
     <g id="text_8">
      <!-- 0.6 -->
      <g transform="translate(29.763 127.380928) scale(0.16 -0.16)">
       <defs>
        <path id="DejaVuSans-36" d="M 2113 2584 
Q 1688 2584 1439 2293 
Q 1191 2003 1191 1497 
Q 1191 994 1439 701 
Q 1688 409 2113 409 
Q 2538 409 2786 701 
Q 3034 994 3034 1497 
Q 3034 2003 2786 2293 
Q 2538 2584 2113 2584 
z
M 3366 4563 
L 3366 3988 
Q 3128 4100 2886 4159 
Q 2644 4219 2406 4219 
Q 1781 4219 1451 3797 
Q 1122 3375 1075 2522 
Q 1259 2794 1537 2939 
Q 1816 3084 2150 3084 
Q 2853 3084 3261 2657 
Q 3669 2231 3669 1497 
Q 3669 778 3244 343 
Q 2819 -91 2113 -91 
Q 1303 -91 875 529 
Q 447 1150 447 2328 
Q 447 3434 972 4092 
Q 1497 4750 2381 4750 
Q 2619 4750 2861 4703 
Q 3103 4656 3366 4563 
z
" transform="scale(0.015625)"/>
       </defs>
       <use xlink:href="#DejaVuSans-30"/>
       <use xlink:href="#DejaVuSans-2e" x="63.623047"/>
       <use xlink:href="#DejaVuSans-36" x="95.410156"/>
      </g>
     </g>
    </g>
    <g id="ytick_5">
     <g id="line2d_99">
      <path d="M 62.208 63.816238 
L 460.8 63.816238 
" clip-path="url(#pa0cdbd57f4)" style="fill: none; stroke: #b0b0b0; stroke-width: 0.8; stroke-linecap: square"/>
     </g>
     <g id="line2d_100">
      <g>
       <use xlink:href="#me2f066a73d" x="62.208" y="63.816238" style="stroke: #000000; stroke-width: 0.8"/>
      </g>
     </g>
     <g id="text_9">
      <!-- 0.8 -->
      <g transform="translate(29.763 69.894988) scale(0.16 -0.16)">
       <defs>
        <path id="DejaVuSans-38" d="M 2034 2216 
Q 1584 2216 1326 1975 
Q 1069 1734 1069 1313 
Q 1069 891 1326 650 
Q 1584 409 2034 409 
Q 2484 409 2743 651 
Q 3003 894 3003 1313 
Q 3003 1734 2745 1975 
Q 2488 2216 2034 2216 
z
M 1403 2484 
Q 997 2584 770 2862 
Q 544 3141 544 3541 
Q 544 4100 942 4425 
Q 1341 4750 2034 4750 
Q 2731 4750 3128 4425 
Q 3525 4100 3525 3541 
Q 3525 3141 3298 2862 
Q 3072 2584 2669 2484 
Q 3125 2378 3379 2068 
Q 3634 1759 3634 1313 
Q 3634 634 3220 271 
Q 2806 -91 2034 -91 
Q 1263 -91 848 271 
Q 434 634 434 1313 
Q 434 1759 690 2068 
Q 947 2378 1403 2484 
z
M 1172 3481 
Q 1172 3119 1398 2916 
Q 1625 2713 2034 2713 
Q 2441 2713 2670 2916 
Q 2900 3119 2900 3481 
Q 2900 3844 2670 4047 
Q 2441 4250 2034 4250 
Q 1625 4250 1398 4047 
Q 1172 3844 1172 3481 
z
" transform="scale(0.015625)"/>
       </defs>
       <use xlink:href="#DejaVuSans-30"/>
       <use xlink:href="#DejaVuSans-2e" x="63.623047"/>
       <use xlink:href="#DejaVuSans-38" x="95.410156"/>
      </g>
     </g>
    </g>
    <g id="ytick_6">
     <g id="line2d_101">
      <path d="M 62.208 6.330297 
L 460.8 6.330297 
" clip-path="url(#pa0cdbd57f4)" style="fill: none; stroke: #b0b0b0; stroke-width: 0.8; stroke-linecap: square"/>
     </g>
     <g id="line2d_102">
      <g>
       <use xlink:href="#me2f066a73d" x="62.208" y="6.330297" style="stroke: #000000; stroke-width: 0.8"/>
      </g>
     </g>
     <g id="text_10">
      <!-- 1.0 -->
      <g transform="translate(29.763 12.409047) scale(0.16 -0.16)">
       <use xlink:href="#DejaVuSans-31"/>
       <use xlink:href="#DejaVuSans-2e" x="63.623047"/>
       <use xlink:href="#DejaVuSans-30" x="95.410156"/>
      </g>
     </g>
    </g>
    <g id="text_11">
     <!-- proportion of trials -->
     <g transform="translate(21.603625 241.61425) rotate(-90) scale(0.2 -0.2)">
      <defs>
       <path id="DejaVuSans-70" d="M 1159 525 
L 1159 -1331 
L 581 -1331 
L 581 3500 
L 1159 3500 
L 1159 2969 
Q 1341 3281 1617 3432 
Q 1894 3584 2278 3584 
Q 2916 3584 3314 3078 
Q 3713 2572 3713 1747 
Q 3713 922 3314 415 
Q 2916 -91 2278 -91 
Q 1894 -91 1617 61 
Q 1341 213 1159 525 
z
M 3116 1747 
Q 3116 2381 2855 2742 
Q 2594 3103 2138 3103 
Q 1681 3103 1420 2742 
Q 1159 2381 1159 1747 
Q 1159 1113 1420 752 
Q 1681 391 2138 391 
Q 2594 391 2855 752 
Q 3116 1113 3116 1747 
z
" transform="scale(0.015625)"/>
       <path id="DejaVuSans-72" d="M 2631 2963 
Q 2534 3019 2420 3045 
Q 2306 3072 2169 3072 
Q 1681 3072 1420 2755 
Q 1159 2438 1159 1844 
L 1159 0 
L 581 0 
L 581 3500 
L 1159 3500 
L 1159 2956 
Q 1341 3275 1631 3429 
Q 1922 3584 2338 3584 
Q 2397 3584 2469 3576 
Q 2541 3569 2628 3553 
L 2631 2963 
z
" transform="scale(0.015625)"/>
       <path id="DejaVuSans-74" d="M 1172 4494 
L 1172 3500 
L 2356 3500 
L 2356 3053 
L 1172 3053 
L 1172 1153 
Q 1172 725 1289 603 
Q 1406 481 1766 481 
L 2356 481 
L 2356 0 
L 1766 0 
Q 1100 0 847 248 
Q 594 497 594 1153 
L 594 3053 
L 172 3053 
L 172 3500 
L 594 3500 
L 594 4494 
L 1172 4494 
z
" transform="scale(0.015625)"/>
       <path id="DejaVuSans-69" d="M 603 3500 
L 1178 3500 
L 1178 0 
L 603 0 
L 603 3500 
z
M 603 4863 
L 1178 4863 
L 1178 4134 
L 603 4134 
L 603 4863 
z
" transform="scale(0.015625)"/>
       <path id="DejaVuSans-6e" d="M 3513 2113 
L 3513 0 
L 2938 0 
L 2938 2094 
Q 2938 2591 2744 2837 
Q 2550 3084 2163 3084 
Q 1697 3084 1428 2787 
Q 1159 2491 1159 1978 
L 1159 0 
L 581 0 
L 581 3500 
L 1159 3500 
L 1159 2956 
Q 1366 3272 1645 3428 
Q 1925 3584 2291 3584 
Q 2894 3584 3203 3211 
Q 3513 2838 3513 2113 
z
" transform="scale(0.015625)"/>
      </defs>
      <use xlink:href="#DejaVuSans-70"/>
      <use xlink:href="#DejaVuSans-72" x="63.476562"/>
      <use xlink:href="#DejaVuSans-6f" x="102.339844"/>
      <use xlink:href="#DejaVuSans-70" x="163.521484"/>
      <use xlink:href="#DejaVuSans-6f" x="226.998047"/>
      <use xlink:href="#DejaVuSans-72" x="288.179688"/>
      <use xlink:href="#DejaVuSans-74" x="329.292969"/>
      <use xlink:href="#DejaVuSans-69" x="368.501953"/>
      <use xlink:href="#DejaVuSans-6f" x="396.285156"/>
      <use xlink:href="#DejaVuSans-6e" x="457.466797"/>
      <use xlink:href="#DejaVuSans-20" x="520.845703"/>
      <use xlink:href="#DejaVuSans-6f" x="552.632812"/>
      <use xlink:href="#DejaVuSans-66" x="613.814453"/>
      <use xlink:href="#DejaVuSans-20" x="649.019531"/>
      <use xlink:href="#DejaVuSans-74" x="680.806641"/>
      <use xlink:href="#DejaVuSans-72" x="720.015625"/>
      <use xlink:href="#DejaVuSans-69" x="761.128906"/>
      <use xlink:href="#DejaVuSans-61" x="788.912109"/>
      <use xlink:href="#DejaVuSans-6c" x="850.191406"/>
      <use xlink:href="#DejaVuSans-73" x="877.974609"/>
     </g>
    </g>
   </g>
   <g id="line2d_103">
    <path d="M 186.277762 293.76 
L 186.277762 288.969505 
L 189.732242 288.969505 
L 189.732242 284.17901 
L 192.134425 284.17901 
L 192.134425 279.388515 
L 201.22452 279.388515 
L 201.22452 274.59802 
L 206.145089 274.59802 
L 206.145089 269.807525 
L 210.200893 269.807525 
L 210.200893 265.01703 
L 212.546962 265.01703 
L 212.546962 260.226535 
L 215.347256 260.226535 
L 215.347256 255.43604 
L 221.398001 255.43604 
L 221.398001 250.645545 
L 223.322009 250.645545 
L 223.322009 245.85505 
L 225.239131 245.85505 
L 225.239131 241.064554 
L 235.440124 241.064554 
L 235.440124 236.274059 
L 237.875976 236.274059 
L 237.875976 231.483564 
L 274.369734 231.483564 
L 274.369734 226.693069 
L 276.798696 226.693069 
L 276.798696 221.902574 
L 278.207651 221.902574 
L 278.207651 217.112079 
L 281.567884 217.112079 
L 281.567884 212.321584 
L 285.244057 212.321584 
L 285.244057 207.531089 
L 289.747089 207.531089 
L 289.747089 202.740594 
L 293.966478 202.740594 
L 293.966478 197.950099 
L 294.590475 197.950099 
L 294.590475 193.159604 
L 297.599994 193.159604 
L 297.599994 188.369109 
L 298.689149 188.369109 
L 298.689149 183.578614 
L 300.838298 183.578614 
L 300.838298 178.788119 
L 306.518361 178.788119 
L 306.518361 173.997624 
L 317.712263 173.997624 
L 317.712263 169.207129 
L 321.315831 169.207129 
L 321.315831 164.416634 
L 324.317151 164.416634 
L 324.317151 159.626139 
L 324.659518 159.626139 
L 324.659518 154.835644 
L 329.253523 154.835644 
L 329.253523 150.045149 
L 334.051394 150.045149 
L 334.051394 145.254653 
L 335.601438 145.254653 
L 335.601438 140.464158 
L 335.829737 140.464158 
L 335.829737 135.673663 
L 338.140121 135.673663 
L 338.140121 130.883168 
L 338.165587 130.883168 
L 338.165587 126.092673 
L 353.508033 126.092673 
L 353.508033 121.302178 
L 353.976436 121.302178 
L 353.976436 116.511683 
L 353.984241 116.511683 
L 353.984241 111.721188 
L 355.417578 111.721188 
L 355.417578 106.930693 
L 356.622559 106.930693 
L 356.622559 102.140198 
L 359.135771 102.140198 
L 359.135771 97.349703 
L 361.126327 97.349703 
L 361.126327 92.559208 
L 367.098793 92.559208 
L 367.098793 87.768713 
L 387.311792 87.768713 
L 387.311792 82.978218 
L 387.466392 82.978218 
L 387.466392 78.187723 
L 395.113942 78.187723 
L 395.113942 73.397228 
L 396.514489 73.397228 
L 396.514489 68.606733 
L 414.788036 68.606733 
L 414.788036 63.816238 
L 415.519577 63.816238 
L 415.519577 59.025743 
L 417.597158 59.025743 
L 417.597158 54.235248 
L 417.956055 54.235248 
L 417.956055 49.444752 
L 423.589419 49.444752 
L 423.589419 44.654257 
L 425.684516 44.654257 
L 425.684516 39.863762 
L 425.684516 39.863762 
L 425.684516 39.863762 
L 460.8 39.863762 
" clip-path="url(#pa0cdbd57f4)" style="fill: none; stroke: #000000; stroke-width: 1.5; stroke-linecap: square"/>
   </g>
   <g id="line2d_104">
    <defs>
     <path id="m018359c24d" d="M 0 14.142136 
L 8.485281 0 
L 0 -14.142136 
L -8.485281 0 
z
" style="stroke: #000000; stroke-width: 1.5; stroke-linejoin: miter"/>
    </defs>
    <g clip-path="url(#pa0cdbd57f4)">
     <use xlink:href="#m018359c24d" x="276.798696" y="226.693069" style="fill-opacity: 0; stroke: #000000; stroke-width: 1.5; stroke-linejoin: miter"/>
     <use xlink:href="#m018359c24d" x="324.659518" y="159.626139" style="fill-opacity: 0; stroke: #000000; stroke-width: 1.5; stroke-linejoin: miter"/>
     <use xlink:href="#m018359c24d" x="361.126327" y="97.349703" style="fill-opacity: 0; stroke: #000000; stroke-width: 1.5; stroke-linejoin: miter"/>
     <use xlink:href="#m018359c24d" x="425.684516" y="44.654257" style="fill-opacity: 0; stroke: #000000; stroke-width: 1.5; stroke-linejoin: miter"/>
     <use xlink:href="#m018359c24d" x="425.684516" y="39.863762" style="fill-opacity: 0; stroke: #000000; stroke-width: 1.5; stroke-linejoin: miter"/>
    </g>
   </g>
   <g id="line2d_105">
    <path clip-path="url(#pa0cdbd57f4)" style="fill: none; stroke: #000000; stroke-width: 1.5; stroke-linecap: square"/>
    <g clip-path="url(#pa0cdbd57f4)">
     <use xlink:href="#m018359c24d" x="-1" y="581.189703" style="fill-opacity: 0; stroke: #000000; stroke-width: 1.5; stroke-linejoin: miter"/>
     <use xlink:href="#m018359c24d" x="460.8" y="581.189703" style="fill-opacity: 0; stroke: #000000; stroke-width: 1.5; stroke-linejoin: miter"/>
    </g>
   </g>
   <g id="line2d_106">
    <path d="M 160.079503 293.76 
L 160.079503 288.969505 
L 166.705078 288.969505 
L 166.705078 284.17901 
L 194.153486 284.17901 
L 194.153486 279.388515 
L 195.554785 279.388515 
L 195.554785 274.59802 
L 201.435857 274.59802 
L 201.435857 269.807525 
L 204.90438 269.807525 
L 204.90438 265.01703 
L 205.513495 265.01703 
L 205.513495 260.226535 
L 207.803567 260.226535 
L 207.803567 255.43604 
L 210.1156 255.43604 
L 210.1156 250.645545 
L 210.765045 250.645545 
L 210.765045 245.85505 
L 212.920879 245.85505 
L 212.920879 241.064554 
L 216.117107 241.064554 
L 216.117107 236.274059 
L 221.67842 236.274059 
L 221.67842 231.483564 
L 223.692167 231.483564 
L 223.692167 226.693069 
L 230.904405 226.693069 
L 230.904405 221.902574 
L 278.02182 221.902574 
L 278.02182 217.112079 
L 296.760335 217.112079 
L 296.760335 212.321584 
L 312.124721 212.321584 
L 312.124721 207.531089 
L 348.074481 207.531089 
L 348.074481 202.740594 
L 349.872282 202.740594 
L 349.872282 197.950099 
L 351.836804 197.950099 
L 351.836804 193.159604 
L 353.725015 193.159604 
L 353.725015 188.369109 
L 355.382388 188.369109 
L 355.382388 183.578614 
L 355.698858 183.578614 
L 355.698858 178.788119 
L 357.139861 178.788119 
L 357.139861 173.997624 
L 357.454329 173.997624 
L 357.454329 169.207129 
L 357.744258 169.207129 
L 357.744258 164.416634 
L 358.557793 164.416634 
L 358.557793 159.626139 
L 359.379929 159.626139 
L 359.379929 154.835644 
L 359.991565 154.835644 
L 359.991565 150.045149 
L 360.200901 150.045149 
L 360.200901 145.254653 
L 361.479913 145.254653 
L 361.479913 140.464158 
L 367.289483 140.464158 
L 367.289483 135.673663 
L 375.563199 135.673663 
L 375.563199 130.883168 
L 377.152792 130.883168 
L 377.152792 126.092673 
L 377.521325 126.092673 
L 377.521325 121.302178 
L 379.411675 121.302178 
L 379.411675 116.511683 
L 382.59005 116.511683 
L 382.59005 111.721188 
L 382.859883 111.721188 
L 382.859883 106.930693 
L 387.725707 106.930693 
L 387.725707 102.140198 
L 393.385066 102.140198 
L 393.385066 97.349703 
L 393.828337 97.349703 
L 393.828337 92.559208 
L 401.516613 92.559208 
L 401.516613 87.768713 
L 403.974138 87.768713 
L 403.974138 82.978218 
L 407.723081 82.978218 
L 407.723081 78.187723 
L 408.684845 78.187723 
L 408.684845 73.397228 
L 413.182462 73.397228 
L 413.182462 68.606733 
L 413.542521 68.606733 
L 413.542521 63.816238 
L 414.77574 63.816238 
L 414.77574 59.025743 
L 415.446068 59.025743 
L 415.446068 54.235248 
L 425.12588 54.235248 
L 425.12588 49.444752 
L 427.491875 49.444752 
L 427.491875 44.654257 
L 432.456762 44.654257 
L 432.456762 39.863762 
L 439.050551 39.863762 
L 439.050551 35.073267 
L 439.43572 35.073267 
L 439.43572 30.282772 
L 440.034651 30.282772 
L 440.034651 25.492277 
L 440.034651 25.492277 
L 440.034651 25.492277 
L 460.8 25.492277 
" clip-path="url(#pa0cdbd57f4)" style="fill: none; stroke: #000000; stroke-width: 1.5; stroke-linecap: square"/>
   </g>
   <g id="line2d_107">
    <defs>
     <path id="mb863e1b135" d="M 0 7.5 
C 1.989023 7.5 3.896849 6.709753 5.303301 5.303301 
C 6.709753 3.896849 7.5 1.989023 7.5 0 
C 7.5 -1.989023 6.709753 -3.896849 5.303301 -5.303301 
C 3.896849 -6.709753 1.989023 -7.5 0 -7.5 
C -1.989023 -7.5 -3.896849 -6.709753 -5.303301 -5.303301 
C -6.709753 -3.896849 -7.5 -1.989023 -7.5 0 
C -7.5 1.989023 -6.709753 3.896849 -5.303301 5.303301 
C -3.896849 6.709753 -1.989023 7.5 0 7.5 
z
" style="stroke: #000000; stroke-width: 1.5"/>
    </defs>
    <g clip-path="url(#pa0cdbd57f4)">
     <use xlink:href="#mb863e1b135" x="195.554785" y="279.388515" style="fill-opacity: 0; stroke: #000000; stroke-width: 1.5"/>
     <use xlink:href="#mb863e1b135" x="230.904405" y="226.693069" style="fill-opacity: 0; stroke: #000000; stroke-width: 1.5"/>
     <use xlink:href="#mb863e1b135" x="355.698858" y="183.578614" style="fill-opacity: 0; stroke: #000000; stroke-width: 1.5"/>
     <use xlink:href="#mb863e1b135" x="408.684845" y="78.187723" style="fill-opacity: 0; stroke: #000000; stroke-width: 1.5"/>
     <use xlink:href="#mb863e1b135" x="440.034651" y="25.492277" style="fill-opacity: 0; stroke: #000000; stroke-width: 1.5"/>
    </g>
   </g>
   <g id="line2d_108">
    <path clip-path="url(#pa0cdbd57f4)" style="fill: none; stroke: #000000; stroke-width: 1.5; stroke-linecap: square"/>
   </g>
   <g id="line2d_109">
    <path d="M 417.956422 293.76 
L 417.956422 288.969505 
L 418.024124 288.969505 
L 418.024124 284.17901 
L 420.111054 284.17901 
L 420.111054 279.388515 
L 426.051117 279.388515 
L 426.051117 274.59802 
L 426.651445 274.59802 
L 426.651445 269.807525 
L 426.651445 269.807525 
L 426.651445 269.807525 
L 460.8 269.807525 
" clip-path="url(#pa0cdbd57f4)" style="fill: none; stroke: #00bfbf; stroke-width: 1.5; stroke-linecap: square"/>
   </g>
   <g id="line2d_110">
    <defs>
     <path id="m5f127ec18d" d="M 0 14.142136 
L 8.485281 0 
L 0 -14.142136 
L -8.485281 0 
z
" style="stroke: #00bfbf; stroke-width: 1.5; stroke-linejoin: miter"/>
    </defs>
    <g clip-path="url(#pa0cdbd57f4)">
     <use xlink:href="#m5f127ec18d" x="420.111054" y="284.17901" style="fill-opacity: 0; stroke: #00bfbf; stroke-width: 1.5; stroke-linejoin: miter"/>
     <use xlink:href="#m5f127ec18d" x="426.651445" y="274.59802" style="fill-opacity: 0; stroke: #00bfbf; stroke-width: 1.5; stroke-linejoin: miter"/>
     <use xlink:href="#m5f127ec18d" x="426.651445" y="269.807525" style="fill-opacity: 0; stroke: #00bfbf; stroke-width: 1.5; stroke-linejoin: miter"/>
    </g>
   </g>
   <g id="line2d_111">
    <path clip-path="url(#pa0cdbd57f4)" style="fill: none; stroke: #00bfbf; stroke-width: 1.5; stroke-linecap: square"/>
    <g clip-path="url(#pa0cdbd57f4)">
     <use xlink:href="#m5f127ec18d" x="-1" y="581.189703" style="fill-opacity: 0; stroke: #00bfbf; stroke-width: 1.5; stroke-linejoin: miter"/>
     <use xlink:href="#m5f127ec18d" x="460.8" y="581.189703" style="fill-opacity: 0; stroke: #00bfbf; stroke-width: 1.5; stroke-linejoin: miter"/>
    </g>
   </g>
   <g id="line2d_112">
    <path d="M 383.531705 293.76 
L 383.531705 288.969505 
L 394.893122 288.969505 
L 394.893122 284.17901 
L 416.528709 284.17901 
L 416.528709 279.388515 
L 417.781792 279.388515 
L 417.781792 274.59802 
L 418.448163 274.59802 
L 418.448163 269.807525 
L 427.530902 269.807525 
L 427.530902 265.01703 
L 427.530902 265.01703 
L 427.530902 265.01703 
L 460.8 265.01703 
" clip-path="url(#pa0cdbd57f4)" style="fill: none; stroke: #00bfbf; stroke-width: 1.5; stroke-linecap: square"/>
   </g>
   <g id="line2d_113">
    <defs>
     <path id="m5bdbca9f58" d="M 0 7.5 
C 1.989023 7.5 3.896849 6.709753 5.303301 5.303301 
C 6.709753 3.896849 7.5 1.989023 7.5 0 
C 7.5 -1.989023 6.709753 -3.896849 5.303301 -5.303301 
C 3.896849 -6.709753 1.989023 -7.5 0 -7.5 
C -1.989023 -7.5 -3.896849 -6.709753 -5.303301 -5.303301 
C -6.709753 -3.896849 -7.5 -1.989023 -7.5 0 
C -7.5 1.989023 -6.709753 3.896849 -5.303301 5.303301 
C -3.896849 6.709753 -1.989023 7.5 0 7.5 
z
" style="stroke: #00bfbf; stroke-width: 1.5"/>
    </defs>
    <g clip-path="url(#pa0cdbd57f4)">
     <use xlink:href="#m5bdbca9f58" x="383.531705" y="293.76" style="fill-opacity: 0; stroke: #00bfbf; stroke-width: 1.5"/>
     <use xlink:href="#m5bdbca9f58" x="418.448163" y="274.59802" style="fill-opacity: 0; stroke: #00bfbf; stroke-width: 1.5"/>
     <use xlink:href="#m5bdbca9f58" x="427.530902" y="265.01703" style="fill-opacity: 0; stroke: #00bfbf; stroke-width: 1.5"/>
    </g>
   </g>
   <g id="line2d_114">
    <path clip-path="url(#pa0cdbd57f4)" style="fill: none; stroke: #00bfbf; stroke-width: 1.5; stroke-linecap: square"/>
   </g>
   <g id="line2d_115">
    <path d="M 418.340242 293.76 
L 418.340242 288.969505 
L 418.755475 288.969505 
L 418.755475 284.17901 
L 420.803167 284.17901 
L 420.803167 279.388515 
L 426.542008 279.388515 
L 426.542008 274.59802 
L 426.970647 274.59802 
L 426.970647 269.807525 
L 426.970647 269.807525 
L 426.970647 269.807525 
L 460.8 269.807525 
" clip-path="url(#pa0cdbd57f4)" style="fill: none; stroke: #bf00bf; stroke-width: 1.5; stroke-linecap: square"/>
   </g>
   <g id="line2d_116">
    <defs>
     <path id="mfe55ee054d" d="M 0 14.142136 
L 8.485281 0 
L 0 -14.142136 
L -8.485281 0 
z
" style="stroke: #bf00bf; stroke-width: 1.5; stroke-linejoin: miter"/>
    </defs>
    <g clip-path="url(#pa0cdbd57f4)">
     <use xlink:href="#mfe55ee054d" x="418.755475" y="288.969505" style="fill-opacity: 0; stroke: #bf00bf; stroke-width: 1.5; stroke-linejoin: miter"/>
     <use xlink:href="#mfe55ee054d" x="426.542008" y="279.388515" style="fill-opacity: 0; stroke: #bf00bf; stroke-width: 1.5; stroke-linejoin: miter"/>
     <use xlink:href="#mfe55ee054d" x="426.970647" y="269.807525" style="fill-opacity: 0; stroke: #bf00bf; stroke-width: 1.5; stroke-linejoin: miter"/>
    </g>
   </g>
   <g id="line2d_117">
    <path clip-path="url(#pa0cdbd57f4)" style="fill: none; stroke: #bf00bf; stroke-width: 1.5; stroke-linecap: square"/>
    <g clip-path="url(#pa0cdbd57f4)">
     <use xlink:href="#mfe55ee054d" x="-1" y="581.189703" style="fill-opacity: 0; stroke: #bf00bf; stroke-width: 1.5; stroke-linejoin: miter"/>
     <use xlink:href="#mfe55ee054d" x="460.8" y="581.189703" style="fill-opacity: 0; stroke: #bf00bf; stroke-width: 1.5; stroke-linejoin: miter"/>
    </g>
   </g>
   <g id="line2d_118">
    <path d="M 383.98307 293.76 
L 383.98307 288.969505 
L 395.938607 288.969505 
L 395.938607 284.17901 
L 417.577148 284.17901 
L 417.577148 279.388515 
L 418.85998 279.388515 
L 418.85998 274.59802 
L 419.55258 274.59802 
L 419.55258 269.807525 
L 428.197232 269.807525 
L 428.197232 265.01703 
L 428.197232 265.01703 
L 428.197232 265.01703 
L 460.8 265.01703 
" clip-path="url(#pa0cdbd57f4)" style="fill: none; stroke: #bf00bf; stroke-width: 1.5; stroke-linecap: square"/>
   </g>
   <g id="line2d_119">
    <defs>
     <path id="m3a44283ebd" d="M 0 7.5 
C 1.989023 7.5 3.896849 6.709753 5.303301 5.303301 
C 6.709753 3.896849 7.5 1.989023 7.5 0 
C 7.5 -1.989023 6.709753 -3.896849 5.303301 -5.303301 
C 3.896849 -6.709753 1.989023 -7.5 0 -7.5 
C -1.989023 -7.5 -3.896849 -6.709753 -5.303301 -5.303301 
C -6.709753 -3.896849 -7.5 -1.989023 -7.5 0 
C -7.5 1.989023 -6.709753 3.896849 -5.303301 5.303301 
C -3.896849 6.709753 -1.989023 7.5 0 7.5 
z
" style="stroke: #bf00bf; stroke-width: 1.5"/>
    </defs>
    <g clip-path="url(#pa0cdbd57f4)">
     <use xlink:href="#m3a44283ebd" x="383.98307" y="293.76" style="fill-opacity: 0; stroke: #bf00bf; stroke-width: 1.5"/>
     <use xlink:href="#m3a44283ebd" x="419.55258" y="274.59802" style="fill-opacity: 0; stroke: #bf00bf; stroke-width: 1.5"/>
     <use xlink:href="#m3a44283ebd" x="428.197232" y="265.01703" style="fill-opacity: 0; stroke: #bf00bf; stroke-width: 1.5"/>
    </g>
   </g>
   <g id="line2d_120">
    <path clip-path="url(#pa0cdbd57f4)" style="fill: none; stroke: #bf00bf; stroke-width: 1.5; stroke-linecap: square"/>
   </g>
   <g id="line2d_121">
    <path d="M 419.294573 293.76 
L 419.294573 288.969505 
L 419.345026 288.969505 
L 419.345026 284.17901 
L 421.673213 284.17901 
L 421.673213 279.388515 
L 427.232891 279.388515 
L 427.232891 274.59802 
L 427.49945 274.59802 
L 427.49945 269.807525 
L 427.49945 269.807525 
L 427.49945 269.807525 
L 460.8 269.807525 
" clip-path="url(#pa0cdbd57f4)" style="fill: none; stroke: #ff0000; stroke-width: 3; stroke-linecap: square"/>
   </g>
   <g id="line2d_122">
    <defs>
     <path id="m4906280734" d="M 0 14.142136 
L 8.485281 0 
L 0 -14.142136 
L -8.485281 0 
z
" style="stroke: #ff0000; stroke-width: 3; stroke-linejoin: miter"/>
    </defs>
    <g clip-path="url(#pa0cdbd57f4)">
     <use xlink:href="#m4906280734" x="427.232891" y="279.388515" style="fill-opacity: 0; stroke: #ff0000; stroke-width: 3; stroke-linejoin: miter"/>
     <use xlink:href="#m4906280734" x="427.49945" y="274.59802" style="fill-opacity: 0; stroke: #ff0000; stroke-width: 3; stroke-linejoin: miter"/>
     <use xlink:href="#m4906280734" x="427.49945" y="269.807525" style="fill-opacity: 0; stroke: #ff0000; stroke-width: 3; stroke-linejoin: miter"/>
    </g>
   </g>
   <g id="line2d_123">
    <path clip-path="url(#pa0cdbd57f4)" style="fill: none; stroke: #ff0000; stroke-width: 3; stroke-linecap: square"/>
    <g clip-path="url(#pa0cdbd57f4)">
     <use xlink:href="#m4906280734" x="-1" y="581.189703" style="fill-opacity: 0; stroke: #ff0000; stroke-width: 3; stroke-linejoin: miter"/>
     <use xlink:href="#m4906280734" x="460.8" y="581.189703" style="fill-opacity: 0; stroke: #ff0000; stroke-width: 3; stroke-linejoin: miter"/>
    </g>
   </g>
   <g id="line2d_124">
    <path d="M 383.98307 293.76 
L 383.98307 288.969505 
L 396.262229 288.969505 
L 396.262229 284.17901 
L 417.577148 284.17901 
L 417.577148 279.388515 
L 419.006488 279.388515 
L 419.006488 274.59802 
L 420.128477 274.59802 
L 420.128477 269.807525 
L 429.009973 269.807525 
L 429.009973 265.01703 
L 429.009973 265.01703 
L 429.009973 265.01703 
L 460.8 265.01703 
" clip-path="url(#pa0cdbd57f4)" style="fill: none; stroke: #ff0000; stroke-width: 3; stroke-linecap: square"/>
   </g>
   <g id="line2d_125">
    <defs>
     <path id="md8447a1787" d="M 0 7.5 
C 1.989023 7.5 3.896849 6.709753 5.303301 5.303301 
C 6.709753 3.896849 7.5 1.989023 7.5 0 
C 7.5 -1.989023 6.709753 -3.896849 5.303301 -5.303301 
C 3.896849 -6.709753 1.989023 -7.5 0 -7.5 
C -1.989023 -7.5 -3.896849 -6.709753 -5.303301 -5.303301 
C -6.709753 -3.896849 -7.5 -1.989023 -7.5 0 
C -7.5 1.989023 -6.709753 3.896849 -5.303301 5.303301 
C -3.896849 6.709753 -1.989023 7.5 0 7.5 
z
" style="stroke: #ff0000; stroke-width: 3"/>
    </defs>
    <g clip-path="url(#pa0cdbd57f4)">
     <use xlink:href="#md8447a1787" x="383.98307" y="293.76" style="fill-opacity: 0; stroke: #ff0000; stroke-width: 3"/>
     <use xlink:href="#md8447a1787" x="420.128477" y="274.59802" style="fill-opacity: 0; stroke: #ff0000; stroke-width: 3"/>
     <use xlink:href="#md8447a1787" x="429.009973" y="265.01703" style="fill-opacity: 0; stroke: #ff0000; stroke-width: 3"/>
    </g>
   </g>
   <g id="line2d_126">
    <path clip-path="url(#pa0cdbd57f4)" style="fill: none; stroke: #ff0000; stroke-width: 3; stroke-linecap: square"/>
   </g>
   <g id="line2d_127">
    <path d="M 441.814797 293.76 
L 441.814797 3.456 
" clip-path="url(#pa0cdbd57f4)" style="fill: none; stroke: #000000; stroke-width: 1.5; stroke-linecap: square"/>
    <defs>
     <path id="m7a46444ad5" d="M -10 0 
L 10 0 
M 0 10 
L 0 -10 
" style="stroke: #000000; stroke-width: 3"/>
    </defs>
    <g clip-path="url(#pa0cdbd57f4)">
     <use xlink:href="#m7a46444ad5" x="441.814797" y="293.76" style="stroke: #000000; stroke-width: 3"/>
     <use xlink:href="#m7a46444ad5" x="441.814797" y="3.456" style="stroke: #000000; stroke-width: 3"/>
    </g>
   </g>
   <g id="line2d_128">
    <path d="M 441.813254 293.76 
L 441.813254 3.456 
" clip-path="url(#pa0cdbd57f4)" style="fill: none; stroke: #000000; stroke-width: 1.5; stroke-linecap: square"/>
    <defs>
     <path id="mead99f40ec" d="M 0 7.5 
C 1.989023 7.5 3.896849 6.709753 5.303301 5.303301 
C 6.709753 3.896849 7.5 1.989023 7.5 0 
C 7.5 -1.989023 6.709753 -3.896849 5.303301 -5.303301 
C 3.896849 -6.709753 1.989023 -7.5 0 -7.5 
C -1.989023 -7.5 -3.896849 -6.709753 -5.303301 -5.303301 
C -6.709753 -3.896849 -7.5 -1.989023 -7.5 0 
C -7.5 1.989023 -6.709753 3.896849 -5.303301 5.303301 
C -3.896849 6.709753 -1.989023 7.5 0 7.5 
z
" style="stroke: #000000; stroke-width: 3"/>
    </defs>
    <g clip-path="url(#pa0cdbd57f4)">
     <use xlink:href="#mead99f40ec" x="441.813254" y="293.76" style="fill-opacity: 0; stroke: #000000; stroke-width: 3"/>
     <use xlink:href="#mead99f40ec" x="441.813254" y="3.456" style="fill-opacity: 0; stroke: #000000; stroke-width: 3"/>
    </g>
   </g>
   <g id="patch_3">
    <path d="M 62.208 293.76 
L 62.208 3.456 
" style="fill: none; stroke: #000000; stroke-width: 0.8; stroke-linejoin: miter; stroke-linecap: square"/>
   </g>
   <g id="patch_4">
    <path d="M 460.8 293.76 
L 460.8 3.456 
" style="fill: none; stroke: #000000; stroke-width: 0.8; stroke-linejoin: miter; stroke-linecap: square"/>
   </g>
   <g id="patch_5">
    <path d="M 62.208 293.76 
L 460.8 293.76 
" style="fill: none; stroke: #000000; stroke-width: 0.8; stroke-linejoin: miter; stroke-linecap: square"/>
   </g>
   <g id="patch_6">
    <path d="M 62.208 3.456 
L 460.8 3.456 
" style="fill: none; stroke: #000000; stroke-width: 0.8; stroke-linejoin: miter; stroke-linecap: square"/>
   </g>
   <g id="text_12">
    <!-- f6-f9 -->
    <g transform="translate(238.130563 24.458955) scale(0.2 -0.2)">
     <defs>
      <path id="DejaVuSans-2d" d="M 313 2009 
L 1997 2009 
L 1997 1497 
L 313 1497 
L 313 2009 
z
" transform="scale(0.015625)"/>
      <path id="DejaVuSans-39" d="M 703 97 
L 703 672 
Q 941 559 1184 500 
Q 1428 441 1663 441 
Q 2288 441 2617 861 
Q 2947 1281 2994 2138 
Q 2813 1869 2534 1725 
Q 2256 1581 1919 1581 
Q 1219 1581 811 2004 
Q 403 2428 403 3163 
Q 403 3881 828 4315 
Q 1253 4750 1959 4750 
Q 2769 4750 3195 4129 
Q 3622 3509 3622 2328 
Q 3622 1225 3098 567 
Q 2575 -91 1691 -91 
Q 1453 -91 1209 -44 
Q 966 3 703 97 
z
M 1959 2075 
Q 2384 2075 2632 2365 
Q 2881 2656 2881 3163 
Q 2881 3666 2632 3958 
Q 2384 4250 1959 4250 
Q 1534 4250 1286 3958 
Q 1038 3666 1038 3163 
Q 1038 2656 1286 2365 
Q 1534 2075 1959 2075 
z
" transform="scale(0.015625)"/>
     </defs>
     <use xlink:href="#DejaVuSans-66"/>
     <use xlink:href="#DejaVuSans-36" x="35.205078"/>
     <use xlink:href="#DejaVuSans-2d" x="98.828125"/>
     <use xlink:href="#DejaVuSans-66" x="134.912109"/>
     <use xlink:href="#DejaVuSans-39" x="170.117188"/>
    </g>
   </g>
   <g id="text_13">
    <!-- absolute targets -->
    <g transform="translate(62.208 609.932673) scale(0.14 -0.14)">
     <defs>
      <path id="DejaVuSans-62" d="M 3116 1747 
Q 3116 2381 2855 2742 
Q 2594 3103 2138 3103 
Q 1681 3103 1420 2742 
Q 1159 2381 1159 1747 
Q 1159 1113 1420 752 
Q 1681 391 2138 391 
Q 2594 391 2855 752 
Q 3116 1113 3116 1747 
z
M 1159 2969 
Q 1341 3281 1617 3432 
Q 1894 3584 2278 3584 
Q 2916 3584 3314 3078 
Q 3713 2572 3713 1747 
Q 3713 922 3314 415 
Q 2916 -91 2278 -91 
Q 1894 -91 1617 61 
Q 1341 213 1159 525 
L 1159 0 
L 581 0 
L 581 4863 
L 1159 4863 
L 1159 2969 
z
" transform="scale(0.015625)"/>
      <path id="DejaVuSans-75" d="M 544 1381 
L 544 3500 
L 1119 3500 
L 1119 1403 
Q 1119 906 1312 657 
Q 1506 409 1894 409 
Q 2359 409 2629 706 
Q 2900 1003 2900 1516 
L 2900 3500 
L 3475 3500 
L 3475 0 
L 2900 0 
L 2900 538 
Q 2691 219 2414 64 
Q 2138 -91 1772 -91 
Q 1169 -91 856 284 
Q 544 659 544 1381 
z
M 1991 3584 
L 1991 3584 
z
" transform="scale(0.015625)"/>
      <path id="DejaVuSans-65" d="M 3597 1894 
L 3597 1613 
L 953 1613 
Q 991 1019 1311 708 
Q 1631 397 2203 397 
Q 2534 397 2845 478 
Q 3156 559 3463 722 
L 3463 178 
Q 3153 47 2828 -22 
Q 2503 -91 2169 -91 
Q 1331 -91 842 396 
Q 353 884 353 1716 
Q 353 2575 817 3079 
Q 1281 3584 2069 3584 
Q 2775 3584 3186 3129 
Q 3597 2675 3597 1894 
z
M 3022 2063 
Q 3016 2534 2758 2815 
Q 2500 3097 2075 3097 
Q 1594 3097 1305 2825 
Q 1016 2553 972 2059 
L 3022 2063 
z
" transform="scale(0.015625)"/>
     </defs>
     <use xlink:href="#DejaVuSans-61"/>
     <use xlink:href="#DejaVuSans-62" x="61.279297"/>
     <use xlink:href="#DejaVuSans-73" x="124.755859"/>
     <use xlink:href="#DejaVuSans-6f" x="176.855469"/>
     <use xlink:href="#DejaVuSans-6c" x="238.037109"/>
     <use xlink:href="#DejaVuSans-75" x="265.820312"/>
     <use xlink:href="#DejaVuSans-74" x="329.199219"/>
     <use xlink:href="#DejaVuSans-65" x="368.408203"/>
     <use xlink:href="#DejaVuSans-20" x="429.931641"/>
     <use xlink:href="#DejaVuSans-74" x="461.71875"/>
     <use xlink:href="#DejaVuSans-61" x="500.927734"/>
     <use xlink:href="#DejaVuSans-72" x="562.207031"/>
     <use xlink:href="#DejaVuSans-67" x="601.570312"/>
     <use xlink:href="#DejaVuSans-65" x="665.046875"/>
     <use xlink:href="#DejaVuSans-74" x="726.570312"/>
     <use xlink:href="#DejaVuSans-73" x="765.779297"/>
    </g>
   </g>
   <g id="text_14">
    <!-- v2.6.3 -->
    <g style="fill: #808080" transform="translate(245.82275 288.777272) scale(0.1 -0.1)">
     <defs>
      <path id="DejaVuSans-33" d="M 2597 2516 
Q 3050 2419 3304 2112 
Q 3559 1806 3559 1356 
Q 3559 666 3084 287 
Q 2609 -91 1734 -91 
Q 1441 -91 1130 -33 
Q 819 25 488 141 
L 488 750 
Q 750 597 1062 519 
Q 1375 441 1716 441 
Q 2309 441 2620 675 
Q 2931 909 2931 1356 
Q 2931 1769 2642 2001 
Q 2353 2234 1838 2234 
L 1294 2234 
L 1294 2753 
L 1863 2753 
Q 2328 2753 2575 2939 
Q 2822 3125 2822 3475 
Q 2822 3834 2567 4026 
Q 2313 4219 1838 4219 
Q 1578 4219 1281 4162 
Q 984 4106 628 3988 
L 628 4550 
Q 988 4650 1302 4700 
Q 1616 4750 1894 4750 
Q 2613 4750 3031 4423 
Q 3450 4097 3450 3541 
Q 3450 3153 3228 2886 
Q 3006 2619 2597 2516 
z
" transform="scale(0.015625)"/>
     </defs>
     <use xlink:href="#DejaVuSans-76"/>
     <use xlink:href="#DejaVuSans-32" x="59.179688"/>
     <use xlink:href="#DejaVuSans-2e" x="122.802734"/>
     <use xlink:href="#DejaVuSans-36" x="154.589844"/>
     <use xlink:href="#DejaVuSans-2e" x="218.212891"/>
     <use xlink:href="#DejaVuSans-33" x="250"/>
    </g>
   </g>
   <g id="legend_1">
    <g id="patch_7">
     <path d="M 76.208 136.881 
L 160.148625 136.881 
Q 164.148625 136.881 164.148625 132.881 
L 164.148625 17.456 
Q 164.148625 13.456 160.148625 13.456 
L 76.208 13.456 
Q 72.208 13.456 72.208 17.456 
L 72.208 132.881 
Q 72.208 136.881 76.208 136.881 
z
" style="fill: #ffffff; opacity: 0.2; stroke: #cccccc; stroke-linejoin: miter"/>
    </g>
    <g id="line2d_129">
     <path d="M 80.208 29.652875 
L 80.208 29.652875 
L 100.208 29.652875 
L 100.208 29.652875 
L 120.208 29.652875 
" style="fill: none; stroke: #000000; stroke-width: 1.5; stroke-linecap: square"/>
    </g>
    <g id="text_15">
     <!-- 1 -->
     <g transform="translate(136.208 36.652875) scale(0.2 -0.2)">
      <use xlink:href="#DejaVuSans-31"/>
     </g>
    </g>
    <g id="line2d_130">
     <path d="M 80.208 59.009125 
L 80.208 59.009125 
L 100.208 59.009125 
L 100.208 59.009125 
L 120.208 59.009125 
" style="fill: none; stroke: #00bfbf; stroke-width: 1.5; stroke-linecap: square"/>
    </g>
    <g id="text_16">
     <!-- -1 -->
     <g transform="translate(136.208 66.009125) scale(0.2 -0.2)">
      <use xlink:href="#DejaVuSans-2d"/>
      <use xlink:href="#DejaVuSans-31" x="36.083984"/>
     </g>
    </g>
    <g id="line2d_131">
     <path d="M 80.208 88.365375 
L 80.208 88.365375 
L 100.208 88.365375 
L 100.208 88.365375 
L 120.208 88.365375 
" style="fill: none; stroke: #bf00bf; stroke-width: 1.5; stroke-linecap: square"/>
    </g>
    <g id="text_17">
     <!-- -4 -->
     <g transform="translate(136.208 95.365375) scale(0.2 -0.2)">
      <use xlink:href="#DejaVuSans-2d"/>
      <use xlink:href="#DejaVuSans-34" x="36.083984"/>
     </g>
    </g>
    <g id="line2d_132">
     <path d="M 80.208 117.721625 
L 80.208 117.721625 
L 100.208 117.721625 
L 100.208 117.721625 
L 120.208 117.721625 
" style="fill: none; stroke: #ff0000; stroke-width: 3; stroke-linecap: square"/>
    </g>
    <g id="text_18">
     <!-- -8 -->
     <g transform="translate(136.208 124.721625) scale(0.2 -0.2)">
      <use xlink:href="#DejaVuSans-2d"/>
      <use xlink:href="#DejaVuSans-38" x="36.083984"/>
     </g>
    </g>
   </g>
  </g>
 </g>
 <defs>
  <clipPath id="pa0cdbd57f4">
   <rect x="62.208" y="3.456" width="398.592" height="290.304"/>
  </clipPath>
 </defs>
</svg>
