<?xml version="1.0" encoding="utf-8" standalone="no"?>
<!DOCTYPE svg PUBLIC "-//W3C//DTD SVG 1.1//EN"
  "http://www.w3.org/Graphics/SVG/1.1/DTD/svg11.dtd">
<svg xmlns:xlink="http://www.w3.org/1999/xlink" width="460.8pt" height="345.6pt" viewBox="0 0 460.8 345.6" xmlns="http://www.w3.org/2000/svg" version="1.1">
 <metadata>
  <rdf:RDF xmlns:dc="http://purl.org/dc/elements/1.1/" xmlns:cc="http://creativecommons.org/ns#" xmlns:rdf="http://www.w3.org/1999/02/22-rdf-syntax-ns#">
   <cc:Work>
    <dc:type rdf:resource="http://purl.org/dc/dcmitype/StillImage"/>
    <dc:date>2024-06-05T13:53:15.838633</dc:date>
    <dc:format>image/svg+xml</dc:format>
    <dc:creator>
     <cc:Agent>
      <dc:title>Matplotlib v3.7.1, https://matplotlib.org/</dc:title>
     </cc:Agent>
    </dc:creator>
   </cc:Work>
  </rdf:RDF>
 </metadata>
 <defs>
  <style type="text/css">*{stroke-linejoin: round; stroke-linecap: butt}</style>
 </defs>
 <g id="figure_1">
  <g id="patch_1">
   <path d="M 0 345.6 
L 460.8 345.6 
L 460.8 0 
L 0 0 
z
" style="fill: #ffffff"/>
  </g>
  <g id="axes_1">
   <g id="patch_2">
    <path d="M 34.16 291.28 
L 453.192 291.28 
L 453.192 3 
L 34.16 3 
z
" style="fill: #ffffff"/>
   </g>
   <g id="matplotlib.axis_1">
    <g id="xtick_1">
     <g id="line2d_1">
      <path d="M 153.841297 291.28 
L 153.841297 3 
" clip-path="url(#p0ab9bcb4ba)" style="fill: none; stroke: #b0b0b0; stroke-width: 0.8; stroke-linecap: square"/>
     </g>
     <g id="line2d_2">
      <defs>
       <path id="m4c0317dad0" d="M 0 0 
L 0 3.5 
" style="stroke: #000000; stroke-width: 0.8"/>
      </defs>
      <g>
       <use xlink:href="#m4c0317dad0" x="153.841297" y="291.28" style="stroke: #000000; stroke-width: 0.8"/>
      </g>
     </g>
     <g id="text_1">
      <!-- -1 -->
      <g transform="translate(143.870985 313.476875) scale(0.2 -0.2)">
       <defs>
        <path id="DejaVuSans-2d" d="M 313 2009 
L 1997 2009 
L 1997 1497 
L 313 1497 
L 313 2009 
z
" transform="scale(0.015625)"/>
        <path id="DejaVuSans-31" d="M 794 531 
L 1825 531 
L 1825 4091 
L 703 3866 
L 703 4441 
L 1819 4666 
L 2450 4666 
L 2450 531 
L 3481 531 
L 3481 0 
L 794 0 
L 794 531 
z
" transform="scale(0.015625)"/>
       </defs>
       <use xlink:href="#DejaVuSans-2d"/>
       <use xlink:href="#DejaVuSans-31" x="36.083984"/>
      </g>
     </g>
    </g>
    <g id="xtick_2">
     <g id="line2d_3">
      <path d="M 333.510703 291.28 
L 333.510703 3 
" clip-path="url(#p0ab9bcb4ba)" style="fill: none; stroke: #b0b0b0; stroke-width: 0.8; stroke-linecap: square"/>
     </g>
     <g id="line2d_4">
      <g>
       <use xlink:href="#m4c0317dad0" x="333.510703" y="291.28" style="stroke: #000000; stroke-width: 0.8"/>
      </g>
     </g>
     <g id="text_2">
      <!-- 1 -->
      <g transform="translate(327.148203 313.476875) scale(0.2 -0.2)">
       <use xlink:href="#DejaVuSans-31"/>
      </g>
     </g>
    </g>
    <g id="xtick_3">
     <g id="line2d_5">
      <defs>
       <path id="m16e42a7943" d="M 0 0 
L 0 2 
" style="stroke: #000000; stroke-width: 0.6"/>
      </defs>
      <g>
       <use xlink:href="#m16e42a7943" x="36.963655" y="291.28" style="stroke: #000000; stroke-width: 0.6"/>
      </g>
     </g>
    </g>
    <g id="xtick_4">
     <g id="line2d_6">
      <g>
       <use xlink:href="#m16e42a7943" x="44.076878" y="291.28" style="stroke: #000000; stroke-width: 0.6"/>
      </g>
     </g>
    </g>
    <g id="xtick_5">
     <g id="line2d_7">
      <g>
       <use xlink:href="#m16e42a7943" x="50.091023" y="291.28" style="stroke: #000000; stroke-width: 0.6"/>
      </g>
     </g>
    </g>
    <g id="xtick_6">
     <g id="line2d_8">
      <g>
       <use xlink:href="#m16e42a7943" x="55.300712" y="291.28" style="stroke: #000000; stroke-width: 0.6"/>
      </g>
     </g>
    </g>
    <g id="xtick_7">
     <g id="line2d_9">
      <g>
       <use xlink:href="#m16e42a7943" x="59.895984" y="291.28" style="stroke: #000000; stroke-width: 0.6"/>
      </g>
     </g>
    </g>
    <g id="xtick_8">
     <g id="line2d_10">
      <g>
       <use xlink:href="#m16e42a7943" x="91.049535" y="291.28" style="stroke: #000000; stroke-width: 0.6"/>
      </g>
     </g>
    </g>
    <g id="xtick_9">
     <g id="line2d_11">
      <g>
       <use xlink:href="#m16e42a7943" x="106.868641" y="291.28" style="stroke: #000000; stroke-width: 0.6"/>
      </g>
     </g>
    </g>
    <g id="xtick_10">
     <g id="line2d_12">
      <g>
       <use xlink:href="#m16e42a7943" x="118.092475" y="291.28" style="stroke: #000000; stroke-width: 0.6"/>
      </g>
     </g>
    </g>
    <g id="xtick_11">
     <g id="line2d_13">
      <g>
       <use xlink:href="#m16e42a7943" x="126.798357" y="291.28" style="stroke: #000000; stroke-width: 0.6"/>
      </g>
     </g>
    </g>
    <g id="xtick_12">
     <g id="line2d_14">
      <g>
       <use xlink:href="#m16e42a7943" x="133.911581" y="291.28" style="stroke: #000000; stroke-width: 0.6"/>
      </g>
     </g>
    </g>
    <g id="xtick_13">
     <g id="line2d_15">
      <g>
       <use xlink:href="#m16e42a7943" x="139.925726" y="291.28" style="stroke: #000000; stroke-width: 0.6"/>
      </g>
     </g>
    </g>
    <g id="xtick_14">
     <g id="line2d_16">
      <g>
       <use xlink:href="#m16e42a7943" x="145.135415" y="291.28" style="stroke: #000000; stroke-width: 0.6"/>
      </g>
     </g>
    </g>
    <g id="xtick_15">
     <g id="line2d_17">
      <g>
       <use xlink:href="#m16e42a7943" x="149.730687" y="291.28" style="stroke: #000000; stroke-width: 0.6"/>
      </g>
     </g>
    </g>
    <g id="xtick_16">
     <g id="line2d_18">
      <g>
       <use xlink:href="#m16e42a7943" x="180.884237" y="291.28" style="stroke: #000000; stroke-width: 0.6"/>
      </g>
     </g>
    </g>
    <g id="xtick_17">
     <g id="line2d_19">
      <g>
       <use xlink:href="#m16e42a7943" x="196.703343" y="291.28" style="stroke: #000000; stroke-width: 0.6"/>
      </g>
     </g>
    </g>
    <g id="xtick_18">
     <g id="line2d_20">
      <g>
       <use xlink:href="#m16e42a7943" x="207.927178" y="291.28" style="stroke: #000000; stroke-width: 0.6"/>
      </g>
     </g>
    </g>
    <g id="xtick_19">
     <g id="line2d_21">
      <g>
       <use xlink:href="#m16e42a7943" x="216.63306" y="291.28" style="stroke: #000000; stroke-width: 0.6"/>
      </g>
     </g>
    </g>
    <g id="xtick_20">
     <g id="line2d_22">
      <g>
       <use xlink:href="#m16e42a7943" x="223.746284" y="291.28" style="stroke: #000000; stroke-width: 0.6"/>
      </g>
     </g>
    </g>
    <g id="xtick_21">
     <g id="line2d_23">
      <g>
       <use xlink:href="#m16e42a7943" x="229.760428" y="291.28" style="stroke: #000000; stroke-width: 0.6"/>
      </g>
     </g>
    </g>
    <g id="xtick_22">
     <g id="line2d_24">
      <g>
       <use xlink:href="#m16e42a7943" x="234.970118" y="291.28" style="stroke: #000000; stroke-width: 0.6"/>
      </g>
     </g>
    </g>
    <g id="xtick_23">
     <g id="line2d_25">
      <g>
       <use xlink:href="#m16e42a7943" x="239.565389" y="291.28" style="stroke: #000000; stroke-width: 0.6"/>
      </g>
     </g>
    </g>
    <g id="xtick_24">
     <g id="line2d_26">
      <g>
       <use xlink:href="#m16e42a7943" x="270.71894" y="291.28" style="stroke: #000000; stroke-width: 0.6"/>
      </g>
     </g>
    </g>
    <g id="xtick_25">
     <g id="line2d_27">
      <g>
       <use xlink:href="#m16e42a7943" x="286.538046" y="291.28" style="stroke: #000000; stroke-width: 0.6"/>
      </g>
     </g>
    </g>
    <g id="xtick_26">
     <g id="line2d_28">
      <g>
       <use xlink:href="#m16e42a7943" x="297.76188" y="291.28" style="stroke: #000000; stroke-width: 0.6"/>
      </g>
     </g>
    </g>
    <g id="xtick_27">
     <g id="line2d_29">
      <g>
       <use xlink:href="#m16e42a7943" x="306.467763" y="291.28" style="stroke: #000000; stroke-width: 0.6"/>
      </g>
     </g>
    </g>
    <g id="xtick_28">
     <g id="line2d_30">
      <g>
       <use xlink:href="#m16e42a7943" x="313.580986" y="291.28" style="stroke: #000000; stroke-width: 0.6"/>
      </g>
     </g>
    </g>
    <g id="xtick_29">
     <g id="line2d_31">
      <g>
       <use xlink:href="#m16e42a7943" x="319.595131" y="291.28" style="stroke: #000000; stroke-width: 0.6"/>
      </g>
     </g>
    </g>
    <g id="xtick_30">
     <g id="line2d_32">
      <g>
       <use xlink:href="#m16e42a7943" x="324.80482" y="291.28" style="stroke: #000000; stroke-width: 0.6"/>
      </g>
     </g>
    </g>
    <g id="xtick_31">
     <g id="line2d_33">
      <g>
       <use xlink:href="#m16e42a7943" x="329.400092" y="291.28" style="stroke: #000000; stroke-width: 0.6"/>
      </g>
     </g>
    </g>
    <g id="xtick_32">
     <g id="line2d_34">
      <g>
       <use xlink:href="#m16e42a7943" x="360.553643" y="291.28" style="stroke: #000000; stroke-width: 0.6"/>
      </g>
     </g>
    </g>
    <g id="xtick_33">
     <g id="line2d_35">
      <g>
       <use xlink:href="#m16e42a7943" x="376.372749" y="291.28" style="stroke: #000000; stroke-width: 0.6"/>
      </g>
     </g>
    </g>
    <g id="xtick_34">
     <g id="line2d_36">
      <g>
       <use xlink:href="#m16e42a7943" x="387.596583" y="291.28" style="stroke: #000000; stroke-width: 0.6"/>
      </g>
     </g>
    </g>
    <g id="xtick_35">
     <g id="line2d_37">
      <g>
       <use xlink:href="#m16e42a7943" x="396.302465" y="291.28" style="stroke: #000000; stroke-width: 0.6"/>
      </g>
     </g>
    </g>
    <g id="xtick_36">
     <g id="line2d_38">
      <g>
       <use xlink:href="#m16e42a7943" x="403.415689" y="291.28" style="stroke: #000000; stroke-width: 0.6"/>
      </g>
     </g>
    </g>
    <g id="xtick_37">
     <g id="line2d_39">
      <g>
       <use xlink:href="#m16e42a7943" x="409.429834" y="291.28" style="stroke: #000000; stroke-width: 0.6"/>
      </g>
     </g>
    </g>
    <g id="xtick_38">
     <g id="line2d_40">
      <g>
       <use xlink:href="#m16e42a7943" x="414.639523" y="291.28" style="stroke: #000000; stroke-width: 0.6"/>
      </g>
     </g>
    </g>
    <g id="xtick_39">
     <g id="line2d_41">
      <g>
       <use xlink:href="#m16e42a7943" x="419.234795" y="291.28" style="stroke: #000000; stroke-width: 0.6"/>
      </g>
     </g>
    </g>
    <g id="xtick_40">
     <g id="line2d_42">
      <g>
       <use xlink:href="#m16e42a7943" x="450.388345" y="291.28" style="stroke: #000000; stroke-width: 0.6"/>
      </g>
     </g>
    </g>
    <g id="text_3">
     <!-- log10 of FEvals ratio -->
     <g transform="translate(141.371312 336.833125) scale(0.2 -0.2)">
      <defs>
       <path id="DejaVuSans-6c" d="M 603 4863 
L 1178 4863 
L 1178 0 
L 603 0 
L 603 4863 
z
" transform="scale(0.015625)"/>
       <path id="DejaVuSans-6f" d="M 1959 3097 
Q 1497 3097 1228 2736 
Q 959 2375 959 1747 
Q 959 1119 1226 758 
Q 1494 397 1959 397 
Q 2419 397 2687 759 
Q 2956 1122 2956 1747 
Q 2956 2369 2687 2733 
Q 2419 3097 1959 3097 
z
M 1959 3584 
Q 2709 3584 3137 3096 
Q 3566 2609 3566 1747 
Q 3566 888 3137 398 
Q 2709 -91 1959 -91 
Q 1206 -91 779 398 
Q 353 888 353 1747 
Q 353 2609 779 3096 
Q 1206 3584 1959 3584 
z
" transform="scale(0.015625)"/>
       <path id="DejaVuSans-67" d="M 2906 1791 
Q 2906 2416 2648 2759 
Q 2391 3103 1925 3103 
Q 1463 3103 1205 2759 
Q 947 2416 947 1791 
Q 947 1169 1205 825 
Q 1463 481 1925 481 
Q 2391 481 2648 825 
Q 2906 1169 2906 1791 
z
M 3481 434 
Q 3481 -459 3084 -895 
Q 2688 -1331 1869 -1331 
Q 1566 -1331 1297 -1286 
Q 1028 -1241 775 -1147 
L 775 -588 
Q 1028 -725 1275 -790 
Q 1522 -856 1778 -856 
Q 2344 -856 2625 -561 
Q 2906 -266 2906 331 
L 2906 616 
Q 2728 306 2450 153 
Q 2172 0 1784 0 
Q 1141 0 747 490 
Q 353 981 353 1791 
Q 353 2603 747 3093 
Q 1141 3584 1784 3584 
Q 2172 3584 2450 3431 
Q 2728 3278 2906 2969 
L 2906 3500 
L 3481 3500 
L 3481 434 
z
" transform="scale(0.015625)"/>
       <path id="DejaVuSans-30" d="M 2034 4250 
Q 1547 4250 1301 3770 
Q 1056 3291 1056 2328 
Q 1056 1369 1301 889 
Q 1547 409 2034 409 
Q 2525 409 2770 889 
Q 3016 1369 3016 2328 
Q 3016 3291 2770 3770 
Q 2525 4250 2034 4250 
z
M 2034 4750 
Q 2819 4750 3233 4129 
Q 3647 3509 3647 2328 
Q 3647 1150 3233 529 
Q 2819 -91 2034 -91 
Q 1250 -91 836 529 
Q 422 1150 422 2328 
Q 422 3509 836 4129 
Q 1250 4750 2034 4750 
z
" transform="scale(0.015625)"/>
       <path id="DejaVuSans-20" transform="scale(0.015625)"/>
       <path id="DejaVuSans-66" d="M 2375 4863 
L 2375 4384 
L 1825 4384 
Q 1516 4384 1395 4259 
Q 1275 4134 1275 3809 
L 1275 3500 
L 2222 3500 
L 2222 3053 
L 1275 3053 
L 1275 0 
L 697 0 
L 697 3053 
L 147 3053 
L 147 3500 
L 697 3500 
L 697 3744 
Q 697 4328 969 4595 
Q 1241 4863 1831 4863 
L 2375 4863 
z
" transform="scale(0.015625)"/>
       <path id="DejaVuSans-46" d="M 628 4666 
L 3309 4666 
L 3309 4134 
L 1259 4134 
L 1259 2759 
L 3109 2759 
L 3109 2228 
L 1259 2228 
L 1259 0 
L 628 0 
L 628 4666 
z
" transform="scale(0.015625)"/>
       <path id="DejaVuSans-45" d="M 628 4666 
L 3578 4666 
L 3578 4134 
L 1259 4134 
L 1259 2753 
L 3481 2753 
L 3481 2222 
L 1259 2222 
L 1259 531 
L 3634 531 
L 3634 0 
L 628 0 
L 628 4666 
z
" transform="scale(0.015625)"/>
       <path id="DejaVuSans-76" d="M 191 3500 
L 800 3500 
L 1894 563 
L 2988 3500 
L 3597 3500 
L 2284 0 
L 1503 0 
L 191 3500 
z
" transform="scale(0.015625)"/>
       <path id="DejaVuSans-61" d="M 2194 1759 
Q 1497 1759 1228 1600 
Q 959 1441 959 1056 
Q 959 750 1161 570 
Q 1363 391 1709 391 
Q 2188 391 2477 730 
Q 2766 1069 2766 1631 
L 2766 1759 
L 2194 1759 
z
M 3341 1997 
L 3341 0 
L 2766 0 
L 2766 531 
Q 2569 213 2275 61 
Q 1981 -91 1556 -91 
Q 1019 -91 701 211 
Q 384 513 384 1019 
Q 384 1609 779 1909 
Q 1175 2209 1959 2209 
L 2766 2209 
L 2766 2266 
Q 2766 2663 2505 2880 
Q 2244 3097 1772 3097 
Q 1472 3097 1187 3025 
Q 903 2953 641 2809 
L 641 3341 
Q 956 3463 1253 3523 
Q 1550 3584 1831 3584 
Q 2591 3584 2966 3190 
Q 3341 2797 3341 1997 
z
" transform="scale(0.015625)"/>
       <path id="DejaVuSans-73" d="M 2834 3397 
L 2834 2853 
Q 2591 2978 2328 3040 
Q 2066 3103 1784 3103 
Q 1356 3103 1142 2972 
Q 928 2841 928 2578 
Q 928 2378 1081 2264 
Q 1234 2150 1697 2047 
L 1894 2003 
Q 2506 1872 2764 1633 
Q 3022 1394 3022 966 
Q 3022 478 2636 193 
Q 2250 -91 1575 -91 
Q 1294 -91 989 -36 
Q 684 19 347 128 
L 347 722 
Q 666 556 975 473 
Q 1284 391 1588 391 
Q 1994 391 2212 530 
Q 2431 669 2431 922 
Q 2431 1156 2273 1281 
Q 2116 1406 1581 1522 
L 1381 1569 
Q 847 1681 609 1914 
Q 372 2147 372 2553 
Q 372 3047 722 3315 
Q 1072 3584 1716 3584 
Q 2034 3584 2315 3537 
Q 2597 3491 2834 3397 
z
" transform="scale(0.015625)"/>
       <path id="DejaVuSans-72" d="M 2631 2963 
Q 2534 3019 2420 3045 
Q 2306 3072 2169 3072 
Q 1681 3072 1420 2755 
Q 1159 2438 1159 1844 
L 1159 0 
L 581 0 
L 581 3500 
L 1159 3500 
L 1159 2956 
Q 1341 3275 1631 3429 
Q 1922 3584 2338 3584 
Q 2397 3584 2469 3576 
Q 2541 3569 2628 3553 
L 2631 2963 
z
" transform="scale(0.015625)"/>
       <path id="DejaVuSans-74" d="M 1172 4494 
L 1172 3500 
L 2356 3500 
L 2356 3053 
L 1172 3053 
L 1172 1153 
Q 1172 725 1289 603 
Q 1406 481 1766 481 
L 2356 481 
L 2356 0 
L 1766 0 
Q 1100 0 847 248 
Q 594 497 594 1153 
L 594 3053 
L 172 3053 
L 172 3500 
L 594 3500 
L 594 4494 
L 1172 4494 
z
" transform="scale(0.015625)"/>
       <path id="DejaVuSans-69" d="M 603 3500 
L 1178 3500 
L 1178 0 
L 603 0 
L 603 3500 
z
M 603 4863 
L 1178 4863 
L 1178 4134 
L 603 4134 
L 603 4863 
z
" transform="scale(0.015625)"/>
      </defs>
      <use xlink:href="#DejaVuSans-6c"/>
      <use xlink:href="#DejaVuSans-6f" x="27.783203"/>
      <use xlink:href="#DejaVuSans-67" x="88.964844"/>
      <use xlink:href="#DejaVuSans-31" x="152.441406"/>
      <use xlink:href="#DejaVuSans-30" x="216.064453"/>
      <use xlink:href="#DejaVuSans-20" x="279.6875"/>
      <use xlink:href="#DejaVuSans-6f" x="311.474609"/>
      <use xlink:href="#DejaVuSans-66" x="372.65625"/>
      <use xlink:href="#DejaVuSans-20" x="407.861328"/>
      <use xlink:href="#DejaVuSans-46" x="439.648438"/>
      <use xlink:href="#DejaVuSans-45" x="497.167969"/>
      <use xlink:href="#DejaVuSans-76" x="560.351562"/>
      <use xlink:href="#DejaVuSans-61" x="619.53125"/>
      <use xlink:href="#DejaVuSans-6c" x="680.810547"/>
      <use xlink:href="#DejaVuSans-73" x="708.59375"/>
      <use xlink:href="#DejaVuSans-20" x="760.693359"/>
      <use xlink:href="#DejaVuSans-72" x="792.480469"/>
      <use xlink:href="#DejaVuSans-61" x="833.59375"/>
      <use xlink:href="#DejaVuSans-74" x="894.873047"/>
      <use xlink:href="#DejaVuSans-69" x="934.082031"/>
      <use xlink:href="#DejaVuSans-6f" x="961.865234"/>
     </g>
    </g>
   </g>
   <g id="matplotlib.axis_2">
    <g id="ytick_1">
     <g id="line2d_43">
      <path d="M 34.16 288.453725 
L 453.192 288.453725 
" clip-path="url(#p0ab9bcb4ba)" style="fill: none; stroke: #b0b0b0; stroke-width: 0.8; stroke-linecap: square"/>
     </g>
     <g id="line2d_44">
      <defs>
       <path id="m3cd682b084" d="M 0 0 
L -3.5 0 
" style="stroke: #000000; stroke-width: 0.8"/>
      </defs>
      <g>
       <use xlink:href="#m3cd682b084" x="34.16" y="288.453725" style="stroke: #000000; stroke-width: 0.8"/>
      </g>
     </g>
    </g>
    <g id="ytick_2">
     <g id="line2d_45">
      <path d="M 34.16 217.796863 
L 453.192 217.796863 
" clip-path="url(#p0ab9bcb4ba)" style="fill: none; stroke: #b0b0b0; stroke-width: 0.8; stroke-linecap: square"/>
     </g>
     <g id="line2d_46">
      <g>
       <use xlink:href="#m3cd682b084" x="34.16" y="217.796863" style="stroke: #000000; stroke-width: 0.8"/>
      </g>
     </g>
    </g>
    <g id="ytick_3">
     <g id="line2d_47">
      <path d="M 34.16 147.14 
L 453.192 147.14 
" clip-path="url(#p0ab9bcb4ba)" style="fill: none; stroke: #b0b0b0; stroke-width: 0.8; stroke-linecap: square"/>
     </g>
     <g id="line2d_48">
      <g>
       <use xlink:href="#m3cd682b084" x="34.16" y="147.14" style="stroke: #000000; stroke-width: 0.8"/>
      </g>
     </g>
    </g>
    <g id="ytick_4">
     <g id="line2d_49">
      <path d="M 34.16 76.483137 
L 453.192 76.483137 
" clip-path="url(#p0ab9bcb4ba)" style="fill: none; stroke: #b0b0b0; stroke-width: 0.8; stroke-linecap: square"/>
     </g>
     <g id="line2d_50">
      <g>
       <use xlink:href="#m3cd682b084" x="34.16" y="76.483137" style="stroke: #000000; stroke-width: 0.8"/>
      </g>
     </g>
    </g>
    <g id="ytick_5">
     <g id="line2d_51">
      <path d="M 34.16 5.826275 
L 453.192 5.826275 
" clip-path="url(#p0ab9bcb4ba)" style="fill: none; stroke: #b0b0b0; stroke-width: 0.8; stroke-linecap: square"/>
     </g>
     <g id="line2d_52">
      <g>
       <use xlink:href="#m3cd682b084" x="34.16" y="5.826275" style="stroke: #000000; stroke-width: 0.8"/>
      </g>
     </g>
    </g>
    <g id="text_4">
     <!-- proportion of trials -->
     <g transform="translate(19.000625 240.14625) rotate(-90) scale(0.2 -0.2)">
      <defs>
       <path id="DejaVuSans-70" d="M 1159 525 
L 1159 -1331 
L 581 -1331 
L 581 3500 
L 1159 3500 
L 1159 2969 
Q 1341 3281 1617 3432 
Q 1894 3584 2278 3584 
Q 2916 3584 3314 3078 
Q 3713 2572 3713 1747 
Q 3713 922 3314 415 
Q 2916 -91 2278 -91 
Q 1894 -91 1617 61 
Q 1341 213 1159 525 
z
M 3116 1747 
Q 3116 2381 2855 2742 
Q 2594 3103 2138 3103 
Q 1681 3103 1420 2742 
Q 1159 2381 1159 1747 
Q 1159 1113 1420 752 
Q 1681 391 2138 391 
Q 2594 391 2855 752 
Q 3116 1113 3116 1747 
z
" transform="scale(0.015625)"/>
       <path id="DejaVuSans-6e" d="M 3513 2113 
L 3513 0 
L 2938 0 
L 2938 2094 
Q 2938 2591 2744 2837 
Q 2550 3084 2163 3084 
Q 1697 3084 1428 2787 
Q 1159 2491 1159 1978 
L 1159 0 
L 581 0 
L 581 3500 
L 1159 3500 
L 1159 2956 
Q 1366 3272 1645 3428 
Q 1925 3584 2291 3584 
Q 2894 3584 3203 3211 
Q 3513 2838 3513 2113 
z
" transform="scale(0.015625)"/>
      </defs>
      <use xlink:href="#DejaVuSans-70"/>
      <use xlink:href="#DejaVuSans-72" x="63.476562"/>
      <use xlink:href="#DejaVuSans-6f" x="102.339844"/>
      <use xlink:href="#DejaVuSans-70" x="163.521484"/>
      <use xlink:href="#DejaVuSans-6f" x="226.998047"/>
      <use xlink:href="#DejaVuSans-72" x="288.179688"/>
      <use xlink:href="#DejaVuSans-74" x="329.292969"/>
      <use xlink:href="#DejaVuSans-69" x="368.501953"/>
      <use xlink:href="#DejaVuSans-6f" x="396.285156"/>
      <use xlink:href="#DejaVuSans-6e" x="457.466797"/>
      <use xlink:href="#DejaVuSans-20" x="520.845703"/>
      <use xlink:href="#DejaVuSans-6f" x="552.632812"/>
      <use xlink:href="#DejaVuSans-66" x="613.814453"/>
      <use xlink:href="#DejaVuSans-20" x="649.019531"/>
      <use xlink:href="#DejaVuSans-74" x="680.806641"/>
      <use xlink:href="#DejaVuSans-72" x="720.015625"/>
      <use xlink:href="#DejaVuSans-69" x="761.128906"/>
      <use xlink:href="#DejaVuSans-61" x="788.912109"/>
      <use xlink:href="#DejaVuSans-6c" x="850.191406"/>
      <use xlink:href="#DejaVuSans-73" x="877.974609"/>
     </g>
    </g>
   </g>
   <g id="line2d_53">
    <path d="M 34.16 280.387519 
L 139.711945 280.387519 
L 139.711945 280.077281 
L 144.186884 280.077281 
L 144.186884 279.767042 
L 145.840344 279.767042 
L 145.840344 279.456803 
L 146.595008 279.456803 
L 146.595008 279.146565 
L 147.856544 279.146565 
L 147.856544 278.836326 
L 148.248468 278.836326 
L 148.248468 278.526087 
L 150.071988 278.526087 
L 150.071988 278.215849 
L 150.264668 278.215849 
L 150.293598 277.595371 
L 151.698809 277.595371 
L 151.725448 276.974894 
L 152.60714 276.974894 
L 152.701722 276.354416 
L 153.281587 276.354416 
L 153.352269 275.113462 
L 153.741648 275.113462 
L 153.741648 274.803223 
L 154.06115 274.803223 
L 154.06115 274.492984 
L 154.2606 274.492984 
L 154.2606 274.182746 
L 154.599795 274.182746 
L 154.599795 273.872507 
L 154.935046 273.872507 
L 155.000155 272.941791 
L 155.368469 272.941791 
L 155.368469 272.631552 
L 155.714609 272.631552 
L 155.714609 272.321313 
L 156.178702 272.321313 
L 156.2768 271.700836 
L 156.951247 271.700836 
L 157.016355 270.459881 
L 157.73081 270.459881 
L 157.805523 269.839404 
L 158.713854 269.839404 
L 158.713854 269.529165 
L 159.388301 269.529165 
L 159.453409 268.598449 
L 160.167864 268.598449 
L 160.167864 268.28821 
L 160.4849 268.28821 
L 160.4849 267.977972 
L 162.11172 267.977972 
L 162.11172 267.667733 
L 163.020052 267.667733 
L 163.020052 267.357494 
L 163.694498 267.357494 
L 163.759606 266.426778 
L 164.474061 266.426778 
L 164.474061 266.116539 
L 165.010072 266.116539 
L 165.010072 265.806301 
L 166.217775 265.806301 
L 166.217775 265.496062 
L 167.418197 265.496062 
L 167.418197 265.185823 
L 168.625899 265.185823 
L 168.625899 264.875585 
L 170.895177 264.875585 
L 170.895177 264.565346 
L 172.102879 264.565346 
L 172.102879 264.255107 
L 172.521997 264.255107 
L 172.521997 263.944869 
L 173.415573 263.944869 
L 173.430329 263.324391 
L 173.7297 263.324391 
L 173.7297 263.014153 
L 174.104775 263.014153 
L 174.169883 262.083436 
L 174.638031 262.083436 
L 174.638031 261.773198 
L 174.884338 261.773198 
L 174.884338 261.462959 
L 175.312478 261.462959 
L 175.377586 260.532243 
L 176.092041 260.532243 
L 176.092041 260.222004 
L 176.874706 260.222004 
L 176.874706 259.911766 
L 177.370423 259.911766 
L 177.370423 259.601527 
L 177.698503 259.601527 
L 177.698503 259.291288 
L 179.28283 259.291288 
L 179.28283 258.981049 
L 181.000564 258.981049 
L 181.000564 258.670811 
L 182.759811 258.670811 
L 182.759811 258.360572 
L 184.386631 258.360572 
L 184.386631 258.050333 
L 185.294963 258.050333 
L 185.294963 257.740095 
L 185.969409 257.740095 
L 186.034517 256.809379 
L 186.748972 256.809379 
L 186.748972 256.49914 
L 193.661972 256.49914 
L 193.661972 256.188901 
L 202.29431 256.188901 
L 202.29431 255.878663 
L 205.26965 255.878663 
L 205.26965 255.568424 
L 205.460165 255.568424 
L 205.460165 255.258185 
L 206.785456 255.258185 
L 206.785456 254.947946 
L 207.03514 254.947946 
L 207.03514 254.637708 
L 208.131244 254.637708 
L 208.131244 254.327469 
L 208.653951 254.327469 
L 208.653951 254.01723 
L 209.257611 254.01723 
L 209.257611 253.706992 
L 209.481077 253.706992 
L 209.507295 253.086514 
L 210.603399 253.086514 
L 210.603399 252.776276 
L 211.503442 252.776276 
L 211.503442 252.466037 
L 211.753127 252.466037 
L 211.753127 252.155798 
L 212.84923 252.155798 
L 212.84923 251.84556 
L 214.117147 251.84556 
L 214.117147 251.535321 
L 216.500305 251.535321 
L 216.500305 251.225082 
L 217.28629 251.225082 
L 217.28629 250.914843 
L 217.630006 250.914843 
L 217.630006 250.604605 
L 218.322272 250.604605 
L 218.322272 250.294366 
L 218.572429 250.294366 
L 218.572429 249.984127 
L 219.111488 249.984127 
L 219.114032 249.36365 
L 219.283466 249.36365 
L 219.283466 249.053411 
L 220.153145 249.053411 
L 220.261629 248.432934 
L 220.452144 248.432934 
L 220.452144 248.122695 
L 221.299666 248.122695 
L 221.299666 247.812456 
L 221.72746 247.812456 
L 221.72746 247.502218 
L 222.414576 247.502218 
L 222.414576 247.191979 
L 222.631671 247.191979 
L 222.631671 246.88174 
L 223.73672 246.88174 
L 223.73672 246.571502 
L 223.974279 246.571502 
L 223.974279 246.261263 
L 224.285669 246.261263 
L 224.377867 245.640786 
L 224.473057 245.640786 
L 224.473057 245.330547 
L 224.665278 245.330547 
L 224.665278 245.020308 
L 226.006853 245.020308 
L 226.006853 244.71007 
L 226.159598 244.71007 
L 226.159598 244.399831 
L 226.318738 244.399831 
L 226.318738 244.089592 
L 226.626406 244.089592 
L 226.626406 243.779353 
L 226.954611 243.779353 
L 227.026898 243.158876 
L 227.204768 243.158876 
L 227.204768 242.848637 
L 227.788651 242.848637 
L 227.788651 242.538399 
L 228.042917 242.538399 
L 228.042917 242.22816 
L 228.334938 242.22816 
L 228.434517 241.297444 
L 228.479008 241.297444 
L 228.573688 240.676966 
L 228.631754 240.676966 
L 228.723648 240.056489 
L 228.96744 240.056489 
L 229.065629 239.125773 
L 229.098561 239.125773 
L 229.111748 238.195057 
L 229.451026 238.195057 
L 229.451026 237.884818 
L 229.929951 237.884818 
L 229.929951 237.57458 
L 230.120466 237.57458 
L 230.180108 236.954102 
L 230.260806 236.954102 
L 230.370623 236.023386 
L 230.724839 236.023386 
L 230.771992 235.402909 
L 230.874453 235.402909 
L 230.952281 234.161954 
L 231.231585 234.161954 
L 231.231585 233.851715 
L 231.344392 233.851715 
L 231.344392 233.541477 
L 231.492284 233.541477 
L 231.583903 232.61076 
L 231.988918 232.61076 
L 232.09232 231.990283 
L 232.238603 231.990283 
L 232.342004 231.369806 
L 232.506637 231.369806 
L 232.506637 231.059567 
L 233.120284 231.059567 
L 233.152503 230.43909 
L 233.334706 230.43909 
L 233.438108 229.508373 
L 233.525654 229.508373 
L 233.598506 228.577657 
L 233.655296 228.577657 
L 233.655296 228.267419 
L 233.783616 228.267419 
L 233.829734 227.646941 
L 234.103467 227.646941 
L 234.141378 226.716225 
L 234.355716 226.716225 
L 234.391535 226.095748 
L 234.6433 226.095748 
L 234.6433 225.785509 
L 234.892985 225.785509 
L 234.926058 225.165032 
L 235.019988 225.165032 
L 235.078189 224.544554 
L 235.226122 224.544554 
L 235.321809 223.613838 
L 235.45182 223.613838 
L 235.54384 222.993361 
L 235.571494 222.993361 
L 235.571494 222.683122 
L 235.793525 222.683122 
L 235.793525 222.372883 
L 235.910933 222.372883 
L 235.989089 221.752406 
L 236.160617 221.752406 
L 236.160617 221.442167 
L 236.365776 221.442167 
L 236.393971 220.82169 
L 236.667597 220.82169 
L 236.736537 220.201213 
L 236.889628 220.201213 
L 236.903236 219.580735 
L 237.15292 219.580735 
L 237.256721 218.33978 
L 237.355987 218.33978 
L 237.416549 217.719303 
L 237.546566 217.719303 
L 237.546566 217.409064 
L 237.860145 217.409064 
L 237.946289 216.788587 
L 238.249024 216.788587 
L 238.249024 216.478348 
L 238.389996 216.478348 
L 238.453194 215.857871 
L 238.777448 215.857871 
L 238.866126 214.927155 
L 239.027604 214.927155 
L 239.070009 214.306677 
L 239.615074 214.306677 
L 239.679377 213.375961 
L 239.863924 213.375961 
L 239.863924 213.065723 
L 240.181366 213.065723 
L 240.181366 212.755484 
L 240.331327 212.755484 
L 240.406196 211.824768 
L 240.521842 211.824768 
L 240.521842 211.514529 
L 240.774204 211.514529 
L 240.774204 211.20429 
L 241.086209 211.20429 
L 241.160605 210.273574 
L 241.410762 210.273574 
L 241.474156 209.653097 
L 242.182636 209.653097 
L 242.287635 208.722381 
L 242.422532 208.722381 
L 242.422532 208.412142 
L 242.839264 208.412142 
L 242.843251 207.791665 
L 243.029779 207.791665 
L 243.029779 207.481426 
L 243.523263 207.481426 
L 243.558397 206.860949 
L 243.771789 206.860949 
L 243.838773 206.240471 
L 243.959419 206.240471 
L 244.021946 205.309755 
L 244.345925 205.309755 
L 244.392794 204.689278 
L 244.542754 204.689278 
L 244.565793 203.758562 
L 245.206185 203.758562 
L 245.262975 203.138084 
L 245.361929 203.138084 
L 245.45349 202.207368 
L 245.488466 202.207368 
L 245.488466 201.89713 
L 245.94426 201.89713 
L 245.94426 201.586891 
L 246.211825 201.586891 
L 246.218451 200.966414 
L 246.533737 200.966414 
L 246.578628 200.345936 
L 246.696169 200.345936 
L 246.724252 199.725459 
L 246.81808 199.725459 
L 246.81808 199.41522 
L 247.050691 199.41522 
L 247.149448 198.794743 
L 247.176977 198.794743 
L 247.176977 198.484504 
L 247.477033 198.484504 
L 247.477033 198.174265 
L 247.82946 198.174265 
L 247.82946 197.864027 
L 248.179819 197.864027 
L 248.228025 197.243549 
L 249.028863 197.243549 
L 249.063911 196.623072 
L 249.178823 196.623072 
L 249.178823 196.312833 
L 249.406543 196.312833 
L 249.474402 195.382117 
L 249.553968 195.382117 
L 249.553968 195.071878 
L 249.744483 195.071878 
L 249.744483 194.76164 
L 250.169523 194.76164 
L 250.169523 194.451401 
L 250.317828 194.451401 
L 250.317828 194.141162 
L 250.452373 194.141162 
L 250.452373 193.830924 
L 250.642888 193.830924 
L 250.745164 192.900207 
L 251.210316 192.900207 
L 251.313717 192.27973 
L 251.363061 192.27973 
L 251.466463 191.349014 
L 251.561981 191.349014 
L 251.561981 191.038775 
L 251.68676 191.038775 
L 251.68676 190.728537 
L 251.829869 190.728537 
L 251.93327 190.108059 
L 252.381882 190.108059 
L 252.381882 189.797821 
L 252.572397 189.797821 
L 252.572397 189.487582 
L 252.852124 189.487582 
L 252.852124 189.177343 
L 252.992113 189.177343 
L 253.095515 188.556866 
L 253.327429 188.556866 
L 253.327429 188.246627 
L 253.480174 188.246627 
L 253.480174 187.936388 
L 253.60576 187.936388 
L 253.709162 186.695434 
L 253.741381 186.695434 
L 253.765395 186.074956 
L 253.856773 186.074956 
L 253.946982 184.834001 
L 254.017443 184.834001 
L 254.110472 183.282808 
L 254.173165 183.282808 
L 254.269092 182.352092 
L 254.31521 182.352092 
L 254.418612 180.800898 
L 254.484251 180.800898 
L 254.543207 180.180421 
L 254.6638 180.180421 
L 254.765238 179.249705 
L 254.85079 179.249705 
L 254.917983 178.318989 
L 254.971277 178.318989 
L 254.971277 178.00875 
L 255.109227 178.00875 
L 255.162759 177.078034 
L 255.285076 177.078034 
L 255.384791 176.147318 
L 255.603553 176.147318 
L 255.646496 175.216602 
L 255.722874 175.216602 
L 255.755092 174.285886 
L 255.862739 174.285886 
L 255.862739 173.975647 
L 256.023184 173.975647 
L 256.124633 173.044931 
L 256.260142 173.044931 
L 256.335299 171.493738 
L 256.386205 171.493738 
L 256.493629 169.942544 
L 256.547036 169.942544 
L 256.63683 169.011828 
L 256.669049 169.011828 
L 256.744186 168.081112 
L 256.914128 168.081112 
L 256.97087 166.529918 
L 257.032929 166.529918 
L 257.032929 166.21968 
L 257.160682 166.21968 
L 257.192901 165.599202 
L 257.300162 165.599202 
L 257.3531 164.668486 
L 257.414511 164.668486 
L 257.414511 164.358248 
L 257.527775 164.358248 
L 257.601983 163.117293 
L 257.648101 163.117293 
L 257.677908 162.496815 
L 257.764391 162.496815 
L 257.870133 160.945622 
L 257.906431 160.945622 
L 258.016645 160.014906 
L 258.081495 160.014906 
L 258.191106 159.08419 
L 258.237225 159.08419 
L 258.239737 158.463712 
L 258.401464 158.463712 
L 258.401464 158.153474 
L 258.520078 158.153474 
L 258.552297 157.532996 
L 258.767428 157.532996 
L 258.830753 156.912519 
L 259.01777 156.912519 
L 259.104813 155.981803 
L 259.183409 155.981803 
L 259.229528 155.361325 
L 259.299869 155.361325 
L 259.299869 155.051087 
L 259.44744 155.051087 
L 259.44744 154.740848 
L 260.022228 154.740848 
L 260.073054 154.120371 
L 260.290149 154.120371 
L 260.401135 152.879416 
L 260.61823 152.879416 
L 260.61823 152.569177 
L 260.784622 152.569177 
L 260.784622 152.258938 
L 261.229379 152.258938 
L 261.307671 151.328222 
L 261.441765 151.328222 
L 261.441765 151.017984 
L 261.557356 151.017984 
L 261.632757 150.087268 
L 261.683027 150.087268 
L 261.700835 149.46679 
L 261.944147 149.46679 
L 262.037557 148.225835 
L 262.227636 148.225835 
L 262.272228 147.605358 
L 262.364426 147.605358 
L 262.430353 146.984881 
L 262.520446 146.984881 
L 262.520446 146.674642 
L 262.653459 146.674642 
L 262.718819 146.054165 
L 262.770603 146.054165 
L 262.770603 145.743926 
L 263.154654 145.743926 
L 263.154654 145.433687 
L 263.395806 145.433687 
L 263.395806 145.123448 
L 263.612537 145.123448 
L 263.714547 144.192732 
L 263.879156 144.192732 
L 263.920291 143.572255 
L 264.029117 143.572255 
L 264.029117 143.262016 
L 264.251816 143.262016 
L 264.29421 142.641539 
L 264.628504 142.641539 
L 264.63576 142.021062 
L 264.930325 142.021062 
L 264.930325 141.710823 
L 265.152356 141.710823 
L 265.262899 141.090345 
L 265.381554 141.090345 
L 265.381554 140.780107 
L 265.519448 140.780107 
L 265.574289 140.159629 
L 265.666487 140.159629 
L 265.666487 139.849391 
L 265.863997 139.849391 
L 265.973389 138.608436 
L 266.013958 138.608436 
L 266.013958 138.298197 
L 266.134456 138.298197 
L 266.22372 137.367481 
L 266.260485 137.367481 
L 266.260485 137.057242 
L 266.384613 137.057242 
L 266.384613 136.747004 
L 266.511751 136.747004 
L 266.589256 135.816288 
L 266.673626 135.816288 
L 266.673668 135.19581 
L 267.001749 135.19581 
L 267.109504 134.265094 
L 267.33299 134.265094 
L 267.437585 133.334378 
L 267.534153 133.334378 
L 267.534153 133.024139 
L 268.047035 133.024139 
L 268.11274 132.403662 
L 268.442485 132.403662 
L 268.521894 131.472946 
L 268.749231 131.472946 
L 268.749231 131.162707 
L 268.903975 131.162707 
L 268.960765 130.54223 
L 269.056784 130.54223 
L 269.136783 129.611514 
L 269.18204 129.611514 
L 269.18204 129.301275 
L 269.424359 129.301275 
L 269.496075 128.680798 
L 269.539645 128.680798 
L 269.549387 128.06032 
L 269.652789 128.06032 
L 269.739561 127.439843 
L 269.896494 127.439843 
L 269.896494 127.129604 
L 270.02223 127.129604 
L 270.104371 126.509127 
L 270.231527 126.509127 
L 270.30381 125.578411 
L 270.455159 125.578411 
L 270.488021 124.957933 
L 270.647892 124.957933 
L 270.739646 124.337456 
L 270.888816 124.337456 
L 270.945606 123.716979 
L 271.322339 123.716979 
L 271.387447 122.786262 
L 271.666501 122.786262 
L 271.667967 122.165785 
L 271.904199 122.165785 
L 271.904262 121.545308 
L 272.101902 121.545308 
L 272.20377 120.92483 
L 272.216368 120.92483 
L 272.216368 120.614592 
L 272.339572 120.614592 
L 272.339572 120.304353 
L 272.580457 120.304353 
L 272.640228 119.683876 
L 272.771861 119.683876 
L 272.882278 119.063398 
L 272.921822 119.063398 
L 272.921822 118.753159 
L 273.104309 118.753159 
L 273.104309 118.442921 
L 273.251758 118.442921 
L 273.318702 117.822443 
L 273.427418 117.822443 
L 273.471402 117.201966 
L 273.932139 117.201966 
L 273.932139 116.891727 
L 274.150163 116.891727 
L 274.150163 116.581489 
L 274.463705 116.581489 
L 274.463705 116.27125 
L 275.048353 116.27125 
L 275.048353 115.961011 
L 275.236599 115.961011 
L 275.236599 115.650772 
L 275.381179 115.650772 
L 275.429758 115.030295 
L 275.55896 115.030295 
L 275.55896 114.720056 
L 275.786727 114.720056 
L 275.786727 114.409818 
L 276.079672 114.409818 
L 276.135003 113.78934 
L 276.385872 113.78934 
L 276.481879 112.858624 
L 276.535832 112.858624 
L 276.535832 112.548386 
L 277.008 112.548386 
L 277.008 112.238147 
L 277.141738 112.238147 
L 277.246188 110.997192 
L 277.273552 110.997192 
L 277.334248 110.376715 
L 277.484209 110.376715 
L 277.484209 110.066476 
L 277.601632 110.066476 
L 277.601632 109.756237 
L 277.79668 109.756237 
L 277.85347 109.13576 
L 277.916332 109.13576 
L 277.950024 108.205044 
L 278.064513 108.205044 
L 278.064513 107.894805 
L 278.194851 107.894805 
L 278.194851 107.584566 
L 278.525333 107.584566 
L 278.61063 106.65385 
L 278.655886 106.65385 
L 278.75049 106.033373 
L 278.890003 106.033373 
L 278.90045 105.412896 
L 279.043769 105.412896 
L 279.124232 104.792418 
L 279.370341 104.792418 
L 279.370341 104.482179 
L 279.992146 104.482179 
L 279.992146 104.171941 
L 280.152153 104.171941 
L 280.152153 103.861702 
L 280.273645 103.861702 
L 280.273645 103.551463 
L 280.411597 103.551463 
L 280.423606 102.930986 
L 280.529068 102.930986 
L 280.529068 102.620747 
L 280.681814 102.620747 
L 280.681814 102.310509 
L 280.903693 102.310509 
L 280.903693 102.00027 
L 281.060485 102.00027 
L 281.148621 101.379793 
L 281.408387 101.379793 
L 281.46748 100.449076 
L 281.52392 100.449076 
L 281.52392 100.138838 
L 281.671831 100.138838 
L 281.754783 99.208122 
L 281.80004 99.208122 
L 281.883447 98.587644 
L 282.144463 98.587644 
L 282.144463 98.277406 
L 282.275442 98.277406 
L 282.366983 97.036451 
L 282.415857 97.036451 
L 282.514494 96.415973 
L 282.566916 96.415973 
L 282.566916 96.105735 
L 282.738242 96.105735 
L 282.738242 95.795496 
L 282.924513 95.795496 
L 282.956732 94.86478 
L 283.042867 94.86478 
L 283.042867 94.554541 
L 283.298652 94.554541 
L 283.298652 94.244303 
L 283.50876 94.244303 
L 283.587845 93.623825 
L 283.633963 93.623825 
L 283.686619 93.003348 
L 283.775308 93.003348 
L 283.832098 92.38287 
L 283.993804 92.38287 
L 283.993804 92.072632 
L 284.206983 92.072632 
L 284.206983 91.762393 
L 284.839702 91.762393 
L 284.946538 90.2112 
L 284.972377 90.2112 
L 284.972377 89.900961 
L 285.10286 89.900961 
L 285.10286 89.590722 
L 285.298464 89.590722 
L 285.355254 88.970245 
L 285.576582 88.970245 
L 285.660993 87.72929 
L 285.758473 87.72929 
L 285.838297 87.108813 
L 286.166378 87.108813 
L 286.166378 86.798574 
L 286.356145 86.798574 
L 286.356145 86.488335 
L 286.626016 86.488335 
L 286.70685 85.557619 
L 287.605255 85.557619 
L 287.605255 85.24738 
L 288.123091 85.24738 
L 288.123091 84.937142 
L 288.586388 84.937142 
L 288.586388 84.626903 
L 289.021496 84.626903 
L 289.021496 84.316664 
L 289.468439 84.316664 
L 289.534764 83.696187 
L 289.646247 83.696187 
L 289.646247 83.385948 
L 290.416624 83.385948 
L 290.416624 83.07571 
L 290.544652 83.07571 
L 290.544652 82.765471 
L 290.916187 82.765471 
L 290.951006 82.144993 
L 292.471612 82.144993 
L 292.474162 81.524516 
L 294.030635 81.524516 
L 294.030635 81.214277 
L 294.978152 81.214277 
L 294.979012 80.5938 
L 296.395253 80.5938 
L 296.395253 80.283561 
L 297.918409 80.283561 
L 297.918409 79.973323 
L 298.86814 79.973323 
L 298.933002 79.352845 
L 299.261083 79.352845 
L 299.261083 79.042606 
L 299.555233 79.042606 
L 299.555233 78.732368 
L 299.877327 78.732368 
L 299.877327 78.422129 
L 301.816664 78.422129 
L 301.816664 78.11189 
L 302.033759 78.11189 
L 302.033759 77.801652 
L 302.563144 77.801652 
L 302.563144 77.491413 
L 303.376367 77.491413 
L 303.376367 77.181174 
L 303.687757 77.181174 
L 303.779955 76.560697 
L 303.832177 76.560697 
L 303.832177 76.250458 
L 304.160257 76.250458 
L 304.160257 75.94022 
L 307.462318 75.94022 
L 307.468099 75.319742 
L 308.417278 75.319742 
L 308.417278 75.009503 
L 308.853114 75.009503 
L 308.853114 74.699265 
L 309.72953 74.699265 
L 309.72953 74.389026 
L 309.946625 74.389026 
L 309.946625 74.078787 
L 311.289233 74.078787 
L 311.289233 73.768549 
L 311.600623 73.768549 
L 311.692821 72.837833 
L 315.608502 72.837833 
L 315.608502 72.527594 
L 315.936582 72.527594 
L 315.936582 72.217355 
L 316.270545 72.217355 
L 316.330144 71.596878 
L 316.76598 71.596878 
L 316.76598 71.286639 
L 319.017161 71.286639 
L 319.017161 70.9764 
L 319.238643 70.9764 
L 319.238643 70.666162 
L 320.225394 70.666162 
L 320.225394 70.355923 
L 320.553475 70.355923 
L 320.553475 70.045684 
L 323.855536 70.045684 
L 323.855536 69.735446 
L 326.930027 69.735446 
L 326.930027 69.425207 
L 327.581907 69.425207 
L 327.581907 69.114968 
L 330.610723 69.114968 
L 330.610723 68.80473 
L 332.872155 68.80473 
L 332.872155 68.494491 
L 333.089249 68.494491 
L 333.089249 68.184252 
L 333.46535 68.184252 
L 333.46535 67.874013 
L 334.431858 67.874013 
L 334.431858 67.563775 
L 334.743248 67.563775 
L 334.835445 66.943297 
L 335.494773 66.943297 
L 335.494773 66.633059 
L 335.670758 66.633059 
L 335.670758 66.32282 
L 339.472769 66.32282 
L 339.472769 66.012581 
L 339.908604 66.012581 
L 339.908604 65.702343 
L 340.500623 65.702343 
L 340.500623 65.392104 
L 340.676612 65.392104 
L 340.676612 65.081865 
L 341.490157 65.081865 
L 341.490157 64.771627 
L 342.70603 64.771627 
L 342.70603 64.461388 
L 342.939197 64.461388 
L 342.939197 64.151149 
L 345.575786 64.151149 
L 345.575786 63.84091 
L 346.08335 63.84091 
L 346.08335 63.530672 
L 346.414589 63.530672 
L 346.414589 63.220433 
L 347.822459 63.220433 
L 347.822459 62.910194 
L 348.525429 62.910194 
L 348.589478 62.289717 
L 348.67602 62.289717 
L 348.67602 61.979478 
L 348.893115 61.979478 
L 348.893115 61.66924 
L 349.229849 61.66924 
L 349.229849 61.359001 
L 349.408007 61.359001 
L 349.408007 61.048762 
L 349.925001 61.048762 
L 349.974469 60.428285 
L 350.072652 60.428285 
L 350.083891 59.807807 
L 350.235723 59.807807 
L 350.300985 59.18733 
L 350.547113 59.18733 
L 350.639311 58.566853 
L 351.613415 58.566853 
L 351.643594 57.946375 
L 351.954984 57.946375 
L 352.047181 57.325898 
L 352.571881 57.325898 
L 352.571881 57.015659 
L 352.780772 57.015659 
L 352.780772 56.70542 
L 353.118623 56.70542 
L 353.118623 56.395182 
L 353.251893 56.395182 
L 353.251893 56.084943 
L 353.488652 56.084943 
L 353.488652 55.774704 
L 354.777289 55.774704 
L 354.777289 55.464466 
L 355.042203 55.464466 
L 355.042203 55.154227 
L 355.259298 55.154227 
L 355.276634 54.53375 
L 355.457301 54.53375 
L 355.457301 54.223511 
L 355.71247 54.223511 
L 355.71247 53.913272 
L 356.265121 53.913272 
L 356.265121 53.603034 
L 356.601906 53.603034 
L 356.684505 52.982556 
L 356.913296 52.982556 
L 357.005494 52.05184 
L 357.12034 52.05184 
L 357.12034 51.741601 
L 357.352111 51.741601 
L 357.432814 51.121124 
L 358.637397 51.121124 
L 358.637397 50.810885 
L 358.881854 50.810885 
L 358.881854 50.500647 
L 360.39371 50.500647 
L 360.39371 50.190408 
L 360.596688 50.190408 
L 360.596688 49.880169 
L 360.852797 49.880169 
L 360.852797 49.56993 
L 361.2767 49.56993 
L 361.2767 49.259692 
L 361.642817 49.259692 
L 361.642817 48.949453 
L 361.969004 48.949453 
L 362.078653 47.708498 
L 362.599117 47.708498 
L 362.599117 47.39826 
L 362.716642 47.39826 
L 362.72574 46.777782 
L 363.114228 46.777782 
L 363.114228 46.467544 
L 363.331323 46.467544 
L 363.331323 46.157305 
L 364.673931 46.157305 
L 364.673931 45.847066 
L 364.978073 45.847066 
L 365.077519 44.91635 
L 365.172505 44.91635 
L 365.280902 43.365157 
L 365.867658 43.365157 
L 365.876518 42.43444 
L 366.537776 42.43444 
L 366.537776 42.124202 
L 366.849166 42.124202 
L 366.941364 41.503724 
L 367.284388 41.503724 
L 367.284388 41.193486 
L 367.542334 41.193486 
L 367.542334 40.883247 
L 367.759428 40.883247 
L 367.759428 40.573008 
L 368.33638 40.573008 
L 368.418516 39.952531 
L 369.016392 39.952531 
L 369.102037 39.021815 
L 369.413426 39.021815 
L 369.505624 38.401337 
L 369.711544 38.401337 
L 369.714842 37.78086 
L 369.867556 37.78086 
L 369.88187 37.160383 
L 370.150678 37.160383 
L 370.150678 36.850144 
L 371.578687 36.850144 
L 371.578687 36.539905 
L 371.732102 36.539905 
L 371.732102 36.229667 
L 372.014523 36.229667 
L 372.014523 35.919428 
L 372.242701 35.919428 
L 372.242701 35.609189 
L 372.912812 35.609189 
L 373.01171 34.988712 
L 374.142947 34.988712 
L 374.142947 34.678473 
L 374.441263 34.678473 
L 374.441263 34.368234 
L 374.578783 34.368234 
L 374.578783 34.057996 
L 375.174244 34.057996 
L 375.174244 33.747757 
L 375.391338 33.747757 
L 375.391338 33.437518 
L 375.849133 33.437518 
L 375.849133 33.12728 
L 376.158208 33.12728 
L 376.158208 32.817041 
L 376.631277 32.817041 
L 376.733947 32.196564 
L 376.85336 32.196564 
L 376.85336 31.886325 
L 377.045337 31.886325 
L 377.137534 31.265847 
L 380.314726 31.265847 
L 380.314726 30.955609 
L 380.807446 30.955609 
L 380.807446 30.64537 
L 381.774858 30.64537 
L 381.774858 30.335131 
L 382.178571 30.335131 
L 382.210693 29.714654 
L 384.742831 29.714654 
L 384.742831 29.404415 
L 387.535968 29.404415 
L 387.535968 29.094177 
L 388.407602 29.094177 
L 388.407602 28.783938 
L 388.879471 28.783938 
L 388.943838 28.163461 
L 390.743316 28.163461 
L 390.743316 27.853222 
L 392.374741 27.853222 
L 392.435143 27.232744 
L 393.024495 27.232744 
L 393.024495 26.922506 
L 393.307576 26.922506 
L 393.307576 26.612267 
L 393.843013 26.612267 
L 393.902151 25.99179 
L 398.801326 25.99179 
L 398.801326 25.681551 
L 400.939486 25.681551 
L 400.939486 25.371312 
L 401.974176 25.371312 
L 401.974176 25.061074 
L 403.838021 25.061074 
L 403.838021 24.750835 
L 404.211468 24.750835 
L 404.211468 24.440596 
L 405.619338 24.440596 
L 405.619338 24.130358 
L 406.402281 24.130358 
L 406.402281 23.820119 
L 406.873351 23.820119 
L 406.873351 23.50988 
L 408.737196 23.50988 
L 408.82836 22.889403 
L 410.236231 22.889403 
L 410.236231 22.579164 
L 410.57765 22.579164 
L 410.57765 22.268925 
L 411.301456 22.268925 
L 411.301456 21.958687 
L 414.034191 21.958687 
L 414.034191 21.648448 
L 415.194543 21.648448 
L 415.194543 21.338209 
L 418.649676 21.338209 
L 418.649676 21.027971 
L 418.933366 21.027971 
L 418.933366 20.717732 
L 420.513521 20.717732 
L 420.513521 20.407493 
L 423.077781 20.407493 
L 423.077781 20.097254 
L 423.266568 20.097254 
L 423.266568 19.787016 
L 425.130413 19.787016 
L 425.130413 19.476777 
L 427.694674 19.476777 
L 427.694674 19.166538 
L 430.709691 19.166538 
L 430.709691 18.8563 
L 435.326584 18.8563 
L 435.326584 18.546061 
L 453.192 18.546061 
L 453.192 18.546061 
" clip-path="url(#p0ab9bcb4ba)" style="fill: none; stroke: #000000; stroke-width: 3; stroke-linecap: square"/>
   </g>
   <g id="line2d_54">
    <path clip-path="url(#p0ab9bcb4ba)" style="fill: none; stroke: #000000; stroke-width: 3; stroke-linecap: square"/>
   </g>
   <g id="line2d_55">
    <path d="M 34.16 273.513067 
L 78.018255 273.513067 
L 78.018255 273.098049 
L 105.355394 273.098049 
L 105.355394 272.683031 
L 111.014442 272.683031 
L 111.014442 272.268012 
L 115.543602 272.268012 
L 115.543602 271.852994 
L 131.715711 271.852994 
L 131.715711 271.437976 
L 132.10371 271.437976 
L 132.10371 271.022958 
L 132.755322 271.022958 
L 132.755322 270.607939 
L 133.484983 270.607939 
L 133.484983 270.192921 
L 133.800714 270.192921 
L 133.800714 269.777903 
L 166.078949 269.777903 
L 166.078949 269.362884 
L 167.571525 269.362884 
L 167.571525 268.947866 
L 168.853946 268.947866 
L 168.853946 268.532848 
L 171.269321 268.532848 
L 171.269321 268.11783 
L 171.971421 268.11783 
L 171.974045 267.287793 
L 197.076022 267.287793 
L 197.076022 266.872775 
L 197.373902 266.872775 
L 197.373902 266.457756 
L 197.614924 266.457756 
L 197.614924 266.042738 
L 197.75489 266.042738 
L 197.75489 265.62772 
L 199.311184 265.62772 
L 199.311184 265.212702 
L 204.579291 265.212702 
L 204.579291 264.797683 
L 204.970232 264.797683 
L 204.970232 264.382665 
L 206.973931 264.382665 
L 206.973931 263.967647 
L 207.360111 263.967647 
L 207.360111 263.552628 
L 207.657991 263.552628 
L 207.657991 263.13761 
L 207.899013 263.13761 
L 207.899013 262.722592 
L 208.038979 262.722592 
L 208.038979 262.307574 
L 208.182412 262.307574 
L 208.182412 261.892555 
L 208.775095 261.892555 
L 208.775095 261.477537 
L 209.04641 261.477537 
L 209.04641 261.062519 
L 209.314683 261.062519 
L 209.314683 260.647501 
L 209.499392 260.647501 
L 209.589928 259.817464 
L 210.207778 259.817464 
L 210.207778 259.402446 
L 210.800461 259.402446 
L 210.878697 258.572409 
L 211.340048 258.572409 
L 211.340048 258.157391 
L 221.162786 258.157391 
L 221.162786 257.742373 
L 223.000043 257.742373 
L 223.000043 257.327354 
L 223.297923 257.327354 
L 223.297923 256.912336 
L 223.538945 256.912336 
L 223.538945 256.497318 
L 223.678911 256.497318 
L 223.678911 256.082299 
L 224.661878 256.082299 
L 224.661878 255.667281 
L 224.959758 255.667281 
L 224.959758 255.252263 
L 225.101448 255.252263 
L 225.20078 254.422226 
L 225.340746 254.422226 
L 225.340746 254.007208 
L 225.671501 254.007208 
L 225.671501 253.59219 
L 226.0595 253.59219 
L 226.0595 253.177171 
L 226.711113 253.177171 
L 226.711113 252.762153 
L 227.288859 252.762153 
L 227.288859 252.347135 
L 227.440773 252.347135 
L 227.440773 251.932117 
L 227.587956 251.932117 
L 227.587956 251.517098 
L 227.756504 251.517098 
L 227.756504 251.10208 
L 228.01695 251.10208 
L 228.01695 250.687062 
L 228.281761 250.687062 
L 228.281761 250.272043 
L 228.481264 250.272043 
L 228.481264 249.857025 
L 229.223095 249.857025 
L 229.302837 248.61197 
L 229.613322 248.61197 
L 229.671818 247.781934 
L 230.042316 247.781934 
L 230.146242 246.536879 
L 230.307126 246.536879 
L 230.307126 246.121861 
L 230.792871 246.121861 
L 230.792871 245.706842 
L 231.24846 245.706842 
L 231.342331 244.461787 
L 231.50668 244.461787 
L 231.50668 244.046769 
L 231.697184 244.046769 
L 231.697184 243.631751 
L 231.842981 243.631751 
L 231.935014 242.386696 
L 232.144657 242.386696 
L 232.171608 241.141641 
L 232.382569 241.141641 
L 232.474602 240.311605 
L 232.818237 240.311605 
L 232.818237 239.896586 
L 234.036167 239.896586 
L 234.047703 239.06655 
L 234.256924 239.06655 
L 234.31107 238.236513 
L 234.565046 238.236513 
L 234.640386 236.57644 
L 234.849606 236.57644 
L 234.849606 236.161422 
L 235.049793 236.161422 
L 235.157728 235.331385 
L 235.168437 235.331385 
L 235.204921 234.08633 
L 235.389194 234.08633 
L 235.389194 233.671312 
L 235.642476 233.671312 
L 235.744509 232.011239 
L 236.182064 232.011239 
L 236.182064 231.596221 
L 236.383549 231.596221 
L 236.383549 231.181202 
L 236.625359 231.181202 
L 236.625359 230.766184 
L 236.802719 230.766184 
L 236.802719 230.351166 
L 236.927067 230.351166 
L 236.927067 229.936148 
L 237.097683 229.936148 
L 237.097683 229.521129 
L 237.218042 229.521129 
L 237.218042 229.106111 
L 237.572948 229.106111 
L 237.575478 228.276074 
L 237.75763 228.276074 
L 237.75763 227.861056 
L 238.021873 227.861056 
L 238.021873 227.446038 
L 238.464554 227.446038 
L 238.464554 227.03102 
L 239.970118 227.03102 
L 240.047239 226.200983 
L 242.042597 226.200983 
L 242.104638 225.370946 
L 242.443173 225.370946 
L 242.443173 224.955928 
L 242.586115 224.955928 
L 242.586115 224.54091 
L 244.499278 224.54091 
L 244.499278 224.125892 
L 246.571756 224.125892 
L 246.571756 223.710873 
L 247.115275 223.710873 
L 247.115275 223.295855 
L 247.381772 223.295855 
L 247.381772 222.880837 
L 249.435782 222.880837 
L 249.435782 222.465818 
L 249.681971 222.465818 
L 249.681971 222.0508 
L 249.86393 222.0508 
L 249.86393 221.635782 
L 250.655843 221.635782 
L 250.747875 220.805745 
L 251.084836 220.805745 
L 251.176869 219.975709 
L 251.349647 219.975709 
L 251.441679 219.145672 
L 252.290981 219.145672 
L 252.383013 218.315636 
L 252.438587 218.315636 
L 252.438587 217.900617 
L 252.739705 217.900617 
L 252.831737 217.070581 
L 253.187177 217.070581 
L 253.27921 215.410508 
L 253.306161 215.410508 
L 253.306161 214.995489 
L 253.441711 214.995489 
L 253.453247 214.165453 
L 253.662468 214.165453 
L 253.662468 213.750434 
L 253.860758 213.750434 
L 253.97059 211.675343 
L 254.017783 211.675343 
L 254.091462 210.845306 
L 254.135515 210.845306 
L 254.147051 210.01527 
L 254.356272 210.01527 
L 254.455338 208.355197 
L 254.664394 208.355197 
L 254.711587 207.110142 
L 254.874715 207.110142 
L 254.884331 206.280105 
L 255.076849 206.280105 
L 255.149142 205.035051 
L 255.297606 205.035051 
L 255.323673 204.205014 
L 255.525573 204.205014 
L 255.605728 202.959959 
L 255.652921 202.959959 
L 255.74633 202.129923 
L 255.818404 202.129923 
L 255.818404 201.714904 
L 255.973045 201.714904 
L 256.054452 198.809776 
L 256.090476 198.809776 
L 256.193803 197.564721 
L 256.220754 197.564721 
L 256.28213 196.734685 
L 256.459897 196.734685 
L 256.549117 194.244575 
L 256.572849 194.244575 
L 256.663118 191.754465 
L 256.724707 191.754465 
L 256.724707 191.339447 
L 256.867383 191.339447 
L 256.867383 190.924429 
L 256.986672 190.924429 
L 257.013623 190.094392 
L 257.175505 190.094392 
L 257.252741 188.434319 
L 257.496777 188.434319 
L 257.55062 187.604283 
L 257.660253 187.604283 
L 257.737799 186.359228 
L 257.791642 186.359228 
L 257.877766 185.529191 
L 257.931608 185.529191 
L 257.931608 185.114173 
L 258.083105 185.114173 
L 258.114765 183.869118 
L 258.276747 183.869118 
L 258.276747 183.4541 
L 258.562238 183.4541 
L 258.664745 182.209045 
L 258.843819 182.209045 
L 258.843819 181.794027 
L 259.235818 181.794027 
L 259.316358 180.96399 
L 259.541856 180.96399 
L 259.541856 180.548972 
L 259.719871 180.548972 
L 259.74494 179.718935 
L 259.839735 179.718935 
L 259.839735 179.303917 
L 259.96606 179.303917 
L 260.046018 178.058862 
L 260.080757 178.058862 
L 260.080757 177.643844 
L 260.220723 177.643844 
L 260.32654 176.813807 
L 260.360305 176.813807 
L 260.386929 175.568752 
L 260.62442 175.568752 
L 260.684808 173.908679 
L 260.865442 173.908679 
L 260.92583 172.663624 
L 261.005408 172.663624 
L 261.089759 170.588533 
L 261.175608 170.588533 
L 261.181792 169.758496 
L 261.477452 169.758496 
L 261.527315 168.513442 
L 261.710998 168.513442 
L 261.808128 166.853368 
L 262.04818 166.853368 
L 262.049149 166.023332 
L 262.189116 166.023332 
L 262.299024 164.363259 
L 262.307878 164.363259 
L 262.307878 163.94824 
L 262.429168 163.94824 
L 262.440659 163.118204 
L 262.626795 163.118204 
L 262.626795 162.703186 
L 262.743866 162.703186 
L 262.809736 161.458131 
L 263.021704 161.458131 
L 263.131864 160.213076 
L 263.192753 160.213076 
L 263.287384 159.383039 
L 263.490633 159.383039 
L 263.490633 158.968021 
L 263.675383 158.968021 
L 263.783477 157.722966 
L 263.871621 157.722966 
L 263.887164 156.477911 
L 264.096385 156.477911 
L 264.096385 156.062893 
L 264.326995 156.062893 
L 264.404506 155.232857 
L 264.451699 155.232857 
L 264.513137 153.987802 
L 264.683539 153.987802 
L 264.692878 153.157765 
L 264.828868 153.157765 
L 264.889254 152.327729 
L 264.973923 152.327729 
L 265.056655 151.082674 
L 265.225111 151.082674 
L 265.23178 150.252637 
L 265.371746 150.252637 
L 265.372387 149.422601 
L 265.607762 149.422601 
L 265.607762 149.007582 
L 265.927211 149.007582 
L 266.006611 148.177546 
L 266.46482 148.177546 
L 266.46482 147.762527 
L 266.761057 147.762527 
L 266.828184 146.932491 
L 268.714328 146.932491 
L 268.714328 146.517473 
L 269.032027 146.517473 
L 269.032027 146.102454 
L 269.786926 146.102454 
L 269.786926 145.687436 
L 271.001573 145.687436 
L 271.055416 144.857399 
L 271.765796 144.857399 
L 271.765796 144.442381 
L 273.243488 144.442381 
L 273.344531 143.612345 
L 274.129215 143.612345 
L 274.189604 142.36729 
L 275.312923 142.36729 
L 275.359804 141.537253 
L 275.552976 141.537253 
L 275.605992 140.707217 
L 276.995428 140.707217 
L 277.021638 139.87718 
L 277.267827 139.87718 
L 277.267827 139.462162 
L 278.495553 139.462162 
L 278.495553 139.047143 
L 278.798904 139.047143 
L 278.798904 138.632125 
L 279.186903 138.632125 
L 279.186903 138.217107 
L 279.838515 138.217107 
L 279.838515 137.802089 
L 280.568175 137.802089 
L 280.613855 136.557034 
L 280.883906 136.557034 
L 280.883906 136.142015 
L 281.010146 136.142015 
L 281.010146 135.726997 
L 281.247694 135.726997 
L 281.274956 134.896961 
L 282.049885 134.896961 
L 282.049885 134.481942 
L 282.178721 134.481942 
L 282.27569 133.236888 
L 282.566719 133.236888 
L 282.665014 132.406851 
L 282.909529 132.406851 
L 283.000293 131.161796 
L 283.112487 131.161796 
L 283.218332 129.916741 
L 283.321165 129.916741 
L 283.388292 129.086705 
L 283.786067 129.086705 
L 283.786067 128.671686 
L 283.947992 128.671686 
L 284.039904 127.426632 
L 284.263723 127.426632 
L 284.263723 127.011613 
L 284.702438 127.011613 
L 284.769565 126.181577 
L 285.018169 126.181577 
L 285.085296 125.35154 
L 285.204136 125.35154 
L 285.204136 124.936522 
L 285.592134 124.936522 
L 285.592134 124.521504 
L 286.197087 124.521504 
L 286.243747 123.691467 
L 286.973407 123.691467 
L 286.973407 123.276449 
L 287.289138 123.276449 
L 287.289138 122.86143 
L 287.411734 122.86143 
L 287.465577 122.031394 
L 289.415597 122.031394 
L 289.415597 121.616376 
L 289.754692 121.616376 
L 289.803595 120.786339 
L 290.455208 120.786339 
L 290.539377 119.956302 
L 290.573142 119.956302 
L 290.599765 119.126266 
L 291.015069 119.126266 
L 291.067313 118.296229 
L 291.184868 118.296229 
L 291.184868 117.881211 
L 291.500599 117.881211 
L 291.500599 117.466193 
L 291.723084 117.466193 
L 291.723084 117.051174 
L 291.963137 117.051174 
L 291.963137 116.636156 
L 292.28196 116.636156 
L 292.335802 115.80612 
L 292.639984 115.80612 
L 292.639984 115.391101 
L 293.40559 115.391101 
L 293.40559 114.976083 
L 294.132561 114.976083 
L 294.132561 114.561065 
L 294.624917 114.561065 
L 294.624917 114.146046 
L 294.905715 114.146046 
L 294.905715 113.731028 
L 295.034625 113.731028 
L 295.034625 113.31601 
L 295.409602 113.31601 
L 295.469991 111.655937 
L 296.005911 111.655937 
L 296.005911 111.240918 
L 296.527201 111.240918 
L 296.59331 110.410882 
L 296.833362 110.410882 
L 296.833362 109.995864 
L 297.107103 109.995864 
L 297.107103 109.580845 
L 297.220558 109.580845 
L 297.274401 108.750809 
L 297.650622 108.750809 
L 297.689818 107.920772 
L 297.809622 107.920772 
L 297.830357 107.090736 
L 298.275815 107.090736 
L 298.275815 106.675717 
L 298.532457 106.675717 
L 298.59968 105.845681 
L 299.143198 105.845681 
L 299.143198 105.430663 
L 299.351652 105.430663 
L 299.351652 105.015644 
L 299.563516 105.015644 
L 299.563516 104.600626 
L 299.77594 104.600626 
L 299.8821 103.770589 
L 300.224997 103.770589 
L 300.224997 103.355571 
L 300.348201 103.355571 
L 300.425618 101.695498 
L 300.927097 101.695498 
L 300.927097 101.28048 
L 301.531908 101.28048 
L 301.531908 100.865461 
L 301.771961 100.865461 
L 301.771961 100.450443 
L 302.297476 100.450443 
L 302.297476 100.035425 
L 302.840994 100.035425 
L 302.840994 99.620407 
L 302.999575 99.620407 
L 302.999575 99.205388 
L 303.214413 99.205388 
L 303.214413 98.79037 
L 303.543094 98.79037 
L 303.543094 98.375352 
L 304.714539 98.375352 
L 304.714539 97.960333 
L 308.344011 97.960333 
L 308.344011 97.545315 
L 308.5902 97.545315 
L 308.5902 97.130297 
L 309.558658 97.130297 
L 309.612501 96.30026 
L 309.804847 96.30026 
L 309.85869 95.470224 
L 311.901616 95.470224 
L 311.901616 95.055205 
L 312.147805 95.055205 
L 312.147805 94.640187 
L 312.6863 94.640187 
L 312.746689 93.395132 
L 312.932489 93.395132 
L 312.992878 92.150077 
L 313.162142 92.150077 
L 313.162142 91.735059 
L 313.598063 91.735059 
L 313.598063 91.320041 
L 313.870008 91.320041 
L 313.870008 90.905023 
L 314.11006 90.905023 
L 314.116197 90.074986 
L 314.231902 90.074986 
L 314.231902 89.659968 
L 314.356249 89.659968 
L 314.356249 89.244949 
L 314.654718 89.244949 
L 314.654718 88.829931 
L 314.81271 88.829931 
L 314.866553 87.999895 
L 315.446549 87.999895 
L 315.552513 86.75484 
L 315.798702 86.75484 
L 315.798702 86.339821 
L 315.937138 86.339821 
L 315.937138 85.924803 
L 316.541958 85.924803 
L 316.541958 85.509785 
L 317.052638 85.509785 
L 317.155668 84.679748 
L 317.296404 84.679748 
L 317.363531 83.434694 
L 317.789507 83.434694 
L 317.789507 83.019675 
L 317.940352 83.019675 
L 318.034535 81.359602 
L 318.352514 81.359602 
L 318.352514 80.944584 
L 318.574191 80.944584 
L 318.63458 79.699529 
L 318.788981 79.699529 
L 318.856107 78.869492 
L 319.054614 78.869492 
L 319.12406 78.039456 
L 319.316955 78.039456 
L 319.364112 77.209419 
L 319.567373 77.209419 
L 319.567373 76.794401 
L 319.757899 76.794401 
L 319.757899 76.379383 
L 319.997951 76.379383 
L 320.071401 75.549346 
L 320.138528 75.549346 
L 320.138528 75.134328 
L 320.806565 75.134328 
L 320.806565 74.71931 
L 321.05995 74.71931 
L 321.05995 74.304291 
L 321.440404 74.304291 
L 321.440404 73.889273 
L 321.73233 73.889273 
L 321.73233 73.474255 
L 322.30669 73.474255 
L 322.34237 72.644218 
L 322.43443 72.644218 
L 322.486776 71.814182 
L 322.553903 71.814182 
L 322.553903 71.399163 
L 322.940529 71.399163 
L 322.940529 70.984145 
L 323.188876 70.984145 
L 323.256003 70.154108 
L 323.778834 70.154108 
L 323.778834 69.73909 
L 324.757746 69.73909 
L 324.757746 69.324072 
L 325.271411 69.324072 
L 325.271411 68.909054 
L 325.459846 68.909054 
L 325.459846 68.494035 
L 326.553831 68.494035 
L 326.553831 68.079017 
L 328.969207 68.079017 
L 328.969207 67.663999 
L 329.671307 67.663999 
L 329.671307 67.24898 
L 330.674025 67.24898 
L 330.674025 66.833962 
L 331.888672 66.833962 
L 331.942515 66.003926 
L 334.23163 66.003926 
L 334.23163 65.588907 
L 335.016314 65.588907 
L 335.076703 64.343852 
L 336.200022 64.343852 
L 336.200022 63.928834 
L 336.440074 63.928834 
L 336.440074 63.513816 
L 337.882527 63.513816 
L 337.882527 63.098798 
L 339.382652 63.098798 
L 339.382652 62.683779 
L 343.81972 62.683779 
L 343.81972 62.268761 
L 376.424966 62.268761 
L 376.424966 61.853743 
L 378.819606 61.853743 
L 378.819606 61.438724 
L 380.892085 61.438724 
L 380.892085 61.023706 
L 381.435603 61.023706 
L 381.435603 60.608688 
L 396.947123 60.608688 
L 396.947123 60.19367 
L 400.326939 60.19367 
L 400.326939 59.778651 
L 401.081385 59.778651 
L 401.148512 58.948615 
L 403.352355 58.948615 
L 403.352355 58.533596 
L 407.563816 58.533596 
L 407.563816 58.118578 
L 453.192 58.118578 
L 453.192 58.118578 
" clip-path="url(#p0ab9bcb4ba)" style="fill: none; stroke: #00bfbf; stroke-width: 3; stroke-linecap: square"/>
   </g>
   <g id="line2d_56">
    <path clip-path="url(#p0ab9bcb4ba)" style="fill: none; stroke: #00bfbf; stroke-width: 3; stroke-linecap: square"/>
   </g>
   <g id="line2d_57">
    <path d="M 34.16 258.172213 
L 143.422778 258.172213 
L 143.422778 257.751636 
L 152.00867 257.751636 
L 152.00867 257.33106 
L 156.447622 257.33106 
L 156.447622 256.910483 
L 169.05404 256.910483 
L 169.05404 256.489907 
L 170.024693 256.489907 
L 170.024693 256.06933 
L 171.141779 256.06933 
L 171.155196 255.228177 
L 171.332295 255.228177 
L 171.332295 254.8076 
L 172.005383 254.8076 
L 172.005383 254.387024 
L 198.818382 254.387024 
L 198.818382 253.966447 
L 199.997884 253.966447 
L 199.997884 253.545871 
L 202.398609 253.545871 
L 202.398609 253.125294 
L 202.770862 253.125294 
L 202.80033 252.284141 
L 203.313428 252.284141 
L 203.313428 251.863564 
L 205.271046 251.863564 
L 205.271046 251.442988 
L 205.422383 251.442988 
L 205.422383 251.022411 
L 207.723928 251.022411 
L 207.723928 250.601835 
L 208.193091 250.601835 
L 208.193091 250.181258 
L 211.386221 250.181258 
L 211.386221 249.760682 
L 211.640404 249.760682 
L 211.640404 249.340105 
L 212.316888 249.340105 
L 212.316888 248.919528 
L 212.819905 248.919528 
L 212.819905 248.498952 
L 215.22063 248.498952 
L 215.22063 248.078375 
L 215.825173 248.078375 
L 215.825173 247.657799 
L 216.135449 247.657799 
L 216.135449 247.237222 
L 225.13891 247.237222 
L 225.13891 246.816646 
L 225.77339 246.816646 
L 225.77339 246.396069 
L 226.898307 246.396069 
L 226.952891 245.554916 
L 227.788026 245.554916 
L 227.788026 245.134339 
L 228.077808 245.134339 
L 228.077808 244.713763 
L 228.431591 244.713763 
L 228.431591 244.293186 
L 229.353616 244.293186 
L 229.402244 243.452033 
L 230.268435 243.452033 
L 230.268435 243.031457 
L 230.478533 243.031457 
L 230.532748 241.769727 
L 230.62916 241.769727 
L 230.709846 240.928574 
L 230.829834 240.928574 
L 230.879947 240.087421 
L 231.382934 240.087421 
L 231.393352 239.246268 
L 231.759002 239.246268 
L 231.809116 238.405114 
L 231.98862 238.405114 
L 231.98862 237.984538 
L 232.556319 237.984538 
L 232.606432 237.143385 
L 233.005337 237.143385 
L 233.005337 236.722808 
L 233.197516 236.722808 
L 233.25709 235.881655 
L 233.436539 235.881655 
L 233.436539 235.461078 
L 233.932622 235.461078 
L 233.934505 234.619925 
L 234.126685 234.619925 
L 234.186258 233.778772 
L 234.297549 233.778772 
L 234.365707 232.937619 
L 234.687082 232.937619 
L 234.731822 232.096466 
L 234.86179 232.096466 
L 234.924002 231.255313 
L 234.983575 231.255313 
L 234.983575 230.834736 
L 235.163024 230.834736 
L 235.226717 229.993583 
L 235.563626 229.993583 
L 235.659107 229.15243 
L 235.95939 229.15243 
L 236.024034 228.311277 
L 236.191469 228.311277 
L 236.191469 227.8907 
L 236.492794 227.8907 
L 236.492794 227.470124 
L 236.726041 227.470124 
L 236.726041 227.049547 
L 237.290111 227.049547 
L 237.290111 226.628971 
L 239.215051 226.628971 
L 239.271896 225.787817 
L 240.396812 225.787817 
L 240.396812 225.367241 
L 240.610048 225.367241 
L 240.610048 224.946664 
L 243.272973 224.946664 
L 243.272973 224.526088 
L 243.654003 224.526088 
L 243.654003 224.105511 
L 244.545281 224.105511 
L 244.545281 223.684935 
L 244.777361 223.684935 
L 244.810641 222.843782 
L 247.711925 222.843782 
L 247.711925 222.423205 
L 248.331266 222.423205 
L 248.349791 221.582052 
L 248.984234 221.582052 
L 248.984234 221.161475 
L 249.216313 221.161475 
L 249.216313 220.740899 
L 249.548063 220.740899 
L 249.548063 220.320322 
L 250.362913 220.320322 
L 250.413026 219.479169 
L 250.788658 219.479169 
L 250.838771 218.638016 
L 250.945938 218.638016 
L 251.018862 217.796863 
L 251.068975 217.796863 
L 251.068975 217.376286 
L 251.872981 217.376286 
L 251.923094 216.535133 
L 252.108931 216.535133 
L 252.159044 215.69398 
L 252.324833 215.69398 
L 252.374946 214.852827 
L 252.538416 214.852827 
L 252.633732 213.591097 
L 252.730595 213.591097 
L 252.790169 212.749944 
L 252.919366 212.749944 
L 252.969618 211.488214 
L 253.135798 211.488214 
L 253.215913 209.805908 
L 253.271721 209.805908 
L 253.321834 208.964755 
L 253.386544 208.964755 
L 253.465701 207.282449 
L 253.625567 207.282449 
L 253.625567 206.861872 
L 253.830628 206.861872 
L 253.891446 206.020719 
L 254.048484 206.020719 
L 254.12165 205.179566 
L 254.240663 205.179566 
L 254.300237 203.076683 
L 254.476613 203.076683 
L 254.536186 200.9738 
L 254.692515 200.9738 
L 254.759121 198.029764 
L 254.931538 198.029764 
L 255.010874 196.347458 
L 255.096705 196.347458 
L 255.190323 195.506305 
L 255.211719 195.506305 
L 255.211719 195.085728 
L 255.340696 195.085728 
L 255.447224 193.823999 
L 255.522449 193.823999 
L 255.576645 192.982845 
L 255.639403 192.982845 
L 255.698977 191.721116 
L 255.752654 191.721116 
L 255.792548 190.879963 
L 255.86795 190.879963 
L 255.878426 190.03881 
L 256.051333 190.03881 
L 256.051333 189.618233 
L 256.260421 189.618233 
L 256.260421 189.197656 
L 256.374509 189.197656 
L 256.374509 188.77708 
L 256.606773 188.77708 
L 256.606773 188.356503 
L 256.739436 188.356503 
L 256.842722 187.094774 
L 257.058625 187.094774 
L 257.141229 186.25362 
L 257.231074 186.25362 
L 257.31741 185.412467 
L 257.625173 185.412467 
L 257.625173 184.991891 
L 258.005512 184.991891 
L 258.005512 184.571314 
L 258.320731 184.571314 
L 258.361578 183.309585 
L 258.538677 183.309585 
L 258.538677 182.889008 
L 258.804674 182.889008 
L 258.817401 182.047855 
L 258.943627 182.047855 
L 258.943627 181.627278 
L 259.211764 181.627278 
L 259.211764 181.206702 
L 259.531829 181.206702 
L 259.531829 180.786125 
L 259.996902 180.786125 
L 260.068544 179.103819 
L 260.318343 179.103819 
L 260.321455 178.262666 
L 260.512125 178.262666 
L 260.512125 177.842089 
L 260.721456 177.842089 
L 260.826636 176.580359 
L 261.099284 176.580359 
L 261.205399 174.477477 
L 261.288996 174.477477 
L 261.288996 174.0569 
L 261.500956 174.0569 
L 261.590652 173.215747 
L 261.636274 173.215747 
L 261.691626 172.374594 
L 261.75813 172.374594 
L 261.822731 171.533441 
L 261.980241 171.533441 
L 262.028452 170.692288 
L 262.120218 170.692288 
L 262.181358 169.009981 
L 262.317389 169.009981 
L 262.4195 166.907099 
L 262.433111 166.907099 
L 262.433111 166.486522 
L 262.561304 166.486522 
L 262.61256 165.224792 
L 262.793384 165.224792 
L 262.88273 163.963063 
L 262.937632 163.963063 
L 262.937632 163.542486 
L 263.108643 163.542486 
L 263.108643 163.121909 
L 263.269686 163.121909 
L 263.312446 161.019027 
L 263.47357 161.019027 
L 263.47357 160.59845 
L 263.67839 160.59845 
L 263.691808 159.33672 
L 263.805262 159.33672 
L 263.91047 157.654414 
L 263.923887 157.654414 
L 263.970782 156.813261 
L 264.092351 156.813261 
L 264.100986 155.972108 
L 264.380967 155.972108 
L 264.380967 155.551531 
L 264.541995 155.551531 
L 264.648598 154.710378 
L 264.718114 154.710378 
L 264.8165 152.186919 
L 264.984763 152.186919 
L 265.00717 151.345766 
L 265.15341 151.345766 
L 265.15341 150.925189 
L 265.295785 150.925189 
L 265.396323 149.663459 
L 265.632933 149.663459 
L 265.741388 148.40173 
L 265.95782 148.40173 
L 265.95782 147.981153 
L 266.253176 147.981153 
L 266.332912 147.14 
L 266.619003 147.14 
L 266.619003 146.719423 
L 267.10148 146.719423 
L 267.10148 146.298847 
L 267.321682 146.298847 
L 267.385488 145.457694 
L 267.570642 145.457694 
L 267.570642 145.037117 
L 267.741766 145.037117 
L 267.747285 144.195964 
L 268.300307 144.195964 
L 268.300307 143.775387 
L 268.733637 143.775387 
L 268.733637 143.354811 
L 269.412527 143.354811 
L 269.412527 142.934234 
L 269.648455 142.934234 
L 269.648455 142.513658 
L 269.835275 142.513658 
L 269.835275 142.093081 
L 270.639735 142.093081 
L 270.639735 141.672505 
L 271.123679 141.672505 
L 271.123679 141.251928 
L 272.315906 141.251928 
L 272.315906 140.831352 
L 273.81996 140.831352 
L 273.851479 139.990198 
L 274.01063 139.990198 
L 274.01063 139.569622 
L 274.299246 139.569622 
L 274.299246 139.149045 
L 274.636393 139.149045 
L 274.636393 138.728469 
L 275.256636 138.728469 
L 275.304799 137.466739 
L 275.622464 137.466739 
L 275.622464 137.046162 
L 276.411191 137.046162 
L 276.429715 136.205009 
L 276.5772 136.205009 
L 276.5772 135.784433 
L 277.303768 135.784433 
L 277.303768 135.363856 
L 277.547852 135.363856 
L 277.547852 134.94328 
L 278.651916 134.94328 
L 278.678356 133.68155 
L 278.855455 133.68155 
L 278.855455 133.260973 
L 279.528543 133.260973 
L 279.528543 132.840397 
L 279.874374 132.840397 
L 279.9281 131.999244 
L 280.090806 131.999244 
L 280.090806 131.578667 
L 280.348184 131.578667 
L 280.353703 130.737514 
L 280.632363 130.737514 
L 280.632363 130.316937 
L 280.898753 130.316937 
L 280.99929 129.475784 
L 281.058108 129.475784 
L 281.058108 129.055208 
L 281.215723 129.055208 
L 281.324356 127.372901 
L 282.015839 127.372901 
L 282.029256 126.531748 
L 282.142431 126.531748 
L 282.206355 125.690595 
L 282.378381 125.690595 
L 282.45486 123.167136 
L 282.594283 123.167136 
L 282.631958 121.905406 
L 282.853069 121.905406 
L 282.879443 121.064253 
L 283.299527 121.064253 
L 283.305046 120.2231 
L 283.412346 120.2231 
L 283.412346 119.802523 
L 283.541171 119.802523 
L 283.541171 119.381947 
L 284.529432 119.381947 
L 284.542849 118.540794 
L 284.719948 118.540794 
L 284.719948 118.120217 
L 285.393036 118.120217 
L 285.393036 117.699641 
L 286.110873 117.699641 
L 286.110873 117.279064 
L 286.457897 117.279064 
L 286.457897 116.858487 
L 286.594816 116.858487 
L 286.594816 116.437911 
L 287.42855 116.437911 
L 287.42855 116.017334 
L 287.787044 116.017334 
L 287.787044 115.596758 
L 288.545636 115.596758 
L 288.559054 114.755605 
L 288.736153 114.755605 
L 288.736153 114.335028 
L 289.291098 114.335028 
L 289.291098 113.914451 
L 289.40924 113.914451 
L 289.481768 113.073298 
L 289.770384 113.073298 
L 289.770384 112.652722 
L 289.977243 112.652722 
L 289.977243 112.232145 
L 290.107531 112.232145 
L 290.107531 111.811569 
L 290.275305 111.811569 
L 290.311466 110.970415 
L 290.727774 110.970415 
L 290.79541 110.129262 
L 291.093601 110.129262 
L 291.093601 109.708686 
L 291.987638 109.708686 
L 291.987638 109.288109 
L 292.477428 109.288109 
L 292.477428 108.867533 
L 292.628764 108.867533 
L 292.628764 108.446956 
L 292.774905 108.446956 
L 292.774905 108.02638 
L 293.491692 108.02638 
L 293.491692 107.605803 
L 293.682362 107.605803 
L 293.682362 107.185226 
L 293.970977 107.185226 
L 294.035165 106.344073 
L 294.123054 106.344073 
L 294.123054 105.923497 
L 294.308125 105.923497 
L 294.308125 105.50292 
L 294.928368 105.50292 
L 294.93031 104.661767 
L 295.048888 104.661767 
L 295.048888 104.24119 
L 295.294195 104.24119 
L 295.399472 102.979461 
L 295.532831 102.979461 
L 295.539553 102.138308 
L 296.53535 102.138308 
L 296.53535 101.717731 
L 296.686686 101.717731 
L 296.725059 100.876578 
L 296.975499 100.876578 
L 296.975499 100.456001 
L 297.807658 100.456001 
L 297.807658 100.035425 
L 297.958994 100.035425 
L 298.039737 99.194272 
L 298.191074 99.194272 
L 298.229113 98.353119 
L 298.323647 98.353119 
L 298.419783 97.511965 
L 298.708399 97.511965 
L 298.708399 97.091389 
L 298.988232 97.091389 
L 299.045546 96.250236 
L 299.457394 96.250236 
L 299.457394 95.829659 
L 299.665789 95.829659 
L 299.665789 95.409083 
L 300.031616 95.409083 
L 300.031616 94.988506 
L 300.26054 94.988506 
L 300.26054 94.56793 
L 300.492619 94.56793 
L 300.492619 94.147353 
L 300.729703 94.147353 
L 300.729703 93.726776 
L 300.961782 93.726776 
L 300.961782 93.3062 
L 301.71292 93.3062 
L 301.71292 92.885623 
L 303.061069 92.885623 
L 303.061069 92.465047 
L 306.654113 92.465047 
L 306.672638 91.623894 
L 307.138057 91.623894 
L 307.156581 90.78274 
L 308.330285 90.78274 
L 308.348809 89.941587 
L 309.834339 89.941587 
L 309.852863 89.100434 
L 310.025009 89.100434 
L 310.043533 88.259281 
L 310.294021 88.259281 
L 310.332149 86.997551 
L 310.650771 86.997551 
L 310.669296 86.156398 
L 311.242213 86.156398 
L 311.289539 84.894669 
L 311.458645 84.894669 
L 311.458645 84.474092 
L 311.636842 84.474092 
L 311.726156 83.212362 
L 311.942589 83.212362 
L 311.942589 82.791786 
L 312.794206 82.791786 
L 312.794206 82.371209 
L 312.918384 82.371209 
L 312.945542 81.530056 
L 313.134817 81.530056 
L 313.134817 81.109479 
L 313.318146 81.109479 
L 313.33667 80.268326 
L 313.644922 80.268326 
L 313.644922 79.84775 
L 314.065006 79.84775 
L 314.070525 79.006597 
L 314.422438 79.006597 
L 314.422438 78.58602 
L 314.613108 78.58602 
L 314.684819 76.903714 
L 314.82954 76.903714 
L 314.901724 76.062561 
L 315.118156 76.062561 
L 315.118156 75.641984 
L 315.238871 75.641984 
L 315.247088 74.800831 
L 315.455303 74.800831 
L 315.455303 74.380254 
L 315.716251 74.380254 
L 315.716251 73.959678 
L 315.859114 73.959678 
L 315.859114 73.539101 
L 316.075546 73.539101 
L 316.158515 72.277372 
L 316.224941 72.277372 
L 316.296443 71.436218 
L 316.441374 71.436218 
L 316.441374 71.015642 
L 316.56519 71.015642 
L 316.57071 70.174489 
L 316.716527 70.174489 
L 316.722046 69.333336 
L 317.906245 69.333336 
L 317.906245 68.912759 
L 318.122678 68.912759 
L 318.122678 68.492183 
L 318.597988 68.492183 
L 318.658699 67.651029 
L 318.810036 67.651029 
L 318.810036 67.230453 
L 319.018072 67.230453 
L 319.067151 65.968723 
L 319.254394 65.968723 
L 319.254394 65.548147 
L 319.470826 65.548147 
L 319.492754 64.286417 
L 320.174719 64.286417 
L 320.174719 63.86584 
L 321.111581 63.86584 
L 321.111581 63.445264 
L 321.580744 63.445264 
L 321.580744 63.024687 
L 322.674904 63.024687 
L 322.674904 62.604111 
L 322.82624 62.604111 
L 322.82624 62.183534 
L 325.127786 62.183534 
L 325.127786 61.762958 
L 325.596948 61.762958 
L 325.596948 61.342381 
L 453.192 61.342381 
L 453.192 61.342381 
" clip-path="url(#p0ab9bcb4ba)" style="fill: none; stroke: #bf00bf; stroke-width: 3; stroke-linecap: square"/>
   </g>
   <g id="line2d_58">
    <path clip-path="url(#p0ab9bcb4ba)" style="fill: none; stroke: #bf00bf; stroke-width: 3; stroke-linecap: square"/>
   </g>
   <g id="line2d_59">
    <path d="M 34.16 257.480854 
L 165.705467 257.480854 
L 165.705467 257.050675 
L 176.768653 257.050675 
L 176.768653 256.620497 
L 180.926474 256.620497 
L 180.926474 256.190318 
L 191.781166 256.190318 
L 191.781166 255.760139 
L 192.852618 255.760139 
L 192.852618 255.32996 
L 193.673358 255.32996 
L 193.78309 254.469603 
L 194.257264 254.469603 
L 194.329663 253.609245 
L 201.538254 253.609245 
L 201.538254 253.179066 
L 203.590815 253.179066 
L 203.590815 252.748888 
L 205.04461 252.748888 
L 205.074486 251.88853 
L 206.342862 251.88853 
L 206.342862 251.458351 
L 213.015872 251.458351 
L 213.015872 251.028173 
L 216.194758 251.028173 
L 216.194758 250.597994 
L 217.406048 250.597994 
L 217.406048 250.167815 
L 218.247319 250.167815 
L 218.247319 249.737636 
L 219.701114 249.737636 
L 219.730991 248.877279 
L 221.56387 248.877279 
L 221.56387 248.4471 
L 224.695805 248.4471 
L 224.695805 248.016921 
L 225.937209 248.016921 
L 225.937209 247.586742 
L 226.497312 247.586742 
L 226.497312 247.156564 
L 227.672376 247.156564 
L 227.672376 246.726385 
L 228.170764 246.726385 
L 228.2425 245.866027 
L 228.837567 245.866027 
L 228.837567 245.435849 
L 229.05245 245.435849 
L 229.05245 245.00567 
L 229.913932 245.00567 
L 229.913932 244.575491 
L 230.693885 244.575491 
L 230.782617 243.715134 
L 230.890128 243.715134 
L 230.890128 243.284955 
L 231.025151 243.284955 
L 231.025151 242.854776 
L 231.343096 242.854776 
L 231.343096 242.424597 
L 231.966494 242.424597 
L 231.966494 241.994418 
L 232.078701 241.994418 
L 232.167433 241.134061 
L 232.343923 241.134061 
L 232.418561 239.843525 
L 232.651612 239.843525 
L 232.757693 238.552988 
L 232.789727 238.552988 
L 232.791733 237.692631 
L 232.910526 237.692631 
L 232.910526 237.262452 
L 233.398117 237.262452 
L 233.493902 235.111558 
L 234.036428 235.111558 
L 234.142509 234.251201 
L 234.176549 234.251201 
L 234.176549 233.821022 
L 234.295342 233.821022 
L 234.310753 232.960664 
L 234.420485 232.960664 
L 234.420485 232.530486 
L 234.562649 232.530486 
L 234.658722 231.670128 
L 234.764804 231.670128 
L 234.798844 230.379592 
L 234.878718 230.379592 
L 234.967058 228.228698 
L 235.405228 228.228698 
L 235.501012 227.36834 
L 235.96292 227.36834 
L 235.96292 226.938162 
L 236.185587 226.938162 
L 236.185587 226.507983 
L 236.337416 226.507983 
L 236.337416 226.077804 
L 236.95971 226.077804 
L 236.95971 225.647625 
L 237.073036 225.647625 
L 237.073036 225.217447 
L 240.315185 225.217447 
L 240.315185 224.787268 
L 241.39155 224.787268 
L 241.39155 224.357089 
L 242.406282 224.357089 
L 242.406282 223.92691 
L 242.899004 223.92691 
L 242.899004 223.496731 
L 245.625835 223.496731 
L 245.681655 222.636374 
L 246.564103 222.636374 
L 246.564103 222.206195 
L 247.026106 222.206195 
L 247.026106 221.776016 
L 247.248773 221.776016 
L 247.248773 221.345838 
L 247.662274 221.345838 
L 247.662274 220.915659 
L 247.884599 220.915659 
L 247.884599 220.48548 
L 249.783656 220.48548 
L 249.876965 219.194944 
L 249.918847 219.194944 
L 249.918847 218.764765 
L 250.156868 218.764765 
L 250.156868 218.334586 
L 250.622284 218.334586 
L 250.711016 217.474229 
L 251.083573 217.474229 
L 251.183927 216.183692 
L 251.406595 216.183692 
L 251.406595 215.753514 
L 251.64376 215.753514 
L 251.72954 214.462977 
L 251.755398 214.462977 
L 251.798051 213.172441 
L 251.886782 213.172441 
L 251.927963 211.881905 
L 252.007273 211.881905 
L 252.096005 210.591368 
L 252.144867 210.591368 
L 252.233599 209.731011 
L 252.534347 209.731011 
L 252.630132 208.440475 
L 252.686092 208.440475 
L 252.75798 207.149938 
L 252.838925 207.149938 
L 252.846712 206.289581 
L 253.041299 206.289581 
L 253.147381 204.999044 
L 253.181421 204.999044 
L 253.181421 204.568866 
L 253.300213 204.568866 
L 253.391339 203.278329 
L 253.422301 203.278329 
L 253.422301 202.848151 
L 253.624393 202.848151 
L 253.730474 201.987793 
L 253.755777 201.987793 
L 253.861859 199.836899 
L 253.883307 199.836899 
L 253.965 198.116184 
L 254.014691 198.116184 
L 254.105122 195.96529 
L 254.208675 195.96529 
L 254.242716 194.674754 
L 254.361508 194.674754 
L 254.466683 193.384218 
L 254.502283 193.384218 
L 254.598067 192.52386 
L 254.711506 192.52386 
L 254.821788 190.372966 
L 254.8491 190.372966 
L 254.944884 188.652251 
L 254.974621 188.652251 
L 254.974621 188.222072 
L 255.342287 188.222072 
L 255.342287 187.791894 
L 255.462212 187.791894 
L 255.557997 186.501357 
L 255.925381 186.501357 
L 255.925381 186.071179 
L 256.056765 186.071179 
L 256.056765 185.641 
L 256.265988 185.641 
L 256.265988 185.210821 
L 256.403582 185.210821 
L 256.403582 184.780642 
L 256.618178 184.780642 
L 256.618178 184.350463 
L 257.016695 184.350463 
L 257.016695 183.920285 
L 257.418795 183.920285 
L 257.418795 183.490106 
L 258.324464 183.490106 
L 258.324464 183.059927 
L 258.490247 183.059927 
L 258.490247 182.629748 
L 259.062562 182.629748 
L 259.157781 180.909033 
L 259.310987 180.909033 
L 259.420719 179.618497 
L 259.64559 179.618497 
L 259.64559 179.188318 
L 259.894893 179.188318 
L 259.967292 178.327961 
L 260.638348 178.327961 
L 260.728439 177.037424 
L 260.940151 177.037424 
L 261.026776 176.177067 
L 261.132858 176.177067 
L 261.197194 174.886531 
L 261.28569 174.886531 
L 261.28569 174.456352 
L 261.698151 174.456352 
L 261.773282 173.165816 
L 261.869066 173.165816 
L 261.869066 172.735637 
L 262.038619 172.735637 
L 262.113255 171.014922 
L 262.229203 171.014922 
L 262.318778 169.724385 
L 262.53054 169.724385 
L 262.640272 168.433849 
L 262.650989 168.433849 
L 262.74675 166.713134 
L 263.110071 166.713134 
L 263.192139 164.132061 
L 263.295087 164.132061 
L 263.332739 162.841525 
L 263.688495 162.841525 
L 263.688495 162.411346 
L 263.930811 162.411346 
L 264.040543 161.550989 
L 264.108194 161.550989 
L 264.200545 159.400095 
L 264.230421 159.400095 
L 264.281764 158.109559 
L 264.372349 158.109559 
L 264.454525 157.249201 
L 264.514717 157.249201 
L 264.587116 156.388844 
L 264.737384 156.388844 
L 264.813373 155.098307 
L 264.870732 155.098307 
L 264.870732 154.668128 
L 265.038307 154.668128 
L 265.097972 153.807771 
L 265.244701 153.807771 
L 265.347649 152.517235 
L 265.448714 152.517235 
L 265.448714 152.087056 
L 265.561989 152.087056 
L 265.607231 150.366341 
L 265.735559 150.366341 
L 265.843805 148.645626 
L 265.978227 148.645626 
L 265.978227 148.215447 
L 266.300264 148.215447 
L 266.300264 147.785268 
L 266.574605 147.785268 
L 266.574605 147.355089 
L 266.698496 147.355089 
L 266.801443 146.064553 
L 266.83132 146.064553 
L 266.83132 145.634374 
L 267.090868 145.634374 
L 267.194851 144.343838 
L 267.224727 144.343838 
L 267.224727 143.913659 
L 268.030788 143.913659 
L 268.030788 143.48348 
L 268.277832 143.48348 
L 268.277832 143.053302 
L 268.544663 143.053302 
L 268.612346 141.762765 
L 268.808159 141.762765 
L 268.808159 141.332587 
L 269.028553 141.332587 
L 269.028553 140.902408 
L 269.484583 140.902408 
L 269.514459 140.04205 
L 269.689846 140.04205 
L 269.689846 139.611872 
L 270.001626 139.611872 
L 270.001626 139.181693 
L 270.125748 139.181693 
L 270.125748 138.751514 
L 270.622251 138.751514 
L 270.622251 138.321335 
L 271.123207 138.321335 
L 271.123207 137.891156 
L 272.171806 137.891156 
L 272.171806 137.460978 
L 273.53325 137.460978 
L 273.548616 136.60062 
L 273.70682 136.60062 
L 273.70682 136.170441 
L 274.283569 136.170441 
L 274.283569 135.740263 
L 274.669757 135.740263 
L 274.772705 134.879905 
L 274.961587 134.879905 
L 274.961587 134.449726 
L 275.166112 134.449726 
L 275.183912 133.589369 
L 275.952664 133.589369 
L 276.037952 132.729011 
L 276.260278 132.729011 
L 276.260278 132.298832 
L 276.515924 132.298832 
L 276.515924 131.868654 
L 277.024117 131.868654 
L 277.024117 131.438475 
L 277.455844 131.438475 
L 277.456181 130.578117 
L 277.844856 130.578117 
L 277.954588 129.71776 
L 278.428762 129.71776 
L 278.532547 128.427224 
L 278.943073 128.427224 
L 278.943073 127.997045 
L 279.132524 127.997045 
L 279.132524 127.566866 
L 279.467038 127.566866 
L 279.467038 127.136687 
L 279.864669 127.136687 
L 279.883245 126.27633 
L 280.019439 126.27633 
L 280.019439 125.846151 
L 280.203977 125.846151 
L 280.203977 125.415972 
L 280.538491 125.415972 
L 280.538491 124.985793 
L 280.656838 124.985793 
L 280.656838 124.555615 
L 280.856318 124.555615 
L 280.954697 123.695257 
L 281.024716 123.695257 
L 281.134448 122.404721 
L 281.35923 122.404721 
L 281.468962 121.544363 
L 281.608622 121.544363 
L 281.70122 120.253827 
L 281.775437 120.253827 
L 281.885169 118.963291 
L 281.92777 118.963291 
L 282.015535 117.672754 
L 282.041827 117.672754 
L 282.041827 117.242576 
L 282.179421 117.242576 
L 282.179421 116.812397 
L 282.359343 116.812397 
L 282.431741 115.952039 
L 282.74851 115.952039 
L 282.858242 114.661503 
L 283.332416 114.661503 
L 283.404814 113.801145 
L 285.138261 113.801145 
L 285.138261 113.370967 
L 285.848879 113.370967 
L 285.848879 112.940788 
L 286.209714 112.940788 
L 286.209714 112.510609 
L 286.349836 112.510609 
L 286.349836 112.08043 
L 287.030453 112.08043 
L 287.140185 111.220073 
L 287.398435 111.220073 
L 287.398435 110.789894 
L 287.614359 110.789894 
L 287.686758 109.929537 
L 288.63153 109.929537 
L 288.63153 109.499358 
L 288.759879 109.499358 
L 288.775245 108.639 
L 288.933449 108.639 
L 288.933449 108.208821 
L 289.103604 108.208821 
L 289.132487 107.348464 
L 289.896385 107.348464 
L 289.999333 106.488106 
L 290.181086 106.488106 
L 290.181086 106.057928 
L 290.333434 106.057928 
L 290.392741 105.19757 
L 291.542529 105.19757 
L 291.574838 103.907034 
L 291.716099 103.907034 
L 291.742553 103.046676 
L 292.134941 103.046676 
L 292.134941 102.616497 
L 292.679036 102.616497 
L 292.781984 101.325961 
L 293.175391 101.325961 
L 293.175391 100.895782 
L 293.552987 100.895782 
L 293.552987 100.465604 
L 293.808393 100.465604 
L 293.808393 100.035425 
L 294.525203 100.035425 
L 294.525203 99.605246 
L 294.679415 99.605246 
L 294.69008 98.744889 
L 294.794391 98.744889 
L 294.794391 98.31471 
L 294.953258 98.31471 
L 294.953258 97.884531 
L 295.175925 97.884531 
L 295.180372 97.024173 
L 295.354494 97.024173 
L 295.465123 96.163816 
L 296.194662 96.163816 
L 296.228971 95.303458 
L 296.41733 95.303458 
L 296.41733 94.87328 
L 296.754765 94.87328 
L 296.754765 94.443101 
L 296.977432 94.443101 
L 297.027946 93.582743 
L 297.590414 93.582743 
L 297.605781 92.722386 
L 297.763985 92.722386 
L 297.763985 92.292207 
L 297.909633 92.292207 
L 297.909633 91.862028 
L 298.428217 91.862028 
L 298.428217 91.431849 
L 298.650884 91.431849 
L 298.726921 90.571492 
L 298.829869 90.571492 
L 298.829869 90.141313 
L 299.223276 90.141313 
L 299.309904 89.280956 
L 299.532571 89.280956 
L 299.532571 88.850777 
L 300.573089 88.850777 
L 300.573089 88.420598 
L 301.513009 88.420598 
L 301.513009 87.990419 
L 305.268653 87.990419 
L 305.268653 87.560241 
L 305.490979 87.560241 
L 305.490979 87.130062 
L 305.76961 87.130062 
L 305.76961 86.699883 
L 305.991935 86.699883 
L 305.991935 86.269704 
L 306.818208 86.269704 
L 306.818208 85.839525 
L 307.040534 85.839525 
L 307.040534 85.409347 
L 307.763248 85.409347 
L 307.763248 84.979168 
L 308.179652 84.979168 
L 308.264204 83.688632 
L 308.353222 83.688632 
L 308.417344 82.398095 
L 308.575548 82.398095 
L 308.575548 81.967917 
L 308.867303 81.967917 
L 308.867303 81.537738 
L 309.250139 81.537738 
L 309.316159 80.247201 
L 309.419107 80.247201 
L 309.419107 79.817023 
L 309.538485 79.817023 
L 309.641433 78.956665 
L 309.751096 78.956665 
L 309.812514 78.096308 
L 310.03484 78.096308 
L 310.108707 77.23595 
L 310.66881 77.23595 
L 310.689613 75.945414 
L 310.799695 75.945414 
L 310.847817 75.085056 
L 311.162326 75.085056 
L 311.162326 74.654877 
L 311.384652 74.654877 
L 311.384652 74.224699 
L 311.810754 74.224699 
L 311.913702 73.364341 
L 312.047163 73.364341 
L 312.102246 72.503984 
L 312.161139 72.503984 
L 312.176505 71.643626 
L 312.307109 71.643626 
L 312.381677 69.492732 
L 312.797884 69.492732 
L 312.797884 69.062553 
L 313.223949 69.062553 
L 313.297646 67.772017 
L 313.400594 67.772017 
L 313.400594 67.341838 
L 313.623081 67.341838 
L 313.656921 66.481481 
L 313.770957 66.481481 
L 313.84867 65.190945 
L 314.039288 65.190945 
L 314.039288 64.760766 
L 314.183184 64.760766 
L 314.183184 64.330587 
L 314.596841 64.330587 
L 314.599391 63.47023 
L 315.012361 63.47023 
L 315.012361 63.040051 
L 315.143813 63.040051 
L 315.143813 62.609872 
L 315.522122 62.609872 
L 315.572464 61.749514 
L 315.856636 61.749514 
L 315.856636 61.319336 
L 316.083733 61.319336 
L 316.083733 60.889157 
L 316.272843 60.889157 
L 316.272843 60.458978 
L 316.403809 60.458978 
L 316.403809 60.028799 
L 316.738323 60.028799 
L 316.738323 59.598621 
L 317.154529 59.598621 
L 317.245916 58.738263 
L 318.0529 58.738263 
L 318.127602 57.877906 
L 319.294304 57.877906 
L 319.294304 57.447727 
L 319.854407 57.447727 
L 319.854407 57.017548 
L 321.527859 57.017548 
L 321.527859 56.587369 
L 322.409546 56.587369 
L 322.409546 56.15719 
L 453.192 56.15719 
L 453.192 56.15719 
" clip-path="url(#p0ab9bcb4ba)" style="fill: none; stroke: #ff0000; stroke-width: 3; stroke-linecap: square"/>
   </g>
   <g id="line2d_60">
    <path clip-path="url(#p0ab9bcb4ba)" style="fill: none; stroke: #ff0000; stroke-width: 3; stroke-linecap: square"/>
   </g>
   <g id="line2d_61">
    <path d="M 243.676 291.28 
L 243.676 3 
" clip-path="url(#p0ab9bcb4ba)" style="fill: none; stroke: #000000; stroke-width: 1.5; stroke-linecap: square"/>
   </g>
   <g id="line2d_62">
    <path d="M 34.16 147.14 
L 453.192 147.14 
" clip-path="url(#p0ab9bcb4ba)" style="fill: none; stroke-dasharray: 2,3.3; stroke-dashoffset: 0; stroke: #000000; stroke-width: 2"/>
   </g>
   <g id="patch_3">
    <path d="M 34.16 291.28 
L 34.16 3 
" style="fill: none; stroke: #000000; stroke-width: 0.8; stroke-linejoin: miter; stroke-linecap: square"/>
   </g>
   <g id="patch_4">
    <path d="M 453.192 291.28 
L 453.192 3 
" style="fill: none; stroke: #000000; stroke-width: 0.8; stroke-linejoin: miter; stroke-linecap: square"/>
   </g>
   <g id="patch_5">
    <path d="M 34.16 291.28 
L 453.192 291.28 
" style="fill: none; stroke: #000000; stroke-width: 0.8; stroke-linejoin: miter; stroke-linecap: square"/>
   </g>
   <g id="patch_6">
    <path d="M 34.16 3 
L 453.192 3 
" style="fill: none; stroke: #000000; stroke-width: 0.8; stroke-linejoin: miter; stroke-linecap: square"/>
   </g>
   <g id="text_5">
    <!-- f15-f19,40-D -->
    <g transform="translate(318.19261 285.5144) scale(0.2 -0.2)">
     <defs>
      <path id="DejaVuSans-35" d="M 691 4666 
L 3169 4666 
L 3169 4134 
L 1269 4134 
L 1269 2991 
Q 1406 3038 1543 3061 
Q 1681 3084 1819 3084 
Q 2600 3084 3056 2656 
Q 3513 2228 3513 1497 
Q 3513 744 3044 326 
Q 2575 -91 1722 -91 
Q 1428 -91 1123 -41 
Q 819 9 494 109 
L 494 744 
Q 775 591 1075 516 
Q 1375 441 1709 441 
Q 2250 441 2565 725 
Q 2881 1009 2881 1497 
Q 2881 1984 2565 2268 
Q 2250 2553 1709 2553 
Q 1456 2553 1204 2497 
Q 953 2441 691 2322 
L 691 4666 
z
" transform="scale(0.015625)"/>
      <path id="DejaVuSans-39" d="M 703 97 
L 703 672 
Q 941 559 1184 500 
Q 1428 441 1663 441 
Q 2288 441 2617 861 
Q 2947 1281 2994 2138 
Q 2813 1869 2534 1725 
Q 2256 1581 1919 1581 
Q 1219 1581 811 2004 
Q 403 2428 403 3163 
Q 403 3881 828 4315 
Q 1253 4750 1959 4750 
Q 2769 4750 3195 4129 
Q 3622 3509 3622 2328 
Q 3622 1225 3098 567 
Q 2575 -91 1691 -91 
Q 1453 -91 1209 -44 
Q 966 3 703 97 
z
M 1959 2075 
Q 2384 2075 2632 2365 
Q 2881 2656 2881 3163 
Q 2881 3666 2632 3958 
Q 2384 4250 1959 4250 
Q 1534 4250 1286 3958 
Q 1038 3666 1038 3163 
Q 1038 2656 1286 2365 
Q 1534 2075 1959 2075 
z
" transform="scale(0.015625)"/>
      <path id="DejaVuSans-2c" d="M 750 794 
L 1409 794 
L 1409 256 
L 897 -744 
L 494 -744 
L 750 256 
L 750 794 
z
" transform="scale(0.015625)"/>
      <path id="DejaVuSans-34" d="M 2419 4116 
L 825 1625 
L 2419 1625 
L 2419 4116 
z
M 2253 4666 
L 3047 4666 
L 3047 1625 
L 3713 1625 
L 3713 1100 
L 3047 1100 
L 3047 0 
L 2419 0 
L 2419 1100 
L 313 1100 
L 313 1709 
L 2253 4666 
z
" transform="scale(0.015625)"/>
      <path id="DejaVuSans-44" d="M 1259 4147 
L 1259 519 
L 2022 519 
Q 2988 519 3436 956 
Q 3884 1394 3884 2338 
Q 3884 3275 3436 3711 
Q 2988 4147 2022 4147 
L 1259 4147 
z
M 628 4666 
L 1925 4666 
Q 3281 4666 3915 4102 
Q 4550 3538 4550 2338 
Q 4550 1131 3912 565 
Q 3275 0 1925 0 
L 628 0 
L 628 4666 
z
" transform="scale(0.015625)"/>
     </defs>
     <use xlink:href="#DejaVuSans-66"/>
     <use xlink:href="#DejaVuSans-31" x="35.205078"/>
     <use xlink:href="#DejaVuSans-35" x="98.828125"/>
     <use xlink:href="#DejaVuSans-2d" x="162.451172"/>
     <use xlink:href="#DejaVuSans-66" x="198.535156"/>
     <use xlink:href="#DejaVuSans-31" x="233.740234"/>
     <use xlink:href="#DejaVuSans-39" x="297.363281"/>
     <use xlink:href="#DejaVuSans-2c" x="360.986328"/>
     <use xlink:href="#DejaVuSans-34" x="392.773438"/>
     <use xlink:href="#DejaVuSans-30" x="456.396484"/>
     <use xlink:href="#DejaVuSans-2d" x="520.019531"/>
     <use xlink:href="#DejaVuSans-44" x="556.103516"/>
    </g>
   </g>
   <g id="text_6">
    <!-- v2.6.3 -->
    <g style="fill: #808080" transform="translate(227.99475 286.317512) scale(0.1 -0.1)">
     <defs>
      <path id="DejaVuSans-32" d="M 1228 531 
L 3431 531 
L 3431 0 
L 469 0 
L 469 531 
Q 828 903 1448 1529 
Q 2069 2156 2228 2338 
Q 2531 2678 2651 2914 
Q 2772 3150 2772 3378 
Q 2772 3750 2511 3984 
Q 2250 4219 1831 4219 
Q 1534 4219 1204 4116 
Q 875 4013 500 3803 
L 500 4441 
Q 881 4594 1212 4672 
Q 1544 4750 1819 4750 
Q 2544 4750 2975 4387 
Q 3406 4025 3406 3419 
Q 3406 3131 3298 2873 
Q 3191 2616 2906 2266 
Q 2828 2175 2409 1742 
Q 1991 1309 1228 531 
z
" transform="scale(0.015625)"/>
      <path id="DejaVuSans-2e" d="M 684 794 
L 1344 794 
L 1344 0 
L 684 0 
L 684 794 
z
" transform="scale(0.015625)"/>
      <path id="DejaVuSans-36" d="M 2113 2584 
Q 1688 2584 1439 2293 
Q 1191 2003 1191 1497 
Q 1191 994 1439 701 
Q 1688 409 2113 409 
Q 2538 409 2786 701 
Q 3034 994 3034 1497 
Q 3034 2003 2786 2293 
Q 2538 2584 2113 2584 
z
M 3366 4563 
L 3366 3988 
Q 3128 4100 2886 4159 
Q 2644 4219 2406 4219 
Q 1781 4219 1451 3797 
Q 1122 3375 1075 2522 
Q 1259 2794 1537 2939 
Q 1816 3084 2150 3084 
Q 2853 3084 3261 2657 
Q 3669 2231 3669 1497 
Q 3669 778 3244 343 
Q 2819 -91 2113 -91 
Q 1303 -91 875 529 
Q 447 1150 447 2328 
Q 447 3434 972 4092 
Q 1497 4750 2381 4750 
Q 2619 4750 2861 4703 
Q 3103 4656 3366 4563 
z
" transform="scale(0.015625)"/>
      <path id="DejaVuSans-33" d="M 2597 2516 
Q 3050 2419 3304 2112 
Q 3559 1806 3559 1356 
Q 3559 666 3084 287 
Q 2609 -91 1734 -91 
Q 1441 -91 1130 -33 
Q 819 25 488 141 
L 488 750 
Q 750 597 1062 519 
Q 1375 441 1716 441 
Q 2309 441 2620 675 
Q 2931 909 2931 1356 
Q 2931 1769 2642 2001 
Q 2353 2234 1838 2234 
L 1294 2234 
L 1294 2753 
L 1863 2753 
Q 2328 2753 2575 2939 
Q 2822 3125 2822 3475 
Q 2822 3834 2567 4026 
Q 2313 4219 1838 4219 
Q 1578 4219 1281 4162 
Q 984 4106 628 3988 
L 628 4550 
Q 988 4650 1302 4700 
Q 1616 4750 1894 4750 
Q 2613 4750 3031 4423 
Q 3450 4097 3450 3541 
Q 3450 3153 3228 2886 
Q 3006 2619 2597 2516 
z
" transform="scale(0.015625)"/>
     </defs>
     <use xlink:href="#DejaVuSans-76"/>
     <use xlink:href="#DejaVuSans-32" x="59.179688"/>
     <use xlink:href="#DejaVuSans-2e" x="122.802734"/>
     <use xlink:href="#DejaVuSans-36" x="154.589844"/>
     <use xlink:href="#DejaVuSans-2e" x="218.212891"/>
     <use xlink:href="#DejaVuSans-33" x="250"/>
    </g>
   </g>
   <g id="legend_1">
    <g id="patch_7">
     <path d="M 48.16 136.425 
L 177.381875 136.425 
Q 181.381875 136.425 181.381875 132.425 
L 181.381875 17 
Q 181.381875 13 177.381875 13 
L 48.16 13 
Q 44.16 13 44.16 17 
L 44.16 132.425 
Q 44.16 136.425 48.16 136.425 
z
" style="fill: #ffffff; opacity: 0.2; stroke: #cccccc; stroke-linejoin: miter"/>
    </g>
    <g id="line2d_63">
     <path d="M 52.16 29.196875 
L 72.16 29.196875 
L 92.16 29.196875 
" style="fill: none; stroke: #000000; stroke-width: 3; stroke-linecap: square"/>
    </g>
    <g id="text_7">
     <!-- 1: 4/5 -->
     <g transform="translate(108.16 36.196875) scale(0.2 -0.2)">
      <defs>
       <path id="DejaVuSans-3a" d="M 750 794 
L 1409 794 
L 1409 0 
L 750 0 
L 750 794 
z
M 750 3309 
L 1409 3309 
L 1409 2516 
L 750 2516 
L 750 3309 
z
" transform="scale(0.015625)"/>
       <path id="DejaVuSans-2f" d="M 1625 4666 
L 2156 4666 
L 531 -594 
L 0 -594 
L 1625 4666 
z
" transform="scale(0.015625)"/>
      </defs>
      <use xlink:href="#DejaVuSans-31"/>
      <use xlink:href="#DejaVuSans-3a" x="63.623047"/>
      <use xlink:href="#DejaVuSans-20" x="97.314453"/>
      <use xlink:href="#DejaVuSans-34" x="129.101562"/>
      <use xlink:href="#DejaVuSans-2f" x="192.724609"/>
      <use xlink:href="#DejaVuSans-35" x="226.416016"/>
     </g>
    </g>
    <g id="line2d_64">
     <path d="M 52.16 58.553125 
L 72.16 58.553125 
L 92.16 58.553125 
" style="fill: none; stroke: #00bfbf; stroke-width: 3; stroke-linecap: square"/>
    </g>
    <g id="text_8">
     <!-- -1: 3/4 -->
     <g transform="translate(108.16 65.553125) scale(0.2 -0.2)">
      <use xlink:href="#DejaVuSans-2d"/>
      <use xlink:href="#DejaVuSans-31" x="36.083984"/>
      <use xlink:href="#DejaVuSans-3a" x="99.707031"/>
      <use xlink:href="#DejaVuSans-20" x="133.398438"/>
      <use xlink:href="#DejaVuSans-33" x="165.185547"/>
      <use xlink:href="#DejaVuSans-2f" x="228.808594"/>
      <use xlink:href="#DejaVuSans-34" x="262.5"/>
     </g>
    </g>
    <g id="line2d_65">
     <path d="M 52.16 87.909375 
L 72.16 87.909375 
L 92.16 87.909375 
" style="fill: none; stroke: #bf00bf; stroke-width: 3; stroke-linecap: square"/>
    </g>
    <g id="text_9">
     <!-- -4: 3/4 -->
     <g transform="translate(108.16 94.909375) scale(0.2 -0.2)">
      <use xlink:href="#DejaVuSans-2d"/>
      <use xlink:href="#DejaVuSans-34" x="36.083984"/>
      <use xlink:href="#DejaVuSans-3a" x="99.707031"/>
      <use xlink:href="#DejaVuSans-20" x="133.398438"/>
      <use xlink:href="#DejaVuSans-33" x="165.185547"/>
      <use xlink:href="#DejaVuSans-2f" x="228.808594"/>
      <use xlink:href="#DejaVuSans-34" x="262.5"/>
     </g>
    </g>
    <g id="line2d_66">
     <path d="M 52.16 117.265625 
L 72.16 117.265625 
L 92.16 117.265625 
" style="fill: none; stroke: #ff0000; stroke-width: 3; stroke-linecap: square"/>
    </g>
    <g id="text_10">
     <!-- -8: 3/3 -->
     <g transform="translate(108.16 124.265625) scale(0.2 -0.2)">
      <defs>
       <path id="DejaVuSans-38" d="M 2034 2216 
Q 1584 2216 1326 1975 
Q 1069 1734 1069 1313 
Q 1069 891 1326 650 
Q 1584 409 2034 409 
Q 2484 409 2743 651 
Q 3003 894 3003 1313 
Q 3003 1734 2745 1975 
Q 2488 2216 2034 2216 
z
M 1403 2484 
Q 997 2584 770 2862 
Q 544 3141 544 3541 
Q 544 4100 942 4425 
Q 1341 4750 2034 4750 
Q 2731 4750 3128 4425 
Q 3525 4100 3525 3541 
Q 3525 3141 3298 2862 
Q 3072 2584 2669 2484 
Q 3125 2378 3379 2068 
Q 3634 1759 3634 1313 
Q 3634 634 3220 271 
Q 2806 -91 2034 -91 
Q 1263 -91 848 271 
Q 434 634 434 1313 
Q 434 1759 690 2068 
Q 947 2378 1403 2484 
z
M 1172 3481 
Q 1172 3119 1398 2916 
Q 1625 2713 2034 2713 
Q 2441 2713 2670 2916 
Q 2900 3119 2900 3481 
Q 2900 3844 2670 4047 
Q 2441 4250 2034 4250 
Q 1625 4250 1398 4047 
Q 1172 3844 1172 3481 
z
" transform="scale(0.015625)"/>
      </defs>
      <use xlink:href="#DejaVuSans-2d"/>
      <use xlink:href="#DejaVuSans-38" x="36.083984"/>
      <use xlink:href="#DejaVuSans-3a" x="99.707031"/>
      <use xlink:href="#DejaVuSans-20" x="133.398438"/>
      <use xlink:href="#DejaVuSans-33" x="165.185547"/>
      <use xlink:href="#DejaVuSans-2f" x="228.808594"/>
      <use xlink:href="#DejaVuSans-33" x="262.5"/>
     </g>
    </g>
   </g>
  </g>
 </g>
 <defs>
  <clipPath id="p0ab9bcb4ba">
   <rect x="34.16" y="3" width="419.032" height="288.28"/>
  </clipPath>
 </defs>
</svg>
