<?xml version="1.0" encoding="utf-8" standalone="no"?>
<!DOCTYPE svg PUBLIC "-//W3C//DTD SVG 1.1//EN"
  "http://www.w3.org/Graphics/SVG/1.1/DTD/svg11.dtd">
<svg xmlns:xlink="http://www.w3.org/1999/xlink" width="460.8pt" height="345.6pt" viewBox="0 0 460.8 345.6" xmlns="http://www.w3.org/2000/svg" version="1.1">
 <metadata>
  <rdf:RDF xmlns:dc="http://purl.org/dc/elements/1.1/" xmlns:cc="http://creativecommons.org/ns#" xmlns:rdf="http://www.w3.org/1999/02/22-rdf-syntax-ns#">
   <cc:Work>
    <dc:type rdf:resource="http://purl.org/dc/dcmitype/StillImage"/>
    <dc:date>2024-06-05T13:53:20.482486</dc:date>
    <dc:format>image/svg+xml</dc:format>
    <dc:creator>
     <cc:Agent>
      <dc:title>Matplotlib v3.7.1, https://matplotlib.org/</dc:title>
     </cc:Agent>
    </dc:creator>
   </cc:Work>
  </rdf:RDF>
 </metadata>
 <defs>
  <style type="text/css">*{stroke-linejoin: round; stroke-linecap: butt}</style>
 </defs>
 <g id="figure_1">
  <g id="patch_1">
   <path d="M 0 345.6 
L 460.8 345.6 
L 460.8 0 
L 0 0 
z
" style="fill: #ffffff"/>
  </g>
  <g id="axes_1">
   <g id="patch_2">
    <path d="M 34.16 291.28 
L 453.192 291.28 
L 453.192 3 
L 34.16 3 
z
" style="fill: #ffffff"/>
   </g>
   <g id="matplotlib.axis_1">
    <g id="xtick_1">
     <g id="line2d_1">
      <path d="M 132.078129 291.28 
L 132.078129 3 
" clip-path="url(#pb1e15209a1)" style="fill: none; stroke: #b0b0b0; stroke-width: 0.8; stroke-linecap: square"/>
     </g>
     <g id="line2d_2">
      <defs>
       <path id="m59d0c2175b" d="M 0 0 
L 0 3.5 
" style="stroke: #000000; stroke-width: 0.8"/>
      </defs>
      <g>
       <use xlink:href="#m59d0c2175b" x="132.078129" y="291.28" style="stroke: #000000; stroke-width: 0.8"/>
      </g>
     </g>
     <g id="text_1">
      <!-- -2 -->
      <g transform="translate(122.107816 313.476875) scale(0.2 -0.2)">
       <defs>
        <path id="DejaVuSans-2d" d="M 313 2009 
L 1997 2009 
L 1997 1497 
L 313 1497 
L 313 2009 
z
" transform="scale(0.015625)"/>
        <path id="DejaVuSans-32" d="M 1228 531 
L 3431 531 
L 3431 0 
L 469 0 
L 469 531 
Q 828 903 1448 1529 
Q 2069 2156 2228 2338 
Q 2531 2678 2651 2914 
Q 2772 3150 2772 3378 
Q 2772 3750 2511 3984 
Q 2250 4219 1831 4219 
Q 1534 4219 1204 4116 
Q 875 4013 500 3803 
L 500 4441 
Q 881 4594 1212 4672 
Q 1544 4750 1819 4750 
Q 2544 4750 2975 4387 
Q 3406 4025 3406 3419 
Q 3406 3131 3298 2873 
Q 3191 2616 2906 2266 
Q 2828 2175 2409 1742 
Q 1991 1309 1228 531 
z
" transform="scale(0.015625)"/>
       </defs>
       <use xlink:href="#DejaVuSans-2d"/>
       <use xlink:href="#DejaVuSans-32" x="36.083984"/>
      </g>
     </g>
    </g>
    <g id="xtick_2">
     <g id="line2d_3">
      <path d="M 243.676 291.28 
L 243.676 3 
" clip-path="url(#pb1e15209a1)" style="fill: none; stroke: #b0b0b0; stroke-width: 0.8; stroke-linecap: square"/>
     </g>
     <g id="line2d_4">
      <g>
       <use xlink:href="#m59d0c2175b" x="243.676" y="291.28" style="stroke: #000000; stroke-width: 0.8"/>
      </g>
     </g>
     <g id="text_2">
      <!-- 0 -->
      <g transform="translate(237.3135 313.476875) scale(0.2 -0.2)">
       <defs>
        <path id="DejaVuSans-30" d="M 2034 4250 
Q 1547 4250 1301 3770 
Q 1056 3291 1056 2328 
Q 1056 1369 1301 889 
Q 1547 409 2034 409 
Q 2525 409 2770 889 
Q 3016 1369 3016 2328 
Q 3016 3291 2770 3770 
Q 2525 4250 2034 4250 
z
M 2034 4750 
Q 2819 4750 3233 4129 
Q 3647 3509 3647 2328 
Q 3647 1150 3233 529 
Q 2819 -91 2034 -91 
Q 1250 -91 836 529 
Q 422 1150 422 2328 
Q 422 3509 836 4129 
Q 1250 4750 2034 4750 
z
" transform="scale(0.015625)"/>
       </defs>
       <use xlink:href="#DejaVuSans-30"/>
      </g>
     </g>
    </g>
    <g id="xtick_3">
     <g id="line2d_5">
      <path d="M 355.273871 291.28 
L 355.273871 3 
" clip-path="url(#pb1e15209a1)" style="fill: none; stroke: #b0b0b0; stroke-width: 0.8; stroke-linecap: square"/>
     </g>
     <g id="line2d_6">
      <g>
       <use xlink:href="#m59d0c2175b" x="355.273871" y="291.28" style="stroke: #000000; stroke-width: 0.8"/>
      </g>
     </g>
     <g id="text_3">
      <!-- 2 -->
      <g transform="translate(348.911371 313.476875) scale(0.2 -0.2)">
       <use xlink:href="#DejaVuSans-32"/>
      </g>
     </g>
    </g>
    <g id="text_4">
     <!-- log10 of FEvals ratio -->
     <g transform="translate(141.371312 336.833125) scale(0.2 -0.2)">
      <defs>
       <path id="DejaVuSans-6c" d="M 603 4863 
L 1178 4863 
L 1178 0 
L 603 0 
L 603 4863 
z
" transform="scale(0.015625)"/>
       <path id="DejaVuSans-6f" d="M 1959 3097 
Q 1497 3097 1228 2736 
Q 959 2375 959 1747 
Q 959 1119 1226 758 
Q 1494 397 1959 397 
Q 2419 397 2687 759 
Q 2956 1122 2956 1747 
Q 2956 2369 2687 2733 
Q 2419 3097 1959 3097 
z
M 1959 3584 
Q 2709 3584 3137 3096 
Q 3566 2609 3566 1747 
Q 3566 888 3137 398 
Q 2709 -91 1959 -91 
Q 1206 -91 779 398 
Q 353 888 353 1747 
Q 353 2609 779 3096 
Q 1206 3584 1959 3584 
z
" transform="scale(0.015625)"/>
       <path id="DejaVuSans-67" d="M 2906 1791 
Q 2906 2416 2648 2759 
Q 2391 3103 1925 3103 
Q 1463 3103 1205 2759 
Q 947 2416 947 1791 
Q 947 1169 1205 825 
Q 1463 481 1925 481 
Q 2391 481 2648 825 
Q 2906 1169 2906 1791 
z
M 3481 434 
Q 3481 -459 3084 -895 
Q 2688 -1331 1869 -1331 
Q 1566 -1331 1297 -1286 
Q 1028 -1241 775 -1147 
L 775 -588 
Q 1028 -725 1275 -790 
Q 1522 -856 1778 -856 
Q 2344 -856 2625 -561 
Q 2906 -266 2906 331 
L 2906 616 
Q 2728 306 2450 153 
Q 2172 0 1784 0 
Q 1141 0 747 490 
Q 353 981 353 1791 
Q 353 2603 747 3093 
Q 1141 3584 1784 3584 
Q 2172 3584 2450 3431 
Q 2728 3278 2906 2969 
L 2906 3500 
L 3481 3500 
L 3481 434 
z
" transform="scale(0.015625)"/>
       <path id="DejaVuSans-31" d="M 794 531 
L 1825 531 
L 1825 4091 
L 703 3866 
L 703 4441 
L 1819 4666 
L 2450 4666 
L 2450 531 
L 3481 531 
L 3481 0 
L 794 0 
L 794 531 
z
" transform="scale(0.015625)"/>
       <path id="DejaVuSans-20" transform="scale(0.015625)"/>
       <path id="DejaVuSans-66" d="M 2375 4863 
L 2375 4384 
L 1825 4384 
Q 1516 4384 1395 4259 
Q 1275 4134 1275 3809 
L 1275 3500 
L 2222 3500 
L 2222 3053 
L 1275 3053 
L 1275 0 
L 697 0 
L 697 3053 
L 147 3053 
L 147 3500 
L 697 3500 
L 697 3744 
Q 697 4328 969 4595 
Q 1241 4863 1831 4863 
L 2375 4863 
z
" transform="scale(0.015625)"/>
       <path id="DejaVuSans-46" d="M 628 4666 
L 3309 4666 
L 3309 4134 
L 1259 4134 
L 1259 2759 
L 3109 2759 
L 3109 2228 
L 1259 2228 
L 1259 0 
L 628 0 
L 628 4666 
z
" transform="scale(0.015625)"/>
       <path id="DejaVuSans-45" d="M 628 4666 
L 3578 4666 
L 3578 4134 
L 1259 4134 
L 1259 2753 
L 3481 2753 
L 3481 2222 
L 1259 2222 
L 1259 531 
L 3634 531 
L 3634 0 
L 628 0 
L 628 4666 
z
" transform="scale(0.015625)"/>
       <path id="DejaVuSans-76" d="M 191 3500 
L 800 3500 
L 1894 563 
L 2988 3500 
L 3597 3500 
L 2284 0 
L 1503 0 
L 191 3500 
z
" transform="scale(0.015625)"/>
       <path id="DejaVuSans-61" d="M 2194 1759 
Q 1497 1759 1228 1600 
Q 959 1441 959 1056 
Q 959 750 1161 570 
Q 1363 391 1709 391 
Q 2188 391 2477 730 
Q 2766 1069 2766 1631 
L 2766 1759 
L 2194 1759 
z
M 3341 1997 
L 3341 0 
L 2766 0 
L 2766 531 
Q 2569 213 2275 61 
Q 1981 -91 1556 -91 
Q 1019 -91 701 211 
Q 384 513 384 1019 
Q 384 1609 779 1909 
Q 1175 2209 1959 2209 
L 2766 2209 
L 2766 2266 
Q 2766 2663 2505 2880 
Q 2244 3097 1772 3097 
Q 1472 3097 1187 3025 
Q 903 2953 641 2809 
L 641 3341 
Q 956 3463 1253 3523 
Q 1550 3584 1831 3584 
Q 2591 3584 2966 3190 
Q 3341 2797 3341 1997 
z
" transform="scale(0.015625)"/>
       <path id="DejaVuSans-73" d="M 2834 3397 
L 2834 2853 
Q 2591 2978 2328 3040 
Q 2066 3103 1784 3103 
Q 1356 3103 1142 2972 
Q 928 2841 928 2578 
Q 928 2378 1081 2264 
Q 1234 2150 1697 2047 
L 1894 2003 
Q 2506 1872 2764 1633 
Q 3022 1394 3022 966 
Q 3022 478 2636 193 
Q 2250 -91 1575 -91 
Q 1294 -91 989 -36 
Q 684 19 347 128 
L 347 722 
Q 666 556 975 473 
Q 1284 391 1588 391 
Q 1994 391 2212 530 
Q 2431 669 2431 922 
Q 2431 1156 2273 1281 
Q 2116 1406 1581 1522 
L 1381 1569 
Q 847 1681 609 1914 
Q 372 2147 372 2553 
Q 372 3047 722 3315 
Q 1072 3584 1716 3584 
Q 2034 3584 2315 3537 
Q 2597 3491 2834 3397 
z
" transform="scale(0.015625)"/>
       <path id="DejaVuSans-72" d="M 2631 2963 
Q 2534 3019 2420 3045 
Q 2306 3072 2169 3072 
Q 1681 3072 1420 2755 
Q 1159 2438 1159 1844 
L 1159 0 
L 581 0 
L 581 3500 
L 1159 3500 
L 1159 2956 
Q 1341 3275 1631 3429 
Q 1922 3584 2338 3584 
Q 2397 3584 2469 3576 
Q 2541 3569 2628 3553 
L 2631 2963 
z
" transform="scale(0.015625)"/>
       <path id="DejaVuSans-74" d="M 1172 4494 
L 1172 3500 
L 2356 3500 
L 2356 3053 
L 1172 3053 
L 1172 1153 
Q 1172 725 1289 603 
Q 1406 481 1766 481 
L 2356 481 
L 2356 0 
L 1766 0 
Q 1100 0 847 248 
Q 594 497 594 1153 
L 594 3053 
L 172 3053 
L 172 3500 
L 594 3500 
L 594 4494 
L 1172 4494 
z
" transform="scale(0.015625)"/>
       <path id="DejaVuSans-69" d="M 603 3500 
L 1178 3500 
L 1178 0 
L 603 0 
L 603 3500 
z
M 603 4863 
L 1178 4863 
L 1178 4134 
L 603 4134 
L 603 4863 
z
" transform="scale(0.015625)"/>
      </defs>
      <use xlink:href="#DejaVuSans-6c"/>
      <use xlink:href="#DejaVuSans-6f" x="27.783203"/>
      <use xlink:href="#DejaVuSans-67" x="88.964844"/>
      <use xlink:href="#DejaVuSans-31" x="152.441406"/>
      <use xlink:href="#DejaVuSans-30" x="216.064453"/>
      <use xlink:href="#DejaVuSans-20" x="279.6875"/>
      <use xlink:href="#DejaVuSans-6f" x="311.474609"/>
      <use xlink:href="#DejaVuSans-66" x="372.65625"/>
      <use xlink:href="#DejaVuSans-20" x="407.861328"/>
      <use xlink:href="#DejaVuSans-46" x="439.648438"/>
      <use xlink:href="#DejaVuSans-45" x="497.167969"/>
      <use xlink:href="#DejaVuSans-76" x="560.351562"/>
      <use xlink:href="#DejaVuSans-61" x="619.53125"/>
      <use xlink:href="#DejaVuSans-6c" x="680.810547"/>
      <use xlink:href="#DejaVuSans-73" x="708.59375"/>
      <use xlink:href="#DejaVuSans-20" x="760.693359"/>
      <use xlink:href="#DejaVuSans-72" x="792.480469"/>
      <use xlink:href="#DejaVuSans-61" x="833.59375"/>
      <use xlink:href="#DejaVuSans-74" x="894.873047"/>
      <use xlink:href="#DejaVuSans-69" x="934.082031"/>
      <use xlink:href="#DejaVuSans-6f" x="961.865234"/>
     </g>
    </g>
   </g>
   <g id="matplotlib.axis_2">
    <g id="ytick_1">
     <g id="line2d_7">
      <path d="M 34.16 288.453725 
L 453.192 288.453725 
" clip-path="url(#pb1e15209a1)" style="fill: none; stroke: #b0b0b0; stroke-width: 0.8; stroke-linecap: square"/>
     </g>
     <g id="line2d_8">
      <defs>
       <path id="mc580559260" d="M 0 0 
L -3.5 0 
" style="stroke: #000000; stroke-width: 0.8"/>
      </defs>
      <g>
       <use xlink:href="#mc580559260" x="34.16" y="288.453725" style="stroke: #000000; stroke-width: 0.8"/>
      </g>
     </g>
    </g>
    <g id="ytick_2">
     <g id="line2d_9">
      <path d="M 34.16 217.796863 
L 453.192 217.796863 
" clip-path="url(#pb1e15209a1)" style="fill: none; stroke: #b0b0b0; stroke-width: 0.8; stroke-linecap: square"/>
     </g>
     <g id="line2d_10">
      <g>
       <use xlink:href="#mc580559260" x="34.16" y="217.796863" style="stroke: #000000; stroke-width: 0.8"/>
      </g>
     </g>
    </g>
    <g id="ytick_3">
     <g id="line2d_11">
      <path d="M 34.16 147.14 
L 453.192 147.14 
" clip-path="url(#pb1e15209a1)" style="fill: none; stroke: #b0b0b0; stroke-width: 0.8; stroke-linecap: square"/>
     </g>
     <g id="line2d_12">
      <g>
       <use xlink:href="#mc580559260" x="34.16" y="147.14" style="stroke: #000000; stroke-width: 0.8"/>
      </g>
     </g>
    </g>
    <g id="ytick_4">
     <g id="line2d_13">
      <path d="M 34.16 76.483137 
L 453.192 76.483137 
" clip-path="url(#pb1e15209a1)" style="fill: none; stroke: #b0b0b0; stroke-width: 0.8; stroke-linecap: square"/>
     </g>
     <g id="line2d_14">
      <g>
       <use xlink:href="#mc580559260" x="34.16" y="76.483137" style="stroke: #000000; stroke-width: 0.8"/>
      </g>
     </g>
    </g>
    <g id="ytick_5">
     <g id="line2d_15">
      <path d="M 34.16 5.826275 
L 453.192 5.826275 
" clip-path="url(#pb1e15209a1)" style="fill: none; stroke: #b0b0b0; stroke-width: 0.8; stroke-linecap: square"/>
     </g>
     <g id="line2d_16">
      <g>
       <use xlink:href="#mc580559260" x="34.16" y="5.826275" style="stroke: #000000; stroke-width: 0.8"/>
      </g>
     </g>
    </g>
    <g id="text_5">
     <!-- proportion of trials -->
     <g transform="translate(19.000625 240.14625) rotate(-90) scale(0.2 -0.2)">
      <defs>
       <path id="DejaVuSans-70" d="M 1159 525 
L 1159 -1331 
L 581 -1331 
L 581 3500 
L 1159 3500 
L 1159 2969 
Q 1341 3281 1617 3432 
Q 1894 3584 2278 3584 
Q 2916 3584 3314 3078 
Q 3713 2572 3713 1747 
Q 3713 922 3314 415 
Q 2916 -91 2278 -91 
Q 1894 -91 1617 61 
Q 1341 213 1159 525 
z
M 3116 1747 
Q 3116 2381 2855 2742 
Q 2594 3103 2138 3103 
Q 1681 3103 1420 2742 
Q 1159 2381 1159 1747 
Q 1159 1113 1420 752 
Q 1681 391 2138 391 
Q 2594 391 2855 752 
Q 3116 1113 3116 1747 
z
" transform="scale(0.015625)"/>
       <path id="DejaVuSans-6e" d="M 3513 2113 
L 3513 0 
L 2938 0 
L 2938 2094 
Q 2938 2591 2744 2837 
Q 2550 3084 2163 3084 
Q 1697 3084 1428 2787 
Q 1159 2491 1159 1978 
L 1159 0 
L 581 0 
L 581 3500 
L 1159 3500 
L 1159 2956 
Q 1366 3272 1645 3428 
Q 1925 3584 2291 3584 
Q 2894 3584 3203 3211 
Q 3513 2838 3513 2113 
z
" transform="scale(0.015625)"/>
      </defs>
      <use xlink:href="#DejaVuSans-70"/>
      <use xlink:href="#DejaVuSans-72" x="63.476562"/>
      <use xlink:href="#DejaVuSans-6f" x="102.339844"/>
      <use xlink:href="#DejaVuSans-70" x="163.521484"/>
      <use xlink:href="#DejaVuSans-6f" x="226.998047"/>
      <use xlink:href="#DejaVuSans-72" x="288.179688"/>
      <use xlink:href="#DejaVuSans-74" x="329.292969"/>
      <use xlink:href="#DejaVuSans-69" x="368.501953"/>
      <use xlink:href="#DejaVuSans-6f" x="396.285156"/>
      <use xlink:href="#DejaVuSans-6e" x="457.466797"/>
      <use xlink:href="#DejaVuSans-20" x="520.845703"/>
      <use xlink:href="#DejaVuSans-6f" x="552.632812"/>
      <use xlink:href="#DejaVuSans-66" x="613.814453"/>
      <use xlink:href="#DejaVuSans-20" x="649.019531"/>
      <use xlink:href="#DejaVuSans-74" x="680.806641"/>
      <use xlink:href="#DejaVuSans-72" x="720.015625"/>
      <use xlink:href="#DejaVuSans-69" x="761.128906"/>
      <use xlink:href="#DejaVuSans-61" x="788.912109"/>
      <use xlink:href="#DejaVuSans-6c" x="850.191406"/>
      <use xlink:href="#DejaVuSans-73" x="877.974609"/>
     </g>
    </g>
   </g>
   <g id="line2d_17">
    <path d="M 34.16 248.4565 
L 51.666946 248.4565 
L 51.666946 248.162403 
L 51.836105 248.162403 
L 51.836105 247.868306 
L 79.905948 247.868306 
L 79.905948 247.574209 
L 80.075107 247.574209 
L 80.075107 247.280111 
L 88.924188 247.280111 
L 88.924188 246.986014 
L 91.328175 246.986014 
L 91.328175 246.691917 
L 91.497334 246.691917 
L 91.497334 246.39782 
L 91.811245 246.39782 
L 91.811245 246.103722 
L 91.980403 246.103722 
L 91.980403 245.809625 
L 94.222969 245.809625 
L 94.222969 245.515528 
L 94.55063 245.515528 
L 94.55063 245.221431 
L 95.069368 245.221431 
L 95.069368 244.927333 
L 101.099607 244.927333 
L 101.099607 244.633236 
L 101.268765 244.633236 
L 101.268765 244.339139 
L 106.886649 244.339139 
L 106.886649 244.045042 
L 108.77886 244.045042 
L 108.77886 243.750944 
L 108.913418 243.750944 
L 108.913418 243.456847 
L 112.6056 243.456847 
L 112.6056 243.16275 
L 112.835313 243.16275 
L 112.835313 242.868653 
L 113.069857 242.868653 
L 113.069857 242.574556 
L 113.56531 242.574556 
L 113.56531 241.986361 
L 113.734469 241.986361 
L 113.734469 241.398167 
L 114.332652 241.398167 
L 114.332652 241.104069 
L 114.50181 241.104069 
L 114.50181 240.809972 
L 117.163189 240.809972 
L 117.163189 240.515875 
L 121.335551 240.515875 
L 121.335551 240.221778 
L 121.50471 240.221778 
L 121.50471 239.92768 
L 128.585417 239.92768 
L 128.585417 239.633583 
L 129.068486 239.633583 
L 129.068486 239.339486 
L 135.125651 239.339486 
L 135.125651 239.045389 
L 137.017861 239.045389 
L 137.017861 238.751291 
L 137.152419 238.751291 
L 137.152419 238.457194 
L 138.356848 238.457194 
L 138.356848 238.163097 
L 146.547878 238.163097 
L 146.547878 237.869 
L 147.030948 237.869 
L 147.030948 237.574902 
L 148.440089 237.574902 
L 148.440089 237.280805 
L 148.574647 237.280805 
L 148.574647 236.986708 
L 148.923158 236.986708 
L 148.923158 236.692611 
L 149.057716 236.692611 
L 149.057716 236.398513 
L 150.822551 236.398513 
L 150.822551 235.810319 
L 151.589893 235.810319 
L 151.589893 235.516222 
L 154.513651 235.516222 
L 154.513651 235.222124 
L 156.31931 235.222124 
L 156.336306 234.63393 
L 158.21152 234.63393 
L 158.21152 234.339833 
L 158.346078 234.339833 
L 158.346078 234.045735 
L 158.592792 234.045735 
L 158.592792 233.751638 
L 167.012385 233.751638 
L 167.012385 233.457541 
L 168.785013 233.457541 
L 168.785013 232.869346 
L 169.552354 232.869346 
L 169.552354 232.575249 
L 170.677224 232.575249 
L 170.677224 231.987055 
L 170.811781 231.987055 
L 170.811781 231.39886 
L 171.444565 231.39886 
L 171.444565 231.104763 
L 171.579123 231.104763 
L 171.579123 230.810666 
L 175.073148 230.810666 
L 175.073148 230.516569 
L 176.555254 230.516569 
L 176.555254 230.222471 
L 177.917103 230.222471 
L 177.917103 229.928374 
L 178.447465 229.928374 
L 178.447465 229.634277 
L 178.582022 229.634277 
L 178.582022 229.34018 
L 181.21044 229.34018 
L 181.21044 229.046082 
L 182.148615 229.046082 
L 182.148615 228.751985 
L 182.752653 228.751985 
L 182.752653 228.457888 
L 183.124579 228.457888 
L 183.124579 228.163791 
L 186.461634 228.163791 
L 186.461634 227.869693 
L 186.630793 227.869693 
L 186.630793 227.575596 
L 187.822051 227.575596 
L 187.877064 226.987402 
L 188.200833 226.987402 
L 188.284354 226.399207 
L 188.369992 226.399207 
L 188.469178 225.811013 
L 188.641045 225.811013 
L 188.641045 225.516915 
L 188.899259 225.516915 
L 188.98848 224.928721 
L 189.7788 224.928721 
L 189.7788 224.634624 
L 189.947959 224.634624 
L 189.947959 224.340526 
L 191.344851 224.340526 
L 191.344851 223.752332 
L 192.56418 223.752332 
L 192.56418 223.458235 
L 194.17488 223.458235 
L 194.17488 223.164137 
L 194.65795 223.164137 
L 194.65795 222.87004 
L 195.028686 222.87004 
L 195.028686 222.575943 
L 195.251387 222.575943 
L 195.251387 222.281846 
L 196.233642 222.281846 
L 196.233642 221.987748 
L 196.653945 221.987748 
L 196.653945 221.693651 
L 197.124779 221.693651 
L 197.124779 221.399554 
L 197.702769 221.399554 
L 197.702769 220.811359 
L 198.376507 220.811359 
L 198.376507 220.517262 
L 199.947281 220.517262 
L 199.947281 220.223165 
L 200.840556 220.223165 
L 200.885457 219.634971 
L 201.861421 219.634971 
L 201.861421 219.340873 
L 203.201656 219.340873 
L 203.310355 218.752679 
L 203.879616 218.752679 
L 203.946312 218.164484 
L 205.775915 218.164484 
L 205.775915 217.870387 
L 206.613906 217.870387 
L 206.673614 217.282193 
L 206.978889 217.282193 
L 207.021196 216.693998 
L 207.134767 216.693998 
L 207.156683 216.105804 
L 207.717013 216.105804 
L 207.717013 215.811706 
L 207.935764 215.811706 
L 207.935764 215.517609 
L 208.971583 215.517609 
L 209.050142 214.929415 
L 209.123736 214.929415 
L 209.2193 214.34122 
L 209.402849 214.34122 
L 209.402849 214.047123 
L 210.081693 214.047123 
L 210.081693 213.458928 
L 210.463326 213.458928 
L 210.534663 212.576637 
L 210.665653 212.576637 
L 210.697348 211.988442 
L 211.2304 211.988442 
L 211.283584 211.400248 
L 211.521711 211.400248 
L 211.521711 211.10615 
L 212.190255 211.10615 
L 212.190255 210.812053 
L 212.696185 210.812053 
L 212.747364 209.929761 
L 213.63436 209.929761 
L 213.63436 209.635664 
L 213.773392 209.635664 
L 213.882484 209.04747 
L 213.887801 209.04747 
L 213.887801 208.753373 
L 214.057584 208.753373 
L 214.057584 208.459275 
L 214.57822 208.459275 
L 214.610324 207.871081 
L 214.711567 207.871081 
L 214.711567 207.576984 
L 214.970484 207.576984 
L 214.970484 207.282886 
L 215.321465 207.282886 
L 215.321465 206.988789 
L 215.687532 206.988789 
L 215.687532 206.694692 
L 215.943032 206.694692 
L 215.943032 206.400595 
L 216.217432 206.400595 
L 216.217432 206.106497 
L 216.412015 206.106497 
L 216.46206 204.341914 
L 216.70818 204.341914 
L 216.70818 204.047817 
L 216.880047 204.047817 
L 216.880047 203.753719 
L 217.179357 203.753719 
L 217.227482 203.165525 
L 217.380622 203.165525 
L 217.380622 202.871428 
L 218.458357 202.871428 
L 218.458357 202.57733 
L 218.669285 202.57733 
L 218.669285 202.283233 
L 218.797288 202.283233 
L 218.816332 201.695039 
L 219.36281 201.695039 
L 219.36281 201.400941 
L 219.512068 201.400941 
L 219.512068 201.106844 
L 219.718812 201.106844 
L 219.80988 199.930455 
L 220.440017 199.930455 
L 220.440017 199.636358 
L 220.803182 199.636358 
L 220.847306 199.048163 
L 221.045683 199.048163 
L 221.045683 198.754066 
L 221.241671 198.754066 
L 221.241671 198.459969 
L 221.651544 198.459969 
L 221.651544 198.165872 
L 221.878661 198.165872 
L 221.878661 197.871774 
L 222.242626 197.871774 
L 222.242626 197.28358 
L 222.616458 197.28358 
L 222.67043 196.695386 
L 222.819634 196.695386 
L 222.830597 195.813094 
L 223.143287 195.813094 
L 223.143287 195.518997 
L 223.454372 195.518997 
L 223.454372 195.224899 
L 223.603133 195.224899 
L 223.603133 194.930802 
L 223.718875 194.930802 
L 223.718875 194.636705 
L 223.907804 194.636705 
L 223.907804 194.04851 
L 224.182256 194.04851 
L 224.182256 193.754413 
L 224.47756 193.754413 
L 224.47756 193.460316 
L 224.743728 193.460316 
L 224.782453 192.872121 
L 224.999365 192.872121 
L 224.999365 192.578024 
L 225.173297 192.578024 
L 225.173297 192.283927 
L 225.36378 192.283927 
L 225.458075 191.695732 
L 225.61422 191.695732 
L 225.61422 191.401635 
L 226.25444 191.401635 
L 226.25444 191.107538 
L 226.491108 191.107538 
L 226.582101 190.225246 
L 226.690261 190.225246 
L 226.690261 189.931149 
L 226.878847 189.931149 
L 226.890494 189.342954 
L 227.036041 189.342954 
L 227.100839 188.75476 
L 227.409232 188.75476 
L 227.409232 188.460663 
L 227.708425 188.460663 
L 227.793414 187.578371 
L 228.07579 187.578371 
L 228.130407 186.990176 
L 228.21312 186.990176 
L 228.302274 186.107885 
L 228.559687 186.107885 
L 228.649709 185.225593 
L 228.785344 185.225593 
L 228.850109 184.343301 
L 228.908856 184.343301 
L 229.013965 183.166912 
L 229.06765 183.166912 
L 229.132779 182.578718 
L 229.188514 182.578718 
L 229.29781 181.108232 
L 229.351839 181.108232 
L 229.351839 180.814134 
L 229.544517 180.814134 
L 229.544517 180.520037 
L 229.67809 180.520037 
L 229.67809 180.22594 
L 229.933213 180.22594 
L 229.989929 179.637745 
L 230.226667 179.637745 
L 230.265722 178.755454 
L 230.404957 178.755454 
L 230.404957 178.461356 
L 230.533763 178.461356 
L 230.533763 178.167259 
L 230.764457 178.167259 
L 230.802392 177.579065 
L 230.927097 177.579065 
L 230.971551 176.99087 
L 231.057779 176.99087 
L 231.141235 176.402676 
L 231.259337 176.402676 
L 231.365435 175.814481 
L 231.424956 175.814481 
L 231.484206 174.93219 
L 231.611797 174.93219 
L 231.704366 174.343995 
L 231.792913 174.343995 
L 231.853023 173.755801 
L 232.044123 173.755801 
L 232.144745 173.167606 
L 232.225409 173.167606 
L 232.225409 172.873509 
L 232.591146 172.873509 
L 232.693612 172.285314 
L 232.708479 172.285314 
L 232.791198 171.69712 
L 232.989856 171.69712 
L 232.999921 170.814828 
L 233.102508 170.814828 
L 233.181752 170.226634 
L 233.529321 170.226634 
L 233.566863 169.638439 
L 233.767162 169.638439 
L 233.767162 169.344342 
L 233.952761 169.344342 
L 233.964334 168.756147 
L 234.112278 168.756147 
L 234.140516 168.167953 
L 234.303265 168.167953 
L 234.303265 167.873856 
L 234.505286 167.873856 
L 234.505286 167.579758 
L 234.660071 167.579758 
L 234.742414 166.991564 
L 234.999002 166.991564 
L 234.999002 166.697467 
L 235.149704 166.697467 
L 235.160515 165.521078 
L 235.292511 165.521078 
L 235.373769 164.344689 
L 235.468598 164.344689 
L 235.468598 164.050591 
L 235.594441 164.050591 
L 235.594441 163.756494 
L 235.726712 163.756494 
L 235.726712 163.462397 
L 235.988248 163.462397 
L 236.075083 162.874203 
L 236.23581 162.874203 
L 236.275635 162.286008 
L 236.395845 162.286008 
L 236.442569 161.697814 
L 236.545645 161.697814 
L 236.55166 161.109619 
L 236.68099 161.109619 
L 236.786008 160.521425 
L 237.086184 160.521425 
L 237.086184 160.227327 
L 237.247397 160.227327 
L 237.33402 159.050938 
L 237.376405 159.050938 
L 237.376405 158.756841 
L 237.748603 158.756841 
L 237.748603 158.168647 
L 237.901838 158.168647 
L 237.901838 157.874549 
L 238.073706 157.874549 
L 238.073706 157.580452 
L 238.210201 157.580452 
L 238.309984 156.404063 
L 238.325611 156.404063 
L 238.42114 155.815869 
L 238.44434 155.815869 
L 238.519648 154.63948 
L 238.751136 154.63948 
L 238.761934 154.051285 
L 238.926937 154.051285 
L 239.021348 153.168993 
L 239.046126 153.168993 
L 239.090066 152.580799 
L 239.224778 152.580799 
L 239.330001 151.698507 
L 239.665061 151.698507 
L 239.700109 151.110313 
L 239.81488 151.110313 
L 239.89173 150.522118 
L 240.079313 150.522118 
L 240.079313 150.228021 
L 240.230661 150.228021 
L 240.230661 149.933924 
L 240.440111 149.933924 
L 240.440111 149.639827 
L 240.615503 149.639827 
L 240.676074 149.051632 
L 240.821744 149.051632 
L 240.821744 148.463438 
L 241.219908 148.463438 
L 241.219908 148.16934 
L 241.338462 148.16934 
L 241.338462 147.875243 
L 241.681337 147.875243 
L 241.736311 147.287049 
L 241.974728 147.287049 
L 242.004084 145.816562 
L 242.206873 145.816562 
L 242.254755 145.228368 
L 242.411374 145.228368 
L 242.479057 144.640173 
L 242.532737 144.640173 
L 242.56589 143.463784 
L 242.725558 143.463784 
L 242.725558 142.87559 
L 242.860399 142.87559 
L 242.860399 142.581493 
L 243.062469 142.581493 
L 243.112413 141.699201 
L 243.192931 141.699201 
L 243.214402 141.111007 
L 243.379136 141.111007 
L 243.469759 140.228715 
L 243.573548 140.228715 
L 243.676 139.052326 
L 243.708105 139.052326 
L 243.708105 138.758229 
L 243.910139 138.758229 
L 243.910139 138.464131 
L 244.057633 138.464131 
L 244.057633 138.170034 
L 244.168895 138.170034 
L 244.253007 137.287742 
L 244.557303 137.287742 
L 244.637071 135.817256 
L 244.707354 135.817256 
L 244.753207 135.229062 
L 244.866784 135.229062 
L 244.945464 134.640867 
L 244.998503 134.640867 
L 245.101328 133.758575 
L 245.175176 133.758575 
L 245.269364 133.170381 
L 245.310316 133.170381 
L 245.420146 131.993992 
L 245.428559 131.993992 
L 245.471871 130.523506 
L 245.835849 130.523506 
L 245.942433 129.935311 
L 246.307383 129.935311 
L 246.409392 129.347117 
L 246.530256 129.347117 
L 246.572958 128.170728 
L 246.795996 128.170728 
L 246.890714 127.288436 
L 246.911889 127.288436 
L 246.911889 126.994339 
L 247.025271 126.994339 
L 247.025271 126.700242 
L 247.279065 126.700242 
L 247.38271 126.112047 
L 247.614349 126.112047 
L 247.668542 125.523853 
L 247.793192 125.523853 
L 247.901135 124.935658 
L 248.001204 124.935658 
L 248.001204 124.641561 
L 248.345352 124.641561 
L 248.442914 123.759269 
L 248.70776 123.759269 
L 248.70776 123.465172 
L 248.865485 123.465172 
L 248.92138 121.994686 
L 249.083476 121.994686 
L 249.178322 120.524199 
L 249.32867 120.524199 
L 249.360429 119.936005 
L 249.442492 119.936005 
L 249.442492 119.641908 
L 250.308518 119.641908 
L 250.367542 117.877324 
L 250.501024 117.877324 
L 250.539409 116.995033 
L 250.647449 116.995033 
L 250.744966 116.406838 
L 250.886844 116.406838 
L 250.934235 115.230449 
L 251.134883 115.230449 
L 251.223085 114.642255 
L 251.306751 114.642255 
L 251.306751 114.348157 
L 251.419047 114.348157 
L 251.419047 114.05406 
L 251.562016 114.05406 
L 251.654185 113.171768 
L 251.678803 113.171768 
L 251.693647 112.583574 
L 251.829789 112.583574 
L 251.829789 111.995379 
L 252.032578 111.995379 
L 252.032578 111.701282 
L 252.389167 111.701282 
L 252.389167 111.113088 
L 252.551263 111.113088 
L 252.638577 110.524893 
L 252.888174 110.524893 
L 252.895844 109.642601 
L 253.021824 109.642601 
L 253.021824 109.348504 
L 253.785137 109.348504 
L 253.810412 108.76031 
L 254.092787 108.76031 
L 254.194128 107.878018 
L 254.280974 107.878018 
L 254.331283 107.289824 
L 254.462544 107.289824 
L 254.533059 106.113435 
L 254.669795 106.113435 
L 254.762549 105.52524 
L 255.007355 105.52524 
L 255.007355 104.937046 
L 255.229885 104.937046 
L 255.260323 103.760657 
L 255.477917 103.760657 
L 255.584362 102.29017 
L 255.690509 102.29017 
L 255.690509 101.996073 
L 255.823026 101.996073 
L 255.931913 101.407879 
L 256.054924 101.407879 
L 256.054924 101.113781 
L 256.567427 101.113781 
L 256.567427 100.819684 
L 256.781455 100.819684 
L 256.870088 100.23149 
L 257.182252 100.23149 
L 257.277958 99.643295 
L 257.846052 99.643295 
L 257.846052 99.349198 
L 257.978398 99.349198 
L 258.055885 98.172809 
L 258.137783 98.172809 
L 258.137783 97.878712 
L 258.30965 97.878712 
L 258.30965 97.584614 
L 258.449135 97.584614 
L 258.555405 96.99642 
L 258.657085 96.99642 
L 258.747085 96.114128 
L 258.93643 96.114128 
L 259.023142 94.937739 
L 259.055605 94.937739 
L 259.065021 94.349545 
L 259.558586 94.349545 
L 259.612714 93.467253 
L 259.790484 93.467253 
L 259.794309 92.879059 
L 259.970024 92.879059 
L 259.970024 92.584961 
L 260.473153 92.584961 
L 260.473153 92.290864 
L 260.805575 92.290864 
L 260.915369 91.70267 
L 260.917811 91.70267 
L 260.943715 91.114475 
L 261.145081 91.114475 
L 261.145081 90.820378 
L 261.379625 90.820378 
L 261.431111 90.232183 
L 261.832379 90.232183 
L 261.832379 89.938086 
L 262.232785 89.938086 
L 262.331659 89.055794 
L 262.598538 89.055794 
L 262.598538 88.761697 
L 262.814728 88.761697 
L 262.832838 88.173503 
L 262.939671 88.173503 
L 263.005827 87.585308 
L 263.087645 87.585308 
L 263.087645 87.291211 
L 263.389947 87.291211 
L 263.444196 86.703016 
L 263.570961 86.703016 
L 263.570961 86.408919 
L 264.02582 86.408919 
L 264.12807 85.526627 
L 264.269845 85.526627 
L 264.269845 85.23253 
L 264.72251 85.23253 
L 264.803422 84.644336 
L 264.923932 84.644336 
L 265.001784 84.056141 
L 265.037087 84.056141 
L 265.129799 83.467947 
L 266.013051 83.467947 
L 266.066325 82.585655 
L 266.162055 82.585655 
L 266.162055 82.291558 
L 266.296613 82.291558 
L 266.317274 81.703363 
L 266.793383 81.703363 
L 266.874383 81.115169 
L 267.37566 81.115169 
L 267.37566 80.821072 
L 267.873519 80.821072 
L 267.932769 80.232877 
L 268.059633 80.232877 
L 268.059633 79.93878 
L 268.190297 79.93878 
L 268.190297 79.350585 
L 269.033131 79.350585 
L 269.033131 78.762391 
L 269.741749 78.762391 
L 269.800472 77.880099 
L 270.161559 77.880099 
L 270.161559 77.586002 
L 270.298858 77.586002 
L 270.298858 76.997807 
L 270.765536 76.997807 
L 270.765536 76.70371 
L 270.955116 76.70371 
L 270.955116 76.409613 
L 271.172826 76.409613 
L 271.172826 76.115516 
L 272.10309 76.115516 
L 272.10309 75.821418 
L 272.424242 75.821418 
L 272.424242 75.233224 
L 273.079088 75.233224 
L 273.079088 74.939127 
L 273.222057 74.939127 
L 273.234571 74.056835 
L 273.534747 74.056835 
L 273.534747 73.762738 
L 273.646679 73.762738 
L 273.646679 73.468641 
L 273.79168 73.468641 
L 273.79168 73.174543 
L 274.233323 73.174543 
L 274.233323 72.586349 
L 274.548214 72.586349 
L 274.548214 71.998154 
L 276.803372 71.998154 
L 276.803372 71.704057 
L 277.270307 71.704057 
L 277.270307 71.40996 
L 278.110848 71.40996 
L 278.110848 71.115863 
L 278.580527 71.115863 
L 278.60109 70.527668 
L 279.122114 70.527668 
L 279.122114 70.233571 
L 279.579974 70.233571 
L 279.579974 69.645376 
L 280.506196 69.645376 
L 280.591241 68.763085 
L 280.725062 68.763085 
L 280.725062 68.468987 
L 283.021521 68.468987 
L 283.021521 68.17489 
L 283.360452 68.17489 
L 283.360452 67.880793 
L 284.241755 67.880793 
L 284.349698 67.292598 
L 284.568794 67.292598 
L 284.568794 66.704404 
L 285.336135 66.704404 
L 285.336135 66.410307 
L 285.608847 66.410307 
L 285.608847 66.116209 
L 285.756822 66.116209 
L 285.756822 65.822112 
L 286.022095 65.822112 
L 286.022095 65.528015 
L 286.768088 65.528015 
L 286.80579 64.645723 
L 286.911728 64.645723 
L 286.911728 64.351626 
L 287.382798 64.351626 
L 287.468837 63.763431 
L 287.914305 63.763431 
L 287.977315 63.175237 
L 288.048863 63.175237 
L 288.048863 62.88114 
L 289.0357 62.88114 
L 289.0357 62.587043 
L 289.308339 62.587043 
L 289.308339 62.292945 
L 289.592809 62.292945 
L 289.592809 61.998848 
L 291.047538 61.998848 
L 291.047538 61.704751 
L 291.213204 61.704751 
L 291.213204 61.410654 
L 292.271589 61.410654 
L 292.339035 60.822459 
L 292.625505 60.822459 
L 292.625505 60.528362 
L 293.630815 60.528362 
L 293.728529 59.940167 
L 294.06746 59.940167 
L 294.06746 59.351973 
L 294.624569 59.351973 
L 294.624569 59.057876 
L 295.056706 59.057876 
L 295.078727 58.469681 
L 295.635835 58.469681 
L 295.635835 58.175584 
L 296.315856 58.175584 
L 296.315856 57.881487 
L 297.512799 57.881487 
L 297.512799 57.293292 
L 298.089806 57.293292 
L 298.089806 56.999195 
L 301.807073 56.999195 
L 301.807073 56.705098 
L 302.978597 56.705098 
L 302.978597 56.411 
L 303.546272 56.411 
L 303.546272 56.116903 
L 304.337823 56.116903 
L 304.337823 55.822806 
L 305.124239 55.822806 
L 305.124239 55.528709 
L 311.896847 55.528709 
L 311.896847 55.234611 
L 323.263866 55.234611 
L 323.263866 54.940514 
L 323.435733 54.940514 
L 323.435733 54.646417 
L 323.783168 54.646417 
L 323.783168 54.35232 
L 324.39558 54.35232 
L 324.39558 54.058222 
L 325.003065 54.058222 
L 325.003065 53.764125 
L 325.174932 53.764125 
L 325.174932 53.470028 
L 325.522367 53.470028 
L 325.522367 53.175931 
L 326.581032 53.175931 
L 326.581032 52.881833 
L 326.752899 52.881833 
L 326.752899 52.587736 
L 327.100334 52.587736 
L 327.100334 52.293639 
L 327.358868 52.293639 
L 327.358868 51.999542 
L 329.098067 51.999542 
L 329.098067 51.705444 
L 330.676034 51.705444 
L 330.676034 51.411347 
L 331.919466 51.411347 
L 331.919466 51.11725 
L 333.649097 51.11725 
L 333.658666 50.529056 
L 335.236632 50.529056 
L 335.236632 50.234958 
L 341.929455 50.234958 
L 341.929455 49.940861 
L 342.697124 49.940861 
L 342.697124 49.646764 
L 343.005517 49.646764 
L 343.005517 49.352667 
L 343.668654 49.352667 
L 343.668654 49.058569 
L 345.246621 49.058569 
L 345.246621 48.764472 
L 345.852373 48.764472 
L 345.852373 48.470375 
L 346.024241 48.470375 
L 346.024241 48.176278 
L 346.14783 48.176278 
L 346.14783 47.88218 
L 346.371675 47.88218 
L 346.371675 47.588083 
L 349.947375 47.588083 
L 349.947375 47.293986 
L 353.273142 47.293986 
L 353.273142 46.999889 
L 353.581535 46.999889 
L 353.581535 46.705791 
L 354.507974 46.705791 
L 354.507974 46.411694 
L 357.465117 46.411694 
L 357.465117 46.117597 
L 358.975422 46.117597 
L 358.975422 45.8235 
L 359.204317 45.8235 
L 359.204317 45.529402 
L 360.782284 45.529402 
L 360.782284 45.235305 
L 364.517962 45.235305 
L 364.517962 44.941208 
L 367.604624 44.941208 
L 367.604624 44.647111 
L 367.776491 44.647111 
L 367.776491 44.353013 
L 368.123926 44.353013 
L 368.123926 44.058916 
L 369.551439 44.058916 
L 369.551439 43.764819 
L 371.699626 43.764819 
L 371.699626 43.470722 
L 372.471582 43.470722 
L 372.471582 43.176624 
L 372.779975 43.176624 
L 372.779975 42.882527 
L 376.260224 42.882527 
L 376.260224 42.58843 
L 380.053625 42.58843 
L 380.053625 42.294333 
L 386.270212 42.294333 
L 386.270212 42.000235 
L 388.749879 42.000235 
L 388.749879 41.706138 
L 401.805875 41.706138 
L 401.805875 41.412041 
L 453.192 41.412041 
L 453.192 41.412041 
" clip-path="url(#pb1e15209a1)" style="fill: none; stroke: #000000; stroke-width: 3; stroke-linecap: square"/>
   </g>
   <g id="line2d_18">
    <path clip-path="url(#pb1e15209a1)" style="fill: none; stroke: #000000; stroke-width: 3; stroke-linecap: square"/>
   </g>
   <g id="line2d_19">
    <path d="M 34.16 274.220688 
L 117.850103 274.220688 
L 117.850103 273.81403 
L 119.90659 273.81403 
L 119.969392 273.000714 
L 124.498603 273.000714 
L 124.498603 272.594056 
L 126.55509 272.594056 
L 126.617893 271.780739 
L 137.77981 271.780739 
L 137.77981 271.374081 
L 144.42831 271.374081 
L 144.42831 270.967423 
L 151.628564 270.967423 
L 151.628564 270.560765 
L 152.518287 270.560765 
L 152.57671 269.747448 
L 152.678392 269.747448 
L 152.678392 269.34079 
L 153.841375 269.34079 
L 153.841375 268.934132 
L 154.575714 268.934132 
L 154.575714 268.527474 
L 159.069343 268.527474 
L 159.069343 268.120815 
L 159.959066 268.120815 
L 160.017489 267.307499 
L 160.119171 267.307499 
L 160.119171 266.900841 
L 160.489876 266.900841 
L 160.489876 266.494183 
L 161.224215 266.494183 
L 161.224215 266.087524 
L 171.131198 266.087524 
L 171.236677 265.274208 
L 171.2728 265.274208 
L 171.363343 264.460892 
L 172.215668 264.460892 
L 172.215668 264.054233 
L 172.829716 264.054233 
L 172.895912 263.240917 
L 173.059338 263.240917 
L 173.059338 262.834259 
L 173.3659 262.834259 
L 173.3659 262.427601 
L 173.759588 262.427601 
L 173.759588 262.020942 
L 174.272154 262.020942 
L 174.334957 261.207626 
L 175.992753 261.207626 
L 175.992753 260.800968 
L 176.183912 260.800968 
L 176.183912 260.394309 
L 178.571977 260.394309 
L 178.677456 259.580993 
L 178.713579 259.580993 
L 178.804122 258.767677 
L 179.544412 258.767677 
L 179.544412 258.361018 
L 180.014401 258.361018 
L 180.014401 257.95436 
L 180.270495 257.95436 
L 180.270495 257.547702 
L 180.408089 257.547702 
L 180.500116 256.734386 
L 182.641253 256.734386 
L 182.641253 256.327727 
L 182.832413 256.327727 
L 182.832413 255.921069 
L 185.668976 255.921069 
L 185.668976 255.514411 
L 186.623695 255.514411 
L 186.623695 255.107753 
L 187.725462 255.107753 
L 187.788265 254.294436 
L 188.680181 254.294436 
L 188.742984 253.48112 
L 192.145374 253.48112 
L 192.145374 253.074462 
L 198.749149 253.074462 
L 198.749149 252.667804 
L 205.39765 252.667804 
L 205.39765 252.261145 
L 205.598682 252.261145 
L 205.598682 251.854487 
L 206.367708 251.854487 
L 206.367708 251.447829 
L 206.553401 251.447829 
L 206.63108 250.634513 
L 207.208772 250.634513 
L 207.208772 250.227854 
L 208.20694 250.227854 
L 208.20694 249.821196 
L 208.424195 249.821196 
L 208.486997 249.00788 
L 208.687567 249.00788 
L 208.750369 248.194563 
L 208.941279 248.194563 
L 208.941279 247.787905 
L 209.265259 247.787905 
L 209.328062 246.974589 
L 214.679104 246.974589 
L 214.679104 246.567931 
L 215.395459 246.567931 
L 215.395459 246.161272 
L 215.568827 246.161272 
L 215.62725 244.941298 
L 215.728932 244.941298 
L 215.728932 244.53464 
L 216.864143 244.53464 
L 216.864143 244.127981 
L 217.753866 244.127981 
L 217.81229 243.314665 
L 217.913972 243.314665 
L 217.913972 242.908007 
L 221.060384 242.908007 
L 221.060384 242.501349 
L 221.660248 242.501349 
L 221.660248 242.09469 
L 221.950107 242.09469 
L 222.008531 241.281374 
L 222.110213 241.281374 
L 222.110213 240.874716 
L 222.394587 240.874716 
L 222.394587 240.468058 
L 222.614967 240.468058 
L 222.614967 240.061399 
L 223.349306 240.061399 
L 223.418451 239.248083 
L 223.614543 239.248083 
L 223.614543 238.841425 
L 223.852221 238.841425 
L 223.852221 238.434767 
L 224.116824 238.434767 
L 224.178499 237.62145 
L 225.006547 237.62145 
L 225.068223 236.401476 
L 225.126646 236.401476 
L 225.228328 235.181501 
L 225.267532 235.181501 
L 225.267532 234.774843 
L 225.424065 234.774843 
L 225.48518 233.961526 
L 225.908708 233.961526 
L 225.971511 233.14821 
L 226.157255 233.14821 
L 226.215678 232.334893 
L 226.297415 232.334893 
L 226.380133 230.301602 
L 226.473893 230.301602 
L 226.560787 229.488286 
L 226.855877 229.488286 
L 226.855877 229.081628 
L 227.138479 229.081628 
L 227.138479 228.67497 
L 227.261477 228.67497 
L 227.328279 227.454995 
L 227.429961 227.454995 
L 227.526098 226.641679 
L 227.72219 226.641679 
L 227.804023 225.015046 
L 227.905705 225.015046 
L 227.905705 224.608388 
L 228.125153 224.608388 
L 228.125153 224.201729 
L 228.82494 224.201729 
L 228.927154 223.388413 
L 229.172315 223.388413 
L 229.251512 222.575097 
L 230.016387 222.575097 
L 230.016387 222.168438 
L 230.358317 222.168438 
L 230.358317 221.76178 
L 230.549477 221.76178 
L 230.655836 220.541806 
L 230.824575 220.541806 
L 230.90611 219.728489 
L 230.964533 219.728489 
L 231.066215 218.101856 
L 231.523556 218.101856 
L 231.523567 217.28854 
L 232.925958 217.28854 
L 232.925958 216.881882 
L 233.393531 216.881882 
L 233.393531 216.475224 
L 234.181738 216.475224 
L 234.287217 215.661907 
L 234.32334 215.661907 
L 234.413883 214.848591 
L 235.766533 214.848591 
L 235.766533 214.441933 
L 235.880256 214.441933 
L 235.880256 214.035274 
L 236.109877 214.035274 
L 236.109877 213.628616 
L 236.265719 213.628616 
L 236.366777 212.8153 
L 236.472257 212.8153 
L 236.508379 212.001983 
L 236.598922 212.001983 
L 236.598922 211.595325 
L 237.195307 211.595325 
L 237.274504 210.782009 
L 238.065296 210.782009 
L 238.065296 210.375351 
L 238.294917 210.375351 
L 238.351583 209.562034 
L 238.547675 209.562034 
L 238.567512 208.748718 
L 238.678828 208.748718 
L 238.678828 208.34206 
L 238.964334 208.34206 
L 238.964334 207.935401 
L 239.546559 207.935401 
L 239.546559 207.528743 
L 240.563018 207.528743 
L 240.668498 206.715427 
L 240.70462 206.715427 
L 240.795163 205.088794 
L 240.83431 205.088794 
L 240.935273 204.275478 
L 241.103047 204.275478 
L 241.184773 203.462161 
L 241.302954 203.462161 
L 241.382151 202.242186 
L 241.578461 202.242186 
L 241.669504 201.42887 
L 241.785814 201.42887 
L 241.785814 201.022212 
L 242.139492 201.022212 
L 242.139492 200.615554 
L 242.261536 200.615554 
L 242.35898 199.802237 
L 242.491158 199.802237 
L 242.53318 198.988921 
L 242.622353 198.988921 
L 242.675537 198.175604 
L 242.73396 198.175604 
L 242.835642 196.95563 
L 243.093319 196.95563 
L 243.200045 196.142313 
L 243.356691 196.142313 
L 243.447344 194.922339 
L 243.619458 194.922339 
L 243.724938 192.889048 
L 243.76106 192.889048 
L 243.851603 190.04244 
L 243.913279 190.04244 
L 244.002785 188.822466 
L 244.405339 188.822466 
L 244.498728 187.195833 
L 244.766344 187.195833 
L 244.875645 185.975858 
L 244.911768 185.975858 
L 245.002311 184.349226 
L 245.032178 184.349226 
L 245.068301 183.535909 
L 245.158844 183.535909 
L 245.158844 183.129251 
L 245.317977 183.129251 
L 245.40356 181.09596 
L 245.446875 181.09596 
L 245.548557 179.469327 
L 245.609273 179.469327 
L 245.652934 178.656011 
L 245.849026 178.656011 
L 245.88886 177.436036 
L 245.988246 177.436036 
L 246.024369 176.216062 
L 246.114912 176.216062 
L 246.114912 175.809403 
L 246.34975 175.809403 
L 246.358511 174.996087 
L 246.46399 174.996087 
L 246.545842 173.369454 
L 246.590656 173.369454 
L 246.698306 172.149479 
L 246.756592 172.149479 
L 246.854839 171.336163 
L 247.581285 171.336163 
L 247.581285 170.929505 
L 247.751547 170.929505 
L 247.810906 170.116188 
L 247.897173 170.116188 
L 247.897173 169.70953 
L 248.057029 169.70953 
L 248.057029 169.302872 
L 248.28665 169.302872 
L 248.28665 168.896214 
L 248.856861 168.896214 
L 248.948129 168.082897 
L 249.519021 168.082897 
L 249.6245 167.269581 
L 249.660623 167.269581 
L 249.751166 166.456265 
L 250.3245 166.456265 
L 250.3245 166.049606 
L 250.999558 166.049606 
L 250.999558 165.642948 
L 251.217539 165.642948 
L 251.217539 165.23629 
L 251.44716 165.23629 
L 251.44716 164.829632 
L 252.128439 164.829632 
L 252.207637 164.016315 
L 253.114714 164.016315 
L 253.114714 163.609657 
L 253.611961 163.609657 
L 253.611961 163.202999 
L 254.479692 163.202999 
L 254.516037 162.389683 
L 254.595234 162.389683 
L 254.595234 161.983024 
L 255.596629 161.983024 
L 255.596629 161.576366 
L 255.999558 161.576366 
L 255.999558 161.169708 
L 256.86729 161.169708 
L 256.86729 160.76305 
L 258.722658 160.76305 
L 258.722658 160.356392 
L 259.42979 160.356392 
L 259.508987 159.543075 
L 259.843494 159.543075 
L 259.843494 159.136417 
L 260.126606 159.136417 
L 260.205803 158.323101 
L 260.577832 158.323101 
L 260.577832 157.916442 
L 260.913311 157.916442 
L 260.913311 157.509784 
L 261.110256 157.509784 
L 261.110256 157.103126 
L 261.257761 157.103126 
L 261.288448 156.28981 
L 261.393927 156.28981 
L 261.43005 155.069835 
L 261.520593 155.069835 
L 261.610127 154.256519 
L 261.676889 154.256519 
L 261.781042 153.443202 
L 261.883505 153.443202 
L 261.883505 153.036544 
L 262.146877 153.036544 
L 262.254581 152.223228 
L 262.277193 152.223228 
L 262.277193 151.816569 
L 262.477859 151.816569 
L 262.540565 151.003253 
L 262.724569 151.003253 
L 262.724569 150.596595 
L 262.986966 150.596595 
L 262.986966 150.189937 
L 263.118258 150.189937 
L 263.216588 149.37662 
L 263.675451 149.37662 
L 263.675451 148.969962 
L 263.871543 148.969962 
L 263.958048 148.156646 
L 264.001362 148.156646 
L 264.106842 146.530013 
L 264.142964 146.530013 
L 264.233507 145.310038 
L 264.510358 145.310038 
L 264.602739 144.496722 
L 264.701517 144.496722 
L 264.798831 143.276747 
L 264.918427 143.276747 
L 264.964889 142.463431 
L 265.351422 142.463431 
L 265.351422 142.056772 
L 265.542582 142.056772 
L 265.652765 141.243456 
L 265.656566 141.243456 
L 265.69988 140.43014 
L 265.886188 140.43014 
L 265.929502 139.616823 
L 266.024009 139.616823 
L 266.024009 139.210165 
L 266.568022 139.210165 
L 266.568022 138.803507 
L 266.720825 138.803507 
L 266.720825 138.396849 
L 267.522741 138.396849 
L 267.522741 137.99019 
L 277.319327 137.99019 
L 277.319327 137.583532 
L 277.452307 137.583532 
L 277.531504 136.770216 
L 278.053666 136.770216 
L 278.053666 136.363558 
L 278.379595 136.363558 
L 278.458793 135.550241 
L 278.89803 135.550241 
L 278.935828 134.736925 
L 279.368018 134.736925 
L 279.368018 134.330267 
L 279.761707 134.330267 
L 279.863117 133.110292 
L 280.730848 133.110292 
L 280.730848 132.703634 
L 281.994871 132.703634 
L 281.994871 132.296976 
L 282.186031 132.296976 
L 282.186031 131.890317 
L 283.972963 131.890317 
L 284.046526 131.077001 
L 284.442951 131.077001 
L 284.442951 130.670343 
L 284.836639 130.670343 
L 284.836639 130.263685 
L 284.973814 130.263685 
L 284.973814 129.857026 
L 287.069804 129.857026 
L 287.069804 129.450368 
L 287.260963 129.450368 
L 287.266754 128.637052 
L 287.530126 128.637052 
L 287.530126 128.230394 
L 288.107819 128.230394 
L 288.107819 127.823735 
L 288.535719 127.823735 
L 288.535719 127.417077 
L 290.720759 127.417077 
L 290.720759 127.010419 
L 291.87548 127.010419 
L 291.87548 126.603761 
L 294.060519 126.603761 
L 294.060519 126.197103 
L 294.574095 126.197103 
L 294.574095 125.790444 
L 294.917 125.790444 
L 294.917 125.383786 
L 295.468612 125.383786 
L 295.468612 124.977128 
L 296.373863 124.977128 
L 296.44407 124.163812 
L 296.759135 124.163812 
L 296.843851 123.350495 
L 297.23754 123.350495 
L 297.23754 122.943837 
L 297.97344 122.943837 
L 298.041565 121.723862 
L 298.25676 121.723862 
L 298.25676 121.317204 
L 298.62911 121.317204 
L 298.62911 120.910546 
L 299.124148 120.910546 
L 299.124148 120.503888 
L 299.280681 120.503888 
L 299.280681 120.09723 
L 299.470704 120.09723 
L 299.470704 119.690571 
L 299.661864 119.690571 
L 299.661864 119.283913 
L 300.236748 119.283913 
L 300.236748 118.877255 
L 300.712493 118.877255 
L 300.712493 118.470597 
L 300.955376 118.470597 
L 300.955376 118.063938 
L 301.3132 118.063938 
L 301.374876 117.250622 
L 301.618052 117.250622 
L 301.618052 116.843964 
L 302.463908 116.843964 
L 302.463908 116.437306 
L 302.620441 116.437306 
L 302.620441 116.030647 
L 302.825351 116.030647 
L 302.825351 115.623989 
L 303.313693 115.623989 
L 303.313693 115.217331 
L 303.576509 115.217331 
L 303.576509 114.810673 
L 303.803092 114.810673 
L 303.873003 113.997356 
L 304.011816 113.997356 
L 304.073491 112.777382 
L 304.751267 112.777382 
L 304.751267 112.370724 
L 305.162524 112.370724 
L 305.162524 111.964065 
L 305.319057 111.964065 
L 305.319057 111.557407 
L 305.881791 111.557407 
L 305.943466 110.744091 
L 306.275124 110.744091 
L 306.275124 110.337433 
L 306.750869 110.337433 
L 306.750869 109.930774 
L 307.032499 109.930774 
L 307.032499 109.524116 
L 307.189032 109.524116 
L 307.212763 108.7108 
L 307.999332 108.7108 
L 307.999332 108.304142 
L 308.145099 108.304142 
L 308.145099 107.897483 
L 308.620844 107.897483 
L 308.620844 107.490825 
L 308.92192 107.490825 
L 308.92192 107.084167 
L 309.8262 107.084167 
L 309.911379 105.864192 
L 311.055773 105.864192 
L 311.117448 105.050876 
L 311.494873 105.050876 
L 311.494873 104.644218 
L 311.781354 104.644218 
L 311.781354 104.23756 
L 312.20648 104.23756 
L 312.20648 103.830901 
L 312.363013 103.830901 
L 312.449592 103.017585 
L 313.319081 103.017585 
L 313.319081 102.610927 
L 313.794825 102.610927 
L 313.794825 102.204269 
L 315.64243 102.204269 
L 315.64243 101.79761 
L 316.767001 101.79761 
L 316.767001 101.390952 
L 316.955335 101.390952 
L 316.955335 100.984294 
L 317.72172 100.984294 
L 317.72172 100.577636 
L 318.31203 100.577636 
L 318.355344 99.764319 
L 318.98219 99.764319 
L 318.98219 99.357661 
L 321.65179 99.357661 
L 321.695104 98.137687 
L 322.227101 98.137687 
L 322.227101 97.731028 
L 323.550781 97.731028 
L 323.550781 97.32437 
L 324.350406 97.32437 
L 324.39372 96.511054 
L 326.220381 96.511054 
L 326.263695 95.697737 
L 328.724762 95.697737 
L 328.724762 95.291079 
L 329.620652 95.291079 
L 329.620652 94.884421 
L 329.884024 94.884421 
L 329.884024 94.477763 
L 330.461716 94.477763 
L 330.461716 94.071105 
L 331.394362 94.071105 
L 331.437676 93.257788 
L 332.193605 93.257788 
L 332.193605 92.85113 
L 332.456977 92.85113 
L 332.456977 92.444472 
L 333.034669 92.444472 
L 333.034669 92.037814 
L 337.465734 92.037814 
L 337.465734 91.631155 
L 337.729106 91.631155 
L 337.729106 91.224497 
L 338.306798 91.224497 
L 338.306798 90.817839 
L 347.105165 90.817839 
L 347.105165 90.411181 
L 349.678118 90.411181 
L 349.678118 90.004522 
L 352.180098 90.004522 
L 352.180098 89.597864 
L 354.753051 89.597864 
L 354.753051 89.191206 
L 354.950247 89.191206 
L 354.950247 88.784548 
L 360.02518 88.784548 
L 360.02518 88.37789 
L 364.580998 88.37789 
L 364.580998 87.971231 
L 367.153951 87.971231 
L 367.153951 87.564573 
L 372.42608 87.564573 
L 372.42608 87.157915 
L 453.192 87.157915 
L 453.192 87.157915 
" clip-path="url(#pb1e15209a1)" style="fill: none; stroke: #00bfbf; stroke-width: 3; stroke-linecap: square"/>
   </g>
   <g id="line2d_20">
    <path clip-path="url(#pb1e15209a1)" style="fill: none; stroke: #00bfbf; stroke-width: 3; stroke-linecap: square"/>
   </g>
   <g id="line2d_21">
    <path d="M 34.16 253.288098 
L 126.662284 253.288098 
L 126.662284 252.853954 
L 128.689493 252.853954 
L 128.689493 252.419811 
L 128.853211 252.419811 
L 128.853211 251.985667 
L 129.969788 251.985667 
L 129.969788 251.551524 
L 131.996997 251.551524 
L 131.996997 251.11738 
L 132.160715 251.11738 
L 132.160715 250.683237 
L 146.526372 250.683237 
L 146.526372 250.249093 
L 149.833876 250.249093 
L 149.833876 249.81495 
L 162.567177 249.81495 
L 162.567177 249.380806 
L 163.251339 249.380806 
L 163.251339 248.946662 
L 165.87468 248.946662 
L 165.87468 248.512519 
L 166.558843 248.512519 
L 166.558843 248.078375 
L 182.099814 248.078375 
L 182.110453 247.210088 
L 182.340331 247.210088 
L 182.340331 246.775945 
L 184.393532 246.775945 
L 184.393532 246.341801 
L 184.678752 246.341801 
L 184.678752 245.907658 
L 185.407318 245.907658 
L 185.417957 245.039371 
L 185.647834 245.039371 
L 185.647834 244.605227 
L 186.336203 244.605227 
L 186.336203 244.171083 
L 187.103417 244.171083 
L 187.103417 243.73694 
L 187.701036 243.73694 
L 187.701036 243.302796 
L 187.986256 243.302796 
L 187.986256 242.868653 
L 188.363412 242.868653 
L 188.363412 242.434509 
L 188.52713 242.434509 
L 188.52713 242.000366 
L 189.130626 242.000366 
L 189.130626 241.566222 
L 189.294344 241.566222 
L 189.294344 241.132079 
L 197.499432 241.132079 
L 197.499432 240.697935 
L 200.806935 240.697935 
L 200.806935 240.263791 
L 206.200291 240.263791 
L 206.200291 239.829648 
L 206.669217 239.829648 
L 206.669217 239.395504 
L 206.967505 239.395504 
L 206.967505 238.961361 
L 207.096716 238.961361 
L 207.096716 238.527217 
L 207.799595 238.527217 
L 207.799595 238.093074 
L 208.696426 238.093074 
L 208.696426 237.65893 
L 208.860144 237.65893 
L 208.860144 237.224787 
L 209.123925 237.224787 
L 209.123925 236.790643 
L 209.287643 236.790643 
L 209.287643 236.3565 
L 209.826804 236.3565 
L 209.826804 235.922356 
L 209.990522 235.922356 
L 209.990522 235.488212 
L 210.662037 235.488212 
L 210.701134 234.185782 
L 210.809458 234.185782 
L 210.913023 232.883351 
L 211.435903 232.883351 
L 211.435903 232.449208 
L 211.928869 232.449208 
L 211.967966 231.146777 
L 212.07545 231.146777 
L 212.179855 229.410203 
L 212.702735 229.410203 
L 212.702735 228.976059 
L 214.102658 228.976059 
L 214.102658 228.541916 
L 214.266377 228.541916 
L 214.266377 228.107772 
L 222.241095 228.107772 
L 222.241095 227.673629 
L 222.925258 227.673629 
L 223.008309 226.805341 
L 223.692472 226.805341 
L 223.692472 226.371198 
L 223.896312 226.371198 
L 223.896312 225.937054 
L 225.923521 225.937054 
L 225.923521 225.502911 
L 226.087239 225.502911 
L 226.087239 225.068767 
L 226.533305 225.068767 
L 226.533305 224.634624 
L 226.960804 224.634624 
L 226.960804 224.20048 
L 227.128175 224.20048 
L 227.128175 223.766337 
L 227.411702 223.766337 
L 227.411702 223.332193 
L 227.576264 223.332193 
L 227.663683 221.595619 
L 227.723685 221.595619 
L 227.82725 218.990758 
L 227.921422 218.990758 
L 228.024987 217.688327 
L 228.316001 217.688327 
L 228.395007 216.385896 
L 228.547867 216.385896 
L 228.574901 215.517609 
L 228.674911 215.517609 
L 228.678535 214.649322 
L 230.702119 214.649322 
L 230.702119 214.215178 
L 230.865838 214.215178 
L 230.865838 213.781035 
L 231.414755 213.781035 
L 231.414755 213.346891 
L 231.673655 213.346891 
L 231.673655 212.912748 
L 231.939538 212.912748 
L 231.939538 212.478604 
L 238.395606 212.478604 
L 238.395606 212.044461 
L 238.654506 212.044461 
L 238.654506 211.610317 
L 240.545813 211.610317 
L 240.545813 211.176174 
L 241.000791 211.176174 
L 241.000791 210.74203 
L 241.259691 210.74203 
L 241.259691 210.307887 
L 241.387376 210.307887 
L 241.387376 209.873743 
L 241.696384 209.873743 
L 241.784372 208.571312 
L 241.978634 208.571312 
L 242.014249 207.703025 
L 242.443974 207.703025 
L 242.551586 206.400595 
L 242.574109 206.400595 
L 242.574109 205.966451 
L 242.699055 205.966451 
L 242.781463 204.229877 
L 242.821737 204.229877 
L 242.88361 202.927446 
L 242.950042 202.927446 
L 243.001609 202.059159 
L 243.245467 202.059159 
L 243.258272 201.190872 
L 243.414585 201.190872 
L 243.521794 199.888441 
L 243.534625 199.888441 
L 243.578303 198.151867 
L 243.682046 198.151867 
L 243.785611 195.112862 
L 243.853317 195.112862 
L 243.853317 194.678719 
L 244.042402 194.678719 
L 244.067451 193.810432 
L 244.240139 193.810432 
L 244.329557 191.20557 
L 244.352671 191.20557 
L 244.437881 189.90314 
L 244.475014 189.90314 
L 244.541446 188.600709 
L 244.754229 188.600709 
L 244.834665 185.995848 
L 244.90165 185.995848 
L 245.005215 184.693417 
L 245.064326 184.693417 
L 245.119885 183.82513 
L 245.34603 183.82513 
L 245.34603 183.390986 
L 245.528095 183.390986 
L 245.60493 182.088556 
L 245.864468 182.088556 
L 245.920491 181.220269 
L 246.545633 181.220269 
L 246.614781 180.351982 
L 246.804533 180.351982 
L 246.849091 179.483694 
L 247.980342 179.483694 
L 248.002928 178.615407 
L 248.538998 178.615407 
L 248.538998 178.181264 
L 248.664505 178.181264 
L 248.664505 177.74712 
L 249.171972 177.74712 
L 249.171972 177.312977 
L 249.922285 177.312977 
L 249.922285 176.878833 
L 251.101682 176.878833 
L 251.101682 176.44469 
L 251.775989 176.44469 
L 251.775989 176.010546 
L 252.52358 176.010546 
L 252.52358 175.576403 
L 252.901342 175.576403 
L 252.901342 175.142259 
L 253.829942 175.142259 
L 253.829942 174.708115 
L 254.381174 174.708115 
L 254.381174 174.273972 
L 255.128764 174.273972 
L 255.128764 173.839828 
L 255.506527 173.839828 
L 255.506527 173.405685 
L 256.435127 173.405685 
L 256.435127 172.971541 
L 257.17335 172.971541 
L 257.17335 172.537398 
L 257.940564 172.537398 
L 257.940564 172.103254 
L 258.082533 172.103254 
L 258.082533 171.669111 
L 258.726413 171.669111 
L 258.726413 171.234967 
L 258.892862 171.234967 
L 258.892862 170.800823 
L 259.090598 170.800823 
L 259.165194 169.932536 
L 259.448721 169.932536 
L 259.474004 169.064249 
L 259.801204 169.064249 
L 259.851766 168.195962 
L 259.926017 168.195962 
L 260.000763 167.327675 
L 260.284291 167.327675 
L 260.284291 166.893532 
L 260.436021 166.893532 
L 260.485367 166.025244 
L 260.633757 166.025244 
L 260.687718 164.722814 
L 260.756598 164.722814 
L 260.780366 163.854527 
L 261.040125 163.854527 
L 261.05137 162.98624 
L 261.220367 162.98624 
L 261.251464 162.117952 
L 261.503894 162.117952 
L 261.503894 161.683809 
L 261.97997 161.683809 
L 261.97997 161.249665 
L 262.106747 161.249665 
L 262.117386 160.381378 
L 262.347263 160.381378 
L 262.347263 159.947235 
L 262.534246 159.947235 
L 262.544885 159.078948 
L 262.774763 159.078948 
L 262.774763 158.644804 
L 263.203055 158.644804 
L 263.247764 157.342373 
L 263.461955 157.342373 
L 263.477641 156.474086 
L 264.250496 156.474086 
L 264.250496 156.039943 
L 264.400465 156.039943 
L 264.509395 155.171656 
L 264.579803 155.171656 
L 264.685685 154.303369 
L 264.827964 154.303369 
L 264.827964 153.869225 
L 265.032957 153.869225 
L 265.113185 153.000938 
L 265.263965 153.000938 
L 265.263965 152.566794 
L 265.530843 152.566794 
L 265.530843 152.132651 
L 265.816063 152.132651 
L 265.816063 151.698507 
L 266.23256 151.698507 
L 266.23256 151.264364 
L 267.512979 151.264364 
L 267.523618 150.396077 
L 267.753496 150.396077 
L 267.753496 149.961933 
L 269.806697 149.961933 
L 269.806697 149.52779 
L 270.091918 149.52779 
L 270.091918 149.093646 
L 274.015653 149.093646 
L 274.015653 148.659502 
L 274.851223 148.659502 
L 274.851223 148.225359 
L 275.558812 148.225359 
L 275.607057 147.357072 
L 276.070826 147.357072 
L 276.070826 146.922928 
L 276.394382 146.922928 
L 276.394382 146.488785 
L 276.583439 146.488785 
L 276.583439 146.054641 
L 277.150217 146.054641 
L 277.150217 145.620498 
L 277.292269 145.620498 
L 277.331029 144.75221 
L 277.506364 144.75221 
L 277.613986 143.883923 
L 277.630879 143.883923 
L 277.708792 143.015636 
L 277.933864 143.015636 
L 277.976431 142.147349 
L 278.378469 142.147349 
L 278.378469 141.713206 
L 278.636742 141.713206 
L 278.637392 140.844919 
L 278.756232 140.844919 
L 278.756232 140.410775 
L 279.333842 140.410775 
L 279.344481 139.542488 
L 279.574358 139.542488 
L 279.684832 138.674201 
L 281.62756 138.674201 
L 281.62756 138.240057 
L 281.91278 138.240057 
L 281.91278 137.805914 
L 282.889982 137.805914 
L 282.912597 136.937627 
L 283.937423 136.937627 
L 283.937423 136.503483 
L 284.11244 136.503483 
L 284.123079 135.635196 
L 284.352957 135.635196 
L 284.352957 135.201052 
L 286.406158 135.201052 
L 286.406158 134.766909 
L 286.691379 134.766909 
L 286.691379 134.332765 
L 294.733459 134.332765 
L 294.733459 133.898622 
L 296.824906 133.898622 
L 296.835545 133.030335 
L 297.065423 133.030335 
L 297.065423 132.596191 
L 299.118624 132.596191 
L 299.118624 132.162048 
L 299.403845 132.162048 
L 299.512058 131.29376 
L 300.219732 131.29376 
L 300.219732 130.859617 
L 300.986946 130.859617 
L 300.986946 130.425473 
L 305.538387 130.425473 
L 305.538387 129.99133 
L 306.2887 129.99133 
L 306.305601 129.123043 
L 307.055914 129.123043 
L 307.055914 128.688899 
L 312.224524 128.688899 
L 312.224524 128.254756 
L 320.552746 128.254756 
L 320.552746 127.820612 
L 320.980245 127.820612 
L 320.980245 127.386468 
L 321.683124 127.386468 
L 321.683124 126.952325 
L 325.871401 126.952325 
L 325.958978 126.084038 
L 326.2989 126.084038 
L 326.2989 125.649894 
L 326.621714 125.649894 
L 326.621714 125.215751 
L 327.001779 125.215751 
L 327.049213 124.347464 
L 327.752092 124.347464 
L 327.752092 123.91332 
L 331.277633 123.91332 
L 331.277633 123.479177 
L 332.027946 123.479177 
L 332.027946 123.045033 
L 337.779841 123.045033 
L 337.779841 122.610889 
L 342.558439 122.610889 
L 342.558439 122.176746 
L 343.098496 122.176746 
L 343.098496 121.742602 
L 343.848809 121.742602 
L 343.848809 121.308459 
L 347.877094 121.308459 
L 347.877094 120.874315 
L 348.627407 120.874315 
L 348.627407 120.440172 
L 355.270905 120.440172 
L 355.270905 120.006028 
L 360.58956 120.006028 
L 360.58956 119.571885 
L 361.339873 119.571885 
L 361.339873 119.137741 
L 453.192 119.137741 
L 453.192 119.137741 
" clip-path="url(#pb1e15209a1)" style="fill: none; stroke: #bf00bf; stroke-width: 3; stroke-linecap: square"/>
   </g>
   <g id="line2d_22">
    <path clip-path="url(#pb1e15209a1)" style="fill: none; stroke: #bf00bf; stroke-width: 3; stroke-linecap: square"/>
   </g>
   <g id="line2d_23">
    <path d="M 34.16 253.288098 
L 130.457068 253.288098 
L 130.457068 252.853954 
L 132.148118 252.853954 
L 132.172488 251.985667 
L 132.522335 251.985667 
L 132.522335 251.551524 
L 133.863538 251.551524 
L 133.863538 251.11738 
L 134.213384 251.11738 
L 134.213384 250.683237 
L 149.572591 250.683237 
L 149.572591 250.249093 
L 151.263641 250.249093 
L 151.263641 249.81495 
L 165.305415 249.81495 
L 165.305415 249.380806 
L 166.723972 249.380806 
L 166.723972 248.946662 
L 166.996465 248.946662 
L 166.996465 248.512519 
L 168.415022 248.512519 
L 168.415022 248.078375 
L 184.325964 248.078375 
L 184.325964 247.644232 
L 185.015153 247.644232 
L 185.015153 247.210088 
L 185.740286 247.210088 
L 185.740286 246.775945 
L 186.017014 246.775945 
L 186.017014 246.341801 
L 186.629245 246.341801 
L 186.706203 245.039371 
L 187.094507 245.039371 
L 187.094507 244.605227 
L 187.431336 244.605227 
L 187.431336 244.171083 
L 187.726481 244.171083 
L 187.726481 243.73694 
L 188.344666 243.73694 
L 188.385774 242.868653 
L 188.694512 242.868653 
L 188.785557 242.000366 
L 189.441902 242.000366 
L 189.441902 241.566222 
L 189.791748 241.566222 
L 189.791748 241.132079 
L 200.070074 241.132079 
L 200.070074 240.697935 
L 201.761124 240.697935 
L 201.761124 240.263791 
L 205.744769 240.263791 
L 205.744769 239.829648 
L 206.842005 239.829648 
L 206.842005 239.395504 
L 206.977073 239.395504 
L 206.977073 238.961361 
L 207.794626 238.961361 
L 207.794626 238.527217 
L 208.352433 238.527217 
L 208.352433 238.093074 
L 208.692494 238.093074 
L 208.692494 237.65893 
L 209.04234 237.65893 
L 209.04234 237.224787 
L 209.510047 237.224787 
L 209.510047 236.790643 
L 209.859893 236.790643 
L 209.859893 236.3565 
L 210.067854 236.3565 
L 210.067854 235.922356 
L 210.4177 235.922356 
L 210.4177 235.488212 
L 212.460174 235.488212 
L 212.463855 234.619925 
L 212.587502 234.619925 
L 212.607862 233.751638 
L 212.745812 233.751638 
L 212.793532 232.449208 
L 213.221888 232.449208 
L 213.298773 231.146777 
L 213.422419 231.146777 
L 213.44278 230.27849 
L 213.580729 230.27849 
L 213.590575 229.410203 
L 214.056806 229.410203 
L 214.056806 228.976059 
L 214.508952 228.976059 
L 214.508952 228.541916 
L 214.858799 228.541916 
L 214.858799 228.107772 
L 221.477592 228.107772 
L 221.477592 227.673629 
L 222.574828 227.673629 
L 222.574828 227.239485 
L 222.896149 227.239485 
L 222.896149 226.805341 
L 223.993385 226.805341 
L 223.993385 226.371198 
L 224.448517 226.371198 
L 224.448517 225.937054 
L 226.092597 225.937054 
L 226.163938 225.068767 
L 226.513784 225.068767 
L 226.513784 224.634624 
L 226.91015 224.634624 
L 226.91015 224.20048 
L 227.467956 224.20048 
L 227.467956 223.766337 
L 228.414235 223.766337 
L 228.425425 222.463906 
L 228.549071 222.463906 
L 228.592118 220.727332 
L 228.707381 220.727332 
L 228.736125 218.990758 
L 228.874075 218.990758 
L 228.88392 218.12247 
L 229.05024 218.12247 
L 229.146631 217.254183 
L 229.183457 217.254183 
L 229.249152 216.385896 
L 229.350151 216.385896 
L 229.360208 215.517609 
L 229.469365 215.517609 
L 229.469365 215.083466 
L 229.885157 215.083466 
L 229.885157 214.649322 
L 231.184786 214.649322 
L 231.184786 214.215178 
L 231.510424 214.215178 
L 231.534632 213.346891 
L 231.724001 213.346891 
L 231.724001 212.912748 
L 231.909055 212.912748 
L 231.909055 212.478604 
L 234.786959 212.478604 
L 234.786959 212.044461 
L 236.478009 212.044461 
L 236.478009 211.610317 
L 238.94204 211.610317 
L 238.94204 211.176174 
L 239.155618 211.176174 
L 239.155618 210.74203 
L 240.429346 210.74203 
L 240.498141 209.873743 
L 241.18733 209.873743 
L 241.18733 209.439599 
L 241.535167 209.439599 
L 241.595377 208.571312 
L 241.82542 208.571312 
L 241.912463 206.834738 
L 242.074974 206.834738 
L 242.120396 205.966451 
L 242.284566 205.966451 
L 242.284566 205.532307 
L 242.455592 205.532307 
L 242.455592 205.098164 
L 242.642973 205.098164 
L 242.684084 204.229877 
L 242.800334 204.229877 
L 242.866901 202.493303 
L 242.927662 202.493303 
L 243.009699 201.190872 
L 243.085972 201.190872 
L 243.095818 200.322585 
L 243.20078 200.322585 
L 243.266684 198.586011 
L 243.416155 198.586011 
L 243.519002 197.28358 
L 243.543482 197.28358 
L 243.600434 195.112862 
L 243.701793 195.112862 
L 243.711638 194.244575 
L 243.856863 194.244575 
L 243.964138 193.376288 
L 243.974158 193.376288 
L 244.06153 191.639714 
L 244.101485 191.639714 
L 244.177869 190.337283 
L 244.251109 190.337283 
L 244.269641 189.034853 
L 244.36392 189.034853 
L 244.375804 188.166565 
L 244.542498 188.166565 
L 244.619337 187.298278 
L 244.677033 187.298278 
L 244.735872 185.561704 
L 244.804361 185.561704 
L 244.824721 184.259274 
L 244.962671 184.259274 
L 245.011809 182.956843 
L 245.178503 182.956843 
L 245.209353 182.088556 
L 245.438747 182.088556 
L 245.438747 181.654412 
L 246.217187 181.654412 
L 246.217187 181.220269 
L 246.401626 181.220269 
L 246.440696 179.917838 
L 246.547494 179.917838 
L 246.547494 179.483694 
L 246.761072 179.483694 
L 246.761072 179.049551 
L 247.641879 179.049551 
L 247.641879 178.615407 
L 248.085088 178.615407 
L 248.131746 177.74712 
L 248.584888 177.74712 
L 248.584888 177.312977 
L 249.060436 177.312977 
L 249.060436 176.878833 
L 250.448881 176.878833 
L 250.448881 176.44469 
L 251.682726 176.44469 
L 251.682726 176.010546 
L 252.251001 176.010546 
L 252.251001 175.576403 
L 252.64097 175.576403 
L 252.64097 175.142259 
L 253.833242 175.142259 
L 253.833242 174.708115 
L 254.602083 174.708115 
L 254.602083 174.273972 
L 255.170358 174.273972 
L 255.170358 173.839828 
L 255.560327 173.839828 
L 255.560327 173.405685 
L 256.242251 173.405685 
L 256.242251 172.971541 
L 256.752599 172.971541 
L 256.752599 172.537398 
L 257.339487 172.537398 
L 257.339487 172.103254 
L 257.880497 172.103254 
L 257.880497 171.669111 
L 258.645654 171.669111 
L 258.754395 170.800823 
L 258.812347 170.800823 
L 258.812347 170.36668 
L 258.957873 170.36668 
L 258.957873 169.932536 
L 259.28818 169.932536 
L 259.3904 168.195962 
L 259.526148 168.195962 
L 259.526148 167.761819 
L 259.818433 167.761819 
L 259.928219 166.025244 
L 259.985126 166.025244 
L 260.006221 165.156957 
L 260.246424 165.156957 
L 260.246424 164.722814 
L 260.564223 164.722814 
L 260.650691 163.420383 
L 260.715421 163.420383 
L 260.799854 162.552096 
L 260.845969 162.552096 
L 260.845969 162.117952 
L 261.108389 162.117952 
L 261.108389 161.683809 
L 261.267099 161.683809 
L 261.267099 161.249665 
L 261.438697 161.249665 
L 261.535158 160.381378 
L 261.663522 160.381378 
L 261.663522 159.947235 
L 262.221329 159.947235 
L 262.260291 159.078948 
L 262.352711 159.078948 
L 262.352711 158.644804 
L 262.514925 158.644804 
L 262.514925 158.210661 
L 262.728502 158.210661 
L 262.728502 157.776517 
L 262.910518 157.776517 
L 262.910518 157.342373 
L 263.077844 157.342373 
L 263.077844 156.90823 
L 263.21473 156.90823 
L 263.301927 156.039943 
L 263.515504 156.039943 
L 263.614512 155.171656 
L 263.635651 155.171656 
L 263.635651 154.737512 
L 264.032283 154.737512 
L 264.032283 154.303369 
L 264.317712 154.303369 
L 264.317712 153.869225 
L 264.432065 153.869225 
L 264.432065 153.435081 
L 264.590089 153.435081 
L 264.590089 153.000938 
L 264.989872 153.000938 
L 264.989872 152.566794 
L 265.155644 152.566794 
L 265.155644 152.132651 
L 265.485951 152.132651 
L 265.485951 151.698507 
L 265.736269 151.698507 
L 265.736269 151.264364 
L 266.662428 151.264364 
L 266.662428 150.83022 
L 267.351617 150.83022 
L 267.351617 150.396077 
L 268.07675 150.396077 
L 268.07675 149.961933 
L 269.031188 149.961933 
L 269.031188 149.52779 
L 269.430971 149.52779 
L 269.430971 149.093646 
L 273.024245 149.093646 
L 273.024245 148.659502 
L 273.640065 148.659502 
L 273.640065 148.225359 
L 274.197024 148.225359 
L 274.198068 147.357072 
L 274.812844 147.357072 
L 274.900943 146.488785 
L 275.25561 146.488785 
L 275.25561 146.054641 
L 275.370847 146.054641 
L 275.370847 145.620498 
L 275.823886 145.620498 
L 275.823886 145.186354 
L 276.042612 145.186354 
L 276.073722 144.318067 
L 276.213855 144.318067 
L 276.213855 143.883923 
L 276.383514 143.883923 
L 276.383514 143.44978 
L 276.590079 143.44978 
L 276.610887 142.581493 
L 277.000857 142.581493 
L 277.000857 142.147349 
L 277.406127 142.147349 
L 277.407632 141.279062 
L 277.802071 141.279062 
L 277.802071 140.844919 
L 277.965439 140.844919 
L 277.965439 140.410775 
L 278.193129 140.410775 
L 278.193129 139.976631 
L 278.317413 139.976631 
L 278.317413 139.542488 
L 279.006602 139.542488 
L 279.006602 139.108344 
L 279.731735 139.108344 
L 279.731735 138.674201 
L 280.686174 138.674201 
L 280.686174 138.240057 
L 281.085956 138.240057 
L 281.085956 137.805914 
L 281.453382 137.805914 
L 281.453382 137.37177 
L 282.240384 137.37177 
L 282.240384 136.937627 
L 282.406538 136.937627 
L 282.406538 136.503483 
L 283.338261 136.503483 
L 283.338261 136.069339 
L 284.02745 136.069339 
L 284.02745 135.635196 
L 284.752583 135.635196 
L 284.752583 135.201052 
L 285.707021 135.201052 
L 285.707021 134.766909 
L 286.106804 134.766909 
L 286.106804 134.332765 
L 290.959137 134.332765 
L 290.959137 133.898622 
L 292.056373 133.898622 
L 292.056373 133.464478 
L 294.061523 133.464478 
L 294.061523 133.030335 
L 295.404063 133.030335 
L 295.404063 132.596191 
L 296.093252 132.596191 
L 296.093252 132.162048 
L 296.601524 132.162048 
L 296.601524 131.727904 
L 296.818385 131.727904 
L 296.818385 131.29376 
L 297.69876 131.29376 
L 297.772824 130.425473 
L 298.172606 130.425473 
L 298.172606 129.99133 
L 299.082371 129.99133 
L 299.082371 129.557186 
L 302.612874 129.557186 
L 302.612874 129.123043 
L 303.71011 129.123043 
L 303.71011 128.688899 
L 311.148173 128.688899 
L 311.148173 128.254756 
L 311.306965 128.254756 
L 311.306965 127.820612 
L 312.124518 127.820612 
L 312.124518 127.386468 
L 312.682325 127.386468 
L 312.682325 126.952325 
L 316.949352 126.952325 
L 316.949352 126.518181 
L 317.123423 126.518181 
L 317.123423 126.084038 
L 317.766905 126.084038 
L 317.766905 125.649894 
L 318.324712 125.649894 
L 318.324712 125.215751 
L 322.76581 125.215751 
L 322.76581 124.781607 
L 322.960702 124.781607 
L 322.960702 124.347464 
L 323.778255 124.347464 
L 323.778255 123.91332 
L 324.336061 123.91332 
L 324.336061 123.479177 
L 328.77716 123.479177 
L 328.778409 122.610889 
L 333.799257 122.610889 
L 333.799257 122.176746 
L 334.420796 122.176746 
L 334.420796 121.742602 
L 339.441644 121.742602 
L 339.441644 121.308459 
L 340.432146 121.308459 
L 340.432146 120.874315 
L 345.452993 120.874315 
L 345.452993 120.440172 
L 345.865059 120.440172 
L 345.865059 120.006028 
L 351.507446 120.006028 
L 351.507446 119.571885 
L 357.518796 119.571885 
L 357.518796 119.137741 
L 453.192 119.137741 
L 453.192 119.137741 
" clip-path="url(#pb1e15209a1)" style="fill: none; stroke: #ff0000; stroke-width: 3; stroke-linecap: square"/>
   </g>
   <g id="line2d_24">
    <path clip-path="url(#pb1e15209a1)" style="fill: none; stroke: #ff0000; stroke-width: 3; stroke-linecap: square"/>
   </g>
   <g id="line2d_25">
    <path d="M 243.676 291.28 
L 243.676 3 
" clip-path="url(#pb1e15209a1)" style="fill: none; stroke: #000000; stroke-width: 1.5; stroke-linecap: square"/>
   </g>
   <g id="line2d_26">
    <path d="M 34.16 147.14 
L 453.192 147.14 
" clip-path="url(#pb1e15209a1)" style="fill: none; stroke-dasharray: 2,3.3; stroke-dashoffset: 0; stroke: #000000; stroke-width: 2"/>
   </g>
   <g id="patch_3">
    <path d="M 34.16 291.28 
L 34.16 3 
" style="fill: none; stroke: #000000; stroke-width: 0.8; stroke-linejoin: miter; stroke-linecap: square"/>
   </g>
   <g id="patch_4">
    <path d="M 453.192 291.28 
L 453.192 3 
" style="fill: none; stroke: #000000; stroke-width: 0.8; stroke-linejoin: miter; stroke-linecap: square"/>
   </g>
   <g id="patch_5">
    <path d="M 34.16 291.28 
L 453.192 291.28 
" style="fill: none; stroke: #000000; stroke-width: 0.8; stroke-linejoin: miter; stroke-linecap: square"/>
   </g>
   <g id="patch_6">
    <path d="M 34.16 3 
L 453.192 3 
" style="fill: none; stroke: #000000; stroke-width: 0.8; stroke-linejoin: miter; stroke-linecap: square"/>
   </g>
   <g id="text_6">
    <!-- f20-f24,10-D -->
    <g transform="translate(318.19261 285.5144) scale(0.2 -0.2)">
     <defs>
      <path id="DejaVuSans-34" d="M 2419 4116 
L 825 1625 
L 2419 1625 
L 2419 4116 
z
M 2253 4666 
L 3047 4666 
L 3047 1625 
L 3713 1625 
L 3713 1100 
L 3047 1100 
L 3047 0 
L 2419 0 
L 2419 1100 
L 313 1100 
L 313 1709 
L 2253 4666 
z
" transform="scale(0.015625)"/>
      <path id="DejaVuSans-2c" d="M 750 794 
L 1409 794 
L 1409 256 
L 897 -744 
L 494 -744 
L 750 256 
L 750 794 
z
" transform="scale(0.015625)"/>
      <path id="DejaVuSans-44" d="M 1259 4147 
L 1259 519 
L 2022 519 
Q 2988 519 3436 956 
Q 3884 1394 3884 2338 
Q 3884 3275 3436 3711 
Q 2988 4147 2022 4147 
L 1259 4147 
z
M 628 4666 
L 1925 4666 
Q 3281 4666 3915 4102 
Q 4550 3538 4550 2338 
Q 4550 1131 3912 565 
Q 3275 0 1925 0 
L 628 0 
L 628 4666 
z
" transform="scale(0.015625)"/>
     </defs>
     <use xlink:href="#DejaVuSans-66"/>
     <use xlink:href="#DejaVuSans-32" x="35.205078"/>
     <use xlink:href="#DejaVuSans-30" x="98.828125"/>
     <use xlink:href="#DejaVuSans-2d" x="162.451172"/>
     <use xlink:href="#DejaVuSans-66" x="198.535156"/>
     <use xlink:href="#DejaVuSans-32" x="233.740234"/>
     <use xlink:href="#DejaVuSans-34" x="297.363281"/>
     <use xlink:href="#DejaVuSans-2c" x="360.986328"/>
     <use xlink:href="#DejaVuSans-31" x="392.773438"/>
     <use xlink:href="#DejaVuSans-30" x="456.396484"/>
     <use xlink:href="#DejaVuSans-2d" x="520.019531"/>
     <use xlink:href="#DejaVuSans-44" x="556.103516"/>
    </g>
   </g>
   <g id="text_7">
    <!-- v2.6.3 -->
    <g style="fill: #808080" transform="translate(227.99475 286.317512) scale(0.1 -0.1)">
     <defs>
      <path id="DejaVuSans-2e" d="M 684 794 
L 1344 794 
L 1344 0 
L 684 0 
L 684 794 
z
" transform="scale(0.015625)"/>
      <path id="DejaVuSans-36" d="M 2113 2584 
Q 1688 2584 1439 2293 
Q 1191 2003 1191 1497 
Q 1191 994 1439 701 
Q 1688 409 2113 409 
Q 2538 409 2786 701 
Q 3034 994 3034 1497 
Q 3034 2003 2786 2293 
Q 2538 2584 2113 2584 
z
M 3366 4563 
L 3366 3988 
Q 3128 4100 2886 4159 
Q 2644 4219 2406 4219 
Q 1781 4219 1451 3797 
Q 1122 3375 1075 2522 
Q 1259 2794 1537 2939 
Q 1816 3084 2150 3084 
Q 2853 3084 3261 2657 
Q 3669 2231 3669 1497 
Q 3669 778 3244 343 
Q 2819 -91 2113 -91 
Q 1303 -91 875 529 
Q 447 1150 447 2328 
Q 447 3434 972 4092 
Q 1497 4750 2381 4750 
Q 2619 4750 2861 4703 
Q 3103 4656 3366 4563 
z
" transform="scale(0.015625)"/>
      <path id="DejaVuSans-33" d="M 2597 2516 
Q 3050 2419 3304 2112 
Q 3559 1806 3559 1356 
Q 3559 666 3084 287 
Q 2609 -91 1734 -91 
Q 1441 -91 1130 -33 
Q 819 25 488 141 
L 488 750 
Q 750 597 1062 519 
Q 1375 441 1716 441 
Q 2309 441 2620 675 
Q 2931 909 2931 1356 
Q 2931 1769 2642 2001 
Q 2353 2234 1838 2234 
L 1294 2234 
L 1294 2753 
L 1863 2753 
Q 2328 2753 2575 2939 
Q 2822 3125 2822 3475 
Q 2822 3834 2567 4026 
Q 2313 4219 1838 4219 
Q 1578 4219 1281 4162 
Q 984 4106 628 3988 
L 628 4550 
Q 988 4650 1302 4700 
Q 1616 4750 1894 4750 
Q 2613 4750 3031 4423 
Q 3450 4097 3450 3541 
Q 3450 3153 3228 2886 
Q 3006 2619 2597 2516 
z
" transform="scale(0.015625)"/>
     </defs>
     <use xlink:href="#DejaVuSans-76"/>
     <use xlink:href="#DejaVuSans-32" x="59.179688"/>
     <use xlink:href="#DejaVuSans-2e" x="122.802734"/>
     <use xlink:href="#DejaVuSans-36" x="154.589844"/>
     <use xlink:href="#DejaVuSans-2e" x="218.212891"/>
     <use xlink:href="#DejaVuSans-33" x="250"/>
    </g>
   </g>
   <g id="legend_1">
    <g id="patch_7">
     <path d="M 48.16 136.425 
L 177.381875 136.425 
Q 181.381875 136.425 181.381875 132.425 
L 181.381875 17 
Q 181.381875 13 177.381875 13 
L 48.16 13 
Q 44.16 13 44.16 17 
L 44.16 132.425 
Q 44.16 136.425 48.16 136.425 
z
" style="fill: #ffffff; opacity: 0.2; stroke: #cccccc; stroke-linejoin: miter"/>
    </g>
    <g id="line2d_27">
     <path d="M 52.16 29.196875 
L 72.16 29.196875 
L 92.16 29.196875 
" style="fill: none; stroke: #000000; stroke-width: 3; stroke-linecap: square"/>
    </g>
    <g id="text_8">
     <!-- 1: 5/5 -->
     <g transform="translate(108.16 36.196875) scale(0.2 -0.2)">
      <defs>
       <path id="DejaVuSans-3a" d="M 750 794 
L 1409 794 
L 1409 0 
L 750 0 
L 750 794 
z
M 750 3309 
L 1409 3309 
L 1409 2516 
L 750 2516 
L 750 3309 
z
" transform="scale(0.015625)"/>
       <path id="DejaVuSans-35" d="M 691 4666 
L 3169 4666 
L 3169 4134 
L 1269 4134 
L 1269 2991 
Q 1406 3038 1543 3061 
Q 1681 3084 1819 3084 
Q 2600 3084 3056 2656 
Q 3513 2228 3513 1497 
Q 3513 744 3044 326 
Q 2575 -91 1722 -91 
Q 1428 -91 1123 -41 
Q 819 9 494 109 
L 494 744 
Q 775 591 1075 516 
Q 1375 441 1709 441 
Q 2250 441 2565 725 
Q 2881 1009 2881 1497 
Q 2881 1984 2565 2268 
Q 2250 2553 1709 2553 
Q 1456 2553 1204 2497 
Q 953 2441 691 2322 
L 691 4666 
z
" transform="scale(0.015625)"/>
       <path id="DejaVuSans-2f" d="M 1625 4666 
L 2156 4666 
L 531 -594 
L 0 -594 
L 1625 4666 
z
" transform="scale(0.015625)"/>
      </defs>
      <use xlink:href="#DejaVuSans-31"/>
      <use xlink:href="#DejaVuSans-3a" x="63.623047"/>
      <use xlink:href="#DejaVuSans-20" x="97.314453"/>
      <use xlink:href="#DejaVuSans-35" x="129.101562"/>
      <use xlink:href="#DejaVuSans-2f" x="192.724609"/>
      <use xlink:href="#DejaVuSans-35" x="226.416016"/>
     </g>
    </g>
    <g id="line2d_28">
     <path d="M 52.16 58.553125 
L 72.16 58.553125 
L 92.16 58.553125 
" style="fill: none; stroke: #00bfbf; stroke-width: 3; stroke-linecap: square"/>
    </g>
    <g id="text_9">
     <!-- -1: 3/4 -->
     <g transform="translate(108.16 65.553125) scale(0.2 -0.2)">
      <use xlink:href="#DejaVuSans-2d"/>
      <use xlink:href="#DejaVuSans-31" x="36.083984"/>
      <use xlink:href="#DejaVuSans-3a" x="99.707031"/>
      <use xlink:href="#DejaVuSans-20" x="133.398438"/>
      <use xlink:href="#DejaVuSans-33" x="165.185547"/>
      <use xlink:href="#DejaVuSans-2f" x="228.808594"/>
      <use xlink:href="#DejaVuSans-34" x="262.5"/>
     </g>
    </g>
    <g id="line2d_29">
     <path d="M 52.16 87.909375 
L 72.16 87.909375 
L 92.16 87.909375 
" style="fill: none; stroke: #bf00bf; stroke-width: 3; stroke-linecap: square"/>
    </g>
    <g id="text_10">
     <!-- -4: 3/4 -->
     <g transform="translate(108.16 94.909375) scale(0.2 -0.2)">
      <use xlink:href="#DejaVuSans-2d"/>
      <use xlink:href="#DejaVuSans-34" x="36.083984"/>
      <use xlink:href="#DejaVuSans-3a" x="99.707031"/>
      <use xlink:href="#DejaVuSans-20" x="133.398438"/>
      <use xlink:href="#DejaVuSans-33" x="165.185547"/>
      <use xlink:href="#DejaVuSans-2f" x="228.808594"/>
      <use xlink:href="#DejaVuSans-34" x="262.5"/>
     </g>
    </g>
    <g id="line2d_30">
     <path d="M 52.16 117.265625 
L 72.16 117.265625 
L 92.16 117.265625 
" style="fill: none; stroke: #ff0000; stroke-width: 3; stroke-linecap: square"/>
    </g>
    <g id="text_11">
     <!-- -8: 3/4 -->
     <g transform="translate(108.16 124.265625) scale(0.2 -0.2)">
      <defs>
       <path id="DejaVuSans-38" d="M 2034 2216 
Q 1584 2216 1326 1975 
Q 1069 1734 1069 1313 
Q 1069 891 1326 650 
Q 1584 409 2034 409 
Q 2484 409 2743 651 
Q 3003 894 3003 1313 
Q 3003 1734 2745 1975 
Q 2488 2216 2034 2216 
z
M 1403 2484 
Q 997 2584 770 2862 
Q 544 3141 544 3541 
Q 544 4100 942 4425 
Q 1341 4750 2034 4750 
Q 2731 4750 3128 4425 
Q 3525 4100 3525 3541 
Q 3525 3141 3298 2862 
Q 3072 2584 2669 2484 
Q 3125 2378 3379 2068 
Q 3634 1759 3634 1313 
Q 3634 634 3220 271 
Q 2806 -91 2034 -91 
Q 1263 -91 848 271 
Q 434 634 434 1313 
Q 434 1759 690 2068 
Q 947 2378 1403 2484 
z
M 1172 3481 
Q 1172 3119 1398 2916 
Q 1625 2713 2034 2713 
Q 2441 2713 2670 2916 
Q 2900 3119 2900 3481 
Q 2900 3844 2670 4047 
Q 2441 4250 2034 4250 
Q 1625 4250 1398 4047 
Q 1172 3844 1172 3481 
z
" transform="scale(0.015625)"/>
      </defs>
      <use xlink:href="#DejaVuSans-2d"/>
      <use xlink:href="#DejaVuSans-38" x="36.083984"/>
      <use xlink:href="#DejaVuSans-3a" x="99.707031"/>
      <use xlink:href="#DejaVuSans-20" x="133.398438"/>
      <use xlink:href="#DejaVuSans-33" x="165.185547"/>
      <use xlink:href="#DejaVuSans-2f" x="228.808594"/>
      <use xlink:href="#DejaVuSans-34" x="262.5"/>
     </g>
    </g>
   </g>
  </g>
 </g>
 <defs>
  <clipPath id="pb1e15209a1">
   <rect x="34.16" y="3" width="419.032" height="288.28"/>
  </clipPath>
 </defs>
</svg>
