<?xml version="1.0" encoding="utf-8" standalone="no"?>
<!DOCTYPE svg PUBLIC "-//W3C//DTD SVG 1.1//EN"
  "http://www.w3.org/Graphics/SVG/1.1/DTD/svg11.dtd">
<svg xmlns:xlink="http://www.w3.org/1999/xlink" width="460.8pt" height="345.6pt" viewBox="0 0 460.8 345.6" xmlns="http://www.w3.org/2000/svg" version="1.1">
 <metadata>
  <rdf:RDF xmlns:dc="http://purl.org/dc/elements/1.1/" xmlns:cc="http://creativecommons.org/ns#" xmlns:rdf="http://www.w3.org/1999/02/22-rdf-syntax-ns#">
   <cc:Work>
    <dc:type rdf:resource="http://purl.org/dc/dcmitype/StillImage"/>
    <dc:date>2024-06-05T13:53:13.753043</dc:date>
    <dc:format>image/svg+xml</dc:format>
    <dc:creator>
     <cc:Agent>
      <dc:title>Matplotlib v3.7.1, https://matplotlib.org/</dc:title>
     </cc:Agent>
    </dc:creator>
   </cc:Work>
  </rdf:RDF>
 </metadata>
 <defs>
  <style type="text/css">*{stroke-linejoin: round; stroke-linecap: butt}</style>
 </defs>
 <g id="figure_1">
  <g id="patch_1">
   <path d="M 0 345.6 
L 460.8 345.6 
L 460.8 0 
L 0 0 
z
" style="fill: #ffffff"/>
  </g>
  <g id="axes_1">
   <g id="patch_2">
    <path d="M 34.16 291.28 
L 453.192 291.28 
L 453.192 3 
L 34.16 3 
z
" style="fill: #ffffff"/>
   </g>
   <g id="matplotlib.axis_1">
    <g id="xtick_1">
     <g id="line2d_1">
      <path d="M 163.451757 291.28 
L 163.451757 3 
" clip-path="url(#p4315282e27)" style="fill: none; stroke: #b0b0b0; stroke-width: 0.8; stroke-linecap: square"/>
     </g>
     <g id="line2d_2">
      <defs>
       <path id="m0ea4b5999b" d="M 0 0 
L 0 3.5 
" style="stroke: #000000; stroke-width: 0.8"/>
      </defs>
      <g>
       <use xlink:href="#m0ea4b5999b" x="163.451757" y="291.28" style="stroke: #000000; stroke-width: 0.8"/>
      </g>
     </g>
     <g id="text_1">
      <!-- -1 -->
      <g transform="translate(153.481445 313.476875) scale(0.2 -0.2)">
       <defs>
        <path id="DejaVuSans-2d" d="M 313 2009 
L 1997 2009 
L 1997 1497 
L 313 1497 
L 313 2009 
z
" transform="scale(0.015625)"/>
        <path id="DejaVuSans-31" d="M 794 531 
L 1825 531 
L 1825 4091 
L 703 3866 
L 703 4441 
L 1819 4666 
L 2450 4666 
L 2450 531 
L 3481 531 
L 3481 0 
L 794 0 
L 794 531 
z
" transform="scale(0.015625)"/>
       </defs>
       <use xlink:href="#DejaVuSans-2d"/>
       <use xlink:href="#DejaVuSans-31" x="36.083984"/>
      </g>
     </g>
    </g>
    <g id="xtick_2">
     <g id="line2d_3">
      <path d="M 323.900243 291.28 
L 323.900243 3 
" clip-path="url(#p4315282e27)" style="fill: none; stroke: #b0b0b0; stroke-width: 0.8; stroke-linecap: square"/>
     </g>
     <g id="line2d_4">
      <g>
       <use xlink:href="#m0ea4b5999b" x="323.900243" y="291.28" style="stroke: #000000; stroke-width: 0.8"/>
      </g>
     </g>
     <g id="text_2">
      <!-- 1 -->
      <g transform="translate(317.537743 313.476875) scale(0.2 -0.2)">
       <use xlink:href="#DejaVuSans-31"/>
      </g>
     </g>
    </g>
    <g id="xtick_3">
     <g id="line2d_5">
      <defs>
       <path id="m31e62d37d3" d="M 0 0 
L 0 2 
" style="stroke: #000000; stroke-width: 0.6"/>
      </defs>
      <g>
       <use xlink:href="#m31e62d37d3" x="41.279963" y="291.28" style="stroke: #000000; stroke-width: 0.6"/>
      </g>
     </g>
    </g>
    <g id="xtick_4">
     <g id="line2d_6">
      <g>
       <use xlink:href="#m31e62d37d3" x="51.303079" y="291.28" style="stroke: #000000; stroke-width: 0.6"/>
      </g>
     </g>
    </g>
    <g id="xtick_5">
     <g id="line2d_7">
      <g>
       <use xlink:href="#m31e62d37d3" x="59.077611" y="291.28" style="stroke: #000000; stroke-width: 0.6"/>
      </g>
     </g>
    </g>
    <g id="xtick_6">
     <g id="line2d_8">
      <g>
       <use xlink:href="#m31e62d37d3" x="65.429867" y="291.28" style="stroke: #000000; stroke-width: 0.6"/>
      </g>
     </g>
    </g>
    <g id="xtick_7">
     <g id="line2d_9">
      <g>
       <use xlink:href="#m31e62d37d3" x="70.800622" y="291.28" style="stroke: #000000; stroke-width: 0.6"/>
      </g>
     </g>
    </g>
    <g id="xtick_8">
     <g id="line2d_10">
      <g>
       <use xlink:href="#m31e62d37d3" x="75.452982" y="291.28" style="stroke: #000000; stroke-width: 0.6"/>
      </g>
     </g>
    </g>
    <g id="xtick_9">
     <g id="line2d_11">
      <g>
       <use xlink:href="#m31e62d37d3" x="79.556655" y="291.28" style="stroke: #000000; stroke-width: 0.6"/>
      </g>
     </g>
    </g>
    <g id="xtick_10">
     <g id="line2d_12">
      <g>
       <use xlink:href="#m31e62d37d3" x="107.377418" y="291.28" style="stroke: #000000; stroke-width: 0.6"/>
      </g>
     </g>
    </g>
    <g id="xtick_11">
     <g id="line2d_13">
      <g>
       <use xlink:href="#m31e62d37d3" x="121.504206" y="291.28" style="stroke: #000000; stroke-width: 0.6"/>
      </g>
     </g>
    </g>
    <g id="xtick_12">
     <g id="line2d_14">
      <g>
       <use xlink:href="#m31e62d37d3" x="131.527322" y="291.28" style="stroke: #000000; stroke-width: 0.6"/>
      </g>
     </g>
    </g>
    <g id="xtick_13">
     <g id="line2d_15">
      <g>
       <use xlink:href="#m31e62d37d3" x="139.301854" y="291.28" style="stroke: #000000; stroke-width: 0.6"/>
      </g>
     </g>
    </g>
    <g id="xtick_14">
     <g id="line2d_16">
      <g>
       <use xlink:href="#m31e62d37d3" x="145.654109" y="291.28" style="stroke: #000000; stroke-width: 0.6"/>
      </g>
     </g>
    </g>
    <g id="xtick_15">
     <g id="line2d_17">
      <g>
       <use xlink:href="#m31e62d37d3" x="151.024865" y="291.28" style="stroke: #000000; stroke-width: 0.6"/>
      </g>
     </g>
    </g>
    <g id="xtick_16">
     <g id="line2d_18">
      <g>
       <use xlink:href="#m31e62d37d3" x="155.677225" y="291.28" style="stroke: #000000; stroke-width: 0.6"/>
      </g>
     </g>
    </g>
    <g id="xtick_17">
     <g id="line2d_19">
      <g>
       <use xlink:href="#m31e62d37d3" x="159.780897" y="291.28" style="stroke: #000000; stroke-width: 0.6"/>
      </g>
     </g>
    </g>
    <g id="xtick_18">
     <g id="line2d_20">
      <g>
       <use xlink:href="#m31e62d37d3" x="187.601661" y="291.28" style="stroke: #000000; stroke-width: 0.6"/>
      </g>
     </g>
    </g>
    <g id="xtick_19">
     <g id="line2d_21">
      <g>
       <use xlink:href="#m31e62d37d3" x="201.728449" y="291.28" style="stroke: #000000; stroke-width: 0.6"/>
      </g>
     </g>
    </g>
    <g id="xtick_20">
     <g id="line2d_22">
      <g>
       <use xlink:href="#m31e62d37d3" x="211.751564" y="291.28" style="stroke: #000000; stroke-width: 0.6"/>
      </g>
     </g>
    </g>
    <g id="xtick_21">
     <g id="line2d_23">
      <g>
       <use xlink:href="#m31e62d37d3" x="219.526097" y="291.28" style="stroke: #000000; stroke-width: 0.6"/>
      </g>
     </g>
    </g>
    <g id="xtick_22">
     <g id="line2d_24">
      <g>
       <use xlink:href="#m31e62d37d3" x="225.878352" y="291.28" style="stroke: #000000; stroke-width: 0.6"/>
      </g>
     </g>
    </g>
    <g id="xtick_23">
     <g id="line2d_25">
      <g>
       <use xlink:href="#m31e62d37d3" x="231.249108" y="291.28" style="stroke: #000000; stroke-width: 0.6"/>
      </g>
     </g>
    </g>
    <g id="xtick_24">
     <g id="line2d_26">
      <g>
       <use xlink:href="#m31e62d37d3" x="235.901468" y="291.28" style="stroke: #000000; stroke-width: 0.6"/>
      </g>
     </g>
    </g>
    <g id="xtick_25">
     <g id="line2d_27">
      <g>
       <use xlink:href="#m31e62d37d3" x="240.00514" y="291.28" style="stroke: #000000; stroke-width: 0.6"/>
      </g>
     </g>
    </g>
    <g id="xtick_26">
     <g id="line2d_28">
      <g>
       <use xlink:href="#m31e62d37d3" x="267.825903" y="291.28" style="stroke: #000000; stroke-width: 0.6"/>
      </g>
     </g>
    </g>
    <g id="xtick_27">
     <g id="line2d_29">
      <g>
       <use xlink:href="#m31e62d37d3" x="281.952691" y="291.28" style="stroke: #000000; stroke-width: 0.6"/>
      </g>
     </g>
    </g>
    <g id="xtick_28">
     <g id="line2d_30">
      <g>
       <use xlink:href="#m31e62d37d3" x="291.975807" y="291.28" style="stroke: #000000; stroke-width: 0.6"/>
      </g>
     </g>
    </g>
    <g id="xtick_29">
     <g id="line2d_31">
      <g>
       <use xlink:href="#m31e62d37d3" x="299.750339" y="291.28" style="stroke: #000000; stroke-width: 0.6"/>
      </g>
     </g>
    </g>
    <g id="xtick_30">
     <g id="line2d_32">
      <g>
       <use xlink:href="#m31e62d37d3" x="306.102595" y="291.28" style="stroke: #000000; stroke-width: 0.6"/>
      </g>
     </g>
    </g>
    <g id="xtick_31">
     <g id="line2d_33">
      <g>
       <use xlink:href="#m31e62d37d3" x="311.47335" y="291.28" style="stroke: #000000; stroke-width: 0.6"/>
      </g>
     </g>
    </g>
    <g id="xtick_32">
     <g id="line2d_34">
      <g>
       <use xlink:href="#m31e62d37d3" x="316.12571" y="291.28" style="stroke: #000000; stroke-width: 0.6"/>
      </g>
     </g>
    </g>
    <g id="xtick_33">
     <g id="line2d_35">
      <g>
       <use xlink:href="#m31e62d37d3" x="320.229383" y="291.28" style="stroke: #000000; stroke-width: 0.6"/>
      </g>
     </g>
    </g>
    <g id="xtick_34">
     <g id="line2d_36">
      <g>
       <use xlink:href="#m31e62d37d3" x="348.050146" y="291.28" style="stroke: #000000; stroke-width: 0.6"/>
      </g>
     </g>
    </g>
    <g id="xtick_35">
     <g id="line2d_37">
      <g>
       <use xlink:href="#m31e62d37d3" x="362.176934" y="291.28" style="stroke: #000000; stroke-width: 0.6"/>
      </g>
     </g>
    </g>
    <g id="xtick_36">
     <g id="line2d_38">
      <g>
       <use xlink:href="#m31e62d37d3" x="372.20005" y="291.28" style="stroke: #000000; stroke-width: 0.6"/>
      </g>
     </g>
    </g>
    <g id="xtick_37">
     <g id="line2d_39">
      <g>
       <use xlink:href="#m31e62d37d3" x="379.974582" y="291.28" style="stroke: #000000; stroke-width: 0.6"/>
      </g>
     </g>
    </g>
    <g id="xtick_38">
     <g id="line2d_40">
      <g>
       <use xlink:href="#m31e62d37d3" x="386.326837" y="291.28" style="stroke: #000000; stroke-width: 0.6"/>
      </g>
     </g>
    </g>
    <g id="xtick_39">
     <g id="line2d_41">
      <g>
       <use xlink:href="#m31e62d37d3" x="391.697593" y="291.28" style="stroke: #000000; stroke-width: 0.6"/>
      </g>
     </g>
    </g>
    <g id="xtick_40">
     <g id="line2d_42">
      <g>
       <use xlink:href="#m31e62d37d3" x="396.349953" y="291.28" style="stroke: #000000; stroke-width: 0.6"/>
      </g>
     </g>
    </g>
    <g id="xtick_41">
     <g id="line2d_43">
      <g>
       <use xlink:href="#m31e62d37d3" x="400.453625" y="291.28" style="stroke: #000000; stroke-width: 0.6"/>
      </g>
     </g>
    </g>
    <g id="xtick_42">
     <g id="line2d_44">
      <g>
       <use xlink:href="#m31e62d37d3" x="428.274389" y="291.28" style="stroke: #000000; stroke-width: 0.6"/>
      </g>
     </g>
    </g>
    <g id="xtick_43">
     <g id="line2d_45">
      <g>
       <use xlink:href="#m31e62d37d3" x="442.401177" y="291.28" style="stroke: #000000; stroke-width: 0.6"/>
      </g>
     </g>
    </g>
    <g id="xtick_44">
     <g id="line2d_46">
      <g>
       <use xlink:href="#m31e62d37d3" x="452.424292" y="291.28" style="stroke: #000000; stroke-width: 0.6"/>
      </g>
     </g>
    </g>
    <g id="text_3">
     <!-- log10 of FEvals ratio -->
     <g transform="translate(141.371312 336.833125) scale(0.2 -0.2)">
      <defs>
       <path id="DejaVuSans-6c" d="M 603 4863 
L 1178 4863 
L 1178 0 
L 603 0 
L 603 4863 
z
" transform="scale(0.015625)"/>
       <path id="DejaVuSans-6f" d="M 1959 3097 
Q 1497 3097 1228 2736 
Q 959 2375 959 1747 
Q 959 1119 1226 758 
Q 1494 397 1959 397 
Q 2419 397 2687 759 
Q 2956 1122 2956 1747 
Q 2956 2369 2687 2733 
Q 2419 3097 1959 3097 
z
M 1959 3584 
Q 2709 3584 3137 3096 
Q 3566 2609 3566 1747 
Q 3566 888 3137 398 
Q 2709 -91 1959 -91 
Q 1206 -91 779 398 
Q 353 888 353 1747 
Q 353 2609 779 3096 
Q 1206 3584 1959 3584 
z
" transform="scale(0.015625)"/>
       <path id="DejaVuSans-67" d="M 2906 1791 
Q 2906 2416 2648 2759 
Q 2391 3103 1925 3103 
Q 1463 3103 1205 2759 
Q 947 2416 947 1791 
Q 947 1169 1205 825 
Q 1463 481 1925 481 
Q 2391 481 2648 825 
Q 2906 1169 2906 1791 
z
M 3481 434 
Q 3481 -459 3084 -895 
Q 2688 -1331 1869 -1331 
Q 1566 -1331 1297 -1286 
Q 1028 -1241 775 -1147 
L 775 -588 
Q 1028 -725 1275 -790 
Q 1522 -856 1778 -856 
Q 2344 -856 2625 -561 
Q 2906 -266 2906 331 
L 2906 616 
Q 2728 306 2450 153 
Q 2172 0 1784 0 
Q 1141 0 747 490 
Q 353 981 353 1791 
Q 353 2603 747 3093 
Q 1141 3584 1784 3584 
Q 2172 3584 2450 3431 
Q 2728 3278 2906 2969 
L 2906 3500 
L 3481 3500 
L 3481 434 
z
" transform="scale(0.015625)"/>
       <path id="DejaVuSans-30" d="M 2034 4250 
Q 1547 4250 1301 3770 
Q 1056 3291 1056 2328 
Q 1056 1369 1301 889 
Q 1547 409 2034 409 
Q 2525 409 2770 889 
Q 3016 1369 3016 2328 
Q 3016 3291 2770 3770 
Q 2525 4250 2034 4250 
z
M 2034 4750 
Q 2819 4750 3233 4129 
Q 3647 3509 3647 2328 
Q 3647 1150 3233 529 
Q 2819 -91 2034 -91 
Q 1250 -91 836 529 
Q 422 1150 422 2328 
Q 422 3509 836 4129 
Q 1250 4750 2034 4750 
z
" transform="scale(0.015625)"/>
       <path id="DejaVuSans-20" transform="scale(0.015625)"/>
       <path id="DejaVuSans-66" d="M 2375 4863 
L 2375 4384 
L 1825 4384 
Q 1516 4384 1395 4259 
Q 1275 4134 1275 3809 
L 1275 3500 
L 2222 3500 
L 2222 3053 
L 1275 3053 
L 1275 0 
L 697 0 
L 697 3053 
L 147 3053 
L 147 3500 
L 697 3500 
L 697 3744 
Q 697 4328 969 4595 
Q 1241 4863 1831 4863 
L 2375 4863 
z
" transform="scale(0.015625)"/>
       <path id="DejaVuSans-46" d="M 628 4666 
L 3309 4666 
L 3309 4134 
L 1259 4134 
L 1259 2759 
L 3109 2759 
L 3109 2228 
L 1259 2228 
L 1259 0 
L 628 0 
L 628 4666 
z
" transform="scale(0.015625)"/>
       <path id="DejaVuSans-45" d="M 628 4666 
L 3578 4666 
L 3578 4134 
L 1259 4134 
L 1259 2753 
L 3481 2753 
L 3481 2222 
L 1259 2222 
L 1259 531 
L 3634 531 
L 3634 0 
L 628 0 
L 628 4666 
z
" transform="scale(0.015625)"/>
       <path id="DejaVuSans-76" d="M 191 3500 
L 800 3500 
L 1894 563 
L 2988 3500 
L 3597 3500 
L 2284 0 
L 1503 0 
L 191 3500 
z
" transform="scale(0.015625)"/>
       <path id="DejaVuSans-61" d="M 2194 1759 
Q 1497 1759 1228 1600 
Q 959 1441 959 1056 
Q 959 750 1161 570 
Q 1363 391 1709 391 
Q 2188 391 2477 730 
Q 2766 1069 2766 1631 
L 2766 1759 
L 2194 1759 
z
M 3341 1997 
L 3341 0 
L 2766 0 
L 2766 531 
Q 2569 213 2275 61 
Q 1981 -91 1556 -91 
Q 1019 -91 701 211 
Q 384 513 384 1019 
Q 384 1609 779 1909 
Q 1175 2209 1959 2209 
L 2766 2209 
L 2766 2266 
Q 2766 2663 2505 2880 
Q 2244 3097 1772 3097 
Q 1472 3097 1187 3025 
Q 903 2953 641 2809 
L 641 3341 
Q 956 3463 1253 3523 
Q 1550 3584 1831 3584 
Q 2591 3584 2966 3190 
Q 3341 2797 3341 1997 
z
" transform="scale(0.015625)"/>
       <path id="DejaVuSans-73" d="M 2834 3397 
L 2834 2853 
Q 2591 2978 2328 3040 
Q 2066 3103 1784 3103 
Q 1356 3103 1142 2972 
Q 928 2841 928 2578 
Q 928 2378 1081 2264 
Q 1234 2150 1697 2047 
L 1894 2003 
Q 2506 1872 2764 1633 
Q 3022 1394 3022 966 
Q 3022 478 2636 193 
Q 2250 -91 1575 -91 
Q 1294 -91 989 -36 
Q 684 19 347 128 
L 347 722 
Q 666 556 975 473 
Q 1284 391 1588 391 
Q 1994 391 2212 530 
Q 2431 669 2431 922 
Q 2431 1156 2273 1281 
Q 2116 1406 1581 1522 
L 1381 1569 
Q 847 1681 609 1914 
Q 372 2147 372 2553 
Q 372 3047 722 3315 
Q 1072 3584 1716 3584 
Q 2034 3584 2315 3537 
Q 2597 3491 2834 3397 
z
" transform="scale(0.015625)"/>
       <path id="DejaVuSans-72" d="M 2631 2963 
Q 2534 3019 2420 3045 
Q 2306 3072 2169 3072 
Q 1681 3072 1420 2755 
Q 1159 2438 1159 1844 
L 1159 0 
L 581 0 
L 581 3500 
L 1159 3500 
L 1159 2956 
Q 1341 3275 1631 3429 
Q 1922 3584 2338 3584 
Q 2397 3584 2469 3576 
Q 2541 3569 2628 3553 
L 2631 2963 
z
" transform="scale(0.015625)"/>
       <path id="DejaVuSans-74" d="M 1172 4494 
L 1172 3500 
L 2356 3500 
L 2356 3053 
L 1172 3053 
L 1172 1153 
Q 1172 725 1289 603 
Q 1406 481 1766 481 
L 2356 481 
L 2356 0 
L 1766 0 
Q 1100 0 847 248 
Q 594 497 594 1153 
L 594 3053 
L 172 3053 
L 172 3500 
L 594 3500 
L 594 4494 
L 1172 4494 
z
" transform="scale(0.015625)"/>
       <path id="DejaVuSans-69" d="M 603 3500 
L 1178 3500 
L 1178 0 
L 603 0 
L 603 3500 
z
M 603 4863 
L 1178 4863 
L 1178 4134 
L 603 4134 
L 603 4863 
z
" transform="scale(0.015625)"/>
      </defs>
      <use xlink:href="#DejaVuSans-6c"/>
      <use xlink:href="#DejaVuSans-6f" x="27.783203"/>
      <use xlink:href="#DejaVuSans-67" x="88.964844"/>
      <use xlink:href="#DejaVuSans-31" x="152.441406"/>
      <use xlink:href="#DejaVuSans-30" x="216.064453"/>
      <use xlink:href="#DejaVuSans-20" x="279.6875"/>
      <use xlink:href="#DejaVuSans-6f" x="311.474609"/>
      <use xlink:href="#DejaVuSans-66" x="372.65625"/>
      <use xlink:href="#DejaVuSans-20" x="407.861328"/>
      <use xlink:href="#DejaVuSans-46" x="439.648438"/>
      <use xlink:href="#DejaVuSans-45" x="497.167969"/>
      <use xlink:href="#DejaVuSans-76" x="560.351562"/>
      <use xlink:href="#DejaVuSans-61" x="619.53125"/>
      <use xlink:href="#DejaVuSans-6c" x="680.810547"/>
      <use xlink:href="#DejaVuSans-73" x="708.59375"/>
      <use xlink:href="#DejaVuSans-20" x="760.693359"/>
      <use xlink:href="#DejaVuSans-72" x="792.480469"/>
      <use xlink:href="#DejaVuSans-61" x="833.59375"/>
      <use xlink:href="#DejaVuSans-74" x="894.873047"/>
      <use xlink:href="#DejaVuSans-69" x="934.082031"/>
      <use xlink:href="#DejaVuSans-6f" x="961.865234"/>
     </g>
    </g>
   </g>
   <g id="matplotlib.axis_2">
    <g id="ytick_1">
     <g id="line2d_47">
      <path d="M 34.16 288.453725 
L 453.192 288.453725 
" clip-path="url(#p4315282e27)" style="fill: none; stroke: #b0b0b0; stroke-width: 0.8; stroke-linecap: square"/>
     </g>
     <g id="line2d_48">
      <defs>
       <path id="md04e778ea8" d="M 0 0 
L -3.5 0 
" style="stroke: #000000; stroke-width: 0.8"/>
      </defs>
      <g>
       <use xlink:href="#md04e778ea8" x="34.16" y="288.453725" style="stroke: #000000; stroke-width: 0.8"/>
      </g>
     </g>
    </g>
    <g id="ytick_2">
     <g id="line2d_49">
      <path d="M 34.16 217.796863 
L 453.192 217.796863 
" clip-path="url(#p4315282e27)" style="fill: none; stroke: #b0b0b0; stroke-width: 0.8; stroke-linecap: square"/>
     </g>
     <g id="line2d_50">
      <g>
       <use xlink:href="#md04e778ea8" x="34.16" y="217.796863" style="stroke: #000000; stroke-width: 0.8"/>
      </g>
     </g>
    </g>
    <g id="ytick_3">
     <g id="line2d_51">
      <path d="M 34.16 147.14 
L 453.192 147.14 
" clip-path="url(#p4315282e27)" style="fill: none; stroke: #b0b0b0; stroke-width: 0.8; stroke-linecap: square"/>
     </g>
     <g id="line2d_52">
      <g>
       <use xlink:href="#md04e778ea8" x="34.16" y="147.14" style="stroke: #000000; stroke-width: 0.8"/>
      </g>
     </g>
    </g>
    <g id="ytick_4">
     <g id="line2d_53">
      <path d="M 34.16 76.483137 
L 453.192 76.483137 
" clip-path="url(#p4315282e27)" style="fill: none; stroke: #b0b0b0; stroke-width: 0.8; stroke-linecap: square"/>
     </g>
     <g id="line2d_54">
      <g>
       <use xlink:href="#md04e778ea8" x="34.16" y="76.483137" style="stroke: #000000; stroke-width: 0.8"/>
      </g>
     </g>
    </g>
    <g id="ytick_5">
     <g id="line2d_55">
      <path d="M 34.16 5.826275 
L 453.192 5.826275 
" clip-path="url(#p4315282e27)" style="fill: none; stroke: #b0b0b0; stroke-width: 0.8; stroke-linecap: square"/>
     </g>
     <g id="line2d_56">
      <g>
       <use xlink:href="#md04e778ea8" x="34.16" y="5.826275" style="stroke: #000000; stroke-width: 0.8"/>
      </g>
     </g>
    </g>
    <g id="text_4">
     <!-- proportion of trials -->
     <g transform="translate(19.000625 240.14625) rotate(-90) scale(0.2 -0.2)">
      <defs>
       <path id="DejaVuSans-70" d="M 1159 525 
L 1159 -1331 
L 581 -1331 
L 581 3500 
L 1159 3500 
L 1159 2969 
Q 1341 3281 1617 3432 
Q 1894 3584 2278 3584 
Q 2916 3584 3314 3078 
Q 3713 2572 3713 1747 
Q 3713 922 3314 415 
Q 2916 -91 2278 -91 
Q 1894 -91 1617 61 
Q 1341 213 1159 525 
z
M 3116 1747 
Q 3116 2381 2855 2742 
Q 2594 3103 2138 3103 
Q 1681 3103 1420 2742 
Q 1159 2381 1159 1747 
Q 1159 1113 1420 752 
Q 1681 391 2138 391 
Q 2594 391 2855 752 
Q 3116 1113 3116 1747 
z
" transform="scale(0.015625)"/>
       <path id="DejaVuSans-6e" d="M 3513 2113 
L 3513 0 
L 2938 0 
L 2938 2094 
Q 2938 2591 2744 2837 
Q 2550 3084 2163 3084 
Q 1697 3084 1428 2787 
Q 1159 2491 1159 1978 
L 1159 0 
L 581 0 
L 581 3500 
L 1159 3500 
L 1159 2956 
Q 1366 3272 1645 3428 
Q 1925 3584 2291 3584 
Q 2894 3584 3203 3211 
Q 3513 2838 3513 2113 
z
" transform="scale(0.015625)"/>
      </defs>
      <use xlink:href="#DejaVuSans-70"/>
      <use xlink:href="#DejaVuSans-72" x="63.476562"/>
      <use xlink:href="#DejaVuSans-6f" x="102.339844"/>
      <use xlink:href="#DejaVuSans-70" x="163.521484"/>
      <use xlink:href="#DejaVuSans-6f" x="226.998047"/>
      <use xlink:href="#DejaVuSans-72" x="288.179688"/>
      <use xlink:href="#DejaVuSans-74" x="329.292969"/>
      <use xlink:href="#DejaVuSans-69" x="368.501953"/>
      <use xlink:href="#DejaVuSans-6f" x="396.285156"/>
      <use xlink:href="#DejaVuSans-6e" x="457.466797"/>
      <use xlink:href="#DejaVuSans-20" x="520.845703"/>
      <use xlink:href="#DejaVuSans-6f" x="552.632812"/>
      <use xlink:href="#DejaVuSans-66" x="613.814453"/>
      <use xlink:href="#DejaVuSans-20" x="649.019531"/>
      <use xlink:href="#DejaVuSans-74" x="680.806641"/>
      <use xlink:href="#DejaVuSans-72" x="720.015625"/>
      <use xlink:href="#DejaVuSans-69" x="761.128906"/>
      <use xlink:href="#DejaVuSans-61" x="788.912109"/>
      <use xlink:href="#DejaVuSans-6c" x="850.191406"/>
      <use xlink:href="#DejaVuSans-73" x="877.974609"/>
     </g>
    </g>
   </g>
   <g id="line2d_57">
    <path d="M 34.16 256.06933 
L 61.191198 256.06933 
L 61.191198 255.742215 
L 66.792689 255.742215 
L 66.792689 255.4151 
L 89.998525 255.4151 
L 89.998525 255.087985 
L 91.183231 255.087985 
L 91.183231 254.76087 
L 96.155294 254.76087 
L 96.263926 254.106639 
L 99.087704 254.106639 
L 99.087704 253.779524 
L 99.60267 253.779524 
L 99.60267 253.452409 
L 101.865417 253.452409 
L 101.865417 253.125294 
L 103.493449 253.125294 
L 103.493449 252.798179 
L 105.86513 252.798179 
L 105.86513 252.471064 
L 108.567332 252.471064 
L 108.567332 252.143949 
L 114.97155 252.143949 
L 114.97155 251.816834 
L 121.069026 251.816834 
L 121.069026 251.489719 
L 125.071253 251.489719 
L 125.071253 251.162603 
L 126.25596 251.162603 
L 126.25596 250.835488 
L 131.228022 250.835488 
L 131.309137 250.181258 
L 133.812873 250.181258 
L 133.812873 249.854143 
L 134.160432 249.854143 
L 134.160432 249.527028 
L 134.29217 249.527028 
L 134.317527 248.872798 
L 134.675399 248.872798 
L 134.675399 248.545683 
L 135.583181 248.545683 
L 135.583181 248.218568 
L 136.795907 248.218568 
L 136.821264 247.564337 
L 138.086917 247.564337 
L 138.086917 247.237222 
L 138.566178 247.237222 
L 138.566178 246.910107 
L 140.937858 246.910107 
L 140.937858 246.582992 
L 143.039418 246.582992 
L 143.039418 246.255877 
L 143.64006 246.255877 
L 143.64006 245.928762 
L 146.022452 245.928762 
L 146.047809 245.274532 
L 147.313462 245.274532 
L 147.313462 244.947416 
L 150.044278 244.947416 
L 150.044278 244.620301 
L 156.141754 244.620301 
L 156.141754 244.293186 
L 178.448178 244.293186 
L 178.448178 243.966071 
L 184.049669 243.966071 
L 184.049669 243.638956 
L 186.879958 243.638956 
L 186.879958 243.311841 
L 190.674083 243.311841 
L 190.674083 242.984726 
L 192.481449 242.984726 
L 192.481449 242.657611 
L 193.657116 242.657611 
L 193.682473 242.003381 
L 194.948127 242.003381 
L 194.948127 241.676265 
L 195.162895 241.676265 
L 195.194361 241.022035 
L 197.120681 241.022035 
L 197.120681 240.69492 
L 200.795852 240.69492 
L 200.795852 240.367805 
L 202.722172 240.367805 
L 202.722172 240.04069 
L 203.024353 240.04069 
L 203.024353 239.713575 
L 204.289376 239.713575 
L 204.289376 239.38646 
L 205.861505 239.38646 
L 205.861505 239.059345 
L 206.69241 239.059345 
L 206.69241 238.732229 
L 207.255506 238.732229 
L 207.255506 238.405114 
L 208.440212 238.405114 
L 208.440212 238.077999 
L 208.625844 238.077999 
L 208.625844 237.750884 
L 211.164068 237.750884 
L 211.164068 237.423769 
L 211.462996 237.423769 
L 211.462996 237.096654 
L 212.293901 237.096654 
L 212.293901 236.769539 
L 213.412274 236.769539 
L 213.412274 236.442424 
L 214.148122 236.442424 
L 214.148122 236.115309 
L 214.762504 236.115309 
L 214.802583 235.461078 
L 215.476483 235.461078 
L 215.476483 235.133963 
L 215.687285 235.133963 
L 215.687285 234.806848 
L 215.80261 234.806848 
L 215.80261 234.479733 
L 216.344684 234.479733 
L 216.344684 234.152618 
L 216.563176 234.152618 
L 216.563176 233.825503 
L 216.859651 233.825503 
L 216.871992 233.171273 
L 218.963485 233.171273 
L 218.963485 232.844158 
L 219.163377 232.844158 
L 219.163377 232.517042 
L 220.363995 232.517042 
L 220.363995 232.189927 
L 220.75043 232.189927 
L 220.75043 231.862812 
L 220.889342 231.862812 
L 220.889342 231.535697 
L 221.077974 231.535697 
L 221.077974 231.208582 
L 221.331188 231.208582 
L 221.404101 230.554352 
L 221.844054 230.554352 
L 221.844054 230.227237 
L 222.265056 230.227237 
L 222.373794 229.573007 
L 222.940512 229.573007 
L 222.940512 229.245891 
L 223.12211 229.245891 
L 223.12211 228.918776 
L 223.274603 228.918776 
L 223.274603 228.591661 
L 223.929064 228.591661 
L 224.001688 227.937431 
L 224.564977 227.937431 
L 224.564977 227.610316 
L 224.764868 227.610316 
L 224.776464 226.628971 
L 225.186395 226.628971 
L 225.291431 225.97474 
L 225.689657 225.97474 
L 225.689657 225.647625 
L 225.824313 225.647625 
L 225.928008 224.993395 
L 226.490834 224.993395 
L 226.574585 224.339165 
L 227.112715 224.339165 
L 227.112715 224.01205 
L 228.991627 224.01205 
L 228.991627 223.684935 
L 229.18221 223.684935 
L 229.18221 223.35782 
L 230.149295 223.35782 
L 230.158457 222.703589 
L 230.556171 222.703589 
L 230.556171 222.376474 
L 230.803756 222.376474 
L 230.803756 222.049359 
L 231.124161 222.049359 
L 231.124161 221.722244 
L 231.512233 221.722244 
L 231.55389 221.068014 
L 231.83168 221.068014 
L 231.83168 220.740899 
L 232.084777 220.740899 
L 232.084777 220.413784 
L 232.228531 220.413784 
L 232.228531 220.086668 
L 232.564349 220.086668 
L 232.564349 219.759553 
L 233.016386 219.759553 
L 233.090867 218.778208 
L 233.605834 218.778208 
L 233.605834 218.451093 
L 233.995338 218.451093 
L 234.015969 217.796863 
L 234.256092 217.796863 
L 234.256092 217.469748 
L 234.65762 217.469748 
L 234.668832 216.815517 
L 235.017187 216.815517 
L 235.017187 216.488402 
L 235.421244 216.488402 
L 235.532154 215.507057 
L 235.853539 215.507057 
L 235.853539 215.179942 
L 236.684443 215.179942 
L 236.793354 214.525712 
L 237.321943 214.525712 
L 237.321943 214.198597 
L 237.496613 214.198597 
L 237.496613 213.871481 
L 237.617655 213.871481 
L 237.617655 213.544366 
L 237.92498 213.544366 
L 237.988449 212.890136 
L 238.326007 212.890136 
L 238.326007 212.563021 
L 239.29709 212.563021 
L 239.29709 212.235906 
L 239.422933 212.235906 
L 239.422933 211.908791 
L 239.868293 211.908791 
L 239.868293 211.581676 
L 240.121391 211.581676 
L 240.121391 211.254561 
L 240.316415 211.254561 
L 240.316415 210.927446 
L 240.585109 210.927446 
L 240.660311 210.273215 
L 240.825601 210.273215 
L 240.920858 209.618985 
L 240.970876 209.618985 
L 240.970876 209.29187 
L 241.359021 209.29187 
L 241.435825 208.63764 
L 241.649218 208.63764 
L 241.656506 207.98341 
L 241.794613 207.98341 
L 241.794613 207.656294 
L 241.925739 207.656294 
L 242.013482 207.002064 
L 242.286453 207.002064 
L 242.286453 206.674949 
L 242.570495 206.674949 
L 242.5802 206.020719 
L 242.731469 206.020719 
L 242.731469 205.693604 
L 242.896561 205.693604 
L 242.896561 205.366489 
L 243.088845 205.366489 
L 243.088845 205.039374 
L 243.222197 205.039374 
L 243.242515 204.385143 
L 243.569831 204.385143 
L 243.569831 204.058028 
L 243.728553 204.058028 
L 243.784101 202.749568 
L 244.152954 202.749568 
L 244.152954 202.422453 
L 244.272978 202.422453 
L 244.340793 201.441107 
L 244.496815 201.441107 
L 244.588915 200.786877 
L 244.609937 200.786877 
L 244.609937 200.459762 
L 244.754538 200.459762 
L 244.754538 200.132647 
L 245.103882 200.132647 
L 245.103882 199.805532 
L 245.326604 199.805532 
L 245.326604 199.478417 
L 245.468517 199.478417 
L 245.558339 198.824187 
L 245.794643 198.824187 
L 245.794643 198.497072 
L 246.154389 198.497072 
L 246.154389 198.169956 
L 246.757787 198.169956 
L 246.757787 197.842841 
L 247.151525 197.842841 
L 247.151525 197.515726 
L 247.698285 197.515726 
L 247.770813 196.861496 
L 247.970704 196.861496 
L 248.062076 196.207266 
L 248.163757 196.207266 
L 248.163757 195.880151 
L 248.523635 195.880151 
L 248.523635 195.553036 
L 248.658125 195.553036 
L 248.658125 195.22592 
L 248.793181 195.22592 
L 248.793181 194.898805 
L 248.955519 194.898805 
L 248.994661 193.91746 
L 249.15541 193.91746 
L 249.15541 193.590345 
L 249.347936 193.590345 
L 249.347936 193.26323 
L 249.69667 193.26323 
L 249.7266 192.609 
L 249.899032 192.609 
L 249.899032 192.281885 
L 250.109388 192.281885 
L 250.109388 191.954769 
L 250.400487 191.954769 
L 250.440579 191.300539 
L 250.535437 191.300539 
L 250.535437 190.973424 
L 250.658793 190.973424 
L 250.766706 189.992079 
L 250.852203 189.992079 
L 250.901033 189.010733 
L 251.296918 189.010733 
L 251.366342 188.356503 
L 251.418955 188.356503 
L 251.418955 188.029388 
L 252.31539 188.029388 
L 252.31539 187.702273 
L 252.524442 187.702273 
L 252.524442 187.375158 
L 252.65901 187.375158 
L 252.65901 187.048043 
L 252.882065 187.048043 
L 252.907422 186.393813 
L 253.173977 186.393813 
L 253.237639 185.739582 
L 253.372989 185.739582 
L 253.379499 185.085352 
L 253.699116 185.085352 
L 253.699116 184.758237 
L 253.887956 184.758237 
L 253.927582 184.104007 
L 254.068544 184.104007 
L 254.173076 183.122662 
L 254.214082 183.122662 
L 254.214082 182.795546 
L 254.401989 182.795546 
L 254.427345 182.141316 
L 255.072189 182.141316 
L 255.072189 181.814201 
L 255.692999 181.814201 
L 255.692999 181.487086 
L 255.853439 181.487086 
L 255.853439 181.159971 
L 256.07739 181.159971 
L 256.07739 180.832856 
L 256.30717 180.832856 
L 256.30717 180.505741 
L 256.804705 180.505741 
L 256.859991 179.851511 
L 256.961631 179.851511 
L 257.064756 178.54305 
L 257.288621 178.54305 
L 257.374958 177.88882 
L 257.563219 177.88882 
L 257.574849 177.23459 
L 257.778735 177.23459 
L 257.88467 176.253244 
L 258.104861 176.253244 
L 258.104861 175.926129 
L 258.722224 175.926129 
L 258.785848 175.271899 
L 259.060423 175.271899 
L 259.08578 174.617669 
L 259.300815 174.617669 
L 259.300815 174.290554 
L 259.436436 174.290554 
L 259.457049 173.636324 
L 259.641857 173.636324 
L 259.641857 173.309208 
L 259.978684 173.309208 
L 259.978684 172.982093 
L 260.150415 172.982093 
L 260.151128 172.327863 
L 260.351434 172.327863 
L 260.351434 172.000748 
L 260.472762 172.000748 
L 260.571609 170.365172 
L 260.812114 170.365172 
L 260.837471 169.383827 
L 261.265737 169.383827 
L 261.265737 169.056712 
L 261.465628 169.056712 
L 261.465628 168.729597 
L 261.647313 168.729597 
L 261.647313 168.402482 
L 261.837263 168.402482 
L 261.881788 167.421137 
L 262.103125 167.421137 
L 262.207424 166.439791 
L 262.435236 166.439791 
L 262.536249 165.131331 
L 262.71378 165.131331 
L 262.71378 164.804216 
L 262.852617 164.804216 
L 262.902181 163.82287 
L 263.134161 163.82287 
L 263.191594 162.51441 
L 263.368241 162.51441 
L 263.368241 162.187295 
L 263.637417 162.187295 
L 263.731093 161.533065 
L 263.837309 161.533065 
L 263.837309 161.20595 
L 264.064355 161.20595 
L 264.064355 160.878834 
L 264.296841 160.878834 
L 264.296841 160.551719 
L 264.425172 160.551719 
L 264.425172 160.224604 
L 264.622477 160.224604 
L 264.622477 159.897489 
L 265.128834 159.897489 
L 265.128834 159.570374 
L 265.563274 159.570374 
L 265.563274 159.243259 
L 265.739333 159.243259 
L 265.739333 158.916144 
L 266.33962 158.916144 
L 266.33962 158.589029 
L 266.539511 158.589029 
L 266.570238 157.934798 
L 266.853376 157.934798 
L 266.853376 157.607683 
L 268.265477 157.607683 
L 268.265477 157.280568 
L 268.542857 157.280568 
L 268.542857 156.953453 
L 269.256835 156.953453 
L 269.256835 156.626338 
L 269.582962 156.626338 
L 269.582962 156.299223 
L 270.618885 156.299223 
L 270.618885 155.972108 
L 271.370776 155.972108 
L 271.370776 155.644993 
L 272.743838 155.644993 
L 272.743838 155.317878 
L 272.943729 155.317878 
L 272.943729 154.990763 
L 274.640333 154.990763 
L 274.669695 154.336532 
L 275.354311 154.336532 
L 275.354311 154.009417 
L 275.680438 154.009417 
L 275.680438 153.682302 
L 276.816667 153.682302 
L 276.816667 153.355187 
L 277.020495 153.355187 
L 277.020495 153.028072 
L 278.063101 153.028072 
L 278.063101 152.700957 
L 278.62982 152.700957 
L 278.62982 152.373842 
L 278.841314 152.373842 
L 278.841314 152.046727 
L 279.041205 152.046727 
L 279.041205 151.719611 
L 279.307817 151.719611 
L 279.307817 151.392496 
L 280.767171 151.392496 
L 280.767171 151.065381 
L 281.630002 151.065381 
L 281.630002 150.738266 
L 282.290851 150.738266 
L 282.391285 149.756921 
L 282.716921 149.756921 
L 282.716921 149.429806 
L 283.223278 149.429806 
L 283.223278 149.102691 
L 283.581861 149.102691 
L 283.581861 148.775576 
L 286.813469 148.775576 
L 286.813469 148.44846 
L 288.580928 148.44846 
L 288.580928 148.121345 
L 289.921117 148.121345 
L 289.921117 147.79423 
L 290.877179 147.79423 
L 290.877179 147.467115 
L 291.563962 147.467115 
L 291.589319 146.812885 
L 292.854972 146.812885 
L 292.854972 146.48577 
L 293.01125 146.48577 
L 293.01125 146.158655 
L 294.78619 146.158655 
L 294.78619 145.83154 
L 296.1583 145.83154 
L 296.1583 145.504424 
L 296.982601 145.504424 
L 296.982601 145.177309 
L 298.585868 145.177309 
L 298.585868 144.850194 
L 298.911504 144.850194 
L 298.911504 144.523079 
L 299.417861 144.523079 
L 299.417861 144.195964 
L 299.950055 144.195964 
L 299.950055 143.868849 
L 301.014163 143.868849 
L 301.014163 143.541734 
L 302.545962 143.541734 
L 302.545962 143.214619 
L 303.432958 143.214619 
L 303.432958 142.887504 
L 304.923285 142.887504 
L 304.943577 142.233273 
L 305.484997 142.233273 
L 305.519335 141.579043 
L 305.973511 141.579043 
L 305.973511 141.251928 
L 306.443504 141.251928 
L 306.443504 140.924813 
L 307.316813 140.924813 
L 307.316813 140.597698 
L 307.926611 140.597698 
L 307.951968 139.943468 
L 308.054996 139.943468 
L 308.158127 139.289237 
L 308.543341 139.289237 
L 308.543341 138.962122 
L 309.217621 138.962122 
L 309.217621 138.635007 
L 310.708798 138.635007 
L 310.728932 137.980777 
L 310.910658 137.980777 
L 310.910658 137.653662 
L 312.910449 137.653662 
L 312.910449 137.326547 
L 314.941021 137.326547 
L 314.941021 136.999432 
L 315.535546 136.999432 
L 315.535546 136.672317 
L 315.838856 136.672317 
L 315.838856 136.345202 
L 316.096331 136.345202 
L 316.096331 136.018086 
L 316.422542 136.018086 
L 316.422542 135.690971 
L 316.664789 135.690971 
L 316.664789 135.363856 
L 317.041251 135.363856 
L 317.041251 135.036741 
L 318.474581 135.036741 
L 318.474581 134.709626 
L 318.963095 134.709626 
L 318.963095 134.382511 
L 320.024284 134.382511 
L 320.049641 133.728281 
L 320.306397 133.728281 
L 320.306397 133.401166 
L 321.04458 133.401166 
L 321.04458 133.07405 
L 321.315295 133.07405 
L 321.315295 132.746935 
L 321.532925 132.746935 
L 321.532925 132.41982 
L 323.698383 132.41982 
L 323.718516 131.76559 
L 323.900243 131.76559 
L 323.900243 131.438475 
L 325.900033 131.438475 
L 325.900033 131.11136 
L 327.930606 131.11136 
L 327.930606 130.784245 
L 328.82844 130.784245 
L 328.82844 130.45713 
L 329.085915 130.45713 
L 329.085915 130.130015 
L 329.654373 130.130015 
L 329.654373 129.802899 
L 340.854951 129.802899 
L 340.854951 129.475784 
L 342.374875 129.475784 
L 342.374875 129.148669 
L 343.831565 129.148669 
L 343.831565 128.821554 
L 346.248608 128.821554 
L 346.248608 128.494439 
L 347.033309 128.494439 
L 347.033309 128.167324 
L 348.519138 128.167324 
L 348.519138 127.840209 
L 348.785 127.840209 
L 348.785 127.513094 
L 349.109519 127.513094 
L 349.146066 126.858863 
L 349.996515 126.858863 
L 350.102128 126.204633 
L 350.412969 126.204633 
L 350.412969 125.877518 
L 350.665989 125.877518 
L 350.705877 125.223288 
L 351.107047 125.223288 
L 351.107047 124.896173 
L 351.592874 124.896173 
L 351.622051 124.241943 
L 352.048553 124.241943 
L 352.048553 123.914828 
L 352.263345 123.914828 
L 352.263345 123.587712 
L 352.537067 123.587712 
L 352.537067 123.260597 
L 353.644912 123.260597 
L 353.644912 122.933482 
L 353.88037 122.933482 
L 353.88037 122.606367 
L 354.011139 122.606367 
L 354.103885 121.952137 
L 354.133426 121.952137 
L 354.133426 121.625022 
L 354.618553 121.625022 
L 354.680388 120.970792 
L 354.990881 120.970792 
L 354.990881 120.643676 
L 355.106898 120.643676 
L 355.106898 120.316561 
L 355.324424 120.316561 
L 355.383249 119.662331 
L 355.476729 119.662331 
L 355.531062 119.008101 
L 356.003836 119.008101 
L 356.003836 118.680986 
L 356.20755 118.680986 
L 356.280486 117.699641 
L 356.703257 117.699641 
L 356.810253 117.04541 
L 356.890832 117.04541 
L 356.903172 116.39118 
L 357.04292 116.39118 
L 357.076115 115.73695 
L 357.262137 115.73695 
L 357.292489 114.755605 
L 357.474215 114.755605 
L 357.531434 114.101374 
L 357.727473 114.101374 
L 357.766315 113.447144 
L 358.032177 113.447144 
L 358.032177 113.120029 
L 358.149133 113.120029 
L 358.149133 112.792914 
L 358.704084 112.792914 
L 358.704084 112.465799 
L 358.868714 112.465799 
L 358.942871 111.157338 
L 359.070574 111.157338 
L 359.175004 110.503108 
L 359.398162 110.503108 
L 359.474006 109.521763 
L 359.612919 109.521763 
L 359.660145 108.867533 
L 360.101264 108.867533 
L 360.201172 107.886187 
L 360.239113 107.886187 
L 360.239113 107.559072 
L 360.354224 107.559072 
L 360.354224 107.231957 
L 360.577748 107.231957 
L 360.577748 106.904842 
L 360.689686 106.904842 
L 360.774687 105.923497 
L 361.070364 105.923497 
L 361.070364 105.596382 
L 361.504578 105.596382 
L 361.561607 104.615036 
L 361.675326 104.615036 
L 361.759036 103.960806 
L 361.941188 103.960806 
L 362.032988 102.979461 
L 362.173749 102.979461 
L 362.266722 102.325231 
L 362.286855 102.325231 
L 362.385908 101.671 
L 362.402412 101.671 
L 362.504068 100.689655 
L 362.659888 100.689655 
L 362.659888 100.36254 
L 362.771171 100.36254 
L 362.771171 100.035425 
L 362.99479 100.035425 
L 363.100937 98.726964 
L 363.228346 98.726964 
L 363.313298 97.745619 
L 363.569156 97.745619 
L 363.569156 97.418504 
L 363.871737 97.418504 
L 363.871737 97.091389 
L 363.998771 97.091389 
L 363.998771 96.764274 
L 364.137599 96.764274 
L 364.186806 95.455813 
L 364.256247 95.455813 
L 364.263235 94.801583 
L 364.368533 94.801583 
L 364.468372 94.147353 
L 364.744284 94.147353 
L 364.824704 93.493123 
L 364.92111 93.493123 
L 364.941266 92.838893 
L 365.112784 92.838893 
L 365.112784 92.511777 
L 365.353362 92.511777 
L 365.445107 91.530432 
L 365.601298 91.530432 
L 365.668157 90.221972 
L 365.765567 90.221972 
L 365.765567 89.894857 
L 366.264207 89.894857 
L 366.368323 89.240626 
L 366.417471 89.240626 
L 366.498945 88.259281 
L 366.839191 88.259281 
L 366.9446 87.605051 
L 367.105053 87.605051 
L 367.105053 87.277936 
L 367.383076 87.277936 
L 367.396779 86.623706 
L 367.626624 86.623706 
L 367.682784 85.64236 
L 367.903299 85.64236 
L 367.903299 85.315245 
L 368.169161 85.315245 
L 368.222712 84.3339 
L 368.398896 84.3339 
L 368.40774 83.67967 
L 368.733021 83.67967 
L 368.733021 83.352554 
L 368.902999 83.352554 
L 368.902999 83.025439 
L 369.168636 83.025439 
L 369.168636 82.698324 
L 369.29673 82.698324 
L 369.29673 82.371209 
L 369.4271 82.371209 
L 369.4271 82.044094 
L 369.554205 82.044094 
L 369.657197 81.389864 
L 369.79713 81.389864 
L 369.79713 81.062749 
L 370.055632 81.062749 
L 370.122663 80.408519 
L 370.263737 80.408519 
L 370.356719 79.100058 
L 370.491209 79.100058 
L 370.555031 77.791598 
L 370.812506 77.791598 
L 370.922642 76.483137 
L 371.244892 76.483137 
L 371.244892 76.156022 
L 371.380964 76.156022 
L 371.399529 75.501792 
L 371.711099 75.501792 
L 371.812421 74.847562 
L 372.075797 74.847562 
L 372.107671 73.866216 
L 372.408471 73.866216 
L 372.42227 73.211986 
L 372.538236 73.211986 
L 372.596185 72.557756 
L 372.674333 72.557756 
L 372.674333 72.230641 
L 373.309267 72.230641 
L 373.309267 71.903526 
L 373.451567 71.903526 
L 373.561434 71.249296 
L 373.661934 71.249296 
L 373.763138 70.26795 
L 373.939487 70.26795 
L 373.940081 69.61372 
L 374.251652 69.61372 
L 374.302301 68.95949 
L 374.40033 68.95949 
L 374.492839 68.30526 
L 374.568809 68.30526 
L 374.67767 67.651029 
L 374.99638 67.651029 
L 375.047263 66.996799 
L 375.166015 66.996799 
L 375.166015 66.669684 
L 375.283384 66.669684 
L 375.361305 65.688339 
L 375.466643 65.688339 
L 375.466643 65.361224 
L 375.594954 65.361224 
L 375.594954 65.034109 
L 375.724118 65.034109 
L 375.724118 64.706993 
L 375.849819 64.706993 
L 375.849819 64.379878 
L 376.021567 64.379878 
L 376.021567 64.052763 
L 376.292576 64.052763 
L 376.333137 63.398533 
L 376.509912 63.398533 
L 376.509912 63.071418 
L 376.821482 63.071418 
L 376.821482 62.744303 
L 376.941094 62.744303 
L 376.941094 62.417188 
L 377.193122 62.417188 
L 377.193122 62.090073 
L 377.331472 62.090073 
L 377.351606 61.435842 
L 377.533332 61.435842 
L 377.635172 60.781612 
L 377.931305 60.781612 
L 377.931305 60.454497 
L 378.41965 60.454497 
L 378.41965 60.127382 
L 378.554852 60.127382 
L 378.554852 59.800267 
L 378.675369 59.800267 
L 378.695503 59.146037 
L 378.877229 59.146037 
L 378.98694 58.491806 
L 379.007073 58.491806 
L 379.007073 58.164691 
L 379.1888 58.164691 
L 379.1888 57.837576 
L 379.451242 57.837576 
L 379.536848 56.529116 
L 380.145891 56.529116 
L 380.145891 56.202001 
L 380.338238 56.202001 
L 380.338238 55.874886 
L 380.585107 55.874886 
L 380.605241 55.220655 
L 380.786967 55.220655 
L 380.877019 54.23931 
L 381.185997 54.23931 
L 381.18859 53.58508 
L 381.563695 53.58508 
L 381.563695 53.257965 
L 382.390276 53.257965 
L 382.461529 52.603735 
L 382.562934 52.603735 
L 382.562934 52.276619 
L 382.719005 52.276619 
L 382.786757 51.622389 
L 382.87879 51.622389 
L 382.907592 50.968159 
L 383.219162 50.968159 
L 383.287463 49.986814 
L 383.419924 49.986814 
L 383.419924 49.659699 
L 383.603039 49.659699 
L 383.603039 49.332584 
L 383.805426 49.332584 
L 383.805426 49.005468 
L 384.062902 49.005468 
L 384.116997 48.351238 
L 384.222093 48.351238 
L 384.222093 48.024123 
L 384.346872 48.024123 
L 384.374472 47.369893 
L 384.546764 47.369893 
L 384.631359 46.715663 
L 384.792034 46.715663 
L 384.81733 46.061432 
L 384.94293 46.061432 
L 384.960276 45.407202 
L 385.448621 45.407202 
L 385.448621 45.080087 
L 385.616335 45.080087 
L 385.715164 44.425857 
L 385.97264 44.425857 
L 385.97264 44.098742 
L 386.272729 44.098742 
L 386.272729 43.771627 
L 386.541097 43.771627 
L 386.541097 43.444512 
L 386.763915 43.444512 
L 386.763915 43.117397 
L 386.963806 43.117397 
L 386.963806 42.790281 
L 387.614078 42.790281 
L 387.634212 42.136051 
L 387.815938 42.136051 
L 387.827963 41.481821 
L 388.583789 41.481821 
L 388.689772 40.500476 
L 388.784024 40.500476 
L 388.784024 40.173361 
L 389.647898 40.173361 
L 389.647898 39.846245 
L 389.815729 39.846245 
L 389.815729 39.51913 
L 391.846301 39.51913 
L 391.846301 39.192015 
L 392.693035 39.192015 
L 392.744135 38.537785 
L 393.001611 38.537785 
L 393.001611 38.21067 
L 393.188229 38.21067 
L 393.188229 37.883555 
L 393.55702 37.883555 
L 393.570069 37.229325 
L 394.065145 37.229325 
L 394.153069 36.247979 
L 394.889446 36.247979 
L 394.889446 35.920864 
L 395.899497 35.920864 
L 395.899497 35.593749 
L 396.127264 35.593749 
L 396.127264 35.266634 
L 396.357715 35.266634 
L 396.357715 34.939519 
L 396.615778 34.939519 
L 396.615778 34.612404 
L 396.791862 34.612404 
L 396.791862 34.285289 
L 397.059536 34.285289 
L 397.059536 33.958174 
L 397.244711 33.958174 
L 397.244711 33.631058 
L 397.8569 33.631058 
L 397.95908 32.976828 
L 398.697263 32.976828 
L 398.697263 32.649713 
L 398.921009 32.649713 
L 398.921009 32.322598 
L 399.185608 32.322598 
L 399.185608 31.995483 
L 399.29675 31.995483 
L 399.29675 31.668368 
L 399.785264 31.668368 
L 399.785264 31.341253 
L 401.128566 31.341253 
L 401.128566 31.014138 
L 401.351066 31.014138 
L 401.371199 30.359907 
L 401.552926 30.359907 
L 401.552926 30.032792 
L 401.866749 30.032792 
L 401.866749 29.705677 
L 402.355094 29.705677 
L 402.355094 29.378562 
L 402.830131 29.378562 
L 402.830131 29.051447 
L 403.42618 29.051447 
L 403.42618 28.724332 
L 403.552716 28.724332 
L 403.552716 28.397217 
L 404.190612 28.397217 
L 404.190612 28.070102 
L 404.520552 28.070102 
L 404.540685 27.415871 
L 404.722412 27.415871 
L 404.722412 27.088756 
L 405.146673 27.088756 
L 405.146673 26.761641 
L 405.373939 26.761641 
L 405.373939 26.434526 
L 405.583289 26.434526 
L 405.583289 26.107411 
L 406.064973 26.107411 
L 406.064973 25.780296 
L 406.481123 25.780296 
L 406.481123 25.453181 
L 406.722202 25.453181 
L 406.738598 24.798951 
L 407.300259 24.798951 
L 407.307056 24.14472 
L 407.99717 24.14472 
L 407.99717 23.817605 
L 408.752775 23.817605 
L 408.752775 23.49049 
L 409.055684 23.49049 
L 409.055684 23.163375 
L 409.650609 23.163375 
L 409.650609 22.83626 
L 409.908084 22.83626 
L 409.908084 22.509145 
L 410.427794 22.509145 
L 410.476542 21.854915 
L 411.252095 21.854915 
L 411.252095 21.5278 
L 413.203931 21.5278 
L 413.203931 21.200684 
L 414.219549 21.200684 
L 414.219549 20.873569 
L 415.283658 20.873569 
L 415.283658 20.546454 
L 416.041083 20.546454 
L 416.041083 20.219339 
L 416.288285 20.219339 
L 416.288285 19.892224 
L 416.871988 19.892224 
L 416.871988 19.565109 
L 417.244347 19.565109 
L 417.244347 19.237994 
L 419.19278 19.237994 
L 419.19278 18.910879 
L 419.788829 18.910879 
L 419.788829 18.583764 
L 421.153358 18.583764 
L 421.153358 18.256649 
L 422.427622 18.256649 
L 422.525468 17.602418 
L 423.349769 17.602418 
L 423.349769 17.275303 
L 424.942082 17.275303 
L 424.942082 16.948188 
L 425.656061 16.948188 
L 425.656061 16.621073 
L 425.982188 16.621073 
L 425.982188 16.293958 
L 426.317223 16.293958 
L 426.317223 15.966843 
L 427.381331 15.966843 
L 427.381331 15.639728 
L 429.143063 15.639728 
L 429.143063 15.312613 
L 429.342955 15.312613 
L 429.342955 14.985497 
L 431.06892 14.985497 
L 431.06892 14.658382 
L 431.290453 14.658382 
L 431.290453 14.331267 
L 431.886503 14.331267 
L 431.886503 14.004152 
L 434.525295 14.004152 
L 434.525295 13.677037 
L 453.192 13.677037 
L 453.192 13.677037 
" clip-path="url(#p4315282e27)" style="fill: none; stroke: #000000; stroke-width: 3; stroke-linecap: square"/>
   </g>
   <g id="line2d_58">
    <path clip-path="url(#p4315282e27)" style="fill: none; stroke: #000000; stroke-width: 3; stroke-linecap: square"/>
   </g>
   <g id="line2d_59">
    <path d="M 34.16 162.841525 
L 211.991267 162.841525 
L 211.991267 160.747988 
L 212.6874 160.747988 
L 212.6874 158.654452 
L 213.392473 158.654452 
L 213.392473 156.560915 
L 214.215678 156.560915 
L 214.215678 154.467378 
L 221.596603 154.467378 
L 221.596603 152.373842 
L 222.292736 152.373842 
L 222.292736 150.280305 
L 222.997809 150.280305 
L 222.997809 148.186768 
L 223.821015 148.186768 
L 223.821015 146.093232 
L 232.889266 146.093232 
L 232.889266 143.999695 
L 239.888079 143.999695 
L 239.888079 141.906158 
L 240.584212 141.906158 
L 240.584212 139.812622 
L 240.947479 139.812622 
L 240.947479 137.719085 
L 241.289285 137.719085 
L 241.289285 135.625548 
L 241.510852 135.625548 
L 241.510852 133.532012 
L 241.643612 133.532012 
L 241.643612 131.438475 
L 242.11249 131.438475 
L 242.11249 129.344938 
L 242.206985 129.344938 
L 242.206985 127.251402 
L 242.348685 127.251402 
L 242.348685 125.157865 
L 242.494602 125.157865 
L 242.494602 123.064328 
L 242.912058 123.064328 
L 242.912058 120.970792 
L 243.17189 120.970792 
L 243.17189 118.877255 
L 243.735264 118.877255 
L 243.735264 116.783718 
L 249.189715 116.783718 
L 249.189715 114.690182 
L 249.885848 114.690182 
L 249.885848 112.596645 
L 250.590921 112.596645 
L 250.590921 110.503108 
L 251.414126 110.503108 
L 251.414126 108.409572 
L 260.786078 108.409572 
L 260.786078 106.316035 
L 261.845478 106.316035 
L 261.845478 104.222498 
L 262.408851 104.222498 
L 262.408851 102.128962 
L 270.087714 102.128962 
L 270.087714 100.035425 
L 453.192 100.035425 
" clip-path="url(#p4315282e27)" style="fill: none; stroke: #00bfbf; stroke-width: 3; stroke-linecap: square"/>
   </g>
   <g id="line2d_60">
    <path clip-path="url(#p4315282e27)" style="fill: none; stroke: #00bfbf; stroke-width: 3; stroke-linecap: square"/>
   </g>
   <g id="line2d_61">
    <path d="M 34.16 162.841525 
L 212.01375 162.841525 
L 212.01375 160.747988 
L 212.032303 160.747988 
L 212.032303 158.654452 
L 212.980724 158.654452 
L 212.980724 156.560915 
L 214.139616 156.560915 
L 214.139616 154.467378 
L 222.121376 154.467378 
L 222.121376 152.373842 
L 222.139929 152.373842 
L 222.139929 150.280305 
L 223.08835 150.280305 
L 223.08835 148.186768 
L 224.247241 148.186768 
L 224.247241 146.093232 
L 232.645683 146.093232 
L 232.645683 143.999695 
L 240.415349 143.999695 
L 240.415349 141.906158 
L 240.433902 141.906158 
L 240.433902 139.812622 
L 241.382323 139.812622 
L 241.382323 137.719085 
L 241.499899 137.719085 
L 241.499899 135.625548 
L 241.518453 135.625548 
L 241.518453 133.532012 
L 242.085447 133.532012 
L 242.085447 131.438475 
L 242.104001 131.438475 
L 242.104001 129.344938 
L 242.466873 129.344938 
L 242.466873 127.251402 
L 242.541214 127.251402 
L 242.541214 125.157865 
L 242.753308 125.157865 
L 242.753308 123.064328 
L 243.052421 123.064328 
L 243.052421 120.970792 
L 243.625765 120.970792 
L 243.625765 118.877255 
L 244.211313 118.877255 
L 244.211313 116.783718 
L 249.393936 116.783718 
L 249.393936 114.690182 
L 249.412489 114.690182 
L 249.412489 112.596645 
L 250.36091 112.596645 
L 250.36091 110.503108 
L 251.519801 110.503108 
L 251.519801 108.409572 
L 261.047281 108.409572 
L 261.047281 106.316035 
L 262.131832 106.316035 
L 262.131832 104.222498 
L 262.71738 104.222498 
L 262.71738 102.128962 
L 270.025868 102.128962 
L 270.025868 100.035425 
L 453.192 100.035425 
" clip-path="url(#p4315282e27)" style="fill: none; stroke: #bf00bf; stroke-width: 3; stroke-linecap: square"/>
   </g>
   <g id="line2d_62">
    <path clip-path="url(#p4315282e27)" style="fill: none; stroke: #bf00bf; stroke-width: 3; stroke-linecap: square"/>
   </g>
   <g id="line2d_63">
    <path d="M 34.16 162.841525 
L 211.197549 162.841525 
L 211.197549 160.747988 
L 211.949318 160.747988 
L 211.949318 158.654452 
L 212.82528 158.654452 
L 212.82528 156.560915 
L 213.58952 156.560915 
L 213.58952 154.467378 
L 221.578775 154.467378 
L 221.578775 152.373842 
L 222.330544 152.373842 
L 222.330544 150.280305 
L 223.206507 150.280305 
L 223.206507 148.186768 
L 223.970747 148.186768 
L 223.970747 146.093232 
L 232.233086 146.093232 
L 232.233086 143.999695 
L 239.599147 143.999695 
L 239.599147 141.906158 
L 240.350916 141.906158 
L 240.350916 139.812622 
L 240.807561 139.812622 
L 240.807561 137.719085 
L 241.226878 137.719085 
L 241.226878 135.625548 
L 241.55933 135.625548 
L 241.55933 133.532012 
L 241.756129 133.532012 
L 241.756129 131.438475 
L 241.991119 131.438475 
L 241.991119 129.344938 
L 242.435292 129.344938 
L 242.435292 127.251402 
L 242.507899 127.251402 
L 242.507899 125.157865 
L 242.614312 125.157865 
L 242.614312 123.064328 
L 243.199533 123.064328 
L 243.199533 120.970792 
L 243.383861 120.970792 
L 243.383861 118.877255 
L 244.148101 118.877255 
L 244.148101 116.783718 
L 249.264854 116.783718 
L 249.264854 114.690182 
L 250.016623 114.690182 
L 250.016623 112.596645 
L 250.892585 112.596645 
L 250.892585 110.503108 
L 251.656825 110.503108 
L 251.656825 108.409572 
L 260.634684 108.409572 
L 260.634684 106.316035 
L 261.843098 106.316035 
L 261.843098 104.222498 
L 262.791667 104.222498 
L 262.791667 102.128962 
L 270.300391 102.128962 
L 270.300391 100.035425 
L 453.192 100.035425 
" clip-path="url(#p4315282e27)" style="fill: none; stroke: #ff0000; stroke-width: 3; stroke-linecap: square"/>
   </g>
   <g id="line2d_64">
    <path clip-path="url(#p4315282e27)" style="fill: none; stroke: #ff0000; stroke-width: 3; stroke-linecap: square"/>
   </g>
   <g id="line2d_65">
    <path d="M 243.676 291.28 
L 243.676 3 
" clip-path="url(#p4315282e27)" style="fill: none; stroke: #000000; stroke-width: 1.5; stroke-linecap: square"/>
   </g>
   <g id="line2d_66">
    <path d="M 34.16 147.14 
L 453.192 147.14 
" clip-path="url(#p4315282e27)" style="fill: none; stroke-dasharray: 2,3.3; stroke-dashoffset: 0; stroke: #000000; stroke-width: 2"/>
   </g>
   <g id="patch_3">
    <path d="M 34.16 291.28 
L 34.16 3 
" style="fill: none; stroke: #000000; stroke-width: 0.8; stroke-linejoin: miter; stroke-linecap: square"/>
   </g>
   <g id="patch_4">
    <path d="M 453.192 291.28 
L 453.192 3 
" style="fill: none; stroke: #000000; stroke-width: 0.8; stroke-linejoin: miter; stroke-linecap: square"/>
   </g>
   <g id="patch_5">
    <path d="M 34.16 291.28 
L 453.192 291.28 
" style="fill: none; stroke: #000000; stroke-width: 0.8; stroke-linejoin: miter; stroke-linecap: square"/>
   </g>
   <g id="patch_6">
    <path d="M 34.16 3 
L 453.192 3 
" style="fill: none; stroke: #000000; stroke-width: 0.8; stroke-linejoin: miter; stroke-linecap: square"/>
   </g>
   <g id="text_5">
    <!-- f6-f9,40-D -->
    <g transform="translate(343.64261 285.5144) scale(0.2 -0.2)">
     <defs>
      <path id="DejaVuSans-36" d="M 2113 2584 
Q 1688 2584 1439 2293 
Q 1191 2003 1191 1497 
Q 1191 994 1439 701 
Q 1688 409 2113 409 
Q 2538 409 2786 701 
Q 3034 994 3034 1497 
Q 3034 2003 2786 2293 
Q 2538 2584 2113 2584 
z
M 3366 4563 
L 3366 3988 
Q 3128 4100 2886 4159 
Q 2644 4219 2406 4219 
Q 1781 4219 1451 3797 
Q 1122 3375 1075 2522 
Q 1259 2794 1537 2939 
Q 1816 3084 2150 3084 
Q 2853 3084 3261 2657 
Q 3669 2231 3669 1497 
Q 3669 778 3244 343 
Q 2819 -91 2113 -91 
Q 1303 -91 875 529 
Q 447 1150 447 2328 
Q 447 3434 972 4092 
Q 1497 4750 2381 4750 
Q 2619 4750 2861 4703 
Q 3103 4656 3366 4563 
z
" transform="scale(0.015625)"/>
      <path id="DejaVuSans-39" d="M 703 97 
L 703 672 
Q 941 559 1184 500 
Q 1428 441 1663 441 
Q 2288 441 2617 861 
Q 2947 1281 2994 2138 
Q 2813 1869 2534 1725 
Q 2256 1581 1919 1581 
Q 1219 1581 811 2004 
Q 403 2428 403 3163 
Q 403 3881 828 4315 
Q 1253 4750 1959 4750 
Q 2769 4750 3195 4129 
Q 3622 3509 3622 2328 
Q 3622 1225 3098 567 
Q 2575 -91 1691 -91 
Q 1453 -91 1209 -44 
Q 966 3 703 97 
z
M 1959 2075 
Q 2384 2075 2632 2365 
Q 2881 2656 2881 3163 
Q 2881 3666 2632 3958 
Q 2384 4250 1959 4250 
Q 1534 4250 1286 3958 
Q 1038 3666 1038 3163 
Q 1038 2656 1286 2365 
Q 1534 2075 1959 2075 
z
" transform="scale(0.015625)"/>
      <path id="DejaVuSans-2c" d="M 750 794 
L 1409 794 
L 1409 256 
L 897 -744 
L 494 -744 
L 750 256 
L 750 794 
z
" transform="scale(0.015625)"/>
      <path id="DejaVuSans-34" d="M 2419 4116 
L 825 1625 
L 2419 1625 
L 2419 4116 
z
M 2253 4666 
L 3047 4666 
L 3047 1625 
L 3713 1625 
L 3713 1100 
L 3047 1100 
L 3047 0 
L 2419 0 
L 2419 1100 
L 313 1100 
L 313 1709 
L 2253 4666 
z
" transform="scale(0.015625)"/>
      <path id="DejaVuSans-44" d="M 1259 4147 
L 1259 519 
L 2022 519 
Q 2988 519 3436 956 
Q 3884 1394 3884 2338 
Q 3884 3275 3436 3711 
Q 2988 4147 2022 4147 
L 1259 4147 
z
M 628 4666 
L 1925 4666 
Q 3281 4666 3915 4102 
Q 4550 3538 4550 2338 
Q 4550 1131 3912 565 
Q 3275 0 1925 0 
L 628 0 
L 628 4666 
z
" transform="scale(0.015625)"/>
     </defs>
     <use xlink:href="#DejaVuSans-66"/>
     <use xlink:href="#DejaVuSans-36" x="35.205078"/>
     <use xlink:href="#DejaVuSans-2d" x="98.828125"/>
     <use xlink:href="#DejaVuSans-66" x="134.912109"/>
     <use xlink:href="#DejaVuSans-39" x="170.117188"/>
     <use xlink:href="#DejaVuSans-2c" x="233.740234"/>
     <use xlink:href="#DejaVuSans-34" x="265.527344"/>
     <use xlink:href="#DejaVuSans-30" x="329.150391"/>
     <use xlink:href="#DejaVuSans-2d" x="392.773438"/>
     <use xlink:href="#DejaVuSans-44" x="428.857422"/>
    </g>
   </g>
   <g id="text_6">
    <!-- v2.6.3 -->
    <g style="fill: #808080" transform="translate(227.99475 286.317512) scale(0.1 -0.1)">
     <defs>
      <path id="DejaVuSans-32" d="M 1228 531 
L 3431 531 
L 3431 0 
L 469 0 
L 469 531 
Q 828 903 1448 1529 
Q 2069 2156 2228 2338 
Q 2531 2678 2651 2914 
Q 2772 3150 2772 3378 
Q 2772 3750 2511 3984 
Q 2250 4219 1831 4219 
Q 1534 4219 1204 4116 
Q 875 4013 500 3803 
L 500 4441 
Q 881 4594 1212 4672 
Q 1544 4750 1819 4750 
Q 2544 4750 2975 4387 
Q 3406 4025 3406 3419 
Q 3406 3131 3298 2873 
Q 3191 2616 2906 2266 
Q 2828 2175 2409 1742 
Q 1991 1309 1228 531 
z
" transform="scale(0.015625)"/>
      <path id="DejaVuSans-2e" d="M 684 794 
L 1344 794 
L 1344 0 
L 684 0 
L 684 794 
z
" transform="scale(0.015625)"/>
      <path id="DejaVuSans-33" d="M 2597 2516 
Q 3050 2419 3304 2112 
Q 3559 1806 3559 1356 
Q 3559 666 3084 287 
Q 2609 -91 1734 -91 
Q 1441 -91 1130 -33 
Q 819 25 488 141 
L 488 750 
Q 750 597 1062 519 
Q 1375 441 1716 441 
Q 2309 441 2620 675 
Q 2931 909 2931 1356 
Q 2931 1769 2642 2001 
Q 2353 2234 1838 2234 
L 1294 2234 
L 1294 2753 
L 1863 2753 
Q 2328 2753 2575 2939 
Q 2822 3125 2822 3475 
Q 2822 3834 2567 4026 
Q 2313 4219 1838 4219 
Q 1578 4219 1281 4162 
Q 984 4106 628 3988 
L 628 4550 
Q 988 4650 1302 4700 
Q 1616 4750 1894 4750 
Q 2613 4750 3031 4423 
Q 3450 4097 3450 3541 
Q 3450 3153 3228 2886 
Q 3006 2619 2597 2516 
z
" transform="scale(0.015625)"/>
     </defs>
     <use xlink:href="#DejaVuSans-76"/>
     <use xlink:href="#DejaVuSans-32" x="59.179688"/>
     <use xlink:href="#DejaVuSans-2e" x="122.802734"/>
     <use xlink:href="#DejaVuSans-36" x="154.589844"/>
     <use xlink:href="#DejaVuSans-2e" x="218.212891"/>
     <use xlink:href="#DejaVuSans-33" x="250"/>
    </g>
   </g>
   <g id="legend_1">
    <g id="patch_7">
     <path d="M 48.16 136.425 
L 177.381875 136.425 
Q 181.381875 136.425 181.381875 132.425 
L 181.381875 17 
Q 181.381875 13 177.381875 13 
L 48.16 13 
Q 44.16 13 44.16 17 
L 44.16 132.425 
Q 44.16 136.425 48.16 136.425 
z
" style="fill: #ffffff; opacity: 0.2; stroke: #cccccc; stroke-linejoin: miter"/>
    </g>
    <g id="line2d_67">
     <path d="M 52.16 29.196875 
L 72.16 29.196875 
L 92.16 29.196875 
" style="fill: none; stroke: #000000; stroke-width: 3; stroke-linecap: square"/>
    </g>
    <g id="text_7">
     <!-- 1: 4/4 -->
     <g transform="translate(108.16 36.196875) scale(0.2 -0.2)">
      <defs>
       <path id="DejaVuSans-3a" d="M 750 794 
L 1409 794 
L 1409 0 
L 750 0 
L 750 794 
z
M 750 3309 
L 1409 3309 
L 1409 2516 
L 750 2516 
L 750 3309 
z
" transform="scale(0.015625)"/>
       <path id="DejaVuSans-2f" d="M 1625 4666 
L 2156 4666 
L 531 -594 
L 0 -594 
L 1625 4666 
z
" transform="scale(0.015625)"/>
      </defs>
      <use xlink:href="#DejaVuSans-31"/>
      <use xlink:href="#DejaVuSans-3a" x="63.623047"/>
      <use xlink:href="#DejaVuSans-20" x="97.314453"/>
      <use xlink:href="#DejaVuSans-34" x="129.101562"/>
      <use xlink:href="#DejaVuSans-2f" x="192.724609"/>
      <use xlink:href="#DejaVuSans-34" x="226.416016"/>
     </g>
    </g>
    <g id="line2d_68">
     <path d="M 52.16 58.553125 
L 72.16 58.553125 
L 92.16 58.553125 
" style="fill: none; stroke: #00bfbf; stroke-width: 3; stroke-linecap: square"/>
    </g>
    <g id="text_8">
     <!-- -1: 1/1 -->
     <g transform="translate(108.16 65.553125) scale(0.2 -0.2)">
      <use xlink:href="#DejaVuSans-2d"/>
      <use xlink:href="#DejaVuSans-31" x="36.083984"/>
      <use xlink:href="#DejaVuSans-3a" x="99.707031"/>
      <use xlink:href="#DejaVuSans-20" x="133.398438"/>
      <use xlink:href="#DejaVuSans-31" x="165.185547"/>
      <use xlink:href="#DejaVuSans-2f" x="228.808594"/>
      <use xlink:href="#DejaVuSans-31" x="262.5"/>
     </g>
    </g>
    <g id="line2d_69">
     <path d="M 52.16 87.909375 
L 72.16 87.909375 
L 92.16 87.909375 
" style="fill: none; stroke: #bf00bf; stroke-width: 3; stroke-linecap: square"/>
    </g>
    <g id="text_9">
     <!-- -4: 1/1 -->
     <g transform="translate(108.16 94.909375) scale(0.2 -0.2)">
      <use xlink:href="#DejaVuSans-2d"/>
      <use xlink:href="#DejaVuSans-34" x="36.083984"/>
      <use xlink:href="#DejaVuSans-3a" x="99.707031"/>
      <use xlink:href="#DejaVuSans-20" x="133.398438"/>
      <use xlink:href="#DejaVuSans-31" x="165.185547"/>
      <use xlink:href="#DejaVuSans-2f" x="228.808594"/>
      <use xlink:href="#DejaVuSans-31" x="262.5"/>
     </g>
    </g>
    <g id="line2d_70">
     <path d="M 52.16 117.265625 
L 72.16 117.265625 
L 92.16 117.265625 
" style="fill: none; stroke: #ff0000; stroke-width: 3; stroke-linecap: square"/>
    </g>
    <g id="text_10">
     <!-- -8: 1/1 -->
     <g transform="translate(108.16 124.265625) scale(0.2 -0.2)">
      <defs>
       <path id="DejaVuSans-38" d="M 2034 2216 
Q 1584 2216 1326 1975 
Q 1069 1734 1069 1313 
Q 1069 891 1326 650 
Q 1584 409 2034 409 
Q 2484 409 2743 651 
Q 3003 894 3003 1313 
Q 3003 1734 2745 1975 
Q 2488 2216 2034 2216 
z
M 1403 2484 
Q 997 2584 770 2862 
Q 544 3141 544 3541 
Q 544 4100 942 4425 
Q 1341 4750 2034 4750 
Q 2731 4750 3128 4425 
Q 3525 4100 3525 3541 
Q 3525 3141 3298 2862 
Q 3072 2584 2669 2484 
Q 3125 2378 3379 2068 
Q 3634 1759 3634 1313 
Q 3634 634 3220 271 
Q 2806 -91 2034 -91 
Q 1263 -91 848 271 
Q 434 634 434 1313 
Q 434 1759 690 2068 
Q 947 2378 1403 2484 
z
M 1172 3481 
Q 1172 3119 1398 2916 
Q 1625 2713 2034 2713 
Q 2441 2713 2670 2916 
Q 2900 3119 2900 3481 
Q 2900 3844 2670 4047 
Q 2441 4250 2034 4250 
Q 1625 4250 1398 4047 
Q 1172 3844 1172 3481 
z
" transform="scale(0.015625)"/>
      </defs>
      <use xlink:href="#DejaVuSans-2d"/>
      <use xlink:href="#DejaVuSans-38" x="36.083984"/>
      <use xlink:href="#DejaVuSans-3a" x="99.707031"/>
      <use xlink:href="#DejaVuSans-20" x="133.398438"/>
      <use xlink:href="#DejaVuSans-31" x="165.185547"/>
      <use xlink:href="#DejaVuSans-2f" x="228.808594"/>
      <use xlink:href="#DejaVuSans-31" x="262.5"/>
     </g>
    </g>
   </g>
  </g>
 </g>
 <defs>
  <clipPath id="p4315282e27">
   <rect x="34.16" y="3" width="419.032" height="288.28"/>
  </clipPath>
 </defs>
</svg>
