<?xml version="1.0" encoding="utf-8" standalone="no"?>
<!DOCTYPE svg PUBLIC "-//W3C//DTD SVG 1.1//EN"
  "http://www.w3.org/Graphics/SVG/1.1/DTD/svg11.dtd">
<svg xmlns:xlink="http://www.w3.org/1999/xlink" width="460.8pt" height="345.6pt" viewBox="0 0 460.8 345.6" xmlns="http://www.w3.org/2000/svg" version="1.1">
 <metadata>
  <rdf:RDF xmlns:dc="http://purl.org/dc/elements/1.1/" xmlns:cc="http://creativecommons.org/ns#" xmlns:rdf="http://www.w3.org/1999/02/22-rdf-syntax-ns#">
   <cc:Work>
    <dc:type rdf:resource="http://purl.org/dc/dcmitype/StillImage"/>
    <dc:date>2024-06-05T13:53:27.495675</dc:date>
    <dc:format>image/svg+xml</dc:format>
    <dc:creator>
     <cc:Agent>
      <dc:title>Matplotlib v3.7.1, https://matplotlib.org/</dc:title>
     </cc:Agent>
    </dc:creator>
   </cc:Work>
  </rdf:RDF>
 </metadata>
 <defs>
  <style type="text/css">*{stroke-linejoin: round; stroke-linecap: butt}</style>
 </defs>
 <g id="figure_1">
  <g id="patch_1">
   <path d="M 0 345.6 
L 460.8 345.6 
L 460.8 0 
L 0 0 
z
" style="fill: #ffffff"/>
  </g>
  <g id="axes_1">
   <g id="patch_2">
    <path d="M 62.208 293.76 
L 460.8 293.76 
L 460.8 3.456 
L 62.208 3.456 
z
" style="fill: #ffffff"/>
   </g>
   <g id="line2d_1"/>
   <g id="line2d_2">
    <path d="M 351.605286 293.76 
L 351.605286 289.927604 
L 351.831587 289.927604 
L 351.831587 286.095208 
L 357.562207 286.095208 
L 357.562207 282.262812 
L 358.829731 282.262812 
L 358.829731 278.430416 
L 368.198008 278.430416 
L 368.198008 274.59802 
L 368.632419 274.59802 
L 368.632419 270.765624 
L 369.09236 270.765624 
L 369.09236 266.933228 
L 369.296803 266.933228 
L 369.296803 263.100832 
L 369.729313 263.100832 
L 369.729313 259.268436 
L 370.288902 259.268436 
L 370.288902 255.43604 
L 370.355405 255.43604 
L 370.355405 251.603644 
L 370.430529 251.603644 
L 370.430529 247.771248 
L 370.462517 247.771248 
L 370.462517 243.938851 
L 370.817368 243.938851 
L 370.817368 240.106455 
L 370.877845 240.106455 
L 370.877845 236.274059 
L 371.095975 236.274059 
L 371.095975 232.441663 
L 371.24684 232.441663 
L 371.24684 228.609267 
L 371.785204 228.609267 
L 371.785204 224.776871 
L 371.885298 224.776871 
L 371.885298 220.944475 
L 371.890915 220.944475 
L 371.890915 217.112079 
L 372.118284 217.112079 
L 372.118284 213.279683 
L 372.171863 213.279683 
L 372.171863 209.447287 
L 372.272693 209.447287 
L 372.272693 205.614891 
L 372.650416 205.614891 
L 372.650416 201.782495 
L 373.132196 201.782495 
L 373.132196 197.950099 
L 373.328982 197.950099 
L 373.328982 194.117703 
L 374.206259 194.117703 
L 374.206259 190.285307 
L 375.478085 190.285307 
L 375.478085 186.452911 
L 376.687847 186.452911 
L 376.687847 182.620515 
L 376.914163 182.620515 
L 376.914163 178.788119 
L 378.0444 178.788119 
L 378.0444 174.955723 
L 378.05794 174.955723 
L 378.05794 171.123327 
L 378.538168 171.123327 
L 378.538168 167.290931 
L 378.870885 167.290931 
L 378.870885 163.458535 
L 379.646243 163.458535 
L 379.646243 159.626139 
L 382.111673 159.626139 
L 382.111673 155.793743 
L 384.331733 155.793743 
L 384.331733 151.961347 
L 385.625445 151.961347 
L 385.625445 148.12895 
L 388.072037 148.12895 
L 388.072037 144.296554 
L 392.062718 144.296554 
L 392.062718 140.464158 
L 392.094373 140.464158 
L 392.094373 136.631762 
L 392.255027 136.631762 
L 392.255027 132.799366 
L 392.402087 132.799366 
L 392.402087 128.96697 
L 392.575149 128.96697 
L 392.575149 125.134574 
L 392.582628 125.134574 
L 392.582628 121.302178 
L 393.162138 121.302178 
L 393.162138 117.469782 
L 393.239485 117.469782 
L 393.239485 113.637386 
L 393.455688 113.637386 
L 393.455688 109.80499 
L 393.815833 109.80499 
L 393.815833 105.972594 
L 393.984385 105.972594 
L 393.984385 102.140198 
L 394.449901 102.140198 
L 394.449901 98.307802 
L 398.620482 98.307802 
L 398.620482 94.475406 
L 399.078836 94.475406 
L 399.078836 90.64301 
L 399.102636 90.64301 
L 399.102636 86.810614 
L 399.524968 86.810614 
L 399.524968 82.978218 
L 399.76323 82.978218 
L 399.76323 79.145822 
L 400.656937 79.145822 
L 400.656937 75.313426 
L 408.956711 75.313426 
L 408.956711 71.48103 
L 410.734667 71.48103 
L 410.734667 67.648634 
L 425.301813 67.648634 
L 425.301813 63.816238 
L 439.87899 63.816238 
L 439.87899 59.983842 
L 439.87899 59.983842 
L 439.87899 59.983842 
L 460.8 59.983842 
" clip-path="url(#p246effd38b)" style="fill: none; stroke: #f5deb3; stroke-width: 1.5; stroke-linecap: square"/>
   </g>
   <g id="line2d_3"/>
   <g id="line2d_4"/>
   <g id="line2d_5">
    <path d="M 342.217581 293.76 
L 342.217581 289.927604 
L 343.546951 289.927604 
L 343.546951 286.095208 
L 345.112108 286.095208 
L 345.112108 282.262812 
L 345.454838 282.262812 
L 345.454838 278.430416 
L 345.824349 278.430416 
L 345.824349 274.59802 
L 352.005732 274.59802 
L 352.005732 270.765624 
L 352.373478 270.765624 
L 352.373478 266.933228 
L 352.865589 266.933228 
L 352.926136 259.268436 
L 353.121414 259.268436 
L 353.121414 255.43604 
L 353.378302 255.43604 
L 353.378302 251.603644 
L 353.505709 251.603644 
L 353.505709 247.771248 
L 353.762835 247.771248 
L 353.859497 240.106455 
L 354.097139 240.106455 
L 354.122211 232.441663 
L 354.560656 232.441663 
L 354.560656 228.609267 
L 357.12901 228.609267 
L 357.12901 224.776871 
L 358.112678 224.776871 
L 358.112678 220.944475 
L 358.90291 220.944475 
L 358.90291 217.112079 
L 359.722056 217.112079 
L 359.722056 213.279683 
L 360.270663 213.279683 
L 360.288527 205.614891 
L 360.508216 205.614891 
L 360.508216 201.782495 
L 361.47173 201.782495 
L 361.47173 197.950099 
L 362.329039 197.950099 
L 362.329039 194.117703 
L 362.78333 194.117703 
L 362.78333 190.285307 
L 367.431757 190.285307 
L 367.431757 186.452911 
L 369.431743 186.452911 
L 369.431743 182.620515 
L 371.143465 182.620515 
L 371.250833 174.955723 
L 371.61991 174.955723 
L 371.718715 163.458535 
L 371.748592 163.458535 
L 371.748592 159.626139 
L 371.90439 159.626139 
L 371.996355 151.961347 
L 372.227601 151.961347 
L 372.227601 148.12895 
L 372.363841 148.12895 
L 372.363841 144.296554 
L 372.615117 144.296554 
L 372.66585 136.631762 
L 372.890092 136.631762 
L 372.909272 128.96697 
L 373.435679 128.96697 
L 373.435679 125.134574 
L 376.078528 125.134574 
L 376.078528 121.302178 
L 377.264141 121.302178 
L 377.264141 117.469782 
L 377.496147 117.469782 
L 377.593084 109.80499 
L 377.651723 109.80499 
L 377.725391 98.307802 
L 377.828599 98.307802 
L 377.935913 90.64301 
L 378.025532 90.64301 
L 378.025532 86.810614 
L 378.401735 86.810614 
L 378.401735 82.978218 
L 378.786889 82.978218 
L 378.786889 79.145822 
L 379.786043 79.145822 
L 379.786043 75.313426 
L 380.276909 75.313426 
L 380.276909 71.48103 
L 380.530414 71.48103 
L 380.530414 67.648634 
L 381.488211 67.648634 
L 381.488211 63.816238 
L 444.821831 63.816238 
L 444.821831 59.983842 
L 446.343632 59.983842 
L 446.343632 56.151446 
L 446.598734 56.151446 
L 446.598734 52.31905 
L 447.141348 52.31905 
L 447.141348 48.486653 
L 461.8 48.486653 
L 461.8 48.486653 
" clip-path="url(#p246effd38b)" style="fill: none; stroke: #f5deb3; stroke-width: 1.5; stroke-linecap: square"/>
   </g>
   <g id="line2d_6">
    <path clip-path="url(#p246effd38b)" style="fill: none; stroke: #f5deb3; stroke-width: 1.5; stroke-linecap: square"/>
   </g>
   <g id="line2d_7"/>
   <g id="line2d_8"/>
   <g id="line2d_9"/>
   <g id="line2d_10"/>
   <g id="line2d_11">
    <path clip-path="url(#p246effd38b)" style="fill: none; stroke: #f5deb3; stroke-width: 1.5; stroke-linecap: square"/>
   </g>
   <g id="line2d_12"/>
   <g id="line2d_13">
    <path d="M 315.743267 293.76 
L 315.743267 289.927604 
L 317.013187 289.927604 
L 317.013187 286.095208 
L 322.690424 286.095208 
L 322.690424 282.262812 
L 323.312056 282.262812 
L 323.312056 278.430416 
L 325.171481 278.430416 
L 325.171481 274.59802 
L 325.915005 274.59802 
L 325.915005 270.765624 
L 327.117391 270.765624 
L 327.117391 266.933228 
L 329.699405 266.933228 
L 329.699405 263.100832 
L 331.837782 263.100832 
L 331.837782 259.268436 
L 333.21703 259.268436 
L 333.21703 255.43604 
L 334.377537 255.43604 
L 334.377537 251.603644 
L 337.570508 251.603644 
L 337.570508 247.771248 
L 338.524119 247.771248 
L 338.524119 243.938851 
L 342.641132 243.938851 
L 342.641132 240.106455 
L 342.692488 240.106455 
L 342.692488 236.274059 
L 388.37693 236.274059 
L 388.37693 232.441663 
L 392.983114 232.441663 
L 392.983114 228.609267 
L 393.257545 228.609267 
L 393.257545 224.776871 
L 393.895915 224.776871 
L 393.895915 220.944475 
L 396.441942 220.944475 
L 396.441942 217.112079 
L 397.039587 217.112079 
L 397.039587 213.279683 
L 397.825794 213.279683 
L 397.825794 209.447287 
L 397.833276 209.447287 
L 397.833276 205.614891 
L 398.432164 205.614891 
L 398.432164 201.782495 
L 398.524959 201.782495 
L 398.524959 197.950099 
L 400.117776 197.950099 
L 400.117776 194.117703 
L 400.281648 194.117703 
L 400.281648 190.285307 
L 400.431668 190.285307 
L 400.431668 186.452911 
L 400.453577 186.452911 
L 400.453577 182.620515 
L 400.728964 182.620515 
L 400.728964 178.788119 
L 400.837048 178.788119 
L 400.837048 174.955723 
L 402.358477 174.955723 
L 402.358477 171.123327 
L 402.579083 171.123327 
L 402.579083 167.290931 
L 402.607875 167.290931 
L 402.607875 163.458535 
L 403.059508 163.458535 
L 403.059508 159.626139 
L 403.172173 159.626139 
L 403.172173 155.793743 
L 406.540849 155.793743 
L 406.540849 151.961347 
L 407.13441 151.961347 
L 407.13441 148.12895 
L 407.419004 148.12895 
L 407.419004 144.296554 
L 407.751781 144.296554 
L 407.751781 140.464158 
L 408.521739 140.464158 
L 408.521739 136.631762 
L 409.619344 136.631762 
L 409.619344 132.799366 
L 410.242494 132.799366 
L 410.242494 128.96697 
L 410.51484 128.96697 
L 410.51484 125.134574 
L 411.514713 125.134574 
L 411.514713 121.302178 
L 411.514713 121.302178 
L 411.514713 121.302178 
L 460.8 121.302178 
" clip-path="url(#p246effd38b)" style="fill: none; stroke: #f5deb3; stroke-width: 1.5; stroke-linecap: square"/>
   </g>
   <g id="line2d_14"/>
   <g id="line2d_15"/>
   <g id="line2d_16"/>
   <g id="line2d_17">
    <path d="M 381.28081 293.76 
L 381.28081 289.927604 
L 384.915557 289.927604 
L 384.915557 286.095208 
L 387.254361 286.095208 
L 387.254361 282.262812 
L 388.57595 282.262812 
L 388.684068 274.59802 
L 390.045235 274.59802 
L 390.045235 270.765624 
L 390.46995 270.765624 
L 390.562153 263.100832 
L 391.354473 263.100832 
L 391.354473 259.268436 
L 391.480694 259.268436 
L 391.480694 255.43604 
L 391.890251 255.43604 
L 391.904075 247.771248 
L 392.241664 247.771248 
L 392.247489 240.106455 
L 392.745795 240.106455 
L 392.745795 236.274059 
L 393.029876 236.274059 
L 393.029876 232.441663 
L 393.272589 232.441663 
L 393.272589 228.609267 
L 393.493274 228.609267 
L 393.493274 224.776871 
L 393.987341 224.776871 
L 393.987341 220.944475 
L 394.98628 220.944475 
L 394.98628 217.112079 
L 395.966274 217.112079 
L 395.966274 213.279683 
L 396.21631 213.279683 
L 396.21631 209.447287 
L 396.528205 209.447287 
L 396.528205 205.614891 
L 397.032266 205.614891 
L 397.032266 201.782495 
L 397.287764 201.782495 
L 397.287764 197.950099 
L 397.651839 197.950099 
L 397.651839 194.117703 
L 400.184534 194.117703 
L 400.214765 186.452911 
L 400.366436 186.452911 
L 400.433354 178.788119 
L 400.538012 178.788119 
L 400.538012 174.955723 
L 401.400158 174.955723 
L 401.456925 163.458535 
L 402.543598 163.458535 
L 402.543598 159.626139 
L 402.744629 159.626139 
L 402.788963 151.961347 
L 403.298161 151.961347 
L 403.298161 148.12895 
L 404.07672 148.12895 
L 404.07672 144.296554 
L 404.534755 144.296554 
L 404.534755 140.464158 
L 405.735322 140.464158 
L 405.735322 136.631762 
L 407.53953 136.631762 
L 407.53953 132.799366 
L 408.432062 132.799366 
L 408.432062 128.96697 
L 409.994185 128.96697 
L 409.994185 125.134574 
L 413.001016 125.134574 
L 413.001016 121.302178 
L 416.686305 121.302178 
L 416.686305 117.469782 
L 417.831892 117.469782 
L 417.831892 113.637386 
L 418.809481 113.637386 
L 418.809481 109.80499 
L 419.061785 109.80499 
L 419.061785 105.972594 
L 420.479802 105.972594 
L 420.479802 102.140198 
L 421.255424 102.140198 
L 421.255424 98.307802 
L 421.973596 98.307802 
L 422.073754 86.810614 
L 422.936567 86.810614 
L 422.936567 82.978218 
L 424.05705 82.978218 
L 424.05705 79.145822 
L 424.269345 79.145822 
L 424.269345 75.313426 
L 425.057396 75.313426 
L 425.147873 67.648634 
L 427.572397 67.648634 
L 427.572397 63.816238 
L 429.76177 63.816238 
L 429.76177 59.983842 
L 431.019407 59.983842 
L 431.019407 56.151446 
L 433.930915 56.151446 
L 433.930915 52.31905 
L 440.077863 52.31905 
L 440.077863 48.486653 
L 440.580008 48.486653 
L 440.590294 40.821861 
L 442.660444 40.821861 
L 442.660444 36.989465 
L 443.658621 36.989465 
L 443.747204 29.324673 
L 443.970029 29.324673 
L 444.011132 21.659881 
L 444.714143 21.659881 
L 444.715486 13.995089 
L 447.173263 13.995089 
L 447.173263 10.162693 
L 447.628762 10.162693 
L 447.628762 6.330297 
L 447.628762 6.330297 
L 460.8 6.330297 
L 460.8 6.330297 
" clip-path="url(#p246effd38b)" style="fill: none; stroke: #f5deb3; stroke-width: 1.5; stroke-linecap: square"/>
   </g>
   <g id="line2d_18">
    <path d="M 352.669987 293.76 
L 352.669987 289.927604 
L 356.011635 289.927604 
L 356.011635 286.095208 
L 357.554255 286.095208 
L 357.554255 282.262812 
L 360.492669 282.262812 
L 360.492669 278.430416 
L 361.003395 278.430416 
L 361.003395 274.59802 
L 361.01144 274.59802 
L 361.01144 270.765624 
L 364.00554 270.765624 
L 364.00554 266.933228 
L 368.396536 266.933228 
L 368.396536 263.100832 
L 368.435638 263.100832 
L 368.435638 259.268436 
L 376.885319 259.268436 
L 376.885319 255.43604 
L 378.458278 255.43604 
L 378.458278 251.603644 
L 379.580592 251.603644 
L 379.580592 247.771248 
L 380.723944 247.771248 
L 380.723944 243.938851 
L 385.395433 243.938851 
L 385.395433 240.106455 
L 386.83291 240.106455 
L 386.83291 236.274059 
L 421.792797 236.274059 
L 421.792797 232.441663 
L 422.907102 232.441663 
L 422.907102 228.609267 
L 423.955095 228.609267 
L 423.955095 224.776871 
L 424.167757 224.776871 
L 424.167757 220.944475 
L 424.404617 220.944475 
L 424.404617 217.112079 
L 424.554626 217.112079 
L 424.554626 213.279683 
L 424.670247 213.279683 
L 424.670247 209.447287 
L 424.685847 209.447287 
L 424.685847 205.614891 
L 424.825512 205.614891 
L 424.825512 201.782495 
L 426.001115 201.782495 
L 426.001115 197.950099 
L 426.754362 197.950099 
L 426.754362 194.117703 
L 428.026637 194.117703 
L 428.026637 190.285307 
L 428.472226 190.285307 
L 428.472226 186.452911 
L 428.905024 186.452911 
L 428.905024 182.620515 
L 430.584174 182.620515 
L 430.584174 178.788119 
L 430.584174 178.788119 
L 430.584174 178.788119 
L 460.8 178.788119 
" clip-path="url(#p246effd38b)" style="fill: none; stroke: #f5deb3; stroke-width: 1.5; stroke-linecap: square"/>
   </g>
   <g id="line2d_19">
    <path d="M 357.026037 293.76 
L 357.026037 289.927604 
L 357.299795 289.927604 
L 357.299795 286.095208 
L 357.418047 286.095208 
L 357.504126 278.430416 
L 357.570157 278.430416 
L 357.570157 274.59802 
L 357.796088 274.59802 
L 357.796088 270.765624 
L 357.986176 270.765624 
L 358.013709 263.100832 
L 358.482095 263.100832 
L 358.482095 259.268436 
L 358.60321 259.268436 
L 358.60321 255.43604 
L 358.739426 255.43604 
L 358.825105 247.771248 
L 359.217252 247.771248 
L 359.217252 243.938851 
L 359.708474 243.938851 
L 359.708474 240.106455 
L 360.25875 240.106455 
L 360.25875 236.274059 
L 364.948692 236.274059 
L 364.948692 232.441663 
L 365.205756 232.441663 
L 365.205756 228.609267 
L 365.730123 228.609267 
L 365.730123 224.776871 
L 365.886986 224.776871 
L 365.886986 220.944475 
L 366.006995 220.944475 
L 366.006995 217.112079 
L 367.586027 217.112079 
L 367.595377 209.447287 
L 367.732267 209.447287 
L 367.732267 205.614891 
L 367.850746 205.614891 
L 367.850746 201.782495 
L 368.084221 201.782495 
L 368.084221 197.950099 
L 368.361679 197.950099 
L 368.361679 194.117703 
L 368.485684 194.117703 
L 368.485684 190.285307 
L 368.94786 190.285307 
L 368.94786 186.452911 
L 370.403174 186.452911 
L 370.403174 182.620515 
L 370.67591 182.620515 
L 370.67591 178.788119 
L 370.897409 178.788119 
L 370.897409 174.955723 
L 372.540558 174.955723 
L 372.540558 171.123327 
L 373.584162 171.123327 
L 373.584162 167.290931 
L 374.064799 167.290931 
L 374.064799 163.458535 
L 374.349879 163.458535 
L 374.358343 155.793743 
L 374.698626 155.793743 
L 374.698626 151.961347 
L 375.113575 151.961347 
L 375.113575 148.12895 
L 375.389452 148.12895 
L 375.396673 140.464158 
L 375.618887 140.464158 
L 375.618887 136.631762 
L 375.817452 136.631762 
L 375.817452 132.799366 
L 376.493441 132.799366 
L 376.493441 128.96697 
L 376.857451 128.96697 
L 376.857451 125.134574 
L 377.764368 125.134574 
L 377.764368 121.302178 
L 389.499778 121.302178 
L 389.499778 117.469782 
L 389.755757 117.469782 
L 389.755757 113.637386 
L 392.365201 113.637386 
L 392.365201 109.80499 
L 392.478488 109.80499 
L 392.478488 105.972594 
L 394.526492 105.972594 
L 394.526492 102.140198 
L 394.745096 102.140198 
L 394.745096 98.307802 
L 395.015448 98.307802 
L 395.088117 90.64301 
L 395.350833 90.64301 
L 395.432431 82.978218 
L 395.830161 82.978218 
L 395.830161 79.145822 
L 396.164617 79.145822 
L 396.164617 75.313426 
L 397.881724 75.313426 
L 397.881724 71.48103 
L 399.041076 71.48103 
L 399.041076 67.648634 
L 399.929652 67.648634 
L 400.033042 59.983842 
L 400.218719 59.983842 
L 400.243281 52.31905 
L 400.33547 52.31905 
L 400.33547 48.486653 
L 401.411408 48.486653 
L 401.411408 44.654257 
L 401.986261 44.654257 
L 402.024391 36.989465 
L 402.136683 36.989465 
L 402.214514 29.324673 
L 402.342923 29.324673 
L 402.342923 25.492277 
L 402.807002 25.492277 
L 402.807002 21.659881 
L 403.342951 21.659881 
L 403.441789 13.995089 
L 406.012291 13.995089 
L 406.012291 10.162693 
L 411.719245 10.162693 
L 411.719245 6.330297 
L 411.719245 6.330297 
L 460.8 6.330297 
L 460.8 6.330297 
" clip-path="url(#p246effd38b)" style="fill: none; stroke: #f5deb3; stroke-width: 1.5; stroke-linecap: square"/>
   </g>
   <g id="line2d_20"/>
   <g id="matplotlib.axis_1">
    <g id="xtick_1">
     <g id="line2d_21">
      <path d="M 62.208 293.76 
L 62.208 3.456 
" clip-path="url(#p246effd38b)" style="fill: none; stroke: #b0b0b0; stroke-width: 0.8; stroke-linecap: square"/>
     </g>
     <g id="line2d_22">
      <defs>
       <path id="m377b34ff3d" d="M 0 0 
L 0 3.5 
" style="stroke: #000000; stroke-width: 0.8"/>
      </defs>
      <g>
       <use xlink:href="#m377b34ff3d" x="62.208" y="293.76" style="stroke: #000000; stroke-width: 0.8"/>
      </g>
     </g>
     <g id="text_1">
      <!-- 0 -->
      <g transform="translate(55.8455 315.956875) scale(0.2 -0.2)">
       <defs>
        <path id="DejaVuSans-30" d="M 2034 4250 
Q 1547 4250 1301 3770 
Q 1056 3291 1056 2328 
Q 1056 1369 1301 889 
Q 1547 409 2034 409 
Q 2525 409 2770 889 
Q 3016 1369 3016 2328 
Q 3016 3291 2770 3770 
Q 2525 4250 2034 4250 
z
M 2034 4750 
Q 2819 4750 3233 4129 
Q 3647 3509 3647 2328 
Q 3647 1150 3233 529 
Q 2819 -91 2034 -91 
Q 1250 -91 836 529 
Q 422 1150 422 2328 
Q 422 3509 836 4129 
Q 1250 4750 2034 4750 
z
" transform="scale(0.015625)"/>
       </defs>
       <use xlink:href="#DejaVuSans-30"/>
      </g>
     </g>
    </g>
    <g id="xtick_2">
     <g id="line2d_23">
      <path d="M 251.991009 293.76 
L 251.991009 3.456 
" clip-path="url(#p246effd38b)" style="fill: none; stroke: #b0b0b0; stroke-width: 0.8; stroke-linecap: square"/>
     </g>
     <g id="line2d_24">
      <g>
       <use xlink:href="#m377b34ff3d" x="251.991009" y="293.76" style="stroke: #000000; stroke-width: 0.8"/>
      </g>
     </g>
     <g id="text_2">
      <!-- 2 -->
      <g transform="translate(245.628509 315.956875) scale(0.2 -0.2)">
       <defs>
        <path id="DejaVuSans-32" d="M 1228 531 
L 3431 531 
L 3431 0 
L 469 0 
L 469 531 
Q 828 903 1448 1529 
Q 2069 2156 2228 2338 
Q 2531 2678 2651 2914 
Q 2772 3150 2772 3378 
Q 2772 3750 2511 3984 
Q 2250 4219 1831 4219 
Q 1534 4219 1204 4116 
Q 875 4013 500 3803 
L 500 4441 
Q 881 4594 1212 4672 
Q 1544 4750 1819 4750 
Q 2544 4750 2975 4387 
Q 3406 4025 3406 3419 
Q 3406 3131 3298 2873 
Q 3191 2616 2906 2266 
Q 2828 2175 2409 1742 
Q 1991 1309 1228 531 
z
" transform="scale(0.015625)"/>
       </defs>
       <use xlink:href="#DejaVuSans-32"/>
      </g>
     </g>
    </g>
    <g id="xtick_3">
     <g id="line2d_25">
      <path d="M 441.774019 293.76 
L 441.774019 3.456 
" clip-path="url(#p246effd38b)" style="fill: none; stroke: #b0b0b0; stroke-width: 0.8; stroke-linecap: square"/>
     </g>
     <g id="line2d_26">
      <g>
       <use xlink:href="#m377b34ff3d" x="441.774019" y="293.76" style="stroke: #000000; stroke-width: 0.8"/>
      </g>
     </g>
     <g id="text_3">
      <!-- 4 -->
      <g transform="translate(435.411519 315.956875) scale(0.2 -0.2)">
       <defs>
        <path id="DejaVuSans-34" d="M 2419 4116 
L 825 1625 
L 2419 1625 
L 2419 4116 
z
M 2253 4666 
L 3047 4666 
L 3047 1625 
L 3713 1625 
L 3713 1100 
L 3047 1100 
L 3047 0 
L 2419 0 
L 2419 1100 
L 313 1100 
L 313 1709 
L 2253 4666 
z
" transform="scale(0.015625)"/>
       </defs>
       <use xlink:href="#DejaVuSans-34"/>
      </g>
     </g>
    </g>
    <g id="xtick_4">
     <g id="line2d_27">
      <path d="M 90.773189 293.76 
L 90.773189 3.456 
" clip-path="url(#p246effd38b)" style="fill: none; stroke: #b0b0b0; stroke-width: 0.8; stroke-linecap: square"/>
     </g>
     <g id="line2d_28">
      <defs>
       <path id="mcf9fb630fc" d="M 0 0 
L 0 2 
" style="stroke: #000000; stroke-width: 0.6"/>
      </defs>
      <g>
       <use xlink:href="#mcf9fb630fc" x="90.773189" y="293.76" style="stroke: #000000; stroke-width: 0.6"/>
      </g>
     </g>
    </g>
    <g id="xtick_5">
     <g id="line2d_29">
      <path d="M 107.482754 293.76 
L 107.482754 3.456 
" clip-path="url(#p246effd38b)" style="fill: none; stroke: #b0b0b0; stroke-width: 0.8; stroke-linecap: square"/>
     </g>
     <g id="line2d_30">
      <g>
       <use xlink:href="#mcf9fb630fc" x="107.482754" y="293.76" style="stroke: #000000; stroke-width: 0.6"/>
      </g>
     </g>
    </g>
    <g id="xtick_6">
     <g id="line2d_31">
      <path d="M 119.338378 293.76 
L 119.338378 3.456 
" clip-path="url(#p246effd38b)" style="fill: none; stroke: #b0b0b0; stroke-width: 0.8; stroke-linecap: square"/>
     </g>
     <g id="line2d_32">
      <g>
       <use xlink:href="#mcf9fb630fc" x="119.338378" y="293.76" style="stroke: #000000; stroke-width: 0.6"/>
      </g>
     </g>
    </g>
    <g id="xtick_7">
     <g id="line2d_33">
      <path d="M 128.534315 293.76 
L 128.534315 3.456 
" clip-path="url(#p246effd38b)" style="fill: none; stroke: #b0b0b0; stroke-width: 0.8; stroke-linecap: square"/>
     </g>
     <g id="line2d_34">
      <g>
       <use xlink:href="#mcf9fb630fc" x="128.534315" y="293.76" style="stroke: #000000; stroke-width: 0.6"/>
      </g>
     </g>
    </g>
    <g id="xtick_8">
     <g id="line2d_35">
      <path d="M 136.047943 293.76 
L 136.047943 3.456 
" clip-path="url(#p246effd38b)" style="fill: none; stroke: #b0b0b0; stroke-width: 0.8; stroke-linecap: square"/>
     </g>
     <g id="line2d_36">
      <g>
       <use xlink:href="#mcf9fb630fc" x="136.047943" y="293.76" style="stroke: #000000; stroke-width: 0.6"/>
      </g>
     </g>
    </g>
    <g id="xtick_9">
     <g id="line2d_37">
      <path d="M 142.400625 293.76 
L 142.400625 3.456 
" clip-path="url(#p246effd38b)" style="fill: none; stroke: #b0b0b0; stroke-width: 0.8; stroke-linecap: square"/>
     </g>
     <g id="line2d_38">
      <g>
       <use xlink:href="#mcf9fb630fc" x="142.400625" y="293.76" style="stroke: #000000; stroke-width: 0.6"/>
      </g>
     </g>
    </g>
    <g id="xtick_10">
     <g id="line2d_39">
      <path d="M 147.903568 293.76 
L 147.903568 3.456 
" clip-path="url(#p246effd38b)" style="fill: none; stroke: #b0b0b0; stroke-width: 0.8; stroke-linecap: square"/>
     </g>
     <g id="line2d_40">
      <g>
       <use xlink:href="#mcf9fb630fc" x="147.903568" y="293.76" style="stroke: #000000; stroke-width: 0.6"/>
      </g>
     </g>
    </g>
    <g id="xtick_11">
     <g id="line2d_41">
      <path d="M 152.757508 293.76 
L 152.757508 3.456 
" clip-path="url(#p246effd38b)" style="fill: none; stroke: #b0b0b0; stroke-width: 0.8; stroke-linecap: square"/>
     </g>
     <g id="line2d_42">
      <g>
       <use xlink:href="#mcf9fb630fc" x="152.757508" y="293.76" style="stroke: #000000; stroke-width: 0.6"/>
      </g>
     </g>
    </g>
    <g id="xtick_12">
     <g id="line2d_43">
      <path d="M 185.664694 293.76 
L 185.664694 3.456 
" clip-path="url(#p246effd38b)" style="fill: none; stroke: #b0b0b0; stroke-width: 0.8; stroke-linecap: square"/>
     </g>
     <g id="line2d_44">
      <g>
       <use xlink:href="#mcf9fb630fc" x="185.664694" y="293.76" style="stroke: #000000; stroke-width: 0.6"/>
      </g>
     </g>
    </g>
    <g id="xtick_13">
     <g id="line2d_45">
      <path d="M 202.374258 293.76 
L 202.374258 3.456 
" clip-path="url(#p246effd38b)" style="fill: none; stroke: #b0b0b0; stroke-width: 0.8; stroke-linecap: square"/>
     </g>
     <g id="line2d_46">
      <g>
       <use xlink:href="#mcf9fb630fc" x="202.374258" y="293.76" style="stroke: #000000; stroke-width: 0.6"/>
      </g>
     </g>
    </g>
    <g id="xtick_14">
     <g id="line2d_47">
      <path d="M 214.229883 293.76 
L 214.229883 3.456 
" clip-path="url(#p246effd38b)" style="fill: none; stroke: #b0b0b0; stroke-width: 0.8; stroke-linecap: square"/>
     </g>
     <g id="line2d_48">
      <g>
       <use xlink:href="#mcf9fb630fc" x="214.229883" y="293.76" style="stroke: #000000; stroke-width: 0.6"/>
      </g>
     </g>
    </g>
    <g id="xtick_15">
     <g id="line2d_49">
      <path d="M 223.42582 293.76 
L 223.42582 3.456 
" clip-path="url(#p246effd38b)" style="fill: none; stroke: #b0b0b0; stroke-width: 0.8; stroke-linecap: square"/>
     </g>
     <g id="line2d_50">
      <g>
       <use xlink:href="#mcf9fb630fc" x="223.42582" y="293.76" style="stroke: #000000; stroke-width: 0.6"/>
      </g>
     </g>
    </g>
    <g id="xtick_16">
     <g id="line2d_51">
      <path d="M 230.939448 293.76 
L 230.939448 3.456 
" clip-path="url(#p246effd38b)" style="fill: none; stroke: #b0b0b0; stroke-width: 0.8; stroke-linecap: square"/>
     </g>
     <g id="line2d_52">
      <g>
       <use xlink:href="#mcf9fb630fc" x="230.939448" y="293.76" style="stroke: #000000; stroke-width: 0.6"/>
      </g>
     </g>
    </g>
    <g id="xtick_17">
     <g id="line2d_53">
      <path d="M 237.292129 293.76 
L 237.292129 3.456 
" clip-path="url(#p246effd38b)" style="fill: none; stroke: #b0b0b0; stroke-width: 0.8; stroke-linecap: square"/>
     </g>
     <g id="line2d_54">
      <g>
       <use xlink:href="#mcf9fb630fc" x="237.292129" y="293.76" style="stroke: #000000; stroke-width: 0.6"/>
      </g>
     </g>
    </g>
    <g id="xtick_18">
     <g id="line2d_55">
      <path d="M 242.795072 293.76 
L 242.795072 3.456 
" clip-path="url(#p246effd38b)" style="fill: none; stroke: #b0b0b0; stroke-width: 0.8; stroke-linecap: square"/>
     </g>
     <g id="line2d_56">
      <g>
       <use xlink:href="#mcf9fb630fc" x="242.795072" y="293.76" style="stroke: #000000; stroke-width: 0.6"/>
      </g>
     </g>
    </g>
    <g id="xtick_19">
     <g id="line2d_57">
      <path d="M 247.649012 293.76 
L 247.649012 3.456 
" clip-path="url(#p246effd38b)" style="fill: none; stroke: #b0b0b0; stroke-width: 0.8; stroke-linecap: square"/>
     </g>
     <g id="line2d_58">
      <g>
       <use xlink:href="#mcf9fb630fc" x="247.649012" y="293.76" style="stroke: #000000; stroke-width: 0.6"/>
      </g>
     </g>
    </g>
    <g id="xtick_20">
     <g id="line2d_59">
      <path d="M 280.556199 293.76 
L 280.556199 3.456 
" clip-path="url(#p246effd38b)" style="fill: none; stroke: #b0b0b0; stroke-width: 0.8; stroke-linecap: square"/>
     </g>
     <g id="line2d_60">
      <g>
       <use xlink:href="#mcf9fb630fc" x="280.556199" y="293.76" style="stroke: #000000; stroke-width: 0.6"/>
      </g>
     </g>
    </g>
    <g id="xtick_21">
     <g id="line2d_61">
      <path d="M 297.265763 293.76 
L 297.265763 3.456 
" clip-path="url(#p246effd38b)" style="fill: none; stroke: #b0b0b0; stroke-width: 0.8; stroke-linecap: square"/>
     </g>
     <g id="line2d_62">
      <g>
       <use xlink:href="#mcf9fb630fc" x="297.265763" y="293.76" style="stroke: #000000; stroke-width: 0.6"/>
      </g>
     </g>
    </g>
    <g id="xtick_22">
     <g id="line2d_63">
      <path d="M 309.121388 293.76 
L 309.121388 3.456 
" clip-path="url(#p246effd38b)" style="fill: none; stroke: #b0b0b0; stroke-width: 0.8; stroke-linecap: square"/>
     </g>
     <g id="line2d_64">
      <g>
       <use xlink:href="#mcf9fb630fc" x="309.121388" y="293.76" style="stroke: #000000; stroke-width: 0.6"/>
      </g>
     </g>
    </g>
    <g id="xtick_23">
     <g id="line2d_65">
      <path d="M 318.317325 293.76 
L 318.317325 3.456 
" clip-path="url(#p246effd38b)" style="fill: none; stroke: #b0b0b0; stroke-width: 0.8; stroke-linecap: square"/>
     </g>
     <g id="line2d_66">
      <g>
       <use xlink:href="#mcf9fb630fc" x="318.317325" y="293.76" style="stroke: #000000; stroke-width: 0.6"/>
      </g>
     </g>
    </g>
    <g id="xtick_24">
     <g id="line2d_67">
      <path d="M 325.830952 293.76 
L 325.830952 3.456 
" clip-path="url(#p246effd38b)" style="fill: none; stroke: #b0b0b0; stroke-width: 0.8; stroke-linecap: square"/>
     </g>
     <g id="line2d_68">
      <g>
       <use xlink:href="#mcf9fb630fc" x="325.830952" y="293.76" style="stroke: #000000; stroke-width: 0.6"/>
      </g>
     </g>
    </g>
    <g id="xtick_25">
     <g id="line2d_69">
      <path d="M 332.183634 293.76 
L 332.183634 3.456 
" clip-path="url(#p246effd38b)" style="fill: none; stroke: #b0b0b0; stroke-width: 0.8; stroke-linecap: square"/>
     </g>
     <g id="line2d_70">
      <g>
       <use xlink:href="#mcf9fb630fc" x="332.183634" y="293.76" style="stroke: #000000; stroke-width: 0.6"/>
      </g>
     </g>
    </g>
    <g id="xtick_26">
     <g id="line2d_71">
      <path d="M 337.686577 293.76 
L 337.686577 3.456 
" clip-path="url(#p246effd38b)" style="fill: none; stroke: #b0b0b0; stroke-width: 0.8; stroke-linecap: square"/>
     </g>
     <g id="line2d_72">
      <g>
       <use xlink:href="#mcf9fb630fc" x="337.686577" y="293.76" style="stroke: #000000; stroke-width: 0.6"/>
      </g>
     </g>
    </g>
    <g id="xtick_27">
     <g id="line2d_73">
      <path d="M 342.540517 293.76 
L 342.540517 3.456 
" clip-path="url(#p246effd38b)" style="fill: none; stroke: #b0b0b0; stroke-width: 0.8; stroke-linecap: square"/>
     </g>
     <g id="line2d_74">
      <g>
       <use xlink:href="#mcf9fb630fc" x="342.540517" y="293.76" style="stroke: #000000; stroke-width: 0.6"/>
      </g>
     </g>
    </g>
    <g id="xtick_28">
     <g id="line2d_75">
      <path d="M 375.447703 293.76 
L 375.447703 3.456 
" clip-path="url(#p246effd38b)" style="fill: none; stroke: #b0b0b0; stroke-width: 0.8; stroke-linecap: square"/>
     </g>
     <g id="line2d_76">
      <g>
       <use xlink:href="#mcf9fb630fc" x="375.447703" y="293.76" style="stroke: #000000; stroke-width: 0.6"/>
      </g>
     </g>
    </g>
    <g id="xtick_29">
     <g id="line2d_77">
      <path d="M 392.157268 293.76 
L 392.157268 3.456 
" clip-path="url(#p246effd38b)" style="fill: none; stroke: #b0b0b0; stroke-width: 0.8; stroke-linecap: square"/>
     </g>
     <g id="line2d_78">
      <g>
       <use xlink:href="#mcf9fb630fc" x="392.157268" y="293.76" style="stroke: #000000; stroke-width: 0.6"/>
      </g>
     </g>
    </g>
    <g id="xtick_30">
     <g id="line2d_79">
      <path d="M 404.012892 293.76 
L 404.012892 3.456 
" clip-path="url(#p246effd38b)" style="fill: none; stroke: #b0b0b0; stroke-width: 0.8; stroke-linecap: square"/>
     </g>
     <g id="line2d_80">
      <g>
       <use xlink:href="#mcf9fb630fc" x="404.012892" y="293.76" style="stroke: #000000; stroke-width: 0.6"/>
      </g>
     </g>
    </g>
    <g id="xtick_31">
     <g id="line2d_81">
      <path d="M 413.208829 293.76 
L 413.208829 3.456 
" clip-path="url(#p246effd38b)" style="fill: none; stroke: #b0b0b0; stroke-width: 0.8; stroke-linecap: square"/>
     </g>
     <g id="line2d_82">
      <g>
       <use xlink:href="#mcf9fb630fc" x="413.208829" y="293.76" style="stroke: #000000; stroke-width: 0.6"/>
      </g>
     </g>
    </g>
    <g id="xtick_32">
     <g id="line2d_83">
      <path d="M 420.722457 293.76 
L 420.722457 3.456 
" clip-path="url(#p246effd38b)" style="fill: none; stroke: #b0b0b0; stroke-width: 0.8; stroke-linecap: square"/>
     </g>
     <g id="line2d_84">
      <g>
       <use xlink:href="#mcf9fb630fc" x="420.722457" y="293.76" style="stroke: #000000; stroke-width: 0.6"/>
      </g>
     </g>
    </g>
    <g id="xtick_33">
     <g id="line2d_85">
      <path d="M 427.075139 293.76 
L 427.075139 3.456 
" clip-path="url(#p246effd38b)" style="fill: none; stroke: #b0b0b0; stroke-width: 0.8; stroke-linecap: square"/>
     </g>
     <g id="line2d_86">
      <g>
       <use xlink:href="#mcf9fb630fc" x="427.075139" y="293.76" style="stroke: #000000; stroke-width: 0.6"/>
      </g>
     </g>
    </g>
    <g id="xtick_34">
     <g id="line2d_87">
      <path d="M 432.578082 293.76 
L 432.578082 3.456 
" clip-path="url(#p246effd38b)" style="fill: none; stroke: #b0b0b0; stroke-width: 0.8; stroke-linecap: square"/>
     </g>
     <g id="line2d_88">
      <g>
       <use xlink:href="#mcf9fb630fc" x="432.578082" y="293.76" style="stroke: #000000; stroke-width: 0.6"/>
      </g>
     </g>
    </g>
    <g id="xtick_35">
     <g id="line2d_89">
      <path d="M 437.432022 293.76 
L 437.432022 3.456 
" clip-path="url(#p246effd38b)" style="fill: none; stroke: #b0b0b0; stroke-width: 0.8; stroke-linecap: square"/>
     </g>
     <g id="line2d_90">
      <g>
       <use xlink:href="#mcf9fb630fc" x="437.432022" y="293.76" style="stroke: #000000; stroke-width: 0.6"/>
      </g>
     </g>
    </g>
    <g id="text_4">
     <!-- log10 of FEvals / DIM -->
     <g transform="translate(156.430563 339.313125) scale(0.2 -0.2)">
      <defs>
       <path id="DejaVuSans-6c" d="M 603 4863 
L 1178 4863 
L 1178 0 
L 603 0 
L 603 4863 
z
" transform="scale(0.015625)"/>
       <path id="DejaVuSans-6f" d="M 1959 3097 
Q 1497 3097 1228 2736 
Q 959 2375 959 1747 
Q 959 1119 1226 758 
Q 1494 397 1959 397 
Q 2419 397 2687 759 
Q 2956 1122 2956 1747 
Q 2956 2369 2687 2733 
Q 2419 3097 1959 3097 
z
M 1959 3584 
Q 2709 3584 3137 3096 
Q 3566 2609 3566 1747 
Q 3566 888 3137 398 
Q 2709 -91 1959 -91 
Q 1206 -91 779 398 
Q 353 888 353 1747 
Q 353 2609 779 3096 
Q 1206 3584 1959 3584 
z
" transform="scale(0.015625)"/>
       <path id="DejaVuSans-67" d="M 2906 1791 
Q 2906 2416 2648 2759 
Q 2391 3103 1925 3103 
Q 1463 3103 1205 2759 
Q 947 2416 947 1791 
Q 947 1169 1205 825 
Q 1463 481 1925 481 
Q 2391 481 2648 825 
Q 2906 1169 2906 1791 
z
M 3481 434 
Q 3481 -459 3084 -895 
Q 2688 -1331 1869 -1331 
Q 1566 -1331 1297 -1286 
Q 1028 -1241 775 -1147 
L 775 -588 
Q 1028 -725 1275 -790 
Q 1522 -856 1778 -856 
Q 2344 -856 2625 -561 
Q 2906 -266 2906 331 
L 2906 616 
Q 2728 306 2450 153 
Q 2172 0 1784 0 
Q 1141 0 747 490 
Q 353 981 353 1791 
Q 353 2603 747 3093 
Q 1141 3584 1784 3584 
Q 2172 3584 2450 3431 
Q 2728 3278 2906 2969 
L 2906 3500 
L 3481 3500 
L 3481 434 
z
" transform="scale(0.015625)"/>
       <path id="DejaVuSans-31" d="M 794 531 
L 1825 531 
L 1825 4091 
L 703 3866 
L 703 4441 
L 1819 4666 
L 2450 4666 
L 2450 531 
L 3481 531 
L 3481 0 
L 794 0 
L 794 531 
z
" transform="scale(0.015625)"/>
       <path id="DejaVuSans-20" transform="scale(0.015625)"/>
       <path id="DejaVuSans-66" d="M 2375 4863 
L 2375 4384 
L 1825 4384 
Q 1516 4384 1395 4259 
Q 1275 4134 1275 3809 
L 1275 3500 
L 2222 3500 
L 2222 3053 
L 1275 3053 
L 1275 0 
L 697 0 
L 697 3053 
L 147 3053 
L 147 3500 
L 697 3500 
L 697 3744 
Q 697 4328 969 4595 
Q 1241 4863 1831 4863 
L 2375 4863 
z
" transform="scale(0.015625)"/>
       <path id="DejaVuSans-46" d="M 628 4666 
L 3309 4666 
L 3309 4134 
L 1259 4134 
L 1259 2759 
L 3109 2759 
L 3109 2228 
L 1259 2228 
L 1259 0 
L 628 0 
L 628 4666 
z
" transform="scale(0.015625)"/>
       <path id="DejaVuSans-45" d="M 628 4666 
L 3578 4666 
L 3578 4134 
L 1259 4134 
L 1259 2753 
L 3481 2753 
L 3481 2222 
L 1259 2222 
L 1259 531 
L 3634 531 
L 3634 0 
L 628 0 
L 628 4666 
z
" transform="scale(0.015625)"/>
       <path id="DejaVuSans-76" d="M 191 3500 
L 800 3500 
L 1894 563 
L 2988 3500 
L 3597 3500 
L 2284 0 
L 1503 0 
L 191 3500 
z
" transform="scale(0.015625)"/>
       <path id="DejaVuSans-61" d="M 2194 1759 
Q 1497 1759 1228 1600 
Q 959 1441 959 1056 
Q 959 750 1161 570 
Q 1363 391 1709 391 
Q 2188 391 2477 730 
Q 2766 1069 2766 1631 
L 2766 1759 
L 2194 1759 
z
M 3341 1997 
L 3341 0 
L 2766 0 
L 2766 531 
Q 2569 213 2275 61 
Q 1981 -91 1556 -91 
Q 1019 -91 701 211 
Q 384 513 384 1019 
Q 384 1609 779 1909 
Q 1175 2209 1959 2209 
L 2766 2209 
L 2766 2266 
Q 2766 2663 2505 2880 
Q 2244 3097 1772 3097 
Q 1472 3097 1187 3025 
Q 903 2953 641 2809 
L 641 3341 
Q 956 3463 1253 3523 
Q 1550 3584 1831 3584 
Q 2591 3584 2966 3190 
Q 3341 2797 3341 1997 
z
" transform="scale(0.015625)"/>
       <path id="DejaVuSans-73" d="M 2834 3397 
L 2834 2853 
Q 2591 2978 2328 3040 
Q 2066 3103 1784 3103 
Q 1356 3103 1142 2972 
Q 928 2841 928 2578 
Q 928 2378 1081 2264 
Q 1234 2150 1697 2047 
L 1894 2003 
Q 2506 1872 2764 1633 
Q 3022 1394 3022 966 
Q 3022 478 2636 193 
Q 2250 -91 1575 -91 
Q 1294 -91 989 -36 
Q 684 19 347 128 
L 347 722 
Q 666 556 975 473 
Q 1284 391 1588 391 
Q 1994 391 2212 530 
Q 2431 669 2431 922 
Q 2431 1156 2273 1281 
Q 2116 1406 1581 1522 
L 1381 1569 
Q 847 1681 609 1914 
Q 372 2147 372 2553 
Q 372 3047 722 3315 
Q 1072 3584 1716 3584 
Q 2034 3584 2315 3537 
Q 2597 3491 2834 3397 
z
" transform="scale(0.015625)"/>
       <path id="DejaVuSans-2f" d="M 1625 4666 
L 2156 4666 
L 531 -594 
L 0 -594 
L 1625 4666 
z
" transform="scale(0.015625)"/>
       <path id="DejaVuSans-44" d="M 1259 4147 
L 1259 519 
L 2022 519 
Q 2988 519 3436 956 
Q 3884 1394 3884 2338 
Q 3884 3275 3436 3711 
Q 2988 4147 2022 4147 
L 1259 4147 
z
M 628 4666 
L 1925 4666 
Q 3281 4666 3915 4102 
Q 4550 3538 4550 2338 
Q 4550 1131 3912 565 
Q 3275 0 1925 0 
L 628 0 
L 628 4666 
z
" transform="scale(0.015625)"/>
       <path id="DejaVuSans-49" d="M 628 4666 
L 1259 4666 
L 1259 0 
L 628 0 
L 628 4666 
z
" transform="scale(0.015625)"/>
       <path id="DejaVuSans-4d" d="M 628 4666 
L 1569 4666 
L 2759 1491 
L 3956 4666 
L 4897 4666 
L 4897 0 
L 4281 0 
L 4281 4097 
L 3078 897 
L 2444 897 
L 1241 4097 
L 1241 0 
L 628 0 
L 628 4666 
z
" transform="scale(0.015625)"/>
      </defs>
      <use xlink:href="#DejaVuSans-6c"/>
      <use xlink:href="#DejaVuSans-6f" x="27.783203"/>
      <use xlink:href="#DejaVuSans-67" x="88.964844"/>
      <use xlink:href="#DejaVuSans-31" x="152.441406"/>
      <use xlink:href="#DejaVuSans-30" x="216.064453"/>
      <use xlink:href="#DejaVuSans-20" x="279.6875"/>
      <use xlink:href="#DejaVuSans-6f" x="311.474609"/>
      <use xlink:href="#DejaVuSans-66" x="372.65625"/>
      <use xlink:href="#DejaVuSans-20" x="407.861328"/>
      <use xlink:href="#DejaVuSans-46" x="439.648438"/>
      <use xlink:href="#DejaVuSans-45" x="497.167969"/>
      <use xlink:href="#DejaVuSans-76" x="560.351562"/>
      <use xlink:href="#DejaVuSans-61" x="619.53125"/>
      <use xlink:href="#DejaVuSans-6c" x="680.810547"/>
      <use xlink:href="#DejaVuSans-73" x="708.59375"/>
      <use xlink:href="#DejaVuSans-20" x="760.693359"/>
      <use xlink:href="#DejaVuSans-2f" x="792.480469"/>
      <use xlink:href="#DejaVuSans-20" x="826.171875"/>
      <use xlink:href="#DejaVuSans-44" x="857.958984"/>
      <use xlink:href="#DejaVuSans-49" x="934.960938"/>
      <use xlink:href="#DejaVuSans-4d" x="964.453125"/>
     </g>
    </g>
   </g>
   <g id="matplotlib.axis_2">
    <g id="ytick_1">
     <g id="line2d_91">
      <path d="M 62.208 293.76 
L 460.8 293.76 
" clip-path="url(#p246effd38b)" style="fill: none; stroke: #b0b0b0; stroke-width: 0.8; stroke-linecap: square"/>
     </g>
     <g id="line2d_92">
      <defs>
       <path id="m781f680c1c" d="M 0 0 
L -3.5 0 
" style="stroke: #000000; stroke-width: 0.8"/>
      </defs>
      <g>
       <use xlink:href="#m781f680c1c" x="62.208" y="293.76" style="stroke: #000000; stroke-width: 0.8"/>
      </g>
     </g>
     <g id="text_5">
      <!-- 0.0 -->
      <g transform="translate(29.763 299.83875) scale(0.16 -0.16)">
       <defs>
        <path id="DejaVuSans-2e" d="M 684 794 
L 1344 794 
L 1344 0 
L 684 0 
L 684 794 
z
" transform="scale(0.015625)"/>
       </defs>
       <use xlink:href="#DejaVuSans-30"/>
       <use xlink:href="#DejaVuSans-2e" x="63.623047"/>
       <use xlink:href="#DejaVuSans-30" x="95.410156"/>
      </g>
     </g>
    </g>
    <g id="ytick_2">
     <g id="line2d_93">
      <path d="M 62.208 236.274059 
L 460.8 236.274059 
" clip-path="url(#p246effd38b)" style="fill: none; stroke: #b0b0b0; stroke-width: 0.8; stroke-linecap: square"/>
     </g>
     <g id="line2d_94">
      <g>
       <use xlink:href="#m781f680c1c" x="62.208" y="236.274059" style="stroke: #000000; stroke-width: 0.8"/>
      </g>
     </g>
     <g id="text_6">
      <!-- 0.2 -->
      <g transform="translate(29.763 242.352809) scale(0.16 -0.16)">
       <use xlink:href="#DejaVuSans-30"/>
       <use xlink:href="#DejaVuSans-2e" x="63.623047"/>
       <use xlink:href="#DejaVuSans-32" x="95.410156"/>
      </g>
     </g>
    </g>
    <g id="ytick_3">
     <g id="line2d_95">
      <path d="M 62.208 178.788119 
L 460.8 178.788119 
" clip-path="url(#p246effd38b)" style="fill: none; stroke: #b0b0b0; stroke-width: 0.8; stroke-linecap: square"/>
     </g>
     <g id="line2d_96">
      <g>
       <use xlink:href="#m781f680c1c" x="62.208" y="178.788119" style="stroke: #000000; stroke-width: 0.8"/>
      </g>
     </g>
     <g id="text_7">
      <!-- 0.4 -->
      <g transform="translate(29.763 184.866869) scale(0.16 -0.16)">
       <use xlink:href="#DejaVuSans-30"/>
       <use xlink:href="#DejaVuSans-2e" x="63.623047"/>
       <use xlink:href="#DejaVuSans-34" x="95.410156"/>
      </g>
     </g>
    </g>
    <g id="ytick_4">
     <g id="line2d_97">
      <path d="M 62.208 121.302178 
L 460.8 121.302178 
" clip-path="url(#p246effd38b)" style="fill: none; stroke: #b0b0b0; stroke-width: 0.8; stroke-linecap: square"/>
     </g>
     <g id="line2d_98">
      <g>
       <use xlink:href="#m781f680c1c" x="62.208" y="121.302178" style="stroke: #000000; stroke-width: 0.8"/>
      </g>
     </g>
     <g id="text_8">
      <!-- 0.6 -->
      <g transform="translate(29.763 127.380928) scale(0.16 -0.16)">
       <defs>
        <path id="DejaVuSans-36" d="M 2113 2584 
Q 1688 2584 1439 2293 
Q 1191 2003 1191 1497 
Q 1191 994 1439 701 
Q 1688 409 2113 409 
Q 2538 409 2786 701 
Q 3034 994 3034 1497 
Q 3034 2003 2786 2293 
Q 2538 2584 2113 2584 
z
M 3366 4563 
L 3366 3988 
Q 3128 4100 2886 4159 
Q 2644 4219 2406 4219 
Q 1781 4219 1451 3797 
Q 1122 3375 1075 2522 
Q 1259 2794 1537 2939 
Q 1816 3084 2150 3084 
Q 2853 3084 3261 2657 
Q 3669 2231 3669 1497 
Q 3669 778 3244 343 
Q 2819 -91 2113 -91 
Q 1303 -91 875 529 
Q 447 1150 447 2328 
Q 447 3434 972 4092 
Q 1497 4750 2381 4750 
Q 2619 4750 2861 4703 
Q 3103 4656 3366 4563 
z
" transform="scale(0.015625)"/>
       </defs>
       <use xlink:href="#DejaVuSans-30"/>
       <use xlink:href="#DejaVuSans-2e" x="63.623047"/>
       <use xlink:href="#DejaVuSans-36" x="95.410156"/>
      </g>
     </g>
    </g>
    <g id="ytick_5">
     <g id="line2d_99">
      <path d="M 62.208 63.816238 
L 460.8 63.816238 
" clip-path="url(#p246effd38b)" style="fill: none; stroke: #b0b0b0; stroke-width: 0.8; stroke-linecap: square"/>
     </g>
     <g id="line2d_100">
      <g>
       <use xlink:href="#m781f680c1c" x="62.208" y="63.816238" style="stroke: #000000; stroke-width: 0.8"/>
      </g>
     </g>
     <g id="text_9">
      <!-- 0.8 -->
      <g transform="translate(29.763 69.894988) scale(0.16 -0.16)">
       <defs>
        <path id="DejaVuSans-38" d="M 2034 2216 
Q 1584 2216 1326 1975 
Q 1069 1734 1069 1313 
Q 1069 891 1326 650 
Q 1584 409 2034 409 
Q 2484 409 2743 651 
Q 3003 894 3003 1313 
Q 3003 1734 2745 1975 
Q 2488 2216 2034 2216 
z
M 1403 2484 
Q 997 2584 770 2862 
Q 544 3141 544 3541 
Q 544 4100 942 4425 
Q 1341 4750 2034 4750 
Q 2731 4750 3128 4425 
Q 3525 4100 3525 3541 
Q 3525 3141 3298 2862 
Q 3072 2584 2669 2484 
Q 3125 2378 3379 2068 
Q 3634 1759 3634 1313 
Q 3634 634 3220 271 
Q 2806 -91 2034 -91 
Q 1263 -91 848 271 
Q 434 634 434 1313 
Q 434 1759 690 2068 
Q 947 2378 1403 2484 
z
M 1172 3481 
Q 1172 3119 1398 2916 
Q 1625 2713 2034 2713 
Q 2441 2713 2670 2916 
Q 2900 3119 2900 3481 
Q 2900 3844 2670 4047 
Q 2441 4250 2034 4250 
Q 1625 4250 1398 4047 
Q 1172 3844 1172 3481 
z
" transform="scale(0.015625)"/>
       </defs>
       <use xlink:href="#DejaVuSans-30"/>
       <use xlink:href="#DejaVuSans-2e" x="63.623047"/>
       <use xlink:href="#DejaVuSans-38" x="95.410156"/>
      </g>
     </g>
    </g>
    <g id="ytick_6">
     <g id="line2d_101">
      <path d="M 62.208 6.330297 
L 460.8 6.330297 
" clip-path="url(#p246effd38b)" style="fill: none; stroke: #b0b0b0; stroke-width: 0.8; stroke-linecap: square"/>
     </g>
     <g id="line2d_102">
      <g>
       <use xlink:href="#m781f680c1c" x="62.208" y="6.330297" style="stroke: #000000; stroke-width: 0.8"/>
      </g>
     </g>
     <g id="text_10">
      <!-- 1.0 -->
      <g transform="translate(29.763 12.409047) scale(0.16 -0.16)">
       <use xlink:href="#DejaVuSans-31"/>
       <use xlink:href="#DejaVuSans-2e" x="63.623047"/>
       <use xlink:href="#DejaVuSans-30" x="95.410156"/>
      </g>
     </g>
    </g>
    <g id="text_11">
     <!-- proportion of trials -->
     <g transform="translate(21.603625 241.61425) rotate(-90) scale(0.2 -0.2)">
      <defs>
       <path id="DejaVuSans-70" d="M 1159 525 
L 1159 -1331 
L 581 -1331 
L 581 3500 
L 1159 3500 
L 1159 2969 
Q 1341 3281 1617 3432 
Q 1894 3584 2278 3584 
Q 2916 3584 3314 3078 
Q 3713 2572 3713 1747 
Q 3713 922 3314 415 
Q 2916 -91 2278 -91 
Q 1894 -91 1617 61 
Q 1341 213 1159 525 
z
M 3116 1747 
Q 3116 2381 2855 2742 
Q 2594 3103 2138 3103 
Q 1681 3103 1420 2742 
Q 1159 2381 1159 1747 
Q 1159 1113 1420 752 
Q 1681 391 2138 391 
Q 2594 391 2855 752 
Q 3116 1113 3116 1747 
z
" transform="scale(0.015625)"/>
       <path id="DejaVuSans-72" d="M 2631 2963 
Q 2534 3019 2420 3045 
Q 2306 3072 2169 3072 
Q 1681 3072 1420 2755 
Q 1159 2438 1159 1844 
L 1159 0 
L 581 0 
L 581 3500 
L 1159 3500 
L 1159 2956 
Q 1341 3275 1631 3429 
Q 1922 3584 2338 3584 
Q 2397 3584 2469 3576 
Q 2541 3569 2628 3553 
L 2631 2963 
z
" transform="scale(0.015625)"/>
       <path id="DejaVuSans-74" d="M 1172 4494 
L 1172 3500 
L 2356 3500 
L 2356 3053 
L 1172 3053 
L 1172 1153 
Q 1172 725 1289 603 
Q 1406 481 1766 481 
L 2356 481 
L 2356 0 
L 1766 0 
Q 1100 0 847 248 
Q 594 497 594 1153 
L 594 3053 
L 172 3053 
L 172 3500 
L 594 3500 
L 594 4494 
L 1172 4494 
z
" transform="scale(0.015625)"/>
       <path id="DejaVuSans-69" d="M 603 3500 
L 1178 3500 
L 1178 0 
L 603 0 
L 603 3500 
z
M 603 4863 
L 1178 4863 
L 1178 4134 
L 603 4134 
L 603 4863 
z
" transform="scale(0.015625)"/>
       <path id="DejaVuSans-6e" d="M 3513 2113 
L 3513 0 
L 2938 0 
L 2938 2094 
Q 2938 2591 2744 2837 
Q 2550 3084 2163 3084 
Q 1697 3084 1428 2787 
Q 1159 2491 1159 1978 
L 1159 0 
L 581 0 
L 581 3500 
L 1159 3500 
L 1159 2956 
Q 1366 3272 1645 3428 
Q 1925 3584 2291 3584 
Q 2894 3584 3203 3211 
Q 3513 2838 3513 2113 
z
" transform="scale(0.015625)"/>
      </defs>
      <use xlink:href="#DejaVuSans-70"/>
      <use xlink:href="#DejaVuSans-72" x="63.476562"/>
      <use xlink:href="#DejaVuSans-6f" x="102.339844"/>
      <use xlink:href="#DejaVuSans-70" x="163.521484"/>
      <use xlink:href="#DejaVuSans-6f" x="226.998047"/>
      <use xlink:href="#DejaVuSans-72" x="288.179688"/>
      <use xlink:href="#DejaVuSans-74" x="329.292969"/>
      <use xlink:href="#DejaVuSans-69" x="368.501953"/>
      <use xlink:href="#DejaVuSans-6f" x="396.285156"/>
      <use xlink:href="#DejaVuSans-6e" x="457.466797"/>
      <use xlink:href="#DejaVuSans-20" x="520.845703"/>
      <use xlink:href="#DejaVuSans-6f" x="552.632812"/>
      <use xlink:href="#DejaVuSans-66" x="613.814453"/>
      <use xlink:href="#DejaVuSans-20" x="649.019531"/>
      <use xlink:href="#DejaVuSans-74" x="680.806641"/>
      <use xlink:href="#DejaVuSans-72" x="720.015625"/>
      <use xlink:href="#DejaVuSans-69" x="761.128906"/>
      <use xlink:href="#DejaVuSans-61" x="788.912109"/>
      <use xlink:href="#DejaVuSans-6c" x="850.191406"/>
      <use xlink:href="#DejaVuSans-73" x="877.974609"/>
     </g>
    </g>
   </g>
   <g id="line2d_103">
    <path d="M -1 289.927604 
L 9.005436 289.927604 
L 9.005436 286.095208 
L 33.642811 286.095208 
L 33.642811 282.262812 
L 44.455067 282.262812 
L 44.455067 278.430416 
L 66.135814 278.430416 
L 66.135814 274.59802 
L 69.721628 274.59802 
L 69.721628 270.765624 
L 88.113501 270.765624 
L 88.113501 266.933228 
L 93.753586 266.933228 
L 93.753586 263.100832 
L 102.757397 263.100832 
L 102.757397 259.268436 
L 103.520583 259.268436 
L 103.520583 255.43604 
L 105.728836 255.43604 
L 105.728836 251.603644 
L 111.410568 251.603644 
L 111.410568 247.771248 
L 125.098088 247.771248 
L 125.098088 243.938851 
L 130.348289 243.938851 
L 130.348289 240.106455 
L 143.846768 240.106455 
L 143.846768 236.274059 
L 152.642874 236.274059 
L 152.642874 232.441663 
L 153.099508 232.441663 
L 153.099508 228.609267 
L 166.377781 228.609267 
L 166.377781 224.776871 
L 169.467072 224.776871 
L 169.467072 220.944475 
L 169.771213 220.944475 
L 169.771213 217.112079 
L 172.411957 217.112079 
L 172.411957 213.279683 
L 175.093843 213.279683 
L 175.093843 209.447287 
L 176.080583 209.447287 
L 176.080583 205.614891 
L 176.468757 205.614891 
L 176.468757 201.782495 
L 177.297464 201.782495 
L 177.297464 197.950099 
L 177.923781 197.950099 
L 177.923781 194.117703 
L 180.337991 194.117703 
L 180.337991 190.285307 
L 180.396571 190.285307 
L 180.396571 186.452911 
L 191.958461 186.452911 
L 191.958461 182.620515 
L 196.198632 182.620515 
L 196.198632 178.788119 
L 216.897619 178.788119 
L 216.897619 174.955723 
L 221.978941 174.955723 
L 221.978941 171.123327 
L 222.128063 171.123327 
L 222.128063 167.290931 
L 222.361312 167.290931 
L 222.361312 163.458535 
L 225.200339 163.458535 
L 225.200339 159.626139 
L 226.079068 159.626139 
L 226.079068 155.793743 
L 227.911803 155.793743 
L 227.911803 151.961347 
L 228.07779 151.961347 
L 228.07779 148.12895 
L 228.753244 148.12895 
L 228.753244 144.296554 
L 229.471221 144.296554 
L 229.471221 140.464158 
L 231.144989 140.464158 
L 231.144989 136.631762 
L 232.802687 136.631762 
L 232.802687 132.799366 
L 235.625148 132.799366 
L 235.625148 128.96697 
L 236.534583 128.96697 
L 236.534583 125.134574 
L 238.09378 125.134574 
L 238.09378 121.302178 
L 240.46376 121.302178 
L 240.46376 117.469782 
L 241.045633 117.469782 
L 241.045633 113.637386 
L 241.340189 113.637386 
L 241.340189 109.80499 
L 242.028155 109.80499 
L 242.028155 105.972594 
L 242.614379 105.972594 
L 242.614379 102.140198 
L 243.749807 102.140198 
L 243.749807 98.307802 
L 247.002916 98.307802 
L 247.002916 94.475406 
L 251.462192 94.475406 
L 251.462192 90.64301 
L 259.177086 90.64301 
L 259.177086 86.810614 
L 264.624822 86.810614 
L 264.624822 82.978218 
L 264.639984 82.978218 
L 264.639984 79.145822 
L 337.059809 79.145822 
L 337.059809 75.313426 
L 339.506712 75.313426 
L 339.506712 71.48103 
L 339.718107 71.48103 
L 339.718107 67.648634 
L 344.45187 67.648634 
L 344.45187 63.816238 
L 441.16665 63.816238 
L 441.16665 59.983842 
L 441.723711 59.983842 
L 441.723711 56.151446 
L 441.723711 56.151446 
L 441.723711 56.151446 
L 460.8 56.151446 
" clip-path="url(#p246effd38b)" style="fill: none; stroke: #000000; stroke-width: 1.5; stroke-linecap: square"/>
   </g>
   <g id="line2d_104">
    <defs>
     <path id="m3a23f1835f" d="M 0 14.142136 
L 8.485281 0 
L 0 -14.142136 
L -8.485281 0 
z
" style="stroke: #000000; stroke-width: 1.5; stroke-linejoin: miter"/>
    </defs>
    <g clip-path="url(#p246effd38b)">
     <use xlink:href="#m3a23f1835f" x="102.757397" y="263.100832" style="fill-opacity: 0; stroke: #000000; stroke-width: 1.5; stroke-linejoin: miter"/>
     <use xlink:href="#m3a23f1835f" x="169.467072" y="224.776871" style="fill-opacity: 0; stroke: #000000; stroke-width: 1.5; stroke-linejoin: miter"/>
     <use xlink:href="#m3a23f1835f" x="225.200339" y="163.458535" style="fill-opacity: 0; stroke: #000000; stroke-width: 1.5; stroke-linejoin: miter"/>
     <use xlink:href="#m3a23f1835f" x="264.624822" y="86.810614" style="fill-opacity: 0; stroke: #000000; stroke-width: 1.5; stroke-linejoin: miter"/>
     <use xlink:href="#m3a23f1835f" x="339.718107" y="71.48103" style="fill-opacity: 0; stroke: #000000; stroke-width: 1.5; stroke-linejoin: miter"/>
     <use xlink:href="#m3a23f1835f" x="441.723711" y="59.983842" style="fill-opacity: 0; stroke: #000000; stroke-width: 1.5; stroke-linejoin: miter"/>
     <use xlink:href="#m3a23f1835f" x="441.723711" y="56.151446" style="fill-opacity: 0; stroke: #000000; stroke-width: 1.5; stroke-linejoin: miter"/>
    </g>
   </g>
   <g id="line2d_105">
    <path clip-path="url(#p246effd38b)" style="fill: none; stroke: #000000; stroke-width: 1.5; stroke-linecap: square"/>
    <g clip-path="url(#p246effd38b)">
     <use xlink:href="#m3a23f1835f" x="-1" y="581.189703" style="fill-opacity: 0; stroke: #000000; stroke-width: 1.5; stroke-linejoin: miter"/>
     <use xlink:href="#m3a23f1835f" x="460.8" y="581.189703" style="fill-opacity: 0; stroke: #000000; stroke-width: 1.5; stroke-linejoin: miter"/>
    </g>
   </g>
   <g id="line2d_106">
    <path d="M -1 289.927604 
L 53.012063 289.927604 
L 53.012063 286.095208 
L 55.510456 286.095208 
L 55.510456 282.262812 
L 56.705057 282.262812 
L 56.705057 278.430416 
L 57.866003 278.430416 
L 57.866003 274.59802 
L 61.164631 274.59802 
L 61.164631 270.765624 
L 90.254807 270.765624 
L 90.254807 266.933228 
L 92.290325 266.933228 
L 92.290325 263.100832 
L 92.290325 263.100832 
L 92.290325 259.268436 
L 93.271582 259.268436 
L 93.271582 255.43604 
L 95.627129 255.43604 
L 95.627129 251.603644 
L 102.370438 251.603644 
L 102.370438 247.771248 
L 106.790118 247.771248 
L 106.790118 243.938851 
L 116.952518 243.938851 
L 116.952518 240.106455 
L 133.020299 240.106455 
L 133.020299 236.274059 
L 157.611447 236.274059 
L 157.611447 232.441663 
L 158.016471 232.441663 
L 158.016471 228.609267 
L 166.705503 228.609267 
L 166.705503 224.776871 
L 171.185997 224.776871 
L 171.185997 220.944475 
L 172.411957 220.944475 
L 172.411957 217.112079 
L 174.893628 217.112079 
L 174.893628 213.279683 
L 175.226781 213.279683 
L 175.226781 209.447287 
L 176.917054 209.447287 
L 176.917054 205.614891 
L 179.628461 205.614891 
L 179.628461 201.782495 
L 180.102836 201.782495 
L 180.102836 197.950099 
L 182.784627 197.950099 
L 182.784627 194.117703 
L 184.303093 194.117703 
L 184.303093 190.285307 
L 185.972622 190.285307 
L 185.972622 186.452911 
L 190.011842 186.452911 
L 190.011842 182.620515 
L 192.35451 182.620515 
L 192.35451 178.788119 
L 288.780559 178.788119 
L 288.780559 174.955723 
L 293.292248 174.955723 
L 293.292248 171.123327 
L 296.098929 171.123327 
L 296.098929 167.290931 
L 297.16605 167.290931 
L 297.16605 163.458535 
L 303.272592 163.458535 
L 303.272592 159.626139 
L 322.036685 159.626139 
L 322.036685 155.793743 
L 322.432037 155.793743 
L 322.432037 151.961347 
L 326.22571 151.961347 
L 326.22571 148.12895 
L 332.263035 148.12895 
L 332.263035 144.296554 
L 337.39968 144.296554 
L 337.39968 140.464158 
L 342.443098 140.464158 
L 342.443098 136.631762 
L 343.337517 136.631762 
L 343.337517 132.799366 
L 344.278835 132.799366 
L 344.278835 128.96697 
L 352.812092 128.96697 
L 352.812092 125.134574 
L 353.112558 125.134574 
L 353.112558 121.302178 
L 355.456442 121.302178 
L 355.456442 117.469782 
L 358.975191 117.469782 
L 358.975191 113.637386 
L 360.385156 113.637386 
L 360.385156 109.80499 
L 362.162269 109.80499 
L 362.162269 105.972594 
L 364.225271 105.972594 
L 364.225271 102.140198 
L 364.995189 102.140198 
L 364.995189 98.307802 
L 369.271079 98.307802 
L 369.271079 94.475406 
L 371.118296 94.475406 
L 371.118296 90.64301 
L 371.415907 90.64301 
L 371.415907 86.810614 
L 383.44613 86.810614 
L 383.44613 82.978218 
L 387.732384 82.978218 
L 387.732384 79.145822 
L 390.148129 79.145822 
L 390.148129 75.313426 
L 403.646813 75.313426 
L 403.646813 71.48103 
L 406.196642 71.48103 
L 406.196642 67.648634 
L 418.526655 67.648634 
L 418.526655 63.816238 
L 421.983756 63.816238 
L 421.983756 59.983842 
L 427.060123 59.983842 
L 427.060123 56.151446 
L 427.060123 56.151446 
L 427.060123 56.151446 
L 460.8 56.151446 
" clip-path="url(#p246effd38b)" style="fill: none; stroke: #000000; stroke-width: 1.5; stroke-linecap: square"/>
   </g>
   <g id="line2d_107">
    <defs>
     <path id="m42d55acbc5" d="M 0 7.5 
C 1.989023 7.5 3.896849 6.709753 5.303301 5.303301 
C 6.709753 3.896849 7.5 1.989023 7.5 0 
C 7.5 -1.989023 6.709753 -3.896849 5.303301 -5.303301 
C 3.896849 -6.709753 1.989023 -7.5 0 -7.5 
C -1.989023 -7.5 -3.896849 -6.709753 -5.303301 -5.303301 
C -6.709753 -3.896849 -7.5 -1.989023 -7.5 0 
C -7.5 1.989023 -6.709753 3.896849 -5.303301 5.303301 
C -3.896849 6.709753 -1.989023 7.5 0 7.5 
z
" style="stroke: #000000; stroke-width: 1.5"/>
    </defs>
    <g clip-path="url(#p246effd38b)">
     <use xlink:href="#m42d55acbc5" x="166.705503" y="228.609267" style="fill-opacity: 0; stroke: #000000; stroke-width: 1.5"/>
     <use xlink:href="#m42d55acbc5" x="190.011842" y="186.452911" style="fill-opacity: 0; stroke: #000000; stroke-width: 1.5"/>
     <use xlink:href="#m42d55acbc5" x="332.263035" y="148.12895" style="fill-opacity: 0; stroke: #000000; stroke-width: 1.5"/>
     <use xlink:href="#m42d55acbc5" x="371.415907" y="90.64301" style="fill-opacity: 0; stroke: #000000; stroke-width: 1.5"/>
     <use xlink:href="#m42d55acbc5" x="427.060123" y="59.983842" style="fill-opacity: 0; stroke: #000000; stroke-width: 1.5"/>
     <use xlink:href="#m42d55acbc5" x="427.060123" y="56.151446" style="fill-opacity: 0; stroke: #000000; stroke-width: 1.5"/>
    </g>
   </g>
   <g id="line2d_108">
    <path clip-path="url(#p246effd38b)" style="fill: none; stroke: #000000; stroke-width: 1.5; stroke-linecap: square"/>
   </g>
   <g id="line2d_109">
    <path d="M 230.594585 293.76 
L 230.594585 289.927604 
L 234.269765 289.927604 
L 234.269765 286.095208 
L 234.991954 286.095208 
L 234.991954 282.262812 
L 240.011566 282.262812 
L 240.011566 278.430416 
L 240.381911 278.430416 
L 240.381911 274.59802 
L 240.46376 274.59802 
L 240.46376 270.765624 
L 241.366863 270.765624 
L 241.366863 266.933228 
L 241.579633 266.933228 
L 241.579633 263.100832 
L 243.87545 263.100832 
L 243.87545 259.268436 
L 244.707519 259.268436 
L 244.707519 255.43604 
L 245.232816 255.43604 
L 245.232816 251.603644 
L 248.431413 251.603644 
L 248.431413 247.771248 
L 255.286468 247.771248 
L 255.286468 243.938851 
L 261.539844 243.938851 
L 261.539844 240.106455 
L 266.803064 240.106455 
L 266.803064 236.274059 
L 336.23036 236.274059 
L 336.23036 232.441663 
L 337.439863 232.441663 
L 337.439863 228.609267 
L 338.368608 228.609267 
L 338.368608 224.776871 
L 338.442011 224.776871 
L 338.442011 220.944475 
L 338.50771 220.944475 
L 338.50771 217.112079 
L 338.700411 217.112079 
L 338.700411 213.279683 
L 338.917222 213.279683 
L 338.917222 209.447287 
L 339.218605 209.447287 
L 339.218605 205.614891 
L 339.715655 205.614891 
L 339.715655 201.782495 
L 340.098822 201.782495 
L 340.098822 197.950099 
L 340.318084 197.950099 
L 340.318084 194.117703 
L 340.73879 194.117703 
L 340.73879 190.285307 
L 341.693926 190.285307 
L 341.693926 186.452911 
L 341.770976 186.452911 
L 341.770976 182.620515 
L 342.17718 182.620515 
L 342.17718 178.788119 
L 342.509597 178.788119 
L 342.509597 174.955723 
L 342.566838 174.955723 
L 342.566838 171.123327 
L 343.122498 171.123327 
L 343.122498 167.290931 
L 344.367634 167.290931 
L 344.367634 163.458535 
L 345.045373 163.458535 
L 345.045373 159.626139 
L 345.829634 159.626139 
L 345.829634 155.793743 
L 345.978393 155.793743 
L 345.978393 151.961347 
L 346.416264 151.961347 
L 346.416264 148.12895 
L 347.339472 148.12895 
L 347.339472 144.296554 
L 347.959378 144.296554 
L 347.959378 140.464158 
L 348.865715 140.464158 
L 348.865715 136.631762 
L 349.055758 136.631762 
L 349.055758 132.799366 
L 349.068462 132.799366 
L 349.068462 128.96697 
L 349.249793 128.96697 
L 349.249793 125.134574 
L 349.670785 125.134574 
L 349.670785 121.302178 
L 349.670785 121.302178 
L 349.670785 121.302178 
L 460.8 121.302178 
" clip-path="url(#p246effd38b)" style="fill: none; stroke: #00bfbf; stroke-width: 1.5; stroke-linecap: square"/>
   </g>
   <g id="line2d_110">
    <defs>
     <path id="mcaca7ef75b" d="M 0 14.142136 
L 8.485281 0 
L 0 -14.142136 
L -8.485281 0 
z
" style="stroke: #00bfbf; stroke-width: 1.5; stroke-linejoin: miter"/>
    </defs>
    <g clip-path="url(#p246effd38b)">
     <use xlink:href="#mcaca7ef75b" x="266.803064" y="240.106455" style="fill-opacity: 0; stroke: #00bfbf; stroke-width: 1.5; stroke-linejoin: miter"/>
     <use xlink:href="#mcaca7ef75b" x="342.509597" y="178.788119" style="fill-opacity: 0; stroke: #00bfbf; stroke-width: 1.5; stroke-linejoin: miter"/>
     <use xlink:href="#mcaca7ef75b" x="349.670785" y="125.134574" style="fill-opacity: 0; stroke: #00bfbf; stroke-width: 1.5; stroke-linejoin: miter"/>
     <use xlink:href="#mcaca7ef75b" x="349.670785" y="121.302178" style="fill-opacity: 0; stroke: #00bfbf; stroke-width: 1.5; stroke-linejoin: miter"/>
    </g>
   </g>
   <g id="line2d_111">
    <path clip-path="url(#p246effd38b)" style="fill: none; stroke: #00bfbf; stroke-width: 1.5; stroke-linecap: square"/>
    <g clip-path="url(#p246effd38b)">
     <use xlink:href="#mcaca7ef75b" x="-1" y="581.189703" style="fill-opacity: 0; stroke: #00bfbf; stroke-width: 1.5; stroke-linejoin: miter"/>
     <use xlink:href="#mcaca7ef75b" x="460.8" y="581.189703" style="fill-opacity: 0; stroke: #00bfbf; stroke-width: 1.5; stroke-linejoin: miter"/>
    </g>
   </g>
   <g id="line2d_112">
    <path d="M 298.64696 293.76 
L 298.64696 289.927604 
L 299.660595 289.927604 
L 299.660595 286.095208 
L 301.112324 286.095208 
L 301.112324 282.262812 
L 303.506435 282.262812 
L 303.506435 278.430416 
L 308.257266 278.430416 
L 308.257266 274.59802 
L 310.050948 274.59802 
L 310.050948 270.765624 
L 311.038752 270.765624 
L 311.038752 266.933228 
L 313.954717 266.933228 
L 313.954717 263.100832 
L 327.952691 263.100832 
L 327.952691 259.268436 
L 338.699155 259.268436 
L 338.699155 255.43604 
L 339.421603 255.43604 
L 339.421603 251.603644 
L 341.219125 251.603644 
L 341.219125 247.771248 
L 347.253795 247.771248 
L 347.253795 243.938851 
L 352.395115 243.938851 
L 352.395115 240.106455 
L 358.140127 240.106455 
L 358.140127 236.274059 
L 358.277099 236.274059 
L 358.277099 232.441663 
L 362.471146 232.441663 
L 362.471146 228.609267 
L 363.145275 228.609267 
L 363.145275 224.776871 
L 364.198207 224.776871 
L 364.198207 220.944475 
L 367.210275 220.944475 
L 367.210275 217.112079 
L 372.121076 217.112079 
L 372.121076 213.279683 
L 372.729179 213.279683 
L 372.729179 209.447287 
L 373.046556 209.447287 
L 373.046556 205.614891 
L 373.553969 205.614891 
L 373.553969 201.782495 
L 373.569068 201.782495 
L 373.569068 197.950099 
L 373.59009 197.950099 
L 373.59009 194.117703 
L 374.470852 194.117703 
L 374.470852 190.285307 
L 375.067848 190.285307 
L 375.067848 186.452911 
L 375.242685 186.452911 
L 375.242685 182.620515 
L 382.963477 182.620515 
L 382.963477 178.788119 
L 386.784424 178.788119 
L 386.784424 174.955723 
L 389.050452 174.955723 
L 389.050452 171.123327 
L 390.951554 171.123327 
L 390.951554 167.290931 
L 394.176782 167.290931 
L 394.176782 163.458535 
L 394.706698 163.458535 
L 394.706698 159.626139 
L 398.345958 159.626139 
L 398.345958 155.793743 
L 400.604652 155.793743 
L 400.604652 151.961347 
L 401.085566 151.961347 
L 401.085566 148.12895 
L 404.926836 148.12895 
L 404.926836 144.296554 
L 405.039541 144.296554 
L 405.039541 140.464158 
L 408.190491 140.464158 
L 408.190491 136.631762 
L 408.592787 136.631762 
L 408.592787 132.799366 
L 418.390417 132.799366 
L 418.390417 128.96697 
L 420.427779 128.96697 
L 420.427779 125.134574 
L 434.740207 125.134574 
L 434.740207 121.302178 
L 434.740207 121.302178 
L 434.740207 121.302178 
L 460.8 121.302178 
" clip-path="url(#p246effd38b)" style="fill: none; stroke: #00bfbf; stroke-width: 1.5; stroke-linecap: square"/>
   </g>
   <g id="line2d_113">
    <defs>
     <path id="me8b930e833" d="M 0 7.5 
C 1.989023 7.5 3.896849 6.709753 5.303301 5.303301 
C 6.709753 3.896849 7.5 1.989023 7.5 0 
C 7.5 -1.989023 6.709753 -3.896849 5.303301 -5.303301 
C 3.896849 -6.709753 1.989023 -7.5 0 -7.5 
C -1.989023 -7.5 -3.896849 -6.709753 -5.303301 -5.303301 
C -6.709753 -3.896849 -7.5 -1.989023 -7.5 0 
C -7.5 1.989023 -6.709753 3.896849 -5.303301 5.303301 
C -3.896849 6.709753 -1.989023 7.5 0 7.5 
z
" style="stroke: #00bfbf; stroke-width: 1.5"/>
    </defs>
    <g clip-path="url(#p246effd38b)">
     <use xlink:href="#me8b930e833" x="338.699155" y="259.268436" style="fill-opacity: 0; stroke: #00bfbf; stroke-width: 1.5"/>
     <use xlink:href="#me8b930e833" x="374.470852" y="194.117703" style="fill-opacity: 0; stroke: #00bfbf; stroke-width: 1.5"/>
     <use xlink:href="#me8b930e833" x="408.592787" y="136.631762" style="fill-opacity: 0; stroke: #00bfbf; stroke-width: 1.5"/>
     <use xlink:href="#me8b930e833" x="434.740207" y="121.302178" style="fill-opacity: 0; stroke: #00bfbf; stroke-width: 1.5"/>
    </g>
   </g>
   <g id="line2d_114">
    <path clip-path="url(#p246effd38b)" style="fill: none; stroke: #00bfbf; stroke-width: 1.5; stroke-linecap: square"/>
   </g>
   <g id="line2d_115">
    <path d="M 341.86883 293.76 
L 341.86883 289.927604 
L 342.088158 289.927604 
L 342.088158 286.095208 
L 342.818893 286.095208 
L 342.818893 282.262812 
L 342.862077 282.262812 
L 342.862077 278.430416 
L 343.078455 278.430416 
L 343.078455 274.59802 
L 343.337517 274.59802 
L 343.337517 270.765624 
L 343.767551 270.765624 
L 343.767551 266.933228 
L 344.510843 266.933228 
L 344.510843 263.100832 
L 344.54684 263.100832 
L 344.54684 259.268436 
L 344.857506 259.268436 
L 344.857506 255.43604 
L 345.302033 255.43604 
L 345.302033 251.603644 
L 345.710027 251.603644 
L 345.710027 247.771248 
L 345.805317 247.771248 
L 345.805317 243.938851 
L 346.196863 243.938851 
L 346.196863 240.106455 
L 346.422516 240.106455 
L 346.422516 236.274059 
L 347.006989 236.274059 
L 347.006989 232.441663 
L 347.363919 232.441663 
L 347.363919 228.609267 
L 347.388351 228.609267 
L 347.388351 224.776871 
L 349.249793 224.776871 
L 349.249793 220.944475 
L 350.357338 220.944475 
L 350.357338 217.112079 
L 350.591518 217.112079 
L 350.591518 213.279683 
L 350.888928 213.279683 
L 350.888928 209.447287 
L 351.892758 209.447287 
L 351.892758 205.614891 
L 352.214464 205.614891 
L 352.214464 201.782495 
L 352.292241 201.782495 
L 352.292241 197.950099 
L 352.918127 197.950099 
L 352.918127 194.117703 
L 352.931474 194.117703 
L 352.931474 190.285307 
L 353.132039 190.285307 
L 353.132039 186.452911 
L 354.106651 186.452911 
L 354.106651 182.620515 
L 354.837643 182.620515 
L 354.837643 178.788119 
L 354.964858 178.788119 
L 354.964858 174.955723 
L 355.148204 174.955723 
L 355.148204 171.123327 
L 355.197071 171.123327 
L 355.197071 167.290931 
L 355.30723 167.290931 
L 355.30723 163.458535 
L 355.616786 163.458535 
L 355.616786 159.626139 
L 355.629286 159.626139 
L 355.629286 155.793743 
L 358.038081 155.793743 
L 358.038081 151.961347 
L 375.902624 151.961347 
L 375.902624 148.12895 
L 394.058566 148.12895 
L 394.058566 144.296554 
L 398.022259 144.296554 
L 398.022259 140.464158 
L 398.149846 140.464158 
L 398.149846 136.631762 
L 399.354593 136.631762 
L 399.354593 132.799366 
L 399.563435 132.799366 
L 399.563435 128.96697 
L 399.803472 128.96697 
L 399.803472 125.134574 
L 400.45835 125.134574 
L 400.45835 121.302178 
L 400.45835 121.302178 
L 400.45835 121.302178 
L 460.8 121.302178 
" clip-path="url(#p246effd38b)" style="fill: none; stroke: #bf00bf; stroke-width: 1.5; stroke-linecap: square"/>
   </g>
   <g id="line2d_116">
    <defs>
     <path id="m6f3805b937" d="M 0 14.142136 
L 8.485281 0 
L 0 -14.142136 
L -8.485281 0 
z
" style="stroke: #bf00bf; stroke-width: 1.5; stroke-linejoin: miter"/>
    </defs>
    <g clip-path="url(#p246effd38b)">
     <use xlink:href="#m6f3805b937" x="354.106651" y="186.452911" style="fill-opacity: 0; stroke: #bf00bf; stroke-width: 1.5; stroke-linejoin: miter"/>
     <use xlink:href="#m6f3805b937" x="375.902624" y="151.961347" style="fill-opacity: 0; stroke: #bf00bf; stroke-width: 1.5; stroke-linejoin: miter"/>
     <use xlink:href="#m6f3805b937" x="400.45835" y="121.302178" style="fill-opacity: 0; stroke: #bf00bf; stroke-width: 1.5; stroke-linejoin: miter"/>
    </g>
   </g>
   <g id="line2d_117">
    <path clip-path="url(#p246effd38b)" style="fill: none; stroke: #bf00bf; stroke-width: 1.5; stroke-linecap: square"/>
    <g clip-path="url(#p246effd38b)">
     <use xlink:href="#m6f3805b937" x="-1" y="581.189703" style="fill-opacity: 0; stroke: #bf00bf; stroke-width: 1.5; stroke-linejoin: miter"/>
     <use xlink:href="#m6f3805b937" x="460.8" y="581.189703" style="fill-opacity: 0; stroke: #bf00bf; stroke-width: 1.5; stroke-linejoin: miter"/>
    </g>
   </g>
   <g id="line2d_118">
    <path d="M 306.740985 293.76 
L 306.740985 289.927604 
L 315.780537 289.927604 
L 315.780537 286.095208 
L 322.53261 286.095208 
L 322.53261 282.262812 
L 322.974817 282.262812 
L 322.974817 278.430416 
L 323.143781 278.430416 
L 323.143781 274.59802 
L 331.230739 274.59802 
L 331.230739 270.765624 
L 332.263035 270.765624 
L 332.263035 266.933228 
L 343.602769 266.933228 
L 343.602769 263.100832 
L 347.517397 263.100832 
L 347.517397 259.268436 
L 349.238118 259.268436 
L 349.238118 255.43604 
L 354.902996 255.43604 
L 354.902996 251.603644 
L 362.352404 251.603644 
L 362.352404 247.771248 
L 368.159909 247.771248 
L 368.159909 243.938851 
L 368.577683 243.938851 
L 368.577683 240.106455 
L 370.692101 240.106455 
L 370.692101 236.274059 
L 373.225814 236.274059 
L 373.225814 232.441663 
L 377.636094 232.441663 
L 377.636094 228.609267 
L 379.614129 228.609267 
L 379.614129 224.776871 
L 381.655598 224.776871 
L 381.655598 220.944475 
L 382.583555 220.944475 
L 382.583555 217.112079 
L 383.144227 217.112079 
L 383.144227 213.279683 
L 385.470631 213.279683 
L 385.470631 209.447287 
L 386.303129 209.447287 
L 386.303129 205.614891 
L 388.668747 205.614891 
L 388.668747 201.782495 
L 392.055833 201.782495 
L 392.055833 197.950099 
L 392.334778 197.950099 
L 392.334778 194.117703 
L 395.759419 194.117703 
L 395.759419 190.285307 
L 401.743676 190.285307 
L 401.743676 186.452911 
L 401.889561 186.452911 
L 401.889561 182.620515 
L 403.187417 182.620515 
L 403.187417 178.788119 
L 403.632518 178.788119 
L 403.632518 174.955723 
L 405.65001 174.955723 
L 405.65001 171.123327 
L 407.665833 171.123327 
L 407.665833 167.290931 
L 408.0387 167.290931 
L 408.0387 163.458535 
L 414.370119 163.458535 
L 414.370119 159.626139 
L 414.785702 159.626139 
L 414.785702 155.793743 
L 415.035026 155.793743 
L 415.035026 151.961347 
L 415.341396 151.961347 
L 415.341396 148.12895 
L 418.036019 148.12895 
L 418.036019 144.296554 
L 422.129052 144.296554 
L 422.129052 140.464158 
L 423.111617 140.464158 
L 423.111617 136.631762 
L 437.010784 136.631762 
L 437.010784 132.799366 
L 437.010784 132.799366 
L 437.010784 132.799366 
L 460.8 132.799366 
" clip-path="url(#p246effd38b)" style="fill: none; stroke: #bf00bf; stroke-width: 1.5; stroke-linecap: square"/>
   </g>
   <g id="line2d_119">
    <defs>
     <path id="m4669e4c6c9" d="M 0 7.5 
C 1.989023 7.5 3.896849 6.709753 5.303301 5.303301 
C 6.709753 3.896849 7.5 1.989023 7.5 0 
C 7.5 -1.989023 6.709753 -3.896849 5.303301 -5.303301 
C 3.896849 -6.709753 1.989023 -7.5 0 -7.5 
C -1.989023 -7.5 -3.896849 -6.709753 -5.303301 -5.303301 
C -6.709753 -3.896849 -7.5 -1.989023 -7.5 0 
C -7.5 1.989023 -6.709753 3.896849 -5.303301 5.303301 
C -3.896849 6.709753 -1.989023 7.5 0 7.5 
z
" style="stroke: #bf00bf; stroke-width: 1.5"/>
    </defs>
    <g clip-path="url(#p246effd38b)">
     <use xlink:href="#m4669e4c6c9" x="377.636094" y="232.441663" style="fill-opacity: 0; stroke: #bf00bf; stroke-width: 1.5"/>
     <use xlink:href="#m4669e4c6c9" x="408.0387" y="167.290931" style="fill-opacity: 0; stroke: #bf00bf; stroke-width: 1.5"/>
     <use xlink:href="#m4669e4c6c9" x="437.010784" y="136.631762" style="fill-opacity: 0; stroke: #bf00bf; stroke-width: 1.5"/>
     <use xlink:href="#m4669e4c6c9" x="437.010784" y="132.799366" style="fill-opacity: 0; stroke: #bf00bf; stroke-width: 1.5"/>
    </g>
   </g>
   <g id="line2d_120">
    <path clip-path="url(#p246effd38b)" style="fill: none; stroke: #bf00bf; stroke-width: 1.5; stroke-linecap: square"/>
   </g>
   <g id="line2d_121">
    <path d="M 346.8093 293.76 
L 346.8093 289.927604 
L 347.678391 289.927604 
L 347.678391 286.095208 
L 347.701627 286.095208 
L 347.701627 282.262812 
L 347.830704 282.262812 
L 347.830704 278.430416 
L 347.900118 278.430416 
L 347.900118 274.59802 
L 348.122657 274.59802 
L 348.122657 270.765624 
L 348.659993 270.765624 
L 348.659993 266.933228 
L 349.09581 266.933228 
L 349.09581 263.100832 
L 349.136799 263.100832 
L 349.136799 259.268436 
L 349.391572 259.268436 
L 349.391572 255.43604 
L 350.113247 255.43604 
L 350.113247 251.603644 
L 350.217899 251.603644 
L 350.217899 247.771248 
L 350.502913 247.771248 
L 350.502913 243.938851 
L 351.691555 243.938851 
L 351.691555 240.106455 
L 351.941995 240.106455 
L 351.941995 236.274059 
L 358.555117 236.274059 
L 358.555117 232.441663 
L 358.758739 232.441663 
L 358.758739 228.609267 
L 358.874424 228.609267 
L 358.874424 224.776871 
L 359.666943 224.776871 
L 359.666943 220.944475 
L 360.025742 220.944475 
L 360.025742 217.112079 
L 360.331667 217.112079 
L 360.331667 213.279683 
L 360.480819 213.279683 
L 360.480819 209.447287 
L 360.917002 209.447287 
L 360.917002 205.614891 
L 362.045484 205.614891 
L 362.045484 201.782495 
L 362.086824 201.782495 
L 362.086824 197.950099 
L 362.089673 197.950099 
L 362.089673 194.117703 
L 362.307787 194.117703 
L 362.307787 190.285307 
L 362.552232 190.285307 
L 362.552232 186.452911 
L 362.735671 186.452911 
L 362.735671 182.620515 
L 363.275603 182.620515 
L 363.275603 178.788119 
L 402.024121 178.788119 
L 402.024121 174.955723 
L 402.793209 174.955723 
L 402.793209 171.123327 
L 403.766955 171.123327 
L 403.766955 167.290931 
L 405.225534 167.290931 
L 405.225534 163.458535 
L 405.577666 163.458535 
L 405.577666 159.626139 
L 406.570876 159.626139 
L 406.570876 155.793743 
L 406.881725 155.793743 
L 406.881725 151.961347 
L 406.934546 151.961347 
L 406.934546 148.12895 
L 407.179991 148.12895 
L 407.179991 144.296554 
L 407.431571 144.296554 
L 407.431571 140.464158 
L 407.939302 140.464158 
L 407.939302 136.631762 
L 407.969263 136.631762 
L 407.969263 132.799366 
L 410.038938 132.799366 
L 410.038938 128.96697 
L 410.871629 128.96697 
L 410.871629 125.134574 
L 410.89779 125.134574 
L 410.89779 121.302178 
L 410.89779 121.302178 
L 410.89779 121.302178 
L 460.8 121.302178 
" clip-path="url(#p246effd38b)" style="fill: none; stroke: #ff0000; stroke-width: 3; stroke-linecap: square"/>
   </g>
   <g id="line2d_122">
    <defs>
     <path id="m938c262993" d="M 0 14.142136 
L 8.485281 0 
L 0 -14.142136 
L -8.485281 0 
z
" style="stroke: #ff0000; stroke-width: 3; stroke-linejoin: miter"/>
    </defs>
    <g clip-path="url(#p246effd38b)">
     <use xlink:href="#m938c262993" x="360.480819" y="213.279683" style="fill-opacity: 0; stroke: #ff0000; stroke-width: 3; stroke-linejoin: miter"/>
     <use xlink:href="#m938c262993" x="405.225534" y="167.290931" style="fill-opacity: 0; stroke: #ff0000; stroke-width: 3; stroke-linejoin: miter"/>
     <use xlink:href="#m938c262993" x="410.89779" y="121.302178" style="fill-opacity: 0; stroke: #ff0000; stroke-width: 3; stroke-linejoin: miter"/>
    </g>
   </g>
   <g id="line2d_123">
    <path clip-path="url(#p246effd38b)" style="fill: none; stroke: #ff0000; stroke-width: 3; stroke-linecap: square"/>
    <g clip-path="url(#p246effd38b)">
     <use xlink:href="#m938c262993" x="-1" y="581.189703" style="fill-opacity: 0; stroke: #ff0000; stroke-width: 3; stroke-linejoin: miter"/>
     <use xlink:href="#m938c262993" x="460.8" y="581.189703" style="fill-opacity: 0; stroke: #ff0000; stroke-width: 3; stroke-linejoin: miter"/>
    </g>
   </g>
   <g id="line2d_124">
    <path d="M 320.042471 293.76 
L 320.042471 289.927604 
L 341.385458 289.927604 
L 341.385458 286.095208 
L 341.439577 286.095208 
L 341.439577 282.262812 
L 342.089315 282.262812 
L 342.089315 278.430416 
L 343.724192 278.430416 
L 343.724192 274.59802 
L 348.937329 274.59802 
L 348.937329 270.765624 
L 350.948714 270.765624 
L 350.948714 266.933228 
L 354.54355 266.933228 
L 354.54355 263.100832 
L 358.808138 263.100832 
L 358.808138 259.268436 
L 359.506468 259.268436 
L 359.506468 255.43604 
L 367.236061 255.43604 
L 367.236061 251.603644 
L 371.958809 251.603644 
L 371.958809 247.771248 
L 375.164956 247.771248 
L 375.164956 243.938851 
L 375.389968 243.938851 
L 375.389968 240.106455 
L 377.949974 240.106455 
L 377.949974 236.274059 
L 382.238562 236.274059 
L 382.238562 232.441663 
L 383.083066 232.441663 
L 383.083066 228.609267 
L 385.817348 228.609267 
L 385.817348 224.776871 
L 386.52342 224.776871 
L 386.52342 220.944475 
L 387.094686 220.944475 
L 387.094686 217.112079 
L 388.611147 217.112079 
L 388.611147 213.279683 
L 389.985547 213.279683 
L 389.985547 209.447287 
L 390.562153 209.447287 
L 390.562153 205.614891 
L 391.781225 205.614891 
L 391.781225 201.782495 
L 396.372243 201.782495 
L 396.372243 197.950099 
L 398.202669 197.950099 
L 398.202669 194.117703 
L 398.639853 194.117703 
L 398.639853 190.285307 
L 404.851444 190.285307 
L 404.851444 186.452911 
L 405.979399 186.452911 
L 405.979399 182.620515 
L 407.108375 182.620515 
L 407.108375 178.788119 
L 410.205941 178.788119 
L 410.205941 174.955723 
L 410.837813 174.955723 
L 410.837813 171.123327 
L 411.274623 171.123327 
L 411.274623 167.290931 
L 417.276896 167.290931 
L 417.276896 163.458535 
L 417.364918 163.458535 
L 417.364918 159.626139 
L 417.668562 159.626139 
L 417.668562 155.793743 
L 418.66804 155.793743 
L 418.66804 151.961347 
L 420.248913 151.961347 
L 420.248913 148.12895 
L 421.508901 148.12895 
L 421.508901 144.296554 
L 424.254217 144.296554 
L 424.254217 140.464158 
L 426.330932 140.464158 
L 426.330932 136.631762 
L 440.036187 136.631762 
L 440.036187 132.799366 
L 440.036187 132.799366 
L 440.036187 132.799366 
L 460.8 132.799366 
" clip-path="url(#p246effd38b)" style="fill: none; stroke: #ff0000; stroke-width: 3; stroke-linecap: square"/>
   </g>
   <g id="line2d_125">
    <defs>
     <path id="m14c0f620be" d="M 0 7.5 
C 1.989023 7.5 3.896849 6.709753 5.303301 5.303301 
C 6.709753 3.896849 7.5 1.989023 7.5 0 
C 7.5 -1.989023 6.709753 -3.896849 5.303301 -5.303301 
C 3.896849 -6.709753 1.989023 -7.5 0 -7.5 
C -1.989023 -7.5 -3.896849 -6.709753 -5.303301 -5.303301 
C -6.709753 -3.896849 -7.5 -1.989023 -7.5 0 
C -7.5 1.989023 -6.709753 3.896849 -5.303301 5.303301 
C -3.896849 6.709753 -1.989023 7.5 0 7.5 
z
" style="stroke: #ff0000; stroke-width: 3"/>
    </defs>
    <g clip-path="url(#p246effd38b)">
     <use xlink:href="#m14c0f620be" x="359.506468" y="259.268436" style="fill-opacity: 0; stroke: #ff0000; stroke-width: 3"/>
     <use xlink:href="#m14c0f620be" x="398.202669" y="197.950099" style="fill-opacity: 0; stroke: #ff0000; stroke-width: 3"/>
     <use xlink:href="#m14c0f620be" x="440.036187" y="136.631762" style="fill-opacity: 0; stroke: #ff0000; stroke-width: 3"/>
     <use xlink:href="#m14c0f620be" x="440.036187" y="132.799366" style="fill-opacity: 0; stroke: #ff0000; stroke-width: 3"/>
    </g>
   </g>
   <g id="line2d_126">
    <path clip-path="url(#p246effd38b)" style="fill: none; stroke: #ff0000; stroke-width: 3; stroke-linecap: square"/>
   </g>
   <g id="line2d_127">
    <path d="M 441.797811 293.76 
L 441.797811 3.456 
" clip-path="url(#p246effd38b)" style="fill: none; stroke: #000000; stroke-width: 1.5; stroke-linecap: square"/>
    <defs>
     <path id="mfb3ad80d83" d="M -10 0 
L 10 0 
M 0 10 
L 0 -10 
" style="stroke: #000000; stroke-width: 3"/>
    </defs>
    <g clip-path="url(#p246effd38b)">
     <use xlink:href="#mfb3ad80d83" x="441.797811" y="293.76" style="stroke: #000000; stroke-width: 3"/>
     <use xlink:href="#mfb3ad80d83" x="441.797811" y="3.456" style="stroke: #000000; stroke-width: 3"/>
    </g>
   </g>
   <g id="line2d_128">
    <path d="M 441.796266 293.76 
L 441.796266 3.456 
" clip-path="url(#p246effd38b)" style="fill: none; stroke: #000000; stroke-width: 1.5; stroke-linecap: square"/>
    <defs>
     <path id="m0254fa0f2f" d="M 0 7.5 
C 1.989023 7.5 3.896849 6.709753 5.303301 5.303301 
C 6.709753 3.896849 7.5 1.989023 7.5 0 
C 7.5 -1.989023 6.709753 -3.896849 5.303301 -5.303301 
C 3.896849 -6.709753 1.989023 -7.5 0 -7.5 
C -1.989023 -7.5 -3.896849 -6.709753 -5.303301 -5.303301 
C -6.709753 -3.896849 -7.5 -1.989023 -7.5 0 
C -7.5 1.989023 -6.709753 3.896849 -5.303301 5.303301 
C -3.896849 6.709753 -1.989023 7.5 0 7.5 
z
" style="stroke: #000000; stroke-width: 3"/>
    </defs>
    <g clip-path="url(#p246effd38b)">
     <use xlink:href="#m0254fa0f2f" x="441.796266" y="293.76" style="fill-opacity: 0; stroke: #000000; stroke-width: 3"/>
     <use xlink:href="#m0254fa0f2f" x="441.796266" y="3.456" style="fill-opacity: 0; stroke: #000000; stroke-width: 3"/>
    </g>
   </g>
   <g id="patch_3">
    <path d="M 62.208 293.76 
L 62.208 3.456 
" style="fill: none; stroke: #000000; stroke-width: 0.8; stroke-linejoin: miter; stroke-linecap: square"/>
   </g>
   <g id="patch_4">
    <path d="M 460.8 293.76 
L 460.8 3.456 
" style="fill: none; stroke: #000000; stroke-width: 0.8; stroke-linejoin: miter; stroke-linecap: square"/>
   </g>
   <g id="patch_5">
    <path d="M 62.208 293.76 
L 460.8 293.76 
" style="fill: none; stroke: #000000; stroke-width: 0.8; stroke-linejoin: miter; stroke-linecap: square"/>
   </g>
   <g id="patch_6">
    <path d="M 62.208 3.456 
L 460.8 3.456 
" style="fill: none; stroke: #000000; stroke-width: 0.8; stroke-linejoin: miter; stroke-linecap: square"/>
   </g>
   <g id="text_12">
    <!-- f10-f14 -->
    <g transform="translate(225.405563 24.458955) scale(0.2 -0.2)">
     <defs>
      <path id="DejaVuSans-2d" d="M 313 2009 
L 1997 2009 
L 1997 1497 
L 313 1497 
L 313 2009 
z
" transform="scale(0.015625)"/>
     </defs>
     <use xlink:href="#DejaVuSans-66"/>
     <use xlink:href="#DejaVuSans-31" x="35.205078"/>
     <use xlink:href="#DejaVuSans-30" x="98.828125"/>
     <use xlink:href="#DejaVuSans-2d" x="162.451172"/>
     <use xlink:href="#DejaVuSans-66" x="198.535156"/>
     <use xlink:href="#DejaVuSans-31" x="233.740234"/>
     <use xlink:href="#DejaVuSans-34" x="297.363281"/>
    </g>
   </g>
   <g id="text_13">
    <!-- absolute targets -->
    <g transform="translate(62.208 609.932673) scale(0.14 -0.14)">
     <defs>
      <path id="DejaVuSans-62" d="M 3116 1747 
Q 3116 2381 2855 2742 
Q 2594 3103 2138 3103 
Q 1681 3103 1420 2742 
Q 1159 2381 1159 1747 
Q 1159 1113 1420 752 
Q 1681 391 2138 391 
Q 2594 391 2855 752 
Q 3116 1113 3116 1747 
z
M 1159 2969 
Q 1341 3281 1617 3432 
Q 1894 3584 2278 3584 
Q 2916 3584 3314 3078 
Q 3713 2572 3713 1747 
Q 3713 922 3314 415 
Q 2916 -91 2278 -91 
Q 1894 -91 1617 61 
Q 1341 213 1159 525 
L 1159 0 
L 581 0 
L 581 4863 
L 1159 4863 
L 1159 2969 
z
" transform="scale(0.015625)"/>
      <path id="DejaVuSans-75" d="M 544 1381 
L 544 3500 
L 1119 3500 
L 1119 1403 
Q 1119 906 1312 657 
Q 1506 409 1894 409 
Q 2359 409 2629 706 
Q 2900 1003 2900 1516 
L 2900 3500 
L 3475 3500 
L 3475 0 
L 2900 0 
L 2900 538 
Q 2691 219 2414 64 
Q 2138 -91 1772 -91 
Q 1169 -91 856 284 
Q 544 659 544 1381 
z
M 1991 3584 
L 1991 3584 
z
" transform="scale(0.015625)"/>
      <path id="DejaVuSans-65" d="M 3597 1894 
L 3597 1613 
L 953 1613 
Q 991 1019 1311 708 
Q 1631 397 2203 397 
Q 2534 397 2845 478 
Q 3156 559 3463 722 
L 3463 178 
Q 3153 47 2828 -22 
Q 2503 -91 2169 -91 
Q 1331 -91 842 396 
Q 353 884 353 1716 
Q 353 2575 817 3079 
Q 1281 3584 2069 3584 
Q 2775 3584 3186 3129 
Q 3597 2675 3597 1894 
z
M 3022 2063 
Q 3016 2534 2758 2815 
Q 2500 3097 2075 3097 
Q 1594 3097 1305 2825 
Q 1016 2553 972 2059 
L 3022 2063 
z
" transform="scale(0.015625)"/>
     </defs>
     <use xlink:href="#DejaVuSans-61"/>
     <use xlink:href="#DejaVuSans-62" x="61.279297"/>
     <use xlink:href="#DejaVuSans-73" x="124.755859"/>
     <use xlink:href="#DejaVuSans-6f" x="176.855469"/>
     <use xlink:href="#DejaVuSans-6c" x="238.037109"/>
     <use xlink:href="#DejaVuSans-75" x="265.820312"/>
     <use xlink:href="#DejaVuSans-74" x="329.199219"/>
     <use xlink:href="#DejaVuSans-65" x="368.408203"/>
     <use xlink:href="#DejaVuSans-20" x="429.931641"/>
     <use xlink:href="#DejaVuSans-74" x="461.71875"/>
     <use xlink:href="#DejaVuSans-61" x="500.927734"/>
     <use xlink:href="#DejaVuSans-72" x="562.207031"/>
     <use xlink:href="#DejaVuSans-67" x="601.570312"/>
     <use xlink:href="#DejaVuSans-65" x="665.046875"/>
     <use xlink:href="#DejaVuSans-74" x="726.570312"/>
     <use xlink:href="#DejaVuSans-73" x="765.779297"/>
    </g>
   </g>
   <g id="text_14">
    <!-- v2.6.3 -->
    <g style="fill: #808080" transform="translate(245.82275 288.777272) scale(0.1 -0.1)">
     <defs>
      <path id="DejaVuSans-33" d="M 2597 2516 
Q 3050 2419 3304 2112 
Q 3559 1806 3559 1356 
Q 3559 666 3084 287 
Q 2609 -91 1734 -91 
Q 1441 -91 1130 -33 
Q 819 25 488 141 
L 488 750 
Q 750 597 1062 519 
Q 1375 441 1716 441 
Q 2309 441 2620 675 
Q 2931 909 2931 1356 
Q 2931 1769 2642 2001 
Q 2353 2234 1838 2234 
L 1294 2234 
L 1294 2753 
L 1863 2753 
Q 2328 2753 2575 2939 
Q 2822 3125 2822 3475 
Q 2822 3834 2567 4026 
Q 2313 4219 1838 4219 
Q 1578 4219 1281 4162 
Q 984 4106 628 3988 
L 628 4550 
Q 988 4650 1302 4700 
Q 1616 4750 1894 4750 
Q 2613 4750 3031 4423 
Q 3450 4097 3450 3541 
Q 3450 3153 3228 2886 
Q 3006 2619 2597 2516 
z
" transform="scale(0.015625)"/>
     </defs>
     <use xlink:href="#DejaVuSans-76"/>
     <use xlink:href="#DejaVuSans-32" x="59.179688"/>
     <use xlink:href="#DejaVuSans-2e" x="122.802734"/>
     <use xlink:href="#DejaVuSans-36" x="154.589844"/>
     <use xlink:href="#DejaVuSans-2e" x="218.212891"/>
     <use xlink:href="#DejaVuSans-33" x="250"/>
    </g>
   </g>
   <g id="legend_1">
    <g id="patch_7">
     <path d="M 76.208 136.881 
L 160.148625 136.881 
Q 164.148625 136.881 164.148625 132.881 
L 164.148625 17.456 
Q 164.148625 13.456 160.148625 13.456 
L 76.208 13.456 
Q 72.208 13.456 72.208 17.456 
L 72.208 132.881 
Q 72.208 136.881 76.208 136.881 
z
" style="fill: #ffffff; opacity: 0.2; stroke: #cccccc; stroke-linejoin: miter"/>
    </g>
    <g id="line2d_129">
     <path d="M 80.208 29.652875 
L 80.208 29.652875 
L 100.208 29.652875 
L 100.208 29.652875 
L 120.208 29.652875 
" style="fill: none; stroke: #000000; stroke-width: 1.5; stroke-linecap: square"/>
    </g>
    <g id="text_15">
     <!-- 1 -->
     <g transform="translate(136.208 36.652875) scale(0.2 -0.2)">
      <use xlink:href="#DejaVuSans-31"/>
     </g>
    </g>
    <g id="line2d_130">
     <path d="M 80.208 59.009125 
L 80.208 59.009125 
L 100.208 59.009125 
L 100.208 59.009125 
L 120.208 59.009125 
" style="fill: none; stroke: #00bfbf; stroke-width: 1.5; stroke-linecap: square"/>
    </g>
    <g id="text_16">
     <!-- -1 -->
     <g transform="translate(136.208 66.009125) scale(0.2 -0.2)">
      <use xlink:href="#DejaVuSans-2d"/>
      <use xlink:href="#DejaVuSans-31" x="36.083984"/>
     </g>
    </g>
    <g id="line2d_131">
     <path d="M 80.208 88.365375 
L 80.208 88.365375 
L 100.208 88.365375 
L 100.208 88.365375 
L 120.208 88.365375 
" style="fill: none; stroke: #bf00bf; stroke-width: 1.5; stroke-linecap: square"/>
    </g>
    <g id="text_17">
     <!-- -4 -->
     <g transform="translate(136.208 95.365375) scale(0.2 -0.2)">
      <use xlink:href="#DejaVuSans-2d"/>
      <use xlink:href="#DejaVuSans-34" x="36.083984"/>
     </g>
    </g>
    <g id="line2d_132">
     <path d="M 80.208 117.721625 
L 80.208 117.721625 
L 100.208 117.721625 
L 100.208 117.721625 
L 120.208 117.721625 
" style="fill: none; stroke: #ff0000; stroke-width: 3; stroke-linecap: square"/>
    </g>
    <g id="text_18">
     <!-- -8 -->
     <g transform="translate(136.208 124.721625) scale(0.2 -0.2)">
      <use xlink:href="#DejaVuSans-2d"/>
      <use xlink:href="#DejaVuSans-38" x="36.083984"/>
     </g>
    </g>
   </g>
  </g>
 </g>
 <defs>
  <clipPath id="p246effd38b">
   <rect x="62.208" y="3.456" width="398.592" height="290.304"/>
  </clipPath>
 </defs>
</svg>
