<?xml version="1.0" encoding="utf-8" standalone="no"?>
<!DOCTYPE svg PUBLIC "-//W3C//DTD SVG 1.1//EN"
  "http://www.w3.org/Graphics/SVG/1.1/DTD/svg11.dtd">
<svg xmlns:xlink="http://www.w3.org/1999/xlink" width="460.8pt" height="345.6pt" viewBox="0 0 460.8 345.6" xmlns="http://www.w3.org/2000/svg" version="1.1">
 <metadata>
  <rdf:RDF xmlns:dc="http://purl.org/dc/elements/1.1/" xmlns:cc="http://creativecommons.org/ns#" xmlns:rdf="http://www.w3.org/1999/02/22-rdf-syntax-ns#">
   <cc:Work>
    <dc:type rdf:resource="http://purl.org/dc/dcmitype/StillImage"/>
    <dc:date>2024-06-05T13:53:33.017779</dc:date>
    <dc:format>image/svg+xml</dc:format>
    <dc:creator>
     <cc:Agent>
      <dc:title>Matplotlib v3.7.1, https://matplotlib.org/</dc:title>
     </cc:Agent>
    </dc:creator>
   </cc:Work>
  </rdf:RDF>
 </metadata>
 <defs>
  <style type="text/css">*{stroke-linejoin: round; stroke-linecap: butt}</style>
 </defs>
 <g id="figure_1">
  <g id="patch_1">
   <path d="M 0 345.6 
L 460.8 345.6 
L 460.8 0 
L 0 0 
z
" style="fill: #ffffff"/>
  </g>
  <g id="axes_1">
   <g id="patch_2">
    <path d="M 62.208 293.76 
L 460.8 293.76 
L 460.8 3.456 
L 62.208 3.456 
z
" style="fill: #ffffff"/>
   </g>
   <g id="line2d_1"/>
   <g id="line2d_2"/>
   <g id="line2d_3"/>
   <g id="line2d_4"/>
   <g id="line2d_5"/>
   <g id="line2d_6"/>
   <g id="line2d_7">
    <path clip-path="url(#pa2aa321fef)" style="fill: none; stroke: #f5deb3; stroke-width: 1.5; stroke-linecap: square"/>
   </g>
   <g id="line2d_8">
    <path d="M 444.415124 293.76 
L 444.415124 289.927604 
L 444.743334 289.927604 
L 444.743334 286.095208 
L 461.8 286.095208 
" clip-path="url(#pa2aa321fef)" style="fill: none; stroke: #f5deb3; stroke-width: 1.5; stroke-linecap: square"/>
   </g>
   <g id="line2d_9">
    <path d="M 351.070743 293.76 
L 351.070743 289.927604 
L 353.011441 289.927604 
L 353.011441 286.095208 
L 356.167642 286.095208 
L 356.167642 282.262812 
L 377.495952 282.262812 
L 377.495952 278.430416 
L 378.253234 278.430416 
L 378.253234 274.59802 
L 378.542741 274.59802 
L 378.542741 270.765624 
L 381.214938 270.765624 
L 381.214938 266.933228 
L 382.168937 266.933228 
L 382.168937 263.100832 
L 382.752652 263.100832 
L 382.859464 255.43604 
L 382.981441 255.43604 
L 382.981441 251.603644 
L 383.494584 251.603644 
L 383.494584 247.771248 
L 383.907592 247.771248 
L 383.907592 243.938851 
L 384.238372 243.938851 
L 384.238372 240.106455 
L 384.787123 240.106455 
L 384.787123 236.274059 
L 385.301105 236.274059 
L 385.301105 232.441663 
L 386.324466 232.441663 
L 386.324466 228.609267 
L 390.055744 228.609267 
L 390.055744 224.776871 
L 402.56009 224.776871 
L 402.56009 220.944475 
L 405.721115 220.944475 
L 405.721115 217.112079 
L 408.54814 217.112079 
L 408.54814 213.279683 
L 413.291589 213.279683 
L 413.291589 209.447287 
L 413.948148 209.447287 
L 413.948148 205.614891 
L 414.09273 205.614891 
L 414.09273 201.782495 
L 416.273122 201.782495 
L 416.368605 194.117703 
L 417.707765 194.117703 
L 417.708504 186.452911 
L 417.890529 186.452911 
L 417.890529 182.620515 
L 418.206237 182.620515 
L 418.209886 174.955723 
L 419.840762 174.955723 
L 419.931134 167.290931 
L 420.60509 167.290931 
L 420.60509 163.458535 
L 421.647179 163.458535 
L 421.647179 159.626139 
L 422.147565 159.626139 
L 422.147565 155.793743 
L 422.856307 155.793743 
L 422.953967 144.296554 
L 424.286117 144.296554 
L 424.286117 140.464158 
L 425.225411 140.464158 
L 425.225411 136.631762 
L 429.577138 136.631762 
L 429.577138 132.799366 
L 430.974099 132.799366 
L 430.974099 128.96697 
L 431.94326 128.96697 
L 431.94326 125.134574 
L 432.703737 125.134574 
L 432.703737 121.302178 
L 434.0961 121.302178 
L 434.0961 117.469782 
L 434.357775 117.469782 
L 434.357775 113.637386 
L 435.43911 113.637386 
L 435.43911 109.80499 
L 436.120779 109.80499 
L 436.120779 105.972594 
L 446.823089 105.972594 
L 446.823089 102.140198 
L 448.624359 102.140198 
L 448.624359 98.307802 
L 454.638419 98.307802 
L 454.711301 90.64301 
L 455.821283 90.64301 
L 455.87953 82.978218 
L 456.229901 82.978218 
L 456.229901 79.145822 
L 456.816178 79.145822 
L 456.834187 71.48103 
L 459.445544 71.48103 
L 459.445544 67.648634 
L 461.8 67.648634 
L 461.8 67.648634 
" clip-path="url(#pa2aa321fef)" style="fill: none; stroke: #f5deb3; stroke-width: 1.5; stroke-linecap: square"/>
   </g>
   <g id="line2d_10"/>
   <g id="line2d_11"/>
   <g id="line2d_12"/>
   <g id="line2d_13"/>
   <g id="line2d_14"/>
   <g id="line2d_15"/>
   <g id="line2d_16"/>
   <g id="line2d_17">
    <path d="M 444.657398 293.76 
L 444.657398 289.927604 
L 450.228917 289.927604 
L 450.228917 286.095208 
L 451.369376 286.095208 
L 451.369376 282.262812 
L 452.805008 282.262812 
L 452.805008 278.430416 
L 453.719427 278.430416 
L 453.719427 274.59802 
L 454.249246 274.59802 
L 454.249246 270.765624 
L 454.477744 270.765624 
L 454.477744 266.933228 
L 456.297419 266.933228 
L 456.297419 263.100832 
L 456.693337 263.100832 
L 456.693337 259.268436 
L 458.485675 259.268436 
L 458.485675 255.43604 
L 458.659383 255.43604 
L 458.659383 251.603644 
L 459.440984 251.603644 
L 459.440984 247.771248 
L 459.887909 247.771248 
L 459.887909 243.938851 
L 460.455868 243.938851 
L 460.455868 240.106455 
L 460.801231 240.106455 
L 460.801231 236.274059 
L 460.87514 236.274059 
L 460.87514 232.441663 
L 461.8 232.441663 
" clip-path="url(#pa2aa321fef)" style="fill: none; stroke: #f5deb3; stroke-width: 1.5; stroke-linecap: square"/>
   </g>
   <g id="line2d_18"/>
   <g id="line2d_19"/>
   <g id="line2d_20"/>
   <g id="line2d_21"/>
   <g id="line2d_22"/>
   <g id="line2d_23"/>
   <g id="line2d_24">
    <path d="M 372.355658 293.76 
L 372.355658 289.927604 
L 419.814805 289.927604 
L 419.814805 286.095208 
L 420.726078 286.095208 
L 420.726078 282.262812 
L 424.433183 282.262812 
L 424.433183 278.430416 
L 425.577157 278.430416 
L 425.577157 274.59802 
L 425.759201 274.59802 
L 425.759201 270.765624 
L 429.96185 270.765624 
L 429.96185 266.933228 
L 432.94989 266.933228 
L 432.983042 259.268436 
L 434.432164 259.268436 
L 434.432164 255.43604 
L 437.006004 255.43604 
L 437.006004 251.603644 
L 437.405425 251.603644 
L 437.405425 247.771248 
L 439.903168 247.771248 
L 439.903168 243.938851 
L 441.213494 243.938851 
L 441.213494 240.106455 
L 441.440831 240.106455 
L 441.440831 236.274059 
L 442.314675 236.274059 
L 442.344339 228.609267 
L 442.903543 228.609267 
L 442.903543 224.776871 
L 443.25986 224.776871 
L 443.25986 220.944475 
L 443.814699 220.944475 
L 443.814699 217.112079 
L 444.350947 217.112079 
L 444.428643 209.447287 
L 444.507734 209.447287 
L 444.507734 205.614891 
L 444.685424 205.614891 
L 444.685424 201.782495 
L 445.61137 201.782495 
L 445.61137 197.950099 
L 445.902289 197.950099 
L 446.010578 190.285307 
L 446.211884 190.285307 
L 446.211884 186.452911 
L 446.569796 186.452911 
L 446.569796 182.620515 
L 447.033165 182.620515 
L 447.033165 178.788119 
L 447.776135 178.788119 
L 447.798916 171.123327 
L 448.048679 171.123327 
L 448.048679 167.290931 
L 448.288147 167.290931 
L 448.288147 163.458535 
L 450.294618 163.458535 
L 450.305669 155.793743 
L 450.856487 155.793743 
L 450.856487 151.961347 
L 452.794607 151.961347 
L 452.809735 144.296554 
L 461.8 144.296554 
L 461.8 144.296554 
" clip-path="url(#pa2aa321fef)" style="fill: none; stroke: #f5deb3; stroke-width: 1.5; stroke-linecap: square"/>
   </g>
   <g id="line2d_25">
    <path d="M 458.692452 293.76 
L 458.692452 289.927604 
L 461.8 289.927604 
" clip-path="url(#pa2aa321fef)" style="fill: none; stroke: #f5deb3; stroke-width: 1.5; stroke-linecap: square"/>
   </g>
   <g id="line2d_26">
    <path clip-path="url(#pa2aa321fef)" style="fill: none; stroke: #f5deb3; stroke-width: 1.5; stroke-linecap: square"/>
   </g>
   <g id="line2d_27"/>
   <g id="line2d_28">
    <path d="M 406.940764 293.76 
L 406.940764 289.927604 
L 423.957412 289.927604 
L 423.957412 286.095208 
L 431.549248 286.095208 
L 431.549248 282.262812 
L 449.724302 282.262812 
L 449.724302 278.430416 
L 453.312097 278.430416 
L 453.312097 274.59802 
L 461.8 274.59802 
" clip-path="url(#pa2aa321fef)" style="fill: none; stroke: #f5deb3; stroke-width: 1.5; stroke-linecap: square"/>
   </g>
   <g id="line2d_29"/>
   <g id="line2d_30"/>
   <g id="matplotlib.axis_1">
    <g id="xtick_1">
     <g id="line2d_31">
      <path d="M 62.208 293.76 
L 62.208 3.456 
" clip-path="url(#pa2aa321fef)" style="fill: none; stroke: #b0b0b0; stroke-width: 0.8; stroke-linecap: square"/>
     </g>
     <g id="line2d_32">
      <defs>
       <path id="mb48bb686a5" d="M 0 0 
L 0 3.5 
" style="stroke: #000000; stroke-width: 0.8"/>
      </defs>
      <g>
       <use xlink:href="#mb48bb686a5" x="62.208" y="293.76" style="stroke: #000000; stroke-width: 0.8"/>
      </g>
     </g>
     <g id="text_1">
      <!-- 0 -->
      <g transform="translate(55.8455 315.956875) scale(0.2 -0.2)">
       <defs>
        <path id="DejaVuSans-30" d="M 2034 4250 
Q 1547 4250 1301 3770 
Q 1056 3291 1056 2328 
Q 1056 1369 1301 889 
Q 1547 409 2034 409 
Q 2525 409 2770 889 
Q 3016 1369 3016 2328 
Q 3016 3291 2770 3770 
Q 2525 4250 2034 4250 
z
M 2034 4750 
Q 2819 4750 3233 4129 
Q 3647 3509 3647 2328 
Q 3647 1150 3233 529 
Q 2819 -91 2034 -91 
Q 1250 -91 836 529 
Q 422 1150 422 2328 
Q 422 3509 836 4129 
Q 1250 4750 2034 4750 
z
" transform="scale(0.015625)"/>
       </defs>
       <use xlink:href="#DejaVuSans-30"/>
      </g>
     </g>
    </g>
    <g id="xtick_2">
     <g id="line2d_33">
      <path d="M 251.980568 293.76 
L 251.980568 3.456 
" clip-path="url(#pa2aa321fef)" style="fill: none; stroke: #b0b0b0; stroke-width: 0.8; stroke-linecap: square"/>
     </g>
     <g id="line2d_34">
      <g>
       <use xlink:href="#mb48bb686a5" x="251.980568" y="293.76" style="stroke: #000000; stroke-width: 0.8"/>
      </g>
     </g>
     <g id="text_2">
      <!-- 2 -->
      <g transform="translate(245.618068 315.956875) scale(0.2 -0.2)">
       <defs>
        <path id="DejaVuSans-32" d="M 1228 531 
L 3431 531 
L 3431 0 
L 469 0 
L 469 531 
Q 828 903 1448 1529 
Q 2069 2156 2228 2338 
Q 2531 2678 2651 2914 
Q 2772 3150 2772 3378 
Q 2772 3750 2511 3984 
Q 2250 4219 1831 4219 
Q 1534 4219 1204 4116 
Q 875 4013 500 3803 
L 500 4441 
Q 881 4594 1212 4672 
Q 1544 4750 1819 4750 
Q 2544 4750 2975 4387 
Q 3406 4025 3406 3419 
Q 3406 3131 3298 2873 
Q 3191 2616 2906 2266 
Q 2828 2175 2409 1742 
Q 1991 1309 1228 531 
z
" transform="scale(0.015625)"/>
       </defs>
       <use xlink:href="#DejaVuSans-32"/>
      </g>
     </g>
    </g>
    <g id="xtick_3">
     <g id="line2d_35">
      <path d="M 441.753136 293.76 
L 441.753136 3.456 
" clip-path="url(#pa2aa321fef)" style="fill: none; stroke: #b0b0b0; stroke-width: 0.8; stroke-linecap: square"/>
     </g>
     <g id="line2d_36">
      <g>
       <use xlink:href="#mb48bb686a5" x="441.753136" y="293.76" style="stroke: #000000; stroke-width: 0.8"/>
      </g>
     </g>
     <g id="text_3">
      <!-- 4 -->
      <g transform="translate(435.390636 315.956875) scale(0.2 -0.2)">
       <defs>
        <path id="DejaVuSans-34" d="M 2419 4116 
L 825 1625 
L 2419 1625 
L 2419 4116 
z
M 2253 4666 
L 3047 4666 
L 3047 1625 
L 3713 1625 
L 3713 1100 
L 3047 1100 
L 3047 0 
L 2419 0 
L 2419 1100 
L 313 1100 
L 313 1709 
L 2253 4666 
z
" transform="scale(0.015625)"/>
       </defs>
       <use xlink:href="#DejaVuSans-34"/>
      </g>
     </g>
    </g>
    <g id="xtick_4">
     <g id="line2d_37">
      <path d="M 90.771618 293.76 
L 90.771618 3.456 
" clip-path="url(#pa2aa321fef)" style="fill: none; stroke: #b0b0b0; stroke-width: 0.8; stroke-linecap: square"/>
     </g>
     <g id="line2d_38">
      <defs>
       <path id="m8a6a0ccd0f" d="M 0 0 
L 0 2 
" style="stroke: #000000; stroke-width: 0.6"/>
      </defs>
      <g>
       <use xlink:href="#m8a6a0ccd0f" x="90.771618" y="293.76" style="stroke: #000000; stroke-width: 0.6"/>
      </g>
     </g>
    </g>
    <g id="xtick_5">
     <g id="line2d_39">
      <path d="M 107.480263 293.76 
L 107.480263 3.456 
" clip-path="url(#pa2aa321fef)" style="fill: none; stroke: #b0b0b0; stroke-width: 0.8; stroke-linecap: square"/>
     </g>
     <g id="line2d_40">
      <g>
       <use xlink:href="#m8a6a0ccd0f" x="107.480263" y="293.76" style="stroke: #000000; stroke-width: 0.6"/>
      </g>
     </g>
    </g>
    <g id="xtick_6">
     <g id="line2d_41">
      <path d="M 119.335235 293.76 
L 119.335235 3.456 
" clip-path="url(#pa2aa321fef)" style="fill: none; stroke: #b0b0b0; stroke-width: 0.8; stroke-linecap: square"/>
     </g>
     <g id="line2d_42">
      <g>
       <use xlink:href="#m8a6a0ccd0f" x="119.335235" y="293.76" style="stroke: #000000; stroke-width: 0.6"/>
      </g>
     </g>
    </g>
    <g id="xtick_7">
     <g id="line2d_43">
      <path d="M 128.530666 293.76 
L 128.530666 3.456 
" clip-path="url(#pa2aa321fef)" style="fill: none; stroke: #b0b0b0; stroke-width: 0.8; stroke-linecap: square"/>
     </g>
     <g id="line2d_44">
      <g>
       <use xlink:href="#m8a6a0ccd0f" x="128.530666" y="293.76" style="stroke: #000000; stroke-width: 0.6"/>
      </g>
     </g>
    </g>
    <g id="xtick_8">
     <g id="line2d_45">
      <path d="M 136.043881 293.76 
L 136.043881 3.456 
" clip-path="url(#pa2aa321fef)" style="fill: none; stroke: #b0b0b0; stroke-width: 0.8; stroke-linecap: square"/>
     </g>
     <g id="line2d_46">
      <g>
       <use xlink:href="#m8a6a0ccd0f" x="136.043881" y="293.76" style="stroke: #000000; stroke-width: 0.6"/>
      </g>
     </g>
    </g>
    <g id="xtick_9">
     <g id="line2d_47">
      <path d="M 142.396213 293.76 
L 142.396213 3.456 
" clip-path="url(#pa2aa321fef)" style="fill: none; stroke: #b0b0b0; stroke-width: 0.8; stroke-linecap: square"/>
     </g>
     <g id="line2d_48">
      <g>
       <use xlink:href="#m8a6a0ccd0f" x="142.396213" y="293.76" style="stroke: #000000; stroke-width: 0.6"/>
      </g>
     </g>
    </g>
    <g id="xtick_10">
     <g id="line2d_49">
      <path d="M 147.898853 293.76 
L 147.898853 3.456 
" clip-path="url(#pa2aa321fef)" style="fill: none; stroke: #b0b0b0; stroke-width: 0.8; stroke-linecap: square"/>
     </g>
     <g id="line2d_50">
      <g>
       <use xlink:href="#m8a6a0ccd0f" x="147.898853" y="293.76" style="stroke: #000000; stroke-width: 0.6"/>
      </g>
     </g>
    </g>
    <g id="xtick_11">
     <g id="line2d_51">
      <path d="M 152.752526 293.76 
L 152.752526 3.456 
" clip-path="url(#pa2aa321fef)" style="fill: none; stroke: #b0b0b0; stroke-width: 0.8; stroke-linecap: square"/>
     </g>
     <g id="line2d_52">
      <g>
       <use xlink:href="#m8a6a0ccd0f" x="152.752526" y="293.76" style="stroke: #000000; stroke-width: 0.6"/>
      </g>
     </g>
    </g>
    <g id="xtick_12">
     <g id="line2d_53">
      <path d="M 185.657902 293.76 
L 185.657902 3.456 
" clip-path="url(#pa2aa321fef)" style="fill: none; stroke: #b0b0b0; stroke-width: 0.8; stroke-linecap: square"/>
     </g>
     <g id="line2d_54">
      <g>
       <use xlink:href="#m8a6a0ccd0f" x="185.657902" y="293.76" style="stroke: #000000; stroke-width: 0.6"/>
      </g>
     </g>
    </g>
    <g id="xtick_13">
     <g id="line2d_55">
      <path d="M 202.366547 293.76 
L 202.366547 3.456 
" clip-path="url(#pa2aa321fef)" style="fill: none; stroke: #b0b0b0; stroke-width: 0.8; stroke-linecap: square"/>
     </g>
     <g id="line2d_56">
      <g>
       <use xlink:href="#m8a6a0ccd0f" x="202.366547" y="293.76" style="stroke: #000000; stroke-width: 0.6"/>
      </g>
     </g>
    </g>
    <g id="xtick_14">
     <g id="line2d_57">
      <path d="M 214.221519 293.76 
L 214.221519 3.456 
" clip-path="url(#pa2aa321fef)" style="fill: none; stroke: #b0b0b0; stroke-width: 0.8; stroke-linecap: square"/>
     </g>
     <g id="line2d_58">
      <g>
       <use xlink:href="#m8a6a0ccd0f" x="214.221519" y="293.76" style="stroke: #000000; stroke-width: 0.6"/>
      </g>
     </g>
    </g>
    <g id="xtick_15">
     <g id="line2d_59">
      <path d="M 223.41695 293.76 
L 223.41695 3.456 
" clip-path="url(#pa2aa321fef)" style="fill: none; stroke: #b0b0b0; stroke-width: 0.8; stroke-linecap: square"/>
     </g>
     <g id="line2d_60">
      <g>
       <use xlink:href="#m8a6a0ccd0f" x="223.41695" y="293.76" style="stroke: #000000; stroke-width: 0.6"/>
      </g>
     </g>
    </g>
    <g id="xtick_16">
     <g id="line2d_61">
      <path d="M 230.930165 293.76 
L 230.930165 3.456 
" clip-path="url(#pa2aa321fef)" style="fill: none; stroke: #b0b0b0; stroke-width: 0.8; stroke-linecap: square"/>
     </g>
     <g id="line2d_62">
      <g>
       <use xlink:href="#m8a6a0ccd0f" x="230.930165" y="293.76" style="stroke: #000000; stroke-width: 0.6"/>
      </g>
     </g>
    </g>
    <g id="xtick_17">
     <g id="line2d_63">
      <path d="M 237.282497 293.76 
L 237.282497 3.456 
" clip-path="url(#pa2aa321fef)" style="fill: none; stroke: #b0b0b0; stroke-width: 0.8; stroke-linecap: square"/>
     </g>
     <g id="line2d_64">
      <g>
       <use xlink:href="#m8a6a0ccd0f" x="237.282497" y="293.76" style="stroke: #000000; stroke-width: 0.6"/>
      </g>
     </g>
    </g>
    <g id="xtick_18">
     <g id="line2d_65">
      <path d="M 242.785137 293.76 
L 242.785137 3.456 
" clip-path="url(#pa2aa321fef)" style="fill: none; stroke: #b0b0b0; stroke-width: 0.8; stroke-linecap: square"/>
     </g>
     <g id="line2d_66">
      <g>
       <use xlink:href="#m8a6a0ccd0f" x="242.785137" y="293.76" style="stroke: #000000; stroke-width: 0.6"/>
      </g>
     </g>
    </g>
    <g id="xtick_19">
     <g id="line2d_67">
      <path d="M 247.63881 293.76 
L 247.63881 3.456 
" clip-path="url(#pa2aa321fef)" style="fill: none; stroke: #b0b0b0; stroke-width: 0.8; stroke-linecap: square"/>
     </g>
     <g id="line2d_68">
      <g>
       <use xlink:href="#m8a6a0ccd0f" x="247.63881" y="293.76" style="stroke: #000000; stroke-width: 0.6"/>
      </g>
     </g>
    </g>
    <g id="xtick_20">
     <g id="line2d_69">
      <path d="M 280.544186 293.76 
L 280.544186 3.456 
" clip-path="url(#pa2aa321fef)" style="fill: none; stroke: #b0b0b0; stroke-width: 0.8; stroke-linecap: square"/>
     </g>
     <g id="line2d_70">
      <g>
       <use xlink:href="#m8a6a0ccd0f" x="280.544186" y="293.76" style="stroke: #000000; stroke-width: 0.6"/>
      </g>
     </g>
    </g>
    <g id="xtick_21">
     <g id="line2d_71">
      <path d="M 297.252831 293.76 
L 297.252831 3.456 
" clip-path="url(#pa2aa321fef)" style="fill: none; stroke: #b0b0b0; stroke-width: 0.8; stroke-linecap: square"/>
     </g>
     <g id="line2d_72">
      <g>
       <use xlink:href="#m8a6a0ccd0f" x="297.252831" y="293.76" style="stroke: #000000; stroke-width: 0.6"/>
      </g>
     </g>
    </g>
    <g id="xtick_22">
     <g id="line2d_73">
      <path d="M 309.107803 293.76 
L 309.107803 3.456 
" clip-path="url(#pa2aa321fef)" style="fill: none; stroke: #b0b0b0; stroke-width: 0.8; stroke-linecap: square"/>
     </g>
     <g id="line2d_74">
      <g>
       <use xlink:href="#m8a6a0ccd0f" x="309.107803" y="293.76" style="stroke: #000000; stroke-width: 0.6"/>
      </g>
     </g>
    </g>
    <g id="xtick_23">
     <g id="line2d_75">
      <path d="M 318.303234 293.76 
L 318.303234 3.456 
" clip-path="url(#pa2aa321fef)" style="fill: none; stroke: #b0b0b0; stroke-width: 0.8; stroke-linecap: square"/>
     </g>
     <g id="line2d_76">
      <g>
       <use xlink:href="#m8a6a0ccd0f" x="318.303234" y="293.76" style="stroke: #000000; stroke-width: 0.6"/>
      </g>
     </g>
    </g>
    <g id="xtick_24">
     <g id="line2d_77">
      <path d="M 325.816449 293.76 
L 325.816449 3.456 
" clip-path="url(#pa2aa321fef)" style="fill: none; stroke: #b0b0b0; stroke-width: 0.8; stroke-linecap: square"/>
     </g>
     <g id="line2d_78">
      <g>
       <use xlink:href="#m8a6a0ccd0f" x="325.816449" y="293.76" style="stroke: #000000; stroke-width: 0.6"/>
      </g>
     </g>
    </g>
    <g id="xtick_25">
     <g id="line2d_79">
      <path d="M 332.168781 293.76 
L 332.168781 3.456 
" clip-path="url(#pa2aa321fef)" style="fill: none; stroke: #b0b0b0; stroke-width: 0.8; stroke-linecap: square"/>
     </g>
     <g id="line2d_80">
      <g>
       <use xlink:href="#m8a6a0ccd0f" x="332.168781" y="293.76" style="stroke: #000000; stroke-width: 0.6"/>
      </g>
     </g>
    </g>
    <g id="xtick_26">
     <g id="line2d_81">
      <path d="M 337.671421 293.76 
L 337.671421 3.456 
" clip-path="url(#pa2aa321fef)" style="fill: none; stroke: #b0b0b0; stroke-width: 0.8; stroke-linecap: square"/>
     </g>
     <g id="line2d_82">
      <g>
       <use xlink:href="#m8a6a0ccd0f" x="337.671421" y="293.76" style="stroke: #000000; stroke-width: 0.6"/>
      </g>
     </g>
    </g>
    <g id="xtick_27">
     <g id="line2d_83">
      <path d="M 342.525094 293.76 
L 342.525094 3.456 
" clip-path="url(#pa2aa321fef)" style="fill: none; stroke: #b0b0b0; stroke-width: 0.8; stroke-linecap: square"/>
     </g>
     <g id="line2d_84">
      <g>
       <use xlink:href="#m8a6a0ccd0f" x="342.525094" y="293.76" style="stroke: #000000; stroke-width: 0.6"/>
      </g>
     </g>
    </g>
    <g id="xtick_28">
     <g id="line2d_85">
      <path d="M 375.43047 293.76 
L 375.43047 3.456 
" clip-path="url(#pa2aa321fef)" style="fill: none; stroke: #b0b0b0; stroke-width: 0.8; stroke-linecap: square"/>
     </g>
     <g id="line2d_86">
      <g>
       <use xlink:href="#m8a6a0ccd0f" x="375.43047" y="293.76" style="stroke: #000000; stroke-width: 0.6"/>
      </g>
     </g>
    </g>
    <g id="xtick_29">
     <g id="line2d_87">
      <path d="M 392.139115 293.76 
L 392.139115 3.456 
" clip-path="url(#pa2aa321fef)" style="fill: none; stroke: #b0b0b0; stroke-width: 0.8; stroke-linecap: square"/>
     </g>
     <g id="line2d_88">
      <g>
       <use xlink:href="#m8a6a0ccd0f" x="392.139115" y="293.76" style="stroke: #000000; stroke-width: 0.6"/>
      </g>
     </g>
    </g>
    <g id="xtick_30">
     <g id="line2d_89">
      <path d="M 403.994087 293.76 
L 403.994087 3.456 
" clip-path="url(#pa2aa321fef)" style="fill: none; stroke: #b0b0b0; stroke-width: 0.8; stroke-linecap: square"/>
     </g>
     <g id="line2d_90">
      <g>
       <use xlink:href="#m8a6a0ccd0f" x="403.994087" y="293.76" style="stroke: #000000; stroke-width: 0.6"/>
      </g>
     </g>
    </g>
    <g id="xtick_31">
     <g id="line2d_91">
      <path d="M 413.189518 293.76 
L 413.189518 3.456 
" clip-path="url(#pa2aa321fef)" style="fill: none; stroke: #b0b0b0; stroke-width: 0.8; stroke-linecap: square"/>
     </g>
     <g id="line2d_92">
      <g>
       <use xlink:href="#m8a6a0ccd0f" x="413.189518" y="293.76" style="stroke: #000000; stroke-width: 0.6"/>
      </g>
     </g>
    </g>
    <g id="xtick_32">
     <g id="line2d_93">
      <path d="M 420.702733 293.76 
L 420.702733 3.456 
" clip-path="url(#pa2aa321fef)" style="fill: none; stroke: #b0b0b0; stroke-width: 0.8; stroke-linecap: square"/>
     </g>
     <g id="line2d_94">
      <g>
       <use xlink:href="#m8a6a0ccd0f" x="420.702733" y="293.76" style="stroke: #000000; stroke-width: 0.6"/>
      </g>
     </g>
    </g>
    <g id="xtick_33">
     <g id="line2d_95">
      <path d="M 427.055065 293.76 
L 427.055065 3.456 
" clip-path="url(#pa2aa321fef)" style="fill: none; stroke: #b0b0b0; stroke-width: 0.8; stroke-linecap: square"/>
     </g>
     <g id="line2d_96">
      <g>
       <use xlink:href="#m8a6a0ccd0f" x="427.055065" y="293.76" style="stroke: #000000; stroke-width: 0.6"/>
      </g>
     </g>
    </g>
    <g id="xtick_34">
     <g id="line2d_97">
      <path d="M 432.557705 293.76 
L 432.557705 3.456 
" clip-path="url(#pa2aa321fef)" style="fill: none; stroke: #b0b0b0; stroke-width: 0.8; stroke-linecap: square"/>
     </g>
     <g id="line2d_98">
      <g>
       <use xlink:href="#m8a6a0ccd0f" x="432.557705" y="293.76" style="stroke: #000000; stroke-width: 0.6"/>
      </g>
     </g>
    </g>
    <g id="xtick_35">
     <g id="line2d_99">
      <path d="M 437.411378 293.76 
L 437.411378 3.456 
" clip-path="url(#pa2aa321fef)" style="fill: none; stroke: #b0b0b0; stroke-width: 0.8; stroke-linecap: square"/>
     </g>
     <g id="line2d_100">
      <g>
       <use xlink:href="#m8a6a0ccd0f" x="437.411378" y="293.76" style="stroke: #000000; stroke-width: 0.6"/>
      </g>
     </g>
    </g>
    <g id="text_4">
     <!-- log10 of FEvals / DIM -->
     <g transform="translate(156.430563 339.313125) scale(0.2 -0.2)">
      <defs>
       <path id="DejaVuSans-6c" d="M 603 4863 
L 1178 4863 
L 1178 0 
L 603 0 
L 603 4863 
z
" transform="scale(0.015625)"/>
       <path id="DejaVuSans-6f" d="M 1959 3097 
Q 1497 3097 1228 2736 
Q 959 2375 959 1747 
Q 959 1119 1226 758 
Q 1494 397 1959 397 
Q 2419 397 2687 759 
Q 2956 1122 2956 1747 
Q 2956 2369 2687 2733 
Q 2419 3097 1959 3097 
z
M 1959 3584 
Q 2709 3584 3137 3096 
Q 3566 2609 3566 1747 
Q 3566 888 3137 398 
Q 2709 -91 1959 -91 
Q 1206 -91 779 398 
Q 353 888 353 1747 
Q 353 2609 779 3096 
Q 1206 3584 1959 3584 
z
" transform="scale(0.015625)"/>
       <path id="DejaVuSans-67" d="M 2906 1791 
Q 2906 2416 2648 2759 
Q 2391 3103 1925 3103 
Q 1463 3103 1205 2759 
Q 947 2416 947 1791 
Q 947 1169 1205 825 
Q 1463 481 1925 481 
Q 2391 481 2648 825 
Q 2906 1169 2906 1791 
z
M 3481 434 
Q 3481 -459 3084 -895 
Q 2688 -1331 1869 -1331 
Q 1566 -1331 1297 -1286 
Q 1028 -1241 775 -1147 
L 775 -588 
Q 1028 -725 1275 -790 
Q 1522 -856 1778 -856 
Q 2344 -856 2625 -561 
Q 2906 -266 2906 331 
L 2906 616 
Q 2728 306 2450 153 
Q 2172 0 1784 0 
Q 1141 0 747 490 
Q 353 981 353 1791 
Q 353 2603 747 3093 
Q 1141 3584 1784 3584 
Q 2172 3584 2450 3431 
Q 2728 3278 2906 2969 
L 2906 3500 
L 3481 3500 
L 3481 434 
z
" transform="scale(0.015625)"/>
       <path id="DejaVuSans-31" d="M 794 531 
L 1825 531 
L 1825 4091 
L 703 3866 
L 703 4441 
L 1819 4666 
L 2450 4666 
L 2450 531 
L 3481 531 
L 3481 0 
L 794 0 
L 794 531 
z
" transform="scale(0.015625)"/>
       <path id="DejaVuSans-20" transform="scale(0.015625)"/>
       <path id="DejaVuSans-66" d="M 2375 4863 
L 2375 4384 
L 1825 4384 
Q 1516 4384 1395 4259 
Q 1275 4134 1275 3809 
L 1275 3500 
L 2222 3500 
L 2222 3053 
L 1275 3053 
L 1275 0 
L 697 0 
L 697 3053 
L 147 3053 
L 147 3500 
L 697 3500 
L 697 3744 
Q 697 4328 969 4595 
Q 1241 4863 1831 4863 
L 2375 4863 
z
" transform="scale(0.015625)"/>
       <path id="DejaVuSans-46" d="M 628 4666 
L 3309 4666 
L 3309 4134 
L 1259 4134 
L 1259 2759 
L 3109 2759 
L 3109 2228 
L 1259 2228 
L 1259 0 
L 628 0 
L 628 4666 
z
" transform="scale(0.015625)"/>
       <path id="DejaVuSans-45" d="M 628 4666 
L 3578 4666 
L 3578 4134 
L 1259 4134 
L 1259 2753 
L 3481 2753 
L 3481 2222 
L 1259 2222 
L 1259 531 
L 3634 531 
L 3634 0 
L 628 0 
L 628 4666 
z
" transform="scale(0.015625)"/>
       <path id="DejaVuSans-76" d="M 191 3500 
L 800 3500 
L 1894 563 
L 2988 3500 
L 3597 3500 
L 2284 0 
L 1503 0 
L 191 3500 
z
" transform="scale(0.015625)"/>
       <path id="DejaVuSans-61" d="M 2194 1759 
Q 1497 1759 1228 1600 
Q 959 1441 959 1056 
Q 959 750 1161 570 
Q 1363 391 1709 391 
Q 2188 391 2477 730 
Q 2766 1069 2766 1631 
L 2766 1759 
L 2194 1759 
z
M 3341 1997 
L 3341 0 
L 2766 0 
L 2766 531 
Q 2569 213 2275 61 
Q 1981 -91 1556 -91 
Q 1019 -91 701 211 
Q 384 513 384 1019 
Q 384 1609 779 1909 
Q 1175 2209 1959 2209 
L 2766 2209 
L 2766 2266 
Q 2766 2663 2505 2880 
Q 2244 3097 1772 3097 
Q 1472 3097 1187 3025 
Q 903 2953 641 2809 
L 641 3341 
Q 956 3463 1253 3523 
Q 1550 3584 1831 3584 
Q 2591 3584 2966 3190 
Q 3341 2797 3341 1997 
z
" transform="scale(0.015625)"/>
       <path id="DejaVuSans-73" d="M 2834 3397 
L 2834 2853 
Q 2591 2978 2328 3040 
Q 2066 3103 1784 3103 
Q 1356 3103 1142 2972 
Q 928 2841 928 2578 
Q 928 2378 1081 2264 
Q 1234 2150 1697 2047 
L 1894 2003 
Q 2506 1872 2764 1633 
Q 3022 1394 3022 966 
Q 3022 478 2636 193 
Q 2250 -91 1575 -91 
Q 1294 -91 989 -36 
Q 684 19 347 128 
L 347 722 
Q 666 556 975 473 
Q 1284 391 1588 391 
Q 1994 391 2212 530 
Q 2431 669 2431 922 
Q 2431 1156 2273 1281 
Q 2116 1406 1581 1522 
L 1381 1569 
Q 847 1681 609 1914 
Q 372 2147 372 2553 
Q 372 3047 722 3315 
Q 1072 3584 1716 3584 
Q 2034 3584 2315 3537 
Q 2597 3491 2834 3397 
z
" transform="scale(0.015625)"/>
       <path id="DejaVuSans-2f" d="M 1625 4666 
L 2156 4666 
L 531 -594 
L 0 -594 
L 1625 4666 
z
" transform="scale(0.015625)"/>
       <path id="DejaVuSans-44" d="M 1259 4147 
L 1259 519 
L 2022 519 
Q 2988 519 3436 956 
Q 3884 1394 3884 2338 
Q 3884 3275 3436 3711 
Q 2988 4147 2022 4147 
L 1259 4147 
z
M 628 4666 
L 1925 4666 
Q 3281 4666 3915 4102 
Q 4550 3538 4550 2338 
Q 4550 1131 3912 565 
Q 3275 0 1925 0 
L 628 0 
L 628 4666 
z
" transform="scale(0.015625)"/>
       <path id="DejaVuSans-49" d="M 628 4666 
L 1259 4666 
L 1259 0 
L 628 0 
L 628 4666 
z
" transform="scale(0.015625)"/>
       <path id="DejaVuSans-4d" d="M 628 4666 
L 1569 4666 
L 2759 1491 
L 3956 4666 
L 4897 4666 
L 4897 0 
L 4281 0 
L 4281 4097 
L 3078 897 
L 2444 897 
L 1241 4097 
L 1241 0 
L 628 0 
L 628 4666 
z
" transform="scale(0.015625)"/>
      </defs>
      <use xlink:href="#DejaVuSans-6c"/>
      <use xlink:href="#DejaVuSans-6f" x="27.783203"/>
      <use xlink:href="#DejaVuSans-67" x="88.964844"/>
      <use xlink:href="#DejaVuSans-31" x="152.441406"/>
      <use xlink:href="#DejaVuSans-30" x="216.064453"/>
      <use xlink:href="#DejaVuSans-20" x="279.6875"/>
      <use xlink:href="#DejaVuSans-6f" x="311.474609"/>
      <use xlink:href="#DejaVuSans-66" x="372.65625"/>
      <use xlink:href="#DejaVuSans-20" x="407.861328"/>
      <use xlink:href="#DejaVuSans-46" x="439.648438"/>
      <use xlink:href="#DejaVuSans-45" x="497.167969"/>
      <use xlink:href="#DejaVuSans-76" x="560.351562"/>
      <use xlink:href="#DejaVuSans-61" x="619.53125"/>
      <use xlink:href="#DejaVuSans-6c" x="680.810547"/>
      <use xlink:href="#DejaVuSans-73" x="708.59375"/>
      <use xlink:href="#DejaVuSans-20" x="760.693359"/>
      <use xlink:href="#DejaVuSans-2f" x="792.480469"/>
      <use xlink:href="#DejaVuSans-20" x="826.171875"/>
      <use xlink:href="#DejaVuSans-44" x="857.958984"/>
      <use xlink:href="#DejaVuSans-49" x="934.960938"/>
      <use xlink:href="#DejaVuSans-4d" x="964.453125"/>
     </g>
    </g>
   </g>
   <g id="matplotlib.axis_2">
    <g id="ytick_1">
     <g id="line2d_101">
      <path d="M 62.208 293.76 
L 460.8 293.76 
" clip-path="url(#pa2aa321fef)" style="fill: none; stroke: #b0b0b0; stroke-width: 0.8; stroke-linecap: square"/>
     </g>
     <g id="line2d_102">
      <defs>
       <path id="m38afe5dd40" d="M 0 0 
L -3.5 0 
" style="stroke: #000000; stroke-width: 0.8"/>
      </defs>
      <g>
       <use xlink:href="#m38afe5dd40" x="62.208" y="293.76" style="stroke: #000000; stroke-width: 0.8"/>
      </g>
     </g>
     <g id="text_5">
      <!-- 0.0 -->
      <g transform="translate(29.763 299.83875) scale(0.16 -0.16)">
       <defs>
        <path id="DejaVuSans-2e" d="M 684 794 
L 1344 794 
L 1344 0 
L 684 0 
L 684 794 
z
" transform="scale(0.015625)"/>
       </defs>
       <use xlink:href="#DejaVuSans-30"/>
       <use xlink:href="#DejaVuSans-2e" x="63.623047"/>
       <use xlink:href="#DejaVuSans-30" x="95.410156"/>
      </g>
     </g>
    </g>
    <g id="ytick_2">
     <g id="line2d_103">
      <path d="M 62.208 236.274059 
L 460.8 236.274059 
" clip-path="url(#pa2aa321fef)" style="fill: none; stroke: #b0b0b0; stroke-width: 0.8; stroke-linecap: square"/>
     </g>
     <g id="line2d_104">
      <g>
       <use xlink:href="#m38afe5dd40" x="62.208" y="236.274059" style="stroke: #000000; stroke-width: 0.8"/>
      </g>
     </g>
     <g id="text_6">
      <!-- 0.2 -->
      <g transform="translate(29.763 242.352809) scale(0.16 -0.16)">
       <use xlink:href="#DejaVuSans-30"/>
       <use xlink:href="#DejaVuSans-2e" x="63.623047"/>
       <use xlink:href="#DejaVuSans-32" x="95.410156"/>
      </g>
     </g>
    </g>
    <g id="ytick_3">
     <g id="line2d_105">
      <path d="M 62.208 178.788119 
L 460.8 178.788119 
" clip-path="url(#pa2aa321fef)" style="fill: none; stroke: #b0b0b0; stroke-width: 0.8; stroke-linecap: square"/>
     </g>
     <g id="line2d_106">
      <g>
       <use xlink:href="#m38afe5dd40" x="62.208" y="178.788119" style="stroke: #000000; stroke-width: 0.8"/>
      </g>
     </g>
     <g id="text_7">
      <!-- 0.4 -->
      <g transform="translate(29.763 184.866869) scale(0.16 -0.16)">
       <use xlink:href="#DejaVuSans-30"/>
       <use xlink:href="#DejaVuSans-2e" x="63.623047"/>
       <use xlink:href="#DejaVuSans-34" x="95.410156"/>
      </g>
     </g>
    </g>
    <g id="ytick_4">
     <g id="line2d_107">
      <path d="M 62.208 121.302178 
L 460.8 121.302178 
" clip-path="url(#pa2aa321fef)" style="fill: none; stroke: #b0b0b0; stroke-width: 0.8; stroke-linecap: square"/>
     </g>
     <g id="line2d_108">
      <g>
       <use xlink:href="#m38afe5dd40" x="62.208" y="121.302178" style="stroke: #000000; stroke-width: 0.8"/>
      </g>
     </g>
     <g id="text_8">
      <!-- 0.6 -->
      <g transform="translate(29.763 127.380928) scale(0.16 -0.16)">
       <defs>
        <path id="DejaVuSans-36" d="M 2113 2584 
Q 1688 2584 1439 2293 
Q 1191 2003 1191 1497 
Q 1191 994 1439 701 
Q 1688 409 2113 409 
Q 2538 409 2786 701 
Q 3034 994 3034 1497 
Q 3034 2003 2786 2293 
Q 2538 2584 2113 2584 
z
M 3366 4563 
L 3366 3988 
Q 3128 4100 2886 4159 
Q 2644 4219 2406 4219 
Q 1781 4219 1451 3797 
Q 1122 3375 1075 2522 
Q 1259 2794 1537 2939 
Q 1816 3084 2150 3084 
Q 2853 3084 3261 2657 
Q 3669 2231 3669 1497 
Q 3669 778 3244 343 
Q 2819 -91 2113 -91 
Q 1303 -91 875 529 
Q 447 1150 447 2328 
Q 447 3434 972 4092 
Q 1497 4750 2381 4750 
Q 2619 4750 2861 4703 
Q 3103 4656 3366 4563 
z
" transform="scale(0.015625)"/>
       </defs>
       <use xlink:href="#DejaVuSans-30"/>
       <use xlink:href="#DejaVuSans-2e" x="63.623047"/>
       <use xlink:href="#DejaVuSans-36" x="95.410156"/>
      </g>
     </g>
    </g>
    <g id="ytick_5">
     <g id="line2d_109">
      <path d="M 62.208 63.816238 
L 460.8 63.816238 
" clip-path="url(#pa2aa321fef)" style="fill: none; stroke: #b0b0b0; stroke-width: 0.8; stroke-linecap: square"/>
     </g>
     <g id="line2d_110">
      <g>
       <use xlink:href="#m38afe5dd40" x="62.208" y="63.816238" style="stroke: #000000; stroke-width: 0.8"/>
      </g>
     </g>
     <g id="text_9">
      <!-- 0.8 -->
      <g transform="translate(29.763 69.894988) scale(0.16 -0.16)">
       <defs>
        <path id="DejaVuSans-38" d="M 2034 2216 
Q 1584 2216 1326 1975 
Q 1069 1734 1069 1313 
Q 1069 891 1326 650 
Q 1584 409 2034 409 
Q 2484 409 2743 651 
Q 3003 894 3003 1313 
Q 3003 1734 2745 1975 
Q 2488 2216 2034 2216 
z
M 1403 2484 
Q 997 2584 770 2862 
Q 544 3141 544 3541 
Q 544 4100 942 4425 
Q 1341 4750 2034 4750 
Q 2731 4750 3128 4425 
Q 3525 4100 3525 3541 
Q 3525 3141 3298 2862 
Q 3072 2584 2669 2484 
Q 3125 2378 3379 2068 
Q 3634 1759 3634 1313 
Q 3634 634 3220 271 
Q 2806 -91 2034 -91 
Q 1263 -91 848 271 
Q 434 634 434 1313 
Q 434 1759 690 2068 
Q 947 2378 1403 2484 
z
M 1172 3481 
Q 1172 3119 1398 2916 
Q 1625 2713 2034 2713 
Q 2441 2713 2670 2916 
Q 2900 3119 2900 3481 
Q 2900 3844 2670 4047 
Q 2441 4250 2034 4250 
Q 1625 4250 1398 4047 
Q 1172 3844 1172 3481 
z
" transform="scale(0.015625)"/>
       </defs>
       <use xlink:href="#DejaVuSans-30"/>
       <use xlink:href="#DejaVuSans-2e" x="63.623047"/>
       <use xlink:href="#DejaVuSans-38" x="95.410156"/>
      </g>
     </g>
    </g>
    <g id="ytick_6">
     <g id="line2d_111">
      <path d="M 62.208 6.330297 
L 460.8 6.330297 
" clip-path="url(#pa2aa321fef)" style="fill: none; stroke: #b0b0b0; stroke-width: 0.8; stroke-linecap: square"/>
     </g>
     <g id="line2d_112">
      <g>
       <use xlink:href="#m38afe5dd40" x="62.208" y="6.330297" style="stroke: #000000; stroke-width: 0.8"/>
      </g>
     </g>
     <g id="text_10">
      <!-- 1.0 -->
      <g transform="translate(29.763 12.409047) scale(0.16 -0.16)">
       <use xlink:href="#DejaVuSans-31"/>
       <use xlink:href="#DejaVuSans-2e" x="63.623047"/>
       <use xlink:href="#DejaVuSans-30" x="95.410156"/>
      </g>
     </g>
    </g>
    <g id="text_11">
     <!-- proportion of trials -->
     <g transform="translate(21.603625 241.61425) rotate(-90) scale(0.2 -0.2)">
      <defs>
       <path id="DejaVuSans-70" d="M 1159 525 
L 1159 -1331 
L 581 -1331 
L 581 3500 
L 1159 3500 
L 1159 2969 
Q 1341 3281 1617 3432 
Q 1894 3584 2278 3584 
Q 2916 3584 3314 3078 
Q 3713 2572 3713 1747 
Q 3713 922 3314 415 
Q 2916 -91 2278 -91 
Q 1894 -91 1617 61 
Q 1341 213 1159 525 
z
M 3116 1747 
Q 3116 2381 2855 2742 
Q 2594 3103 2138 3103 
Q 1681 3103 1420 2742 
Q 1159 2381 1159 1747 
Q 1159 1113 1420 752 
Q 1681 391 2138 391 
Q 2594 391 2855 752 
Q 3116 1113 3116 1747 
z
" transform="scale(0.015625)"/>
       <path id="DejaVuSans-72" d="M 2631 2963 
Q 2534 3019 2420 3045 
Q 2306 3072 2169 3072 
Q 1681 3072 1420 2755 
Q 1159 2438 1159 1844 
L 1159 0 
L 581 0 
L 581 3500 
L 1159 3500 
L 1159 2956 
Q 1341 3275 1631 3429 
Q 1922 3584 2338 3584 
Q 2397 3584 2469 3576 
Q 2541 3569 2628 3553 
L 2631 2963 
z
" transform="scale(0.015625)"/>
       <path id="DejaVuSans-74" d="M 1172 4494 
L 1172 3500 
L 2356 3500 
L 2356 3053 
L 1172 3053 
L 1172 1153 
Q 1172 725 1289 603 
Q 1406 481 1766 481 
L 2356 481 
L 2356 0 
L 1766 0 
Q 1100 0 847 248 
Q 594 497 594 1153 
L 594 3053 
L 172 3053 
L 172 3500 
L 594 3500 
L 594 4494 
L 1172 4494 
z
" transform="scale(0.015625)"/>
       <path id="DejaVuSans-69" d="M 603 3500 
L 1178 3500 
L 1178 0 
L 603 0 
L 603 3500 
z
M 603 4863 
L 1178 4863 
L 1178 4134 
L 603 4134 
L 603 4863 
z
" transform="scale(0.015625)"/>
       <path id="DejaVuSans-6e" d="M 3513 2113 
L 3513 0 
L 2938 0 
L 2938 2094 
Q 2938 2591 2744 2837 
Q 2550 3084 2163 3084 
Q 1697 3084 1428 2787 
Q 1159 2491 1159 1978 
L 1159 0 
L 581 0 
L 581 3500 
L 1159 3500 
L 1159 2956 
Q 1366 3272 1645 3428 
Q 1925 3584 2291 3584 
Q 2894 3584 3203 3211 
Q 3513 2838 3513 2113 
z
" transform="scale(0.015625)"/>
      </defs>
      <use xlink:href="#DejaVuSans-70"/>
      <use xlink:href="#DejaVuSans-72" x="63.476562"/>
      <use xlink:href="#DejaVuSans-6f" x="102.339844"/>
      <use xlink:href="#DejaVuSans-70" x="163.521484"/>
      <use xlink:href="#DejaVuSans-6f" x="226.998047"/>
      <use xlink:href="#DejaVuSans-72" x="288.179688"/>
      <use xlink:href="#DejaVuSans-74" x="329.292969"/>
      <use xlink:href="#DejaVuSans-69" x="368.501953"/>
      <use xlink:href="#DejaVuSans-6f" x="396.285156"/>
      <use xlink:href="#DejaVuSans-6e" x="457.466797"/>
      <use xlink:href="#DejaVuSans-20" x="520.845703"/>
      <use xlink:href="#DejaVuSans-6f" x="552.632812"/>
      <use xlink:href="#DejaVuSans-66" x="613.814453"/>
      <use xlink:href="#DejaVuSans-20" x="649.019531"/>
      <use xlink:href="#DejaVuSans-74" x="680.806641"/>
      <use xlink:href="#DejaVuSans-72" x="720.015625"/>
      <use xlink:href="#DejaVuSans-69" x="761.128906"/>
      <use xlink:href="#DejaVuSans-61" x="788.912109"/>
      <use xlink:href="#DejaVuSans-6c" x="850.191406"/>
      <use xlink:href="#DejaVuSans-73" x="877.974609"/>
     </g>
    </g>
   </g>
   <g id="line2d_113">
    <path d="M 123.262833 293.76 
L 123.262833 289.927604 
L 127.698141 289.927604 
L 127.698141 286.095208 
L 146.855542 286.095208 
L 146.855542 282.262812 
L 148.410768 282.262812 
L 148.410768 278.430416 
L 154.544486 278.430416 
L 154.544486 274.59802 
L 157.504323 274.59802 
L 157.504323 270.765624 
L 163.914901 270.765624 
L 163.914901 266.933228 
L 168.846106 266.933228 
L 168.846106 263.100832 
L 169.461171 263.100832 
L 169.461171 259.268436 
L 171.253131 259.268436 
L 171.253131 255.43604 
L 177.730527 255.43604 
L 177.730527 251.603644 
L 180.855707 251.603644 
L 180.855707 247.771248 
L 181.316143 247.771248 
L 181.316143 243.938851 
L 184.825377 243.938851 
L 184.825377 240.106455 
L 185.451342 240.106455 
L 185.451342 236.274059 
L 186.875978 236.274059 
L 186.875978 232.441663 
L 192.826272 232.441663 
L 192.826272 228.609267 
L 192.999055 228.609267 
L 192.999055 224.776871 
L 196.942324 224.776871 
L 196.942324 220.944475 
L 198.630808 220.944475 
L 198.630808 217.112079 
L 198.780931 217.112079 
L 198.780931 213.279683 
L 199.670359 213.279683 
L 199.670359 209.447287 
L 200.540996 209.447287 
L 200.540996 205.614891 
L 201.813403 205.614891 
L 201.813403 201.782495 
L 202.090903 201.782495 
L 202.090903 197.950099 
L 202.228956 197.950099 
L 202.228956 194.117703 
L 207.281224 194.117703 
L 207.281224 190.285307 
L 212.107795 190.285307 
L 212.107795 186.452911 
L 215.539496 186.452911 
L 215.539496 182.620515 
L 216.035393 182.620515 
L 216.035393 178.788119 
L 217.201752 178.788119 
L 217.201752 174.955723 
L 221.303226 174.955723 
L 221.303226 171.123327 
L 221.734734 171.123327 
L 221.734734 167.290931 
L 225.81813 167.290931 
L 225.81813 163.458535 
L 226.12797 163.458535 
L 226.12797 159.626139 
L 227.568712 159.626139 
L 227.568712 155.793743 
L 228.013413 155.793743 
L 228.013413 151.961347 
L 228.744081 151.961347 
L 228.744081 148.12895 
L 232.148241 148.12895 
L 232.148241 144.296554 
L 232.414104 144.296554 
L 232.414104 140.464158 
L 233.910397 140.464158 
L 233.910397 132.799366 
L 237.046344 132.799366 
L 237.046344 128.96697 
L 238.898727 128.96697 
L 238.898727 125.134574 
L 246.618973 125.134574 
L 246.618973 121.302178 
L 247.039234 121.302178 
L 247.039234 117.469782 
L 247.501218 117.469782 
L 247.501218 113.637386 
L 247.867113 113.637386 
L 247.867113 109.80499 
L 250.85264 109.80499 
L 250.85264 105.972594 
L 252.91763 105.972594 
L 252.91763 102.140198 
L 269.72016 102.140198 
L 269.72016 98.307802 
L 270.146643 98.307802 
L 270.146643 94.475406 
L 272.441615 94.475406 
L 272.441615 90.64301 
L 278.517125 90.64301 
L 278.517125 86.810614 
L 344.097274 86.810614 
L 344.097274 82.978218 
L 351.478056 82.978218 
L 351.478056 79.145822 
L 355.989692 79.145822 
L 355.989692 75.313426 
L 365.040882 75.313426 
L 365.040882 71.48103 
L 369.494636 71.48103 
L 369.494636 67.648634 
L 370.898255 67.648634 
L 370.898255 63.816238 
L 377.747981 63.816238 
L 377.747981 59.983842 
L 378.203179 59.983842 
L 378.203179 56.151446 
L 397.378037 56.151446 
L 397.378037 52.31905 
L 398.052304 52.31905 
L 398.052304 48.486653 
L 399.471071 48.486653 
L 399.471071 44.654257 
L 399.889738 44.654257 
L 399.889738 40.821861 
L 402.635756 40.821861 
L 402.635756 36.989465 
L 428.451649 36.989465 
L 428.451649 33.157069 
L 440.915565 33.157069 
L 440.915565 29.324673 
L 440.915565 29.324673 
L 460.8 29.324673 
L 460.8 29.324673 
" clip-path="url(#pa2aa321fef)" style="fill: none; stroke: #000000; stroke-width: 1.5; stroke-linecap: square"/>
   </g>
   <g id="line2d_114">
    <defs>
     <path id="mb56453b2a9" d="M 0 14.142136 
L 8.485281 0 
L 0 -14.142136 
L -8.485281 0 
z
" style="stroke: #000000; stroke-width: 1.5; stroke-linejoin: miter"/>
    </defs>
    <g clip-path="url(#pa2aa321fef)">
     <use xlink:href="#mb56453b2a9" x="192.999055" y="228.609267" style="fill-opacity: 0; stroke: #000000; stroke-width: 1.5; stroke-linejoin: miter"/>
     <use xlink:href="#mb56453b2a9" x="228.013413" y="155.793743" style="fill-opacity: 0; stroke: #000000; stroke-width: 1.5; stroke-linejoin: miter"/>
     <use xlink:href="#mb56453b2a9" x="272.441615" y="94.475406" style="fill-opacity: 0; stroke: #000000; stroke-width: 1.5; stroke-linejoin: miter"/>
     <use xlink:href="#mb56453b2a9" x="377.747981" y="63.816238" style="fill-opacity: 0; stroke: #000000; stroke-width: 1.5; stroke-linejoin: miter"/>
     <use xlink:href="#mb56453b2a9" x="440.915565" y="33.157069" style="fill-opacity: 0; stroke: #000000; stroke-width: 1.5; stroke-linejoin: miter"/>
     <use xlink:href="#mb56453b2a9" x="440.915565" y="29.324673" style="fill-opacity: 0; stroke: #000000; stroke-width: 1.5; stroke-linejoin: miter"/>
    </g>
   </g>
   <g id="line2d_115">
    <path clip-path="url(#pa2aa321fef)" style="fill: none; stroke: #000000; stroke-width: 1.5; stroke-linecap: square"/>
    <g clip-path="url(#pa2aa321fef)">
     <use xlink:href="#mb56453b2a9" x="-1" y="581.189703" style="fill-opacity: 0; stroke: #000000; stroke-width: 1.5; stroke-linejoin: miter"/>
     <use xlink:href="#mb56453b2a9" x="460.8" y="581.189703" style="fill-opacity: 0; stroke: #000000; stroke-width: 1.5; stroke-linejoin: miter"/>
    </g>
   </g>
   <g id="line2d_116">
    <path d="M 124.188908 293.76 
L 124.188908 289.927604 
L 139.342328 289.927604 
L 139.342328 286.095208 
L 140.591168 286.095208 
L 140.591168 282.262812 
L 146.323811 282.262812 
L 146.323811 278.430416 
L 146.855542 278.430416 
L 146.855542 274.59802 
L 167.905945 274.59802 
L 167.905945 270.765624 
L 174.076741 270.765624 
L 174.076741 266.933228 
L 174.618968 266.933228 
L 174.618968 263.100832 
L 179.442703 263.100832 
L 179.442703 259.268436 
L 181.086569 259.268436 
L 181.086569 255.43604 
L 181.316143 255.43604 
L 181.316143 251.603644 
L 185.03509 251.603644 
L 185.03509 247.771248 
L 188.638134 247.771248 
L 188.638134 243.938851 
L 190.143638 243.938851 
L 190.143638 240.106455 
L 192.478518 240.106455 
L 192.478518 236.274059 
L 195.344892 236.274059 
L 195.344892 232.441663 
L 196.627754 232.441663 
L 196.627754 228.609267 
L 198.630808 228.609267 
L 198.630808 224.776871 
L 202.640359 224.776871 
L 202.640359 220.944475 
L 206.54314 220.944475 
L 206.54314 217.112079 
L 208.245212 217.112079 
L 208.245212 213.279683 
L 210.108064 213.279683 
L 210.108064 209.447287 
L 210.56091 209.447287 
L 210.56091 205.614891 
L 213.493984 205.614891 
L 213.493984 201.782495 
L 214.631558 201.782495 
L 214.631558 197.950099 
L 215.639154 197.950099 
L 215.738571 190.285307 
L 220.954737 190.285307 
L 220.954737 186.452911 
L 222.668439 186.452911 
L 222.668439 182.620515 
L 223.989869 182.620515 
L 223.989869 178.788119 
L 225.662332 178.788119 
L 225.662332 174.955723 
L 225.973341 174.955723 
L 226.050728 167.290931 
L 227.791662 167.290931 
L 227.791662 163.458535 
L 228.233977 163.458535 
L 228.233977 155.793743 
L 229.957235 155.793743 
L 229.957235 151.961347 
L 230.167663 151.961347 
L 230.167663 148.12895 
L 236.087961 148.12895 
L 236.087961 144.296554 
L 241.156542 144.296554 
L 241.156542 140.464158 
L 242.266783 140.464158 
L 242.266783 136.631762 
L 242.474908 136.631762 
L 242.474908 132.799366 
L 243.702053 132.799366 
L 243.702053 128.96697 
L 244.003214 128.96697 
L 244.003214 125.134574 
L 245.137693 125.134574 
L 245.137693 121.302178 
L 245.38024 121.302178 
L 245.38024 117.469782 
L 250.59774 117.469782 
L 250.59774 113.637386 
L 251.649574 113.637386 
L 251.649574 109.80499 
L 265.402211 109.80499 
L 265.402211 105.972594 
L 267.631811 105.972594 
L 267.631811 102.140198 
L 286.996474 102.140198 
L 286.996474 98.307802 
L 341.132795 98.307802 
L 341.132795 94.475406 
L 341.841808 94.475406 
L 341.841808 90.64301 
L 342.839821 90.64301 
L 342.839821 86.810614 
L 343.070911 86.810614 
L 343.070911 82.978218 
L 343.74317 82.978218 
L 343.74317 79.145822 
L 344.128114 79.145822 
L 344.128114 75.313426 
L 346.025916 75.313426 
L 346.025916 71.48103 
L 352.954602 71.48103 
L 352.954602 67.648634 
L 360.817671 67.648634 
L 360.817671 63.816238 
L 385.315696 63.816238 
L 385.315696 59.983842 
L 399.075976 59.983842 
L 399.075976 56.151446 
L 400.377366 56.151446 
L 400.377366 52.31905 
L 405.931009 52.31905 
L 405.931009 48.486653 
L 412.836917 48.486653 
L 412.836917 44.654257 
L 424.4683 44.654257 
L 424.4683 40.821861 
L 425.187853 40.821861 
L 425.187853 36.989465 
L 425.726991 36.989465 
L 425.726991 33.157069 
L 428.485779 33.157069 
L 428.485779 29.324673 
L 428.485779 29.324673 
L 460.8 29.324673 
L 460.8 29.324673 
" clip-path="url(#pa2aa321fef)" style="fill: none; stroke: #000000; stroke-width: 1.5; stroke-linecap: square"/>
   </g>
   <g id="line2d_117">
    <defs>
     <path id="m44598e9ff5" d="M 0 7.5 
C 1.989023 7.5 3.896849 6.709753 5.303301 5.303301 
C 6.709753 3.896849 7.5 1.989023 7.5 0 
C 7.5 -1.989023 6.709753 -3.896849 5.303301 -5.303301 
C 3.896849 -6.709753 1.989023 -7.5 0 -7.5 
C -1.989023 -7.5 -3.896849 -6.709753 -5.303301 -5.303301 
C -6.709753 -3.896849 -7.5 -1.989023 -7.5 0 
C -7.5 1.989023 -6.709753 3.896849 -5.303301 5.303301 
C -3.896849 6.709753 -1.989023 7.5 0 7.5 
z
" style="stroke: #000000; stroke-width: 1.5"/>
    </defs>
    <g clip-path="url(#pa2aa321fef)">
     <use xlink:href="#m44598e9ff5" x="202.640359" y="224.776871" style="fill-opacity: 0; stroke: #000000; stroke-width: 1.5"/>
     <use xlink:href="#m44598e9ff5" x="250.59774" y="117.469782" style="fill-opacity: 0; stroke: #000000; stroke-width: 1.5"/>
     <use xlink:href="#m44598e9ff5" x="286.996474" y="102.140198" style="fill-opacity: 0; stroke: #000000; stroke-width: 1.5"/>
     <use xlink:href="#m44598e9ff5" x="399.075976" y="59.983842" style="fill-opacity: 0; stroke: #000000; stroke-width: 1.5"/>
     <use xlink:href="#m44598e9ff5" x="428.485779" y="33.157069" style="fill-opacity: 0; stroke: #000000; stroke-width: 1.5"/>
     <use xlink:href="#m44598e9ff5" x="428.485779" y="29.324673" style="fill-opacity: 0; stroke: #000000; stroke-width: 1.5"/>
    </g>
   </g>
   <g id="line2d_118">
    <path clip-path="url(#pa2aa321fef)" style="fill: none; stroke: #000000; stroke-width: 1.5; stroke-linecap: square"/>
   </g>
   <g id="line2d_119">
    <path d="M 229.816351 293.76 
L 229.816351 289.927604 
L 238.15621 289.927604 
L 238.15621 286.095208 
L 243.297052 286.095208 
L 243.297052 282.262812 
L 243.50005 282.262812 
L 243.50005 278.430416 
L 243.903071 278.430416 
L 243.903071 274.59802 
L 245.621367 274.59802 
L 245.621367 270.765624 
L 248.094158 270.765624 
L 248.094158 266.933228 
L 248.139417 266.933228 
L 248.139417 263.100832 
L 250.21241 263.100832 
L 250.21241 259.268436 
L 250.937257 259.268436 
L 250.937257 255.43604 
L 251.232056 255.43604 
L 251.232056 251.603644 
L 252.145074 251.603644 
L 252.145074 247.771248 
L 256.243955 247.771248 
L 256.243955 243.938851 
L 256.68746 243.938851 
L 256.68746 240.106455 
L 260.878224 240.106455 
L 260.878224 236.274059 
L 262.697023 236.274059 
L 262.697023 232.441663 
L 262.760518 232.441663 
L 262.760518 228.609267 
L 263.546066 228.609267 
L 263.546066 224.776871 
L 264.194547 224.776871 
L 264.194547 220.944475 
L 266.372562 220.944475 
L 266.372562 217.112079 
L 341.739264 217.112079 
L 341.739264 213.279683 
L 344.36087 213.279683 
L 344.36087 209.447287 
L 344.930593 209.447287 
L 344.930593 205.614891 
L 345.836219 205.614891 
L 345.836219 201.782495 
L 346.164475 201.782495 
L 346.164475 197.950099 
L 346.813246 197.950099 
L 346.813246 194.117703 
L 347.08878 194.117703 
L 347.08878 190.285307 
L 348.558299 190.285307 
L 348.558299 186.452911 
L 348.771325 186.452911 
L 348.771325 182.620515 
L 350.31591 182.620515 
L 350.31591 178.788119 
L 351.04841 178.788119 
L 351.04841 174.955723 
L 352.016164 174.955723 
L 352.016164 171.123327 
L 355.764508 171.123327 
L 355.764508 167.290931 
L 367.245048 167.290931 
L 367.245048 163.458535 
L 379.204185 163.458535 
L 379.204185 159.626139 
L 379.206065 159.626139 
L 379.206065 155.793743 
L 379.654822 155.793743 
L 379.654822 151.961347 
L 380.054568 151.961347 
L 380.054568 148.12895 
L 380.514267 148.12895 
L 380.514267 144.296554 
L 381.981302 144.296554 
L 381.981302 140.464158 
L 382.439238 140.464158 
L 382.439238 136.631762 
L 382.539929 136.631762 
L 382.539929 132.799366 
L 389.119028 132.799366 
L 389.119028 128.96697 
L 390.292021 128.96697 
L 390.292021 125.134574 
L 397.977266 125.134574 
L 397.977266 121.302178 
L 398.936443 121.302178 
L 398.936443 117.469782 
L 404.035275 117.469782 
L 404.035275 113.637386 
L 421.06242 113.637386 
L 421.06242 109.80499 
L 422.864128 109.80499 
L 422.864128 105.972594 
L 426.972565 105.972594 
L 426.972565 102.140198 
L 426.972565 102.140198 
L 426.972565 102.140198 
L 460.8 102.140198 
" clip-path="url(#pa2aa321fef)" style="fill: none; stroke: #00bfbf; stroke-width: 1.5; stroke-linecap: square"/>
   </g>
   <g id="line2d_120">
    <defs>
     <path id="m16530cb509" d="M 0 14.142136 
L 8.485281 0 
L 0 -14.142136 
L -8.485281 0 
z
" style="stroke: #00bfbf; stroke-width: 1.5; stroke-linejoin: miter"/>
    </defs>
    <g clip-path="url(#pa2aa321fef)">
     <use xlink:href="#m16530cb509" x="251.232056" y="255.43604" style="fill-opacity: 0; stroke: #00bfbf; stroke-width: 1.5; stroke-linejoin: miter"/>
     <use xlink:href="#m16530cb509" x="266.372562" y="220.944475" style="fill-opacity: 0; stroke: #00bfbf; stroke-width: 1.5; stroke-linejoin: miter"/>
     <use xlink:href="#m16530cb509" x="352.016164" y="174.955723" style="fill-opacity: 0; stroke: #00bfbf; stroke-width: 1.5; stroke-linejoin: miter"/>
     <use xlink:href="#m16530cb509" x="422.864128" y="109.80499" style="fill-opacity: 0; stroke: #00bfbf; stroke-width: 1.5; stroke-linejoin: miter"/>
     <use xlink:href="#m16530cb509" x="426.972565" y="102.140198" style="fill-opacity: 0; stroke: #00bfbf; stroke-width: 1.5; stroke-linejoin: miter"/>
    </g>
   </g>
   <g id="line2d_121">
    <path clip-path="url(#pa2aa321fef)" style="fill: none; stroke: #00bfbf; stroke-width: 1.5; stroke-linecap: square"/>
    <g clip-path="url(#pa2aa321fef)">
     <use xlink:href="#m16530cb509" x="-1" y="581.189703" style="fill-opacity: 0; stroke: #00bfbf; stroke-width: 1.5; stroke-linejoin: miter"/>
     <use xlink:href="#m16530cb509" x="460.8" y="581.189703" style="fill-opacity: 0; stroke: #00bfbf; stroke-width: 1.5; stroke-linejoin: miter"/>
    </g>
   </g>
   <g id="line2d_122">
    <path d="M 233.006097 293.76 
L 233.006097 289.927604 
L 237.634208 289.927604 
L 237.634208 286.095208 
L 239.794601 286.095208 
L 239.794601 282.262812 
L 240.617155 282.262812 
L 240.617155 278.430416 
L 243.297052 278.430416 
L 243.297052 274.59802 
L 243.651645 274.59802 
L 243.651645 270.765624 
L 243.953173 270.765624 
L 243.953173 266.933228 
L 245.525085 266.933228 
L 245.525085 263.100832 
L 246.051873 263.100832 
L 246.051873 259.268436 
L 248.901316 259.268436 
L 248.901316 255.43604 
L 250.21241 255.43604 
L 250.21241 251.603644 
L 256.318205 251.603644 
L 256.318205 247.771248 
L 258.905819 247.771248 
L 258.905819 243.938851 
L 344.574895 243.938851 
L 344.574895 240.106455 
L 346.000674 240.106455 
L 346.000674 236.274059 
L 346.181238 236.274059 
L 346.181238 232.441663 
L 346.202183 232.441663 
L 346.202183 228.609267 
L 346.940961 228.609267 
L 346.940961 224.776871 
L 347.203385 224.776871 
L 347.203385 220.944475 
L 348.893121 220.944475 
L 348.893121 217.112079 
L 348.936253 217.112079 
L 348.936253 213.279683 
L 349.159035 213.279683 
L 349.159035 209.447287 
L 349.260256 209.447287 
L 349.260256 205.614891 
L 349.492898 205.614891 
L 349.492898 201.782495 
L 349.670372 201.782495 
L 349.670372 197.950099 
L 350.384074 197.950099 
L 350.384074 194.117703 
L 350.906684 194.117703 
L 350.906684 190.285307 
L 351.067022 190.285307 
L 351.067022 186.452911 
L 351.185939 186.452911 
L 351.185939 182.620515 
L 352.46108 182.620515 
L 352.46108 178.788119 
L 353.683976 178.788119 
L 353.683976 174.955723 
L 353.771198 174.955723 
L 353.771198 171.123327 
L 355.558115 171.123327 
L 355.558115 167.290931 
L 356.0029 167.290931 
L 356.0029 163.458535 
L 358.038306 163.458535 
L 358.038306 159.626139 
L 371.539531 159.626139 
L 371.539531 155.793743 
L 381.903895 155.793743 
L 381.903895 151.961347 
L 381.972513 151.961347 
L 381.972513 148.12895 
L 382.174185 148.12895 
L 382.174185 144.296554 
L 386.727426 144.296554 
L 386.727426 140.464158 
L 387.177644 140.464158 
L 387.177644 136.631762 
L 401.022379 136.631762 
L 401.022379 132.799366 
L 406.137883 132.799366 
L 406.137883 128.96697 
L 408.812031 128.96697 
L 408.812031 125.134574 
L 409.771393 125.134574 
L 409.771393 121.302178 
L 410.894948 121.302178 
L 410.894948 117.469782 
L 411.299879 117.469782 
L 411.299879 113.637386 
L 414.708159 113.637386 
L 414.708159 109.80499 
L 419.027669 109.80499 
L 419.027669 105.972594 
L 426.401761 105.972594 
L 426.401761 102.140198 
L 426.795222 102.140198 
L 426.795222 98.307802 
L 426.795222 98.307802 
L 426.795222 98.307802 
L 460.8 98.307802 
" clip-path="url(#pa2aa321fef)" style="fill: none; stroke: #00bfbf; stroke-width: 1.5; stroke-linecap: square"/>
   </g>
   <g id="line2d_123">
    <defs>
     <path id="m088922a7f9" d="M 0 7.5 
C 1.989023 7.5 3.896849 6.709753 5.303301 5.303301 
C 6.709753 3.896849 7.5 1.989023 7.5 0 
C 7.5 -1.989023 6.709753 -3.896849 5.303301 -5.303301 
C 3.896849 -6.709753 1.989023 -7.5 0 -7.5 
C -1.989023 -7.5 -3.896849 -6.709753 -5.303301 -5.303301 
C -6.709753 -3.896849 -7.5 -1.989023 -7.5 0 
C -7.5 1.989023 -6.709753 3.896849 -5.303301 5.303301 
C -3.896849 6.709753 -1.989023 7.5 0 7.5 
z
" style="stroke: #00bfbf; stroke-width: 1.5"/>
    </defs>
    <g clip-path="url(#pa2aa321fef)">
     <use xlink:href="#m088922a7f9" x="250.21241" y="255.43604" style="fill-opacity: 0; stroke: #00bfbf; stroke-width: 1.5"/>
     <use xlink:href="#m088922a7f9" x="258.905819" y="247.771248" style="fill-opacity: 0; stroke: #00bfbf; stroke-width: 1.5"/>
     <use xlink:href="#m088922a7f9" x="356.0029" y="167.290931" style="fill-opacity: 0; stroke: #00bfbf; stroke-width: 1.5"/>
     <use xlink:href="#m088922a7f9" x="406.137883" y="132.799366" style="fill-opacity: 0; stroke: #00bfbf; stroke-width: 1.5"/>
     <use xlink:href="#m088922a7f9" x="426.795222" y="98.307802" style="fill-opacity: 0; stroke: #00bfbf; stroke-width: 1.5"/>
    </g>
   </g>
   <g id="line2d_124">
    <path clip-path="url(#pa2aa321fef)" style="fill: none; stroke: #00bfbf; stroke-width: 1.5; stroke-linecap: square"/>
   </g>
   <g id="line2d_125">
    <path d="M 281.076445 293.76 
L 281.076445 289.927604 
L 281.279344 289.927604 
L 281.279344 286.095208 
L 281.400605 286.095208 
L 281.400605 282.262812 
L 282.100938 282.262812 
L 282.100938 278.430416 
L 282.574378 278.430416 
L 282.574378 274.59802 
L 283.791883 274.59802 
L 283.791883 270.765624 
L 285.780688 270.765624 
L 285.780688 266.933228 
L 287.469437 266.933228 
L 287.469437 263.100832 
L 287.729867 263.100832 
L 287.729867 259.268436 
L 289.657117 259.268436 
L 289.657117 255.43604 
L 290.018887 255.43604 
L 290.018887 251.603644 
L 290.42617 251.603644 
L 290.42617 247.771248 
L 291.244751 247.771248 
L 291.244751 243.938851 
L 291.387534 243.938851 
L 291.387534 240.106455 
L 291.703068 240.106455 
L 291.703068 236.274059 
L 291.750191 236.274059 
L 291.750191 232.441663 
L 293.50205 232.441663 
L 293.50205 228.609267 
L 294.203172 228.609267 
L 294.203172 224.776871 
L 295.153563 224.776871 
L 295.153563 220.944475 
L 296.265835 220.944475 
L 296.265835 217.112079 
L 349.504496 217.112079 
L 349.504496 213.279683 
L 350.281786 213.279683 
L 350.281786 209.447287 
L 351.760798 209.447287 
L 351.760798 205.614891 
L 352.262727 205.614891 
L 352.262727 201.782495 
L 353.851279 201.782495 
L 353.851279 197.950099 
L 354.670932 197.950099 
L 354.670932 194.117703 
L 354.847866 194.117703 
L 354.847866 190.285307 
L 354.976685 190.285307 
L 354.976685 186.452911 
L 356.377556 186.452911 
L 356.377556 182.620515 
L 357.136077 182.620515 
L 357.136077 178.788119 
L 358.56907 178.788119 
L 358.56907 174.955723 
L 360.064738 174.955723 
L 360.064738 171.123327 
L 364.764224 171.123327 
L 364.764224 167.290931 
L 370.3868 167.290931 
L 370.3868 163.458535 
L 380.588872 163.458535 
L 380.588872 159.626139 
L 381.933819 159.626139 
L 381.933819 155.793743 
L 383.067125 155.793743 
L 383.067125 151.961347 
L 383.685588 151.961347 
L 383.685588 148.12895 
L 384.71646 148.12895 
L 384.71646 144.296554 
L 385.35782 144.296554 
L 385.35782 140.464158 
L 385.765486 140.464158 
L 385.765486 136.631762 
L 386.515418 136.631762 
L 386.515418 132.799366 
L 390.127923 132.799366 
L 390.127923 128.96697 
L 392.350111 128.96697 
L 392.350111 125.134574 
L 399.42966 125.134574 
L 399.42966 121.302178 
L 400.928155 121.302178 
L 400.928155 117.469782 
L 404.727221 117.469782 
L 404.727221 113.637386 
L 422.413291 113.637386 
L 422.413291 109.80499 
L 423.771676 109.80499 
L 423.771676 105.972594 
L 427.288116 105.972594 
L 427.288116 102.140198 
L 427.288116 102.140198 
L 427.288116 102.140198 
L 460.8 102.140198 
" clip-path="url(#pa2aa321fef)" style="fill: none; stroke: #bf00bf; stroke-width: 1.5; stroke-linecap: square"/>
   </g>
   <g id="line2d_126">
    <defs>
     <path id="mdbecfe31f1" d="M 0 14.142136 
L 8.485281 0 
L 0 -14.142136 
L -8.485281 0 
z
" style="stroke: #bf00bf; stroke-width: 1.5; stroke-linejoin: miter"/>
    </defs>
    <g clip-path="url(#pa2aa321fef)">
     <use xlink:href="#mdbecfe31f1" x="296.265835" y="220.944475" style="fill-opacity: 0; stroke: #bf00bf; stroke-width: 1.5; stroke-linejoin: miter"/>
     <use xlink:href="#mdbecfe31f1" x="380.588872" y="163.458535" style="fill-opacity: 0; stroke: #bf00bf; stroke-width: 1.5; stroke-linejoin: miter"/>
     <use xlink:href="#mdbecfe31f1" x="427.288116" y="105.972594" style="fill-opacity: 0; stroke: #bf00bf; stroke-width: 1.5; stroke-linejoin: miter"/>
     <use xlink:href="#mdbecfe31f1" x="427.288116" y="102.140198" style="fill-opacity: 0; stroke: #bf00bf; stroke-width: 1.5; stroke-linejoin: miter"/>
    </g>
   </g>
   <g id="line2d_127">
    <path clip-path="url(#pa2aa321fef)" style="fill: none; stroke: #bf00bf; stroke-width: 1.5; stroke-linecap: square"/>
    <g clip-path="url(#pa2aa321fef)">
     <use xlink:href="#mdbecfe31f1" x="-1" y="581.189703" style="fill-opacity: 0; stroke: #bf00bf; stroke-width: 1.5; stroke-linejoin: miter"/>
     <use xlink:href="#mdbecfe31f1" x="460.8" y="581.189703" style="fill-opacity: 0; stroke: #bf00bf; stroke-width: 1.5; stroke-linejoin: miter"/>
    </g>
   </g>
   <g id="line2d_128">
    <path d="M 282.593987 293.76 
L 282.593987 289.927604 
L 284.019765 289.927604 
L 284.019765 286.095208 
L 286.802219 286.095208 
L 286.802219 282.262812 
L 290.636377 282.262812 
L 290.636377 278.430416 
L 291.640154 278.430416 
L 291.640154 274.59802 
L 292.604688 274.59802 
L 292.604688 270.765624 
L 292.849978 270.765624 
L 292.849978 266.933228 
L 292.956835 266.933228 
L 292.956835 263.100832 
L 293.305998 263.100832 
L 293.305998 259.268436 
L 293.86156 259.268436 
L 293.86156 255.43604 
L 294.010435 255.43604 
L 294.010435 251.603644 
L 294.805197 251.603644 
L 294.805197 247.771248 
L 299.82213 247.771248 
L 299.82213 243.938851 
L 350.504976 243.938851 
L 350.504976 240.106455 
L 350.801942 240.106455 
L 350.801942 236.274059 
L 350.973878 236.274059 
L 350.973878 232.441663 
L 351.378451 232.441663 
L 351.378451 228.609267 
L 352.392666 228.609267 
L 352.392666 224.776871 
L 352.94038 224.776871 
L 352.94038 220.944475 
L 353.333233 220.944475 
L 353.333233 217.112079 
L 354.929272 217.112079 
L 354.929272 213.279683 
L 354.936049 213.279683 
L 354.936049 209.447287 
L 355.034185 209.447287 
L 355.034185 205.614891 
L 355.360744 205.614891 
L 355.360744 201.782495 
L 355.840811 201.782495 
L 355.840811 197.950099 
L 357.494248 197.950099 
L 357.494248 194.117703 
L 358.519406 194.117703 
L 358.519406 190.285307 
L 358.739334 190.285307 
L 358.739334 186.452911 
L 359.065509 186.452911 
L 359.065509 182.620515 
L 359.38304 182.620515 
L 359.38304 178.788119 
L 360.776527 178.788119 
L 360.776527 174.955723 
L 361.435738 174.955723 
L 361.435738 171.123327 
L 361.97333 171.123327 
L 361.97333 167.290931 
L 363.37998 167.290931 
L 363.37998 163.458535 
L 363.67702 163.458535 
L 363.67702 159.626139 
L 376.17777 159.626139 
L 376.17777 155.793743 
L 385.416075 155.793743 
L 385.416075 151.961347 
L 386.373472 151.961347 
L 386.373472 148.12895 
L 387.495584 148.12895 
L 387.495584 144.296554 
L 388.780643 144.296554 
L 388.780643 140.464158 
L 389.266571 140.464158 
L 389.266571 136.631762 
L 401.550462 136.631762 
L 401.550462 132.799366 
L 406.882216 132.799366 
L 406.882216 128.96697 
L 410.760538 128.96697 
L 410.760538 125.134574 
L 411.725643 125.134574 
L 411.725643 121.302178 
L 412.244989 121.302178 
L 412.244989 117.469782 
L 412.698697 117.469782 
L 412.698697 113.637386 
L 415.329402 113.637386 
L 415.329402 109.80499 
L 421.112092 109.80499 
L 421.112092 105.972594 
L 427.084489 105.972594 
L 427.084489 102.140198 
L 427.793692 102.140198 
L 427.793692 98.307802 
L 427.793692 98.307802 
L 427.793692 98.307802 
L 460.8 98.307802 
" clip-path="url(#pa2aa321fef)" style="fill: none; stroke: #bf00bf; stroke-width: 1.5; stroke-linecap: square"/>
   </g>
   <g id="line2d_129">
    <defs>
     <path id="m28d47fc855" d="M 0 7.5 
C 1.989023 7.5 3.896849 6.709753 5.303301 5.303301 
C 6.709753 3.896849 7.5 1.989023 7.5 0 
C 7.5 -1.989023 6.709753 -3.896849 5.303301 -5.303301 
C 3.896849 -6.709753 1.989023 -7.5 0 -7.5 
C -1.989023 -7.5 -3.896849 -6.709753 -5.303301 -5.303301 
C -6.709753 -3.896849 -7.5 -1.989023 -7.5 0 
C -7.5 1.989023 -6.709753 3.896849 -5.303301 5.303301 
C -3.896849 6.709753 -1.989023 7.5 0 7.5 
z
" style="stroke: #bf00bf; stroke-width: 1.5"/>
    </defs>
    <g clip-path="url(#pa2aa321fef)">
     <use xlink:href="#m28d47fc855" x="294.010435" y="255.43604" style="fill-opacity: 0; stroke: #bf00bf; stroke-width: 1.5"/>
     <use xlink:href="#m28d47fc855" x="359.065509" y="186.452911" style="fill-opacity: 0; stroke: #bf00bf; stroke-width: 1.5"/>
     <use xlink:href="#m28d47fc855" x="410.760538" y="128.96697" style="fill-opacity: 0; stroke: #bf00bf; stroke-width: 1.5"/>
     <use xlink:href="#m28d47fc855" x="427.793692" y="98.307802" style="fill-opacity: 0; stroke: #bf00bf; stroke-width: 1.5"/>
    </g>
   </g>
   <g id="line2d_130">
    <path clip-path="url(#pa2aa321fef)" style="fill: none; stroke: #bf00bf; stroke-width: 1.5; stroke-linecap: square"/>
   </g>
   <g id="line2d_131">
    <path d="M 294.673797 293.76 
L 294.673797 289.927604 
L 296.797025 289.927604 
L 296.797025 286.095208 
L 307.253525 286.095208 
L 307.253525 282.262812 
L 309.33383 282.262812 
L 309.33383 278.430416 
L 312.479094 278.430416 
L 312.479094 274.59802 
L 312.649612 274.59802 
L 312.649612 270.765624 
L 312.838253 270.765624 
L 312.838253 266.933228 
L 312.997922 266.933228 
L 312.997922 263.100832 
L 313.035401 263.100832 
L 313.035401 259.268436 
L 313.166312 259.268436 
L 313.166312 255.43604 
L 313.417613 255.43604 
L 313.417613 251.603644 
L 314.795466 251.603644 
L 314.795466 247.771248 
L 314.974557 247.771248 
L 314.974557 243.938851 
L 315.037055 243.938851 
L 315.037055 240.106455 
L 315.330419 240.106455 
L 315.330419 236.274059 
L 315.90222 236.274059 
L 315.90222 232.441663 
L 316.552279 232.441663 
L 316.552279 228.609267 
L 318.220735 228.609267 
L 318.220735 224.776871 
L 319.545309 224.776871 
L 319.545309 220.944475 
L 321.436517 220.944475 
L 321.436517 217.112079 
L 355.969872 217.112079 
L 355.969872 213.279683 
L 356.455999 213.279683 
L 356.455999 209.447287 
L 358.686782 209.447287 
L 358.686782 205.614891 
L 359.791604 205.614891 
L 359.791604 201.782495 
L 362.594129 201.782495 
L 362.594129 197.950099 
L 364.423843 197.950099 
L 364.423843 194.117703 
L 364.627873 194.117703 
L 364.627873 190.285307 
L 364.825568 190.285307 
L 364.825568 186.452911 
L 365.096521 186.452911 
L 365.096521 182.620515 
L 365.307793 182.620515 
L 365.307793 178.788119 
L 367.632761 178.788119 
L 367.632761 174.955723 
L 368.774482 174.955723 
L 368.774482 171.123327 
L 371.462467 171.123327 
L 371.462467 167.290931 
L 372.543932 167.290931 
L 372.543932 163.458535 
L 385.419309 163.458535 
L 385.419309 159.626139 
L 385.691664 159.626139 
L 385.691664 155.793743 
L 386.38453 155.793743 
L 386.38453 151.961347 
L 386.411372 151.961347 
L 386.411372 148.12895 
L 387.829395 148.12895 
L 387.829395 144.296554 
L 389.197292 144.296554 
L 389.197292 140.464158 
L 392.40201 140.464158 
L 392.40201 136.631762 
L 392.918777 136.631762 
L 392.918777 132.799366 
L 393.105707 132.799366 
L 393.105707 128.96697 
L 394.680011 128.96697 
L 394.680011 125.134574 
L 401.56467 125.134574 
L 401.56467 121.302178 
L 402.293623 121.302178 
L 402.293623 117.469782 
L 406.441892 117.469782 
L 406.441892 113.637386 
L 423.502402 113.637386 
L 423.502402 109.80499 
L 425.041606 109.80499 
L 425.041606 105.972594 
L 428.899348 105.972594 
L 428.899348 102.140198 
L 428.899348 102.140198 
L 428.899348 102.140198 
L 460.8 102.140198 
" clip-path="url(#pa2aa321fef)" style="fill: none; stroke: #ff0000; stroke-width: 3; stroke-linecap: square"/>
   </g>
   <g id="line2d_132">
    <defs>
     <path id="me2c12d873f" d="M 0 14.142136 
L 8.485281 0 
L 0 -14.142136 
L -8.485281 0 
z
" style="stroke: #ff0000; stroke-width: 3; stroke-linejoin: miter"/>
    </defs>
    <g clip-path="url(#pa2aa321fef)">
     <use xlink:href="#me2c12d873f" x="314.795466" y="251.603644" style="fill-opacity: 0; stroke: #ff0000; stroke-width: 3; stroke-linejoin: miter"/>
     <use xlink:href="#me2c12d873f" x="365.307793" y="182.620515" style="fill-opacity: 0; stroke: #ff0000; stroke-width: 3; stroke-linejoin: miter"/>
     <use xlink:href="#me2c12d873f" x="401.56467" y="125.134574" style="fill-opacity: 0; stroke: #ff0000; stroke-width: 3; stroke-linejoin: miter"/>
     <use xlink:href="#me2c12d873f" x="428.899348" y="102.140198" style="fill-opacity: 0; stroke: #ff0000; stroke-width: 3; stroke-linejoin: miter"/>
    </g>
   </g>
   <g id="line2d_133">
    <path clip-path="url(#pa2aa321fef)" style="fill: none; stroke: #ff0000; stroke-width: 3; stroke-linecap: square"/>
    <g clip-path="url(#pa2aa321fef)">
     <use xlink:href="#me2c12d873f" x="-1" y="581.189703" style="fill-opacity: 0; stroke: #ff0000; stroke-width: 3; stroke-linejoin: miter"/>
     <use xlink:href="#me2c12d873f" x="460.8" y="581.189703" style="fill-opacity: 0; stroke: #ff0000; stroke-width: 3; stroke-linejoin: miter"/>
    </g>
   </g>
   <g id="line2d_134">
    <path d="M 313.759518 293.76 
L 313.759518 289.927604 
L 315.108365 289.927604 
L 315.108365 286.095208 
L 315.797252 286.095208 
L 315.797252 282.262812 
L 315.963328 282.262812 
L 315.963328 278.430416 
L 317.056549 278.430416 
L 317.056549 274.59802 
L 317.655313 274.59802 
L 317.655313 270.765624 
L 317.97224 270.765624 
L 317.97224 266.933228 
L 318.737747 266.933228 
L 318.737747 263.100832 
L 318.835494 263.100832 
L 318.835494 259.268436 
L 319.457248 259.268436 
L 319.457248 255.43604 
L 320.266686 255.43604 
L 320.266686 251.603644 
L 321.68022 251.603644 
L 321.68022 247.771248 
L 324.169988 247.771248 
L 324.169988 243.938851 
L 354.664111 243.938851 
L 354.664111 240.106455 
L 355.105103 240.106455 
L 355.105103 236.274059 
L 355.578134 236.274059 
L 355.578134 232.441663 
L 357.369881 232.441663 
L 357.369881 228.609267 
L 357.947077 228.609267 
L 357.947077 224.776871 
L 359.549981 224.776871 
L 359.549981 220.944475 
L 361.002312 220.944475 
L 361.002312 217.112079 
L 361.383619 217.112079 
L 361.383619 213.279683 
L 362.877312 213.279683 
L 362.877312 209.447287 
L 364.159252 209.447287 
L 364.159252 205.614891 
L 364.383455 205.614891 
L 364.383455 201.782495 
L 365.536329 201.782495 
L 365.536329 197.950099 
L 366.463626 197.950099 
L 366.463626 194.117703 
L 367.119197 194.117703 
L 367.119197 190.285307 
L 367.167065 190.285307 
L 367.167065 186.452911 
L 367.310339 186.452911 
L 367.310339 182.620515 
L 367.95762 182.620515 
L 367.95762 178.788119 
L 368.078477 178.788119 
L 368.078477 174.955723 
L 368.272586 174.955723 
L 368.272586 171.123327 
L 369.167326 171.123327 
L 369.167326 167.290931 
L 370.6653 167.290931 
L 370.6653 163.458535 
L 370.93274 163.458535 
L 370.93274 159.626139 
L 381.384694 159.626139 
L 381.384694 155.793743 
L 387.619931 155.793743 
L 387.619931 151.961347 
L 389.939993 151.961347 
L 389.939993 148.12895 
L 391.277145 148.12895 
L 391.277145 144.296554 
L 392.955153 144.296554 
L 392.955153 140.464158 
L 393.752704 140.464158 
L 393.752704 136.631762 
L 404.111365 136.631762 
L 404.111365 132.799366 
L 407.696296 132.799366 
L 407.696296 128.96697 
L 413.883366 128.96697 
L 413.883366 125.134574 
L 413.974841 125.134574 
L 413.974841 121.302178 
L 414.598392 121.302178 
L 414.598392 117.469782 
L 415.123884 117.469782 
L 415.123884 113.637386 
L 416.939914 113.637386 
L 416.939914 109.80499 
L 422.684516 109.80499 
L 422.684516 105.972594 
L 428.568712 105.972594 
L 428.568712 102.140198 
L 429.054424 102.140198 
L 429.054424 98.307802 
L 429.054424 98.307802 
L 429.054424 98.307802 
L 460.8 98.307802 
" clip-path="url(#pa2aa321fef)" style="fill: none; stroke: #ff0000; stroke-width: 3; stroke-linecap: square"/>
   </g>
   <g id="line2d_135">
    <defs>
     <path id="mfac714efb8" d="M 0 7.5 
C 1.989023 7.5 3.896849 6.709753 5.303301 5.303301 
C 6.709753 3.896849 7.5 1.989023 7.5 0 
C 7.5 -1.989023 6.709753 -3.896849 5.303301 -5.303301 
C 3.896849 -6.709753 1.989023 -7.5 0 -7.5 
C -1.989023 -7.5 -3.896849 -6.709753 -5.303301 -5.303301 
C -6.709753 -3.896849 -7.5 -1.989023 -7.5 0 
C -7.5 1.989023 -6.709753 3.896849 -5.303301 5.303301 
C -3.896849 6.709753 -1.989023 7.5 0 7.5 
z
" style="stroke: #ff0000; stroke-width: 3"/>
    </defs>
    <g clip-path="url(#pa2aa321fef)">
     <use xlink:href="#mfac714efb8" x="364.383455" y="205.614891" style="fill-opacity: 0; stroke: #ff0000; stroke-width: 3"/>
     <use xlink:href="#mfac714efb8" x="393.752704" y="140.464158" style="fill-opacity: 0; stroke: #ff0000; stroke-width: 3"/>
     <use xlink:href="#mfac714efb8" x="429.054424" y="102.140198" style="fill-opacity: 0; stroke: #ff0000; stroke-width: 3"/>
     <use xlink:href="#mfac714efb8" x="429.054424" y="98.307802" style="fill-opacity: 0; stroke: #ff0000; stroke-width: 3"/>
    </g>
   </g>
   <g id="line2d_136">
    <path clip-path="url(#pa2aa321fef)" style="fill: none; stroke: #ff0000; stroke-width: 3; stroke-linecap: square"/>
   </g>
   <g id="line2d_137">
    <path d="M 441.819429 293.76 
L 441.819429 3.456 
" clip-path="url(#pa2aa321fef)" style="fill: none; stroke: #000000; stroke-width: 1.5; stroke-linecap: square"/>
    <defs>
     <path id="md1333b4d8d" d="M -10 0 
L 10 0 
M 0 10 
L 0 -10 
" style="stroke: #000000; stroke-width: 3"/>
    </defs>
    <g clip-path="url(#pa2aa321fef)">
     <use xlink:href="#md1333b4d8d" x="441.819429" y="293.76" style="stroke: #000000; stroke-width: 3"/>
     <use xlink:href="#md1333b4d8d" x="441.819429" y="3.456" style="stroke: #000000; stroke-width: 3"/>
    </g>
   </g>
   <g id="line2d_138">
    <path d="M 441.819429 293.76 
L 441.819429 3.456 
" clip-path="url(#pa2aa321fef)" style="fill: none; stroke: #000000; stroke-width: 1.5; stroke-linecap: square"/>
    <defs>
     <path id="m0c25242f00" d="M 0 7.5 
C 1.989023 7.5 3.896849 6.709753 5.303301 5.303301 
C 6.709753 3.896849 7.5 1.989023 7.5 0 
C 7.5 -1.989023 6.709753 -3.896849 5.303301 -5.303301 
C 3.896849 -6.709753 1.989023 -7.5 0 -7.5 
C -1.989023 -7.5 -3.896849 -6.709753 -5.303301 -5.303301 
C -6.709753 -3.896849 -7.5 -1.989023 -7.5 0 
C -7.5 1.989023 -6.709753 3.896849 -5.303301 5.303301 
C -3.896849 6.709753 -1.989023 7.5 0 7.5 
z
" style="stroke: #000000; stroke-width: 3"/>
    </defs>
    <g clip-path="url(#pa2aa321fef)">
     <use xlink:href="#m0c25242f00" x="441.819429" y="293.76" style="fill-opacity: 0; stroke: #000000; stroke-width: 3"/>
     <use xlink:href="#m0c25242f00" x="441.819429" y="3.456" style="fill-opacity: 0; stroke: #000000; stroke-width: 3"/>
    </g>
   </g>
   <g id="patch_3">
    <path d="M 62.208 293.76 
L 62.208 3.456 
" style="fill: none; stroke: #000000; stroke-width: 0.8; stroke-linejoin: miter; stroke-linecap: square"/>
   </g>
   <g id="patch_4">
    <path d="M 460.8 293.76 
L 460.8 3.456 
" style="fill: none; stroke: #000000; stroke-width: 0.8; stroke-linejoin: miter; stroke-linecap: square"/>
   </g>
   <g id="patch_5">
    <path d="M 62.208 293.76 
L 460.8 293.76 
" style="fill: none; stroke: #000000; stroke-width: 0.8; stroke-linejoin: miter; stroke-linecap: square"/>
   </g>
   <g id="patch_6">
    <path d="M 62.208 3.456 
L 460.8 3.456 
" style="fill: none; stroke: #000000; stroke-width: 0.8; stroke-linejoin: miter; stroke-linecap: square"/>
   </g>
   <g id="text_12">
    <!-- f15-f19 -->
    <g transform="translate(225.405563 24.458955) scale(0.2 -0.2)">
     <defs>
      <path id="DejaVuSans-35" d="M 691 4666 
L 3169 4666 
L 3169 4134 
L 1269 4134 
L 1269 2991 
Q 1406 3038 1543 3061 
Q 1681 3084 1819 3084 
Q 2600 3084 3056 2656 
Q 3513 2228 3513 1497 
Q 3513 744 3044 326 
Q 2575 -91 1722 -91 
Q 1428 -91 1123 -41 
Q 819 9 494 109 
L 494 744 
Q 775 591 1075 516 
Q 1375 441 1709 441 
Q 2250 441 2565 725 
Q 2881 1009 2881 1497 
Q 2881 1984 2565 2268 
Q 2250 2553 1709 2553 
Q 1456 2553 1204 2497 
Q 953 2441 691 2322 
L 691 4666 
z
" transform="scale(0.015625)"/>
      <path id="DejaVuSans-2d" d="M 313 2009 
L 1997 2009 
L 1997 1497 
L 313 1497 
L 313 2009 
z
" transform="scale(0.015625)"/>
      <path id="DejaVuSans-39" d="M 703 97 
L 703 672 
Q 941 559 1184 500 
Q 1428 441 1663 441 
Q 2288 441 2617 861 
Q 2947 1281 2994 2138 
Q 2813 1869 2534 1725 
Q 2256 1581 1919 1581 
Q 1219 1581 811 2004 
Q 403 2428 403 3163 
Q 403 3881 828 4315 
Q 1253 4750 1959 4750 
Q 2769 4750 3195 4129 
Q 3622 3509 3622 2328 
Q 3622 1225 3098 567 
Q 2575 -91 1691 -91 
Q 1453 -91 1209 -44 
Q 966 3 703 97 
z
M 1959 2075 
Q 2384 2075 2632 2365 
Q 2881 2656 2881 3163 
Q 2881 3666 2632 3958 
Q 2384 4250 1959 4250 
Q 1534 4250 1286 3958 
Q 1038 3666 1038 3163 
Q 1038 2656 1286 2365 
Q 1534 2075 1959 2075 
z
" transform="scale(0.015625)"/>
     </defs>
     <use xlink:href="#DejaVuSans-66"/>
     <use xlink:href="#DejaVuSans-31" x="35.205078"/>
     <use xlink:href="#DejaVuSans-35" x="98.828125"/>
     <use xlink:href="#DejaVuSans-2d" x="162.451172"/>
     <use xlink:href="#DejaVuSans-66" x="198.535156"/>
     <use xlink:href="#DejaVuSans-31" x="233.740234"/>
     <use xlink:href="#DejaVuSans-39" x="297.363281"/>
    </g>
   </g>
   <g id="text_13">
    <!-- absolute targets -->
    <g transform="translate(62.208 609.932673) scale(0.14 -0.14)">
     <defs>
      <path id="DejaVuSans-62" d="M 3116 1747 
Q 3116 2381 2855 2742 
Q 2594 3103 2138 3103 
Q 1681 3103 1420 2742 
Q 1159 2381 1159 1747 
Q 1159 1113 1420 752 
Q 1681 391 2138 391 
Q 2594 391 2855 752 
Q 3116 1113 3116 1747 
z
M 1159 2969 
Q 1341 3281 1617 3432 
Q 1894 3584 2278 3584 
Q 2916 3584 3314 3078 
Q 3713 2572 3713 1747 
Q 3713 922 3314 415 
Q 2916 -91 2278 -91 
Q 1894 -91 1617 61 
Q 1341 213 1159 525 
L 1159 0 
L 581 0 
L 581 4863 
L 1159 4863 
L 1159 2969 
z
" transform="scale(0.015625)"/>
      <path id="DejaVuSans-75" d="M 544 1381 
L 544 3500 
L 1119 3500 
L 1119 1403 
Q 1119 906 1312 657 
Q 1506 409 1894 409 
Q 2359 409 2629 706 
Q 2900 1003 2900 1516 
L 2900 3500 
L 3475 3500 
L 3475 0 
L 2900 0 
L 2900 538 
Q 2691 219 2414 64 
Q 2138 -91 1772 -91 
Q 1169 -91 856 284 
Q 544 659 544 1381 
z
M 1991 3584 
L 1991 3584 
z
" transform="scale(0.015625)"/>
      <path id="DejaVuSans-65" d="M 3597 1894 
L 3597 1613 
L 953 1613 
Q 991 1019 1311 708 
Q 1631 397 2203 397 
Q 2534 397 2845 478 
Q 3156 559 3463 722 
L 3463 178 
Q 3153 47 2828 -22 
Q 2503 -91 2169 -91 
Q 1331 -91 842 396 
Q 353 884 353 1716 
Q 353 2575 817 3079 
Q 1281 3584 2069 3584 
Q 2775 3584 3186 3129 
Q 3597 2675 3597 1894 
z
M 3022 2063 
Q 3016 2534 2758 2815 
Q 2500 3097 2075 3097 
Q 1594 3097 1305 2825 
Q 1016 2553 972 2059 
L 3022 2063 
z
" transform="scale(0.015625)"/>
     </defs>
     <use xlink:href="#DejaVuSans-61"/>
     <use xlink:href="#DejaVuSans-62" x="61.279297"/>
     <use xlink:href="#DejaVuSans-73" x="124.755859"/>
     <use xlink:href="#DejaVuSans-6f" x="176.855469"/>
     <use xlink:href="#DejaVuSans-6c" x="238.037109"/>
     <use xlink:href="#DejaVuSans-75" x="265.820312"/>
     <use xlink:href="#DejaVuSans-74" x="329.199219"/>
     <use xlink:href="#DejaVuSans-65" x="368.408203"/>
     <use xlink:href="#DejaVuSans-20" x="429.931641"/>
     <use xlink:href="#DejaVuSans-74" x="461.71875"/>
     <use xlink:href="#DejaVuSans-61" x="500.927734"/>
     <use xlink:href="#DejaVuSans-72" x="562.207031"/>
     <use xlink:href="#DejaVuSans-67" x="601.570312"/>
     <use xlink:href="#DejaVuSans-65" x="665.046875"/>
     <use xlink:href="#DejaVuSans-74" x="726.570312"/>
     <use xlink:href="#DejaVuSans-73" x="765.779297"/>
    </g>
   </g>
   <g id="text_14">
    <!-- v2.6.3 -->
    <g style="fill: #808080" transform="translate(245.82275 288.777272) scale(0.1 -0.1)">
     <defs>
      <path id="DejaVuSans-33" d="M 2597 2516 
Q 3050 2419 3304 2112 
Q 3559 1806 3559 1356 
Q 3559 666 3084 287 
Q 2609 -91 1734 -91 
Q 1441 -91 1130 -33 
Q 819 25 488 141 
L 488 750 
Q 750 597 1062 519 
Q 1375 441 1716 441 
Q 2309 441 2620 675 
Q 2931 909 2931 1356 
Q 2931 1769 2642 2001 
Q 2353 2234 1838 2234 
L 1294 2234 
L 1294 2753 
L 1863 2753 
Q 2328 2753 2575 2939 
Q 2822 3125 2822 3475 
Q 2822 3834 2567 4026 
Q 2313 4219 1838 4219 
Q 1578 4219 1281 4162 
Q 984 4106 628 3988 
L 628 4550 
Q 988 4650 1302 4700 
Q 1616 4750 1894 4750 
Q 2613 4750 3031 4423 
Q 3450 4097 3450 3541 
Q 3450 3153 3228 2886 
Q 3006 2619 2597 2516 
z
" transform="scale(0.015625)"/>
     </defs>
     <use xlink:href="#DejaVuSans-76"/>
     <use xlink:href="#DejaVuSans-32" x="59.179688"/>
     <use xlink:href="#DejaVuSans-2e" x="122.802734"/>
     <use xlink:href="#DejaVuSans-36" x="154.589844"/>
     <use xlink:href="#DejaVuSans-2e" x="218.212891"/>
     <use xlink:href="#DejaVuSans-33" x="250"/>
    </g>
   </g>
   <g id="legend_1">
    <g id="patch_7">
     <path d="M 76.208 136.881 
L 160.148625 136.881 
Q 164.148625 136.881 164.148625 132.881 
L 164.148625 17.456 
Q 164.148625 13.456 160.148625 13.456 
L 76.208 13.456 
Q 72.208 13.456 72.208 17.456 
L 72.208 132.881 
Q 72.208 136.881 76.208 136.881 
z
" style="fill: #ffffff; opacity: 0.2; stroke: #cccccc; stroke-linejoin: miter"/>
    </g>
    <g id="line2d_139">
     <path d="M 80.208 29.652875 
L 80.208 29.652875 
L 100.208 29.652875 
L 100.208 29.652875 
L 120.208 29.652875 
" style="fill: none; stroke: #000000; stroke-width: 1.5; stroke-linecap: square"/>
    </g>
    <g id="text_15">
     <!-- 1 -->
     <g transform="translate(136.208 36.652875) scale(0.2 -0.2)">
      <use xlink:href="#DejaVuSans-31"/>
     </g>
    </g>
    <g id="line2d_140">
     <path d="M 80.208 59.009125 
L 80.208 59.009125 
L 100.208 59.009125 
L 100.208 59.009125 
L 120.208 59.009125 
" style="fill: none; stroke: #00bfbf; stroke-width: 1.5; stroke-linecap: square"/>
    </g>
    <g id="text_16">
     <!-- -1 -->
     <g transform="translate(136.208 66.009125) scale(0.2 -0.2)">
      <use xlink:href="#DejaVuSans-2d"/>
      <use xlink:href="#DejaVuSans-31" x="36.083984"/>
     </g>
    </g>
    <g id="line2d_141">
     <path d="M 80.208 88.365375 
L 80.208 88.365375 
L 100.208 88.365375 
L 100.208 88.365375 
L 120.208 88.365375 
" style="fill: none; stroke: #bf00bf; stroke-width: 1.5; stroke-linecap: square"/>
    </g>
    <g id="text_17">
     <!-- -4 -->
     <g transform="translate(136.208 95.365375) scale(0.2 -0.2)">
      <use xlink:href="#DejaVuSans-2d"/>
      <use xlink:href="#DejaVuSans-34" x="36.083984"/>
     </g>
    </g>
    <g id="line2d_142">
     <path d="M 80.208 117.721625 
L 80.208 117.721625 
L 100.208 117.721625 
L 100.208 117.721625 
L 120.208 117.721625 
" style="fill: none; stroke: #ff0000; stroke-width: 3; stroke-linecap: square"/>
    </g>
    <g id="text_18">
     <!-- -8 -->
     <g transform="translate(136.208 124.721625) scale(0.2 -0.2)">
      <use xlink:href="#DejaVuSans-2d"/>
      <use xlink:href="#DejaVuSans-38" x="36.083984"/>
     </g>
    </g>
   </g>
  </g>
 </g>
 <defs>
  <clipPath id="pa2aa321fef">
   <rect x="62.208" y="3.456" width="398.592" height="290.304"/>
  </clipPath>
 </defs>
</svg>
