<?xml version="1.0" encoding="utf-8" standalone="no"?>
<!DOCTYPE svg PUBLIC "-//W3C//DTD SVG 1.1//EN"
  "http://www.w3.org/Graphics/SVG/1.1/DTD/svg11.dtd">
<svg xmlns:xlink="http://www.w3.org/1999/xlink" width="460.8pt" height="345.6pt" viewBox="0 0 460.8 345.6" xmlns="http://www.w3.org/2000/svg" version="1.1">
 <metadata>
  <rdf:RDF xmlns:dc="http://purl.org/dc/elements/1.1/" xmlns:cc="http://creativecommons.org/ns#" xmlns:rdf="http://www.w3.org/1999/02/22-rdf-syntax-ns#">
   <cc:Work>
    <dc:type rdf:resource="http://purl.org/dc/dcmitype/StillImage"/>
    <dc:date>2024-06-05T10:00:28.668434</dc:date>
    <dc:format>image/svg+xml</dc:format>
    <dc:creator>
     <cc:Agent>
      <dc:title>Matplotlib v3.7.1, https://matplotlib.org/</dc:title>
     </cc:Agent>
    </dc:creator>
   </cc:Work>
  </rdf:RDF>
 </metadata>
 <defs>
  <style type="text/css">*{stroke-linejoin: round; stroke-linecap: butt}</style>
 </defs>
 <g id="figure_1">
  <g id="patch_1">
   <path d="M 0 345.6 
L 460.8 345.6 
L 460.8 0 
L 0 0 
z
" style="fill: #ffffff"/>
  </g>
  <g id="axes_1">
   <g id="patch_2">
    <path d="M 34.16 291.28 
L 453.192 291.28 
L 453.192 3 
L 34.16 3 
z
" style="fill: #ffffff"/>
   </g>
   <g id="matplotlib.axis_1">
    <g id="xtick_1">
     <g id="line2d_1">
      <path d="M 156.793364 291.28 
L 156.793364 3 
" clip-path="url(#p44043fb1e7)" style="fill: none; stroke: #b0b0b0; stroke-width: 0.8; stroke-linecap: square"/>
     </g>
     <g id="line2d_2">
      <defs>
       <path id="ma730f61213" d="M 0 0 
L 0 3.5 
" style="stroke: #000000; stroke-width: 0.8"/>
      </defs>
      <g>
       <use xlink:href="#ma730f61213" x="156.793364" y="291.28" style="stroke: #000000; stroke-width: 0.8"/>
      </g>
     </g>
     <g id="text_1">
      <!-- -1 -->
      <g transform="translate(146.823051 313.476875) scale(0.2 -0.2)">
       <defs>
        <path id="DejaVuSans-2d" d="M 313 2009 
L 1997 2009 
L 1997 1497 
L 313 1497 
L 313 2009 
z
" transform="scale(0.015625)"/>
        <path id="DejaVuSans-31" d="M 794 531 
L 1825 531 
L 1825 4091 
L 703 3866 
L 703 4441 
L 1819 4666 
L 2450 4666 
L 2450 531 
L 3481 531 
L 3481 0 
L 794 0 
L 794 531 
z
" transform="scale(0.015625)"/>
       </defs>
       <use xlink:href="#DejaVuSans-2d"/>
       <use xlink:href="#DejaVuSans-31" x="36.083984"/>
      </g>
     </g>
    </g>
    <g id="xtick_2">
     <g id="line2d_3">
      <path d="M 330.558636 291.28 
L 330.558636 3 
" clip-path="url(#p44043fb1e7)" style="fill: none; stroke: #b0b0b0; stroke-width: 0.8; stroke-linecap: square"/>
     </g>
     <g id="line2d_4">
      <g>
       <use xlink:href="#ma730f61213" x="330.558636" y="291.28" style="stroke: #000000; stroke-width: 0.8"/>
      </g>
     </g>
     <g id="text_2">
      <!-- 1 -->
      <g transform="translate(324.196136 313.476875) scale(0.2 -0.2)">
       <use xlink:href="#DejaVuSans-31"/>
      </g>
     </g>
    </g>
    <g id="xtick_3">
     <g id="line2d_5">
      <defs>
       <path id="m5f6382b76b" d="M 0 0 
L 0 2 
" style="stroke: #000000; stroke-width: 0.6"/>
      </defs>
      <g>
       <use xlink:href="#m5f6382b76b" x="35.336651" y="291.28" style="stroke: #000000; stroke-width: 0.6"/>
      </g>
     </g>
    </g>
    <g id="xtick_4">
     <g id="line2d_6">
      <g>
       <use xlink:href="#m5f6382b76b" x="43.756448" y="291.28" style="stroke: #000000; stroke-width: 0.6"/>
      </g>
     </g>
    </g>
    <g id="xtick_5">
     <g id="line2d_7">
      <g>
       <use xlink:href="#m5f6382b76b" x="50.635924" y="291.28" style="stroke: #000000; stroke-width: 0.6"/>
      </g>
     </g>
    </g>
    <g id="xtick_6">
     <g id="line2d_8">
      <g>
       <use xlink:href="#m5f6382b76b" x="56.452437" y="291.28" style="stroke: #000000; stroke-width: 0.6"/>
      </g>
     </g>
    </g>
    <g id="xtick_7">
     <g id="line2d_9">
      <g>
       <use xlink:href="#m5f6382b76b" x="61.49093" y="291.28" style="stroke: #000000; stroke-width: 0.6"/>
      </g>
     </g>
    </g>
    <g id="xtick_8">
     <g id="line2d_10">
      <g>
       <use xlink:href="#m5f6382b76b" x="65.935196" y="291.28" style="stroke: #000000; stroke-width: 0.6"/>
      </g>
     </g>
    </g>
    <g id="xtick_9">
     <g id="line2d_11">
      <g>
       <use xlink:href="#m5f6382b76b" x="96.065007" y="291.28" style="stroke: #000000; stroke-width: 0.6"/>
      </g>
     </g>
    </g>
    <g id="xtick_10">
     <g id="line2d_12">
      <g>
       <use xlink:href="#m5f6382b76b" x="111.36428" y="291.28" style="stroke: #000000; stroke-width: 0.6"/>
      </g>
     </g>
    </g>
    <g id="xtick_11">
     <g id="line2d_13">
      <g>
       <use xlink:href="#m5f6382b76b" x="122.219287" y="291.28" style="stroke: #000000; stroke-width: 0.6"/>
      </g>
     </g>
    </g>
    <g id="xtick_12">
     <g id="line2d_14">
      <g>
       <use xlink:href="#m5f6382b76b" x="130.639084" y="291.28" style="stroke: #000000; stroke-width: 0.6"/>
      </g>
     </g>
    </g>
    <g id="xtick_13">
     <g id="line2d_15">
      <g>
       <use xlink:href="#m5f6382b76b" x="137.51856" y="291.28" style="stroke: #000000; stroke-width: 0.6"/>
      </g>
     </g>
    </g>
    <g id="xtick_14">
     <g id="line2d_16">
      <g>
       <use xlink:href="#m5f6382b76b" x="143.335073" y="291.28" style="stroke: #000000; stroke-width: 0.6"/>
      </g>
     </g>
    </g>
    <g id="xtick_15">
     <g id="line2d_17">
      <g>
       <use xlink:href="#m5f6382b76b" x="148.373567" y="291.28" style="stroke: #000000; stroke-width: 0.6"/>
      </g>
     </g>
    </g>
    <g id="xtick_16">
     <g id="line2d_18">
      <g>
       <use xlink:href="#m5f6382b76b" x="152.817832" y="291.28" style="stroke: #000000; stroke-width: 0.6"/>
      </g>
     </g>
    </g>
    <g id="xtick_17">
     <g id="line2d_19">
      <g>
       <use xlink:href="#m5f6382b76b" x="182.947643" y="291.28" style="stroke: #000000; stroke-width: 0.6"/>
      </g>
     </g>
    </g>
    <g id="xtick_18">
     <g id="line2d_20">
      <g>
       <use xlink:href="#m5f6382b76b" x="198.246916" y="291.28" style="stroke: #000000; stroke-width: 0.6"/>
      </g>
     </g>
    </g>
    <g id="xtick_19">
     <g id="line2d_21">
      <g>
       <use xlink:href="#m5f6382b76b" x="209.101923" y="291.28" style="stroke: #000000; stroke-width: 0.6"/>
      </g>
     </g>
    </g>
    <g id="xtick_20">
     <g id="line2d_22">
      <g>
       <use xlink:href="#m5f6382b76b" x="217.52172" y="291.28" style="stroke: #000000; stroke-width: 0.6"/>
      </g>
     </g>
    </g>
    <g id="xtick_21">
     <g id="line2d_23">
      <g>
       <use xlink:href="#m5f6382b76b" x="224.401196" y="291.28" style="stroke: #000000; stroke-width: 0.6"/>
      </g>
     </g>
    </g>
    <g id="xtick_22">
     <g id="line2d_24">
      <g>
       <use xlink:href="#m5f6382b76b" x="230.217709" y="291.28" style="stroke: #000000; stroke-width: 0.6"/>
      </g>
     </g>
    </g>
    <g id="xtick_23">
     <g id="line2d_25">
      <g>
       <use xlink:href="#m5f6382b76b" x="235.256203" y="291.28" style="stroke: #000000; stroke-width: 0.6"/>
      </g>
     </g>
    </g>
    <g id="xtick_24">
     <g id="line2d_26">
      <g>
       <use xlink:href="#m5f6382b76b" x="239.700469" y="291.28" style="stroke: #000000; stroke-width: 0.6"/>
      </g>
     </g>
    </g>
    <g id="xtick_25">
     <g id="line2d_27">
      <g>
       <use xlink:href="#m5f6382b76b" x="269.83028" y="291.28" style="stroke: #000000; stroke-width: 0.6"/>
      </g>
     </g>
    </g>
    <g id="xtick_26">
     <g id="line2d_28">
      <g>
       <use xlink:href="#m5f6382b76b" x="285.129552" y="291.28" style="stroke: #000000; stroke-width: 0.6"/>
      </g>
     </g>
    </g>
    <g id="xtick_27">
     <g id="line2d_29">
      <g>
       <use xlink:href="#m5f6382b76b" x="295.984559" y="291.28" style="stroke: #000000; stroke-width: 0.6"/>
      </g>
     </g>
    </g>
    <g id="xtick_28">
     <g id="line2d_30">
      <g>
       <use xlink:href="#m5f6382b76b" x="304.404357" y="291.28" style="stroke: #000000; stroke-width: 0.6"/>
      </g>
     </g>
    </g>
    <g id="xtick_29">
     <g id="line2d_31">
      <g>
       <use xlink:href="#m5f6382b76b" x="311.283832" y="291.28" style="stroke: #000000; stroke-width: 0.6"/>
      </g>
     </g>
    </g>
    <g id="xtick_30">
     <g id="line2d_32">
      <g>
       <use xlink:href="#m5f6382b76b" x="317.100345" y="291.28" style="stroke: #000000; stroke-width: 0.6"/>
      </g>
     </g>
    </g>
    <g id="xtick_31">
     <g id="line2d_33">
      <g>
       <use xlink:href="#m5f6382b76b" x="322.138839" y="291.28" style="stroke: #000000; stroke-width: 0.6"/>
      </g>
     </g>
    </g>
    <g id="xtick_32">
     <g id="line2d_34">
      <g>
       <use xlink:href="#m5f6382b76b" x="326.583105" y="291.28" style="stroke: #000000; stroke-width: 0.6"/>
      </g>
     </g>
    </g>
    <g id="xtick_33">
     <g id="line2d_35">
      <g>
       <use xlink:href="#m5f6382b76b" x="356.712916" y="291.28" style="stroke: #000000; stroke-width: 0.6"/>
      </g>
     </g>
    </g>
    <g id="xtick_34">
     <g id="line2d_36">
      <g>
       <use xlink:href="#m5f6382b76b" x="372.012188" y="291.28" style="stroke: #000000; stroke-width: 0.6"/>
      </g>
     </g>
    </g>
    <g id="xtick_35">
     <g id="line2d_37">
      <g>
       <use xlink:href="#m5f6382b76b" x="382.867195" y="291.28" style="stroke: #000000; stroke-width: 0.6"/>
      </g>
     </g>
    </g>
    <g id="xtick_36">
     <g id="line2d_38">
      <g>
       <use xlink:href="#m5f6382b76b" x="391.286993" y="291.28" style="stroke: #000000; stroke-width: 0.6"/>
      </g>
     </g>
    </g>
    <g id="xtick_37">
     <g id="line2d_39">
      <g>
       <use xlink:href="#m5f6382b76b" x="398.166468" y="291.28" style="stroke: #000000; stroke-width: 0.6"/>
      </g>
     </g>
    </g>
    <g id="xtick_38">
     <g id="line2d_40">
      <g>
       <use xlink:href="#m5f6382b76b" x="403.982982" y="291.28" style="stroke: #000000; stroke-width: 0.6"/>
      </g>
     </g>
    </g>
    <g id="xtick_39">
     <g id="line2d_41">
      <g>
       <use xlink:href="#m5f6382b76b" x="409.021475" y="291.28" style="stroke: #000000; stroke-width: 0.6"/>
      </g>
     </g>
    </g>
    <g id="xtick_40">
     <g id="line2d_42">
      <g>
       <use xlink:href="#m5f6382b76b" x="413.465741" y="291.28" style="stroke: #000000; stroke-width: 0.6"/>
      </g>
     </g>
    </g>
    <g id="xtick_41">
     <g id="line2d_43">
      <g>
       <use xlink:href="#m5f6382b76b" x="443.595552" y="291.28" style="stroke: #000000; stroke-width: 0.6"/>
      </g>
     </g>
    </g>
    <g id="text_3">
     <!-- log10 of FEvals ratio -->
     <g transform="translate(141.371312 336.833125) scale(0.2 -0.2)">
      <defs>
       <path id="DejaVuSans-6c" d="M 603 4863 
L 1178 4863 
L 1178 0 
L 603 0 
L 603 4863 
z
" transform="scale(0.015625)"/>
       <path id="DejaVuSans-6f" d="M 1959 3097 
Q 1497 3097 1228 2736 
Q 959 2375 959 1747 
Q 959 1119 1226 758 
Q 1494 397 1959 397 
Q 2419 397 2687 759 
Q 2956 1122 2956 1747 
Q 2956 2369 2687 2733 
Q 2419 3097 1959 3097 
z
M 1959 3584 
Q 2709 3584 3137 3096 
Q 3566 2609 3566 1747 
Q 3566 888 3137 398 
Q 2709 -91 1959 -91 
Q 1206 -91 779 398 
Q 353 888 353 1747 
Q 353 2609 779 3096 
Q 1206 3584 1959 3584 
z
" transform="scale(0.015625)"/>
       <path id="DejaVuSans-67" d="M 2906 1791 
Q 2906 2416 2648 2759 
Q 2391 3103 1925 3103 
Q 1463 3103 1205 2759 
Q 947 2416 947 1791 
Q 947 1169 1205 825 
Q 1463 481 1925 481 
Q 2391 481 2648 825 
Q 2906 1169 2906 1791 
z
M 3481 434 
Q 3481 -459 3084 -895 
Q 2688 -1331 1869 -1331 
Q 1566 -1331 1297 -1286 
Q 1028 -1241 775 -1147 
L 775 -588 
Q 1028 -725 1275 -790 
Q 1522 -856 1778 -856 
Q 2344 -856 2625 -561 
Q 2906 -266 2906 331 
L 2906 616 
Q 2728 306 2450 153 
Q 2172 0 1784 0 
Q 1141 0 747 490 
Q 353 981 353 1791 
Q 353 2603 747 3093 
Q 1141 3584 1784 3584 
Q 2172 3584 2450 3431 
Q 2728 3278 2906 2969 
L 2906 3500 
L 3481 3500 
L 3481 434 
z
" transform="scale(0.015625)"/>
       <path id="DejaVuSans-30" d="M 2034 4250 
Q 1547 4250 1301 3770 
Q 1056 3291 1056 2328 
Q 1056 1369 1301 889 
Q 1547 409 2034 409 
Q 2525 409 2770 889 
Q 3016 1369 3016 2328 
Q 3016 3291 2770 3770 
Q 2525 4250 2034 4250 
z
M 2034 4750 
Q 2819 4750 3233 4129 
Q 3647 3509 3647 2328 
Q 3647 1150 3233 529 
Q 2819 -91 2034 -91 
Q 1250 -91 836 529 
Q 422 1150 422 2328 
Q 422 3509 836 4129 
Q 1250 4750 2034 4750 
z
" transform="scale(0.015625)"/>
       <path id="DejaVuSans-20" transform="scale(0.015625)"/>
       <path id="DejaVuSans-66" d="M 2375 4863 
L 2375 4384 
L 1825 4384 
Q 1516 4384 1395 4259 
Q 1275 4134 1275 3809 
L 1275 3500 
L 2222 3500 
L 2222 3053 
L 1275 3053 
L 1275 0 
L 697 0 
L 697 3053 
L 147 3053 
L 147 3500 
L 697 3500 
L 697 3744 
Q 697 4328 969 4595 
Q 1241 4863 1831 4863 
L 2375 4863 
z
" transform="scale(0.015625)"/>
       <path id="DejaVuSans-46" d="M 628 4666 
L 3309 4666 
L 3309 4134 
L 1259 4134 
L 1259 2759 
L 3109 2759 
L 3109 2228 
L 1259 2228 
L 1259 0 
L 628 0 
L 628 4666 
z
" transform="scale(0.015625)"/>
       <path id="DejaVuSans-45" d="M 628 4666 
L 3578 4666 
L 3578 4134 
L 1259 4134 
L 1259 2753 
L 3481 2753 
L 3481 2222 
L 1259 2222 
L 1259 531 
L 3634 531 
L 3634 0 
L 628 0 
L 628 4666 
z
" transform="scale(0.015625)"/>
       <path id="DejaVuSans-76" d="M 191 3500 
L 800 3500 
L 1894 563 
L 2988 3500 
L 3597 3500 
L 2284 0 
L 1503 0 
L 191 3500 
z
" transform="scale(0.015625)"/>
       <path id="DejaVuSans-61" d="M 2194 1759 
Q 1497 1759 1228 1600 
Q 959 1441 959 1056 
Q 959 750 1161 570 
Q 1363 391 1709 391 
Q 2188 391 2477 730 
Q 2766 1069 2766 1631 
L 2766 1759 
L 2194 1759 
z
M 3341 1997 
L 3341 0 
L 2766 0 
L 2766 531 
Q 2569 213 2275 61 
Q 1981 -91 1556 -91 
Q 1019 -91 701 211 
Q 384 513 384 1019 
Q 384 1609 779 1909 
Q 1175 2209 1959 2209 
L 2766 2209 
L 2766 2266 
Q 2766 2663 2505 2880 
Q 2244 3097 1772 3097 
Q 1472 3097 1187 3025 
Q 903 2953 641 2809 
L 641 3341 
Q 956 3463 1253 3523 
Q 1550 3584 1831 3584 
Q 2591 3584 2966 3190 
Q 3341 2797 3341 1997 
z
" transform="scale(0.015625)"/>
       <path id="DejaVuSans-73" d="M 2834 3397 
L 2834 2853 
Q 2591 2978 2328 3040 
Q 2066 3103 1784 3103 
Q 1356 3103 1142 2972 
Q 928 2841 928 2578 
Q 928 2378 1081 2264 
Q 1234 2150 1697 2047 
L 1894 2003 
Q 2506 1872 2764 1633 
Q 3022 1394 3022 966 
Q 3022 478 2636 193 
Q 2250 -91 1575 -91 
Q 1294 -91 989 -36 
Q 684 19 347 128 
L 347 722 
Q 666 556 975 473 
Q 1284 391 1588 391 
Q 1994 391 2212 530 
Q 2431 669 2431 922 
Q 2431 1156 2273 1281 
Q 2116 1406 1581 1522 
L 1381 1569 
Q 847 1681 609 1914 
Q 372 2147 372 2553 
Q 372 3047 722 3315 
Q 1072 3584 1716 3584 
Q 2034 3584 2315 3537 
Q 2597 3491 2834 3397 
z
" transform="scale(0.015625)"/>
       <path id="DejaVuSans-72" d="M 2631 2963 
Q 2534 3019 2420 3045 
Q 2306 3072 2169 3072 
Q 1681 3072 1420 2755 
Q 1159 2438 1159 1844 
L 1159 0 
L 581 0 
L 581 3500 
L 1159 3500 
L 1159 2956 
Q 1341 3275 1631 3429 
Q 1922 3584 2338 3584 
Q 2397 3584 2469 3576 
Q 2541 3569 2628 3553 
L 2631 2963 
z
" transform="scale(0.015625)"/>
       <path id="DejaVuSans-74" d="M 1172 4494 
L 1172 3500 
L 2356 3500 
L 2356 3053 
L 1172 3053 
L 1172 1153 
Q 1172 725 1289 603 
Q 1406 481 1766 481 
L 2356 481 
L 2356 0 
L 1766 0 
Q 1100 0 847 248 
Q 594 497 594 1153 
L 594 3053 
L 172 3053 
L 172 3500 
L 594 3500 
L 594 4494 
L 1172 4494 
z
" transform="scale(0.015625)"/>
       <path id="DejaVuSans-69" d="M 603 3500 
L 1178 3500 
L 1178 0 
L 603 0 
L 603 3500 
z
M 603 4863 
L 1178 4863 
L 1178 4134 
L 603 4134 
L 603 4863 
z
" transform="scale(0.015625)"/>
      </defs>
      <use xlink:href="#DejaVuSans-6c"/>
      <use xlink:href="#DejaVuSans-6f" x="27.783203"/>
      <use xlink:href="#DejaVuSans-67" x="88.964844"/>
      <use xlink:href="#DejaVuSans-31" x="152.441406"/>
      <use xlink:href="#DejaVuSans-30" x="216.064453"/>
      <use xlink:href="#DejaVuSans-20" x="279.6875"/>
      <use xlink:href="#DejaVuSans-6f" x="311.474609"/>
      <use xlink:href="#DejaVuSans-66" x="372.65625"/>
      <use xlink:href="#DejaVuSans-20" x="407.861328"/>
      <use xlink:href="#DejaVuSans-46" x="439.648438"/>
      <use xlink:href="#DejaVuSans-45" x="497.167969"/>
      <use xlink:href="#DejaVuSans-76" x="560.351562"/>
      <use xlink:href="#DejaVuSans-61" x="619.53125"/>
      <use xlink:href="#DejaVuSans-6c" x="680.810547"/>
      <use xlink:href="#DejaVuSans-73" x="708.59375"/>
      <use xlink:href="#DejaVuSans-20" x="760.693359"/>
      <use xlink:href="#DejaVuSans-72" x="792.480469"/>
      <use xlink:href="#DejaVuSans-61" x="833.59375"/>
      <use xlink:href="#DejaVuSans-74" x="894.873047"/>
      <use xlink:href="#DejaVuSans-69" x="934.082031"/>
      <use xlink:href="#DejaVuSans-6f" x="961.865234"/>
     </g>
    </g>
   </g>
   <g id="matplotlib.axis_2">
    <g id="ytick_1">
     <g id="line2d_44">
      <path d="M 34.16 288.453725 
L 453.192 288.453725 
" clip-path="url(#p44043fb1e7)" style="fill: none; stroke: #b0b0b0; stroke-width: 0.8; stroke-linecap: square"/>
     </g>
     <g id="line2d_45">
      <defs>
       <path id="m04c8d90be9" d="M 0 0 
L -3.5 0 
" style="stroke: #000000; stroke-width: 0.8"/>
      </defs>
      <g>
       <use xlink:href="#m04c8d90be9" x="34.16" y="288.453725" style="stroke: #000000; stroke-width: 0.8"/>
      </g>
     </g>
    </g>
    <g id="ytick_2">
     <g id="line2d_46">
      <path d="M 34.16 217.796863 
L 453.192 217.796863 
" clip-path="url(#p44043fb1e7)" style="fill: none; stroke: #b0b0b0; stroke-width: 0.8; stroke-linecap: square"/>
     </g>
     <g id="line2d_47">
      <g>
       <use xlink:href="#m04c8d90be9" x="34.16" y="217.796863" style="stroke: #000000; stroke-width: 0.8"/>
      </g>
     </g>
    </g>
    <g id="ytick_3">
     <g id="line2d_48">
      <path d="M 34.16 147.14 
L 453.192 147.14 
" clip-path="url(#p44043fb1e7)" style="fill: none; stroke: #b0b0b0; stroke-width: 0.8; stroke-linecap: square"/>
     </g>
     <g id="line2d_49">
      <g>
       <use xlink:href="#m04c8d90be9" x="34.16" y="147.14" style="stroke: #000000; stroke-width: 0.8"/>
      </g>
     </g>
    </g>
    <g id="ytick_4">
     <g id="line2d_50">
      <path d="M 34.16 76.483137 
L 453.192 76.483137 
" clip-path="url(#p44043fb1e7)" style="fill: none; stroke: #b0b0b0; stroke-width: 0.8; stroke-linecap: square"/>
     </g>
     <g id="line2d_51">
      <g>
       <use xlink:href="#m04c8d90be9" x="34.16" y="76.483137" style="stroke: #000000; stroke-width: 0.8"/>
      </g>
     </g>
    </g>
    <g id="ytick_5">
     <g id="line2d_52">
      <path d="M 34.16 5.826275 
L 453.192 5.826275 
" clip-path="url(#p44043fb1e7)" style="fill: none; stroke: #b0b0b0; stroke-width: 0.8; stroke-linecap: square"/>
     </g>
     <g id="line2d_53">
      <g>
       <use xlink:href="#m04c8d90be9" x="34.16" y="5.826275" style="stroke: #000000; stroke-width: 0.8"/>
      </g>
     </g>
    </g>
    <g id="text_4">
     <!-- proportion of trials -->
     <g transform="translate(19.000625 240.14625) rotate(-90) scale(0.2 -0.2)">
      <defs>
       <path id="DejaVuSans-70" d="M 1159 525 
L 1159 -1331 
L 581 -1331 
L 581 3500 
L 1159 3500 
L 1159 2969 
Q 1341 3281 1617 3432 
Q 1894 3584 2278 3584 
Q 2916 3584 3314 3078 
Q 3713 2572 3713 1747 
Q 3713 922 3314 415 
Q 2916 -91 2278 -91 
Q 1894 -91 1617 61 
Q 1341 213 1159 525 
z
M 3116 1747 
Q 3116 2381 2855 2742 
Q 2594 3103 2138 3103 
Q 1681 3103 1420 2742 
Q 1159 2381 1159 1747 
Q 1159 1113 1420 752 
Q 1681 391 2138 391 
Q 2594 391 2855 752 
Q 3116 1113 3116 1747 
z
" transform="scale(0.015625)"/>
       <path id="DejaVuSans-6e" d="M 3513 2113 
L 3513 0 
L 2938 0 
L 2938 2094 
Q 2938 2591 2744 2837 
Q 2550 3084 2163 3084 
Q 1697 3084 1428 2787 
Q 1159 2491 1159 1978 
L 1159 0 
L 581 0 
L 581 3500 
L 1159 3500 
L 1159 2956 
Q 1366 3272 1645 3428 
Q 1925 3584 2291 3584 
Q 2894 3584 3203 3211 
Q 3513 2838 3513 2113 
z
" transform="scale(0.015625)"/>
      </defs>
      <use xlink:href="#DejaVuSans-70"/>
      <use xlink:href="#DejaVuSans-72" x="63.476562"/>
      <use xlink:href="#DejaVuSans-6f" x="102.339844"/>
      <use xlink:href="#DejaVuSans-70" x="163.521484"/>
      <use xlink:href="#DejaVuSans-6f" x="226.998047"/>
      <use xlink:href="#DejaVuSans-72" x="288.179688"/>
      <use xlink:href="#DejaVuSans-74" x="329.292969"/>
      <use xlink:href="#DejaVuSans-69" x="368.501953"/>
      <use xlink:href="#DejaVuSans-6f" x="396.285156"/>
      <use xlink:href="#DejaVuSans-6e" x="457.466797"/>
      <use xlink:href="#DejaVuSans-20" x="520.845703"/>
      <use xlink:href="#DejaVuSans-6f" x="552.632812"/>
      <use xlink:href="#DejaVuSans-66" x="613.814453"/>
      <use xlink:href="#DejaVuSans-20" x="649.019531"/>
      <use xlink:href="#DejaVuSans-74" x="680.806641"/>
      <use xlink:href="#DejaVuSans-72" x="720.015625"/>
      <use xlink:href="#DejaVuSans-69" x="761.128906"/>
      <use xlink:href="#DejaVuSans-61" x="788.912109"/>
      <use xlink:href="#DejaVuSans-6c" x="850.191406"/>
      <use xlink:href="#DejaVuSans-73" x="877.974609"/>
     </g>
    </g>
   </g>
   <g id="line2d_54">
    <path d="M 34.16 274.271703 
L 88.367581 274.271703 
L 88.367581 273.934036 
L 102.5291 273.934036 
L 102.5291 273.596368 
L 112.762979 273.596368 
L 112.762979 273.258701 
L 115.807282 273.258701 
L 115.807282 272.921034 
L 119.090452 272.921034 
L 119.090452 272.583367 
L 121.693426 272.583367 
L 121.693426 272.2457 
L 122.08011 272.2457 
L 122.08011 271.908032 
L 123.046052 271.908032 
L 123.046052 271.570365 
L 123.229204 271.570365 
L 123.229204 271.232698 
L 124.058705 271.232698 
L 124.058705 270.895031 
L 126.160698 270.895031 
L 126.160698 270.557364 
L 127.193413 270.557364 
L 127.193413 270.219696 
L 127.377621 270.219696 
L 127.377621 269.882029 
L 128.114405 269.882029 
L 128.140455 269.206695 
L 128.546038 269.206695 
L 128.546038 268.869028 
L 128.72919 268.869028 
L 128.72919 268.53136 
L 129.558691 268.53136 
L 129.558691 268.193693 
L 131.045623 268.193693 
L 131.045623 267.856026 
L 131.660684 267.856026 
L 131.660684 267.518359 
L 132.398249 267.518359 
L 132.398249 267.180692 
L 132.5814 267.180692 
L 132.5814 266.843024 
L 133.410901 266.843024 
L 133.410901 266.505357 
L 135.512894 266.505357 
L 135.512894 266.16769 
L 141.084869 266.16769 
L 141.084869 265.830023 
L 146.337629 265.830023 
L 146.337629 265.492356 
L 147.508888 265.492356 
L 147.508888 265.154688 
L 147.690255 265.154688 
L 147.690255 264.817021 
L 147.873407 264.817021 
L 147.873407 264.479354 
L 148.702907 264.479354 
L 148.702907 264.141687 
L 150.464021 264.141687 
L 150.464021 263.804019 
L 150.8049 263.804019 
L 150.8049 263.466352 
L 151.816647 263.466352 
L 151.816647 263.128685 
L 151.999799 263.128685 
L 151.999799 262.791018 
L 152.8293 262.791018 
L 152.8293 262.453351 
L 154.931293 262.453351 
L 154.931293 262.115683 
L 157.047006 262.115683 
L 157.047006 261.778016 
L 158.399632 261.778016 
L 158.399632 261.440349 
L 158.582783 261.440349 
L 158.582783 261.102682 
L 159.412284 261.102682 
L 159.412284 260.765015 
L 161.514277 260.765015 
L 161.514277 260.427347 
L 167.734792 260.427347 
L 167.734792 260.08968 
L 172.419164 260.08968 
L 172.419164 259.752013 
L 173.77179 259.752013 
L 173.841049 259.076679 
L 173.954941 259.076679 
L 173.954941 258.739011 
L 174.784442 258.739011 
L 174.784442 258.401344 
L 175.193675 258.401344 
L 175.193675 258.063677 
L 175.376826 258.063677 
L 175.376826 257.72601 
L 175.507659 257.72601 
L 175.507659 257.388343 
L 176.14296 257.388343 
L 176.206327 256.713008 
L 176.356812 256.713008 
L 176.356812 256.375341 
L 176.860285 256.375341 
L 176.886435 255.700007 
L 177.043437 255.700007 
L 177.148753 255.024672 
L 177.709438 255.024672 
L 177.709438 254.687005 
L 177.872938 254.687005 
L 177.89259 254.011671 
L 178.30832 254.011671 
L 178.30832 253.674003 
L 178.501379 253.674003 
L 178.501379 253.336336 
L 178.684531 253.336336 
L 178.722091 252.661002 
L 179.514032 252.661002 
L 179.514032 252.323335 
L 179.974931 252.323335 
L 179.974931 251.985667 
L 180.824084 251.985667 
L 180.824084 251.648 
L 181.425633 251.648 
L 181.425633 251.310333 
L 181.616025 251.310333 
L 181.616025 250.972666 
L 182.778259 250.972666 
L 182.778259 250.634998 
L 182.961411 250.634998 
L 182.961411 250.297331 
L 183.790912 250.297331 
L 183.790912 249.959664 
L 185.892904 249.959664 
L 185.892904 249.621997 
L 188.786579 249.621997 
L 188.786579 249.28433 
L 190.304479 249.28433 
L 190.304479 248.946662 
L 190.627561 248.946662 
L 190.627561 248.608995 
L 192.717556 248.608995 
L 192.717556 248.271328 
L 194.745826 248.271328 
L 194.745826 247.933661 
L 200.538358 247.933661 
L 200.538358 247.595994 
L 201.594527 247.595994 
L 201.594527 247.258326 
L 201.815281 247.258326 
L 201.815281 246.920659 
L 202.039974 246.920659 
L 202.039974 246.582992 
L 202.948098 246.582992 
L 202.948098 246.245325 
L 203.582661 246.245325 
L 203.582661 245.907658 
L 204.78908 245.907658 
L 204.78908 245.56999 
L 205.363243 245.56999 
L 205.363243 245.232323 
L 206.865831 245.232323 
L 206.879075 244.556989 
L 207.221823 244.556989 
L 207.221823 244.219322 
L 208.658199 244.219322 
L 208.658199 243.881654 
L 208.907345 243.881654 
L 208.907345 243.543987 
L 209.477375 243.543987 
L 209.477375 243.20632 
L 209.855489 243.20632 
L 209.855489 242.868653 
L 211.238449 242.868653 
L 211.238449 242.530986 
L 211.937335 242.530986 
L 211.937335 242.193318 
L 212.860868 242.193318 
L 212.860868 241.855651 
L 213.181977 241.855651 
L 213.181977 241.517984 
L 213.553662 241.517984 
L 213.553662 241.180317 
L 215.022959 241.180317 
L 215.022959 240.84265 
L 215.153 240.84265 
L 215.153 240.504982 
L 215.52365 240.504982 
L 215.52365 240.167315 
L 215.744403 240.167315 
L 215.744403 239.829648 
L 215.889784 239.829648 
L 215.969096 238.816646 
L 216.22628 238.816646 
L 216.22628 238.478979 
L 216.708645 238.478979 
L 216.708645 238.141312 
L 217.112954 238.141312 
L 217.112954 237.803645 
L 217.437321 237.803645 
L 217.437321 237.465977 
L 218.067262 237.465977 
L 218.070313 236.790643 
L 218.553893 236.790643 
L 218.553893 236.452976 
L 219.141224 236.452976 
L 219.141224 236.115309 
L 219.50945 236.115309 
L 219.524761 235.439974 
L 220.157257 235.439974 
L 220.157257 235.102307 
L 220.876635 235.102307 
L 220.876635 234.76464 
L 221.289531 234.76464 
L 221.383342 233.751638 
L 221.835711 233.751638 
L 221.835711 233.413971 
L 222.185527 233.413971 
L 222.185527 233.076304 
L 222.36182 233.076304 
L 222.36182 232.738637 
L 222.499108 232.738637 
L 222.587322 231.725635 
L 222.807266 231.725635 
L 222.807266 231.387968 
L 223.27663 231.387968 
L 223.27663 231.050301 
L 223.440427 231.050301 
L 223.440427 230.712633 
L 223.570299 230.712633 
L 223.638894 229.699632 
L 224.14187 229.699632 
L 224.14187 229.361965 
L 224.34009 229.361965 
L 224.432922 228.348963 
L 224.505463 228.348963 
L 224.587317 227.673629 
L 224.653675 227.673629 
L 224.726216 226.998294 
L 224.878369 226.998294 
L 224.95091 226.32296 
L 225.399968 226.32296 
L 225.468697 225.647625 
L 226.223316 225.647625 
L 226.223316 225.309958 
L 226.430085 225.309958 
L 226.430085 224.972291 
L 226.789991 224.972291 
L 226.789991 224.634624 
L 227.422509 224.634624 
L 227.422509 224.296956 
L 227.71518 224.296956 
L 227.796619 223.283955 
L 227.999895 223.283955 
L 227.999895 222.946288 
L 228.224589 222.946288 
L 228.224589 222.60862 
L 228.458355 222.60862 
L 228.559452 221.257952 
L 228.860247 221.257952 
L 228.860247 220.920284 
L 229.425492 220.920284 
L 229.425492 220.582617 
L 229.637601 220.582617 
L 229.676581 219.907283 
L 229.758641 219.907283 
L 229.758641 219.569616 
L 230.374385 219.569616 
L 230.400434 218.894281 
L 230.870163 218.894281 
L 230.946053 218.218947 
L 231.205542 218.218947 
L 231.205542 217.88128 
L 231.496594 217.88128 
L 231.571697 216.868278 
L 231.617221 216.868278 
L 231.727596 215.855276 
L 231.999323 215.855276 
L 231.999323 215.517609 
L 232.307919 215.517609 
L 232.338424 214.842275 
L 232.46438 214.842275 
L 232.490429 214.16694 
L 232.802944 214.16694 
L 232.802944 213.829273 
L 233.628161 213.829273 
L 233.628161 213.491606 
L 233.755866 213.491606 
L 233.755866 213.153939 
L 233.872773 213.153939 
L 233.971751 212.478604 
L 234.12343 212.478604 
L 234.12343 212.140937 
L 234.30988 212.140937 
L 234.399318 211.465603 
L 234.49265 211.465603 
L 234.5187 210.790268 
L 234.630662 210.790268 
L 234.661524 210.114934 
L 234.842814 210.114934 
L 234.842814 209.777267 
L 235.284267 209.777267 
L 235.284267 209.439599 
L 235.408211 209.439599 
L 235.408211 209.101932 
L 235.633847 209.101932 
L 235.699263 208.426598 
L 235.764833 208.426598 
L 235.771804 207.751263 
L 236.086113 207.751263 
L 236.086113 207.413596 
L 236.223687 207.413596 
L 236.223687 207.075929 
L 236.371746 207.075929 
L 236.446173 206.400595 
L 236.581537 206.400595 
L 236.684972 205.387593 
L 236.896479 205.387593 
L 236.917076 204.712259 
L 237.030656 204.712259 
L 237.030656 204.374591 
L 237.654695 204.374591 
L 237.654695 204.036924 
L 237.793539 204.036924 
L 237.793539 203.699257 
L 237.944694 203.699257 
L 237.94906 203.023923 
L 238.350367 203.023923 
L 238.454529 202.348588 
L 238.637507 202.348588 
L 238.67815 201.673254 
L 238.846167 201.673254 
L 238.931911 200.997919 
L 239.032617 200.997919 
L 239.075772 199.984918 
L 239.219221 199.984918 
L 239.219221 199.64725 
L 239.343136 199.64725 
L 239.343136 199.309583 
L 239.977438 199.309583 
L 239.977438 198.971916 
L 240.200246 198.971916 
L 240.200246 198.634249 
L 240.673109 198.634249 
L 240.777271 197.621247 
L 240.934352 197.621247 
L 240.993363 196.608246 
L 241.104043 196.608246 
L 241.104043 196.270578 
L 241.503866 196.270578 
L 241.503866 195.932911 
L 241.619216 195.932911 
L 241.723673 195.257577 
L 241.749553 195.257577 
L 241.749553 194.91991 
L 241.96132 194.91991 
L 241.96132 194.582242 
L 242.184958 194.582242 
L 242.184958 194.244575 
L 242.377432 194.244575 
L 242.377432 193.906908 
L 242.554854 193.906908 
L 242.603003 193.231574 
L 242.714515 193.231574 
L 242.714515 192.893906 
L 243.011578 192.893906 
L 243.073104 192.218572 
L 243.177266 192.218572 
L 243.189904 191.543238 
L 243.344848 191.543238 
L 243.360244 190.867903 
L 244.072296 190.867903 
L 244.148346 190.192569 
L 244.276532 190.192569 
L 244.383053 189.179567 
L 244.431897 189.179567 
L 244.431897 188.8419 
L 244.674105 188.8419 
L 244.746646 188.166565 
L 244.877596 188.166565 
L 244.950978 187.491231 
L 245.110066 187.491231 
L 245.136116 186.815897 
L 245.331707 186.815897 
L 245.434843 186.140562 
L 245.575883 186.140562 
L 245.575883 185.802895 
L 245.733216 185.802895 
L 245.733216 185.465228 
L 246.037168 185.465228 
L 246.127971 184.789893 
L 246.231863 184.789893 
L 246.231863 184.452226 
L 246.47229 184.452226 
L 246.499943 183.776892 
L 246.840908 183.776892 
L 246.840908 183.439225 
L 246.968647 183.439225 
L 247.01256 182.426223 
L 247.266191 182.426223 
L 247.290914 181.413221 
L 247.431515 181.413221 
L 247.463114 180.737887 
L 247.673069 180.737887 
L 247.700743 180.062553 
L 247.927886 180.062553 
L 248.027419 179.049551 
L 248.284108 179.049551 
L 248.284108 178.711884 
L 248.487415 178.711884 
L 248.511564 178.036549 
L 249.224199 178.036549 
L 249.250249 177.361215 
L 249.768868 177.361215 
L 249.768868 177.023548 
L 250.248489 177.023548 
L 250.248489 176.68588 
L 250.421174 176.68588 
L 250.465825 176.010546 
L 250.831693 176.010546 
L 250.831693 175.672879 
L 250.985273 175.672879 
L 251.071722 174.659877 
L 251.192019 174.659877 
L 251.192019 174.32221 
L 251.568835 174.32221 
L 251.627957 173.646876 
L 251.858863 173.646876 
L 251.909094 172.971541 
L 252.363774 172.971541 
L 252.438252 172.296207 
L 252.563702 172.296207 
L 252.563702 171.95854 
L 253.097163 171.95854 
L 253.097163 171.620872 
L 253.300485 171.620872 
L 253.326535 170.945538 
L 253.423892 170.945538 
L 253.423892 170.607871 
L 253.887133 170.607871 
L 253.887133 170.270204 
L 254.231837 170.270204 
L 254.231837 169.932536 
L 254.354891 169.932536 
L 254.354891 169.594869 
L 254.683903 169.594869 
L 254.749066 168.919535 
L 254.912674 168.919535 
L 254.912674 168.581868 
L 255.099123 168.581868 
L 255.099123 168.2442 
L 255.342493 168.2442 
L 255.370166 167.568866 
L 255.480167 167.568866 
L 255.510171 166.893532 
L 255.718685 166.893532 
L 255.718685 166.555864 
L 255.967095 166.555864 
L 255.967095 166.218197 
L 256.101692 166.218197 
L 256.101692 165.88053 
L 256.284844 165.88053 
L 256.284844 165.542863 
L 256.455468 165.542863 
L 256.481518 164.867528 
L 256.631831 164.867528 
L 256.733822 163.854527 
L 257.068821 163.854527 
L 257.114345 163.179192 
L 257.34455 163.179192 
L 257.34455 162.841525 
L 257.575032 162.841525 
L 257.685722 162.166191 
L 258.08053 162.166191 
L 258.08053 161.828523 
L 258.319223 161.828523 
L 258.319223 161.490856 
L 258.443939 161.490856 
L 258.443939 161.153189 
L 258.706224 161.153189 
L 258.795758 160.477855 
L 258.823431 160.477855 
L 258.823431 160.140187 
L 259.011398 160.140187 
L 259.087954 159.464853 
L 259.13961 159.464853 
L 259.243772 158.451851 
L 259.42675 158.451851 
L 259.42675 158.114184 
L 259.671849 158.114184 
L 259.778125 157.101183 
L 259.855001 157.101183 
L 259.93911 156.425848 
L 260.544216 156.425848 
L 260.544216 156.088181 
L 260.684502 156.088181 
L 260.768185 155.412847 
L 260.795859 155.412847 
L 260.867889 154.737512 
L 260.921032 154.737512 
L 260.921032 154.399845 
L 261.329174 154.399845 
L 261.427096 153.724511 
L 261.454769 153.724511 
L 261.454769 153.386843 
L 262.194662 153.386843 
L 262.294568 152.711509 
L 262.538797 152.711509 
L 262.642061 151.698507 
L 262.663072 151.698507 
L 262.663072 151.36084 
L 262.786494 151.36084 
L 262.850516 150.685506 
L 263.061295 150.685506 
L 263.07521 150.010171 
L 263.242607 150.010171 
L 263.344097 148.99717 
L 263.378844 148.99717 
L 263.45673 147.646501 
L 263.576114 147.646501 
L 263.576114 147.308834 
L 263.955736 147.308834 
L 263.955736 146.971166 
L 264.084957 146.971166 
L 264.084957 146.633499 
L 264.504549 146.633499 
L 264.504549 146.295832 
L 264.994282 146.295832 
L 264.994282 145.958165 
L 265.284226 145.958165 
L 265.284226 145.620498 
L 265.455567 145.620498 
L 265.455567 145.28283 
L 265.751567 145.28283 
L 265.751567 144.945163 
L 266.015655 144.945163 
L 266.050953 143.932162 
L 266.270949 143.932162 
L 266.36313 143.256827 
L 266.600721 143.256827 
L 266.600721 142.91916 
L 266.757377 142.91916 
L 266.801545 141.906158 
L 267.386269 141.906158 
L 267.497216 140.555489 
L 267.573705 140.555489 
L 267.65578 139.542488 
L 267.702506 139.542488 
L 267.784357 138.529486 
L 268.15379 138.529486 
L 268.15379 138.191819 
L 268.618682 138.191819 
L 268.618682 137.854152 
L 268.79605 137.854152 
L 268.79605 137.516485 
L 269.225303 137.516485 
L 269.240937 136.84115 
L 269.425932 136.84115 
L 269.425932 136.503483 
L 269.621961 136.503483 
L 269.693435 135.828149 
L 269.975909 135.828149 
L 269.994772 135.152814 
L 270.210642 135.152814 
L 270.217935 134.47748 
L 270.379756 134.47748 
L 270.379756 134.139813 
L 270.581737 134.139813 
L 270.581737 133.802145 
L 270.772173 133.802145 
L 270.86873 132.451477 
L 270.896403 132.451477 
L 270.896403 132.113809 
L 271.318521 132.113809 
L 271.348464 131.100808 
L 271.577266 131.100808 
L 271.67403 130.087806 
L 271.701704 130.087806 
L 271.782173 129.412472 
L 271.884546 129.412472 
L 271.884546 129.074805 
L 272.038551 129.074805 
L 272.135907 127.386468 
L 272.18307 127.386468 
L 272.18307 127.048801 
L 272.694968 127.048801 
L 272.733699 126.0358 
L 272.811962 126.0358 
L 272.84198 125.360465 
L 273.470872 125.360465 
L 273.52564 124.685131 
L 273.598266 124.685131 
L 273.598266 124.347464 
L 273.896104 124.347464 
L 273.896104 124.009796 
L 274.102302 124.009796 
L 274.113037 123.334462 
L 274.28549 123.334462 
L 274.28549 122.996795 
L 274.657491 122.996795 
L 274.657491 122.659128 
L 274.843941 122.659128 
L 274.898566 121.983793 
L 275.286383 121.983793 
L 275.286383 121.646126 
L 275.472833 121.646126 
L 275.472833 121.308459 
L 275.836222 121.308459 
L 275.849951 120.633124 
L 276.213038 120.633124 
L 276.213038 120.295457 
L 276.349308 120.295457 
L 276.349308 119.95779 
L 276.894727 119.95779 
L 276.910361 119.282456 
L 277.291384 119.282456 
L 277.291384 118.944788 
L 277.43054 118.944788 
L 277.43054 118.607121 
L 277.802519 118.607121 
L 277.802519 118.269454 
L 278.059432 118.269454 
L 278.059432 117.931787 
L 278.188756 117.931787 
L 278.188756 117.59412 
L 278.365157 117.59412 
L 278.446538 116.918785 
L 278.817648 116.918785 
L 278.884427 116.243451 
L 278.988589 116.243451 
L 278.988589 115.905783 
L 279.171568 115.905783 
L 279.171568 115.568116 
L 279.513319 115.568116 
L 279.617481 114.892782 
L 279.80046 114.892782 
L 279.805331 114.217447 
L 279.962614 114.217447 
L 279.962614 113.87978 
L 280.33943 113.87978 
L 280.363626 112.866779 
L 280.685286 112.866779 
L 280.744649 112.191444 
L 281.028271 112.191444 
L 281.055944 111.51611 
L 281.267689 111.51611 
L 281.267689 111.178443 
L 281.48155 111.178443 
L 281.48155 110.840775 
L 282.283614 110.840775 
L 282.336054 109.827774 
L 282.717077 109.827774 
L 282.773327 109.152439 
L 282.870946 109.152439 
L 282.97933 108.139438 
L 282.994964 108.139438 
L 283.088915 107.464103 
L 283.258595 107.464103 
L 283.258595 107.126436 
L 283.375987 107.126436 
L 283.375987 106.788769 
L 283.717807 106.788769 
L 283.717807 106.451102 
L 284.288984 106.451102 
L 284.288984 106.113435 
L 284.720954 106.113435 
L 284.810475 104.762766 
L 284.98129 104.762766 
L 285.055712 103.749764 
L 285.191498 103.749764 
L 285.231023 103.07443 
L 285.377948 103.07443 
L 285.377948 102.736762 
L 285.889934 102.736762 
L 285.889934 102.399095 
L 286.115961 102.399095 
L 286.115961 102.061428 
L 286.545599 102.061428 
L 286.589034 101.386094 
L 286.693382 101.386094 
L 286.693382 101.048426 
L 286.922414 101.048426 
L 286.949424 100.373092 
L 287.352292 100.373092 
L 287.410709 99.697758 
L 287.567889 99.697758 
L 287.583523 99.022423 
L 287.705444 99.022423 
L 287.705444 98.684756 
L 287.891894 98.684756 
L 287.964547 98.009422 
L 288.326106 98.009422 
L 288.371309 96.99642 
L 288.662385 96.99642 
L 288.722763 96.321086 
L 288.832594 96.321086 
L 288.844586 95.645751 
L 289.021777 95.645751 
L 289.125939 94.63275 
L 289.141573 94.63275 
L 289.167803 93.957415 
L 289.308917 93.957415 
L 289.418434 92.606746 
L 289.522596 92.606746 
L 289.569226 91.931412 
L 289.657648 91.931412 
L 289.705575 91.256077 
L 290.03792 91.256077 
L 290.03792 90.91841 
L 290.478493 90.91841 
L 290.499205 90.243076 
L 290.60566 90.243076 
L 290.713004 89.567741 
L 290.887073 89.567741 
L 290.887073 89.230074 
L 291.079533 89.230074 
L 291.079533 88.892407 
L 291.23671 88.892407 
L 291.23671 88.55474 
L 291.348358 88.55474 
L 291.348358 88.217073 
L 291.479731 88.217073 
L 291.541654 87.541738 
L 291.679014 87.541738 
L 291.679014 87.204071 
L 291.932381 87.204071 
L 292.036543 86.191069 
L 292.140299 86.191069 
L 292.219521 85.178068 
L 292.420964 85.178068 
L 292.443155 84.165066 
L 292.699068 84.165066 
L 292.746144 83.489732 
L 292.817621 83.489732 
L 292.920872 82.814397 
L 293.072047 82.814397 
L 293.072047 82.47673 
L 293.226264 82.47673 
L 293.241898 81.801396 
L 293.39474 81.801396 
L 293.498902 81.126061 
L 293.595297 81.126061 
L 293.68188 80.11306 
L 293.737315 80.11306 
L 293.737315 79.775393 
L 294.016075 79.775393 
L 294.016075 79.437725 
L 294.202525 79.437725 
L 294.202525 79.100058 
L 294.387238 79.100058 
L 294.387238 78.762391 
L 295.1592 78.762391 
L 295.1592 78.424724 
L 295.331567 78.424724 
L 295.331567 78.087056 
L 295.955893 78.087056 
L 296.057444 77.411722 
L 296.075855 77.411722 
L 296.136868 76.736388 
L 296.331809 76.736388 
L 296.417179 76.061053 
L 296.789124 76.061053 
L 296.853708 74.710384 
L 297.479329 74.710384 
L 297.54734 74.03505 
L 297.599227 74.03505 
L 297.674964 73.359716 
L 298.243012 73.359716 
L 298.347174 72.346714 
L 298.466905 72.346714 
L 298.530152 71.67138 
L 298.664118 71.67138 
L 298.664118 71.333712 
L 299.14594 71.333712 
L 299.14594 70.996045 
L 299.785074 70.996045 
L 299.785074 70.658378 
L 299.942204 70.658378 
L 299.995093 69.983044 
L 300.787034 69.983044 
L 300.791357 69.307709 
L 301.583298 69.307709 
L 301.642198 68.632375 
L 301.757502 68.632375 
L 301.757502 68.294708 
L 301.917757 68.294708 
L 301.917757 67.95704 
L 302.294572 67.95704 
L 302.294572 67.619373 
L 302.416412 67.619373 
L 302.447499 66.944039 
L 302.580505 66.944039 
L 302.596139 66.268704 
L 302.743785 66.268704 
L 302.743785 65.931037 
L 302.977162 65.931037 
L 302.999231 65.255703 
L 303.339642 65.255703 
L 303.339642 64.918035 
L 303.716457 64.918035 
L 303.716457 64.580368 
L 304.231923 64.580368 
L 304.231923 64.242701 
L 304.418372 64.242701 
L 304.418372 63.905034 
L 305.006252 63.905034 
L 305.063914 63.229699 
L 305.383068 63.229699 
L 305.491108 62.554365 
L 305.855405 62.554365 
L 305.944 61.541363 
L 306.232221 61.541363 
L 306.232221 61.203696 
L 306.647346 61.203696 
L 306.647346 60.866029 
L 306.953467 60.866029 
L 307.024162 59.853027 
L 307.296626 59.853027 
L 307.296626 59.51536 
L 307.479778 59.51536 
L 307.479778 59.177693 
L 307.763188 59.177693 
L 307.763188 58.840026 
L 308.309278 58.840026 
L 308.309278 58.502359 
L 308.458859 58.502359 
L 308.563021 57.827024 
L 308.745999 57.827024 
L 308.745999 57.489357 
L 310.411271 57.489357 
L 310.411271 57.15169 
L 310.924226 57.15169 
L 310.938908 56.476355 
L 311.301042 56.476355 
L 311.301042 56.138688 
L 311.705635 56.138688 
L 311.801739 55.463354 
L 311.858046 55.463354 
L 311.858046 55.125687 
L 312.663346 55.125687 
L 312.663346 54.788019 
L 322.017587 54.788019 
L 322.017587 54.450352 
L 344.992974 54.450352 
L 344.992974 54.112685 
L 345.350411 54.112685 
L 345.350411 53.775018 
L 346.481603 53.775018 
L 346.481603 53.43735 
L 348.563131 53.43735 
L 348.563131 53.099683 
L 351.125952 53.099683 
L 351.125952 52.762016 
L 354.696109 52.762016 
L 354.696109 52.424349 
L 357.99403 52.424349 
L 357.99403 52.086682 
L 358.625132 52.086682 
L 358.625132 51.749014 
L 359.125222 51.749014 
L 359.125222 51.411347 
L 359.835012 51.411347 
L 359.835012 51.07368 
L 360.966204 51.07368 
L 360.966204 50.736013 
L 361.925007 50.736013 
L 361.925007 50.398346 
L 363.056199 50.398346 
L 363.056199 50.060678 
L 363.953277 50.060678 
L 363.953277 49.723011 
L 365.084469 49.723011 
L 365.084469 49.385344 
L 369.279326 49.385344 
L 369.279326 49.047677 
L 369.740611 49.047677 
L 369.740611 48.71001 
L 371.268751 48.71001 
L 371.268751 48.372342 
L 371.987551 48.372342 
L 371.987551 48.034675 
L 372.849484 48.034675 
L 372.849484 47.697008 
L 373.109733 47.697008 
L 373.109733 47.359341 
L 373.310769 47.359341 
L 373.310769 47.021674 
L 374.570693 47.021674 
L 374.570693 46.684006 
L 375.199728 46.684006 
L 375.199728 46.346339 
L 375.557708 46.346339 
L 375.557708 46.008672 
L 375.701886 46.008672 
L 375.701886 45.671005 
L 376.067218 45.671005 
L 376.067218 45.333338 
L 376.429274 45.333338 
L 376.429274 44.99567 
L 377.227998 44.99567 
L 377.227998 44.658003 
L 377.560466 44.658003 
L 377.560466 44.320336 
L 378.387347 44.320336 
L 378.387347 43.982669 
L 378.684826 43.982669 
L 378.684826 43.645002 
L 379.18361 43.645002 
L 379.18361 43.307334 
L 379.637375 43.307334 
L 379.637375 42.969667 
L 379.816018 42.969667 
L 379.816018 42.632 
L 380.4459 42.632 
L 380.4459 42.294333 
L 381.577092 42.294333 
L 381.577092 41.956665 
L 381.957504 41.956665 
L 381.957504 41.618998 
L 382.753767 41.618998 
L 382.761112 40.943664 
L 383.892305 40.943664 
L 383.892305 40.605997 
L 384.247659 40.605997 
L 384.247659 40.268329 
L 384.624475 40.268329 
L 384.624475 39.930662 
L 385.916095 39.930662 
L 385.916095 39.592995 
L 387.047288 39.592995 
L 387.047288 39.255328 
L 387.817816 39.255328 
L 387.845414 38.579993 
L 388.194632 38.579993 
L 388.194632 38.242326 
L 389.703995 38.242326 
L 389.703995 37.904659 
L 391.959547 37.904659 
L 391.959547 37.566992 
L 392.839471 37.566992 
L 392.839471 37.229325 
L 393.720621 37.229325 
L 393.720621 36.891657 
L 393.970664 36.891657 
L 393.970664 36.55399 
L 396.035833 36.55399 
L 396.035833 36.216323 
L 396.187908 36.216323 
L 396.187908 35.878656 
L 399.190816 35.878656 
L 399.190816 35.540989 
L 400.779148 35.540989 
L 400.779148 35.203321 
L 401.545875 35.203321 
L 401.545875 34.865654 
L 401.91034 34.865654 
L 401.91034 34.527987 
L 402.320886 34.527987 
L 402.320886 34.19032 
L 402.677067 34.19032 
L 402.677067 33.852653 
L 406.114192 33.852653 
L 406.114192 33.514985 
L 414.053869 33.514985 
L 414.053869 33.177318 
L 414.820596 33.177318 
L 414.820596 32.839651 
L 420.47426 32.839651 
L 420.47426 32.501984 
L 420.935545 32.501984 
L 420.935545 32.164317 
L 423.182485 32.164317 
L 423.182485 31.826649 
L 427.262152 31.826649 
L 427.262152 31.488982 
L 429.582281 31.488982 
L 429.582281 31.151315 
L 430.378544 31.151315 
L 430.378544 30.813648 
L 435.442593 30.813648 
L 435.442593 30.475981 
L 435.819409 30.475981 
L 435.819409 30.138313 
L 453.192 30.138313 
L 453.192 30.138313 
" clip-path="url(#p44043fb1e7)" style="fill: none; stroke: #000000; stroke-width: 3; stroke-linecap: square"/>
   </g>
   <g id="line2d_55">
    <path clip-path="url(#p44043fb1e7)" style="fill: none; stroke: #000000; stroke-width: 3; stroke-linecap: square"/>
   </g>
   <g id="line2d_56">
    <path d="M 34.16 210.487532 
L 216.421667 210.487532 
L 216.421667 208.538377 
L 216.574063 208.538377 
L 216.574063 206.589222 
L 221.22598 206.589222 
L 221.22598 204.640068 
L 221.378376 204.640068 
L 221.378376 202.690913 
L 221.98075 202.690913 
L 221.98075 200.741758 
L 222.133146 200.741758 
L 222.133146 198.792603 
L 223.321185 198.792603 
L 223.321185 196.843448 
L 223.38285 196.843448 
L 223.38285 194.894293 
L 223.473581 194.894293 
L 223.473581 192.945139 
L 223.700886 192.945139 
L 223.700886 190.995984 
L 223.853282 190.995984 
L 223.853282 189.046829 
L 224.376079 189.046829 
L 224.376079 187.097674 
L 224.528475 187.097674 
L 224.528475 185.148519 
L 226.738912 185.148519 
L 226.738912 183.199364 
L 226.891308 183.199364 
L 226.891308 181.25021 
L 228.187163 181.25021 
L 228.187163 179.301055 
L 228.941933 179.301055 
L 228.941933 177.3519 
L 230.282368 177.3519 
L 230.282368 175.402745 
L 230.662069 175.402745 
L 230.662069 173.45359 
L 231.337262 173.45359 
L 231.337262 171.504435 
L 233.700095 171.504435 
L 233.700095 169.555281 
L 237.249293 169.555281 
L 237.249293 167.606126 
L 238.805417 167.606126 
L 238.805417 165.656971 
L 242.053607 165.656971 
L 242.053607 163.707816 
L 242.808377 163.707816 
L 242.808377 161.758661 
L 243.60973 161.758661 
L 243.60973 159.809506 
L 244.148812 159.809506 
L 244.148812 157.860352 
L 244.3645 157.860352 
L 244.3645 155.911197 
L 244.528513 155.911197 
L 244.528513 153.962042 
L 245.203706 153.962042 
L 245.203706 152.012887 
L 245.704935 152.012887 
L 245.704935 150.063732 
L 246.084636 150.063732 
L 246.084636 148.114577 
L 246.759829 148.114577 
L 246.759829 146.165423 
L 247.566539 146.165423 
L 247.566539 144.216268 
L 249.122662 144.216268 
L 249.122662 142.267113 
L 453.192 142.267113 
" clip-path="url(#p44043fb1e7)" style="fill: none; stroke: #00bfbf; stroke-width: 3; stroke-linecap: square"/>
   </g>
   <g id="line2d_57">
    <path clip-path="url(#p44043fb1e7)" style="fill: none; stroke: #00bfbf; stroke-width: 3; stroke-linecap: square"/>
   </g>
   <g id="line2d_58">
    <path d="M 34.16 210.487532 
L 217.057037 210.487532 
L 217.057037 208.538377 
L 217.125265 208.538377 
L 217.125265 206.589222 
L 221.590294 206.589222 
L 221.590294 204.640068 
L 221.658523 204.640068 
L 221.658523 202.690913 
L 221.796628 202.690913 
L 221.796628 200.741758 
L 221.864856 200.741758 
L 221.864856 198.792603 
L 223.287232 198.792603 
L 223.287232 196.843448 
L 223.355461 196.843448 
L 223.355461 194.894293 
L 223.739608 194.894293 
L 223.739608 192.945139 
L 224.101261 192.945139 
L 224.101261 190.995984 
L 224.16949 190.995984 
L 224.16949 189.046829 
L 224.554193 189.046829 
L 224.554193 187.097674 
L 224.622421 187.097674 
L 224.622421 185.148519 
L 227.017036 185.148519 
L 227.017036 183.199364 
L 227.085264 183.199364 
L 227.085264 181.25021 
L 228.272866 181.25021 
L 228.272866 179.301055 
L 228.479199 179.301055 
L 228.479199 177.3519 
L 229.969804 177.3519 
L 229.969804 175.402745 
L 230.783833 175.402745 
L 230.783833 173.45359 
L 231.236764 173.45359 
L 231.236764 171.504435 
L 233.699607 171.504435 
L 233.699607 169.555281 
L 237.053239 169.555281 
L 237.053239 167.606126 
L 238.469611 167.606126 
L 238.469611 165.656971 
L 241.586496 165.656971 
L 241.586496 163.707816 
L 241.79283 163.707816 
L 241.79283 161.758661 
L 243.002869 161.758661 
L 243.002869 159.809506 
L 243.209202 159.809506 
L 243.209202 157.860352 
L 243.283434 157.860352 
L 243.283434 155.911197 
L 244.097463 155.911197 
L 244.097463 153.962042 
L 244.550395 153.962042 
L 244.550395 152.012887 
L 244.699807 152.012887 
L 244.699807 150.063732 
L 245.513836 150.063732 
L 245.513836 148.114577 
L 245.966767 148.114577 
L 245.966767 146.165423 
L 247.013238 146.165423 
L 247.013238 144.216268 
L 248.42961 144.216268 
L 248.42961 142.267113 
L 453.192 142.267113 
" clip-path="url(#p44043fb1e7)" style="fill: none; stroke: #bf00bf; stroke-width: 3; stroke-linecap: square"/>
   </g>
   <g id="line2d_59">
    <path clip-path="url(#p44043fb1e7)" style="fill: none; stroke: #bf00bf; stroke-width: 3; stroke-linecap: square"/>
   </g>
   <g id="line2d_60">
    <path d="M 34.16 210.487532 
L 217.324779 210.487532 
L 217.324779 208.538377 
L 217.494377 208.538377 
L 217.494377 206.589222 
L 221.654959 206.589222 
L 221.654959 204.640068 
L 221.824556 204.640068 
L 221.824556 202.690913 
L 221.934465 202.690913 
L 221.934465 200.741758 
L 222.104063 200.741758 
L 222.104063 198.792603 
L 223.482358 198.792603 
L 223.482358 196.843448 
L 223.651955 196.843448 
L 223.651955 194.894293 
L 223.674726 194.894293 
L 223.674726 192.945139 
L 223.840067 192.945139 
L 223.840067 190.995984 
L 224.009665 190.995984 
L 224.009665 189.046829 
L 224.153802 189.046829 
L 224.153802 187.097674 
L 224.323399 187.097674 
L 224.323399 185.148519 
L 227.020376 185.148519 
L 227.020376 183.199364 
L 227.189974 183.199364 
L 227.189974 181.25021 
L 228.004906 181.25021 
L 228.004906 179.301055 
L 228.284412 179.301055 
L 228.284412 177.3519 
L 229.832305 177.3519 
L 229.832305 175.402745 
L 230.190014 175.402745 
L 230.190014 173.45359 
L 230.503748 173.45359 
L 230.503748 171.504435 
L 233.370323 171.504435 
L 233.370323 169.555281 
L 237.745827 169.555281 
L 237.745827 167.606126 
L 240.190354 167.606126 
L 240.190354 165.656971 
L 242.076006 165.656971 
L 242.076006 163.707816 
L 242.355513 163.707816 
L 242.355513 161.758661 
L 243.903405 161.758661 
L 243.903405 159.809506 
L 244.261114 159.809506 
L 244.261114 157.860352 
L 244.520534 157.860352 
L 244.520534 155.911197 
L 244.574849 155.911197 
L 244.574849 153.962042 
L 244.80004 153.962042 
L 244.80004 152.012887 
L 246.347933 152.012887 
L 246.347933 150.063732 
L 246.705642 150.063732 
L 246.705642 148.114577 
L 247.019376 148.114577 
L 247.019376 146.165423 
L 247.441424 146.165423 
L 247.441424 144.216268 
L 249.885951 144.216268 
L 249.885951 142.267113 
L 453.192 142.267113 
" clip-path="url(#p44043fb1e7)" style="fill: none; stroke: #ff0000; stroke-width: 3; stroke-linecap: square"/>
   </g>
   <g id="line2d_61">
    <path clip-path="url(#p44043fb1e7)" style="fill: none; stroke: #ff0000; stroke-width: 3; stroke-linecap: square"/>
   </g>
   <g id="line2d_62">
    <path d="M 243.676 291.28 
L 243.676 3 
" clip-path="url(#p44043fb1e7)" style="fill: none; stroke: #000000; stroke-width: 1.5; stroke-linecap: square"/>
   </g>
   <g id="line2d_63">
    <path d="M 34.16 147.14 
L 453.192 147.14 
" clip-path="url(#p44043fb1e7)" style="fill: none; stroke-dasharray: 2,3.3; stroke-dashoffset: 0; stroke: #000000; stroke-width: 2"/>
   </g>
   <g id="patch_3">
    <path d="M 34.16 291.28 
L 34.16 3 
" style="fill: none; stroke: #000000; stroke-width: 0.8; stroke-linejoin: miter; stroke-linecap: square"/>
   </g>
   <g id="patch_4">
    <path d="M 453.192 291.28 
L 453.192 3 
" style="fill: none; stroke: #000000; stroke-width: 0.8; stroke-linejoin: miter; stroke-linecap: square"/>
   </g>
   <g id="patch_5">
    <path d="M 34.16 291.28 
L 453.192 291.28 
" style="fill: none; stroke: #000000; stroke-width: 0.8; stroke-linejoin: miter; stroke-linecap: square"/>
   </g>
   <g id="patch_6">
    <path d="M 34.16 3 
L 453.192 3 
" style="fill: none; stroke: #000000; stroke-width: 0.8; stroke-linejoin: miter; stroke-linecap: square"/>
   </g>
   <g id="text_5">
    <!-- f6-f9,40-D -->
    <g transform="translate(343.64261 285.5144) scale(0.2 -0.2)">
     <defs>
      <path id="DejaVuSans-36" d="M 2113 2584 
Q 1688 2584 1439 2293 
Q 1191 2003 1191 1497 
Q 1191 994 1439 701 
Q 1688 409 2113 409 
Q 2538 409 2786 701 
Q 3034 994 3034 1497 
Q 3034 2003 2786 2293 
Q 2538 2584 2113 2584 
z
M 3366 4563 
L 3366 3988 
Q 3128 4100 2886 4159 
Q 2644 4219 2406 4219 
Q 1781 4219 1451 3797 
Q 1122 3375 1075 2522 
Q 1259 2794 1537 2939 
Q 1816 3084 2150 3084 
Q 2853 3084 3261 2657 
Q 3669 2231 3669 1497 
Q 3669 778 3244 343 
Q 2819 -91 2113 -91 
Q 1303 -91 875 529 
Q 447 1150 447 2328 
Q 447 3434 972 4092 
Q 1497 4750 2381 4750 
Q 2619 4750 2861 4703 
Q 3103 4656 3366 4563 
z
" transform="scale(0.015625)"/>
      <path id="DejaVuSans-39" d="M 703 97 
L 703 672 
Q 941 559 1184 500 
Q 1428 441 1663 441 
Q 2288 441 2617 861 
Q 2947 1281 2994 2138 
Q 2813 1869 2534 1725 
Q 2256 1581 1919 1581 
Q 1219 1581 811 2004 
Q 403 2428 403 3163 
Q 403 3881 828 4315 
Q 1253 4750 1959 4750 
Q 2769 4750 3195 4129 
Q 3622 3509 3622 2328 
Q 3622 1225 3098 567 
Q 2575 -91 1691 -91 
Q 1453 -91 1209 -44 
Q 966 3 703 97 
z
M 1959 2075 
Q 2384 2075 2632 2365 
Q 2881 2656 2881 3163 
Q 2881 3666 2632 3958 
Q 2384 4250 1959 4250 
Q 1534 4250 1286 3958 
Q 1038 3666 1038 3163 
Q 1038 2656 1286 2365 
Q 1534 2075 1959 2075 
z
" transform="scale(0.015625)"/>
      <path id="DejaVuSans-2c" d="M 750 794 
L 1409 794 
L 1409 256 
L 897 -744 
L 494 -744 
L 750 256 
L 750 794 
z
" transform="scale(0.015625)"/>
      <path id="DejaVuSans-34" d="M 2419 4116 
L 825 1625 
L 2419 1625 
L 2419 4116 
z
M 2253 4666 
L 3047 4666 
L 3047 1625 
L 3713 1625 
L 3713 1100 
L 3047 1100 
L 3047 0 
L 2419 0 
L 2419 1100 
L 313 1100 
L 313 1709 
L 2253 4666 
z
" transform="scale(0.015625)"/>
      <path id="DejaVuSans-44" d="M 1259 4147 
L 1259 519 
L 2022 519 
Q 2988 519 3436 956 
Q 3884 1394 3884 2338 
Q 3884 3275 3436 3711 
Q 2988 4147 2022 4147 
L 1259 4147 
z
M 628 4666 
L 1925 4666 
Q 3281 4666 3915 4102 
Q 4550 3538 4550 2338 
Q 4550 1131 3912 565 
Q 3275 0 1925 0 
L 628 0 
L 628 4666 
z
" transform="scale(0.015625)"/>
     </defs>
     <use xlink:href="#DejaVuSans-66"/>
     <use xlink:href="#DejaVuSans-36" x="35.205078"/>
     <use xlink:href="#DejaVuSans-2d" x="98.828125"/>
     <use xlink:href="#DejaVuSans-66" x="134.912109"/>
     <use xlink:href="#DejaVuSans-39" x="170.117188"/>
     <use xlink:href="#DejaVuSans-2c" x="233.740234"/>
     <use xlink:href="#DejaVuSans-34" x="265.527344"/>
     <use xlink:href="#DejaVuSans-30" x="329.150391"/>
     <use xlink:href="#DejaVuSans-2d" x="392.773438"/>
     <use xlink:href="#DejaVuSans-44" x="428.857422"/>
    </g>
   </g>
   <g id="text_6">
    <!-- v2.6.3 -->
    <g style="fill: #808080" transform="translate(227.99475 286.317512) scale(0.1 -0.1)">
     <defs>
      <path id="DejaVuSans-32" d="M 1228 531 
L 3431 531 
L 3431 0 
L 469 0 
L 469 531 
Q 828 903 1448 1529 
Q 2069 2156 2228 2338 
Q 2531 2678 2651 2914 
Q 2772 3150 2772 3378 
Q 2772 3750 2511 3984 
Q 2250 4219 1831 4219 
Q 1534 4219 1204 4116 
Q 875 4013 500 3803 
L 500 4441 
Q 881 4594 1212 4672 
Q 1544 4750 1819 4750 
Q 2544 4750 2975 4387 
Q 3406 4025 3406 3419 
Q 3406 3131 3298 2873 
Q 3191 2616 2906 2266 
Q 2828 2175 2409 1742 
Q 1991 1309 1228 531 
z
" transform="scale(0.015625)"/>
      <path id="DejaVuSans-2e" d="M 684 794 
L 1344 794 
L 1344 0 
L 684 0 
L 684 794 
z
" transform="scale(0.015625)"/>
      <path id="DejaVuSans-33" d="M 2597 2516 
Q 3050 2419 3304 2112 
Q 3559 1806 3559 1356 
Q 3559 666 3084 287 
Q 2609 -91 1734 -91 
Q 1441 -91 1130 -33 
Q 819 25 488 141 
L 488 750 
Q 750 597 1062 519 
Q 1375 441 1716 441 
Q 2309 441 2620 675 
Q 2931 909 2931 1356 
Q 2931 1769 2642 2001 
Q 2353 2234 1838 2234 
L 1294 2234 
L 1294 2753 
L 1863 2753 
Q 2328 2753 2575 2939 
Q 2822 3125 2822 3475 
Q 2822 3834 2567 4026 
Q 2313 4219 1838 4219 
Q 1578 4219 1281 4162 
Q 984 4106 628 3988 
L 628 4550 
Q 988 4650 1302 4700 
Q 1616 4750 1894 4750 
Q 2613 4750 3031 4423 
Q 3450 4097 3450 3541 
Q 3450 3153 3228 2886 
Q 3006 2619 2597 2516 
z
" transform="scale(0.015625)"/>
     </defs>
     <use xlink:href="#DejaVuSans-76"/>
     <use xlink:href="#DejaVuSans-32" x="59.179688"/>
     <use xlink:href="#DejaVuSans-2e" x="122.802734"/>
     <use xlink:href="#DejaVuSans-36" x="154.589844"/>
     <use xlink:href="#DejaVuSans-2e" x="218.212891"/>
     <use xlink:href="#DejaVuSans-33" x="250"/>
    </g>
   </g>
   <g id="legend_1">
    <g id="patch_7">
     <path d="M 48.16 136.425 
L 177.381875 136.425 
Q 181.381875 136.425 181.381875 132.425 
L 181.381875 17 
Q 181.381875 13 177.381875 13 
L 48.16 13 
Q 44.16 13 44.16 17 
L 44.16 132.425 
Q 44.16 136.425 48.16 136.425 
z
" style="fill: #ffffff; opacity: 0.2; stroke: #cccccc; stroke-linejoin: miter"/>
    </g>
    <g id="line2d_64">
     <path d="M 52.16 29.196875 
L 72.16 29.196875 
L 92.16 29.196875 
" style="fill: none; stroke: #000000; stroke-width: 3; stroke-linecap: square"/>
    </g>
    <g id="text_7">
     <!-- 1: 4/4 -->
     <g transform="translate(108.16 36.196875) scale(0.2 -0.2)">
      <defs>
       <path id="DejaVuSans-3a" d="M 750 794 
L 1409 794 
L 1409 0 
L 750 0 
L 750 794 
z
M 750 3309 
L 1409 3309 
L 1409 2516 
L 750 2516 
L 750 3309 
z
" transform="scale(0.015625)"/>
       <path id="DejaVuSans-2f" d="M 1625 4666 
L 2156 4666 
L 531 -594 
L 0 -594 
L 1625 4666 
z
" transform="scale(0.015625)"/>
      </defs>
      <use xlink:href="#DejaVuSans-31"/>
      <use xlink:href="#DejaVuSans-3a" x="63.623047"/>
      <use xlink:href="#DejaVuSans-20" x="97.314453"/>
      <use xlink:href="#DejaVuSans-34" x="129.101562"/>
      <use xlink:href="#DejaVuSans-2f" x="192.724609"/>
      <use xlink:href="#DejaVuSans-34" x="226.416016"/>
     </g>
    </g>
    <g id="line2d_65">
     <path d="M 52.16 58.553125 
L 72.16 58.553125 
L 92.16 58.553125 
" style="fill: none; stroke: #00bfbf; stroke-width: 3; stroke-linecap: square"/>
    </g>
    <g id="text_8">
     <!-- -1: 1/1 -->
     <g transform="translate(108.16 65.553125) scale(0.2 -0.2)">
      <use xlink:href="#DejaVuSans-2d"/>
      <use xlink:href="#DejaVuSans-31" x="36.083984"/>
      <use xlink:href="#DejaVuSans-3a" x="99.707031"/>
      <use xlink:href="#DejaVuSans-20" x="133.398438"/>
      <use xlink:href="#DejaVuSans-31" x="165.185547"/>
      <use xlink:href="#DejaVuSans-2f" x="228.808594"/>
      <use xlink:href="#DejaVuSans-31" x="262.5"/>
     </g>
    </g>
    <g id="line2d_66">
     <path d="M 52.16 87.909375 
L 72.16 87.909375 
L 92.16 87.909375 
" style="fill: none; stroke: #bf00bf; stroke-width: 3; stroke-linecap: square"/>
    </g>
    <g id="text_9">
     <!-- -4: 1/1 -->
     <g transform="translate(108.16 94.909375) scale(0.2 -0.2)">
      <use xlink:href="#DejaVuSans-2d"/>
      <use xlink:href="#DejaVuSans-34" x="36.083984"/>
      <use xlink:href="#DejaVuSans-3a" x="99.707031"/>
      <use xlink:href="#DejaVuSans-20" x="133.398438"/>
      <use xlink:href="#DejaVuSans-31" x="165.185547"/>
      <use xlink:href="#DejaVuSans-2f" x="228.808594"/>
      <use xlink:href="#DejaVuSans-31" x="262.5"/>
     </g>
    </g>
    <g id="line2d_67">
     <path d="M 52.16 117.265625 
L 72.16 117.265625 
L 92.16 117.265625 
" style="fill: none; stroke: #ff0000; stroke-width: 3; stroke-linecap: square"/>
    </g>
    <g id="text_10">
     <!-- -8: 1/1 -->
     <g transform="translate(108.16 124.265625) scale(0.2 -0.2)">
      <defs>
       <path id="DejaVuSans-38" d="M 2034 2216 
Q 1584 2216 1326 1975 
Q 1069 1734 1069 1313 
Q 1069 891 1326 650 
Q 1584 409 2034 409 
Q 2484 409 2743 651 
Q 3003 894 3003 1313 
Q 3003 1734 2745 1975 
Q 2488 2216 2034 2216 
z
M 1403 2484 
Q 997 2584 770 2862 
Q 544 3141 544 3541 
Q 544 4100 942 4425 
Q 1341 4750 2034 4750 
Q 2731 4750 3128 4425 
Q 3525 4100 3525 3541 
Q 3525 3141 3298 2862 
Q 3072 2584 2669 2484 
Q 3125 2378 3379 2068 
Q 3634 1759 3634 1313 
Q 3634 634 3220 271 
Q 2806 -91 2034 -91 
Q 1263 -91 848 271 
Q 434 634 434 1313 
Q 434 1759 690 2068 
Q 947 2378 1403 2484 
z
M 1172 3481 
Q 1172 3119 1398 2916 
Q 1625 2713 2034 2713 
Q 2441 2713 2670 2916 
Q 2900 3119 2900 3481 
Q 2900 3844 2670 4047 
Q 2441 4250 2034 4250 
Q 1625 4250 1398 4047 
Q 1172 3844 1172 3481 
z
" transform="scale(0.015625)"/>
      </defs>
      <use xlink:href="#DejaVuSans-2d"/>
      <use xlink:href="#DejaVuSans-38" x="36.083984"/>
      <use xlink:href="#DejaVuSans-3a" x="99.707031"/>
      <use xlink:href="#DejaVuSans-20" x="133.398438"/>
      <use xlink:href="#DejaVuSans-31" x="165.185547"/>
      <use xlink:href="#DejaVuSans-2f" x="228.808594"/>
      <use xlink:href="#DejaVuSans-31" x="262.5"/>
     </g>
    </g>
   </g>
  </g>
 </g>
 <defs>
  <clipPath id="p44043fb1e7">
   <rect x="34.16" y="3" width="419.032" height="288.28"/>
  </clipPath>
 </defs>
</svg>
