<?xml version="1.0" encoding="utf-8" standalone="no"?>
<!DOCTYPE svg PUBLIC "-//W3C//DTD SVG 1.1//EN"
  "http://www.w3.org/Graphics/SVG/1.1/DTD/svg11.dtd">
<svg xmlns:xlink="http://www.w3.org/1999/xlink" width="460.8pt" height="345.6pt" viewBox="0 0 460.8 345.6" xmlns="http://www.w3.org/2000/svg" version="1.1">
 <metadata>
  <rdf:RDF xmlns:dc="http://purl.org/dc/elements/1.1/" xmlns:cc="http://creativecommons.org/ns#" xmlns:rdf="http://www.w3.org/1999/02/22-rdf-syntax-ns#">
   <cc:Work>
    <dc:type rdf:resource="http://purl.org/dc/dcmitype/StillImage"/>
    <dc:date>2024-06-05T10:00:33.875368</dc:date>
    <dc:format>image/svg+xml</dc:format>
    <dc:creator>
     <cc:Agent>
      <dc:title>Matplotlib v3.7.1, https://matplotlib.org/</dc:title>
     </cc:Agent>
    </dc:creator>
   </cc:Work>
  </rdf:RDF>
 </metadata>
 <defs>
  <style type="text/css">*{stroke-linejoin: round; stroke-linecap: butt}</style>
 </defs>
 <g id="figure_1">
  <g id="patch_1">
   <path d="M 0 345.6 
L 460.8 345.6 
L 460.8 0 
L 0 0 
z
" style="fill: #ffffff"/>
  </g>
  <g id="axes_1">
   <g id="patch_2">
    <path d="M 34.16 291.28 
L 453.192 291.28 
L 453.192 3 
L 34.16 3 
z
" style="fill: #ffffff"/>
   </g>
   <g id="matplotlib.axis_1">
    <g id="xtick_1">
     <g id="line2d_1">
      <path d="M 122.394494 291.28 
L 122.394494 3 
" clip-path="url(#pa13fa01cd3)" style="fill: none; stroke: #b0b0b0; stroke-width: 0.8; stroke-linecap: square"/>
     </g>
     <g id="line2d_2">
      <defs>
       <path id="mc77e9e1e70" d="M 0 0 
L 0 3.5 
" style="stroke: #000000; stroke-width: 0.8"/>
      </defs>
      <g>
       <use xlink:href="#mc77e9e1e70" x="122.394494" y="291.28" style="stroke: #000000; stroke-width: 0.8"/>
      </g>
     </g>
     <g id="text_1">
      <!-- -2 -->
      <g transform="translate(112.424181 313.476875) scale(0.2 -0.2)">
       <defs>
        <path id="DejaVuSans-2d" d="M 313 2009 
L 1997 2009 
L 1997 1497 
L 313 1497 
L 313 2009 
z
" transform="scale(0.015625)"/>
        <path id="DejaVuSans-32" d="M 1228 531 
L 3431 531 
L 3431 0 
L 469 0 
L 469 531 
Q 828 903 1448 1529 
Q 2069 2156 2228 2338 
Q 2531 2678 2651 2914 
Q 2772 3150 2772 3378 
Q 2772 3750 2511 3984 
Q 2250 4219 1831 4219 
Q 1534 4219 1204 4116 
Q 875 4013 500 3803 
L 500 4441 
Q 881 4594 1212 4672 
Q 1544 4750 1819 4750 
Q 2544 4750 2975 4387 
Q 3406 4025 3406 3419 
Q 3406 3131 3298 2873 
Q 3191 2616 2906 2266 
Q 2828 2175 2409 1742 
Q 1991 1309 1228 531 
z
" transform="scale(0.015625)"/>
       </defs>
       <use xlink:href="#DejaVuSans-2d"/>
       <use xlink:href="#DejaVuSans-32" x="36.083984"/>
      </g>
     </g>
    </g>
    <g id="xtick_2">
     <g id="line2d_3">
      <path d="M 243.676 291.28 
L 243.676 3 
" clip-path="url(#pa13fa01cd3)" style="fill: none; stroke: #b0b0b0; stroke-width: 0.8; stroke-linecap: square"/>
     </g>
     <g id="line2d_4">
      <g>
       <use xlink:href="#mc77e9e1e70" x="243.676" y="291.28" style="stroke: #000000; stroke-width: 0.8"/>
      </g>
     </g>
     <g id="text_2">
      <!-- 0 -->
      <g transform="translate(237.3135 313.476875) scale(0.2 -0.2)">
       <defs>
        <path id="DejaVuSans-30" d="M 2034 4250 
Q 1547 4250 1301 3770 
Q 1056 3291 1056 2328 
Q 1056 1369 1301 889 
Q 1547 409 2034 409 
Q 2525 409 2770 889 
Q 3016 1369 3016 2328 
Q 3016 3291 2770 3770 
Q 2525 4250 2034 4250 
z
M 2034 4750 
Q 2819 4750 3233 4129 
Q 3647 3509 3647 2328 
Q 3647 1150 3233 529 
Q 2819 -91 2034 -91 
Q 1250 -91 836 529 
Q 422 1150 422 2328 
Q 422 3509 836 4129 
Q 1250 4750 2034 4750 
z
" transform="scale(0.015625)"/>
       </defs>
       <use xlink:href="#DejaVuSans-30"/>
      </g>
     </g>
    </g>
    <g id="xtick_3">
     <g id="line2d_5">
      <path d="M 364.957506 291.28 
L 364.957506 3 
" clip-path="url(#pa13fa01cd3)" style="fill: none; stroke: #b0b0b0; stroke-width: 0.8; stroke-linecap: square"/>
     </g>
     <g id="line2d_6">
      <g>
       <use xlink:href="#mc77e9e1e70" x="364.957506" y="291.28" style="stroke: #000000; stroke-width: 0.8"/>
      </g>
     </g>
     <g id="text_3">
      <!-- 2 -->
      <g transform="translate(358.595006 313.476875) scale(0.2 -0.2)">
       <use xlink:href="#DejaVuSans-32"/>
      </g>
     </g>
    </g>
    <g id="text_4">
     <!-- log10 of FEvals ratio -->
     <g transform="translate(141.371312 336.833125) scale(0.2 -0.2)">
      <defs>
       <path id="DejaVuSans-6c" d="M 603 4863 
L 1178 4863 
L 1178 0 
L 603 0 
L 603 4863 
z
" transform="scale(0.015625)"/>
       <path id="DejaVuSans-6f" d="M 1959 3097 
Q 1497 3097 1228 2736 
Q 959 2375 959 1747 
Q 959 1119 1226 758 
Q 1494 397 1959 397 
Q 2419 397 2687 759 
Q 2956 1122 2956 1747 
Q 2956 2369 2687 2733 
Q 2419 3097 1959 3097 
z
M 1959 3584 
Q 2709 3584 3137 3096 
Q 3566 2609 3566 1747 
Q 3566 888 3137 398 
Q 2709 -91 1959 -91 
Q 1206 -91 779 398 
Q 353 888 353 1747 
Q 353 2609 779 3096 
Q 1206 3584 1959 3584 
z
" transform="scale(0.015625)"/>
       <path id="DejaVuSans-67" d="M 2906 1791 
Q 2906 2416 2648 2759 
Q 2391 3103 1925 3103 
Q 1463 3103 1205 2759 
Q 947 2416 947 1791 
Q 947 1169 1205 825 
Q 1463 481 1925 481 
Q 2391 481 2648 825 
Q 2906 1169 2906 1791 
z
M 3481 434 
Q 3481 -459 3084 -895 
Q 2688 -1331 1869 -1331 
Q 1566 -1331 1297 -1286 
Q 1028 -1241 775 -1147 
L 775 -588 
Q 1028 -725 1275 -790 
Q 1522 -856 1778 -856 
Q 2344 -856 2625 -561 
Q 2906 -266 2906 331 
L 2906 616 
Q 2728 306 2450 153 
Q 2172 0 1784 0 
Q 1141 0 747 490 
Q 353 981 353 1791 
Q 353 2603 747 3093 
Q 1141 3584 1784 3584 
Q 2172 3584 2450 3431 
Q 2728 3278 2906 2969 
L 2906 3500 
L 3481 3500 
L 3481 434 
z
" transform="scale(0.015625)"/>
       <path id="DejaVuSans-31" d="M 794 531 
L 1825 531 
L 1825 4091 
L 703 3866 
L 703 4441 
L 1819 4666 
L 2450 4666 
L 2450 531 
L 3481 531 
L 3481 0 
L 794 0 
L 794 531 
z
" transform="scale(0.015625)"/>
       <path id="DejaVuSans-20" transform="scale(0.015625)"/>
       <path id="DejaVuSans-66" d="M 2375 4863 
L 2375 4384 
L 1825 4384 
Q 1516 4384 1395 4259 
Q 1275 4134 1275 3809 
L 1275 3500 
L 2222 3500 
L 2222 3053 
L 1275 3053 
L 1275 0 
L 697 0 
L 697 3053 
L 147 3053 
L 147 3500 
L 697 3500 
L 697 3744 
Q 697 4328 969 4595 
Q 1241 4863 1831 4863 
L 2375 4863 
z
" transform="scale(0.015625)"/>
       <path id="DejaVuSans-46" d="M 628 4666 
L 3309 4666 
L 3309 4134 
L 1259 4134 
L 1259 2759 
L 3109 2759 
L 3109 2228 
L 1259 2228 
L 1259 0 
L 628 0 
L 628 4666 
z
" transform="scale(0.015625)"/>
       <path id="DejaVuSans-45" d="M 628 4666 
L 3578 4666 
L 3578 4134 
L 1259 4134 
L 1259 2753 
L 3481 2753 
L 3481 2222 
L 1259 2222 
L 1259 531 
L 3634 531 
L 3634 0 
L 628 0 
L 628 4666 
z
" transform="scale(0.015625)"/>
       <path id="DejaVuSans-76" d="M 191 3500 
L 800 3500 
L 1894 563 
L 2988 3500 
L 3597 3500 
L 2284 0 
L 1503 0 
L 191 3500 
z
" transform="scale(0.015625)"/>
       <path id="DejaVuSans-61" d="M 2194 1759 
Q 1497 1759 1228 1600 
Q 959 1441 959 1056 
Q 959 750 1161 570 
Q 1363 391 1709 391 
Q 2188 391 2477 730 
Q 2766 1069 2766 1631 
L 2766 1759 
L 2194 1759 
z
M 3341 1997 
L 3341 0 
L 2766 0 
L 2766 531 
Q 2569 213 2275 61 
Q 1981 -91 1556 -91 
Q 1019 -91 701 211 
Q 384 513 384 1019 
Q 384 1609 779 1909 
Q 1175 2209 1959 2209 
L 2766 2209 
L 2766 2266 
Q 2766 2663 2505 2880 
Q 2244 3097 1772 3097 
Q 1472 3097 1187 3025 
Q 903 2953 641 2809 
L 641 3341 
Q 956 3463 1253 3523 
Q 1550 3584 1831 3584 
Q 2591 3584 2966 3190 
Q 3341 2797 3341 1997 
z
" transform="scale(0.015625)"/>
       <path id="DejaVuSans-73" d="M 2834 3397 
L 2834 2853 
Q 2591 2978 2328 3040 
Q 2066 3103 1784 3103 
Q 1356 3103 1142 2972 
Q 928 2841 928 2578 
Q 928 2378 1081 2264 
Q 1234 2150 1697 2047 
L 1894 2003 
Q 2506 1872 2764 1633 
Q 3022 1394 3022 966 
Q 3022 478 2636 193 
Q 2250 -91 1575 -91 
Q 1294 -91 989 -36 
Q 684 19 347 128 
L 347 722 
Q 666 556 975 473 
Q 1284 391 1588 391 
Q 1994 391 2212 530 
Q 2431 669 2431 922 
Q 2431 1156 2273 1281 
Q 2116 1406 1581 1522 
L 1381 1569 
Q 847 1681 609 1914 
Q 372 2147 372 2553 
Q 372 3047 722 3315 
Q 1072 3584 1716 3584 
Q 2034 3584 2315 3537 
Q 2597 3491 2834 3397 
z
" transform="scale(0.015625)"/>
       <path id="DejaVuSans-72" d="M 2631 2963 
Q 2534 3019 2420 3045 
Q 2306 3072 2169 3072 
Q 1681 3072 1420 2755 
Q 1159 2438 1159 1844 
L 1159 0 
L 581 0 
L 581 3500 
L 1159 3500 
L 1159 2956 
Q 1341 3275 1631 3429 
Q 1922 3584 2338 3584 
Q 2397 3584 2469 3576 
Q 2541 3569 2628 3553 
L 2631 2963 
z
" transform="scale(0.015625)"/>
       <path id="DejaVuSans-74" d="M 1172 4494 
L 1172 3500 
L 2356 3500 
L 2356 3053 
L 1172 3053 
L 1172 1153 
Q 1172 725 1289 603 
Q 1406 481 1766 481 
L 2356 481 
L 2356 0 
L 1766 0 
Q 1100 0 847 248 
Q 594 497 594 1153 
L 594 3053 
L 172 3053 
L 172 3500 
L 594 3500 
L 594 4494 
L 1172 4494 
z
" transform="scale(0.015625)"/>
       <path id="DejaVuSans-69" d="M 603 3500 
L 1178 3500 
L 1178 0 
L 603 0 
L 603 3500 
z
M 603 4863 
L 1178 4863 
L 1178 4134 
L 603 4134 
L 603 4863 
z
" transform="scale(0.015625)"/>
      </defs>
      <use xlink:href="#DejaVuSans-6c"/>
      <use xlink:href="#DejaVuSans-6f" x="27.783203"/>
      <use xlink:href="#DejaVuSans-67" x="88.964844"/>
      <use xlink:href="#DejaVuSans-31" x="152.441406"/>
      <use xlink:href="#DejaVuSans-30" x="216.064453"/>
      <use xlink:href="#DejaVuSans-20" x="279.6875"/>
      <use xlink:href="#DejaVuSans-6f" x="311.474609"/>
      <use xlink:href="#DejaVuSans-66" x="372.65625"/>
      <use xlink:href="#DejaVuSans-20" x="407.861328"/>
      <use xlink:href="#DejaVuSans-46" x="439.648438"/>
      <use xlink:href="#DejaVuSans-45" x="497.167969"/>
      <use xlink:href="#DejaVuSans-76" x="560.351562"/>
      <use xlink:href="#DejaVuSans-61" x="619.53125"/>
      <use xlink:href="#DejaVuSans-6c" x="680.810547"/>
      <use xlink:href="#DejaVuSans-73" x="708.59375"/>
      <use xlink:href="#DejaVuSans-20" x="760.693359"/>
      <use xlink:href="#DejaVuSans-72" x="792.480469"/>
      <use xlink:href="#DejaVuSans-61" x="833.59375"/>
      <use xlink:href="#DejaVuSans-74" x="894.873047"/>
      <use xlink:href="#DejaVuSans-69" x="934.082031"/>
      <use xlink:href="#DejaVuSans-6f" x="961.865234"/>
     </g>
    </g>
   </g>
   <g id="matplotlib.axis_2">
    <g id="ytick_1">
     <g id="line2d_7">
      <path d="M 34.16 288.453725 
L 453.192 288.453725 
" clip-path="url(#pa13fa01cd3)" style="fill: none; stroke: #b0b0b0; stroke-width: 0.8; stroke-linecap: square"/>
     </g>
     <g id="line2d_8">
      <defs>
       <path id="m4cc35fa078" d="M 0 0 
L -3.5 0 
" style="stroke: #000000; stroke-width: 0.8"/>
      </defs>
      <g>
       <use xlink:href="#m4cc35fa078" x="34.16" y="288.453725" style="stroke: #000000; stroke-width: 0.8"/>
      </g>
     </g>
    </g>
    <g id="ytick_2">
     <g id="line2d_9">
      <path d="M 34.16 217.796863 
L 453.192 217.796863 
" clip-path="url(#pa13fa01cd3)" style="fill: none; stroke: #b0b0b0; stroke-width: 0.8; stroke-linecap: square"/>
     </g>
     <g id="line2d_10">
      <g>
       <use xlink:href="#m4cc35fa078" x="34.16" y="217.796863" style="stroke: #000000; stroke-width: 0.8"/>
      </g>
     </g>
    </g>
    <g id="ytick_3">
     <g id="line2d_11">
      <path d="M 34.16 147.14 
L 453.192 147.14 
" clip-path="url(#pa13fa01cd3)" style="fill: none; stroke: #b0b0b0; stroke-width: 0.8; stroke-linecap: square"/>
     </g>
     <g id="line2d_12">
      <g>
       <use xlink:href="#m4cc35fa078" x="34.16" y="147.14" style="stroke: #000000; stroke-width: 0.8"/>
      </g>
     </g>
    </g>
    <g id="ytick_4">
     <g id="line2d_13">
      <path d="M 34.16 76.483137 
L 453.192 76.483137 
" clip-path="url(#pa13fa01cd3)" style="fill: none; stroke: #b0b0b0; stroke-width: 0.8; stroke-linecap: square"/>
     </g>
     <g id="line2d_14">
      <g>
       <use xlink:href="#m4cc35fa078" x="34.16" y="76.483137" style="stroke: #000000; stroke-width: 0.8"/>
      </g>
     </g>
    </g>
    <g id="ytick_5">
     <g id="line2d_15">
      <path d="M 34.16 5.826275 
L 453.192 5.826275 
" clip-path="url(#pa13fa01cd3)" style="fill: none; stroke: #b0b0b0; stroke-width: 0.8; stroke-linecap: square"/>
     </g>
     <g id="line2d_16">
      <g>
       <use xlink:href="#m4cc35fa078" x="34.16" y="5.826275" style="stroke: #000000; stroke-width: 0.8"/>
      </g>
     </g>
    </g>
    <g id="text_5">
     <!-- proportion of trials -->
     <g transform="translate(19.000625 240.14625) rotate(-90) scale(0.2 -0.2)">
      <defs>
       <path id="DejaVuSans-70" d="M 1159 525 
L 1159 -1331 
L 581 -1331 
L 581 3500 
L 1159 3500 
L 1159 2969 
Q 1341 3281 1617 3432 
Q 1894 3584 2278 3584 
Q 2916 3584 3314 3078 
Q 3713 2572 3713 1747 
Q 3713 922 3314 415 
Q 2916 -91 2278 -91 
Q 1894 -91 1617 61 
Q 1341 213 1159 525 
z
M 3116 1747 
Q 3116 2381 2855 2742 
Q 2594 3103 2138 3103 
Q 1681 3103 1420 2742 
Q 1159 2381 1159 1747 
Q 1159 1113 1420 752 
Q 1681 391 2138 391 
Q 2594 391 2855 752 
Q 3116 1113 3116 1747 
z
" transform="scale(0.015625)"/>
       <path id="DejaVuSans-6e" d="M 3513 2113 
L 3513 0 
L 2938 0 
L 2938 2094 
Q 2938 2591 2744 2837 
Q 2550 3084 2163 3084 
Q 1697 3084 1428 2787 
Q 1159 2491 1159 1978 
L 1159 0 
L 581 0 
L 581 3500 
L 1159 3500 
L 1159 2956 
Q 1366 3272 1645 3428 
Q 1925 3584 2291 3584 
Q 2894 3584 3203 3211 
Q 3513 2838 3513 2113 
z
" transform="scale(0.015625)"/>
      </defs>
      <use xlink:href="#DejaVuSans-70"/>
      <use xlink:href="#DejaVuSans-72" x="63.476562"/>
      <use xlink:href="#DejaVuSans-6f" x="102.339844"/>
      <use xlink:href="#DejaVuSans-70" x="163.521484"/>
      <use xlink:href="#DejaVuSans-6f" x="226.998047"/>
      <use xlink:href="#DejaVuSans-72" x="288.179688"/>
      <use xlink:href="#DejaVuSans-74" x="329.292969"/>
      <use xlink:href="#DejaVuSans-69" x="368.501953"/>
      <use xlink:href="#DejaVuSans-6f" x="396.285156"/>
      <use xlink:href="#DejaVuSans-6e" x="457.466797"/>
      <use xlink:href="#DejaVuSans-20" x="520.845703"/>
      <use xlink:href="#DejaVuSans-6f" x="552.632812"/>
      <use xlink:href="#DejaVuSans-66" x="613.814453"/>
      <use xlink:href="#DejaVuSans-20" x="649.019531"/>
      <use xlink:href="#DejaVuSans-74" x="680.806641"/>
      <use xlink:href="#DejaVuSans-72" x="720.015625"/>
      <use xlink:href="#DejaVuSans-69" x="761.128906"/>
      <use xlink:href="#DejaVuSans-61" x="788.912109"/>
      <use xlink:href="#DejaVuSans-6c" x="850.191406"/>
      <use xlink:href="#DejaVuSans-73" x="877.974609"/>
     </g>
    </g>
   </g>
   <g id="line2d_17">
    <path d="M 34.16 271.075339 
L 70.652315 271.075339 
L 70.652315 270.770455 
L 71.373822 270.770455 
L 71.373822 270.465571 
L 76.274282 270.465571 
L 76.274282 270.160687 
L 84.442505 270.160687 
L 84.442505 269.855803 
L 90.170555 269.855803 
L 90.235145 269.246035 
L 90.663381 269.246035 
L 90.747193 268.636267 
L 90.956652 268.636267 
L 90.956652 268.331383 
L 91.292955 268.331383 
L 91.384888 267.721615 
L 92.014462 267.721615 
L 92.014462 267.416731 
L 92.842361 267.416731 
L 92.842361 267.111847 
L 94.215724 267.111847 
L 94.215724 266.806963 
L 97.895581 266.806963 
L 97.895581 266.502079 
L 100.035505 266.502079 
L 100.035505 266.197195 
L 100.405664 266.197195 
L 100.405664 265.892311 
L 100.757012 265.892311 
L 100.757012 265.587427 
L 101.010583 265.587427 
L 101.010583 265.282543 
L 102.383947 265.282543 
L 102.383947 264.977659 
L 106.631186 264.977659 
L 106.631186 264.672775 
L 106.882006 264.672775 
L 106.882006 264.367891 
L 107.607231 264.367891 
L 107.607231 264.063007 
L 108.338743 264.063007 
L 108.338743 263.758123 
L 109.753384 263.758123 
L 109.753384 263.453239 
L 110.181621 263.453239 
L 110.181621 263.148355 
L 110.330023 263.148355 
L 110.330023 262.843471 
L 110.758259 262.843471 
L 110.811195 262.233703 
L 110.9201 262.233703 
L 110.9201 261.928819 
L 111.387834 261.928819 
L 111.387834 261.623935 
L 114.463659 261.623935 
L 114.463659 261.319051 
L 115.506378 261.319051 
L 115.506378 261.014167 
L 115.837022 261.014167 
L 115.8932 260.404399 
L 116.973742 260.404399 
L 116.973742 260.099515 
L 118.222163 260.099515 
L 118.222163 259.794631 
L 118.347106 259.794631 
L 118.447901 258.879979 
L 119.553745 258.879979 
L 119.553745 258.575095 
L 120.130384 258.575095 
L 120.130384 258.270211 
L 123.199264 258.270211 
L 123.199264 257.965327 
L 123.450084 257.965327 
L 123.450084 257.660443 
L 123.674601 257.660443 
L 123.674601 257.355559 
L 124.061423 257.355559 
L 124.061423 257.050675 
L 124.572628 257.050675 
L 124.572628 256.745791 
L 124.823448 256.745791 
L 124.906821 256.136023 
L 126.280185 256.136023 
L 126.390386 255.526255 
L 126.530389 255.526255 
L 126.616124 254.916488 
L 127.190061 254.916488 
L 127.190061 254.611604 
L 127.618297 254.611604 
L 127.618297 254.30672 
L 128.247871 254.30672 
L 128.247871 254.001836 
L 130.50293 254.001836 
L 130.50293 253.696952 
L 130.931166 253.696952 
L 130.931166 253.392068 
L 131.560741 253.392068 
L 131.560741 253.087184 
L 133.520435 253.087184 
L 133.520435 252.7823 
L 135.689123 252.7823 
L 135.689123 252.477416 
L 136.990421 252.477416 
L 136.990421 252.172532 
L 137.127676 252.172532 
L 137.127676 251.867648 
L 137.514499 251.867648 
L 137.514499 251.562764 
L 139.63776 251.562764 
L 139.63776 251.25788 
L 139.843461 251.25788 
L 139.843461 250.952996 
L 139.983465 250.952996 
L 140.069199 250.038344 
L 140.303291 250.038344 
L 140.303291 249.73346 
L 142.353545 249.73346 
L 142.353545 249.428576 
L 142.493548 249.428576 
L 142.579283 248.818808 
L 142.72781 248.818808 
L 142.72781 248.513924 
L 145.863282 248.513924 
L 145.863282 248.20904 
L 146.114102 248.20904 
L 146.114102 247.904156 
L 146.250104 247.904156 
L 146.250104 247.599272 
L 146.500924 247.599272 
L 146.500924 247.294388 
L 147.570839 247.294388 
L 147.570839 246.989504 
L 147.957661 246.989504 
L 147.957661 246.68462 
L 148.579066 246.68462 
L 148.579066 246.379736 
L 148.71907 246.379736 
L 148.829887 245.465084 
L 148.96989 245.465084 
L 149.055625 244.855316 
L 150.286624 244.855316 
L 150.286624 244.550432 
L 150.426627 244.550432 
L 150.512362 243.940664 
L 153.103264 243.940664 
L 153.103264 243.63578 
L 153.531501 243.63578 
L 153.531501 243.330896 
L 154.161075 243.330896 
L 154.161075 243.026012 
L 155.271953 243.026012 
L 155.271953 242.721128 
L 155.700189 242.721128 
L 155.700189 242.416244 
L 156.329763 242.416244 
L 156.329763 242.11136 
L 157.016737 242.11136 
L 157.016737 241.806476 
L 159.295888 241.806476 
L 159.295888 241.501592 
L 160.669251 241.501592 
L 160.669251 241.196708 
L 162.903625 241.196708 
L 162.903625 240.891824 
L 164.686672 240.891824 
L 164.686672 240.58694 
L 165.072313 240.58694 
L 165.072313 240.282056 
L 169.846857 240.282056 
L 169.846857 239.672288 
L 172.863416 239.672288 
L 172.863416 239.367404 
L 175.837809 239.367404 
L 175.837809 239.06252 
L 177.951966 239.06252 
L 177.951966 238.757636 
L 179.204778 238.757636 
L 179.204778 238.452753 
L 179.926285 238.452753 
L 179.926285 238.147869 
L 181.485627 238.147869 
L 181.485627 237.842985 
L 181.959905 237.842985 
L 181.959905 237.538101 
L 182.111084 237.538101 
L 182.138466 236.928333 
L 182.346728 236.928333 
L 182.346728 236.623449 
L 182.859973 236.623449 
L 182.859973 236.318565 
L 184.540568 236.318565 
L 184.540568 236.013681 
L 184.67569 236.013681 
L 184.695942 235.403913 
L 184.815693 235.403913 
L 184.901428 234.794145 
L 185.621901 234.794145 
L 185.621901 234.489261 
L 186.973306 234.489261 
L 186.973306 234.184377 
L 189.65385 234.184377 
L 189.65385 233.879493 
L 190.54149 233.879493 
L 190.54149 233.574609 
L 190.782086 233.574609 
L 190.863647 232.659957 
L 190.996099 232.659957 
L 190.996099 232.355073 
L 191.151474 232.355073 
L 191.151474 232.050189 
L 193.428838 232.050189 
L 193.526108 231.440421 
L 193.798645 231.440421 
L 193.798645 231.135537 
L 194.224947 231.135537 
L 194.224947 230.830653 
L 194.380322 230.830653 
L 194.380322 230.525769 
L 194.834401 230.525769 
L 194.834401 230.220885 
L 194.965589 230.220885 
L 194.965589 229.916001 
L 196.488322 229.916001 
L 196.488322 229.611117 
L 196.657686 229.611117 
L 196.657686 229.306233 
L 196.773038 229.306233 
L 196.773038 229.001349 
L 197.993643 229.001349 
L 197.993643 228.696465 
L 198.211425 228.696465 
L 198.211425 228.391581 
L 198.723018 228.391581 
L 198.723018 228.086697 
L 199.299656 228.086697 
L 199.299656 227.781813 
L 200.507971 227.781813 
L 200.507971 227.476929 
L 200.866289 227.476929 
L 200.894295 226.867161 
L 201.065979 226.867161 
L 201.065979 226.562277 
L 201.219797 226.562277 
L 201.289933 225.647625 
L 201.656706 225.647625 
L 201.656706 225.342741 
L 201.928291 225.342741 
L 201.928291 225.037857 
L 202.053347 225.037857 
L 202.053347 224.732973 
L 202.208721 224.732973 
L 202.233344 224.123205 
L 202.487227 224.123205 
L 202.487227 223.818321 
L 202.943854 223.818321 
L 203.046313 223.208553 
L 203.106925 223.208553 
L 203.106925 222.598785 
L 203.37161 222.598785 
L 203.422329 221.684134 
L 203.885063 221.684134 
L 203.885063 221.37925 
L 204.449174 221.37925 
L 204.51878 220.464598 
L 205.429563 220.464598 
L 205.429563 220.159714 
L 205.617009 220.159714 
L 205.617009 219.85483 
L 206.172702 219.85483 
L 206.172702 219.549946 
L 206.38817 219.549946 
L 206.38817 219.245062 
L 206.600242 219.245062 
L 206.600242 218.940178 
L 206.884958 218.940178 
L 206.884958 218.635294 
L 207.474655 218.635294 
L 207.474655 218.33041 
L 207.63003 218.33041 
L 207.678022 217.415758 
L 208.177906 217.415758 
L 208.177906 217.110874 
L 208.536224 217.110874 
L 208.536224 216.80599 
L 208.889732 216.80599 
L 208.942759 216.196222 
L 209.362562 216.196222 
L 209.362562 215.891338 
L 209.562456 215.891338 
L 209.562456 215.586454 
L 209.877861 215.586454 
L 209.907394 214.976686 
L 210.268556 214.976686 
L 210.330743 214.366918 
L 211.798876 214.366918 
L 211.84253 213.75715 
L 212.093351 213.75715 
L 212.171606 213.147382 
L 212.34718 213.147382 
L 212.34718 212.842498 
L 212.57369 212.842498 
L 212.57369 212.537614 
L 212.704957 212.537614 
L 212.791304 211.927846 
L 212.819822 211.927846 
L 212.819822 211.622962 
L 213.099498 211.622962 
L 213.106709 211.013194 
L 213.319096 211.013194 
L 213.338091 210.098542 
L 213.550088 210.098542 
L 213.550088 209.793658 
L 213.696409 209.793658 
L 213.696409 209.18389 
L 214.001101 209.18389 
L 214.049917 208.269238 
L 214.270177 208.269238 
L 214.270177 207.964354 
L 214.461337 207.964354 
L 214.554893 207.354586 
L 214.897471 207.354586 
L 214.897471 207.049702 
L 215.052846 207.049702 
L 215.052846 206.744818 
L 215.506422 206.744818 
L 215.506422 206.439934 
L 215.635837 206.439934 
L 215.705787 205.830166 
L 215.900818 205.830166 
L 215.900818 205.525282 
L 216.027943 205.525282 
L 216.027943 205.220399 
L 216.159694 205.220399 
L 216.159694 204.915515 
L 216.354651 204.915515 
L 216.354651 204.610631 
L 216.712968 204.610631 
L 216.724088 204.000863 
L 217.066476 204.000863 
L 217.11188 203.391095 
L 217.267254 203.391095 
L 217.33021 202.781327 
L 217.462373 202.781327 
L 217.462373 202.476443 
L 217.634057 202.476443 
L 217.634057 202.171559 
L 217.768488 202.171559 
L 217.768488 201.866675 
L 218.000678 201.866675 
L 218.000678 201.561791 
L 218.259683 201.561791 
L 218.259683 200.952023 
L 218.496369 200.952023 
L 218.496369 200.647139 
L 218.835736 200.647139 
L 218.835736 200.342255 
L 219.007421 200.342255 
L 219.093382 199.732487 
L 219.329043 199.732487 
L 219.430362 198.512951 
L 219.472564 198.512951 
L 219.544618 197.598299 
L 219.687361 197.598299 
L 219.774628 196.378763 
L 219.869732 196.378763 
L 219.952936 195.768995 
L 220.000006 195.768995 
L 220.040869 195.159227 
L 220.136462 195.159227 
L 220.136462 194.854343 
L 220.338033 194.854343 
L 220.374892 194.244575 
L 220.453141 194.244575 
L 220.453141 193.939691 
L 220.619704 193.939691 
L 220.619704 193.634807 
L 220.741913 193.634807 
L 220.741913 193.329923 
L 220.92773 193.329923 
L 220.988045 192.415271 
L 221.276243 192.415271 
L 221.276243 192.110387 
L 221.771517 192.110387 
L 221.826505 191.500619 
L 221.926892 191.500619 
L 221.926892 191.195735 
L 222.225162 191.195735 
L 222.225162 190.890851 
L 222.406252 190.890851 
L 222.446922 190.281083 
L 222.731638 190.281083 
L 222.731638 189.976199 
L 223.003476 189.976199 
L 223.003476 189.671315 
L 223.129788 189.671315 
L 223.160862 188.756663 
L 223.375722 188.756663 
L 223.375722 188.45178 
L 223.633634 188.45178 
L 223.633634 188.146896 
L 223.824708 188.146896 
L 223.833462 187.537128 
L 223.980082 187.537128 
L 223.980082 187.232244 
L 224.204255 187.232244 
L 224.250635 186.622476 
L 224.355142 186.622476 
L 224.3884 186.012708 
L 224.475011 186.012708 
L 224.475011 185.707824 
L 224.630386 185.707824 
L 224.630386 185.40294 
L 224.966555 185.40294 
L 224.966555 185.098056 
L 225.191305 185.098056 
L 225.191305 184.793172 
L 225.421314 184.793172 
L 225.421314 184.183404 
L 225.535077 184.183404 
L 225.602318 183.268752 
L 225.70603 183.268752 
L 225.70603 182.963868 
L 225.960636 182.963868 
L 226.052912 181.744332 
L 226.163221 181.744332 
L 226.257446 180.82968 
L 226.314144 180.82968 
L 226.356417 180.219912 
L 226.591994 180.219912 
L 226.591994 179.915028 
L 226.845226 179.915028 
L 226.90775 179.30526 
L 227.050862 179.30526 
L 227.050862 179.000376 
L 227.405713 179.000376 
L 227.405713 178.695492 
L 227.781335 178.695492 
L 227.781335 178.390608 
L 228.007968 178.390608 
L 228.007968 178.085724 
L 228.350547 178.085724 
L 228.350547 177.78084 
L 228.490342 177.78084 
L 228.576392 176.25642 
L 228.626318 176.25642 
L 228.626318 175.646652 
L 228.781693 175.646652 
L 228.781693 175.036884 
L 229.059634 175.036884 
L 229.169346 174.122232 
L 229.199348 174.122232 
L 229.199348 173.817348 
L 229.324721 173.817348 
L 229.324721 173.512464 
L 229.820841 173.512464 
L 229.820841 173.20758 
L 230.222925 173.20758 
L 230.222925 172.902696 
L 230.3783 172.902696 
L 230.3783 172.597812 
L 230.52391 172.597812 
L 230.564955 171.988045 
L 230.831875 171.988045 
L 230.831875 171.683161 
L 231.059057 171.683161 
L 231.059057 171.073393 
L 231.298011 171.073393 
L 231.298011 170.768509 
L 231.503396 170.768509 
L 231.602085 169.548973 
L 231.694589 169.548973 
L 231.694589 169.244089 
L 231.979305 169.244089 
L 232.06535 168.634321 
L 232.618752 168.634321 
L 232.655663 168.024553 
L 232.844131 168.024553 
L 232.844131 167.719669 
L 233.168153 167.719669 
L 233.202643 166.805017 
L 233.463829 166.805017 
L 233.463829 166.500133 
L 233.719271 166.500133 
L 233.779233 165.890365 
L 234.118541 165.890365 
L 234.194988 164.975713 
L 234.354881 164.975713 
L 234.44112 164.365945 
L 234.526858 164.365945 
L 234.526858 164.061061 
L 234.713198 164.061061 
L 234.814686 163.146409 
L 235.024535 163.146409 
L 235.066706 162.231757 
L 235.224592 162.231757 
L 235.224592 161.926873 
L 235.42509 161.926873 
L 235.42509 161.621989 
L 235.678237 161.621989 
L 235.772462 161.012221 
L 235.8476 161.012221 
L 235.8476 160.707337 
L 235.993641 160.707337 
L 235.993641 160.402453 
L 236.184713 160.402453 
L 236.253184 159.792685 
L 236.422765 159.792685 
L 236.422765 159.487801 
L 236.663581 159.487801 
L 236.705072 158.573149 
L 236.869282 158.573149 
L 236.963172 157.658497 
L 237.013098 157.658497 
L 237.017343 157.048729 
L 237.277783 157.048729 
L 237.37566 156.438961 
L 237.649241 156.438961 
L 237.729168 155.829193 
L 237.799304 155.829193 
L 237.799304 155.524309 
L 237.928086 155.524309 
L 237.992242 154.914542 
L 238.147617 154.914542 
L 238.147617 154.609658 
L 238.456823 154.609658 
L 238.456823 154.304774 
L 238.815141 154.304774 
L 238.920151 153.390122 
L 239.159105 153.390122 
L 239.168649 152.780354 
L 239.276473 152.780354 
L 239.276473 152.47547 
L 239.412278 152.47547 
L 239.46318 151.865702 
L 239.680141 151.865702 
L 239.718176 151.255934 
L 240.12639 151.255934 
L 240.12639 150.95105 
L 240.298075 150.95105 
L 240.337874 150.341282 
L 240.424981 150.341282 
L 240.516758 148.816862 
L 240.574073 148.816862 
L 240.684897 147.292442 
L 240.731868 147.292442 
L 240.800134 146.37779 
L 241.083488 146.37779 
L 241.165916 145.158254 
L 241.480067 145.158254 
L 241.547209 144.243602 
L 241.771367 144.243602 
L 241.771367 143.938718 
L 241.938935 143.938718 
L 242.029467 143.024066 
L 242.072898 143.024066 
L 242.170679 141.80453 
L 242.391065 141.80453 
L 242.42167 141.194762 
L 242.62099 141.194762 
L 242.706469 139.975226 
L 242.773291 139.975226 
L 242.842175 139.060574 
L 242.907996 139.060574 
L 243.013859 137.841039 
L 243.041368 137.841039 
L 243.151874 136.011735 
L 243.153863 136.011735 
L 243.239597 134.792199 
L 243.356773 134.792199 
L 243.427546 133.572663 
L 243.494798 133.572663 
L 243.503981 132.962895 
L 243.676 132.962895 
L 243.728513 131.743359 
L 243.876171 131.743359 
L 243.876171 131.438475 
L 243.994353 131.438475 
L 244.101909 130.523823 
L 244.177652 130.523823 
L 244.241586 129.914055 
L 244.549095 129.914055 
L 244.638151 129.304287 
L 244.708915 129.304287 
L 244.781167 128.389635 
L 244.83381 128.389635 
L 244.884283 127.779867 
L 245.006586 127.779867 
L 245.046027 127.170099 
L 245.139485 127.170099 
L 245.181321 126.560331 
L 245.43238 126.560331 
L 245.492992 125.950563 
L 245.832944 125.950563 
L 245.890408 125.340795 
L 245.972947 125.340795 
L 246.058682 124.731027 
L 246.551866 124.731027 
L 246.628715 123.511491 
L 246.777927 123.511491 
L 246.840114 122.901723 
L 247.116006 122.901723 
L 247.192675 121.682188 
L 247.261169 121.682188 
L 247.261169 121.377304 
L 247.499505 121.377304 
L 247.50808 120.462652 
L 247.648063 120.462652 
L 247.735704 119.548 
L 247.939154 119.548 
L 248.020419 118.633348 
L 248.051108 118.633348 
L 248.051108 118.328464 
L 248.169584 118.328464 
L 248.279595 117.718696 
L 248.286075 117.718696 
L 248.286075 117.413812 
L 248.789282 117.413812 
L 248.789282 117.108928 
L 248.927808 117.108928 
L 248.927808 116.804044 
L 249.097308 116.804044 
L 249.104686 116.194276 
L 249.214328 116.194276 
L 249.214328 115.889392 
L 249.552696 115.889392 
L 249.552696 114.97474 
L 249.702759 114.97474 
L 249.702759 114.669856 
L 249.939996 114.669856 
L 249.939996 114.364972 
L 250.158147 114.364972 
L 250.202999 113.755204 
L 250.493366 113.755204 
L 250.550046 113.145436 
L 250.653809 113.145436 
L 250.653809 112.840552 
L 250.873438 112.840552 
L 250.873438 112.535668 
L 251.132397 112.535668 
L 251.158154 111.9259 
L 251.445317 111.9259 
L 251.514074 111.011248 
L 251.844223 111.011248 
L 251.844223 110.706364 
L 252.215158 110.706364 
L 252.215158 110.40148 
L 252.537314 110.40148 
L 252.603236 109.791712 
L 252.707774 109.791712 
L 252.707774 109.486828 
L 253.069372 109.486828 
L 253.069372 109.181944 
L 253.233459 109.181944 
L 253.25354 108.572176 
L 253.486691 108.572176 
L 253.486691 108.267292 
L 253.654639 108.267292 
L 253.737512 107.657524 
L 254.184943 107.657524 
L 254.293694 107.047756 
L 254.354307 107.047756 
L 254.354307 106.437988 
L 254.603938 106.437988 
L 254.603938 106.133104 
L 254.796938 106.133104 
L 254.897335 105.523337 
L 255.194248 105.523337 
L 255.194248 105.218453 
L 255.938901 105.218453 
L 255.950913 104.608685 
L 256.053989 104.608685 
L 256.053989 104.303801 
L 256.383669 104.303801 
L 256.462307 103.694033 
L 256.520125 103.694033 
L 256.558599 103.084265 
L 256.634489 103.084265 
L 256.634489 102.779381 
L 256.847405 102.779381 
L 256.874004 102.169613 
L 256.978153 102.169613 
L 256.978153 101.864729 
L 257.224669 101.864729 
L 257.224669 101.559845 
L 257.367411 101.559845 
L 257.404847 100.645193 
L 257.509384 100.645193 
L 257.509384 100.340309 
L 257.680371 100.340309 
L 257.680371 100.035425 
L 257.947875 100.035425 
L 257.958622 99.425657 
L 258.091226 99.425657 
L 258.091226 99.120773 
L 258.286886 99.120773 
L 258.286886 98.815889 
L 258.634396 98.815889 
L 258.734533 98.206121 
L 259.001453 98.206121 
L 259.001453 97.901237 
L 259.420602 97.901237 
L 259.519177 97.291469 
L 259.877495 97.291469 
L 259.978982 96.681701 
L 260.070905 96.681701 
L 260.070905 96.376817 
L 260.231003 96.376817 
L 260.231003 96.071933 
L 260.342833 96.071933 
L 260.342833 95.767049 
L 260.58855 95.767049 
L 260.666318 95.157281 
L 260.955169 95.157281 
L 260.955169 94.852397 
L 261.094554 94.852397 
L 261.14448 94.242629 
L 261.724128 94.242629 
L 261.782314 93.632861 
L 262.29153 93.632861 
L 262.29153 93.327977 
L 262.854849 93.327977 
L 262.868169 92.718209 
L 263.035852 92.718209 
L 263.046257 92.108441 
L 263.329383 92.108441 
L 263.39417 91.193789 
L 263.720231 91.193789 
L 263.747678 90.584021 
L 263.90142 90.584021 
L 263.90142 90.279137 
L 264.19865 90.279137 
L 264.290706 89.059601 
L 264.440769 89.059601 
L 264.440769 88.754718 
L 264.585473 88.754718 
L 264.611229 88.14495 
L 264.765241 88.14495 
L 264.765241 87.840066 
L 265.285007 87.840066 
L 265.381439 87.230298 
L 265.447361 87.230298 
L 265.447361 86.925414 
L 265.611448 86.925414 
L 265.708719 86.010762 
L 265.818819 86.010762 
L 265.896164 85.400994 
L 266.097664 85.400994 
L 266.097664 85.09611 
L 266.330213 85.09611 
L 266.330213 84.791226 
L 266.770771 84.791226 
L 266.770771 84.486342 
L 266.914435 84.486342 
L 266.914435 84.181458 
L 267.054438 84.181458 
L 267.1482 83.266806 
L 267.370001 83.266806 
L 267.370001 82.961922 
L 267.595847 82.961922 
L 267.620822 82.352154 
L 267.957445 82.352154 
L 268.000792 81.742386 
L 268.082152 81.742386 
L 268.140796 80.827734 
L 268.22653 80.827734 
L 268.250013 80.217966 
L 268.670933 80.217966 
L 268.670933 79.913082 
L 269.077559 79.913082 
L 269.128124 79.303314 
L 269.341949 79.303314 
L 269.412839 78.693546 
L 269.455515 78.693546 
L 269.455515 78.388662 
L 269.712015 78.388662 
L 269.712015 78.083778 
L 270.248971 78.083778 
L 270.248971 77.47401 
L 270.466678 77.47401 
L 270.466678 77.169126 
L 270.760097 77.169126 
L 270.792 76.559358 
L 270.96246 76.559358 
L 270.96246 76.254474 
L 271.716163 76.254474 
L 271.716163 75.94959 
L 271.845578 75.94959 
L 271.845578 75.644706 
L 272.255484 75.644706 
L 272.255484 75.339822 
L 272.858624 75.339822 
L 272.858624 75.034938 
L 273.472543 75.034938 
L 273.472543 74.730054 
L 273.588136 74.730054 
L 273.588136 74.42517 
L 274.308675 74.42517 
L 274.308675 74.120286 
L 274.457888 74.120286 
L 274.457888 73.815402 
L 274.716993 73.815402 
L 274.716993 73.510518 
L 274.958978 73.510518 
L 274.958978 73.205634 
L 275.232838 73.205634 
L 275.232838 72.90075 
L 276.985618 72.90075 
L 276.985618 72.595866 
L 277.134831 72.595866 
L 277.236439 71.986099 
L 278.233668 71.986099 
L 278.233668 71.681215 
L 278.693176 71.681215 
L 278.693176 71.376331 
L 279.027217 71.376331 
L 279.110286 70.461679 
L 279.273349 70.461679 
L 279.349239 69.547027 
L 279.614895 69.547027 
L 279.653314 68.937259 
L 279.728207 68.937259 
L 279.823774 68.327491 
L 280.706892 68.327491 
L 280.706892 68.022607 
L 281.260457 68.022607 
L 281.260457 67.717723 
L 282.437678 67.717723 
L 282.437678 67.412839 
L 282.844667 67.412839 
L 282.865915 66.498187 
L 283.041076 66.498187 
L 283.041076 66.193303 
L 283.495489 66.193303 
L 283.495489 65.888419 
L 284.008877 65.888419 
L 284.008877 65.583535 
L 286.062067 65.583535 
L 286.062067 65.278651 
L 286.361343 65.278651 
L 286.361343 64.973767 
L 286.501754 64.973767 
L 286.501754 64.668883 
L 286.712371 64.668883 
L 286.712371 64.363999 
L 288.210553 64.363999 
L 288.210553 64.059115 
L 288.476209 64.059115 
L 288.476209 63.754231 
L 288.670443 63.754231 
L 288.670443 63.449347 
L 289.583315 63.449347 
L 289.583315 63.144463 
L 290.746169 63.144463 
L 290.746169 62.839579 
L 290.863678 62.839579 
L 290.863678 62.229811 
L 291.132992 62.229811 
L 291.226938 61.620043 
L 291.406706 61.620043 
L 291.406706 61.315159 
L 291.585256 61.315159 
L 291.585256 61.010275 
L 291.727229 61.010275 
L 291.727229 60.705391 
L 291.938764 60.705391 
L 291.938764 60.400507 
L 292.238039 60.400507 
L 292.238039 60.095623 
L 292.460285 60.095623 
L 292.480292 59.485855 
L 293.461954 59.485855 
L 293.461954 59.180971 
L 293.601958 59.180971 
L 293.687692 58.571203 
L 296.14853 58.571203 
L 296.14853 58.266319 
L 297.319209 58.266319 
L 297.319209 57.961435 
L 297.603925 57.961435 
L 297.603925 57.656551 
L 300.229602 57.656551 
L 300.229602 57.351667 
L 301.049709 57.351667 
L 301.049709 57.046783 
L 303.423924 57.046783 
L 303.466625 56.437015 
L 305.64141 56.437015 
L 305.64141 56.132131 
L 306.105639 56.132131 
L 306.105639 55.827247 
L 306.277323 55.827247 
L 306.277323 55.522364 
L 306.424753 55.522364 
L 306.424753 55.21748 
L 307.139635 55.21748 
L 307.139635 54.912596 
L 307.810099 54.912596 
L 307.810099 54.607712 
L 309.096408 54.607712 
L 309.096408 54.302828 
L 311.057 54.302828 
L 311.057 53.997944 
L 313.082242 53.997944 
L 313.082242 53.69306 
L 314.552428 53.69306 
L 314.552428 53.388176 
L 319.918314 53.388176 
L 319.918314 53.083292 
L 330.177899 53.083292 
L 330.177899 52.778408 
L 331.264256 52.778408 
L 331.264256 52.473524 
L 337.193702 52.473524 
L 337.193702 52.16864 
L 337.365386 52.16864 
L 337.439834 51.558872 
L 337.611518 51.558872 
L 337.611518 51.253988 
L 338.227698 51.253988 
L 338.227698 50.949104 
L 338.47383 50.949104 
L 338.47383 50.64422 
L 340.184471 50.64422 
L 340.184471 50.339336 
L 340.430603 50.339336 
L 340.430603 50.034452 
L 347.7498 50.034452 
L 347.7498 49.729568 
L 347.921484 49.729568 
L 347.921484 49.424684 
L 348.783796 49.424684 
L 348.783796 49.1198 
L 349.635951 49.1198 
L 349.635951 48.814916 
L 350.646777 48.814916 
L 350.740569 48.205148 
L 350.818462 48.205148 
L 350.818462 47.900264 
L 351.680773 47.900264 
L 351.680773 47.59538 
L 352.569639 47.59538 
L 352.569639 47.290496 
L 353.637546 47.290496 
L 353.637546 46.985612 
L 356.725418 46.985612 
L 356.725418 46.680728 
L 361.265962 46.680728 
L 361.265962 46.375844 
L 361.512094 46.375844 
L 361.512094 46.07096 
L 361.63311 46.07096 
L 361.63311 45.766076 
L 361.804794 45.766076 
L 361.804794 45.461192 
L 362.352319 45.461192 
L 362.352319 45.156308 
L 362.598451 45.156308 
L 362.667106 44.54654 
L 364.623879 44.54654 
L 364.623879 44.241656 
L 371.248727 44.241656 
L 371.248727 43.936772 
L 371.407312 43.936772 
L 371.420411 43.327004 
L 371.82206 43.327004 
L 371.82206 43.02212 
L 372.282723 43.02212 
L 372.282723 42.717236 
L 372.908417 42.717236 
L 372.908417 42.412352 
L 374.239496 42.412352 
L 374.341 41.802584 
L 374.719037 41.802584 
L 374.719037 41.4977 
L 375.805394 41.4977 
L 375.805394 41.192816 
L 385.70537 41.192816 
L 385.70537 40.887932 
L 386.791727 40.887932 
L 386.791727 40.583048 
L 387.813481 40.583048 
L 387.813481 40.278164 
L 388.059613 40.278164 
L 388.059613 39.97328 
L 394.064807 39.97328 
L 394.064807 39.668396 
L 395.320987 39.668396 
L 395.320987 39.363512 
L 396.407344 39.363512 
L 396.407344 39.058629 
L 398.369579 39.058629 
L 398.369579 38.753745 
L 401.266556 38.753745 
L 401.266556 38.448861 
L 412.252889 38.448861 
L 412.252889 38.143977 
L 413.204464 38.143977 
L 413.204464 37.839093 
L 415.836168 37.839093 
L 415.836168 37.534209 
L 421.868506 37.534209 
L 421.868506 37.229325 
L 434.975825 37.229325 
L 434.975825 36.924441 
L 453.192 36.924441 
L 453.192 36.924441 
" clip-path="url(#pa13fa01cd3)" style="fill: none; stroke: #000000; stroke-width: 3; stroke-linecap: square"/>
   </g>
   <g id="line2d_18">
    <path clip-path="url(#pa13fa01cd3)" style="fill: none; stroke: #000000; stroke-width: 3; stroke-linecap: square"/>
   </g>
   <g id="line2d_19">
    <path d="M 34.16 249.821196 
L 116.637004 249.821196 
L 116.637004 249.414538 
L 119.301378 249.414538 
L 119.301378 249.00788 
L 120.069125 249.00788 
L 120.069125 248.601222 
L 127.548953 248.601222 
L 127.548953 248.194563 
L 128.18733 248.194563 
L 128.18733 247.787905 
L 130.372447 247.787905 
L 130.372447 247.381247 
L 131.010824 247.381247 
L 131.010824 246.974589 
L 133.403965 246.974589 
L 133.403965 246.567931 
L 134.042342 246.567931 
L 134.042342 246.161272 
L 135.783649 246.161272 
L 135.81333 245.347956 
L 136.408138 245.347956 
L 136.408138 244.941298 
L 139.895476 244.941298 
L 139.895476 244.53464 
L 140.033433 244.53464 
L 140.094364 243.721323 
L 140.230582 243.721323 
L 140.230582 243.314665 
L 140.598256 243.314665 
L 140.598256 242.908007 
L 140.828191 242.908007 
L 140.828191 242.501349 
L 141.665335 242.501349 
L 141.665335 242.09469 
L 141.80699 242.09469 
L 141.82475 241.281374 
L 142.517802 241.281374 
L 142.517802 240.874716 
L 142.639686 240.874716 
L 142.639686 240.468058 
L 142.784737 240.468058 
L 142.784737 240.061399 
L 144.442898 240.061399 
L 144.442898 239.654741 
L 144.950021 239.654741 
L 144.950021 239.248083 
L 145.28528 239.248083 
L 145.28528 238.841425 
L 145.449111 238.841425 
L 145.449111 238.434767 
L 145.588398 238.434767 
L 145.588398 238.028108 
L 145.867643 238.028108 
L 145.867643 237.62145 
L 146.216858 237.62145 
L 146.216858 237.214792 
L 146.393074 237.214792 
L 146.444717 236.401476 
L 146.697127 236.401476 
L 146.697127 235.994817 
L 147.031451 235.994817 
L 147.031451 235.588159 
L 147.266391 235.588159 
L 147.266391 235.181501 
L 147.949654 235.181501 
L 147.949654 234.774843 
L 148.691137 234.774843 
L 148.717401 233.961526 
L 149.268211 233.961526 
L 149.268211 233.554868 
L 149.385846 233.554868 
L 149.385846 233.14821 
L 149.520621 233.14821 
L 149.520621 232.741552 
L 150.297909 232.741552 
L 150.297909 232.334893 
L 151.722655 232.334893 
L 151.722655 231.928235 
L 152.050221 231.928235 
L 152.050221 231.521577 
L 152.299729 231.521577 
L 152.299729 231.114919 
L 152.552139 231.114919 
L 152.552139 230.708261 
L 152.817968 230.708261 
L 152.817968 230.301602 
L 154.659561 230.301602 
L 154.659561 229.894944 
L 155.962224 229.894944 
L 155.962224 229.488286 
L 157.323935 229.488286 
L 157.323935 229.081628 
L 158.091682 229.081628 
L 158.091682 228.67497 
L 161.843965 228.67497 
L 161.843965 228.268311 
L 163.268711 228.268311 
L 163.287019 227.454995 
L 163.845785 227.454995 
L 163.845785 227.048337 
L 164.098195 227.048337 
L 164.098195 226.641679 
L 164.711764 226.641679 
L 164.711764 226.23502 
L 165.288838 226.23502 
L 165.288838 225.828362 
L 165.541248 225.828362 
L 165.541248 225.421704 
L 166.043209 225.421704 
L 166.043209 225.015046 
L 166.181166 225.015046 
L 166.242097 224.201729 
L 166.378316 224.201729 
L 166.378316 223.795071 
L 166.70543 223.795071 
L 166.745989 222.981755 
L 166.874792 222.981755 
L 166.975924 222.168438 
L 167.813068 222.168438 
L 167.813068 221.76178 
L 167.954723 221.76178 
L 167.972484 220.948464 
L 168.543753 220.948464 
L 168.543753 220.541806 
L 168.665535 220.541806 
L 168.742641 219.321831 
L 168.787419 219.321831 
L 168.878859 218.508515 
L 169.246532 218.508515 
L 169.246532 218.101856 
L 169.369804 218.101856 
L 169.476468 217.28854 
L 169.523712 217.28854 
L 169.523712 216.881882 
L 169.698286 216.881882 
L 169.698286 216.475224 
L 170.137551 216.475224 
L 170.137551 216.068565 
L 170.313611 216.068565 
L 170.313611 215.661907 
L 170.455266 215.661907 
L 170.473027 214.848591 
L 170.670808 214.848591 
L 170.670808 214.441933 
L 171.166079 214.441933 
L 171.166079 214.035274 
L 171.287962 214.035274 
L 171.287962 213.628616 
L 172.347206 213.628616 
L 172.347206 213.221958 
L 172.644319 213.221958 
L 172.729804 212.408642 
L 172.782276 212.408642 
L 172.843207 211.595325 
L 172.979425 211.595325 
L 172.979425 211.188667 
L 173.347099 211.188667 
L 173.347099 210.782009 
L 173.494302 210.782009 
L 173.577034 209.968692 
L 174.414178 209.968692 
L 174.414178 209.562034 
L 174.555833 209.562034 
L 174.573593 208.748718 
L 175.266645 208.748718 
L 175.266645 208.34206 
L 175.378724 208.34206 
L 175.388528 207.528743 
L 176.52582 207.528743 
L 176.52582 207.122085 
L 177.918033 207.122085 
L 177.918033 206.715427 
L 178.05599 206.715427 
L 178.116921 205.90211 
L 178.253139 205.90211 
L 178.253139 205.495452 
L 178.620813 205.495452 
L 178.620813 205.088794 
L 178.850748 205.088794 
L 178.850748 204.682136 
L 179.017232 204.682136 
L 179.017232 204.275478 
L 179.687892 204.275478 
L 179.687892 203.868819 
L 179.829547 203.868819 
L 179.847307 203.055503 
L 180.540359 203.055503 
L 180.540359 202.648845 
L 180.662243 202.648845 
L 180.662243 202.242186 
L 181.681606 202.242186 
L 181.681606 201.835528 
L 182.449353 201.835528 
L 182.449353 201.42887 
L 184.27586 201.42887 
L 184.27586 201.022212 
L 185.718913 201.022212 
L 185.718913 200.615554 
L 186.92478 200.615554 
L 186.92478 200.208895 
L 188.071876 200.208895 
L 188.071876 199.802237 
L 188.367833 199.802237 
L 188.367833 199.395579 
L 188.899299 199.395579 
L 188.899299 198.988921 
L 189.514929 198.988921 
L 189.514929 198.582263 
L 189.963903 198.582263 
L 189.963903 198.175604 
L 190.10186 198.175604 
L 190.16279 197.362288 
L 190.299009 197.362288 
L 190.299009 196.95563 
L 190.666682 196.95563 
L 190.666682 196.548972 
L 190.896618 196.548972 
L 190.896618 196.142313 
L 191.733761 196.142313 
L 191.733761 195.735655 
L 191.875416 195.735655 
L 191.893177 194.922339 
L 192.586228 194.922339 
L 192.586228 194.515681 
L 192.708112 194.515681 
L 192.708112 194.109022 
L 196.44863 194.109022 
L 196.44863 193.702364 
L 198.244702 193.702364 
L 198.244702 193.295706 
L 200.189047 193.295706 
L 200.189047 192.889048 
L 200.774717 192.889048 
L 200.774717 192.48239 
L 201.127307 192.48239 
L 201.127307 192.075731 
L 201.668779 192.075731 
L 201.765685 191.262415 
L 201.78222 191.262415 
L 201.78222 190.855757 
L 202.275705 190.855757 
L 202.351702 189.635782 
L 202.413662 189.635782 
L 202.474592 188.415808 
L 202.610811 188.415808 
L 202.610811 188.009149 
L 202.978484 188.009149 
L 202.99008 187.195833 
L 203.20842 187.195833 
L 203.20842 186.789175 
L 203.60029 186.789175 
L 203.684671 185.975858 
L 204.045563 185.975858 
L 204.045563 185.5692 
L 204.187218 185.5692 
L 204.238668 184.349226 
L 204.323049 184.349226 
L 204.323049 183.942567 
L 204.89803 183.942567 
L 204.89803 183.535909 
L 205.019914 183.535909 
L 205.019914 183.129251 
L 213.528251 183.129251 
L 213.528251 182.722593 
L 214.424493 182.722593 
L 214.424493 182.315935 
L 214.861849 182.315935 
L 214.861849 181.909276 
L 218.021252 181.909276 
L 218.021252 181.502618 
L 218.562724 181.502618 
L 218.562724 181.09596 
L 218.676164 181.09596 
L 218.676164 180.689302 
L 218.877265 180.689302 
L 218.922888 179.875985 
L 219.245647 179.875985 
L 219.245647 179.469327 
L 219.445998 179.469327 
L 219.45914 178.656011 
L 219.880873 178.656011 
L 219.98747 177.842694 
L 220.023071 177.842694 
L 220.10091 176.62272 
L 220.275481 176.62272 
L 220.275481 176.216062 
L 220.494235 176.216062 
L 220.578616 174.996087 
L 220.670393 174.996087 
L 220.677984 174.18277 
L 220.816953 174.18277 
L 220.827115 173.369454 
L 220.930394 173.369454 
L 220.954153 172.556138 
L 221.077582 172.556138 
L 221.077582 172.149479 
L 221.247466 172.149479 
L 221.247466 171.742821 
L 221.480061 171.742821 
L 221.587263 170.522847 
L 221.611886 170.522847 
L 221.611886 170.116188 
L 221.918981 170.116188 
L 222.003362 168.896214 
L 222.123514 168.896214 
L 222.127528 168.082897 
L 222.35501 168.082897 
L 222.41118 167.269581 
L 222.496054 167.269581 
L 222.580435 166.456265 
L 222.704955 166.456265 
L 222.748464 165.642948 
L 222.832845 165.642948 
L 222.891261 164.829632 
L 223.472702 164.829632 
L 223.491489 164.016315 
L 223.618527 164.016315 
L 223.618527 163.609657 
L 224.144436 163.609657 
L 224.144436 163.202999 
L 224.259236 163.202999 
L 224.276261 162.389683 
L 224.386274 162.389683 
L 224.392436 161.576366 
L 224.791902 161.576366 
L 224.818 160.76305 
L 224.912183 160.76305 
L 224.912183 160.356392 
L 225.044008 160.356392 
L 225.078367 159.543075 
L 225.403669 159.543075 
L 225.403669 159.136417 
L 225.559649 159.136417 
L 225.559649 158.729759 
L 225.714242 158.729759 
L 225.716744 157.916442 
L 226.151598 157.916442 
L 226.151598 157.509784 
L 226.299911 157.509784 
L 226.299911 157.103126 
L 226.737267 157.103126 
L 226.737267 156.696468 
L 226.892979 156.696468 
L 226.892979 156.28981 
L 228.701024 156.28981 
L 228.701024 155.883151 
L 230.993545 155.883151 
L 230.993545 155.476493 
L 232.350863 155.476493 
L 232.350863 155.069835 
L 232.638888 155.069835 
L 232.638888 154.663177 
L 235.462381 154.663177 
L 235.462381 154.256519 
L 236.250355 154.256519 
L 236.26726 153.443202 
L 236.842427 153.443202 
L 236.842427 153.036544 
L 238.493899 153.036544 
L 238.493899 152.629886 
L 239.900194 152.629886 
L 239.990773 151.816569 
L 240.453146 151.816569 
L 240.453146 151.409911 
L 240.576443 151.409911 
L 240.576443 151.003253 
L 240.994618 151.003253 
L 240.994618 150.596595 
L 241.108059 150.596595 
L 241.108059 150.189937 
L 241.677541 150.189937 
L 241.677541 149.783278 
L 241.972311 149.783278 
L 241.972311 149.37662 
L 242.181361 149.37662 
L 242.181361 148.969962 
L 242.319318 148.969962 
L 242.380249 147.749987 
L 242.516467 147.749987 
L 242.516467 147.343329 
L 242.717612 147.343329 
L 242.717612 146.936671 
L 242.855569 146.936671 
L 242.926129 145.310038 
L 243.01051 145.310038 
L 243.114076 143.683405 
L 243.299053 143.683405 
L 243.397057 142.870089 
L 243.420392 142.870089 
L 243.506218 141.243456 
L 243.634159 141.243456 
L 243.650327 139.616823 
L 243.756979 139.616823 
L 243.802889 138.803507 
L 243.95122 138.803507 
L 244.026215 137.176874 
L 244.085587 137.176874 
L 244.192293 135.550241 
L 244.212625 135.550241 
L 244.284475 132.703634 
L 244.326462 132.703634 
L 244.420694 130.670343 
L 244.441266 130.670343 
L 244.547731 129.04371 
L 244.629126 129.04371 
L 244.738534 127.823735 
L 244.788367 127.823735 
L 244.876491 125.383786 
L 244.904075 125.383786 
L 245.008316 123.350495 
L 245.018303 123.350495 
L 245.07364 121.723862 
L 245.14534 121.723862 
L 245.228327 120.09723 
L 245.339938 120.09723 
L 245.441314 118.470597 
L 245.461822 118.470597 
L 245.523958 117.250622 
L 245.573139 117.250622 
L 245.671249 115.217331 
L 245.721107 115.217331 
L 245.803074 114.404015 
L 245.843424 114.404015 
L 245.921379 113.18404 
L 245.982484 113.18404 
L 246.08878 111.150749 
L 246.124139 111.150749 
L 246.141899 110.337433 
L 246.318716 110.337433 
L 246.318716 109.930774 
L 246.508393 109.930774 
L 246.508393 109.524116 
L 246.640218 109.524116 
L 246.722145 107.490825 
L 246.781873 107.490825 
L 246.834951 105.457534 
L 246.956835 105.457534 
L 246.956835 105.050876 
L 247.155859 105.050876 
L 247.155859 104.644218 
L 247.297514 104.644218 
L 247.36086 103.424243 
L 247.482743 103.424243 
L 247.492685 102.610927 
L 247.614568 102.610927 
L 247.614568 102.204269 
L 248.008327 102.204269 
L 248.008327 101.79761 
L 248.13021 101.79761 
L 248.13021 101.390952 
L 248.313129 101.390952 
L 248.313129 100.984294 
L 250.039955 100.984294 
L 250.039955 100.577636 
L 251.216278 100.577636 
L 251.216278 100.170978 
L 251.483009 100.170978 
L 251.575546 99.357661 
L 251.741624 99.357661 
L 251.741624 98.951003 
L 254.039772 98.951003 
L 254.039772 98.544345 
L 254.273148 98.544345 
L 254.273148 98.137687 
L 255.315964 98.137687 
L 255.315964 97.731028 
L 255.482042 97.731028 
L 255.482042 97.32437 
L 255.859627 97.32437 
L 255.901634 96.511054 
L 256.067711 96.511054 
L 256.067711 96.104396 
L 257.071289 96.104396 
L 257.096642 95.291079 
L 258.678991 95.291079 
L 258.683121 94.477763 
L 259.682599 94.477763 
L 259.682599 94.071105 
L 260.12816 94.071105 
L 260.12816 93.664446 
L 260.624931 93.664446 
L 260.696833 92.85113 
L 261.47138 92.85113 
L 261.47138 92.444472 
L 261.714639 92.444472 
L 261.714639 92.037814 
L 262.121579 92.037814 
L 262.121579 91.631155 
L 262.328829 91.631155 
L 262.367621 90.817839 
L 262.698653 90.817839 
L 262.804978 90.004522 
L 262.951063 90.004522 
L 262.951063 89.597864 
L 263.332438 89.597864 
L 263.332438 89.191206 
L 264.404206 89.191206 
L 264.404206 88.784548 
L 266.204926 88.784548 
L 266.204926 88.37789 
L 266.843303 88.37789 
L 266.843303 87.971231 
L 266.957243 87.971231 
L 267.053126 87.157915 
L 267.853485 87.157915 
L 267.853485 86.751257 
L 268.200222 86.751257 
L 268.290841 85.93794 
L 268.617345 85.93794 
L 268.617345 85.531282 
L 270.060399 85.531282 
L 270.060399 85.124624 
L 271.674215 85.124624 
L 271.674215 84.717966 
L 273.117269 84.717966 
L 273.117269 84.311308 
L 273.260695 84.311308 
L 273.260695 83.904649 
L 274.004182 83.904649 
L 274.004182 83.497991 
L 274.17026 83.497991 
L 274.17026 83.091333 
L 274.703748 83.091333 
L 274.703748 82.684675 
L 275.00779 82.684675 
L 275.00779 82.278017 
L 275.173868 82.278017 
L 275.173868 81.871358 
L 276.644153 81.871358 
L 276.644153 81.4647 
L 280.293991 81.4647 
L 280.293991 81.058042 
L 282.130016 81.058042 
L 282.130016 80.651384 
L 283.09887 80.651384 
L 283.128728 79.838067 
L 284.523616 79.838067 
L 284.523616 79.431409 
L 285.100689 79.431409 
L 285.100689 79.024751 
L 285.3531 79.024751 
L 285.3531 78.618093 
L 285.777648 78.618093 
L 285.779855 77.804776 
L 286.924744 77.804776 
L 286.924744 77.398118 
L 291.969344 77.398118 
L 291.969344 76.99146 
L 292.135421 76.99146 
L 292.135421 76.584802 
L 297.455207 76.584802 
L 297.455207 76.178144 
L 297.621285 76.178144 
L 297.621285 75.771485 
L 300.530587 75.771485 
L 300.530587 75.364827 
L 301.066839 75.364827 
L 301.066839 74.958169 
L 301.648279 74.958169 
L 301.648279 74.551511 
L 302.434814 74.551511 
L 302.434814 74.144853 
L 302.561851 74.144853 
L 302.561851 73.738194 
L 303.08776 73.738194 
L 303.08776 73.331536 
L 303.219585 73.331536 
L 303.219585 72.924878 
L 303.735227 72.924878 
L 303.735227 72.51822 
L 305.530765 72.51822 
L 305.530765 72.111562 
L 306.217242 72.111562 
L 306.217242 71.704903 
L 306.758714 71.704903 
L 306.758714 71.298245 
L 306.872154 71.298245 
L 306.872154 70.891587 
L 307.441637 70.891587 
L 307.441637 70.484929 
L 308.179685 70.484929 
L 308.179685 70.078271 
L 308.690225 70.078271 
L 308.774606 69.264954 
L 309.326781 69.264954 
L 309.326781 68.858296 
L 324.794632 68.858296 
L 324.794632 68.451638 
L 325.336104 68.451638 
L 325.336104 68.04498 
L 325.449544 68.04498 
L 325.449544 67.638321 
L 326.019027 67.638321 
L 326.019027 67.231663 
L 327.267615 67.231663 
L 327.351996 66.418347 
L 327.851502 66.418347 
L 327.851502 66.011689 
L 328.392974 66.011689 
L 328.392974 65.60503 
L 328.506415 65.60503 
L 328.506415 65.198372 
L 329.075897 65.198372 
L 329.075897 64.791714 
L 329.437982 64.791714 
L 329.437982 64.385056 
L 329.979454 64.385056 
L 329.979454 63.978398 
L 330.092894 63.978398 
L 330.168301 63.165081 
L 330.324485 63.165081 
L 330.408866 62.351765 
L 330.662377 62.351765 
L 330.662377 61.945107 
L 331.910965 61.945107 
L 331.995346 61.13179 
L 348.745691 61.13179 
L 348.745691 60.725132 
L 348.892823 60.725132 
L 348.892823 60.318474 
L 351.802562 60.318474 
L 351.802562 59.911815 
L 353.389041 59.911815 
L 353.389041 59.505157 
L 367.470213 59.505157 
L 367.470213 59.098499 
L 370.527084 59.098499 
L 370.527084 58.691841 
L 371.29486 58.691841 
L 371.29486 58.285183 
L 372.113563 58.285183 
L 372.113563 57.878524 
L 389.87225 57.878524 
L 389.87225 57.471866 
L 392.92912 57.471866 
L 392.92912 57.065208 
L 394.5156 57.065208 
L 394.5156 56.65855 
L 453.192 56.65855 
L 453.192 56.65855 
" clip-path="url(#pa13fa01cd3)" style="fill: none; stroke: #00bfbf; stroke-width: 3; stroke-linecap: square"/>
   </g>
   <g id="line2d_20">
    <path clip-path="url(#pa13fa01cd3)" style="fill: none; stroke: #00bfbf; stroke-width: 3; stroke-linecap: square"/>
   </g>
   <g id="line2d_21">
    <path d="M 34.16 220.069136 
L 133.731852 220.069136 
L 133.731852 219.636322 
L 134.356419 219.636322 
L 134.356419 219.203508 
L 139.085021 219.203508 
L 139.085021 218.770694 
L 139.709587 218.770694 
L 139.709587 218.33788 
L 140.089054 218.33788 
L 140.089054 217.905066 
L 140.71362 217.905066 
L 140.71362 217.472252 
L 143.562162 217.472252 
L 143.640385 216.606625 
L 144.054912 216.606625 
L 144.054912 216.173811 
L 147.008767 216.173811 
L 147.008767 215.740997 
L 147.633333 215.740997 
L 147.633333 215.308183 
L 150.191931 215.308183 
L 150.191931 214.875369 
L 150.816497 214.875369 
L 150.830567 214.009741 
L 151.84675 214.009741 
L 151.84675 213.576928 
L 152.334729 213.576928 
L 152.334729 213.144114 
L 152.687586 213.144114 
L 152.687586 212.7113 
L 156.183735 212.7113 
L 156.183735 212.278486 
L 156.462276 212.278486 
L 156.462276 211.845672 
L 157.187768 211.845672 
L 157.199918 210.980044 
L 157.687898 210.980044 
L 157.687898 210.547231 
L 158.040754 210.547231 
L 158.040754 210.114417 
L 158.203951 210.114417 
L 158.203951 209.681603 
L 158.691931 209.681603 
L 158.691931 209.248789 
L 159.044787 209.248789 
L 159.044787 208.815975 
L 161.815444 208.815975 
L 161.815444 208.383161 
L 162.819477 208.383161 
L 162.819477 207.950347 
L 163.834822 207.950347 
L 163.834822 207.517534 
L 164.107481 207.517534 
L 164.107481 207.08472 
L 165.123664 207.08472 
L 165.123664 206.651906 
L 165.611644 206.651906 
L 165.611644 206.219092 
L 165.9645 206.219092 
L 165.9645 205.786278 
L 167.290645 205.786278 
L 167.290645 205.353464 
L 168.306828 205.353464 
L 168.306828 204.92065 
L 168.794807 204.92065 
L 168.794807 204.487837 
L 169.147664 204.487837 
L 169.147664 204.055023 
L 169.73919 204.055023 
L 169.73919 203.622209 
L 172.744364 203.622209 
L 172.744364 203.189395 
L 172.922354 203.189395 
L 172.922354 202.756581 
L 175.175096 202.756581 
L 175.175096 202.323767 
L 175.443196 202.323767 
L 175.443196 201.890953 
L 178.097533 201.890953 
L 178.097533 201.45814 
L 179.101566 201.45814 
L 179.101566 201.025326 
L 180.528265 201.025326 
L 180.528265 200.592512 
L 180.796365 200.592512 
L 180.796365 200.159698 
L 181.532298 200.159698 
L 181.532298 199.726884 
L 181.800398 199.726884 
L 181.800398 199.29407 
L 186.021279 199.29407 
L 186.021279 198.861256 
L 187.656145 198.861256 
L 187.656145 198.428442 
L 188.124435 198.428442 
L 188.124435 197.995629 
L 188.452011 197.995629 
L 188.452011 197.562815 
L 188.720111 197.562815 
L 188.720111 197.130001 
L 189.204443 197.130001 
L 189.204443 196.697187 
L 189.542865 196.697187 
L 189.542865 196.264373 
L 190.011155 196.264373 
L 190.011155 195.831559 
L 190.412869 195.831559 
L 190.412869 195.398745 
L 191.635174 195.398745 
L 191.635174 194.965932 
L 191.903275 194.965932 
L 191.903275 194.533118 
L 198.245956 194.533118 
L 198.245956 194.100304 
L 200.584923 194.100304 
L 200.584923 193.66749 
L 201.209489 193.66749 
L 201.209489 193.234676 
L 201.753879 193.234676 
L 201.753879 192.801862 
L 201.913967 192.801862 
L 201.913967 192.369048 
L 202.173759 192.369048 
L 202.173759 191.936235 
L 202.378446 191.936235 
L 202.378446 191.503421 
L 202.633776 191.503421 
L 202.633776 191.070607 
L 202.798326 191.070607 
L 202.839828 190.204979 
L 203.464394 190.204979 
L 203.464394 189.772165 
L 203.903151 189.772165 
L 203.903151 189.339351 
L 204.083139 189.339351 
L 204.181136 188.473724 
L 204.527718 188.473724 
L 204.527718 188.04091 
L 204.739279 188.04091 
L 204.841647 186.742468 
L 205.133392 186.742468 
L 205.133392 186.309654 
L 205.306426 186.309654 
L 205.306426 185.876841 
L 205.969859 185.876841 
L 205.969859 185.444027 
L 206.136047 185.444027 
L 206.136047 185.011213 
L 206.625999 185.011213 
L 206.728367 184.145585 
L 207.020112 184.145585 
L 207.020112 183.712771 
L 207.193146 183.712771 
L 207.193146 183.279957 
L 208.022767 183.279957 
L 208.022767 182.847144 
L 208.414837 182.847144 
L 208.414837 182.41433 
L 208.883127 182.41433 
L 208.883127 181.981516 
L 213.452501 181.981516 
L 213.452501 181.548702 
L 213.64794 181.548702 
L 213.64794 181.115888 
L 214.755831 181.115888 
L 214.755831 180.683074 
L 217.683637 180.683074 
L 217.683637 180.25026 
L 218.69982 180.25026 
L 218.69982 179.817446 
L 218.852594 179.817446 
L 218.852594 179.384633 
L 219.1878 179.384633 
L 219.272474 178.519005 
L 219.540656 178.519005 
L 219.540656 178.086191 
L 219.868777 178.086191 
L 219.938542 177.220563 
L 220.288657 177.220563 
L 220.394172 175.922122 
L 220.709613 175.922122 
L 220.776636 175.056494 
L 220.954725 175.056494 
L 221.001866 173.758052 
L 221.129493 173.758052 
L 221.129493 173.325239 
L 221.279851 173.325239 
L 221.285587 172.459611 
L 221.442705 172.459611 
L 221.481027 171.593983 
L 221.795561 171.593983 
L 221.795561 171.161169 
L 222.018049 171.161169 
L 222.018049 170.728355 
L 222.296034 170.728355 
L 222.296034 170.295542 
L 222.506028 170.295542 
L 222.588918 169.429914 
L 222.784013 169.429914 
L 222.858885 168.564286 
L 223.13687 168.564286 
L 223.13687 168.131472 
L 223.315346 168.131472 
L 223.315346 167.698658 
L 224.484302 167.698658 
L 224.484302 167.265845 
L 224.841831 167.265845 
L 224.904182 166.400217 
L 224.953599 166.400217 
L 224.963444 165.534589 
L 225.149038 165.534589 
L 225.149038 165.101775 
L 225.497971 165.101775 
L 225.600339 163.37052 
L 225.673408 163.37052 
L 225.673408 162.937706 
L 225.821913 162.937706 
L 225.892083 161.639264 
L 226.065118 161.639264 
L 226.065118 161.20645 
L 226.256929 161.20645 
L 226.290204 160.340823 
L 226.633574 160.340823 
L 226.633574 159.908009 
L 226.894739 159.908009 
L 226.995069 158.176753 
L 227.463359 158.176753 
L 227.463359 157.74394 
L 230.099001 157.74394 
L 230.099001 157.311126 
L 232.308963 157.311126 
L 232.308963 156.878312 
L 237.910196 156.878312 
L 237.932087 156.012684 
L 239.597435 156.012684 
L 239.597435 155.57987 
L 240.14205 155.57987 
L 240.14205 155.147056 
L 240.766391 155.147056 
L 240.766391 154.714243 
L 241.186271 154.714243 
L 241.186271 154.281429 
L 241.600099 154.281429 
L 241.600099 153.848615 
L 241.85234 153.848615 
L 241.937156 152.982987 
L 242.028167 152.982987 
L 242.062159 152.117359 
L 242.248907 152.117359 
L 242.319908 150.818918 
L 242.782632 150.818918 
L 242.782632 150.386104 
L 242.900146 150.386104 
L 243.007415 148.654849 
L 243.078342 148.654849 
L 243.127088 147.789221 
L 243.193648 147.789221 
L 243.29916 146.490779 
L 243.32579 146.490779 
L 243.433804 144.32671 
L 243.465223 144.32671 
L 243.566321 142.595454 
L 243.595378 142.595454 
L 243.629243 141.297013 
L 243.79408 141.297013 
L 243.885103 139.565757 
L 243.919178 139.565757 
L 243.974668 138.70013 
L 244.033686 138.70013 
L 244.078203 136.968874 
L 244.180571 136.968874 
L 244.283072 135.670433 
L 244.301815 135.670433 
L 244.301815 135.237619 
L 244.472315 135.237619 
L 244.551172 133.506363 
L 244.64535 133.506363 
L 244.737134 132.640736 
L 245.342158 132.640736 
L 245.346395 131.775108 
L 245.474971 131.775108 
L 245.474971 131.342294 
L 245.614495 131.342294 
L 245.62438 130.476666 
L 245.89248 130.476666 
L 245.89248 130.043853 
L 247.290324 130.043853 
L 247.290324 129.611039 
L 247.693867 129.611039 
L 247.693867 129.178225 
L 248.294358 129.178225 
L 248.294358 128.745411 
L 251.641826 128.745411 
L 251.641826 128.312597 
L 252.130798 128.312597 
L 252.130798 127.879783 
L 252.537314 127.879783 
L 252.537314 127.446969 
L 255.21407 127.446969 
L 255.309838 126.581342 
L 256.029647 126.581342 
L 256.029647 126.148528 
L 257.483966 126.148528 
L 257.483966 125.715714 
L 257.890483 125.715714 
L 257.890483 125.2829 
L 258.397234 125.2829 
L 258.487999 124.417272 
L 258.894516 124.417272 
L 258.894516 123.984458 
L 259.32714 123.984458 
L 259.32714 123.551645 
L 259.554082 123.551645 
L 259.554082 123.118831 
L 259.752784 123.118831 
L 259.752784 122.686017 
L 259.933372 122.686017 
L 259.983281 121.820389 
L 260.080304 121.820389 
L 260.085648 120.954761 
L 260.210222 120.954761 
L 260.31259 120.089134 
L 260.377393 120.089134 
L 260.466367 118.790692 
L 260.507834 118.790692 
L 260.604334 116.626623 
L 260.685328 116.626623 
L 260.777369 115.328181 
L 260.803036 115.328181 
L 260.803036 114.895367 
L 260.949827 114.895367 
L 260.983624 113.596926 
L 261.122507 113.596926 
L 261.224875 111.86567 
L 261.380049 111.86567 
L 261.380049 111.432856 
L 261.51662 111.432856 
L 261.60699 110.134415 
L 261.689655 110.134415 
L 261.689655 109.701601 
L 261.805692 109.701601 
L 261.805692 109.268787 
L 261.98628 109.268787 
L 262.011997 108.403159 
L 262.253157 108.403159 
L 262.290266 107.537532 
L 262.364853 107.537532 
L 262.364853 107.104718 
L 262.519275 107.104718 
L 262.519275 106.671904 
L 262.89529 106.671904 
L 262.89529 106.23909 
L 263.975956 106.23909 
L 263.975956 105.806276 
L 265.407712 105.806276 
L 265.407712 105.373462 
L 265.814229 105.373462 
L 265.850871 104.075021 
L 266.017703 104.075021 
L 266.017703 103.642207 
L 266.139543 103.642207 
L 266.139543 103.209393 
L 266.406688 103.209393 
L 266.475437 102.343765 
L 266.674788 102.343765 
L 266.674788 101.910952 
L 267.125594 101.910952 
L 267.125594 101.478138 
L 268.590876 101.478138 
L 268.590876 101.045324 
L 268.997392 101.045324 
L 268.997392 100.61251 
L 273.790043 100.61251 
L 273.790043 100.179696 
L 274.395066 100.179696 
L 274.395066 99.746882 
L 277.596327 99.746882 
L 277.596327 99.314068 
L 279.806289 99.314068 
L 279.806289 98.881255 
L 282.421632 98.881255 
L 282.468764 98.015627 
L 282.949585 98.015627 
L 282.949585 97.582813 
L 283.965768 97.582813 
L 283.965768 97.149999 
L 284.453748 97.149999 
L 284.453748 96.717185 
L 284.678726 96.717185 
L 284.678726 96.284371 
L 284.806604 96.284371 
L 284.852363 95.418744 
L 285.120464 95.418744 
L 285.120464 94.98593 
L 288.581294 94.98593 
L 288.581294 94.553116 
L 291.306066 94.553116 
L 291.306066 94.120302 
L 296.178502 94.120302 
L 296.178502 93.687488 
L 304.863383 93.687488 
L 304.863383 93.254674 
L 307.294114 93.254674 
L 307.294114 92.82186 
L 307.562215 92.82186 
L 307.562215 92.389047 
L 308.790226 92.389047 
L 308.790226 91.956233 
L 309.959183 91.956233 
L 309.959183 91.523419 
L 310.379063 91.523419 
L 310.379063 91.090605 
L 311.045132 91.090605 
L 311.045132 90.657791 
L 312.108455 90.657791 
L 312.108455 90.224977 
L 312.38644 90.224977 
L 312.38644 89.792163 
L 318.983868 89.792163 
L 318.983868 89.35935 
L 319.390385 89.35935 
L 319.390385 88.926536 
L 320.152824 88.926536 
L 320.152824 88.493722 
L 320.559341 88.493722 
L 320.572704 87.628094 
L 320.979221 87.628094 
L 320.979221 87.19528 
L 321.238773 87.19528 
L 321.238773 86.762466 
L 321.64529 86.762466 
L 321.64529 86.329653 
L 322.302096 86.329653 
L 322.302096 85.896839 
L 322.580082 85.896839 
L 322.580082 85.464025 
L 322.708613 85.464025 
L 322.708613 85.031211 
L 322.986598 85.031211 
L 322.986598 84.598397 
L 333.168748 84.598397 
L 333.168748 84.165583 
L 343.362389 84.165583 
L 343.362389 83.732769 
L 343.768906 83.732769 
L 343.768906 83.299956 
L 351.614423 83.299956 
L 351.614423 82.867142 
L 361.808065 82.867142 
L 361.808065 82.434328 
L 362.214582 82.434328 
L 362.214582 82.001514 
L 374.056174 82.001514 
L 374.056174 81.5687 
L 384.249816 81.5687 
L 384.249816 81.135886 
L 384.656333 81.135886 
L 384.656333 80.703072 
L 453.192 80.703072 
L 453.192 80.703072 
" clip-path="url(#pa13fa01cd3)" style="fill: none; stroke: #bf00bf; stroke-width: 3; stroke-linecap: square"/>
   </g>
   <g id="line2d_22">
    <path clip-path="url(#pa13fa01cd3)" style="fill: none; stroke: #bf00bf; stroke-width: 3; stroke-linecap: square"/>
   </g>
   <g id="line2d_23">
    <path d="M 34.16 218.795154 
L 135.786102 218.795154 
L 135.786102 218.351469 
L 136.503069 218.351469 
L 136.503069 217.907784 
L 145.400833 217.907784 
L 145.400833 217.464099 
L 146.1178 217.464099 
L 146.1178 217.020414 
L 147.870467 217.020414 
L 147.870467 216.576729 
L 148.397125 216.576729 
L 148.397125 216.133043 
L 148.587434 216.133043 
L 148.649475 215.245673 
L 148.868073 215.245673 
L 148.868073 214.801988 
L 151.15695 214.801988 
L 151.15695 214.358303 
L 151.873917 214.358303 
L 151.873917 213.914618 
L 152.289784 213.914618 
L 152.289784 213.470932 
L 153.507962 213.470932 
L 153.507962 213.027247 
L 153.749216 213.027247 
L 153.749216 212.583562 
L 154.224928 212.583562 
L 154.224928 212.139877 
L 154.386356 212.139877 
L 154.4143 211.252507 
L 159.182635 211.252507 
L 159.182635 210.808821 
L 161.904514 210.808821 
L 161.904514 210.365136 
L 163.363946 210.365136 
L 163.363946 209.921451 
L 164.001087 209.921451 
L 164.029031 209.034081 
L 164.374149 209.034081 
L 164.374149 208.590396 
L 165.833581 208.590396 
L 165.833581 208.14671 
L 166.470721 208.14671 
L 166.498665 207.25934 
L 167.660632 207.25934 
L 167.660632 206.815655 
L 168.325942 206.815655 
L 168.325942 206.37197 
L 168.797366 206.37197 
L 168.797366 205.928285 
L 169.120064 205.928285 
L 169.120064 205.484599 
L 169.757204 205.484599 
L 169.785148 204.597229 
L 170.011643 204.597229 
L 170.011643 204.153544 
L 171.267 204.153544 
L 171.267 203.709859 
L 171.471075 203.709859 
L 171.471075 203.266174 
L 172.108215 203.266174 
L 172.136159 202.378803 
L 174.41726 202.378803 
L 174.41726 201.935118 
L 174.553483 201.935118 
L 174.553483 201.491433 
L 176.881209 201.491433 
L 176.904494 200.604063 
L 177.311206 200.604063 
L 177.311206 200.160377 
L 184.031991 200.160377 
L 184.031991 199.716692 
L 186.49594 199.716692 
L 186.501625 198.829322 
L 186.925936 198.829322 
L 186.925936 198.385637 
L 188.965574 198.385637 
L 188.965574 197.941952 
L 189.395571 197.941952 
L 189.395571 197.498266 
L 189.788108 197.498266 
L 189.788108 197.054581 
L 190.883839 197.054581 
L 190.926897 196.167211 
L 192.139119 196.167211 
L 192.139119 195.723526 
L 192.252057 195.723526 
L 192.323433 194.836155 
L 192.366491 194.836155 
L 192.366491 194.39247 
L 192.682054 194.39247 
L 192.682054 193.948785 
L 194.603069 193.948785 
L 194.603069 193.5051 
L 195.033065 193.5051 
L 195.033065 193.061415 
L 200.895607 193.061415 
L 200.895607 192.61773 
L 201.416178 192.61773 
L 201.416178 192.174044 
L 202.133145 192.174044 
L 202.133145 191.730359 
L 202.46132 191.730359 
L 202.46132 191.286674 
L 202.711799 191.286674 
L 202.726634 190.399304 
L 203.178287 190.399304 
L 203.178287 189.955619 
L 203.428766 189.955619 
L 203.443601 189.068248 
L 203.781899 189.068248 
L 203.781899 188.624563 
L 203.926829 188.624563 
L 203.926829 188.180878 
L 204.480769 188.180878 
L 204.498866 187.293508 
L 204.643795 187.293508 
L 204.643795 186.849822 
L 205.002045 186.849822 
L 205.002045 186.406137 
L 206.575589 186.406137 
L 206.575589 185.962452 
L 207.186329 185.962452 
L 207.186329 185.518767 
L 207.440025 185.518767 
L 207.440025 185.075082 
L 207.615395 185.075082 
L 207.615395 184.631397 
L 208.015183 184.631397 
L 208.015183 184.187711 
L 208.505163 184.187711 
L 208.505163 183.744026 
L 208.625924 183.744026 
L 208.723347 182.856656 
L 208.879619 182.856656 
L 208.879619 182.412971 
L 209.054989 182.412971 
L 209.054989 181.969286 
L 209.944757 181.969286 
L 209.944757 181.5256 
L 210.128824 181.5256 
L 210.171882 180.194545 
L 217.91986 180.194545 
L 217.91986 179.75086 
L 218.965001 179.75086 
L 218.965001 179.307175 
L 219.215481 179.307175 
L 219.230316 178.419804 
L 219.379292 178.419804 
L 219.379292 177.976119 
L 220.016432 177.976119 
L 220.044376 177.088749 
L 220.28558 177.088749 
L 220.28558 176.645064 
L 220.424433 176.645064 
L 220.43051 175.757693 
L 220.674913 175.757693 
L 220.689747 174.870323 
L 221.061574 174.870323 
L 221.089518 173.982953 
L 221.312053 173.982953 
L 221.354832 172.208212 
L 221.745012 172.208212 
L 221.846837 171.320842 
L 221.889942 171.320842 
L 221.889942 170.877156 
L 222.382153 170.877156 
L 222.410097 169.989786 
L 222.527082 169.989786 
L 222.555026 169.102416 
L 222.694787 169.102416 
L 222.694787 168.658731 
L 222.981615 168.658731 
L 222.981615 168.215045 
L 223.421565 168.215045 
L 223.510342 167.327675 
L 224.812711 167.327675 
L 224.812711 166.88399 
L 225.393735 166.88399 
L 225.431999 165.99662 
L 225.820574 165.99662 
L 225.857853 165.109249 
L 225.953275 165.109249 
L 225.953275 164.665564 
L 226.108332 164.665564 
L 226.123167 163.334509 
L 226.279949 163.334509 
L 226.3441 162.003453 
L 226.431315 162.003453 
L 226.431315 161.559768 
L 226.68501 161.559768 
L 226.68501 161.116083 
L 226.801224 161.116083 
L 226.860381 160.228712 
L 227.095504 160.228712 
L 227.178432 159.341342 
L 227.323361 159.341342 
L 227.323361 158.897657 
L 227.616779 158.897657 
L 227.616779 158.453972 
L 227.750148 158.453972 
L 227.750148 158.010287 
L 227.890925 158.010287 
L 227.968332 156.679231 
L 234.562922 156.679231 
L 234.562922 156.235546 
L 237.732549 156.235546 
L 237.732549 155.791861 
L 239.346427 155.791861 
L 239.346427 155.348176 
L 240.047336 155.348176 
L 240.047336 154.90449 
L 240.373515 154.90449 
L 240.373515 154.460805 
L 241.092478 154.460805 
L 241.092478 154.01712 
L 241.317711 154.01712 
L 241.357792 152.686065 
L 241.838986 152.686065 
L 241.897416 151.798694 
L 241.992793 151.798694 
L 241.992793 151.355009 
L 242.413057 151.355009 
L 242.511285 150.467639 
L 242.557986 150.467639 
L 242.603533 149.580268 
L 242.857228 149.580268 
L 242.941282 148.692898 
L 243.032599 148.692898 
L 243.032599 148.249213 
L 243.350102 148.249213 
L 243.430779 146.918157 
L 243.471568 146.918157 
L 243.582676 144.256046 
L 243.600911 144.256046 
L 243.600911 143.812361 
L 243.801328 143.812361 
L 243.844386 142.037621 
L 243.922367 142.037621 
L 244.027294 138.488139 
L 244.067069 138.488139 
L 244.177652 136.713399 
L 244.193416 136.713399 
L 244.251738 135.382343 
L 244.372795 135.382343 
L 244.479952 134.051288 
L 244.51821 134.051288 
L 244.622482 133.163917 
L 244.780795 133.163917 
L 244.877006 132.276547 
L 245.021936 132.276547 
L 245.021936 131.832862 
L 245.220744 131.832862 
L 245.307002 130.945491 
L 245.451932 130.945491 
L 245.51225 130.058121 
L 245.59635 130.058121 
L 245.59635 129.614436 
L 245.730433 129.614436 
L 245.730433 129.170751 
L 246.036299 129.170751 
L 246.036299 128.727066 
L 246.647287 128.727066 
L 246.647287 128.28338 
L 248.790268 128.28338 
L 248.790268 127.839695 
L 249.703835 127.839695 
L 249.703835 127.39601 
L 249.93377 127.39601 
L 249.93377 126.952325 
L 252.284781 126.952325 
L 252.284781 126.50864 
L 254.13294 126.50864 
L 254.13294 126.064955 
L 256.602575 126.064955 
L 256.602575 125.621269 
L 259.12253 125.621269 
L 259.163318 124.733899 
L 259.249603 124.733899 
L 259.318566 123.846529 
L 259.493078 123.846529 
L 259.493078 123.402844 
L 259.719044 123.402844 
L 259.818556 121.628103 
L 259.853783 121.628103 
L 259.889057 120.297047 
L 259.986965 120.297047 
L 260.027753 119.409677 
L 260.103818 119.409677 
L 260.203124 117.634936 
L 260.258506 117.634936 
L 260.357514 115.416511 
L 260.532884 115.416511 
L 260.583479 114.52914 
L 260.75885 114.52914 
L 260.75885 114.085455 
L 261.052104 114.085455 
L 261.145607 112.7544 
L 261.179177 112.7544 
L 261.270287 111.867029 
L 261.311075 111.867029 
L 261.397361 110.535974 
L 261.422652 110.535974 
L 261.422652 110.092289 
L 261.640835 110.092289 
L 261.648618 109.204918 
L 261.7882 109.204918 
L 261.866801 108.317548 
L 261.950356 108.317548 
L 261.9783 106.986492 
L 262.240069 106.986492 
L 262.240069 106.542807 
L 262.459523 106.542807 
L 262.459523 106.099122 
L 262.899472 106.099122 
L 262.899472 105.655437 
L 264.024893 105.655437 
L 264.024893 105.211752 
L 264.912803 105.211752 
L 264.912803 104.768067 
L 265.074683 104.768067 
L 265.074683 104.324381 
L 265.410373 104.324381 
L 265.410373 103.880696 
L 265.760753 103.880696 
L 265.760753 103.437011 
L 266.127339 103.437011 
L 266.127339 102.993326 
L 266.488842 102.993326 
L 266.576308 102.105956 
L 266.746635 102.105956 
L 266.746635 101.66227 
L 266.918838 101.66227 
L 266.918838 101.218585 
L 267.425695 101.218585 
L 267.425695 100.7749 
L 276.183368 100.7749 
L 276.183368 100.331215 
L 278.824334 100.331215 
L 278.824334 99.88753 
L 280.798515 99.88753 
L 280.798515 99.443845 
L 281.914054 99.443845 
L 281.98126 98.556474 
L 283.373486 98.556474 
L 283.439481 97.669104 
L 284.010626 97.669104 
L 284.03857 96.781734 
L 284.445209 96.781734 
L 284.445209 96.338048 
L 284.875205 96.338048 
L 284.875205 95.894363 
L 288.806905 95.894363 
L 288.806905 95.450678 
L 300.192998 95.450678 
L 300.192998 95.006993 
L 301.238139 95.006993 
L 301.238139 94.563308 
L 301.488619 94.563308 
L 301.503453 93.675937 
L 302.558718 93.675937 
L 302.558718 93.232252 
L 302.703648 93.232252 
L 302.703648 92.788567 
L 304.04153 92.788567 
L 304.04153 92.344882 
L 306.50548 92.344882 
L 306.50548 91.901197 
L 306.935476 91.901197 
L 306.935476 91.457512 
L 310.148285 91.457512 
L 310.148285 91.013826 
L 311.193427 91.013826 
L 311.193427 90.570141 
L 311.443907 90.570141 
L 311.458741 89.682771 
L 312.514006 89.682771 
L 312.514006 89.239086 
L 312.658936 89.239086 
L 312.658936 88.795401 
L 315.333911 88.795401 
L 315.333911 88.351715 
L 316.379053 88.351715 
L 316.379053 87.90803 
L 316.629533 87.90803 
L 316.644367 87.02066 
L 317.699632 87.02066 
L 317.699632 86.576975 
L 317.844562 86.576975 
L 317.844562 86.13329 
L 324.170554 86.13329 
L 324.170554 85.689604 
L 334.125842 85.689604 
L 334.125842 85.245919 
L 339.311468 85.245919 
L 339.311468 84.802234 
L 342.126921 84.802234 
L 342.126921 84.358549 
L 352.082209 84.358549 
L 352.082209 83.914864 
L 357.267835 83.914864 
L 357.267835 83.471179 
L 364.187192 83.471179 
L 364.187192 83.027493 
L 374.14248 83.027493 
L 374.14248 82.583808 
L 379.328106 82.583808 
L 379.328106 82.140123 
L 453.192 82.140123 
L 453.192 82.140123 
" clip-path="url(#pa13fa01cd3)" style="fill: none; stroke: #ff0000; stroke-width: 3; stroke-linecap: square"/>
   </g>
   <g id="line2d_24">
    <path clip-path="url(#pa13fa01cd3)" style="fill: none; stroke: #ff0000; stroke-width: 3; stroke-linecap: square"/>
   </g>
   <g id="line2d_25">
    <path d="M 243.676 291.28 
L 243.676 3 
" clip-path="url(#pa13fa01cd3)" style="fill: none; stroke: #000000; stroke-width: 1.5; stroke-linecap: square"/>
   </g>
   <g id="line2d_26">
    <path d="M 34.16 147.14 
L 453.192 147.14 
" clip-path="url(#pa13fa01cd3)" style="fill: none; stroke-dasharray: 2,3.3; stroke-dashoffset: 0; stroke: #000000; stroke-width: 2"/>
   </g>
   <g id="patch_3">
    <path d="M 34.16 291.28 
L 34.16 3 
" style="fill: none; stroke: #000000; stroke-width: 0.8; stroke-linejoin: miter; stroke-linecap: square"/>
   </g>
   <g id="patch_4">
    <path d="M 453.192 291.28 
L 453.192 3 
" style="fill: none; stroke: #000000; stroke-width: 0.8; stroke-linejoin: miter; stroke-linecap: square"/>
   </g>
   <g id="patch_5">
    <path d="M 34.16 291.28 
L 453.192 291.28 
" style="fill: none; stroke: #000000; stroke-width: 0.8; stroke-linejoin: miter; stroke-linecap: square"/>
   </g>
   <g id="patch_6">
    <path d="M 34.16 3 
L 453.192 3 
" style="fill: none; stroke: #000000; stroke-width: 0.8; stroke-linejoin: miter; stroke-linecap: square"/>
   </g>
   <g id="text_6">
    <!-- f20-f24,10-D -->
    <g transform="translate(318.19261 285.5144) scale(0.2 -0.2)">
     <defs>
      <path id="DejaVuSans-34" d="M 2419 4116 
L 825 1625 
L 2419 1625 
L 2419 4116 
z
M 2253 4666 
L 3047 4666 
L 3047 1625 
L 3713 1625 
L 3713 1100 
L 3047 1100 
L 3047 0 
L 2419 0 
L 2419 1100 
L 313 1100 
L 313 1709 
L 2253 4666 
z
" transform="scale(0.015625)"/>
      <path id="DejaVuSans-2c" d="M 750 794 
L 1409 794 
L 1409 256 
L 897 -744 
L 494 -744 
L 750 256 
L 750 794 
z
" transform="scale(0.015625)"/>
      <path id="DejaVuSans-44" d="M 1259 4147 
L 1259 519 
L 2022 519 
Q 2988 519 3436 956 
Q 3884 1394 3884 2338 
Q 3884 3275 3436 3711 
Q 2988 4147 2022 4147 
L 1259 4147 
z
M 628 4666 
L 1925 4666 
Q 3281 4666 3915 4102 
Q 4550 3538 4550 2338 
Q 4550 1131 3912 565 
Q 3275 0 1925 0 
L 628 0 
L 628 4666 
z
" transform="scale(0.015625)"/>
     </defs>
     <use xlink:href="#DejaVuSans-66"/>
     <use xlink:href="#DejaVuSans-32" x="35.205078"/>
     <use xlink:href="#DejaVuSans-30" x="98.828125"/>
     <use xlink:href="#DejaVuSans-2d" x="162.451172"/>
     <use xlink:href="#DejaVuSans-66" x="198.535156"/>
     <use xlink:href="#DejaVuSans-32" x="233.740234"/>
     <use xlink:href="#DejaVuSans-34" x="297.363281"/>
     <use xlink:href="#DejaVuSans-2c" x="360.986328"/>
     <use xlink:href="#DejaVuSans-31" x="392.773438"/>
     <use xlink:href="#DejaVuSans-30" x="456.396484"/>
     <use xlink:href="#DejaVuSans-2d" x="520.019531"/>
     <use xlink:href="#DejaVuSans-44" x="556.103516"/>
    </g>
   </g>
   <g id="text_7">
    <!-- v2.6.3 -->
    <g style="fill: #808080" transform="translate(227.99475 286.317512) scale(0.1 -0.1)">
     <defs>
      <path id="DejaVuSans-2e" d="M 684 794 
L 1344 794 
L 1344 0 
L 684 0 
L 684 794 
z
" transform="scale(0.015625)"/>
      <path id="DejaVuSans-36" d="M 2113 2584 
Q 1688 2584 1439 2293 
Q 1191 2003 1191 1497 
Q 1191 994 1439 701 
Q 1688 409 2113 409 
Q 2538 409 2786 701 
Q 3034 994 3034 1497 
Q 3034 2003 2786 2293 
Q 2538 2584 2113 2584 
z
M 3366 4563 
L 3366 3988 
Q 3128 4100 2886 4159 
Q 2644 4219 2406 4219 
Q 1781 4219 1451 3797 
Q 1122 3375 1075 2522 
Q 1259 2794 1537 2939 
Q 1816 3084 2150 3084 
Q 2853 3084 3261 2657 
Q 3669 2231 3669 1497 
Q 3669 778 3244 343 
Q 2819 -91 2113 -91 
Q 1303 -91 875 529 
Q 447 1150 447 2328 
Q 447 3434 972 4092 
Q 1497 4750 2381 4750 
Q 2619 4750 2861 4703 
Q 3103 4656 3366 4563 
z
" transform="scale(0.015625)"/>
      <path id="DejaVuSans-33" d="M 2597 2516 
Q 3050 2419 3304 2112 
Q 3559 1806 3559 1356 
Q 3559 666 3084 287 
Q 2609 -91 1734 -91 
Q 1441 -91 1130 -33 
Q 819 25 488 141 
L 488 750 
Q 750 597 1062 519 
Q 1375 441 1716 441 
Q 2309 441 2620 675 
Q 2931 909 2931 1356 
Q 2931 1769 2642 2001 
Q 2353 2234 1838 2234 
L 1294 2234 
L 1294 2753 
L 1863 2753 
Q 2328 2753 2575 2939 
Q 2822 3125 2822 3475 
Q 2822 3834 2567 4026 
Q 2313 4219 1838 4219 
Q 1578 4219 1281 4162 
Q 984 4106 628 3988 
L 628 4550 
Q 988 4650 1302 4700 
Q 1616 4750 1894 4750 
Q 2613 4750 3031 4423 
Q 3450 4097 3450 3541 
Q 3450 3153 3228 2886 
Q 3006 2619 2597 2516 
z
" transform="scale(0.015625)"/>
     </defs>
     <use xlink:href="#DejaVuSans-76"/>
     <use xlink:href="#DejaVuSans-32" x="59.179688"/>
     <use xlink:href="#DejaVuSans-2e" x="122.802734"/>
     <use xlink:href="#DejaVuSans-36" x="154.589844"/>
     <use xlink:href="#DejaVuSans-2e" x="218.212891"/>
     <use xlink:href="#DejaVuSans-33" x="250"/>
    </g>
   </g>
   <g id="legend_1">
    <g id="patch_7">
     <path d="M 48.16 136.425 
L 177.381875 136.425 
Q 181.381875 136.425 181.381875 132.425 
L 181.381875 17 
Q 181.381875 13 177.381875 13 
L 48.16 13 
Q 44.16 13 44.16 17 
L 44.16 132.425 
Q 44.16 136.425 48.16 136.425 
z
" style="fill: #ffffff; opacity: 0.2; stroke: #cccccc; stroke-linejoin: miter"/>
    </g>
    <g id="line2d_27">
     <path d="M 52.16 29.196875 
L 72.16 29.196875 
L 92.16 29.196875 
" style="fill: none; stroke: #000000; stroke-width: 3; stroke-linecap: square"/>
    </g>
    <g id="text_8">
     <!-- 1: 5/5 -->
     <g transform="translate(108.16 36.196875) scale(0.2 -0.2)">
      <defs>
       <path id="DejaVuSans-3a" d="M 750 794 
L 1409 794 
L 1409 0 
L 750 0 
L 750 794 
z
M 750 3309 
L 1409 3309 
L 1409 2516 
L 750 2516 
L 750 3309 
z
" transform="scale(0.015625)"/>
       <path id="DejaVuSans-35" d="M 691 4666 
L 3169 4666 
L 3169 4134 
L 1269 4134 
L 1269 2991 
Q 1406 3038 1543 3061 
Q 1681 3084 1819 3084 
Q 2600 3084 3056 2656 
Q 3513 2228 3513 1497 
Q 3513 744 3044 326 
Q 2575 -91 1722 -91 
Q 1428 -91 1123 -41 
Q 819 9 494 109 
L 494 744 
Q 775 591 1075 516 
Q 1375 441 1709 441 
Q 2250 441 2565 725 
Q 2881 1009 2881 1497 
Q 2881 1984 2565 2268 
Q 2250 2553 1709 2553 
Q 1456 2553 1204 2497 
Q 953 2441 691 2322 
L 691 4666 
z
" transform="scale(0.015625)"/>
       <path id="DejaVuSans-2f" d="M 1625 4666 
L 2156 4666 
L 531 -594 
L 0 -594 
L 1625 4666 
z
" transform="scale(0.015625)"/>
      </defs>
      <use xlink:href="#DejaVuSans-31"/>
      <use xlink:href="#DejaVuSans-3a" x="63.623047"/>
      <use xlink:href="#DejaVuSans-20" x="97.314453"/>
      <use xlink:href="#DejaVuSans-35" x="129.101562"/>
      <use xlink:href="#DejaVuSans-2f" x="192.724609"/>
      <use xlink:href="#DejaVuSans-35" x="226.416016"/>
     </g>
    </g>
    <g id="line2d_28">
     <path d="M 52.16 58.553125 
L 72.16 58.553125 
L 92.16 58.553125 
" style="fill: none; stroke: #00bfbf; stroke-width: 3; stroke-linecap: square"/>
    </g>
    <g id="text_9">
     <!-- -1: 4/4 -->
     <g transform="translate(108.16 65.553125) scale(0.2 -0.2)">
      <use xlink:href="#DejaVuSans-2d"/>
      <use xlink:href="#DejaVuSans-31" x="36.083984"/>
      <use xlink:href="#DejaVuSans-3a" x="99.707031"/>
      <use xlink:href="#DejaVuSans-20" x="133.398438"/>
      <use xlink:href="#DejaVuSans-34" x="165.185547"/>
      <use xlink:href="#DejaVuSans-2f" x="228.808594"/>
      <use xlink:href="#DejaVuSans-34" x="262.5"/>
     </g>
    </g>
    <g id="line2d_29">
     <path d="M 52.16 87.909375 
L 72.16 87.909375 
L 92.16 87.909375 
" style="fill: none; stroke: #bf00bf; stroke-width: 3; stroke-linecap: square"/>
    </g>
    <g id="text_10">
     <!-- -4: 4/4 -->
     <g transform="translate(108.16 94.909375) scale(0.2 -0.2)">
      <use xlink:href="#DejaVuSans-2d"/>
      <use xlink:href="#DejaVuSans-34" x="36.083984"/>
      <use xlink:href="#DejaVuSans-3a" x="99.707031"/>
      <use xlink:href="#DejaVuSans-20" x="133.398438"/>
      <use xlink:href="#DejaVuSans-34" x="165.185547"/>
      <use xlink:href="#DejaVuSans-2f" x="228.808594"/>
      <use xlink:href="#DejaVuSans-34" x="262.5"/>
     </g>
    </g>
    <g id="line2d_30">
     <path d="M 52.16 117.265625 
L 72.16 117.265625 
L 92.16 117.265625 
" style="fill: none; stroke: #ff0000; stroke-width: 3; stroke-linecap: square"/>
    </g>
    <g id="text_11">
     <!-- -8: 4/4 -->
     <g transform="translate(108.16 124.265625) scale(0.2 -0.2)">
      <defs>
       <path id="DejaVuSans-38" d="M 2034 2216 
Q 1584 2216 1326 1975 
Q 1069 1734 1069 1313 
Q 1069 891 1326 650 
Q 1584 409 2034 409 
Q 2484 409 2743 651 
Q 3003 894 3003 1313 
Q 3003 1734 2745 1975 
Q 2488 2216 2034 2216 
z
M 1403 2484 
Q 997 2584 770 2862 
Q 544 3141 544 3541 
Q 544 4100 942 4425 
Q 1341 4750 2034 4750 
Q 2731 4750 3128 4425 
Q 3525 4100 3525 3541 
Q 3525 3141 3298 2862 
Q 3072 2584 2669 2484 
Q 3125 2378 3379 2068 
Q 3634 1759 3634 1313 
Q 3634 634 3220 271 
Q 2806 -91 2034 -91 
Q 1263 -91 848 271 
Q 434 634 434 1313 
Q 434 1759 690 2068 
Q 947 2378 1403 2484 
z
M 1172 3481 
Q 1172 3119 1398 2916 
Q 1625 2713 2034 2713 
Q 2441 2713 2670 2916 
Q 2900 3119 2900 3481 
Q 2900 3844 2670 4047 
Q 2441 4250 2034 4250 
Q 1625 4250 1398 4047 
Q 1172 3844 1172 3481 
z
" transform="scale(0.015625)"/>
      </defs>
      <use xlink:href="#DejaVuSans-2d"/>
      <use xlink:href="#DejaVuSans-38" x="36.083984"/>
      <use xlink:href="#DejaVuSans-3a" x="99.707031"/>
      <use xlink:href="#DejaVuSans-20" x="133.398438"/>
      <use xlink:href="#DejaVuSans-34" x="165.185547"/>
      <use xlink:href="#DejaVuSans-2f" x="228.808594"/>
      <use xlink:href="#DejaVuSans-34" x="262.5"/>
     </g>
    </g>
   </g>
  </g>
 </g>
 <defs>
  <clipPath id="pa13fa01cd3">
   <rect x="34.16" y="3" width="419.032" height="288.28"/>
  </clipPath>
 </defs>
</svg>
