<?xml version="1.0" encoding="utf-8" standalone="no"?>
<!DOCTYPE svg PUBLIC "-//W3C//DTD SVG 1.1//EN"
  "http://www.w3.org/Graphics/SVG/1.1/DTD/svg11.dtd">
<svg xmlns:xlink="http://www.w3.org/1999/xlink" width="460.8pt" height="345.6pt" viewBox="0 0 460.8 345.6" xmlns="http://www.w3.org/2000/svg" version="1.1">
 <metadata>
  <rdf:RDF xmlns:dc="http://purl.org/dc/elements/1.1/" xmlns:cc="http://creativecommons.org/ns#" xmlns:rdf="http://www.w3.org/1999/02/22-rdf-syntax-ns#">
   <cc:Work>
    <dc:type rdf:resource="http://purl.org/dc/dcmitype/StillImage"/>
    <dc:date>2024-06-05T10:00:29.396105</dc:date>
    <dc:format>image/svg+xml</dc:format>
    <dc:creator>
     <cc:Agent>
      <dc:title>Matplotlib v3.7.1, https://matplotlib.org/</dc:title>
     </cc:Agent>
    </dc:creator>
   </cc:Work>
  </rdf:RDF>
 </metadata>
 <defs>
  <style type="text/css">*{stroke-linejoin: round; stroke-linecap: butt}</style>
 </defs>
 <g id="figure_1">
  <g id="patch_1">
   <path d="M 0 345.6 
L 460.8 345.6 
L 460.8 0 
L 0 0 
z
" style="fill: #ffffff"/>
  </g>
  <g id="axes_1">
   <g id="patch_2">
    <path d="M 34.16 291.28 
L 453.192 291.28 
L 453.192 3 
L 34.16 3 
z
" style="fill: #ffffff"/>
   </g>
   <g id="matplotlib.axis_1">
    <g id="xtick_1">
     <g id="line2d_1">
      <path d="M 171.037936 291.28 
L 171.037936 3 
" clip-path="url(#p4a1c6553f4)" style="fill: none; stroke: #b0b0b0; stroke-width: 0.8; stroke-linecap: square"/>
     </g>
     <g id="line2d_2">
      <defs>
       <path id="mef165e6eac" d="M 0 0 
L 0 3.5 
" style="stroke: #000000; stroke-width: 0.8"/>
      </defs>
      <g>
       <use xlink:href="#mef165e6eac" x="171.037936" y="291.28" style="stroke: #000000; stroke-width: 0.8"/>
      </g>
     </g>
     <g id="text_1">
      <!-- -1 -->
      <g transform="translate(161.067623 313.476875) scale(0.2 -0.2)">
       <defs>
        <path id="DejaVuSans-2d" d="M 313 2009 
L 1997 2009 
L 1997 1497 
L 313 1497 
L 313 2009 
z
" transform="scale(0.015625)"/>
        <path id="DejaVuSans-31" d="M 794 531 
L 1825 531 
L 1825 4091 
L 703 3866 
L 703 4441 
L 1819 4666 
L 2450 4666 
L 2450 531 
L 3481 531 
L 3481 0 
L 794 0 
L 794 531 
z
" transform="scale(0.015625)"/>
       </defs>
       <use xlink:href="#DejaVuSans-2d"/>
       <use xlink:href="#DejaVuSans-31" x="36.083984"/>
      </g>
     </g>
    </g>
    <g id="xtick_2">
     <g id="line2d_3">
      <path d="M 316.314064 291.28 
L 316.314064 3 
" clip-path="url(#p4a1c6553f4)" style="fill: none; stroke: #b0b0b0; stroke-width: 0.8; stroke-linecap: square"/>
     </g>
     <g id="line2d_4">
      <g>
       <use xlink:href="#mef165e6eac" x="316.314064" y="291.28" style="stroke: #000000; stroke-width: 0.8"/>
      </g>
     </g>
     <g id="text_2">
      <!-- 1 -->
      <g transform="translate(309.951564 313.476875) scale(0.2 -0.2)">
       <use xlink:href="#DejaVuSans-31"/>
      </g>
     </g>
    </g>
    <g id="xtick_3">
     <g id="line2d_5">
      <defs>
       <path id="m422f4d8a7f" d="M 0 0 
L 0 2 
" style="stroke: #000000; stroke-width: 0.6"/>
      </defs>
      <g>
       <use xlink:href="#m422f4d8a7f" x="47.628043" y="291.28" style="stroke: #000000; stroke-width: 0.6"/>
      </g>
     </g>
    </g>
    <g id="xtick_4">
     <g id="line2d_6">
      <g>
       <use xlink:href="#m422f4d8a7f" x="60.418971" y="291.28" style="stroke: #000000; stroke-width: 0.6"/>
      </g>
     </g>
    </g>
    <g id="xtick_5">
     <g id="line2d_7">
      <g>
       <use xlink:href="#m422f4d8a7f" x="69.494279" y="291.28" style="stroke: #000000; stroke-width: 0.6"/>
      </g>
     </g>
    </g>
    <g id="xtick_6">
     <g id="line2d_8">
      <g>
       <use xlink:href="#m422f4d8a7f" x="76.533635" y="291.28" style="stroke: #000000; stroke-width: 0.6"/>
      </g>
     </g>
    </g>
    <g id="xtick_7">
     <g id="line2d_9">
      <g>
       <use xlink:href="#m422f4d8a7f" x="82.285207" y="291.28" style="stroke: #000000; stroke-width: 0.6"/>
      </g>
     </g>
    </g>
    <g id="xtick_8">
     <g id="line2d_10">
      <g>
       <use xlink:href="#m422f4d8a7f" x="87.148093" y="291.28" style="stroke: #000000; stroke-width: 0.6"/>
      </g>
     </g>
    </g>
    <g id="xtick_9">
     <g id="line2d_11">
      <g>
       <use xlink:href="#m422f4d8a7f" x="91.360515" y="291.28" style="stroke: #000000; stroke-width: 0.6"/>
      </g>
     </g>
    </g>
    <g id="xtick_10">
     <g id="line2d_12">
      <g>
       <use xlink:href="#m422f4d8a7f" x="95.076136" y="291.28" style="stroke: #000000; stroke-width: 0.6"/>
      </g>
     </g>
    </g>
    <g id="xtick_11">
     <g id="line2d_13">
      <g>
       <use xlink:href="#m422f4d8a7f" x="120.266107" y="291.28" style="stroke: #000000; stroke-width: 0.6"/>
      </g>
     </g>
    </g>
    <g id="xtick_12">
     <g id="line2d_14">
      <g>
       <use xlink:href="#m422f4d8a7f" x="133.057036" y="291.28" style="stroke: #000000; stroke-width: 0.6"/>
      </g>
     </g>
    </g>
    <g id="xtick_13">
     <g id="line2d_15">
      <g>
       <use xlink:href="#m422f4d8a7f" x="142.132344" y="291.28" style="stroke: #000000; stroke-width: 0.6"/>
      </g>
     </g>
    </g>
    <g id="xtick_14">
     <g id="line2d_16">
      <g>
       <use xlink:href="#m422f4d8a7f" x="149.171699" y="291.28" style="stroke: #000000; stroke-width: 0.6"/>
      </g>
     </g>
    </g>
    <g id="xtick_15">
     <g id="line2d_17">
      <g>
       <use xlink:href="#m422f4d8a7f" x="154.923272" y="291.28" style="stroke: #000000; stroke-width: 0.6"/>
      </g>
     </g>
    </g>
    <g id="xtick_16">
     <g id="line2d_18">
      <g>
       <use xlink:href="#m422f4d8a7f" x="159.786157" y="291.28" style="stroke: #000000; stroke-width: 0.6"/>
      </g>
     </g>
    </g>
    <g id="xtick_17">
     <g id="line2d_19">
      <g>
       <use xlink:href="#m422f4d8a7f" x="163.99858" y="291.28" style="stroke: #000000; stroke-width: 0.6"/>
      </g>
     </g>
    </g>
    <g id="xtick_18">
     <g id="line2d_20">
      <g>
       <use xlink:href="#m422f4d8a7f" x="167.7142" y="291.28" style="stroke: #000000; stroke-width: 0.6"/>
      </g>
     </g>
    </g>
    <g id="xtick_19">
     <g id="line2d_21">
      <g>
       <use xlink:href="#m422f4d8a7f" x="192.904172" y="291.28" style="stroke: #000000; stroke-width: 0.6"/>
      </g>
     </g>
    </g>
    <g id="xtick_20">
     <g id="line2d_22">
      <g>
       <use xlink:href="#m422f4d8a7f" x="205.6951" y="291.28" style="stroke: #000000; stroke-width: 0.6"/>
      </g>
     </g>
    </g>
    <g id="xtick_21">
     <g id="line2d_23">
      <g>
       <use xlink:href="#m422f4d8a7f" x="214.770408" y="291.28" style="stroke: #000000; stroke-width: 0.6"/>
      </g>
     </g>
    </g>
    <g id="xtick_22">
     <g id="line2d_24">
      <g>
       <use xlink:href="#m422f4d8a7f" x="221.809764" y="291.28" style="stroke: #000000; stroke-width: 0.6"/>
      </g>
     </g>
    </g>
    <g id="xtick_23">
     <g id="line2d_25">
      <g>
       <use xlink:href="#m422f4d8a7f" x="227.561336" y="291.28" style="stroke: #000000; stroke-width: 0.6"/>
      </g>
     </g>
    </g>
    <g id="xtick_24">
     <g id="line2d_26">
      <g>
       <use xlink:href="#m422f4d8a7f" x="232.424221" y="291.28" style="stroke: #000000; stroke-width: 0.6"/>
      </g>
     </g>
    </g>
    <g id="xtick_25">
     <g id="line2d_27">
      <g>
       <use xlink:href="#m422f4d8a7f" x="236.636644" y="291.28" style="stroke: #000000; stroke-width: 0.6"/>
      </g>
     </g>
    </g>
    <g id="xtick_26">
     <g id="line2d_28">
      <g>
       <use xlink:href="#m422f4d8a7f" x="240.352264" y="291.28" style="stroke: #000000; stroke-width: 0.6"/>
      </g>
     </g>
    </g>
    <g id="xtick_27">
     <g id="line2d_29">
      <g>
       <use xlink:href="#m422f4d8a7f" x="265.542236" y="291.28" style="stroke: #000000; stroke-width: 0.6"/>
      </g>
     </g>
    </g>
    <g id="xtick_28">
     <g id="line2d_30">
      <g>
       <use xlink:href="#m422f4d8a7f" x="278.333164" y="291.28" style="stroke: #000000; stroke-width: 0.6"/>
      </g>
     </g>
    </g>
    <g id="xtick_29">
     <g id="line2d_31">
      <g>
       <use xlink:href="#m422f4d8a7f" x="287.408472" y="291.28" style="stroke: #000000; stroke-width: 0.6"/>
      </g>
     </g>
    </g>
    <g id="xtick_30">
     <g id="line2d_32">
      <g>
       <use xlink:href="#m422f4d8a7f" x="294.447828" y="291.28" style="stroke: #000000; stroke-width: 0.6"/>
      </g>
     </g>
    </g>
    <g id="xtick_31">
     <g id="line2d_33">
      <g>
       <use xlink:href="#m422f4d8a7f" x="300.199401" y="291.28" style="stroke: #000000; stroke-width: 0.6"/>
      </g>
     </g>
    </g>
    <g id="xtick_32">
     <g id="line2d_34">
      <g>
       <use xlink:href="#m422f4d8a7f" x="305.062286" y="291.28" style="stroke: #000000; stroke-width: 0.6"/>
      </g>
     </g>
    </g>
    <g id="xtick_33">
     <g id="line2d_35">
      <g>
       <use xlink:href="#m422f4d8a7f" x="309.274709" y="291.28" style="stroke: #000000; stroke-width: 0.6"/>
      </g>
     </g>
    </g>
    <g id="xtick_34">
     <g id="line2d_36">
      <g>
       <use xlink:href="#m422f4d8a7f" x="312.990329" y="291.28" style="stroke: #000000; stroke-width: 0.6"/>
      </g>
     </g>
    </g>
    <g id="xtick_35">
     <g id="line2d_37">
      <g>
       <use xlink:href="#m422f4d8a7f" x="338.180301" y="291.28" style="stroke: #000000; stroke-width: 0.6"/>
      </g>
     </g>
    </g>
    <g id="xtick_36">
     <g id="line2d_38">
      <g>
       <use xlink:href="#m422f4d8a7f" x="350.971229" y="291.28" style="stroke: #000000; stroke-width: 0.6"/>
      </g>
     </g>
    </g>
    <g id="xtick_37">
     <g id="line2d_39">
      <g>
       <use xlink:href="#m422f4d8a7f" x="360.046537" y="291.28" style="stroke: #000000; stroke-width: 0.6"/>
      </g>
     </g>
    </g>
    <g id="xtick_38">
     <g id="line2d_40">
      <g>
       <use xlink:href="#m422f4d8a7f" x="367.085893" y="291.28" style="stroke: #000000; stroke-width: 0.6"/>
      </g>
     </g>
    </g>
    <g id="xtick_39">
     <g id="line2d_41">
      <g>
       <use xlink:href="#m422f4d8a7f" x="372.837465" y="291.28" style="stroke: #000000; stroke-width: 0.6"/>
      </g>
     </g>
    </g>
    <g id="xtick_40">
     <g id="line2d_42">
      <g>
       <use xlink:href="#m422f4d8a7f" x="377.70035" y="291.28" style="stroke: #000000; stroke-width: 0.6"/>
      </g>
     </g>
    </g>
    <g id="xtick_41">
     <g id="line2d_43">
      <g>
       <use xlink:href="#m422f4d8a7f" x="381.912773" y="291.28" style="stroke: #000000; stroke-width: 0.6"/>
      </g>
     </g>
    </g>
    <g id="xtick_42">
     <g id="line2d_44">
      <g>
       <use xlink:href="#m422f4d8a7f" x="385.628393" y="291.28" style="stroke: #000000; stroke-width: 0.6"/>
      </g>
     </g>
    </g>
    <g id="xtick_43">
     <g id="line2d_45">
      <g>
       <use xlink:href="#m422f4d8a7f" x="410.818365" y="291.28" style="stroke: #000000; stroke-width: 0.6"/>
      </g>
     </g>
    </g>
    <g id="xtick_44">
     <g id="line2d_46">
      <g>
       <use xlink:href="#m422f4d8a7f" x="423.609293" y="291.28" style="stroke: #000000; stroke-width: 0.6"/>
      </g>
     </g>
    </g>
    <g id="xtick_45">
     <g id="line2d_47">
      <g>
       <use xlink:href="#m422f4d8a7f" x="432.684601" y="291.28" style="stroke: #000000; stroke-width: 0.6"/>
      </g>
     </g>
    </g>
    <g id="xtick_46">
     <g id="line2d_48">
      <g>
       <use xlink:href="#m422f4d8a7f" x="439.723957" y="291.28" style="stroke: #000000; stroke-width: 0.6"/>
      </g>
     </g>
    </g>
    <g id="xtick_47">
     <g id="line2d_49">
      <g>
       <use xlink:href="#m422f4d8a7f" x="445.475529" y="291.28" style="stroke: #000000; stroke-width: 0.6"/>
      </g>
     </g>
    </g>
    <g id="xtick_48">
     <g id="line2d_50">
      <g>
       <use xlink:href="#m422f4d8a7f" x="450.338415" y="291.28" style="stroke: #000000; stroke-width: 0.6"/>
      </g>
     </g>
    </g>
    <g id="text_3">
     <!-- log10 of FEvals ratio -->
     <g transform="translate(141.371312 336.833125) scale(0.2 -0.2)">
      <defs>
       <path id="DejaVuSans-6c" d="M 603 4863 
L 1178 4863 
L 1178 0 
L 603 0 
L 603 4863 
z
" transform="scale(0.015625)"/>
       <path id="DejaVuSans-6f" d="M 1959 3097 
Q 1497 3097 1228 2736 
Q 959 2375 959 1747 
Q 959 1119 1226 758 
Q 1494 397 1959 397 
Q 2419 397 2687 759 
Q 2956 1122 2956 1747 
Q 2956 2369 2687 2733 
Q 2419 3097 1959 3097 
z
M 1959 3584 
Q 2709 3584 3137 3096 
Q 3566 2609 3566 1747 
Q 3566 888 3137 398 
Q 2709 -91 1959 -91 
Q 1206 -91 779 398 
Q 353 888 353 1747 
Q 353 2609 779 3096 
Q 1206 3584 1959 3584 
z
" transform="scale(0.015625)"/>
       <path id="DejaVuSans-67" d="M 2906 1791 
Q 2906 2416 2648 2759 
Q 2391 3103 1925 3103 
Q 1463 3103 1205 2759 
Q 947 2416 947 1791 
Q 947 1169 1205 825 
Q 1463 481 1925 481 
Q 2391 481 2648 825 
Q 2906 1169 2906 1791 
z
M 3481 434 
Q 3481 -459 3084 -895 
Q 2688 -1331 1869 -1331 
Q 1566 -1331 1297 -1286 
Q 1028 -1241 775 -1147 
L 775 -588 
Q 1028 -725 1275 -790 
Q 1522 -856 1778 -856 
Q 2344 -856 2625 -561 
Q 2906 -266 2906 331 
L 2906 616 
Q 2728 306 2450 153 
Q 2172 0 1784 0 
Q 1141 0 747 490 
Q 353 981 353 1791 
Q 353 2603 747 3093 
Q 1141 3584 1784 3584 
Q 2172 3584 2450 3431 
Q 2728 3278 2906 2969 
L 2906 3500 
L 3481 3500 
L 3481 434 
z
" transform="scale(0.015625)"/>
       <path id="DejaVuSans-30" d="M 2034 4250 
Q 1547 4250 1301 3770 
Q 1056 3291 1056 2328 
Q 1056 1369 1301 889 
Q 1547 409 2034 409 
Q 2525 409 2770 889 
Q 3016 1369 3016 2328 
Q 3016 3291 2770 3770 
Q 2525 4250 2034 4250 
z
M 2034 4750 
Q 2819 4750 3233 4129 
Q 3647 3509 3647 2328 
Q 3647 1150 3233 529 
Q 2819 -91 2034 -91 
Q 1250 -91 836 529 
Q 422 1150 422 2328 
Q 422 3509 836 4129 
Q 1250 4750 2034 4750 
z
" transform="scale(0.015625)"/>
       <path id="DejaVuSans-20" transform="scale(0.015625)"/>
       <path id="DejaVuSans-66" d="M 2375 4863 
L 2375 4384 
L 1825 4384 
Q 1516 4384 1395 4259 
Q 1275 4134 1275 3809 
L 1275 3500 
L 2222 3500 
L 2222 3053 
L 1275 3053 
L 1275 0 
L 697 0 
L 697 3053 
L 147 3053 
L 147 3500 
L 697 3500 
L 697 3744 
Q 697 4328 969 4595 
Q 1241 4863 1831 4863 
L 2375 4863 
z
" transform="scale(0.015625)"/>
       <path id="DejaVuSans-46" d="M 628 4666 
L 3309 4666 
L 3309 4134 
L 1259 4134 
L 1259 2759 
L 3109 2759 
L 3109 2228 
L 1259 2228 
L 1259 0 
L 628 0 
L 628 4666 
z
" transform="scale(0.015625)"/>
       <path id="DejaVuSans-45" d="M 628 4666 
L 3578 4666 
L 3578 4134 
L 1259 4134 
L 1259 2753 
L 3481 2753 
L 3481 2222 
L 1259 2222 
L 1259 531 
L 3634 531 
L 3634 0 
L 628 0 
L 628 4666 
z
" transform="scale(0.015625)"/>
       <path id="DejaVuSans-76" d="M 191 3500 
L 800 3500 
L 1894 563 
L 2988 3500 
L 3597 3500 
L 2284 0 
L 1503 0 
L 191 3500 
z
" transform="scale(0.015625)"/>
       <path id="DejaVuSans-61" d="M 2194 1759 
Q 1497 1759 1228 1600 
Q 959 1441 959 1056 
Q 959 750 1161 570 
Q 1363 391 1709 391 
Q 2188 391 2477 730 
Q 2766 1069 2766 1631 
L 2766 1759 
L 2194 1759 
z
M 3341 1997 
L 3341 0 
L 2766 0 
L 2766 531 
Q 2569 213 2275 61 
Q 1981 -91 1556 -91 
Q 1019 -91 701 211 
Q 384 513 384 1019 
Q 384 1609 779 1909 
Q 1175 2209 1959 2209 
L 2766 2209 
L 2766 2266 
Q 2766 2663 2505 2880 
Q 2244 3097 1772 3097 
Q 1472 3097 1187 3025 
Q 903 2953 641 2809 
L 641 3341 
Q 956 3463 1253 3523 
Q 1550 3584 1831 3584 
Q 2591 3584 2966 3190 
Q 3341 2797 3341 1997 
z
" transform="scale(0.015625)"/>
       <path id="DejaVuSans-73" d="M 2834 3397 
L 2834 2853 
Q 2591 2978 2328 3040 
Q 2066 3103 1784 3103 
Q 1356 3103 1142 2972 
Q 928 2841 928 2578 
Q 928 2378 1081 2264 
Q 1234 2150 1697 2047 
L 1894 2003 
Q 2506 1872 2764 1633 
Q 3022 1394 3022 966 
Q 3022 478 2636 193 
Q 2250 -91 1575 -91 
Q 1294 -91 989 -36 
Q 684 19 347 128 
L 347 722 
Q 666 556 975 473 
Q 1284 391 1588 391 
Q 1994 391 2212 530 
Q 2431 669 2431 922 
Q 2431 1156 2273 1281 
Q 2116 1406 1581 1522 
L 1381 1569 
Q 847 1681 609 1914 
Q 372 2147 372 2553 
Q 372 3047 722 3315 
Q 1072 3584 1716 3584 
Q 2034 3584 2315 3537 
Q 2597 3491 2834 3397 
z
" transform="scale(0.015625)"/>
       <path id="DejaVuSans-72" d="M 2631 2963 
Q 2534 3019 2420 3045 
Q 2306 3072 2169 3072 
Q 1681 3072 1420 2755 
Q 1159 2438 1159 1844 
L 1159 0 
L 581 0 
L 581 3500 
L 1159 3500 
L 1159 2956 
Q 1341 3275 1631 3429 
Q 1922 3584 2338 3584 
Q 2397 3584 2469 3576 
Q 2541 3569 2628 3553 
L 2631 2963 
z
" transform="scale(0.015625)"/>
       <path id="DejaVuSans-74" d="M 1172 4494 
L 1172 3500 
L 2356 3500 
L 2356 3053 
L 1172 3053 
L 1172 1153 
Q 1172 725 1289 603 
Q 1406 481 1766 481 
L 2356 481 
L 2356 0 
L 1766 0 
Q 1100 0 847 248 
Q 594 497 594 1153 
L 594 3053 
L 172 3053 
L 172 3500 
L 594 3500 
L 594 4494 
L 1172 4494 
z
" transform="scale(0.015625)"/>
       <path id="DejaVuSans-69" d="M 603 3500 
L 1178 3500 
L 1178 0 
L 603 0 
L 603 3500 
z
M 603 4863 
L 1178 4863 
L 1178 4134 
L 603 4134 
L 603 4863 
z
" transform="scale(0.015625)"/>
      </defs>
      <use xlink:href="#DejaVuSans-6c"/>
      <use xlink:href="#DejaVuSans-6f" x="27.783203"/>
      <use xlink:href="#DejaVuSans-67" x="88.964844"/>
      <use xlink:href="#DejaVuSans-31" x="152.441406"/>
      <use xlink:href="#DejaVuSans-30" x="216.064453"/>
      <use xlink:href="#DejaVuSans-20" x="279.6875"/>
      <use xlink:href="#DejaVuSans-6f" x="311.474609"/>
      <use xlink:href="#DejaVuSans-66" x="372.65625"/>
      <use xlink:href="#DejaVuSans-20" x="407.861328"/>
      <use xlink:href="#DejaVuSans-46" x="439.648438"/>
      <use xlink:href="#DejaVuSans-45" x="497.167969"/>
      <use xlink:href="#DejaVuSans-76" x="560.351562"/>
      <use xlink:href="#DejaVuSans-61" x="619.53125"/>
      <use xlink:href="#DejaVuSans-6c" x="680.810547"/>
      <use xlink:href="#DejaVuSans-73" x="708.59375"/>
      <use xlink:href="#DejaVuSans-20" x="760.693359"/>
      <use xlink:href="#DejaVuSans-72" x="792.480469"/>
      <use xlink:href="#DejaVuSans-61" x="833.59375"/>
      <use xlink:href="#DejaVuSans-74" x="894.873047"/>
      <use xlink:href="#DejaVuSans-69" x="934.082031"/>
      <use xlink:href="#DejaVuSans-6f" x="961.865234"/>
     </g>
    </g>
   </g>
   <g id="matplotlib.axis_2">
    <g id="ytick_1">
     <g id="line2d_51">
      <path d="M 34.16 288.453725 
L 453.192 288.453725 
" clip-path="url(#p4a1c6553f4)" style="fill: none; stroke: #b0b0b0; stroke-width: 0.8; stroke-linecap: square"/>
     </g>
     <g id="line2d_52">
      <defs>
       <path id="mcc181678bc" d="M 0 0 
L -3.5 0 
" style="stroke: #000000; stroke-width: 0.8"/>
      </defs>
      <g>
       <use xlink:href="#mcc181678bc" x="34.16" y="288.453725" style="stroke: #000000; stroke-width: 0.8"/>
      </g>
     </g>
    </g>
    <g id="ytick_2">
     <g id="line2d_53">
      <path d="M 34.16 217.796863 
L 453.192 217.796863 
" clip-path="url(#p4a1c6553f4)" style="fill: none; stroke: #b0b0b0; stroke-width: 0.8; stroke-linecap: square"/>
     </g>
     <g id="line2d_54">
      <g>
       <use xlink:href="#mcc181678bc" x="34.16" y="217.796863" style="stroke: #000000; stroke-width: 0.8"/>
      </g>
     </g>
    </g>
    <g id="ytick_3">
     <g id="line2d_55">
      <path d="M 34.16 147.14 
L 453.192 147.14 
" clip-path="url(#p4a1c6553f4)" style="fill: none; stroke: #b0b0b0; stroke-width: 0.8; stroke-linecap: square"/>
     </g>
     <g id="line2d_56">
      <g>
       <use xlink:href="#mcc181678bc" x="34.16" y="147.14" style="stroke: #000000; stroke-width: 0.8"/>
      </g>
     </g>
    </g>
    <g id="ytick_4">
     <g id="line2d_57">
      <path d="M 34.16 76.483137 
L 453.192 76.483137 
" clip-path="url(#p4a1c6553f4)" style="fill: none; stroke: #b0b0b0; stroke-width: 0.8; stroke-linecap: square"/>
     </g>
     <g id="line2d_58">
      <g>
       <use xlink:href="#mcc181678bc" x="34.16" y="76.483137" style="stroke: #000000; stroke-width: 0.8"/>
      </g>
     </g>
    </g>
    <g id="ytick_5">
     <g id="line2d_59">
      <path d="M 34.16 5.826275 
L 453.192 5.826275 
" clip-path="url(#p4a1c6553f4)" style="fill: none; stroke: #b0b0b0; stroke-width: 0.8; stroke-linecap: square"/>
     </g>
     <g id="line2d_60">
      <g>
       <use xlink:href="#mcc181678bc" x="34.16" y="5.826275" style="stroke: #000000; stroke-width: 0.8"/>
      </g>
     </g>
    </g>
    <g id="text_4">
     <!-- proportion of trials -->
     <g transform="translate(19.000625 240.14625) rotate(-90) scale(0.2 -0.2)">
      <defs>
       <path id="DejaVuSans-70" d="M 1159 525 
L 1159 -1331 
L 581 -1331 
L 581 3500 
L 1159 3500 
L 1159 2969 
Q 1341 3281 1617 3432 
Q 1894 3584 2278 3584 
Q 2916 3584 3314 3078 
Q 3713 2572 3713 1747 
Q 3713 922 3314 415 
Q 2916 -91 2278 -91 
Q 1894 -91 1617 61 
Q 1341 213 1159 525 
z
M 3116 1747 
Q 3116 2381 2855 2742 
Q 2594 3103 2138 3103 
Q 1681 3103 1420 2742 
Q 1159 2381 1159 1747 
Q 1159 1113 1420 752 
Q 1681 391 2138 391 
Q 2594 391 2855 752 
Q 3116 1113 3116 1747 
z
" transform="scale(0.015625)"/>
       <path id="DejaVuSans-6e" d="M 3513 2113 
L 3513 0 
L 2938 0 
L 2938 2094 
Q 2938 2591 2744 2837 
Q 2550 3084 2163 3084 
Q 1697 3084 1428 2787 
Q 1159 2491 1159 1978 
L 1159 0 
L 581 0 
L 581 3500 
L 1159 3500 
L 1159 2956 
Q 1366 3272 1645 3428 
Q 1925 3584 2291 3584 
Q 2894 3584 3203 3211 
Q 3513 2838 3513 2113 
z
" transform="scale(0.015625)"/>
      </defs>
      <use xlink:href="#DejaVuSans-70"/>
      <use xlink:href="#DejaVuSans-72" x="63.476562"/>
      <use xlink:href="#DejaVuSans-6f" x="102.339844"/>
      <use xlink:href="#DejaVuSans-70" x="163.521484"/>
      <use xlink:href="#DejaVuSans-6f" x="226.998047"/>
      <use xlink:href="#DejaVuSans-72" x="288.179688"/>
      <use xlink:href="#DejaVuSans-74" x="329.292969"/>
      <use xlink:href="#DejaVuSans-69" x="368.501953"/>
      <use xlink:href="#DejaVuSans-6f" x="396.285156"/>
      <use xlink:href="#DejaVuSans-6e" x="457.466797"/>
      <use xlink:href="#DejaVuSans-20" x="520.845703"/>
      <use xlink:href="#DejaVuSans-6f" x="552.632812"/>
      <use xlink:href="#DejaVuSans-66" x="613.814453"/>
      <use xlink:href="#DejaVuSans-20" x="649.019531"/>
      <use xlink:href="#DejaVuSans-74" x="680.806641"/>
      <use xlink:href="#DejaVuSans-72" x="720.015625"/>
      <use xlink:href="#DejaVuSans-69" x="761.128906"/>
      <use xlink:href="#DejaVuSans-61" x="788.912109"/>
      <use xlink:href="#DejaVuSans-6c" x="850.191406"/>
      <use xlink:href="#DejaVuSans-73" x="877.974609"/>
     </g>
    </g>
   </g>
   <g id="line2d_61">
    <path d="M 34.16 241.34915 
L 55.865346 241.34915 
L 55.865346 240.788382 
L 62.820215 240.788382 
L 62.820215 240.227613 
L 67.656232 240.227613 
L 67.656232 239.666844 
L 70.433359 239.666844 
L 70.433359 239.106075 
L 75.321552 239.106075 
L 75.321552 238.545307 
L 76.567637 238.545307 
L 76.567637 237.984538 
L 83.522506 237.984538 
L 83.522506 237.423769 
L 88.358523 237.423769 
L 88.358523 236.863 
L 91.13565 236.863 
L 91.13565 236.302232 
L 94.901871 236.302232 
L 94.975797 235.180694 
L 95.358263 235.180694 
L 95.358263 234.619925 
L 96.023844 234.619925 
L 96.023844 234.059157 
L 96.201596 234.059157 
L 96.201596 233.498388 
L 101.85674 233.498388 
L 101.930666 232.37685 
L 102.313133 232.37685 
L 102.313133 231.816082 
L 103.156465 231.816082 
L 103.156465 231.255313 
L 106.692757 231.255313 
L 106.766683 230.133775 
L 107.149149 230.133775 
L 107.149149 229.573007 
L 107.992482 229.573007 
L 107.992482 229.012238 
L 109.469884 229.012238 
L 109.543811 227.8907 
L 109.926277 227.8907 
L 109.926277 227.329932 
L 110.769609 227.329932 
L 110.769609 226.769163 
L 114.358077 226.769163 
L 114.432004 225.647625 
L 114.81447 225.647625 
L 114.81447 225.086857 
L 115.657803 225.086857 
L 115.657803 224.526088 
L 121.662643 224.526088 
L 121.662643 223.965319 
L 122.430192 223.965319 
L 122.430192 223.40455 
L 122.722719 223.40455 
L 122.722719 222.843782 
L 124.036735 222.843782 
L 124.036735 222.283013 
L 129.385061 222.283013 
L 129.385061 221.722244 
L 129.677589 221.722244 
L 129.677589 221.161475 
L 130.991605 221.161475 
L 130.991605 220.600707 
L 134.221078 220.600707 
L 134.221078 220.039938 
L 134.513605 220.039938 
L 134.513605 219.479169 
L 135.827621 219.479169 
L 135.827621 218.9184 
L 136.998206 218.9184 
L 136.998206 218.357631 
L 137.290733 218.357631 
L 137.290733 217.796863 
L 138.604749 217.796863 
L 138.604749 217.236094 
L 141.886399 217.236094 
L 141.886399 216.675325 
L 142.178926 216.675325 
L 142.178926 216.114556 
L 142.364934 216.114556 
L 142.364934 215.553788 
L 143.492942 215.553788 
L 143.492942 214.993019 
L 160.699168 214.993019 
L 160.773095 213.871481 
L 161.155561 213.871481 
L 161.155561 213.310713 
L 161.998893 213.310713 
L 161.998893 212.749944 
L 185.348596 212.749944 
L 185.348596 212.189175 
L 186.147279 212.189175 
L 186.147279 211.628406 
L 187.961682 211.628406 
L 187.961682 211.067638 
L 188.22749 211.067638 
L 188.22749 210.506869 
L 188.520017 210.506869 
L 188.520017 209.9461 
L 189.834033 209.9461 
L 189.834033 209.385331 
L 206.050887 209.385331 
L 206.050887 208.824563 
L 206.84957 208.824563 
L 206.84957 208.263794 
L 208.663973 208.263794 
L 208.663973 207.703025 
L 211.680509 207.703025 
L 211.680509 207.142256 
L 218.749566 207.142256 
L 218.749566 206.581488 
L 219.363088 206.581488 
L 219.363088 206.020719 
L 221.663603 206.020719 
L 221.663603 205.45995 
L 222.277125 205.45995 
L 222.277125 204.899181 
L 222.814356 204.899181 
L 222.814356 204.338413 
L 223.427878 204.338413 
L 223.427878 203.777644 
L 223.770822 203.777644 
L 223.770822 203.216875 
L 224.385121 203.216875 
L 224.459047 202.095338 
L 224.510063 202.095338 
L 224.510063 201.534569 
L 224.841513 201.534569 
L 224.841513 200.9738 
L 225.123585 200.9738 
L 225.183804 199.852263 
L 225.257731 199.852263 
L 225.257731 199.291494 
L 225.640197 199.291494 
L 225.684846 198.169956 
L 226.483529 198.169956 
L 226.539035 197.048419 
L 226.68486 197.048419 
L 226.68486 196.48765 
L 226.829284 196.48765 
L 226.829284 195.926881 
L 226.998207 195.926881 
L 227.072133 194.244575 
L 227.4546 194.244575 
L 227.4546 193.683806 
L 227.835613 193.683806 
L 227.835613 193.123038 
L 228.119358 193.123038 
L 228.119358 192.562269 
L 228.297932 192.562269 
L 228.297932 192.0015 
L 229.453072 192.0015 
L 229.53132 190.879963 
L 229.685952 190.879963 
L 229.745459 189.758425 
L 229.954813 189.758425 
L 229.954813 189.197656 
L 230.603825 189.197656 
L 230.603825 188.636888 
L 231.054741 188.636888 
L 231.105566 187.51535 
L 231.668263 187.51535 
L 231.668263 186.954581 
L 231.948464 186.954581 
L 231.948464 186.393813 
L 232.299532 186.393813 
L 232.3828 185.272275 
L 232.561986 185.272275 
L 232.659496 184.150738 
L 232.801273 184.150738 
L 232.801273 183.589969 
L 233.260206 183.589969 
L 233.260206 183.0292 
L 233.784154 183.0292 
L 233.873729 181.346894 
L 233.896175 181.346894 
L 233.896175 180.786125 
L 234.509697 180.786125 
L 234.509697 180.225356 
L 235.074227 180.225356 
L 235.074227 179.664588 
L 235.505957 179.664588 
L 235.505957 179.103819 
L 235.761842 179.103819 
L 235.761842 178.54305 
L 236.075998 178.54305 
L 236.075998 177.982281 
L 236.375364 177.982281 
L 236.375364 177.421513 
L 236.56175 177.421513 
L 236.56175 176.860744 
L 236.733198 176.860744 
L 236.733198 176.299975 
L 236.969721 176.299975 
L 236.969721 175.739206 
L 237.559367 175.739206 
L 237.559367 175.178438 
L 237.67065 175.178438 
L 237.67065 174.617669 
L 238.281463 174.617669 
L 238.284172 173.496131 
L 238.62017 173.496131 
L 238.62017 172.935363 
L 238.84421 172.935363 
L 238.917432 170.692288 
L 239.00498 170.692288 
L 239.00498 170.131519 
L 239.345951 170.131519 
L 239.423433 169.009981 
L 239.467117 169.009981 
L 239.475788 167.888444 
L 239.647236 167.888444 
L 239.737933 166.766906 
L 239.802008 166.766906 
L 239.910244 165.645369 
L 240.239674 165.645369 
L 240.239674 165.0846 
L 240.41553 165.0846 
L 240.41553 164.523831 
L 240.626541 164.523831 
L 240.713167 163.402294 
L 240.783098 163.402294 
L 240.797989 162.280756 
L 241.049676 162.280756 
L 241.049676 161.719988 
L 241.397298 161.719988 
L 241.397298 161.159219 
L 241.551417 161.159219 
L 241.551417 160.59845 
L 241.685644 160.59845 
L 241.780757 158.916144 
L 241.855015 158.916144 
L 241.956287 157.233838 
L 242.050635 157.233838 
L 242.050635 156.673069 
L 242.187385 156.673069 
L 242.187385 156.1123 
L 242.322248 156.1123 
L 242.337471 154.429994 
L 242.493696 154.429994 
L 242.493696 153.869225 
L 242.687371 153.869225 
L 242.691907 152.747688 
L 242.93151 152.747688 
L 242.944358 151.62615 
L 243.06977 151.62615 
L 243.06977 151.065381 
L 243.442496 151.065381 
L 243.551311 149.383075 
L 243.627204 149.383075 
L 243.627204 148.822306 
L 243.874852 148.822306 
L 243.874852 148.261538 
L 243.990377 148.261538 
L 244.053052 147.14 
L 244.2561 147.14 
L 244.2561 146.579231 
L 244.514236 146.579231 
L 244.6039 145.457694 
L 244.627217 145.457694 
L 244.627217 144.896925 
L 244.765477 144.896925 
L 244.870325 142.093081 
L 244.892068 142.093081 
L 244.892068 141.532312 
L 245.183931 141.532312 
L 245.183931 140.971544 
L 245.460119 140.971544 
L 245.460119 140.410775 
L 245.919805 140.410775 
L 246.021078 138.728469 
L 246.285491 138.728469 
L 246.285491 138.1677 
L 246.473665 138.1677 
L 246.473665 137.606931 
L 246.643064 137.606931 
L 246.742213 135.924625 
L 246.757735 135.924625 
L 246.757735 135.363856 
L 247.060437 135.363856 
L 247.144805 134.242319 
L 247.575564 134.242319 
L 247.673959 131.999244 
L 247.716785 131.999244 
L 247.716785 131.438475 
L 248.093219 131.438475 
L 248.093219 130.877706 
L 248.666544 130.877706 
L 248.666544 130.316937 
L 248.866926 130.316937 
L 248.866926 129.756169 
L 249.011634 129.756169 
L 249.038374 128.634631 
L 249.350253 128.634631 
L 249.350253 128.073862 
L 249.510426 128.073862 
L 249.510426 127.513094 
L 249.760649 127.513094 
L 249.849489 126.391556 
L 249.932097 126.391556 
L 250.012167 125.270019 
L 250.388243 125.270019 
L 250.397365 124.148481 
L 250.717034 124.148481 
L 250.797902 122.466175 
L 251.072391 122.466175 
L 251.173426 120.783869 
L 251.243839 120.783869 
L 251.310155 119.662331 
L 251.70836 119.662331 
L 251.779847 117.980025 
L 251.879808 117.980025 
L 251.913442 116.858487 
L 252.016759 116.858487 
L 252.12738 114.615412 
L 252.203878 114.615412 
L 252.281588 112.933106 
L 252.622332 112.933106 
L 252.71685 111.2508 
L 253.004653 111.2508 
L 253.018343 110.129262 
L 253.37736 110.129262 
L 253.37736 109.568494 
L 253.51562 109.568494 
L 253.574027 107.325419 
L 253.745474 107.325419 
L 253.745474 106.76465 
L 253.912066 106.76465 
L 254.013329 105.082344 
L 254.151589 105.082344 
L 254.261463 103.400037 
L 254.318669 103.400037 
L 254.318669 102.839269 
L 254.526528 102.839269 
L 254.570043 101.717731 
L 254.819056 101.717731 
L 254.849906 100.596194 
L 254.986271 100.596194 
L 255.053914 99.474656 
L 255.155186 99.474656 
L 255.233381 97.79235 
L 255.351647 97.79235 
L 255.351647 97.231581 
L 255.482835 97.231581 
L 255.482835 96.670812 
L 255.654283 96.670812 
L 255.654283 96.110044 
L 255.859776 96.110044 
L 255.878996 94.988506 
L 256.017256 94.988506 
L 256.017256 94.427737 
L 256.133072 94.427737 
L 256.133072 93.866969 
L 256.365656 93.866969 
L 256.466928 91.623894 
L 256.66578 91.623894 
L 256.66578 91.063125 
L 256.837228 91.063125 
L 256.837228 90.502356 
L 257.001624 90.502356 
L 257.102897 88.82005 
L 257.593274 88.82005 
L 257.614193 87.698512 
L 257.725443 87.698512 
L 257.787804 86.016206 
L 257.926064 86.016206 
L 258.010509 84.894669 
L 258.05633 84.894669 
L 258.05633 84.3339 
L 258.344518 84.3339 
L 258.344518 83.773131 
L 258.867291 83.773131 
L 258.970749 82.090825 
L 259.109009 82.090825 
L 259.109009 81.530056 
L 259.288981 81.530056 
L 259.288981 80.969287 
L 259.527463 80.969287 
L 259.634252 79.286981 
L 259.704589 79.286981 
L 259.704589 78.726212 
L 259.919162 78.726212 
L 259.919162 78.165444 
L 260.057422 78.165444 
L 260.057422 77.604675 
L 260.475876 77.604675 
L 260.475876 77.043906 
L 260.7761 77.043906 
L 260.877372 75.3616 
L 261.76561 75.3616 
L 261.83811 73.679293 
L 261.959044 73.679293 
L 262.060317 71.436218 
L 262.394824 71.436218 
L 262.394824 70.87545 
L 262.898702 70.87545 
L 263.00873 69.193143 
L 263.684558 69.193143 
L 263.684558 68.632375 
L 264.107531 68.632375 
L 264.107531 68.071606 
L 264.245791 68.071606 
L 264.245791 67.510837 
L 264.664245 67.510837 
L 264.664245 66.950068 
L 264.826406 66.950068 
L 264.927678 65.267762 
L 265.044069 65.267762 
L 265.044069 64.706993 
L 265.833659 64.706993 
L 265.833659 64.146225 
L 265.953979 64.146225 
L 265.953979 63.585456 
L 266.727382 63.585456 
L 266.727382 63.024687 
L 267.095827 63.024687 
L 267.197099 61.342381 
L 267.315851 61.342381 
L 267.396825 60.220843 
L 267.734304 60.220843 
L 267.734304 59.660075 
L 268.039124 59.660075 
L 268.039124 59.099306 
L 268.675093 59.099306 
L 268.722477 57.977768 
L 268.796403 57.977768 
L 268.796403 57.417 
L 269.024038 57.417 
L 269.024038 56.856231 
L 269.178869 56.856231 
L 269.178869 56.295462 
L 270.022202 56.295462 
L 270.022202 55.734693 
L 270.165886 55.734693 
L 270.267158 54.613156 
L 270.54076 54.613156 
L 270.54076 54.052387 
L 272.449568 54.052387 
L 272.449568 53.491618 
L 273.632513 53.491618 
L 273.632513 52.93085 
L 274.580926 52.93085 
L 274.580926 52.370081 
L 276.499875 52.370081 
L 276.499875 51.809312 
L 278.245355 51.809312 
L 278.245355 51.248543 
L 278.537882 51.248543 
L 278.537882 50.687775 
L 278.769295 50.687775 
L 278.769295 50.127006 
L 279.851898 50.127006 
L 279.851898 49.566237 
L 281.839355 49.566237 
L 281.839355 49.005468 
L 285.731059 49.005468 
L 285.804985 47.883931 
L 286.187451 47.883931 
L 286.187451 47.323162 
L 287.030784 47.323162 
L 287.030784 46.762393 
L 292.626582 46.762393 
L 292.626582 46.201625 
L 293.916655 46.201625 
L 293.916655 45.640856 
L 296.250798 45.640856 
L 296.250798 45.080087 
L 296.543325 45.080087 
L 296.543325 44.519318 
L 297.857341 44.519318 
L 297.857341 43.95855 
L 303.356665 43.95855 
L 303.356665 43.397781 
L 309.239793 43.397781 
L 309.239793 42.837012 
L 313.25938 42.837012 
L 313.25938 42.276243 
L 313.551907 42.276243 
L 313.551907 41.715475 
L 314.865923 41.715475 
L 314.865923 41.154706 
L 356.312534 41.154706 
L 356.312534 40.593937 
L 357.111218 40.593937 
L 357.111218 40.033168 
L 357.602608 40.033168 
L 357.602608 39.4724 
L 358.401291 39.4724 
L 358.401291 38.911631 
L 358.925621 38.911631 
L 358.925621 38.350862 
L 360.215694 38.350862 
L 360.215694 37.790093 
L 367.042617 37.790093 
L 367.042617 37.229325 
L 367.841301 37.229325 
L 367.841301 36.668556 
L 369.655703 36.668556 
L 369.655703 36.107787 
L 372.925746 36.107787 
L 372.925746 35.547018 
L 373.724429 35.547018 
L 373.724429 34.98625 
L 375.538832 34.98625 
L 375.538832 34.425481 
L 382.644447 34.425481 
L 382.644447 33.864712 
L 383.934521 33.864712 
L 383.934521 33.303943 
L 393.37453 33.303943 
L 393.37453 32.743175 
L 399.257658 32.743175 
L 399.257658 32.182406 
L 400.64989 32.182406 
L 400.64989 31.621637 
L 401.939964 31.621637 
L 401.939964 31.060868 
L 411.379973 31.060868 
L 411.379973 30.5001 
L 417.263101 30.5001 
L 417.263101 29.939331 
L 417.658472 29.939331 
L 417.658472 29.378562 
L 418.948545 29.378562 
L 418.948545 28.817793 
L 428.388555 28.817793 
L 428.388555 28.257025 
L 434.271683 28.257025 
L 434.271683 27.696256 
L 453.192 27.696256 
L 453.192 27.696256 
" clip-path="url(#p4a1c6553f4)" style="fill: none; stroke: #000000; stroke-width: 3; stroke-linecap: square"/>
   </g>
   <g id="line2d_62">
    <path clip-path="url(#p4a1c6553f4)" style="fill: none; stroke: #000000; stroke-width: 3; stroke-linecap: square"/>
   </g>
   <g id="line2d_63">
    <path d="M 34.16 273.176566 
L 121.806421 273.176566 
L 121.806421 272.540018 
L 133.944435 272.540018 
L 133.944435 271.903469 
L 139.692768 271.903469 
L 139.692768 271.266921 
L 142.95514 271.266921 
L 142.95514 270.630373 
L 152.440487 270.630373 
L 152.440487 269.993824 
L 152.870656 269.993824 
L 152.870656 269.357276 
L 154.088759 269.357276 
L 154.088759 268.720728 
L 154.361089 268.720728 
L 154.361089 268.084179 
L 160.71629 268.084179 
L 160.71629 267.447631 
L 161.362129 267.447631 
L 161.362129 266.811083 
L 161.561433 266.811083 
L 161.561433 266.174535 
L 161.990103 266.174535 
L 162.034854 264.901438 
L 162.929504 264.901438 
L 162.929504 264.26489 
L 172.365169 264.26489 
L 172.365169 263.628341 
L 173.72553 263.628341 
L 173.72553 262.991793 
L 175.099222 262.991793 
L 175.099222 262.355245 
L 178.602637 262.355245 
L 178.602637 261.718696 
L 181.865009 261.718696 
L 181.865009 261.082148 
L 182.998391 261.082148 
L 182.998391 260.4456 
L 183.705319 260.4456 
L 183.705319 259.809051 
L 184.778416 259.809051 
L 184.778416 259.172503 
L 184.97098 259.172503 
L 184.97098 258.535955 
L 185.417286 258.535955 
L 185.417286 257.899406 
L 185.929656 257.899406 
L 185.929656 257.262858 
L 186.169282 257.262858 
L 186.169282 256.62631 
L 186.845306 256.62631 
L 186.845306 255.989762 
L 187.353637 255.989762 
L 187.353637 255.353213 
L 188.692913 255.353213 
L 188.692913 254.716665 
L 188.87667 254.716665 
L 188.882521 253.443568 
L 191.34404 253.443568 
L 191.34404 252.80702 
L 199.161673 252.80702 
L 199.161673 252.170472 
L 200.271998 252.170472 
L 200.271998 251.533923 
L 200.471302 251.533923 
L 200.471302 250.897375 
L 200.899972 250.897375 
L 200.944722 249.624278 
L 201.494443 249.624278 
L 201.494443 248.98773 
L 201.839373 248.98773 
L 201.924612 247.714633 
L 202.201371 247.714633 
L 202.201371 247.078085 
L 202.5844 247.078085 
L 202.63154 245.804989 
L 202.857327 245.804989 
L 202.857327 245.16844 
L 203.142715 245.16844 
L 203.142715 244.531892 
L 203.415046 244.531892 
L 203.415046 243.895344 
L 203.816003 243.895344 
L 203.913339 241.985699 
L 204.055629 241.985699 
L 204.121973 240.712602 
L 204.343508 240.712602 
L 204.343508 240.076054 
L 205.561611 240.076054 
L 205.561611 239.439505 
L 205.833941 239.439505 
L 205.833941 238.802957 
L 206.119699 238.802957 
L 206.119699 238.166409 
L 206.57926 238.166409 
L 206.57926 237.52986 
L 206.763018 237.52986 
L 206.763018 236.893312 
L 207.078375 236.893312 
L 207.078375 236.256764 
L 207.318001 236.256764 
L 207.318001 235.620216 
L 207.559628 235.620216 
L 207.559628 234.983667 
L 209.230387 234.983667 
L 209.230387 234.347119 
L 209.515 234.347119 
L 209.515 233.710571 
L 209.841632 233.710571 
L 209.841632 233.074022 
L 210.025389 233.074022 
L 210.025389 232.437474 
L 210.893494 232.437474 
L 210.893494 231.800926 
L 212.492758 231.800926 
L 212.492758 231.164377 
L 217.018337 231.164377 
L 217.018337 230.527829 
L 221.419125 230.527829 
L 221.419125 229.891281 
L 222.126053 229.891281 
L 222.126053 229.254732 
L 222.779486 229.254732 
L 222.779486 228.618184 
L 223.486414 228.618184 
L 223.486414 227.981636 
L 223.688285 227.981636 
L 223.688285 227.345087 
L 223.83802 227.345087 
L 223.83802 226.708539 
L 224.153178 226.708539 
L 224.153178 226.071991 
L 224.526688 226.071991 
L 224.557655 224.798894 
L 224.725991 224.798894 
L 224.725991 224.162346 
L 224.860106 224.162346 
L 224.88782 222.889249 
L 225.154662 222.889249 
L 225.199412 220.979604 
L 225.485364 220.979604 
L 225.485364 220.343056 
L 225.684668 220.343056 
L 225.755174 218.433411 
L 225.924294 218.433411 
L 225.924294 217.796863 
L 226.054088 217.796863 
L 226.1644 213.977573 
L 226.219579 213.977573 
L 226.263506 212.704476 
L 226.352964 212.704476 
L 226.397714 211.43138 
L 226.485849 211.43138 
L 226.572073 210.158283 
L 226.673764 210.158283 
L 226.673764 209.521735 
L 226.794412 209.521735 
L 226.794412 208.885186 
L 227.052739 208.885186 
L 227.052739 208.248638 
L 227.292365 208.248638 
L 227.401347 206.975541 
L 227.703952 206.975541 
L 227.79239 205.702445 
L 227.976283 205.702445 
L 227.976283 205.065896 
L 228.142785 205.065896 
L 228.248621 203.156252 
L 228.432379 203.156252 
L 228.447925 201.883155 
L 228.631682 201.883155 
L 228.631682 201.246607 
L 228.779841 201.246607 
L 228.876595 199.97351 
L 228.921346 199.97351 
L 228.921346 199.336962 
L 229.060352 199.336962 
L 229.105103 198.063865 
L 229.815996 198.063865 
L 229.815996 197.427317 
L 229.999754 197.427317 
L 229.999754 196.790768 
L 230.663719 196.790768 
L 230.663719 196.15422 
L 230.899748 196.15422 
L 230.899748 195.517672 
L 231.099051 195.517672 
L 231.099051 194.881123 
L 231.527722 194.881123 
L 231.572472 193.608027 
L 232.042213 193.608027 
L 232.042213 192.971479 
L 232.467123 192.971479 
L 232.571962 191.698382 
L 243.053707 191.698382 
L 243.053707 191.061834 
L 243.383873 191.061834 
L 243.483876 189.788737 
L 243.814042 189.788737 
L 243.814042 189.152189 
L 244.550141 189.152189 
L 244.660453 187.242544 
L 244.701979 187.242544 
L 244.715632 185.969447 
L 244.97431 185.969447 
L 245.032145 184.059802 
L 245.090622 184.059802 
L 245.169817 182.150157 
L 245.304475 182.150157 
L 245.304475 181.513609 
L 245.499296 181.513609 
L 245.599986 180.240512 
L 245.980362 180.240512 
L 245.980362 179.603964 
L 246.096124 179.603964 
L 246.198413 178.330867 
L 246.308725 178.330867 
L 246.363904 177.057771 
L 246.439608 177.057771 
L 246.470743 175.784674 
L 246.581055 175.784674 
L 246.638838 173.875029 
L 246.767329 173.875029 
L 246.818089 172.601933 
L 247.069007 172.601933 
L 247.090419 171.328836 
L 247.340723 171.328836 
L 247.340723 170.692288 
L 247.942975 170.692288 
L 247.942975 170.055739 
L 248.215629 170.055739 
L 248.28711 168.782643 
L 248.55944 168.782643 
L 248.55944 168.146094 
L 248.714415 168.146094 
L 248.714415 167.509546 
L 248.901651 167.509546 
L 248.922557 166.236449 
L 249.070708 166.236449 
L 249.141277 164.963353 
L 249.270011 164.963353 
L 249.358496 163.690256 
L 249.698682 163.690256 
L 249.743432 162.41716 
L 250.009864 162.41716 
L 250.009864 161.780611 
L 250.449202 161.780611 
L 250.518195 160.507515 
L 250.634524 160.507515 
L 250.648505 158.59787 
L 250.968541 158.59787 
L 251.077176 157.324773 
L 251.121926 157.324773 
L 251.208166 156.051676 
L 251.476872 156.051676 
L 251.476872 155.415128 
L 251.638356 155.415128 
L 251.716498 153.505483 
L 251.848665 153.505483 
L 251.848665 152.868935 
L 252.016577 152.868935 
L 252.047079 151.595838 
L 252.345284 151.595838 
L 252.345284 150.95929 
L 253.005756 150.95929 
L 253.005756 150.322742 
L 253.245382 150.322742 
L 253.245382 149.686193 
L 253.731798 149.686193 
L 253.731798 149.049645 
L 253.915555 149.049645 
L 253.915555 148.413097 
L 254.057252 148.413097 
L 254.057252 147.776548 
L 254.240129 147.776548 
L 254.316035 146.503452 
L 254.423886 146.503452 
L 254.423886 145.866903 
L 255.705568 145.866903 
L 255.769013 144.593807 
L 255.95277 144.593807 
L 255.95277 143.957258 
L 256.382924 143.957258 
L 256.382924 143.32071 
L 256.891255 143.32071 
L 256.891255 142.684162 
L 258.025601 142.684162 
L 258.025601 142.047613 
L 258.420139 142.047613 
L 258.420139 141.411065 
L 259.030648 141.411065 
L 259.030648 140.774517 
L 262.978389 140.774517 
L 262.978389 140.137969 
L 263.1311 140.137969 
L 263.1311 139.50142 
L 263.308554 139.50142 
L 263.308554 138.864872 
L 263.561269 138.864872 
L 263.561269 138.228324 
L 263.995349 138.228324 
L 263.995349 137.591775 
L 264.33875 137.591775 
L 264.425517 136.318679 
L 264.474823 136.318679 
L 264.585134 135.045582 
L 264.640314 135.045582 
L 264.668915 133.135937 
L 264.779372 133.135937 
L 264.779372 132.499389 
L 264.93566 132.499389 
L 264.93566 131.86284 
L 265.051703 131.86284 
L 265.094498 130.589744 
L 265.365829 130.589744 
L 265.365829 129.953196 
L 265.643621 129.953196 
L 265.712442 128.680099 
L 265.835184 128.680099 
L 265.945496 126.770454 
L 266.000675 126.770454 
L 266.072293 124.860809 
L 266.454859 124.860809 
L 266.56352 123.587712 
L 266.583932 123.587712 
L 266.583932 122.951164 
L 266.779221 122.951164 
L 266.856263 121.678067 
L 267.208875 121.678067 
L 267.319187 120.404971 
L 267.374367 120.404971 
L 267.374367 119.768423 
L 267.765485 119.768423 
L 267.828551 118.495326 
L 267.916048 118.495326 
L 267.964789 116.585681 
L 268.393459 116.585681 
L 268.491189 114.676036 
L 269.297572 114.676036 
L 269.33286 113.402939 
L 272.486995 113.402939 
L 272.486995 112.766391 
L 272.776866 112.766391 
L 272.776866 112.129843 
L 273.865489 112.129843 
L 273.865489 111.493294 
L 274.553884 111.493294 
L 274.553884 110.856746 
L 275.062215 110.856746 
L 275.062215 110.220198 
L 275.848368 110.220198 
L 275.932378 108.947101 
L 276.199593 108.947101 
L 276.199593 108.310553 
L 276.440709 108.310553 
L 276.440709 107.674005 
L 276.555296 107.674005 
L 276.591099 106.400908 
L 277.969593 106.400908 
L 277.969593 105.76436 
L 278.267264 105.76436 
L 278.267264 105.127811 
L 281.625918 105.127811 
L 281.625918 104.491263 
L 282.332846 104.491263 
L 282.332846 103.854715 
L 283.055782 103.854715 
L 283.055782 103.218166 
L 283.92003 103.218166 
L 283.92003 102.581618 
L 284.044814 102.581618 
L 284.044814 101.94507 
L 284.416143 101.94507 
L 284.416143 101.308521 
L 284.860342 101.308521 
L 284.860342 100.671973 
L 285.280391 100.671973 
L 285.280391 100.035425 
L 285.789835 100.035425 
L 285.789835 99.398877 
L 286.220703 99.398877 
L 286.323037 98.12578 
L 286.522341 98.12578 
L 286.522341 97.489232 
L 286.654083 97.489232 
L 286.654083 96.852683 
L 286.951011 96.852683 
L 286.995761 95.579587 
L 287.594395 95.579587 
L 287.594395 94.943038 
L 287.890412 94.943038 
L 287.890412 94.30649 
L 289.774893 94.30649 
L 289.774893 93.669942 
L 290.105058 93.669942 
L 290.105058 93.033393 
L 290.63353 93.033393 
L 290.63353 92.396845 
L 291.181772 92.396845 
L 291.271326 91.123748 
L 291.381638 91.123748 
L 291.436818 89.850652 
L 291.891002 89.850652 
L 291.891002 89.214104 
L 293.19762 89.214104 
L 293.248661 87.941007 
L 293.360023 87.941007 
L 293.360023 87.304459 
L 293.527785 87.304459 
L 293.527785 86.66791 
L 293.756993 86.66791 
L 293.756993 86.031362 
L 294.615437 86.031362 
L 294.694054 84.758265 
L 294.804366 84.758265 
L 294.859545 83.485169 
L 295.285877 83.485169 
L 295.313729 82.212072 
L 296.782751 82.212072 
L 296.782751 81.575524 
L 300.409605 81.575524 
L 300.409605 80.938975 
L 306.187155 80.938975 
L 306.187155 80.302427 
L 307.079558 80.302427 
L 307.079558 79.665879 
L 307.631557 79.665879 
L 307.631557 79.029331 
L 307.786485 79.029331 
L 307.786485 78.392782 
L 307.961723 78.392782 
L 307.961723 77.756234 
L 308.084605 77.756234 
L 308.084605 77.119686 
L 308.791532 77.119686 
L 308.791532 76.483137 
L 309.127991 76.483137 
L 309.238303 75.210041 
L 309.293482 75.210041 
L 309.293482 74.573492 
L 309.498453 74.573492 
L 309.498453 73.936944 
L 309.739324 73.936944 
L 309.747667 72.663847 
L 309.852286 72.663847 
L 309.852286 72.027299 
L 310.5035 72.027299 
L 310.5035 71.390751 
L 310.716534 71.390751 
L 310.716534 70.754202 
L 311.216688 70.754202 
L 311.216688 70.117654 
L 311.656846 70.117654 
L 311.656846 69.481106 
L 311.806213 69.481106 
L 311.806213 68.844557 
L 312.314544 68.844557 
L 312.314544 68.208009 
L 313.275013 68.208009 
L 313.275013 67.571461 
L 313.843429 67.571461 
L 313.843429 66.934913 
L 314.139261 66.934913 
L 314.139261 66.298364 
L 315.079573 66.298364 
L 315.079573 65.661816 
L 317.407632 65.661816 
L 317.407632 65.025268 
L 317.737797 65.025268 
L 317.737797 64.388719 
L 318.870127 64.388719 
L 318.904066 63.115623 
L 319.014378 63.115623 
L 319.069557 61.842526 
L 319.523741 61.842526 
L 319.523741 61.205978 
L 319.828803 61.205978 
L 319.828803 60.569429 
L 320.068429 60.569429 
L 320.068429 59.932881 
L 320.992763 59.932881 
L 320.992763 59.296333 
L 322.59206 59.296333 
L 322.59206 58.659784 
L 322.775817 58.659784 
L 322.775817 58.023236 
L 323.185182 58.023236 
L 323.185182 57.386688 
L 323.515347 57.386688 
L 323.515347 56.75014 
L 324.681616 56.75014 
L 324.791928 55.477043 
L 324.847107 55.477043 
L 324.847107 54.840495 
L 325.243187 54.840495 
L 325.301291 53.567398 
L 326.770313 53.567398 
L 326.770313 52.93085 
L 327.70895 52.93085 
L 327.70895 52.294301 
L 328.573199 52.294301 
L 328.573199 51.657753 
L 329.51351 51.657753 
L 329.51351 51.021205 
L 331.640794 51.021205 
L 331.640794 50.384656 
L 332.645841 50.384656 
L 332.645841 49.748108 
L 337.485025 49.748108 
L 337.485025 49.11156 
L 338.349273 49.11156 
L 338.349273 48.475011 
L 339.289585 48.475011 
L 339.289585 47.838463 
L 343.262575 47.838463 
L 343.262575 47.201915 
L 343.414147 47.201915 
L 343.414147 46.565367 
L 344.126823 46.565367 
L 344.126823 45.928818 
L 344.792641 45.928818 
L 344.792641 45.29227 
L 345.067135 45.29227 
L 345.067135 44.655722 
L 348.638821 44.655722 
L 348.638821 44.019173 
L 348.968987 44.019173 
L 348.968987 43.382625 
L 349.643869 43.382625 
L 349.643869 42.746077 
L 349.974034 42.746077 
L 349.974034 42.109528 
L 350.135255 42.109528 
L 350.245567 40.836432 
L 350.300746 40.836432 
L 350.300746 40.199883 
L 350.754931 40.199883 
L 350.754931 39.563335 
L 351.140302 39.563335 
L 351.250614 38.290238 
L 351.305793 38.290238 
L 351.305793 37.65369 
L 351.759978 37.65369 
L 351.759978 37.017142 
L 352.223952 37.017142 
L 352.223952 36.380594 
L 353.228999 36.380594 
L 353.228999 35.744045 
L 362.108924 35.744045 
L 362.108924 35.107497 
L 368.716214 35.107497 
L 368.716214 34.470949 
L 369.580463 34.470949 
L 369.580463 33.8344 
L 369.721262 33.8344 
L 369.721262 33.197852 
L 370.520774 33.197852 
L 370.58551 31.924755 
L 371.525821 31.924755 
L 371.525821 31.288207 
L 380.666476 31.288207 
L 380.666476 30.651659 
L 453.192 30.651659 
L 453.192 30.651659 
" clip-path="url(#p4a1c6553f4)" style="fill: none; stroke: #00bfbf; stroke-width: 3; stroke-linecap: square"/>
   </g>
   <g id="line2d_64">
    <path clip-path="url(#p4a1c6553f4)" style="fill: none; stroke: #00bfbf; stroke-width: 3; stroke-linecap: square"/>
   </g>
   <g id="line2d_65">
    <path d="M 34.16 257.480854 
L 123.647718 257.480854 
L 123.647718 256.190318 
L 125.836128 256.190318 
L 125.836128 254.899782 
L 144.146861 254.899782 
L 144.146861 253.609245 
L 147.065953 253.609245 
L 147.065953 252.318709 
L 166.061832 252.318709 
L 166.061832 251.028173 
L 166.187158 251.028173 
L 166.258319 247.156564 
L 167.080697 247.156564 
L 167.080697 245.866027 
L 182.354957 245.866027 
L 182.354957 244.575491 
L 182.937555 244.575491 
L 182.937555 243.284955 
L 184.061257 243.284955 
L 184.061257 241.994418 
L 184.543367 241.994418 
L 184.543367 240.703882 
L 185.125965 240.703882 
L 185.125965 239.413346 
L 185.784229 239.413346 
L 185.784229 238.12281 
L 186.249667 238.12281 
L 186.314892 235.541737 
L 187.972639 235.541737 
L 187.972639 234.251201 
L 188.503302 234.251201 
L 188.503302 232.960664 
L 188.842616 232.960664 
L 188.842616 231.670128 
L 189.115974 231.670128 
L 189.115974 230.379592 
L 190.279943 230.379592 
L 190.279943 229.089055 
L 191.031026 229.089055 
L 191.031026 227.798519 
L 191.686393 227.798519 
L 191.686393 226.507983 
L 193.279424 226.507983 
L 193.279424 225.217447 
L 202.8541 225.217447 
L 202.8541 223.92691 
L 203.436697 223.92691 
L 203.436697 222.636374 
L 204.5604 222.636374 
L 204.5604 221.345838 
L 205.773192 221.345838 
L 205.773192 220.055301 
L 206.283371 220.055301 
L 206.35579 217.474229 
L 206.450333 217.474229 
L 206.450333 216.183692 
L 206.814034 216.183692 
L 206.814034 214.893156 
L 207.479492 214.893156 
L 207.479492 213.60262 
L 208.638743 213.60262 
L 208.726925 211.021547 
L 209.202464 211.021547 
L 209.202464 209.731011 
L 209.341759 209.731011 
L 209.341759 208.440475 
L 209.733127 208.440475 
L 209.733127 207.149938 
L 210.915335 207.149938 
L 210.915335 205.859402 
L 212.260852 205.859402 
L 212.260852 204.568866 
L 219.428231 204.568866 
L 219.428231 203.278329 
L 221.616641 203.278329 
L 221.616641 201.987793 
L 224.769071 201.987793 
L 224.868462 199.40672 
L 224.894397 199.40672 
L 224.965558 195.535111 
L 225.351668 195.535111 
L 225.351668 194.244575 
L 225.476995 194.244575 
L 225.548155 190.372966 
L 225.787936 190.372966 
L 225.787936 189.08243 
L 226.370534 189.08243 
L 226.47537 186.501357 
L 226.600697 186.501357 
L 226.671857 182.629748 
L 226.949476 182.629748 
L 227.056872 180.048676 
L 227.494236 180.048676 
L 227.494236 178.758139 
L 228.198342 178.758139 
L 228.198342 177.467603 
L 228.323669 177.467603 
L 228.394829 173.595994 
L 228.729005 173.595994 
L 228.729005 172.305458 
L 228.854332 172.305458 
L 228.925492 168.433849 
L 229.217208 168.433849 
L 229.226068 165.852776 
L 229.747871 165.852776 
L 229.747871 164.56224 
L 229.868568 164.56224 
L 229.868568 163.271704 
L 231.25673 163.271704 
L 231.25673 161.981168 
L 231.382056 161.981168 
L 231.453217 158.109559 
L 232.14516 158.109559 
L 232.14516 156.819022 
L 232.275595 156.819022 
L 232.275595 155.528486 
L 239.927374 155.528486 
L 239.927374 154.23795 
L 242.846467 154.23795 
L 242.846467 152.947413 
L 244.486841 152.947413 
L 244.486841 151.656877 
L 245.367604 151.656877 
L 245.367604 150.366341 
L 246.675251 150.366341 
L 246.675251 149.075804 
L 247.823213 149.075804 
L 247.823213 147.785268 
L 248.286697 147.785268 
L 248.286697 146.494732 
L 248.40581 146.494732 
L 248.40581 145.204196 
L 248.864447 145.204196 
L 248.864447 143.913659 
L 248.987182 143.913659 
L 249.060934 138.751514 
L 249.529512 138.751514 
L 249.56978 136.170441 
L 249.883312 136.170441 
L 249.883312 134.879905 
L 250.393632 134.879905 
L 250.393632 133.589369 
L 250.693482 133.589369 
L 250.693482 132.298832 
L 250.97623 132.298832 
L 250.97623 131.008296 
L 251.141039 131.008296 
L 251.141039 129.71776 
L 251.252484 129.71776 
L 251.337526 124.555615 
L 251.783147 124.555615 
L 251.783147 123.265078 
L 251.986663 123.265078 
L 251.986663 121.974542 
L 252.099932 121.974542 
L 252.159904 119.393469 
L 252.416454 119.393469 
L 252.416454 118.102933 
L 252.569261 118.102933 
L 252.569261 116.812397 
L 252.947117 116.812397 
L 252.947117 115.521861 
L 253.692963 115.521861 
L 253.692963 114.231324 
L 253.822904 114.231324 
L 253.822904 112.940788 
L 254.310872 112.940788 
L 254.353567 110.359715 
L 255.415935 110.359715 
L 255.474841 107.778643 
L 255.946598 107.778643 
L 255.946598 106.488106 
L 256.881291 106.488106 
L 256.881291 105.19757 
L 258.474323 105.19757 
L 258.474323 103.907034 
L 261.842345 103.907034 
L 261.842345 102.616497 
L 261.967671 102.616497 
L 262.038832 98.744889 
L 262.86121 98.744889 
L 262.86121 97.454352 
L 264.985984 97.454352 
L 264.985984 96.163816 
L 267.282575 96.163816 
L 267.282575 94.87328 
L 267.407902 94.87328 
L 267.479062 91.001671 
L 267.905076 91.001671 
L 267.905076 89.711134 
L 268.301441 89.711134 
L 268.301441 88.420598 
L 271.918589 88.420598 
L 271.918589 87.130062 
L 273.082558 87.130062 
L 273.082558 85.839525 
L 274.195181 85.839525 
L 274.195181 84.548989 
L 274.489008 84.548989 
L 274.489008 83.258453 
L 275.35915 83.258453 
L 275.35915 81.967917 
L 276.082039 81.967917 
L 276.082039 80.67738 
L 276.7656 80.67738 
L 276.7656 79.386844 
L 278.358631 79.386844 
L 278.358631 78.096308 
L 284.896487 78.096308 
L 284.896487 76.805771 
L 286.060456 76.805771 
L 286.060456 75.515235 
L 286.900955 75.515235 
L 286.900955 74.224699 
L 287.026281 74.224699 
L 287.097442 70.35309 
L 287.466906 70.35309 
L 287.466906 69.062553 
L 287.91982 69.062553 
L 287.91982 67.772017 
L 289.059938 67.772017 
L 289.059938 66.481481 
L 290.336717 66.481481 
L 290.336717 65.190945 
L 291.500686 65.190945 
L 291.500686 63.900408 
L 292.907137 63.900408 
L 292.907137 62.609872 
L 294.500168 62.609872 
L 294.500168 61.319336 
L 309.955097 61.319336 
L 309.955097 60.028799 
L 311.119066 60.028799 
L 311.119066 58.738263 
L 312.525516 58.738263 
L 312.525516 57.447727 
L 314.118547 57.447727 
L 314.118547 56.15719 
L 453.192 56.15719 
L 453.192 56.15719 
" clip-path="url(#p4a1c6553f4)" style="fill: none; stroke: #bf00bf; stroke-width: 3; stroke-linecap: square"/>
   </g>
   <g id="line2d_66">
    <path clip-path="url(#p4a1c6553f4)" style="fill: none; stroke: #bf00bf; stroke-width: 3; stroke-linecap: square"/>
   </g>
   <g id="line2d_67">
    <path d="M 34.16 257.480854 
L 125.875354 257.480854 
L 125.875354 256.190318 
L 127.753595 256.190318 
L 127.753595 254.899782 
L 146.381089 254.899782 
L 146.381089 253.609245 
L 149.108557 253.609245 
L 149.108557 252.318709 
L 168.170342 252.318709 
L 168.170342 251.028173 
L 168.689402 251.028173 
L 168.776122 247.156564 
L 169.522835 247.156564 
L 169.522835 245.866027 
L 182.171095 245.866027 
L 182.171095 244.575491 
L 182.904896 244.575491 
L 182.904896 243.284955 
L 183.124709 243.284955 
L 183.124709 241.994418 
L 184.049336 241.994418 
L 184.049336 240.703882 
L 184.783137 240.703882 
L 184.783137 239.413346 
L 185.002949 239.413346 
L 185.002949 238.12281 
L 185.564993 238.12281 
L 185.653758 235.541737 
L 187.443233 235.541737 
L 187.531999 232.960664 
L 187.958919 232.960664 
L 187.958919 231.670128 
L 189.83716 231.670128 
L 189.83716 230.379592 
L 191.335611 230.379592 
L 191.335611 229.089055 
L 192.750269 229.089055 
L 192.750269 227.798519 
L 194.346984 227.798519 
L 194.346984 226.507983 
L 195.375689 226.507983 
L 195.375689 225.217447 
L 202.67683 225.217447 
L 202.67683 223.92691 
L 203.410631 223.92691 
L 203.410631 222.636374 
L 203.630444 222.636374 
L 203.630444 221.345838 
L 205.373107 221.345838 
L 205.404298 218.764765 
L 206.070728 218.764765 
L 206.159493 214.893156 
L 206.357911 214.893156 
L 206.357911 213.60262 
L 207.251348 213.60262 
L 207.251348 212.312083 
L 207.749561 212.312083 
L 207.749561 211.021547 
L 208.464654 211.021547 
L 208.464654 209.731011 
L 208.798195 209.731011 
L 208.88696 207.149938 
L 209.627802 207.149938 
L 209.627802 205.859402 
L 211.192122 205.859402 
L 211.192122 204.568866 
L 218.375727 204.568866 
L 218.375727 203.278329 
L 220.253968 203.278329 
L 220.253968 201.987793 
L 223.475981 201.987793 
L 223.475981 200.697257 
L 224.466082 200.697257 
L 224.466082 199.40672 
L 224.985142 199.40672 
L 225.071862 195.535111 
L 225.199883 195.535111 
L 225.199883 194.244575 
L 225.354222 194.244575 
L 225.419696 191.663503 
L 225.718943 191.663503 
L 225.818576 186.501357 
L 225.878842 186.501357 
L 225.966886 182.629748 
L 226.025476 182.629748 
L 226.025476 181.339212 
L 226.552376 181.339212 
L 226.552376 180.048676 
L 226.772189 180.048676 
L 226.772189 178.758139 
L 227.85998 178.758139 
L 227.948745 176.177067 
L 228.255296 176.177067 
L 228.255296 174.886531 
L 228.37904 174.886531 
L 228.467805 169.724385 
L 228.495935 169.724385 
L 228.60631 165.852776 
L 229.212473 165.852776 
L 229.301238 163.271704 
L 230.253907 163.271704 
L 230.253907 161.981168 
L 230.772967 161.981168 
L 230.859686 158.109559 
L 230.982764 158.109559 
L 230.982764 156.819022 
L 231.6064 156.819022 
L 231.6064 155.528486 
L 238.881462 155.528486 
L 238.881462 154.23795 
L 241.608929 154.23795 
L 241.608929 152.947413 
L 243.981716 152.947413 
L 243.981716 151.656877 
L 244.143119 151.656877 
L 244.143119 150.366341 
L 246.021359 150.366341 
L 246.021359 149.075804 
L 246.709184 149.075804 
L 246.709184 147.785268 
L 247.631352 147.785268 
L 247.668094 145.204196 
L 248.187154 145.204196 
L 248.273874 141.332587 
L 248.365152 141.332587 
L 248.365152 140.04205 
L 248.584965 140.04205 
L 248.584965 138.751514 
L 249.020588 138.751514 
L 249.04601 136.170441 
L 249.779811 136.170441 
L 249.779811 134.879905 
L 249.999624 134.879905 
L 250.044549 132.298832 
L 250.563609 132.298832 
L 250.650329 127.136687 
L 251.025249 127.136687 
L 251.114014 124.555615 
L 251.376525 124.555615 
L 251.397042 121.974542 
L 251.596338 121.974542 
L 251.67143 119.393469 
L 252.405231 119.393469 
L 252.439908 116.812397 
L 252.528673 116.812397 
L 252.625043 114.231324 
L 253.419176 114.231324 
L 253.419176 112.940788 
L 254.036622 112.940788 
L 254.125388 110.359715 
L 254.833834 110.359715 
L 254.833834 109.069179 
L 255.065327 109.069179 
L 255.154093 106.488106 
L 256.430549 106.488106 
L 256.430549 105.19757 
L 257.459254 105.19757 
L 257.459254 103.907034 
L 260.670714 103.907034 
L 260.670714 102.616497 
L 261.189774 102.616497 
L 261.276494 98.744889 
L 262.023207 98.744889 
L 262.023207 97.454352 
L 264.648854 97.454352 
L 264.648854 96.163816 
L 265.770969 96.163816 
L 265.770969 94.87328 
L 266.290029 94.87328 
L 266.376749 91.001671 
L 267.123462 91.001671 
L 267.123462 89.711134 
L 267.376321 89.711134 
L 267.376321 88.420598 
L 270.833364 88.420598 
L 270.833364 87.130062 
L 272.248022 87.130062 
L 272.248022 85.839525 
L 273.209818 85.839525 
L 273.209818 84.548989 
L 273.844737 84.548989 
L 273.844737 83.258453 
L 274.624476 83.258453 
L 274.624476 81.967917 
L 274.873442 81.967917 
L 274.873442 80.67738 
L 276.221191 80.67738 
L 276.221191 79.386844 
L 277.249896 79.386844 
L 277.249896 78.096308 
L 283.835984 78.096308 
L 283.835984 76.805771 
L 285.250642 76.805771 
L 285.250642 75.515235 
L 286.438106 75.515235 
L 286.438106 74.224699 
L 286.847357 74.224699 
L 286.957166 71.643626 
L 286.985296 71.643626 
L 287.043886 69.062553 
L 287.790599 69.062553 
L 287.876062 66.481481 
L 288.936238 66.481481 
L 288.936238 65.190945 
L 290.350896 65.190945 
L 290.350896 63.900408 
L 291.947611 63.900408 
L 291.947611 62.609872 
L 292.976316 62.609872 
L 292.976316 61.319336 
L 309.603375 61.319336 
L 309.603375 60.028799 
L 311.018034 60.028799 
L 311.018034 58.738263 
L 312.614748 58.738263 
L 312.614748 57.447727 
L 313.643453 57.447727 
L 313.643453 56.15719 
L 453.192 56.15719 
L 453.192 56.15719 
" clip-path="url(#p4a1c6553f4)" style="fill: none; stroke: #ff0000; stroke-width: 3; stroke-linecap: square"/>
   </g>
   <g id="line2d_68">
    <path clip-path="url(#p4a1c6553f4)" style="fill: none; stroke: #ff0000; stroke-width: 3; stroke-linecap: square"/>
   </g>
   <g id="line2d_69">
    <path d="M 243.676 291.28 
L 243.676 3 
" clip-path="url(#p4a1c6553f4)" style="fill: none; stroke: #000000; stroke-width: 1.5; stroke-linecap: square"/>
   </g>
   <g id="line2d_70">
    <path d="M 34.16 147.14 
L 453.192 147.14 
" clip-path="url(#p4a1c6553f4)" style="fill: none; stroke-dasharray: 2,3.3; stroke-dashoffset: 0; stroke: #000000; stroke-width: 2"/>
   </g>
   <g id="patch_3">
    <path d="M 34.16 291.28 
L 34.16 3 
" style="fill: none; stroke: #000000; stroke-width: 0.8; stroke-linejoin: miter; stroke-linecap: square"/>
   </g>
   <g id="patch_4">
    <path d="M 453.192 291.28 
L 453.192 3 
" style="fill: none; stroke: #000000; stroke-width: 0.8; stroke-linejoin: miter; stroke-linecap: square"/>
   </g>
   <g id="patch_5">
    <path d="M 34.16 291.28 
L 453.192 291.28 
" style="fill: none; stroke: #000000; stroke-width: 0.8; stroke-linejoin: miter; stroke-linecap: square"/>
   </g>
   <g id="patch_6">
    <path d="M 34.16 3 
L 453.192 3 
" style="fill: none; stroke: #000000; stroke-width: 0.8; stroke-linejoin: miter; stroke-linecap: square"/>
   </g>
   <g id="text_5">
    <!-- f20-f24,40-D -->
    <g transform="translate(318.19261 285.5144) scale(0.2 -0.2)">
     <defs>
      <path id="DejaVuSans-32" d="M 1228 531 
L 3431 531 
L 3431 0 
L 469 0 
L 469 531 
Q 828 903 1448 1529 
Q 2069 2156 2228 2338 
Q 2531 2678 2651 2914 
Q 2772 3150 2772 3378 
Q 2772 3750 2511 3984 
Q 2250 4219 1831 4219 
Q 1534 4219 1204 4116 
Q 875 4013 500 3803 
L 500 4441 
Q 881 4594 1212 4672 
Q 1544 4750 1819 4750 
Q 2544 4750 2975 4387 
Q 3406 4025 3406 3419 
Q 3406 3131 3298 2873 
Q 3191 2616 2906 2266 
Q 2828 2175 2409 1742 
Q 1991 1309 1228 531 
z
" transform="scale(0.015625)"/>
      <path id="DejaVuSans-34" d="M 2419 4116 
L 825 1625 
L 2419 1625 
L 2419 4116 
z
M 2253 4666 
L 3047 4666 
L 3047 1625 
L 3713 1625 
L 3713 1100 
L 3047 1100 
L 3047 0 
L 2419 0 
L 2419 1100 
L 313 1100 
L 313 1709 
L 2253 4666 
z
" transform="scale(0.015625)"/>
      <path id="DejaVuSans-2c" d="M 750 794 
L 1409 794 
L 1409 256 
L 897 -744 
L 494 -744 
L 750 256 
L 750 794 
z
" transform="scale(0.015625)"/>
      <path id="DejaVuSans-44" d="M 1259 4147 
L 1259 519 
L 2022 519 
Q 2988 519 3436 956 
Q 3884 1394 3884 2338 
Q 3884 3275 3436 3711 
Q 2988 4147 2022 4147 
L 1259 4147 
z
M 628 4666 
L 1925 4666 
Q 3281 4666 3915 4102 
Q 4550 3538 4550 2338 
Q 4550 1131 3912 565 
Q 3275 0 1925 0 
L 628 0 
L 628 4666 
z
" transform="scale(0.015625)"/>
     </defs>
     <use xlink:href="#DejaVuSans-66"/>
     <use xlink:href="#DejaVuSans-32" x="35.205078"/>
     <use xlink:href="#DejaVuSans-30" x="98.828125"/>
     <use xlink:href="#DejaVuSans-2d" x="162.451172"/>
     <use xlink:href="#DejaVuSans-66" x="198.535156"/>
     <use xlink:href="#DejaVuSans-32" x="233.740234"/>
     <use xlink:href="#DejaVuSans-34" x="297.363281"/>
     <use xlink:href="#DejaVuSans-2c" x="360.986328"/>
     <use xlink:href="#DejaVuSans-34" x="392.773438"/>
     <use xlink:href="#DejaVuSans-30" x="456.396484"/>
     <use xlink:href="#DejaVuSans-2d" x="520.019531"/>
     <use xlink:href="#DejaVuSans-44" x="556.103516"/>
    </g>
   </g>
   <g id="text_6">
    <!-- v2.6.3 -->
    <g style="fill: #808080" transform="translate(227.99475 286.317512) scale(0.1 -0.1)">
     <defs>
      <path id="DejaVuSans-2e" d="M 684 794 
L 1344 794 
L 1344 0 
L 684 0 
L 684 794 
z
" transform="scale(0.015625)"/>
      <path id="DejaVuSans-36" d="M 2113 2584 
Q 1688 2584 1439 2293 
Q 1191 2003 1191 1497 
Q 1191 994 1439 701 
Q 1688 409 2113 409 
Q 2538 409 2786 701 
Q 3034 994 3034 1497 
Q 3034 2003 2786 2293 
Q 2538 2584 2113 2584 
z
M 3366 4563 
L 3366 3988 
Q 3128 4100 2886 4159 
Q 2644 4219 2406 4219 
Q 1781 4219 1451 3797 
Q 1122 3375 1075 2522 
Q 1259 2794 1537 2939 
Q 1816 3084 2150 3084 
Q 2853 3084 3261 2657 
Q 3669 2231 3669 1497 
Q 3669 778 3244 343 
Q 2819 -91 2113 -91 
Q 1303 -91 875 529 
Q 447 1150 447 2328 
Q 447 3434 972 4092 
Q 1497 4750 2381 4750 
Q 2619 4750 2861 4703 
Q 3103 4656 3366 4563 
z
" transform="scale(0.015625)"/>
      <path id="DejaVuSans-33" d="M 2597 2516 
Q 3050 2419 3304 2112 
Q 3559 1806 3559 1356 
Q 3559 666 3084 287 
Q 2609 -91 1734 -91 
Q 1441 -91 1130 -33 
Q 819 25 488 141 
L 488 750 
Q 750 597 1062 519 
Q 1375 441 1716 441 
Q 2309 441 2620 675 
Q 2931 909 2931 1356 
Q 2931 1769 2642 2001 
Q 2353 2234 1838 2234 
L 1294 2234 
L 1294 2753 
L 1863 2753 
Q 2328 2753 2575 2939 
Q 2822 3125 2822 3475 
Q 2822 3834 2567 4026 
Q 2313 4219 1838 4219 
Q 1578 4219 1281 4162 
Q 984 4106 628 3988 
L 628 4550 
Q 988 4650 1302 4700 
Q 1616 4750 1894 4750 
Q 2613 4750 3031 4423 
Q 3450 4097 3450 3541 
Q 3450 3153 3228 2886 
Q 3006 2619 2597 2516 
z
" transform="scale(0.015625)"/>
     </defs>
     <use xlink:href="#DejaVuSans-76"/>
     <use xlink:href="#DejaVuSans-32" x="59.179688"/>
     <use xlink:href="#DejaVuSans-2e" x="122.802734"/>
     <use xlink:href="#DejaVuSans-36" x="154.589844"/>
     <use xlink:href="#DejaVuSans-2e" x="218.212891"/>
     <use xlink:href="#DejaVuSans-33" x="250"/>
    </g>
   </g>
   <g id="legend_1">
    <g id="patch_7">
     <path d="M 48.16 136.425 
L 177.381875 136.425 
Q 181.381875 136.425 181.381875 132.425 
L 181.381875 17 
Q 181.381875 13 177.381875 13 
L 48.16 13 
Q 44.16 13 44.16 17 
L 44.16 132.425 
Q 44.16 136.425 48.16 136.425 
z
" style="fill: #ffffff; opacity: 0.2; stroke: #cccccc; stroke-linejoin: miter"/>
    </g>
    <g id="line2d_71">
     <path d="M 52.16 29.196875 
L 72.16 29.196875 
L 92.16 29.196875 
" style="fill: none; stroke: #000000; stroke-width: 3; stroke-linecap: square"/>
    </g>
    <g id="text_7">
     <!-- 1: 4/2 -->
     <g transform="translate(108.16 36.196875) scale(0.2 -0.2)">
      <defs>
       <path id="DejaVuSans-3a" d="M 750 794 
L 1409 794 
L 1409 0 
L 750 0 
L 750 794 
z
M 750 3309 
L 1409 3309 
L 1409 2516 
L 750 2516 
L 750 3309 
z
" transform="scale(0.015625)"/>
       <path id="DejaVuSans-2f" d="M 1625 4666 
L 2156 4666 
L 531 -594 
L 0 -594 
L 1625 4666 
z
" transform="scale(0.015625)"/>
      </defs>
      <use xlink:href="#DejaVuSans-31"/>
      <use xlink:href="#DejaVuSans-3a" x="63.623047"/>
      <use xlink:href="#DejaVuSans-20" x="97.314453"/>
      <use xlink:href="#DejaVuSans-34" x="129.101562"/>
      <use xlink:href="#DejaVuSans-2f" x="192.724609"/>
      <use xlink:href="#DejaVuSans-32" x="226.416016"/>
     </g>
    </g>
    <g id="line2d_72">
     <path d="M 52.16 58.553125 
L 72.16 58.553125 
L 92.16 58.553125 
" style="fill: none; stroke: #00bfbf; stroke-width: 3; stroke-linecap: square"/>
    </g>
    <g id="text_8">
     <!-- -1: 2/2 -->
     <g transform="translate(108.16 65.553125) scale(0.2 -0.2)">
      <use xlink:href="#DejaVuSans-2d"/>
      <use xlink:href="#DejaVuSans-31" x="36.083984"/>
      <use xlink:href="#DejaVuSans-3a" x="99.707031"/>
      <use xlink:href="#DejaVuSans-20" x="133.398438"/>
      <use xlink:href="#DejaVuSans-32" x="165.185547"/>
      <use xlink:href="#DejaVuSans-2f" x="228.808594"/>
      <use xlink:href="#DejaVuSans-32" x="262.5"/>
     </g>
    </g>
    <g id="line2d_73">
     <path d="M 52.16 87.909375 
L 72.16 87.909375 
L 92.16 87.909375 
" style="fill: none; stroke: #bf00bf; stroke-width: 3; stroke-linecap: square"/>
    </g>
    <g id="text_9">
     <!-- -4: 1/1 -->
     <g transform="translate(108.16 94.909375) scale(0.2 -0.2)">
      <use xlink:href="#DejaVuSans-2d"/>
      <use xlink:href="#DejaVuSans-34" x="36.083984"/>
      <use xlink:href="#DejaVuSans-3a" x="99.707031"/>
      <use xlink:href="#DejaVuSans-20" x="133.398438"/>
      <use xlink:href="#DejaVuSans-31" x="165.185547"/>
      <use xlink:href="#DejaVuSans-2f" x="228.808594"/>
      <use xlink:href="#DejaVuSans-31" x="262.5"/>
     </g>
    </g>
    <g id="line2d_74">
     <path d="M 52.16 117.265625 
L 72.16 117.265625 
L 92.16 117.265625 
" style="fill: none; stroke: #ff0000; stroke-width: 3; stroke-linecap: square"/>
    </g>
    <g id="text_10">
     <!-- -8: 1/1 -->
     <g transform="translate(108.16 124.265625) scale(0.2 -0.2)">
      <defs>
       <path id="DejaVuSans-38" d="M 2034 2216 
Q 1584 2216 1326 1975 
Q 1069 1734 1069 1313 
Q 1069 891 1326 650 
Q 1584 409 2034 409 
Q 2484 409 2743 651 
Q 3003 894 3003 1313 
Q 3003 1734 2745 1975 
Q 2488 2216 2034 2216 
z
M 1403 2484 
Q 997 2584 770 2862 
Q 544 3141 544 3541 
Q 544 4100 942 4425 
Q 1341 4750 2034 4750 
Q 2731 4750 3128 4425 
Q 3525 4100 3525 3541 
Q 3525 3141 3298 2862 
Q 3072 2584 2669 2484 
Q 3125 2378 3379 2068 
Q 3634 1759 3634 1313 
Q 3634 634 3220 271 
Q 2806 -91 2034 -91 
Q 1263 -91 848 271 
Q 434 634 434 1313 
Q 434 1759 690 2068 
Q 947 2378 1403 2484 
z
M 1172 3481 
Q 1172 3119 1398 2916 
Q 1625 2713 2034 2713 
Q 2441 2713 2670 2916 
Q 2900 3119 2900 3481 
Q 2900 3844 2670 4047 
Q 2441 4250 2034 4250 
Q 1625 4250 1398 4047 
Q 1172 3844 1172 3481 
z
" transform="scale(0.015625)"/>
      </defs>
      <use xlink:href="#DejaVuSans-2d"/>
      <use xlink:href="#DejaVuSans-38" x="36.083984"/>
      <use xlink:href="#DejaVuSans-3a" x="99.707031"/>
      <use xlink:href="#DejaVuSans-20" x="133.398438"/>
      <use xlink:href="#DejaVuSans-31" x="165.185547"/>
      <use xlink:href="#DejaVuSans-2f" x="228.808594"/>
      <use xlink:href="#DejaVuSans-31" x="262.5"/>
     </g>
    </g>
   </g>
  </g>
 </g>
 <defs>
  <clipPath id="p4a1c6553f4">
   <rect x="34.16" y="3" width="419.032" height="288.28"/>
  </clipPath>
 </defs>
</svg>
