<?xml version="1.0" encoding="utf-8" standalone="no"?>
<!DOCTYPE svg PUBLIC "-//W3C//DTD SVG 1.1//EN"
  "http://www.w3.org/Graphics/SVG/1.1/DTD/svg11.dtd">
<svg xmlns:xlink="http://www.w3.org/1999/xlink" width="460.8pt" height="345.6pt" viewBox="0 0 460.8 345.6" xmlns="http://www.w3.org/2000/svg" version="1.1">
 <metadata>
  <rdf:RDF xmlns:dc="http://purl.org/dc/elements/1.1/" xmlns:cc="http://creativecommons.org/ns#" xmlns:rdf="http://www.w3.org/1999/02/22-rdf-syntax-ns#">
   <cc:Work>
    <dc:type rdf:resource="http://purl.org/dc/dcmitype/StillImage"/>
    <dc:date>2024-06-05T13:46:43.256646</dc:date>
    <dc:format>image/svg+xml</dc:format>
    <dc:creator>
     <cc:Agent>
      <dc:title>Matplotlib v3.7.1, https://matplotlib.org/</dc:title>
     </cc:Agent>
    </dc:creator>
   </cc:Work>
  </rdf:RDF>
 </metadata>
 <defs>
  <style type="text/css">*{stroke-linejoin: round; stroke-linecap: butt}</style>
 </defs>
 <g id="figure_1">
  <g id="patch_1">
   <path d="M 0 345.6 
L 460.8 345.6 
L 460.8 0 
L 0 0 
z
" style="fill: #ffffff"/>
  </g>
  <g id="axes_1">
   <g id="patch_2">
    <path d="M 34.16 291.28 
L 453.192 291.28 
L 453.192 3 
L 34.16 3 
z
" style="fill: #ffffff"/>
   </g>
   <g id="matplotlib.axis_1">
    <g id="xtick_1">
     <g id="line2d_1">
      <path d="M 170.837832 291.28 
L 170.837832 3 
" clip-path="url(#p852ccecad4)" style="fill: none; stroke: #b0b0b0; stroke-width: 0.8; stroke-linecap: square"/>
     </g>
     <g id="line2d_2">
      <defs>
       <path id="mce009c6ad3" d="M 0 0 
L 0 3.5 
" style="stroke: #000000; stroke-width: 0.8"/>
      </defs>
      <g>
       <use xlink:href="#mce009c6ad3" x="170.837832" y="291.28" style="stroke: #000000; stroke-width: 0.8"/>
      </g>
     </g>
     <g id="text_1">
      <!-- -1 -->
      <g transform="translate(160.867519 313.476875) scale(0.2 -0.2)">
       <defs>
        <path id="DejaVuSans-2d" d="M 313 2009 
L 1997 2009 
L 1997 1497 
L 313 1497 
L 313 2009 
z
" transform="scale(0.015625)"/>
        <path id="DejaVuSans-31" d="M 794 531 
L 1825 531 
L 1825 4091 
L 703 3866 
L 703 4441 
L 1819 4666 
L 2450 4666 
L 2450 531 
L 3481 531 
L 3481 0 
L 794 0 
L 794 531 
z
" transform="scale(0.015625)"/>
       </defs>
       <use xlink:href="#DejaVuSans-2d"/>
       <use xlink:href="#DejaVuSans-31" x="36.083984"/>
      </g>
     </g>
    </g>
    <g id="xtick_2">
     <g id="line2d_3">
      <path d="M 316.514168 291.28 
L 316.514168 3 
" clip-path="url(#p852ccecad4)" style="fill: none; stroke: #b0b0b0; stroke-width: 0.8; stroke-linecap: square"/>
     </g>
     <g id="line2d_4">
      <g>
       <use xlink:href="#mce009c6ad3" x="316.514168" y="291.28" style="stroke: #000000; stroke-width: 0.8"/>
      </g>
     </g>
     <g id="text_2">
      <!-- 1 -->
      <g transform="translate(310.151668 313.476875) scale(0.2 -0.2)">
       <use xlink:href="#DejaVuSans-31"/>
      </g>
     </g>
    </g>
    <g id="xtick_3">
     <g id="line2d_5">
      <defs>
       <path id="m3bd4973ae3" d="M 0 0 
L 0 2 
" style="stroke: #000000; stroke-width: 0.6"/>
      </defs>
      <g>
       <use xlink:href="#m3bd4973ae3" x="47.087968" y="291.28" style="stroke: #000000; stroke-width: 0.6"/>
      </g>
     </g>
    </g>
    <g id="xtick_4">
     <g id="line2d_6">
      <g>
       <use xlink:href="#m3bd4973ae3" x="59.914133" y="291.28" style="stroke: #000000; stroke-width: 0.6"/>
      </g>
     </g>
    </g>
    <g id="xtick_5">
     <g id="line2d_7">
      <g>
       <use xlink:href="#m3bd4973ae3" x="69.014442" y="291.28" style="stroke: #000000; stroke-width: 0.6"/>
      </g>
     </g>
    </g>
    <g id="xtick_6">
     <g id="line2d_8">
      <g>
       <use xlink:href="#m3bd4973ae3" x="76.07319" y="291.28" style="stroke: #000000; stroke-width: 0.6"/>
      </g>
     </g>
    </g>
    <g id="xtick_7">
     <g id="line2d_9">
      <g>
       <use xlink:href="#m3bd4973ae3" x="81.840607" y="291.28" style="stroke: #000000; stroke-width: 0.6"/>
      </g>
     </g>
    </g>
    <g id="xtick_8">
     <g id="line2d_10">
      <g>
       <use xlink:href="#m3bd4973ae3" x="86.716888" y="291.28" style="stroke: #000000; stroke-width: 0.6"/>
      </g>
     </g>
    </g>
    <g id="xtick_9">
     <g id="line2d_11">
      <g>
       <use xlink:href="#m3bd4973ae3" x="90.940915" y="291.28" style="stroke: #000000; stroke-width: 0.6"/>
      </g>
     </g>
    </g>
    <g id="xtick_10">
     <g id="line2d_12">
      <g>
       <use xlink:href="#m3bd4973ae3" x="94.666771" y="291.28" style="stroke: #000000; stroke-width: 0.6"/>
      </g>
     </g>
    </g>
    <g id="xtick_11">
     <g id="line2d_13">
      <g>
       <use xlink:href="#m3bd4973ae3" x="119.926137" y="291.28" style="stroke: #000000; stroke-width: 0.6"/>
      </g>
     </g>
    </g>
    <g id="xtick_12">
     <g id="line2d_14">
      <g>
       <use xlink:href="#m3bd4973ae3" x="132.752302" y="291.28" style="stroke: #000000; stroke-width: 0.6"/>
      </g>
     </g>
    </g>
    <g id="xtick_13">
     <g id="line2d_15">
      <g>
       <use xlink:href="#m3bd4973ae3" x="141.85261" y="291.28" style="stroke: #000000; stroke-width: 0.6"/>
      </g>
     </g>
    </g>
    <g id="xtick_14">
     <g id="line2d_16">
      <g>
       <use xlink:href="#m3bd4973ae3" x="148.911358" y="291.28" style="stroke: #000000; stroke-width: 0.6"/>
      </g>
     </g>
    </g>
    <g id="xtick_15">
     <g id="line2d_17">
      <g>
       <use xlink:href="#m3bd4973ae3" x="154.678775" y="291.28" style="stroke: #000000; stroke-width: 0.6"/>
      </g>
     </g>
    </g>
    <g id="xtick_16">
     <g id="line2d_18">
      <g>
       <use xlink:href="#m3bd4973ae3" x="159.555057" y="291.28" style="stroke: #000000; stroke-width: 0.6"/>
      </g>
     </g>
    </g>
    <g id="xtick_17">
     <g id="line2d_19">
      <g>
       <use xlink:href="#m3bd4973ae3" x="163.779084" y="291.28" style="stroke: #000000; stroke-width: 0.6"/>
      </g>
     </g>
    </g>
    <g id="xtick_18">
     <g id="line2d_20">
      <g>
       <use xlink:href="#m3bd4973ae3" x="167.50494" y="291.28" style="stroke: #000000; stroke-width: 0.6"/>
      </g>
     </g>
    </g>
    <g id="xtick_19">
     <g id="line2d_21">
      <g>
       <use xlink:href="#m3bd4973ae3" x="192.764305" y="291.28" style="stroke: #000000; stroke-width: 0.6"/>
      </g>
     </g>
    </g>
    <g id="xtick_20">
     <g id="line2d_22">
      <g>
       <use xlink:href="#m3bd4973ae3" x="205.59047" y="291.28" style="stroke: #000000; stroke-width: 0.6"/>
      </g>
     </g>
    </g>
    <g id="xtick_21">
     <g id="line2d_23">
      <g>
       <use xlink:href="#m3bd4973ae3" x="214.690779" y="291.28" style="stroke: #000000; stroke-width: 0.6"/>
      </g>
     </g>
    </g>
    <g id="xtick_22">
     <g id="line2d_24">
      <g>
       <use xlink:href="#m3bd4973ae3" x="221.749526" y="291.28" style="stroke: #000000; stroke-width: 0.6"/>
      </g>
     </g>
    </g>
    <g id="xtick_23">
     <g id="line2d_25">
      <g>
       <use xlink:href="#m3bd4973ae3" x="227.516943" y="291.28" style="stroke: #000000; stroke-width: 0.6"/>
      </g>
     </g>
    </g>
    <g id="xtick_24">
     <g id="line2d_26">
      <g>
       <use xlink:href="#m3bd4973ae3" x="232.393225" y="291.28" style="stroke: #000000; stroke-width: 0.6"/>
      </g>
     </g>
    </g>
    <g id="xtick_25">
     <g id="line2d_27">
      <g>
       <use xlink:href="#m3bd4973ae3" x="236.617252" y="291.28" style="stroke: #000000; stroke-width: 0.6"/>
      </g>
     </g>
    </g>
    <g id="xtick_26">
     <g id="line2d_28">
      <g>
       <use xlink:href="#m3bd4973ae3" x="240.343108" y="291.28" style="stroke: #000000; stroke-width: 0.6"/>
      </g>
     </g>
    </g>
    <g id="xtick_27">
     <g id="line2d_29">
      <g>
       <use xlink:href="#m3bd4973ae3" x="265.602474" y="291.28" style="stroke: #000000; stroke-width: 0.6"/>
      </g>
     </g>
    </g>
    <g id="xtick_28">
     <g id="line2d_30">
      <g>
       <use xlink:href="#m3bd4973ae3" x="278.428638" y="291.28" style="stroke: #000000; stroke-width: 0.6"/>
      </g>
     </g>
    </g>
    <g id="xtick_29">
     <g id="line2d_31">
      <g>
       <use xlink:href="#m3bd4973ae3" x="287.528947" y="291.28" style="stroke: #000000; stroke-width: 0.6"/>
      </g>
     </g>
    </g>
    <g id="xtick_30">
     <g id="line2d_32">
      <g>
       <use xlink:href="#m3bd4973ae3" x="294.587695" y="291.28" style="stroke: #000000; stroke-width: 0.6"/>
      </g>
     </g>
    </g>
    <g id="xtick_31">
     <g id="line2d_33">
      <g>
       <use xlink:href="#m3bd4973ae3" x="300.355112" y="291.28" style="stroke: #000000; stroke-width: 0.6"/>
      </g>
     </g>
    </g>
    <g id="xtick_32">
     <g id="line2d_34">
      <g>
       <use xlink:href="#m3bd4973ae3" x="305.231393" y="291.28" style="stroke: #000000; stroke-width: 0.6"/>
      </g>
     </g>
    </g>
    <g id="xtick_33">
     <g id="line2d_35">
      <g>
       <use xlink:href="#m3bd4973ae3" x="309.455421" y="291.28" style="stroke: #000000; stroke-width: 0.6"/>
      </g>
     </g>
    </g>
    <g id="xtick_34">
     <g id="line2d_36">
      <g>
       <use xlink:href="#m3bd4973ae3" x="313.181277" y="291.28" style="stroke: #000000; stroke-width: 0.6"/>
      </g>
     </g>
    </g>
    <g id="xtick_35">
     <g id="line2d_37">
      <g>
       <use xlink:href="#m3bd4973ae3" x="338.440642" y="291.28" style="stroke: #000000; stroke-width: 0.6"/>
      </g>
     </g>
    </g>
    <g id="xtick_36">
     <g id="line2d_38">
      <g>
       <use xlink:href="#m3bd4973ae3" x="351.266807" y="291.28" style="stroke: #000000; stroke-width: 0.6"/>
      </g>
     </g>
    </g>
    <g id="xtick_37">
     <g id="line2d_39">
      <g>
       <use xlink:href="#m3bd4973ae3" x="360.367115" y="291.28" style="stroke: #000000; stroke-width: 0.6"/>
      </g>
     </g>
    </g>
    <g id="xtick_38">
     <g id="line2d_40">
      <g>
       <use xlink:href="#m3bd4973ae3" x="367.425863" y="291.28" style="stroke: #000000; stroke-width: 0.6"/>
      </g>
     </g>
    </g>
    <g id="xtick_39">
     <g id="line2d_41">
      <g>
       <use xlink:href="#m3bd4973ae3" x="373.19328" y="291.28" style="stroke: #000000; stroke-width: 0.6"/>
      </g>
     </g>
    </g>
    <g id="xtick_40">
     <g id="line2d_42">
      <g>
       <use xlink:href="#m3bd4973ae3" x="378.069562" y="291.28" style="stroke: #000000; stroke-width: 0.6"/>
      </g>
     </g>
    </g>
    <g id="xtick_41">
     <g id="line2d_43">
      <g>
       <use xlink:href="#m3bd4973ae3" x="382.293589" y="291.28" style="stroke: #000000; stroke-width: 0.6"/>
      </g>
     </g>
    </g>
    <g id="xtick_42">
     <g id="line2d_44">
      <g>
       <use xlink:href="#m3bd4973ae3" x="386.019445" y="291.28" style="stroke: #000000; stroke-width: 0.6"/>
      </g>
     </g>
    </g>
    <g id="xtick_43">
     <g id="line2d_45">
      <g>
       <use xlink:href="#m3bd4973ae3" x="411.27881" y="291.28" style="stroke: #000000; stroke-width: 0.6"/>
      </g>
     </g>
    </g>
    <g id="xtick_44">
     <g id="line2d_46">
      <g>
       <use xlink:href="#m3bd4973ae3" x="424.104975" y="291.28" style="stroke: #000000; stroke-width: 0.6"/>
      </g>
     </g>
    </g>
    <g id="xtick_45">
     <g id="line2d_47">
      <g>
       <use xlink:href="#m3bd4973ae3" x="433.205284" y="291.28" style="stroke: #000000; stroke-width: 0.6"/>
      </g>
     </g>
    </g>
    <g id="xtick_46">
     <g id="line2d_48">
      <g>
       <use xlink:href="#m3bd4973ae3" x="440.264032" y="291.28" style="stroke: #000000; stroke-width: 0.6"/>
      </g>
     </g>
    </g>
    <g id="xtick_47">
     <g id="line2d_49">
      <g>
       <use xlink:href="#m3bd4973ae3" x="446.031449" y="291.28" style="stroke: #000000; stroke-width: 0.6"/>
      </g>
     </g>
    </g>
    <g id="xtick_48">
     <g id="line2d_50">
      <g>
       <use xlink:href="#m3bd4973ae3" x="450.90773" y="291.28" style="stroke: #000000; stroke-width: 0.6"/>
      </g>
     </g>
    </g>
    <g id="text_3">
     <!-- log10 of FEvals ratio -->
     <g transform="translate(141.371312 336.833125) scale(0.2 -0.2)">
      <defs>
       <path id="DejaVuSans-6c" d="M 603 4863 
L 1178 4863 
L 1178 0 
L 603 0 
L 603 4863 
z
" transform="scale(0.015625)"/>
       <path id="DejaVuSans-6f" d="M 1959 3097 
Q 1497 3097 1228 2736 
Q 959 2375 959 1747 
Q 959 1119 1226 758 
Q 1494 397 1959 397 
Q 2419 397 2687 759 
Q 2956 1122 2956 1747 
Q 2956 2369 2687 2733 
Q 2419 3097 1959 3097 
z
M 1959 3584 
Q 2709 3584 3137 3096 
Q 3566 2609 3566 1747 
Q 3566 888 3137 398 
Q 2709 -91 1959 -91 
Q 1206 -91 779 398 
Q 353 888 353 1747 
Q 353 2609 779 3096 
Q 1206 3584 1959 3584 
z
" transform="scale(0.015625)"/>
       <path id="DejaVuSans-67" d="M 2906 1791 
Q 2906 2416 2648 2759 
Q 2391 3103 1925 3103 
Q 1463 3103 1205 2759 
Q 947 2416 947 1791 
Q 947 1169 1205 825 
Q 1463 481 1925 481 
Q 2391 481 2648 825 
Q 2906 1169 2906 1791 
z
M 3481 434 
Q 3481 -459 3084 -895 
Q 2688 -1331 1869 -1331 
Q 1566 -1331 1297 -1286 
Q 1028 -1241 775 -1147 
L 775 -588 
Q 1028 -725 1275 -790 
Q 1522 -856 1778 -856 
Q 2344 -856 2625 -561 
Q 2906 -266 2906 331 
L 2906 616 
Q 2728 306 2450 153 
Q 2172 0 1784 0 
Q 1141 0 747 490 
Q 353 981 353 1791 
Q 353 2603 747 3093 
Q 1141 3584 1784 3584 
Q 2172 3584 2450 3431 
Q 2728 3278 2906 2969 
L 2906 3500 
L 3481 3500 
L 3481 434 
z
" transform="scale(0.015625)"/>
       <path id="DejaVuSans-30" d="M 2034 4250 
Q 1547 4250 1301 3770 
Q 1056 3291 1056 2328 
Q 1056 1369 1301 889 
Q 1547 409 2034 409 
Q 2525 409 2770 889 
Q 3016 1369 3016 2328 
Q 3016 3291 2770 3770 
Q 2525 4250 2034 4250 
z
M 2034 4750 
Q 2819 4750 3233 4129 
Q 3647 3509 3647 2328 
Q 3647 1150 3233 529 
Q 2819 -91 2034 -91 
Q 1250 -91 836 529 
Q 422 1150 422 2328 
Q 422 3509 836 4129 
Q 1250 4750 2034 4750 
z
" transform="scale(0.015625)"/>
       <path id="DejaVuSans-20" transform="scale(0.015625)"/>
       <path id="DejaVuSans-66" d="M 2375 4863 
L 2375 4384 
L 1825 4384 
Q 1516 4384 1395 4259 
Q 1275 4134 1275 3809 
L 1275 3500 
L 2222 3500 
L 2222 3053 
L 1275 3053 
L 1275 0 
L 697 0 
L 697 3053 
L 147 3053 
L 147 3500 
L 697 3500 
L 697 3744 
Q 697 4328 969 4595 
Q 1241 4863 1831 4863 
L 2375 4863 
z
" transform="scale(0.015625)"/>
       <path id="DejaVuSans-46" d="M 628 4666 
L 3309 4666 
L 3309 4134 
L 1259 4134 
L 1259 2759 
L 3109 2759 
L 3109 2228 
L 1259 2228 
L 1259 0 
L 628 0 
L 628 4666 
z
" transform="scale(0.015625)"/>
       <path id="DejaVuSans-45" d="M 628 4666 
L 3578 4666 
L 3578 4134 
L 1259 4134 
L 1259 2753 
L 3481 2753 
L 3481 2222 
L 1259 2222 
L 1259 531 
L 3634 531 
L 3634 0 
L 628 0 
L 628 4666 
z
" transform="scale(0.015625)"/>
       <path id="DejaVuSans-76" d="M 191 3500 
L 800 3500 
L 1894 563 
L 2988 3500 
L 3597 3500 
L 2284 0 
L 1503 0 
L 191 3500 
z
" transform="scale(0.015625)"/>
       <path id="DejaVuSans-61" d="M 2194 1759 
Q 1497 1759 1228 1600 
Q 959 1441 959 1056 
Q 959 750 1161 570 
Q 1363 391 1709 391 
Q 2188 391 2477 730 
Q 2766 1069 2766 1631 
L 2766 1759 
L 2194 1759 
z
M 3341 1997 
L 3341 0 
L 2766 0 
L 2766 531 
Q 2569 213 2275 61 
Q 1981 -91 1556 -91 
Q 1019 -91 701 211 
Q 384 513 384 1019 
Q 384 1609 779 1909 
Q 1175 2209 1959 2209 
L 2766 2209 
L 2766 2266 
Q 2766 2663 2505 2880 
Q 2244 3097 1772 3097 
Q 1472 3097 1187 3025 
Q 903 2953 641 2809 
L 641 3341 
Q 956 3463 1253 3523 
Q 1550 3584 1831 3584 
Q 2591 3584 2966 3190 
Q 3341 2797 3341 1997 
z
" transform="scale(0.015625)"/>
       <path id="DejaVuSans-73" d="M 2834 3397 
L 2834 2853 
Q 2591 2978 2328 3040 
Q 2066 3103 1784 3103 
Q 1356 3103 1142 2972 
Q 928 2841 928 2578 
Q 928 2378 1081 2264 
Q 1234 2150 1697 2047 
L 1894 2003 
Q 2506 1872 2764 1633 
Q 3022 1394 3022 966 
Q 3022 478 2636 193 
Q 2250 -91 1575 -91 
Q 1294 -91 989 -36 
Q 684 19 347 128 
L 347 722 
Q 666 556 975 473 
Q 1284 391 1588 391 
Q 1994 391 2212 530 
Q 2431 669 2431 922 
Q 2431 1156 2273 1281 
Q 2116 1406 1581 1522 
L 1381 1569 
Q 847 1681 609 1914 
Q 372 2147 372 2553 
Q 372 3047 722 3315 
Q 1072 3584 1716 3584 
Q 2034 3584 2315 3537 
Q 2597 3491 2834 3397 
z
" transform="scale(0.015625)"/>
       <path id="DejaVuSans-72" d="M 2631 2963 
Q 2534 3019 2420 3045 
Q 2306 3072 2169 3072 
Q 1681 3072 1420 2755 
Q 1159 2438 1159 1844 
L 1159 0 
L 581 0 
L 581 3500 
L 1159 3500 
L 1159 2956 
Q 1341 3275 1631 3429 
Q 1922 3584 2338 3584 
Q 2397 3584 2469 3576 
Q 2541 3569 2628 3553 
L 2631 2963 
z
" transform="scale(0.015625)"/>
       <path id="DejaVuSans-74" d="M 1172 4494 
L 1172 3500 
L 2356 3500 
L 2356 3053 
L 1172 3053 
L 1172 1153 
Q 1172 725 1289 603 
Q 1406 481 1766 481 
L 2356 481 
L 2356 0 
L 1766 0 
Q 1100 0 847 248 
Q 594 497 594 1153 
L 594 3053 
L 172 3053 
L 172 3500 
L 594 3500 
L 594 4494 
L 1172 4494 
z
" transform="scale(0.015625)"/>
       <path id="DejaVuSans-69" d="M 603 3500 
L 1178 3500 
L 1178 0 
L 603 0 
L 603 3500 
z
M 603 4863 
L 1178 4863 
L 1178 4134 
L 603 4134 
L 603 4863 
z
" transform="scale(0.015625)"/>
      </defs>
      <use xlink:href="#DejaVuSans-6c"/>
      <use xlink:href="#DejaVuSans-6f" x="27.783203"/>
      <use xlink:href="#DejaVuSans-67" x="88.964844"/>
      <use xlink:href="#DejaVuSans-31" x="152.441406"/>
      <use xlink:href="#DejaVuSans-30" x="216.064453"/>
      <use xlink:href="#DejaVuSans-20" x="279.6875"/>
      <use xlink:href="#DejaVuSans-6f" x="311.474609"/>
      <use xlink:href="#DejaVuSans-66" x="372.65625"/>
      <use xlink:href="#DejaVuSans-20" x="407.861328"/>
      <use xlink:href="#DejaVuSans-46" x="439.648438"/>
      <use xlink:href="#DejaVuSans-45" x="497.167969"/>
      <use xlink:href="#DejaVuSans-76" x="560.351562"/>
      <use xlink:href="#DejaVuSans-61" x="619.53125"/>
      <use xlink:href="#DejaVuSans-6c" x="680.810547"/>
      <use xlink:href="#DejaVuSans-73" x="708.59375"/>
      <use xlink:href="#DejaVuSans-20" x="760.693359"/>
      <use xlink:href="#DejaVuSans-72" x="792.480469"/>
      <use xlink:href="#DejaVuSans-61" x="833.59375"/>
      <use xlink:href="#DejaVuSans-74" x="894.873047"/>
      <use xlink:href="#DejaVuSans-69" x="934.082031"/>
      <use xlink:href="#DejaVuSans-6f" x="961.865234"/>
     </g>
    </g>
   </g>
   <g id="matplotlib.axis_2">
    <g id="ytick_1">
     <g id="line2d_51">
      <path d="M 34.16 288.453725 
L 453.192 288.453725 
" clip-path="url(#p852ccecad4)" style="fill: none; stroke: #b0b0b0; stroke-width: 0.8; stroke-linecap: square"/>
     </g>
     <g id="line2d_52">
      <defs>
       <path id="m74db68cab5" d="M 0 0 
L -3.5 0 
" style="stroke: #000000; stroke-width: 0.8"/>
      </defs>
      <g>
       <use xlink:href="#m74db68cab5" x="34.16" y="288.453725" style="stroke: #000000; stroke-width: 0.8"/>
      </g>
     </g>
    </g>
    <g id="ytick_2">
     <g id="line2d_53">
      <path d="M 34.16 217.796863 
L 453.192 217.796863 
" clip-path="url(#p852ccecad4)" style="fill: none; stroke: #b0b0b0; stroke-width: 0.8; stroke-linecap: square"/>
     </g>
     <g id="line2d_54">
      <g>
       <use xlink:href="#m74db68cab5" x="34.16" y="217.796863" style="stroke: #000000; stroke-width: 0.8"/>
      </g>
     </g>
    </g>
    <g id="ytick_3">
     <g id="line2d_55">
      <path d="M 34.16 147.14 
L 453.192 147.14 
" clip-path="url(#p852ccecad4)" style="fill: none; stroke: #b0b0b0; stroke-width: 0.8; stroke-linecap: square"/>
     </g>
     <g id="line2d_56">
      <g>
       <use xlink:href="#m74db68cab5" x="34.16" y="147.14" style="stroke: #000000; stroke-width: 0.8"/>
      </g>
     </g>
    </g>
    <g id="ytick_4">
     <g id="line2d_57">
      <path d="M 34.16 76.483137 
L 453.192 76.483137 
" clip-path="url(#p852ccecad4)" style="fill: none; stroke: #b0b0b0; stroke-width: 0.8; stroke-linecap: square"/>
     </g>
     <g id="line2d_58">
      <g>
       <use xlink:href="#m74db68cab5" x="34.16" y="76.483137" style="stroke: #000000; stroke-width: 0.8"/>
      </g>
     </g>
    </g>
    <g id="ytick_5">
     <g id="line2d_59">
      <path d="M 34.16 5.826275 
L 453.192 5.826275 
" clip-path="url(#p852ccecad4)" style="fill: none; stroke: #b0b0b0; stroke-width: 0.8; stroke-linecap: square"/>
     </g>
     <g id="line2d_60">
      <g>
       <use xlink:href="#m74db68cab5" x="34.16" y="5.826275" style="stroke: #000000; stroke-width: 0.8"/>
      </g>
     </g>
    </g>
    <g id="text_4">
     <!-- proportion of trials -->
     <g transform="translate(19.000625 240.14625) rotate(-90) scale(0.2 -0.2)">
      <defs>
       <path id="DejaVuSans-70" d="M 1159 525 
L 1159 -1331 
L 581 -1331 
L 581 3500 
L 1159 3500 
L 1159 2969 
Q 1341 3281 1617 3432 
Q 1894 3584 2278 3584 
Q 2916 3584 3314 3078 
Q 3713 2572 3713 1747 
Q 3713 922 3314 415 
Q 2916 -91 2278 -91 
Q 1894 -91 1617 61 
Q 1341 213 1159 525 
z
M 3116 1747 
Q 3116 2381 2855 2742 
Q 2594 3103 2138 3103 
Q 1681 3103 1420 2742 
Q 1159 2381 1159 1747 
Q 1159 1113 1420 752 
Q 1681 391 2138 391 
Q 2594 391 2855 752 
Q 3116 1113 3116 1747 
z
" transform="scale(0.015625)"/>
       <path id="DejaVuSans-6e" d="M 3513 2113 
L 3513 0 
L 2938 0 
L 2938 2094 
Q 2938 2591 2744 2837 
Q 2550 3084 2163 3084 
Q 1697 3084 1428 2787 
Q 1159 2491 1159 1978 
L 1159 0 
L 581 0 
L 581 3500 
L 1159 3500 
L 1159 2956 
Q 1366 3272 1645 3428 
Q 1925 3584 2291 3584 
Q 2894 3584 3203 3211 
Q 3513 2838 3513 2113 
z
" transform="scale(0.015625)"/>
      </defs>
      <use xlink:href="#DejaVuSans-70"/>
      <use xlink:href="#DejaVuSans-72" x="63.476562"/>
      <use xlink:href="#DejaVuSans-6f" x="102.339844"/>
      <use xlink:href="#DejaVuSans-70" x="163.521484"/>
      <use xlink:href="#DejaVuSans-6f" x="226.998047"/>
      <use xlink:href="#DejaVuSans-72" x="288.179688"/>
      <use xlink:href="#DejaVuSans-74" x="329.292969"/>
      <use xlink:href="#DejaVuSans-69" x="368.501953"/>
      <use xlink:href="#DejaVuSans-6f" x="396.285156"/>
      <use xlink:href="#DejaVuSans-6e" x="457.466797"/>
      <use xlink:href="#DejaVuSans-20" x="520.845703"/>
      <use xlink:href="#DejaVuSans-6f" x="552.632812"/>
      <use xlink:href="#DejaVuSans-66" x="613.814453"/>
      <use xlink:href="#DejaVuSans-20" x="649.019531"/>
      <use xlink:href="#DejaVuSans-74" x="680.806641"/>
      <use xlink:href="#DejaVuSans-72" x="720.015625"/>
      <use xlink:href="#DejaVuSans-69" x="761.128906"/>
      <use xlink:href="#DejaVuSans-61" x="788.912109"/>
      <use xlink:href="#DejaVuSans-6c" x="850.191406"/>
      <use xlink:href="#DejaVuSans-73" x="877.974609"/>
     </g>
    </g>
   </g>
   <g id="line2d_61">
    <path d="M 34.16 251.934448 
L 52.555262 251.934448 
L 52.555262 251.405183 
L 55.451244 251.405183 
L 55.451244 250.875918 
L 60.624155 250.875918 
L 60.624155 250.346653 
L 62.823488 250.346653 
L 62.823488 249.817389 
L 69.610699 249.817389 
L 69.610699 249.288124 
L 72.506681 249.288124 
L 72.506681 248.758859 
L 74.690997 248.758859 
L 74.690997 248.229594 
L 77.679592 248.229594 
L 77.679592 247.700329 
L 79.378007 247.700329 
L 79.378007 247.171064 
L 79.878925 247.171064 
L 79.878925 246.641799 
L 87.665744 246.641799 
L 87.665744 246.112534 
L 90.561725 246.112534 
L 90.561725 245.583269 
L 91.746434 245.583269 
L 91.746434 245.054005 
L 95.734637 245.054005 
L 95.734637 244.52474 
L 96.433444 244.52474 
L 96.433444 243.995475 
L 97.933969 243.995475 
L 97.933969 243.46621 
L 109.801479 243.46621 
L 109.801479 242.936945 
L 111.449911 242.936945 
L 111.449911 242.40768 
L 113.269312 242.40768 
L 113.269312 241.878415 
L 114.070196 241.878415 
L 114.070196 241.34915 
L 114.345893 241.34915 
L 114.345893 240.819885 
L 114.488488 240.819885 
L 114.488488 240.290621 
L 116.165294 240.290621 
L 116.165294 239.761356 
L 116.966178 239.761356 
L 116.966178 239.232091 
L 119.518804 239.232091 
L 119.518804 238.702826 
L 121.338205 238.702826 
L 121.338205 238.173561 
L 121.718137 238.173561 
L 121.718137 237.644296 
L 122.139089 237.644296 
L 122.139089 237.115031 
L 123.537538 237.115031 
L 123.537538 236.585766 
L 124.338422 236.585766 
L 124.338422 236.056501 
L 133.585646 236.056501 
L 133.585646 235.527237 
L 135.405047 235.527237 
L 135.405047 234.997972 
L 136.205931 234.997972 
L 136.205931 234.468707 
L 138.272656 234.468707 
L 138.272656 233.939442 
L 140.092057 233.939442 
L 140.092057 233.410177 
L 140.892941 233.410177 
L 140.892941 232.880912 
L 171.646727 232.880912 
L 171.646727 232.351647 
L 177.424442 232.351647 
L 177.424442 231.822382 
L 177.931591 231.822382 
L 177.931591 231.293117 
L 180.094916 231.293117 
L 180.094916 230.763853 
L 180.827573 230.763853 
L 180.827573 230.234588 
L 186.000484 230.234588 
L 186.000484 229.705323 
L 188.199817 229.705323 
L 188.199817 229.176058 
L 191.008273 229.176058 
L 191.008273 228.646793 
L 192.96796 228.646793 
L 192.96796 228.117528 
L 194.47988 228.117528 
L 194.47988 227.588263 
L 200.067326 227.588263 
L 200.067326 227.058998 
L 204.754336 227.058998 
L 204.754336 226.529733 
L 210.023398 226.529733 
L 210.023398 226.000469 
L 212.534924 226.000469 
L 212.534924 225.471204 
L 219.315877 225.471204 
L 219.315877 224.941939 
L 219.570609 224.941939 
L 219.570609 224.412674 
L 219.690162 224.412674 
L 219.690162 223.883409 
L 221.108216 223.883409 
L 221.108216 223.354144 
L 221.286432 223.354144 
L 221.286432 222.824879 
L 221.858795 222.824879 
L 221.858795 222.295614 
L 222.394394 222.295614 
L 222.394394 221.766349 
L 223.141398 221.766349 
L 223.141398 221.237085 
L 223.433335 221.237085 
L 223.433335 220.70782 
L 224.186733 220.70782 
L 224.186733 220.178555 
L 224.364948 220.178555 
L 224.400343 219.120025 
L 224.670066 219.120025 
L 224.694762 218.061495 
L 224.937312 218.061495 
L 224.937312 217.53223 
L 226.219915 217.53223 
L 226.219915 217.002965 
L 226.462405 217.002965 
L 226.511852 215.944436 
L 226.594301 215.944436 
L 226.640621 214.885906 
L 226.853285 214.885906 
L 226.853285 214.356641 
L 227.212984 214.356641 
L 227.296325 213.298111 
L 227.545327 213.298111 
L 227.545327 212.768846 
L 227.773279 212.768846 
L 227.879714 211.710317 
L 228.078442 211.710317 
L 228.078442 211.181052 
L 228.38664 211.181052 
L 228.495588 210.122522 
L 228.522397 210.122522 
L 228.564856 209.063992 
L 228.73153 209.063992 
L 228.787524 208.005462 
L 229.105621 208.005462 
L 229.137219 206.946933 
L 229.302002 206.946933 
L 229.337666 205.888403 
L 229.515882 205.888403 
L 229.515882 205.359138 
L 229.931802 205.359138 
L 229.931802 204.829873 
L 230.048952 204.829873 
L 230.088245 203.771343 
L 230.419822 203.771343 
L 230.523869 202.712813 
L 230.645597 202.712813 
L 230.711759 201.125019 
L 230.95823 201.125019 
L 230.95823 200.595754 
L 231.274449 200.595754 
L 231.370848 199.537224 
L 231.600913 199.537224 
L 231.662785 198.478694 
L 231.872956 198.478694 
L 231.973186 197.420165 
L 232.08678 197.420165 
L 232.08678 196.8909 
L 232.197984 196.8909 
L 232.207474 195.83237 
L 232.437936 195.83237 
L 232.516404 194.244575 
L 232.557052 194.244575 
L 232.616152 193.186045 
L 232.848989 193.186045 
L 232.924212 192.127516 
L 233.154124 192.127516 
L 233.233903 190.539721 
L 233.77653 190.539721 
L 233.876586 189.481191 
L 234.110416 189.481191 
L 234.131709 188.422661 
L 234.308743 188.422661 
L 234.308743 187.893396 
L 234.46948 187.893396 
L 234.486958 186.305602 
L 234.668569 186.305602 
L 234.763055 185.247072 
L 234.946463 185.247072 
L 234.982762 183.659277 
L 235.059322 183.659277 
L 235.158137 181.542218 
L 235.365665 181.542218 
L 235.365665 181.012953 
L 235.697042 181.012953 
L 235.800821 179.954423 
L 236.024483 179.954423 
L 236.109163 178.895893 
L 236.261819 178.895893 
L 236.341925 176.778834 
L 236.440035 176.778834 
L 236.440035 176.249569 
L 236.626047 176.249569 
L 236.633862 175.191039 
L 236.745599 175.191039 
L 236.751847 174.132509 
L 236.936119 174.132509 
L 237.012398 172.544715 
L 237.158004 172.544715 
L 237.227145 171.486185 
L 237.271582 171.486185 
L 237.370895 169.369125 
L 237.825286 169.369125 
L 237.908583 167.781331 
L 237.93805 167.781331 
L 237.93805 167.252066 
L 238.138493 167.252066 
L 238.183005 166.193536 
L 238.295001 166.193536 
L 238.369694 165.135006 
L 238.533009 165.135006 
L 238.586938 164.076476 
L 238.939376 164.076476 
L 238.939376 163.547212 
L 239.15138 163.547212 
L 239.209434 161.959417 
L 239.483123 161.959417 
L 239.570228 160.900887 
L 239.832101 160.900887 
L 239.852117 159.313092 
L 240.053812 159.313092 
L 240.155673 157.725298 
L 240.691532 157.725298 
L 240.74455 156.666768 
L 240.903802 156.666768 
L 240.903802 156.137503 
L 241.08024 156.137503 
L 241.08024 155.608238 
L 241.288609 155.608238 
L 241.288609 155.078973 
L 241.717961 155.078973 
L 241.722924 154.020444 
L 241.928372 154.020444 
L 242.006888 152.961914 
L 242.224719 152.961914 
L 242.224719 152.432649 
L 242.355006 152.432649 
L 242.360644 151.374119 
L 242.903073 151.374119 
L 242.903073 150.844854 
L 243.033317 150.844854 
L 243.033317 150.315589 
L 243.179475 150.315589 
L 243.202676 149.25706 
L 243.628751 149.25706 
L 243.720711 147.669265 
L 243.898927 147.669265 
L 243.929502 146.08147 
L 244.47129 146.08147 
L 244.572185 145.02294 
L 244.782674 145.02294 
L 244.782674 144.493676 
L 245.005012 144.493676 
L 245.10371 142.905881 
L 245.42109 142.905881 
L 245.42109 142.376616 
L 245.599306 142.376616 
L 245.599306 141.847351 
L 245.711203 141.847351 
L 245.753894 140.788821 
L 246.04583 140.788821 
L 246.054736 139.730292 
L 246.161058 139.730292 
L 246.171669 138.671762 
L 246.536078 138.671762 
L 246.575013 137.613232 
L 246.753229 137.613232 
L 246.817883 136.025437 
L 247.026559 136.025437 
L 247.026559 135.496172 
L 247.204345 135.496172 
L 247.307258 133.908378 
L 247.325592 133.908378 
L 247.325592 133.379113 
L 247.454272 133.379113 
L 247.454272 132.849848 
L 247.704739 132.849848 
L 247.746209 131.791318 
L 247.922744 131.791318 
L 247.922744 131.262053 
L 248.608195 131.262053 
L 248.608195 130.732788 
L 248.900132 130.732788 
L 249.007636 129.674259 
L 249.155006 129.674259 
L 249.155006 129.144994 
L 249.46578 129.144994 
L 249.497078 128.086464 
L 249.675294 128.086464 
L 249.675294 127.557199 
L 250.161559 127.557199 
L 250.247657 126.498669 
L 250.492209 126.498669 
L 250.492209 125.969404 
L 251.025813 125.969404 
L 251.134892 124.910875 
L 251.166159 124.910875 
L 251.223088 123.852345 
L 251.437737 123.852345 
L 251.53026 122.793815 
L 251.663533 122.793815 
L 251.663533 122.26455 
L 251.822197 122.26455 
L 251.862609 121.20602 
L 251.979041 121.20602 
L 251.979041 120.676756 
L 252.192588 120.676756 
L 252.192588 120.147491 
L 252.320082 120.147491 
L 252.320082 119.618226 
L 252.835271 119.618226 
L 252.835271 119.088961 
L 252.978889 119.088961 
L 253.083624 118.030431 
L 253.138075 118.030431 
L 253.138075 117.501166 
L 253.346511 117.501166 
L 253.346511 116.971901 
L 253.682011 116.971901 
L 253.682011 116.442636 
L 253.875074 116.442636 
L 253.875074 115.913372 
L 253.989194 115.913372 
L 253.989194 115.384107 
L 254.178373 115.384107 
L 254.222515 114.325577 
L 254.482894 114.325577 
L 254.485451 113.267047 
L 254.681091 113.267047 
L 254.681091 112.737782 
L 254.800643 112.737782 
L 254.800643 112.208517 
L 255.242147 112.208517 
L 255.242147 111.679252 
L 256.124747 111.679252 
L 256.18583 110.620723 
L 256.268576 110.620723 
L 256.268576 110.091458 
L 256.911259 110.091458 
L 256.911259 109.562193 
L 257.339753 109.562193 
L 257.339753 109.032928 
L 257.731239 109.032928 
L 257.731239 108.503663 
L 258.909525 108.503663 
L 258.909525 107.974398 
L 259.071854 107.974398 
L 259.071854 107.445133 
L 260.261818 107.445133 
L 260.261818 106.915868 
L 260.437781 106.915868 
L 260.437781 106.386604 
L 262.13816 106.386604 
L 262.13816 105.857339 
L 263.292083 105.857339 
L 263.292083 105.328074 
L 263.758864 105.328074 
L 263.758864 104.798809 
L 264.216102 104.798809 
L 264.216102 104.269544 
L 266.045883 104.269544 
L 266.045883 103.740279 
L 266.214148 103.740279 
L 266.214148 103.211014 
L 270.732892 103.211014 
L 270.732892 102.681749 
L 278.465259 102.681749 
L 278.465259 102.152484 
L 278.584811 102.152484 
L 278.584811 101.62322 
L 280.28466 101.62322 
L 280.28466 101.093955 
L 280.404212 101.093955 
L 280.404212 100.56469 
L 281.085543 100.56469 
L 281.085543 100.035425 
L 281.205096 100.035425 
L 281.205096 99.50616 
L 288.00027 99.50616 
L 288.00027 98.976895 
L 289.819671 98.976895 
L 289.819671 98.44763 
L 290.620555 98.44763 
L 290.620555 97.918365 
L 302.800771 97.918365 
L 302.800771 97.3891 
L 318.344289 97.3891 
L 318.344289 96.859835 
L 329.915919 96.859835 
L 329.915919 96.330571 
L 332.994436 96.330571 
L 332.994436 95.801306 
L 335.270108 95.801306 
L 335.270108 95.272041 
L 337.194343 95.272041 
L 337.194343 94.742776 
L 338.145369 94.742776 
L 338.145369 94.213511 
L 339.331573 94.213511 
L 339.331573 93.684246 
L 341.245639 93.684246 
L 341.245639 93.154981 
L 343.116446 93.154981 
L 343.116446 92.625716 
L 343.754166 92.625716 
L 343.754166 92.096451 
L 344.946938 92.096451 
L 344.946938 91.567187 
L 345.066491 91.567187 
L 345.069522 90.508657 
L 345.965707 90.508657 
L 345.965707 89.979392 
L 349.269523 89.979392 
L 349.269523 89.450127 
L 350.426794 89.450127 
L 350.426794 88.920862 
L 352.528414 88.920862 
L 352.528414 88.391597 
L 353.50531 88.391597 
L 353.50531 87.862332 
L 354.171182 87.862332 
L 354.228793 86.803803 
L 354.48195 86.803803 
L 354.48195 86.274538 
L 355.382716 86.274538 
L 355.382716 85.745273 
L 355.780983 85.745273 
L 355.780983 85.216008 
L 356.95596 85.216008 
L 356.95596 84.686743 
L 357.705217 84.686743 
L 357.705217 84.157478 
L 358.304781 84.157478 
L 358.304781 83.628213 
L 358.656243 83.628213 
L 358.656243 83.098948 
L 359.842447 83.098948 
L 359.842447 82.569683 
L 361.756514 82.569683 
L 361.805299 81.511154 
L 363.62732 81.511154 
L 363.62732 80.981889 
L 364.265041 80.981889 
L 364.265041 80.452624 
L 364.813041 80.452624 
L 364.813041 79.923359 
L 365.580397 79.923359 
L 365.580397 79.394094 
L 366.476582 79.394094 
L 366.476582 78.864829 
L 368.779328 78.864829 
L 368.779328 78.335564 
L 369.7147 78.335564 
L 369.7147 77.806299 
L 372.499478 77.806299 
L 372.499478 77.277035 
L 372.61223 77.277035 
L 372.61223 76.74777 
L 373.039289 76.74777 
L 373.039289 76.218505 
L 374.739667 76.218505 
L 374.739667 75.68924 
L 375.690746 75.68924 
L 375.690746 75.159975 
L 375.89359 75.159975 
L 375.89359 74.63071 
L 377.348817 74.63071 
L 377.348817 74.101445 
L 377.966419 74.101445 
L 377.966419 73.57218 
L 378.815656 73.57218 
L 378.815656 73.042915 
L 379.890654 73.042915 
L 379.890654 72.513651 
L 380.84168 72.513651 
L 380.84168 71.984386 
L 382.027883 71.984386 
L 382.027883 71.455121 
L 383.94195 71.455121 
L 383.94195 70.925856 
L 384.322846 70.925856 
L 384.322846 70.396591 
L 385.812757 70.396591 
L 385.812757 69.867326 
L 386.450477 69.867326 
L 386.450477 69.338061 
L 387.765833 69.338061 
L 387.765833 68.808796 
L 388.662018 68.808796 
L 388.662018 68.279531 
L 391.41569 68.279531 
L 391.41569 67.750267 
L 391.535243 67.750267 
L 391.535243 67.221002 
L 395.224725 67.221002 
L 395.224725 66.691737 
L 396.317349 66.691737 
L 396.317349 66.162472 
L 396.436902 66.162472 
L 396.436902 65.633207 
L 396.925104 65.633207 
L 396.925104 65.103942 
L 398.079027 65.103942 
L 398.079027 64.574677 
L 399.102127 64.574677 
L 399.102127 64.045412 
L 399.22168 64.045412 
L 399.22168 63.516147 
L 400.950702 63.516147 
L 401.001092 62.457618 
L 403.951466 62.457618 
L 403.951466 61.928353 
L 404.071019 61.928353 
L 404.071019 61.399088 
L 405.852361 61.399088 
L 405.852361 60.869823 
L 408.637139 60.869823 
L 408.637139 60.340558 
L 410.925495 60.340558 
L 410.925495 59.811293 
L 411.045047 59.811293 
L 411.045047 59.282028 
L 413.486478 59.282028 
L 413.486478 58.752763 
L 420.460506 58.752763 
L 420.460506 58.223499 
L 453.192 58.223499 
L 453.192 58.223499 
" clip-path="url(#p852ccecad4)" style="fill: none; stroke: #000000; stroke-width: 3; stroke-linecap: square"/>
   </g>
   <g id="line2d_62">
    <path clip-path="url(#p852ccecad4)" style="fill: none; stroke: #000000; stroke-width: 3; stroke-linecap: square"/>
   </g>
   <g id="line2d_63">
    <path d="M 34.16 272.6424 
L 194.573296 272.6424 
L 194.573296 271.983594 
L 198.449195 271.983594 
L 198.449195 271.324789 
L 208.228961 271.324789 
L 208.228961 270.665984 
L 213.181971 270.665984 
L 213.181971 270.007179 
L 213.347006 270.007179 
L 213.347006 269.348373 
L 214.289908 269.348373 
L 214.289908 268.689568 
L 215.156537 268.689568 
L 215.156537 268.030763 
L 216.595115 268.030763 
L 216.595115 267.371958 
L 217.057869 267.371958 
L 217.057869 266.713152 
L 217.538017 266.713152 
L 217.538017 266.054347 
L 218.334485 266.054347 
L 218.404646 264.736737 
L 220.742116 264.736737 
L 220.742116 264.077931 
L 222.962554 264.077931 
L 222.962554 263.419126 
L 223.905456 263.419126 
L 223.905456 262.760321 
L 224.772085 262.760321 
L 224.772085 262.101516 
L 225.074327 262.101516 
L 225.074327 261.44271 
L 226.017229 261.44271 
L 226.017229 260.783905 
L 226.837635 260.783905 
L 226.883858 259.466295 
L 228.221196 259.466295 
L 228.221196 258.807489 
L 229.164098 258.807489 
L 229.164098 258.148684 
L 229.548368 258.148684 
L 229.548368 257.489879 
L 230.030727 257.489879 
L 230.030727 256.831074 
L 230.545957 256.831074 
L 230.545957 256.172268 
L 230.82668 256.172268 
L 230.82668 255.513463 
L 231.096981 255.513463 
L 231.096981 254.854658 
L 231.694232 254.854658 
L 231.769582 252.878242 
L 231.928249 252.878242 
L 231.928249 252.219437 
L 232.039883 252.219437 
L 232.039883 251.560632 
L 232.636211 251.560632 
L 232.698154 250.243021 
L 232.906512 250.243021 
L 232.906512 249.584216 
L 233.167301 249.584216 
L 233.167301 248.925411 
L 233.564783 248.925411 
L 233.622736 247.6078 
L 233.678067 247.6078 
L 233.788683 246.29019 
L 234.421856 246.29019 
L 234.488944 244.972579 
L 234.817889 244.972579 
L 234.817889 244.313774 
L 234.942341 244.313774 
L 234.958164 242.996163 
L 235.289239 242.996163 
L 235.289239 242.337358 
L 235.431846 242.337358 
L 235.431846 241.678553 
L 235.66028 241.678553 
L 235.760791 240.360942 
L 235.804147 240.360942 
L 235.804147 239.702137 
L 236.298475 239.702137 
L 236.298475 239.043332 
L 236.415409 239.043332 
L 236.415409 238.384527 
L 236.603182 238.384527 
L 236.62742 237.066916 
L 236.870845 237.066916 
L 236.94316 235.0905 
L 237.036792 235.0905 
L 237.050725 233.77289 
L 237.469811 233.77289 
L 237.469811 233.114085 
L 237.993627 233.114085 
L 237.993627 232.455279 
L 238.206273 232.455279 
L 238.206273 231.796474 
L 238.537348 231.796474 
L 238.537348 231.137669 
L 238.860256 231.137669 
L 238.860256 230.478864 
L 239.35079 230.478864 
L 239.35079 229.820059 
L 240.409637 229.820059 
L 240.409637 229.161253 
L 241.30978 229.161253 
L 241.30978 228.502448 
L 242.782849 228.502448 
L 242.782849 227.843643 
L 243.238284 227.843643 
L 243.293615 226.526032 
L 243.404231 226.526032 
L 243.421553 225.208422 
L 244.201622 225.208422 
L 244.201622 224.549617 
L 244.573713 224.549617 
L 244.573713 223.890811 
L 244.894622 223.890811 
L 244.904787 222.573201 
L 245.350057 222.573201 
L 245.405388 221.25559 
L 245.516004 221.25559 
L 245.583913 219.93798 
L 246.568422 219.93798 
L 246.568422 219.279175 
L 246.685485 219.279175 
L 246.685485 218.620369 
L 247.01656 218.620369 
L 247.01656 217.961564 
L 248.041491 217.961564 
L 248.041491 217.302759 
L 248.157042 217.302759 
L 248.157042 216.643954 
L 248.496926 216.643954 
L 248.552257 215.326343 
L 248.662873 215.326343 
L 248.662873 214.667538 
L 249.173906 214.667538 
L 249.173906 214.008733 
L 249.409154 214.008733 
L 249.444207 212.691122 
L 249.832355 212.691122 
L 249.832355 212.032317 
L 250.102478 212.032317 
L 250.163429 210.055901 
L 250.646974 210.055901 
L 250.646974 209.397096 
L 250.917276 209.397096 
L 250.917276 208.738291 
L 251.10241 208.738291 
L 251.157741 207.42068 
L 251.268357 207.42068 
L 251.372711 206.10307 
L 251.428043 206.10307 
L 251.538658 204.785459 
L 251.575547 204.785459 
L 251.575547 204.126654 
L 252.030982 204.126654 
L 252.086313 202.809043 
L 252.196929 202.809043 
L 252.196929 202.150238 
L 252.334093 202.150238 
L 252.437838 200.832628 
L 252.623433 200.832628 
L 252.70814 199.515017 
L 252.768913 199.515017 
L 252.83617 197.538601 
L 253.039214 197.538601 
L 253.039214 196.879796 
L 253.165115 196.879796 
L 253.165115 196.220991 
L 253.366411 196.220991 
L 253.366411 195.562186 
L 253.697485 195.562186 
L 253.697485 194.90338 
L 254.007506 194.90338 
L 254.025165 193.58577 
L 254.307146 193.58577 
L 254.309238 192.268159 
L 254.638184 192.268159 
L 254.638184 191.609354 
L 254.764674 191.609354 
L 254.820005 190.291744 
L 254.930621 190.291744 
L 254.930621 189.632938 
L 255.093619 189.632938 
L 255.148951 188.315328 
L 255.259566 188.315328 
L 255.338279 186.997717 
L 255.397951 186.997717 
L 255.480575 185.680107 
L 255.578565 185.680107 
L 255.689438 183.703691 
L 255.93601 183.703691 
L 255.991342 182.386081 
L 256.100102 182.386081 
L 256.101957 181.06847 
L 256.429048 181.06847 
L 256.539883 178.433249 
L 256.683595 178.433249 
L 256.760122 176.456833 
L 256.871019 176.456833 
L 256.871019 175.798028 
L 257.271439 175.798028 
L 257.381786 173.821613 
L 257.492402 173.821613 
L 257.602514 172.504002 
L 258.097068 172.504002 
L 258.097068 171.845197 
L 258.661883 171.845197 
L 258.661883 171.186392 
L 258.992958 171.186392 
L 259.018311 169.868781 
L 259.214178 169.868781 
L 259.214178 169.209976 
L 259.454464 169.209976 
L 259.454464 168.551171 
L 260.415781 168.551171 
L 260.415781 167.892365 
L 261.949641 167.892365 
L 261.949641 167.23356 
L 263.804931 167.23356 
L 263.804931 166.574755 
L 264.061414 166.574755 
L 264.061414 165.91595 
L 265.521029 165.91595 
L 265.521029 165.257144 
L 266.279097 165.257144 
L 266.279097 164.598339 
L 266.463361 164.598339 
L 266.463361 163.939534 
L 266.90332 163.939534 
L 266.90332 163.280729 
L 267.208283 163.280729 
L 267.208283 162.621923 
L 268.017828 162.621923 
L 268.017828 161.963118 
L 268.993944 161.963118 
L 268.993944 161.304313 
L 269.23423 161.304313 
L 269.23423 160.645508 
L 269.813766 160.645508 
L 269.813766 159.986702 
L 270.084068 159.986702 
L 270.084068 159.327897 
L 270.195547 159.327897 
L 270.195547 158.669092 
L 270.742339 158.669092 
L 270.742339 158.010287 
L 273.476031 158.010287 
L 273.476031 157.351481 
L 273.804976 157.351481 
L 273.910455 156.033871 
L 274.537432 156.033871 
L 274.647367 154.71626 
L 276.037812 154.71626 
L 276.037812 154.057455 
L 276.254116 154.057455 
L 276.318086 152.739845 
L 276.382298 152.739845 
L 276.384622 151.422234 
L 276.568885 151.422234 
L 276.568885 150.763429 
L 276.962991 150.763429 
L 276.962991 150.104624 
L 277.764589 150.104624 
L 277.785541 148.787013 
L 278.792252 148.787013 
L 278.792252 148.128208 
L 278.976516 148.128208 
L 278.976516 147.469403 
L 279.099468 147.469403 
L 279.099468 146.810597 
L 279.339754 146.810597 
L 279.339754 146.151792 
L 279.502225 146.151792 
L 279.502225 145.492987 
L 280.2111 145.492987 
L 280.301072 144.175376 
L 280.86139 144.175376 
L 280.86139 143.516571 
L 281.507099 143.516571 
L 281.507099 142.857766 
L 281.747385 142.857766 
L 281.747385 142.198961 
L 282.708702 142.198961 
L 282.708702 141.540155 
L 284.15298 141.540155 
L 284.15298 140.88135 
L 284.737288 140.88135 
L 284.737288 140.222545 
L 285.124338 140.222545 
L 285.124338 139.56374 
L 285.381815 139.56374 
L 285.381815 138.904934 
L 285.869664 138.904934 
L 285.869664 138.246129 
L 286.264753 138.246129 
L 286.264753 137.587324 
L 286.578539 137.587324 
L 286.578539 136.928519 
L 286.764106 136.928519 
L 286.764106 136.269713 
L 287.598504 136.269713 
L 287.598504 135.610908 
L 287.782767 135.610908 
L 287.782767 134.952103 
L 287.981437 134.952103 
L 287.981437 134.293298 
L 288.690312 134.293298 
L 288.690312 133.634492 
L 289.411622 133.634492 
L 289.411622 132.975687 
L 290.313351 132.975687 
L 290.313351 132.316882 
L 290.553637 132.316882 
L 290.553637 131.658077 
L 291.128306 131.658077 
L 291.128306 130.999271 
L 291.514954 130.999271 
L 291.514954 130.340466 
L 291.837181 130.340466 
L 291.837181 129.681661 
L 292.017106 129.681661 
L 292.017106 129.022856 
L 292.287407 129.022856 
L 292.287407 128.36405 
L 292.945678 128.36405 
L 292.945678 127.705245 
L 293.73379 127.705245 
L 293.73379 127.04644 
L 294.004091 127.04644 
L 294.004091 126.387635 
L 294.442665 126.387635 
L 294.517054 125.070024 
L 294.662362 125.070024 
L 294.712966 123.752414 
L 295.371237 123.752414 
L 295.371237 123.093608 
L 295.67937 123.093608 
L 295.67937 122.434803 
L 295.985607 122.434803 
L 296.008315 121.117193 
L 296.850706 121.117193 
L 296.850706 120.458387 
L 297.396054 120.458387 
L 297.396054 119.799582 
L 297.724999 119.799582 
L 297.724999 119.140777 
L 298.104929 119.140777 
L 298.104929 118.481972 
L 298.241151 118.481972 
L 298.241151 117.823167 
L 298.433874 117.823167 
L 298.459773 116.505556 
L 298.56739 116.505556 
L 298.644037 115.187946 
L 299.276265 115.187946 
L 299.276265 114.52914 
L 299.957835 114.52914 
L 299.957835 113.870335 
L 300.66671 113.870335 
L 300.66671 113.21153 
L 301.17462 113.21153 
L 301.17462 112.552725 
L 301.414906 112.552725 
L 301.414906 111.893919 
L 302.376223 111.893919 
L 302.376223 111.235114 
L 304.622579 111.235114 
L 304.622579 110.576309 
L 304.985124 110.576309 
L 304.985124 109.917504 
L 307.030209 109.917504 
L 307.030209 109.258698 
L 307.45929 109.258698 
L 307.45929 108.599893 
L 307.643554 108.599893 
L 307.643554 107.941088 
L 310.174137 107.941088 
L 310.174137 107.282283 
L 310.414423 107.282283 
L 310.414423 106.623477 
L 311.37574 106.623477 
L 311.37574 105.964672 
L 315.836461 105.964672 
L 315.836461 105.305867 
L 319.878448 105.305867 
L 319.878448 104.647062 
L 323.754346 104.647062 
L 323.754346 103.988256 
L 326.152082 103.988256 
L 326.152082 103.329451 
L 326.69773 103.329451 
L 326.69773 102.670646 
L 329.40019 102.670646 
L 329.40019 102.011841 
L 333.534112 102.011841 
L 333.534112 101.353035 
L 335.697247 101.353035 
L 335.76763 100.035425 
L 337.879403 100.035425 
L 337.879403 99.37662 
L 341.026272 99.37662 
L 341.026272 98.717814 
L 343.631755 98.717814 
L 343.639637 97.400204 
L 343.902057 97.400204 
L 343.902057 96.741399 
L 344.560328 96.741399 
L 344.560328 96.082593 
L 346.047267 96.082593 
L 346.047267 95.423788 
L 347.294019 95.423788 
L 347.294019 94.764983 
L 347.622965 94.764983 
L 347.622965 94.106178 
L 348.465356 94.106178 
L 348.465356 93.447372 
L 349.855801 93.447372 
L 349.855801 92.788567 
L 354.853519 92.788567 
L 354.853519 92.129762 
L 365.714788 92.129762 
L 365.714788 91.470957 
L 374.714305 91.470957 
L 374.714305 90.812151 
L 453.192 90.812151 
L 453.192 90.812151 
" clip-path="url(#p852ccecad4)" style="fill: none; stroke: #00bfbf; stroke-width: 3; stroke-linecap: square"/>
   </g>
   <g id="line2d_64">
    <path clip-path="url(#p852ccecad4)" style="fill: none; stroke: #00bfbf; stroke-width: 3; stroke-linecap: square"/>
   </g>
   <g id="line2d_65">
    <path d="M 34.16 258.925484 
L 198.730647 258.925484 
L 198.730647 257.519378 
L 217.742107 257.519378 
L 217.742107 256.113271 
L 218.403071 256.113271 
L 218.403071 254.707164 
L 220.911665 254.707164 
L 220.911665 253.301057 
L 222.368292 253.301057 
L 222.368292 251.894951 
L 223.858288 251.894951 
L 223.858288 250.488844 
L 228.991632 250.488844 
L 228.991632 249.082737 
L 231.620001 249.082737 
L 231.620001 247.676631 
L 234.589074 247.676631 
L 234.589074 246.270524 
L 236.871938 246.270524 
L 236.871938 244.864417 
L 237.414532 244.864417 
L 237.414532 243.45831 
L 239.513637 243.45831 
L 239.513637 242.052204 
L 240.584089 242.052204 
L 240.584089 240.646097 
L 242.040716 240.646097 
L 242.040716 239.23999 
L 242.869749 239.23999 
L 242.869749 237.833884 
L 246.039306 237.833884 
L 246.039306 236.427777 
L 247.495933 236.427777 
L 247.495933 235.02167 
L 248.664056 235.02167 
L 248.664056 233.615563 
L 251.292425 233.615563 
L 251.292425 232.209457 
L 253.600535 232.209457 
L 253.600535 230.80335 
L 254.119273 230.80335 
L 254.119273 229.397243 
L 254.52816 229.397243 
L 254.52816 227.991136 
L 255.883399 227.991136 
L 255.883399 226.58503 
L 256.747642 226.58503 
L 256.770093 223.772816 
L 257.062848 223.772816 
L 257.062848 222.36671 
L 257.594973 222.36671 
L 257.594973 220.960603 
L 258.226719 220.960603 
L 258.226719 219.554496 
L 259.052956 219.554496 
L 259.052956 218.148389 
L 259.186061 218.148389 
L 259.186061 216.742283 
L 259.322692 216.742283 
L 259.322692 215.336176 
L 260.449489 215.336176 
L 260.509583 212.523963 
L 261.033692 212.523963 
L 261.033692 211.117856 
L 264.641278 211.117856 
L 264.641278 209.711749 
L 264.850059 209.711749 
L 264.850059 208.305642 
L 267.132923 208.305642 
L 267.132923 206.899536 
L 267.478429 206.899536 
L 267.478429 205.493429 
L 269.761292 205.493429 
L 269.761292 204.087322 
L 273.539621 204.087322 
L 273.539621 202.681215 
L 275.372064 202.681215 
L 275.372064 201.275109 
L 276.074309 201.275109 
L 276.074309 199.869002 
L 276.606434 199.869002 
L 276.709179 197.056789 
L 277.654928 197.056789 
L 277.654928 195.650682 
L 278.165805 195.650682 
L 278.165805 194.244575 
L 278.334152 194.244575 
L 278.334152 192.838468 
L 279.243867 192.838468 
L 279.243867 191.432362 
L 279.46095 191.432362 
L 279.46095 190.026255 
L 279.775991 190.026255 
L 279.775991 188.620148 
L 280.045153 188.620148 
L 280.045153 187.214042 
L 280.700493 187.214042 
L 280.700493 185.807935 
L 281.232618 185.807935 
L 281.232618 184.401828 
L 281.50371 184.401828 
L 281.50371 182.995721 
L 282.630508 182.995721 
L 282.630508 181.589615 
L 282.960337 181.589615 
L 282.960337 180.183508 
L 283.21471 180.183508 
L 283.21471 178.777401 
L 284.087134 178.777401 
L 284.087134 177.371295 
L 284.671337 177.371295 
L 284.671337 175.965188 
L 284.789145 175.965188 
L 284.789145 174.559081 
L 287.323833 174.559081 
L 287.417515 171.746868 
L 287.855958 171.746868 
L 287.855958 170.340761 
L 289.583677 170.340761 
L 289.583677 168.934654 
L 289.952203 168.934654 
L 289.952203 167.528547 
L 290.484328 167.528547 
L 290.484328 166.122441 
L 290.710474 166.122441 
L 290.710474 164.716334 
L 291.294677 164.716334 
L 291.294677 163.310227 
L 292.212046 163.310227 
L 292.212046 161.904121 
L 293.338844 161.904121 
L 293.338844 160.498014 
L 293.923046 160.498014 
L 293.923046 159.091907 
L 295.31115 159.091907 
L 295.31115 157.6858 
L 297.845839 157.6858 
L 297.845839 156.279694 
L 298.377963 156.279694 
L 298.377963 154.873587 
L 300.105682 154.873587 
L 300.105682 153.46748 
L 301.23248 153.46748 
L 301.23248 152.061374 
L 301.816682 152.061374 
L 301.816682 150.655267 
L 319.902658 150.655267 
L 319.902658 149.24916 
L 338.914119 149.24916 
L 338.914119 147.843053 
L 342.083676 147.843053 
L 342.083676 146.436947 
L 343.540303 146.436947 
L 343.540303 145.03084 
L 350.163643 145.03084 
L 350.163643 143.624733 
L 352.792012 143.624733 
L 352.792012 142.218626 
L 360.685648 142.218626 
L 360.685648 140.81252 
L 453.192 140.81252 
L 453.192 140.81252 
" clip-path="url(#p852ccecad4)" style="fill: none; stroke: #bf00bf; stroke-width: 3; stroke-linecap: square"/>
   </g>
   <g id="line2d_66">
    <path clip-path="url(#p852ccecad4)" style="fill: none; stroke: #bf00bf; stroke-width: 3; stroke-linecap: square"/>
   </g>
   <g id="line2d_67">
    <path d="M 34.16 262.760321 
L 197.888184 262.760321 
L 197.888184 261.332909 
L 217.695977 261.332909 
L 217.695977 259.905498 
L 218.612255 259.905498 
L 218.612255 258.478087 
L 221.985554 258.478087 
L 221.985554 257.050675 
L 223.72656 257.050675 
L 223.72656 255.623264 
L 224.451137 255.623264 
L 224.451137 254.195853 
L 228.879677 254.195853 
L 228.879677 252.768441 
L 234.381998 252.768441 
L 234.381998 251.34103 
L 236.764999 251.34103 
L 236.764999 249.913619 
L 238.420048 249.913619 
L 238.420048 248.486207 
L 239.047667 248.486207 
L 239.047667 247.058796 
L 242.709625 247.058796 
L 242.709625 245.631384 
L 243.534353 245.631384 
L 243.534353 244.203973 
L 245.175208 244.203973 
L 245.175208 242.776562 
L 247.82393 242.776562 
L 247.82393 241.34915 
L 249.603748 241.34915 
L 249.603748 239.921739 
L 250.289513 239.921739 
L 250.289513 238.494328 
L 254.189791 238.494328 
L 254.22716 235.639505 
L 254.718053 235.639505 
L 254.718053 234.212093 
L 256.538672 234.212093 
L 256.627681 229.929859 
L 258.479369 229.929859 
L 258.479369 228.502448 
L 259.074688 228.502448 
L 259.074688 227.075037 
L 259.295106 227.075037 
L 259.295106 225.647625 
L 259.771738 225.647625 
L 259.771738 224.220214 
L 260.030929 224.220214 
L 260.030929 222.792803 
L 260.86237 222.792803 
L 260.944952 219.93798 
L 263.327953 219.93798 
L 263.327953 218.510568 
L 264.886043 218.510568 
L 264.886043 217.083157 
L 265.373491 217.083157 
L 265.373491 215.655746 
L 267.756492 215.655746 
L 267.756492 214.228334 
L 274.034953 214.228334 
L 274.034953 212.800923 
L 275.541482 212.800923 
L 275.541482 211.373512 
L 276.346465 211.373512 
L 276.435475 208.518689 
L 277.924483 208.518689 
L 277.924483 207.091277 
L 278.32453 207.091277 
L 278.32453 205.663866 
L 278.882481 205.663866 
L 278.882481 204.236455 
L 279.102899 204.236455 
L 279.102899 202.809043 
L 279.838722 202.809043 
L 279.838722 201.381632 
L 280.636042 201.381632 
L 280.725052 198.526809 
L 280.790113 198.526809 
L 280.790113 197.099398 
L 283.101625 197.099398 
L 283.190635 192.817164 
L 283.392477 192.817164 
L 283.392477 191.389752 
L 284.128299 191.389752 
L 284.128299 189.962341 
L 285.218653 189.962341 
L 285.218653 188.53493 
L 285.637641 188.53493 
L 285.637641 187.107518 
L 285.858059 187.107518 
L 285.858059 185.680107 
L 286.593882 185.680107 
L 286.593882 184.252696 
L 287.530165 184.252696 
L 287.619174 181.397873 
L 290.066181 181.397873 
L 290.066181 179.970461 
L 290.286599 179.970461 
L 290.286599 178.54305 
L 291.022421 178.54305 
L 291.022421 177.115639 
L 295.386643 177.115639 
L 295.386643 175.688227 
L 297.698155 175.688227 
L 297.787165 172.833405 
L 300.234171 172.833405 
L 300.234171 171.405993 
L 300.454589 171.405993 
L 300.454589 169.978582 
L 301.190412 169.978582 
L 301.190412 168.551171 
L 316.481753 168.551171 
L 316.481753 167.123759 
L 336.289546 167.123759 
L 336.289546 165.696348 
L 340.579124 165.696348 
L 340.579124 164.268936 
L 343.044706 164.268936 
L 343.044706 162.841525 
L 347.473246 162.841525 
L 347.473246 161.414114 
L 357.641236 161.414114 
L 357.641236 159.986702 
L 453.192 159.986702 
L 453.192 159.986702 
" clip-path="url(#p852ccecad4)" style="fill: none; stroke: #ff0000; stroke-width: 3; stroke-linecap: square"/>
   </g>
   <g id="line2d_68">
    <path clip-path="url(#p852ccecad4)" style="fill: none; stroke: #ff0000; stroke-width: 3; stroke-linecap: square"/>
   </g>
   <g id="line2d_69">
    <path d="M 243.676 291.28 
L 243.676 3 
" clip-path="url(#p852ccecad4)" style="fill: none; stroke: #000000; stroke-width: 1.5; stroke-linecap: square"/>
   </g>
   <g id="line2d_70">
    <path d="M 34.16 147.14 
L 453.192 147.14 
" clip-path="url(#p852ccecad4)" style="fill: none; stroke-dasharray: 2,3.3; stroke-dashoffset: 0; stroke: #000000; stroke-width: 2"/>
   </g>
   <g id="patch_3">
    <path d="M 34.16 291.28 
L 34.16 3 
" style="fill: none; stroke: #000000; stroke-width: 0.8; stroke-linejoin: miter; stroke-linecap: square"/>
   </g>
   <g id="patch_4">
    <path d="M 453.192 291.28 
L 453.192 3 
" style="fill: none; stroke: #000000; stroke-width: 0.8; stroke-linejoin: miter; stroke-linecap: square"/>
   </g>
   <g id="patch_5">
    <path d="M 34.16 291.28 
L 453.192 291.28 
" style="fill: none; stroke: #000000; stroke-width: 0.8; stroke-linejoin: miter; stroke-linecap: square"/>
   </g>
   <g id="patch_6">
    <path d="M 34.16 3 
L 453.192 3 
" style="fill: none; stroke: #000000; stroke-width: 0.8; stroke-linejoin: miter; stroke-linecap: square"/>
   </g>
   <g id="text_5">
    <!-- f20-f24,40-D -->
    <g transform="translate(318.19261 285.5144) scale(0.2 -0.2)">
     <defs>
      <path id="DejaVuSans-32" d="M 1228 531 
L 3431 531 
L 3431 0 
L 469 0 
L 469 531 
Q 828 903 1448 1529 
Q 2069 2156 2228 2338 
Q 2531 2678 2651 2914 
Q 2772 3150 2772 3378 
Q 2772 3750 2511 3984 
Q 2250 4219 1831 4219 
Q 1534 4219 1204 4116 
Q 875 4013 500 3803 
L 500 4441 
Q 881 4594 1212 4672 
Q 1544 4750 1819 4750 
Q 2544 4750 2975 4387 
Q 3406 4025 3406 3419 
Q 3406 3131 3298 2873 
Q 3191 2616 2906 2266 
Q 2828 2175 2409 1742 
Q 1991 1309 1228 531 
z
" transform="scale(0.015625)"/>
      <path id="DejaVuSans-34" d="M 2419 4116 
L 825 1625 
L 2419 1625 
L 2419 4116 
z
M 2253 4666 
L 3047 4666 
L 3047 1625 
L 3713 1625 
L 3713 1100 
L 3047 1100 
L 3047 0 
L 2419 0 
L 2419 1100 
L 313 1100 
L 313 1709 
L 2253 4666 
z
" transform="scale(0.015625)"/>
      <path id="DejaVuSans-2c" d="M 750 794 
L 1409 794 
L 1409 256 
L 897 -744 
L 494 -744 
L 750 256 
L 750 794 
z
" transform="scale(0.015625)"/>
      <path id="DejaVuSans-44" d="M 1259 4147 
L 1259 519 
L 2022 519 
Q 2988 519 3436 956 
Q 3884 1394 3884 2338 
Q 3884 3275 3436 3711 
Q 2988 4147 2022 4147 
L 1259 4147 
z
M 628 4666 
L 1925 4666 
Q 3281 4666 3915 4102 
Q 4550 3538 4550 2338 
Q 4550 1131 3912 565 
Q 3275 0 1925 0 
L 628 0 
L 628 4666 
z
" transform="scale(0.015625)"/>
     </defs>
     <use xlink:href="#DejaVuSans-66"/>
     <use xlink:href="#DejaVuSans-32" x="35.205078"/>
     <use xlink:href="#DejaVuSans-30" x="98.828125"/>
     <use xlink:href="#DejaVuSans-2d" x="162.451172"/>
     <use xlink:href="#DejaVuSans-66" x="198.535156"/>
     <use xlink:href="#DejaVuSans-32" x="233.740234"/>
     <use xlink:href="#DejaVuSans-34" x="297.363281"/>
     <use xlink:href="#DejaVuSans-2c" x="360.986328"/>
     <use xlink:href="#DejaVuSans-34" x="392.773438"/>
     <use xlink:href="#DejaVuSans-30" x="456.396484"/>
     <use xlink:href="#DejaVuSans-2d" x="520.019531"/>
     <use xlink:href="#DejaVuSans-44" x="556.103516"/>
    </g>
   </g>
   <g id="text_6">
    <!-- v2.6.3 -->
    <g style="fill: #808080" transform="translate(227.99475 286.317512) scale(0.1 -0.1)">
     <defs>
      <path id="DejaVuSans-2e" d="M 684 794 
L 1344 794 
L 1344 0 
L 684 0 
L 684 794 
z
" transform="scale(0.015625)"/>
      <path id="DejaVuSans-36" d="M 2113 2584 
Q 1688 2584 1439 2293 
Q 1191 2003 1191 1497 
Q 1191 994 1439 701 
Q 1688 409 2113 409 
Q 2538 409 2786 701 
Q 3034 994 3034 1497 
Q 3034 2003 2786 2293 
Q 2538 2584 2113 2584 
z
M 3366 4563 
L 3366 3988 
Q 3128 4100 2886 4159 
Q 2644 4219 2406 4219 
Q 1781 4219 1451 3797 
Q 1122 3375 1075 2522 
Q 1259 2794 1537 2939 
Q 1816 3084 2150 3084 
Q 2853 3084 3261 2657 
Q 3669 2231 3669 1497 
Q 3669 778 3244 343 
Q 2819 -91 2113 -91 
Q 1303 -91 875 529 
Q 447 1150 447 2328 
Q 447 3434 972 4092 
Q 1497 4750 2381 4750 
Q 2619 4750 2861 4703 
Q 3103 4656 3366 4563 
z
" transform="scale(0.015625)"/>
      <path id="DejaVuSans-33" d="M 2597 2516 
Q 3050 2419 3304 2112 
Q 3559 1806 3559 1356 
Q 3559 666 3084 287 
Q 2609 -91 1734 -91 
Q 1441 -91 1130 -33 
Q 819 25 488 141 
L 488 750 
Q 750 597 1062 519 
Q 1375 441 1716 441 
Q 2309 441 2620 675 
Q 2931 909 2931 1356 
Q 2931 1769 2642 2001 
Q 2353 2234 1838 2234 
L 1294 2234 
L 1294 2753 
L 1863 2753 
Q 2328 2753 2575 2939 
Q 2822 3125 2822 3475 
Q 2822 3834 2567 4026 
Q 2313 4219 1838 4219 
Q 1578 4219 1281 4162 
Q 984 4106 628 3988 
L 628 4550 
Q 988 4650 1302 4700 
Q 1616 4750 1894 4750 
Q 2613 4750 3031 4423 
Q 3450 4097 3450 3541 
Q 3450 3153 3228 2886 
Q 3006 2619 2597 2516 
z
" transform="scale(0.015625)"/>
     </defs>
     <use xlink:href="#DejaVuSans-76"/>
     <use xlink:href="#DejaVuSans-32" x="59.179688"/>
     <use xlink:href="#DejaVuSans-2e" x="122.802734"/>
     <use xlink:href="#DejaVuSans-36" x="154.589844"/>
     <use xlink:href="#DejaVuSans-2e" x="218.212891"/>
     <use xlink:href="#DejaVuSans-33" x="250"/>
    </g>
   </g>
   <g id="legend_1">
    <g id="patch_7">
     <path d="M 48.16 136.425 
L 177.381875 136.425 
Q 181.381875 136.425 181.381875 132.425 
L 181.381875 17 
Q 181.381875 13 177.381875 13 
L 48.16 13 
Q 44.16 13 44.16 17 
L 44.16 132.425 
Q 44.16 136.425 48.16 136.425 
z
" style="fill: #ffffff; opacity: 0.2; stroke: #cccccc; stroke-linejoin: miter"/>
    </g>
    <g id="line2d_71">
     <path d="M 52.16 29.196875 
L 72.16 29.196875 
L 92.16 29.196875 
" style="fill: none; stroke: #000000; stroke-width: 3; stroke-linecap: square"/>
    </g>
    <g id="text_7">
     <!-- 1: 3/4 -->
     <g transform="translate(108.16 36.196875) scale(0.2 -0.2)">
      <defs>
       <path id="DejaVuSans-3a" d="M 750 794 
L 1409 794 
L 1409 0 
L 750 0 
L 750 794 
z
M 750 3309 
L 1409 3309 
L 1409 2516 
L 750 2516 
L 750 3309 
z
" transform="scale(0.015625)"/>
       <path id="DejaVuSans-2f" d="M 1625 4666 
L 2156 4666 
L 531 -594 
L 0 -594 
L 1625 4666 
z
" transform="scale(0.015625)"/>
      </defs>
      <use xlink:href="#DejaVuSans-31"/>
      <use xlink:href="#DejaVuSans-3a" x="63.623047"/>
      <use xlink:href="#DejaVuSans-20" x="97.314453"/>
      <use xlink:href="#DejaVuSans-33" x="129.101562"/>
      <use xlink:href="#DejaVuSans-2f" x="192.724609"/>
      <use xlink:href="#DejaVuSans-34" x="226.416016"/>
     </g>
    </g>
    <g id="line2d_72">
     <path d="M 52.16 58.553125 
L 72.16 58.553125 
L 92.16 58.553125 
" style="fill: none; stroke: #00bfbf; stroke-width: 3; stroke-linecap: square"/>
    </g>
    <g id="text_8">
     <!-- -1: 2/2 -->
     <g transform="translate(108.16 65.553125) scale(0.2 -0.2)">
      <use xlink:href="#DejaVuSans-2d"/>
      <use xlink:href="#DejaVuSans-31" x="36.083984"/>
      <use xlink:href="#DejaVuSans-3a" x="99.707031"/>
      <use xlink:href="#DejaVuSans-20" x="133.398438"/>
      <use xlink:href="#DejaVuSans-32" x="165.185547"/>
      <use xlink:href="#DejaVuSans-2f" x="228.808594"/>
      <use xlink:href="#DejaVuSans-32" x="262.5"/>
     </g>
    </g>
    <g id="line2d_73">
     <path d="M 52.16 87.909375 
L 72.16 87.909375 
L 92.16 87.909375 
" style="fill: none; stroke: #bf00bf; stroke-width: 3; stroke-linecap: square"/>
    </g>
    <g id="text_9">
     <!-- -4: 1/1 -->
     <g transform="translate(108.16 94.909375) scale(0.2 -0.2)">
      <use xlink:href="#DejaVuSans-2d"/>
      <use xlink:href="#DejaVuSans-34" x="36.083984"/>
      <use xlink:href="#DejaVuSans-3a" x="99.707031"/>
      <use xlink:href="#DejaVuSans-20" x="133.398438"/>
      <use xlink:href="#DejaVuSans-31" x="165.185547"/>
      <use xlink:href="#DejaVuSans-2f" x="228.808594"/>
      <use xlink:href="#DejaVuSans-31" x="262.5"/>
     </g>
    </g>
    <g id="line2d_74">
     <path d="M 52.16 117.265625 
L 72.16 117.265625 
L 92.16 117.265625 
" style="fill: none; stroke: #ff0000; stroke-width: 3; stroke-linecap: square"/>
    </g>
    <g id="text_10">
     <!-- -8: 1/1 -->
     <g transform="translate(108.16 124.265625) scale(0.2 -0.2)">
      <defs>
       <path id="DejaVuSans-38" d="M 2034 2216 
Q 1584 2216 1326 1975 
Q 1069 1734 1069 1313 
Q 1069 891 1326 650 
Q 1584 409 2034 409 
Q 2484 409 2743 651 
Q 3003 894 3003 1313 
Q 3003 1734 2745 1975 
Q 2488 2216 2034 2216 
z
M 1403 2484 
Q 997 2584 770 2862 
Q 544 3141 544 3541 
Q 544 4100 942 4425 
Q 1341 4750 2034 4750 
Q 2731 4750 3128 4425 
Q 3525 4100 3525 3541 
Q 3525 3141 3298 2862 
Q 3072 2584 2669 2484 
Q 3125 2378 3379 2068 
Q 3634 1759 3634 1313 
Q 3634 634 3220 271 
Q 2806 -91 2034 -91 
Q 1263 -91 848 271 
Q 434 634 434 1313 
Q 434 1759 690 2068 
Q 947 2378 1403 2484 
z
M 1172 3481 
Q 1172 3119 1398 2916 
Q 1625 2713 2034 2713 
Q 2441 2713 2670 2916 
Q 2900 3119 2900 3481 
Q 2900 3844 2670 4047 
Q 2441 4250 2034 4250 
Q 1625 4250 1398 4047 
Q 1172 3844 1172 3481 
z
" transform="scale(0.015625)"/>
      </defs>
      <use xlink:href="#DejaVuSans-2d"/>
      <use xlink:href="#DejaVuSans-38" x="36.083984"/>
      <use xlink:href="#DejaVuSans-3a" x="99.707031"/>
      <use xlink:href="#DejaVuSans-20" x="133.398438"/>
      <use xlink:href="#DejaVuSans-31" x="165.185547"/>
      <use xlink:href="#DejaVuSans-2f" x="228.808594"/>
      <use xlink:href="#DejaVuSans-31" x="262.5"/>
     </g>
    </g>
   </g>
  </g>
 </g>
 <defs>
  <clipPath id="p852ccecad4">
   <rect x="34.16" y="3" width="419.032" height="288.28"/>
  </clipPath>
 </defs>
</svg>
