<?xml version="1.0" encoding="utf-8" standalone="no"?>
<!DOCTYPE svg PUBLIC "-//W3C//DTD SVG 1.1//EN"
  "http://www.w3.org/Graphics/SVG/1.1/DTD/svg11.dtd">
<svg xmlns:xlink="http://www.w3.org/1999/xlink" width="460.8pt" height="345.6pt" viewBox="0 0 460.8 345.6" xmlns="http://www.w3.org/2000/svg" version="1.1">
 <metadata>
  <rdf:RDF xmlns:dc="http://purl.org/dc/elements/1.1/" xmlns:cc="http://creativecommons.org/ns#" xmlns:rdf="http://www.w3.org/1999/02/22-rdf-syntax-ns#">
   <cc:Work>
    <dc:type rdf:resource="http://purl.org/dc/dcmitype/StillImage"/>
    <dc:date>2024-06-05T13:46:47.759021</dc:date>
    <dc:format>image/svg+xml</dc:format>
    <dc:creator>
     <cc:Agent>
      <dc:title>Matplotlib v3.7.1, https://matplotlib.org/</dc:title>
     </cc:Agent>
    </dc:creator>
   </cc:Work>
  </rdf:RDF>
 </metadata>
 <defs>
  <style type="text/css">*{stroke-linejoin: round; stroke-linecap: butt}</style>
 </defs>
 <g id="figure_1">
  <g id="patch_1">
   <path d="M 0 345.6 
L 460.8 345.6 
L 460.8 0 
L 0 0 
z
" style="fill: #ffffff"/>
  </g>
  <g id="axes_1">
   <g id="patch_2">
    <path d="M 34.16 291.28 
L 453.192 291.28 
L 453.192 3 
L 34.16 3 
z
" style="fill: #ffffff"/>
   </g>
   <g id="matplotlib.axis_1">
    <g id="xtick_1">
     <g id="line2d_1">
      <path d="M 125.703855 291.28 
L 125.703855 3 
" clip-path="url(#pcd0358e8f7)" style="fill: none; stroke: #b0b0b0; stroke-width: 0.8; stroke-linecap: square"/>
     </g>
     <g id="line2d_2">
      <defs>
       <path id="m1a4e87d314" d="M 0 0 
L 0 3.5 
" style="stroke: #000000; stroke-width: 0.8"/>
      </defs>
      <g>
       <use xlink:href="#m1a4e87d314" x="125.703855" y="291.28" style="stroke: #000000; stroke-width: 0.8"/>
      </g>
     </g>
     <g id="text_1">
      <!-- -2 -->
      <g transform="translate(115.733542 313.476875) scale(0.2 -0.2)">
       <defs>
        <path id="DejaVuSans-2d" d="M 313 2009 
L 1997 2009 
L 1997 1497 
L 313 1497 
L 313 2009 
z
" transform="scale(0.015625)"/>
        <path id="DejaVuSans-32" d="M 1228 531 
L 3431 531 
L 3431 0 
L 469 0 
L 469 531 
Q 828 903 1448 1529 
Q 2069 2156 2228 2338 
Q 2531 2678 2651 2914 
Q 2772 3150 2772 3378 
Q 2772 3750 2511 3984 
Q 2250 4219 1831 4219 
Q 1534 4219 1204 4116 
Q 875 4013 500 3803 
L 500 4441 
Q 881 4594 1212 4672 
Q 1544 4750 1819 4750 
Q 2544 4750 2975 4387 
Q 3406 4025 3406 3419 
Q 3406 3131 3298 2873 
Q 3191 2616 2906 2266 
Q 2828 2175 2409 1742 
Q 1991 1309 1228 531 
z
" transform="scale(0.015625)"/>
       </defs>
       <use xlink:href="#DejaVuSans-2d"/>
       <use xlink:href="#DejaVuSans-32" x="36.083984"/>
      </g>
     </g>
    </g>
    <g id="xtick_2">
     <g id="line2d_3">
      <path d="M 243.676 291.28 
L 243.676 3 
" clip-path="url(#pcd0358e8f7)" style="fill: none; stroke: #b0b0b0; stroke-width: 0.8; stroke-linecap: square"/>
     </g>
     <g id="line2d_4">
      <g>
       <use xlink:href="#m1a4e87d314" x="243.676" y="291.28" style="stroke: #000000; stroke-width: 0.8"/>
      </g>
     </g>
     <g id="text_2">
      <!-- 0 -->
      <g transform="translate(237.3135 313.476875) scale(0.2 -0.2)">
       <defs>
        <path id="DejaVuSans-30" d="M 2034 4250 
Q 1547 4250 1301 3770 
Q 1056 3291 1056 2328 
Q 1056 1369 1301 889 
Q 1547 409 2034 409 
Q 2525 409 2770 889 
Q 3016 1369 3016 2328 
Q 3016 3291 2770 3770 
Q 2525 4250 2034 4250 
z
M 2034 4750 
Q 2819 4750 3233 4129 
Q 3647 3509 3647 2328 
Q 3647 1150 3233 529 
Q 2819 -91 2034 -91 
Q 1250 -91 836 529 
Q 422 1150 422 2328 
Q 422 3509 836 4129 
Q 1250 4750 2034 4750 
z
" transform="scale(0.015625)"/>
       </defs>
       <use xlink:href="#DejaVuSans-30"/>
      </g>
     </g>
    </g>
    <g id="xtick_3">
     <g id="line2d_5">
      <path d="M 361.648145 291.28 
L 361.648145 3 
" clip-path="url(#pcd0358e8f7)" style="fill: none; stroke: #b0b0b0; stroke-width: 0.8; stroke-linecap: square"/>
     </g>
     <g id="line2d_6">
      <g>
       <use xlink:href="#m1a4e87d314" x="361.648145" y="291.28" style="stroke: #000000; stroke-width: 0.8"/>
      </g>
     </g>
     <g id="text_3">
      <!-- 2 -->
      <g transform="translate(355.285645 313.476875) scale(0.2 -0.2)">
       <use xlink:href="#DejaVuSans-32"/>
      </g>
     </g>
    </g>
    <g id="text_4">
     <!-- log10 of FEvals ratio -->
     <g transform="translate(141.371312 336.833125) scale(0.2 -0.2)">
      <defs>
       <path id="DejaVuSans-6c" d="M 603 4863 
L 1178 4863 
L 1178 0 
L 603 0 
L 603 4863 
z
" transform="scale(0.015625)"/>
       <path id="DejaVuSans-6f" d="M 1959 3097 
Q 1497 3097 1228 2736 
Q 959 2375 959 1747 
Q 959 1119 1226 758 
Q 1494 397 1959 397 
Q 2419 397 2687 759 
Q 2956 1122 2956 1747 
Q 2956 2369 2687 2733 
Q 2419 3097 1959 3097 
z
M 1959 3584 
Q 2709 3584 3137 3096 
Q 3566 2609 3566 1747 
Q 3566 888 3137 398 
Q 2709 -91 1959 -91 
Q 1206 -91 779 398 
Q 353 888 353 1747 
Q 353 2609 779 3096 
Q 1206 3584 1959 3584 
z
" transform="scale(0.015625)"/>
       <path id="DejaVuSans-67" d="M 2906 1791 
Q 2906 2416 2648 2759 
Q 2391 3103 1925 3103 
Q 1463 3103 1205 2759 
Q 947 2416 947 1791 
Q 947 1169 1205 825 
Q 1463 481 1925 481 
Q 2391 481 2648 825 
Q 2906 1169 2906 1791 
z
M 3481 434 
Q 3481 -459 3084 -895 
Q 2688 -1331 1869 -1331 
Q 1566 -1331 1297 -1286 
Q 1028 -1241 775 -1147 
L 775 -588 
Q 1028 -725 1275 -790 
Q 1522 -856 1778 -856 
Q 2344 -856 2625 -561 
Q 2906 -266 2906 331 
L 2906 616 
Q 2728 306 2450 153 
Q 2172 0 1784 0 
Q 1141 0 747 490 
Q 353 981 353 1791 
Q 353 2603 747 3093 
Q 1141 3584 1784 3584 
Q 2172 3584 2450 3431 
Q 2728 3278 2906 2969 
L 2906 3500 
L 3481 3500 
L 3481 434 
z
" transform="scale(0.015625)"/>
       <path id="DejaVuSans-31" d="M 794 531 
L 1825 531 
L 1825 4091 
L 703 3866 
L 703 4441 
L 1819 4666 
L 2450 4666 
L 2450 531 
L 3481 531 
L 3481 0 
L 794 0 
L 794 531 
z
" transform="scale(0.015625)"/>
       <path id="DejaVuSans-20" transform="scale(0.015625)"/>
       <path id="DejaVuSans-66" d="M 2375 4863 
L 2375 4384 
L 1825 4384 
Q 1516 4384 1395 4259 
Q 1275 4134 1275 3809 
L 1275 3500 
L 2222 3500 
L 2222 3053 
L 1275 3053 
L 1275 0 
L 697 0 
L 697 3053 
L 147 3053 
L 147 3500 
L 697 3500 
L 697 3744 
Q 697 4328 969 4595 
Q 1241 4863 1831 4863 
L 2375 4863 
z
" transform="scale(0.015625)"/>
       <path id="DejaVuSans-46" d="M 628 4666 
L 3309 4666 
L 3309 4134 
L 1259 4134 
L 1259 2759 
L 3109 2759 
L 3109 2228 
L 1259 2228 
L 1259 0 
L 628 0 
L 628 4666 
z
" transform="scale(0.015625)"/>
       <path id="DejaVuSans-45" d="M 628 4666 
L 3578 4666 
L 3578 4134 
L 1259 4134 
L 1259 2753 
L 3481 2753 
L 3481 2222 
L 1259 2222 
L 1259 531 
L 3634 531 
L 3634 0 
L 628 0 
L 628 4666 
z
" transform="scale(0.015625)"/>
       <path id="DejaVuSans-76" d="M 191 3500 
L 800 3500 
L 1894 563 
L 2988 3500 
L 3597 3500 
L 2284 0 
L 1503 0 
L 191 3500 
z
" transform="scale(0.015625)"/>
       <path id="DejaVuSans-61" d="M 2194 1759 
Q 1497 1759 1228 1600 
Q 959 1441 959 1056 
Q 959 750 1161 570 
Q 1363 391 1709 391 
Q 2188 391 2477 730 
Q 2766 1069 2766 1631 
L 2766 1759 
L 2194 1759 
z
M 3341 1997 
L 3341 0 
L 2766 0 
L 2766 531 
Q 2569 213 2275 61 
Q 1981 -91 1556 -91 
Q 1019 -91 701 211 
Q 384 513 384 1019 
Q 384 1609 779 1909 
Q 1175 2209 1959 2209 
L 2766 2209 
L 2766 2266 
Q 2766 2663 2505 2880 
Q 2244 3097 1772 3097 
Q 1472 3097 1187 3025 
Q 903 2953 641 2809 
L 641 3341 
Q 956 3463 1253 3523 
Q 1550 3584 1831 3584 
Q 2591 3584 2966 3190 
Q 3341 2797 3341 1997 
z
" transform="scale(0.015625)"/>
       <path id="DejaVuSans-73" d="M 2834 3397 
L 2834 2853 
Q 2591 2978 2328 3040 
Q 2066 3103 1784 3103 
Q 1356 3103 1142 2972 
Q 928 2841 928 2578 
Q 928 2378 1081 2264 
Q 1234 2150 1697 2047 
L 1894 2003 
Q 2506 1872 2764 1633 
Q 3022 1394 3022 966 
Q 3022 478 2636 193 
Q 2250 -91 1575 -91 
Q 1294 -91 989 -36 
Q 684 19 347 128 
L 347 722 
Q 666 556 975 473 
Q 1284 391 1588 391 
Q 1994 391 2212 530 
Q 2431 669 2431 922 
Q 2431 1156 2273 1281 
Q 2116 1406 1581 1522 
L 1381 1569 
Q 847 1681 609 1914 
Q 372 2147 372 2553 
Q 372 3047 722 3315 
Q 1072 3584 1716 3584 
Q 2034 3584 2315 3537 
Q 2597 3491 2834 3397 
z
" transform="scale(0.015625)"/>
       <path id="DejaVuSans-72" d="M 2631 2963 
Q 2534 3019 2420 3045 
Q 2306 3072 2169 3072 
Q 1681 3072 1420 2755 
Q 1159 2438 1159 1844 
L 1159 0 
L 581 0 
L 581 3500 
L 1159 3500 
L 1159 2956 
Q 1341 3275 1631 3429 
Q 1922 3584 2338 3584 
Q 2397 3584 2469 3576 
Q 2541 3569 2628 3553 
L 2631 2963 
z
" transform="scale(0.015625)"/>
       <path id="DejaVuSans-74" d="M 1172 4494 
L 1172 3500 
L 2356 3500 
L 2356 3053 
L 1172 3053 
L 1172 1153 
Q 1172 725 1289 603 
Q 1406 481 1766 481 
L 2356 481 
L 2356 0 
L 1766 0 
Q 1100 0 847 248 
Q 594 497 594 1153 
L 594 3053 
L 172 3053 
L 172 3500 
L 594 3500 
L 594 4494 
L 1172 4494 
z
" transform="scale(0.015625)"/>
       <path id="DejaVuSans-69" d="M 603 3500 
L 1178 3500 
L 1178 0 
L 603 0 
L 603 3500 
z
M 603 4863 
L 1178 4863 
L 1178 4134 
L 603 4134 
L 603 4863 
z
" transform="scale(0.015625)"/>
      </defs>
      <use xlink:href="#DejaVuSans-6c"/>
      <use xlink:href="#DejaVuSans-6f" x="27.783203"/>
      <use xlink:href="#DejaVuSans-67" x="88.964844"/>
      <use xlink:href="#DejaVuSans-31" x="152.441406"/>
      <use xlink:href="#DejaVuSans-30" x="216.064453"/>
      <use xlink:href="#DejaVuSans-20" x="279.6875"/>
      <use xlink:href="#DejaVuSans-6f" x="311.474609"/>
      <use xlink:href="#DejaVuSans-66" x="372.65625"/>
      <use xlink:href="#DejaVuSans-20" x="407.861328"/>
      <use xlink:href="#DejaVuSans-46" x="439.648438"/>
      <use xlink:href="#DejaVuSans-45" x="497.167969"/>
      <use xlink:href="#DejaVuSans-76" x="560.351562"/>
      <use xlink:href="#DejaVuSans-61" x="619.53125"/>
      <use xlink:href="#DejaVuSans-6c" x="680.810547"/>
      <use xlink:href="#DejaVuSans-73" x="708.59375"/>
      <use xlink:href="#DejaVuSans-20" x="760.693359"/>
      <use xlink:href="#DejaVuSans-72" x="792.480469"/>
      <use xlink:href="#DejaVuSans-61" x="833.59375"/>
      <use xlink:href="#DejaVuSans-74" x="894.873047"/>
      <use xlink:href="#DejaVuSans-69" x="934.082031"/>
      <use xlink:href="#DejaVuSans-6f" x="961.865234"/>
     </g>
    </g>
   </g>
   <g id="matplotlib.axis_2">
    <g id="ytick_1">
     <g id="line2d_7">
      <path d="M 34.16 288.453725 
L 453.192 288.453725 
" clip-path="url(#pcd0358e8f7)" style="fill: none; stroke: #b0b0b0; stroke-width: 0.8; stroke-linecap: square"/>
     </g>
     <g id="line2d_8">
      <defs>
       <path id="m47d1009d0c" d="M 0 0 
L -3.5 0 
" style="stroke: #000000; stroke-width: 0.8"/>
      </defs>
      <g>
       <use xlink:href="#m47d1009d0c" x="34.16" y="288.453725" style="stroke: #000000; stroke-width: 0.8"/>
      </g>
     </g>
    </g>
    <g id="ytick_2">
     <g id="line2d_9">
      <path d="M 34.16 217.796863 
L 453.192 217.796863 
" clip-path="url(#pcd0358e8f7)" style="fill: none; stroke: #b0b0b0; stroke-width: 0.8; stroke-linecap: square"/>
     </g>
     <g id="line2d_10">
      <g>
       <use xlink:href="#m47d1009d0c" x="34.16" y="217.796863" style="stroke: #000000; stroke-width: 0.8"/>
      </g>
     </g>
    </g>
    <g id="ytick_3">
     <g id="line2d_11">
      <path d="M 34.16 147.14 
L 453.192 147.14 
" clip-path="url(#pcd0358e8f7)" style="fill: none; stroke: #b0b0b0; stroke-width: 0.8; stroke-linecap: square"/>
     </g>
     <g id="line2d_12">
      <g>
       <use xlink:href="#m47d1009d0c" x="34.16" y="147.14" style="stroke: #000000; stroke-width: 0.8"/>
      </g>
     </g>
    </g>
    <g id="ytick_4">
     <g id="line2d_13">
      <path d="M 34.16 76.483137 
L 453.192 76.483137 
" clip-path="url(#pcd0358e8f7)" style="fill: none; stroke: #b0b0b0; stroke-width: 0.8; stroke-linecap: square"/>
     </g>
     <g id="line2d_14">
      <g>
       <use xlink:href="#m47d1009d0c" x="34.16" y="76.483137" style="stroke: #000000; stroke-width: 0.8"/>
      </g>
     </g>
    </g>
    <g id="ytick_5">
     <g id="line2d_15">
      <path d="M 34.16 5.826275 
L 453.192 5.826275 
" clip-path="url(#pcd0358e8f7)" style="fill: none; stroke: #b0b0b0; stroke-width: 0.8; stroke-linecap: square"/>
     </g>
     <g id="line2d_16">
      <g>
       <use xlink:href="#m47d1009d0c" x="34.16" y="5.826275" style="stroke: #000000; stroke-width: 0.8"/>
      </g>
     </g>
    </g>
    <g id="text_5">
     <!-- proportion of trials -->
     <g transform="translate(19.000625 240.14625) rotate(-90) scale(0.2 -0.2)">
      <defs>
       <path id="DejaVuSans-70" d="M 1159 525 
L 1159 -1331 
L 581 -1331 
L 581 3500 
L 1159 3500 
L 1159 2969 
Q 1341 3281 1617 3432 
Q 1894 3584 2278 3584 
Q 2916 3584 3314 3078 
Q 3713 2572 3713 1747 
Q 3713 922 3314 415 
Q 2916 -91 2278 -91 
Q 1894 -91 1617 61 
Q 1341 213 1159 525 
z
M 3116 1747 
Q 3116 2381 2855 2742 
Q 2594 3103 2138 3103 
Q 1681 3103 1420 2742 
Q 1159 2381 1159 1747 
Q 1159 1113 1420 752 
Q 1681 391 2138 391 
Q 2594 391 2855 752 
Q 3116 1113 3116 1747 
z
" transform="scale(0.015625)"/>
       <path id="DejaVuSans-6e" d="M 3513 2113 
L 3513 0 
L 2938 0 
L 2938 2094 
Q 2938 2591 2744 2837 
Q 2550 3084 2163 3084 
Q 1697 3084 1428 2787 
Q 1159 2491 1159 1978 
L 1159 0 
L 581 0 
L 581 3500 
L 1159 3500 
L 1159 2956 
Q 1366 3272 1645 3428 
Q 1925 3584 2291 3584 
Q 2894 3584 3203 3211 
Q 3513 2838 3513 2113 
z
" transform="scale(0.015625)"/>
      </defs>
      <use xlink:href="#DejaVuSans-70"/>
      <use xlink:href="#DejaVuSans-72" x="63.476562"/>
      <use xlink:href="#DejaVuSans-6f" x="102.339844"/>
      <use xlink:href="#DejaVuSans-70" x="163.521484"/>
      <use xlink:href="#DejaVuSans-6f" x="226.998047"/>
      <use xlink:href="#DejaVuSans-72" x="288.179688"/>
      <use xlink:href="#DejaVuSans-74" x="329.292969"/>
      <use xlink:href="#DejaVuSans-69" x="368.501953"/>
      <use xlink:href="#DejaVuSans-6f" x="396.285156"/>
      <use xlink:href="#DejaVuSans-6e" x="457.466797"/>
      <use xlink:href="#DejaVuSans-20" x="520.845703"/>
      <use xlink:href="#DejaVuSans-6f" x="552.632812"/>
      <use xlink:href="#DejaVuSans-66" x="613.814453"/>
      <use xlink:href="#DejaVuSans-20" x="649.019531"/>
      <use xlink:href="#DejaVuSans-74" x="680.806641"/>
      <use xlink:href="#DejaVuSans-72" x="720.015625"/>
      <use xlink:href="#DejaVuSans-69" x="761.128906"/>
      <use xlink:href="#DejaVuSans-61" x="788.912109"/>
      <use xlink:href="#DejaVuSans-6c" x="850.191406"/>
      <use xlink:href="#DejaVuSans-73" x="877.974609"/>
     </g>
    </g>
   </g>
   <g id="line2d_17">
    <path d="M 34.16 248.4565 
L 52.151272 248.4565 
L 52.151272 248.162403 
L 67.983031 248.162403 
L 67.983031 247.868306 
L 76.917685 247.868306 
L 76.917685 247.574209 
L 77.974399 247.574209 
L 77.974399 247.280111 
L 82.003236 247.280111 
L 82.003236 246.986014 
L 86.60043 246.986014 
L 86.60043 246.691917 
L 94.07788 246.691917 
L 94.07788 246.39782 
L 94.588542 246.39782 
L 94.588542 246.103722 
L 98.480648 246.103722 
L 98.480648 245.809625 
L 100.384027 245.809625 
L 100.384027 245.515528 
L 101.222809 245.515528 
L 101.222809 245.221431 
L 101.389809 245.221431 
L 101.389809 244.927333 
L 104.407439 244.927333 
L 104.407439 244.633236 
L 106.769649 244.633236 
L 106.769649 244.339139 
L 107.826363 244.339139 
L 107.826363 244.045042 
L 117.585161 244.045042 
L 117.585161 243.456847 
L 118.396332 243.456847 
L 118.396332 243.16275 
L 118.844294 243.16275 
L 118.844294 242.868653 
L 119.354955 242.868653 
L 119.354955 242.574556 
L 119.901008 242.574556 
L 119.901008 242.280458 
L 120.411669 242.280458 
L 120.411669 241.986361 
L 125.799225 241.986361 
L 125.799225 241.692264 
L 126.963337 241.692264 
L 126.963337 241.398167 
L 128.332612 241.398167 
L 128.332612 241.104069 
L 129.173852 241.104069 
L 129.173852 240.809972 
L 129.816974 240.809972 
L 129.816974 240.515875 
L 130.230566 240.515875 
L 130.235991 239.92768 
L 131.074773 239.92768 
L 131.074773 239.633583 
L 131.241773 239.633583 
L 131.241773 239.339486 
L 140.407257 239.339486 
L 140.407257 239.045389 
L 140.917918 239.045389 
L 140.917918 238.751291 
L 142.310636 238.751291 
L 142.351575 237.869 
L 142.821297 237.869 
L 142.821297 237.574902 
L 143.149418 237.574902 
L 143.162745 236.986708 
L 143.316418 236.986708 
L 143.408289 236.104416 
L 143.660079 236.104416 
L 143.660079 235.810319 
L 143.827079 235.810319 
L 143.827079 235.516222 
L 144.219459 235.516222 
L 144.219459 235.222124 
L 150.565638 235.222124 
L 150.565638 234.928027 
L 150.736815 234.928027 
L 150.736815 234.63393 
L 151.622352 234.63393 
L 151.622352 234.339833 
L 152.640194 234.339833 
L 152.640194 234.045735 
L 153.478976 234.045735 
L 153.478976 233.751638 
L 153.645976 233.751638 
L 153.645976 233.457541 
L 157.969128 233.457541 
L 157.969128 233.163444 
L 163.914538 233.163444 
L 163.914538 232.575249 
L 164.725708 232.575249 
L 164.725708 232.281152 
L 165.817917 232.281152 
L 165.817917 231.692957 
L 166.629087 231.692957 
L 166.656699 230.810666 
L 166.823699 230.810666 
L 166.823699 230.222471 
L 167.467869 230.222471 
L 167.467869 229.928374 
L 167.634869 229.928374 
L 167.634869 229.634277 
L 169.51408 229.634277 
L 169.51408 229.34018 
L 172.128601 229.34018 
L 172.128601 229.046082 
L 174.03198 229.046082 
L 174.03198 228.751985 
L 174.733549 228.751985 
L 174.733549 228.457888 
L 174.870762 228.457888 
L 174.870762 228.163791 
L 175.037762 228.163791 
L 175.037762 227.869693 
L 178.133599 227.869693 
L 178.133599 227.575596 
L 182.639447 227.575596 
L 182.639447 227.281499 
L 185.558394 227.281499 
L 185.558394 226.987402 
L 187.821092 226.987402 
L 187.867824 226.399207 
L 189.321137 226.399207 
L 189.321137 226.10511 
L 190.155112 226.10511 
L 190.155112 225.811013 
L 191.219585 225.811013 
L 191.219585 225.516915 
L 191.419833 225.516915 
L 191.496532 224.928721 
L 192.635267 224.928721 
L 192.635267 224.634624 
L 192.836821 224.634624 
L 192.836821 224.340526 
L 193.080797 224.340526 
L 193.080797 224.046429 
L 194.540606 224.046429 
L 194.645195 223.458235 
L 196.483734 223.458235 
L 196.483734 223.164137 
L 196.730163 223.164137 
L 196.730163 222.87004 
L 197.074025 222.87004 
L 197.074025 222.575943 
L 197.422566 222.575943 
L 197.422566 222.281846 
L 197.940656 222.281846 
L 197.940656 221.987748 
L 198.151832 221.987748 
L 198.151832 221.693651 
L 199.136446 221.693651 
L 199.136446 221.399554 
L 199.895737 221.399554 
L 199.895737 221.105457 
L 200.406398 221.105457 
L 200.406398 220.811359 
L 200.574908 220.811359 
L 200.574908 220.517262 
L 201.578037 220.517262 
L 201.578037 220.223165 
L 202.069772 220.223165 
L 202.069772 219.929068 
L 202.446505 219.929068 
L 202.446505 219.634971 
L 202.798235 219.634971 
L 202.798235 219.340873 
L 203.936971 219.340873 
L 203.936971 219.046776 
L 205.365452 219.046776 
L 205.365452 218.752679 
L 205.608815 218.752679 
L 205.608815 218.458582 
L 206.825986 218.458582 
L 206.825986 218.164484 
L 207.117095 218.164484 
L 207.117095 217.870387 
L 207.555907 217.870387 
L 207.555907 217.57629 
L 207.674882 217.57629 
L 207.674882 217.282193 
L 207.881914 217.282193 
L 207.881914 216.988095 
L 208.017705 216.988095 
L 208.017705 216.693998 
L 209.15644 216.693998 
L 209.15644 216.399901 
L 209.627091 216.399901 
L 209.627091 216.105804 
L 210.225295 216.105804 
L 210.225295 215.811706 
L 210.651921 215.811706 
L 210.651921 215.517609 
L 210.824475 215.517609 
L 210.824475 215.223512 
L 211.026643 215.223512 
L 211.026643 214.929415 
L 211.180132 214.929415 
L 211.180132 214.34122 
L 211.303589 214.34122 
L 211.303589 214.047123 
L 211.417754 214.047123 
L 211.417754 213.753026 
L 212.442325 213.753026 
L 212.442325 213.458928 
L 212.55649 213.458928 
L 212.55649 213.164831 
L 213.166134 213.164831 
L 213.166134 212.870734 
L 214.190963 212.870734 
L 214.190963 212.576637 
L 214.664024 212.576637 
L 214.719174 211.694345 
L 215.218164 211.694345 
L 215.218164 211.400248 
L 215.329981 211.400248 
L 215.329981 211.10615 
L 215.850723 211.10615 
L 215.942377 210.223859 
L 216.358928 210.223859 
L 216.358928 209.929761 
L 216.537221 209.929761 
L 216.537221 209.635664 
L 216.809063 209.635664 
L 216.881083 209.04747 
L 217.062338 209.04747 
L 217.062338 208.753373 
L 217.229623 208.753373 
L 217.229623 208.459275 
L 217.847889 208.459275 
L 217.847889 208.165178 
L 218.381794 208.165178 
L 218.381794 207.871081 
L 218.523918 207.871081 
L 218.523918 207.576984 
L 218.757206 207.576984 
L 218.84255 206.988789 
L 219.056296 206.988789 
L 219.056296 206.694692 
L 219.363094 206.694692 
L 219.411608 205.518303 
L 219.934835 205.518303 
L 219.981285 204.636011 
L 220.29491 204.636011 
L 220.29491 204.341914 
L 220.468323 204.341914 
L 220.468323 204.047817 
L 220.757991 204.047817 
L 220.757991 203.753719 
L 221.15198 203.753719 
L 221.250147 203.165525 
L 221.271797 203.165525 
L 221.271797 202.871428 
L 221.386931 202.871428 
L 221.386931 202.57733 
L 222.290715 202.57733 
L 222.380381 201.400941 
L 222.609364 201.400941 
L 222.688784 200.812747 
L 222.918245 200.812747 
L 222.932761 200.224552 
L 223.049278 200.224552 
L 223.049278 199.930455 
L 223.403018 199.930455 
L 223.403018 199.342261 
L 223.829562 199.342261 
L 223.829562 199.048163 
L 223.972867 199.048163 
L 223.974959 198.459969 
L 224.178709 198.459969 
L 224.275765 197.577677 
L 224.366382 197.577677 
L 224.366382 197.28358 
L 224.503741 197.28358 
L 224.605426 196.401288 
L 224.763992 196.401288 
L 224.780688 195.813094 
L 225.391212 195.813094 
L 225.391212 195.518997 
L 225.642476 195.518997 
L 225.642476 195.224899 
L 225.919423 195.224899 
L 225.919423 193.754413 
L 226.173307 193.754413 
L 226.173307 193.460316 
L 226.499314 193.460316 
L 226.602592 192.872121 
L 226.73274 192.872121 
L 226.837705 192.283927 
L 226.924153 192.283927 
L 226.924153 191.98983 
L 227.058158 191.98983 
L 227.058158 191.695732 
L 227.195995 191.695732 
L 227.195995 191.401635 
L 227.675815 191.401635 
L 227.675815 191.107538 
L 227.851578 191.107538 
L 227.851578 190.813441 
L 228.073407 190.813441 
L 228.073407 190.519343 
L 228.241745 190.519343 
L 228.31531 189.637052 
L 228.988409 189.637052 
L 229.049031 189.048857 
L 229.34014 189.048857 
L 229.34014 188.75476 
L 229.572815 188.75476 
L 229.572815 188.460663 
L 229.868351 188.460663 
L 229.957455 187.578371 
L 230.014319 187.578371 
L 230.014319 187.284274 
L 230.352814 187.284274 
L 230.358181 186.696079 
L 230.590014 186.696079 
L 230.590014 186.401982 
L 230.706721 186.401982 
L 230.706721 186.107885 
L 230.838125 186.107885 
L 230.838125 185.51969 
L 231.135084 185.51969 
L 231.153054 184.931496 
L 231.430001 184.931496 
L 231.496916 184.049204 
L 231.617081 184.049204 
L 231.668797 183.46101 
L 231.736028 183.46101 
L 231.845457 182.578718 
L 231.952209 182.578718 
L 231.952209 182.284621 
L 232.181664 182.284621 
L 232.181664 181.990523 
L 232.449081 181.990523 
L 232.449081 181.696426 
L 232.58718 181.696426 
L 232.58718 181.402329 
L 232.760857 181.402329 
L 232.760857 181.108232 
L 233.071047 181.108232 
L 233.071047 180.814134 
L 233.289068 180.814134 
L 233.346442 179.637745 
L 233.857103 179.637745 
L 233.906383 179.049551 
L 234.04514 179.049551 
L 234.04514 178.755454 
L 234.395024 178.755454 
L 234.395024 178.461356 
L 234.538942 178.461356 
L 234.538942 178.167259 
L 234.753314 178.167259 
L 234.763429 177.579065 
L 235.007406 177.579065 
L 235.100611 176.99087 
L 235.274091 176.99087 
L 235.352258 176.108578 
L 235.407409 176.108578 
L 235.518067 175.226287 
L 235.572284 175.226287 
L 235.572284 174.93219 
L 235.778144 174.93219 
L 235.799064 174.343995 
L 235.948064 174.343995 
L 235.948064 173.755801 
L 236.174646 173.755801 
L 236.174646 173.461703 
L 236.306355 173.461703 
L 236.306355 172.873509 
L 236.471097 172.873509 
L 236.536108 172.285314 
L 236.61612 172.285314 
L 236.61612 171.991217 
L 236.823894 171.991217 
L 236.823894 171.69712 
L 236.954929 171.69712 
L 237.028017 171.108925 
L 237.119671 171.108925 
L 237.130134 170.520731 
L 237.3271 170.520731 
L 237.410041 169.344342 
L 237.959659 169.344342 
L 238.052983 168.756147 
L 238.154964 168.756147 
L 238.154964 168.46205 
L 238.395444 168.46205 
L 238.395444 167.873856 
L 238.683175 167.873856 
L 238.683175 167.285661 
L 238.972333 167.285661 
L 239.005409 166.697467 
L 239.093593 166.697467 
L 239.170151 166.109272 
L 239.264609 166.109272 
L 239.355672 165.22698 
L 239.420274 165.22698 
L 239.420274 164.638786 
L 239.727072 164.638786 
L 239.727072 164.344689 
L 239.858107 164.344689 
L 239.956825 162.286008 
L 239.986097 162.286008 
L 240.030239 161.697814 
L 240.344387 161.697814 
L 240.401251 161.109619 
L 240.509341 161.109619 
L 240.618655 159.639133 
L 240.761802 159.639133 
L 240.761802 159.345036 
L 240.974571 159.345036 
L 241.0686 157.580452 
L 241.390137 157.580452 
L 241.403023 156.992258 
L 241.518619 156.992258 
L 241.573715 156.109966 
L 242.022696 156.109966 
L 242.022696 155.815869 
L 242.177484 155.815869 
L 242.183306 155.227674 
L 242.615821 155.227674 
L 242.721207 154.345382 
L 242.777054 154.345382 
L 242.87795 153.463091 
L 242.974112 153.463091 
L 242.974112 153.168993 
L 243.222584 153.168993 
L 243.290331 152.580799 
L 243.353765 152.580799 
L 243.381392 151.992605 
L 243.478182 151.992605 
L 243.504646 151.40441 
L 243.676 151.40441 
L 243.716732 150.816216 
L 243.883732 150.816216 
L 243.986517 149.639827 
L 244.015307 149.639827 
L 244.019862 149.051632 
L 244.173439 149.051632 
L 244.173439 148.757535 
L 244.347046 148.757535 
L 244.347046 148.463438 
L 244.481208 148.463438 
L 244.515988 147.581146 
L 244.596482 147.581146 
L 244.642806 146.404757 
L 244.71649 146.404757 
L 244.754784 145.816562 
L 245.03173 145.816562 
L 245.092987 144.934271 
L 245.198269 144.934271 
L 245.229041 144.346076 
L 245.336964 144.346076 
L 245.350931 143.757882 
L 245.535067 143.757882 
L 245.610302 142.87559 
L 245.722271 142.87559 
L 245.812014 141.405104 
L 246.170466 141.405104 
L 246.27238 140.522812 
L 246.384587 140.522812 
L 246.493929 139.64052 
L 246.616242 139.64052 
L 246.643301 138.170034 
L 246.950749 138.170034 
L 246.964782 137.58184 
L 247.148313 137.58184 
L 247.226207 135.817256 
L 247.390369 135.817256 
L 247.390369 135.523159 
L 247.506603 135.523159 
L 247.506603 135.229062 
L 247.78355 135.229062 
L 247.78355 134.934964 
L 247.921515 134.934964 
L 247.921515 134.640867 
L 248.181849 134.640867 
L 248.181849 134.34677 
L 248.438245 134.34677 
L 248.503512 133.758575 
L 248.552353 133.758575 
L 248.552353 133.464478 
L 248.706559 133.464478 
L 248.715192 132.876284 
L 249.302298 132.876284 
L 249.302298 132.582186 
L 249.557083 132.582186 
L 249.660588 131.993992 
L 249.764512 131.993992 
L 249.853927 131.1117 
L 249.883423 131.1117 
L 249.883423 130.817603 
L 250.089454 130.817603 
L 250.089454 130.523506 
L 250.265362 130.523506 
L 250.265362 130.229409 
L 250.397071 130.229409 
L 250.442857 129.641214 
L 250.609224 129.641214 
L 250.706338 129.05302 
L 250.748802 129.05302 
L 250.748802 128.758922 
L 250.957764 128.758922 
L 251.054192 127.582533 
L 251.148733 127.582533 
L 251.201374 126.700242 
L 251.322592 126.700242 
L 251.392612 125.81795 
L 251.56932 125.81795 
L 251.56932 125.523853 
L 251.738048 125.523853 
L 251.833933 124.347464 
L 252.037408 124.347464 
L 252.05832 123.759269 
L 252.335267 123.759269 
L 252.398884 122.876977 
L 252.461327 122.876977 
L 252.461327 122.58288 
L 252.64725 122.58288 
L 252.64725 122.288783 
L 253.302718 122.288783 
L 253.397509 121.406491 
L 253.474002 121.406491 
L 253.474002 121.112394 
L 253.722981 121.112394 
L 253.831099 120.230102 
L 253.834204 120.230102 
L 253.912683 119.34781 
L 253.948823 119.34781 
L 253.948823 119.053713 
L 254.062932 119.053713 
L 254.062932 118.759616 
L 254.292685 118.759616 
L 254.292685 118.465519 
L 254.641226 118.465519 
L 254.641226 118.171422 
L 255.067662 118.171422 
L 255.067662 117.877324 
L 255.411523 117.877324 
L 255.411523 117.583227 
L 255.716236 117.583227 
L 255.760064 116.700935 
L 255.968271 116.700935 
L 256.067967 115.818644 
L 256.52257 115.818644 
L 256.590632 114.936352 
L 256.659312 114.936352 
L 256.659312 114.642255 
L 256.853723 114.642255 
L 256.926729 113.465866 
L 257.101294 113.465866 
L 257.166327 112.289477 
L 257.568898 112.289477 
L 257.664893 111.407185 
L 257.91276 111.407185 
L 257.926611 110.81899 
L 258.2613 110.81899 
L 258.363591 109.642601 
L 258.514687 109.642601 
L 258.514687 109.054407 
L 259.080713 109.054407 
L 259.136953 108.172115 
L 259.25768 108.172115 
L 259.368321 107.289824 
L 259.382097 107.289824 
L 259.382097 106.995726 
L 259.534129 106.995726 
L 259.534129 106.701629 
L 260.517575 106.701629 
L 260.522991 105.819337 
L 260.652294 105.819337 
L 260.652294 105.52524 
L 261.132956 105.52524 
L 261.132956 105.231143 
L 261.261223 105.231143 
L 261.287436 104.642948 
L 261.432577 104.642948 
L 261.432577 104.348851 
L 261.605085 104.348851 
L 261.628879 103.760657 
L 261.79595 103.760657 
L 261.79595 103.466559 
L 261.953626 103.466559 
L 261.953626 103.172462 
L 262.15424 103.172462 
L 262.15424 102.878365 
L 262.356464 102.878365 
L 262.356464 102.584268 
L 262.522841 102.584268 
L 262.522841 102.29017 
L 262.817635 102.29017 
L 262.817635 101.996073 
L 263.19999 101.996073 
L 263.19999 101.701976 
L 263.331025 101.701976 
L 263.331025 101.407879 
L 263.874169 101.407879 
L 263.874169 101.113781 
L 264.335755 101.113781 
L 264.335755 100.819684 
L 264.53106 100.819684 
L 264.570335 99.349198 
L 264.687486 99.349198 
L 264.687486 99.055101 
L 264.853294 99.055101 
L 264.853294 98.761003 
L 265.046634 98.761003 
L 265.067786 98.172809 
L 265.381505 98.172809 
L 265.454593 97.584614 
L 265.756514 97.584614 
L 265.79637 96.702323 
L 266.285032 96.702323 
L 266.300986 96.114128 
L 266.406335 96.114128 
L 266.484774 95.231837 
L 266.536213 95.231837 
L 266.536213 94.937739 
L 266.72875 94.937739 
L 266.793116 93.76135 
L 266.857257 93.76135 
L 266.920191 92.879059 
L 267.011927 92.879059 
L 267.011927 92.290864 
L 267.341746 92.290864 
L 267.341746 91.996767 
L 267.595456 91.996767 
L 267.595456 91.70267 
L 267.737848 91.70267 
L 267.823097 90.820378 
L 267.95583 90.820378 
L 267.95583 90.526281 
L 268.802223 90.526281 
L 268.905311 89.938086 
L 269.102546 89.938086 
L 269.193334 89.349892 
L 269.38985 89.349892 
L 269.410739 88.761697 
L 269.715858 88.761697 
L 269.769029 88.173503 
L 269.892486 88.173503 
L 269.892486 87.879405 
L 270.209017 87.879405 
L 270.262363 87.291211 
L 270.485964 87.291211 
L 270.485964 86.997114 
L 270.814779 86.997114 
L 270.814779 86.703016 
L 271.574365 86.703016 
L 271.648155 85.820725 
L 272.112282 85.820725 
L 272.145849 85.23253 
L 272.454307 85.23253 
L 272.551482 84.644336 
L 272.731254 84.644336 
L 272.784398 83.762044 
L 272.898293 83.762044 
L 272.909772 83.17385 
L 273.011227 83.17385 
L 273.011227 82.585655 
L 273.18131 82.585655 
L 273.18131 82.291558 
L 273.411159 82.291558 
L 273.411159 81.703363 
L 273.678576 81.703363 
L 273.678576 81.409266 
L 273.869989 81.409266 
L 273.955523 80.821072 
L 274.021124 80.821072 
L 274.021124 80.526974 
L 274.149963 80.526974 
L 274.149963 80.232877 
L 274.421712 80.232877 
L 274.421712 79.93878 
L 274.86553 79.93878 
L 274.86553 79.644683 
L 275.22599 79.644683 
L 275.286592 79.056488 
L 275.49074 79.056488 
L 275.49074 78.762391 
L 275.719596 78.762391 
L 275.719596 78.468294 
L 276.063458 78.468294 
L 276.171868 77.880099 
L 276.411998 77.880099 
L 276.411998 77.586002 
L 276.551903 77.586002 
L 276.581754 76.70371 
L 277.161868 76.70371 
L 277.161868 76.409613 
L 277.700592 76.409613 
L 277.773472 75.821418 
L 277.964885 75.821418 
L 278.050419 75.233224 
L 278.308747 75.233224 
L 278.308747 74.939127 
L 278.657288 74.939127 
L 278.657288 74.645029 
L 278.830864 74.645029 
L 278.842501 74.056835 
L 279.119447 74.056835 
L 279.189154 72.880446 
L 280.097913 72.880446 
L 280.201829 71.998154 
L 280.234905 71.998154 
L 280.258183 71.40996 
L 280.626017 71.40996 
L 280.626017 71.115863 
L 280.909084 71.115863 
L 280.909084 70.821765 
L 281.565974 70.821765 
L 281.565974 70.527668 
L 282.329898 70.527668 
L 282.329898 70.233571 
L 282.831285 70.233571 
L 282.831285 69.645376 
L 283.284051 69.645376 
L 283.284051 69.351279 
L 283.44125 69.351279 
L 283.44125 69.057182 
L 283.627913 69.057182 
L 283.627913 68.763085 
L 283.744298 68.763085 
L 283.76676 68.17489 
L 283.894154 68.17489 
L 283.976453 67.586696 
L 284.353079 67.586696 
L 284.353079 67.292598 
L 284.696941 67.292598 
L 284.696941 66.998501 
L 285.045481 66.998501 
L 285.045481 66.704404 
L 286.106528 66.704404 
L 286.106528 66.410307 
L 286.597935 66.410307 
L 286.597935 66.116209 
L 287.847995 66.116209 
L 287.847995 65.822112 
L 288.043253 65.822112 
L 288.043253 65.233918 
L 288.311977 65.233918 
L 288.351817 64.645723 
L 288.60928 64.645723 
L 288.60928 64.351626 
L 288.854424 64.351626 
L 288.854424 64.057529 
L 289.269288 64.057529 
L 289.269288 63.763431 
L 289.751374 63.763431 
L 289.751374 63.469334 
L 290.046142 63.469334 
L 290.046142 63.175237 
L 290.590156 63.175237 
L 290.590156 62.88114 
L 290.757156 62.88114 
L 290.757156 62.587043 
L 293.26227 62.587043 
L 293.26227 62.292945 
L 293.670982 62.292945 
L 293.670982 61.998848 
L 294.042554 61.998848 
L 294.042554 61.704751 
L 294.740011 61.704751 
L 294.740011 61.410654 
L 296.257317 61.410654 
L 296.257317 61.116556 
L 296.945732 61.116556 
L 296.945732 60.822459 
L 298.06457 60.822459 
L 298.06457 60.528362 
L 298.352526 60.528362 
L 298.352526 60.234265 
L 300.463051 60.234265 
L 300.565806 59.64607 
L 300.597816 59.64607 
L 300.597816 59.351973 
L 302.30159 59.351973 
L 302.30159 59.057876 
L 303.969688 59.057876 
L 303.969688 58.763778 
L 304.258132 58.763778 
L 304.258132 58.469681 
L 305.916981 58.469681 
L 305.916981 58.175584 
L 306.98601 58.175584 
L 306.98601 57.881487 
L 318.716504 57.881487 
L 318.716504 57.587389 
L 320.961794 57.587389 
L 320.961794 57.293292 
L 324.341774 57.293292 
L 324.341774 56.999195 
L 326.280959 56.999195 
L 326.280959 56.705098 
L 327.349987 56.705098 
L 327.349987 56.411 
L 333.913756 56.411 
L 333.913756 56.116903 
L 335.330744 56.116903 
L 335.330744 55.822806 
L 335.57472 55.822806 
L 335.57472 55.528709 
L 335.752296 55.528709 
L 335.752296 55.234611 
L 337.169283 55.234611 
L 337.169283 54.940514 
L 337.413259 54.940514 
L 337.420393 54.35232 
L 338.837381 54.35232 
L 338.837381 54.058222 
L 339.081357 54.058222 
L 339.081357 53.764125 
L 341.630369 53.764125 
L 341.630369 53.470028 
L 343.468908 53.470028 
L 343.468908 53.175931 
L 344.071961 53.175931 
L 344.071961 52.881833 
L 345.137005 52.881833 
L 345.137005 52.587736 
L 345.9105 52.587736 
L 345.9105 52.293639 
L 346.398862 52.293639 
L 346.398862 51.999542 
L 346.72487 51.999542 
L 346.72487 51.705444 
L 347.336475 51.705444 
L 347.336475 51.411347 
L 347.578597 51.411347 
L 347.578597 51.11725 
L 354.902858 51.11725 
L 354.902858 50.823153 
L 355.228865 50.823153 
L 355.228865 50.529056 
L 355.515253 50.529056 
L 355.515253 50.234958 
L 355.841261 50.234958 
L 355.931804 49.646764 
L 356.257812 49.646764 
L 356.257812 49.352667 
L 357.157947 49.352667 
L 357.157947 49.058569 
L 357.792479 49.058569 
L 357.792479 48.764472 
L 358.996486 48.764472 
L 358.996486 48.470375 
L 359.209467 48.470375 
L 359.209467 48.176278 
L 359.453443 48.176278 
L 359.453443 47.88218 
L 360.664584 47.88218 
L 360.664584 47.588083 
L 363.606947 47.588083 
L 363.606947 47.293986 
L 365.103287 47.293986 
L 365.103287 46.999889 
L 365.509092 46.999889 
L 365.509092 46.705791 
L 366.941826 46.705791 
L 366.941826 46.411694 
L 367.950684 46.411694 
L 367.950684 46.117597 
L 368.609924 46.117597 
L 368.609924 45.8235 
L 372.110942 45.8235 
L 372.110942 45.529402 
L 372.723338 45.529402 
L 372.723338 45.235305 
L 373.139889 45.235305 
L 373.139889 44.941208 
L 374.980285 44.941208 
L 374.980285 44.647111 
L 375.306293 44.647111 
L 375.306293 44.353013 
L 380.78718 44.353013 
L 380.78718 44.058916 
L 381.03667 44.058916 
L 381.03667 43.764819 
L 382.204168 43.764819 
L 382.204168 43.470722 
L 382.448144 43.470722 
L 382.448144 43.176624 
L 388.503792 43.176624 
L 388.503792 42.882527 
L 388.98201 42.882527 
L 388.98201 42.58843 
L 390.945384 42.58843 
L 390.945384 42.294333 
L 392.18837 42.294333 
L 392.18837 42.000235 
L 404.031371 42.000235 
L 404.031371 41.706138 
L 411.976711 41.706138 
L 411.976711 41.412041 
L 453.192 41.412041 
L 453.192 41.412041 
" clip-path="url(#pcd0358e8f7)" style="fill: none; stroke: #000000; stroke-width: 3; stroke-linecap: square"/>
   </g>
   <g id="line2d_18">
    <path clip-path="url(#pcd0358e8f7)" style="fill: none; stroke: #000000; stroke-width: 3; stroke-linecap: square"/>
   </g>
   <g id="line2d_19">
    <path d="M 34.16 261.536825 
L 109.065685 261.536825 
L 109.065685 261.08821 
L 116.093936 261.08821 
L 116.093936 260.639595 
L 130.856446 260.639595 
L 130.856446 260.19098 
L 137.884697 260.19098 
L 137.884697 259.742365 
L 149.070039 259.742365 
L 149.070039 259.29375 
L 156.09829 259.29375 
L 156.09829 258.845135 
L 164.973852 258.845135 
L 164.973852 258.39652 
L 165.475424 258.39652 
L 165.475424 257.947905 
L 165.603652 257.947905 
L 165.603652 257.49929 
L 166.11521 257.49929 
L 166.11521 257.050675 
L 166.238782 257.050675 
L 166.238782 256.60206 
L 166.536515 256.60206 
L 166.536515 256.153445 
L 167.003854 256.153445 
L 167.003854 255.70483 
L 167.569429 255.70483 
L 167.569429 255.256215 
L 168.091048 255.256215 
L 168.091048 254.8076 
L 169.879973 254.8076 
L 169.962052 253.91037 
L 171.17657 253.91037 
L 171.17657 253.461755 
L 171.730514 253.461755 
L 171.840859 252.564525 
L 172.367556 252.564525 
L 172.367556 252.11591 
L 172.839635 252.11591 
L 172.839635 251.667295 
L 173.341207 251.667295 
L 173.341207 251.21868 
L 173.469435 251.21868 
L 173.469435 250.770065 
L 173.980993 250.770065 
L 173.980993 250.32145 
L 174.104564 250.32145 
L 174.104564 249.872835 
L 174.869637 249.872835 
L 174.869637 249.42422 
L 175.435212 249.42422 
L 175.435212 248.975605 
L 175.956831 248.975605 
L 175.956831 248.52699 
L 176.908225 248.52699 
L 176.990303 247.62976 
L 178.204821 247.62976 
L 178.204821 247.181145 
L 178.758765 247.181145 
L 178.86911 246.283915 
L 179.395807 246.283915 
L 179.395807 245.8353 
L 180.758252 245.8353 
L 180.758252 245.386685 
L 181.767503 245.386685 
L 181.767503 244.93807 
L 188.327276 244.93807 
L 188.327276 244.489455 
L 202.549013 244.489455 
L 202.63926 243.592225 
L 202.917675 243.592225 
L 202.917675 243.14361 
L 203.528364 243.14361 
L 203.558264 242.24638 
L 206.540869 242.24638 
L 206.540869 241.797765 
L 206.907815 241.797765 
L 206.907815 241.34915 
L 214.221103 241.34915 
L 214.221103 240.900535 
L 214.382649 240.900535 
L 214.428395 240.003305 
L 214.589941 240.003305 
L 214.589941 239.55469 
L 214.773597 239.55469 
L 214.773597 239.106075 
L 218.883669 239.106075 
L 218.883669 238.65746 
L 220.762607 238.65746 
L 220.762607 238.208845 
L 221.122458 238.208845 
L 221.122458 237.76023 
L 221.771857 237.76023 
L 221.771857 237.311615 
L 224.430021 237.311615 
L 224.430021 236.863 
L 224.708436 236.863 
L 224.708436 236.414385 
L 225.319125 236.414385 
L 225.319125 235.96577 
L 225.608277 235.96577 
L 225.608277 235.517155 
L 225.739421 235.517155 
L 225.739421 235.06854 
L 225.946713 235.06854 
L 225.946713 234.619925 
L 226.487262 234.619925 
L 226.487262 234.17131 
L 226.749452 234.17131 
L 226.749452 233.722695 
L 227.011955 233.722695 
L 227.011955 233.27408 
L 227.350803 233.27408 
L 227.432882 232.37685 
L 228.6474 232.37685 
L 228.6474 231.928235 
L 228.784869 231.928235 
L 228.868589 231.031005 
L 228.946415 231.031005 
L 229.030135 230.133775 
L 229.201344 230.133775 
L 229.311689 228.78793 
L 229.49696 228.78793 
L 229.49696 228.339315 
L 229.838386 228.339315 
L 229.838386 227.8907 
L 230.353126 227.8907 
L 230.353126 227.442085 
L 230.514672 227.442085 
L 230.600848 226.544855 
L 231.270421 226.544855 
L 231.270421 226.09624 
L 231.431967 226.09624 
L 231.431967 225.647625 
L 231.625728 225.647625 
L 231.625728 225.19901 
L 232.127299 225.19901 
L 232.127299 224.750395 
L 232.255527 224.750395 
L 232.255527 224.30178 
L 232.636528 224.30178 
L 232.636528 223.853165 
L 232.767086 223.853165 
L 232.767086 223.40455 
L 232.890657 223.40455 
L 232.890657 222.955935 
L 233.65573 222.955935 
L 233.65573 222.50732 
L 233.935573 222.50732 
L 234.040206 221.61009 
L 234.221305 221.61009 
L 234.221305 221.161475 
L 234.437145 221.161475 
L 234.437145 220.71286 
L 234.565373 220.71286 
L 234.565373 220.264245 
L 234.742924 220.264245 
L 234.742924 219.81563 
L 235.076931 219.81563 
L 235.076931 219.367015 
L 235.200502 219.367015 
L 235.200502 218.9184 
L 235.73066 218.9184 
L 235.755738 218.02117 
L 235.917284 218.02117 
L 235.965575 217.12394 
L 236.53115 217.12394 
L 236.53115 216.675325 
L 237.052769 216.675325 
L 237.052769 216.22671 
L 238.242958 216.22671 
L 238.242958 215.778095 
L 238.371496 215.778095 
L 238.466631 214.880865 
L 238.873067 214.880865 
L 238.873067 214.43225 
L 239.001295 214.43225 
L 239.001295 213.983635 
L 239.512854 213.983635 
L 239.59648 213.086405 
L 239.636425 213.086405 
L 239.719336 212.189175 
L 240.303186 212.189175 
L 240.401498 210.84333 
L 240.967073 210.84333 
L 240.967073 210.394715 
L 241.191756 210.394715 
L 241.191756 209.9461 
L 241.488692 209.9461 
L 241.572541 209.04887 
L 241.602514 209.04887 
L 241.667712 207.703025 
L 241.871444 207.703025 
L 241.871444 207.25441 
L 242.104086 207.25441 
L 242.169284 205.908565 
L 242.232314 205.908565 
L 242.297512 205.011335 
L 242.581792 205.011335 
L 242.66387 203.66549 
L 242.743872 203.66549 
L 242.818949 201.422415 
L 242.867444 201.422415 
L 242.958511 198.730725 
L 242.984422 198.730725 
L 242.984422 198.28211 
L 243.176641 198.28211 
L 243.176641 197.833495 
L 243.32052 197.833495 
L 243.423081 196.48765 
L 243.448748 196.48765 
L 243.533426 194.69319 
L 243.596443 194.69319 
L 243.697714 192.89873 
L 243.853433 192.89873 
L 243.960307 190.655655 
L 243.995099 190.655655 
L 244.083878 188.861195 
L 244.12578 188.861195 
L 244.198092 187.963965 
L 244.249352 187.963965 
L 244.26329 186.61812 
L 244.432332 186.61812 
L 244.542677 184.82366 
L 244.624898 184.82366 
L 244.71971 183.92643 
L 244.784908 183.92643 
L 244.84895 183.0292 
L 244.999588 183.0292 
L 245.069374 181.683355 
L 245.127816 181.683355 
L 245.136457 180.786125 
L 245.260028 180.786125 
L 245.271209 179.888895 
L 245.414526 179.888895 
L 245.42169 178.991665 
L 245.58 178.991665 
L 245.639375 178.094435 
L 245.762946 178.094435 
L 245.762946 177.64582 
L 245.936144 177.64582 
L 246.025101 176.74859 
L 246.101618 176.74859 
L 246.101618 176.299975 
L 246.338985 176.299975 
L 246.338985 175.85136 
L 246.528019 175.85136 
L 246.590676 174.95413 
L 247.093594 174.95413 
L 247.112295 174.0569 
L 247.274055 174.0569 
L 247.274055 173.608285 
L 247.585119 173.608285 
L 247.615213 172.711055 
L 247.83905 172.711055 
L 247.83905 172.26244 
L 248.220007 172.26244 
L 248.278023 171.36521 
L 248.340621 171.36521 
L 248.340621 170.916595 
L 248.468849 170.916595 
L 248.468849 170.46798 
L 248.980408 170.46798 
L 248.980408 170.019365 
L 249.103979 170.019365 
L 249.103979 169.57075 
L 249.869051 169.57075 
L 249.869051 169.122135 
L 250.017431 169.122135 
L 250.017431 168.67352 
L 250.434627 168.67352 
L 250.434627 168.224905 
L 250.824302 168.224905 
L 250.824302 167.77629 
L 250.956245 167.77629 
L 250.966457 166.87906 
L 257.314984 166.87906 
L 257.398705 165.98183 
L 257.740406 165.98183 
L 257.824127 165.0846 
L 258.612193 165.0846 
L 258.695913 164.18737 
L 258.883241 164.18737 
L 258.883241 163.738755 
L 259.308664 163.738755 
L 259.308664 163.29014 
L 259.800536 163.29014 
L 259.800536 162.841525 
L 260.18045 162.841525 
L 260.280726 161.49568 
L 260.782297 161.49568 
L 260.782297 161.047065 
L 260.910525 161.047065 
L 260.910525 160.59845 
L 261.097745 160.59845 
L 261.126812 159.70122 
L 261.387241 159.70122 
L 261.422084 158.80399 
L 261.545655 158.80399 
L 261.545655 158.355375 
L 262.310727 158.355375 
L 262.310727 157.90676 
L 262.876303 157.90676 
L 262.876303 157.458145 
L 263.102809 157.458145 
L 263.148597 156.560915 
L 263.397922 156.560915 
L 263.453548 155.663685 
L 263.535627 155.663685 
L 263.60438 154.766455 
L 263.650168 154.766455 
L 263.732608 153.42061 
L 263.778396 153.42061 
L 263.814042 152.52338 
L 264.244167 152.52338 
L 264.342653 150.72892 
L 264.367738 150.72892 
L 264.424731 149.383075 
L 264.711276 149.383075 
L 264.750145 148.485845 
L 265.028561 148.485845 
L 265.13281 147.588615 
L 265.178599 147.588615 
L 265.178599 147.14 
L 265.304088 147.14 
L 265.414433 146.24277 
L 265.582504 146.24277 
L 265.692849 144.44831 
L 265.698386 144.44831 
L 265.744174 143.55108 
L 265.941131 143.55108 
L 265.941131 143.102465 
L 266.193193 143.102465 
L 266.303538 140.85939 
L 266.491616 140.85939 
L 266.491616 140.410775 
L 266.830235 140.410775 
L 266.830235 139.96216 
L 267.585898 139.96216 
L 267.585898 139.513545 
L 268.005339 139.513545 
L 268.005339 139.06493 
L 268.212631 139.06493 
L 268.212631 138.616315 
L 273.55969 138.616315 
L 273.55969 138.1677 
L 275.451681 138.1677 
L 275.451681 137.719085 
L 275.869535 137.719085 
L 275.869535 137.27047 
L 279.600834 137.27047 
L 279.600834 136.821855 
L 280.305458 136.821855 
L 280.305458 136.37324 
L 281.936746 136.37324 
L 282.018825 135.47601 
L 282.569105 135.47601 
L 282.652825 134.57878 
L 283.079107 134.57878 
L 283.079107 134.130165 
L 283.233343 134.130165 
L 283.233343 133.68155 
L 283.536477 133.68155 
L 283.601675 132.78432 
L 283.787286 132.78432 
L 283.897631 131.88709 
L 284.137362 131.88709 
L 284.137362 131.438475 
L 284.424328 131.438475 
L 284.482785 130.541245 
L 284.752911 130.541245 
L 284.752911 130.09263 
L 284.918385 130.09263 
L 284.918385 129.644015 
L 285.054657 129.644015 
L 285.054657 129.1954 
L 285.535545 129.1954 
L 285.535545 128.746785 
L 285.929061 128.746785 
L 285.929061 128.29817 
L 286.431979 128.29817 
L 286.431979 127.849555 
L 287.30155 127.849555 
L 287.383629 126.952325 
L 287.84539 126.952325 
L 287.84539 126.50371 
L 288.598147 126.50371 
L 288.598147 126.055095 
L 289.15209 126.055095 
L 289.262435 125.157865 
L 289.539974 125.157865 
L 289.539974 124.70925 
L 289.773012 124.70925 
L 289.789132 123.81202 
L 292.281313 123.81202 
L 292.281313 123.363405 
L 295.512332 123.363405 
L 295.577529 122.466175 
L 295.713788 122.466175 
L 295.713788 122.01756 
L 296.728766 122.01756 
L 296.728766 121.568945 
L 296.894239 121.568945 
L 296.894239 121.12033 
L 297.252723 121.12033 
L 297.300845 120.2231 
L 297.904916 120.2231 
L 297.904916 119.774485 
L 298.310095 119.774485 
L 298.407834 118.877255 
L 298.662586 118.877255 
L 298.704522 117.980025 
L 299.562568 117.980025 
L 299.562568 117.53141 
L 299.713773 117.53141 
L 299.713773 117.082795 
L 300.410768 117.082795 
L 300.492847 116.185565 
L 301.409036 116.185565 
L 301.409036 115.73695 
L 301.707365 115.73695 
L 301.748867 114.83972 
L 302.214688 114.83972 
L 302.261308 113.94249 
L 302.371653 113.94249 
L 302.382536 113.04526 
L 302.89835 113.04526 
L 302.89835 112.596645 
L 303.998491 112.596645 
L 303.998491 112.14803 
L 304.692381 112.14803 
L 304.692381 111.699415 
L 305.036771 111.699415 
L 305.082559 110.802185 
L 306.371211 110.802185 
L 306.371211 110.35357 
L 307.22951 110.35357 
L 307.294708 109.45634 
L 308.445944 109.45634 
L 308.445944 109.007725 
L 308.611418 109.007725 
L 308.681057 108.110495 
L 308.803523 108.110495 
L 308.803523 107.66188 
L 309.128304 107.66188 
L 309.128304 107.213265 
L 309.622094 107.213265 
L 309.622094 106.76465 
L 309.935525 106.76465 
L 309.935525 106.316035 
L 310.125012 106.316035 
L 310.125012 105.86742 
L 310.944776 105.86742 
L 310.944776 105.418805 
L 311.113369 105.418805 
L 311.113369 104.97019 
L 312.359322 104.97019 
L 312.42452 104.07296 
L 312.884323 104.07296 
L 312.884323 103.624345 
L 313.11698 103.624345 
L 313.11698 103.17573 
L 313.466045 103.17573 
L 313.575756 102.2785 
L 313.74123 102.2785 
L 313.74123 101.829885 
L 313.893574 101.829885 
L 313.893574 101.38127 
L 314.190543 101.38127 
L 314.190543 100.932655 
L 314.751907 100.932655 
L 314.751907 100.48404 
L 315.254825 100.48404 
L 315.254825 100.035425 
L 315.549291 100.035425 
L 315.630774 99.138195 
L 316.347998 99.138195 
L 316.413196 98.240965 
L 316.640024 98.240965 
L 316.640024 97.79235 
L 317.012626 97.79235 
L 317.058414 96.89512 
L 317.564432 96.89512 
L 317.564432 96.446505 
L 317.729906 96.446505 
L 317.729906 95.99789 
L 318.595857 95.99789 
L 318.595857 95.549275 
L 318.740582 95.549275 
L 318.845508 94.20343 
L 319.181852 94.20343 
L 319.2435 93.3062 
L 319.460268 93.3062 
L 319.460268 92.857585 
L 319.996744 92.857585 
L 320.070957 91.960355 
L 320.162218 91.960355 
L 320.162218 91.51174 
L 320.58553 91.51174 
L 320.58553 91.063125 
L 320.863945 91.063125 
L 320.863945 90.61451 
L 321.172894 90.61451 
L 321.172894 90.165895 
L 321.474634 90.165895 
L 321.474634 89.71728 
L 321.675812 89.71728 
L 321.675812 89.268665 
L 322.584533 89.268665 
L 322.584533 88.82005 
L 325.016845 88.82005 
L 325.016845 88.371435 
L 325.907721 88.371435 
L 325.907721 87.92282 
L 328.729804 87.92282 
L 328.775592 87.02559 
L 331.037533 87.02559 
L 331.037533 86.576975 
L 331.816533 86.576975 
L 331.816533 86.12836 
L 332.094948 86.12836 
L 332.094948 85.679745 
L 332.705637 85.679745 
L 332.705637 85.23113 
L 333.859616 85.23113 
L 333.905405 84.3339 
L 334.237774 84.3339 
L 334.237774 83.885285 
L 334.765331 83.885285 
L 334.765331 83.43667 
L 335.026209 83.43667 
L 335.043746 82.53944 
L 335.654435 82.53944 
L 335.654435 82.090825 
L 336.547619 82.090825 
L 336.547619 81.64221 
L 337.458521 81.64221 
L 337.511781 80.74498 
L 337.66505 80.74498 
L 337.66505 80.296365 
L 337.790196 80.296365 
L 337.89408 78.95052 
L 338.400886 78.95052 
L 338.400886 78.501905 
L 339.068727 78.501905 
L 339.068727 78.05329 
L 340.280604 78.05329 
L 340.326392 77.15606 
L 340.983542 77.15606 
L 340.983542 76.707445 
L 343.029854 76.707445 
L 343.029854 76.25883 
L 344.21456 76.25883 
L 344.279758 75.3616 
L 344.433532 75.3616 
L 344.433532 74.912985 
L 345.430994 74.912985 
L 345.430994 74.46437 
L 345.596468 74.46437 
L 345.596468 74.015755 
L 346.607145 74.015755 
L 346.607145 73.56714 
L 347.110063 73.56714 
L 347.110063 73.118525 
L 350.299731 73.118525 
L 350.299731 72.66991 
L 350.451095 72.66991 
L 350.451095 72.221295 
L 353.248529 72.221295 
L 353.248529 71.77268 
L 355.664535 71.77268 
L 355.664535 71.324065 
L 355.994979 71.324065 
L 355.994979 70.87545 
L 356.139072 70.87545 
L 356.139072 70.426835 
L 357.542749 70.426835 
L 357.542749 69.97822 
L 358.613333 69.97822 
L 358.613333 69.529605 
L 361.359783 69.529605 
L 361.359783 69.08099 
L 362.892771 69.08099 
L 362.892771 68.632375 
L 365.714854 68.632375 
L 365.760643 67.735145 
L 368.773753 67.735145 
L 368.773753 67.28653 
L 371.722551 67.28653 
L 371.722551 66.837915 
L 374.469001 66.837915 
L 374.469001 66.3893 
L 453.192 66.3893 
L 453.192 66.3893 
" clip-path="url(#pcd0358e8f7)" style="fill: none; stroke: #00bfbf; stroke-width: 3; stroke-linecap: square"/>
   </g>
   <g id="line2d_20">
    <path clip-path="url(#pcd0358e8f7)" style="fill: none; stroke: #00bfbf; stroke-width: 3; stroke-linecap: square"/>
   </g>
   <g id="line2d_21">
    <path d="M 34.16 236.935604 
L 118.51152 236.935604 
L 118.51152 236.454126 
L 122.007943 236.454126 
L 122.007943 235.972649 
L 140.340912 235.972649 
L 140.340912 235.491171 
L 143.837335 235.491171 
L 143.837335 235.009693 
L 158.283268 235.009693 
L 158.283268 234.528215 
L 161.77969 234.528215 
L 161.77969 234.046737 
L 178.498497 234.046737 
L 178.498497 233.56526 
L 178.768897 233.56526 
L 178.768897 233.083782 
L 179.803205 233.083782 
L 179.803205 232.602304 
L 180.4511 232.602304 
L 180.4511 232.120826 
L 180.859522 232.120826 
L 180.859522 231.639349 
L 181.593908 231.639349 
L 181.593908 231.157871 
L 181.99492 231.157871 
L 181.996582 230.194915 
L 182.265319 230.194915 
L 182.265319 229.713438 
L 182.404945 229.713438 
L 182.404945 229.23196 
L 183.299628 229.23196 
L 183.299628 228.750482 
L 183.947522 228.750482 
L 183.947522 228.269004 
L 184.355945 228.269004 
L 184.355945 227.787526 
L 185.493004 227.787526 
L 185.493004 227.306049 
L 203.088308 227.306049 
L 203.088308 226.824571 
L 203.4233 226.824571 
L 203.4233 226.343093 
L 203.540226 226.343093 
L 203.540226 225.861615 
L 204.234336 225.861615 
L 204.283252 224.89866 
L 208.265683 224.89866 
L 208.265683 224.417182 
L 208.784136 224.417182 
L 208.803335 223.454227 
L 208.959796 223.454227 
L 208.959796 222.972749 
L 209.153076 222.972749 
L 209.153076 222.491271 
L 209.373825 222.491271 
L 209.373825 222.009793 
L 209.604875 222.009793 
L 209.604875 221.528315 
L 210.123327 221.528315 
L 210.123327 221.046838 
L 210.298987 221.046838 
L 210.298987 220.56536 
L 210.492267 220.56536 
L 210.492267 220.083882 
L 210.713016 220.083882 
L 210.713016 219.602404 
L 214.826119 219.602404 
L 214.826119 219.120927 
L 215.099807 219.120927 
L 215.099807 218.639449 
L 221.299385 218.639449 
L 221.365656 217.676493 
L 222.176692 217.676493 
L 222.176692 217.195016 
L 224.844907 217.195016 
L 224.9177 216.23206 
L 225.369618 216.23206 
L 225.369618 215.750582 
L 225.986051 215.750582 
L 226.012106 214.787627 
L 226.112643 214.787627 
L 226.184098 213.343193 
L 226.285794 213.343193 
L 226.355052 211.89876 
L 226.664474 211.89876 
L 226.664474 211.417282 
L 226.840134 211.417282 
L 226.873505 210.454327 
L 227.033414 210.454327 
L 227.049165 209.491371 
L 227.242445 209.491371 
L 227.325242 208.046938 
L 227.463194 208.046938 
L 227.463194 207.56546 
L 228.161766 207.56546 
L 228.161766 207.083982 
L 228.435454 207.083982 
L 228.435454 206.602505 
L 228.970767 206.602505 
L 228.970767 206.121027 
L 229.761058 206.121027 
L 229.761058 205.639549 
L 230.160398 205.639549 
L 230.160398 205.158071 
L 230.632727 205.158071 
L 230.632727 204.676594 
L 231.01452 204.676594 
L 231.01452 204.195116 
L 231.142038 204.195116 
L 231.142038 203.713638 
L 234.110826 203.713638 
L 234.110826 203.23216 
L 234.510943 203.23216 
L 234.510943 202.750682 
L 235.637529 202.750682 
L 235.637529 202.269205 
L 237.607249 202.269205 
L 237.607249 201.787727 
L 239.789508 201.787727 
L 239.789508 201.306249 
L 240.156754 201.306249 
L 240.156754 200.824771 
L 240.841724 200.824771 
L 240.947045 199.861816 
L 241.346385 199.861816 
L 241.346385 199.380338 
L 241.580885 199.380338 
L 241.580885 198.89886 
L 241.81836 198.89886 
L 241.851285 197.935905 
L 242.1326 197.935905 
L 242.1326 197.454427 
L 242.306413 197.454427 
L 242.391921 196.009994 
L 242.651052 196.009994 
L 242.725245 194.56556 
L 242.826713 194.56556 
L 242.934276 192.158171 
L 243.015896 192.158171 
L 243.096705 190.23226 
L 243.128776 190.23226 
L 243.128776 189.750783 
L 243.240742 189.750783 
L 243.311973 188.787827 
L 243.35996 188.787827 
L 243.35996 188.306349 
L 243.496045 188.306349 
L 243.534348 186.861916 
L 243.696629 186.861916 
L 243.710009 185.89896 
L 243.814903 185.89896 
L 243.903288 184.454527 
L 243.94191 184.454527 
L 243.94191 183.973049 
L 244.054999 183.973049 
L 244.163933 182.047138 
L 244.257339 182.047138 
L 244.354039 179.158272 
L 244.437621 179.158272 
L 244.509015 177.713838 
L 244.627727 177.713838 
L 244.702295 176.750883 
L 244.752946 176.750883 
L 244.823614 175.787927 
L 244.923044 175.787927 
L 244.999274 174.824972 
L 245.07897 174.824972 
L 245.07897 174.343494 
L 245.192554 174.343494 
L 245.192554 173.862016 
L 245.314783 173.862016 
L 245.413303 172.899061 
L 245.890006 172.899061 
L 245.890006 172.417583 
L 246.823516 172.417583 
L 246.823516 171.936105 
L 247.025459 171.936105 
L 247.025459 171.454627 
L 248.18032 171.454627 
L 248.18032 170.97315 
L 248.575083 170.97315 
L 248.575083 170.491672 
L 248.973175 170.491672 
L 248.973175 170.010194 
L 250.521881 170.010194 
L 250.521881 169.528716 
L 257.23092 169.528716 
L 257.23092 169.047239 
L 258.021211 169.047239 
L 258.021211 168.565761 
L 258.308581 168.565761 
L 258.308581 168.084283 
L 258.420551 168.084283 
L 258.498687 167.121327 
L 258.711823 167.121327 
L 258.711823 166.63985 
L 259.098872 166.63985 
L 259.098872 166.158372 
L 259.288978 166.158372 
L 259.288978 165.676894 
L 259.402191 165.676894 
L 259.498212 164.713939 
L 259.595119 164.713939 
L 259.688318 163.750983 
L 259.852968 163.750983 
L 259.852968 163.269505 
L 260.394126 163.269505 
L 260.479852 162.30655 
L 260.669958 162.30655 
L 260.736263 161.343594 
L 260.798486 161.343594 
L 260.884385 160.380639 
L 261.007516 160.380639 
L 261.071132 159.417683 
L 261.275167 159.417683 
L 261.275167 158.936205 
L 261.53527 158.936205 
L 261.6189 157.97325 
L 262.025529 157.97325 
L 262.025529 157.491772 
L 262.614358 157.491772 
L 262.614358 157.010294 
L 263.075285 157.010294 
L 263.110405 156.047339 
L 263.345685 156.047339 
L 263.345685 155.565861 
L 263.527202 155.565861 
L 263.527202 155.084383 
L 263.797602 155.084383 
L 263.897682 154.121428 
L 264.270228 154.121428 
L 264.379993 153.158472 
L 264.449596 153.158472 
L 264.540628 152.195517 
L 264.831911 152.195517 
L 264.831911 151.714039 
L 264.975343 151.714039 
L 265.027887 150.751083 
L 265.165449 150.751083 
L 265.165449 150.269606 
L 265.43631 150.269606 
L 265.479805 149.30665 
L 265.574936 149.30665 
L 265.574936 148.825172 
L 265.888228 148.825172 
L 265.888228 148.343694 
L 266.122676 148.343694 
L 266.222831 147.380739 
L 266.57337 147.380739 
L 266.631254 146.417783 
L 266.764997 146.417783 
L 266.764997 145.936306 
L 267.025287 145.936306 
L 267.038685 144.97335 
L 267.768313 144.97335 
L 267.768313 144.491872 
L 268.790312 144.491872 
L 268.790312 144.010394 
L 269.060712 144.010394 
L 269.060712 143.528917 
L 270.09502 143.528917 
L 270.09502 143.047439 
L 270.742914 143.047439 
L 270.742914 142.565961 
L 271.151337 142.565961 
L 271.151337 142.084483 
L 272.288397 142.084483 
L 272.288397 141.603006 
L 276.785064 141.603006 
L 276.785064 141.121528 
L 277.66836 141.121528 
L 277.66836 140.64005 
L 278.467367 140.64005 
L 278.467367 140.158572 
L 278.957625 140.158572 
L 278.957625 139.677095 
L 279.155505 139.677095 
L 279.155505 139.195617 
L 279.364536 139.195617 
L 279.364536 138.714139 
L 279.561255 138.714139 
L 279.561255 138.232661 
L 280.909645 138.232661 
L 280.990743 137.269706 
L 281.199774 137.269706 
L 281.286361 136.30675 
L 281.556761 136.30675 
L 281.556761 135.825272 
L 281.699936 135.825272 
L 281.699936 135.343795 
L 282.099276 135.343795 
L 282.099276 134.862317 
L 282.59107 134.862317 
L 282.59107 134.380839 
L 283.080916 134.380839 
L 283.080916 133.899361 
L 283.238964 133.899361 
L 283.238964 133.417884 
L 283.647387 133.417884 
L 283.647387 132.936406 
L 284.784446 132.936406 
L 284.784446 132.454928 
L 286.337905 132.454928 
L 286.337905 131.97345 
L 286.608305 131.97345 
L 286.608305 131.491972 
L 287.576407 131.491972 
L 287.642613 130.529017 
L 288.290507 130.529017 
L 288.290507 130.047539 
L 288.69893 130.047539 
L 288.69893 129.566061 
L 289.83599 129.566061 
L 289.83599 129.084584 
L 294.096908 129.084584 
L 294.096908 128.603106 
L 294.907945 128.603106 
L 294.907945 128.121628 
L 295.142084 128.121628 
L 295.142084 127.64015 
L 296.025379 127.64015 
L 296.025379 127.158673 
L 296.824386 127.158673 
L 296.824386 126.677195 
L 296.977321 126.677195 
L 296.977321 126.195717 
L 297.193214 126.195717 
L 297.193214 125.714239 
L 297.314645 125.714239 
L 297.314645 125.232761 
L 297.860617 125.232761 
L 297.860617 124.751284 
L 298.004251 124.751284 
L 298.004251 124.269806 
L 298.659624 124.269806 
L 298.659624 123.788328 
L 299.149882 123.788328 
L 299.149882 123.30685 
L 299.776484 123.30685 
L 299.776484 122.825373 
L 300.046884 122.825373 
L 300.046884 122.343895 
L 301.081193 122.343895 
L 301.081193 121.862417 
L 301.729087 121.862417 
L 301.729087 121.380939 
L 302.13751 121.380939 
L 302.13751 120.899462 
L 303.274569 120.899462 
L 303.274569 120.417984 
L 303.924112 120.417984 
L 303.924112 119.936506 
L 304.735148 119.936506 
L 304.735148 119.455028 
L 304.900748 119.455028 
L 304.900748 118.97355 
L 305.711784 118.97355 
L 305.711784 118.492073 
L 310.107847 118.492073 
L 310.107847 118.010595 
L 310.918883 118.010595 
L 310.918883 117.529117 
L 315.591308 117.529117 
L 315.591308 117.047639 
L 316.043226 117.047639 
L 316.043226 116.566162 
L 316.786252 116.566162 
L 316.786252 116.084684 
L 318.687614 116.084684 
L 318.687614 115.603206 
L 319.139532 115.603206 
L 319.139532 115.121728 
L 319.882558 115.121728 
L 319.882558 114.640251 
L 321.306335 114.640251 
L 321.306335 114.158773 
L 324.402641 114.158773 
L 324.402641 113.677295 
L 325.418512 113.677295 
L 325.418512 113.195817 
L 325.870429 113.195817 
L 325.870429 112.714339 
L 326.395148 112.714339 
L 326.395148 112.232862 
L 326.613455 112.232862 
L 326.613455 111.751384 
L 326.847065 111.751384 
L 326.847065 111.269906 
L 327.590091 111.269906 
L 327.590091 110.788428 
L 331.133539 110.788428 
L 331.133539 110.306951 
L 331.602247 110.306951 
L 331.602247 109.825473 
L 332.054164 109.825473 
L 332.110175 108.862517 
L 332.79719 108.862517 
L 332.79719 108.38104 
L 333.802385 108.38104 
L 333.802385 107.899562 
L 336.898691 107.899562 
L 336.898691 107.418084 
L 337.317274 107.418084 
L 337.317274 106.936606 
L 338.853928 106.936606 
L 338.853928 106.455128 
L 341.950234 106.455128 
L 341.950234 105.973651 
L 343.629588 105.973651 
L 343.629588 105.492173 
L 344.606224 105.492173 
L 344.606224 105.010695 
L 348.681131 105.010695 
L 348.681131 104.529217 
L 349.657768 104.529217 
L 349.657768 104.04774 
L 349.813323 104.04774 
L 349.813323 103.566262 
L 352.292508 103.566262 
L 352.292508 103.084784 
L 354.864867 103.084784 
L 354.864867 102.603306 
L 355.388814 102.603306 
L 355.388814 102.121829 
L 362.119711 102.121829 
L 362.119711 101.640351 
L 363.096347 101.640351 
L 363.096347 101.158873 
L 368.303446 101.158873 
L 368.303446 100.677395 
L 453.192 100.677395 
L 453.192 100.677395 
" clip-path="url(#pcd0358e8f7)" style="fill: none; stroke: #bf00bf; stroke-width: 3; stroke-linecap: square"/>
   </g>
   <g id="line2d_22">
    <path clip-path="url(#pcd0358e8f7)" style="fill: none; stroke: #bf00bf; stroke-width: 3; stroke-linecap: square"/>
   </g>
   <g id="line2d_23">
    <path d="M 34.16 232.80687 
L 122.417647 232.80687 
L 122.417647 232.31874 
L 124.205287 232.31874 
L 124.205287 231.830609 
L 143.875968 231.830609 
L 143.875968 231.342479 
L 145.663608 231.342479 
L 145.663608 230.854349 
L 161.342367 230.854349 
L 161.342367 230.366218 
L 163.130006 230.366218 
L 163.130006 229.878088 
L 181.79828 229.878088 
L 181.79828 229.389958 
L 182.223514 229.389958 
L 182.223514 228.901827 
L 182.364489 228.901827 
L 182.364489 228.413697 
L 182.958189 228.413697 
L 182.958189 227.925567 
L 183.390959 227.925567 
L 183.405389 226.949306 
L 183.649034 226.949306 
L 183.649034 226.461176 
L 184.011154 226.461176 
L 184.011154 225.973045 
L 184.152129 225.973045 
L 184.152129 225.484915 
L 184.665657 225.484915 
L 184.665657 224.996785 
L 185.178599 224.996785 
L 185.193029 224.020524 
L 185.436674 224.020524 
L 185.436674 223.532394 
L 186.453297 223.532394 
L 186.453297 223.044264 
L 203.256601 223.044264 
L 203.308341 222.068003 
L 204.172591 222.068003 
L 204.172591 221.579873 
L 204.41651 221.579873 
L 204.41651 221.091742 
L 204.762258 221.091742 
L 204.762258 220.603612 
L 209.457025 220.603612 
L 209.457025 220.115482 
L 210.431823 220.115482 
L 210.431823 219.627351 
L 210.651623 219.627351 
L 210.651623 219.139221 
L 210.888454 219.139221 
L 210.972385 218.16296 
L 211.01206 218.16296 
L 211.01206 217.67483 
L 211.314429 217.67483 
L 211.314429 217.1867 
L 211.534229 217.1867 
L 211.534229 216.69857 
L 211.77106 216.69857 
L 211.854991 215.722309 
L 211.894667 215.722309 
L 211.894667 215.234179 
L 220.723 215.234179 
L 220.723 214.746048 
L 221.777723 214.746048 
L 221.882908 213.769788 
L 224.766662 213.769788 
L 224.766662 213.281657 
L 225.630912 213.281657 
L 225.630912 212.793527 
L 226.127884 212.793527 
L 226.220579 211.817266 
L 226.542197 211.817266 
L 226.542197 211.329136 
L 226.767973 211.329136 
L 226.767973 210.841006 
L 227.010491 210.841006 
L 227.085352 209.864745 
L 227.305089 209.864745 
L 227.305089 209.376615 
L 227.481304 209.376615 
L 227.524889 208.400354 
L 227.674385 208.400354 
L 227.76172 206.935963 
L 227.845651 206.935963 
L 227.937935 205.471572 
L 228.021866 205.471572 
L 228.061541 204.495312 
L 228.556991 204.495312 
L 228.556991 204.007181 
L 229.1111 204.007181 
L 229.1111 203.519051 
L 229.336876 203.519051 
L 229.336876 203.030921 
L 230.915346 203.030921 
L 230.915346 202.54279 
L 231.266621 202.54279 
L 231.266621 202.05466 
L 233.054261 202.05466 
L 233.054261 201.56653 
L 233.553481 201.56653 
L 233.553481 201.0784 
L 235.341121 201.0784 
L 235.341121 200.590269 
L 236.750287 200.590269 
L 236.750287 200.102139 
L 238.537927 200.102139 
L 238.537927 199.614009 
L 239.152534 199.614009 
L 239.152534 199.125878 
L 239.840332 199.125878 
L 239.840332 198.637748 
L 240.010608 198.637748 
L 240.010608 198.149618 
L 240.611342 198.149618 
L 240.611342 197.661487 
L 240.940173 197.661487 
L 241.023585 196.685227 
L 241.604147 196.685227 
L 241.604147 196.197096 
L 241.745122 196.197096 
L 241.745122 195.708966 
L 242.23306 195.708966 
L 242.283958 194.732705 
L 242.50496 194.732705 
L 242.579511 193.756445 
L 242.72476 193.756445 
L 242.786022 191.803924 
L 242.905031 191.803924 
L 243.00115 189.851402 
L 243.029667 189.851402 
L 243.097311 187.898881 
L 243.155955 187.898881 
L 243.236044 185.45823 
L 243.375755 185.45823 
L 243.405318 184.481969 
L 243.592489 184.481969 
L 243.696517 182.529448 
L 243.736192 182.529448 
L 243.74583 181.065057 
L 243.931501 181.065057 
L 243.96563 179.112535 
L 244.04629 179.112535 
L 244.04629 178.624405 
L 244.189575 178.624405 
L 244.287924 176.671884 
L 244.326067 176.671884 
L 244.326067 176.183754 
L 244.488852 176.183754 
L 244.563344 174.719363 
L 244.708652 174.719363 
L 244.789121 173.254972 
L 244.852861 173.254972 
L 244.945483 172.278711 
L 245.029414 172.278711 
L 245.069089 171.30245 
L 245.206199 171.30245 
L 245.206199 170.81432 
L 246.562385 170.81432 
L 246.562385 170.32619 
L 248.381745 170.32619 
L 248.381745 169.83806 
L 248.504911 169.83806 
L 248.543673 168.861799 
L 249.131288 168.861799 
L 249.131288 168.373669 
L 250.292551 168.373669 
L 250.292551 167.885538 
L 256.413642 167.885538 
L 256.413642 167.397408 
L 257.014376 167.397408 
L 257.014376 166.909278 
L 257.206943 166.909278 
L 257.206943 166.421147 
L 257.42662 166.421147 
L 257.42662 165.933017 
L 257.807677 165.933017 
L 257.807677 165.444887 
L 258.031755 165.444887 
L 258.031755 164.956756 
L 258.201021 164.956756 
L 258.219921 163.980496 
L 258.632489 163.980496 
L 258.686992 163.004235 
L 258.852016 163.004235 
L 258.852016 162.516105 
L 259.044733 162.516105 
L 259.044733 162.027975 
L 259.441891 162.027975 
L 259.480293 161.051714 
L 259.747522 161.051714 
L 259.747522 160.563584 
L 260.184914 160.563584 
L 260.278584 159.587323 
L 260.305105 159.587323 
L 260.398517 158.611062 
L 260.454799 158.611062 
L 260.454799 158.122932 
L 260.702443 158.122932 
L 260.72486 157.146671 
L 260.988392 157.146671 
L 260.988392 156.658541 
L 261.298653 156.658541 
L 261.298653 156.170411 
L 261.607467 156.170411 
L 261.607467 155.68228 
L 261.731414 155.68228 
L 261.731414 155.19415 
L 262.125173 155.19415 
L 262.125173 154.70602 
L 262.965419 154.70602 
L 263.007779 153.729759 
L 263.114207 153.729759 
L 263.114207 153.241629 
L 263.255183 153.241629 
L 263.255183 152.753499 
L 263.758721 152.753499 
L 263.758721 152.265368 
L 263.978458 152.265368 
L 263.978458 151.777238 
L 264.119433 151.777238 
L 264.119433 151.289108 
L 264.281653 151.289108 
L 264.296083 150.312847 
L 264.539727 150.312847 
L 264.583532 148.848456 
L 264.7091 148.848456 
L 264.7091 148.360326 
L 264.942886 148.360326 
L 264.942886 147.872195 
L 265.145903 147.872195 
L 265.168663 146.407805 
L 265.403978 146.407805 
L 265.403978 145.919674 
L 265.556351 145.919674 
L 265.556351 145.431544 
L 265.73557 145.431544 
L 265.75 144.455283 
L 265.993645 144.455283 
L 266.010072 143.479023 
L 266.420601 143.479023 
L 266.420601 142.990892 
L 267.010268 142.990892 
L 267.010268 142.502762 
L 269.262892 142.502762 
L 269.262892 142.014632 
L 269.403867 142.014632 
L 269.403867 141.526501 
L 270.430337 141.526501 
L 270.444767 140.550241 
L 270.688412 140.550241 
L 270.688412 140.06211 
L 271.705035 140.06211 
L 271.705035 139.57398 
L 275.478455 139.57398 
L 275.478455 139.08585 
L 276.12945 139.08585 
L 276.12945 138.59772 
L 276.719325 138.59772 
L 276.719325 138.109589 
L 277.462347 138.109589 
L 277.462347 137.621459 
L 277.598126 137.621459 
L 277.598126 137.133329 
L 277.774341 137.133329 
L 277.774341 136.645198 
L 278.411297 136.645198 
L 278.411297 136.157068 
L 278.765052 136.157068 
L 278.765052 135.668938 
L 278.998439 135.668938 
L 279.012031 134.692677 
L 279.174654 134.692677 
L 279.174654 134.204547 
L 279.424275 134.204547 
L 279.424275 133.716416 
L 280.684647 133.716416 
L 280.684647 133.228286 
L 281.58359 133.228286 
L 281.58359 132.740156 
L 281.724565 132.740156 
L 281.724565 132.252025 
L 282.751035 132.252025 
L 282.765465 131.275765 
L 283.00911 131.275765 
L 283.00911 130.787635 
L 284.025733 130.787635 
L 284.025733 130.299504 
L 284.963074 130.299504 
L 284.963074 129.811374 
L 286.891219 129.811374 
L 286.891219 129.323244 
L 287.032194 129.323244 
L 287.032194 128.835113 
L 288.058664 128.835113 
L 288.073094 127.858853 
L 288.316739 127.858853 
L 288.316739 127.370722 
L 289.333362 127.370722 
L 289.333362 126.882592 
L 290.647254 126.882592 
L 290.647254 126.394462 
L 291.807163 126.394462 
L 291.807163 125.906331 
L 292.797997 125.906331 
L 292.797997 125.418201 
L 292.934115 125.418201 
L 292.934115 124.930071 
L 293.448992 124.930071 
L 293.448992 124.44194 
L 294.038867 124.44194 
L 294.094023 123.46568 
L 294.19831 123.46568 
L 294.19831 122.97755 
L 294.78189 122.97755 
L 294.849305 122.001289 
L 295.43918 122.001289 
L 295.43918 121.513159 
L 296.13092 121.513159 
L 296.182202 120.536898 
L 297.290829 120.536898 
L 297.290829 120.048768 
L 298.533167 120.048768 
L 298.533167 119.560637 
L 299.646199 119.560637 
L 299.693075 118.584377 
L 299.787174 118.584377 
L 299.787174 118.096246 
L 300.813644 118.096246 
L 300.828074 117.119986 
L 301.071719 117.119986 
L 301.071719 116.631855 
L 302.088342 116.631855 
L 302.088342 116.143725 
L 307.885544 116.143725 
L 307.885544 115.655595 
L 309.045452 115.655595 
L 309.045452 115.167465 
L 312.157315 115.167465 
L 312.157315 114.679334 
L 313.021565 114.679334 
L 313.021565 114.191204 
L 313.611232 114.191204 
L 313.611232 113.703074 
L 314.444175 113.703074 
L 314.444175 113.214943 
L 315.308425 113.214943 
L 315.308425 112.726813 
L 315.898093 112.726813 
L 315.898093 112.238683 
L 317.640981 112.238683 
L 317.640981 111.750552 
L 318.305999 111.750552 
L 318.305999 111.262422 
L 318.505231 111.262422 
L 318.505231 110.774292 
L 319.094898 110.774292 
L 319.094898 110.286161 
L 320.043227 110.286161 
L 320.043227 109.798031 
L 320.592859 109.798031 
L 320.592859 109.309901 
L 320.907478 109.309901 
L 320.907478 108.82177 
L 321.497145 108.82177 
L 321.497145 108.33364 
L 323.789665 108.33364 
L 323.789665 107.84551 
L 326.191912 107.84551 
L 326.191912 107.35738 
L 329.395604 107.35738 
L 329.395604 106.869249 
L 330.259855 106.869249 
L 330.259855 106.381119 
L 330.626697 106.381119 
L 330.626697 105.892989 
L 330.849522 105.892989 
L 330.849522 105.404858 
L 332.913557 105.404858 
L 332.913557 104.916728 
L 335.544289 104.916728 
L 335.544289 104.428598 
L 335.934326 104.428598 
L 335.934326 103.940467 
L 336.110363 103.940467 
L 336.110363 103.452337 
L 338.221187 103.452337 
L 338.221187 102.964207 
L 338.51261 102.964207 
L 338.51261 102.476076 
L 341.417992 102.476076 
L 341.417992 101.987946 
L 343.820239 101.987946 
L 343.820239 101.499816 
L 347.864987 101.499816 
L 347.864987 101.011685 
L 348.689306 101.011685 
L 348.689306 100.523555 
L 350.976166 100.523555 
L 350.976166 100.035425 
L 353.172616 100.035425 
L 353.172616 99.547295 
L 354.172972 99.547295 
L 354.172972 99.059164 
L 356.575219 99.059164 
L 356.575219 98.571034 
L 365.927596 98.571034 
L 365.927596 98.082904 
L 453.192 98.082904 
L 453.192 98.082904 
" clip-path="url(#pcd0358e8f7)" style="fill: none; stroke: #ff0000; stroke-width: 3; stroke-linecap: square"/>
   </g>
   <g id="line2d_24">
    <path clip-path="url(#pcd0358e8f7)" style="fill: none; stroke: #ff0000; stroke-width: 3; stroke-linecap: square"/>
   </g>
   <g id="line2d_25">
    <path d="M 243.676 291.28 
L 243.676 3 
" clip-path="url(#pcd0358e8f7)" style="fill: none; stroke: #000000; stroke-width: 1.5; stroke-linecap: square"/>
   </g>
   <g id="line2d_26">
    <path d="M 34.16 147.14 
L 453.192 147.14 
" clip-path="url(#pcd0358e8f7)" style="fill: none; stroke-dasharray: 2,3.3; stroke-dashoffset: 0; stroke: #000000; stroke-width: 2"/>
   </g>
   <g id="patch_3">
    <path d="M 34.16 291.28 
L 34.16 3 
" style="fill: none; stroke: #000000; stroke-width: 0.8; stroke-linejoin: miter; stroke-linecap: square"/>
   </g>
   <g id="patch_4">
    <path d="M 453.192 291.28 
L 453.192 3 
" style="fill: none; stroke: #000000; stroke-width: 0.8; stroke-linejoin: miter; stroke-linecap: square"/>
   </g>
   <g id="patch_5">
    <path d="M 34.16 291.28 
L 453.192 291.28 
" style="fill: none; stroke: #000000; stroke-width: 0.8; stroke-linejoin: miter; stroke-linecap: square"/>
   </g>
   <g id="patch_6">
    <path d="M 34.16 3 
L 453.192 3 
" style="fill: none; stroke: #000000; stroke-width: 0.8; stroke-linejoin: miter; stroke-linecap: square"/>
   </g>
   <g id="text_6">
    <!-- f20-f24,10-D -->
    <g transform="translate(318.19261 285.5144) scale(0.2 -0.2)">
     <defs>
      <path id="DejaVuSans-34" d="M 2419 4116 
L 825 1625 
L 2419 1625 
L 2419 4116 
z
M 2253 4666 
L 3047 4666 
L 3047 1625 
L 3713 1625 
L 3713 1100 
L 3047 1100 
L 3047 0 
L 2419 0 
L 2419 1100 
L 313 1100 
L 313 1709 
L 2253 4666 
z
" transform="scale(0.015625)"/>
      <path id="DejaVuSans-2c" d="M 750 794 
L 1409 794 
L 1409 256 
L 897 -744 
L 494 -744 
L 750 256 
L 750 794 
z
" transform="scale(0.015625)"/>
      <path id="DejaVuSans-44" d="M 1259 4147 
L 1259 519 
L 2022 519 
Q 2988 519 3436 956 
Q 3884 1394 3884 2338 
Q 3884 3275 3436 3711 
Q 2988 4147 2022 4147 
L 1259 4147 
z
M 628 4666 
L 1925 4666 
Q 3281 4666 3915 4102 
Q 4550 3538 4550 2338 
Q 4550 1131 3912 565 
Q 3275 0 1925 0 
L 628 0 
L 628 4666 
z
" transform="scale(0.015625)"/>
     </defs>
     <use xlink:href="#DejaVuSans-66"/>
     <use xlink:href="#DejaVuSans-32" x="35.205078"/>
     <use xlink:href="#DejaVuSans-30" x="98.828125"/>
     <use xlink:href="#DejaVuSans-2d" x="162.451172"/>
     <use xlink:href="#DejaVuSans-66" x="198.535156"/>
     <use xlink:href="#DejaVuSans-32" x="233.740234"/>
     <use xlink:href="#DejaVuSans-34" x="297.363281"/>
     <use xlink:href="#DejaVuSans-2c" x="360.986328"/>
     <use xlink:href="#DejaVuSans-31" x="392.773438"/>
     <use xlink:href="#DejaVuSans-30" x="456.396484"/>
     <use xlink:href="#DejaVuSans-2d" x="520.019531"/>
     <use xlink:href="#DejaVuSans-44" x="556.103516"/>
    </g>
   </g>
   <g id="text_7">
    <!-- v2.6.3 -->
    <g style="fill: #808080" transform="translate(227.99475 286.317512) scale(0.1 -0.1)">
     <defs>
      <path id="DejaVuSans-2e" d="M 684 794 
L 1344 794 
L 1344 0 
L 684 0 
L 684 794 
z
" transform="scale(0.015625)"/>
      <path id="DejaVuSans-36" d="M 2113 2584 
Q 1688 2584 1439 2293 
Q 1191 2003 1191 1497 
Q 1191 994 1439 701 
Q 1688 409 2113 409 
Q 2538 409 2786 701 
Q 3034 994 3034 1497 
Q 3034 2003 2786 2293 
Q 2538 2584 2113 2584 
z
M 3366 4563 
L 3366 3988 
Q 3128 4100 2886 4159 
Q 2644 4219 2406 4219 
Q 1781 4219 1451 3797 
Q 1122 3375 1075 2522 
Q 1259 2794 1537 2939 
Q 1816 3084 2150 3084 
Q 2853 3084 3261 2657 
Q 3669 2231 3669 1497 
Q 3669 778 3244 343 
Q 2819 -91 2113 -91 
Q 1303 -91 875 529 
Q 447 1150 447 2328 
Q 447 3434 972 4092 
Q 1497 4750 2381 4750 
Q 2619 4750 2861 4703 
Q 3103 4656 3366 4563 
z
" transform="scale(0.015625)"/>
      <path id="DejaVuSans-33" d="M 2597 2516 
Q 3050 2419 3304 2112 
Q 3559 1806 3559 1356 
Q 3559 666 3084 287 
Q 2609 -91 1734 -91 
Q 1441 -91 1130 -33 
Q 819 25 488 141 
L 488 750 
Q 750 597 1062 519 
Q 1375 441 1716 441 
Q 2309 441 2620 675 
Q 2931 909 2931 1356 
Q 2931 1769 2642 2001 
Q 2353 2234 1838 2234 
L 1294 2234 
L 1294 2753 
L 1863 2753 
Q 2328 2753 2575 2939 
Q 2822 3125 2822 3475 
Q 2822 3834 2567 4026 
Q 2313 4219 1838 4219 
Q 1578 4219 1281 4162 
Q 984 4106 628 3988 
L 628 4550 
Q 988 4650 1302 4700 
Q 1616 4750 1894 4750 
Q 2613 4750 3031 4423 
Q 3450 4097 3450 3541 
Q 3450 3153 3228 2886 
Q 3006 2619 2597 2516 
z
" transform="scale(0.015625)"/>
     </defs>
     <use xlink:href="#DejaVuSans-76"/>
     <use xlink:href="#DejaVuSans-32" x="59.179688"/>
     <use xlink:href="#DejaVuSans-2e" x="122.802734"/>
     <use xlink:href="#DejaVuSans-36" x="154.589844"/>
     <use xlink:href="#DejaVuSans-2e" x="218.212891"/>
     <use xlink:href="#DejaVuSans-33" x="250"/>
    </g>
   </g>
   <g id="legend_1">
    <g id="patch_7">
     <path d="M 48.16 136.425 
L 177.381875 136.425 
Q 181.381875 136.425 181.381875 132.425 
L 181.381875 17 
Q 181.381875 13 177.381875 13 
L 48.16 13 
Q 44.16 13 44.16 17 
L 44.16 132.425 
Q 44.16 136.425 48.16 136.425 
z
" style="fill: #ffffff; opacity: 0.2; stroke: #cccccc; stroke-linejoin: miter"/>
    </g>
    <g id="line2d_27">
     <path d="M 52.16 29.196875 
L 72.16 29.196875 
L 92.16 29.196875 
" style="fill: none; stroke: #000000; stroke-width: 3; stroke-linecap: square"/>
    </g>
    <g id="text_8">
     <!-- 1: 5/5 -->
     <g transform="translate(108.16 36.196875) scale(0.2 -0.2)">
      <defs>
       <path id="DejaVuSans-3a" d="M 750 794 
L 1409 794 
L 1409 0 
L 750 0 
L 750 794 
z
M 750 3309 
L 1409 3309 
L 1409 2516 
L 750 2516 
L 750 3309 
z
" transform="scale(0.015625)"/>
       <path id="DejaVuSans-35" d="M 691 4666 
L 3169 4666 
L 3169 4134 
L 1269 4134 
L 1269 2991 
Q 1406 3038 1543 3061 
Q 1681 3084 1819 3084 
Q 2600 3084 3056 2656 
Q 3513 2228 3513 1497 
Q 3513 744 3044 326 
Q 2575 -91 1722 -91 
Q 1428 -91 1123 -41 
Q 819 9 494 109 
L 494 744 
Q 775 591 1075 516 
Q 1375 441 1709 441 
Q 2250 441 2565 725 
Q 2881 1009 2881 1497 
Q 2881 1984 2565 2268 
Q 2250 2553 1709 2553 
Q 1456 2553 1204 2497 
Q 953 2441 691 2322 
L 691 4666 
z
" transform="scale(0.015625)"/>
       <path id="DejaVuSans-2f" d="M 1625 4666 
L 2156 4666 
L 531 -594 
L 0 -594 
L 1625 4666 
z
" transform="scale(0.015625)"/>
      </defs>
      <use xlink:href="#DejaVuSans-31"/>
      <use xlink:href="#DejaVuSans-3a" x="63.623047"/>
      <use xlink:href="#DejaVuSans-20" x="97.314453"/>
      <use xlink:href="#DejaVuSans-35" x="129.101562"/>
      <use xlink:href="#DejaVuSans-2f" x="192.724609"/>
      <use xlink:href="#DejaVuSans-35" x="226.416016"/>
     </g>
    </g>
    <g id="line2d_28">
     <path d="M 52.16 58.553125 
L 72.16 58.553125 
L 92.16 58.553125 
" style="fill: none; stroke: #00bfbf; stroke-width: 3; stroke-linecap: square"/>
    </g>
    <g id="text_9">
     <!-- -1: 3/4 -->
     <g transform="translate(108.16 65.553125) scale(0.2 -0.2)">
      <use xlink:href="#DejaVuSans-2d"/>
      <use xlink:href="#DejaVuSans-31" x="36.083984"/>
      <use xlink:href="#DejaVuSans-3a" x="99.707031"/>
      <use xlink:href="#DejaVuSans-20" x="133.398438"/>
      <use xlink:href="#DejaVuSans-33" x="165.185547"/>
      <use xlink:href="#DejaVuSans-2f" x="228.808594"/>
      <use xlink:href="#DejaVuSans-34" x="262.5"/>
     </g>
    </g>
    <g id="line2d_29">
     <path d="M 52.16 87.909375 
L 72.16 87.909375 
L 92.16 87.909375 
" style="fill: none; stroke: #bf00bf; stroke-width: 3; stroke-linecap: square"/>
    </g>
    <g id="text_10">
     <!-- -4: 3/4 -->
     <g transform="translate(108.16 94.909375) scale(0.2 -0.2)">
      <use xlink:href="#DejaVuSans-2d"/>
      <use xlink:href="#DejaVuSans-34" x="36.083984"/>
      <use xlink:href="#DejaVuSans-3a" x="99.707031"/>
      <use xlink:href="#DejaVuSans-20" x="133.398438"/>
      <use xlink:href="#DejaVuSans-33" x="165.185547"/>
      <use xlink:href="#DejaVuSans-2f" x="228.808594"/>
      <use xlink:href="#DejaVuSans-34" x="262.5"/>
     </g>
    </g>
    <g id="line2d_30">
     <path d="M 52.16 117.265625 
L 72.16 117.265625 
L 92.16 117.265625 
" style="fill: none; stroke: #ff0000; stroke-width: 3; stroke-linecap: square"/>
    </g>
    <g id="text_11">
     <!-- -8: 3/4 -->
     <g transform="translate(108.16 124.265625) scale(0.2 -0.2)">
      <defs>
       <path id="DejaVuSans-38" d="M 2034 2216 
Q 1584 2216 1326 1975 
Q 1069 1734 1069 1313 
Q 1069 891 1326 650 
Q 1584 409 2034 409 
Q 2484 409 2743 651 
Q 3003 894 3003 1313 
Q 3003 1734 2745 1975 
Q 2488 2216 2034 2216 
z
M 1403 2484 
Q 997 2584 770 2862 
Q 544 3141 544 3541 
Q 544 4100 942 4425 
Q 1341 4750 2034 4750 
Q 2731 4750 3128 4425 
Q 3525 4100 3525 3541 
Q 3525 3141 3298 2862 
Q 3072 2584 2669 2484 
Q 3125 2378 3379 2068 
Q 3634 1759 3634 1313 
Q 3634 634 3220 271 
Q 2806 -91 2034 -91 
Q 1263 -91 848 271 
Q 434 634 434 1313 
Q 434 1759 690 2068 
Q 947 2378 1403 2484 
z
M 1172 3481 
Q 1172 3119 1398 2916 
Q 1625 2713 2034 2713 
Q 2441 2713 2670 2916 
Q 2900 3119 2900 3481 
Q 2900 3844 2670 4047 
Q 2441 4250 2034 4250 
Q 1625 4250 1398 4047 
Q 1172 3844 1172 3481 
z
" transform="scale(0.015625)"/>
      </defs>
      <use xlink:href="#DejaVuSans-2d"/>
      <use xlink:href="#DejaVuSans-38" x="36.083984"/>
      <use xlink:href="#DejaVuSans-3a" x="99.707031"/>
      <use xlink:href="#DejaVuSans-20" x="133.398438"/>
      <use xlink:href="#DejaVuSans-33" x="165.185547"/>
      <use xlink:href="#DejaVuSans-2f" x="228.808594"/>
      <use xlink:href="#DejaVuSans-34" x="262.5"/>
     </g>
    </g>
   </g>
  </g>
 </g>
 <defs>
  <clipPath id="pcd0358e8f7">
   <rect x="34.16" y="3" width="419.032" height="288.28"/>
  </clipPath>
 </defs>
</svg>
