<?xml version="1.0" encoding="utf-8" standalone="no"?>
<!DOCTYPE svg PUBLIC "-//W3C//DTD SVG 1.1//EN"
  "http://www.w3.org/Graphics/SVG/1.1/DTD/svg11.dtd">
<svg xmlns:xlink="http://www.w3.org/1999/xlink" width="460.8pt" height="345.6pt" viewBox="0 0 460.8 345.6" xmlns="http://www.w3.org/2000/svg" version="1.1">
 <metadata>
  <rdf:RDF xmlns:dc="http://purl.org/dc/elements/1.1/" xmlns:cc="http://creativecommons.org/ns#" xmlns:rdf="http://www.w3.org/1999/02/22-rdf-syntax-ns#">
   <cc:Work>
    <dc:type rdf:resource="http://purl.org/dc/dcmitype/StillImage"/>
    <dc:date>2024-06-07T13:55:23.726483</dc:date>
    <dc:format>image/svg+xml</dc:format>
    <dc:creator>
     <cc:Agent>
      <dc:title>Matplotlib v3.7.1, https://matplotlib.org/</dc:title>
     </cc:Agent>
    </dc:creator>
   </cc:Work>
  </rdf:RDF>
 </metadata>
 <defs>
  <style type="text/css">*{stroke-linejoin: round; stroke-linecap: butt}</style>
 </defs>
 <g id="figure_1">
  <g id="patch_1">
   <path d="M 0 345.6 
L 460.8 345.6 
L 460.8 0 
L 0 0 
z
" style="fill: #ffffff"/>
  </g>
  <g id="axes_1">
   <g id="patch_2">
    <path d="M 62.208 293.76 
L 460.8 293.76 
L 460.8 3.456 
L 62.208 3.456 
z
" style="fill: #ffffff"/>
   </g>
   <g id="line2d_1"/>
   <g id="line2d_2"/>
   <g id="line2d_3"/>
   <g id="line2d_4"/>
   <g id="line2d_5">
    <path d="M 386.654917 293.76 
L 386.654917 289.927604 
L 387.999305 289.927604 
L 387.999305 286.095208 
L 388.193461 286.095208 
L 388.193461 282.262812 
L 415.463411 282.262812 
L 415.463411 278.430416 
L 416.253816 278.430416 
L 416.341064 270.765624 
L 416.460082 270.765624 
L 416.460082 266.933228 
L 416.882872 266.933228 
L 416.976652 259.268436 
L 417.433745 259.268436 
L 417.433745 255.43604 
L 417.894016 255.43604 
L 417.894016 251.603644 
L 419.025664 251.603644 
L 419.025664 247.771248 
L 420.153459 247.771248 
L 420.153459 243.938851 
L 420.9044 243.938851 
L 420.9044 240.106455 
L 421.405958 240.106455 
L 421.482322 232.441663 
L 421.668488 232.441663 
L 421.668488 228.609267 
L 422.330722 228.609267 
L 422.330722 224.776871 
L 423.703404 224.776871 
L 423.703404 220.944475 
L 431.121608 220.944475 
L 431.121608 217.112079 
L 436.645119 217.112079 
L 436.645119 213.279683 
L 436.861704 213.279683 
L 436.861704 209.447287 
L 437.679237 209.447287 
L 437.725209 201.782495 
L 438.42355 201.782495 
L 438.42355 197.950099 
L 438.732826 197.950099 
L 438.732826 194.117703 
L 438.910437 194.117703 
L 438.910437 190.285307 
L 439.551818 190.285307 
L 439.551818 186.452911 
L 441.477997 186.452911 
L 441.477997 182.620515 
L 442.231005 182.620515 
L 442.231005 178.788119 
L 447.796471 178.788119 
L 447.796471 174.955723 
L 448.22772 174.955723 
L 448.22772 171.123327 
L 448.52156 171.123327 
L 448.613446 159.626139 
L 449.135195 159.626139 
L 449.135195 155.793743 
L 449.550507 155.793743 
L 449.550507 151.961347 
L 452.07613 151.961347 
L 452.07613 148.12895 
L 452.323614 148.12895 
L 452.38841 140.464158 
L 456.032504 140.464158 
L 456.032504 136.631762 
L 461.481075 136.631762 
L 461.481075 132.799366 
L 461.8 132.799366 
L 461.8 132.799366 
" clip-path="url(#p9e96ef277e)" style="fill: none; stroke: #f5deb3; stroke-width: 1.5; stroke-linecap: square"/>
   </g>
   <g id="line2d_6"/>
   <g id="line2d_7"/>
   <g id="line2d_8"/>
   <g id="line2d_9"/>
   <g id="line2d_10"/>
   <g id="line2d_11"/>
   <g id="line2d_12"/>
   <g id="line2d_13"/>
   <g id="line2d_14"/>
   <g id="line2d_15"/>
   <g id="line2d_16"/>
   <g id="line2d_17">
    <path d="M 402.429698 293.76 
L 402.429698 289.927604 
L 403.508197 289.927604 
L 403.508197 286.095208 
L 405.080621 286.095208 
L 405.080621 282.262812 
L 405.926158 282.262812 
L 405.926158 278.430416 
L 406.01737 278.430416 
L 406.01737 274.59802 
L 406.315308 274.59802 
L 406.315308 270.765624 
L 406.793273 270.765624 
L 406.793273 266.933228 
L 406.852825 266.933228 
L 406.852825 263.100832 
L 407.96638 263.100832 
L 407.96638 259.268436 
L 408.056444 259.268436 
L 408.056444 255.43604 
L 410.458713 255.43604 
L 410.458713 251.603644 
L 445.150821 251.603644 
L 445.150821 247.771248 
L 447.129358 247.771248 
L 447.129358 243.938851 
L 448.856819 243.938851 
L 448.856819 240.106455 
L 450.218776 240.106455 
L 450.218776 236.274059 
L 451.858419 236.274059 
L 451.858419 232.441663 
L 451.995893 232.441663 
L 451.995893 228.609267 
L 454.528603 228.609267 
L 454.528603 224.776871 
L 456.087079 224.776871 
L 456.087079 220.944475 
L 461.8 220.944475 
" clip-path="url(#p9e96ef277e)" style="fill: none; stroke: #f5deb3; stroke-width: 1.5; stroke-linecap: square"/>
   </g>
   <g id="line2d_18"/>
   <g id="line2d_19">
    <path clip-path="url(#p9e96ef277e)" style="fill: none; stroke: #f5deb3; stroke-width: 1.5; stroke-linecap: square"/>
   </g>
   <g id="line2d_20"/>
   <g id="matplotlib.axis_1">
    <g id="xtick_1">
     <g id="line2d_21">
      <path d="M 62.208 293.76 
L 62.208 3.456 
" clip-path="url(#p9e96ef277e)" style="fill: none; stroke: #b0b0b0; stroke-width: 0.8; stroke-linecap: square"/>
     </g>
     <g id="line2d_22">
      <defs>
       <path id="m8ed49c3b10" d="M 0 0 
L 0 3.5 
" style="stroke: #000000; stroke-width: 0.8"/>
      </defs>
      <g>
       <use xlink:href="#m8ed49c3b10" x="62.208" y="293.76" style="stroke: #000000; stroke-width: 0.8"/>
      </g>
     </g>
     <g id="text_1">
      <!-- 0 -->
      <g transform="translate(55.8455 315.956875) scale(0.2 -0.2)">
       <defs>
        <path id="DejaVuSans-30" d="M 2034 4250 
Q 1547 4250 1301 3770 
Q 1056 3291 1056 2328 
Q 1056 1369 1301 889 
Q 1547 409 2034 409 
Q 2525 409 2770 889 
Q 3016 1369 3016 2328 
Q 3016 3291 2770 3770 
Q 2525 4250 2034 4250 
z
M 2034 4750 
Q 2819 4750 3233 4129 
Q 3647 3509 3647 2328 
Q 3647 1150 3233 529 
Q 2819 -91 2034 -91 
Q 1250 -91 836 529 
Q 422 1150 422 2328 
Q 422 3509 836 4129 
Q 1250 4750 2034 4750 
z
" transform="scale(0.015625)"/>
       </defs>
       <use xlink:href="#DejaVuSans-30"/>
      </g>
     </g>
    </g>
    <g id="xtick_2">
     <g id="line2d_23">
      <path d="M 238.686545 293.76 
L 238.686545 3.456 
" clip-path="url(#p9e96ef277e)" style="fill: none; stroke: #b0b0b0; stroke-width: 0.8; stroke-linecap: square"/>
     </g>
     <g id="line2d_24">
      <g>
       <use xlink:href="#m8ed49c3b10" x="238.686545" y="293.76" style="stroke: #000000; stroke-width: 0.8"/>
      </g>
     </g>
     <g id="text_2">
      <!-- 2 -->
      <g transform="translate(232.324045 315.956875) scale(0.2 -0.2)">
       <defs>
        <path id="DejaVuSans-32" d="M 1228 531 
L 3431 531 
L 3431 0 
L 469 0 
L 469 531 
Q 828 903 1448 1529 
Q 2069 2156 2228 2338 
Q 2531 2678 2651 2914 
Q 2772 3150 2772 3378 
Q 2772 3750 2511 3984 
Q 2250 4219 1831 4219 
Q 1534 4219 1204 4116 
Q 875 4013 500 3803 
L 500 4441 
Q 881 4594 1212 4672 
Q 1544 4750 1819 4750 
Q 2544 4750 2975 4387 
Q 3406 4025 3406 3419 
Q 3406 3131 3298 2873 
Q 3191 2616 2906 2266 
Q 2828 2175 2409 1742 
Q 1991 1309 1228 531 
z
" transform="scale(0.015625)"/>
       </defs>
       <use xlink:href="#DejaVuSans-32"/>
      </g>
     </g>
    </g>
    <g id="xtick_3">
     <g id="line2d_25">
      <path d="M 415.16509 293.76 
L 415.16509 3.456 
" clip-path="url(#p9e96ef277e)" style="fill: none; stroke: #b0b0b0; stroke-width: 0.8; stroke-linecap: square"/>
     </g>
     <g id="line2d_26">
      <g>
       <use xlink:href="#m8ed49c3b10" x="415.16509" y="293.76" style="stroke: #000000; stroke-width: 0.8"/>
      </g>
     </g>
     <g id="text_3">
      <!-- 4 -->
      <g transform="translate(408.80259 315.956875) scale(0.2 -0.2)">
       <defs>
        <path id="DejaVuSans-34" d="M 2419 4116 
L 825 1625 
L 2419 1625 
L 2419 4116 
z
M 2253 4666 
L 3047 4666 
L 3047 1625 
L 3713 1625 
L 3713 1100 
L 3047 1100 
L 3047 0 
L 2419 0 
L 2419 1100 
L 313 1100 
L 313 1709 
L 2253 4666 
z
" transform="scale(0.015625)"/>
       </defs>
       <use xlink:href="#DejaVuSans-34"/>
      </g>
     </g>
    </g>
    <g id="xtick_4">
     <g id="line2d_27">
      <path d="M 88.770668 293.76 
L 88.770668 3.456 
" clip-path="url(#p9e96ef277e)" style="fill: none; stroke: #b0b0b0; stroke-width: 0.8; stroke-linecap: square"/>
     </g>
     <g id="line2d_28">
      <defs>
       <path id="m5b8ce69073" d="M 0 0 
L 0 2 
" style="stroke: #000000; stroke-width: 0.6"/>
      </defs>
      <g>
       <use xlink:href="#m5b8ce69073" x="88.770668" y="293.76" style="stroke: #000000; stroke-width: 0.6"/>
      </g>
     </g>
    </g>
    <g id="xtick_5">
     <g id="line2d_29">
      <path d="M 104.308832 293.76 
L 104.308832 3.456 
" clip-path="url(#p9e96ef277e)" style="fill: none; stroke: #b0b0b0; stroke-width: 0.8; stroke-linecap: square"/>
     </g>
     <g id="line2d_30">
      <g>
       <use xlink:href="#m5b8ce69073" x="104.308832" y="293.76" style="stroke: #000000; stroke-width: 0.6"/>
      </g>
     </g>
    </g>
    <g id="xtick_6">
     <g id="line2d_31">
      <path d="M 115.333336 293.76 
L 115.333336 3.456 
" clip-path="url(#p9e96ef277e)" style="fill: none; stroke: #b0b0b0; stroke-width: 0.8; stroke-linecap: square"/>
     </g>
     <g id="line2d_32">
      <g>
       <use xlink:href="#m5b8ce69073" x="115.333336" y="293.76" style="stroke: #000000; stroke-width: 0.6"/>
      </g>
     </g>
    </g>
    <g id="xtick_7">
     <g id="line2d_33">
      <path d="M 123.884605 293.76 
L 123.884605 3.456 
" clip-path="url(#p9e96ef277e)" style="fill: none; stroke: #b0b0b0; stroke-width: 0.8; stroke-linecap: square"/>
     </g>
     <g id="line2d_34">
      <g>
       <use xlink:href="#m5b8ce69073" x="123.884605" y="293.76" style="stroke: #000000; stroke-width: 0.6"/>
      </g>
     </g>
    </g>
    <g id="xtick_8">
     <g id="line2d_35">
      <path d="M 130.8715 293.76 
L 130.8715 3.456 
" clip-path="url(#p9e96ef277e)" style="fill: none; stroke: #b0b0b0; stroke-width: 0.8; stroke-linecap: square"/>
     </g>
     <g id="line2d_36">
      <g>
       <use xlink:href="#m5b8ce69073" x="130.8715" y="293.76" style="stroke: #000000; stroke-width: 0.6"/>
      </g>
     </g>
    </g>
    <g id="xtick_9">
     <g id="line2d_37">
      <path d="M 136.778836 293.76 
L 136.778836 3.456 
" clip-path="url(#p9e96ef277e)" style="fill: none; stroke: #b0b0b0; stroke-width: 0.8; stroke-linecap: square"/>
     </g>
     <g id="line2d_38">
      <g>
       <use xlink:href="#m5b8ce69073" x="136.778836" y="293.76" style="stroke: #000000; stroke-width: 0.6"/>
      </g>
     </g>
    </g>
    <g id="xtick_10">
     <g id="line2d_39">
      <path d="M 141.896003 293.76 
L 141.896003 3.456 
" clip-path="url(#p9e96ef277e)" style="fill: none; stroke: #b0b0b0; stroke-width: 0.8; stroke-linecap: square"/>
     </g>
     <g id="line2d_40">
      <g>
       <use xlink:href="#m5b8ce69073" x="141.896003" y="293.76" style="stroke: #000000; stroke-width: 0.6"/>
      </g>
     </g>
    </g>
    <g id="xtick_11">
     <g id="line2d_41">
      <path d="M 146.409665 293.76 
L 146.409665 3.456 
" clip-path="url(#p9e96ef277e)" style="fill: none; stroke: #b0b0b0; stroke-width: 0.8; stroke-linecap: square"/>
     </g>
     <g id="line2d_42">
      <g>
       <use xlink:href="#m5b8ce69073" x="146.409665" y="293.76" style="stroke: #000000; stroke-width: 0.6"/>
      </g>
     </g>
    </g>
    <g id="xtick_12">
     <g id="line2d_43">
      <path d="M 177.00994 293.76 
L 177.00994 3.456 
" clip-path="url(#p9e96ef277e)" style="fill: none; stroke: #b0b0b0; stroke-width: 0.8; stroke-linecap: square"/>
     </g>
     <g id="line2d_44">
      <g>
       <use xlink:href="#m5b8ce69073" x="177.00994" y="293.76" style="stroke: #000000; stroke-width: 0.6"/>
      </g>
     </g>
    </g>
    <g id="xtick_13">
     <g id="line2d_45">
      <path d="M 192.548105 293.76 
L 192.548105 3.456 
" clip-path="url(#p9e96ef277e)" style="fill: none; stroke: #b0b0b0; stroke-width: 0.8; stroke-linecap: square"/>
     </g>
     <g id="line2d_46">
      <g>
       <use xlink:href="#m5b8ce69073" x="192.548105" y="293.76" style="stroke: #000000; stroke-width: 0.6"/>
      </g>
     </g>
    </g>
    <g id="xtick_14">
     <g id="line2d_47">
      <path d="M 203.572608 293.76 
L 203.572608 3.456 
" clip-path="url(#p9e96ef277e)" style="fill: none; stroke: #b0b0b0; stroke-width: 0.8; stroke-linecap: square"/>
     </g>
     <g id="line2d_48">
      <g>
       <use xlink:href="#m5b8ce69073" x="203.572608" y="293.76" style="stroke: #000000; stroke-width: 0.6"/>
      </g>
     </g>
    </g>
    <g id="xtick_15">
     <g id="line2d_49">
      <path d="M 212.123877 293.76 
L 212.123877 3.456 
" clip-path="url(#p9e96ef277e)" style="fill: none; stroke: #b0b0b0; stroke-width: 0.8; stroke-linecap: square"/>
     </g>
     <g id="line2d_50">
      <g>
       <use xlink:href="#m5b8ce69073" x="212.123877" y="293.76" style="stroke: #000000; stroke-width: 0.6"/>
      </g>
     </g>
    </g>
    <g id="xtick_16">
     <g id="line2d_51">
      <path d="M 219.110773 293.76 
L 219.110773 3.456 
" clip-path="url(#p9e96ef277e)" style="fill: none; stroke: #b0b0b0; stroke-width: 0.8; stroke-linecap: square"/>
     </g>
     <g id="line2d_52">
      <g>
       <use xlink:href="#m5b8ce69073" x="219.110773" y="293.76" style="stroke: #000000; stroke-width: 0.6"/>
      </g>
     </g>
    </g>
    <g id="xtick_17">
     <g id="line2d_53">
      <path d="M 225.018109 293.76 
L 225.018109 3.456 
" clip-path="url(#p9e96ef277e)" style="fill: none; stroke: #b0b0b0; stroke-width: 0.8; stroke-linecap: square"/>
     </g>
     <g id="line2d_54">
      <g>
       <use xlink:href="#m5b8ce69073" x="225.018109" y="293.76" style="stroke: #000000; stroke-width: 0.6"/>
      </g>
     </g>
    </g>
    <g id="xtick_18">
     <g id="line2d_55">
      <path d="M 230.135276 293.76 
L 230.135276 3.456 
" clip-path="url(#p9e96ef277e)" style="fill: none; stroke: #b0b0b0; stroke-width: 0.8; stroke-linecap: square"/>
     </g>
     <g id="line2d_56">
      <g>
       <use xlink:href="#m5b8ce69073" x="230.135276" y="293.76" style="stroke: #000000; stroke-width: 0.6"/>
      </g>
     </g>
    </g>
    <g id="xtick_19">
     <g id="line2d_57">
      <path d="M 234.648937 293.76 
L 234.648937 3.456 
" clip-path="url(#p9e96ef277e)" style="fill: none; stroke: #b0b0b0; stroke-width: 0.8; stroke-linecap: square"/>
     </g>
     <g id="line2d_58">
      <g>
       <use xlink:href="#m5b8ce69073" x="234.648937" y="293.76" style="stroke: #000000; stroke-width: 0.6"/>
      </g>
     </g>
    </g>
    <g id="xtick_20">
     <g id="line2d_59">
      <path d="M 265.249213 293.76 
L 265.249213 3.456 
" clip-path="url(#p9e96ef277e)" style="fill: none; stroke: #b0b0b0; stroke-width: 0.8; stroke-linecap: square"/>
     </g>
     <g id="line2d_60">
      <g>
       <use xlink:href="#m5b8ce69073" x="265.249213" y="293.76" style="stroke: #000000; stroke-width: 0.6"/>
      </g>
     </g>
    </g>
    <g id="xtick_21">
     <g id="line2d_61">
      <path d="M 280.787377 293.76 
L 280.787377 3.456 
" clip-path="url(#p9e96ef277e)" style="fill: none; stroke: #b0b0b0; stroke-width: 0.8; stroke-linecap: square"/>
     </g>
     <g id="line2d_62">
      <g>
       <use xlink:href="#m5b8ce69073" x="280.787377" y="293.76" style="stroke: #000000; stroke-width: 0.6"/>
      </g>
     </g>
    </g>
    <g id="xtick_22">
     <g id="line2d_63">
      <path d="M 291.81188 293.76 
L 291.81188 3.456 
" clip-path="url(#p9e96ef277e)" style="fill: none; stroke: #b0b0b0; stroke-width: 0.8; stroke-linecap: square"/>
     </g>
     <g id="line2d_64">
      <g>
       <use xlink:href="#m5b8ce69073" x="291.81188" y="293.76" style="stroke: #000000; stroke-width: 0.6"/>
      </g>
     </g>
    </g>
    <g id="xtick_23">
     <g id="line2d_65">
      <path d="M 300.363149 293.76 
L 300.363149 3.456 
" clip-path="url(#p9e96ef277e)" style="fill: none; stroke: #b0b0b0; stroke-width: 0.8; stroke-linecap: square"/>
     </g>
     <g id="line2d_66">
      <g>
       <use xlink:href="#m5b8ce69073" x="300.363149" y="293.76" style="stroke: #000000; stroke-width: 0.6"/>
      </g>
     </g>
    </g>
    <g id="xtick_24">
     <g id="line2d_67">
      <path d="M 307.350045 293.76 
L 307.350045 3.456 
" clip-path="url(#p9e96ef277e)" style="fill: none; stroke: #b0b0b0; stroke-width: 0.8; stroke-linecap: square"/>
     </g>
     <g id="line2d_68">
      <g>
       <use xlink:href="#m5b8ce69073" x="307.350045" y="293.76" style="stroke: #000000; stroke-width: 0.6"/>
      </g>
     </g>
    </g>
    <g id="xtick_25">
     <g id="line2d_69">
      <path d="M 313.257381 293.76 
L 313.257381 3.456 
" clip-path="url(#p9e96ef277e)" style="fill: none; stroke: #b0b0b0; stroke-width: 0.8; stroke-linecap: square"/>
     </g>
     <g id="line2d_70">
      <g>
       <use xlink:href="#m5b8ce69073" x="313.257381" y="293.76" style="stroke: #000000; stroke-width: 0.6"/>
      </g>
     </g>
    </g>
    <g id="xtick_26">
     <g id="line2d_71">
      <path d="M 318.374548 293.76 
L 318.374548 3.456 
" clip-path="url(#p9e96ef277e)" style="fill: none; stroke: #b0b0b0; stroke-width: 0.8; stroke-linecap: square"/>
     </g>
     <g id="line2d_72">
      <g>
       <use xlink:href="#m5b8ce69073" x="318.374548" y="293.76" style="stroke: #000000; stroke-width: 0.6"/>
      </g>
     </g>
    </g>
    <g id="xtick_27">
     <g id="line2d_73">
      <path d="M 322.88821 293.76 
L 322.88821 3.456 
" clip-path="url(#p9e96ef277e)" style="fill: none; stroke: #b0b0b0; stroke-width: 0.8; stroke-linecap: square"/>
     </g>
     <g id="line2d_74">
      <g>
       <use xlink:href="#m5b8ce69073" x="322.88821" y="293.76" style="stroke: #000000; stroke-width: 0.6"/>
      </g>
     </g>
    </g>
    <g id="xtick_28">
     <g id="line2d_75">
      <path d="M 353.488485 293.76 
L 353.488485 3.456 
" clip-path="url(#p9e96ef277e)" style="fill: none; stroke: #b0b0b0; stroke-width: 0.8; stroke-linecap: square"/>
     </g>
     <g id="line2d_76">
      <g>
       <use xlink:href="#m5b8ce69073" x="353.488485" y="293.76" style="stroke: #000000; stroke-width: 0.6"/>
      </g>
     </g>
    </g>
    <g id="xtick_29">
     <g id="line2d_77">
      <path d="M 369.02665 293.76 
L 369.02665 3.456 
" clip-path="url(#p9e96ef277e)" style="fill: none; stroke: #b0b0b0; stroke-width: 0.8; stroke-linecap: square"/>
     </g>
     <g id="line2d_78">
      <g>
       <use xlink:href="#m5b8ce69073" x="369.02665" y="293.76" style="stroke: #000000; stroke-width: 0.6"/>
      </g>
     </g>
    </g>
    <g id="xtick_30">
     <g id="line2d_79">
      <path d="M 380.051153 293.76 
L 380.051153 3.456 
" clip-path="url(#p9e96ef277e)" style="fill: none; stroke: #b0b0b0; stroke-width: 0.8; stroke-linecap: square"/>
     </g>
     <g id="line2d_80">
      <g>
       <use xlink:href="#m5b8ce69073" x="380.051153" y="293.76" style="stroke: #000000; stroke-width: 0.6"/>
      </g>
     </g>
    </g>
    <g id="xtick_31">
     <g id="line2d_81">
      <path d="M 388.602422 293.76 
L 388.602422 3.456 
" clip-path="url(#p9e96ef277e)" style="fill: none; stroke: #b0b0b0; stroke-width: 0.8; stroke-linecap: square"/>
     </g>
     <g id="line2d_82">
      <g>
       <use xlink:href="#m5b8ce69073" x="388.602422" y="293.76" style="stroke: #000000; stroke-width: 0.6"/>
      </g>
     </g>
    </g>
    <g id="xtick_32">
     <g id="line2d_83">
      <path d="M 395.589317 293.76 
L 395.589317 3.456 
" clip-path="url(#p9e96ef277e)" style="fill: none; stroke: #b0b0b0; stroke-width: 0.8; stroke-linecap: square"/>
     </g>
     <g id="line2d_84">
      <g>
       <use xlink:href="#m5b8ce69073" x="395.589317" y="293.76" style="stroke: #000000; stroke-width: 0.6"/>
      </g>
     </g>
    </g>
    <g id="xtick_33">
     <g id="line2d_85">
      <path d="M 401.496653 293.76 
L 401.496653 3.456 
" clip-path="url(#p9e96ef277e)" style="fill: none; stroke: #b0b0b0; stroke-width: 0.8; stroke-linecap: square"/>
     </g>
     <g id="line2d_86">
      <g>
       <use xlink:href="#m5b8ce69073" x="401.496653" y="293.76" style="stroke: #000000; stroke-width: 0.6"/>
      </g>
     </g>
    </g>
    <g id="xtick_34">
     <g id="line2d_87">
      <path d="M 406.613821 293.76 
L 406.613821 3.456 
" clip-path="url(#p9e96ef277e)" style="fill: none; stroke: #b0b0b0; stroke-width: 0.8; stroke-linecap: square"/>
     </g>
     <g id="line2d_88">
      <g>
       <use xlink:href="#m5b8ce69073" x="406.613821" y="293.76" style="stroke: #000000; stroke-width: 0.6"/>
      </g>
     </g>
    </g>
    <g id="xtick_35">
     <g id="line2d_89">
      <path d="M 411.127482 293.76 
L 411.127482 3.456 
" clip-path="url(#p9e96ef277e)" style="fill: none; stroke: #b0b0b0; stroke-width: 0.8; stroke-linecap: square"/>
     </g>
     <g id="line2d_90">
      <g>
       <use xlink:href="#m5b8ce69073" x="411.127482" y="293.76" style="stroke: #000000; stroke-width: 0.6"/>
      </g>
     </g>
    </g>
    <g id="xtick_36">
     <g id="line2d_91">
      <path d="M 441.727758 293.76 
L 441.727758 3.456 
" clip-path="url(#p9e96ef277e)" style="fill: none; stroke: #b0b0b0; stroke-width: 0.8; stroke-linecap: square"/>
     </g>
     <g id="line2d_92">
      <g>
       <use xlink:href="#m5b8ce69073" x="441.727758" y="293.76" style="stroke: #000000; stroke-width: 0.6"/>
      </g>
     </g>
    </g>
    <g id="xtick_37">
     <g id="line2d_93">
      <path d="M 457.265922 293.76 
L 457.265922 3.456 
" clip-path="url(#p9e96ef277e)" style="fill: none; stroke: #b0b0b0; stroke-width: 0.8; stroke-linecap: square"/>
     </g>
     <g id="line2d_94">
      <g>
       <use xlink:href="#m5b8ce69073" x="457.265922" y="293.76" style="stroke: #000000; stroke-width: 0.6"/>
      </g>
     </g>
    </g>
    <g id="text_4">
     <!-- log10 of FEvals / DIM -->
     <g transform="translate(156.430563 339.313125) scale(0.2 -0.2)">
      <defs>
       <path id="DejaVuSans-6c" d="M 603 4863 
L 1178 4863 
L 1178 0 
L 603 0 
L 603 4863 
z
" transform="scale(0.015625)"/>
       <path id="DejaVuSans-6f" d="M 1959 3097 
Q 1497 3097 1228 2736 
Q 959 2375 959 1747 
Q 959 1119 1226 758 
Q 1494 397 1959 397 
Q 2419 397 2687 759 
Q 2956 1122 2956 1747 
Q 2956 2369 2687 2733 
Q 2419 3097 1959 3097 
z
M 1959 3584 
Q 2709 3584 3137 3096 
Q 3566 2609 3566 1747 
Q 3566 888 3137 398 
Q 2709 -91 1959 -91 
Q 1206 -91 779 398 
Q 353 888 353 1747 
Q 353 2609 779 3096 
Q 1206 3584 1959 3584 
z
" transform="scale(0.015625)"/>
       <path id="DejaVuSans-67" d="M 2906 1791 
Q 2906 2416 2648 2759 
Q 2391 3103 1925 3103 
Q 1463 3103 1205 2759 
Q 947 2416 947 1791 
Q 947 1169 1205 825 
Q 1463 481 1925 481 
Q 2391 481 2648 825 
Q 2906 1169 2906 1791 
z
M 3481 434 
Q 3481 -459 3084 -895 
Q 2688 -1331 1869 -1331 
Q 1566 -1331 1297 -1286 
Q 1028 -1241 775 -1147 
L 775 -588 
Q 1028 -725 1275 -790 
Q 1522 -856 1778 -856 
Q 2344 -856 2625 -561 
Q 2906 -266 2906 331 
L 2906 616 
Q 2728 306 2450 153 
Q 2172 0 1784 0 
Q 1141 0 747 490 
Q 353 981 353 1791 
Q 353 2603 747 3093 
Q 1141 3584 1784 3584 
Q 2172 3584 2450 3431 
Q 2728 3278 2906 2969 
L 2906 3500 
L 3481 3500 
L 3481 434 
z
" transform="scale(0.015625)"/>
       <path id="DejaVuSans-31" d="M 794 531 
L 1825 531 
L 1825 4091 
L 703 3866 
L 703 4441 
L 1819 4666 
L 2450 4666 
L 2450 531 
L 3481 531 
L 3481 0 
L 794 0 
L 794 531 
z
" transform="scale(0.015625)"/>
       <path id="DejaVuSans-20" transform="scale(0.015625)"/>
       <path id="DejaVuSans-66" d="M 2375 4863 
L 2375 4384 
L 1825 4384 
Q 1516 4384 1395 4259 
Q 1275 4134 1275 3809 
L 1275 3500 
L 2222 3500 
L 2222 3053 
L 1275 3053 
L 1275 0 
L 697 0 
L 697 3053 
L 147 3053 
L 147 3500 
L 697 3500 
L 697 3744 
Q 697 4328 969 4595 
Q 1241 4863 1831 4863 
L 2375 4863 
z
" transform="scale(0.015625)"/>
       <path id="DejaVuSans-46" d="M 628 4666 
L 3309 4666 
L 3309 4134 
L 1259 4134 
L 1259 2759 
L 3109 2759 
L 3109 2228 
L 1259 2228 
L 1259 0 
L 628 0 
L 628 4666 
z
" transform="scale(0.015625)"/>
       <path id="DejaVuSans-45" d="M 628 4666 
L 3578 4666 
L 3578 4134 
L 1259 4134 
L 1259 2753 
L 3481 2753 
L 3481 2222 
L 1259 2222 
L 1259 531 
L 3634 531 
L 3634 0 
L 628 0 
L 628 4666 
z
" transform="scale(0.015625)"/>
       <path id="DejaVuSans-76" d="M 191 3500 
L 800 3500 
L 1894 563 
L 2988 3500 
L 3597 3500 
L 2284 0 
L 1503 0 
L 191 3500 
z
" transform="scale(0.015625)"/>
       <path id="DejaVuSans-61" d="M 2194 1759 
Q 1497 1759 1228 1600 
Q 959 1441 959 1056 
Q 959 750 1161 570 
Q 1363 391 1709 391 
Q 2188 391 2477 730 
Q 2766 1069 2766 1631 
L 2766 1759 
L 2194 1759 
z
M 3341 1997 
L 3341 0 
L 2766 0 
L 2766 531 
Q 2569 213 2275 61 
Q 1981 -91 1556 -91 
Q 1019 -91 701 211 
Q 384 513 384 1019 
Q 384 1609 779 1909 
Q 1175 2209 1959 2209 
L 2766 2209 
L 2766 2266 
Q 2766 2663 2505 2880 
Q 2244 3097 1772 3097 
Q 1472 3097 1187 3025 
Q 903 2953 641 2809 
L 641 3341 
Q 956 3463 1253 3523 
Q 1550 3584 1831 3584 
Q 2591 3584 2966 3190 
Q 3341 2797 3341 1997 
z
" transform="scale(0.015625)"/>
       <path id="DejaVuSans-73" d="M 2834 3397 
L 2834 2853 
Q 2591 2978 2328 3040 
Q 2066 3103 1784 3103 
Q 1356 3103 1142 2972 
Q 928 2841 928 2578 
Q 928 2378 1081 2264 
Q 1234 2150 1697 2047 
L 1894 2003 
Q 2506 1872 2764 1633 
Q 3022 1394 3022 966 
Q 3022 478 2636 193 
Q 2250 -91 1575 -91 
Q 1294 -91 989 -36 
Q 684 19 347 128 
L 347 722 
Q 666 556 975 473 
Q 1284 391 1588 391 
Q 1994 391 2212 530 
Q 2431 669 2431 922 
Q 2431 1156 2273 1281 
Q 2116 1406 1581 1522 
L 1381 1569 
Q 847 1681 609 1914 
Q 372 2147 372 2553 
Q 372 3047 722 3315 
Q 1072 3584 1716 3584 
Q 2034 3584 2315 3537 
Q 2597 3491 2834 3397 
z
" transform="scale(0.015625)"/>
       <path id="DejaVuSans-2f" d="M 1625 4666 
L 2156 4666 
L 531 -594 
L 0 -594 
L 1625 4666 
z
" transform="scale(0.015625)"/>
       <path id="DejaVuSans-44" d="M 1259 4147 
L 1259 519 
L 2022 519 
Q 2988 519 3436 956 
Q 3884 1394 3884 2338 
Q 3884 3275 3436 3711 
Q 2988 4147 2022 4147 
L 1259 4147 
z
M 628 4666 
L 1925 4666 
Q 3281 4666 3915 4102 
Q 4550 3538 4550 2338 
Q 4550 1131 3912 565 
Q 3275 0 1925 0 
L 628 0 
L 628 4666 
z
" transform="scale(0.015625)"/>
       <path id="DejaVuSans-49" d="M 628 4666 
L 1259 4666 
L 1259 0 
L 628 0 
L 628 4666 
z
" transform="scale(0.015625)"/>
       <path id="DejaVuSans-4d" d="M 628 4666 
L 1569 4666 
L 2759 1491 
L 3956 4666 
L 4897 4666 
L 4897 0 
L 4281 0 
L 4281 4097 
L 3078 897 
L 2444 897 
L 1241 4097 
L 1241 0 
L 628 0 
L 628 4666 
z
" transform="scale(0.015625)"/>
      </defs>
      <use xlink:href="#DejaVuSans-6c"/>
      <use xlink:href="#DejaVuSans-6f" x="27.783203"/>
      <use xlink:href="#DejaVuSans-67" x="88.964844"/>
      <use xlink:href="#DejaVuSans-31" x="152.441406"/>
      <use xlink:href="#DejaVuSans-30" x="216.064453"/>
      <use xlink:href="#DejaVuSans-20" x="279.6875"/>
      <use xlink:href="#DejaVuSans-6f" x="311.474609"/>
      <use xlink:href="#DejaVuSans-66" x="372.65625"/>
      <use xlink:href="#DejaVuSans-20" x="407.861328"/>
      <use xlink:href="#DejaVuSans-46" x="439.648438"/>
      <use xlink:href="#DejaVuSans-45" x="497.167969"/>
      <use xlink:href="#DejaVuSans-76" x="560.351562"/>
      <use xlink:href="#DejaVuSans-61" x="619.53125"/>
      <use xlink:href="#DejaVuSans-6c" x="680.810547"/>
      <use xlink:href="#DejaVuSans-73" x="708.59375"/>
      <use xlink:href="#DejaVuSans-20" x="760.693359"/>
      <use xlink:href="#DejaVuSans-2f" x="792.480469"/>
      <use xlink:href="#DejaVuSans-20" x="826.171875"/>
      <use xlink:href="#DejaVuSans-44" x="857.958984"/>
      <use xlink:href="#DejaVuSans-49" x="934.960938"/>
      <use xlink:href="#DejaVuSans-4d" x="964.453125"/>
     </g>
    </g>
   </g>
   <g id="matplotlib.axis_2">
    <g id="ytick_1">
     <g id="line2d_95">
      <path d="M 62.208 293.76 
L 460.8 293.76 
" clip-path="url(#p9e96ef277e)" style="fill: none; stroke: #b0b0b0; stroke-width: 0.8; stroke-linecap: square"/>
     </g>
     <g id="line2d_96">
      <defs>
       <path id="mf67c7b1b83" d="M 0 0 
L -3.5 0 
" style="stroke: #000000; stroke-width: 0.8"/>
      </defs>
      <g>
       <use xlink:href="#mf67c7b1b83" x="62.208" y="293.76" style="stroke: #000000; stroke-width: 0.8"/>
      </g>
     </g>
     <g id="text_5">
      <!-- 0.0 -->
      <g transform="translate(29.763 299.83875) scale(0.16 -0.16)">
       <defs>
        <path id="DejaVuSans-2e" d="M 684 794 
L 1344 794 
L 1344 0 
L 684 0 
L 684 794 
z
" transform="scale(0.015625)"/>
       </defs>
       <use xlink:href="#DejaVuSans-30"/>
       <use xlink:href="#DejaVuSans-2e" x="63.623047"/>
       <use xlink:href="#DejaVuSans-30" x="95.410156"/>
      </g>
     </g>
    </g>
    <g id="ytick_2">
     <g id="line2d_97">
      <path d="M 62.208 236.274059 
L 460.8 236.274059 
" clip-path="url(#p9e96ef277e)" style="fill: none; stroke: #b0b0b0; stroke-width: 0.8; stroke-linecap: square"/>
     </g>
     <g id="line2d_98">
      <g>
       <use xlink:href="#mf67c7b1b83" x="62.208" y="236.274059" style="stroke: #000000; stroke-width: 0.8"/>
      </g>
     </g>
     <g id="text_6">
      <!-- 0.2 -->
      <g transform="translate(29.763 242.352809) scale(0.16 -0.16)">
       <use xlink:href="#DejaVuSans-30"/>
       <use xlink:href="#DejaVuSans-2e" x="63.623047"/>
       <use xlink:href="#DejaVuSans-32" x="95.410156"/>
      </g>
     </g>
    </g>
    <g id="ytick_3">
     <g id="line2d_99">
      <path d="M 62.208 178.788119 
L 460.8 178.788119 
" clip-path="url(#p9e96ef277e)" style="fill: none; stroke: #b0b0b0; stroke-width: 0.8; stroke-linecap: square"/>
     </g>
     <g id="line2d_100">
      <g>
       <use xlink:href="#mf67c7b1b83" x="62.208" y="178.788119" style="stroke: #000000; stroke-width: 0.8"/>
      </g>
     </g>
     <g id="text_7">
      <!-- 0.4 -->
      <g transform="translate(29.763 184.866869) scale(0.16 -0.16)">
       <use xlink:href="#DejaVuSans-30"/>
       <use xlink:href="#DejaVuSans-2e" x="63.623047"/>
       <use xlink:href="#DejaVuSans-34" x="95.410156"/>
      </g>
     </g>
    </g>
    <g id="ytick_4">
     <g id="line2d_101">
      <path d="M 62.208 121.302178 
L 460.8 121.302178 
" clip-path="url(#p9e96ef277e)" style="fill: none; stroke: #b0b0b0; stroke-width: 0.8; stroke-linecap: square"/>
     </g>
     <g id="line2d_102">
      <g>
       <use xlink:href="#mf67c7b1b83" x="62.208" y="121.302178" style="stroke: #000000; stroke-width: 0.8"/>
      </g>
     </g>
     <g id="text_8">
      <!-- 0.6 -->
      <g transform="translate(29.763 127.380928) scale(0.16 -0.16)">
       <defs>
        <path id="DejaVuSans-36" d="M 2113 2584 
Q 1688 2584 1439 2293 
Q 1191 2003 1191 1497 
Q 1191 994 1439 701 
Q 1688 409 2113 409 
Q 2538 409 2786 701 
Q 3034 994 3034 1497 
Q 3034 2003 2786 2293 
Q 2538 2584 2113 2584 
z
M 3366 4563 
L 3366 3988 
Q 3128 4100 2886 4159 
Q 2644 4219 2406 4219 
Q 1781 4219 1451 3797 
Q 1122 3375 1075 2522 
Q 1259 2794 1537 2939 
Q 1816 3084 2150 3084 
Q 2853 3084 3261 2657 
Q 3669 2231 3669 1497 
Q 3669 778 3244 343 
Q 2819 -91 2113 -91 
Q 1303 -91 875 529 
Q 447 1150 447 2328 
Q 447 3434 972 4092 
Q 1497 4750 2381 4750 
Q 2619 4750 2861 4703 
Q 3103 4656 3366 4563 
z
" transform="scale(0.015625)"/>
       </defs>
       <use xlink:href="#DejaVuSans-30"/>
       <use xlink:href="#DejaVuSans-2e" x="63.623047"/>
       <use xlink:href="#DejaVuSans-36" x="95.410156"/>
      </g>
     </g>
    </g>
    <g id="ytick_5">
     <g id="line2d_103">
      <path d="M 62.208 63.816238 
L 460.8 63.816238 
" clip-path="url(#p9e96ef277e)" style="fill: none; stroke: #b0b0b0; stroke-width: 0.8; stroke-linecap: square"/>
     </g>
     <g id="line2d_104">
      <g>
       <use xlink:href="#mf67c7b1b83" x="62.208" y="63.816238" style="stroke: #000000; stroke-width: 0.8"/>
      </g>
     </g>
     <g id="text_9">
      <!-- 0.8 -->
      <g transform="translate(29.763 69.894988) scale(0.16 -0.16)">
       <defs>
        <path id="DejaVuSans-38" d="M 2034 2216 
Q 1584 2216 1326 1975 
Q 1069 1734 1069 1313 
Q 1069 891 1326 650 
Q 1584 409 2034 409 
Q 2484 409 2743 651 
Q 3003 894 3003 1313 
Q 3003 1734 2745 1975 
Q 2488 2216 2034 2216 
z
M 1403 2484 
Q 997 2584 770 2862 
Q 544 3141 544 3541 
Q 544 4100 942 4425 
Q 1341 4750 2034 4750 
Q 2731 4750 3128 4425 
Q 3525 4100 3525 3541 
Q 3525 3141 3298 2862 
Q 3072 2584 2669 2484 
Q 3125 2378 3379 2068 
Q 3634 1759 3634 1313 
Q 3634 634 3220 271 
Q 2806 -91 2034 -91 
Q 1263 -91 848 271 
Q 434 634 434 1313 
Q 434 1759 690 2068 
Q 947 2378 1403 2484 
z
M 1172 3481 
Q 1172 3119 1398 2916 
Q 1625 2713 2034 2713 
Q 2441 2713 2670 2916 
Q 2900 3119 2900 3481 
Q 2900 3844 2670 4047 
Q 2441 4250 2034 4250 
Q 1625 4250 1398 4047 
Q 1172 3844 1172 3481 
z
" transform="scale(0.015625)"/>
       </defs>
       <use xlink:href="#DejaVuSans-30"/>
       <use xlink:href="#DejaVuSans-2e" x="63.623047"/>
       <use xlink:href="#DejaVuSans-38" x="95.410156"/>
      </g>
     </g>
    </g>
    <g id="ytick_6">
     <g id="line2d_105">
      <path d="M 62.208 6.330297 
L 460.8 6.330297 
" clip-path="url(#p9e96ef277e)" style="fill: none; stroke: #b0b0b0; stroke-width: 0.8; stroke-linecap: square"/>
     </g>
     <g id="line2d_106">
      <g>
       <use xlink:href="#mf67c7b1b83" x="62.208" y="6.330297" style="stroke: #000000; stroke-width: 0.8"/>
      </g>
     </g>
     <g id="text_10">
      <!-- 1.0 -->
      <g transform="translate(29.763 12.409047) scale(0.16 -0.16)">
       <use xlink:href="#DejaVuSans-31"/>
       <use xlink:href="#DejaVuSans-2e" x="63.623047"/>
       <use xlink:href="#DejaVuSans-30" x="95.410156"/>
      </g>
     </g>
    </g>
    <g id="text_11">
     <!-- proportion of trials -->
     <g transform="translate(21.603625 241.61425) rotate(-90) scale(0.2 -0.2)">
      <defs>
       <path id="DejaVuSans-70" d="M 1159 525 
L 1159 -1331 
L 581 -1331 
L 581 3500 
L 1159 3500 
L 1159 2969 
Q 1341 3281 1617 3432 
Q 1894 3584 2278 3584 
Q 2916 3584 3314 3078 
Q 3713 2572 3713 1747 
Q 3713 922 3314 415 
Q 2916 -91 2278 -91 
Q 1894 -91 1617 61 
Q 1341 213 1159 525 
z
M 3116 1747 
Q 3116 2381 2855 2742 
Q 2594 3103 2138 3103 
Q 1681 3103 1420 2742 
Q 1159 2381 1159 1747 
Q 1159 1113 1420 752 
Q 1681 391 2138 391 
Q 2594 391 2855 752 
Q 3116 1113 3116 1747 
z
" transform="scale(0.015625)"/>
       <path id="DejaVuSans-72" d="M 2631 2963 
Q 2534 3019 2420 3045 
Q 2306 3072 2169 3072 
Q 1681 3072 1420 2755 
Q 1159 2438 1159 1844 
L 1159 0 
L 581 0 
L 581 3500 
L 1159 3500 
L 1159 2956 
Q 1341 3275 1631 3429 
Q 1922 3584 2338 3584 
Q 2397 3584 2469 3576 
Q 2541 3569 2628 3553 
L 2631 2963 
z
" transform="scale(0.015625)"/>
       <path id="DejaVuSans-74" d="M 1172 4494 
L 1172 3500 
L 2356 3500 
L 2356 3053 
L 1172 3053 
L 1172 1153 
Q 1172 725 1289 603 
Q 1406 481 1766 481 
L 2356 481 
L 2356 0 
L 1766 0 
Q 1100 0 847 248 
Q 594 497 594 1153 
L 594 3053 
L 172 3053 
L 172 3500 
L 594 3500 
L 594 4494 
L 1172 4494 
z
" transform="scale(0.015625)"/>
       <path id="DejaVuSans-69" d="M 603 3500 
L 1178 3500 
L 1178 0 
L 603 0 
L 603 3500 
z
M 603 4863 
L 1178 4863 
L 1178 4134 
L 603 4134 
L 603 4863 
z
" transform="scale(0.015625)"/>
       <path id="DejaVuSans-6e" d="M 3513 2113 
L 3513 0 
L 2938 0 
L 2938 2094 
Q 2938 2591 2744 2837 
Q 2550 3084 2163 3084 
Q 1697 3084 1428 2787 
Q 1159 2491 1159 1978 
L 1159 0 
L 581 0 
L 581 3500 
L 1159 3500 
L 1159 2956 
Q 1366 3272 1645 3428 
Q 1925 3584 2291 3584 
Q 2894 3584 3203 3211 
Q 3513 2838 3513 2113 
z
" transform="scale(0.015625)"/>
      </defs>
      <use xlink:href="#DejaVuSans-70"/>
      <use xlink:href="#DejaVuSans-72" x="63.476562"/>
      <use xlink:href="#DejaVuSans-6f" x="102.339844"/>
      <use xlink:href="#DejaVuSans-70" x="163.521484"/>
      <use xlink:href="#DejaVuSans-6f" x="226.998047"/>
      <use xlink:href="#DejaVuSans-72" x="288.179688"/>
      <use xlink:href="#DejaVuSans-74" x="329.292969"/>
      <use xlink:href="#DejaVuSans-69" x="368.501953"/>
      <use xlink:href="#DejaVuSans-6f" x="396.285156"/>
      <use xlink:href="#DejaVuSans-6e" x="457.466797"/>
      <use xlink:href="#DejaVuSans-20" x="520.845703"/>
      <use xlink:href="#DejaVuSans-6f" x="552.632812"/>
      <use xlink:href="#DejaVuSans-66" x="613.814453"/>
      <use xlink:href="#DejaVuSans-20" x="649.019531"/>
      <use xlink:href="#DejaVuSans-74" x="680.806641"/>
      <use xlink:href="#DejaVuSans-72" x="720.015625"/>
      <use xlink:href="#DejaVuSans-69" x="761.128906"/>
      <use xlink:href="#DejaVuSans-61" x="788.912109"/>
      <use xlink:href="#DejaVuSans-6c" x="850.191406"/>
      <use xlink:href="#DejaVuSans-73" x="877.974609"/>
     </g>
    </g>
   </g>
   <g id="line2d_107">
    <path d="M 177.391255 293.76 
L 177.391255 289.927604 
L 187.830316 289.927604 
L 187.830316 286.095208 
L 190.548822 286.095208 
L 190.548822 282.262812 
L 196.113371 282.262812 
L 196.113371 278.430416 
L 197.569347 278.430416 
L 197.569347 274.59802 
L 198.373235 274.59802 
L 198.373235 270.765624 
L 202.430039 270.765624 
L 202.430039 266.933228 
L 206.610501 266.933228 
L 206.610501 263.100832 
L 213.957091 263.100832 
L 213.957091 259.268436 
L 217.245834 259.268436 
L 217.245834 255.43604 
L 220.274512 255.43604 
L 220.274512 251.603644 
L 225.95102 251.603644 
L 225.95102 247.771248 
L 230.492869 247.771248 
L 230.492869 243.938851 
L 231.522962 243.938851 
L 231.522962 240.106455 
L 234.606334 240.106455 
L 234.606334 236.274059 
L 235.564035 236.274059 
L 235.564035 232.441663 
L 240.382519 232.441663 
L 240.382519 228.609267 
L 243.420984 228.609267 
L 243.420984 224.776871 
L 250.757661 224.776871 
L 250.757661 220.944475 
L 251.477991 220.944475 
L 251.477991 217.112079 
L 251.621814 217.112079 
L 251.642316 209.447287 
L 262.622384 209.447287 
L 262.622384 205.614891 
L 265.177292 205.614891 
L 265.177292 201.782495 
L 305.587229 201.782495 
L 305.587229 197.950099 
L 310.362854 197.950099 
L 310.362854 194.117703 
L 313.389909 194.117703 
L 313.389909 190.285307 
L 314.580996 190.285307 
L 314.666841 182.620515 
L 315.155775 182.620515 
L 315.155775 178.788119 
L 332.958861 178.788119 
L 332.958861 174.955723 
L 333.142581 174.955723 
L 333.142581 171.123327 
L 335.279604 171.123327 
L 335.279604 167.290931 
L 337.981684 167.290931 
L 337.981684 163.458535 
L 340.359582 163.458535 
L 340.359582 159.626139 
L 341.050337 159.626139 
L 341.050337 155.793743 
L 341.793913 155.793743 
L 341.793913 151.961347 
L 342.95328 151.961347 
L 342.95328 148.12895 
L 343.592388 148.12895 
L 343.592388 144.296554 
L 350.68065 144.296554 
L 350.68065 140.464158 
L 364.540044 140.464158 
L 364.540044 136.631762 
L 365.01139 136.631762 
L 365.01139 132.799366 
L 365.741653 132.799366 
L 365.852482 125.134574 
L 366.939115 125.134574 
L 366.939115 121.302178 
L 368.13005 121.302178 
L 368.13005 117.469782 
L 368.405946 117.469782 
L 368.478255 105.972594 
L 368.958888 105.972594 
L 368.958888 102.140198 
L 369.355758 102.140198 
L 369.355758 98.307802 
L 371.998995 98.307802 
L 371.998995 94.475406 
L 385.168081 94.475406 
L 385.168081 90.64301 
L 387.313889 90.64301 
L 387.313889 86.810614 
L 388.040354 86.810614 
L 388.040354 82.978218 
L 390.381714 82.978218 
L 390.428512 75.313426 
L 391.710699 75.313426 
L 391.710699 71.48103 
L 413.19046 71.48103 
L 413.19046 67.648634 
L 413.804358 67.648634 
L 413.804358 63.816238 
L 419.269941 63.816238 
L 419.269941 59.983842 
L 420.27682 59.983842 
L 420.27682 56.151446 
L 435.299488 56.151446 
L 435.299488 52.31905 
L 438.088219 52.31905 
L 438.088219 48.486653 
L 438.088219 48.486653 
L 460.8 48.486653 
L 460.8 48.486653 
" clip-path="url(#p9e96ef277e)" style="fill: none; stroke: #000000; stroke-width: 1.5; stroke-linecap: square"/>
   </g>
   <g id="line2d_108">
    <defs>
     <path id="m3313e722a8" d="M 0 14.142136 
L 8.485281 0 
L 0 -14.142136 
L -8.485281 0 
z
" style="stroke: #000000; stroke-width: 1.5; stroke-linejoin: miter"/>
    </defs>
    <g clip-path="url(#p9e96ef277e)">
     <use xlink:href="#m3313e722a8" x="213.957091" y="263.100832" style="fill-opacity: 0; stroke: #000000; stroke-width: 1.5; stroke-linejoin: miter"/>
     <use xlink:href="#m3313e722a8" x="265.177292" y="205.614891" style="fill-opacity: 0; stroke: #000000; stroke-width: 1.5; stroke-linejoin: miter"/>
     <use xlink:href="#m3313e722a8" x="368.13005" y="121.302178" style="fill-opacity: 0; stroke: #000000; stroke-width: 1.5; stroke-linejoin: miter"/>
     <use xlink:href="#m3313e722a8" x="391.710699" y="75.313426" style="fill-opacity: 0; stroke: #000000; stroke-width: 1.5; stroke-linejoin: miter"/>
     <use xlink:href="#m3313e722a8" x="438.088219" y="48.486653" style="fill-opacity: 0; stroke: #000000; stroke-width: 1.5; stroke-linejoin: miter"/>
    </g>
   </g>
   <g id="line2d_109">
    <path clip-path="url(#p9e96ef277e)" style="fill: none; stroke: #000000; stroke-width: 1.5; stroke-linecap: square"/>
    <g clip-path="url(#p9e96ef277e)">
     <use xlink:href="#m3313e722a8" x="-1" y="581.189703" style="fill-opacity: 0; stroke: #000000; stroke-width: 1.5; stroke-linejoin: miter"/>
     <use xlink:href="#m3313e722a8" x="460.8" y="581.189703" style="fill-opacity: 0; stroke: #000000; stroke-width: 1.5; stroke-linejoin: miter"/>
    </g>
   </g>
   <g id="line2d_110">
    <path d="M 171.118568 293.76 
L 171.118568 289.927604 
L 185.866564 289.927604 
L 185.866564 286.095208 
L 206.165411 286.095208 
L 206.165411 282.262812 
L 207.420533 282.262812 
L 207.420533 278.430416 
L 213.773995 278.430416 
L 213.773995 274.59802 
L 215.741484 274.59802 
L 215.741484 270.765624 
L 217.161924 270.765624 
L 217.161924 266.933228 
L 217.396411 266.933228 
L 217.396411 263.100832 
L 222.501053 263.100832 
L 222.501053 259.268436 
L 224.271825 259.268436 
L 224.271825 255.43604 
L 226.124271 255.43604 
L 226.124271 251.603644 
L 226.835663 251.603644 
L 226.835663 247.771248 
L 226.900869 247.771248 
L 226.900869 243.938851 
L 227.392846 243.938851 
L 227.392846 240.106455 
L 228.520972 240.106455 
L 228.520972 236.274059 
L 229.226415 236.274059 
L 229.226415 232.441663 
L 234.015682 232.441663 
L 234.015682 228.609267 
L 235.874586 228.609267 
L 235.874586 224.776871 
L 237.617933 224.776871 
L 237.617933 220.944475 
L 240.48321 220.944475 
L 240.48321 217.112079 
L 249.564667 217.112079 
L 249.564667 213.279683 
L 249.751743 213.279683 
L 249.751743 209.447287 
L 262.499063 209.447287 
L 262.499063 205.614891 
L 263.719752 205.614891 
L 263.719752 201.782495 
L 265.018589 201.782495 
L 265.018589 197.950099 
L 281.555642 197.950099 
L 281.555642 194.117703 
L 282.902672 194.117703 
L 282.902672 190.285307 
L 284.19227 190.285307 
L 284.19227 186.452911 
L 284.824027 186.452911 
L 284.824027 182.620515 
L 286.215443 182.620515 
L 286.215443 178.788119 
L 286.521876 178.788119 
L 286.521876 174.955723 
L 292.079199 174.955723 
L 292.079199 171.123327 
L 292.960902 171.123327 
L 292.960902 167.290931 
L 297.46449 167.290931 
L 297.46449 163.458535 
L 299.49106 163.458535 
L 299.49106 159.626139 
L 301.099474 159.626139 
L 301.099474 155.793743 
L 301.406499 155.793743 
L 301.406499 151.961347 
L 304.034766 151.961347 
L 304.034766 148.12895 
L 304.697557 148.12895 
L 304.697557 144.296554 
L 305.330569 144.296554 
L 305.330569 140.464158 
L 305.528667 140.464158 
L 305.528667 136.631762 
L 310.787067 136.631762 
L 310.787067 132.799366 
L 338.430632 132.799366 
L 338.430632 128.96697 
L 341.4564 128.96697 
L 341.4564 125.134574 
L 344.203926 125.134574 
L 344.203926 121.302178 
L 370.005616 121.302178 
L 370.005616 117.469782 
L 381.373412 117.469782 
L 381.373412 113.637386 
L 390.593493 113.637386 
L 390.593493 109.80499 
L 393.921182 109.80499 
L 393.921182 105.972594 
L 398.077069 105.972594 
L 398.077069 102.140198 
L 398.863815 102.140198 
L 398.863815 98.307802 
L 404.914109 98.307802 
L 404.914109 94.475406 
L 409.192743 94.475406 
L 409.192743 90.64301 
L 410.684766 90.64301 
L 410.684766 86.810614 
L 415.481848 86.810614 
L 415.481848 82.978218 
L 415.481848 82.978218 
L 415.481848 82.978218 
L 460.8 82.978218 
" clip-path="url(#p9e96ef277e)" style="fill: none; stroke: #000000; stroke-width: 1.5; stroke-linecap: square"/>
   </g>
   <g id="line2d_111">
    <defs>
     <path id="mcbaad4d6ca" d="M 0 7.5 
C 1.989023 7.5 3.896849 6.709753 5.303301 5.303301 
C 6.709753 3.896849 7.5 1.989023 7.5 0 
C 7.5 -1.989023 6.709753 -3.896849 5.303301 -5.303301 
C 3.896849 -6.709753 1.989023 -7.5 0 -7.5 
C -1.989023 -7.5 -3.896849 -6.709753 -5.303301 -5.303301 
C -6.709753 -3.896849 -7.5 -1.989023 -7.5 0 
C -7.5 1.989023 -6.709753 3.896849 -5.303301 5.303301 
C -3.896849 6.709753 -1.989023 7.5 0 7.5 
z
" style="stroke: #000000; stroke-width: 1.5"/>
    </defs>
    <g clip-path="url(#p9e96ef277e)">
     <use xlink:href="#mcbaad4d6ca" x="234.015682" y="232.441663" style="fill-opacity: 0; stroke: #000000; stroke-width: 1.5"/>
     <use xlink:href="#mcbaad4d6ca" x="292.079199" y="174.955723" style="fill-opacity: 0; stroke: #000000; stroke-width: 1.5"/>
     <use xlink:href="#mcbaad4d6ca" x="341.4564" y="128.96697" style="fill-opacity: 0; stroke: #000000; stroke-width: 1.5"/>
     <use xlink:href="#mcbaad4d6ca" x="410.684766" y="90.64301" style="fill-opacity: 0; stroke: #000000; stroke-width: 1.5"/>
     <use xlink:href="#mcbaad4d6ca" x="415.481848" y="82.978218" style="fill-opacity: 0; stroke: #000000; stroke-width: 1.5"/>
    </g>
   </g>
   <g id="line2d_112">
    <path clip-path="url(#p9e96ef277e)" style="fill: none; stroke: #000000; stroke-width: 1.5; stroke-linecap: square"/>
   </g>
   <g id="line2d_113">
    <path d="M 316.4278 293.76 
L 316.4278 289.927604 
L 316.587482 289.927604 
L 316.587482 286.095208 
L 318.952186 286.095208 
L 318.952186 282.262812 
L 320.127766 282.262812 
L 320.127766 278.430416 
L 320.182638 278.430416 
L 320.182638 274.59802 
L 343.894455 274.59802 
L 343.894455 270.765624 
L 345.115238 270.765624 
L 345.115238 266.933228 
L 345.252668 266.933228 
L 345.252668 263.100832 
L 346.167504 263.100832 
L 346.167504 259.268436 
L 347.308335 259.268436 
L 347.308335 255.43604 
L 347.940245 255.43604 
L 347.940245 251.603644 
L 349.663717 251.603644 
L 349.663717 247.771248 
L 352.687387 247.771248 
L 352.687387 243.938851 
L 366.429564 243.938851 
L 366.429564 240.106455 
L 366.864177 240.106455 
L 366.864177 236.274059 
L 368.792171 236.274059 
L 368.792171 232.441663 
L 369.16977 232.441663 
L 369.16977 228.609267 
L 369.674843 228.609267 
L 369.674843 224.776871 
L 369.776129 224.776871 
L 369.776129 220.944475 
L 369.807745 220.944475 
L 369.807745 217.112079 
L 369.85809 217.112079 
L 369.85809 213.279683 
L 370.026778 213.279683 
L 370.026778 209.447287 
L 370.079943 209.447287 
L 370.079943 205.614891 
L 370.259102 205.614891 
L 370.259102 201.782495 
L 370.928907 201.782495 
L 370.928907 197.950099 
L 370.948351 197.950099 
L 370.948351 194.117703 
L 373.588538 194.117703 
L 373.588538 190.285307 
L 383.79604 190.285307 
L 383.79604 186.452911 
L 388.621195 186.452911 
L 388.621195 182.620515 
L 389.566443 182.620515 
L 389.566443 178.788119 
L 391.375664 178.788119 
L 391.375664 174.955723 
L 392.109157 174.955723 
L 392.109157 171.123327 
L 392.341183 171.123327 
L 392.341183 167.290931 
L 392.896596 167.290931 
L 392.896596 163.458535 
L 393.175479 163.458535 
L 393.175479 159.626139 
L 393.890983 159.626139 
L 393.890983 155.793743 
L 404.021476 155.793743 
L 404.021476 151.961347 
L 406.074253 151.961347 
L 406.074253 148.12895 
L 410.412756 148.12895 
L 410.412756 144.296554 
L 410.876934 144.296554 
L 410.876934 140.464158 
L 412.95755 140.464158 
L 412.95755 136.631762 
L 414.361155 136.631762 
L 414.361155 132.799366 
L 415.032747 132.799366 
L 415.032747 128.96697 
L 415.081841 128.96697 
L 415.081841 125.134574 
L 420.047079 125.134574 
L 420.047079 121.302178 
L 425.600902 121.302178 
L 425.600902 117.469782 
L 436.936958 117.469782 
L 436.936958 113.637386 
L 437.987742 113.637386 
L 437.987742 109.80499 
L 438.573117 109.80499 
L 438.573117 105.972594 
L 438.573117 105.972594 
L 438.573117 105.972594 
L 460.8 105.972594 
" clip-path="url(#p9e96ef277e)" style="fill: none; stroke: #00bfbf; stroke-width: 1.5; stroke-linecap: square"/>
   </g>
   <g id="line2d_114">
    <defs>
     <path id="mac478fd5aa" d="M 0 14.142136 
L 8.485281 0 
L 0 -14.142136 
L -8.485281 0 
z
" style="stroke: #00bfbf; stroke-width: 1.5; stroke-linejoin: miter"/>
    </defs>
    <g clip-path="url(#p9e96ef277e)">
     <use xlink:href="#mac478fd5aa" x="343.894455" y="274.59802" style="fill-opacity: 0; stroke: #00bfbf; stroke-width: 1.5; stroke-linejoin: miter"/>
     <use xlink:href="#mac478fd5aa" x="370.948351" y="197.950099" style="fill-opacity: 0; stroke: #00bfbf; stroke-width: 1.5; stroke-linejoin: miter"/>
     <use xlink:href="#mac478fd5aa" x="420.047079" y="125.134574" style="fill-opacity: 0; stroke: #00bfbf; stroke-width: 1.5; stroke-linejoin: miter"/>
     <use xlink:href="#mac478fd5aa" x="438.573117" y="105.972594" style="fill-opacity: 0; stroke: #00bfbf; stroke-width: 1.5; stroke-linejoin: miter"/>
    </g>
   </g>
   <g id="line2d_115">
    <path clip-path="url(#p9e96ef277e)" style="fill: none; stroke: #00bfbf; stroke-width: 1.5; stroke-linecap: square"/>
    <g clip-path="url(#p9e96ef277e)">
     <use xlink:href="#mac478fd5aa" x="-1" y="581.189703" style="fill-opacity: 0; stroke: #00bfbf; stroke-width: 1.5; stroke-linejoin: miter"/>
     <use xlink:href="#mac478fd5aa" x="460.8" y="581.189703" style="fill-opacity: 0; stroke: #00bfbf; stroke-width: 1.5; stroke-linejoin: miter"/>
    </g>
   </g>
   <g id="line2d_116">
    <path d="M 237.341097 293.76 
L 237.341097 289.927604 
L 248.578349 289.927604 
L 248.578349 286.095208 
L 253.004745 286.095208 
L 253.004745 282.262812 
L 254.428549 282.262812 
L 254.428549 278.430416 
L 257.556483 278.430416 
L 257.556483 274.59802 
L 263.293643 274.59802 
L 263.293643 270.765624 
L 267.486703 270.765624 
L 267.486703 266.933228 
L 270.219999 266.933228 
L 270.219999 263.100832 
L 306.083897 263.100832 
L 306.083897 259.268436 
L 306.512244 259.268436 
L 306.512244 255.43604 
L 308.74851 255.43604 
L 308.74851 251.603644 
L 309.093346 251.603644 
L 309.093346 247.771248 
L 309.186303 247.771248 
L 309.186303 243.938851 
L 311.101086 243.938851 
L 311.101086 240.106455 
L 311.141605 240.106455 
L 311.141605 236.274059 
L 311.265787 236.274059 
L 311.265787 232.441663 
L 312.078839 232.441663 
L 312.078839 228.609267 
L 312.719861 228.609267 
L 312.719861 224.776871 
L 312.830737 224.776871 
L 312.830737 220.944475 
L 313.243692 220.944475 
L 313.243692 217.112079 
L 315.353244 217.112079 
L 315.353244 213.279683 
L 315.691247 213.279683 
L 315.691247 209.447287 
L 319.609475 209.447287 
L 319.609475 205.614891 
L 322.136809 205.614891 
L 322.136809 201.782495 
L 349.782097 201.782495 
L 349.782097 197.950099 
L 350.375328 197.950099 
L 350.375328 194.117703 
L 360.127311 194.117703 
L 360.127311 190.285307 
L 366.234275 190.285307 
L 366.234275 186.452911 
L 371.474128 186.452911 
L 371.474128 182.620515 
L 381.672124 182.620515 
L 381.672124 178.788119 
L 385.468685 178.788119 
L 385.468685 174.955723 
L 390.009322 174.955723 
L 390.009322 171.123327 
L 392.264113 171.123327 
L 392.264113 167.290931 
L 395.553694 167.290931 
L 395.553694 163.458535 
L 399.632434 163.458535 
L 399.632434 159.626139 
L 400.574687 159.626139 
L 400.574687 155.793743 
L 411.246733 155.793743 
L 411.246733 151.961347 
L 412.187403 151.961347 
L 412.187403 148.12895 
L 417.254175 148.12895 
L 417.254175 144.296554 
L 417.254175 144.296554 
L 417.254175 144.296554 
L 460.8 144.296554 
" clip-path="url(#p9e96ef277e)" style="fill: none; stroke: #00bfbf; stroke-width: 1.5; stroke-linecap: square"/>
   </g>
   <g id="line2d_117">
    <defs>
     <path id="m2762b2b7f8" d="M 0 7.5 
C 1.989023 7.5 3.896849 6.709753 5.303301 5.303301 
C 6.709753 3.896849 7.5 1.989023 7.5 0 
C 7.5 -1.989023 6.709753 -3.896849 5.303301 -5.303301 
C 3.896849 -6.709753 1.989023 -7.5 0 -7.5 
C -1.989023 -7.5 -3.896849 -6.709753 -5.303301 -5.303301 
C -6.709753 -3.896849 -7.5 -1.989023 -7.5 0 
C -7.5 1.989023 -6.709753 3.896849 -5.303301 5.303301 
C -3.896849 6.709753 -1.989023 7.5 0 7.5 
z
" style="stroke: #00bfbf; stroke-width: 1.5"/>
    </defs>
    <g clip-path="url(#p9e96ef277e)">
     <use xlink:href="#m2762b2b7f8" x="257.556483" y="278.430416" style="fill-opacity: 0; stroke: #00bfbf; stroke-width: 1.5"/>
     <use xlink:href="#m2762b2b7f8" x="312.078839" y="232.441663" style="fill-opacity: 0; stroke: #00bfbf; stroke-width: 1.5"/>
     <use xlink:href="#m2762b2b7f8" x="322.136809" y="205.614891" style="fill-opacity: 0; stroke: #00bfbf; stroke-width: 1.5"/>
     <use xlink:href="#m2762b2b7f8" x="399.632434" y="163.458535" style="fill-opacity: 0; stroke: #00bfbf; stroke-width: 1.5"/>
     <use xlink:href="#m2762b2b7f8" x="417.254175" y="144.296554" style="fill-opacity: 0; stroke: #00bfbf; stroke-width: 1.5"/>
    </g>
   </g>
   <g id="line2d_118">
    <path clip-path="url(#p9e96ef277e)" style="fill: none; stroke: #00bfbf; stroke-width: 1.5; stroke-linecap: square"/>
   </g>
   <g id="line2d_119">
    <path d="M 327.003341 293.76 
L 327.003341 289.927604 
L 329.967251 289.927604 
L 329.967251 286.095208 
L 330.275738 286.095208 
L 330.275738 282.262812 
L 334.551643 282.262812 
L 334.551643 278.430416 
L 336.75392 278.430416 
L 336.75392 274.59802 
L 349.414667 274.59802 
L 349.414667 270.765624 
L 352.860153 270.765624 
L 352.860153 266.933228 
L 354.366927 266.933228 
L 354.366927 263.100832 
L 354.650521 263.100832 
L 354.650521 259.268436 
L 358.164881 259.268436 
L 358.164881 255.43604 
L 358.171664 255.43604 
L 358.171664 251.603644 
L 358.209798 251.603644 
L 358.209798 247.771248 
L 358.291869 247.771248 
L 358.291869 243.938851 
L 369.900254 243.938851 
L 369.900254 240.106455 
L 373.195285 240.106455 
L 373.195285 236.274059 
L 373.441398 236.274059 
L 373.441398 232.441663 
L 373.689334 232.441663 
L 373.689334 228.609267 
L 373.796352 228.609267 
L 373.796352 224.776871 
L 373.835245 224.776871 
L 373.835245 220.944475 
L 374.614863 220.944475 
L 374.614863 217.112079 
L 374.829553 217.112079 
L 374.829553 213.279683 
L 375.017382 213.279683 
L 375.017382 209.447287 
L 376.30781 209.447287 
L 376.30781 205.614891 
L 376.72621 205.614891 
L 376.72621 201.782495 
L 376.892507 201.782495 
L 376.892507 197.950099 
L 377.219858 197.950099 
L 377.219858 194.117703 
L 377.986037 194.117703 
L 377.986037 190.285307 
L 388.209339 190.285307 
L 388.209339 186.452911 
L 393.458255 186.452911 
L 393.458255 182.620515 
L 395.57718 182.620515 
L 395.57718 178.788119 
L 395.787757 178.788119 
L 395.787757 174.955723 
L 395.929506 174.955723 
L 395.929506 171.123327 
L 396.258543 171.123327 
L 396.258543 167.290931 
L 396.4106 167.290931 
L 396.4106 163.458535 
L 397.588392 163.458535 
L 397.588392 159.626139 
L 399.610012 159.626139 
L 399.610012 155.793743 
L 407.016828 155.793743 
L 407.016828 151.961347 
L 411.464189 151.961347 
L 411.464189 148.12895 
L 411.868087 148.12895 
L 411.868087 144.296554 
L 414.84801 144.296554 
L 414.84801 140.464158 
L 415.296309 140.464158 
L 415.296309 136.631762 
L 418.650662 136.631762 
L 418.650662 132.799366 
L 418.806749 132.799366 
L 418.806749 128.96697 
L 420.20196 128.96697 
L 420.20196 125.134574 
L 420.952785 125.134574 
L 420.952785 121.302178 
L 430.293132 121.302178 
L 430.293132 117.469782 
L 438.64166 117.469782 
L 438.64166 113.637386 
L 439.244661 113.637386 
L 439.244661 109.80499 
L 439.748639 109.80499 
L 439.748639 105.972594 
L 439.748639 105.972594 
L 439.748639 105.972594 
L 460.8 105.972594 
" clip-path="url(#p9e96ef277e)" style="fill: none; stroke: #bf00bf; stroke-width: 1.5; stroke-linecap: square"/>
   </g>
   <g id="line2d_120">
    <defs>
     <path id="m721e14df29" d="M 0 14.142136 
L 8.485281 0 
L 0 -14.142136 
L -8.485281 0 
z
" style="stroke: #bf00bf; stroke-width: 1.5; stroke-linejoin: miter"/>
    </defs>
    <g clip-path="url(#p9e96ef277e)">
     <use xlink:href="#m721e14df29" x="374.614863" y="220.944475" style="fill-opacity: 0; stroke: #bf00bf; stroke-width: 1.5; stroke-linejoin: miter"/>
     <use xlink:href="#m721e14df29" x="418.806749" y="132.799366" style="fill-opacity: 0; stroke: #bf00bf; stroke-width: 1.5; stroke-linejoin: miter"/>
     <use xlink:href="#m721e14df29" x="439.748639" y="109.80499" style="fill-opacity: 0; stroke: #bf00bf; stroke-width: 1.5; stroke-linejoin: miter"/>
     <use xlink:href="#m721e14df29" x="439.748639" y="105.972594" style="fill-opacity: 0; stroke: #bf00bf; stroke-width: 1.5; stroke-linejoin: miter"/>
    </g>
   </g>
   <g id="line2d_121">
    <path clip-path="url(#p9e96ef277e)" style="fill: none; stroke: #bf00bf; stroke-width: 1.5; stroke-linecap: square"/>
    <g clip-path="url(#p9e96ef277e)">
     <use xlink:href="#m721e14df29" x="-1" y="581.189703" style="fill-opacity: 0; stroke: #bf00bf; stroke-width: 1.5; stroke-linejoin: miter"/>
     <use xlink:href="#m721e14df29" x="460.8" y="581.189703" style="fill-opacity: 0; stroke: #bf00bf; stroke-width: 1.5; stroke-linejoin: miter"/>
    </g>
   </g>
   <g id="line2d_122">
    <path d="M 273.949646 293.76 
L 273.949646 289.927604 
L 274.757962 289.927604 
L 274.757962 286.095208 
L 278.143444 286.095208 
L 278.143444 282.262812 
L 279.392283 282.262812 
L 279.392283 278.430416 
L 279.474991 278.430416 
L 279.474991 274.59802 
L 282.019211 274.59802 
L 282.019211 270.765624 
L 284.142564 270.765624 
L 284.142564 266.933228 
L 287.240993 266.933228 
L 287.240993 263.100832 
L 314.882583 263.100832 
L 314.882583 259.268436 
L 315.207839 259.268436 
L 315.207839 255.43604 
L 316.446694 255.43604 
L 316.446694 251.603644 
L 316.670204 251.603644 
L 316.670204 247.771248 
L 317.255415 247.771248 
L 317.255415 243.938851 
L 318.282225 243.938851 
L 318.282225 240.106455 
L 318.54661 240.106455 
L 318.54661 236.274059 
L 318.683467 236.274059 
L 318.683467 232.441663 
L 318.831673 232.441663 
L 318.831673 228.609267 
L 318.908514 228.609267 
L 318.908514 224.776871 
L 319.725258 224.776871 
L 319.725258 220.944475 
L 320.119757 220.944475 
L 320.119757 217.112079 
L 321.668245 217.112079 
L 321.668245 213.279683 
L 322.191049 213.279683 
L 322.191049 209.447287 
L 325.186401 209.447287 
L 325.186401 205.614891 
L 327.969167 205.614891 
L 327.969167 201.782495 
L 354.362245 201.782495 
L 354.362245 197.950099 
L 355.199122 197.950099 
L 355.199122 194.117703 
L 363.980221 194.117703 
L 363.980221 190.285307 
L 369.124564 190.285307 
L 369.124564 186.452911 
L 373.340803 186.452911 
L 373.340803 182.620515 
L 385.584123 182.620515 
L 385.584123 178.788119 
L 387.373687 178.788119 
L 387.373687 174.955723 
L 393.447788 174.955723 
L 393.447788 171.123327 
L 394.893729 171.123327 
L 394.893729 167.290931 
L 397.380497 167.290931 
L 397.380497 163.458535 
L 401.137073 163.458535 
L 401.137073 159.626139 
L 401.906415 159.626139 
L 401.906415 155.793743 
L 414.070363 155.793743 
L 414.070363 151.961347 
L 415.048318 151.961347 
L 415.048318 148.12895 
L 419.572666 148.12895 
L 419.572666 144.296554 
L 419.572666 144.296554 
L 419.572666 144.296554 
L 460.8 144.296554 
" clip-path="url(#p9e96ef277e)" style="fill: none; stroke: #bf00bf; stroke-width: 1.5; stroke-linecap: square"/>
   </g>
   <g id="line2d_123">
    <defs>
     <path id="m62290ea88e" d="M 0 7.5 
C 1.989023 7.5 3.896849 6.709753 5.303301 5.303301 
C 6.709753 3.896849 7.5 1.989023 7.5 0 
C 7.5 -1.989023 6.709753 -3.896849 5.303301 -5.303301 
C 3.896849 -6.709753 1.989023 -7.5 0 -7.5 
C -1.989023 -7.5 -3.896849 -6.709753 -5.303301 -5.303301 
C -6.709753 -3.896849 -7.5 -1.989023 -7.5 0 
C -7.5 1.989023 -6.709753 3.896849 -5.303301 5.303301 
C -3.896849 6.709753 -1.989023 7.5 0 7.5 
z
" style="stroke: #bf00bf; stroke-width: 1.5"/>
    </defs>
    <g clip-path="url(#p9e96ef277e)">
     <use xlink:href="#m62290ea88e" x="317.255415" y="247.771248" style="fill-opacity: 0; stroke: #bf00bf; stroke-width: 1.5"/>
     <use xlink:href="#m62290ea88e" x="355.199122" y="197.950099" style="fill-opacity: 0; stroke: #bf00bf; stroke-width: 1.5"/>
     <use xlink:href="#m62290ea88e" x="414.070363" y="155.793743" style="fill-opacity: 0; stroke: #bf00bf; stroke-width: 1.5"/>
     <use xlink:href="#m62290ea88e" x="419.572666" y="144.296554" style="fill-opacity: 0; stroke: #bf00bf; stroke-width: 1.5"/>
    </g>
   </g>
   <g id="line2d_124">
    <path clip-path="url(#p9e96ef277e)" style="fill: none; stroke: #bf00bf; stroke-width: 1.5; stroke-linecap: square"/>
   </g>
   <g id="line2d_125">
    <path d="M 342.536087 293.76 
L 342.536087 289.927604 
L 342.750957 289.927604 
L 342.750957 286.095208 
L 343.428937 286.095208 
L 343.428937 282.262812 
L 343.943647 282.262812 
L 343.943647 278.430416 
L 345.159912 278.430416 
L 345.159912 274.59802 
L 354.434751 274.59802 
L 354.434751 270.765624 
L 361.463295 270.765624 
L 361.463295 266.933228 
L 362.28804 266.933228 
L 362.28804 263.100832 
L 362.644655 263.100832 
L 362.644655 259.268436 
L 364.231851 259.268436 
L 364.231851 255.43604 
L 365.499074 255.43604 
L 365.499074 251.603644 
L 366.025554 251.603644 
L 366.025554 247.771248 
L 366.303939 247.771248 
L 366.303939 243.938851 
L 373.680567 243.938851 
L 373.680567 240.106455 
L 376.677854 240.106455 
L 376.677854 236.274059 
L 377.225531 236.274059 
L 377.225531 232.441663 
L 377.607032 232.441663 
L 377.607032 228.609267 
L 377.618263 228.609267 
L 377.618263 224.776871 
L 378.272618 224.776871 
L 378.272618 220.944475 
L 378.347059 220.944475 
L 378.347059 217.112079 
L 378.473554 217.112079 
L 378.473554 213.279683 
L 380.552982 213.279683 
L 380.552982 209.447287 
L 381.842561 209.447287 
L 381.842561 205.614891 
L 383.266085 205.614891 
L 383.266085 201.782495 
L 383.820577 201.782495 
L 383.820577 197.950099 
L 384.246489 197.950099 
L 384.246489 194.117703 
L 385.538073 194.117703 
L 385.538073 190.285307 
L 393.24378 190.285307 
L 393.24378 186.452911 
L 396.997634 186.452911 
L 396.997634 182.620515 
L 398.60803 182.620515 
L 398.60803 178.788119 
L 399.277035 178.788119 
L 399.277035 174.955723 
L 399.714964 174.955723 
L 399.714964 171.123327 
L 400.193 171.123327 
L 400.193 167.290931 
L 403.019529 167.290931 
L 403.019529 163.458535 
L 403.91536 163.458535 
L 403.91536 159.626139 
L 406.963346 159.626139 
L 406.963346 155.793743 
L 410.161406 155.793743 
L 410.161406 151.961347 
L 413.762146 151.961347 
L 413.762146 148.12895 
L 416.480268 148.12895 
L 416.480268 144.296554 
L 416.946942 144.296554 
L 416.946942 140.464158 
L 420.095799 140.464158 
L 420.095799 136.631762 
L 422.309738 136.631762 
L 422.309738 132.799366 
L 423.116473 132.799366 
L 423.116473 128.96697 
L 425.030982 128.96697 
L 425.030982 125.134574 
L 426.719897 125.134574 
L 426.719897 121.302178 
L 434.940458 121.302178 
L 434.940458 117.469782 
L 440.178949 117.469782 
L 440.178949 113.637386 
L 441.343384 113.637386 
L 441.343384 109.80499 
L 441.343384 109.80499 
L 441.343384 109.80499 
L 460.8 109.80499 
" clip-path="url(#p9e96ef277e)" style="fill: none; stroke: #ff0000; stroke-width: 3; stroke-linecap: square"/>
   </g>
   <g id="line2d_126">
    <defs>
     <path id="m55fb42b9a1" d="M 0 14.142136 
L 8.485281 0 
L 0 -14.142136 
L -8.485281 0 
z
" style="stroke: #ff0000; stroke-width: 3; stroke-linejoin: miter"/>
    </defs>
    <g clip-path="url(#p9e96ef277e)">
     <use xlink:href="#m55fb42b9a1" x="378.272618" y="224.776871" style="fill-opacity: 0; stroke: #ff0000; stroke-width: 3; stroke-linejoin: miter"/>
     <use xlink:href="#m55fb42b9a1" x="406.963346" y="159.626139" style="fill-opacity: 0; stroke: #ff0000; stroke-width: 3; stroke-linejoin: miter"/>
     <use xlink:href="#m55fb42b9a1" x="440.178949" y="117.469782" style="fill-opacity: 0; stroke: #ff0000; stroke-width: 3; stroke-linejoin: miter"/>
     <use xlink:href="#m55fb42b9a1" x="441.343384" y="109.80499" style="fill-opacity: 0; stroke: #ff0000; stroke-width: 3; stroke-linejoin: miter"/>
    </g>
   </g>
   <g id="line2d_127">
    <path clip-path="url(#p9e96ef277e)" style="fill: none; stroke: #ff0000; stroke-width: 3; stroke-linecap: square"/>
    <g clip-path="url(#p9e96ef277e)">
     <use xlink:href="#m55fb42b9a1" x="-1" y="581.189703" style="fill-opacity: 0; stroke: #ff0000; stroke-width: 3; stroke-linejoin: miter"/>
     <use xlink:href="#m55fb42b9a1" x="460.8" y="581.189703" style="fill-opacity: 0; stroke: #ff0000; stroke-width: 3; stroke-linejoin: miter"/>
    </g>
   </g>
   <g id="line2d_128">
    <path d="M 292.280837 293.76 
L 292.280837 289.927604 
L 292.870144 289.927604 
L 292.870144 286.095208 
L 293.546789 286.095208 
L 293.546789 282.262812 
L 294.576656 282.262812 
L 294.576656 278.430416 
L 295.720414 278.430416 
L 295.720414 274.59802 
L 295.757165 274.59802 
L 295.757165 270.765624 
L 298.874546 270.765624 
L 298.874546 266.933228 
L 300.211479 266.933228 
L 300.211479 263.100832 
L 322.585767 263.100832 
L 322.585767 259.268436 
L 322.798688 259.268436 
L 322.798688 255.43604 
L 324.326681 255.43604 
L 324.326681 251.603644 
L 324.548523 251.603644 
L 324.548523 247.771248 
L 324.596403 247.771248 
L 324.596403 243.938851 
L 325.263518 243.938851 
L 325.263518 240.106455 
L 325.3255 240.106455 
L 325.3255 236.274059 
L 325.565482 236.274059 
L 325.565482 232.441663 
L 326.024314 232.441663 
L 326.024314 228.609267 
L 326.208271 228.609267 
L 326.208271 224.776871 
L 327.219765 224.776871 
L 327.219765 220.944475 
L 327.304286 220.944475 
L 327.304286 217.112079 
L 328.15425 217.112079 
L 328.15425 213.279683 
L 329.585714 213.279683 
L 329.585714 209.447287 
L 331.797178 209.447287 
L 331.797178 205.614891 
L 333.938252 205.614891 
L 333.938252 201.782495 
L 360.022433 201.782495 
L 360.022433 197.950099 
L 360.983356 197.950099 
L 360.983356 194.117703 
L 368.349755 194.117703 
L 368.349755 190.285307 
L 373.147421 190.285307 
L 373.147421 186.452911 
L 374.923035 186.452911 
L 374.923035 182.620515 
L 389.358101 182.620515 
L 389.358101 178.788119 
L 390.334492 178.788119 
L 390.334492 174.955723 
L 396.690272 174.955723 
L 396.690272 171.123327 
L 397.545173 171.123327 
L 397.545173 167.290931 
L 399.028529 167.290931 
L 399.028529 163.458535 
L 402.911785 163.458535 
L 402.911785 159.626139 
L 403.320211 159.626139 
L 403.320211 155.793743 
L 416.494707 155.793743 
L 416.494707 151.961347 
L 417.040931 151.961347 
L 417.040931 148.12895 
L 421.675764 148.12895 
L 421.675764 144.296554 
L 421.675764 144.296554 
L 421.675764 144.296554 
L 460.8 144.296554 
" clip-path="url(#p9e96ef277e)" style="fill: none; stroke: #ff0000; stroke-width: 3; stroke-linecap: square"/>
   </g>
   <g id="line2d_129">
    <defs>
     <path id="m92fd033ddf" d="M 0 7.5 
C 1.989023 7.5 3.896849 6.709753 5.303301 5.303301 
C 6.709753 3.896849 7.5 1.989023 7.5 0 
C 7.5 -1.989023 6.709753 -3.896849 5.303301 -5.303301 
C 3.896849 -6.709753 1.989023 -7.5 0 -7.5 
C -1.989023 -7.5 -3.896849 -6.709753 -5.303301 -5.303301 
C -6.709753 -3.896849 -7.5 -1.989023 -7.5 0 
C -7.5 1.989023 -6.709753 3.896849 -5.303301 5.303301 
C -3.896849 6.709753 -1.989023 7.5 0 7.5 
z
" style="stroke: #ff0000; stroke-width: 3"/>
    </defs>
    <g clip-path="url(#p9e96ef277e)">
     <use xlink:href="#m92fd033ddf" x="326.208271" y="228.609267" style="fill-opacity: 0; stroke: #ff0000; stroke-width: 3"/>
     <use xlink:href="#m92fd033ddf" x="373.147421" y="190.285307" style="fill-opacity: 0; stroke: #ff0000; stroke-width: 3"/>
     <use xlink:href="#m92fd033ddf" x="421.675764" y="148.12895" style="fill-opacity: 0; stroke: #ff0000; stroke-width: 3"/>
     <use xlink:href="#m92fd033ddf" x="421.675764" y="144.296554" style="fill-opacity: 0; stroke: #ff0000; stroke-width: 3"/>
    </g>
   </g>
   <g id="line2d_130">
    <path clip-path="url(#p9e96ef277e)" style="fill: none; stroke: #ff0000; stroke-width: 3; stroke-linecap: square"/>
   </g>
   <g id="line2d_131">
    <path d="M 441.764912 293.76 
L 441.764912 3.456 
" clip-path="url(#p9e96ef277e)" style="fill: none; stroke: #000000; stroke-width: 1.5; stroke-linecap: square"/>
    <defs>
     <path id="me94ac12aa3" d="M -10 0 
L 10 0 
M 0 10 
L 0 -10 
" style="stroke: #000000; stroke-width: 3"/>
    </defs>
    <g clip-path="url(#p9e96ef277e)">
     <use xlink:href="#me94ac12aa3" x="441.764912" y="293.76" style="stroke: #000000; stroke-width: 3"/>
     <use xlink:href="#me94ac12aa3" x="441.764912" y="3.456" style="stroke: #000000; stroke-width: 3"/>
    </g>
   </g>
   <g id="line2d_132">
    <path d="M 441.772089 293.76 
L 441.772089 3.456 
" clip-path="url(#p9e96ef277e)" style="fill: none; stroke: #000000; stroke-width: 1.5; stroke-linecap: square"/>
    <defs>
     <path id="m85bd013f5e" d="M 0 7.5 
C 1.989023 7.5 3.896849 6.709753 5.303301 5.303301 
C 6.709753 3.896849 7.5 1.989023 7.5 0 
C 7.5 -1.989023 6.709753 -3.896849 5.303301 -5.303301 
C 3.896849 -6.709753 1.989023 -7.5 0 -7.5 
C -1.989023 -7.5 -3.896849 -6.709753 -5.303301 -5.303301 
C -6.709753 -3.896849 -7.5 -1.989023 -7.5 0 
C -7.5 1.989023 -6.709753 3.896849 -5.303301 5.303301 
C -3.896849 6.709753 -1.989023 7.5 0 7.5 
z
" style="stroke: #000000; stroke-width: 3"/>
    </defs>
    <g clip-path="url(#p9e96ef277e)">
     <use xlink:href="#m85bd013f5e" x="441.772089" y="293.76" style="fill-opacity: 0; stroke: #000000; stroke-width: 3"/>
     <use xlink:href="#m85bd013f5e" x="441.772089" y="3.456" style="fill-opacity: 0; stroke: #000000; stroke-width: 3"/>
    </g>
   </g>
   <g id="patch_3">
    <path d="M 62.208 293.76 
L 62.208 3.456 
" style="fill: none; stroke: #000000; stroke-width: 0.8; stroke-linejoin: miter; stroke-linecap: square"/>
   </g>
   <g id="patch_4">
    <path d="M 460.8 293.76 
L 460.8 3.456 
" style="fill: none; stroke: #000000; stroke-width: 0.8; stroke-linejoin: miter; stroke-linecap: square"/>
   </g>
   <g id="patch_5">
    <path d="M 62.208 293.76 
L 460.8 293.76 
" style="fill: none; stroke: #000000; stroke-width: 0.8; stroke-linejoin: miter; stroke-linecap: square"/>
   </g>
   <g id="patch_6">
    <path d="M 62.208 3.456 
L 460.8 3.456 
" style="fill: none; stroke: #000000; stroke-width: 0.8; stroke-linejoin: miter; stroke-linecap: square"/>
   </g>
   <g id="text_12">
    <!-- f15-f19 -->
    <g transform="translate(225.405563 24.458955) scale(0.2 -0.2)">
     <defs>
      <path id="DejaVuSans-35" d="M 691 4666 
L 3169 4666 
L 3169 4134 
L 1269 4134 
L 1269 2991 
Q 1406 3038 1543 3061 
Q 1681 3084 1819 3084 
Q 2600 3084 3056 2656 
Q 3513 2228 3513 1497 
Q 3513 744 3044 326 
Q 2575 -91 1722 -91 
Q 1428 -91 1123 -41 
Q 819 9 494 109 
L 494 744 
Q 775 591 1075 516 
Q 1375 441 1709 441 
Q 2250 441 2565 725 
Q 2881 1009 2881 1497 
Q 2881 1984 2565 2268 
Q 2250 2553 1709 2553 
Q 1456 2553 1204 2497 
Q 953 2441 691 2322 
L 691 4666 
z
" transform="scale(0.015625)"/>
      <path id="DejaVuSans-2d" d="M 313 2009 
L 1997 2009 
L 1997 1497 
L 313 1497 
L 313 2009 
z
" transform="scale(0.015625)"/>
      <path id="DejaVuSans-39" d="M 703 97 
L 703 672 
Q 941 559 1184 500 
Q 1428 441 1663 441 
Q 2288 441 2617 861 
Q 2947 1281 2994 2138 
Q 2813 1869 2534 1725 
Q 2256 1581 1919 1581 
Q 1219 1581 811 2004 
Q 403 2428 403 3163 
Q 403 3881 828 4315 
Q 1253 4750 1959 4750 
Q 2769 4750 3195 4129 
Q 3622 3509 3622 2328 
Q 3622 1225 3098 567 
Q 2575 -91 1691 -91 
Q 1453 -91 1209 -44 
Q 966 3 703 97 
z
M 1959 2075 
Q 2384 2075 2632 2365 
Q 2881 2656 2881 3163 
Q 2881 3666 2632 3958 
Q 2384 4250 1959 4250 
Q 1534 4250 1286 3958 
Q 1038 3666 1038 3163 
Q 1038 2656 1286 2365 
Q 1534 2075 1959 2075 
z
" transform="scale(0.015625)"/>
     </defs>
     <use xlink:href="#DejaVuSans-66"/>
     <use xlink:href="#DejaVuSans-31" x="35.205078"/>
     <use xlink:href="#DejaVuSans-35" x="98.828125"/>
     <use xlink:href="#DejaVuSans-2d" x="162.451172"/>
     <use xlink:href="#DejaVuSans-66" x="198.535156"/>
     <use xlink:href="#DejaVuSans-31" x="233.740234"/>
     <use xlink:href="#DejaVuSans-39" x="297.363281"/>
    </g>
   </g>
   <g id="text_13">
    <!-- absolute targets -->
    <g transform="translate(62.208 608.591335) scale(0.14 -0.14)">
     <defs>
      <path id="DejaVuSans-62" d="M 3116 1747 
Q 3116 2381 2855 2742 
Q 2594 3103 2138 3103 
Q 1681 3103 1420 2742 
Q 1159 2381 1159 1747 
Q 1159 1113 1420 752 
Q 1681 391 2138 391 
Q 2594 391 2855 752 
Q 3116 1113 3116 1747 
z
M 1159 2969 
Q 1341 3281 1617 3432 
Q 1894 3584 2278 3584 
Q 2916 3584 3314 3078 
Q 3713 2572 3713 1747 
Q 3713 922 3314 415 
Q 2916 -91 2278 -91 
Q 1894 -91 1617 61 
Q 1341 213 1159 525 
L 1159 0 
L 581 0 
L 581 4863 
L 1159 4863 
L 1159 2969 
z
" transform="scale(0.015625)"/>
      <path id="DejaVuSans-75" d="M 544 1381 
L 544 3500 
L 1119 3500 
L 1119 1403 
Q 1119 906 1312 657 
Q 1506 409 1894 409 
Q 2359 409 2629 706 
Q 2900 1003 2900 1516 
L 2900 3500 
L 3475 3500 
L 3475 0 
L 2900 0 
L 2900 538 
Q 2691 219 2414 64 
Q 2138 -91 1772 -91 
Q 1169 -91 856 284 
Q 544 659 544 1381 
z
M 1991 3584 
L 1991 3584 
z
" transform="scale(0.015625)"/>
      <path id="DejaVuSans-65" d="M 3597 1894 
L 3597 1613 
L 953 1613 
Q 991 1019 1311 708 
Q 1631 397 2203 397 
Q 2534 397 2845 478 
Q 3156 559 3463 722 
L 3463 178 
Q 3153 47 2828 -22 
Q 2503 -91 2169 -91 
Q 1331 -91 842 396 
Q 353 884 353 1716 
Q 353 2575 817 3079 
Q 1281 3584 2069 3584 
Q 2775 3584 3186 3129 
Q 3597 2675 3597 1894 
z
M 3022 2063 
Q 3016 2534 2758 2815 
Q 2500 3097 2075 3097 
Q 1594 3097 1305 2825 
Q 1016 2553 972 2059 
L 3022 2063 
z
" transform="scale(0.015625)"/>
     </defs>
     <use xlink:href="#DejaVuSans-61"/>
     <use xlink:href="#DejaVuSans-62" x="61.279297"/>
     <use xlink:href="#DejaVuSans-73" x="124.755859"/>
     <use xlink:href="#DejaVuSans-6f" x="176.855469"/>
     <use xlink:href="#DejaVuSans-6c" x="238.037109"/>
     <use xlink:href="#DejaVuSans-75" x="265.820312"/>
     <use xlink:href="#DejaVuSans-74" x="329.199219"/>
     <use xlink:href="#DejaVuSans-65" x="368.408203"/>
     <use xlink:href="#DejaVuSans-20" x="429.931641"/>
     <use xlink:href="#DejaVuSans-74" x="461.71875"/>
     <use xlink:href="#DejaVuSans-61" x="500.927734"/>
     <use xlink:href="#DejaVuSans-72" x="562.207031"/>
     <use xlink:href="#DejaVuSans-67" x="601.570312"/>
     <use xlink:href="#DejaVuSans-65" x="665.046875"/>
     <use xlink:href="#DejaVuSans-74" x="726.570312"/>
     <use xlink:href="#DejaVuSans-73" x="765.779297"/>
    </g>
   </g>
   <g id="text_14">
    <!-- v2.6.3 -->
    <g style="fill: #808080" transform="translate(245.82275 288.777272) scale(0.1 -0.1)">
     <defs>
      <path id="DejaVuSans-33" d="M 2597 2516 
Q 3050 2419 3304 2112 
Q 3559 1806 3559 1356 
Q 3559 666 3084 287 
Q 2609 -91 1734 -91 
Q 1441 -91 1130 -33 
Q 819 25 488 141 
L 488 750 
Q 750 597 1062 519 
Q 1375 441 1716 441 
Q 2309 441 2620 675 
Q 2931 909 2931 1356 
Q 2931 1769 2642 2001 
Q 2353 2234 1838 2234 
L 1294 2234 
L 1294 2753 
L 1863 2753 
Q 2328 2753 2575 2939 
Q 2822 3125 2822 3475 
Q 2822 3834 2567 4026 
Q 2313 4219 1838 4219 
Q 1578 4219 1281 4162 
Q 984 4106 628 3988 
L 628 4550 
Q 988 4650 1302 4700 
Q 1616 4750 1894 4750 
Q 2613 4750 3031 4423 
Q 3450 4097 3450 3541 
Q 3450 3153 3228 2886 
Q 3006 2619 2597 2516 
z
" transform="scale(0.015625)"/>
     </defs>
     <use xlink:href="#DejaVuSans-76"/>
     <use xlink:href="#DejaVuSans-32" x="59.179688"/>
     <use xlink:href="#DejaVuSans-2e" x="122.802734"/>
     <use xlink:href="#DejaVuSans-36" x="154.589844"/>
     <use xlink:href="#DejaVuSans-2e" x="218.212891"/>
     <use xlink:href="#DejaVuSans-33" x="250"/>
    </g>
   </g>
   <g id="legend_1">
    <g id="patch_7">
     <path d="M 76.208 136.881 
L 160.148625 136.881 
Q 164.148625 136.881 164.148625 132.881 
L 164.148625 17.456 
Q 164.148625 13.456 160.148625 13.456 
L 76.208 13.456 
Q 72.208 13.456 72.208 17.456 
L 72.208 132.881 
Q 72.208 136.881 76.208 136.881 
z
" style="fill: #ffffff; opacity: 0.2; stroke: #cccccc; stroke-linejoin: miter"/>
    </g>
    <g id="line2d_133">
     <path d="M 80.208 29.652875 
L 80.208 29.652875 
L 100.208 29.652875 
L 100.208 29.652875 
L 120.208 29.652875 
" style="fill: none; stroke: #000000; stroke-width: 1.5; stroke-linecap: square"/>
    </g>
    <g id="text_15">
     <!-- 1 -->
     <g transform="translate(136.208 36.652875) scale(0.2 -0.2)">
      <use xlink:href="#DejaVuSans-31"/>
     </g>
    </g>
    <g id="line2d_134">
     <path d="M 80.208 59.009125 
L 80.208 59.009125 
L 100.208 59.009125 
L 100.208 59.009125 
L 120.208 59.009125 
" style="fill: none; stroke: #00bfbf; stroke-width: 1.5; stroke-linecap: square"/>
    </g>
    <g id="text_16">
     <!-- -1 -->
     <g transform="translate(136.208 66.009125) scale(0.2 -0.2)">
      <use xlink:href="#DejaVuSans-2d"/>
      <use xlink:href="#DejaVuSans-31" x="36.083984"/>
     </g>
    </g>
    <g id="line2d_135">
     <path d="M 80.208 88.365375 
L 80.208 88.365375 
L 100.208 88.365375 
L 100.208 88.365375 
L 120.208 88.365375 
" style="fill: none; stroke: #bf00bf; stroke-width: 1.5; stroke-linecap: square"/>
    </g>
    <g id="text_17">
     <!-- -4 -->
     <g transform="translate(136.208 95.365375) scale(0.2 -0.2)">
      <use xlink:href="#DejaVuSans-2d"/>
      <use xlink:href="#DejaVuSans-34" x="36.083984"/>
     </g>
    </g>
    <g id="line2d_136">
     <path d="M 80.208 117.721625 
L 80.208 117.721625 
L 100.208 117.721625 
L 100.208 117.721625 
L 120.208 117.721625 
" style="fill: none; stroke: #ff0000; stroke-width: 3; stroke-linecap: square"/>
    </g>
    <g id="text_18">
     <!-- -8 -->
     <g transform="translate(136.208 124.721625) scale(0.2 -0.2)">
      <use xlink:href="#DejaVuSans-2d"/>
      <use xlink:href="#DejaVuSans-38" x="36.083984"/>
     </g>
    </g>
   </g>
  </g>
 </g>
 <defs>
  <clipPath id="p9e96ef277e">
   <rect x="62.208" y="3.456" width="398.592" height="290.304"/>
  </clipPath>
 </defs>
</svg>
