<?xml version="1.0" encoding="utf-8" standalone="no"?>
<!DOCTYPE svg PUBLIC "-//W3C//DTD SVG 1.1//EN"
  "http://www.w3.org/Graphics/SVG/1.1/DTD/svg11.dtd">
<svg xmlns:xlink="http://www.w3.org/1999/xlink" width="460.8pt" height="345.6pt" viewBox="0 0 460.8 345.6" xmlns="http://www.w3.org/2000/svg" version="1.1">
 <metadata>
  <rdf:RDF xmlns:dc="http://purl.org/dc/elements/1.1/" xmlns:cc="http://creativecommons.org/ns#" xmlns:rdf="http://www.w3.org/1999/02/22-rdf-syntax-ns#">
   <cc:Work>
    <dc:type rdf:resource="http://purl.org/dc/dcmitype/StillImage"/>
    <dc:date>2024-06-07T13:52:53.586268</dc:date>
    <dc:format>image/svg+xml</dc:format>
    <dc:creator>
     <cc:Agent>
      <dc:title>Matplotlib v3.7.1, https://matplotlib.org/</dc:title>
     </cc:Agent>
    </dc:creator>
   </cc:Work>
  </rdf:RDF>
 </metadata>
 <defs>
  <style type="text/css">*{stroke-linejoin: round; stroke-linecap: butt}</style>
 </defs>
 <g id="figure_1">
  <g id="patch_1">
   <path d="M 0 345.6 
L 460.8 345.6 
L 460.8 0 
L 0 0 
z
" style="fill: #ffffff"/>
  </g>
  <g id="axes_1">
   <g id="patch_2">
    <path d="M 34.16 291.28 
L 453.192 291.28 
L 453.192 3 
L 34.16 3 
z
" style="fill: #ffffff"/>
   </g>
   <g id="matplotlib.axis_1">
    <g id="xtick_1">
     <g id="line2d_1">
      <path d="M 159.663511 291.28 
L 159.663511 3 
" clip-path="url(#p33e60c6b61)" style="fill: none; stroke: #b0b0b0; stroke-width: 0.8; stroke-linecap: square"/>
     </g>
     <g id="line2d_2">
      <defs>
       <path id="m90aa3950bd" d="M 0 0 
L 0 3.5 
" style="stroke: #000000; stroke-width: 0.8"/>
      </defs>
      <g>
       <use xlink:href="#m90aa3950bd" x="159.663511" y="291.28" style="stroke: #000000; stroke-width: 0.8"/>
      </g>
     </g>
     <g id="text_1">
      <!-- -1 -->
      <g transform="translate(149.693199 313.476875) scale(0.2 -0.2)">
       <defs>
        <path id="DejaVuSans-2d" d="M 313 2009 
L 1997 2009 
L 1997 1497 
L 313 1497 
L 313 2009 
z
" transform="scale(0.015625)"/>
        <path id="DejaVuSans-31" d="M 794 531 
L 1825 531 
L 1825 4091 
L 703 3866 
L 703 4441 
L 1819 4666 
L 2450 4666 
L 2450 531 
L 3481 531 
L 3481 0 
L 794 0 
L 794 531 
z
" transform="scale(0.015625)"/>
       </defs>
       <use xlink:href="#DejaVuSans-2d"/>
       <use xlink:href="#DejaVuSans-31" x="36.083984"/>
      </g>
     </g>
    </g>
    <g id="xtick_2">
     <g id="line2d_3">
      <path d="M 327.688489 291.28 
L 327.688489 3 
" clip-path="url(#p33e60c6b61)" style="fill: none; stroke: #b0b0b0; stroke-width: 0.8; stroke-linecap: square"/>
     </g>
     <g id="line2d_4">
      <g>
       <use xlink:href="#m90aa3950bd" x="327.688489" y="291.28" style="stroke: #000000; stroke-width: 0.8"/>
      </g>
     </g>
     <g id="text_2">
      <!-- 1 -->
      <g transform="translate(321.325989 313.476875) scale(0.2 -0.2)">
       <use xlink:href="#DejaVuSans-31"/>
      </g>
     </g>
    </g>
    <g id="xtick_3">
     <g id="line2d_5">
      <defs>
       <path id="maca73f0b0b" d="M 0 0 
L 0 2 
" style="stroke: #000000; stroke-width: 0.6"/>
      </defs>
      <g>
       <use xlink:href="#maca73f0b0b" x="42.219092" y="291.28" style="stroke: #000000; stroke-width: 0.6"/>
      </g>
     </g>
    </g>
    <g id="xtick_4">
     <g id="line2d_6">
      <g>
       <use xlink:href="#maca73f0b0b" x="50.360743" y="291.28" style="stroke: #000000; stroke-width: 0.6"/>
      </g>
     </g>
    </g>
    <g id="xtick_5">
     <g id="line2d_7">
      <g>
       <use xlink:href="#maca73f0b0b" x="57.012957" y="291.28" style="stroke: #000000; stroke-width: 0.6"/>
      </g>
     </g>
    </g>
    <g id="xtick_6">
     <g id="line2d_8">
      <g>
       <use xlink:href="#maca73f0b0b" x="62.637323" y="291.28" style="stroke: #000000; stroke-width: 0.6"/>
      </g>
     </g>
    </g>
    <g id="xtick_7">
     <g id="line2d_9">
      <g>
       <use xlink:href="#maca73f0b0b" x="67.509371" y="291.28" style="stroke: #000000; stroke-width: 0.6"/>
      </g>
     </g>
    </g>
    <g id="xtick_8">
     <g id="line2d_10">
      <g>
       <use xlink:href="#maca73f0b0b" x="71.806822" y="291.28" style="stroke: #000000; stroke-width: 0.6"/>
      </g>
     </g>
    </g>
    <g id="xtick_9">
     <g id="line2d_11">
      <g>
       <use xlink:href="#maca73f0b0b" x="100.941301" y="291.28" style="stroke: #000000; stroke-width: 0.6"/>
      </g>
     </g>
    </g>
    <g id="xtick_10">
     <g id="line2d_12">
      <g>
       <use xlink:href="#maca73f0b0b" x="115.735166" y="291.28" style="stroke: #000000; stroke-width: 0.6"/>
      </g>
     </g>
    </g>
    <g id="xtick_11">
     <g id="line2d_13">
      <g>
       <use xlink:href="#maca73f0b0b" x="126.231581" y="291.28" style="stroke: #000000; stroke-width: 0.6"/>
      </g>
     </g>
    </g>
    <g id="xtick_12">
     <g id="line2d_14">
      <g>
       <use xlink:href="#maca73f0b0b" x="134.373232" y="291.28" style="stroke: #000000; stroke-width: 0.6"/>
      </g>
     </g>
    </g>
    <g id="xtick_13">
     <g id="line2d_15">
      <g>
       <use xlink:href="#maca73f0b0b" x="141.025445" y="291.28" style="stroke: #000000; stroke-width: 0.6"/>
      </g>
     </g>
    </g>
    <g id="xtick_14">
     <g id="line2d_16">
      <g>
       <use xlink:href="#maca73f0b0b" x="146.649812" y="291.28" style="stroke: #000000; stroke-width: 0.6"/>
      </g>
     </g>
    </g>
    <g id="xtick_15">
     <g id="line2d_17">
      <g>
       <use xlink:href="#maca73f0b0b" x="151.52186" y="291.28" style="stroke: #000000; stroke-width: 0.6"/>
      </g>
     </g>
    </g>
    <g id="xtick_16">
     <g id="line2d_18">
      <g>
       <use xlink:href="#maca73f0b0b" x="155.81931" y="291.28" style="stroke: #000000; stroke-width: 0.6"/>
      </g>
     </g>
    </g>
    <g id="xtick_17">
     <g id="line2d_19">
      <g>
       <use xlink:href="#maca73f0b0b" x="184.95379" y="291.28" style="stroke: #000000; stroke-width: 0.6"/>
      </g>
     </g>
    </g>
    <g id="xtick_18">
     <g id="line2d_20">
      <g>
       <use xlink:href="#maca73f0b0b" x="199.747655" y="291.28" style="stroke: #000000; stroke-width: 0.6"/>
      </g>
     </g>
    </g>
    <g id="xtick_19">
     <g id="line2d_21">
      <g>
       <use xlink:href="#maca73f0b0b" x="210.244069" y="291.28" style="stroke: #000000; stroke-width: 0.6"/>
      </g>
     </g>
    </g>
    <g id="xtick_20">
     <g id="line2d_22">
      <g>
       <use xlink:href="#maca73f0b0b" x="218.385721" y="291.28" style="stroke: #000000; stroke-width: 0.6"/>
      </g>
     </g>
    </g>
    <g id="xtick_21">
     <g id="line2d_23">
      <g>
       <use xlink:href="#maca73f0b0b" x="225.037934" y="291.28" style="stroke: #000000; stroke-width: 0.6"/>
      </g>
     </g>
    </g>
    <g id="xtick_22">
     <g id="line2d_24">
      <g>
       <use xlink:href="#maca73f0b0b" x="230.662301" y="291.28" style="stroke: #000000; stroke-width: 0.6"/>
      </g>
     </g>
    </g>
    <g id="xtick_23">
     <g id="line2d_25">
      <g>
       <use xlink:href="#maca73f0b0b" x="235.534349" y="291.28" style="stroke: #000000; stroke-width: 0.6"/>
      </g>
     </g>
    </g>
    <g id="xtick_24">
     <g id="line2d_26">
      <g>
       <use xlink:href="#maca73f0b0b" x="239.831799" y="291.28" style="stroke: #000000; stroke-width: 0.6"/>
      </g>
     </g>
    </g>
    <g id="xtick_25">
     <g id="line2d_27">
      <g>
       <use xlink:href="#maca73f0b0b" x="268.966279" y="291.28" style="stroke: #000000; stroke-width: 0.6"/>
      </g>
     </g>
    </g>
    <g id="xtick_26">
     <g id="line2d_28">
      <g>
       <use xlink:href="#maca73f0b0b" x="283.760144" y="291.28" style="stroke: #000000; stroke-width: 0.6"/>
      </g>
     </g>
    </g>
    <g id="xtick_27">
     <g id="line2d_29">
      <g>
       <use xlink:href="#maca73f0b0b" x="294.256558" y="291.28" style="stroke: #000000; stroke-width: 0.6"/>
      </g>
     </g>
    </g>
    <g id="xtick_28">
     <g id="line2d_30">
      <g>
       <use xlink:href="#maca73f0b0b" x="302.39821" y="291.28" style="stroke: #000000; stroke-width: 0.6"/>
      </g>
     </g>
    </g>
    <g id="xtick_29">
     <g id="line2d_31">
      <g>
       <use xlink:href="#maca73f0b0b" x="309.050423" y="291.28" style="stroke: #000000; stroke-width: 0.6"/>
      </g>
     </g>
    </g>
    <g id="xtick_30">
     <g id="line2d_32">
      <g>
       <use xlink:href="#maca73f0b0b" x="314.67479" y="291.28" style="stroke: #000000; stroke-width: 0.6"/>
      </g>
     </g>
    </g>
    <g id="xtick_31">
     <g id="line2d_33">
      <g>
       <use xlink:href="#maca73f0b0b" x="319.546838" y="291.28" style="stroke: #000000; stroke-width: 0.6"/>
      </g>
     </g>
    </g>
    <g id="xtick_32">
     <g id="line2d_34">
      <g>
       <use xlink:href="#maca73f0b0b" x="323.844288" y="291.28" style="stroke: #000000; stroke-width: 0.6"/>
      </g>
     </g>
    </g>
    <g id="xtick_33">
     <g id="line2d_35">
      <g>
       <use xlink:href="#maca73f0b0b" x="352.978768" y="291.28" style="stroke: #000000; stroke-width: 0.6"/>
      </g>
     </g>
    </g>
    <g id="xtick_34">
     <g id="line2d_36">
      <g>
       <use xlink:href="#maca73f0b0b" x="367.772633" y="291.28" style="stroke: #000000; stroke-width: 0.6"/>
      </g>
     </g>
    </g>
    <g id="xtick_35">
     <g id="line2d_37">
      <g>
       <use xlink:href="#maca73f0b0b" x="378.269047" y="291.28" style="stroke: #000000; stroke-width: 0.6"/>
      </g>
     </g>
    </g>
    <g id="xtick_36">
     <g id="line2d_38">
      <g>
       <use xlink:href="#maca73f0b0b" x="386.410699" y="291.28" style="stroke: #000000; stroke-width: 0.6"/>
      </g>
     </g>
    </g>
    <g id="xtick_37">
     <g id="line2d_39">
      <g>
       <use xlink:href="#maca73f0b0b" x="393.062912" y="291.28" style="stroke: #000000; stroke-width: 0.6"/>
      </g>
     </g>
    </g>
    <g id="xtick_38">
     <g id="line2d_40">
      <g>
       <use xlink:href="#maca73f0b0b" x="398.687279" y="291.28" style="stroke: #000000; stroke-width: 0.6"/>
      </g>
     </g>
    </g>
    <g id="xtick_39">
     <g id="line2d_41">
      <g>
       <use xlink:href="#maca73f0b0b" x="403.559326" y="291.28" style="stroke: #000000; stroke-width: 0.6"/>
      </g>
     </g>
    </g>
    <g id="xtick_40">
     <g id="line2d_42">
      <g>
       <use xlink:href="#maca73f0b0b" x="407.856777" y="291.28" style="stroke: #000000; stroke-width: 0.6"/>
      </g>
     </g>
    </g>
    <g id="xtick_41">
     <g id="line2d_43">
      <g>
       <use xlink:href="#maca73f0b0b" x="436.991257" y="291.28" style="stroke: #000000; stroke-width: 0.6"/>
      </g>
     </g>
    </g>
    <g id="xtick_42">
     <g id="line2d_44">
      <g>
       <use xlink:href="#maca73f0b0b" x="451.785122" y="291.28" style="stroke: #000000; stroke-width: 0.6"/>
      </g>
     </g>
    </g>
    <g id="text_3">
     <!-- log10 of FEvals ratio -->
     <g transform="translate(141.371312 336.833125) scale(0.2 -0.2)">
      <defs>
       <path id="DejaVuSans-6c" d="M 603 4863 
L 1178 4863 
L 1178 0 
L 603 0 
L 603 4863 
z
" transform="scale(0.015625)"/>
       <path id="DejaVuSans-6f" d="M 1959 3097 
Q 1497 3097 1228 2736 
Q 959 2375 959 1747 
Q 959 1119 1226 758 
Q 1494 397 1959 397 
Q 2419 397 2687 759 
Q 2956 1122 2956 1747 
Q 2956 2369 2687 2733 
Q 2419 3097 1959 3097 
z
M 1959 3584 
Q 2709 3584 3137 3096 
Q 3566 2609 3566 1747 
Q 3566 888 3137 398 
Q 2709 -91 1959 -91 
Q 1206 -91 779 398 
Q 353 888 353 1747 
Q 353 2609 779 3096 
Q 1206 3584 1959 3584 
z
" transform="scale(0.015625)"/>
       <path id="DejaVuSans-67" d="M 2906 1791 
Q 2906 2416 2648 2759 
Q 2391 3103 1925 3103 
Q 1463 3103 1205 2759 
Q 947 2416 947 1791 
Q 947 1169 1205 825 
Q 1463 481 1925 481 
Q 2391 481 2648 825 
Q 2906 1169 2906 1791 
z
M 3481 434 
Q 3481 -459 3084 -895 
Q 2688 -1331 1869 -1331 
Q 1566 -1331 1297 -1286 
Q 1028 -1241 775 -1147 
L 775 -588 
Q 1028 -725 1275 -790 
Q 1522 -856 1778 -856 
Q 2344 -856 2625 -561 
Q 2906 -266 2906 331 
L 2906 616 
Q 2728 306 2450 153 
Q 2172 0 1784 0 
Q 1141 0 747 490 
Q 353 981 353 1791 
Q 353 2603 747 3093 
Q 1141 3584 1784 3584 
Q 2172 3584 2450 3431 
Q 2728 3278 2906 2969 
L 2906 3500 
L 3481 3500 
L 3481 434 
z
" transform="scale(0.015625)"/>
       <path id="DejaVuSans-30" d="M 2034 4250 
Q 1547 4250 1301 3770 
Q 1056 3291 1056 2328 
Q 1056 1369 1301 889 
Q 1547 409 2034 409 
Q 2525 409 2770 889 
Q 3016 1369 3016 2328 
Q 3016 3291 2770 3770 
Q 2525 4250 2034 4250 
z
M 2034 4750 
Q 2819 4750 3233 4129 
Q 3647 3509 3647 2328 
Q 3647 1150 3233 529 
Q 2819 -91 2034 -91 
Q 1250 -91 836 529 
Q 422 1150 422 2328 
Q 422 3509 836 4129 
Q 1250 4750 2034 4750 
z
" transform="scale(0.015625)"/>
       <path id="DejaVuSans-20" transform="scale(0.015625)"/>
       <path id="DejaVuSans-66" d="M 2375 4863 
L 2375 4384 
L 1825 4384 
Q 1516 4384 1395 4259 
Q 1275 4134 1275 3809 
L 1275 3500 
L 2222 3500 
L 2222 3053 
L 1275 3053 
L 1275 0 
L 697 0 
L 697 3053 
L 147 3053 
L 147 3500 
L 697 3500 
L 697 3744 
Q 697 4328 969 4595 
Q 1241 4863 1831 4863 
L 2375 4863 
z
" transform="scale(0.015625)"/>
       <path id="DejaVuSans-46" d="M 628 4666 
L 3309 4666 
L 3309 4134 
L 1259 4134 
L 1259 2759 
L 3109 2759 
L 3109 2228 
L 1259 2228 
L 1259 0 
L 628 0 
L 628 4666 
z
" transform="scale(0.015625)"/>
       <path id="DejaVuSans-45" d="M 628 4666 
L 3578 4666 
L 3578 4134 
L 1259 4134 
L 1259 2753 
L 3481 2753 
L 3481 2222 
L 1259 2222 
L 1259 531 
L 3634 531 
L 3634 0 
L 628 0 
L 628 4666 
z
" transform="scale(0.015625)"/>
       <path id="DejaVuSans-76" d="M 191 3500 
L 800 3500 
L 1894 563 
L 2988 3500 
L 3597 3500 
L 2284 0 
L 1503 0 
L 191 3500 
z
" transform="scale(0.015625)"/>
       <path id="DejaVuSans-61" d="M 2194 1759 
Q 1497 1759 1228 1600 
Q 959 1441 959 1056 
Q 959 750 1161 570 
Q 1363 391 1709 391 
Q 2188 391 2477 730 
Q 2766 1069 2766 1631 
L 2766 1759 
L 2194 1759 
z
M 3341 1997 
L 3341 0 
L 2766 0 
L 2766 531 
Q 2569 213 2275 61 
Q 1981 -91 1556 -91 
Q 1019 -91 701 211 
Q 384 513 384 1019 
Q 384 1609 779 1909 
Q 1175 2209 1959 2209 
L 2766 2209 
L 2766 2266 
Q 2766 2663 2505 2880 
Q 2244 3097 1772 3097 
Q 1472 3097 1187 3025 
Q 903 2953 641 2809 
L 641 3341 
Q 956 3463 1253 3523 
Q 1550 3584 1831 3584 
Q 2591 3584 2966 3190 
Q 3341 2797 3341 1997 
z
" transform="scale(0.015625)"/>
       <path id="DejaVuSans-73" d="M 2834 3397 
L 2834 2853 
Q 2591 2978 2328 3040 
Q 2066 3103 1784 3103 
Q 1356 3103 1142 2972 
Q 928 2841 928 2578 
Q 928 2378 1081 2264 
Q 1234 2150 1697 2047 
L 1894 2003 
Q 2506 1872 2764 1633 
Q 3022 1394 3022 966 
Q 3022 478 2636 193 
Q 2250 -91 1575 -91 
Q 1294 -91 989 -36 
Q 684 19 347 128 
L 347 722 
Q 666 556 975 473 
Q 1284 391 1588 391 
Q 1994 391 2212 530 
Q 2431 669 2431 922 
Q 2431 1156 2273 1281 
Q 2116 1406 1581 1522 
L 1381 1569 
Q 847 1681 609 1914 
Q 372 2147 372 2553 
Q 372 3047 722 3315 
Q 1072 3584 1716 3584 
Q 2034 3584 2315 3537 
Q 2597 3491 2834 3397 
z
" transform="scale(0.015625)"/>
       <path id="DejaVuSans-72" d="M 2631 2963 
Q 2534 3019 2420 3045 
Q 2306 3072 2169 3072 
Q 1681 3072 1420 2755 
Q 1159 2438 1159 1844 
L 1159 0 
L 581 0 
L 581 3500 
L 1159 3500 
L 1159 2956 
Q 1341 3275 1631 3429 
Q 1922 3584 2338 3584 
Q 2397 3584 2469 3576 
Q 2541 3569 2628 3553 
L 2631 2963 
z
" transform="scale(0.015625)"/>
       <path id="DejaVuSans-74" d="M 1172 4494 
L 1172 3500 
L 2356 3500 
L 2356 3053 
L 1172 3053 
L 1172 1153 
Q 1172 725 1289 603 
Q 1406 481 1766 481 
L 2356 481 
L 2356 0 
L 1766 0 
Q 1100 0 847 248 
Q 594 497 594 1153 
L 594 3053 
L 172 3053 
L 172 3500 
L 594 3500 
L 594 4494 
L 1172 4494 
z
" transform="scale(0.015625)"/>
       <path id="DejaVuSans-69" d="M 603 3500 
L 1178 3500 
L 1178 0 
L 603 0 
L 603 3500 
z
M 603 4863 
L 1178 4863 
L 1178 4134 
L 603 4134 
L 603 4863 
z
" transform="scale(0.015625)"/>
      </defs>
      <use xlink:href="#DejaVuSans-6c"/>
      <use xlink:href="#DejaVuSans-6f" x="27.783203"/>
      <use xlink:href="#DejaVuSans-67" x="88.964844"/>
      <use xlink:href="#DejaVuSans-31" x="152.441406"/>
      <use xlink:href="#DejaVuSans-30" x="216.064453"/>
      <use xlink:href="#DejaVuSans-20" x="279.6875"/>
      <use xlink:href="#DejaVuSans-6f" x="311.474609"/>
      <use xlink:href="#DejaVuSans-66" x="372.65625"/>
      <use xlink:href="#DejaVuSans-20" x="407.861328"/>
      <use xlink:href="#DejaVuSans-46" x="439.648438"/>
      <use xlink:href="#DejaVuSans-45" x="497.167969"/>
      <use xlink:href="#DejaVuSans-76" x="560.351562"/>
      <use xlink:href="#DejaVuSans-61" x="619.53125"/>
      <use xlink:href="#DejaVuSans-6c" x="680.810547"/>
      <use xlink:href="#DejaVuSans-73" x="708.59375"/>
      <use xlink:href="#DejaVuSans-20" x="760.693359"/>
      <use xlink:href="#DejaVuSans-72" x="792.480469"/>
      <use xlink:href="#DejaVuSans-61" x="833.59375"/>
      <use xlink:href="#DejaVuSans-74" x="894.873047"/>
      <use xlink:href="#DejaVuSans-69" x="934.082031"/>
      <use xlink:href="#DejaVuSans-6f" x="961.865234"/>
     </g>
    </g>
   </g>
   <g id="matplotlib.axis_2">
    <g id="ytick_1">
     <g id="line2d_45">
      <path d="M 34.16 288.453725 
L 453.192 288.453725 
" clip-path="url(#p33e60c6b61)" style="fill: none; stroke: #b0b0b0; stroke-width: 0.8; stroke-linecap: square"/>
     </g>
     <g id="line2d_46">
      <defs>
       <path id="meee123dca1" d="M 0 0 
L -3.5 0 
" style="stroke: #000000; stroke-width: 0.8"/>
      </defs>
      <g>
       <use xlink:href="#meee123dca1" x="34.16" y="288.453725" style="stroke: #000000; stroke-width: 0.8"/>
      </g>
     </g>
    </g>
    <g id="ytick_2">
     <g id="line2d_47">
      <path d="M 34.16 217.796863 
L 453.192 217.796863 
" clip-path="url(#p33e60c6b61)" style="fill: none; stroke: #b0b0b0; stroke-width: 0.8; stroke-linecap: square"/>
     </g>
     <g id="line2d_48">
      <g>
       <use xlink:href="#meee123dca1" x="34.16" y="217.796863" style="stroke: #000000; stroke-width: 0.8"/>
      </g>
     </g>
    </g>
    <g id="ytick_3">
     <g id="line2d_49">
      <path d="M 34.16 147.14 
L 453.192 147.14 
" clip-path="url(#p33e60c6b61)" style="fill: none; stroke: #b0b0b0; stroke-width: 0.8; stroke-linecap: square"/>
     </g>
     <g id="line2d_50">
      <g>
       <use xlink:href="#meee123dca1" x="34.16" y="147.14" style="stroke: #000000; stroke-width: 0.8"/>
      </g>
     </g>
    </g>
    <g id="ytick_4">
     <g id="line2d_51">
      <path d="M 34.16 76.483137 
L 453.192 76.483137 
" clip-path="url(#p33e60c6b61)" style="fill: none; stroke: #b0b0b0; stroke-width: 0.8; stroke-linecap: square"/>
     </g>
     <g id="line2d_52">
      <g>
       <use xlink:href="#meee123dca1" x="34.16" y="76.483137" style="stroke: #000000; stroke-width: 0.8"/>
      </g>
     </g>
    </g>
    <g id="ytick_5">
     <g id="line2d_53">
      <path d="M 34.16 5.826275 
L 453.192 5.826275 
" clip-path="url(#p33e60c6b61)" style="fill: none; stroke: #b0b0b0; stroke-width: 0.8; stroke-linecap: square"/>
     </g>
     <g id="line2d_54">
      <g>
       <use xlink:href="#meee123dca1" x="34.16" y="5.826275" style="stroke: #000000; stroke-width: 0.8"/>
      </g>
     </g>
    </g>
    <g id="text_4">
     <!-- proportion of trials -->
     <g transform="translate(19.000625 240.14625) rotate(-90) scale(0.2 -0.2)">
      <defs>
       <path id="DejaVuSans-70" d="M 1159 525 
L 1159 -1331 
L 581 -1331 
L 581 3500 
L 1159 3500 
L 1159 2969 
Q 1341 3281 1617 3432 
Q 1894 3584 2278 3584 
Q 2916 3584 3314 3078 
Q 3713 2572 3713 1747 
Q 3713 922 3314 415 
Q 2916 -91 2278 -91 
Q 1894 -91 1617 61 
Q 1341 213 1159 525 
z
M 3116 1747 
Q 3116 2381 2855 2742 
Q 2594 3103 2138 3103 
Q 1681 3103 1420 2742 
Q 1159 2381 1159 1747 
Q 1159 1113 1420 752 
Q 1681 391 2138 391 
Q 2594 391 2855 752 
Q 3116 1113 3116 1747 
z
" transform="scale(0.015625)"/>
       <path id="DejaVuSans-6e" d="M 3513 2113 
L 3513 0 
L 2938 0 
L 2938 2094 
Q 2938 2591 2744 2837 
Q 2550 3084 2163 3084 
Q 1697 3084 1428 2787 
Q 1159 2491 1159 1978 
L 1159 0 
L 581 0 
L 581 3500 
L 1159 3500 
L 1159 2956 
Q 1366 3272 1645 3428 
Q 1925 3584 2291 3584 
Q 2894 3584 3203 3211 
Q 3513 2838 3513 2113 
z
" transform="scale(0.015625)"/>
      </defs>
      <use xlink:href="#DejaVuSans-70"/>
      <use xlink:href="#DejaVuSans-72" x="63.476562"/>
      <use xlink:href="#DejaVuSans-6f" x="102.339844"/>
      <use xlink:href="#DejaVuSans-70" x="163.521484"/>
      <use xlink:href="#DejaVuSans-6f" x="226.998047"/>
      <use xlink:href="#DejaVuSans-72" x="288.179688"/>
      <use xlink:href="#DejaVuSans-74" x="329.292969"/>
      <use xlink:href="#DejaVuSans-69" x="368.501953"/>
      <use xlink:href="#DejaVuSans-6f" x="396.285156"/>
      <use xlink:href="#DejaVuSans-6e" x="457.466797"/>
      <use xlink:href="#DejaVuSans-20" x="520.845703"/>
      <use xlink:href="#DejaVuSans-6f" x="552.632812"/>
      <use xlink:href="#DejaVuSans-66" x="613.814453"/>
      <use xlink:href="#DejaVuSans-20" x="649.019531"/>
      <use xlink:href="#DejaVuSans-74" x="680.806641"/>
      <use xlink:href="#DejaVuSans-72" x="720.015625"/>
      <use xlink:href="#DejaVuSans-69" x="761.128906"/>
      <use xlink:href="#DejaVuSans-61" x="788.912109"/>
      <use xlink:href="#DejaVuSans-6c" x="850.191406"/>
      <use xlink:href="#DejaVuSans-73" x="877.974609"/>
     </g>
    </g>
   </g>
   <g id="line2d_55">
    <path d="M 34.16 284.052408 
L 51.802497 284.052408 
L 51.802497 283.738028 
L 53.761264 283.738028 
L 53.761264 283.423648 
L 63.637646 283.423648 
L 63.637646 283.109269 
L 77.172123 283.109269 
L 77.172123 282.794889 
L 79.026441 282.794889 
L 79.026441 282.480509 
L 83.621218 282.480509 
L 83.621218 282.166129 
L 84.861845 282.166129 
L 84.861845 281.851749 
L 88.154064 281.851749 
L 88.154064 281.53737 
L 89.099804 281.53737 
L 89.099804 281.22299 
L 102.316801 281.22299 
L 102.316801 280.90861 
L 102.620579 280.90861 
L 102.620579 280.59423 
L 105.209696 280.59423 
L 105.209696 280.27985 
L 115.587329 280.27985 
L 115.587329 279.965471 
L 117.981219 279.965471 
L 117.981219 279.651091 
L 127.566892 279.651091 
L 127.566892 279.336711 
L 127.957878 279.336711 
L 127.957878 279.022331 
L 128.576036 279.022331 
L 128.576036 278.707951 
L 129.159653 278.707951 
L 129.159653 278.393572 
L 129.525659 278.393572 
L 129.525659 278.079192 
L 129.916645 278.079192 
L 129.916645 277.764812 
L 130.534803 277.764812 
L 130.534803 277.450432 
L 131.553543 277.450432 
L 131.553543 277.136052 
L 132.791958 277.136052 
L 132.791958 276.821672 
L 134.484583 276.821672 
L 134.484583 276.507293 
L 135.067468 276.507293 
L 135.067468 276.192913 
L 135.185848 276.192913 
L 135.185848 275.878533 
L 136.878473 275.878533 
L 136.878473 275.564153 
L 137.071607 275.564153 
L 137.071607 275.249773 
L 139.40204 275.249773 
L 139.465497 274.621014 
L 139.793026 274.621014 
L 139.793026 274.306634 
L 140.411185 274.306634 
L 140.411185 273.992254 
L 148.460698 273.992254 
L 148.460698 273.677874 
L 148.639792 273.677874 
L 148.639792 273.363495 
L 148.81025 273.363495 
L 148.81025 273.049115 
L 150.854589 273.049115 
L 150.854589 272.734735 
L 151.20414 272.734735 
L 151.20414 272.420355 
L 151.744272 272.420355 
L 151.744272 272.105975 
L 152.272097 272.105975 
L 152.272097 271.791595 
L 152.936517 271.791595 
L 152.936517 271.477216 
L 153.327503 271.477216 
L 153.327503 271.162836 
L 153.945662 271.162836 
L 153.964722 270.534076 
L 154.138162 270.534076 
L 154.138162 270.219696 
L 154.790836 270.219696 
L 154.790836 269.905317 
L 155.181822 269.905317 
L 155.181822 269.590937 
L 155.79998 269.590937 
L 155.79998 269.276557 
L 156.551746 269.276557 
L 156.551746 268.962177 
L 159.385612 268.962177 
L 159.385612 268.647797 
L 159.776598 268.647797 
L 159.776598 268.333418 
L 160.394757 268.333418 
L 160.394757 268.019038 
L 160.62624 268.019038 
L 160.62624 267.704658 
L 161.017226 267.704658 
L 161.017226 267.390278 
L 161.635384 267.390278 
L 161.635384 267.075898 
L 162.242367 267.075898 
L 162.242367 266.761518 
L 163.918459 266.761518 
L 163.918459 266.447139 
L 164.309445 266.447139 
L 164.309445 266.132759 
L 164.636257 266.132759 
L 164.636257 265.818379 
L 164.864199 265.818379 
L 164.927603 265.189619 
L 165.255185 265.189619 
L 165.255185 264.87524 
L 165.873343 264.87524 
L 165.873343 264.56086 
L 166.199193 264.56086 
L 166.199193 264.24648 
L 167.940837 264.24648 
L 167.940837 263.9321 
L 168.290389 263.9321 
L 168.290389 263.61772 
L 168.908557 263.61772 
L 168.908557 263.303341 
L 170.216761 263.303341 
L 170.216761 262.988961 
L 171.224411 262.988961 
L 171.224411 262.674581 
L 171.704136 262.674581 
L 171.704136 262.360201 
L 174.681489 262.360201 
L 174.681489 262.045821 
L 175.903449 262.045821 
L 175.903449 261.731441 
L 176.337031 261.731441 
L 176.337031 261.417062 
L 177.550227 261.417062 
L 177.550227 261.102682 
L 178.081196 261.102682 
L 178.081196 260.788302 
L 178.384974 260.788302 
L 178.472182 260.159542 
L 178.596978 260.159542 
L 178.596978 259.845163 
L 178.772187 259.845163 
L 178.857217 258.902023 
L 179.09034 258.902023 
L 179.09034 258.587643 
L 179.205769 258.587643 
L 179.205769 258.273264 
L 179.394118 258.273264 
L 179.420523 257.644504 
L 179.771517 257.644504 
L 179.771517 257.330124 
L 180.079177 257.330124 
L 180.079177 257.015744 
L 180.415027 257.015744 
L 180.512759 256.072605 
L 180.642483 256.072605 
L 180.642483 255.758225 
L 180.97409 255.758225 
L 181.076066 255.129465 
L 181.365077 255.129465 
L 181.465716 254.500706 
L 181.636987 254.500706 
L 181.722506 253.557566 
L 181.983235 253.557566 
L 182.070569 252.928807 
L 182.11679 252.928807 
L 182.118558 252.300047 
L 182.419388 252.300047 
L 182.419388 251.985667 
L 182.772706 251.985667 
L 182.772706 251.671287 
L 182.894429 251.671287 
L 182.894429 251.356908 
L 183.336012 251.356908 
L 183.403822 250.728148 
L 184.330516 250.728148 
L 184.378505 250.099388 
L 184.51068 250.099388 
L 184.51068 249.785009 
L 184.813279 249.785009 
L 184.813279 249.470629 
L 185.096446 249.470629 
L 185.170045 248.841869 
L 185.763167 248.841869 
L 185.763167 248.527489 
L 187.070157 248.527489 
L 187.070157 248.21311 
L 187.633463 248.21311 
L 187.68347 247.58435 
L 188.09792 247.58435 
L 188.09792 247.26997 
L 188.627967 247.26997 
L 188.675955 246.64121 
L 191.367429 246.64121 
L 191.367429 246.326831 
L 192.382014 246.326831 
L 192.382014 246.012451 
L 194.065253 246.012451 
L 194.065253 245.698071 
L 195.267248 245.698071 
L 195.267248 245.383691 
L 196.769407 245.383691 
L 196.769407 245.069311 
L 197.151854 245.069311 
L 197.151854 244.754932 
L 197.979349 244.754932 
L 197.979349 244.440552 
L 198.135987 244.440552 
L 198.135987 244.126172 
L 198.251851 244.126172 
L 198.276819 243.497412 
L 198.728174 243.497412 
L 198.728174 243.183033 
L 199.072562 243.183033 
L 199.072562 242.868653 
L 199.422113 242.868653 
L 199.442977 242.239893 
L 199.666318 242.239893 
L 199.709167 241.611134 
L 199.989747 241.611134 
L 200.006283 240.982374 
L 200.837006 240.982374 
L 200.925793 240.353614 
L 201.000787 240.353614 
L 201.048775 239.724855 
L 201.120589 239.724855 
L 201.120589 239.410475 
L 201.256672 239.410475 
L 201.256672 239.096095 
L 201.581258 239.096095 
L 201.670244 238.152956 
L 201.867397 238.152956 
L 201.899527 237.524196 
L 202.058966 237.524196 
L 202.060208 236.895436 
L 202.356135 236.895436 
L 202.462163 235.952297 
L 202.492548 235.952297 
L 202.577905 235.323537 
L 202.858485 235.323537 
L 202.889749 234.694778 
L 202.990885 234.694778 
L 202.990885 234.380398 
L 203.511738 234.380398 
L 203.511738 234.066018 
L 203.650563 234.066018 
L 203.650563 233.751638 
L 203.794532 233.751638 
L 203.884895 233.122879 
L 203.975148 233.122879 
L 204.033378 232.179739 
L 204.111709 232.179739 
L 204.165475 231.55098 
L 204.42093 231.55098 
L 204.474203 230.60784 
L 204.545291 230.60784 
L 204.545291 230.29346 
L 204.728781 230.29346 
L 204.752495 229.350321 
L 205.101522 229.350321 
L 205.16728 228.721561 
L 205.302549 228.721561 
L 205.302549 228.407181 
L 205.442705 228.407181 
L 205.490694 227.778422 
L 205.664828 227.778422 
L 205.771274 226.835282 
L 205.954338 226.835282 
L 205.954338 226.520903 
L 206.659332 226.520903 
L 206.70732 225.892143 
L 206.805238 225.892143 
L 206.805238 225.577763 
L 206.970459 225.577763 
L 206.995174 224.949003 
L 207.172027 224.949003 
L 207.172027 224.634624 
L 207.427227 224.634624 
L 207.427227 224.320244 
L 208.604555 224.320244 
L 208.604555 224.005864 
L 209.049946 224.005864 
L 209.049946 223.691484 
L 209.582198 223.691484 
L 209.586643 223.062725 
L 210.064464 223.062725 
L 210.064464 222.748345 
L 210.238454 222.748345 
L 210.258628 222.119585 
L 211.006637 222.119585 
L 211.102689 221.176446 
L 211.279268 221.176446 
L 211.279268 220.862066 
L 211.724678 220.862066 
L 211.724678 220.547686 
L 211.887582 220.547686 
L 211.887582 220.233306 
L 212.023231 220.233306 
L 212.023231 219.918926 
L 212.371805 219.918926 
L 212.371805 219.604547 
L 212.85423 219.604547 
L 212.898285 218.975787 
L 213.866292 218.975787 
L 213.919305 218.347027 
L 214.120245 218.347027 
L 214.120245 218.032648 
L 214.297312 218.032648 
L 214.297312 217.718268 
L 214.553827 217.718268 
L 214.553827 217.403888 
L 214.769003 217.403888 
L 214.769003 217.089508 
L 214.974171 217.089508 
L 214.974171 216.775128 
L 215.096837 216.775128 
L 215.096837 216.460749 
L 216.078775 216.460749 
L 216.078775 216.146369 
L 216.578402 216.146369 
L 216.578402 215.831989 
L 216.788043 215.831989 
L 216.813774 215.203229 
L 217.204021 215.203229 
L 217.204021 214.888849 
L 217.716162 214.888849 
L 217.800362 214.26009 
L 218.095033 214.26009 
L 218.095033 213.94571 
L 218.233944 213.94571 
L 218.25671 213.31695 
L 218.658339 213.31695 
L 218.658339 213.002571 
L 219.079864 213.002571 
L 219.146457 212.373811 
L 219.652843 212.373811 
L 219.700832 211.745051 
L 219.901844 211.745051 
L 219.901844 211.430672 
L 220.493891 211.430672 
L 220.542783 210.801912 
L 220.736811 210.801912 
L 220.736811 210.487532 
L 220.97129 210.487532 
L 221.061397 209.544393 
L 221.111225 209.544393 
L 221.111225 209.230013 
L 221.320841 209.230013 
L 221.422766 208.286873 
L 221.468666 208.286873 
L 221.468666 207.972494 
L 221.606402 207.972494 
L 221.606402 207.658114 
L 221.797089 207.658114 
L 221.899613 207.029354 
L 221.948602 207.029354 
L 221.948602 206.714974 
L 222.069054 206.714974 
L 222.139032 206.086215 
L 222.549112 206.086215 
L 222.620341 205.457455 
L 222.988446 205.457455 
L 222.988446 205.143075 
L 223.255593 205.143075 
L 223.255593 204.828696 
L 223.475509 204.828696 
L 223.475509 204.514316 
L 223.755856 204.514316 
L 223.818899 203.256796 
L 223.966683 203.256796 
L 223.99335 202.628037 
L 224.097498 202.628037 
L 224.175089 201.999277 
L 224.252322 201.999277 
L 224.254863 201.370518 
L 224.407368 201.370518 
L 224.407368 201.056138 
L 224.579108 201.056138 
L 224.579108 200.741758 
L 224.791342 200.741758 
L 224.861391 199.798619 
L 224.937792 199.798619 
L 224.937792 199.484239 
L 225.188643 199.484239 
L 225.282253 198.541099 
L 225.459906 198.541099 
L 225.478578 197.91234 
L 225.604935 197.91234 
L 225.622225 197.28358 
L 225.864684 197.28358 
L 225.867713 196.65482 
L 226.145264 196.65482 
L 226.244782 196.026061 
L 226.460111 196.026061 
L 226.460111 195.711681 
L 226.808088 195.711681 
L 226.906643 195.082921 
L 227.081311 195.082921 
L 227.0821 194.454162 
L 227.2016 194.454162 
L 227.2016 194.139782 
L 227.443084 194.139782 
L 227.443084 193.825402 
L 227.611101 193.825402 
L 227.703989 192.882263 
L 227.802592 192.882263 
L 227.882172 190.995984 
L 227.917427 190.995984 
L 227.939861 190.367224 
L 228.198007 190.367224 
L 228.203611 189.738465 
L 228.454737 189.738465 
L 228.539416 188.795325 
L 228.588127 188.795325 
L 228.588127 188.480945 
L 228.819996 188.480945 
L 228.86541 187.852186 
L 229.092211 187.852186 
L 229.135708 186.909046 
L 229.651099 186.909046 
L 229.756043 185.965907 
L 229.828755 185.965907 
L 229.899423 185.337147 
L 230.045957 185.337147 
L 230.045957 185.022767 
L 230.308924 185.022767 
L 230.363873 184.394008 
L 230.501609 184.394008 
L 230.501609 184.079628 
L 230.784835 184.079628 
L 230.784835 183.765248 
L 231.288486 183.765248 
L 231.363484 183.136488 
L 231.497898 183.136488 
L 231.497898 182.822109 
L 231.722732 182.822109 
L 231.722732 182.507729 
L 232.179623 182.507729 
L 232.179623 182.193349 
L 232.728654 182.193349 
L 232.728654 181.878969 
L 232.986025 181.878969 
L 233.087032 180.93583 
L 233.120973 180.93583 
L 233.120973 180.62145 
L 233.283404 180.62145 
L 233.371859 179.99269 
L 233.395526 179.99269 
L 233.484045 178.735171 
L 233.588211 178.735171 
L 233.632238 178.106411 
L 233.81352 178.106411 
L 233.81352 177.792032 
L 234.066714 177.792032 
L 234.137245 177.163272 
L 234.223021 177.163272 
L 234.280884 176.220133 
L 234.415705 176.220133 
L 234.45549 175.591373 
L 234.752958 175.591373 
L 234.752958 175.276993 
L 234.920791 175.276993 
L 234.976028 174.333854 
L 235.045799 174.333854 
L 235.045799 174.019474 
L 235.43409 174.019474 
L 235.521511 173.390714 
L 236.121436 173.390714 
L 236.121436 173.076334 
L 236.243342 173.076334 
L 236.243342 172.761955 
L 236.468647 172.761955 
L 236.468647 172.447575 
L 236.613415 172.447575 
L 236.613415 172.133195 
L 236.835068 172.133195 
L 236.835068 171.818815 
L 237.164161 171.818815 
L 237.223867 171.190056 
L 237.288408 171.190056 
L 237.359096 170.561296 
L 237.563053 170.561296 
L 237.563053 170.246916 
L 237.701567 170.246916 
L 237.701567 169.932536 
L 237.925963 169.932536 
L 237.925963 169.618157 
L 238.111068 169.618157 
L 238.208396 168.360637 
L 238.303753 168.360637 
L 238.389027 167.731878 
L 238.741791 167.731878 
L 238.81373 167.103118 
L 238.941165 167.103118 
L 239.037052 166.474358 
L 239.14259 166.474358 
L 239.200439 165.531219 
L 239.299861 165.531219 
L 239.299861 165.216839 
L 239.753741 165.216839 
L 239.843829 164.2737 
L 239.92167 164.2737 
L 239.92167 163.95932 
L 240.074822 163.95932 
L 240.148764 163.016181 
L 240.19338 163.016181 
L 240.19338 162.701801 
L 240.605595 162.701801 
L 240.605595 162.387421 
L 240.727046 162.387421 
L 240.749165 161.758661 
L 240.933429 161.758661 
L 240.933429 161.444281 
L 241.26832 161.444281 
L 241.26832 161.129902 
L 241.446365 161.129902 
L 241.446365 160.815522 
L 241.60608 160.815522 
L 241.60608 160.501142 
L 241.883185 160.501142 
L 241.88666 159.872382 
L 242.027766 159.872382 
L 242.127565 159.243623 
L 242.231153 159.243623 
L 242.231153 158.929243 
L 242.685813 158.929243 
L 242.749554 158.300483 
L 242.822706 158.300483 
L 242.855261 157.671724 
L 243.111824 157.671724 
L 243.127402 156.728584 
L 243.227087 156.728584 
L 243.333047 156.099825 
L 243.461375 156.099825 
L 243.570243 155.471065 
L 244.03339 155.471065 
L 244.093302 154.842305 
L 244.552443 154.842305 
L 244.637212 154.213546 
L 244.672952 154.213546 
L 244.760951 153.584786 
L 244.92218 153.584786 
L 244.938073 152.956027 
L 245.063938 152.956027 
L 245.110502 152.012887 
L 245.235381 152.012887 
L 245.34529 151.384127 
L 245.378075 151.384127 
L 245.378075 151.069748 
L 245.52901 151.069748 
L 245.52901 150.755368 
L 245.682096 150.755368 
L 245.682096 150.440988 
L 245.981156 150.440988 
L 245.981156 150.126608 
L 246.160033 150.126608 
L 246.160033 149.812228 
L 246.313282 149.812228 
L 246.416031 148.240329 
L 246.593616 148.240329 
L 246.593616 147.92595 
L 246.743309 147.92595 
L 246.743309 147.61157 
L 246.970187 147.61157 
L 246.9903 146.98281 
L 247.166715 146.98281 
L 247.166715 146.66843 
L 247.283711 146.66843 
L 247.361772 145.725291 
L 247.468531 145.725291 
L 247.537045 145.096531 
L 247.587489 145.096531 
L 247.587489 144.782151 
L 247.859517 144.782151 
L 247.964691 143.839012 
L 247.989967 143.839012 
L 248.075898 142.267113 
L 248.205975 142.267113 
L 248.224571 141.638353 
L 248.41853 141.638353 
L 248.477675 141.009594 
L 248.615476 141.009594 
L 248.670425 140.380834 
L 248.808161 140.380834 
L 248.853562 139.752074 
L 248.952144 139.752074 
L 249.021033 138.494555 
L 249.274941 138.494555 
L 249.301696 137.865796 
L 249.844285 137.865796 
L 249.844285 137.551416 
L 250.088914 137.551416 
L 250.176605 136.922656 
L 250.210988 136.922656 
L 250.278181 135.979517 
L 250.33064 135.979517 
L 250.33064 135.665137 
L 250.589531 135.665137 
L 250.603174 135.036377 
L 250.81242 135.036377 
L 250.899303 134.407618 
L 250.931008 134.407618 
L 251.012675 133.464478 
L 251.067624 133.464478 
L 251.1625 132.521339 
L 251.20536 132.521339 
L 251.20536 132.206959 
L 251.340509 132.206959 
L 251.395458 131.578199 
L 251.533193 131.578199 
L 251.533193 131.263819 
L 251.868536 131.263819 
L 251.868536 130.94944 
L 251.989995 130.94944 
L 252.097707 130.32068 
L 252.136101 130.32068 
L 252.235718 129.377541 
L 252.276268 129.377541 
L 252.276268 129.063161 
L 252.562194 129.063161 
L 252.562194 128.748781 
L 252.872185 128.748781 
L 252.976467 127.491262 
L 253.103469 127.491262 
L 253.151013 126.862502 
L 253.280245 126.862502 
L 253.280245 126.548122 
L 253.61581 126.548122 
L 253.625497 125.919363 
L 253.873104 125.919363 
L 253.873104 125.604983 
L 254.090881 125.604983 
L 254.130587 124.976223 
L 254.439062 124.976223 
L 254.500382 124.347464 
L 254.550831 124.347464 
L 254.627381 123.404324 
L 254.693067 123.404324 
L 254.693067 123.089944 
L 254.856437 123.089944 
L 254.92998 122.461185 
L 255.14162 122.461185 
L 255.14162 122.146805 
L 255.405391 122.146805 
L 255.422481 121.518045 
L 255.679689 121.518045 
L 255.772033 120.889286 
L 255.816218 120.889286 
L 255.878042 119.946146 
L 256.50449 119.946146 
L 256.50449 119.631766 
L 256.813249 119.631766 
L 256.893492 118.688627 
L 257.247717 118.688627 
L 257.301213 117.745488 
L 257.538819 117.745488 
L 257.538819 117.431108 
L 257.866653 117.431108 
L 257.866653 117.116728 
L 258.148656 117.116728 
L 258.197114 116.487968 
L 258.452063 116.487968 
L 258.542619 115.544829 
L 258.706055 115.544829 
L 258.725364 114.601689 
L 258.911475 114.601689 
L 258.971908 113.97293 
L 259.078997 113.97293 
L 259.094396 113.34417 
L 259.214073 113.34417 
L 259.214073 113.02979 
L 259.644916 113.02979 
L 259.644916 112.715411 
L 259.917649 112.715411 
L 259.972749 111.772271 
L 260.086493 111.772271 
L 260.086493 111.457891 
L 260.28585 111.457891 
L 260.310976 110.829132 
L 260.495994 110.829132 
L 260.578769 109.885992 
L 260.688679 109.885992 
L 260.784138 108.942853 
L 260.882547 108.942853 
L 260.976777 108.314093 
L 261.026526 108.314093 
L 261.116424 107.370954 
L 261.525925 107.370954 
L 261.580874 106.742194 
L 261.71861 106.742194 
L 261.77682 106.113435 
L 262.733812 106.113435 
L 262.733812 105.799055 
L 263.060458 105.799055 
L 263.132623 105.170295 
L 263.204499 105.170295 
L 263.25821 104.541535 
L 263.316619 104.541535 
L 263.316619 104.227156 
L 263.471663 104.227156 
L 263.498598 103.598396 
L 263.965967 103.598396 
L 263.965967 103.284016 
L 264.20395 103.284016 
L 264.20395 102.969636 
L 264.371199 102.969636 
L 264.371199 102.655257 
L 264.557246 102.655257 
L 264.557246 102.340877 
L 264.863422 102.340877 
L 264.905752 101.712117 
L 265.523833 101.712117 
L 265.523833 101.397737 
L 265.690917 101.397737 
L 265.690917 101.083358 
L 266.096671 101.083358 
L 266.196421 100.140218 
L 266.38245 100.140218 
L 266.38245 99.825838 
L 266.637946 99.825838 
L 266.637946 99.511458 
L 267.022138 99.511458 
L 267.022138 99.197079 
L 267.258607 99.197079 
L 267.317657 98.568319 
L 267.849465 98.568319 
L 267.95099 97.62518 
L 268.052069 97.62518 
L 268.123155 96.99642 
L 268.269465 96.99642 
L 268.365059 96.36766 
L 268.38667 96.36766 
L 268.492264 95.738901 
L 268.508435 95.738901 
L 268.508435 95.424521 
L 268.779649 95.424521 
L 268.795205 94.795761 
L 268.939869 94.795761 
L 268.939869 94.481381 
L 269.107483 94.481381 
L 269.204149 93.538242 
L 269.283022 93.538242 
L 269.283022 93.223862 
L 269.438599 93.223862 
L 269.491425 92.595103 
L 269.578964 92.595103 
L 269.578964 92.280723 
L 269.714856 92.280723 
L 269.714856 91.966343 
L 269.925007 91.966343 
L 269.965751 91.023204 
L 270.04269 91.023204 
L 270.110517 90.394444 
L 270.158166 90.394444 
L 270.246331 89.765684 
L 270.384339 89.765684 
L 270.439413 89.136925 
L 270.758508 89.136925 
L 270.794187 88.508165 
L 270.974563 88.508165 
L 271.061402 87.879405 
L 271.16801 87.879405 
L 271.222959 86.621886 
L 271.354248 86.621886 
L 271.360694 85.993127 
L 271.75546 85.993127 
L 271.82124 85.364367 
L 272.17323 85.364367 
L 272.267356 84.106848 
L 272.311393 84.106848 
L 272.311393 83.792468 
L 272.522781 83.792468 
L 272.615171 82.849328 
L 273.043032 82.849328 
L 273.134646 81.591809 
L 273.202563 81.591809 
L 273.202563 81.277429 
L 273.438423 81.277429 
L 273.522487 79.70553 
L 273.660223 79.70553 
L 273.767264 79.076771 
L 273.786394 79.076771 
L 273.870526 78.133631 
L 273.998565 78.133631 
L 274.091849 77.504872 
L 274.327668 77.504872 
L 274.327668 77.190492 
L 275.204288 77.190492 
L 275.204288 76.876112 
L 275.388964 76.876112 
L 275.456803 76.247352 
L 276.02754 76.247352 
L 276.035108 75.618593 
L 276.461003 75.618593 
L 276.482405 74.989833 
L 276.629591 74.989833 
L 276.629591 74.675453 
L 276.767915 74.675453 
L 276.767915 74.361074 
L 277.070514 74.361074 
L 277.171948 73.417934 
L 277.420947 73.417934 
L 277.420947 73.103554 
L 277.619887 73.103554 
L 277.724725 72.160415 
L 277.758574 72.160415 
L 277.758574 71.846035 
L 278.024353 71.846035 
L 278.051357 71.217275 
L 278.262968 71.217275 
L 278.262968 70.902896 
L 278.375943 70.902896 
L 278.417043 70.274136 
L 278.565627 70.274136 
L 278.565627 69.959756 
L 278.719641 69.959756 
L 278.719641 69.645376 
L 279.198175 69.645376 
L 279.292899 69.016617 
L 279.80025 69.016617 
L 279.869771 68.387857 
L 279.92181 68.387857 
L 279.993682 67.759097 
L 280.083372 67.759097 
L 280.083372 67.444718 
L 280.228106 67.444718 
L 280.313842 66.815958 
L 280.447949 66.815958 
L 280.447949 66.501578 
L 280.86755 66.501578 
L 280.86755 66.187198 
L 281.17946 66.187198 
L 281.17946 65.872819 
L 281.588961 65.872819 
L 281.64391 65.244059 
L 281.781646 65.244059 
L 281.781646 64.929679 
L 282.012202 64.929679 
L 282.099779 64.30092 
L 282.31598 64.30092 
L 282.31598 63.98654 
L 282.480571 63.98654 
L 282.480571 63.67216 
L 282.608236 63.67216 
L 282.608236 63.35778 
L 282.808405 63.35778 
L 282.910834 62.72902 
L 282.956372 62.72902 
L 282.956372 62.414641 
L 283.601336 62.414641 
L 283.601336 62.100261 
L 283.783867 62.100261 
L 283.783867 61.785881 
L 283.905114 61.785881 
L 283.905114 61.471501 
L 284.128066 61.471501 
L 284.175889 60.842742 
L 284.245623 60.842742 
L 284.245623 60.528362 
L 284.502973 60.528362 
L 284.548221 59.899602 
L 284.905097 59.899602 
L 284.905097 59.585222 
L 285.393564 59.585222 
L 285.393564 59.270843 
L 285.954898 59.270843 
L 285.968278 58.642083 
L 286.49423 58.642083 
L 286.49423 58.327703 
L 286.900172 58.327703 
L 286.900172 58.013323 
L 287.228005 58.013323 
L 287.228005 57.698943 
L 287.4242 57.698943 
L 287.4242 57.384564 
L 287.671915 57.384564 
L 287.773751 56.755804 
L 288.115105 56.755804 
L 288.115105 56.441424 
L 288.262982 56.441424 
L 288.262982 56.127044 
L 288.855225 56.127044 
L 288.934983 55.498285 
L 289.025869 55.498285 
L 289.078573 54.869525 
L 289.336449 54.869525 
L 289.381171 54.240766 
L 289.87019 54.240766 
L 289.87019 53.926386 
L 290.221202 53.926386 
L 290.221202 53.612006 
L 290.387879 53.612006 
L 290.387879 53.297626 
L 290.660181 53.297626 
L 290.718494 52.354487 
L 290.988014 52.354487 
L 291.049448 51.725727 
L 291.234512 51.725727 
L 291.24135 51.096967 
L 291.516347 51.096967 
L 291.545128 50.468208 
L 291.782624 50.468208 
L 291.839827 49.839448 
L 291.96389 49.839448 
L 291.96389 49.525068 
L 292.086402 49.525068 
L 292.169719 48.896309 
L 292.325638 48.896309 
L 292.325638 48.581929 
L 292.639803 48.581929 
L 292.639803 48.267549 
L 292.964388 48.267549 
L 292.993821 47.63879 
L 293.297143 47.63879 
L 293.305518 47.01003 
L 293.577723 47.01003 
L 293.577723 46.69565 
L 294.084547 46.69565 
L 294.147888 45.752511 
L 294.317443 45.752511 
L 294.388325 45.123751 
L 294.51377 45.123751 
L 294.51377 44.809371 
L 294.675519 44.809371 
L 294.675519 44.494991 
L 295.907798 44.494991 
L 295.96657 43.866232 
L 296.232383 43.866232 
L 296.232383 43.551852 
L 296.38349 43.551852 
L 296.38349 43.237472 
L 296.977442 43.237472 
L 296.977442 42.923092 
L 297.413422 42.923092 
L 297.413422 42.608713 
L 297.556925 42.608713 
L 297.556925 42.294333 
L 297.881511 42.294333 
L 297.881511 41.979953 
L 298.176323 41.979953 
L 298.176323 41.665573 
L 299.030393 41.665573 
L 299.030393 41.351193 
L 299.355935 41.351193 
L 299.355935 41.036813 
L 300.1435 41.036813 
L 300.157763 40.408054 
L 300.291142 40.408054 
L 300.291142 40.093674 
L 300.573522 40.093674 
L 300.573522 39.779294 
L 300.901355 39.779294 
L 300.901355 39.464914 
L 301.173431 39.464914 
L 301.205868 38.836155 
L 301.748118 38.836155 
L 301.79515 38.207395 
L 302.072704 38.207395 
L 302.072704 37.893015 
L 302.635905 37.893015 
L 302.635905 37.578636 
L 303.385505 37.578636 
L 303.385505 37.264256 
L 303.710091 37.264256 
L 303.710091 36.949876 
L 304.061228 36.949876 
L 304.061228 36.635496 
L 304.69461 36.635496 
L 304.69461 36.321116 
L 304.935434 36.321116 
L 305.044161 35.692357 
L 305.829322 35.692357 
L 305.829322 35.377977 
L 306.13192 35.377977 
L 306.13192 35.063597 
L 306.6281 35.063597 
L 306.6281 34.749217 
L 307.055506 34.749217 
L 307.055506 34.434837 
L 307.507281 34.434837 
L 307.507281 34.120458 
L 307.978183 34.120458 
L 307.978183 33.806078 
L 308.218455 33.806078 
L 308.218455 33.491698 
L 308.543041 33.491698 
L 308.543041 33.177318 
L 309.355035 33.177318 
L 309.355035 32.862938 
L 310.05684 32.862938 
L 310.05684 32.548559 
L 310.815515 32.548559 
L 310.815515 32.234179 
L 311.086772 32.234179 
L 311.086772 31.919799 
L 312.487738 31.919799 
L 312.487738 31.605419 
L 312.667841 31.605419 
L 312.667841 31.291039 
L 313.056857 31.291039 
L 313.115044 30.66228 
L 313.875467 30.66228 
L 313.875467 30.3479 
L 315.18367 30.3479 
L 315.18367 30.03352 
L 315.65703 30.03352 
L 315.65703 29.71914 
L 316.671046 29.71914 
L 316.671046 29.40476 
L 317.476458 29.40476 
L 317.476458 29.090381 
L 318.476278 29.090381 
L 318.476278 28.776001 
L 319.568223 28.776001 
L 319.568223 28.461621 
L 320.728856 28.461621 
L 320.728856 28.147241 
L 320.876427 28.147241 
L 320.929121 27.518482 
L 321.080292 27.518482 
L 321.080292 27.204102 
L 321.236467 27.204102 
L 321.236467 26.889722 
L 321.38289 26.889722 
L 321.38289 26.575342 
L 322.363802 26.575342 
L 322.363802 26.260962 
L 323.028385 26.260962 
L 323.028385 25.946582 
L 323.378849 25.946582 
L 323.378849 25.632203 
L 324.969204 25.632203 
L 324.969204 25.317823 
L 325.213214 25.317823 
L 325.29379 24.689063 
L 327.170524 24.689063 
L 327.170524 24.374683 
L 328.478728 24.374683 
L 328.478728 24.060304 
L 329.966103 24.060304 
L 329.966103 23.745924 
L 331.149808 23.745924 
L 331.149808 23.431544 
L 335.819129 23.431544 
L 335.819129 23.117164 
L 338.350701 23.117164 
L 338.350701 22.802784 
L 338.629819 22.802784 
L 338.6533 22.174025 
L 338.903149 22.174025 
L 338.903149 21.859645 
L 339.726401 21.859645 
L 339.80166 21.230885 
L 340.211353 21.230885 
L 340.220174 20.602126 
L 340.54476 20.602126 
L 340.54476 20.287746 
L 341.034605 20.287746 
L 341.034605 19.973366 
L 341.698728 19.973366 
L 341.698728 19.658986 
L 342.52198 19.658986 
L 342.52198 19.344606 
L 343.069655 19.344606 
L 343.069655 19.030227 
L 344.012703 19.030227 
L 344.012703 18.715847 
L 344.718782 18.715847 
L 344.718782 18.401467 
L 345.320907 18.401467 
L 345.320907 18.087087 
L 346.808282 18.087087 
L 346.808282 17.772707 
L 348.603958 17.772707 
L 348.603958 17.458328 
L 348.909975 17.458328 
L 348.909975 17.143948 
L 349.912162 17.143948 
L 349.912162 16.829568 
L 350.193092 16.829568 
L 350.193092 16.515188 
L 350.547362 16.515188 
L 350.547362 16.200808 
L 351.399537 16.200808 
L 351.501296 15.572049 
L 352.988671 15.572049 
L 352.988671 15.257669 
L 355.380312 15.257669 
L 355.380312 14.943289 
L 355.900229 14.943289 
L 355.900229 14.628909 
L 357.490584 14.628909 
L 357.490584 14.314529 
L 357.815169 14.314529 
L 357.833106 13.68577 
L 358.37438 13.68577 
L 358.37438 13.37139 
L 359.14131 13.37139 
L 359.14131 13.05701 
L 359.682584 13.05701 
L 359.682584 12.74263 
L 360.628685 12.74263 
L 360.676303 12.113871 
L 361.169959 12.113871 
L 361.169959 11.799491 
L 361.984507 11.799491 
L 361.984507 11.485111 
L 363.471882 11.485111 
L 363.471882 11.170731 
L 372.131061 11.170731 
L 372.131061 10.856352 
L 387.382031 10.856352 
L 387.382031 10.541972 
L 404.652441 10.541972 
L 404.652441 10.227592 
L 453.192 10.227592 
L 453.192 10.227592 
" clip-path="url(#p33e60c6b61)" style="fill: none; stroke: #000000; stroke-width: 3; stroke-linecap: square"/>
   </g>
   <g id="line2d_56">
    <path clip-path="url(#p33e60c6b61)" style="fill: none; stroke: #000000; stroke-width: 3; stroke-linecap: square"/>
   </g>
   <g id="line2d_57">
    <path d="M 34.16 238.12281 
L 176.900156 238.12281 
L 176.900156 236.832273 
L 177.445423 236.832273 
L 177.445423 235.541737 
L 177.8152 235.541737 
L 177.8152 234.251201 
L 179.167133 234.251201 
L 179.167133 232.960664 
L 179.712401 232.960664 
L 179.712401 231.670128 
L 180.037051 231.670128 
L 180.082177 229.089055 
L 180.560014 229.089055 
L 180.560014 227.798519 
L 181.105281 227.798519 
L 181.105281 226.507983 
L 181.437358 226.507983 
L 181.475058 223.92691 
L 181.597907 223.92691 
L 181.636676 221.345838 
L 181.982625 221.345838 
L 181.982625 220.055301 
L 182.143174 220.055301 
L 182.181944 217.474229 
L 182.304028 217.474229 
L 182.352402 214.893156 
L 182.512951 214.893156 
L 182.55172 212.312083 
L 183.696908 212.312083 
L 183.696908 211.021547 
L 184.13629 211.021547 
L 184.13629 209.731011 
L 184.574253 209.731011 
L 184.574253 208.440475 
L 184.734801 208.440475 
L 184.773571 205.859402 
L 186.403267 205.859402 
L 186.403267 204.568866 
L 187.796148 204.568866 
L 187.796148 203.278329 
L 188.673492 203.278329 
L 188.673492 201.987793 
L 188.834041 201.987793 
L 188.87281 199.40672 
L 191.161973 199.40672 
L 191.161973 198.116184 
L 191.70724 198.116184 
L 191.70724 196.825648 
L 192.077017 196.825648 
L 192.077017 195.535111 
L 194.298867 195.535111 
L 194.298867 194.244575 
L 197.439987 194.244575 
L 197.439987 192.954039 
L 198.398107 192.954039 
L 198.398107 191.663503 
L 199.706964 191.663503 
L 199.706964 190.372966 
L 200.059815 190.372966 
L 200.059815 189.08243 
L 201.099845 189.08243 
L 201.099845 187.791894 
L 201.977189 187.791894 
L 201.977189 186.501357 
L 202.12199 186.501357 
L 202.176507 182.629748 
L 202.326792 182.629748 
L 202.326792 181.339212 
L 202.444309 181.339212 
L 202.444309 180.048676 
L 202.774897 180.048676 
L 202.774897 178.758139 
L 202.989576 178.758139 
L 202.989576 177.467603 
L 203.359353 177.467603 
L 203.359353 176.177067 
L 203.719672 176.177067 
L 203.719672 174.886531 
L 203.893603 174.886531 
L 203.893603 173.595994 
L 204.388967 173.595994 
L 204.43887 171.014922 
L 204.597017 171.014922 
L 204.597017 169.724385 
L 204.744835 169.724385 
L 204.808647 164.56224 
L 205.041875 164.56224 
L 205.041875 163.271704 
L 205.290102 163.271704 
L 205.290102 161.981168 
L 205.581203 161.981168 
L 205.659879 159.400095 
L 205.781848 159.400095 
L 205.781848 158.109559 
L 206.434755 158.109559 
L 206.434755 156.819022 
L 206.659192 156.819022 
L 206.659192 155.528486 
L 206.81974 155.528486 
L 206.85851 152.947413 
L 207.030498 152.947413 
L 207.030498 151.656877 
L 207.312099 151.656877 
L 207.312099 150.366341 
L 207.472648 150.366341 
L 207.511418 147.785268 
L 207.881729 147.785268 
L 207.881729 146.494732 
L 209.680443 146.494732 
L 209.680443 145.204196 
L 211.129737 145.204196 
L 211.129737 143.913659 
L 211.701804 143.913659 
L 211.701804 142.623123 
L 211.980968 142.623123 
L 211.980968 141.332587 
L 214.321631 141.332587 
L 214.321631 140.04205 
L 216.383807 140.04205 
L 216.383807 138.751514 
L 217.036714 138.751514 
L 217.036714 137.460978 
L 218.038698 137.460978 
L 218.038698 136.170441 
L 218.583966 136.170441 
L 218.583966 134.879905 
L 218.953742 134.879905 
L 218.953742 133.589369 
L 221.175593 133.589369 
L 221.175593 132.298832 
L 222.98414 132.298832 
L 222.98414 131.008296 
L 223.818811 131.008296 
L 223.818811 129.71776 
L 224.433434 129.71776 
L 224.433434 128.427224 
L 224.750095 128.427224 
L 224.750095 127.136687 
L 225.274832 127.136687 
L 225.284666 124.555615 
L 225.429592 124.555615 
L 225.429592 123.265078 
L 225.603967 123.265078 
L 225.603967 121.974542 
L 226.085789 121.974542 
L 226.085789 120.684006 
L 227.017072 120.684006 
L 227.053262 118.102933 
L 227.478669 118.102933 
L 227.478669 116.812397 
L 227.666143 116.812397 
L 227.696569 114.231324 
L 227.904493 114.231324 
L 227.904493 112.940788 
L 228.31905 112.940788 
L 228.409953 109.069179 
L 228.516562 109.069179 
L 228.555332 106.488106 
L 229.08945 106.488106 
L 229.115437 103.907034 
L 229.287297 103.907034 
L 229.287297 102.616497 
L 229.447846 102.616497 
L 229.486615 100.035425 
L 229.768344 100.035425 
L 229.768344 98.744889 
L 229.966668 98.744889 
L 229.966794 96.163816 
L 230.127343 96.163816 
L 230.166112 93.582743 
L 230.619576 93.582743 
L 230.619576 92.292207 
L 238.080628 92.292207 
L 238.080628 91.001671 
L 238.578529 91.001671 
L 238.578529 89.711134 
L 239.011912 89.711134 
L 239.011912 88.420598 
L 239.691409 88.420598 
L 239.691409 87.130062 
L 241.198357 87.130062 
L 241.198357 85.839525 
L 243.260532 85.839525 
L 243.260532 84.548989 
L 243.91344 84.548989 
L 243.91344 83.258453 
L 244.867054 83.258453 
L 244.867054 81.967917 
L 245.660875 81.967917 
L 245.660875 80.67738 
L 246.206142 80.67738 
L 246.206142 79.386844 
L 246.575919 79.386844 
L 246.575919 78.096308 
L 247.134031 78.096308 
L 247.134031 76.805771 
L 248.526911 76.805771 
L 248.526911 75.515235 
L 248.79777 75.515235 
L 248.79777 74.224699 
L 249.362964 74.224699 
L 249.404256 71.643626 
L 249.564804 71.643626 
L 249.603574 69.062553 
L 250.294248 69.062553 
L 250.294248 67.772017 
L 250.812258 67.772017 
L 250.812258 66.481481 
L 250.973745 66.481481 
L 250.973745 65.190945 
L 251.66349 65.190945 
L 251.743542 62.609872 
L 252.423039 62.609872 
L 252.423039 61.319336 
L 252.594773 61.319336 
L 252.594773 60.028799 
L 252.897009 60.028799 
L 252.897009 58.738263 
L 253.274271 58.738263 
L 253.274271 57.447727 
L 259.128871 57.447727 
L 259.128871 56.15719 
L 264.957353 56.15719 
L 264.957353 54.866654 
L 265.888637 54.866654 
L 265.888637 53.576118 
L 266.200706 53.576118 
L 266.200706 52.285582 
L 266.568134 52.285582 
L 266.568134 50.995045 
L 268.820534 50.995045 
L 268.820534 49.704509 
L 270.411207 49.704509 
L 270.411207 48.413973 
L 270.882709 48.413973 
L 270.882709 47.123436 
L 271.535616 47.123436 
L 271.535616 45.8329 
L 271.860501 45.8329 
L 271.860501 44.542364 
L 272.711732 44.542364 
L 272.711732 43.251827 
L 286.005596 43.251827 
L 286.005596 41.961291 
L 292.57953 41.961291 
L 292.57953 40.670755 
L 293.510814 40.670755 
L 293.510814 39.380218 
L 294.190311 39.380218 
L 294.190311 38.089682 
L 313.627773 38.089682 
L 313.627773 36.799146 
L 453.192 36.799146 
L 453.192 36.799146 
" clip-path="url(#p33e60c6b61)" style="fill: none; stroke: #00bfbf; stroke-width: 3; stroke-linecap: square"/>
   </g>
   <g id="line2d_58">
    <path clip-path="url(#p33e60c6b61)" style="fill: none; stroke: #00bfbf; stroke-width: 3; stroke-linecap: square"/>
   </g>
   <g id="line2d_59">
    <path d="M 34.16 238.12281 
L 176.708195 238.12281 
L 176.708195 236.832273 
L 177.400486 236.832273 
L 177.400486 235.541737 
L 177.795733 235.541737 
L 177.795733 234.251201 
L 179.140784 234.251201 
L 179.140784 232.960664 
L 179.833075 232.960664 
L 179.929639 230.379592 
L 180.070017 230.379592 
L 180.070017 229.089055 
L 180.228321 229.089055 
L 180.228321 227.798519 
L 180.468493 227.798519 
L 180.468493 226.507983 
L 180.762308 226.507983 
L 180.762308 225.217447 
L 181.157554 225.217447 
L 181.160784 222.636374 
L 181.289386 222.636374 
L 181.319964 220.055301 
L 181.55603 220.055301 
L 181.55603 218.764765 
L 181.981677 218.764765 
L 182.012255 216.183692 
L 182.362228 216.183692 
L 182.407501 212.312083 
L 183.291461 212.312083 
L 183.291461 211.021547 
L 183.689937 211.021547 
L 183.689937 209.731011 
L 183.97391 209.731011 
L 183.97391 208.440475 
L 184.51083 208.440475 
L 184.541408 205.859402 
L 186.406498 205.859402 
L 186.406498 204.568866 
L 187.335731 204.568866 
L 187.335731 203.278329 
L 187.734207 203.278329 
L 187.734207 201.987793 
L 188.5551 201.987793 
L 188.585678 199.40672 
L 190.94712 199.40672 
L 190.94712 198.116184 
L 191.639411 198.116184 
L 191.639411 196.825648 
L 192.034657 196.825648 
L 192.034657 195.535111 
L 194.168564 195.535111 
L 194.168564 194.244575 
L 197.90975 194.244575 
L 197.90975 192.954039 
L 198.212834 192.954039 
L 198.212834 191.663503 
L 200.342339 191.663503 
L 200.342339 190.372966 
L 200.747965 190.372966 
L 200.747965 189.08243 
L 201.271572 189.08243 
L 201.271572 187.791894 
L 201.670048 187.791894 
L 201.670048 186.501357 
L 201.942188 186.501357 
L 201.942188 185.210821 
L 202.490941 185.210821 
L 202.521519 182.629748 
L 202.634479 182.629748 
L 202.634479 181.339212 
L 203.029725 181.339212 
L 203.103022 178.758139 
L 203.180554 178.758139 
L 203.246477 176.177067 
L 203.592538 176.177067 
L 203.592538 174.886531 
L 203.795313 174.886531 
L 203.795313 173.595994 
L 204.109787 173.595994 
L 204.190559 171.014922 
L 204.326819 171.014922 
L 204.326819 169.724385 
L 204.508263 169.724385 
L 204.508263 168.433849 
L 205.01911 168.433849 
L 205.01911 167.143313 
L 205.163632 167.143313 
L 205.163632 165.852776 
L 205.329156 165.852776 
L 205.414357 161.981168 
L 205.679066 161.981168 
L 205.679066 160.690631 
L 206.025126 160.690631 
L 206.025126 159.400095 
L 206.324466 159.400095 
L 206.324466 158.109559 
L 206.608299 158.109559 
L 206.608299 156.819022 
L 206.954359 156.819022 
L 207.006775 154.23795 
L 207.352835 154.23795 
L 207.352835 152.947413 
L 207.548264 152.947413 
L 207.548264 151.656877 
L 207.827668 151.656877 
L 207.858246 149.075804 
L 208.173728 149.075804 
L 208.204306 146.494732 
L 209.207902 146.494732 
L 209.207902 145.204196 
L 210.368737 145.204196 
L 210.368737 143.913659 
L 211.592534 143.913659 
L 211.592534 142.623123 
L 212.148675 142.623123 
L 212.148675 141.332587 
L 214.98689 141.332587 
L 214.98689 140.04205 
L 217.485402 140.04205 
L 217.485402 138.751514 
L 217.69843 138.751514 
L 217.69843 137.460978 
L 217.831462 137.460978 
L 217.831462 136.170441 
L 218.390721 136.170441 
L 218.390721 134.879905 
L 218.785967 134.879905 
L 218.785967 133.589369 
L 220.919874 133.589369 
L 220.919874 132.298832 
L 223.143743 132.298832 
L 223.143743 131.008296 
L 224.304577 131.008296 
L 224.392703 128.427224 
L 224.964145 128.427224 
L 224.964145 127.136687 
L 225.528375 127.136687 
L 225.528375 125.846151 
L 225.885685 125.846151 
L 225.981958 123.265078 
L 226.436649 123.265078 
L 226.436649 121.974542 
L 226.825292 121.974542 
L 226.825292 120.684006 
L 227.142792 120.684006 
L 227.142792 119.393469 
L 227.754525 119.393469 
L 227.754525 118.102933 
L 228.153001 118.102933 
L 228.153001 116.812397 
L 228.318274 116.812397 
L 228.36659 114.231324 
L 228.48047 114.231324 
L 228.48047 112.940788 
L 228.82653 112.940788 
L 228.869238 110.359715 
L 228.973894 110.359715 
L 229.004472 107.778643 
L 229.247507 107.778643 
L 229.247507 106.488106 
L 229.641304 106.488106 
L 229.645983 103.907034 
L 229.798471 103.907034 
L 229.798471 102.616497 
L 229.987365 102.616497 
L 229.987365 101.325961 
L 230.196947 101.325961 
L 230.196947 100.035425 
L 230.466876 100.035425 
L 230.497454 97.454352 
L 230.865102 97.454352 
L 230.865102 96.163816 
L 231.01784 96.163816 
L 231.048418 93.582743 
L 231.211162 93.582743 
L 231.211162 92.292207 
L 238.631628 92.292207 
L 238.631628 91.001671 
L 238.899985 91.001671 
L 238.899985 89.711134 
L 240.12461 89.711134 
L 240.12461 88.420598 
L 240.675574 88.420598 
L 240.675574 87.130062 
L 241.7382 87.130062 
L 241.7382 85.839525 
L 244.236712 85.839525 
L 244.236712 84.548989 
L 244.582773 84.548989 
L 244.582773 83.258453 
L 245.391236 83.258453 
L 245.391236 81.967917 
L 245.512769 81.967917 
L 245.512769 80.67738 
L 246.20506 80.67738 
L 246.20506 79.386844 
L 246.600307 79.386844 
L 246.600307 78.096308 
L 247.823825 78.096308 
L 247.823825 76.805771 
L 248.734214 76.805771 
L 248.753058 74.224699 
L 249.151534 74.224699 
L 249.151534 72.934162 
L 249.626696 72.934162 
L 249.626696 71.643626 
L 249.972427 71.643626 
L 250.003005 69.062553 
L 250.78753 69.062553 
L 250.78753 67.772017 
L 251.119678 67.772017 
L 251.119678 66.481481 
L 251.670642 66.481481 
L 251.670642 65.190945 
L 252.011327 65.190945 
L 252.011327 63.900408 
L 252.280512 63.900408 
L 252.280512 62.609872 
L 252.778484 62.609872 
L 252.831476 60.028799 
L 253.50431 60.028799 
L 253.50431 58.738263 
L 254.055274 58.738263 
L 254.055274 57.447727 
L 259.630161 57.447727 
L 259.630161 56.15719 
L 265.382938 56.15719 
L 265.382938 54.866654 
L 266.714325 54.866654 
L 266.714325 53.576118 
L 266.87592 53.576118 
L 266.87592 52.285582 
L 267.426884 52.285582 
L 267.426884 50.995045 
L 269.552539 50.995045 
L 269.552539 49.704509 
L 270.625229 49.704509 
L 270.625229 48.413973 
L 271.786063 48.413973 
L 271.786063 47.123436 
L 272.051052 47.123436 
L 272.051052 45.8329 
L 272.397112 45.8329 
L 272.397112 44.542364 
L 273.009861 44.542364 
L 273.009861 43.251827 
L 286.381471 43.251827 
L 286.381471 41.961291 
L 293.197277 41.961291 
L 293.197277 40.670755 
L 294.69026 40.670755 
L 294.69026 39.380218 
L 295.241223 39.380218 
L 295.241223 38.089682 
L 314.195811 38.089682 
L 314.195811 36.799146 
L 453.192 36.799146 
L 453.192 36.799146 
" clip-path="url(#p33e60c6b61)" style="fill: none; stroke: #bf00bf; stroke-width: 3; stroke-linecap: square"/>
   </g>
   <g id="line2d_60">
    <path clip-path="url(#p33e60c6b61)" style="fill: none; stroke: #bf00bf; stroke-width: 3; stroke-linecap: square"/>
   </g>
   <g id="line2d_61">
    <path d="M 34.16 238.12281 
L 176.85105 238.12281 
L 176.85105 236.832273 
L 177.15715 236.832273 
L 177.15715 235.541737 
L 177.915301 235.541737 
L 177.915301 234.251201 
L 178.909793 234.251201 
L 178.909793 232.960664 
L 179.215893 232.960664 
L 179.215893 231.670128 
L 179.974044 231.670128 
L 179.974044 230.379592 
L 180.214486 230.379592 
L 180.22731 227.798519 
L 180.455689 227.798519 
L 180.520586 225.217447 
L 180.76179 225.217447 
L 180.76179 223.92691 
L 181.143923 223.92691 
L 181.143923 222.636374 
L 181.278737 222.636374 
L 181.368131 220.055301 
L 181.450023 220.055301 
L 181.519941 217.474229 
L 181.674231 217.474229 
L 181.674231 216.183692 
L 182.208174 216.183692 
L 182.286052 213.60262 
L 182.432382 213.60262 
L 182.432382 212.312083 
L 183.590746 212.312083 
L 183.590746 211.021547 
L 183.831949 211.021547 
L 183.831949 209.731011 
L 184.047602 209.731011 
L 184.047602 208.440475 
L 184.520182 208.440475 
L 184.520182 207.149938 
L 184.74439 207.149938 
L 184.74439 205.859402 
L 186.106345 205.859402 
L 186.106345 204.568866 
L 187.411038 204.568866 
L 187.411038 203.278329 
L 187.652242 203.278329 
L 187.652242 201.987793 
L 188.340475 201.987793 
L 188.340475 200.697257 
L 188.564683 200.697257 
L 188.564683 199.40672 
L 191.307904 199.40672 
L 191.307904 198.116184 
L 191.614004 198.116184 
L 191.614004 196.825648 
L 192.372155 196.825648 
L 192.372155 195.535111 
L 194.684163 195.535111 
L 194.684163 194.244575 
L 197.884556 194.244575 
L 197.884556 192.954039 
L 198.504456 192.954039 
L 198.504456 191.663503 
L 199.943299 191.663503 
L 199.943299 190.372966 
L 200.738448 190.372966 
L 200.738448 189.08243 
L 201.247992 189.08243 
L 201.247992 187.791894 
L 201.489196 187.791894 
L 201.489196 186.501357 
L 201.99548 186.501357 
L 201.99548 185.210821 
L 202.177429 185.210821 
L 202.177429 183.920285 
L 202.301581 183.920285 
L 202.401637 181.339212 
L 202.797191 181.339212 
L 202.797191 180.048676 
L 203.059731 180.048676 
L 203.059731 178.758139 
L 203.256725 178.758139 
L 203.256725 177.467603 
L 203.489212 177.467603 
L 203.489212 176.177067 
L 203.795313 176.177067 
L 203.818515 173.595994 
L 204.101884 173.595994 
L 204.101884 172.305458 
L 204.343088 172.305458 
L 204.343088 171.014922 
L 204.553464 171.014922 
L 204.553464 169.724385 
L 204.71301 169.724385 
L 204.71301 168.433849 
L 205.01911 168.433849 
L 205.031321 165.852776 
L 205.255529 165.852776 
L 205.315467 163.271704 
L 205.37174 163.271704 
L 205.37174 161.981168 
L 205.777261 161.981168 
L 205.877258 159.400095 
L 206.620161 159.400095 
L 206.620161 158.109559 
L 206.861364 158.109559 
L 206.865472 155.528486 
L 207.181951 155.528486 
L 207.181951 154.23795 
L 207.423155 154.23795 
L 207.423155 152.947413 
L 207.549597 152.947413 
L 207.549597 151.656877 
L 207.773805 151.656877 
L 207.773805 150.366341 
L 208.08927 150.366341 
L 208.111388 147.785268 
L 208.335596 147.785268 
L 208.335596 146.494732 
L 209.192033 146.494732 
L 209.192033 145.204196 
L 210.685765 145.204196 
L 210.685765 143.913659 
L 211.909562 143.913659 
L 211.909562 142.623123 
L 212.34141 142.623123 
L 212.34141 141.332587 
L 215.195302 141.332587 
L 215.195302 140.04205 
L 217.586546 140.04205 
L 217.586546 138.751514 
L 217.713578 138.751514 
L 217.713578 137.460978 
L 217.892646 137.460978 
L 217.892646 136.170441 
L 218.275369 136.170441 
L 218.275369 134.879905 
L 218.650797 134.879905 
L 218.650797 133.589369 
L 220.962805 133.589369 
L 220.962805 132.298832 
L 223.028986 132.298832 
L 223.028986 131.008296 
L 224.522719 131.008296 
L 224.522719 129.71776 
L 224.783098 129.71776 
L 224.783098 128.427224 
L 225.354162 128.427224 
L 225.354162 127.136687 
L 225.746516 127.136687 
L 225.746516 125.846151 
L 225.882878 125.846151 
L 225.882878 124.555615 
L 226.815316 124.555615 
L 226.815316 123.265078 
L 227.135381 123.265078 
L 227.135381 121.974542 
L 227.376611 121.974542 
L 227.412905 119.393469 
L 228.401155 119.393469 
L 228.401155 118.102933 
L 228.600408 118.102933 
L 228.600408 116.812397 
L 228.717598 116.812397 
L 228.717598 115.521861 
L 228.874058 115.521861 
L 228.962945 111.650252 
L 229.194124 111.650252 
L 229.194124 110.359715 
L 229.647035 110.359715 
L 229.647035 109.069179 
L 229.871243 109.069179 
L 229.894887 106.488106 
L 230.178751 106.488106 
L 230.178751 105.19757 
L 230.419955 105.19757 
L 230.498817 101.325961 
L 230.740021 101.325961 
L 230.740021 100.035425 
L 231.108188 100.035425 
L 231.118685 97.454352 
L 231.332396 97.454352 
L 231.428254 94.87328 
L 231.652462 94.87328 
L 231.680475 92.292207 
L 238.620052 92.292207 
L 238.620052 91.001671 
L 239.811016 91.001671 
L 239.811016 89.711134 
L 241.272169 89.711134 
L 241.272169 88.420598 
L 241.473944 88.420598 
L 241.473944 87.130062 
L 241.592235 87.130062 
L 241.592235 85.839525 
L 243.99222 85.839525 
L 243.99222 84.548989 
L 244.554011 84.548989 
L 244.554011 83.258453 
L 245.568233 83.258453 
L 245.568233 81.967917 
L 245.874334 81.967917 
L 245.874334 80.67738 
L 246.446138 80.67738 
L 246.446138 79.386844 
L 246.632485 79.386844 
L 246.632485 78.096308 
L 248.504881 78.096308 
L 248.504881 76.805771 
L 248.944493 76.805771 
L 248.944493 75.515235 
L 249.809574 75.515235 
L 249.809574 74.224699 
L 250.050777 74.224699 
L 250.050777 72.934162 
L 250.498592 72.934162 
L 250.498592 71.643626 
L 250.73901 71.643626 
L 250.73901 70.35309 
L 250.963218 70.35309 
L 250.963218 69.062553 
L 251.959746 69.062553 
L 251.992325 66.481481 
L 252.279812 66.481481 
L 252.279812 65.190945 
L 252.764786 65.190945 
L 252.764786 63.900408 
L 253.216122 63.900408 
L 253.216122 62.609872 
L 253.453478 62.609872 
L 253.453478 61.319336 
L 253.773544 61.319336 
L 253.773544 60.028799 
L 254.677276 60.028799 
L 254.677276 58.738263 
L 254.997341 58.738263 
L 254.997341 57.447727 
L 260.902991 57.447727 
L 260.902991 56.15719 
L 266.089658 56.15719 
L 266.089658 54.866654 
L 266.60174 54.866654 
L 266.60174 53.576118 
L 267.550811 53.576118 
L 267.550811 52.285582 
L 267.870877 52.285582 
L 267.870877 50.995045 
L 269.455632 50.995045 
L 269.455632 49.704509 
L 271.590568 49.704509 
L 271.590568 48.413973 
L 271.973908 48.413973 
L 271.973908 47.123436 
L 272.535699 47.123436 
L 272.535699 45.8329 
L 273.0843 45.8329 
L 273.0843 44.542364 
L 274.308098 44.542364 
L 274.308098 43.251827 
L 287.181634 43.251827 
L 287.181634 41.961291 
L 294.071346 41.961291 
L 294.071346 40.670755 
L 295.532499 40.670755 
L 295.532499 39.380218 
L 295.852565 39.380218 
L 295.852565 38.089682 
L 315.163321 38.089682 
L 315.163321 36.799146 
L 453.192 36.799146 
L 453.192 36.799146 
" clip-path="url(#p33e60c6b61)" style="fill: none; stroke: #ff0000; stroke-width: 3; stroke-linecap: square"/>
   </g>
   <g id="line2d_62">
    <path clip-path="url(#p33e60c6b61)" style="fill: none; stroke: #ff0000; stroke-width: 3; stroke-linecap: square"/>
   </g>
   <g id="line2d_63">
    <path d="M 243.676 291.28 
L 243.676 3 
" clip-path="url(#p33e60c6b61)" style="fill: none; stroke: #000000; stroke-width: 1.5; stroke-linecap: square"/>
   </g>
   <g id="line2d_64">
    <path d="M 34.16 147.14 
L 453.192 147.14 
" clip-path="url(#p33e60c6b61)" style="fill: none; stroke-dasharray: 2,3.3; stroke-dashoffset: 0; stroke: #000000; stroke-width: 2"/>
   </g>
   <g id="patch_3">
    <path d="M 34.16 291.28 
L 34.16 3 
" style="fill: none; stroke: #000000; stroke-width: 0.8; stroke-linejoin: miter; stroke-linecap: square"/>
   </g>
   <g id="patch_4">
    <path d="M 453.192 291.28 
L 453.192 3 
" style="fill: none; stroke: #000000; stroke-width: 0.8; stroke-linejoin: miter; stroke-linecap: square"/>
   </g>
   <g id="patch_5">
    <path d="M 34.16 291.28 
L 453.192 291.28 
" style="fill: none; stroke: #000000; stroke-width: 0.8; stroke-linejoin: miter; stroke-linecap: square"/>
   </g>
   <g id="patch_6">
    <path d="M 34.16 3 
L 453.192 3 
" style="fill: none; stroke: #000000; stroke-width: 0.8; stroke-linejoin: miter; stroke-linecap: square"/>
   </g>
   <g id="text_5">
    <!-- f6-f9,40-D -->
    <g transform="translate(343.64261 285.5144) scale(0.2 -0.2)">
     <defs>
      <path id="DejaVuSans-36" d="M 2113 2584 
Q 1688 2584 1439 2293 
Q 1191 2003 1191 1497 
Q 1191 994 1439 701 
Q 1688 409 2113 409 
Q 2538 409 2786 701 
Q 3034 994 3034 1497 
Q 3034 2003 2786 2293 
Q 2538 2584 2113 2584 
z
M 3366 4563 
L 3366 3988 
Q 3128 4100 2886 4159 
Q 2644 4219 2406 4219 
Q 1781 4219 1451 3797 
Q 1122 3375 1075 2522 
Q 1259 2794 1537 2939 
Q 1816 3084 2150 3084 
Q 2853 3084 3261 2657 
Q 3669 2231 3669 1497 
Q 3669 778 3244 343 
Q 2819 -91 2113 -91 
Q 1303 -91 875 529 
Q 447 1150 447 2328 
Q 447 3434 972 4092 
Q 1497 4750 2381 4750 
Q 2619 4750 2861 4703 
Q 3103 4656 3366 4563 
z
" transform="scale(0.015625)"/>
      <path id="DejaVuSans-39" d="M 703 97 
L 703 672 
Q 941 559 1184 500 
Q 1428 441 1663 441 
Q 2288 441 2617 861 
Q 2947 1281 2994 2138 
Q 2813 1869 2534 1725 
Q 2256 1581 1919 1581 
Q 1219 1581 811 2004 
Q 403 2428 403 3163 
Q 403 3881 828 4315 
Q 1253 4750 1959 4750 
Q 2769 4750 3195 4129 
Q 3622 3509 3622 2328 
Q 3622 1225 3098 567 
Q 2575 -91 1691 -91 
Q 1453 -91 1209 -44 
Q 966 3 703 97 
z
M 1959 2075 
Q 2384 2075 2632 2365 
Q 2881 2656 2881 3163 
Q 2881 3666 2632 3958 
Q 2384 4250 1959 4250 
Q 1534 4250 1286 3958 
Q 1038 3666 1038 3163 
Q 1038 2656 1286 2365 
Q 1534 2075 1959 2075 
z
" transform="scale(0.015625)"/>
      <path id="DejaVuSans-2c" d="M 750 794 
L 1409 794 
L 1409 256 
L 897 -744 
L 494 -744 
L 750 256 
L 750 794 
z
" transform="scale(0.015625)"/>
      <path id="DejaVuSans-34" d="M 2419 4116 
L 825 1625 
L 2419 1625 
L 2419 4116 
z
M 2253 4666 
L 3047 4666 
L 3047 1625 
L 3713 1625 
L 3713 1100 
L 3047 1100 
L 3047 0 
L 2419 0 
L 2419 1100 
L 313 1100 
L 313 1709 
L 2253 4666 
z
" transform="scale(0.015625)"/>
      <path id="DejaVuSans-44" d="M 1259 4147 
L 1259 519 
L 2022 519 
Q 2988 519 3436 956 
Q 3884 1394 3884 2338 
Q 3884 3275 3436 3711 
Q 2988 4147 2022 4147 
L 1259 4147 
z
M 628 4666 
L 1925 4666 
Q 3281 4666 3915 4102 
Q 4550 3538 4550 2338 
Q 4550 1131 3912 565 
Q 3275 0 1925 0 
L 628 0 
L 628 4666 
z
" transform="scale(0.015625)"/>
     </defs>
     <use xlink:href="#DejaVuSans-66"/>
     <use xlink:href="#DejaVuSans-36" x="35.205078"/>
     <use xlink:href="#DejaVuSans-2d" x="98.828125"/>
     <use xlink:href="#DejaVuSans-66" x="134.912109"/>
     <use xlink:href="#DejaVuSans-39" x="170.117188"/>
     <use xlink:href="#DejaVuSans-2c" x="233.740234"/>
     <use xlink:href="#DejaVuSans-34" x="265.527344"/>
     <use xlink:href="#DejaVuSans-30" x="329.150391"/>
     <use xlink:href="#DejaVuSans-2d" x="392.773438"/>
     <use xlink:href="#DejaVuSans-44" x="428.857422"/>
    </g>
   </g>
   <g id="text_6">
    <!-- v2.6.3 -->
    <g style="fill: #808080" transform="translate(227.99475 286.317512) scale(0.1 -0.1)">
     <defs>
      <path id="DejaVuSans-32" d="M 1228 531 
L 3431 531 
L 3431 0 
L 469 0 
L 469 531 
Q 828 903 1448 1529 
Q 2069 2156 2228 2338 
Q 2531 2678 2651 2914 
Q 2772 3150 2772 3378 
Q 2772 3750 2511 3984 
Q 2250 4219 1831 4219 
Q 1534 4219 1204 4116 
Q 875 4013 500 3803 
L 500 4441 
Q 881 4594 1212 4672 
Q 1544 4750 1819 4750 
Q 2544 4750 2975 4387 
Q 3406 4025 3406 3419 
Q 3406 3131 3298 2873 
Q 3191 2616 2906 2266 
Q 2828 2175 2409 1742 
Q 1991 1309 1228 531 
z
" transform="scale(0.015625)"/>
      <path id="DejaVuSans-2e" d="M 684 794 
L 1344 794 
L 1344 0 
L 684 0 
L 684 794 
z
" transform="scale(0.015625)"/>
      <path id="DejaVuSans-33" d="M 2597 2516 
Q 3050 2419 3304 2112 
Q 3559 1806 3559 1356 
Q 3559 666 3084 287 
Q 2609 -91 1734 -91 
Q 1441 -91 1130 -33 
Q 819 25 488 141 
L 488 750 
Q 750 597 1062 519 
Q 1375 441 1716 441 
Q 2309 441 2620 675 
Q 2931 909 2931 1356 
Q 2931 1769 2642 2001 
Q 2353 2234 1838 2234 
L 1294 2234 
L 1294 2753 
L 1863 2753 
Q 2328 2753 2575 2939 
Q 2822 3125 2822 3475 
Q 2822 3834 2567 4026 
Q 2313 4219 1838 4219 
Q 1578 4219 1281 4162 
Q 984 4106 628 3988 
L 628 4550 
Q 988 4650 1302 4700 
Q 1616 4750 1894 4750 
Q 2613 4750 3031 4423 
Q 3450 4097 3450 3541 
Q 3450 3153 3228 2886 
Q 3006 2619 2597 2516 
z
" transform="scale(0.015625)"/>
     </defs>
     <use xlink:href="#DejaVuSans-76"/>
     <use xlink:href="#DejaVuSans-32" x="59.179688"/>
     <use xlink:href="#DejaVuSans-2e" x="122.802734"/>
     <use xlink:href="#DejaVuSans-36" x="154.589844"/>
     <use xlink:href="#DejaVuSans-2e" x="218.212891"/>
     <use xlink:href="#DejaVuSans-33" x="250"/>
    </g>
   </g>
   <g id="legend_1">
    <g id="patch_7">
     <path d="M 48.16 136.425 
L 177.381875 136.425 
Q 181.381875 136.425 181.381875 132.425 
L 181.381875 17 
Q 181.381875 13 177.381875 13 
L 48.16 13 
Q 44.16 13 44.16 17 
L 44.16 132.425 
Q 44.16 136.425 48.16 136.425 
z
" style="fill: #ffffff; opacity: 0.2; stroke: #cccccc; stroke-linejoin: miter"/>
    </g>
    <g id="line2d_65">
     <path d="M 52.16 29.196875 
L 72.16 29.196875 
L 92.16 29.196875 
" style="fill: none; stroke: #000000; stroke-width: 3; stroke-linecap: square"/>
    </g>
    <g id="text_7">
     <!-- 1: 4/4 -->
     <g transform="translate(108.16 36.196875) scale(0.2 -0.2)">
      <defs>
       <path id="DejaVuSans-3a" d="M 750 794 
L 1409 794 
L 1409 0 
L 750 0 
L 750 794 
z
M 750 3309 
L 1409 3309 
L 1409 2516 
L 750 2516 
L 750 3309 
z
" transform="scale(0.015625)"/>
       <path id="DejaVuSans-2f" d="M 1625 4666 
L 2156 4666 
L 531 -594 
L 0 -594 
L 1625 4666 
z
" transform="scale(0.015625)"/>
      </defs>
      <use xlink:href="#DejaVuSans-31"/>
      <use xlink:href="#DejaVuSans-3a" x="63.623047"/>
      <use xlink:href="#DejaVuSans-20" x="97.314453"/>
      <use xlink:href="#DejaVuSans-34" x="129.101562"/>
      <use xlink:href="#DejaVuSans-2f" x="192.724609"/>
      <use xlink:href="#DejaVuSans-34" x="226.416016"/>
     </g>
    </g>
    <g id="line2d_66">
     <path d="M 52.16 58.553125 
L 72.16 58.553125 
L 92.16 58.553125 
" style="fill: none; stroke: #00bfbf; stroke-width: 3; stroke-linecap: square"/>
    </g>
    <g id="text_8">
     <!-- -1: 1/1 -->
     <g transform="translate(108.16 65.553125) scale(0.2 -0.2)">
      <use xlink:href="#DejaVuSans-2d"/>
      <use xlink:href="#DejaVuSans-31" x="36.083984"/>
      <use xlink:href="#DejaVuSans-3a" x="99.707031"/>
      <use xlink:href="#DejaVuSans-20" x="133.398438"/>
      <use xlink:href="#DejaVuSans-31" x="165.185547"/>
      <use xlink:href="#DejaVuSans-2f" x="228.808594"/>
      <use xlink:href="#DejaVuSans-31" x="262.5"/>
     </g>
    </g>
    <g id="line2d_67">
     <path d="M 52.16 87.909375 
L 72.16 87.909375 
L 92.16 87.909375 
" style="fill: none; stroke: #bf00bf; stroke-width: 3; stroke-linecap: square"/>
    </g>
    <g id="text_9">
     <!-- -4: 1/1 -->
     <g transform="translate(108.16 94.909375) scale(0.2 -0.2)">
      <use xlink:href="#DejaVuSans-2d"/>
      <use xlink:href="#DejaVuSans-34" x="36.083984"/>
      <use xlink:href="#DejaVuSans-3a" x="99.707031"/>
      <use xlink:href="#DejaVuSans-20" x="133.398438"/>
      <use xlink:href="#DejaVuSans-31" x="165.185547"/>
      <use xlink:href="#DejaVuSans-2f" x="228.808594"/>
      <use xlink:href="#DejaVuSans-31" x="262.5"/>
     </g>
    </g>
    <g id="line2d_68">
     <path d="M 52.16 117.265625 
L 72.16 117.265625 
L 92.16 117.265625 
" style="fill: none; stroke: #ff0000; stroke-width: 3; stroke-linecap: square"/>
    </g>
    <g id="text_10">
     <!-- -8: 1/1 -->
     <g transform="translate(108.16 124.265625) scale(0.2 -0.2)">
      <defs>
       <path id="DejaVuSans-38" d="M 2034 2216 
Q 1584 2216 1326 1975 
Q 1069 1734 1069 1313 
Q 1069 891 1326 650 
Q 1584 409 2034 409 
Q 2484 409 2743 651 
Q 3003 894 3003 1313 
Q 3003 1734 2745 1975 
Q 2488 2216 2034 2216 
z
M 1403 2484 
Q 997 2584 770 2862 
Q 544 3141 544 3541 
Q 544 4100 942 4425 
Q 1341 4750 2034 4750 
Q 2731 4750 3128 4425 
Q 3525 4100 3525 3541 
Q 3525 3141 3298 2862 
Q 3072 2584 2669 2484 
Q 3125 2378 3379 2068 
Q 3634 1759 3634 1313 
Q 3634 634 3220 271 
Q 2806 -91 2034 -91 
Q 1263 -91 848 271 
Q 434 634 434 1313 
Q 434 1759 690 2068 
Q 947 2378 1403 2484 
z
M 1172 3481 
Q 1172 3119 1398 2916 
Q 1625 2713 2034 2713 
Q 2441 2713 2670 2916 
Q 2900 3119 2900 3481 
Q 2900 3844 2670 4047 
Q 2441 4250 2034 4250 
Q 1625 4250 1398 4047 
Q 1172 3844 1172 3481 
z
" transform="scale(0.015625)"/>
      </defs>
      <use xlink:href="#DejaVuSans-2d"/>
      <use xlink:href="#DejaVuSans-38" x="36.083984"/>
      <use xlink:href="#DejaVuSans-3a" x="99.707031"/>
      <use xlink:href="#DejaVuSans-20" x="133.398438"/>
      <use xlink:href="#DejaVuSans-31" x="165.185547"/>
      <use xlink:href="#DejaVuSans-2f" x="228.808594"/>
      <use xlink:href="#DejaVuSans-31" x="262.5"/>
     </g>
    </g>
   </g>
  </g>
 </g>
 <defs>
  <clipPath id="p33e60c6b61">
   <rect x="34.16" y="3" width="419.032" height="288.28"/>
  </clipPath>
 </defs>
</svg>
