<?xml version="1.0" encoding="utf-8" standalone="no"?>
<!DOCTYPE svg PUBLIC "-//W3C//DTD SVG 1.1//EN"
  "http://www.w3.org/Graphics/SVG/1.1/DTD/svg11.dtd">
<svg xmlns:xlink="http://www.w3.org/1999/xlink" width="460.8pt" height="345.6pt" viewBox="0 0 460.8 345.6" xmlns="http://www.w3.org/2000/svg" version="1.1">
 <metadata>
  <rdf:RDF xmlns:dc="http://purl.org/dc/elements/1.1/" xmlns:cc="http://creativecommons.org/ns#" xmlns:rdf="http://www.w3.org/1999/02/22-rdf-syntax-ns#">
   <cc:Work>
    <dc:type rdf:resource="http://purl.org/dc/dcmitype/StillImage"/>
    <dc:date>2024-06-07T13:53:00.268269</dc:date>
    <dc:format>image/svg+xml</dc:format>
    <dc:creator>
     <cc:Agent>
      <dc:title>Matplotlib v3.7.1, https://matplotlib.org/</dc:title>
     </cc:Agent>
    </dc:creator>
   </cc:Work>
  </rdf:RDF>
 </metadata>
 <defs>
  <style type="text/css">*{stroke-linejoin: round; stroke-linecap: butt}</style>
 </defs>
 <g id="figure_1">
  <g id="patch_1">
   <path d="M 0 345.6 
L 460.8 345.6 
L 460.8 0 
L 0 0 
z
" style="fill: #ffffff"/>
  </g>
  <g id="axes_1">
   <g id="patch_2">
    <path d="M 62.208 293.76 
L 460.8 293.76 
L 460.8 3.456 
L 62.208 3.456 
z
" style="fill: #ffffff"/>
   </g>
   <g id="line2d_1"/>
   <g id="line2d_2"/>
   <g id="line2d_3"/>
   <g id="line2d_4"/>
   <g id="line2d_5">
    <path d="M 386.694155 293.76 
L 386.694155 289.927604 
L 388.038706 289.927604 
L 388.038706 286.095208 
L 388.232885 286.095208 
L 388.232885 282.262812 
L 415.506133 282.262812 
L 415.506133 278.430416 
L 416.296634 278.430416 
L 416.383892 270.765624 
L 416.502924 270.765624 
L 416.502924 266.933228 
L 416.925766 266.933228 
L 417.019557 259.268436 
L 417.476705 259.268436 
L 417.476705 255.43604 
L 417.937032 255.43604 
L 417.937032 251.603644 
L 419.068817 251.603644 
L 419.068817 247.771248 
L 420.196748 247.771248 
L 420.196748 243.938851 
L 420.94778 243.938851 
L 420.94778 240.106455 
L 421.449398 240.106455 
L 421.525772 232.441663 
L 421.71196 232.441663 
L 421.71196 228.609267 
L 422.374275 228.609267 
L 422.374275 224.776871 
L 423.747122 224.776871 
L 423.747122 220.944475 
L 431.166224 220.944475 
L 431.166224 217.112079 
L 436.690403 217.112079 
L 436.690403 213.279683 
L 436.907014 213.279683 
L 436.907014 209.447287 
L 437.724646 209.447287 
L 437.770623 201.782495 
L 438.469049 201.782495 
L 438.469049 197.950099 
L 438.778362 197.950099 
L 438.778362 194.117703 
L 438.955995 194.117703 
L 438.955995 190.285307 
L 439.597453 190.285307 
L 439.597453 186.452911 
L 441.523865 186.452911 
L 441.523865 182.620515 
L 442.276964 182.620515 
L 442.276964 178.788119 
L 447.843104 178.788119 
L 447.843104 174.955723 
L 448.274404 174.955723 
L 448.274404 171.123327 
L 448.56828 171.123327 
L 448.660177 159.626139 
L 449.181989 159.626139 
L 449.181989 155.793743 
L 449.597351 155.793743 
L 449.597351 151.961347 
L 452.12328 151.961347 
L 452.12328 148.12895 
L 452.370794 148.12895 
L 452.435597 140.464158 
L 456.080132 140.464158 
L 456.080132 136.631762 
L 461.529362 136.631762 
L 461.529362 132.799366 
L 461.8 132.799366 
L 461.8 132.799366 
" clip-path="url(#pdf75782d9b)" style="fill: none; stroke: #f5deb3; stroke-width: 1.5; stroke-linecap: square"/>
   </g>
   <g id="line2d_6"/>
   <g id="line2d_7"/>
   <g id="line2d_8"/>
   <g id="line2d_9"/>
   <g id="line2d_10"/>
   <g id="line2d_11"/>
   <g id="line2d_12"/>
   <g id="line2d_13"/>
   <g id="line2d_14"/>
   <g id="line2d_15"/>
   <g id="line2d_16"/>
   <g id="line2d_17">
    <path d="M 402.470844 293.76 
L 402.470844 289.927604 
L 403.549473 289.927604 
L 403.549473 286.095208 
L 405.122087 286.095208 
L 405.122087 282.262812 
L 405.967726 282.262812 
L 405.967726 278.430416 
L 406.05895 278.430416 
L 406.05895 274.59802 
L 406.356923 274.59802 
L 406.356923 270.765624 
L 406.834946 270.765624 
L 406.834946 266.933228 
L 406.894505 266.933228 
L 406.894505 263.100832 
L 408.008195 263.100832 
L 408.008195 259.268436 
L 408.09827 259.268436 
L 408.09827 255.43604 
L 410.500829 255.43604 
L 410.500829 251.603644 
L 445.197133 251.603644 
L 445.197133 247.771248 
L 447.17591 247.771248 
L 447.17591 243.938851 
L 448.903579 243.938851 
L 448.903579 240.106455 
L 450.265701 240.106455 
L 450.265701 236.274059 
L 451.905543 236.274059 
L 451.905543 232.441663 
L 452.043033 232.441663 
L 452.043033 228.609267 
L 454.576049 228.609267 
L 454.576049 224.776871 
L 456.134714 224.776871 
L 456.134714 220.944475 
L 461.8 220.944475 
" clip-path="url(#pdf75782d9b)" style="fill: none; stroke: #f5deb3; stroke-width: 1.5; stroke-linecap: square"/>
   </g>
   <g id="line2d_18"/>
   <g id="line2d_19">
    <path clip-path="url(#pdf75782d9b)" style="fill: none; stroke: #f5deb3; stroke-width: 1.5; stroke-linecap: square"/>
   </g>
   <g id="line2d_20"/>
   <g id="matplotlib.axis_1">
    <g id="xtick_1">
     <g id="line2d_21">
      <path d="M 62.208 293.76 
L 62.208 3.456 
" clip-path="url(#pdf75782d9b)" style="fill: none; stroke: #b0b0b0; stroke-width: 0.8; stroke-linecap: square"/>
     </g>
     <g id="line2d_22">
      <defs>
       <path id="m7f69fe674e" d="M 0 0 
L 0 3.5 
" style="stroke: #000000; stroke-width: 0.8"/>
      </defs>
      <g>
       <use xlink:href="#m7f69fe674e" x="62.208" y="293.76" style="stroke: #000000; stroke-width: 0.8"/>
      </g>
     </g>
     <g id="text_1">
      <!-- 0 -->
      <g transform="translate(55.8455 315.956875) scale(0.2 -0.2)">
       <defs>
        <path id="DejaVuSans-30" d="M 2034 4250 
Q 1547 4250 1301 3770 
Q 1056 3291 1056 2328 
Q 1056 1369 1301 889 
Q 1547 409 2034 409 
Q 2525 409 2770 889 
Q 3016 1369 3016 2328 
Q 3016 3291 2770 3770 
Q 2525 4250 2034 4250 
z
M 2034 4750 
Q 2819 4750 3233 4129 
Q 3647 3509 3647 2328 
Q 3647 1150 3233 529 
Q 2819 -91 2034 -91 
Q 1250 -91 836 529 
Q 422 1150 422 2328 
Q 422 3509 836 4129 
Q 1250 4750 2034 4750 
z
" transform="scale(0.015625)"/>
       </defs>
       <use xlink:href="#DejaVuSans-30"/>
      </g>
     </g>
    </g>
    <g id="xtick_2">
     <g id="line2d_23">
      <path d="M 238.707888 293.76 
L 238.707888 3.456 
" clip-path="url(#pdf75782d9b)" style="fill: none; stroke: #b0b0b0; stroke-width: 0.8; stroke-linecap: square"/>
     </g>
     <g id="line2d_24">
      <g>
       <use xlink:href="#m7f69fe674e" x="238.707888" y="293.76" style="stroke: #000000; stroke-width: 0.8"/>
      </g>
     </g>
     <g id="text_2">
      <!-- 2 -->
      <g transform="translate(232.345388 315.956875) scale(0.2 -0.2)">
       <defs>
        <path id="DejaVuSans-32" d="M 1228 531 
L 3431 531 
L 3431 0 
L 469 0 
L 469 531 
Q 828 903 1448 1529 
Q 2069 2156 2228 2338 
Q 2531 2678 2651 2914 
Q 2772 3150 2772 3378 
Q 2772 3750 2511 3984 
Q 2250 4219 1831 4219 
Q 1534 4219 1204 4116 
Q 875 4013 500 3803 
L 500 4441 
Q 881 4594 1212 4672 
Q 1544 4750 1819 4750 
Q 2544 4750 2975 4387 
Q 3406 4025 3406 3419 
Q 3406 3131 3298 2873 
Q 3191 2616 2906 2266 
Q 2828 2175 2409 1742 
Q 1991 1309 1228 531 
z
" transform="scale(0.015625)"/>
       </defs>
       <use xlink:href="#DejaVuSans-32"/>
      </g>
     </g>
    </g>
    <g id="xtick_3">
     <g id="line2d_25">
      <path d="M 415.207776 293.76 
L 415.207776 3.456 
" clip-path="url(#pdf75782d9b)" style="fill: none; stroke: #b0b0b0; stroke-width: 0.8; stroke-linecap: square"/>
     </g>
     <g id="line2d_26">
      <g>
       <use xlink:href="#m7f69fe674e" x="415.207776" y="293.76" style="stroke: #000000; stroke-width: 0.8"/>
      </g>
     </g>
     <g id="text_3">
      <!-- 4 -->
      <g transform="translate(408.845276 315.956875) scale(0.2 -0.2)">
       <defs>
        <path id="DejaVuSans-34" d="M 2419 4116 
L 825 1625 
L 2419 1625 
L 2419 4116 
z
M 2253 4666 
L 3047 4666 
L 3047 1625 
L 3713 1625 
L 3713 1100 
L 3047 1100 
L 3047 0 
L 2419 0 
L 2419 1100 
L 313 1100 
L 313 1709 
L 2253 4666 
z
" transform="scale(0.015625)"/>
       </defs>
       <use xlink:href="#DejaVuSans-34"/>
      </g>
     </g>
    </g>
    <g id="xtick_4">
     <g id="line2d_27">
      <path d="M 88.77388 293.76 
L 88.77388 3.456 
" clip-path="url(#pdf75782d9b)" style="fill: none; stroke: #b0b0b0; stroke-width: 0.8; stroke-linecap: square"/>
     </g>
     <g id="line2d_28">
      <defs>
       <path id="m065ee8f187" d="M 0 0 
L 0 2 
" style="stroke: #000000; stroke-width: 0.6"/>
      </defs>
      <g>
       <use xlink:href="#m065ee8f187" x="88.77388" y="293.76" style="stroke: #000000; stroke-width: 0.6"/>
      </g>
     </g>
    </g>
    <g id="xtick_5">
     <g id="line2d_29">
      <path d="M 104.313924 293.76 
L 104.313924 3.456 
" clip-path="url(#pdf75782d9b)" style="fill: none; stroke: #b0b0b0; stroke-width: 0.8; stroke-linecap: square"/>
     </g>
     <g id="line2d_30">
      <g>
       <use xlink:href="#m065ee8f187" x="104.313924" y="293.76" style="stroke: #000000; stroke-width: 0.6"/>
      </g>
     </g>
    </g>
    <g id="xtick_6">
     <g id="line2d_31">
      <path d="M 115.33976 293.76 
L 115.33976 3.456 
" clip-path="url(#pdf75782d9b)" style="fill: none; stroke: #b0b0b0; stroke-width: 0.8; stroke-linecap: square"/>
     </g>
     <g id="line2d_32">
      <g>
       <use xlink:href="#m065ee8f187" x="115.33976" y="293.76" style="stroke: #000000; stroke-width: 0.6"/>
      </g>
     </g>
    </g>
    <g id="xtick_7">
     <g id="line2d_33">
      <path d="M 123.892064 293.76 
L 123.892064 3.456 
" clip-path="url(#pdf75782d9b)" style="fill: none; stroke: #b0b0b0; stroke-width: 0.8; stroke-linecap: square"/>
     </g>
     <g id="line2d_34">
      <g>
       <use xlink:href="#m065ee8f187" x="123.892064" y="293.76" style="stroke: #000000; stroke-width: 0.6"/>
      </g>
     </g>
    </g>
    <g id="xtick_8">
     <g id="line2d_35">
      <path d="M 130.879804 293.76 
L 130.879804 3.456 
" clip-path="url(#pdf75782d9b)" style="fill: none; stroke: #b0b0b0; stroke-width: 0.8; stroke-linecap: square"/>
     </g>
     <g id="line2d_36">
      <g>
       <use xlink:href="#m065ee8f187" x="130.879804" y="293.76" style="stroke: #000000; stroke-width: 0.6"/>
      </g>
     </g>
    </g>
    <g id="xtick_9">
     <g id="line2d_37">
      <path d="M 136.787855 293.76 
L 136.787855 3.456 
" clip-path="url(#pdf75782d9b)" style="fill: none; stroke: #b0b0b0; stroke-width: 0.8; stroke-linecap: square"/>
     </g>
     <g id="line2d_38">
      <g>
       <use xlink:href="#m065ee8f187" x="136.787855" y="293.76" style="stroke: #000000; stroke-width: 0.6"/>
      </g>
     </g>
    </g>
    <g id="xtick_10">
     <g id="line2d_39">
      <path d="M 141.905641 293.76 
L 141.905641 3.456 
" clip-path="url(#pdf75782d9b)" style="fill: none; stroke: #b0b0b0; stroke-width: 0.8; stroke-linecap: square"/>
     </g>
     <g id="line2d_40">
      <g>
       <use xlink:href="#m065ee8f187" x="141.905641" y="293.76" style="stroke: #000000; stroke-width: 0.6"/>
      </g>
     </g>
    </g>
    <g id="xtick_11">
     <g id="line2d_41">
      <path d="M 146.419848 293.76 
L 146.419848 3.456 
" clip-path="url(#pdf75782d9b)" style="fill: none; stroke: #b0b0b0; stroke-width: 0.8; stroke-linecap: square"/>
     </g>
     <g id="line2d_42">
      <g>
       <use xlink:href="#m065ee8f187" x="146.419848" y="293.76" style="stroke: #000000; stroke-width: 0.6"/>
      </g>
     </g>
    </g>
    <g id="xtick_12">
     <g id="line2d_43">
      <path d="M 177.023824 293.76 
L 177.023824 3.456 
" clip-path="url(#pdf75782d9b)" style="fill: none; stroke: #b0b0b0; stroke-width: 0.8; stroke-linecap: square"/>
     </g>
     <g id="line2d_44">
      <g>
       <use xlink:href="#m065ee8f187" x="177.023824" y="293.76" style="stroke: #000000; stroke-width: 0.6"/>
      </g>
     </g>
    </g>
    <g id="xtick_13">
     <g id="line2d_45">
      <path d="M 192.563868 293.76 
L 192.563868 3.456 
" clip-path="url(#pdf75782d9b)" style="fill: none; stroke: #b0b0b0; stroke-width: 0.8; stroke-linecap: square"/>
     </g>
     <g id="line2d_46">
      <g>
       <use xlink:href="#m065ee8f187" x="192.563868" y="293.76" style="stroke: #000000; stroke-width: 0.6"/>
      </g>
     </g>
    </g>
    <g id="xtick_14">
     <g id="line2d_47">
      <path d="M 203.589704 293.76 
L 203.589704 3.456 
" clip-path="url(#pdf75782d9b)" style="fill: none; stroke: #b0b0b0; stroke-width: 0.8; stroke-linecap: square"/>
     </g>
     <g id="line2d_48">
      <g>
       <use xlink:href="#m065ee8f187" x="203.589704" y="293.76" style="stroke: #000000; stroke-width: 0.6"/>
      </g>
     </g>
    </g>
    <g id="xtick_15">
     <g id="line2d_49">
      <path d="M 212.142008 293.76 
L 212.142008 3.456 
" clip-path="url(#pdf75782d9b)" style="fill: none; stroke: #b0b0b0; stroke-width: 0.8; stroke-linecap: square"/>
     </g>
     <g id="line2d_50">
      <g>
       <use xlink:href="#m065ee8f187" x="212.142008" y="293.76" style="stroke: #000000; stroke-width: 0.6"/>
      </g>
     </g>
    </g>
    <g id="xtick_16">
     <g id="line2d_51">
      <path d="M 219.129748 293.76 
L 219.129748 3.456 
" clip-path="url(#pdf75782d9b)" style="fill: none; stroke: #b0b0b0; stroke-width: 0.8; stroke-linecap: square"/>
     </g>
     <g id="line2d_52">
      <g>
       <use xlink:href="#m065ee8f187" x="219.129748" y="293.76" style="stroke: #000000; stroke-width: 0.6"/>
      </g>
     </g>
    </g>
    <g id="xtick_17">
     <g id="line2d_53">
      <path d="M 225.037799 293.76 
L 225.037799 3.456 
" clip-path="url(#pdf75782d9b)" style="fill: none; stroke: #b0b0b0; stroke-width: 0.8; stroke-linecap: square"/>
     </g>
     <g id="line2d_54">
      <g>
       <use xlink:href="#m065ee8f187" x="225.037799" y="293.76" style="stroke: #000000; stroke-width: 0.6"/>
      </g>
     </g>
    </g>
    <g id="xtick_18">
     <g id="line2d_55">
      <path d="M 230.155585 293.76 
L 230.155585 3.456 
" clip-path="url(#pdf75782d9b)" style="fill: none; stroke: #b0b0b0; stroke-width: 0.8; stroke-linecap: square"/>
     </g>
     <g id="line2d_56">
      <g>
       <use xlink:href="#m065ee8f187" x="230.155585" y="293.76" style="stroke: #000000; stroke-width: 0.6"/>
      </g>
     </g>
    </g>
    <g id="xtick_19">
     <g id="line2d_57">
      <path d="M 234.669792 293.76 
L 234.669792 3.456 
" clip-path="url(#pdf75782d9b)" style="fill: none; stroke: #b0b0b0; stroke-width: 0.8; stroke-linecap: square"/>
     </g>
     <g id="line2d_58">
      <g>
       <use xlink:href="#m065ee8f187" x="234.669792" y="293.76" style="stroke: #000000; stroke-width: 0.6"/>
      </g>
     </g>
    </g>
    <g id="xtick_20">
     <g id="line2d_59">
      <path d="M 265.273768 293.76 
L 265.273768 3.456 
" clip-path="url(#pdf75782d9b)" style="fill: none; stroke: #b0b0b0; stroke-width: 0.8; stroke-linecap: square"/>
     </g>
     <g id="line2d_60">
      <g>
       <use xlink:href="#m065ee8f187" x="265.273768" y="293.76" style="stroke: #000000; stroke-width: 0.6"/>
      </g>
     </g>
    </g>
    <g id="xtick_21">
     <g id="line2d_61">
      <path d="M 280.813812 293.76 
L 280.813812 3.456 
" clip-path="url(#pdf75782d9b)" style="fill: none; stroke: #b0b0b0; stroke-width: 0.8; stroke-linecap: square"/>
     </g>
     <g id="line2d_62">
      <g>
       <use xlink:href="#m065ee8f187" x="280.813812" y="293.76" style="stroke: #000000; stroke-width: 0.6"/>
      </g>
     </g>
    </g>
    <g id="xtick_22">
     <g id="line2d_63">
      <path d="M 291.839648 293.76 
L 291.839648 3.456 
" clip-path="url(#pdf75782d9b)" style="fill: none; stroke: #b0b0b0; stroke-width: 0.8; stroke-linecap: square"/>
     </g>
     <g id="line2d_64">
      <g>
       <use xlink:href="#m065ee8f187" x="291.839648" y="293.76" style="stroke: #000000; stroke-width: 0.6"/>
      </g>
     </g>
    </g>
    <g id="xtick_23">
     <g id="line2d_65">
      <path d="M 300.391951 293.76 
L 300.391951 3.456 
" clip-path="url(#pdf75782d9b)" style="fill: none; stroke: #b0b0b0; stroke-width: 0.8; stroke-linecap: square"/>
     </g>
     <g id="line2d_66">
      <g>
       <use xlink:href="#m065ee8f187" x="300.391951" y="293.76" style="stroke: #000000; stroke-width: 0.6"/>
      </g>
     </g>
    </g>
    <g id="xtick_24">
     <g id="line2d_67">
      <path d="M 307.379692 293.76 
L 307.379692 3.456 
" clip-path="url(#pdf75782d9b)" style="fill: none; stroke: #b0b0b0; stroke-width: 0.8; stroke-linecap: square"/>
     </g>
     <g id="line2d_68">
      <g>
       <use xlink:href="#m065ee8f187" x="307.379692" y="293.76" style="stroke: #000000; stroke-width: 0.6"/>
      </g>
     </g>
    </g>
    <g id="xtick_25">
     <g id="line2d_69">
      <path d="M 313.287742 293.76 
L 313.287742 3.456 
" clip-path="url(#pdf75782d9b)" style="fill: none; stroke: #b0b0b0; stroke-width: 0.8; stroke-linecap: square"/>
     </g>
     <g id="line2d_70">
      <g>
       <use xlink:href="#m065ee8f187" x="313.287742" y="293.76" style="stroke: #000000; stroke-width: 0.6"/>
      </g>
     </g>
    </g>
    <g id="xtick_26">
     <g id="line2d_71">
      <path d="M 318.405528 293.76 
L 318.405528 3.456 
" clip-path="url(#pdf75782d9b)" style="fill: none; stroke: #b0b0b0; stroke-width: 0.8; stroke-linecap: square"/>
     </g>
     <g id="line2d_72">
      <g>
       <use xlink:href="#m065ee8f187" x="318.405528" y="293.76" style="stroke: #000000; stroke-width: 0.6"/>
      </g>
     </g>
    </g>
    <g id="xtick_27">
     <g id="line2d_73">
      <path d="M 322.919736 293.76 
L 322.919736 3.456 
" clip-path="url(#pdf75782d9b)" style="fill: none; stroke: #b0b0b0; stroke-width: 0.8; stroke-linecap: square"/>
     </g>
     <g id="line2d_74">
      <g>
       <use xlink:href="#m065ee8f187" x="322.919736" y="293.76" style="stroke: #000000; stroke-width: 0.6"/>
      </g>
     </g>
    </g>
    <g id="xtick_28">
     <g id="line2d_75">
      <path d="M 353.523712 293.76 
L 353.523712 3.456 
" clip-path="url(#pdf75782d9b)" style="fill: none; stroke: #b0b0b0; stroke-width: 0.8; stroke-linecap: square"/>
     </g>
     <g id="line2d_76">
      <g>
       <use xlink:href="#m065ee8f187" x="353.523712" y="293.76" style="stroke: #000000; stroke-width: 0.6"/>
      </g>
     </g>
    </g>
    <g id="xtick_29">
     <g id="line2d_77">
      <path d="M 369.063756 293.76 
L 369.063756 3.456 
" clip-path="url(#pdf75782d9b)" style="fill: none; stroke: #b0b0b0; stroke-width: 0.8; stroke-linecap: square"/>
     </g>
     <g id="line2d_78">
      <g>
       <use xlink:href="#m065ee8f187" x="369.063756" y="293.76" style="stroke: #000000; stroke-width: 0.6"/>
      </g>
     </g>
    </g>
    <g id="xtick_30">
     <g id="line2d_79">
      <path d="M 380.089592 293.76 
L 380.089592 3.456 
" clip-path="url(#pdf75782d9b)" style="fill: none; stroke: #b0b0b0; stroke-width: 0.8; stroke-linecap: square"/>
     </g>
     <g id="line2d_80">
      <g>
       <use xlink:href="#m065ee8f187" x="380.089592" y="293.76" style="stroke: #000000; stroke-width: 0.6"/>
      </g>
     </g>
    </g>
    <g id="xtick_31">
     <g id="line2d_81">
      <path d="M 388.641895 293.76 
L 388.641895 3.456 
" clip-path="url(#pdf75782d9b)" style="fill: none; stroke: #b0b0b0; stroke-width: 0.8; stroke-linecap: square"/>
     </g>
     <g id="line2d_82">
      <g>
       <use xlink:href="#m065ee8f187" x="388.641895" y="293.76" style="stroke: #000000; stroke-width: 0.6"/>
      </g>
     </g>
    </g>
    <g id="xtick_32">
     <g id="line2d_83">
      <path d="M 395.629636 293.76 
L 395.629636 3.456 
" clip-path="url(#pdf75782d9b)" style="fill: none; stroke: #b0b0b0; stroke-width: 0.8; stroke-linecap: square"/>
     </g>
     <g id="line2d_84">
      <g>
       <use xlink:href="#m065ee8f187" x="395.629636" y="293.76" style="stroke: #000000; stroke-width: 0.6"/>
      </g>
     </g>
    </g>
    <g id="xtick_33">
     <g id="line2d_85">
      <path d="M 401.537686 293.76 
L 401.537686 3.456 
" clip-path="url(#pdf75782d9b)" style="fill: none; stroke: #b0b0b0; stroke-width: 0.8; stroke-linecap: square"/>
     </g>
     <g id="line2d_86">
      <g>
       <use xlink:href="#m065ee8f187" x="401.537686" y="293.76" style="stroke: #000000; stroke-width: 0.6"/>
      </g>
     </g>
    </g>
    <g id="xtick_34">
     <g id="line2d_87">
      <path d="M 406.655472 293.76 
L 406.655472 3.456 
" clip-path="url(#pdf75782d9b)" style="fill: none; stroke: #b0b0b0; stroke-width: 0.8; stroke-linecap: square"/>
     </g>
     <g id="line2d_88">
      <g>
       <use xlink:href="#m065ee8f187" x="406.655472" y="293.76" style="stroke: #000000; stroke-width: 0.6"/>
      </g>
     </g>
    </g>
    <g id="xtick_35">
     <g id="line2d_89">
      <path d="M 411.16968 293.76 
L 411.16968 3.456 
" clip-path="url(#pdf75782d9b)" style="fill: none; stroke: #b0b0b0; stroke-width: 0.8; stroke-linecap: square"/>
     </g>
     <g id="line2d_90">
      <g>
       <use xlink:href="#m065ee8f187" x="411.16968" y="293.76" style="stroke: #000000; stroke-width: 0.6"/>
      </g>
     </g>
    </g>
    <g id="xtick_36">
     <g id="line2d_91">
      <path d="M 441.773656 293.76 
L 441.773656 3.456 
" clip-path="url(#pdf75782d9b)" style="fill: none; stroke: #b0b0b0; stroke-width: 0.8; stroke-linecap: square"/>
     </g>
     <g id="line2d_92">
      <g>
       <use xlink:href="#m065ee8f187" x="441.773656" y="293.76" style="stroke: #000000; stroke-width: 0.6"/>
      </g>
     </g>
    </g>
    <g id="xtick_37">
     <g id="line2d_93">
      <path d="M 457.3137 293.76 
L 457.3137 3.456 
" clip-path="url(#pdf75782d9b)" style="fill: none; stroke: #b0b0b0; stroke-width: 0.8; stroke-linecap: square"/>
     </g>
     <g id="line2d_94">
      <g>
       <use xlink:href="#m065ee8f187" x="457.3137" y="293.76" style="stroke: #000000; stroke-width: 0.6"/>
      </g>
     </g>
    </g>
    <g id="text_4">
     <!-- log10 of FEvals / DIM -->
     <g transform="translate(156.430563 339.313125) scale(0.2 -0.2)">
      <defs>
       <path id="DejaVuSans-6c" d="M 603 4863 
L 1178 4863 
L 1178 0 
L 603 0 
L 603 4863 
z
" transform="scale(0.015625)"/>
       <path id="DejaVuSans-6f" d="M 1959 3097 
Q 1497 3097 1228 2736 
Q 959 2375 959 1747 
Q 959 1119 1226 758 
Q 1494 397 1959 397 
Q 2419 397 2687 759 
Q 2956 1122 2956 1747 
Q 2956 2369 2687 2733 
Q 2419 3097 1959 3097 
z
M 1959 3584 
Q 2709 3584 3137 3096 
Q 3566 2609 3566 1747 
Q 3566 888 3137 398 
Q 2709 -91 1959 -91 
Q 1206 -91 779 398 
Q 353 888 353 1747 
Q 353 2609 779 3096 
Q 1206 3584 1959 3584 
z
" transform="scale(0.015625)"/>
       <path id="DejaVuSans-67" d="M 2906 1791 
Q 2906 2416 2648 2759 
Q 2391 3103 1925 3103 
Q 1463 3103 1205 2759 
Q 947 2416 947 1791 
Q 947 1169 1205 825 
Q 1463 481 1925 481 
Q 2391 481 2648 825 
Q 2906 1169 2906 1791 
z
M 3481 434 
Q 3481 -459 3084 -895 
Q 2688 -1331 1869 -1331 
Q 1566 -1331 1297 -1286 
Q 1028 -1241 775 -1147 
L 775 -588 
Q 1028 -725 1275 -790 
Q 1522 -856 1778 -856 
Q 2344 -856 2625 -561 
Q 2906 -266 2906 331 
L 2906 616 
Q 2728 306 2450 153 
Q 2172 0 1784 0 
Q 1141 0 747 490 
Q 353 981 353 1791 
Q 353 2603 747 3093 
Q 1141 3584 1784 3584 
Q 2172 3584 2450 3431 
Q 2728 3278 2906 2969 
L 2906 3500 
L 3481 3500 
L 3481 434 
z
" transform="scale(0.015625)"/>
       <path id="DejaVuSans-31" d="M 794 531 
L 1825 531 
L 1825 4091 
L 703 3866 
L 703 4441 
L 1819 4666 
L 2450 4666 
L 2450 531 
L 3481 531 
L 3481 0 
L 794 0 
L 794 531 
z
" transform="scale(0.015625)"/>
       <path id="DejaVuSans-20" transform="scale(0.015625)"/>
       <path id="DejaVuSans-66" d="M 2375 4863 
L 2375 4384 
L 1825 4384 
Q 1516 4384 1395 4259 
Q 1275 4134 1275 3809 
L 1275 3500 
L 2222 3500 
L 2222 3053 
L 1275 3053 
L 1275 0 
L 697 0 
L 697 3053 
L 147 3053 
L 147 3500 
L 697 3500 
L 697 3744 
Q 697 4328 969 4595 
Q 1241 4863 1831 4863 
L 2375 4863 
z
" transform="scale(0.015625)"/>
       <path id="DejaVuSans-46" d="M 628 4666 
L 3309 4666 
L 3309 4134 
L 1259 4134 
L 1259 2759 
L 3109 2759 
L 3109 2228 
L 1259 2228 
L 1259 0 
L 628 0 
L 628 4666 
z
" transform="scale(0.015625)"/>
       <path id="DejaVuSans-45" d="M 628 4666 
L 3578 4666 
L 3578 4134 
L 1259 4134 
L 1259 2753 
L 3481 2753 
L 3481 2222 
L 1259 2222 
L 1259 531 
L 3634 531 
L 3634 0 
L 628 0 
L 628 4666 
z
" transform="scale(0.015625)"/>
       <path id="DejaVuSans-76" d="M 191 3500 
L 800 3500 
L 1894 563 
L 2988 3500 
L 3597 3500 
L 2284 0 
L 1503 0 
L 191 3500 
z
" transform="scale(0.015625)"/>
       <path id="DejaVuSans-61" d="M 2194 1759 
Q 1497 1759 1228 1600 
Q 959 1441 959 1056 
Q 959 750 1161 570 
Q 1363 391 1709 391 
Q 2188 391 2477 730 
Q 2766 1069 2766 1631 
L 2766 1759 
L 2194 1759 
z
M 3341 1997 
L 3341 0 
L 2766 0 
L 2766 531 
Q 2569 213 2275 61 
Q 1981 -91 1556 -91 
Q 1019 -91 701 211 
Q 384 513 384 1019 
Q 384 1609 779 1909 
Q 1175 2209 1959 2209 
L 2766 2209 
L 2766 2266 
Q 2766 2663 2505 2880 
Q 2244 3097 1772 3097 
Q 1472 3097 1187 3025 
Q 903 2953 641 2809 
L 641 3341 
Q 956 3463 1253 3523 
Q 1550 3584 1831 3584 
Q 2591 3584 2966 3190 
Q 3341 2797 3341 1997 
z
" transform="scale(0.015625)"/>
       <path id="DejaVuSans-73" d="M 2834 3397 
L 2834 2853 
Q 2591 2978 2328 3040 
Q 2066 3103 1784 3103 
Q 1356 3103 1142 2972 
Q 928 2841 928 2578 
Q 928 2378 1081 2264 
Q 1234 2150 1697 2047 
L 1894 2003 
Q 2506 1872 2764 1633 
Q 3022 1394 3022 966 
Q 3022 478 2636 193 
Q 2250 -91 1575 -91 
Q 1294 -91 989 -36 
Q 684 19 347 128 
L 347 722 
Q 666 556 975 473 
Q 1284 391 1588 391 
Q 1994 391 2212 530 
Q 2431 669 2431 922 
Q 2431 1156 2273 1281 
Q 2116 1406 1581 1522 
L 1381 1569 
Q 847 1681 609 1914 
Q 372 2147 372 2553 
Q 372 3047 722 3315 
Q 1072 3584 1716 3584 
Q 2034 3584 2315 3537 
Q 2597 3491 2834 3397 
z
" transform="scale(0.015625)"/>
       <path id="DejaVuSans-2f" d="M 1625 4666 
L 2156 4666 
L 531 -594 
L 0 -594 
L 1625 4666 
z
" transform="scale(0.015625)"/>
       <path id="DejaVuSans-44" d="M 1259 4147 
L 1259 519 
L 2022 519 
Q 2988 519 3436 956 
Q 3884 1394 3884 2338 
Q 3884 3275 3436 3711 
Q 2988 4147 2022 4147 
L 1259 4147 
z
M 628 4666 
L 1925 4666 
Q 3281 4666 3915 4102 
Q 4550 3538 4550 2338 
Q 4550 1131 3912 565 
Q 3275 0 1925 0 
L 628 0 
L 628 4666 
z
" transform="scale(0.015625)"/>
       <path id="DejaVuSans-49" d="M 628 4666 
L 1259 4666 
L 1259 0 
L 628 0 
L 628 4666 
z
" transform="scale(0.015625)"/>
       <path id="DejaVuSans-4d" d="M 628 4666 
L 1569 4666 
L 2759 1491 
L 3956 4666 
L 4897 4666 
L 4897 0 
L 4281 0 
L 4281 4097 
L 3078 897 
L 2444 897 
L 1241 4097 
L 1241 0 
L 628 0 
L 628 4666 
z
" transform="scale(0.015625)"/>
      </defs>
      <use xlink:href="#DejaVuSans-6c"/>
      <use xlink:href="#DejaVuSans-6f" x="27.783203"/>
      <use xlink:href="#DejaVuSans-67" x="88.964844"/>
      <use xlink:href="#DejaVuSans-31" x="152.441406"/>
      <use xlink:href="#DejaVuSans-30" x="216.064453"/>
      <use xlink:href="#DejaVuSans-20" x="279.6875"/>
      <use xlink:href="#DejaVuSans-6f" x="311.474609"/>
      <use xlink:href="#DejaVuSans-66" x="372.65625"/>
      <use xlink:href="#DejaVuSans-20" x="407.861328"/>
      <use xlink:href="#DejaVuSans-46" x="439.648438"/>
      <use xlink:href="#DejaVuSans-45" x="497.167969"/>
      <use xlink:href="#DejaVuSans-76" x="560.351562"/>
      <use xlink:href="#DejaVuSans-61" x="619.53125"/>
      <use xlink:href="#DejaVuSans-6c" x="680.810547"/>
      <use xlink:href="#DejaVuSans-73" x="708.59375"/>
      <use xlink:href="#DejaVuSans-20" x="760.693359"/>
      <use xlink:href="#DejaVuSans-2f" x="792.480469"/>
      <use xlink:href="#DejaVuSans-20" x="826.171875"/>
      <use xlink:href="#DejaVuSans-44" x="857.958984"/>
      <use xlink:href="#DejaVuSans-49" x="934.960938"/>
      <use xlink:href="#DejaVuSans-4d" x="964.453125"/>
     </g>
    </g>
   </g>
   <g id="matplotlib.axis_2">
    <g id="ytick_1">
     <g id="line2d_95">
      <path d="M 62.208 293.76 
L 460.8 293.76 
" clip-path="url(#pdf75782d9b)" style="fill: none; stroke: #b0b0b0; stroke-width: 0.8; stroke-linecap: square"/>
     </g>
     <g id="line2d_96">
      <defs>
       <path id="m80fba131dc" d="M 0 0 
L -3.5 0 
" style="stroke: #000000; stroke-width: 0.8"/>
      </defs>
      <g>
       <use xlink:href="#m80fba131dc" x="62.208" y="293.76" style="stroke: #000000; stroke-width: 0.8"/>
      </g>
     </g>
     <g id="text_5">
      <!-- 0.0 -->
      <g transform="translate(29.763 299.83875) scale(0.16 -0.16)">
       <defs>
        <path id="DejaVuSans-2e" d="M 684 794 
L 1344 794 
L 1344 0 
L 684 0 
L 684 794 
z
" transform="scale(0.015625)"/>
       </defs>
       <use xlink:href="#DejaVuSans-30"/>
       <use xlink:href="#DejaVuSans-2e" x="63.623047"/>
       <use xlink:href="#DejaVuSans-30" x="95.410156"/>
      </g>
     </g>
    </g>
    <g id="ytick_2">
     <g id="line2d_97">
      <path d="M 62.208 236.274059 
L 460.8 236.274059 
" clip-path="url(#pdf75782d9b)" style="fill: none; stroke: #b0b0b0; stroke-width: 0.8; stroke-linecap: square"/>
     </g>
     <g id="line2d_98">
      <g>
       <use xlink:href="#m80fba131dc" x="62.208" y="236.274059" style="stroke: #000000; stroke-width: 0.8"/>
      </g>
     </g>
     <g id="text_6">
      <!-- 0.2 -->
      <g transform="translate(29.763 242.352809) scale(0.16 -0.16)">
       <use xlink:href="#DejaVuSans-30"/>
       <use xlink:href="#DejaVuSans-2e" x="63.623047"/>
       <use xlink:href="#DejaVuSans-32" x="95.410156"/>
      </g>
     </g>
    </g>
    <g id="ytick_3">
     <g id="line2d_99">
      <path d="M 62.208 178.788119 
L 460.8 178.788119 
" clip-path="url(#pdf75782d9b)" style="fill: none; stroke: #b0b0b0; stroke-width: 0.8; stroke-linecap: square"/>
     </g>
     <g id="line2d_100">
      <g>
       <use xlink:href="#m80fba131dc" x="62.208" y="178.788119" style="stroke: #000000; stroke-width: 0.8"/>
      </g>
     </g>
     <g id="text_7">
      <!-- 0.4 -->
      <g transform="translate(29.763 184.866869) scale(0.16 -0.16)">
       <use xlink:href="#DejaVuSans-30"/>
       <use xlink:href="#DejaVuSans-2e" x="63.623047"/>
       <use xlink:href="#DejaVuSans-34" x="95.410156"/>
      </g>
     </g>
    </g>
    <g id="ytick_4">
     <g id="line2d_101">
      <path d="M 62.208 121.302178 
L 460.8 121.302178 
" clip-path="url(#pdf75782d9b)" style="fill: none; stroke: #b0b0b0; stroke-width: 0.8; stroke-linecap: square"/>
     </g>
     <g id="line2d_102">
      <g>
       <use xlink:href="#m80fba131dc" x="62.208" y="121.302178" style="stroke: #000000; stroke-width: 0.8"/>
      </g>
     </g>
     <g id="text_8">
      <!-- 0.6 -->
      <g transform="translate(29.763 127.380928) scale(0.16 -0.16)">
       <defs>
        <path id="DejaVuSans-36" d="M 2113 2584 
Q 1688 2584 1439 2293 
Q 1191 2003 1191 1497 
Q 1191 994 1439 701 
Q 1688 409 2113 409 
Q 2538 409 2786 701 
Q 3034 994 3034 1497 
Q 3034 2003 2786 2293 
Q 2538 2584 2113 2584 
z
M 3366 4563 
L 3366 3988 
Q 3128 4100 2886 4159 
Q 2644 4219 2406 4219 
Q 1781 4219 1451 3797 
Q 1122 3375 1075 2522 
Q 1259 2794 1537 2939 
Q 1816 3084 2150 3084 
Q 2853 3084 3261 2657 
Q 3669 2231 3669 1497 
Q 3669 778 3244 343 
Q 2819 -91 2113 -91 
Q 1303 -91 875 529 
Q 447 1150 447 2328 
Q 447 3434 972 4092 
Q 1497 4750 2381 4750 
Q 2619 4750 2861 4703 
Q 3103 4656 3366 4563 
z
" transform="scale(0.015625)"/>
       </defs>
       <use xlink:href="#DejaVuSans-30"/>
       <use xlink:href="#DejaVuSans-2e" x="63.623047"/>
       <use xlink:href="#DejaVuSans-36" x="95.410156"/>
      </g>
     </g>
    </g>
    <g id="ytick_5">
     <g id="line2d_103">
      <path d="M 62.208 63.816238 
L 460.8 63.816238 
" clip-path="url(#pdf75782d9b)" style="fill: none; stroke: #b0b0b0; stroke-width: 0.8; stroke-linecap: square"/>
     </g>
     <g id="line2d_104">
      <g>
       <use xlink:href="#m80fba131dc" x="62.208" y="63.816238" style="stroke: #000000; stroke-width: 0.8"/>
      </g>
     </g>
     <g id="text_9">
      <!-- 0.8 -->
      <g transform="translate(29.763 69.894988) scale(0.16 -0.16)">
       <defs>
        <path id="DejaVuSans-38" d="M 2034 2216 
Q 1584 2216 1326 1975 
Q 1069 1734 1069 1313 
Q 1069 891 1326 650 
Q 1584 409 2034 409 
Q 2484 409 2743 651 
Q 3003 894 3003 1313 
Q 3003 1734 2745 1975 
Q 2488 2216 2034 2216 
z
M 1403 2484 
Q 997 2584 770 2862 
Q 544 3141 544 3541 
Q 544 4100 942 4425 
Q 1341 4750 2034 4750 
Q 2731 4750 3128 4425 
Q 3525 4100 3525 3541 
Q 3525 3141 3298 2862 
Q 3072 2584 2669 2484 
Q 3125 2378 3379 2068 
Q 3634 1759 3634 1313 
Q 3634 634 3220 271 
Q 2806 -91 2034 -91 
Q 1263 -91 848 271 
Q 434 634 434 1313 
Q 434 1759 690 2068 
Q 947 2378 1403 2484 
z
M 1172 3481 
Q 1172 3119 1398 2916 
Q 1625 2713 2034 2713 
Q 2441 2713 2670 2916 
Q 2900 3119 2900 3481 
Q 2900 3844 2670 4047 
Q 2441 4250 2034 4250 
Q 1625 4250 1398 4047 
Q 1172 3844 1172 3481 
z
" transform="scale(0.015625)"/>
       </defs>
       <use xlink:href="#DejaVuSans-30"/>
       <use xlink:href="#DejaVuSans-2e" x="63.623047"/>
       <use xlink:href="#DejaVuSans-38" x="95.410156"/>
      </g>
     </g>
    </g>
    <g id="ytick_6">
     <g id="line2d_105">
      <path d="M 62.208 6.330297 
L 460.8 6.330297 
" clip-path="url(#pdf75782d9b)" style="fill: none; stroke: #b0b0b0; stroke-width: 0.8; stroke-linecap: square"/>
     </g>
     <g id="line2d_106">
      <g>
       <use xlink:href="#m80fba131dc" x="62.208" y="6.330297" style="stroke: #000000; stroke-width: 0.8"/>
      </g>
     </g>
     <g id="text_10">
      <!-- 1.0 -->
      <g transform="translate(29.763 12.409047) scale(0.16 -0.16)">
       <use xlink:href="#DejaVuSans-31"/>
       <use xlink:href="#DejaVuSans-2e" x="63.623047"/>
       <use xlink:href="#DejaVuSans-30" x="95.410156"/>
      </g>
     </g>
    </g>
    <g id="text_11">
     <!-- proportion of trials -->
     <g transform="translate(21.603625 241.61425) rotate(-90) scale(0.2 -0.2)">
      <defs>
       <path id="DejaVuSans-70" d="M 1159 525 
L 1159 -1331 
L 581 -1331 
L 581 3500 
L 1159 3500 
L 1159 2969 
Q 1341 3281 1617 3432 
Q 1894 3584 2278 3584 
Q 2916 3584 3314 3078 
Q 3713 2572 3713 1747 
Q 3713 922 3314 415 
Q 2916 -91 2278 -91 
Q 1894 -91 1617 61 
Q 1341 213 1159 525 
z
M 3116 1747 
Q 3116 2381 2855 2742 
Q 2594 3103 2138 3103 
Q 1681 3103 1420 2742 
Q 1159 2381 1159 1747 
Q 1159 1113 1420 752 
Q 1681 391 2138 391 
Q 2594 391 2855 752 
Q 3116 1113 3116 1747 
z
" transform="scale(0.015625)"/>
       <path id="DejaVuSans-72" d="M 2631 2963 
Q 2534 3019 2420 3045 
Q 2306 3072 2169 3072 
Q 1681 3072 1420 2755 
Q 1159 2438 1159 1844 
L 1159 0 
L 581 0 
L 581 3500 
L 1159 3500 
L 1159 2956 
Q 1341 3275 1631 3429 
Q 1922 3584 2338 3584 
Q 2397 3584 2469 3576 
Q 2541 3569 2628 3553 
L 2631 2963 
z
" transform="scale(0.015625)"/>
       <path id="DejaVuSans-74" d="M 1172 4494 
L 1172 3500 
L 2356 3500 
L 2356 3053 
L 1172 3053 
L 1172 1153 
Q 1172 725 1289 603 
Q 1406 481 1766 481 
L 2356 481 
L 2356 0 
L 1766 0 
Q 1100 0 847 248 
Q 594 497 594 1153 
L 594 3053 
L 172 3053 
L 172 3500 
L 594 3500 
L 594 4494 
L 1172 4494 
z
" transform="scale(0.015625)"/>
       <path id="DejaVuSans-69" d="M 603 3500 
L 1178 3500 
L 1178 0 
L 603 0 
L 603 3500 
z
M 603 4863 
L 1178 4863 
L 1178 4134 
L 603 4134 
L 603 4863 
z
" transform="scale(0.015625)"/>
       <path id="DejaVuSans-6e" d="M 3513 2113 
L 3513 0 
L 2938 0 
L 2938 2094 
Q 2938 2591 2744 2837 
Q 2550 3084 2163 3084 
Q 1697 3084 1428 2787 
Q 1159 2491 1159 1978 
L 1159 0 
L 581 0 
L 581 3500 
L 1159 3500 
L 1159 2956 
Q 1366 3272 1645 3428 
Q 1925 3584 2291 3584 
Q 2894 3584 3203 3211 
Q 3513 2838 3513 2113 
z
" transform="scale(0.015625)"/>
      </defs>
      <use xlink:href="#DejaVuSans-70"/>
      <use xlink:href="#DejaVuSans-72" x="63.476562"/>
      <use xlink:href="#DejaVuSans-6f" x="102.339844"/>
      <use xlink:href="#DejaVuSans-70" x="163.521484"/>
      <use xlink:href="#DejaVuSans-6f" x="226.998047"/>
      <use xlink:href="#DejaVuSans-72" x="288.179688"/>
      <use xlink:href="#DejaVuSans-74" x="329.292969"/>
      <use xlink:href="#DejaVuSans-69" x="368.501953"/>
      <use xlink:href="#DejaVuSans-6f" x="396.285156"/>
      <use xlink:href="#DejaVuSans-6e" x="457.466797"/>
      <use xlink:href="#DejaVuSans-20" x="520.845703"/>
      <use xlink:href="#DejaVuSans-6f" x="552.632812"/>
      <use xlink:href="#DejaVuSans-66" x="613.814453"/>
      <use xlink:href="#DejaVuSans-20" x="649.019531"/>
      <use xlink:href="#DejaVuSans-74" x="680.806641"/>
      <use xlink:href="#DejaVuSans-72" x="720.015625"/>
      <use xlink:href="#DejaVuSans-69" x="761.128906"/>
      <use xlink:href="#DejaVuSans-61" x="788.912109"/>
      <use xlink:href="#DejaVuSans-6c" x="850.191406"/>
      <use xlink:href="#DejaVuSans-73" x="877.974609"/>
     </g>
    </g>
   </g>
   <g id="line2d_107">
    <path d="M 185.614435 293.76 
L 185.614435 289.927604 
L 190.463262 289.927604 
L 190.463262 286.095208 
L 197.864863 286.095208 
L 197.864863 282.262812 
L 198.934508 282.262812 
L 198.934508 278.430416 
L 199.123375 278.430416 
L 199.123375 274.59802 
L 201.370833 274.59802 
L 201.370833 270.765624 
L 202.71751 270.765624 
L 202.71751 266.933228 
L 204.160332 266.933228 
L 204.160332 263.100832 
L 207.589455 263.100832 
L 207.589455 259.268436 
L 208.188987 259.268436 
L 208.188987 255.43604 
L 213.847353 255.43604 
L 213.847353 251.603644 
L 214.681358 251.603644 
L 214.681358 247.771248 
L 217.978814 247.771248 
L 217.978814 243.938851 
L 218.273887 243.938851 
L 218.273887 240.106455 
L 220.571469 240.106455 
L 220.571469 236.274059 
L 230.548802 236.274059 
L 230.548802 232.441663 
L 233.238077 232.441663 
L 233.238077 228.609267 
L 239.961515 228.609267 
L 239.961515 224.776871 
L 240.650776 224.776871 
L 240.650776 220.944475 
L 246.579639 220.944475 
L 246.579639 217.112079 
L 249.616169 217.112079 
L 249.616169 213.279683 
L 255.131942 213.279683 
L 255.131942 209.447287 
L 259.881239 209.447287 
L 259.881239 205.614891 
L 296.300587 205.614891 
L 296.300587 201.782495 
L 298.044942 201.782495 
L 298.044942 197.950099 
L 298.601155 197.950099 
L 298.601155 194.117703 
L 299.309414 194.117703 
L 299.309414 190.285307 
L 301.255982 190.285307 
L 301.255982 186.452911 
L 302.034926 186.452911 
L 302.034926 182.620515 
L 307.354132 182.620515 
L 307.354132 178.788119 
L 309.55715 178.788119 
L 309.55715 174.955723 
L 312.025686 174.955723 
L 312.039829 167.290931 
L 312.356689 167.290931 
L 312.356689 163.458535 
L 312.722384 163.458535 
L 312.722384 159.626139 
L 313.493876 159.626139 
L 313.493876 155.793743 
L 316.449722 155.793743 
L 316.449722 151.961347 
L 318.197764 151.961347 
L 318.197764 148.12895 
L 322.466733 148.12895 
L 322.466733 144.296554 
L 323.015432 144.296554 
L 323.015432 140.464158 
L 340.044777 140.464158 
L 340.044777 136.631762 
L 346.691071 136.631762 
L 346.691071 132.799366 
L 349.652928 132.799366 
L 349.652928 128.96697 
L 365.812795 128.96697 
L 365.812795 125.134574 
L 369.461241 125.134574 
L 369.461241 121.302178 
L 373.065808 121.302178 
L 373.065808 117.469782 
L 373.751034 117.469782 
L 373.751034 113.637386 
L 374.263656 113.637386 
L 374.263656 109.80499 
L 375.484671 109.80499 
L 375.484671 105.972594 
L 375.644789 105.972594 
L 375.644789 102.140198 
L 376.348438 102.140198 
L 376.348438 98.307802 
L 377.61427 98.307802 
L 377.61427 94.475406 
L 378.516545 94.475406 
L 378.516545 90.64301 
L 378.643867 90.64301 
L 378.643867 86.810614 
L 379.232833 86.810614 
L 379.232833 82.978218 
L 400.544875 82.978218 
L 400.544875 79.145822 
L 408.882612 79.145822 
L 408.882612 75.313426 
L 424.186115 75.313426 
L 424.186115 71.48103 
L 426.355631 71.48103 
L 426.355631 67.648634 
L 426.579191 67.648634 
L 426.59749 59.983842 
L 439.17118 59.983842 
L 439.17118 56.151446 
L 439.352415 56.151446 
L 439.352415 52.31905 
L 440.597272 52.31905 
L 440.597272 48.486653 
L 440.597272 48.486653 
L 460.8 48.486653 
L 460.8 48.486653 
" clip-path="url(#pdf75782d9b)" style="fill: none; stroke: #000000; stroke-width: 1.5; stroke-linecap: square"/>
   </g>
   <g id="line2d_108">
    <defs>
     <path id="mecc391eca7" d="M 0 14.142136 
L 8.485281 0 
L 0 -14.142136 
L -8.485281 0 
z
" style="stroke: #000000; stroke-width: 1.5; stroke-linejoin: miter"/>
    </defs>
    <g clip-path="url(#pdf75782d9b)">
     <use xlink:href="#mecc391eca7" x="208.188987" y="259.268436" style="fill-opacity: 0; stroke: #000000; stroke-width: 1.5; stroke-linejoin: miter"/>
     <use xlink:href="#mecc391eca7" x="298.601155" y="197.950099" style="fill-opacity: 0; stroke: #000000; stroke-width: 1.5; stroke-linejoin: miter"/>
     <use xlink:href="#mecc391eca7" x="346.691071" y="136.631762" style="fill-opacity: 0; stroke: #000000; stroke-width: 1.5; stroke-linejoin: miter"/>
     <use xlink:href="#mecc391eca7" x="400.544875" y="82.978218" style="fill-opacity: 0; stroke: #000000; stroke-width: 1.5; stroke-linejoin: miter"/>
     <use xlink:href="#mecc391eca7" x="440.597272" y="48.486653" style="fill-opacity: 0; stroke: #000000; stroke-width: 1.5; stroke-linejoin: miter"/>
    </g>
   </g>
   <g id="line2d_109">
    <path clip-path="url(#pdf75782d9b)" style="fill: none; stroke: #000000; stroke-width: 1.5; stroke-linecap: square"/>
    <g clip-path="url(#pdf75782d9b)">
     <use xlink:href="#mecc391eca7" x="-1" y="581.189703" style="fill-opacity: 0; stroke: #000000; stroke-width: 1.5; stroke-linejoin: miter"/>
     <use xlink:href="#mecc391eca7" x="460.8" y="581.189703" style="fill-opacity: 0; stroke: #000000; stroke-width: 1.5; stroke-linejoin: miter"/>
    </g>
   </g>
   <g id="line2d_110">
    <path d="M 171.13174 293.76 
L 171.13174 289.927604 
L 185.881519 289.927604 
L 185.881519 286.095208 
L 206.182821 286.095208 
L 206.182821 282.262812 
L 207.438095 282.262812 
L 207.438095 278.430416 
L 213.792326 278.430416 
L 213.792326 274.59802 
L 215.760052 274.59802 
L 215.760052 270.765624 
L 217.180664 270.765624 
L 217.180664 266.933228 
L 217.415179 266.933228 
L 217.415179 263.100832 
L 222.520438 263.100832 
L 222.520438 259.268436 
L 224.291425 259.268436 
L 224.291425 255.43604 
L 226.144095 255.43604 
L 226.144095 251.603644 
L 226.855573 251.603644 
L 226.855573 247.771248 
L 226.920787 247.771248 
L 226.920787 243.938851 
L 227.412823 243.938851 
L 227.412823 240.106455 
L 228.541085 240.106455 
L 228.541085 236.274059 
L 229.246614 236.274059 
L 229.246614 232.441663 
L 234.03646 232.441663 
L 234.03646 228.609267 
L 235.895589 228.609267 
L 235.895589 224.776871 
L 237.639147 224.776871 
L 237.639147 220.944475 
L 240.50477 220.944475 
L 240.50477 217.112079 
L 249.587325 217.112079 
L 249.587325 213.279683 
L 249.774425 213.279683 
L 249.774425 209.447287 
L 262.523286 209.447287 
L 262.523286 205.614891 
L 263.744122 205.614891 
L 263.744122 201.782495 
L 265.043117 201.782495 
L 265.043117 197.950099 
L 281.582169 197.950099 
L 281.582169 194.117703 
L 282.929362 194.117703 
L 282.929362 190.285307 
L 284.219117 190.285307 
L 284.219117 186.452911 
L 284.85095 186.452911 
L 284.85095 182.620515 
L 286.242534 182.620515 
L 286.242534 178.788119 
L 286.549004 178.788119 
L 286.549004 174.955723 
L 292.106999 174.955723 
L 292.106999 171.123327 
L 292.988809 171.123327 
L 292.988809 167.290931 
L 297.492941 167.290931 
L 297.492941 163.458535 
L 299.519757 163.458535 
L 299.519757 159.626139 
L 301.128365 159.626139 
L 301.128365 155.793743 
L 301.435427 155.793743 
L 301.435427 151.961347 
L 304.064012 151.961347 
L 304.064012 148.12895 
L 304.726883 148.12895 
L 304.726883 144.296554 
L 305.359972 144.296554 
L 305.359972 140.464158 
L 305.558094 140.464158 
L 305.558094 136.631762 
L 310.817129 136.631762 
L 310.817129 132.799366 
L 338.464038 132.799366 
L 338.464038 128.96697 
L 341.490171 128.96697 
L 341.490171 125.134574 
L 344.23803 125.134574 
L 344.23803 121.302178 
L 370.04284 121.302178 
L 370.04284 117.469782 
L 381.412011 117.469782 
L 381.412011 113.637386 
L 390.633207 113.637386 
L 390.633207 109.80499 
L 393.961298 109.80499 
L 393.961298 105.972594 
L 398.117689 105.972594 
L 398.117689 102.140198 
L 398.904529 102.140198 
L 398.904529 98.307802 
L 404.955555 98.307802 
L 404.955555 94.475406 
L 409.234707 94.475406 
L 409.234707 90.64301 
L 410.72691 90.64301 
L 410.72691 86.810614 
L 415.524572 86.810614 
L 415.524572 82.978218 
L 415.524572 82.978218 
L 415.524572 82.978218 
L 460.8 82.978218 
" clip-path="url(#pdf75782d9b)" style="fill: none; stroke: #000000; stroke-width: 1.5; stroke-linecap: square"/>
   </g>
   <g id="line2d_111">
    <defs>
     <path id="m6915eaa331" d="M 0 7.5 
C 1.989023 7.5 3.896849 6.709753 5.303301 5.303301 
C 6.709753 3.896849 7.5 1.989023 7.5 0 
C 7.5 -1.989023 6.709753 -3.896849 5.303301 -5.303301 
C 3.896849 -6.709753 1.989023 -7.5 0 -7.5 
C -1.989023 -7.5 -3.896849 -6.709753 -5.303301 -5.303301 
C -6.709753 -3.896849 -7.5 -1.989023 -7.5 0 
C -7.5 1.989023 -6.709753 3.896849 -5.303301 5.303301 
C -3.896849 6.709753 -1.989023 7.5 0 7.5 
z
" style="stroke: #000000; stroke-width: 1.5"/>
    </defs>
    <g clip-path="url(#pdf75782d9b)">
     <use xlink:href="#m6915eaa331" x="237.639147" y="224.776871" style="fill-opacity: 0; stroke: #000000; stroke-width: 1.5"/>
     <use xlink:href="#m6915eaa331" x="299.519757" y="163.458535" style="fill-opacity: 0; stroke: #000000; stroke-width: 1.5"/>
     <use xlink:href="#m6915eaa331" x="370.04284" y="121.302178" style="fill-opacity: 0; stroke: #000000; stroke-width: 1.5"/>
     <use xlink:href="#m6915eaa331" x="415.524572" y="86.810614" style="fill-opacity: 0; stroke: #000000; stroke-width: 1.5"/>
     <use xlink:href="#m6915eaa331" x="415.524572" y="82.978218" style="fill-opacity: 0; stroke: #000000; stroke-width: 1.5"/>
    </g>
   </g>
   <g id="line2d_112">
    <path clip-path="url(#pdf75782d9b)" style="fill: none; stroke: #000000; stroke-width: 1.5; stroke-linecap: square"/>
   </g>
   <g id="line2d_113">
    <path d="M 245.358796 293.76 
L 245.358796 289.927604 
L 302.596256 289.927604 
L 302.596256 286.095208 
L 304.1023 286.095208 
L 304.1023 282.262812 
L 304.351974 282.262812 
L 304.351974 278.430416 
L 304.500312 278.430416 
L 304.500312 274.59802 
L 307.697756 274.59802 
L 307.697756 270.765624 
L 309.457444 270.765624 
L 309.457444 266.933228 
L 312.588794 266.933228 
L 312.588794 263.100832 
L 317.918576 263.100832 
L 317.918576 259.268436 
L 321.889291 259.268436 
L 321.889291 255.43604 
L 348.653698 255.43604 
L 348.653698 251.603644 
L 351.569922 251.603644 
L 351.569922 247.771248 
L 351.700774 247.771248 
L 351.700774 243.938851 
L 359.093825 243.938851 
L 359.093825 240.106455 
L 360.224932 240.106455 
L 360.224932 236.274059 
L 361.744209 236.274059 
L 361.744209 232.441663 
L 362.879293 232.441663 
L 362.879293 228.609267 
L 363.327787 228.609267 
L 363.327787 224.776871 
L 366.91386 224.776871 
L 366.91386 220.944475 
L 367.052788 220.944475 
L 367.052788 217.112079 
L 370.487325 217.112079 
L 370.487325 213.279683 
L 372.505864 213.279683 
L 372.505864 209.447287 
L 375.322526 209.447287 
L 375.322526 205.614891 
L 375.882381 205.614891 
L 375.882381 201.782495 
L 376.920418 201.782495 
L 376.920418 197.950099 
L 377.051071 197.950099 
L 377.051071 194.117703 
L 378.050761 194.117703 
L 378.050761 190.285307 
L 379.050889 190.285307 
L 379.050889 186.452911 
L 379.699559 186.452911 
L 379.699559 182.620515 
L 379.979245 182.620515 
L 379.979245 178.788119 
L 380.641808 178.788119 
L 380.641808 174.955723 
L 381.440465 174.955723 
L 381.440465 171.123327 
L 383.793417 171.123327 
L 383.793417 167.290931 
L 384.920174 167.290931 
L 384.920174 163.458535 
L 385.170861 163.458535 
L 385.170861 159.626139 
L 388.085788 159.626139 
L 388.085788 155.793743 
L 392.973233 155.793743 
L 392.973233 151.961347 
L 402.099682 151.961347 
L 402.099682 148.12895 
L 402.99518 148.12895 
L 402.99518 144.296554 
L 407.721553 144.296554 
L 407.721553 140.464158 
L 409.588922 140.464158 
L 409.588922 136.631762 
L 410.142625 136.631762 
L 410.142625 132.799366 
L 425.730135 132.799366 
L 425.730135 128.96697 
L 427.120306 128.96697 
L 427.120306 125.134574 
L 427.639551 125.134574 
L 427.639551 121.302178 
L 427.839369 121.302178 
L 427.839369 117.469782 
L 439.921768 117.469782 
L 439.921768 113.637386 
L 439.958103 113.637386 
L 439.958103 109.80499 
L 441.140037 109.80499 
L 441.140037 105.972594 
L 441.140037 105.972594 
L 441.140037 105.972594 
L 460.8 105.972594 
" clip-path="url(#pdf75782d9b)" style="fill: none; stroke: #00bfbf; stroke-width: 1.5; stroke-linecap: square"/>
   </g>
   <g id="line2d_114">
    <defs>
     <path id="md59fa2d2b8" d="M 0 14.142136 
L 8.485281 0 
L 0 -14.142136 
L -8.485281 0 
z
" style="stroke: #00bfbf; stroke-width: 1.5; stroke-linejoin: miter"/>
    </defs>
    <g clip-path="url(#pdf75782d9b)">
     <use xlink:href="#md59fa2d2b8" x="304.500312" y="278.430416" style="fill-opacity: 0; stroke: #00bfbf; stroke-width: 1.5; stroke-linejoin: miter"/>
     <use xlink:href="#md59fa2d2b8" x="360.224932" y="240.106455" style="fill-opacity: 0; stroke: #00bfbf; stroke-width: 1.5; stroke-linejoin: miter"/>
     <use xlink:href="#md59fa2d2b8" x="379.699559" y="186.452911" style="fill-opacity: 0; stroke: #00bfbf; stroke-width: 1.5; stroke-linejoin: miter"/>
     <use xlink:href="#md59fa2d2b8" x="427.120306" y="128.96697" style="fill-opacity: 0; stroke: #00bfbf; stroke-width: 1.5; stroke-linejoin: miter"/>
     <use xlink:href="#md59fa2d2b8" x="441.140037" y="105.972594" style="fill-opacity: 0; stroke: #00bfbf; stroke-width: 1.5; stroke-linejoin: miter"/>
    </g>
   </g>
   <g id="line2d_115">
    <path clip-path="url(#pdf75782d9b)" style="fill: none; stroke: #00bfbf; stroke-width: 1.5; stroke-linecap: square"/>
    <g clip-path="url(#pdf75782d9b)">
     <use xlink:href="#md59fa2d2b8" x="-1" y="581.189703" style="fill-opacity: 0; stroke: #00bfbf; stroke-width: 1.5; stroke-linejoin: miter"/>
     <use xlink:href="#md59fa2d2b8" x="460.8" y="581.189703" style="fill-opacity: 0; stroke: #00bfbf; stroke-width: 1.5; stroke-linejoin: miter"/>
    </g>
   </g>
   <g id="line2d_116">
    <path d="M 237.362277 293.76 
L 237.362277 289.927604 
L 248.600888 289.927604 
L 248.600888 286.095208 
L 253.027819 286.095208 
L 253.027819 282.262812 
L 254.451796 282.262812 
L 254.451796 278.430416 
L 257.580108 278.430416 
L 257.580108 274.59802 
L 263.317962 274.59802 
L 263.317962 270.765624 
L 267.511529 270.765624 
L 267.511529 266.933228 
L 270.245155 266.933228 
L 270.245155 263.100832 
L 306.113391 263.100832 
L 306.113391 259.268436 
L 306.541789 259.268436 
L 306.541789 255.43604 
L 308.778326 255.43604 
L 308.778326 251.603644 
L 309.123204 251.603644 
L 309.123204 247.771248 
L 309.216172 247.771248 
L 309.216172 243.938851 
L 311.131187 243.938851 
L 311.131187 240.106455 
L 311.17171 240.106455 
L 311.17171 236.274059 
L 311.295908 236.274059 
L 311.295908 232.441663 
L 312.109058 232.441663 
L 312.109058 228.609267 
L 312.750157 228.609267 
L 312.750157 224.776871 
L 312.861047 224.776871 
L 312.861047 220.944475 
L 313.274052 220.944475 
L 313.274052 217.112079 
L 315.383858 217.112079 
L 315.383858 213.279683 
L 315.721902 213.279683 
L 315.721902 209.447287 
L 319.640604 209.447287 
L 319.640604 205.614891 
L 322.168244 205.614891 
L 322.168244 201.782495 
L 349.816875 201.782495 
L 349.816875 197.950099 
L 350.410178 197.950099 
L 350.410178 194.117703 
L 360.163341 194.117703 
L 360.163341 190.285307 
L 366.271043 190.285307 
L 366.271043 186.452911 
L 371.51153 186.452911 
L 371.51153 182.620515 
L 381.71076 182.620515 
L 381.71076 178.788119 
L 385.507779 178.788119 
L 385.507779 174.955723 
L 390.048966 174.955723 
L 390.048966 171.123327 
L 392.30403 171.123327 
L 392.30403 167.290931 
L 395.594008 167.290931 
L 395.594008 163.458535 
L 399.673241 163.458535 
L 399.673241 159.626139 
L 400.615608 159.626139 
L 400.615608 155.793743 
L 411.288945 155.793743 
L 411.288945 151.961347 
L 412.229728 151.961347 
L 412.229728 148.12895 
L 417.297113 148.12895 
L 417.297113 144.296554 
L 417.297113 144.296554 
L 417.297113 144.296554 
L 460.8 144.296554 
" clip-path="url(#pdf75782d9b)" style="fill: none; stroke: #00bfbf; stroke-width: 1.5; stroke-linecap: square"/>
   </g>
   <g id="line2d_117">
    <defs>
     <path id="me0a44ca087" d="M 0 7.5 
C 1.989023 7.5 3.896849 6.709753 5.303301 5.303301 
C 6.709753 3.896849 7.5 1.989023 7.5 0 
C 7.5 -1.989023 6.709753 -3.896849 5.303301 -5.303301 
C 3.896849 -6.709753 1.989023 -7.5 0 -7.5 
C -1.989023 -7.5 -3.896849 -6.709753 -5.303301 -5.303301 
C -6.709753 -3.896849 -7.5 -1.989023 -7.5 0 
C -7.5 1.989023 -6.709753 3.896849 -5.303301 5.303301 
C -3.896849 6.709753 -1.989023 7.5 0 7.5 
z
" style="stroke: #00bfbf; stroke-width: 1.5"/>
    </defs>
    <g clip-path="url(#pdf75782d9b)">
     <use xlink:href="#me0a44ca087" x="270.245155" y="266.933228" style="fill-opacity: 0; stroke: #00bfbf; stroke-width: 1.5"/>
     <use xlink:href="#me0a44ca087" x="349.816875" y="201.782495" style="fill-opacity: 0; stroke: #00bfbf; stroke-width: 1.5"/>
     <use xlink:href="#me0a44ca087" x="390.048966" y="174.955723" style="fill-opacity: 0; stroke: #00bfbf; stroke-width: 1.5"/>
     <use xlink:href="#me0a44ca087" x="417.297113" y="148.12895" style="fill-opacity: 0; stroke: #00bfbf; stroke-width: 1.5"/>
     <use xlink:href="#me0a44ca087" x="417.297113" y="144.296554" style="fill-opacity: 0; stroke: #00bfbf; stroke-width: 1.5"/>
    </g>
   </g>
   <g id="line2d_118">
    <path clip-path="url(#pdf75782d9b)" style="fill: none; stroke: #00bfbf; stroke-width: 1.5; stroke-linecap: square"/>
   </g>
   <g id="line2d_119">
    <path d="M 272.547884 293.76 
L 272.547884 289.927604 
L 312.039829 289.927604 
L 312.039829 286.095208 
L 313.949964 286.095208 
L 313.949964 282.262812 
L 314.425942 282.262812 
L 314.425942 278.430416 
L 316.749782 278.430416 
L 316.749782 274.59802 
L 316.832232 274.59802 
L 316.832232 270.765624 
L 317.777608 270.765624 
L 317.777608 266.933228 
L 320.218407 266.933228 
L 320.218407 263.100832 
L 325.320339 263.100832 
L 325.320339 259.268436 
L 327.622744 259.268436 
L 327.622744 255.43604 
L 351.280974 255.43604 
L 351.280974 251.603644 
L 353.763935 251.603644 
L 353.763935 247.771248 
L 356.555776 247.771248 
L 356.555776 243.938851 
L 363.55967 243.938851 
L 363.55967 240.106455 
L 364.245205 240.106455 
L 364.245205 236.274059 
L 364.573734 236.274059 
L 364.573734 232.441663 
L 366.502568 232.441663 
L 366.502568 228.609267 
L 366.890544 228.609267 
L 366.890544 224.776871 
L 368.847239 224.776871 
L 368.847239 220.944475 
L 370.471319 220.944475 
L 370.471319 217.112079 
L 372.183068 217.112079 
L 372.183068 213.279683 
L 374.328298 213.279683 
L 374.328298 209.447287 
L 378.089394 209.447287 
L 378.089394 205.614891 
L 378.166291 205.614891 
L 378.166291 201.782495 
L 379.150685 201.782495 
L 379.150685 197.950099 
L 379.489663 197.950099 
L 379.489663 194.117703 
L 380.060836 194.117703 
L 380.060836 190.285307 
L 381.038543 190.285307 
L 381.038543 186.452911 
L 381.63353 186.452911 
L 381.63353 182.620515 
L 382.204916 182.620515 
L 382.204916 178.788119 
L 382.685843 178.788119 
L 382.685843 174.955723 
L 385.102406 174.955723 
L 385.102406 171.123327 
L 387.544768 171.123327 
L 387.544768 167.290931 
L 388.309702 167.290931 
L 388.309702 163.458535 
L 388.50771 163.458535 
L 388.50771 159.626139 
L 390.009229 159.626139 
L 390.009229 155.793743 
L 394.679926 155.793743 
L 394.679926 151.961347 
L 404.531538 151.961347 
L 404.531538 148.12895 
L 407.607578 148.12895 
L 407.607578 144.296554 
L 410.790077 144.296554 
L 410.790077 140.464158 
L 412.178122 140.464158 
L 412.178122 136.631762 
L 413.877445 136.631762 
L 413.877445 132.799366 
L 427.939713 132.799366 
L 427.939713 128.96697 
L 427.990268 128.96697 
L 427.990268 125.134574 
L 429.950114 125.134574 
L 429.950114 121.302178 
L 429.950505 121.302178 
L 429.950505 117.469782 
L 440.779082 117.469782 
L 440.779082 113.637386 
L 440.83141 113.637386 
L 440.83141 109.80499 
L 440.83141 109.80499 
L 440.83141 109.80499 
L 460.8 109.80499 
" clip-path="url(#pdf75782d9b)" style="fill: none; stroke: #bf00bf; stroke-width: 1.5; stroke-linecap: square"/>
   </g>
   <g id="line2d_120">
    <defs>
     <path id="m2e9da24ea3" d="M 0 14.142136 
L 8.485281 0 
L 0 -14.142136 
L -8.485281 0 
z
" style="stroke: #bf00bf; stroke-width: 1.5; stroke-linejoin: miter"/>
    </defs>
    <g clip-path="url(#pdf75782d9b)">
     <use xlink:href="#m2e9da24ea3" x="320.218407" y="266.933228" style="fill-opacity: 0; stroke: #bf00bf; stroke-width: 1.5; stroke-linejoin: miter"/>
     <use xlink:href="#m2e9da24ea3" x="370.471319" y="220.944475" style="fill-opacity: 0; stroke: #bf00bf; stroke-width: 1.5; stroke-linejoin: miter"/>
     <use xlink:href="#m2e9da24ea3" x="429.950114" y="125.134574" style="fill-opacity: 0; stroke: #bf00bf; stroke-width: 1.5; stroke-linejoin: miter"/>
     <use xlink:href="#m2e9da24ea3" x="440.83141" y="109.80499" style="fill-opacity: 0; stroke: #bf00bf; stroke-width: 1.5; stroke-linejoin: miter"/>
    </g>
   </g>
   <g id="line2d_121">
    <path clip-path="url(#pdf75782d9b)" style="fill: none; stroke: #bf00bf; stroke-width: 1.5; stroke-linecap: square"/>
    <g clip-path="url(#pdf75782d9b)">
     <use xlink:href="#m2e9da24ea3" x="-1" y="581.189703" style="fill-opacity: 0; stroke: #bf00bf; stroke-width: 1.5; stroke-linejoin: miter"/>
     <use xlink:href="#m2e9da24ea3" x="460.8" y="581.189703" style="fill-opacity: 0; stroke: #bf00bf; stroke-width: 1.5; stroke-linejoin: miter"/>
    </g>
   </g>
   <g id="line2d_122">
    <path d="M 273.975254 293.76 
L 273.975254 289.927604 
L 274.783668 289.927604 
L 274.783668 286.095208 
L 278.169559 286.095208 
L 278.169559 282.262812 
L 279.418549 282.262812 
L 279.418549 278.430416 
L 279.501267 278.430416 
L 279.501267 274.59802 
L 282.045795 274.59802 
L 282.045795 270.765624 
L 284.169405 270.765624 
L 284.169405 266.933228 
L 287.268208 266.933228 
L 287.268208 263.100832 
L 314.913141 263.100832 
L 314.913141 259.268436 
L 315.238436 259.268436 
L 315.238436 255.43604 
L 316.477441 255.43604 
L 316.477441 251.603644 
L 316.700979 251.603644 
L 316.700979 247.771248 
L 317.28626 247.771248 
L 317.28626 243.938851 
L 318.313194 243.938851 
L 318.313194 240.106455 
L 318.577611 240.106455 
L 318.577611 236.274059 
L 318.714485 236.274059 
L 318.714485 232.441663 
L 318.862708 232.441663 
L 318.862708 228.609267 
L 318.939559 228.609267 
L 318.939559 224.776871 
L 319.756401 224.776871 
L 319.756401 220.944475 
L 320.150948 220.944475 
L 320.150948 217.112079 
L 321.699623 217.112079 
L 321.699623 213.279683 
L 322.222491 213.279683 
L 322.222491 209.447287 
L 325.218205 209.447287 
L 325.218205 205.614891 
L 328.001307 205.614891 
L 328.001307 201.782495 
L 354.397577 201.782495 
L 354.397577 197.950099 
L 355.234555 197.950099 
L 355.234555 194.117703 
L 364.016717 194.117703 
L 364.016717 190.285307 
L 369.161682 190.285307 
L 369.161682 186.452911 
L 373.378431 186.452911 
L 373.378431 182.620515 
L 385.623232 182.620515 
L 385.623232 178.788119 
L 387.413011 178.788119 
L 387.413011 174.955723 
L 393.487847 174.955723 
L 393.487847 171.123327 
L 394.933963 171.123327 
L 394.933963 167.290931 
L 397.421032 167.290931 
L 397.421032 163.458535 
L 401.178063 163.458535 
L 401.178063 159.626139 
L 401.947497 159.626139 
L 401.947497 155.793743 
L 414.112916 155.793743 
L 414.112916 151.961347 
L 415.09099 151.961347 
L 415.09099 148.12895 
L 419.615885 148.12895 
L 419.615885 144.296554 
L 419.615885 144.296554 
L 419.615885 144.296554 
L 460.8 144.296554 
" clip-path="url(#pdf75782d9b)" style="fill: none; stroke: #bf00bf; stroke-width: 1.5; stroke-linecap: square"/>
   </g>
   <g id="line2d_123">
    <defs>
     <path id="m3b68553c8f" d="M 0 7.5 
C 1.989023 7.5 3.896849 6.709753 5.303301 5.303301 
C 6.709753 3.896849 7.5 1.989023 7.5 0 
C 7.5 -1.989023 6.709753 -3.896849 5.303301 -5.303301 
C 3.896849 -6.709753 1.989023 -7.5 0 -7.5 
C -1.989023 -7.5 -3.896849 -6.709753 -5.303301 -5.303301 
C -6.709753 -3.896849 -7.5 -1.989023 -7.5 0 
C -7.5 1.989023 -6.709753 3.896849 -5.303301 5.303301 
C -3.896849 6.709753 -1.989023 7.5 0 7.5 
z
" style="stroke: #bf00bf; stroke-width: 1.5"/>
    </defs>
    <g clip-path="url(#pdf75782d9b)">
     <use xlink:href="#m3b68553c8f" x="318.313194" y="243.938851" style="fill-opacity: 0; stroke: #bf00bf; stroke-width: 1.5"/>
     <use xlink:href="#m3b68553c8f" x="354.397577" y="201.782495" style="fill-opacity: 0; stroke: #bf00bf; stroke-width: 1.5"/>
     <use xlink:href="#m3b68553c8f" x="415.09099" y="151.961347" style="fill-opacity: 0; stroke: #bf00bf; stroke-width: 1.5"/>
     <use xlink:href="#m3b68553c8f" x="419.615885" y="144.296554" style="fill-opacity: 0; stroke: #bf00bf; stroke-width: 1.5"/>
    </g>
   </g>
   <g id="line2d_124">
    <path clip-path="url(#pdf75782d9b)" style="fill: none; stroke: #bf00bf; stroke-width: 1.5; stroke-linecap: square"/>
   </g>
   <g id="line2d_125">
    <path d="M 289.681645 293.76 
L 289.681645 289.927604 
L 321.743561 289.927604 
L 321.743561 286.095208 
L 322.495809 286.095208 
L 322.495809 282.262812 
L 323.463083 282.262812 
L 323.463083 278.430416 
L 324.500648 278.430416 
L 324.500648 274.59802 
L 325.085625 274.59802 
L 325.085625 270.765624 
L 326.008121 270.765624 
L 326.008121 266.933228 
L 328.381708 266.933228 
L 328.381708 263.100832 
L 332.944917 263.100832 
L 332.944917 259.268436 
L 334.250172 259.268436 
L 334.250172 255.43604 
L 354.38259 255.43604 
L 354.38259 251.603644 
L 356.008771 251.603644 
L 356.008771 247.771248 
L 361.069098 247.771248 
L 361.069098 243.938851 
L 367.175784 243.938851 
L 367.175784 240.106455 
L 368.654681 240.106455 
L 368.654681 236.274059 
L 368.697914 236.274059 
L 368.697914 232.441663 
L 370.470703 232.441663 
L 370.470703 228.609267 
L 370.923975 228.609267 
L 370.923975 224.776871 
L 371.103067 224.776871 
L 371.103067 220.944475 
L 373.728983 220.944475 
L 373.728983 217.112079 
L 374.405614 217.112079 
L 374.405614 213.279683 
L 376.648599 213.279683 
L 376.648599 209.447287 
L 380.700555 209.447287 
L 380.700555 205.614891 
L 381.259436 205.614891 
L 381.259436 201.782495 
L 382.040904 201.782495 
L 382.040904 197.950099 
L 382.361682 197.950099 
L 382.361682 194.117703 
L 382.48182 194.117703 
L 382.48182 190.285307 
L 383.481598 190.285307 
L 383.481598 186.452911 
L 384.030167 186.452911 
L 384.030167 182.620515 
L 384.975462 182.620515 
L 384.975462 178.788119 
L 385.174427 178.788119 
L 385.174427 174.955723 
L 389.854141 174.955723 
L 389.854141 171.123327 
L 392.010478 171.123327 
L 392.010478 167.290931 
L 392.224002 167.290931 
L 392.224002 163.458535 
L 392.787423 163.458535 
L 392.787423 159.626139 
L 393.024203 159.626139 
L 393.024203 155.793743 
L 396.574614 155.793743 
L 396.574614 151.961347 
L 407.546075 151.961347 
L 407.546075 148.12895 
L 412.114814 148.12895 
L 412.114814 144.296554 
L 413.179907 144.296554 
L 413.179907 140.464158 
L 416.98774 140.464158 
L 416.98774 136.631762 
L 418.641504 136.631762 
L 418.641504 132.799366 
L 429.174073 132.799366 
L 429.174073 128.96697 
L 430.855812 128.96697 
L 430.855812 125.134574 
L 432.4171 125.134574 
L 432.4171 121.302178 
L 432.730155 121.302178 
L 432.730155 117.469782 
L 432.730155 117.469782 
L 432.730155 117.469782 
L 460.8 117.469782 
" clip-path="url(#pdf75782d9b)" style="fill: none; stroke: #ff0000; stroke-width: 3; stroke-linecap: square"/>
   </g>
   <g id="line2d_126">
    <defs>
     <path id="m37379ec1e5" d="M 0 14.142136 
L 8.485281 0 
L 0 -14.142136 
L -8.485281 0 
z
" style="stroke: #ff0000; stroke-width: 3; stroke-linejoin: miter"/>
    </defs>
    <g clip-path="url(#pdf75782d9b)">
     <use xlink:href="#m37379ec1e5" x="332.944917" y="263.100832" style="fill-opacity: 0; stroke: #ff0000; stroke-width: 3; stroke-linejoin: miter"/>
     <use xlink:href="#m37379ec1e5" x="384.975462" y="182.620515" style="fill-opacity: 0; stroke: #ff0000; stroke-width: 3; stroke-linejoin: miter"/>
     <use xlink:href="#m37379ec1e5" x="418.641504" y="136.631762" style="fill-opacity: 0; stroke: #ff0000; stroke-width: 3; stroke-linejoin: miter"/>
     <use xlink:href="#m37379ec1e5" x="432.730155" y="117.469782" style="fill-opacity: 0; stroke: #ff0000; stroke-width: 3; stroke-linejoin: miter"/>
    </g>
   </g>
   <g id="line2d_127">
    <path clip-path="url(#pdf75782d9b)" style="fill: none; stroke: #ff0000; stroke-width: 3; stroke-linecap: square"/>
    <g clip-path="url(#pdf75782d9b)">
     <use xlink:href="#m37379ec1e5" x="-1" y="581.189703" style="fill-opacity: 0; stroke: #ff0000; stroke-width: 3; stroke-linejoin: miter"/>
     <use xlink:href="#m37379ec1e5" x="460.8" y="581.189703" style="fill-opacity: 0; stroke: #ff0000; stroke-width: 3; stroke-linejoin: miter"/>
    </g>
   </g>
   <g id="line2d_128">
    <path d="M 292.308661 293.76 
L 292.308661 289.927604 
L 292.89804 289.927604 
L 292.89804 286.095208 
L 293.574767 286.095208 
L 293.574767 282.262812 
L 294.604758 282.262812 
L 294.604758 278.430416 
L 295.748654 278.430416 
L 295.748654 274.59802 
L 295.78541 274.59802 
L 295.78541 270.765624 
L 298.903168 270.765624 
L 298.903168 266.933228 
L 300.240262 266.933228 
L 300.240262 263.100832 
L 322.617257 263.100832 
L 322.617257 259.268436 
L 322.830203 259.268436 
L 322.830203 255.43604 
L 324.358381 255.43604 
L 324.358381 251.603644 
L 324.58025 251.603644 
L 324.58025 247.771248 
L 324.628136 247.771248 
L 324.628136 243.938851 
L 325.295332 243.938851 
L 325.295332 240.106455 
L 325.357321 240.106455 
L 325.357321 236.274059 
L 325.597332 236.274059 
L 325.597332 232.441663 
L 326.056219 232.441663 
L 326.056219 228.609267 
L 326.240199 228.609267 
L 326.240199 224.776871 
L 327.251815 224.776871 
L 327.251815 220.944475 
L 327.336347 220.944475 
L 327.336347 217.112079 
L 328.186413 217.112079 
L 328.186413 213.279683 
L 329.61805 213.279683 
L 329.61805 209.447287 
L 331.829781 209.447287 
L 331.829781 205.614891 
L 333.971115 205.614891 
L 333.971115 201.782495 
L 360.05845 201.782495 
L 360.05845 197.950099 
L 361.019489 197.950099 
L 361.019489 194.117703 
L 368.386779 194.117703 
L 368.386779 190.285307 
L 373.185026 190.285307 
L 373.185026 186.452911 
L 374.960854 186.452911 
L 374.960854 182.620515 
L 389.397666 182.620515 
L 389.397666 178.788119 
L 390.374175 178.788119 
L 390.374175 174.955723 
L 396.730723 174.955723 
L 396.730723 171.123327 
L 397.585728 171.123327 
L 397.585728 167.290931 
L 399.069263 167.290931 
L 399.069263 163.458535 
L 402.952989 163.458535 
L 402.952989 159.626139 
L 403.361465 159.626139 
L 403.361465 155.793743 
L 416.537553 155.793743 
L 416.537553 151.961347 
L 417.083844 151.961347 
L 417.083844 148.12895 
L 421.719237 148.12895 
L 421.719237 144.296554 
L 421.719237 144.296554 
L 421.719237 144.296554 
L 460.8 144.296554 
" clip-path="url(#pdf75782d9b)" style="fill: none; stroke: #ff0000; stroke-width: 3; stroke-linecap: square"/>
   </g>
   <g id="line2d_129">
    <defs>
     <path id="m595d0896b3" d="M 0 7.5 
C 1.989023 7.5 3.896849 6.709753 5.303301 5.303301 
C 6.709753 3.896849 7.5 1.989023 7.5 0 
C 7.5 -1.989023 6.709753 -3.896849 5.303301 -5.303301 
C 3.896849 -6.709753 1.989023 -7.5 0 -7.5 
C -1.989023 -7.5 -3.896849 -6.709753 -5.303301 -5.303301 
C -6.709753 -3.896849 -7.5 -1.989023 -7.5 0 
C -7.5 1.989023 -6.709753 3.896849 -5.303301 5.303301 
C -3.896849 6.709753 -1.989023 7.5 0 7.5 
z
" style="stroke: #ff0000; stroke-width: 3"/>
    </defs>
    <g clip-path="url(#pdf75782d9b)">
     <use xlink:href="#m595d0896b3" x="322.830203" y="259.268436" style="fill-opacity: 0; stroke: #ff0000; stroke-width: 3"/>
     <use xlink:href="#m595d0896b3" x="373.185026" y="190.285307" style="fill-opacity: 0; stroke: #ff0000; stroke-width: 3"/>
     <use xlink:href="#m595d0896b3" x="421.719237" y="148.12895" style="fill-opacity: 0; stroke: #ff0000; stroke-width: 3"/>
     <use xlink:href="#m595d0896b3" x="421.719237" y="144.296554" style="fill-opacity: 0; stroke: #ff0000; stroke-width: 3"/>
    </g>
   </g>
   <g id="line2d_130">
    <path clip-path="url(#pdf75782d9b)" style="fill: none; stroke: #ff0000; stroke-width: 3; stroke-linecap: square"/>
   </g>
   <g id="line2d_131">
    <path d="M 441.795735 293.76 
L 441.795735 3.456 
" clip-path="url(#pdf75782d9b)" style="fill: none; stroke: #000000; stroke-width: 1.5; stroke-linecap: square"/>
    <defs>
     <path id="m91018f5686" d="M -10 0 
L 10 0 
M 0 10 
L 0 -10 
" style="stroke: #000000; stroke-width: 3"/>
    </defs>
    <g clip-path="url(#pdf75782d9b)">
     <use xlink:href="#m91018f5686" x="441.795735" y="293.76" style="stroke: #000000; stroke-width: 3"/>
     <use xlink:href="#m91018f5686" x="441.795735" y="3.456" style="stroke: #000000; stroke-width: 3"/>
    </g>
   </g>
   <g id="line2d_132">
    <path d="M 441.817993 293.76 
L 441.817993 3.456 
" clip-path="url(#pdf75782d9b)" style="fill: none; stroke: #000000; stroke-width: 1.5; stroke-linecap: square"/>
    <defs>
     <path id="ma8194556e6" d="M 0 7.5 
C 1.989023 7.5 3.896849 6.709753 5.303301 5.303301 
C 6.709753 3.896849 7.5 1.989023 7.5 0 
C 7.5 -1.989023 6.709753 -3.896849 5.303301 -5.303301 
C 3.896849 -6.709753 1.989023 -7.5 0 -7.5 
C -1.989023 -7.5 -3.896849 -6.709753 -5.303301 -5.303301 
C -6.709753 -3.896849 -7.5 -1.989023 -7.5 0 
C -7.5 1.989023 -6.709753 3.896849 -5.303301 5.303301 
C -3.896849 6.709753 -1.989023 7.5 0 7.5 
z
" style="stroke: #000000; stroke-width: 3"/>
    </defs>
    <g clip-path="url(#pdf75782d9b)">
     <use xlink:href="#ma8194556e6" x="441.817993" y="293.76" style="fill-opacity: 0; stroke: #000000; stroke-width: 3"/>
     <use xlink:href="#ma8194556e6" x="441.817993" y="3.456" style="fill-opacity: 0; stroke: #000000; stroke-width: 3"/>
    </g>
   </g>
   <g id="patch_3">
    <path d="M 62.208 293.76 
L 62.208 3.456 
" style="fill: none; stroke: #000000; stroke-width: 0.8; stroke-linejoin: miter; stroke-linecap: square"/>
   </g>
   <g id="patch_4">
    <path d="M 460.8 293.76 
L 460.8 3.456 
" style="fill: none; stroke: #000000; stroke-width: 0.8; stroke-linejoin: miter; stroke-linecap: square"/>
   </g>
   <g id="patch_5">
    <path d="M 62.208 293.76 
L 460.8 293.76 
" style="fill: none; stroke: #000000; stroke-width: 0.8; stroke-linejoin: miter; stroke-linecap: square"/>
   </g>
   <g id="patch_6">
    <path d="M 62.208 3.456 
L 460.8 3.456 
" style="fill: none; stroke: #000000; stroke-width: 0.8; stroke-linejoin: miter; stroke-linecap: square"/>
   </g>
   <g id="text_12">
    <!-- f15-f19 -->
    <g transform="translate(225.405563 24.458955) scale(0.2 -0.2)">
     <defs>
      <path id="DejaVuSans-35" d="M 691 4666 
L 3169 4666 
L 3169 4134 
L 1269 4134 
L 1269 2991 
Q 1406 3038 1543 3061 
Q 1681 3084 1819 3084 
Q 2600 3084 3056 2656 
Q 3513 2228 3513 1497 
Q 3513 744 3044 326 
Q 2575 -91 1722 -91 
Q 1428 -91 1123 -41 
Q 819 9 494 109 
L 494 744 
Q 775 591 1075 516 
Q 1375 441 1709 441 
Q 2250 441 2565 725 
Q 2881 1009 2881 1497 
Q 2881 1984 2565 2268 
Q 2250 2553 1709 2553 
Q 1456 2553 1204 2497 
Q 953 2441 691 2322 
L 691 4666 
z
" transform="scale(0.015625)"/>
      <path id="DejaVuSans-2d" d="M 313 2009 
L 1997 2009 
L 1997 1497 
L 313 1497 
L 313 2009 
z
" transform="scale(0.015625)"/>
      <path id="DejaVuSans-39" d="M 703 97 
L 703 672 
Q 941 559 1184 500 
Q 1428 441 1663 441 
Q 2288 441 2617 861 
Q 2947 1281 2994 2138 
Q 2813 1869 2534 1725 
Q 2256 1581 1919 1581 
Q 1219 1581 811 2004 
Q 403 2428 403 3163 
Q 403 3881 828 4315 
Q 1253 4750 1959 4750 
Q 2769 4750 3195 4129 
Q 3622 3509 3622 2328 
Q 3622 1225 3098 567 
Q 2575 -91 1691 -91 
Q 1453 -91 1209 -44 
Q 966 3 703 97 
z
M 1959 2075 
Q 2384 2075 2632 2365 
Q 2881 2656 2881 3163 
Q 2881 3666 2632 3958 
Q 2384 4250 1959 4250 
Q 1534 4250 1286 3958 
Q 1038 3666 1038 3163 
Q 1038 2656 1286 2365 
Q 1534 2075 1959 2075 
z
" transform="scale(0.015625)"/>
     </defs>
     <use xlink:href="#DejaVuSans-66"/>
     <use xlink:href="#DejaVuSans-31" x="35.205078"/>
     <use xlink:href="#DejaVuSans-35" x="98.828125"/>
     <use xlink:href="#DejaVuSans-2d" x="162.451172"/>
     <use xlink:href="#DejaVuSans-66" x="198.535156"/>
     <use xlink:href="#DejaVuSans-31" x="233.740234"/>
     <use xlink:href="#DejaVuSans-39" x="297.363281"/>
    </g>
   </g>
   <g id="text_13">
    <!-- absolute targets -->
    <g transform="translate(62.208 608.591335) scale(0.14 -0.14)">
     <defs>
      <path id="DejaVuSans-62" d="M 3116 1747 
Q 3116 2381 2855 2742 
Q 2594 3103 2138 3103 
Q 1681 3103 1420 2742 
Q 1159 2381 1159 1747 
Q 1159 1113 1420 752 
Q 1681 391 2138 391 
Q 2594 391 2855 752 
Q 3116 1113 3116 1747 
z
M 1159 2969 
Q 1341 3281 1617 3432 
Q 1894 3584 2278 3584 
Q 2916 3584 3314 3078 
Q 3713 2572 3713 1747 
Q 3713 922 3314 415 
Q 2916 -91 2278 -91 
Q 1894 -91 1617 61 
Q 1341 213 1159 525 
L 1159 0 
L 581 0 
L 581 4863 
L 1159 4863 
L 1159 2969 
z
" transform="scale(0.015625)"/>
      <path id="DejaVuSans-75" d="M 544 1381 
L 544 3500 
L 1119 3500 
L 1119 1403 
Q 1119 906 1312 657 
Q 1506 409 1894 409 
Q 2359 409 2629 706 
Q 2900 1003 2900 1516 
L 2900 3500 
L 3475 3500 
L 3475 0 
L 2900 0 
L 2900 538 
Q 2691 219 2414 64 
Q 2138 -91 1772 -91 
Q 1169 -91 856 284 
Q 544 659 544 1381 
z
M 1991 3584 
L 1991 3584 
z
" transform="scale(0.015625)"/>
      <path id="DejaVuSans-65" d="M 3597 1894 
L 3597 1613 
L 953 1613 
Q 991 1019 1311 708 
Q 1631 397 2203 397 
Q 2534 397 2845 478 
Q 3156 559 3463 722 
L 3463 178 
Q 3153 47 2828 -22 
Q 2503 -91 2169 -91 
Q 1331 -91 842 396 
Q 353 884 353 1716 
Q 353 2575 817 3079 
Q 1281 3584 2069 3584 
Q 2775 3584 3186 3129 
Q 3597 2675 3597 1894 
z
M 3022 2063 
Q 3016 2534 2758 2815 
Q 2500 3097 2075 3097 
Q 1594 3097 1305 2825 
Q 1016 2553 972 2059 
L 3022 2063 
z
" transform="scale(0.015625)"/>
     </defs>
     <use xlink:href="#DejaVuSans-61"/>
     <use xlink:href="#DejaVuSans-62" x="61.279297"/>
     <use xlink:href="#DejaVuSans-73" x="124.755859"/>
     <use xlink:href="#DejaVuSans-6f" x="176.855469"/>
     <use xlink:href="#DejaVuSans-6c" x="238.037109"/>
     <use xlink:href="#DejaVuSans-75" x="265.820312"/>
     <use xlink:href="#DejaVuSans-74" x="329.199219"/>
     <use xlink:href="#DejaVuSans-65" x="368.408203"/>
     <use xlink:href="#DejaVuSans-20" x="429.931641"/>
     <use xlink:href="#DejaVuSans-74" x="461.71875"/>
     <use xlink:href="#DejaVuSans-61" x="500.927734"/>
     <use xlink:href="#DejaVuSans-72" x="562.207031"/>
     <use xlink:href="#DejaVuSans-67" x="601.570312"/>
     <use xlink:href="#DejaVuSans-65" x="665.046875"/>
     <use xlink:href="#DejaVuSans-74" x="726.570312"/>
     <use xlink:href="#DejaVuSans-73" x="765.779297"/>
    </g>
   </g>
   <g id="text_14">
    <!-- v2.6.3 -->
    <g style="fill: #808080" transform="translate(245.82275 288.777272) scale(0.1 -0.1)">
     <defs>
      <path id="DejaVuSans-33" d="M 2597 2516 
Q 3050 2419 3304 2112 
Q 3559 1806 3559 1356 
Q 3559 666 3084 287 
Q 2609 -91 1734 -91 
Q 1441 -91 1130 -33 
Q 819 25 488 141 
L 488 750 
Q 750 597 1062 519 
Q 1375 441 1716 441 
Q 2309 441 2620 675 
Q 2931 909 2931 1356 
Q 2931 1769 2642 2001 
Q 2353 2234 1838 2234 
L 1294 2234 
L 1294 2753 
L 1863 2753 
Q 2328 2753 2575 2939 
Q 2822 3125 2822 3475 
Q 2822 3834 2567 4026 
Q 2313 4219 1838 4219 
Q 1578 4219 1281 4162 
Q 984 4106 628 3988 
L 628 4550 
Q 988 4650 1302 4700 
Q 1616 4750 1894 4750 
Q 2613 4750 3031 4423 
Q 3450 4097 3450 3541 
Q 3450 3153 3228 2886 
Q 3006 2619 2597 2516 
z
" transform="scale(0.015625)"/>
     </defs>
     <use xlink:href="#DejaVuSans-76"/>
     <use xlink:href="#DejaVuSans-32" x="59.179688"/>
     <use xlink:href="#DejaVuSans-2e" x="122.802734"/>
     <use xlink:href="#DejaVuSans-36" x="154.589844"/>
     <use xlink:href="#DejaVuSans-2e" x="218.212891"/>
     <use xlink:href="#DejaVuSans-33" x="250"/>
    </g>
   </g>
   <g id="legend_1">
    <g id="patch_7">
     <path d="M 76.208 136.881 
L 160.148625 136.881 
Q 164.148625 136.881 164.148625 132.881 
L 164.148625 17.456 
Q 164.148625 13.456 160.148625 13.456 
L 76.208 13.456 
Q 72.208 13.456 72.208 17.456 
L 72.208 132.881 
Q 72.208 136.881 76.208 136.881 
z
" style="fill: #ffffff; opacity: 0.2; stroke: #cccccc; stroke-linejoin: miter"/>
    </g>
    <g id="line2d_133">
     <path d="M 80.208 29.652875 
L 80.208 29.652875 
L 100.208 29.652875 
L 100.208 29.652875 
L 120.208 29.652875 
" style="fill: none; stroke: #000000; stroke-width: 1.5; stroke-linecap: square"/>
    </g>
    <g id="text_15">
     <!-- 1 -->
     <g transform="translate(136.208 36.652875) scale(0.2 -0.2)">
      <use xlink:href="#DejaVuSans-31"/>
     </g>
    </g>
    <g id="line2d_134">
     <path d="M 80.208 59.009125 
L 80.208 59.009125 
L 100.208 59.009125 
L 100.208 59.009125 
L 120.208 59.009125 
" style="fill: none; stroke: #00bfbf; stroke-width: 1.5; stroke-linecap: square"/>
    </g>
    <g id="text_16">
     <!-- -1 -->
     <g transform="translate(136.208 66.009125) scale(0.2 -0.2)">
      <use xlink:href="#DejaVuSans-2d"/>
      <use xlink:href="#DejaVuSans-31" x="36.083984"/>
     </g>
    </g>
    <g id="line2d_135">
     <path d="M 80.208 88.365375 
L 80.208 88.365375 
L 100.208 88.365375 
L 100.208 88.365375 
L 120.208 88.365375 
" style="fill: none; stroke: #bf00bf; stroke-width: 1.5; stroke-linecap: square"/>
    </g>
    <g id="text_17">
     <!-- -4 -->
     <g transform="translate(136.208 95.365375) scale(0.2 -0.2)">
      <use xlink:href="#DejaVuSans-2d"/>
      <use xlink:href="#DejaVuSans-34" x="36.083984"/>
     </g>
    </g>
    <g id="line2d_136">
     <path d="M 80.208 117.721625 
L 80.208 117.721625 
L 100.208 117.721625 
L 100.208 117.721625 
L 120.208 117.721625 
" style="fill: none; stroke: #ff0000; stroke-width: 3; stroke-linecap: square"/>
    </g>
    <g id="text_18">
     <!-- -8 -->
     <g transform="translate(136.208 124.721625) scale(0.2 -0.2)">
      <use xlink:href="#DejaVuSans-2d"/>
      <use xlink:href="#DejaVuSans-38" x="36.083984"/>
     </g>
    </g>
   </g>
  </g>
 </g>
 <defs>
  <clipPath id="pdf75782d9b">
   <rect x="62.208" y="3.456" width="398.592" height="290.304"/>
  </clipPath>
 </defs>
</svg>
