<?xml version="1.0" encoding="utf-8" standalone="no"?>
<!DOCTYPE svg PUBLIC "-//W3C//DTD SVG 1.1//EN"
  "http://www.w3.org/Graphics/SVG/1.1/DTD/svg11.dtd">
<svg xmlns:xlink="http://www.w3.org/1999/xlink" width="460.8pt" height="345.6pt" viewBox="0 0 460.8 345.6" xmlns="http://www.w3.org/2000/svg" version="1.1">
 <metadata>
  <rdf:RDF xmlns:dc="http://purl.org/dc/elements/1.1/" xmlns:cc="http://creativecommons.org/ns#" xmlns:rdf="http://www.w3.org/1999/02/22-rdf-syntax-ns#">
   <cc:Work>
    <dc:type rdf:resource="http://purl.org/dc/dcmitype/StillImage"/>
    <dc:date>2024-06-07T13:52:58.759268</dc:date>
    <dc:format>image/svg+xml</dc:format>
    <dc:creator>
     <cc:Agent>
      <dc:title>Matplotlib v3.7.1, https://matplotlib.org/</dc:title>
     </cc:Agent>
    </dc:creator>
   </cc:Work>
  </rdf:RDF>
 </metadata>
 <defs>
  <style type="text/css">*{stroke-linejoin: round; stroke-linecap: butt}</style>
 </defs>
 <g id="figure_1">
  <g id="patch_1">
   <path d="M 0 345.6 
L 460.8 345.6 
L 460.8 0 
L 0 0 
z
" style="fill: #ffffff"/>
  </g>
  <g id="axes_1">
   <g id="patch_2">
    <path d="M 62.208 293.76 
L 460.8 293.76 
L 460.8 3.456 
L 62.208 3.456 
z
" style="fill: #ffffff"/>
   </g>
   <g id="line2d_1"/>
   <g id="line2d_2">
    <path d="M 331.350052 293.76 
L 331.350052 289.927604 
L 331.560513 289.927604 
L 331.560513 286.095208 
L 336.890041 286.095208 
L 336.890041 282.262812 
L 338.06885 282.262812 
L 338.06885 278.430416 
L 346.781431 278.430416 
L 346.781431 274.59802 
L 347.185437 274.59802 
L 347.185437 270.765624 
L 347.613186 270.765624 
L 347.613186 266.933228 
L 347.80332 266.933228 
L 347.80332 263.100832 
L 348.205558 263.100832 
L 348.205558 259.268436 
L 348.725981 259.268436 
L 348.725981 255.43604 
L 348.787829 255.43604 
L 348.787829 251.603644 
L 348.857695 251.603644 
L 348.857695 247.771248 
L 348.887444 247.771248 
L 348.887444 243.938851 
L 349.217459 243.938851 
L 349.217459 240.106455 
L 349.273703 240.106455 
L 349.273703 236.274059 
L 349.476566 236.274059 
L 349.476566 232.441663 
L 349.616872 232.441663 
L 349.616872 228.609267 
L 350.117555 228.609267 
L 350.117555 224.776871 
L 350.210644 224.776871 
L 350.210644 220.944475 
L 350.215867 220.944475 
L 350.215867 217.112079 
L 350.427322 217.112079 
L 350.427322 213.279683 
L 350.477151 213.279683 
L 350.477151 209.447287 
L 350.570924 209.447287 
L 350.570924 205.614891 
L 350.92221 205.614891 
L 350.92221 201.782495 
L 351.37027 201.782495 
L 351.37027 197.950099 
L 351.553282 197.950099 
L 351.553282 194.117703 
L 352.369157 194.117703 
L 352.369157 190.285307 
L 353.551967 190.285307 
L 353.551967 186.452911 
L 354.677056 186.452911 
L 354.677056 182.620515 
L 354.887532 182.620515 
L 354.887532 178.788119 
L 355.938663 178.788119 
L 355.938663 174.955723 
L 355.951256 174.955723 
L 355.951256 171.123327 
L 356.397871 171.123327 
L 356.397871 167.290931 
L 356.707302 167.290931 
L 356.707302 163.458535 
L 357.428391 163.458535 
L 357.428391 159.626139 
L 359.721263 159.626139 
L 359.721263 155.793743 
L 361.785939 155.793743 
L 361.785939 151.961347 
L 362.989103 151.961347 
L 362.989103 148.12895 
L 365.264455 148.12895 
L 365.264455 144.296554 
L 368.975823 144.296554 
L 368.975823 140.464158 
L 369.005263 140.464158 
L 369.005263 136.631762 
L 369.154673 136.631762 
L 369.154673 132.799366 
L 369.29144 132.799366 
L 369.29144 128.96697 
L 369.452389 128.96697 
L 369.452389 125.134574 
L 369.459344 125.134574 
L 369.459344 121.302178 
L 369.998294 121.302178 
L 369.998294 117.469782 
L 370.070227 117.469782 
L 370.070227 113.637386 
L 370.271298 113.637386 
L 370.271298 109.80499 
L 370.606236 109.80499 
L 370.606236 105.972594 
L 370.762991 105.972594 
L 370.762991 102.140198 
L 371.195925 102.140198 
L 371.195925 98.307802 
L 375.074602 98.307802 
L 375.074602 94.475406 
L 375.500875 94.475406 
L 375.500875 90.64301 
L 375.52301 90.64301 
L 375.52301 86.810614 
L 375.915783 86.810614 
L 375.915783 82.978218 
L 376.137368 82.978218 
L 376.137368 79.145822 
L 376.968523 79.145822 
L 376.968523 75.313426 
L 384.687388 75.313426 
L 384.687388 71.48103 
L 386.340902 71.48103 
L 386.340902 67.648634 
L 399.888478 67.648634 
L 399.888478 63.816238 
L 413.445382 63.816238 
L 413.445382 59.983842 
L 413.445382 59.983842 
L 413.445382 59.983842 
L 460.8 59.983842 
" clip-path="url(#p40666ebd12)" style="fill: none; stroke: #f5deb3; stroke-width: 1.5; stroke-linecap: square"/>
   </g>
   <g id="line2d_3"/>
   <g id="line2d_4"/>
   <g id="line2d_5">
    <path d="M 322.619403 293.76 
L 322.619403 289.927604 
L 323.855728 289.927604 
L 323.855728 286.095208 
L 325.311339 286.095208 
L 325.311339 282.262812 
L 325.63008 282.262812 
L 325.63008 278.430416 
L 325.973729 278.430416 
L 325.973729 274.59802 
L 331.72247 274.59802 
L 331.72247 270.765624 
L 332.064477 270.765624 
L 332.064477 266.933228 
L 332.522145 266.933228 
L 332.578454 259.268436 
L 332.760065 259.268436 
L 332.760065 255.43604 
L 332.998972 255.43604 
L 332.998972 251.603644 
L 333.117462 251.603644 
L 333.117462 247.771248 
L 333.356591 247.771248 
L 333.446488 240.106455 
L 333.667497 240.106455 
L 333.690815 232.441663 
L 334.098572 232.441663 
L 334.098572 228.609267 
L 336.487164 228.609267 
L 336.487164 224.776871 
L 337.401984 224.776871 
L 337.401984 220.944475 
L 338.136907 220.944475 
L 338.136907 217.112079 
L 338.89872 217.112079 
L 338.89872 213.279683 
L 339.40893 213.279683 
L 339.425543 205.614891 
L 339.629856 205.614891 
L 339.629856 201.782495 
L 340.525933 201.782495 
L 340.525933 197.950099 
L 341.323237 197.950099 
L 341.323237 194.117703 
L 341.745732 194.117703 
L 341.745732 190.285307 
L 346.068811 190.285307 
L 346.068811 186.452911 
L 347.928815 186.452911 
L 347.928815 182.620515 
L 349.520732 182.620515 
L 349.620585 174.955723 
L 349.96383 174.955723 
L 350.055719 163.458535 
L 350.083505 163.458535 
L 350.083505 159.626139 
L 350.228399 159.626139 
L 350.313927 151.961347 
L 350.528988 151.961347 
L 350.528988 148.12895 
L 350.655692 148.12895 
L 350.655692 144.296554 
L 350.889382 144.296554 
L 350.936564 136.631762 
L 351.145111 136.631762 
L 351.162948 128.96697 
L 351.652512 128.96697 
L 351.652512 125.134574 
L 354.110384 125.134574 
L 354.110384 121.302178 
L 355.213016 121.302178 
L 355.213016 117.469782 
L 355.428783 117.469782 
L 355.518935 109.80499 
L 355.57347 109.80499 
L 355.641982 98.307802 
L 355.737966 98.307802 
L 355.837769 90.64301 
L 355.921116 90.64301 
L 355.921116 86.810614 
L 356.270988 86.810614 
L 356.270988 82.978218 
L 356.629184 82.978218 
L 356.629184 79.145822 
L 357.558406 79.145822 
L 357.558406 75.313426 
L 358.014916 75.313426 
L 358.014916 71.48103 
L 358.250678 71.48103 
L 358.250678 67.648634 
L 359.141438 67.648634 
L 359.141438 63.816238 
L 418.042268 63.816238 
L 418.042268 59.983842 
L 419.457557 59.983842 
L 419.457557 56.151446 
L 419.694804 56.151446 
L 419.694804 52.31905 
L 420.19944 52.31905 
L 420.19944 48.486653 
L 436.484331 48.486653 
L 436.484331 44.654257 
L 439.637845 44.654257 
L 439.637845 40.821861 
L 440.263899 40.821861 
L 440.263899 36.989465 
L 441.038593 36.989465 
L 441.038593 33.157069 
L 442.077194 33.157069 
L 442.172421 25.492277 
L 442.320724 25.492277 
L 442.320724 21.659881 
L 443.508866 21.659881 
L 443.508866 17.827485 
L 445.022927 17.827485 
L 445.022927 13.995089 
L 445.827233 13.995089 
L 445.827233 10.162693 
L 452.095293 10.162693 
L 452.095293 6.330297 
L 452.095293 6.330297 
L 460.8 6.330297 
L 460.8 6.330297 
" clip-path="url(#p40666ebd12)" style="fill: none; stroke: #f5deb3; stroke-width: 1.5; stroke-linecap: square"/>
   </g>
   <g id="line2d_6">
    <path clip-path="url(#p40666ebd12)" style="fill: none; stroke: #f5deb3; stroke-width: 1.5; stroke-linecap: square"/>
   </g>
   <g id="line2d_7"/>
   <g id="line2d_8"/>
   <g id="line2d_9"/>
   <g id="line2d_10"/>
   <g id="line2d_11">
    <path clip-path="url(#p40666ebd12)" style="fill: none; stroke: #f5deb3; stroke-width: 1.5; stroke-linecap: square"/>
   </g>
   <g id="line2d_12"/>
   <g id="line2d_13">
    <path d="M 297.998054 293.76 
L 297.998054 289.927604 
L 299.179092 289.927604 
L 299.179092 286.095208 
L 304.458973 286.095208 
L 304.458973 282.262812 
L 305.037096 282.262812 
L 305.037096 278.430416 
L 306.766378 278.430416 
L 306.766378 274.59802 
L 307.457862 274.59802 
L 307.457862 270.765624 
L 308.576091 270.765624 
L 308.576091 266.933228 
L 310.977387 266.933228 
L 310.977387 263.100832 
L 312.966097 263.100832 
L 312.966097 259.268436 
L 314.24881 259.268436 
L 314.24881 255.43604 
L 315.328092 255.43604 
L 315.328092 251.603644 
L 318.297583 251.603644 
L 318.297583 247.771248 
L 319.18445 247.771248 
L 319.18445 243.938851 
L 323.013308 243.938851 
L 323.013308 240.106455 
L 323.06107 240.106455 
L 323.06107 236.274059 
L 365.548008 236.274059 
L 365.548008 232.441663 
L 369.8318 232.441663 
L 369.8318 228.609267 
L 370.087024 228.609267 
L 370.087024 224.776871 
L 370.680713 224.776871 
L 370.680713 220.944475 
L 373.048541 220.944475 
L 373.048541 217.112079 
L 373.604356 217.112079 
L 373.604356 213.279683 
L 374.335536 213.279683 
L 374.335536 209.447287 
L 374.342494 209.447287 
L 374.342494 205.614891 
L 374.899465 205.614891 
L 374.899465 201.782495 
L 374.985765 201.782495 
L 374.985765 197.950099 
L 376.4671 197.950099 
L 376.4671 194.117703 
L 376.619502 194.117703 
L 376.619502 190.285307 
L 376.759022 190.285307 
L 376.759022 186.452911 
L 376.779397 186.452911 
L 376.779397 182.620515 
L 377.03551 182.620515 
L 377.03551 178.788119 
L 377.136028 178.788119 
L 377.136028 174.955723 
L 378.550971 174.955723 
L 378.550971 171.123327 
L 378.756136 171.123327 
L 378.756136 167.290931 
L 378.782913 167.290931 
L 378.782913 163.458535 
L 379.202936 163.458535 
L 379.202936 159.626139 
L 379.307716 159.626139 
L 379.307716 155.793743 
L 382.440615 155.793743 
L 382.440615 151.961347 
L 382.992631 151.961347 
L 382.992631 148.12895 
L 383.257307 148.12895 
L 383.257307 144.296554 
L 383.566792 144.296554 
L 383.566792 140.464158 
L 384.282859 140.464158 
L 384.282859 136.631762 
L 385.303642 136.631762 
L 385.303642 132.799366 
L 385.883177 132.799366 
L 385.883177 128.96697 
L 386.136461 128.96697 
L 386.136461 125.134574 
L 387.066352 125.134574 
L 387.066352 121.302178 
L 387.066352 121.302178 
L 387.066352 121.302178 
L 460.8 121.302178 
" clip-path="url(#p40666ebd12)" style="fill: none; stroke: #f5deb3; stroke-width: 1.5; stroke-linecap: square"/>
   </g>
   <g id="line2d_14"/>
   <g id="line2d_15"/>
   <g id="line2d_16"/>
   <g id="line2d_17">
    <path d="M 358.948553 293.76 
L 358.948553 289.927604 
L 362.3289 289.927604 
L 362.3289 286.095208 
L 364.504009 286.095208 
L 364.504009 282.262812 
L 365.733098 282.262812 
L 365.833649 274.59802 
L 367.099546 274.59802 
L 367.099546 270.765624 
L 367.494535 270.765624 
L 367.580285 263.100832 
L 368.317149 263.100832 
L 368.317149 259.268436 
L 368.434536 259.268436 
L 368.434536 255.43604 
L 368.815428 255.43604 
L 368.828284 247.771248 
L 369.142244 247.771248 
L 369.147663 240.106455 
L 369.611091 240.106455 
L 369.611091 236.274059 
L 369.875289 236.274059 
L 369.875289 232.441663 
L 370.101015 232.441663 
L 370.101015 228.609267 
L 370.306253 228.609267 
L 370.306253 224.776871 
L 370.76574 224.776871 
L 370.76574 220.944475 
L 371.694762 220.944475 
L 371.694762 217.112079 
L 372.606165 217.112079 
L 372.606165 213.279683 
L 372.838701 213.279683 
L 372.838701 209.447287 
L 373.128766 209.447287 
L 373.128766 205.614891 
L 373.597547 205.614891 
L 373.597547 201.782495 
L 373.835163 201.782495 
L 373.835163 197.950099 
L 374.173756 197.950099 
L 374.173756 194.117703 
L 376.529185 194.117703 
L 376.5573 186.452911 
L 376.698355 186.452911 
L 376.760589 178.788119 
L 376.857922 178.788119 
L 376.857922 174.955723 
L 377.659726 174.955723 
L 377.71252 163.458535 
L 378.723135 163.458535 
L 378.723135 159.626139 
L 378.910096 159.626139 
L 378.951327 151.961347 
L 379.424886 151.961347 
L 379.424886 148.12895 
L 380.148952 148.12895 
L 380.148952 144.296554 
L 380.574929 144.296554 
L 380.574929 140.464158 
L 381.691467 140.464158 
L 381.691467 136.631762 
L 383.369397 136.631762 
L 383.369397 132.799366 
L 384.199459 132.799366 
L 384.199459 128.96697 
L 385.652248 128.96697 
L 385.652248 125.134574 
L 388.448627 125.134574 
L 388.448627 121.302178 
L 391.875978 121.302178 
L 391.875978 117.469782 
L 392.941385 117.469782 
L 392.941385 113.637386 
L 393.850551 113.637386 
L 393.850551 109.80499 
L 394.085196 109.80499 
L 394.085196 105.972594 
L 395.403964 105.972594 
L 395.403964 102.140198 
L 396.1253 102.140198 
L 396.1253 98.307802 
L 396.793206 98.307802 
L 396.886354 86.810614 
L 397.688778 86.810614 
L 397.688778 82.978218 
L 398.730837 82.978218 
L 398.730837 79.145822 
L 398.928273 79.145822 
L 398.928273 75.313426 
L 399.661168 75.313426 
L 399.745312 67.648634 
L 402.000141 67.648634 
L 402.000141 63.816238 
L 404.036278 63.816238 
L 404.036278 59.983842 
L 405.205891 59.983842 
L 405.205891 56.151446 
L 407.91362 56.151446 
L 407.91362 52.31905 
L 413.630335 52.31905 
L 413.630335 48.486653 
L 414.097335 48.486653 
L 414.106902 40.821861 
L 416.032159 40.821861 
L 416.032159 36.989465 
L 416.960473 36.989465 
L 417.042855 29.324673 
L 417.250085 29.324673 
L 417.288311 21.659881 
L 417.942117 21.659881 
L 417.943366 13.995089 
L 420.229121 13.995089 
L 420.229121 10.162693 
L 420.652739 10.162693 
L 420.652739 6.330297 
L 420.652739 6.330297 
L 460.8 6.330297 
L 460.8 6.330297 
" clip-path="url(#p40666ebd12)" style="fill: none; stroke: #f5deb3; stroke-width: 1.5; stroke-linecap: square"/>
   </g>
   <g id="line2d_18">
    <path d="M 332.340233 293.76 
L 332.340233 289.927604 
L 335.447996 289.927604 
L 335.447996 286.095208 
L 336.882646 286.095208 
L 336.882646 282.262812 
L 339.615397 282.262812 
L 339.615397 278.430416 
L 340.090377 278.430416 
L 340.090377 274.59802 
L 340.097858 274.59802 
L 340.097858 270.765624 
L 342.882399 270.765624 
L 342.882399 266.933228 
L 346.966063 266.933228 
L 346.966063 263.100832 
L 347.002429 263.100832 
L 347.002429 259.268436 
L 354.860708 259.268436 
L 354.860708 255.43604 
L 356.323573 255.43604 
L 356.323573 251.603644 
L 357.367336 251.603644 
L 357.367336 247.771248 
L 358.430663 247.771248 
L 358.430663 243.938851 
L 362.775189 243.938851 
L 362.775189 240.106455 
L 364.112056 240.106455 
L 364.112056 236.274059 
L 396.625062 236.274059 
L 396.625062 232.441663 
L 397.661375 232.441663 
L 397.661375 228.609267 
L 398.636018 228.609267 
L 398.636018 224.776871 
L 398.833795 224.776871 
L 398.833795 220.944475 
L 399.054077 220.944475 
L 399.054077 217.112079 
L 399.193587 217.112079 
L 399.193587 213.279683 
L 399.301116 213.279683 
L 399.301116 209.447287 
L 399.315624 209.447287 
L 399.315624 205.614891 
L 399.445514 205.614891 
L 399.445514 201.782495 
L 400.538834 201.782495 
L 400.538834 197.950099 
L 401.239361 197.950099 
L 401.239361 194.117703 
L 402.422588 194.117703 
L 402.422588 190.285307 
L 402.83699 190.285307 
L 402.83699 186.452911 
L 403.239496 186.452911 
L 403.239496 182.620515 
L 404.801121 182.620515 
L 404.801121 178.788119 
L 404.801121 178.788119 
L 404.801121 178.788119 
L 460.8 178.788119 
" clip-path="url(#p40666ebd12)" style="fill: none; stroke: #f5deb3; stroke-width: 1.5; stroke-linecap: square"/>
   </g>
   <g id="line2d_19">
    <path d="M 336.391399 293.76 
L 336.391399 289.927604 
L 336.645996 289.927604 
L 336.755972 282.262812 
L 336.836025 282.262812 
L 336.897435 274.59802 
L 337.107552 274.59802 
L 337.107552 270.765624 
L 337.284336 270.765624 
L 337.309943 263.100832 
L 337.745545 263.100832 
L 337.745545 259.268436 
L 337.858183 259.268436 
L 337.858183 255.43604 
L 337.984866 255.43604 
L 338.064547 247.771248 
L 338.429248 247.771248 
L 338.429248 243.938851 
L 338.886088 243.938851 
L 338.886088 240.106455 
L 339.39785 240.106455 
L 339.39785 236.274059 
L 343.759538 236.274059 
L 343.759538 232.441663 
L 343.99861 232.441663 
L 343.99861 228.609267 
L 344.486276 228.609267 
L 344.486276 224.776871 
L 344.63216 224.776871 
L 344.63216 220.944475 
L 344.743769 220.944475 
L 344.743769 217.112079 
L 346.212283 217.112079 
L 346.220978 209.447287 
L 346.348288 209.447287 
L 346.458474 201.782495 
L 346.675608 201.782495 
L 346.675608 197.950099 
L 346.933646 197.950099 
L 346.933646 194.117703 
L 347.048972 194.117703 
L 347.048972 190.285307 
L 347.4788 190.285307 
L 347.4788 186.452911 
L 348.832255 186.452911 
L 348.832255 182.620515 
L 349.085902 182.620515 
L 349.085902 178.788119 
L 349.291898 178.788119 
L 349.291898 174.955723 
L 350.820041 174.955723 
L 350.820041 171.123327 
L 351.790602 171.123327 
L 351.790602 167.290931 
L 352.237599 167.290931 
L 352.237599 163.458535 
L 352.502726 163.458535 
L 352.510597 155.793743 
L 352.827063 155.793743 
L 352.827063 151.961347 
L 353.212969 151.961347 
L 353.212969 148.12895 
L 353.469538 148.12895 
L 353.476254 140.464158 
L 353.682915 140.464158 
L 353.682915 136.631762 
L 353.867582 136.631762 
L 353.867582 132.799366 
L 354.496258 132.799366 
L 354.496258 128.96697 
L 354.83479 128.96697 
L 354.83479 125.134574 
L 355.678231 125.134574 
L 355.678231 121.302178 
L 366.592266 121.302178 
L 366.592266 117.469782 
L 366.830329 117.469782 
L 366.830329 113.637386 
L 369.257135 113.637386 
L 369.362493 105.972594 
L 371.267156 105.972594 
L 371.267156 102.140198 
L 371.470459 102.140198 
L 371.470459 98.307802 
L 371.721889 98.307802 
L 371.789472 90.64301 
L 372.0338 90.64301 
L 372.109687 82.978218 
L 372.47958 82.978218 
L 372.47958 79.145822 
L 372.790626 79.145822 
L 372.790626 75.313426 
L 374.387551 75.313426 
L 374.387551 71.48103 
L 375.465758 71.48103 
L 375.465758 67.648634 
L 376.292143 67.648634 
L 376.388296 59.983842 
L 376.560977 59.983842 
L 376.669557 48.486653 
L 377.670189 48.486653 
L 377.670189 44.654257 
L 378.204807 44.654257 
L 378.240269 36.989465 
L 378.344701 36.989465 
L 378.417084 29.324673 
L 378.536506 29.324673 
L 378.536506 25.492277 
L 378.968103 25.492277 
L 378.968103 21.659881 
L 379.466541 21.659881 
L 379.558461 13.995089 
L 381.949051 13.995089 
L 381.949051 10.162693 
L 387.256568 10.162693 
L 387.256568 6.330297 
L 387.256568 6.330297 
L 460.8 6.330297 
L 460.8 6.330297 
" clip-path="url(#p40666ebd12)" style="fill: none; stroke: #f5deb3; stroke-width: 1.5; stroke-linecap: square"/>
   </g>
   <g id="line2d_20"/>
   <g id="matplotlib.axis_1">
    <g id="xtick_1">
     <g id="line2d_21">
      <path d="M 62.208 293.76 
L 62.208 3.456 
" clip-path="url(#p40666ebd12)" style="fill: none; stroke: #b0b0b0; stroke-width: 0.8; stroke-linecap: square"/>
     </g>
     <g id="line2d_22">
      <defs>
       <path id="m4190493287" d="M 0 0 
L 0 3.5 
" style="stroke: #000000; stroke-width: 0.8"/>
      </defs>
      <g>
       <use xlink:href="#m4190493287" x="62.208" y="293.76" style="stroke: #000000; stroke-width: 0.8"/>
      </g>
     </g>
     <g id="text_1">
      <!-- 0 -->
      <g transform="translate(55.8455 315.956875) scale(0.2 -0.2)">
       <defs>
        <path id="DejaVuSans-30" d="M 2034 4250 
Q 1547 4250 1301 3770 
Q 1056 3291 1056 2328 
Q 1056 1369 1301 889 
Q 1547 409 2034 409 
Q 2525 409 2770 889 
Q 3016 1369 3016 2328 
Q 3016 3291 2770 3770 
Q 2525 4250 2034 4250 
z
M 2034 4750 
Q 2819 4750 3233 4129 
Q 3647 3509 3647 2328 
Q 3647 1150 3233 529 
Q 2819 -91 2034 -91 
Q 1250 -91 836 529 
Q 422 1150 422 2328 
Q 422 3509 836 4129 
Q 1250 4750 2034 4750 
z
" transform="scale(0.015625)"/>
       </defs>
       <use xlink:href="#DejaVuSans-30"/>
      </g>
     </g>
    </g>
    <g id="xtick_2">
     <g id="line2d_23">
      <path d="M 238.707888 293.76 
L 238.707888 3.456 
" clip-path="url(#p40666ebd12)" style="fill: none; stroke: #b0b0b0; stroke-width: 0.8; stroke-linecap: square"/>
     </g>
     <g id="line2d_24">
      <g>
       <use xlink:href="#m4190493287" x="238.707888" y="293.76" style="stroke: #000000; stroke-width: 0.8"/>
      </g>
     </g>
     <g id="text_2">
      <!-- 2 -->
      <g transform="translate(232.345388 315.956875) scale(0.2 -0.2)">
       <defs>
        <path id="DejaVuSans-32" d="M 1228 531 
L 3431 531 
L 3431 0 
L 469 0 
L 469 531 
Q 828 903 1448 1529 
Q 2069 2156 2228 2338 
Q 2531 2678 2651 2914 
Q 2772 3150 2772 3378 
Q 2772 3750 2511 3984 
Q 2250 4219 1831 4219 
Q 1534 4219 1204 4116 
Q 875 4013 500 3803 
L 500 4441 
Q 881 4594 1212 4672 
Q 1544 4750 1819 4750 
Q 2544 4750 2975 4387 
Q 3406 4025 3406 3419 
Q 3406 3131 3298 2873 
Q 3191 2616 2906 2266 
Q 2828 2175 2409 1742 
Q 1991 1309 1228 531 
z
" transform="scale(0.015625)"/>
       </defs>
       <use xlink:href="#DejaVuSans-32"/>
      </g>
     </g>
    </g>
    <g id="xtick_3">
     <g id="line2d_25">
      <path d="M 415.207776 293.76 
L 415.207776 3.456 
" clip-path="url(#p40666ebd12)" style="fill: none; stroke: #b0b0b0; stroke-width: 0.8; stroke-linecap: square"/>
     </g>
     <g id="line2d_26">
      <g>
       <use xlink:href="#m4190493287" x="415.207776" y="293.76" style="stroke: #000000; stroke-width: 0.8"/>
      </g>
     </g>
     <g id="text_3">
      <!-- 4 -->
      <g transform="translate(408.845276 315.956875) scale(0.2 -0.2)">
       <defs>
        <path id="DejaVuSans-34" d="M 2419 4116 
L 825 1625 
L 2419 1625 
L 2419 4116 
z
M 2253 4666 
L 3047 4666 
L 3047 1625 
L 3713 1625 
L 3713 1100 
L 3047 1100 
L 3047 0 
L 2419 0 
L 2419 1100 
L 313 1100 
L 313 1709 
L 2253 4666 
z
" transform="scale(0.015625)"/>
       </defs>
       <use xlink:href="#DejaVuSans-34"/>
      </g>
     </g>
    </g>
    <g id="xtick_4">
     <g id="line2d_27">
      <path d="M 88.77388 293.76 
L 88.77388 3.456 
" clip-path="url(#p40666ebd12)" style="fill: none; stroke: #b0b0b0; stroke-width: 0.8; stroke-linecap: square"/>
     </g>
     <g id="line2d_28">
      <defs>
       <path id="m20468d486c" d="M 0 0 
L 0 2 
" style="stroke: #000000; stroke-width: 0.6"/>
      </defs>
      <g>
       <use xlink:href="#m20468d486c" x="88.77388" y="293.76" style="stroke: #000000; stroke-width: 0.6"/>
      </g>
     </g>
    </g>
    <g id="xtick_5">
     <g id="line2d_29">
      <path d="M 104.313924 293.76 
L 104.313924 3.456 
" clip-path="url(#p40666ebd12)" style="fill: none; stroke: #b0b0b0; stroke-width: 0.8; stroke-linecap: square"/>
     </g>
     <g id="line2d_30">
      <g>
       <use xlink:href="#m20468d486c" x="104.313924" y="293.76" style="stroke: #000000; stroke-width: 0.6"/>
      </g>
     </g>
    </g>
    <g id="xtick_6">
     <g id="line2d_31">
      <path d="M 115.33976 293.76 
L 115.33976 3.456 
" clip-path="url(#p40666ebd12)" style="fill: none; stroke: #b0b0b0; stroke-width: 0.8; stroke-linecap: square"/>
     </g>
     <g id="line2d_32">
      <g>
       <use xlink:href="#m20468d486c" x="115.33976" y="293.76" style="stroke: #000000; stroke-width: 0.6"/>
      </g>
     </g>
    </g>
    <g id="xtick_7">
     <g id="line2d_33">
      <path d="M 123.892064 293.76 
L 123.892064 3.456 
" clip-path="url(#p40666ebd12)" style="fill: none; stroke: #b0b0b0; stroke-width: 0.8; stroke-linecap: square"/>
     </g>
     <g id="line2d_34">
      <g>
       <use xlink:href="#m20468d486c" x="123.892064" y="293.76" style="stroke: #000000; stroke-width: 0.6"/>
      </g>
     </g>
    </g>
    <g id="xtick_8">
     <g id="line2d_35">
      <path d="M 130.879804 293.76 
L 130.879804 3.456 
" clip-path="url(#p40666ebd12)" style="fill: none; stroke: #b0b0b0; stroke-width: 0.8; stroke-linecap: square"/>
     </g>
     <g id="line2d_36">
      <g>
       <use xlink:href="#m20468d486c" x="130.879804" y="293.76" style="stroke: #000000; stroke-width: 0.6"/>
      </g>
     </g>
    </g>
    <g id="xtick_9">
     <g id="line2d_37">
      <path d="M 136.787855 293.76 
L 136.787855 3.456 
" clip-path="url(#p40666ebd12)" style="fill: none; stroke: #b0b0b0; stroke-width: 0.8; stroke-linecap: square"/>
     </g>
     <g id="line2d_38">
      <g>
       <use xlink:href="#m20468d486c" x="136.787855" y="293.76" style="stroke: #000000; stroke-width: 0.6"/>
      </g>
     </g>
    </g>
    <g id="xtick_10">
     <g id="line2d_39">
      <path d="M 141.905641 293.76 
L 141.905641 3.456 
" clip-path="url(#p40666ebd12)" style="fill: none; stroke: #b0b0b0; stroke-width: 0.8; stroke-linecap: square"/>
     </g>
     <g id="line2d_40">
      <g>
       <use xlink:href="#m20468d486c" x="141.905641" y="293.76" style="stroke: #000000; stroke-width: 0.6"/>
      </g>
     </g>
    </g>
    <g id="xtick_11">
     <g id="line2d_41">
      <path d="M 146.419848 293.76 
L 146.419848 3.456 
" clip-path="url(#p40666ebd12)" style="fill: none; stroke: #b0b0b0; stroke-width: 0.8; stroke-linecap: square"/>
     </g>
     <g id="line2d_42">
      <g>
       <use xlink:href="#m20468d486c" x="146.419848" y="293.76" style="stroke: #000000; stroke-width: 0.6"/>
      </g>
     </g>
    </g>
    <g id="xtick_12">
     <g id="line2d_43">
      <path d="M 177.023824 293.76 
L 177.023824 3.456 
" clip-path="url(#p40666ebd12)" style="fill: none; stroke: #b0b0b0; stroke-width: 0.8; stroke-linecap: square"/>
     </g>
     <g id="line2d_44">
      <g>
       <use xlink:href="#m20468d486c" x="177.023824" y="293.76" style="stroke: #000000; stroke-width: 0.6"/>
      </g>
     </g>
    </g>
    <g id="xtick_13">
     <g id="line2d_45">
      <path d="M 192.563868 293.76 
L 192.563868 3.456 
" clip-path="url(#p40666ebd12)" style="fill: none; stroke: #b0b0b0; stroke-width: 0.8; stroke-linecap: square"/>
     </g>
     <g id="line2d_46">
      <g>
       <use xlink:href="#m20468d486c" x="192.563868" y="293.76" style="stroke: #000000; stroke-width: 0.6"/>
      </g>
     </g>
    </g>
    <g id="xtick_14">
     <g id="line2d_47">
      <path d="M 203.589704 293.76 
L 203.589704 3.456 
" clip-path="url(#p40666ebd12)" style="fill: none; stroke: #b0b0b0; stroke-width: 0.8; stroke-linecap: square"/>
     </g>
     <g id="line2d_48">
      <g>
       <use xlink:href="#m20468d486c" x="203.589704" y="293.76" style="stroke: #000000; stroke-width: 0.6"/>
      </g>
     </g>
    </g>
    <g id="xtick_15">
     <g id="line2d_49">
      <path d="M 212.142008 293.76 
L 212.142008 3.456 
" clip-path="url(#p40666ebd12)" style="fill: none; stroke: #b0b0b0; stroke-width: 0.8; stroke-linecap: square"/>
     </g>
     <g id="line2d_50">
      <g>
       <use xlink:href="#m20468d486c" x="212.142008" y="293.76" style="stroke: #000000; stroke-width: 0.6"/>
      </g>
     </g>
    </g>
    <g id="xtick_16">
     <g id="line2d_51">
      <path d="M 219.129748 293.76 
L 219.129748 3.456 
" clip-path="url(#p40666ebd12)" style="fill: none; stroke: #b0b0b0; stroke-width: 0.8; stroke-linecap: square"/>
     </g>
     <g id="line2d_52">
      <g>
       <use xlink:href="#m20468d486c" x="219.129748" y="293.76" style="stroke: #000000; stroke-width: 0.6"/>
      </g>
     </g>
    </g>
    <g id="xtick_17">
     <g id="line2d_53">
      <path d="M 225.037799 293.76 
L 225.037799 3.456 
" clip-path="url(#p40666ebd12)" style="fill: none; stroke: #b0b0b0; stroke-width: 0.8; stroke-linecap: square"/>
     </g>
     <g id="line2d_54">
      <g>
       <use xlink:href="#m20468d486c" x="225.037799" y="293.76" style="stroke: #000000; stroke-width: 0.6"/>
      </g>
     </g>
    </g>
    <g id="xtick_18">
     <g id="line2d_55">
      <path d="M 230.155585 293.76 
L 230.155585 3.456 
" clip-path="url(#p40666ebd12)" style="fill: none; stroke: #b0b0b0; stroke-width: 0.8; stroke-linecap: square"/>
     </g>
     <g id="line2d_56">
      <g>
       <use xlink:href="#m20468d486c" x="230.155585" y="293.76" style="stroke: #000000; stroke-width: 0.6"/>
      </g>
     </g>
    </g>
    <g id="xtick_19">
     <g id="line2d_57">
      <path d="M 234.669792 293.76 
L 234.669792 3.456 
" clip-path="url(#p40666ebd12)" style="fill: none; stroke: #b0b0b0; stroke-width: 0.8; stroke-linecap: square"/>
     </g>
     <g id="line2d_58">
      <g>
       <use xlink:href="#m20468d486c" x="234.669792" y="293.76" style="stroke: #000000; stroke-width: 0.6"/>
      </g>
     </g>
    </g>
    <g id="xtick_20">
     <g id="line2d_59">
      <path d="M 265.273768 293.76 
L 265.273768 3.456 
" clip-path="url(#p40666ebd12)" style="fill: none; stroke: #b0b0b0; stroke-width: 0.8; stroke-linecap: square"/>
     </g>
     <g id="line2d_60">
      <g>
       <use xlink:href="#m20468d486c" x="265.273768" y="293.76" style="stroke: #000000; stroke-width: 0.6"/>
      </g>
     </g>
    </g>
    <g id="xtick_21">
     <g id="line2d_61">
      <path d="M 280.813812 293.76 
L 280.813812 3.456 
" clip-path="url(#p40666ebd12)" style="fill: none; stroke: #b0b0b0; stroke-width: 0.8; stroke-linecap: square"/>
     </g>
     <g id="line2d_62">
      <g>
       <use xlink:href="#m20468d486c" x="280.813812" y="293.76" style="stroke: #000000; stroke-width: 0.6"/>
      </g>
     </g>
    </g>
    <g id="xtick_22">
     <g id="line2d_63">
      <path d="M 291.839648 293.76 
L 291.839648 3.456 
" clip-path="url(#p40666ebd12)" style="fill: none; stroke: #b0b0b0; stroke-width: 0.8; stroke-linecap: square"/>
     </g>
     <g id="line2d_64">
      <g>
       <use xlink:href="#m20468d486c" x="291.839648" y="293.76" style="stroke: #000000; stroke-width: 0.6"/>
      </g>
     </g>
    </g>
    <g id="xtick_23">
     <g id="line2d_65">
      <path d="M 300.391951 293.76 
L 300.391951 3.456 
" clip-path="url(#p40666ebd12)" style="fill: none; stroke: #b0b0b0; stroke-width: 0.8; stroke-linecap: square"/>
     </g>
     <g id="line2d_66">
      <g>
       <use xlink:href="#m20468d486c" x="300.391951" y="293.76" style="stroke: #000000; stroke-width: 0.6"/>
      </g>
     </g>
    </g>
    <g id="xtick_24">
     <g id="line2d_67">
      <path d="M 307.379692 293.76 
L 307.379692 3.456 
" clip-path="url(#p40666ebd12)" style="fill: none; stroke: #b0b0b0; stroke-width: 0.8; stroke-linecap: square"/>
     </g>
     <g id="line2d_68">
      <g>
       <use xlink:href="#m20468d486c" x="307.379692" y="293.76" style="stroke: #000000; stroke-width: 0.6"/>
      </g>
     </g>
    </g>
    <g id="xtick_25">
     <g id="line2d_69">
      <path d="M 313.287742 293.76 
L 313.287742 3.456 
" clip-path="url(#p40666ebd12)" style="fill: none; stroke: #b0b0b0; stroke-width: 0.8; stroke-linecap: square"/>
     </g>
     <g id="line2d_70">
      <g>
       <use xlink:href="#m20468d486c" x="313.287742" y="293.76" style="stroke: #000000; stroke-width: 0.6"/>
      </g>
     </g>
    </g>
    <g id="xtick_26">
     <g id="line2d_71">
      <path d="M 318.405528 293.76 
L 318.405528 3.456 
" clip-path="url(#p40666ebd12)" style="fill: none; stroke: #b0b0b0; stroke-width: 0.8; stroke-linecap: square"/>
     </g>
     <g id="line2d_72">
      <g>
       <use xlink:href="#m20468d486c" x="318.405528" y="293.76" style="stroke: #000000; stroke-width: 0.6"/>
      </g>
     </g>
    </g>
    <g id="xtick_27">
     <g id="line2d_73">
      <path d="M 322.919736 293.76 
L 322.919736 3.456 
" clip-path="url(#p40666ebd12)" style="fill: none; stroke: #b0b0b0; stroke-width: 0.8; stroke-linecap: square"/>
     </g>
     <g id="line2d_74">
      <g>
       <use xlink:href="#m20468d486c" x="322.919736" y="293.76" style="stroke: #000000; stroke-width: 0.6"/>
      </g>
     </g>
    </g>
    <g id="xtick_28">
     <g id="line2d_75">
      <path d="M 353.523712 293.76 
L 353.523712 3.456 
" clip-path="url(#p40666ebd12)" style="fill: none; stroke: #b0b0b0; stroke-width: 0.8; stroke-linecap: square"/>
     </g>
     <g id="line2d_76">
      <g>
       <use xlink:href="#m20468d486c" x="353.523712" y="293.76" style="stroke: #000000; stroke-width: 0.6"/>
      </g>
     </g>
    </g>
    <g id="xtick_29">
     <g id="line2d_77">
      <path d="M 369.063756 293.76 
L 369.063756 3.456 
" clip-path="url(#p40666ebd12)" style="fill: none; stroke: #b0b0b0; stroke-width: 0.8; stroke-linecap: square"/>
     </g>
     <g id="line2d_78">
      <g>
       <use xlink:href="#m20468d486c" x="369.063756" y="293.76" style="stroke: #000000; stroke-width: 0.6"/>
      </g>
     </g>
    </g>
    <g id="xtick_30">
     <g id="line2d_79">
      <path d="M 380.089592 293.76 
L 380.089592 3.456 
" clip-path="url(#p40666ebd12)" style="fill: none; stroke: #b0b0b0; stroke-width: 0.8; stroke-linecap: square"/>
     </g>
     <g id="line2d_80">
      <g>
       <use xlink:href="#m20468d486c" x="380.089592" y="293.76" style="stroke: #000000; stroke-width: 0.6"/>
      </g>
     </g>
    </g>
    <g id="xtick_31">
     <g id="line2d_81">
      <path d="M 388.641895 293.76 
L 388.641895 3.456 
" clip-path="url(#p40666ebd12)" style="fill: none; stroke: #b0b0b0; stroke-width: 0.8; stroke-linecap: square"/>
     </g>
     <g id="line2d_82">
      <g>
       <use xlink:href="#m20468d486c" x="388.641895" y="293.76" style="stroke: #000000; stroke-width: 0.6"/>
      </g>
     </g>
    </g>
    <g id="xtick_32">
     <g id="line2d_83">
      <path d="M 395.629636 293.76 
L 395.629636 3.456 
" clip-path="url(#p40666ebd12)" style="fill: none; stroke: #b0b0b0; stroke-width: 0.8; stroke-linecap: square"/>
     </g>
     <g id="line2d_84">
      <g>
       <use xlink:href="#m20468d486c" x="395.629636" y="293.76" style="stroke: #000000; stroke-width: 0.6"/>
      </g>
     </g>
    </g>
    <g id="xtick_33">
     <g id="line2d_85">
      <path d="M 401.537686 293.76 
L 401.537686 3.456 
" clip-path="url(#p40666ebd12)" style="fill: none; stroke: #b0b0b0; stroke-width: 0.8; stroke-linecap: square"/>
     </g>
     <g id="line2d_86">
      <g>
       <use xlink:href="#m20468d486c" x="401.537686" y="293.76" style="stroke: #000000; stroke-width: 0.6"/>
      </g>
     </g>
    </g>
    <g id="xtick_34">
     <g id="line2d_87">
      <path d="M 406.655472 293.76 
L 406.655472 3.456 
" clip-path="url(#p40666ebd12)" style="fill: none; stroke: #b0b0b0; stroke-width: 0.8; stroke-linecap: square"/>
     </g>
     <g id="line2d_88">
      <g>
       <use xlink:href="#m20468d486c" x="406.655472" y="293.76" style="stroke: #000000; stroke-width: 0.6"/>
      </g>
     </g>
    </g>
    <g id="xtick_35">
     <g id="line2d_89">
      <path d="M 411.16968 293.76 
L 411.16968 3.456 
" clip-path="url(#p40666ebd12)" style="fill: none; stroke: #b0b0b0; stroke-width: 0.8; stroke-linecap: square"/>
     </g>
     <g id="line2d_90">
      <g>
       <use xlink:href="#m20468d486c" x="411.16968" y="293.76" style="stroke: #000000; stroke-width: 0.6"/>
      </g>
     </g>
    </g>
    <g id="xtick_36">
     <g id="line2d_91">
      <path d="M 441.773656 293.76 
L 441.773656 3.456 
" clip-path="url(#p40666ebd12)" style="fill: none; stroke: #b0b0b0; stroke-width: 0.8; stroke-linecap: square"/>
     </g>
     <g id="line2d_92">
      <g>
       <use xlink:href="#m20468d486c" x="441.773656" y="293.76" style="stroke: #000000; stroke-width: 0.6"/>
      </g>
     </g>
    </g>
    <g id="xtick_37">
     <g id="line2d_93">
      <path d="M 457.3137 293.76 
L 457.3137 3.456 
" clip-path="url(#p40666ebd12)" style="fill: none; stroke: #b0b0b0; stroke-width: 0.8; stroke-linecap: square"/>
     </g>
     <g id="line2d_94">
      <g>
       <use xlink:href="#m20468d486c" x="457.3137" y="293.76" style="stroke: #000000; stroke-width: 0.6"/>
      </g>
     </g>
    </g>
    <g id="text_4">
     <!-- log10 of FEvals / DIM -->
     <g transform="translate(156.430563 339.313125) scale(0.2 -0.2)">
      <defs>
       <path id="DejaVuSans-6c" d="M 603 4863 
L 1178 4863 
L 1178 0 
L 603 0 
L 603 4863 
z
" transform="scale(0.015625)"/>
       <path id="DejaVuSans-6f" d="M 1959 3097 
Q 1497 3097 1228 2736 
Q 959 2375 959 1747 
Q 959 1119 1226 758 
Q 1494 397 1959 397 
Q 2419 397 2687 759 
Q 2956 1122 2956 1747 
Q 2956 2369 2687 2733 
Q 2419 3097 1959 3097 
z
M 1959 3584 
Q 2709 3584 3137 3096 
Q 3566 2609 3566 1747 
Q 3566 888 3137 398 
Q 2709 -91 1959 -91 
Q 1206 -91 779 398 
Q 353 888 353 1747 
Q 353 2609 779 3096 
Q 1206 3584 1959 3584 
z
" transform="scale(0.015625)"/>
       <path id="DejaVuSans-67" d="M 2906 1791 
Q 2906 2416 2648 2759 
Q 2391 3103 1925 3103 
Q 1463 3103 1205 2759 
Q 947 2416 947 1791 
Q 947 1169 1205 825 
Q 1463 481 1925 481 
Q 2391 481 2648 825 
Q 2906 1169 2906 1791 
z
M 3481 434 
Q 3481 -459 3084 -895 
Q 2688 -1331 1869 -1331 
Q 1566 -1331 1297 -1286 
Q 1028 -1241 775 -1147 
L 775 -588 
Q 1028 -725 1275 -790 
Q 1522 -856 1778 -856 
Q 2344 -856 2625 -561 
Q 2906 -266 2906 331 
L 2906 616 
Q 2728 306 2450 153 
Q 2172 0 1784 0 
Q 1141 0 747 490 
Q 353 981 353 1791 
Q 353 2603 747 3093 
Q 1141 3584 1784 3584 
Q 2172 3584 2450 3431 
Q 2728 3278 2906 2969 
L 2906 3500 
L 3481 3500 
L 3481 434 
z
" transform="scale(0.015625)"/>
       <path id="DejaVuSans-31" d="M 794 531 
L 1825 531 
L 1825 4091 
L 703 3866 
L 703 4441 
L 1819 4666 
L 2450 4666 
L 2450 531 
L 3481 531 
L 3481 0 
L 794 0 
L 794 531 
z
" transform="scale(0.015625)"/>
       <path id="DejaVuSans-20" transform="scale(0.015625)"/>
       <path id="DejaVuSans-66" d="M 2375 4863 
L 2375 4384 
L 1825 4384 
Q 1516 4384 1395 4259 
Q 1275 4134 1275 3809 
L 1275 3500 
L 2222 3500 
L 2222 3053 
L 1275 3053 
L 1275 0 
L 697 0 
L 697 3053 
L 147 3053 
L 147 3500 
L 697 3500 
L 697 3744 
Q 697 4328 969 4595 
Q 1241 4863 1831 4863 
L 2375 4863 
z
" transform="scale(0.015625)"/>
       <path id="DejaVuSans-46" d="M 628 4666 
L 3309 4666 
L 3309 4134 
L 1259 4134 
L 1259 2759 
L 3109 2759 
L 3109 2228 
L 1259 2228 
L 1259 0 
L 628 0 
L 628 4666 
z
" transform="scale(0.015625)"/>
       <path id="DejaVuSans-45" d="M 628 4666 
L 3578 4666 
L 3578 4134 
L 1259 4134 
L 1259 2753 
L 3481 2753 
L 3481 2222 
L 1259 2222 
L 1259 531 
L 3634 531 
L 3634 0 
L 628 0 
L 628 4666 
z
" transform="scale(0.015625)"/>
       <path id="DejaVuSans-76" d="M 191 3500 
L 800 3500 
L 1894 563 
L 2988 3500 
L 3597 3500 
L 2284 0 
L 1503 0 
L 191 3500 
z
" transform="scale(0.015625)"/>
       <path id="DejaVuSans-61" d="M 2194 1759 
Q 1497 1759 1228 1600 
Q 959 1441 959 1056 
Q 959 750 1161 570 
Q 1363 391 1709 391 
Q 2188 391 2477 730 
Q 2766 1069 2766 1631 
L 2766 1759 
L 2194 1759 
z
M 3341 1997 
L 3341 0 
L 2766 0 
L 2766 531 
Q 2569 213 2275 61 
Q 1981 -91 1556 -91 
Q 1019 -91 701 211 
Q 384 513 384 1019 
Q 384 1609 779 1909 
Q 1175 2209 1959 2209 
L 2766 2209 
L 2766 2266 
Q 2766 2663 2505 2880 
Q 2244 3097 1772 3097 
Q 1472 3097 1187 3025 
Q 903 2953 641 2809 
L 641 3341 
Q 956 3463 1253 3523 
Q 1550 3584 1831 3584 
Q 2591 3584 2966 3190 
Q 3341 2797 3341 1997 
z
" transform="scale(0.015625)"/>
       <path id="DejaVuSans-73" d="M 2834 3397 
L 2834 2853 
Q 2591 2978 2328 3040 
Q 2066 3103 1784 3103 
Q 1356 3103 1142 2972 
Q 928 2841 928 2578 
Q 928 2378 1081 2264 
Q 1234 2150 1697 2047 
L 1894 2003 
Q 2506 1872 2764 1633 
Q 3022 1394 3022 966 
Q 3022 478 2636 193 
Q 2250 -91 1575 -91 
Q 1294 -91 989 -36 
Q 684 19 347 128 
L 347 722 
Q 666 556 975 473 
Q 1284 391 1588 391 
Q 1994 391 2212 530 
Q 2431 669 2431 922 
Q 2431 1156 2273 1281 
Q 2116 1406 1581 1522 
L 1381 1569 
Q 847 1681 609 1914 
Q 372 2147 372 2553 
Q 372 3047 722 3315 
Q 1072 3584 1716 3584 
Q 2034 3584 2315 3537 
Q 2597 3491 2834 3397 
z
" transform="scale(0.015625)"/>
       <path id="DejaVuSans-2f" d="M 1625 4666 
L 2156 4666 
L 531 -594 
L 0 -594 
L 1625 4666 
z
" transform="scale(0.015625)"/>
       <path id="DejaVuSans-44" d="M 1259 4147 
L 1259 519 
L 2022 519 
Q 2988 519 3436 956 
Q 3884 1394 3884 2338 
Q 3884 3275 3436 3711 
Q 2988 4147 2022 4147 
L 1259 4147 
z
M 628 4666 
L 1925 4666 
Q 3281 4666 3915 4102 
Q 4550 3538 4550 2338 
Q 4550 1131 3912 565 
Q 3275 0 1925 0 
L 628 0 
L 628 4666 
z
" transform="scale(0.015625)"/>
       <path id="DejaVuSans-49" d="M 628 4666 
L 1259 4666 
L 1259 0 
L 628 0 
L 628 4666 
z
" transform="scale(0.015625)"/>
       <path id="DejaVuSans-4d" d="M 628 4666 
L 1569 4666 
L 2759 1491 
L 3956 4666 
L 4897 4666 
L 4897 0 
L 4281 0 
L 4281 4097 
L 3078 897 
L 2444 897 
L 1241 4097 
L 1241 0 
L 628 0 
L 628 4666 
z
" transform="scale(0.015625)"/>
      </defs>
      <use xlink:href="#DejaVuSans-6c"/>
      <use xlink:href="#DejaVuSans-6f" x="27.783203"/>
      <use xlink:href="#DejaVuSans-67" x="88.964844"/>
      <use xlink:href="#DejaVuSans-31" x="152.441406"/>
      <use xlink:href="#DejaVuSans-30" x="216.064453"/>
      <use xlink:href="#DejaVuSans-20" x="279.6875"/>
      <use xlink:href="#DejaVuSans-6f" x="311.474609"/>
      <use xlink:href="#DejaVuSans-66" x="372.65625"/>
      <use xlink:href="#DejaVuSans-20" x="407.861328"/>
      <use xlink:href="#DejaVuSans-46" x="439.648438"/>
      <use xlink:href="#DejaVuSans-45" x="497.167969"/>
      <use xlink:href="#DejaVuSans-76" x="560.351562"/>
      <use xlink:href="#DejaVuSans-61" x="619.53125"/>
      <use xlink:href="#DejaVuSans-6c" x="680.810547"/>
      <use xlink:href="#DejaVuSans-73" x="708.59375"/>
      <use xlink:href="#DejaVuSans-20" x="760.693359"/>
      <use xlink:href="#DejaVuSans-2f" x="792.480469"/>
      <use xlink:href="#DejaVuSans-20" x="826.171875"/>
      <use xlink:href="#DejaVuSans-44" x="857.958984"/>
      <use xlink:href="#DejaVuSans-49" x="934.960938"/>
      <use xlink:href="#DejaVuSans-4d" x="964.453125"/>
     </g>
    </g>
   </g>
   <g id="matplotlib.axis_2">
    <g id="ytick_1">
     <g id="line2d_95">
      <path d="M 62.208 293.76 
L 460.8 293.76 
" clip-path="url(#p40666ebd12)" style="fill: none; stroke: #b0b0b0; stroke-width: 0.8; stroke-linecap: square"/>
     </g>
     <g id="line2d_96">
      <defs>
       <path id="m52af415be1" d="M 0 0 
L -3.5 0 
" style="stroke: #000000; stroke-width: 0.8"/>
      </defs>
      <g>
       <use xlink:href="#m52af415be1" x="62.208" y="293.76" style="stroke: #000000; stroke-width: 0.8"/>
      </g>
     </g>
     <g id="text_5">
      <!-- 0.0 -->
      <g transform="translate(29.763 299.83875) scale(0.16 -0.16)">
       <defs>
        <path id="DejaVuSans-2e" d="M 684 794 
L 1344 794 
L 1344 0 
L 684 0 
L 684 794 
z
" transform="scale(0.015625)"/>
       </defs>
       <use xlink:href="#DejaVuSans-30"/>
       <use xlink:href="#DejaVuSans-2e" x="63.623047"/>
       <use xlink:href="#DejaVuSans-30" x="95.410156"/>
      </g>
     </g>
    </g>
    <g id="ytick_2">
     <g id="line2d_97">
      <path d="M 62.208 236.274059 
L 460.8 236.274059 
" clip-path="url(#p40666ebd12)" style="fill: none; stroke: #b0b0b0; stroke-width: 0.8; stroke-linecap: square"/>
     </g>
     <g id="line2d_98">
      <g>
       <use xlink:href="#m52af415be1" x="62.208" y="236.274059" style="stroke: #000000; stroke-width: 0.8"/>
      </g>
     </g>
     <g id="text_6">
      <!-- 0.2 -->
      <g transform="translate(29.763 242.352809) scale(0.16 -0.16)">
       <use xlink:href="#DejaVuSans-30"/>
       <use xlink:href="#DejaVuSans-2e" x="63.623047"/>
       <use xlink:href="#DejaVuSans-32" x="95.410156"/>
      </g>
     </g>
    </g>
    <g id="ytick_3">
     <g id="line2d_99">
      <path d="M 62.208 178.788119 
L 460.8 178.788119 
" clip-path="url(#p40666ebd12)" style="fill: none; stroke: #b0b0b0; stroke-width: 0.8; stroke-linecap: square"/>
     </g>
     <g id="line2d_100">
      <g>
       <use xlink:href="#m52af415be1" x="62.208" y="178.788119" style="stroke: #000000; stroke-width: 0.8"/>
      </g>
     </g>
     <g id="text_7">
      <!-- 0.4 -->
      <g transform="translate(29.763 184.866869) scale(0.16 -0.16)">
       <use xlink:href="#DejaVuSans-30"/>
       <use xlink:href="#DejaVuSans-2e" x="63.623047"/>
       <use xlink:href="#DejaVuSans-34" x="95.410156"/>
      </g>
     </g>
    </g>
    <g id="ytick_4">
     <g id="line2d_101">
      <path d="M 62.208 121.302178 
L 460.8 121.302178 
" clip-path="url(#p40666ebd12)" style="fill: none; stroke: #b0b0b0; stroke-width: 0.8; stroke-linecap: square"/>
     </g>
     <g id="line2d_102">
      <g>
       <use xlink:href="#m52af415be1" x="62.208" y="121.302178" style="stroke: #000000; stroke-width: 0.8"/>
      </g>
     </g>
     <g id="text_8">
      <!-- 0.6 -->
      <g transform="translate(29.763 127.380928) scale(0.16 -0.16)">
       <defs>
        <path id="DejaVuSans-36" d="M 2113 2584 
Q 1688 2584 1439 2293 
Q 1191 2003 1191 1497 
Q 1191 994 1439 701 
Q 1688 409 2113 409 
Q 2538 409 2786 701 
Q 3034 994 3034 1497 
Q 3034 2003 2786 2293 
Q 2538 2584 2113 2584 
z
M 3366 4563 
L 3366 3988 
Q 3128 4100 2886 4159 
Q 2644 4219 2406 4219 
Q 1781 4219 1451 3797 
Q 1122 3375 1075 2522 
Q 1259 2794 1537 2939 
Q 1816 3084 2150 3084 
Q 2853 3084 3261 2657 
Q 3669 2231 3669 1497 
Q 3669 778 3244 343 
Q 2819 -91 2113 -91 
Q 1303 -91 875 529 
Q 447 1150 447 2328 
Q 447 3434 972 4092 
Q 1497 4750 2381 4750 
Q 2619 4750 2861 4703 
Q 3103 4656 3366 4563 
z
" transform="scale(0.015625)"/>
       </defs>
       <use xlink:href="#DejaVuSans-30"/>
       <use xlink:href="#DejaVuSans-2e" x="63.623047"/>
       <use xlink:href="#DejaVuSans-36" x="95.410156"/>
      </g>
     </g>
    </g>
    <g id="ytick_5">
     <g id="line2d_103">
      <path d="M 62.208 63.816238 
L 460.8 63.816238 
" clip-path="url(#p40666ebd12)" style="fill: none; stroke: #b0b0b0; stroke-width: 0.8; stroke-linecap: square"/>
     </g>
     <g id="line2d_104">
      <g>
       <use xlink:href="#m52af415be1" x="62.208" y="63.816238" style="stroke: #000000; stroke-width: 0.8"/>
      </g>
     </g>
     <g id="text_9">
      <!-- 0.8 -->
      <g transform="translate(29.763 69.894988) scale(0.16 -0.16)">
       <defs>
        <path id="DejaVuSans-38" d="M 2034 2216 
Q 1584 2216 1326 1975 
Q 1069 1734 1069 1313 
Q 1069 891 1326 650 
Q 1584 409 2034 409 
Q 2484 409 2743 651 
Q 3003 894 3003 1313 
Q 3003 1734 2745 1975 
Q 2488 2216 2034 2216 
z
M 1403 2484 
Q 997 2584 770 2862 
Q 544 3141 544 3541 
Q 544 4100 942 4425 
Q 1341 4750 2034 4750 
Q 2731 4750 3128 4425 
Q 3525 4100 3525 3541 
Q 3525 3141 3298 2862 
Q 3072 2584 2669 2484 
Q 3125 2378 3379 2068 
Q 3634 1759 3634 1313 
Q 3634 634 3220 271 
Q 2806 -91 2034 -91 
Q 1263 -91 848 271 
Q 434 634 434 1313 
Q 434 1759 690 2068 
Q 947 2378 1403 2484 
z
M 1172 3481 
Q 1172 3119 1398 2916 
Q 1625 2713 2034 2713 
Q 2441 2713 2670 2916 
Q 2900 3119 2900 3481 
Q 2900 3844 2670 4047 
Q 2441 4250 2034 4250 
Q 1625 4250 1398 4047 
Q 1172 3844 1172 3481 
z
" transform="scale(0.015625)"/>
       </defs>
       <use xlink:href="#DejaVuSans-30"/>
       <use xlink:href="#DejaVuSans-2e" x="63.623047"/>
       <use xlink:href="#DejaVuSans-38" x="95.410156"/>
      </g>
     </g>
    </g>
    <g id="ytick_6">
     <g id="line2d_105">
      <path d="M 62.208 6.330297 
L 460.8 6.330297 
" clip-path="url(#p40666ebd12)" style="fill: none; stroke: #b0b0b0; stroke-width: 0.8; stroke-linecap: square"/>
     </g>
     <g id="line2d_106">
      <g>
       <use xlink:href="#m52af415be1" x="62.208" y="6.330297" style="stroke: #000000; stroke-width: 0.8"/>
      </g>
     </g>
     <g id="text_10">
      <!-- 1.0 -->
      <g transform="translate(29.763 12.409047) scale(0.16 -0.16)">
       <use xlink:href="#DejaVuSans-31"/>
       <use xlink:href="#DejaVuSans-2e" x="63.623047"/>
       <use xlink:href="#DejaVuSans-30" x="95.410156"/>
      </g>
     </g>
    </g>
    <g id="text_11">
     <!-- proportion of trials -->
     <g transform="translate(21.603625 241.61425) rotate(-90) scale(0.2 -0.2)">
      <defs>
       <path id="DejaVuSans-70" d="M 1159 525 
L 1159 -1331 
L 581 -1331 
L 581 3500 
L 1159 3500 
L 1159 2969 
Q 1341 3281 1617 3432 
Q 1894 3584 2278 3584 
Q 2916 3584 3314 3078 
Q 3713 2572 3713 1747 
Q 3713 922 3314 415 
Q 2916 -91 2278 -91 
Q 1894 -91 1617 61 
Q 1341 213 1159 525 
z
M 3116 1747 
Q 3116 2381 2855 2742 
Q 2594 3103 2138 3103 
Q 1681 3103 1420 2742 
Q 1159 2381 1159 1747 
Q 1159 1113 1420 752 
Q 1681 391 2138 391 
Q 2594 391 2855 752 
Q 3116 1113 3116 1747 
z
" transform="scale(0.015625)"/>
       <path id="DejaVuSans-72" d="M 2631 2963 
Q 2534 3019 2420 3045 
Q 2306 3072 2169 3072 
Q 1681 3072 1420 2755 
Q 1159 2438 1159 1844 
L 1159 0 
L 581 0 
L 581 3500 
L 1159 3500 
L 1159 2956 
Q 1341 3275 1631 3429 
Q 1922 3584 2338 3584 
Q 2397 3584 2469 3576 
Q 2541 3569 2628 3553 
L 2631 2963 
z
" transform="scale(0.015625)"/>
       <path id="DejaVuSans-74" d="M 1172 4494 
L 1172 3500 
L 2356 3500 
L 2356 3053 
L 1172 3053 
L 1172 1153 
Q 1172 725 1289 603 
Q 1406 481 1766 481 
L 2356 481 
L 2356 0 
L 1766 0 
Q 1100 0 847 248 
Q 594 497 594 1153 
L 594 3053 
L 172 3053 
L 172 3500 
L 594 3500 
L 594 4494 
L 1172 4494 
z
" transform="scale(0.015625)"/>
       <path id="DejaVuSans-69" d="M 603 3500 
L 1178 3500 
L 1178 0 
L 603 0 
L 603 3500 
z
M 603 4863 
L 1178 4863 
L 1178 4134 
L 603 4134 
L 603 4863 
z
" transform="scale(0.015625)"/>
       <path id="DejaVuSans-6e" d="M 3513 2113 
L 3513 0 
L 2938 0 
L 2938 2094 
Q 2938 2591 2744 2837 
Q 2550 3084 2163 3084 
Q 1697 3084 1428 2787 
Q 1159 2491 1159 1978 
L 1159 0 
L 581 0 
L 581 3500 
L 1159 3500 
L 1159 2956 
Q 1366 3272 1645 3428 
Q 1925 3584 2291 3584 
Q 2894 3584 3203 3211 
Q 3513 2838 3513 2113 
z
" transform="scale(0.015625)"/>
      </defs>
      <use xlink:href="#DejaVuSans-70"/>
      <use xlink:href="#DejaVuSans-72" x="63.476562"/>
      <use xlink:href="#DejaVuSans-6f" x="102.339844"/>
      <use xlink:href="#DejaVuSans-70" x="163.521484"/>
      <use xlink:href="#DejaVuSans-6f" x="226.998047"/>
      <use xlink:href="#DejaVuSans-72" x="288.179688"/>
      <use xlink:href="#DejaVuSans-74" x="329.292969"/>
      <use xlink:href="#DejaVuSans-69" x="368.501953"/>
      <use xlink:href="#DejaVuSans-6f" x="396.285156"/>
      <use xlink:href="#DejaVuSans-6e" x="457.466797"/>
      <use xlink:href="#DejaVuSans-20" x="520.845703"/>
      <use xlink:href="#DejaVuSans-6f" x="552.632812"/>
      <use xlink:href="#DejaVuSans-66" x="613.814453"/>
      <use xlink:href="#DejaVuSans-20" x="649.019531"/>
      <use xlink:href="#DejaVuSans-74" x="680.806641"/>
      <use xlink:href="#DejaVuSans-72" x="720.015625"/>
      <use xlink:href="#DejaVuSans-69" x="761.128906"/>
      <use xlink:href="#DejaVuSans-61" x="788.912109"/>
      <use xlink:href="#DejaVuSans-6c" x="850.191406"/>
      <use xlink:href="#DejaVuSans-73" x="877.974609"/>
     </g>
    </g>
   </g>
   <g id="line2d_107">
    <path d="M 29.413344 293.76 
L 29.413344 289.927604 
L 45.697614 289.927604 
L 45.697614 286.095208 
L 54.835066 286.095208 
L 54.835066 282.262812 
L 69.195741 282.262812 
L 69.195741 278.430416 
L 71.519268 278.430416 
L 71.519268 274.59802 
L 76.448717 274.59802 
L 76.448717 270.765624 
L 87.308996 270.765624 
L 87.308996 263.100832 
L 100.275828 263.100832 
L 100.275828 259.268436 
L 103.014597 259.268436 
L 103.014597 255.43604 
L 103.993199 255.43604 
L 103.993199 251.603644 
L 104.631988 251.603644 
L 104.631988 247.771248 
L 116.519129 247.771248 
L 116.519129 243.938851 
L 117.209715 243.938851 
L 117.209715 240.106455 
L 118.554641 240.106455 
L 118.554641 236.274059 
L 140.440757 236.274059 
L 140.440757 232.441663 
L 148.289802 232.441663 
L 148.289802 228.609267 
L 154.629948 228.609267 
L 154.629948 224.776871 
L 156.638782 224.776871 
L 156.638782 220.944475 
L 161.387844 220.944475 
L 161.387844 217.112079 
L 162.73277 217.112079 
L 162.73277 213.279683 
L 163.422114 213.279683 
L 163.422114 209.447287 
L 164.566272 209.447287 
L 164.566272 205.614891 
L 165.548217 205.614891 
L 165.548217 201.782495 
L 170.795048 201.782495 
L 170.795048 197.950099 
L 172.718644 197.950099 
L 172.718644 194.117703 
L 175.309256 194.117703 
L 175.409325 186.452911 
L 181.152838 186.452911 
L 181.152838 182.620515 
L 183.163867 182.620515 
L 183.163867 178.788119 
L 208.987922 178.788119 
L 208.987922 174.955723 
L 210.537501 174.955723 
L 210.537501 171.123327 
L 212.371279 171.123327 
L 212.428383 163.458535 
L 217.062865 163.458535 
L 217.062865 159.626139 
L 229.915292 159.626139 
L 229.915292 155.793743 
L 232.569186 155.793743 
L 232.569186 151.961347 
L 237.183228 151.961347 
L 237.183228 148.12895 
L 240.238708 148.12895 
L 240.238708 144.296554 
L 240.541323 144.296554 
L 240.632555 136.631762 
L 243.527487 136.631762 
L 243.527487 132.799366 
L 249.644992 132.799366 
L 249.644992 128.96697 
L 250.710473 128.96697 
L 250.710473 125.134574 
L 251.377158 125.134574 
L 251.377158 121.302178 
L 252.355933 121.302178 
L 252.355933 117.469782 
L 252.690022 117.469782 
L 252.690022 113.637386 
L 253.362665 113.637386 
L 253.362665 109.80499 
L 254.407293 109.80499 
L 254.407293 105.972594 
L 260.866605 105.972594 
L 260.866605 102.140198 
L 261.848233 102.140198 
L 261.848233 98.307802 
L 264.562969 98.307802 
L 264.562969 94.475406 
L 266.859788 94.475406 
L 266.859788 90.64301 
L 268.996291 90.64301 
L 268.996291 86.810614 
L 269.689904 86.810614 
L 269.689904 82.978218 
L 271.389314 82.978218 
L 271.389314 79.145822 
L 274.663862 79.145822 
L 274.663862 75.313426 
L 278.962058 75.313426 
L 278.962058 71.48103 
L 301.130244 71.48103 
L 301.130244 67.648634 
L 302.65772 67.648634 
L 302.65772 63.816238 
L 414.382504 63.816238 
L 414.382504 59.983842 
L 425.842248 59.983842 
L 425.842248 56.151446 
L 427.166833 56.151446 
L 427.245722 48.486653 
L 428.48696 48.486653 
L 428.48696 44.654257 
L 428.960236 44.654257 
L 428.960236 40.821861 
L 430.655085 40.821861 
L 430.655085 36.989465 
L 432.426761 36.989465 
L 432.426761 33.157069 
L 432.426761 33.157069 
L 460.8 33.157069 
L 460.8 33.157069 
" clip-path="url(#p40666ebd12)" style="fill: none; stroke: #000000; stroke-width: 1.5; stroke-linecap: square"/>
   </g>
   <g id="line2d_108">
    <defs>
     <path id="m1802e737e8" d="M 0 14.142136 
L 8.485281 0 
L 0 -14.142136 
L -8.485281 0 
z
" style="stroke: #000000; stroke-width: 1.5; stroke-linejoin: miter"/>
    </defs>
    <g clip-path="url(#p40666ebd12)">
     <use xlink:href="#m1802e737e8" x="76.448717" y="274.59802" style="fill-opacity: 0; stroke: #000000; stroke-width: 1.5; stroke-linejoin: miter"/>
     <use xlink:href="#m1802e737e8" x="118.554641" y="240.106455" style="fill-opacity: 0; stroke: #000000; stroke-width: 1.5; stroke-linejoin: miter"/>
     <use xlink:href="#m1802e737e8" x="210.537501" y="174.955723" style="fill-opacity: 0; stroke: #000000; stroke-width: 1.5; stroke-linejoin: miter"/>
     <use xlink:href="#m1802e737e8" x="251.377158" y="125.134574" style="fill-opacity: 0; stroke: #000000; stroke-width: 1.5; stroke-linejoin: miter"/>
     <use xlink:href="#m1802e737e8" x="301.130244" y="71.48103" style="fill-opacity: 0; stroke: #000000; stroke-width: 1.5; stroke-linejoin: miter"/>
     <use xlink:href="#m1802e737e8" x="414.382504" y="63.816238" style="fill-opacity: 0; stroke: #000000; stroke-width: 1.5; stroke-linejoin: miter"/>
     <use xlink:href="#m1802e737e8" x="432.426761" y="33.157069" style="fill-opacity: 0; stroke: #000000; stroke-width: 1.5; stroke-linejoin: miter"/>
    </g>
   </g>
   <g id="line2d_109">
    <path clip-path="url(#p40666ebd12)" style="fill: none; stroke: #000000; stroke-width: 1.5; stroke-linecap: square"/>
    <g clip-path="url(#p40666ebd12)">
     <use xlink:href="#m1802e737e8" x="-1" y="581.189703" style="fill-opacity: 0; stroke: #000000; stroke-width: 1.5; stroke-linejoin: miter"/>
     <use xlink:href="#m1802e737e8" x="460.8" y="581.189703" style="fill-opacity: 0; stroke: #000000; stroke-width: 1.5; stroke-linejoin: miter"/>
    </g>
   </g>
   <g id="line2d_110">
    <path d="M -1 289.927604 
L 48.537911 289.927604 
L 48.537911 282.262812 
L 55.979224 282.262812 
L 55.979224 278.430416 
L 59.22001 278.430416 
L 59.22001 274.59802 
L 62.208 274.59802 
L 62.208 270.765624 
L 64.979795 270.765624 
L 64.979795 266.933228 
L 81.400946 266.933228 
L 81.400946 263.100832 
L 85.78589 263.100832 
L 85.78589 259.268436 
L 88.29178 259.268436 
L 88.29178 255.43604 
L 89.249991 255.43604 
L 89.249991 251.603644 
L 93.711589 251.603644 
L 93.711589 247.771248 
L 96.551885 247.771248 
L 96.551885 243.938851 
L 100.62907 243.938851 
L 100.62907 240.106455 
L 112.091929 240.106455 
L 112.091929 236.274059 
L 162.172227 236.274059 
L 162.172227 232.441663 
L 164.433425 232.441663 
L 164.433425 228.609267 
L 166.316051 228.609267 
L 166.316051 224.776871 
L 166.442541 224.776871 
L 166.50563 217.112079 
L 168.291443 217.112079 
L 168.291443 213.279683 
L 169.766855 213.279683 
L 169.766855 209.447287 
L 170.512195 209.447287 
L 170.512195 205.614891 
L 176.63863 205.614891 
L 176.63863 201.782495 
L 177.405185 201.782495 
L 177.405185 197.950099 
L 182.338723 197.950099 
L 182.338723 194.117703 
L 185.614435 194.117703 
L 185.614435 190.285307 
L 188.525772 190.285307 
L 188.525772 186.452911 
L 189.333414 186.452911 
L 189.333414 182.620515 
L 195.097239 182.620515 
L 195.097239 178.788119 
L 211.698699 178.788119 
L 211.698699 174.955723 
L 212.542337 174.955723 
L 212.542337 171.123327 
L 214.663419 171.123327 
L 214.663419 167.290931 
L 219.08181 167.290931 
L 219.08181 163.458535 
L 220.432801 163.458535 
L 220.525302 155.793743 
L 220.801475 155.793743 
L 220.847311 148.12895 
L 220.923582 148.12895 
L 220.938819 140.464158 
L 224.59726 140.464158 
L 224.59726 136.631762 
L 226.369506 136.631762 
L 226.369506 132.799366 
L 227.669274 132.799366 
L 227.669274 128.96697 
L 237.894461 128.96697 
L 237.894461 125.134574 
L 242.91425 125.134574 
L 242.91425 121.302178 
L 243.830464 121.302178 
L 243.830464 117.469782 
L 244.503532 117.469782 
L 244.503532 113.637386 
L 245.051471 113.637386 
L 245.051471 109.80499 
L 250.330303 109.80499 
L 250.330303 105.972594 
L 253.21858 105.972594 
L 253.21858 102.140198 
L 256.924535 102.140198 
L 256.942402 94.475406 
L 258.08621 94.475406 
L 258.08621 90.64301 
L 258.362604 90.64301 
L 258.385547 82.978218 
L 259.671109 82.978218 
L 259.671109 79.145822 
L 262.456313 79.145822 
L 262.456313 75.313426 
L 269.295092 75.313426 
L 269.295092 71.48103 
L 284.504441 71.48103 
L 284.504441 67.648634 
L 333.8152 67.648634 
L 333.8152 63.816238 
L 413.502224 63.816238 
L 413.502224 59.983842 
L 414.27201 59.983842 
L 414.27201 56.151446 
L 434.432357 56.151446 
L 434.432357 52.31905 
L 434.432357 52.31905 
L 460.8 52.31905 
L 460.8 52.31905 
" clip-path="url(#p40666ebd12)" style="fill: none; stroke: #000000; stroke-width: 1.5; stroke-linecap: square"/>
   </g>
   <g id="line2d_111">
    <defs>
     <path id="m8b500d0d5d" d="M 0 7.5 
C 1.989023 7.5 3.896849 6.709753 5.303301 5.303301 
C 6.709753 3.896849 7.5 1.989023 7.5 0 
C 7.5 -1.989023 6.709753 -3.896849 5.303301 -5.303301 
C 3.896849 -6.709753 1.989023 -7.5 0 -7.5 
C -1.989023 -7.5 -3.896849 -6.709753 -5.303301 -5.303301 
C -6.709753 -3.896849 -7.5 -1.989023 -7.5 0 
C -7.5 1.989023 -6.709753 3.896849 -5.303301 5.303301 
C -3.896849 6.709753 -1.989023 7.5 0 7.5 
z
" style="stroke: #000000; stroke-width: 1.5"/>
    </defs>
    <g clip-path="url(#p40666ebd12)">
     <use xlink:href="#m8b500d0d5d" x="166.442541" y="224.776871" style="fill-opacity: 0; stroke: #000000; stroke-width: 1.5"/>
     <use xlink:href="#m8b500d0d5d" x="220.847311" y="151.961347" style="fill-opacity: 0; stroke: #000000; stroke-width: 1.5"/>
     <use xlink:href="#m8b500d0d5d" x="262.456313" y="79.145822" style="fill-opacity: 0; stroke: #000000; stroke-width: 1.5"/>
     <use xlink:href="#m8b500d0d5d" x="333.8152" y="67.648634" style="fill-opacity: 0; stroke: #000000; stroke-width: 1.5"/>
     <use xlink:href="#m8b500d0d5d" x="434.432357" y="56.151446" style="fill-opacity: 0; stroke: #000000; stroke-width: 1.5"/>
     <use xlink:href="#m8b500d0d5d" x="434.432357" y="52.31905" style="fill-opacity: 0; stroke: #000000; stroke-width: 1.5"/>
    </g>
   </g>
   <g id="line2d_112">
    <path clip-path="url(#p40666ebd12)" style="fill: none; stroke: #000000; stroke-width: 1.5; stroke-linecap: square"/>
   </g>
   <g id="line2d_113">
    <path d="M 226.63301 293.76 
L 226.63301 289.927604 
L 228.827337 289.927604 
L 228.827337 286.095208 
L 229.332369 286.095208 
L 229.332369 282.262812 
L 231.416166 282.262812 
L 231.416166 278.430416 
L 234.047282 278.430416 
L 234.047282 274.59802 
L 234.263084 274.59802 
L 234.263084 270.765624 
L 242.17743 270.765624 
L 242.17743 266.933228 
L 243.188012 266.933228 
L 243.188012 263.100832 
L 244.396302 263.100832 
L 244.396302 259.268436 
L 246.100699 259.268436 
L 246.100699 255.43604 
L 246.336991 255.43604 
L 246.336991 251.603644 
L 247.121967 251.603644 
L 247.121967 247.771248 
L 247.603586 247.771248 
L 247.603586 243.938851 
L 247.656728 243.938851 
L 247.656728 240.106455 
L 247.76279 240.106455 
L 247.76279 236.274059 
L 249.027805 236.274059 
L 249.027805 232.441663 
L 252.643425 232.441663 
L 252.643425 228.609267 
L 253.401867 228.609267 
L 253.401867 224.776871 
L 254.362739 224.776871 
L 254.362739 220.944475 
L 258.120868 220.944475 
L 258.120868 217.112079 
L 261.235672 217.112079 
L 261.235672 213.279683 
L 261.453301 213.279683 
L 261.453301 209.447287 
L 261.748567 209.447287 
L 261.748567 205.614891 
L 263.206885 205.614891 
L 263.206885 201.782495 
L 264.061898 201.782495 
L 264.061898 197.950099 
L 264.709104 197.950099 
L 264.709104 194.117703 
L 265.820789 194.117703 
L 265.820789 190.285307 
L 267.148285 190.285307 
L 267.148285 186.452911 
L 267.325796 186.452911 
L 267.325796 182.620515 
L 272.077419 182.620515 
L 272.077419 178.788119 
L 273.653213 178.788119 
L 273.653213 174.955723 
L 279.025693 174.955723 
L 279.025693 171.123327 
L 281.097017 171.123327 
L 281.097017 167.290931 
L 284.492837 167.290931 
L 284.492837 163.458535 
L 288.21189 163.458535 
L 288.21189 159.626139 
L 291.640312 159.626139 
L 291.640312 155.793743 
L 299.0642 155.793743 
L 299.0642 151.961347 
L 300.653593 151.961347 
L 300.653593 148.12895 
L 303.279443 148.12895 
L 303.279443 144.296554 
L 303.729984 144.296554 
L 303.729984 140.464158 
L 311.744561 140.464158 
L 311.744561 136.631762 
L 312.606911 136.631762 
L 312.606911 132.799366 
L 312.905314 132.799366 
L 312.905314 128.96697 
L 315.434367 128.96697 
L 315.434367 125.134574 
L 321.200714 125.134574 
L 321.200714 121.302178 
L 321.200714 121.302178 
L 321.200714 121.302178 
L 460.8 121.302178 
" clip-path="url(#p40666ebd12)" style="fill: none; stroke: #00bfbf; stroke-width: 1.5; stroke-linecap: square"/>
   </g>
   <g id="line2d_114">
    <defs>
     <path id="m3fdcab09d4" d="M 0 14.142136 
L 8.485281 0 
L 0 -14.142136 
L -8.485281 0 
z
" style="stroke: #00bfbf; stroke-width: 1.5; stroke-linejoin: miter"/>
    </defs>
    <g clip-path="url(#p40666ebd12)">
     <use xlink:href="#m3fdcab09d4" x="254.362739" y="224.776871" style="fill-opacity: 0; stroke: #00bfbf; stroke-width: 1.5; stroke-linejoin: miter"/>
     <use xlink:href="#m3fdcab09d4" x="281.097017" y="171.123327" style="fill-opacity: 0; stroke: #00bfbf; stroke-width: 1.5; stroke-linejoin: miter"/>
     <use xlink:href="#m3fdcab09d4" x="321.200714" y="125.134574" style="fill-opacity: 0; stroke: #00bfbf; stroke-width: 1.5; stroke-linejoin: miter"/>
     <use xlink:href="#m3fdcab09d4" x="321.200714" y="121.302178" style="fill-opacity: 0; stroke: #00bfbf; stroke-width: 1.5; stroke-linejoin: miter"/>
    </g>
   </g>
   <g id="line2d_115">
    <path clip-path="url(#p40666ebd12)" style="fill: none; stroke: #00bfbf; stroke-width: 1.5; stroke-linecap: square"/>
    <g clip-path="url(#p40666ebd12)">
     <use xlink:href="#m3fdcab09d4" x="-1" y="581.189703" style="fill-opacity: 0; stroke: #00bfbf; stroke-width: 1.5; stroke-linejoin: miter"/>
     <use xlink:href="#m3fdcab09d4" x="460.8" y="581.189703" style="fill-opacity: 0; stroke: #00bfbf; stroke-width: 1.5; stroke-linejoin: miter"/>
    </g>
   </g>
   <g id="line2d_116">
    <path d="M 217.87995 293.76 
L 217.87995 289.927604 
L 219.951287 289.927604 
L 219.951287 286.095208 
L 226.303346 286.095208 
L 226.303346 282.262812 
L 228.553575 282.262812 
L 228.553575 278.430416 
L 229.037549 278.430416 
L 229.037549 274.59802 
L 229.478933 274.59802 
L 229.478933 270.765624 
L 230.643523 270.765624 
L 230.643523 266.933228 
L 230.655347 266.933228 
L 230.655347 263.100832 
L 232.218964 263.100832 
L 232.218964 259.268436 
L 233.425492 259.268436 
L 233.425492 255.43604 
L 234.722986 255.43604 
L 234.722986 251.603644 
L 234.807944 251.603644 
L 234.807944 247.771248 
L 235.418318 247.771248 
L 235.418318 243.938851 
L 235.439193 243.938851 
L 235.439193 240.106455 
L 235.460056 240.106455 
L 235.460056 236.274059 
L 235.553802 236.274059 
L 235.553802 232.441663 
L 236.060213 232.441663 
L 236.060213 228.609267 
L 239.335114 228.609267 
L 239.335114 224.776871 
L 239.476245 224.776871 
L 239.476245 220.944475 
L 240.705385 220.944475 
L 240.705385 217.112079 
L 241.79038 217.112079 
L 241.79038 213.279683 
L 245.64769 213.279683 
L 245.64769 209.447287 
L 249.724141 209.447287 
L 249.724141 205.614891 
L 250.337378 205.614891 
L 250.337378 201.782495 
L 250.77347 201.782495 
L 250.77347 197.950099 
L 251.548887 197.950099 
L 251.548887 194.117703 
L 253.61027 194.117703 
L 253.61027 190.285307 
L 254.875158 190.285307 
L 254.875158 186.452911 
L 260.94714 186.452911 
L 260.94714 182.620515 
L 262.041577 182.620515 
L 262.041577 178.788119 
L 262.68252 178.788119 
L 262.68252 174.955723 
L 263.519098 174.955723 
L 263.519098 171.123327 
L 264.903089 171.123327 
L 264.903089 167.290931 
L 266.17338 167.290931 
L 266.17338 163.458535 
L 267.289451 163.458535 
L 267.289451 159.626139 
L 270.425673 159.626139 
L 270.425673 155.793743 
L 270.900182 155.793743 
L 270.900182 151.961347 
L 272.121521 151.961347 
L 272.121521 148.12895 
L 272.197578 148.12895 
L 272.197578 144.296554 
L 273.66861 144.296554 
L 273.66861 140.464158 
L 275.943435 140.464158 
L 275.943435 136.631762 
L 281.928087 136.631762 
L 281.928087 132.799366 
L 286.672554 132.799366 
L 286.672554 128.96697 
L 345.082036 128.96697 
L 345.082036 125.134574 
L 384.422385 125.134574 
L 384.422385 121.302178 
L 384.422385 121.302178 
L 384.422385 121.302178 
L 460.8 121.302178 
" clip-path="url(#p40666ebd12)" style="fill: none; stroke: #00bfbf; stroke-width: 1.5; stroke-linecap: square"/>
   </g>
   <g id="line2d_117">
    <defs>
     <path id="me95bb66c2d" d="M 0 7.5 
C 1.989023 7.5 3.896849 6.709753 5.303301 5.303301 
C 6.709753 3.896849 7.5 1.989023 7.5 0 
C 7.5 -1.989023 6.709753 -3.896849 5.303301 -5.303301 
C 3.896849 -6.709753 1.989023 -7.5 0 -7.5 
C -1.989023 -7.5 -3.896849 -6.709753 -5.303301 -5.303301 
C -6.709753 -3.896849 -7.5 -1.989023 -7.5 0 
C -7.5 1.989023 -6.709753 3.896849 -5.303301 5.303301 
C -3.896849 6.709753 -1.989023 7.5 0 7.5 
z
" style="stroke: #00bfbf; stroke-width: 1.5"/>
    </defs>
    <g clip-path="url(#p40666ebd12)">
     <use xlink:href="#me95bb66c2d" x="240.705385" y="220.944475" style="fill-opacity: 0; stroke: #00bfbf; stroke-width: 1.5"/>
     <use xlink:href="#me95bb66c2d" x="281.928087" y="136.631762" style="fill-opacity: 0; stroke: #00bfbf; stroke-width: 1.5"/>
     <use xlink:href="#me95bb66c2d" x="345.082036" y="128.96697" style="fill-opacity: 0; stroke: #00bfbf; stroke-width: 1.5"/>
     <use xlink:href="#me95bb66c2d" x="384.422385" y="121.302178" style="fill-opacity: 0; stroke: #00bfbf; stroke-width: 1.5"/>
    </g>
   </g>
   <g id="line2d_118">
    <path clip-path="url(#p40666ebd12)" style="fill: none; stroke: #00bfbf; stroke-width: 1.5; stroke-linecap: square"/>
   </g>
   <g id="line2d_119">
    <path d="M 247.052667 293.76 
L 247.052667 289.927604 
L 252.789684 289.927604 
L 252.789684 286.095208 
L 252.836104 286.095208 
L 252.836104 282.262812 
L 253.538759 282.262812 
L 253.538759 278.430416 
L 253.649219 278.430416 
L 253.649219 274.59802 
L 254.578663 274.59802 
L 254.578663 270.765624 
L 255.572588 270.765624 
L 255.572588 266.933228 
L 257.743722 266.933228 
L 257.743722 263.100832 
L 259.52667 263.100832 
L 259.52667 259.268436 
L 265.182634 259.268436 
L 265.182634 255.43604 
L 267.448209 255.43604 
L 267.448209 251.603644 
L 271.155802 251.603644 
L 271.155802 247.771248 
L 272.627055 247.771248 
L 272.627055 243.938851 
L 273.012644 243.938851 
L 273.012644 240.106455 
L 273.137715 240.106455 
L 273.137715 236.274059 
L 273.810738 236.274059 
L 273.810738 232.441663 
L 274.787405 232.441663 
L 274.787405 228.609267 
L 275.070424 228.609267 
L 275.070424 224.776871 
L 275.881732 224.776871 
L 275.881732 220.944475 
L 277.43714 220.944475 
L 277.43714 217.112079 
L 278.76041 217.112079 
L 278.76041 213.279683 
L 281.252051 213.279683 
L 281.252051 209.447287 
L 281.374998 209.447287 
L 281.374998 205.614891 
L 282.944471 205.614891 
L 282.944471 201.782495 
L 282.995796 201.782495 
L 282.995796 197.950099 
L 284.251249 197.950099 
L 284.251249 194.117703 
L 284.917007 194.117703 
L 284.917007 190.285307 
L 287.979463 190.285307 
L 287.979463 186.452911 
L 290.262607 186.452911 
L 290.262607 182.620515 
L 291.46655 182.620515 
L 291.46655 178.788119 
L 292.273151 178.788119 
L 292.273151 174.955723 
L 294.742687 174.955723 
L 294.742687 171.123327 
L 297.025045 171.123327 
L 297.025045 167.290931 
L 299.727001 167.290931 
L 299.727001 163.458535 
L 299.787399 163.458535 
L 299.787399 159.626139 
L 302.32573 159.626139 
L 302.32573 155.793743 
L 320.555065 155.793743 
L 320.555065 151.961347 
L 321.873977 151.961347 
L 321.873977 148.12895 
L 332.215135 148.12895 
L 332.215135 144.296554 
L 334.94022 144.296554 
L 334.94022 140.464158 
L 368.649193 140.464158 
L 368.649193 136.631762 
L 372.205438 136.631762 
L 372.205438 132.799366 
L 376.688671 132.799366 
L 376.688671 128.96697 
L 388.714455 128.96697 
L 388.714455 125.134574 
L 392.580655 125.134574 
L 392.580655 121.302178 
L 392.580655 121.302178 
L 392.580655 121.302178 
L 460.8 121.302178 
" clip-path="url(#p40666ebd12)" style="fill: none; stroke: #bf00bf; stroke-width: 1.5; stroke-linecap: square"/>
   </g>
   <g id="line2d_120">
    <defs>
     <path id="mb2560f16a0" d="M 0 14.142136 
L 8.485281 0 
L 0 -14.142136 
L -8.485281 0 
z
" style="stroke: #bf00bf; stroke-width: 1.5; stroke-linejoin: miter"/>
    </defs>
    <g clip-path="url(#p40666ebd12)">
     <use xlink:href="#mb2560f16a0" x="273.137715" y="240.106455" style="fill-opacity: 0; stroke: #bf00bf; stroke-width: 1.5; stroke-linejoin: miter"/>
     <use xlink:href="#mb2560f16a0" x="302.32573" y="159.626139" style="fill-opacity: 0; stroke: #bf00bf; stroke-width: 1.5; stroke-linejoin: miter"/>
     <use xlink:href="#mb2560f16a0" x="372.205438" y="136.631762" style="fill-opacity: 0; stroke: #bf00bf; stroke-width: 1.5; stroke-linejoin: miter"/>
     <use xlink:href="#mb2560f16a0" x="392.580655" y="121.302178" style="fill-opacity: 0; stroke: #bf00bf; stroke-width: 1.5; stroke-linejoin: miter"/>
    </g>
   </g>
   <g id="line2d_121">
    <path clip-path="url(#p40666ebd12)" style="fill: none; stroke: #bf00bf; stroke-width: 1.5; stroke-linecap: square"/>
    <g clip-path="url(#p40666ebd12)">
     <use xlink:href="#mb2560f16a0" x="-1" y="581.189703" style="fill-opacity: 0; stroke: #bf00bf; stroke-width: 1.5; stroke-linejoin: miter"/>
     <use xlink:href="#mb2560f16a0" x="460.8" y="581.189703" style="fill-opacity: 0; stroke: #bf00bf; stroke-width: 1.5; stroke-linejoin: miter"/>
    </g>
   </g>
   <g id="line2d_122">
    <path d="M 246.045354 293.76 
L 246.045354 289.927604 
L 250.117457 289.927604 
L 250.117457 286.095208 
L 251.589988 286.095208 
L 251.589988 282.262812 
L 252.32908 282.262812 
L 252.32908 278.430416 
L 252.349221 278.430416 
L 252.349221 274.59802 
L 252.902321 274.59802 
L 252.902321 270.765624 
L 254.540647 270.765624 
L 254.540647 266.933228 
L 255.144424 266.933228 
L 255.144424 263.100832 
L 255.52319 263.100832 
L 255.52319 259.268436 
L 260.270789 259.268436 
L 260.270789 255.43604 
L 261.225024 255.43604 
L 261.225024 251.603644 
L 262.228764 251.603644 
L 262.228764 247.771248 
L 262.713263 247.771248 
L 262.713263 243.938851 
L 263.883473 243.938851 
L 263.883473 240.106455 
L 264.694516 240.106455 
L 264.694516 236.274059 
L 264.752836 236.274059 
L 264.752836 232.441663 
L 265.283348 232.441663 
L 265.283348 228.609267 
L 265.782987 228.609267 
L 265.782987 224.776871 
L 267.07065 224.776871 
L 267.07065 220.944475 
L 267.11177 220.944475 
L 267.11177 217.112079 
L 267.116337 217.112079 
L 267.116337 213.279683 
L 268.576654 213.279683 
L 268.576654 209.447287 
L 270.916725 209.447287 
L 270.916725 205.614891 
L 271.18045 205.614891 
L 271.18045 201.782495 
L 274.290825 201.782495 
L 274.290825 197.950099 
L 274.705088 197.950099 
L 274.705088 194.117703 
L 275.137149 194.117703 
L 275.137149 190.285307 
L 277.874131 190.285307 
L 277.874131 186.452911 
L 278.696333 186.452911 
L 278.696333 182.620515 
L 279.758205 182.620515 
L 279.758205 178.788119 
L 280.344647 178.788119 
L 280.344647 174.955723 
L 280.813812 174.955723 
L 280.813812 171.123327 
L 282.479423 171.123327 
L 282.479423 167.290931 
L 283.730912 167.290931 
L 283.730912 163.458535 
L 285.011588 163.458535 
L 285.011588 159.626139 
L 286.317307 159.626139 
L 286.317307 155.793743 
L 286.386411 155.793743 
L 286.386411 151.961347 
L 288.259258 151.961347 
L 288.259258 148.12895 
L 288.776485 148.12895 
L 288.776485 144.296554 
L 289.168866 144.296554 
L 289.168866 140.464158 
L 289.422286 140.464158 
L 289.422286 136.631762 
L 294.571313 136.631762 
L 294.571313 132.799366 
L 327.352472 132.799366 
L 327.352472 128.96697 
L 369.137463 128.96697 
L 369.137463 125.134574 
L 385.504452 125.134574 
L 385.504452 121.302178 
L 385.504452 121.302178 
L 385.504452 121.302178 
L 460.8 121.302178 
" clip-path="url(#p40666ebd12)" style="fill: none; stroke: #bf00bf; stroke-width: 1.5; stroke-linecap: square"/>
   </g>
   <g id="line2d_123">
    <defs>
     <path id="m597f97d29c" d="M 0 7.5 
C 1.989023 7.5 3.896849 6.709753 5.303301 5.303301 
C 6.709753 3.896849 7.5 1.989023 7.5 0 
C 7.5 -1.989023 6.709753 -3.896849 5.303301 -5.303301 
C 3.896849 -6.709753 1.989023 -7.5 0 -7.5 
C -1.989023 -7.5 -3.896849 -6.709753 -5.303301 -5.303301 
C -6.709753 -3.896849 -7.5 -1.989023 -7.5 0 
C -7.5 1.989023 -6.709753 3.896849 -5.303301 5.303301 
C -3.896849 6.709753 -1.989023 7.5 0 7.5 
z
" style="stroke: #bf00bf; stroke-width: 1.5"/>
    </defs>
    <g clip-path="url(#p40666ebd12)">
     <use xlink:href="#m597f97d29c" x="261.225024" y="255.43604" style="fill-opacity: 0; stroke: #bf00bf; stroke-width: 1.5"/>
     <use xlink:href="#m597f97d29c" x="289.422286" y="140.464158" style="fill-opacity: 0; stroke: #bf00bf; stroke-width: 1.5"/>
     <use xlink:href="#m597f97d29c" x="327.352472" y="132.799366" style="fill-opacity: 0; stroke: #bf00bf; stroke-width: 1.5"/>
     <use xlink:href="#m597f97d29c" x="385.504452" y="121.302178" style="fill-opacity: 0; stroke: #bf00bf; stroke-width: 1.5"/>
    </g>
   </g>
   <g id="line2d_124">
    <path clip-path="url(#p40666ebd12)" style="fill: none; stroke: #bf00bf; stroke-width: 1.5; stroke-linecap: square"/>
   </g>
   <g id="line2d_125">
    <path d="M 264.553206 293.76 
L 264.553206 289.927604 
L 266.974531 289.927604 
L 266.974531 286.095208 
L 268.987596 286.095208 
L 268.987596 282.262812 
L 269.217369 282.262812 
L 269.217369 278.430416 
L 270.854651 278.430416 
L 270.854651 274.59802 
L 271.102346 274.59802 
L 271.102346 270.765624 
L 271.417893 270.765624 
L 271.417893 266.933228 
L 272.400986 266.933228 
L 272.400986 263.100832 
L 272.98523 263.100832 
L 272.98523 259.268436 
L 276.019519 259.268436 
L 276.019519 255.43604 
L 278.780623 255.43604 
L 278.780623 251.603644 
L 284.145988 251.603644 
L 284.145988 247.771248 
L 291.408454 247.771248 
L 291.408454 243.938851 
L 294.564621 243.938851 
L 294.564621 240.106455 
L 296.215204 240.106455 
L 296.215204 236.274059 
L 297.329307 236.274059 
L 297.329307 232.441663 
L 298.49257 232.441663 
L 298.49257 228.609267 
L 299.15337 228.609267 
L 299.15337 224.776871 
L 301.8933 224.776871 
L 301.8933 220.944475 
L 302.681195 220.944475 
L 302.681195 217.112079 
L 304.761096 217.112079 
L 304.761096 213.279683 
L 306.937999 213.279683 
L 306.937999 209.447287 
L 307.56608 209.447287 
L 307.56608 205.614891 
L 309.048361 205.614891 
L 309.048361 201.782495 
L 311.29735 201.782495 
L 311.29735 197.950099 
L 313.253507 197.950099 
L 313.253507 194.117703 
L 315.125092 194.117703 
L 315.125092 190.285307 
L 320.302849 190.285307 
L 320.302849 186.452911 
L 320.650067 186.452911 
L 320.650067 182.620515 
L 324.104266 182.620515 
L 324.104266 178.788119 
L 327.198531 178.788119 
L 327.198531 174.955723 
L 329.076102 174.955723 
L 329.076102 171.123327 
L 333.630483 171.123327 
L 333.630483 167.290931 
L 334.905193 167.290931 
L 334.905193 163.458535 
L 335.983975 163.458535 
L 335.983975 159.626139 
L 338.464038 159.626139 
L 338.464038 155.793743 
L 342.053275 155.793743 
L 342.053275 151.961347 
L 375.047016 151.961347 
L 375.047016 148.12895 
L 377.682434 148.12895 
L 377.682434 144.296554 
L 393.881486 144.296554 
L 393.881486 140.464158 
L 394.609962 140.464158 
L 394.609962 136.631762 
L 396.91586 136.631762 
L 396.91586 132.799366 
L 397.496244 132.799366 
L 397.496244 128.96697 
L 400.58124 128.96697 
L 400.58124 125.134574 
L 401.370328 125.134574 
L 401.370328 121.302178 
L 401.370328 121.302178 
L 401.370328 121.302178 
L 460.8 121.302178 
" clip-path="url(#p40666ebd12)" style="fill: none; stroke: #ff0000; stroke-width: 3; stroke-linecap: square"/>
   </g>
   <g id="line2d_126">
    <defs>
     <path id="mb79e39d467" d="M 0 14.142136 
L 8.485281 0 
L 0 -14.142136 
L -8.485281 0 
z
" style="stroke: #ff0000; stroke-width: 3; stroke-linejoin: miter"/>
    </defs>
    <g clip-path="url(#p40666ebd12)">
     <use xlink:href="#mb79e39d467" x="307.56608" y="209.447287" style="fill-opacity: 0; stroke: #ff0000; stroke-width: 3; stroke-linejoin: miter"/>
     <use xlink:href="#mb79e39d467" x="338.464038" y="159.626139" style="fill-opacity: 0; stroke: #ff0000; stroke-width: 3; stroke-linejoin: miter"/>
     <use xlink:href="#mb79e39d467" x="401.370328" y="125.134574" style="fill-opacity: 0; stroke: #ff0000; stroke-width: 3; stroke-linejoin: miter"/>
     <use xlink:href="#mb79e39d467" x="401.370328" y="121.302178" style="fill-opacity: 0; stroke: #ff0000; stroke-width: 3; stroke-linejoin: miter"/>
    </g>
   </g>
   <g id="line2d_127">
    <path clip-path="url(#p40666ebd12)" style="fill: none; stroke: #ff0000; stroke-width: 3; stroke-linecap: square"/>
    <g clip-path="url(#p40666ebd12)">
     <use xlink:href="#mb79e39d467" x="-1" y="581.189703" style="fill-opacity: 0; stroke: #ff0000; stroke-width: 3; stroke-linejoin: miter"/>
     <use xlink:href="#mb79e39d467" x="460.8" y="581.189703" style="fill-opacity: 0; stroke: #ff0000; stroke-width: 3; stroke-linejoin: miter"/>
    </g>
   </g>
   <g id="line2d_128">
    <path d="M 265.08647 293.76 
L 265.08647 289.927604 
L 265.995139 289.927604 
L 265.995139 286.095208 
L 267.488926 286.095208 
L 267.488926 282.262812 
L 268.581049 282.262812 
L 268.581049 278.430416 
L 268.974548 278.430416 
L 268.974548 274.59802 
L 270.059555 274.59802 
L 270.059555 270.765624 
L 270.16512 270.765624 
L 270.16512 266.933228 
L 270.375382 266.933228 
L 270.375382 263.100832 
L 270.684468 263.100832 
L 270.684468 259.268436 
L 273.34009 259.268436 
L 273.34009 255.43604 
L 276.928009 255.43604 
L 276.928009 251.603644 
L 278.278907 251.603644 
L 278.278907 247.771248 
L 281.011322 247.771248 
L 281.011322 243.938851 
L 286.053569 243.938851 
L 286.053569 240.106455 
L 290.548581 240.106455 
L 290.548581 236.274059 
L 293.528952 236.274059 
L 293.528952 232.441663 
L 293.859876 232.441663 
L 293.859876 228.609267 
L 296.489886 228.609267 
L 296.489886 224.776871 
L 296.855194 224.776871 
L 296.855194 220.944475 
L 297.88979 220.944475 
L 297.88979 217.112079 
L 298.691408 217.112079 
L 298.691408 213.279683 
L 300.149731 213.279683 
L 300.149731 209.447287 
L 300.280643 209.447287 
L 300.280643 205.614891 
L 301.385043 205.614891 
L 301.385043 201.782495 
L 301.550874 201.782495 
L 301.550874 197.950099 
L 302.056951 197.950099 
L 302.056951 194.117703 
L 302.356692 194.117703 
L 302.356692 190.285307 
L 302.650494 190.285307 
L 302.650494 186.452911 
L 302.692025 186.452911 
L 302.692025 182.620515 
L 303.181569 182.620515 
L 303.181569 178.788119 
L 303.747544 178.788119 
L 303.747544 174.955723 
L 304.057046 174.955723 
L 304.057046 171.123327 
L 304.815772 171.123327 
L 304.815772 167.290931 
L 305.071033 167.290931 
L 305.071033 163.458535 
L 305.280773 163.458535 
L 305.280773 159.626139 
L 305.341451 159.626139 
L 305.341451 155.793743 
L 306.115042 155.793743 
L 306.115042 151.961347 
L 309.659608 151.961347 
L 309.659608 148.12895 
L 309.916053 148.12895 
L 309.916053 144.296554 
L 310.941024 144.296554 
L 310.941024 140.464158 
L 311.016621 140.464158 
L 311.016621 136.631762 
L 316.409368 136.631762 
L 316.409368 132.799366 
L 370.201911 132.799366 
L 370.201911 128.96697 
L 385.269339 128.96697 
L 385.269339 125.134574 
L 386.948764 125.134574 
L 386.948764 121.302178 
L 386.948764 121.302178 
L 386.948764 121.302178 
L 460.8 121.302178 
" clip-path="url(#p40666ebd12)" style="fill: none; stroke: #ff0000; stroke-width: 3; stroke-linecap: square"/>
   </g>
   <g id="line2d_129">
    <defs>
     <path id="m0ab9e22c99" d="M 0 7.5 
C 1.989023 7.5 3.896849 6.709753 5.303301 5.303301 
C 6.709753 3.896849 7.5 1.989023 7.5 0 
C 7.5 -1.989023 6.709753 -3.896849 5.303301 -5.303301 
C 3.896849 -6.709753 1.989023 -7.5 0 -7.5 
C -1.989023 -7.5 -3.896849 -6.709753 -5.303301 -5.303301 
C -6.709753 -3.896849 -7.5 -1.989023 -7.5 0 
C -7.5 1.989023 -6.709753 3.896849 -5.303301 5.303301 
C -3.896849 6.709753 -1.989023 7.5 0 7.5 
z
" style="stroke: #ff0000; stroke-width: 3"/>
    </defs>
    <g clip-path="url(#p40666ebd12)">
     <use xlink:href="#m0ab9e22c99" x="273.34009" y="259.268436" style="fill-opacity: 0; stroke: #ff0000; stroke-width: 3"/>
     <use xlink:href="#m0ab9e22c99" x="305.341451" y="159.626139" style="fill-opacity: 0; stroke: #ff0000; stroke-width: 3"/>
     <use xlink:href="#m0ab9e22c99" x="316.409368" y="136.631762" style="fill-opacity: 0; stroke: #ff0000; stroke-width: 3"/>
     <use xlink:href="#m0ab9e22c99" x="386.948764" y="121.302178" style="fill-opacity: 0; stroke: #ff0000; stroke-width: 3"/>
    </g>
   </g>
   <g id="line2d_130">
    <path clip-path="url(#p40666ebd12)" style="fill: none; stroke: #ff0000; stroke-width: 3; stroke-linecap: square"/>
   </g>
   <g id="line2d_131">
    <path d="M 441.808661 293.76 
L 441.808661 3.456 
" clip-path="url(#p40666ebd12)" style="fill: none; stroke: #000000; stroke-width: 1.5; stroke-linecap: square"/>
    <defs>
     <path id="mfe33d7e996" d="M -10 0 
L 10 0 
M 0 10 
L 0 -10 
" style="stroke: #000000; stroke-width: 3"/>
    </defs>
    <g clip-path="url(#p40666ebd12)">
     <use xlink:href="#mfe33d7e996" x="441.808661" y="293.76" style="stroke: #000000; stroke-width: 3"/>
     <use xlink:href="#mfe33d7e996" x="441.808661" y="3.456" style="stroke: #000000; stroke-width: 3"/>
    </g>
   </g>
   <g id="line2d_132">
    <path d="M 441.816557 293.76 
L 441.816557 3.456 
" clip-path="url(#p40666ebd12)" style="fill: none; stroke: #000000; stroke-width: 1.5; stroke-linecap: square"/>
    <defs>
     <path id="m96a5f32047" d="M 0 7.5 
C 1.989023 7.5 3.896849 6.709753 5.303301 5.303301 
C 6.709753 3.896849 7.5 1.989023 7.5 0 
C 7.5 -1.989023 6.709753 -3.896849 5.303301 -5.303301 
C 3.896849 -6.709753 1.989023 -7.5 0 -7.5 
C -1.989023 -7.5 -3.896849 -6.709753 -5.303301 -5.303301 
C -6.709753 -3.896849 -7.5 -1.989023 -7.5 0 
C -7.5 1.989023 -6.709753 3.896849 -5.303301 5.303301 
C -3.896849 6.709753 -1.989023 7.5 0 7.5 
z
" style="stroke: #000000; stroke-width: 3"/>
    </defs>
    <g clip-path="url(#p40666ebd12)">
     <use xlink:href="#m96a5f32047" x="441.816557" y="293.76" style="fill-opacity: 0; stroke: #000000; stroke-width: 3"/>
     <use xlink:href="#m96a5f32047" x="441.816557" y="3.456" style="fill-opacity: 0; stroke: #000000; stroke-width: 3"/>
    </g>
   </g>
   <g id="patch_3">
    <path d="M 62.208 293.76 
L 62.208 3.456 
" style="fill: none; stroke: #000000; stroke-width: 0.8; stroke-linejoin: miter; stroke-linecap: square"/>
   </g>
   <g id="patch_4">
    <path d="M 460.8 293.76 
L 460.8 3.456 
" style="fill: none; stroke: #000000; stroke-width: 0.8; stroke-linejoin: miter; stroke-linecap: square"/>
   </g>
   <g id="patch_5">
    <path d="M 62.208 293.76 
L 460.8 293.76 
" style="fill: none; stroke: #000000; stroke-width: 0.8; stroke-linejoin: miter; stroke-linecap: square"/>
   </g>
   <g id="patch_6">
    <path d="M 62.208 3.456 
L 460.8 3.456 
" style="fill: none; stroke: #000000; stroke-width: 0.8; stroke-linejoin: miter; stroke-linecap: square"/>
   </g>
   <g id="text_12">
    <!-- f10-f14 -->
    <g transform="translate(225.405563 24.458955) scale(0.2 -0.2)">
     <defs>
      <path id="DejaVuSans-2d" d="M 313 2009 
L 1997 2009 
L 1997 1497 
L 313 1497 
L 313 2009 
z
" transform="scale(0.015625)"/>
     </defs>
     <use xlink:href="#DejaVuSans-66"/>
     <use xlink:href="#DejaVuSans-31" x="35.205078"/>
     <use xlink:href="#DejaVuSans-30" x="98.828125"/>
     <use xlink:href="#DejaVuSans-2d" x="162.451172"/>
     <use xlink:href="#DejaVuSans-66" x="198.535156"/>
     <use xlink:href="#DejaVuSans-31" x="233.740234"/>
     <use xlink:href="#DejaVuSans-34" x="297.363281"/>
    </g>
   </g>
   <g id="text_13">
    <!-- absolute targets -->
    <g transform="translate(62.208 609.932673) scale(0.14 -0.14)">
     <defs>
      <path id="DejaVuSans-62" d="M 3116 1747 
Q 3116 2381 2855 2742 
Q 2594 3103 2138 3103 
Q 1681 3103 1420 2742 
Q 1159 2381 1159 1747 
Q 1159 1113 1420 752 
Q 1681 391 2138 391 
Q 2594 391 2855 752 
Q 3116 1113 3116 1747 
z
M 1159 2969 
Q 1341 3281 1617 3432 
Q 1894 3584 2278 3584 
Q 2916 3584 3314 3078 
Q 3713 2572 3713 1747 
Q 3713 922 3314 415 
Q 2916 -91 2278 -91 
Q 1894 -91 1617 61 
Q 1341 213 1159 525 
L 1159 0 
L 581 0 
L 581 4863 
L 1159 4863 
L 1159 2969 
z
" transform="scale(0.015625)"/>
      <path id="DejaVuSans-75" d="M 544 1381 
L 544 3500 
L 1119 3500 
L 1119 1403 
Q 1119 906 1312 657 
Q 1506 409 1894 409 
Q 2359 409 2629 706 
Q 2900 1003 2900 1516 
L 2900 3500 
L 3475 3500 
L 3475 0 
L 2900 0 
L 2900 538 
Q 2691 219 2414 64 
Q 2138 -91 1772 -91 
Q 1169 -91 856 284 
Q 544 659 544 1381 
z
M 1991 3584 
L 1991 3584 
z
" transform="scale(0.015625)"/>
      <path id="DejaVuSans-65" d="M 3597 1894 
L 3597 1613 
L 953 1613 
Q 991 1019 1311 708 
Q 1631 397 2203 397 
Q 2534 397 2845 478 
Q 3156 559 3463 722 
L 3463 178 
Q 3153 47 2828 -22 
Q 2503 -91 2169 -91 
Q 1331 -91 842 396 
Q 353 884 353 1716 
Q 353 2575 817 3079 
Q 1281 3584 2069 3584 
Q 2775 3584 3186 3129 
Q 3597 2675 3597 1894 
z
M 3022 2063 
Q 3016 2534 2758 2815 
Q 2500 3097 2075 3097 
Q 1594 3097 1305 2825 
Q 1016 2553 972 2059 
L 3022 2063 
z
" transform="scale(0.015625)"/>
     </defs>
     <use xlink:href="#DejaVuSans-61"/>
     <use xlink:href="#DejaVuSans-62" x="61.279297"/>
     <use xlink:href="#DejaVuSans-73" x="124.755859"/>
     <use xlink:href="#DejaVuSans-6f" x="176.855469"/>
     <use xlink:href="#DejaVuSans-6c" x="238.037109"/>
     <use xlink:href="#DejaVuSans-75" x="265.820312"/>
     <use xlink:href="#DejaVuSans-74" x="329.199219"/>
     <use xlink:href="#DejaVuSans-65" x="368.408203"/>
     <use xlink:href="#DejaVuSans-20" x="429.931641"/>
     <use xlink:href="#DejaVuSans-74" x="461.71875"/>
     <use xlink:href="#DejaVuSans-61" x="500.927734"/>
     <use xlink:href="#DejaVuSans-72" x="562.207031"/>
     <use xlink:href="#DejaVuSans-67" x="601.570312"/>
     <use xlink:href="#DejaVuSans-65" x="665.046875"/>
     <use xlink:href="#DejaVuSans-74" x="726.570312"/>
     <use xlink:href="#DejaVuSans-73" x="765.779297"/>
    </g>
   </g>
   <g id="text_14">
    <!-- v2.6.3 -->
    <g style="fill: #808080" transform="translate(245.82275 288.777272) scale(0.1 -0.1)">
     <defs>
      <path id="DejaVuSans-33" d="M 2597 2516 
Q 3050 2419 3304 2112 
Q 3559 1806 3559 1356 
Q 3559 666 3084 287 
Q 2609 -91 1734 -91 
Q 1441 -91 1130 -33 
Q 819 25 488 141 
L 488 750 
Q 750 597 1062 519 
Q 1375 441 1716 441 
Q 2309 441 2620 675 
Q 2931 909 2931 1356 
Q 2931 1769 2642 2001 
Q 2353 2234 1838 2234 
L 1294 2234 
L 1294 2753 
L 1863 2753 
Q 2328 2753 2575 2939 
Q 2822 3125 2822 3475 
Q 2822 3834 2567 4026 
Q 2313 4219 1838 4219 
Q 1578 4219 1281 4162 
Q 984 4106 628 3988 
L 628 4550 
Q 988 4650 1302 4700 
Q 1616 4750 1894 4750 
Q 2613 4750 3031 4423 
Q 3450 4097 3450 3541 
Q 3450 3153 3228 2886 
Q 3006 2619 2597 2516 
z
" transform="scale(0.015625)"/>
     </defs>
     <use xlink:href="#DejaVuSans-76"/>
     <use xlink:href="#DejaVuSans-32" x="59.179688"/>
     <use xlink:href="#DejaVuSans-2e" x="122.802734"/>
     <use xlink:href="#DejaVuSans-36" x="154.589844"/>
     <use xlink:href="#DejaVuSans-2e" x="218.212891"/>
     <use xlink:href="#DejaVuSans-33" x="250"/>
    </g>
   </g>
   <g id="legend_1">
    <g id="patch_7">
     <path d="M 76.208 136.881 
L 160.148625 136.881 
Q 164.148625 136.881 164.148625 132.881 
L 164.148625 17.456 
Q 164.148625 13.456 160.148625 13.456 
L 76.208 13.456 
Q 72.208 13.456 72.208 17.456 
L 72.208 132.881 
Q 72.208 136.881 76.208 136.881 
z
" style="fill: #ffffff; opacity: 0.2; stroke: #cccccc; stroke-linejoin: miter"/>
    </g>
    <g id="line2d_133">
     <path d="M 80.208 29.652875 
L 80.208 29.652875 
L 100.208 29.652875 
L 100.208 29.652875 
L 120.208 29.652875 
" style="fill: none; stroke: #000000; stroke-width: 1.5; stroke-linecap: square"/>
    </g>
    <g id="text_15">
     <!-- 1 -->
     <g transform="translate(136.208 36.652875) scale(0.2 -0.2)">
      <use xlink:href="#DejaVuSans-31"/>
     </g>
    </g>
    <g id="line2d_134">
     <path d="M 80.208 59.009125 
L 80.208 59.009125 
L 100.208 59.009125 
L 100.208 59.009125 
L 120.208 59.009125 
" style="fill: none; stroke: #00bfbf; stroke-width: 1.5; stroke-linecap: square"/>
    </g>
    <g id="text_16">
     <!-- -1 -->
     <g transform="translate(136.208 66.009125) scale(0.2 -0.2)">
      <use xlink:href="#DejaVuSans-2d"/>
      <use xlink:href="#DejaVuSans-31" x="36.083984"/>
     </g>
    </g>
    <g id="line2d_135">
     <path d="M 80.208 88.365375 
L 80.208 88.365375 
L 100.208 88.365375 
L 100.208 88.365375 
L 120.208 88.365375 
" style="fill: none; stroke: #bf00bf; stroke-width: 1.5; stroke-linecap: square"/>
    </g>
    <g id="text_17">
     <!-- -4 -->
     <g transform="translate(136.208 95.365375) scale(0.2 -0.2)">
      <use xlink:href="#DejaVuSans-2d"/>
      <use xlink:href="#DejaVuSans-34" x="36.083984"/>
     </g>
    </g>
    <g id="line2d_136">
     <path d="M 80.208 117.721625 
L 80.208 117.721625 
L 100.208 117.721625 
L 100.208 117.721625 
L 120.208 117.721625 
" style="fill: none; stroke: #ff0000; stroke-width: 3; stroke-linecap: square"/>
    </g>
    <g id="text_18">
     <!-- -8 -->
     <g transform="translate(136.208 124.721625) scale(0.2 -0.2)">
      <use xlink:href="#DejaVuSans-2d"/>
      <use xlink:href="#DejaVuSans-38" x="36.083984"/>
     </g>
    </g>
   </g>
  </g>
 </g>
 <defs>
  <clipPath id="p40666ebd12">
   <rect x="62.208" y="3.456" width="398.592" height="290.304"/>
  </clipPath>
 </defs>
</svg>
