<?xml version="1.0" encoding="utf-8" standalone="no"?>
<!DOCTYPE svg PUBLIC "-//W3C//DTD SVG 1.1//EN"
  "http://www.w3.org/Graphics/SVG/1.1/DTD/svg11.dtd">
<svg xmlns:xlink="http://www.w3.org/1999/xlink" width="460.8pt" height="345.6pt" viewBox="0 0 460.8 345.6" xmlns="http://www.w3.org/2000/svg" version="1.1">
 <metadata>
  <rdf:RDF xmlns:dc="http://purl.org/dc/elements/1.1/" xmlns:cc="http://creativecommons.org/ns#" xmlns:rdf="http://www.w3.org/1999/02/22-rdf-syntax-ns#">
   <cc:Work>
    <dc:type rdf:resource="http://purl.org/dc/dcmitype/StillImage"/>
    <dc:date>2024-06-07T14:05:13.156066</dc:date>
    <dc:format>image/svg+xml</dc:format>
    <dc:creator>
     <cc:Agent>
      <dc:title>Matplotlib v3.7.1, https://matplotlib.org/</dc:title>
     </cc:Agent>
    </dc:creator>
   </cc:Work>
  </rdf:RDF>
 </metadata>
 <defs>
  <style type="text/css">*{stroke-linejoin: round; stroke-linecap: butt}</style>
 </defs>
 <g id="figure_1">
  <g id="patch_1">
   <path d="M 0 345.6 
L 460.8 345.6 
L 460.8 0 
L 0 0 
z
" style="fill: #ffffff"/>
  </g>
  <g id="axes_1">
   <g id="patch_2">
    <path d="M 34.16 291.28 
L 453.192 291.28 
L 453.192 3 
L 34.16 3 
z
" style="fill: #ffffff"/>
   </g>
   <g id="matplotlib.axis_1">
    <g id="xtick_1">
     <g id="line2d_1">
      <path d="M 106.530542 291.28 
L 106.530542 3 
" clip-path="url(#p4418ce4cd3)" style="fill: none; stroke: #b0b0b0; stroke-width: 0.8; stroke-linecap: square"/>
     </g>
     <g id="line2d_2">
      <defs>
       <path id="m6a98d40cdf" d="M 0 0 
L 0 3.5 
" style="stroke: #000000; stroke-width: 0.8"/>
      </defs>
      <g>
       <use xlink:href="#m6a98d40cdf" x="106.530542" y="291.28" style="stroke: #000000; stroke-width: 0.8"/>
      </g>
     </g>
     <g id="text_1">
      <!-- -2 -->
      <g transform="translate(96.56023 313.476875) scale(0.2 -0.2)">
       <defs>
        <path id="DejaVuSans-2d" d="M 313 2009 
L 1997 2009 
L 1997 1497 
L 313 1497 
L 313 2009 
z
" transform="scale(0.015625)"/>
        <path id="DejaVuSans-32" d="M 1228 531 
L 3431 531 
L 3431 0 
L 469 0 
L 469 531 
Q 828 903 1448 1529 
Q 2069 2156 2228 2338 
Q 2531 2678 2651 2914 
Q 2772 3150 2772 3378 
Q 2772 3750 2511 3984 
Q 2250 4219 1831 4219 
Q 1534 4219 1204 4116 
Q 875 4013 500 3803 
L 500 4441 
Q 881 4594 1212 4672 
Q 1544 4750 1819 4750 
Q 2544 4750 2975 4387 
Q 3406 4025 3406 3419 
Q 3406 3131 3298 2873 
Q 3191 2616 2906 2266 
Q 2828 2175 2409 1742 
Q 1991 1309 1228 531 
z
" transform="scale(0.015625)"/>
       </defs>
       <use xlink:href="#DejaVuSans-2d"/>
       <use xlink:href="#DejaVuSans-32" x="36.083984"/>
      </g>
     </g>
    </g>
    <g id="xtick_2">
     <g id="line2d_3">
      <path d="M 243.676 291.28 
L 243.676 3 
" clip-path="url(#p4418ce4cd3)" style="fill: none; stroke: #b0b0b0; stroke-width: 0.8; stroke-linecap: square"/>
     </g>
     <g id="line2d_4">
      <g>
       <use xlink:href="#m6a98d40cdf" x="243.676" y="291.28" style="stroke: #000000; stroke-width: 0.8"/>
      </g>
     </g>
     <g id="text_2">
      <!-- 0 -->
      <g transform="translate(237.3135 313.476875) scale(0.2 -0.2)">
       <defs>
        <path id="DejaVuSans-30" d="M 2034 4250 
Q 1547 4250 1301 3770 
Q 1056 3291 1056 2328 
Q 1056 1369 1301 889 
Q 1547 409 2034 409 
Q 2525 409 2770 889 
Q 3016 1369 3016 2328 
Q 3016 3291 2770 3770 
Q 2525 4250 2034 4250 
z
M 2034 4750 
Q 2819 4750 3233 4129 
Q 3647 3509 3647 2328 
Q 3647 1150 3233 529 
Q 2819 -91 2034 -91 
Q 1250 -91 836 529 
Q 422 1150 422 2328 
Q 422 3509 836 4129 
Q 1250 4750 2034 4750 
z
" transform="scale(0.015625)"/>
       </defs>
       <use xlink:href="#DejaVuSans-30"/>
      </g>
     </g>
    </g>
    <g id="xtick_3">
     <g id="line2d_5">
      <path d="M 380.821458 291.28 
L 380.821458 3 
" clip-path="url(#p4418ce4cd3)" style="fill: none; stroke: #b0b0b0; stroke-width: 0.8; stroke-linecap: square"/>
     </g>
     <g id="line2d_6">
      <g>
       <use xlink:href="#m6a98d40cdf" x="380.821458" y="291.28" style="stroke: #000000; stroke-width: 0.8"/>
      </g>
     </g>
     <g id="text_3">
      <!-- 2 -->
      <g transform="translate(374.458958 313.476875) scale(0.2 -0.2)">
       <use xlink:href="#DejaVuSans-32"/>
      </g>
     </g>
    </g>
    <g id="text_4">
     <!-- log10 of FEvals ratio -->
     <g transform="translate(141.371312 336.833125) scale(0.2 -0.2)">
      <defs>
       <path id="DejaVuSans-6c" d="M 603 4863 
L 1178 4863 
L 1178 0 
L 603 0 
L 603 4863 
z
" transform="scale(0.015625)"/>
       <path id="DejaVuSans-6f" d="M 1959 3097 
Q 1497 3097 1228 2736 
Q 959 2375 959 1747 
Q 959 1119 1226 758 
Q 1494 397 1959 397 
Q 2419 397 2687 759 
Q 2956 1122 2956 1747 
Q 2956 2369 2687 2733 
Q 2419 3097 1959 3097 
z
M 1959 3584 
Q 2709 3584 3137 3096 
Q 3566 2609 3566 1747 
Q 3566 888 3137 398 
Q 2709 -91 1959 -91 
Q 1206 -91 779 398 
Q 353 888 353 1747 
Q 353 2609 779 3096 
Q 1206 3584 1959 3584 
z
" transform="scale(0.015625)"/>
       <path id="DejaVuSans-67" d="M 2906 1791 
Q 2906 2416 2648 2759 
Q 2391 3103 1925 3103 
Q 1463 3103 1205 2759 
Q 947 2416 947 1791 
Q 947 1169 1205 825 
Q 1463 481 1925 481 
Q 2391 481 2648 825 
Q 2906 1169 2906 1791 
z
M 3481 434 
Q 3481 -459 3084 -895 
Q 2688 -1331 1869 -1331 
Q 1566 -1331 1297 -1286 
Q 1028 -1241 775 -1147 
L 775 -588 
Q 1028 -725 1275 -790 
Q 1522 -856 1778 -856 
Q 2344 -856 2625 -561 
Q 2906 -266 2906 331 
L 2906 616 
Q 2728 306 2450 153 
Q 2172 0 1784 0 
Q 1141 0 747 490 
Q 353 981 353 1791 
Q 353 2603 747 3093 
Q 1141 3584 1784 3584 
Q 2172 3584 2450 3431 
Q 2728 3278 2906 2969 
L 2906 3500 
L 3481 3500 
L 3481 434 
z
" transform="scale(0.015625)"/>
       <path id="DejaVuSans-31" d="M 794 531 
L 1825 531 
L 1825 4091 
L 703 3866 
L 703 4441 
L 1819 4666 
L 2450 4666 
L 2450 531 
L 3481 531 
L 3481 0 
L 794 0 
L 794 531 
z
" transform="scale(0.015625)"/>
       <path id="DejaVuSans-20" transform="scale(0.015625)"/>
       <path id="DejaVuSans-66" d="M 2375 4863 
L 2375 4384 
L 1825 4384 
Q 1516 4384 1395 4259 
Q 1275 4134 1275 3809 
L 1275 3500 
L 2222 3500 
L 2222 3053 
L 1275 3053 
L 1275 0 
L 697 0 
L 697 3053 
L 147 3053 
L 147 3500 
L 697 3500 
L 697 3744 
Q 697 4328 969 4595 
Q 1241 4863 1831 4863 
L 2375 4863 
z
" transform="scale(0.015625)"/>
       <path id="DejaVuSans-46" d="M 628 4666 
L 3309 4666 
L 3309 4134 
L 1259 4134 
L 1259 2759 
L 3109 2759 
L 3109 2228 
L 1259 2228 
L 1259 0 
L 628 0 
L 628 4666 
z
" transform="scale(0.015625)"/>
       <path id="DejaVuSans-45" d="M 628 4666 
L 3578 4666 
L 3578 4134 
L 1259 4134 
L 1259 2753 
L 3481 2753 
L 3481 2222 
L 1259 2222 
L 1259 531 
L 3634 531 
L 3634 0 
L 628 0 
L 628 4666 
z
" transform="scale(0.015625)"/>
       <path id="DejaVuSans-76" d="M 191 3500 
L 800 3500 
L 1894 563 
L 2988 3500 
L 3597 3500 
L 2284 0 
L 1503 0 
L 191 3500 
z
" transform="scale(0.015625)"/>
       <path id="DejaVuSans-61" d="M 2194 1759 
Q 1497 1759 1228 1600 
Q 959 1441 959 1056 
Q 959 750 1161 570 
Q 1363 391 1709 391 
Q 2188 391 2477 730 
Q 2766 1069 2766 1631 
L 2766 1759 
L 2194 1759 
z
M 3341 1997 
L 3341 0 
L 2766 0 
L 2766 531 
Q 2569 213 2275 61 
Q 1981 -91 1556 -91 
Q 1019 -91 701 211 
Q 384 513 384 1019 
Q 384 1609 779 1909 
Q 1175 2209 1959 2209 
L 2766 2209 
L 2766 2266 
Q 2766 2663 2505 2880 
Q 2244 3097 1772 3097 
Q 1472 3097 1187 3025 
Q 903 2953 641 2809 
L 641 3341 
Q 956 3463 1253 3523 
Q 1550 3584 1831 3584 
Q 2591 3584 2966 3190 
Q 3341 2797 3341 1997 
z
" transform="scale(0.015625)"/>
       <path id="DejaVuSans-73" d="M 2834 3397 
L 2834 2853 
Q 2591 2978 2328 3040 
Q 2066 3103 1784 3103 
Q 1356 3103 1142 2972 
Q 928 2841 928 2578 
Q 928 2378 1081 2264 
Q 1234 2150 1697 2047 
L 1894 2003 
Q 2506 1872 2764 1633 
Q 3022 1394 3022 966 
Q 3022 478 2636 193 
Q 2250 -91 1575 -91 
Q 1294 -91 989 -36 
Q 684 19 347 128 
L 347 722 
Q 666 556 975 473 
Q 1284 391 1588 391 
Q 1994 391 2212 530 
Q 2431 669 2431 922 
Q 2431 1156 2273 1281 
Q 2116 1406 1581 1522 
L 1381 1569 
Q 847 1681 609 1914 
Q 372 2147 372 2553 
Q 372 3047 722 3315 
Q 1072 3584 1716 3584 
Q 2034 3584 2315 3537 
Q 2597 3491 2834 3397 
z
" transform="scale(0.015625)"/>
       <path id="DejaVuSans-72" d="M 2631 2963 
Q 2534 3019 2420 3045 
Q 2306 3072 2169 3072 
Q 1681 3072 1420 2755 
Q 1159 2438 1159 1844 
L 1159 0 
L 581 0 
L 581 3500 
L 1159 3500 
L 1159 2956 
Q 1341 3275 1631 3429 
Q 1922 3584 2338 3584 
Q 2397 3584 2469 3576 
Q 2541 3569 2628 3553 
L 2631 2963 
z
" transform="scale(0.015625)"/>
       <path id="DejaVuSans-74" d="M 1172 4494 
L 1172 3500 
L 2356 3500 
L 2356 3053 
L 1172 3053 
L 1172 1153 
Q 1172 725 1289 603 
Q 1406 481 1766 481 
L 2356 481 
L 2356 0 
L 1766 0 
Q 1100 0 847 248 
Q 594 497 594 1153 
L 594 3053 
L 172 3053 
L 172 3500 
L 594 3500 
L 594 4494 
L 1172 4494 
z
" transform="scale(0.015625)"/>
       <path id="DejaVuSans-69" d="M 603 3500 
L 1178 3500 
L 1178 0 
L 603 0 
L 603 3500 
z
M 603 4863 
L 1178 4863 
L 1178 4134 
L 603 4134 
L 603 4863 
z
" transform="scale(0.015625)"/>
      </defs>
      <use xlink:href="#DejaVuSans-6c"/>
      <use xlink:href="#DejaVuSans-6f" x="27.783203"/>
      <use xlink:href="#DejaVuSans-67" x="88.964844"/>
      <use xlink:href="#DejaVuSans-31" x="152.441406"/>
      <use xlink:href="#DejaVuSans-30" x="216.064453"/>
      <use xlink:href="#DejaVuSans-20" x="279.6875"/>
      <use xlink:href="#DejaVuSans-6f" x="311.474609"/>
      <use xlink:href="#DejaVuSans-66" x="372.65625"/>
      <use xlink:href="#DejaVuSans-20" x="407.861328"/>
      <use xlink:href="#DejaVuSans-46" x="439.648438"/>
      <use xlink:href="#DejaVuSans-45" x="497.167969"/>
      <use xlink:href="#DejaVuSans-76" x="560.351562"/>
      <use xlink:href="#DejaVuSans-61" x="619.53125"/>
      <use xlink:href="#DejaVuSans-6c" x="680.810547"/>
      <use xlink:href="#DejaVuSans-73" x="708.59375"/>
      <use xlink:href="#DejaVuSans-20" x="760.693359"/>
      <use xlink:href="#DejaVuSans-72" x="792.480469"/>
      <use xlink:href="#DejaVuSans-61" x="833.59375"/>
      <use xlink:href="#DejaVuSans-74" x="894.873047"/>
      <use xlink:href="#DejaVuSans-69" x="934.082031"/>
      <use xlink:href="#DejaVuSans-6f" x="961.865234"/>
     </g>
    </g>
   </g>
   <g id="matplotlib.axis_2">
    <g id="ytick_1">
     <g id="line2d_7">
      <path d="M 34.16 288.453725 
L 453.192 288.453725 
" clip-path="url(#p4418ce4cd3)" style="fill: none; stroke: #b0b0b0; stroke-width: 0.8; stroke-linecap: square"/>
     </g>
     <g id="line2d_8">
      <defs>
       <path id="mf3511a7c33" d="M 0 0 
L -3.5 0 
" style="stroke: #000000; stroke-width: 0.8"/>
      </defs>
      <g>
       <use xlink:href="#mf3511a7c33" x="34.16" y="288.453725" style="stroke: #000000; stroke-width: 0.8"/>
      </g>
     </g>
    </g>
    <g id="ytick_2">
     <g id="line2d_9">
      <path d="M 34.16 217.796863 
L 453.192 217.796863 
" clip-path="url(#p4418ce4cd3)" style="fill: none; stroke: #b0b0b0; stroke-width: 0.8; stroke-linecap: square"/>
     </g>
     <g id="line2d_10">
      <g>
       <use xlink:href="#mf3511a7c33" x="34.16" y="217.796863" style="stroke: #000000; stroke-width: 0.8"/>
      </g>
     </g>
    </g>
    <g id="ytick_3">
     <g id="line2d_11">
      <path d="M 34.16 147.14 
L 453.192 147.14 
" clip-path="url(#p4418ce4cd3)" style="fill: none; stroke: #b0b0b0; stroke-width: 0.8; stroke-linecap: square"/>
     </g>
     <g id="line2d_12">
      <g>
       <use xlink:href="#mf3511a7c33" x="34.16" y="147.14" style="stroke: #000000; stroke-width: 0.8"/>
      </g>
     </g>
    </g>
    <g id="ytick_4">
     <g id="line2d_13">
      <path d="M 34.16 76.483137 
L 453.192 76.483137 
" clip-path="url(#p4418ce4cd3)" style="fill: none; stroke: #b0b0b0; stroke-width: 0.8; stroke-linecap: square"/>
     </g>
     <g id="line2d_14">
      <g>
       <use xlink:href="#mf3511a7c33" x="34.16" y="76.483137" style="stroke: #000000; stroke-width: 0.8"/>
      </g>
     </g>
    </g>
    <g id="ytick_5">
     <g id="line2d_15">
      <path d="M 34.16 5.826275 
L 453.192 5.826275 
" clip-path="url(#p4418ce4cd3)" style="fill: none; stroke: #b0b0b0; stroke-width: 0.8; stroke-linecap: square"/>
     </g>
     <g id="line2d_16">
      <g>
       <use xlink:href="#mf3511a7c33" x="34.16" y="5.826275" style="stroke: #000000; stroke-width: 0.8"/>
      </g>
     </g>
    </g>
    <g id="text_5">
     <!-- proportion of trials -->
     <g transform="translate(19.000625 240.14625) rotate(-90) scale(0.2 -0.2)">
      <defs>
       <path id="DejaVuSans-70" d="M 1159 525 
L 1159 -1331 
L 581 -1331 
L 581 3500 
L 1159 3500 
L 1159 2969 
Q 1341 3281 1617 3432 
Q 1894 3584 2278 3584 
Q 2916 3584 3314 3078 
Q 3713 2572 3713 1747 
Q 3713 922 3314 415 
Q 2916 -91 2278 -91 
Q 1894 -91 1617 61 
Q 1341 213 1159 525 
z
M 3116 1747 
Q 3116 2381 2855 2742 
Q 2594 3103 2138 3103 
Q 1681 3103 1420 2742 
Q 1159 2381 1159 1747 
Q 1159 1113 1420 752 
Q 1681 391 2138 391 
Q 2594 391 2855 752 
Q 3116 1113 3116 1747 
z
" transform="scale(0.015625)"/>
       <path id="DejaVuSans-6e" d="M 3513 2113 
L 3513 0 
L 2938 0 
L 2938 2094 
Q 2938 2591 2744 2837 
Q 2550 3084 2163 3084 
Q 1697 3084 1428 2787 
Q 1159 2491 1159 1978 
L 1159 0 
L 581 0 
L 581 3500 
L 1159 3500 
L 1159 2956 
Q 1366 3272 1645 3428 
Q 1925 3584 2291 3584 
Q 2894 3584 3203 3211 
Q 3513 2838 3513 2113 
z
" transform="scale(0.015625)"/>
      </defs>
      <use xlink:href="#DejaVuSans-70"/>
      <use xlink:href="#DejaVuSans-72" x="63.476562"/>
      <use xlink:href="#DejaVuSans-6f" x="102.339844"/>
      <use xlink:href="#DejaVuSans-70" x="163.521484"/>
      <use xlink:href="#DejaVuSans-6f" x="226.998047"/>
      <use xlink:href="#DejaVuSans-72" x="288.179688"/>
      <use xlink:href="#DejaVuSans-74" x="329.292969"/>
      <use xlink:href="#DejaVuSans-69" x="368.501953"/>
      <use xlink:href="#DejaVuSans-6f" x="396.285156"/>
      <use xlink:href="#DejaVuSans-6e" x="457.466797"/>
      <use xlink:href="#DejaVuSans-20" x="520.845703"/>
      <use xlink:href="#DejaVuSans-6f" x="552.632812"/>
      <use xlink:href="#DejaVuSans-66" x="613.814453"/>
      <use xlink:href="#DejaVuSans-20" x="649.019531"/>
      <use xlink:href="#DejaVuSans-74" x="680.806641"/>
      <use xlink:href="#DejaVuSans-72" x="720.015625"/>
      <use xlink:href="#DejaVuSans-69" x="761.128906"/>
      <use xlink:href="#DejaVuSans-61" x="788.912109"/>
      <use xlink:href="#DejaVuSans-6c" x="850.191406"/>
      <use xlink:href="#DejaVuSans-73" x="877.974609"/>
     </g>
    </g>
   </g>
   <g id="line2d_17">
    <path d="M 34.16 288.453725 
L 52.593608 288.453725 
L 52.593608 288.00511 
L 53.47142 288.00511 
L 53.47142 287.556495 
L 53.62176 287.556495 
L 53.62176 287.10788 
L 54.499572 287.10788 
L 54.499572 286.659265 
L 58.430571 286.659265 
L 58.430571 286.21065 
L 59.458723 286.21065 
L 59.458723 285.762035 
L 65.505259 285.762035 
L 65.505259 285.31342 
L 66.533411 285.31342 
L 66.533411 284.864805 
L 72.00178 284.864805 
L 72.00178 284.41619 
L 73.029933 284.41619 
L 73.029933 283.967575 
L 75.521729 283.967575 
L 75.521729 283.51896 
L 76.549881 283.51896 
L 76.549881 283.070345 
L 102.855165 283.070345 
L 102.855165 282.62173 
L 103.732977 282.62173 
L 103.732977 282.173115 
L 108.692128 282.173115 
L 108.692128 281.7245 
L 115.766816 281.7245 
L 115.766816 281.275885 
L 119.458299 281.275885 
L 119.458299 280.82727 
L 120.336111 280.82727 
L 120.336111 280.378655 
L 122.263338 280.378655 
L 122.263338 279.93004 
L 124.329954 279.93004 
L 124.329954 279.481425 
L 125.207766 279.481425 
L 125.295262 278.584195 
L 125.783286 278.584195 
L 125.783286 278.13558 
L 130.166916 278.13558 
L 130.166916 277.686965 
L 132.36995 277.686965 
L 132.36995 277.23835 
L 137.241605 277.23835 
L 137.241605 276.789735 
L 138.866471 276.789735 
L 138.866471 276.34112 
L 142.38642 276.34112 
L 142.38642 275.892505 
L 143.738126 275.892505 
L 143.738126 275.44389 
L 144.448001 275.44389 
L 144.448001 274.995275 
L 145.325814 274.995275 
L 145.325814 274.54666 
L 145.536053 274.54666 
L 145.536053 274.098045 
L 145.71737 274.098045 
L 145.71737 273.64943 
L 146.413865 273.64943 
L 146.413865 273.200815 
L 146.595182 273.200815 
L 146.595182 272.7522 
L 146.745476 272.7522 
L 146.745476 272.303585 
L 147.258075 272.303585 
L 147.258075 271.85497 
L 147.623288 271.85497 
L 147.623288 271.406355 
L 148.258533 271.406355 
L 148.258533 270.95774 
L 148.706647 270.95774 
L 148.706647 270.509125 
L 148.860996 270.509125 
L 148.860996 270.06051 
L 149.30911 270.06051 
L 149.30911 269.611895 
L 150.284964 269.611895 
L 150.318017 268.714665 
L 150.920481 268.714665 
L 150.920481 268.26605 
L 151.153992 268.26605 
L 151.153992 267.817435 
L 151.373016 267.817435 
L 151.373016 267.36882 
L 151.554332 267.36882 
L 151.554332 266.920205 
L 151.671195 266.920205 
L 151.756455 266.022975 
L 152.133593 266.022975 
L 152.133593 265.57436 
L 152.581707 265.57436 
L 152.582439 264.67713 
L 152.699347 264.67713 
L 152.699347 264.228515 
L 152.941852 264.228515 
L 152.941852 263.7799 
L 153.070505 263.7799 
L 153.114695 262.88267 
L 153.389966 262.88267 
L 153.490974 261.98544 
L 153.562809 261.98544 
L 153.562809 261.536825 
L 153.948317 261.536825 
L 153.948317 261.08821 
L 154.193077 261.08821 
L 154.193077 260.639595 
L 154.519126 260.639595 
L 154.519126 260.19098 
L 155.001336 260.19098 
L 155.029052 259.29375 
L 155.146367 259.29375 
L 155.174179 258.39652 
L 155.575614 258.39652 
L 155.594481 257.050675 
L 155.837311 257.050675 
L 155.837311 256.60206 
L 156.010154 256.60206 
L 156.04184 255.70483 
L 156.603766 255.70483 
L 156.603766 255.256215 
L 157.10859 255.256215 
L 157.205851 254.358985 
L 157.359653 254.358985 
L 157.359653 253.91037 
L 157.556704 253.91037 
L 157.65321 253.01314 
L 157.823362 253.01314 
L 157.823362 252.564525 
L 158.041826 252.564525 
L 158.041826 252.11591 
L 158.271476 252.11591 
L 158.271476 251.667295 
L 158.447704 251.667295 
L 158.489185 250.770065 
L 158.629021 250.770065 
L 158.629021 250.32145 
L 158.907468 250.32145 
L 158.907468 249.872835 
L 159.168074 249.872835 
L 159.168074 249.42422 
L 159.657128 249.42422 
L 159.657128 248.975605 
L 159.842688 248.975605 
L 159.882847 247.62976 
L 160.004049 247.62976 
L 160.004049 247.181145 
L 160.290802 247.181145 
L 160.318288 246.283915 
L 160.718821 246.283915 
L 160.718821 245.8353 
L 161.291768 245.8353 
L 161.291768 245.386685 
L 161.739882 245.386685 
L 161.739882 244.93807 
L 161.902173 244.93807 
L 161.929659 244.04084 
L 162.738147 244.04084 
L 162.765633 243.14361 
L 163.316728 243.14361 
L 163.351252 242.24638 
L 163.764842 242.24638 
L 163.856174 241.34915 
L 164.187227 241.34915 
L 164.187227 240.900535 
L 164.944226 240.900535 
L 164.944226 240.45192 
L 165.125542 240.45192 
L 165.125542 240.003305 
L 165.376213 240.003305 
L 165.376213 239.55469 
L 165.982156 239.55469 
L 165.982156 239.106075 
L 166.153649 239.106075 
L 166.212187 238.208845 
L 167.376122 238.208845 
L 167.376122 237.76023 
L 168.464174 237.76023 
L 168.464174 237.311615 
L 168.645491 237.311615 
L 168.645491 236.863 
L 169.673597 236.863 
L 169.673597 236.414385 
L 170.035434 236.414385 
L 170.035434 235.96577 
L 170.40418 235.96577 
L 170.483548 235.06854 
L 170.852294 235.06854 
L 170.852294 234.619925 
L 172.094918 234.619925 
L 172.094918 234.17131 
L 172.463665 234.17131 
L 172.478677 233.27408 
L 172.930893 233.27408 
L 172.930893 232.825465 
L 173.299639 232.825465 
L 173.299639 232.37685 
L 174.964948 232.37685 
L 174.964948 231.928235 
L 175.9931 231.928235 
L 175.998626 231.031005 
L 180.719713 231.031005 
L 180.719713 230.58239 
L 181.163755 230.58239 
L 181.163755 230.133775 
L 181.747866 230.133775 
L 181.747866 229.68516 
L 182.191908 229.68516 
L 182.191908 229.236545 
L 201.932752 229.236545 
L 201.932752 228.78793 
L 203.752531 228.78793 
L 203.752531 228.339315 
L 205.837171 228.339315 
L 205.837171 227.8907 
L 213.432625 227.8907 
L 213.432625 227.442085 
L 214.460777 227.442085 
L 214.460777 226.99347 
L 218.535886 226.99347 
L 218.535886 226.544855 
L 220.355665 226.544855 
L 220.355665 226.09624 
L 222.440304 226.09624 
L 222.440304 225.647625 
L 223.40754 225.647625 
L 223.40754 225.19901 
L 225.226505 225.19901 
L 225.22732 224.30178 
L 227.311959 224.30178 
L 227.311959 223.853165 
L 227.74964 223.853165 
L 227.74964 223.40455 
L 228.352104 223.40455 
L 228.352104 222.955935 
L 228.693194 222.955935 
L 228.693194 222.50732 
L 228.847499 222.50732 
L 228.847499 222.058705 
L 229.571006 222.058705 
L 229.571006 221.61009 
L 229.725311 221.61009 
L 229.725311 221.161475 
L 230.98127 221.161475 
L 230.98127 220.71286 
L 231.425312 220.71286 
L 231.425312 220.264245 
L 231.6247 220.264245 
L 231.6247 219.81563 
L 232.114416 219.81563 
L 232.114416 219.367015 
L 232.432959 219.367015 
L 232.451487 218.469785 
L 232.605802 218.469785 
L 232.605802 218.02117 
L 232.992228 218.02117 
L 233.05395 217.12394 
L 234.530157 217.12394 
L 234.637474 216.22671 
L 234.684462 216.22671 
L 234.765719 215.32948 
L 235.084833 215.32948 
L 235.084833 214.880865 
L 235.368182 214.880865 
L 235.368182 214.43225 
L 236.326546 214.43225 
L 236.326546 213.983635 
L 236.599697 213.983635 
L 236.599697 213.53502 
L 237.134805 213.53502 
L 237.134805 213.086405 
L 237.307648 213.086405 
L 237.31447 212.189175 
L 237.951379 212.189175 
L 237.951379 211.74056 
L 238.616278 211.74056 
L 238.640779 210.84333 
L 239.333796 210.84333 
L 239.361281 209.497485 
L 239.449038 209.497485 
L 239.49409 208.600255 
L 239.621881 208.600255 
L 239.621881 208.15164 
L 239.786679 208.15164 
L 239.786679 207.703025 
L 240.123285 207.703025 
L 240.123285 207.25441 
L 240.340136 207.25441 
L 240.340136 206.805795 
L 240.725748 206.805795 
L 240.782875 205.908565 
L 240.942599 205.908565 
L 240.942599 205.45995 
L 241.301544 205.45995 
L 241.301544 205.011335 
L 241.604846 205.011335 
L 241.653553 204.114105 
L 241.75915 204.114105 
L 241.829639 203.216875 
L 242.016316 203.216875 
L 242.100912 202.319645 
L 242.807835 202.319645 
L 242.807835 201.87103 
L 243.35317 201.87103 
L 243.35317 201.422415 
L 243.514148 201.422415 
L 243.615776 200.07657 
L 243.955634 200.07657 
L 244.063128 198.28211 
L 244.116611 198.28211 
L 244.215196 197.38488 
L 244.330548 197.38488 
L 244.330548 196.936265 
L 244.453241 196.936265 
L 244.453241 196.48765 
L 244.61364 196.48765 
L 244.708008 195.59042 
L 244.794956 195.59042 
L 244.806603 194.69319 
L 244.979446 194.69319 
L 245.026067 193.347345 
L 245.196298 193.347345 
L 245.196298 192.89873 
L 245.310471 192.89873 
L 245.345367 192.0015 
L 245.484721 192.0015 
L 245.484721 191.552885 
L 245.823063 191.552885 
L 245.823063 191.10427 
L 246.349874 191.10427 
L 246.433419 189.758425 
L 246.614736 189.758425 
L 246.701294 188.861195 
L 247.011119 188.861195 
L 247.011119 188.41258 
L 247.22797 188.41258 
L 247.22823 187.51535 
L 247.389207 187.51535 
L 247.458477 186.169505 
L 247.509682 186.169505 
L 247.584404 185.272275 
L 247.642842 185.272275 
L 247.675329 184.375045 
L 247.798954 184.375045 
L 247.798954 183.92643 
L 247.943894 183.92643 
L 248.036489 182.580585 
L 248.101367 182.580585 
L 248.209332 181.23474 
L 248.255672 181.23474 
L 248.255672 180.786125 
L 248.370309 180.786125 
L 248.370309 180.33751 
L 248.518059 180.33751 
L 248.583067 178.991665 
L 248.699375 178.991665 
L 248.699375 178.54305 
L 248.973342 178.54305 
L 248.973342 178.094435 
L 249.190193 178.094435 
L 249.190193 177.64582 
L 249.391326 177.64582 
L 249.391326 177.197205 
L 249.526541 177.197205 
L 249.564169 176.299975 
L 249.688114 176.299975 
L 249.727482 175.402745 
L 249.823914 175.402745 
L 249.904965 173.608285 
L 250.241004 173.608285 
L 250.241004 173.15967 
L 250.401982 173.15967 
L 250.480853 172.26244 
L 250.688363 172.26244 
L 250.688363 171.813825 
L 250.84934 171.813825 
L 250.84934 171.36521 
L 251.259032 171.36521 
L 251.259032 170.916595 
L 251.522588 170.916595 
L 251.621315 169.122135 
L 251.70744 169.122135 
L 251.77562 167.77629 
L 251.818954 167.77629 
L 251.924291 166.430445 
L 251.951777 166.430445 
L 252.0432 165.533215 
L 252.148092 165.533215 
L 252.203227 164.635985 
L 252.364205 164.635985 
L 252.456059 163.738755 
L 252.627213 163.738755 
L 252.627213 163.29014 
L 252.800056 163.29014 
L 252.900101 162.39291 
L 252.918 162.39291 
L 252.918 161.944295 
L 253.078977 161.944295 
L 253.15652 161.047065 
L 253.373371 161.047065 
L 253.373371 160.59845 
L 253.558065 160.59845 
L 253.558065 160.149835 
L 253.753449 160.149835 
L 253.753449 159.70122 
L 253.967871 159.70122 
L 253.967871 159.252605 
L 254.228387 159.252605 
L 254.272837 158.355375 
L 254.561708 158.355375 
L 254.597134 157.458145 
L 254.734551 157.458145 
L 254.831728 156.560915 
L 254.937326 156.560915 
L 255.042537 155.21507 
L 255.098303 155.21507 
L 255.18148 153.42061 
L 255.279087 153.42061 
L 255.279087 152.971995 
L 255.398331 152.971995 
L 255.398331 152.52338 
L 255.942351 152.52338 
L 256.052511 151.62615 
L 256.115194 151.62615 
L 256.115194 151.177535 
L 256.292163 151.177535 
L 256.386405 149.83169 
L 256.54262 149.83169 
L 256.547383 148.93446 
L 256.766223 148.93446 
L 256.793951 148.03723 
L 256.911366 148.03723 
L 256.911366 147.588615 
L 257.213582 147.588615 
L 257.213582 147.14 
L 257.508724 147.14 
L 257.508724 146.691385 
L 257.741242 146.691385 
L 257.741242 146.24277 
L 258.024451 146.24277 
L 258.024451 145.794155 
L 258.146866 145.794155 
L 258.146866 145.34554 
L 258.411366 145.34554 
L 258.411366 144.896925 
L 258.572343 144.896925 
L 258.594225 143.999695 
L 258.728447 143.999695 
L 258.728447 143.55108 
L 259.443219 143.55108 
L 259.52805 142.65385 
L 259.555535 142.65385 
L 259.555535 142.205235 
L 259.766203 142.205235 
L 259.766203 141.75662 
L 260.10909 141.75662 
L 260.10909 141.308005 
L 260.426749 141.308005 
L 260.426749 140.85939 
L 260.823862 140.85939 
L 260.823862 140.410775 
L 260.977129 140.410775 
L 260.977129 139.96216 
L 261.304561 139.96216 
L 261.304561 139.513545 
L 261.462545 139.513545 
L 261.544399 138.1677 
L 261.900186 138.1677 
L 261.900186 137.719085 
L 262.117037 137.719085 
L 262.117037 137.27047 
L 262.268932 137.27047 
L 262.268932 136.821855 
L 262.485783 136.821855 
L 262.485783 136.37324 
L 262.843188 136.37324 
L 262.911624 135.027395 
L 263.00209 135.027395 
L 263.00209 134.57878 
L 263.694182 134.57878 
L 263.694182 134.130165 
L 264.292267 134.130165 
L 264.292267 133.68155 
L 264.936585 133.68155 
L 264.936585 133.232935 
L 265.130071 133.232935 
L 265.130071 132.78432 
L 265.291049 132.78432 
L 265.291049 132.335705 
L 265.498818 132.335705 
L 265.498818 131.88709 
L 265.659795 131.88709 
L 265.659795 131.438475 
L 266.263711 131.438475 
L 266.317228 130.541245 
L 266.484908 130.541245 
L 266.484908 130.09263 
L 266.819342 130.09263 
L 266.853655 129.1954 
L 267.907394 129.1954 
L 267.907394 128.746785 
L 268.08871 128.746785 
L 268.08871 128.29817 
L 269.116817 128.29817 
L 269.116817 127.849555 
L 269.720795 127.849555 
L 269.720795 127.40094 
L 270.089542 127.40094 
L 270.089542 126.952325 
L 271.655291 126.952325 
L 271.655291 126.50371 
L 272.024037 126.50371 
L 272.024037 126.055095 
L 272.574107 126.055095 
L 272.574107 125.60648 
L 273.018149 125.60648 
L 273.035933 124.70925 
L 273.3384 124.70925 
L 273.40468 123.81202 
L 273.662159 123.81202 
L 273.662159 123.363405 
L 273.843475 123.363405 
L 273.843475 122.91479 
L 274.106201 122.91479 
L 274.106201 122.466175 
L 274.287517 122.466175 
L 274.287517 122.01756 
L 274.871582 122.01756 
L 274.871582 121.568945 
L 275.315624 121.568945 
L 275.315624 121.12033 
L 275.441845 121.12033 
L 275.441845 120.671715 
L 279.834921 120.671715 
L 279.834921 120.2231 
L 280.297316 120.2231 
L 280.297316 119.774485 
L 281.19661 119.774485 
L 281.19661 119.32587 
L 281.640652 119.32587 
L 281.640652 118.877255 
L 283.35487 118.877255 
L 283.35487 118.42864 
L 285.168971 118.42864 
L 285.168971 117.980025 
L 305.287018 117.980025 
L 305.287018 117.53141 
L 306.37507 117.53141 
L 306.37507 117.082795 
L 306.556387 117.082795 
L 306.556387 116.63418 
L 307.584493 116.63418 
L 307.584493 116.185565 
L 313.909522 116.185565 
L 313.909522 115.73695 
L 327.770781 115.73695 
L 327.770781 115.288335 
L 327.925086 115.288335 
L 327.925086 114.83972 
L 329.59056 114.83972 
L 329.59056 114.391105 
L 329.744865 114.391105 
L 329.744865 113.94249 
L 331.192003 113.94249 
L 331.192003 113.493875 
L 331.6752 113.493875 
L 331.6752 113.04526 
L 331.829505 113.04526 
L 331.829505 112.596645 
L 333.011782 112.596645 
L 333.011782 112.14803 
L 335.096422 112.14803 
L 335.096422 111.699415 
L 337.693865 111.699415 
L 337.693865 111.2508 
L 339.513644 111.2508 
L 339.513644 110.802185 
L 341.598284 110.802185 
L 341.598284 110.35357 
L 351.064535 110.35357 
L 351.064535 109.904955 
L 351.218839 109.904955 
L 351.218839 109.45634 
L 354.485756 109.45634 
L 354.485756 109.007725 
L 356.8193 109.007725 
L 356.8193 108.55911 
L 356.973604 108.55911 
L 356.973604 108.110495 
L 357.263342 108.110495 
L 357.263342 107.66188 
L 357.417646 107.66188 
L 357.417646 107.213265 
L 359.504335 107.213265 
L 359.504335 106.76465 
L 360.240521 106.76465 
L 360.240521 106.316035 
L 360.684563 106.316035 
L 360.684563 105.86742 
L 360.987618 105.86742 
L 360.987618 105.418805 
L 361.324115 105.418805 
L 361.324115 104.97019 
L 363.408754 104.97019 
L 363.408754 104.521575 
L 366.742383 104.521575 
L 366.742383 104.07296 
L 367.186425 104.07296 
L 367.186425 103.624345 
L 382.798089 103.624345 
L 382.798089 103.17573 
L 388.552854 103.17573 
L 388.552854 102.727115 
L 388.996896 102.727115 
L 388.996896 102.2785 
L 389.532211 102.2785 
L 389.532211 101.829885 
L 389.686516 101.829885 
L 389.686516 101.38127 
L 392.953433 101.38127 
L 392.953433 100.932655 
L 399.455295 100.932655 
L 399.455295 100.48404 
L 421.265766 100.48404 
L 421.265766 100.035425 
L 453.192 100.035425 
L 453.192 100.035425 
" clip-path="url(#p4418ce4cd3)" style="fill: none; stroke: #000000; stroke-width: 3; stroke-linecap: square"/>
   </g>
   <g id="line2d_18">
    <path clip-path="url(#p4418ce4cd3)" style="fill: none; stroke: #000000; stroke-width: 3; stroke-linecap: square"/>
   </g>
   <g id="line2d_19">
    <path d="M 34.16 281.428569 
L 82.69894 281.428569 
L 82.69894 280.888172 
L 83.564018 280.888172 
L 83.564018 280.347776 
L 84.239196 280.347776 
L 84.239196 279.807379 
L 98.823559 279.807379 
L 98.823559 279.266982 
L 99.518307 279.266982 
L 99.518307 278.726586 
L 100.370421 278.726586 
L 100.370421 278.186189 
L 101.54653 278.186189 
L 101.54653 277.645792 
L 117.05975 277.645792 
L 117.05975 277.105396 
L 117.232521 277.105396 
L 117.232521 276.564999 
L 117.393439 276.564999 
L 117.393439 276.024602 
L 118.330524 276.024602 
L 118.330524 275.484206 
L 120.05466 275.484206 
L 120.05466 274.943809 
L 150.151831 274.943809 
L 150.151831 274.403412 
L 151.878908 274.403412 
L 151.878908 273.863016 
L 152.717819 273.863016 
L 152.743986 272.782222 
L 153.419164 272.782222 
L 153.419164 272.241826 
L 153.582897 272.241826 
L 153.582897 271.701429 
L 154.114005 271.701429 
L 154.114005 271.161033 
L 154.258074 271.161033 
L 154.258074 270.620636 
L 154.979084 270.620636 
L 154.979084 270.080239 
L 155.654261 270.080239 
L 155.654261 269.539843 
L 155.867741 269.539843 
L 155.867741 268.999446 
L 156.73282 268.999446 
L 156.73282 268.459049 
L 157.407997 268.459049 
L 157.407997 267.918653 
L 168.003527 267.918653 
L 168.003527 267.378256 
L 168.698275 267.378256 
L 168.698275 266.837859 
L 168.842438 266.837859 
L 168.842438 266.297463 
L 169.537186 266.297463 
L 169.550389 265.216669 
L 170.238624 265.216669 
L 170.238624 264.676273 
L 170.3893 264.676273 
L 170.3893 264.135876 
L 170.726497 264.135876 
L 170.726497 263.595479 
L 170.933373 263.595479 
L 170.933373 263.055083 
L 171.565408 263.055083 
L 171.565408 262.514686 
L 171.785487 262.514686 
L 171.785487 261.974289 
L 171.99236 261.974289 
L 171.99236 261.433893 
L 172.687108 261.433893 
L 172.687108 260.893496 
L 172.961595 260.893496 
L 172.961595 260.353099 
L 173.539223 260.353099 
L 173.539223 259.812703 
L 174.711282 259.812703 
L 174.715331 258.731909 
L 175.254266 258.731909 
L 175.254266 258.191513 
L 176.119344 258.191513 
L 176.119344 257.651116 
L 176.794522 257.651116 
L 176.794522 257.110719 
L 178.048817 257.110719 
L 178.048817 256.570323 
L 178.913895 256.570323 
L 178.913895 256.029926 
L 179.589073 256.029926 
L 179.589073 255.489529 
L 179.975181 255.489529 
L 179.975181 254.949133 
L 180.840259 254.949133 
L 180.840259 254.408736 
L 181.515437 254.408736 
L 181.515437 253.86834 
L 186.239717 253.86834 
L 186.239717 253.327943 
L 186.412489 253.327943 
L 186.412489 252.787546 
L 186.573407 252.787546 
L 186.573407 252.24715 
L 187.078628 252.24715 
L 187.078628 251.706753 
L 187.2514 251.706753 
L 187.2514 251.166356 
L 187.368249 251.166356 
L 187.412318 250.085563 
L 187.510492 250.085563 
L 187.510492 249.545166 
L 188.349403 249.545166 
L 188.349403 249.00477 
L 188.474815 249.00477 
L 188.474815 248.464373 
L 188.62314 248.464373 
L 188.647586 247.38358 
L 188.808505 247.38358 
L 188.808505 246.843183 
L 189.234627 246.843183 
L 189.234627 246.302786 
L 189.655038 246.302786 
L 189.74559 244.681596 
L 189.903801 244.681596 
L 189.906295 243.600803 
L 190.043701 243.600803 
L 190.073538 242.52001 
L 190.228551 242.52001 
L 190.228551 241.979613 
L 190.401322 241.979613 
L 190.401322 241.439216 
L 190.56224 241.439216 
L 190.56224 240.89882 
L 190.909928 240.89882 
L 190.941758 239.818026 
L 191.028373 239.818026 
L 191.028373 239.27763 
L 191.378885 239.27763 
L 191.469725 238.196837 
L 191.499326 238.196837 
L 191.499326 237.65644 
L 191.618 237.65644 
L 191.618 237.116043 
L 192.073633 237.116043 
L 192.073633 236.575647 
L 192.190589 236.575647 
L 192.224913 234.41406 
L 192.330489 234.41406 
L 192.362319 233.333267 
L 192.925747 233.333267 
L 192.925747 232.79287 
L 193.223461 232.79287 
L 193.315161 231.712077 
L 193.346991 231.712077 
L 193.346991 231.17168 
L 193.904788 231.17168 
L 193.936618 230.090887 
L 194.101856 230.090887 
L 194.173436 229.010093 
L 194.868184 229.010093 
L 194.868184 228.469697 
L 195.720298 228.469697 
L 195.720298 227.9293 
L 195.986368 227.9293 
L 195.986368 227.388903 
L 196.0998 227.388903 
L 196.0998 226.848507 
L 196.794548 226.848507 
L 196.896406 225.227317 
L 197.526623 225.227317 
L 197.526623 224.68692 
L 197.646662 224.68692 
L 197.646662 224.146523 
L 198.82277 224.146523 
L 198.82277 223.606127 
L 200.279275 223.606127 
L 200.279275 223.06573 
L 201.144354 223.06573 
L 201.144354 222.525333 
L 201.819531 222.525333 
L 201.819531 221.984937 
L 204.880735 221.984937 
L 204.989798 220.904144 
L 205.449527 220.904144 
L 205.530301 219.82335 
L 205.706762 219.82335 
L 205.706762 219.282954 
L 205.87596 219.282954 
L 205.87596 218.742557 
L 206.135625 218.742557 
L 206.244688 217.661764 
L 206.36441 217.661764 
L 206.36441 217.121367 
L 206.785191 217.121367 
L 206.785191 216.58097 
L 206.961652 216.58097 
L 206.961652 216.040574 
L 207.096319 216.040574 
L 207.096319 215.500177 
L 207.320449 215.500177 
L 207.418781 213.878987 
L 207.52535 213.878987 
L 207.6193 211.7174 
L 207.665249 211.7174 
L 207.768145 210.09621 
L 207.986919 210.09621 
L 208.068346 208.47502 
L 208.162748 208.47502 
L 208.244807 205.773037 
L 208.382213 205.773037 
L 208.471773 204.692244 
L 208.540859 204.692244 
L 208.649922 203.071054 
L 208.899962 203.071054 
L 208.902456 201.990261 
L 209.039862 201.990261 
L 209.130485 200.909467 
L 209.190424 200.909467 
L 209.24181 199.288277 
L 209.366885 199.288277 
L 209.414937 197.667087 
L 209.607237 197.667087 
L 209.639067 196.045897 
L 209.780051 196.045897 
L 209.787847 194.965104 
L 209.948765 194.965104 
L 210.024534 193.343914 
L 210.522471 193.343914 
L 210.614161 191.722724 
L 210.662371 191.722724 
L 210.758561 190.641931 
L 210.790391 190.641931 
L 210.894157 188.480344 
L 211.647043 188.480344 
L 211.647043 187.939948 
L 212.110987 187.939948 
L 212.110987 187.399551 
L 212.23667 187.399551 
L 212.23667 186.859154 
L 212.409627 186.859154 
L 212.409627 186.318758 
L 212.582398 186.318758 
L 212.609986 184.697568 
L 212.743316 184.697568 
L 212.805735 183.616774 
L 213.473422 183.616774 
L 213.473422 183.076378 
L 213.653295 183.076378 
L 213.680401 181.455188 
L 214.1486 181.455188 
L 214.217357 180.374394 
L 214.335991 180.374394 
L 214.335991 179.833998 
L 214.508762 179.833998 
L 214.518373 178.753204 
L 214.66968 178.753204 
L 214.66968 178.212808 
L 214.833957 178.212808 
L 214.833957 177.672411 
L 215.082435 177.672411 
L 215.082435 177.132014 
L 215.193551 177.132014 
L 215.193551 176.591618 
L 215.404536 176.591618 
L 215.404536 176.051221 
L 215.606765 176.051221 
L 215.606765 175.510824 
L 215.757612 175.510824 
L 215.757612 174.970428 
L 216.403894 174.970428 
L 216.403894 174.430031 
L 217.098642 174.430031 
L 217.098642 173.889634 
L 217.3309 173.889634 
L 217.3309 173.349238 
L 217.950757 173.349238 
L 217.950757 172.808841 
L 219.126865 172.808841 
L 219.126865 172.268444 
L 219.331798 172.268444 
L 219.331798 171.728048 
L 220.170709 171.728048 
L 220.170709 171.187651 
L 221.566896 171.187651 
L 221.566896 170.647255 
L 222.928088 170.647255 
L 222.962013 169.566461 
L 223.071076 169.566461 
L 223.071076 169.026065 
L 223.320632 169.026065 
L 223.388445 167.945271 
L 223.497508 167.945271 
L 223.497508 167.404875 
L 223.611578 167.404875 
L 223.611578 166.864478 
L 223.78804 166.864478 
L 223.78804 166.324081 
L 224.038011 166.324081 
L 224.038011 165.783685 
L 224.182978 165.783685 
L 224.214472 164.702891 
L 224.445688 164.702891 
L 224.445688 164.162495 
L 224.585389 164.162495 
L 224.608804 163.081701 
L 224.717867 163.081701 
L 224.734509 162.000908 
L 224.832934 162.000908 
L 224.941997 159.839321 
L 225.079757 159.839321 
L 225.079757 159.298925 
L 225.25837 159.298925 
L 225.25837 158.758528 
L 225.434831 158.758528 
L 225.4825 156.596941 
L 225.603539 156.596941 
L 225.658961 155.516148 
L 225.984258 155.516148 
L 226.093321 152.273768 
L 226.130964 152.273768 
L 226.197088 151.192975 
L 226.31661 151.192975 
L 226.400961 149.571785 
L 226.49463 149.571785 
L 226.588212 147.950595 
L 226.633824 147.950595 
L 226.73759 146.869802 
L 226.810285 146.869802 
L 226.914051 144.708215 
L 227.177838 144.708215 
L 227.272554 143.087025 
L 227.40996 143.087025 
L 227.467934 140.925438 
L 227.551525 140.925438 
L 227.617802 138.763852 
L 227.714989 138.763852 
L 227.812095 137.142662 
L 227.939119 137.142662 
L 227.939119 136.602265 
L 228.394632 136.602265 
L 228.394632 136.061869 
L 228.536198 136.061869 
L 228.536198 135.521472 
L 228.687749 135.521472 
L 228.73988 133.359885 
L 228.984259 133.359885 
L 229.095251 131.198299 
L 229.125824 131.198299 
L 229.232656 129.577109 
L 229.329507 129.577109 
L 229.427711 128.496315 
L 229.777914 128.496315 
L 229.777914 127.955919 
L 230.217329 127.955919 
L 230.279825 126.875125 
L 230.341976 126.875125 
L 230.347177 125.794332 
L 230.472662 125.794332 
L 230.519949 124.713539 
L 230.680867 124.713539 
L 230.680867 124.173142 
L 230.806955 124.173142 
L 230.806955 123.632745 
L 231.036724 123.632745 
L 231.036724 123.092349 
L 231.324776 123.092349 
L 231.324776 122.551952 
L 231.455933 122.551952 
L 231.455933 122.011556 
L 231.617952 122.011556 
L 231.617952 121.471159 
L 231.888838 121.471159 
L 231.888838 120.930762 
L 232.500884 120.930762 
L 232.500884 120.390366 
L 233.064946 120.390366 
L 233.064946 119.849969 
L 233.342087 119.849969 
L 233.342087 119.309572 
L 234.640085 119.309572 
L 234.640085 118.769176 
L 234.812856 118.769176 
L 234.812856 118.228779 
L 234.973775 118.228779 
L 234.973775 117.688382 
L 235.91086 117.688382 
L 235.91086 117.147986 
L 237.634995 117.147986 
L 237.634995 116.607589 
L 241.009366 116.607589 
L 241.009366 116.067192 
L 241.435798 116.067192 
L 241.435798 115.526796 
L 242.097875 115.526796 
L 242.206938 114.446002 
L 242.656157 114.446002 
L 242.74744 112.824812 
L 242.815787 112.824812 
L 242.923902 111.203622 
L 242.957352 111.203622 
L 242.957352 110.663226 
L 243.161035 110.663226 
L 243.242219 109.582432 
L 243.383784 109.582432 
L 243.383784 109.042036 
L 243.58155 109.042036 
L 243.587467 107.961242 
L 243.891249 107.961242 
L 243.913446 106.880449 
L 244.022509 106.880449 
L 244.031611 105.799656 
L 244.135378 105.799656 
L 244.135378 105.259259 
L 244.462578 105.259259 
L 244.563012 104.178466 
L 244.604143 104.178466 
L 244.686708 102.557276 
L 244.73016 102.557276 
L 244.828273 100.395689 
L 245.031956 100.395689 
L 245.064915 99.314896 
L 245.204059 99.314896 
L 245.204059 98.774499 
L 245.397122 98.774499 
L 245.501707 97.693706 
L 245.838032 97.693706 
L 245.941798 96.612913 
L 245.979597 96.612913 
L 246.083364 95.532119 
L 246.126347 95.532119 
L 246.18328 94.451326 
L 246.285274 94.451326 
L 246.287047 93.370533 
L 246.509404 93.370533 
L 246.509404 92.830136 
L 246.969153 92.830136 
L 247.019631 91.749343 
L 247.141064 91.749343 
L 247.141925 90.668549 
L 247.302843 90.668549 
L 247.302843 90.128153 
L 247.428072 90.128153 
L 247.428072 89.587756 
L 247.660729 89.587756 
L 247.764495 88.506963 
L 247.880083 88.506963 
L 247.880083 87.966566 
L 248.014105 87.966566 
L 248.014105 87.42617 
L 248.186876 87.42617 
L 248.239928 86.345376 
L 248.347794 86.345376 
L 248.395954 85.264583 
L 248.578166 85.264583 
L 248.578166 84.724186 
L 248.750938 84.724186 
L 248.750938 84.18379 
L 248.911856 84.18379 
L 248.911856 83.643393 
L 249.284879 83.643393 
L 249.284879 83.102996 
L 249.676615 83.102996 
L 249.679109 82.022203 
L 249.816515 82.022203 
L 249.848941 80.94141 
L 249.964063 80.94141 
L 249.964063 80.401013 
L 250.801187 80.401013 
L 250.801187 79.860616 
L 251.009014 79.860616 
L 251.009014 79.32022 
L 251.390814 79.32022 
L 251.390814 78.779823 
L 251.573076 78.779823 
L 251.573076 78.239426 
L 260.145228 78.239426 
L 260.145228 77.69903 
L 261.951649 77.69903 
L 261.960799 76.618236 
L 262.093214 76.618236 
L 262.093214 76.07784 
L 262.296897 76.07784 
L 262.296897 75.537443 
L 263.439258 75.537443 
L 263.439258 74.997046 
L 263.76722 74.997046 
L 263.774345 73.916253 
L 263.908785 73.916253 
L 263.908785 73.375856 
L 264.112468 73.375856 
L 264.112468 72.83546 
L 265.222341 72.83546 
L 265.222341 72.295063 
L 265.589917 72.295063 
L 265.648774 71.21427 
L 266.869133 71.21427 
L 266.869133 70.673873 
L 267.093263 70.673873 
L 267.093263 70.133477 
L 267.266608 70.133477 
L 267.266608 69.59308 
L 267.732166 69.59308 
L 267.732166 69.052683 
L 268.244587 69.052683 
L 268.348353 67.97189 
L 270.061159 67.97189 
L 270.061159 67.431493 
L 271.987523 67.431493 
L 271.987523 66.891097 
L 280.061234 66.891097 
L 280.061234 66.3507 
L 281.106186 66.3507 
L 281.106186 65.810303 
L 281.670247 65.810303 
L 281.670247 65.269907 
L 284.358203 65.269907 
L 284.358203 64.72951 
L 286.173775 64.72951 
L 286.173775 64.189113 
L 287.998709 64.189113 
L 287.998709 63.648717 
L 292.291617 63.648717 
L 292.291617 63.10832 
L 304.620686 63.10832 
L 304.620686 62.567923 
L 305.665637 62.567923 
L 305.665637 62.027527 
L 306.229698 62.027527 
L 306.229698 61.48713 
L 453.192 61.48713 
L 453.192 61.48713 
" clip-path="url(#p4418ce4cd3)" style="fill: none; stroke: #00bfbf; stroke-width: 3; stroke-linecap: square"/>
   </g>
   <g id="line2d_20">
    <path clip-path="url(#p4418ce4cd3)" style="fill: none; stroke: #00bfbf; stroke-width: 3; stroke-linecap: square"/>
   </g>
   <g id="line2d_21">
    <path d="M 34.16 276.12434 
L 94.341421 276.12434 
L 94.341421 275.175926 
L 95.379879 275.175926 
L 95.379879 274.227512 
L 96.302634 274.227512 
L 96.302634 273.279097 
L 110.857358 273.279097 
L 110.857358 272.330683 
L 111.867443 272.330683 
L 111.867443 271.382269 
L 112.354801 271.382269 
L 112.354801 270.433854 
L 113.583145 270.433854 
L 113.583145 269.48544 
L 129.36915 269.48544 
L 129.36915 268.537026 
L 129.485155 268.537026 
L 129.485155 267.588612 
L 129.871352 267.588612 
L 129.871352 266.640197 
L 131.110116 266.640197 
L 131.110116 265.691783 
L 132.476276 265.691783 
L 132.476276 264.743369 
L 152.228339 264.743369 
L 152.228339 263.794955 
L 152.454138 263.794955 
L 152.454138 262.84654 
L 153.266797 262.84654 
L 153.266797 261.898126 
L 153.492596 261.898126 
L 153.492596 260.949712 
L 153.720896 260.949712 
L 153.720896 260.001298 
L 154.189552 260.001298 
L 154.189552 259.052883 
L 154.415351 259.052883 
L 154.415351 258.104469 
L 154.759354 258.104469 
L 154.759354 257.156055 
L 155.682109 257.156055 
L 155.682109 256.20764 
L 156.256252 256.20764 
L 156.256252 255.259226 
L 157.29471 255.259226 
L 157.29471 254.310812 
L 158.217465 254.310812 
L 158.217465 253.362398 
L 162.788965 253.362398 
L 162.788965 252.413983 
L 168.744276 252.413983 
L 168.744276 251.465569 
L 168.970075 251.465569 
L 168.970075 250.517155 
L 169.754361 250.517155 
L 169.754361 249.568741 
L 169.980161 249.568741 
L 169.980161 248.620326 
L 170.236833 248.620326 
L 170.241719 246.723498 
L 170.467518 246.723498 
L 170.467518 245.775084 
L 171.246918 245.775084 
L 171.246918 244.826669 
L 171.470063 244.826669 
L 171.470063 243.878255 
L 171.695863 243.878255 
L 171.734276 241.981427 
L 172.772189 241.981427 
L 172.772189 241.033012 
L 172.96262 241.033012 
L 172.96262 240.084598 
L 173.782274 240.084598 
L 173.782274 239.136184 
L 174.269632 239.136184 
L 174.269632 238.187769 
L 174.99406 238.187769 
L 174.99406 237.239355 
L 175.497976 237.239355 
L 175.497976 236.290941 
L 176.032518 236.290941 
L 176.032518 235.342527 
L 176.955273 235.342527 
L 176.955273 234.394112 
L 177.380078 234.394112 
L 177.380078 233.445698 
L 178.418536 233.445698 
L 178.418536 232.497284 
L 179.341291 232.497284 
L 179.341291 231.54887 
L 180.123221 231.54887 
L 180.123221 230.600455 
L 181.161679 230.600455 
L 181.161679 229.652041 
L 182.084434 229.652041 
L 182.084434 228.703627 
L 186.551684 228.703627 
L 186.551684 227.755213 
L 187.256068 227.755213 
L 187.256068 226.806798 
L 187.372073 226.806798 
L 187.481867 224.90997 
L 187.597873 224.90997 
L 187.597873 223.961555 
L 187.75827 223.961555 
L 187.75827 223.013141 
L 187.98407 223.013141 
L 187.98407 222.064727 
L 188.748625 222.064727 
L 188.748625 221.116313 
L 188.86463 221.116313 
L 188.86463 220.167898 
L 188.997034 220.167898 
L 188.997034 219.219484 
L 189.222833 219.219484 
L 189.250827 217.322656 
L 190.363195 217.322656 
L 190.363195 216.374241 
L 190.489591 216.374241 
L 190.588994 214.477413 
L 191.283981 214.477413 
L 191.283981 213.528999 
L 191.399986 213.528999 
L 191.509997 211.63217 
L 191.786183 211.63217 
L 191.855751 209.735341 
L 192.520082 209.735341 
L 192.520082 208.786927 
L 193.00744 208.786927 
L 193.024947 206.890099 
L 193.896015 206.890099 
L 193.896015 205.941684 
L 194.235784 205.941684 
L 194.235784 204.99327 
L 194.391108 204.99327 
L 194.391108 204.044856 
L 194.906101 204.044856 
L 194.906101 203.096442 
L 195.393458 203.096442 
L 195.393458 202.148027 
L 195.81941 202.148027 
L 195.81941 201.199613 
L 196.621803 201.199613 
L 196.639157 199.302785 
L 196.857868 199.302785 
L 196.857868 198.35437 
L 197.649243 198.35437 
L 197.649243 197.405956 
L 197.780623 197.405956 
L 197.780623 196.457542 
L 198.1366 196.457542 
L 198.1366 195.509128 
L 199.364945 195.509128 
L 199.364945 194.560713 
L 199.861707 194.560713 
L 199.861707 193.612299 
L 200.900165 193.612299 
L 200.900165 192.663885 
L 201.82292 192.663885 
L 201.82292 191.71547 
L 210.021789 191.71547 
L 210.021789 190.767056 
L 210.137795 190.767056 
L 210.137795 189.818642 
L 210.523991 189.818642 
L 210.523991 188.870228 
L 211.762755 188.870228 
L 211.762755 187.921813 
L 212.335347 187.921813 
L 212.407807 186.024985 
L 212.448788 186.024985 
L 212.523813 184.128156 
L 212.910009 184.128156 
L 212.910009 183.179742 
L 213.128916 183.179742 
L 213.128916 182.231328 
L 213.345433 182.231328 
L 213.401099 180.334499 
L 213.487246 180.334499 
L 213.487246 179.386085 
L 213.740025 179.386085 
L 213.83279 177.489256 
L 214.148773 177.489256 
L 214.148773 176.540842 
L 214.410001 176.540842 
L 214.439557 174.644014 
L 214.778483 174.644014 
L 214.778483 173.695599 
L 215.061135 173.695599 
L 215.150949 171.798771 
L 215.266955 171.798771 
L 215.362312 169.901942 
L 215.514934 169.901942 
L 215.514934 168.953528 
L 215.653152 168.953528 
L 215.701238 167.0567 
L 216.377644 167.0567 
L 216.377644 166.108285 
L 216.891916 166.108285 
L 216.891916 165.159871 
L 217.38773 165.159871 
L 217.38773 164.211457 
L 217.875087 164.211457 
L 217.875087 163.263043 
L 218.258076 163.263043 
L 218.258076 162.314628 
L 219.103431 162.314628 
L 219.103431 161.366214 
L 220.675883 161.366214 
L 220.675883 160.4178 
L 220.901683 160.4178 
L 220.901683 159.469385 
L 222.16844 159.469385 
L 222.16844 158.520971 
L 224.703796 158.520971 
L 224.703796 157.572557 
L 228.964725 157.572557 
L 228.964725 156.624143 
L 229.917036 156.624143 
L 229.97481 154.727314 
L 230.255962 154.727314 
L 230.255962 153.7789 
L 230.462168 153.7789 
L 230.462168 152.830486 
L 230.847139 152.830486 
L 230.927121 150.933657 
L 230.963145 150.933657 
L 230.963145 149.985243 
L 231.266047 149.985243 
L 231.349341 148.088414 
L 231.414479 148.088414 
L 231.414479 147.14 
L 231.690512 147.14 
L 231.753405 145.243171 
L 232.588105 145.243171 
L 232.642823 143.346343 
L 232.981749 143.346343 
L 232.981749 142.397929 
L 233.954266 142.397929 
L 233.954266 141.449514 
L 234.889436 141.449514 
L 234.889436 140.5011 
L 235.005442 140.5011 
L 235.005442 139.552686 
L 235.391638 139.552686 
L 235.391638 138.604272 
L 236.630402 138.604272 
L 236.630402 137.655857 
L 237.996563 137.655857 
L 237.996563 136.707443 
L 243.441605 136.707443 
L 243.441605 135.759029 
L 244.438602 135.759029 
L 244.438602 134.810615 
L 244.664402 134.810615 
L 244.664402 133.8622 
L 245.827623 133.8622 
L 245.931159 131.965372 
L 247.476517 131.965372 
L 247.476517 131.016957 
L 247.592523 131.016957 
L 247.592523 130.068543 
L 247.978719 130.068543 
L 247.978719 129.120129 
L 248.428828 129.120129 
L 248.466515 127.2233 
L 248.544833 127.2233 
L 248.570765 125.326472 
L 248.767754 125.326472 
L 248.767754 124.378058 
L 248.883759 124.378058 
L 248.93103 122.481229 
L 249.217483 122.481229 
L 249.269956 120.584401 
L 250.169794 120.584401 
L 250.169794 119.635986 
L 250.50872 119.635986 
L 250.583644 117.739158 
L 251.535955 117.739158 
L 251.535955 116.790744 
L 251.874881 116.790744 
L 251.874881 115.842329 
L 264.266955 115.842329 
L 264.266955 114.893915 
L 267.204323 114.893915 
L 267.204323 113.945501 
L 268.309252 113.945501 
L 268.309252 112.997086 
L 269.590342 112.997086 
L 269.590342 112.048672 
L 272.333484 112.048672 
L 272.333484 111.100258 
L 280.896333 111.100258 
L 280.896333 110.151844 
L 281.848643 110.151844 
L 281.848643 109.203429 
L 282.187569 109.203429 
L 282.187569 108.255015 
L 288.029674 108.255015 
L 288.029674 107.306601 
L 292.071971 107.306601 
L 292.071971 106.358187 
L 304.659051 106.358187 
L 304.659051 105.409772 
L 305.611362 105.409772 
L 305.611362 104.461358 
L 305.950288 104.461358 
L 305.950288 103.512944 
L 453.192 103.512944 
L 453.192 103.512944 
" clip-path="url(#p4418ce4cd3)" style="fill: none; stroke: #bf00bf; stroke-width: 3; stroke-linecap: square"/>
   </g>
   <g id="line2d_22">
    <path clip-path="url(#p4418ce4cd3)" style="fill: none; stroke: #bf00bf; stroke-width: 3; stroke-linecap: square"/>
   </g>
   <g id="line2d_23">
    <path d="M 34.16 276.12434 
L 105.706833 276.12434 
L 105.706833 275.175926 
L 107.024091 275.175926 
L 107.024091 274.227512 
L 107.614231 274.227512 
L 107.614231 273.279097 
L 122.171047 273.279097 
L 122.171047 272.330683 
L 122.770892 272.330683 
L 122.770892 271.382269 
L 123.395744 271.382269 
L 123.395744 270.433854 
L 124.370666 270.433854 
L 124.370666 269.48544 
L 139.896903 269.48544 
L 139.896903 268.537026 
L 140.654705 268.537026 
L 140.654705 267.588612 
L 140.853736 267.588612 
L 140.853736 266.640197 
L 141.127117 266.640197 
L 141.127117 265.691783 
L 143.048774 265.691783 
L 143.048774 264.743369 
L 153.251989 264.743369 
L 153.304101 262.84654 
L 154.569247 262.84654 
L 154.621359 260.949712 
L 154.744315 260.949712 
L 154.744315 260.001298 
L 155.159388 260.001298 
L 155.211499 258.104469 
L 156.061573 258.104469 
L 156.061573 257.156055 
L 156.651714 257.156055 
L 156.651714 256.20764 
L 157.398276 256.20764 
L 157.398276 255.259226 
L 158.715534 255.259226 
L 158.715534 254.310812 
L 159.305674 254.310812 
L 159.305674 253.362398 
L 169.716203 253.362398 
L 169.768315 251.465569 
L 170.316048 251.465569 
L 170.36816 249.568741 
L 170.9409 249.568741 
L 170.993012 247.671912 
L 171.208529 247.671912 
L 171.208529 246.723498 
L 171.808374 246.723498 
L 171.915822 244.826669 
L 171.967934 244.826669 
L 171.967934 243.878255 
L 172.433226 243.878255 
L 172.433226 242.929841 
L 173.408148 242.929841 
L 173.408148 241.981427 
L 173.86249 241.981427 
L 173.889153 240.084598 
L 174.462335 240.084598 
L 174.462335 239.136184 
L 174.684598 239.136184 
L 174.684598 238.187769 
L 175.087187 238.187769 
L 175.087187 237.239355 
L 176.001856 237.239355 
L 176.062109 235.342527 
L 176.591996 235.342527 
L 176.591996 234.394112 
L 177.79165 234.394112 
L 177.79165 233.445698 
L 179.108908 233.445698 
L 179.108908 232.497284 
L 179.699048 232.497284 
L 179.699048 231.54887 
L 180.522035 231.54887 
L 180.522035 230.600455 
L 181.839293 230.600455 
L 181.839293 229.652041 
L 182.429434 229.652041 
L 182.429434 228.703627 
L 187.442059 228.703627 
L 187.494171 226.806798 
L 188.199861 226.806798 
L 188.251973 224.90997 
L 188.398892 224.90997 
L 188.451004 223.013141 
L 188.672274 223.013141 
L 188.724386 221.116313 
L 188.934385 221.116313 
L 188.934385 220.167898 
L 189.692187 220.167898 
L 189.692187 219.219484 
L 189.891218 219.219484 
L 189.891218 218.27107 
L 190.1646 218.27107 
L 190.1646 217.322656 
L 190.593931 217.322656 
L 190.646043 215.425827 
L 191.148812 215.425827 
L 191.148812 214.477413 
L 191.588346 214.477413 
L 191.588346 213.528999 
L 191.748657 213.528999 
L 191.748657 212.580584 
L 192.086257 212.580584 
L 192.086257 211.63217 
L 192.346148 211.63217 
L 192.373509 209.735341 
L 192.545179 209.735341 
L 192.545179 208.786927 
L 192.81856 208.786927 
L 192.81856 207.838513 
L 193.348431 207.838513 
L 193.348431 206.890099 
L 194.255864 206.890099 
L 194.255864 205.941684 
L 194.740217 205.941684 
L 194.740217 204.99327 
L 194.855709 204.99327 
L 194.855709 204.044856 
L 195.165576 204.044856 
L 195.165576 203.096442 
L 195.480561 203.096442 
L 195.480561 202.148027 
L 196.422692 202.148027 
L 196.482834 199.302785 
L 196.986249 199.302785 
L 197.072974 197.405956 
L 197.586094 197.405956 
L 197.586094 196.457542 
L 198.210946 196.457542 
L 198.210946 195.509128 
L 199.163742 195.509128 
L 199.185868 193.612299 
L 200.481 193.612299 
L 200.481 192.663885 
L 201.071141 192.663885 
L 201.071141 191.71547 
L 208.874668 191.71547 
L 208.874668 190.767056 
L 209.63247 190.767056 
L 209.63247 189.818642 
L 209.831501 189.818642 
L 209.831501 188.870228 
L 210.104883 188.870228 
L 210.104883 187.921813 
L 211.62979 187.921813 
L 211.62979 186.973399 
L 211.98172 186.973399 
L 212.02654 185.076571 
L 212.229635 185.076571 
L 212.229635 184.128156 
L 212.739522 184.128156 
L 212.739522 183.179742 
L 212.854487 183.179742 
L 212.938553 180.334499 
L 213.211934 180.334499 
L 213.211934 179.386085 
L 213.829409 179.386085 
L 213.88006 177.489256 
L 214.049374 177.489256 
L 214.049374 176.540842 
L 214.228101 176.540842 
L 214.228101 175.592428 
L 214.712105 175.592428 
L 214.818242 173.695599 
L 215.133592 173.695599 
L 215.197318 171.798771 
L 215.366632 171.798771 
L 215.469907 169.901942 
L 215.627956 169.901942 
L 215.668938 168.005114 
L 215.787458 168.005114 
L 215.787458 167.0567 
L 215.94232 167.0567 
L 215.956772 165.159871 
L 216.227801 165.159871 
L 216.227801 164.211457 
L 216.852653 164.211457 
L 216.852653 163.263043 
L 217.827575 163.263043 
L 217.863977 161.366214 
L 221.434309 161.366214 
L 221.486421 159.469385 
L 222.926635 159.469385 
L 222.926635 158.520971 
L 225.580596 158.520971 
L 225.580596 157.572557 
L 229.355646 157.572557 
L 229.375057 155.675728 
L 229.974902 155.675728 
L 229.974902 154.727314 
L 230.113448 154.727314 
L 230.113448 153.7789 
L 230.312479 153.7789 
L 230.344274 151.882071 
L 230.513588 151.882071 
L 230.599754 149.036829 
L 230.944119 149.036829 
L 230.944119 148.088414 
L 231.113433 148.088414 
L 231.113433 147.14 
L 231.568971 147.14 
L 231.574676 145.243171 
L 231.738285 145.243171 
L 231.738285 144.294757 
L 232.507518 144.294757 
L 232.543893 142.397929 
L 232.713207 142.397929 
L 232.713207 141.449514 
L 233.353813 141.449514 
L 233.353813 140.5011 
L 234.111614 140.5011 
L 234.111614 139.552686 
L 234.310646 139.552686 
L 234.310646 138.604272 
L 234.584027 138.604272 
L 234.584027 137.655857 
L 236.505684 137.655857 
L 236.505684 136.707443 
L 242.866918 136.707443 
L 242.866918 135.759029 
L 243.967848 135.759029 
L 244.01996 133.8622 
L 245.460174 133.8622 
L 245.460174 132.913786 
L 245.97397 132.913786 
L 245.97397 131.965372 
L 247.100914 131.965372 
L 247.100914 131.016957 
L 247.858715 131.016957 
L 247.858715 130.068543 
L 248.057747 130.068543 
L 248.114135 127.2233 
L 248.239444 127.2233 
L 248.331128 125.326472 
L 248.704355 125.326472 
L 248.704355 124.378058 
L 248.827932 124.378058 
L 248.827932 123.429643 
L 248.997246 123.429643 
L 249.026963 121.532815 
L 249.196277 121.532815 
L 249.300344 119.635986 
L 249.469658 119.635986 
L 249.469658 118.687572 
L 250.252785 118.687572 
L 250.252785 117.739158 
L 251.222001 117.739158 
L 251.222001 116.790744 
L 251.391315 116.790744 
L 251.391315 115.842329 
L 263.347896 115.842329 
L 263.347896 114.893915 
L 265.400457 114.893915 
L 265.400457 113.945501 
L 267.346062 113.945501 
L 267.346062 112.997086 
L 268.507509 112.997086 
L 268.507509 112.048672 
L 271.237894 112.048672 
L 271.237894 111.100258 
L 281.093163 111.100258 
L 281.093163 110.151844 
L 282.06238 110.151844 
L 282.06238 109.203429 
L 282.231694 109.203429 
L 282.231694 108.255015 
L 285.881435 108.255015 
L 285.881435 107.306601 
L 289.879601 107.306601 
L 289.879601 106.358187 
L 303.626702 106.358187 
L 303.626702 105.409772 
L 304.595918 105.409772 
L 304.595918 104.461358 
L 304.765233 104.461358 
L 304.765233 103.512944 
L 453.192 103.512944 
L 453.192 103.512944 
" clip-path="url(#p4418ce4cd3)" style="fill: none; stroke: #ff0000; stroke-width: 3; stroke-linecap: square"/>
   </g>
   <g id="line2d_24">
    <path clip-path="url(#p4418ce4cd3)" style="fill: none; stroke: #ff0000; stroke-width: 3; stroke-linecap: square"/>
   </g>
   <g id="line2d_25">
    <path d="M 243.676 291.28 
L 243.676 3 
" clip-path="url(#p4418ce4cd3)" style="fill: none; stroke: #000000; stroke-width: 1.5; stroke-linecap: square"/>
   </g>
   <g id="line2d_26">
    <path d="M 34.16 147.14 
L 453.192 147.14 
" clip-path="url(#p4418ce4cd3)" style="fill: none; stroke-dasharray: 2,3.3; stroke-dashoffset: 0; stroke: #000000; stroke-width: 2"/>
   </g>
   <g id="patch_3">
    <path d="M 34.16 291.28 
L 34.16 3 
" style="fill: none; stroke: #000000; stroke-width: 0.8; stroke-linejoin: miter; stroke-linecap: square"/>
   </g>
   <g id="patch_4">
    <path d="M 453.192 291.28 
L 453.192 3 
" style="fill: none; stroke: #000000; stroke-width: 0.8; stroke-linejoin: miter; stroke-linecap: square"/>
   </g>
   <g id="patch_5">
    <path d="M 34.16 291.28 
L 453.192 291.28 
" style="fill: none; stroke: #000000; stroke-width: 0.8; stroke-linejoin: miter; stroke-linecap: square"/>
   </g>
   <g id="patch_6">
    <path d="M 34.16 3 
L 453.192 3 
" style="fill: none; stroke: #000000; stroke-width: 0.8; stroke-linejoin: miter; stroke-linecap: square"/>
   </g>
   <g id="text_6">
    <!-- f20-f24,40-D -->
    <g transform="translate(318.19261 285.5144) scale(0.2 -0.2)">
     <defs>
      <path id="DejaVuSans-34" d="M 2419 4116 
L 825 1625 
L 2419 1625 
L 2419 4116 
z
M 2253 4666 
L 3047 4666 
L 3047 1625 
L 3713 1625 
L 3713 1100 
L 3047 1100 
L 3047 0 
L 2419 0 
L 2419 1100 
L 313 1100 
L 313 1709 
L 2253 4666 
z
" transform="scale(0.015625)"/>
      <path id="DejaVuSans-2c" d="M 750 794 
L 1409 794 
L 1409 256 
L 897 -744 
L 494 -744 
L 750 256 
L 750 794 
z
" transform="scale(0.015625)"/>
      <path id="DejaVuSans-44" d="M 1259 4147 
L 1259 519 
L 2022 519 
Q 2988 519 3436 956 
Q 3884 1394 3884 2338 
Q 3884 3275 3436 3711 
Q 2988 4147 2022 4147 
L 1259 4147 
z
M 628 4666 
L 1925 4666 
Q 3281 4666 3915 4102 
Q 4550 3538 4550 2338 
Q 4550 1131 3912 565 
Q 3275 0 1925 0 
L 628 0 
L 628 4666 
z
" transform="scale(0.015625)"/>
     </defs>
     <use xlink:href="#DejaVuSans-66"/>
     <use xlink:href="#DejaVuSans-32" x="35.205078"/>
     <use xlink:href="#DejaVuSans-30" x="98.828125"/>
     <use xlink:href="#DejaVuSans-2d" x="162.451172"/>
     <use xlink:href="#DejaVuSans-66" x="198.535156"/>
     <use xlink:href="#DejaVuSans-32" x="233.740234"/>
     <use xlink:href="#DejaVuSans-34" x="297.363281"/>
     <use xlink:href="#DejaVuSans-2c" x="360.986328"/>
     <use xlink:href="#DejaVuSans-34" x="392.773438"/>
     <use xlink:href="#DejaVuSans-30" x="456.396484"/>
     <use xlink:href="#DejaVuSans-2d" x="520.019531"/>
     <use xlink:href="#DejaVuSans-44" x="556.103516"/>
    </g>
   </g>
   <g id="text_7">
    <!-- v2.6.3 -->
    <g style="fill: #808080" transform="translate(227.99475 286.317512) scale(0.1 -0.1)">
     <defs>
      <path id="DejaVuSans-2e" d="M 684 794 
L 1344 794 
L 1344 0 
L 684 0 
L 684 794 
z
" transform="scale(0.015625)"/>
      <path id="DejaVuSans-36" d="M 2113 2584 
Q 1688 2584 1439 2293 
Q 1191 2003 1191 1497 
Q 1191 994 1439 701 
Q 1688 409 2113 409 
Q 2538 409 2786 701 
Q 3034 994 3034 1497 
Q 3034 2003 2786 2293 
Q 2538 2584 2113 2584 
z
M 3366 4563 
L 3366 3988 
Q 3128 4100 2886 4159 
Q 2644 4219 2406 4219 
Q 1781 4219 1451 3797 
Q 1122 3375 1075 2522 
Q 1259 2794 1537 2939 
Q 1816 3084 2150 3084 
Q 2853 3084 3261 2657 
Q 3669 2231 3669 1497 
Q 3669 778 3244 343 
Q 2819 -91 2113 -91 
Q 1303 -91 875 529 
Q 447 1150 447 2328 
Q 447 3434 972 4092 
Q 1497 4750 2381 4750 
Q 2619 4750 2861 4703 
Q 3103 4656 3366 4563 
z
" transform="scale(0.015625)"/>
      <path id="DejaVuSans-33" d="M 2597 2516 
Q 3050 2419 3304 2112 
Q 3559 1806 3559 1356 
Q 3559 666 3084 287 
Q 2609 -91 1734 -91 
Q 1441 -91 1130 -33 
Q 819 25 488 141 
L 488 750 
Q 750 597 1062 519 
Q 1375 441 1716 441 
Q 2309 441 2620 675 
Q 2931 909 2931 1356 
Q 2931 1769 2642 2001 
Q 2353 2234 1838 2234 
L 1294 2234 
L 1294 2753 
L 1863 2753 
Q 2328 2753 2575 2939 
Q 2822 3125 2822 3475 
Q 2822 3834 2567 4026 
Q 2313 4219 1838 4219 
Q 1578 4219 1281 4162 
Q 984 4106 628 3988 
L 628 4550 
Q 988 4650 1302 4700 
Q 1616 4750 1894 4750 
Q 2613 4750 3031 4423 
Q 3450 4097 3450 3541 
Q 3450 3153 3228 2886 
Q 3006 2619 2597 2516 
z
" transform="scale(0.015625)"/>
     </defs>
     <use xlink:href="#DejaVuSans-76"/>
     <use xlink:href="#DejaVuSans-32" x="59.179688"/>
     <use xlink:href="#DejaVuSans-2e" x="122.802734"/>
     <use xlink:href="#DejaVuSans-36" x="154.589844"/>
     <use xlink:href="#DejaVuSans-2e" x="218.212891"/>
     <use xlink:href="#DejaVuSans-33" x="250"/>
    </g>
   </g>
   <g id="legend_1">
    <g id="patch_7">
     <path d="M 48.16 136.425 
L 177.381875 136.425 
Q 181.381875 136.425 181.381875 132.425 
L 181.381875 17 
Q 181.381875 13 177.381875 13 
L 48.16 13 
Q 44.16 13 44.16 17 
L 44.16 132.425 
Q 44.16 136.425 48.16 136.425 
z
" style="fill: #ffffff; opacity: 0.2; stroke: #cccccc; stroke-linejoin: miter"/>
    </g>
    <g id="line2d_27">
     <path d="M 52.16 29.196875 
L 72.16 29.196875 
L 92.16 29.196875 
" style="fill: none; stroke: #000000; stroke-width: 3; stroke-linecap: square"/>
    </g>
    <g id="text_8">
     <!-- 1: 2/5 -->
     <g transform="translate(108.16 36.196875) scale(0.2 -0.2)">
      <defs>
       <path id="DejaVuSans-3a" d="M 750 794 
L 1409 794 
L 1409 0 
L 750 0 
L 750 794 
z
M 750 3309 
L 1409 3309 
L 1409 2516 
L 750 2516 
L 750 3309 
z
" transform="scale(0.015625)"/>
       <path id="DejaVuSans-2f" d="M 1625 4666 
L 2156 4666 
L 531 -594 
L 0 -594 
L 1625 4666 
z
" transform="scale(0.015625)"/>
       <path id="DejaVuSans-35" d="M 691 4666 
L 3169 4666 
L 3169 4134 
L 1269 4134 
L 1269 2991 
Q 1406 3038 1543 3061 
Q 1681 3084 1819 3084 
Q 2600 3084 3056 2656 
Q 3513 2228 3513 1497 
Q 3513 744 3044 326 
Q 2575 -91 1722 -91 
Q 1428 -91 1123 -41 
Q 819 9 494 109 
L 494 744 
Q 775 591 1075 516 
Q 1375 441 1709 441 
Q 2250 441 2565 725 
Q 2881 1009 2881 1497 
Q 2881 1984 2565 2268 
Q 2250 2553 1709 2553 
Q 1456 2553 1204 2497 
Q 953 2441 691 2322 
L 691 4666 
z
" transform="scale(0.015625)"/>
      </defs>
      <use xlink:href="#DejaVuSans-31"/>
      <use xlink:href="#DejaVuSans-3a" x="63.623047"/>
      <use xlink:href="#DejaVuSans-20" x="97.314453"/>
      <use xlink:href="#DejaVuSans-32" x="129.101562"/>
      <use xlink:href="#DejaVuSans-2f" x="192.724609"/>
      <use xlink:href="#DejaVuSans-35" x="226.416016"/>
     </g>
    </g>
    <g id="line2d_28">
     <path d="M 52.16 58.553125 
L 72.16 58.553125 
L 92.16 58.553125 
" style="fill: none; stroke: #00bfbf; stroke-width: 3; stroke-linecap: square"/>
    </g>
    <g id="text_9">
     <!-- -1: 2/3 -->
     <g transform="translate(108.16 65.553125) scale(0.2 -0.2)">
      <use xlink:href="#DejaVuSans-2d"/>
      <use xlink:href="#DejaVuSans-31" x="36.083984"/>
      <use xlink:href="#DejaVuSans-3a" x="99.707031"/>
      <use xlink:href="#DejaVuSans-20" x="133.398438"/>
      <use xlink:href="#DejaVuSans-32" x="165.185547"/>
      <use xlink:href="#DejaVuSans-2f" x="228.808594"/>
      <use xlink:href="#DejaVuSans-33" x="262.5"/>
     </g>
    </g>
    <g id="line2d_29">
     <path d="M 52.16 87.909375 
L 72.16 87.909375 
L 92.16 87.909375 
" style="fill: none; stroke: #bf00bf; stroke-width: 3; stroke-linecap: square"/>
    </g>
    <g id="text_10">
     <!-- -4: 1/2 -->
     <g transform="translate(108.16 94.909375) scale(0.2 -0.2)">
      <use xlink:href="#DejaVuSans-2d"/>
      <use xlink:href="#DejaVuSans-34" x="36.083984"/>
      <use xlink:href="#DejaVuSans-3a" x="99.707031"/>
      <use xlink:href="#DejaVuSans-20" x="133.398438"/>
      <use xlink:href="#DejaVuSans-31" x="165.185547"/>
      <use xlink:href="#DejaVuSans-2f" x="228.808594"/>
      <use xlink:href="#DejaVuSans-32" x="262.5"/>
     </g>
    </g>
    <g id="line2d_30">
     <path d="M 52.16 117.265625 
L 72.16 117.265625 
L 92.16 117.265625 
" style="fill: none; stroke: #ff0000; stroke-width: 3; stroke-linecap: square"/>
    </g>
    <g id="text_11">
     <!-- -8: 1/2 -->
     <g transform="translate(108.16 124.265625) scale(0.2 -0.2)">
      <defs>
       <path id="DejaVuSans-38" d="M 2034 2216 
Q 1584 2216 1326 1975 
Q 1069 1734 1069 1313 
Q 1069 891 1326 650 
Q 1584 409 2034 409 
Q 2484 409 2743 651 
Q 3003 894 3003 1313 
Q 3003 1734 2745 1975 
Q 2488 2216 2034 2216 
z
M 1403 2484 
Q 997 2584 770 2862 
Q 544 3141 544 3541 
Q 544 4100 942 4425 
Q 1341 4750 2034 4750 
Q 2731 4750 3128 4425 
Q 3525 4100 3525 3541 
Q 3525 3141 3298 2862 
Q 3072 2584 2669 2484 
Q 3125 2378 3379 2068 
Q 3634 1759 3634 1313 
Q 3634 634 3220 271 
Q 2806 -91 2034 -91 
Q 1263 -91 848 271 
Q 434 634 434 1313 
Q 434 1759 690 2068 
Q 947 2378 1403 2484 
z
M 1172 3481 
Q 1172 3119 1398 2916 
Q 1625 2713 2034 2713 
Q 2441 2713 2670 2916 
Q 2900 3119 2900 3481 
Q 2900 3844 2670 4047 
Q 2441 4250 2034 4250 
Q 1625 4250 1398 4047 
Q 1172 3844 1172 3481 
z
" transform="scale(0.015625)"/>
      </defs>
      <use xlink:href="#DejaVuSans-2d"/>
      <use xlink:href="#DejaVuSans-38" x="36.083984"/>
      <use xlink:href="#DejaVuSans-3a" x="99.707031"/>
      <use xlink:href="#DejaVuSans-20" x="133.398438"/>
      <use xlink:href="#DejaVuSans-31" x="165.185547"/>
      <use xlink:href="#DejaVuSans-2f" x="228.808594"/>
      <use xlink:href="#DejaVuSans-32" x="262.5"/>
     </g>
    </g>
   </g>
  </g>
 </g>
 <defs>
  <clipPath id="p4418ce4cd3">
   <rect x="34.16" y="3" width="419.032" height="288.28"/>
  </clipPath>
 </defs>
</svg>
