<?xml version="1.0" encoding="utf-8" standalone="no"?>
<!DOCTYPE svg PUBLIC "-//W3C//DTD SVG 1.1//EN"
  "http://www.w3.org/Graphics/SVG/1.1/DTD/svg11.dtd">
<svg xmlns:xlink="http://www.w3.org/1999/xlink" width="460.8pt" height="345.6pt" viewBox="0 0 460.8 345.6" xmlns="http://www.w3.org/2000/svg" version="1.1">
 <metadata>
  <rdf:RDF xmlns:dc="http://purl.org/dc/elements/1.1/" xmlns:cc="http://creativecommons.org/ns#" xmlns:rdf="http://www.w3.org/1999/02/22-rdf-syntax-ns#">
   <cc:Work>
    <dc:type rdf:resource="http://purl.org/dc/dcmitype/StillImage"/>
    <dc:date>2024-06-05T09:48:51.628937</dc:date>
    <dc:format>image/svg+xml</dc:format>
    <dc:creator>
     <cc:Agent>
      <dc:title>Matplotlib v3.7.1, https://matplotlib.org/</dc:title>
     </cc:Agent>
    </dc:creator>
   </cc:Work>
  </rdf:RDF>
 </metadata>
 <defs>
  <style type="text/css">*{stroke-linejoin: round; stroke-linecap: butt}</style>
 </defs>
 <g id="figure_1">
  <g id="patch_1">
   <path d="M 0 345.6 
L 460.8 345.6 
L 460.8 0 
L 0 0 
z
" style="fill: #ffffff"/>
  </g>
  <g id="axes_1">
   <g id="patch_2">
    <path d="M 34.16 291.28 
L 453.192 291.28 
L 453.192 3 
L 34.16 3 
z
" style="fill: #ffffff"/>
   </g>
   <g id="matplotlib.axis_1">
    <g id="xtick_1">
     <g id="line2d_1">
      <path d="M 120.042235 291.28 
L 120.042235 3 
" clip-path="url(#p178966fead)" style="fill: none; stroke: #b0b0b0; stroke-width: 0.8; stroke-linecap: square"/>
     </g>
     <g id="line2d_2">
      <defs>
       <path id="md8ddcf4083" d="M 0 0 
L 0 3.5 
" style="stroke: #000000; stroke-width: 0.8"/>
      </defs>
      <g>
       <use xlink:href="#md8ddcf4083" x="120.042235" y="291.28" style="stroke: #000000; stroke-width: 0.8"/>
      </g>
     </g>
     <g id="text_1">
      <!-- -2 -->
      <g transform="translate(110.071923 313.476875) scale(0.2 -0.2)">
       <defs>
        <path id="DejaVuSans-2d" d="M 313 2009 
L 1997 2009 
L 1997 1497 
L 313 1497 
L 313 2009 
z
" transform="scale(0.015625)"/>
        <path id="DejaVuSans-32" d="M 1228 531 
L 3431 531 
L 3431 0 
L 469 0 
L 469 531 
Q 828 903 1448 1529 
Q 2069 2156 2228 2338 
Q 2531 2678 2651 2914 
Q 2772 3150 2772 3378 
Q 2772 3750 2511 3984 
Q 2250 4219 1831 4219 
Q 1534 4219 1204 4116 
Q 875 4013 500 3803 
L 500 4441 
Q 881 4594 1212 4672 
Q 1544 4750 1819 4750 
Q 2544 4750 2975 4387 
Q 3406 4025 3406 3419 
Q 3406 3131 3298 2873 
Q 3191 2616 2906 2266 
Q 2828 2175 2409 1742 
Q 1991 1309 1228 531 
z
" transform="scale(0.015625)"/>
       </defs>
       <use xlink:href="#DejaVuSans-2d"/>
       <use xlink:href="#DejaVuSans-32" x="36.083984"/>
      </g>
     </g>
    </g>
    <g id="xtick_2">
     <g id="line2d_3">
      <path d="M 243.676 291.28 
L 243.676 3 
" clip-path="url(#p178966fead)" style="fill: none; stroke: #b0b0b0; stroke-width: 0.8; stroke-linecap: square"/>
     </g>
     <g id="line2d_4">
      <g>
       <use xlink:href="#md8ddcf4083" x="243.676" y="291.28" style="stroke: #000000; stroke-width: 0.8"/>
      </g>
     </g>
     <g id="text_2">
      <!-- 0 -->
      <g transform="translate(237.3135 313.476875) scale(0.2 -0.2)">
       <defs>
        <path id="DejaVuSans-30" d="M 2034 4250 
Q 1547 4250 1301 3770 
Q 1056 3291 1056 2328 
Q 1056 1369 1301 889 
Q 1547 409 2034 409 
Q 2525 409 2770 889 
Q 3016 1369 3016 2328 
Q 3016 3291 2770 3770 
Q 2525 4250 2034 4250 
z
M 2034 4750 
Q 2819 4750 3233 4129 
Q 3647 3509 3647 2328 
Q 3647 1150 3233 529 
Q 2819 -91 2034 -91 
Q 1250 -91 836 529 
Q 422 1150 422 2328 
Q 422 3509 836 4129 
Q 1250 4750 2034 4750 
z
" transform="scale(0.015625)"/>
       </defs>
       <use xlink:href="#DejaVuSans-30"/>
      </g>
     </g>
    </g>
    <g id="xtick_3">
     <g id="line2d_5">
      <path d="M 367.309765 291.28 
L 367.309765 3 
" clip-path="url(#p178966fead)" style="fill: none; stroke: #b0b0b0; stroke-width: 0.8; stroke-linecap: square"/>
     </g>
     <g id="line2d_6">
      <g>
       <use xlink:href="#md8ddcf4083" x="367.309765" y="291.28" style="stroke: #000000; stroke-width: 0.8"/>
      </g>
     </g>
     <g id="text_3">
      <!-- 2 -->
      <g transform="translate(360.947265 313.476875) scale(0.2 -0.2)">
       <use xlink:href="#DejaVuSans-32"/>
      </g>
     </g>
    </g>
    <g id="text_4">
     <!-- log10 of FEvals ratio -->
     <g transform="translate(141.371312 336.833125) scale(0.2 -0.2)">
      <defs>
       <path id="DejaVuSans-6c" d="M 603 4863 
L 1178 4863 
L 1178 0 
L 603 0 
L 603 4863 
z
" transform="scale(0.015625)"/>
       <path id="DejaVuSans-6f" d="M 1959 3097 
Q 1497 3097 1228 2736 
Q 959 2375 959 1747 
Q 959 1119 1226 758 
Q 1494 397 1959 397 
Q 2419 397 2687 759 
Q 2956 1122 2956 1747 
Q 2956 2369 2687 2733 
Q 2419 3097 1959 3097 
z
M 1959 3584 
Q 2709 3584 3137 3096 
Q 3566 2609 3566 1747 
Q 3566 888 3137 398 
Q 2709 -91 1959 -91 
Q 1206 -91 779 398 
Q 353 888 353 1747 
Q 353 2609 779 3096 
Q 1206 3584 1959 3584 
z
" transform="scale(0.015625)"/>
       <path id="DejaVuSans-67" d="M 2906 1791 
Q 2906 2416 2648 2759 
Q 2391 3103 1925 3103 
Q 1463 3103 1205 2759 
Q 947 2416 947 1791 
Q 947 1169 1205 825 
Q 1463 481 1925 481 
Q 2391 481 2648 825 
Q 2906 1169 2906 1791 
z
M 3481 434 
Q 3481 -459 3084 -895 
Q 2688 -1331 1869 -1331 
Q 1566 -1331 1297 -1286 
Q 1028 -1241 775 -1147 
L 775 -588 
Q 1028 -725 1275 -790 
Q 1522 -856 1778 -856 
Q 2344 -856 2625 -561 
Q 2906 -266 2906 331 
L 2906 616 
Q 2728 306 2450 153 
Q 2172 0 1784 0 
Q 1141 0 747 490 
Q 353 981 353 1791 
Q 353 2603 747 3093 
Q 1141 3584 1784 3584 
Q 2172 3584 2450 3431 
Q 2728 3278 2906 2969 
L 2906 3500 
L 3481 3500 
L 3481 434 
z
" transform="scale(0.015625)"/>
       <path id="DejaVuSans-31" d="M 794 531 
L 1825 531 
L 1825 4091 
L 703 3866 
L 703 4441 
L 1819 4666 
L 2450 4666 
L 2450 531 
L 3481 531 
L 3481 0 
L 794 0 
L 794 531 
z
" transform="scale(0.015625)"/>
       <path id="DejaVuSans-20" transform="scale(0.015625)"/>
       <path id="DejaVuSans-66" d="M 2375 4863 
L 2375 4384 
L 1825 4384 
Q 1516 4384 1395 4259 
Q 1275 4134 1275 3809 
L 1275 3500 
L 2222 3500 
L 2222 3053 
L 1275 3053 
L 1275 0 
L 697 0 
L 697 3053 
L 147 3053 
L 147 3500 
L 697 3500 
L 697 3744 
Q 697 4328 969 4595 
Q 1241 4863 1831 4863 
L 2375 4863 
z
" transform="scale(0.015625)"/>
       <path id="DejaVuSans-46" d="M 628 4666 
L 3309 4666 
L 3309 4134 
L 1259 4134 
L 1259 2759 
L 3109 2759 
L 3109 2228 
L 1259 2228 
L 1259 0 
L 628 0 
L 628 4666 
z
" transform="scale(0.015625)"/>
       <path id="DejaVuSans-45" d="M 628 4666 
L 3578 4666 
L 3578 4134 
L 1259 4134 
L 1259 2753 
L 3481 2753 
L 3481 2222 
L 1259 2222 
L 1259 531 
L 3634 531 
L 3634 0 
L 628 0 
L 628 4666 
z
" transform="scale(0.015625)"/>
       <path id="DejaVuSans-76" d="M 191 3500 
L 800 3500 
L 1894 563 
L 2988 3500 
L 3597 3500 
L 2284 0 
L 1503 0 
L 191 3500 
z
" transform="scale(0.015625)"/>
       <path id="DejaVuSans-61" d="M 2194 1759 
Q 1497 1759 1228 1600 
Q 959 1441 959 1056 
Q 959 750 1161 570 
Q 1363 391 1709 391 
Q 2188 391 2477 730 
Q 2766 1069 2766 1631 
L 2766 1759 
L 2194 1759 
z
M 3341 1997 
L 3341 0 
L 2766 0 
L 2766 531 
Q 2569 213 2275 61 
Q 1981 -91 1556 -91 
Q 1019 -91 701 211 
Q 384 513 384 1019 
Q 384 1609 779 1909 
Q 1175 2209 1959 2209 
L 2766 2209 
L 2766 2266 
Q 2766 2663 2505 2880 
Q 2244 3097 1772 3097 
Q 1472 3097 1187 3025 
Q 903 2953 641 2809 
L 641 3341 
Q 956 3463 1253 3523 
Q 1550 3584 1831 3584 
Q 2591 3584 2966 3190 
Q 3341 2797 3341 1997 
z
" transform="scale(0.015625)"/>
       <path id="DejaVuSans-73" d="M 2834 3397 
L 2834 2853 
Q 2591 2978 2328 3040 
Q 2066 3103 1784 3103 
Q 1356 3103 1142 2972 
Q 928 2841 928 2578 
Q 928 2378 1081 2264 
Q 1234 2150 1697 2047 
L 1894 2003 
Q 2506 1872 2764 1633 
Q 3022 1394 3022 966 
Q 3022 478 2636 193 
Q 2250 -91 1575 -91 
Q 1294 -91 989 -36 
Q 684 19 347 128 
L 347 722 
Q 666 556 975 473 
Q 1284 391 1588 391 
Q 1994 391 2212 530 
Q 2431 669 2431 922 
Q 2431 1156 2273 1281 
Q 2116 1406 1581 1522 
L 1381 1569 
Q 847 1681 609 1914 
Q 372 2147 372 2553 
Q 372 3047 722 3315 
Q 1072 3584 1716 3584 
Q 2034 3584 2315 3537 
Q 2597 3491 2834 3397 
z
" transform="scale(0.015625)"/>
       <path id="DejaVuSans-72" d="M 2631 2963 
Q 2534 3019 2420 3045 
Q 2306 3072 2169 3072 
Q 1681 3072 1420 2755 
Q 1159 2438 1159 1844 
L 1159 0 
L 581 0 
L 581 3500 
L 1159 3500 
L 1159 2956 
Q 1341 3275 1631 3429 
Q 1922 3584 2338 3584 
Q 2397 3584 2469 3576 
Q 2541 3569 2628 3553 
L 2631 2963 
z
" transform="scale(0.015625)"/>
       <path id="DejaVuSans-74" d="M 1172 4494 
L 1172 3500 
L 2356 3500 
L 2356 3053 
L 1172 3053 
L 1172 1153 
Q 1172 725 1289 603 
Q 1406 481 1766 481 
L 2356 481 
L 2356 0 
L 1766 0 
Q 1100 0 847 248 
Q 594 497 594 1153 
L 594 3053 
L 172 3053 
L 172 3500 
L 594 3500 
L 594 4494 
L 1172 4494 
z
" transform="scale(0.015625)"/>
       <path id="DejaVuSans-69" d="M 603 3500 
L 1178 3500 
L 1178 0 
L 603 0 
L 603 3500 
z
M 603 4863 
L 1178 4863 
L 1178 4134 
L 603 4134 
L 603 4863 
z
" transform="scale(0.015625)"/>
      </defs>
      <use xlink:href="#DejaVuSans-6c"/>
      <use xlink:href="#DejaVuSans-6f" x="27.783203"/>
      <use xlink:href="#DejaVuSans-67" x="88.964844"/>
      <use xlink:href="#DejaVuSans-31" x="152.441406"/>
      <use xlink:href="#DejaVuSans-30" x="216.064453"/>
      <use xlink:href="#DejaVuSans-20" x="279.6875"/>
      <use xlink:href="#DejaVuSans-6f" x="311.474609"/>
      <use xlink:href="#DejaVuSans-66" x="372.65625"/>
      <use xlink:href="#DejaVuSans-20" x="407.861328"/>
      <use xlink:href="#DejaVuSans-46" x="439.648438"/>
      <use xlink:href="#DejaVuSans-45" x="497.167969"/>
      <use xlink:href="#DejaVuSans-76" x="560.351562"/>
      <use xlink:href="#DejaVuSans-61" x="619.53125"/>
      <use xlink:href="#DejaVuSans-6c" x="680.810547"/>
      <use xlink:href="#DejaVuSans-73" x="708.59375"/>
      <use xlink:href="#DejaVuSans-20" x="760.693359"/>
      <use xlink:href="#DejaVuSans-72" x="792.480469"/>
      <use xlink:href="#DejaVuSans-61" x="833.59375"/>
      <use xlink:href="#DejaVuSans-74" x="894.873047"/>
      <use xlink:href="#DejaVuSans-69" x="934.082031"/>
      <use xlink:href="#DejaVuSans-6f" x="961.865234"/>
     </g>
    </g>
   </g>
   <g id="matplotlib.axis_2">
    <g id="ytick_1">
     <g id="line2d_7">
      <path d="M 34.16 288.453725 
L 453.192 288.453725 
" clip-path="url(#p178966fead)" style="fill: none; stroke: #b0b0b0; stroke-width: 0.8; stroke-linecap: square"/>
     </g>
     <g id="line2d_8">
      <defs>
       <path id="m5cdfcaf67d" d="M 0 0 
L -3.5 0 
" style="stroke: #000000; stroke-width: 0.8"/>
      </defs>
      <g>
       <use xlink:href="#m5cdfcaf67d" x="34.16" y="288.453725" style="stroke: #000000; stroke-width: 0.8"/>
      </g>
     </g>
    </g>
    <g id="ytick_2">
     <g id="line2d_9">
      <path d="M 34.16 217.796863 
L 453.192 217.796863 
" clip-path="url(#p178966fead)" style="fill: none; stroke: #b0b0b0; stroke-width: 0.8; stroke-linecap: square"/>
     </g>
     <g id="line2d_10">
      <g>
       <use xlink:href="#m5cdfcaf67d" x="34.16" y="217.796863" style="stroke: #000000; stroke-width: 0.8"/>
      </g>
     </g>
    </g>
    <g id="ytick_3">
     <g id="line2d_11">
      <path d="M 34.16 147.14 
L 453.192 147.14 
" clip-path="url(#p178966fead)" style="fill: none; stroke: #b0b0b0; stroke-width: 0.8; stroke-linecap: square"/>
     </g>
     <g id="line2d_12">
      <g>
       <use xlink:href="#m5cdfcaf67d" x="34.16" y="147.14" style="stroke: #000000; stroke-width: 0.8"/>
      </g>
     </g>
    </g>
    <g id="ytick_4">
     <g id="line2d_13">
      <path d="M 34.16 76.483137 
L 453.192 76.483137 
" clip-path="url(#p178966fead)" style="fill: none; stroke: #b0b0b0; stroke-width: 0.8; stroke-linecap: square"/>
     </g>
     <g id="line2d_14">
      <g>
       <use xlink:href="#m5cdfcaf67d" x="34.16" y="76.483137" style="stroke: #000000; stroke-width: 0.8"/>
      </g>
     </g>
    </g>
    <g id="ytick_5">
     <g id="line2d_15">
      <path d="M 34.16 5.826275 
L 453.192 5.826275 
" clip-path="url(#p178966fead)" style="fill: none; stroke: #b0b0b0; stroke-width: 0.8; stroke-linecap: square"/>
     </g>
     <g id="line2d_16">
      <g>
       <use xlink:href="#m5cdfcaf67d" x="34.16" y="5.826275" style="stroke: #000000; stroke-width: 0.8"/>
      </g>
     </g>
    </g>
    <g id="text_5">
     <!-- proportion of trials -->
     <g transform="translate(19.000625 240.14625) rotate(-90) scale(0.2 -0.2)">
      <defs>
       <path id="DejaVuSans-70" d="M 1159 525 
L 1159 -1331 
L 581 -1331 
L 581 3500 
L 1159 3500 
L 1159 2969 
Q 1341 3281 1617 3432 
Q 1894 3584 2278 3584 
Q 2916 3584 3314 3078 
Q 3713 2572 3713 1747 
Q 3713 922 3314 415 
Q 2916 -91 2278 -91 
Q 1894 -91 1617 61 
Q 1341 213 1159 525 
z
M 3116 1747 
Q 3116 2381 2855 2742 
Q 2594 3103 2138 3103 
Q 1681 3103 1420 2742 
Q 1159 2381 1159 1747 
Q 1159 1113 1420 752 
Q 1681 391 2138 391 
Q 2594 391 2855 752 
Q 3116 1113 3116 1747 
z
" transform="scale(0.015625)"/>
       <path id="DejaVuSans-6e" d="M 3513 2113 
L 3513 0 
L 2938 0 
L 2938 2094 
Q 2938 2591 2744 2837 
Q 2550 3084 2163 3084 
Q 1697 3084 1428 2787 
Q 1159 2491 1159 1978 
L 1159 0 
L 581 0 
L 581 3500 
L 1159 3500 
L 1159 2956 
Q 1366 3272 1645 3428 
Q 1925 3584 2291 3584 
Q 2894 3584 3203 3211 
Q 3513 2838 3513 2113 
z
" transform="scale(0.015625)"/>
      </defs>
      <use xlink:href="#DejaVuSans-70"/>
      <use xlink:href="#DejaVuSans-72" x="63.476562"/>
      <use xlink:href="#DejaVuSans-6f" x="102.339844"/>
      <use xlink:href="#DejaVuSans-70" x="163.521484"/>
      <use xlink:href="#DejaVuSans-6f" x="226.998047"/>
      <use xlink:href="#DejaVuSans-72" x="288.179688"/>
      <use xlink:href="#DejaVuSans-74" x="329.292969"/>
      <use xlink:href="#DejaVuSans-69" x="368.501953"/>
      <use xlink:href="#DejaVuSans-6f" x="396.285156"/>
      <use xlink:href="#DejaVuSans-6e" x="457.466797"/>
      <use xlink:href="#DejaVuSans-20" x="520.845703"/>
      <use xlink:href="#DejaVuSans-6f" x="552.632812"/>
      <use xlink:href="#DejaVuSans-66" x="613.814453"/>
      <use xlink:href="#DejaVuSans-20" x="649.019531"/>
      <use xlink:href="#DejaVuSans-74" x="680.806641"/>
      <use xlink:href="#DejaVuSans-72" x="720.015625"/>
      <use xlink:href="#DejaVuSans-69" x="761.128906"/>
      <use xlink:href="#DejaVuSans-61" x="788.912109"/>
      <use xlink:href="#DejaVuSans-6c" x="850.191406"/>
      <use xlink:href="#DejaVuSans-73" x="877.974609"/>
     </g>
    </g>
   </g>
   <g id="line2d_17">
    <path d="M 34.16 265.189619 
L 54.270294 265.189619 
L 54.270294 264.87524 
L 58.115559 264.87524 
L 58.115559 264.56086 
L 71.51184 264.56086 
L 71.51184 263.9321 
L 73.781164 263.9321 
L 73.781164 263.61772 
L 83.646163 263.61772 
L 83.646163 263.303341 
L 84.070541 263.303341 
L 84.070541 262.988961 
L 84.78245 262.988961 
L 84.78245 262.674581 
L 85.177968 262.674581 
L 85.177968 262.360201 
L 92.121545 262.360201 
L 92.121545 262.045821 
L 97.466822 262.045821 
L 97.466822 261.417062 
L 98.574249 261.417062 
L 98.670018 260.473922 
L 104.29332 260.473922 
L 104.29332 260.159542 
L 106.668335 260.159542 
L 106.668335 259.845163 
L 108.66306 259.845163 
L 108.66306 259.530783 
L 109.542096 259.530783 
L 109.601145 258.902023 
L 109.71711 258.902023 
L 109.71711 258.587643 
L 110.708572 258.587643 
L 110.708572 258.273264 
L 116.081133 258.273264 
L 116.081133 257.958884 
L 116.319617 257.958884 
L 116.319617 257.644504 
L 118.076527 257.644504 
L 118.076527 257.330124 
L 119.07172 257.330124 
L 119.07172 257.015744 
L 119.183954 257.015744 
L 119.183954 256.701364 
L 120.064617 256.701364 
L 120.064617 256.072605 
L 122.059341 256.072605 
L 122.059341 255.443845 
L 122.938377 255.443845 
L 122.938377 254.815086 
L 123.113392 254.815086 
L 123.113392 254.186326 
L 124.625 254.186326 
L 124.625 253.871946 
L 125.732427 253.871946 
L 125.732427 253.557566 
L 132.19894 253.557566 
L 132.19894 253.243187 
L 134.193664 253.243187 
L 134.193664 252.928807 
L 135.0727 252.928807 
L 135.0727 252.614427 
L 135.247715 252.614427 
L 135.247715 252.300047 
L 135.830487 252.300047 
L 135.830487 251.985667 
L 140.674321 251.985667 
L 140.674321 251.671287 
L 142.669046 251.671287 
L 142.669046 251.356908 
L 143.548082 251.356908 
L 143.548082 251.042528 
L 143.723096 251.042528 
L 143.723096 250.728148 
L 146.593289 250.728148 
L 146.593289 250.413768 
L 147.222794 250.413768 
L 147.222794 250.099388 
L 149.217519 250.099388 
L 149.217519 249.785009 
L 149.583876 249.785009 
L 149.583876 249.470629 
L 150.096555 249.470629 
L 150.096555 249.156249 
L 150.271569 249.156249 
L 150.271569 248.841869 
L 152.662664 248.841869 
L 152.662664 248.527489 
L 169.011736 248.527489 
L 169.011736 248.21311 
L 170.578893 248.21311 
L 170.578893 247.89873 
L 175.30586 247.89873 
L 175.30586 247.58435 
L 178.130456 247.58435 
L 178.130456 247.26997 
L 178.498896 247.26997 
L 178.498896 246.95559 
L 178.617646 246.95559 
L 178.617646 246.64121 
L 179.572909 246.64121 
L 179.572909 246.326831 
L 179.725073 246.326831 
L 179.725073 246.012451 
L 180.126469 246.012451 
L 180.126469 245.383691 
L 180.670708 245.383691 
L 180.775817 244.754932 
L 181.121043 244.754932 
L 181.121043 244.440552 
L 182.408018 244.440552 
L 182.408018 243.811792 
L 183.600537 243.811792 
L 183.600537 243.497412 
L 184.339039 243.497412 
L 184.358291 242.868653 
L 185.021207 242.868653 
L 185.021207 242.554273 
L 187.11422 242.554273 
L 187.11422 242.239893 
L 189.061129 242.239893 
L 189.061129 241.925513 
L 191.472917 241.925513 
L 191.472917 241.611134 
L 191.864231 241.611134 
L 191.864231 241.296754 
L 192.12016 241.296754 
L 192.12016 240.982374 
L 193.113141 240.982374 
L 193.113141 240.667994 
L 194.121587 240.667994 
L 194.121587 240.353614 
L 194.540422 240.353614 
L 194.574981 239.410475 
L 194.692816 239.410475 
L 194.692816 239.096095 
L 196.13394 239.096095 
L 196.167804 238.467335 
L 198.053037 238.467335 
L 198.053037 238.152956 
L 198.343275 238.152956 
L 198.343275 237.838576 
L 198.583099 237.838576 
L 198.583099 237.524196 
L 198.719298 237.524196 
L 198.719298 237.209816 
L 199.53666 237.209816 
L 199.53666 236.895436 
L 199.776483 236.895436 
L 199.776483 236.581057 
L 200.162774 236.581057 
L 200.181579 235.952297 
L 201.049394 235.952297 
L 201.049394 235.323537 
L 201.21544 235.323537 
L 201.21544 235.009157 
L 201.68837 235.009157 
L 201.68837 234.694778 
L 202.146321 234.694778 
L 202.146321 234.380398 
L 202.494984 234.380398 
L 202.494984 234.066018 
L 203.017722 234.066018 
L 203.111407 233.437258 
L 203.210165 233.437258 
L 203.210165 233.122879 
L 203.568997 233.122879 
L 203.568997 232.808499 
L 203.680338 232.808499 
L 203.725996 232.179739 
L 203.828075 232.179739 
L 203.828075 231.865359 
L 204.067779 231.865359 
L 204.122557 230.60784 
L 204.188439 230.60784 
L 204.264215 229.97908 
L 204.553706 229.97908 
L 204.553706 229.664701 
L 205.55277 229.664701 
L 205.55277 229.350321 
L 205.808455 229.350321 
L 205.808455 229.035941 
L 206.261848 229.035941 
L 206.261848 228.721561 
L 206.86841 228.721561 
L 206.86841 228.407181 
L 207.214824 228.407181 
L 207.214824 228.092802 
L 207.786053 228.092802 
L 207.786053 227.778422 
L 208.354379 227.778422 
L 208.448085 227.149662 
L 208.688595 227.149662 
L 208.688595 226.835282 
L 208.969397 226.835282 
L 209.017295 225.892143 
L 209.33038 225.892143 
L 209.33038 225.577763 
L 209.566195 225.577763 
L 209.566195 225.263383 
L 209.766922 225.263383 
L 209.766922 224.949003 
L 209.927441 224.949003 
L 209.927441 224.634624 
L 210.04341 224.634624 
L 210.04341 224.005864 
L 210.59697 224.005864 
L 210.59697 222.748345 
L 211.110308 222.748345 
L 211.110308 222.433965 
L 211.507116 222.433965 
L 211.507116 222.119585 
L 211.934806 222.119585 
L 211.934806 221.805205 
L 212.154721 221.805205 
L 212.154721 221.490826 
L 212.347703 221.490826 
L 212.347703 221.176446 
L 212.566523 221.176446 
L 212.566523 220.862066 
L 213.25601 220.862066 
L 213.25601 220.547686 
L 213.927378 220.547686 
L 213.927378 220.233306 
L 214.04714 220.233306 
L 214.04714 219.918926 
L 214.181851 219.918926 
L 214.181851 219.604547 
L 214.57891 219.604547 
L 214.57891 219.290167 
L 214.713487 219.290167 
L 214.713487 218.661407 
L 214.828792 218.661407 
L 214.828792 218.032648 
L 215.195056 218.032648 
L 215.255864 217.403888 
L 215.491708 217.403888 
L 215.491708 216.775128 
L 215.809424 216.775128 
L 215.860319 215.203229 
L 216.150556 215.203229 
L 216.150556 214.888849 
L 216.819232 214.888849 
L 216.819232 214.57447 
L 217.343941 214.57447 
L 217.439994 213.31695 
L 217.464061 213.31695 
L 217.464061 212.688191 
L 217.58472 212.688191 
L 217.668573 211.745051 
L 217.730232 211.745051 
L 217.730232 211.430672 
L 218.117676 211.430672 
L 218.117676 211.116292 
L 218.486527 211.116292 
L 218.535327 210.487532 
L 218.923616 210.487532 
L 218.949051 209.544393 
L 219.138377 209.544393 
L 219.204736 208.601253 
L 219.65813 208.601253 
L 219.65813 208.286873 
L 219.85481 208.286873 
L 219.85481 207.972494 
L 220.041246 207.972494 
L 220.041246 207.658114 
L 220.486527 207.658114 
L 220.486527 207.343734 
L 220.704162 207.343734 
L 220.704162 207.029354 
L 220.928822 207.029354 
L 220.928822 206.714974 
L 221.330276 206.714974 
L 221.330276 206.400595 
L 221.482383 206.400595 
L 221.560539 205.143075 
L 221.635356 205.143075 
L 221.635356 204.828696 
L 221.781171 204.828696 
L 221.781171 204.514316 
L 221.99572 204.514316 
L 222.088922 203.885556 
L 222.1141 203.885556 
L 222.122786 202.942417 
L 222.334732 202.942417 
L 222.390662 201.684897 
L 222.797175 201.684897 
L 222.797175 201.370518 
L 223.191208 201.370518 
L 223.230213 200.112998 
L 223.575395 200.112998 
L 223.575395 199.798619 
L 223.940663 199.798619 
L 223.940663 199.484239 
L 224.367857 199.484239 
L 224.367857 199.169859 
L 224.592088 199.169859 
L 224.67428 197.59796 
L 224.796604 197.59796 
L 224.893498 196.9692 
L 225.067264 196.9692 
L 225.067264 196.65482 
L 225.551002 196.65482 
L 225.588576 195.711681 
L 225.684458 195.711681 
L 225.781707 194.768542 
L 225.919613 194.768542 
L 225.919613 194.454162 
L 226.345922 194.454162 
L 226.377121 193.825402 
L 226.662589 193.825402 
L 226.662589 193.511022 
L 227.008837 193.511022 
L 227.020615 192.882263 
L 227.216149 192.882263 
L 227.251129 191.939123 
L 227.547186 191.939123 
L 227.578133 190.995984 
L 228.109769 190.995984 
L 228.171557 190.052844 
L 228.427485 190.052844 
L 228.470133 189.424085 
L 228.652146 189.424085 
L 228.652146 189.109705 
L 229.10185 189.109705 
L 229.205706 188.166565 
L 229.598384 188.166565 
L 229.615588 187.537806 
L 229.729561 187.537806 
L 229.804543 186.909046 
L 230.288639 186.909046 
L 230.310666 186.280287 
L 230.533231 186.280287 
L 230.533231 185.651527 
L 230.734331 185.651527 
L 230.823468 184.708388 
L 231.083374 184.708388 
L 231.083374 184.394008 
L 231.210912 184.394008 
L 231.210912 184.079628 
L 231.339059 184.079628 
L 231.447971 182.822109 
L 231.938239 182.822109 
L 232.016853 181.878969 
L 232.110887 181.878969 
L 232.15887 180.93583 
L 232.520769 180.93583 
L 232.520769 180.62145 
L 232.674619 180.62145 
L 232.674619 180.30707 
L 232.893646 180.30707 
L 232.893646 179.99269 
L 233.220144 179.99269 
L 233.220144 179.678311 
L 233.437528 179.678311 
L 233.437528 179.363931 
L 233.851861 179.363931 
L 233.851861 179.049551 
L 234.100444 179.049551 
L 234.203899 178.106411 
L 234.952793 178.106411 
L 234.952793 177.792032 
L 235.094881 177.792032 
L 235.094881 177.477652 
L 235.477501 177.477652 
L 235.53644 176.534512 
L 235.68873 176.534512 
L 235.68873 176.220133 
L 235.952677 176.220133 
L 236.003188 175.591373 
L 236.109218 175.591373 
L 236.204288 174.333854 
L 236.277309 174.333854 
L 236.308268 173.705094 
L 236.534217 173.705094 
L 236.534217 173.390714 
L 236.668632 173.390714 
L 236.754131 172.761955 
L 236.832976 172.761955 
L 236.832976 172.447575 
L 237.033899 172.447575 
L 237.033899 172.133195 
L 237.371325 172.133195 
L 237.371325 171.818815 
L 237.685325 171.818815 
L 237.685325 170.875676 
L 238.073765 170.875676 
L 238.073765 170.561296 
L 238.206042 170.561296 
L 238.206042 170.246916 
L 238.372939 170.246916 
L 238.372939 169.932536 
L 238.595471 169.932536 
L 238.657259 168.989397 
L 238.897734 168.989397 
L 238.953911 168.046257 
L 239.191144 168.046257 
L 239.200751 167.417498 
L 239.558756 167.417498 
L 239.56641 166.788738 
L 239.674882 166.788738 
L 239.76751 166.159979 
L 239.814441 166.159979 
L 239.842536 165.531219 
L 240.025694 165.531219 
L 240.091119 164.902459 
L 240.244092 164.902459 
L 240.279078 164.2737 
L 240.533892 164.2737 
L 240.533892 163.95932 
L 240.782014 163.95932 
L 240.782014 163.64494 
L 240.943467 163.64494 
L 241.015733 163.016181 
L 241.211267 163.016181 
L 241.211267 162.701801 
L 241.641319 162.701801 
L 241.641319 162.387421 
L 241.823767 162.387421 
L 241.885555 161.444281 
L 242.020418 161.444281 
L 242.020418 161.129902 
L 242.175792 161.129902 
L 242.175792 160.815522 
L 242.481547 160.815522 
L 242.482615 160.186762 
L 242.733913 160.186762 
L 242.733913 159.872382 
L 242.897779 159.872382 
L 242.899455 159.243623 
L 243.036495 159.243623 
L 243.074469 158.300483 
L 243.176512 158.300483 
L 243.200824 157.671724 
L 243.313773 157.671724 
L 243.411498 156.728584 
L 243.676 156.728584 
L 243.676 155.785445 
L 243.875719 155.785445 
L 243.878727 155.156685 
L 244.127216 155.156685 
L 244.197312 154.527926 
L 244.2885 154.527926 
L 244.382534 153.584786 
L 244.4212 153.584786 
L 244.528349 152.012887 
L 244.622238 152.012887 
L 244.720581 151.069748 
L 244.742898 151.069748 
L 244.818587 150.440988 
L 245.039071 150.440988 
L 245.108165 149.497849 
L 245.154175 149.497849 
L 245.154175 149.183469 
L 245.271325 149.183469 
L 245.354467 148.554709 
L 245.411376 148.554709 
L 245.472134 147.92595 
L 245.528233 147.92595 
L 245.528233 147.61157 
L 245.665557 147.61157 
L 245.665557 146.98281 
L 245.824885 146.98281 
L 245.933357 146.039671 
L 246.011971 146.039671 
L 246.107229 144.782151 
L 246.160707 144.782151 
L 246.160707 144.467772 
L 246.362914 144.467772 
L 246.362914 144.153392 
L 246.681441 144.153392 
L 246.715305 143.524632 
L 246.816307 143.524632 
L 246.816307 143.210252 
L 246.934142 143.210252 
L 246.934142 142.895873 
L 247.193681 142.895873 
L 247.272075 141.952733 
L 247.34753 141.952733 
L 247.34753 141.638353 
L 247.54863 141.638353 
L 247.594341 140.695214 
L 247.660592 140.695214 
L 247.769356 139.437695 
L 248.020956 139.437695 
L 248.020956 139.123315 
L 248.386223 139.123315 
L 248.401963 138.494555 
L 248.570738 138.494555 
L 248.666791 137.551416 
L 248.702018 137.551416 
L 248.778049 136.608276 
L 248.888454 136.608276 
L 248.957028 135.350757 
L 249.063352 135.350757 
L 249.063352 135.036377 
L 249.202455 135.036377 
L 249.270893 134.093238 
L 249.767793 134.093238 
L 249.77603 133.464478 
L 249.933809 133.464478 
L 249.968893 132.835719 
L 250.056707 132.835719 
L 250.150413 131.263819 
L 250.303386 131.263819 
L 250.329591 129.69192 
L 250.66375 129.69192 
L 250.767606 128.748781 
L 250.878011 128.748781 
L 250.976531 128.120021 
L 251.029018 128.120021 
L 251.029018 127.805642 
L 251.961311 127.805642 
L 252.026821 127.176882 
L 252.209691 127.176882 
L 252.209691 126.862502 
L 252.412528 126.862502 
L 252.412528 126.548122 
L 252.70918 126.548122 
L 252.812635 125.919363 
L 253.069544 125.919363 
L 253.069544 125.604983 
L 253.280408 125.604983 
L 253.280408 125.290603 
L 253.481508 125.290603 
L 253.570646 124.347464 
L 253.771746 124.347464 
L 253.771746 124.033084 
L 253.95809 124.033084 
L 253.95809 123.718704 
L 254.169483 123.718704 
L 254.169483 123.404324 
L 254.304504 123.404324 
L 254.304504 123.089944 
L 254.441828 123.089944 
L 254.441828 122.775565 
L 254.561413 122.775565 
L 254.561413 122.461185 
L 254.736311 122.461185 
L 254.802192 121.518045 
L 254.965131 121.518045 
L 255.020342 120.889286 
L 255.167459 120.889286 
L 255.267946 119.631766 
L 255.471558 119.631766 
L 255.557156 118.374247 
L 255.810323 118.374247 
L 255.810323 118.059867 
L 256.294061 118.059867 
L 256.363883 117.116728 
L 256.550969 117.116728 
L 256.550969 116.802348 
L 256.776832 116.802348 
L 256.776832 116.487968 
L 256.931781 116.487968 
L 256.931781 116.173589 
L 257.182686 116.173589 
L 257.182686 115.859209 
L 257.317341 115.859209 
L 257.317341 115.544829 
L 257.440605 115.544829 
L 257.440605 115.230449 
L 257.562646 115.230449 
L 257.562646 114.916069 
L 257.819555 114.916069 
L 257.891821 114.28731 
L 258.546005 114.28731 
L 258.546005 113.97293 
L 259.026594 113.97293 
L 259.055446 113.02979 
L 259.256546 113.02979 
L 259.256546 112.715411 
L 259.41581 112.715411 
L 259.41581 112.401031 
L 259.61691 112.401031 
L 259.61691 112.086651 
L 259.781077 112.086651 
L 259.842441 111.143512 
L 259.982177 111.143512 
L 260.076912 109.885992 
L 260.241717 109.885992 
L 260.241717 109.571612 
L 260.474158 109.571612 
L 260.474158 109.257233 
L 260.595705 109.257233 
L 260.595705 108.942853 
L 260.750219 108.942853 
L 260.750219 108.628473 
L 260.95322 108.628473 
L 260.95322 108.314093 
L 261.188799 108.314093 
L 261.258621 107.370954 
L 261.404436 107.370954 
L 261.404436 107.056574 
L 261.643712 107.056574 
L 261.694674 106.427814 
L 261.825806 106.427814 
L 261.825806 106.113435 
L 262.067352 106.113435 
L 262.067352 105.799055 
L 262.284736 105.799055 
L 262.284736 105.170295 
L 262.411074 105.170295 
L 262.436842 104.227156 
L 262.547365 104.227156 
L 262.547365 103.912776 
L 262.75114 103.912776 
L 262.75114 103.598396 
L 262.888059 103.598396 
L 262.888059 103.284016 
L 263.131686 103.284016 
L 263.131686 102.969636 
L 263.351634 102.969636 
L 263.38659 102.340877 
L 263.558841 102.340877 
L 263.558841 102.026497 
L 263.729752 102.026497 
L 263.729752 101.712117 
L 264.274293 101.712117 
L 264.324709 101.083358 
L 265.126411 101.083358 
L 265.212113 100.454598 
L 265.327241 100.454598 
L 265.327241 100.140218 
L 265.491177 100.140218 
L 265.576207 99.511458 
L 265.911567 99.511458 
L 266.005447 98.568319 
L 266.180461 98.568319 
L 266.213927 97.939559 
L 266.423178 97.939559 
L 266.423178 97.62518 
L 266.600971 97.62518 
L 266.695736 96.99642 
L 266.728257 96.99642 
L 266.728257 96.68204 
L 267.006825 96.68204 
L 267.088622 95.738901 
L 267.179474 95.738901 
L 267.179474 95.424521 
L 267.386785 95.424521 
L 267.453889 94.481381 
L 267.539838 94.481381 
L 267.643694 93.538242 
L 267.905105 93.538242 
L 267.906292 92.909482 
L 268.101645 92.909482 
L 268.101645 92.280723 
L 268.275411 92.280723 
L 268.275411 91.966343 
L 268.481764 91.966343 
L 268.481764 91.651963 
L 268.785328 91.651963 
L 268.785328 91.337583 
L 268.960342 91.337583 
L 268.981944 90.708824 
L 269.199709 90.708824 
L 269.199709 90.394444 
L 269.940858 90.394444 
L 269.940858 90.080064 
L 270.141958 90.080064 
L 270.141958 89.765684 
L 270.298297 89.765684 
L 270.359002 89.136925 
L 270.682071 89.136925 
L 270.760117 88.193785 
L 271.379703 88.193785 
L 271.379703 87.565026 
L 271.698727 87.565026 
L 271.698727 87.250646 
L 271.816245 87.250646 
L 271.891491 86.621886 
L 272.059091 86.621886 
L 272.156944 85.678747 
L 272.424358 85.678747 
L 272.424358 85.364367 
L 272.762931 85.364367 
L 272.762931 85.049987 
L 272.91324 85.049987 
L 272.91324 84.735607 
L 273.170149 84.735607 
L 273.170149 84.421228 
L 274.022497 84.421228 
L 274.022497 84.106848 
L 274.146501 84.106848 
L 274.245293 83.478088 
L 276.879033 83.478088 
L 276.879033 83.163708 
L 277.30859 83.163708 
L 277.417946 82.534949 
L 277.485021 82.534949 
L 277.485021 82.220569 
L 277.61367 82.220569 
L 277.61367 81.906189 
L 277.925784 81.906189 
L 277.925784 81.591809 
L 278.064886 81.591809 
L 278.160939 80.96305 
L 278.967382 80.96305 
L 278.967382 80.64867 
L 280.107658 80.64867 
L 280.107658 80.33429 
L 280.544052 80.33429 
L 280.544052 80.01991 
L 280.893472 80.01991 
L 280.893472 79.70553 
L 281.15038 79.70553 
L 281.15038 79.391151 
L 281.368647 79.391151 
L 281.368647 79.076771 
L 281.512138 79.076771 
L 281.512138 78.762391 
L 282.026413 78.762391 
L 282.026413 78.448011 
L 282.584139 78.448011 
L 282.619565 77.819251 
L 282.774557 77.819251 
L 282.774557 77.504872 
L 282.964314 77.504872 
L 282.975657 76.876112 
L 283.399129 76.876112 
L 283.452238 76.247352 
L 284.184943 76.247352 
L 284.241507 75.618593 
L 284.441852 75.618593 
L 284.446676 74.989833 
L 285.398177 74.989833 
L 285.398177 74.675453 
L 286.178696 74.675453 
L 286.236231 74.046694 
L 286.476929 74.046694 
L 286.476929 73.732314 
L 286.607443 73.732314 
L 286.607443 73.417934 
L 286.767167 73.417934 
L 286.767167 73.103554 
L 287.115268 73.103554 
L 287.115268 72.789174 
L 287.290282 72.789174 
L 287.290282 72.474795 
L 287.959291 72.474795 
L 287.960552 71.846035 
L 288.249529 71.846035 
L 288.249529 71.531655 
L 288.689649 71.531655 
L 288.689649 71.217275 
L 289.169283 71.217275 
L 289.169283 70.902896 
L 289.442913 70.902896 
L 289.442913 70.274136 
L 289.59803 70.274136 
L 289.59803 69.959756 
L 289.979866 69.959756 
L 289.979866 69.645376 
L 290.447369 69.645376 
L 290.447369 69.330997 
L 290.76568 69.330997 
L 290.76568 69.016617 
L 290.898585 69.016617 
L 290.898585 68.702237 
L 291.022588 68.702237 
L 291.022588 68.387857 
L 291.43247 68.387857 
L 291.43247 68.073477 
L 291.778884 68.073477 
L 291.778884 67.759097 
L 292.251967 67.759097 
L 292.251967 67.444718 
L 292.612331 67.444718 
L 292.720972 66.815958 
L 292.977598 66.815958 
L 292.977598 66.501578 
L 293.734328 66.501578 
L 293.734328 66.187198 
L 294.094693 66.187198 
L 294.094693 65.872819 
L 294.45996 65.872819 
L 294.45996 65.558439 
L 294.723942 65.558439 
L 294.723942 65.244059 
L 295.270386 65.244059 
L 295.363766 64.615299 
L 295.417838 64.615299 
L 295.417838 64.30092 
L 298.614884 64.30092 
L 298.614884 63.98654 
L 299.502208 63.98654 
L 299.502208 63.67216 
L 300.099875 63.67216 
L 300.099875 63.35778 
L 300.35556 63.35778 
L 300.35556 63.0434 
L 301.304678 63.0434 
L 301.304678 62.72902 
L 302.369095 62.72902 
L 302.369095 62.414641 
L 303.137379 62.414641 
L 303.137379 62.100261 
L 304.109932 62.100261 
L 304.115825 61.471501 
L 304.316925 61.471501 
L 304.316925 61.157121 
L 304.619741 61.157121 
L 304.619741 60.842742 
L 304.847334 60.842742 
L 304.847334 60.528362 
L 305.686558 60.528362 
L 305.686558 60.213982 
L 306.104657 60.213982 
L 306.104657 59.899602 
L 306.701826 59.899602 
L 306.701826 59.585222 
L 306.983693 59.585222 
L 307.063982 58.642083 
L 307.158707 58.642083 
L 307.158707 58.327703 
L 307.837921 58.327703 
L 307.837921 58.013323 
L 308.677145 58.013323 
L 308.677145 57.698943 
L 309.260593 57.698943 
L 309.260593 57.384564 
L 309.615475 57.384564 
L 309.615475 57.070184 
L 311.788637 57.070184 
L 311.788637 56.755804 
L 312.239853 56.755804 
L 312.239853 56.441424 
L 315.971078 56.441424 
L 315.971078 56.127044 
L 316.759106 56.127044 
L 316.759106 55.812665 
L 317.45344 55.812665 
L 317.45344 55.498285 
L 322.974591 55.498285 
L 322.974591 55.183905 
L 325.475087 55.183905 
L 325.475087 54.869525 
L 326.176898 54.869525 
L 326.176898 54.555145 
L 328.254968 54.555145 
L 328.254968 54.240766 
L 329.106726 54.240766 
L 329.106726 53.926386 
L 331.301236 53.926386 
L 331.301236 53.612006 
L 335.08901 53.612006 
L 335.08901 53.297626 
L 335.730795 53.297626 
L 335.730795 52.983246 
L 336.167337 52.983246 
L 336.167337 52.668866 
L 337.312346 52.668866 
L 337.312346 52.354487 
L 337.425138 52.354487 
L 337.425138 52.040107 
L 338.018838 52.040107 
L 338.018838 51.725727 
L 338.660623 51.725727 
L 338.660623 51.411347 
L 338.794708 51.411347 
L 338.794708 51.096967 
L 338.910128 51.096967 
L 338.910128 50.782588 
L 339.097165 50.782588 
L 339.165813 50.153828 
L 342.08616 50.153828 
L 342.120025 49.525068 
L 343.571151 49.525068 
L 343.605015 48.896309 
L 343.826836 48.896309 
L 343.8607 48.267549 
L 344.671519 48.267549 
L 344.671519 47.953169 
L 345.512079 47.953169 
L 345.512079 47.63879 
L 346.156509 47.63879 
L 346.156509 47.32441 
L 346.412194 47.32441 
L 346.412194 47.01003 
L 346.584908 47.01003 
L 346.584908 46.69565 
L 348.070846 46.69565 
L 348.070846 46.38127 
L 349.186527 46.38127 
L 349.186527 46.06689 
L 350.173102 46.06689 
L 350.206966 45.438131 
L 352.731869 45.438131 
L 352.765733 44.494991 
L 355.317227 44.494991 
L 355.317227 44.180612 
L 356.129976 44.180612 
L 356.129976 43.866232 
L 358.098639 43.866232 
L 358.098639 43.551852 
L 358.740424 43.551852 
L 358.740424 43.237472 
L 359.059804 43.237472 
L 359.059804 42.923092 
L 359.176966 42.923092 
L 359.176966 42.608713 
L 360.53113 42.608713 
L 360.53113 42.294333 
L 361.784844 42.294333 
L 361.784844 41.979953 
L 362.016121 41.979953 
L 362.016121 41.665573 
L 362.271806 41.665573 
L 362.271806 41.351193 
L 363.311011 41.351193 
L 363.311011 41.036813 
L 364.796002 41.036813 
L 364.796002 40.722434 
L 365.051687 40.722434 
L 365.051687 40.408054 
L 366.445867 40.408054 
L 366.479731 39.464914 
L 368.618072 39.464914 
L 368.618072 39.150535 
L 369.031225 39.150535 
L 369.031225 38.836155 
L 369.874047 38.836155 
L 369.874047 38.521775 
L 370.11149 38.521775 
L 370.11149 38.207395 
L 370.302794 38.207395 
L 370.302794 37.893015 
L 371.176838 37.893015 
L 371.176838 37.578636 
L 371.397953 37.578636 
L 371.397953 37.264256 
L 373.95672 37.264256 
L 373.95672 36.949876 
L 374.772513 36.949876 
L 374.806377 36.321116 
L 377.357871 36.321116 
L 377.357871 36.006736 
L 378.786158 36.006736 
L 378.786158 35.692357 
L 379.139606 35.692357 
L 379.214906 35.063597 
L 379.427943 35.063597 
L 379.427943 34.749217 
L 379.856691 34.749217 
L 379.864485 34.120458 
L 380.293233 34.120458 
L 380.293233 33.806078 
L 381.640951 33.806078 
L 381.640951 33.491698 
L 383.125941 33.491698 
L 383.125941 33.177318 
L 383.381626 33.177318 
L 383.381626 32.862938 
L 384.890836 32.862938 
L 384.890836 32.548559 
L 387.670718 32.548559 
L 387.670718 32.234179 
L 388.542684 32.234179 
L 388.542684 31.919799 
L 389.381909 31.919799 
L 389.381909 31.605419 
L 389.727892 31.605419 
L 389.727892 31.291039 
L 392.286659 31.291039 
L 392.286659 30.976659 
L 393.217482 30.976659 
L 393.217482 30.66228 
L 395.997364 30.66228 
L 395.997364 30.3479 
L 397.454796 30.3479 
L 397.454796 30.03352 
L 398.096581 30.03352 
L 398.096581 29.71914 
L 398.294021 29.71914 
L 398.294021 29.40476 
L 398.533123 29.40476 
L 398.533123 29.090381 
L 398.935806 29.090381 
L 398.935806 28.776001 
L 399.372347 28.776001 
L 399.372347 28.461621 
L 399.827125 28.461621 
L 399.827125 28.147241 
L 400.255872 28.147241 
L 400.255872 27.832861 
L 401.509376 27.832861 
L 401.509376 27.518482 
L 402.994367 27.518482 
L 402.994367 27.204102 
L 403.250052 27.204102 
L 403.250052 26.889722 
L 406.000657 26.889722 
L 406.000657 26.575342 
L 409.596318 26.575342 
L 409.596318 26.260962 
L 412.155084 26.260962 
L 412.155084 25.946582 
L 414.327303 25.946582 
L 414.327303 25.632203 
L 418.495763 25.632203 
L 418.495763 25.317823 
L 419.334987 25.317823 
L 419.334987 25.003443 
L 425.869082 25.003443 
L 425.869082 24.689063 
L 434.195728 24.689063 
L 434.195728 24.374683 
L 453.192 24.374683 
L 453.192 24.374683 
" clip-path="url(#p178966fead)" style="fill: none; stroke: #000000; stroke-width: 3; stroke-linecap: square"/>
   </g>
   <g id="line2d_18">
    <path clip-path="url(#p178966fead)" style="fill: none; stroke: #000000; stroke-width: 3; stroke-linecap: square"/>
   </g>
   <g id="line2d_19">
    <path d="M 34.16 246.990417 
L 82.478405 246.990417 
L 82.478405 246.567322 
L 105.31493 246.567322 
L 105.31493 246.144227 
L 124.402614 246.144227 
L 124.402614 245.721132 
L 126.529496 245.721132 
L 126.529496 245.298037 
L 146.211241 245.298037 
L 146.297259 244.451847 
L 147.570063 244.451847 
L 147.570063 244.028752 
L 148.150591 244.028752 
L 148.150591 243.605657 
L 148.266232 243.605657 
L 148.266232 243.182562 
L 148.818205 243.182562 
L 148.818205 242.759467 
L 149.366021 242.759467 
L 149.366021 242.336372 
L 164.15001 242.336372 
L 164.15001 241.913277 
L 164.675652 241.913277 
L 164.675652 241.490182 
L 164.810034 241.490182 
L 164.810034 241.067087 
L 164.979817 241.067087 
L 164.979817 240.643992 
L 165.346143 240.643992 
L 165.346143 240.220897 
L 165.475644 240.220897 
L 165.475644 239.797802 
L 166.277434 239.797802 
L 166.277434 239.374707 
L 166.870152 239.374707 
L 166.870152 238.951612 
L 167.416803 238.951612 
L 167.416803 238.528517 
L 168.453706 238.528517 
L 168.453706 238.105422 
L 177.974125 238.105422 
L 177.974125 237.682327 
L 181.13435 237.682327 
L 181.13435 237.259232 
L 181.659993 237.259232 
L 181.659993 236.836137 
L 181.794375 236.836137 
L 181.794375 236.413042 
L 182.330483 236.413042 
L 182.330483 235.989947 
L 182.459985 235.989947 
L 182.459985 235.566852 
L 183.261774 235.566852 
L 183.261774 235.143757 
L 183.781364 235.143757 
L 183.86825 233.874472 
L 184.307007 233.874472 
L 184.401144 233.028282 
L 184.441389 233.028282 
L 184.441389 232.605187 
L 184.977497 232.605187 
L 184.977497 232.182092 
L 185.106999 232.182092 
L 185.106999 231.758997 
L 185.419012 231.758997 
L 185.419012 231.335902 
L 185.908788 231.335902 
L 185.944655 230.489712 
L 186.079037 230.489712 
L 186.079037 230.066617 
L 186.501506 230.066617 
L 186.501506 229.643522 
L 186.615145 229.643522 
L 186.615145 229.220427 
L 186.744647 229.220427 
L 186.744647 228.797332 
L 187.048158 228.797332 
L 187.048158 228.374237 
L 187.222081 228.374237 
L 187.222081 227.951142 
L 187.546436 227.951142 
L 187.546436 227.528047 
L 187.747724 227.528047 
L 187.816342 226.681857 
L 187.882105 226.681857 
L 187.965217 225.835667 
L 188.139154 225.835667 
L 188.173818 224.989478 
L 188.418214 224.989478 
L 188.49086 224.143288 
L 188.547716 224.143288 
L 188.625242 223.297098 
L 188.685806 223.297098 
L 188.69946 222.450908 
L 188.833842 222.450908 
L 188.833842 222.027813 
L 189.16135 222.027813 
L 189.16135 221.604718 
L 189.290852 221.604718 
L 189.369951 220.335433 
L 189.499452 220.335433 
L 189.499452 219.912338 
L 189.942223 219.912338 
L 189.942223 219.489243 
L 190.092641 219.489243 
L 190.092641 219.066148 
L 190.262333 219.066148 
L 190.348351 217.796863 
L 190.488875 217.796863 
L 190.488875 217.373768 
L 190.685359 217.373768 
L 190.685359 216.950673 
L 190.89396 216.950673 
L 190.89396 216.527578 
L 191.232011 216.527578 
L 191.232011 216.104483 
L 191.440611 216.104483 
L 191.440611 215.681388 
L 191.621155 215.681388 
L 191.621155 215.258293 
L 192.201683 215.258293 
L 192.201683 214.835198 
L 192.317323 214.835198 
L 192.317323 214.412103 
L 192.869297 214.412103 
L 192.869297 213.989008 
L 199.536576 213.989008 
L 199.585317 213.142818 
L 200.81065 213.142818 
L 200.81065 212.719723 
L 201.417572 212.719723 
L 201.417572 212.296628 
L 201.676817 212.296628 
L 201.676817 211.873533 
L 204.614011 211.873533 
L 204.614011 211.450438 
L 206.085053 211.450438 
L 206.085053 211.027343 
L 206.704775 211.027343 
L 206.704775 210.604248 
L 206.904027 210.604248 
L 206.904027 210.181153 
L 208.096431 210.181153 
L 208.096431 209.758058 
L 208.400268 209.758058 
L 208.400268 209.334963 
L 211.13947 209.334963 
L 211.13947 208.911868 
L 211.308769 208.911868 
L 211.308769 208.488773 
L 217.855045 208.488773 
L 217.855045 208.065678 
L 219.758967 208.065678 
L 219.758967 207.642583 
L 219.898335 207.642583 
L 219.898335 207.219488 
L 220.647021 207.219488 
L 220.647021 206.796393 
L 220.945359 206.796393 
L 220.945359 206.373298 
L 222.373101 206.373298 
L 222.421842 205.527108 
L 223.210566 205.527108 
L 223.210566 205.104013 
L 223.823614 205.104013 
L 223.823614 204.680918 
L 224.254097 204.680918 
L 224.254097 204.257823 
L 224.513342 204.257823 
L 224.513342 203.834728 
L 225.080772 203.834728 
L 225.080772 203.411633 
L 225.79246 203.411633 
L 225.79246 202.988538 
L 226.931193 202.988538 
L 226.931193 202.565443 
L 227.113284 202.565443 
L 227.113284 202.142348 
L 227.282583 202.142348 
L 227.282583 201.719253 
L 227.727786 201.719253 
L 227.727786 201.296158 
L 228.533241 201.296158 
L 228.533241 200.873063 
L 228.70254 200.873063 
L 228.798671 199.180683 
L 228.890925 199.180683 
L 228.890925 198.757588 
L 229.365434 198.757588 
L 229.365434 198.334493 
L 230.071475 198.334493 
L 230.071475 197.911398 
L 230.652003 197.911398 
L 230.652003 197.488303 
L 230.767644 197.488303 
L 230.767644 197.065208 
L 231.168503 197.065208 
L 231.236793 196.219018 
L 231.319618 196.219018 
L 231.319618 195.795923 
L 231.911639 195.795923 
L 231.911639 195.372828 
L 232.120239 195.372828 
L 232.120239 194.949733 
L 232.634849 194.949733 
L 232.634849 194.526638 
L 232.804148 194.526638 
L 232.804148 194.103544 
L 232.92652 194.103544 
L 232.92652 193.680449 
L 237.631362 193.680449 
L 237.631362 193.257354 
L 238.302519 193.257354 
L 238.302519 192.834259 
L 238.872594 192.834259 
L 238.872594 192.411164 
L 239.18438 192.411164 
L 239.290966 191.564974 
L 239.392325 191.564974 
L 239.398236 190.718784 
L 239.532618 190.718784 
L 239.549978 189.872594 
L 240.068727 189.872594 
L 240.068727 189.449499 
L 240.198228 189.449499 
L 240.278376 188.180214 
L 240.604336 188.180214 
L 240.604336 187.757119 
L 240.753119 187.757119 
L 240.792721 186.910929 
L 240.887501 186.910929 
L 240.887501 186.487834 
L 241.000018 186.487834 
L 241.038779 185.218549 
L 241.213542 185.218549 
L 241.273985 184.372359 
L 241.42361 184.372359 
L 241.509526 182.679979 
L 241.551232 182.679979 
L 241.592736 181.410694 
L 241.670665 181.410694 
L 241.739185 179.718314 
L 241.792979 179.718314 
L 241.873567 178.449029 
L 241.916024 178.449029 
L 241.93401 177.602839 
L 242.139388 177.602839 
L 242.221723 176.333554 
L 242.330689 176.333554 
L 242.409675 174.218079 
L 242.470118 174.218079 
L 242.539177 172.948794 
L 242.595492 172.948794 
L 242.59962 172.102604 
L 242.866798 172.102604 
L 242.947619 170.833319 
L 242.9963 170.833319 
L 243.065784 169.987129 
L 243.153014 169.987129 
L 243.153014 169.564034 
L 243.340966 169.564034 
L 243.443651 167.448559 
L 243.49427 167.448559 
L 243.601026 166.602369 
L 243.646311 166.602369 
L 243.745732 165.333084 
L 243.761952 165.333084 
L 243.798089 164.486894 
L 243.933684 164.486894 
L 243.994127 162.794515 
L 244.08776 162.794515 
L 244.103675 161.948325 
L 244.292384 161.948325 
L 244.390807 160.255945 
L 244.462229 160.255945 
L 244.540779 158.563565 
L 244.623868 158.563565 
L 244.705944 156.871185 
L 244.75337 156.871185 
L 244.769634 155.6019 
L 244.937459 155.6019 
L 245.031657 154.332615 
L 245.555159 154.332615 
L 245.571075 153.486425 
L 246.147877 153.486425 
L 246.163793 152.640235 
L 246.694529 152.640235 
L 246.710444 151.794045 
L 247.601087 151.794045 
L 247.687105 150.947855 
L 248.426571 150.947855 
L 248.426571 150.52476 
L 248.665102 150.52476 
L 248.665102 150.101665 
L 248.959909 150.101665 
L 248.959909 149.67857 
L 249.540437 149.67857 
L 249.540437 149.255475 
L 249.656077 149.255475 
L 249.656077 148.83238 
L 249.910861 148.83238 
L 249.910861 148.409285 
L 250.136144 148.409285 
L 250.208051 147.563095 
L 250.324477 147.563095 
L 250.324477 147.14 
L 252.557875 147.14 
L 252.557875 146.716905 
L 254.195523 146.716905 
L 254.195523 146.29381 
L 255.286859 146.29381 
L 255.286859 145.870715 
L 255.998592 145.870715 
L 255.998592 145.44762 
L 256.741728 145.44762 
L 256.84073 144.60143 
L 256.950328 144.60143 
L 257.012593 143.75524 
L 257.458432 143.75524 
L 257.458432 143.332145 
L 257.933873 143.332145 
L 257.933873 142.90905 
L 258.372056 142.90905 
L 258.43255 142.06286 
L 258.620935 142.06286 
L 258.620935 141.639765 
L 258.878388 141.639765 
L 258.878388 141.21667 
L 259.066774 141.21667 
L 259.066774 140.793575 
L 259.466956 140.793575 
L 259.571521 139.947385 
L 259.792013 139.947385 
L 259.792013 139.52429 
L 259.980398 139.52429 
L 259.980398 139.101195 
L 260.561357 139.101195 
L 260.561357 138.6781 
L 261.37459 138.6781 
L 261.37459 138.255005 
L 261.683177 138.255005 
L 261.683177 137.83191 
L 261.906136 137.83191 
L 262.015998 136.98572 
L 262.11397 136.98572 
L 262.127491 135.716435 
L 262.22885 135.716435 
L 262.326326 134.870245 
L 262.386503 134.870245 
L 262.386503 134.44715 
L 262.534158 134.44715 
L 262.534158 134.024055 
L 262.979997 134.024055 
L 262.979997 133.60096 
L 263.269412 133.60096 
L 263.35543 132.331675 
L 263.404171 132.331675 
L 263.404171 131.90858 
L 263.751618 131.90858 
L 263.751618 131.485485 
L 263.893621 131.485485 
L 263.893621 131.062391 
L 264.628234 131.062391 
L 264.676975 129.793106 
L 264.99645 129.793106 
L 264.99645 129.370011 
L 265.150408 129.370011 
L 265.257503 127.677631 
L 265.324402 127.677631 
L 265.409653 126.408346 
L 265.495671 126.408346 
L 265.554687 125.562156 
L 265.876376 125.562156 
L 265.925117 124.715966 
L 266.297823 124.715966 
L 266.30066 123.869776 
L 266.506423 123.869776 
L 266.50923 123.023586 
L 266.768475 123.023586 
L 266.768475 122.600491 
L 267.089758 122.600491 
L 267.089758 122.177396 
L 267.205398 122.177396 
L 267.205398 121.754301 
L 267.349003 121.754301 
L 267.349003 121.331206 
L 267.464643 121.331206 
L 267.504874 120.485016 
L 267.757372 120.485016 
L 267.757372 120.061921 
L 267.874706 120.061921 
L 267.874706 119.638826 
L 268.016617 119.638826 
L 268.103728 118.792636 
L 268.846864 118.792636 
L 268.846864 118.369541 
L 269.055465 118.369541 
L 269.055465 117.946446 
L 271.686526 117.946446 
L 271.686526 117.523351 
L 272.133104 117.523351 
L 272.219122 116.677161 
L 273.491926 116.677161 
L 273.491926 116.254066 
L 274.072454 116.254066 
L 274.072454 115.830971 
L 274.188094 115.830971 
L 274.188094 115.407876 
L 274.668943 115.407876 
L 274.740068 114.561686 
L 275.114782 114.561686 
L 275.114782 114.138591 
L 276.028406 114.138591 
L 276.028406 113.715496 
L 281.215176 113.715496 
L 281.316535 112.869306 
L 281.474188 112.869306 
L 281.474188 112.446211 
L 282.819015 112.446211 
L 282.819015 112.023116 
L 283.478688 112.023116 
L 283.577821 110.753831 
L 284.173898 110.753831 
L 284.173898 110.330736 
L 284.850625 110.330736 
L 284.898645 109.484546 
L 284.972011 109.484546 
L 284.972011 109.061451 
L 285.08703 109.061451 
L 285.159964 108.215261 
L 285.220407 108.215261 
L 285.220407 107.792166 
L 285.431153 107.792166 
L 285.431153 107.369071 
L 285.546794 107.369071 
L 285.617087 106.522881 
L 286.098768 106.522881 
L 286.098768 106.099786 
L 287.115423 106.099786 
L 287.115423 105.676691 
L 287.374157 105.676691 
L 287.390072 104.830501 
L 288.586465 104.830501 
L 288.670867 103.984311 
L 289.000253 103.984311 
L 289.000253 103.561216 
L 291.317881 103.561216 
L 291.317881 103.138121 
L 292.955529 103.138121 
L 292.955529 102.715026 
L 294.758598 102.715026 
L 294.758598 102.291931 
L 295.369605 102.291931 
L 295.369605 101.868836 
L 295.501734 101.868836 
L 295.501734 101.445741 
L 295.710334 101.445741 
L 295.710334 101.022646 
L 296.724488 101.022646 
L 296.724488 100.599551 
L 297.522601 100.599551 
L 297.522601 100.176456 
L 297.710554 100.176456 
L 297.770997 99.330267 
L 298.167676 99.330267 
L 298.167676 98.907172 
L 299.924747 98.907172 
L 299.940662 98.060982 
L 300.109731 98.060982 
L 300.109731 97.637887 
L 300.356457 97.637887 
L 300.356457 97.214792 
L 301.135038 97.214792 
L 301.135038 96.791697 
L 301.580773 96.791697 
L 301.580773 96.368602 
L 303.023802 96.368602 
L 303.125162 95.099317 
L 303.211179 95.099317 
L 303.282815 94.253127 
L 303.368833 94.253127 
L 303.446771 93.406937 
L 304.382624 93.406937 
L 304.483984 92.560747 
L 304.641637 92.560747 
L 304.641637 92.137652 
L 304.963152 92.137652 
L 305.064511 91.291462 
L 305.078793 91.291462 
L 305.180152 90.445272 
L 305.222165 90.445272 
L 305.222165 90.022177 
L 305.337805 90.022177 
L 305.337805 89.599082 
L 305.630767 89.599082 
L 305.732126 88.752892 
L 305.889779 88.752892 
L 305.889779 88.329797 
L 306.003857 88.329797 
L 306.003857 87.906702 
L 306.325026 87.906702 
L 306.325026 87.483607 
L 307.474898 87.483607 
L 307.474898 87.060512 
L 307.649105 87.060512 
L 307.649105 86.637417 
L 309.003987 86.637417 
L 309.003987 86.214322 
L 309.802101 86.214322 
L 309.802101 85.791227 
L 309.990053 85.791227 
L 310.050496 84.945037 
L 310.447176 84.945037 
L 310.447176 84.521942 
L 312.204246 84.521942 
L 312.220161 83.675752 
L 313.025103 83.675752 
L 313.025103 83.252657 
L 313.350765 83.252657 
L 313.451416 82.406467 
L 314.379985 82.406467 
L 314.379985 81.983372 
L 315.178099 81.983372 
L 315.178099 81.560277 
L 315.366051 81.560277 
L 315.426494 80.714087 
L 315.823174 80.714087 
L 315.823174 80.290992 
L 316.441079 80.290992 
L 316.441079 79.867897 
L 317.2052 79.867897 
L 317.2052 79.444802 
L 317.580244 79.444802 
L 317.59616 78.598612 
L 318.560082 78.598612 
L 318.560082 78.175517 
L 319.24489 78.175517 
L 319.319335 77.329327 
L 319.358196 77.329327 
L 319.358196 76.906232 
L 319.546148 76.906232 
L 319.606591 76.060042 
L 319.754241 76.060042 
L 319.754241 75.636947 
L 320.003271 75.636947 
L 320.003271 75.213852 
L 321.109124 75.213852 
L 321.109124 74.790757 
L 321.672182 74.790757 
L 321.776257 73.098377 
L 321.907237 73.098377 
L 321.907237 72.675282 
L 322.09519 72.675282 
L 322.155633 71.829092 
L 322.335204 71.829092 
L 322.335204 71.405997 
L 322.552312 71.405997 
L 322.552312 70.982902 
L 323.143223 70.982902 
L 323.191964 70.136712 
L 323.553178 70.136712 
L 323.553178 69.713617 
L 323.812423 69.713617 
L 323.812423 69.290522 
L 324.309382 69.290522 
L 324.325298 68.444333 
L 325.024219 68.444333 
L 325.024219 68.021238 
L 325.21346 68.021238 
L 325.283464 67.175048 
L 330.535874 67.175048 
L 330.535874 66.751953 
L 332.006915 66.751953 
L 332.006915 66.328858 
L 332.465668 66.328858 
L 332.465668 65.905763 
L 334.913215 65.905763 
L 334.961956 65.059573 
L 336.794211 65.059573 
L 336.794211 64.636478 
L 337.053456 64.636478 
L 337.053456 64.213383 
L 338.003529 64.213383 
L 338.05227 63.367193 
L 339.884525 63.367193 
L 339.884525 62.944098 
L 340.14377 62.944098 
L 340.14377 62.521003 
L 340.881785 62.521003 
L 340.930526 61.674813 
L 341.894573 61.674813 
L 341.894573 61.251718 
L 342.762781 61.251718 
L 342.762781 60.828623 
L 343.022026 60.828623 
L 343.022026 60.405528 
L 343.365615 60.405528 
L 343.365615 59.982433 
L 343.776907 59.982433 
L 343.776907 59.559338 
L 346.40911 59.559338 
L 346.40911 59.136243 
L 346.867222 59.136243 
L 346.867222 58.713148 
L 347.763993 58.713148 
L 347.763993 58.290053 
L 348.562106 58.290053 
L 348.562106 57.866958 
L 348.750059 57.866958 
L 348.810502 57.020768 
L 349.207181 57.020768 
L 349.207181 56.597673 
L 349.745477 56.597673 
L 349.745477 56.174578 
L 350.964252 56.174578 
L 350.980167 55.328388 
L 355.135607 55.328388 
L 355.135607 54.905293 
L 358.225921 54.905293 
L 358.225921 54.482198 
L 361.104176 54.482198 
L 361.104176 54.059103 
L 361.426572 54.059103 
L 361.527931 53.212913 
L 361.685584 53.212913 
L 361.685584 52.789818 
L 362.897614 52.789818 
L 362.998973 51.943628 
L 363.156626 51.943628 
L 363.156626 51.520533 
L 371.714054 51.520533 
L 371.714054 51.097438 
L 374.667606 51.097438 
L 374.768965 50.251248 
L 374.926618 50.251248 
L 374.926618 49.828153 
L 377.75792 49.828153 
L 377.859279 48.981963 
L 378.016932 48.981963 
L 378.016932 48.558868 
L 380.636175 48.558868 
L 380.737535 47.712678 
L 380.895188 47.712678 
L 380.895188 47.289583 
L 453.192 47.289583 
L 453.192 47.289583 
" clip-path="url(#p178966fead)" style="fill: none; stroke: #00bfbf; stroke-width: 3; stroke-linecap: square"/>
   </g>
   <g id="line2d_20">
    <path clip-path="url(#p178966fead)" style="fill: none; stroke: #00bfbf; stroke-width: 3; stroke-linecap: square"/>
   </g>
   <g id="line2d_21">
    <path d="M 34.16 224.282275 
L 95.773145 224.282275 
L 95.773145 223.827159 
L 118.650155 223.827159 
L 118.650155 223.372042 
L 137.453585 223.372042 
L 137.453585 222.916925 
L 148.390372 222.916925 
L 148.390372 222.461809 
L 158.638966 222.461809 
L 158.638966 222.006692 
L 158.922343 222.006692 
L 158.922343 221.551575 
L 160.006289 221.551575 
L 160.006289 221.096459 
L 160.685276 221.096459 
L 160.685276 220.641342 
L 161.1133 220.641342 
L 161.1133 220.186225 
L 162.304928 220.186225 
L 162.304928 219.731109 
L 171.267381 219.731109 
L 171.267381 219.275992 
L 179.238155 219.275992 
L 179.238155 218.820875 
L 183.620553 218.820875 
L 183.620553 218.365759 
L 187.225591 218.365759 
L 187.225591 217.910642 
L 190.070811 217.910642 
L 190.070811 217.455525 
L 200.154567 217.455525 
L 200.154567 217.000409 
L 200.663954 217.000409 
L 200.663954 216.545292 
L 201.673525 216.545292 
L 201.673525 216.090175 
L 202.115165 216.090175 
L 202.115165 215.635059 
L 202.425583 215.635059 
L 202.425583 215.179942 
L 206.497563 215.179942 
L 206.497563 214.724825 
L 207.098772 214.724825 
L 207.098772 214.269709 
L 207.642105 214.269709 
L 207.642105 213.814592 
L 207.812257 213.814592 
L 207.826195 212.904359 
L 208.028751 212.904359 
L 208.028751 212.449242 
L 208.22431 212.449242 
L 208.260094 211.539009 
L 208.35559 211.539009 
L 208.423577 210.628775 
L 208.539681 210.628775 
L 208.539681 210.173659 
L 208.742236 210.173659 
L 208.767643 209.263425 
L 208.951733 209.263425 
L 208.973579 207.898075 
L 209.151001 207.898075 
L 209.154289 206.987842 
L 209.353556 206.987842 
L 209.385632 206.077609 
L 209.584899 206.077609 
L 209.584899 205.622492 
L 210.102601 205.622492 
L 210.102601 205.167375 
L 211.256192 205.167375 
L 211.256192 204.712259 
L 211.46218 204.712259 
L 211.539569 203.802025 
L 212.623515 203.802025 
L 212.623515 203.346909 
L 213.302503 203.346909 
L 213.302503 202.891792 
L 213.675294 202.891792 
L 213.730526 201.981559 
L 214.922154 201.981559 
L 214.922154 201.526442 
L 215.812863 201.526442 
L 215.812863 201.071325 
L 216.920196 201.071325 
L 216.920196 200.616209 
L 220.289684 200.616209 
L 220.289684 200.161092 
L 220.918595 200.161092 
L 220.918595 199.705975 
L 223.031577 199.705975 
L 223.031577 199.250859 
L 223.184995 199.250859 
L 223.184995 198.795742 
L 223.540964 198.795742 
L 223.540964 198.340625 
L 223.974116 198.340625 
L 223.974116 197.885509 
L 224.473651 197.885509 
L 224.550534 196.975275 
L 224.918515 196.975275 
L 224.997623 196.065042 
L 225.055395 196.065042 
L 225.055395 195.609925 
L 225.187136 195.609925 
L 225.187136 195.154808 
L 225.300993 195.154808 
L 225.302593 194.244575 
L 225.43782 194.244575 
L 225.461849 193.334342 
L 225.598728 193.334342 
L 225.66956 191.513875 
L 225.782818 191.513875 
L 225.848494 190.148525 
L 225.985374 190.148525 
L 226.079838 189.238292 
L 226.216717 189.238292 
L 226.216717 188.783175 
L 226.383045 188.783175 
L 226.383045 188.328058 
L 226.795098 188.328058 
L 226.795098 187.872942 
L 226.994365 187.872942 
L 226.994365 187.417825 
L 227.598075 187.417825 
L 227.598075 186.962708 
L 228.497893 186.962708 
L 228.497893 186.507592 
L 228.876836 186.507592 
L 228.906031 185.597358 
L 230.454616 185.597358 
L 230.454616 185.142242 
L 232.52297 185.142242 
L 232.52297 184.687125 
L 238.689872 184.687125 
L 238.689872 184.232008 
L 239.320891 184.232008 
L 239.330151 183.321775 
L 239.584909 183.321775 
L 239.651586 182.411542 
L 240.220708 182.411542 
L 240.220708 181.956425 
L 240.599651 181.956425 
L 240.599651 181.501308 
L 241.078571 181.501308 
L 241.078571 181.046192 
L 241.573715 181.046192 
L 241.573715 180.591075 
L 241.835007 180.591075 
L 241.835007 180.135958 
L 242.103976 180.135958 
L 242.207949 179.225725 
L 242.293394 179.225725 
L 242.387353 177.860375 
L 242.407179 177.860375 
L 242.473533 176.495025 
L 242.852476 176.495025 
L 242.852476 176.039908 
L 243.009168 176.039908 
L 243.009168 175.584792 
L 243.162016 175.584792 
L 243.166694 174.674558 
L 243.353964 174.674558 
L 243.414247 173.309208 
L 243.471299 173.309208 
L 243.552501 171.943858 
L 243.626183 171.943858 
L 243.736591 170.578508 
L 243.88944 170.578508 
L 243.939147 169.213158 
L 244.089793 169.213158 
L 244.17049 166.482458 
L 244.245785 166.482458 
L 244.323339 165.117108 
L 244.523692 165.117108 
L 244.57831 163.751758 
L 244.739053 163.751758 
L 244.739053 163.296642 
L 245.769938 163.296642 
L 245.769938 162.841525 
L 246.486374 162.841525 
L 246.498609 161.931292 
L 246.769751 161.931292 
L 246.769751 161.476175 
L 247.853697 161.476175 
L 247.853697 161.021058 
L 248.532684 161.021058 
L 248.532684 160.565942 
L 248.960708 160.565942 
L 248.960708 160.110825 
L 250.091412 160.110825 
L 250.152336 159.200592 
L 250.374789 159.200592 
L 250.374789 158.745475 
L 251.458735 158.745475 
L 251.458735 158.290358 
L 252.137722 158.290358 
L 252.137722 157.835242 
L 252.565746 157.835242 
L 252.565746 157.380125 
L 253.757374 157.380125 
L 253.757374 156.925008 
L 257.214466 156.925008 
L 257.214466 156.469892 
L 257.493302 156.469892 
L 257.493302 156.014775 
L 258.114283 156.014775 
L 258.114283 155.559658 
L 258.343845 155.559658 
L 258.343845 155.104542 
L 258.493227 155.104542 
L 258.543075 154.194308 
L 259.243662 154.194308 
L 259.243662 153.739192 
L 259.442892 153.739192 
L 259.442892 153.284075 
L 259.622605 153.284075 
L 259.622605 152.828958 
L 259.821835 152.828958 
L 259.821835 152.373842 
L 260.384047 152.373842 
L 260.384047 151.918725 
L 260.536896 151.918725 
L 260.536896 151.463608 
L 260.737249 151.463608 
L 260.737249 151.008492 
L 261.233991 151.008492 
L 261.233991 150.553375 
L 261.37087 150.553375 
L 261.37087 150.098258 
L 261.579956 150.098258 
L 261.579956 149.643142 
L 261.732805 149.643142 
L 261.732805 149.188025 
L 261.933158 149.188025 
L 261.970123 148.277792 
L 262.13936 148.277792 
L 262.20716 147.367558 
L 262.461919 147.367558 
L 262.528595 146.457325 
L 262.652241 146.457325 
L 262.652241 146.002208 
L 263.020388 146.002208 
L 263.020388 145.547092 
L 263.268739 145.547092 
L 263.365727 144.181742 
L 263.467969 144.181742 
L 263.529775 143.271508 
L 263.777779 143.271508 
L 263.813152 142.361275 
L 263.977047 142.361275 
L 263.977047 141.906158 
L 264.387711 141.906158 
L 264.387711 141.451042 
L 264.539346 141.451042 
L 264.575554 140.540808 
L 264.822722 140.540808 
L 264.897098 139.630575 
L 265.066698 139.630575 
L 265.066698 139.175458 
L 265.289039 139.175458 
L 265.291404 138.265225 
L 265.494722 138.265225 
L 265.576086 136.899875 
L 265.701092 136.899875 
L 265.701092 136.444758 
L 265.893665 136.444758 
L 266.004109 134.624292 
L 266.29252 134.624292 
L 266.29252 134.169175 
L 266.585656 134.169175 
L 266.68635 132.803825 
L 267.013679 132.803825 
L 267.013679 132.348708 
L 267.195737 132.348708 
L 267.195737 131.893592 
L 267.337714 131.893592 
L 267.337714 131.438475 
L 267.765738 131.438475 
L 267.765738 130.983358 
L 268.205308 130.983358 
L 268.205308 130.528242 
L 268.957366 130.528242 
L 268.957366 130.073125 
L 269.537422 130.073125 
L 269.537422 129.618008 
L 276.591343 129.618008 
L 276.591343 129.162892 
L 277.614849 129.162892 
L 277.614849 128.707775 
L 278.678683 128.707775 
L 278.678683 128.252658 
L 278.96206 128.252658 
L 278.96206 127.797542 
L 279.324643 127.797542 
L 279.324643 127.342425 
L 279.477492 127.342425 
L 279.477492 126.887308 
L 279.677845 126.887308 
L 279.677845 126.432192 
L 280.046006 126.432192 
L 280.046006 125.977075 
L 280.471985 125.977075 
L 280.471985 125.521958 
L 280.608864 125.521958 
L 280.608864 125.066842 
L 280.724994 125.066842 
L 280.724994 124.611725 
L 281.01059 124.611725 
L 281.01059 124.156608 
L 281.153017 124.156608 
L 281.153017 123.701492 
L 281.265349 123.701492 
L 281.332025 122.791258 
L 282.02956 122.791258 
L 282.02956 122.336142 
L 282.344646 122.336142 
L 282.395298 121.425908 
L 282.532177 121.425908 
L 282.532177 120.970792 
L 282.929378 120.970792 
L 282.929378 120.515675 
L 283.071842 120.515675 
L 283.155505 119.605442 
L 283.308321 119.605442 
L 283.308321 119.150325 
L 283.438882 119.150325 
L 283.438882 118.695208 
L 284.522828 118.695208 
L 284.522828 118.240092 
L 285.201815 118.240092 
L 285.201815 117.784975 
L 285.629839 117.784975 
L 285.629839 117.329858 
L 286.821467 117.329858 
L 286.821467 116.874742 
L 286.954455 116.874742 
L 286.954455 116.419625 
L 297.140304 116.419625 
L 297.140304 115.964508 
L 298.562637 115.964508 
L 298.562637 115.509392 
L 298.715486 115.509392 
L 298.715486 115.054275 
L 298.915839 115.054275 
L 298.915839 114.599158 
L 300.385206 114.599158 
L 300.48595 113.688925 
L 300.638799 113.688925 
L 300.638799 113.233808 
L 300.839152 113.233808 
L 300.839152 112.778692 
L 301.522702 112.778692 
L 301.522702 112.323575 
L 302.195972 112.323575 
L 302.195972 111.868458 
L 302.45073 111.868458 
L 302.517406 110.503108 
L 302.734107 110.503108 
L 302.800783 109.592875 
L 303.563295 109.592875 
L 303.563295 109.137758 
L 303.818053 109.137758 
L 303.884729 108.227525 
L 304.242282 108.227525 
L 304.242282 107.772408 
L 304.49704 107.772408 
L 304.563717 106.862175 
L 304.670306 106.862175 
L 304.767604 105.951942 
L 304.925064 105.951942 
L 304.99174 105.041708 
L 305.12774 105.041708 
L 305.12774 104.586592 
L 305.487133 104.586592 
L 305.487133 104.131475 
L 305.861934 104.131475 
L 305.861934 103.676358 
L 306.116692 103.676358 
L 306.183368 102.766125 
L 307.439126 102.766125 
L 307.439126 102.311008 
L 308.372641 102.311008 
L 308.462633 101.400775 
L 311.821524 101.400775 
L 311.821524 100.945658 
L 312.845031 100.945658 
L 312.845031 100.490542 
L 313.919626 100.490542 
L 313.919626 100.035425 
L 315.426562 100.035425 
L 315.426562 99.580308 
L 316.450069 99.580308 
L 316.450069 99.125192 
L 318.056716 99.125192 
L 318.056716 98.670075 
L 318.302024 98.670075 
L 318.302024 98.214958 
L 318.566103 98.214958 
L 318.566103 97.759841 
L 319.575674 97.759841 
L 319.575674 97.304725 
L 320.327732 97.304725 
L 320.327732 96.849608 
L 321.301618 96.849608 
L 321.301618 96.394491 
L 321.811005 96.394491 
L 321.907062 95.484258 
L 322.820575 95.484258 
L 322.820575 95.029141 
L 323.572634 95.029141 
L 323.572634 94.574025 
L 324.29066 94.574025 
L 324.29066 94.118908 
L 328.355538 94.118908 
L 328.355538 93.663791 
L 328.864926 93.663791 
L 328.864926 93.208675 
L 329.379045 93.208675 
L 329.379045 92.753558 
L 329.874496 92.753558 
L 329.888432 91.843325 
L 330.626554 91.843325 
L 330.626554 91.388208 
L 330.898002 91.388208 
L 330.898002 90.933091 
L 331.650061 90.933091 
L 331.650061 90.477975 
L 333.715012 90.477975 
L 333.715012 90.022858 
L 334.836038 90.022858 
L 334.836038 89.567741 
L 335.345425 89.567741 
L 335.345425 89.112625 
L 336.354996 89.112625 
L 336.354996 88.657508 
L 336.959913 88.657508 
L 336.959913 88.202391 
L 337.107054 88.202391 
L 337.107054 87.747275 
L 338.191833 87.747275 
L 338.191833 87.292158 
L 341.436734 87.292158 
L 341.436734 86.837041 
L 344.013834 86.837041 
L 344.013834 86.381925 
L 345.03734 86.381925 
L 345.03734 85.926808 
L 348.490655 85.926808 
L 348.490655 85.471691 
L 349.514161 85.471691 
L 349.514161 85.016575 
L 350.494333 85.016575 
L 350.494333 84.561458 
L 354.971155 84.561458 
L 354.971155 84.106341 
L 357.2323 84.106341 
L 357.2323 83.651225 
L 357.487058 83.651225 
L 357.553735 82.740991 
L 360.477201 82.740991 
L 360.477201 82.285875 
L 360.73196 82.285875 
L 360.798636 81.375641 
L 363.80197 81.375641 
L 363.80197 80.920525 
L 367.531122 80.920525 
L 367.531122 80.465408 
L 367.78588 80.465408 
L 367.852557 79.555175 
L 368.554628 79.555175 
L 368.554628 79.100058 
L 368.809387 79.100058 
L 368.876063 78.189825 
L 374.011622 78.189825 
L 374.011622 77.734708 
L 374.26638 77.734708 
L 374.333056 76.824475 
L 453.192 76.824475 
L 453.192 76.824475 
" clip-path="url(#p178966fead)" style="fill: none; stroke: #bf00bf; stroke-width: 3; stroke-linecap: square"/>
   </g>
   <g id="line2d_22">
    <path clip-path="url(#p178966fead)" style="fill: none; stroke: #bf00bf; stroke-width: 3; stroke-linecap: square"/>
   </g>
   <g id="line2d_23">
    <path d="M 34.16 220.919179 
L 101.165806 220.919179 
L 101.165806 220.456614 
L 123.653936 220.456614 
L 123.653936 219.994048 
L 141.958568 219.994048 
L 141.958568 219.531483 
L 157.273134 219.531483 
L 157.273134 219.068918 
L 163.841825 219.068918 
L 163.841825 218.606352 
L 163.989566 218.606352 
L 163.989566 218.143787 
L 165.065298 218.143787 
L 165.08042 217.218656 
L 165.335758 217.218656 
L 165.335758 216.756091 
L 166.40117 216.756091 
L 166.40117 216.293525 
L 179.761264 216.293525 
L 179.761264 215.83096 
L 180.386348 215.83096 
L 180.386348 215.368394 
L 185.091747 215.368394 
L 185.091747 214.905829 
L 198.065895 214.905829 
L 198.065895 214.443264 
L 200.565045 214.443264 
L 200.565045 213.980698 
L 200.818927 213.980698 
L 200.818927 213.518133 
L 202.221793 213.518133 
L 202.221793 213.055568 
L 202.634037 213.055568 
L 202.634037 212.593002 
L 202.874478 212.593002 
L 202.874478 212.130437 
L 203.000612 212.130437 
L 203.000612 211.667871 
L 207.579877 211.667871 
L 207.579877 211.205306 
L 208.777183 211.205306 
L 208.777183 210.742741 
L 209.007532 210.742741 
L 209.007532 210.280175 
L 209.255729 210.280175 
L 209.343688 209.355044 
L 209.385267 209.355044 
L 209.444178 208.429914 
L 209.674527 208.429914 
L 209.766462 207.504783 
L 209.922724 207.504783 
L 210.010683 206.117087 
L 210.052262 206.117087 
L 210.101049 205.191956 
L 210.245007 205.191956 
L 210.332966 203.80426 
L 210.374545 203.80426 
L 210.374545 203.341694 
L 210.579594 203.341694 
L 210.667553 202.416564 
L 210.709133 202.416564 
L 210.709133 201.953998 
L 215.238568 201.953998 
L 215.238568 201.491433 
L 215.898547 201.491433 
L 215.898547 201.028867 
L 217.635177 201.028867 
L 217.635177 200.566302 
L 219.949153 200.566302 
L 219.949153 200.103737 
L 220.096894 200.103737 
L 220.096894 199.641171 
L 220.345885 199.641171 
L 220.345885 199.178606 
L 220.985401 199.178606 
L 220.985401 198.716041 
L 221.172625 198.716041 
L 221.187748 197.328344 
L 221.443085 197.328344 
L 221.443085 196.865779 
L 222.508497 196.865779 
L 222.508497 196.403214 
L 223.053176 196.403214 
L 223.053176 195.940648 
L 223.307057 195.940648 
L 223.307057 195.478083 
L 223.502934 195.478083 
L 223.502934 195.015517 
L 223.678292 195.015517 
L 223.678292 194.552952 
L 224.709923 194.552952 
L 224.709923 194.090387 
L 225.122167 194.090387 
L 225.226517 193.165256 
L 225.488743 193.165256 
L 225.488743 192.702691 
L 225.639294 192.702691 
L 225.639294 192.240125 
L 225.869643 192.240125 
L 225.893512 190.852429 
L 226.045718 190.852429 
L 226.11784 189.927298 
L 226.205799 189.927298 
L 226.276067 188.077037 
L 226.370479 188.077037 
L 226.370479 187.614471 
L 226.524264 187.614471 
L 226.612223 186.226775 
L 226.653802 186.226775 
L 226.653802 185.76421 
L 226.847236 185.76421 
L 226.847236 185.301644 
L 227.514231 185.301644 
L 227.514231 184.839079 
L 227.836514 184.839079 
L 227.836514 184.376514 
L 228.171101 184.376514 
L 228.171101 183.913948 
L 233.304143 183.913948 
L 233.304143 183.451383 
L 238.386677 183.451383 
L 238.386677 182.988817 
L 239.498172 182.988817 
L 239.591178 181.601121 
L 239.808896 181.601121 
L 239.831498 180.675991 
L 240.273271 180.675991 
L 240.273271 180.213425 
L 240.868526 180.213425 
L 240.868526 179.75086 
L 241.357807 179.75086 
L 241.357807 179.288294 
L 241.611689 179.288294 
L 241.699899 178.363164 
L 242.088628 178.363164 
L 242.088628 177.900598 
L 242.269104 177.900598 
L 242.269104 177.438033 
L 242.495052 177.438033 
L 242.564295 176.050337 
L 242.834015 176.050337 
L 242.834015 175.587771 
L 242.965459 175.587771 
L 243.062367 174.200075 
L 243.210108 174.200075 
L 243.210108 173.73751 
L 243.333114 173.73751 
L 243.426799 172.812379 
L 243.563536 172.812379 
L 243.563536 172.349814 
L 243.709347 172.349814 
L 243.819867 170.499552 
L 244.000109 170.499552 
L 244.102914 168.64929 
L 244.115771 168.64929 
L 244.171619 166.799029 
L 244.28584 166.799029 
L 244.386372 164.023637 
L 244.427951 164.023637 
L 244.427951 163.561071 
L 244.5563 163.561071 
L 244.65698 162.173375 
L 244.697072 162.173375 
L 244.738651 161.248244 
L 245.621712 161.248244 
L 245.621712 160.785679 
L 246.795102 160.785679 
L 246.795102 160.323114 
L 247.767766 160.323114 
L 247.767766 159.860548 
L 247.915507 159.860548 
L 247.915507 159.397983 
L 248.991238 159.397983 
L 249.006361 158.472852 
L 249.261698 158.472852 
L 249.261698 158.010287 
L 250.32711 158.010287 
L 250.32711 157.547721 
L 256.691309 157.547721 
L 256.767151 156.62259 
L 256.99913 156.62259 
L 256.99913 156.160025 
L 257.463506 156.160025 
L 257.463506 155.69746 
L 257.598523 155.69746 
L 257.598523 155.234894 
L 257.830503 155.234894 
L 257.830503 154.772329 
L 258.294879 154.772329 
L 258.294879 154.309763 
L 258.462919 154.309763 
L 258.462919 153.847198 
L 258.694899 153.847198 
L 258.694899 153.384633 
L 259.159274 153.384633 
L 259.159274 152.922067 
L 260.012869 152.922067 
L 260.012869 152.459502 
L 260.195226 152.459502 
L 260.269201 151.534371 
L 260.579901 151.534371 
L 260.60165 150.60924 
L 261.138647 150.60924 
L 261.138647 150.146675 
L 261.293149 150.146675 
L 261.293149 149.68411 
L 261.483842 149.68411 
L 261.483842 149.221544 
L 261.633588 149.221544 
L 261.633588 148.758979 
L 261.88992 148.758979 
L 261.986302 147.833848 
L 262.079309 147.833848 
L 262.150837 146.446152 
L 262.20062 146.446152 
L 262.20062 145.983587 
L 262.319629 145.983587 
L 262.319629 145.521021 
L 262.47312 145.521021 
L 262.47312 145.058456 
L 262.807708 145.058456 
L 262.807708 144.59589 
L 262.951357 144.59589 
L 262.988918 143.67076 
L 263.241065 143.67076 
L 263.241065 143.208194 
L 263.388805 143.208194 
L 263.494946 142.283063 
L 263.618352 142.283063 
L 263.642687 141.357933 
L 263.921874 141.357933 
L 263.940636 140.432802 
L 264.275223 140.432802 
L 264.275223 139.970237 
L 264.464537 139.970237 
L 264.479659 139.045106 
L 264.718419 139.045106 
L 264.734997 137.65741 
L 264.897812 137.65741 
L 264.988879 136.732279 
L 265.045553 136.732279 
L 265.045553 136.269713 
L 265.310056 136.269713 
L 265.310056 135.807148 
L 265.457797 135.807148 
L 265.457797 135.344583 
L 265.676632 135.344583 
L 265.676632 134.882017 
L 265.800409 134.882017 
L 265.824372 133.956886 
L 266.054291 133.956886 
L 266.136407 132.56919 
L 266.391744 132.56919 
L 266.391744 132.106625 
L 266.533529 132.106625 
L 266.548651 131.181494 
L 266.803989 131.181494 
L 266.900104 130.256363 
L 266.915226 130.256363 
L 266.915226 129.793798 
L 267.170564 129.793798 
L 267.170564 129.331233 
L 267.457156 129.331233 
L 267.457156 128.868667 
L 267.869401 128.868667 
L 267.869401 128.406102 
L 268.235976 128.406102 
L 268.235976 127.943536 
L 271.345895 127.943536 
L 271.345895 127.480971 
L 273.742505 127.480971 
L 273.742505 127.018406 
L 277.092729 127.018406 
L 277.092729 126.55584 
L 278.119467 126.55584 
L 278.119467 126.093275 
L 278.345953 126.093275 
L 278.375798 125.168144 
L 278.574566 125.168144 
L 278.574566 124.705579 
L 278.686499 124.705579 
L 278.752377 123.317883 
L 279.610262 123.317883 
L 279.610262 122.855317 
L 279.798039 122.855317 
L 279.820499 121.005056 
L 280.052478 121.005056 
L 280.068499 120.079925 
L 280.219892 120.079925 
L 280.290934 119.154794 
L 280.38394 119.154794 
L 280.38394 118.692229 
L 280.516854 118.692229 
L 280.62426 117.767098 
L 281.133911 117.767098 
L 281.133911 117.304533 
L 283.021904 117.304533 
L 283.021904 116.841967 
L 283.169645 116.841967 
L 283.169645 116.379402 
L 284.245377 116.379402 
L 284.346497 114.991706 
L 284.515837 114.991706 
L 284.515837 114.52914 
L 285.581249 114.52914 
L 285.581249 114.066575 
L 289.411471 114.066575 
L 289.411471 113.604009 
L 294.45911 113.604009 
L 294.45911 113.141444 
L 296.270194 113.141444 
L 296.270194 112.678879 
L 296.526526 112.678879 
L 296.526526 112.216313 
L 296.837226 112.216313 
L 296.855719 111.291183 
L 297.737709 111.291183 
L 297.737709 110.828617 
L 297.994041 110.828617 
L 297.994041 110.366052 
L 298.304741 110.366052 
L 298.304741 109.903486 
L 299.164508 109.903486 
L 299.164508 109.440921 
L 300.205943 109.440921 
L 300.205943 108.978356 
L 301.561118 108.978356 
L 301.561118 108.51579 
L 302.174191 108.51579 
L 302.267198 107.128094 
L 302.321932 107.128094 
L 302.414938 106.202963 
L 302.507517 106.202963 
L 302.507517 105.740398 
L 302.655258 105.740398 
L 302.723476 104.815267 
L 303.397663 104.815267 
L 303.505792 102.965006 
L 303.668123 102.965006 
L 303.76113 101.114744 
L 304.00145 101.114744 
L 304.00145 100.652179 
L 304.733536 100.652179 
L 304.826542 99.727048 
L 304.911342 99.727048 
L 304.911342 99.264483 
L 305.066862 99.264483 
L 305.066862 98.801917 
L 307.428875 98.801917 
L 307.428875 98.339352 
L 312.524685 98.339352 
L 312.524685 97.876786 
L 314.637807 97.876786 
L 314.637807 97.414221 
L 314.891689 97.414221 
L 314.891689 96.951656 
L 316.294554 96.951656 
L 316.294554 96.48909 
L 316.706799 96.48909 
L 316.706799 96.026525 
L 317.034417 96.026525 
L 317.073374 95.101394 
L 317.230084 95.101394 
L 317.288298 94.176263 
L 318.691164 94.176263 
L 318.691164 93.713698 
L 319.103408 93.713698 
L 319.103408 93.251133 
L 319.469983 93.251133 
L 319.469983 92.788567 
L 319.812312 92.788567 
L 319.812312 92.326002 
L 320.384641 92.326002 
L 320.384641 91.863436 
L 320.638522 91.863436 
L 320.638522 91.400871 
L 322.041388 91.400871 
L 322.041388 90.938306 
L 322.453633 90.938306 
L 322.453633 90.47574 
L 322.820208 90.47574 
L 322.902174 89.550609 
L 323.156055 89.550609 
L 323.156055 89.088044 
L 324.558921 89.088044 
L 324.558921 88.625479 
L 324.971166 88.625479 
L 324.971166 88.162913 
L 325.337741 88.162913 
L 325.337741 87.700348 
L 329.971309 87.700348 
L 329.971309 87.237782 
L 332.367918 87.237782 
L 332.367918 86.775217 
L 332.703383 86.775217 
L 332.703383 86.312652 
L 332.957264 86.312652 
L 332.957264 85.850086 
L 334.36013 85.850086 
L 334.418647 84.924956 
L 334.772374 84.924956 
L 334.772374 84.46239 
L 335.138949 84.46239 
L 335.138949 83.999825 
L 335.718142 83.999825 
L 335.718142 83.537259 
L 336.815256 83.537259 
L 336.815256 83.074694 
L 338.235675 83.074694 
L 338.235675 82.612129 
L 340.16548 82.612129 
L 340.16548 82.149563 
L 342.683014 82.149563 
L 342.683014 81.686998 
L 348.036884 81.686998 
L 348.036884 81.224432 
L 352.484222 81.224432 
L 352.484222 80.761867 
L 353.570934 80.761867 
L 353.66394 79.836736 
L 353.90426 79.836736 
L 353.90426 79.374171 
L 355.967543 79.374171 
L 356.060549 78.44904 
L 356.300869 78.44904 
L 356.300869 77.986475 
L 358.374256 77.986475 
L 358.374256 77.523909 
L 359.317767 77.523909 
L 359.410774 76.598779 
L 359.651094 76.598779 
L 359.651094 76.136213 
L 361.8353 76.136213 
L 361.928307 75.211082 
L 362.168627 75.211082 
L 362.168627 74.748517 
L 371.636509 74.748517 
L 371.729515 73.823386 
L 371.969835 73.823386 
L 371.969835 73.360821 
L 453.192 73.360821 
L 453.192 73.360821 
" clip-path="url(#p178966fead)" style="fill: none; stroke: #ff0000; stroke-width: 3; stroke-linecap: square"/>
   </g>
   <g id="line2d_24">
    <path clip-path="url(#p178966fead)" style="fill: none; stroke: #ff0000; stroke-width: 3; stroke-linecap: square"/>
   </g>
   <g id="line2d_25">
    <path d="M 243.676 291.28 
L 243.676 3 
" clip-path="url(#p178966fead)" style="fill: none; stroke: #000000; stroke-width: 1.5; stroke-linecap: square"/>
   </g>
   <g id="line2d_26">
    <path d="M 34.16 147.14 
L 453.192 147.14 
" clip-path="url(#p178966fead)" style="fill: none; stroke-dasharray: 2,3.3; stroke-dashoffset: 0; stroke: #000000; stroke-width: 2"/>
   </g>
   <g id="patch_3">
    <path d="M 34.16 291.28 
L 34.16 3 
" style="fill: none; stroke: #000000; stroke-width: 0.8; stroke-linejoin: miter; stroke-linecap: square"/>
   </g>
   <g id="patch_4">
    <path d="M 453.192 291.28 
L 453.192 3 
" style="fill: none; stroke: #000000; stroke-width: 0.8; stroke-linejoin: miter; stroke-linecap: square"/>
   </g>
   <g id="patch_5">
    <path d="M 34.16 291.28 
L 453.192 291.28 
" style="fill: none; stroke: #000000; stroke-width: 0.8; stroke-linejoin: miter; stroke-linecap: square"/>
   </g>
   <g id="patch_6">
    <path d="M 34.16 3 
L 453.192 3 
" style="fill: none; stroke: #000000; stroke-width: 0.8; stroke-linejoin: miter; stroke-linecap: square"/>
   </g>
   <g id="text_6">
    <!-- f20-f24,10-D -->
    <g transform="translate(318.19261 285.5144) scale(0.2 -0.2)">
     <defs>
      <path id="DejaVuSans-34" d="M 2419 4116 
L 825 1625 
L 2419 1625 
L 2419 4116 
z
M 2253 4666 
L 3047 4666 
L 3047 1625 
L 3713 1625 
L 3713 1100 
L 3047 1100 
L 3047 0 
L 2419 0 
L 2419 1100 
L 313 1100 
L 313 1709 
L 2253 4666 
z
" transform="scale(0.015625)"/>
      <path id="DejaVuSans-2c" d="M 750 794 
L 1409 794 
L 1409 256 
L 897 -744 
L 494 -744 
L 750 256 
L 750 794 
z
" transform="scale(0.015625)"/>
      <path id="DejaVuSans-44" d="M 1259 4147 
L 1259 519 
L 2022 519 
Q 2988 519 3436 956 
Q 3884 1394 3884 2338 
Q 3884 3275 3436 3711 
Q 2988 4147 2022 4147 
L 1259 4147 
z
M 628 4666 
L 1925 4666 
Q 3281 4666 3915 4102 
Q 4550 3538 4550 2338 
Q 4550 1131 3912 565 
Q 3275 0 1925 0 
L 628 0 
L 628 4666 
z
" transform="scale(0.015625)"/>
     </defs>
     <use xlink:href="#DejaVuSans-66"/>
     <use xlink:href="#DejaVuSans-32" x="35.205078"/>
     <use xlink:href="#DejaVuSans-30" x="98.828125"/>
     <use xlink:href="#DejaVuSans-2d" x="162.451172"/>
     <use xlink:href="#DejaVuSans-66" x="198.535156"/>
     <use xlink:href="#DejaVuSans-32" x="233.740234"/>
     <use xlink:href="#DejaVuSans-34" x="297.363281"/>
     <use xlink:href="#DejaVuSans-2c" x="360.986328"/>
     <use xlink:href="#DejaVuSans-31" x="392.773438"/>
     <use xlink:href="#DejaVuSans-30" x="456.396484"/>
     <use xlink:href="#DejaVuSans-2d" x="520.019531"/>
     <use xlink:href="#DejaVuSans-44" x="556.103516"/>
    </g>
   </g>
   <g id="text_7">
    <!-- v2.6.3 -->
    <g style="fill: #808080" transform="translate(227.99475 286.317512) scale(0.1 -0.1)">
     <defs>
      <path id="DejaVuSans-2e" d="M 684 794 
L 1344 794 
L 1344 0 
L 684 0 
L 684 794 
z
" transform="scale(0.015625)"/>
      <path id="DejaVuSans-36" d="M 2113 2584 
Q 1688 2584 1439 2293 
Q 1191 2003 1191 1497 
Q 1191 994 1439 701 
Q 1688 409 2113 409 
Q 2538 409 2786 701 
Q 3034 994 3034 1497 
Q 3034 2003 2786 2293 
Q 2538 2584 2113 2584 
z
M 3366 4563 
L 3366 3988 
Q 3128 4100 2886 4159 
Q 2644 4219 2406 4219 
Q 1781 4219 1451 3797 
Q 1122 3375 1075 2522 
Q 1259 2794 1537 2939 
Q 1816 3084 2150 3084 
Q 2853 3084 3261 2657 
Q 3669 2231 3669 1497 
Q 3669 778 3244 343 
Q 2819 -91 2113 -91 
Q 1303 -91 875 529 
Q 447 1150 447 2328 
Q 447 3434 972 4092 
Q 1497 4750 2381 4750 
Q 2619 4750 2861 4703 
Q 3103 4656 3366 4563 
z
" transform="scale(0.015625)"/>
      <path id="DejaVuSans-33" d="M 2597 2516 
Q 3050 2419 3304 2112 
Q 3559 1806 3559 1356 
Q 3559 666 3084 287 
Q 2609 -91 1734 -91 
Q 1441 -91 1130 -33 
Q 819 25 488 141 
L 488 750 
Q 750 597 1062 519 
Q 1375 441 1716 441 
Q 2309 441 2620 675 
Q 2931 909 2931 1356 
Q 2931 1769 2642 2001 
Q 2353 2234 1838 2234 
L 1294 2234 
L 1294 2753 
L 1863 2753 
Q 2328 2753 2575 2939 
Q 2822 3125 2822 3475 
Q 2822 3834 2567 4026 
Q 2313 4219 1838 4219 
Q 1578 4219 1281 4162 
Q 984 4106 628 3988 
L 628 4550 
Q 988 4650 1302 4700 
Q 1616 4750 1894 4750 
Q 2613 4750 3031 4423 
Q 3450 4097 3450 3541 
Q 3450 3153 3228 2886 
Q 3006 2619 2597 2516 
z
" transform="scale(0.015625)"/>
     </defs>
     <use xlink:href="#DejaVuSans-76"/>
     <use xlink:href="#DejaVuSans-32" x="59.179688"/>
     <use xlink:href="#DejaVuSans-2e" x="122.802734"/>
     <use xlink:href="#DejaVuSans-36" x="154.589844"/>
     <use xlink:href="#DejaVuSans-2e" x="218.212891"/>
     <use xlink:href="#DejaVuSans-33" x="250"/>
    </g>
   </g>
   <g id="legend_1">
    <g id="patch_7">
     <path d="M 48.16 136.425 
L 177.381875 136.425 
Q 181.381875 136.425 181.381875 132.425 
L 181.381875 17 
Q 181.381875 13 177.381875 13 
L 48.16 13 
Q 44.16 13 44.16 17 
L 44.16 132.425 
Q 44.16 136.425 48.16 136.425 
z
" style="fill: #ffffff; opacity: 0.2; stroke: #cccccc; stroke-linejoin: miter"/>
    </g>
    <g id="line2d_27">
     <path d="M 52.16 29.196875 
L 72.16 29.196875 
L 92.16 29.196875 
" style="fill: none; stroke: #000000; stroke-width: 3; stroke-linecap: square"/>
    </g>
    <g id="text_8">
     <!-- 1: 5/5 -->
     <g transform="translate(108.16 36.196875) scale(0.2 -0.2)">
      <defs>
       <path id="DejaVuSans-3a" d="M 750 794 
L 1409 794 
L 1409 0 
L 750 0 
L 750 794 
z
M 750 3309 
L 1409 3309 
L 1409 2516 
L 750 2516 
L 750 3309 
z
" transform="scale(0.015625)"/>
       <path id="DejaVuSans-35" d="M 691 4666 
L 3169 4666 
L 3169 4134 
L 1269 4134 
L 1269 2991 
Q 1406 3038 1543 3061 
Q 1681 3084 1819 3084 
Q 2600 3084 3056 2656 
Q 3513 2228 3513 1497 
Q 3513 744 3044 326 
Q 2575 -91 1722 -91 
Q 1428 -91 1123 -41 
Q 819 9 494 109 
L 494 744 
Q 775 591 1075 516 
Q 1375 441 1709 441 
Q 2250 441 2565 725 
Q 2881 1009 2881 1497 
Q 2881 1984 2565 2268 
Q 2250 2553 1709 2553 
Q 1456 2553 1204 2497 
Q 953 2441 691 2322 
L 691 4666 
z
" transform="scale(0.015625)"/>
       <path id="DejaVuSans-2f" d="M 1625 4666 
L 2156 4666 
L 531 -594 
L 0 -594 
L 1625 4666 
z
" transform="scale(0.015625)"/>
      </defs>
      <use xlink:href="#DejaVuSans-31"/>
      <use xlink:href="#DejaVuSans-3a" x="63.623047"/>
      <use xlink:href="#DejaVuSans-20" x="97.314453"/>
      <use xlink:href="#DejaVuSans-35" x="129.101562"/>
      <use xlink:href="#DejaVuSans-2f" x="192.724609"/>
      <use xlink:href="#DejaVuSans-35" x="226.416016"/>
     </g>
    </g>
    <g id="line2d_28">
     <path d="M 52.16 58.553125 
L 72.16 58.553125 
L 92.16 58.553125 
" style="fill: none; stroke: #00bfbf; stroke-width: 3; stroke-linecap: square"/>
    </g>
    <g id="text_9">
     <!-- -1: 4/4 -->
     <g transform="translate(108.16 65.553125) scale(0.2 -0.2)">
      <use xlink:href="#DejaVuSans-2d"/>
      <use xlink:href="#DejaVuSans-31" x="36.083984"/>
      <use xlink:href="#DejaVuSans-3a" x="99.707031"/>
      <use xlink:href="#DejaVuSans-20" x="133.398438"/>
      <use xlink:href="#DejaVuSans-34" x="165.185547"/>
      <use xlink:href="#DejaVuSans-2f" x="228.808594"/>
      <use xlink:href="#DejaVuSans-34" x="262.5"/>
     </g>
    </g>
    <g id="line2d_29">
     <path d="M 52.16 87.909375 
L 72.16 87.909375 
L 92.16 87.909375 
" style="fill: none; stroke: #bf00bf; stroke-width: 3; stroke-linecap: square"/>
    </g>
    <g id="text_10">
     <!-- -4: 4/4 -->
     <g transform="translate(108.16 94.909375) scale(0.2 -0.2)">
      <use xlink:href="#DejaVuSans-2d"/>
      <use xlink:href="#DejaVuSans-34" x="36.083984"/>
      <use xlink:href="#DejaVuSans-3a" x="99.707031"/>
      <use xlink:href="#DejaVuSans-20" x="133.398438"/>
      <use xlink:href="#DejaVuSans-34" x="165.185547"/>
      <use xlink:href="#DejaVuSans-2f" x="228.808594"/>
      <use xlink:href="#DejaVuSans-34" x="262.5"/>
     </g>
    </g>
    <g id="line2d_30">
     <path d="M 52.16 117.265625 
L 72.16 117.265625 
L 92.16 117.265625 
" style="fill: none; stroke: #ff0000; stroke-width: 3; stroke-linecap: square"/>
    </g>
    <g id="text_11">
     <!-- -8: 4/4 -->
     <g transform="translate(108.16 124.265625) scale(0.2 -0.2)">
      <defs>
       <path id="DejaVuSans-38" d="M 2034 2216 
Q 1584 2216 1326 1975 
Q 1069 1734 1069 1313 
Q 1069 891 1326 650 
Q 1584 409 2034 409 
Q 2484 409 2743 651 
Q 3003 894 3003 1313 
Q 3003 1734 2745 1975 
Q 2488 2216 2034 2216 
z
M 1403 2484 
Q 997 2584 770 2862 
Q 544 3141 544 3541 
Q 544 4100 942 4425 
Q 1341 4750 2034 4750 
Q 2731 4750 3128 4425 
Q 3525 4100 3525 3541 
Q 3525 3141 3298 2862 
Q 3072 2584 2669 2484 
Q 3125 2378 3379 2068 
Q 3634 1759 3634 1313 
Q 3634 634 3220 271 
Q 2806 -91 2034 -91 
Q 1263 -91 848 271 
Q 434 634 434 1313 
Q 434 1759 690 2068 
Q 947 2378 1403 2484 
z
M 1172 3481 
Q 1172 3119 1398 2916 
Q 1625 2713 2034 2713 
Q 2441 2713 2670 2916 
Q 2900 3119 2900 3481 
Q 2900 3844 2670 4047 
Q 2441 4250 2034 4250 
Q 1625 4250 1398 4047 
Q 1172 3844 1172 3481 
z
" transform="scale(0.015625)"/>
      </defs>
      <use xlink:href="#DejaVuSans-2d"/>
      <use xlink:href="#DejaVuSans-38" x="36.083984"/>
      <use xlink:href="#DejaVuSans-3a" x="99.707031"/>
      <use xlink:href="#DejaVuSans-20" x="133.398438"/>
      <use xlink:href="#DejaVuSans-34" x="165.185547"/>
      <use xlink:href="#DejaVuSans-2f" x="228.808594"/>
      <use xlink:href="#DejaVuSans-34" x="262.5"/>
     </g>
    </g>
   </g>
  </g>
 </g>
 <defs>
  <clipPath id="p178966fead">
   <rect x="34.16" y="3" width="419.032" height="288.28"/>
  </clipPath>
 </defs>
</svg>
