<?xml version="1.0" encoding="utf-8" standalone="no"?>
<!DOCTYPE svg PUBLIC "-//W3C//DTD SVG 1.1//EN"
  "http://www.w3.org/Graphics/SVG/1.1/DTD/svg11.dtd">
<svg xmlns:xlink="http://www.w3.org/1999/xlink" width="460.8pt" height="345.6pt" viewBox="0 0 460.8 345.6" xmlns="http://www.w3.org/2000/svg" version="1.1">
 <metadata>
  <rdf:RDF xmlns:dc="http://purl.org/dc/elements/1.1/" xmlns:cc="http://creativecommons.org/ns#" xmlns:rdf="http://www.w3.org/1999/02/22-rdf-syntax-ns#">
   <cc:Work>
    <dc:type rdf:resource="http://purl.org/dc/dcmitype/StillImage"/>
    <dc:date>2024-06-05T09:48:45.859799</dc:date>
    <dc:format>image/svg+xml</dc:format>
    <dc:creator>
     <cc:Agent>
      <dc:title>Matplotlib v3.7.1, https://matplotlib.org/</dc:title>
     </cc:Agent>
    </dc:creator>
   </cc:Work>
  </rdf:RDF>
 </metadata>
 <defs>
  <style type="text/css">*{stroke-linejoin: round; stroke-linecap: butt}</style>
 </defs>
 <g id="figure_1">
  <g id="patch_1">
   <path d="M 0 345.6 
L 460.8 345.6 
L 460.8 0 
L 0 0 
z
" style="fill: #ffffff"/>
  </g>
  <g id="axes_1">
   <g id="patch_2">
    <path d="M 34.16 291.28 
L 453.192 291.28 
L 453.192 3 
L 34.16 3 
z
" style="fill: #ffffff"/>
   </g>
   <g id="matplotlib.axis_1">
    <g id="xtick_1">
     <g id="line2d_1">
      <path d="M 161.178541 291.28 
L 161.178541 3 
" clip-path="url(#p2fad7afa12)" style="fill: none; stroke: #b0b0b0; stroke-width: 0.8; stroke-linecap: square"/>
     </g>
     <g id="line2d_2">
      <defs>
       <path id="m497f5a45e7" d="M 0 0 
L 0 3.5 
" style="stroke: #000000; stroke-width: 0.8"/>
      </defs>
      <g>
       <use xlink:href="#m497f5a45e7" x="161.178541" y="291.28" style="stroke: #000000; stroke-width: 0.8"/>
      </g>
     </g>
     <g id="text_1">
      <!-- -1 -->
      <g transform="translate(151.208228 313.476875) scale(0.2 -0.2)">
       <defs>
        <path id="DejaVuSans-2d" d="M 313 2009 
L 1997 2009 
L 1997 1497 
L 313 1497 
L 313 2009 
z
" transform="scale(0.015625)"/>
        <path id="DejaVuSans-31" d="M 794 531 
L 1825 531 
L 1825 4091 
L 703 3866 
L 703 4441 
L 1819 4666 
L 2450 4666 
L 2450 531 
L 3481 531 
L 3481 0 
L 794 0 
L 794 531 
z
" transform="scale(0.015625)"/>
       </defs>
       <use xlink:href="#DejaVuSans-2d"/>
       <use xlink:href="#DejaVuSans-31" x="36.083984"/>
      </g>
     </g>
    </g>
    <g id="xtick_2">
     <g id="line2d_3">
      <path d="M 326.173459 291.28 
L 326.173459 3 
" clip-path="url(#p2fad7afa12)" style="fill: none; stroke: #b0b0b0; stroke-width: 0.8; stroke-linecap: square"/>
     </g>
     <g id="line2d_4">
      <g>
       <use xlink:href="#m497f5a45e7" x="326.173459" y="291.28" style="stroke: #000000; stroke-width: 0.8"/>
      </g>
     </g>
     <g id="text_2">
      <!-- 1 -->
      <g transform="translate(319.810959 313.476875) scale(0.2 -0.2)">
       <use xlink:href="#DejaVuSans-31"/>
      </g>
     </g>
    </g>
    <g id="xtick_3">
     <g id="line2d_5">
      <defs>
       <path id="m999df42faf" d="M 0 0 
L 0 2 
" style="stroke: #000000; stroke-width: 0.6"/>
      </defs>
      <g>
       <use xlink:href="#m999df42faf" x="35.544914" y="291.28" style="stroke: #000000; stroke-width: 0.6"/>
      </g>
     </g>
    </g>
    <g id="xtick_4">
     <g id="line2d_6">
      <g>
       <use xlink:href="#m999df42faf" x="45.852042" y="291.28" style="stroke: #000000; stroke-width: 0.6"/>
      </g>
     </g>
    </g>
    <g id="xtick_5">
     <g id="line2d_7">
      <g>
       <use xlink:href="#m999df42faf" x="53.846872" y="291.28" style="stroke: #000000; stroke-width: 0.6"/>
      </g>
     </g>
    </g>
    <g id="xtick_6">
     <g id="line2d_8">
      <g>
       <use xlink:href="#m999df42faf" x="60.379124" y="291.28" style="stroke: #000000; stroke-width: 0.6"/>
      </g>
     </g>
    </g>
    <g id="xtick_7">
     <g id="line2d_9">
      <g>
       <use xlink:href="#m999df42faf" x="65.902064" y="291.28" style="stroke: #000000; stroke-width: 0.6"/>
      </g>
     </g>
    </g>
    <g id="xtick_8">
     <g id="line2d_10">
      <g>
       <use xlink:href="#m999df42faf" x="70.686252" y="291.28" style="stroke: #000000; stroke-width: 0.6"/>
      </g>
     </g>
    </g>
    <g id="xtick_9">
     <g id="line2d_11">
      <g>
       <use xlink:href="#m999df42faf" x="74.906205" y="291.28" style="stroke: #000000; stroke-width: 0.6"/>
      </g>
     </g>
    </g>
    <g id="xtick_10">
     <g id="line2d_12">
      <g>
       <use xlink:href="#m999df42faf" x="103.515292" y="291.28" style="stroke: #000000; stroke-width: 0.6"/>
      </g>
     </g>
    </g>
    <g id="xtick_11">
     <g id="line2d_13">
      <g>
       <use xlink:href="#m999df42faf" x="118.042373" y="291.28" style="stroke: #000000; stroke-width: 0.6"/>
      </g>
     </g>
    </g>
    <g id="xtick_12">
     <g id="line2d_14">
      <g>
       <use xlink:href="#m999df42faf" x="128.349501" y="291.28" style="stroke: #000000; stroke-width: 0.6"/>
      </g>
     </g>
    </g>
    <g id="xtick_13">
     <g id="line2d_15">
      <g>
       <use xlink:href="#m999df42faf" x="136.344331" y="291.28" style="stroke: #000000; stroke-width: 0.6"/>
      </g>
     </g>
    </g>
    <g id="xtick_14">
     <g id="line2d_16">
      <g>
       <use xlink:href="#m999df42faf" x="142.876583" y="291.28" style="stroke: #000000; stroke-width: 0.6"/>
      </g>
     </g>
    </g>
    <g id="xtick_15">
     <g id="line2d_17">
      <g>
       <use xlink:href="#m999df42faf" x="148.399523" y="291.28" style="stroke: #000000; stroke-width: 0.6"/>
      </g>
     </g>
    </g>
    <g id="xtick_16">
     <g id="line2d_18">
      <g>
       <use xlink:href="#m999df42faf" x="153.183711" y="291.28" style="stroke: #000000; stroke-width: 0.6"/>
      </g>
     </g>
    </g>
    <g id="xtick_17">
     <g id="line2d_19">
      <g>
       <use xlink:href="#m999df42faf" x="157.403664" y="291.28" style="stroke: #000000; stroke-width: 0.6"/>
      </g>
     </g>
    </g>
    <g id="xtick_18">
     <g id="line2d_20">
      <g>
       <use xlink:href="#m999df42faf" x="186.012751" y="291.28" style="stroke: #000000; stroke-width: 0.6"/>
      </g>
     </g>
    </g>
    <g id="xtick_19">
     <g id="line2d_21">
      <g>
       <use xlink:href="#m999df42faf" x="200.539832" y="291.28" style="stroke: #000000; stroke-width: 0.6"/>
      </g>
     </g>
    </g>
    <g id="xtick_20">
     <g id="line2d_22">
      <g>
       <use xlink:href="#m999df42faf" x="210.84696" y="291.28" style="stroke: #000000; stroke-width: 0.6"/>
      </g>
     </g>
    </g>
    <g id="xtick_21">
     <g id="line2d_23">
      <g>
       <use xlink:href="#m999df42faf" x="218.84179" y="291.28" style="stroke: #000000; stroke-width: 0.6"/>
      </g>
     </g>
    </g>
    <g id="xtick_22">
     <g id="line2d_24">
      <g>
       <use xlink:href="#m999df42faf" x="225.374042" y="291.28" style="stroke: #000000; stroke-width: 0.6"/>
      </g>
     </g>
    </g>
    <g id="xtick_23">
     <g id="line2d_25">
      <g>
       <use xlink:href="#m999df42faf" x="230.896982" y="291.28" style="stroke: #000000; stroke-width: 0.6"/>
      </g>
     </g>
    </g>
    <g id="xtick_24">
     <g id="line2d_26">
      <g>
       <use xlink:href="#m999df42faf" x="235.68117" y="291.28" style="stroke: #000000; stroke-width: 0.6"/>
      </g>
     </g>
    </g>
    <g id="xtick_25">
     <g id="line2d_27">
      <g>
       <use xlink:href="#m999df42faf" x="239.901123" y="291.28" style="stroke: #000000; stroke-width: 0.6"/>
      </g>
     </g>
    </g>
    <g id="xtick_26">
     <g id="line2d_28">
      <g>
       <use xlink:href="#m999df42faf" x="268.51021" y="291.28" style="stroke: #000000; stroke-width: 0.6"/>
      </g>
     </g>
    </g>
    <g id="xtick_27">
     <g id="line2d_29">
      <g>
       <use xlink:href="#m999df42faf" x="283.037291" y="291.28" style="stroke: #000000; stroke-width: 0.6"/>
      </g>
     </g>
    </g>
    <g id="xtick_28">
     <g id="line2d_30">
      <g>
       <use xlink:href="#m999df42faf" x="293.34442" y="291.28" style="stroke: #000000; stroke-width: 0.6"/>
      </g>
     </g>
    </g>
    <g id="xtick_29">
     <g id="line2d_31">
      <g>
       <use xlink:href="#m999df42faf" x="301.339249" y="291.28" style="stroke: #000000; stroke-width: 0.6"/>
      </g>
     </g>
    </g>
    <g id="xtick_30">
     <g id="line2d_32">
      <g>
       <use xlink:href="#m999df42faf" x="307.871501" y="291.28" style="stroke: #000000; stroke-width: 0.6"/>
      </g>
     </g>
    </g>
    <g id="xtick_31">
     <g id="line2d_33">
      <g>
       <use xlink:href="#m999df42faf" x="313.394441" y="291.28" style="stroke: #000000; stroke-width: 0.6"/>
      </g>
     </g>
    </g>
    <g id="xtick_32">
     <g id="line2d_34">
      <g>
       <use xlink:href="#m999df42faf" x="318.178629" y="291.28" style="stroke: #000000; stroke-width: 0.6"/>
      </g>
     </g>
    </g>
    <g id="xtick_33">
     <g id="line2d_35">
      <g>
       <use xlink:href="#m999df42faf" x="322.398582" y="291.28" style="stroke: #000000; stroke-width: 0.6"/>
      </g>
     </g>
    </g>
    <g id="xtick_34">
     <g id="line2d_36">
      <g>
       <use xlink:href="#m999df42faf" x="351.007669" y="291.28" style="stroke: #000000; stroke-width: 0.6"/>
      </g>
     </g>
    </g>
    <g id="xtick_35">
     <g id="line2d_37">
      <g>
       <use xlink:href="#m999df42faf" x="365.53475" y="291.28" style="stroke: #000000; stroke-width: 0.6"/>
      </g>
     </g>
    </g>
    <g id="xtick_36">
     <g id="line2d_38">
      <g>
       <use xlink:href="#m999df42faf" x="375.841879" y="291.28" style="stroke: #000000; stroke-width: 0.6"/>
      </g>
     </g>
    </g>
    <g id="xtick_37">
     <g id="line2d_39">
      <g>
       <use xlink:href="#m999df42faf" x="383.836708" y="291.28" style="stroke: #000000; stroke-width: 0.6"/>
      </g>
     </g>
    </g>
    <g id="xtick_38">
     <g id="line2d_40">
      <g>
       <use xlink:href="#m999df42faf" x="390.36896" y="291.28" style="stroke: #000000; stroke-width: 0.6"/>
      </g>
     </g>
    </g>
    <g id="xtick_39">
     <g id="line2d_41">
      <g>
       <use xlink:href="#m999df42faf" x="395.8919" y="291.28" style="stroke: #000000; stroke-width: 0.6"/>
      </g>
     </g>
    </g>
    <g id="xtick_40">
     <g id="line2d_42">
      <g>
       <use xlink:href="#m999df42faf" x="400.676088" y="291.28" style="stroke: #000000; stroke-width: 0.6"/>
      </g>
     </g>
    </g>
    <g id="xtick_41">
     <g id="line2d_43">
      <g>
       <use xlink:href="#m999df42faf" x="404.896041" y="291.28" style="stroke: #000000; stroke-width: 0.6"/>
      </g>
     </g>
    </g>
    <g id="xtick_42">
     <g id="line2d_44">
      <g>
       <use xlink:href="#m999df42faf" x="433.505128" y="291.28" style="stroke: #000000; stroke-width: 0.6"/>
      </g>
     </g>
    </g>
    <g id="xtick_43">
     <g id="line2d_45">
      <g>
       <use xlink:href="#m999df42faf" x="448.032209" y="291.28" style="stroke: #000000; stroke-width: 0.6"/>
      </g>
     </g>
    </g>
    <g id="text_3">
     <!-- log10 of FEvals ratio -->
     <g transform="translate(141.371312 336.833125) scale(0.2 -0.2)">
      <defs>
       <path id="DejaVuSans-6c" d="M 603 4863 
L 1178 4863 
L 1178 0 
L 603 0 
L 603 4863 
z
" transform="scale(0.015625)"/>
       <path id="DejaVuSans-6f" d="M 1959 3097 
Q 1497 3097 1228 2736 
Q 959 2375 959 1747 
Q 959 1119 1226 758 
Q 1494 397 1959 397 
Q 2419 397 2687 759 
Q 2956 1122 2956 1747 
Q 2956 2369 2687 2733 
Q 2419 3097 1959 3097 
z
M 1959 3584 
Q 2709 3584 3137 3096 
Q 3566 2609 3566 1747 
Q 3566 888 3137 398 
Q 2709 -91 1959 -91 
Q 1206 -91 779 398 
Q 353 888 353 1747 
Q 353 2609 779 3096 
Q 1206 3584 1959 3584 
z
" transform="scale(0.015625)"/>
       <path id="DejaVuSans-67" d="M 2906 1791 
Q 2906 2416 2648 2759 
Q 2391 3103 1925 3103 
Q 1463 3103 1205 2759 
Q 947 2416 947 1791 
Q 947 1169 1205 825 
Q 1463 481 1925 481 
Q 2391 481 2648 825 
Q 2906 1169 2906 1791 
z
M 3481 434 
Q 3481 -459 3084 -895 
Q 2688 -1331 1869 -1331 
Q 1566 -1331 1297 -1286 
Q 1028 -1241 775 -1147 
L 775 -588 
Q 1028 -725 1275 -790 
Q 1522 -856 1778 -856 
Q 2344 -856 2625 -561 
Q 2906 -266 2906 331 
L 2906 616 
Q 2728 306 2450 153 
Q 2172 0 1784 0 
Q 1141 0 747 490 
Q 353 981 353 1791 
Q 353 2603 747 3093 
Q 1141 3584 1784 3584 
Q 2172 3584 2450 3431 
Q 2728 3278 2906 2969 
L 2906 3500 
L 3481 3500 
L 3481 434 
z
" transform="scale(0.015625)"/>
       <path id="DejaVuSans-30" d="M 2034 4250 
Q 1547 4250 1301 3770 
Q 1056 3291 1056 2328 
Q 1056 1369 1301 889 
Q 1547 409 2034 409 
Q 2525 409 2770 889 
Q 3016 1369 3016 2328 
Q 3016 3291 2770 3770 
Q 2525 4250 2034 4250 
z
M 2034 4750 
Q 2819 4750 3233 4129 
Q 3647 3509 3647 2328 
Q 3647 1150 3233 529 
Q 2819 -91 2034 -91 
Q 1250 -91 836 529 
Q 422 1150 422 2328 
Q 422 3509 836 4129 
Q 1250 4750 2034 4750 
z
" transform="scale(0.015625)"/>
       <path id="DejaVuSans-20" transform="scale(0.015625)"/>
       <path id="DejaVuSans-66" d="M 2375 4863 
L 2375 4384 
L 1825 4384 
Q 1516 4384 1395 4259 
Q 1275 4134 1275 3809 
L 1275 3500 
L 2222 3500 
L 2222 3053 
L 1275 3053 
L 1275 0 
L 697 0 
L 697 3053 
L 147 3053 
L 147 3500 
L 697 3500 
L 697 3744 
Q 697 4328 969 4595 
Q 1241 4863 1831 4863 
L 2375 4863 
z
" transform="scale(0.015625)"/>
       <path id="DejaVuSans-46" d="M 628 4666 
L 3309 4666 
L 3309 4134 
L 1259 4134 
L 1259 2759 
L 3109 2759 
L 3109 2228 
L 1259 2228 
L 1259 0 
L 628 0 
L 628 4666 
z
" transform="scale(0.015625)"/>
       <path id="DejaVuSans-45" d="M 628 4666 
L 3578 4666 
L 3578 4134 
L 1259 4134 
L 1259 2753 
L 3481 2753 
L 3481 2222 
L 1259 2222 
L 1259 531 
L 3634 531 
L 3634 0 
L 628 0 
L 628 4666 
z
" transform="scale(0.015625)"/>
       <path id="DejaVuSans-76" d="M 191 3500 
L 800 3500 
L 1894 563 
L 2988 3500 
L 3597 3500 
L 2284 0 
L 1503 0 
L 191 3500 
z
" transform="scale(0.015625)"/>
       <path id="DejaVuSans-61" d="M 2194 1759 
Q 1497 1759 1228 1600 
Q 959 1441 959 1056 
Q 959 750 1161 570 
Q 1363 391 1709 391 
Q 2188 391 2477 730 
Q 2766 1069 2766 1631 
L 2766 1759 
L 2194 1759 
z
M 3341 1997 
L 3341 0 
L 2766 0 
L 2766 531 
Q 2569 213 2275 61 
Q 1981 -91 1556 -91 
Q 1019 -91 701 211 
Q 384 513 384 1019 
Q 384 1609 779 1909 
Q 1175 2209 1959 2209 
L 2766 2209 
L 2766 2266 
Q 2766 2663 2505 2880 
Q 2244 3097 1772 3097 
Q 1472 3097 1187 3025 
Q 903 2953 641 2809 
L 641 3341 
Q 956 3463 1253 3523 
Q 1550 3584 1831 3584 
Q 2591 3584 2966 3190 
Q 3341 2797 3341 1997 
z
" transform="scale(0.015625)"/>
       <path id="DejaVuSans-73" d="M 2834 3397 
L 2834 2853 
Q 2591 2978 2328 3040 
Q 2066 3103 1784 3103 
Q 1356 3103 1142 2972 
Q 928 2841 928 2578 
Q 928 2378 1081 2264 
Q 1234 2150 1697 2047 
L 1894 2003 
Q 2506 1872 2764 1633 
Q 3022 1394 3022 966 
Q 3022 478 2636 193 
Q 2250 -91 1575 -91 
Q 1294 -91 989 -36 
Q 684 19 347 128 
L 347 722 
Q 666 556 975 473 
Q 1284 391 1588 391 
Q 1994 391 2212 530 
Q 2431 669 2431 922 
Q 2431 1156 2273 1281 
Q 2116 1406 1581 1522 
L 1381 1569 
Q 847 1681 609 1914 
Q 372 2147 372 2553 
Q 372 3047 722 3315 
Q 1072 3584 1716 3584 
Q 2034 3584 2315 3537 
Q 2597 3491 2834 3397 
z
" transform="scale(0.015625)"/>
       <path id="DejaVuSans-72" d="M 2631 2963 
Q 2534 3019 2420 3045 
Q 2306 3072 2169 3072 
Q 1681 3072 1420 2755 
Q 1159 2438 1159 1844 
L 1159 0 
L 581 0 
L 581 3500 
L 1159 3500 
L 1159 2956 
Q 1341 3275 1631 3429 
Q 1922 3584 2338 3584 
Q 2397 3584 2469 3576 
Q 2541 3569 2628 3553 
L 2631 2963 
z
" transform="scale(0.015625)"/>
       <path id="DejaVuSans-74" d="M 1172 4494 
L 1172 3500 
L 2356 3500 
L 2356 3053 
L 1172 3053 
L 1172 1153 
Q 1172 725 1289 603 
Q 1406 481 1766 481 
L 2356 481 
L 2356 0 
L 1766 0 
Q 1100 0 847 248 
Q 594 497 594 1153 
L 594 3053 
L 172 3053 
L 172 3500 
L 594 3500 
L 594 4494 
L 1172 4494 
z
" transform="scale(0.015625)"/>
       <path id="DejaVuSans-69" d="M 603 3500 
L 1178 3500 
L 1178 0 
L 603 0 
L 603 3500 
z
M 603 4863 
L 1178 4863 
L 1178 4134 
L 603 4134 
L 603 4863 
z
" transform="scale(0.015625)"/>
      </defs>
      <use xlink:href="#DejaVuSans-6c"/>
      <use xlink:href="#DejaVuSans-6f" x="27.783203"/>
      <use xlink:href="#DejaVuSans-67" x="88.964844"/>
      <use xlink:href="#DejaVuSans-31" x="152.441406"/>
      <use xlink:href="#DejaVuSans-30" x="216.064453"/>
      <use xlink:href="#DejaVuSans-20" x="279.6875"/>
      <use xlink:href="#DejaVuSans-6f" x="311.474609"/>
      <use xlink:href="#DejaVuSans-66" x="372.65625"/>
      <use xlink:href="#DejaVuSans-20" x="407.861328"/>
      <use xlink:href="#DejaVuSans-46" x="439.648438"/>
      <use xlink:href="#DejaVuSans-45" x="497.167969"/>
      <use xlink:href="#DejaVuSans-76" x="560.351562"/>
      <use xlink:href="#DejaVuSans-61" x="619.53125"/>
      <use xlink:href="#DejaVuSans-6c" x="680.810547"/>
      <use xlink:href="#DejaVuSans-73" x="708.59375"/>
      <use xlink:href="#DejaVuSans-20" x="760.693359"/>
      <use xlink:href="#DejaVuSans-72" x="792.480469"/>
      <use xlink:href="#DejaVuSans-61" x="833.59375"/>
      <use xlink:href="#DejaVuSans-74" x="894.873047"/>
      <use xlink:href="#DejaVuSans-69" x="934.082031"/>
      <use xlink:href="#DejaVuSans-6f" x="961.865234"/>
     </g>
    </g>
   </g>
   <g id="matplotlib.axis_2">
    <g id="ytick_1">
     <g id="line2d_46">
      <path d="M 34.16 288.453725 
L 453.192 288.453725 
" clip-path="url(#p2fad7afa12)" style="fill: none; stroke: #b0b0b0; stroke-width: 0.8; stroke-linecap: square"/>
     </g>
     <g id="line2d_47">
      <defs>
       <path id="m536451b7ef" d="M 0 0 
L -3.5 0 
" style="stroke: #000000; stroke-width: 0.8"/>
      </defs>
      <g>
       <use xlink:href="#m536451b7ef" x="34.16" y="288.453725" style="stroke: #000000; stroke-width: 0.8"/>
      </g>
     </g>
    </g>
    <g id="ytick_2">
     <g id="line2d_48">
      <path d="M 34.16 217.796863 
L 453.192 217.796863 
" clip-path="url(#p2fad7afa12)" style="fill: none; stroke: #b0b0b0; stroke-width: 0.8; stroke-linecap: square"/>
     </g>
     <g id="line2d_49">
      <g>
       <use xlink:href="#m536451b7ef" x="34.16" y="217.796863" style="stroke: #000000; stroke-width: 0.8"/>
      </g>
     </g>
    </g>
    <g id="ytick_3">
     <g id="line2d_50">
      <path d="M 34.16 147.14 
L 453.192 147.14 
" clip-path="url(#p2fad7afa12)" style="fill: none; stroke: #b0b0b0; stroke-width: 0.8; stroke-linecap: square"/>
     </g>
     <g id="line2d_51">
      <g>
       <use xlink:href="#m536451b7ef" x="34.16" y="147.14" style="stroke: #000000; stroke-width: 0.8"/>
      </g>
     </g>
    </g>
    <g id="ytick_4">
     <g id="line2d_52">
      <path d="M 34.16 76.483137 
L 453.192 76.483137 
" clip-path="url(#p2fad7afa12)" style="fill: none; stroke: #b0b0b0; stroke-width: 0.8; stroke-linecap: square"/>
     </g>
     <g id="line2d_53">
      <g>
       <use xlink:href="#m536451b7ef" x="34.16" y="76.483137" style="stroke: #000000; stroke-width: 0.8"/>
      </g>
     </g>
    </g>
    <g id="ytick_5">
     <g id="line2d_54">
      <path d="M 34.16 5.826275 
L 453.192 5.826275 
" clip-path="url(#p2fad7afa12)" style="fill: none; stroke: #b0b0b0; stroke-width: 0.8; stroke-linecap: square"/>
     </g>
     <g id="line2d_55">
      <g>
       <use xlink:href="#m536451b7ef" x="34.16" y="5.826275" style="stroke: #000000; stroke-width: 0.8"/>
      </g>
     </g>
    </g>
    <g id="text_4">
     <!-- proportion of trials -->
     <g transform="translate(19.000625 240.14625) rotate(-90) scale(0.2 -0.2)">
      <defs>
       <path id="DejaVuSans-70" d="M 1159 525 
L 1159 -1331 
L 581 -1331 
L 581 3500 
L 1159 3500 
L 1159 2969 
Q 1341 3281 1617 3432 
Q 1894 3584 2278 3584 
Q 2916 3584 3314 3078 
Q 3713 2572 3713 1747 
Q 3713 922 3314 415 
Q 2916 -91 2278 -91 
Q 1894 -91 1617 61 
Q 1341 213 1159 525 
z
M 3116 1747 
Q 3116 2381 2855 2742 
Q 2594 3103 2138 3103 
Q 1681 3103 1420 2742 
Q 1159 2381 1159 1747 
Q 1159 1113 1420 752 
Q 1681 391 2138 391 
Q 2594 391 2855 752 
Q 3116 1113 3116 1747 
z
" transform="scale(0.015625)"/>
       <path id="DejaVuSans-6e" d="M 3513 2113 
L 3513 0 
L 2938 0 
L 2938 2094 
Q 2938 2591 2744 2837 
Q 2550 3084 2163 3084 
Q 1697 3084 1428 2787 
Q 1159 2491 1159 1978 
L 1159 0 
L 581 0 
L 581 3500 
L 1159 3500 
L 1159 2956 
Q 1366 3272 1645 3428 
Q 1925 3584 2291 3584 
Q 2894 3584 3203 3211 
Q 3513 2838 3513 2113 
z
" transform="scale(0.015625)"/>
      </defs>
      <use xlink:href="#DejaVuSans-70"/>
      <use xlink:href="#DejaVuSans-72" x="63.476562"/>
      <use xlink:href="#DejaVuSans-6f" x="102.339844"/>
      <use xlink:href="#DejaVuSans-70" x="163.521484"/>
      <use xlink:href="#DejaVuSans-6f" x="226.998047"/>
      <use xlink:href="#DejaVuSans-72" x="288.179688"/>
      <use xlink:href="#DejaVuSans-74" x="329.292969"/>
      <use xlink:href="#DejaVuSans-69" x="368.501953"/>
      <use xlink:href="#DejaVuSans-6f" x="396.285156"/>
      <use xlink:href="#DejaVuSans-6e" x="457.466797"/>
      <use xlink:href="#DejaVuSans-20" x="520.845703"/>
      <use xlink:href="#DejaVuSans-6f" x="552.632812"/>
      <use xlink:href="#DejaVuSans-66" x="613.814453"/>
      <use xlink:href="#DejaVuSans-20" x="649.019531"/>
      <use xlink:href="#DejaVuSans-74" x="680.806641"/>
      <use xlink:href="#DejaVuSans-72" x="720.015625"/>
      <use xlink:href="#DejaVuSans-69" x="761.128906"/>
      <use xlink:href="#DejaVuSans-61" x="788.912109"/>
      <use xlink:href="#DejaVuSans-6c" x="850.191406"/>
      <use xlink:href="#DejaVuSans-73" x="877.974609"/>
     </g>
    </g>
   </g>
   <g id="line2d_56">
    <path d="M 34.16 264.141687 
L 81.018077 264.141687 
L 81.018077 263.804019 
L 84.35752 263.804019 
L 84.35752 263.466352 
L 87.420455 263.466352 
L 87.420455 263.128685 
L 90.423748 263.128685 
L 90.423748 262.791018 
L 92.512183 262.791018 
L 92.512183 262.453351 
L 93.226169 262.453351 
L 93.226169 262.115683 
L 98.95107 262.115683 
L 98.95107 261.778016 
L 100.025169 261.778016 
L 100.025169 261.440349 
L 100.415028 261.440349 
L 100.415028 261.102682 
L 101.954364 261.102682 
L 101.954364 260.765015 
L 103.028462 260.765015 
L 103.028462 260.427347 
L 104.042799 260.427347 
L 104.042799 260.08968 
L 104.692925 260.08968 
L 104.692925 259.752013 
L 105.116897 259.752013 
L 105.116897 259.414346 
L 108.219004 259.414346 
L 108.219004 259.076679 
L 110.258655 259.076679 
L 110.258655 258.739011 
L 111.945643 258.739011 
L 111.945643 258.401344 
L 112.693204 258.401344 
L 112.693204 258.063677 
L 113.019742 258.063677 
L 113.019742 257.72601 
L 116.223541 257.72601 
L 116.223541 257.388343 
L 117.297639 257.388343 
L 117.297639 257.050675 
L 119.62638 257.050675 
L 119.62638 256.713008 
L 119.749619 256.713008 
L 119.749619 256.375341 
L 120.823717 256.375341 
L 120.823717 256.037674 
L 121.78927 256.037674 
L 121.78927 255.700007 
L 122.863368 255.700007 
L 122.863368 255.362339 
L 124.223819 255.362339 
L 124.223819 255.024672 
L 125.297917 255.024672 
L 125.297917 254.687005 
L 126.239116 254.687005 
L 126.239116 254.349338 
L 127.071211 254.349338 
L 127.071211 254.011671 
L 129.578559 254.011671 
L 129.629079 253.336336 
L 131.156995 253.336336 
L 131.156995 252.998669 
L 132.231093 252.998669 
L 132.279464 252.323335 
L 132.968522 252.323335 
L 132.968522 251.985667 
L 138.447208 251.985667 
L 138.447208 251.648 
L 141.83717 251.648 
L 141.83717 251.310333 
L 143.810079 251.310333 
L 143.810079 250.972666 
L 144.884178 250.972666 
L 144.884178 250.634998 
L 150.082736 250.634998 
L 150.082736 250.297331 
L 170.264804 250.297331 
L 170.264804 249.959664 
L 170.495032 249.959664 
L 170.495032 249.621997 
L 172.29225 249.621997 
L 172.29225 249.28433 
L 172.835953 249.28433 
L 172.835953 248.946662 
L 174.786668 248.946662 
L 174.786668 248.608995 
L 175.04306 248.608995 
L 175.04306 248.271328 
L 175.682213 248.271328 
L 175.682213 247.933661 
L 180.503968 247.933661 
L 180.503968 247.595994 
L 181.357813 247.595994 
L 181.357813 247.258326 
L 181.79542 247.258326 
L 181.79542 246.920659 
L 182.869518 246.920659 
L 182.869518 246.582992 
L 183.564921 246.582992 
L 183.564921 246.245325 
L 185.330954 246.245325 
L 185.348363 245.56999 
L 187.55547 245.56999 
L 187.55547 245.232323 
L 188.334247 245.232323 
L 188.334247 244.894656 
L 190.422683 244.894656 
L 190.422683 244.556989 
L 191.63255 244.556989 
L 191.63255 244.219322 
L 191.845903 244.219322 
L 191.845903 243.881654 
L 192.055515 243.881654 
L 192.055515 243.543987 
L 193.839658 243.543987 
L 193.839658 243.20632 
L 194.05301 243.20632 
L 194.05301 242.868653 
L 194.262622 242.868653 
L 194.262622 242.530986 
L 195.303775 242.530986 
L 195.303775 242.193318 
L 196.28054 242.193318 
L 196.287325 241.517984 
L 198.325527 241.517984 
L 198.325527 241.180317 
L 198.693737 241.180317 
L 198.693737 240.84265 
L 199.251701 240.84265 
L 199.251701 240.504982 
L 200.766018 240.504982 
L 200.766018 240.167315 
L 202.591143 240.167315 
L 202.603425 239.491981 
L 203.312716 239.491981 
L 203.312716 239.154313 
L 204.064686 239.154313 
L 204.064686 238.816646 
L 204.536008 238.816646 
L 204.536008 238.478979 
L 204.87098 238.478979 
L 204.87098 238.141312 
L 206.129503 238.141312 
L 206.129503 237.803645 
L 206.453472 237.803645 
L 206.453472 237.465977 
L 206.652159 237.465977 
L 206.652159 237.12831 
L 207.404128 237.12831 
L 207.404128 236.790643 
L 207.539301 236.790643 
L 207.539301 236.452976 
L 207.688996 236.452976 
L 207.688996 236.115309 
L 207.803592 236.115309 
L 207.803592 235.777641 
L 208.169154 235.777641 
L 208.210423 235.102307 
L 209.627736 235.102307 
L 209.627736 234.76464 
L 209.792915 234.76464 
L 209.792915 234.426973 
L 210.603703 234.426973 
L 210.635792 233.751638 
L 211.143034 233.751638 
L 211.143034 233.413971 
L 211.459792 233.413971 
L 211.459792 233.076304 
L 213.639085 233.076304 
L 213.639085 232.738637 
L 215.520808 232.738637 
L 215.520808 232.400969 
L 215.716071 232.400969 
L 215.72752 231.725635 
L 216.272777 231.725635 
L 216.272777 231.387968 
L 217.079072 231.387968 
L 217.079072 231.050301 
L 217.530581 231.050301 
L 217.536879 230.374966 
L 218.661564 230.374966 
L 218.661564 230.037299 
L 219.106034 230.037299 
L 219.106034 229.699632 
L 220.007707 229.699632 
L 220.011683 229.024297 
L 221.808478 229.024297 
L 221.808478 228.68663 
L 222.399879 228.68663 
L 222.399879 228.348963 
L 222.92687 228.348963 
L 222.951604 227.673629 
L 223.39767 227.673629 
L 223.39767 227.335961 
L 223.630365 227.335961 
L 223.651201 226.660627 
L 225.334556 226.660627 
L 225.396397 225.985292 
L 225.725007 225.985292 
L 225.739322 225.309958 
L 225.930163 225.309958 
L 225.954897 224.634624 
L 226.654494 224.634624 
L 226.654494 224.296956 
L 227.374207 224.296956 
L 227.374207 223.959289 
L 227.908262 223.959289 
L 228.018598 223.283955 
L 228.043333 223.283955 
L 228.043333 222.946288 
L 228.650605 222.946288 
L 228.742929 221.933286 
L 229.11497 221.933286 
L 229.11497 221.595619 
L 229.808757 221.595619 
L 229.808757 221.257952 
L 230.189963 221.257952 
L 230.189963 220.920284 
L 231.43434 220.920284 
L 231.520097 220.24495 
L 231.684627 220.24495 
L 231.684627 219.907283 
L 231.990048 219.907283 
L 232.045106 219.231948 
L 232.568728 219.231948 
L 232.568728 218.894281 
L 232.808903 218.894281 
L 232.808903 218.556614 
L 233.262729 218.556614 
L 233.262729 218.218947 
L 233.473991 218.218947 
L 233.473991 217.88128 
L 233.773062 217.88128 
L 233.773062 217.543612 
L 234.469044 217.543612 
L 234.52339 216.868278 
L 234.607971 216.868278 
L 234.637557 216.192944 
L 235.908171 216.192944 
L 235.946177 214.842275 
L 236.611825 214.842275 
L 236.645774 214.16694 
L 236.741933 214.16694 
L 236.741933 213.829273 
L 237.528206 213.829273 
L 237.528206 213.491606 
L 237.64085 213.491606 
L 237.64085 213.153939 
L 239.432177 213.153939 
L 239.432177 212.816271 
L 239.729285 212.816271 
L 239.729285 212.478604 
L 240.062401 212.478604 
L 240.062401 212.140937 
L 240.19934 212.140937 
L 240.224075 211.465603 
L 240.5315 211.465603 
L 240.5315 211.127935 
L 240.858696 211.127935 
L 240.923671 210.452601 
L 241.287333 210.452601 
L 241.287333 210.114934 
L 241.501579 210.114934 
L 241.508364 209.439599 
L 241.675907 209.439599 
L 241.680047 208.764265 
L 242.316042 208.764265 
L 242.316042 208.426598 
L 242.619935 208.426598 
L 242.619935 208.088931 
L 242.841717 208.088931 
L 242.841717 207.751263 
L 243.725418 207.751263 
L 243.750153 207.075929 
L 244.122272 207.075929 
L 244.122272 206.738262 
L 244.339518 206.738262 
L 244.449749 205.72526 
L 244.51467 205.72526 
L 244.51467 205.387593 
L 244.77682 205.387593 
L 244.77682 205.049926 
L 244.891541 205.049926 
L 244.898327 204.374591 
L 245.304835 204.374591 
L 245.413616 203.699257 
L 245.765069 203.699257 
L 245.789804 203.023923 
L 245.953804 203.023923 
L 245.999659 202.010921 
L 246.4894 202.010921 
L 246.4894 201.673254 
L 247.073757 201.673254 
L 247.08891 200.997919 
L 247.245557 200.997919 
L 247.245557 200.660252 
L 247.40472 200.660252 
L 247.40472 200.322585 
L 247.63213 200.322585 
L 247.63213 199.984918 
L 248.199618 199.984918 
L 248.224353 199.309583 
L 248.792567 199.309583 
L 248.792567 198.971916 
L 248.92395 198.971916 
L 248.92395 198.634249 
L 249.331889 198.634249 
L 249.395017 197.28358 
L 249.479882 197.28358 
L 249.479882 196.945913 
L 249.76263 196.945913 
L 249.76263 196.608246 
L 250.11782 196.608246 
L 250.201908 195.932911 
L 250.24885 195.932911 
L 250.24885 195.595244 
L 250.428353 195.595244 
L 250.522779 194.91991 
L 250.746689 194.91991 
L 250.837903 194.244575 
L 250.924114 194.244575 
L 250.987562 193.231574 
L 251.153346 193.231574 
L 251.153346 192.893906 
L 251.319614 192.893906 
L 251.319614 192.556239 
L 251.519533 192.556239 
L 251.519533 192.218572 
L 251.910027 192.218572 
L 251.910027 191.880905 
L 252.03689 191.880905 
L 252.03689 191.543238 
L 252.318645 191.543238 
L 252.337285 190.867903 
L 252.506607 190.867903 
L 252.506607 190.530236 
L 252.644133 190.530236 
L 252.644133 190.192569 
L 252.910035 190.192569 
L 252.956154 189.517234 
L 253.856726 189.517234 
L 253.954082 188.8419 
L 254.086132 188.8419 
L 254.192458 188.166565 
L 254.358296 188.166565 
L 254.366198 187.491231 
L 254.800677 187.491231 
L 254.828453 186.815897 
L 254.987912 186.815897 
L 254.987912 186.478229 
L 255.132795 186.478229 
L 255.157529 185.802895 
L 255.436105 185.802895 
L 255.530409 184.789893 
L 255.59113 184.789893 
L 255.59113 184.452226 
L 255.754748 184.452226 
L 255.857126 183.776892 
L 255.969078 183.776892 
L 255.969078 183.439225 
L 256.299997 183.439225 
L 256.299997 183.101557 
L 256.634682 183.101557 
L 256.634682 182.76389 
L 256.792845 182.76389 
L 256.792845 182.426223 
L 256.946704 182.426223 
L 256.97968 181.750889 
L 257.104949 181.750889 
L 257.104949 181.413221 
L 257.475756 181.413221 
L 257.475756 181.075554 
L 257.853749 181.075554 
L 257.853749 180.737887 
L 258.141809 180.737887 
L 258.146857 180.062553 
L 258.326755 180.062553 
L 258.326755 179.724885 
L 258.503602 179.724885 
L 258.518446 179.049551 
L 259.093758 179.049551 
L 259.093758 178.711884 
L 259.297001 178.711884 
L 259.366742 177.698882 
L 259.675206 177.698882 
L 259.743379 176.68588 
L 259.910306 176.68588 
L 259.910306 176.348213 
L 260.24013 176.348213 
L 260.24013 176.010546 
L 260.366406 176.010546 
L 260.476645 175.335212 
L 260.689998 175.335212 
L 260.69231 174.659877 
L 260.887258 174.659877 
L 260.899609 173.984543 
L 261.019843 173.984543 
L 261.11264 173.309208 
L 261.325993 173.309208 
L 261.325993 172.971541 
L 261.535604 172.971541 
L 261.535604 172.633874 
L 261.708517 172.633874 
L 261.708517 172.296207 
L 261.844299 172.296207 
L 261.844299 171.95854 
L 262.197578 171.95854 
L 262.197578 171.620872 
L 262.800955 171.620872 
L 262.800955 171.283205 
L 262.91887 171.283205 
L 262.954781 170.607871 
L 263.097067 170.607871 
L 263.132223 169.932536 
L 263.230891 169.932536 
L 263.341834 169.257202 
L 263.444244 169.257202 
L 263.444244 168.919535 
L 263.653855 168.919535 
L 263.726021 167.568866 
L 264.518027 167.568866 
L 264.518027 167.231199 
L 264.688141 167.231199 
L 264.688141 166.893532 
L 265.230638 166.893532 
L 265.230638 166.555864 
L 265.484128 166.555864 
L 265.484128 166.218197 
L 265.623411 166.218197 
L 265.623411 165.88053 
L 265.784038 165.88053 
L 265.860765 164.867528 
L 265.900403 164.867528 
L 265.900403 164.529861 
L 266.843482 164.529861 
L 266.843482 164.192194 
L 267.011961 164.192194 
L 267.011961 163.854527 
L 267.546989 163.854527 
L 267.546989 163.516859 
L 267.785879 163.516859 
L 267.847086 162.503858 
L 268.044106 162.503858 
L 268.14414 161.490856 
L 268.175303 161.490856 
L 268.17717 160.815522 
L 268.316359 160.815522 
L 268.341839 160.140187 
L 268.453014 160.140187 
L 268.551451 159.127186 
L 268.771922 159.127186 
L 268.793987 158.451851 
L 269.291709 158.451851 
L 269.399022 157.43885 
L 269.734131 157.43885 
L 269.834206 156.088181 
L 269.949944 156.088181 
L 269.949944 155.750514 
L 270.083756 155.750514 
L 270.163296 155.075179 
L 270.372908 155.075179 
L 270.372908 154.737512 
L 270.617436 154.737512 
L 270.680259 154.062178 
L 271.222756 154.062178 
L 271.222756 153.724511 
L 272.377374 153.724511 
L 272.450654 153.049176 
L 272.518306 153.049176 
L 272.518306 152.711509 
L 273.06732 152.711509 
L 273.129344 152.036174 
L 273.397555 152.036174 
L 273.443957 151.023173 
L 273.540343 151.023173 
L 273.609817 150.347838 
L 273.686883 150.347838 
L 273.728193 149.672504 
L 273.839204 149.672504 
L 273.935638 148.99717 
L 273.971609 148.99717 
L 274.007399 147.984168 
L 274.703739 147.984168 
L 274.802291 146.971166 
L 274.889308 146.971166 
L 274.889308 146.633499 
L 275.486459 146.633499 
L 275.518131 145.958165 
L 275.600632 145.958165 
L 275.632277 145.28283 
L 276.226265 145.28283 
L 276.226265 144.945163 
L 276.379106 144.945163 
L 276.379106 144.607496 
L 276.588058 144.607496 
L 276.602903 143.932162 
L 276.86825 143.932162 
L 276.86825 143.594494 
L 277.173167 143.594494 
L 277.266145 142.91916 
L 277.534959 142.91916 
L 277.549804 142.243826 
L 277.96478 142.243826 
L 277.96478 141.906158 
L 278.483768 141.906158 
L 278.483768 141.568491 
L 278.621862 141.568491 
L 278.621862 141.230824 
L 278.765186 141.230824 
L 278.804202 140.555489 
L 278.95661 140.555489 
L 278.982887 139.880155 
L 279.401353 139.880155 
L 279.496566 138.867153 
L 280.181543 138.867153 
L 280.207819 137.854152 
L 280.656108 137.854152 
L 280.656108 137.516485 
L 281.490858 137.516485 
L 281.59275 136.84115 
L 281.672156 136.84115 
L 281.672156 136.503483 
L 281.873731 136.503483 
L 281.873731 136.165816 
L 282.387215 136.165816 
L 282.4725 135.490481 
L 283.014997 135.490481 
L 283.06965 134.815147 
L 283.530509 134.815147 
L 283.612147 134.139813 
L 283.979811 134.139813 
L 283.979811 133.802145 
L 284.341603 133.802145 
L 284.356448 133.126811 
L 285.332506 133.126811 
L 285.332506 132.789144 
L 285.631445 132.789144 
L 285.631445 132.451477 
L 285.965058 132.451477 
L 285.965058 132.113809 
L 286.228596 132.113809 
L 286.325206 131.100808 
L 286.578347 131.100808 
L 286.578347 130.763141 
L 286.892388 130.763141 
L 286.892388 130.425473 
L 287.175497 130.425473 
L 287.175497 130.087806 
L 287.380357 130.087806 
L 287.380357 129.750139 
L 288.117321 129.750139 
L 288.117321 129.412472 
L 288.465415 129.412472 
L 288.465415 129.074805 
L 288.728656 129.074805 
L 288.728656 128.737137 
L 289.837367 128.737137 
L 289.936074 128.061803 
L 290.213823 128.061803 
L 290.2401 127.386468 
L 291.324624 127.386468 
L 291.372386 126.711134 
L 291.464538 126.711134 
L 291.464538 126.373467 
L 292.104566 126.373467 
L 292.104566 126.0358 
L 292.789671 126.0358 
L 292.898235 125.360465 
L 293.020292 125.360465 
L 293.068983 124.685131 
L 293.142044 124.685131 
L 293.142044 124.347464 
L 293.384991 124.347464 
L 293.480141 123.334462 
L 293.541641 123.334462 
L 293.541641 122.996795 
L 293.711685 122.996795 
L 293.711685 122.659128 
L 293.882121 122.659128 
L 293.982141 121.646126 
L 294.073477 121.646126 
L 294.088322 120.970792 
L 294.234707 120.970792 
L 294.234707 120.633124 
L 294.347935 120.633124 
L 294.457532 119.282456 
L 295.930428 119.282456 
L 295.975954 118.607121 
L 296.799824 118.607121 
L 296.844594 117.931787 
L 297.041067 117.931787 
L 297.081307 116.918785 
L 297.206386 116.918785 
L 297.280547 115.905783 
L 297.364503 115.905783 
L 297.364503 115.568116 
L 297.715263 115.568116 
L 297.715263 115.230449 
L 297.833277 115.230449 
L 297.833277 114.892782 
L 297.987968 114.892782 
L 298.014244 114.217447 
L 298.149601 114.217447 
L 298.149601 113.87978 
L 298.639571 113.87978 
L 298.737592 113.204446 
L 299.537596 113.204446 
L 299.537596 112.866779 
L 299.751565 112.866779 
L 299.751565 112.529111 
L 300.113357 112.529111 
L 300.222064 111.51611 
L 301.572183 111.51611 
L 301.633387 110.840775 
L 301.817899 110.840775 
L 301.817899 110.503108 
L 302.022212 110.503108 
L 302.022212 110.165441 
L 302.147979 110.165441 
L 302.147979 109.827774 
L 302.360396 109.827774 
L 302.360396 109.490107 
L 302.798607 109.490107 
L 302.798607 109.152439 
L 303.114436 109.152439 
L 303.116865 108.477105 
L 303.372912 108.477105 
L 303.372912 108.139438 
L 303.550577 108.139438 
L 303.550577 107.801771 
L 303.714015 107.801771 
L 303.714015 107.464103 
L 304.141164 107.464103 
L 304.141164 107.126436 
L 304.356871 107.126436 
L 304.42684 106.451102 
L 304.794612 106.451102 
L 304.820889 105.775767 
L 304.976844 105.775767 
L 304.976844 105.4381 
L 305.529713 105.4381 
L 305.551319 104.762766 
L 305.651773 104.762766 
L 305.651773 104.425099 
L 305.771219 104.425099 
L 305.795953 103.749764 
L 305.923746 103.749764 
L 305.939364 103.07443 
L 306.249774 103.07443 
L 306.249774 102.736762 
L 306.49555 102.736762 
L 306.49555 102.399095 
L 306.632348 102.399095 
L 306.632348 102.061428 
L 306.846924 102.061428 
L 306.846924 101.723761 
L 307.289483 101.723761 
L 307.289483 101.386094 
L 307.718004 101.386094 
L 307.718004 101.048426 
L 307.857281 101.048426 
L 307.916775 100.373092 
L 308.278567 100.373092 
L 308.293412 99.697758 
L 309.106554 99.697758 
L 309.156745 99.022423 
L 309.460527 99.022423 
L 309.490298 98.347089 
L 309.753895 98.347089 
L 309.753895 98.009422 
L 311.493616 98.009422 
L 311.525683 97.334087 
L 311.769159 97.334087 
L 311.876835 95.983418 
L 312.73039 95.983418 
L 312.73039 95.645751 
L 313.405192 95.645751 
L 313.405192 95.308084 
L 313.974667 95.308084 
L 313.974667 94.970417 
L 314.364446 94.970417 
L 314.364446 94.63275 
L 314.514163 94.63275 
L 314.552763 93.282081 
L 315.684053 93.282081 
L 315.684053 92.944414 
L 316.153568 92.944414 
L 316.168471 92.269079 
L 317.07349 92.269079 
L 317.07349 91.931412 
L 317.321955 91.931412 
L 317.321955 91.593745 
L 317.481906 91.593745 
L 317.481906 91.256077 
L 317.615987 91.256077 
L 317.685672 90.243076 
L 317.889561 90.243076 
L 317.919105 89.567741 
L 318.12756 89.567741 
L 318.12756 89.230074 
L 318.575178 89.230074 
L 318.581964 88.55474 
L 318.999641 88.55474 
L 318.999641 88.217073 
L 319.160756 88.217073 
L 319.160756 87.879405 
L 319.327148 87.879405 
L 319.352351 86.866404 
L 319.811348 86.866404 
L 319.894848 86.191069 
L 320.133442 86.191069 
L 320.232435 85.178068 
L 320.372556 85.178068 
L 320.372556 84.840401 
L 320.566366 84.840401 
L 320.592643 84.165066 
L 320.898795 84.165066 
L 320.898795 83.827399 
L 321.179337 83.827399 
L 321.179337 83.489732 
L 321.495946 83.489732 
L 321.557859 82.814397 
L 321.715935 82.814397 
L 321.722721 82.139063 
L 321.885771 82.139063 
L 321.885771 81.801396 
L 322.045684 81.801396 
L 322.100356 81.126061 
L 322.419196 81.126061 
L 322.511296 80.11306 
L 323.060656 80.11306 
L 323.07284 79.100058 
L 323.458198 79.100058 
L 323.458198 78.762391 
L 323.764324 78.762391 
L 323.812626 78.087056 
L 324.61892 78.087056 
L 324.716804 77.411722 
L 325.033736 77.411722 
L 325.033736 77.074055 
L 325.152874 77.074055 
L 325.152874 76.736388 
L 325.595173 76.736388 
L 325.663706 76.061053 
L 325.922619 76.061053 
L 325.922619 75.723386 
L 326.201413 75.723386 
L 326.201413 75.385719 
L 326.337319 75.385719 
L 326.337319 75.048052 
L 327.539936 75.048052 
L 327.551532 74.372717 
L 327.901728 74.372717 
L 327.985981 73.359716 
L 328.136496 73.359716 
L 328.136496 73.022048 
L 328.502144 73.022048 
L 328.502144 72.684381 
L 328.731576 72.684381 
L 328.757853 72.009047 
L 329.983634 72.009047 
L 330.089906 71.333712 
L 330.264842 71.333712 
L 330.264842 70.996045 
L 330.719402 70.996045 
L 330.735604 70.320711 
L 331.541898 70.320711 
L 331.541898 69.983044 
L 332.054619 69.983044 
L 332.054619 69.645376 
L 332.308417 69.645376 
L 332.379543 68.632375 
L 332.47035 68.632375 
L 332.47035 68.294708 
L 333.124391 68.294708 
L 333.124391 67.95704 
L 334.47451 67.95704 
L 334.47451 67.619373 
L 336.565865 67.619373 
L 336.667354 66.944039 
L 336.945116 66.944039 
L 336.945116 66.606371 
L 337.342676 66.606371 
L 337.342676 66.268704 
L 337.542266 66.268704 
L 337.542266 65.931037 
L 337.662342 65.931037 
L 337.717855 64.918035 
L 339.996716 64.918035 
L 339.996716 64.580368 
L 340.223645 64.580368 
L 340.244194 63.905034 
L 340.850764 63.905034 
L 340.857501 63.229699 
L 342.14782 63.229699 
L 342.202224 62.554365 
L 343.129625 62.554365 
L 343.129625 62.216698 
L 343.536659 62.216698 
L 343.63002 61.541363 
L 343.757735 61.541363 
L 343.757735 61.203696 
L 343.913067 61.203696 
L 343.919853 60.528362 
L 344.515281 60.528362 
L 344.515281 60.190695 
L 345.335133 60.190695 
L 345.446033 59.51536 
L 346.036596 59.51536 
L 346.036596 59.177693 
L 346.574801 59.177693 
L 346.574801 58.840026 
L 347.691036 58.840026 
L 347.691036 58.502359 
L 347.831191 58.502359 
L 347.837977 57.827024 
L 348.242104 57.827024 
L 348.242104 57.489357 
L 348.354737 57.489357 
L 348.443005 56.138688 
L 349.070798 56.138688 
L 349.070798 55.801021 
L 349.2493 55.801021 
L 349.2493 55.463354 
L 349.737669 55.463354 
L 349.737669 55.125687 
L 349.924456 55.125687 
L 349.924456 54.788019 
L 350.23258 54.788019 
L 350.27873 54.112685 
L 350.831792 54.112685 
L 350.831792 53.775018 
L 351.496353 53.775018 
L 351.584596 53.099683 
L 351.922945 53.099683 
L 351.922945 52.762016 
L 352.181911 52.762016 
L 352.181911 52.424349 
L 352.316669 52.424349 
L 352.316669 52.086682 
L 354.201806 52.086682 
L 354.201806 51.749014 
L 354.339745 51.749014 
L 354.339745 51.411347 
L 355.091715 51.411347 
L 355.091715 51.07368 
L 355.321523 51.07368 
L 355.321523 50.736013 
L 355.454969 50.736013 
L 355.557368 49.723011 
L 355.898009 49.723011 
L 355.898009 49.385344 
L 356.02424 49.385344 
L 356.02424 49.047677 
L 356.290515 49.047677 
L 356.309338 48.372342 
L 356.407314 48.372342 
L 356.407314 48.034675 
L 356.547729 48.034675 
L 356.547729 47.697008 
L 357.115632 47.697008 
L 357.115632 47.359341 
L 357.480502 47.359341 
L 357.480502 47.021674 
L 357.68438 47.021674 
L 357.778646 46.346339 
L 358.698125 46.346339 
L 358.698125 46.008672 
L 358.830621 46.008672 
L 358.830621 45.671005 
L 359.239647 45.671005 
L 359.239647 45.333338 
L 359.984154 45.333338 
L 360.048244 44.658003 
L 360.108077 44.658003 
L 360.108077 44.320336 
L 362.351372 44.320336 
L 362.358158 43.645002 
L 362.647513 43.645002 
L 362.647513 43.307334 
L 366.009152 43.307334 
L 366.015938 42.632 
L 366.778199 42.632 
L 366.83685 41.956665 
L 368.315318 41.956665 
L 368.340052 41.281331 
L 369.039649 41.281331 
L 369.039649 40.943664 
L 369.975458 40.943664 
L 370.000193 40.268329 
L 370.49463 40.268329 
L 370.49463 39.930662 
L 370.699789 39.930662 
L 370.699789 39.592995 
L 371.231541 39.592995 
L 371.238326 38.917661 
L 371.546106 38.917661 
L 371.546106 38.579993 
L 373.028924 38.579993 
L 373.028924 38.242326 
L 373.426909 38.242326 
L 373.426909 37.904659 
L 373.759828 37.904659 
L 373.824967 37.229325 
L 374.069781 37.229325 
L 374.069781 36.891657 
L 374.644532 36.891657 
L 374.644532 36.55399 
L 374.938591 36.55399 
L 374.963326 35.878656 
L 375.662922 35.878656 
L 375.729922 34.865654 
L 376.030475 34.865654 
L 376.030475 34.527987 
L 376.908544 34.527987 
L 376.947048 33.852653 
L 377.417608 33.852653 
L 377.417608 33.514985 
L 378.568685 33.514985 
L 378.568685 33.177318 
L 379.31313 33.177318 
L 379.31313 32.839651 
L 379.677634 32.839651 
L 379.677634 32.501984 
L 380.026005 32.501984 
L 380.026005 32.164317 
L 380.693055 32.164317 
L 380.693055 31.826649 
L 380.895257 31.826649 
L 380.895257 31.488982 
L 381.686145 31.488982 
L 381.686145 31.151315 
L 382.639996 31.151315 
L 382.639996 30.813648 
L 382.916654 30.813648 
L 382.916654 30.475981 
L 383.531818 30.475981 
L 383.595757 29.800646 
L 384.576795 29.800646 
L 384.576795 29.462979 
L 384.81338 29.462979 
L 384.81338 29.125312 
L 385.412914 29.125312 
L 385.412914 28.787644 
L 386.649278 28.787644 
L 386.649278 28.449977 
L 389.539928 28.449977 
L 389.539928 28.11231 
L 391.467229 28.11231 
L 391.467229 27.774643 
L 392.634005 27.774643 
L 392.634005 27.436976 
L 394.294146 27.436976 
L 394.294146 27.099308 
L 395.125009 27.099308 
L 395.125009 26.761641 
L 397.703992 26.761641 
L 397.728727 26.086307 
L 398.115939 26.086307 
L 398.115939 25.74864 
L 398.428323 25.74864 
L 398.428323 25.410972 
L 399.257278 25.410972 
L 399.333562 24.735638 
L 400.347398 24.735638 
L 400.347398 24.397971 
L 401.773719 24.397971 
L 401.773719 24.060304 
L 402.991342 24.060304 
L 402.991342 23.722636 
L 403.458456 23.722636 
L 403.458456 23.384969 
L 406.080757 23.384969 
L 406.080757 23.047302 
L 406.297219 23.047302 
L 406.297219 22.709635 
L 406.996107 22.709635 
L 406.996107 22.371968 
L 407.740898 22.371968 
L 407.740898 22.0343 
L 408.21373 22.0343 
L 408.21373 21.696633 
L 409.414679 21.696633 
L 409.414679 21.358966 
L 412.305329 21.358966 
L 412.305329 21.021299 
L 412.704031 21.021299 
L 412.704031 20.683632 
L 422.02268 20.683632 
L 422.02268 20.345964 
L 435.469432 20.345964 
L 435.469432 20.008297 
L 453.192 20.008297 
L 453.192 20.008297 
" clip-path="url(#p2fad7afa12)" style="fill: none; stroke: #000000; stroke-width: 3; stroke-linecap: square"/>
   </g>
   <g id="line2d_57">
    <path clip-path="url(#p2fad7afa12)" style="fill: none; stroke: #000000; stroke-width: 3; stroke-linecap: square"/>
   </g>
   <g id="line2d_58">
    <path d="M 34.16 175.402745 
L 240.589803 175.402745 
L 240.589803 173.141725 
L 240.648663 173.141725 
L 240.648663 170.880706 
L 242.067385 170.880706 
L 242.067385 168.619686 
L 242.126245 168.619686 
L 242.126245 166.358667 
L 242.46302 166.358667 
L 242.46302 164.097647 
L 243.940602 164.097647 
L 243.940602 161.836627 
L 247.627256 161.836627 
L 247.627256 159.575608 
L 248.149176 159.575608 
L 248.149176 157.314588 
L 249.104838 157.314588 
L 249.104838 155.053569 
L 249.626757 155.053569 
L 249.626757 152.792549 
L 255.233956 152.792549 
L 255.233956 150.531529 
L 255.292816 150.531529 
L 255.292816 148.27051 
L 257.107173 148.27051 
L 257.107173 146.00949 
L 261.699087 146.00949 
L 261.699087 143.748471 
L 261.757947 143.748471 
L 261.757947 141.487451 
L 261.843791 141.487451 
L 261.843791 139.226431 
L 261.902651 139.226431 
L 261.902651 136.965412 
L 262.271409 136.965412 
L 262.271409 134.704392 
L 262.793328 134.704392 
L 262.793328 132.443373 
L 263.572304 132.443373 
L 263.572304 130.182353 
L 263.717008 130.182353 
L 263.717008 127.921333 
L 268.73654 127.921333 
L 268.73654 125.660314 
L 268.881244 125.660314 
L 268.881244 123.399294 
L 269.258459 123.399294 
L 269.258459 121.138275 
L 269.403163 121.138275 
L 269.403163 118.877255 
L 453.192 118.877255 
" clip-path="url(#p2fad7afa12)" style="fill: none; stroke: #00bfbf; stroke-width: 3; stroke-linecap: square"/>
   </g>
   <g id="line2d_59">
    <path clip-path="url(#p2fad7afa12)" style="fill: none; stroke: #00bfbf; stroke-width: 3; stroke-linecap: square"/>
   </g>
   <g id="line2d_60">
    <path d="M 34.16 175.402745 
L 240.923493 175.402745 
L 240.923493 173.141725 
L 241.284493 173.141725 
L 241.284493 170.880706 
L 242.268378 170.880706 
L 242.268378 168.619686 
L 242.629377 168.619686 
L 242.629377 166.358667 
L 243.064737 166.358667 
L 243.064737 164.097647 
L 244.409621 164.097647 
L 244.409621 161.836627 
L 248.054032 161.836627 
L 248.054032 159.575608 
L 248.426687 159.575608 
L 248.426687 157.314588 
L 249.398916 157.314588 
L 249.398916 155.053569 
L 249.771571 155.053569 
L 249.771571 152.792549 
L 254.910037 152.792549 
L 254.910037 150.531529 
L 255.271037 150.531529 
L 255.271037 148.27051 
L 257.051281 148.27051 
L 257.051281 146.00949 
L 261.190538 146.00949 
L 261.190538 143.748471 
L 261.255323 143.748471 
L 261.255323 141.487451 
L 261.551538 141.487451 
L 261.551538 139.226431 
L 261.616323 139.226431 
L 261.616323 136.965412 
L 262.040576 136.965412 
L 262.040576 134.704392 
L 262.413231 134.704392 
L 262.413231 132.443373 
L 263.331782 132.443373 
L 263.331782 130.182353 
L 263.396567 130.182353 
L 263.396567 127.921333 
L 268.321077 127.921333 
L 268.321077 125.660314 
L 268.385862 125.660314 
L 268.385862 123.399294 
L 268.693732 123.399294 
L 268.693732 121.138275 
L 268.758517 121.138275 
L 268.758517 118.877255 
L 453.192 118.877255 
" clip-path="url(#p2fad7afa12)" style="fill: none; stroke: #bf00bf; stroke-width: 3; stroke-linecap: square"/>
   </g>
   <g id="line2d_61">
    <path clip-path="url(#p2fad7afa12)" style="fill: none; stroke: #bf00bf; stroke-width: 3; stroke-linecap: square"/>
   </g>
   <g id="line2d_62">
    <path d="M 34.16 175.402745 
L 240.017233 175.402745 
L 240.017233 173.141725 
L 240.061096 173.141725 
L 240.061096 170.880706 
L 242.0852 170.880706 
L 242.0852 168.619686 
L 242.338379 168.619686 
L 242.338379 166.358667 
L 242.382242 166.358667 
L 242.382242 164.097647 
L 244.406347 164.097647 
L 244.406347 161.836627 
L 246.918733 161.836627 
L 246.918733 159.575608 
L 247.150477 159.575608 
L 247.150477 157.314588 
L 249.239879 157.314588 
L 249.239879 155.053569 
L 249.471623 155.053569 
L 249.471623 152.792549 
L 255.699278 152.792549 
L 255.699278 150.531529 
L 255.743141 150.531529 
L 255.743141 148.27051 
L 257.767245 148.27051 
L 257.767245 146.00949 
L 261.56769 146.00949 
L 261.56769 143.748471 
L 261.611553 143.748471 
L 261.611553 141.487451 
L 261.728727 141.487451 
L 261.728727 139.226431 
L 261.77259 139.226431 
L 261.77259 136.965412 
L 262.600778 136.965412 
L 262.600778 134.704392 
L 262.832522 134.704392 
L 262.832522 132.443373 
L 263.635657 132.443373 
L 263.635657 130.182353 
L 263.796694 130.182353 
L 263.796694 127.921333 
L 268.46919 127.921333 
L 268.46919 125.660314 
L 268.630227 125.660314 
L 268.630227 123.399294 
L 268.700934 123.399294 
L 268.700934 121.138275 
L 268.861971 121.138275 
L 268.861971 118.877255 
L 453.192 118.877255 
" clip-path="url(#p2fad7afa12)" style="fill: none; stroke: #ff0000; stroke-width: 3; stroke-linecap: square"/>
   </g>
   <g id="line2d_63">
    <path clip-path="url(#p2fad7afa12)" style="fill: none; stroke: #ff0000; stroke-width: 3; stroke-linecap: square"/>
   </g>
   <g id="line2d_64">
    <path d="M 243.676 291.28 
L 243.676 3 
" clip-path="url(#p2fad7afa12)" style="fill: none; stroke: #000000; stroke-width: 1.5; stroke-linecap: square"/>
   </g>
   <g id="line2d_65">
    <path d="M 34.16 147.14 
L 453.192 147.14 
" clip-path="url(#p2fad7afa12)" style="fill: none; stroke-dasharray: 2,3.3; stroke-dashoffset: 0; stroke: #000000; stroke-width: 2"/>
   </g>
   <g id="patch_3">
    <path d="M 34.16 291.28 
L 34.16 3 
" style="fill: none; stroke: #000000; stroke-width: 0.8; stroke-linejoin: miter; stroke-linecap: square"/>
   </g>
   <g id="patch_4">
    <path d="M 453.192 291.28 
L 453.192 3 
" style="fill: none; stroke: #000000; stroke-width: 0.8; stroke-linejoin: miter; stroke-linecap: square"/>
   </g>
   <g id="patch_5">
    <path d="M 34.16 291.28 
L 453.192 291.28 
" style="fill: none; stroke: #000000; stroke-width: 0.8; stroke-linejoin: miter; stroke-linecap: square"/>
   </g>
   <g id="patch_6">
    <path d="M 34.16 3 
L 453.192 3 
" style="fill: none; stroke: #000000; stroke-width: 0.8; stroke-linejoin: miter; stroke-linecap: square"/>
   </g>
   <g id="text_5">
    <!-- f6-f9,40-D -->
    <g transform="translate(343.64261 285.5144) scale(0.2 -0.2)">
     <defs>
      <path id="DejaVuSans-36" d="M 2113 2584 
Q 1688 2584 1439 2293 
Q 1191 2003 1191 1497 
Q 1191 994 1439 701 
Q 1688 409 2113 409 
Q 2538 409 2786 701 
Q 3034 994 3034 1497 
Q 3034 2003 2786 2293 
Q 2538 2584 2113 2584 
z
M 3366 4563 
L 3366 3988 
Q 3128 4100 2886 4159 
Q 2644 4219 2406 4219 
Q 1781 4219 1451 3797 
Q 1122 3375 1075 2522 
Q 1259 2794 1537 2939 
Q 1816 3084 2150 3084 
Q 2853 3084 3261 2657 
Q 3669 2231 3669 1497 
Q 3669 778 3244 343 
Q 2819 -91 2113 -91 
Q 1303 -91 875 529 
Q 447 1150 447 2328 
Q 447 3434 972 4092 
Q 1497 4750 2381 4750 
Q 2619 4750 2861 4703 
Q 3103 4656 3366 4563 
z
" transform="scale(0.015625)"/>
      <path id="DejaVuSans-39" d="M 703 97 
L 703 672 
Q 941 559 1184 500 
Q 1428 441 1663 441 
Q 2288 441 2617 861 
Q 2947 1281 2994 2138 
Q 2813 1869 2534 1725 
Q 2256 1581 1919 1581 
Q 1219 1581 811 2004 
Q 403 2428 403 3163 
Q 403 3881 828 4315 
Q 1253 4750 1959 4750 
Q 2769 4750 3195 4129 
Q 3622 3509 3622 2328 
Q 3622 1225 3098 567 
Q 2575 -91 1691 -91 
Q 1453 -91 1209 -44 
Q 966 3 703 97 
z
M 1959 2075 
Q 2384 2075 2632 2365 
Q 2881 2656 2881 3163 
Q 2881 3666 2632 3958 
Q 2384 4250 1959 4250 
Q 1534 4250 1286 3958 
Q 1038 3666 1038 3163 
Q 1038 2656 1286 2365 
Q 1534 2075 1959 2075 
z
" transform="scale(0.015625)"/>
      <path id="DejaVuSans-2c" d="M 750 794 
L 1409 794 
L 1409 256 
L 897 -744 
L 494 -744 
L 750 256 
L 750 794 
z
" transform="scale(0.015625)"/>
      <path id="DejaVuSans-34" d="M 2419 4116 
L 825 1625 
L 2419 1625 
L 2419 4116 
z
M 2253 4666 
L 3047 4666 
L 3047 1625 
L 3713 1625 
L 3713 1100 
L 3047 1100 
L 3047 0 
L 2419 0 
L 2419 1100 
L 313 1100 
L 313 1709 
L 2253 4666 
z
" transform="scale(0.015625)"/>
      <path id="DejaVuSans-44" d="M 1259 4147 
L 1259 519 
L 2022 519 
Q 2988 519 3436 956 
Q 3884 1394 3884 2338 
Q 3884 3275 3436 3711 
Q 2988 4147 2022 4147 
L 1259 4147 
z
M 628 4666 
L 1925 4666 
Q 3281 4666 3915 4102 
Q 4550 3538 4550 2338 
Q 4550 1131 3912 565 
Q 3275 0 1925 0 
L 628 0 
L 628 4666 
z
" transform="scale(0.015625)"/>
     </defs>
     <use xlink:href="#DejaVuSans-66"/>
     <use xlink:href="#DejaVuSans-36" x="35.205078"/>
     <use xlink:href="#DejaVuSans-2d" x="98.828125"/>
     <use xlink:href="#DejaVuSans-66" x="134.912109"/>
     <use xlink:href="#DejaVuSans-39" x="170.117188"/>
     <use xlink:href="#DejaVuSans-2c" x="233.740234"/>
     <use xlink:href="#DejaVuSans-34" x="265.527344"/>
     <use xlink:href="#DejaVuSans-30" x="329.150391"/>
     <use xlink:href="#DejaVuSans-2d" x="392.773438"/>
     <use xlink:href="#DejaVuSans-44" x="428.857422"/>
    </g>
   </g>
   <g id="text_6">
    <!-- v2.6.3 -->
    <g style="fill: #808080" transform="translate(227.99475 286.317512) scale(0.1 -0.1)">
     <defs>
      <path id="DejaVuSans-32" d="M 1228 531 
L 3431 531 
L 3431 0 
L 469 0 
L 469 531 
Q 828 903 1448 1529 
Q 2069 2156 2228 2338 
Q 2531 2678 2651 2914 
Q 2772 3150 2772 3378 
Q 2772 3750 2511 3984 
Q 2250 4219 1831 4219 
Q 1534 4219 1204 4116 
Q 875 4013 500 3803 
L 500 4441 
Q 881 4594 1212 4672 
Q 1544 4750 1819 4750 
Q 2544 4750 2975 4387 
Q 3406 4025 3406 3419 
Q 3406 3131 3298 2873 
Q 3191 2616 2906 2266 
Q 2828 2175 2409 1742 
Q 1991 1309 1228 531 
z
" transform="scale(0.015625)"/>
      <path id="DejaVuSans-2e" d="M 684 794 
L 1344 794 
L 1344 0 
L 684 0 
L 684 794 
z
" transform="scale(0.015625)"/>
      <path id="DejaVuSans-33" d="M 2597 2516 
Q 3050 2419 3304 2112 
Q 3559 1806 3559 1356 
Q 3559 666 3084 287 
Q 2609 -91 1734 -91 
Q 1441 -91 1130 -33 
Q 819 25 488 141 
L 488 750 
Q 750 597 1062 519 
Q 1375 441 1716 441 
Q 2309 441 2620 675 
Q 2931 909 2931 1356 
Q 2931 1769 2642 2001 
Q 2353 2234 1838 2234 
L 1294 2234 
L 1294 2753 
L 1863 2753 
Q 2328 2753 2575 2939 
Q 2822 3125 2822 3475 
Q 2822 3834 2567 4026 
Q 2313 4219 1838 4219 
Q 1578 4219 1281 4162 
Q 984 4106 628 3988 
L 628 4550 
Q 988 4650 1302 4700 
Q 1616 4750 1894 4750 
Q 2613 4750 3031 4423 
Q 3450 4097 3450 3541 
Q 3450 3153 3228 2886 
Q 3006 2619 2597 2516 
z
" transform="scale(0.015625)"/>
     </defs>
     <use xlink:href="#DejaVuSans-76"/>
     <use xlink:href="#DejaVuSans-32" x="59.179688"/>
     <use xlink:href="#DejaVuSans-2e" x="122.802734"/>
     <use xlink:href="#DejaVuSans-36" x="154.589844"/>
     <use xlink:href="#DejaVuSans-2e" x="218.212891"/>
     <use xlink:href="#DejaVuSans-33" x="250"/>
    </g>
   </g>
   <g id="legend_1">
    <g id="patch_7">
     <path d="M 48.16 136.425 
L 177.381875 136.425 
Q 181.381875 136.425 181.381875 132.425 
L 181.381875 17 
Q 181.381875 13 177.381875 13 
L 48.16 13 
Q 44.16 13 44.16 17 
L 44.16 132.425 
Q 44.16 136.425 48.16 136.425 
z
" style="fill: #ffffff; opacity: 0.2; stroke: #cccccc; stroke-linejoin: miter"/>
    </g>
    <g id="line2d_66">
     <path d="M 52.16 29.196875 
L 72.16 29.196875 
L 92.16 29.196875 
" style="fill: none; stroke: #000000; stroke-width: 3; stroke-linecap: square"/>
    </g>
    <g id="text_7">
     <!-- 1: 4/4 -->
     <g transform="translate(108.16 36.196875) scale(0.2 -0.2)">
      <defs>
       <path id="DejaVuSans-3a" d="M 750 794 
L 1409 794 
L 1409 0 
L 750 0 
L 750 794 
z
M 750 3309 
L 1409 3309 
L 1409 2516 
L 750 2516 
L 750 3309 
z
" transform="scale(0.015625)"/>
       <path id="DejaVuSans-2f" d="M 1625 4666 
L 2156 4666 
L 531 -594 
L 0 -594 
L 1625 4666 
z
" transform="scale(0.015625)"/>
      </defs>
      <use xlink:href="#DejaVuSans-31"/>
      <use xlink:href="#DejaVuSans-3a" x="63.623047"/>
      <use xlink:href="#DejaVuSans-20" x="97.314453"/>
      <use xlink:href="#DejaVuSans-34" x="129.101562"/>
      <use xlink:href="#DejaVuSans-2f" x="192.724609"/>
      <use xlink:href="#DejaVuSans-34" x="226.416016"/>
     </g>
    </g>
    <g id="line2d_67">
     <path d="M 52.16 58.553125 
L 72.16 58.553125 
L 92.16 58.553125 
" style="fill: none; stroke: #00bfbf; stroke-width: 3; stroke-linecap: square"/>
    </g>
    <g id="text_8">
     <!-- -1: 1/1 -->
     <g transform="translate(108.16 65.553125) scale(0.2 -0.2)">
      <use xlink:href="#DejaVuSans-2d"/>
      <use xlink:href="#DejaVuSans-31" x="36.083984"/>
      <use xlink:href="#DejaVuSans-3a" x="99.707031"/>
      <use xlink:href="#DejaVuSans-20" x="133.398438"/>
      <use xlink:href="#DejaVuSans-31" x="165.185547"/>
      <use xlink:href="#DejaVuSans-2f" x="228.808594"/>
      <use xlink:href="#DejaVuSans-31" x="262.5"/>
     </g>
    </g>
    <g id="line2d_68">
     <path d="M 52.16 87.909375 
L 72.16 87.909375 
L 92.16 87.909375 
" style="fill: none; stroke: #bf00bf; stroke-width: 3; stroke-linecap: square"/>
    </g>
    <g id="text_9">
     <!-- -4: 1/1 -->
     <g transform="translate(108.16 94.909375) scale(0.2 -0.2)">
      <use xlink:href="#DejaVuSans-2d"/>
      <use xlink:href="#DejaVuSans-34" x="36.083984"/>
      <use xlink:href="#DejaVuSans-3a" x="99.707031"/>
      <use xlink:href="#DejaVuSans-20" x="133.398438"/>
      <use xlink:href="#DejaVuSans-31" x="165.185547"/>
      <use xlink:href="#DejaVuSans-2f" x="228.808594"/>
      <use xlink:href="#DejaVuSans-31" x="262.5"/>
     </g>
    </g>
    <g id="line2d_69">
     <path d="M 52.16 117.265625 
L 72.16 117.265625 
L 92.16 117.265625 
" style="fill: none; stroke: #ff0000; stroke-width: 3; stroke-linecap: square"/>
    </g>
    <g id="text_10">
     <!-- -8: 1/1 -->
     <g transform="translate(108.16 124.265625) scale(0.2 -0.2)">
      <defs>
       <path id="DejaVuSans-38" d="M 2034 2216 
Q 1584 2216 1326 1975 
Q 1069 1734 1069 1313 
Q 1069 891 1326 650 
Q 1584 409 2034 409 
Q 2484 409 2743 651 
Q 3003 894 3003 1313 
Q 3003 1734 2745 1975 
Q 2488 2216 2034 2216 
z
M 1403 2484 
Q 997 2584 770 2862 
Q 544 3141 544 3541 
Q 544 4100 942 4425 
Q 1341 4750 2034 4750 
Q 2731 4750 3128 4425 
Q 3525 4100 3525 3541 
Q 3525 3141 3298 2862 
Q 3072 2584 2669 2484 
Q 3125 2378 3379 2068 
Q 3634 1759 3634 1313 
Q 3634 634 3220 271 
Q 2806 -91 2034 -91 
Q 1263 -91 848 271 
Q 434 634 434 1313 
Q 434 1759 690 2068 
Q 947 2378 1403 2484 
z
M 1172 3481 
Q 1172 3119 1398 2916 
Q 1625 2713 2034 2713 
Q 2441 2713 2670 2916 
Q 2900 3119 2900 3481 
Q 2900 3844 2670 4047 
Q 2441 4250 2034 4250 
Q 1625 4250 1398 4047 
Q 1172 3844 1172 3481 
z
" transform="scale(0.015625)"/>
      </defs>
      <use xlink:href="#DejaVuSans-2d"/>
      <use xlink:href="#DejaVuSans-38" x="36.083984"/>
      <use xlink:href="#DejaVuSans-3a" x="99.707031"/>
      <use xlink:href="#DejaVuSans-20" x="133.398438"/>
      <use xlink:href="#DejaVuSans-31" x="165.185547"/>
      <use xlink:href="#DejaVuSans-2f" x="228.808594"/>
      <use xlink:href="#DejaVuSans-31" x="262.5"/>
     </g>
    </g>
   </g>
  </g>
 </g>
 <defs>
  <clipPath id="p2fad7afa12">
   <rect x="34.16" y="3" width="419.032" height="288.28"/>
  </clipPath>
 </defs>
</svg>
