<?xml version="1.0" encoding="utf-8" standalone="no"?>
<!DOCTYPE svg PUBLIC "-//W3C//DTD SVG 1.1//EN"
  "http://www.w3.org/Graphics/SVG/1.1/DTD/svg11.dtd">
<svg xmlns:xlink="http://www.w3.org/1999/xlink" width="460.8pt" height="345.6pt" viewBox="0 0 460.8 345.6" xmlns="http://www.w3.org/2000/svg" version="1.1">
 <metadata>
  <rdf:RDF xmlns:dc="http://purl.org/dc/elements/1.1/" xmlns:cc="http://creativecommons.org/ns#" xmlns:rdf="http://www.w3.org/1999/02/22-rdf-syntax-ns#">
   <cc:Work>
    <dc:type rdf:resource="http://purl.org/dc/dcmitype/StillImage"/>
    <dc:date>2024-06-05T10:08:09.117580</dc:date>
    <dc:format>image/svg+xml</dc:format>
    <dc:creator>
     <cc:Agent>
      <dc:title>Matplotlib v3.7.1, https://matplotlib.org/</dc:title>
     </cc:Agent>
    </dc:creator>
   </cc:Work>
  </rdf:RDF>
 </metadata>
 <defs>
  <style type="text/css">*{stroke-linejoin: round; stroke-linecap: butt}</style>
 </defs>
 <g id="figure_1">
  <g id="patch_1">
   <path d="M 0 345.6 
L 460.8 345.6 
L 460.8 0 
L 0 0 
z
" style="fill: #ffffff"/>
  </g>
  <g id="axes_1">
   <g id="patch_2">
    <path d="M 34.16 291.28 
L 453.192 291.28 
L 453.192 3 
L 34.16 3 
z
" style="fill: #ffffff"/>
   </g>
   <g id="matplotlib.axis_1">
    <g id="xtick_1">
     <g id="line2d_1">
      <path d="M 154.502777 291.28 
L 154.502777 3 
" clip-path="url(#pd1a92d6952)" style="fill: none; stroke: #b0b0b0; stroke-width: 0.8; stroke-linecap: square"/>
     </g>
     <g id="line2d_2">
      <defs>
       <path id="m51b0849232" d="M 0 0 
L 0 3.5 
" style="stroke: #000000; stroke-width: 0.8"/>
      </defs>
      <g>
       <use xlink:href="#m51b0849232" x="154.502777" y="291.28" style="stroke: #000000; stroke-width: 0.8"/>
      </g>
     </g>
     <g id="text_1">
      <!-- -1 -->
      <g transform="translate(144.532465 313.476875) scale(0.2 -0.2)">
       <defs>
        <path id="DejaVuSans-2d" d="M 313 2009 
L 1997 2009 
L 1997 1497 
L 313 1497 
L 313 2009 
z
" transform="scale(0.015625)"/>
        <path id="DejaVuSans-31" d="M 794 531 
L 1825 531 
L 1825 4091 
L 703 3866 
L 703 4441 
L 1819 4666 
L 2450 4666 
L 2450 531 
L 3481 531 
L 3481 0 
L 794 0 
L 794 531 
z
" transform="scale(0.015625)"/>
       </defs>
       <use xlink:href="#DejaVuSans-2d"/>
       <use xlink:href="#DejaVuSans-31" x="36.083984"/>
      </g>
     </g>
    </g>
    <g id="xtick_2">
     <g id="line2d_3">
      <path d="M 332.849223 291.28 
L 332.849223 3 
" clip-path="url(#pd1a92d6952)" style="fill: none; stroke: #b0b0b0; stroke-width: 0.8; stroke-linecap: square"/>
     </g>
     <g id="line2d_4">
      <g>
       <use xlink:href="#m51b0849232" x="332.849223" y="291.28" style="stroke: #000000; stroke-width: 0.8"/>
      </g>
     </g>
     <g id="text_2">
      <!-- 1 -->
      <g transform="translate(326.486723 313.476875) scale(0.2 -0.2)">
       <use xlink:href="#DejaVuSans-31"/>
      </g>
     </g>
    </g>
    <g id="xtick_3">
     <g id="line2d_5">
      <defs>
       <path id="m53dd014870" d="M 0 0 
L 0 2 
" style="stroke: #000000; stroke-width: 0.6"/>
      </defs>
      <g>
       <use xlink:href="#m53dd014870" x="38.48574" y="291.28" style="stroke: #000000; stroke-width: 0.6"/>
      </g>
     </g>
    </g>
    <g id="xtick_4">
     <g id="line2d_6">
      <g>
       <use xlink:href="#m53dd014870" x="45.546587" y="291.28" style="stroke: #000000; stroke-width: 0.6"/>
      </g>
     </g>
    </g>
    <g id="xtick_5">
     <g id="line2d_7">
      <g>
       <use xlink:href="#m53dd014870" x="51.516448" y="291.28" style="stroke: #000000; stroke-width: 0.6"/>
      </g>
     </g>
    </g>
    <g id="xtick_6">
     <g id="line2d_8">
      <g>
       <use xlink:href="#m53dd014870" x="56.687777" y="291.28" style="stroke: #000000; stroke-width: 0.6"/>
      </g>
     </g>
    </g>
    <g id="xtick_7">
     <g id="line2d_9">
      <g>
       <use xlink:href="#m53dd014870" x="61.249212" y="291.28" style="stroke: #000000; stroke-width: 0.6"/>
      </g>
     </g>
    </g>
    <g id="xtick_8">
     <g id="line2d_10">
      <g>
       <use xlink:href="#m53dd014870" x="92.17337" y="291.28" style="stroke: #000000; stroke-width: 0.6"/>
      </g>
     </g>
    </g>
    <g id="xtick_9">
     <g id="line2d_11">
      <g>
       <use xlink:href="#m53dd014870" x="107.875995" y="291.28" style="stroke: #000000; stroke-width: 0.6"/>
      </g>
     </g>
    </g>
    <g id="xtick_10">
     <g id="line2d_12">
      <g>
       <use xlink:href="#m53dd014870" x="119.017184" y="291.28" style="stroke: #000000; stroke-width: 0.6"/>
      </g>
     </g>
    </g>
    <g id="xtick_11">
     <g id="line2d_13">
      <g>
       <use xlink:href="#m53dd014870" x="127.658963" y="291.28" style="stroke: #000000; stroke-width: 0.6"/>
      </g>
     </g>
    </g>
    <g id="xtick_12">
     <g id="line2d_14">
      <g>
       <use xlink:href="#m53dd014870" x="134.71981" y="291.28" style="stroke: #000000; stroke-width: 0.6"/>
      </g>
     </g>
    </g>
    <g id="xtick_13">
     <g id="line2d_15">
      <g>
       <use xlink:href="#m53dd014870" x="140.68967" y="291.28" style="stroke: #000000; stroke-width: 0.6"/>
      </g>
     </g>
    </g>
    <g id="xtick_14">
     <g id="line2d_16">
      <g>
       <use xlink:href="#m53dd014870" x="145.860999" y="291.28" style="stroke: #000000; stroke-width: 0.6"/>
      </g>
     </g>
    </g>
    <g id="xtick_15">
     <g id="line2d_17">
      <g>
       <use xlink:href="#m53dd014870" x="150.422435" y="291.28" style="stroke: #000000; stroke-width: 0.6"/>
      </g>
     </g>
    </g>
    <g id="xtick_16">
     <g id="line2d_18">
      <g>
       <use xlink:href="#m53dd014870" x="181.346592" y="291.28" style="stroke: #000000; stroke-width: 0.6"/>
      </g>
     </g>
    </g>
    <g id="xtick_17">
     <g id="line2d_19">
      <g>
       <use xlink:href="#m53dd014870" x="197.049217" y="291.28" style="stroke: #000000; stroke-width: 0.6"/>
      </g>
     </g>
    </g>
    <g id="xtick_18">
     <g id="line2d_20">
      <g>
       <use xlink:href="#m53dd014870" x="208.190407" y="291.28" style="stroke: #000000; stroke-width: 0.6"/>
      </g>
     </g>
    </g>
    <g id="xtick_19">
     <g id="line2d_21">
      <g>
       <use xlink:href="#m53dd014870" x="216.832185" y="291.28" style="stroke: #000000; stroke-width: 0.6"/>
      </g>
     </g>
    </g>
    <g id="xtick_20">
     <g id="line2d_22">
      <g>
       <use xlink:href="#m53dd014870" x="223.893032" y="291.28" style="stroke: #000000; stroke-width: 0.6"/>
      </g>
     </g>
    </g>
    <g id="xtick_21">
     <g id="line2d_23">
      <g>
       <use xlink:href="#m53dd014870" x="229.862893" y="291.28" style="stroke: #000000; stroke-width: 0.6"/>
      </g>
     </g>
    </g>
    <g id="xtick_22">
     <g id="line2d_24">
      <g>
       <use xlink:href="#m53dd014870" x="235.034222" y="291.28" style="stroke: #000000; stroke-width: 0.6"/>
      </g>
     </g>
    </g>
    <g id="xtick_23">
     <g id="line2d_25">
      <g>
       <use xlink:href="#m53dd014870" x="239.595657" y="291.28" style="stroke: #000000; stroke-width: 0.6"/>
      </g>
     </g>
    </g>
    <g id="xtick_24">
     <g id="line2d_26">
      <g>
       <use xlink:href="#m53dd014870" x="270.519815" y="291.28" style="stroke: #000000; stroke-width: 0.6"/>
      </g>
     </g>
    </g>
    <g id="xtick_25">
     <g id="line2d_27">
      <g>
       <use xlink:href="#m53dd014870" x="286.22244" y="291.28" style="stroke: #000000; stroke-width: 0.6"/>
      </g>
     </g>
    </g>
    <g id="xtick_26">
     <g id="line2d_28">
      <g>
       <use xlink:href="#m53dd014870" x="297.36363" y="291.28" style="stroke: #000000; stroke-width: 0.6"/>
      </g>
     </g>
    </g>
    <g id="xtick_27">
     <g id="line2d_29">
      <g>
       <use xlink:href="#m53dd014870" x="306.005408" y="291.28" style="stroke: #000000; stroke-width: 0.6"/>
      </g>
     </g>
    </g>
    <g id="xtick_28">
     <g id="line2d_30">
      <g>
       <use xlink:href="#m53dd014870" x="313.066255" y="291.28" style="stroke: #000000; stroke-width: 0.6"/>
      </g>
     </g>
    </g>
    <g id="xtick_29">
     <g id="line2d_31">
      <g>
       <use xlink:href="#m53dd014870" x="319.036116" y="291.28" style="stroke: #000000; stroke-width: 0.6"/>
      </g>
     </g>
    </g>
    <g id="xtick_30">
     <g id="line2d_32">
      <g>
       <use xlink:href="#m53dd014870" x="324.207444" y="291.28" style="stroke: #000000; stroke-width: 0.6"/>
      </g>
     </g>
    </g>
    <g id="xtick_31">
     <g id="line2d_33">
      <g>
       <use xlink:href="#m53dd014870" x="328.76888" y="291.28" style="stroke: #000000; stroke-width: 0.6"/>
      </g>
     </g>
    </g>
    <g id="xtick_32">
     <g id="line2d_34">
      <g>
       <use xlink:href="#m53dd014870" x="359.693037" y="291.28" style="stroke: #000000; stroke-width: 0.6"/>
      </g>
     </g>
    </g>
    <g id="xtick_33">
     <g id="line2d_35">
      <g>
       <use xlink:href="#m53dd014870" x="375.395662" y="291.28" style="stroke: #000000; stroke-width: 0.6"/>
      </g>
     </g>
    </g>
    <g id="xtick_34">
     <g id="line2d_36">
      <g>
       <use xlink:href="#m53dd014870" x="386.536852" y="291.28" style="stroke: #000000; stroke-width: 0.6"/>
      </g>
     </g>
    </g>
    <g id="xtick_35">
     <g id="line2d_37">
      <g>
       <use xlink:href="#m53dd014870" x="395.17863" y="291.28" style="stroke: #000000; stroke-width: 0.6"/>
      </g>
     </g>
    </g>
    <g id="xtick_36">
     <g id="line2d_38">
      <g>
       <use xlink:href="#m53dd014870" x="402.239477" y="291.28" style="stroke: #000000; stroke-width: 0.6"/>
      </g>
     </g>
    </g>
    <g id="xtick_37">
     <g id="line2d_39">
      <g>
       <use xlink:href="#m53dd014870" x="408.209338" y="291.28" style="stroke: #000000; stroke-width: 0.6"/>
      </g>
     </g>
    </g>
    <g id="xtick_38">
     <g id="line2d_40">
      <g>
       <use xlink:href="#m53dd014870" x="413.380667" y="291.28" style="stroke: #000000; stroke-width: 0.6"/>
      </g>
     </g>
    </g>
    <g id="xtick_39">
     <g id="line2d_41">
      <g>
       <use xlink:href="#m53dd014870" x="417.942102" y="291.28" style="stroke: #000000; stroke-width: 0.6"/>
      </g>
     </g>
    </g>
    <g id="xtick_40">
     <g id="line2d_42">
      <g>
       <use xlink:href="#m53dd014870" x="448.86626" y="291.28" style="stroke: #000000; stroke-width: 0.6"/>
      </g>
     </g>
    </g>
    <g id="text_3">
     <!-- log10 of FEvals ratio -->
     <g transform="translate(141.371312 336.833125) scale(0.2 -0.2)">
      <defs>
       <path id="DejaVuSans-6c" d="M 603 4863 
L 1178 4863 
L 1178 0 
L 603 0 
L 603 4863 
z
" transform="scale(0.015625)"/>
       <path id="DejaVuSans-6f" d="M 1959 3097 
Q 1497 3097 1228 2736 
Q 959 2375 959 1747 
Q 959 1119 1226 758 
Q 1494 397 1959 397 
Q 2419 397 2687 759 
Q 2956 1122 2956 1747 
Q 2956 2369 2687 2733 
Q 2419 3097 1959 3097 
z
M 1959 3584 
Q 2709 3584 3137 3096 
Q 3566 2609 3566 1747 
Q 3566 888 3137 398 
Q 2709 -91 1959 -91 
Q 1206 -91 779 398 
Q 353 888 353 1747 
Q 353 2609 779 3096 
Q 1206 3584 1959 3584 
z
" transform="scale(0.015625)"/>
       <path id="DejaVuSans-67" d="M 2906 1791 
Q 2906 2416 2648 2759 
Q 2391 3103 1925 3103 
Q 1463 3103 1205 2759 
Q 947 2416 947 1791 
Q 947 1169 1205 825 
Q 1463 481 1925 481 
Q 2391 481 2648 825 
Q 2906 1169 2906 1791 
z
M 3481 434 
Q 3481 -459 3084 -895 
Q 2688 -1331 1869 -1331 
Q 1566 -1331 1297 -1286 
Q 1028 -1241 775 -1147 
L 775 -588 
Q 1028 -725 1275 -790 
Q 1522 -856 1778 -856 
Q 2344 -856 2625 -561 
Q 2906 -266 2906 331 
L 2906 616 
Q 2728 306 2450 153 
Q 2172 0 1784 0 
Q 1141 0 747 490 
Q 353 981 353 1791 
Q 353 2603 747 3093 
Q 1141 3584 1784 3584 
Q 2172 3584 2450 3431 
Q 2728 3278 2906 2969 
L 2906 3500 
L 3481 3500 
L 3481 434 
z
" transform="scale(0.015625)"/>
       <path id="DejaVuSans-30" d="M 2034 4250 
Q 1547 4250 1301 3770 
Q 1056 3291 1056 2328 
Q 1056 1369 1301 889 
Q 1547 409 2034 409 
Q 2525 409 2770 889 
Q 3016 1369 3016 2328 
Q 3016 3291 2770 3770 
Q 2525 4250 2034 4250 
z
M 2034 4750 
Q 2819 4750 3233 4129 
Q 3647 3509 3647 2328 
Q 3647 1150 3233 529 
Q 2819 -91 2034 -91 
Q 1250 -91 836 529 
Q 422 1150 422 2328 
Q 422 3509 836 4129 
Q 1250 4750 2034 4750 
z
" transform="scale(0.015625)"/>
       <path id="DejaVuSans-20" transform="scale(0.015625)"/>
       <path id="DejaVuSans-66" d="M 2375 4863 
L 2375 4384 
L 1825 4384 
Q 1516 4384 1395 4259 
Q 1275 4134 1275 3809 
L 1275 3500 
L 2222 3500 
L 2222 3053 
L 1275 3053 
L 1275 0 
L 697 0 
L 697 3053 
L 147 3053 
L 147 3500 
L 697 3500 
L 697 3744 
Q 697 4328 969 4595 
Q 1241 4863 1831 4863 
L 2375 4863 
z
" transform="scale(0.015625)"/>
       <path id="DejaVuSans-46" d="M 628 4666 
L 3309 4666 
L 3309 4134 
L 1259 4134 
L 1259 2759 
L 3109 2759 
L 3109 2228 
L 1259 2228 
L 1259 0 
L 628 0 
L 628 4666 
z
" transform="scale(0.015625)"/>
       <path id="DejaVuSans-45" d="M 628 4666 
L 3578 4666 
L 3578 4134 
L 1259 4134 
L 1259 2753 
L 3481 2753 
L 3481 2222 
L 1259 2222 
L 1259 531 
L 3634 531 
L 3634 0 
L 628 0 
L 628 4666 
z
" transform="scale(0.015625)"/>
       <path id="DejaVuSans-76" d="M 191 3500 
L 800 3500 
L 1894 563 
L 2988 3500 
L 3597 3500 
L 2284 0 
L 1503 0 
L 191 3500 
z
" transform="scale(0.015625)"/>
       <path id="DejaVuSans-61" d="M 2194 1759 
Q 1497 1759 1228 1600 
Q 959 1441 959 1056 
Q 959 750 1161 570 
Q 1363 391 1709 391 
Q 2188 391 2477 730 
Q 2766 1069 2766 1631 
L 2766 1759 
L 2194 1759 
z
M 3341 1997 
L 3341 0 
L 2766 0 
L 2766 531 
Q 2569 213 2275 61 
Q 1981 -91 1556 -91 
Q 1019 -91 701 211 
Q 384 513 384 1019 
Q 384 1609 779 1909 
Q 1175 2209 1959 2209 
L 2766 2209 
L 2766 2266 
Q 2766 2663 2505 2880 
Q 2244 3097 1772 3097 
Q 1472 3097 1187 3025 
Q 903 2953 641 2809 
L 641 3341 
Q 956 3463 1253 3523 
Q 1550 3584 1831 3584 
Q 2591 3584 2966 3190 
Q 3341 2797 3341 1997 
z
" transform="scale(0.015625)"/>
       <path id="DejaVuSans-73" d="M 2834 3397 
L 2834 2853 
Q 2591 2978 2328 3040 
Q 2066 3103 1784 3103 
Q 1356 3103 1142 2972 
Q 928 2841 928 2578 
Q 928 2378 1081 2264 
Q 1234 2150 1697 2047 
L 1894 2003 
Q 2506 1872 2764 1633 
Q 3022 1394 3022 966 
Q 3022 478 2636 193 
Q 2250 -91 1575 -91 
Q 1294 -91 989 -36 
Q 684 19 347 128 
L 347 722 
Q 666 556 975 473 
Q 1284 391 1588 391 
Q 1994 391 2212 530 
Q 2431 669 2431 922 
Q 2431 1156 2273 1281 
Q 2116 1406 1581 1522 
L 1381 1569 
Q 847 1681 609 1914 
Q 372 2147 372 2553 
Q 372 3047 722 3315 
Q 1072 3584 1716 3584 
Q 2034 3584 2315 3537 
Q 2597 3491 2834 3397 
z
" transform="scale(0.015625)"/>
       <path id="DejaVuSans-72" d="M 2631 2963 
Q 2534 3019 2420 3045 
Q 2306 3072 2169 3072 
Q 1681 3072 1420 2755 
Q 1159 2438 1159 1844 
L 1159 0 
L 581 0 
L 581 3500 
L 1159 3500 
L 1159 2956 
Q 1341 3275 1631 3429 
Q 1922 3584 2338 3584 
Q 2397 3584 2469 3576 
Q 2541 3569 2628 3553 
L 2631 2963 
z
" transform="scale(0.015625)"/>
       <path id="DejaVuSans-74" d="M 1172 4494 
L 1172 3500 
L 2356 3500 
L 2356 3053 
L 1172 3053 
L 1172 1153 
Q 1172 725 1289 603 
Q 1406 481 1766 481 
L 2356 481 
L 2356 0 
L 1766 0 
Q 1100 0 847 248 
Q 594 497 594 1153 
L 594 3053 
L 172 3053 
L 172 3500 
L 594 3500 
L 594 4494 
L 1172 4494 
z
" transform="scale(0.015625)"/>
       <path id="DejaVuSans-69" d="M 603 3500 
L 1178 3500 
L 1178 0 
L 603 0 
L 603 3500 
z
M 603 4863 
L 1178 4863 
L 1178 4134 
L 603 4134 
L 603 4863 
z
" transform="scale(0.015625)"/>
      </defs>
      <use xlink:href="#DejaVuSans-6c"/>
      <use xlink:href="#DejaVuSans-6f" x="27.783203"/>
      <use xlink:href="#DejaVuSans-67" x="88.964844"/>
      <use xlink:href="#DejaVuSans-31" x="152.441406"/>
      <use xlink:href="#DejaVuSans-30" x="216.064453"/>
      <use xlink:href="#DejaVuSans-20" x="279.6875"/>
      <use xlink:href="#DejaVuSans-6f" x="311.474609"/>
      <use xlink:href="#DejaVuSans-66" x="372.65625"/>
      <use xlink:href="#DejaVuSans-20" x="407.861328"/>
      <use xlink:href="#DejaVuSans-46" x="439.648438"/>
      <use xlink:href="#DejaVuSans-45" x="497.167969"/>
      <use xlink:href="#DejaVuSans-76" x="560.351562"/>
      <use xlink:href="#DejaVuSans-61" x="619.53125"/>
      <use xlink:href="#DejaVuSans-6c" x="680.810547"/>
      <use xlink:href="#DejaVuSans-73" x="708.59375"/>
      <use xlink:href="#DejaVuSans-20" x="760.693359"/>
      <use xlink:href="#DejaVuSans-72" x="792.480469"/>
      <use xlink:href="#DejaVuSans-61" x="833.59375"/>
      <use xlink:href="#DejaVuSans-74" x="894.873047"/>
      <use xlink:href="#DejaVuSans-69" x="934.082031"/>
      <use xlink:href="#DejaVuSans-6f" x="961.865234"/>
     </g>
    </g>
   </g>
   <g id="matplotlib.axis_2">
    <g id="ytick_1">
     <g id="line2d_43">
      <path d="M 34.16 288.453725 
L 453.192 288.453725 
" clip-path="url(#pd1a92d6952)" style="fill: none; stroke: #b0b0b0; stroke-width: 0.8; stroke-linecap: square"/>
     </g>
     <g id="line2d_44">
      <defs>
       <path id="m450a3b2ca6" d="M 0 0 
L -3.5 0 
" style="stroke: #000000; stroke-width: 0.8"/>
      </defs>
      <g>
       <use xlink:href="#m450a3b2ca6" x="34.16" y="288.453725" style="stroke: #000000; stroke-width: 0.8"/>
      </g>
     </g>
    </g>
    <g id="ytick_2">
     <g id="line2d_45">
      <path d="M 34.16 217.796863 
L 453.192 217.796863 
" clip-path="url(#pd1a92d6952)" style="fill: none; stroke: #b0b0b0; stroke-width: 0.8; stroke-linecap: square"/>
     </g>
     <g id="line2d_46">
      <g>
       <use xlink:href="#m450a3b2ca6" x="34.16" y="217.796863" style="stroke: #000000; stroke-width: 0.8"/>
      </g>
     </g>
    </g>
    <g id="ytick_3">
     <g id="line2d_47">
      <path d="M 34.16 147.14 
L 453.192 147.14 
" clip-path="url(#pd1a92d6952)" style="fill: none; stroke: #b0b0b0; stroke-width: 0.8; stroke-linecap: square"/>
     </g>
     <g id="line2d_48">
      <g>
       <use xlink:href="#m450a3b2ca6" x="34.16" y="147.14" style="stroke: #000000; stroke-width: 0.8"/>
      </g>
     </g>
    </g>
    <g id="ytick_4">
     <g id="line2d_49">
      <path d="M 34.16 76.483137 
L 453.192 76.483137 
" clip-path="url(#pd1a92d6952)" style="fill: none; stroke: #b0b0b0; stroke-width: 0.8; stroke-linecap: square"/>
     </g>
     <g id="line2d_50">
      <g>
       <use xlink:href="#m450a3b2ca6" x="34.16" y="76.483137" style="stroke: #000000; stroke-width: 0.8"/>
      </g>
     </g>
    </g>
    <g id="ytick_5">
     <g id="line2d_51">
      <path d="M 34.16 5.826275 
L 453.192 5.826275 
" clip-path="url(#pd1a92d6952)" style="fill: none; stroke: #b0b0b0; stroke-width: 0.8; stroke-linecap: square"/>
     </g>
     <g id="line2d_52">
      <g>
       <use xlink:href="#m450a3b2ca6" x="34.16" y="5.826275" style="stroke: #000000; stroke-width: 0.8"/>
      </g>
     </g>
    </g>
    <g id="text_4">
     <!-- proportion of trials -->
     <g transform="translate(19.000625 240.14625) rotate(-90) scale(0.2 -0.2)">
      <defs>
       <path id="DejaVuSans-70" d="M 1159 525 
L 1159 -1331 
L 581 -1331 
L 581 3500 
L 1159 3500 
L 1159 2969 
Q 1341 3281 1617 3432 
Q 1894 3584 2278 3584 
Q 2916 3584 3314 3078 
Q 3713 2572 3713 1747 
Q 3713 922 3314 415 
Q 2916 -91 2278 -91 
Q 1894 -91 1617 61 
Q 1341 213 1159 525 
z
M 3116 1747 
Q 3116 2381 2855 2742 
Q 2594 3103 2138 3103 
Q 1681 3103 1420 2742 
Q 1159 2381 1159 1747 
Q 1159 1113 1420 752 
Q 1681 391 2138 391 
Q 2594 391 2855 752 
Q 3116 1113 3116 1747 
z
" transform="scale(0.015625)"/>
       <path id="DejaVuSans-6e" d="M 3513 2113 
L 3513 0 
L 2938 0 
L 2938 2094 
Q 2938 2591 2744 2837 
Q 2550 3084 2163 3084 
Q 1697 3084 1428 2787 
Q 1159 2491 1159 1978 
L 1159 0 
L 581 0 
L 581 3500 
L 1159 3500 
L 1159 2956 
Q 1366 3272 1645 3428 
Q 1925 3584 2291 3584 
Q 2894 3584 3203 3211 
Q 3513 2838 3513 2113 
z
" transform="scale(0.015625)"/>
      </defs>
      <use xlink:href="#DejaVuSans-70"/>
      <use xlink:href="#DejaVuSans-72" x="63.476562"/>
      <use xlink:href="#DejaVuSans-6f" x="102.339844"/>
      <use xlink:href="#DejaVuSans-70" x="163.521484"/>
      <use xlink:href="#DejaVuSans-6f" x="226.998047"/>
      <use xlink:href="#DejaVuSans-72" x="288.179688"/>
      <use xlink:href="#DejaVuSans-74" x="329.292969"/>
      <use xlink:href="#DejaVuSans-69" x="368.501953"/>
      <use xlink:href="#DejaVuSans-6f" x="396.285156"/>
      <use xlink:href="#DejaVuSans-6e" x="457.466797"/>
      <use xlink:href="#DejaVuSans-20" x="520.845703"/>
      <use xlink:href="#DejaVuSans-6f" x="552.632812"/>
      <use xlink:href="#DejaVuSans-66" x="613.814453"/>
      <use xlink:href="#DejaVuSans-20" x="649.019531"/>
      <use xlink:href="#DejaVuSans-74" x="680.806641"/>
      <use xlink:href="#DejaVuSans-72" x="720.015625"/>
      <use xlink:href="#DejaVuSans-69" x="761.128906"/>
      <use xlink:href="#DejaVuSans-61" x="788.912109"/>
      <use xlink:href="#DejaVuSans-6c" x="850.191406"/>
      <use xlink:href="#DejaVuSans-73" x="877.974609"/>
     </g>
    </g>
   </g>
   <g id="line2d_53">
    <path d="M 34.16 273.48771 
L 50.93985 273.48771 
L 50.93985 273.199902 
L 63.624894 273.199902 
L 63.624894 272.912094 
L 68.558711 272.912094 
L 68.558711 272.624286 
L 81.421404 272.624286 
L 81.421404 272.336478 
L 86.760748 272.336478 
L 86.760748 272.04867 
L 88.835928 272.04867 
L 88.835928 271.760862 
L 89.553124 271.760862 
L 89.553124 271.473054 
L 98.014354 271.473054 
L 98.014354 271.185246 
L 103.314559 271.185246 
L 103.314559 270.897438 
L 120.598116 270.897438 
L 120.598116 270.60963 
L 123.967844 270.60963 
L 123.967844 270.321822 
L 126.299966 270.321822 
L 126.299966 270.034014 
L 128.971883 270.034014 
L 128.971883 269.746206 
L 130.0089 269.746206 
L 130.0089 269.458398 
L 130.207556 269.458398 
L 130.207556 269.17059 
L 131.49927 269.17059 
L 131.49927 268.882782 
L 132.507006 268.882782 
L 132.507006 268.594974 
L 132.911424 268.594974 
L 132.911424 268.307166 
L 133.11008 268.307166 
L 133.11008 268.019358 
L 133.351568 268.019358 
L 133.351568 267.73155 
L 133.569696 267.73155 
L 133.569696 267.443742 
L 133.768352 267.443742 
L 133.768352 267.155934 
L 135.40953 267.155934 
L 135.40953 266.868126 
L 135.957228 266.868126 
L 136.067802 266.29251 
L 136.923213 266.29251 
L 136.923213 266.004702 
L 137.640148 266.004702 
L 137.640148 265.429086 
L 137.838804 265.429086 
L 137.838804 264.85347 
L 138.223324 264.85347 
L 138.223324 264.565662 
L 138.42198 264.565662 
L 138.42198 264.277854 
L 138.985009 264.277854 
L 138.985009 263.990046 
L 140.138254 263.990046 
L 140.138254 263.41443 
L 140.72143 263.41443 
L 140.72143 263.126622 
L 141.144668 263.126622 
L 141.144668 262.838814 
L 141.343324 262.838814 
L 141.343324 262.551006 
L 141.656926 262.551006 
L 141.656926 262.263198 
L 142.424502 262.263198 
L 142.424502 261.97539 
L 142.623158 261.97539 
L 142.623158 261.687582 
L 143.20826 261.687582 
L 143.20826 261.399774 
L 143.642774 261.399774 
L 143.642774 261.111966 
L 143.918827 261.111966 
L 143.918827 260.824158 
L 144.342082 260.824158 
L 144.342082 260.53635 
L 144.745484 260.53635 
L 144.745484 260.248542 
L 144.922608 260.248542 
L 144.94414 259.672926 
L 145.552182 259.672926 
L 145.624692 259.09731 
L 145.750838 259.09731 
L 145.823348 258.521694 
L 146.298591 258.521694 
L 146.298591 258.233886 
L 146.590744 258.233886 
L 146.590744 257.946078 
L 147.24359 257.946078 
L 147.24359 257.65827 
L 148.050288 257.65827 
L 148.122798 257.082654 
L 148.540212 257.082654 
L 148.540212 256.794846 
L 148.738868 256.794846 
L 148.754851 256.21923 
L 148.927957 256.21923 
L 148.927957 255.931422 
L 149.126613 255.931422 
L 149.126613 255.643614 
L 149.351357 255.643614 
L 149.351357 255.355806 
L 149.550013 255.355806 
L 149.550013 255.067998 
L 149.988556 255.067998 
L 149.988556 254.78019 
L 151.038318 254.78019 
L 151.038318 254.492382 
L 151.426064 254.492382 
L 151.426064 254.204574 
L 151.849463 254.204574 
L 151.849463 253.916766 
L 152.088514 253.916766 
L 152.088514 253.628958 
L 152.899759 253.628958 
L 152.899759 253.34115 
L 154.502777 253.34115 
L 154.502777 252.765534 
L 155.286614 252.765534 
L 155.286614 252.477726 
L 156.25075 252.477726 
L 156.25075 252.189918 
L 156.781519 252.189918 
L 156.781519 251.90211 
L 158.961261 251.90211 
L 158.961261 251.614302 
L 159.453436 251.614302 
L 159.453436 251.326494 
L 159.695667 251.326494 
L 159.695667 251.038686 
L 160.714986 251.038686 
L 160.714986 250.750878 
L 161.439894 250.750878 
L 161.439894 250.46307 
L 161.785559 250.46307 
L 161.785559 250.175262 
L 162.120863 250.175262 
L 162.120863 249.887454 
L 164.196044 249.887454 
L 164.196044 249.599646 
L 164.79278 249.599646 
L 164.79278 249.311838 
L 164.913239 249.311838 
L 164.913239 249.02403 
L 166.373712 249.02403 
L 166.373712 248.736222 
L 166.867961 248.736222 
L 166.867961 248.448414 
L 167.187821 248.448414 
L 167.187821 248.160606 
L 167.585156 248.160606 
L 167.585156 247.872798 
L 171.518323 247.872798 
L 171.518323 247.297182 
L 172.121638 247.297182 
L 172.121638 247.009374 
L 172.369509 247.009374 
L 172.369509 246.721566 
L 173.374469 246.721566 
L 173.374469 246.433758 
L 174.470602 246.433758 
L 174.470602 246.14595 
L 176.046387 246.14595 
L 176.046387 245.858142 
L 177.655473 245.858142 
L 177.655473 245.570334 
L 178.674675 245.570334 
L 178.674675 245.282526 
L 179.236404 245.282526 
L 179.236404 244.994718 
L 179.40442 244.994718 
L 179.40442 244.70691 
L 181.346592 244.70691 
L 181.346592 244.419102 
L 183.29965 244.419102 
L 183.29965 244.131294 
L 184.203366 244.131294 
L 184.203366 243.555678 
L 184.575748 243.555678 
L 184.575748 243.26787 
L 184.984331 243.26787 
L 185.054553 242.692254 
L 186.650929 242.692254 
L 186.650929 242.404446 
L 187.368124 242.404446 
L 187.368124 242.116638 
L 189.137184 242.116638 
L 189.137184 241.541022 
L 189.98837 241.541022 
L 189.98837 241.253214 
L 190.323675 241.253214 
L 190.323675 240.965406 
L 191.301291 240.965406 
L 191.301291 240.677598 
L 192.267112 240.677598 
L 192.267112 240.38979 
L 192.398856 240.38979 
L 192.398856 240.101982 
L 193.116051 240.101982 
L 193.116051 239.814174 
L 195.829355 239.814174 
L 195.829355 239.526366 
L 195.958231 239.526366 
L 195.984694 238.95075 
L 197.606456 238.95075 
L 197.606456 238.662942 
L 198.630149 238.662942 
L 198.630149 238.375134 
L 199.327959 238.375134 
L 199.327959 238.087326 
L 199.681637 238.087326 
L 199.681637 237.799518 
L 200.398832 237.799518 
L 200.398832 237.51171 
L 200.918511 237.51171 
L 200.918511 237.223902 
L 201.12956 237.223902 
L 201.12956 236.936094 
L 201.577281 236.936094 
L 201.577281 236.648286 
L 201.999876 236.648286 
L 201.999876 235.784862 
L 202.851063 235.784862 
L 202.852693 235.209246 
L 203.986334 235.209246 
L 203.986334 234.921438 
L 204.639622 234.921438 
L 204.639622 234.63363 
L 204.946578 234.63363 
L 204.946578 234.345822 
L 206.501591 234.345822 
L 206.51584 233.770206 
L 206.837346 233.770206 
L 206.877487 233.19459 
L 207.33922 233.19459 
L 207.414128 232.331166 
L 208.190407 232.331166 
L 208.190407 232.043358 
L 208.353889 232.043358 
L 208.368138 231.467743 
L 208.624275 231.467743 
L 208.624275 231.179935 
L 208.860062 231.179935 
L 208.931231 230.316511 
L 209.414401 230.316511 
L 209.414401 229.740895 
L 210.131596 229.740895 
L 210.131596 229.165279 
L 210.265588 229.165279 
L 210.265588 228.877471 
L 210.959549 228.877471 
L 210.982783 228.014047 
L 211.398781 228.014047 
L 211.398781 227.726239 
L 211.635288 227.726239 
L 211.635288 227.438431 
L 211.925534 227.438431 
L 212.002739 226.575007 
L 213.487586 226.575007 
L 213.487586 226.287199 
L 213.781204 226.287199 
L 213.781204 225.999391 
L 214.160268 225.999391 
L 214.160268 225.711583 
L 214.372614 225.711583 
L 214.372614 225.423775 
L 214.896105 225.423775 
L 214.896105 225.135967 
L 216.093246 225.135967 
L 216.093246 224.848159 
L 216.832185 224.848159 
L 216.832185 224.560351 
L 217.059231 224.560351 
L 217.059231 224.272543 
L 217.685002 224.272543 
L 217.757551 223.409119 
L 218.210581 223.409119 
L 218.22483 222.833503 
L 218.402432 222.833503 
L 218.413116 222.257887 
L 218.592826 222.257887 
L 218.658059 221.394463 
L 218.885273 221.394463 
L 218.885273 221.106655 
L 219.120548 221.106655 
L 219.120548 220.818847 
L 219.444013 220.818847 
L 219.546568 219.667615 
L 219.702197 219.667615 
L 219.796386 219.091999 
L 219.851436 219.091999 
L 219.851436 218.804191 
L 220.026278 218.804191 
L 220.032838 218.228575 
L 220.194029 218.228575 
L 220.194029 217.940767 
L 220.614852 217.940767 
L 220.644517 217.365151 
L 220.737571 217.365151 
L 220.737571 217.077343 
L 221.195728 217.077343 
L 221.300911 216.213919 
L 221.31516 216.213919 
L 221.39362 215.638303 
L 221.669655 215.638303 
L 221.758403 215.062687 
L 221.782844 215.062687 
L 221.813207 213.911455 
L 221.912923 213.911455 
L 221.912923 213.623647 
L 222.120163 213.623647 
L 222.120163 213.335839 
L 222.263937 213.335839 
L 222.374114 212.472415 
L 222.401781 212.472415 
L 222.45844 211.896799 
L 222.68568 211.896799 
L 222.708737 211.321183 
L 223.075827 211.321183 
L 223.180549 210.169951 
L 223.34323 210.169951 
L 223.344278 209.594335 
L 223.487505 209.594335 
L 223.545332 208.730911 
L 223.717681 208.730911 
L 223.754825 208.155295 
L 223.852288 208.155295 
L 223.893032 207.291871 
L 224.017491 207.291871 
L 224.017491 207.004063 
L 224.161043 207.004063 
L 224.163558 206.428447 
L 224.309215 206.428447 
L 224.309215 206.140639 
L 224.472609 206.140639 
L 224.472609 205.852831 
L 224.587713 205.852831 
L 224.687782 205.277215 
L 224.744219 205.277215 
L 224.821831 204.413791 
L 224.928125 204.413791 
L 225.005125 203.550367 
L 225.176287 203.550367 
L 225.205952 202.974751 
L 225.360964 202.974751 
L 225.360964 202.686943 
L 225.771996 202.686943 
L 225.771996 202.399135 
L 225.955056 202.399135 
L 226.019236 201.823519 
L 226.319838 201.823519 
L 226.319838 201.535711 
L 226.434609 201.535711 
L 226.434609 201.247903 
L 226.992881 201.247903 
L 227.090835 200.672287 
L 227.105083 200.672287 
L 227.133267 199.808863 
L 227.247116 199.808863 
L 227.299837 199.233247 
L 227.530771 199.233247 
L 227.533785 198.657631 
L 227.687562 198.657631 
L 227.750803 197.794207 
L 227.825278 197.794207 
L 227.916328 196.355167 
L 227.973375 196.355167 
L 228.048283 195.779551 
L 228.408453 195.779551 
L 228.49977 195.203935 
L 228.674117 195.203935 
L 228.674117 194.916127 
L 228.892283 194.916127 
L 228.892283 194.340511 
L 229.197369 194.340511 
L 229.220926 193.764895 
L 229.474491 193.764895 
L 229.475458 193.189279 
L 229.603101 193.189279 
L 229.6216 192.613663 
L 229.760304 192.613663 
L 229.862893 191.462431 
L 229.914564 191.462431 
L 229.914564 191.174623 
L 230.06726 191.174623 
L 230.124574 190.023391 
L 230.288935 190.023391 
L 230.374154 189.159967 
L 230.526415 189.159967 
L 230.594263 188.584351 
L 230.672864 188.584351 
L 230.731609 188.008735 
L 230.876501 188.008735 
L 230.966374 187.433119 
L 231.073224 187.433119 
L 231.087475 186.857503 
L 231.253071 186.857503 
L 231.343103 185.706271 
L 231.389882 185.706271 
L 231.448087 184.842847 
L 232.032936 184.842847 
L 232.039265 184.267231 
L 232.208761 184.267231 
L 232.248998 183.403807 
L 232.396802 183.403807 
L 232.396802 183.115999 
L 232.53481 183.115999 
L 232.609631 181.676959 
L 232.66343 181.676959 
L 232.66343 181.389151 
L 232.913326 181.389151 
L 232.970386 180.813535 
L 233.035777 180.813535 
L 233.132075 180.237919 
L 233.174746 180.237919 
L 233.174746 179.950111 
L 233.300385 179.950111 
L 233.329561 179.374495 
L 233.594208 179.374495 
L 233.684593 177.935455 
L 233.963582 177.935455 
L 233.97783 177.359839 
L 234.098059 177.359839 
L 234.098059 177.072031 
L 234.28688 177.072031 
L 234.396376 176.496415 
L 234.451426 176.496415 
L 234.451426 176.208607 
L 234.644869 176.208607 
L 234.712237 175.345183 
L 234.765624 175.345183 
L 234.874042 173.906144 
L 234.882647 173.906144 
L 234.951026 172.179296 
L 235.077614 172.179296 
L 235.077614 171.891488 
L 235.422632 171.891488 
L 235.460334 170.452448 
L 235.600061 170.452448 
L 235.674359 169.876832 
L 235.717307 169.876832 
L 235.809821 168.7256 
L 235.906045 168.7256 
L 235.997618 168.149984 
L 236.021292 168.149984 
L 236.043509 167.574368 
L 236.225929 167.574368 
L 236.27692 166.998752 
L 236.386768 166.998752 
L 236.487476 166.135328 
L 236.514693 166.135328 
L 236.590712 165.559712 
L 236.637151 165.559712 
L 236.720153 164.696288 
L 236.799906 164.696288 
L 236.876826 163.545056 
L 236.936235 163.545056 
L 236.936235 163.257248 
L 237.172965 163.257248 
L 237.206423 162.106016 
L 237.308727 162.106016 
L 237.374558 161.242592 
L 237.517989 161.242592 
L 237.517989 160.954784 
L 237.641383 160.954784 
L 237.641383 160.666976 
L 237.794997 160.666976 
L 237.875148 159.515744 
L 237.980138 159.515744 
L 238.087495 157.788896 
L 238.263378 157.788896 
L 238.337269 156.925472 
L 238.375794 156.925472 
L 238.482426 156.062048 
L 238.567489 156.062048 
L 238.638411 154.910816 
L 238.725341 154.910816 
L 238.725341 154.623008 
L 238.938548 154.623008 
L 239.011833 153.471776 
L 239.097279 153.471776 
L 239.113087 152.89616 
L 239.379555 152.89616 
L 239.474516 152.032736 
L 239.535325 152.032736 
L 239.549502 151.169312 
L 239.670513 151.169312 
L 239.70243 150.305888 
L 239.792346 150.305888 
L 239.865825 149.442464 
L 240.038261 149.442464 
L 240.038261 149.154656 
L 240.180092 149.154656 
L 240.285761 148.003424 
L 240.293625 148.003424 
L 240.383107 146.564384 
L 240.472129 146.564384 
L 240.472129 146.276576 
L 240.603491 146.276576 
L 240.693053 145.413152 
L 240.756931 145.413152 
L 240.851004 144.837536 
L 240.878291 144.837536 
L 240.929916 143.398496 
L 240.989752 143.398496 
L 240.989752 143.110688 
L 241.127494 143.110688 
L 241.176588 142.247264 
L 241.243417 142.247264 
L 241.243417 141.671648 
L 241.377498 141.671648 
L 241.47984 141.096032 
L 241.565113 141.096032 
L 241.650986 140.232608 
L 241.689542 140.232608 
L 241.689542 139.9448 
L 241.800897 139.9448 
L 241.899827 138.793568 
L 241.918129 138.793568 
L 242.027775 137.930144 
L 242.054324 137.930144 
L 242.157082 137.354528 
L 242.258609 137.354528 
L 242.282378 136.778912 
L 242.386098 136.778912 
L 242.484292 136.203296 
L 242.501304 136.203296 
L 242.565669 134.476448 
L 242.623391 134.476448 
L 242.708863 133.325216 
L 242.750321 133.325216 
L 242.805869 132.461792 
L 242.898091 132.461792 
L 242.981602 131.31056 
L 243.136054 131.31056 
L 243.19615 130.159328 
L 243.292038 130.159328 
L 243.372367 129.295904 
L 243.444877 129.295904 
L 243.555479 128.144672 
L 243.564554 128.144672 
L 243.665071 127.281248 
L 243.676 127.281248 
L 243.783726 126.705632 
L 243.854422 126.705632 
L 243.854422 126.417824 
L 244.020246 126.417824 
L 244.020246 126.130016 
L 244.140602 126.130016 
L 244.213751 125.5544 
L 244.381437 125.5544 
L 244.476316 124.11536 
L 244.546316 124.11536 
L 244.622316 123.251936 
L 244.66725 123.251936 
L 244.747937 122.388512 
L 244.867708 122.388512 
L 244.867708 122.100704 
L 245.014331 122.100704 
L 245.014331 121.812896 
L 245.141537 121.812896 
L 245.248427 120.661664 
L 245.397503 120.661664 
L 245.501874 119.222624 
L 245.570655 119.222624 
L 245.570655 118.934817 
L 245.70881 118.934817 
L 245.816182 118.071393 
L 245.871232 118.071393 
L 245.877611 117.495777 
L 246.027771 117.495777 
L 246.07094 116.632353 
L 246.213382 116.632353 
L 246.247408 115.768929 
L 246.347263 115.768929 
L 246.451691 114.905505 
L 246.58921 114.905505 
L 246.622212 114.329889 
L 246.702482 114.329889 
L 246.775849 113.466465 
L 246.863171 113.466465 
L 246.953993 112.603041 
L 247.08167 112.603041 
L 247.171542 111.739617 
L 247.337231 111.739617 
L 247.337231 111.451809 
L 247.493216 111.451809 
L 247.582547 110.588385 
L 247.655057 110.588385 
L 247.712646 109.724961 
L 247.823636 109.724961 
L 247.924874 107.710305 
L 247.935675 107.710305 
L 248.022512 106.846881 
L 248.056647 106.846881 
L 248.139959 105.695649 
L 248.269297 105.695649 
L 248.348753 103.680993 
L 248.50805 103.680993 
L 248.55255 103.105377 
L 248.728533 103.105377 
L 248.838363 102.529761 
L 248.867379 102.529761 
L 248.883985 101.954145 
L 248.988497 101.954145 
L 249.023464 101.378529 
L 249.139613 101.378529 
L 249.227961 99.939489 
L 249.26336 99.939489 
L 249.26336 99.651681 
L 249.507301 99.651681 
L 249.507301 99.363873 
L 249.658214 99.363873 
L 249.658214 99.076065 
L 249.810169 99.076065 
L 249.902672 97.061409 
L 249.937373 97.061409 
L 249.937373 96.773601 
L 250.074606 96.773601 
L 250.074606 96.485793 
L 250.401542 96.485793 
L 250.464912 95.910177 
L 250.537422 95.910177 
L 250.621415 94.183329 
L 250.693406 94.183329 
L 250.799361 93.607713 
L 250.909649 93.607713 
L 250.958322 93.032097 
L 251.126071 93.032097 
L 251.219653 92.168673 
L 251.272224 92.168673 
L 251.381722 91.017441 
L 251.392334 91.017441 
L 251.429394 90.154017 
L 251.536491 90.154017 
L 251.538147 89.578401 
L 251.74149 89.578401 
L 251.841093 88.427169 
L 251.875633 88.427169 
L 251.875633 88.139361 
L 252.037331 88.139361 
L 252.143481 87.563745 
L 252.291543 87.563745 
L 252.343189 86.700321 
L 252.415698 86.700321 
L 252.502283 85.836897 
L 252.531227 85.836897 
L 252.531227 85.549089 
L 252.709227 85.549089 
L 252.818192 84.973473 
L 252.848576 84.973473 
L 252.957916 83.822241 
L 253.00827 83.822241 
L 253.068557 82.958817 
L 253.168965 82.958817 
L 253.219239 82.095393 
L 253.319633 82.095393 
L 253.425597 81.519777 
L 253.452942 81.519777 
L 253.502569 80.944161 
L 253.608926 80.944161 
L 253.661061 80.080737 
L 253.840687 80.080737 
L 253.840687 79.792929 
L 253.972406 79.792929 
L 253.996672 79.217313 
L 254.10982 79.217313 
L 254.10982 78.929505 
L 254.223329 78.929505 
L 254.313815 77.778273 
L 254.420071 77.778273 
L 254.478957 77.202657 
L 254.698394 77.202657 
L 254.698394 76.914849 
L 254.909618 76.914849 
L 254.909618 76.627041 
L 255.028403 76.627041 
L 255.03021 76.051425 
L 255.18779 76.051425 
L 255.273544 74.900193 
L 255.331219 74.900193 
L 255.393186 74.036769 
L 255.477162 74.036769 
L 255.477162 73.748961 
L 255.60674 73.748961 
L 255.687506 72.885537 
L 255.718964 72.885537 
L 255.824899 72.022113 
L 255.836908 72.022113 
L 255.9472 70.870881 
L 256.072091 70.870881 
L 256.142364 69.719649 
L 256.196237 69.719649 
L 256.29851 68.568417 
L 256.320463 68.568417 
L 256.327643 67.992801 
L 256.465415 67.992801 
L 256.554137 67.417185 
L 256.682917 67.417185 
L 256.790884 66.265953 
L 256.870514 66.265953 
L 256.966518 65.690337 
L 257.009576 65.690337 
L 257.015705 65.114721 
L 257.271333 65.114721 
L 257.271333 64.826913 
L 257.417323 64.826913 
L 257.417323 64.539105 
L 257.664806 64.539105 
L 257.664806 64.251297 
L 257.820822 64.251297 
L 257.930516 63.387873 
L 258.065705 63.387873 
L 258.160681 62.812257 
L 258.186918 62.812257 
L 258.186918 62.52445 
L 258.363874 62.52445 
L 258.436642 61.948834 
L 258.51909 61.948834 
L 258.616035 61.08541 
L 258.824938 61.08541 
L 258.910078 60.221986 
L 258.990182 60.221986 
L 259.077243 59.64637 
L 259.184267 59.64637 
L 259.289494 58.495138 
L 259.297859 58.495138 
L 259.297859 58.20733 
L 259.572013 58.20733 
L 259.662641 57.056098 
L 259.995412 57.056098 
L 260.048484 56.480482 
L 260.207677 56.480482 
L 260.207677 56.192674 
L 260.375317 56.192674 
L 260.477601 55.617058 
L 260.534754 55.617058 
L 260.589919 55.041442 
L 260.663803 55.041442 
L 260.663803 54.753634 
L 260.959556 54.753634 
L 260.963871 54.178018 
L 261.109723 54.178018 
L 261.171813 53.602402 
L 261.251011 53.602402 
L 261.322345 53.026786 
L 261.608158 53.026786 
L 261.608158 52.738978 
L 261.771104 52.738978 
L 261.771104 52.45117 
L 262.053839 52.45117 
L 262.129041 51.587746 
L 262.289258 51.587746 
L 262.289258 51.299938 
L 262.718376 51.299938 
L 262.718376 51.01213 
L 263.075931 51.01213 
L 263.110191 50.436514 
L 263.65053 50.436514 
L 263.65053 50.148706 
L 263.882323 50.148706 
L 263.882323 49.860898 
L 264.079648 49.860898 
L 264.153798 49.285282 
L 264.219597 49.285282 
L 264.329284 48.709666 
L 264.377448 48.709666 
L 264.377448 48.421858 
L 264.511284 48.421858 
L 264.61673 47.846242 
L 264.648714 47.846242 
L 264.648714 47.558434 
L 264.920554 47.558434 
L 264.965043 46.119394 
L 265.348486 46.119394 
L 265.348486 45.831586 
L 265.476935 45.831586 
L 265.476935 45.543778 
L 265.591801 45.543778 
L 265.636048 44.968162 
L 265.732563 44.968162 
L 265.771741 44.392546 
L 265.877613 44.392546 
L 265.877613 44.104738 
L 266.166261 44.104738 
L 266.166261 43.81693 
L 267.040934 43.81693 
L 267.040934 43.529122 
L 267.351898 43.529122 
L 267.351898 43.241314 
L 267.719021 43.241314 
L 267.719021 42.953506 
L 267.852179 42.953506 
L 267.852179 42.665698 
L 268.316034 42.665698 
L 268.316034 42.37789 
L 268.550199 42.37789 
L 268.550199 42.090082 
L 268.78074 42.090082 
L 268.78074 41.802274 
L 268.979316 41.802274 
L 268.979316 41.514466 
L 269.856227 41.514466 
L 269.856227 41.226658 
L 270.239035 41.226658 
L 270.239035 40.93885 
L 270.777141 40.93885 
L 270.777141 40.651042 
L 271.026545 40.651042 
L 271.032769 40.075426 
L 271.203171 40.075426 
L 271.203171 39.787618 
L 271.468289 39.787618 
L 271.468289 39.49981 
L 271.760951 39.49981 
L 271.760951 39.212002 
L 271.897407 39.212002 
L 271.956185 38.636386 
L 272.76743 38.636386 
L 272.78027 38.06077 
L 273.019226 38.06077 
L 273.019226 37.772962 
L 273.913681 37.772962 
L 273.913681 37.485154 
L 274.648088 37.485154 
L 274.648088 37.197346 
L 275.08125 37.197346 
L 275.154285 36.333922 
L 275.470474 36.333922 
L 275.470474 36.046114 
L 275.667406 36.046114 
L 275.667406 35.758306 
L 275.932437 35.758306 
L 275.932437 35.470498 
L 276.118421 35.470498 
L 276.118421 35.18269 
L 276.701881 35.18269 
L 276.701881 34.894882 
L 276.989392 34.894882 
L 276.989392 34.607074 
L 277.418509 34.607074 
L 277.43815 34.031458 
L 277.867268 34.031458 
L 277.867268 33.74365 
L 278.828932 33.74365 
L 278.828932 33.455842 
L 279.563338 33.455842 
L 279.563338 33.168034 
L 280.582657 33.168034 
L 280.582657 32.880226 
L 281.2184 32.880226 
L 281.258847 32.30461 
L 281.661005 32.30461 
L 281.687964 31.728994 
L 284.703522 31.728994 
L 284.703522 31.441186 
L 285.030732 31.441186 
L 285.030732 31.153378 
L 286.862577 31.153378 
L 286.862577 30.86557 
L 288.060697 30.86557 
L 288.060697 30.577762 
L 288.316325 30.577762 
L 288.316325 30.289954 
L 288.501182 30.289954 
L 288.501182 30.002146 
L 290.302783 30.002146 
L 290.302783 29.714338 
L 291.430425 29.714338 
L 291.430425 29.42653 
L 291.686053 29.42653 
L 291.686053 29.138722 
L 292.192301 29.138722 
L 292.192301 28.850914 
L 293.67251 28.850914 
L 293.67251 28.563106 
L 294.864218 28.563106 
L 294.864218 27.98749 
L 298.233946 27.98749 
L 298.233946 27.411874 
L 299.085133 27.411874 
L 299.085133 27.124066 
L 305.40497 27.124066 
L 305.40497 26.836258 
L 310.015273 26.836258 
L 310.015273 26.54845 
L 311.804663 26.54845 
L 311.804663 26.260642 
L 312.060291 26.260642 
L 312.060291 25.972834 
L 312.643704 25.972834 
L 312.657953 25.397218 
L 314.046748 25.397218 
L 314.046748 25.10941 
L 314.647186 25.10941 
L 314.647186 24.821602 
L 315.565666 24.821602 
L 315.565666 24.533794 
L 317.777401 24.533794 
L 317.777401 24.245986 
L 318.016914 24.245986 
L 318.016914 23.958178 
L 320.395113 23.958178 
L 320.395113 23.67037 
L 321.965359 23.67037 
L 321.965359 23.382562 
L 322.220986 23.382562 
L 322.220986 23.094754 
L 324.207444 23.094754 
L 324.207444 22.806946 
L 325.027386 22.806946 
L 325.027386 22.519138 
L 327.677894 22.519138 
L 327.677894 22.23133 
L 329.21794 22.23133 
L 329.21794 21.943522 
L 332.93545 21.943522 
L 332.93545 21.655714 
L 333.892916 21.655714 
L 334.002455 21.080098 
L 334.81623 21.080098 
L 334.81623 20.79229 
L 335.199861 20.79229 
L 335.199861 20.504482 
L 335.363039 20.504482 
L 335.363039 20.216674 
L 337.410658 20.216674 
L 337.410658 19.641058 
L 337.5902 19.641058 
L 337.5902 19.35325 
L 338.261845 19.35325 
L 338.261845 19.065442 
L 338.718362 19.065442 
L 338.718362 18.777634 
L 339.055439 18.777634 
L 339.055439 18.489826 
L 340.570506 18.489826 
L 340.570506 18.202018 
L 342.562446 18.202018 
L 342.562446 17.91421 
L 344.780686 17.91421 
L 344.780686 17.626402 
L 345.118055 17.626402 
L 345.118055 17.338594 
L 345.373682 17.338594 
L 345.373682 17.050786 
L 346.35359 17.050786 
L 346.35359 16.762978 
L 347.028301 16.762978 
L 347.028301 16.47517 
L 347.36014 16.47517 
L 347.36014 16.187362 
L 347.663051 16.187362 
L 347.663051 15.899554 
L 347.819035 15.899554 
L 347.819035 15.611746 
L 349.191985 15.611746 
L 349.191985 15.323938 
L 349.541328 15.323938 
L 349.541328 15.03613 
L 349.706667 15.03613 
L 349.706667 14.748322 
L 352.593804 14.748322 
L 352.593804 14.460514 
L 353.035047 14.460514 
L 353.035047 14.172706 
L 353.394376 14.172706 
L 353.394376 13.884898 
L 357.193626 13.884898 
L 357.193626 13.59709 
L 357.509054 13.59709 
L 357.509054 13.309282 
L 377.895074 13.309282 
L 377.895074 13.021474 
L 384.294767 13.021474 
L 384.294767 12.733666 
L 384.550394 12.733666 
L 384.550394 12.445858 
L 386.536852 12.445858 
L 386.536852 12.15805 
L 453.192 12.15805 
L 453.192 12.15805 
" clip-path="url(#pd1a92d6952)" style="fill: none; stroke: #000000; stroke-width: 3; stroke-linecap: square"/>
   </g>
   <g id="line2d_54">
    <path clip-path="url(#pd1a92d6952)" style="fill: none; stroke: #000000; stroke-width: 3; stroke-linecap: square"/>
   </g>
   <g id="line2d_55">
    <path d="M 34.16 288.453725 
L 139.440056 288.453725 
L 139.440056 288.035018 
L 141.505326 288.035018 
L 141.518431 287.197603 
L 143.583701 287.197603 
L 143.583701 286.778896 
L 146.298762 286.778896 
L 146.298762 286.360189 
L 148.377137 286.360189 
L 148.377137 285.941481 
L 149.980535 285.941481 
L 149.980535 285.522774 
L 152.058909 285.522774 
L 152.058909 285.104067 
L 155.218577 285.104067 
L 155.218577 284.685359 
L 155.82045 284.685359 
L 155.82045 284.266652 
L 156.390485 284.266652 
L 156.390485 283.847945 
L 157.296952 283.847945 
L 157.373808 283.01053 
L 157.898825 283.01053 
L 157.898825 282.591823 
L 158.46886 282.591823 
L 158.46886 282.173115 
L 159.452183 282.173115 
L 159.480211 281.335701 
L 159.875833 281.335701 
L 159.875833 280.916993 
L 160.046237 280.916993 
L 160.058175 280.079579 
L 160.236766 280.079579 
L 160.236766 279.660871 
L 161.088486 279.660871 
L 161.088486 279.242164 
L 161.671035 279.242164 
L 161.684083 278.404749 
L 162.079705 278.404749 
L 162.079705 277.986042 
L 162.250109 277.986042 
L 162.262047 277.148627 
L 162.440638 277.148627 
L 162.53861 276.311213 
L 162.950095 276.311213 
L 162.950095 275.892505 
L 163.089889 275.892505 
L 163.089889 275.473798 
L 163.292358 275.473798 
L 163.292358 275.055091 
L 163.826889 275.055091 
L 163.874908 274.217676 
L 164.416261 274.217676 
L 164.463787 273.380261 
L 164.742482 273.380261 
L 164.742482 272.961554 
L 165.153967 272.961554 
L 165.153967 272.542847 
L 165.293761 272.542847 
L 165.293761 272.124139 
L 166.030761 272.124139 
L 166.030761 271.705432 
L 166.156065 271.705432 
L 166.156065 271.286725 
L 166.494636 271.286725 
L 166.494636 270.868017 
L 166.66766 270.868017 
L 166.66766 270.44931 
L 167.466546 270.44931 
L 167.466546 270.030603 
L 167.939765 270.030603 
L 167.939765 269.611895 
L 168.359937 269.611895 
L 168.359937 269.193188 
L 169.544921 269.193188 
L 169.544921 268.774481 
L 170.01814 268.774481 
L 170.01814 268.355773 
L 217.584542 268.355773 
L 217.584542 267.937066 
L 219.649812 267.937066 
L 219.649812 267.518359 
L 224.026502 267.518359 
L 224.026502 267.099651 
L 224.443248 267.099651 
L 224.443248 266.680944 
L 226.091773 266.680944 
L 226.091773 266.262237 
L 227.032347 266.262237 
L 227.032347 265.843529 
L 227.52599 265.843529 
L 227.52599 265.424822 
L 228.12502 265.424822 
L 228.12502 265.006115 
L 228.307917 265.006115 
L 228.307917 264.587407 
L 229.097618 264.587407 
L 229.097618 264.1687 
L 229.59126 264.1687 
L 229.59126 263.749993 
L 230.373187 263.749993 
L 230.465385 262.912578 
L 230.665334 262.912578 
L 230.665334 262.493871 
L 230.885209 262.493871 
L 230.885209 262.075163 
L 231.514015 262.075163 
L 231.590931 261.237749 
L 231.938958 261.237749 
L 231.938958 260.819041 
L 232.530655 260.819041 
L 232.530655 260.400334 
L 232.730604 260.400334 
L 232.730604 259.981627 
L 233.363063 259.981627 
L 233.363063 259.562919 
L 233.579285 259.562919 
L 233.656201 258.725505 
L 233.891054 258.725505 
L 233.964936 257.88809 
L 234.004228 257.88809 
L 234.004228 257.469383 
L 234.384696 257.469383 
L 234.384696 257.050675 
L 234.53497 257.050675 
L 234.566981 256.213261 
L 235.166623 256.213261 
L 235.166623 255.794553 
L 235.518293 255.794553 
L 235.518293 255.375846 
L 236.656082 255.375846 
L 236.656082 254.957139 
L 237.176058 254.957139 
L 237.176058 254.538431 
L 237.324091 254.538431 
L 237.38738 252.863602 
L 237.52404 252.863602 
L 237.572826 251.60748 
L 237.742084 251.60748 
L 237.783003 250.351358 
L 237.932613 250.351358 
L 238.008232 248.676529 
L 238.066468 248.676529 
L 238.143935 247.839114 
L 238.372721 247.839114 
L 238.458108 245.745577 
L 238.574258 245.745577 
L 238.586196 244.908163 
L 238.721352 244.908163 
L 238.797664 243.233333 
L 238.848396 243.233333 
L 238.950715 241.558504 
L 238.995655 241.558504 
L 239.036072 239.883675 
L 239.214663 239.883675 
L 239.2631 239.04626 
L 239.366883 239.04626 
L 239.400022 237.371431 
L 239.501496 237.371431 
L 239.578205 234.440479 
L 239.616507 234.440479 
L 239.717232 232.76565 
L 239.756487 232.76565 
L 239.837762 231.509528 
L 239.94492 231.509528 
L 240.025578 230.672113 
L 240.066383 230.672113 
L 240.12469 228.159869 
L 240.191163 228.159869 
L 240.291895 224.391503 
L 240.389848 224.391503 
L 240.461644 221.879259 
L 240.591604 221.879259 
L 240.693946 217.692186 
L 240.711437 217.692186 
L 240.818801 213.92382 
L 240.84398 213.92382 
L 240.921913 212.248991 
L 240.976931 212.248991 
L 241.079514 208.061917 
L 241.189473 208.061917 
L 241.285499 204.712259 
L 241.313364 204.712259 
L 241.388057 203.456137 
L 241.426997 203.456137 
L 241.533647 199.687771 
L 241.57629 199.687771 
L 241.681121 195.08199 
L 241.734059 195.08199 
L 241.840114 192.151038 
L 241.851525 192.151038 
L 241.960254 189.220087 
L 242.00437 189.220087 
L 242.067786 186.707843 
L 242.131409 186.707843 
L 242.216402 182.939477 
L 242.242725 182.939477 
L 242.342962 180.427233 
L 242.35491 180.427233 
L 242.431225 177.496282 
L 242.469816 177.496282 
L 242.570495 174.146623 
L 242.60961 174.146623 
L 242.711443 172.471794 
L 242.750265 172.471794 
L 242.861267 168.28472 
L 242.893774 168.28472 
L 242.991809 165.353769 
L 243.009243 165.353769 
L 243.112738 162.841525 
L 243.120483 162.841525 
L 243.217362 161.166696 
L 243.260204 161.166696 
L 243.34661 157.817037 
L 243.391535 157.817037 
L 243.500584 154.048671 
L 243.514788 154.048671 
L 243.524559 153.211256 
L 243.635256 153.211256 
L 243.728841 149.44289 
L 243.786618 149.44289 
L 243.885418 145.674524 
L 243.906384 145.674524 
L 244.016138 142.324866 
L 244.036012 142.324866 
L 244.143023 138.975207 
L 244.193458 138.975207 
L 244.302176 135.625548 
L 244.343898 135.625548 
L 244.454674 133.113304 
L 244.462967 133.113304 
L 244.531591 129.344938 
L 244.578517 129.344938 
L 244.68878 124.739158 
L 244.709145 124.739158 
L 244.810388 123.064328 
L 244.838126 123.064328 
L 244.924364 120.133377 
L 244.966099 120.133377 
L 245.01712 118.458548 
L 245.133963 118.458548 
L 245.215415 117.202426 
L 245.258346 117.202426 
L 245.360545 113.43406 
L 245.378497 113.43406 
L 245.487556 111.75923 
L 245.531355 111.75923 
L 245.632178 108.828279 
L 245.654018 108.828279 
L 245.755899 107.15345 
L 245.79219 107.15345 
L 245.822365 106.316035 
L 245.90549 106.316035 
L 246.003454 104.222498 
L 246.056636 104.222498 
L 246.134173 102.547669 
L 246.184287 102.547669 
L 246.282624 100.035425 
L 246.322025 100.035425 
L 246.380944 98.779303 
L 246.443855 98.779303 
L 246.443855 98.360595 
L 246.604089 98.360595 
L 246.701432 97.104473 
L 246.789122 97.104473 
L 246.877478 95.848351 
L 246.907693 95.848351 
L 247.006951 94.173522 
L 247.045728 94.173522 
L 247.150198 92.9174 
L 247.19656 92.9174 
L 247.301301 90.405156 
L 247.346296 90.405156 
L 247.457177 87.892912 
L 247.555618 87.892912 
L 247.647167 85.380668 
L 247.701477 85.380668 
L 247.736732 83.705839 
L 247.846347 83.705839 
L 247.915694 81.193595 
L 247.961354 81.193595 
L 247.987873 79.937473 
L 248.158732 79.937473 
L 248.191619 78.681351 
L 248.319353 78.681351 
L 248.399137 77.006521 
L 248.438477 77.006521 
L 248.54136 74.494277 
L 248.571379 74.494277 
L 248.666013 72.400741 
L 248.869758 72.400741 
L 248.889387 71.563326 
L 249.002708 71.563326 
L 249.075376 70.307204 
L 249.181566 70.307204 
L 249.181566 69.888497 
L 249.376205 69.888497 
L 249.447766 69.051082 
L 249.510443 69.051082 
L 249.541364 67.79496 
L 249.815107 67.79496 
L 249.905797 66.538838 
L 249.936718 66.538838 
L 249.936718 66.120131 
L 250.054344 66.120131 
L 250.142767 64.864009 
L 250.471923 64.864009 
L 250.502844 64.026594 
L 250.767653 64.026594 
L 250.767653 63.607887 
L 250.93902 63.607887 
L 250.969941 62.770472 
L 251.222241 62.770472 
L 251.328939 61.51435 
L 251.425987 61.51435 
L 251.456907 60.676935 
L 251.607075 60.676935 
L 251.637996 59.839521 
L 251.737795 59.839521 
L 251.768716 59.002106 
L 252.008553 59.002106 
L 252.052992 58.164691 
L 252.434603 58.164691 
L 252.526211 56.908569 
L 252.610573 56.908569 
L 252.641494 56.071155 
L 253.036476 56.071155 
L 253.113273 55.23374 
L 253.284122 55.23374 
L 253.284122 54.815033 
L 253.606511 54.815033 
L 253.715146 53.977618 
L 254.28518 53.977618 
L 254.28518 53.558911 
L 254.589834 53.558911 
L 254.589834 53.140203 
L 255.058837 53.140203 
L 255.058837 52.721496 
L 255.268503 52.721496 
L 255.268503 52.302789 
L 255.44159 52.302789 
L 255.55248 51.046667 
L 255.641539 51.046667 
L 255.641539 50.627959 
L 256.025699 50.627959 
L 256.025699 50.209252 
L 256.334407 50.209252 
L 256.334407 49.790545 
L 256.49022 49.790545 
L 256.567136 48.534423 
L 256.807626 48.534423 
L 256.915163 47.697008 
L 257.168855 47.697008 
L 257.168855 47.278301 
L 257.738889 47.278301 
L 257.738889 46.859593 
L 258.491875 46.859593 
L 258.491875 46.440886 
L 258.691823 46.440886 
L 258.722212 45.603471 
L 258.965094 45.603471 
L 258.965094 45.184764 
L 259.165043 45.184764 
L 259.165043 44.766057 
L 259.540504 44.766057 
L 259.617421 43.928642 
L 259.965448 43.928642 
L 260.013724 43.091227 
L 260.09064 43.091227 
L 260.09064 42.67252 
L 260.438667 42.67252 
L 260.438667 42.253813 
L 261.632287 42.253813 
L 261.632287 41.835105 
L 262.310957 41.835105 
L 262.310957 41.416398 
L 264.682572 41.416398 
L 264.682572 40.997691 
L 265.155791 40.997691 
L 265.155791 40.578983 
L 265.361241 40.578983 
L 265.361241 40.160276 
L 265.764665 40.160276 
L 265.834461 39.322861 
L 268.81495 39.322861 
L 268.81495 38.904154 
L 269.288169 38.904154 
L 269.288169 38.485447 
L 315.050065 38.485447 
L 315.050065 38.066739 
L 315.261388 38.066739 
L 315.261388 37.648032 
L 315.88224 37.648032 
L 315.88224 37.229325 
L 316.332116 37.229325 
L 316.332116 36.810617 
L 316.87394 36.810617 
L 316.87394 36.39191 
L 317.579097 36.39191 
L 317.579097 35.973203 
L 317.899585 35.973203 
L 317.899585 35.554495 
L 318.105846 35.554495 
L 318.105846 35.135788 
L 318.238887 35.135788 
L 318.238887 34.717081 
L 318.544449 34.717081 
L 318.544449 34.298373 
L 318.795921 34.298373 
L 318.795921 33.879666 
L 319.074718 33.879666 
L 319.159507 33.042251 
L 319.996116 33.042251 
L 319.996116 32.623544 
L 320.207439 32.623544 
L 320.207439 32.204837 
L 320.828291 32.204837 
L 320.828291 31.786129 
L 321.278167 31.786129 
L 321.278167 31.367422 
L 321.819991 31.367422 
L 321.819991 30.948715 
L 321.965807 30.948715 
L 321.965807 30.530007 
L 322.525148 30.530007 
L 322.525148 30.1113 
L 322.6702 30.1113 
L 322.6702 29.692593 
L 322.845636 29.692593 
L 322.845636 29.273885 
L 323.051897 29.273885 
L 323.051897 28.855178 
L 323.424224 28.855178 
L 323.4905 28.017763 
L 323.741972 28.017763 
L 323.741972 27.599056 
L 324.020769 27.599056 
L 324.105558 26.761641 
L 324.680848 26.761641 
L 324.680848 26.342934 
L 325.881217 26.342934 
L 325.881217 25.924227 
L 326.911858 25.924227 
L 326.911858 25.505519 
L 327.686693 25.505519 
L 327.686693 25.086812 
L 328.180335 25.086812 
L 328.180335 24.668105 
L 328.962262 24.668105 
L 328.962262 24.249397 
L 329.112161 24.249397 
L 329.112161 23.83069 
L 329.866185 23.83069 
L 329.866185 23.411983 
L 331.11973 23.411983 
L 331.11973 22.993275 
L 331.319679 22.993275 
L 331.319679 22.574568 
L 332.118006 22.574568 
L 332.16836 21.737153 
L 332.245276 21.737153 
L 332.323178 20.899739 
L 332.593303 20.899739 
L 332.611648 20.062324 
L 332.87203 20.062324 
L 332.87203 19.643617 
L 333.365673 19.643617 
L 333.393575 18.806202 
L 334.1476 18.806202 
L 334.1476 18.387495 
L 335.329023 18.387495 
L 335.329023 17.968787 
L 335.551043 17.968787 
L 335.551043 17.55008 
L 335.750992 17.55008 
L 335.822665 16.712665 
L 336.305068 16.712665 
L 336.305068 16.293958 
L 336.505016 16.293958 
L 336.604593 15.037836 
L 336.676589 15.037836 
L 336.676589 14.619129 
L 337.024616 14.619129 
L 337.024616 14.200421 
L 337.310427 14.200421 
L 337.353697 13.363007 
L 337.430614 13.363007 
L 337.430614 12.944299 
L 337.778641 12.944299 
L 337.778641 12.525592 
L 337.989097 12.525592 
L 337.989097 12.106885 
L 338.762061 12.106885 
L 338.762061 11.688177 
L 338.962009 11.688177 
L 338.962009 11.26947 
L 339.81069 11.26947 
L 339.887607 10.432055 
L 340.235634 10.432055 
L 340.235634 10.013348 
L 341.442806 10.013348 
L 341.442806 9.594641 
L 341.74174 9.594641 
L 341.74174 9.175933 
L 342.42041 9.175933 
L 342.495765 8.338519 
L 343.174434 8.338519 
L 343.174434 7.919811 
L 344.952758 7.919811 
L 344.952758 7.501104 
L 345.631427 7.501104 
L 345.631427 7.082397 
L 345.874119 7.082397 
L 345.874119 6.663689 
L 346.628143 6.663689 
L 346.628143 6.244982 
L 349.085136 6.244982 
L 349.085136 5.826275 
L 453.192 5.826275 
L 453.192 5.826275 
" clip-path="url(#pd1a92d6952)" style="fill: none; stroke: #00bfbf; stroke-width: 3; stroke-linecap: square"/>
   </g>
   <g id="line2d_56">
    <path clip-path="url(#pd1a92d6952)" style="fill: none; stroke: #00bfbf; stroke-width: 3; stroke-linecap: square"/>
   </g>
   <g id="line2d_57">
    <path d="M 34.16 288.453725 
L 193.010814 288.453725 
L 193.010814 288.035018 
L 193.626227 288.035018 
L 193.626227 287.616311 
L 193.8518 287.616311 
L 193.8518 287.197603 
L 194.048057 287.197603 
L 194.048057 286.778896 
L 195.180204 286.778896 
L 195.180204 286.360189 
L 195.300103 286.360189 
L 195.300103 285.941481 
L 199.024939 285.941481 
L 199.024939 285.522774 
L 199.552784 285.522774 
L 199.552784 285.104067 
L 199.711576 285.104067 
L 199.782943 284.266652 
L 200.168198 284.266652 
L 200.168198 283.847945 
L 200.292619 283.847945 
L 200.398357 282.173115 
L 200.552562 282.173115 
L 200.623929 280.916993 
L 200.748819 280.916993 
L 200.820186 280.079579 
L 200.908033 280.079579 
L 200.908033 279.660871 
L 201.133605 279.660871 
L 201.153299 278.823457 
L 201.267046 278.823457 
L 201.329862 277.986042 
L 201.722175 277.986042 
L 201.768713 277.148627 
L 201.842074 277.148627 
L 201.952334 275.473798 
L 201.994285 275.473798 
L 202.072233 274.217676 
L 202.108032 274.217676 
L 202.190542 273.380261 
L 202.304289 273.380261 
L 202.304289 272.961554 
L 202.462009 272.961554 
L 202.462009 272.542847 
L 202.581908 272.542847 
L 202.581908 272.124139 
L 203.32269 272.124139 
L 203.32269 271.705432 
L 203.436436 271.705432 
L 203.442589 270.868017 
L 203.556335 270.868017 
L 203.556335 270.44931 
L 205.255311 270.44931 
L 205.255311 270.030603 
L 205.566909 270.030603 
L 205.566909 269.611895 
L 205.725701 269.611895 
L 205.797069 268.774481 
L 205.870725 268.774481 
L 205.870725 268.355773 
L 206.096297 268.355773 
L 206.096297 267.937066 
L 206.292554 267.937066 
L 206.306744 267.099651 
L 207.167425 267.099651 
L 207.167425 266.680944 
L 207.281171 266.680944 
L 207.281171 266.262237 
L 207.424702 266.262237 
L 207.424702 265.843529 
L 207.544601 265.843529 
L 207.544601 265.424822 
L 211.269437 265.424822 
L 211.269437 265.006115 
L 214.705745 265.006115 
L 214.705745 264.587407 
L 215.321159 264.587407 
L 215.321159 264.1687 
L 215.546731 264.1687 
L 215.546731 263.749993 
L 215.742988 263.749993 
L 215.742988 263.331285 
L 216.086781 263.331285 
L 216.086781 262.912578 
L 216.875135 262.912578 
L 216.875135 262.493871 
L 216.995034 262.493871 
L 216.995034 262.075163 
L 220.71987 262.075163 
L 220.71987 261.656456 
L 222.628752 261.656456 
L 222.628752 261.237749 
L 222.787543 261.237749 
L 222.858911 260.400334 
L 223.368586 260.400334 
L 223.368586 259.981627 
L 224.229267 259.981627 
L 224.229267 259.562919 
L 224.343013 259.562919 
L 224.343013 259.144212 
L 228.331279 259.144212 
L 228.331279 258.725505 
L 232.874784 258.725505 
L 232.874784 258.306797 
L 235.138421 258.306797 
L 235.138421 257.88809 
L 237.485181 257.88809 
L 237.485181 257.469383 
L 237.781712 257.469383 
L 237.781712 257.050675 
L 238.122151 257.050675 
L 238.122151 256.631968 
L 238.472768 256.631968 
L 238.480532 255.794553 
L 238.596206 255.794553 
L 238.596206 255.375846 
L 238.763669 255.375846 
L 238.86719 254.119724 
L 238.887107 254.119724 
L 238.990628 252.863602 
L 239.029784 252.863602 
L 239.137242 250.351358 
L 239.156545 250.351358 
L 239.241839 248.257821 
L 239.290972 248.257821 
L 239.328396 247.001699 
L 239.416754 247.001699 
L 239.472578 245.32687 
L 239.53136 245.32687 
L 239.609789 243.233333 
L 239.644875 243.233333 
L 239.710878 239.883675 
L 239.764424 239.883675 
L 239.848165 238.627553 
L 239.888735 238.627553 
L 239.989379 236.534016 
L 240.010741 236.534016 
L 240.0929 234.440479 
L 240.132707 234.440479 
L 240.206546 232.346943 
L 240.266499 232.346943 
L 240.311119 231.090821 
L 240.41066 231.090821 
L 240.500484 229.415991 
L 240.531494 229.415991 
L 240.590752 227.322455 
L 240.660617 227.322455 
L 240.755798 226.48504 
L 240.772048 226.48504 
L 240.838452 223.972796 
L 240.889875 223.972796 
L 241.000894 221.041845 
L 241.008802 221.041845 
L 241.119698 218.948308 
L 241.131016 218.948308 
L 241.222912 215.179942 
L 241.264854 215.179942 
L 241.372355 212.667698 
L 241.384753 212.667698 
L 241.482967 208.899332 
L 241.524757 208.899332 
L 241.622102 204.712259 
L 241.651182 204.712259 
L 241.733084 200.943893 
L 241.769748 200.943893 
L 241.877085 198.012941 
L 241.895551 198.012941 
L 241.999072 192.988453 
L 242.019132 192.988453 
L 242.095819 189.638794 
L 242.156437 189.638794 
L 242.234512 185.451721 
L 242.279527 185.451721 
L 242.387225 180.427233 
L 242.416248 180.427233 
L 242.520495 176.658867 
L 242.531846 176.658867 
L 242.601267 173.727916 
L 242.656158 173.727916 
L 242.720816 171.634379 
L 242.781567 171.634379 
L 242.829037 169.95955 
L 242.895771 169.95955 
L 242.979705 167.028598 
L 243.023781 167.028598 
L 243.102948 162.841525 
L 243.157053 162.841525 
L 243.250771 159.491866 
L 243.280907 159.491866 
L 243.375632 155.7235 
L 243.394653 155.7235 
L 243.499283 150.699012 
L 243.515433 150.699012 
L 243.599496 146.511939 
L 243.649948 146.511939 
L 243.759658 140.650036 
L 243.799391 140.650036 
L 243.905875 138.975207 
L 243.910824 138.975207 
L 244.01488 133.950719 
L 244.027151 133.950719 
L 244.129304 129.344938 
L 244.140683 129.344938 
L 244.216618 125.99528 
L 244.257311 125.99528 
L 244.359886 123.064328 
L 244.372702 123.064328 
L 244.477879 118.877255 
L 244.500506 118.877255 
L 244.603643 115.946304 
L 244.616185 115.946304 
L 244.681413 112.177938 
L 244.728853 112.177938 
L 244.839268 107.15345 
L 244.843342 107.15345 
L 244.870027 105.47862 
L 244.978459 105.47862 
L 245.035072 103.385084 
L 245.093463 103.385084 
L 245.204354 99.616718 
L 245.26999 99.616718 
L 245.374961 97.523181 
L 245.443844 97.523181 
L 245.545022 93.336107 
L 245.579764 93.336107 
L 245.664921 90.823863 
L 245.718402 90.823863 
L 245.82733 88.311619 
L 245.861158 88.311619 
L 245.9434 84.961961 
L 246.0326 84.961961 
L 246.124264 82.868424 
L 246.201285 82.868424 
L 246.238711 81.612302 
L 246.32044 81.612302 
L 246.421353 79.937473 
L 246.431576 79.937473 
L 246.523102 77.843936 
L 246.547156 77.843936 
L 246.628829 75.331692 
L 246.6767 75.331692 
L 246.717283 74.07557 
L 246.80259 74.07557 
L 246.860922 72.819448 
L 246.931132 72.819448 
L 247.022658 70.725911 
L 247.047722 70.725911 
L 247.047722 70.307204 
L 247.192975 70.307204 
L 247.297567 67.79496 
L 247.326756 67.79496 
L 247.410567 65.282716 
L 247.45115 65.282716 
L 247.469815 64.445301 
L 247.568385 64.445301 
L 247.675449 61.933057 
L 247.685137 61.933057 
L 247.685137 61.51435 
L 247.801998 61.51435 
L 247.905608 59.839521 
L 247.990179 59.839521 
L 248.081486 58.164691 
L 248.137849 58.164691 
L 248.234389 57.327277 
L 248.301554 57.327277 
L 248.34396 56.489862 
L 248.415283 56.489862 
L 248.511722 54.815033 
L 248.677465 54.815033 
L 248.70407 53.977618 
L 248.79121 53.977618 
L 248.880874 51.884081 
L 248.918118 51.884081 
L 249.011279 50.627959 
L 249.150135 50.627959 
L 249.206647 49.371837 
L 249.270033 49.371837 
L 249.349585 48.115715 
L 249.38971 48.115715 
L 249.447678 46.859593 
L 249.60647 46.859593 
L 249.705089 45.184764 
L 249.729679 45.184764 
L 249.814197 44.347349 
L 249.905147 44.347349 
L 249.997034 43.509935 
L 250.030862 43.509935 
L 250.030862 43.091227 
L 250.187512 43.091227 
L 250.187512 42.67252 
L 250.309267 42.67252 
L 250.309267 42.253813 
L 250.552717 42.253813 
L 250.552717 41.835105 
L 250.729363 41.835105 
L 250.796638 40.578983 
L 251.001904 40.578983 
L 251.048193 39.741569 
L 251.133482 39.741569 
L 251.232063 38.066739 
L 251.376932 38.066739 
L 251.483337 36.810617 
L 251.544104 36.810617 
L 251.620853 35.135788 
L 251.689448 35.135788 
L 251.741738 34.298373 
L 252.125147 34.298373 
L 252.125147 33.879666 
L 252.307553 33.879666 
L 252.307553 33.460959 
L 252.513664 33.460959 
L 252.602419 32.623544 
L 252.642954 32.623544 
L 252.716165 31.786129 
L 252.985827 31.786129 
L 252.994869 30.948715 
L 253.099574 30.948715 
L 253.099574 30.530007 
L 253.377976 30.530007 
L 253.377976 30.1113 
L 254.569715 30.1113 
L 254.569715 29.692593 
L 255.150205 29.692593 
L 255.150205 29.273885 
L 256.704431 29.273885 
L 256.704431 28.855178 
L 256.833353 28.855178 
L 256.833353 28.436471 
L 257.087839 28.436471 
L 257.087839 28.017763 
L 259.180112 28.017763 
L 259.180112 27.599056 
L 262.171431 27.599056 
L 262.171431 27.180349 
L 262.828409 27.180349 
L 262.828409 26.761641 
L 264.600639 26.761641 
L 264.600639 26.342934 
L 265.765912 26.342934 
L 265.765912 25.924227 
L 266.154864 25.924227 
L 266.154864 25.505519 
L 266.411427 25.505519 
L 266.451599 24.668105 
L 266.538273 24.668105 
L 266.538273 24.249397 
L 269.704796 24.249397 
L 269.704796 23.83069 
L 270.056711 23.83069 
L 270.056711 23.411983 
L 278.959434 23.411983 
L 278.959434 22.993275 
L 281.223071 22.993275 
L 281.223071 22.574568 
L 282.553915 22.574568 
L 282.553915 22.155861 
L 283.199429 22.155861 
L 283.239602 21.318446 
L 283.569831 21.318446 
L 283.569831 20.899739 
L 284.817552 20.899739 
L 284.817552 20.481031 
L 285.463067 20.481031 
L 285.503239 19.643617 
L 286.492799 19.643617 
L 286.492799 19.224909 
L 286.844714 19.224909 
L 286.844714 18.806202 
L 287.164312 18.806202 
L 287.218128 17.968787 
L 287.809827 17.968787 
L 287.849999 17.131373 
L 288.756436 17.131373 
L 288.756436 16.712665 
L 288.990357 16.712665 
L 288.990357 16.293958 
L 289.108352 16.293958 
L 289.108352 15.875251 
L 290.544583 15.875251 
L 290.544583 15.456543 
L 290.812609 15.456543 
L 290.812609 15.037836 
L 290.927992 15.037836 
L 290.927992 14.619129 
L 291.103196 14.619129 
L 291.103196 14.200421 
L 291.455111 14.200421 
L 291.498296 12.944299 
L 292.584838 12.944299 
L 292.584838 12.525592 
L 293.230353 12.525592 
L 293.270525 11.688177 
L 294.139064 11.688177 
L 294.139064 11.26947 
L 294.522472 11.26947 
L 294.522472 10.850763 
L 294.751493 10.850763 
L 294.824751 9.594641 
L 295.103408 9.594641 
L 295.20816 8.338519 
L 296.523722 8.338519 
L 296.523722 7.919811 
L 296.875638 7.919811 
L 296.875638 7.501104 
L 298.077948 7.501104 
L 298.077948 7.082397 
L 298.429864 7.082397 
L 298.461357 6.244982 
L 298.813272 6.244982 
L 298.813272 5.826275 
L 453.192 5.826275 
L 453.192 5.826275 
" clip-path="url(#pd1a92d6952)" style="fill: none; stroke: #bf00bf; stroke-width: 3; stroke-linecap: square"/>
   </g>
   <g id="line2d_58">
    <path clip-path="url(#pd1a92d6952)" style="fill: none; stroke: #bf00bf; stroke-width: 3; stroke-linecap: square"/>
   </g>
   <g id="line2d_59">
    <path d="M 34.16 288.453725 
L 237.556341 288.453725 
L 237.580926 287.616311 
L 237.780685 287.616311 
L 237.80527 286.778896 
L 238.054209 286.778896 
L 238.078793 285.941481 
L 238.1873 285.941481 
L 238.211884 285.104067 
L 238.363438 285.104067 
L 238.363438 284.685359 
L 238.577915 284.685359 
L 238.587782 283.847945 
L 238.699058 283.847945 
L 238.765218 283.01053 
L 238.861305 283.01053 
L 238.945653 281.754408 
L 238.994396 281.754408 
L 239.08531 280.498286 
L 239.161124 280.498286 
L 239.257695 279.660871 
L 239.439074 279.660871 
L 239.48741 277.986042 
L 239.625433 277.986042 
L 239.733906 274.636383 
L 239.840904 274.636383 
L 239.936 272.961554 
L 240.002175 272.961554 
L 240.101644 270.44931 
L 240.117578 270.44931 
L 240.155846 269.611895 
L 240.237522 269.611895 
L 240.336547 265.424822 
L 240.385417 265.424822 
L 240.483762 263.749993 
L 240.532735 263.749993 
L 240.583429 261.656456 
L 240.652537 261.656456 
L 240.762915 259.144212 
L 240.765593 259.144212 
L 240.873125 254.538431 
L 240.921902 254.538431 
L 240.967506 253.282309 
L 241.036879 253.282309 
L 241.09579 250.770065 
L 241.161949 250.770065 
L 241.265672 249.095236 
L 241.274444 249.095236 
L 241.38052 242.395919 
L 241.401369 242.395919 
L 241.505099 237.790138 
L 241.528971 237.790138 
L 241.631936 232.346943 
L 241.667772 232.346943 
L 241.778623 229.415991 
L 241.782579 229.415991 
L 241.875419 224.810211 
L 241.911714 224.810211 
L 242.009605 218.110893 
L 242.029115 218.110893 
L 242.137936 214.342527 
L 242.178477 214.342527 
L 242.288237 209.736747 
L 242.289974 209.736747 
L 242.400734 204.712259 
L 242.403412 204.712259 
L 242.497367 201.781307 
L 242.552322 201.781307 
L 242.660771 195.08199 
L 242.676845 195.08199 
L 242.784877 187.545258 
L 242.80472 187.545258 
L 242.899721 185.451721 
L 242.920448 185.451721 
L 243.026954 180.008526 
L 243.039649 180.008526 
L 243.131777 175.821452 
L 243.163488 175.821452 
L 243.273697 172.053086 
L 243.289832 172.053086 
L 243.384647 168.703428 
L 243.404587 168.703428 
L 243.505242 161.166696 
L 243.517738 161.166696 
L 243.597148 154.886086 
L 243.639656 154.886086 
L 243.732213 149.024183 
L 243.751001 149.024183 
L 243.830558 146.093232 
L 243.86276 146.093232 
L 243.948272 141.068744 
L 243.983079 141.068744 
L 244.084474 136.88167 
L 244.121159 136.88167 
L 244.21861 132.27589 
L 244.257463 132.27589 
L 244.34029 127.670109 
L 244.376951 127.670109 
L 244.481807 123.483036 
L 244.490759 123.483036 
L 244.590103 117.202426 
L 244.617799 117.202426 
L 244.724804 114.271474 
L 244.73708 114.271474 
L 244.8366 110.921816 
L 244.848265 110.921816 
L 244.944699 105.897328 
L 244.964224 105.897328 
L 245.053412 102.966376 
L 245.07798 102.966376 
L 245.186564 99.616718 
L 245.194301 99.616718 
L 245.293247 97.104473 
L 245.309148 97.104473 
L 245.412297 92.9174 
L 245.422228 92.9174 
L 245.532309 89.986449 
L 245.560341 89.986449 
L 245.670491 85.799375 
L 245.701192 85.799375 
L 245.806759 80.774887 
L 245.837766 80.774887 
L 245.946491 75.750399 
L 245.949803 75.750399 
L 246.037476 71.144619 
L 246.066881 71.144619 
L 246.163563 66.538838 
L 246.17952 66.538838 
L 246.273895 63.607887 
L 246.302228 63.607887 
L 246.394564 60.258228 
L 246.422244 60.258228 
L 246.52623 56.908569 
L 246.554187 56.908569 
L 246.661664 55.652447 
L 246.668854 55.652447 
L 246.767492 52.302789 
L 246.794853 52.302789 
L 246.905273 48.534423 
L 246.935017 48.534423 
L 246.99622 47.278301 
L 247.046789 47.278301 
L 247.151465 43.928642 
L 247.173361 43.928642 
L 247.222506 42.253813 
L 247.295177 42.253813 
L 247.372033 40.578983 
L 247.419242 40.578983 
L 247.512253 38.485447 
L 247.559683 38.485447 
L 247.656431 36.810617 
L 247.68708 36.810617 
L 247.785425 34.717081 
L 247.812318 34.717081 
L 247.889051 33.460959 
L 247.980148 33.460959 
L 248.079331 31.367422 
L 248.106719 31.367422 
L 248.184489 29.692593 
L 248.268726 29.692593 
L 248.31106 28.017763 
L 248.41104 28.017763 
L 248.463612 25.505519 
L 248.550673 25.505519 
L 248.604509 24.668105 
L 248.703032 24.668105 
L 248.741952 23.411983 
L 248.814473 23.411983 
L 248.848905 22.574568 
L 248.991467 22.574568 
L 249.009842 21.737153 
L 249.146163 21.737153 
L 249.22886 20.481031 
L 249.358026 20.481031 
L 249.46828 19.224909 
L 249.481257 19.224909 
L 249.506798 18.387495 
L 249.65606 18.387495 
L 249.729541 17.131373 
L 249.808314 17.131373 
L 249.916352 15.875251 
L 249.930419 15.875251 
L 249.930419 15.456543 
L 250.051718 15.456543 
L 250.112635 14.200421 
L 250.273094 14.200421 
L 250.365081 13.363007 
L 250.396324 13.363007 
L 250.452282 12.106885 
L 250.59681 12.106885 
L 250.695667 10.850763 
L 250.723381 10.850763 
L 250.816966 10.013348 
L 250.838802 10.013348 
L 250.890273 9.175933 
L 250.995835 9.175933 
L 251.087823 7.919811 
L 251.119066 7.919811 
L 251.119066 7.501104 
L 251.319551 7.501104 
L 251.319551 7.082397 
L 251.446123 7.082397 
L 251.446123 6.663689 
L 251.65552 6.663689 
L 251.750444 5.826275 
L 453.192 5.826275 
L 453.192 5.826275 
" clip-path="url(#pd1a92d6952)" style="fill: none; stroke: #ff0000; stroke-width: 3; stroke-linecap: square"/>
   </g>
   <g id="line2d_60">
    <path clip-path="url(#pd1a92d6952)" style="fill: none; stroke: #ff0000; stroke-width: 3; stroke-linecap: square"/>
   </g>
   <g id="line2d_61">
    <path d="M 243.676 291.28 
L 243.676 3 
" clip-path="url(#pd1a92d6952)" style="fill: none; stroke: #000000; stroke-width: 1.5; stroke-linecap: square"/>
   </g>
   <g id="line2d_62">
    <path d="M 34.16 147.14 
L 453.192 147.14 
" clip-path="url(#pd1a92d6952)" style="fill: none; stroke-dasharray: 2,3.3; stroke-dashoffset: 0; stroke: #000000; stroke-width: 2"/>
   </g>
   <g id="patch_3">
    <path d="M 34.16 291.28 
L 34.16 3 
" style="fill: none; stroke: #000000; stroke-width: 0.8; stroke-linejoin: miter; stroke-linecap: square"/>
   </g>
   <g id="patch_4">
    <path d="M 453.192 291.28 
L 453.192 3 
" style="fill: none; stroke: #000000; stroke-width: 0.8; stroke-linejoin: miter; stroke-linecap: square"/>
   </g>
   <g id="patch_5">
    <path d="M 34.16 291.28 
L 453.192 291.28 
" style="fill: none; stroke: #000000; stroke-width: 0.8; stroke-linejoin: miter; stroke-linecap: square"/>
   </g>
   <g id="patch_6">
    <path d="M 34.16 3 
L 453.192 3 
" style="fill: none; stroke: #000000; stroke-width: 0.8; stroke-linejoin: miter; stroke-linecap: square"/>
   </g>
   <g id="text_5">
    <!-- f10-f14,40-D -->
    <g transform="translate(318.19261 285.5144) scale(0.2 -0.2)">
     <defs>
      <path id="DejaVuSans-34" d="M 2419 4116 
L 825 1625 
L 2419 1625 
L 2419 4116 
z
M 2253 4666 
L 3047 4666 
L 3047 1625 
L 3713 1625 
L 3713 1100 
L 3047 1100 
L 3047 0 
L 2419 0 
L 2419 1100 
L 313 1100 
L 313 1709 
L 2253 4666 
z
" transform="scale(0.015625)"/>
      <path id="DejaVuSans-2c" d="M 750 794 
L 1409 794 
L 1409 256 
L 897 -744 
L 494 -744 
L 750 256 
L 750 794 
z
" transform="scale(0.015625)"/>
      <path id="DejaVuSans-44" d="M 1259 4147 
L 1259 519 
L 2022 519 
Q 2988 519 3436 956 
Q 3884 1394 3884 2338 
Q 3884 3275 3436 3711 
Q 2988 4147 2022 4147 
L 1259 4147 
z
M 628 4666 
L 1925 4666 
Q 3281 4666 3915 4102 
Q 4550 3538 4550 2338 
Q 4550 1131 3912 565 
Q 3275 0 1925 0 
L 628 0 
L 628 4666 
z
" transform="scale(0.015625)"/>
     </defs>
     <use xlink:href="#DejaVuSans-66"/>
     <use xlink:href="#DejaVuSans-31" x="35.205078"/>
     <use xlink:href="#DejaVuSans-30" x="98.828125"/>
     <use xlink:href="#DejaVuSans-2d" x="162.451172"/>
     <use xlink:href="#DejaVuSans-66" x="198.535156"/>
     <use xlink:href="#DejaVuSans-31" x="233.740234"/>
     <use xlink:href="#DejaVuSans-34" x="297.363281"/>
     <use xlink:href="#DejaVuSans-2c" x="360.986328"/>
     <use xlink:href="#DejaVuSans-34" x="392.773438"/>
     <use xlink:href="#DejaVuSans-30" x="456.396484"/>
     <use xlink:href="#DejaVuSans-2d" x="520.019531"/>
     <use xlink:href="#DejaVuSans-44" x="556.103516"/>
    </g>
   </g>
   <g id="text_6">
    <!-- v2.6.3 -->
    <g style="fill: #808080" transform="translate(227.99475 286.317512) scale(0.1 -0.1)">
     <defs>
      <path id="DejaVuSans-32" d="M 1228 531 
L 3431 531 
L 3431 0 
L 469 0 
L 469 531 
Q 828 903 1448 1529 
Q 2069 2156 2228 2338 
Q 2531 2678 2651 2914 
Q 2772 3150 2772 3378 
Q 2772 3750 2511 3984 
Q 2250 4219 1831 4219 
Q 1534 4219 1204 4116 
Q 875 4013 500 3803 
L 500 4441 
Q 881 4594 1212 4672 
Q 1544 4750 1819 4750 
Q 2544 4750 2975 4387 
Q 3406 4025 3406 3419 
Q 3406 3131 3298 2873 
Q 3191 2616 2906 2266 
Q 2828 2175 2409 1742 
Q 1991 1309 1228 531 
z
" transform="scale(0.015625)"/>
      <path id="DejaVuSans-2e" d="M 684 794 
L 1344 794 
L 1344 0 
L 684 0 
L 684 794 
z
" transform="scale(0.015625)"/>
      <path id="DejaVuSans-36" d="M 2113 2584 
Q 1688 2584 1439 2293 
Q 1191 2003 1191 1497 
Q 1191 994 1439 701 
Q 1688 409 2113 409 
Q 2538 409 2786 701 
Q 3034 994 3034 1497 
Q 3034 2003 2786 2293 
Q 2538 2584 2113 2584 
z
M 3366 4563 
L 3366 3988 
Q 3128 4100 2886 4159 
Q 2644 4219 2406 4219 
Q 1781 4219 1451 3797 
Q 1122 3375 1075 2522 
Q 1259 2794 1537 2939 
Q 1816 3084 2150 3084 
Q 2853 3084 3261 2657 
Q 3669 2231 3669 1497 
Q 3669 778 3244 343 
Q 2819 -91 2113 -91 
Q 1303 -91 875 529 
Q 447 1150 447 2328 
Q 447 3434 972 4092 
Q 1497 4750 2381 4750 
Q 2619 4750 2861 4703 
Q 3103 4656 3366 4563 
z
" transform="scale(0.015625)"/>
      <path id="DejaVuSans-33" d="M 2597 2516 
Q 3050 2419 3304 2112 
Q 3559 1806 3559 1356 
Q 3559 666 3084 287 
Q 2609 -91 1734 -91 
Q 1441 -91 1130 -33 
Q 819 25 488 141 
L 488 750 
Q 750 597 1062 519 
Q 1375 441 1716 441 
Q 2309 441 2620 675 
Q 2931 909 2931 1356 
Q 2931 1769 2642 2001 
Q 2353 2234 1838 2234 
L 1294 2234 
L 1294 2753 
L 1863 2753 
Q 2328 2753 2575 2939 
Q 2822 3125 2822 3475 
Q 2822 3834 2567 4026 
Q 2313 4219 1838 4219 
Q 1578 4219 1281 4162 
Q 984 4106 628 3988 
L 628 4550 
Q 988 4650 1302 4700 
Q 1616 4750 1894 4750 
Q 2613 4750 3031 4423 
Q 3450 4097 3450 3541 
Q 3450 3153 3228 2886 
Q 3006 2619 2597 2516 
z
" transform="scale(0.015625)"/>
     </defs>
     <use xlink:href="#DejaVuSans-76"/>
     <use xlink:href="#DejaVuSans-32" x="59.179688"/>
     <use xlink:href="#DejaVuSans-2e" x="122.802734"/>
     <use xlink:href="#DejaVuSans-36" x="154.589844"/>
     <use xlink:href="#DejaVuSans-2e" x="218.212891"/>
     <use xlink:href="#DejaVuSans-33" x="250"/>
    </g>
   </g>
   <g id="legend_1">
    <g id="patch_7">
     <path d="M 48.16 136.425 
L 177.381875 136.425 
Q 181.381875 136.425 181.381875 132.425 
L 181.381875 17 
Q 181.381875 13 177.381875 13 
L 48.16 13 
Q 44.16 13 44.16 17 
L 44.16 132.425 
Q 44.16 136.425 48.16 136.425 
z
" style="fill: #ffffff; opacity: 0.2; stroke: #cccccc; stroke-linejoin: miter"/>
    </g>
    <g id="line2d_63">
     <path d="M 52.16 29.196875 
L 72.16 29.196875 
L 92.16 29.196875 
" style="fill: none; stroke: #000000; stroke-width: 3; stroke-linecap: square"/>
    </g>
    <g id="text_7">
     <!-- 1: 5/5 -->
     <g transform="translate(108.16 36.196875) scale(0.2 -0.2)">
      <defs>
       <path id="DejaVuSans-3a" d="M 750 794 
L 1409 794 
L 1409 0 
L 750 0 
L 750 794 
z
M 750 3309 
L 1409 3309 
L 1409 2516 
L 750 2516 
L 750 3309 
z
" transform="scale(0.015625)"/>
       <path id="DejaVuSans-35" d="M 691 4666 
L 3169 4666 
L 3169 4134 
L 1269 4134 
L 1269 2991 
Q 1406 3038 1543 3061 
Q 1681 3084 1819 3084 
Q 2600 3084 3056 2656 
Q 3513 2228 3513 1497 
Q 3513 744 3044 326 
Q 2575 -91 1722 -91 
Q 1428 -91 1123 -41 
Q 819 9 494 109 
L 494 744 
Q 775 591 1075 516 
Q 1375 441 1709 441 
Q 2250 441 2565 725 
Q 2881 1009 2881 1497 
Q 2881 1984 2565 2268 
Q 2250 2553 1709 2553 
Q 1456 2553 1204 2497 
Q 953 2441 691 2322 
L 691 4666 
z
" transform="scale(0.015625)"/>
       <path id="DejaVuSans-2f" d="M 1625 4666 
L 2156 4666 
L 531 -594 
L 0 -594 
L 1625 4666 
z
" transform="scale(0.015625)"/>
      </defs>
      <use xlink:href="#DejaVuSans-31"/>
      <use xlink:href="#DejaVuSans-3a" x="63.623047"/>
      <use xlink:href="#DejaVuSans-20" x="97.314453"/>
      <use xlink:href="#DejaVuSans-35" x="129.101562"/>
      <use xlink:href="#DejaVuSans-2f" x="192.724609"/>
      <use xlink:href="#DejaVuSans-35" x="226.416016"/>
     </g>
    </g>
    <g id="line2d_64">
     <path d="M 52.16 58.553125 
L 72.16 58.553125 
L 92.16 58.553125 
" style="fill: none; stroke: #00bfbf; stroke-width: 3; stroke-linecap: square"/>
    </g>
    <g id="text_8">
     <!-- -1: 3/3 -->
     <g transform="translate(108.16 65.553125) scale(0.2 -0.2)">
      <use xlink:href="#DejaVuSans-2d"/>
      <use xlink:href="#DejaVuSans-31" x="36.083984"/>
      <use xlink:href="#DejaVuSans-3a" x="99.707031"/>
      <use xlink:href="#DejaVuSans-20" x="133.398438"/>
      <use xlink:href="#DejaVuSans-33" x="165.185547"/>
      <use xlink:href="#DejaVuSans-2f" x="228.808594"/>
      <use xlink:href="#DejaVuSans-33" x="262.5"/>
     </g>
    </g>
    <g id="line2d_65">
     <path d="M 52.16 87.909375 
L 72.16 87.909375 
L 92.16 87.909375 
" style="fill: none; stroke: #bf00bf; stroke-width: 3; stroke-linecap: square"/>
    </g>
    <g id="text_9">
     <!-- -4: 3/3 -->
     <g transform="translate(108.16 94.909375) scale(0.2 -0.2)">
      <use xlink:href="#DejaVuSans-2d"/>
      <use xlink:href="#DejaVuSans-34" x="36.083984"/>
      <use xlink:href="#DejaVuSans-3a" x="99.707031"/>
      <use xlink:href="#DejaVuSans-20" x="133.398438"/>
      <use xlink:href="#DejaVuSans-33" x="165.185547"/>
      <use xlink:href="#DejaVuSans-2f" x="228.808594"/>
      <use xlink:href="#DejaVuSans-33" x="262.5"/>
     </g>
    </g>
    <g id="line2d_66">
     <path d="M 52.16 117.265625 
L 72.16 117.265625 
L 92.16 117.265625 
" style="fill: none; stroke: #ff0000; stroke-width: 3; stroke-linecap: square"/>
    </g>
    <g id="text_10">
     <!-- -8: 3/3 -->
     <g transform="translate(108.16 124.265625) scale(0.2 -0.2)">
      <defs>
       <path id="DejaVuSans-38" d="M 2034 2216 
Q 1584 2216 1326 1975 
Q 1069 1734 1069 1313 
Q 1069 891 1326 650 
Q 1584 409 2034 409 
Q 2484 409 2743 651 
Q 3003 894 3003 1313 
Q 3003 1734 2745 1975 
Q 2488 2216 2034 2216 
z
M 1403 2484 
Q 997 2584 770 2862 
Q 544 3141 544 3541 
Q 544 4100 942 4425 
Q 1341 4750 2034 4750 
Q 2731 4750 3128 4425 
Q 3525 4100 3525 3541 
Q 3525 3141 3298 2862 
Q 3072 2584 2669 2484 
Q 3125 2378 3379 2068 
Q 3634 1759 3634 1313 
Q 3634 634 3220 271 
Q 2806 -91 2034 -91 
Q 1263 -91 848 271 
Q 434 634 434 1313 
Q 434 1759 690 2068 
Q 947 2378 1403 2484 
z
M 1172 3481 
Q 1172 3119 1398 2916 
Q 1625 2713 2034 2713 
Q 2441 2713 2670 2916 
Q 2900 3119 2900 3481 
Q 2900 3844 2670 4047 
Q 2441 4250 2034 4250 
Q 1625 4250 1398 4047 
Q 1172 3844 1172 3481 
z
" transform="scale(0.015625)"/>
      </defs>
      <use xlink:href="#DejaVuSans-2d"/>
      <use xlink:href="#DejaVuSans-38" x="36.083984"/>
      <use xlink:href="#DejaVuSans-3a" x="99.707031"/>
      <use xlink:href="#DejaVuSans-20" x="133.398438"/>
      <use xlink:href="#DejaVuSans-33" x="165.185547"/>
      <use xlink:href="#DejaVuSans-2f" x="228.808594"/>
      <use xlink:href="#DejaVuSans-33" x="262.5"/>
     </g>
    </g>
   </g>
  </g>
 </g>
 <defs>
  <clipPath id="pd1a92d6952">
   <rect x="34.16" y="3" width="419.032" height="288.28"/>
  </clipPath>
 </defs>
</svg>
