<?xml version="1.0" encoding="utf-8" standalone="no"?>
<!DOCTYPE svg PUBLIC "-//W3C//DTD SVG 1.1//EN"
  "http://www.w3.org/Graphics/SVG/1.1/DTD/svg11.dtd">
<svg xmlns:xlink="http://www.w3.org/1999/xlink" width="460.8pt" height="345.6pt" viewBox="0 0 460.8 345.6" xmlns="http://www.w3.org/2000/svg" version="1.1">
 <metadata>
  <rdf:RDF xmlns:dc="http://purl.org/dc/elements/1.1/" xmlns:cc="http://creativecommons.org/ns#" xmlns:rdf="http://www.w3.org/1999/02/22-rdf-syntax-ns#">
   <cc:Work>
    <dc:type rdf:resource="http://purl.org/dc/dcmitype/StillImage"/>
    <dc:date>2024-06-05T10:08:17.633949</dc:date>
    <dc:format>image/svg+xml</dc:format>
    <dc:creator>
     <cc:Agent>
      <dc:title>Matplotlib v3.7.1, https://matplotlib.org/</dc:title>
     </cc:Agent>
    </dc:creator>
   </cc:Work>
  </rdf:RDF>
 </metadata>
 <defs>
  <style type="text/css">*{stroke-linejoin: round; stroke-linecap: butt}</style>
 </defs>
 <g id="figure_1">
  <g id="patch_1">
   <path d="M 0 345.6 
L 460.8 345.6 
L 460.8 0 
L 0 0 
z
" style="fill: #ffffff"/>
  </g>
  <g id="axes_1">
   <g id="patch_2">
    <path d="M 34.16 291.28 
L 453.192 291.28 
L 453.192 3 
L 34.16 3 
z
" style="fill: #ffffff"/>
   </g>
   <g id="matplotlib.axis_1">
    <g id="xtick_1">
     <g id="line2d_1">
      <path d="M 121.723915 291.28 
L 121.723915 3 
" clip-path="url(#p5eeb40a3cf)" style="fill: none; stroke: #b0b0b0; stroke-width: 0.8; stroke-linecap: square"/>
     </g>
     <g id="line2d_2">
      <defs>
       <path id="m1d4585d101" d="M 0 0 
L 0 3.5 
" style="stroke: #000000; stroke-width: 0.8"/>
      </defs>
      <g>
       <use xlink:href="#m1d4585d101" x="121.723915" y="291.28" style="stroke: #000000; stroke-width: 0.8"/>
      </g>
     </g>
     <g id="text_1">
      <!-- -2 -->
      <g transform="translate(111.753602 313.476875) scale(0.2 -0.2)">
       <defs>
        <path id="DejaVuSans-2d" d="M 313 2009 
L 1997 2009 
L 1997 1497 
L 313 1497 
L 313 2009 
z
" transform="scale(0.015625)"/>
        <path id="DejaVuSans-32" d="M 1228 531 
L 3431 531 
L 3431 0 
L 469 0 
L 469 531 
Q 828 903 1448 1529 
Q 2069 2156 2228 2338 
Q 2531 2678 2651 2914 
Q 2772 3150 2772 3378 
Q 2772 3750 2511 3984 
Q 2250 4219 1831 4219 
Q 1534 4219 1204 4116 
Q 875 4013 500 3803 
L 500 4441 
Q 881 4594 1212 4672 
Q 1544 4750 1819 4750 
Q 2544 4750 2975 4387 
Q 3406 4025 3406 3419 
Q 3406 3131 3298 2873 
Q 3191 2616 2906 2266 
Q 2828 2175 2409 1742 
Q 1991 1309 1228 531 
z
" transform="scale(0.015625)"/>
       </defs>
       <use xlink:href="#DejaVuSans-2d"/>
       <use xlink:href="#DejaVuSans-32" x="36.083984"/>
      </g>
     </g>
    </g>
    <g id="xtick_2">
     <g id="line2d_3">
      <path d="M 243.676 291.28 
L 243.676 3 
" clip-path="url(#p5eeb40a3cf)" style="fill: none; stroke: #b0b0b0; stroke-width: 0.8; stroke-linecap: square"/>
     </g>
     <g id="line2d_4">
      <g>
       <use xlink:href="#m1d4585d101" x="243.676" y="291.28" style="stroke: #000000; stroke-width: 0.8"/>
      </g>
     </g>
     <g id="text_2">
      <!-- 0 -->
      <g transform="translate(237.3135 313.476875) scale(0.2 -0.2)">
       <defs>
        <path id="DejaVuSans-30" d="M 2034 4250 
Q 1547 4250 1301 3770 
Q 1056 3291 1056 2328 
Q 1056 1369 1301 889 
Q 1547 409 2034 409 
Q 2525 409 2770 889 
Q 3016 1369 3016 2328 
Q 3016 3291 2770 3770 
Q 2525 4250 2034 4250 
z
M 2034 4750 
Q 2819 4750 3233 4129 
Q 3647 3509 3647 2328 
Q 3647 1150 3233 529 
Q 2819 -91 2034 -91 
Q 1250 -91 836 529 
Q 422 1150 422 2328 
Q 422 3509 836 4129 
Q 1250 4750 2034 4750 
z
" transform="scale(0.015625)"/>
       </defs>
       <use xlink:href="#DejaVuSans-30"/>
      </g>
     </g>
    </g>
    <g id="xtick_3">
     <g id="line2d_5">
      <path d="M 365.628085 291.28 
L 365.628085 3 
" clip-path="url(#p5eeb40a3cf)" style="fill: none; stroke: #b0b0b0; stroke-width: 0.8; stroke-linecap: square"/>
     </g>
     <g id="line2d_6">
      <g>
       <use xlink:href="#m1d4585d101" x="365.628085" y="291.28" style="stroke: #000000; stroke-width: 0.8"/>
      </g>
     </g>
     <g id="text_3">
      <!-- 2 -->
      <g transform="translate(359.265585 313.476875) scale(0.2 -0.2)">
       <use xlink:href="#DejaVuSans-32"/>
      </g>
     </g>
    </g>
    <g id="text_4">
     <!-- log10 of FEvals ratio -->
     <g transform="translate(141.371312 336.833125) scale(0.2 -0.2)">
      <defs>
       <path id="DejaVuSans-6c" d="M 603 4863 
L 1178 4863 
L 1178 0 
L 603 0 
L 603 4863 
z
" transform="scale(0.015625)"/>
       <path id="DejaVuSans-6f" d="M 1959 3097 
Q 1497 3097 1228 2736 
Q 959 2375 959 1747 
Q 959 1119 1226 758 
Q 1494 397 1959 397 
Q 2419 397 2687 759 
Q 2956 1122 2956 1747 
Q 2956 2369 2687 2733 
Q 2419 3097 1959 3097 
z
M 1959 3584 
Q 2709 3584 3137 3096 
Q 3566 2609 3566 1747 
Q 3566 888 3137 398 
Q 2709 -91 1959 -91 
Q 1206 -91 779 398 
Q 353 888 353 1747 
Q 353 2609 779 3096 
Q 1206 3584 1959 3584 
z
" transform="scale(0.015625)"/>
       <path id="DejaVuSans-67" d="M 2906 1791 
Q 2906 2416 2648 2759 
Q 2391 3103 1925 3103 
Q 1463 3103 1205 2759 
Q 947 2416 947 1791 
Q 947 1169 1205 825 
Q 1463 481 1925 481 
Q 2391 481 2648 825 
Q 2906 1169 2906 1791 
z
M 3481 434 
Q 3481 -459 3084 -895 
Q 2688 -1331 1869 -1331 
Q 1566 -1331 1297 -1286 
Q 1028 -1241 775 -1147 
L 775 -588 
Q 1028 -725 1275 -790 
Q 1522 -856 1778 -856 
Q 2344 -856 2625 -561 
Q 2906 -266 2906 331 
L 2906 616 
Q 2728 306 2450 153 
Q 2172 0 1784 0 
Q 1141 0 747 490 
Q 353 981 353 1791 
Q 353 2603 747 3093 
Q 1141 3584 1784 3584 
Q 2172 3584 2450 3431 
Q 2728 3278 2906 2969 
L 2906 3500 
L 3481 3500 
L 3481 434 
z
" transform="scale(0.015625)"/>
       <path id="DejaVuSans-31" d="M 794 531 
L 1825 531 
L 1825 4091 
L 703 3866 
L 703 4441 
L 1819 4666 
L 2450 4666 
L 2450 531 
L 3481 531 
L 3481 0 
L 794 0 
L 794 531 
z
" transform="scale(0.015625)"/>
       <path id="DejaVuSans-20" transform="scale(0.015625)"/>
       <path id="DejaVuSans-66" d="M 2375 4863 
L 2375 4384 
L 1825 4384 
Q 1516 4384 1395 4259 
Q 1275 4134 1275 3809 
L 1275 3500 
L 2222 3500 
L 2222 3053 
L 1275 3053 
L 1275 0 
L 697 0 
L 697 3053 
L 147 3053 
L 147 3500 
L 697 3500 
L 697 3744 
Q 697 4328 969 4595 
Q 1241 4863 1831 4863 
L 2375 4863 
z
" transform="scale(0.015625)"/>
       <path id="DejaVuSans-46" d="M 628 4666 
L 3309 4666 
L 3309 4134 
L 1259 4134 
L 1259 2759 
L 3109 2759 
L 3109 2228 
L 1259 2228 
L 1259 0 
L 628 0 
L 628 4666 
z
" transform="scale(0.015625)"/>
       <path id="DejaVuSans-45" d="M 628 4666 
L 3578 4666 
L 3578 4134 
L 1259 4134 
L 1259 2753 
L 3481 2753 
L 3481 2222 
L 1259 2222 
L 1259 531 
L 3634 531 
L 3634 0 
L 628 0 
L 628 4666 
z
" transform="scale(0.015625)"/>
       <path id="DejaVuSans-76" d="M 191 3500 
L 800 3500 
L 1894 563 
L 2988 3500 
L 3597 3500 
L 2284 0 
L 1503 0 
L 191 3500 
z
" transform="scale(0.015625)"/>
       <path id="DejaVuSans-61" d="M 2194 1759 
Q 1497 1759 1228 1600 
Q 959 1441 959 1056 
Q 959 750 1161 570 
Q 1363 391 1709 391 
Q 2188 391 2477 730 
Q 2766 1069 2766 1631 
L 2766 1759 
L 2194 1759 
z
M 3341 1997 
L 3341 0 
L 2766 0 
L 2766 531 
Q 2569 213 2275 61 
Q 1981 -91 1556 -91 
Q 1019 -91 701 211 
Q 384 513 384 1019 
Q 384 1609 779 1909 
Q 1175 2209 1959 2209 
L 2766 2209 
L 2766 2266 
Q 2766 2663 2505 2880 
Q 2244 3097 1772 3097 
Q 1472 3097 1187 3025 
Q 903 2953 641 2809 
L 641 3341 
Q 956 3463 1253 3523 
Q 1550 3584 1831 3584 
Q 2591 3584 2966 3190 
Q 3341 2797 3341 1997 
z
" transform="scale(0.015625)"/>
       <path id="DejaVuSans-73" d="M 2834 3397 
L 2834 2853 
Q 2591 2978 2328 3040 
Q 2066 3103 1784 3103 
Q 1356 3103 1142 2972 
Q 928 2841 928 2578 
Q 928 2378 1081 2264 
Q 1234 2150 1697 2047 
L 1894 2003 
Q 2506 1872 2764 1633 
Q 3022 1394 3022 966 
Q 3022 478 2636 193 
Q 2250 -91 1575 -91 
Q 1294 -91 989 -36 
Q 684 19 347 128 
L 347 722 
Q 666 556 975 473 
Q 1284 391 1588 391 
Q 1994 391 2212 530 
Q 2431 669 2431 922 
Q 2431 1156 2273 1281 
Q 2116 1406 1581 1522 
L 1381 1569 
Q 847 1681 609 1914 
Q 372 2147 372 2553 
Q 372 3047 722 3315 
Q 1072 3584 1716 3584 
Q 2034 3584 2315 3537 
Q 2597 3491 2834 3397 
z
" transform="scale(0.015625)"/>
       <path id="DejaVuSans-72" d="M 2631 2963 
Q 2534 3019 2420 3045 
Q 2306 3072 2169 3072 
Q 1681 3072 1420 2755 
Q 1159 2438 1159 1844 
L 1159 0 
L 581 0 
L 581 3500 
L 1159 3500 
L 1159 2956 
Q 1341 3275 1631 3429 
Q 1922 3584 2338 3584 
Q 2397 3584 2469 3576 
Q 2541 3569 2628 3553 
L 2631 2963 
z
" transform="scale(0.015625)"/>
       <path id="DejaVuSans-74" d="M 1172 4494 
L 1172 3500 
L 2356 3500 
L 2356 3053 
L 1172 3053 
L 1172 1153 
Q 1172 725 1289 603 
Q 1406 481 1766 481 
L 2356 481 
L 2356 0 
L 1766 0 
Q 1100 0 847 248 
Q 594 497 594 1153 
L 594 3053 
L 172 3053 
L 172 3500 
L 594 3500 
L 594 4494 
L 1172 4494 
z
" transform="scale(0.015625)"/>
       <path id="DejaVuSans-69" d="M 603 3500 
L 1178 3500 
L 1178 0 
L 603 0 
L 603 3500 
z
M 603 4863 
L 1178 4863 
L 1178 4134 
L 603 4134 
L 603 4863 
z
" transform="scale(0.015625)"/>
      </defs>
      <use xlink:href="#DejaVuSans-6c"/>
      <use xlink:href="#DejaVuSans-6f" x="27.783203"/>
      <use xlink:href="#DejaVuSans-67" x="88.964844"/>
      <use xlink:href="#DejaVuSans-31" x="152.441406"/>
      <use xlink:href="#DejaVuSans-30" x="216.064453"/>
      <use xlink:href="#DejaVuSans-20" x="279.6875"/>
      <use xlink:href="#DejaVuSans-6f" x="311.474609"/>
      <use xlink:href="#DejaVuSans-66" x="372.65625"/>
      <use xlink:href="#DejaVuSans-20" x="407.861328"/>
      <use xlink:href="#DejaVuSans-46" x="439.648438"/>
      <use xlink:href="#DejaVuSans-45" x="497.167969"/>
      <use xlink:href="#DejaVuSans-76" x="560.351562"/>
      <use xlink:href="#DejaVuSans-61" x="619.53125"/>
      <use xlink:href="#DejaVuSans-6c" x="680.810547"/>
      <use xlink:href="#DejaVuSans-73" x="708.59375"/>
      <use xlink:href="#DejaVuSans-20" x="760.693359"/>
      <use xlink:href="#DejaVuSans-72" x="792.480469"/>
      <use xlink:href="#DejaVuSans-61" x="833.59375"/>
      <use xlink:href="#DejaVuSans-74" x="894.873047"/>
      <use xlink:href="#DejaVuSans-69" x="934.082031"/>
      <use xlink:href="#DejaVuSans-6f" x="961.865234"/>
     </g>
    </g>
   </g>
   <g id="matplotlib.axis_2">
    <g id="ytick_1">
     <g id="line2d_7">
      <path d="M 34.16 288.453725 
L 453.192 288.453725 
" clip-path="url(#p5eeb40a3cf)" style="fill: none; stroke: #b0b0b0; stroke-width: 0.8; stroke-linecap: square"/>
     </g>
     <g id="line2d_8">
      <defs>
       <path id="m884275ea0c" d="M 0 0 
L -3.5 0 
" style="stroke: #000000; stroke-width: 0.8"/>
      </defs>
      <g>
       <use xlink:href="#m884275ea0c" x="34.16" y="288.453725" style="stroke: #000000; stroke-width: 0.8"/>
      </g>
     </g>
    </g>
    <g id="ytick_2">
     <g id="line2d_9">
      <path d="M 34.16 217.796863 
L 453.192 217.796863 
" clip-path="url(#p5eeb40a3cf)" style="fill: none; stroke: #b0b0b0; stroke-width: 0.8; stroke-linecap: square"/>
     </g>
     <g id="line2d_10">
      <g>
       <use xlink:href="#m884275ea0c" x="34.16" y="217.796863" style="stroke: #000000; stroke-width: 0.8"/>
      </g>
     </g>
    </g>
    <g id="ytick_3">
     <g id="line2d_11">
      <path d="M 34.16 147.14 
L 453.192 147.14 
" clip-path="url(#p5eeb40a3cf)" style="fill: none; stroke: #b0b0b0; stroke-width: 0.8; stroke-linecap: square"/>
     </g>
     <g id="line2d_12">
      <g>
       <use xlink:href="#m884275ea0c" x="34.16" y="147.14" style="stroke: #000000; stroke-width: 0.8"/>
      </g>
     </g>
    </g>
    <g id="ytick_4">
     <g id="line2d_13">
      <path d="M 34.16 76.483137 
L 453.192 76.483137 
" clip-path="url(#p5eeb40a3cf)" style="fill: none; stroke: #b0b0b0; stroke-width: 0.8; stroke-linecap: square"/>
     </g>
     <g id="line2d_14">
      <g>
       <use xlink:href="#m884275ea0c" x="34.16" y="76.483137" style="stroke: #000000; stroke-width: 0.8"/>
      </g>
     </g>
    </g>
    <g id="ytick_5">
     <g id="line2d_15">
      <path d="M 34.16 5.826275 
L 453.192 5.826275 
" clip-path="url(#p5eeb40a3cf)" style="fill: none; stroke: #b0b0b0; stroke-width: 0.8; stroke-linecap: square"/>
     </g>
     <g id="line2d_16">
      <g>
       <use xlink:href="#m884275ea0c" x="34.16" y="5.826275" style="stroke: #000000; stroke-width: 0.8"/>
      </g>
     </g>
    </g>
    <g id="text_5">
     <!-- proportion of trials -->
     <g transform="translate(19.000625 240.14625) rotate(-90) scale(0.2 -0.2)">
      <defs>
       <path id="DejaVuSans-70" d="M 1159 525 
L 1159 -1331 
L 581 -1331 
L 581 3500 
L 1159 3500 
L 1159 2969 
Q 1341 3281 1617 3432 
Q 1894 3584 2278 3584 
Q 2916 3584 3314 3078 
Q 3713 2572 3713 1747 
Q 3713 922 3314 415 
Q 2916 -91 2278 -91 
Q 1894 -91 1617 61 
Q 1341 213 1159 525 
z
M 3116 1747 
Q 3116 2381 2855 2742 
Q 2594 3103 2138 3103 
Q 1681 3103 1420 2742 
Q 1159 2381 1159 1747 
Q 1159 1113 1420 752 
Q 1681 391 2138 391 
Q 2594 391 2855 752 
Q 3116 1113 3116 1747 
z
" transform="scale(0.015625)"/>
       <path id="DejaVuSans-6e" d="M 3513 2113 
L 3513 0 
L 2938 0 
L 2938 2094 
Q 2938 2591 2744 2837 
Q 2550 3084 2163 3084 
Q 1697 3084 1428 2787 
Q 1159 2491 1159 1978 
L 1159 0 
L 581 0 
L 581 3500 
L 1159 3500 
L 1159 2956 
Q 1366 3272 1645 3428 
Q 1925 3584 2291 3584 
Q 2894 3584 3203 3211 
Q 3513 2838 3513 2113 
z
" transform="scale(0.015625)"/>
      </defs>
      <use xlink:href="#DejaVuSans-70"/>
      <use xlink:href="#DejaVuSans-72" x="63.476562"/>
      <use xlink:href="#DejaVuSans-6f" x="102.339844"/>
      <use xlink:href="#DejaVuSans-70" x="163.521484"/>
      <use xlink:href="#DejaVuSans-6f" x="226.998047"/>
      <use xlink:href="#DejaVuSans-72" x="288.179688"/>
      <use xlink:href="#DejaVuSans-74" x="329.292969"/>
      <use xlink:href="#DejaVuSans-69" x="368.501953"/>
      <use xlink:href="#DejaVuSans-6f" x="396.285156"/>
      <use xlink:href="#DejaVuSans-6e" x="457.466797"/>
      <use xlink:href="#DejaVuSans-20" x="520.845703"/>
      <use xlink:href="#DejaVuSans-6f" x="552.632812"/>
      <use xlink:href="#DejaVuSans-66" x="613.814453"/>
      <use xlink:href="#DejaVuSans-20" x="649.019531"/>
      <use xlink:href="#DejaVuSans-74" x="680.806641"/>
      <use xlink:href="#DejaVuSans-72" x="720.015625"/>
      <use xlink:href="#DejaVuSans-69" x="761.128906"/>
      <use xlink:href="#DejaVuSans-61" x="788.912109"/>
      <use xlink:href="#DejaVuSans-6c" x="850.191406"/>
      <use xlink:href="#DejaVuSans-73" x="877.974609"/>
     </g>
    </g>
   </g>
   <g id="line2d_17">
    <path d="M 34.16 257.355559 
L 52.66037 257.355559 
L 52.66037 257.050675 
L 52.845224 257.050675 
L 52.845224 256.745791 
L 62.329153 256.745791 
L 62.329153 256.440907 
L 62.514007 256.440907 
L 62.514007 256.136023 
L 69.61915 256.136023 
L 69.61915 255.831139 
L 69.977212 255.831139 
L 69.977212 255.526255 
L 70.544079 255.526255 
L 70.544079 255.221371 
L 73.376231 255.221371 
L 73.376231 254.916488 
L 73.561084 254.916488 
L 73.561084 254.611604 
L 76.289226 254.611604 
L 76.289226 254.30672 
L 76.474079 254.30672 
L 76.474079 254.001836 
L 86.656196 254.001836 
L 86.656196 253.696952 
L 86.84105 253.696952 
L 86.903689 253.087184 
L 87.088543 253.087184 
L 87.088543 252.7823 
L 89.707349 252.7823 
L 89.707349 252.477416 
L 89.958374 252.477416 
L 89.958374 252.172532 
L 90.214679 252.172532 
L 90.214679 251.867648 
L 91.510887 251.867648 
L 91.510887 251.562764 
L 91.868949 251.562764 
L 91.868949 251.25788 
L 92.435816 251.25788 
L 92.435816 250.952996 
L 93.374393 250.952996 
L 93.374393 250.648112 
L 103.043176 250.648112 
L 103.043176 250.343228 
L 111.599086 250.343228 
L 111.599086 250.038344 
L 111.850111 250.038344 
L 111.850111 249.73346 
L 112.106416 249.73346 
L 112.106416 249.428576 
L 113.003438 249.428576 
L 113.003438 249.123692 
L 114.090253 249.123692 
L 114.090253 248.818808 
L 115.071211 248.818808 
L 115.071211 248.513924 
L 115.218253 248.513924 
L 115.218253 248.20904 
L 117.003248 248.20904 
L 117.003248 247.904156 
L 118.163642 247.904156 
L 118.163642 247.599272 
L 118.348495 247.599272 
L 118.348495 247.294388 
L 122.672221 247.294388 
L 122.672221 246.989504 
L 124.739993 246.989504 
L 124.739993 246.68462 
L 124.887036 246.68462 
L 124.887036 246.379736 
L 127.370219 246.379736 
L 127.370219 246.074852 
L 127.617712 246.074852 
L 127.617712 245.769968 
L 133.719299 245.769968 
L 133.719299 245.465084 
L 135.787071 245.465084 
L 135.787071 245.1602 
L 135.934113 245.1602 
L 135.934113 244.855316 
L 136.632294 244.855316 
L 136.632294 244.550432 
L 138.700066 244.550432 
L 138.700066 244.245548 
L 138.847109 244.245548 
L 138.847109 243.940664 
L 146.999264 243.940664 
L 146.999264 243.63578 
L 147.246757 243.63578 
L 147.246757 243.330896 
L 148.232801 243.330896 
L 148.232801 243.026012 
L 149.067037 243.026012 
L 149.067037 242.721128 
L 149.214079 242.721128 
L 149.31453 242.11136 
L 149.461572 242.11136 
L 149.461572 241.806476 
L 158.877664 241.806476 
L 158.877664 241.501592 
L 165.049343 241.501592 
L 165.049343 241.196708 
L 171.815897 241.196708 
L 171.815897 240.891824 
L 174.718126 240.891824 
L 174.718126 240.58694 
L 175.414793 240.58694 
L 175.414793 240.282056 
L 176.440014 240.282056 
L 176.440014 239.977172 
L 176.579759 239.977172 
L 176.65869 239.367404 
L 177.50653 239.367404 
L 177.50653 239.06252 
L 178.50671 239.06252 
L 178.50671 238.757636 
L 178.707728 238.757636 
L 178.707728 238.452753 
L 180.115878 238.452753 
L 180.115878 238.147869 
L 180.574482 238.147869 
L 180.574482 237.842985 
L 180.721525 237.842985 
L 180.721525 237.538101 
L 181.54991 237.538101 
L 181.636119 236.928333 
L 181.734764 236.928333 
L 181.820973 236.013681 
L 181.96175 236.013681 
L 181.96175 235.708797 
L 182.699957 235.708797 
L 182.699957 235.403913 
L 183.145036 235.403913 
L 183.145036 235.099029 
L 184.118736 235.099029 
L 184.118736 234.794145 
L 184.303589 234.794145 
L 184.303589 234.489261 
L 184.507697 234.489261 
L 184.507697 234.184377 
L 184.692551 234.184377 
L 184.692551 233.879493 
L 185.765204 233.879493 
L 185.765204 233.574609 
L 186.489491 233.574609 
L 186.489491 232.964841 
L 188.37651 232.964841 
L 188.477069 232.050189 
L 188.549029 232.050189 
L 188.549029 231.745305 
L 188.678199 231.745305 
L 188.678199 231.440421 
L 190.763306 231.440421 
L 190.763306 231.135537 
L 191.831871 231.135537 
L 191.831871 230.830653 
L 193.437305 230.830653 
L 193.437305 230.220885 
L 193.603335 230.220885 
L 193.603335 229.916001 
L 194.363623 229.916001 
L 194.363623 229.611117 
L 194.935377 229.611117 
L 194.935377 229.306233 
L 196.865557 229.306233 
L 196.865557 229.001349 
L 197.387378 229.001349 
L 197.487989 228.391581 
L 197.846052 228.391581 
L 197.846052 228.086697 
L 198.412918 228.086697 
L 198.412918 227.781813 
L 198.834263 227.781813 
L 198.834263 227.476929 
L 199.045169 227.476929 
L 199.045169 227.172045 
L 199.292662 227.172045 
L 199.292662 226.867161 
L 199.423588 226.867161 
L 199.423588 226.562277 
L 199.668668 226.562277 
L 199.668668 226.257393 
L 200.026731 226.257393 
L 200.080684 225.647625 
L 200.162854 225.647625 
L 200.221441 224.732973 
L 200.593598 224.732973 
L 200.593598 224.428089 
L 201.294688 224.428089 
L 201.294688 224.123205 
L 202.155314 224.123205 
L 202.155314 223.818321 
L 202.336583 223.818321 
L 202.343127 223.208553 
L 202.581684 223.208553 
L 202.581684 222.903669 
L 202.722797 222.903669 
L 202.742128 222.293901 
L 203.447459 222.293901 
L 203.447459 221.989017 
L 203.698973 221.989017 
L 203.761751 221.37925 
L 204.786971 221.37925 
L 204.786971 221.074366 
L 205.419311 221.074366 
L 205.421713 220.464598 
L 205.751656 220.464598 
L 205.853487 219.85483 
L 205.91607 219.85483 
L 205.91607 219.549946 
L 206.100923 219.549946 
L 206.182001 218.940178 
L 206.630256 218.940178 
L 206.630256 218.635294 
L 207.297027 218.635294 
L 207.381805 217.720642 
L 207.48188 217.720642 
L 207.48188 217.415758 
L 208.323091 217.415758 
L 208.422833 216.80599 
L 209.131751 216.80599 
L 209.131751 216.501106 
L 209.268961 216.501106 
L 209.268961 216.196222 
L 209.389606 216.196222 
L 209.389606 215.891338 
L 209.877759 215.891338 
L 209.877759 215.586454 
L 210.302519 215.586454 
L 210.302519 215.28157 
L 210.652641 215.28157 
L 210.652641 214.976686 
L 211.046915 214.976686 
L 211.046915 214.671802 
L 211.463956 214.671802 
L 211.491993 213.75715 
L 211.613993 213.75715 
L 211.613993 213.452266 
L 211.824096 213.452266 
L 211.899062 212.842498 
L 212.01191 212.842498 
L 212.01191 212.537614 
L 212.132125 212.537614 
L 212.132125 212.23273 
L 212.39158 212.23273 
L 212.463378 211.622962 
L 212.703554 211.622962 
L 212.703554 211.318078 
L 212.951047 211.318078 
L 212.9776 210.70831 
L 213.369926 210.70831 
L 213.369926 210.403426 
L 214.220267 210.403426 
L 214.220267 210.098542 
L 214.332022 210.098542 
L 214.332022 209.793658 
L 214.583034 209.793658 
L 214.583034 209.488774 
L 214.836448 209.488774 
L 214.836448 208.879006 
L 215.028113 208.879006 
L 215.09231 208.269238 
L 215.191832 208.269238 
L 215.191832 207.964354 
L 215.710079 207.964354 
L 215.731021 207.354586 
L 216.299039 207.354586 
L 216.299039 207.049702 
L 216.756242 207.049702 
L 216.756242 206.744818 
L 217.552075 206.744818 
L 217.576188 205.830166 
L 217.822758 205.830166 
L 217.827213 205.220399 
L 218.083519 205.220399 
L 218.083519 204.915515 
L 218.372567 204.915515 
L 218.372567 204.305747 
L 218.518472 204.305747 
L 218.518472 204.000863 
L 218.757294 204.000863 
L 218.757294 203.695979 
L 219.200184 203.695979 
L 219.200184 203.391095 
L 219.56295 203.391095 
L 219.56295 203.086211 
L 219.756867 203.086211 
L 219.756867 202.781327 
L 220.007893 202.781327 
L 220.007893 202.476443 
L 220.178828 202.476443 
L 220.264198 201.561791 
L 220.392104 201.561791 
L 220.392104 201.256907 
L 220.528228 201.256907 
L 220.571155 200.647139 
L 220.809371 200.647139 
L 220.809371 200.342255 
L 221.152392 200.342255 
L 221.194279 199.732487 
L 221.282776 199.732487 
L 221.282776 199.427603 
L 221.784263 199.427603 
L 221.784263 198.817835 
L 222.046892 198.817835 
L 222.117368 198.208067 
L 222.263933 198.208067 
L 222.350142 197.598299 
L 222.393962 197.598299 
L 222.490919 196.988531 
L 222.552723 196.988531 
L 222.552723 196.683647 
L 222.752025 196.683647 
L 222.752025 196.378763 
L 222.871174 196.378763 
L 222.871174 196.073879 
L 223.016185 196.073879 
L 223.058987 195.464111 
L 223.142589 195.464111 
L 223.142589 195.159227 
L 223.282334 195.159227 
L 223.318892 194.549459 
L 223.438658 194.549459 
L 223.519066 193.634807 
L 223.714948 193.634807 
L 223.714948 193.329923 
L 223.956712 193.329923 
L 223.956712 193.025039 
L 224.141565 193.025039 
L 224.209105 192.415271 
L 224.281757 192.415271 
L 224.281757 192.110387 
L 224.407134 192.110387 
L 224.407134 191.805503 
L 224.795978 191.805503 
L 224.877783 190.890851 
L 225.114299 190.890851 
L 225.22172 190.281083 
L 225.320382 190.281083 
L 225.320382 189.671315 
L 225.623032 189.671315 
L 225.725149 188.756663 
L 225.784169 188.756663 
L 225.784169 188.45178 
L 225.971982 188.45178 
L 225.971982 188.146896 
L 226.083212 188.146896 
L 226.083212 187.842012 
L 226.325223 187.842012 
L 226.351653 187.232244 
L 226.480344 187.232244 
L 226.552305 186.317592 
L 226.650078 186.317592 
L 226.650078 186.012708 
L 226.805719 186.012708 
L 226.869453 185.098056 
L 227.226353 185.098056 
L 227.247163 184.488288 
L 227.346116 184.488288 
L 227.346116 184.183404 
L 227.474541 184.183404 
L 227.528457 183.573636 
L 228.007452 183.573636 
L 228.110493 182.963868 
L 228.47668 182.963868 
L 228.534207 182.3541 
L 228.889418 182.3541 
L 228.889418 182.049216 
L 229.002406 182.049216 
L 229.002406 181.744332 
L 229.402532 181.744332 
L 229.501901 180.82968 
L 229.847611 180.82968 
L 229.92412 180.219912 
L 230.259112 180.219912 
L 230.31457 179.30526 
L 230.552615 179.30526 
L 230.568416 178.695492 
L 230.94934 178.695492 
L 230.94934 178.390608 
L 231.074859 178.390608 
L 231.074859 178.085724 
L 231.741021 178.085724 
L 231.741021 177.78084 
L 231.998379 177.78084 
L 232.070326 176.866188 
L 232.148099 176.866188 
L 232.221506 175.951536 
L 232.315528 175.951536 
L 232.329854 175.341768 
L 232.478091 175.341768 
L 232.540425 174.732 
L 232.601303 174.732 
L 232.601303 174.427116 
L 232.938652 174.427116 
L 232.938652 174.122232 
L 233.192066 174.122232 
L 233.192066 173.20758 
L 233.626523 173.20758 
L 233.724512 172.292928 
L 233.753533 172.292928 
L 233.753533 171.683161 
L 234.170574 171.683161 
L 234.170574 171.378277 
L 234.358622 171.378277 
L 234.358622 171.073393 
L 234.67577 171.073393 
L 234.693039 170.463625 
L 235.242849 170.463625 
L 235.298894 169.853857 
L 235.545498 169.853857 
L 235.545498 169.548973 
L 235.761844 169.548973 
L 235.761844 169.244089 
L 236.15114 169.244089 
L 236.206923 168.634321 
L 236.338953 168.634321 
L 236.438766 167.719669 
L 236.586446 167.719669 
L 236.586446 167.414785 
L 236.718623 167.414785 
L 236.793978 166.500133 
L 236.966116 166.500133 
L 236.966116 166.195249 
L 237.198651 166.195249 
L 237.209284 165.585481 
L 237.457082 165.585481 
L 237.515799 164.975713 
L 237.615918 164.975713 
L 237.654363 164.365945 
L 237.803362 164.365945 
L 237.803362 164.061061 
L 237.958939 164.061061 
L 237.958939 163.756177 
L 238.138923 163.756177 
L 238.224717 163.146409 
L 238.252725 163.146409 
L 238.276087 162.536641 
L 238.534446 162.536641 
L 238.534446 162.231757 
L 238.899212 162.231757 
L 238.970725 161.621989 
L 239.083934 161.621989 
L 239.083934 161.317105 
L 239.240168 161.317105 
L 239.252147 160.707337 
L 239.395485 160.707337 
L 239.453364 160.097569 
L 239.529807 160.097569 
L 239.551377 159.182917 
L 239.766369 159.182917 
L 239.817324 158.573149 
L 239.886467 158.573149 
L 239.886467 158.268265 
L 240.139881 158.268265 
L 240.139881 157.658497 
L 240.331545 157.658497 
L 240.331545 157.353613 
L 240.503477 157.353613 
L 240.503477 157.048729 
L 240.626082 157.048729 
L 240.633791 156.438961 
L 240.873575 156.438961 
L 240.873575 156.134077 
L 240.998817 156.134077 
L 241.025634 155.219426 
L 241.152038 155.219426 
L 241.152038 154.914542 
L 241.330968 154.914542 
L 241.402259 154.304774 
L 241.760836 154.304774 
L 241.760836 153.99989 
L 241.892978 153.99989 
L 241.979187 153.390122 
L 242.119964 153.390122 
L 242.119964 153.085238 
L 242.42748 153.085238 
L 242.498848 151.560818 
L 242.657353 151.560818 
L 242.746727 150.341282 
L 242.989492 150.341282 
L 243.03647 149.42663 
L 243.258235 149.42663 
L 243.268583 148.816862 
L 243.369851 148.816862 
L 243.417641 148.207094 
L 243.493995 148.207094 
L 243.603337 147.597326 
L 243.616297 147.597326 
L 243.676 146.37779 
L 243.960751 146.37779 
L 244.046959 145.463138 
L 244.093041 145.463138 
L 244.194002 143.32895 
L 244.210999 143.32895 
L 244.210999 143.024066 
L 244.334779 143.024066 
L 244.334779 142.719182 
L 244.461804 142.719182 
L 244.461804 142.414298 
L 244.616272 142.414298 
L 244.616272 142.109414 
L 244.850765 142.109414 
L 244.931285 141.194762 
L 245.107784 141.194762 
L 245.107784 140.889878 
L 245.609819 140.889878 
L 245.609819 140.584994 
L 245.813348 140.584994 
L 245.857312 139.670342 
L 246.064373 139.670342 
L 246.107207 139.060574 
L 246.181579 139.060574 
L 246.181579 138.755691 
L 246.320679 138.755691 
L 246.341197 138.145923 
L 246.499192 138.145923 
L 246.594351 136.926387 
L 246.621428 136.926387 
L 246.676619 136.011735 
L 246.889825 136.011735 
L 246.918538 135.401967 
L 247.06558 135.401967 
L 247.102161 134.792199 
L 247.212119 134.792199 
L 247.212119 134.487315 
L 247.71022 134.487315 
L 247.71022 134.182431 
L 247.873152 134.182431 
L 247.946632 132.962895 
L 248.011049 132.962895 
L 248.011049 132.658011 
L 248.175191 132.658011 
L 248.175191 132.353127 
L 248.538351 132.353127 
L 248.538351 132.048243 
L 248.687423 132.048243 
L 248.73544 131.438475 
L 249.01838 131.438475 
L 249.01838 131.133591 
L 249.132502 131.133591 
L 249.19859 129.914055 
L 249.346973 129.914055 
L 249.401925 128.999403 
L 249.585189 128.999403 
L 249.688835 128.084751 
L 249.801956 128.084751 
L 249.801956 127.779867 
L 250.1354 127.779867 
L 250.193987 126.865215 
L 250.287245 126.865215 
L 250.287245 126.560331 
L 250.623815 126.560331 
L 250.701058 125.340795 
L 250.828307 125.340795 
L 250.898593 124.731027 
L 250.977122 124.731027 
L 251.064991 123.816375 
L 251.29427 123.816375 
L 251.29427 123.206607 
L 251.726279 123.206607 
L 251.726279 122.901723 
L 251.917394 122.901723 
L 251.917394 122.596839 
L 252.311412 122.596839 
L 252.421315 121.987072 
L 252.476957 121.987072 
L 252.476957 121.377304 
L 252.792794 121.377304 
L 252.792794 121.07242 
L 253.188549 121.07242 
L 253.249136 120.462652 
L 253.344783 120.462652 
L 253.344783 120.157768 
L 253.734297 120.157768 
L 253.738622 119.243116 
L 254.498911 119.243116 
L 254.498911 118.938232 
L 254.696576 118.938232 
L 254.805675 117.718696 
L 254.995384 117.718696 
L 255.059272 117.108928 
L 255.118547 117.108928 
L 255.118547 116.804044 
L 255.324116 116.804044 
L 255.37642 116.194276 
L 255.440463 116.194276 
L 255.440463 115.889392 
L 255.826033 115.889392 
L 255.826033 115.279624 
L 255.971536 115.279624 
L 256.058695 114.060088 
L 256.184812 114.060088 
L 256.184812 113.755204 
L 256.319319 113.755204 
L 256.375843 113.145436 
L 256.435824 113.145436 
L 256.48 112.535668 
L 256.548549 112.535668 
L 256.580335 111.621016 
L 256.788866 111.621016 
L 256.890064 110.706364 
L 256.9451 110.706364 
L 256.998967 110.096596 
L 257.373759 110.096596 
L 257.373759 109.791712 
L 257.513188 109.791712 
L 257.513188 109.486828 
L 257.819337 109.486828 
L 257.819337 109.181944 
L 257.949468 109.181944 
L 257.986222 108.267292 
L 258.431301 108.267292 
L 258.431301 107.962408 
L 258.784917 107.962408 
L 258.784917 107.35264 
L 258.912539 107.35264 
L 258.96955 106.437988 
L 259.030498 106.437988 
L 259.030498 106.133104 
L 259.305395 106.133104 
L 259.305395 105.82822 
L 259.424771 105.82822 
L 259.424771 105.218453 
L 259.612533 105.218453 
L 259.622543 104.608685 
L 259.948233 104.608685 
L 259.948233 104.303801 
L 260.215971 104.303801 
L 260.245668 103.389149 
L 260.517974 103.389149 
L 260.517974 103.084265 
L 261.014749 103.084265 
L 261.019461 102.169613 
L 261.259506 102.169613 
L 261.259506 101.864729 
L 261.41574 101.864729 
L 261.517397 100.645193 
L 261.775755 100.645193 
L 261.775755 100.035425 
L 262.031618 100.035425 
L 262.031618 99.425657 
L 262.158897 99.425657 
L 262.158897 99.120773 
L 262.330848 99.120773 
L 262.330848 98.815889 
L 262.505927 98.815889 
L 262.516959 98.206121 
L 262.662161 98.206121 
L 262.766607 97.596353 
L 262.884393 97.596353 
L 262.939646 96.986585 
L 263.017632 96.986585 
L 263.083826 95.767049 
L 263.158663 95.767049 
L 263.242455 95.157281 
L 263.273937 95.157281 
L 263.346434 94.547513 
L 263.545262 94.547513 
L 263.597459 93.937745 
L 263.694684 93.937745 
L 263.778288 93.327977 
L 263.809322 93.327977 
L 263.853764 92.718209 
L 264.127297 92.718209 
L 264.127297 92.413325 
L 264.387086 92.413325 
L 264.387086 92.108441 
L 264.670734 92.108441 
L 264.764097 91.193789 
L 264.808994 91.193789 
L 264.808994 89.974253 
L 265.208328 89.974253 
L 265.208328 89.669369 
L 265.732732 89.669369 
L 265.732732 89.059601 
L 265.886944 89.059601 
L 265.886944 88.754718 
L 266.174715 88.754718 
L 266.277741 87.535182 
L 266.45547 87.535182 
L 266.45547 87.230298 
L 266.635356 87.230298 
L 266.653255 86.62053 
L 267.064269 86.62053 
L 267.118136 86.010762 
L 267.517093 86.010762 
L 267.517093 85.705878 
L 267.640095 85.705878 
L 267.660576 84.791226 
L 267.846398 84.791226 
L 267.940807 83.876574 
L 268.1769 83.876574 
L 268.226069 83.266806 
L 268.32691 83.266806 
L 268.333134 82.657038 
L 268.473952 82.657038 
L 268.473952 82.352154 
L 268.72357 82.352154 
L 268.727092 81.437502 
L 269.707867 81.437502 
L 269.807049 80.827734 
L 269.854909 80.827734 
L 269.963282 80.217966 
L 269.99771 80.217966 
L 269.99771 79.608198 
L 270.151374 79.608198 
L 270.151374 78.99843 
L 270.730918 78.99843 
L 270.730918 78.693546 
L 271.599243 78.693546 
L 271.599243 78.388662 
L 271.756809 78.388662 
L 271.756809 77.169126 
L 272.133528 77.169126 
L 272.133528 76.864242 
L 272.482676 76.864242 
L 272.482676 76.559358 
L 272.598666 76.559358 
L 272.598666 76.254474 
L 273.112887 76.254474 
L 273.112887 75.94959 
L 273.525633 75.94959 
L 273.525633 75.644706 
L 273.773126 75.644706 
L 273.773126 75.339822 
L 273.889199 75.339822 
L 273.92052 74.730054 
L 274.000889 74.730054 
L 274.045433 74.120286 
L 274.365598 74.120286 
L 274.365598 73.815402 
L 274.888622 73.815402 
L 274.888622 73.510518 
L 275.044855 73.510518 
L 275.044855 73.205634 
L 275.256427 73.205634 
L 275.34009 72.595866 
L 275.402843 72.595866 
L 275.473514 71.986099 
L 275.559077 71.986099 
L 275.559077 71.681215 
L 275.845367 71.681215 
L 275.865225 71.071447 
L 276.945525 71.071447 
L 276.945525 70.461679 
L 277.117265 70.461679 
L 277.117265 70.156795 
L 277.710053 70.156795 
L 277.710053 69.547027 
L 278.135322 69.547027 
L 278.135322 69.242143 
L 278.291556 69.242143 
L 278.291556 68.937259 
L 278.506753 68.937259 
L 278.506753 68.327491 
L 279.641227 68.327491 
L 279.641227 68.022607 
L 280.855948 68.022607 
L 280.855948 67.717723 
L 281.564388 67.717723 
L 281.564388 67.412839 
L 282.173186 67.412839 
L 282.247096 66.803071 
L 282.498121 66.803071 
L 282.498121 66.498187 
L 282.754426 66.498187 
L 282.754426 66.193303 
L 282.972592 66.193303 
L 283.052433 65.583535 
L 283.223617 65.583535 
L 283.223617 65.278651 
L 283.479922 65.278651 
L 283.479922 64.973767 
L 283.695469 64.973767 
L 283.695469 64.668883 
L 283.923355 64.668883 
L 283.923355 64.363999 
L 284.299779 64.363999 
L 284.299779 64.059115 
L 284.555226 64.059115 
L 284.657868 63.144463 
L 285.164024 63.144463 
L 285.164024 62.839579 
L 285.701309 62.839579 
L 285.701309 62.534695 
L 286.367552 62.534695 
L 286.367552 62.229811 
L 286.514594 62.229811 
L 286.514594 61.924927 
L 287.588464 61.924927 
L 287.588464 61.315159 
L 288.055995 61.315159 
L 288.055995 61.010275 
L 288.197263 61.010275 
L 288.197263 60.400507 
L 290.807436 60.400507 
L 290.807436 60.095623 
L 291.124584 60.095623 
L 291.124584 59.790739 
L 291.407812 59.790739 
L 291.407812 59.485855 
L 291.747708 59.485855 
L 291.747708 59.180971 
L 292.556368 59.180971 
L 292.556368 58.876087 
L 292.77718 58.876087 
L 292.77718 58.571203 
L 293.385979 58.571203 
L 293.385979 58.266319 
L 293.938883 58.266319 
L 294.025092 57.656551 
L 294.16587 57.656551 
L 294.16587 57.351667 
L 295.623775 57.351667 
L 295.623775 57.046783 
L 296.266138 57.046783 
L 296.266138 56.741899 
L 296.507709 56.741899 
L 296.507709 56.437015 
L 296.89667 56.437015 
L 296.89667 56.132131 
L 297.779782 56.132131 
L 297.779782 55.827247 
L 299.442847 55.827247 
L 299.442847 55.522364 
L 300.489523 55.522364 
L 300.489523 55.21748 
L 301.098322 55.21748 
L 301.098322 54.912596 
L 302.507856 54.912596 
L 302.507856 54.607712 
L 302.825004 54.607712 
L 302.825004 54.302828 
L 303.448128 54.302828 
L 303.448128 53.997944 
L 305.033079 53.997944 
L 305.033079 53.69306 
L 307.347407 53.69306 
L 307.347407 53.388176 
L 307.597268 53.388176 
L 307.683476 52.778408 
L 307.824254 52.778408 
L 307.824254 52.473524 
L 307.966558 52.473524 
L 307.966558 52.16864 
L 309.480202 52.16864 
L 309.480202 51.863756 
L 309.637363 51.863756 
L 309.637363 51.558872 
L 309.793597 51.558872 
L 309.793597 51.253988 
L 310.166093 51.253988 
L 310.166093 50.949104 
L 310.555055 50.949104 
L 310.555055 50.64422 
L 311.143267 50.64422 
L 311.143267 50.339336 
L 318.305043 50.339336 
L 318.305043 50.034452 
L 319.047827 50.034452 
L 319.047827 49.729568 
L 319.686 49.729568 
L 319.686 49.424684 
L 321.337783 49.424684 
L 321.337783 49.1198 
L 321.494017 49.1198 
L 321.494017 48.814916 
L 324.734396 48.814916 
L 324.734396 48.510032 
L 326.915075 48.510032 
L 326.915075 48.205148 
L 331.044854 48.205148 
L 331.131062 47.59538 
L 331.232667 47.59538 
L 331.318876 46.680728 
L 331.459653 46.680728 
L 331.459653 46.375844 
L 331.612337 46.375844 
L 331.698546 45.766076 
L 331.839324 45.766076 
L 331.839324 45.461192 
L 331.963427 45.461192 
L 331.963427 45.156308 
L 333.344384 45.156308 
L 333.344384 44.851424 
L 333.613679 44.851424 
L 333.613679 44.54654 
L 333.801493 44.54654 
L 333.801493 44.241656 
L 334.002641 44.241656 
L 334.002641 43.936772 
L 334.181163 43.936772 
L 334.190454 43.327004 
L 334.570124 43.327004 
L 334.570124 43.02212 
L 335.519796 43.02212 
L 335.606005 42.412352 
L 335.746782 42.412352 
L 335.746782 42.107468 
L 336.291672 42.107468 
L 336.345684 41.4977 
L 338.088622 41.4977 
L 338.088622 41.192816 
L 338.472352 41.192816 
L 338.477583 40.583048 
L 340.503533 40.583048 
L 340.589742 39.97328 
L 340.730519 39.97328 
L 340.730519 39.668396 
L 343.072359 39.668396 
L 343.072359 39.363512 
L 343.46132 39.363512 
L 343.46132 39.058629 
L 349.640369 39.058629 
L 349.640369 38.753745 
L 350.004069 38.753745 
L 350.004069 38.448861 
L 351.442263 38.448861 
L 351.528472 37.839093 
L 351.669249 37.839093 
L 351.669249 37.534209 
L 352.971556 37.534209 
L 352.971556 37.229325 
L 354.011089 37.229325 
L 354.011089 36.924441 
L 354.40005 36.924441 
L 354.40005 36.619557 
L 355.411013 36.619557 
L 355.411013 36.314673 
L 355.598826 36.314673 
L 355.598826 36.009789 
L 355.978497 36.009789 
L 355.978497 35.704905 
L 356.79197 35.704905 
L 356.79197 35.400021 
L 356.979783 35.400021 
L 356.979783 35.095137 
L 357.271372 35.095137 
L 357.359454 34.485369 
L 359.452051 34.485369 
L 359.452051 34.180485 
L 359.885955 34.180485 
L 359.885955 33.875601 
L 361.197646 33.875601 
L 361.266912 33.265833 
L 364.528832 33.265833 
L 364.528832 32.960949 
L 364.869693 32.960949 
L 364.869693 32.656065 
L 366.25065 32.656065 
L 366.25065 32.351181 
L 368.419347 32.351181 
L 368.505556 31.741413 
L 368.646333 31.741413 
L 368.646333 31.436529 
L 369.924815 31.436529 
L 369.924815 31.131645 
L 370.504642 31.131645 
L 370.504642 30.826761 
L 370.988173 30.826761 
L 370.988173 30.521877 
L 371.377134 30.521877 
L 371.377134 30.216993 
L 373.451655 30.216993 
L 373.451655 29.912109 
L 373.639468 29.912109 
L 373.639468 29.607225 
L 374.019138 29.607225 
L 374.019138 29.302341 
L 375.808422 29.302341 
L 375.808422 28.997457 
L 377.189379 28.997457 
L 377.189379 28.692573 
L 377.926597 28.692573 
L 377.926597 28.387689 
L 381.482091 28.387689 
L 381.482091 28.082805 
L 382.061918 28.082805 
L 382.061918 27.777921 
L 382.177345 27.777921 
L 382.177345 27.473037 
L 382.910334 27.473037 
L 382.910334 27.168153 
L 385.508532 27.168153 
L 385.508532 26.863269 
L 389.405304 26.863269 
L 389.405304 26.558385 
L 390.1308 26.558385 
L 390.1308 26.253501 
L 392.785507 26.253501 
L 392.785507 25.948617 
L 393.849064 25.948617 
L 393.849064 25.643733 
L 394.166464 25.643733 
L 394.166464 25.338849 
L 400.96258 25.338849 
L 400.96258 25.033965 
L 401.688076 25.033965 
L 401.688076 24.729081 
L 402.46179 24.729081 
L 402.46179 24.424197 
L 403.041617 24.424197 
L 403.041617 24.119313 
L 410.826148 24.119313 
L 410.826148 23.814429 
L 421.942279 23.814429 
L 421.942279 23.509545 
L 422.667776 23.509545 
L 422.667776 23.204661 
L 453.192 23.204661 
L 453.192 23.204661 
" clip-path="url(#p5eeb40a3cf)" style="fill: none; stroke: #000000; stroke-width: 3; stroke-linecap: square"/>
   </g>
   <g id="line2d_18">
    <path clip-path="url(#p5eeb40a3cf)" style="fill: none; stroke: #000000; stroke-width: 3; stroke-linecap: square"/>
   </g>
   <g id="line2d_19">
    <path d="M 34.16 256.544175 
L 93.653748 256.544175 
L 93.653748 256.164299 
L 95.248999 256.164299 
L 95.248999 255.784423 
L 95.901038 255.784423 
L 95.969668 255.024672 
L 97.49629 255.024672 
L 97.564919 254.264921 
L 98.322771 254.264921 
L 98.322771 253.885045 
L 100.570062 253.885045 
L 100.638691 253.125294 
L 115.432562 253.125294 
L 115.432562 252.745419 
L 117.002878 252.745419 
L 117.027813 251.985667 
L 119.250168 251.985667 
L 119.318798 251.225916 
L 120.101585 251.225916 
L 120.101585 250.84604 
L 132.984343 250.84604 
L 132.984343 250.466165 
L 133.786815 250.466165 
L 133.786815 250.086289 
L 134.579594 250.086289 
L 134.579594 249.706414 
L 135.382066 249.706414 
L 135.382066 249.326538 
L 137.653367 249.326538 
L 137.653367 248.946662 
L 138.455838 248.946662 
L 138.455838 248.566787 
L 138.781692 248.566787 
L 138.781692 248.186911 
L 153.806788 248.186911 
L 153.806788 247.807036 
L 154.320382 247.807036 
L 154.320382 247.42716 
L 154.750597 247.42716 
L 154.750597 247.047284 
L 155.402039 247.047284 
L 155.402039 246.667409 
L 155.915633 246.667409 
L 155.915633 246.287533 
L 156.333473 246.287533 
L 156.345848 245.527782 
L 157.135945 245.527782 
L 157.190958 244.768031 
L 157.399854 244.768031 
L 157.399854 244.388155 
L 158.475811 244.388155 
L 158.475811 244.00828 
L 158.786209 244.00828 
L 158.786209 243.628404 
L 158.989405 243.628404 
L 158.995105 242.868653 
L 159.41962 242.868653 
L 159.41962 242.488777 
L 161.859981 242.488777 
L 161.859981 242.108902 
L 162.068877 242.108902 
L 162.068877 241.729026 
L 164.054231 241.729026 
L 164.054231 241.34915 
L 165.026504 241.34915 
L 165.090348 240.589399 
L 165.201464 240.589399 
L 165.201464 240.209524 
L 177.155918 240.209524 
L 177.155918 239.829648 
L 177.669512 239.829648 
L 177.669512 239.449772 
L 178.099727 239.449772 
L 178.099727 239.069897 
L 179.313586 239.069897 
L 179.313586 238.690021 
L 180.467024 238.690021 
L 180.540088 237.93027 
L 180.748983 237.93027 
L 180.748983 237.550394 
L 181.560876 237.550394 
L 181.629506 236.790643 
L 182.058726 236.790643 
L 182.058726 236.410767 
L 182.714314 236.410767 
L 182.782944 235.651016 
L 183.13059 235.651016 
L 183.13059 235.271141 
L 183.653977 235.271141 
L 183.653977 234.891265 
L 185.366349 234.891265 
L 185.44651 233.751638 
L 185.481614 233.751638 
L 185.521088 232.991887 
L 185.620032 232.991887 
L 185.620032 232.612011 
L 186.727749 232.612011 
L 186.727749 232.232136 
L 187.222458 232.232136 
L 187.222458 231.85226 
L 187.473384 231.85226 
L 187.473384 231.472385 
L 188.976589 231.472385 
L 188.976589 231.092509 
L 194.492785 231.092509 
L 194.492785 230.712633 
L 197.743966 230.712633 
L 197.743966 230.332758 
L 201.0924 230.332758 
L 201.0924 229.952882 
L 202.232727 229.952882 
L 202.245838 229.193131 
L 203.260162 229.193131 
L 203.260162 228.813255 
L 203.41982 228.813255 
L 203.41982 228.43338 
L 203.673626 228.43338 
L 203.673626 228.053504 
L 204.25389 228.053504 
L 204.25389 227.673629 
L 204.909404 227.673629 
L 204.909404 227.293753 
L 205.407856 227.293753 
L 205.407856 226.913877 
L 205.622956 226.913877 
L 205.686513 225.77425 
L 205.73574 225.77425 
L 205.73574 225.394375 
L 205.920916 225.394375 
L 205.989546 224.634624 
L 206.50118 224.634624 
L 206.56981 223.874872 
L 207.748923 223.874872 
L 207.748923 223.494997 
L 207.933804 223.494997 
L 208.002433 222.735246 
L 211.139152 222.735246 
L 211.139152 222.35537 
L 211.548121 222.35537 
L 211.548121 221.975494 
L 212.557278 221.975494 
L 212.557278 221.595619 
L 214.062617 221.595619 
L 214.062617 221.215743 
L 216.67174 221.215743 
L 216.67174 220.835868 
L 218.644181 220.835868 
L 218.644181 220.455992 
L 219.446653 220.455992 
L 219.446653 220.076116 
L 219.578813 220.076116 
L 219.578813 219.696241 
L 219.797619 219.696241 
L 219.797619 219.316365 
L 219.966695 219.316365 
L 219.966695 218.93649 
L 220.089252 218.93649 
L 220.089252 218.556614 
L 220.315498 218.556614 
L 220.315498 218.176738 
L 220.600091 218.176738 
L 220.600091 217.796863 
L 220.786136 217.796863 
L 220.803995 217.037112 
L 220.938968 217.037112 
L 221.002811 215.897485 
L 221.061525 215.897485 
L 221.125369 214.757858 
L 221.236485 214.757858 
L 221.324655 213.998107 
L 221.758409 213.998107 
L 221.840111 212.098729 
L 221.918706 212.098729 
L 222.019412 210.199351 
L 222.031959 210.199351 
L 222.093666 209.059724 
L 222.187935 209.059724 
L 222.187935 208.679848 
L 222.389118 208.679848 
L 222.461186 207.920097 
L 222.52609 207.920097 
L 222.587357 207.160346 
L 222.673866 207.160346 
L 222.760478 206.020719 
L 222.802865 206.020719 
L 222.824322 205.260968 
L 222.935438 205.260968 
L 222.991685 204.501217 
L 223.055529 204.501217 
L 223.100144 203.741465 
L 223.166645 203.741465 
L 223.263657 202.981714 
L 223.361391 202.981714 
L 223.425235 202.221963 
L 223.498362 202.221963 
L 223.562206 200.70246 
L 223.623474 200.70246 
L 223.69835 199.562834 
L 223.73459 199.562834 
L 223.762194 198.803082 
L 223.87331 198.803082 
L 223.879347 198.043331 
L 224.27925 198.043331 
L 224.347879 197.28358 
L 224.804259 197.28358 
L 224.804259 196.903704 
L 224.921157 196.903704 
L 224.989786 196.143953 
L 225.198634 196.143953 
L 225.198634 195.764078 
L 225.45244 195.764078 
L 225.45244 195.384202 
L 225.813416 195.384202 
L 225.813416 195.004326 
L 226.032704 195.004326 
L 226.032704 194.624451 
L 227.465327 194.624451 
L 227.557593 193.8647 
L 228.194488 193.8647 
L 228.194488 193.484824 
L 228.319061 193.484824 
L 228.34228 192.725073 
L 229.203645 192.725073 
L 229.203645 192.345197 
L 229.937532 192.345197 
L 229.937532 191.965322 
L 230.759918 191.965322 
L 230.759918 191.585446 
L 231.153956 191.585446 
L 231.153956 191.20557 
L 231.348825 191.20557 
L 231.348825 190.825695 
L 232.749207 190.825695 
L 232.749207 190.445819 
L 233.011304 190.445819 
L 233.011304 190.065943 
L 235.109924 190.065943 
L 235.109924 189.686068 
L 235.822979 189.686068 
L 235.822979 189.306192 
L 236.634149 189.306192 
L 236.634149 188.926317 
L 236.91524 188.926317 
L 236.91524 188.546441 
L 237.643306 188.546441 
L 237.643306 188.166565 
L 238.510492 188.166565 
L 238.510492 187.78669 
L 239.243271 187.78669 
L 239.243271 187.406814 
L 239.466625 187.406814 
L 239.527295 186.647063 
L 239.98022 186.647063 
L 239.98022 186.267187 
L 240.116202 186.267187 
L 240.116202 185.887312 
L 240.252428 185.887312 
L 240.252428 185.507436 
L 240.410435 185.507436 
L 240.410435 185.127561 
L 240.620064 185.127561 
L 240.620064 184.747685 
L 241.133658 184.747685 
L 241.133658 184.367809 
L 241.278812 184.367809 
L 241.278812 183.987934 
L 241.394077 183.987934 
L 241.433552 182.848307 
L 241.516635 182.848307 
L 241.584264 180.948929 
L 241.655053 180.948929 
L 241.73607 180.189178 
L 242.098253 180.189178 
L 242.116112 179.429427 
L 242.213519 179.429427 
L 242.270852 177.530048 
L 242.351937 177.530048 
L 242.41329 176.010546 
L 242.512233 176.010546 
L 242.512233 175.63067 
L 242.662051 175.63067 
L 242.762347 173.731292 
L 242.850795 173.731292 
L 242.850795 173.351417 
L 243.004221 173.351417 
L 243.100322 171.831914 
L 243.134921 171.831914 
L 243.215588 171.072163 
L 243.255062 171.072163 
L 243.360444 168.413034 
L 243.385847 168.413034 
L 243.486269 166.513656 
L 243.508404 166.513656 
L 243.585212 164.614278 
L 243.634323 164.614278 
L 243.701235 163.474651 
L 243.797224 163.474651 
L 243.899474 160.055771 
L 243.953472 160.055771 
L 244.054214 156.257015 
L 244.09189 156.257015 
L 244.192934 153.597885 
L 244.205288 153.597885 
L 244.291878 151.698507 
L 244.365585 151.698507 
L 244.470159 149.799129 
L 244.581276 149.799129 
L 244.612929 148.659502 
L 244.763372 148.659502 
L 244.763372 148.279627 
L 244.956431 148.279627 
L 245.017109 147.519876 
L 245.187638 147.519876 
L 245.207357 146.760124 
L 245.374397 146.760124 
L 245.438564 146.000373 
L 245.557344 146.000373 
L 245.622086 145.240622 
L 245.694316 145.240622 
L 245.755584 144.480871 
L 245.80827 144.480871 
L 245.894303 143.341244 
L 245.945242 143.341244 
L 246.006509 142.581493 
L 246.113149 142.581493 
L 246.145229 141.821742 
L 246.383554 141.821742 
L 246.383554 141.441866 
L 246.6678 141.441866 
L 246.6678 141.06199 
L 246.876696 141.06199 
L 246.876696 140.682115 
L 247.085421 140.682115 
L 247.149265 139.922363 
L 247.252265 139.922363 
L 247.260382 139.162612 
L 247.406285 139.162612 
L 247.406285 138.782737 
L 247.995192 138.782737 
L 247.995192 138.402861 
L 248.26559 138.402861 
L 248.366062 137.64311 
L 248.413 137.64311 
L 248.413 137.263234 
L 251.361998 137.263234 
L 251.468373 136.503483 
L 251.69141 136.503483 
L 251.756291 135.743732 
L 253.405472 135.743732 
L 253.405472 135.363856 
L 254.503086 135.363856 
L 254.503086 134.983981 
L 255.845945 134.983981 
L 255.845945 134.604105 
L 255.957134 134.604105 
L 255.957134 134.224229 
L 256.434853 134.224229 
L 256.434853 133.844354 
L 258.455068 133.844354 
L 258.455068 133.464478 
L 259.043976 133.464478 
L 259.059503 132.704727 
L 259.347363 132.704727 
L 259.347363 132.324851 
L 260.195952 132.324851 
L 260.26437 131.5651 
L 261.362555 131.5651 
L 261.362555 131.185225 
L 262.004462 131.185225 
L 262.004462 130.805349 
L 262.165026 130.805349 
L 262.165026 130.425473 
L 262.713619 130.425473 
L 262.806933 129.285847 
L 262.918808 129.285847 
L 262.918808 128.905971 
L 263.311715 128.905971 
L 263.34156 128.14622 
L 263.516904 128.14622 
L 263.57286 127.006593 
L 263.824726 127.006593 
L 263.826665 126.246842 
L 263.974168 126.246842 
L 263.974168 125.866966 
L 264.086454 125.866966 
L 264.128908 124.727339 
L 264.227851 124.727339 
L 264.307601 123.967588 
L 264.34026 123.967588 
L 264.413633 122.827961 
L 264.516669 122.827961 
L 264.586193 122.06821 
L 264.74616 122.06821 
L 264.770475 121.308459 
L 264.861425 121.308459 
L 264.920524 120.168832 
L 264.999843 120.168832 
L 264.999843 119.788956 
L 265.175101 119.788956 
L 265.175101 119.409081 
L 265.316759 119.409081 
L 265.350739 118.269454 
L 265.830277 118.269454 
L 265.839553 117.509703 
L 266.081203 117.509703 
L 266.081203 117.129827 
L 266.330083 117.129827 
L 266.353147 116.370076 
L 266.602269 116.370076 
L 266.602269 115.9902 
L 266.783363 115.9902 
L 266.853195 115.230449 
L 266.95703 115.230449 
L 266.95703 114.850573 
L 267.165925 114.850573 
L 267.210835 114.090822 
L 267.419731 114.090822 
L 267.425266 113.331071 
L 267.540531 113.331071 
L 267.580006 112.57132 
L 267.678949 112.57132 
L 267.787024 111.431693 
L 267.7911 111.431693 
L 267.7911 111.051817 
L 267.999996 111.051817 
L 267.999996 110.671942 
L 268.174732 110.671942 
L 268.174732 110.292066 
L 268.872002 110.292066 
L 268.9362 109.532315 
L 269.223723 109.532315 
L 269.281375 108.772564 
L 269.432619 108.772564 
L 269.532301 108.012813 
L 270.396147 108.012813 
L 270.396147 107.632937 
L 271.535569 107.632937 
L 271.535569 107.253061 
L 275.765804 107.253061 
L 275.765804 106.873186 
L 276.527272 106.873186 
L 276.527272 106.49331 
L 282.184999 106.49331 
L 282.184999 106.113435 
L 282.698593 106.113435 
L 282.698593 105.733559 
L 282.826906 105.733559 
L 282.826906 105.353683 
L 283.128809 105.353683 
L 283.128809 104.973808 
L 283.3405 104.973808 
L 283.3405 104.593932 
L 283.519398 104.593932 
L 283.519398 104.214057 
L 283.770716 104.214057 
L 283.770716 103.834181 
L 284.108306 103.834181 
L 284.108306 103.454305 
L 284.532722 103.454305 
L 284.532722 103.07443 
L 285.12163 103.07443 
L 285.12163 102.694554 
L 285.569169 102.694554 
L 285.569169 102.314678 
L 285.778065 102.314678 
L 285.778065 101.934803 
L 286.211076 101.934803 
L 286.211076 101.554927 
L 286.419972 101.554927 
L 286.419972 101.175052 
L 287.869405 101.175052 
L 287.869405 100.795176 
L 288.882729 100.795176 
L 288.882729 100.4153 
L 291.824798 100.4153 
L 291.824798 100.035425 
L 292.078604 100.035425 
L 292.078604 99.655549 
L 292.658868 99.655549 
L 292.658868 99.275674 
L 294.091491 99.275674 
L 294.091491 98.895798 
L 295.460477 98.895798 
L 295.460477 98.515922 
L 296.473801 98.515922 
L 296.473801 98.136047 
L 300.675835 98.136047 
L 300.675835 97.756171 
L 300.798393 97.756171 
L 300.798393 97.376296 
L 301.495277 97.376296 
L 301.513135 96.616544 
L 301.655573 96.616544 
L 301.655573 96.236669 
L 302.497346 96.236669 
L 302.497346 95.856793 
L 302.728552 95.856793 
L 302.728552 95.476918 
L 303.098259 95.476918 
L 303.098259 95.097042 
L 303.23523 95.097042 
L 303.296498 94.337291 
L 303.435218 94.337291 
L 303.435218 93.957415 
L 304.325464 93.957415 
L 304.325464 93.57754 
L 304.448021 93.57754 
L 304.448021 93.197664 
L 305.144905 93.197664 
L 305.162764 92.437913 
L 305.305202 92.437913 
L 305.305202 92.058037 
L 306.146974 92.058037 
L 306.146974 91.678162 
L 306.378181 91.678162 
L 306.378181 91.298286 
L 306.747887 91.298286 
L 306.747887 90.91841 
L 306.884859 90.91841 
L 306.946126 90.158659 
L 307.084846 90.158659 
L 307.084846 89.778783 
L 307.274461 89.778783 
L 307.274461 89.398908 
L 307.397018 89.398908 
L 307.397018 89.019032 
L 308.093902 89.019032 
L 308.111761 88.259281 
L 308.254199 88.259281 
L 308.254199 87.879405 
L 309.095971 87.879405 
L 309.095971 87.49953 
L 309.317935 87.49953 
L 309.327178 86.739779 
L 309.440492 86.739779 
L 309.440492 86.359903 
L 309.696884 86.359903 
L 309.696884 85.980027 
L 309.833856 85.980027 
L 309.895123 85.220276 
L 310.033843 85.220276 
L 310.137376 84.460525 
L 310.155235 84.460525 
L 310.155235 84.080649 
L 310.297673 84.080649 
L 310.297673 83.700774 
L 310.436938 83.700774 
L 310.436938 83.320898 
L 311.078845 83.320898 
L 311.139445 82.561147 
L 311.370652 82.561147 
L 311.370652 82.181271 
L 311.740358 82.181271 
L 311.740358 81.801396 
L 311.87733 81.801396 
L 311.938597 81.041645 
L 312.077317 81.041645 
L 312.077317 80.661769 
L 314.002118 80.661769 
L 314.002118 80.281893 
L 314.971966 80.281893 
L 314.971966 79.902018 
L 315.094523 79.902018 
L 315.155556 79.142266 
L 315.791407 79.142266 
L 315.809266 78.382515 
L 315.951704 78.382515 
L 315.951704 78.00264 
L 316.793476 78.00264 
L 316.813794 77.242888 
L 317.024683 77.242888 
L 317.024683 76.863013 
L 317.394389 76.863013 
L 317.394389 76.483137 
L 317.531361 76.483137 
L 317.592628 75.723386 
L 317.731348 75.723386 
L 317.819123 74.963635 
L 317.967232 74.963635 
L 317.967232 74.583759 
L 320.630798 74.583759 
L 320.630798 74.203884 
L 322.575078 74.203884 
L 322.575078 73.824008 
L 323.371191 73.824008 
L 323.371191 73.444132 
L 323.728517 73.444132 
L 323.728517 73.064257 
L 324.143183 73.064257 
L 324.143183 72.684381 
L 326.392083 72.684381 
L 326.392083 72.304506 
L 326.822289 72.304506 
L 326.822289 71.92463 
L 327.02082 71.92463 
L 327.02082 71.544754 
L 327.792811 71.544754 
L 327.792811 71.164879 
L 329.969817 71.164879 
L 329.969817 70.785003 
L 330.471917 70.785003 
L 330.471917 70.405128 
L 330.741809 70.405128 
L 330.741809 70.025252 
L 332.013291 70.025252 
L 332.013291 69.645376 
L 332.785283 69.645376 
L 332.785283 69.265501 
L 333.420915 69.265501 
L 333.420915 68.885625 
L 335.464389 68.885625 
L 335.464389 68.50575 
L 337.667322 68.50575 
L 337.667322 68.125874 
L 338.108352 68.125874 
L 338.108352 67.745998 
L 338.362158 67.745998 
L 338.439314 66.986247 
L 338.942422 66.986247 
L 338.942422 66.606371 
L 340.375046 66.606371 
L 340.375046 66.226496 
L 340.920028 66.226496 
L 340.920028 65.84662 
L 341.11842 65.84662 
L 341.173834 65.086869 
L 341.754098 65.086869 
L 341.754098 64.706993 
L 343.186721 64.706993 
L 343.186721 64.327118 
L 346.681312 64.327118 
L 346.681312 63.947242 
L 346.935118 63.947242 
L 346.935118 63.567367 
L 347.515382 63.567367 
L 347.515382 63.187491 
L 348.948006 63.187491 
L 348.948006 62.807615 
L 356.720492 62.807615 
L 356.720492 62.42774 
L 357.362399 62.42774 
L 357.362399 62.047864 
L 359.532167 62.047864 
L 359.532167 61.667989 
L 360.174074 61.667989 
L 360.174074 61.288113 
L 365.293452 61.288113 
L 365.293452 60.908237 
L 365.935359 60.908237 
L 365.935359 60.528362 
L 453.192 60.528362 
L 453.192 60.528362 
" clip-path="url(#p5eeb40a3cf)" style="fill: none; stroke: #00bfbf; stroke-width: 3; stroke-linecap: square"/>
   </g>
   <g id="line2d_20">
    <path clip-path="url(#p5eeb40a3cf)" style="fill: none; stroke: #00bfbf; stroke-width: 3; stroke-linecap: square"/>
   </g>
   <g id="line2d_21">
    <path d="M 34.16 235.310102 
L 103.432814 235.310102 
L 103.432814 234.907499 
L 103.841578 234.907499 
L 103.841578 234.504896 
L 105.64811 234.504896 
L 105.64811 234.102293 
L 105.827018 234.102293 
L 105.827018 233.699689 
L 106.056874 233.699689 
L 106.056874 233.297086 
L 106.235783 233.297086 
L 106.235783 232.894483 
L 114.091582 232.894483 
L 114.091582 232.49188 
L 116.306878 232.49188 
L 116.306878 232.089277 
L 116.485786 232.089277 
L 116.485786 231.686673 
L 125.139921 231.686673 
L 125.139921 231.28407 
L 125.548685 231.28407 
L 125.548685 230.881467 
L 135.798689 230.881467 
L 135.798689 230.478864 
L 142.669015 230.478864 
L 142.669015 230.076261 
L 143.077779 230.076261 
L 143.077779 229.673657 
L 143.416655 229.673657 
L 143.416655 229.271054 
L 143.825419 229.271054 
L 143.825419 228.868451 
L 153.327782 228.868451 
L 153.327782 228.465848 
L 154.075423 228.465848 
L 154.075423 228.063245 
L 164.013919 228.063245 
L 164.025545 227.258038 
L 164.276751 227.258038 
L 164.276751 226.855435 
L 164.422683 226.855435 
L 164.434309 226.050228 
L 164.685515 226.050228 
L 164.685515 225.647625 
L 166.520451 225.647625 
L 166.520451 225.245022 
L 166.832135 225.245022 
L 166.929216 224.439816 
L 167.240899 224.439816 
L 167.240899 224.037212 
L 174.672687 224.037212 
L 174.684313 223.232006 
L 174.935519 223.232006 
L 174.935519 222.829403 
L 177.179219 222.829403 
L 177.179219 222.4268 
L 177.490903 222.4268 
L 177.490903 222.024196 
L 180.842335 222.024196 
L 180.953194 221.21899 
L 181.222776 221.21899 
L 181.2511 220.413784 
L 183.16849 220.413784 
L 183.16849 220.01118 
L 183.347398 220.01118 
L 183.438072 219.205974 
L 183.616981 219.205974 
L 183.666948 218.400768 
L 185.882244 218.400768 
L 185.882244 217.998164 
L 186.061152 217.998164 
L 186.061152 217.595561 
L 191.501103 217.595561 
L 191.501103 217.192958 
L 200.039062 217.192958 
L 200.039062 216.790355 
L 202.254358 216.790355 
L 202.254358 216.387752 
L 202.433267 216.387752 
L 202.433267 215.985148 
L 202.660301 215.985148 
L 202.660301 215.582545 
L 202.929883 215.582545 
L 202.929883 215.179942 
L 203.834623 215.179942 
L 203.921251 214.374735 
L 204.18943 214.374735 
L 204.18943 213.972132 
L 204.680108 213.972132 
L 204.680108 213.569529 
L 205.374055 213.569529 
L 205.374055 213.166926 
L 205.701909 213.166926 
L 205.701909 212.764323 
L 206.049919 212.764323 
L 206.049919 212.361719 
L 206.228827 212.361719 
L 206.228827 211.959116 
L 206.404726 211.959116 
L 206.404726 211.556513 
L 206.583635 211.556513 
L 206.583635 211.15391 
L 206.895404 211.15391 
L 206.895404 210.751307 
L 207.074312 210.751307 
L 207.074312 210.348703 
L 207.307512 210.348703 
L 207.307512 209.9461 
L 207.917205 209.9461 
L 207.917205 209.543497 
L 208.096114 209.543497 
L 208.096114 209.140894 
L 208.820628 209.140894 
L 208.820628 208.738291 
L 212.206889 208.738291 
L 212.206889 208.335687 
L 214.936056 208.335687 
L 214.936056 207.933084 
L 217.782954 207.933084 
L 217.782954 207.530481 
L 219.835433 207.530481 
L 219.835433 207.127878 
L 220.189394 207.127878 
L 220.189394 206.725275 
L 220.458977 206.725275 
L 220.458977 206.322671 
L 220.937035 206.322671 
L 220.937035 205.920068 
L 221.206617 205.920068 
L 221.206617 205.517465 
L 221.746169 205.517465 
L 221.746169 205.114862 
L 222.267145 205.114862 
L 222.267145 204.712259 
L 222.531351 204.712259 
L 222.531351 204.309655 
L 222.682331 204.309655 
L 222.682331 203.907052 
L 222.895164 203.907052 
L 222.903148 203.101846 
L 223.373718 203.101846 
L 223.373718 202.699243 
L 223.650789 202.699243 
L 223.650789 202.296639 
L 223.791243 202.296639 
L 223.842255 201.491433 
L 224.482441 201.491433 
L 224.482441 201.08883 
L 224.661349 201.08883 
L 224.661349 200.686226 
L 225.11046 200.686226 
L 225.11046 200.283623 
L 225.256419 200.283623 
L 225.299144 198.67321 
L 225.417518 198.67321 
L 225.458097 197.868004 
L 225.530693 197.868004 
L 225.54173 197.062798 
L 225.82513 197.062798 
L 225.896537 196.257591 
L 226.090627 196.257591 
L 226.133352 194.647178 
L 226.251726 194.647178 
L 226.307343 192.634162 
L 226.364901 192.634162 
L 226.466296 190.621146 
L 226.538892 190.621146 
L 226.600701 189.010733 
L 226.66091 189.010733 
L 226.759654 186.997717 
L 226.822009 186.997717 
L 226.862588 185.789908 
L 226.935184 185.789908 
L 226.936294 184.984701 
L 227.110285 184.984701 
L 227.110285 184.582098 
L 227.320678 184.582098 
L 227.430728 182.166479 
L 227.481777 182.166479 
L 227.522356 180.958669 
L 227.594952 180.958669 
L 227.594952 180.556066 
L 227.882623 180.556066 
L 227.882623 180.153463 
L 228.166345 180.153463 
L 228.166345 179.75086 
L 228.291387 179.75086 
L 228.291387 179.348257 
L 228.741632 179.348257 
L 228.741632 178.945653 
L 229.211391 178.945653 
L 229.211391 178.54305 
L 229.81976 178.54305 
L 229.81976 178.140447 
L 233.694751 178.140447 
L 233.694751 177.737844 
L 234.103515 177.737844 
L 234.103515 177.33524 
L 234.514679 177.33524 
L 234.514679 176.932637 
L 234.923443 176.932637 
L 234.923443 176.530034 
L 236.839936 176.530034 
L 236.839936 176.127431 
L 237.448305 176.127431 
L 237.448305 175.724828 
L 238.541391 175.724828 
L 238.541391 175.322224 
L 239.275263 175.322224 
L 239.275263 174.919621 
L 239.686833 174.919621 
L 239.686833 174.517018 
L 240.022903 174.517018 
L 240.022903 174.114415 
L 240.295202 174.114415 
L 240.295202 173.711812 
L 241.534299 173.711812 
L 241.545925 172.906605 
L 241.797131 172.906605 
L 241.815507 171.698796 
L 242.045177 171.698796 
L 242.087546 170.490986 
L 243.070823 170.490986 
L 243.109072 169.68578 
L 243.189801 169.68578 
L 243.262993 168.47797 
L 243.367619 168.47797 
L 243.425631 166.867557 
L 243.528718 166.867557 
L 243.569297 165.659748 
L 243.641893 165.659748 
L 243.680518 164.451938 
L 243.758467 164.451938 
L 243.851339 162.841525 
L 243.881223 162.841525 
L 243.974252 161.633715 
L 243.999598 161.633715 
L 244.097337 159.620699 
L 244.112772 159.620699 
L 244.213286 158.010287 
L 244.248053 158.010287 
L 244.353519 155.192064 
L 244.394351 155.192064 
L 244.43523 154.386858 
L 244.510885 154.386858 
L 244.602271 152.776445 
L 244.622097 152.776445 
L 244.684166 151.166032 
L 244.8617 151.166032 
L 244.964634 149.958222 
L 245.015883 149.958222 
L 245.043599 149.153016 
L 245.173447 149.153016 
L 245.173447 148.750413 
L 245.314569 148.750413 
L 245.314569 148.34781 
L 245.624402 148.34781 
L 245.68575 147.542603 
L 245.746134 147.542603 
L 245.746134 147.14 
L 246.354503 147.14 
L 246.354503 146.737397 
L 246.754585 146.737397 
L 246.754585 146.334794 
L 246.944554 146.334794 
L 246.944554 145.93219 
L 247.066269 145.93219 
L 247.066269 145.529587 
L 247.678355 145.529587 
L 247.678355 145.126984 
L 248.089178 145.126984 
L 248.089178 144.724381 
L 248.402144 144.724381 
L 248.402144 144.321778 
L 248.704175 144.321778 
L 248.704175 143.919174 
L 252.090436 143.919174 
L 252.090436 143.516571 
L 255.3069 143.516571 
L 255.3069 143.113968 
L 256.030689 143.113968 
L 256.030689 142.711365 
L 256.580572 142.711365 
L 256.580572 142.308762 
L 258.153798 142.308762 
L 258.153798 141.906158 
L 258.362715 141.906158 
L 258.362715 141.503555 
L 258.632298 141.503555 
L 258.632298 141.100952 
L 258.877586 141.100952 
L 258.877586 140.698349 
L 259.478617 140.698349 
L 259.478617 140.295745 
L 259.718981 140.295745 
L 259.718981 139.893142 
L 259.966833 139.893142 
L 259.966833 139.490539 
L 260.312825 139.490539 
L 260.312825 139.087936 
L 260.486816 139.087936 
L 260.486816 138.685333 
L 260.620167 138.685333 
L 260.631793 137.880126 
L 260.780174 137.880126 
L 260.883108 136.672317 
L 261.076469 136.672317 
L 261.164953 135.86711 
L 261.36151 135.86711 
L 261.36151 135.464507 
L 261.503346 135.464507 
L 261.542876 134.659301 
L 261.671343 134.659301 
L 261.671343 134.256697 
L 261.83239 134.256697 
L 261.83239 133.854094 
L 261.976821 133.854094 
L 261.999161 133.048888 
L 262.131365 133.048888 
L 262.173152 131.841078 
L 262.250986 131.841078 
L 262.250986 131.438475 
L 262.39364 131.438475 
L 262.472295 130.230665 
L 262.565879 130.230665 
L 262.569444 129.425459 
L 262.879005 129.425459 
L 262.902194 128.620252 
L 262.998347 128.620252 
L 262.998347 128.217649 
L 263.1267 128.217649 
L 263.229212 127.412443 
L 263.415166 127.412443 
L 263.493822 126.204633 
L 263.625983 126.204633 
L 263.625983 125.80203 
L 263.949056 125.80203 
L 263.949056 125.399427 
L 264.213099 125.399427 
L 264.213099 124.996824 
L 264.415728 124.996824 
L 264.427354 124.191617 
L 264.557425 124.191617 
L 264.557425 123.789014 
L 264.67856 123.789014 
L 264.782161 122.581204 
L 264.936887 122.581204 
L 265.033367 121.775998 
L 265.09368 121.775998 
L 265.09368 121.373395 
L 265.261213 121.373395 
L 265.272839 120.568188 
L 265.524045 120.568188 
L 265.524045 120.165585 
L 265.702049 120.165585 
L 265.702049 119.762982 
L 266.283014 119.762982 
L 266.294641 118.957776 
L 266.545846 118.957776 
L 266.545846 118.555172 
L 266.92226 118.555172 
L 266.92226 118.152569 
L 267.233944 118.152569 
L 267.314276 116.94476 
L 267.588751 116.94476 
L 267.595378 116.139553 
L 267.767745 116.139553 
L 267.767745 115.73695 
L 268.079429 115.73695 
L 268.079429 115.334347 
L 268.62518 115.334347 
L 268.62518 114.931743 
L 268.789547 114.931743 
L 268.789547 114.52914 
L 269.10123 114.52914 
L 269.10123 114.126537 
L 270.442275 114.126537 
L 270.442275 113.723934 
L 275.190672 113.723934 
L 275.190672 113.321331 
L 276.501576 113.321331 
L 276.501576 112.918727 
L 277.448584 112.918727 
L 277.448584 112.516124 
L 277.589817 112.516124 
L 277.589817 112.113521 
L 278.060696 112.113521 
L 278.060696 111.710918 
L 279.276153 111.710918 
L 279.276153 111.308315 
L 279.747032 111.308315 
L 279.747032 110.905711 
L 281.244144 110.905711 
L 281.244144 110.503108 
L 281.598952 110.503108 
L 281.598952 110.100505 
L 282.089629 110.100505 
L 282.089629 109.697902 
L 282.416021 109.697902 
L 282.416021 109.295299 
L 282.84825 109.295299 
L 282.859876 108.490092 
L 283.111082 108.490092 
L 283.139809 107.282283 
L 283.476269 107.282283 
L 283.560644 106.074473 
L 283.739101 106.074473 
L 283.739101 105.67187 
L 284.284433 105.67187 
L 284.284433 105.269267 
L 285.354782 105.269267 
L 285.354782 104.866663 
L 285.666466 104.866663 
L 285.666466 104.46406 
L 285.982802 104.46406 
L 285.982802 104.061457 
L 286.294485 104.061457 
L 286.294485 103.658854 
L 286.828102 103.658854 
L 286.828102 103.25625 
L 287.972725 103.25625 
L 287.972725 102.853647 
L 294.704498 102.853647 
L 294.704498 102.451044 
L 295.849122 102.451044 
L 295.849122 102.048441 
L 299.676666 102.048441 
L 299.676666 101.645838 
L 300.304686 101.645838 
L 300.304686 101.243234 
L 305.403003 101.243234 
L 305.403003 100.840631 
L 305.672586 100.840631 
L 305.672586 100.438028 
L 308.116757 100.438028 
L 308.116757 100.035425 
L 311.215131 100.035425 
L 311.215131 99.632822 
L 311.484713 99.632822 
L 311.484713 99.230218 
L 312.035059 99.230218 
L 312.035059 98.827615 
L 312.304641 98.827615 
L 312.304641 98.425012 
L 313.928885 98.425012 
L 313.928885 98.022409 
L 314.748813 98.022409 
L 314.748813 97.619806 
L 324.488871 97.619806 
L 324.488871 97.217202 
L 328.284432 97.217202 
L 328.284432 96.814599 
L 328.639239 96.814599 
L 328.639239 96.411996 
L 329.129917 96.411996 
L 329.129917 96.009393 
L 330.151719 96.009393 
L 330.151719 95.60679 
L 330.300999 95.60679 
L 330.300999 95.204186 
L 331.120927 95.204186 
L 331.120927 94.801583 
L 334.09656 94.801583 
L 334.09656 94.39898 
L 334.451367 94.39898 
L 334.451367 93.996377 
L 334.916488 93.996377 
L 334.942045 93.19117 
L 335.271295 93.19117 
L 335.271295 92.788567 
L 335.761973 92.788567 
L 335.761973 92.385964 
L 335.963846 92.385964 
L 335.963846 91.983361 
L 336.783774 91.983361 
L 336.783774 91.580757 
L 346.716954 91.580757 
L 346.716954 91.178154 
L 347.344974 91.178154 
L 347.344974 90.775551 
L 352.529082 90.775551 
L 352.529082 90.372948 
L 353.157101 90.372948 
L 353.157101 89.970345 
L 353.34901 89.970345 
L 353.34901 89.567741 
L 353.977029 89.567741 
L 353.977029 89.165138 
L 453.192 89.165138 
L 453.192 89.165138 
" clip-path="url(#p5eeb40a3cf)" style="fill: none; stroke: #bf00bf; stroke-width: 3; stroke-linecap: square"/>
   </g>
   <g id="line2d_22">
    <path clip-path="url(#p5eeb40a3cf)" style="fill: none; stroke: #bf00bf; stroke-width: 3; stroke-linecap: square"/>
   </g>
   <g id="line2d_23">
    <path d="M 34.16 237.62145 
L 108.899465 237.62145 
L 108.899465 237.214792 
L 110.774045 237.214792 
L 110.774045 236.808134 
L 111.15635 236.808134 
L 111.15635 236.401476 
L 114.113763 236.401476 
L 114.113763 235.994817 
L 115.988343 235.994817 
L 115.988343 235.588159 
L 116.370648 235.588159 
L 116.370648 235.181501 
L 124.124095 235.181501 
L 124.124095 234.774843 
L 125.998675 234.774843 
L 125.998675 234.368185 
L 126.38098 234.368185 
L 126.38098 233.961526 
L 129.788555 233.961526 
L 129.788555 233.554868 
L 135.002853 233.554868 
L 135.002853 233.14821 
L 145.013184 233.14821 
L 145.013184 232.741552 
L 146.981093 232.741552 
L 146.981093 232.334893 
L 148.531266 232.334893 
L 148.531266 231.928235 
L 152.19539 231.928235 
L 152.19539 231.521577 
L 153.745563 231.521577 
L 153.745563 231.114919 
L 162.205722 231.114919 
L 162.205722 230.708261 
L 163.755895 230.708261 
L 163.755895 230.301602 
L 167.766396 230.301602 
L 167.766396 229.894944 
L 168.519529 229.894944 
L 168.519529 229.488286 
L 169.311941 229.488286 
L 169.311941 229.081628 
L 170.354934 229.081628 
L 170.354934 228.67497 
L 170.791809 228.67497 
L 170.791809 228.268311 
L 172.980694 228.268311 
L 172.980694 227.861653 
L 173.733827 227.861653 
L 173.733827 227.454995 
L 174.526239 227.454995 
L 174.526239 227.048337 
L 175.569231 227.048337 
L 175.569231 226.641679 
L 176.006106 226.641679 
L 176.006106 226.23502 
L 181.692362 226.23502 
L 181.692362 225.828362 
L 182.124736 225.828362 
L 182.124736 225.421704 
L 182.991026 225.421704 
L 182.991026 225.015046 
L 183.566942 225.015046 
L 183.566942 224.608388 
L 183.744159 224.608388 
L 183.744159 224.201729 
L 183.949247 224.201729 
L 183.999316 223.388413 
L 184.381621 223.388413 
L 184.381621 222.981755 
L 184.53657 222.981755 
L 184.602308 222.168438 
L 184.971268 222.168438 
L 184.971268 221.76178 
L 185.579563 221.76178 
L 185.579563 221.355122 
L 186.016438 221.355122 
L 186.016438 220.948464 
L 186.476888 220.948464 
L 186.476888 220.541806 
L 186.859194 220.541806 
L 186.859194 220.135147 
L 190.185565 220.135147 
L 190.185565 219.728489 
L 199.921167 219.728489 
L 199.921167 219.321831 
L 200.195897 219.321831 
L 200.195897 218.915173 
L 201.795747 218.915173 
L 201.795747 218.508515 
L 202.178053 218.508515 
L 202.178053 218.101856 
L 202.581451 218.101856 
L 202.581451 217.695198 
L 203.013825 217.695198 
L 203.013825 217.28854 
L 204.715867 217.28854 
L 204.743965 216.475224 
L 205.384629 216.475224 
L 205.491398 215.661907 
L 205.527071 215.661907 
L 205.527071 215.255249 
L 206.590447 215.255249 
L 206.618545 214.441933 
L 206.85213 214.441933 
L 206.85213 214.035274 
L 206.972752 214.035274 
L 207.000851 213.221958 
L 207.259209 213.221958 
L 207.259209 212.8153 
L 207.641514 212.8153 
L 207.641514 212.408642 
L 208.11018 212.408642 
L 208.11018 212.001983 
L 208.72671 212.001983 
L 208.72671 211.595325 
L 209.109015 211.595325 
L 209.109015 211.188667 
L 210.167735 211.188667 
L 210.167735 210.782009 
L 212.750844 210.782009 
L 212.750844 210.375351 
L 216.231313 210.375351 
L 216.231313 209.968692 
L 219.421532 209.968692 
L 219.421532 209.562034 
L 219.773989 209.562034 
L 219.773989 209.155376 
L 220.206363 209.155376 
L 220.206363 208.748718 
L 220.810257 208.748718 
L 220.871977 207.935401 
L 221.324162 207.935401 
L 221.324162 207.528743 
L 221.756536 207.528743 
L 221.756536 207.122085 
L 222.683936 207.122085 
L 222.726131 206.308769 
L 222.909237 206.308769 
L 222.909237 205.90211 
L 223.330803 205.90211 
L 223.330803 205.495452 
L 223.447062 205.495452 
L 223.447062 205.088794 
L 224.062196 205.088794 
L 224.062196 204.682136 
L 224.181459 204.682136 
L 224.234109 203.868819 
L 224.467856 203.868819 
L 224.542412 203.055503 
L 224.600711 203.055503 
L 224.600711 202.648845 
L 224.983017 202.648845 
L 224.983017 202.242186 
L 225.321642 202.242186 
L 225.321642 201.835528 
L 225.604957 201.835528 
L 225.703947 199.802237 
L 225.777397 199.802237 
L 225.861668 198.175604 
L 225.950395 198.175604 
L 226.019036 196.548972 
L 226.169785 196.548972 
L 226.273718 194.922339 
L 226.470642 194.922339 
L 226.470642 194.515681 
L 226.62303 194.515681 
L 226.690032 193.702364 
L 226.752333 193.702364 
L 226.756356 192.889048 
L 226.891474 192.889048 
L 226.932696 191.262415 
L 227.064472 191.262415 
L 227.090064 189.635782 
L 227.183771 189.635782 
L 227.251572 188.009149 
L 227.322912 188.009149 
L 227.345162 187.195833 
L 227.49591 187.195833 
L 227.58472 185.975858 
L 227.74122 185.975858 
L 227.801911 184.349226 
L 227.937029 184.349226 
L 228.016158 183.129251 
L 228.110028 183.129251 
L 228.123535 181.909276 
L 228.630275 181.909276 
L 228.630275 181.502618 
L 228.763756 181.502618 
L 228.822123 180.689302 
L 229.075133 180.689302 
L 229.183076 179.875985 
L 229.206139 179.875985 
L 229.206139 179.469327 
L 234.289431 179.469327 
L 234.289431 179.062669 
L 235.644224 179.062669 
L 235.644224 178.656011 
L 236.884889 178.656011 
L 236.884889 178.249353 
L 237.327272 178.249353 
L 237.327272 177.842694 
L 238.002795 177.842694 
L 238.002795 177.436036 
L 238.133867 177.436036 
L 238.133867 177.029378 
L 239.552968 177.029378 
L 239.552968 176.62272 
L 240.075108 176.62272 
L 240.075108 176.216062 
L 240.51749 176.216062 
L 240.559293 175.402745 
L 240.858522 175.402745 
L 240.858522 174.996087 
L 240.991667 174.996087 
L 240.991667 174.589429 
L 241.312426 174.589429 
L 241.312426 174.18277 
L 241.7448 174.18277 
L 241.764469 173.369454 
L 241.991324 173.369454 
L 241.991324 172.962796 
L 242.104837 172.962796 
L 242.104837 172.556138 
L 242.537211 172.556138 
L 242.537211 172.149479 
L 242.797494 172.149479 
L 242.896257 170.522847 
L 243.072558 170.522847 
L 243.14783 169.302872 
L 243.291947 169.302872 
L 243.380974 168.082897 
L 243.466256 168.082897 
L 243.5764 166.049606 
L 243.580204 166.049606 
L 243.672245 164.016315 
L 243.694495 164.016315 
L 243.767572 162.389683 
L 243.845243 162.389683 
L 243.899298 160.76305 
L 243.986962 160.76305 
L 244.03331 159.543075 
L 244.186635 159.543075 
L 244.253117 158.323101 
L 244.299762 158.323101 
L 244.408787 155.476493 
L 244.506862 155.476493 
L 244.506862 155.069835 
L 244.618073 155.069835 
L 244.702011 154.256519 
L 244.835035 154.256519 
L 244.933757 153.036544 
L 245.014784 153.036544 
L 245.057989 151.816569 
L 245.195989 151.816569 
L 245.277417 150.189937 
L 245.313087 150.189937 
L 245.313087 149.783278 
L 245.638371 149.783278 
L 245.638371 149.37662 
L 245.927204 149.37662 
L 245.927204 148.969962 
L 246.057777 148.969962 
L 246.057777 148.563304 
L 246.48393 148.563304 
L 246.494652 147.749987 
L 246.631988 147.749987 
L 246.631988 147.343329 
L 247.28512 147.343329 
L 247.28512 146.936671 
L 247.492009 146.936671 
L 247.492009 146.530013 
L 247.809278 146.530013 
L 247.809278 146.123354 
L 248.831154 146.123354 
L 248.831154 145.716696 
L 250.868854 145.716696 
L 250.868854 145.310038 
L 251.414262 145.310038 
L 251.414262 144.90338 
L 255.406253 144.90338 
L 255.406253 144.496722 
L 255.93041 144.496722 
L 255.93041 144.090063 
L 257.764164 144.090063 
L 257.764164 143.683405 
L 258.196538 143.683405 
L 258.196538 143.276747 
L 258.596472 143.276747 
L 258.666385 142.463431 
L 258.788098 142.463431 
L 258.885774 141.650114 
L 259.120629 141.650114 
L 259.120629 141.243456 
L 259.535395 141.243456 
L 259.541231 140.43014 
L 259.780462 140.43014 
L 259.780462 140.023481 
L 259.947976 140.023481 
L 259.956802 139.210165 
L 260.167365 139.210165 
L 260.2119 138.396849 
L 260.333643 138.396849 
L 260.333643 137.99019 
L 260.674111 137.99019 
L 260.674111 137.583532 
L 260.807759 137.583532 
L 260.826017 136.770216 
L 260.967406 136.770216 
L 261.062053 135.550241 
L 261.238393 135.550241 
L 261.329923 134.736925 
L 261.376636 134.736925 
L 261.376636 134.330267 
L 261.493491 134.330267 
L 261.54973 133.110292 
L 261.66242 133.110292 
L 261.705716 132.296976 
L 261.803475 132.296976 
L 261.813511 131.483659 
L 262.107608 131.483659 
L 262.107608 131.077001 
L 262.357932 131.077001 
L 262.357932 130.670343 
L 262.644901 130.670343 
L 262.725614 129.857026 
L 262.946428 129.857026 
L 262.946428 129.450368 
L 263.078863 129.450368 
L 263.166234 128.230394 
L 263.356399 128.230394 
L 263.41998 127.417077 
L 263.504922 127.417077 
L 263.610896 126.197103 
L 263.717352 126.197103 
L 263.717352 125.790444 
L 263.880556 125.790444 
L 263.947304 124.977128 
L 264.24151 124.977128 
L 264.335931 123.757153 
L 264.364029 123.757153 
L 264.364029 123.350495 
L 265.004693 123.350495 
L 265.004693 122.943837 
L 265.128343 122.943837 
L 265.156441 122.130521 
L 265.719061 122.130521 
L 265.797105 121.317204 
L 266.171335 121.317204 
L 266.199434 120.503888 
L 266.472194 120.503888 
L 266.472194 120.09723 
L 266.60821 120.09723 
L 266.636309 119.283913 
L 266.840097 119.283913 
L 266.840097 118.877255 
L 267.264606 118.877255 
L 267.276972 118.063938 
L 267.485541 118.063938 
L 267.485541 117.65728 
L 267.846495 117.65728 
L 267.846495 117.250622 
L 268.307598 117.250622 
L 268.307598 116.843964 
L 268.744473 116.843964 
L 268.744473 116.437306 
L 275.99297 116.437306 
L 275.99297 116.030647 
L 276.561233 116.030647 
L 276.604529 115.217331 
L 277.842824 115.217331 
L 277.88612 114.404015 
L 280.787669 114.404015 
L 280.815768 113.590698 
L 281.166264 113.590698 
L 281.166264 113.18404 
L 281.456431 113.18404 
L 281.456431 112.777382 
L 281.593062 112.777382 
L 281.690422 111.964065 
L 282.026285 111.964065 
L 282.026285 111.557407 
L 282.313993 111.557407 
L 282.346195 110.744091 
L 282.550443 110.744091 
L 282.550443 110.337433 
L 282.923932 110.337433 
L 282.923932 109.930774 
L 283.067126 109.930774 
L 283.138607 109.117458 
L 283.859538 109.117458 
L 283.859538 108.7108 
L 284.1816 108.7108 
L 284.1816 108.304142 
L 284.618475 108.304142 
L 284.618475 107.897483 
L 284.90253 107.897483 
L 284.90253 107.490825 
L 285.295407 107.490825 
L 285.339406 106.677509 
L 286.155428 106.677509 
L 286.155428 106.270851 
L 295.702134 106.270851 
L 295.702134 105.864192 
L 296.134507 105.864192 
L 296.134507 105.457534 
L 298.61208 105.457534 
L 298.61208 105.050876 
L 298.797934 105.050876 
L 298.797934 104.644218 
L 299.518865 104.644218 
L 299.518865 104.23756 
L 301.868029 104.23756 
L 301.868029 103.830901 
L 302.300403 103.830901 
L 302.300403 103.424243 
L 304.777976 103.424243 
L 304.777976 103.017585 
L 308.437121 103.017585 
L 308.437121 102.610927 
L 308.869495 102.610927 
L 308.869495 102.204269 
L 311.347068 102.204269 
L 311.347068 101.79761 
L 313.930939 101.79761 
L 313.930939 101.390952 
L 318.725639 101.390952 
L 318.753737 100.577636 
L 319.394401 100.577636 
L 319.394401 100.170978 
L 320.096835 100.170978 
L 320.096835 99.764319 
L 320.861902 99.764319 
L 320.861902 99.357661 
L 324.891535 99.357661 
L 324.919633 98.544345 
L 325.560296 98.544345 
L 325.560296 98.137687 
L 326.665927 98.137687 
L 326.665927 97.731028 
L 327.027798 97.731028 
L 327.027798 97.32437 
L 331.460626 97.32437 
L 331.488725 96.511054 
L 332.129388 96.511054 
L 332.129388 96.104396 
L 333.596889 96.104396 
L 333.596889 95.697737 
L 336.735903 95.697737 
L 336.735903 95.291079 
L 337.456834 95.291079 
L 337.456834 94.884421 
L 342.901799 94.884421 
L 342.901799 94.477763 
L 343.62273 94.477763 
L 343.62273 94.071105 
L 349.470891 94.071105 
L 349.470891 93.664446 
L 350.191821 93.664446 
L 350.191821 93.257788 
L 453.192 93.257788 
L 453.192 93.257788 
" clip-path="url(#p5eeb40a3cf)" style="fill: none; stroke: #ff0000; stroke-width: 3; stroke-linecap: square"/>
   </g>
   <g id="line2d_24">
    <path clip-path="url(#p5eeb40a3cf)" style="fill: none; stroke: #ff0000; stroke-width: 3; stroke-linecap: square"/>
   </g>
   <g id="line2d_25">
    <path d="M 243.676 291.28 
L 243.676 3 
" clip-path="url(#p5eeb40a3cf)" style="fill: none; stroke: #000000; stroke-width: 1.5; stroke-linecap: square"/>
   </g>
   <g id="line2d_26">
    <path d="M 34.16 147.14 
L 453.192 147.14 
" clip-path="url(#p5eeb40a3cf)" style="fill: none; stroke-dasharray: 2,3.3; stroke-dashoffset: 0; stroke: #000000; stroke-width: 2"/>
   </g>
   <g id="patch_3">
    <path d="M 34.16 291.28 
L 34.16 3 
" style="fill: none; stroke: #000000; stroke-width: 0.8; stroke-linejoin: miter; stroke-linecap: square"/>
   </g>
   <g id="patch_4">
    <path d="M 453.192 291.28 
L 453.192 3 
" style="fill: none; stroke: #000000; stroke-width: 0.8; stroke-linejoin: miter; stroke-linecap: square"/>
   </g>
   <g id="patch_5">
    <path d="M 34.16 291.28 
L 453.192 291.28 
" style="fill: none; stroke: #000000; stroke-width: 0.8; stroke-linejoin: miter; stroke-linecap: square"/>
   </g>
   <g id="patch_6">
    <path d="M 34.16 3 
L 453.192 3 
" style="fill: none; stroke: #000000; stroke-width: 0.8; stroke-linejoin: miter; stroke-linecap: square"/>
   </g>
   <g id="text_6">
    <!-- f20-f24,10-D -->
    <g transform="translate(318.19261 285.5144) scale(0.2 -0.2)">
     <defs>
      <path id="DejaVuSans-34" d="M 2419 4116 
L 825 1625 
L 2419 1625 
L 2419 4116 
z
M 2253 4666 
L 3047 4666 
L 3047 1625 
L 3713 1625 
L 3713 1100 
L 3047 1100 
L 3047 0 
L 2419 0 
L 2419 1100 
L 313 1100 
L 313 1709 
L 2253 4666 
z
" transform="scale(0.015625)"/>
      <path id="DejaVuSans-2c" d="M 750 794 
L 1409 794 
L 1409 256 
L 897 -744 
L 494 -744 
L 750 256 
L 750 794 
z
" transform="scale(0.015625)"/>
      <path id="DejaVuSans-44" d="M 1259 4147 
L 1259 519 
L 2022 519 
Q 2988 519 3436 956 
Q 3884 1394 3884 2338 
Q 3884 3275 3436 3711 
Q 2988 4147 2022 4147 
L 1259 4147 
z
M 628 4666 
L 1925 4666 
Q 3281 4666 3915 4102 
Q 4550 3538 4550 2338 
Q 4550 1131 3912 565 
Q 3275 0 1925 0 
L 628 0 
L 628 4666 
z
" transform="scale(0.015625)"/>
     </defs>
     <use xlink:href="#DejaVuSans-66"/>
     <use xlink:href="#DejaVuSans-32" x="35.205078"/>
     <use xlink:href="#DejaVuSans-30" x="98.828125"/>
     <use xlink:href="#DejaVuSans-2d" x="162.451172"/>
     <use xlink:href="#DejaVuSans-66" x="198.535156"/>
     <use xlink:href="#DejaVuSans-32" x="233.740234"/>
     <use xlink:href="#DejaVuSans-34" x="297.363281"/>
     <use xlink:href="#DejaVuSans-2c" x="360.986328"/>
     <use xlink:href="#DejaVuSans-31" x="392.773438"/>
     <use xlink:href="#DejaVuSans-30" x="456.396484"/>
     <use xlink:href="#DejaVuSans-2d" x="520.019531"/>
     <use xlink:href="#DejaVuSans-44" x="556.103516"/>
    </g>
   </g>
   <g id="text_7">
    <!-- v2.6.3 -->
    <g style="fill: #808080" transform="translate(227.99475 286.317512) scale(0.1 -0.1)">
     <defs>
      <path id="DejaVuSans-2e" d="M 684 794 
L 1344 794 
L 1344 0 
L 684 0 
L 684 794 
z
" transform="scale(0.015625)"/>
      <path id="DejaVuSans-36" d="M 2113 2584 
Q 1688 2584 1439 2293 
Q 1191 2003 1191 1497 
Q 1191 994 1439 701 
Q 1688 409 2113 409 
Q 2538 409 2786 701 
Q 3034 994 3034 1497 
Q 3034 2003 2786 2293 
Q 2538 2584 2113 2584 
z
M 3366 4563 
L 3366 3988 
Q 3128 4100 2886 4159 
Q 2644 4219 2406 4219 
Q 1781 4219 1451 3797 
Q 1122 3375 1075 2522 
Q 1259 2794 1537 2939 
Q 1816 3084 2150 3084 
Q 2853 3084 3261 2657 
Q 3669 2231 3669 1497 
Q 3669 778 3244 343 
Q 2819 -91 2113 -91 
Q 1303 -91 875 529 
Q 447 1150 447 2328 
Q 447 3434 972 4092 
Q 1497 4750 2381 4750 
Q 2619 4750 2861 4703 
Q 3103 4656 3366 4563 
z
" transform="scale(0.015625)"/>
      <path id="DejaVuSans-33" d="M 2597 2516 
Q 3050 2419 3304 2112 
Q 3559 1806 3559 1356 
Q 3559 666 3084 287 
Q 2609 -91 1734 -91 
Q 1441 -91 1130 -33 
Q 819 25 488 141 
L 488 750 
Q 750 597 1062 519 
Q 1375 441 1716 441 
Q 2309 441 2620 675 
Q 2931 909 2931 1356 
Q 2931 1769 2642 2001 
Q 2353 2234 1838 2234 
L 1294 2234 
L 1294 2753 
L 1863 2753 
Q 2328 2753 2575 2939 
Q 2822 3125 2822 3475 
Q 2822 3834 2567 4026 
Q 2313 4219 1838 4219 
Q 1578 4219 1281 4162 
Q 984 4106 628 3988 
L 628 4550 
Q 988 4650 1302 4700 
Q 1616 4750 1894 4750 
Q 2613 4750 3031 4423 
Q 3450 4097 3450 3541 
Q 3450 3153 3228 2886 
Q 3006 2619 2597 2516 
z
" transform="scale(0.015625)"/>
     </defs>
     <use xlink:href="#DejaVuSans-76"/>
     <use xlink:href="#DejaVuSans-32" x="59.179688"/>
     <use xlink:href="#DejaVuSans-2e" x="122.802734"/>
     <use xlink:href="#DejaVuSans-36" x="154.589844"/>
     <use xlink:href="#DejaVuSans-2e" x="218.212891"/>
     <use xlink:href="#DejaVuSans-33" x="250"/>
    </g>
   </g>
   <g id="legend_1">
    <g id="patch_7">
     <path d="M 48.16 136.425 
L 177.381875 136.425 
Q 181.381875 136.425 181.381875 132.425 
L 181.381875 17 
Q 181.381875 13 177.381875 13 
L 48.16 13 
Q 44.16 13 44.16 17 
L 44.16 132.425 
Q 44.16 136.425 48.16 136.425 
z
" style="fill: #ffffff; opacity: 0.2; stroke: #cccccc; stroke-linejoin: miter"/>
    </g>
    <g id="line2d_27">
     <path d="M 52.16 29.196875 
L 72.16 29.196875 
L 92.16 29.196875 
" style="fill: none; stroke: #000000; stroke-width: 3; stroke-linecap: square"/>
    </g>
    <g id="text_8">
     <!-- 1: 5/5 -->
     <g transform="translate(108.16 36.196875) scale(0.2 -0.2)">
      <defs>
       <path id="DejaVuSans-3a" d="M 750 794 
L 1409 794 
L 1409 0 
L 750 0 
L 750 794 
z
M 750 3309 
L 1409 3309 
L 1409 2516 
L 750 2516 
L 750 3309 
z
" transform="scale(0.015625)"/>
       <path id="DejaVuSans-35" d="M 691 4666 
L 3169 4666 
L 3169 4134 
L 1269 4134 
L 1269 2991 
Q 1406 3038 1543 3061 
Q 1681 3084 1819 3084 
Q 2600 3084 3056 2656 
Q 3513 2228 3513 1497 
Q 3513 744 3044 326 
Q 2575 -91 1722 -91 
Q 1428 -91 1123 -41 
Q 819 9 494 109 
L 494 744 
Q 775 591 1075 516 
Q 1375 441 1709 441 
Q 2250 441 2565 725 
Q 2881 1009 2881 1497 
Q 2881 1984 2565 2268 
Q 2250 2553 1709 2553 
Q 1456 2553 1204 2497 
Q 953 2441 691 2322 
L 691 4666 
z
" transform="scale(0.015625)"/>
       <path id="DejaVuSans-2f" d="M 1625 4666 
L 2156 4666 
L 531 -594 
L 0 -594 
L 1625 4666 
z
" transform="scale(0.015625)"/>
      </defs>
      <use xlink:href="#DejaVuSans-31"/>
      <use xlink:href="#DejaVuSans-3a" x="63.623047"/>
      <use xlink:href="#DejaVuSans-20" x="97.314453"/>
      <use xlink:href="#DejaVuSans-35" x="129.101562"/>
      <use xlink:href="#DejaVuSans-2f" x="192.724609"/>
      <use xlink:href="#DejaVuSans-35" x="226.416016"/>
     </g>
    </g>
    <g id="line2d_28">
     <path d="M 52.16 58.553125 
L 72.16 58.553125 
L 92.16 58.553125 
" style="fill: none; stroke: #00bfbf; stroke-width: 3; stroke-linecap: square"/>
    </g>
    <g id="text_9">
     <!-- -1: 4/4 -->
     <g transform="translate(108.16 65.553125) scale(0.2 -0.2)">
      <use xlink:href="#DejaVuSans-2d"/>
      <use xlink:href="#DejaVuSans-31" x="36.083984"/>
      <use xlink:href="#DejaVuSans-3a" x="99.707031"/>
      <use xlink:href="#DejaVuSans-20" x="133.398438"/>
      <use xlink:href="#DejaVuSans-34" x="165.185547"/>
      <use xlink:href="#DejaVuSans-2f" x="228.808594"/>
      <use xlink:href="#DejaVuSans-34" x="262.5"/>
     </g>
    </g>
    <g id="line2d_29">
     <path d="M 52.16 87.909375 
L 72.16 87.909375 
L 92.16 87.909375 
" style="fill: none; stroke: #bf00bf; stroke-width: 3; stroke-linecap: square"/>
    </g>
    <g id="text_10">
     <!-- -4: 4/4 -->
     <g transform="translate(108.16 94.909375) scale(0.2 -0.2)">
      <use xlink:href="#DejaVuSans-2d"/>
      <use xlink:href="#DejaVuSans-34" x="36.083984"/>
      <use xlink:href="#DejaVuSans-3a" x="99.707031"/>
      <use xlink:href="#DejaVuSans-20" x="133.398438"/>
      <use xlink:href="#DejaVuSans-34" x="165.185547"/>
      <use xlink:href="#DejaVuSans-2f" x="228.808594"/>
      <use xlink:href="#DejaVuSans-34" x="262.5"/>
     </g>
    </g>
    <g id="line2d_30">
     <path d="M 52.16 117.265625 
L 72.16 117.265625 
L 92.16 117.265625 
" style="fill: none; stroke: #ff0000; stroke-width: 3; stroke-linecap: square"/>
    </g>
    <g id="text_11">
     <!-- -8: 4/4 -->
     <g transform="translate(108.16 124.265625) scale(0.2 -0.2)">
      <defs>
       <path id="DejaVuSans-38" d="M 2034 2216 
Q 1584 2216 1326 1975 
Q 1069 1734 1069 1313 
Q 1069 891 1326 650 
Q 1584 409 2034 409 
Q 2484 409 2743 651 
Q 3003 894 3003 1313 
Q 3003 1734 2745 1975 
Q 2488 2216 2034 2216 
z
M 1403 2484 
Q 997 2584 770 2862 
Q 544 3141 544 3541 
Q 544 4100 942 4425 
Q 1341 4750 2034 4750 
Q 2731 4750 3128 4425 
Q 3525 4100 3525 3541 
Q 3525 3141 3298 2862 
Q 3072 2584 2669 2484 
Q 3125 2378 3379 2068 
Q 3634 1759 3634 1313 
Q 3634 634 3220 271 
Q 2806 -91 2034 -91 
Q 1263 -91 848 271 
Q 434 634 434 1313 
Q 434 1759 690 2068 
Q 947 2378 1403 2484 
z
M 1172 3481 
Q 1172 3119 1398 2916 
Q 1625 2713 2034 2713 
Q 2441 2713 2670 2916 
Q 2900 3119 2900 3481 
Q 2900 3844 2670 4047 
Q 2441 4250 2034 4250 
Q 1625 4250 1398 4047 
Q 1172 3844 1172 3481 
z
" transform="scale(0.015625)"/>
      </defs>
      <use xlink:href="#DejaVuSans-2d"/>
      <use xlink:href="#DejaVuSans-38" x="36.083984"/>
      <use xlink:href="#DejaVuSans-3a" x="99.707031"/>
      <use xlink:href="#DejaVuSans-20" x="133.398438"/>
      <use xlink:href="#DejaVuSans-34" x="165.185547"/>
      <use xlink:href="#DejaVuSans-2f" x="228.808594"/>
      <use xlink:href="#DejaVuSans-34" x="262.5"/>
     </g>
    </g>
   </g>
  </g>
 </g>
 <defs>
  <clipPath id="p5eeb40a3cf">
   <rect x="34.16" y="3" width="419.032" height="288.28"/>
  </clipPath>
 </defs>
</svg>
