<?xml version="1.0" encoding="utf-8" standalone="no"?>
<!DOCTYPE svg PUBLIC "-//W3C//DTD SVG 1.1//EN"
  "http://www.w3.org/Graphics/SVG/1.1/DTD/svg11.dtd">
<svg xmlns:xlink="http://www.w3.org/1999/xlink" width="460.8pt" height="345.6pt" viewBox="0 0 460.8 345.6" xmlns="http://www.w3.org/2000/svg" version="1.1">
 <metadata>
  <rdf:RDF xmlns:dc="http://purl.org/dc/elements/1.1/" xmlns:cc="http://creativecommons.org/ns#" xmlns:rdf="http://www.w3.org/1999/02/22-rdf-syntax-ns#">
   <cc:Work>
    <dc:type rdf:resource="http://purl.org/dc/dcmitype/StillImage"/>
    <dc:date>2024-06-05T10:08:07.894167</dc:date>
    <dc:format>image/svg+xml</dc:format>
    <dc:creator>
     <cc:Agent>
      <dc:title>Matplotlib v3.7.1, https://matplotlib.org/</dc:title>
     </cc:Agent>
    </dc:creator>
   </cc:Work>
  </rdf:RDF>
 </metadata>
 <defs>
  <style type="text/css">*{stroke-linejoin: round; stroke-linecap: butt}</style>
 </defs>
 <g id="figure_1">
  <g id="patch_1">
   <path d="M 0 345.6 
L 460.8 345.6 
L 460.8 0 
L 0 0 
z
" style="fill: #ffffff"/>
  </g>
  <g id="axes_1">
   <g id="patch_2">
    <path d="M 34.16 291.28 
L 453.192 291.28 
L 453.192 3 
L 34.16 3 
z
" style="fill: #ffffff"/>
   </g>
   <g id="matplotlib.axis_1">
    <g id="xtick_1">
     <g id="line2d_1">
      <path d="M 132.710299 291.28 
L 132.710299 3 
" clip-path="url(#p2b48d5ff51)" style="fill: none; stroke: #b0b0b0; stroke-width: 0.8; stroke-linecap: square"/>
     </g>
     <g id="line2d_2">
      <defs>
       <path id="m59d56033ca" d="M 0 0 
L 0 3.5 
" style="stroke: #000000; stroke-width: 0.8"/>
      </defs>
      <g>
       <use xlink:href="#m59d56033ca" x="132.710299" y="291.28" style="stroke: #000000; stroke-width: 0.8"/>
      </g>
     </g>
     <g id="text_1">
      <!-- -1 -->
      <g transform="translate(122.739986 313.476875) scale(0.2 -0.2)">
       <defs>
        <path id="DejaVuSans-2d" d="M 313 2009 
L 1997 2009 
L 1997 1497 
L 313 1497 
L 313 2009 
z
" transform="scale(0.015625)"/>
        <path id="DejaVuSans-31" d="M 794 531 
L 1825 531 
L 1825 4091 
L 703 3866 
L 703 4441 
L 1819 4666 
L 2450 4666 
L 2450 531 
L 3481 531 
L 3481 0 
L 794 0 
L 794 531 
z
" transform="scale(0.015625)"/>
       </defs>
       <use xlink:href="#DejaVuSans-2d"/>
       <use xlink:href="#DejaVuSans-31" x="36.083984"/>
      </g>
     </g>
    </g>
    <g id="xtick_2">
     <g id="line2d_3">
      <path d="M 243.676 291.28 
L 243.676 3 
" clip-path="url(#p2b48d5ff51)" style="fill: none; stroke: #b0b0b0; stroke-width: 0.8; stroke-linecap: square"/>
     </g>
     <g id="line2d_4">
      <g>
       <use xlink:href="#m59d56033ca" x="243.676" y="291.28" style="stroke: #000000; stroke-width: 0.8"/>
      </g>
     </g>
     <g id="text_2">
      <!-- 0 -->
      <g transform="translate(237.3135 313.476875) scale(0.2 -0.2)">
       <defs>
        <path id="DejaVuSans-30" d="M 2034 4250 
Q 1547 4250 1301 3770 
Q 1056 3291 1056 2328 
Q 1056 1369 1301 889 
Q 1547 409 2034 409 
Q 2525 409 2770 889 
Q 3016 1369 3016 2328 
Q 3016 3291 2770 3770 
Q 2525 4250 2034 4250 
z
M 2034 4750 
Q 2819 4750 3233 4129 
Q 3647 3509 3647 2328 
Q 3647 1150 3233 529 
Q 2819 -91 2034 -91 
Q 1250 -91 836 529 
Q 422 1150 422 2328 
Q 422 3509 836 4129 
Q 1250 4750 2034 4750 
z
" transform="scale(0.015625)"/>
       </defs>
       <use xlink:href="#DejaVuSans-30"/>
      </g>
     </g>
    </g>
    <g id="xtick_3">
     <g id="line2d_5">
      <path d="M 354.641701 291.28 
L 354.641701 3 
" clip-path="url(#p2b48d5ff51)" style="fill: none; stroke: #b0b0b0; stroke-width: 0.8; stroke-linecap: square"/>
     </g>
     <g id="line2d_6">
      <g>
       <use xlink:href="#m59d56033ca" x="354.641701" y="291.28" style="stroke: #000000; stroke-width: 0.8"/>
      </g>
     </g>
     <g id="text_3">
      <!-- 1 -->
      <g transform="translate(348.279201 313.476875) scale(0.2 -0.2)">
       <use xlink:href="#DejaVuSans-31"/>
      </g>
     </g>
    </g>
    <g id="xtick_4">
     <g id="line2d_7">
      <defs>
       <path id="m83e9aca161" d="M 0 0 
L 0 2 
" style="stroke: #000000; stroke-width: 0.6"/>
      </defs>
      <g>
       <use xlink:href="#m83e9aca161" x="55.148602" y="291.28" style="stroke: #000000; stroke-width: 0.6"/>
      </g>
     </g>
    </g>
    <g id="xtick_5">
     <g id="line2d_8">
      <g>
       <use xlink:href="#m83e9aca161" x="74.688692" y="291.28" style="stroke: #000000; stroke-width: 0.6"/>
      </g>
     </g>
    </g>
    <g id="xtick_6">
     <g id="line2d_9">
      <g>
       <use xlink:href="#m83e9aca161" x="88.552606" y="291.28" style="stroke: #000000; stroke-width: 0.6"/>
      </g>
     </g>
    </g>
    <g id="xtick_7">
     <g id="line2d_10">
      <g>
       <use xlink:href="#m83e9aca161" x="99.306294" y="291.28" style="stroke: #000000; stroke-width: 0.6"/>
      </g>
     </g>
    </g>
    <g id="xtick_8">
     <g id="line2d_11">
      <g>
       <use xlink:href="#m83e9aca161" x="108.092696" y="291.28" style="stroke: #000000; stroke-width: 0.6"/>
      </g>
     </g>
    </g>
    <g id="xtick_9">
     <g id="line2d_12">
      <g>
       <use xlink:href="#m83e9aca161" x="115.521494" y="291.28" style="stroke: #000000; stroke-width: 0.6"/>
      </g>
     </g>
    </g>
    <g id="xtick_10">
     <g id="line2d_13">
      <g>
       <use xlink:href="#m83e9aca161" x="121.956611" y="291.28" style="stroke: #000000; stroke-width: 0.6"/>
      </g>
     </g>
    </g>
    <g id="xtick_11">
     <g id="line2d_14">
      <g>
       <use xlink:href="#m83e9aca161" x="127.632786" y="291.28" style="stroke: #000000; stroke-width: 0.6"/>
      </g>
     </g>
    </g>
    <g id="xtick_12">
     <g id="line2d_15">
      <g>
       <use xlink:href="#m83e9aca161" x="166.114303" y="291.28" style="stroke: #000000; stroke-width: 0.6"/>
      </g>
     </g>
    </g>
    <g id="xtick_13">
     <g id="line2d_16">
      <g>
       <use xlink:href="#m83e9aca161" x="185.654393" y="291.28" style="stroke: #000000; stroke-width: 0.6"/>
      </g>
     </g>
    </g>
    <g id="xtick_14">
     <g id="line2d_17">
      <g>
       <use xlink:href="#m83e9aca161" x="199.518308" y="291.28" style="stroke: #000000; stroke-width: 0.6"/>
      </g>
     </g>
    </g>
    <g id="xtick_15">
     <g id="line2d_18">
      <g>
       <use xlink:href="#m83e9aca161" x="210.271995" y="291.28" style="stroke: #000000; stroke-width: 0.6"/>
      </g>
     </g>
    </g>
    <g id="xtick_16">
     <g id="line2d_19">
      <g>
       <use xlink:href="#m83e9aca161" x="219.058398" y="291.28" style="stroke: #000000; stroke-width: 0.6"/>
      </g>
     </g>
    </g>
    <g id="xtick_17">
     <g id="line2d_20">
      <g>
       <use xlink:href="#m83e9aca161" x="226.487195" y="291.28" style="stroke: #000000; stroke-width: 0.6"/>
      </g>
     </g>
    </g>
    <g id="xtick_18">
     <g id="line2d_21">
      <g>
       <use xlink:href="#m83e9aca161" x="232.922312" y="291.28" style="stroke: #000000; stroke-width: 0.6"/>
      </g>
     </g>
    </g>
    <g id="xtick_19">
     <g id="line2d_22">
      <g>
       <use xlink:href="#m83e9aca161" x="238.598488" y="291.28" style="stroke: #000000; stroke-width: 0.6"/>
      </g>
     </g>
    </g>
    <g id="xtick_20">
     <g id="line2d_23">
      <g>
       <use xlink:href="#m83e9aca161" x="277.080005" y="291.28" style="stroke: #000000; stroke-width: 0.6"/>
      </g>
     </g>
    </g>
    <g id="xtick_21">
     <g id="line2d_24">
      <g>
       <use xlink:href="#m83e9aca161" x="296.620095" y="291.28" style="stroke: #000000; stroke-width: 0.6"/>
      </g>
     </g>
    </g>
    <g id="xtick_22">
     <g id="line2d_25">
      <g>
       <use xlink:href="#m83e9aca161" x="310.484009" y="291.28" style="stroke: #000000; stroke-width: 0.6"/>
      </g>
     </g>
    </g>
    <g id="xtick_23">
     <g id="line2d_26">
      <g>
       <use xlink:href="#m83e9aca161" x="321.237697" y="291.28" style="stroke: #000000; stroke-width: 0.6"/>
      </g>
     </g>
    </g>
    <g id="xtick_24">
     <g id="line2d_27">
      <g>
       <use xlink:href="#m83e9aca161" x="330.024099" y="291.28" style="stroke: #000000; stroke-width: 0.6"/>
      </g>
     </g>
    </g>
    <g id="xtick_25">
     <g id="line2d_28">
      <g>
       <use xlink:href="#m83e9aca161" x="337.452897" y="291.28" style="stroke: #000000; stroke-width: 0.6"/>
      </g>
     </g>
    </g>
    <g id="xtick_26">
     <g id="line2d_29">
      <g>
       <use xlink:href="#m83e9aca161" x="343.888014" y="291.28" style="stroke: #000000; stroke-width: 0.6"/>
      </g>
     </g>
    </g>
    <g id="xtick_27">
     <g id="line2d_30">
      <g>
       <use xlink:href="#m83e9aca161" x="349.564189" y="291.28" style="stroke: #000000; stroke-width: 0.6"/>
      </g>
     </g>
    </g>
    <g id="xtick_28">
     <g id="line2d_31">
      <g>
       <use xlink:href="#m83e9aca161" x="388.045706" y="291.28" style="stroke: #000000; stroke-width: 0.6"/>
      </g>
     </g>
    </g>
    <g id="xtick_29">
     <g id="line2d_32">
      <g>
       <use xlink:href="#m83e9aca161" x="407.585796" y="291.28" style="stroke: #000000; stroke-width: 0.6"/>
      </g>
     </g>
    </g>
    <g id="xtick_30">
     <g id="line2d_33">
      <g>
       <use xlink:href="#m83e9aca161" x="421.449711" y="291.28" style="stroke: #000000; stroke-width: 0.6"/>
      </g>
     </g>
    </g>
    <g id="xtick_31">
     <g id="line2d_34">
      <g>
       <use xlink:href="#m83e9aca161" x="432.203398" y="291.28" style="stroke: #000000; stroke-width: 0.6"/>
      </g>
     </g>
    </g>
    <g id="xtick_32">
     <g id="line2d_35">
      <g>
       <use xlink:href="#m83e9aca161" x="440.989801" y="291.28" style="stroke: #000000; stroke-width: 0.6"/>
      </g>
     </g>
    </g>
    <g id="xtick_33">
     <g id="line2d_36">
      <g>
       <use xlink:href="#m83e9aca161" x="448.418598" y="291.28" style="stroke: #000000; stroke-width: 0.6"/>
      </g>
     </g>
    </g>
    <g id="text_4">
     <!-- log10 of FEvals ratio -->
     <g transform="translate(141.371312 336.833125) scale(0.2 -0.2)">
      <defs>
       <path id="DejaVuSans-6c" d="M 603 4863 
L 1178 4863 
L 1178 0 
L 603 0 
L 603 4863 
z
" transform="scale(0.015625)"/>
       <path id="DejaVuSans-6f" d="M 1959 3097 
Q 1497 3097 1228 2736 
Q 959 2375 959 1747 
Q 959 1119 1226 758 
Q 1494 397 1959 397 
Q 2419 397 2687 759 
Q 2956 1122 2956 1747 
Q 2956 2369 2687 2733 
Q 2419 3097 1959 3097 
z
M 1959 3584 
Q 2709 3584 3137 3096 
Q 3566 2609 3566 1747 
Q 3566 888 3137 398 
Q 2709 -91 1959 -91 
Q 1206 -91 779 398 
Q 353 888 353 1747 
Q 353 2609 779 3096 
Q 1206 3584 1959 3584 
z
" transform="scale(0.015625)"/>
       <path id="DejaVuSans-67" d="M 2906 1791 
Q 2906 2416 2648 2759 
Q 2391 3103 1925 3103 
Q 1463 3103 1205 2759 
Q 947 2416 947 1791 
Q 947 1169 1205 825 
Q 1463 481 1925 481 
Q 2391 481 2648 825 
Q 2906 1169 2906 1791 
z
M 3481 434 
Q 3481 -459 3084 -895 
Q 2688 -1331 1869 -1331 
Q 1566 -1331 1297 -1286 
Q 1028 -1241 775 -1147 
L 775 -588 
Q 1028 -725 1275 -790 
Q 1522 -856 1778 -856 
Q 2344 -856 2625 -561 
Q 2906 -266 2906 331 
L 2906 616 
Q 2728 306 2450 153 
Q 2172 0 1784 0 
Q 1141 0 747 490 
Q 353 981 353 1791 
Q 353 2603 747 3093 
Q 1141 3584 1784 3584 
Q 2172 3584 2450 3431 
Q 2728 3278 2906 2969 
L 2906 3500 
L 3481 3500 
L 3481 434 
z
" transform="scale(0.015625)"/>
       <path id="DejaVuSans-20" transform="scale(0.015625)"/>
       <path id="DejaVuSans-66" d="M 2375 4863 
L 2375 4384 
L 1825 4384 
Q 1516 4384 1395 4259 
Q 1275 4134 1275 3809 
L 1275 3500 
L 2222 3500 
L 2222 3053 
L 1275 3053 
L 1275 0 
L 697 0 
L 697 3053 
L 147 3053 
L 147 3500 
L 697 3500 
L 697 3744 
Q 697 4328 969 4595 
Q 1241 4863 1831 4863 
L 2375 4863 
z
" transform="scale(0.015625)"/>
       <path id="DejaVuSans-46" d="M 628 4666 
L 3309 4666 
L 3309 4134 
L 1259 4134 
L 1259 2759 
L 3109 2759 
L 3109 2228 
L 1259 2228 
L 1259 0 
L 628 0 
L 628 4666 
z
" transform="scale(0.015625)"/>
       <path id="DejaVuSans-45" d="M 628 4666 
L 3578 4666 
L 3578 4134 
L 1259 4134 
L 1259 2753 
L 3481 2753 
L 3481 2222 
L 1259 2222 
L 1259 531 
L 3634 531 
L 3634 0 
L 628 0 
L 628 4666 
z
" transform="scale(0.015625)"/>
       <path id="DejaVuSans-76" d="M 191 3500 
L 800 3500 
L 1894 563 
L 2988 3500 
L 3597 3500 
L 2284 0 
L 1503 0 
L 191 3500 
z
" transform="scale(0.015625)"/>
       <path id="DejaVuSans-61" d="M 2194 1759 
Q 1497 1759 1228 1600 
Q 959 1441 959 1056 
Q 959 750 1161 570 
Q 1363 391 1709 391 
Q 2188 391 2477 730 
Q 2766 1069 2766 1631 
L 2766 1759 
L 2194 1759 
z
M 3341 1997 
L 3341 0 
L 2766 0 
L 2766 531 
Q 2569 213 2275 61 
Q 1981 -91 1556 -91 
Q 1019 -91 701 211 
Q 384 513 384 1019 
Q 384 1609 779 1909 
Q 1175 2209 1959 2209 
L 2766 2209 
L 2766 2266 
Q 2766 2663 2505 2880 
Q 2244 3097 1772 3097 
Q 1472 3097 1187 3025 
Q 903 2953 641 2809 
L 641 3341 
Q 956 3463 1253 3523 
Q 1550 3584 1831 3584 
Q 2591 3584 2966 3190 
Q 3341 2797 3341 1997 
z
" transform="scale(0.015625)"/>
       <path id="DejaVuSans-73" d="M 2834 3397 
L 2834 2853 
Q 2591 2978 2328 3040 
Q 2066 3103 1784 3103 
Q 1356 3103 1142 2972 
Q 928 2841 928 2578 
Q 928 2378 1081 2264 
Q 1234 2150 1697 2047 
L 1894 2003 
Q 2506 1872 2764 1633 
Q 3022 1394 3022 966 
Q 3022 478 2636 193 
Q 2250 -91 1575 -91 
Q 1294 -91 989 -36 
Q 684 19 347 128 
L 347 722 
Q 666 556 975 473 
Q 1284 391 1588 391 
Q 1994 391 2212 530 
Q 2431 669 2431 922 
Q 2431 1156 2273 1281 
Q 2116 1406 1581 1522 
L 1381 1569 
Q 847 1681 609 1914 
Q 372 2147 372 2553 
Q 372 3047 722 3315 
Q 1072 3584 1716 3584 
Q 2034 3584 2315 3537 
Q 2597 3491 2834 3397 
z
" transform="scale(0.015625)"/>
       <path id="DejaVuSans-72" d="M 2631 2963 
Q 2534 3019 2420 3045 
Q 2306 3072 2169 3072 
Q 1681 3072 1420 2755 
Q 1159 2438 1159 1844 
L 1159 0 
L 581 0 
L 581 3500 
L 1159 3500 
L 1159 2956 
Q 1341 3275 1631 3429 
Q 1922 3584 2338 3584 
Q 2397 3584 2469 3576 
Q 2541 3569 2628 3553 
L 2631 2963 
z
" transform="scale(0.015625)"/>
       <path id="DejaVuSans-74" d="M 1172 4494 
L 1172 3500 
L 2356 3500 
L 2356 3053 
L 1172 3053 
L 1172 1153 
Q 1172 725 1289 603 
Q 1406 481 1766 481 
L 2356 481 
L 2356 0 
L 1766 0 
Q 1100 0 847 248 
Q 594 497 594 1153 
L 594 3053 
L 172 3053 
L 172 3500 
L 594 3500 
L 594 4494 
L 1172 4494 
z
" transform="scale(0.015625)"/>
       <path id="DejaVuSans-69" d="M 603 3500 
L 1178 3500 
L 1178 0 
L 603 0 
L 603 3500 
z
M 603 4863 
L 1178 4863 
L 1178 4134 
L 603 4134 
L 603 4863 
z
" transform="scale(0.015625)"/>
      </defs>
      <use xlink:href="#DejaVuSans-6c"/>
      <use xlink:href="#DejaVuSans-6f" x="27.783203"/>
      <use xlink:href="#DejaVuSans-67" x="88.964844"/>
      <use xlink:href="#DejaVuSans-31" x="152.441406"/>
      <use xlink:href="#DejaVuSans-30" x="216.064453"/>
      <use xlink:href="#DejaVuSans-20" x="279.6875"/>
      <use xlink:href="#DejaVuSans-6f" x="311.474609"/>
      <use xlink:href="#DejaVuSans-66" x="372.65625"/>
      <use xlink:href="#DejaVuSans-20" x="407.861328"/>
      <use xlink:href="#DejaVuSans-46" x="439.648438"/>
      <use xlink:href="#DejaVuSans-45" x="497.167969"/>
      <use xlink:href="#DejaVuSans-76" x="560.351562"/>
      <use xlink:href="#DejaVuSans-61" x="619.53125"/>
      <use xlink:href="#DejaVuSans-6c" x="680.810547"/>
      <use xlink:href="#DejaVuSans-73" x="708.59375"/>
      <use xlink:href="#DejaVuSans-20" x="760.693359"/>
      <use xlink:href="#DejaVuSans-72" x="792.480469"/>
      <use xlink:href="#DejaVuSans-61" x="833.59375"/>
      <use xlink:href="#DejaVuSans-74" x="894.873047"/>
      <use xlink:href="#DejaVuSans-69" x="934.082031"/>
      <use xlink:href="#DejaVuSans-6f" x="961.865234"/>
     </g>
    </g>
   </g>
   <g id="matplotlib.axis_2">
    <g id="ytick_1">
     <g id="line2d_37">
      <path d="M 34.16 288.453725 
L 453.192 288.453725 
" clip-path="url(#p2b48d5ff51)" style="fill: none; stroke: #b0b0b0; stroke-width: 0.8; stroke-linecap: square"/>
     </g>
     <g id="line2d_38">
      <defs>
       <path id="m56a8464e31" d="M 0 0 
L -3.5 0 
" style="stroke: #000000; stroke-width: 0.8"/>
      </defs>
      <g>
       <use xlink:href="#m56a8464e31" x="34.16" y="288.453725" style="stroke: #000000; stroke-width: 0.8"/>
      </g>
     </g>
    </g>
    <g id="ytick_2">
     <g id="line2d_39">
      <path d="M 34.16 217.796863 
L 453.192 217.796863 
" clip-path="url(#p2b48d5ff51)" style="fill: none; stroke: #b0b0b0; stroke-width: 0.8; stroke-linecap: square"/>
     </g>
     <g id="line2d_40">
      <g>
       <use xlink:href="#m56a8464e31" x="34.16" y="217.796863" style="stroke: #000000; stroke-width: 0.8"/>
      </g>
     </g>
    </g>
    <g id="ytick_3">
     <g id="line2d_41">
      <path d="M 34.16 147.14 
L 453.192 147.14 
" clip-path="url(#p2b48d5ff51)" style="fill: none; stroke: #b0b0b0; stroke-width: 0.8; stroke-linecap: square"/>
     </g>
     <g id="line2d_42">
      <g>
       <use xlink:href="#m56a8464e31" x="34.16" y="147.14" style="stroke: #000000; stroke-width: 0.8"/>
      </g>
     </g>
    </g>
    <g id="ytick_4">
     <g id="line2d_43">
      <path d="M 34.16 76.483137 
L 453.192 76.483137 
" clip-path="url(#p2b48d5ff51)" style="fill: none; stroke: #b0b0b0; stroke-width: 0.8; stroke-linecap: square"/>
     </g>
     <g id="line2d_44">
      <g>
       <use xlink:href="#m56a8464e31" x="34.16" y="76.483137" style="stroke: #000000; stroke-width: 0.8"/>
      </g>
     </g>
    </g>
    <g id="ytick_5">
     <g id="line2d_45">
      <path d="M 34.16 5.826275 
L 453.192 5.826275 
" clip-path="url(#p2b48d5ff51)" style="fill: none; stroke: #b0b0b0; stroke-width: 0.8; stroke-linecap: square"/>
     </g>
     <g id="line2d_46">
      <g>
       <use xlink:href="#m56a8464e31" x="34.16" y="5.826275" style="stroke: #000000; stroke-width: 0.8"/>
      </g>
     </g>
    </g>
    <g id="text_5">
     <!-- proportion of trials -->
     <g transform="translate(19.000625 240.14625) rotate(-90) scale(0.2 -0.2)">
      <defs>
       <path id="DejaVuSans-70" d="M 1159 525 
L 1159 -1331 
L 581 -1331 
L 581 3500 
L 1159 3500 
L 1159 2969 
Q 1341 3281 1617 3432 
Q 1894 3584 2278 3584 
Q 2916 3584 3314 3078 
Q 3713 2572 3713 1747 
Q 3713 922 3314 415 
Q 2916 -91 2278 -91 
Q 1894 -91 1617 61 
Q 1341 213 1159 525 
z
M 3116 1747 
Q 3116 2381 2855 2742 
Q 2594 3103 2138 3103 
Q 1681 3103 1420 2742 
Q 1159 2381 1159 1747 
Q 1159 1113 1420 752 
Q 1681 391 2138 391 
Q 2594 391 2855 752 
Q 3116 1113 3116 1747 
z
" transform="scale(0.015625)"/>
       <path id="DejaVuSans-6e" d="M 3513 2113 
L 3513 0 
L 2938 0 
L 2938 2094 
Q 2938 2591 2744 2837 
Q 2550 3084 2163 3084 
Q 1697 3084 1428 2787 
Q 1159 2491 1159 1978 
L 1159 0 
L 581 0 
L 581 3500 
L 1159 3500 
L 1159 2956 
Q 1366 3272 1645 3428 
Q 1925 3584 2291 3584 
Q 2894 3584 3203 3211 
Q 3513 2838 3513 2113 
z
" transform="scale(0.015625)"/>
      </defs>
      <use xlink:href="#DejaVuSans-70"/>
      <use xlink:href="#DejaVuSans-72" x="63.476562"/>
      <use xlink:href="#DejaVuSans-6f" x="102.339844"/>
      <use xlink:href="#DejaVuSans-70" x="163.521484"/>
      <use xlink:href="#DejaVuSans-6f" x="226.998047"/>
      <use xlink:href="#DejaVuSans-72" x="288.179688"/>
      <use xlink:href="#DejaVuSans-74" x="329.292969"/>
      <use xlink:href="#DejaVuSans-69" x="368.501953"/>
      <use xlink:href="#DejaVuSans-6f" x="396.285156"/>
      <use xlink:href="#DejaVuSans-6e" x="457.466797"/>
      <use xlink:href="#DejaVuSans-20" x="520.845703"/>
      <use xlink:href="#DejaVuSans-6f" x="552.632812"/>
      <use xlink:href="#DejaVuSans-66" x="613.814453"/>
      <use xlink:href="#DejaVuSans-20" x="649.019531"/>
      <use xlink:href="#DejaVuSans-74" x="680.806641"/>
      <use xlink:href="#DejaVuSans-72" x="720.015625"/>
      <use xlink:href="#DejaVuSans-69" x="761.128906"/>
      <use xlink:href="#DejaVuSans-61" x="788.912109"/>
      <use xlink:href="#DejaVuSans-6c" x="850.191406"/>
      <use xlink:href="#DejaVuSans-73" x="877.974609"/>
     </g>
    </g>
   </g>
   <g id="line2d_47">
    <path d="M 34.16 276.231998 
L 53.05273 276.231998 
L 53.05273 275.926455 
L 59.776767 275.926455 
L 59.776767 275.620911 
L 70.267608 275.620911 
L 70.267608 275.315368 
L 70.409319 275.315368 
L 70.409319 275.009825 
L 70.872028 275.009825 
L 70.872028 274.704282 
L 94.684155 274.704282 
L 94.684155 274.398739 
L 99.569268 274.398739 
L 99.569268 274.093196 
L 99.974521 274.093196 
L 99.974521 273.787652 
L 101.408193 273.787652 
L 101.408193 273.482109 
L 104.053295 273.482109 
L 104.053295 273.176566 
L 106.293306 273.176566 
L 106.293306 272.871023 
L 106.698558 272.871023 
L 106.698558 272.56548 
L 110.777333 272.56548 
L 110.777333 272.259936 
L 111.899034 272.259936 
L 111.899034 271.954393 
L 112.040745 271.954393 
L 112.040745 271.64885 
L 112.503454 271.64885 
L 112.503454 271.343307 
L 116.784147 271.343307 
L 116.784147 271.037764 
L 116.925858 271.037764 
L 116.925858 270.73222 
L 117.189399 270.73222 
L 117.189399 270.426677 
L 117.33111 270.426677 
L 117.388567 269.815591 
L 117.793819 269.815591 
L 117.793819 269.510048 
L 121.268174 269.510048 
L 121.268174 269.204505 
L 121.409885 269.204505 
L 121.409885 268.898961 
L 121.872594 268.898961 
L 121.872594 268.593418 
L 130.691205 268.593418 
L 130.691205 268.287875 
L 133.66577 268.287875 
L 133.66577 267.982332 
L 135.262886 267.982332 
L 135.262886 267.676789 
L 137.960609 267.676789 
L 137.960609 267.371245 
L 138.55196 267.371245 
L 138.55196 267.065702 
L 139.970091 267.065702 
L 139.970091 266.760159 
L 141.092081 266.760159 
L 141.092081 266.454616 
L 141.526526 266.454616 
L 141.526526 266.149073 
L 141.866019 266.149073 
L 141.949693 264.9269 
L 142.005595 264.9269 
L 142.005595 264.621357 
L 142.888104 264.621357 
L 142.888104 264.315813 
L 143.592189 264.315813 
L 143.592189 264.01027 
L 144.840584 264.01027 
L 144.885169 263.399184 
L 145.821364 263.399184 
L 145.821364 263.093641 
L 146.566754 263.093641 
L 146.566754 262.788098 
L 147.830847 262.788098 
L 147.830847 262.482554 
L 148.952837 262.482554 
L 148.952837 262.177011 
L 149.135423 262.177011 
L 149.180007 261.565925 
L 149.785927 261.565925 
L 149.86635 260.649295 
L 150.74886 260.649295 
L 150.74886 260.343752 
L 150.861593 260.343752 
L 150.861593 260.038209 
L 151.131847 260.038209 
L 151.18949 259.121579 
L 152.266895 259.121579 
L 152.31148 258.510493 
L 152.871075 258.510493 
L 152.871075 258.20495 
L 153.099986 258.20495 
L 153.180409 256.677234 
L 153.224994 256.677234 
L 153.224994 256.371691 
L 153.993065 256.371691 
L 154.062918 255.760604 
L 154.107503 255.760604 
L 154.107503 255.455061 
L 154.826156 255.455061 
L 154.906579 254.538431 
L 155.789088 254.538431 
L 155.789088 254.232888 
L 156.587603 254.232888 
L 156.587603 253.927345 
L 157.855885 253.927345 
L 157.855885 253.621802 
L 159.562168 253.621802 
L 159.562168 253.316259 
L 160.905985 253.316259 
L 160.905985 253.010715 
L 163.857007 253.010715 
L 163.857007 252.705172 
L 165.866489 252.705172 
L 165.866489 252.399629 
L 166.988479 252.399629 
L 166.988479 252.094086 
L 167.630022 252.094086 
L 167.630022 251.788543 
L 167.82157 251.788543 
L 167.901993 250.871913 
L 168.346726 250.871913 
L 168.346726 250.56637 
L 168.488437 250.56637 
L 168.488437 250.260827 
L 168.784502 250.260827 
L 168.784502 249.955284 
L 168.951146 249.955284 
L 168.951146 249.64974 
L 170.434096 249.64974 
L 170.434096 249.344197 
L 173.487754 249.344197 
L 173.487754 249.038654 
L 175.516315 249.038654 
L 175.516315 248.733111 
L 176.261852 248.733111 
L 176.261852 248.427568 
L 176.894312 248.427568 
L 176.894312 248.122024 
L 177.747896 248.122024 
L 177.747896 247.816481 
L 178.120863 247.816481 
L 178.120863 247.510938 
L 178.262574 247.510938 
L 178.262574 247.205395 
L 178.725283 247.205395 
L 178.725283 246.899852 
L 180.801553 246.899852 
L 180.801553 246.594308 
L 181.779425 246.594308 
L 181.779425 246.288765 
L 182.184677 246.288765 
L 182.184677 245.983222 
L 183.575651 245.983222 
L 183.575651 245.677679 
L 185.397662 245.677679 
L 185.397662 245.372136 
L 186.263452 245.372136 
L 186.263452 245.066592 
L 188.778785 245.066592 
L 188.778785 244.761049 
L 189.492238 244.761049 
L 189.597928 244.149963 
L 193.875554 244.149963 
L 193.875554 243.84442 
L 195.472354 243.84442 
L 195.556905 243.233333 
L 195.815133 243.233333 
L 195.815133 242.92779 
L 196.100683 242.92779 
L 196.100683 242.622247 
L 196.216276 242.622247 
L 196.216276 242.316704 
L 196.504527 242.316704 
L 196.504527 242.011161 
L 197.236232 242.011161 
L 197.236232 241.705617 
L 198.216438 241.705617 
L 198.216438 241.400074 
L 198.699164 241.400074 
L 198.699164 241.094531 
L 200.596012 241.094531 
L 200.596012 240.788988 
L 200.920666 240.788988 
L 200.920666 240.483445 
L 201.421847 240.483445 
L 201.421847 240.177901 
L 201.559007 240.177901 
L 201.56594 239.566815 
L 201.689148 239.566815 
L 201.693664 238.955729 
L 203.306885 238.955729 
L 203.306885 238.650185 
L 203.916067 238.650185 
L 203.916067 238.344642 
L 204.181042 238.344642 
L 204.181042 238.039099 
L 204.844688 238.039099 
L 204.844688 237.733556 
L 204.965876 237.733556 
L 204.965876 237.428013 
L 205.309981 237.428013 
L 205.309981 237.12247 
L 205.682796 237.12247 
L 205.682796 236.816926 
L 205.957054 236.816926 
L 205.957054 236.511383 
L 206.410494 236.511383 
L 206.410494 236.20584 
L 206.707117 236.20584 
L 206.707117 235.900297 
L 206.848827 235.900297 
L 206.848827 235.594754 
L 207.297191 235.594754 
L 207.311537 234.983667 
L 207.636208 234.983667 
L 207.636208 234.678124 
L 207.769942 234.678124 
L 207.769942 234.372581 
L 208.091047 234.372581 
L 208.116334 233.761494 
L 208.2191 233.761494 
L 208.2191 233.455951 
L 208.726141 233.455951 
L 208.789116 232.844865 
L 208.879739 232.844865 
L 208.879739 232.539322 
L 209.007463 232.539322 
L 209.060602 231.622692 
L 209.774902 231.622692 
L 209.774902 231.317149 
L 210.484993 231.317149 
L 210.484993 231.011606 
L 210.752534 231.011606 
L 210.8236 230.400519 
L 211.144705 230.400519 
L 211.144705 230.094976 
L 211.272757 230.094976 
L 211.272757 229.789433 
L 211.494842 229.789433 
L 211.494842 229.48389 
L 211.779799 229.48389 
L 211.842774 228.872803 
L 212.158487 228.872803 
L 212.158487 228.56726 
L 212.62378 228.56726 
L 212.62378 228.261717 
L 212.828559 228.261717 
L 212.828559 227.956174 
L 212.996596 227.956174 
L 212.996596 227.650631 
L 213.270853 227.650631 
L 213.270853 227.345087 
L 213.538651 227.345087 
L 213.597697 226.734001 
L 213.724293 226.734001 
L 213.724293 226.428458 
L 213.918803 226.428458 
L 213.918803 226.122915 
L 214.046855 226.122915 
L 214.075311 225.511828 
L 214.553897 225.511828 
L 214.619089 224.595199 
L 214.950007 224.595199 
L 215.022933 223.984112 
L 215.602657 223.984112 
L 215.602657 223.678569 
L 215.737541 223.678569 
L 215.754638 223.067483 
L 215.85858 223.067483 
L 215.85858 222.76194 
L 216.167579 222.76194 
L 216.167579 222.456396 
L 216.312748 222.456396 
L 216.312748 222.150853 
L 216.734843 222.150853 
L 216.734843 221.84531 
L 216.877145 221.84531 
L 216.877145 221.539767 
L 217.147741 221.539767 
L 217.21757 220.92868 
L 217.476571 220.92868 
L 217.476571 220.623137 
L 219.239704 220.623137 
L 219.239704 220.317594 
L 219.439071 220.317594 
L 219.548703 219.706508 
L 220.058847 219.706508 
L 220.06474 219.095421 
L 220.367846 219.095421 
L 220.367846 218.789878 
L 221.409683 218.789878 
L 221.409683 218.484335 
L 221.825291 218.484335 
L 221.825291 218.178792 
L 222.032854 218.178792 
L 222.032854 217.873249 
L 222.438106 217.873249 
L 222.438106 217.567705 
L 223.445863 217.567705 
L 223.484282 216.956619 
L 223.601183 216.956619 
L 223.601183 216.651076 
L 224.265007 216.651076 
L 224.265007 216.345533 
L 226.017824 216.345533 
L 226.017824 216.039989 
L 226.228382 216.039989 
L 226.326823 215.428903 
L 226.370093 215.428903 
L 226.383261 214.817817 
L 226.516881 214.817817 
L 226.561602 214.20673 
L 226.832802 214.20673 
L 226.870601 213.290101 
L 226.965446 213.290101 
L 226.965446 212.984557 
L 227.274445 212.984557 
L 227.274445 212.679014 
L 227.579008 212.679014 
L 227.579008 212.373471 
L 227.697151 212.373471 
L 227.697151 212.067928 
L 227.967412 212.067928 
L 228.00615 211.456842 
L 228.109123 211.456842 
L 228.109123 211.151298 
L 228.521343 211.151298 
L 228.571832 210.540212 
L 228.677356 210.540212 
L 228.706577 209.929126 
L 228.986355 209.929126 
L 228.986355 209.623582 
L 229.150139 209.623582 
L 229.160083 209.012496 
L 229.270439 209.012496 
L 229.270439 208.706953 
L 229.469082 208.706953 
L 229.469082 208.40141 
L 229.872818 208.40141 
L 229.872818 208.095866 
L 230.099798 208.095866 
L 230.099798 207.790323 
L 230.223984 207.790323 
L 230.223984 207.48478 
L 230.438358 207.48478 
L 230.438358 207.179237 
L 230.767761 207.179237 
L 230.767761 206.873694 
L 231.171606 206.873694 
L 231.171606 206.568151 
L 231.381584 206.568151 
L 231.381584 206.262607 
L 231.690583 206.262607 
L 231.690583 205.957064 
L 231.804433 205.957064 
L 231.90331 205.040435 
L 232.0877 205.040435 
L 232.0877 204.734891 
L 232.317567 204.734891 
L 232.317567 204.429348 
L 232.584497 204.429348 
L 232.629082 203.818262 
L 232.721609 203.818262 
L 232.721609 203.512719 
L 232.847383 203.512719 
L 232.906844 202.596089 
L 233.072566 202.596089 
L 233.072566 202.290546 
L 233.342004 202.290546 
L 233.412924 201.373916 
L 233.571917 201.373916 
L 233.571917 201.068373 
L 233.759936 201.068373 
L 233.767804 200.457287 
L 234.076803 200.457287 
L 234.092024 199.8462 
L 234.233735 199.8462 
L 234.310667 199.235114 
L 234.696444 199.235114 
L 234.798252 198.318484 
L 234.848803 198.318484 
L 234.939411 197.707398 
L 235.185556 197.707398 
L 235.185556 197.401855 
L 235.426795 197.401855 
L 235.50698 196.790768 
L 235.587744 196.790768 
L 235.587744 196.485225 
L 235.735794 196.485225 
L 235.735794 196.179682 
L 235.874177 196.179682 
L 235.874177 195.874139 
L 236.0047 195.874139 
L 236.047131 195.263052 
L 236.367924 195.263052 
L 236.402454 194.651966 
L 236.734501 194.651966 
L 236.745425 194.04088 
L 237.10378 194.04088 
L 237.142221 193.429793 
L 237.346904 193.429793 
L 237.446558 192.818707 
L 237.707762 192.818707 
L 237.781076 192.207621 
L 237.823368 192.207621 
L 237.913976 191.290991 
L 237.960554 191.290991 
L 237.973964 190.679905 
L 238.109227 190.679905 
L 238.179375 190.068818 
L 238.278955 190.068818 
L 238.278955 189.763275 
L 238.680586 189.763275 
L 238.680586 189.457732 
L 238.865821 189.457732 
L 238.928371 188.541102 
L 238.998519 188.541102 
L 239.041605 187.624473 
L 239.151704 187.624473 
L 239.224364 186.707843 
L 239.350615 186.707843 
L 239.456112 185.48567 
L 239.478667 185.48567 
L 239.521521 184.874584 
L 239.628208 184.874584 
L 239.717245 183.957954 
L 239.749047 183.957954 
L 239.857985 182.735782 
L 239.914116 182.735782 
L 239.985709 181.819152 
L 240.048683 181.819152 
L 240.098576 180.902523 
L 240.273694 180.902523 
L 240.359913 179.985893 
L 240.392093 179.985893 
L 240.392093 179.68035 
L 240.545147 179.68035 
L 240.56819 179.069263 
L 240.797345 179.069263 
L 240.906745 177.847091 
L 241.029339 177.847091 
L 241.131306 176.319375 
L 241.187208 176.319375 
L 241.274613 175.097202 
L 241.319197 175.097202 
L 241.340119 174.486116 
L 241.516888 174.486116 
L 241.616837 173.569486 
L 241.672325 173.569486 
L 241.752748 172.04177 
L 241.822845 172.04177 
L 241.837994 171.430684 
L 241.963677 171.430684 
L 242.069717 169.902968 
L 242.118207 169.902968 
L 242.227438 168.375252 
L 242.23021 168.375252 
L 242.331671 167.764165 
L 242.351453 167.764165 
L 242.394145 167.153079 
L 242.473087 167.153079 
L 242.536062 165.930906 
L 242.629692 165.930906 
L 242.736924 164.708733 
L 242.911299 164.708733 
L 243.018642 163.181017 
L 243.038822 163.181017 
L 243.136733 161.347758 
L 243.190433 161.347758 
L 243.2929 160.431129 
L 243.320573 160.431129 
L 243.339747 159.820042 
L 243.4678 159.820042 
L 243.521848 158.59787 
L 243.591675 158.59787 
L 243.665001 157.070154 
L 243.72768 157.070154 
L 243.74634 156.153524 
L 243.937135 156.153524 
L 244.044347 154.931351 
L 244.062758 154.931351 
L 244.160812 153.709179 
L 244.185494 153.709179 
L 244.249099 151.570376 
L 244.298843 151.570376 
L 244.386956 150.04266 
L 244.589428 150.04266 
L 244.667178 148.820488 
L 244.702539 148.820488 
L 244.765514 148.209401 
L 244.87612 148.209401 
L 244.972053 146.681685 
L 244.993903 146.681685 
L 245.094875 144.848426 
L 245.105936 144.848426 
L 245.154608 143.931797 
L 245.249679 143.931797 
L 245.340287 142.404081 
L 245.360878 142.404081 
L 245.431125 141.181908 
L 245.501274 141.181908 
L 245.548358 140.570821 
L 245.733693 140.570821 
L 245.83497 139.348649 
L 245.850435 139.348649 
L 245.956835 137.820933 
L 245.991227 137.820933 
L 246.08277 136.904303 
L 246.107291 136.904303 
L 246.197899 135.68213 
L 246.253801 135.68213 
L 246.253801 135.376587 
L 246.365018 135.376587 
L 246.472919 134.154414 
L 246.506729 134.154414 
L 246.615801 132.932242 
L 246.636822 132.932242 
L 246.636822 132.626698 
L 246.815698 132.626698 
L 246.815698 132.321155 
L 246.969438 132.321155 
L 247.070945 130.487896 
L 247.112551 130.487896 
L 247.164091 129.571267 
L 247.306081 129.571267 
L 247.327437 128.96018 
L 247.474789 128.96018 
L 247.557841 127.738007 
L 247.617028 127.738007 
L 247.687104 127.126921 
L 247.791942 127.126921 
L 247.791942 126.821378 
L 247.938386 126.821378 
L 248.029606 126.210291 
L 248.075546 126.210291 
L 248.099755 125.293662 
L 248.205686 125.293662 
L 248.286081 124.071489 
L 248.343638 124.071489 
L 248.343638 123.765946 
L 248.4687 123.765946 
L 248.480798 123.15486 
L 248.610939 123.15486 
L 248.679831 122.543773 
L 248.963141 122.543773 
L 248.963141 122.23823 
L 249.119171 122.23823 
L 249.199594 121.016057 
L 249.412071 121.016057 
L 249.512922 120.404971 
L 249.532446 120.404971 
L 249.593345 119.488341 
L 249.669426 119.488341 
L 249.76489 118.266169 
L 250.082104 118.266169 
L 250.136866 117.655082 
L 250.251108 117.655082 
L 250.321256 116.432909 
L 250.475854 116.432909 
L 250.475854 116.127366 
L 250.801598 116.127366 
L 250.801598 115.821823 
L 251.205442 115.821823 
L 251.205442 115.51628 
L 251.367548 115.51628 
L 251.421554 114.59965 
L 251.596578 114.59965 
L 251.596578 114.294107 
L 251.890928 114.294107 
L 251.937146 113.377477 
L 252.184283 113.377477 
L 252.2772 112.766391 
L 252.31517 112.766391 
L 252.422413 111.544218 
L 252.543544 111.544218 
L 252.637328 110.627589 
L 252.689713 110.627589 
L 252.707476 110.016502 
L 252.871225 110.016502 
L 252.917352 109.405416 
L 253.046875 109.405416 
L 253.046875 109.099873 
L 253.376634 109.099873 
L 253.457057 107.8777 
L 253.697646 107.8777 
L 253.750919 106.96107 
L 254.00337 106.96107 
L 254.02708 106.349984 
L 254.277147 106.349984 
L 254.366467 104.822268 
L 254.509807 104.822268 
L 254.51679 104.211182 
L 254.672155 104.211182 
L 254.698541 103.600095 
L 255.430245 103.600095 
L 255.467373 102.989009 
L 255.62158 102.989009 
L 255.62158 102.683466 
L 255.865309 102.683466 
L 255.936138 102.072379 
L 255.996196 102.072379 
L 255.996196 101.766836 
L 256.185283 101.766836 
L 256.229868 101.15575 
L 256.410451 101.15575 
L 256.410451 100.850207 
L 256.731308 100.850207 
L 256.731308 100.544663 
L 256.893177 100.544663 
L 256.893177 100.23912 
L 257.025249 100.23912 
L 257.069834 99.628034 
L 257.911453 99.628034 
L 258.0078 99.016948 
L 258.391044 99.016948 
L 258.461192 98.405861 
L 258.751419 98.405861 
L 258.751419 98.100318 
L 258.959541 98.100318 
L 258.959541 97.794775 
L 259.101252 97.794775 
L 259.117528 96.878145 
L 259.563961 96.878145 
L 259.666791 96.267059 
L 260.030864 96.267059 
L 260.030864 95.961516 
L 260.475767 95.961516 
L 260.475767 95.655972 
L 260.776519 95.655972 
L 260.776519 95.350429 
L 261.019545 95.350429 
L 261.100966 94.739343 
L 261.423389 94.739343 
L 261.500899 94.128256 
L 262.155093 94.128256 
L 262.155093 93.822713 
L 262.532911 93.822713 
L 262.532911 93.51717 
L 263.135299 93.51717 
L 263.15989 92.906084 
L 263.618026 92.906084 
L 263.618026 92.600541 
L 263.761516 92.600541 
L 263.761516 92.294997 
L 264.871245 92.294997 
L 264.871245 91.989454 
L 265.839527 91.989454 
L 265.891554 91.072825 
L 266.998784 91.072825 
L 266.998784 90.767281 
L 267.254615 90.767281 
L 267.254615 90.461738 
L 267.534298 90.461738 
L 267.573139 89.850652 
L 267.662022 89.850652 
L 267.662022 89.545109 
L 267.807822 89.545109 
L 267.807822 89.239565 
L 268.116821 89.239565 
L 268.225747 88.628479 
L 269.884738 88.628479 
L 269.884738 88.322936 
L 270.1494 88.322936 
L 270.1494 88.017393 
L 270.813046 88.017393 
L 270.906867 87.406306 
L 271.04596 87.406306 
L 271.04596 87.100763 
L 271.173684 87.100763 
L 271.278339 86.184134 
L 271.333009 86.184134 
L 271.333009 85.87859 
L 271.651154 85.87859 
L 271.746833 84.961961 
L 271.925412 84.961961 
L 272.013982 84.350874 
L 272.378852 84.350874 
L 272.378852 84.045331 
L 273.595433 84.045331 
L 273.661062 83.128702 
L 273.820388 83.128702 
L 273.820388 82.823158 
L 273.979463 82.823158 
L 273.979463 82.517615 
L 274.324708 82.517615 
L 274.324708 82.212072 
L 274.484033 82.212072 
L 274.484033 81.906529 
L 274.790001 81.906529 
L 274.790001 81.600986 
L 274.949326 81.600986 
L 274.949326 81.295443 
L 275.068979 81.295443 
L 275.162816 80.378813 
L 275.196702 80.378813 
L 275.196702 80.07327 
L 275.322141 80.07327 
L 275.322141 79.767727 
L 275.437074 79.767727 
L 275.438027 79.15664 
L 275.566079 79.15664 
L 275.596399 78.545554 
L 275.890514 78.545554 
L 275.890514 78.240011 
L 276.049839 78.240011 
L 276.136095 77.323381 
L 277.116227 77.323381 
L 277.121881 76.712295 
L 277.275553 76.712295 
L 277.275553 76.406751 
L 277.684081 76.406751 
L 277.684081 76.101208 
L 277.831972 76.101208 
L 277.831972 75.795665 
L 278.347727 75.795665 
L 278.376851 75.184579 
L 278.81302 75.184579 
L 278.81302 74.879036 
L 279.185835 74.879036 
L 279.185835 74.573492 
L 279.460093 74.573492 
L 279.460093 74.267949 
L 279.619371 74.267949 
L 279.619371 73.962406 
L 279.913533 73.962406 
L 279.913533 73.656863 
L 280.470585 73.656863 
L 280.568553 73.045776 
L 280.655819 73.045776 
L 280.655819 72.740233 
L 281.139246 72.740233 
L 281.139246 72.43469 
L 283.261964 72.43469 
L 283.36957 71.823604 
L 283.667216 71.823604 
L 283.753675 71.212517 
L 286.677346 71.212517 
L 286.747494 70.601431 
L 287.745991 70.601431 
L 287.745991 70.295888 
L 288.317166 70.295888 
L 288.317166 69.990344 
L 291.22366 69.990344 
L 291.22366 69.684801 
L 291.561884 69.684801 
L 291.561884 69.379258 
L 291.870883 69.379258 
L 291.954672 68.768172 
L 292.047818 68.768172 
L 292.047818 68.462629 
L 292.962691 68.462629 
L 292.962691 68.157085 
L 293.157546 68.157085 
L 293.157546 67.851542 
L 293.551471 67.851542 
L 293.551471 67.545999 
L 293.89425 67.545999 
L 293.89425 67.240456 
L 295.540917 67.240456 
L 295.540917 66.934913 
L 295.768044 66.934913 
L 295.768044 66.629369 
L 298.67513 66.629369 
L 298.67513 66.323826 
L 299.087302 66.323826 
L 299.087302 66.018283 
L 299.500965 66.018283 
L 299.500965 65.71274 
L 299.638125 65.71274 
L 299.638125 65.407197 
L 299.768265 65.407197 
L 299.768265 65.101653 
L 301.728809 65.101653 
L 301.728809 64.79611 
L 302.265765 64.79611 
L 302.265765 64.490567 
L 303.325609 64.490567 
L 303.325609 64.185024 
L 303.668387 64.185024 
L 303.749434 63.573937 
L 304.224647 63.573937 
L 304.224647 63.268394 
L 304.409881 63.268394 
L 304.409881 62.962851 
L 307.261096 62.962851 
L 307.261096 62.657308 
L 307.420421 62.657308 
L 307.507737 62.046222 
L 308.449267 62.046222 
L 308.449267 61.740678 
L 309.058036 61.740678 
L 309.058036 61.435135 
L 309.275102 61.435135 
L 309.275102 61.129592 
L 309.412262 61.129592 
L 309.412262 60.824049 
L 309.542403 60.824049 
L 309.542403 60.518506 
L 310.431408 60.518506 
L 310.501556 59.907419 
L 311.284114 59.907419 
L 311.360296 59.296333 
L 311.955823 59.296333 
L 311.955823 58.99079 
L 312.071227 58.99079 
L 312.071227 58.685246 
L 314.527724 58.685246 
L 314.527724 58.379703 
L 315.80188 58.379703 
L 315.80188 58.07416 
L 316.911608 58.07416 
L 316.911608 57.768617 
L 319.294979 57.768617 
L 319.294979 57.463074 
L 320.591296 57.463074 
L 320.591296 57.15753 
L 321.156837 57.15753 
L 321.156837 56.851987 
L 323.791045 56.851987 
L 323.791045 56.546444 
L 323.954819 56.546444 
L 323.954819 56.240901 
L 324.478414 56.240901 
L 324.478414 55.935358 
L 325.567281 55.935358 
L 325.657889 55.324271 
L 326.019827 55.324271 
L 326.019827 55.018728 
L 328.603683 55.018728 
L 328.603683 54.713185 
L 328.997433 54.713185 
L 328.997433 54.407642 
L 329.281411 54.407642 
L 329.281411 54.102099 
L 329.846952 54.102099 
L 329.846952 53.796555 
L 330.315062 53.796555 
L 330.315062 53.491012 
L 331.477089 53.491012 
L 331.477089 53.185469 
L 331.911862 53.185469 
L 331.911862 52.879926 
L 332.254641 52.879926 
L 332.254641 52.574383 
L 332.48116 52.574383 
L 332.48116 52.268839 
L 332.861146 52.268839 
L 332.861146 51.963296 
L 333.168529 51.963296 
L 333.216119 51.35221 
L 334.257397 51.35221 
L 334.348005 50.741123 
L 334.824543 50.741123 
L 334.824543 50.43558 
L 337.035521 50.43558 
L 337.035521 50.130037 
L 337.293798 50.130037 
L 337.293798 49.824494 
L 337.687548 49.824494 
L 337.687548 49.518951 
L 337.861355 49.518951 
L 337.861355 49.213408 
L 337.998516 49.213408 
L 337.998516 48.907864 
L 338.128656 48.907864 
L 338.128656 48.602321 
L 339.340731 48.602321 
L 339.340731 48.296778 
L 340.283999 48.296778 
L 340.283999 47.991235 
L 340.84954 47.991235 
L 340.84954 47.685692 
L 341.551261 47.685692 
L 341.551261 47.380148 
L 343.483747 47.380148 
L 343.483747 47.074605 
L 344.171117 47.074605 
L 344.192082 46.463519 
L 344.59868 46.463519 
L 344.59868 46.157976 
L 344.757623 46.157976 
L 344.757623 45.852432 
L 345.032048 45.852432 
L 345.032048 45.546889 
L 345.259984 45.546889 
L 345.350592 44.935803 
L 345.597588 44.935803 
L 345.597588 44.63026 
L 347.391831 44.63026 
L 347.391831 44.324716 
L 348.0792 44.324716 
L 348.0792 44.019173 
L 348.231796 44.019173 
L 348.296385 43.408087 
L 348.690136 43.408087 
L 348.690136 43.102544 
L 348.919165 43.102544 
L 348.919165 42.797001 
L 349.168067 42.797001 
L 349.258675 42.185914 
L 349.311465 42.185914 
L 349.311465 41.880371 
L 349.836328 41.880371 
L 349.836328 41.574828 
L 350.008033 41.574828 
L 350.098641 40.963741 
L 351.433127 40.963741 
L 351.433127 40.658198 
L 351.575358 40.658198 
L 351.613725 40.047112 
L 351.775906 40.047112 
L 351.775906 39.741569 
L 352.204469 39.741569 
L 352.204469 39.436025 
L 352.553848 39.436025 
L 352.598219 38.824939 
L 353.044434 38.824939 
L 353.044434 38.519396 
L 353.172158 38.519396 
L 353.172158 38.213853 
L 353.438185 38.213853 
L 353.514937 37.602766 
L 353.853768 37.602766 
L 353.853768 37.297223 
L 354.419309 37.297223 
L 354.419309 36.99168 
L 354.781153 36.99168 
L 354.781153 36.686137 
L 356.461932 36.686137 
L 356.556786 36.07505 
L 357.053517 36.07505 
L 357.053517 35.769507 
L 357.301897 35.769507 
L 357.382621 35.158421 
L 357.519781 35.158421 
L 357.519781 34.852878 
L 357.649921 34.852878 
L 357.740886 33.936248 
L 358.295817 33.936248 
L 358.295817 33.630705 
L 358.829753 33.630705 
L 358.920361 33.019618 
L 359.121651 33.019618 
L 359.121651 32.714075 
L 359.258811 32.714075 
L 359.296769 32.102989 
L 359.388952 32.102989 
L 359.388952 31.797446 
L 359.639548 31.797446 
L 359.639548 31.491902 
L 361.866155 31.491902 
L 361.866155 31.186359 
L 362.259905 31.186359 
L 362.259905 30.880816 
L 364.208247 30.880816 
L 364.208247 30.575273 
L 364.420428 30.575273 
L 364.420428 30.26973 
L 365.246263 30.26973 
L 365.246263 29.964187 
L 365.383423 29.964187 
L 365.383423 29.658643 
L 365.513563 29.658643 
L 365.513563 29.3531 
L 366.123618 29.3531 
L 366.123618 29.047557 
L 367.670704 29.047557 
L 367.670704 28.742014 
L 369.267503 28.742014 
L 369.267503 28.436471 
L 369.610282 28.436471 
L 369.610282 28.130927 
L 369.972964 28.130927 
L 369.972964 27.825384 
L 371.569764 27.825384 
L 371.569764 27.519841 
L 371.912542 27.519841 
L 371.912542 27.214298 
L 373.140392 27.214298 
L 373.184934 26.603211 
L 374.391162 26.603211 
L 374.391162 26.297668 
L 374.737191 26.297668 
L 374.737191 25.992125 
L 375.07997 25.992125 
L 375.07997 25.686582 
L 375.216997 25.686582 
L 375.216997 25.381039 
L 375.354157 25.381039 
L 375.354157 25.075495 
L 375.484297 25.075495 
L 375.484297 24.769952 
L 376.693422 24.769952 
L 376.693422 24.464409 
L 377.519257 24.464409 
L 377.519257 24.158866 
L 377.656417 24.158866 
L 377.656417 23.853323 
L 377.786557 23.853323 
L 377.786557 23.54778 
L 379.86085 23.54778 
L 379.86085 23.242236 
L 380.686685 23.242236 
L 380.686685 22.936693 
L 380.823845 22.936693 
L 380.823845 22.63115 
L 380.953985 22.63115 
L 380.953985 22.325607 
L 382.567487 22.325607 
L 382.567487 22.020064 
L 384.164286 22.020064 
L 384.164286 21.71452 
L 384.507065 21.71452 
L 384.507065 21.408977 
L 389.287945 21.408977 
L 389.287945 21.103434 
L 390.113779 21.103434 
L 390.113779 20.797891 
L 390.25094 20.797891 
L 390.25094 20.492348 
L 390.38108 20.492348 
L 390.38108 20.186804 
L 392.706199 20.186804 
L 392.706199 19.881261 
L 394.44523 19.881261 
L 394.44523 19.575718 
L 400.569841 19.575718 
L 400.569841 19.270175 
L 410.540575 19.270175 
L 410.540575 18.964632 
L 412.842835 18.964632 
L 412.842835 18.659089 
L 416.010263 18.659089 
L 416.010263 18.353545 
L 425.437358 18.353545 
L 425.437358 18.048002 
L 453.192 18.048002 
L 453.192 18.048002 
" clip-path="url(#p2b48d5ff51)" style="fill: none; stroke: #000000; stroke-width: 3; stroke-linecap: square"/>
   </g>
   <g id="line2d_48">
    <path clip-path="url(#p2b48d5ff51)" style="fill: none; stroke: #000000; stroke-width: 3; stroke-linecap: square"/>
   </g>
   <g id="line2d_49">
    <path d="M 34.16 268.120815 
L 124.989969 268.120815 
L 124.989969 267.714157 
L 129.295709 267.714157 
L 129.295709 267.307499 
L 130.905396 267.307499 
L 130.905396 266.900841 
L 131.222337 266.900841 
L 131.222337 266.494183 
L 131.340147 266.494183 
L 131.340147 266.087524 
L 133.498349 266.087524 
L 133.498349 265.680866 
L 133.650712 265.680866 
L 133.650712 265.274208 
L 134.793442 265.274208 
L 134.793442 264.86755 
L 158.757374 264.86755 
L 158.757374 264.460892 
L 161.052909 264.460892 
L 161.052909 264.054233 
L 162.581635 264.054233 
L 162.581635 263.647575 
L 162.897666 263.647575 
L 162.897666 263.240917 
L 163.063114 263.240917 
L 163.063114 262.834259 
L 163.220919 262.834259 
L 163.220919 262.427601 
L 163.891074 262.427601 
L 163.891074 262.020942 
L 164.495257 262.020942 
L 164.598443 261.207626 
L 164.672802 261.207626 
L 164.672802 260.800968 
L 164.989742 260.800968 
L 164.989742 260.394309 
L 165.107552 260.394309 
L 165.107552 259.987651 
L 165.747548 259.987651 
L 165.747548 259.580993 
L 167.178467 259.580993 
L 167.265754 258.767677 
L 167.418117 258.767677 
L 167.418117 258.361018 
L 167.995861 258.361018 
L 167.995861 257.95436 
L 168.560848 257.95436 
L 168.560848 257.547702 
L 168.791356 257.547702 
L 168.791356 257.141044 
L 168.955247 257.141044 
L 168.963486 256.327727 
L 170.053288 256.327727 
L 170.053288 255.921069 
L 170.344002 255.921069 
L 170.344002 255.514411 
L 171.342061 255.514411 
L 171.342061 255.107753 
L 171.662976 255.107753 
L 171.662976 254.701095 
L 171.979916 254.701095 
L 171.979916 254.294436 
L 172.097727 254.294436 
L 172.097727 253.887778 
L 173.035977 253.887778 
L 173.035977 253.48112 
L 173.75603 253.48112 
L 173.75603 253.074462 
L 173.990564 253.074462 
L 173.990564 252.667804 
L 174.255929 252.667804 
L 174.255929 252.261145 
L 174.408291 252.261145 
L 174.408291 251.854487 
L 174.772891 251.854487 
L 174.772891 251.447829 
L 175.284757 251.447829 
L 175.284757 251.041171 
L 175.537751 251.041171 
L 175.647801 249.414538 
L 175.92404 249.414538 
L 175.92404 249.00788 
L 176.594195 249.00788 
L 176.594195 248.601222 
L 177.198379 248.601222 
L 177.301565 247.381247 
L 177.574429 247.381247 
L 177.574429 246.974589 
L 177.692239 246.974589 
L 177.692239 246.567931 
L 178.317762 246.567931 
L 178.317762 246.161272 
L 179.205528 246.161272 
L 179.205528 245.754614 
L 179.850441 245.754614 
L 179.881589 244.941298 
L 180.002804 244.941298 
L 180.002804 244.53464 
L 180.675498 244.53464 
L 180.698983 243.721323 
L 181.145535 243.721323 
L 181.145535 243.314665 
L 181.494477 243.314665 
L 181.494477 242.908007 
L 181.658369 242.908007 
L 181.666608 242.09469 
L 183.047124 242.09469 
L 183.047124 241.688032 
L 183.177272 241.688032 
L 183.177272 241.281374 
L 191.318188 241.281374 
L 191.318188 240.874716 
L 191.797452 240.874716 
L 191.797452 240.468058 
L 192.602337 240.468058 
L 192.602337 240.061399 
L 193.074801 240.061399 
L 193.074801 239.654741 
L 193.503629 239.654741 
L 193.503629 239.248083 
L 193.893627 239.248083 
L 193.893627 238.841425 
L 194.541635 238.841425 
L 194.603528 238.028108 
L 194.696255 238.028108 
L 194.696255 237.62145 
L 194.919558 237.62145 
L 194.919558 237.214792 
L 195.127534 237.214792 
L 195.127534 236.808134 
L 195.242811 236.808134 
L 195.242811 236.401476 
L 195.623928 236.401476 
L 195.623928 235.994817 
L 195.912966 235.994817 
L 195.912966 235.588159 
L 196.103192 235.588159 
L 196.103192 235.181501 
L 196.51715 235.181501 
L 196.620336 234.368185 
L 196.656261 234.368185 
L 196.656261 233.961526 
L 196.908077 233.961526 
L 196.972291 233.14821 
L 197.233616 233.14821 
L 197.295544 232.334893 
L 197.550556 232.334893 
L 197.550556 231.928235 
L 197.668367 231.928235 
L 197.71288 231.114919 
L 197.809369 231.114919 
L 197.809369 230.708261 
L 197.965699 230.708261 
L 198.02982 229.894944 
L 198.14763 229.894944 
L 198.199367 229.081628 
L 198.517765 229.081628 
L 198.569883 228.268311 
L 198.673069 228.268311 
L 198.673069 227.861653 
L 198.834706 227.861653 
L 198.834706 227.454995 
L 198.952516 227.454995 
L 198.952516 227.048337 
L 199.20036 227.048337 
L 199.20036 226.641679 
L 199.419057 226.641679 
L 199.419057 226.23502 
L 199.735997 226.23502 
L 199.826569 225.015046 
L 199.853808 225.015046 
L 199.853808 224.608388 
L 199.978931 224.608388 
L 200.017754 223.795071 
L 200.125995 223.795071 
L 200.125995 223.388413 
L 200.243805 223.388413 
L 200.305833 222.575097 
L 200.458195 222.575097 
L 200.458195 222.168438 
L 200.813248 222.168438 
L 200.813248 221.76178 
L 200.97714 221.76178 
L 200.985379 220.948464 
L 201.110718 220.948464 
L 201.121662 220.135147 
L 201.253093 220.135147 
L 201.263081 219.321831 
L 201.529912 219.321831 
L 201.600926 218.508515 
L 201.643592 218.508515 
L 201.643592 218.101856 
L 202.01201 218.101856 
L 202.070487 217.28854 
L 202.164372 217.28854 
L 202.164372 216.881882 
L 202.365895 216.881882 
L 202.405811 215.661907 
L 202.55437 215.661907 
L 202.55437 215.255249 
L 202.865981 215.255249 
L 202.865981 214.848591 
L 203.029873 214.848591 
L 203.038112 214.035274 
L 203.306259 214.035274 
L 203.307103 213.221958 
L 203.6971 213.221958 
L 203.6971 212.8153 
L 204.418628 212.8153 
L 204.418628 212.408642 
L 204.971074 212.408642 
L 204.985324 211.595325 
L 205.243758 211.595325 
L 205.243758 211.188667 
L 205.624357 211.188667 
L 205.68265 210.375351 
L 206.223127 210.375351 
L 206.223127 209.968692 
L 207.757969 209.968692 
L 207.757969 209.562034 
L 207.97968 209.562034 
L 207.97968 209.155376 
L 208.169299 209.155376 
L 208.169299 208.748718 
L 208.540296 208.748718 
L 208.540296 208.34206 
L 209.169433 208.34206 
L 209.169433 207.935401 
L 209.283113 207.935401 
L 209.283113 207.528743 
L 209.793113 207.528743 
L 209.793113 207.122085 
L 210.797907 207.122085 
L 210.797907 206.715427 
L 210.998191 206.715427 
L 210.998191 206.308769 
L 211.211809 206.308769 
L 211.211809 205.90211 
L 211.892318 205.90211 
L 211.894966 205.088794 
L 212.085167 205.088794 
L 212.085167 204.682136 
L 212.294887 204.682136 
L 212.294887 204.275478 
L 212.610595 204.275478 
L 212.624845 203.462161 
L 212.883279 203.462161 
L 212.972933 202.648845 
L 213.09785 202.648845 
L 213.09785 202.242186 
L 213.263878 202.242186 
L 213.322171 201.022212 
L 213.499965 201.022212 
L 213.499965 200.615554 
L 213.713583 200.615554 
L 213.713583 200.208895 
L 213.862648 200.208895 
L 213.862648 199.802237 
L 214.394092 199.802237 
L 214.39674 198.988921 
L 214.748143 198.988921 
L 214.748143 198.582263 
L 215.530471 198.582263 
L 215.599624 197.768946 
L 215.80882 197.768946 
L 215.80882 197.362288 
L 216.009381 197.362288 
L 216.009381 196.95563 
L 218.639954 196.95563 
L 218.639954 196.548972 
L 219.075341 196.548972 
L 219.075341 196.142313 
L 219.963107 196.142313 
L 219.963107 195.735655 
L 220.342656 195.735655 
L 220.342656 195.328997 
L 220.682802 195.328997 
L 220.682802 194.922339 
L 221.124983 194.922339 
L 221.124983 194.515681 
L 224.669854 194.515681 
L 224.669854 194.109022 
L 225.55762 194.109022 
L 225.55762 193.702364 
L 226.88875 193.702364 
L 226.88875 193.295706 
L 228.30904 193.295706 
L 228.30904 192.889048 
L 228.46366 192.889048 
L 228.46366 192.48239 
L 233.764377 192.48239 
L 233.817583 191.669073 
L 235.299214 191.669073 
L 235.384448 189.635782 
L 235.453835 189.635782 
L 235.453835 189.229124 
L 235.608039 189.229124 
L 235.66234 188.415808 
L 235.985593 188.415808 
L 235.985593 188.009149 
L 236.655748 188.009149 
L 236.655748 187.602491 
L 236.846667 187.602491 
L 236.913175 186.789175 
L 237.162698 186.789175 
L 237.259932 185.162542 
L 237.363118 185.162542 
L 237.380885 184.349226 
L 237.485951 184.349226 
L 237.552458 183.535909 
L 238.070117 183.535909 
L 238.156106 182.722593 
L 238.212011 182.722593 
L 238.287049 181.502618 
L 238.400729 181.502618 
L 238.494279 180.689302 
L 238.76029 180.689302 
L 238.863476 179.469327 
L 238.929983 179.469327 
L 238.929983 179.062669 
L 239.18127 179.062669 
L 239.291843 177.436036 
L 239.350318 177.436036 
L 239.405523 176.62272 
L 239.492127 176.62272 
L 239.492127 176.216062 
L 239.605807 176.216062 
L 239.705744 174.996087 
L 239.740738 174.996087 
L 239.819425 174.18277 
L 239.913779 174.18277 
L 240.001573 172.556138 
L 240.056768 172.556138 
L 240.114555 171.742821 
L 240.175633 171.742821 
L 240.175633 171.336163 
L 240.318783 171.336163 
L 240.388901 169.70953 
L 240.499933 169.70953 
L 240.502581 168.896214 
L 240.64341 168.896214 
L 240.751704 167.676239 
L 240.760536 167.676239 
L 240.798047 166.456265 
L 240.893727 166.456265 
L 240.939928 165.642948 
L 241.026027 165.642948 
L 241.101111 162.796341 
L 241.34928 162.796341 
L 241.4435 161.169708 
L 241.497851 161.169708 
L 241.602933 158.323101 
L 241.65436 158.323101 
L 241.757546 155.476493 
L 241.840407 155.476493 
L 241.852092 154.663177 
L 241.958217 154.663177 
L 242.061142 152.629886 
L 242.094028 152.629886 
L 242.172137 151.816569 
L 242.260894 151.816569 
L 242.327401 150.189937 
L 242.381494 150.189937 
L 242.488167 147.749987 
L 242.504224 147.749987 
L 242.504224 147.343329 
L 242.623619 147.343329 
L 242.733005 144.90338 
L 242.747255 144.90338 
L 242.81142 142.870089 
L 242.894222 142.870089 
L 242.980264 141.243456 
L 243.005689 141.243456 
L 243.111172 138.803507 
L 243.122895 138.803507 
L 243.228518 136.363558 
L 243.286552 136.363558 
L 243.386288 134.736925 
L 243.419591 134.736925 
L 243.481575 133.110292 
L 243.54229 133.110292 
L 243.644865 131.483659 
L 243.676549 131.483659 
L 243.778093 130.670343 
L 243.800189 130.670343 
L 243.858483 128.230394 
L 243.985058 128.230394 
L 244.085759 127.417077 
L 244.100099 127.417077 
L 244.188945 125.383786 
L 244.250402 125.383786 
L 244.33757 124.163812 
L 244.382277 124.163812 
L 244.485463 121.723862 
L 244.538991 121.723862 
L 244.645981 119.283913 
L 244.675542 119.283913 
L 244.777386 118.470597 
L 244.889686 118.470597 
L 244.926436 117.65728 
L 245.032948 117.65728 
L 245.125245 115.623989 
L 245.154964 115.623989 
L 245.154964 115.217331 
L 245.305632 115.217331 
L 245.411512 112.777382 
L 245.533747 112.777382 
L 245.612946 111.557407 
L 245.68623 111.557407 
L 245.744524 110.337433 
L 245.852854 110.337433 
L 245.950458 108.7108 
L 246.013011 108.7108 
L 246.122589 106.677509 
L 246.124223 106.677509 
L 246.198816 104.23756 
L 246.267211 104.23756 
L 246.345131 103.017585 
L 246.408002 103.017585 
L 246.419419 102.204269 
L 246.525812 102.204269 
L 246.525812 101.79761 
L 246.742672 101.79761 
L 246.831422 100.170978 
L 246.919717 100.170978 
L 247.028288 97.32437 
L 247.065487 97.32437 
L 247.166441 94.477763 
L 247.22142 94.477763 
L 247.27525 93.664446 
L 247.39306 93.664446 
L 247.503105 92.444472 
L 247.586363 92.444472 
L 247.586363 92.037814 
L 247.719188 92.037814 
L 247.719188 91.631155 
L 247.882881 91.631155 
L 247.882881 91.224497 
L 248.01701 91.224497 
L 248.120197 90.004522 
L 248.231172 90.004522 
L 248.231172 89.597864 
L 248.381857 89.597864 
L 248.472363 88.784548 
L 248.514071 88.784548 
L 248.553988 87.157915 
L 248.678375 87.157915 
L 248.684014 86.344599 
L 248.836377 86.344599 
L 248.850505 84.717966 
L 249.551262 84.717966 
L 249.551262 84.311308 
L 249.664629 84.311308 
L 249.703625 83.497991 
L 249.934504 83.497991 
L 249.979107 82.684675 
L 250.231021 82.684675 
L 250.231021 82.278017 
L 250.460123 82.278017 
L 250.460123 81.871358 
L 250.624015 81.871358 
L 250.700221 80.651384 
L 250.846355 80.651384 
L 250.846355 80.244726 
L 251.517615 80.244726 
L 251.517615 79.838067 
L 252.012769 79.838067 
L 252.012769 79.431409 
L 252.313109 79.431409 
L 252.407359 78.618093 
L 252.477 78.618093 
L 252.485239 77.804776 
L 253.865755 77.804776 
L 253.865755 77.398118 
L 259.397533 77.398118 
L 259.397533 76.99146 
L 260.869854 76.99146 
L 260.869854 76.584802 
L 261.024475 76.584802 
L 261.024475 76.178144 
L 261.349118 76.178144 
L 261.349118 75.771485 
L 261.503739 75.771485 
L 261.503739 75.364827 
L 262.154004 75.364827 
L 262.154004 74.958169 
L 262.308624 74.958169 
L 262.308624 74.551511 
L 263.055295 74.551511 
L 263.055295 74.144853 
L 263.209916 74.144853 
L 263.209916 73.738194 
L 263.445293 73.738194 
L 263.445293 73.331536 
L 263.599913 73.331536 
L 263.599913 72.924878 
L 264.992046 72.924878 
L 264.992046 72.51822 
L 267.844253 72.51822 
L 267.844253 72.111562 
L 267.957934 72.111562 
L 267.957934 71.704903 
L 270.769547 71.704903 
L 270.769547 71.298245 
L 270.883227 71.298245 
L 270.883227 70.891587 
L 271.285416 70.891587 
L 271.299665 70.078271 
L 271.5581 70.078271 
L 271.605108 69.264954 
L 271.718788 69.264954 
L 271.718788 68.858296 
L 271.938698 68.858296 
L 271.996992 68.04498 
L 272.537469 68.04498 
L 272.537469 67.638321 
L 274.210709 67.638321 
L 274.224959 66.825005 
L 274.483393 66.825005 
L 274.48364 66.011689 
L 274.863992 66.011689 
L 274.922285 65.198372 
L 275.04627 65.198372 
L 275.06052 64.385056 
L 275.251416 64.385056 
L 275.318954 63.571739 
L 275.462762 63.571739 
L 275.462762 63.165081 
L 275.699552 63.165081 
L 275.757846 62.351765 
L 276.070934 62.351765 
L 276.070934 61.945107 
L 276.25621 61.945107 
L 276.298323 61.13179 
L 276.456494 61.13179 
L 276.456494 60.725132 
L 276.670112 60.725132 
L 276.670112 60.318474 
L 277.35062 60.318474 
L 277.408934 59.098499 
L 277.571291 59.098499 
L 277.637799 58.285183 
L 278.244494 58.285183 
L 278.244494 57.878524 
L 278.556152 57.878524 
L 278.556152 57.471866 
L 280.465362 57.471866 
L 280.465362 57.065208 
L 280.744355 57.065208 
L 280.744355 56.65855 
L 281.43462 56.65855 
L 281.509214 55.438575 
L 282.244713 55.438575 
L 282.31122 54.625259 
L 282.764972 54.625259 
L 282.764972 54.218601 
L 282.896761 54.218601 
L 282.896761 53.811942 
L 283.193279 53.811942 
L 283.193279 53.405284 
L 283.5473 53.405284 
L 283.5473 52.998626 
L 284.608634 52.998626 
L 284.608634 52.591968 
L 284.968173 52.591968 
L 284.975026 51.778651 
L 285.138783 51.778651 
L 285.138783 51.371993 
L 285.390961 51.371993 
L 285.447437 50.558677 
L 286.108042 50.558677 
L 286.192706 48.932044 
L 286.252323 48.932044 
L 286.252323 48.525386 
L 286.828012 48.525386 
L 286.828012 48.118728 
L 286.975034 48.118728 
L 286.975034 47.712069 
L 287.09217 47.712069 
L 287.153614 46.898753 
L 287.543612 46.898753 
L 287.570182 46.085437 
L 287.8667 46.085437 
L 287.8667 45.678778 
L 287.979936 45.678778 
L 287.979936 45.27212 
L 288.935832 45.27212 
L 288.935832 44.865462 
L 289.176229 44.865462 
L 289.176229 44.458804 
L 289.648448 44.458804 
L 289.648448 44.052146 
L 289.823598 44.052146 
L 289.823598 43.645487 
L 289.958556 43.645487 
L 290.043477 42.832171 
L 290.519904 42.832171 
L 290.519904 42.425513 
L 290.825804 42.425513 
L 290.825804 42.018855 
L 291.40767 42.018855 
L 291.501434 41.205538 
L 293.503426 41.205538 
L 293.503426 40.79888 
L 294.370675 40.79888 
L 294.391192 39.985564 
L 295.258441 39.985564 
L 295.258441 39.578905 
L 303.316043 39.578905 
L 303.316043 39.172247 
L 303.470664 39.172247 
L 303.470664 38.765589 
L 304.808621 38.765589 
L 304.808621 38.358931 
L 305.159705 38.358931 
L 305.159705 37.952273 
L 305.314325 37.952273 
L 305.314325 37.545614 
L 306.743777 37.545614 
L 306.743777 37.138956 
L 306.898398 37.138956 
L 306.898398 36.732298 
L 307.733914 36.732298 
L 307.733914 36.32564 
L 308.569475 36.32564 
L 308.569475 35.918982 
L 309.7273 35.918982 
L 309.7273 35.512323 
L 309.88192 35.512323 
L 309.88192 35.105665 
L 310.594548 35.105665 
L 310.594548 34.699007 
L 310.749168 34.699007 
L 310.749168 34.292349 
L 327.414362 34.292349 
L 327.414362 33.885691 
L 329.258024 33.885691 
L 329.258024 33.479032 
L 330.842096 33.479032 
L 330.842096 33.072374 
L 333.825619 33.072374 
L 333.825619 32.665716 
L 334.692867 32.665716 
L 334.692867 32.259058 
L 337.257336 32.259058 
L 337.257336 31.852399 
L 341.563076 31.852399 
L 341.563076 31.445741 
L 343.172764 31.445741 
L 343.172764 31.039083 
L 343.489704 31.039083 
L 343.489704 30.632425 
L 343.607515 30.632425 
L 343.607515 30.225767 
L 345.765717 30.225767 
L 345.765717 29.819108 
L 345.918079 29.819108 
L 345.918079 29.41245 
L 347.06081 29.41245 
L 347.06081 29.005792 
L 386.257932 29.005792 
L 386.257932 28.599134 
L 387.040259 28.599134 
L 387.040259 28.192476 
L 390.585129 28.192476 
L 390.585129 27.785817 
L 391.472895 27.785817 
L 391.472895 27.379159 
L 406.809003 27.379159 
L 406.809003 26.972501 
L 406.963623 26.972501 
L 406.963623 26.565843 
L 430.907321 26.565843 
L 430.907321 26.159185 
L 453.192 26.159185 
L 453.192 26.159185 
" clip-path="url(#p2b48d5ff51)" style="fill: none; stroke: #00bfbf; stroke-width: 3; stroke-linecap: square"/>
   </g>
   <g id="line2d_50">
    <path clip-path="url(#p2b48d5ff51)" style="fill: none; stroke: #00bfbf; stroke-width: 3; stroke-linecap: square"/>
   </g>
   <g id="line2d_51">
    <path d="M 34.16 255.570708 
L 161.60645 255.570708 
L 161.60645 255.154468 
L 162.794309 255.154468 
L 162.794309 254.738227 
L 165.355355 254.738227 
L 165.407721 253.489505 
L 165.598157 253.489505 
L 165.612274 252.657023 
L 165.754437 252.657023 
L 165.754437 252.240783 
L 166.062249 252.240783 
L 166.062249 251.824542 
L 166.323085 251.824542 
L 166.323085 251.408301 
L 167.11163 251.408301 
L 167.11163 250.99206 
L 167.350314 250.99206 
L 167.350314 250.57582 
L 167.978965 250.57582 
L 167.978965 250.159579 
L 168.734646 250.159579 
L 168.734646 249.743338 
L 169.223671 249.743338 
L 169.319158 248.494616 
L 169.631381 248.494616 
L 169.631381 248.078375 
L 169.894908 248.078375 
L 169.894908 247.662135 
L 170.493192 247.662135 
L 170.493192 247.245894 
L 170.683162 247.245894 
L 170.683162 246.829653 
L 172.211922 246.829653 
L 172.211922 246.413412 
L 176.359909 246.413412 
L 176.359909 245.997172 
L 176.667722 245.997172 
L 176.667722 245.580931 
L 176.928557 245.580931 
L 176.928557 245.16469 
L 177.695009 245.16469 
L 177.717103 244.332209 
L 178.584438 244.332209 
L 178.632339 243.499727 
L 179.924631 243.499727 
L 179.924631 243.083487 
L 180.236853 243.083487 
L 180.236853 242.667246 
L 181.193384 242.667246 
L 181.24575 241.418524 
L 181.436186 241.418524 
L 181.450303 240.586042 
L 181.842996 240.586042 
L 181.842996 240.169802 
L 182.150808 240.169802 
L 182.150808 239.753561 
L 182.411644 239.753561 
L 182.411644 239.33732 
L 183.188343 239.33732 
L 183.200189 238.504839 
L 184.067525 238.504839 
L 184.067525 238.088598 
L 184.572675 238.088598 
L 184.572675 237.672357 
L 185.0617 237.672357 
L 185.079829 236.839876 
L 185.407717 236.839876 
L 185.407717 236.423635 
L 185.71994 236.423635 
L 185.732937 235.591154 
L 186.331221 235.591154 
L 186.331221 235.174913 
L 186.521191 235.174913 
L 186.521191 234.758672 
L 193.266719 234.758672 
L 193.266719 234.342431 
L 194.46569 234.342431 
L 194.46569 233.926191 
L 195.845538 233.926191 
L 195.862112 233.093709 
L 196.080868 233.093709 
L 196.089698 232.261228 
L 196.91228 232.261228 
L 196.91228 231.844987 
L 197.414707 231.844987 
L 197.479219 231.012506 
L 197.722519 231.012506 
L 197.722519 230.596265 
L 197.983355 230.596265 
L 197.983355 230.180024 
L 198.613677 230.180024 
L 198.703109 228.515061 
L 198.7719 228.515061 
L 198.7719 228.098821 
L 198.893546 228.098821 
L 198.921489 226.850098 
L 199.182325 226.850098 
L 199.182325 226.433858 
L 199.639235 226.433858 
L 199.639235 226.017617 
L 199.970871 226.017617 
L 200.076271 223.936413 
L 200.09263 223.936413 
L 200.09263 223.520173 
L 200.228855 223.520173 
L 200.317911 221.438969 
L 200.536667 221.438969 
L 200.645702 219.774006 
L 200.797503 219.774006 
L 200.838206 218.941525 
L 200.979428 218.941525 
L 201.060267 218.109043 
L 201.291651 218.109043 
L 201.36808 216.44408 
L 201.586049 216.44408 
L 201.628915 215.611599 
L 202.030035 215.611599 
L 202.035223 214.779118 
L 202.178398 214.779118 
L 202.234628 213.530395 
L 202.417461 213.530395 
L 202.519059 211.032951 
L 202.537188 211.032951 
L 202.537188 210.61671 
L 203.190297 210.61671 
L 203.284796 209.784229 
L 203.419555 209.784229 
L 203.419555 209.367988 
L 203.558246 209.367988 
L 203.583184 208.119266 
L 203.78858 208.119266 
L 203.887043 206.454303 
L 203.90858 206.454303 
L 203.978551 205.205581 
L 204.105799 205.205581 
L 204.105799 204.78934 
L 204.579817 204.78934 
L 204.624989 203.956859 
L 204.937211 203.956859 
L 204.937211 203.540618 
L 205.10475 203.540618 
L 205.178101 202.708137 
L 205.342134 202.708137 
L 205.41572 201.459414 
L 205.637379 201.459414 
L 205.637379 201.043174 
L 206.250152 201.043174 
L 206.250152 200.626933 
L 206.700917 200.626933 
L 206.700917 200.210692 
L 206.954214 200.210692 
L 206.954214 199.794451 
L 207.685187 199.794451 
L 207.685187 199.378211 
L 207.851126 199.378211 
L 207.851126 198.96197 
L 208.264801 198.96197 
L 208.264801 198.545729 
L 208.818691 198.545729 
L 208.880592 197.713248 
L 210.992234 197.713248 
L 210.992234 197.297007 
L 211.505917 197.297007 
L 211.505917 196.880766 
L 211.743302 196.880766 
L 211.816888 196.048285 
L 212.008312 196.048285 
L 212.038547 195.215804 
L 212.65132 195.215804 
L 212.65132 194.799563 
L 213.102084 194.799563 
L 213.102084 194.383322 
L 214.665969 194.383322 
L 214.665969 193.967081 
L 217.559686 193.967081 
L 217.559686 193.550841 
L 218.456598 193.550841 
L 218.456598 193.1346 
L 219.421213 193.1346 
L 219.421213 192.718359 
L 221.597707 192.718359 
L 221.597707 192.302118 
L 222.613784 192.302118 
L 222.613784 191.885878 
L 223.042773 191.885878 
L 223.042773 191.469637 
L 223.523216 191.469637 
L 223.523216 191.053396 
L 223.939685 191.053396 
L 223.939685 190.637156 
L 225.638958 190.637156 
L 225.739491 189.804674 
L 226.997367 189.804674 
L 227.080793 188.972193 
L 228.096871 188.972193 
L 228.096871 188.555952 
L 234.835908 188.555952 
L 234.914442 187.723471 
L 235.433685 187.723471 
L 235.433685 187.30723 
L 236.244431 187.30723 
L 236.344963 186.474748 
L 236.878573 186.474748 
L 236.90635 185.642267 
L 237.396954 185.642267 
L 237.449319 184.393545 
L 237.639756 184.393545 
L 237.653873 183.561063 
L 237.994731 183.561063 
L 238.047097 181.8961 
L 238.189656 181.8961 
L 238.268093 180.231137 
L 238.614484 180.231137 
L 238.614484 179.814897 
L 238.764189 179.814897 
L 238.764189 179.398656 
L 238.893375 179.398656 
L 238.999709 178.149934 
L 239.062429 178.149934 
L 239.062429 177.733693 
L 239.356213 177.733693 
L 239.391912 176.484971 
L 239.467396 176.484971 
L 239.558219 173.987527 
L 239.631077 173.987527 
L 239.724315 172.738804 
L 239.772664 172.738804 
L 239.813454 171.490082 
L 239.98969 171.490082 
L 240.059498 170.657601 
L 240.121399 170.657601 
L 240.121399 170.24136 
L 240.27826 170.24136 
L 240.34016 169.408879 
L 240.419623 169.408879 
L 240.419623 168.992638 
L 240.538801 168.992638 
L 240.641415 168.160157 
L 240.703315 168.160157 
L 240.776245 166.911434 
L 240.980576 166.911434 
L 241.072512 165.246471 
L 241.134413 165.246471 
L 241.209876 163.997749 
L 241.265269 163.997749 
L 241.374022 161.500305 
L 241.3776 161.500305 
L 241.462354 160.251583 
L 241.560754 160.251583 
L 241.61312 157.337898 
L 241.727517 157.337898 
L 241.82805 155.256694 
L 241.863047 155.256694 
L 241.969624 152.343009 
L 241.991761 152.343009 
L 242.090214 151.094287 
L 242.106788 151.094287 
L 242.183544 148.596843 
L 242.260044 148.596843 
L 242.370096 146.099398 
L 242.386075 146.099398 
L 242.494515 144.434435 
L 242.534284 144.434435 
L 242.62715 142.353232 
L 242.645456 142.353232 
L 242.746724 139.439547 
L 242.846687 139.439547 
L 242.939373 138.190824 
L 242.965486 138.190824 
L 243.067461 136.525862 
L 243.099846 136.525862 
L 243.20287 133.612176 
L 243.276456 133.612176 
L 243.356765 129.449769 
L 243.498116 129.449769 
L 243.60409 126.536084 
L 243.639611 126.536084 
L 243.694837 125.287362 
L 243.759739 125.287362 
L 243.861271 122.789918 
L 243.892126 122.789918 
L 243.997123 121.541196 
L 244.006949 121.541196 
L 244.110888 120.292473 
L 244.292368 120.292473 
L 244.375238 118.62751 
L 244.474043 118.62751 
L 244.562172 117.378788 
L 244.605232 117.378788 
L 244.704526 116.130066 
L 244.732722 116.130066 
L 244.795203 114.881344 
L 244.867552 114.881344 
L 244.940045 112.80014 
L 244.989958 112.80014 
L 245.094805 111.967659 
L 245.180561 111.967659 
L 245.247896 109.470215 
L 245.296549 109.470215 
L 245.355906 108.221492 
L 245.42907 108.221492 
L 245.488373 106.556529 
L 245.546683 106.556529 
L 245.628506 105.724048 
L 245.664514 105.724048 
L 245.76008 103.226604 
L 245.785574 103.226604 
L 245.885425 100.729159 
L 245.902365 100.729159 
L 245.906776 99.896678 
L 246.027653 99.896678 
L 246.125538 98.231715 
L 246.202025 98.231715 
L 246.298065 94.901789 
L 246.328728 94.901789 
L 246.328728 94.485549 
L 246.456811 94.485549 
L 246.537754 91.988104 
L 246.653042 91.988104 
L 246.698591 91.155623 
L 246.873263 91.155623 
L 246.968162 89.074419 
L 246.986291 89.074419 
L 247.055095 88.241938 
L 247.117274 88.241938 
L 247.117274 87.825697 
L 247.245066 87.825697 
L 247.346133 85.744493 
L 247.405089 85.744493 
L 247.471546 84.07953 
L 247.536569 84.07953 
L 247.6394 82.414568 
L 247.661517 82.414568 
L 247.661517 81.998327 
L 247.839039 81.998327 
L 247.839039 81.582086 
L 247.984609 81.582086 
L 248.091278 80.749605 
L 248.237683 80.749605 
L 248.237683 80.333364 
L 248.427654 80.333364 
L 248.427654 79.917123 
L 248.689561 79.917123 
L 248.745282 79.084642 
L 248.879532 79.084642 
L 248.879532 78.668401 
L 249.007797 78.668401 
L 249.057505 77.83592 
L 249.288726 77.83592 
L 249.324802 77.003438 
L 249.496822 77.003438 
L 249.514951 76.170957 
L 249.637024 76.170957 
L 249.637024 75.754716 
L 250.168059 75.754716 
L 250.168059 75.338475 
L 250.673058 75.338475 
L 250.766343 74.505994 
L 250.956314 74.505994 
L 250.984179 73.673512 
L 251.162083 73.673512 
L 251.180212 72.841031 
L 251.833321 72.841031 
L 251.833321 72.42479 
L 252.431604 72.42479 
L 252.431604 72.008549 
L 252.621575 72.008549 
L 252.621575 71.592309 
L 257.299228 71.592309 
L 257.399761 70.759827 
L 258.498199 70.759827 
L 258.598731 69.927346 
L 259.878047 69.927346 
L 259.978579 68.678624 
L 259.995153 68.678624 
L 259.995153 68.262383 
L 260.113377 68.262383 
L 260.213909 67.429902 
L 260.944789 67.429902 
L 261.045321 66.59742 
L 261.589652 66.59742 
L 261.589652 66.181179 
L 267.072738 66.181179 
L 267.072738 65.764939 
L 268.411602 65.764939 
L 268.473502 64.932457 
L 271.098828 64.932457 
L 271.098828 64.516216 
L 271.336212 64.516216 
L 271.409798 63.683735 
L 271.631457 63.683735 
L 271.631457 63.267494 
L 272.24423 63.267494 
L 272.24423 62.851254 
L 272.694995 62.851254 
L 272.694995 62.435013 
L 274.25888 62.435013 
L 274.25888 62.018772 
L 275.624783 62.018772 
L 275.624783 61.602531 
L 276.22256 61.602531 
L 276.282832 60.77005 
L 276.885775 60.77005 
L 276.885775 60.353809 
L 277.448955 60.353809 
L 277.448955 59.937569 
L 277.667717 59.937569 
L 277.695225 59.105087 
L 278.030872 59.105087 
L 278.030872 58.688846 
L 278.461969 58.688846 
L 278.461969 58.272606 
L 279.381218 58.272606 
L 279.381218 57.856365 
L 279.553064 57.856365 
L 279.553064 57.440124 
L 279.726786 57.440124 
L 279.788583 56.607643 
L 280.145088 56.607643 
L 280.145088 56.191402 
L 280.262206 56.191402 
L 280.324563 55.358921 
L 280.561539 55.358921 
L 280.561539 54.94268 
L 281.159118 54.94268 
L 281.159118 54.526439 
L 281.327676 54.526439 
L 281.327676 54.110198 
L 281.779554 54.110198 
L 281.797228 53.277717 
L 282.644449 53.277717 
L 282.644449 52.861476 
L 283.350487 52.861476 
L 283.350487 52.445235 
L 283.53742 52.445235 
L 283.53742 52.028995 
L 283.655067 52.028995 
L 283.655067 51.612754 
L 283.84342 51.612754 
L 283.890586 50.364032 
L 284.24709 50.364032 
L 284.300226 49.11531 
L 284.434333 49.11531 
L 284.434333 48.699069 
L 284.663542 48.699069 
L 284.663542 48.282828 
L 285.223268 48.282828 
L 285.316304 47.034106 
L 285.429679 47.034106 
L 285.521597 45.785384 
L 285.881556 45.785384 
L 285.881556 45.369143 
L 286.29001 45.369143 
L 286.380338 44.536662 
L 286.959857 44.536662 
L 286.959857 44.120421 
L 287.27725 44.120421 
L 287.27725 43.70418 
L 287.388507 43.70418 
L 287.388507 43.28794 
L 287.575441 43.28794 
L 287.575441 42.871699 
L 287.856769 42.871699 
L 287.958338 42.039217 
L 288.404585 42.039217 
L 288.404585 41.622977 
L 288.591519 41.622977 
L 288.591519 41.206736 
L 289.623599 41.206736 
L 289.623599 40.790495 
L 290.418358 40.790495 
L 290.418358 40.374255 
L 290.997878 40.374255 
L 290.997878 39.958014 
L 291.434436 39.958014 
L 291.434436 39.541773 
L 292.013955 39.541773 
L 292.013955 39.125532 
L 298.946951 39.125532 
L 299.047483 38.293051 
L 302.035231 38.293051 
L 302.135763 37.460569 
L 302.222165 37.460569 
L 302.322697 36.628088 
L 305.065082 36.628088 
L 305.165615 35.795607 
L 305.644602 35.795607 
L 305.745134 34.963125 
L 305.801059 34.963125 
L 305.801059 34.546884 
L 324.292172 34.546884 
L 324.292172 34.130644 
L 327.380452 34.130644 
L 327.380452 33.714403 
L 327.567386 33.714403 
L 327.567386 33.298162 
L 330.410303 33.298162 
L 330.410303 32.881922 
L 330.989823 32.881922 
L 330.989823 32.465681 
L 453.192 32.465681 
L 453.192 32.465681 
" clip-path="url(#p2b48d5ff51)" style="fill: none; stroke: #bf00bf; stroke-width: 3; stroke-linecap: square"/>
   </g>
   <g id="line2d_52">
    <path clip-path="url(#p2b48d5ff51)" style="fill: none; stroke: #bf00bf; stroke-width: 3; stroke-linecap: square"/>
   </g>
   <g id="line2d_53">
    <path d="M 34.16 256.33697 
L 164.903973 256.33697 
L 164.903973 255.908746 
L 165.144772 255.908746 
L 165.144772 255.480523 
L 166.481209 255.480523 
L 166.572773 254.624076 
L 166.618037 254.624076 
L 166.618037 254.195853 
L 166.945641 254.195853 
L 166.945641 253.767629 
L 167.085384 253.767629 
L 167.132855 252.911182 
L 168.296153 252.911182 
L 168.306193 252.054736 
L 168.426856 252.054736 
L 168.426856 251.626512 
L 168.988529 251.626512 
L 168.988529 251.198289 
L 169.702299 251.198289 
L 169.702299 250.770065 
L 169.872938 250.770065 
L 169.872938 250.341842 
L 170.305373 250.341842 
L 170.308726 249.485395 
L 170.553634 249.485395 
L 170.553634 249.057172 
L 171.227736 249.057172 
L 171.227736 248.628948 
L 171.406669 248.628948 
L 171.498339 247.772501 
L 171.77148 247.772501 
L 171.77148 247.344278 
L 178.81025 247.344278 
L 178.81025 246.916055 
L 180.61112 246.916055 
L 180.61112 246.487831 
L 181.961631 246.487831 
L 181.971671 245.631384 
L 182.654007 245.631384 
L 182.654007 245.203161 
L 183.007993 245.203161 
L 183.007993 244.774938 
L 183.538416 244.774938 
L 183.538416 244.346714 
L 183.946078 244.346714 
L 183.946078 243.918491 
L 184.219112 243.918491 
L 184.219112 243.490267 
L 184.585229 243.490267 
L 184.676793 242.633821 
L 184.722057 242.633821 
L 184.722057 242.205597 
L 185.189404 242.205597 
L 185.236876 241.34915 
L 185.436958 241.34915 
L 185.436958 240.920927 
L 185.746947 240.920927 
L 185.746947 240.492704 
L 186.530876 240.492704 
L 186.530876 240.06448 
L 187.097459 240.06448 
L 187.107499 239.208033 
L 187.789835 239.208033 
L 187.806319 238.351586 
L 188.409394 238.351586 
L 188.412746 237.49514 
L 188.674244 237.49514 
L 188.674244 237.066916 
L 189.331757 237.066916 
L 189.35494 236.210469 
L 189.510689 236.210469 
L 189.60236 235.354023 
L 190.572786 235.354023 
L 190.572786 234.925799 
L 197.35402 234.925799 
L 197.35402 234.497576 
L 198.624655 234.497576 
L 198.677501 233.641129 
L 199.154889 233.641129 
L 199.154889 233.212906 
L 199.691295 233.212906 
L 199.691295 232.784682 
L 199.826838 232.784682 
L 199.826838 232.356459 
L 199.954204 232.356459 
L 199.954204 231.928235 
L 200.201891 231.928235 
L 200.293454 231.071788 
L 200.338718 231.071788 
L 200.412548 230.215342 
L 200.47837 230.215342 
L 200.515441 228.502448 
L 200.806066 228.502448 
L 200.853537 227.646001 
L 201.197777 227.646001 
L 201.197777 227.217778 
L 201.492164 227.217778 
L 201.53144 226.361331 
L 201.623003 226.361331 
L 201.668267 225.076661 
L 201.828882 225.076661 
L 201.838921 224.220214 
L 202.082186 224.220214 
L 202.183086 222.50732 
L 202.213417 222.50732 
L 202.302846 221.650873 
L 202.521257 221.650873 
L 202.521257 221.22265 
L 202.762882 221.22265 
L 202.852716 219.93798 
L 202.978219 219.93798 
L 202.988259 219.081533 
L 203.298658 219.081533 
L 203.408261 217.368639 
L 203.42298 217.368639 
L 203.477087 216.512193 
L 203.535052 216.512193 
L 203.573969 215.227522 
L 203.653358 215.227522 
L 203.670595 213.942852 
L 203.980728 213.942852 
L 204.086362 212.229958 
L 204.256305 212.229958 
L 204.345733 211.373512 
L 204.419461 211.373512 
L 204.419461 210.945288 
L 204.555004 210.945288 
L 204.555004 210.517065 
L 204.752529 210.517065 
L 204.752529 210.088841 
L 204.948418 210.088841 
L 204.948418 209.660618 
L 205.100157 209.660618 
L 205.140714 208.375948 
L 205.219021 208.375948 
L 205.304208 206.663054 
L 205.355604 206.663054 
L 205.358957 205.806607 
L 205.716883 205.806607 
L 205.82141 204.95016 
L 205.847917 204.95016 
L 205.910838 203.66549 
L 206.036699 203.66549 
L 206.036699 203.237267 
L 206.277967 203.237267 
L 206.318003 202.38082 
L 206.453546 202.38082 
L 206.54857 201.09615 
L 206.638982 201.09615 
L 206.638982 200.667926 
L 206.757297 200.667926 
L 206.757297 200.239703 
L 207.039256 200.239703 
L 207.128684 199.383256 
L 207.268618 199.383256 
L 207.268618 198.955033 
L 207.718327 198.955033 
L 207.718327 198.526809 
L 208.166984 198.526809 
L 208.166984 198.098586 
L 208.559111 198.098586 
L 208.559111 197.670362 
L 209.690383 197.670362 
L 209.799986 196.813916 
L 210.588229 196.813916 
L 210.588229 196.385692 
L 210.960246 196.385692 
L 210.960246 195.957469 
L 212.108607 195.957469 
L 212.108607 195.529245 
L 212.239641 195.529245 
L 212.281689 194.672799 
L 212.428423 194.672799 
L 212.428423 194.244575 
L 213.030707 194.244575 
L 213.030707 193.816352 
L 213.149022 193.816352 
L 213.149022 193.388128 
L 214.950835 193.388128 
L 214.950835 192.959905 
L 221.383805 192.959905 
L 221.459637 192.103458 
L 221.832462 192.103458 
L 221.832462 191.675235 
L 223.141036 191.675235 
L 223.141036 191.247011 
L 223.861887 191.247011 
L 223.861887 190.818788 
L 224.253708 190.818788 
L 224.253708 190.390564 
L 224.625724 190.390564 
L 224.625724 189.962341 
L 225.372639 189.962341 
L 225.372639 189.534118 
L 226.519633 189.534118 
L 226.519633 189.105894 
L 226.96829 189.105894 
L 226.96829 188.677671 
L 229.389535 188.677671 
L 229.389535 188.249447 
L 229.761552 188.249447 
L 229.761552 187.821224 
L 236.060576 187.821224 
L 236.060576 187.393001 
L 236.679368 187.393001 
L 236.679368 186.964777 
L 236.806514 186.964777 
L 236.806514 186.536554 
L 237.076299 186.536554 
L 237.076299 186.10833 
L 237.527366 186.10833 
L 237.637812 185.251884 
L 237.729376 185.251884 
L 237.77464 184.395437 
L 237.974619 184.395437 
L 238.01087 183.53899 
L 238.241987 183.53899 
L 238.348168 181.826096 
L 238.393432 181.826096 
L 238.405848 180.969649 
L 238.860779 180.969649 
L 238.90825 180.113203 
L 239.404301 180.113203 
L 239.513904 179.256756 
L 239.544278 179.256756 
L 239.643419 177.543862 
L 239.656303 177.543862 
L 239.688683 176.259192 
L 239.811739 176.259192 
L 239.870701 175.402745 
L 239.927575 175.402745 
L 239.927575 174.974522 
L 240.156031 174.974522 
L 240.258919 172.405181 
L 240.306694 172.405181 
L 240.397967 170.692288 
L 240.835556 170.692288 
L 240.94516 169.407617 
L 240.985893 169.407617 
L 241.095496 167.694724 
L 241.162251 167.694724 
L 241.25252 165.125383 
L 241.325103 165.125383 
L 241.389347 162.984266 
L 241.447937 162.984266 
L 241.5395 160.414926 
L 241.584764 160.414926 
L 241.673248 159.558479 
L 241.698011 159.558479 
L 241.807614 158.273809 
L 241.822526 158.273809 
L 241.904166 155.704468 
L 241.942342 155.704468 
L 242.052112 153.563351 
L 242.080768 153.563351 
L 242.142341 151.850458 
L 242.26485 151.850458 
L 242.318849 150.565787 
L 242.384339 150.565787 
L 242.443069 149.281117 
L 242.552672 149.281117 
L 242.663193 146.711777 
L 242.677144 146.711777 
L 242.774204 142.001319 
L 242.788397 142.001319 
L 242.86294 139.003755 
L 242.901367 139.003755 
L 243.003131 136.862638 
L 243.075531 136.862638 
L 243.182064 135.149745 
L 243.198167 135.149745 
L 243.289023 132.580404 
L 243.340565 132.580404 
L 243.43476 125.300606 
L 243.524188 125.300606 
L 243.599243 122.731266 
L 243.65573 122.731266 
L 243.723933 121.446595 
L 243.85466 121.446595 
L 243.902131 120.590149 
L 244.079886 120.590149 
L 244.17588 118.449031 
L 244.247269 118.449031 
L 244.326217 115.879691 
L 244.436051 115.879691 
L 244.501573 112.882127 
L 244.568986 112.882127 
L 244.669026 110.74101 
L 244.710187 110.74101 
L 244.710187 110.312787 
L 244.861293 110.312787 
L 244.964295 108.599893 
L 244.992327 108.599893 
L 245.080037 104.745882 
L 245.134752 104.745882 
L 245.196132 102.604765 
L 245.270296 102.604765 
L 245.275454 101.320095 
L 245.454593 101.320095 
L 245.521976 98.750755 
L 245.569447 98.750755 
L 245.644991 97.466084 
L 245.783393 97.466084 
L 245.858466 96.181414 
L 245.901708 96.181414 
L 245.999047 94.040297 
L 246.07881 94.040297 
L 246.177979 91.042733 
L 246.194464 91.042733 
L 246.26965 88.473393 
L 246.31745 88.473393 
L 246.373396 87.616946 
L 246.461541 87.616946 
L 246.55371 85.047605 
L 246.588704 85.047605 
L 246.682985 83.762935 
L 246.730456 83.762935 
L 246.789691 82.906488 
L 246.862837 82.906488 
L 246.958463 81.621818 
L 247.031377 81.621818 
L 247.078001 80.337148 
L 247.236046 80.337148 
L 247.236046 79.908925 
L 247.383904 79.908925 
L 247.383904 79.480701 
L 247.511067 79.480701 
L 247.562836 78.624254 
L 247.654507 78.624254 
L 247.712074 76.911361 
L 247.78167 76.911361 
L 247.78167 76.483137 
L 247.997012 76.483137 
L 248.024457 75.62669 
L 248.120455 75.62669 
L 248.175944 74.34202 
L 248.267615 74.34202 
L 248.267615 73.913797 
L 248.741965 73.913797 
L 248.801151 72.629127 
L 248.929919 72.629127 
L 248.929919 72.200903 
L 249.299899 72.200903 
L 249.299899 71.77268 
L 249.664328 71.77268 
L 249.664328 71.344456 
L 249.84326 71.344456 
L 249.934931 69.631563 
L 250.018997 69.631563 
L 250.018997 69.203339 
L 250.362978 69.203339 
L 250.362978 68.775116 
L 250.825337 68.775116 
L 250.825337 68.346892 
L 251.004269 68.346892 
L 251.09594 67.490446 
L 255.350284 67.490446 
L 255.350284 67.062222 
L 256.071136 67.062222 
L 256.071136 66.633999 
L 256.673764 66.633999 
L 256.673764 66.205775 
L 257.394616 66.205775 
L 257.394616 65.777552 
L 257.687559 65.777552 
L 257.687559 65.349329 
L 257.823102 65.349329 
L 257.823102 64.921105 
L 258.408411 64.921105 
L 258.49824 63.636435 
L 258.543954 63.636435 
L 258.543954 63.208212 
L 259.129663 63.208212 
L 259.219092 62.351765 
L 264.028456 62.351765 
L 264.028456 61.923541 
L 269.164284 61.923541 
L 269.164284 61.495318 
L 274.51222 61.495318 
L 274.51222 61.067094 
L 275.131012 61.067094 
L 275.131012 60.638871 
L 276.426264 60.638871 
L 276.503609 59.782424 
L 277.2964 59.782424 
L 277.358228 58.925977 
L 277.934865 58.925977 
L 277.934865 58.497754 
L 278.085201 58.497754 
L 278.126928 57.213084 
L 278.322345 57.213084 
L 278.425222 56.356637 
L 278.797319 56.356637 
L 278.797319 55.928414 
L 279.044013 55.928414 
L 279.044013 55.50019 
L 279.511785 55.50019 
L 279.542377 54.643743 
L 279.638948 54.643743 
L 279.638948 54.21552 
L 280.124893 54.21552 
L 280.124893 53.787296 
L 280.339265 53.787296 
L 280.339265 53.359073 
L 280.584425 53.359073 
L 280.584425 52.93085 
L 281.033082 52.93085 
L 281.033082 52.502626 
L 281.792209 52.502626 
L 281.792209 52.074403 
L 282.020949 52.074403 
L 282.117833 50.789733 
L 282.235346 50.789733 
L 282.235346 50.361509 
L 282.56649 50.361509 
L 282.572226 49.505062 
L 282.809684 49.505062 
L 282.809684 49.076839 
L 282.953218 49.076839 
L 282.953218 48.648616 
L 283.258341 48.648616 
L 283.258341 48.220392 
L 283.424786 48.220392 
L 283.454327 47.363945 
L 283.551949 47.363945 
L 283.551949 46.935722 
L 283.826344 46.935722 
L 283.895706 46.079275 
L 284.037894 46.079275 
L 284.037894 45.651052 
L 284.876767 45.651052 
L 284.987736 44.366381 
L 285.045044 44.366381 
L 285.045044 43.938158 
L 285.325424 43.938158 
L 285.359752 43.081711 
L 285.630754 43.081711 
L 285.720182 41.368818 
L 285.965844 41.368818 
L 286.051603 40.512371 
L 286.414501 40.512371 
L 286.414501 40.084147 
L 286.866219 40.084147 
L 286.866219 39.655924 
L 287.746669 39.655924 
L 287.746669 39.227701 
L 288.118686 39.227701 
L 288.118686 38.799477 
L 288.835747 38.799477 
L 288.835747 38.371254 
L 289.207763 38.371254 
L 289.207763 37.94303 
L 296.007133 37.94303 
L 296.007133 37.514807 
L 296.727985 37.514807 
L 296.727985 37.086583 
L 297.540542 37.086583 
L 297.540542 36.65836 
L 298.232393 36.65836 
L 298.261394 35.801913 
L 298.953244 35.801913 
L 298.953244 35.37369 
L 300.299475 35.37369 
L 300.299475 34.945466 
L 301.020327 34.945466 
L 301.020327 34.517243 
L 301.388553 34.517243 
L 301.388553 34.08902 
L 302.109405 34.08902 
L 302.109405 33.660796 
L 323.229076 33.660796 
L 323.229076 33.232573 
L 324.762484 33.232573 
L 324.762484 32.804349 
L 325.454335 32.804349 
L 325.454335 32.376126 
L 327.521418 32.376126 
L 327.521418 31.947903 
L 328.610495 31.947903 
L 328.610495 31.519679 
L 453.192 31.519679 
L 453.192 31.519679 
" clip-path="url(#p2b48d5ff51)" style="fill: none; stroke: #ff0000; stroke-width: 3; stroke-linecap: square"/>
   </g>
   <g id="line2d_54">
    <path clip-path="url(#p2b48d5ff51)" style="fill: none; stroke: #ff0000; stroke-width: 3; stroke-linecap: square"/>
   </g>
   <g id="line2d_55">
    <path d="M 243.676 291.28 
L 243.676 3 
" clip-path="url(#p2b48d5ff51)" style="fill: none; stroke: #000000; stroke-width: 1.5; stroke-linecap: square"/>
   </g>
   <g id="line2d_56">
    <path d="M 34.16 147.14 
L 453.192 147.14 
" clip-path="url(#p2b48d5ff51)" style="fill: none; stroke-dasharray: 2,3.3; stroke-dashoffset: 0; stroke: #000000; stroke-width: 2"/>
   </g>
   <g id="patch_3">
    <path d="M 34.16 291.28 
L 34.16 3 
" style="fill: none; stroke: #000000; stroke-width: 0.8; stroke-linejoin: miter; stroke-linecap: square"/>
   </g>
   <g id="patch_4">
    <path d="M 453.192 291.28 
L 453.192 3 
" style="fill: none; stroke: #000000; stroke-width: 0.8; stroke-linejoin: miter; stroke-linecap: square"/>
   </g>
   <g id="patch_5">
    <path d="M 34.16 291.28 
L 453.192 291.28 
" style="fill: none; stroke: #000000; stroke-width: 0.8; stroke-linejoin: miter; stroke-linecap: square"/>
   </g>
   <g id="patch_6">
    <path d="M 34.16 3 
L 453.192 3 
" style="fill: none; stroke: #000000; stroke-width: 0.8; stroke-linejoin: miter; stroke-linecap: square"/>
   </g>
   <g id="text_6">
    <!-- f15-f19,40-D -->
    <g transform="translate(318.19261 285.5144) scale(0.2 -0.2)">
     <defs>
      <path id="DejaVuSans-35" d="M 691 4666 
L 3169 4666 
L 3169 4134 
L 1269 4134 
L 1269 2991 
Q 1406 3038 1543 3061 
Q 1681 3084 1819 3084 
Q 2600 3084 3056 2656 
Q 3513 2228 3513 1497 
Q 3513 744 3044 326 
Q 2575 -91 1722 -91 
Q 1428 -91 1123 -41 
Q 819 9 494 109 
L 494 744 
Q 775 591 1075 516 
Q 1375 441 1709 441 
Q 2250 441 2565 725 
Q 2881 1009 2881 1497 
Q 2881 1984 2565 2268 
Q 2250 2553 1709 2553 
Q 1456 2553 1204 2497 
Q 953 2441 691 2322 
L 691 4666 
z
" transform="scale(0.015625)"/>
      <path id="DejaVuSans-39" d="M 703 97 
L 703 672 
Q 941 559 1184 500 
Q 1428 441 1663 441 
Q 2288 441 2617 861 
Q 2947 1281 2994 2138 
Q 2813 1869 2534 1725 
Q 2256 1581 1919 1581 
Q 1219 1581 811 2004 
Q 403 2428 403 3163 
Q 403 3881 828 4315 
Q 1253 4750 1959 4750 
Q 2769 4750 3195 4129 
Q 3622 3509 3622 2328 
Q 3622 1225 3098 567 
Q 2575 -91 1691 -91 
Q 1453 -91 1209 -44 
Q 966 3 703 97 
z
M 1959 2075 
Q 2384 2075 2632 2365 
Q 2881 2656 2881 3163 
Q 2881 3666 2632 3958 
Q 2384 4250 1959 4250 
Q 1534 4250 1286 3958 
Q 1038 3666 1038 3163 
Q 1038 2656 1286 2365 
Q 1534 2075 1959 2075 
z
" transform="scale(0.015625)"/>
      <path id="DejaVuSans-2c" d="M 750 794 
L 1409 794 
L 1409 256 
L 897 -744 
L 494 -744 
L 750 256 
L 750 794 
z
" transform="scale(0.015625)"/>
      <path id="DejaVuSans-34" d="M 2419 4116 
L 825 1625 
L 2419 1625 
L 2419 4116 
z
M 2253 4666 
L 3047 4666 
L 3047 1625 
L 3713 1625 
L 3713 1100 
L 3047 1100 
L 3047 0 
L 2419 0 
L 2419 1100 
L 313 1100 
L 313 1709 
L 2253 4666 
z
" transform="scale(0.015625)"/>
      <path id="DejaVuSans-44" d="M 1259 4147 
L 1259 519 
L 2022 519 
Q 2988 519 3436 956 
Q 3884 1394 3884 2338 
Q 3884 3275 3436 3711 
Q 2988 4147 2022 4147 
L 1259 4147 
z
M 628 4666 
L 1925 4666 
Q 3281 4666 3915 4102 
Q 4550 3538 4550 2338 
Q 4550 1131 3912 565 
Q 3275 0 1925 0 
L 628 0 
L 628 4666 
z
" transform="scale(0.015625)"/>
     </defs>
     <use xlink:href="#DejaVuSans-66"/>
     <use xlink:href="#DejaVuSans-31" x="35.205078"/>
     <use xlink:href="#DejaVuSans-35" x="98.828125"/>
     <use xlink:href="#DejaVuSans-2d" x="162.451172"/>
     <use xlink:href="#DejaVuSans-66" x="198.535156"/>
     <use xlink:href="#DejaVuSans-31" x="233.740234"/>
     <use xlink:href="#DejaVuSans-39" x="297.363281"/>
     <use xlink:href="#DejaVuSans-2c" x="360.986328"/>
     <use xlink:href="#DejaVuSans-34" x="392.773438"/>
     <use xlink:href="#DejaVuSans-30" x="456.396484"/>
     <use xlink:href="#DejaVuSans-2d" x="520.019531"/>
     <use xlink:href="#DejaVuSans-44" x="556.103516"/>
    </g>
   </g>
   <g id="text_7">
    <!-- v2.6.3 -->
    <g style="fill: #808080" transform="translate(227.99475 286.317512) scale(0.1 -0.1)">
     <defs>
      <path id="DejaVuSans-32" d="M 1228 531 
L 3431 531 
L 3431 0 
L 469 0 
L 469 531 
Q 828 903 1448 1529 
Q 2069 2156 2228 2338 
Q 2531 2678 2651 2914 
Q 2772 3150 2772 3378 
Q 2772 3750 2511 3984 
Q 2250 4219 1831 4219 
Q 1534 4219 1204 4116 
Q 875 4013 500 3803 
L 500 4441 
Q 881 4594 1212 4672 
Q 1544 4750 1819 4750 
Q 2544 4750 2975 4387 
Q 3406 4025 3406 3419 
Q 3406 3131 3298 2873 
Q 3191 2616 2906 2266 
Q 2828 2175 2409 1742 
Q 1991 1309 1228 531 
z
" transform="scale(0.015625)"/>
      <path id="DejaVuSans-2e" d="M 684 794 
L 1344 794 
L 1344 0 
L 684 0 
L 684 794 
z
" transform="scale(0.015625)"/>
      <path id="DejaVuSans-36" d="M 2113 2584 
Q 1688 2584 1439 2293 
Q 1191 2003 1191 1497 
Q 1191 994 1439 701 
Q 1688 409 2113 409 
Q 2538 409 2786 701 
Q 3034 994 3034 1497 
Q 3034 2003 2786 2293 
Q 2538 2584 2113 2584 
z
M 3366 4563 
L 3366 3988 
Q 3128 4100 2886 4159 
Q 2644 4219 2406 4219 
Q 1781 4219 1451 3797 
Q 1122 3375 1075 2522 
Q 1259 2794 1537 2939 
Q 1816 3084 2150 3084 
Q 2853 3084 3261 2657 
Q 3669 2231 3669 1497 
Q 3669 778 3244 343 
Q 2819 -91 2113 -91 
Q 1303 -91 875 529 
Q 447 1150 447 2328 
Q 447 3434 972 4092 
Q 1497 4750 2381 4750 
Q 2619 4750 2861 4703 
Q 3103 4656 3366 4563 
z
" transform="scale(0.015625)"/>
      <path id="DejaVuSans-33" d="M 2597 2516 
Q 3050 2419 3304 2112 
Q 3559 1806 3559 1356 
Q 3559 666 3084 287 
Q 2609 -91 1734 -91 
Q 1441 -91 1130 -33 
Q 819 25 488 141 
L 488 750 
Q 750 597 1062 519 
Q 1375 441 1716 441 
Q 2309 441 2620 675 
Q 2931 909 2931 1356 
Q 2931 1769 2642 2001 
Q 2353 2234 1838 2234 
L 1294 2234 
L 1294 2753 
L 1863 2753 
Q 2328 2753 2575 2939 
Q 2822 3125 2822 3475 
Q 2822 3834 2567 4026 
Q 2313 4219 1838 4219 
Q 1578 4219 1281 4162 
Q 984 4106 628 3988 
L 628 4550 
Q 988 4650 1302 4700 
Q 1616 4750 1894 4750 
Q 2613 4750 3031 4423 
Q 3450 4097 3450 3541 
Q 3450 3153 3228 2886 
Q 3006 2619 2597 2516 
z
" transform="scale(0.015625)"/>
     </defs>
     <use xlink:href="#DejaVuSans-76"/>
     <use xlink:href="#DejaVuSans-32" x="59.179688"/>
     <use xlink:href="#DejaVuSans-2e" x="122.802734"/>
     <use xlink:href="#DejaVuSans-36" x="154.589844"/>
     <use xlink:href="#DejaVuSans-2e" x="218.212891"/>
     <use xlink:href="#DejaVuSans-33" x="250"/>
    </g>
   </g>
   <g id="legend_1">
    <g id="patch_7">
     <path d="M 48.16 136.425 
L 177.381875 136.425 
Q 181.381875 136.425 181.381875 132.425 
L 181.381875 17 
Q 181.381875 13 177.381875 13 
L 48.16 13 
Q 44.16 13 44.16 17 
L 44.16 132.425 
Q 44.16 136.425 48.16 136.425 
z
" style="fill: #ffffff; opacity: 0.2; stroke: #cccccc; stroke-linejoin: miter"/>
    </g>
    <g id="line2d_57">
     <path d="M 52.16 29.196875 
L 72.16 29.196875 
L 92.16 29.196875 
" style="fill: none; stroke: #000000; stroke-width: 3; stroke-linecap: square"/>
    </g>
    <g id="text_8">
     <!-- 1: 5/5 -->
     <g transform="translate(108.16 36.196875) scale(0.2 -0.2)">
      <defs>
       <path id="DejaVuSans-3a" d="M 750 794 
L 1409 794 
L 1409 0 
L 750 0 
L 750 794 
z
M 750 3309 
L 1409 3309 
L 1409 2516 
L 750 2516 
L 750 3309 
z
" transform="scale(0.015625)"/>
       <path id="DejaVuSans-2f" d="M 1625 4666 
L 2156 4666 
L 531 -594 
L 0 -594 
L 1625 4666 
z
" transform="scale(0.015625)"/>
      </defs>
      <use xlink:href="#DejaVuSans-31"/>
      <use xlink:href="#DejaVuSans-3a" x="63.623047"/>
      <use xlink:href="#DejaVuSans-20" x="97.314453"/>
      <use xlink:href="#DejaVuSans-35" x="129.101562"/>
      <use xlink:href="#DejaVuSans-2f" x="192.724609"/>
      <use xlink:href="#DejaVuSans-35" x="226.416016"/>
     </g>
    </g>
    <g id="line2d_58">
     <path d="M 52.16 58.553125 
L 72.16 58.553125 
L 92.16 58.553125 
" style="fill: none; stroke: #00bfbf; stroke-width: 3; stroke-linecap: square"/>
    </g>
    <g id="text_9">
     <!-- -1: 4/4 -->
     <g transform="translate(108.16 65.553125) scale(0.2 -0.2)">
      <use xlink:href="#DejaVuSans-2d"/>
      <use xlink:href="#DejaVuSans-31" x="36.083984"/>
      <use xlink:href="#DejaVuSans-3a" x="99.707031"/>
      <use xlink:href="#DejaVuSans-20" x="133.398438"/>
      <use xlink:href="#DejaVuSans-34" x="165.185547"/>
      <use xlink:href="#DejaVuSans-2f" x="228.808594"/>
      <use xlink:href="#DejaVuSans-34" x="262.5"/>
     </g>
    </g>
    <g id="line2d_59">
     <path d="M 52.16 87.909375 
L 72.16 87.909375 
L 92.16 87.909375 
" style="fill: none; stroke: #bf00bf; stroke-width: 3; stroke-linecap: square"/>
    </g>
    <g id="text_10">
     <!-- -4: 4/4 -->
     <g transform="translate(108.16 94.909375) scale(0.2 -0.2)">
      <use xlink:href="#DejaVuSans-2d"/>
      <use xlink:href="#DejaVuSans-34" x="36.083984"/>
      <use xlink:href="#DejaVuSans-3a" x="99.707031"/>
      <use xlink:href="#DejaVuSans-20" x="133.398438"/>
      <use xlink:href="#DejaVuSans-34" x="165.185547"/>
      <use xlink:href="#DejaVuSans-2f" x="228.808594"/>
      <use xlink:href="#DejaVuSans-34" x="262.5"/>
     </g>
    </g>
    <g id="line2d_60">
     <path d="M 52.16 117.265625 
L 72.16 117.265625 
L 92.16 117.265625 
" style="fill: none; stroke: #ff0000; stroke-width: 3; stroke-linecap: square"/>
    </g>
    <g id="text_11">
     <!-- -8: 4/3 -->
     <g transform="translate(108.16 124.265625) scale(0.2 -0.2)">
      <defs>
       <path id="DejaVuSans-38" d="M 2034 2216 
Q 1584 2216 1326 1975 
Q 1069 1734 1069 1313 
Q 1069 891 1326 650 
Q 1584 409 2034 409 
Q 2484 409 2743 651 
Q 3003 894 3003 1313 
Q 3003 1734 2745 1975 
Q 2488 2216 2034 2216 
z
M 1403 2484 
Q 997 2584 770 2862 
Q 544 3141 544 3541 
Q 544 4100 942 4425 
Q 1341 4750 2034 4750 
Q 2731 4750 3128 4425 
Q 3525 4100 3525 3541 
Q 3525 3141 3298 2862 
Q 3072 2584 2669 2484 
Q 3125 2378 3379 2068 
Q 3634 1759 3634 1313 
Q 3634 634 3220 271 
Q 2806 -91 2034 -91 
Q 1263 -91 848 271 
Q 434 634 434 1313 
Q 434 1759 690 2068 
Q 947 2378 1403 2484 
z
M 1172 3481 
Q 1172 3119 1398 2916 
Q 1625 2713 2034 2713 
Q 2441 2713 2670 2916 
Q 2900 3119 2900 3481 
Q 2900 3844 2670 4047 
Q 2441 4250 2034 4250 
Q 1625 4250 1398 4047 
Q 1172 3844 1172 3481 
z
" transform="scale(0.015625)"/>
      </defs>
      <use xlink:href="#DejaVuSans-2d"/>
      <use xlink:href="#DejaVuSans-38" x="36.083984"/>
      <use xlink:href="#DejaVuSans-3a" x="99.707031"/>
      <use xlink:href="#DejaVuSans-20" x="133.398438"/>
      <use xlink:href="#DejaVuSans-34" x="165.185547"/>
      <use xlink:href="#DejaVuSans-2f" x="228.808594"/>
      <use xlink:href="#DejaVuSans-33" x="262.5"/>
     </g>
    </g>
   </g>
  </g>
 </g>
 <defs>
  <clipPath id="p2b48d5ff51">
   <rect x="34.16" y="3" width="419.032" height="288.28"/>
  </clipPath>
 </defs>
</svg>
