<?xml version="1.0" encoding="utf-8" standalone="no"?>
<!DOCTYPE svg PUBLIC "-//W3C//DTD SVG 1.1//EN"
  "http://www.w3.org/Graphics/SVG/1.1/DTD/svg11.dtd">
<svg xmlns:xlink="http://www.w3.org/1999/xlink" width="331.029063pt" height="352.342812pt" viewBox="0 0 331.029063 352.342812" xmlns="http://www.w3.org/2000/svg" version="1.1">
 <metadata>
  <rdf:RDF xmlns:dc="http://purl.org/dc/elements/1.1/" xmlns:cc="http://creativecommons.org/ns#" xmlns:rdf="http://www.w3.org/1999/02/22-rdf-syntax-ns#">
   <cc:Work>
    <dc:type rdf:resource="http://purl.org/dc/dcmitype/StillImage"/>
    <dc:date>2024-06-07T13:52:26.640607</dc:date>
    <dc:format>image/svg+xml</dc:format>
    <dc:creator>
     <cc:Agent>
      <dc:title>Matplotlib v3.7.1, https://matplotlib.org/</dc:title>
     </cc:Agent>
    </dc:creator>
   </cc:Work>
  </rdf:RDF>
 </metadata>
 <defs>
  <style type="text/css">*{stroke-linejoin: round; stroke-linecap: butt}</style>
 </defs>
 <g id="figure_1">
  <g id="patch_1">
   <path d="M 0 352.342812 
L 331.029063 352.342812 
L 331.029063 0 
L 0 0 
z
" style="fill: #ffffff"/>
  </g>
  <g id="axes_1">
   <g id="patch_2">
    <path d="M 45.469063 301.237187 
L 319.829063 301.237187 
L 319.829063 26.877187 
L 45.469063 26.877187 
z
" style="fill: #ffffff"/>
   </g>
   <g id="line2d_1">
    <path d="M 183.395699 220.710726 
L 183.395699 181.411774 
" clip-path="url(#p05c155ea46)" style="fill: none; stroke: #00bfbf; stroke-width: 1.5; stroke-linecap: square"/>
   </g>
   <g id="line2d_2">
    <path d="M 144.096747 181.411774 
L 183.395699 181.411774 
" clip-path="url(#p05c155ea46)" style="fill: none; stroke: #00bfbf; stroke-width: 1.5; stroke-linecap: square"/>
   </g>
   <g id="line2d_3">
    <path d="M 219.892129 150.159725 
L 219.892129 110.860773 
" clip-path="url(#p05c155ea46)" style="fill: none; stroke: #008000; stroke-width: 1.5; stroke-linecap: square"/>
   </g>
   <g id="line2d_4">
    <path d="M 180.593177 110.860773 
L 219.892129 110.860773 
" clip-path="url(#p05c155ea46)" style="fill: none; stroke: #008000; stroke-width: 1.5; stroke-linecap: square"/>
   </g>
   <g id="line2d_5">
    <path d="M 276.249364 109.770276 
L 276.249364 70.471324 
" clip-path="url(#p05c155ea46)" style="fill: none; stroke: #0000ff; stroke-width: 1.5; stroke-linecap: square"/>
   </g>
   <g id="line2d_6">
    <path d="M 236.950412 70.471324 
L 276.249364 70.471324 
" clip-path="url(#p05c155ea46)" style="fill: none; stroke: #0000ff; stroke-width: 1.5; stroke-linecap: square"/>
   </g>
   <g id="line2d_7">
    <path d="M 288.599748 97.405455 
L 288.599748 58.106502 
" clip-path="url(#p05c155ea46)" style="fill: none; stroke: #000000; stroke-width: 1.5; stroke-linecap: square"/>
   </g>
   <g id="line2d_8">
    <path d="M 249.300795 58.106502 
L 288.599748 58.106502 
" clip-path="url(#p05c155ea46)" style="fill: none; stroke: #000000; stroke-width: 1.5; stroke-linecap: square"/>
   </g>
   <g id="line2d_9">
    <path d="M 300.995847 85.010684 
L 300.995847 45.711732 
" clip-path="url(#p05c155ea46)" style="fill: none; stroke: #ff0000; stroke-width: 1.5; stroke-linecap: square"/>
   </g>
   <g id="line2d_10">
    <path d="M 261.696895 45.711732 
L 300.995847 45.711732 
" clip-path="url(#p05c155ea46)" style="fill: none; stroke: #ff0000; stroke-width: 1.5; stroke-linecap: square"/>
   </g>
   <g id="matplotlib.axis_1">
    <g id="xtick_1">
     <g id="line2d_11">
      <path d="M 127.835865 301.237187 
L 127.835865 26.877187 
" clip-path="url(#p05c155ea46)" style="fill: none; stroke: #b0b0b0; stroke-width: 0.8; stroke-linecap: square"/>
     </g>
     <g id="line2d_12">
      <defs>
       <path id="m0889326289" d="M 0 0 
L 0 3.5 
" style="stroke: #000000; stroke-width: 0.8"/>
      </defs>
      <g>
       <use xlink:href="#m0889326289" x="127.835865" y="301.237187" style="stroke: #000000; stroke-width: 0.8"/>
      </g>
     </g>
     <g id="text_1">
      <!-- 2 -->
      <g transform="translate(122.42774 321.154531) scale(0.17 -0.17)">
       <defs>
        <path id="DejaVuSans-32" d="M 1228 531 
L 3431 531 
L 3431 0 
L 469 0 
L 469 531 
Q 828 903 1448 1529 
Q 2069 2156 2228 2338 
Q 2531 2678 2651 2914 
Q 2772 3150 2772 3378 
Q 2772 3750 2511 3984 
Q 2250 4219 1831 4219 
Q 1534 4219 1204 4116 
Q 875 4013 500 3803 
L 500 4441 
Q 881 4594 1212 4672 
Q 1544 4750 1819 4750 
Q 2544 4750 2975 4387 
Q 3406 4025 3406 3419 
Q 3406 3131 3298 2873 
Q 3191 2616 2906 2266 
Q 2828 2175 2409 1742 
Q 1991 1309 1228 531 
z
" transform="scale(0.015625)"/>
       </defs>
       <use xlink:href="#DejaVuSans-32"/>
      </g>
     </g>
    </g>
    <g id="xtick_2">
     <g id="line2d_13">
      <path d="M 210.202668 301.237187 
L 210.202668 26.877187 
" clip-path="url(#p05c155ea46)" style="fill: none; stroke: #b0b0b0; stroke-width: 0.8; stroke-linecap: square"/>
     </g>
     <g id="line2d_14">
      <g>
       <use xlink:href="#m0889326289" x="210.202668" y="301.237187" style="stroke: #000000; stroke-width: 0.8"/>
      </g>
     </g>
     <g id="text_2">
      <!-- 4 -->
      <g transform="translate(204.794543 321.154531) scale(0.17 -0.17)">
       <defs>
        <path id="DejaVuSans-34" d="M 2419 4116 
L 825 1625 
L 2419 1625 
L 2419 4116 
z
M 2253 4666 
L 3047 4666 
L 3047 1625 
L 3713 1625 
L 3713 1100 
L 3047 1100 
L 3047 0 
L 2419 0 
L 2419 1100 
L 313 1100 
L 313 1709 
L 2253 4666 
z
" transform="scale(0.015625)"/>
       </defs>
       <use xlink:href="#DejaVuSans-34"/>
      </g>
     </g>
    </g>
    <g id="xtick_3">
     <g id="line2d_15">
      <path d="M 292.569471 301.237187 
L 292.569471 26.877187 
" clip-path="url(#p05c155ea46)" style="fill: none; stroke: #b0b0b0; stroke-width: 0.8; stroke-linecap: square"/>
     </g>
     <g id="line2d_16">
      <g>
       <use xlink:href="#m0889326289" x="292.569471" y="301.237187" style="stroke: #000000; stroke-width: 0.8"/>
      </g>
     </g>
     <g id="text_3">
      <!-- 6 -->
      <g transform="translate(287.161346 321.154531) scale(0.17 -0.17)">
       <defs>
        <path id="DejaVuSans-36" d="M 2113 2584 
Q 1688 2584 1439 2293 
Q 1191 2003 1191 1497 
Q 1191 994 1439 701 
Q 1688 409 2113 409 
Q 2538 409 2786 701 
Q 3034 994 3034 1497 
Q 3034 2003 2786 2293 
Q 2538 2584 2113 2584 
z
M 3366 4563 
L 3366 3988 
Q 3128 4100 2886 4159 
Q 2644 4219 2406 4219 
Q 1781 4219 1451 3797 
Q 1122 3375 1075 2522 
Q 1259 2794 1537 2939 
Q 1816 3084 2150 3084 
Q 2853 3084 3261 2657 
Q 3669 2231 3669 1497 
Q 3669 778 3244 343 
Q 2819 -91 2113 -91 
Q 1303 -91 875 529 
Q 447 1150 447 2328 
Q 447 3434 972 4092 
Q 1497 4750 2381 4750 
Q 2619 4750 2861 4703 
Q 3103 4656 3366 4563 
z
" transform="scale(0.015625)"/>
       </defs>
       <use xlink:href="#DejaVuSans-36"/>
      </g>
     </g>
    </g>
    <g id="text_4">
     <!-- log10(ERT of IC-CMA) -->
     <g transform="translate(92.199766 341.607344) scale(0.17 -0.17)">
      <defs>
       <path id="DejaVuSans-6c" d="M 603 4863 
L 1178 4863 
L 1178 0 
L 603 0 
L 603 4863 
z
" transform="scale(0.015625)"/>
       <path id="DejaVuSans-6f" d="M 1959 3097 
Q 1497 3097 1228 2736 
Q 959 2375 959 1747 
Q 959 1119 1226 758 
Q 1494 397 1959 397 
Q 2419 397 2687 759 
Q 2956 1122 2956 1747 
Q 2956 2369 2687 2733 
Q 2419 3097 1959 3097 
z
M 1959 3584 
Q 2709 3584 3137 3096 
Q 3566 2609 3566 1747 
Q 3566 888 3137 398 
Q 2709 -91 1959 -91 
Q 1206 -91 779 398 
Q 353 888 353 1747 
Q 353 2609 779 3096 
Q 1206 3584 1959 3584 
z
" transform="scale(0.015625)"/>
       <path id="DejaVuSans-67" d="M 2906 1791 
Q 2906 2416 2648 2759 
Q 2391 3103 1925 3103 
Q 1463 3103 1205 2759 
Q 947 2416 947 1791 
Q 947 1169 1205 825 
Q 1463 481 1925 481 
Q 2391 481 2648 825 
Q 2906 1169 2906 1791 
z
M 3481 434 
Q 3481 -459 3084 -895 
Q 2688 -1331 1869 -1331 
Q 1566 -1331 1297 -1286 
Q 1028 -1241 775 -1147 
L 775 -588 
Q 1028 -725 1275 -790 
Q 1522 -856 1778 -856 
Q 2344 -856 2625 -561 
Q 2906 -266 2906 331 
L 2906 616 
Q 2728 306 2450 153 
Q 2172 0 1784 0 
Q 1141 0 747 490 
Q 353 981 353 1791 
Q 353 2603 747 3093 
Q 1141 3584 1784 3584 
Q 2172 3584 2450 3431 
Q 2728 3278 2906 2969 
L 2906 3500 
L 3481 3500 
L 3481 434 
z
" transform="scale(0.015625)"/>
       <path id="DejaVuSans-31" d="M 794 531 
L 1825 531 
L 1825 4091 
L 703 3866 
L 703 4441 
L 1819 4666 
L 2450 4666 
L 2450 531 
L 3481 531 
L 3481 0 
L 794 0 
L 794 531 
z
" transform="scale(0.015625)"/>
       <path id="DejaVuSans-30" d="M 2034 4250 
Q 1547 4250 1301 3770 
Q 1056 3291 1056 2328 
Q 1056 1369 1301 889 
Q 1547 409 2034 409 
Q 2525 409 2770 889 
Q 3016 1369 3016 2328 
Q 3016 3291 2770 3770 
Q 2525 4250 2034 4250 
z
M 2034 4750 
Q 2819 4750 3233 4129 
Q 3647 3509 3647 2328 
Q 3647 1150 3233 529 
Q 2819 -91 2034 -91 
Q 1250 -91 836 529 
Q 422 1150 422 2328 
Q 422 3509 836 4129 
Q 1250 4750 2034 4750 
z
" transform="scale(0.015625)"/>
       <path id="DejaVuSans-28" d="M 1984 4856 
Q 1566 4138 1362 3434 
Q 1159 2731 1159 2009 
Q 1159 1288 1364 580 
Q 1569 -128 1984 -844 
L 1484 -844 
Q 1016 -109 783 600 
Q 550 1309 550 2009 
Q 550 2706 781 3412 
Q 1013 4119 1484 4856 
L 1984 4856 
z
" transform="scale(0.015625)"/>
       <path id="DejaVuSans-45" d="M 628 4666 
L 3578 4666 
L 3578 4134 
L 1259 4134 
L 1259 2753 
L 3481 2753 
L 3481 2222 
L 1259 2222 
L 1259 531 
L 3634 531 
L 3634 0 
L 628 0 
L 628 4666 
z
" transform="scale(0.015625)"/>
       <path id="DejaVuSans-52" d="M 2841 2188 
Q 3044 2119 3236 1894 
Q 3428 1669 3622 1275 
L 4263 0 
L 3584 0 
L 2988 1197 
Q 2756 1666 2539 1819 
Q 2322 1972 1947 1972 
L 1259 1972 
L 1259 0 
L 628 0 
L 628 4666 
L 2053 4666 
Q 2853 4666 3247 4331 
Q 3641 3997 3641 3322 
Q 3641 2881 3436 2590 
Q 3231 2300 2841 2188 
z
M 1259 4147 
L 1259 2491 
L 2053 2491 
Q 2509 2491 2742 2702 
Q 2975 2913 2975 3322 
Q 2975 3731 2742 3939 
Q 2509 4147 2053 4147 
L 1259 4147 
z
" transform="scale(0.015625)"/>
       <path id="DejaVuSans-54" d="M -19 4666 
L 3928 4666 
L 3928 4134 
L 2272 4134 
L 2272 0 
L 1638 0 
L 1638 4134 
L -19 4134 
L -19 4666 
z
" transform="scale(0.015625)"/>
       <path id="DejaVuSans-20" transform="scale(0.015625)"/>
       <path id="DejaVuSans-66" d="M 2375 4863 
L 2375 4384 
L 1825 4384 
Q 1516 4384 1395 4259 
Q 1275 4134 1275 3809 
L 1275 3500 
L 2222 3500 
L 2222 3053 
L 1275 3053 
L 1275 0 
L 697 0 
L 697 3053 
L 147 3053 
L 147 3500 
L 697 3500 
L 697 3744 
Q 697 4328 969 4595 
Q 1241 4863 1831 4863 
L 2375 4863 
z
" transform="scale(0.015625)"/>
       <path id="DejaVuSans-49" d="M 628 4666 
L 1259 4666 
L 1259 0 
L 628 0 
L 628 4666 
z
" transform="scale(0.015625)"/>
       <path id="DejaVuSans-43" d="M 4122 4306 
L 4122 3641 
Q 3803 3938 3442 4084 
Q 3081 4231 2675 4231 
Q 1875 4231 1450 3742 
Q 1025 3253 1025 2328 
Q 1025 1406 1450 917 
Q 1875 428 2675 428 
Q 3081 428 3442 575 
Q 3803 722 4122 1019 
L 4122 359 
Q 3791 134 3420 21 
Q 3050 -91 2638 -91 
Q 1578 -91 968 557 
Q 359 1206 359 2328 
Q 359 3453 968 4101 
Q 1578 4750 2638 4750 
Q 3056 4750 3426 4639 
Q 3797 4528 4122 4306 
z
" transform="scale(0.015625)"/>
       <path id="DejaVuSans-2d" d="M 313 2009 
L 1997 2009 
L 1997 1497 
L 313 1497 
L 313 2009 
z
" transform="scale(0.015625)"/>
       <path id="DejaVuSans-4d" d="M 628 4666 
L 1569 4666 
L 2759 1491 
L 3956 4666 
L 4897 4666 
L 4897 0 
L 4281 0 
L 4281 4097 
L 3078 897 
L 2444 897 
L 1241 4097 
L 1241 0 
L 628 0 
L 628 4666 
z
" transform="scale(0.015625)"/>
       <path id="DejaVuSans-41" d="M 2188 4044 
L 1331 1722 
L 3047 1722 
L 2188 4044 
z
M 1831 4666 
L 2547 4666 
L 4325 0 
L 3669 0 
L 3244 1197 
L 1141 1197 
L 716 0 
L 50 0 
L 1831 4666 
z
" transform="scale(0.015625)"/>
       <path id="DejaVuSans-29" d="M 513 4856 
L 1013 4856 
Q 1481 4119 1714 3412 
Q 1947 2706 1947 2009 
Q 1947 1309 1714 600 
Q 1481 -109 1013 -844 
L 513 -844 
Q 928 -128 1133 580 
Q 1338 1288 1338 2009 
Q 1338 2731 1133 3434 
Q 928 4138 513 4856 
z
" transform="scale(0.015625)"/>
      </defs>
      <use xlink:href="#DejaVuSans-6c"/>
      <use xlink:href="#DejaVuSans-6f" x="27.783203"/>
      <use xlink:href="#DejaVuSans-67" x="88.964844"/>
      <use xlink:href="#DejaVuSans-31" x="152.441406"/>
      <use xlink:href="#DejaVuSans-30" x="216.064453"/>
      <use xlink:href="#DejaVuSans-28" x="279.6875"/>
      <use xlink:href="#DejaVuSans-45" x="318.701172"/>
      <use xlink:href="#DejaVuSans-52" x="381.884766"/>
      <use xlink:href="#DejaVuSans-54" x="444.117188"/>
      <use xlink:href="#DejaVuSans-20" x="505.201172"/>
      <use xlink:href="#DejaVuSans-6f" x="536.988281"/>
      <use xlink:href="#DejaVuSans-66" x="598.169922"/>
      <use xlink:href="#DejaVuSans-20" x="633.375"/>
      <use xlink:href="#DejaVuSans-49" x="665.162109"/>
      <use xlink:href="#DejaVuSans-43" x="694.654297"/>
      <use xlink:href="#DejaVuSans-2d" x="764.478516"/>
      <use xlink:href="#DejaVuSans-43" x="800.5625"/>
      <use xlink:href="#DejaVuSans-4d" x="870.386719"/>
      <use xlink:href="#DejaVuSans-41" x="956.666016"/>
      <use xlink:href="#DejaVuSans-29" x="1025.074219"/>
     </g>
    </g>
   </g>
   <g id="matplotlib.axis_2">
    <g id="ytick_1">
     <g id="line2d_17">
      <path d="M 45.469063 218.870385 
L 319.829063 218.870385 
" clip-path="url(#p05c155ea46)" style="fill: none; stroke: #b0b0b0; stroke-width: 0.8; stroke-linecap: square"/>
     </g>
     <g id="line2d_18">
      <defs>
       <path id="m7870759ae9" d="M 0 0 
L -3.5 0 
" style="stroke: #000000; stroke-width: 0.8"/>
      </defs>
      <g>
       <use xlink:href="#m7870759ae9" x="45.469063" y="218.870385" style="stroke: #000000; stroke-width: 0.8"/>
      </g>
     </g>
     <g id="text_5">
      <!-- 2 -->
      <g transform="translate(27.652813 225.329057) scale(0.17 -0.17)">
       <use xlink:href="#DejaVuSans-32"/>
      </g>
     </g>
    </g>
    <g id="ytick_2">
     <g id="line2d_19">
      <path d="M 45.469063 136.503582 
L 319.829063 136.503582 
" clip-path="url(#p05c155ea46)" style="fill: none; stroke: #b0b0b0; stroke-width: 0.8; stroke-linecap: square"/>
     </g>
     <g id="line2d_20">
      <g>
       <use xlink:href="#m7870759ae9" x="45.469063" y="136.503582" style="stroke: #000000; stroke-width: 0.8"/>
      </g>
     </g>
     <g id="text_6">
      <!-- 4 -->
      <g transform="translate(27.652813 142.962254) scale(0.17 -0.17)">
       <use xlink:href="#DejaVuSans-34"/>
      </g>
     </g>
    </g>
    <g id="ytick_3">
     <g id="line2d_21">
      <path d="M 45.469063 54.136779 
L 319.829063 54.136779 
" clip-path="url(#p05c155ea46)" style="fill: none; stroke: #b0b0b0; stroke-width: 0.8; stroke-linecap: square"/>
     </g>
     <g id="line2d_22">
      <g>
       <use xlink:href="#m7870759ae9" x="45.469063" y="54.136779" style="stroke: #000000; stroke-width: 0.8"/>
      </g>
     </g>
     <g id="text_7">
      <!-- 6 -->
      <g transform="translate(27.652813 60.595451) scale(0.17 -0.17)">
       <use xlink:href="#DejaVuSans-36"/>
      </g>
     </g>
    </g>
    <g id="text_8">
     <!-- log10(ERT of LB+IC-CMA) -->
     <g transform="translate(20.117344 272.197109) rotate(-90) scale(0.17 -0.17)">
      <defs>
       <path id="DejaVuSans-4c" d="M 628 4666 
L 1259 4666 
L 1259 531 
L 3531 531 
L 3531 0 
L 628 0 
L 628 4666 
z
" transform="scale(0.015625)"/>
       <path id="DejaVuSans-42" d="M 1259 2228 
L 1259 519 
L 2272 519 
Q 2781 519 3026 730 
Q 3272 941 3272 1375 
Q 3272 1813 3026 2020 
Q 2781 2228 2272 2228 
L 1259 2228 
z
M 1259 4147 
L 1259 2741 
L 2194 2741 
Q 2656 2741 2882 2914 
Q 3109 3088 3109 3444 
Q 3109 3797 2882 3972 
Q 2656 4147 2194 4147 
L 1259 4147 
z
M 628 4666 
L 2241 4666 
Q 2963 4666 3353 4366 
Q 3744 4066 3744 3513 
Q 3744 3084 3544 2831 
Q 3344 2578 2956 2516 
Q 3422 2416 3680 2098 
Q 3938 1781 3938 1306 
Q 3938 681 3513 340 
Q 3088 0 2303 0 
L 628 0 
L 628 4666 
z
" transform="scale(0.015625)"/>
       <path id="DejaVuSans-2b" d="M 2944 4013 
L 2944 2272 
L 4684 2272 
L 4684 1741 
L 2944 1741 
L 2944 0 
L 2419 0 
L 2419 1741 
L 678 1741 
L 678 2272 
L 2419 2272 
L 2419 4013 
L 2944 4013 
z
" transform="scale(0.015625)"/>
      </defs>
      <use xlink:href="#DejaVuSans-6c"/>
      <use xlink:href="#DejaVuSans-6f" x="27.783203"/>
      <use xlink:href="#DejaVuSans-67" x="88.964844"/>
      <use xlink:href="#DejaVuSans-31" x="152.441406"/>
      <use xlink:href="#DejaVuSans-30" x="216.064453"/>
      <use xlink:href="#DejaVuSans-28" x="279.6875"/>
      <use xlink:href="#DejaVuSans-45" x="318.701172"/>
      <use xlink:href="#DejaVuSans-52" x="381.884766"/>
      <use xlink:href="#DejaVuSans-54" x="444.117188"/>
      <use xlink:href="#DejaVuSans-20" x="505.201172"/>
      <use xlink:href="#DejaVuSans-6f" x="536.988281"/>
      <use xlink:href="#DejaVuSans-66" x="598.169922"/>
      <use xlink:href="#DejaVuSans-20" x="633.375"/>
      <use xlink:href="#DejaVuSans-4c" x="665.162109"/>
      <use xlink:href="#DejaVuSans-42" x="720.875"/>
      <use xlink:href="#DejaVuSans-2b" x="789.478516"/>
      <use xlink:href="#DejaVuSans-49" x="873.267578"/>
      <use xlink:href="#DejaVuSans-43" x="902.759766"/>
      <use xlink:href="#DejaVuSans-2d" x="972.583984"/>
      <use xlink:href="#DejaVuSans-43" x="1008.667969"/>
      <use xlink:href="#DejaVuSans-4d" x="1078.492188"/>
      <use xlink:href="#DejaVuSans-41" x="1164.771484"/>
      <use xlink:href="#DejaVuSans-29" x="1233.179688"/>
     </g>
    </g>
   </g>
   <g id="line2d_23">
    <defs>
     <path id="m227bec6d2c" d="M -7 0 
L 7 0 
M 0 7 
L 0 -7 
" style="stroke: #00bfbf; stroke-width: 3"/>
    </defs>
    <g>
     <use xlink:href="#m227bec6d2c" x="45.469063" y="301.237187" style="fill-opacity: 0; stroke: #00bfbf; stroke-width: 3"/>
     <use xlink:href="#m227bec6d2c" x="142.105229" y="234.730227" style="fill-opacity: 0; stroke: #00bfbf; stroke-width: 3"/>
     <use xlink:href="#m227bec6d2c" x="144.095145" y="231.726767" style="fill-opacity: 0; stroke: #00bfbf; stroke-width: 3"/>
     <use xlink:href="#m227bec6d2c" x="144.352704" y="231.125307" style="fill-opacity: 0; stroke: #00bfbf; stroke-width: 3"/>
     <use xlink:href="#m227bec6d2c" x="146.22152" y="223.116662" style="fill-opacity: 0; stroke: #00bfbf; stroke-width: 3"/>
     <use xlink:href="#m227bec6d2c" x="151.950226" y="216.143976" style="fill-opacity: 0; stroke: #00bfbf; stroke-width: 3"/>
     <use xlink:href="#m227bec6d2c" x="159.807103" y="210.241844" style="fill-opacity: 0; stroke: #00bfbf; stroke-width: 3"/>
     <use xlink:href="#m227bec6d2c" x="162.629654" y="208.423761" style="fill-opacity: 0; stroke: #00bfbf; stroke-width: 3"/>
     <use xlink:href="#m227bec6d2c" x="163.01409" y="206.616607" style="fill-opacity: 0; stroke: #00bfbf; stroke-width: 3"/>
     <use xlink:href="#m227bec6d2c" x="163.035763" y="206.354103" style="fill-opacity: 0; stroke: #00bfbf; stroke-width: 3"/>
     <use xlink:href="#m227bec6d2c" x="163.567597" y="205.079888" style="fill-opacity: 0; stroke: #00bfbf; stroke-width: 3"/>
     <use xlink:href="#m227bec6d2c" x="164.146814" y="201.448681" style="fill-opacity: 0; stroke: #00bfbf; stroke-width: 3"/>
     <use xlink:href="#m227bec6d2c" x="164.851436" y="200.933949" style="fill-opacity: 0; stroke: #00bfbf; stroke-width: 3"/>
     <use xlink:href="#m227bec6d2c" x="165.974492" y="198.96049" style="fill-opacity: 0; stroke: #00bfbf; stroke-width: 3"/>
     <use xlink:href="#m227bec6d2c" x="166.715251" y="197.144329" style="fill-opacity: 0; stroke: #00bfbf; stroke-width: 3"/>
     <use xlink:href="#m227bec6d2c" x="166.926935" y="196.75576" style="fill-opacity: 0; stroke: #00bfbf; stroke-width: 3"/>
     <use xlink:href="#m227bec6d2c" x="167.717441" y="195.296723" style="fill-opacity: 0; stroke: #00bfbf; stroke-width: 3"/>
     <use xlink:href="#m227bec6d2c" x="168.328838" y="193.55551" style="fill-opacity: 0; stroke: #00bfbf; stroke-width: 3"/>
     <use xlink:href="#m227bec6d2c" x="169.198416" y="191.950333" style="fill-opacity: 0; stroke: #00bfbf; stroke-width: 3"/>
     <use xlink:href="#m227bec6d2c" x="169.578021" y="191.04205" style="fill-opacity: 0; stroke: #00bfbf; stroke-width: 3"/>
     <use xlink:href="#m227bec6d2c" x="170.188111" y="189.37147" style="fill-opacity: 0; stroke: #00bfbf; stroke-width: 3"/>
     <use xlink:href="#m227bec6d2c" x="170.799677" y="188.388405" style="fill-opacity: 0; stroke: #00bfbf; stroke-width: 3"/>
    </g>
   </g>
   <g id="line2d_24">
    <defs>
     <path id="m5e8001cc9b" d="M -0 7 
L 7 -7 
L -7 -7 
z
" style="stroke: #008000; stroke-width: 3; stroke-linejoin: miter"/>
    </defs>
    <g>
     <use xlink:href="#m5e8001cc9b" x="45.469063" y="301.237187" style="fill-opacity: 0; stroke: #008000; stroke-width: 3; stroke-linejoin: miter"/>
     <use xlink:href="#m5e8001cc9b" x="162.109135" y="215.45115" style="fill-opacity: 0; stroke: #008000; stroke-width: 3; stroke-linejoin: miter"/>
     <use xlink:href="#m5e8001cc9b" x="162.777323" y="212.439796" style="fill-opacity: 0; stroke: #008000; stroke-width: 3; stroke-linejoin: miter"/>
     <use xlink:href="#m5e8001cc9b" x="163.601529" y="209.281787" style="fill-opacity: 0; stroke: #008000; stroke-width: 3; stroke-linejoin: miter"/>
     <use xlink:href="#m5e8001cc9b" x="174.454736" y="197.01738" style="fill-opacity: 0; stroke: #008000; stroke-width: 3; stroke-linejoin: miter"/>
     <use xlink:href="#m5e8001cc9b" x="176.203607" y="192.021945" style="fill-opacity: 0; stroke: #008000; stroke-width: 3; stroke-linejoin: miter"/>
     <use xlink:href="#m5e8001cc9b" x="195.031232" y="158.854379" style="fill-opacity: 0; stroke: #008000; stroke-width: 3; stroke-linejoin: miter"/>
     <use xlink:href="#m5e8001cc9b" x="202.28002" y="142.387066" style="fill-opacity: 0; stroke: #008000; stroke-width: 3; stroke-linejoin: miter"/>
     <use xlink:href="#m5e8001cc9b" x="202.790375" y="139.685725" style="fill-opacity: 0; stroke: #008000; stroke-width: 3; stroke-linejoin: miter"/>
     <use xlink:href="#m5e8001cc9b" x="202.952956" y="139.460642" style="fill-opacity: 0; stroke: #008000; stroke-width: 3; stroke-linejoin: miter"/>
     <use xlink:href="#m5e8001cc9b" x="203.228199" y="139.190901" style="fill-opacity: 0; stroke: #008000; stroke-width: 3; stroke-linejoin: miter"/>
     <use xlink:href="#m5e8001cc9b" x="203.327947" y="139.045442" style="fill-opacity: 0; stroke: #008000; stroke-width: 3; stroke-linejoin: miter"/>
     <use xlink:href="#m5e8001cc9b" x="203.919093" y="138.73194" style="fill-opacity: 0; stroke: #008000; stroke-width: 3; stroke-linejoin: miter"/>
     <use xlink:href="#m5e8001cc9b" x="204.142358" y="138.568458" style="fill-opacity: 0; stroke: #008000; stroke-width: 3; stroke-linejoin: miter"/>
     <use xlink:href="#m5e8001cc9b" x="204.642147" y="138.083794" style="fill-opacity: 0; stroke: #008000; stroke-width: 3; stroke-linejoin: miter"/>
     <use xlink:href="#m5e8001cc9b" x="204.781701" y="137.92094" style="fill-opacity: 0; stroke: #008000; stroke-width: 3; stroke-linejoin: miter"/>
     <use xlink:href="#m5e8001cc9b" x="205.19079" y="137.62829" style="fill-opacity: 0; stroke: #008000; stroke-width: 3; stroke-linejoin: miter"/>
     <use xlink:href="#m5e8001cc9b" x="205.387743" y="137.284585" style="fill-opacity: 0; stroke: #008000; stroke-width: 3; stroke-linejoin: miter"/>
     <use xlink:href="#m5e8001cc9b" x="205.871372" y="136.950784" style="fill-opacity: 0; stroke: #008000; stroke-width: 3; stroke-linejoin: miter"/>
     <use xlink:href="#m5e8001cc9b" x="206.352918" y="136.825787" style="fill-opacity: 0; stroke: #008000; stroke-width: 3; stroke-linejoin: miter"/>
     <use xlink:href="#m5e8001cc9b" x="206.791418" y="136.489517" style="fill-opacity: 0; stroke: #008000; stroke-width: 3; stroke-linejoin: miter"/>
     <use xlink:href="#m5e8001cc9b" x="207.013685" y="136.341558" style="fill-opacity: 0; stroke: #008000; stroke-width: 3; stroke-linejoin: miter"/>
    </g>
   </g>
   <g id="line2d_25">
    <defs>
     <path id="mcbeb4def2a" d="M 0 -7 
L -1.571598 -2.163119 
L -6.657396 -2.163119 
L -2.542899 0.826238 
L -4.114497 5.663119 
L -0 2.673762 
L 4.114497 5.663119 
L 2.542899 0.826238 
L 6.657396 -2.163119 
L 1.571598 -2.163119 
z
" style="stroke: #0000ff; stroke-width: 3; stroke-linejoin: bevel"/>
    </defs>
    <g>
     <use xlink:href="#mcbeb4def2a" x="45.469063" y="301.237187" style="fill-opacity: 0; stroke: #0000ff; stroke-width: 3; stroke-linejoin: bevel"/>
     <use xlink:href="#mcbeb4def2a" x="192.913664" y="190.134573" style="fill-opacity: 0; stroke: #0000ff; stroke-width: 3; stroke-linejoin: bevel"/>
     <use xlink:href="#mcbeb4def2a" x="193.977646" y="187.233544" style="fill-opacity: 0; stroke: #0000ff; stroke-width: 3; stroke-linejoin: bevel"/>
     <use xlink:href="#mcbeb4def2a" x="199.129545" y="182.152309" style="fill-opacity: 0; stroke: #0000ff; stroke-width: 3; stroke-linejoin: bevel"/>
     <use xlink:href="#mcbeb4def2a" x="201.781617" y="175.760374" style="fill-opacity: 0; stroke: #0000ff; stroke-width: 3; stroke-linejoin: bevel"/>
     <use xlink:href="#mcbeb4def2a" x="205.799221" y="169.8454" style="fill-opacity: 0; stroke: #0000ff; stroke-width: 3; stroke-linejoin: bevel"/>
     <use xlink:href="#mcbeb4def2a" x="253.346329" y="83.898065" style="fill-opacity: 0; stroke: #0000ff; stroke-width: 3; stroke-linejoin: bevel"/>
    </g>
   </g>
   <g id="line2d_26">
    <defs>
     <path id="ma24ae6f8c6" d="M 0 -4 
L -0.898056 -1.236068 
L -3.804226 -1.236068 
L -1.453085 0.472136 
L -2.351141 3.236068 
L -0 1.527864 
L 2.351141 3.236068 
L 1.453085 0.472136 
L 3.804226 -1.236068 
L 0.898056 -1.236068 
z
" style="stroke: #0000ff; stroke-linejoin: bevel"/>
    </defs>
    <g>
     <use xlink:href="#ma24ae6f8c6" x="292.499878" y="26.877187" style="fill-opacity: 0; stroke: #0000ff; stroke-linejoin: bevel"/>
     <use xlink:href="#ma24ae6f8c6" x="292.658154" y="26.877187" style="fill-opacity: 0; stroke: #0000ff; stroke-linejoin: bevel"/>
     <use xlink:href="#ma24ae6f8c6" x="292.70879" y="26.877187" style="fill-opacity: 0; stroke: #0000ff; stroke-linejoin: bevel"/>
     <use xlink:href="#ma24ae6f8c6" x="292.792953" y="26.877187" style="fill-opacity: 0; stroke: #0000ff; stroke-linejoin: bevel"/>
     <use xlink:href="#ma24ae6f8c6" x="292.809666" y="26.877187" style="fill-opacity: 0; stroke: #0000ff; stroke-linejoin: bevel"/>
     <use xlink:href="#ma24ae6f8c6" x="292.863539" y="26.877187" style="fill-opacity: 0; stroke: #0000ff; stroke-linejoin: bevel"/>
     <use xlink:href="#ma24ae6f8c6" x="292.890473" y="26.877187" style="fill-opacity: 0; stroke: #0000ff; stroke-linejoin: bevel"/>
     <use xlink:href="#ma24ae6f8c6" x="292.942404" y="26.877187" style="fill-opacity: 0; stroke: #0000ff; stroke-linejoin: bevel"/>
     <use xlink:href="#ma24ae6f8c6" x="296.947451" y="26.877187" style="fill-opacity: 0; stroke: #0000ff; stroke-linejoin: bevel"/>
     <use xlink:href="#ma24ae6f8c6" x="296.961455" y="26.877187" style="fill-opacity: 0; stroke: #0000ff; stroke-linejoin: bevel"/>
     <use xlink:href="#ma24ae6f8c6" x="296.984117" y="26.877187" style="fill-opacity: 0; stroke: #0000ff; stroke-linejoin: bevel"/>
     <use xlink:href="#ma24ae6f8c6" x="296.989901" y="26.877187" style="fill-opacity: 0; stroke: #0000ff; stroke-linejoin: bevel"/>
     <use xlink:href="#ma24ae6f8c6" x="297.020195" y="26.877187" style="fill-opacity: 0; stroke: #0000ff; stroke-linejoin: bevel"/>
     <use xlink:href="#ma24ae6f8c6" x="297.041948" y="26.877187" style="fill-opacity: 0; stroke: #0000ff; stroke-linejoin: bevel"/>
     <use xlink:href="#ma24ae6f8c6" x="297.049255" y="26.877187" style="fill-opacity: 0; stroke: #0000ff; stroke-linejoin: bevel"/>
    </g>
   </g>
   <g id="line2d_27">
    <defs>
     <path id="ma4d753d6d7" d="M 0 7 
C 1.856422 7 3.637059 6.262436 4.949747 4.949747 
C 6.262436 3.637059 7 1.856422 7 0 
C 7 -1.856422 6.262436 -3.637059 4.949747 -4.949747 
C 3.637059 -6.262436 1.856422 -7 0 -7 
C -1.856422 -7 -3.637059 -6.262436 -4.949747 -4.949747 
C -6.262436 -3.637059 -7 -1.856422 -7 0 
C -7 1.856422 -6.262436 3.637059 -4.949747 4.949747 
C -3.637059 6.262436 -1.856422 7 0 7 
z
" style="stroke: #000000; stroke-width: 3"/>
    </defs>
    <g>
     <use xlink:href="#ma4d753d6d7" x="45.469063" y="301.237187" style="fill-opacity: 0; stroke: #000000; stroke-width: 3"/>
     <use xlink:href="#ma4d753d6d7" x="216.959268" y="149.747789" style="fill-opacity: 0; stroke: #000000; stroke-width: 3"/>
     <use xlink:href="#ma4d753d6d7" x="219.406849" y="149.191446" style="fill-opacity: 0; stroke: #000000; stroke-width: 3"/>
     <use xlink:href="#ma4d753d6d7" x="230.292394" y="148.127673" style="fill-opacity: 0; stroke: #000000; stroke-width: 3"/>
     <use xlink:href="#ma4d753d6d7" x="235.430378" y="144.918143" style="fill-opacity: 0; stroke: #000000; stroke-width: 3"/>
    </g>
   </g>
   <g id="line2d_28">
    <defs>
     <path id="meb6f27239b" d="M 0 4 
C 1.060812 4 2.078319 3.578535 2.828427 2.828427 
C 3.578535 2.078319 4 1.060812 4 0 
C 4 -1.060812 3.578535 -2.078319 2.828427 -2.828427 
C 2.078319 -3.578535 1.060812 -4 0 -4 
C -1.060812 -4 -2.078319 -3.578535 -2.828427 -2.828427 
C -3.578535 -2.078319 -4 -1.060812 -4 0 
C -4 1.060812 -3.578535 2.078319 -2.828427 2.828427 
C -2.078319 3.578535 -1.060812 4 0 4 
z
" style="stroke: #000000"/>
    </defs>
    <g>
     <use xlink:href="#meb6f27239b" x="293.761421" y="116.358255" style="fill-opacity: 0; stroke: #000000"/>
    </g>
   </g>
   <g id="line2d_29">
    <g>
     <use xlink:href="#meb6f27239b" x="319.829063" y="26.877187" style="fill-opacity: 0; stroke: #000000"/>
     <use xlink:href="#meb6f27239b" x="319.829063" y="26.877187" style="fill-opacity: 0; stroke: #000000"/>
     <use xlink:href="#meb6f27239b" x="319.829063" y="26.877187" style="fill-opacity: 0; stroke: #000000"/>
     <use xlink:href="#meb6f27239b" x="319.829063" y="26.877187" style="fill-opacity: 0; stroke: #000000"/>
     <use xlink:href="#meb6f27239b" x="319.829063" y="26.877187" style="fill-opacity: 0; stroke: #000000"/>
     <use xlink:href="#meb6f27239b" x="319.829063" y="26.877187" style="fill-opacity: 0; stroke: #000000"/>
     <use xlink:href="#meb6f27239b" x="319.829063" y="26.877187" style="fill-opacity: 0; stroke: #000000"/>
     <use xlink:href="#meb6f27239b" x="319.829063" y="26.877187" style="fill-opacity: 0; stroke: #000000"/>
     <use xlink:href="#meb6f27239b" x="319.829063" y="26.877187" style="fill-opacity: 0; stroke: #000000"/>
     <use xlink:href="#meb6f27239b" x="319.829063" y="26.877187" style="fill-opacity: 0; stroke: #000000"/>
     <use xlink:href="#meb6f27239b" x="319.829063" y="26.877187" style="fill-opacity: 0; stroke: #000000"/>
     <use xlink:href="#meb6f27239b" x="319.829063" y="26.877187" style="fill-opacity: 0; stroke: #000000"/>
     <use xlink:href="#meb6f27239b" x="319.829063" y="26.877187" style="fill-opacity: 0; stroke: #000000"/>
     <use xlink:href="#meb6f27239b" x="319.829063" y="26.877187" style="fill-opacity: 0; stroke: #000000"/>
     <use xlink:href="#meb6f27239b" x="319.829063" y="26.877187" style="fill-opacity: 0; stroke: #000000"/>
     <use xlink:href="#meb6f27239b" x="319.829063" y="26.877187" style="fill-opacity: 0; stroke: #000000"/>
    </g>
   </g>
   <g id="line2d_30">
    <defs>
     <path id="m2794513085" d="M -7 7 
L 7 7 
L 7 -7 
L -7 -7 
z
" style="stroke: #ff0000; stroke-width: 3; stroke-linejoin: miter"/>
    </defs>
    <g>
     <use xlink:href="#m2794513085" x="45.469063" y="301.237187" style="fill-opacity: 0; stroke: #ff0000; stroke-width: 3; stroke-linejoin: miter"/>
     <use xlink:href="#m2794513085" x="235.377343" y="130.486384" style="fill-opacity: 0; stroke: #ff0000; stroke-width: 3; stroke-linejoin: miter"/>
     <use xlink:href="#m2794513085" x="242.548662" y="121.437826" style="fill-opacity: 0; stroke: #ff0000; stroke-width: 3; stroke-linejoin: miter"/>
     <use xlink:href="#m2794513085" x="252.962544" y="121.121764" style="fill-opacity: 0; stroke: #ff0000; stroke-width: 3; stroke-linejoin: miter"/>
     <use xlink:href="#m2794513085" x="265.977493" y="115.694162" style="fill-opacity: 0; stroke: #ff0000; stroke-width: 3; stroke-linejoin: miter"/>
    </g>
   </g>
   <g id="line2d_31">
    <defs>
     <path id="m1cfa1fcedc" d="M -4 4 
L 4 4 
L 4 -4 
L -4 -4 
z
" style="stroke: #ff0000; stroke-linejoin: miter"/>
    </defs>
    <g>
     <use xlink:href="#m1cfa1fcedc" x="306.764301" y="51.408944" style="fill-opacity: 0; stroke: #ff0000; stroke-linejoin: miter"/>
    </g>
   </g>
   <g id="line2d_32">
    <g>
     <use xlink:href="#m1cfa1fcedc" x="319.829063" y="26.877187" style="fill-opacity: 0; stroke: #ff0000; stroke-linejoin: miter"/>
     <use xlink:href="#m1cfa1fcedc" x="319.829063" y="26.877187" style="fill-opacity: 0; stroke: #ff0000; stroke-linejoin: miter"/>
     <use xlink:href="#m1cfa1fcedc" x="319.829063" y="26.877187" style="fill-opacity: 0; stroke: #ff0000; stroke-linejoin: miter"/>
     <use xlink:href="#m1cfa1fcedc" x="319.829063" y="26.877187" style="fill-opacity: 0; stroke: #ff0000; stroke-linejoin: miter"/>
     <use xlink:href="#m1cfa1fcedc" x="319.829063" y="26.877187" style="fill-opacity: 0; stroke: #ff0000; stroke-linejoin: miter"/>
     <use xlink:href="#m1cfa1fcedc" x="319.829063" y="26.877187" style="fill-opacity: 0; stroke: #ff0000; stroke-linejoin: miter"/>
     <use xlink:href="#m1cfa1fcedc" x="319.829063" y="26.877187" style="fill-opacity: 0; stroke: #ff0000; stroke-linejoin: miter"/>
     <use xlink:href="#m1cfa1fcedc" x="319.829063" y="26.877187" style="fill-opacity: 0; stroke: #ff0000; stroke-linejoin: miter"/>
     <use xlink:href="#m1cfa1fcedc" x="319.829063" y="26.877187" style="fill-opacity: 0; stroke: #ff0000; stroke-linejoin: miter"/>
     <use xlink:href="#m1cfa1fcedc" x="319.829063" y="26.877187" style="fill-opacity: 0; stroke: #ff0000; stroke-linejoin: miter"/>
     <use xlink:href="#m1cfa1fcedc" x="319.829063" y="26.877187" style="fill-opacity: 0; stroke: #ff0000; stroke-linejoin: miter"/>
     <use xlink:href="#m1cfa1fcedc" x="319.829063" y="26.877187" style="fill-opacity: 0; stroke: #ff0000; stroke-linejoin: miter"/>
     <use xlink:href="#m1cfa1fcedc" x="319.829063" y="26.877187" style="fill-opacity: 0; stroke: #ff0000; stroke-linejoin: miter"/>
     <use xlink:href="#m1cfa1fcedc" x="319.829063" y="26.877187" style="fill-opacity: 0; stroke: #ff0000; stroke-linejoin: miter"/>
     <use xlink:href="#m1cfa1fcedc" x="319.829063" y="26.877187" style="fill-opacity: 0; stroke: #ff0000; stroke-linejoin: miter"/>
     <use xlink:href="#m1cfa1fcedc" x="319.829063" y="26.877187" style="fill-opacity: 0; stroke: #ff0000; stroke-linejoin: miter"/>
    </g>
   </g>
   <g id="line2d_33">
    <path d="M 45.469063 301.237187 
L 319.829063 26.877187 
" clip-path="url(#p05c155ea46)" style="fill: none; stroke: #000000; stroke-width: 1.5; stroke-linecap: square"/>
   </g>
   <g id="line2d_34">
    <path d="M 86.652464 301.237187 
L 332.029063 55.860589 
" clip-path="url(#p05c155ea46)" style="fill: none; stroke: #d3d3d3; stroke-linecap: square"/>
   </g>
   <g id="line2d_35">
    <path d="M 127.835865 301.237187 
L 332.029063 97.04399 
" clip-path="url(#p05c155ea46)" style="fill: none; stroke: #d3d3d3; stroke-linecap: square"/>
   </g>
   <g id="line2d_36">
    <path d="M 45.469063 260.053786 
L 306.522849 -1 
" clip-path="url(#p05c155ea46)" style="fill: none; stroke: #d3d3d3; stroke-linecap: square"/>
   </g>
   <g id="line2d_37">
    <path d="M 45.469063 218.870385 
L 265.339447 -1 
" clip-path="url(#p05c155ea46)" style="fill: none; stroke: #d3d3d3; stroke-linecap: square"/>
   </g>
   <g id="patch_3">
    <path d="M 45.469063 301.237187 
L 45.469063 26.877187 
" style="fill: none; stroke: #000000; stroke-width: 0.8; stroke-linejoin: miter; stroke-linecap: square"/>
   </g>
   <g id="patch_4">
    <path d="M 319.829063 301.237187 
L 319.829063 26.877187 
" style="fill: none; stroke: #000000; stroke-width: 0.8; stroke-linejoin: miter; stroke-linecap: square"/>
   </g>
   <g id="patch_5">
    <path d="M 45.469063 301.237187 
L 319.829063 301.237187 
" style="fill: none; stroke: #000000; stroke-width: 0.8; stroke-linejoin: miter; stroke-linecap: square"/>
   </g>
   <g id="patch_6">
    <path d="M 45.469063 26.877187 
L 319.829063 26.877187 
" style="fill: none; stroke: #000000; stroke-width: 0.8; stroke-linejoin: miter; stroke-linecap: square"/>
   </g>
   <g id="text_9">
    <!-- 22 targets: 3e21..1e-8 -->
    <g transform="translate(48.212663 40.114794) scale(0.102 -0.102)">
     <defs>
      <path id="DejaVuSans-74" d="M 1172 4494 
L 1172 3500 
L 2356 3500 
L 2356 3053 
L 1172 3053 
L 1172 1153 
Q 1172 725 1289 603 
Q 1406 481 1766 481 
L 2356 481 
L 2356 0 
L 1766 0 
Q 1100 0 847 248 
Q 594 497 594 1153 
L 594 3053 
L 172 3053 
L 172 3500 
L 594 3500 
L 594 4494 
L 1172 4494 
z
" transform="scale(0.015625)"/>
      <path id="DejaVuSans-61" d="M 2194 1759 
Q 1497 1759 1228 1600 
Q 959 1441 959 1056 
Q 959 750 1161 570 
Q 1363 391 1709 391 
Q 2188 391 2477 730 
Q 2766 1069 2766 1631 
L 2766 1759 
L 2194 1759 
z
M 3341 1997 
L 3341 0 
L 2766 0 
L 2766 531 
Q 2569 213 2275 61 
Q 1981 -91 1556 -91 
Q 1019 -91 701 211 
Q 384 513 384 1019 
Q 384 1609 779 1909 
Q 1175 2209 1959 2209 
L 2766 2209 
L 2766 2266 
Q 2766 2663 2505 2880 
Q 2244 3097 1772 3097 
Q 1472 3097 1187 3025 
Q 903 2953 641 2809 
L 641 3341 
Q 956 3463 1253 3523 
Q 1550 3584 1831 3584 
Q 2591 3584 2966 3190 
Q 3341 2797 3341 1997 
z
" transform="scale(0.015625)"/>
      <path id="DejaVuSans-72" d="M 2631 2963 
Q 2534 3019 2420 3045 
Q 2306 3072 2169 3072 
Q 1681 3072 1420 2755 
Q 1159 2438 1159 1844 
L 1159 0 
L 581 0 
L 581 3500 
L 1159 3500 
L 1159 2956 
Q 1341 3275 1631 3429 
Q 1922 3584 2338 3584 
Q 2397 3584 2469 3576 
Q 2541 3569 2628 3553 
L 2631 2963 
z
" transform="scale(0.015625)"/>
      <path id="DejaVuSans-65" d="M 3597 1894 
L 3597 1613 
L 953 1613 
Q 991 1019 1311 708 
Q 1631 397 2203 397 
Q 2534 397 2845 478 
Q 3156 559 3463 722 
L 3463 178 
Q 3153 47 2828 -22 
Q 2503 -91 2169 -91 
Q 1331 -91 842 396 
Q 353 884 353 1716 
Q 353 2575 817 3079 
Q 1281 3584 2069 3584 
Q 2775 3584 3186 3129 
Q 3597 2675 3597 1894 
z
M 3022 2063 
Q 3016 2534 2758 2815 
Q 2500 3097 2075 3097 
Q 1594 3097 1305 2825 
Q 1016 2553 972 2059 
L 3022 2063 
z
" transform="scale(0.015625)"/>
      <path id="DejaVuSans-73" d="M 2834 3397 
L 2834 2853 
Q 2591 2978 2328 3040 
Q 2066 3103 1784 3103 
Q 1356 3103 1142 2972 
Q 928 2841 928 2578 
Q 928 2378 1081 2264 
Q 1234 2150 1697 2047 
L 1894 2003 
Q 2506 1872 2764 1633 
Q 3022 1394 3022 966 
Q 3022 478 2636 193 
Q 2250 -91 1575 -91 
Q 1294 -91 989 -36 
Q 684 19 347 128 
L 347 722 
Q 666 556 975 473 
Q 1284 391 1588 391 
Q 1994 391 2212 530 
Q 2431 669 2431 922 
Q 2431 1156 2273 1281 
Q 2116 1406 1581 1522 
L 1381 1569 
Q 847 1681 609 1914 
Q 372 2147 372 2553 
Q 372 3047 722 3315 
Q 1072 3584 1716 3584 
Q 2034 3584 2315 3537 
Q 2597 3491 2834 3397 
z
" transform="scale(0.015625)"/>
      <path id="DejaVuSans-3a" d="M 750 794 
L 1409 794 
L 1409 0 
L 750 0 
L 750 794 
z
M 750 3309 
L 1409 3309 
L 1409 2516 
L 750 2516 
L 750 3309 
z
" transform="scale(0.015625)"/>
      <path id="DejaVuSans-33" d="M 2597 2516 
Q 3050 2419 3304 2112 
Q 3559 1806 3559 1356 
Q 3559 666 3084 287 
Q 2609 -91 1734 -91 
Q 1441 -91 1130 -33 
Q 819 25 488 141 
L 488 750 
Q 750 597 1062 519 
Q 1375 441 1716 441 
Q 2309 441 2620 675 
Q 2931 909 2931 1356 
Q 2931 1769 2642 2001 
Q 2353 2234 1838 2234 
L 1294 2234 
L 1294 2753 
L 1863 2753 
Q 2328 2753 2575 2939 
Q 2822 3125 2822 3475 
Q 2822 3834 2567 4026 
Q 2313 4219 1838 4219 
Q 1578 4219 1281 4162 
Q 984 4106 628 3988 
L 628 4550 
Q 988 4650 1302 4700 
Q 1616 4750 1894 4750 
Q 2613 4750 3031 4423 
Q 3450 4097 3450 3541 
Q 3450 3153 3228 2886 
Q 3006 2619 2597 2516 
z
" transform="scale(0.015625)"/>
      <path id="DejaVuSans-2e" d="M 684 794 
L 1344 794 
L 1344 0 
L 684 0 
L 684 794 
z
" transform="scale(0.015625)"/>
      <path id="DejaVuSans-38" d="M 2034 2216 
Q 1584 2216 1326 1975 
Q 1069 1734 1069 1313 
Q 1069 891 1326 650 
Q 1584 409 2034 409 
Q 2484 409 2743 651 
Q 3003 894 3003 1313 
Q 3003 1734 2745 1975 
Q 2488 2216 2034 2216 
z
M 1403 2484 
Q 997 2584 770 2862 
Q 544 3141 544 3541 
Q 544 4100 942 4425 
Q 1341 4750 2034 4750 
Q 2731 4750 3128 4425 
Q 3525 4100 3525 3541 
Q 3525 3141 3298 2862 
Q 3072 2584 2669 2484 
Q 3125 2378 3379 2068 
Q 3634 1759 3634 1313 
Q 3634 634 3220 271 
Q 2806 -91 2034 -91 
Q 1263 -91 848 271 
Q 434 634 434 1313 
Q 434 1759 690 2068 
Q 947 2378 1403 2484 
z
M 1172 3481 
Q 1172 3119 1398 2916 
Q 1625 2713 2034 2713 
Q 2441 2713 2670 2916 
Q 2900 3119 2900 3481 
Q 2900 3844 2670 4047 
Q 2441 4250 2034 4250 
Q 1625 4250 1398 4047 
Q 1172 3844 1172 3481 
z
" transform="scale(0.015625)"/>
     </defs>
     <use xlink:href="#DejaVuSans-32"/>
     <use xlink:href="#DejaVuSans-32" x="63.623047"/>
     <use xlink:href="#DejaVuSans-20" x="127.246094"/>
     <use xlink:href="#DejaVuSans-74" x="159.033203"/>
     <use xlink:href="#DejaVuSans-61" x="198.242188"/>
     <use xlink:href="#DejaVuSans-72" x="259.521484"/>
     <use xlink:href="#DejaVuSans-67" x="298.884766"/>
     <use xlink:href="#DejaVuSans-65" x="362.361328"/>
     <use xlink:href="#DejaVuSans-74" x="423.884766"/>
     <use xlink:href="#DejaVuSans-73" x="463.09375"/>
     <use xlink:href="#DejaVuSans-3a" x="515.193359"/>
     <use xlink:href="#DejaVuSans-20" x="548.884766"/>
     <use xlink:href="#DejaVuSans-33" x="580.671875"/>
     <use xlink:href="#DejaVuSans-65" x="644.294922"/>
     <use xlink:href="#DejaVuSans-32" x="705.818359"/>
     <use xlink:href="#DejaVuSans-31" x="769.441406"/>
     <use xlink:href="#DejaVuSans-2e" x="833.064453"/>
     <use xlink:href="#DejaVuSans-2e" x="864.851562"/>
     <use xlink:href="#DejaVuSans-31" x="896.638672"/>
     <use xlink:href="#DejaVuSans-65" x="960.261719"/>
     <use xlink:href="#DejaVuSans-2d" x="1021.785156"/>
     <use xlink:href="#DejaVuSans-38" x="1057.869141"/>
    </g>
    <!-- 15 and 15 instances -->
    <g transform="translate(48.212663 51.536562) scale(0.102 -0.102)">
     <defs>
      <path id="DejaVuSans-35" d="M 691 4666 
L 3169 4666 
L 3169 4134 
L 1269 4134 
L 1269 2991 
Q 1406 3038 1543 3061 
Q 1681 3084 1819 3084 
Q 2600 3084 3056 2656 
Q 3513 2228 3513 1497 
Q 3513 744 3044 326 
Q 2575 -91 1722 -91 
Q 1428 -91 1123 -41 
Q 819 9 494 109 
L 494 744 
Q 775 591 1075 516 
Q 1375 441 1709 441 
Q 2250 441 2565 725 
Q 2881 1009 2881 1497 
Q 2881 1984 2565 2268 
Q 2250 2553 1709 2553 
Q 1456 2553 1204 2497 
Q 953 2441 691 2322 
L 691 4666 
z
" transform="scale(0.015625)"/>
      <path id="DejaVuSans-6e" d="M 3513 2113 
L 3513 0 
L 2938 0 
L 2938 2094 
Q 2938 2591 2744 2837 
Q 2550 3084 2163 3084 
Q 1697 3084 1428 2787 
Q 1159 2491 1159 1978 
L 1159 0 
L 581 0 
L 581 3500 
L 1159 3500 
L 1159 2956 
Q 1366 3272 1645 3428 
Q 1925 3584 2291 3584 
Q 2894 3584 3203 3211 
Q 3513 2838 3513 2113 
z
" transform="scale(0.015625)"/>
      <path id="DejaVuSans-64" d="M 2906 2969 
L 2906 4863 
L 3481 4863 
L 3481 0 
L 2906 0 
L 2906 525 
Q 2725 213 2448 61 
Q 2172 -91 1784 -91 
Q 1150 -91 751 415 
Q 353 922 353 1747 
Q 353 2572 751 3078 
Q 1150 3584 1784 3584 
Q 2172 3584 2448 3432 
Q 2725 3281 2906 2969 
z
M 947 1747 
Q 947 1113 1208 752 
Q 1469 391 1925 391 
Q 2381 391 2643 752 
Q 2906 1113 2906 1747 
Q 2906 2381 2643 2742 
Q 2381 3103 1925 3103 
Q 1469 3103 1208 2742 
Q 947 2381 947 1747 
z
" transform="scale(0.015625)"/>
      <path id="DejaVuSans-69" d="M 603 3500 
L 1178 3500 
L 1178 0 
L 603 0 
L 603 3500 
z
M 603 4863 
L 1178 4863 
L 1178 4134 
L 603 4134 
L 603 4863 
z
" transform="scale(0.015625)"/>
      <path id="DejaVuSans-63" d="M 3122 3366 
L 3122 2828 
Q 2878 2963 2633 3030 
Q 2388 3097 2138 3097 
Q 1578 3097 1268 2742 
Q 959 2388 959 1747 
Q 959 1106 1268 751 
Q 1578 397 2138 397 
Q 2388 397 2633 464 
Q 2878 531 3122 666 
L 3122 134 
Q 2881 22 2623 -34 
Q 2366 -91 2075 -91 
Q 1284 -91 818 406 
Q 353 903 353 1747 
Q 353 2603 823 3093 
Q 1294 3584 2113 3584 
Q 2378 3584 2631 3529 
Q 2884 3475 3122 3366 
z
" transform="scale(0.015625)"/>
     </defs>
     <use xlink:href="#DejaVuSans-31"/>
     <use xlink:href="#DejaVuSans-35" x="63.623047"/>
     <use xlink:href="#DejaVuSans-20" x="127.246094"/>
     <use xlink:href="#DejaVuSans-61" x="159.033203"/>
     <use xlink:href="#DejaVuSans-6e" x="220.3125"/>
     <use xlink:href="#DejaVuSans-64" x="283.691406"/>
     <use xlink:href="#DejaVuSans-20" x="347.167969"/>
     <use xlink:href="#DejaVuSans-31" x="378.955078"/>
     <use xlink:href="#DejaVuSans-35" x="442.578125"/>
     <use xlink:href="#DejaVuSans-20" x="506.201172"/>
     <use xlink:href="#DejaVuSans-69" x="537.988281"/>
     <use xlink:href="#DejaVuSans-6e" x="565.771484"/>
     <use xlink:href="#DejaVuSans-73" x="629.150391"/>
     <use xlink:href="#DejaVuSans-74" x="681.25"/>
     <use xlink:href="#DejaVuSans-61" x="720.458984"/>
     <use xlink:href="#DejaVuSans-6e" x="781.738281"/>
     <use xlink:href="#DejaVuSans-63" x="845.117188"/>
     <use xlink:href="#DejaVuSans-65" x="900.097656"/>
     <use xlink:href="#DejaVuSans-73" x="961.621094"/>
    </g>
   </g>
   <g id="text_10">
    <!-- v2.6.3 -->
    <g style="fill: #808080" transform="translate(166.967813 296.4139) scale(0.1 -0.1)">
     <defs>
      <path id="DejaVuSans-76" d="M 191 3500 
L 800 3500 
L 1894 563 
L 2988 3500 
L 3597 3500 
L 2284 0 
L 1503 0 
L 191 3500 
z
" transform="scale(0.015625)"/>
     </defs>
     <use xlink:href="#DejaVuSans-76"/>
     <use xlink:href="#DejaVuSans-32" x="59.179688"/>
     <use xlink:href="#DejaVuSans-2e" x="122.802734"/>
     <use xlink:href="#DejaVuSans-36" x="154.589844"/>
     <use xlink:href="#DejaVuSans-2e" x="218.212891"/>
     <use xlink:href="#DejaVuSans-33" x="250"/>
    </g>
   </g>
   <g id="text_11">
    <!-- 8 Rosenbrock original -->
    <g transform="translate(85.398438 20.877187) scale(0.18 -0.18)">
     <defs>
      <path id="DejaVuSans-62" d="M 3116 1747 
Q 3116 2381 2855 2742 
Q 2594 3103 2138 3103 
Q 1681 3103 1420 2742 
Q 1159 2381 1159 1747 
Q 1159 1113 1420 752 
Q 1681 391 2138 391 
Q 2594 391 2855 752 
Q 3116 1113 3116 1747 
z
M 1159 2969 
Q 1341 3281 1617 3432 
Q 1894 3584 2278 3584 
Q 2916 3584 3314 3078 
Q 3713 2572 3713 1747 
Q 3713 922 3314 415 
Q 2916 -91 2278 -91 
Q 1894 -91 1617 61 
Q 1341 213 1159 525 
L 1159 0 
L 581 0 
L 581 4863 
L 1159 4863 
L 1159 2969 
z
" transform="scale(0.015625)"/>
      <path id="DejaVuSans-6b" d="M 581 4863 
L 1159 4863 
L 1159 1991 
L 2875 3500 
L 3609 3500 
L 1753 1863 
L 3688 0 
L 2938 0 
L 1159 1709 
L 1159 0 
L 581 0 
L 581 4863 
z
" transform="scale(0.015625)"/>
     </defs>
     <use xlink:href="#DejaVuSans-38"/>
     <use xlink:href="#DejaVuSans-20" x="63.623047"/>
     <use xlink:href="#DejaVuSans-52" x="95.410156"/>
     <use xlink:href="#DejaVuSans-6f" x="160.392578"/>
     <use xlink:href="#DejaVuSans-73" x="221.574219"/>
     <use xlink:href="#DejaVuSans-65" x="273.673828"/>
     <use xlink:href="#DejaVuSans-6e" x="335.197266"/>
     <use xlink:href="#DejaVuSans-62" x="398.576172"/>
     <use xlink:href="#DejaVuSans-72" x="462.052734"/>
     <use xlink:href="#DejaVuSans-6f" x="500.916016"/>
     <use xlink:href="#DejaVuSans-63" x="562.097656"/>
     <use xlink:href="#DejaVuSans-6b" x="617.078125"/>
     <use xlink:href="#DejaVuSans-20" x="674.988281"/>
     <use xlink:href="#DejaVuSans-6f" x="706.775391"/>
     <use xlink:href="#DejaVuSans-72" x="767.957031"/>
     <use xlink:href="#DejaVuSans-69" x="809.070312"/>
     <use xlink:href="#DejaVuSans-67" x="836.853516"/>
     <use xlink:href="#DejaVuSans-69" x="900.330078"/>
     <use xlink:href="#DejaVuSans-6e" x="928.113281"/>
     <use xlink:href="#DejaVuSans-61" x="991.492188"/>
     <use xlink:href="#DejaVuSans-6c" x="1052.771484"/>
    </g>
   </g>
  </g>
 </g>
 <defs>
  <clipPath id="p05c155ea46">
   <rect x="45.469063" y="26.877187" width="274.36" height="274.36"/>
  </clipPath>
 </defs>
</svg>
