<?xml version="1.0" encoding="utf-8" standalone="no"?>
<!DOCTYPE svg PUBLIC "-//W3C//DTD SVG 1.1//EN"
  "http://www.w3.org/Graphics/SVG/1.1/DTD/svg11.dtd">
<svg xmlns:xlink="http://www.w3.org/1999/xlink" width="460.8pt" height="345.6pt" viewBox="0 0 460.8 345.6" xmlns="http://www.w3.org/2000/svg" version="1.1">
 <metadata>
  <rdf:RDF xmlns:dc="http://purl.org/dc/elements/1.1/" xmlns:cc="http://creativecommons.org/ns#" xmlns:rdf="http://www.w3.org/1999/02/22-rdf-syntax-ns#">
   <cc:Work>
    <dc:type rdf:resource="http://purl.org/dc/dcmitype/StillImage"/>
    <dc:date>2024-06-07T14:20:34.120890</dc:date>
    <dc:format>image/svg+xml</dc:format>
    <dc:creator>
     <cc:Agent>
      <dc:title>Matplotlib v3.7.1, https://matplotlib.org/</dc:title>
     </cc:Agent>
    </dc:creator>
   </cc:Work>
  </rdf:RDF>
 </metadata>
 <defs>
  <style type="text/css">*{stroke-linejoin: round; stroke-linecap: butt}</style>
 </defs>
 <g id="figure_1">
  <g id="patch_1">
   <path d="M 0 345.6 
L 460.8 345.6 
L 460.8 0 
L 0 0 
z
" style="fill: #ffffff"/>
  </g>
  <g id="axes_1">
   <g id="patch_2">
    <path d="M 34.16 291.28 
L 453.192 291.28 
L 453.192 3 
L 34.16 3 
z
" style="fill: #ffffff"/>
   </g>
   <g id="matplotlib.axis_1">
    <g id="xtick_1">
     <g id="line2d_1">
      <path d="M 109.5363 291.28 
L 109.5363 3 
" clip-path="url(#pfe1be7081f)" style="fill: none; stroke: #b0b0b0; stroke-width: 0.8; stroke-linecap: square"/>
     </g>
     <g id="line2d_2">
      <defs>
       <path id="m2484aea850" d="M 0 0 
L 0 3.5 
" style="stroke: #000000; stroke-width: 0.8"/>
      </defs>
      <g>
       <use xlink:href="#m2484aea850" x="109.5363" y="291.28" style="stroke: #000000; stroke-width: 0.8"/>
      </g>
     </g>
     <g id="text_1">
      <!-- -2 -->
      <g transform="translate(99.565987 313.476875) scale(0.2 -0.2)">
       <defs>
        <path id="DejaVuSans-2d" d="M 313 2009 
L 1997 2009 
L 1997 1497 
L 313 1497 
L 313 2009 
z
" transform="scale(0.015625)"/>
        <path id="DejaVuSans-32" d="M 1228 531 
L 3431 531 
L 3431 0 
L 469 0 
L 469 531 
Q 828 903 1448 1529 
Q 2069 2156 2228 2338 
Q 2531 2678 2651 2914 
Q 2772 3150 2772 3378 
Q 2772 3750 2511 3984 
Q 2250 4219 1831 4219 
Q 1534 4219 1204 4116 
Q 875 4013 500 3803 
L 500 4441 
Q 881 4594 1212 4672 
Q 1544 4750 1819 4750 
Q 2544 4750 2975 4387 
Q 3406 4025 3406 3419 
Q 3406 3131 3298 2873 
Q 3191 2616 2906 2266 
Q 2828 2175 2409 1742 
Q 1991 1309 1228 531 
z
" transform="scale(0.015625)"/>
       </defs>
       <use xlink:href="#DejaVuSans-2d"/>
       <use xlink:href="#DejaVuSans-32" x="36.083984"/>
      </g>
     </g>
    </g>
    <g id="xtick_2">
     <g id="line2d_3">
      <path d="M 243.676 291.28 
L 243.676 3 
" clip-path="url(#pfe1be7081f)" style="fill: none; stroke: #b0b0b0; stroke-width: 0.8; stroke-linecap: square"/>
     </g>
     <g id="line2d_4">
      <g>
       <use xlink:href="#m2484aea850" x="243.676" y="291.28" style="stroke: #000000; stroke-width: 0.8"/>
      </g>
     </g>
     <g id="text_2">
      <!-- 0 -->
      <g transform="translate(237.3135 313.476875) scale(0.2 -0.2)">
       <defs>
        <path id="DejaVuSans-30" d="M 2034 4250 
Q 1547 4250 1301 3770 
Q 1056 3291 1056 2328 
Q 1056 1369 1301 889 
Q 1547 409 2034 409 
Q 2525 409 2770 889 
Q 3016 1369 3016 2328 
Q 3016 3291 2770 3770 
Q 2525 4250 2034 4250 
z
M 2034 4750 
Q 2819 4750 3233 4129 
Q 3647 3509 3647 2328 
Q 3647 1150 3233 529 
Q 2819 -91 2034 -91 
Q 1250 -91 836 529 
Q 422 1150 422 2328 
Q 422 3509 836 4129 
Q 1250 4750 2034 4750 
z
" transform="scale(0.015625)"/>
       </defs>
       <use xlink:href="#DejaVuSans-30"/>
      </g>
     </g>
    </g>
    <g id="xtick_3">
     <g id="line2d_5">
      <path d="M 377.8157 291.28 
L 377.8157 3 
" clip-path="url(#pfe1be7081f)" style="fill: none; stroke: #b0b0b0; stroke-width: 0.8; stroke-linecap: square"/>
     </g>
     <g id="line2d_6">
      <g>
       <use xlink:href="#m2484aea850" x="377.8157" y="291.28" style="stroke: #000000; stroke-width: 0.8"/>
      </g>
     </g>
     <g id="text_3">
      <!-- 2 -->
      <g transform="translate(371.4532 313.476875) scale(0.2 -0.2)">
       <use xlink:href="#DejaVuSans-32"/>
      </g>
     </g>
    </g>
    <g id="text_4">
     <!-- log10 of FEvals ratio -->
     <g transform="translate(141.371312 336.833125) scale(0.2 -0.2)">
      <defs>
       <path id="DejaVuSans-6c" d="M 603 4863 
L 1178 4863 
L 1178 0 
L 603 0 
L 603 4863 
z
" transform="scale(0.015625)"/>
       <path id="DejaVuSans-6f" d="M 1959 3097 
Q 1497 3097 1228 2736 
Q 959 2375 959 1747 
Q 959 1119 1226 758 
Q 1494 397 1959 397 
Q 2419 397 2687 759 
Q 2956 1122 2956 1747 
Q 2956 2369 2687 2733 
Q 2419 3097 1959 3097 
z
M 1959 3584 
Q 2709 3584 3137 3096 
Q 3566 2609 3566 1747 
Q 3566 888 3137 398 
Q 2709 -91 1959 -91 
Q 1206 -91 779 398 
Q 353 888 353 1747 
Q 353 2609 779 3096 
Q 1206 3584 1959 3584 
z
" transform="scale(0.015625)"/>
       <path id="DejaVuSans-67" d="M 2906 1791 
Q 2906 2416 2648 2759 
Q 2391 3103 1925 3103 
Q 1463 3103 1205 2759 
Q 947 2416 947 1791 
Q 947 1169 1205 825 
Q 1463 481 1925 481 
Q 2391 481 2648 825 
Q 2906 1169 2906 1791 
z
M 3481 434 
Q 3481 -459 3084 -895 
Q 2688 -1331 1869 -1331 
Q 1566 -1331 1297 -1286 
Q 1028 -1241 775 -1147 
L 775 -588 
Q 1028 -725 1275 -790 
Q 1522 -856 1778 -856 
Q 2344 -856 2625 -561 
Q 2906 -266 2906 331 
L 2906 616 
Q 2728 306 2450 153 
Q 2172 0 1784 0 
Q 1141 0 747 490 
Q 353 981 353 1791 
Q 353 2603 747 3093 
Q 1141 3584 1784 3584 
Q 2172 3584 2450 3431 
Q 2728 3278 2906 2969 
L 2906 3500 
L 3481 3500 
L 3481 434 
z
" transform="scale(0.015625)"/>
       <path id="DejaVuSans-31" d="M 794 531 
L 1825 531 
L 1825 4091 
L 703 3866 
L 703 4441 
L 1819 4666 
L 2450 4666 
L 2450 531 
L 3481 531 
L 3481 0 
L 794 0 
L 794 531 
z
" transform="scale(0.015625)"/>
       <path id="DejaVuSans-20" transform="scale(0.015625)"/>
       <path id="DejaVuSans-66" d="M 2375 4863 
L 2375 4384 
L 1825 4384 
Q 1516 4384 1395 4259 
Q 1275 4134 1275 3809 
L 1275 3500 
L 2222 3500 
L 2222 3053 
L 1275 3053 
L 1275 0 
L 697 0 
L 697 3053 
L 147 3053 
L 147 3500 
L 697 3500 
L 697 3744 
Q 697 4328 969 4595 
Q 1241 4863 1831 4863 
L 2375 4863 
z
" transform="scale(0.015625)"/>
       <path id="DejaVuSans-46" d="M 628 4666 
L 3309 4666 
L 3309 4134 
L 1259 4134 
L 1259 2759 
L 3109 2759 
L 3109 2228 
L 1259 2228 
L 1259 0 
L 628 0 
L 628 4666 
z
" transform="scale(0.015625)"/>
       <path id="DejaVuSans-45" d="M 628 4666 
L 3578 4666 
L 3578 4134 
L 1259 4134 
L 1259 2753 
L 3481 2753 
L 3481 2222 
L 1259 2222 
L 1259 531 
L 3634 531 
L 3634 0 
L 628 0 
L 628 4666 
z
" transform="scale(0.015625)"/>
       <path id="DejaVuSans-76" d="M 191 3500 
L 800 3500 
L 1894 563 
L 2988 3500 
L 3597 3500 
L 2284 0 
L 1503 0 
L 191 3500 
z
" transform="scale(0.015625)"/>
       <path id="DejaVuSans-61" d="M 2194 1759 
Q 1497 1759 1228 1600 
Q 959 1441 959 1056 
Q 959 750 1161 570 
Q 1363 391 1709 391 
Q 2188 391 2477 730 
Q 2766 1069 2766 1631 
L 2766 1759 
L 2194 1759 
z
M 3341 1997 
L 3341 0 
L 2766 0 
L 2766 531 
Q 2569 213 2275 61 
Q 1981 -91 1556 -91 
Q 1019 -91 701 211 
Q 384 513 384 1019 
Q 384 1609 779 1909 
Q 1175 2209 1959 2209 
L 2766 2209 
L 2766 2266 
Q 2766 2663 2505 2880 
Q 2244 3097 1772 3097 
Q 1472 3097 1187 3025 
Q 903 2953 641 2809 
L 641 3341 
Q 956 3463 1253 3523 
Q 1550 3584 1831 3584 
Q 2591 3584 2966 3190 
Q 3341 2797 3341 1997 
z
" transform="scale(0.015625)"/>
       <path id="DejaVuSans-73" d="M 2834 3397 
L 2834 2853 
Q 2591 2978 2328 3040 
Q 2066 3103 1784 3103 
Q 1356 3103 1142 2972 
Q 928 2841 928 2578 
Q 928 2378 1081 2264 
Q 1234 2150 1697 2047 
L 1894 2003 
Q 2506 1872 2764 1633 
Q 3022 1394 3022 966 
Q 3022 478 2636 193 
Q 2250 -91 1575 -91 
Q 1294 -91 989 -36 
Q 684 19 347 128 
L 347 722 
Q 666 556 975 473 
Q 1284 391 1588 391 
Q 1994 391 2212 530 
Q 2431 669 2431 922 
Q 2431 1156 2273 1281 
Q 2116 1406 1581 1522 
L 1381 1569 
Q 847 1681 609 1914 
Q 372 2147 372 2553 
Q 372 3047 722 3315 
Q 1072 3584 1716 3584 
Q 2034 3584 2315 3537 
Q 2597 3491 2834 3397 
z
" transform="scale(0.015625)"/>
       <path id="DejaVuSans-72" d="M 2631 2963 
Q 2534 3019 2420 3045 
Q 2306 3072 2169 3072 
Q 1681 3072 1420 2755 
Q 1159 2438 1159 1844 
L 1159 0 
L 581 0 
L 581 3500 
L 1159 3500 
L 1159 2956 
Q 1341 3275 1631 3429 
Q 1922 3584 2338 3584 
Q 2397 3584 2469 3576 
Q 2541 3569 2628 3553 
L 2631 2963 
z
" transform="scale(0.015625)"/>
       <path id="DejaVuSans-74" d="M 1172 4494 
L 1172 3500 
L 2356 3500 
L 2356 3053 
L 1172 3053 
L 1172 1153 
Q 1172 725 1289 603 
Q 1406 481 1766 481 
L 2356 481 
L 2356 0 
L 1766 0 
Q 1100 0 847 248 
Q 594 497 594 1153 
L 594 3053 
L 172 3053 
L 172 3500 
L 594 3500 
L 594 4494 
L 1172 4494 
z
" transform="scale(0.015625)"/>
       <path id="DejaVuSans-69" d="M 603 3500 
L 1178 3500 
L 1178 0 
L 603 0 
L 603 3500 
z
M 603 4863 
L 1178 4863 
L 1178 4134 
L 603 4134 
L 603 4863 
z
" transform="scale(0.015625)"/>
      </defs>
      <use xlink:href="#DejaVuSans-6c"/>
      <use xlink:href="#DejaVuSans-6f" x="27.783203"/>
      <use xlink:href="#DejaVuSans-67" x="88.964844"/>
      <use xlink:href="#DejaVuSans-31" x="152.441406"/>
      <use xlink:href="#DejaVuSans-30" x="216.064453"/>
      <use xlink:href="#DejaVuSans-20" x="279.6875"/>
      <use xlink:href="#DejaVuSans-6f" x="311.474609"/>
      <use xlink:href="#DejaVuSans-66" x="372.65625"/>
      <use xlink:href="#DejaVuSans-20" x="407.861328"/>
      <use xlink:href="#DejaVuSans-46" x="439.648438"/>
      <use xlink:href="#DejaVuSans-45" x="497.167969"/>
      <use xlink:href="#DejaVuSans-76" x="560.351562"/>
      <use xlink:href="#DejaVuSans-61" x="619.53125"/>
      <use xlink:href="#DejaVuSans-6c" x="680.810547"/>
      <use xlink:href="#DejaVuSans-73" x="708.59375"/>
      <use xlink:href="#DejaVuSans-20" x="760.693359"/>
      <use xlink:href="#DejaVuSans-72" x="792.480469"/>
      <use xlink:href="#DejaVuSans-61" x="833.59375"/>
      <use xlink:href="#DejaVuSans-74" x="894.873047"/>
      <use xlink:href="#DejaVuSans-69" x="934.082031"/>
      <use xlink:href="#DejaVuSans-6f" x="961.865234"/>
     </g>
    </g>
   </g>
   <g id="matplotlib.axis_2">
    <g id="ytick_1">
     <g id="line2d_7">
      <path d="M 34.16 288.453725 
L 453.192 288.453725 
" clip-path="url(#pfe1be7081f)" style="fill: none; stroke: #b0b0b0; stroke-width: 0.8; stroke-linecap: square"/>
     </g>
     <g id="line2d_8">
      <defs>
       <path id="m830b165d73" d="M 0 0 
L -3.5 0 
" style="stroke: #000000; stroke-width: 0.8"/>
      </defs>
      <g>
       <use xlink:href="#m830b165d73" x="34.16" y="288.453725" style="stroke: #000000; stroke-width: 0.8"/>
      </g>
     </g>
    </g>
    <g id="ytick_2">
     <g id="line2d_9">
      <path d="M 34.16 217.796863 
L 453.192 217.796863 
" clip-path="url(#pfe1be7081f)" style="fill: none; stroke: #b0b0b0; stroke-width: 0.8; stroke-linecap: square"/>
     </g>
     <g id="line2d_10">
      <g>
       <use xlink:href="#m830b165d73" x="34.16" y="217.796863" style="stroke: #000000; stroke-width: 0.8"/>
      </g>
     </g>
    </g>
    <g id="ytick_3">
     <g id="line2d_11">
      <path d="M 34.16 147.14 
L 453.192 147.14 
" clip-path="url(#pfe1be7081f)" style="fill: none; stroke: #b0b0b0; stroke-width: 0.8; stroke-linecap: square"/>
     </g>
     <g id="line2d_12">
      <g>
       <use xlink:href="#m830b165d73" x="34.16" y="147.14" style="stroke: #000000; stroke-width: 0.8"/>
      </g>
     </g>
    </g>
    <g id="ytick_4">
     <g id="line2d_13">
      <path d="M 34.16 76.483137 
L 453.192 76.483137 
" clip-path="url(#pfe1be7081f)" style="fill: none; stroke: #b0b0b0; stroke-width: 0.8; stroke-linecap: square"/>
     </g>
     <g id="line2d_14">
      <g>
       <use xlink:href="#m830b165d73" x="34.16" y="76.483137" style="stroke: #000000; stroke-width: 0.8"/>
      </g>
     </g>
    </g>
    <g id="ytick_5">
     <g id="line2d_15">
      <path d="M 34.16 5.826275 
L 453.192 5.826275 
" clip-path="url(#pfe1be7081f)" style="fill: none; stroke: #b0b0b0; stroke-width: 0.8; stroke-linecap: square"/>
     </g>
     <g id="line2d_16">
      <g>
       <use xlink:href="#m830b165d73" x="34.16" y="5.826275" style="stroke: #000000; stroke-width: 0.8"/>
      </g>
     </g>
    </g>
    <g id="text_5">
     <!-- proportion of trials -->
     <g transform="translate(19.000625 240.14625) rotate(-90) scale(0.2 -0.2)">
      <defs>
       <path id="DejaVuSans-70" d="M 1159 525 
L 1159 -1331 
L 581 -1331 
L 581 3500 
L 1159 3500 
L 1159 2969 
Q 1341 3281 1617 3432 
Q 1894 3584 2278 3584 
Q 2916 3584 3314 3078 
Q 3713 2572 3713 1747 
Q 3713 922 3314 415 
Q 2916 -91 2278 -91 
Q 1894 -91 1617 61 
Q 1341 213 1159 525 
z
M 3116 1747 
Q 3116 2381 2855 2742 
Q 2594 3103 2138 3103 
Q 1681 3103 1420 2742 
Q 1159 2381 1159 1747 
Q 1159 1113 1420 752 
Q 1681 391 2138 391 
Q 2594 391 2855 752 
Q 3116 1113 3116 1747 
z
" transform="scale(0.015625)"/>
       <path id="DejaVuSans-6e" d="M 3513 2113 
L 3513 0 
L 2938 0 
L 2938 2094 
Q 2938 2591 2744 2837 
Q 2550 3084 2163 3084 
Q 1697 3084 1428 2787 
Q 1159 2491 1159 1978 
L 1159 0 
L 581 0 
L 581 3500 
L 1159 3500 
L 1159 2956 
Q 1366 3272 1645 3428 
Q 1925 3584 2291 3584 
Q 2894 3584 3203 3211 
Q 3513 2838 3513 2113 
z
" transform="scale(0.015625)"/>
      </defs>
      <use xlink:href="#DejaVuSans-70"/>
      <use xlink:href="#DejaVuSans-72" x="63.476562"/>
      <use xlink:href="#DejaVuSans-6f" x="102.339844"/>
      <use xlink:href="#DejaVuSans-70" x="163.521484"/>
      <use xlink:href="#DejaVuSans-6f" x="226.998047"/>
      <use xlink:href="#DejaVuSans-72" x="288.179688"/>
      <use xlink:href="#DejaVuSans-74" x="329.292969"/>
      <use xlink:href="#DejaVuSans-69" x="368.501953"/>
      <use xlink:href="#DejaVuSans-6f" x="396.285156"/>
      <use xlink:href="#DejaVuSans-6e" x="457.466797"/>
      <use xlink:href="#DejaVuSans-20" x="520.845703"/>
      <use xlink:href="#DejaVuSans-6f" x="552.632812"/>
      <use xlink:href="#DejaVuSans-66" x="613.814453"/>
      <use xlink:href="#DejaVuSans-20" x="649.019531"/>
      <use xlink:href="#DejaVuSans-74" x="680.806641"/>
      <use xlink:href="#DejaVuSans-72" x="720.015625"/>
      <use xlink:href="#DejaVuSans-69" x="761.128906"/>
      <use xlink:href="#DejaVuSans-61" x="788.912109"/>
      <use xlink:href="#DejaVuSans-6c" x="850.191406"/>
      <use xlink:href="#DejaVuSans-73" x="877.974609"/>
     </g>
    </g>
   </g>
   <g id="line2d_17">
    <path d="M 34.16 187.51535 
L 70.114098 187.51535 
L 70.114098 187.066735 
L 73.76741 187.066735 
L 73.76741 186.61812 
L 77.782292 186.61812 
L 77.782292 186.169505 
L 78.459625 186.169505 
L 78.514799 185.272275 
L 91.446558 185.272275 
L 91.446558 184.82366 
L 95.09987 184.82366 
L 95.09987 184.375045 
L 97.805922 184.375045 
L 97.805922 183.92643 
L 99.114753 183.92643 
L 99.114753 183.477815 
L 99.792085 183.477815 
L 99.847259 182.580585 
L 101.001239 182.580585 
L 101.001239 182.13197 
L 101.152162 182.13197 
L 101.152162 181.683355 
L 101.459234 181.683355 
L 101.459234 181.23474 
L 104.654551 181.23474 
L 104.654551 180.786125 
L 104.805474 180.786125 
L 104.805474 180.33751 
L 105.474116 180.33751 
L 105.474116 179.888895 
L 106.151449 179.888895 
L 106.206623 178.991665 
L 108.669433 178.991665 
L 108.669433 178.54305 
L 108.820356 178.54305 
L 108.820356 178.094435 
L 109.346766 178.094435 
L 109.40194 177.197205 
L 109.497689 177.197205 
L 109.552863 176.299975 
L 175.117462 176.299975 
L 175.117462 175.85136 
L 178.770773 175.85136 
L 178.770773 175.402745 
L 181.303867 175.402745 
L 181.303867 174.95413 
L 182.309441 174.95413 
L 182.309441 174.505515 
L 182.486784 174.505515 
L 182.486784 174.0569 
L 182.785656 174.0569 
L 182.785656 173.608285 
L 183.462989 173.608285 
L 183.55099 172.26244 
L 184.957179 172.26244 
L 184.957179 171.813825 
L 185.962753 171.813825 
L 185.962753 171.36521 
L 186.140096 171.36521 
L 186.140096 170.916595 
L 187.204301 170.916595 
L 187.204301 170.46798 
L 188.972062 170.46798 
L 188.972062 170.019365 
L 189.649394 170.019365 
L 189.704569 169.122135 
L 189.977636 169.122135 
L 189.977636 168.67352 
L 190.154979 168.67352 
L 190.154979 168.224905 
L 190.654968 168.224905 
L 190.710143 167.327675 
L 190.832311 167.327675 
L 190.887485 166.430445 
L 191.219184 166.430445 
L 191.219184 165.98183 
L 191.896516 165.98183 
L 191.951691 165.0846 
L 201.189366 165.0846 
L 201.189366 164.635985 
L 203.228119 164.635985 
L 203.228119 164.18737 
L 204.314818 164.18737 
L 204.314818 163.738755 
L 206.88143 163.738755 
L 206.88143 163.29014 
L 207.993004 163.29014 
L 207.993004 162.841525 
L 210.896313 162.841525 
L 210.896313 162.39291 
L 211.573645 162.39291 
L 211.646315 161.047065 
L 215.661198 161.047065 
L 215.661198 160.59845 
L 216.33853 160.59845 
L 216.428489 159.252605 
L 216.523863 159.252605 
L 216.523863 158.80399 
L 217.778873 158.80399 
L 217.778873 158.355375 
L 218.402268 158.355375 
L 218.402268 157.90676 
L 219.670971 157.90676 
L 219.752652 157.00953 
L 220.40422 157.00953 
L 220.40422 156.560915 
L 220.868422 156.560915 
L 220.962157 155.663685 
L 221.644749 155.663685 
L 221.754604 154.31784 
L 222.218806 154.31784 
L 222.312541 153.42061 
L 222.521826 153.42061 
L 222.521826 152.971995 
L 222.660344 152.971995 
L 222.660344 152.52338 
L 222.835938 152.52338 
L 222.835938 152.074765 
L 223.383759 152.074765 
L 223.383759 151.62615 
L 223.646702 151.62615 
L 223.646702 151.177535 
L 224.003632 151.177535 
L 224.110904 150.280305 
L 224.161082 150.280305 
L 224.232254 148.93446 
L 224.734143 148.93446 
L 224.809717 148.03723 
L 225.647278 148.03723 
L 225.647278 147.588615 
L 225.977411 147.588615 
L 225.977411 147.14 
L 226.134861 147.14 
L 226.134861 146.691385 
L 226.626241 146.691385 
L 226.626241 146.24277 
L 226.811669 146.24277 
L 226.811669 145.794155 
L 227.108081 145.794155 
L 227.209502 144.896925 
L 227.275871 144.896925 
L 227.369606 143.55108 
L 227.885566 143.55108 
L 227.979364 142.65385 
L 228.136813 142.65385 
L 228.136813 142.205235 
L 228.443566 142.205235 
L 228.537301 141.308005 
L 228.601015 141.308005 
L 228.69475 140.410775 
L 228.881189 140.410775 
L 228.881189 139.96216 
L 229.08186 139.96216 
L 229.08186 139.513545 
L 229.293958 139.513545 
L 229.396598 138.616315 
L 229.791208 138.616315 
L 229.791208 138.1677 
L 230.288018 138.1677 
L 230.320364 137.27047 
L 230.746982 137.27047 
L 230.746982 136.821855 
L 230.958903 136.821855 
L 230.958903 136.37324 
L 231.083812 136.37324 
L 231.116352 135.47601 
L 231.295911 135.47601 
L 231.295911 135.027395 
L 231.543163 135.027395 
L 231.641749 133.232935 
L 231.670748 133.232935 
L 231.760113 131.88709 
L 231.853848 131.88709 
L 231.900448 130.98986 
L 232.006642 130.98986 
L 232.076507 130.09263 
L 232.22615 130.09263 
L 232.22743 129.1954 
L 232.560325 129.1954 
L 232.639079 127.40094 
L 232.893547 127.40094 
L 232.925537 126.50371 
L 233.5305 126.50371 
L 233.576534 125.157865 
L 234.063351 125.157865 
L 234.063351 124.70925 
L 234.27545 124.70925 
L 234.275921 123.81202 
L 234.534104 123.81202 
L 234.534104 123.363405 
L 234.785645 123.363405 
L 234.823838 122.466175 
L 235.201959 122.466175 
L 235.201959 122.01756 
L 235.352882 122.01756 
L 235.352882 121.568945 
L 235.468632 121.568945 
L 235.468632 121.12033 
L 235.804047 121.12033 
L 235.804047 120.671715 
L 236.168019 120.671715 
L 236.168019 120.2231 
L 236.536057 120.2231 
L 236.536057 119.774485 
L 236.695467 119.774485 
L 236.797617 118.42864 
L 236.971741 118.42864 
L 237.000259 117.53141 
L 237.093994 117.53141 
L 237.129191 116.63418 
L 237.474695 116.63418 
L 237.474695 116.185565 
L 237.856324 116.185565 
L 237.950612 114.391105 
L 238.020611 114.391105 
L 238.052957 113.493875 
L 238.633599 113.493875 
L 238.633599 113.04526 
L 238.799569 113.04526 
L 238.825079 112.14803 
L 239.118306 112.14803 
L 239.118306 111.699415 
L 239.263771 111.699415 
L 239.357506 109.904955 
L 239.422636 109.904955 
L 239.515596 109.007725 
L 239.801293 109.007725 
L 239.801293 108.55911 
L 239.958743 108.55911 
L 239.958743 108.110495 
L 240.07619 108.110495 
L 240.07619 107.66188 
L 240.288288 107.66188 
L 240.288288 107.213265 
L 240.50068 107.213265 
L 240.50068 106.76465 
L 240.65813 106.76465 
L 240.717177 105.86742 
L 240.96761 105.86742 
L 240.999956 104.97019 
L 241.179708 104.97019 
L 241.212055 104.07296 
L 241.396415 104.07296 
L 241.411531 103.17573 
L 241.779109 103.17573 
L 241.779109 102.727115 
L 242.222755 102.727115 
L 242.222755 102.2785 
L 242.434853 102.2785 
L 242.434853 101.829885 
L 242.761915 101.829885 
L 242.761915 101.38127 
L 242.905742 101.38127 
L 242.905742 100.932655 
L 243.052546 100.932655 
L 243.11784 100.035425 
L 243.398367 100.035425 
L 243.398367 99.58681 
L 243.605129 99.58681 
L 243.605129 99.138195 
L 243.817227 99.138195 
L 243.882144 97.79235 
L 243.956304 97.79235 
L 243.992804 96.89512 
L 244.215687 96.89512 
L 244.215687 96.446505 
L 244.654013 96.446505 
L 244.654013 95.99789 
L 245.049839 95.99789 
L 245.049839 95.549275 
L 245.207288 95.549275 
L 245.207288 95.10066 
L 245.528434 95.10066 
L 245.528434 94.652045 
L 246.377907 94.652045 
L 246.452201 93.3062 
L 247.411004 93.3062 
L 247.411004 92.857585 
L 247.561927 92.857585 
L 247.561927 92.40897 
L 247.674999 92.40897 
L 247.674999 91.960355 
L 247.791947 91.960355 
L 247.81898 91.063125 
L 248.154287 91.063125 
L 248.154287 90.61451 
L 248.357987 90.61451 
L 248.366386 89.71728 
L 248.541962 89.71728 
L 248.541962 89.268665 
L 248.683367 89.268665 
L 248.715714 88.371435 
L 248.986674 88.371435 
L 249.057374 87.474205 
L 249.144124 87.474205 
L 249.144124 87.02559 
L 249.411909 87.02559 
L 249.411909 86.576975 
L 249.938512 86.576975 
L 249.938512 86.12836 
L 250.352167 86.12836 
L 250.352167 85.679745 
L 250.621499 85.679745 
L 250.621499 85.23113 
L 251.320886 85.23113 
L 251.320886 84.782515 
L 252.091123 84.782515 
L 252.091123 84.3339 
L 252.303221 84.3339 
L 252.390745 83.43667 
L 252.607226 83.43667 
L 252.607226 82.988055 
L 252.758149 82.988055 
L 252.868873 82.090825 
L 253.004503 82.090825 
L 253.004503 81.64221 
L 253.282165 81.64221 
L 253.314512 80.74498 
L 253.547485 80.74498 
L 253.606532 79.84775 
L 253.698408 79.84775 
L 253.698408 79.399135 
L 254.219257 79.399135 
L 254.219257 78.95052 
L 254.53731 78.95052 
L 254.53731 78.501905 
L 254.901326 78.501905 
L 254.901326 78.05329 
L 255.220297 78.05329 
L 255.220297 77.604675 
L 255.870044 77.604675 
L 255.919684 76.707445 
L 256.111355 76.707445 
L 256.111355 76.25883 
L 257.543367 76.25883 
L 257.543367 75.810215 
L 258.096643 75.810215 
L 258.096643 75.3616 
L 258.247566 75.3616 
L 258.247566 74.912985 
L 259.276322 74.912985 
L 259.363867 74.015755 
L 259.80688 74.015755 
L 259.80688 73.56714 
L 260.444017 73.56714 
L 260.468843 72.66991 
L 260.601466 72.66991 
L 260.601466 72.221295 
L 262.559184 72.221295 
L 262.559184 71.77268 
L 262.710107 71.77268 
L 262.710107 71.324065 
L 263.548465 71.324065 
L 263.548465 70.87545 
L 263.760564 70.87545 
L 263.760564 70.426835 
L 264.405678 70.426835 
L 264.405678 69.97822 
L 269.00071 69.97822 
L 269.00071 69.529605 
L 271.264222 69.529605 
L 271.264222 69.08099 
L 272.386631 69.08099 
L 272.386631 68.632375 
L 273.39225 68.632375 
L 273.39225 68.18376 
L 275.863021 68.18376 
L 275.863021 67.735145 
L 276.039943 67.735145 
L 276.039943 67.28653 
L 277.045562 67.28653 
L 277.045562 66.837915 
L 280.054826 66.837915 
L 280.054826 66.3893 
L 280.732158 66.3893 
L 280.787333 65.49207 
L 281.060445 65.49207 
L 281.060445 65.043455 
L 281.737777 65.043455 
L 281.792951 64.146225 
L 306.192729 64.146225 
L 306.192729 63.69761 
L 309.318182 63.69761 
L 309.318182 63.248995 
L 312.379135 63.248995 
L 312.379135 62.80038 
L 313.384709 62.80038 
L 313.384709 62.351765 
L 313.562052 62.351765 
L 313.562052 61.90315 
L 314.339571 61.90315 
L 314.339571 61.454535 
L 314.626257 61.454535 
L 314.626257 61.00592 
L 315.157223 61.00592 
L 315.157223 60.557305 
L 315.504588 60.557305 
L 315.504588 60.10869 
L 316.31335 60.10869 
L 316.31335 59.660075 
L 316.510162 59.660075 
L 316.510162 59.21146 
L 316.687504 59.21146 
L 316.733278 58.31423 
L 317.131002 58.31423 
L 317.171571 57.417 
L 317.75171 57.417 
L 317.75171 56.968385 
L 318.315302 56.968385 
L 318.315302 56.51977 
L 318.707057 56.51977 
L 318.779504 55.62254 
L 318.873239 55.62254 
L 318.873239 55.173925 
L 319.132955 55.173925 
L 319.14535 54.276695 
L 319.597157 54.276695 
L 319.690892 53.379465 
L 320.70901 53.379465 
L 320.70901 52.93085 
L 321.147303 52.93085 
L 321.173212 52.03362 
L 321.266947 52.03362 
L 321.294841 51.13639 
L 321.527227 51.13639 
L 321.611505 50.23916 
L 321.705239 50.23916 
L 321.705239 49.790545 
L 322.112494 49.790545 
L 322.112494 49.34193 
L 323.688549 49.34193 
L 323.688549 48.893315 
L 324.126842 48.893315 
L 324.126842 48.4447 
L 326.723449 48.4447 
L 326.723449 47.996085 
L 327.30768 47.996085 
L 327.30768 47.54747 
L 327.663707 47.54747 
L 327.713633 46.65024 
L 328.125332 46.65024 
L 328.231446 45.304395 
L 328.719207 45.304395 
L 328.719207 44.85578 
L 328.896549 44.85578 
L 328.896549 44.407165 
L 329.016753 44.407165 
L 329.049099 43.509935 
L 329.454245 43.509935 
L 329.454245 43.06132 
L 329.701387 43.06132 
L 329.701387 42.612705 
L 329.960755 42.612705 
L 329.960755 42.16409 
L 330.137232 42.16409 
L 330.13968 41.26686 
L 330.271897 41.26686 
L 330.271897 40.818245 
L 330.592807 40.818245 
L 330.625154 39.921015 
L 330.836619 39.921015 
L 330.836619 39.4724 
L 330.954885 39.4724 
L 331.063447 38.126555 
L 331.654272 38.126555 
L 331.654272 37.67794 
L 331.847952 37.67794 
L 331.847952 37.229325 
L 332.212866 37.229325 
L 332.286245 36.332095 
L 332.530939 36.332095 
L 332.530939 35.88348 
L 332.909855 35.88348 
L 332.969232 34.98625 
L 333.230326 34.98625 
L 333.230326 34.537635 
L 333.668619 34.537635 
L 333.668619 34.08902 
L 333.850113 34.08902 
L 333.915429 33.19179 
L 334.092771 33.19179 
L 334.092771 32.743175 
L 334.303386 32.743175 
L 334.303386 32.29456 
L 334.855687 32.29456 
L 334.855687 31.845945 
L 335.03303 31.845945 
L 335.03303 31.39733 
L 335.156977 31.39733 
L 335.156977 30.948715 
L 335.385777 30.948715 
L 335.385777 30.5001 
L 336.097235 30.5001 
L 336.20343 29.60287 
L 336.675407 29.60287 
L 336.675407 29.154255 
L 337.428839 29.154255 
L 337.428839 28.70564 
L 337.779485 28.70564 
L 337.779485 28.257025 
L 338.217778 28.257025 
L 338.217778 27.80841 
L 338.399272 27.80841 
L 338.399272 27.359795 
L 339.068271 27.359795 
L 339.068271 26.91118 
L 339.322613 26.91118 
L 339.404846 26.01395 
L 339.582188 26.01395 
L 339.582188 25.565335 
L 340.140265 25.565335 
L 340.140265 25.11672 
L 340.646394 25.11672 
L 340.646394 24.668105 
L 341.71632 24.668105 
L 341.71632 24.21949 
L 342.154613 24.21949 
L 342.193724 23.32226 
L 342.861812 23.32226 
L 342.861812 22.873645 
L 343.867386 22.873645 
L 343.867386 22.42503 
L 344.044729 22.42503 
L 344.044729 21.976415 
L 345.108935 21.976415 
L 345.108935 21.5278 
L 349.637884 21.5278 
L 349.637884 21.079185 
L 350.779955 21.079185 
L 350.779955 20.63057 
L 351.597608 20.63057 
L 351.597608 20.181955 
L 353.173663 20.181955 
L 353.173663 19.73334 
L 353.611956 19.73334 
L 353.611956 19.284725 
L 354.402769 19.284725 
L 354.402769 18.83611 
L 354.834106 18.83611 
L 354.834106 18.387495 
L 355.307521 18.387495 
L 355.307521 17.93888 
L 355.774364 17.93888 
L 355.774364 17.490265 
L 358.432974 17.490265 
L 358.432974 17.04165 
L 359.598991 17.04165 
L 359.598991 16.593035 
L 360.323523 16.593035 
L 360.323523 16.14442 
L 360.539249 16.14442 
L 360.539249 15.695805 
L 364.786064 15.695805 
L 364.786064 15.24719 
L 365.088408 15.24719 
L 365.088408 14.798575 
L 369.550949 14.798575 
L 369.550949 14.34996 
L 370.642019 14.34996 
L 370.642019 13.901345 
L 375.838241 13.901345 
L 375.838241 13.45273 
L 376.778499 13.45273 
L 376.778499 13.004115 
L 381.327658 13.004115 
L 381.327658 12.5555 
L 385.790199 12.5555 
L 385.790199 12.106885 
L 403.461899 12.106885 
L 403.461899 11.65827 
L 404.467518 11.65827 
L 404.467518 11.209655 
L 406.587352 11.209655 
L 406.587352 10.76104 
L 407.59297 10.76104 
L 407.59297 10.312425 
L 418.796397 10.312425 
L 418.796397 9.86381 
L 419.802015 9.86381 
L 419.802015 9.415195 
L 423.992619 9.415195 
L 423.992619 8.96658 
L 424.932877 8.96658 
L 424.998238 8.06935 
L 425.938496 8.06935 
L 425.938496 7.620735 
L 429.482036 7.620735 
L 429.482036 7.17212 
L 430.487654 7.17212 
L 430.487654 6.723505 
L 433.944576 6.723505 
L 433.944576 6.27489 
L 434.950195 6.27489 
L 434.950195 5.826275 
L 453.192 5.826275 
L 453.192 5.826275 
" clip-path="url(#pfe1be7081f)" style="fill: none; stroke: #000000; stroke-width: 3; stroke-linecap: square"/>
   </g>
   <g id="line2d_18">
    <path clip-path="url(#pfe1be7081f)" style="fill: none; stroke: #000000; stroke-width: 3; stroke-linecap: square"/>
   </g>
   <g id="line2d_19">
    <path d="M 34.16 137.280903 
L 172.796331 137.280903 
L 172.796331 136.733175 
L 176.212231 136.733175 
L 176.212231 136.185448 
L 185.160707 136.185448 
L 185.160707 135.63772 
L 196.817523 135.63772 
L 196.817523 135.089992 
L 197.070489 135.089992 
L 197.070489 134.542265 
L 200.233424 134.542265 
L 200.233424 133.994537 
L 205.043218 133.994537 
L 205.043218 133.44681 
L 205.84231 133.44681 
L 205.84231 132.899082 
L 206.588843 132.899082 
L 206.588843 132.351354 
L 207.440292 132.351354 
L 207.440292 131.803627 
L 207.61809 131.803627 
L 207.652095 130.708171 
L 207.791358 130.708171 
L 207.791358 130.160444 
L 208.364623 130.160444 
L 208.364623 129.612716 
L 209.1819 129.612716 
L 209.216072 128.517261 
L 209.427876 128.517261 
L 209.427876 127.969533 
L 209.567138 127.969533 
L 209.567138 127.421806 
L 215.630932 127.421806 
L 215.630932 126.874078 
L 221.091681 126.874078 
L 221.091681 126.326351 
L 222.095595 126.326351 
L 222.095595 125.778623 
L 223.27706 125.778623 
L 223.378552 124.683168 
L 223.871375 124.683168 
L 223.871375 124.13544 
L 224.023592 124.13544 
L 224.125084 123.039985 
L 224.504643 123.039985 
L 224.504643 122.492257 
L 224.723861 122.492257 
L 224.723861 121.94453 
L 224.875041 121.94453 
L 224.976534 120.849074 
L 225.086845 120.849074 
L 225.188337 119.753619 
L 225.226107 119.753619 
L 225.327599 118.110436 
L 225.470393 118.110436 
L 225.470393 117.562709 
L 225.917474 117.562709 
L 225.917474 117.014981 
L 226.102625 117.014981 
L 226.102625 116.467253 
L 226.255067 116.467253 
L 226.33456 114.276343 
L 226.45369 114.276343 
L 226.533646 113.180888 
L 226.664006 113.180888 
L 226.672908 112.085432 
L 227.081093 112.085432 
L 227.081093 111.537705 
L 227.515455 111.537705 
L 227.515455 110.989977 
L 227.727259 110.989977 
L 227.727259 110.44225 
L 227.866521 110.44225 
L 227.941415 108.799067 
L 228.144345 108.799067 
L 228.144345 108.251339 
L 228.283608 108.251339 
L 228.283608 107.703611 
L 228.857963 107.703611 
L 228.857963 107.155884 
L 229.015354 107.155884 
L 229.06441 106.060429 
L 229.184339 106.060429 
L 229.184339 105.512701 
L 229.670968 105.512701 
L 229.670968 104.964973 
L 231.357316 104.964973 
L 231.357316 104.417246 
L 232.273864 104.417246 
L 232.273864 103.869518 
L 232.431255 103.869518 
L 232.431255 103.321791 
L 232.60024 103.321791 
L 232.60024 102.774063 
L 238.619444 102.774063 
L 238.619444 102.226335 
L 239.530344 102.226335 
L 239.631837 101.13088 
L 239.652125 101.13088 
L 239.652125 100.583152 
L 239.862948 100.583152 
L 239.862948 100.035425 
L 240.305792 100.035425 
L 240.305792 99.487697 
L 240.439652 99.487697 
L 240.439652 98.93997 
L 240.609481 98.93997 
L 240.609481 98.392242 
L 240.757928 98.392242 
L 240.757928 97.844514 
L 240.977145 97.844514 
L 240.977145 97.296787 
L 241.186185 97.296787 
L 241.222339 96.201332 
L 241.379731 96.201332 
L 241.46093 94.558149 
L 241.537138 94.558149 
L 241.548716 92.914966 
L 241.672733 92.914966 
L 241.672733 92.367238 
L 241.811996 92.367238 
L 241.811996 91.819511 
L 242.037634 91.819511 
L 242.037634 91.271783 
L 242.149277 91.271783 
L 242.249438 89.6286 
L 242.283671 89.6286 
L 242.3887 87.985417 
L 242.587845 87.985417 
L 242.587845 87.43769 
L 242.792171 87.43769 
L 242.792171 86.889962 
L 243.000726 86.889962 
L 243.000726 86.342234 
L 243.13512 86.342234 
L 243.212529 84.699052 
L 243.346923 84.699052 
L 243.351791 83.055869 
L 243.486186 83.055869 
L 243.538704 81.412686 
L 244.019558 81.412686 
L 244.043013 80.317231 
L 244.357563 80.317231 
L 244.390153 79.221775 
L 244.601956 79.221775 
L 244.601956 78.674048 
L 244.741219 78.674048 
L 244.766091 77.578592 
L 245.507895 77.578592 
L 245.61754 76.483137 
L 245.787498 76.483137 
L 245.829344 74.839954 
L 245.968606 74.839954 
L 245.968606 74.292227 
L 246.341333 74.292227 
L 246.341333 73.744499 
L 247.020855 73.744499 
L 247.020855 73.196772 
L 247.563278 73.196772 
L 247.563278 72.649044 
L 247.773463 72.649044 
L 247.773463 72.101316 
L 248.923795 72.101316 
L 248.923795 71.553589 
L 249.583031 71.553589 
L 249.583031 71.005861 
L 249.757234 71.005861 
L 249.757234 70.458133 
L 250.436756 70.458133 
L 250.529226 69.362678 
L 251.358811 69.362678 
L 251.358811 68.814951 
L 252.215574 68.814951 
L 252.215574 68.267223 
L 253.132121 68.267223 
L 253.132121 67.719495 
L 253.289513 67.719495 
L 253.289513 67.171768 
L 253.458497 67.171768 
L 253.458497 66.62404 
L 256.116233 66.62404 
L 256.116233 66.076313 
L 256.692937 66.076313 
L 256.721939 64.980857 
L 256.853758 64.980857 
L 256.853758 64.43313 
L 257.656029 64.43313 
L 257.656029 63.885402 
L 257.790423 63.885402 
L 257.872271 62.242219 
L 258.501955 62.242219 
L 258.501955 61.694492 
L 258.629539 61.694492 
L 258.70571 60.599036 
L 259.045456 60.599036 
L 259.045456 60.051309 
L 259.385232 60.051309 
L 259.385232 59.503581 
L 260.188303 59.503581 
L 260.272843 58.408126 
L 261.10485 58.408126 
L 261.10485 57.860398 
L 261.262242 57.860398 
L 261.285579 56.764943 
L 261.431226 56.764943 
L 261.477762 55.669488 
L 261.579254 55.669488 
L 261.579254 55.12176 
L 261.945959 55.12176 
L 261.945959 54.574033 
L 262.705345 54.574033 
L 262.792078 53.478577 
L 262.924563 53.478577 
L 262.924563 52.93085 
L 263.222247 52.93085 
L 263.323739 51.835394 
L 264.118176 51.835394 
L 264.118176 51.287667 
L 264.44983 51.287667 
L 264.535263 50.192212 
L 264.669048 50.192212 
L 264.70148 49.096756 
L 265.36186 49.096756 
L 265.36186 48.549029 
L 265.862661 48.549029 
L 265.862661 48.001301 
L 266.207979 48.001301 
L 266.279748 46.905846 
L 267.01778 46.905846 
L 267.119272 45.810391 
L 268.245364 45.810391 
L 268.245364 45.262663 
L 268.464581 45.262663 
L 268.464581 44.714935 
L 268.631721 44.714935 
L 268.631721 44.167208 
L 269.089669 44.167208 
L 269.089669 43.61948 
L 269.658194 43.61948 
L 269.658194 43.071753 
L 269.782053 43.071753 
L 269.782053 42.524025 
L 270.075281 42.524025 
L 270.075281 41.976297 
L 270.615492 41.976297 
L 270.615492 41.42857 
L 270.776017 41.42857 
L 270.776017 40.880842 
L 271.295013 40.880842 
L 271.295013 40.333114 
L 271.692565 40.333114 
L 271.692565 39.785387 
L 271.849956 39.785387 
L 271.849956 39.237659 
L 272.018941 39.237659 
L 272.018941 38.689932 
L 273.649956 38.689932 
L 273.649956 38.142204 
L 274.288508 38.142204 
L 274.39 36.499021 
L 275.156454 36.499021 
L 275.156454 35.951294 
L 275.516091 35.951294 
L 275.516091 35.403566 
L 275.735309 35.403566 
L 275.735309 34.855838 
L 276.60445 34.855838 
L 276.60445 34.308111 
L 276.928922 34.308111 
L 276.928922 33.760383 
L 277.346008 33.760383 
L 277.346008 33.212655 
L 277.754782 33.212655 
L 277.754782 32.664928 
L 278.063651 32.664928 
L 278.063651 32.1172 
L 278.588221 32.1172 
L 278.640355 31.021745 
L 279.267742 31.021745 
L 279.267742 30.474017 
L 279.603446 30.474017 
L 279.603446 29.92629 
L 279.737841 29.92629 
L 279.808136 28.283107 
L 280.38484 28.283107 
L 280.38484 27.735379 
L 280.992874 27.735379 
L 280.992874 27.187652 
L 281.347931 27.187652 
L 281.347931 26.639924 
L 281.482326 26.639924 
L 281.484765 25.544469 
L 282.220261 25.544469 
L 282.220261 24.996741 
L 282.737359 24.996741 
L 282.737359 24.449014 
L 283.603669 24.449014 
L 283.603669 23.901286 
L 283.964746 23.901286 
L 283.964746 23.353558 
L 284.180373 23.353558 
L 284.180373 22.805831 
L 285.143465 22.805831 
L 285.143465 22.258103 
L 285.277859 22.258103 
L 285.280298 21.162648 
L 285.559737 21.162648 
L 285.559737 20.61492 
L 286.220117 20.61492 
L 286.220117 20.067193 
L 286.532892 20.067193 
L 286.532892 19.519465 
L 287.066236 19.519465 
L 287.066236 18.971737 
L 287.192165 18.971737 
L 287.192165 18.42401 
L 287.760279 18.42401 
L 287.760279 17.876282 
L 288.342496 17.876282 
L 288.342496 17.328554 
L 289.175935 17.328554 
L 289.175935 16.780827 
L 289.855457 16.780827 
L 289.855457 16.233099 
L 290.874396 16.233099 
L 290.874396 15.685372 
L 291.451101 15.685372 
L 291.451101 15.137644 
L 292.414192 15.137644 
L 292.414192 14.589916 
L 292.548586 14.589916 
L 292.551026 13.494461 
L 293.532466 13.494461 
L 293.532466 12.946734 
L 293.80362 12.946734 
L 293.80362 12.399006 
L 294.192846 12.399006 
L 294.192846 11.851278 
L 295.031007 11.851278 
L 295.038965 10.755823 
L 304.120181 10.755823 
L 304.120181 10.208095 
L 304.780561 10.208095 
L 304.780561 9.660368 
L 305.62668 9.660368 
L 305.62668 9.11264 
L 453.192 9.11264 
L 453.192 9.11264 
" clip-path="url(#pfe1be7081f)" style="fill: none; stroke: #00bfbf; stroke-width: 3; stroke-linecap: square"/>
   </g>
   <g id="line2d_20">
    <path clip-path="url(#pfe1be7081f)" style="fill: none; stroke: #00bfbf; stroke-width: 3; stroke-linecap: square"/>
   </g>
   <g id="line2d_21">
    <path d="M 34.16 93.236826 
L 174.321635 93.236826 
L 174.321635 92.265598 
L 177.722923 92.265598 
L 177.722923 91.29437 
L 186.744211 91.29437 
L 186.744211 90.323141 
L 195.021145 90.323141 
L 195.021145 89.351913 
L 197.563556 89.351913 
L 197.563556 88.380685 
L 200.964845 88.380685 
L 200.964845 87.409456 
L 202.769688 87.409456 
L 202.769688 86.438228 
L 209.986133 86.438228 
L 209.986133 85.467 
L 215.605173 85.467 
L 215.605173 84.495771 
L 218.263066 84.495771 
L 218.263066 83.524543 
L 226.011609 83.524543 
L 226.011609 82.553314 
L 227.211895 82.553314 
L 227.211895 81.582086 
L 228.548114 81.582086 
L 228.548114 80.610858 
L 229.759729 80.610858 
L 229.759729 79.639629 
L 230.137461 79.639629 
L 230.137461 78.668401 
L 230.250924 78.668401 
L 230.250924 77.697173 
L 230.613184 77.697173 
L 230.613184 76.725944 
L 231.949403 76.725944 
L 231.949403 75.754716 
L 233.161017 75.754716 
L 233.161017 74.783488 
L 233.53875 74.783488 
L 233.53875 73.812259 
L 233.652213 73.812259 
L 233.652213 72.841031 
L 238.847095 72.841031 
L 238.847095 71.869803 
L 239.634472 71.869803 
L 239.634472 70.898574 
L 240.970691 70.898574 
L 240.970691 69.927346 
L 242.182306 69.927346 
L 242.182306 68.956118 
L 242.560038 68.956118 
L 242.560038 67.984889 
L 242.673501 67.984889 
L 242.673501 67.013661 
L 245.690954 67.013661 
L 245.690954 66.042432 
L 246.892377 66.042432 
L 246.892377 65.071204 
L 247.369053 65.071204 
L 247.369053 64.099976 
L 247.911405 64.099976 
L 247.911405 63.128747 
L 248.357001 63.128747 
L 248.357001 62.157519 
L 249.092243 62.157519 
L 249.092243 61.186291 
L 249.247624 61.186291 
L 249.247624 60.215062 
L 250.293666 60.215062 
L 250.293666 59.243834 
L 250.459239 59.243834 
L 250.459239 58.272606 
L 250.770342 58.272606 
L 250.836971 56.330149 
L 250.950435 56.330149 
L 250.950435 55.358921 
L 251.75829 55.358921 
L 251.75829 54.387692 
L 255.659948 54.387692 
L 255.659948 53.416464 
L 256.996167 53.416464 
L 256.996167 52.445235 
L 258.113531 52.445235 
L 258.207782 50.502779 
L 258.585514 50.502779 
L 258.585514 49.53155 
L 258.698978 49.53155 
L 258.698978 48.560322 
L 259.314954 48.560322 
L 259.314954 47.589094 
L 259.79163 47.589094 
L 259.79163 46.617865 
L 260.779578 46.617865 
L 260.779578 45.646637 
L 262.592736 45.646637 
L 262.592736 44.675409 
L 263.495267 44.675409 
L 263.495267 43.70418 
L 264.510966 43.70418 
L 264.510966 42.732952 
L 265.994024 42.732952 
L 265.994024 41.761724 
L 266.390464 41.761724 
L 266.390464 40.790495 
L 266.896556 40.790495 
L 266.896556 39.819267 
L 267.591888 39.819267 
L 267.591888 38.848039 
L 267.912254 38.848039 
L 267.912254 37.87681 
L 268.068564 37.87681 
L 268.068564 36.905582 
L 268.495434 36.905582 
L 268.495434 35.934353 
L 269.056512 35.934353 
L 269.056512 34.963125 
L 269.831653 34.963125 
L 269.831653 33.991897 
L 271.043267 33.991897 
L 271.043267 33.020668 
L 271.421 33.020668 
L 271.421 32.04944 
L 271.534463 32.04944 
L 271.534463 31.078212 
L 274.139007 31.078212 
L 274.139007 30.106983 
L 275.015313 30.106983 
L 275.015313 29.135755 
L 275.340431 29.135755 
L 275.340431 28.164527 
L 275.817107 28.164527 
L 275.917844 26.22207 
L 276.805055 26.22207 
L 276.805055 25.250842 
L 276.933543 25.250842 
L 276.933543 24.279613 
L 283.292246 24.279613 
L 283.292246 23.308385 
L 284.194777 23.308385 
L 284.194777 22.337157 
L 285.210476 22.337157 
L 285.210476 21.365928 
L 286.974493 21.365928 
L 286.974493 20.3947 
L 288.175916 20.3947 
L 288.175916 19.423471 
L 288.652592 19.423471 
L 288.652592 18.452243 
L 289.64054 18.452243 
L 289.64054 17.481015 
L 291.040789 17.481015 
L 291.040789 16.509786 
L 291.94332 16.509786 
L 291.94332 15.538558 
L 292.959019 15.538558 
L 292.959019 14.56733 
L 303.876274 14.56733 
L 303.876274 13.596101 
L 304.778806 13.596101 
L 304.778806 12.624873 
L 305.794504 12.624873 
L 305.794504 11.653645 
L 453.192 11.653645 
L 453.192 11.653645 
" clip-path="url(#pfe1be7081f)" style="fill: none; stroke: #bf00bf; stroke-width: 3; stroke-linecap: square"/>
   </g>
   <g id="line2d_22">
    <path clip-path="url(#pfe1be7081f)" style="fill: none; stroke: #bf00bf; stroke-width: 3; stroke-linecap: square"/>
   </g>
   <g id="line2d_23">
    <path d="M 34.16 93.236826 
L 176.221159 93.236826 
L 176.221159 92.265598 
L 179.514228 92.265598 
L 179.514228 91.29437 
L 187.006108 91.29437 
L 187.006108 90.323141 
L 195.585305 90.323141 
L 195.585305 89.351913 
L 198.26084 89.351913 
L 198.26084 88.380685 
L 201.553909 88.380685 
L 201.553909 87.409456 
L 204.849652 87.409456 
L 204.849652 86.438228 
L 209.045789 86.438228 
L 209.045789 85.467 
L 217.624986 85.467 
L 217.624986 84.495771 
L 218.154904 84.495771 
L 218.154904 83.524543 
L 226.889333 83.524543 
L 226.889333 82.553314 
L 228.425303 82.553314 
L 228.425303 81.582086 
L 230.304844 81.582086 
L 230.304844 80.610858 
L 230.572233 80.610858 
L 230.572233 79.639629 
L 230.766903 79.639629 
L 230.766903 78.668401 
L 231.508096 78.668401 
L 231.508096 77.697173 
L 231.718372 77.697173 
L 231.718372 76.725944 
L 233.597913 76.725944 
L 233.597913 75.754716 
L 233.865303 75.754716 
L 233.865303 74.783488 
L 234.059972 74.783488 
L 234.059972 73.812259 
L 234.801165 73.812259 
L 234.801165 72.841031 
L 239.210252 72.841031 
L 239.210252 71.869803 
L 240.194585 71.869803 
L 240.194585 70.898574 
L 241.089793 70.898574 
L 241.089793 69.927346 
L 241.357183 69.927346 
L 241.357183 68.956118 
L 241.551852 68.956118 
L 241.551852 67.984889 
L 242.293045 67.984889 
L 242.293045 67.013661 
L 246.694052 67.013661 
L 246.694052 66.042432 
L 247.647607 66.042432 
L 247.647607 65.071204 
L 247.789449 65.071204 
L 247.789449 64.099976 
L 248.258764 64.099976 
L 248.258764 63.128747 
L 248.845462 63.128747 
L 248.845462 62.157519 
L 249.66899 62.157519 
L 249.66899 61.186291 
L 249.936379 61.186291 
L 249.987121 59.243834 
L 250.131049 59.243834 
L 250.131049 58.272606 
L 250.872242 58.272606 
L 250.940676 56.330149 
L 251.551833 56.330149 
L 251.551833 55.358921 
L 252.138532 55.358921 
L 252.138532 54.387692 
L 257.053796 54.387692 
L 257.053796 53.416464 
L 257.479001 53.416464 
L 257.479001 52.445235 
L 258.432556 52.445235 
L 258.432556 51.474007 
L 258.933337 51.474007 
L 259.043713 49.53155 
L 259.200726 49.53155 
L 259.200726 48.560322 
L 259.395396 48.560322 
L 259.395396 47.589094 
L 259.630412 47.589094 
L 259.630412 46.617865 
L 260.136589 46.617865 
L 260.136589 45.646637 
L 263.083243 45.646637 
L 263.083243 44.675409 
L 263.660449 44.675409 
L 263.660449 43.70418 
L 264.948837 43.70418 
L 264.948837 42.732952 
L 266.058198 42.732952 
L 266.058198 41.761724 
L 266.376312 41.761724 
L 266.376312 40.790495 
L 266.953518 40.790495 
L 267.011753 38.848039 
L 267.62291 38.848039 
L 267.62291 37.87681 
L 268.209608 37.87681 
L 268.241906 35.934353 
L 270.359048 35.934353 
L 270.359048 34.963125 
L 272.238589 34.963125 
L 272.238589 33.991897 
L 272.505979 33.991897 
L 272.505979 33.020668 
L 272.700648 33.020668 
L 272.700648 32.04944 
L 273.441841 32.04944 
L 273.441841 31.078212 
L 273.868192 31.078212 
L 273.868192 30.106983 
L 274.445399 30.106983 
L 274.445399 29.135755 
L 275.322545 29.135755 
L 275.322545 28.164527 
L 275.733787 28.164527 
L 275.733787 27.193298 
L 276.276099 27.193298 
L 276.276099 26.22207 
L 276.887257 26.22207 
L 276.887257 25.250842 
L 277.473955 25.250842 
L 277.473955 24.279613 
L 282.447389 24.279613 
L 282.447389 23.308385 
L 283.024595 23.308385 
L 283.024595 22.337157 
L 284.312983 22.337157 
L 284.312983 21.365928 
L 288.627797 21.365928 
L 288.627797 20.3947 
L 289.581352 20.3947 
L 289.581352 19.423471 
L 290.192509 19.423471 
L 290.192509 18.452243 
L 290.779208 18.452243 
L 290.779208 17.481015 
L 291.711735 17.481015 
L 291.711735 16.509786 
L 292.288942 16.509786 
L 292.288942 15.538558 
L 293.57733 15.538558 
L 293.57733 14.56733 
L 305.016988 14.56733 
L 305.016988 13.596101 
L 305.594195 13.596101 
L 305.594195 12.624873 
L 306.882583 12.624873 
L 306.882583 11.653645 
L 453.192 11.653645 
L 453.192 11.653645 
" clip-path="url(#pfe1be7081f)" style="fill: none; stroke: #ff0000; stroke-width: 3; stroke-linecap: square"/>
   </g>
   <g id="line2d_24">
    <path clip-path="url(#pfe1be7081f)" style="fill: none; stroke: #ff0000; stroke-width: 3; stroke-linecap: square"/>
   </g>
   <g id="line2d_25">
    <path d="M 243.676 291.28 
L 243.676 3 
" clip-path="url(#pfe1be7081f)" style="fill: none; stroke: #000000; stroke-width: 1.5; stroke-linecap: square"/>
   </g>
   <g id="line2d_26">
    <path d="M 34.16 147.14 
L 453.192 147.14 
" clip-path="url(#pfe1be7081f)" style="fill: none; stroke-dasharray: 2,3.3; stroke-dashoffset: 0; stroke: #000000; stroke-width: 2"/>
   </g>
   <g id="patch_3">
    <path d="M 34.16 291.28 
L 34.16 3 
" style="fill: none; stroke: #000000; stroke-width: 0.8; stroke-linejoin: miter; stroke-linecap: square"/>
   </g>
   <g id="patch_4">
    <path d="M 453.192 291.28 
L 453.192 3 
" style="fill: none; stroke: #000000; stroke-width: 0.8; stroke-linejoin: miter; stroke-linecap: square"/>
   </g>
   <g id="patch_5">
    <path d="M 34.16 291.28 
L 453.192 291.28 
" style="fill: none; stroke: #000000; stroke-width: 0.8; stroke-linejoin: miter; stroke-linecap: square"/>
   </g>
   <g id="patch_6">
    <path d="M 34.16 3 
L 453.192 3 
" style="fill: none; stroke: #000000; stroke-width: 0.8; stroke-linejoin: miter; stroke-linecap: square"/>
   </g>
   <g id="text_6">
    <!-- f20-f24,40-D -->
    <g transform="translate(318.19261 285.5144) scale(0.2 -0.2)">
     <defs>
      <path id="DejaVuSans-34" d="M 2419 4116 
L 825 1625 
L 2419 1625 
L 2419 4116 
z
M 2253 4666 
L 3047 4666 
L 3047 1625 
L 3713 1625 
L 3713 1100 
L 3047 1100 
L 3047 0 
L 2419 0 
L 2419 1100 
L 313 1100 
L 313 1709 
L 2253 4666 
z
" transform="scale(0.015625)"/>
      <path id="DejaVuSans-2c" d="M 750 794 
L 1409 794 
L 1409 256 
L 897 -744 
L 494 -744 
L 750 256 
L 750 794 
z
" transform="scale(0.015625)"/>
      <path id="DejaVuSans-44" d="M 1259 4147 
L 1259 519 
L 2022 519 
Q 2988 519 3436 956 
Q 3884 1394 3884 2338 
Q 3884 3275 3436 3711 
Q 2988 4147 2022 4147 
L 1259 4147 
z
M 628 4666 
L 1925 4666 
Q 3281 4666 3915 4102 
Q 4550 3538 4550 2338 
Q 4550 1131 3912 565 
Q 3275 0 1925 0 
L 628 0 
L 628 4666 
z
" transform="scale(0.015625)"/>
     </defs>
     <use xlink:href="#DejaVuSans-66"/>
     <use xlink:href="#DejaVuSans-32" x="35.205078"/>
     <use xlink:href="#DejaVuSans-30" x="98.828125"/>
     <use xlink:href="#DejaVuSans-2d" x="162.451172"/>
     <use xlink:href="#DejaVuSans-66" x="198.535156"/>
     <use xlink:href="#DejaVuSans-32" x="233.740234"/>
     <use xlink:href="#DejaVuSans-34" x="297.363281"/>
     <use xlink:href="#DejaVuSans-2c" x="360.986328"/>
     <use xlink:href="#DejaVuSans-34" x="392.773438"/>
     <use xlink:href="#DejaVuSans-30" x="456.396484"/>
     <use xlink:href="#DejaVuSans-2d" x="520.019531"/>
     <use xlink:href="#DejaVuSans-44" x="556.103516"/>
    </g>
   </g>
   <g id="text_7">
    <!-- v2.6.3 -->
    <g style="fill: #808080" transform="translate(227.99475 286.317512) scale(0.1 -0.1)">
     <defs>
      <path id="DejaVuSans-2e" d="M 684 794 
L 1344 794 
L 1344 0 
L 684 0 
L 684 794 
z
" transform="scale(0.015625)"/>
      <path id="DejaVuSans-36" d="M 2113 2584 
Q 1688 2584 1439 2293 
Q 1191 2003 1191 1497 
Q 1191 994 1439 701 
Q 1688 409 2113 409 
Q 2538 409 2786 701 
Q 3034 994 3034 1497 
Q 3034 2003 2786 2293 
Q 2538 2584 2113 2584 
z
M 3366 4563 
L 3366 3988 
Q 3128 4100 2886 4159 
Q 2644 4219 2406 4219 
Q 1781 4219 1451 3797 
Q 1122 3375 1075 2522 
Q 1259 2794 1537 2939 
Q 1816 3084 2150 3084 
Q 2853 3084 3261 2657 
Q 3669 2231 3669 1497 
Q 3669 778 3244 343 
Q 2819 -91 2113 -91 
Q 1303 -91 875 529 
Q 447 1150 447 2328 
Q 447 3434 972 4092 
Q 1497 4750 2381 4750 
Q 2619 4750 2861 4703 
Q 3103 4656 3366 4563 
z
" transform="scale(0.015625)"/>
      <path id="DejaVuSans-33" d="M 2597 2516 
Q 3050 2419 3304 2112 
Q 3559 1806 3559 1356 
Q 3559 666 3084 287 
Q 2609 -91 1734 -91 
Q 1441 -91 1130 -33 
Q 819 25 488 141 
L 488 750 
Q 750 597 1062 519 
Q 1375 441 1716 441 
Q 2309 441 2620 675 
Q 2931 909 2931 1356 
Q 2931 1769 2642 2001 
Q 2353 2234 1838 2234 
L 1294 2234 
L 1294 2753 
L 1863 2753 
Q 2328 2753 2575 2939 
Q 2822 3125 2822 3475 
Q 2822 3834 2567 4026 
Q 2313 4219 1838 4219 
Q 1578 4219 1281 4162 
Q 984 4106 628 3988 
L 628 4550 
Q 988 4650 1302 4700 
Q 1616 4750 1894 4750 
Q 2613 4750 3031 4423 
Q 3450 4097 3450 3541 
Q 3450 3153 3228 2886 
Q 3006 2619 2597 2516 
z
" transform="scale(0.015625)"/>
     </defs>
     <use xlink:href="#DejaVuSans-76"/>
     <use xlink:href="#DejaVuSans-32" x="59.179688"/>
     <use xlink:href="#DejaVuSans-2e" x="122.802734"/>
     <use xlink:href="#DejaVuSans-36" x="154.589844"/>
     <use xlink:href="#DejaVuSans-2e" x="218.212891"/>
     <use xlink:href="#DejaVuSans-33" x="250"/>
    </g>
   </g>
   <g id="legend_1">
    <g id="patch_7">
     <path d="M 309.970125 281.28 
L 439.192 281.28 
Q 443.192 281.28 443.192 277.28 
L 443.192 161.855 
Q 443.192 157.855 439.192 157.855 
L 309.970125 157.855 
Q 305.970125 157.855 305.970125 161.855 
L 305.970125 277.28 
Q 305.970125 281.28 309.970125 281.28 
z
" style="fill: #ffffff; opacity: 0.2; stroke: #cccccc; stroke-linejoin: miter"/>
    </g>
    <g id="line2d_27">
     <path d="M 313.970125 174.051875 
L 333.970125 174.051875 
L 353.970125 174.051875 
" style="fill: none; stroke: #000000; stroke-width: 3; stroke-linecap: square"/>
    </g>
    <g id="text_8">
     <!-- 1: 5/2 -->
     <g transform="translate(369.970125 181.051875) scale(0.2 -0.2)">
      <defs>
       <path id="DejaVuSans-3a" d="M 750 794 
L 1409 794 
L 1409 0 
L 750 0 
L 750 794 
z
M 750 3309 
L 1409 3309 
L 1409 2516 
L 750 2516 
L 750 3309 
z
" transform="scale(0.015625)"/>
       <path id="DejaVuSans-35" d="M 691 4666 
L 3169 4666 
L 3169 4134 
L 1269 4134 
L 1269 2991 
Q 1406 3038 1543 3061 
Q 1681 3084 1819 3084 
Q 2600 3084 3056 2656 
Q 3513 2228 3513 1497 
Q 3513 744 3044 326 
Q 2575 -91 1722 -91 
Q 1428 -91 1123 -41 
Q 819 9 494 109 
L 494 744 
Q 775 591 1075 516 
Q 1375 441 1709 441 
Q 2250 441 2565 725 
Q 2881 1009 2881 1497 
Q 2881 1984 2565 2268 
Q 2250 2553 1709 2553 
Q 1456 2553 1204 2497 
Q 953 2441 691 2322 
L 691 4666 
z
" transform="scale(0.015625)"/>
       <path id="DejaVuSans-2f" d="M 1625 4666 
L 2156 4666 
L 531 -594 
L 0 -594 
L 1625 4666 
z
" transform="scale(0.015625)"/>
      </defs>
      <use xlink:href="#DejaVuSans-31"/>
      <use xlink:href="#DejaVuSans-3a" x="63.623047"/>
      <use xlink:href="#DejaVuSans-20" x="97.314453"/>
      <use xlink:href="#DejaVuSans-35" x="129.101562"/>
      <use xlink:href="#DejaVuSans-2f" x="192.724609"/>
      <use xlink:href="#DejaVuSans-32" x="226.416016"/>
     </g>
    </g>
    <g id="line2d_28">
     <path d="M 313.970125 203.408125 
L 333.970125 203.408125 
L 353.970125 203.408125 
" style="fill: none; stroke: #00bfbf; stroke-width: 3; stroke-linecap: square"/>
    </g>
    <g id="text_9">
     <!-- -1: 3/2 -->
     <g transform="translate(369.970125 210.408125) scale(0.2 -0.2)">
      <use xlink:href="#DejaVuSans-2d"/>
      <use xlink:href="#DejaVuSans-31" x="36.083984"/>
      <use xlink:href="#DejaVuSans-3a" x="99.707031"/>
      <use xlink:href="#DejaVuSans-20" x="133.398438"/>
      <use xlink:href="#DejaVuSans-33" x="165.185547"/>
      <use xlink:href="#DejaVuSans-2f" x="228.808594"/>
      <use xlink:href="#DejaVuSans-32" x="262.5"/>
     </g>
    </g>
    <g id="line2d_29">
     <path d="M 313.970125 232.764375 
L 333.970125 232.764375 
L 353.970125 232.764375 
" style="fill: none; stroke: #bf00bf; stroke-width: 3; stroke-linecap: square"/>
    </g>
    <g id="text_10">
     <!-- -4: 2/1 -->
     <g transform="translate(369.970125 239.764375) scale(0.2 -0.2)">
      <use xlink:href="#DejaVuSans-2d"/>
      <use xlink:href="#DejaVuSans-34" x="36.083984"/>
      <use xlink:href="#DejaVuSans-3a" x="99.707031"/>
      <use xlink:href="#DejaVuSans-20" x="133.398438"/>
      <use xlink:href="#DejaVuSans-32" x="165.185547"/>
      <use xlink:href="#DejaVuSans-2f" x="228.808594"/>
      <use xlink:href="#DejaVuSans-31" x="262.5"/>
     </g>
    </g>
    <g id="line2d_30">
     <path d="M 313.970125 262.120625 
L 333.970125 262.120625 
L 353.970125 262.120625 
" style="fill: none; stroke: #ff0000; stroke-width: 3; stroke-linecap: square"/>
    </g>
    <g id="text_11">
     <!-- -8: 2/1 -->
     <g transform="translate(369.970125 269.120625) scale(0.2 -0.2)">
      <defs>
       <path id="DejaVuSans-38" d="M 2034 2216 
Q 1584 2216 1326 1975 
Q 1069 1734 1069 1313 
Q 1069 891 1326 650 
Q 1584 409 2034 409 
Q 2484 409 2743 651 
Q 3003 894 3003 1313 
Q 3003 1734 2745 1975 
Q 2488 2216 2034 2216 
z
M 1403 2484 
Q 997 2584 770 2862 
Q 544 3141 544 3541 
Q 544 4100 942 4425 
Q 1341 4750 2034 4750 
Q 2731 4750 3128 4425 
Q 3525 4100 3525 3541 
Q 3525 3141 3298 2862 
Q 3072 2584 2669 2484 
Q 3125 2378 3379 2068 
Q 3634 1759 3634 1313 
Q 3634 634 3220 271 
Q 2806 -91 2034 -91 
Q 1263 -91 848 271 
Q 434 634 434 1313 
Q 434 1759 690 2068 
Q 947 2378 1403 2484 
z
M 1172 3481 
Q 1172 3119 1398 2916 
Q 1625 2713 2034 2713 
Q 2441 2713 2670 2916 
Q 2900 3119 2900 3481 
Q 2900 3844 2670 4047 
Q 2441 4250 2034 4250 
Q 1625 4250 1398 4047 
Q 1172 3844 1172 3481 
z
" transform="scale(0.015625)"/>
      </defs>
      <use xlink:href="#DejaVuSans-2d"/>
      <use xlink:href="#DejaVuSans-38" x="36.083984"/>
      <use xlink:href="#DejaVuSans-3a" x="99.707031"/>
      <use xlink:href="#DejaVuSans-20" x="133.398438"/>
      <use xlink:href="#DejaVuSans-32" x="165.185547"/>
      <use xlink:href="#DejaVuSans-2f" x="228.808594"/>
      <use xlink:href="#DejaVuSans-31" x="262.5"/>
     </g>
    </g>
   </g>
  </g>
 </g>
 <defs>
  <clipPath id="pfe1be7081f">
   <rect x="34.16" y="3" width="419.032" height="288.28"/>
  </clipPath>
 </defs>
</svg>
