<?xml version="1.0" encoding="utf-8" standalone="no"?>
<!DOCTYPE svg PUBLIC "-//W3C//DTD SVG 1.1//EN"
  "http://www.w3.org/Graphics/SVG/1.1/DTD/svg11.dtd">
<svg xmlns:xlink="http://www.w3.org/1999/xlink" width="460.8pt" height="345.6pt" viewBox="0 0 460.8 345.6" xmlns="http://www.w3.org/2000/svg" version="1.1">
 <metadata>
  <rdf:RDF xmlns:dc="http://purl.org/dc/elements/1.1/" xmlns:cc="http://creativecommons.org/ns#" xmlns:rdf="http://www.w3.org/1999/02/22-rdf-syntax-ns#">
   <cc:Work>
    <dc:type rdf:resource="http://purl.org/dc/dcmitype/StillImage"/>
    <dc:date>2024-06-07T14:20:40.576872</dc:date>
    <dc:format>image/svg+xml</dc:format>
    <dc:creator>
     <cc:Agent>
      <dc:title>Matplotlib v3.7.1, https://matplotlib.org/</dc:title>
     </cc:Agent>
    </dc:creator>
   </cc:Work>
  </rdf:RDF>
 </metadata>
 <defs>
  <style type="text/css">*{stroke-linejoin: round; stroke-linecap: butt}</style>
 </defs>
 <g id="figure_1">
  <g id="patch_1">
   <path d="M 0 345.6 
L 460.8 345.6 
L 460.8 0 
L 0 0 
z
" style="fill: #ffffff"/>
  </g>
  <g id="axes_1">
   <g id="patch_2">
    <path d="M 62.208 293.76 
L 460.8 293.76 
L 460.8 3.456 
L 62.208 3.456 
z
" style="fill: #ffffff"/>
   </g>
   <g id="line2d_1"/>
   <g id="line2d_2">
    <path d="M 331.317506 293.76 
L 331.317506 289.927604 
L 331.527942 289.927604 
L 331.527942 286.095208 
L 336.856826 286.095208 
L 336.856826 282.262812 
L 338.035492 282.262812 
L 338.035492 278.430416 
L 346.74702 278.430416 
L 346.74702 274.59802 
L 347.150976 274.59802 
L 347.150976 270.765624 
L 347.578674 270.765624 
L 347.578674 266.933228 
L 347.768785 266.933228 
L 347.768785 263.100832 
L 348.170974 263.100832 
L 348.170974 259.268436 
L 348.691334 259.268436 
L 348.691334 255.43604 
L 348.753175 255.43604 
L 348.753175 251.603644 
L 348.823033 251.603644 
L 348.823033 247.771248 
L 348.852778 247.771248 
L 348.852778 243.938851 
L 349.182753 243.938851 
L 349.182753 240.106455 
L 349.23899 240.106455 
L 349.23899 236.274059 
L 349.441828 236.274059 
L 349.441828 232.441663 
L 349.582118 232.441663 
L 349.582118 228.609267 
L 350.08274 228.609267 
L 350.08274 224.776871 
L 350.175818 224.776871 
L 350.175818 220.944475 
L 350.18104 220.944475 
L 350.18104 217.112079 
L 350.39247 217.112079 
L 350.39247 213.279683 
L 350.442293 213.279683 
L 350.442293 209.447287 
L 350.536055 209.447287 
L 350.536055 205.614891 
L 350.887298 205.614891 
L 350.887298 201.782495 
L 351.335303 201.782495 
L 351.335303 197.950099 
L 351.518294 197.950099 
L 351.518294 194.117703 
L 352.33407 194.117703 
L 352.33407 190.285307 
L 353.516737 190.285307 
L 353.516737 186.452911 
L 354.64169 186.452911 
L 354.64169 182.620515 
L 354.852141 182.620515 
L 354.852141 178.788119 
L 355.903144 178.788119 
L 355.903144 174.955723 
L 355.915735 174.955723 
L 355.915735 171.123327 
L 356.362297 171.123327 
L 356.362297 167.290931 
L 356.67169 167.290931 
L 356.67169 163.458535 
L 357.392692 163.458535 
L 357.392692 159.626139 
L 359.685287 159.626139 
L 359.685287 155.793743 
L 361.749713 155.793743 
L 361.749713 151.961347 
L 362.952731 151.961347 
L 362.952731 148.12895 
L 365.227808 148.12895 
L 365.227808 144.296554 
L 368.938728 144.296554 
L 368.938728 140.464158 
L 368.968164 140.464158 
L 368.968164 136.631762 
L 369.117556 136.631762 
L 369.117556 132.799366 
L 369.254306 132.799366 
L 369.254306 128.96697 
L 369.415236 128.96697 
L 369.415236 125.134574 
L 369.42219 125.134574 
L 369.42219 121.302178 
L 369.961075 121.302178 
L 369.961075 117.469782 
L 370.033 117.469782 
L 370.033 113.637386 
L 370.234046 113.637386 
L 370.234046 109.80499 
L 370.568943 109.80499 
L 370.568943 105.972594 
L 370.725679 105.972594 
L 370.725679 102.140198 
L 371.158561 102.140198 
L 371.158561 98.307802 
L 375.036769 98.307802 
L 375.036769 94.475406 
L 375.462991 94.475406 
L 375.462991 90.64301 
L 375.485123 90.64301 
L 375.485123 86.810614 
L 375.877848 86.810614 
L 375.877848 82.978218 
L 376.099407 82.978218 
L 376.099407 79.145822 
L 376.930462 79.145822 
L 376.930462 75.313426 
L 384.648392 75.313426 
L 384.648392 71.48103 
L 386.301707 71.48103 
L 386.301707 67.648634 
L 399.847645 67.648634 
L 399.847645 63.816238 
L 413.402909 63.816238 
L 413.402909 59.983842 
L 413.402909 59.983842 
L 413.402909 59.983842 
L 460.8 59.983842 
" clip-path="url(#pc0da2dfaca)" style="fill: none; stroke: #f5deb3; stroke-width: 1.5; stroke-linecap: square"/>
   </g>
   <g id="line2d_3"/>
   <g id="line2d_4"/>
   <g id="line2d_5">
    <path d="M 322.587913 293.76 
L 322.587913 289.927604 
L 323.824089 289.927604 
L 323.824089 286.095208 
L 325.279523 286.095208 
L 325.279523 282.262812 
L 325.598226 282.262812 
L 325.598226 278.430416 
L 325.941834 278.430416 
L 325.941834 274.59802 
L 331.68988 274.59802 
L 331.68988 270.765624 
L 332.031846 270.765624 
L 332.031846 266.933228 
L 332.489457 266.933228 
L 332.54576 259.268436 
L 332.727349 259.268436 
L 332.727349 255.43604 
L 332.966227 255.43604 
L 332.966227 251.603644 
L 333.084703 251.603644 
L 333.084703 247.771248 
L 333.323803 247.771248 
L 333.413689 240.106455 
L 333.634672 240.106455 
L 333.657986 232.441663 
L 334.065694 232.441663 
L 334.065694 228.609267 
L 336.453998 228.609267 
L 336.453998 224.776871 
L 337.368707 224.776871 
L 337.368707 220.944475 
L 338.103541 220.944475 
L 338.103541 217.112079 
L 338.865262 217.112079 
L 338.865262 213.279683 
L 339.37541 213.279683 
L 339.392021 205.614891 
L 339.596309 205.614891 
L 339.596309 201.782495 
L 340.492278 201.782495 
L 340.492278 197.950099 
L 341.289486 197.950099 
L 341.289486 194.117703 
L 341.71193 194.117703 
L 341.71193 190.285307 
L 346.034485 190.285307 
L 346.034485 186.452911 
L 347.894265 186.452911 
L 347.894265 182.620515 
L 349.48599 182.620515 
L 349.58583 174.955723 
L 349.929034 174.955723 
L 350.020912 163.458535 
L 350.048694 163.458535 
L 350.048694 159.626139 
L 350.193571 159.626139 
L 350.279088 151.961347 
L 350.494123 151.961347 
L 350.494123 148.12895 
L 350.620812 148.12895 
L 350.620812 144.296554 
L 350.854473 144.296554 
L 350.90165 136.631762 
L 351.110171 136.631762 
L 351.128007 128.96697 
L 351.617511 128.96697 
L 351.617511 125.134574 
L 354.075087 125.134574 
L 354.075087 121.302178 
L 355.177585 121.302178 
L 355.177585 117.469782 
L 355.393326 117.469782 
L 355.483467 109.80499 
L 355.537995 109.80499 
L 355.606499 98.307802 
L 355.702471 98.307802 
L 355.802263 90.64301 
L 355.885599 90.64301 
L 355.885599 86.810614 
L 356.235429 86.810614 
L 356.235429 82.978218 
L 356.593582 82.978218 
L 356.593582 79.145822 
L 357.522692 79.145822 
L 357.522692 75.313426 
L 357.979146 75.313426 
L 357.979146 71.48103 
L 358.21488 71.48103 
L 358.21488 67.648634 
L 359.105531 67.648634 
L 359.105531 63.816238 
L 417.999239 63.816238 
L 417.999239 59.983842 
L 419.414357 59.983842 
L 419.414357 56.151446 
L 419.651576 56.151446 
L 419.651576 52.31905 
L 420.15615 52.31905 
L 420.15615 48.486653 
L 436.439073 48.486653 
L 436.439073 44.654257 
L 439.592205 44.654257 
L 439.592205 40.821861 
L 440.218183 40.821861 
L 440.218183 36.989465 
L 440.992783 36.989465 
L 440.992783 33.157069 
L 442.031259 33.157069 
L 442.126475 25.492277 
L 442.274759 25.492277 
L 442.274759 21.659881 
L 443.462758 21.659881 
L 443.462758 17.827485 
L 444.976636 17.827485 
L 444.976636 13.995089 
L 445.780844 13.995089 
L 445.780844 10.162693 
L 452.048147 10.162693 
L 452.048147 6.330297 
L 452.048147 6.330297 
L 460.8 6.330297 
L 460.8 6.330297 
" clip-path="url(#pc0da2dfaca)" style="fill: none; stroke: #f5deb3; stroke-width: 1.5; stroke-linecap: square"/>
   </g>
   <g id="line2d_6">
    <path clip-path="url(#pc0da2dfaca)" style="fill: none; stroke: #f5deb3; stroke-width: 1.5; stroke-linecap: square"/>
   </g>
   <g id="line2d_7"/>
   <g id="line2d_8"/>
   <g id="line2d_9"/>
   <g id="line2d_10"/>
   <g id="line2d_11">
    <path clip-path="url(#pc0da2dfaca)" style="fill: none; stroke: #f5deb3; stroke-width: 1.5; stroke-linecap: square"/>
   </g>
   <g id="line2d_12"/>
   <g id="line2d_13">
    <path d="M 297.969542 293.76 
L 297.969542 289.927604 
L 299.150437 289.927604 
L 299.150437 286.095208 
L 304.429679 286.095208 
L 304.429679 282.262812 
L 305.007733 282.262812 
L 305.007733 278.430416 
L 306.736805 278.430416 
L 306.736805 274.59802 
L 307.428206 274.59802 
L 307.428206 270.765624 
L 308.546299 270.765624 
L 308.546299 266.933228 
L 310.947306 266.933228 
L 310.947306 263.100832 
L 312.935774 263.100832 
L 312.935774 259.268436 
L 314.218332 259.268436 
L 314.218332 255.43604 
L 315.297484 255.43604 
L 315.297484 251.603644 
L 318.266616 251.603644 
L 318.266616 247.771248 
L 319.153375 247.771248 
L 319.153375 243.938851 
L 322.981771 243.938851 
L 322.981771 240.106455 
L 323.029527 240.106455 
L 323.029527 236.274059 
L 365.511327 236.274059 
L 365.511327 232.441663 
L 369.794601 232.441663 
L 369.794601 228.609267 
L 370.049794 228.609267 
L 370.049794 224.776871 
L 370.643412 224.776871 
L 370.643412 220.944475 
L 373.010953 220.944475 
L 373.010953 217.112079 
L 373.566701 217.112079 
L 373.566701 213.279683 
L 374.297792 213.279683 
L 374.297792 209.447287 
L 374.30475 209.447287 
L 374.30475 205.614891 
L 374.861653 205.614891 
L 374.861653 201.782495 
L 374.947943 201.782495 
L 374.947943 197.950099 
L 376.429098 197.950099 
L 376.429098 194.117703 
L 376.581482 194.117703 
L 376.581482 190.285307 
L 376.720985 190.285307 
L 376.720985 186.452911 
L 376.741358 186.452911 
L 376.741358 182.620515 
L 376.99744 182.620515 
L 376.99744 178.788119 
L 377.097946 178.788119 
L 377.097946 174.955723 
L 378.512718 174.955723 
L 378.512718 171.123327 
L 378.717858 171.123327 
L 378.717858 167.290931 
L 378.744632 167.290931 
L 378.744632 163.458535 
L 379.164604 163.458535 
L 379.164604 159.626139 
L 379.269371 159.626139 
L 379.269371 155.793743 
L 382.401891 155.793743 
L 382.401891 151.961347 
L 382.953841 151.961347 
L 382.953841 148.12895 
L 383.218484 148.12895 
L 383.218484 144.296554 
L 383.527932 144.296554 
L 383.527932 140.464158 
L 384.243913 140.464158 
L 384.243913 136.631762 
L 385.264573 136.631762 
L 385.264573 132.799366 
L 385.844037 132.799366 
L 385.844037 128.96697 
L 386.097291 128.96697 
L 386.097291 125.134574 
L 387.027069 125.134574 
L 387.027069 121.302178 
L 387.027069 121.302178 
L 387.027069 121.302178 
L 460.8 121.302178 
" clip-path="url(#pc0da2dfaca)" style="fill: none; stroke: #f5deb3; stroke-width: 1.5; stroke-linecap: square"/>
   </g>
   <g id="line2d_14"/>
   <g id="line2d_15"/>
   <g id="line2d_16"/>
   <g id="line2d_17">
    <path d="M 358.91267 293.76 
L 358.91267 289.927604 
L 362.292609 289.927604 
L 362.292609 286.095208 
L 364.467454 286.095208 
L 364.467454 282.262812 
L 365.696395 282.262812 
L 365.796934 274.59802 
L 367.062678 274.59802 
L 367.062678 270.765624 
L 367.457619 270.765624 
L 367.543358 263.100832 
L 368.280134 263.100832 
L 368.280134 259.268436 
L 368.397506 259.268436 
L 368.397506 255.43604 
L 368.778352 255.43604 
L 368.791207 247.771248 
L 369.105129 247.771248 
L 369.110546 240.106455 
L 369.573919 240.106455 
L 369.573919 236.274059 
L 369.838085 236.274059 
L 369.838085 232.441663 
L 370.063783 232.441663 
L 370.063783 228.609267 
L 370.268997 228.609267 
L 370.268997 224.776871 
L 370.728429 224.776871 
L 370.728429 220.944475 
L 371.657338 220.944475 
L 371.657338 217.112079 
L 372.568631 217.112079 
L 372.568631 213.279683 
L 372.801139 213.279683 
L 372.801139 209.447287 
L 373.091169 209.447287 
L 373.091169 205.614891 
L 373.559893 205.614891 
L 373.559893 201.782495 
L 373.79748 201.782495 
L 373.79748 197.950099 
L 374.136032 197.950099 
L 374.136032 194.117703 
L 376.491176 194.117703 
L 376.519288 186.452911 
L 376.660326 186.452911 
L 376.722553 178.788119 
L 376.819874 178.788119 
L 376.819874 174.955723 
L 377.621581 174.955723 
L 377.674368 163.458535 
L 378.684861 163.458535 
L 378.684861 159.626139 
L 378.871799 159.626139 
L 378.913026 151.961347 
L 379.386527 151.961347 
L 379.386527 148.12895 
L 380.110506 148.12895 
L 380.110506 144.296554 
L 380.536431 144.296554 
L 380.536431 140.464158 
L 381.652834 140.464158 
L 381.652834 136.631762 
L 383.330561 136.631762 
L 383.330561 132.799366 
L 384.160523 132.799366 
L 384.160523 128.96697 
L 385.613136 128.96697 
L 385.613136 125.134574 
L 388.409177 125.134574 
L 388.409177 121.302178 
L 391.836114 121.302178 
L 391.836114 117.469782 
L 392.901392 117.469782 
L 392.901392 113.637386 
L 393.810448 113.637386 
L 393.810448 109.80499 
L 394.045064 109.80499 
L 394.045064 105.972594 
L 395.363673 105.972594 
L 395.363673 102.140198 
L 396.084921 102.140198 
L 396.084921 98.307802 
L 396.752747 98.307802 
L 396.845883 86.810614 
L 397.64821 86.810614 
L 397.64821 82.978218 
L 398.690144 82.978218 
L 398.690144 79.145822 
L 398.887556 79.145822 
L 398.887556 75.313426 
L 399.620362 75.313426 
L 399.704496 67.648634 
L 401.959052 67.648634 
L 401.959052 63.816238 
L 403.994943 63.816238 
L 403.994943 59.983842 
L 405.164415 59.983842 
L 405.164415 56.151446 
L 407.871816 56.151446 
L 407.871816 52.31905 
L 413.58784 52.31905 
L 413.58784 48.486653 
L 414.054784 48.486653 
L 414.064349 40.821861 
L 415.989373 40.821861 
L 415.989373 36.989465 
L 416.917575 36.989465 
L 416.999948 29.324673 
L 417.207152 29.324673 
L 417.245374 21.659881 
L 417.899101 21.659881 
L 417.90035 13.995089 
L 420.185828 13.995089 
L 420.185828 10.162693 
L 420.609394 10.162693 
L 420.609394 6.330297 
L 420.609394 6.330297 
L 460.8 6.330297 
L 460.8 6.330297 
" clip-path="url(#pc0da2dfaca)" style="fill: none; stroke: #f5deb3; stroke-width: 1.5; stroke-linecap: square"/>
   </g>
   <g id="line2d_18">
    <path d="M 332.307567 293.76 
L 332.307567 289.927604 
L 335.414955 289.927604 
L 335.414955 286.095208 
L 336.849432 286.095208 
L 336.849432 282.262812 
L 339.581852 282.262812 
L 339.581852 278.430416 
L 340.056775 278.430416 
L 340.056775 274.59802 
L 340.064255 274.59802 
L 340.064255 270.765624 
L 342.848458 270.765624 
L 342.848458 266.933228 
L 346.931629 266.933228 
L 346.931629 263.100832 
L 346.967991 263.100832 
L 346.967991 259.268436 
L 354.825319 259.268436 
L 354.825319 255.43604 
L 356.288008 255.43604 
L 356.288008 251.603644 
L 357.331644 251.603644 
L 357.331644 247.771248 
L 358.394842 247.771248 
L 358.394842 243.938851 
L 362.738843 243.938851 
L 362.738843 240.106455 
L 364.075548 240.106455 
L 364.075548 236.274059 
L 396.584623 236.274059 
L 396.584623 232.441663 
L 397.620811 232.441663 
L 397.620811 228.609267 
L 398.595336 228.609267 
L 398.595336 224.776871 
L 398.793089 224.776871 
L 398.793089 220.944475 
L 399.013345 220.944475 
L 399.013345 217.112079 
L 399.152838 217.112079 
L 399.152838 213.279683 
L 399.260354 213.279683 
L 399.260354 209.447287 
L 399.27486 209.447287 
L 399.27486 205.614891 
L 399.404734 205.614891 
L 399.404734 201.782495 
L 400.497922 201.782495 
L 400.497922 197.950099 
L 401.198365 197.950099 
L 401.198365 194.117703 
L 402.381449 194.117703 
L 402.381449 190.285307 
L 402.7958 190.285307 
L 402.7958 186.452911 
L 403.198258 186.452911 
L 403.198258 182.620515 
L 404.759693 182.620515 
L 404.759693 178.788119 
L 404.759693 178.788119 
L 404.759693 178.788119 
L 460.8 178.788119 
" clip-path="url(#pc0da2dfaca)" style="fill: none; stroke: #f5deb3; stroke-width: 1.5; stroke-linecap: square"/>
   </g>
   <g id="line2d_19">
    <path d="M 336.358243 293.76 
L 336.358243 289.927604 
L 336.61281 289.927604 
L 336.722772 282.262812 
L 336.802816 282.262812 
L 336.864218 274.59802 
L 337.074311 274.59802 
L 337.074311 270.765624 
L 337.251073 270.765624 
L 337.276676 263.100832 
L 337.712227 263.100832 
L 337.712227 259.268436 
L 337.824851 259.268436 
L 337.824851 255.43604 
L 337.951518 255.43604 
L 338.03119 247.771248 
L 338.395847 247.771248 
L 338.395847 243.938851 
L 338.852631 243.938851 
L 338.852631 240.106455 
L 339.364331 240.106455 
L 339.364331 236.274059 
L 343.725492 236.274059 
L 343.725492 232.441663 
L 343.964535 232.441663 
L 343.964535 228.609267 
L 344.452142 228.609267 
L 344.452142 224.776871 
L 344.598008 224.776871 
L 344.598008 220.944475 
L 344.709604 220.944475 
L 344.709604 217.112079 
L 346.17794 217.112079 
L 346.186635 209.447287 
L 346.313929 209.447287 
L 346.424101 201.782495 
L 346.64121 201.782495 
L 346.64121 197.950099 
L 346.899216 197.950099 
L 346.899216 194.117703 
L 347.014528 194.117703 
L 347.014528 190.285307 
L 347.444304 190.285307 
L 347.444304 186.452911 
L 348.797595 186.452911 
L 348.797595 182.620515 
L 349.051212 182.620515 
L 349.051212 178.788119 
L 349.257183 178.788119 
L 349.257183 174.955723 
L 350.785141 174.955723 
L 350.785141 171.123327 
L 351.755585 171.123327 
L 351.755585 167.290931 
L 352.202528 167.290931 
L 352.202528 163.458535 
L 352.467622 163.458535 
L 352.475493 155.793743 
L 352.791921 155.793743 
L 352.791921 151.961347 
L 353.17778 151.961347 
L 353.17778 148.12895 
L 353.434317 148.12895 
L 353.441032 140.464158 
L 353.647669 140.464158 
L 353.647669 136.631762 
L 353.832314 136.631762 
L 353.832314 132.799366 
L 354.460913 132.799366 
L 354.460913 128.96697 
L 354.799405 128.96697 
L 354.799405 125.134574 
L 355.642743 125.134574 
L 355.642743 121.302178 
L 366.555459 121.302178 
L 366.555459 117.469782 
L 366.793493 117.469782 
L 366.793493 113.637386 
L 369.220006 113.637386 
L 369.325351 105.972594 
L 371.229783 105.972594 
L 371.229783 102.140198 
L 371.433062 102.140198 
L 371.433062 98.307802 
L 371.684461 98.307802 
L 371.752036 90.64301 
L 371.996335 90.64301 
L 372.072212 82.978218 
L 372.44206 82.978218 
L 372.44206 79.145822 
L 372.753069 79.145822 
L 372.753069 75.313426 
L 374.349801 75.313426 
L 374.349801 71.48103 
L 375.427878 71.48103 
L 375.427878 67.648634 
L 376.254163 67.648634 
L 376.350305 59.983842 
L 376.522965 59.983842 
L 376.631531 48.486653 
L 377.632042 48.486653 
L 377.632042 44.654257 
L 378.166596 44.654257 
L 378.202053 36.989465 
L 378.306473 36.989465 
L 378.378847 29.324673 
L 378.498254 29.324673 
L 378.498254 25.492277 
L 378.9298 25.492277 
L 378.9298 21.659881 
L 379.428177 21.659881 
L 379.520086 13.995089 
L 381.910387 13.995089 
L 381.910387 10.162693 
L 387.217262 10.162693 
L 387.217262 6.330297 
L 387.217262 6.330297 
L 460.8 6.330297 
L 460.8 6.330297 
" clip-path="url(#pc0da2dfaca)" style="fill: none; stroke: #f5deb3; stroke-width: 1.5; stroke-linecap: square"/>
   </g>
   <g id="line2d_20"/>
   <g id="matplotlib.axis_1">
    <g id="xtick_1">
     <g id="line2d_21">
      <path d="M 62.208 293.76 
L 62.208 3.456 
" clip-path="url(#pc0da2dfaca)" style="fill: none; stroke: #b0b0b0; stroke-width: 0.8; stroke-linecap: square"/>
     </g>
     <g id="line2d_22">
      <defs>
       <path id="m0285d435fe" d="M 0 0 
L 0 3.5 
" style="stroke: #000000; stroke-width: 0.8"/>
      </defs>
      <g>
       <use xlink:href="#m0285d435fe" x="62.208" y="293.76" style="stroke: #000000; stroke-width: 0.8"/>
      </g>
     </g>
     <g id="text_1">
      <!-- 0 -->
      <g transform="translate(55.8455 315.956875) scale(0.2 -0.2)">
       <defs>
        <path id="DejaVuSans-30" d="M 2034 4250 
Q 1547 4250 1301 3770 
Q 1056 3291 1056 2328 
Q 1056 1369 1301 889 
Q 1547 409 2034 409 
Q 2525 409 2770 889 
Q 3016 1369 3016 2328 
Q 3016 3291 2770 3770 
Q 2525 4250 2034 4250 
z
M 2034 4750 
Q 2819 4750 3233 4129 
Q 3647 3509 3647 2328 
Q 3647 1150 3233 529 
Q 2819 -91 2034 -91 
Q 1250 -91 836 529 
Q 422 1150 422 2328 
Q 422 3509 836 4129 
Q 1250 4750 2034 4750 
z
" transform="scale(0.015625)"/>
       </defs>
       <use xlink:href="#DejaVuSans-30"/>
      </g>
     </g>
    </g>
    <g id="xtick_2">
     <g id="line2d_23">
      <path d="M 238.686545 293.76 
L 238.686545 3.456 
" clip-path="url(#pc0da2dfaca)" style="fill: none; stroke: #b0b0b0; stroke-width: 0.8; stroke-linecap: square"/>
     </g>
     <g id="line2d_24">
      <g>
       <use xlink:href="#m0285d435fe" x="238.686545" y="293.76" style="stroke: #000000; stroke-width: 0.8"/>
      </g>
     </g>
     <g id="text_2">
      <!-- 2 -->
      <g transform="translate(232.324045 315.956875) scale(0.2 -0.2)">
       <defs>
        <path id="DejaVuSans-32" d="M 1228 531 
L 3431 531 
L 3431 0 
L 469 0 
L 469 531 
Q 828 903 1448 1529 
Q 2069 2156 2228 2338 
Q 2531 2678 2651 2914 
Q 2772 3150 2772 3378 
Q 2772 3750 2511 3984 
Q 2250 4219 1831 4219 
Q 1534 4219 1204 4116 
Q 875 4013 500 3803 
L 500 4441 
Q 881 4594 1212 4672 
Q 1544 4750 1819 4750 
Q 2544 4750 2975 4387 
Q 3406 4025 3406 3419 
Q 3406 3131 3298 2873 
Q 3191 2616 2906 2266 
Q 2828 2175 2409 1742 
Q 1991 1309 1228 531 
z
" transform="scale(0.015625)"/>
       </defs>
       <use xlink:href="#DejaVuSans-32"/>
      </g>
     </g>
    </g>
    <g id="xtick_3">
     <g id="line2d_25">
      <path d="M 415.16509 293.76 
L 415.16509 3.456 
" clip-path="url(#pc0da2dfaca)" style="fill: none; stroke: #b0b0b0; stroke-width: 0.8; stroke-linecap: square"/>
     </g>
     <g id="line2d_26">
      <g>
       <use xlink:href="#m0285d435fe" x="415.16509" y="293.76" style="stroke: #000000; stroke-width: 0.8"/>
      </g>
     </g>
     <g id="text_3">
      <!-- 4 -->
      <g transform="translate(408.80259 315.956875) scale(0.2 -0.2)">
       <defs>
        <path id="DejaVuSans-34" d="M 2419 4116 
L 825 1625 
L 2419 1625 
L 2419 4116 
z
M 2253 4666 
L 3047 4666 
L 3047 1625 
L 3713 1625 
L 3713 1100 
L 3047 1100 
L 3047 0 
L 2419 0 
L 2419 1100 
L 313 1100 
L 313 1709 
L 2253 4666 
z
" transform="scale(0.015625)"/>
       </defs>
       <use xlink:href="#DejaVuSans-34"/>
      </g>
     </g>
    </g>
    <g id="xtick_4">
     <g id="line2d_27">
      <path d="M 88.770668 293.76 
L 88.770668 3.456 
" clip-path="url(#pc0da2dfaca)" style="fill: none; stroke: #b0b0b0; stroke-width: 0.8; stroke-linecap: square"/>
     </g>
     <g id="line2d_28">
      <defs>
       <path id="m94adcceae0" d="M 0 0 
L 0 2 
" style="stroke: #000000; stroke-width: 0.6"/>
      </defs>
      <g>
       <use xlink:href="#m94adcceae0" x="88.770668" y="293.76" style="stroke: #000000; stroke-width: 0.6"/>
      </g>
     </g>
    </g>
    <g id="xtick_5">
     <g id="line2d_29">
      <path d="M 104.308832 293.76 
L 104.308832 3.456 
" clip-path="url(#pc0da2dfaca)" style="fill: none; stroke: #b0b0b0; stroke-width: 0.8; stroke-linecap: square"/>
     </g>
     <g id="line2d_30">
      <g>
       <use xlink:href="#m94adcceae0" x="104.308832" y="293.76" style="stroke: #000000; stroke-width: 0.6"/>
      </g>
     </g>
    </g>
    <g id="xtick_6">
     <g id="line2d_31">
      <path d="M 115.333336 293.76 
L 115.333336 3.456 
" clip-path="url(#pc0da2dfaca)" style="fill: none; stroke: #b0b0b0; stroke-width: 0.8; stroke-linecap: square"/>
     </g>
     <g id="line2d_32">
      <g>
       <use xlink:href="#m94adcceae0" x="115.333336" y="293.76" style="stroke: #000000; stroke-width: 0.6"/>
      </g>
     </g>
    </g>
    <g id="xtick_7">
     <g id="line2d_33">
      <path d="M 123.884605 293.76 
L 123.884605 3.456 
" clip-path="url(#pc0da2dfaca)" style="fill: none; stroke: #b0b0b0; stroke-width: 0.8; stroke-linecap: square"/>
     </g>
     <g id="line2d_34">
      <g>
       <use xlink:href="#m94adcceae0" x="123.884605" y="293.76" style="stroke: #000000; stroke-width: 0.6"/>
      </g>
     </g>
    </g>
    <g id="xtick_8">
     <g id="line2d_35">
      <path d="M 130.8715 293.76 
L 130.8715 3.456 
" clip-path="url(#pc0da2dfaca)" style="fill: none; stroke: #b0b0b0; stroke-width: 0.8; stroke-linecap: square"/>
     </g>
     <g id="line2d_36">
      <g>
       <use xlink:href="#m94adcceae0" x="130.8715" y="293.76" style="stroke: #000000; stroke-width: 0.6"/>
      </g>
     </g>
    </g>
    <g id="xtick_9">
     <g id="line2d_37">
      <path d="M 136.778836 293.76 
L 136.778836 3.456 
" clip-path="url(#pc0da2dfaca)" style="fill: none; stroke: #b0b0b0; stroke-width: 0.8; stroke-linecap: square"/>
     </g>
     <g id="line2d_38">
      <g>
       <use xlink:href="#m94adcceae0" x="136.778836" y="293.76" style="stroke: #000000; stroke-width: 0.6"/>
      </g>
     </g>
    </g>
    <g id="xtick_10">
     <g id="line2d_39">
      <path d="M 141.896003 293.76 
L 141.896003 3.456 
" clip-path="url(#pc0da2dfaca)" style="fill: none; stroke: #b0b0b0; stroke-width: 0.8; stroke-linecap: square"/>
     </g>
     <g id="line2d_40">
      <g>
       <use xlink:href="#m94adcceae0" x="141.896003" y="293.76" style="stroke: #000000; stroke-width: 0.6"/>
      </g>
     </g>
    </g>
    <g id="xtick_11">
     <g id="line2d_41">
      <path d="M 146.409665 293.76 
L 146.409665 3.456 
" clip-path="url(#pc0da2dfaca)" style="fill: none; stroke: #b0b0b0; stroke-width: 0.8; stroke-linecap: square"/>
     </g>
     <g id="line2d_42">
      <g>
       <use xlink:href="#m94adcceae0" x="146.409665" y="293.76" style="stroke: #000000; stroke-width: 0.6"/>
      </g>
     </g>
    </g>
    <g id="xtick_12">
     <g id="line2d_43">
      <path d="M 177.00994 293.76 
L 177.00994 3.456 
" clip-path="url(#pc0da2dfaca)" style="fill: none; stroke: #b0b0b0; stroke-width: 0.8; stroke-linecap: square"/>
     </g>
     <g id="line2d_44">
      <g>
       <use xlink:href="#m94adcceae0" x="177.00994" y="293.76" style="stroke: #000000; stroke-width: 0.6"/>
      </g>
     </g>
    </g>
    <g id="xtick_13">
     <g id="line2d_45">
      <path d="M 192.548105 293.76 
L 192.548105 3.456 
" clip-path="url(#pc0da2dfaca)" style="fill: none; stroke: #b0b0b0; stroke-width: 0.8; stroke-linecap: square"/>
     </g>
     <g id="line2d_46">
      <g>
       <use xlink:href="#m94adcceae0" x="192.548105" y="293.76" style="stroke: #000000; stroke-width: 0.6"/>
      </g>
     </g>
    </g>
    <g id="xtick_14">
     <g id="line2d_47">
      <path d="M 203.572608 293.76 
L 203.572608 3.456 
" clip-path="url(#pc0da2dfaca)" style="fill: none; stroke: #b0b0b0; stroke-width: 0.8; stroke-linecap: square"/>
     </g>
     <g id="line2d_48">
      <g>
       <use xlink:href="#m94adcceae0" x="203.572608" y="293.76" style="stroke: #000000; stroke-width: 0.6"/>
      </g>
     </g>
    </g>
    <g id="xtick_15">
     <g id="line2d_49">
      <path d="M 212.123877 293.76 
L 212.123877 3.456 
" clip-path="url(#pc0da2dfaca)" style="fill: none; stroke: #b0b0b0; stroke-width: 0.8; stroke-linecap: square"/>
     </g>
     <g id="line2d_50">
      <g>
       <use xlink:href="#m94adcceae0" x="212.123877" y="293.76" style="stroke: #000000; stroke-width: 0.6"/>
      </g>
     </g>
    </g>
    <g id="xtick_16">
     <g id="line2d_51">
      <path d="M 219.110773 293.76 
L 219.110773 3.456 
" clip-path="url(#pc0da2dfaca)" style="fill: none; stroke: #b0b0b0; stroke-width: 0.8; stroke-linecap: square"/>
     </g>
     <g id="line2d_52">
      <g>
       <use xlink:href="#m94adcceae0" x="219.110773" y="293.76" style="stroke: #000000; stroke-width: 0.6"/>
      </g>
     </g>
    </g>
    <g id="xtick_17">
     <g id="line2d_53">
      <path d="M 225.018109 293.76 
L 225.018109 3.456 
" clip-path="url(#pc0da2dfaca)" style="fill: none; stroke: #b0b0b0; stroke-width: 0.8; stroke-linecap: square"/>
     </g>
     <g id="line2d_54">
      <g>
       <use xlink:href="#m94adcceae0" x="225.018109" y="293.76" style="stroke: #000000; stroke-width: 0.6"/>
      </g>
     </g>
    </g>
    <g id="xtick_18">
     <g id="line2d_55">
      <path d="M 230.135276 293.76 
L 230.135276 3.456 
" clip-path="url(#pc0da2dfaca)" style="fill: none; stroke: #b0b0b0; stroke-width: 0.8; stroke-linecap: square"/>
     </g>
     <g id="line2d_56">
      <g>
       <use xlink:href="#m94adcceae0" x="230.135276" y="293.76" style="stroke: #000000; stroke-width: 0.6"/>
      </g>
     </g>
    </g>
    <g id="xtick_19">
     <g id="line2d_57">
      <path d="M 234.648937 293.76 
L 234.648937 3.456 
" clip-path="url(#pc0da2dfaca)" style="fill: none; stroke: #b0b0b0; stroke-width: 0.8; stroke-linecap: square"/>
     </g>
     <g id="line2d_58">
      <g>
       <use xlink:href="#m94adcceae0" x="234.648937" y="293.76" style="stroke: #000000; stroke-width: 0.6"/>
      </g>
     </g>
    </g>
    <g id="xtick_20">
     <g id="line2d_59">
      <path d="M 265.249213 293.76 
L 265.249213 3.456 
" clip-path="url(#pc0da2dfaca)" style="fill: none; stroke: #b0b0b0; stroke-width: 0.8; stroke-linecap: square"/>
     </g>
     <g id="line2d_60">
      <g>
       <use xlink:href="#m94adcceae0" x="265.249213" y="293.76" style="stroke: #000000; stroke-width: 0.6"/>
      </g>
     </g>
    </g>
    <g id="xtick_21">
     <g id="line2d_61">
      <path d="M 280.787377 293.76 
L 280.787377 3.456 
" clip-path="url(#pc0da2dfaca)" style="fill: none; stroke: #b0b0b0; stroke-width: 0.8; stroke-linecap: square"/>
     </g>
     <g id="line2d_62">
      <g>
       <use xlink:href="#m94adcceae0" x="280.787377" y="293.76" style="stroke: #000000; stroke-width: 0.6"/>
      </g>
     </g>
    </g>
    <g id="xtick_22">
     <g id="line2d_63">
      <path d="M 291.81188 293.76 
L 291.81188 3.456 
" clip-path="url(#pc0da2dfaca)" style="fill: none; stroke: #b0b0b0; stroke-width: 0.8; stroke-linecap: square"/>
     </g>
     <g id="line2d_64">
      <g>
       <use xlink:href="#m94adcceae0" x="291.81188" y="293.76" style="stroke: #000000; stroke-width: 0.6"/>
      </g>
     </g>
    </g>
    <g id="xtick_23">
     <g id="line2d_65">
      <path d="M 300.363149 293.76 
L 300.363149 3.456 
" clip-path="url(#pc0da2dfaca)" style="fill: none; stroke: #b0b0b0; stroke-width: 0.8; stroke-linecap: square"/>
     </g>
     <g id="line2d_66">
      <g>
       <use xlink:href="#m94adcceae0" x="300.363149" y="293.76" style="stroke: #000000; stroke-width: 0.6"/>
      </g>
     </g>
    </g>
    <g id="xtick_24">
     <g id="line2d_67">
      <path d="M 307.350045 293.76 
L 307.350045 3.456 
" clip-path="url(#pc0da2dfaca)" style="fill: none; stroke: #b0b0b0; stroke-width: 0.8; stroke-linecap: square"/>
     </g>
     <g id="line2d_68">
      <g>
       <use xlink:href="#m94adcceae0" x="307.350045" y="293.76" style="stroke: #000000; stroke-width: 0.6"/>
      </g>
     </g>
    </g>
    <g id="xtick_25">
     <g id="line2d_69">
      <path d="M 313.257381 293.76 
L 313.257381 3.456 
" clip-path="url(#pc0da2dfaca)" style="fill: none; stroke: #b0b0b0; stroke-width: 0.8; stroke-linecap: square"/>
     </g>
     <g id="line2d_70">
      <g>
       <use xlink:href="#m94adcceae0" x="313.257381" y="293.76" style="stroke: #000000; stroke-width: 0.6"/>
      </g>
     </g>
    </g>
    <g id="xtick_26">
     <g id="line2d_71">
      <path d="M 318.374548 293.76 
L 318.374548 3.456 
" clip-path="url(#pc0da2dfaca)" style="fill: none; stroke: #b0b0b0; stroke-width: 0.8; stroke-linecap: square"/>
     </g>
     <g id="line2d_72">
      <g>
       <use xlink:href="#m94adcceae0" x="318.374548" y="293.76" style="stroke: #000000; stroke-width: 0.6"/>
      </g>
     </g>
    </g>
    <g id="xtick_27">
     <g id="line2d_73">
      <path d="M 322.88821 293.76 
L 322.88821 3.456 
" clip-path="url(#pc0da2dfaca)" style="fill: none; stroke: #b0b0b0; stroke-width: 0.8; stroke-linecap: square"/>
     </g>
     <g id="line2d_74">
      <g>
       <use xlink:href="#m94adcceae0" x="322.88821" y="293.76" style="stroke: #000000; stroke-width: 0.6"/>
      </g>
     </g>
    </g>
    <g id="xtick_28">
     <g id="line2d_75">
      <path d="M 353.488485 293.76 
L 353.488485 3.456 
" clip-path="url(#pc0da2dfaca)" style="fill: none; stroke: #b0b0b0; stroke-width: 0.8; stroke-linecap: square"/>
     </g>
     <g id="line2d_76">
      <g>
       <use xlink:href="#m94adcceae0" x="353.488485" y="293.76" style="stroke: #000000; stroke-width: 0.6"/>
      </g>
     </g>
    </g>
    <g id="xtick_29">
     <g id="line2d_77">
      <path d="M 369.02665 293.76 
L 369.02665 3.456 
" clip-path="url(#pc0da2dfaca)" style="fill: none; stroke: #b0b0b0; stroke-width: 0.8; stroke-linecap: square"/>
     </g>
     <g id="line2d_78">
      <g>
       <use xlink:href="#m94adcceae0" x="369.02665" y="293.76" style="stroke: #000000; stroke-width: 0.6"/>
      </g>
     </g>
    </g>
    <g id="xtick_30">
     <g id="line2d_79">
      <path d="M 380.051153 293.76 
L 380.051153 3.456 
" clip-path="url(#pc0da2dfaca)" style="fill: none; stroke: #b0b0b0; stroke-width: 0.8; stroke-linecap: square"/>
     </g>
     <g id="line2d_80">
      <g>
       <use xlink:href="#m94adcceae0" x="380.051153" y="293.76" style="stroke: #000000; stroke-width: 0.6"/>
      </g>
     </g>
    </g>
    <g id="xtick_31">
     <g id="line2d_81">
      <path d="M 388.602422 293.76 
L 388.602422 3.456 
" clip-path="url(#pc0da2dfaca)" style="fill: none; stroke: #b0b0b0; stroke-width: 0.8; stroke-linecap: square"/>
     </g>
     <g id="line2d_82">
      <g>
       <use xlink:href="#m94adcceae0" x="388.602422" y="293.76" style="stroke: #000000; stroke-width: 0.6"/>
      </g>
     </g>
    </g>
    <g id="xtick_32">
     <g id="line2d_83">
      <path d="M 395.589317 293.76 
L 395.589317 3.456 
" clip-path="url(#pc0da2dfaca)" style="fill: none; stroke: #b0b0b0; stroke-width: 0.8; stroke-linecap: square"/>
     </g>
     <g id="line2d_84">
      <g>
       <use xlink:href="#m94adcceae0" x="395.589317" y="293.76" style="stroke: #000000; stroke-width: 0.6"/>
      </g>
     </g>
    </g>
    <g id="xtick_33">
     <g id="line2d_85">
      <path d="M 401.496653 293.76 
L 401.496653 3.456 
" clip-path="url(#pc0da2dfaca)" style="fill: none; stroke: #b0b0b0; stroke-width: 0.8; stroke-linecap: square"/>
     </g>
     <g id="line2d_86">
      <g>
       <use xlink:href="#m94adcceae0" x="401.496653" y="293.76" style="stroke: #000000; stroke-width: 0.6"/>
      </g>
     </g>
    </g>
    <g id="xtick_34">
     <g id="line2d_87">
      <path d="M 406.613821 293.76 
L 406.613821 3.456 
" clip-path="url(#pc0da2dfaca)" style="fill: none; stroke: #b0b0b0; stroke-width: 0.8; stroke-linecap: square"/>
     </g>
     <g id="line2d_88">
      <g>
       <use xlink:href="#m94adcceae0" x="406.613821" y="293.76" style="stroke: #000000; stroke-width: 0.6"/>
      </g>
     </g>
    </g>
    <g id="xtick_35">
     <g id="line2d_89">
      <path d="M 411.127482 293.76 
L 411.127482 3.456 
" clip-path="url(#pc0da2dfaca)" style="fill: none; stroke: #b0b0b0; stroke-width: 0.8; stroke-linecap: square"/>
     </g>
     <g id="line2d_90">
      <g>
       <use xlink:href="#m94adcceae0" x="411.127482" y="293.76" style="stroke: #000000; stroke-width: 0.6"/>
      </g>
     </g>
    </g>
    <g id="xtick_36">
     <g id="line2d_91">
      <path d="M 441.727758 293.76 
L 441.727758 3.456 
" clip-path="url(#pc0da2dfaca)" style="fill: none; stroke: #b0b0b0; stroke-width: 0.8; stroke-linecap: square"/>
     </g>
     <g id="line2d_92">
      <g>
       <use xlink:href="#m94adcceae0" x="441.727758" y="293.76" style="stroke: #000000; stroke-width: 0.6"/>
      </g>
     </g>
    </g>
    <g id="xtick_37">
     <g id="line2d_93">
      <path d="M 457.265922 293.76 
L 457.265922 3.456 
" clip-path="url(#pc0da2dfaca)" style="fill: none; stroke: #b0b0b0; stroke-width: 0.8; stroke-linecap: square"/>
     </g>
     <g id="line2d_94">
      <g>
       <use xlink:href="#m94adcceae0" x="457.265922" y="293.76" style="stroke: #000000; stroke-width: 0.6"/>
      </g>
     </g>
    </g>
    <g id="text_4">
     <!-- log10 of FEvals / DIM -->
     <g transform="translate(156.430563 339.313125) scale(0.2 -0.2)">
      <defs>
       <path id="DejaVuSans-6c" d="M 603 4863 
L 1178 4863 
L 1178 0 
L 603 0 
L 603 4863 
z
" transform="scale(0.015625)"/>
       <path id="DejaVuSans-6f" d="M 1959 3097 
Q 1497 3097 1228 2736 
Q 959 2375 959 1747 
Q 959 1119 1226 758 
Q 1494 397 1959 397 
Q 2419 397 2687 759 
Q 2956 1122 2956 1747 
Q 2956 2369 2687 2733 
Q 2419 3097 1959 3097 
z
M 1959 3584 
Q 2709 3584 3137 3096 
Q 3566 2609 3566 1747 
Q 3566 888 3137 398 
Q 2709 -91 1959 -91 
Q 1206 -91 779 398 
Q 353 888 353 1747 
Q 353 2609 779 3096 
Q 1206 3584 1959 3584 
z
" transform="scale(0.015625)"/>
       <path id="DejaVuSans-67" d="M 2906 1791 
Q 2906 2416 2648 2759 
Q 2391 3103 1925 3103 
Q 1463 3103 1205 2759 
Q 947 2416 947 1791 
Q 947 1169 1205 825 
Q 1463 481 1925 481 
Q 2391 481 2648 825 
Q 2906 1169 2906 1791 
z
M 3481 434 
Q 3481 -459 3084 -895 
Q 2688 -1331 1869 -1331 
Q 1566 -1331 1297 -1286 
Q 1028 -1241 775 -1147 
L 775 -588 
Q 1028 -725 1275 -790 
Q 1522 -856 1778 -856 
Q 2344 -856 2625 -561 
Q 2906 -266 2906 331 
L 2906 616 
Q 2728 306 2450 153 
Q 2172 0 1784 0 
Q 1141 0 747 490 
Q 353 981 353 1791 
Q 353 2603 747 3093 
Q 1141 3584 1784 3584 
Q 2172 3584 2450 3431 
Q 2728 3278 2906 2969 
L 2906 3500 
L 3481 3500 
L 3481 434 
z
" transform="scale(0.015625)"/>
       <path id="DejaVuSans-31" d="M 794 531 
L 1825 531 
L 1825 4091 
L 703 3866 
L 703 4441 
L 1819 4666 
L 2450 4666 
L 2450 531 
L 3481 531 
L 3481 0 
L 794 0 
L 794 531 
z
" transform="scale(0.015625)"/>
       <path id="DejaVuSans-20" transform="scale(0.015625)"/>
       <path id="DejaVuSans-66" d="M 2375 4863 
L 2375 4384 
L 1825 4384 
Q 1516 4384 1395 4259 
Q 1275 4134 1275 3809 
L 1275 3500 
L 2222 3500 
L 2222 3053 
L 1275 3053 
L 1275 0 
L 697 0 
L 697 3053 
L 147 3053 
L 147 3500 
L 697 3500 
L 697 3744 
Q 697 4328 969 4595 
Q 1241 4863 1831 4863 
L 2375 4863 
z
" transform="scale(0.015625)"/>
       <path id="DejaVuSans-46" d="M 628 4666 
L 3309 4666 
L 3309 4134 
L 1259 4134 
L 1259 2759 
L 3109 2759 
L 3109 2228 
L 1259 2228 
L 1259 0 
L 628 0 
L 628 4666 
z
" transform="scale(0.015625)"/>
       <path id="DejaVuSans-45" d="M 628 4666 
L 3578 4666 
L 3578 4134 
L 1259 4134 
L 1259 2753 
L 3481 2753 
L 3481 2222 
L 1259 2222 
L 1259 531 
L 3634 531 
L 3634 0 
L 628 0 
L 628 4666 
z
" transform="scale(0.015625)"/>
       <path id="DejaVuSans-76" d="M 191 3500 
L 800 3500 
L 1894 563 
L 2988 3500 
L 3597 3500 
L 2284 0 
L 1503 0 
L 191 3500 
z
" transform="scale(0.015625)"/>
       <path id="DejaVuSans-61" d="M 2194 1759 
Q 1497 1759 1228 1600 
Q 959 1441 959 1056 
Q 959 750 1161 570 
Q 1363 391 1709 391 
Q 2188 391 2477 730 
Q 2766 1069 2766 1631 
L 2766 1759 
L 2194 1759 
z
M 3341 1997 
L 3341 0 
L 2766 0 
L 2766 531 
Q 2569 213 2275 61 
Q 1981 -91 1556 -91 
Q 1019 -91 701 211 
Q 384 513 384 1019 
Q 384 1609 779 1909 
Q 1175 2209 1959 2209 
L 2766 2209 
L 2766 2266 
Q 2766 2663 2505 2880 
Q 2244 3097 1772 3097 
Q 1472 3097 1187 3025 
Q 903 2953 641 2809 
L 641 3341 
Q 956 3463 1253 3523 
Q 1550 3584 1831 3584 
Q 2591 3584 2966 3190 
Q 3341 2797 3341 1997 
z
" transform="scale(0.015625)"/>
       <path id="DejaVuSans-73" d="M 2834 3397 
L 2834 2853 
Q 2591 2978 2328 3040 
Q 2066 3103 1784 3103 
Q 1356 3103 1142 2972 
Q 928 2841 928 2578 
Q 928 2378 1081 2264 
Q 1234 2150 1697 2047 
L 1894 2003 
Q 2506 1872 2764 1633 
Q 3022 1394 3022 966 
Q 3022 478 2636 193 
Q 2250 -91 1575 -91 
Q 1294 -91 989 -36 
Q 684 19 347 128 
L 347 722 
Q 666 556 975 473 
Q 1284 391 1588 391 
Q 1994 391 2212 530 
Q 2431 669 2431 922 
Q 2431 1156 2273 1281 
Q 2116 1406 1581 1522 
L 1381 1569 
Q 847 1681 609 1914 
Q 372 2147 372 2553 
Q 372 3047 722 3315 
Q 1072 3584 1716 3584 
Q 2034 3584 2315 3537 
Q 2597 3491 2834 3397 
z
" transform="scale(0.015625)"/>
       <path id="DejaVuSans-2f" d="M 1625 4666 
L 2156 4666 
L 531 -594 
L 0 -594 
L 1625 4666 
z
" transform="scale(0.015625)"/>
       <path id="DejaVuSans-44" d="M 1259 4147 
L 1259 519 
L 2022 519 
Q 2988 519 3436 956 
Q 3884 1394 3884 2338 
Q 3884 3275 3436 3711 
Q 2988 4147 2022 4147 
L 1259 4147 
z
M 628 4666 
L 1925 4666 
Q 3281 4666 3915 4102 
Q 4550 3538 4550 2338 
Q 4550 1131 3912 565 
Q 3275 0 1925 0 
L 628 0 
L 628 4666 
z
" transform="scale(0.015625)"/>
       <path id="DejaVuSans-49" d="M 628 4666 
L 1259 4666 
L 1259 0 
L 628 0 
L 628 4666 
z
" transform="scale(0.015625)"/>
       <path id="DejaVuSans-4d" d="M 628 4666 
L 1569 4666 
L 2759 1491 
L 3956 4666 
L 4897 4666 
L 4897 0 
L 4281 0 
L 4281 4097 
L 3078 897 
L 2444 897 
L 1241 4097 
L 1241 0 
L 628 0 
L 628 4666 
z
" transform="scale(0.015625)"/>
      </defs>
      <use xlink:href="#DejaVuSans-6c"/>
      <use xlink:href="#DejaVuSans-6f" x="27.783203"/>
      <use xlink:href="#DejaVuSans-67" x="88.964844"/>
      <use xlink:href="#DejaVuSans-31" x="152.441406"/>
      <use xlink:href="#DejaVuSans-30" x="216.064453"/>
      <use xlink:href="#DejaVuSans-20" x="279.6875"/>
      <use xlink:href="#DejaVuSans-6f" x="311.474609"/>
      <use xlink:href="#DejaVuSans-66" x="372.65625"/>
      <use xlink:href="#DejaVuSans-20" x="407.861328"/>
      <use xlink:href="#DejaVuSans-46" x="439.648438"/>
      <use xlink:href="#DejaVuSans-45" x="497.167969"/>
      <use xlink:href="#DejaVuSans-76" x="560.351562"/>
      <use xlink:href="#DejaVuSans-61" x="619.53125"/>
      <use xlink:href="#DejaVuSans-6c" x="680.810547"/>
      <use xlink:href="#DejaVuSans-73" x="708.59375"/>
      <use xlink:href="#DejaVuSans-20" x="760.693359"/>
      <use xlink:href="#DejaVuSans-2f" x="792.480469"/>
      <use xlink:href="#DejaVuSans-20" x="826.171875"/>
      <use xlink:href="#DejaVuSans-44" x="857.958984"/>
      <use xlink:href="#DejaVuSans-49" x="934.960938"/>
      <use xlink:href="#DejaVuSans-4d" x="964.453125"/>
     </g>
    </g>
   </g>
   <g id="matplotlib.axis_2">
    <g id="ytick_1">
     <g id="line2d_95">
      <path d="M 62.208 293.76 
L 460.8 293.76 
" clip-path="url(#pc0da2dfaca)" style="fill: none; stroke: #b0b0b0; stroke-width: 0.8; stroke-linecap: square"/>
     </g>
     <g id="line2d_96">
      <defs>
       <path id="m5077b52df3" d="M 0 0 
L -3.5 0 
" style="stroke: #000000; stroke-width: 0.8"/>
      </defs>
      <g>
       <use xlink:href="#m5077b52df3" x="62.208" y="293.76" style="stroke: #000000; stroke-width: 0.8"/>
      </g>
     </g>
     <g id="text_5">
      <!-- 0.0 -->
      <g transform="translate(29.763 299.83875) scale(0.16 -0.16)">
       <defs>
        <path id="DejaVuSans-2e" d="M 684 794 
L 1344 794 
L 1344 0 
L 684 0 
L 684 794 
z
" transform="scale(0.015625)"/>
       </defs>
       <use xlink:href="#DejaVuSans-30"/>
       <use xlink:href="#DejaVuSans-2e" x="63.623047"/>
       <use xlink:href="#DejaVuSans-30" x="95.410156"/>
      </g>
     </g>
    </g>
    <g id="ytick_2">
     <g id="line2d_97">
      <path d="M 62.208 236.274059 
L 460.8 236.274059 
" clip-path="url(#pc0da2dfaca)" style="fill: none; stroke: #b0b0b0; stroke-width: 0.8; stroke-linecap: square"/>
     </g>
     <g id="line2d_98">
      <g>
       <use xlink:href="#m5077b52df3" x="62.208" y="236.274059" style="stroke: #000000; stroke-width: 0.8"/>
      </g>
     </g>
     <g id="text_6">
      <!-- 0.2 -->
      <g transform="translate(29.763 242.352809) scale(0.16 -0.16)">
       <use xlink:href="#DejaVuSans-30"/>
       <use xlink:href="#DejaVuSans-2e" x="63.623047"/>
       <use xlink:href="#DejaVuSans-32" x="95.410156"/>
      </g>
     </g>
    </g>
    <g id="ytick_3">
     <g id="line2d_99">
      <path d="M 62.208 178.788119 
L 460.8 178.788119 
" clip-path="url(#pc0da2dfaca)" style="fill: none; stroke: #b0b0b0; stroke-width: 0.8; stroke-linecap: square"/>
     </g>
     <g id="line2d_100">
      <g>
       <use xlink:href="#m5077b52df3" x="62.208" y="178.788119" style="stroke: #000000; stroke-width: 0.8"/>
      </g>
     </g>
     <g id="text_7">
      <!-- 0.4 -->
      <g transform="translate(29.763 184.866869) scale(0.16 -0.16)">
       <use xlink:href="#DejaVuSans-30"/>
       <use xlink:href="#DejaVuSans-2e" x="63.623047"/>
       <use xlink:href="#DejaVuSans-34" x="95.410156"/>
      </g>
     </g>
    </g>
    <g id="ytick_4">
     <g id="line2d_101">
      <path d="M 62.208 121.302178 
L 460.8 121.302178 
" clip-path="url(#pc0da2dfaca)" style="fill: none; stroke: #b0b0b0; stroke-width: 0.8; stroke-linecap: square"/>
     </g>
     <g id="line2d_102">
      <g>
       <use xlink:href="#m5077b52df3" x="62.208" y="121.302178" style="stroke: #000000; stroke-width: 0.8"/>
      </g>
     </g>
     <g id="text_8">
      <!-- 0.6 -->
      <g transform="translate(29.763 127.380928) scale(0.16 -0.16)">
       <defs>
        <path id="DejaVuSans-36" d="M 2113 2584 
Q 1688 2584 1439 2293 
Q 1191 2003 1191 1497 
Q 1191 994 1439 701 
Q 1688 409 2113 409 
Q 2538 409 2786 701 
Q 3034 994 3034 1497 
Q 3034 2003 2786 2293 
Q 2538 2584 2113 2584 
z
M 3366 4563 
L 3366 3988 
Q 3128 4100 2886 4159 
Q 2644 4219 2406 4219 
Q 1781 4219 1451 3797 
Q 1122 3375 1075 2522 
Q 1259 2794 1537 2939 
Q 1816 3084 2150 3084 
Q 2853 3084 3261 2657 
Q 3669 2231 3669 1497 
Q 3669 778 3244 343 
Q 2819 -91 2113 -91 
Q 1303 -91 875 529 
Q 447 1150 447 2328 
Q 447 3434 972 4092 
Q 1497 4750 2381 4750 
Q 2619 4750 2861 4703 
Q 3103 4656 3366 4563 
z
" transform="scale(0.015625)"/>
       </defs>
       <use xlink:href="#DejaVuSans-30"/>
       <use xlink:href="#DejaVuSans-2e" x="63.623047"/>
       <use xlink:href="#DejaVuSans-36" x="95.410156"/>
      </g>
     </g>
    </g>
    <g id="ytick_5">
     <g id="line2d_103">
      <path d="M 62.208 63.816238 
L 460.8 63.816238 
" clip-path="url(#pc0da2dfaca)" style="fill: none; stroke: #b0b0b0; stroke-width: 0.8; stroke-linecap: square"/>
     </g>
     <g id="line2d_104">
      <g>
       <use xlink:href="#m5077b52df3" x="62.208" y="63.816238" style="stroke: #000000; stroke-width: 0.8"/>
      </g>
     </g>
     <g id="text_9">
      <!-- 0.8 -->
      <g transform="translate(29.763 69.894988) scale(0.16 -0.16)">
       <defs>
        <path id="DejaVuSans-38" d="M 2034 2216 
Q 1584 2216 1326 1975 
Q 1069 1734 1069 1313 
Q 1069 891 1326 650 
Q 1584 409 2034 409 
Q 2484 409 2743 651 
Q 3003 894 3003 1313 
Q 3003 1734 2745 1975 
Q 2488 2216 2034 2216 
z
M 1403 2484 
Q 997 2584 770 2862 
Q 544 3141 544 3541 
Q 544 4100 942 4425 
Q 1341 4750 2034 4750 
Q 2731 4750 3128 4425 
Q 3525 4100 3525 3541 
Q 3525 3141 3298 2862 
Q 3072 2584 2669 2484 
Q 3125 2378 3379 2068 
Q 3634 1759 3634 1313 
Q 3634 634 3220 271 
Q 2806 -91 2034 -91 
Q 1263 -91 848 271 
Q 434 634 434 1313 
Q 434 1759 690 2068 
Q 947 2378 1403 2484 
z
M 1172 3481 
Q 1172 3119 1398 2916 
Q 1625 2713 2034 2713 
Q 2441 2713 2670 2916 
Q 2900 3119 2900 3481 
Q 2900 3844 2670 4047 
Q 2441 4250 2034 4250 
Q 1625 4250 1398 4047 
Q 1172 3844 1172 3481 
z
" transform="scale(0.015625)"/>
       </defs>
       <use xlink:href="#DejaVuSans-30"/>
       <use xlink:href="#DejaVuSans-2e" x="63.623047"/>
       <use xlink:href="#DejaVuSans-38" x="95.410156"/>
      </g>
     </g>
    </g>
    <g id="ytick_6">
     <g id="line2d_105">
      <path d="M 62.208 6.330297 
L 460.8 6.330297 
" clip-path="url(#pc0da2dfaca)" style="fill: none; stroke: #b0b0b0; stroke-width: 0.8; stroke-linecap: square"/>
     </g>
     <g id="line2d_106">
      <g>
       <use xlink:href="#m5077b52df3" x="62.208" y="6.330297" style="stroke: #000000; stroke-width: 0.8"/>
      </g>
     </g>
     <g id="text_10">
      <!-- 1.0 -->
      <g transform="translate(29.763 12.409047) scale(0.16 -0.16)">
       <use xlink:href="#DejaVuSans-31"/>
       <use xlink:href="#DejaVuSans-2e" x="63.623047"/>
       <use xlink:href="#DejaVuSans-30" x="95.410156"/>
      </g>
     </g>
    </g>
    <g id="text_11">
     <!-- proportion of trials -->
     <g transform="translate(21.603625 241.61425) rotate(-90) scale(0.2 -0.2)">
      <defs>
       <path id="DejaVuSans-70" d="M 1159 525 
L 1159 -1331 
L 581 -1331 
L 581 3500 
L 1159 3500 
L 1159 2969 
Q 1341 3281 1617 3432 
Q 1894 3584 2278 3584 
Q 2916 3584 3314 3078 
Q 3713 2572 3713 1747 
Q 3713 922 3314 415 
Q 2916 -91 2278 -91 
Q 1894 -91 1617 61 
Q 1341 213 1159 525 
z
M 3116 1747 
Q 3116 2381 2855 2742 
Q 2594 3103 2138 3103 
Q 1681 3103 1420 2742 
Q 1159 2381 1159 1747 
Q 1159 1113 1420 752 
Q 1681 391 2138 391 
Q 2594 391 2855 752 
Q 3116 1113 3116 1747 
z
" transform="scale(0.015625)"/>
       <path id="DejaVuSans-72" d="M 2631 2963 
Q 2534 3019 2420 3045 
Q 2306 3072 2169 3072 
Q 1681 3072 1420 2755 
Q 1159 2438 1159 1844 
L 1159 0 
L 581 0 
L 581 3500 
L 1159 3500 
L 1159 2956 
Q 1341 3275 1631 3429 
Q 1922 3584 2338 3584 
Q 2397 3584 2469 3576 
Q 2541 3569 2628 3553 
L 2631 2963 
z
" transform="scale(0.015625)"/>
       <path id="DejaVuSans-74" d="M 1172 4494 
L 1172 3500 
L 2356 3500 
L 2356 3053 
L 1172 3053 
L 1172 1153 
Q 1172 725 1289 603 
Q 1406 481 1766 481 
L 2356 481 
L 2356 0 
L 1766 0 
Q 1100 0 847 248 
Q 594 497 594 1153 
L 594 3053 
L 172 3053 
L 172 3500 
L 594 3500 
L 594 4494 
L 1172 4494 
z
" transform="scale(0.015625)"/>
       <path id="DejaVuSans-69" d="M 603 3500 
L 1178 3500 
L 1178 0 
L 603 0 
L 603 3500 
z
M 603 4863 
L 1178 4863 
L 1178 4134 
L 603 4134 
L 603 4863 
z
" transform="scale(0.015625)"/>
       <path id="DejaVuSans-6e" d="M 3513 2113 
L 3513 0 
L 2938 0 
L 2938 2094 
Q 2938 2591 2744 2837 
Q 2550 3084 2163 3084 
Q 1697 3084 1428 2787 
Q 1159 2491 1159 1978 
L 1159 0 
L 581 0 
L 581 3500 
L 1159 3500 
L 1159 2956 
Q 1366 3272 1645 3428 
Q 1925 3584 2291 3584 
Q 2894 3584 3203 3211 
Q 3513 2838 3513 2113 
z
" transform="scale(0.015625)"/>
      </defs>
      <use xlink:href="#DejaVuSans-70"/>
      <use xlink:href="#DejaVuSans-72" x="63.476562"/>
      <use xlink:href="#DejaVuSans-6f" x="102.339844"/>
      <use xlink:href="#DejaVuSans-70" x="163.521484"/>
      <use xlink:href="#DejaVuSans-6f" x="226.998047"/>
      <use xlink:href="#DejaVuSans-72" x="288.179688"/>
      <use xlink:href="#DejaVuSans-74" x="329.292969"/>
      <use xlink:href="#DejaVuSans-69" x="368.501953"/>
      <use xlink:href="#DejaVuSans-6f" x="396.285156"/>
      <use xlink:href="#DejaVuSans-6e" x="457.466797"/>
      <use xlink:href="#DejaVuSans-20" x="520.845703"/>
      <use xlink:href="#DejaVuSans-6f" x="552.632812"/>
      <use xlink:href="#DejaVuSans-66" x="613.814453"/>
      <use xlink:href="#DejaVuSans-20" x="649.019531"/>
      <use xlink:href="#DejaVuSans-74" x="680.806641"/>
      <use xlink:href="#DejaVuSans-72" x="720.015625"/>
      <use xlink:href="#DejaVuSans-69" x="761.128906"/>
      <use xlink:href="#DejaVuSans-61" x="788.912109"/>
      <use xlink:href="#DejaVuSans-6c" x="850.191406"/>
      <use xlink:href="#DejaVuSans-73" x="877.974609"/>
     </g>
    </g>
   </g>
   <g id="line2d_107">
    <path d="M -1 286.095208 
L 24.620829 286.095208 
L 24.620829 282.262812 
L 39.297793 282.262812 
L 39.297793 278.430416 
L 49.884327 278.430416 
L 49.884327 274.59802 
L 49.884327 274.59802 
L 49.884327 270.765624 
L 49.884327 270.765624 
L 49.884327 266.933228 
L 58.170392 266.933228 
L 58.170392 263.100832 
L 72.262279 263.100832 
L 72.262279 259.268436 
L 80.813548 259.268436 
L 80.813548 255.43604 
L 99.191665 255.43604 
L 99.191665 251.603644 
L 109.38606 251.603644 
L 109.38606 247.771248 
L 110.216168 247.771248 
L 110.216168 243.938851 
L 123.305422 243.938851 
L 123.305422 240.106455 
L 136.504127 240.106455 
L 136.504127 236.274059 
L 148.076094 236.274059 
L 148.076094 232.441663 
L 151.017831 232.441663 
L 151.017831 228.609267 
L 153.040076 228.609267 
L 153.040076 224.776871 
L 157.113481 224.776871 
L 157.113481 220.944475 
L 161.591345 220.944475 
L 161.591345 217.112079 
L 164.019784 217.112079 
L 164.019784 213.279683 
L 164.086957 213.279683 
L 164.086957 209.447287 
L 165.341357 209.447287 
L 165.341357 205.614891 
L 166.806876 205.614891 
L 166.806876 201.782495 
L 167.611076 201.782495 
L 167.611076 197.950099 
L 168.398747 197.950099 
L 168.398747 194.117703 
L 170.442283 194.117703 
L 170.442283 190.285307 
L 171.17439 190.285307 
L 171.17439 186.452911 
L 177.343798 186.452911 
L 177.343798 182.620515 
L 177.909444 182.620515 
L 177.909444 178.788119 
L 208.845142 178.788119 
L 208.845142 174.955723 
L 208.866009 174.955723 
L 208.866009 171.123327 
L 209.115528 171.123327 
L 209.115528 167.290931 
L 211.50577 167.290931 
L 211.50577 163.458535 
L 211.622427 163.458535 
L 211.622427 159.626139 
L 215.828559 159.626139 
L 215.828559 155.793743 
L 231.326113 155.793743 
L 231.326113 151.961347 
L 326.035102 151.961347 
L 326.035102 148.12895 
L 328.914887 148.12895 
L 328.914887 144.296554 
L 329.511457 144.296554 
L 329.511457 140.464158 
L 331.027656 140.464158 
L 331.027656 136.631762 
L 332.428923 136.631762 
L 332.428923 132.799366 
L 337.220327 132.799366 
L 337.220327 128.96697 
L 340.894286 128.96697 
L 340.894286 125.134574 
L 343.5297 125.134574 
L 343.5297 121.302178 
L 348.495389 121.302178 
L 348.495389 117.469782 
L 351.490548 117.469782 
L 351.490548 113.637386 
L 353.003047 113.637386 
L 353.003047 109.80499 
L 357.848124 109.80499 
L 357.848124 105.972594 
L 358.221231 105.972594 
L 358.221231 102.140198 
L 360.299335 102.140198 
L 360.299335 98.307802 
L 361.959194 98.307802 
L 361.959194 94.475406 
L 364.088991 94.475406 
L 364.088991 90.64301 
L 367.434323 90.64301 
L 367.434323 86.810614 
L 371.024208 86.810614 
L 371.024208 82.978218 
L 372.568048 82.978218 
L 372.568048 79.145822 
L 374.26828 79.145822 
L 374.26828 75.313426 
L 375.476217 75.313426 
L 375.476217 71.48103 
L 376.922406 71.48103 
L 376.922406 67.648634 
L 393.55789 67.648634 
L 393.55789 63.816238 
L 393.55789 63.816238 
L 393.55789 63.816238 
L 460.8 63.816238 
" clip-path="url(#pc0da2dfaca)" style="fill: none; stroke: #000000; stroke-width: 1.5; stroke-linecap: square"/>
   </g>
   <g id="line2d_108">
    <defs>
     <path id="m51248edced" d="M 0 14.142136 
L 8.485281 0 
L 0 -14.142136 
L -8.485281 0 
z
" style="stroke: #000000; stroke-width: 1.5; stroke-linejoin: miter"/>
    </defs>
    <g clip-path="url(#pc0da2dfaca)">
     <use xlink:href="#m51248edced" x="99.191665" y="255.43604" style="fill-opacity: 0; stroke: #000000; stroke-width: 1.5; stroke-linejoin: miter"/>
     <use xlink:href="#m51248edced" x="164.086957" y="213.279683" style="fill-opacity: 0; stroke: #000000; stroke-width: 1.5; stroke-linejoin: miter"/>
     <use xlink:href="#m51248edced" x="211.622427" y="163.458535" style="fill-opacity: 0; stroke: #000000; stroke-width: 1.5; stroke-linejoin: miter"/>
     <use xlink:href="#m51248edced" x="331.027656" y="140.464158" style="fill-opacity: 0; stroke: #000000; stroke-width: 1.5; stroke-linejoin: miter"/>
     <use xlink:href="#m51248edced" x="367.434323" y="90.64301" style="fill-opacity: 0; stroke: #000000; stroke-width: 1.5; stroke-linejoin: miter"/>
     <use xlink:href="#m51248edced" x="393.55789" y="63.816238" style="fill-opacity: 0; stroke: #000000; stroke-width: 1.5; stroke-linejoin: miter"/>
    </g>
   </g>
   <g id="line2d_109">
    <path clip-path="url(#pc0da2dfaca)" style="fill: none; stroke: #000000; stroke-width: 1.5; stroke-linecap: square"/>
    <g clip-path="url(#pc0da2dfaca)">
     <use xlink:href="#m51248edced" x="-1" y="581.189703" style="fill-opacity: 0; stroke: #000000; stroke-width: 1.5; stroke-linejoin: miter"/>
     <use xlink:href="#m51248edced" x="460.8" y="581.189703" style="fill-opacity: 0; stroke: #000000; stroke-width: 1.5; stroke-linejoin: miter"/>
    </g>
   </g>
   <g id="line2d_110">
    <path d="M -1 289.927604 
L 35.645332 289.927604 
L 35.645332 286.095208 
L 54.835957 286.095208 
L 54.835957 282.262812 
L 60.242347 282.262812 
L 60.242347 278.430416 
L 62.208 278.430416 
L 62.208 274.59802 
L 81.974904 274.59802 
L 81.974904 270.765624 
L 85.783039 270.765624 
L 85.783039 266.933228 
L 89.716934 266.933228 
L 89.716934 263.100832 
L 93.284329 263.100832 
L 93.284329 259.268436 
L 94.950758 259.268436 
L 94.950758 255.43604 
L 97.321937 255.43604 
L 97.321937 251.603644 
L 107.961293 251.603644 
L 107.961293 247.771248 
L 120.270447 247.771248 
L 120.270447 243.938851 
L 127.010899 243.938851 
L 127.010899 240.106455 
L 128.227567 240.106455 
L 128.227567 236.274059 
L 147.459644 236.274059 
L 147.459644 232.441663 
L 148.982566 232.441663 
L 148.982566 228.609267 
L 149.86809 228.609267 
L 149.86809 224.776871 
L 151.112104 224.776871 
L 151.112104 220.944475 
L 157.988992 220.944475 
L 157.988992 217.112079 
L 160.205628 217.112079 
L 160.205628 213.279683 
L 160.64866 213.279683 
L 160.64866 209.447287 
L 166.112964 209.447287 
L 166.112964 205.614891 
L 169.170552 205.614891 
L 169.170552 201.782495 
L 170.72552 201.782495 
L 170.72552 197.950099 
L 171.34137 197.950099 
L 171.34137 194.117703 
L 171.618063 194.117703 
L 171.618063 190.285307 
L 172.002108 190.285307 
L 172.002108 186.452911 
L 186.805411 186.452911 
L 186.805411 182.620515 
L 192.802736 182.620515 
L 192.802736 178.788119 
L 299.136591 178.788119 
L 299.136591 174.955723 
L 299.815079 174.955723 
L 299.900506 167.290931 
L 301.546092 167.290931 
L 301.546092 163.458535 
L 302.108587 163.458535 
L 302.108587 159.626139 
L 302.46575 159.626139 
L 302.46575 155.793743 
L 303.273386 155.793743 
L 303.273386 151.961347 
L 307.639556 151.961347 
L 307.639556 148.12895 
L 330.100645 148.12895 
L 330.100645 144.296554 
L 331.543233 144.296554 
L 331.543233 140.464158 
L 334.20777 140.464158 
L 334.239447 128.96697 
L 334.735715 128.96697 
L 334.735715 125.134574 
L 335.227181 125.134574 
L 335.227181 121.302178 
L 336.960193 121.302178 
L 336.960193 117.469782 
L 338.192895 117.469782 
L 338.192895 113.637386 
L 353.405044 113.637386 
L 353.405044 109.80499 
L 354.026466 109.80499 
L 354.026466 105.972594 
L 354.786441 105.972594 
L 354.786441 102.140198 
L 354.961083 102.140198 
L 354.961083 98.307802 
L 357.52571 98.307802 
L 357.55243 90.64301 
L 359.597574 90.64301 
L 359.597574 86.810614 
L 375.870637 86.810614 
L 375.870637 82.978218 
L 376.447785 82.978218 
L 376.447785 79.145822 
L 376.930202 79.145822 
L 376.930202 75.313426 
L 377.051093 75.313426 
L 377.051093 71.48103 
L 378.555826 71.48103 
L 378.555826 67.648634 
L 382.203826 67.648634 
L 382.203826 63.816238 
L 387.774607 63.816238 
L 387.774607 59.983842 
L 389.504171 59.983842 
L 389.504171 56.151446 
L 411.693846 56.151446 
L 411.693846 52.31905 
L 412.544519 52.31905 
L 412.622712 40.821861 
L 412.660674 40.821861 
L 412.660674 36.989465 
L 414.363209 36.989465 
L 414.363209 33.157069 
L 432.175422 33.157069 
L 432.175422 29.324673 
L 435.103941 29.324673 
L 435.103941 25.492277 
L 437.177805 25.492277 
L 437.279887 17.827485 
L 437.913309 17.827485 
L 437.913309 13.995089 
L 437.913309 13.995089 
L 460.8 13.995089 
L 460.8 13.995089 
" clip-path="url(#pc0da2dfaca)" style="fill: none; stroke: #000000; stroke-width: 1.5; stroke-linecap: square"/>
   </g>
   <g id="line2d_111">
    <defs>
     <path id="m16f4a82249" d="M 0 7.5 
C 1.989023 7.5 3.896849 6.709753 5.303301 5.303301 
C 6.709753 3.896849 7.5 1.989023 7.5 0 
C 7.5 -1.989023 6.709753 -3.896849 5.303301 -5.303301 
C 3.896849 -6.709753 1.989023 -7.5 0 -7.5 
C -1.989023 -7.5 -3.896849 -6.709753 -5.303301 -5.303301 
C -6.709753 -3.896849 -7.5 -1.989023 -7.5 0 
C -7.5 1.989023 -6.709753 3.896849 -5.303301 5.303301 
C -3.896849 6.709753 -1.989023 7.5 0 7.5 
z
" style="stroke: #000000; stroke-width: 1.5"/>
    </defs>
    <g clip-path="url(#pc0da2dfaca)">
     <use xlink:href="#m16f4a82249" x="128.227567" y="240.106455" style="fill-opacity: 0; stroke: #000000; stroke-width: 1.5"/>
     <use xlink:href="#m16f4a82249" x="186.805411" y="186.452911" style="fill-opacity: 0; stroke: #000000; stroke-width: 1.5"/>
     <use xlink:href="#m16f4a82249" x="192.802736" y="182.620515" style="fill-opacity: 0; stroke: #000000; stroke-width: 1.5"/>
     <use xlink:href="#m16f4a82249" x="338.192895" y="117.469782" style="fill-opacity: 0; stroke: #000000; stroke-width: 1.5"/>
     <use xlink:href="#m16f4a82249" x="389.504171" y="59.983842" style="fill-opacity: 0; stroke: #000000; stroke-width: 1.5"/>
     <use xlink:href="#m16f4a82249" x="437.913309" y="17.827485" style="fill-opacity: 0; stroke: #000000; stroke-width: 1.5"/>
     <use xlink:href="#m16f4a82249" x="437.913309" y="13.995089" style="fill-opacity: 0; stroke: #000000; stroke-width: 1.5"/>
    </g>
   </g>
   <g id="line2d_112">
    <path clip-path="url(#pc0da2dfaca)" style="fill: none; stroke: #000000; stroke-width: 1.5; stroke-linecap: square"/>
   </g>
   <g id="line2d_113">
    <path d="M 209.198341 293.76 
L 209.198341 289.927604 
L 227.559714 289.927604 
L 227.559714 286.095208 
L 228.33315 286.095208 
L 228.33315 282.262812 
L 269.549381 282.262812 
L 269.549381 278.430416 
L 299.001822 278.430416 
L 299.001822 274.59802 
L 303.644536 274.59802 
L 303.644536 270.765624 
L 303.898724 270.765624 
L 303.898724 266.933228 
L 309.632694 266.933228 
L 309.632694 263.100832 
L 322.853065 263.100832 
L 322.853065 259.268436 
L 324.163314 259.268436 
L 324.163314 255.43604 
L 324.895568 255.43604 
L 324.895568 251.603644 
L 328.950345 251.603644 
L 328.950345 247.771248 
L 330.710434 247.771248 
L 330.710434 243.938851 
L 333.714203 243.938851 
L 333.714203 240.106455 
L 335.404973 240.106455 
L 335.404973 236.274059 
L 336.122328 236.274059 
L 336.122328 232.441663 
L 336.32977 232.441663 
L 336.32977 228.609267 
L 336.478645 228.609267 
L 336.478645 224.776871 
L 336.750955 224.776871 
L 336.750955 220.944475 
L 337.001462 220.944475 
L 337.001462 217.112079 
L 337.752694 217.112079 
L 337.752694 213.279683 
L 338.21645 213.279683 
L 338.21645 209.447287 
L 342.461427 209.447287 
L 342.461427 205.614891 
L 344.685503 205.614891 
L 344.685503 201.782495 
L 352.201042 201.782495 
L 352.201042 197.950099 
L 354.621698 197.950099 
L 354.621698 194.117703 
L 356.206435 194.117703 
L 356.206435 190.285307 
L 361.296429 190.285307 
L 361.296429 186.452911 
L 363.318071 186.452911 
L 363.318071 182.620515 
L 365.10808 182.620515 
L 365.10808 178.788119 
L 366.275471 178.788119 
L 366.275471 174.955723 
L 366.520359 174.955723 
L 366.520359 171.123327 
L 367.552983 171.123327 
L 367.552983 167.290931 
L 372.382129 167.290931 
L 372.382129 163.458535 
L 372.459292 163.458535 
L 372.459292 159.626139 
L 373.862277 159.626139 
L 373.862277 155.793743 
L 376.682561 155.793743 
L 376.682561 151.961347 
L 377.143709 151.961347 
L 377.143709 148.12895 
L 379.14499 148.12895 
L 379.14499 144.296554 
L 386.044889 144.296554 
L 386.044889 140.464158 
L 386.178617 140.464158 
L 386.178617 136.631762 
L 390.0444 136.631762 
L 390.0444 132.799366 
L 390.147231 132.799366 
L 390.147231 128.96697 
L 391.970422 128.96697 
L 391.970422 125.134574 
L 398.97799 125.134574 
L 398.97799 121.302178 
L 398.97799 121.302178 
L 398.97799 121.302178 
L 460.8 121.302178 
" clip-path="url(#pc0da2dfaca)" style="fill: none; stroke: #00bfbf; stroke-width: 1.5; stroke-linecap: square"/>
   </g>
   <g id="line2d_114">
    <defs>
     <path id="m5ea9d5b531" d="M 0 14.142136 
L 8.485281 0 
L 0 -14.142136 
L -8.485281 0 
z
" style="stroke: #00bfbf; stroke-width: 1.5; stroke-linejoin: miter"/>
    </defs>
    <g clip-path="url(#pc0da2dfaca)">
     <use xlink:href="#m5ea9d5b531" x="228.33315" y="286.095208" style="fill-opacity: 0; stroke: #00bfbf; stroke-width: 1.5; stroke-linejoin: miter"/>
     <use xlink:href="#m5ea9d5b531" x="324.163314" y="259.268436" style="fill-opacity: 0; stroke: #00bfbf; stroke-width: 1.5; stroke-linejoin: miter"/>
     <use xlink:href="#m5ea9d5b531" x="361.296429" y="190.285307" style="fill-opacity: 0; stroke: #00bfbf; stroke-width: 1.5; stroke-linejoin: miter"/>
     <use xlink:href="#m5ea9d5b531" x="391.970422" y="128.96697" style="fill-opacity: 0; stroke: #00bfbf; stroke-width: 1.5; stroke-linejoin: miter"/>
     <use xlink:href="#m5ea9d5b531" x="398.97799" y="121.302178" style="fill-opacity: 0; stroke: #00bfbf; stroke-width: 1.5; stroke-linejoin: miter"/>
    </g>
   </g>
   <g id="line2d_115">
    <path clip-path="url(#pc0da2dfaca)" style="fill: none; stroke: #00bfbf; stroke-width: 1.5; stroke-linecap: square"/>
    <g clip-path="url(#pc0da2dfaca)">
     <use xlink:href="#m5ea9d5b531" x="-1" y="581.189703" style="fill-opacity: 0; stroke: #00bfbf; stroke-width: 1.5; stroke-linejoin: miter"/>
     <use xlink:href="#m5ea9d5b531" x="460.8" y="581.189703" style="fill-opacity: 0; stroke: #00bfbf; stroke-width: 1.5; stroke-linejoin: miter"/>
    </g>
   </g>
   <g id="line2d_116">
    <path d="M 205.895854 293.76 
L 205.895854 289.927604 
L 298.004199 289.927604 
L 298.004199 286.095208 
L 301.888261 286.095208 
L 301.888261 282.262812 
L 304.284658 282.262812 
L 304.284658 278.430416 
L 304.671881 278.430416 
L 304.671881 274.59802 
L 305.590573 274.59802 
L 305.590573 270.765624 
L 306.775726 270.765624 
L 306.775726 266.933228 
L 307.003587 266.933228 
L 307.003587 263.100832 
L 308.269819 263.100832 
L 308.269819 259.268436 
L 312.85979 259.268436 
L 312.85979 255.43604 
L 316.252263 255.43604 
L 316.252263 251.603644 
L 329.003923 251.603644 
L 329.003923 247.771248 
L 329.700842 247.771248 
L 329.700842 243.938851 
L 336.563671 243.938851 
L 336.563671 240.106455 
L 336.730933 240.106455 
L 336.730933 236.274059 
L 337.143352 236.274059 
L 337.143352 232.441663 
L 337.760638 232.441663 
L 337.760638 228.609267 
L 338.393005 228.609267 
L 338.393005 224.776871 
L 338.494441 224.776871 
L 338.494441 220.944475 
L 339.636899 220.944475 
L 339.636899 217.112079 
L 339.972349 217.112079 
L 339.972349 213.279683 
L 340.978035 213.279683 
L 340.978035 209.447287 
L 351.140741 209.447287 
L 351.140741 205.614891 
L 351.417808 205.614891 
L 351.417808 201.782495 
L 353.922409 201.782495 
L 353.922409 197.950099 
L 354.66446 197.950099 
L 354.66446 194.117703 
L 359.435491 194.117703 
L 359.435491 190.285307 
L 359.555891 190.285307 
L 359.555891 186.452911 
L 359.642067 186.452911 
L 359.642067 182.620515 
L 360.318179 182.620515 
L 360.318179 178.788119 
L 360.621602 178.788119 
L 360.621602 174.955723 
L 361.551114 174.955723 
L 361.551114 171.123327 
L 362.618241 171.123327 
L 362.618241 167.290931 
L 374.222017 167.290931 
L 374.222017 163.458535 
L 375.25753 163.458535 
L 375.25753 159.626139 
L 375.357285 159.626139 
L 375.357285 155.793743 
L 381.682684 155.793743 
L 381.682684 151.961347 
L 382.155793 151.961347 
L 382.155793 148.12895 
L 382.266269 148.12895 
L 382.266269 144.296554 
L 382.749018 144.296554 
L 382.749018 140.464158 
L 383.212089 140.464158 
L 383.212089 136.631762 
L 384.231459 136.631762 
L 384.231459 132.799366 
L 398.671289 132.799366 
L 398.671289 128.96697 
L 398.696328 128.96697 
L 398.696328 125.134574 
L 399.027215 125.134574 
L 399.027215 121.302178 
L 399.027215 121.302178 
L 399.027215 121.302178 
L 460.8 121.302178 
" clip-path="url(#pc0da2dfaca)" style="fill: none; stroke: #00bfbf; stroke-width: 1.5; stroke-linecap: square"/>
   </g>
   <g id="line2d_117">
    <defs>
     <path id="mfa3822504a" d="M 0 7.5 
C 1.989023 7.5 3.896849 6.709753 5.303301 5.303301 
C 6.709753 3.896849 7.5 1.989023 7.5 0 
C 7.5 -1.989023 6.709753 -3.896849 5.303301 -5.303301 
C 3.896849 -6.709753 1.989023 -7.5 0 -7.5 
C -1.989023 -7.5 -3.896849 -6.709753 -5.303301 -5.303301 
C -6.709753 -3.896849 -7.5 -1.989023 -7.5 0 
C -7.5 1.989023 -6.709753 3.896849 -5.303301 5.303301 
C -3.896849 6.709753 -1.989023 7.5 0 7.5 
z
" style="stroke: #00bfbf; stroke-width: 1.5"/>
    </defs>
    <g clip-path="url(#pc0da2dfaca)">
     <use xlink:href="#mfa3822504a" x="205.895854" y="293.76" style="fill-opacity: 0; stroke: #00bfbf; stroke-width: 1.5"/>
     <use xlink:href="#mfa3822504a" x="336.563671" y="243.938851" style="fill-opacity: 0; stroke: #00bfbf; stroke-width: 1.5"/>
     <use xlink:href="#mfa3822504a" x="374.222017" y="167.290931" style="fill-opacity: 0; stroke: #00bfbf; stroke-width: 1.5"/>
     <use xlink:href="#mfa3822504a" x="399.027215" y="125.134574" style="fill-opacity: 0; stroke: #00bfbf; stroke-width: 1.5"/>
     <use xlink:href="#mfa3822504a" x="399.027215" y="121.302178" style="fill-opacity: 0; stroke: #00bfbf; stroke-width: 1.5"/>
    </g>
   </g>
   <g id="line2d_118">
    <path clip-path="url(#pc0da2dfaca)" style="fill: none; stroke: #00bfbf; stroke-width: 1.5; stroke-linecap: square"/>
   </g>
   <g id="line2d_119">
    <path d="M 336.979359 293.76 
L 336.979359 289.927604 
L 337.068429 289.927604 
L 337.068429 286.095208 
L 337.082396 286.095208 
L 337.082396 282.262812 
L 340.376447 282.262812 
L 340.376447 278.430416 
L 340.617144 278.430416 
L 340.617144 274.59802 
L 340.755631 274.59802 
L 340.755631 270.765624 
L 341.055638 270.765624 
L 341.055638 266.933228 
L 343.517275 266.933228 
L 343.517275 263.100832 
L 344.040003 263.100832 
L 344.040003 259.268436 
L 345.675537 259.268436 
L 345.675537 255.43604 
L 345.82736 255.43604 
L 345.82736 251.603644 
L 346.141401 251.603644 
L 346.141401 247.771248 
L 346.371073 247.771248 
L 346.371073 243.938851 
L 346.706446 243.938851 
L 346.706446 240.106455 
L 347.327467 240.106455 
L 347.327467 236.274059 
L 350.612035 236.274059 
L 350.612035 232.441663 
L 353.190334 232.441663 
L 353.190334 228.609267 
L 357.669435 228.609267 
L 357.669435 224.776871 
L 361.293303 224.776871 
L 361.293303 220.944475 
L 361.817997 220.944475 
L 361.817997 217.112079 
L 363.701617 217.112079 
L 363.701617 213.279683 
L 364.270918 213.279683 
L 364.270918 209.447287 
L 366.399137 209.447287 
L 366.399137 205.614891 
L 367.117765 205.614891 
L 367.117765 201.782495 
L 367.274867 201.782495 
L 367.274867 197.950099 
L 369.305383 197.950099 
L 369.305383 194.117703 
L 369.544629 194.117703 
L 369.544629 190.285307 
L 372.010223 190.285307 
L 372.010223 186.452911 
L 372.496939 186.452911 
L 372.496939 182.620515 
L 378.391105 182.620515 
L 378.391105 178.788119 
L 379.194987 178.788119 
L 379.194987 174.955723 
L 382.201562 174.955723 
L 382.201562 171.123327 
L 383.325064 171.123327 
L 383.325064 167.290931 
L 383.389659 167.290931 
L 383.389659 163.458535 
L 384.252929 163.458535 
L 384.252929 159.626139 
L 386.202695 159.626139 
L 386.202695 155.793743 
L 391.820966 155.793743 
L 391.820966 151.961347 
L 392.806731 151.961347 
L 392.806731 148.12895 
L 395.233352 148.12895 
L 395.233352 144.296554 
L 395.640858 144.296554 
L 395.640858 140.464158 
L 395.97079 140.464158 
L 395.97079 136.631762 
L 398.299681 136.631762 
L 398.299681 132.799366 
L 399.619068 132.799366 
L 399.619068 128.96697 
L 400.163678 128.96697 
L 400.163678 125.134574 
L 400.163678 125.134574 
L 400.163678 125.134574 
L 460.8 125.134574 
" clip-path="url(#pc0da2dfaca)" style="fill: none; stroke: #bf00bf; stroke-width: 1.5; stroke-linecap: square"/>
   </g>
   <g id="line2d_120">
    <defs>
     <path id="m7b2bb2998f" d="M 0 14.142136 
L 8.485281 0 
L 0 -14.142136 
L -8.485281 0 
z
" style="stroke: #bf00bf; stroke-width: 1.5; stroke-linejoin: miter"/>
    </defs>
    <g clip-path="url(#pc0da2dfaca)">
     <use xlink:href="#m7b2bb2998f" x="347.327467" y="240.106455" style="fill-opacity: 0; stroke: #bf00bf; stroke-width: 1.5; stroke-linejoin: miter"/>
     <use xlink:href="#m7b2bb2998f" x="386.202695" y="159.626139" style="fill-opacity: 0; stroke: #bf00bf; stroke-width: 1.5; stroke-linejoin: miter"/>
     <use xlink:href="#m7b2bb2998f" x="400.163678" y="125.134574" style="fill-opacity: 0; stroke: #bf00bf; stroke-width: 1.5; stroke-linejoin: miter"/>
    </g>
   </g>
   <g id="line2d_121">
    <path clip-path="url(#pc0da2dfaca)" style="fill: none; stroke: #bf00bf; stroke-width: 1.5; stroke-linecap: square"/>
    <g clip-path="url(#pc0da2dfaca)">
     <use xlink:href="#m7b2bb2998f" x="-1" y="581.189703" style="fill-opacity: 0; stroke: #bf00bf; stroke-width: 1.5; stroke-linejoin: miter"/>
     <use xlink:href="#m7b2bb2998f" x="460.8" y="581.189703" style="fill-opacity: 0; stroke: #bf00bf; stroke-width: 1.5; stroke-linejoin: miter"/>
    </g>
   </g>
   <g id="line2d_122">
    <path d="M 267.810665 293.76 
L 267.810665 289.927604 
L 311.633083 289.927604 
L 311.633083 286.095208 
L 312.029409 286.095208 
L 312.029409 282.262812 
L 312.532025 282.262812 
L 312.532025 278.430416 
L 313.752354 278.430416 
L 313.752354 274.59802 
L 313.891263 274.59802 
L 313.891263 270.765624 
L 314.324963 270.765624 
L 314.324963 266.933228 
L 314.382155 266.933228 
L 314.382155 263.100832 
L 314.644407 263.100832 
L 314.644407 259.268436 
L 327.352636 259.268436 
L 327.352636 255.43604 
L 331.279043 255.43604 
L 331.279043 251.603644 
L 337.254 251.603644 
L 337.254 247.771248 
L 340.172896 247.771248 
L 340.172896 243.938851 
L 341.778961 243.938851 
L 341.778961 240.106455 
L 342.384061 240.106455 
L 342.384061 236.274059 
L 342.854781 236.274059 
L 342.854781 232.441663 
L 343.115629 232.441663 
L 343.115629 228.609267 
L 345.059173 228.609267 
L 345.059173 224.776871 
L 345.075882 224.776871 
L 345.075882 220.944475 
L 349.044757 220.944475 
L 349.044757 217.112079 
L 350.392989 217.112079 
L 350.392989 213.279683 
L 351.841191 213.279683 
L 351.841191 209.447287 
L 358.049381 209.447287 
L 358.049381 205.614891 
L 358.987856 205.614891 
L 358.987856 201.782495 
L 361.060488 201.782495 
L 361.060488 197.950099 
L 362.049333 197.950099 
L 362.049333 194.117703 
L 364.110055 194.117703 
L 364.110055 190.285307 
L 365.518327 190.285307 
L 365.518327 186.452911 
L 367.758191 186.452911 
L 367.758191 182.620515 
L 368.803415 182.620515 
L 368.803415 178.788119 
L 369.576123 178.788119 
L 369.576123 174.955723 
L 370.319048 174.955723 
L 370.319048 171.123327 
L 372.68898 171.123327 
L 372.68898 167.290931 
L 381.410879 167.290931 
L 381.410879 163.458535 
L 382.359067 163.458535 
L 382.359067 159.626139 
L 382.929853 159.626139 
L 382.929853 155.793743 
L 388.582106 155.793743 
L 388.582106 151.961347 
L 389.827143 151.961347 
L 389.827143 148.12895 
L 389.885186 148.12895 
L 389.885186 144.296554 
L 390.069488 144.296554 
L 390.069488 140.464158 
L 390.124219 140.464158 
L 390.124219 136.631762 
L 391.408445 136.631762 
L 391.408445 132.799366 
L 405.211647 132.799366 
L 405.211647 128.96697 
L 405.337274 128.96697 
L 405.337274 125.134574 
L 405.39196 125.134574 
L 405.39196 121.302178 
L 405.39196 121.302178 
L 405.39196 121.302178 
L 460.8 121.302178 
" clip-path="url(#pc0da2dfaca)" style="fill: none; stroke: #bf00bf; stroke-width: 1.5; stroke-linecap: square"/>
   </g>
   <g id="line2d_123">
    <defs>
     <path id="m9d9efd83b5" d="M 0 7.5 
C 1.989023 7.5 3.896849 6.709753 5.303301 5.303301 
C 6.709753 3.896849 7.5 1.989023 7.5 0 
C 7.5 -1.989023 6.709753 -3.896849 5.303301 -5.303301 
C 3.896849 -6.709753 1.989023 -7.5 0 -7.5 
C -1.989023 -7.5 -3.896849 -6.709753 -5.303301 -5.303301 
C -6.709753 -3.896849 -7.5 -1.989023 -7.5 0 
C -7.5 1.989023 -6.709753 3.896849 -5.303301 5.303301 
C -3.896849 6.709753 -1.989023 7.5 0 7.5 
z
" style="stroke: #bf00bf; stroke-width: 1.5"/>
    </defs>
    <g clip-path="url(#pc0da2dfaca)">
     <use xlink:href="#m9d9efd83b5" x="327.352636" y="259.268436" style="fill-opacity: 0; stroke: #bf00bf; stroke-width: 1.5"/>
     <use xlink:href="#m9d9efd83b5" x="372.68898" y="171.123327" style="fill-opacity: 0; stroke: #bf00bf; stroke-width: 1.5"/>
     <use xlink:href="#m9d9efd83b5" x="405.39196" y="125.134574" style="fill-opacity: 0; stroke: #bf00bf; stroke-width: 1.5"/>
     <use xlink:href="#m9d9efd83b5" x="405.39196" y="121.302178" style="fill-opacity: 0; stroke: #bf00bf; stroke-width: 1.5"/>
    </g>
   </g>
   <g id="line2d_124">
    <path clip-path="url(#pc0da2dfaca)" style="fill: none; stroke: #bf00bf; stroke-width: 1.5; stroke-linecap: square"/>
   </g>
   <g id="line2d_125">
    <path d="M 362.361073 293.76 
L 362.361073 289.927604 
L 362.397917 289.927604 
L 362.397917 286.095208 
L 362.567626 286.095208 
L 362.567626 282.262812 
L 365.168874 282.262812 
L 365.168874 278.430416 
L 365.304956 278.430416 
L 365.304956 274.59802 
L 366.637801 274.59802 
L 366.637801 270.765624 
L 366.812107 270.765624 
L 366.812107 266.933228 
L 369.078668 266.933228 
L 369.078668 263.100832 
L 369.585565 263.100832 
L 369.585565 259.268436 
L 370.769646 259.268436 
L 370.769646 255.43604 
L 371.591388 255.43604 
L 371.591388 251.603644 
L 374.39591 251.603644 
L 374.39591 247.771248 
L 378.33579 247.771248 
L 378.33579 243.938851 
L 379.422821 243.938851 
L 379.422821 240.106455 
L 380.043009 240.106455 
L 380.043009 236.274059 
L 388.643596 236.274059 
L 388.643596 232.441663 
L 390.539975 232.441663 
L 390.539975 228.609267 
L 391.674285 228.609267 
L 391.674285 224.776871 
L 394.798327 224.776871 
L 394.798327 220.944475 
L 395.972846 220.944475 
L 395.972846 217.112079 
L 397.723042 217.112079 
L 397.723042 213.279683 
L 403.466357 213.279683 
L 403.466357 209.447287 
L 403.961974 209.447287 
L 403.961974 205.614891 
L 407.182374 205.614891 
L 407.182374 201.782495 
L 407.492614 201.782495 
L 407.492614 197.950099 
L 415.112649 197.950099 
L 415.112649 194.117703 
L 415.112649 194.117703 
L 415.112649 194.117703 
L 460.8 194.117703 
" clip-path="url(#pc0da2dfaca)" style="fill: none; stroke: #ff0000; stroke-width: 3; stroke-linecap: square"/>
   </g>
   <g id="line2d_126">
    <defs>
     <path id="ma1308c8540" d="M 0 14.142136 
L 8.485281 0 
L 0 -14.142136 
L -8.485281 0 
z
" style="stroke: #ff0000; stroke-width: 3; stroke-linejoin: miter"/>
    </defs>
    <g clip-path="url(#pc0da2dfaca)">
     <use xlink:href="#ma1308c8540" x="388.643596" y="236.274059" style="fill-opacity: 0; stroke: #ff0000; stroke-width: 3; stroke-linejoin: miter"/>
     <use xlink:href="#ma1308c8540" x="415.112649" y="197.950099" style="fill-opacity: 0; stroke: #ff0000; stroke-width: 3; stroke-linejoin: miter"/>
     <use xlink:href="#ma1308c8540" x="415.112649" y="194.117703" style="fill-opacity: 0; stroke: #ff0000; stroke-width: 3; stroke-linejoin: miter"/>
    </g>
   </g>
   <g id="line2d_127">
    <path clip-path="url(#pc0da2dfaca)" style="fill: none; stroke: #ff0000; stroke-width: 3; stroke-linecap: square"/>
    <g clip-path="url(#pc0da2dfaca)">
     <use xlink:href="#ma1308c8540" x="-1" y="581.189703" style="fill-opacity: 0; stroke: #ff0000; stroke-width: 3; stroke-linejoin: miter"/>
     <use xlink:href="#ma1308c8540" x="460.8" y="581.189703" style="fill-opacity: 0; stroke: #ff0000; stroke-width: 3; stroke-linejoin: miter"/>
    </g>
   </g>
   <g id="line2d_128">
    <path d="M 300.435892 293.76 
L 300.435892 289.927604 
L 320.768737 289.927604 
L 320.768737 286.095208 
L 321.516292 286.095208 
L 321.516292 282.262812 
L 321.581331 282.262812 
L 321.581331 278.430416 
L 321.7001 278.430416 
L 321.7001 274.59802 
L 323.233673 274.59802 
L 323.233673 270.765624 
L 323.745058 270.765624 
L 323.745058 266.933228 
L 328.144042 266.933228 
L 328.144042 263.100832 
L 328.560332 263.100832 
L 328.560332 259.268436 
L 338.755659 259.268436 
L 338.755659 255.43604 
L 345.530186 255.43604 
L 345.530186 251.603644 
L 346.469002 251.603644 
L 346.469002 247.771248 
L 347.944121 247.771248 
L 347.944121 243.938851 
L 348.071236 243.938851 
L 348.071236 240.106455 
L 348.796512 240.106455 
L 348.796512 236.274059 
L 348.818163 236.274059 
L 348.818163 232.441663 
L 349.600148 232.441663 
L 349.600148 228.609267 
L 349.786318 228.609267 
L 349.786318 224.776871 
L 350.113093 224.776871 
L 350.113093 220.944475 
L 357.229245 220.944475 
L 357.229245 217.112079 
L 359.027674 217.112079 
L 359.027674 213.279683 
L 360.661746 213.279683 
L 360.661746 209.447287 
L 367.673263 209.447287 
L 367.673263 205.614891 
L 368.270038 205.614891 
L 368.270038 201.782495 
L 369.538013 201.782495 
L 369.538013 197.950099 
L 369.800548 197.950099 
L 369.800548 194.117703 
L 370.579065 194.117703 
L 370.579065 190.285307 
L 371.559715 190.285307 
L 371.559715 186.452911 
L 376.199645 186.452911 
L 376.199645 182.620515 
L 378.256808 182.620515 
L 378.256808 178.788119 
L 378.337793 178.788119 
L 378.337793 174.955723 
L 378.641649 174.955723 
L 378.641649 171.123327 
L 380.575433 171.123327 
L 380.575433 167.290931 
L 390.252173 167.290931 
L 390.252173 163.458535 
L 390.955413 163.458535 
L 390.955413 159.626139 
L 391.006735 159.626139 
L 391.006735 155.793743 
L 392.910982 155.793743 
L 392.910982 151.961347 
L 398.241021 151.961347 
L 398.241021 148.12895 
L 398.33864 148.12895 
L 398.33864 144.296554 
L 398.365976 144.296554 
L 398.365976 140.464158 
L 398.476756 140.464158 
L 398.476756 136.631762 
L 399.374658 136.631762 
L 399.374658 132.799366 
L 412.879428 132.799366 
L 412.879428 128.96697 
L 412.973784 128.96697 
L 412.973784 125.134574 
L 413.010793 125.134574 
L 413.010793 121.302178 
L 413.010793 121.302178 
L 413.010793 121.302178 
L 460.8 121.302178 
" clip-path="url(#pc0da2dfaca)" style="fill: none; stroke: #ff0000; stroke-width: 3; stroke-linecap: square"/>
   </g>
   <g id="line2d_129">
    <defs>
     <path id="mef158d0ef9" d="M 0 7.5 
C 1.989023 7.5 3.896849 6.709753 5.303301 5.303301 
C 6.709753 3.896849 7.5 1.989023 7.5 0 
C 7.5 -1.989023 6.709753 -3.896849 5.303301 -5.303301 
C 3.896849 -6.709753 1.989023 -7.5 0 -7.5 
C -1.989023 -7.5 -3.896849 -6.709753 -5.303301 -5.303301 
C -6.709753 -3.896849 -7.5 -1.989023 -7.5 0 
C -7.5 1.989023 -6.709753 3.896849 -5.303301 5.303301 
C -3.896849 6.709753 -1.989023 7.5 0 7.5 
z
" style="stroke: #ff0000; stroke-width: 3"/>
    </defs>
    <g clip-path="url(#pc0da2dfaca)">
     <use xlink:href="#mef158d0ef9" x="359.027674" y="217.112079" style="fill-opacity: 0; stroke: #ff0000; stroke-width: 3"/>
     <use xlink:href="#mef158d0ef9" x="380.575433" y="171.123327" style="fill-opacity: 0; stroke: #ff0000; stroke-width: 3"/>
     <use xlink:href="#mef158d0ef9" x="413.010793" y="125.134574" style="fill-opacity: 0; stroke: #ff0000; stroke-width: 3"/>
     <use xlink:href="#mef158d0ef9" x="413.010793" y="121.302178" style="fill-opacity: 0; stroke: #ff0000; stroke-width: 3"/>
    </g>
   </g>
   <g id="line2d_130">
    <path clip-path="url(#pc0da2dfaca)" style="fill: none; stroke: #ff0000; stroke-width: 3; stroke-linecap: square"/>
   </g>
   <g id="line2d_131">
    <path d="M 415.17601 293.76 
L 415.17601 3.456 
" clip-path="url(#pc0da2dfaca)" style="fill: none; stroke: #000000; stroke-width: 1.5; stroke-linecap: square"/>
    <defs>
     <path id="mce5cae0060" d="M -10 0 
L 10 0 
M 0 10 
L 0 -10 
" style="stroke: #000000; stroke-width: 3"/>
    </defs>
    <g clip-path="url(#pc0da2dfaca)">
     <use xlink:href="#mce5cae0060" x="415.17601" y="293.76" style="stroke: #000000; stroke-width: 3"/>
     <use xlink:href="#mce5cae0060" x="415.17601" y="3.456" style="stroke: #000000; stroke-width: 3"/>
    </g>
   </g>
   <g id="line2d_132">
    <path d="M 441.772807 293.76 
L 441.772807 3.456 
" clip-path="url(#pc0da2dfaca)" style="fill: none; stroke: #000000; stroke-width: 1.5; stroke-linecap: square"/>
    <defs>
     <path id="m9bf9a33f5e" d="M 0 7.5 
C 1.989023 7.5 3.896849 6.709753 5.303301 5.303301 
C 6.709753 3.896849 7.5 1.989023 7.5 0 
C 7.5 -1.989023 6.709753 -3.896849 5.303301 -5.303301 
C 3.896849 -6.709753 1.989023 -7.5 0 -7.5 
C -1.989023 -7.5 -3.896849 -6.709753 -5.303301 -5.303301 
C -6.709753 -3.896849 -7.5 -1.989023 -7.5 0 
C -7.5 1.989023 -6.709753 3.896849 -5.303301 5.303301 
C -3.896849 6.709753 -1.989023 7.5 0 7.5 
z
" style="stroke: #000000; stroke-width: 3"/>
    </defs>
    <g clip-path="url(#pc0da2dfaca)">
     <use xlink:href="#m9bf9a33f5e" x="441.772807" y="293.76" style="fill-opacity: 0; stroke: #000000; stroke-width: 3"/>
     <use xlink:href="#m9bf9a33f5e" x="441.772807" y="3.456" style="fill-opacity: 0; stroke: #000000; stroke-width: 3"/>
    </g>
   </g>
   <g id="patch_3">
    <path d="M 62.208 293.76 
L 62.208 3.456 
" style="fill: none; stroke: #000000; stroke-width: 0.8; stroke-linejoin: miter; stroke-linecap: square"/>
   </g>
   <g id="patch_4">
    <path d="M 460.8 293.76 
L 460.8 3.456 
" style="fill: none; stroke: #000000; stroke-width: 0.8; stroke-linejoin: miter; stroke-linecap: square"/>
   </g>
   <g id="patch_5">
    <path d="M 62.208 293.76 
L 460.8 293.76 
" style="fill: none; stroke: #000000; stroke-width: 0.8; stroke-linejoin: miter; stroke-linecap: square"/>
   </g>
   <g id="patch_6">
    <path d="M 62.208 3.456 
L 460.8 3.456 
" style="fill: none; stroke: #000000; stroke-width: 0.8; stroke-linejoin: miter; stroke-linecap: square"/>
   </g>
   <g id="text_12">
    <!-- f10-f14 -->
    <g transform="translate(225.405563 24.458955) scale(0.2 -0.2)">
     <defs>
      <path id="DejaVuSans-2d" d="M 313 2009 
L 1997 2009 
L 1997 1497 
L 313 1497 
L 313 2009 
z
" transform="scale(0.015625)"/>
     </defs>
     <use xlink:href="#DejaVuSans-66"/>
     <use xlink:href="#DejaVuSans-31" x="35.205078"/>
     <use xlink:href="#DejaVuSans-30" x="98.828125"/>
     <use xlink:href="#DejaVuSans-2d" x="162.451172"/>
     <use xlink:href="#DejaVuSans-66" x="198.535156"/>
     <use xlink:href="#DejaVuSans-31" x="233.740234"/>
     <use xlink:href="#DejaVuSans-34" x="297.363281"/>
    </g>
   </g>
   <g id="text_13">
    <!-- absolute targets -->
    <g transform="translate(62.208 609.932673) scale(0.14 -0.14)">
     <defs>
      <path id="DejaVuSans-62" d="M 3116 1747 
Q 3116 2381 2855 2742 
Q 2594 3103 2138 3103 
Q 1681 3103 1420 2742 
Q 1159 2381 1159 1747 
Q 1159 1113 1420 752 
Q 1681 391 2138 391 
Q 2594 391 2855 752 
Q 3116 1113 3116 1747 
z
M 1159 2969 
Q 1341 3281 1617 3432 
Q 1894 3584 2278 3584 
Q 2916 3584 3314 3078 
Q 3713 2572 3713 1747 
Q 3713 922 3314 415 
Q 2916 -91 2278 -91 
Q 1894 -91 1617 61 
Q 1341 213 1159 525 
L 1159 0 
L 581 0 
L 581 4863 
L 1159 4863 
L 1159 2969 
z
" transform="scale(0.015625)"/>
      <path id="DejaVuSans-75" d="M 544 1381 
L 544 3500 
L 1119 3500 
L 1119 1403 
Q 1119 906 1312 657 
Q 1506 409 1894 409 
Q 2359 409 2629 706 
Q 2900 1003 2900 1516 
L 2900 3500 
L 3475 3500 
L 3475 0 
L 2900 0 
L 2900 538 
Q 2691 219 2414 64 
Q 2138 -91 1772 -91 
Q 1169 -91 856 284 
Q 544 659 544 1381 
z
M 1991 3584 
L 1991 3584 
z
" transform="scale(0.015625)"/>
      <path id="DejaVuSans-65" d="M 3597 1894 
L 3597 1613 
L 953 1613 
Q 991 1019 1311 708 
Q 1631 397 2203 397 
Q 2534 397 2845 478 
Q 3156 559 3463 722 
L 3463 178 
Q 3153 47 2828 -22 
Q 2503 -91 2169 -91 
Q 1331 -91 842 396 
Q 353 884 353 1716 
Q 353 2575 817 3079 
Q 1281 3584 2069 3584 
Q 2775 3584 3186 3129 
Q 3597 2675 3597 1894 
z
M 3022 2063 
Q 3016 2534 2758 2815 
Q 2500 3097 2075 3097 
Q 1594 3097 1305 2825 
Q 1016 2553 972 2059 
L 3022 2063 
z
" transform="scale(0.015625)"/>
     </defs>
     <use xlink:href="#DejaVuSans-61"/>
     <use xlink:href="#DejaVuSans-62" x="61.279297"/>
     <use xlink:href="#DejaVuSans-73" x="124.755859"/>
     <use xlink:href="#DejaVuSans-6f" x="176.855469"/>
     <use xlink:href="#DejaVuSans-6c" x="238.037109"/>
     <use xlink:href="#DejaVuSans-75" x="265.820312"/>
     <use xlink:href="#DejaVuSans-74" x="329.199219"/>
     <use xlink:href="#DejaVuSans-65" x="368.408203"/>
     <use xlink:href="#DejaVuSans-20" x="429.931641"/>
     <use xlink:href="#DejaVuSans-74" x="461.71875"/>
     <use xlink:href="#DejaVuSans-61" x="500.927734"/>
     <use xlink:href="#DejaVuSans-72" x="562.207031"/>
     <use xlink:href="#DejaVuSans-67" x="601.570312"/>
     <use xlink:href="#DejaVuSans-65" x="665.046875"/>
     <use xlink:href="#DejaVuSans-74" x="726.570312"/>
     <use xlink:href="#DejaVuSans-73" x="765.779297"/>
    </g>
   </g>
   <g id="text_14">
    <!-- v2.6.3 -->
    <g style="fill: #808080" transform="translate(245.82275 288.777272) scale(0.1 -0.1)">
     <defs>
      <path id="DejaVuSans-33" d="M 2597 2516 
Q 3050 2419 3304 2112 
Q 3559 1806 3559 1356 
Q 3559 666 3084 287 
Q 2609 -91 1734 -91 
Q 1441 -91 1130 -33 
Q 819 25 488 141 
L 488 750 
Q 750 597 1062 519 
Q 1375 441 1716 441 
Q 2309 441 2620 675 
Q 2931 909 2931 1356 
Q 2931 1769 2642 2001 
Q 2353 2234 1838 2234 
L 1294 2234 
L 1294 2753 
L 1863 2753 
Q 2328 2753 2575 2939 
Q 2822 3125 2822 3475 
Q 2822 3834 2567 4026 
Q 2313 4219 1838 4219 
Q 1578 4219 1281 4162 
Q 984 4106 628 3988 
L 628 4550 
Q 988 4650 1302 4700 
Q 1616 4750 1894 4750 
Q 2613 4750 3031 4423 
Q 3450 4097 3450 3541 
Q 3450 3153 3228 2886 
Q 3006 2619 2597 2516 
z
" transform="scale(0.015625)"/>
     </defs>
     <use xlink:href="#DejaVuSans-76"/>
     <use xlink:href="#DejaVuSans-32" x="59.179688"/>
     <use xlink:href="#DejaVuSans-2e" x="122.802734"/>
     <use xlink:href="#DejaVuSans-36" x="154.589844"/>
     <use xlink:href="#DejaVuSans-2e" x="218.212891"/>
     <use xlink:href="#DejaVuSans-33" x="250"/>
    </g>
   </g>
   <g id="legend_1">
    <g id="patch_7">
     <path d="M 76.208 136.881 
L 160.148625 136.881 
Q 164.148625 136.881 164.148625 132.881 
L 164.148625 17.456 
Q 164.148625 13.456 160.148625 13.456 
L 76.208 13.456 
Q 72.208 13.456 72.208 17.456 
L 72.208 132.881 
Q 72.208 136.881 76.208 136.881 
z
" style="fill: #ffffff; opacity: 0.2; stroke: #cccccc; stroke-linejoin: miter"/>
    </g>
    <g id="line2d_133">
     <path d="M 80.208 29.652875 
L 80.208 29.652875 
L 100.208 29.652875 
L 100.208 29.652875 
L 120.208 29.652875 
" style="fill: none; stroke: #000000; stroke-width: 1.5; stroke-linecap: square"/>
    </g>
    <g id="text_15">
     <!-- 1 -->
     <g transform="translate(136.208 36.652875) scale(0.2 -0.2)">
      <use xlink:href="#DejaVuSans-31"/>
     </g>
    </g>
    <g id="line2d_134">
     <path d="M 80.208 59.009125 
L 80.208 59.009125 
L 100.208 59.009125 
L 100.208 59.009125 
L 120.208 59.009125 
" style="fill: none; stroke: #00bfbf; stroke-width: 1.5; stroke-linecap: square"/>
    </g>
    <g id="text_16">
     <!-- -1 -->
     <g transform="translate(136.208 66.009125) scale(0.2 -0.2)">
      <use xlink:href="#DejaVuSans-2d"/>
      <use xlink:href="#DejaVuSans-31" x="36.083984"/>
     </g>
    </g>
    <g id="line2d_135">
     <path d="M 80.208 88.365375 
L 80.208 88.365375 
L 100.208 88.365375 
L 100.208 88.365375 
L 120.208 88.365375 
" style="fill: none; stroke: #bf00bf; stroke-width: 1.5; stroke-linecap: square"/>
    </g>
    <g id="text_17">
     <!-- -4 -->
     <g transform="translate(136.208 95.365375) scale(0.2 -0.2)">
      <use xlink:href="#DejaVuSans-2d"/>
      <use xlink:href="#DejaVuSans-34" x="36.083984"/>
     </g>
    </g>
    <g id="line2d_136">
     <path d="M 80.208 117.721625 
L 80.208 117.721625 
L 100.208 117.721625 
L 100.208 117.721625 
L 120.208 117.721625 
" style="fill: none; stroke: #ff0000; stroke-width: 3; stroke-linecap: square"/>
    </g>
    <g id="text_18">
     <!-- -8 -->
     <g transform="translate(136.208 124.721625) scale(0.2 -0.2)">
      <use xlink:href="#DejaVuSans-2d"/>
      <use xlink:href="#DejaVuSans-38" x="36.083984"/>
     </g>
    </g>
   </g>
  </g>
 </g>
 <defs>
  <clipPath id="pc0da2dfaca">
   <rect x="62.208" y="3.456" width="398.592" height="290.304"/>
  </clipPath>
 </defs>
</svg>
