<?xml version="1.0" encoding="utf-8" standalone="no"?>
<!DOCTYPE svg PUBLIC "-//W3C//DTD SVG 1.1//EN"
  "http://www.w3.org/Graphics/SVG/1.1/DTD/svg11.dtd">
<svg xmlns:xlink="http://www.w3.org/1999/xlink" width="460.8pt" height="345.6pt" viewBox="0 0 460.8 345.6" xmlns="http://www.w3.org/2000/svg" version="1.1">
 <metadata>
  <rdf:RDF xmlns:dc="http://purl.org/dc/elements/1.1/" xmlns:cc="http://creativecommons.org/ns#" xmlns:rdf="http://www.w3.org/1999/02/22-rdf-syntax-ns#">
   <cc:Work>
    <dc:type rdf:resource="http://purl.org/dc/dcmitype/StillImage"/>
    <dc:date>2024-06-07T14:02:52.415857</dc:date>
    <dc:format>image/svg+xml</dc:format>
    <dc:creator>
     <cc:Agent>
      <dc:title>Matplotlib v3.7.1, https://matplotlib.org/</dc:title>
     </cc:Agent>
    </dc:creator>
   </cc:Work>
  </rdf:RDF>
 </metadata>
 <defs>
  <style type="text/css">*{stroke-linejoin: round; stroke-linecap: butt}</style>
 </defs>
 <g id="figure_1">
  <g id="patch_1">
   <path d="M 0 345.6 
L 460.8 345.6 
L 460.8 0 
L 0 0 
z
" style="fill: #ffffff"/>
  </g>
  <g id="axes_1">
   <g id="patch_2">
    <path d="M 34.16 291.28 
L 453.192 291.28 
L 453.192 3 
L 34.16 3 
z
" style="fill: #ffffff"/>
   </g>
   <g id="matplotlib.axis_1">
    <g id="xtick_1">
     <g id="line2d_1">
      <path d="M 163.160234 291.28 
L 163.160234 3 
" clip-path="url(#pf1729859f9)" style="fill: none; stroke: #b0b0b0; stroke-width: 0.8; stroke-linecap: square"/>
     </g>
     <g id="line2d_2">
      <defs>
       <path id="m38fea70b9d" d="M 0 0 
L 0 3.5 
" style="stroke: #000000; stroke-width: 0.8"/>
      </defs>
      <g>
       <use xlink:href="#m38fea70b9d" x="163.160234" y="291.28" style="stroke: #000000; stroke-width: 0.8"/>
      </g>
     </g>
     <g id="text_1">
      <!-- -1 -->
      <g transform="translate(153.189922 313.476875) scale(0.2 -0.2)">
       <defs>
        <path id="DejaVuSans-2d" d="M 313 2009 
L 1997 2009 
L 1997 1497 
L 313 1497 
L 313 2009 
z
" transform="scale(0.015625)"/>
        <path id="DejaVuSans-31" d="M 794 531 
L 1825 531 
L 1825 4091 
L 703 3866 
L 703 4441 
L 1819 4666 
L 2450 4666 
L 2450 531 
L 3481 531 
L 3481 0 
L 794 0 
L 794 531 
z
" transform="scale(0.015625)"/>
       </defs>
       <use xlink:href="#DejaVuSans-2d"/>
       <use xlink:href="#DejaVuSans-31" x="36.083984"/>
      </g>
     </g>
    </g>
    <g id="xtick_2">
     <g id="line2d_3">
      <path d="M 324.191766 291.28 
L 324.191766 3 
" clip-path="url(#pf1729859f9)" style="fill: none; stroke: #b0b0b0; stroke-width: 0.8; stroke-linecap: square"/>
     </g>
     <g id="line2d_4">
      <g>
       <use xlink:href="#m38fea70b9d" x="324.191766" y="291.28" style="stroke: #000000; stroke-width: 0.8"/>
      </g>
     </g>
     <g id="text_2">
      <!-- 1 -->
      <g transform="translate(317.829266 313.476875) scale(0.2 -0.2)">
       <use xlink:href="#DejaVuSans-31"/>
      </g>
     </g>
    </g>
    <g id="xtick_3">
     <g id="line2d_5">
      <defs>
       <path id="mdef0a5bf72" d="M 0 0 
L 0 2 
" style="stroke: #000000; stroke-width: 0.6"/>
      </defs>
      <g>
       <use xlink:href="#mdef0a5bf72" x="40.544486" y="291.28" style="stroke: #000000; stroke-width: 0.6"/>
      </g>
     </g>
    </g>
    <g id="xtick_4">
     <g id="line2d_6">
      <g>
       <use xlink:href="#mdef0a5bf72" x="50.604024" y="291.28" style="stroke: #000000; stroke-width: 0.6"/>
      </g>
     </g>
    </g>
    <g id="xtick_5">
     <g id="line2d_7">
      <g>
       <use xlink:href="#mdef0a5bf72" x="58.406808" y="291.28" style="stroke: #000000; stroke-width: 0.6"/>
      </g>
     </g>
    </g>
    <g id="xtick_6">
     <g id="line2d_8">
      <g>
       <use xlink:href="#mdef0a5bf72" x="64.782147" y="291.28" style="stroke: #000000; stroke-width: 0.6"/>
      </g>
     </g>
    </g>
    <g id="xtick_7">
     <g id="line2d_9">
      <g>
       <use xlink:href="#mdef0a5bf72" x="70.172419" y="291.28" style="stroke: #000000; stroke-width: 0.6"/>
      </g>
     </g>
    </g>
    <g id="xtick_8">
     <g id="line2d_10">
      <g>
       <use xlink:href="#mdef0a5bf72" x="74.841685" y="291.28" style="stroke: #000000; stroke-width: 0.6"/>
      </g>
     </g>
    </g>
    <g id="xtick_9">
     <g id="line2d_11">
      <g>
       <use xlink:href="#mdef0a5bf72" x="78.960269" y="291.28" style="stroke: #000000; stroke-width: 0.6"/>
      </g>
     </g>
    </g>
    <g id="xtick_10">
     <g id="line2d_12">
      <g>
       <use xlink:href="#mdef0a5bf72" x="106.882129" y="291.28" style="stroke: #000000; stroke-width: 0.6"/>
      </g>
     </g>
    </g>
    <g id="xtick_11">
     <g id="line2d_13">
      <g>
       <use xlink:href="#mdef0a5bf72" x="121.060252" y="291.28" style="stroke: #000000; stroke-width: 0.6"/>
      </g>
     </g>
    </g>
    <g id="xtick_12">
     <g id="line2d_14">
      <g>
       <use xlink:href="#mdef0a5bf72" x="131.11979" y="291.28" style="stroke: #000000; stroke-width: 0.6"/>
      </g>
     </g>
    </g>
    <g id="xtick_13">
     <g id="line2d_15">
      <g>
       <use xlink:href="#mdef0a5bf72" x="138.922574" y="291.28" style="stroke: #000000; stroke-width: 0.6"/>
      </g>
     </g>
    </g>
    <g id="xtick_14">
     <g id="line2d_16">
      <g>
       <use xlink:href="#mdef0a5bf72" x="145.297912" y="291.28" style="stroke: #000000; stroke-width: 0.6"/>
      </g>
     </g>
    </g>
    <g id="xtick_15">
     <g id="line2d_17">
      <g>
       <use xlink:href="#mdef0a5bf72" x="150.688184" y="291.28" style="stroke: #000000; stroke-width: 0.6"/>
      </g>
     </g>
    </g>
    <g id="xtick_16">
     <g id="line2d_18">
      <g>
       <use xlink:href="#mdef0a5bf72" x="155.357451" y="291.28" style="stroke: #000000; stroke-width: 0.6"/>
      </g>
     </g>
    </g>
    <g id="xtick_17">
     <g id="line2d_19">
      <g>
       <use xlink:href="#mdef0a5bf72" x="159.476035" y="291.28" style="stroke: #000000; stroke-width: 0.6"/>
      </g>
     </g>
    </g>
    <g id="xtick_18">
     <g id="line2d_20">
      <g>
       <use xlink:href="#mdef0a5bf72" x="187.397895" y="291.28" style="stroke: #000000; stroke-width: 0.6"/>
      </g>
     </g>
    </g>
    <g id="xtick_19">
     <g id="line2d_21">
      <g>
       <use xlink:href="#mdef0a5bf72" x="201.576018" y="291.28" style="stroke: #000000; stroke-width: 0.6"/>
      </g>
     </g>
    </g>
    <g id="xtick_20">
     <g id="line2d_22">
      <g>
       <use xlink:href="#mdef0a5bf72" x="211.635556" y="291.28" style="stroke: #000000; stroke-width: 0.6"/>
      </g>
     </g>
    </g>
    <g id="xtick_21">
     <g id="line2d_23">
      <g>
       <use xlink:href="#mdef0a5bf72" x="219.438339" y="291.28" style="stroke: #000000; stroke-width: 0.6"/>
      </g>
     </g>
    </g>
    <g id="xtick_22">
     <g id="line2d_24">
      <g>
       <use xlink:href="#mdef0a5bf72" x="225.813678" y="291.28" style="stroke: #000000; stroke-width: 0.6"/>
      </g>
     </g>
    </g>
    <g id="xtick_23">
     <g id="line2d_25">
      <g>
       <use xlink:href="#mdef0a5bf72" x="231.20395" y="291.28" style="stroke: #000000; stroke-width: 0.6"/>
      </g>
     </g>
    </g>
    <g id="xtick_24">
     <g id="line2d_26">
      <g>
       <use xlink:href="#mdef0a5bf72" x="235.873216" y="291.28" style="stroke: #000000; stroke-width: 0.6"/>
      </g>
     </g>
    </g>
    <g id="xtick_25">
     <g id="line2d_27">
      <g>
       <use xlink:href="#mdef0a5bf72" x="239.991801" y="291.28" style="stroke: #000000; stroke-width: 0.6"/>
      </g>
     </g>
    </g>
    <g id="xtick_26">
     <g id="line2d_28">
      <g>
       <use xlink:href="#mdef0a5bf72" x="267.913661" y="291.28" style="stroke: #000000; stroke-width: 0.6"/>
      </g>
     </g>
    </g>
    <g id="xtick_27">
     <g id="line2d_29">
      <g>
       <use xlink:href="#mdef0a5bf72" x="282.091783" y="291.28" style="stroke: #000000; stroke-width: 0.6"/>
      </g>
     </g>
    </g>
    <g id="xtick_28">
     <g id="line2d_30">
      <g>
       <use xlink:href="#mdef0a5bf72" x="292.151321" y="291.28" style="stroke: #000000; stroke-width: 0.6"/>
      </g>
     </g>
    </g>
    <g id="xtick_29">
     <g id="line2d_31">
      <g>
       <use xlink:href="#mdef0a5bf72" x="299.954105" y="291.28" style="stroke: #000000; stroke-width: 0.6"/>
      </g>
     </g>
    </g>
    <g id="xtick_30">
     <g id="line2d_32">
      <g>
       <use xlink:href="#mdef0a5bf72" x="306.329444" y="291.28" style="stroke: #000000; stroke-width: 0.6"/>
      </g>
     </g>
    </g>
    <g id="xtick_31">
     <g id="line2d_33">
      <g>
       <use xlink:href="#mdef0a5bf72" x="311.719716" y="291.28" style="stroke: #000000; stroke-width: 0.6"/>
      </g>
     </g>
    </g>
    <g id="xtick_32">
     <g id="line2d_34">
      <g>
       <use xlink:href="#mdef0a5bf72" x="316.388982" y="291.28" style="stroke: #000000; stroke-width: 0.6"/>
      </g>
     </g>
    </g>
    <g id="xtick_33">
     <g id="line2d_35">
      <g>
       <use xlink:href="#mdef0a5bf72" x="320.507566" y="291.28" style="stroke: #000000; stroke-width: 0.6"/>
      </g>
     </g>
    </g>
    <g id="xtick_34">
     <g id="line2d_36">
      <g>
       <use xlink:href="#mdef0a5bf72" x="348.429426" y="291.28" style="stroke: #000000; stroke-width: 0.6"/>
      </g>
     </g>
    </g>
    <g id="xtick_35">
     <g id="line2d_37">
      <g>
       <use xlink:href="#mdef0a5bf72" x="362.607549" y="291.28" style="stroke: #000000; stroke-width: 0.6"/>
      </g>
     </g>
    </g>
    <g id="xtick_36">
     <g id="line2d_38">
      <g>
       <use xlink:href="#mdef0a5bf72" x="372.667087" y="291.28" style="stroke: #000000; stroke-width: 0.6"/>
      </g>
     </g>
    </g>
    <g id="xtick_37">
     <g id="line2d_39">
      <g>
       <use xlink:href="#mdef0a5bf72" x="380.469871" y="291.28" style="stroke: #000000; stroke-width: 0.6"/>
      </g>
     </g>
    </g>
    <g id="xtick_38">
     <g id="line2d_40">
      <g>
       <use xlink:href="#mdef0a5bf72" x="386.845209" y="291.28" style="stroke: #000000; stroke-width: 0.6"/>
      </g>
     </g>
    </g>
    <g id="xtick_39">
     <g id="line2d_41">
      <g>
       <use xlink:href="#mdef0a5bf72" x="392.235481" y="291.28" style="stroke: #000000; stroke-width: 0.6"/>
      </g>
     </g>
    </g>
    <g id="xtick_40">
     <g id="line2d_42">
      <g>
       <use xlink:href="#mdef0a5bf72" x="396.904747" y="291.28" style="stroke: #000000; stroke-width: 0.6"/>
      </g>
     </g>
    </g>
    <g id="xtick_41">
     <g id="line2d_43">
      <g>
       <use xlink:href="#mdef0a5bf72" x="401.023332" y="291.28" style="stroke: #000000; stroke-width: 0.6"/>
      </g>
     </g>
    </g>
    <g id="xtick_42">
     <g id="line2d_44">
      <g>
       <use xlink:href="#mdef0a5bf72" x="428.945192" y="291.28" style="stroke: #000000; stroke-width: 0.6"/>
      </g>
     </g>
    </g>
    <g id="xtick_43">
     <g id="line2d_45">
      <g>
       <use xlink:href="#mdef0a5bf72" x="443.123314" y="291.28" style="stroke: #000000; stroke-width: 0.6"/>
      </g>
     </g>
    </g>
    <g id="xtick_44">
     <g id="line2d_46">
      <g>
       <use xlink:href="#mdef0a5bf72" x="453.182852" y="291.28" style="stroke: #000000; stroke-width: 0.6"/>
      </g>
     </g>
    </g>
    <g id="text_3">
     <!-- log10 of FEvals ratio -->
     <g transform="translate(141.371312 336.833125) scale(0.2 -0.2)">
      <defs>
       <path id="DejaVuSans-6c" d="M 603 4863 
L 1178 4863 
L 1178 0 
L 603 0 
L 603 4863 
z
" transform="scale(0.015625)"/>
       <path id="DejaVuSans-6f" d="M 1959 3097 
Q 1497 3097 1228 2736 
Q 959 2375 959 1747 
Q 959 1119 1226 758 
Q 1494 397 1959 397 
Q 2419 397 2687 759 
Q 2956 1122 2956 1747 
Q 2956 2369 2687 2733 
Q 2419 3097 1959 3097 
z
M 1959 3584 
Q 2709 3584 3137 3096 
Q 3566 2609 3566 1747 
Q 3566 888 3137 398 
Q 2709 -91 1959 -91 
Q 1206 -91 779 398 
Q 353 888 353 1747 
Q 353 2609 779 3096 
Q 1206 3584 1959 3584 
z
" transform="scale(0.015625)"/>
       <path id="DejaVuSans-67" d="M 2906 1791 
Q 2906 2416 2648 2759 
Q 2391 3103 1925 3103 
Q 1463 3103 1205 2759 
Q 947 2416 947 1791 
Q 947 1169 1205 825 
Q 1463 481 1925 481 
Q 2391 481 2648 825 
Q 2906 1169 2906 1791 
z
M 3481 434 
Q 3481 -459 3084 -895 
Q 2688 -1331 1869 -1331 
Q 1566 -1331 1297 -1286 
Q 1028 -1241 775 -1147 
L 775 -588 
Q 1028 -725 1275 -790 
Q 1522 -856 1778 -856 
Q 2344 -856 2625 -561 
Q 2906 -266 2906 331 
L 2906 616 
Q 2728 306 2450 153 
Q 2172 0 1784 0 
Q 1141 0 747 490 
Q 353 981 353 1791 
Q 353 2603 747 3093 
Q 1141 3584 1784 3584 
Q 2172 3584 2450 3431 
Q 2728 3278 2906 2969 
L 2906 3500 
L 3481 3500 
L 3481 434 
z
" transform="scale(0.015625)"/>
       <path id="DejaVuSans-30" d="M 2034 4250 
Q 1547 4250 1301 3770 
Q 1056 3291 1056 2328 
Q 1056 1369 1301 889 
Q 1547 409 2034 409 
Q 2525 409 2770 889 
Q 3016 1369 3016 2328 
Q 3016 3291 2770 3770 
Q 2525 4250 2034 4250 
z
M 2034 4750 
Q 2819 4750 3233 4129 
Q 3647 3509 3647 2328 
Q 3647 1150 3233 529 
Q 2819 -91 2034 -91 
Q 1250 -91 836 529 
Q 422 1150 422 2328 
Q 422 3509 836 4129 
Q 1250 4750 2034 4750 
z
" transform="scale(0.015625)"/>
       <path id="DejaVuSans-20" transform="scale(0.015625)"/>
       <path id="DejaVuSans-66" d="M 2375 4863 
L 2375 4384 
L 1825 4384 
Q 1516 4384 1395 4259 
Q 1275 4134 1275 3809 
L 1275 3500 
L 2222 3500 
L 2222 3053 
L 1275 3053 
L 1275 0 
L 697 0 
L 697 3053 
L 147 3053 
L 147 3500 
L 697 3500 
L 697 3744 
Q 697 4328 969 4595 
Q 1241 4863 1831 4863 
L 2375 4863 
z
" transform="scale(0.015625)"/>
       <path id="DejaVuSans-46" d="M 628 4666 
L 3309 4666 
L 3309 4134 
L 1259 4134 
L 1259 2759 
L 3109 2759 
L 3109 2228 
L 1259 2228 
L 1259 0 
L 628 0 
L 628 4666 
z
" transform="scale(0.015625)"/>
       <path id="DejaVuSans-45" d="M 628 4666 
L 3578 4666 
L 3578 4134 
L 1259 4134 
L 1259 2753 
L 3481 2753 
L 3481 2222 
L 1259 2222 
L 1259 531 
L 3634 531 
L 3634 0 
L 628 0 
L 628 4666 
z
" transform="scale(0.015625)"/>
       <path id="DejaVuSans-76" d="M 191 3500 
L 800 3500 
L 1894 563 
L 2988 3500 
L 3597 3500 
L 2284 0 
L 1503 0 
L 191 3500 
z
" transform="scale(0.015625)"/>
       <path id="DejaVuSans-61" d="M 2194 1759 
Q 1497 1759 1228 1600 
Q 959 1441 959 1056 
Q 959 750 1161 570 
Q 1363 391 1709 391 
Q 2188 391 2477 730 
Q 2766 1069 2766 1631 
L 2766 1759 
L 2194 1759 
z
M 3341 1997 
L 3341 0 
L 2766 0 
L 2766 531 
Q 2569 213 2275 61 
Q 1981 -91 1556 -91 
Q 1019 -91 701 211 
Q 384 513 384 1019 
Q 384 1609 779 1909 
Q 1175 2209 1959 2209 
L 2766 2209 
L 2766 2266 
Q 2766 2663 2505 2880 
Q 2244 3097 1772 3097 
Q 1472 3097 1187 3025 
Q 903 2953 641 2809 
L 641 3341 
Q 956 3463 1253 3523 
Q 1550 3584 1831 3584 
Q 2591 3584 2966 3190 
Q 3341 2797 3341 1997 
z
" transform="scale(0.015625)"/>
       <path id="DejaVuSans-73" d="M 2834 3397 
L 2834 2853 
Q 2591 2978 2328 3040 
Q 2066 3103 1784 3103 
Q 1356 3103 1142 2972 
Q 928 2841 928 2578 
Q 928 2378 1081 2264 
Q 1234 2150 1697 2047 
L 1894 2003 
Q 2506 1872 2764 1633 
Q 3022 1394 3022 966 
Q 3022 478 2636 193 
Q 2250 -91 1575 -91 
Q 1294 -91 989 -36 
Q 684 19 347 128 
L 347 722 
Q 666 556 975 473 
Q 1284 391 1588 391 
Q 1994 391 2212 530 
Q 2431 669 2431 922 
Q 2431 1156 2273 1281 
Q 2116 1406 1581 1522 
L 1381 1569 
Q 847 1681 609 1914 
Q 372 2147 372 2553 
Q 372 3047 722 3315 
Q 1072 3584 1716 3584 
Q 2034 3584 2315 3537 
Q 2597 3491 2834 3397 
z
" transform="scale(0.015625)"/>
       <path id="DejaVuSans-72" d="M 2631 2963 
Q 2534 3019 2420 3045 
Q 2306 3072 2169 3072 
Q 1681 3072 1420 2755 
Q 1159 2438 1159 1844 
L 1159 0 
L 581 0 
L 581 3500 
L 1159 3500 
L 1159 2956 
Q 1341 3275 1631 3429 
Q 1922 3584 2338 3584 
Q 2397 3584 2469 3576 
Q 2541 3569 2628 3553 
L 2631 2963 
z
" transform="scale(0.015625)"/>
       <path id="DejaVuSans-74" d="M 1172 4494 
L 1172 3500 
L 2356 3500 
L 2356 3053 
L 1172 3053 
L 1172 1153 
Q 1172 725 1289 603 
Q 1406 481 1766 481 
L 2356 481 
L 2356 0 
L 1766 0 
Q 1100 0 847 248 
Q 594 497 594 1153 
L 594 3053 
L 172 3053 
L 172 3500 
L 594 3500 
L 594 4494 
L 1172 4494 
z
" transform="scale(0.015625)"/>
       <path id="DejaVuSans-69" d="M 603 3500 
L 1178 3500 
L 1178 0 
L 603 0 
L 603 3500 
z
M 603 4863 
L 1178 4863 
L 1178 4134 
L 603 4134 
L 603 4863 
z
" transform="scale(0.015625)"/>
      </defs>
      <use xlink:href="#DejaVuSans-6c"/>
      <use xlink:href="#DejaVuSans-6f" x="27.783203"/>
      <use xlink:href="#DejaVuSans-67" x="88.964844"/>
      <use xlink:href="#DejaVuSans-31" x="152.441406"/>
      <use xlink:href="#DejaVuSans-30" x="216.064453"/>
      <use xlink:href="#DejaVuSans-20" x="279.6875"/>
      <use xlink:href="#DejaVuSans-6f" x="311.474609"/>
      <use xlink:href="#DejaVuSans-66" x="372.65625"/>
      <use xlink:href="#DejaVuSans-20" x="407.861328"/>
      <use xlink:href="#DejaVuSans-46" x="439.648438"/>
      <use xlink:href="#DejaVuSans-45" x="497.167969"/>
      <use xlink:href="#DejaVuSans-76" x="560.351562"/>
      <use xlink:href="#DejaVuSans-61" x="619.53125"/>
      <use xlink:href="#DejaVuSans-6c" x="680.810547"/>
      <use xlink:href="#DejaVuSans-73" x="708.59375"/>
      <use xlink:href="#DejaVuSans-20" x="760.693359"/>
      <use xlink:href="#DejaVuSans-72" x="792.480469"/>
      <use xlink:href="#DejaVuSans-61" x="833.59375"/>
      <use xlink:href="#DejaVuSans-74" x="894.873047"/>
      <use xlink:href="#DejaVuSans-69" x="934.082031"/>
      <use xlink:href="#DejaVuSans-6f" x="961.865234"/>
     </g>
    </g>
   </g>
   <g id="matplotlib.axis_2">
    <g id="ytick_1">
     <g id="line2d_47">
      <path d="M 34.16 288.453725 
L 453.192 288.453725 
" clip-path="url(#pf1729859f9)" style="fill: none; stroke: #b0b0b0; stroke-width: 0.8; stroke-linecap: square"/>
     </g>
     <g id="line2d_48">
      <defs>
       <path id="m12133aed73" d="M 0 0 
L -3.5 0 
" style="stroke: #000000; stroke-width: 0.8"/>
      </defs>
      <g>
       <use xlink:href="#m12133aed73" x="34.16" y="288.453725" style="stroke: #000000; stroke-width: 0.8"/>
      </g>
     </g>
    </g>
    <g id="ytick_2">
     <g id="line2d_49">
      <path d="M 34.16 217.796863 
L 453.192 217.796863 
" clip-path="url(#pf1729859f9)" style="fill: none; stroke: #b0b0b0; stroke-width: 0.8; stroke-linecap: square"/>
     </g>
     <g id="line2d_50">
      <g>
       <use xlink:href="#m12133aed73" x="34.16" y="217.796863" style="stroke: #000000; stroke-width: 0.8"/>
      </g>
     </g>
    </g>
    <g id="ytick_3">
     <g id="line2d_51">
      <path d="M 34.16 147.14 
L 453.192 147.14 
" clip-path="url(#pf1729859f9)" style="fill: none; stroke: #b0b0b0; stroke-width: 0.8; stroke-linecap: square"/>
     </g>
     <g id="line2d_52">
      <g>
       <use xlink:href="#m12133aed73" x="34.16" y="147.14" style="stroke: #000000; stroke-width: 0.8"/>
      </g>
     </g>
    </g>
    <g id="ytick_4">
     <g id="line2d_53">
      <path d="M 34.16 76.483137 
L 453.192 76.483137 
" clip-path="url(#pf1729859f9)" style="fill: none; stroke: #b0b0b0; stroke-width: 0.8; stroke-linecap: square"/>
     </g>
     <g id="line2d_54">
      <g>
       <use xlink:href="#m12133aed73" x="34.16" y="76.483137" style="stroke: #000000; stroke-width: 0.8"/>
      </g>
     </g>
    </g>
    <g id="ytick_5">
     <g id="line2d_55">
      <path d="M 34.16 5.826275 
L 453.192 5.826275 
" clip-path="url(#pf1729859f9)" style="fill: none; stroke: #b0b0b0; stroke-width: 0.8; stroke-linecap: square"/>
     </g>
     <g id="line2d_56">
      <g>
       <use xlink:href="#m12133aed73" x="34.16" y="5.826275" style="stroke: #000000; stroke-width: 0.8"/>
      </g>
     </g>
    </g>
    <g id="text_4">
     <!-- proportion of trials -->
     <g transform="translate(19.000625 240.14625) rotate(-90) scale(0.2 -0.2)">
      <defs>
       <path id="DejaVuSans-70" d="M 1159 525 
L 1159 -1331 
L 581 -1331 
L 581 3500 
L 1159 3500 
L 1159 2969 
Q 1341 3281 1617 3432 
Q 1894 3584 2278 3584 
Q 2916 3584 3314 3078 
Q 3713 2572 3713 1747 
Q 3713 922 3314 415 
Q 2916 -91 2278 -91 
Q 1894 -91 1617 61 
Q 1341 213 1159 525 
z
M 3116 1747 
Q 3116 2381 2855 2742 
Q 2594 3103 2138 3103 
Q 1681 3103 1420 2742 
Q 1159 2381 1159 1747 
Q 1159 1113 1420 752 
Q 1681 391 2138 391 
Q 2594 391 2855 752 
Q 3116 1113 3116 1747 
z
" transform="scale(0.015625)"/>
       <path id="DejaVuSans-6e" d="M 3513 2113 
L 3513 0 
L 2938 0 
L 2938 2094 
Q 2938 2591 2744 2837 
Q 2550 3084 2163 3084 
Q 1697 3084 1428 2787 
Q 1159 2491 1159 1978 
L 1159 0 
L 581 0 
L 581 3500 
L 1159 3500 
L 1159 2956 
Q 1366 3272 1645 3428 
Q 1925 3584 2291 3584 
Q 2894 3584 3203 3211 
Q 3513 2838 3513 2113 
z
" transform="scale(0.015625)"/>
      </defs>
      <use xlink:href="#DejaVuSans-70"/>
      <use xlink:href="#DejaVuSans-72" x="63.476562"/>
      <use xlink:href="#DejaVuSans-6f" x="102.339844"/>
      <use xlink:href="#DejaVuSans-70" x="163.521484"/>
      <use xlink:href="#DejaVuSans-6f" x="226.998047"/>
      <use xlink:href="#DejaVuSans-72" x="288.179688"/>
      <use xlink:href="#DejaVuSans-74" x="329.292969"/>
      <use xlink:href="#DejaVuSans-69" x="368.501953"/>
      <use xlink:href="#DejaVuSans-6f" x="396.285156"/>
      <use xlink:href="#DejaVuSans-6e" x="457.466797"/>
      <use xlink:href="#DejaVuSans-20" x="520.845703"/>
      <use xlink:href="#DejaVuSans-6f" x="552.632812"/>
      <use xlink:href="#DejaVuSans-66" x="613.814453"/>
      <use xlink:href="#DejaVuSans-20" x="649.019531"/>
      <use xlink:href="#DejaVuSans-74" x="680.806641"/>
      <use xlink:href="#DejaVuSans-72" x="720.015625"/>
      <use xlink:href="#DejaVuSans-69" x="761.128906"/>
      <use xlink:href="#DejaVuSans-61" x="788.912109"/>
      <use xlink:href="#DejaVuSans-6c" x="850.191406"/>
      <use xlink:href="#DejaVuSans-73" x="877.974609"/>
     </g>
    </g>
   </g>
   <g id="line2d_57">
    <path d="M 34.16 274.349476 
L 65.657947 274.349476 
L 65.657947 273.807005 
L 66.688645 273.807005 
L 66.688645 273.264534 
L 67.071593 273.264534 
L 67.071593 272.722063 
L 68.10229 272.722063 
L 68.10229 272.179592 
L 70.618675 272.179592 
L 70.618675 271.637121 
L 71.649372 271.637121 
L 71.649372 271.09465 
L 72.511511 271.09465 
L 72.511511 270.552179 
L 73.925156 270.552179 
L 73.925156 270.009708 
L 77.472238 270.009708 
L 77.472238 269.467236 
L 80.818369 269.467236 
L 80.818369 268.924765 
L 82.232014 268.924765 
L 82.232014 268.382294 
L 85.779097 268.382294 
L 85.779097 267.839823 
L 88.446364 267.839823 
L 88.446364 267.297352 
L 89.860009 267.297352 
L 89.860009 266.754881 
L 92.579367 266.754881 
L 92.579367 266.21241 
L 93.407091 266.21241 
L 93.407091 265.669939 
L 93.993012 265.669939 
L 93.993012 265.127468 
L 97.540094 265.127468 
L 97.540094 264.584996 
L 124.164829 264.584996 
L 124.164829 264.042525 
L 125.195526 264.042525 
L 125.195526 263.500054 
L 131.018392 263.500054 
L 131.018392 262.957583 
L 133.806626 262.957583 
L 133.806626 262.415112 
L 134.837323 262.415112 
L 134.837323 261.872641 
L 138.305411 261.872641 
L 138.305411 261.33017 
L 139.325251 261.33017 
L 139.336108 260.245228 
L 140.660189 260.245228 
L 140.660189 259.702756 
L 145.158974 259.702756 
L 145.158974 259.160285 
L 146.953245 259.160285 
L 146.953245 258.617814 
L 148.967048 258.617814 
L 148.967048 258.075343 
L 151.086249 258.075343 
L 151.086249 257.532872 
L 153.465832 257.532872 
L 153.465832 256.990401 
L 156.595042 256.990401 
L 156.595042 256.44793 
L 160.728045 256.44793 
L 160.728045 255.905459 
L 161.093827 255.905459 
L 161.093827 255.362987 
L 165.22683 255.362987 
L 165.22683 254.820516 
L 172.614031 254.820516 
L 172.614031 254.278045 
L 173.644728 254.278045 
L 173.644728 253.735574 
L 179.467594 253.735574 
L 179.467594 253.193103 
L 181.99148 253.193103 
L 181.99148 252.650632 
L 182.906539 252.650632 
L 182.906539 252.108161 
L 183.405125 252.108161 
L 183.405125 251.56569 
L 183.613931 251.56569 
L 183.613931 251.023219 
L 184.128203 251.023219 
L 184.128203 250.480747 
L 185.541848 250.480747 
L 185.541848 249.938276 
L 186.575916 249.938276 
L 186.575916 249.395805 
L 186.952207 249.395805 
L 186.952207 248.853334 
L 187.456502 248.853334 
L 187.477684 247.768392 
L 187.774452 247.768392 
L 187.774452 247.225921 
L 187.989561 247.225921 
L 187.989561 246.68345 
L 188.405532 246.68345 
L 188.508381 245.598507 
L 188.608479 245.598507 
L 188.608479 245.056036 
L 189.08893 245.056036 
L 189.08893 244.513565 
L 190.993999 244.513565 
L 190.993999 243.971094 
L 191.519273 243.971094 
L 191.536643 242.886152 
L 193.297975 242.886152 
L 193.297975 242.343681 
L 194.137236 242.343681 
L 194.137236 241.80121 
L 194.331247 241.80121 
L 194.331247 241.258738 
L 195.402447 241.258738 
L 195.402447 240.716267 
L 196.50826 240.716267 
L 196.540533 239.631325 
L 198.20972 239.631325 
L 198.20972 239.088854 
L 199.53545 239.088854 
L 199.53545 238.546383 
L 200.587359 238.546383 
L 200.587359 238.003912 
L 202.638106 238.003912 
L 202.638106 237.461441 
L 208.476235 237.461441 
L 208.476235 236.91897 
L 208.909205 236.91897 
L 208.909205 236.376498 
L 209.342213 236.376498 
L 209.342213 235.834027 
L 210.2661 235.834027 
L 210.2661 235.291556 
L 210.755858 235.291556 
L 210.755858 234.749085 
L 212.016186 234.749085 
L 212.016186 234.206614 
L 213.046883 234.206614 
L 213.046883 233.664143 
L 214.30294 233.664143 
L 214.399104 232.579201 
L 216.099262 232.579201 
L 216.099262 232.03673 
L 216.620641 232.03673 
L 216.620641 231.494258 
L 217.512907 231.494258 
L 217.512907 230.951787 
L 218.034286 230.951787 
L 218.034286 230.409316 
L 218.869749 230.409316 
L 218.869749 229.866845 
L 221.05999 229.866845 
L 221.05999 229.324374 
L 221.581369 229.324374 
L 221.581369 228.781903 
L 227.176608 228.781903 
L 227.176608 228.239432 
L 229.564356 228.239432 
L 229.564356 227.696961 
L 230.595053 227.696961 
L 230.595053 227.154489 
L 232.658387 227.154489 
L 232.658387 226.612018 
L 232.840605 226.612018 
L 232.840605 226.069547 
L 233.689084 226.069547 
L 233.689084 225.527076 
L 233.871302 225.527076 
L 233.871302 224.984605 
L 234.804602 224.984605 
L 234.804602 224.442134 
L 236.417919 224.442134 
L 236.417919 223.899663 
L 238.668938 223.899663 
L 238.710246 222.814721 
L 238.937605 222.814721 
L 238.937605 222.272249 
L 239.37633 222.272249 
L 239.417638 221.187307 
L 239.51195 221.187307 
L 239.51195 220.644836 
L 239.694168 220.644836 
L 239.716576 219.559894 
L 240.360564 219.559894 
L 240.423968 218.474952 
L 240.498361 218.474952 
L 240.498361 217.932481 
L 241.016635 217.932481 
L 241.067956 216.847538 
L 241.640277 216.847538 
L 241.724027 215.762596 
L 241.910995 215.762596 
L 241.910995 215.220125 
L 242.347669 215.220125 
L 242.347669 214.677654 
L 242.618387 214.677654 
L 242.635084 213.592712 
L 243.218901 213.592712 
L 243.26021 212.507769 
L 243.533372 212.507769 
L 243.628393 211.422827 
L 244.167931 211.422827 
L 244.26654 209.252943 
L 244.335785 209.252943 
L 244.412186 207.625529 
L 244.724777 207.625529 
L 244.724777 207.083058 
L 244.910528 207.083058 
L 244.910528 206.540587 
L 245.082797 206.540587 
L 245.082797 205.998116 
L 245.21557 205.998116 
L 245.21557 205.455645 
L 245.418516 205.455645 
L 245.418516 204.913174 
L 245.566598 204.913174 
L 245.566598 204.370703 
L 245.859558 204.370703 
L 245.886294 203.28576 
L 246.062504 203.28576 
L 246.062504 202.743289 
L 246.19024 202.743289 
L 246.296703 201.658347 
L 246.460958 201.658347 
L 246.515629 200.573405 
L 246.718575 200.573405 
L 246.797707 198.945991 
L 246.916992 198.945991 
L 247.004095 197.861049 
L 247.13927 197.861049 
L 247.13927 197.318578 
L 247.281672 197.318578 
L 247.342217 195.691165 
L 247.409988 195.691165 
L 247.409988 195.148694 
L 247.612934 195.148694 
L 247.612934 194.606223 
L 247.804036 194.606223 
L 247.818809 193.52128 
L 248.001027 193.52128 
L 248.083336 192.436338 
L 248.178356 192.436338 
L 248.178356 191.893867 
L 248.304456 191.893867 
L 248.32931 190.808925 
L 248.448024 190.808925 
L 248.448024 190.266454 
L 248.973298 190.266454 
L 249.060374 188.096569 
L 249.101682 188.096569 
L 249.127386 186.469156 
L 249.235312 186.469156 
L 249.330333 185.384214 
L 249.629369 185.384214 
L 249.727737 184.299271 
L 249.899635 184.299271 
L 249.998455 182.671858 
L 250.108012 182.671858 
L 250.140158 181.586916 
L 250.25301 181.586916 
L 250.25301 181.044445 
L 250.523728 181.044445 
L 250.523728 180.501974 
L 250.752 180.501974 
L 250.846667 179.417031 
L 250.947274 179.417031 
L 250.947274 178.87456 
L 251.408071 178.87456 
L 251.408071 178.332089 
L 251.591262 178.332089 
L 251.620832 177.247147 
L 251.715853 177.247147 
L 251.795697 176.162205 
L 251.998643 176.162205 
L 252.091528 174.534791 
L 252.146106 174.534791 
L 252.247332 172.907378 
L 252.270659 172.907378 
L 252.352772 169.11008 
L 252.739857 169.11008 
L 252.79892 168.025138 
L 252.854419 168.025138 
L 252.870974 166.940196 
L 253.141692 166.940196 
L 253.141692 166.397725 
L 253.318297 166.397725 
L 253.35057 165.312782 
L 253.803449 165.312782 
L 253.803449 164.770311 
L 253.924808 164.770311 
L 254.019829 160.973013 
L 254.384164 160.973013 
L 254.384164 160.430542 
L 254.509651 160.430542 
L 254.618356 159.3456 
L 254.638943 159.3456 
L 254.724594 157.718187 
L 254.76407 157.718187 
L 254.85909 156.633245 
L 254.909437 156.633245 
L 255.019757 155.548302 
L 255.128594 155.548302 
L 255.128594 155.005831 
L 255.241998 155.005831 
L 255.274271 153.920889 
L 255.446803 153.920889 
L 255.544989 152.293476 
L 255.629021 152.293476 
L 255.663745 151.208533 
L 255.835986 151.208533 
L 255.923296 150.123591 
L 256.202538 150.123591 
L 256.202538 149.58112 
L 256.319816 149.58112 
L 256.391916 147.411236 
L 256.485775 147.411236 
L 256.485775 146.868764 
L 256.641491 146.868764 
L 256.688139 145.783822 
L 256.775666 145.783822 
L 256.775666 145.241351 
L 256.90993 145.241351 
L 256.943458 143.613938 
L 257.135093 143.613938 
L 257.230114 141.444053 
L 257.262387 141.444053 
L 257.262387 140.901582 
L 257.397397 140.901582 
L 257.397397 140.359111 
L 257.527401 140.359111 
L 257.590521 139.274169 
L 257.793468 139.274169 
L 257.793468 138.731698 
L 258.041385 138.731698 
L 258.041385 138.189227 
L 258.695892 138.189227 
L 258.697456 137.104284 
L 258.836553 137.104284 
L 258.931574 136.019342 
L 259.223379 136.019342 
L 259.321097 134.9344 
L 259.470378 134.9344 
L 259.579806 133.306987 
L 259.591815 133.306987 
L 259.678557 132.222044 
L 259.762024 132.222044 
L 259.762024 131.679573 
L 259.898425 131.679573 
L 259.930698 130.594631 
L 260.178988 130.594631 
L 260.178988 130.05216 
L 260.627587 130.05216 
L 260.704261 128.967218 
L 260.752501 128.967218 
L 260.830534 127.882275 
L 261.046716 127.882275 
L 261.046716 127.339804 
L 261.214193 127.339804 
L 261.309213 126.254862 
L 261.599885 126.254862 
L 261.701531 125.16992 
L 261.904478 125.16992 
L 261.93845 123.542506 
L 262.482964 123.542506 
L 262.482964 123.000035 
L 263.216054 123.000035 
L 263.322225 121.915093 
L 263.607637 121.915093 
L 263.607637 121.372622 
L 263.741328 121.372622 
L 263.741328 120.830151 
L 263.977524 120.830151 
L 263.977524 120.28768 
L 264.238634 120.28768 
L 264.289998 118.660266 
L 264.671604 118.660266 
L 264.712912 117.575324 
L 264.815272 117.575324 
L 264.815272 117.032853 
L 265.286273 117.032853 
L 265.286273 116.490382 
L 265.52003 116.490382 
L 265.52003 115.947911 
L 265.693249 115.947911 
L 265.725522 114.320498 
L 265.93026 114.320498 
L 265.985277 113.235555 
L 266.359291 113.235555 
L 266.36323 112.150613 
L 266.586331 112.150613 
L 266.593974 111.065671 
L 267.019301 111.065671 
L 267.019301 110.5232 
L 267.209973 110.5232 
L 267.209973 109.980729 
L 267.394709 109.980729 
L 267.480691 108.353315 
L 267.642943 108.353315 
L 267.642943 107.810844 
L 267.849094 107.810844 
L 267.913661 106.725902 
L 268.674711 106.725902 
L 268.762588 105.098489 
L 269.103068 105.098489 
L 269.198089 104.013546 
L 269.536038 104.013546 
L 269.631059 102.928604 
L 269.772348 102.928604 
L 269.836532 101.301191 
L 270.431775 101.301191 
L 270.431775 100.75872 
L 271.505719 100.75872 
L 271.505719 100.216249 
L 271.8664 100.216249 
L 271.8664 99.673777 
L 272.299369 99.673777 
L 272.299369 99.131306 
L 272.807714 99.131306 
L 272.809414 98.046364 
L 273.874152 98.046364 
L 273.883358 96.961422 
L 274.307122 96.961422 
L 274.307122 96.418951 
L 274.606144 96.418951 
L 274.606144 95.87648 
L 275.127523 95.87648 
L 275.127523 95.334009 
L 277.490891 95.334009 
L 277.490891 94.791537 
L 277.661224 94.791537 
L 277.661224 94.249066 
L 278.094194 94.249066 
L 278.094194 93.706595 
L 280.69829 93.706595 
L 280.69829 93.164124 
L 281.13126 93.164124 
L 281.13126 92.621653 
L 281.772234 92.621653 
L 281.772234 92.079182 
L 281.989676 92.079182 
L 281.989676 91.536711 
L 282.205204 91.536711 
L 282.205204 90.99424 
L 284.247941 90.99424 
L 284.247941 90.451768 
L 284.76932 90.451768 
L 284.76932 89.909297 
L 288.746726 89.909297 
L 288.746726 89.366826 
L 288.947563 89.366826 
L 288.947563 88.824355 
L 289.268105 88.824355 
L 289.268105 88.281884 
L 291.084286 88.281884 
L 291.084286 87.739413 
L 293.531999 87.739413 
L 293.531999 87.196942 
L 303.811216 87.196942 
L 303.811216 86.654471 
L 305.947939 86.654471 
L 305.947939 86.112 
L 308.395652 86.112 
L 308.395652 85.569528 
L 313.016532 85.569528 
L 313.016532 85.027057 
L 316.298296 85.027057 
L 316.298296 84.484586 
L 322.658329 84.484586 
L 322.658329 83.942115 
L 323.055345 83.942115 
L 323.055345 83.399644 
L 323.576724 83.399644 
L 323.576724 82.857173 
L 327.157114 82.857173 
L 327.157114 82.314702 
L 328.349718 82.314702 
L 328.349718 81.772231 
L 330.486441 81.772231 
L 330.486441 81.22976 
L 331.161949 81.22976 
L 331.161949 80.687288 
L 332.934154 80.687288 
L 332.934154 80.144817 
L 337.918999 80.144817 
L 337.918999 79.602346 
L 338.440378 79.602346 
L 338.440378 79.059875 
L 345.897888 79.059875 
L 345.897888 78.517404 
L 348.034611 78.517404 
L 348.034611 77.974933 
L 348.991919 77.974933 
L 348.991919 77.432462 
L 349.174137 77.432462 
L 349.174137 76.889991 
L 350.482324 76.889991 
L 350.482324 76.347519 
L 351.128642 76.347519 
L 351.128642 75.805048 
L 351.31086 75.805048 
L 351.31086 75.262577 
L 353.576355 75.262577 
L 353.576355 74.720106 
L 353.758573 74.720106 
L 353.758573 74.177635 
L 355.700451 74.177635 
L 355.700451 73.635164 
L 361.465734 73.635164 
L 361.465734 73.092693 
L 362.219827 73.092693 
L 362.219827 72.550222 
L 362.457501 72.550222 
L 362.457501 72.007751 
L 362.97888 72.007751 
L 362.97888 71.465279 
L 364.35655 71.465279 
L 364.35655 70.922808 
L 366.804263 70.922808 
L 366.804263 70.380337 
L 373.248621 70.380337 
L 373.248621 69.837866 
L 376.329387 69.837866 
L 376.342652 68.752924 
L 376.52487 68.752924 
L 376.52487 68.210453 
L 380.005671 68.210453 
L 380.005671 67.667982 
L 380.52705 67.667982 
L 380.52705 67.125511 
L 383.099702 67.125511 
L 383.099702 66.583039 
L 383.28192 66.583039 
L 383.28192 66.040568 
L 383.621081 66.040568 
L 383.621081 65.498097 
L 383.803299 65.498097 
L 383.803299 64.955626 
L 389.57056 64.955626 
L 389.57056 64.413155 
L 396.327609 64.413155 
L 396.327609 63.870684 
L 396.848988 63.870684 
L 396.848988 63.328213 
L 400.867889 63.328213 
L 400.867889 62.785742 
L 418.416059 62.785742 
L 418.416059 62.24327 
L 421.51009 62.24327 
L 421.51009 61.700799 
L 421.692308 61.700799 
L 421.692308 61.158328 
L 434.737997 61.158328 
L 434.737997 60.615857 
L 453.192 60.615857 
L 453.192 60.615857 
" clip-path="url(#pf1729859f9)" style="fill: none; stroke: #000000; stroke-width: 3; stroke-linecap: square"/>
   </g>
   <g id="line2d_58">
    <path clip-path="url(#pf1729859f9)" style="fill: none; stroke: #000000; stroke-width: 3; stroke-linecap: square"/>
   </g>
   <g id="line2d_59">
    <path d="M 34.16 273.48771 
L 81.363857 273.48771 
L 81.363857 272.912094 
L 94.517311 272.912094 
L 94.517311 272.336478 
L 101.987939 272.336478 
L 101.987939 271.760862 
L 103.376095 271.760862 
L 103.376095 271.185246 
L 107.217172 271.185246 
L 107.217172 270.60963 
L 124.732617 270.60963 
L 124.732617 270.034014 
L 128.621441 270.034014 
L 128.621441 269.458398 
L 155.522872 269.458398 
L 155.522872 268.882782 
L 162.592622 268.882782 
L 162.592622 268.307166 
L 163.577642 268.307166 
L 163.577642 267.73155 
L 165.216997 267.73155 
L 165.216997 267.155934 
L 167.276174 267.155934 
L 167.276174 266.580318 
L 169.614352 266.580318 
L 169.614352 266.004702 
L 171.437559 266.004702 
L 171.437559 265.429086 
L 171.559348 265.429086 
L 171.559348 264.85347 
L 172.299421 264.85347 
L 172.336794 263.702238 
L 174.244417 263.702238 
L 174.281791 262.551006 
L 175.746076 262.551006 
L 175.746076 261.97539 
L 176.731096 261.97539 
L 176.731096 261.399774 
L 178.370451 261.399774 
L 178.370451 260.824158 
L 179.888524 260.824158 
L 179.888524 260.248542 
L 180.429628 260.248542 
L 180.429628 259.672926 
L 181.12981 259.672926 
L 181.12981 259.09731 
L 183.216704 259.09731 
L 183.216704 258.521694 
L 184.201725 258.521694 
L 184.201725 257.946078 
L 184.60486 257.946078 
L 184.60486 257.370462 
L 185.589881 257.370462 
L 185.589881 256.794846 
L 185.84108 256.794846 
L 185.84108 256.21923 
L 187.229236 256.21923 
L 187.229236 255.643614 
L 187.900257 255.643614 
L 187.900257 255.067998 
L 188.445937 255.067998 
L 188.445937 254.492382 
L 188.889033 254.492382 
L 188.889033 253.916766 
L 189.288413 253.916766 
L 189.288413 253.34115 
L 189.430958 253.34115 
L 189.505552 251.614302 
L 190.039173 251.614302 
L 190.039173 251.038686 
L 190.176917 251.038686 
L 190.176917 250.46307 
L 190.304975 250.46307 
L 190.304975 249.887454 
L 190.939614 249.887454 
L 190.939614 249.311838 
L 191.070313 249.311838 
L 191.146809 248.160606 
L 191.574102 248.160606 
L 191.611476 247.009374 
L 191.918998 247.009374 
L 191.918998 246.433758 
L 192.121913 246.433758 
L 192.227995 243.555678 
L 192.249971 243.555678 
L 192.249971 242.980062 
L 192.884611 242.980062 
L 192.902206 241.82883 
L 193.091806 241.82883 
L 193.12949 240.677598 
L 193.320439 240.677598 
L 193.320439 240.101982 
L 193.824093 240.101982 
L 193.863994 238.95075 
L 195.58231 238.95075 
L 195.58231 238.375134 
L 195.769089 238.375134 
L 195.769089 237.799518 
L 202.393749 237.799518 
L 202.393749 237.223902 
L 203.192626 237.223902 
L 203.192626 236.648286 
L 205.961382 236.648286 
L 205.961382 236.07267 
L 206.473893 236.07267 
L 206.473893 235.497054 
L 206.946403 235.497054 
L 206.946403 234.921438 
L 208.585758 234.921438 
L 208.585758 234.345822 
L 208.735764 234.345822 
L 208.735764 233.770206 
L 209.451598 233.770206 
L 209.451598 233.19459 
L 209.579656 233.19459 
L 209.579656 232.618974 
L 209.850206 232.618974 
L 209.850206 232.043358 
L 210.024249 232.043358 
L 210.068117 230.892127 
L 210.152307 230.892127 
L 210.214296 229.165279 
L 210.421491 229.165279 
L 210.421491 228.589663 
L 210.644935 228.589663 
L 210.663255 227.438431 
L 210.786946 227.438431 
L 210.835227 225.711583 
L 210.994141 225.711583 
L 211.038009 224.560351 
L 211.193679 224.560351 
L 211.193679 223.984735 
L 211.367505 223.984735 
L 211.367505 223.409119 
L 211.76633 223.409119 
L 211.810198 222.257887 
L 212.051411 222.257887 
L 212.051411 221.682271 
L 212.474582 221.682271 
L 212.474582 221.106655 
L 212.711513 221.106655 
L 212.711513 220.531039 
L 213.098774 220.531039 
L 213.098774 219.955423 
L 213.312501 219.955423 
L 213.312501 219.379807 
L 213.488542 219.379807 
L 213.488542 218.804191 
L 213.654764 218.804191 
L 213.715293 217.077343 
L 213.893921 217.077343 
L 213.944521 215.926111 
L 214.382101 215.926111 
L 214.382101 215.350495 
L 214.533759 215.350495 
L 214.555957 214.199263 
L 215.332677 214.199263 
L 215.433956 211.896799 
L 215.59976 211.896799 
L 215.628691 210.745567 
L 215.838918 210.745567 
L 215.892488 209.594335 
L 216.206393 209.594335 
L 216.206393 209.018719 
L 217.241026 209.018719 
L 217.2784 207.867487 
L 217.573687 207.867487 
L 217.594549 206.716255 
L 219.173754 206.716255 
L 219.173754 206.140639 
L 219.422687 206.140639 
L 219.422687 205.565023 
L 221.435626 205.565023 
L 221.435626 204.989407 
L 227.535555 204.989407 
L 227.535555 204.413791 
L 230.642186 204.413791 
L 230.642186 203.838175 
L 231.214837 203.838175 
L 231.258705 202.686943 
L 232.576141 202.686943 
L 232.576141 202.111327 
L 232.763224 202.111327 
L 232.763224 201.535711 
L 232.929445 201.535711 
L 232.929445 200.960095 
L 233.168603 200.960095 
L 233.274078 199.808863 
L 233.335874 199.808863 
L 233.407933 197.506399 
L 233.502096 197.506399 
L 233.545964 196.355167 
L 233.741253 196.355167 
L 233.785121 195.203935 
L 233.89906 195.203935 
L 233.89906 194.628319 
L 234.036776 194.628319 
L 234.036776 194.052703 
L 234.243971 194.052703 
L 234.243971 193.477087 
L 234.440793 193.477087 
L 234.440793 192.901471 
L 234.903372 192.901471 
L 235.006183 191.750239 
L 235.016159 191.750239 
L 235.126006 190.023391 
L 235.24658 190.023391 
L 235.24658 189.447775 
L 235.476022 189.447775 
L 235.519891 188.296543 
L 235.788308 188.296543 
L 235.88122 187.145311 
L 236.088414 187.145311 
L 236.088414 186.569695 
L 236.383309 186.569695 
L 236.394339 185.418463 
L 236.689199 185.418463 
L 236.751637 184.267231 
L 236.860603 184.267231 
L 236.921254 183.115999 
L 237.125862 183.115999 
L 237.163235 181.964767 
L 237.296757 181.964767 
L 237.296757 181.389151 
L 237.736657 181.389151 
L 237.736657 180.813535 
L 238.756455 180.813535 
L 238.765698 179.662303 
L 238.95107 179.662303 
L 238.95107 179.086687 
L 239.068378 179.086687 
L 239.105752 177.935455 
L 239.376012 177.935455 
L 239.376012 177.359839 
L 239.567446 177.359839 
L 239.567446 176.784223 
L 239.797557 176.784223 
L 239.797557 176.208607 
L 240.04677 176.208607 
L 240.04677 175.632991 
L 240.235416 175.632991 
L 240.235416 175.057376 
L 240.578023 175.057376 
L 240.578023 174.48176 
L 241.434926 174.48176 
L 241.478898 172.179296 
L 241.742553 172.179296 
L 241.742553 171.60368 
L 242.252514 171.60368 
L 242.289888 170.452448 
L 242.839895 170.452448 
L 242.839895 169.876832 
L 245.276003 169.876832 
L 245.276003 169.301216 
L 247.052514 169.301216 
L 247.052514 168.7256 
L 248.27946 168.7256 
L 248.27946 168.149984 
L 248.941762 168.149984 
L 248.941762 167.574368 
L 252.666323 167.574368 
L 252.666323 166.998752 
L 253.651344 166.998752 
L 253.651344 166.423136 
L 254.464666 166.423136 
L 254.523142 165.271904 
L 255.003358 165.271904 
L 255.003358 164.696288 
L 255.131416 164.696288 
L 255.131416 164.120672 
L 255.290699 164.120672 
L 255.290699 163.545056 
L 255.750088 163.545056 
L 255.766055 162.393824 
L 255.911298 162.393824 
L 255.97325 161.242592 
L 256.30911 161.242592 
L 256.41239 160.09136 
L 256.585704 160.09136 
L 256.585704 159.515744 
L 256.745439 159.515744 
L 256.751925 158.364512 
L 256.945874 158.364512 
L 256.991082 157.21328 
L 257.073932 157.21328 
L 257.138244 156.062048 
L 257.349876 156.062048 
L 257.349876 155.486432 
L 257.708572 155.486432 
L 257.800546 153.759584 
L 257.915767 153.759584 
L 257.915767 153.183968 
L 258.430148 153.183968 
L 258.430148 152.608352 
L 258.596369 152.608352 
L 258.687955 150.881504 
L 258.725852 150.881504 
L 258.835526 149.730272 
L 259.072239 149.730272 
L 259.072239 149.154656 
L 259.31902 149.154656 
L 259.31902 148.57904 
L 259.447078 148.57904 
L 259.447078 148.003424 
L 259.644889 148.003424 
L 259.752375 146.276576 
L 260.081718 146.276576 
L 260.13001 145.125344 
L 260.258068 145.125344 
L 260.288913 143.974112 
L 260.570296 143.974112 
L 260.59305 142.82288 
L 260.892708 142.82288 
L 260.979321 141.671648 
L 261.061101 141.671648 
L 261.117289 139.9448 
L 261.639685 139.9448 
L 261.641623 138.793568 
L 261.872091 138.793568 
L 261.872091 138.217952 
L 262.102309 138.217952 
L 262.102309 137.642336 
L 262.358575 137.642336 
L 262.358575 137.06672 
L 262.791447 137.06672 
L 262.791447 136.491104 
L 262.966196 136.491104 
L 262.966196 135.915488 
L 263.343596 135.915488 
L 263.343596 135.339872 
L 263.741665 135.339872 
L 263.777186 134.18864 
L 264.198187 134.18864 
L 264.198187 133.613024 
L 264.982951 133.613024 
L 264.982951 133.037408 
L 265.800842 133.037408 
L 265.800842 132.461792 
L 266.680272 132.461792 
L 266.680272 131.886176 
L 267.042128 131.886176 
L 267.042128 131.31056 
L 267.479454 131.31056 
L 267.479454 130.734944 
L 268.264568 130.734944 
L 268.264568 130.159328 
L 269.741325 130.159328 
L 269.741325 129.583712 
L 270.949637 129.583712 
L 270.987011 128.43248 
L 274.130971 128.43248 
L 274.130971 127.856864 
L 275.115991 127.856864 
L 275.115991 127.281248 
L 276.193946 127.281248 
L 276.193946 126.705632 
L 276.755346 126.705632 
L 276.755346 126.130016 
L 277.072818 126.130016 
L 277.072818 125.5544 
L 277.26782 125.5544 
L 277.26782 124.978784 
L 278.136462 124.978784 
L 278.136462 124.403168 
L 278.314983 124.403168 
L 278.314983 123.827552 
L 278.481205 123.827552 
L 278.494766 122.67632 
L 278.720362 122.67632 
L 278.814523 121.525088 
L 279.157068 121.525088 
L 279.157068 120.949472 
L 279.757886 120.949472 
L 279.79526 119.79824 
L 280.112874 119.79824 
L 280.112874 119.222624 
L 280.2575 119.222624 
L 280.2575 118.647009 
L 280.423721 118.647009 
L 280.509608 116.920161 
L 280.662878 116.920161 
L 280.662878 116.344545 
L 281.156644 116.344545 
L 281.156644 115.768929 
L 281.320598 115.768929 
L 281.320598 115.193313 
L 282.38359 115.193313 
L 282.397648 114.042081 
L 282.630646 114.042081 
L 282.630646 113.466465 
L 282.796867 113.466465 
L 282.894718 112.315233 
L 283.036025 112.315233 
L 283.045892 111.164001 
L 283.394141 111.164001 
L 283.441636 110.012769 
L 283.607857 110.012769 
L 283.622514 108.861537 
L 283.847015 108.861537 
L 283.847015 108.285921 
L 284.607535 108.285921 
L 284.607535 107.710305 
L 284.739162 107.710305 
L 284.770794 106.559073 
L 285.581784 106.559073 
L 285.656012 105.407841 
L 286.24689 105.407841 
L 286.24689 104.832225 
L 288.306067 104.832225 
L 288.306067 104.256609 
L 288.541116 104.256609 
L 288.56384 103.105377 
L 288.827133 103.105377 
L 288.827133 102.529761 
L 288.955191 102.529761 
L 288.955191 101.954145 
L 289.589831 101.954145 
L 289.589831 101.378529 
L 289.797026 101.378529 
L 289.805126 100.227297 
L 290.569214 100.227297 
L 290.569214 99.651681 
L 291.845106 99.651681 
L 291.845106 99.076065 
L 292.474309 99.076065 
L 292.474309 98.500449 
L 293.086392 98.500449 
L 293.086392 97.924833 
L 293.581702 97.924833 
L 293.581702 97.349217 
L 294.106977 97.349217 
L 294.106977 96.773601 
L 295.348263 96.773601 
L 295.348263 96.197985 
L 297.635383 96.197985 
L 297.635383 95.622369 
L 297.763441 95.622369 
L 297.763441 95.046753 
L 298.39808 95.046753 
L 298.39808 94.471137 
L 298.605275 94.471137 
L 298.605275 93.895521 
L 299.064721 93.895521 
L 299.064721 93.319905 
L 299.377464 93.319905 
L 299.377464 92.744289 
L 301.282559 92.744289 
L 301.282559 92.168673 
L 301.577521 92.168673 
L 301.577521 91.593057 
L 301.74979 91.593057 
L 301.787164 90.441825 
L 304.455803 90.441825 
L 304.455803 89.866209 
L 304.623998 89.866209 
L 304.623998 89.290593 
L 304.858788 89.290593 
L 304.858788 88.714977 
L 306.566514 88.714977 
L 306.566514 88.139361 
L 307.120659 88.139361 
L 307.120659 87.563745 
L 308.058075 87.563745 
L 308.058075 86.988129 
L 308.939661 86.988129 
L 308.939661 86.412513 
L 309.285021 86.412513 
L 309.285021 85.836897 
L 309.496389 85.836897 
L 309.496389 85.261281 
L 309.750651 85.261281 
L 309.750651 84.685665 
L 309.947323 84.685665 
L 310.017721 83.534433 
L 311.069065 83.534433 
L 311.069065 82.958817 
L 312.138759 82.958817 
L 312.138759 82.383201 
L 312.30498 82.383201 
L 312.30498 81.807585 
L 312.544138 81.807585 
L 312.544138 81.231969 
L 312.906768 81.231969 
L 312.906768 80.656353 
L 313.216804 80.656353 
L 313.216804 80.080737 
L 314.148054 80.080737 
L 314.148054 79.505121 
L 314.278907 79.505121 
L 314.350331 78.353889 
L 315.901872 78.353889 
L 315.939246 77.202657 
L 316.612202 77.202657 
L 316.612202 76.627041 
L 317.947354 76.627041 
L 317.947354 76.051425 
L 318.825971 76.051425 
L 318.825971 75.475809 
L 319.18864 75.475809 
L 319.18864 74.900193 
L 319.627286 74.900193 
L 319.627286 74.324577 
L 319.755344 74.324577 
L 319.755344 73.748961 
L 320.389984 73.748961 
L 320.389984 73.173345 
L 320.597178 73.173345 
L 320.597178 72.597729 
L 320.947008 72.597729 
L 320.947008 72.022113 
L 321.113229 72.022113 
L 321.113229 71.446497 
L 321.352387 71.446497 
L 321.369367 70.295265 
L 323.087156 70.295265 
L 323.087156 69.719649 
L 323.274462 69.719649 
L 323.274462 69.144033 
L 323.972762 69.144033 
L 323.972762 68.568417 
L 325.199708 68.568417 
L 325.199708 67.992801 
L 325.86201 67.992801 
L 325.92045 66.841569 
L 330.961036 66.841569 
L 330.961036 66.265953 
L 332.423727 66.265953 
L 332.423727 65.690337 
L 333.650673 65.690337 
L 333.665013 64.539105 
L 333.779368 64.539105 
L 333.779368 63.963489 
L 333.907427 63.963489 
L 333.907427 63.387873 
L 334.312975 63.387873 
L 334.312975 62.812257 
L 334.542066 62.812257 
L 334.542066 62.236642 
L 334.749261 62.236642 
L 334.749261 61.661026 
L 334.891959 61.661026 
L 334.891959 61.08541 
L 335.411993 61.08541 
L 335.521449 59.934178 
L 335.554261 59.934178 
L 335.554261 59.358562 
L 337.426544 59.358562 
L 337.426544 58.782946 
L 338.447774 58.782946 
L 338.447774 58.20733 
L 340.452579 58.20733 
L 340.452579 57.631714 
L 340.817874 57.631714 
L 340.817874 57.056098 
L 342.938912 57.056098 
L 342.938912 56.480482 
L 343.105133 56.480482 
L 343.105133 55.904866 
L 343.34429 55.904866 
L 343.34429 55.32925 
L 345.07906 55.32925 
L 345.07906 54.753634 
L 345.437409 54.753634 
L 345.437409 54.178018 
L 346.664355 54.178018 
L 346.664355 53.602402 
L 347.256023 53.602402 
L 347.326657 52.45117 
L 354.928952 52.45117 
L 354.969957 51.299938 
L 356.155898 51.299938 
L 356.155898 50.724322 
L 356.8182 50.724322 
L 356.8182 50.148706 
L 357.090994 50.148706 
L 357.090994 49.57309 
L 357.257215 49.57309 
L 357.257215 48.997474 
L 357.496373 48.997474 
L 357.496373 48.421858 
L 359.231142 48.421858 
L 359.231142 47.846242 
L 369.247926 47.846242 
L 369.247926 47.270626 
L 383.400009 47.270626 
L 383.400009 46.69501 
L 453.192 46.69501 
L 453.192 46.69501 
" clip-path="url(#pf1729859f9)" style="fill: none; stroke: #00bfbf; stroke-width: 3; stroke-linecap: square"/>
   </g>
   <g id="line2d_60">
    <path clip-path="url(#pf1729859f9)" style="fill: none; stroke: #00bfbf; stroke-width: 3; stroke-linecap: square"/>
   </g>
   <g id="line2d_61">
    <path d="M 34.16 260.828486 
L 96.648349 260.828486 
L 96.648349 259.765977 
L 109.56122 259.765977 
L 109.56122 258.703467 
L 117.006256 258.703467 
L 117.006256 257.640958 
L 118.341821 257.640958 
L 118.341821 256.578449 
L 120.409934 256.578449 
L 120.409934 255.51594 
L 136.606276 255.51594 
L 136.606276 254.453431 
L 139.717319 254.453431 
L 139.717319 253.390921 
L 143.447755 253.390921 
L 143.447755 252.328412 
L 155.916158 252.328412 
L 155.916158 251.265903 
L 164.617199 251.265903 
L 164.617199 250.203394 
L 164.882325 250.203394 
L 164.882325 249.140885 
L 166.369708 249.140885 
L 166.369708 248.078375 
L 169.346637 248.078375 
L 169.346637 247.015866 
L 170.409207 247.015866 
L 170.409207 245.953357 
L 177.53007 245.953357 
L 177.53007 244.890848 
L 177.795196 244.890848 
L 177.795196 243.828338 
L 179.282579 243.828338 
L 179.282579 242.765829 
L 182.259508 242.765829 
L 182.259508 241.70332 
L 184.975106 241.70332 
L 184.975106 240.640811 
L 185.099099 240.640811 
L 185.099099 239.578302 
L 185.240233 239.578302 
L 185.240233 238.515792 
L 185.428776 238.515792 
L 185.428776 237.453283 
L 186.310671 237.453283 
L 186.310671 236.390774 
L 186.575797 236.390774 
L 186.575797 235.328265 
L 186.727616 235.328265 
L 186.727616 234.265756 
L 188.06318 234.265756 
L 188.06318 233.203246 
L 188.378784 233.203246 
L 188.378784 232.140737 
L 188.64391 232.140737 
L 188.64391 231.078228 
L 189.704545 231.078228 
L 189.704545 230.015719 
L 190.131294 230.015719 
L 190.131294 228.953209 
L 191.040109 228.953209 
L 191.040109 227.8907 
L 191.347934 227.8907 
L 191.347934 226.828191 
L 193.108223 226.828191 
L 193.108223 225.765682 
L 194.149516 225.765682 
L 194.149516 224.703173 
L 197.37042 224.703173 
L 197.37042 223.640663 
L 197.625212 223.640663 
L 197.625212 222.578154 
L 204.260805 222.578154 
L 204.260805 221.515645 
L 204.575126 221.515645 
L 204.575126 220.453136 
L 204.840252 220.453136 
L 204.840252 219.390627 
L 206.327635 219.390627 
L 206.327635 218.328117 
L 207.062387 218.328117 
L 207.062387 217.265608 
L 207.686169 217.265608 
L 207.686169 216.203099 
L 207.951295 216.203099 
L 207.951295 215.14059 
L 209.304564 215.14059 
L 209.304564 214.07808 
L 209.438679 214.07808 
L 209.438679 213.015571 
L 210.283291 213.015571 
L 210.283291 211.953062 
L 211.416605 211.953062 
L 211.416605 210.890553 
L 211.681732 210.890553 
L 211.705842 208.765534 
L 212.415608 208.765534 
L 212.415608 207.703025 
L 213.041406 207.703025 
L 213.041406 206.640516 
L 213.169115 206.640516 
L 213.169115 205.578007 
L 214.507423 205.578007 
L 214.507423 204.515498 
L 215.10952 204.515498 
L 215.10952 203.452988 
L 215.800352 203.452988 
L 215.842988 201.32797 
L 216.146044 201.32797 
L 216.146044 200.265461 
L 217.728328 200.265461 
L 217.728328 199.202951 
L 217.911101 199.202951 
L 217.911101 198.140442 
L 219.063892 198.140442 
L 219.063892 197.077933 
L 220.54668 197.077933 
L 220.54668 196.015424 
L 221.132005 196.015424 
L 221.132005 194.952915 
L 223.885008 194.952915 
L 223.885008 193.890405 
L 224.150134 193.890405 
L 224.150134 192.827896 
L 225.637517 192.827896 
L 225.637517 191.765387 
L 228.614446 191.765387 
L 228.713223 189.640369 
L 231.305861 189.640369 
L 231.305861 188.577859 
L 233.459551 188.577859 
L 233.459551 187.51535 
L 234.107443 187.51535 
L 234.107443 186.452841 
L 234.416905 186.452841 
L 234.416905 185.390332 
L 235.326002 185.390332 
L 235.326002 184.327822 
L 236.15826 184.327822 
L 236.15826 183.265313 
L 236.444173 183.265313 
L 236.444173 182.202804 
L 236.842128 182.202804 
L 236.842128 181.140295 
L 237.218486 181.140295 
L 237.328347 179.015276 
L 237.493824 179.015276 
L 237.493824 177.952767 
L 238.147341 177.952767 
L 238.147341 176.890258 
L 238.378057 176.890258 
L 238.378057 175.827749 
L 238.643183 175.827749 
L 238.643183 174.76524 
L 239.561938 174.76524 
L 239.561938 173.70273 
L 240.130567 173.70273 
L 240.130567 172.640221 
L 240.439391 172.640221 
L 240.439391 171.577712 
L 240.904587 171.577712 
L 240.948923 169.452693 
L 242.240152 169.452693 
L 242.240152 168.390184 
L 243.107496 168.390184 
L 243.107496 167.327675 
L 244.169827 167.327675 
L 244.169827 166.265166 
L 244.308265 166.265166 
L 244.308265 165.202657 
L 248.238873 165.202657 
L 248.238873 164.140147 
L 249.357044 164.140147 
L 249.357044 163.077638 
L 249.754999 163.077638 
L 249.754999 162.015129 
L 250.615743 162.015129 
L 250.615743 160.95262 
L 253.067949 160.95262 
L 253.067949 159.890111 
L 253.333076 159.890111 
L 253.417325 156.702583 
L 253.662752 156.702583 
L 253.662752 155.640074 
L 254.820459 155.640074 
L 254.820459 154.577564 
L 255.150135 154.577564 
L 255.150135 153.515055 
L 255.68391 153.515055 
L 255.758279 151.390037 
L 256.638229 151.390037 
L 256.638229 150.327528 
L 256.80208 150.327528 
L 256.80208 149.265018 
L 257.019474 149.265018 
L 257.019474 148.202509 
L 257.200036 148.202509 
L 257.200036 147.14 
L 257.797388 147.14 
L 257.797388 146.077491 
L 258.127064 146.077491 
L 258.137645 143.952472 
L 258.5356 143.952472 
L 258.5356 142.889963 
L 258.869323 142.889963 
L 258.869323 141.827454 
L 259.087587 141.827454 
L 259.087587 140.764945 
L 260.205758 140.764945 
L 260.205758 139.702436 
L 260.504607 139.702436 
L 260.603714 137.577417 
L 262.599759 137.577417 
L 262.599759 136.514908 
L 263.61565 136.514908 
L 263.61565 135.452399 
L 265.108793 135.452399 
L 265.108793 134.389889 
L 265.594062 134.389889 
L 265.594062 133.32738 
L 265.859188 133.32738 
L 265.859188 132.264871 
L 267.346087 132.264871 
L 267.346572 130.139853 
L 267.910374 130.139853 
L 267.910374 129.077343 
L 270.323501 129.077343 
L 270.323501 128.014834 
L 271.131278 128.014834 
L 271.131278 126.952325 
L 275.068161 126.952325 
L 275.068161 125.889816 
L 275.283929 125.889816 
L 275.283929 124.827307 
L 276.4021 124.827307 
L 276.4021 123.764797 
L 276.800055 123.764797 
L 276.800055 122.702288 
L 278.394972 122.702288 
L 278.394972 121.639779 
L 279.513143 121.639779 
L 279.513143 120.57727 
L 279.798685 120.57727 
L 279.814489 118.452251 
L 279.911099 118.452251 
L 279.911099 117.389742 
L 280.128361 117.389742 
L 280.128361 116.327233 
L 282.125409 116.327233 
L 282.125409 115.264724 
L 282.600267 115.264724 
L 282.600267 114.202214 
L 282.929943 114.202214 
L 282.929943 113.139705 
L 283.243579 113.139705 
L 283.243579 112.077196 
L 283.641535 112.077196 
L 283.641535 111.014687 
L 285.821171 111.014687 
L 285.821171 109.952178 
L 286.150847 109.952178 
L 286.150847 108.889668 
L 289.561211 108.889668 
L 289.561211 107.827159 
L 292.324798 107.827159 
L 292.324798 106.76465 
L 294.307538 106.76465 
L 294.307538 105.702141 
L 294.593811 105.702141 
L 294.593811 104.639631 
L 295.126379 104.639631 
L 295.126379 103.577122 
L 295.711982 103.577122 
L 295.711982 102.514613 
L 296.109937 102.514613 
L 296.109937 101.452104 
L 298.347283 101.452104 
L 298.347283 100.389595 
L 304.251103 100.389595 
L 304.251103 99.327085 
L 304.580779 99.327085 
L 304.580779 98.264576 
L 308.997431 98.264576 
L 309.08686 96.139558 
L 309.327107 96.139558 
L 309.327107 95.077049 
L 310.205031 95.077049 
L 310.205031 94.014539 
L 310.602987 94.014539 
L 310.602987 92.95203 
L 316.777216 92.95203 
L 316.777216 91.889521 
L 321.523543 91.889521 
L 321.523543 90.827012 
L 323.776753 90.827012 
L 323.776753 89.764502 
L 324.106429 89.764502 
L 324.106429 88.701993 
L 324.894923 88.701993 
L 324.894923 87.639484 
L 325.2246 87.639484 
L 325.292879 85.514466 
L 325.622555 85.514466 
L 325.622555 84.451956 
L 336.302865 84.451956 
L 336.302865 83.389447 
L 337.421036 83.389447 
L 337.421036 82.326938 
L 337.818992 82.326938 
L 337.818992 81.264429 
L 453.192 81.264429 
L 453.192 81.264429 
" clip-path="url(#pf1729859f9)" style="fill: none; stroke: #bf00bf; stroke-width: 3; stroke-linecap: square"/>
   </g>
   <g id="line2d_62">
    <path clip-path="url(#pf1729859f9)" style="fill: none; stroke: #bf00bf; stroke-width: 3; stroke-linecap: square"/>
   </g>
   <g id="line2d_63">
    <path d="M 34.16 259.177575 
L 96.696106 259.177575 
L 96.696106 258.051569 
L 109.20809 258.051569 
L 109.20809 256.925564 
L 109.896637 256.925564 
L 109.896637 255.799558 
L 124.418966 255.799558 
L 124.418966 254.673552 
L 131.129134 254.673552 
L 131.129134 253.547546 
L 132.182466 253.547546 
L 132.182466 252.421541 
L 142.105074 252.421541 
L 142.105074 251.295535 
L 150.72874 251.295535 
L 150.72874 250.169529 
L 152.522011 250.169529 
L 152.583199 247.917517 
L 153.574651 247.917517 
L 153.574651 246.791512 
L 154.27425 246.791512 
L 154.27425 245.665506 
L 155.376691 245.665506 
L 155.376691 244.5395 
L 157.148593 244.5395 
L 157.148593 243.413494 
L 157.39044 243.413494 
L 157.39044 242.287488 
L 165.033995 242.287488 
L 165.095183 240.035477 
L 165.722542 240.035477 
L 165.78373 237.783465 
L 166.786234 237.783465 
L 166.786234 236.65746 
L 167.47478 236.65746 
L 167.47478 235.531454 
L 169.902424 235.531454 
L 169.902424 234.405448 
L 170.590971 234.405448 
L 170.590971 233.279442 
L 177.687451 233.279442 
L 177.687451 232.153436 
L 180.244871 232.153436 
L 180.306059 229.901425 
L 181.335646 229.901425 
L 181.335646 228.775419 
L 181.99711 228.775419 
L 181.99711 227.649413 
L 184.541572 227.649413 
L 184.541572 226.523408 
L 185.1133 226.523408 
L 185.1133 225.397402 
L 186.955039 225.397402 
L 187.016227 223.14539 
L 188.008371 223.14539 
L 188.069559 220.893379 
L 188.707278 220.893379 
L 188.707278 219.767373 
L 189.76061 219.767373 
L 189.76061 218.641367 
L 190.199436 218.641367 
L 190.199436 217.515361 
L 190.887982 217.515361 
L 190.887982 216.389356 
L 191.823468 216.389356 
L 191.823468 215.26335 
L 192.8768 215.26335 
L 192.8768 214.137344 
L 193.84763 214.137344 
L 193.84763 213.011338 
L 194.536177 213.011338 
L 194.536177 211.885332 
L 197.053556 211.885332 
L 197.07754 209.633321 
L 197.742102 209.633321 
L 197.742102 208.507315 
L 197.930979 208.507315 
L 197.992167 206.255303 
L 199.683217 206.255303 
L 199.683217 205.129298 
L 201.735519 205.129298 
L 201.735519 204.003292 
L 202.799408 204.003292 
L 202.799408 202.877286 
L 205.410311 202.877286 
L 205.410311 201.75128 
L 206.43003 201.75128 
L 206.43003 200.625275 
L 206.554645 200.625275 
L 206.615833 198.373263 
L 208.06255 198.373263 
L 208.06255 197.247257 
L 208.306884 197.247257 
L 208.306884 196.121251 
L 209.058506 196.121251 
L 209.058506 194.995246 
L 209.400556 194.995246 
L 209.461744 192.743234 
L 211.152794 192.743234 
L 211.263785 189.365217 
L 211.423074 189.365217 
L 211.423074 188.239211 
L 212.12048 188.239211 
L 212.12048 187.113205 
L 212.264432 187.113205 
L 212.264432 185.987199 
L 212.954835 185.987199 
L 213.035686 182.609182 
L 213.173812 182.609182 
L 213.173812 181.483176 
L 214.247503 181.483176 
L 214.268985 179.231165 
L 214.726737 179.231165 
L 214.726737 178.105159 
L 214.93605 178.105159 
L 214.93605 176.979153 
L 215.768674 176.979153 
L 215.768674 175.853147 
L 216.071025 175.853147 
L 216.071025 174.727142 
L 216.822006 174.727142 
L 216.822006 173.601136 
L 217.842927 173.601136 
L 217.842927 172.47513 
L 218.942014 172.47513 
L 218.9746 170.223119 
L 219.630561 170.223119 
L 219.630561 169.097113 
L 220.027932 169.097113 
L 220.027932 167.971107 
L 222.571408 167.971107 
L 222.571408 166.845101 
L 223.096419 166.845101 
L 223.096419 165.719095 
L 223.709429 165.719095 
L 223.709429 164.59309 
L 223.908232 164.59309 
L 223.908232 163.467084 
L 226.744614 163.467084 
L 226.744614 162.341078 
L 229.458379 162.341078 
L 229.458379 161.215072 
L 229.950539 161.215072 
L 229.950539 160.089066 
L 231.720086 160.089066 
L 231.720086 158.963061 
L 234.15289 158.963061 
L 234.15289 157.837055 
L 234.565996 157.837055 
L 234.565996 156.711049 
L 235.083393 156.711049 
L 235.083393 155.585043 
L 235.36828 155.585043 
L 235.36828 154.459038 
L 235.771939 154.459038 
L 235.771939 153.333032 
L 236.168548 153.333032 
L 236.221414 151.08102 
L 236.368037 151.08102 
L 236.420216 148.829009 
L 236.90996 148.829009 
L 236.90996 147.703003 
L 237.108763 147.703003 
L 237.108763 146.576997 
L 237.221879 146.576997 
L 237.221879 145.450991 
L 238.139938 145.450991 
L 238.214191 143.19898 
L 238.574206 143.19898 
L 238.574206 142.072974 
L 240.016232 142.072974 
L 240.016232 140.946968 
L 240.863058 140.946968 
L 240.863058 139.820962 
L 241.420116 139.820962 
L 241.420116 138.694957 
L 241.788133 138.694957 
L 241.788133 137.568951 
L 241.91639 137.568951 
L 241.91639 136.442945 
L 243.222157 136.442945 
L 243.222157 135.316939 
L 244.994059 135.316939 
L 244.994059 134.190934 
L 247.144487 134.190934 
L 247.144487 133.064928 
L 250.294268 133.064928 
L 250.294268 131.938922 
L 251.432289 131.938922 
L 251.432289 130.812916 
L 251.631092 130.812916 
L 251.631092 129.68691 
L 251.838998 129.68691 
L 251.838998 128.560905 
L 252.903446 128.560905 
L 252.964634 126.308893 
L 254.655684 126.308893 
L 254.655684 125.182887 
L 255.768153 125.182887 
L 255.768153 124.056881 
L 257.004437 124.056881 
L 257.004437 122.930876 
L 257.771874 122.930876 
L 257.771874 121.80487 
L 258.057769 121.80487 
L 258.142458 119.552858 
L 258.341261 119.552858 
L 258.341261 118.426853 
L 258.614064 118.426853 
L 258.614064 117.300847 
L 259.195789 117.300847 
L 259.195789 116.174841 
L 259.394592 116.174841 
L 259.394592 115.048835 
L 260.416105 115.048835 
L 260.462664 112.796824 
L 262.188006 112.796824 
L 262.188006 111.670818 
L 263.308575 111.670818 
L 263.308575 110.544812 
L 263.888455 110.544812 
L 263.949643 108.292801 
L 265.110616 108.292801 
L 265.110616 107.166795 
L 265.640693 107.166795 
L 265.640693 106.040789 
L 266.882517 106.040789 
L 266.882517 104.914783 
L 267.980376 104.914783 
L 267.980376 103.788777 
L 268.756884 103.788777 
L 268.756884 102.662772 
L 269.118397 102.662772 
L 269.118397 101.536766 
L 269.3172 101.536766 
L 269.3172 100.41076 
L 276.604043 100.41076 
L 276.604043 99.284754 
L 277.742064 99.284754 
L 277.742064 98.158749 
L 277.940866 98.158749 
L 277.940866 97.032743 
L 278.068886 97.032743 
L 278.068886 95.906737 
L 279.449953 95.906737 
L 279.449953 94.780731 
L 280.587974 94.780731 
L 280.587974 93.654725 
L 280.786777 93.654725 
L 280.786777 92.52872 
L 281.251994 92.52872 
L 281.251994 91.402714 
L 281.717081 91.402714 
L 281.717081 90.276708 
L 282.390015 90.276708 
L 282.390015 89.150702 
L 282.588818 89.150702 
L 282.588818 88.024697 
L 283.023895 88.024697 
L 283.023895 86.898691 
L 284.161916 86.898691 
L 284.161916 85.772685 
L 284.360719 85.772685 
L 284.360719 84.646679 
L 284.923006 84.646679 
L 284.923006 83.520673 
L 289.053895 83.520673 
L 289.053895 82.394668 
L 292.70209 82.394668 
L 292.70209 81.268662 
L 295.908015 81.268662 
L 295.908015 80.142656 
L 302.116954 80.142656 
L 302.116954 79.01665 
L 306.811465 79.01665 
L 306.811465 77.890644 
L 313.101963 77.890644 
L 313.101963 76.764639 
L 317.796474 76.764639 
L 317.796474 75.638633 
L 322.952843 75.638633 
L 322.952843 74.512627 
L 324.090864 74.512627 
L 324.090864 73.386621 
L 324.289667 73.386621 
L 324.289667 72.260616 
L 333.937852 72.260616 
L 333.937852 71.13461 
L 335.075873 71.13461 
L 335.075873 70.008604 
L 335.274676 70.008604 
L 335.274676 68.882598 
L 453.192 68.882598 
L 453.192 68.882598 
" clip-path="url(#pf1729859f9)" style="fill: none; stroke: #ff0000; stroke-width: 3; stroke-linecap: square"/>
   </g>
   <g id="line2d_64">
    <path clip-path="url(#pf1729859f9)" style="fill: none; stroke: #ff0000; stroke-width: 3; stroke-linecap: square"/>
   </g>
   <g id="line2d_65">
    <path d="M 243.676 291.28 
L 243.676 3 
" clip-path="url(#pf1729859f9)" style="fill: none; stroke: #000000; stroke-width: 1.5; stroke-linecap: square"/>
   </g>
   <g id="line2d_66">
    <path d="M 34.16 147.14 
L 453.192 147.14 
" clip-path="url(#pf1729859f9)" style="fill: none; stroke-dasharray: 2,3.3; stroke-dashoffset: 0; stroke: #000000; stroke-width: 2"/>
   </g>
   <g id="patch_3">
    <path d="M 34.16 291.28 
L 34.16 3 
" style="fill: none; stroke: #000000; stroke-width: 0.8; stroke-linejoin: miter; stroke-linecap: square"/>
   </g>
   <g id="patch_4">
    <path d="M 453.192 291.28 
L 453.192 3 
" style="fill: none; stroke: #000000; stroke-width: 0.8; stroke-linejoin: miter; stroke-linecap: square"/>
   </g>
   <g id="patch_5">
    <path d="M 34.16 291.28 
L 453.192 291.28 
" style="fill: none; stroke: #000000; stroke-width: 0.8; stroke-linejoin: miter; stroke-linecap: square"/>
   </g>
   <g id="patch_6">
    <path d="M 34.16 3 
L 453.192 3 
" style="fill: none; stroke: #000000; stroke-width: 0.8; stroke-linejoin: miter; stroke-linecap: square"/>
   </g>
   <g id="text_5">
    <!-- f20-f24,40-D -->
    <g transform="translate(318.19261 285.5144) scale(0.2 -0.2)">
     <defs>
      <path id="DejaVuSans-32" d="M 1228 531 
L 3431 531 
L 3431 0 
L 469 0 
L 469 531 
Q 828 903 1448 1529 
Q 2069 2156 2228 2338 
Q 2531 2678 2651 2914 
Q 2772 3150 2772 3378 
Q 2772 3750 2511 3984 
Q 2250 4219 1831 4219 
Q 1534 4219 1204 4116 
Q 875 4013 500 3803 
L 500 4441 
Q 881 4594 1212 4672 
Q 1544 4750 1819 4750 
Q 2544 4750 2975 4387 
Q 3406 4025 3406 3419 
Q 3406 3131 3298 2873 
Q 3191 2616 2906 2266 
Q 2828 2175 2409 1742 
Q 1991 1309 1228 531 
z
" transform="scale(0.015625)"/>
      <path id="DejaVuSans-34" d="M 2419 4116 
L 825 1625 
L 2419 1625 
L 2419 4116 
z
M 2253 4666 
L 3047 4666 
L 3047 1625 
L 3713 1625 
L 3713 1100 
L 3047 1100 
L 3047 0 
L 2419 0 
L 2419 1100 
L 313 1100 
L 313 1709 
L 2253 4666 
z
" transform="scale(0.015625)"/>
      <path id="DejaVuSans-2c" d="M 750 794 
L 1409 794 
L 1409 256 
L 897 -744 
L 494 -744 
L 750 256 
L 750 794 
z
" transform="scale(0.015625)"/>
      <path id="DejaVuSans-44" d="M 1259 4147 
L 1259 519 
L 2022 519 
Q 2988 519 3436 956 
Q 3884 1394 3884 2338 
Q 3884 3275 3436 3711 
Q 2988 4147 2022 4147 
L 1259 4147 
z
M 628 4666 
L 1925 4666 
Q 3281 4666 3915 4102 
Q 4550 3538 4550 2338 
Q 4550 1131 3912 565 
Q 3275 0 1925 0 
L 628 0 
L 628 4666 
z
" transform="scale(0.015625)"/>
     </defs>
     <use xlink:href="#DejaVuSans-66"/>
     <use xlink:href="#DejaVuSans-32" x="35.205078"/>
     <use xlink:href="#DejaVuSans-30" x="98.828125"/>
     <use xlink:href="#DejaVuSans-2d" x="162.451172"/>
     <use xlink:href="#DejaVuSans-66" x="198.535156"/>
     <use xlink:href="#DejaVuSans-32" x="233.740234"/>
     <use xlink:href="#DejaVuSans-34" x="297.363281"/>
     <use xlink:href="#DejaVuSans-2c" x="360.986328"/>
     <use xlink:href="#DejaVuSans-34" x="392.773438"/>
     <use xlink:href="#DejaVuSans-30" x="456.396484"/>
     <use xlink:href="#DejaVuSans-2d" x="520.019531"/>
     <use xlink:href="#DejaVuSans-44" x="556.103516"/>
    </g>
   </g>
   <g id="text_6">
    <!-- v2.6.3 -->
    <g style="fill: #808080" transform="translate(227.99475 286.317512) scale(0.1 -0.1)">
     <defs>
      <path id="DejaVuSans-2e" d="M 684 794 
L 1344 794 
L 1344 0 
L 684 0 
L 684 794 
z
" transform="scale(0.015625)"/>
      <path id="DejaVuSans-36" d="M 2113 2584 
Q 1688 2584 1439 2293 
Q 1191 2003 1191 1497 
Q 1191 994 1439 701 
Q 1688 409 2113 409 
Q 2538 409 2786 701 
Q 3034 994 3034 1497 
Q 3034 2003 2786 2293 
Q 2538 2584 2113 2584 
z
M 3366 4563 
L 3366 3988 
Q 3128 4100 2886 4159 
Q 2644 4219 2406 4219 
Q 1781 4219 1451 3797 
Q 1122 3375 1075 2522 
Q 1259 2794 1537 2939 
Q 1816 3084 2150 3084 
Q 2853 3084 3261 2657 
Q 3669 2231 3669 1497 
Q 3669 778 3244 343 
Q 2819 -91 2113 -91 
Q 1303 -91 875 529 
Q 447 1150 447 2328 
Q 447 3434 972 4092 
Q 1497 4750 2381 4750 
Q 2619 4750 2861 4703 
Q 3103 4656 3366 4563 
z
" transform="scale(0.015625)"/>
      <path id="DejaVuSans-33" d="M 2597 2516 
Q 3050 2419 3304 2112 
Q 3559 1806 3559 1356 
Q 3559 666 3084 287 
Q 2609 -91 1734 -91 
Q 1441 -91 1130 -33 
Q 819 25 488 141 
L 488 750 
Q 750 597 1062 519 
Q 1375 441 1716 441 
Q 2309 441 2620 675 
Q 2931 909 2931 1356 
Q 2931 1769 2642 2001 
Q 2353 2234 1838 2234 
L 1294 2234 
L 1294 2753 
L 1863 2753 
Q 2328 2753 2575 2939 
Q 2822 3125 2822 3475 
Q 2822 3834 2567 4026 
Q 2313 4219 1838 4219 
Q 1578 4219 1281 4162 
Q 984 4106 628 3988 
L 628 4550 
Q 988 4650 1302 4700 
Q 1616 4750 1894 4750 
Q 2613 4750 3031 4423 
Q 3450 4097 3450 3541 
Q 3450 3153 3228 2886 
Q 3006 2619 2597 2516 
z
" transform="scale(0.015625)"/>
     </defs>
     <use xlink:href="#DejaVuSans-76"/>
     <use xlink:href="#DejaVuSans-32" x="59.179688"/>
     <use xlink:href="#DejaVuSans-2e" x="122.802734"/>
     <use xlink:href="#DejaVuSans-36" x="154.589844"/>
     <use xlink:href="#DejaVuSans-2e" x="218.212891"/>
     <use xlink:href="#DejaVuSans-33" x="250"/>
    </g>
   </g>
   <g id="legend_1">
    <g id="patch_7">
     <path d="M 48.16 136.425 
L 177.381875 136.425 
Q 181.381875 136.425 181.381875 132.425 
L 181.381875 17 
Q 181.381875 13 177.381875 13 
L 48.16 13 
Q 44.16 13 44.16 17 
L 44.16 132.425 
Q 44.16 136.425 48.16 136.425 
z
" style="fill: #ffffff; opacity: 0.2; stroke: #cccccc; stroke-linejoin: miter"/>
    </g>
    <g id="line2d_67">
     <path d="M 52.16 29.196875 
L 72.16 29.196875 
L 92.16 29.196875 
" style="fill: none; stroke: #000000; stroke-width: 3; stroke-linecap: square"/>
    </g>
    <g id="text_7">
     <!-- 1: 2/3 -->
     <g transform="translate(108.16 36.196875) scale(0.2 -0.2)">
      <defs>
       <path id="DejaVuSans-3a" d="M 750 794 
L 1409 794 
L 1409 0 
L 750 0 
L 750 794 
z
M 750 3309 
L 1409 3309 
L 1409 2516 
L 750 2516 
L 750 3309 
z
" transform="scale(0.015625)"/>
       <path id="DejaVuSans-2f" d="M 1625 4666 
L 2156 4666 
L 531 -594 
L 0 -594 
L 1625 4666 
z
" transform="scale(0.015625)"/>
      </defs>
      <use xlink:href="#DejaVuSans-31"/>
      <use xlink:href="#DejaVuSans-3a" x="63.623047"/>
      <use xlink:href="#DejaVuSans-20" x="97.314453"/>
      <use xlink:href="#DejaVuSans-32" x="129.101562"/>
      <use xlink:href="#DejaVuSans-2f" x="192.724609"/>
      <use xlink:href="#DejaVuSans-33" x="226.416016"/>
     </g>
    </g>
    <g id="line2d_68">
     <path d="M 52.16 58.553125 
L 72.16 58.553125 
L 92.16 58.553125 
" style="fill: none; stroke: #00bfbf; stroke-width: 3; stroke-linecap: square"/>
    </g>
    <g id="text_8">
     <!-- -1: 2/3 -->
     <g transform="translate(108.16 65.553125) scale(0.2 -0.2)">
      <use xlink:href="#DejaVuSans-2d"/>
      <use xlink:href="#DejaVuSans-31" x="36.083984"/>
      <use xlink:href="#DejaVuSans-3a" x="99.707031"/>
      <use xlink:href="#DejaVuSans-20" x="133.398438"/>
      <use xlink:href="#DejaVuSans-32" x="165.185547"/>
      <use xlink:href="#DejaVuSans-2f" x="228.808594"/>
      <use xlink:href="#DejaVuSans-33" x="262.5"/>
     </g>
    </g>
    <g id="line2d_69">
     <path d="M 52.16 87.909375 
L 72.16 87.909375 
L 92.16 87.909375 
" style="fill: none; stroke: #bf00bf; stroke-width: 3; stroke-linecap: square"/>
    </g>
    <g id="text_9">
     <!-- -4: 1/2 -->
     <g transform="translate(108.16 94.909375) scale(0.2 -0.2)">
      <use xlink:href="#DejaVuSans-2d"/>
      <use xlink:href="#DejaVuSans-34" x="36.083984"/>
      <use xlink:href="#DejaVuSans-3a" x="99.707031"/>
      <use xlink:href="#DejaVuSans-20" x="133.398438"/>
      <use xlink:href="#DejaVuSans-31" x="165.185547"/>
      <use xlink:href="#DejaVuSans-2f" x="228.808594"/>
      <use xlink:href="#DejaVuSans-32" x="262.5"/>
     </g>
    </g>
    <g id="line2d_70">
     <path d="M 52.16 117.265625 
L 72.16 117.265625 
L 92.16 117.265625 
" style="fill: none; stroke: #ff0000; stroke-width: 3; stroke-linecap: square"/>
    </g>
    <g id="text_10">
     <!-- -8: 1/2 -->
     <g transform="translate(108.16 124.265625) scale(0.2 -0.2)">
      <defs>
       <path id="DejaVuSans-38" d="M 2034 2216 
Q 1584 2216 1326 1975 
Q 1069 1734 1069 1313 
Q 1069 891 1326 650 
Q 1584 409 2034 409 
Q 2484 409 2743 651 
Q 3003 894 3003 1313 
Q 3003 1734 2745 1975 
Q 2488 2216 2034 2216 
z
M 1403 2484 
Q 997 2584 770 2862 
Q 544 3141 544 3541 
Q 544 4100 942 4425 
Q 1341 4750 2034 4750 
Q 2731 4750 3128 4425 
Q 3525 4100 3525 3541 
Q 3525 3141 3298 2862 
Q 3072 2584 2669 2484 
Q 3125 2378 3379 2068 
Q 3634 1759 3634 1313 
Q 3634 634 3220 271 
Q 2806 -91 2034 -91 
Q 1263 -91 848 271 
Q 434 634 434 1313 
Q 434 1759 690 2068 
Q 947 2378 1403 2484 
z
M 1172 3481 
Q 1172 3119 1398 2916 
Q 1625 2713 2034 2713 
Q 2441 2713 2670 2916 
Q 2900 3119 2900 3481 
Q 2900 3844 2670 4047 
Q 2441 4250 2034 4250 
Q 1625 4250 1398 4047 
Q 1172 3844 1172 3481 
z
" transform="scale(0.015625)"/>
      </defs>
      <use xlink:href="#DejaVuSans-2d"/>
      <use xlink:href="#DejaVuSans-38" x="36.083984"/>
      <use xlink:href="#DejaVuSans-3a" x="99.707031"/>
      <use xlink:href="#DejaVuSans-20" x="133.398438"/>
      <use xlink:href="#DejaVuSans-31" x="165.185547"/>
      <use xlink:href="#DejaVuSans-2f" x="228.808594"/>
      <use xlink:href="#DejaVuSans-32" x="262.5"/>
     </g>
    </g>
   </g>
  </g>
 </g>
 <defs>
  <clipPath id="pf1729859f9">
   <rect x="34.16" y="3" width="419.032" height="288.28"/>
  </clipPath>
 </defs>
</svg>
