<?xml version="1.0" encoding="utf-8" standalone="no"?>
<!DOCTYPE svg PUBLIC "-//W3C//DTD SVG 1.1//EN"
  "http://www.w3.org/Graphics/SVG/1.1/DTD/svg11.dtd">
<svg xmlns:xlink="http://www.w3.org/1999/xlink" width="460.8pt" height="345.6pt" viewBox="0 0 460.8 345.6" xmlns="http://www.w3.org/2000/svg" version="1.1">
 <metadata>
  <rdf:RDF xmlns:dc="http://purl.org/dc/elements/1.1/" xmlns:cc="http://creativecommons.org/ns#" xmlns:rdf="http://www.w3.org/1999/02/22-rdf-syntax-ns#">
   <cc:Work>
    <dc:type rdf:resource="http://purl.org/dc/dcmitype/StillImage"/>
    <dc:date>2024-06-07T14:02:58.458791</dc:date>
    <dc:format>image/svg+xml</dc:format>
    <dc:creator>
     <cc:Agent>
      <dc:title>Matplotlib v3.7.1, https://matplotlib.org/</dc:title>
     </cc:Agent>
    </dc:creator>
   </cc:Work>
  </rdf:RDF>
 </metadata>
 <defs>
  <style type="text/css">*{stroke-linejoin: round; stroke-linecap: butt}</style>
 </defs>
 <g id="figure_1">
  <g id="patch_1">
   <path d="M 0 345.6 
L 460.8 345.6 
L 460.8 0 
L 0 0 
z
" style="fill: #ffffff"/>
  </g>
  <g id="axes_1">
   <g id="patch_2">
    <path d="M 62.208 293.76 
L 460.8 293.76 
L 460.8 3.456 
L 62.208 3.456 
z
" style="fill: #ffffff"/>
   </g>
   <g id="line2d_1"/>
   <g id="line2d_2">
    <path d="M 225.562924 293.76 
L 225.562924 289.927604 
L 226.218476 289.927604 
L 226.218476 286.095208 
L 270.158405 286.095208 
L 270.158405 282.262812 
L 304.766067 282.262812 
L 304.766067 278.430416 
L 332.2054 278.430416 
L 332.2054 274.59802 
L 338.60123 274.59802 
L 338.60123 270.765624 
L 339.667176 270.765624 
L 339.667176 266.933228 
L 363.274728 266.933228 
L 363.274728 263.100832 
L 368.147396 263.100832 
L 368.147396 259.268436 
L 373.33031 259.268436 
L 373.33031 255.43604 
L 380.353683 255.43604 
L 380.353683 251.603644 
L 380.652659 251.603644 
L 380.652659 247.771248 
L 383.777176 247.771248 
L 383.777176 243.938851 
L 387.517348 243.938851 
L 387.517348 240.106455 
L 393.151781 240.106455 
L 393.151781 236.274059 
L 404.44295 236.274059 
L 404.44295 232.441663 
L 411.161295 232.441663 
L 411.161295 228.609267 
L 411.161295 228.609267 
L 411.161295 228.609267 
L 460.8 228.609267 
" clip-path="url(#p9d23509228)" style="fill: none; stroke: #f5deb3; stroke-width: 1.5; stroke-linecap: square"/>
   </g>
   <g id="line2d_3"/>
   <g id="line2d_4"/>
   <g id="line2d_5">
    <path d="M 321.041986 293.76 
L 321.041986 289.927604 
L 354.554082 289.927604 
L 354.554082 286.095208 
L 364.09672 286.095208 
L 364.09672 282.262812 
L 369.570573 282.262812 
L 369.570573 278.430416 
L 399.37706 278.430416 
L 399.37706 274.59802 
L 461.8 274.59802 
" clip-path="url(#p9d23509228)" style="fill: none; stroke: #f5deb3; stroke-width: 1.5; stroke-linecap: square"/>
   </g>
   <g id="line2d_6">
    <path d="M 235.50293 293.76 
L 235.50293 290.417794 
L 304.036593 290.417794 
L 304.036593 287.075588 
L 309.241403 287.075588 
L 309.241403 283.733382 
L 325.300508 283.733382 
L 325.300508 280.391177 
L 335.24467 280.391177 
L 335.24467 277.048971 
L 338.179268 277.048971 
L 338.179268 273.706765 
L 343.133446 273.706765 
L 343.133446 270.364559 
L 364.761775 270.364559 
L 364.761775 267.022353 
L 373.652362 267.022353 
L 373.652362 263.680147 
L 373.784322 263.680147 
L 373.784322 260.337942 
L 374.282612 260.337942 
L 374.282612 256.995736 
L 404.319555 256.995736 
L 404.319555 253.65353 
L 417.854121 253.65353 
L 417.854121 250.311324 
L 423.543017 250.311324 
L 423.543017 246.969118 
L 438.486133 246.969118 
L 438.486133 243.626912 
L 439.362179 243.626912 
L 439.362179 240.284706 
L 444.375567 240.284706 
L 444.375567 236.942501 
L 453.837473 236.942501 
L 453.837473 233.600295 
L 461.8 233.600295 
" clip-path="url(#p9d23509228)" style="fill: none; stroke: #f5deb3; stroke-width: 1.5; stroke-linecap: square"/>
   </g>
   <g id="line2d_7">
    <path d="M 300.224817 293.76 
L 300.224817 289.927604 
L 394.410909 289.927604 
L 394.410909 286.095208 
L 394.410909 286.095208 
L 394.410909 286.095208 
L 460.8 286.095208 
" clip-path="url(#p9d23509228)" style="fill: none; stroke: #f5deb3; stroke-width: 1.5; stroke-linecap: square"/>
   </g>
   <g id="line2d_8"/>
   <g id="line2d_9">
    <path d="M 226.11221 293.76 
L 226.11221 289.927604 
L 286.988186 289.927604 
L 286.988186 286.095208 
L 288.613048 286.095208 
L 288.613048 282.262812 
L 315.588981 282.262812 
L 315.588981 278.430416 
L 328.835862 278.430416 
L 328.835862 274.59802 
L 341.002045 274.59802 
L 341.002045 270.765624 
L 360.750503 270.765624 
L 360.750503 266.933228 
L 372.682907 266.933228 
L 372.682907 263.100832 
L 377.141436 263.100832 
L 377.141436 259.268436 
L 378.21399 259.268436 
L 378.21399 255.43604 
L 389.057471 255.43604 
L 389.057471 251.603644 
L 392.897381 251.603644 
L 392.897381 247.771248 
L 409.317879 247.771248 
L 409.317879 243.938851 
L 409.317879 243.938851 
L 409.317879 243.938851 
L 460.8 243.938851 
" clip-path="url(#p9d23509228)" style="fill: none; stroke: #f5deb3; stroke-width: 1.5; stroke-linecap: square"/>
   </g>
   <g id="line2d_10"/>
   <g id="line2d_11">
    <path d="M 327.53706 293.76 
L 327.53706 289.927604 
L 331.315267 289.927604 
L 331.315267 286.095208 
L 408.514895 286.095208 
L 408.514895 282.262812 
L 429.241386 282.262812 
L 429.241386 278.430416 
L 448.97399 278.430416 
L 448.97399 274.59802 
L 454.662675 274.59802 
L 454.662675 270.765624 
L 456.059744 270.765624 
L 456.059744 266.933228 
L 458.28447 266.933228 
L 458.28447 263.100832 
L 461.8 263.100832 
" clip-path="url(#p9d23509228)" style="fill: none; stroke: #f5deb3; stroke-width: 1.5; stroke-linecap: square"/>
   </g>
   <g id="line2d_12"/>
   <g id="line2d_13">
    <path d="M 218.207178 293.76 
L 218.207178 291.364752 
L 221.734615 291.364752 
L 221.734615 288.969505 
L 242.618064 288.969505 
L 242.618064 286.574257 
L 248.550141 286.574257 
L 248.550141 284.17901 
L 273.985586 284.17901 
L 273.985586 281.783762 
L 276.744293 281.783762 
L 276.744293 279.388515 
L 294.33474 279.388515 
L 294.33474 276.993267 
L 294.796176 276.993267 
L 294.796176 274.59802 
L 304.142649 274.59802 
L 304.142649 272.202772 
L 311.160837 272.202772 
L 311.160837 269.807525 
L 311.207071 269.807525 
L 311.207071 267.412277 
L 314.252256 267.412277 
L 314.252256 265.01703 
L 317.898076 265.01703 
L 317.898076 262.621782 
L 320.835887 262.621782 
L 320.835887 260.226535 
L 334.105898 260.226535 
L 334.105898 257.831287 
L 344.112559 257.831287 
L 344.112559 255.43604 
L 350.412819 255.43604 
L 350.412819 253.040792 
L 353.213768 253.040792 
L 353.213768 250.645545 
L 356.684493 250.645545 
L 356.684493 248.250297 
L 357.724461 248.250297 
L 357.724461 245.85505 
L 358.587946 245.85505 
L 358.587946 243.459802 
L 359.092877 243.459802 
L 359.092877 241.064554 
L 360.397313 241.064554 
L 360.397313 238.669307 
L 363.483085 238.669307 
L 363.483085 236.274059 
L 364.020005 236.274059 
L 364.020005 233.878812 
L 365.709136 233.878812 
L 365.709136 231.483564 
L 366.393225 231.483564 
L 366.393225 229.088317 
L 367.918949 229.088317 
L 367.918949 226.693069 
L 372.539517 226.693069 
L 372.539517 224.297822 
L 376.842049 224.297822 
L 376.842049 221.902574 
L 380.653366 221.902574 
L 380.653366 219.507327 
L 382.588581 219.507327 
L 382.588581 217.112079 
L 385.737812 217.112079 
L 385.737812 214.716832 
L 389.909336 214.716832 
L 389.909336 212.321584 
L 389.909336 212.321584 
L 389.909336 212.321584 
L 460.8 212.321584 
" clip-path="url(#p9d23509228)" style="fill: none; stroke: #f5deb3; stroke-width: 1.5; stroke-linecap: square"/>
   </g>
   <g id="line2d_14">
    <path d="M 413.631802 293.76 
L 413.631802 289.927604 
L 419.849275 289.927604 
L 419.849275 286.095208 
L 420.760179 286.095208 
L 420.760179 282.262812 
L 423.959152 282.262812 
L 423.959152 278.430416 
L 429.882589 278.430416 
L 429.882589 274.59802 
L 430.025172 274.59802 
L 430.025172 270.765624 
L 433.189469 270.765624 
L 433.189469 266.933228 
L 435.156094 266.933228 
L 435.156094 263.100832 
L 436.863501 263.100832 
L 436.863501 259.268436 
L 439.783357 259.268436 
L 439.783357 255.43604 
L 446.326241 255.43604 
L 446.326241 251.603644 
L 448.365231 251.603644 
L 448.365231 247.771248 
L 453.489073 247.771248 
L 453.489073 243.938851 
L 456.258398 243.938851 
L 456.258398 240.106455 
L 461.8 240.106455 
" clip-path="url(#p9d23509228)" style="fill: none; stroke: #f5deb3; stroke-width: 1.5; stroke-linecap: square"/>
   </g>
   <g id="line2d_15"/>
   <g id="line2d_16">
    <path d="M 246.237523 293.76 
L 246.237523 289.927604 
L 249.867833 289.927604 
L 249.867833 286.095208 
L 321.388946 286.095208 
L 321.388946 282.262812 
L 358.52331 282.262812 
L 358.52331 278.430416 
L 370.08289 278.430416 
L 370.08289 274.59802 
L 375.577772 274.59802 
L 375.577772 270.765624 
L 392.221475 270.765624 
L 392.221475 266.933228 
L 407.809938 266.933228 
L 407.809938 263.100832 
L 407.809938 263.100832 
L 407.809938 263.100832 
L 460.8 263.100832 
" clip-path="url(#p9d23509228)" style="fill: none; stroke: #f5deb3; stroke-width: 1.5; stroke-linecap: square"/>
   </g>
   <g id="line2d_17">
    <path d="M 415.712731 293.76 
L 415.712731 289.927604 
L 460.236397 289.927604 
L 460.236397 286.095208 
L 461.8 286.095208 
" clip-path="url(#p9d23509228)" style="fill: none; stroke: #f5deb3; stroke-width: 1.5; stroke-linecap: square"/>
   </g>
   <g id="line2d_18">
    <path d="M 247.870136 293.76 
L 247.870136 289.927604 
L 250.032076 289.927604 
L 250.032076 286.095208 
L 254.531517 286.095208 
L 254.531517 282.262812 
L 311.221508 282.262812 
L 311.221508 278.430416 
L 312.469701 278.430416 
L 312.469701 274.59802 
L 347.875353 274.59802 
L 347.875353 270.765624 
L 348.335686 270.765624 
L 348.335686 266.933228 
L 360.954479 266.933228 
L 360.954479 263.100832 
L 370.828388 263.100832 
L 370.828388 259.268436 
L 374.272587 259.268436 
L 374.272587 255.43604 
L 382.18382 255.43604 
L 382.18382 251.603644 
L 402.356993 251.603644 
L 402.356993 247.771248 
L 414.13734 247.771248 
L 414.13734 243.938851 
L 429.933978 243.938851 
L 429.933978 240.106455 
L 429.933978 240.106455 
L 429.933978 240.106455 
L 460.8 240.106455 
" clip-path="url(#p9d23509228)" style="fill: none; stroke: #f5deb3; stroke-width: 1.5; stroke-linecap: square"/>
   </g>
   <g id="line2d_19">
    <path d="M 310.342582 293.76 
L 310.342582 289.927604 
L 310.882256 289.927604 
L 310.882256 286.095208 
L 400.31149 286.095208 
L 400.31149 282.262812 
L 461.8 282.262812 
" clip-path="url(#p9d23509228)" style="fill: none; stroke: #f5deb3; stroke-width: 1.5; stroke-linecap: square"/>
   </g>
   <g id="line2d_20">
    <path d="M 300.40708 293.76 
L 300.40708 289.927604 
L 307.722146 289.927604 
L 307.722146 286.095208 
L 338.99343 286.095208 
L 338.99343 282.262812 
L 353.313516 282.262812 
L 353.313516 278.430416 
L 373.397616 278.430416 
L 373.397616 274.59802 
L 388.51434 274.59802 
L 388.51434 270.765624 
L 401.507427 270.765624 
L 401.507427 266.933228 
L 401.507427 266.933228 
L 401.507427 266.933228 
L 460.8 266.933228 
" clip-path="url(#p9d23509228)" style="fill: none; stroke: #f5deb3; stroke-width: 1.5; stroke-linecap: square"/>
   </g>
   <g id="matplotlib.axis_1">
    <g id="xtick_1">
     <g id="line2d_21">
      <path d="M 62.208 293.76 
L 62.208 3.456 
" clip-path="url(#p9d23509228)" style="fill: none; stroke: #b0b0b0; stroke-width: 0.8; stroke-linecap: square"/>
     </g>
     <g id="line2d_22">
      <defs>
       <path id="m31628d7f31" d="M 0 0 
L 0 3.5 
" style="stroke: #000000; stroke-width: 0.8"/>
      </defs>
      <g>
       <use xlink:href="#m31628d7f31" x="62.208" y="293.76" style="stroke: #000000; stroke-width: 0.8"/>
      </g>
     </g>
     <g id="text_1">
      <!-- 0 -->
      <g transform="translate(55.8455 315.956875) scale(0.2 -0.2)">
       <defs>
        <path id="DejaVuSans-30" d="M 2034 4250 
Q 1547 4250 1301 3770 
Q 1056 3291 1056 2328 
Q 1056 1369 1301 889 
Q 1547 409 2034 409 
Q 2525 409 2770 889 
Q 3016 1369 3016 2328 
Q 3016 3291 2770 3770 
Q 2525 4250 2034 4250 
z
M 2034 4750 
Q 2819 4750 3233 4129 
Q 3647 3509 3647 2328 
Q 3647 1150 3233 529 
Q 2819 -91 2034 -91 
Q 1250 -91 836 529 
Q 422 1150 422 2328 
Q 422 3509 836 4129 
Q 1250 4750 2034 4750 
z
" transform="scale(0.015625)"/>
       </defs>
       <use xlink:href="#DejaVuSans-30"/>
      </g>
     </g>
    </g>
    <g id="xtick_2">
     <g id="line2d_23">
      <path d="M 238.687878 293.76 
L 238.687878 3.456 
" clip-path="url(#p9d23509228)" style="fill: none; stroke: #b0b0b0; stroke-width: 0.8; stroke-linecap: square"/>
     </g>
     <g id="line2d_24">
      <g>
       <use xlink:href="#m31628d7f31" x="238.687878" y="293.76" style="stroke: #000000; stroke-width: 0.8"/>
      </g>
     </g>
     <g id="text_2">
      <!-- 2 -->
      <g transform="translate(232.325378 315.956875) scale(0.2 -0.2)">
       <defs>
        <path id="DejaVuSans-32" d="M 1228 531 
L 3431 531 
L 3431 0 
L 469 0 
L 469 531 
Q 828 903 1448 1529 
Q 2069 2156 2228 2338 
Q 2531 2678 2651 2914 
Q 2772 3150 2772 3378 
Q 2772 3750 2511 3984 
Q 2250 4219 1831 4219 
Q 1534 4219 1204 4116 
Q 875 4013 500 3803 
L 500 4441 
Q 881 4594 1212 4672 
Q 1544 4750 1819 4750 
Q 2544 4750 2975 4387 
Q 3406 4025 3406 3419 
Q 3406 3131 3298 2873 
Q 3191 2616 2906 2266 
Q 2828 2175 2409 1742 
Q 1991 1309 1228 531 
z
" transform="scale(0.015625)"/>
       </defs>
       <use xlink:href="#DejaVuSans-32"/>
      </g>
     </g>
    </g>
    <g id="xtick_3">
     <g id="line2d_25">
      <path d="M 415.167756 293.76 
L 415.167756 3.456 
" clip-path="url(#p9d23509228)" style="fill: none; stroke: #b0b0b0; stroke-width: 0.8; stroke-linecap: square"/>
     </g>
     <g id="line2d_26">
      <g>
       <use xlink:href="#m31628d7f31" x="415.167756" y="293.76" style="stroke: #000000; stroke-width: 0.8"/>
      </g>
     </g>
     <g id="text_3">
      <!-- 4 -->
      <g transform="translate(408.805256 315.956875) scale(0.2 -0.2)">
       <defs>
        <path id="DejaVuSans-34" d="M 2419 4116 
L 825 1625 
L 2419 1625 
L 2419 4116 
z
M 2253 4666 
L 3047 4666 
L 3047 1625 
L 3713 1625 
L 3713 1100 
L 3047 1100 
L 3047 0 
L 2419 0 
L 2419 1100 
L 313 1100 
L 313 1709 
L 2253 4666 
z
" transform="scale(0.015625)"/>
       </defs>
       <use xlink:href="#DejaVuSans-34"/>
      </g>
     </g>
    </g>
    <g id="xtick_4">
     <g id="line2d_27">
      <path d="M 88.770868 293.76 
L 88.770868 3.456 
" clip-path="url(#p9d23509228)" style="fill: none; stroke: #b0b0b0; stroke-width: 0.8; stroke-linecap: square"/>
     </g>
     <g id="line2d_28">
      <defs>
       <path id="m6579daf281" d="M 0 0 
L 0 2 
" style="stroke: #000000; stroke-width: 0.6"/>
      </defs>
      <g>
       <use xlink:href="#m6579daf281" x="88.770868" y="293.76" style="stroke: #000000; stroke-width: 0.6"/>
      </g>
     </g>
    </g>
    <g id="xtick_5">
     <g id="line2d_29">
      <path d="M 104.30915 293.76 
L 104.30915 3.456 
" clip-path="url(#p9d23509228)" style="fill: none; stroke: #b0b0b0; stroke-width: 0.8; stroke-linecap: square"/>
     </g>
     <g id="line2d_30">
      <g>
       <use xlink:href="#m6579daf281" x="104.30915" y="293.76" style="stroke: #000000; stroke-width: 0.6"/>
      </g>
     </g>
    </g>
    <g id="xtick_6">
     <g id="line2d_31">
      <path d="M 115.333737 293.76 
L 115.333737 3.456 
" clip-path="url(#p9d23509228)" style="fill: none; stroke: #b0b0b0; stroke-width: 0.8; stroke-linecap: square"/>
     </g>
     <g id="line2d_32">
      <g>
       <use xlink:href="#m6579daf281" x="115.333737" y="293.76" style="stroke: #000000; stroke-width: 0.6"/>
      </g>
     </g>
    </g>
    <g id="xtick_7">
     <g id="line2d_33">
      <path d="M 123.885071 293.76 
L 123.885071 3.456 
" clip-path="url(#p9d23509228)" style="fill: none; stroke: #b0b0b0; stroke-width: 0.8; stroke-linecap: square"/>
     </g>
     <g id="line2d_34">
      <g>
       <use xlink:href="#m6579daf281" x="123.885071" y="293.76" style="stroke: #000000; stroke-width: 0.6"/>
      </g>
     </g>
    </g>
    <g id="xtick_8">
     <g id="line2d_35">
      <path d="M 130.872019 293.76 
L 130.872019 3.456 
" clip-path="url(#p9d23509228)" style="fill: none; stroke: #b0b0b0; stroke-width: 0.8; stroke-linecap: square"/>
     </g>
     <g id="line2d_36">
      <g>
       <use xlink:href="#m6579daf281" x="130.872019" y="293.76" style="stroke: #000000; stroke-width: 0.6"/>
      </g>
     </g>
    </g>
    <g id="xtick_9">
     <g id="line2d_37">
      <path d="M 136.779399 293.76 
L 136.779399 3.456 
" clip-path="url(#p9d23509228)" style="fill: none; stroke: #b0b0b0; stroke-width: 0.8; stroke-linecap: square"/>
     </g>
     <g id="line2d_38">
      <g>
       <use xlink:href="#m6579daf281" x="136.779399" y="293.76" style="stroke: #000000; stroke-width: 0.6"/>
      </g>
     </g>
    </g>
    <g id="xtick_10">
     <g id="line2d_39">
      <path d="M 141.896605 293.76 
L 141.896605 3.456 
" clip-path="url(#p9d23509228)" style="fill: none; stroke: #b0b0b0; stroke-width: 0.8; stroke-linecap: square"/>
     </g>
     <g id="line2d_40">
      <g>
       <use xlink:href="#m6579daf281" x="141.896605" y="293.76" style="stroke: #000000; stroke-width: 0.6"/>
      </g>
     </g>
    </g>
    <g id="xtick_11">
     <g id="line2d_41">
      <path d="M 146.410301 293.76 
L 146.410301 3.456 
" clip-path="url(#p9d23509228)" style="fill: none; stroke: #b0b0b0; stroke-width: 0.8; stroke-linecap: square"/>
     </g>
     <g id="line2d_42">
      <g>
       <use xlink:href="#m6579daf281" x="146.410301" y="293.76" style="stroke: #000000; stroke-width: 0.6"/>
      </g>
     </g>
    </g>
    <g id="xtick_12">
     <g id="line2d_43">
      <path d="M 177.010807 293.76 
L 177.010807 3.456 
" clip-path="url(#p9d23509228)" style="fill: none; stroke: #b0b0b0; stroke-width: 0.8; stroke-linecap: square"/>
     </g>
     <g id="line2d_44">
      <g>
       <use xlink:href="#m6579daf281" x="177.010807" y="293.76" style="stroke: #000000; stroke-width: 0.6"/>
      </g>
     </g>
    </g>
    <g id="xtick_13">
     <g id="line2d_45">
      <path d="M 192.549089 293.76 
L 192.549089 3.456 
" clip-path="url(#p9d23509228)" style="fill: none; stroke: #b0b0b0; stroke-width: 0.8; stroke-linecap: square"/>
     </g>
     <g id="line2d_46">
      <g>
       <use xlink:href="#m6579daf281" x="192.549089" y="293.76" style="stroke: #000000; stroke-width: 0.6"/>
      </g>
     </g>
    </g>
    <g id="xtick_14">
     <g id="line2d_47">
      <path d="M 203.573676 293.76 
L 203.573676 3.456 
" clip-path="url(#p9d23509228)" style="fill: none; stroke: #b0b0b0; stroke-width: 0.8; stroke-linecap: square"/>
     </g>
     <g id="line2d_48">
      <g>
       <use xlink:href="#m6579daf281" x="203.573676" y="293.76" style="stroke: #000000; stroke-width: 0.6"/>
      </g>
     </g>
    </g>
    <g id="xtick_15">
     <g id="line2d_49">
      <path d="M 212.125009 293.76 
L 212.125009 3.456 
" clip-path="url(#p9d23509228)" style="fill: none; stroke: #b0b0b0; stroke-width: 0.8; stroke-linecap: square"/>
     </g>
     <g id="line2d_50">
      <g>
       <use xlink:href="#m6579daf281" x="212.125009" y="293.76" style="stroke: #000000; stroke-width: 0.6"/>
      </g>
     </g>
    </g>
    <g id="xtick_16">
     <g id="line2d_51">
      <path d="M 219.111958 293.76 
L 219.111958 3.456 
" clip-path="url(#p9d23509228)" style="fill: none; stroke: #b0b0b0; stroke-width: 0.8; stroke-linecap: square"/>
     </g>
     <g id="line2d_52">
      <g>
       <use xlink:href="#m6579daf281" x="219.111958" y="293.76" style="stroke: #000000; stroke-width: 0.6"/>
      </g>
     </g>
    </g>
    <g id="xtick_17">
     <g id="line2d_53">
      <path d="M 225.019338 293.76 
L 225.019338 3.456 
" clip-path="url(#p9d23509228)" style="fill: none; stroke: #b0b0b0; stroke-width: 0.8; stroke-linecap: square"/>
     </g>
     <g id="line2d_54">
      <g>
       <use xlink:href="#m6579daf281" x="225.019338" y="293.76" style="stroke: #000000; stroke-width: 0.6"/>
      </g>
     </g>
    </g>
    <g id="xtick_18">
     <g id="line2d_55">
      <path d="M 230.136544 293.76 
L 230.136544 3.456 
" clip-path="url(#p9d23509228)" style="fill: none; stroke: #b0b0b0; stroke-width: 0.8; stroke-linecap: square"/>
     </g>
     <g id="line2d_56">
      <g>
       <use xlink:href="#m6579daf281" x="230.136544" y="293.76" style="stroke: #000000; stroke-width: 0.6"/>
      </g>
     </g>
    </g>
    <g id="xtick_19">
     <g id="line2d_57">
      <path d="M 234.65024 293.76 
L 234.65024 3.456 
" clip-path="url(#p9d23509228)" style="fill: none; stroke: #b0b0b0; stroke-width: 0.8; stroke-linecap: square"/>
     </g>
     <g id="line2d_58">
      <g>
       <use xlink:href="#m6579daf281" x="234.65024" y="293.76" style="stroke: #000000; stroke-width: 0.6"/>
      </g>
     </g>
    </g>
    <g id="xtick_20">
     <g id="line2d_59">
      <path d="M 265.250746 293.76 
L 265.250746 3.456 
" clip-path="url(#p9d23509228)" style="fill: none; stroke: #b0b0b0; stroke-width: 0.8; stroke-linecap: square"/>
     </g>
     <g id="line2d_60">
      <g>
       <use xlink:href="#m6579daf281" x="265.250746" y="293.76" style="stroke: #000000; stroke-width: 0.6"/>
      </g>
     </g>
    </g>
    <g id="xtick_21">
     <g id="line2d_61">
      <path d="M 280.789028 293.76 
L 280.789028 3.456 
" clip-path="url(#p9d23509228)" style="fill: none; stroke: #b0b0b0; stroke-width: 0.8; stroke-linecap: square"/>
     </g>
     <g id="line2d_62">
      <g>
       <use xlink:href="#m6579daf281" x="280.789028" y="293.76" style="stroke: #000000; stroke-width: 0.6"/>
      </g>
     </g>
    </g>
    <g id="xtick_22">
     <g id="line2d_63">
      <path d="M 291.813615 293.76 
L 291.813615 3.456 
" clip-path="url(#p9d23509228)" style="fill: none; stroke: #b0b0b0; stroke-width: 0.8; stroke-linecap: square"/>
     </g>
     <g id="line2d_64">
      <g>
       <use xlink:href="#m6579daf281" x="291.813615" y="293.76" style="stroke: #000000; stroke-width: 0.6"/>
      </g>
     </g>
    </g>
    <g id="xtick_23">
     <g id="line2d_65">
      <path d="M 300.364948 293.76 
L 300.364948 3.456 
" clip-path="url(#p9d23509228)" style="fill: none; stroke: #b0b0b0; stroke-width: 0.8; stroke-linecap: square"/>
     </g>
     <g id="line2d_66">
      <g>
       <use xlink:href="#m6579daf281" x="300.364948" y="293.76" style="stroke: #000000; stroke-width: 0.6"/>
      </g>
     </g>
    </g>
    <g id="xtick_24">
     <g id="line2d_67">
      <path d="M 307.351897 293.76 
L 307.351897 3.456 
" clip-path="url(#p9d23509228)" style="fill: none; stroke: #b0b0b0; stroke-width: 0.8; stroke-linecap: square"/>
     </g>
     <g id="line2d_68">
      <g>
       <use xlink:href="#m6579daf281" x="307.351897" y="293.76" style="stroke: #000000; stroke-width: 0.6"/>
      </g>
     </g>
    </g>
    <g id="xtick_25">
     <g id="line2d_69">
      <path d="M 313.259277 293.76 
L 313.259277 3.456 
" clip-path="url(#p9d23509228)" style="fill: none; stroke: #b0b0b0; stroke-width: 0.8; stroke-linecap: square"/>
     </g>
     <g id="line2d_70">
      <g>
       <use xlink:href="#m6579daf281" x="313.259277" y="293.76" style="stroke: #000000; stroke-width: 0.6"/>
      </g>
     </g>
    </g>
    <g id="xtick_26">
     <g id="line2d_71">
      <path d="M 318.376483 293.76 
L 318.376483 3.456 
" clip-path="url(#p9d23509228)" style="fill: none; stroke: #b0b0b0; stroke-width: 0.8; stroke-linecap: square"/>
     </g>
     <g id="line2d_72">
      <g>
       <use xlink:href="#m6579daf281" x="318.376483" y="293.76" style="stroke: #000000; stroke-width: 0.6"/>
      </g>
     </g>
    </g>
    <g id="xtick_27">
     <g id="line2d_73">
      <path d="M 322.890179 293.76 
L 322.890179 3.456 
" clip-path="url(#p9d23509228)" style="fill: none; stroke: #b0b0b0; stroke-width: 0.8; stroke-linecap: square"/>
     </g>
     <g id="line2d_74">
      <g>
       <use xlink:href="#m6579daf281" x="322.890179" y="293.76" style="stroke: #000000; stroke-width: 0.6"/>
      </g>
     </g>
    </g>
    <g id="xtick_28">
     <g id="line2d_75">
      <path d="M 353.490685 293.76 
L 353.490685 3.456 
" clip-path="url(#p9d23509228)" style="fill: none; stroke: #b0b0b0; stroke-width: 0.8; stroke-linecap: square"/>
     </g>
     <g id="line2d_76">
      <g>
       <use xlink:href="#m6579daf281" x="353.490685" y="293.76" style="stroke: #000000; stroke-width: 0.6"/>
      </g>
     </g>
    </g>
    <g id="xtick_29">
     <g id="line2d_77">
      <path d="M 369.028967 293.76 
L 369.028967 3.456 
" clip-path="url(#p9d23509228)" style="fill: none; stroke: #b0b0b0; stroke-width: 0.8; stroke-linecap: square"/>
     </g>
     <g id="line2d_78">
      <g>
       <use xlink:href="#m6579daf281" x="369.028967" y="293.76" style="stroke: #000000; stroke-width: 0.6"/>
      </g>
     </g>
    </g>
    <g id="xtick_30">
     <g id="line2d_79">
      <path d="M 380.053554 293.76 
L 380.053554 3.456 
" clip-path="url(#p9d23509228)" style="fill: none; stroke: #b0b0b0; stroke-width: 0.8; stroke-linecap: square"/>
     </g>
     <g id="line2d_80">
      <g>
       <use xlink:href="#m6579daf281" x="380.053554" y="293.76" style="stroke: #000000; stroke-width: 0.6"/>
      </g>
     </g>
    </g>
    <g id="xtick_31">
     <g id="line2d_81">
      <path d="M 388.604887 293.76 
L 388.604887 3.456 
" clip-path="url(#p9d23509228)" style="fill: none; stroke: #b0b0b0; stroke-width: 0.8; stroke-linecap: square"/>
     </g>
     <g id="line2d_82">
      <g>
       <use xlink:href="#m6579daf281" x="388.604887" y="293.76" style="stroke: #000000; stroke-width: 0.6"/>
      </g>
     </g>
    </g>
    <g id="xtick_32">
     <g id="line2d_83">
      <path d="M 395.591836 293.76 
L 395.591836 3.456 
" clip-path="url(#p9d23509228)" style="fill: none; stroke: #b0b0b0; stroke-width: 0.8; stroke-linecap: square"/>
     </g>
     <g id="line2d_84">
      <g>
       <use xlink:href="#m6579daf281" x="395.591836" y="293.76" style="stroke: #000000; stroke-width: 0.6"/>
      </g>
     </g>
    </g>
    <g id="xtick_33">
     <g id="line2d_85">
      <path d="M 401.499216 293.76 
L 401.499216 3.456 
" clip-path="url(#p9d23509228)" style="fill: none; stroke: #b0b0b0; stroke-width: 0.8; stroke-linecap: square"/>
     </g>
     <g id="line2d_86">
      <g>
       <use xlink:href="#m6579daf281" x="401.499216" y="293.76" style="stroke: #000000; stroke-width: 0.6"/>
      </g>
     </g>
    </g>
    <g id="xtick_34">
     <g id="line2d_87">
      <path d="M 406.616422 293.76 
L 406.616422 3.456 
" clip-path="url(#p9d23509228)" style="fill: none; stroke: #b0b0b0; stroke-width: 0.8; stroke-linecap: square"/>
     </g>
     <g id="line2d_88">
      <g>
       <use xlink:href="#m6579daf281" x="406.616422" y="293.76" style="stroke: #000000; stroke-width: 0.6"/>
      </g>
     </g>
    </g>
    <g id="xtick_35">
     <g id="line2d_89">
      <path d="M 411.130118 293.76 
L 411.130118 3.456 
" clip-path="url(#p9d23509228)" style="fill: none; stroke: #b0b0b0; stroke-width: 0.8; stroke-linecap: square"/>
     </g>
     <g id="line2d_90">
      <g>
       <use xlink:href="#m6579daf281" x="411.130118" y="293.76" style="stroke: #000000; stroke-width: 0.6"/>
      </g>
     </g>
    </g>
    <g id="xtick_36">
     <g id="line2d_91">
      <path d="M 441.730624 293.76 
L 441.730624 3.456 
" clip-path="url(#p9d23509228)" style="fill: none; stroke: #b0b0b0; stroke-width: 0.8; stroke-linecap: square"/>
     </g>
     <g id="line2d_92">
      <g>
       <use xlink:href="#m6579daf281" x="441.730624" y="293.76" style="stroke: #000000; stroke-width: 0.6"/>
      </g>
     </g>
    </g>
    <g id="xtick_37">
     <g id="line2d_93">
      <path d="M 457.268906 293.76 
L 457.268906 3.456 
" clip-path="url(#p9d23509228)" style="fill: none; stroke: #b0b0b0; stroke-width: 0.8; stroke-linecap: square"/>
     </g>
     <g id="line2d_94">
      <g>
       <use xlink:href="#m6579daf281" x="457.268906" y="293.76" style="stroke: #000000; stroke-width: 0.6"/>
      </g>
     </g>
    </g>
    <g id="text_4">
     <!-- log10 of FEvals / DIM -->
     <g transform="translate(156.430563 339.313125) scale(0.2 -0.2)">
      <defs>
       <path id="DejaVuSans-6c" d="M 603 4863 
L 1178 4863 
L 1178 0 
L 603 0 
L 603 4863 
z
" transform="scale(0.015625)"/>
       <path id="DejaVuSans-6f" d="M 1959 3097 
Q 1497 3097 1228 2736 
Q 959 2375 959 1747 
Q 959 1119 1226 758 
Q 1494 397 1959 397 
Q 2419 397 2687 759 
Q 2956 1122 2956 1747 
Q 2956 2369 2687 2733 
Q 2419 3097 1959 3097 
z
M 1959 3584 
Q 2709 3584 3137 3096 
Q 3566 2609 3566 1747 
Q 3566 888 3137 398 
Q 2709 -91 1959 -91 
Q 1206 -91 779 398 
Q 353 888 353 1747 
Q 353 2609 779 3096 
Q 1206 3584 1959 3584 
z
" transform="scale(0.015625)"/>
       <path id="DejaVuSans-67" d="M 2906 1791 
Q 2906 2416 2648 2759 
Q 2391 3103 1925 3103 
Q 1463 3103 1205 2759 
Q 947 2416 947 1791 
Q 947 1169 1205 825 
Q 1463 481 1925 481 
Q 2391 481 2648 825 
Q 2906 1169 2906 1791 
z
M 3481 434 
Q 3481 -459 3084 -895 
Q 2688 -1331 1869 -1331 
Q 1566 -1331 1297 -1286 
Q 1028 -1241 775 -1147 
L 775 -588 
Q 1028 -725 1275 -790 
Q 1522 -856 1778 -856 
Q 2344 -856 2625 -561 
Q 2906 -266 2906 331 
L 2906 616 
Q 2728 306 2450 153 
Q 2172 0 1784 0 
Q 1141 0 747 490 
Q 353 981 353 1791 
Q 353 2603 747 3093 
Q 1141 3584 1784 3584 
Q 2172 3584 2450 3431 
Q 2728 3278 2906 2969 
L 2906 3500 
L 3481 3500 
L 3481 434 
z
" transform="scale(0.015625)"/>
       <path id="DejaVuSans-31" d="M 794 531 
L 1825 531 
L 1825 4091 
L 703 3866 
L 703 4441 
L 1819 4666 
L 2450 4666 
L 2450 531 
L 3481 531 
L 3481 0 
L 794 0 
L 794 531 
z
" transform="scale(0.015625)"/>
       <path id="DejaVuSans-20" transform="scale(0.015625)"/>
       <path id="DejaVuSans-66" d="M 2375 4863 
L 2375 4384 
L 1825 4384 
Q 1516 4384 1395 4259 
Q 1275 4134 1275 3809 
L 1275 3500 
L 2222 3500 
L 2222 3053 
L 1275 3053 
L 1275 0 
L 697 0 
L 697 3053 
L 147 3053 
L 147 3500 
L 697 3500 
L 697 3744 
Q 697 4328 969 4595 
Q 1241 4863 1831 4863 
L 2375 4863 
z
" transform="scale(0.015625)"/>
       <path id="DejaVuSans-46" d="M 628 4666 
L 3309 4666 
L 3309 4134 
L 1259 4134 
L 1259 2759 
L 3109 2759 
L 3109 2228 
L 1259 2228 
L 1259 0 
L 628 0 
L 628 4666 
z
" transform="scale(0.015625)"/>
       <path id="DejaVuSans-45" d="M 628 4666 
L 3578 4666 
L 3578 4134 
L 1259 4134 
L 1259 2753 
L 3481 2753 
L 3481 2222 
L 1259 2222 
L 1259 531 
L 3634 531 
L 3634 0 
L 628 0 
L 628 4666 
z
" transform="scale(0.015625)"/>
       <path id="DejaVuSans-76" d="M 191 3500 
L 800 3500 
L 1894 563 
L 2988 3500 
L 3597 3500 
L 2284 0 
L 1503 0 
L 191 3500 
z
" transform="scale(0.015625)"/>
       <path id="DejaVuSans-61" d="M 2194 1759 
Q 1497 1759 1228 1600 
Q 959 1441 959 1056 
Q 959 750 1161 570 
Q 1363 391 1709 391 
Q 2188 391 2477 730 
Q 2766 1069 2766 1631 
L 2766 1759 
L 2194 1759 
z
M 3341 1997 
L 3341 0 
L 2766 0 
L 2766 531 
Q 2569 213 2275 61 
Q 1981 -91 1556 -91 
Q 1019 -91 701 211 
Q 384 513 384 1019 
Q 384 1609 779 1909 
Q 1175 2209 1959 2209 
L 2766 2209 
L 2766 2266 
Q 2766 2663 2505 2880 
Q 2244 3097 1772 3097 
Q 1472 3097 1187 3025 
Q 903 2953 641 2809 
L 641 3341 
Q 956 3463 1253 3523 
Q 1550 3584 1831 3584 
Q 2591 3584 2966 3190 
Q 3341 2797 3341 1997 
z
" transform="scale(0.015625)"/>
       <path id="DejaVuSans-73" d="M 2834 3397 
L 2834 2853 
Q 2591 2978 2328 3040 
Q 2066 3103 1784 3103 
Q 1356 3103 1142 2972 
Q 928 2841 928 2578 
Q 928 2378 1081 2264 
Q 1234 2150 1697 2047 
L 1894 2003 
Q 2506 1872 2764 1633 
Q 3022 1394 3022 966 
Q 3022 478 2636 193 
Q 2250 -91 1575 -91 
Q 1294 -91 989 -36 
Q 684 19 347 128 
L 347 722 
Q 666 556 975 473 
Q 1284 391 1588 391 
Q 1994 391 2212 530 
Q 2431 669 2431 922 
Q 2431 1156 2273 1281 
Q 2116 1406 1581 1522 
L 1381 1569 
Q 847 1681 609 1914 
Q 372 2147 372 2553 
Q 372 3047 722 3315 
Q 1072 3584 1716 3584 
Q 2034 3584 2315 3537 
Q 2597 3491 2834 3397 
z
" transform="scale(0.015625)"/>
       <path id="DejaVuSans-2f" d="M 1625 4666 
L 2156 4666 
L 531 -594 
L 0 -594 
L 1625 4666 
z
" transform="scale(0.015625)"/>
       <path id="DejaVuSans-44" d="M 1259 4147 
L 1259 519 
L 2022 519 
Q 2988 519 3436 956 
Q 3884 1394 3884 2338 
Q 3884 3275 3436 3711 
Q 2988 4147 2022 4147 
L 1259 4147 
z
M 628 4666 
L 1925 4666 
Q 3281 4666 3915 4102 
Q 4550 3538 4550 2338 
Q 4550 1131 3912 565 
Q 3275 0 1925 0 
L 628 0 
L 628 4666 
z
" transform="scale(0.015625)"/>
       <path id="DejaVuSans-49" d="M 628 4666 
L 1259 4666 
L 1259 0 
L 628 0 
L 628 4666 
z
" transform="scale(0.015625)"/>
       <path id="DejaVuSans-4d" d="M 628 4666 
L 1569 4666 
L 2759 1491 
L 3956 4666 
L 4897 4666 
L 4897 0 
L 4281 0 
L 4281 4097 
L 3078 897 
L 2444 897 
L 1241 4097 
L 1241 0 
L 628 0 
L 628 4666 
z
" transform="scale(0.015625)"/>
      </defs>
      <use xlink:href="#DejaVuSans-6c"/>
      <use xlink:href="#DejaVuSans-6f" x="27.783203"/>
      <use xlink:href="#DejaVuSans-67" x="88.964844"/>
      <use xlink:href="#DejaVuSans-31" x="152.441406"/>
      <use xlink:href="#DejaVuSans-30" x="216.064453"/>
      <use xlink:href="#DejaVuSans-20" x="279.6875"/>
      <use xlink:href="#DejaVuSans-6f" x="311.474609"/>
      <use xlink:href="#DejaVuSans-66" x="372.65625"/>
      <use xlink:href="#DejaVuSans-20" x="407.861328"/>
      <use xlink:href="#DejaVuSans-46" x="439.648438"/>
      <use xlink:href="#DejaVuSans-45" x="497.167969"/>
      <use xlink:href="#DejaVuSans-76" x="560.351562"/>
      <use xlink:href="#DejaVuSans-61" x="619.53125"/>
      <use xlink:href="#DejaVuSans-6c" x="680.810547"/>
      <use xlink:href="#DejaVuSans-73" x="708.59375"/>
      <use xlink:href="#DejaVuSans-20" x="760.693359"/>
      <use xlink:href="#DejaVuSans-2f" x="792.480469"/>
      <use xlink:href="#DejaVuSans-20" x="826.171875"/>
      <use xlink:href="#DejaVuSans-44" x="857.958984"/>
      <use xlink:href="#DejaVuSans-49" x="934.960938"/>
      <use xlink:href="#DejaVuSans-4d" x="964.453125"/>
     </g>
    </g>
   </g>
   <g id="matplotlib.axis_2">
    <g id="ytick_1">
     <g id="line2d_95">
      <path d="M 62.208 293.76 
L 460.8 293.76 
" clip-path="url(#p9d23509228)" style="fill: none; stroke: #b0b0b0; stroke-width: 0.8; stroke-linecap: square"/>
     </g>
     <g id="line2d_96">
      <defs>
       <path id="maad29d99e4" d="M 0 0 
L -3.5 0 
" style="stroke: #000000; stroke-width: 0.8"/>
      </defs>
      <g>
       <use xlink:href="#maad29d99e4" x="62.208" y="293.76" style="stroke: #000000; stroke-width: 0.8"/>
      </g>
     </g>
     <g id="text_5">
      <!-- 0.0 -->
      <g transform="translate(29.763 299.83875) scale(0.16 -0.16)">
       <defs>
        <path id="DejaVuSans-2e" d="M 684 794 
L 1344 794 
L 1344 0 
L 684 0 
L 684 794 
z
" transform="scale(0.015625)"/>
       </defs>
       <use xlink:href="#DejaVuSans-30"/>
       <use xlink:href="#DejaVuSans-2e" x="63.623047"/>
       <use xlink:href="#DejaVuSans-30" x="95.410156"/>
      </g>
     </g>
    </g>
    <g id="ytick_2">
     <g id="line2d_97">
      <path d="M 62.208 236.274059 
L 460.8 236.274059 
" clip-path="url(#p9d23509228)" style="fill: none; stroke: #b0b0b0; stroke-width: 0.8; stroke-linecap: square"/>
     </g>
     <g id="line2d_98">
      <g>
       <use xlink:href="#maad29d99e4" x="62.208" y="236.274059" style="stroke: #000000; stroke-width: 0.8"/>
      </g>
     </g>
     <g id="text_6">
      <!-- 0.2 -->
      <g transform="translate(29.763 242.352809) scale(0.16 -0.16)">
       <use xlink:href="#DejaVuSans-30"/>
       <use xlink:href="#DejaVuSans-2e" x="63.623047"/>
       <use xlink:href="#DejaVuSans-32" x="95.410156"/>
      </g>
     </g>
    </g>
    <g id="ytick_3">
     <g id="line2d_99">
      <path d="M 62.208 178.788119 
L 460.8 178.788119 
" clip-path="url(#p9d23509228)" style="fill: none; stroke: #b0b0b0; stroke-width: 0.8; stroke-linecap: square"/>
     </g>
     <g id="line2d_100">
      <g>
       <use xlink:href="#maad29d99e4" x="62.208" y="178.788119" style="stroke: #000000; stroke-width: 0.8"/>
      </g>
     </g>
     <g id="text_7">
      <!-- 0.4 -->
      <g transform="translate(29.763 184.866869) scale(0.16 -0.16)">
       <use xlink:href="#DejaVuSans-30"/>
       <use xlink:href="#DejaVuSans-2e" x="63.623047"/>
       <use xlink:href="#DejaVuSans-34" x="95.410156"/>
      </g>
     </g>
    </g>
    <g id="ytick_4">
     <g id="line2d_101">
      <path d="M 62.208 121.302178 
L 460.8 121.302178 
" clip-path="url(#p9d23509228)" style="fill: none; stroke: #b0b0b0; stroke-width: 0.8; stroke-linecap: square"/>
     </g>
     <g id="line2d_102">
      <g>
       <use xlink:href="#maad29d99e4" x="62.208" y="121.302178" style="stroke: #000000; stroke-width: 0.8"/>
      </g>
     </g>
     <g id="text_8">
      <!-- 0.6 -->
      <g transform="translate(29.763 127.380928) scale(0.16 -0.16)">
       <defs>
        <path id="DejaVuSans-36" d="M 2113 2584 
Q 1688 2584 1439 2293 
Q 1191 2003 1191 1497 
Q 1191 994 1439 701 
Q 1688 409 2113 409 
Q 2538 409 2786 701 
Q 3034 994 3034 1497 
Q 3034 2003 2786 2293 
Q 2538 2584 2113 2584 
z
M 3366 4563 
L 3366 3988 
Q 3128 4100 2886 4159 
Q 2644 4219 2406 4219 
Q 1781 4219 1451 3797 
Q 1122 3375 1075 2522 
Q 1259 2794 1537 2939 
Q 1816 3084 2150 3084 
Q 2853 3084 3261 2657 
Q 3669 2231 3669 1497 
Q 3669 778 3244 343 
Q 2819 -91 2113 -91 
Q 1303 -91 875 529 
Q 447 1150 447 2328 
Q 447 3434 972 4092 
Q 1497 4750 2381 4750 
Q 2619 4750 2861 4703 
Q 3103 4656 3366 4563 
z
" transform="scale(0.015625)"/>
       </defs>
       <use xlink:href="#DejaVuSans-30"/>
       <use xlink:href="#DejaVuSans-2e" x="63.623047"/>
       <use xlink:href="#DejaVuSans-36" x="95.410156"/>
      </g>
     </g>
    </g>
    <g id="ytick_5">
     <g id="line2d_103">
      <path d="M 62.208 63.816238 
L 460.8 63.816238 
" clip-path="url(#p9d23509228)" style="fill: none; stroke: #b0b0b0; stroke-width: 0.8; stroke-linecap: square"/>
     </g>
     <g id="line2d_104">
      <g>
       <use xlink:href="#maad29d99e4" x="62.208" y="63.816238" style="stroke: #000000; stroke-width: 0.8"/>
      </g>
     </g>
     <g id="text_9">
      <!-- 0.8 -->
      <g transform="translate(29.763 69.894988) scale(0.16 -0.16)">
       <defs>
        <path id="DejaVuSans-38" d="M 2034 2216 
Q 1584 2216 1326 1975 
Q 1069 1734 1069 1313 
Q 1069 891 1326 650 
Q 1584 409 2034 409 
Q 2484 409 2743 651 
Q 3003 894 3003 1313 
Q 3003 1734 2745 1975 
Q 2488 2216 2034 2216 
z
M 1403 2484 
Q 997 2584 770 2862 
Q 544 3141 544 3541 
Q 544 4100 942 4425 
Q 1341 4750 2034 4750 
Q 2731 4750 3128 4425 
Q 3525 4100 3525 3541 
Q 3525 3141 3298 2862 
Q 3072 2584 2669 2484 
Q 3125 2378 3379 2068 
Q 3634 1759 3634 1313 
Q 3634 634 3220 271 
Q 2806 -91 2034 -91 
Q 1263 -91 848 271 
Q 434 634 434 1313 
Q 434 1759 690 2068 
Q 947 2378 1403 2484 
z
M 1172 3481 
Q 1172 3119 1398 2916 
Q 1625 2713 2034 2713 
Q 2441 2713 2670 2916 
Q 2900 3119 2900 3481 
Q 2900 3844 2670 4047 
Q 2441 4250 2034 4250 
Q 1625 4250 1398 4047 
Q 1172 3844 1172 3481 
z
" transform="scale(0.015625)"/>
       </defs>
       <use xlink:href="#DejaVuSans-30"/>
       <use xlink:href="#DejaVuSans-2e" x="63.623047"/>
       <use xlink:href="#DejaVuSans-38" x="95.410156"/>
      </g>
     </g>
    </g>
    <g id="ytick_6">
     <g id="line2d_105">
      <path d="M 62.208 6.330297 
L 460.8 6.330297 
" clip-path="url(#p9d23509228)" style="fill: none; stroke: #b0b0b0; stroke-width: 0.8; stroke-linecap: square"/>
     </g>
     <g id="line2d_106">
      <g>
       <use xlink:href="#maad29d99e4" x="62.208" y="6.330297" style="stroke: #000000; stroke-width: 0.8"/>
      </g>
     </g>
     <g id="text_10">
      <!-- 1.0 -->
      <g transform="translate(29.763 12.409047) scale(0.16 -0.16)">
       <use xlink:href="#DejaVuSans-31"/>
       <use xlink:href="#DejaVuSans-2e" x="63.623047"/>
       <use xlink:href="#DejaVuSans-30" x="95.410156"/>
      </g>
     </g>
    </g>
    <g id="text_11">
     <!-- proportion of trials -->
     <g transform="translate(21.603625 241.61425) rotate(-90) scale(0.2 -0.2)">
      <defs>
       <path id="DejaVuSans-70" d="M 1159 525 
L 1159 -1331 
L 581 -1331 
L 581 3500 
L 1159 3500 
L 1159 2969 
Q 1341 3281 1617 3432 
Q 1894 3584 2278 3584 
Q 2916 3584 3314 3078 
Q 3713 2572 3713 1747 
Q 3713 922 3314 415 
Q 2916 -91 2278 -91 
Q 1894 -91 1617 61 
Q 1341 213 1159 525 
z
M 3116 1747 
Q 3116 2381 2855 2742 
Q 2594 3103 2138 3103 
Q 1681 3103 1420 2742 
Q 1159 2381 1159 1747 
Q 1159 1113 1420 752 
Q 1681 391 2138 391 
Q 2594 391 2855 752 
Q 3116 1113 3116 1747 
z
" transform="scale(0.015625)"/>
       <path id="DejaVuSans-72" d="M 2631 2963 
Q 2534 3019 2420 3045 
Q 2306 3072 2169 3072 
Q 1681 3072 1420 2755 
Q 1159 2438 1159 1844 
L 1159 0 
L 581 0 
L 581 3500 
L 1159 3500 
L 1159 2956 
Q 1341 3275 1631 3429 
Q 1922 3584 2338 3584 
Q 2397 3584 2469 3576 
Q 2541 3569 2628 3553 
L 2631 2963 
z
" transform="scale(0.015625)"/>
       <path id="DejaVuSans-74" d="M 1172 4494 
L 1172 3500 
L 2356 3500 
L 2356 3053 
L 1172 3053 
L 1172 1153 
Q 1172 725 1289 603 
Q 1406 481 1766 481 
L 2356 481 
L 2356 0 
L 1766 0 
Q 1100 0 847 248 
Q 594 497 594 1153 
L 594 3053 
L 172 3053 
L 172 3500 
L 594 3500 
L 594 4494 
L 1172 4494 
z
" transform="scale(0.015625)"/>
       <path id="DejaVuSans-69" d="M 603 3500 
L 1178 3500 
L 1178 0 
L 603 0 
L 603 3500 
z
M 603 4863 
L 1178 4863 
L 1178 4134 
L 603 4134 
L 603 4863 
z
" transform="scale(0.015625)"/>
       <path id="DejaVuSans-6e" d="M 3513 2113 
L 3513 0 
L 2938 0 
L 2938 2094 
Q 2938 2591 2744 2837 
Q 2550 3084 2163 3084 
Q 1697 3084 1428 2787 
Q 1159 2491 1159 1978 
L 1159 0 
L 581 0 
L 581 3500 
L 1159 3500 
L 1159 2956 
Q 1366 3272 1645 3428 
Q 1925 3584 2291 3584 
Q 2894 3584 3203 3211 
Q 3513 2838 3513 2113 
z
" transform="scale(0.015625)"/>
      </defs>
      <use xlink:href="#DejaVuSans-70"/>
      <use xlink:href="#DejaVuSans-72" x="63.476562"/>
      <use xlink:href="#DejaVuSans-6f" x="102.339844"/>
      <use xlink:href="#DejaVuSans-70" x="163.521484"/>
      <use xlink:href="#DejaVuSans-6f" x="226.998047"/>
      <use xlink:href="#DejaVuSans-72" x="288.179688"/>
      <use xlink:href="#DejaVuSans-74" x="329.292969"/>
      <use xlink:href="#DejaVuSans-69" x="368.501953"/>
      <use xlink:href="#DejaVuSans-6f" x="396.285156"/>
      <use xlink:href="#DejaVuSans-6e" x="457.466797"/>
      <use xlink:href="#DejaVuSans-20" x="520.845703"/>
      <use xlink:href="#DejaVuSans-6f" x="552.632812"/>
      <use xlink:href="#DejaVuSans-66" x="613.814453"/>
      <use xlink:href="#DejaVuSans-20" x="649.019531"/>
      <use xlink:href="#DejaVuSans-74" x="680.806641"/>
      <use xlink:href="#DejaVuSans-72" x="720.015625"/>
      <use xlink:href="#DejaVuSans-69" x="761.128906"/>
      <use xlink:href="#DejaVuSans-61" x="788.912109"/>
      <use xlink:href="#DejaVuSans-6c" x="850.191406"/>
      <use xlink:href="#DejaVuSans-73" x="877.974609"/>
     </g>
    </g>
   </g>
   <g id="line2d_107">
    <path d="M 159.982915 293.76 
L 159.982915 289.927604 
L 161.159886 289.927604 
L 161.159886 286.095208 
L 164.488309 286.095208 
L 164.488309 282.262812 
L 168.638689 282.262812 
L 168.638689 278.430416 
L 169.580601 278.430416 
L 169.580601 274.59802 
L 170.839052 274.59802 
L 170.839052 270.765624 
L 173.763344 270.765624 
L 173.763344 266.933228 
L 173.86748 266.933228 
L 173.86748 263.100832 
L 175.645498 263.100832 
L 175.645498 259.268436 
L 175.942187 259.268436 
L 175.942187 255.43604 
L 176.625657 255.43604 
L 176.625657 251.603644 
L 177.344667 251.603644 
L 177.344667 247.771248 
L 178.050435 247.771248 
L 178.050435 243.938851 
L 179.153306 243.938851 
L 179.153306 240.106455 
L 179.198578 240.106455 
L 179.198578 236.274059 
L 183.877812 236.274059 
L 183.877812 232.441663 
L 184.07751 232.441663 
L 184.07751 228.609267 
L 187.468363 228.609267 
L 187.468363 224.776871 
L 206.699994 224.776871 
L 206.699994 220.944475 
L 233.592564 220.944475 
L 233.592564 217.112079 
L 240.310469 217.112079 
L 240.310469 213.279683 
L 249.882143 213.279683 
L 249.882143 209.447287 
L 287.482114 209.447287 
L 287.482114 205.614891 
L 292.412484 205.614891 
L 292.412484 201.782495 
L 302.979254 201.782495 
L 302.979254 197.950099 
L 361.662288 197.950099 
L 361.662288 194.117703 
L 365.549655 194.117703 
L 365.549655 190.285307 
L 367.098916 190.285307 
L 367.098916 186.452911 
L 431.23007 186.452911 
L 431.23007 182.620515 
L 434.132865 182.620515 
L 434.132865 178.788119 
L 437.366554 178.788119 
L 437.366554 174.955723 
L 440.875235 174.955723 
L 440.875235 171.123327 
L 441.191732 171.123327 
L 441.191732 167.290931 
L 441.191732 167.290931 
L 441.191732 167.290931 
L 460.8 167.290931 
" clip-path="url(#p9d23509228)" style="fill: none; stroke: #000000; stroke-width: 1.5; stroke-linecap: square"/>
   </g>
   <g id="line2d_108">
    <defs>
     <path id="m692c4af47b" d="M 0 14.142136 
L 8.485281 0 
L 0 -14.142136 
L -8.485281 0 
z
" style="stroke: #000000; stroke-width: 1.5; stroke-linejoin: miter"/>
    </defs>
    <g clip-path="url(#p9d23509228)">
     <use xlink:href="#m692c4af47b" x="173.86748" y="266.933228" style="fill-opacity: 0; stroke: #000000; stroke-width: 1.5; stroke-linejoin: miter"/>
     <use xlink:href="#m692c4af47b" x="184.07751" y="232.441663" style="fill-opacity: 0; stroke: #000000; stroke-width: 1.5; stroke-linejoin: miter"/>
     <use xlink:href="#m692c4af47b" x="249.882143" y="213.279683" style="fill-opacity: 0; stroke: #000000; stroke-width: 1.5; stroke-linejoin: miter"/>
     <use xlink:href="#m692c4af47b" x="302.979254" y="201.782495" style="fill-opacity: 0; stroke: #000000; stroke-width: 1.5; stroke-linejoin: miter"/>
     <use xlink:href="#m692c4af47b" x="434.132865" y="182.620515" style="fill-opacity: 0; stroke: #000000; stroke-width: 1.5; stroke-linejoin: miter"/>
     <use xlink:href="#m692c4af47b" x="441.191732" y="167.290931" style="fill-opacity: 0; stroke: #000000; stroke-width: 1.5; stroke-linejoin: miter"/>
    </g>
   </g>
   <g id="line2d_109">
    <path clip-path="url(#p9d23509228)" style="fill: none; stroke: #000000; stroke-width: 1.5; stroke-linecap: square"/>
    <g clip-path="url(#p9d23509228)">
     <use xlink:href="#m692c4af47b" x="-1" y="581.189703" style="fill-opacity: 0; stroke: #000000; stroke-width: 1.5; stroke-linejoin: miter"/>
     <use xlink:href="#m692c4af47b" x="460.8" y="581.189703" style="fill-opacity: 0; stroke: #000000; stroke-width: 1.5; stroke-linejoin: miter"/>
    </g>
   </g>
   <g id="line2d_110">
    <path d="M 172.002937 293.76 
L 172.002937 289.927604 
L 173.132513 289.927604 
L 173.132513 286.095208 
L 173.71117 286.095208 
L 173.71117 282.262812 
L 174.486424 282.262812 
L 174.486424 278.430416 
L 178.697628 278.430416 
L 178.697628 274.59802 
L 179.513988 274.59802 
L 179.513988 270.765624 
L 179.737702 270.765624 
L 179.737702 266.933228 
L 179.960118 266.933228 
L 179.960118 263.100832 
L 182.57449 263.100832 
L 182.57449 259.268436 
L 183.150155 259.268436 
L 183.150155 255.43604 
L 185.099494 255.43604 
L 185.099494 251.603644 
L 186.019269 251.603644 
L 186.019269 247.771248 
L 188.617754 247.771248 
L 188.617754 243.938851 
L 188.617754 243.938851 
L 188.617754 240.106455 
L 188.653123 240.106455 
L 188.653123 236.274059 
L 190.482441 236.274059 
L 190.482441 232.441663 
L 193.088176 232.441663 
L 193.088176 228.609267 
L 196.97753 228.609267 
L 196.97753 224.776871 
L 201.507028 224.776871 
L 201.507028 220.944475 
L 201.733861 220.944475 
L 201.733861 217.112079 
L 202.208367 217.112079 
L 202.208367 213.279683 
L 299.496773 213.279683 
L 299.496773 209.447287 
L 301.838479 209.447287 
L 301.838479 205.614891 
L 304.52101 205.614891 
L 304.52101 201.782495 
L 329.471362 201.782495 
L 329.471362 197.950099 
L 336.87664 197.950099 
L 336.87664 194.117703 
L 337.448037 194.117703 
L 337.448037 190.285307 
L 378.971878 190.285307 
L 378.971878 186.452911 
L 378.971878 186.452911 
L 378.971878 186.452911 
L 460.8 186.452911 
" clip-path="url(#p9d23509228)" style="fill: none; stroke: #000000; stroke-width: 1.5; stroke-linecap: square"/>
   </g>
   <g id="line2d_111">
    <defs>
     <path id="m62f6726d8c" d="M 0 7.5 
C 1.989023 7.5 3.896849 6.709753 5.303301 5.303301 
C 6.709753 3.896849 7.5 1.989023 7.5 0 
C 7.5 -1.989023 6.709753 -3.896849 5.303301 -5.303301 
C 3.896849 -6.709753 1.989023 -7.5 0 -7.5 
C -1.989023 -7.5 -3.896849 -6.709753 -5.303301 -5.303301 
C -6.709753 -3.896849 -7.5 -1.989023 -7.5 0 
C -7.5 1.989023 -6.709753 3.896849 -5.303301 5.303301 
C -3.896849 6.709753 -1.989023 7.5 0 7.5 
z
" style="stroke: #000000; stroke-width: 1.5"/>
    </defs>
    <g clip-path="url(#p9d23509228)">
     <use xlink:href="#m62f6726d8c" x="201.733861" y="220.944475" style="fill-opacity: 0; stroke: #000000; stroke-width: 1.5"/>
     <use xlink:href="#m62f6726d8c" x="202.208367" y="217.112079" style="fill-opacity: 0; stroke: #000000; stroke-width: 1.5"/>
     <use xlink:href="#m62f6726d8c" x="329.471362" y="201.782495" style="fill-opacity: 0; stroke: #000000; stroke-width: 1.5"/>
     <use xlink:href="#m62f6726d8c" x="378.971878" y="190.285307" style="fill-opacity: 0; stroke: #000000; stroke-width: 1.5"/>
     <use xlink:href="#m62f6726d8c" x="378.971878" y="186.452911" style="fill-opacity: 0; stroke: #000000; stroke-width: 1.5"/>
    </g>
   </g>
   <g id="line2d_112">
    <path clip-path="url(#p9d23509228)" style="fill: none; stroke: #000000; stroke-width: 1.5; stroke-linecap: square"/>
   </g>
   <g id="line2d_113">
    <path d="M 258.64891 293.76 
L 258.64891 289.927604 
L 265.53709 289.927604 
L 265.53709 286.095208 
L 269.051012 286.095208 
L 269.051012 282.262812 
L 281.046833 282.262812 
L 281.046833 278.430416 
L 281.952777 278.430416 
L 281.952777 274.59802 
L 283.313144 274.59802 
L 283.313144 270.765624 
L 292.574842 270.765624 
L 292.574842 266.933228 
L 305.148501 266.933228 
L 305.148501 263.100832 
L 310.016283 263.100832 
L 310.016283 259.268436 
L 314.801758 259.268436 
L 314.801758 255.43604 
L 339.498466 255.43604 
L 339.498466 251.603644 
L 343.76036 251.603644 
L 343.76036 247.771248 
L 346.251901 247.771248 
L 346.251901 243.938851 
L 347.140693 243.938851 
L 347.140693 240.106455 
L 349.741504 240.106455 
L 349.741504 236.274059 
L 351.870373 236.274059 
L 351.870373 232.441663 
L 362.956125 232.441663 
L 362.956125 228.609267 
L 367.165691 228.609267 
L 367.165691 224.776871 
L 368.687018 224.776871 
L 368.687018 220.944475 
L 373.662834 220.944475 
L 373.662834 217.112079 
L 375.684222 217.112079 
L 375.684222 213.279683 
L 376.874332 213.279683 
L 376.874332 209.447287 
L 391.289644 209.447287 
L 391.289644 205.614891 
L 401.116416 205.614891 
L 401.116416 201.782495 
L 401.164493 201.782495 
L 401.164493 197.950099 
L 401.79208 197.950099 
L 401.79208 194.117703 
L 420.784265 194.117703 
L 420.784265 190.285307 
L 422.915853 190.285307 
L 422.915853 186.452911 
L 432.752687 186.452911 
L 432.752687 182.620515 
L 435.550427 182.620515 
L 435.550427 178.788119 
L 438.627834 178.788119 
L 438.627834 174.955723 
L 438.627834 174.955723 
L 438.627834 174.955723 
L 460.8 174.955723 
" clip-path="url(#p9d23509228)" style="fill: none; stroke: #00bfbf; stroke-width: 1.5; stroke-linecap: square"/>
   </g>
   <g id="line2d_114">
    <defs>
     <path id="m9cfba6fe48" d="M 0 14.142136 
L 8.485281 0 
L 0 -14.142136 
L -8.485281 0 
z
" style="stroke: #00bfbf; stroke-width: 1.5; stroke-linejoin: miter"/>
    </defs>
    <g clip-path="url(#p9d23509228)">
     <use xlink:href="#m9cfba6fe48" x="310.016283" y="263.100832" style="fill-opacity: 0; stroke: #00bfbf; stroke-width: 1.5; stroke-linejoin: miter"/>
     <use xlink:href="#m9cfba6fe48" x="367.165691" y="228.609267" style="fill-opacity: 0; stroke: #00bfbf; stroke-width: 1.5; stroke-linejoin: miter"/>
     <use xlink:href="#m9cfba6fe48" x="401.164493" y="201.782495" style="fill-opacity: 0; stroke: #00bfbf; stroke-width: 1.5; stroke-linejoin: miter"/>
     <use xlink:href="#m9cfba6fe48" x="438.627834" y="178.788119" style="fill-opacity: 0; stroke: #00bfbf; stroke-width: 1.5; stroke-linejoin: miter"/>
     <use xlink:href="#m9cfba6fe48" x="438.627834" y="174.955723" style="fill-opacity: 0; stroke: #00bfbf; stroke-width: 1.5; stroke-linejoin: miter"/>
    </g>
   </g>
   <g id="line2d_115">
    <path clip-path="url(#p9d23509228)" style="fill: none; stroke: #00bfbf; stroke-width: 1.5; stroke-linecap: square"/>
    <g clip-path="url(#p9d23509228)">
     <use xlink:href="#m9cfba6fe48" x="-1" y="581.189703" style="fill-opacity: 0; stroke: #00bfbf; stroke-width: 1.5; stroke-linejoin: miter"/>
     <use xlink:href="#m9cfba6fe48" x="460.8" y="581.189703" style="fill-opacity: 0; stroke: #00bfbf; stroke-width: 1.5; stroke-linejoin: miter"/>
    </g>
   </g>
   <g id="line2d_116">
    <path d="M 213.406301 293.76 
L 213.406301 289.927604 
L 302.42764 289.927604 
L 302.42764 286.095208 
L 303.507157 286.095208 
L 303.507157 282.262812 
L 305.303781 282.262812 
L 305.303781 278.430416 
L 307.560503 278.430416 
L 307.560503 274.59802 
L 332.507239 274.59802 
L 332.507239 270.765624 
L 336.103289 270.765624 
L 336.103289 266.933228 
L 338.58215 266.933228 
L 338.58215 263.100832 
L 341.749198 263.100832 
L 341.749198 259.268436 
L 344.691856 259.268436 
L 344.691856 255.43604 
L 344.732815 255.43604 
L 344.732815 251.603644 
L 359.185474 251.603644 
L 359.185474 247.771248 
L 364.284406 247.771248 
L 364.284406 243.938851 
L 364.424749 243.938851 
L 364.424749 240.106455 
L 364.709622 240.106455 
L 364.709622 236.274059 
L 365.120272 236.274059 
L 365.120272 232.441663 
L 365.347343 232.441663 
L 365.347343 228.609267 
L 366.193611 228.609267 
L 366.193611 224.776871 
L 368.281469 224.776871 
L 368.281469 220.944475 
L 380.574767 220.944475 
L 380.574767 217.112079 
L 381.919418 217.112079 
L 381.919418 213.279683 
L 382.645257 213.279683 
L 382.645257 209.447287 
L 387.507885 209.447287 
L 387.507885 205.614891 
L 389.832401 205.614891 
L 389.832401 201.782495 
L 390.014569 201.782495 
L 390.014569 197.950099 
L 390.276669 197.950099 
L 390.276669 194.117703 
L 392.177862 194.117703 
L 392.177862 190.285307 
L 418.665336 190.285307 
L 418.665336 186.452911 
L 418.665336 186.452911 
L 418.665336 186.452911 
L 460.8 186.452911 
" clip-path="url(#p9d23509228)" style="fill: none; stroke: #00bfbf; stroke-width: 1.5; stroke-linecap: square"/>
   </g>
   <g id="line2d_117">
    <defs>
     <path id="m65ea88ae9a" d="M 0 7.5 
C 1.989023 7.5 3.896849 6.709753 5.303301 5.303301 
C 6.709753 3.896849 7.5 1.989023 7.5 0 
C 7.5 -1.989023 6.709753 -3.896849 5.303301 -5.303301 
C 3.896849 -6.709753 1.989023 -7.5 0 -7.5 
C -1.989023 -7.5 -3.896849 -6.709753 -5.303301 -5.303301 
C -6.709753 -3.896849 -7.5 -1.989023 -7.5 0 
C -7.5 1.989023 -6.709753 3.896849 -5.303301 5.303301 
C -3.896849 6.709753 -1.989023 7.5 0 7.5 
z
" style="stroke: #00bfbf; stroke-width: 1.5"/>
    </defs>
    <g clip-path="url(#p9d23509228)">
     <use xlink:href="#m65ea88ae9a" x="305.303781" y="282.262812" style="fill-opacity: 0; stroke: #00bfbf; stroke-width: 1.5"/>
     <use xlink:href="#m65ea88ae9a" x="341.749198" y="263.100832" style="fill-opacity: 0; stroke: #00bfbf; stroke-width: 1.5"/>
     <use xlink:href="#m65ea88ae9a" x="390.014569" y="201.782495" style="fill-opacity: 0; stroke: #00bfbf; stroke-width: 1.5"/>
     <use xlink:href="#m65ea88ae9a" x="418.665336" y="190.285307" style="fill-opacity: 0; stroke: #00bfbf; stroke-width: 1.5"/>
     <use xlink:href="#m65ea88ae9a" x="418.665336" y="186.452911" style="fill-opacity: 0; stroke: #00bfbf; stroke-width: 1.5"/>
    </g>
   </g>
   <g id="line2d_118">
    <path clip-path="url(#p9d23509228)" style="fill: none; stroke: #00bfbf; stroke-width: 1.5; stroke-linecap: square"/>
   </g>
   <g id="line2d_119">
    <path d="M 281.469555 293.76 
L 281.469555 289.927604 
L 294.83604 289.927604 
L 294.83604 286.095208 
L 295.197343 286.095208 
L 295.197343 282.262812 
L 311.296491 282.262812 
L 311.296491 278.430416 
L 327.179912 278.430416 
L 327.179912 274.59802 
L 340.844454 274.59802 
L 340.844454 270.765624 
L 344.932764 270.765624 
L 344.932764 266.933228 
L 348.342262 266.933228 
L 348.342262 263.100832 
L 366.092378 263.100832 
L 366.092378 259.268436 
L 368.358893 259.268436 
L 368.358893 255.43604 
L 369.822583 255.43604 
L 369.822583 251.603644 
L 377.981849 251.603644 
L 377.981849 247.771248 
L 392.133499 247.771248 
L 392.133499 243.938851 
L 434.423908 243.938851 
L 434.423908 240.106455 
L 437.240681 240.106455 
L 437.240681 236.274059 
L 440.301872 236.274059 
L 440.301872 232.441663 
L 440.301872 232.441663 
L 440.301872 232.441663 
L 460.8 232.441663 
" clip-path="url(#p9d23509228)" style="fill: none; stroke: #bf00bf; stroke-width: 1.5; stroke-linecap: square"/>
   </g>
   <g id="line2d_120">
    <defs>
     <path id="me369277839" d="M 0 14.142136 
L 8.485281 0 
L 0 -14.142136 
L -8.485281 0 
z
" style="stroke: #bf00bf; stroke-width: 1.5; stroke-linejoin: miter"/>
    </defs>
    <g clip-path="url(#p9d23509228)">
     <use xlink:href="#me369277839" x="344.932764" y="270.765624" style="fill-opacity: 0; stroke: #bf00bf; stroke-width: 1.5; stroke-linejoin: miter"/>
     <use xlink:href="#me369277839" x="377.981849" y="251.603644" style="fill-opacity: 0; stroke: #bf00bf; stroke-width: 1.5; stroke-linejoin: miter"/>
     <use xlink:href="#me369277839" x="440.301872" y="236.274059" style="fill-opacity: 0; stroke: #bf00bf; stroke-width: 1.5; stroke-linejoin: miter"/>
     <use xlink:href="#me369277839" x="440.301872" y="232.441663" style="fill-opacity: 0; stroke: #bf00bf; stroke-width: 1.5; stroke-linejoin: miter"/>
    </g>
   </g>
   <g id="line2d_121">
    <path clip-path="url(#p9d23509228)" style="fill: none; stroke: #bf00bf; stroke-width: 1.5; stroke-linecap: square"/>
    <g clip-path="url(#p9d23509228)">
     <use xlink:href="#me369277839" x="-1" y="581.189703" style="fill-opacity: 0; stroke: #bf00bf; stroke-width: 1.5; stroke-linejoin: miter"/>
     <use xlink:href="#me369277839" x="460.8" y="581.189703" style="fill-opacity: 0; stroke: #bf00bf; stroke-width: 1.5; stroke-linejoin: miter"/>
    </g>
   </g>
   <g id="line2d_122">
    <path d="M 231.000945 293.76 
L 231.000945 289.927604 
L 305.490297 289.927604 
L 305.490297 286.095208 
L 305.780858 286.095208 
L 305.780858 282.262812 
L 307.410931 282.262812 
L 307.410931 278.430416 
L 310.673448 278.430416 
L 310.673448 274.59802 
L 334.78541 274.59802 
L 334.78541 270.765624 
L 337.855758 270.765624 
L 337.855758 266.933228 
L 341.385655 266.933228 
L 341.385655 263.100832 
L 361.583638 263.100832 
L 361.583638 259.268436 
L 366.785299 259.268436 
L 366.785299 255.43604 
L 382.982455 255.43604 
L 382.982455 251.603644 
L 384.207896 251.603644 
L 384.207896 247.771248 
L 384.644029 247.771248 
L 384.644029 243.938851 
L 384.644029 243.938851 
L 384.644029 243.938851 
L 460.8 243.938851 
" clip-path="url(#p9d23509228)" style="fill: none; stroke: #bf00bf; stroke-width: 1.5; stroke-linecap: square"/>
   </g>
   <g id="line2d_123">
    <defs>
     <path id="m0605a0a4cb" d="M 0 7.5 
C 1.989023 7.5 3.896849 6.709753 5.303301 5.303301 
C 6.709753 3.896849 7.5 1.989023 7.5 0 
C 7.5 -1.989023 6.709753 -3.896849 5.303301 -5.303301 
C 3.896849 -6.709753 1.989023 -7.5 0 -7.5 
C -1.989023 -7.5 -3.896849 -6.709753 -5.303301 -5.303301 
C -6.709753 -3.896849 -7.5 -1.989023 -7.5 0 
C -7.5 1.989023 -6.709753 3.896849 -5.303301 5.303301 
C -3.896849 6.709753 -1.989023 7.5 0 7.5 
z
" style="stroke: #bf00bf; stroke-width: 1.5"/>
    </defs>
    <g clip-path="url(#p9d23509228)">
     <use xlink:href="#m0605a0a4cb" x="307.410931" y="282.262812" style="fill-opacity: 0; stroke: #bf00bf; stroke-width: 1.5"/>
     <use xlink:href="#m0605a0a4cb" x="341.385655" y="266.933228" style="fill-opacity: 0; stroke: #bf00bf; stroke-width: 1.5"/>
     <use xlink:href="#m0605a0a4cb" x="384.644029" y="247.771248" style="fill-opacity: 0; stroke: #bf00bf; stroke-width: 1.5"/>
     <use xlink:href="#m0605a0a4cb" x="384.644029" y="243.938851" style="fill-opacity: 0; stroke: #bf00bf; stroke-width: 1.5"/>
    </g>
   </g>
   <g id="line2d_124">
    <path clip-path="url(#p9d23509228)" style="fill: none; stroke: #bf00bf; stroke-width: 1.5; stroke-linecap: square"/>
   </g>
   <g id="line2d_125">
    <path d="M 286.952855 293.76 
L 286.952855 289.927604 
L 298.991696 289.927604 
L 298.991696 286.095208 
L 342.751174 286.095208 
L 342.751174 282.262812 
L 344.693061 282.262812 
L 344.693061 278.430416 
L 346.667978 278.430416 
L 346.667978 274.59802 
L 349.786907 274.59802 
L 349.786907 270.765624 
L 359.237874 270.765624 
L 359.237874 266.933228 
L 370.112394 266.933228 
L 370.112394 263.100832 
L 371.266775 263.100832 
L 371.266775 259.268436 
L 378.620675 259.268436 
L 378.620675 255.43604 
L 394.536184 255.43604 
L 394.536184 251.603644 
L 395.290786 251.603644 
L 395.290786 247.771248 
L 409.003091 247.771248 
L 409.003091 243.938851 
L 436.913398 243.938851 
L 436.913398 240.106455 
L 439.260386 240.106455 
L 439.260386 236.274059 
L 439.260386 236.274059 
L 439.260386 236.274059 
L 460.8 236.274059 
" clip-path="url(#p9d23509228)" style="fill: none; stroke: #ff0000; stroke-width: 3; stroke-linecap: square"/>
   </g>
   <g id="line2d_126">
    <defs>
     <path id="m33a2507dbb" d="M 0 14.142136 
L 8.485281 0 
L 0 -14.142136 
L -8.485281 0 
z
" style="stroke: #ff0000; stroke-width: 3; stroke-linejoin: miter"/>
    </defs>
    <g clip-path="url(#p9d23509228)">
     <use xlink:href="#m33a2507dbb" x="298.991696" y="289.927604" style="fill-opacity: 0; stroke: #ff0000; stroke-width: 3; stroke-linejoin: miter"/>
     <use xlink:href="#m33a2507dbb" x="359.237874" y="270.765624" style="fill-opacity: 0; stroke: #ff0000; stroke-width: 3; stroke-linejoin: miter"/>
     <use xlink:href="#m33a2507dbb" x="395.290786" y="251.603644" style="fill-opacity: 0; stroke: #ff0000; stroke-width: 3; stroke-linejoin: miter"/>
     <use xlink:href="#m33a2507dbb" x="439.260386" y="236.274059" style="fill-opacity: 0; stroke: #ff0000; stroke-width: 3; stroke-linejoin: miter"/>
    </g>
   </g>
   <g id="line2d_127">
    <path clip-path="url(#p9d23509228)" style="fill: none; stroke: #ff0000; stroke-width: 3; stroke-linecap: square"/>
    <g clip-path="url(#p9d23509228)">
     <use xlink:href="#m33a2507dbb" x="-1" y="581.189703" style="fill-opacity: 0; stroke: #ff0000; stroke-width: 3; stroke-linejoin: miter"/>
     <use xlink:href="#m33a2507dbb" x="460.8" y="581.189703" style="fill-opacity: 0; stroke: #ff0000; stroke-width: 3; stroke-linejoin: miter"/>
    </g>
   </g>
   <g id="line2d_128">
    <path d="M 247.922875 293.76 
L 247.922875 289.927604 
L 309.104365 289.927604 
L 309.104365 286.095208 
L 309.171423 286.095208 
L 309.171423 282.262812 
L 311.024702 282.262812 
L 311.024702 278.430416 
L 314.43984 278.430416 
L 314.43984 274.59802 
L 336.684018 274.59802 
L 336.684018 270.765624 
L 340.682197 270.765624 
L 340.682197 266.933228 
L 344.195679 266.933228 
L 344.195679 263.100832 
L 363.039105 263.100832 
L 363.039105 259.268436 
L 368.183978 259.268436 
L 368.183978 255.43604 
L 385.873858 255.43604 
L 385.873858 251.603644 
L 387.121053 251.603644 
L 387.121053 247.771248 
L 387.338928 247.771248 
L 387.338928 243.938851 
L 387.338928 243.938851 
L 387.338928 243.938851 
L 460.8 243.938851 
" clip-path="url(#p9d23509228)" style="fill: none; stroke: #ff0000; stroke-width: 3; stroke-linecap: square"/>
   </g>
   <g id="line2d_129">
    <defs>
     <path id="m5aa472610f" d="M 0 7.5 
C 1.989023 7.5 3.896849 6.709753 5.303301 5.303301 
C 6.709753 3.896849 7.5 1.989023 7.5 0 
C 7.5 -1.989023 6.709753 -3.896849 5.303301 -5.303301 
C 3.896849 -6.709753 1.989023 -7.5 0 -7.5 
C -1.989023 -7.5 -3.896849 -6.709753 -5.303301 -5.303301 
C -6.709753 -3.896849 -7.5 -1.989023 -7.5 0 
C -7.5 1.989023 -6.709753 3.896849 -5.303301 5.303301 
C -3.896849 6.709753 -1.989023 7.5 0 7.5 
z
" style="stroke: #ff0000; stroke-width: 3"/>
    </defs>
    <g clip-path="url(#p9d23509228)">
     <use xlink:href="#m5aa472610f" x="311.024702" y="282.262812" style="fill-opacity: 0; stroke: #ff0000; stroke-width: 3"/>
     <use xlink:href="#m5aa472610f" x="340.682197" y="270.765624" style="fill-opacity: 0; stroke: #ff0000; stroke-width: 3"/>
     <use xlink:href="#m5aa472610f" x="387.338928" y="247.771248" style="fill-opacity: 0; stroke: #ff0000; stroke-width: 3"/>
     <use xlink:href="#m5aa472610f" x="387.338928" y="243.938851" style="fill-opacity: 0; stroke: #ff0000; stroke-width: 3"/>
    </g>
   </g>
   <g id="line2d_130">
    <path clip-path="url(#p9d23509228)" style="fill: none; stroke: #ff0000; stroke-width: 3; stroke-linecap: square"/>
   </g>
   <g id="line2d_131">
    <path d="M 441.775674 293.76 
L 441.775674 3.456 
" clip-path="url(#p9d23509228)" style="fill: none; stroke: #000000; stroke-width: 1.5; stroke-linecap: square"/>
    <defs>
     <path id="m1ba74fcac2" d="M -10 0 
L 10 0 
M 0 10 
L 0 -10 
" style="stroke: #000000; stroke-width: 3"/>
    </defs>
    <g clip-path="url(#p9d23509228)">
     <use xlink:href="#m1ba74fcac2" x="441.775674" y="293.76" style="stroke: #000000; stroke-width: 3"/>
     <use xlink:href="#m1ba74fcac2" x="441.775674" y="3.456" style="stroke: #000000; stroke-width: 3"/>
    </g>
   </g>
   <g id="line2d_132">
    <path d="M 441.819429 293.76 
L 441.819429 3.456 
" clip-path="url(#p9d23509228)" style="fill: none; stroke: #000000; stroke-width: 1.5; stroke-linecap: square"/>
    <defs>
     <path id="m607b07087d" d="M 0 7.5 
C 1.989023 7.5 3.896849 6.709753 5.303301 5.303301 
C 6.709753 3.896849 7.5 1.989023 7.5 0 
C 7.5 -1.989023 6.709753 -3.896849 5.303301 -5.303301 
C 3.896849 -6.709753 1.989023 -7.5 0 -7.5 
C -1.989023 -7.5 -3.896849 -6.709753 -5.303301 -5.303301 
C -6.709753 -3.896849 -7.5 -1.989023 -7.5 0 
C -7.5 1.989023 -6.709753 3.896849 -5.303301 5.303301 
C -3.896849 6.709753 -1.989023 7.5 0 7.5 
z
" style="stroke: #000000; stroke-width: 3"/>
    </defs>
    <g clip-path="url(#p9d23509228)">
     <use xlink:href="#m607b07087d" x="441.819429" y="293.76" style="fill-opacity: 0; stroke: #000000; stroke-width: 3"/>
     <use xlink:href="#m607b07087d" x="441.819429" y="3.456" style="fill-opacity: 0; stroke: #000000; stroke-width: 3"/>
    </g>
   </g>
   <g id="patch_3">
    <path d="M 62.208 293.76 
L 62.208 3.456 
" style="fill: none; stroke: #000000; stroke-width: 0.8; stroke-linejoin: miter; stroke-linecap: square"/>
   </g>
   <g id="patch_4">
    <path d="M 460.8 293.76 
L 460.8 3.456 
" style="fill: none; stroke: #000000; stroke-width: 0.8; stroke-linejoin: miter; stroke-linecap: square"/>
   </g>
   <g id="patch_5">
    <path d="M 62.208 293.76 
L 460.8 293.76 
" style="fill: none; stroke: #000000; stroke-width: 0.8; stroke-linejoin: miter; stroke-linecap: square"/>
   </g>
   <g id="patch_6">
    <path d="M 62.208 3.456 
L 460.8 3.456 
" style="fill: none; stroke: #000000; stroke-width: 0.8; stroke-linejoin: miter; stroke-linecap: square"/>
   </g>
   <g id="text_12">
    <!-- f20-f24 -->
    <g transform="translate(225.405563 24.458955) scale(0.2 -0.2)">
     <defs>
      <path id="DejaVuSans-2d" d="M 313 2009 
L 1997 2009 
L 1997 1497 
L 313 1497 
L 313 2009 
z
" transform="scale(0.015625)"/>
     </defs>
     <use xlink:href="#DejaVuSans-66"/>
     <use xlink:href="#DejaVuSans-32" x="35.205078"/>
     <use xlink:href="#DejaVuSans-30" x="98.828125"/>
     <use xlink:href="#DejaVuSans-2d" x="162.451172"/>
     <use xlink:href="#DejaVuSans-66" x="198.535156"/>
     <use xlink:href="#DejaVuSans-32" x="233.740234"/>
     <use xlink:href="#DejaVuSans-34" x="297.363281"/>
    </g>
   </g>
   <g id="text_13">
    <!-- absolute targets -->
    <g transform="translate(62.208 601.884642) scale(0.14 -0.14)">
     <defs>
      <path id="DejaVuSans-62" d="M 3116 1747 
Q 3116 2381 2855 2742 
Q 2594 3103 2138 3103 
Q 1681 3103 1420 2742 
Q 1159 2381 1159 1747 
Q 1159 1113 1420 752 
Q 1681 391 2138 391 
Q 2594 391 2855 752 
Q 3116 1113 3116 1747 
z
M 1159 2969 
Q 1341 3281 1617 3432 
Q 1894 3584 2278 3584 
Q 2916 3584 3314 3078 
Q 3713 2572 3713 1747 
Q 3713 922 3314 415 
Q 2916 -91 2278 -91 
Q 1894 -91 1617 61 
Q 1341 213 1159 525 
L 1159 0 
L 581 0 
L 581 4863 
L 1159 4863 
L 1159 2969 
z
" transform="scale(0.015625)"/>
      <path id="DejaVuSans-75" d="M 544 1381 
L 544 3500 
L 1119 3500 
L 1119 1403 
Q 1119 906 1312 657 
Q 1506 409 1894 409 
Q 2359 409 2629 706 
Q 2900 1003 2900 1516 
L 2900 3500 
L 3475 3500 
L 3475 0 
L 2900 0 
L 2900 538 
Q 2691 219 2414 64 
Q 2138 -91 1772 -91 
Q 1169 -91 856 284 
Q 544 659 544 1381 
z
M 1991 3584 
L 1991 3584 
z
" transform="scale(0.015625)"/>
      <path id="DejaVuSans-65" d="M 3597 1894 
L 3597 1613 
L 953 1613 
Q 991 1019 1311 708 
Q 1631 397 2203 397 
Q 2534 397 2845 478 
Q 3156 559 3463 722 
L 3463 178 
Q 3153 47 2828 -22 
Q 2503 -91 2169 -91 
Q 1331 -91 842 396 
Q 353 884 353 1716 
Q 353 2575 817 3079 
Q 1281 3584 2069 3584 
Q 2775 3584 3186 3129 
Q 3597 2675 3597 1894 
z
M 3022 2063 
Q 3016 2534 2758 2815 
Q 2500 3097 2075 3097 
Q 1594 3097 1305 2825 
Q 1016 2553 972 2059 
L 3022 2063 
z
" transform="scale(0.015625)"/>
     </defs>
     <use xlink:href="#DejaVuSans-61"/>
     <use xlink:href="#DejaVuSans-62" x="61.279297"/>
     <use xlink:href="#DejaVuSans-73" x="124.755859"/>
     <use xlink:href="#DejaVuSans-6f" x="176.855469"/>
     <use xlink:href="#DejaVuSans-6c" x="238.037109"/>
     <use xlink:href="#DejaVuSans-75" x="265.820312"/>
     <use xlink:href="#DejaVuSans-74" x="329.199219"/>
     <use xlink:href="#DejaVuSans-65" x="368.408203"/>
     <use xlink:href="#DejaVuSans-20" x="429.931641"/>
     <use xlink:href="#DejaVuSans-74" x="461.71875"/>
     <use xlink:href="#DejaVuSans-61" x="500.927734"/>
     <use xlink:href="#DejaVuSans-72" x="562.207031"/>
     <use xlink:href="#DejaVuSans-67" x="601.570312"/>
     <use xlink:href="#DejaVuSans-65" x="665.046875"/>
     <use xlink:href="#DejaVuSans-74" x="726.570312"/>
     <use xlink:href="#DejaVuSans-73" x="765.779297"/>
    </g>
   </g>
   <g id="text_14">
    <!-- v2.6.3 -->
    <g style="fill: #808080" transform="translate(245.82275 288.777272) scale(0.1 -0.1)">
     <defs>
      <path id="DejaVuSans-33" d="M 2597 2516 
Q 3050 2419 3304 2112 
Q 3559 1806 3559 1356 
Q 3559 666 3084 287 
Q 2609 -91 1734 -91 
Q 1441 -91 1130 -33 
Q 819 25 488 141 
L 488 750 
Q 750 597 1062 519 
Q 1375 441 1716 441 
Q 2309 441 2620 675 
Q 2931 909 2931 1356 
Q 2931 1769 2642 2001 
Q 2353 2234 1838 2234 
L 1294 2234 
L 1294 2753 
L 1863 2753 
Q 2328 2753 2575 2939 
Q 2822 3125 2822 3475 
Q 2822 3834 2567 4026 
Q 2313 4219 1838 4219 
Q 1578 4219 1281 4162 
Q 984 4106 628 3988 
L 628 4550 
Q 988 4650 1302 4700 
Q 1616 4750 1894 4750 
Q 2613 4750 3031 4423 
Q 3450 4097 3450 3541 
Q 3450 3153 3228 2886 
Q 3006 2619 2597 2516 
z
" transform="scale(0.015625)"/>
     </defs>
     <use xlink:href="#DejaVuSans-76"/>
     <use xlink:href="#DejaVuSans-32" x="59.179688"/>
     <use xlink:href="#DejaVuSans-2e" x="122.802734"/>
     <use xlink:href="#DejaVuSans-36" x="154.589844"/>
     <use xlink:href="#DejaVuSans-2e" x="218.212891"/>
     <use xlink:href="#DejaVuSans-33" x="250"/>
    </g>
   </g>
   <g id="legend_1">
    <g id="patch_7">
     <path d="M 76.208 136.881 
L 160.148625 136.881 
Q 164.148625 136.881 164.148625 132.881 
L 164.148625 17.456 
Q 164.148625 13.456 160.148625 13.456 
L 76.208 13.456 
Q 72.208 13.456 72.208 17.456 
L 72.208 132.881 
Q 72.208 136.881 76.208 136.881 
z
" style="fill: #ffffff; opacity: 0.2; stroke: #cccccc; stroke-linejoin: miter"/>
    </g>
    <g id="line2d_133">
     <path d="M 80.208 29.652875 
L 80.208 29.652875 
L 100.208 29.652875 
L 100.208 29.652875 
L 120.208 29.652875 
" style="fill: none; stroke: #000000; stroke-width: 1.5; stroke-linecap: square"/>
    </g>
    <g id="text_15">
     <!-- 1 -->
     <g transform="translate(136.208 36.652875) scale(0.2 -0.2)">
      <use xlink:href="#DejaVuSans-31"/>
     </g>
    </g>
    <g id="line2d_134">
     <path d="M 80.208 59.009125 
L 80.208 59.009125 
L 100.208 59.009125 
L 100.208 59.009125 
L 120.208 59.009125 
" style="fill: none; stroke: #00bfbf; stroke-width: 1.5; stroke-linecap: square"/>
    </g>
    <g id="text_16">
     <!-- -1 -->
     <g transform="translate(136.208 66.009125) scale(0.2 -0.2)">
      <use xlink:href="#DejaVuSans-2d"/>
      <use xlink:href="#DejaVuSans-31" x="36.083984"/>
     </g>
    </g>
    <g id="line2d_135">
     <path d="M 80.208 88.365375 
L 80.208 88.365375 
L 100.208 88.365375 
L 100.208 88.365375 
L 120.208 88.365375 
" style="fill: none; stroke: #bf00bf; stroke-width: 1.5; stroke-linecap: square"/>
    </g>
    <g id="text_17">
     <!-- -4 -->
     <g transform="translate(136.208 95.365375) scale(0.2 -0.2)">
      <use xlink:href="#DejaVuSans-2d"/>
      <use xlink:href="#DejaVuSans-34" x="36.083984"/>
     </g>
    </g>
    <g id="line2d_136">
     <path d="M 80.208 117.721625 
L 80.208 117.721625 
L 100.208 117.721625 
L 100.208 117.721625 
L 120.208 117.721625 
" style="fill: none; stroke: #ff0000; stroke-width: 3; stroke-linecap: square"/>
    </g>
    <g id="text_18">
     <!-- -8 -->
     <g transform="translate(136.208 124.721625) scale(0.2 -0.2)">
      <use xlink:href="#DejaVuSans-2d"/>
      <use xlink:href="#DejaVuSans-38" x="36.083984"/>
     </g>
    </g>
   </g>
  </g>
 </g>
 <defs>
  <clipPath id="p9d23509228">
   <rect x="62.208" y="3.456" width="398.592" height="290.304"/>
  </clipPath>
 </defs>
</svg>
