<?xml version="1.0" encoding="utf-8" standalone="no"?>
<!DOCTYPE svg PUBLIC "-//W3C//DTD SVG 1.1//EN"
  "http://www.w3.org/Graphics/SVG/1.1/DTD/svg11.dtd">
<svg xmlns:xlink="http://www.w3.org/1999/xlink" width="460.8pt" height="345.6pt" viewBox="0 0 460.8 345.6" xmlns="http://www.w3.org/2000/svg" version="1.1">
 <metadata>
  <rdf:RDF xmlns:dc="http://purl.org/dc/elements/1.1/" xmlns:cc="http://creativecommons.org/ns#" xmlns:rdf="http://www.w3.org/1999/02/22-rdf-syntax-ns#">
   <cc:Work>
    <dc:type rdf:resource="http://purl.org/dc/dcmitype/StillImage"/>
    <dc:date>2024-06-07T14:25:56.199202</dc:date>
    <dc:format>image/svg+xml</dc:format>
    <dc:creator>
     <cc:Agent>
      <dc:title>Matplotlib v3.7.1, https://matplotlib.org/</dc:title>
     </cc:Agent>
    </dc:creator>
   </cc:Work>
  </rdf:RDF>
 </metadata>
 <defs>
  <style type="text/css">*{stroke-linejoin: round; stroke-linecap: butt}</style>
 </defs>
 <g id="figure_1">
  <g id="patch_1">
   <path d="M 0 345.6 
L 460.8 345.6 
L 460.8 0 
L 0 0 
z
" style="fill: #ffffff"/>
  </g>
  <g id="axes_1">
   <g id="patch_2">
    <path d="M 34.16 291.28 
L 453.192 291.28 
L 453.192 3 
L 34.16 3 
z
" style="fill: #ffffff"/>
   </g>
   <g id="matplotlib.axis_1">
    <g id="xtick_1">
     <g id="line2d_1">
      <path d="M 154.590842 291.28 
L 154.590842 3 
" clip-path="url(#p9783787b3d)" style="fill: none; stroke: #b0b0b0; stroke-width: 0.8; stroke-linecap: square"/>
     </g>
     <g id="line2d_2">
      <defs>
       <path id="md951e8cfa0" d="M 0 0 
L 0 3.5 
" style="stroke: #000000; stroke-width: 0.8"/>
      </defs>
      <g>
       <use xlink:href="#md951e8cfa0" x="154.590842" y="291.28" style="stroke: #000000; stroke-width: 0.8"/>
      </g>
     </g>
     <g id="text_1">
      <!-- -1 -->
      <g transform="translate(144.620529 313.476875) scale(0.2 -0.2)">
       <defs>
        <path id="DejaVuSans-2d" d="M 313 2009 
L 1997 2009 
L 1997 1497 
L 313 1497 
L 313 2009 
z
" transform="scale(0.015625)"/>
        <path id="DejaVuSans-31" d="M 794 531 
L 1825 531 
L 1825 4091 
L 703 3866 
L 703 4441 
L 1819 4666 
L 2450 4666 
L 2450 531 
L 3481 531 
L 3481 0 
L 794 0 
L 794 531 
z
" transform="scale(0.015625)"/>
       </defs>
       <use xlink:href="#DejaVuSans-2d"/>
       <use xlink:href="#DejaVuSans-31" x="36.083984"/>
      </g>
     </g>
    </g>
    <g id="xtick_2">
     <g id="line2d_3">
      <path d="M 332.761158 291.28 
L 332.761158 3 
" clip-path="url(#p9783787b3d)" style="fill: none; stroke: #b0b0b0; stroke-width: 0.8; stroke-linecap: square"/>
     </g>
     <g id="line2d_4">
      <g>
       <use xlink:href="#md951e8cfa0" x="332.761158" y="291.28" style="stroke: #000000; stroke-width: 0.8"/>
      </g>
     </g>
     <g id="text_2">
      <!-- 1 -->
      <g transform="translate(326.398658 313.476875) scale(0.2 -0.2)">
       <use xlink:href="#DejaVuSans-31"/>
      </g>
     </g>
    </g>
    <g id="xtick_3">
     <g id="line2d_5">
      <defs>
       <path id="mf69fd11c63" d="M 0 0 
L 0 2 
" style="stroke: #000000; stroke-width: 0.6"/>
      </defs>
      <g>
       <use xlink:href="#mf69fd11c63" x="38.688379" y="291.28" style="stroke: #000000; stroke-width: 0.6"/>
      </g>
     </g>
    </g>
    <g id="xtick_4">
     <g id="line2d_6">
      <g>
       <use xlink:href="#mf69fd11c63" x="45.742253" y="291.28" style="stroke: #000000; stroke-width: 0.6"/>
      </g>
     </g>
    </g>
    <g id="xtick_5">
     <g id="line2d_7">
      <g>
       <use xlink:href="#mf69fd11c63" x="51.706218" y="291.28" style="stroke: #000000; stroke-width: 0.6"/>
      </g>
     </g>
    </g>
    <g id="xtick_6">
     <g id="line2d_8">
      <g>
       <use xlink:href="#mf69fd11c63" x="56.87244" y="291.28" style="stroke: #000000; stroke-width: 0.6"/>
      </g>
     </g>
    </g>
    <g id="xtick_7">
     <g id="line2d_9">
      <g>
       <use xlink:href="#mf69fd11c63" x="61.42937" y="291.28" style="stroke: #000000; stroke-width: 0.6"/>
      </g>
     </g>
    </g>
    <g id="xtick_8">
     <g id="line2d_10">
      <g>
       <use xlink:href="#mf69fd11c63" x="92.322988" y="291.28" style="stroke: #000000; stroke-width: 0.6"/>
      </g>
     </g>
    </g>
    <g id="xtick_9">
     <g id="line2d_11">
      <g>
       <use xlink:href="#mf69fd11c63" x="108.010106" y="291.28" style="stroke: #000000; stroke-width: 0.6"/>
      </g>
     </g>
    </g>
    <g id="xtick_10">
     <g id="line2d_12">
      <g>
       <use xlink:href="#mf69fd11c63" x="119.140293" y="291.28" style="stroke: #000000; stroke-width: 0.6"/>
      </g>
     </g>
    </g>
    <g id="xtick_11">
     <g id="line2d_13">
      <g>
       <use xlink:href="#mf69fd11c63" x="127.773537" y="291.28" style="stroke: #000000; stroke-width: 0.6"/>
      </g>
     </g>
    </g>
    <g id="xtick_12">
     <g id="line2d_14">
      <g>
       <use xlink:href="#mf69fd11c63" x="134.827411" y="291.28" style="stroke: #000000; stroke-width: 0.6"/>
      </g>
     </g>
    </g>
    <g id="xtick_13">
     <g id="line2d_15">
      <g>
       <use xlink:href="#mf69fd11c63" x="140.791376" y="291.28" style="stroke: #000000; stroke-width: 0.6"/>
      </g>
     </g>
    </g>
    <g id="xtick_14">
     <g id="line2d_16">
      <g>
       <use xlink:href="#mf69fd11c63" x="145.957598" y="291.28" style="stroke: #000000; stroke-width: 0.6"/>
      </g>
     </g>
    </g>
    <g id="xtick_15">
     <g id="line2d_17">
      <g>
       <use xlink:href="#mf69fd11c63" x="150.514529" y="291.28" style="stroke: #000000; stroke-width: 0.6"/>
      </g>
     </g>
    </g>
    <g id="xtick_16">
     <g id="line2d_18">
      <g>
       <use xlink:href="#mf69fd11c63" x="181.408147" y="291.28" style="stroke: #000000; stroke-width: 0.6"/>
      </g>
     </g>
    </g>
    <g id="xtick_17">
     <g id="line2d_19">
      <g>
       <use xlink:href="#mf69fd11c63" x="197.095264" y="291.28" style="stroke: #000000; stroke-width: 0.6"/>
      </g>
     </g>
    </g>
    <g id="xtick_18">
     <g id="line2d_20">
      <g>
       <use xlink:href="#mf69fd11c63" x="208.225451" y="291.28" style="stroke: #000000; stroke-width: 0.6"/>
      </g>
     </g>
    </g>
    <g id="xtick_19">
     <g id="line2d_21">
      <g>
       <use xlink:href="#mf69fd11c63" x="216.858695" y="291.28" style="stroke: #000000; stroke-width: 0.6"/>
      </g>
     </g>
    </g>
    <g id="xtick_20">
     <g id="line2d_22">
      <g>
       <use xlink:href="#mf69fd11c63" x="223.912569" y="291.28" style="stroke: #000000; stroke-width: 0.6"/>
      </g>
     </g>
    </g>
    <g id="xtick_21">
     <g id="line2d_23">
      <g>
       <use xlink:href="#mf69fd11c63" x="229.876534" y="291.28" style="stroke: #000000; stroke-width: 0.6"/>
      </g>
     </g>
    </g>
    <g id="xtick_22">
     <g id="line2d_24">
      <g>
       <use xlink:href="#mf69fd11c63" x="235.042756" y="291.28" style="stroke: #000000; stroke-width: 0.6"/>
      </g>
     </g>
    </g>
    <g id="xtick_23">
     <g id="line2d_25">
      <g>
       <use xlink:href="#mf69fd11c63" x="239.599687" y="291.28" style="stroke: #000000; stroke-width: 0.6"/>
      </g>
     </g>
    </g>
    <g id="xtick_24">
     <g id="line2d_26">
      <g>
       <use xlink:href="#mf69fd11c63" x="270.493305" y="291.28" style="stroke: #000000; stroke-width: 0.6"/>
      </g>
     </g>
    </g>
    <g id="xtick_25">
     <g id="line2d_27">
      <g>
       <use xlink:href="#mf69fd11c63" x="286.180422" y="291.28" style="stroke: #000000; stroke-width: 0.6"/>
      </g>
     </g>
    </g>
    <g id="xtick_26">
     <g id="line2d_28">
      <g>
       <use xlink:href="#mf69fd11c63" x="297.31061" y="291.28" style="stroke: #000000; stroke-width: 0.6"/>
      </g>
     </g>
    </g>
    <g id="xtick_27">
     <g id="line2d_29">
      <g>
       <use xlink:href="#mf69fd11c63" x="305.943853" y="291.28" style="stroke: #000000; stroke-width: 0.6"/>
      </g>
     </g>
    </g>
    <g id="xtick_28">
     <g id="line2d_30">
      <g>
       <use xlink:href="#mf69fd11c63" x="312.997727" y="291.28" style="stroke: #000000; stroke-width: 0.6"/>
      </g>
     </g>
    </g>
    <g id="xtick_29">
     <g id="line2d_31">
      <g>
       <use xlink:href="#mf69fd11c63" x="318.961693" y="291.28" style="stroke: #000000; stroke-width: 0.6"/>
      </g>
     </g>
    </g>
    <g id="xtick_30">
     <g id="line2d_32">
      <g>
       <use xlink:href="#mf69fd11c63" x="324.127914" y="291.28" style="stroke: #000000; stroke-width: 0.6"/>
      </g>
     </g>
    </g>
    <g id="xtick_31">
     <g id="line2d_33">
      <g>
       <use xlink:href="#mf69fd11c63" x="328.684845" y="291.28" style="stroke: #000000; stroke-width: 0.6"/>
      </g>
     </g>
    </g>
    <g id="xtick_32">
     <g id="line2d_34">
      <g>
       <use xlink:href="#mf69fd11c63" x="359.578463" y="291.28" style="stroke: #000000; stroke-width: 0.6"/>
      </g>
     </g>
    </g>
    <g id="xtick_33">
     <g id="line2d_35">
      <g>
       <use xlink:href="#mf69fd11c63" x="375.265581" y="291.28" style="stroke: #000000; stroke-width: 0.6"/>
      </g>
     </g>
    </g>
    <g id="xtick_34">
     <g id="line2d_36">
      <g>
       <use xlink:href="#mf69fd11c63" x="386.395768" y="291.28" style="stroke: #000000; stroke-width: 0.6"/>
      </g>
     </g>
    </g>
    <g id="xtick_35">
     <g id="line2d_37">
      <g>
       <use xlink:href="#mf69fd11c63" x="395.029012" y="291.28" style="stroke: #000000; stroke-width: 0.6"/>
      </g>
     </g>
    </g>
    <g id="xtick_36">
     <g id="line2d_38">
      <g>
       <use xlink:href="#mf69fd11c63" x="402.082885" y="291.28" style="stroke: #000000; stroke-width: 0.6"/>
      </g>
     </g>
    </g>
    <g id="xtick_37">
     <g id="line2d_39">
      <g>
       <use xlink:href="#mf69fd11c63" x="408.046851" y="291.28" style="stroke: #000000; stroke-width: 0.6"/>
      </g>
     </g>
    </g>
    <g id="xtick_38">
     <g id="line2d_40">
      <g>
       <use xlink:href="#mf69fd11c63" x="413.213073" y="291.28" style="stroke: #000000; stroke-width: 0.6"/>
      </g>
     </g>
    </g>
    <g id="xtick_39">
     <g id="line2d_41">
      <g>
       <use xlink:href="#mf69fd11c63" x="417.770003" y="291.28" style="stroke: #000000; stroke-width: 0.6"/>
      </g>
     </g>
    </g>
    <g id="xtick_40">
     <g id="line2d_42">
      <g>
       <use xlink:href="#mf69fd11c63" x="448.663621" y="291.28" style="stroke: #000000; stroke-width: 0.6"/>
      </g>
     </g>
    </g>
    <g id="text_3">
     <!-- log10 of FEvals ratio -->
     <g transform="translate(141.371312 336.833125) scale(0.2 -0.2)">
      <defs>
       <path id="DejaVuSans-6c" d="M 603 4863 
L 1178 4863 
L 1178 0 
L 603 0 
L 603 4863 
z
" transform="scale(0.015625)"/>
       <path id="DejaVuSans-6f" d="M 1959 3097 
Q 1497 3097 1228 2736 
Q 959 2375 959 1747 
Q 959 1119 1226 758 
Q 1494 397 1959 397 
Q 2419 397 2687 759 
Q 2956 1122 2956 1747 
Q 2956 2369 2687 2733 
Q 2419 3097 1959 3097 
z
M 1959 3584 
Q 2709 3584 3137 3096 
Q 3566 2609 3566 1747 
Q 3566 888 3137 398 
Q 2709 -91 1959 -91 
Q 1206 -91 779 398 
Q 353 888 353 1747 
Q 353 2609 779 3096 
Q 1206 3584 1959 3584 
z
" transform="scale(0.015625)"/>
       <path id="DejaVuSans-67" d="M 2906 1791 
Q 2906 2416 2648 2759 
Q 2391 3103 1925 3103 
Q 1463 3103 1205 2759 
Q 947 2416 947 1791 
Q 947 1169 1205 825 
Q 1463 481 1925 481 
Q 2391 481 2648 825 
Q 2906 1169 2906 1791 
z
M 3481 434 
Q 3481 -459 3084 -895 
Q 2688 -1331 1869 -1331 
Q 1566 -1331 1297 -1286 
Q 1028 -1241 775 -1147 
L 775 -588 
Q 1028 -725 1275 -790 
Q 1522 -856 1778 -856 
Q 2344 -856 2625 -561 
Q 2906 -266 2906 331 
L 2906 616 
Q 2728 306 2450 153 
Q 2172 0 1784 0 
Q 1141 0 747 490 
Q 353 981 353 1791 
Q 353 2603 747 3093 
Q 1141 3584 1784 3584 
Q 2172 3584 2450 3431 
Q 2728 3278 2906 2969 
L 2906 3500 
L 3481 3500 
L 3481 434 
z
" transform="scale(0.015625)"/>
       <path id="DejaVuSans-30" d="M 2034 4250 
Q 1547 4250 1301 3770 
Q 1056 3291 1056 2328 
Q 1056 1369 1301 889 
Q 1547 409 2034 409 
Q 2525 409 2770 889 
Q 3016 1369 3016 2328 
Q 3016 3291 2770 3770 
Q 2525 4250 2034 4250 
z
M 2034 4750 
Q 2819 4750 3233 4129 
Q 3647 3509 3647 2328 
Q 3647 1150 3233 529 
Q 2819 -91 2034 -91 
Q 1250 -91 836 529 
Q 422 1150 422 2328 
Q 422 3509 836 4129 
Q 1250 4750 2034 4750 
z
" transform="scale(0.015625)"/>
       <path id="DejaVuSans-20" transform="scale(0.015625)"/>
       <path id="DejaVuSans-66" d="M 2375 4863 
L 2375 4384 
L 1825 4384 
Q 1516 4384 1395 4259 
Q 1275 4134 1275 3809 
L 1275 3500 
L 2222 3500 
L 2222 3053 
L 1275 3053 
L 1275 0 
L 697 0 
L 697 3053 
L 147 3053 
L 147 3500 
L 697 3500 
L 697 3744 
Q 697 4328 969 4595 
Q 1241 4863 1831 4863 
L 2375 4863 
z
" transform="scale(0.015625)"/>
       <path id="DejaVuSans-46" d="M 628 4666 
L 3309 4666 
L 3309 4134 
L 1259 4134 
L 1259 2759 
L 3109 2759 
L 3109 2228 
L 1259 2228 
L 1259 0 
L 628 0 
L 628 4666 
z
" transform="scale(0.015625)"/>
       <path id="DejaVuSans-45" d="M 628 4666 
L 3578 4666 
L 3578 4134 
L 1259 4134 
L 1259 2753 
L 3481 2753 
L 3481 2222 
L 1259 2222 
L 1259 531 
L 3634 531 
L 3634 0 
L 628 0 
L 628 4666 
z
" transform="scale(0.015625)"/>
       <path id="DejaVuSans-76" d="M 191 3500 
L 800 3500 
L 1894 563 
L 2988 3500 
L 3597 3500 
L 2284 0 
L 1503 0 
L 191 3500 
z
" transform="scale(0.015625)"/>
       <path id="DejaVuSans-61" d="M 2194 1759 
Q 1497 1759 1228 1600 
Q 959 1441 959 1056 
Q 959 750 1161 570 
Q 1363 391 1709 391 
Q 2188 391 2477 730 
Q 2766 1069 2766 1631 
L 2766 1759 
L 2194 1759 
z
M 3341 1997 
L 3341 0 
L 2766 0 
L 2766 531 
Q 2569 213 2275 61 
Q 1981 -91 1556 -91 
Q 1019 -91 701 211 
Q 384 513 384 1019 
Q 384 1609 779 1909 
Q 1175 2209 1959 2209 
L 2766 2209 
L 2766 2266 
Q 2766 2663 2505 2880 
Q 2244 3097 1772 3097 
Q 1472 3097 1187 3025 
Q 903 2953 641 2809 
L 641 3341 
Q 956 3463 1253 3523 
Q 1550 3584 1831 3584 
Q 2591 3584 2966 3190 
Q 3341 2797 3341 1997 
z
" transform="scale(0.015625)"/>
       <path id="DejaVuSans-73" d="M 2834 3397 
L 2834 2853 
Q 2591 2978 2328 3040 
Q 2066 3103 1784 3103 
Q 1356 3103 1142 2972 
Q 928 2841 928 2578 
Q 928 2378 1081 2264 
Q 1234 2150 1697 2047 
L 1894 2003 
Q 2506 1872 2764 1633 
Q 3022 1394 3022 966 
Q 3022 478 2636 193 
Q 2250 -91 1575 -91 
Q 1294 -91 989 -36 
Q 684 19 347 128 
L 347 722 
Q 666 556 975 473 
Q 1284 391 1588 391 
Q 1994 391 2212 530 
Q 2431 669 2431 922 
Q 2431 1156 2273 1281 
Q 2116 1406 1581 1522 
L 1381 1569 
Q 847 1681 609 1914 
Q 372 2147 372 2553 
Q 372 3047 722 3315 
Q 1072 3584 1716 3584 
Q 2034 3584 2315 3537 
Q 2597 3491 2834 3397 
z
" transform="scale(0.015625)"/>
       <path id="DejaVuSans-72" d="M 2631 2963 
Q 2534 3019 2420 3045 
Q 2306 3072 2169 3072 
Q 1681 3072 1420 2755 
Q 1159 2438 1159 1844 
L 1159 0 
L 581 0 
L 581 3500 
L 1159 3500 
L 1159 2956 
Q 1341 3275 1631 3429 
Q 1922 3584 2338 3584 
Q 2397 3584 2469 3576 
Q 2541 3569 2628 3553 
L 2631 2963 
z
" transform="scale(0.015625)"/>
       <path id="DejaVuSans-74" d="M 1172 4494 
L 1172 3500 
L 2356 3500 
L 2356 3053 
L 1172 3053 
L 1172 1153 
Q 1172 725 1289 603 
Q 1406 481 1766 481 
L 2356 481 
L 2356 0 
L 1766 0 
Q 1100 0 847 248 
Q 594 497 594 1153 
L 594 3053 
L 172 3053 
L 172 3500 
L 594 3500 
L 594 4494 
L 1172 4494 
z
" transform="scale(0.015625)"/>
       <path id="DejaVuSans-69" d="M 603 3500 
L 1178 3500 
L 1178 0 
L 603 0 
L 603 3500 
z
M 603 4863 
L 1178 4863 
L 1178 4134 
L 603 4134 
L 603 4863 
z
" transform="scale(0.015625)"/>
      </defs>
      <use xlink:href="#DejaVuSans-6c"/>
      <use xlink:href="#DejaVuSans-6f" x="27.783203"/>
      <use xlink:href="#DejaVuSans-67" x="88.964844"/>
      <use xlink:href="#DejaVuSans-31" x="152.441406"/>
      <use xlink:href="#DejaVuSans-30" x="216.064453"/>
      <use xlink:href="#DejaVuSans-20" x="279.6875"/>
      <use xlink:href="#DejaVuSans-6f" x="311.474609"/>
      <use xlink:href="#DejaVuSans-66" x="372.65625"/>
      <use xlink:href="#DejaVuSans-20" x="407.861328"/>
      <use xlink:href="#DejaVuSans-46" x="439.648438"/>
      <use xlink:href="#DejaVuSans-45" x="497.167969"/>
      <use xlink:href="#DejaVuSans-76" x="560.351562"/>
      <use xlink:href="#DejaVuSans-61" x="619.53125"/>
      <use xlink:href="#DejaVuSans-6c" x="680.810547"/>
      <use xlink:href="#DejaVuSans-73" x="708.59375"/>
      <use xlink:href="#DejaVuSans-20" x="760.693359"/>
      <use xlink:href="#DejaVuSans-72" x="792.480469"/>
      <use xlink:href="#DejaVuSans-61" x="833.59375"/>
      <use xlink:href="#DejaVuSans-74" x="894.873047"/>
      <use xlink:href="#DejaVuSans-69" x="934.082031"/>
      <use xlink:href="#DejaVuSans-6f" x="961.865234"/>
     </g>
    </g>
   </g>
   <g id="matplotlib.axis_2">
    <g id="ytick_1">
     <g id="line2d_43">
      <path d="M 34.16 288.453725 
L 453.192 288.453725 
" clip-path="url(#p9783787b3d)" style="fill: none; stroke: #b0b0b0; stroke-width: 0.8; stroke-linecap: square"/>
     </g>
     <g id="line2d_44">
      <defs>
       <path id="m6d2b3621ae" d="M 0 0 
L -3.5 0 
" style="stroke: #000000; stroke-width: 0.8"/>
      </defs>
      <g>
       <use xlink:href="#m6d2b3621ae" x="34.16" y="288.453725" style="stroke: #000000; stroke-width: 0.8"/>
      </g>
     </g>
    </g>
    <g id="ytick_2">
     <g id="line2d_45">
      <path d="M 34.16 217.796863 
L 453.192 217.796863 
" clip-path="url(#p9783787b3d)" style="fill: none; stroke: #b0b0b0; stroke-width: 0.8; stroke-linecap: square"/>
     </g>
     <g id="line2d_46">
      <g>
       <use xlink:href="#m6d2b3621ae" x="34.16" y="217.796863" style="stroke: #000000; stroke-width: 0.8"/>
      </g>
     </g>
    </g>
    <g id="ytick_3">
     <g id="line2d_47">
      <path d="M 34.16 147.14 
L 453.192 147.14 
" clip-path="url(#p9783787b3d)" style="fill: none; stroke: #b0b0b0; stroke-width: 0.8; stroke-linecap: square"/>
     </g>
     <g id="line2d_48">
      <g>
       <use xlink:href="#m6d2b3621ae" x="34.16" y="147.14" style="stroke: #000000; stroke-width: 0.8"/>
      </g>
     </g>
    </g>
    <g id="ytick_4">
     <g id="line2d_49">
      <path d="M 34.16 76.483137 
L 453.192 76.483137 
" clip-path="url(#p9783787b3d)" style="fill: none; stroke: #b0b0b0; stroke-width: 0.8; stroke-linecap: square"/>
     </g>
     <g id="line2d_50">
      <g>
       <use xlink:href="#m6d2b3621ae" x="34.16" y="76.483137" style="stroke: #000000; stroke-width: 0.8"/>
      </g>
     </g>
    </g>
    <g id="ytick_5">
     <g id="line2d_51">
      <path d="M 34.16 5.826275 
L 453.192 5.826275 
" clip-path="url(#p9783787b3d)" style="fill: none; stroke: #b0b0b0; stroke-width: 0.8; stroke-linecap: square"/>
     </g>
     <g id="line2d_52">
      <g>
       <use xlink:href="#m6d2b3621ae" x="34.16" y="5.826275" style="stroke: #000000; stroke-width: 0.8"/>
      </g>
     </g>
    </g>
    <g id="text_4">
     <!-- proportion of trials -->
     <g transform="translate(19.000625 240.14625) rotate(-90) scale(0.2 -0.2)">
      <defs>
       <path id="DejaVuSans-70" d="M 1159 525 
L 1159 -1331 
L 581 -1331 
L 581 3500 
L 1159 3500 
L 1159 2969 
Q 1341 3281 1617 3432 
Q 1894 3584 2278 3584 
Q 2916 3584 3314 3078 
Q 3713 2572 3713 1747 
Q 3713 922 3314 415 
Q 2916 -91 2278 -91 
Q 1894 -91 1617 61 
Q 1341 213 1159 525 
z
M 3116 1747 
Q 3116 2381 2855 2742 
Q 2594 3103 2138 3103 
Q 1681 3103 1420 2742 
Q 1159 2381 1159 1747 
Q 1159 1113 1420 752 
Q 1681 391 2138 391 
Q 2594 391 2855 752 
Q 3116 1113 3116 1747 
z
" transform="scale(0.015625)"/>
       <path id="DejaVuSans-6e" d="M 3513 2113 
L 3513 0 
L 2938 0 
L 2938 2094 
Q 2938 2591 2744 2837 
Q 2550 3084 2163 3084 
Q 1697 3084 1428 2787 
Q 1159 2491 1159 1978 
L 1159 0 
L 581 0 
L 581 3500 
L 1159 3500 
L 1159 2956 
Q 1366 3272 1645 3428 
Q 1925 3584 2291 3584 
Q 2894 3584 3203 3211 
Q 3513 2838 3513 2113 
z
" transform="scale(0.015625)"/>
      </defs>
      <use xlink:href="#DejaVuSans-70"/>
      <use xlink:href="#DejaVuSans-72" x="63.476562"/>
      <use xlink:href="#DejaVuSans-6f" x="102.339844"/>
      <use xlink:href="#DejaVuSans-70" x="163.521484"/>
      <use xlink:href="#DejaVuSans-6f" x="226.998047"/>
      <use xlink:href="#DejaVuSans-72" x="288.179688"/>
      <use xlink:href="#DejaVuSans-74" x="329.292969"/>
      <use xlink:href="#DejaVuSans-69" x="368.501953"/>
      <use xlink:href="#DejaVuSans-6f" x="396.285156"/>
      <use xlink:href="#DejaVuSans-6e" x="457.466797"/>
      <use xlink:href="#DejaVuSans-20" x="520.845703"/>
      <use xlink:href="#DejaVuSans-6f" x="552.632812"/>
      <use xlink:href="#DejaVuSans-66" x="613.814453"/>
      <use xlink:href="#DejaVuSans-20" x="649.019531"/>
      <use xlink:href="#DejaVuSans-74" x="680.806641"/>
      <use xlink:href="#DejaVuSans-72" x="720.015625"/>
      <use xlink:href="#DejaVuSans-69" x="761.128906"/>
      <use xlink:href="#DejaVuSans-61" x="788.912109"/>
      <use xlink:href="#DejaVuSans-6c" x="850.191406"/>
      <use xlink:href="#DejaVuSans-73" x="877.974609"/>
     </g>
    </g>
   </g>
   <g id="line2d_53">
    <path d="M 34.16 222.306875 
L 55.402176 222.306875 
L 55.402176 221.905985 
L 55.901737 221.905985 
L 55.901737 221.505095 
L 61.932049 221.505095 
L 61.932049 221.104205 
L 62.303837 221.104205 
L 62.303837 220.703315 
L 62.43161 220.703315 
L 62.43161 220.302425 
L 62.803399 220.302425 
L 62.803399 219.901535 
L 67.794306 219.901535 
L 67.794306 219.500645 
L 68.293868 219.500645 
L 68.293868 219.099755 
L 73.483556 219.099755 
L 73.483556 218.698865 
L 74.820046 218.698865 
L 74.820046 218.297975 
L 78.867027 218.297975 
L 78.867027 217.897085 
L 79.366589 217.897085 
L 79.366589 217.496195 
L 80.013428 217.496195 
L 80.013428 217.095305 
L 80.126193 217.095305 
L 80.126193 216.694415 
L 80.385217 216.694415 
L 80.385217 216.293525 
L 81.349919 216.293525 
L 81.349919 215.892635 
L 81.721708 215.892635 
L 81.721708 215.491745 
L 84.324527 215.491745 
L 84.324527 215.090855 
L 85.542848 215.090855 
L 85.542848 214.689965 
L 85.875686 214.689965 
L 85.875686 214.289075 
L 86.656066 214.289075 
L 86.656066 213.888185 
L 87.027855 213.888185 
L 87.027855 213.487295 
L 87.205571 213.487295 
L 87.212177 212.685515 
L 88.081436 212.685515 
L 88.081436 212.284625 
L 90.8544 212.284625 
L 90.8544 211.883735 
L 91.226189 211.883735 
L 91.226189 211.482845 
L 92.518323 211.482845 
L 92.518323 211.081955 
L 96.716657 211.081955 
L 96.716657 210.681065 
L 96.948407 210.681065 
L 96.948407 210.280175 
L 98.284898 210.280175 
L 98.284898 209.879285 
L 98.727953 209.879285 
L 98.727953 209.478395 
L 99.227514 209.478395 
L 99.227514 209.077505 
L 103.591045 209.077505 
L 103.591045 208.676615 
L 104.021487 208.676615 
L 104.021487 208.275725 
L 107.216769 208.275725 
L 107.216769 207.874835 
L 107.789378 207.874835 
L 107.789378 207.473945 
L 108.143026 207.473945 
L 108.143026 207.073055 
L 108.631647 207.073055 
L 108.631647 206.672165 
L 108.877679 206.672165 
L 108.879493 205.870385 
L 109.755358 205.870385 
L 109.805749 205.068605 
L 110.294371 205.068605 
L 110.294371 204.667715 
L 110.55136 204.667715 
L 110.55136 204.266825 
L 110.681614 204.266825 
L 110.681614 203.865935 
L 110.923149 203.865935 
L 110.923149 203.465045 
L 111.170236 203.465045 
L 111.170236 203.064155 
L 113.099597 203.064155 
L 113.099597 202.663265 
L 114.76232 202.663265 
L 114.857986 201.861485 
L 115.407552 201.861485 
L 115.407552 201.460595 
L 115.638186 201.460595 
L 115.732859 200.658815 
L 115.779341 200.658815 
L 115.779341 200.257925 
L 115.987978 200.257925 
L 115.987978 199.857035 
L 116.413617 199.857035 
L 116.520709 199.055255 
L 116.809333 199.055255 
L 116.809333 198.654365 
L 117.396575 198.654365 
L 117.396575 198.253475 
L 118.145824 198.253475 
L 118.145824 197.852585 
L 118.32719 197.852585 
L 118.32719 197.451695 
L 119.435526 197.451695 
L 119.435526 197.050805 
L 121.202061 197.050805 
L 121.26981 196.249025 
L 122.262732 196.249025 
L 122.262732 195.848135 
L 122.517851 195.848135 
L 122.517851 195.447245 
L 122.634521 195.447245 
L 122.634521 195.046355 
L 122.864785 195.046355 
L 122.88964 194.244575 
L 123.45197 194.244575 
L 123.45197 193.843685 
L 123.74065 193.843685 
L 123.74065 193.442795 
L 125.883949 193.442795 
L 125.883949 193.041905 
L 127.486338 193.041905 
L 127.486338 192.641015 
L 127.650304 192.641015 
L 127.650304 192.240125 
L 128.124989 192.240125 
L 128.124989 191.839235 
L 128.380108 191.839235 
L 128.380108 191.438345 
L 132.342531 191.438345 
L 132.413822 190.636565 
L 132.78561 190.636565 
L 132.78561 190.235675 
L 138.276079 190.235675 
L 138.276079 189.834785 
L 139.197711 189.834785 
L 139.197711 189.433895 
L 139.452829 189.433895 
L 139.452829 189.033005 
L 140.001112 189.033005 
L 140.001112 188.632115 
L 140.927368 188.632115 
L 140.927368 188.231225 
L 141.109448 188.231225 
L 141.109448 187.830335 
L 141.41599 187.830335 
L 141.41599 187.429445 
L 142.035704 187.429445 
L 142.035704 187.028555 
L 142.524326 187.028555 
L 142.524326 186.627665 
L 145.883939 186.627665 
L 145.883939 186.226775 
L 146.992276 186.226775 
L 146.992276 185.825885 
L 147.347264 185.825885 
L 147.347264 185.424995 
L 147.642328 185.424995 
L 147.642328 185.024105 
L 148.750665 185.024105 
L 148.750665 184.623215 
L 149.3488 184.623215 
L 149.3488 184.222325 
L 150.617283 184.222325 
L 150.617283 183.821435 
L 152.203456 183.821435 
L 152.203456 183.420545 
L 153.986404 183.420545 
L 153.986404 183.019655 
L 155.09474 183.019655 
L 155.09474 182.618765 
L 157.147156 182.618765 
L 157.147156 182.217875 
L 157.518944 182.217875 
L 157.518944 181.816985 
L 158.556838 181.816985 
L 158.556838 181.416095 
L 159.058636 181.416095 
L 159.058636 181.015205 
L 159.313755 181.015205 
L 159.313755 180.614315 
L 162.793594 180.614315 
L 162.793594 180.213425 
L 163.009413 180.213425 
L 163.009413 179.812535 
L 164.584939 179.812535 
L 164.584939 179.411645 
L 165.086711 179.411645 
L 165.086711 179.010755 
L 165.4585 179.010755 
L 165.4585 178.609865 
L 167.756177 178.609865 
L 167.756177 178.208975 
L 169.209726 178.208975 
L 169.209726 177.808085 
L 169.323467 177.808085 
L 169.323467 177.407195 
L 169.695256 177.407195 
L 169.695256 177.006305 
L 170.948968 177.006305 
L 170.948968 176.605415 
L 174.082134 176.605415 
L 174.082134 176.204525 
L 174.28605 176.204525 
L 174.28605 175.803635 
L 174.657839 175.803635 
L 174.657839 175.402745 
L 175.185724 175.402745 
L 175.185724 175.001855 
L 180.148308 175.001855 
L 180.148308 174.600965 
L 182.021689 174.600965 
L 182.021689 174.200075 
L 185.270904 174.200075 
L 185.270904 173.799185 
L 186.258445 173.799185 
L 186.258861 172.997405 
L 187.185117 172.997405 
L 187.185117 172.596515 
L 187.673739 172.596515 
L 187.673739 172.195625 
L 189.397152 172.195625 
L 189.397152 171.794735 
L 190.426985 171.794735 
L 190.426985 171.393845 
L 190.845411 171.393845 
L 190.845411 170.992955 
L 191.221029 170.992955 
L 191.221029 170.592065 
L 192.141689 170.592065 
L 192.141689 170.191175 
L 193.008725 170.191175 
L 193.06394 169.389395 
L 193.900078 169.389395 
L 193.94306 168.587615 
L 194.553234 168.587615 
L 194.553234 168.186725 
L 195.27906 168.186725 
L 195.27906 167.785835 
L 196.001493 167.785835 
L 196.001493 167.384945 
L 196.525808 167.384945 
L 196.525808 166.984055 
L 196.765206 166.984055 
L 196.765206 166.583165 
L 197.396451 166.583165 
L 197.396451 166.182275 
L 198.164807 166.182275 
L 198.171294 165.380495 
L 199.405309 165.380495 
L 199.429181 164.578715 
L 200.244153 164.578715 
L 200.244153 164.177825 
L 200.695397 164.177825 
L 200.695397 163.776935 
L 200.853568 163.776935 
L 200.853568 163.376045 
L 201.112138 163.376045 
L 201.112138 162.975155 
L 201.546155 162.975155 
L 201.546155 162.574265 
L 201.68189 162.574265 
L 201.68189 162.173375 
L 201.875037 162.173375 
L 201.921288 160.970705 
L 202.552533 160.970705 
L 202.552533 160.569815 
L 202.929428 160.569815 
L 203.016882 159.768035 
L 203.208878 159.768035 
L 203.244709 158.966255 
L 203.327376 158.966255 
L 203.327376 158.565365 
L 204.084743 158.565365 
L 204.084743 158.164475 
L 204.408409 158.164475 
L 204.408409 157.763585 
L 204.585262 157.763585 
L 204.585262 157.362695 
L 205.238387 157.362695 
L 205.238387 156.961805 
L 205.851479 156.961805 
L 205.851479 156.560915 
L 206.119371 156.560915 
L 206.127624 155.759135 
L 206.491305 155.759135 
L 206.533965 154.957355 
L 206.686646 154.957355 
L 206.773363 154.155575 
L 207.031119 154.155575 
L 207.031119 153.754685 
L 207.155376 153.754685 
L 207.155376 153.353795 
L 207.404608 153.353795 
L 207.404608 152.952905 
L 208.08551 152.952905 
L 208.179451 152.151125 
L 208.23973 152.151125 
L 208.23973 151.750235 
L 208.400791 151.750235 
L 208.400791 151.349345 
L 208.534657 151.349345 
L 208.534657 150.948455 
L 208.699466 150.948455 
L 208.740709 150.146675 
L 208.849959 150.146675 
L 208.849959 149.745785 
L 209.437338 149.745785 
L 209.437338 149.344895 
L 209.982917 149.344895 
L 209.982917 148.944005 
L 210.253872 148.944005 
L 210.298583 148.142225 
L 210.403432 148.142225 
L 210.403432 147.741335 
L 210.703554 147.741335 
L 210.703554 147.340445 
L 211.053714 147.340445 
L 211.081954 146.538665 
L 211.222433 146.538665 
L 211.281625 144.935105 
L 211.647386 144.935105 
L 211.702132 144.133325 
L 211.883194 144.133325 
L 211.883194 143.732435 
L 212.14623 143.732435 
L 212.14623 143.331545 
L 212.365979 143.331545 
L 212.367043 142.529765 
L 212.60644 142.529765 
L 212.60644 142.128875 
L 212.729884 142.128875 
L 212.825715 141.327095 
L 212.934098 141.327095 
L 212.937585 140.525315 
L 213.237685 140.525315 
L 213.265431 139.322645 
L 213.809964 139.322645 
L 213.865445 138.119975 
L 214.012528 138.119975 
L 214.012528 137.719085 
L 214.273974 137.719085 
L 214.273974 137.318195 
L 214.737862 137.318195 
L 214.737862 136.917305 
L 214.893198 136.917305 
L 214.893198 136.516415 
L 215.270415 136.516415 
L 215.348681 135.714635 
L 215.454664 135.714635 
L 215.454664 135.313745 
L 215.663314 135.313745 
L 215.664118 134.511965 
L 215.902711 134.511965 
L 215.977552 133.710185 
L 216.15274 133.710185 
L 216.15274 133.309295 
L 216.437288 133.309295 
L 216.536631 131.705735 
L 216.796941 131.705735 
L 216.796941 131.304845 
L 217.308799 131.304845 
L 217.391679 130.102175 
L 217.621926 130.102175 
L 217.716271 129.300395 
L 217.882913 129.300395 
L 217.882913 128.899505 
L 218.253171 128.899505 
L 218.253171 128.498615 
L 218.410281 128.498615 
L 218.416565 127.696835 
L 218.566686 127.696835 
L 218.667016 126.494165 
L 218.770663 126.494165 
L 218.866968 125.291495 
L 218.960254 125.291495 
L 219.028014 124.489715 
L 219.085943 124.489715 
L 219.085943 124.088825 
L 219.280924 124.088825 
L 219.280924 123.687935 
L 219.494635 123.687935 
L 219.545636 122.886155 
L 219.734033 122.886155 
L 219.832902 122.084375 
L 219.901983 122.084375 
L 219.954371 121.282595 
L 220.055767 121.282595 
L 220.079288 120.480815 
L 220.193769 120.480815 
L 220.285901 119.679035 
L 220.306739 119.679035 
L 220.365278 118.877255 
L 220.421501 118.877255 
L 220.529692 118.075475 
L 220.620689 118.075475 
L 220.620689 117.674585 
L 220.825014 117.674585 
L 220.825014 117.273695 
L 220.955154 117.273695 
L 221.012542 116.071025 
L 221.140121 116.071025 
L 221.140121 115.670135 
L 221.313653 115.670135 
L 221.405557 114.868355 
L 221.552117 114.868355 
L 221.599857 114.066575 
L 222.066934 114.066575 
L 222.066934 113.665685 
L 222.270434 113.665685 
L 222.379079 112.463015 
L 222.382214 112.463015 
L 222.477338 111.260345 
L 222.57987 111.260345 
L 222.57987 110.859455 
L 222.716735 110.859455 
L 222.793265 109.656785 
L 222.857743 109.656785 
L 222.857743 109.255895 
L 223.34798 109.255895 
L 223.34798 108.855005 
L 223.664224 108.855005 
L 223.75951 108.053225 
L 223.786148 108.053225 
L 223.786148 107.652335 
L 224.028232 107.652335 
L 224.12396 106.048775 
L 224.241524 106.048775 
L 224.241524 105.647885 
L 224.520336 105.647885 
L 224.520336 105.246995 
L 224.759733 105.246995 
L 224.843864 104.044325 
L 225.129182 104.044325 
L 225.129182 103.643435 
L 225.3036 103.643435 
L 225.390978 102.440765 
L 225.476491 102.440765 
L 225.476491 102.039875 
L 225.62881 102.039875 
L 225.62881 101.638985 
L 225.898255 101.638985 
L 225.997935 100.837205 
L 226.139817 100.837205 
L 226.213536 99.233645 
L 226.357991 99.233645 
L 226.404837 98.030975 
L 226.646926 98.030975 
L 226.673272 97.229195 
L 227.348025 97.229195 
L 227.423708 96.427415 
L 227.639805 96.427415 
L 227.660658 95.625635 
L 227.826566 95.625635 
L 227.844942 94.422965 
L 228.375777 94.422965 
L 228.375777 94.022075 
L 228.536524 94.022075 
L 228.536524 93.621185 
L 228.689924 93.621185 
L 228.723154 92.418515 
L 228.880958 92.418515 
L 228.880958 92.017625 
L 229.196238 92.017625 
L 229.196238 91.616735 
L 229.436088 91.616735 
L 229.460132 90.814955 
L 229.869564 90.814955 
L 229.921921 89.612285 
L 230.008255 89.612285 
L 230.008255 89.211395 
L 230.161318 89.211395 
L 230.161318 88.810505 
L 230.792563 88.810505 
L 230.792563 88.409615 
L 230.923956 88.409615 
L 230.923956 88.008725 
L 231.155303 88.008725 
L 231.239236 86.806055 
L 231.396286 86.806055 
L 231.396286 86.405165 
L 231.567406 86.405165 
L 231.567406 86.004275 
L 232.027531 86.004275 
L 232.027531 85.603385 
L 232.183055 85.603385 
L 232.183055 85.202495 
L 232.442834 85.202495 
L 232.442834 84.801605 
L 232.727636 84.801605 
L 232.825293 83.598935 
L 233.26741 83.598935 
L 233.26741 83.198045 
L 233.525338 83.198045 
L 233.525338 82.797155 
L 233.653892 82.797155 
L 233.764736 81.594485 
L 234.06026 81.594485 
L 234.142514 80.391815 
L 234.330497 80.391815 
L 234.395981 79.590035 
L 234.485832 79.590035 
L 234.485832 79.189145 
L 235.170824 79.189145 
L 235.271149 78.387365 
L 235.326477 78.387365 
L 235.326477 77.986475 
L 235.438833 77.986475 
L 235.438833 77.585585 
L 236.250112 77.585585 
L 236.325541 76.783805 
L 236.428711 76.783805 
L 236.506117 75.982025 
L 236.640821 75.982025 
L 236.640821 75.581135 
L 237.560508 75.581135 
L 237.610194 74.779355 
L 237.694927 74.779355 
L 237.694927 74.378465 
L 237.875788 74.378465 
L 237.875788 73.977575 
L 238.29311 73.977575 
L 238.29311 73.576685 
L 238.610463 73.576685 
L 238.610463 73.175795 
L 238.874567 73.175795 
L 238.874567 72.774905 
L 239.887417 72.774905 
L 239.928958 71.973125 
L 240.244239 71.973125 
L 240.244239 71.572235 
L 240.368853 71.572235 
L 240.368853 71.171345 
L 241.122384 71.171345 
L 241.122384 70.770455 
L 241.525051 70.770455 
L 241.525051 70.369565 
L 241.736443 70.369565 
L 241.736443 69.968675 
L 242.633387 69.968675 
L 242.633387 69.567785 
L 243.184702 69.567785 
L 243.184702 69.166895 
L 243.490835 69.166895 
L 243.490835 68.766005 
L 243.694695 68.766005 
L 243.694695 68.365115 
L 244.055717 68.365115 
L 244.055717 67.964225 
L 244.929662 67.964225 
L 244.929662 67.563335 
L 245.164054 67.563335 
L 245.164054 67.162445 
L 245.348015 67.162445 
L 245.348015 66.761555 
L 246.712928 66.761555 
L 246.712928 66.360665 
L 247.298113 66.360665 
L 247.298113 65.959775 
L 248.865099 65.959775 
L 248.865099 65.558885 
L 249.104497 65.558885 
L 249.104497 65.157995 
L 249.735741 65.157995 
L 249.735741 64.757105 
L 250.510584 64.757105 
L 250.510584 64.356215 
L 250.667255 64.356215 
L 250.667255 63.955325 
L 251.200908 63.955325 
L 251.200908 63.554435 
L 251.651311 63.554435 
L 251.651311 63.153545 
L 251.768471 63.153545 
L 251.775591 62.351765 
L 252.309244 62.351765 
L 252.309244 61.950875 
L 252.759647 61.950875 
L 252.759647 61.549985 
L 253.034687 61.549985 
L 253.034687 61.149095 
L 254.214327 61.149095 
L 254.214327 60.748205 
L 254.635158 60.748205 
L 254.635158 60.347315 
L 255.268719 60.347315 
L 255.268719 59.946425 
L 255.583999 59.946425 
L 255.583999 59.545535 
L 257.588035 59.545535 
L 257.588035 59.144645 
L 258.782277 59.144645 
L 258.830595 57.941975 
L 258.933221 57.941975 
L 258.95972 57.140195 
L 259.890614 57.140195 
L 259.890614 56.739305 
L 260.068056 56.739305 
L 260.068056 56.338415 
L 260.670032 56.338415 
L 260.670032 55.937525 
L 262.637873 55.937525 
L 262.637873 55.536635 
L 276.309079 55.536635 
L 276.309079 55.135745 
L 277.235336 55.135745 
L 277.235336 54.734855 
L 277.723957 54.734855 
L 277.723957 54.333965 
L 279.261956 54.333965 
L 279.261956 53.933075 
L 280.188213 53.933075 
L 280.188213 53.532185 
L 280.491626 53.532185 
L 280.588246 52.730405 
L 280.607142 52.730405 
L 280.676835 51.928625 
L 281.417883 51.928625 
L 281.417883 51.527735 
L 281.533399 51.527735 
L 281.533399 51.126845 
L 281.906505 51.126845 
L 281.906505 50.725955 
L 282.02202 50.725955 
L 282.02202 50.325065 
L 282.191907 50.325065 
L 282.191907 49.924175 
L 282.343954 49.924175 
L 282.343954 49.523285 
L 282.707124 49.523285 
L 282.707124 49.122395 
L 283.27021 49.122395 
L 283.27021 48.721505 
L 283.758832 48.721505 
L 283.758832 48.320615 
L 283.950296 48.320615 
L 283.950296 47.919725 
L 285.144784 47.919725 
L 285.144784 47.518835 
L 286.374454 47.518835 
L 286.374454 47.117945 
L 286.48997 47.117945 
L 286.48997 46.717055 
L 286.903173 46.717055 
L 286.903173 46.316165 
L 287.7828 46.316165 
L 287.7828 45.915275 
L 288.132843 45.915275 
L 288.226782 45.113495 
L 288.248359 45.113495 
L 288.248359 44.712605 
L 289.985171 44.712605 
L 289.985171 44.311715 
L 290.294371 44.311715 
L 290.313467 43.509935 
L 293.247249 43.509935 
L 293.247249 43.109045 
L 293.617098 43.109045 
L 293.617098 42.708155 
L 294.476919 42.708155 
L 294.476919 42.307265 
L 294.592434 42.307265 
L 294.592434 41.906375 
L 296.329246 41.906375 
L 296.329246 41.505485 
L 296.925004 41.505485 
L 296.925004 41.104595 
L 297.458657 41.104595 
L 297.458657 40.703705 
L 297.90906 40.703705 
L 297.90906 40.302815 
L 304.381046 40.302815 
L 304.381046 39.901925 
L 305.040027 39.901925 
L 305.040027 39.501035 
L 305.217469 39.501035 
L 305.307302 38.699255 
L 305.795924 38.699255 
L 305.795924 38.298365 
L 309.067247 38.298365 
L 309.067247 37.897475 
L 310.263873 37.897475 
L 310.263873 37.496585 
L 312.022263 37.496585 
L 312.022263 37.095695 
L 315.291019 37.095695 
L 315.291019 36.694805 
L 316.217276 36.694805 
L 316.261801 35.893025 
L 316.705898 35.893025 
L 316.705898 35.492135 
L 318.366338 35.492135 
L 318.366338 35.091245 
L 318.792467 35.091245 
L 318.792467 34.690355 
L 321.173847 34.690355 
L 321.173847 34.289465 
L 322.932236 34.289465 
L 322.932236 33.888575 
L 325.404005 33.888575 
L 325.404005 33.487685 
L 325.937658 33.487685 
L 325.937658 33.086795 
L 326.388061 33.086795 
L 326.388061 32.685905 
L 327.057021 32.685905 
L 327.057021 32.285015 
L 329.276312 32.285015 
L 329.276312 31.884125 
L 333.519027 31.884125 
L 333.519027 31.483235 
L 333.69647 31.483235 
L 333.69647 31.082345 
L 334.251575 31.082345 
L 334.251575 30.681455 
L 336.782242 30.681455 
L 336.782242 30.280565 
L 343.393779 30.280565 
L 343.393779 29.879675 
L 343.927432 29.879675 
L 343.927432 29.478785 
L 344.377835 29.478785 
L 344.377835 29.077895 
L 351.508801 29.077895 
L 351.508801 28.677005 
L 351.686244 28.677005 
L 351.686244 28.276115 
L 370.638465 28.276115 
L 370.638465 27.875225 
L 373.591342 27.875225 
L 373.591342 27.474335 
L 374.821012 27.474335 
L 374.821012 27.073445 
L 374.936528 27.073445 
L 374.936528 26.672555 
L 376.673339 26.672555 
L 376.673339 26.271665 
L 377.833019 26.271665 
L 377.833019 25.870775 
L 380.363685 25.870775 
L 380.363685 25.469885 
L 380.785896 25.469885 
L 380.785896 25.068995 
L 382.015566 25.068995 
L 382.015566 24.668105 
L 382.131082 24.668105 
L 382.131082 24.267215 
L 383.316562 24.267215 
L 383.316562 23.866325 
L 383.867893 23.866325 
L 383.867893 23.465435 
L 384.546232 23.465435 
L 384.546232 23.064545 
L 384.661748 23.064545 
L 384.661748 22.663655 
L 386.39856 22.663655 
L 386.39856 22.262765 
L 386.975223 22.262765 
L 386.975223 21.861875 
L 387.508875 21.861875 
L 387.508875 21.460985 
L 387.959278 21.460985 
L 387.959278 21.060095 
L 389.9281 21.060095 
L 389.9281 20.659205 
L 390.461752 20.659205 
L 390.461752 20.258315 
L 390.912156 20.258315 
L 390.912156 19.857425 
L 391.15777 19.857425 
L 391.15777 19.456535 
L 391.273286 19.456535 
L 391.273286 19.055645 
L 391.691422 19.055645 
L 391.691422 18.654755 
L 391.806938 18.654755 
L 391.806938 18.253865 
L 392.141826 18.253865 
L 392.141826 17.852975 
L 392.257341 17.852975 
L 392.257341 17.452085 
L 393.010097 17.452085 
L 393.010097 17.051195 
L 393.54375 17.051195 
L 393.54375 16.650305 
L 393.994153 16.650305 
L 393.994153 16.249415 
L 395.090245 16.249415 
L 395.090245 15.848525 
L 395.267687 15.848525 
L 395.267687 15.447635 
L 398.043122 15.447635 
L 398.043122 15.046745 
L 398.220564 15.046745 
L 398.220564 14.645855 
L 398.710431 14.645855 
L 398.710431 14.244965 
L 399.272792 14.244965 
L 399.272792 13.844075 
L 399.388308 13.844075 
L 399.450234 13.042295 
L 399.56575 13.042295 
L 399.56575 12.641405 
L 401.12512 12.641405 
L 401.12512 12.240515 
L 401.302562 12.240515 
L 401.302562 11.839625 
L 405.904985 11.839625 
L 405.904985 11.438735 
L 408.435652 11.438735 
L 408.435652 11.037845 
L 409.620405 11.037845 
L 409.620405 10.636955 
L 415.047189 10.636955 
L 415.047189 10.236065 
L 415.580842 10.236065 
L 415.580842 9.835175 
L 416.031245 9.835175 
L 416.031245 9.434285 
L 416.814959 9.434285 
L 416.814959 9.033395 
L 419.345625 9.033395 
L 419.345625 8.632505 
L 423.162211 8.632505 
L 423.162211 8.231615 
L 423.339654 8.231615 
L 423.339654 7.830725 
L 425.957163 7.830725 
L 425.957163 7.429835 
L 426.490815 7.429835 
L 426.490815 7.028945 
L 426.941219 7.028945 
L 426.941219 6.628055 
L 434.072185 6.628055 
L 434.072185 6.227165 
L 434.249627 6.227165 
L 434.249627 5.826275 
L 453.192 5.826275 
L 453.192 5.826275 
" clip-path="url(#p9783787b3d)" style="fill: none; stroke: #000000; stroke-width: 3; stroke-linecap: square"/>
   </g>
   <g id="line2d_54">
    <path clip-path="url(#p9783787b3d)" style="fill: none; stroke: #000000; stroke-width: 3; stroke-linecap: square"/>
   </g>
   <g id="line2d_55">
    <path d="M 34.16 180.048676 
L 189.127041 180.048676 
L 189.127041 179.403408 
L 189.459764 179.403408 
L 189.459764 178.758139 
L 191.661461 178.758139 
L 191.661461 178.112871 
L 191.994185 178.112871 
L 191.994185 177.467603 
L 197.32559 177.467603 
L 197.32559 176.822335 
L 199.860011 176.822335 
L 199.860011 176.177067 
L 200.645544 176.177067 
L 200.645544 175.531799 
L 201.151407 175.531799 
L 201.151407 174.886531 
L 201.48413 174.886531 
L 201.48413 174.241262 
L 202.12573 174.241262 
L 202.12573 173.595994 
L 203.179965 173.595994 
L 203.179965 172.950726 
L 209.349956 172.950726 
L 209.349956 172.305458 
L 212.455886 172.305458 
L 212.455886 171.66019 
L 212.66991 171.66019 
L 212.66991 171.014922 
L 214.219524 171.014922 
L 214.219524 170.369654 
L 214.552247 170.369654 
L 214.552247 169.724385 
L 215.419294 169.724385 
L 215.419294 169.079117 
L 215.752017 169.079117 
L 215.752017 168.433849 
L 221.487884 168.433849 
L 221.487884 167.788581 
L 221.820607 167.788581 
L 221.820607 167.143313 
L 222.418073 167.143313 
L 222.418073 166.498045 
L 223.617843 166.498045 
L 223.617843 165.852776 
L 224.424108 165.852776 
L 224.424108 165.207508 
L 224.756831 165.207508 
L 224.756831 164.56224 
L 225.738027 164.56224 
L 225.738027 163.916972 
L 226.937797 163.916972 
L 226.937797 163.271704 
L 228.460831 163.271704 
L 228.460831 162.626436 
L 228.793555 162.626436 
L 228.793555 161.981168 
L 229.686433 161.981168 
L 229.686433 161.335899 
L 232.622657 161.335899 
L 232.622657 160.690631 
L 233.006387 160.690631 
L 233.006387 160.045363 
L 235.942611 160.045363 
L 235.942611 159.400095 
L 236.659381 159.400095 
L 236.659381 158.754827 
L 239.979335 158.754827 
L 239.979335 158.109559 
L 254.368532 158.109559 
L 254.368532 157.46429 
L 256.431207 157.46429 
L 256.431207 156.819022 
L 256.902952 156.819022 
L 256.902952 156.173754 
L 257.601 156.173754 
L 257.601 155.528486 
L 258.401874 155.528486 
L 258.401874 154.883218 
L 258.965628 154.883218 
L 258.991368 153.592682 
L 259.870347 153.592682 
L 259.870347 152.947413 
L 260.13542 152.947413 
L 260.13542 152.302145 
L 260.936294 152.302145 
L 260.936294 151.656877 
L 261.525788 151.656877 
L 261.525788 151.011609 
L 262.404767 151.011609 
L 262.404767 150.366341 
L 266.392898 150.366341 
L 266.392898 149.721073 
L 268.455573 149.721073 
L 268.455573 149.075804 
L 269.625366 149.075804 
L 269.625366 148.430536 
L 270.42624 148.430536 
L 270.42624 147.785268 
L 271.015734 147.785268 
L 271.015734 147.14 
L 271.894713 147.14 
L 271.894713 146.494732 
L 275.216032 146.494732 
L 275.216032 145.849464 
L 276.581542 145.849464 
L 276.581542 145.204196 
L 277.487327 145.204196 
L 277.487327 144.558927 
L 277.750453 144.558927 
L 277.750453 143.913659 
L 278.530293 143.913659 
L 278.530293 143.268391 
L 279.115962 143.268391 
L 279.115962 142.623123 
L 279.461014 142.623123 
L 279.461014 141.977855 
L 280.021747 141.977855 
L 280.021747 141.332587 
L 280.660785 141.332587 
L 280.660785 140.687318 
L 281.064713 140.687318 
L 281.064713 140.04205 
L 281.52369 140.04205 
L 281.52369 139.396782 
L 282.693483 139.396782 
L 282.72346 138.106246 
L 283.494356 138.106246 
L 283.494356 137.460978 
L 283.893253 137.460978 
L 283.893253 136.81571 
L 284.08385 136.81571 
L 284.08385 136.170441 
L 284.624846 136.170441 
L 284.694127 134.879905 
L 284.80899 134.879905 
L 284.80899 134.234637 
L 284.962829 134.234637 
L 284.962829 133.589369 
L 285.28362 133.589369 
L 285.28362 132.944101 
L 286.162599 132.944101 
L 286.162599 132.298832 
L 286.729375 132.298832 
L 286.729375 131.653564 
L 287.240399 131.653564 
L 287.240399 131.008296 
L 288.605908 131.008296 
L 288.605908 130.363028 
L 288.79205 130.363028 
L 288.79205 129.71776 
L 289.49686 129.71776 
L 289.511693 128.427224 
L 289.665599 128.427224 
L 289.665599 127.781955 
L 289.961843 127.781955 
L 289.961843 127.136687 
L 290.554659 127.136687 
L 290.554659 126.491419 
L 290.762717 126.491419 
L 290.762717 125.846151 
L 291.35221 125.846151 
L 291.35221 125.200883 
L 291.728274 125.200883 
L 291.728274 124.555615 
L 292.231189 124.555615 
L 292.231189 123.910346 
L 292.898067 123.910346 
L 292.898067 123.265078 
L 293.698941 123.265078 
L 293.702322 121.974542 
L 294.288435 121.974542 
L 294.288435 121.329274 
L 294.955002 121.329274 
L 294.955002 120.684006 
L 295.139146 120.684006 
L 295.167414 119.393469 
L 295.678516 119.393469 
L 295.764998 118.102933 
L 296.01124 118.102933 
L 296.01124 117.457665 
L 296.93479 117.457665 
L 296.93479 116.812397 
L 297.735664 116.812397 
L 297.735664 116.167129 
L 298.325158 116.167129 
L 298.325158 115.521861 
L 298.516314 115.521861 
L 298.516314 114.876592 
L 299.204137 114.876592 
L 299.204137 114.231324 
L 299.861953 114.231324 
L 299.861953 113.586056 
L 300.308515 113.586056 
L 300.308515 112.940788 
L 301.04906 112.940788 
L 301.04906 112.29552 
L 301.381784 112.29552 
L 301.381784 111.650252 
L 301.508285 111.650252 
L 301.508285 111.004983 
L 301.674025 111.004983 
L 301.761134 109.714447 
L 302.093858 109.714447 
L 302.093858 109.069179 
L 302.579809 109.069179 
L 302.579809 108.423911 
L 302.873795 108.423911 
L 302.873795 107.778643 
L 303.622775 107.778643 
L 303.622775 107.133375 
L 303.779579 107.133375 
L 303.877066 105.842838 
L 304.822546 105.842838 
L 304.822546 105.19757 
L 306.358405 105.19757 
L 306.358405 104.552302 
L 306.568922 104.552302 
L 306.568922 103.907034 
L 306.691128 103.907034 
L 306.691128 103.261766 
L 307.19702 103.261766 
L 307.19702 102.616497 
L 307.462891 102.616497 
L 307.462891 101.971229 
L 307.576875 101.971229 
L 307.576875 101.325961 
L 307.859257 101.325961 
L 307.859257 100.680693 
L 308.19198 100.680693 
L 308.19198 100.035425 
L 308.607473 100.035425 
L 308.607473 99.390157 
L 308.942385 99.390157 
L 308.942385 98.744889 
L 309.14525 98.744889 
L 309.24761 96.809084 
L 309.53219 96.809084 
L 309.53219 96.163816 
L 309.737731 96.163816 
L 309.848169 94.228011 
L 309.959683 94.228011 
L 309.959683 93.582743 
L 310.5131 93.582743 
L 310.5131 92.937475 
L 310.891136 92.937475 
L 310.891136 92.292207 
L 311.878609 92.292207 
L 311.878609 91.646939 
L 312.567564 91.646939 
L 312.567564 91.001671 
L 312.784394 91.001671 
L 312.784394 90.356403 
L 313.279637 90.356403 
L 313.279637 89.711134 
L 313.82736 89.711134 
L 313.82736 89.065866 
L 314.549823 89.065866 
L 314.556954 87.77533 
L 315.915332 87.77533 
L 315.915332 87.130062 
L 316.057806 87.130062 
L 316.057806 86.484794 
L 316.821117 86.484794 
L 316.899078 85.194257 
L 317.793047 85.194257 
L 317.876908 83.258453 
L 318.937629 83.258453 
L 318.937629 82.613185 
L 319.37776 82.613185 
L 319.475406 81.322648 
L 319.561437 81.322648 
L 319.561437 80.67738 
L 319.862346 80.67738 
L 319.862346 80.032112 
L 320.067887 80.032112 
L 320.107221 78.741576 
L 360.920007 78.741576 
L 360.920007 78.096308 
L 362.982683 78.096308 
L 362.982683 77.451039 
L 364.152475 77.451039 
L 364.152475 76.805771 
L 364.953349 76.805771 
L 364.953349 76.160503 
L 365.542843 76.160503 
L 365.542843 75.515235 
L 366.290551 75.515235 
L 366.290551 74.869967 
L 366.421822 74.869967 
L 366.421822 74.224699 
L 367.002625 74.224699 
L 367.002625 73.579431 
L 368.353227 73.579431 
L 368.353227 72.934162 
L 369.0653 72.934162 
L 369.0653 72.288894 
L 369.523019 72.288894 
L 369.523019 71.643626 
L 370.235093 71.643626 
L 370.323893 70.35309 
L 370.913387 70.35309 
L 370.913387 69.707822 
L 371.035967 69.707822 
L 371.035967 69.062553 
L 371.599896 69.062553 
L 371.625461 67.772017 
L 371.792366 67.772017 
L 371.792366 67.126749 
L 371.995977 67.126749 
L 371.995977 66.481481 
L 372.18012 66.481481 
L 372.18012 65.836213 
L 372.50444 65.836213 
L 372.50444 65.190945 
L 373.100748 65.190945 
L 373.100748 64.545676 
L 373.662571 64.545676 
L 373.662571 63.900408 
L 374.832364 63.900408 
L 374.832364 63.25514 
L 375.163423 63.25514 
L 375.163423 62.609872 
L 375.633237 62.609872 
L 375.633237 61.964604 
L 376.222731 61.964604 
L 376.333216 60.674068 
L 377.10171 60.674068 
L 377.134089 59.383531 
L 377.723583 59.383531 
L 377.723583 58.738263 
L 378.602562 58.738263 
L 378.602562 58.092995 
L 381.015431 58.092995 
L 381.015431 57.447727 
L 381.199574 57.447727 
L 381.199574 56.802459 
L 381.767508 56.802459 
L 381.767508 56.15719 
L 382.36107 56.15719 
L 382.36107 55.511922 
L 382.545213 55.511922 
L 382.545213 54.866654 
L 383.133017 54.866654 
L 383.133017 54.221386 
L 384.038802 54.221386 
L 384.038802 53.576118 
L 385.081768 53.576118 
L 385.081768 52.93085 
L 387.138052 52.93085 
L 387.138052 52.285582 
L 387.850126 52.285582 
L 387.850126 51.640313 
L 388.503561 51.640313 
L 388.503561 50.995045 
L 389.215635 50.995045 
L 389.215635 50.349777 
L 389.409346 50.349777 
L 389.409346 49.704509 
L 390.12142 49.704509 
L 390.12142 49.059241 
L 390.452312 49.059241 
L 390.452312 48.413973 
L 391.164386 48.413973 
L 391.164386 47.768704 
L 392.447396 47.768704 
L 392.447396 47.123436 
L 393.812906 47.123436 
L 393.812906 46.478168 
L 393.940052 46.478168 
L 393.948248 45.187632 
L 394.71869 45.187632 
L 394.71869 44.542364 
L 394.834021 44.542364 
L 394.834021 43.897096 
L 395.313758 43.897096 
L 395.313758 43.251827 
L 395.761656 43.251827 
L 395.761656 42.606559 
L 395.978604 42.606559 
L 395.978604 41.961291 
L 396.219542 41.961291 
L 396.219542 41.316023 
L 396.51638 41.316023 
L 396.602411 40.025487 
L 396.90332 40.025487 
L 396.90332 39.380218 
L 397.108861 39.380218 
L 397.148196 38.089682 
L 397.262508 38.089682 
L 397.262508 37.444414 
L 402.959506 37.444414 
L 402.959506 36.799146 
L 403.853475 36.799146 
L 403.853475 36.153878 
L 404.305145 36.153878 
L 404.305145 35.50861 
L 404.998057 35.50861 
L 404.998057 34.863341 
L 405.199114 34.863341 
L 405.199114 34.218073 
L 405.535834 34.218073 
L 405.621865 32.927537 
L 405.922774 32.927537 
L 405.922774 32.282269 
L 406.128315 32.282269 
L 406.167649 30.991732 
L 406.343696 30.991732 
L 406.343696 30.346464 
L 406.881473 30.346464 
L 406.967504 29.055928 
L 407.268413 29.055928 
L 407.268413 28.41066 
L 407.473954 28.41066 
L 407.513288 27.120124 
L 453.192 27.120124 
L 453.192 27.120124 
" clip-path="url(#p9783787b3d)" style="fill: none; stroke: #00bfbf; stroke-width: 3; stroke-linecap: square"/>
   </g>
   <g id="line2d_56">
    <path clip-path="url(#p9783787b3d)" style="fill: none; stroke: #00bfbf; stroke-width: 3; stroke-linecap: square"/>
   </g>
   <g id="line2d_57">
    <path d="M 34.16 180.048676 
L 233.146835 180.048676 
L 233.146835 179.403408 
L 233.528122 179.403408 
L 233.528122 178.758139 
L 235.22322 178.758139 
L 235.22322 178.112871 
L 235.604508 178.112871 
L 235.604508 177.467603 
L 236.146755 177.467603 
L 236.146755 176.822335 
L 237.804302 176.822335 
L 237.804302 176.177067 
L 238.223141 176.177067 
L 238.223141 175.531799 
L 239.880688 175.531799 
L 239.880688 174.886531 
L 243.821728 174.886531 
L 243.821728 174.241262 
L 244.203015 174.241262 
L 244.203015 173.595994 
L 246.821648 173.595994 
L 246.821648 172.950726 
L 248.479195 172.950726 
L 248.479195 172.305458 
L 257.075706 172.305458 
L 257.075706 171.66019 
L 257.456993 171.66019 
L 257.55805 170.369654 
L 257.939337 170.369654 
L 257.939337 169.724385 
L 260.075626 169.724385 
L 260.075626 169.079117 
L 260.55797 169.079117 
L 260.55797 168.433849 
L 261.021663 168.433849 
L 261.021663 167.788581 
L 261.733173 167.788581 
L 261.733173 167.143313 
L 262.215517 167.143313 
L 262.215517 166.498045 
L 262.782492 166.498045 
L 262.782492 165.852776 
L 263.383268 165.852776 
L 263.383268 165.207508 
L 263.764556 165.207508 
L 263.764556 164.56224 
L 264.076781 164.56224 
L 264.076781 163.916972 
L 264.858877 163.916972 
L 264.858877 163.271704 
L 265.581897 163.271704 
L 265.581897 162.626436 
L 265.836403 162.626436 
L 265.836403 161.981168 
L 265.957608 161.981168 
L 265.957608 161.335899 
L 266.153167 161.335899 
L 266.153167 160.690631 
L 266.383189 160.690631 
L 266.4264 159.400095 
L 266.658869 159.400095 
L 266.658869 158.754827 
L 266.807687 158.754827 
L 266.807687 158.109559 
L 267.658282 158.109559 
L 267.658282 157.46429 
L 267.912789 157.46429 
L 267.912789 156.819022 
L 268.033994 156.819022 
L 268.040736 155.528486 
L 268.481934 155.528486 
L 268.481934 154.883218 
L 268.735254 154.883218 
L 268.735254 154.23795 
L 268.863222 154.23795 
L 268.966584 152.947413 
L 269.42632 152.947413 
L 269.42632 152.302145 
L 271.083868 152.302145 
L 271.083868 151.656877 
L 271.481855 151.656877 
L 271.481855 151.011609 
L 273.139402 151.011609 
L 273.139402 150.366341 
L 273.457385 150.366341 
L 273.457385 149.721073 
L 274.751674 149.721073 
L 274.751674 149.075804 
L 276.256789 149.075804 
L 276.256789 148.430536 
L 276.511296 148.430536 
L 276.511296 147.785268 
L 276.632501 147.785268 
L 276.632501 147.14 
L 277.333762 147.14 
L 277.333762 146.494732 
L 277.812102 146.494732 
L 277.812102 145.849464 
L 279.509682 145.849464 
L 279.509682 145.204196 
L 279.626526 145.204196 
L 279.626526 144.558927 
L 279.888488 144.558927 
L 279.888488 143.913659 
L 280.509018 143.913659 
L 280.509018 143.268391 
L 281.586068 143.268391 
L 281.586068 142.623123 
L 281.702911 142.623123 
L 281.702911 141.977855 
L 282.585404 141.977855 
L 282.585404 141.332587 
L 286.711363 141.332587 
L 286.711363 140.687318 
L 287.193707 140.687318 
L 287.193707 140.04205 
L 288.005652 140.04205 
L 288.005652 139.396782 
L 288.486995 139.396782 
L 288.487996 138.106246 
L 289.510768 138.106246 
L 289.510768 137.460978 
L 289.765274 137.460978 
L 289.765274 136.81571 
L 289.886479 136.81571 
L 289.993112 135.525173 
L 290.184575 135.525173 
L 290.247618 134.234637 
L 290.301419 134.234637 
L 290.368823 132.944101 
L 290.58774 132.944101 
L 290.58774 132.298832 
L 291.070084 132.298832 
L 291.070084 131.653564 
L 291.183911 131.653564 
L 291.183911 131.008296 
L 291.915407 131.008296 
L 291.915407 130.363028 
L 293.018925 130.363028 
L 293.018925 129.71776 
L 294.213692 129.71776 
L 294.313215 128.427224 
L 295.81833 128.427224 
L 295.81833 127.781955 
L 296.062057 127.781955 
L 296.072836 126.491419 
L 296.194042 126.491419 
L 296.194042 125.846151 
L 296.895302 125.846151 
L 296.895302 125.200883 
L 297.356346 125.200883 
L 297.356346 124.555615 
L 298.117591 124.555615 
L 298.117591 123.910346 
L 298.861462 123.910346 
L 298.861462 123.265078 
L 299.115968 123.265078 
L 299.115968 122.61981 
L 299.237174 122.61981 
L 299.237174 121.974542 
L 299.411881 121.974542 
L 299.411881 121.329274 
L 299.860328 121.329274 
L 299.938434 120.038738 
L 300.916996 120.038738 
L 300.916996 119.393469 
L 301.171503 119.393469 
L 301.171503 118.748201 
L 301.292708 118.748201 
L 301.292708 118.102933 
L 301.740973 118.102933 
L 301.740973 117.457665 
L 301.993968 117.457665 
L 301.993968 116.812397 
L 302.158613 116.812397 
L 302.223317 115.521861 
L 303.438553 115.521861 
L 303.438553 114.876592 
L 303.555397 114.876592 
L 303.555397 114.231324 
L 303.920897 114.231324 
L 303.920897 113.586056 
L 304.037741 113.586056 
L 304.037741 112.940788 
L 304.437889 112.940788 
L 304.437889 112.29552 
L 304.920233 112.29552 
L 304.920233 111.650252 
L 307.676165 111.650252 
L 307.676165 111.004983 
L 308.048536 111.004983 
L 308.048536 110.359715 
L 308.532586 110.359715 
L 308.532586 109.714447 
L 309.383909 109.714447 
L 309.383909 109.069179 
L 309.674934 109.069179 
L 309.771936 107.133375 
L 309.862157 107.133375 
L 309.862959 105.842838 
L 310.467064 105.842838 
L 310.467064 105.19757 
L 310.652104 105.19757 
L 310.745452 103.907034 
L 311.091668 103.907034 
L 311.091668 103.261766 
L 312.789248 103.261766 
L 312.789248 102.616497 
L 312.906091 102.616497 
L 312.906091 101.971229 
L 313.147202 101.971229 
L 313.147202 101.325961 
L 313.788584 101.325961 
L 313.788584 100.680693 
L 314.844782 100.680693 
L 314.844782 100.035425 
L 314.961625 100.035425 
L 314.961625 99.390157 
L 315.621086 99.390157 
L 315.621086 98.744889 
L 315.844118 98.744889 
L 315.844118 98.09962 
L 316.300761 98.09962 
L 316.300761 97.454352 
L 316.477507 97.454352 
L 316.477507 96.809084 
L 316.682048 96.809084 
L 316.682048 96.163816 
L 317.248592 96.163816 
L 317.32883 94.228011 
L 317.619855 94.228011 
L 317.716857 91.646939 
L 317.807078 91.646939 
L 317.807078 91.001671 
L 318.411985 91.001671 
L 318.411985 90.356403 
L 318.597025 90.356403 
L 318.597025 89.711134 
L 319.300681 89.711134 
L 319.300681 89.065866 
L 320.248512 89.065866 
L 320.321273 87.77533 
L 320.958229 87.77533 
L 320.958229 87.130062 
L 321.18328 87.130062 
L 321.18328 86.484794 
L 321.564568 86.484794 
L 321.564568 85.839525 
L 321.906059 85.839525 
L 321.97882 84.548989 
L 322.455691 84.548989 
L 322.455691 83.903721 
L 323.422317 83.903721 
L 323.422317 83.258453 
L 323.803604 83.258453 
L 323.803604 82.613185 
L 324.155003 82.613185 
L 324.183201 81.322648 
L 325.192011 81.322648 
L 325.192011 80.67738 
L 325.840748 80.67738 
L 325.840748 80.032112 
L 326.422237 80.032112 
L 326.422237 79.386844 
L 328.079784 79.386844 
L 328.079784 78.741576 
L 345.936418 78.741576 
L 345.936418 78.096308 
L 346.884249 78.096308 
L 346.957009 76.805771 
L 347.230707 76.805771 
L 347.230707 76.160503 
L 348.178538 76.160503 
L 348.251299 74.869967 
L 348.735823 74.869967 
L 348.735823 74.224699 
L 348.990329 74.224699 
L 348.990329 73.579431 
L 349.111534 73.579431 
L 349.111534 72.934162 
L 349.683654 72.934162 
L 349.756414 71.643626 
L 349.812795 71.643626 
L 349.812795 70.998358 
L 349.93816 70.998358 
L 350.010921 69.707822 
L 350.059365 69.707822 
L 350.132126 68.417285 
L 350.760626 68.417285 
L 350.833387 66.481481 
L 352.113227 66.481481 
L 352.113227 65.836213 
L 353.057974 65.836213 
L 353.057974 65.190945 
L 353.349435 65.190945 
L 353.349435 64.545676 
L 353.618342 64.545676 
L 353.618342 63.900408 
L 353.872849 63.900408 
L 353.872849 63.25514 
L 353.994054 63.25514 
L 353.994054 62.609872 
L 354.352263 62.609872 
L 354.352263 61.964604 
L 354.695314 61.964604 
L 354.695314 61.319336 
L 355.048748 61.319336 
L 355.048748 60.674068 
L 355.64772 60.674068 
L 355.64772 60.028799 
L 355.857379 60.028799 
L 355.857379 59.383531 
L 356.085755 59.383531 
L 356.111885 58.092995 
L 356.23309 58.092995 
L 356.23309 57.447727 
L 356.934351 57.447727 
L 356.934351 56.802459 
L 357.347033 56.802459 
L 357.347033 56.15719 
L 358.38404 56.15719 
L 358.38404 55.511922 
L 360.966029 55.511922 
L 360.966029 54.866654 
L 361.913859 54.866654 
L 361.98662 53.576118 
L 362.663609 53.576118 
L 362.663609 52.93085 
L 362.780452 52.93085 
L 362.780452 52.285582 
L 363.61144 52.285582 
L 363.6842 50.349777 
L 363.728283 50.349777 
L 363.801043 49.059241 
L 364.610775 49.059241 
L 364.683536 47.768704 
L 365.848548 47.768704 
L 365.848548 47.123436 
L 367.546128 47.123436 
L 367.546128 46.478168 
L 367.662971 46.478168 
L 367.662971 45.8329 
L 368.087584 45.8329 
L 368.087584 45.187632 
L 368.545464 45.187632 
L 368.545464 44.542364 
L 369.110192 44.542364 
L 369.110192 43.897096 
L 369.785164 43.897096 
L 369.785164 43.251827 
L 369.902008 43.251827 
L 369.966613 41.961291 
L 370.7845 41.961291 
L 370.817937 40.025487 
L 371.108962 40.025487 
L 371.205964 38.73495 
L 371.296185 38.73495 
L 371.296185 38.089682 
L 371.665926 38.089682 
L 371.665926 37.444414 
L 371.846512 37.444414 
L 371.901092 36.153878 
L 372.086131 36.153878 
L 372.086131 35.50861 
L 372.517249 35.50861 
L 372.517249 34.863341 
L 372.702933 34.863341 
L 372.808275 33.572805 
L 372.905276 33.572805 
L 372.995497 32.282269 
L 373.554257 32.282269 
L 373.600405 30.991732 
L 373.785444 30.991732 
L 373.845282 29.701196 
L 373.942284 29.701196 
L 374.032505 28.41066 
L 374.637412 28.41066 
L 374.637412 27.765392 
L 374.822451 27.765392 
L 374.822451 27.120124 
L 453.192 27.120124 
L 453.192 27.120124 
" clip-path="url(#p9783787b3d)" style="fill: none; stroke: #bf00bf; stroke-width: 3; stroke-linecap: square"/>
   </g>
   <g id="line2d_58">
    <path clip-path="url(#p9783787b3d)" style="fill: none; stroke: #bf00bf; stroke-width: 3; stroke-linecap: square"/>
   </g>
   <g id="line2d_59">
    <path d="M 36.023739 260.19098 
L 34.16 260.19098 
L 453.192 260.19098 
L 461.8 260.19098 
" clip-path="url(#p9783787b3d)" style="fill: none; stroke: #ff0000; stroke-width: 3; stroke-linecap: square"/>
   </g>
   <g id="line2d_60">
    <path d="M 243.676 291.28 
L 243.676 3 
" clip-path="url(#p9783787b3d)" style="fill: none; stroke: #000000; stroke-width: 1.5; stroke-linecap: square"/>
   </g>
   <g id="line2d_61">
    <path d="M 34.16 147.14 
L 453.192 147.14 
" clip-path="url(#p9783787b3d)" style="fill: none; stroke-dasharray: 2,3.3; stroke-dashoffset: 0; stroke: #000000; stroke-width: 2"/>
   </g>
   <g id="patch_3">
    <path d="M 34.16 291.28 
L 34.16 3 
" style="fill: none; stroke: #000000; stroke-width: 0.8; stroke-linejoin: miter; stroke-linecap: square"/>
   </g>
   <g id="patch_4">
    <path d="M 453.192 291.28 
L 453.192 3 
" style="fill: none; stroke: #000000; stroke-width: 0.8; stroke-linejoin: miter; stroke-linecap: square"/>
   </g>
   <g id="patch_5">
    <path d="M 34.16 291.28 
L 453.192 291.28 
" style="fill: none; stroke: #000000; stroke-width: 0.8; stroke-linejoin: miter; stroke-linecap: square"/>
   </g>
   <g id="patch_6">
    <path d="M 34.16 3 
L 453.192 3 
" style="fill: none; stroke: #000000; stroke-width: 0.8; stroke-linejoin: miter; stroke-linecap: square"/>
   </g>
   <g id="text_5">
    <!-- f15-f19,40-D -->
    <g transform="translate(318.19261 285.5144) scale(0.2 -0.2)">
     <defs>
      <path id="DejaVuSans-35" d="M 691 4666 
L 3169 4666 
L 3169 4134 
L 1269 4134 
L 1269 2991 
Q 1406 3038 1543 3061 
Q 1681 3084 1819 3084 
Q 2600 3084 3056 2656 
Q 3513 2228 3513 1497 
Q 3513 744 3044 326 
Q 2575 -91 1722 -91 
Q 1428 -91 1123 -41 
Q 819 9 494 109 
L 494 744 
Q 775 591 1075 516 
Q 1375 441 1709 441 
Q 2250 441 2565 725 
Q 2881 1009 2881 1497 
Q 2881 1984 2565 2268 
Q 2250 2553 1709 2553 
Q 1456 2553 1204 2497 
Q 953 2441 691 2322 
L 691 4666 
z
" transform="scale(0.015625)"/>
      <path id="DejaVuSans-39" d="M 703 97 
L 703 672 
Q 941 559 1184 500 
Q 1428 441 1663 441 
Q 2288 441 2617 861 
Q 2947 1281 2994 2138 
Q 2813 1869 2534 1725 
Q 2256 1581 1919 1581 
Q 1219 1581 811 2004 
Q 403 2428 403 3163 
Q 403 3881 828 4315 
Q 1253 4750 1959 4750 
Q 2769 4750 3195 4129 
Q 3622 3509 3622 2328 
Q 3622 1225 3098 567 
Q 2575 -91 1691 -91 
Q 1453 -91 1209 -44 
Q 966 3 703 97 
z
M 1959 2075 
Q 2384 2075 2632 2365 
Q 2881 2656 2881 3163 
Q 2881 3666 2632 3958 
Q 2384 4250 1959 4250 
Q 1534 4250 1286 3958 
Q 1038 3666 1038 3163 
Q 1038 2656 1286 2365 
Q 1534 2075 1959 2075 
z
" transform="scale(0.015625)"/>
      <path id="DejaVuSans-2c" d="M 750 794 
L 1409 794 
L 1409 256 
L 897 -744 
L 494 -744 
L 750 256 
L 750 794 
z
" transform="scale(0.015625)"/>
      <path id="DejaVuSans-34" d="M 2419 4116 
L 825 1625 
L 2419 1625 
L 2419 4116 
z
M 2253 4666 
L 3047 4666 
L 3047 1625 
L 3713 1625 
L 3713 1100 
L 3047 1100 
L 3047 0 
L 2419 0 
L 2419 1100 
L 313 1100 
L 313 1709 
L 2253 4666 
z
" transform="scale(0.015625)"/>
      <path id="DejaVuSans-44" d="M 1259 4147 
L 1259 519 
L 2022 519 
Q 2988 519 3436 956 
Q 3884 1394 3884 2338 
Q 3884 3275 3436 3711 
Q 2988 4147 2022 4147 
L 1259 4147 
z
M 628 4666 
L 1925 4666 
Q 3281 4666 3915 4102 
Q 4550 3538 4550 2338 
Q 4550 1131 3912 565 
Q 3275 0 1925 0 
L 628 0 
L 628 4666 
z
" transform="scale(0.015625)"/>
     </defs>
     <use xlink:href="#DejaVuSans-66"/>
     <use xlink:href="#DejaVuSans-31" x="35.205078"/>
     <use xlink:href="#DejaVuSans-35" x="98.828125"/>
     <use xlink:href="#DejaVuSans-2d" x="162.451172"/>
     <use xlink:href="#DejaVuSans-66" x="198.535156"/>
     <use xlink:href="#DejaVuSans-31" x="233.740234"/>
     <use xlink:href="#DejaVuSans-39" x="297.363281"/>
     <use xlink:href="#DejaVuSans-2c" x="360.986328"/>
     <use xlink:href="#DejaVuSans-34" x="392.773438"/>
     <use xlink:href="#DejaVuSans-30" x="456.396484"/>
     <use xlink:href="#DejaVuSans-2d" x="520.019531"/>
     <use xlink:href="#DejaVuSans-44" x="556.103516"/>
    </g>
   </g>
   <g id="text_6">
    <!-- v2.6.3 -->
    <g style="fill: #808080" transform="translate(227.99475 286.317512) scale(0.1 -0.1)">
     <defs>
      <path id="DejaVuSans-32" d="M 1228 531 
L 3431 531 
L 3431 0 
L 469 0 
L 469 531 
Q 828 903 1448 1529 
Q 2069 2156 2228 2338 
Q 2531 2678 2651 2914 
Q 2772 3150 2772 3378 
Q 2772 3750 2511 3984 
Q 2250 4219 1831 4219 
Q 1534 4219 1204 4116 
Q 875 4013 500 3803 
L 500 4441 
Q 881 4594 1212 4672 
Q 1544 4750 1819 4750 
Q 2544 4750 2975 4387 
Q 3406 4025 3406 3419 
Q 3406 3131 3298 2873 
Q 3191 2616 2906 2266 
Q 2828 2175 2409 1742 
Q 1991 1309 1228 531 
z
" transform="scale(0.015625)"/>
      <path id="DejaVuSans-2e" d="M 684 794 
L 1344 794 
L 1344 0 
L 684 0 
L 684 794 
z
" transform="scale(0.015625)"/>
      <path id="DejaVuSans-36" d="M 2113 2584 
Q 1688 2584 1439 2293 
Q 1191 2003 1191 1497 
Q 1191 994 1439 701 
Q 1688 409 2113 409 
Q 2538 409 2786 701 
Q 3034 994 3034 1497 
Q 3034 2003 2786 2293 
Q 2538 2584 2113 2584 
z
M 3366 4563 
L 3366 3988 
Q 3128 4100 2886 4159 
Q 2644 4219 2406 4219 
Q 1781 4219 1451 3797 
Q 1122 3375 1075 2522 
Q 1259 2794 1537 2939 
Q 1816 3084 2150 3084 
Q 2853 3084 3261 2657 
Q 3669 2231 3669 1497 
Q 3669 778 3244 343 
Q 2819 -91 2113 -91 
Q 1303 -91 875 529 
Q 447 1150 447 2328 
Q 447 3434 972 4092 
Q 1497 4750 2381 4750 
Q 2619 4750 2861 4703 
Q 3103 4656 3366 4563 
z
" transform="scale(0.015625)"/>
      <path id="DejaVuSans-33" d="M 2597 2516 
Q 3050 2419 3304 2112 
Q 3559 1806 3559 1356 
Q 3559 666 3084 287 
Q 2609 -91 1734 -91 
Q 1441 -91 1130 -33 
Q 819 25 488 141 
L 488 750 
Q 750 597 1062 519 
Q 1375 441 1716 441 
Q 2309 441 2620 675 
Q 2931 909 2931 1356 
Q 2931 1769 2642 2001 
Q 2353 2234 1838 2234 
L 1294 2234 
L 1294 2753 
L 1863 2753 
Q 2328 2753 2575 2939 
Q 2822 3125 2822 3475 
Q 2822 3834 2567 4026 
Q 2313 4219 1838 4219 
Q 1578 4219 1281 4162 
Q 984 4106 628 3988 
L 628 4550 
Q 988 4650 1302 4700 
Q 1616 4750 1894 4750 
Q 2613 4750 3031 4423 
Q 3450 4097 3450 3541 
Q 3450 3153 3228 2886 
Q 3006 2619 2597 2516 
z
" transform="scale(0.015625)"/>
     </defs>
     <use xlink:href="#DejaVuSans-76"/>
     <use xlink:href="#DejaVuSans-32" x="59.179688"/>
     <use xlink:href="#DejaVuSans-2e" x="122.802734"/>
     <use xlink:href="#DejaVuSans-36" x="154.589844"/>
     <use xlink:href="#DejaVuSans-2e" x="218.212891"/>
     <use xlink:href="#DejaVuSans-33" x="250"/>
    </g>
   </g>
   <g id="legend_1">
    <g id="patch_7">
     <path d="M 48.16 136.425 
L 177.381875 136.425 
Q 181.381875 136.425 181.381875 132.425 
L 181.381875 17 
Q 181.381875 13 177.381875 13 
L 48.16 13 
Q 44.16 13 44.16 17 
L 44.16 132.425 
Q 44.16 136.425 48.16 136.425 
z
" style="fill: #ffffff; opacity: 0.2; stroke: #cccccc; stroke-linejoin: miter"/>
    </g>
    <g id="line2d_62">
     <path d="M 52.16 29.196875 
L 72.16 29.196875 
L 92.16 29.196875 
" style="fill: none; stroke: #000000; stroke-width: 3; stroke-linecap: square"/>
    </g>
    <g id="text_7">
     <!-- 1: 4/3 -->
     <g transform="translate(108.16 36.196875) scale(0.2 -0.2)">
      <defs>
       <path id="DejaVuSans-3a" d="M 750 794 
L 1409 794 
L 1409 0 
L 750 0 
L 750 794 
z
M 750 3309 
L 1409 3309 
L 1409 2516 
L 750 2516 
L 750 3309 
z
" transform="scale(0.015625)"/>
       <path id="DejaVuSans-2f" d="M 1625 4666 
L 2156 4666 
L 531 -594 
L 0 -594 
L 1625 4666 
z
" transform="scale(0.015625)"/>
      </defs>
      <use xlink:href="#DejaVuSans-31"/>
      <use xlink:href="#DejaVuSans-3a" x="63.623047"/>
      <use xlink:href="#DejaVuSans-20" x="97.314453"/>
      <use xlink:href="#DejaVuSans-34" x="129.101562"/>
      <use xlink:href="#DejaVuSans-2f" x="192.724609"/>
      <use xlink:href="#DejaVuSans-33" x="226.416016"/>
     </g>
    </g>
    <g id="line2d_63">
     <path d="M 52.16 58.553125 
L 72.16 58.553125 
L 92.16 58.553125 
" style="fill: none; stroke: #00bfbf; stroke-width: 3; stroke-linecap: square"/>
    </g>
    <g id="text_8">
     <!-- -1: 3/2 -->
     <g transform="translate(108.16 65.553125) scale(0.2 -0.2)">
      <use xlink:href="#DejaVuSans-2d"/>
      <use xlink:href="#DejaVuSans-31" x="36.083984"/>
      <use xlink:href="#DejaVuSans-3a" x="99.707031"/>
      <use xlink:href="#DejaVuSans-20" x="133.398438"/>
      <use xlink:href="#DejaVuSans-33" x="165.185547"/>
      <use xlink:href="#DejaVuSans-2f" x="228.808594"/>
      <use xlink:href="#DejaVuSans-32" x="262.5"/>
     </g>
    </g>
    <g id="line2d_64">
     <path d="M 52.16 87.909375 
L 72.16 87.909375 
L 92.16 87.909375 
" style="fill: none; stroke: #bf00bf; stroke-width: 3; stroke-linecap: square"/>
    </g>
    <g id="text_9">
     <!-- -4: 3/2 -->
     <g transform="translate(108.16 94.909375) scale(0.2 -0.2)">
      <use xlink:href="#DejaVuSans-2d"/>
      <use xlink:href="#DejaVuSans-34" x="36.083984"/>
      <use xlink:href="#DejaVuSans-3a" x="99.707031"/>
      <use xlink:href="#DejaVuSans-20" x="133.398438"/>
      <use xlink:href="#DejaVuSans-33" x="165.185547"/>
      <use xlink:href="#DejaVuSans-2f" x="228.808594"/>
      <use xlink:href="#DejaVuSans-32" x="262.5"/>
     </g>
    </g>
    <g id="line2d_65">
     <path d="M 52.16 117.265625 
L 72.16 117.265625 
L 92.16 117.265625 
" style="fill: none; stroke: #ff0000; stroke-width: 3; stroke-linecap: square"/>
    </g>
    <g id="text_10">
     <!-- -8: 1/2 -->
     <g transform="translate(108.16 124.265625) scale(0.2 -0.2)">
      <defs>
       <path id="DejaVuSans-38" d="M 2034 2216 
Q 1584 2216 1326 1975 
Q 1069 1734 1069 1313 
Q 1069 891 1326 650 
Q 1584 409 2034 409 
Q 2484 409 2743 651 
Q 3003 894 3003 1313 
Q 3003 1734 2745 1975 
Q 2488 2216 2034 2216 
z
M 1403 2484 
Q 997 2584 770 2862 
Q 544 3141 544 3541 
Q 544 4100 942 4425 
Q 1341 4750 2034 4750 
Q 2731 4750 3128 4425 
Q 3525 4100 3525 3541 
Q 3525 3141 3298 2862 
Q 3072 2584 2669 2484 
Q 3125 2378 3379 2068 
Q 3634 1759 3634 1313 
Q 3634 634 3220 271 
Q 2806 -91 2034 -91 
Q 1263 -91 848 271 
Q 434 634 434 1313 
Q 434 1759 690 2068 
Q 947 2378 1403 2484 
z
M 1172 3481 
Q 1172 3119 1398 2916 
Q 1625 2713 2034 2713 
Q 2441 2713 2670 2916 
Q 2900 3119 2900 3481 
Q 2900 3844 2670 4047 
Q 2441 4250 2034 4250 
Q 1625 4250 1398 4047 
Q 1172 3844 1172 3481 
z
" transform="scale(0.015625)"/>
      </defs>
      <use xlink:href="#DejaVuSans-2d"/>
      <use xlink:href="#DejaVuSans-38" x="36.083984"/>
      <use xlink:href="#DejaVuSans-3a" x="99.707031"/>
      <use xlink:href="#DejaVuSans-20" x="133.398438"/>
      <use xlink:href="#DejaVuSans-31" x="165.185547"/>
      <use xlink:href="#DejaVuSans-2f" x="228.808594"/>
      <use xlink:href="#DejaVuSans-32" x="262.5"/>
     </g>
    </g>
   </g>
  </g>
 </g>
 <defs>
  <clipPath id="p9783787b3d">
   <rect x="34.16" y="3" width="419.032" height="288.28"/>
  </clipPath>
 </defs>
</svg>
