<?xml version="1.0" encoding="utf-8" standalone="no"?>
<!DOCTYPE svg PUBLIC "-//W3C//DTD SVG 1.1//EN"
  "http://www.w3.org/Graphics/SVG/1.1/DTD/svg11.dtd">
<svg xmlns:xlink="http://www.w3.org/1999/xlink" width="460.8pt" height="345.6pt" viewBox="0 0 460.8 345.6" xmlns="http://www.w3.org/2000/svg" version="1.1">
 <metadata>
  <rdf:RDF xmlns:dc="http://purl.org/dc/elements/1.1/" xmlns:cc="http://creativecommons.org/ns#" xmlns:rdf="http://www.w3.org/1999/02/22-rdf-syntax-ns#">
   <cc:Work>
    <dc:type rdf:resource="http://purl.org/dc/dcmitype/StillImage"/>
    <dc:date>2024-06-07T14:26:00.978202</dc:date>
    <dc:format>image/svg+xml</dc:format>
    <dc:creator>
     <cc:Agent>
      <dc:title>Matplotlib v3.7.1, https://matplotlib.org/</dc:title>
     </cc:Agent>
    </dc:creator>
   </cc:Work>
  </rdf:RDF>
 </metadata>
 <defs>
  <style type="text/css">*{stroke-linejoin: round; stroke-linecap: butt}</style>
 </defs>
 <g id="figure_1">
  <g id="patch_1">
   <path d="M 0 345.6 
L 460.8 345.6 
L 460.8 0 
L 0 0 
z
" style="fill: #ffffff"/>
  </g>
  <g id="axes_1">
   <g id="patch_2">
    <path d="M 62.208 293.76 
L 460.8 293.76 
L 460.8 3.456 
L 62.208 3.456 
z
" style="fill: #ffffff"/>
   </g>
   <g id="line2d_1"/>
   <g id="line2d_2">
    <path d="M 351.566558 293.76 
L 351.566558 289.927604 
L 351.792828 289.927604 
L 351.792828 286.095208 
L 357.522681 286.095208 
L 357.522681 282.262812 
L 358.790036 282.262812 
L 358.790036 278.430416 
L 368.15706 278.430416 
L 368.15706 274.59802 
L 368.591412 274.59802 
L 368.591412 270.765624 
L 369.051291 270.765624 
L 369.051291 266.933228 
L 369.255707 266.933228 
L 369.255707 263.100832 
L 369.688159 263.100832 
L 369.688159 259.268436 
L 370.247673 259.268436 
L 370.247673 255.43604 
L 370.314167 255.43604 
L 370.314167 251.603644 
L 370.389281 251.603644 
L 370.389281 247.771248 
L 370.421265 247.771248 
L 370.421265 243.938851 
L 370.776069 243.938851 
L 370.776069 240.106455 
L 370.836538 240.106455 
L 370.836538 236.274059 
L 371.054638 236.274059 
L 371.054638 232.441663 
L 371.205483 232.441663 
L 371.205483 228.609267 
L 371.743775 228.609267 
L 371.743775 224.776871 
L 371.843856 224.776871 
L 371.843856 220.944475 
L 371.849471 220.944475 
L 371.849471 217.112079 
L 372.07681 217.112079 
L 372.07681 213.279683 
L 372.130382 213.279683 
L 372.130382 209.447287 
L 372.231199 209.447287 
L 372.231199 205.614891 
L 372.608872 205.614891 
L 372.608872 201.782495 
L 373.090587 201.782495 
L 373.090587 197.950099 
L 373.287347 197.950099 
L 373.287347 194.117703 
L 374.164506 194.117703 
L 374.164506 190.285307 
L 375.436162 190.285307 
L 375.436162 186.452911 
L 376.645762 186.452911 
L 376.645762 182.620515 
L 376.872047 182.620515 
L 376.872047 178.788119 
L 378.002133 178.788119 
L 378.002133 174.955723 
L 378.015672 174.955723 
L 378.015672 171.123327 
L 378.495835 171.123327 
L 378.495835 167.290931 
L 378.828508 167.290931 
L 378.828508 163.458535 
L 379.603762 163.458535 
L 379.603762 159.626139 
L 382.068862 159.626139 
L 382.068862 155.793743 
L 384.288625 155.793743 
L 384.288625 151.961347 
L 385.582164 151.961347 
L 385.582164 148.12895 
L 388.028428 148.12895 
L 388.028428 144.296554 
L 392.018575 144.296554 
L 392.018575 140.464158 
L 392.050226 140.464158 
L 392.050226 136.631762 
L 392.210859 136.631762 
L 392.210859 132.799366 
L 392.357899 132.799366 
L 392.357899 128.96697 
L 392.530938 128.96697 
L 392.530938 125.134574 
L 392.538415 125.134574 
L 392.538415 121.302178 
L 393.117848 121.302178 
L 393.117848 117.469782 
L 393.195185 117.469782 
L 393.195185 113.637386 
L 393.411359 113.637386 
L 393.411359 109.80499 
L 393.771456 109.80499 
L 393.771456 105.972594 
L 393.939985 105.972594 
L 393.939985 102.140198 
L 394.405439 102.140198 
L 394.405439 98.307802 
L 398.575461 98.307802 
L 398.575461 94.475406 
L 399.033754 94.475406 
L 399.033754 90.64301 
L 399.057551 90.64301 
L 399.057551 86.810614 
L 399.479827 86.810614 
L 399.479827 82.978218 
L 399.718057 82.978218 
L 399.718057 79.145822 
L 400.611644 79.145822 
L 400.611644 75.313426 
L 408.910308 75.313426 
L 408.910308 71.48103 
L 410.688025 71.48103 
L 410.688025 67.648634 
L 425.253223 67.648634 
L 425.253223 63.816238 
L 439.828448 63.816238 
L 439.828448 59.983842 
L 439.828448 59.983842 
L 439.828448 59.983842 
L 460.8 59.983842 
" clip-path="url(#p4fb1485f3b)" style="fill: none; stroke: #f5deb3; stroke-width: 1.5; stroke-linecap: square"/>
   </g>
   <g id="line2d_3"/>
   <g id="line2d_4"/>
   <g id="line2d_5">
    <path d="M 342.180109 293.76 
L 342.180109 289.927604 
L 343.509301 289.927604 
L 343.509301 286.095208 
L 345.074249 286.095208 
L 345.074249 282.262812 
L 345.416932 282.262812 
L 345.416932 278.430416 
L 345.786394 278.430416 
L 345.786394 274.59802 
L 351.96695 274.59802 
L 351.96695 270.765624 
L 352.334647 270.765624 
L 352.334647 266.933228 
L 352.826692 266.933228 
L 352.88723 259.268436 
L 353.082483 259.268436 
L 353.082483 255.43604 
L 353.339336 255.43604 
L 353.339336 251.603644 
L 353.466726 251.603644 
L 353.466726 247.771248 
L 353.723818 247.771248 
L 353.820467 240.106455 
L 354.058077 240.106455 
L 354.083146 232.441663 
L 354.521532 232.441663 
L 354.521532 228.609267 
L 357.089543 228.609267 
L 357.089543 224.776871 
L 358.073078 224.776871 
L 358.073078 220.944475 
L 358.863205 220.944475 
L 358.863205 217.112079 
L 359.682242 217.112079 
L 359.682242 213.279683 
L 360.230775 213.279683 
L 360.248637 205.614891 
L 360.468296 205.614891 
L 360.468296 201.782495 
L 361.431682 201.782495 
L 361.431682 197.950099 
L 362.288875 197.950099 
L 362.288875 194.117703 
L 362.743106 194.117703 
L 362.743106 190.285307 
L 367.390911 190.285307 
L 367.390911 186.452911 
L 369.390629 186.452911 
L 369.390629 182.620515 
L 371.102122 182.620515 
L 371.209476 174.955723 
L 371.578503 174.955723 
L 371.677295 163.458535 
L 371.707168 163.458535 
L 371.707168 159.626139 
L 371.862945 159.626139 
L 371.954898 151.961347 
L 372.186113 151.961347 
L 372.186113 148.12895 
L 372.322334 148.12895 
L 372.322334 144.296554 
L 372.573577 144.296554 
L 372.624304 136.631762 
L 372.848515 136.631762 
L 372.867692 128.96697 
L 373.39403 128.96697 
L 373.39403 125.134574 
L 376.036524 125.134574 
L 376.036524 121.302178 
L 377.221979 121.302178 
L 377.221979 117.469782 
L 377.453954 117.469782 
L 377.550878 109.80499 
L 377.609509 109.80499 
L 377.683168 98.307802 
L 377.786361 98.307802 
L 377.893661 90.64301 
L 377.983268 90.64301 
L 377.983268 86.810614 
L 378.359421 86.810614 
L 378.359421 82.978218 
L 378.744523 82.978218 
L 378.744523 79.145822 
L 379.743543 79.145822 
L 379.743543 75.313426 
L 380.234344 75.313426 
L 380.234344 71.48103 
L 380.487815 71.48103 
L 380.487815 67.648634 
L 381.445483 67.648634 
L 381.445483 63.816238 
L 444.770628 63.816238 
L 444.770628 59.983842 
L 446.292226 59.983842 
L 446.292226 56.151446 
L 446.547293 56.151446 
L 446.547293 52.31905 
L 447.089835 52.31905 
L 447.089835 48.486653 
L 461.8 48.486653 
L 461.8 48.486653 
" clip-path="url(#p4fb1485f3b)" style="fill: none; stroke: #f5deb3; stroke-width: 1.5; stroke-linecap: square"/>
   </g>
   <g id="line2d_6">
    <path clip-path="url(#p4fb1485f3b)" style="fill: none; stroke: #f5deb3; stroke-width: 1.5; stroke-linecap: square"/>
   </g>
   <g id="line2d_7"/>
   <g id="line2d_8"/>
   <g id="line2d_9"/>
   <g id="line2d_10"/>
   <g id="line2d_11">
    <path clip-path="url(#p4fb1485f3b)" style="fill: none; stroke: #f5deb3; stroke-width: 1.5; stroke-linecap: square"/>
   </g>
   <g id="line2d_12"/>
   <g id="line2d_13">
    <path d="M 315.709337 293.76 
L 315.709337 289.927604 
L 316.979088 289.927604 
L 316.979088 286.095208 
L 322.655565 286.095208 
L 322.655565 282.262812 
L 323.277114 282.262812 
L 323.277114 278.430416 
L 325.136291 278.430416 
L 325.136291 274.59802 
L 325.879715 274.59802 
L 325.879715 270.765624 
L 327.081939 270.765624 
L 327.081939 266.933228 
L 329.663608 266.933228 
L 329.663608 263.100832 
L 331.801699 263.100832 
L 331.801699 259.268436 
L 333.180762 259.268436 
L 333.180762 255.43604 
L 334.341114 255.43604 
L 334.341114 251.603644 
L 337.533658 251.603644 
L 337.533658 247.771248 
L 338.487141 247.771248 
L 338.487141 243.938851 
L 342.603603 243.938851 
L 342.603603 240.106455 
L 342.654952 240.106455 
L 342.654952 236.274059 
L 388.333281 236.274059 
L 388.333281 232.441663 
L 392.938848 232.441663 
L 392.938848 228.609267 
L 393.213243 228.609267 
L 393.213243 224.776871 
L 393.851527 224.776871 
L 393.851527 220.944475 
L 396.397213 220.944475 
L 396.397213 217.112079 
L 396.994779 217.112079 
L 396.994779 213.279683 
L 397.780881 213.279683 
L 397.780881 209.447287 
L 397.788361 209.447287 
L 397.788361 205.614891 
L 398.387169 205.614891 
L 398.387169 201.782495 
L 398.479952 201.782495 
L 398.479952 197.950099 
L 400.072556 197.950099 
L 400.072556 194.117703 
L 400.236406 194.117703 
L 400.236406 190.285307 
L 400.386406 190.285307 
L 400.386406 186.452911 
L 400.408311 186.452911 
L 400.408311 182.620515 
L 400.683662 182.620515 
L 400.683662 178.788119 
L 400.791731 178.788119 
L 400.791731 174.955723 
L 402.312956 174.955723 
L 402.312956 171.123327 
L 402.533533 171.123327 
L 402.533533 167.290931 
L 402.562321 167.290931 
L 402.562321 163.458535 
L 403.013894 163.458535 
L 403.013894 159.626139 
L 403.126544 159.626139 
L 403.126544 155.793743 
L 406.494769 155.793743 
L 406.494769 151.961347 
L 407.08825 151.961347 
L 407.08825 148.12895 
L 407.372807 148.12895 
L 407.372807 144.296554 
L 407.705539 144.296554 
L 407.705539 140.464158 
L 408.475393 140.464158 
L 408.475393 136.631762 
L 409.572852 136.631762 
L 409.572852 132.799366 
L 410.195918 132.799366 
L 410.195918 128.96697 
L 410.468228 128.96697 
L 410.468228 125.134574 
L 411.467967 125.134574 
L 411.467967 121.302178 
L 411.467967 121.302178 
L 411.467967 121.302178 
L 460.8 121.302178 
" clip-path="url(#p4fb1485f3b)" style="fill: none; stroke: #f5deb3; stroke-width: 1.5; stroke-linecap: square"/>
   </g>
   <g id="line2d_14"/>
   <g id="line2d_15"/>
   <g id="line2d_16"/>
   <g id="line2d_17">
    <path d="M 381.23811 293.76 
L 381.23811 289.927604 
L 384.872371 289.927604 
L 384.872371 286.095208 
L 387.210862 286.095208 
L 387.210862 282.262812 
L 388.532274 282.262812 
L 388.640378 274.59802 
L 390.001362 274.59802 
L 390.001362 270.765624 
L 390.42602 270.765624 
L 390.518211 263.100832 
L 391.310425 263.100832 
L 391.310425 259.268436 
L 391.436629 259.268436 
L 391.436629 255.43604 
L 391.846132 255.43604 
L 391.859954 247.771248 
L 392.197497 247.771248 
L 392.203322 240.106455 
L 392.701561 240.106455 
L 392.701561 236.274059 
L 392.985604 236.274059 
L 392.985604 232.441663 
L 393.228285 232.441663 
L 393.228285 228.609267 
L 393.44894 228.609267 
L 393.44894 224.776871 
L 393.942941 224.776871 
L 393.942941 220.944475 
L 394.941746 220.944475 
L 394.941746 217.112079 
L 395.921609 217.112079 
L 395.921609 213.279683 
L 396.171612 213.279683 
L 396.171612 209.447287 
L 396.483465 209.447287 
L 396.483465 205.614891 
L 396.987458 205.614891 
L 396.987458 201.782495 
L 397.242922 201.782495 
L 397.242922 197.950099 
L 397.606949 197.950099 
L 397.606949 194.117703 
L 400.139304 194.117703 
L 400.169532 186.452911 
L 400.321182 186.452911 
L 400.388091 178.788119 
L 400.492735 178.788119 
L 400.492735 174.955723 
L 401.354766 174.955723 
L 401.411526 163.458535 
L 402.498053 163.458535 
L 402.498053 159.626139 
L 402.699057 159.626139 
L 402.743385 151.961347 
L 403.252515 151.961347 
L 403.252515 148.12895 
L 404.030969 148.12895 
L 404.030969 144.296554 
L 404.488943 144.296554 
L 404.488943 140.464158 
L 405.689349 140.464158 
L 405.689349 136.631762 
L 407.493316 136.631762 
L 407.493316 132.799366 
L 408.385729 132.799366 
L 408.385729 128.96697 
L 409.947643 128.96697 
L 409.947643 125.134574 
L 412.954071 125.134574 
L 412.954071 121.302178 
L 416.638867 121.302178 
L 416.638867 117.469782 
L 417.784301 117.469782 
L 417.784301 113.637386 
L 418.761759 113.637386 
L 418.761759 109.80499 
L 419.014029 109.80499 
L 419.014029 105.972594 
L 420.431856 105.972594 
L 420.431856 102.140198 
L 421.207374 102.140198 
L 421.207374 98.307802 
L 421.925451 98.307802 
L 422.025595 86.810614 
L 422.888293 86.810614 
L 422.888293 82.978218 
L 424.008626 82.978218 
L 424.008626 79.145822 
L 424.220892 79.145822 
L 424.220892 75.313426 
L 425.008838 75.313426 
L 425.099303 67.648634 
L 427.523502 67.648634 
L 427.523502 63.816238 
L 429.712583 63.816238 
L 429.712583 59.983842 
L 430.970051 59.983842 
L 430.970051 56.151446 
L 433.88117 56.151446 
L 433.88117 52.31905 
L 440.027294 52.31905 
L 440.027294 48.486653 
L 440.529373 48.486653 
L 440.539658 40.821861 
L 442.60953 40.821861 
L 442.60953 36.989465 
L 443.607574 36.989465 
L 443.696145 29.324673 
L 443.91894 29.324673 
L 443.960038 21.659881 
L 444.662954 21.659881 
L 444.664297 13.995089 
L 447.121746 13.995089 
L 447.121746 10.162693 
L 447.577183 10.162693 
L 447.577183 6.330297 
L 447.577183 6.330297 
L 460.8 6.330297 
L 460.8 6.330297 
" clip-path="url(#p4fb1485f3b)" style="fill: none; stroke: #f5deb3; stroke-width: 1.5; stroke-linecap: square"/>
   </g>
   <g id="line2d_18">
    <path d="M 352.631116 293.76 
L 352.631116 289.927604 
L 355.972317 289.927604 
L 355.972317 286.095208 
L 357.514731 286.095208 
L 357.514731 282.262812 
L 360.452751 282.262812 
L 360.452751 278.430416 
L 360.963409 278.430416 
L 360.963409 274.59802 
L 360.971453 274.59802 
L 360.971453 270.765624 
L 363.965152 270.765624 
L 363.965152 266.933228 
L 368.35556 266.933228 
L 368.35556 263.100832 
L 368.394657 263.100832 
L 368.394657 259.268436 
L 376.843208 259.268436 
L 376.843208 255.43604 
L 378.415956 255.43604 
L 378.415956 251.603644 
L 379.53812 251.603644 
L 379.53812 247.771248 
L 380.681319 247.771248 
L 380.681319 243.938851 
L 385.352182 243.938851 
L 385.352182 240.106455 
L 386.789467 240.106455 
L 386.789467 236.274059 
L 421.744676 236.274059 
L 421.744676 232.441663 
L 422.858832 232.441663 
L 422.858832 228.609267 
L 423.906685 228.609267 
L 423.906685 224.776871 
L 424.119318 224.776871 
L 424.119318 220.944475 
L 424.356146 220.944475 
L 424.356146 217.112079 
L 424.506135 217.112079 
L 424.506135 213.279683 
L 424.621741 213.279683 
L 424.621741 209.447287 
L 424.637339 209.447287 
L 424.637339 205.614891 
L 424.776985 205.614891 
L 424.776985 201.782495 
L 425.95243 201.782495 
L 425.95243 197.950099 
L 426.705577 197.950099 
L 426.705577 194.117703 
L 427.977682 194.117703 
L 427.977682 190.285307 
L 428.423211 190.285307 
L 428.423211 186.452911 
L 428.855951 186.452911 
L 428.855951 182.620515 
L 430.534877 182.620515 
L 430.534877 178.788119 
L 430.534877 178.788119 
L 430.534877 178.788119 
L 460.8 178.788119 
" clip-path="url(#p4fb1485f3b)" style="fill: none; stroke: #f5deb3; stroke-width: 1.5; stroke-linecap: square"/>
   </g>
   <g id="line2d_19">
    <path d="M 356.986583 293.76 
L 356.986583 289.927604 
L 357.260305 289.927604 
L 357.260305 286.095208 
L 357.378541 286.095208 
L 357.464608 278.430416 
L 357.53063 278.430416 
L 357.53063 274.59802 
L 357.756531 274.59802 
L 357.756531 270.765624 
L 357.946594 270.765624 
L 357.974123 263.100832 
L 358.442447 263.100832 
L 358.442447 259.268436 
L 358.563545 259.268436 
L 358.563545 255.43604 
L 358.699743 255.43604 
L 358.78541 247.771248 
L 359.177505 247.771248 
L 359.177505 243.938851 
L 359.668661 243.938851 
L 359.668661 240.106455 
L 360.218863 240.106455 
L 360.218863 236.274059 
L 364.908178 236.274059 
L 364.908178 232.441663 
L 365.165207 232.441663 
L 365.165207 228.609267 
L 365.689505 228.609267 
L 365.689505 224.776871 
L 365.846346 224.776871 
L 365.846346 220.944475 
L 365.96634 220.944475 
L 365.96634 217.112079 
L 367.54516 217.112079 
L 367.554508 209.447287 
L 367.691381 209.447287 
L 367.691381 205.614891 
L 367.809843 205.614891 
L 367.809843 201.782495 
L 368.043288 201.782495 
L 368.043288 197.950099 
L 368.320708 197.950099 
L 368.320708 194.117703 
L 368.444696 194.117703 
L 368.444696 190.285307 
L 368.90681 190.285307 
L 368.90681 186.452911 
L 370.36193 186.452911 
L 370.36193 182.620515 
L 370.63463 182.620515 
L 370.63463 178.788119 
L 370.856099 178.788119 
L 370.856099 174.955723 
L 372.499028 174.955723 
L 372.499028 171.123327 
L 373.542492 171.123327 
L 373.542492 167.290931 
L 374.023065 167.290931 
L 374.023065 163.458535 
L 374.308107 163.458535 
L 374.31657 155.793743 
L 374.656807 155.793743 
L 374.656807 151.961347 
L 375.0717 151.961347 
L 375.0717 148.12895 
L 375.34754 148.12895 
L 375.354761 140.464158 
L 375.576945 140.464158 
L 375.576945 136.631762 
L 375.775484 136.631762 
L 375.775484 132.799366 
L 376.451382 132.799366 
L 376.451382 128.96697 
L 376.815344 128.96697 
L 376.815344 125.134574 
L 377.722139 125.134574 
L 377.722139 121.302178 
L 389.455978 121.302178 
L 389.455978 117.469782 
L 389.711923 117.469782 
L 389.711923 113.637386 
L 392.321017 113.637386 
L 392.321017 109.80499 
L 392.434289 109.80499 
L 392.434289 105.972594 
L 394.48202 105.972594 
L 394.48202 102.140198 
L 394.700594 102.140198 
L 394.700594 98.307802 
L 394.97091 98.307802 
L 395.04357 90.64301 
L 395.306251 90.64301 
L 395.387838 82.978218 
L 395.785515 82.978218 
L 395.785515 79.145822 
L 396.119925 79.145822 
L 396.119925 75.313426 
L 397.836802 75.313426 
L 397.836802 71.48103 
L 398.995999 71.48103 
L 398.995999 67.648634 
L 399.884457 67.648634 
L 399.987833 59.983842 
L 400.173485 59.983842 
L 400.198044 52.31905 
L 400.290221 52.31905 
L 400.290221 48.486653 
L 401.366015 48.486653 
L 401.366015 44.654257 
L 401.940791 44.654257 
L 401.978916 36.989465 
L 402.091193 36.989465 
L 402.169013 29.324673 
L 402.297405 29.324673 
L 402.297405 25.492277 
L 402.761422 25.492277 
L 402.761422 21.659881 
L 403.297299 21.659881 
L 403.396124 13.995089 
L 405.966282 13.995089 
L 405.966282 10.162693 
L 411.672471 10.162693 
L 411.672471 6.330297 
L 411.672471 6.330297 
L 460.8 6.330297 
L 460.8 6.330297 
" clip-path="url(#p4fb1485f3b)" style="fill: none; stroke: #f5deb3; stroke-width: 1.5; stroke-linecap: square"/>
   </g>
   <g id="line2d_20"/>
   <g id="matplotlib.axis_1">
    <g id="xtick_1">
     <g id="line2d_21">
      <path d="M 62.208 293.76 
L 62.208 3.456 
" clip-path="url(#p4fb1485f3b)" style="fill: none; stroke: #b0b0b0; stroke-width: 0.8; stroke-linecap: square"/>
     </g>
     <g id="line2d_22">
      <defs>
       <path id="m2ea545e763" d="M 0 0 
L 0 3.5 
" style="stroke: #000000; stroke-width: 0.8"/>
      </defs>
      <g>
       <use xlink:href="#m2ea545e763" x="62.208" y="293.76" style="stroke: #000000; stroke-width: 0.8"/>
      </g>
     </g>
     <g id="text_1">
      <!-- 0 -->
      <g transform="translate(55.8455 315.956875) scale(0.2 -0.2)">
       <defs>
        <path id="DejaVuSans-30" d="M 2034 4250 
Q 1547 4250 1301 3770 
Q 1056 3291 1056 2328 
Q 1056 1369 1301 889 
Q 1547 409 2034 409 
Q 2525 409 2770 889 
Q 3016 1369 3016 2328 
Q 3016 3291 2770 3770 
Q 2525 4250 2034 4250 
z
M 2034 4750 
Q 2819 4750 3233 4129 
Q 3647 3509 3647 2328 
Q 3647 1150 3233 529 
Q 2819 -91 2034 -91 
Q 1250 -91 836 529 
Q 422 1150 422 2328 
Q 422 3509 836 4129 
Q 1250 4750 2034 4750 
z
" transform="scale(0.015625)"/>
       </defs>
       <use xlink:href="#DejaVuSans-30"/>
      </g>
     </g>
    </g>
    <g id="xtick_2">
     <g id="line2d_23">
      <path d="M 251.965612 293.76 
L 251.965612 3.456 
" clip-path="url(#p4fb1485f3b)" style="fill: none; stroke: #b0b0b0; stroke-width: 0.8; stroke-linecap: square"/>
     </g>
     <g id="line2d_24">
      <g>
       <use xlink:href="#m2ea545e763" x="251.965612" y="293.76" style="stroke: #000000; stroke-width: 0.8"/>
      </g>
     </g>
     <g id="text_2">
      <!-- 2 -->
      <g transform="translate(245.603112 315.956875) scale(0.2 -0.2)">
       <defs>
        <path id="DejaVuSans-32" d="M 1228 531 
L 3431 531 
L 3431 0 
L 469 0 
L 469 531 
Q 828 903 1448 1529 
Q 2069 2156 2228 2338 
Q 2531 2678 2651 2914 
Q 2772 3150 2772 3378 
Q 2772 3750 2511 3984 
Q 2250 4219 1831 4219 
Q 1534 4219 1204 4116 
Q 875 4013 500 3803 
L 500 4441 
Q 881 4594 1212 4672 
Q 1544 4750 1819 4750 
Q 2544 4750 2975 4387 
Q 3406 4025 3406 3419 
Q 3406 3131 3298 2873 
Q 3191 2616 2906 2266 
Q 2828 2175 2409 1742 
Q 1991 1309 1228 531 
z
" transform="scale(0.015625)"/>
       </defs>
       <use xlink:href="#DejaVuSans-32"/>
      </g>
     </g>
    </g>
    <g id="xtick_3">
     <g id="line2d_25">
      <path d="M 441.723223 293.76 
L 441.723223 3.456 
" clip-path="url(#p4fb1485f3b)" style="fill: none; stroke: #b0b0b0; stroke-width: 0.8; stroke-linecap: square"/>
     </g>
     <g id="line2d_26">
      <g>
       <use xlink:href="#m2ea545e763" x="441.723223" y="293.76" style="stroke: #000000; stroke-width: 0.8"/>
      </g>
     </g>
     <g id="text_3">
      <!-- 4 -->
      <g transform="translate(435.360723 315.956875) scale(0.2 -0.2)">
       <defs>
        <path id="DejaVuSans-34" d="M 2419 4116 
L 825 1625 
L 2419 1625 
L 2419 4116 
z
M 2253 4666 
L 3047 4666 
L 3047 1625 
L 3713 1625 
L 3713 1100 
L 3047 1100 
L 3047 0 
L 2419 0 
L 2419 1100 
L 313 1100 
L 313 1709 
L 2253 4666 
z
" transform="scale(0.015625)"/>
       </defs>
       <use xlink:href="#DejaVuSans-34"/>
      </g>
     </g>
    </g>
    <g id="xtick_4">
     <g id="line2d_27">
      <path d="M 90.769367 293.76 
L 90.769367 3.456 
" clip-path="url(#p4fb1485f3b)" style="fill: none; stroke: #b0b0b0; stroke-width: 0.8; stroke-linecap: square"/>
     </g>
     <g id="line2d_28">
      <defs>
       <path id="ma387a4b47a" d="M 0 0 
L 0 2 
" style="stroke: #000000; stroke-width: 0.6"/>
      </defs>
      <g>
       <use xlink:href="#ma387a4b47a" x="90.769367" y="293.76" style="stroke: #000000; stroke-width: 0.6"/>
      </g>
     </g>
    </g>
    <g id="xtick_5">
     <g id="line2d_29">
      <path d="M 107.476695 293.76 
L 107.476695 3.456 
" clip-path="url(#p4fb1485f3b)" style="fill: none; stroke: #b0b0b0; stroke-width: 0.8; stroke-linecap: square"/>
     </g>
     <g id="line2d_30">
      <g>
       <use xlink:href="#ma387a4b47a" x="107.476695" y="293.76" style="stroke: #000000; stroke-width: 0.6"/>
      </g>
     </g>
    </g>
    <g id="xtick_6">
     <g id="line2d_31">
      <path d="M 119.330733 293.76 
L 119.330733 3.456 
" clip-path="url(#p4fb1485f3b)" style="fill: none; stroke: #b0b0b0; stroke-width: 0.8; stroke-linecap: square"/>
     </g>
     <g id="line2d_32">
      <g>
       <use xlink:href="#ma387a4b47a" x="119.330733" y="293.76" style="stroke: #000000; stroke-width: 0.6"/>
      </g>
     </g>
    </g>
    <g id="xtick_7">
     <g id="line2d_33">
      <path d="M 128.525439 293.76 
L 128.525439 3.456 
" clip-path="url(#p4fb1485f3b)" style="fill: none; stroke: #b0b0b0; stroke-width: 0.8; stroke-linecap: square"/>
     </g>
     <g id="line2d_34">
      <g>
       <use xlink:href="#ma387a4b47a" x="128.525439" y="293.76" style="stroke: #000000; stroke-width: 0.6"/>
      </g>
     </g>
    </g>
    <g id="xtick_8">
     <g id="line2d_35">
      <path d="M 136.038061 293.76 
L 136.038061 3.456 
" clip-path="url(#p4fb1485f3b)" style="fill: none; stroke: #b0b0b0; stroke-width: 0.8; stroke-linecap: square"/>
     </g>
     <g id="line2d_36">
      <g>
       <use xlink:href="#ma387a4b47a" x="136.038061" y="293.76" style="stroke: #000000; stroke-width: 0.6"/>
      </g>
     </g>
    </g>
    <g id="xtick_9">
     <g id="line2d_37">
      <path d="M 142.389893 293.76 
L 142.389893 3.456 
" clip-path="url(#p4fb1485f3b)" style="fill: none; stroke: #b0b0b0; stroke-width: 0.8; stroke-linecap: square"/>
     </g>
     <g id="line2d_38">
      <g>
       <use xlink:href="#ma387a4b47a" x="142.389893" y="293.76" style="stroke: #000000; stroke-width: 0.6"/>
      </g>
     </g>
    </g>
    <g id="xtick_10">
     <g id="line2d_39">
      <path d="M 147.8921 293.76 
L 147.8921 3.456 
" clip-path="url(#p4fb1485f3b)" style="fill: none; stroke: #b0b0b0; stroke-width: 0.8; stroke-linecap: square"/>
     </g>
     <g id="line2d_40">
      <g>
       <use xlink:href="#ma387a4b47a" x="147.8921" y="293.76" style="stroke: #000000; stroke-width: 0.6"/>
      </g>
     </g>
    </g>
    <g id="xtick_11">
     <g id="line2d_41">
      <path d="M 152.74539 293.76 
L 152.74539 3.456 
" clip-path="url(#p4fb1485f3b)" style="fill: none; stroke: #b0b0b0; stroke-width: 0.8; stroke-linecap: square"/>
     </g>
     <g id="line2d_42">
      <g>
       <use xlink:href="#ma387a4b47a" x="152.74539" y="293.76" style="stroke: #000000; stroke-width: 0.6"/>
      </g>
     </g>
    </g>
    <g id="xtick_12">
     <g id="line2d_43">
      <path d="M 185.648172 293.76 
L 185.648172 3.456 
" clip-path="url(#p4fb1485f3b)" style="fill: none; stroke: #b0b0b0; stroke-width: 0.8; stroke-linecap: square"/>
     </g>
     <g id="line2d_44">
      <g>
       <use xlink:href="#ma387a4b47a" x="185.648172" y="293.76" style="stroke: #000000; stroke-width: 0.6"/>
      </g>
     </g>
    </g>
    <g id="xtick_13">
     <g id="line2d_45">
      <path d="M 202.355501 293.76 
L 202.355501 3.456 
" clip-path="url(#p4fb1485f3b)" style="fill: none; stroke: #b0b0b0; stroke-width: 0.8; stroke-linecap: square"/>
     </g>
     <g id="line2d_46">
      <g>
       <use xlink:href="#ma387a4b47a" x="202.355501" y="293.76" style="stroke: #000000; stroke-width: 0.6"/>
      </g>
     </g>
    </g>
    <g id="xtick_14">
     <g id="line2d_47">
      <path d="M 214.209539 293.76 
L 214.209539 3.456 
" clip-path="url(#p4fb1485f3b)" style="fill: none; stroke: #b0b0b0; stroke-width: 0.8; stroke-linecap: square"/>
     </g>
     <g id="line2d_48">
      <g>
       <use xlink:href="#ma387a4b47a" x="214.209539" y="293.76" style="stroke: #000000; stroke-width: 0.6"/>
      </g>
     </g>
    </g>
    <g id="xtick_15">
     <g id="line2d_49">
      <path d="M 223.404245 293.76 
L 223.404245 3.456 
" clip-path="url(#p4fb1485f3b)" style="fill: none; stroke: #b0b0b0; stroke-width: 0.8; stroke-linecap: square"/>
     </g>
     <g id="line2d_50">
      <g>
       <use xlink:href="#ma387a4b47a" x="223.404245" y="293.76" style="stroke: #000000; stroke-width: 0.6"/>
      </g>
     </g>
    </g>
    <g id="xtick_16">
     <g id="line2d_51">
      <path d="M 230.916867 293.76 
L 230.916867 3.456 
" clip-path="url(#p4fb1485f3b)" style="fill: none; stroke: #b0b0b0; stroke-width: 0.8; stroke-linecap: square"/>
     </g>
     <g id="line2d_52">
      <g>
       <use xlink:href="#ma387a4b47a" x="230.916867" y="293.76" style="stroke: #000000; stroke-width: 0.6"/>
      </g>
     </g>
    </g>
    <g id="xtick_17">
     <g id="line2d_53">
      <path d="M 237.268699 293.76 
L 237.268699 3.456 
" clip-path="url(#p4fb1485f3b)" style="fill: none; stroke: #b0b0b0; stroke-width: 0.8; stroke-linecap: square"/>
     </g>
     <g id="line2d_54">
      <g>
       <use xlink:href="#ma387a4b47a" x="237.268699" y="293.76" style="stroke: #000000; stroke-width: 0.6"/>
      </g>
     </g>
    </g>
    <g id="xtick_18">
     <g id="line2d_55">
      <path d="M 242.770905 293.76 
L 242.770905 3.456 
" clip-path="url(#p4fb1485f3b)" style="fill: none; stroke: #b0b0b0; stroke-width: 0.8; stroke-linecap: square"/>
     </g>
     <g id="line2d_56">
      <g>
       <use xlink:href="#ma387a4b47a" x="242.770905" y="293.76" style="stroke: #000000; stroke-width: 0.6"/>
      </g>
     </g>
    </g>
    <g id="xtick_19">
     <g id="line2d_57">
      <path d="M 247.624196 293.76 
L 247.624196 3.456 
" clip-path="url(#p4fb1485f3b)" style="fill: none; stroke: #b0b0b0; stroke-width: 0.8; stroke-linecap: square"/>
     </g>
     <g id="line2d_58">
      <g>
       <use xlink:href="#ma387a4b47a" x="247.624196" y="293.76" style="stroke: #000000; stroke-width: 0.6"/>
      </g>
     </g>
    </g>
    <g id="xtick_20">
     <g id="line2d_59">
      <path d="M 280.526978 293.76 
L 280.526978 3.456 
" clip-path="url(#p4fb1485f3b)" style="fill: none; stroke: #b0b0b0; stroke-width: 0.8; stroke-linecap: square"/>
     </g>
     <g id="line2d_60">
      <g>
       <use xlink:href="#ma387a4b47a" x="280.526978" y="293.76" style="stroke: #000000; stroke-width: 0.6"/>
      </g>
     </g>
    </g>
    <g id="xtick_21">
     <g id="line2d_61">
      <path d="M 297.234307 293.76 
L 297.234307 3.456 
" clip-path="url(#p4fb1485f3b)" style="fill: none; stroke: #b0b0b0; stroke-width: 0.8; stroke-linecap: square"/>
     </g>
     <g id="line2d_62">
      <g>
       <use xlink:href="#ma387a4b47a" x="297.234307" y="293.76" style="stroke: #000000; stroke-width: 0.6"/>
      </g>
     </g>
    </g>
    <g id="xtick_22">
     <g id="line2d_63">
      <path d="M 309.088345 293.76 
L 309.088345 3.456 
" clip-path="url(#p4fb1485f3b)" style="fill: none; stroke: #b0b0b0; stroke-width: 0.8; stroke-linecap: square"/>
     </g>
     <g id="line2d_64">
      <g>
       <use xlink:href="#ma387a4b47a" x="309.088345" y="293.76" style="stroke: #000000; stroke-width: 0.6"/>
      </g>
     </g>
    </g>
    <g id="xtick_23">
     <g id="line2d_65">
      <path d="M 318.283051 293.76 
L 318.283051 3.456 
" clip-path="url(#p4fb1485f3b)" style="fill: none; stroke: #b0b0b0; stroke-width: 0.8; stroke-linecap: square"/>
     </g>
     <g id="line2d_66">
      <g>
       <use xlink:href="#ma387a4b47a" x="318.283051" y="293.76" style="stroke: #000000; stroke-width: 0.6"/>
      </g>
     </g>
    </g>
    <g id="xtick_24">
     <g id="line2d_67">
      <path d="M 325.795673 293.76 
L 325.795673 3.456 
" clip-path="url(#p4fb1485f3b)" style="fill: none; stroke: #b0b0b0; stroke-width: 0.8; stroke-linecap: square"/>
     </g>
     <g id="line2d_68">
      <g>
       <use xlink:href="#ma387a4b47a" x="325.795673" y="293.76" style="stroke: #000000; stroke-width: 0.6"/>
      </g>
     </g>
    </g>
    <g id="xtick_25">
     <g id="line2d_69">
      <path d="M 332.147505 293.76 
L 332.147505 3.456 
" clip-path="url(#p4fb1485f3b)" style="fill: none; stroke: #b0b0b0; stroke-width: 0.8; stroke-linecap: square"/>
     </g>
     <g id="line2d_70">
      <g>
       <use xlink:href="#ma387a4b47a" x="332.147505" y="293.76" style="stroke: #000000; stroke-width: 0.6"/>
      </g>
     </g>
    </g>
    <g id="xtick_26">
     <g id="line2d_71">
      <path d="M 337.649711 293.76 
L 337.649711 3.456 
" clip-path="url(#p4fb1485f3b)" style="fill: none; stroke: #b0b0b0; stroke-width: 0.8; stroke-linecap: square"/>
     </g>
     <g id="line2d_72">
      <g>
       <use xlink:href="#ma387a4b47a" x="337.649711" y="293.76" style="stroke: #000000; stroke-width: 0.6"/>
      </g>
     </g>
    </g>
    <g id="xtick_27">
     <g id="line2d_73">
      <path d="M 342.503002 293.76 
L 342.503002 3.456 
" clip-path="url(#p4fb1485f3b)" style="fill: none; stroke: #b0b0b0; stroke-width: 0.8; stroke-linecap: square"/>
     </g>
     <g id="line2d_74">
      <g>
       <use xlink:href="#ma387a4b47a" x="342.503002" y="293.76" style="stroke: #000000; stroke-width: 0.6"/>
      </g>
     </g>
    </g>
    <g id="xtick_28">
     <g id="line2d_75">
      <path d="M 375.405784 293.76 
L 375.405784 3.456 
" clip-path="url(#p4fb1485f3b)" style="fill: none; stroke: #b0b0b0; stroke-width: 0.8; stroke-linecap: square"/>
     </g>
     <g id="line2d_76">
      <g>
       <use xlink:href="#ma387a4b47a" x="375.405784" y="293.76" style="stroke: #000000; stroke-width: 0.6"/>
      </g>
     </g>
    </g>
    <g id="xtick_29">
     <g id="line2d_77">
      <path d="M 392.113113 293.76 
L 392.113113 3.456 
" clip-path="url(#p4fb1485f3b)" style="fill: none; stroke: #b0b0b0; stroke-width: 0.8; stroke-linecap: square"/>
     </g>
     <g id="line2d_78">
      <g>
       <use xlink:href="#ma387a4b47a" x="392.113113" y="293.76" style="stroke: #000000; stroke-width: 0.6"/>
      </g>
     </g>
    </g>
    <g id="xtick_30">
     <g id="line2d_79">
      <path d="M 403.967151 293.76 
L 403.967151 3.456 
" clip-path="url(#p4fb1485f3b)" style="fill: none; stroke: #b0b0b0; stroke-width: 0.8; stroke-linecap: square"/>
     </g>
     <g id="line2d_80">
      <g>
       <use xlink:href="#ma387a4b47a" x="403.967151" y="293.76" style="stroke: #000000; stroke-width: 0.6"/>
      </g>
     </g>
    </g>
    <g id="xtick_31">
     <g id="line2d_81">
      <path d="M 413.161857 293.76 
L 413.161857 3.456 
" clip-path="url(#p4fb1485f3b)" style="fill: none; stroke: #b0b0b0; stroke-width: 0.8; stroke-linecap: square"/>
     </g>
     <g id="line2d_82">
      <g>
       <use xlink:href="#ma387a4b47a" x="413.161857" y="293.76" style="stroke: #000000; stroke-width: 0.6"/>
      </g>
     </g>
    </g>
    <g id="xtick_32">
     <g id="line2d_83">
      <path d="M 420.674479 293.76 
L 420.674479 3.456 
" clip-path="url(#p4fb1485f3b)" style="fill: none; stroke: #b0b0b0; stroke-width: 0.8; stroke-linecap: square"/>
     </g>
     <g id="line2d_84">
      <g>
       <use xlink:href="#ma387a4b47a" x="420.674479" y="293.76" style="stroke: #000000; stroke-width: 0.6"/>
      </g>
     </g>
    </g>
    <g id="xtick_33">
     <g id="line2d_85">
      <path d="M 427.02631 293.76 
L 427.02631 3.456 
" clip-path="url(#p4fb1485f3b)" style="fill: none; stroke: #b0b0b0; stroke-width: 0.8; stroke-linecap: square"/>
     </g>
     <g id="line2d_86">
      <g>
       <use xlink:href="#ma387a4b47a" x="427.02631" y="293.76" style="stroke: #000000; stroke-width: 0.6"/>
      </g>
     </g>
    </g>
    <g id="xtick_34">
     <g id="line2d_87">
      <path d="M 432.528517 293.76 
L 432.528517 3.456 
" clip-path="url(#p4fb1485f3b)" style="fill: none; stroke: #b0b0b0; stroke-width: 0.8; stroke-linecap: square"/>
     </g>
     <g id="line2d_88">
      <g>
       <use xlink:href="#ma387a4b47a" x="432.528517" y="293.76" style="stroke: #000000; stroke-width: 0.6"/>
      </g>
     </g>
    </g>
    <g id="xtick_35">
     <g id="line2d_89">
      <path d="M 437.381807 293.76 
L 437.381807 3.456 
" clip-path="url(#p4fb1485f3b)" style="fill: none; stroke: #b0b0b0; stroke-width: 0.8; stroke-linecap: square"/>
     </g>
     <g id="line2d_90">
      <g>
       <use xlink:href="#ma387a4b47a" x="437.381807" y="293.76" style="stroke: #000000; stroke-width: 0.6"/>
      </g>
     </g>
    </g>
    <g id="text_4">
     <!-- log10 of FEvals / DIM -->
     <g transform="translate(156.430563 339.313125) scale(0.2 -0.2)">
      <defs>
       <path id="DejaVuSans-6c" d="M 603 4863 
L 1178 4863 
L 1178 0 
L 603 0 
L 603 4863 
z
" transform="scale(0.015625)"/>
       <path id="DejaVuSans-6f" d="M 1959 3097 
Q 1497 3097 1228 2736 
Q 959 2375 959 1747 
Q 959 1119 1226 758 
Q 1494 397 1959 397 
Q 2419 397 2687 759 
Q 2956 1122 2956 1747 
Q 2956 2369 2687 2733 
Q 2419 3097 1959 3097 
z
M 1959 3584 
Q 2709 3584 3137 3096 
Q 3566 2609 3566 1747 
Q 3566 888 3137 398 
Q 2709 -91 1959 -91 
Q 1206 -91 779 398 
Q 353 888 353 1747 
Q 353 2609 779 3096 
Q 1206 3584 1959 3584 
z
" transform="scale(0.015625)"/>
       <path id="DejaVuSans-67" d="M 2906 1791 
Q 2906 2416 2648 2759 
Q 2391 3103 1925 3103 
Q 1463 3103 1205 2759 
Q 947 2416 947 1791 
Q 947 1169 1205 825 
Q 1463 481 1925 481 
Q 2391 481 2648 825 
Q 2906 1169 2906 1791 
z
M 3481 434 
Q 3481 -459 3084 -895 
Q 2688 -1331 1869 -1331 
Q 1566 -1331 1297 -1286 
Q 1028 -1241 775 -1147 
L 775 -588 
Q 1028 -725 1275 -790 
Q 1522 -856 1778 -856 
Q 2344 -856 2625 -561 
Q 2906 -266 2906 331 
L 2906 616 
Q 2728 306 2450 153 
Q 2172 0 1784 0 
Q 1141 0 747 490 
Q 353 981 353 1791 
Q 353 2603 747 3093 
Q 1141 3584 1784 3584 
Q 2172 3584 2450 3431 
Q 2728 3278 2906 2969 
L 2906 3500 
L 3481 3500 
L 3481 434 
z
" transform="scale(0.015625)"/>
       <path id="DejaVuSans-31" d="M 794 531 
L 1825 531 
L 1825 4091 
L 703 3866 
L 703 4441 
L 1819 4666 
L 2450 4666 
L 2450 531 
L 3481 531 
L 3481 0 
L 794 0 
L 794 531 
z
" transform="scale(0.015625)"/>
       <path id="DejaVuSans-20" transform="scale(0.015625)"/>
       <path id="DejaVuSans-66" d="M 2375 4863 
L 2375 4384 
L 1825 4384 
Q 1516 4384 1395 4259 
Q 1275 4134 1275 3809 
L 1275 3500 
L 2222 3500 
L 2222 3053 
L 1275 3053 
L 1275 0 
L 697 0 
L 697 3053 
L 147 3053 
L 147 3500 
L 697 3500 
L 697 3744 
Q 697 4328 969 4595 
Q 1241 4863 1831 4863 
L 2375 4863 
z
" transform="scale(0.015625)"/>
       <path id="DejaVuSans-46" d="M 628 4666 
L 3309 4666 
L 3309 4134 
L 1259 4134 
L 1259 2759 
L 3109 2759 
L 3109 2228 
L 1259 2228 
L 1259 0 
L 628 0 
L 628 4666 
z
" transform="scale(0.015625)"/>
       <path id="DejaVuSans-45" d="M 628 4666 
L 3578 4666 
L 3578 4134 
L 1259 4134 
L 1259 2753 
L 3481 2753 
L 3481 2222 
L 1259 2222 
L 1259 531 
L 3634 531 
L 3634 0 
L 628 0 
L 628 4666 
z
" transform="scale(0.015625)"/>
       <path id="DejaVuSans-76" d="M 191 3500 
L 800 3500 
L 1894 563 
L 2988 3500 
L 3597 3500 
L 2284 0 
L 1503 0 
L 191 3500 
z
" transform="scale(0.015625)"/>
       <path id="DejaVuSans-61" d="M 2194 1759 
Q 1497 1759 1228 1600 
Q 959 1441 959 1056 
Q 959 750 1161 570 
Q 1363 391 1709 391 
Q 2188 391 2477 730 
Q 2766 1069 2766 1631 
L 2766 1759 
L 2194 1759 
z
M 3341 1997 
L 3341 0 
L 2766 0 
L 2766 531 
Q 2569 213 2275 61 
Q 1981 -91 1556 -91 
Q 1019 -91 701 211 
Q 384 513 384 1019 
Q 384 1609 779 1909 
Q 1175 2209 1959 2209 
L 2766 2209 
L 2766 2266 
Q 2766 2663 2505 2880 
Q 2244 3097 1772 3097 
Q 1472 3097 1187 3025 
Q 903 2953 641 2809 
L 641 3341 
Q 956 3463 1253 3523 
Q 1550 3584 1831 3584 
Q 2591 3584 2966 3190 
Q 3341 2797 3341 1997 
z
" transform="scale(0.015625)"/>
       <path id="DejaVuSans-73" d="M 2834 3397 
L 2834 2853 
Q 2591 2978 2328 3040 
Q 2066 3103 1784 3103 
Q 1356 3103 1142 2972 
Q 928 2841 928 2578 
Q 928 2378 1081 2264 
Q 1234 2150 1697 2047 
L 1894 2003 
Q 2506 1872 2764 1633 
Q 3022 1394 3022 966 
Q 3022 478 2636 193 
Q 2250 -91 1575 -91 
Q 1294 -91 989 -36 
Q 684 19 347 128 
L 347 722 
Q 666 556 975 473 
Q 1284 391 1588 391 
Q 1994 391 2212 530 
Q 2431 669 2431 922 
Q 2431 1156 2273 1281 
Q 2116 1406 1581 1522 
L 1381 1569 
Q 847 1681 609 1914 
Q 372 2147 372 2553 
Q 372 3047 722 3315 
Q 1072 3584 1716 3584 
Q 2034 3584 2315 3537 
Q 2597 3491 2834 3397 
z
" transform="scale(0.015625)"/>
       <path id="DejaVuSans-2f" d="M 1625 4666 
L 2156 4666 
L 531 -594 
L 0 -594 
L 1625 4666 
z
" transform="scale(0.015625)"/>
       <path id="DejaVuSans-44" d="M 1259 4147 
L 1259 519 
L 2022 519 
Q 2988 519 3436 956 
Q 3884 1394 3884 2338 
Q 3884 3275 3436 3711 
Q 2988 4147 2022 4147 
L 1259 4147 
z
M 628 4666 
L 1925 4666 
Q 3281 4666 3915 4102 
Q 4550 3538 4550 2338 
Q 4550 1131 3912 565 
Q 3275 0 1925 0 
L 628 0 
L 628 4666 
z
" transform="scale(0.015625)"/>
       <path id="DejaVuSans-49" d="M 628 4666 
L 1259 4666 
L 1259 0 
L 628 0 
L 628 4666 
z
" transform="scale(0.015625)"/>
       <path id="DejaVuSans-4d" d="M 628 4666 
L 1569 4666 
L 2759 1491 
L 3956 4666 
L 4897 4666 
L 4897 0 
L 4281 0 
L 4281 4097 
L 3078 897 
L 2444 897 
L 1241 4097 
L 1241 0 
L 628 0 
L 628 4666 
z
" transform="scale(0.015625)"/>
      </defs>
      <use xlink:href="#DejaVuSans-6c"/>
      <use xlink:href="#DejaVuSans-6f" x="27.783203"/>
      <use xlink:href="#DejaVuSans-67" x="88.964844"/>
      <use xlink:href="#DejaVuSans-31" x="152.441406"/>
      <use xlink:href="#DejaVuSans-30" x="216.064453"/>
      <use xlink:href="#DejaVuSans-20" x="279.6875"/>
      <use xlink:href="#DejaVuSans-6f" x="311.474609"/>
      <use xlink:href="#DejaVuSans-66" x="372.65625"/>
      <use xlink:href="#DejaVuSans-20" x="407.861328"/>
      <use xlink:href="#DejaVuSans-46" x="439.648438"/>
      <use xlink:href="#DejaVuSans-45" x="497.167969"/>
      <use xlink:href="#DejaVuSans-76" x="560.351562"/>
      <use xlink:href="#DejaVuSans-61" x="619.53125"/>
      <use xlink:href="#DejaVuSans-6c" x="680.810547"/>
      <use xlink:href="#DejaVuSans-73" x="708.59375"/>
      <use xlink:href="#DejaVuSans-20" x="760.693359"/>
      <use xlink:href="#DejaVuSans-2f" x="792.480469"/>
      <use xlink:href="#DejaVuSans-20" x="826.171875"/>
      <use xlink:href="#DejaVuSans-44" x="857.958984"/>
      <use xlink:href="#DejaVuSans-49" x="934.960938"/>
      <use xlink:href="#DejaVuSans-4d" x="964.453125"/>
     </g>
    </g>
   </g>
   <g id="matplotlib.axis_2">
    <g id="ytick_1">
     <g id="line2d_91">
      <path d="M 62.208 293.76 
L 460.8 293.76 
" clip-path="url(#p4fb1485f3b)" style="fill: none; stroke: #b0b0b0; stroke-width: 0.8; stroke-linecap: square"/>
     </g>
     <g id="line2d_92">
      <defs>
       <path id="m5453cad755" d="M 0 0 
L -3.5 0 
" style="stroke: #000000; stroke-width: 0.8"/>
      </defs>
      <g>
       <use xlink:href="#m5453cad755" x="62.208" y="293.76" style="stroke: #000000; stroke-width: 0.8"/>
      </g>
     </g>
     <g id="text_5">
      <!-- 0.0 -->
      <g transform="translate(29.763 299.83875) scale(0.16 -0.16)">
       <defs>
        <path id="DejaVuSans-2e" d="M 684 794 
L 1344 794 
L 1344 0 
L 684 0 
L 684 794 
z
" transform="scale(0.015625)"/>
       </defs>
       <use xlink:href="#DejaVuSans-30"/>
       <use xlink:href="#DejaVuSans-2e" x="63.623047"/>
       <use xlink:href="#DejaVuSans-30" x="95.410156"/>
      </g>
     </g>
    </g>
    <g id="ytick_2">
     <g id="line2d_93">
      <path d="M 62.208 236.274059 
L 460.8 236.274059 
" clip-path="url(#p4fb1485f3b)" style="fill: none; stroke: #b0b0b0; stroke-width: 0.8; stroke-linecap: square"/>
     </g>
     <g id="line2d_94">
      <g>
       <use xlink:href="#m5453cad755" x="62.208" y="236.274059" style="stroke: #000000; stroke-width: 0.8"/>
      </g>
     </g>
     <g id="text_6">
      <!-- 0.2 -->
      <g transform="translate(29.763 242.352809) scale(0.16 -0.16)">
       <use xlink:href="#DejaVuSans-30"/>
       <use xlink:href="#DejaVuSans-2e" x="63.623047"/>
       <use xlink:href="#DejaVuSans-32" x="95.410156"/>
      </g>
     </g>
    </g>
    <g id="ytick_3">
     <g id="line2d_95">
      <path d="M 62.208 178.788119 
L 460.8 178.788119 
" clip-path="url(#p4fb1485f3b)" style="fill: none; stroke: #b0b0b0; stroke-width: 0.8; stroke-linecap: square"/>
     </g>
     <g id="line2d_96">
      <g>
       <use xlink:href="#m5453cad755" x="62.208" y="178.788119" style="stroke: #000000; stroke-width: 0.8"/>
      </g>
     </g>
     <g id="text_7">
      <!-- 0.4 -->
      <g transform="translate(29.763 184.866869) scale(0.16 -0.16)">
       <use xlink:href="#DejaVuSans-30"/>
       <use xlink:href="#DejaVuSans-2e" x="63.623047"/>
       <use xlink:href="#DejaVuSans-34" x="95.410156"/>
      </g>
     </g>
    </g>
    <g id="ytick_4">
     <g id="line2d_97">
      <path d="M 62.208 121.302178 
L 460.8 121.302178 
" clip-path="url(#p4fb1485f3b)" style="fill: none; stroke: #b0b0b0; stroke-width: 0.8; stroke-linecap: square"/>
     </g>
     <g id="line2d_98">
      <g>
       <use xlink:href="#m5453cad755" x="62.208" y="121.302178" style="stroke: #000000; stroke-width: 0.8"/>
      </g>
     </g>
     <g id="text_8">
      <!-- 0.6 -->
      <g transform="translate(29.763 127.380928) scale(0.16 -0.16)">
       <defs>
        <path id="DejaVuSans-36" d="M 2113 2584 
Q 1688 2584 1439 2293 
Q 1191 2003 1191 1497 
Q 1191 994 1439 701 
Q 1688 409 2113 409 
Q 2538 409 2786 701 
Q 3034 994 3034 1497 
Q 3034 2003 2786 2293 
Q 2538 2584 2113 2584 
z
M 3366 4563 
L 3366 3988 
Q 3128 4100 2886 4159 
Q 2644 4219 2406 4219 
Q 1781 4219 1451 3797 
Q 1122 3375 1075 2522 
Q 1259 2794 1537 2939 
Q 1816 3084 2150 3084 
Q 2853 3084 3261 2657 
Q 3669 2231 3669 1497 
Q 3669 778 3244 343 
Q 2819 -91 2113 -91 
Q 1303 -91 875 529 
Q 447 1150 447 2328 
Q 447 3434 972 4092 
Q 1497 4750 2381 4750 
Q 2619 4750 2861 4703 
Q 3103 4656 3366 4563 
z
" transform="scale(0.015625)"/>
       </defs>
       <use xlink:href="#DejaVuSans-30"/>
       <use xlink:href="#DejaVuSans-2e" x="63.623047"/>
       <use xlink:href="#DejaVuSans-36" x="95.410156"/>
      </g>
     </g>
    </g>
    <g id="ytick_5">
     <g id="line2d_99">
      <path d="M 62.208 63.816238 
L 460.8 63.816238 
" clip-path="url(#p4fb1485f3b)" style="fill: none; stroke: #b0b0b0; stroke-width: 0.8; stroke-linecap: square"/>
     </g>
     <g id="line2d_100">
      <g>
       <use xlink:href="#m5453cad755" x="62.208" y="63.816238" style="stroke: #000000; stroke-width: 0.8"/>
      </g>
     </g>
     <g id="text_9">
      <!-- 0.8 -->
      <g transform="translate(29.763 69.894988) scale(0.16 -0.16)">
       <defs>
        <path id="DejaVuSans-38" d="M 2034 2216 
Q 1584 2216 1326 1975 
Q 1069 1734 1069 1313 
Q 1069 891 1326 650 
Q 1584 409 2034 409 
Q 2484 409 2743 651 
Q 3003 894 3003 1313 
Q 3003 1734 2745 1975 
Q 2488 2216 2034 2216 
z
M 1403 2484 
Q 997 2584 770 2862 
Q 544 3141 544 3541 
Q 544 4100 942 4425 
Q 1341 4750 2034 4750 
Q 2731 4750 3128 4425 
Q 3525 4100 3525 3541 
Q 3525 3141 3298 2862 
Q 3072 2584 2669 2484 
Q 3125 2378 3379 2068 
Q 3634 1759 3634 1313 
Q 3634 634 3220 271 
Q 2806 -91 2034 -91 
Q 1263 -91 848 271 
Q 434 634 434 1313 
Q 434 1759 690 2068 
Q 947 2378 1403 2484 
z
M 1172 3481 
Q 1172 3119 1398 2916 
Q 1625 2713 2034 2713 
Q 2441 2713 2670 2916 
Q 2900 3119 2900 3481 
Q 2900 3844 2670 4047 
Q 2441 4250 2034 4250 
Q 1625 4250 1398 4047 
Q 1172 3844 1172 3481 
z
" transform="scale(0.015625)"/>
       </defs>
       <use xlink:href="#DejaVuSans-30"/>
       <use xlink:href="#DejaVuSans-2e" x="63.623047"/>
       <use xlink:href="#DejaVuSans-38" x="95.410156"/>
      </g>
     </g>
    </g>
    <g id="ytick_6">
     <g id="line2d_101">
      <path d="M 62.208 6.330297 
L 460.8 6.330297 
" clip-path="url(#p4fb1485f3b)" style="fill: none; stroke: #b0b0b0; stroke-width: 0.8; stroke-linecap: square"/>
     </g>
     <g id="line2d_102">
      <g>
       <use xlink:href="#m5453cad755" x="62.208" y="6.330297" style="stroke: #000000; stroke-width: 0.8"/>
      </g>
     </g>
     <g id="text_10">
      <!-- 1.0 -->
      <g transform="translate(29.763 12.409047) scale(0.16 -0.16)">
       <use xlink:href="#DejaVuSans-31"/>
       <use xlink:href="#DejaVuSans-2e" x="63.623047"/>
       <use xlink:href="#DejaVuSans-30" x="95.410156"/>
      </g>
     </g>
    </g>
    <g id="text_11">
     <!-- proportion of trials -->
     <g transform="translate(21.603625 241.61425) rotate(-90) scale(0.2 -0.2)">
      <defs>
       <path id="DejaVuSans-70" d="M 1159 525 
L 1159 -1331 
L 581 -1331 
L 581 3500 
L 1159 3500 
L 1159 2969 
Q 1341 3281 1617 3432 
Q 1894 3584 2278 3584 
Q 2916 3584 3314 3078 
Q 3713 2572 3713 1747 
Q 3713 922 3314 415 
Q 2916 -91 2278 -91 
Q 1894 -91 1617 61 
Q 1341 213 1159 525 
z
M 3116 1747 
Q 3116 2381 2855 2742 
Q 2594 3103 2138 3103 
Q 1681 3103 1420 2742 
Q 1159 2381 1159 1747 
Q 1159 1113 1420 752 
Q 1681 391 2138 391 
Q 2594 391 2855 752 
Q 3116 1113 3116 1747 
z
" transform="scale(0.015625)"/>
       <path id="DejaVuSans-72" d="M 2631 2963 
Q 2534 3019 2420 3045 
Q 2306 3072 2169 3072 
Q 1681 3072 1420 2755 
Q 1159 2438 1159 1844 
L 1159 0 
L 581 0 
L 581 3500 
L 1159 3500 
L 1159 2956 
Q 1341 3275 1631 3429 
Q 1922 3584 2338 3584 
Q 2397 3584 2469 3576 
Q 2541 3569 2628 3553 
L 2631 2963 
z
" transform="scale(0.015625)"/>
       <path id="DejaVuSans-74" d="M 1172 4494 
L 1172 3500 
L 2356 3500 
L 2356 3053 
L 1172 3053 
L 1172 1153 
Q 1172 725 1289 603 
Q 1406 481 1766 481 
L 2356 481 
L 2356 0 
L 1766 0 
Q 1100 0 847 248 
Q 594 497 594 1153 
L 594 3053 
L 172 3053 
L 172 3500 
L 594 3500 
L 594 4494 
L 1172 4494 
z
" transform="scale(0.015625)"/>
       <path id="DejaVuSans-69" d="M 603 3500 
L 1178 3500 
L 1178 0 
L 603 0 
L 603 3500 
z
M 603 4863 
L 1178 4863 
L 1178 4134 
L 603 4134 
L 603 4863 
z
" transform="scale(0.015625)"/>
       <path id="DejaVuSans-6e" d="M 3513 2113 
L 3513 0 
L 2938 0 
L 2938 2094 
Q 2938 2591 2744 2837 
Q 2550 3084 2163 3084 
Q 1697 3084 1428 2787 
Q 1159 2491 1159 1978 
L 1159 0 
L 581 0 
L 581 3500 
L 1159 3500 
L 1159 2956 
Q 1366 3272 1645 3428 
Q 1925 3584 2291 3584 
Q 2894 3584 3203 3211 
Q 3513 2838 3513 2113 
z
" transform="scale(0.015625)"/>
      </defs>
      <use xlink:href="#DejaVuSans-70"/>
      <use xlink:href="#DejaVuSans-72" x="63.476562"/>
      <use xlink:href="#DejaVuSans-6f" x="102.339844"/>
      <use xlink:href="#DejaVuSans-70" x="163.521484"/>
      <use xlink:href="#DejaVuSans-6f" x="226.998047"/>
      <use xlink:href="#DejaVuSans-72" x="288.179688"/>
      <use xlink:href="#DejaVuSans-74" x="329.292969"/>
      <use xlink:href="#DejaVuSans-69" x="368.501953"/>
      <use xlink:href="#DejaVuSans-6f" x="396.285156"/>
      <use xlink:href="#DejaVuSans-6e" x="457.466797"/>
      <use xlink:href="#DejaVuSans-20" x="520.845703"/>
      <use xlink:href="#DejaVuSans-6f" x="552.632812"/>
      <use xlink:href="#DejaVuSans-66" x="613.814453"/>
      <use xlink:href="#DejaVuSans-20" x="649.019531"/>
      <use xlink:href="#DejaVuSans-74" x="680.806641"/>
      <use xlink:href="#DejaVuSans-72" x="720.015625"/>
      <use xlink:href="#DejaVuSans-69" x="761.128906"/>
      <use xlink:href="#DejaVuSans-61" x="788.912109"/>
      <use xlink:href="#DejaVuSans-6c" x="850.191406"/>
      <use xlink:href="#DejaVuSans-73" x="877.974609"/>
     </g>
    </g>
   </g>
   <g id="line2d_103">
    <path d="M 15.896076 293.76 
L 15.896076 289.927604 
L 26.949985 289.927604 
L 26.949985 286.095208 
L 60.094442 286.095208 
L 60.094442 282.262812 
L 62.208 282.262812 
L 62.208 278.430416 
L 76.801771 278.430416 
L 76.801771 274.59802 
L 78.222785 274.59802 
L 78.222785 270.765624 
L 82.842617 270.765624 
L 82.842617 266.933228 
L 90.769367 266.933228 
L 90.769367 263.100832 
L 100.780047 263.100832 
L 100.780047 259.268436 
L 104.63382 259.268436 
L 104.63382 255.43604 
L 128.730953 255.43604 
L 128.730953 251.603644 
L 130.33917 251.603644 
L 130.33917 247.771248 
L 131.120337 247.771248 
L 131.120337 243.938851 
L 132.452728 243.938851 
L 132.452728 240.106455 
L 138.53612 240.106455 
L 138.53612 236.274059 
L 186.210886 236.274059 
L 186.210886 232.441663 
L 202.321149 232.441663 
L 202.321149 228.609267 
L 203.739833 228.609267 
L 203.739833 224.776871 
L 205.367428 224.776871 
L 205.367428 220.944475 
L 207.964874 220.944475 
L 207.964874 217.112079 
L 209.552151 217.112079 
L 209.552151 213.279683 
L 210.408249 213.279683 
L 210.408249 209.447287 
L 211.550207 209.447287 
L 211.550207 205.614891 
L 214.02887 205.614891 
L 214.02887 201.782495 
L 214.54298 201.782495 
L 214.54298 197.950099 
L 217.117604 197.950099 
L 217.117604 194.117703 
L 223.031718 194.117703 
L 223.031718 190.285307 
L 225.863504 190.285307 
L 225.863504 186.452911 
L 231.884054 186.452911 
L 231.884054 182.620515 
L 238.142343 182.620515 
L 238.142343 178.788119 
L 249.634611 178.788119 
L 249.634611 174.955723 
L 250.497582 174.955723 
L 250.497582 171.123327 
L 251.227648 171.123327 
L 251.227648 167.290931 
L 280.490908 167.290931 
L 280.490908 163.458535 
L 283.204012 163.458535 
L 283.204012 159.626139 
L 284.650461 159.626139 
L 284.650461 155.793743 
L 285.912486 155.793743 
L 285.912486 151.961347 
L 285.953142 151.961347 
L 285.953142 148.12895 
L 286.267998 148.12895 
L 286.267998 144.296554 
L 289.299232 144.296554 
L 289.299232 140.464158 
L 290.152085 140.464158 
L 290.152085 136.631762 
L 290.28643 136.631762 
L 290.28643 132.799366 
L 300.671723 132.799366 
L 300.671723 128.96697 
L 303.727172 128.96697 
L 303.727172 125.134574 
L 310.75889 125.134574 
L 310.75889 121.302178 
L 329.458337 121.302178 
L 329.458337 117.469782 
L 330.764786 117.469782 
L 330.764786 113.637386 
L 331.176661 113.637386 
L 331.176661 109.80499 
L 333.806036 109.80499 
L 333.806036 105.972594 
L 335.805007 105.972594 
L 335.805007 102.140198 
L 335.977015 102.140198 
L 335.977015 98.307802 
L 337.794961 98.307802 
L 337.794961 94.475406 
L 338.287299 94.475406 
L 338.287299 90.64301 
L 338.521194 90.64301 
L 338.521194 86.810614 
L 340.818533 86.810614 
L 340.818533 82.978218 
L 347.244224 82.978218 
L 347.244224 79.145822 
L 351.324257 79.145822 
L 351.324257 75.313426 
L 359.143126 75.313426 
L 359.143126 71.48103 
L 373.659804 71.48103 
L 373.659804 67.648634 
L 381.145459 67.648634 
L 381.145459 63.816238 
L 381.145459 63.816238 
L 381.145459 63.816238 
L 460.8 63.816238 
" clip-path="url(#p4fb1485f3b)" style="fill: none; stroke: #000000; stroke-width: 1.5; stroke-linecap: square"/>
   </g>
   <g id="line2d_104">
    <defs>
     <path id="m985a1575e5" d="M 0 14.142136 
L 8.485281 0 
L 0 -14.142136 
L -8.485281 0 
z
" style="stroke: #000000; stroke-width: 1.5; stroke-linejoin: miter"/>
    </defs>
    <g clip-path="url(#p4fb1485f3b)">
     <use xlink:href="#m985a1575e5" x="104.63382" y="259.268436" style="fill-opacity: 0; stroke: #000000; stroke-width: 1.5; stroke-linejoin: miter"/>
     <use xlink:href="#m985a1575e5" x="209.552151" y="217.112079" style="fill-opacity: 0; stroke: #000000; stroke-width: 1.5; stroke-linejoin: miter"/>
     <use xlink:href="#m985a1575e5" x="286.267998" y="148.12895" style="fill-opacity: 0; stroke: #000000; stroke-width: 1.5; stroke-linejoin: miter"/>
     <use xlink:href="#m985a1575e5" x="337.794961" y="98.307802" style="fill-opacity: 0; stroke: #000000; stroke-width: 1.5; stroke-linejoin: miter"/>
     <use xlink:href="#m985a1575e5" x="381.145459" y="67.648634" style="fill-opacity: 0; stroke: #000000; stroke-width: 1.5; stroke-linejoin: miter"/>
     <use xlink:href="#m985a1575e5" x="381.145459" y="63.816238" style="fill-opacity: 0; stroke: #000000; stroke-width: 1.5; stroke-linejoin: miter"/>
    </g>
   </g>
   <g id="line2d_105">
    <path clip-path="url(#p4fb1485f3b)" style="fill: none; stroke: #000000; stroke-width: 1.5; stroke-linecap: square"/>
    <g clip-path="url(#p4fb1485f3b)">
     <use xlink:href="#m985a1575e5" x="-1" y="581.189703" style="fill-opacity: 0; stroke: #000000; stroke-width: 1.5; stroke-linejoin: miter"/>
     <use xlink:href="#m985a1575e5" x="460.8" y="581.189703" style="fill-opacity: 0; stroke: #000000; stroke-width: 1.5; stroke-linejoin: miter"/>
    </g>
   </g>
   <g id="line2d_106">
    <path d="M -1 286.095208 
L 21.792595 286.095208 
L 21.792595 282.262812 
L 37.573922 282.262812 
L 37.573922 278.430416 
L 48.957037 278.430416 
L 48.957037 274.59802 
L 48.957037 274.59802 
L 48.957037 270.765624 
L 48.957037 270.765624 
L 48.957037 266.933228 
L 57.866584 266.933228 
L 57.866584 263.100832 
L 73.018809 263.100832 
L 73.018809 259.268436 
L 82.213516 259.268436 
L 82.213516 255.43604 
L 101.974488 255.43604 
L 101.974488 251.603644 
L 112.935957 251.603644 
L 112.935957 247.771248 
L 113.828526 247.771248 
L 113.828526 243.938851 
L 127.902677 243.938851 
L 127.902677 240.106455 
L 142.094513 240.106455 
L 142.094513 236.274059 
L 154.537209 236.274059 
L 154.537209 232.441663 
L 157.700296 232.441663 
L 157.700296 228.609267 
L 159.874704 228.609267 
L 159.874704 224.776871 
L 164.254611 224.776871 
L 164.254611 220.944475 
L 169.06941 220.944475 
L 169.06941 217.112079 
L 171.680577 217.112079 
L 171.680577 213.279683 
L 171.752803 213.279683 
L 171.752803 209.447287 
L 173.101591 209.447287 
L 173.101591 205.614891 
L 174.677382 205.614891 
L 174.677382 201.782495 
L 175.542094 201.782495 
L 175.542094 197.950099 
L 176.389032 197.950099 
L 176.389032 194.117703 
L 178.586334 194.117703 
L 178.586334 190.285307 
L 179.373529 190.285307 
L 179.373529 186.452911 
L 186.007151 186.452911 
L 186.007151 182.620515 
L 186.615359 182.620515 
L 186.615359 178.788119 
L 219.878803 178.788119 
L 219.878803 174.955723 
L 219.90124 174.955723 
L 219.90124 171.123327 
L 220.169534 171.123327 
L 220.169534 167.290931 
L 222.739629 167.290931 
L 222.739629 163.458535 
L 222.865063 163.458535 
L 222.865063 159.626139 
L 227.387685 159.626139 
L 227.387685 155.793743 
L 244.051347 155.793743 
L 244.051347 151.961347 
L 345.88668 151.961347 
L 345.88668 148.12895 
L 348.983154 148.12895 
L 348.983154 144.296554 
L 349.624613 144.296554 
L 349.624613 140.464158 
L 351.254898 140.464158 
L 351.254898 136.631762 
L 352.761603 136.631762 
L 352.761603 132.799366 
L 357.913534 132.799366 
L 357.913534 128.96697 
L 361.863938 128.96697 
L 361.863938 125.134574 
L 364.697654 125.134574 
L 364.697654 121.302178 
L 370.036984 121.302178 
L 370.036984 117.469782 
L 373.257513 117.469782 
L 373.257513 113.637386 
L 374.88382 113.637386 
L 374.88382 109.80499 
L 380.093463 109.80499 
L 380.093463 105.972594 
L 380.494644 105.972594 
L 380.494644 102.140198 
L 382.729114 102.140198 
L 382.729114 98.307802 
L 384.513868 98.307802 
L 384.513868 94.475406 
L 386.803922 94.475406 
L 386.803922 90.64301 
L 390.400972 90.64301 
L 390.400972 86.810614 
L 394.260977 86.810614 
L 394.260977 82.978218 
L 395.920982 82.978218 
L 395.920982 79.145822 
L 397.749148 79.145822 
L 397.749148 75.313426 
L 399.047976 75.313426 
L 399.047976 71.48103 
L 400.602982 71.48103 
L 400.602982 67.648634 
L 418.490197 67.648634 
L 418.490197 63.816238 
L 418.490197 63.816238 
L 418.490197 63.816238 
L 460.8 63.816238 
" clip-path="url(#p4fb1485f3b)" style="fill: none; stroke: #000000; stroke-width: 1.5; stroke-linecap: square"/>
   </g>
   <g id="line2d_107">
    <defs>
     <path id="md4256b5946" d="M 0 7.5 
C 1.989023 7.5 3.896849 6.709753 5.303301 5.303301 
C 6.709753 3.896849 7.5 1.989023 7.5 0 
C 7.5 -1.989023 6.709753 -3.896849 5.303301 -5.303301 
C 3.896849 -6.709753 1.989023 -7.5 0 -7.5 
C -1.989023 -7.5 -3.896849 -6.709753 -5.303301 -5.303301 
C -6.709753 -3.896849 -7.5 -1.989023 -7.5 0 
C -7.5 1.989023 -6.709753 3.896849 -5.303301 5.303301 
C -3.896849 6.709753 -1.989023 7.5 0 7.5 
z
" style="stroke: #000000; stroke-width: 1.5"/>
    </defs>
    <g clip-path="url(#p4fb1485f3b)">
     <use xlink:href="#md4256b5946" x="112.935957" y="251.603644" style="fill-opacity: 0; stroke: #000000; stroke-width: 1.5"/>
     <use xlink:href="#md4256b5946" x="164.254611" y="224.776871" style="fill-opacity: 0; stroke: #000000; stroke-width: 1.5"/>
     <use xlink:href="#md4256b5946" x="227.387685" y="159.626139" style="fill-opacity: 0; stroke: #000000; stroke-width: 1.5"/>
     <use xlink:href="#md4256b5946" x="244.051347" y="155.793743" style="fill-opacity: 0; stroke: #000000; stroke-width: 1.5"/>
     <use xlink:href="#md4256b5946" x="397.749148" y="79.145822" style="fill-opacity: 0; stroke: #000000; stroke-width: 1.5"/>
     <use xlink:href="#md4256b5946" x="418.490197" y="63.816238" style="fill-opacity: 0; stroke: #000000; stroke-width: 1.5"/>
    </g>
   </g>
   <g id="line2d_108">
    <path clip-path="url(#p4fb1485f3b)" style="fill: none; stroke: #000000; stroke-width: 1.5; stroke-linecap: square"/>
   </g>
   <g id="line2d_109">
    <path d="M 241.449395 293.76 
L 241.449395 289.927604 
L 242.87379 289.927604 
L 242.87379 286.095208 
L 246.203583 286.095208 
L 246.203583 282.262812 
L 249.350209 282.262812 
L 249.350209 278.430416 
L 249.97116 278.430416 
L 249.97116 274.59802 
L 250.742377 274.59802 
L 250.742377 270.765624 
L 252.446952 270.765624 
L 252.446952 266.933228 
L 253.05337 266.933228 
L 253.05337 263.100832 
L 254.916851 263.100832 
L 254.916851 259.268436 
L 255.38407 259.268436 
L 255.38407 255.43604 
L 257.992408 255.43604 
L 257.992408 251.603644 
L 259.913731 251.603644 
L 259.913731 247.771248 
L 263.100035 247.771248 
L 263.100035 243.938851 
L 273.471253 243.938851 
L 273.471253 240.106455 
L 280.242713 240.106455 
L 280.242713 236.274059 
L 282.271647 236.274059 
L 282.271647 232.441663 
L 295.444777 232.441663 
L 295.444777 228.609267 
L 295.996921 228.609267 
L 295.996921 224.776871 
L 298.952636 224.776871 
L 298.952636 220.944475 
L 300.025413 220.944475 
L 300.025413 217.112079 
L 300.249426 217.112079 
L 300.249426 213.279683 
L 301.039672 213.279683 
L 301.039672 209.447287 
L 302.606253 209.447287 
L 302.606253 205.614891 
L 303.636143 205.614891 
L 303.636143 201.782495 
L 306.746442 201.782495 
L 306.746442 197.950099 
L 307.047916 197.950099 
L 307.047916 194.117703 
L 317.985299 194.117703 
L 317.985299 190.285307 
L 318.623644 190.285307 
L 318.623644 186.452911 
L 328.922343 186.452911 
L 328.922343 182.620515 
L 330.006054 182.620515 
L 330.006054 178.788119 
L 333.256756 178.788119 
L 333.256756 174.955723 
L 334.1425 174.955723 
L 334.1425 171.123327 
L 339.78747 171.123327 
L 339.78747 167.290931 
L 339.927826 167.290931 
L 339.927826 163.458535 
L 342.376904 163.458535 
L 342.376904 159.626139 
L 345.052736 159.626139 
L 345.052736 155.793743 
L 347.522811 155.793743 
L 347.522811 151.961347 
L 348.674903 151.961347 
L 348.674903 148.12895 
L 349.576438 148.12895 
L 349.576438 144.296554 
L 353.448301 144.296554 
L 353.448301 140.464158 
L 354.681112 140.464158 
L 354.681112 136.631762 
L 355.762949 136.631762 
L 355.762949 132.799366 
L 361.294079 132.799366 
L 361.294079 128.96697 
L 375.952236 128.96697 
L 375.952236 125.134574 
L 382.466542 125.134574 
L 382.466542 121.302178 
L 382.466542 121.302178 
L 382.466542 121.302178 
L 460.8 121.302178 
" clip-path="url(#p4fb1485f3b)" style="fill: none; stroke: #00bfbf; stroke-width: 1.5; stroke-linecap: square"/>
   </g>
   <g id="line2d_110">
    <defs>
     <path id="mc8b7b154c8" d="M 0 14.142136 
L 8.485281 0 
L 0 -14.142136 
L -8.485281 0 
z
" style="stroke: #00bfbf; stroke-width: 1.5; stroke-linejoin: miter"/>
    </defs>
    <g clip-path="url(#p4fb1485f3b)">
     <use xlink:href="#mc8b7b154c8" x="280.242713" y="240.106455" style="fill-opacity: 0; stroke: #00bfbf; stroke-width: 1.5; stroke-linejoin: miter"/>
     <use xlink:href="#mc8b7b154c8" x="317.985299" y="194.117703" style="fill-opacity: 0; stroke: #00bfbf; stroke-width: 1.5; stroke-linejoin: miter"/>
     <use xlink:href="#mc8b7b154c8" x="355.762949" y="136.631762" style="fill-opacity: 0; stroke: #00bfbf; stroke-width: 1.5; stroke-linejoin: miter"/>
     <use xlink:href="#mc8b7b154c8" x="382.466542" y="121.302178" style="fill-opacity: 0; stroke: #00bfbf; stroke-width: 1.5; stroke-linejoin: miter"/>
    </g>
   </g>
   <g id="line2d_111">
    <path clip-path="url(#p4fb1485f3b)" style="fill: none; stroke: #00bfbf; stroke-width: 1.5; stroke-linecap: square"/>
    <g clip-path="url(#p4fb1485f3b)">
     <use xlink:href="#mc8b7b154c8" x="-1" y="581.189703" style="fill-opacity: 0; stroke: #00bfbf; stroke-width: 1.5; stroke-linejoin: miter"/>
     <use xlink:href="#mc8b7b154c8" x="460.8" y="581.189703" style="fill-opacity: 0; stroke: #00bfbf; stroke-width: 1.5; stroke-linejoin: miter"/>
    </g>
   </g>
   <g id="line2d_112">
    <path d="M 220.258579 293.76 
L 220.258579 289.927604 
L 240.001546 289.927604 
L 240.001546 286.095208 
L 240.833179 286.095208 
L 240.833179 282.262812 
L 285.150712 282.262812 
L 285.150712 278.430416 
L 316.819291 278.430416 
L 316.819291 274.59802 
L 321.811344 274.59802 
L 321.811344 270.765624 
L 322.084659 270.765624 
L 322.084659 266.933228 
L 328.250079 266.933228 
L 328.250079 263.100832 
L 342.465213 263.100832 
L 342.465213 259.268436 
L 343.874051 259.268436 
L 343.874051 255.43604 
L 344.661403 255.43604 
L 344.661403 251.603644 
L 349.02128 251.603644 
L 349.02128 247.771248 
L 350.913807 247.771248 
L 350.913807 243.938851 
L 354.143594 243.938851 
L 354.143594 240.106455 
L 355.961585 240.106455 
L 355.961585 236.274059 
L 356.732917 236.274059 
L 356.732917 232.441663 
L 356.955968 232.441663 
L 356.955968 228.609267 
L 357.116045 228.609267 
L 357.116045 224.776871 
L 357.408844 224.776871 
L 357.408844 220.944475 
L 357.6782 220.944475 
L 357.6782 217.112079 
L 358.485959 217.112079 
L 358.485959 213.279683 
L 358.98461 213.279683 
L 358.98461 209.447287 
L 363.548999 209.447287 
L 363.548999 205.614891 
L 365.940425 205.614891 
L 365.940425 201.782495 
L 374.021467 201.782495 
L 374.021467 197.950099 
L 376.624265 197.950099 
L 376.624265 194.117703 
L 378.328246 194.117703 
L 378.328246 190.285307 
L 383.801234 190.285307 
L 383.801234 186.452911 
L 385.974994 186.452911 
L 385.974994 182.620515 
L 387.899692 182.620515 
L 387.899692 178.788119 
L 389.154922 178.788119 
L 389.154922 174.955723 
L 389.418237 174.955723 
L 389.418237 171.123327 
L 390.528561 171.123327 
L 390.528561 167.290931 
L 395.721074 167.290931 
L 395.721074 163.458535 
L 395.804042 163.458535 
L 395.804042 159.626139 
L 397.312595 159.626139 
L 397.312595 155.793743 
L 400.345091 155.793743 
L 400.345091 151.961347 
L 400.840937 151.961347 
L 400.840937 148.12895 
L 402.992804 148.12895 
L 402.992804 144.296554 
L 410.411884 144.296554 
L 410.411884 140.464158 
L 410.555673 140.464158 
L 410.555673 136.631762 
L 414.712336 136.631762 
L 414.712336 132.799366 
L 414.822905 132.799366 
L 414.822905 128.96697 
L 416.783281 128.96697 
L 416.783281 125.134574 
L 424.318131 125.134574 
L 424.318131 121.302178 
L 424.318131 121.302178 
L 424.318131 121.302178 
L 460.8 121.302178 
" clip-path="url(#p4fb1485f3b)" style="fill: none; stroke: #00bfbf; stroke-width: 1.5; stroke-linecap: square"/>
   </g>
   <g id="line2d_113">
    <defs>
     <path id="mbd8846fc25" d="M 0 7.5 
C 1.989023 7.5 3.896849 6.709753 5.303301 5.303301 
C 6.709753 3.896849 7.5 1.989023 7.5 0 
C 7.5 -1.989023 6.709753 -3.896849 5.303301 -5.303301 
C 3.896849 -6.709753 1.989023 -7.5 0 -7.5 
C -1.989023 -7.5 -3.896849 -6.709753 -5.303301 -5.303301 
C -6.709753 -3.896849 -7.5 -1.989023 -7.5 0 
C -7.5 1.989023 -6.709753 3.896849 -5.303301 5.303301 
C -3.896849 6.709753 -1.989023 7.5 0 7.5 
z
" style="stroke: #00bfbf; stroke-width: 1.5"/>
    </defs>
    <g clip-path="url(#p4fb1485f3b)">
     <use xlink:href="#mbd8846fc25" x="321.811344" y="274.59802" style="fill-opacity: 0; stroke: #00bfbf; stroke-width: 1.5"/>
     <use xlink:href="#mbd8846fc25" x="356.732917" y="236.274059" style="fill-opacity: 0; stroke: #00bfbf; stroke-width: 1.5"/>
     <use xlink:href="#mbd8846fc25" x="400.345091" y="155.793743" style="fill-opacity: 0; stroke: #00bfbf; stroke-width: 1.5"/>
     <use xlink:href="#mbd8846fc25" x="424.318131" y="125.134574" style="fill-opacity: 0; stroke: #00bfbf; stroke-width: 1.5"/>
     <use xlink:href="#mbd8846fc25" x="424.318131" y="121.302178" style="fill-opacity: 0; stroke: #00bfbf; stroke-width: 1.5"/>
    </g>
   </g>
   <g id="line2d_114">
    <path clip-path="url(#p4fb1485f3b)" style="fill: none; stroke: #00bfbf; stroke-width: 1.5; stroke-linecap: square"/>
   </g>
   <g id="line2d_115">
    <path d="M 287.377601 293.76 
L 287.377601 289.927604 
L 288.449607 289.927604 
L 288.449607 286.095208 
L 288.73758 286.095208 
L 288.73758 282.262812 
L 291.051528 282.262812 
L 291.051528 278.430416 
L 291.523584 278.430416 
L 291.523584 274.59802 
L 291.555126 274.59802 
L 291.555126 270.765624 
L 291.955181 270.765624 
L 291.955181 266.933228 
L 292.177061 266.933228 
L 292.177061 263.100832 
L 292.509582 263.100832 
L 292.509582 259.268436 
L 293.873119 259.268436 
L 293.873119 255.43604 
L 294.932365 255.43604 
L 294.932365 251.603644 
L 295.562952 251.603644 
L 295.562952 247.771248 
L 307.419672 247.771248 
L 307.419672 243.938851 
L 310.520794 243.938851 
L 310.520794 240.106455 
L 310.6772 240.106455 
L 310.6772 236.274059 
L 313.402453 236.274059 
L 313.402453 232.441663 
L 314.755365 232.441663 
L 314.755365 228.609267 
L 315.96295 228.609267 
L 315.96295 224.776871 
L 316.949306 224.776871 
L 316.949306 220.944475 
L 316.957818 220.944475 
L 316.957818 217.112079 
L 319.19788 217.112079 
L 319.19788 213.279683 
L 319.867445 213.279683 
L 319.867445 209.447287 
L 320.726779 209.447287 
L 320.726779 205.614891 
L 321.600885 205.614891 
L 321.600885 201.782495 
L 322.91415 201.782495 
L 322.91415 197.950099 
L 325.131056 197.950099 
L 325.131056 194.117703 
L 331.175154 194.117703 
L 331.175154 190.285307 
L 335.496827 190.285307 
L 335.496827 186.452911 
L 337.778277 186.452911 
L 337.778277 182.620515 
L 339.036119 182.620515 
L 339.036119 178.788119 
L 340.050702 178.788119 
L 340.050702 174.955723 
L 340.221631 174.955723 
L 340.221631 171.123327 
L 346.227929 171.123327 
L 346.227929 167.290931 
L 346.362599 167.290931 
L 346.362599 163.458535 
L 349.905787 163.458535 
L 349.905787 159.626139 
L 350.968832 159.626139 
L 350.968832 155.793743 
L 351.233604 155.793743 
L 351.233604 151.961347 
L 351.330724 151.961347 
L 351.330724 148.12895 
L 352.328335 148.12895 
L 352.328335 144.296554 
L 356.420563 144.296554 
L 356.420563 140.464158 
L 357.523476 140.464158 
L 357.523476 136.631762 
L 363.418989 136.631762 
L 363.418989 132.799366 
L 364.313147 132.799366 
L 364.313147 128.96697 
L 378.564111 128.96697 
L 378.564111 125.134574 
L 384.663898 125.134574 
L 384.663898 121.302178 
L 384.663898 121.302178 
L 384.663898 121.302178 
L 460.8 121.302178 
" clip-path="url(#p4fb1485f3b)" style="fill: none; stroke: #bf00bf; stroke-width: 1.5; stroke-linecap: square"/>
   </g>
   <g id="line2d_116">
    <defs>
     <path id="maaf48720d9" d="M 0 14.142136 
L 8.485281 0 
L 0 -14.142136 
L -8.485281 0 
z
" style="stroke: #bf00bf; stroke-width: 1.5; stroke-linejoin: miter"/>
    </defs>
    <g clip-path="url(#p4fb1485f3b)">
     <use xlink:href="#maaf48720d9" x="307.419672" y="247.771248" style="fill-opacity: 0; stroke: #bf00bf; stroke-width: 1.5; stroke-linejoin: miter"/>
     <use xlink:href="#maaf48720d9" x="335.496827" y="190.285307" style="fill-opacity: 0; stroke: #bf00bf; stroke-width: 1.5; stroke-linejoin: miter"/>
     <use xlink:href="#maaf48720d9" x="363.418989" y="136.631762" style="fill-opacity: 0; stroke: #bf00bf; stroke-width: 1.5; stroke-linejoin: miter"/>
     <use xlink:href="#maaf48720d9" x="384.663898" y="121.302178" style="fill-opacity: 0; stroke: #bf00bf; stroke-width: 1.5; stroke-linejoin: miter"/>
    </g>
   </g>
   <g id="line2d_117">
    <path clip-path="url(#p4fb1485f3b)" style="fill: none; stroke: #bf00bf; stroke-width: 1.5; stroke-linecap: square"/>
    <g clip-path="url(#p4fb1485f3b)">
     <use xlink:href="#maaf48720d9" x="-1" y="581.189703" style="fill-opacity: 0; stroke: #bf00bf; stroke-width: 1.5; stroke-linejoin: miter"/>
     <use xlink:href="#maaf48720d9" x="460.8" y="581.189703" style="fill-opacity: 0; stroke: #bf00bf; stroke-width: 1.5; stroke-linejoin: miter"/>
    </g>
   </g>
   <g id="line2d_118">
    <path d="M 357.654434 293.76 
L 357.654434 289.927604 
L 357.750207 289.927604 
L 357.750207 286.095208 
L 357.765225 286.095208 
L 357.765225 282.262812 
L 361.307135 282.262812 
L 361.307135 278.430416 
L 361.565943 278.430416 
L 361.565943 274.59802 
L 361.714851 274.59802 
L 361.714851 270.765624 
L 362.037432 270.765624 
L 362.037432 266.933228 
L 364.684294 266.933228 
L 364.684294 263.100832 
L 365.246355 263.100832 
L 365.246355 259.268436 
L 367.004954 259.268436 
L 367.004954 255.43604 
L 367.168201 255.43604 
L 367.168201 251.603644 
L 367.505872 251.603644 
L 367.505872 247.771248 
L 367.752825 247.771248 
L 367.752825 243.938851 
L 368.113433 243.938851 
L 368.113433 240.106455 
L 368.781182 240.106455 
L 368.781182 236.274059 
L 372.312897 236.274059 
L 372.312897 232.441663 
L 375.085199 232.441663 
L 375.085199 228.609267 
L 379.901329 228.609267 
L 379.901329 224.776871 
L 383.797873 224.776871 
L 383.797873 220.944475 
L 384.362047 220.944475 
L 384.362047 217.112079 
L 386.387399 217.112079 
L 386.387399 213.279683 
L 386.999537 213.279683 
L 386.999537 209.447287 
L 389.287893 209.447287 
L 389.287893 205.614891 
L 390.060595 205.614891 
L 390.060595 201.782495 
L 390.229517 201.782495 
L 390.229517 197.950099 
L 392.412819 197.950099 
L 392.412819 194.117703 
L 392.670067 194.117703 
L 392.670067 190.285307 
L 395.321183 190.285307 
L 395.321183 186.452911 
L 395.844523 186.452911 
L 395.844523 182.620515 
L 402.182193 182.620515 
L 402.182193 178.788119 
L 403.046563 178.788119 
L 403.046563 174.955723 
L 406.279366 174.955723 
L 406.279366 171.123327 
L 407.487406 171.123327 
L 407.487406 167.290931 
L 407.556862 167.290931 
L 407.556862 163.458535 
L 408.485088 163.458535 
L 408.485088 159.626139 
L 410.581564 159.626139 
L 410.581564 155.793743 
L 416.622579 155.793743 
L 416.622579 151.961347 
L 417.682517 151.961347 
L 417.682517 148.12895 
L 420.291729 148.12895 
L 420.291729 144.296554 
L 420.729897 144.296554 
L 420.729897 140.464158 
L 421.084656 140.464158 
L 421.084656 136.631762 
L 423.588783 136.631762 
L 423.588783 132.799366 
L 425.007447 132.799366 
L 425.007447 128.96697 
L 425.593036 128.96697 
L 425.593036 125.134574 
L 425.593036 125.134574 
L 425.593036 125.134574 
L 460.8 125.134574 
" clip-path="url(#p4fb1485f3b)" style="fill: none; stroke: #bf00bf; stroke-width: 1.5; stroke-linecap: square"/>
   </g>
   <g id="line2d_119">
    <defs>
     <path id="m0e6c1141e7" d="M 0 7.5 
C 1.989023 7.5 3.896849 6.709753 5.303301 5.303301 
C 6.709753 3.896849 7.5 1.989023 7.5 0 
C 7.5 -1.989023 6.709753 -3.896849 5.303301 -5.303301 
C 3.896849 -6.709753 1.989023 -7.5 0 -7.5 
C -1.989023 -7.5 -3.896849 -6.709753 -5.303301 -5.303301 
C -6.709753 -3.896849 -7.5 -1.989023 -7.5 0 
C -7.5 1.989023 -6.709753 3.896849 -5.303301 5.303301 
C -3.896849 6.709753 -1.989023 7.5 0 7.5 
z
" style="stroke: #bf00bf; stroke-width: 1.5"/>
    </defs>
    <g clip-path="url(#p4fb1485f3b)">
     <use xlink:href="#m0e6c1141e7" x="392.670067" y="194.117703" style="fill-opacity: 0; stroke: #bf00bf; stroke-width: 1.5"/>
     <use xlink:href="#m0e6c1141e7" x="425.593036" y="128.96697" style="fill-opacity: 0; stroke: #bf00bf; stroke-width: 1.5"/>
     <use xlink:href="#m0e6c1141e7" x="425.593036" y="125.134574" style="fill-opacity: 0; stroke: #bf00bf; stroke-width: 1.5"/>
    </g>
   </g>
   <g id="line2d_120">
    <path clip-path="url(#p4fb1485f3b)" style="fill: none; stroke: #bf00bf; stroke-width: 1.5; stroke-linecap: square"/>
   </g>
   <g id="line2d_121">
    <path d="M 321.30902 293.76 
L 321.30902 289.927604 
L 321.935975 289.927604 
L 321.935975 286.095208 
L 322.464279 286.095208 
L 322.464279 282.262812 
L 324.411179 282.262812 
L 324.411179 278.430416 
L 324.471504 278.430416 
L 324.471504 274.59802 
L 324.533511 274.59802 
L 324.533511 270.765624 
L 324.949196 270.765624 
L 324.949196 266.933228 
L 325.857435 266.933228 
L 325.857435 263.100832 
L 325.871147 263.100832 
L 325.871147 259.268436 
L 326.61333 259.268436 
L 326.61333 255.43604 
L 327.312606 255.43604 
L 327.312606 251.603644 
L 327.789734 251.603644 
L 327.789734 247.771248 
L 329.203068 247.771248 
L 329.203068 243.938851 
L 329.300951 243.938851 
L 329.300951 240.106455 
L 331.074078 240.106455 
L 331.074078 236.274059 
L 331.087669 236.274059 
L 331.087669 232.441663 
L 331.418529 232.441663 
L 331.418529 228.609267 
L 331.800215 228.609267 
L 331.800215 224.776871 
L 334.453981 224.776871 
L 334.453981 220.944475 
L 334.898251 220.944475 
L 334.898251 217.112079 
L 335.135715 217.112079 
L 335.135715 213.279683 
L 336.435761 213.279683 
L 336.435761 209.447287 
L 336.486125 209.447287 
L 336.486125 205.614891 
L 336.740972 205.614891 
L 336.740972 201.782495 
L 337.483267 201.782495 
L 337.483267 197.950099 
L 337.988261 197.950099 
L 337.988261 194.117703 
L 343.848579 194.117703 
L 343.848579 190.285307 
L 344.675521 190.285307 
L 344.675521 186.452911 
L 346.713383 186.452911 
L 346.713383 182.620515 
L 349.946891 182.620515 
L 349.946891 178.788119 
L 351.776381 178.788119 
L 351.776381 174.955723 
L 352.266066 174.955723 
L 352.266066 171.123327 
L 354.069317 171.123327 
L 354.069317 167.290931 
L 355.22348 167.290931 
L 355.22348 163.458535 
L 355.258769 163.458535 
L 355.258769 159.626139 
L 355.667429 159.626139 
L 355.667429 155.793743 
L 356.65505 155.793743 
L 356.65505 151.961347 
L 357.012347 151.961347 
L 357.012347 148.12895 
L 360.392735 148.12895 
L 360.392735 144.296554 
L 361.136359 144.296554 
L 361.136359 140.464158 
L 361.147281 140.464158 
L 361.147281 136.631762 
L 368.845856 136.631762 
L 368.845856 132.799366 
L 371.207194 132.799366 
L 371.207194 128.96697 
L 381.56586 128.96697 
L 381.56586 125.134574 
L 386.988651 125.134574 
L 386.988651 121.302178 
L 386.988651 121.302178 
L 386.988651 121.302178 
L 460.8 121.302178 
" clip-path="url(#p4fb1485f3b)" style="fill: none; stroke: #ff0000; stroke-width: 3; stroke-linecap: square"/>
   </g>
   <g id="line2d_122">
    <defs>
     <path id="mb92de8d434" d="M 0 14.142136 
L 8.485281 0 
L 0 -14.142136 
L -8.485281 0 
z
" style="stroke: #ff0000; stroke-width: 3; stroke-linejoin: miter"/>
    </defs>
    <g clip-path="url(#p4fb1485f3b)">
     <use xlink:href="#mb92de8d434" x="336.486125" y="209.447287" style="fill-opacity: 0; stroke: #ff0000; stroke-width: 3; stroke-linejoin: miter"/>
     <use xlink:href="#mb92de8d434" x="386.988651" y="125.134574" style="fill-opacity: 0; stroke: #ff0000; stroke-width: 3; stroke-linejoin: miter"/>
     <use xlink:href="#mb92de8d434" x="386.988651" y="121.302178" style="fill-opacity: 0; stroke: #ff0000; stroke-width: 3; stroke-linejoin: miter"/>
    </g>
   </g>
   <g id="line2d_123">
    <path clip-path="url(#p4fb1485f3b)" style="fill: none; stroke: #ff0000; stroke-width: 3; stroke-linecap: square"/>
    <g clip-path="url(#p4fb1485f3b)">
     <use xlink:href="#mb92de8d434" x="-1" y="581.189703" style="fill-opacity: 0; stroke: #ff0000; stroke-width: 3; stroke-linejoin: miter"/>
     <use xlink:href="#mb92de8d434" x="460.8" y="581.189703" style="fill-opacity: 0; stroke: #ff0000; stroke-width: 3; stroke-linejoin: miter"/>
    </g>
   </g>
   <g id="line2d_124">
    <path d="M 384.945987 293.76 
L 384.945987 289.927604 
L 384.985603 289.927604 
L 384.985603 286.095208 
L 385.168081 286.095208 
L 385.168081 282.262812 
L 387.96506 282.262812 
L 387.96506 278.430416 
L 388.111381 278.430416 
L 388.111381 274.59802 
L 389.544516 274.59802 
L 389.544516 270.765624 
L 389.731937 270.765624 
L 389.731937 266.933228 
L 392.169045 266.933228 
L 392.169045 263.100832 
L 392.714084 263.100832 
L 392.714084 259.268436 
L 393.98726 259.268436 
L 393.98726 255.43604 
L 394.870833 255.43604 
L 394.870833 251.603644 
L 397.886381 251.603644 
L 397.886381 247.771248 
L 402.122716 247.771248 
L 402.122716 243.938851 
L 403.29154 243.938851 
L 403.29154 240.106455 
L 403.958394 240.106455 
L 403.958394 236.274059 
L 413.206129 236.274059 
L 413.206129 232.441663 
L 415.2452 232.441663 
L 415.2452 228.609267 
L 416.464862 228.609267 
L 416.464862 224.776871 
L 419.823971 224.776871 
L 419.823971 220.944475 
L 421.086866 220.944475 
L 421.086866 217.112079 
L 422.968755 217.112079 
L 422.968755 213.279683 
L 429.144224 213.279683 
L 429.144224 209.447287 
L 429.677134 209.447287 
L 429.677134 205.614891 
L 433.139851 205.614891 
L 433.139851 201.782495 
L 433.473435 201.782495 
L 433.473435 197.950099 
L 441.666837 197.950099 
L 441.666837 194.117703 
L 441.666837 194.117703 
L 441.666837 194.117703 
L 460.8 194.117703 
" clip-path="url(#p4fb1485f3b)" style="fill: none; stroke: #ff0000; stroke-width: 3; stroke-linecap: square"/>
   </g>
   <g id="line2d_125">
    <defs>
     <path id="m7ac1afae36" d="M 0 7.5 
C 1.989023 7.5 3.896849 6.709753 5.303301 5.303301 
C 6.709753 3.896849 7.5 1.989023 7.5 0 
C 7.5 -1.989023 6.709753 -3.896849 5.303301 -5.303301 
C 3.896849 -6.709753 1.989023 -7.5 0 -7.5 
C -1.989023 -7.5 -3.896849 -6.709753 -5.303301 -5.303301 
C -6.709753 -3.896849 -7.5 -1.989023 -7.5 0 
C -7.5 1.989023 -6.709753 3.896849 -5.303301 5.303301 
C -3.896849 6.709753 -1.989023 7.5 0 7.5 
z
" style="stroke: #ff0000; stroke-width: 3"/>
    </defs>
    <g clip-path="url(#p4fb1485f3b)">
     <use xlink:href="#m7ac1afae36" x="394.870833" y="255.43604" style="fill-opacity: 0; stroke: #ff0000; stroke-width: 3"/>
     <use xlink:href="#m7ac1afae36" x="429.144224" y="213.279683" style="fill-opacity: 0; stroke: #ff0000; stroke-width: 3"/>
     <use xlink:href="#m7ac1afae36" x="441.666837" y="194.117703" style="fill-opacity: 0; stroke: #ff0000; stroke-width: 3"/>
    </g>
   </g>
   <g id="line2d_126">
    <path clip-path="url(#p4fb1485f3b)" style="fill: none; stroke: #ff0000; stroke-width: 3; stroke-linecap: square"/>
   </g>
   <g id="line2d_127">
    <path d="M 441.770068 293.76 
L 441.770068 3.456 
" clip-path="url(#p4fb1485f3b)" style="fill: none; stroke: #000000; stroke-width: 1.5; stroke-linecap: square"/>
    <defs>
     <path id="mbe0eea0691" d="M -10 0 
L 10 0 
M 0 10 
L 0 -10 
" style="stroke: #000000; stroke-width: 3"/>
    </defs>
    <g clip-path="url(#p4fb1485f3b)">
     <use xlink:href="#mbe0eea0691" x="441.770068" y="293.76" style="stroke: #000000; stroke-width: 3"/>
     <use xlink:href="#mbe0eea0691" x="441.770068" y="3.456" style="stroke: #000000; stroke-width: 3"/>
    </g>
   </g>
   <g id="line2d_128">
    <path d="M 441.734965 293.76 
L 441.734965 3.456 
" clip-path="url(#p4fb1485f3b)" style="fill: none; stroke: #000000; stroke-width: 1.5; stroke-linecap: square"/>
    <defs>
     <path id="mafb6b8722d" d="M 0 7.5 
C 1.989023 7.5 3.896849 6.709753 5.303301 5.303301 
C 6.709753 3.896849 7.5 1.989023 7.5 0 
C 7.5 -1.989023 6.709753 -3.896849 5.303301 -5.303301 
C 3.896849 -6.709753 1.989023 -7.5 0 -7.5 
C -1.989023 -7.5 -3.896849 -6.709753 -5.303301 -5.303301 
C -6.709753 -3.896849 -7.5 -1.989023 -7.5 0 
C -7.5 1.989023 -6.709753 3.896849 -5.303301 5.303301 
C -3.896849 6.709753 -1.989023 7.5 0 7.5 
z
" style="stroke: #000000; stroke-width: 3"/>
    </defs>
    <g clip-path="url(#p4fb1485f3b)">
     <use xlink:href="#mafb6b8722d" x="441.734965" y="293.76" style="fill-opacity: 0; stroke: #000000; stroke-width: 3"/>
     <use xlink:href="#mafb6b8722d" x="441.734965" y="3.456" style="fill-opacity: 0; stroke: #000000; stroke-width: 3"/>
    </g>
   </g>
   <g id="patch_3">
    <path d="M 62.208 293.76 
L 62.208 3.456 
" style="fill: none; stroke: #000000; stroke-width: 0.8; stroke-linejoin: miter; stroke-linecap: square"/>
   </g>
   <g id="patch_4">
    <path d="M 460.8 293.76 
L 460.8 3.456 
" style="fill: none; stroke: #000000; stroke-width: 0.8; stroke-linejoin: miter; stroke-linecap: square"/>
   </g>
   <g id="patch_5">
    <path d="M 62.208 293.76 
L 460.8 293.76 
" style="fill: none; stroke: #000000; stroke-width: 0.8; stroke-linejoin: miter; stroke-linecap: square"/>
   </g>
   <g id="patch_6">
    <path d="M 62.208 3.456 
L 460.8 3.456 
" style="fill: none; stroke: #000000; stroke-width: 0.8; stroke-linejoin: miter; stroke-linecap: square"/>
   </g>
   <g id="text_12">
    <!-- f10-f14 -->
    <g transform="translate(225.405563 24.458955) scale(0.2 -0.2)">
     <defs>
      <path id="DejaVuSans-2d" d="M 313 2009 
L 1997 2009 
L 1997 1497 
L 313 1497 
L 313 2009 
z
" transform="scale(0.015625)"/>
     </defs>
     <use xlink:href="#DejaVuSans-66"/>
     <use xlink:href="#DejaVuSans-31" x="35.205078"/>
     <use xlink:href="#DejaVuSans-30" x="98.828125"/>
     <use xlink:href="#DejaVuSans-2d" x="162.451172"/>
     <use xlink:href="#DejaVuSans-66" x="198.535156"/>
     <use xlink:href="#DejaVuSans-31" x="233.740234"/>
     <use xlink:href="#DejaVuSans-34" x="297.363281"/>
    </g>
   </g>
   <g id="text_13">
    <!-- absolute targets -->
    <g transform="translate(62.208 609.932673) scale(0.14 -0.14)">
     <defs>
      <path id="DejaVuSans-62" d="M 3116 1747 
Q 3116 2381 2855 2742 
Q 2594 3103 2138 3103 
Q 1681 3103 1420 2742 
Q 1159 2381 1159 1747 
Q 1159 1113 1420 752 
Q 1681 391 2138 391 
Q 2594 391 2855 752 
Q 3116 1113 3116 1747 
z
M 1159 2969 
Q 1341 3281 1617 3432 
Q 1894 3584 2278 3584 
Q 2916 3584 3314 3078 
Q 3713 2572 3713 1747 
Q 3713 922 3314 415 
Q 2916 -91 2278 -91 
Q 1894 -91 1617 61 
Q 1341 213 1159 525 
L 1159 0 
L 581 0 
L 581 4863 
L 1159 4863 
L 1159 2969 
z
" transform="scale(0.015625)"/>
      <path id="DejaVuSans-75" d="M 544 1381 
L 544 3500 
L 1119 3500 
L 1119 1403 
Q 1119 906 1312 657 
Q 1506 409 1894 409 
Q 2359 409 2629 706 
Q 2900 1003 2900 1516 
L 2900 3500 
L 3475 3500 
L 3475 0 
L 2900 0 
L 2900 538 
Q 2691 219 2414 64 
Q 2138 -91 1772 -91 
Q 1169 -91 856 284 
Q 544 659 544 1381 
z
M 1991 3584 
L 1991 3584 
z
" transform="scale(0.015625)"/>
      <path id="DejaVuSans-65" d="M 3597 1894 
L 3597 1613 
L 953 1613 
Q 991 1019 1311 708 
Q 1631 397 2203 397 
Q 2534 397 2845 478 
Q 3156 559 3463 722 
L 3463 178 
Q 3153 47 2828 -22 
Q 2503 -91 2169 -91 
Q 1331 -91 842 396 
Q 353 884 353 1716 
Q 353 2575 817 3079 
Q 1281 3584 2069 3584 
Q 2775 3584 3186 3129 
Q 3597 2675 3597 1894 
z
M 3022 2063 
Q 3016 2534 2758 2815 
Q 2500 3097 2075 3097 
Q 1594 3097 1305 2825 
Q 1016 2553 972 2059 
L 3022 2063 
z
" transform="scale(0.015625)"/>
     </defs>
     <use xlink:href="#DejaVuSans-61"/>
     <use xlink:href="#DejaVuSans-62" x="61.279297"/>
     <use xlink:href="#DejaVuSans-73" x="124.755859"/>
     <use xlink:href="#DejaVuSans-6f" x="176.855469"/>
     <use xlink:href="#DejaVuSans-6c" x="238.037109"/>
     <use xlink:href="#DejaVuSans-75" x="265.820312"/>
     <use xlink:href="#DejaVuSans-74" x="329.199219"/>
     <use xlink:href="#DejaVuSans-65" x="368.408203"/>
     <use xlink:href="#DejaVuSans-20" x="429.931641"/>
     <use xlink:href="#DejaVuSans-74" x="461.71875"/>
     <use xlink:href="#DejaVuSans-61" x="500.927734"/>
     <use xlink:href="#DejaVuSans-72" x="562.207031"/>
     <use xlink:href="#DejaVuSans-67" x="601.570312"/>
     <use xlink:href="#DejaVuSans-65" x="665.046875"/>
     <use xlink:href="#DejaVuSans-74" x="726.570312"/>
     <use xlink:href="#DejaVuSans-73" x="765.779297"/>
    </g>
   </g>
   <g id="text_14">
    <!-- v2.6.3 -->
    <g style="fill: #808080" transform="translate(245.82275 288.777272) scale(0.1 -0.1)">
     <defs>
      <path id="DejaVuSans-33" d="M 2597 2516 
Q 3050 2419 3304 2112 
Q 3559 1806 3559 1356 
Q 3559 666 3084 287 
Q 2609 -91 1734 -91 
Q 1441 -91 1130 -33 
Q 819 25 488 141 
L 488 750 
Q 750 597 1062 519 
Q 1375 441 1716 441 
Q 2309 441 2620 675 
Q 2931 909 2931 1356 
Q 2931 1769 2642 2001 
Q 2353 2234 1838 2234 
L 1294 2234 
L 1294 2753 
L 1863 2753 
Q 2328 2753 2575 2939 
Q 2822 3125 2822 3475 
Q 2822 3834 2567 4026 
Q 2313 4219 1838 4219 
Q 1578 4219 1281 4162 
Q 984 4106 628 3988 
L 628 4550 
Q 988 4650 1302 4700 
Q 1616 4750 1894 4750 
Q 2613 4750 3031 4423 
Q 3450 4097 3450 3541 
Q 3450 3153 3228 2886 
Q 3006 2619 2597 2516 
z
" transform="scale(0.015625)"/>
     </defs>
     <use xlink:href="#DejaVuSans-76"/>
     <use xlink:href="#DejaVuSans-32" x="59.179688"/>
     <use xlink:href="#DejaVuSans-2e" x="122.802734"/>
     <use xlink:href="#DejaVuSans-36" x="154.589844"/>
     <use xlink:href="#DejaVuSans-2e" x="218.212891"/>
     <use xlink:href="#DejaVuSans-33" x="250"/>
    </g>
   </g>
   <g id="legend_1">
    <g id="patch_7">
     <path d="M 76.208 136.881 
L 160.148625 136.881 
Q 164.148625 136.881 164.148625 132.881 
L 164.148625 17.456 
Q 164.148625 13.456 160.148625 13.456 
L 76.208 13.456 
Q 72.208 13.456 72.208 17.456 
L 72.208 132.881 
Q 72.208 136.881 76.208 136.881 
z
" style="fill: #ffffff; opacity: 0.2; stroke: #cccccc; stroke-linejoin: miter"/>
    </g>
    <g id="line2d_129">
     <path d="M 80.208 29.652875 
L 80.208 29.652875 
L 100.208 29.652875 
L 100.208 29.652875 
L 120.208 29.652875 
" style="fill: none; stroke: #000000; stroke-width: 1.5; stroke-linecap: square"/>
    </g>
    <g id="text_15">
     <!-- 1 -->
     <g transform="translate(136.208 36.652875) scale(0.2 -0.2)">
      <use xlink:href="#DejaVuSans-31"/>
     </g>
    </g>
    <g id="line2d_130">
     <path d="M 80.208 59.009125 
L 80.208 59.009125 
L 100.208 59.009125 
L 100.208 59.009125 
L 120.208 59.009125 
" style="fill: none; stroke: #00bfbf; stroke-width: 1.5; stroke-linecap: square"/>
    </g>
    <g id="text_16">
     <!-- -1 -->
     <g transform="translate(136.208 66.009125) scale(0.2 -0.2)">
      <use xlink:href="#DejaVuSans-2d"/>
      <use xlink:href="#DejaVuSans-31" x="36.083984"/>
     </g>
    </g>
    <g id="line2d_131">
     <path d="M 80.208 88.365375 
L 80.208 88.365375 
L 100.208 88.365375 
L 100.208 88.365375 
L 120.208 88.365375 
" style="fill: none; stroke: #bf00bf; stroke-width: 1.5; stroke-linecap: square"/>
    </g>
    <g id="text_17">
     <!-- -4 -->
     <g transform="translate(136.208 95.365375) scale(0.2 -0.2)">
      <use xlink:href="#DejaVuSans-2d"/>
      <use xlink:href="#DejaVuSans-34" x="36.083984"/>
     </g>
    </g>
    <g id="line2d_132">
     <path d="M 80.208 117.721625 
L 80.208 117.721625 
L 100.208 117.721625 
L 100.208 117.721625 
L 120.208 117.721625 
" style="fill: none; stroke: #ff0000; stroke-width: 3; stroke-linecap: square"/>
    </g>
    <g id="text_18">
     <!-- -8 -->
     <g transform="translate(136.208 124.721625) scale(0.2 -0.2)">
      <use xlink:href="#DejaVuSans-2d"/>
      <use xlink:href="#DejaVuSans-38" x="36.083984"/>
     </g>
    </g>
   </g>
  </g>
 </g>
 <defs>
  <clipPath id="p4fb1485f3b">
   <rect x="62.208" y="3.456" width="398.592" height="290.304"/>
  </clipPath>
 </defs>
</svg>
