<?xml version="1.0" encoding="utf-8" standalone="no"?>
<!DOCTYPE svg PUBLIC "-//W3C//DTD SVG 1.1//EN"
  "http://www.w3.org/Graphics/SVG/1.1/DTD/svg11.dtd">
<svg xmlns:xlink="http://www.w3.org/1999/xlink" width="460.8pt" height="345.6pt" viewBox="0 0 460.8 345.6" xmlns="http://www.w3.org/2000/svg" version="1.1">
 <metadata>
  <rdf:RDF xmlns:dc="http://purl.org/dc/elements/1.1/" xmlns:cc="http://creativecommons.org/ns#" xmlns:rdf="http://www.w3.org/1999/02/22-rdf-syntax-ns#">
   <cc:Work>
    <dc:type rdf:resource="http://purl.org/dc/dcmitype/StillImage"/>
    <dc:date>2024-06-05T10:04:05.750435</dc:date>
    <dc:format>image/svg+xml</dc:format>
    <dc:creator>
     <cc:Agent>
      <dc:title>Matplotlib v3.7.1, https://matplotlib.org/</dc:title>
     </cc:Agent>
    </dc:creator>
   </cc:Work>
  </rdf:RDF>
 </metadata>
 <defs>
  <style type="text/css">*{stroke-linejoin: round; stroke-linecap: butt}</style>
 </defs>
 <g id="figure_1">
  <g id="patch_1">
   <path d="M 0 345.6 
L 460.8 345.6 
L 460.8 0 
L 0 0 
z
" style="fill: #ffffff"/>
  </g>
  <g id="axes_1">
   <g id="patch_2">
    <path d="M 62.208 293.76 
L 460.8 293.76 
L 460.8 3.456 
L 62.208 3.456 
z
" style="fill: #ffffff"/>
   </g>
   <g id="line2d_1"/>
   <g id="line2d_2">
    <path d="M 351.602933 293.76 
L 351.602933 289.927604 
L 351.829231 289.927604 
L 351.829231 286.095208 
L 357.559805 286.095208 
L 357.559805 282.262812 
L 358.827319 282.262812 
L 358.827319 278.430416 
L 368.19552 278.430416 
L 368.19552 274.59802 
L 368.629927 274.59802 
L 368.629927 270.765624 
L 369.089864 270.765624 
L 369.089864 266.933228 
L 369.294306 266.933228 
L 369.294306 263.100832 
L 369.726812 263.100832 
L 369.726812 259.268436 
L 370.286396 259.268436 
L 370.286396 255.43604 
L 370.352899 255.43604 
L 370.352899 251.603644 
L 370.428022 251.603644 
L 370.428022 247.771248 
L 370.46001 247.771248 
L 370.46001 243.938851 
L 370.814859 243.938851 
L 370.814859 240.106455 
L 370.875335 240.106455 
L 370.875335 236.274059 
L 371.093462 236.274059 
L 371.093462 232.441663 
L 371.244327 232.441663 
L 371.244327 228.609267 
L 371.782686 228.609267 
L 371.782686 224.776871 
L 371.88278 224.776871 
L 371.88278 220.944475 
L 371.888396 220.944475 
L 371.888396 217.112079 
L 372.115763 217.112079 
L 372.115763 213.279683 
L 372.169342 213.279683 
L 372.169342 209.447287 
L 372.270172 209.447287 
L 372.270172 205.614891 
L 372.647892 205.614891 
L 372.647892 201.782495 
L 373.129667 201.782495 
L 373.129667 197.950099 
L 373.326452 197.950099 
L 373.326452 194.117703 
L 374.203721 194.117703 
L 374.203721 190.285307 
L 375.475537 190.285307 
L 375.475537 186.452911 
L 376.685289 186.452911 
L 376.685289 182.620515 
L 376.911603 182.620515 
L 376.911603 178.788119 
L 378.041831 178.788119 
L 378.041831 174.955723 
L 378.055372 174.955723 
L 378.055372 171.123327 
L 378.535595 171.123327 
L 378.535595 167.290931 
L 378.86831 167.290931 
L 378.86831 163.458535 
L 379.643662 163.458535 
L 379.643662 159.626139 
L 382.109071 159.626139 
L 382.109071 155.793743 
L 384.329113 155.793743 
L 384.329113 151.961347 
L 385.622815 151.961347 
L 385.622815 148.12895 
L 388.069387 148.12895 
L 388.069387 144.296554 
L 392.060035 144.296554 
L 392.060035 140.464158 
L 392.09169 140.464158 
L 392.09169 136.631762 
L 392.252343 136.631762 
L 392.252343 132.799366 
L 392.399402 132.799366 
L 392.399402 128.96697 
L 392.572462 128.96697 
L 392.572462 125.134574 
L 392.579941 125.134574 
L 392.579941 121.302178 
L 393.159446 121.302178 
L 393.159446 117.469782 
L 393.236793 117.469782 
L 393.236793 113.637386 
L 393.452994 113.637386 
L 393.452994 109.80499 
L 393.813136 109.80499 
L 393.813136 105.972594 
L 393.981686 105.972594 
L 393.981686 102.140198 
L 394.447199 102.140198 
L 394.447199 98.307802 
L 398.617746 98.307802 
L 398.617746 94.475406 
L 399.076096 94.475406 
L 399.076096 90.64301 
L 399.099896 90.64301 
L 399.099896 86.810614 
L 399.522225 86.810614 
L 399.522225 82.978218 
L 399.760485 82.978218 
L 399.760485 79.145822 
L 400.654184 79.145822 
L 400.654184 75.313426 
L 408.953891 75.313426 
L 408.953891 71.48103 
L 410.731832 71.48103 
L 410.731832 67.648634 
L 425.298861 67.648634 
L 425.298861 63.816238 
L 439.875918 63.816238 
L 439.875918 59.983842 
L 439.875918 59.983842 
L 439.875918 59.983842 
L 460.8 59.983842 
" clip-path="url(#p8f14561c33)" style="fill: none; stroke: #f5deb3; stroke-width: 1.5; stroke-linecap: square"/>
   </g>
   <g id="line2d_3"/>
   <g id="line2d_4"/>
   <g id="line2d_5">
    <path d="M 342.215304 293.76 
L 342.215304 289.927604 
L 343.544663 289.927604 
L 343.544663 286.095208 
L 345.109807 286.095208 
L 345.109807 282.262812 
L 345.452534 282.262812 
L 345.452534 278.430416 
L 345.822043 278.430416 
L 345.822043 274.59802 
L 352.003375 274.59802 
L 352.003375 270.765624 
L 352.371119 270.765624 
L 352.371119 266.933228 
L 352.863225 266.933228 
L 352.923771 259.268436 
L 353.119049 259.268436 
L 353.119049 255.43604 
L 353.375934 255.43604 
L 353.375934 251.603644 
L 353.50334 251.603644 
L 353.50334 247.771248 
L 353.760464 247.771248 
L 353.857125 240.106455 
L 354.094765 240.106455 
L 354.119837 232.441663 
L 354.558279 232.441663 
L 354.558279 228.609267 
L 357.126612 228.609267 
L 357.126612 224.776871 
L 358.110271 224.776871 
L 358.110271 220.944475 
L 358.900497 220.944475 
L 358.900497 217.112079 
L 359.719637 217.112079 
L 359.719637 213.279683 
L 360.268239 213.279683 
L 360.286103 205.614891 
L 360.50579 205.614891 
L 360.50579 201.782495 
L 361.469297 201.782495 
L 361.469297 197.950099 
L 362.326598 197.950099 
L 362.326598 194.117703 
L 362.780886 194.117703 
L 362.780886 190.285307 
L 367.429275 190.285307 
L 367.429275 186.452911 
L 369.429244 186.452911 
L 369.429244 182.620515 
L 371.140953 182.620515 
L 371.24832 174.955723 
L 371.617394 174.955723 
L 371.716197 163.458535 
L 371.746074 163.458535 
L 371.746074 159.626139 
L 371.901871 159.626139 
L 371.993835 151.961347 
L 372.22508 151.961347 
L 372.22508 148.12895 
L 372.361318 148.12895 
L 372.361318 144.296554 
L 372.612593 144.296554 
L 372.663326 136.631762 
L 372.887565 136.631762 
L 372.906745 128.96697 
L 373.433148 128.96697 
L 373.433148 125.134574 
L 376.075975 125.134574 
L 376.075975 121.302178 
L 377.261579 121.302178 
L 377.261579 117.469782 
L 377.493583 117.469782 
L 377.590519 109.80499 
L 377.649157 109.80499 
L 377.722825 98.307802 
L 377.826032 98.307802 
L 377.933345 90.64301 
L 378.022963 90.64301 
L 378.022963 86.810614 
L 378.399164 86.810614 
L 378.399164 82.978218 
L 378.784314 82.978218 
L 378.784314 79.145822 
L 379.78346 79.145822 
L 379.78346 75.313426 
L 380.274322 75.313426 
L 380.274322 71.48103 
L 380.527825 71.48103 
L 380.527825 67.648634 
L 381.485614 67.648634 
L 381.485614 63.816238 
L 444.818719 63.816238 
L 444.818719 59.983842 
L 446.340508 59.983842 
L 446.340508 56.151446 
L 446.595608 56.151446 
L 446.595608 52.31905 
L 447.138218 52.31905 
L 447.138218 48.486653 
L 461.8 48.486653 
L 461.8 48.486653 
" clip-path="url(#p8f14561c33)" style="fill: none; stroke: #f5deb3; stroke-width: 1.5; stroke-linecap: square"/>
   </g>
   <g id="line2d_6">
    <path clip-path="url(#p8f14561c33)" style="fill: none; stroke: #f5deb3; stroke-width: 1.5; stroke-linecap: square"/>
   </g>
   <g id="line2d_7"/>
   <g id="line2d_8"/>
   <g id="line2d_9"/>
   <g id="line2d_10"/>
   <g id="line2d_11">
    <path clip-path="url(#p8f14561c33)" style="fill: none; stroke: #f5deb3; stroke-width: 1.5; stroke-linecap: square"/>
   </g>
   <g id="line2d_12"/>
   <g id="line2d_13">
    <path d="M 315.741205 293.76 
L 315.741205 289.927604 
L 317.011115 289.927604 
L 317.011115 286.095208 
L 322.688306 286.095208 
L 322.688306 282.262812 
L 323.309933 282.262812 
L 323.309933 278.430416 
L 325.169343 278.430416 
L 325.169343 274.59802 
L 325.912861 274.59802 
L 325.912861 270.765624 
L 327.115236 270.765624 
L 327.115236 266.933228 
L 329.69723 266.933228 
L 329.69723 263.100832 
L 331.835589 263.100832 
L 331.835589 259.268436 
L 333.214826 259.268436 
L 333.214826 255.43604 
L 334.375324 255.43604 
L 334.375324 251.603644 
L 337.568269 251.603644 
L 337.568269 247.771248 
L 338.521871 247.771248 
L 338.521871 243.938851 
L 342.638851 243.938851 
L 342.638851 240.106455 
L 342.690206 240.106455 
L 342.690206 236.274059 
L 388.374278 236.274059 
L 388.374278 232.441663 
L 392.980424 232.441663 
L 392.980424 228.609267 
L 393.254853 228.609267 
L 393.254853 224.776871 
L 393.893218 224.776871 
L 393.893218 220.944475 
L 396.439224 220.944475 
L 396.439224 217.112079 
L 397.036864 217.112079 
L 397.036864 213.279683 
L 397.823065 213.279683 
L 397.823065 209.447287 
L 397.830546 209.447287 
L 397.830546 205.614891 
L 398.42943 205.614891 
L 398.42943 201.782495 
L 398.522224 201.782495 
L 398.522224 197.950099 
L 400.115028 197.950099 
L 400.115028 194.117703 
L 400.278899 194.117703 
L 400.278899 190.285307 
L 400.428918 190.285307 
L 400.428918 186.452911 
L 400.450826 186.452911 
L 400.450826 182.620515 
L 400.726211 182.620515 
L 400.726211 178.788119 
L 400.834294 178.788119 
L 400.834294 174.955723 
L 402.35571 174.955723 
L 402.35571 171.123327 
L 402.576315 171.123327 
L 402.576315 167.290931 
L 402.605107 167.290931 
L 402.605107 163.458535 
L 403.056736 163.458535 
L 403.056736 159.626139 
L 403.1694 159.626139 
L 403.1694 155.793743 
L 406.538049 155.793743 
L 406.538049 151.961347 
L 407.131605 151.961347 
L 407.131605 148.12895 
L 407.416197 148.12895 
L 407.416197 144.296554 
L 407.748971 144.296554 
L 407.748971 140.464158 
L 408.518922 140.464158 
L 408.518922 136.631762 
L 409.616519 136.631762 
L 409.616519 132.799366 
L 410.239663 132.799366 
L 410.239663 128.96697 
L 410.512007 128.96697 
L 410.512007 125.134574 
L 411.511872 125.134574 
L 411.511872 121.302178 
L 411.511872 121.302178 
L 411.511872 121.302178 
L 460.8 121.302178 
" clip-path="url(#p8f14561c33)" style="fill: none; stroke: #f5deb3; stroke-width: 1.5; stroke-linecap: square"/>
   </g>
   <g id="line2d_14"/>
   <g id="line2d_15"/>
   <g id="line2d_16"/>
   <g id="line2d_17">
    <path d="M 381.278215 293.76 
L 381.278215 289.927604 
L 384.912932 289.927604 
L 384.912932 286.095208 
L 387.251717 286.095208 
L 387.251717 282.262812 
L 388.573296 282.262812 
L 388.681413 274.59802 
L 390.042568 274.59802 
L 390.042568 270.765624 
L 390.46728 270.765624 
L 390.559483 263.100832 
L 391.351796 263.100832 
L 391.351796 259.268436 
L 391.478016 259.268436 
L 391.478016 255.43604 
L 391.88757 255.43604 
L 391.901394 247.771248 
L 392.238979 247.771248 
L 392.244805 240.106455 
L 392.743107 240.106455 
L 392.743107 236.274059 
L 393.027186 236.274059 
L 393.027186 232.441663 
L 393.269897 232.441663 
L 393.269897 228.609267 
L 393.490579 228.609267 
L 393.490579 224.776871 
L 393.984643 224.776871 
L 393.984643 220.944475 
L 394.983574 220.944475 
L 394.983574 217.112079 
L 395.963559 217.112079 
L 395.963559 213.279683 
L 396.213594 213.279683 
L 396.213594 209.447287 
L 396.525486 209.447287 
L 396.525486 205.614891 
L 397.029542 205.614891 
L 397.029542 201.782495 
L 397.285039 201.782495 
L 397.285039 197.950099 
L 397.649111 197.950099 
L 397.649111 194.117703 
L 400.181785 194.117703 
L 400.212017 186.452911 
L 400.363686 186.452911 
L 400.430603 178.788119 
L 400.53526 178.788119 
L 400.53526 174.955723 
L 401.3974 174.955723 
L 401.454166 163.458535 
L 402.54083 163.458535 
L 402.54083 159.626139 
L 402.74186 159.626139 
L 402.786194 151.961347 
L 403.295387 151.961347 
L 403.295387 148.12895 
L 404.073939 148.12895 
L 404.073939 144.296554 
L 404.531971 144.296554 
L 404.531971 140.464158 
L 405.732528 140.464158 
L 405.732528 136.631762 
L 407.536722 136.631762 
L 407.536722 132.799366 
L 408.429246 132.799366 
L 408.429246 128.96697 
L 409.991357 128.96697 
L 409.991357 125.134574 
L 412.998163 125.134574 
L 412.998163 121.302178 
L 416.683422 121.302178 
L 416.683422 117.469782 
L 417.829 117.469782 
L 417.829 113.637386 
L 418.806581 113.637386 
L 418.806581 109.80499 
L 419.058883 109.80499 
L 419.058883 105.972594 
L 420.476888 105.972594 
L 420.476888 102.140198 
L 421.252504 102.140198 
L 421.252504 98.307802 
L 421.97067 98.307802 
L 422.070827 86.810614 
L 422.933633 86.810614 
L 422.933633 82.978218 
L 424.054107 82.978218 
L 424.054107 79.145822 
L 424.2664 79.145822 
L 424.2664 75.313426 
L 425.054445 75.313426 
L 425.144921 67.648634 
L 427.569425 67.648634 
L 427.569425 63.816238 
L 429.758781 63.816238 
L 429.758781 59.983842 
L 431.016408 59.983842 
L 431.016408 56.151446 
L 433.927892 56.151446 
L 433.927892 52.31905 
L 440.07479 52.31905 
L 440.07479 48.486653 
L 440.576931 48.486653 
L 440.587217 40.821861 
L 442.65735 40.821861 
L 442.65735 36.989465 
L 443.655519 36.989465 
L 443.744101 29.324673 
L 443.966924 29.324673 
L 444.008027 21.659881 
L 444.711032 21.659881 
L 444.712375 13.995089 
L 447.170133 13.995089 
L 447.170133 10.162693 
L 447.625627 10.162693 
L 447.625627 6.330297 
L 447.625627 6.330297 
L 460.8 6.330297 
L 460.8 6.330297 
" clip-path="url(#p8f14561c33)" style="fill: none; stroke: #f5deb3; stroke-width: 1.5; stroke-linecap: square"/>
   </g>
   <g id="line2d_18">
    <path d="M 352.667624 293.76 
L 352.667624 289.927604 
L 356.009246 289.927604 
L 356.009246 286.095208 
L 357.551853 286.095208 
L 357.551853 282.262812 
L 360.490243 282.262812 
L 360.490243 278.430416 
L 361.000965 278.430416 
L 361.000965 274.59802 
L 361.00901 274.59802 
L 361.00901 270.765624 
L 364.003086 270.765624 
L 364.003086 266.933228 
L 368.394045 266.933228 
L 368.394045 263.100832 
L 368.433148 263.100832 
L 368.433148 259.268436 
L 376.88276 259.268436 
L 376.88276 255.43604 
L 378.455706 255.43604 
L 378.455706 251.603644 
L 379.578011 251.603644 
L 379.578011 247.771248 
L 380.721353 247.771248 
L 380.721353 243.938851 
L 385.392804 243.938851 
L 385.392804 240.106455 
L 386.83027 240.106455 
L 386.83027 236.274059 
L 421.789873 236.274059 
L 421.789873 232.441663 
L 422.904169 232.441663 
L 422.904169 228.609267 
L 423.952153 228.609267 
L 423.952153 224.776871 
L 424.164813 224.776871 
L 424.164813 220.944475 
L 424.401671 220.944475 
L 424.401671 217.112079 
L 424.551679 217.112079 
L 424.551679 213.279683 
L 424.6673 213.279683 
L 424.6673 209.447287 
L 424.682899 209.447287 
L 424.682899 205.614891 
L 424.822563 205.614891 
L 424.822563 201.782495 
L 425.998156 201.782495 
L 425.998156 197.950099 
L 426.751397 197.950099 
L 426.751397 194.117703 
L 428.023662 194.117703 
L 428.023662 190.285307 
L 428.469247 190.285307 
L 428.469247 186.452911 
L 428.902042 186.452911 
L 428.902042 182.620515 
L 430.581178 182.620515 
L 430.581178 178.788119 
L 430.581178 178.788119 
L 430.581178 178.788119 
L 460.8 178.788119 
" clip-path="url(#p8f14561c33)" style="fill: none; stroke: #f5deb3; stroke-width: 1.5; stroke-linecap: square"/>
   </g>
   <g id="line2d_19">
    <path d="M 357.02364 293.76 
L 357.02364 289.927604 
L 357.297395 289.927604 
L 357.297395 286.095208 
L 357.415647 286.095208 
L 357.501724 278.430416 
L 357.567755 278.430416 
L 357.567755 274.59802 
L 357.793684 274.59802 
L 357.793684 270.765624 
L 357.983771 270.765624 
L 358.011304 263.100832 
L 358.479686 263.100832 
L 358.479686 259.268436 
L 358.6008 259.268436 
L 358.6008 255.43604 
L 358.737015 255.43604 
L 358.822692 247.771248 
L 359.214837 247.771248 
L 359.214837 243.938851 
L 359.706054 243.938851 
L 359.706054 240.106455 
L 360.256326 240.106455 
L 360.256326 236.274059 
L 364.94623 236.274059 
L 364.94623 232.441663 
L 365.203292 232.441663 
L 365.203292 228.609267 
L 365.727655 228.609267 
L 365.727655 224.776871 
L 365.884516 224.776871 
L 365.884516 220.944475 
L 366.004525 220.944475 
L 366.004525 217.112079 
L 367.583543 217.112079 
L 367.592893 209.447287 
L 367.729783 209.447287 
L 367.729783 205.614891 
L 367.84826 205.614891 
L 367.84826 201.782495 
L 368.081734 201.782495 
L 368.081734 197.950099 
L 368.359189 197.950099 
L 368.359189 194.117703 
L 368.483193 194.117703 
L 368.483193 190.285307 
L 368.945365 190.285307 
L 368.945365 186.452911 
L 370.400667 186.452911 
L 370.400667 182.620515 
L 370.673401 182.620515 
L 370.673401 178.788119 
L 370.894899 178.788119 
L 370.894899 174.955723 
L 372.538034 174.955723 
L 372.538034 171.123327 
L 373.581629 171.123327 
L 373.581629 167.290931 
L 374.062263 167.290931 
L 374.062263 163.458535 
L 374.347341 163.458535 
L 374.355804 155.793743 
L 374.696084 155.793743 
L 374.696084 151.961347 
L 375.11103 151.961347 
L 375.11103 148.12895 
L 375.386905 148.12895 
L 375.394126 140.464158 
L 375.616338 140.464158 
L 375.616338 136.631762 
L 375.814902 136.631762 
L 375.814902 132.799366 
L 376.490885 132.799366 
L 376.490885 128.96697 
L 376.854892 128.96697 
L 376.854892 125.134574 
L 377.761802 125.134574 
L 377.761802 121.302178 
L 389.497116 121.302178 
L 389.497116 117.469782 
L 389.753093 117.469782 
L 389.753093 113.637386 
L 392.362515 113.637386 
L 392.362515 109.80499 
L 392.475802 109.80499 
L 392.475802 105.972594 
L 394.52379 105.972594 
L 394.52379 102.140198 
L 394.742391 102.140198 
L 394.742391 98.307802 
L 395.012741 98.307802 
L 395.08541 90.64301 
L 395.348124 90.64301 
L 395.429721 82.978218 
L 395.827448 82.978218 
L 395.827448 79.145822 
L 396.161901 79.145822 
L 396.161901 75.313426 
L 397.878994 75.313426 
L 397.878994 71.48103 
L 399.038336 71.48103 
L 399.038336 67.648634 
L 399.926906 67.648634 
L 400.030295 59.983842 
L 400.21597 59.983842 
L 400.240532 52.31905 
L 400.332721 52.31905 
L 400.332721 48.486653 
L 401.40865 48.486653 
L 401.40865 44.654257 
L 401.983498 44.654257 
L 402.021628 36.989465 
L 402.133919 36.989465 
L 402.211749 29.324673 
L 402.340157 29.324673 
L 402.340157 25.492277 
L 402.804232 25.492277 
L 402.804232 21.659881 
L 403.340177 21.659881 
L 403.439014 13.995089 
L 406.009495 13.995089 
L 406.009495 10.162693 
L 411.716402 10.162693 
L 411.716402 6.330297 
L 411.716402 6.330297 
L 460.8 6.330297 
L 460.8 6.330297 
" clip-path="url(#p8f14561c33)" style="fill: none; stroke: #f5deb3; stroke-width: 1.5; stroke-linecap: square"/>
   </g>
   <g id="line2d_20"/>
   <g id="matplotlib.axis_1">
    <g id="xtick_1">
     <g id="line2d_21">
      <path d="M 62.208 293.76 
L 62.208 3.456 
" clip-path="url(#p8f14561c33)" style="fill: none; stroke: #b0b0b0; stroke-width: 0.8; stroke-linecap: square"/>
     </g>
     <g id="line2d_22">
      <defs>
       <path id="m9931b73eca" d="M 0 0 
L 0 3.5 
" style="stroke: #000000; stroke-width: 0.8"/>
      </defs>
      <g>
       <use xlink:href="#m9931b73eca" x="62.208" y="293.76" style="stroke: #000000; stroke-width: 0.8"/>
      </g>
     </g>
     <g id="text_1">
      <!-- 0 -->
      <g transform="translate(55.8455 315.956875) scale(0.2 -0.2)">
       <defs>
        <path id="DejaVuSans-30" d="M 2034 4250 
Q 1547 4250 1301 3770 
Q 1056 3291 1056 2328 
Q 1056 1369 1301 889 
Q 1547 409 2034 409 
Q 2525 409 2770 889 
Q 3016 1369 3016 2328 
Q 3016 3291 2770 3770 
Q 2525 4250 2034 4250 
z
M 2034 4750 
Q 2819 4750 3233 4129 
Q 3647 3509 3647 2328 
Q 3647 1150 3233 529 
Q 2819 -91 2034 -91 
Q 1250 -91 836 529 
Q 422 1150 422 2328 
Q 422 3509 836 4129 
Q 1250 4750 2034 4750 
z
" transform="scale(0.015625)"/>
       </defs>
       <use xlink:href="#DejaVuSans-30"/>
      </g>
     </g>
    </g>
    <g id="xtick_2">
     <g id="line2d_23">
      <path d="M 251.989466 293.76 
L 251.989466 3.456 
" clip-path="url(#p8f14561c33)" style="fill: none; stroke: #b0b0b0; stroke-width: 0.8; stroke-linecap: square"/>
     </g>
     <g id="line2d_24">
      <g>
       <use xlink:href="#m9931b73eca" x="251.989466" y="293.76" style="stroke: #000000; stroke-width: 0.8"/>
      </g>
     </g>
     <g id="text_2">
      <!-- 2 -->
      <g transform="translate(245.626966 315.956875) scale(0.2 -0.2)">
       <defs>
        <path id="DejaVuSans-32" d="M 1228 531 
L 3431 531 
L 3431 0 
L 469 0 
L 469 531 
Q 828 903 1448 1529 
Q 2069 2156 2228 2338 
Q 2531 2678 2651 2914 
Q 2772 3150 2772 3378 
Q 2772 3750 2511 3984 
Q 2250 4219 1831 4219 
Q 1534 4219 1204 4116 
Q 875 4013 500 3803 
L 500 4441 
Q 881 4594 1212 4672 
Q 1544 4750 1819 4750 
Q 2544 4750 2975 4387 
Q 3406 4025 3406 3419 
Q 3406 3131 3298 2873 
Q 3191 2616 2906 2266 
Q 2828 2175 2409 1742 
Q 1991 1309 1228 531 
z
" transform="scale(0.015625)"/>
       </defs>
       <use xlink:href="#DejaVuSans-32"/>
      </g>
     </g>
    </g>
    <g id="xtick_3">
     <g id="line2d_25">
      <path d="M 441.770932 293.76 
L 441.770932 3.456 
" clip-path="url(#p8f14561c33)" style="fill: none; stroke: #b0b0b0; stroke-width: 0.8; stroke-linecap: square"/>
     </g>
     <g id="line2d_26">
      <g>
       <use xlink:href="#m9931b73eca" x="441.770932" y="293.76" style="stroke: #000000; stroke-width: 0.8"/>
      </g>
     </g>
     <g id="text_3">
      <!-- 4 -->
      <g transform="translate(435.408432 315.956875) scale(0.2 -0.2)">
       <defs>
        <path id="DejaVuSans-34" d="M 2419 4116 
L 825 1625 
L 2419 1625 
L 2419 4116 
z
M 2253 4666 
L 3047 4666 
L 3047 1625 
L 3713 1625 
L 3713 1100 
L 3047 1100 
L 3047 0 
L 2419 0 
L 2419 1100 
L 313 1100 
L 313 1709 
L 2253 4666 
z
" transform="scale(0.015625)"/>
       </defs>
       <use xlink:href="#DejaVuSans-34"/>
      </g>
     </g>
    </g>
    <g id="xtick_4">
     <g id="line2d_27">
      <path d="M 90.772957 293.76 
L 90.772957 3.456 
" clip-path="url(#p8f14561c33)" style="fill: none; stroke: #b0b0b0; stroke-width: 0.8; stroke-linecap: square"/>
     </g>
     <g id="line2d_28">
      <defs>
       <path id="mecf561f62c" d="M 0 0 
L 0 2 
" style="stroke: #000000; stroke-width: 0.6"/>
      </defs>
      <g>
       <use xlink:href="#mecf561f62c" x="90.772957" y="293.76" style="stroke: #000000; stroke-width: 0.6"/>
      </g>
     </g>
    </g>
    <g id="xtick_5">
     <g id="line2d_29">
      <path d="M 107.482386 293.76 
L 107.482386 3.456 
" clip-path="url(#p8f14561c33)" style="fill: none; stroke: #b0b0b0; stroke-width: 0.8; stroke-linecap: square"/>
     </g>
     <g id="line2d_30">
      <g>
       <use xlink:href="#mecf561f62c" x="107.482386" y="293.76" style="stroke: #000000; stroke-width: 0.6"/>
      </g>
     </g>
    </g>
    <g id="xtick_6">
     <g id="line2d_31">
      <path d="M 119.337914 293.76 
L 119.337914 3.456 
" clip-path="url(#p8f14561c33)" style="fill: none; stroke: #b0b0b0; stroke-width: 0.8; stroke-linecap: square"/>
     </g>
     <g id="line2d_32">
      <g>
       <use xlink:href="#mecf561f62c" x="119.337914" y="293.76" style="stroke: #000000; stroke-width: 0.6"/>
      </g>
     </g>
    </g>
    <g id="xtick_7">
     <g id="line2d_33">
      <path d="M 128.533776 293.76 
L 128.533776 3.456 
" clip-path="url(#p8f14561c33)" style="fill: none; stroke: #b0b0b0; stroke-width: 0.8; stroke-linecap: square"/>
     </g>
     <g id="line2d_34">
      <g>
       <use xlink:href="#mecf561f62c" x="128.533776" y="293.76" style="stroke: #000000; stroke-width: 0.6"/>
      </g>
     </g>
    </g>
    <g id="xtick_8">
     <g id="line2d_35">
      <path d="M 136.047342 293.76 
L 136.047342 3.456 
" clip-path="url(#p8f14561c33)" style="fill: none; stroke: #b0b0b0; stroke-width: 0.8; stroke-linecap: square"/>
     </g>
     <g id="line2d_36">
      <g>
       <use xlink:href="#mecf561f62c" x="136.047342" y="293.76" style="stroke: #000000; stroke-width: 0.6"/>
      </g>
     </g>
    </g>
    <g id="xtick_9">
     <g id="line2d_37">
      <path d="M 142.399972 293.76 
L 142.399972 3.456 
" clip-path="url(#p8f14561c33)" style="fill: none; stroke: #b0b0b0; stroke-width: 0.8; stroke-linecap: square"/>
     </g>
     <g id="line2d_38">
      <g>
       <use xlink:href="#mecf561f62c" x="142.399972" y="293.76" style="stroke: #000000; stroke-width: 0.6"/>
      </g>
     </g>
    </g>
    <g id="xtick_10">
     <g id="line2d_39">
      <path d="M 147.902871 293.76 
L 147.902871 3.456 
" clip-path="url(#p8f14561c33)" style="fill: none; stroke: #b0b0b0; stroke-width: 0.8; stroke-linecap: square"/>
     </g>
     <g id="line2d_40">
      <g>
       <use xlink:href="#mecf561f62c" x="147.902871" y="293.76" style="stroke: #000000; stroke-width: 0.6"/>
      </g>
     </g>
    </g>
    <g id="xtick_11">
     <g id="line2d_41">
      <path d="M 152.756771 293.76 
L 152.756771 3.456 
" clip-path="url(#p8f14561c33)" style="fill: none; stroke: #b0b0b0; stroke-width: 0.8; stroke-linecap: square"/>
     </g>
     <g id="line2d_42">
      <g>
       <use xlink:href="#mecf561f62c" x="152.756771" y="293.76" style="stroke: #000000; stroke-width: 0.6"/>
      </g>
     </g>
    </g>
    <g id="xtick_12">
     <g id="line2d_43">
      <path d="M 185.66369 293.76 
L 185.66369 3.456 
" clip-path="url(#p8f14561c33)" style="fill: none; stroke: #b0b0b0; stroke-width: 0.8; stroke-linecap: square"/>
     </g>
     <g id="line2d_44">
      <g>
       <use xlink:href="#mecf561f62c" x="185.66369" y="293.76" style="stroke: #000000; stroke-width: 0.6"/>
      </g>
     </g>
    </g>
    <g id="xtick_13">
     <g id="line2d_45">
      <path d="M 202.373118 293.76 
L 202.373118 3.456 
" clip-path="url(#p8f14561c33)" style="fill: none; stroke: #b0b0b0; stroke-width: 0.8; stroke-linecap: square"/>
     </g>
     <g id="line2d_46">
      <g>
       <use xlink:href="#mecf561f62c" x="202.373118" y="293.76" style="stroke: #000000; stroke-width: 0.6"/>
      </g>
     </g>
    </g>
    <g id="xtick_14">
     <g id="line2d_47">
      <path d="M 214.228647 293.76 
L 214.228647 3.456 
" clip-path="url(#p8f14561c33)" style="fill: none; stroke: #b0b0b0; stroke-width: 0.8; stroke-linecap: square"/>
     </g>
     <g id="line2d_48">
      <g>
       <use xlink:href="#mecf561f62c" x="214.228647" y="293.76" style="stroke: #000000; stroke-width: 0.6"/>
      </g>
     </g>
    </g>
    <g id="xtick_15">
     <g id="line2d_49">
      <path d="M 223.424509 293.76 
L 223.424509 3.456 
" clip-path="url(#p8f14561c33)" style="fill: none; stroke: #b0b0b0; stroke-width: 0.8; stroke-linecap: square"/>
     </g>
     <g id="line2d_50">
      <g>
       <use xlink:href="#mecf561f62c" x="223.424509" y="293.76" style="stroke: #000000; stroke-width: 0.6"/>
      </g>
     </g>
    </g>
    <g id="xtick_16">
     <g id="line2d_51">
      <path d="M 230.938075 293.76 
L 230.938075 3.456 
" clip-path="url(#p8f14561c33)" style="fill: none; stroke: #b0b0b0; stroke-width: 0.8; stroke-linecap: square"/>
     </g>
     <g id="line2d_52">
      <g>
       <use xlink:href="#mecf561f62c" x="230.938075" y="293.76" style="stroke: #000000; stroke-width: 0.6"/>
      </g>
     </g>
    </g>
    <g id="xtick_17">
     <g id="line2d_53">
      <path d="M 237.290705 293.76 
L 237.290705 3.456 
" clip-path="url(#p8f14561c33)" style="fill: none; stroke: #b0b0b0; stroke-width: 0.8; stroke-linecap: square"/>
     </g>
     <g id="line2d_54">
      <g>
       <use xlink:href="#mecf561f62c" x="237.290705" y="293.76" style="stroke: #000000; stroke-width: 0.6"/>
      </g>
     </g>
    </g>
    <g id="xtick_18">
     <g id="line2d_55">
      <path d="M 242.793604 293.76 
L 242.793604 3.456 
" clip-path="url(#p8f14561c33)" style="fill: none; stroke: #b0b0b0; stroke-width: 0.8; stroke-linecap: square"/>
     </g>
     <g id="line2d_56">
      <g>
       <use xlink:href="#mecf561f62c" x="242.793604" y="293.76" style="stroke: #000000; stroke-width: 0.6"/>
      </g>
     </g>
    </g>
    <g id="xtick_19">
     <g id="line2d_57">
      <path d="M 247.647504 293.76 
L 247.647504 3.456 
" clip-path="url(#p8f14561c33)" style="fill: none; stroke: #b0b0b0; stroke-width: 0.8; stroke-linecap: square"/>
     </g>
     <g id="line2d_58">
      <g>
       <use xlink:href="#mecf561f62c" x="247.647504" y="293.76" style="stroke: #000000; stroke-width: 0.6"/>
      </g>
     </g>
    </g>
    <g id="xtick_20">
     <g id="line2d_59">
      <path d="M 280.554423 293.76 
L 280.554423 3.456 
" clip-path="url(#p8f14561c33)" style="fill: none; stroke: #b0b0b0; stroke-width: 0.8; stroke-linecap: square"/>
     </g>
     <g id="line2d_60">
      <g>
       <use xlink:href="#mecf561f62c" x="280.554423" y="293.76" style="stroke: #000000; stroke-width: 0.6"/>
      </g>
     </g>
    </g>
    <g id="xtick_21">
     <g id="line2d_61">
      <path d="M 297.263851 293.76 
L 297.263851 3.456 
" clip-path="url(#p8f14561c33)" style="fill: none; stroke: #b0b0b0; stroke-width: 0.8; stroke-linecap: square"/>
     </g>
     <g id="line2d_62">
      <g>
       <use xlink:href="#mecf561f62c" x="297.263851" y="293.76" style="stroke: #000000; stroke-width: 0.6"/>
      </g>
     </g>
    </g>
    <g id="xtick_22">
     <g id="line2d_63">
      <path d="M 309.11938 293.76 
L 309.11938 3.456 
" clip-path="url(#p8f14561c33)" style="fill: none; stroke: #b0b0b0; stroke-width: 0.8; stroke-linecap: square"/>
     </g>
     <g id="line2d_64">
      <g>
       <use xlink:href="#mecf561f62c" x="309.11938" y="293.76" style="stroke: #000000; stroke-width: 0.6"/>
      </g>
     </g>
    </g>
    <g id="xtick_23">
     <g id="line2d_65">
      <path d="M 318.315242 293.76 
L 318.315242 3.456 
" clip-path="url(#p8f14561c33)" style="fill: none; stroke: #b0b0b0; stroke-width: 0.8; stroke-linecap: square"/>
     </g>
     <g id="line2d_66">
      <g>
       <use xlink:href="#mecf561f62c" x="318.315242" y="293.76" style="stroke: #000000; stroke-width: 0.6"/>
      </g>
     </g>
    </g>
    <g id="xtick_24">
     <g id="line2d_67">
      <path d="M 325.828808 293.76 
L 325.828808 3.456 
" clip-path="url(#p8f14561c33)" style="fill: none; stroke: #b0b0b0; stroke-width: 0.8; stroke-linecap: square"/>
     </g>
     <g id="line2d_68">
      <g>
       <use xlink:href="#mecf561f62c" x="325.828808" y="293.76" style="stroke: #000000; stroke-width: 0.6"/>
      </g>
     </g>
    </g>
    <g id="xtick_25">
     <g id="line2d_69">
      <path d="M 332.181438 293.76 
L 332.181438 3.456 
" clip-path="url(#p8f14561c33)" style="fill: none; stroke: #b0b0b0; stroke-width: 0.8; stroke-linecap: square"/>
     </g>
     <g id="line2d_70">
      <g>
       <use xlink:href="#mecf561f62c" x="332.181438" y="293.76" style="stroke: #000000; stroke-width: 0.6"/>
      </g>
     </g>
    </g>
    <g id="xtick_26">
     <g id="line2d_71">
      <path d="M 337.684337 293.76 
L 337.684337 3.456 
" clip-path="url(#p8f14561c33)" style="fill: none; stroke: #b0b0b0; stroke-width: 0.8; stroke-linecap: square"/>
     </g>
     <g id="line2d_72">
      <g>
       <use xlink:href="#mecf561f62c" x="337.684337" y="293.76" style="stroke: #000000; stroke-width: 0.6"/>
      </g>
     </g>
    </g>
    <g id="xtick_27">
     <g id="line2d_73">
      <path d="M 342.538237 293.76 
L 342.538237 3.456 
" clip-path="url(#p8f14561c33)" style="fill: none; stroke: #b0b0b0; stroke-width: 0.8; stroke-linecap: square"/>
     </g>
     <g id="line2d_74">
      <g>
       <use xlink:href="#mecf561f62c" x="342.538237" y="293.76" style="stroke: #000000; stroke-width: 0.6"/>
      </g>
     </g>
    </g>
    <g id="xtick_28">
     <g id="line2d_75">
      <path d="M 375.445156 293.76 
L 375.445156 3.456 
" clip-path="url(#p8f14561c33)" style="fill: none; stroke: #b0b0b0; stroke-width: 0.8; stroke-linecap: square"/>
     </g>
     <g id="line2d_76">
      <g>
       <use xlink:href="#mecf561f62c" x="375.445156" y="293.76" style="stroke: #000000; stroke-width: 0.6"/>
      </g>
     </g>
    </g>
    <g id="xtick_29">
     <g id="line2d_77">
      <path d="M 392.154584 293.76 
L 392.154584 3.456 
" clip-path="url(#p8f14561c33)" style="fill: none; stroke: #b0b0b0; stroke-width: 0.8; stroke-linecap: square"/>
     </g>
     <g id="line2d_78">
      <g>
       <use xlink:href="#mecf561f62c" x="392.154584" y="293.76" style="stroke: #000000; stroke-width: 0.6"/>
      </g>
     </g>
    </g>
    <g id="xtick_30">
     <g id="line2d_79">
      <path d="M 404.010113 293.76 
L 404.010113 3.456 
" clip-path="url(#p8f14561c33)" style="fill: none; stroke: #b0b0b0; stroke-width: 0.8; stroke-linecap: square"/>
     </g>
     <g id="line2d_80">
      <g>
       <use xlink:href="#mecf561f62c" x="404.010113" y="293.76" style="stroke: #000000; stroke-width: 0.6"/>
      </g>
     </g>
    </g>
    <g id="xtick_31">
     <g id="line2d_81">
      <path d="M 413.205975 293.76 
L 413.205975 3.456 
" clip-path="url(#p8f14561c33)" style="fill: none; stroke: #b0b0b0; stroke-width: 0.8; stroke-linecap: square"/>
     </g>
     <g id="line2d_82">
      <g>
       <use xlink:href="#mecf561f62c" x="413.205975" y="293.76" style="stroke: #000000; stroke-width: 0.6"/>
      </g>
     </g>
    </g>
    <g id="xtick_32">
     <g id="line2d_83">
      <path d="M 420.719541 293.76 
L 420.719541 3.456 
" clip-path="url(#p8f14561c33)" style="fill: none; stroke: #b0b0b0; stroke-width: 0.8; stroke-linecap: square"/>
     </g>
     <g id="line2d_84">
      <g>
       <use xlink:href="#mecf561f62c" x="420.719541" y="293.76" style="stroke: #000000; stroke-width: 0.6"/>
      </g>
     </g>
    </g>
    <g id="xtick_33">
     <g id="line2d_85">
      <path d="M 427.072171 293.76 
L 427.072171 3.456 
" clip-path="url(#p8f14561c33)" style="fill: none; stroke: #b0b0b0; stroke-width: 0.8; stroke-linecap: square"/>
     </g>
     <g id="line2d_86">
      <g>
       <use xlink:href="#mecf561f62c" x="427.072171" y="293.76" style="stroke: #000000; stroke-width: 0.6"/>
      </g>
     </g>
    </g>
    <g id="xtick_34">
     <g id="line2d_87">
      <path d="M 432.57507 293.76 
L 432.57507 3.456 
" clip-path="url(#p8f14561c33)" style="fill: none; stroke: #b0b0b0; stroke-width: 0.8; stroke-linecap: square"/>
     </g>
     <g id="line2d_88">
      <g>
       <use xlink:href="#mecf561f62c" x="432.57507" y="293.76" style="stroke: #000000; stroke-width: 0.6"/>
      </g>
     </g>
    </g>
    <g id="xtick_35">
     <g id="line2d_89">
      <path d="M 437.42897 293.76 
L 437.42897 3.456 
" clip-path="url(#p8f14561c33)" style="fill: none; stroke: #b0b0b0; stroke-width: 0.8; stroke-linecap: square"/>
     </g>
     <g id="line2d_90">
      <g>
       <use xlink:href="#mecf561f62c" x="437.42897" y="293.76" style="stroke: #000000; stroke-width: 0.6"/>
      </g>
     </g>
    </g>
    <g id="text_4">
     <!-- log10 of FEvals / DIM -->
     <g transform="translate(156.430563 339.313125) scale(0.2 -0.2)">
      <defs>
       <path id="DejaVuSans-6c" d="M 603 4863 
L 1178 4863 
L 1178 0 
L 603 0 
L 603 4863 
z
" transform="scale(0.015625)"/>
       <path id="DejaVuSans-6f" d="M 1959 3097 
Q 1497 3097 1228 2736 
Q 959 2375 959 1747 
Q 959 1119 1226 758 
Q 1494 397 1959 397 
Q 2419 397 2687 759 
Q 2956 1122 2956 1747 
Q 2956 2369 2687 2733 
Q 2419 3097 1959 3097 
z
M 1959 3584 
Q 2709 3584 3137 3096 
Q 3566 2609 3566 1747 
Q 3566 888 3137 398 
Q 2709 -91 1959 -91 
Q 1206 -91 779 398 
Q 353 888 353 1747 
Q 353 2609 779 3096 
Q 1206 3584 1959 3584 
z
" transform="scale(0.015625)"/>
       <path id="DejaVuSans-67" d="M 2906 1791 
Q 2906 2416 2648 2759 
Q 2391 3103 1925 3103 
Q 1463 3103 1205 2759 
Q 947 2416 947 1791 
Q 947 1169 1205 825 
Q 1463 481 1925 481 
Q 2391 481 2648 825 
Q 2906 1169 2906 1791 
z
M 3481 434 
Q 3481 -459 3084 -895 
Q 2688 -1331 1869 -1331 
Q 1566 -1331 1297 -1286 
Q 1028 -1241 775 -1147 
L 775 -588 
Q 1028 -725 1275 -790 
Q 1522 -856 1778 -856 
Q 2344 -856 2625 -561 
Q 2906 -266 2906 331 
L 2906 616 
Q 2728 306 2450 153 
Q 2172 0 1784 0 
Q 1141 0 747 490 
Q 353 981 353 1791 
Q 353 2603 747 3093 
Q 1141 3584 1784 3584 
Q 2172 3584 2450 3431 
Q 2728 3278 2906 2969 
L 2906 3500 
L 3481 3500 
L 3481 434 
z
" transform="scale(0.015625)"/>
       <path id="DejaVuSans-31" d="M 794 531 
L 1825 531 
L 1825 4091 
L 703 3866 
L 703 4441 
L 1819 4666 
L 2450 4666 
L 2450 531 
L 3481 531 
L 3481 0 
L 794 0 
L 794 531 
z
" transform="scale(0.015625)"/>
       <path id="DejaVuSans-20" transform="scale(0.015625)"/>
       <path id="DejaVuSans-66" d="M 2375 4863 
L 2375 4384 
L 1825 4384 
Q 1516 4384 1395 4259 
Q 1275 4134 1275 3809 
L 1275 3500 
L 2222 3500 
L 2222 3053 
L 1275 3053 
L 1275 0 
L 697 0 
L 697 3053 
L 147 3053 
L 147 3500 
L 697 3500 
L 697 3744 
Q 697 4328 969 4595 
Q 1241 4863 1831 4863 
L 2375 4863 
z
" transform="scale(0.015625)"/>
       <path id="DejaVuSans-46" d="M 628 4666 
L 3309 4666 
L 3309 4134 
L 1259 4134 
L 1259 2759 
L 3109 2759 
L 3109 2228 
L 1259 2228 
L 1259 0 
L 628 0 
L 628 4666 
z
" transform="scale(0.015625)"/>
       <path id="DejaVuSans-45" d="M 628 4666 
L 3578 4666 
L 3578 4134 
L 1259 4134 
L 1259 2753 
L 3481 2753 
L 3481 2222 
L 1259 2222 
L 1259 531 
L 3634 531 
L 3634 0 
L 628 0 
L 628 4666 
z
" transform="scale(0.015625)"/>
       <path id="DejaVuSans-76" d="M 191 3500 
L 800 3500 
L 1894 563 
L 2988 3500 
L 3597 3500 
L 2284 0 
L 1503 0 
L 191 3500 
z
" transform="scale(0.015625)"/>
       <path id="DejaVuSans-61" d="M 2194 1759 
Q 1497 1759 1228 1600 
Q 959 1441 959 1056 
Q 959 750 1161 570 
Q 1363 391 1709 391 
Q 2188 391 2477 730 
Q 2766 1069 2766 1631 
L 2766 1759 
L 2194 1759 
z
M 3341 1997 
L 3341 0 
L 2766 0 
L 2766 531 
Q 2569 213 2275 61 
Q 1981 -91 1556 -91 
Q 1019 -91 701 211 
Q 384 513 384 1019 
Q 384 1609 779 1909 
Q 1175 2209 1959 2209 
L 2766 2209 
L 2766 2266 
Q 2766 2663 2505 2880 
Q 2244 3097 1772 3097 
Q 1472 3097 1187 3025 
Q 903 2953 641 2809 
L 641 3341 
Q 956 3463 1253 3523 
Q 1550 3584 1831 3584 
Q 2591 3584 2966 3190 
Q 3341 2797 3341 1997 
z
" transform="scale(0.015625)"/>
       <path id="DejaVuSans-73" d="M 2834 3397 
L 2834 2853 
Q 2591 2978 2328 3040 
Q 2066 3103 1784 3103 
Q 1356 3103 1142 2972 
Q 928 2841 928 2578 
Q 928 2378 1081 2264 
Q 1234 2150 1697 2047 
L 1894 2003 
Q 2506 1872 2764 1633 
Q 3022 1394 3022 966 
Q 3022 478 2636 193 
Q 2250 -91 1575 -91 
Q 1294 -91 989 -36 
Q 684 19 347 128 
L 347 722 
Q 666 556 975 473 
Q 1284 391 1588 391 
Q 1994 391 2212 530 
Q 2431 669 2431 922 
Q 2431 1156 2273 1281 
Q 2116 1406 1581 1522 
L 1381 1569 
Q 847 1681 609 1914 
Q 372 2147 372 2553 
Q 372 3047 722 3315 
Q 1072 3584 1716 3584 
Q 2034 3584 2315 3537 
Q 2597 3491 2834 3397 
z
" transform="scale(0.015625)"/>
       <path id="DejaVuSans-2f" d="M 1625 4666 
L 2156 4666 
L 531 -594 
L 0 -594 
L 1625 4666 
z
" transform="scale(0.015625)"/>
       <path id="DejaVuSans-44" d="M 1259 4147 
L 1259 519 
L 2022 519 
Q 2988 519 3436 956 
Q 3884 1394 3884 2338 
Q 3884 3275 3436 3711 
Q 2988 4147 2022 4147 
L 1259 4147 
z
M 628 4666 
L 1925 4666 
Q 3281 4666 3915 4102 
Q 4550 3538 4550 2338 
Q 4550 1131 3912 565 
Q 3275 0 1925 0 
L 628 0 
L 628 4666 
z
" transform="scale(0.015625)"/>
       <path id="DejaVuSans-49" d="M 628 4666 
L 1259 4666 
L 1259 0 
L 628 0 
L 628 4666 
z
" transform="scale(0.015625)"/>
       <path id="DejaVuSans-4d" d="M 628 4666 
L 1569 4666 
L 2759 1491 
L 3956 4666 
L 4897 4666 
L 4897 0 
L 4281 0 
L 4281 4097 
L 3078 897 
L 2444 897 
L 1241 4097 
L 1241 0 
L 628 0 
L 628 4666 
z
" transform="scale(0.015625)"/>
      </defs>
      <use xlink:href="#DejaVuSans-6c"/>
      <use xlink:href="#DejaVuSans-6f" x="27.783203"/>
      <use xlink:href="#DejaVuSans-67" x="88.964844"/>
      <use xlink:href="#DejaVuSans-31" x="152.441406"/>
      <use xlink:href="#DejaVuSans-30" x="216.064453"/>
      <use xlink:href="#DejaVuSans-20" x="279.6875"/>
      <use xlink:href="#DejaVuSans-6f" x="311.474609"/>
      <use xlink:href="#DejaVuSans-66" x="372.65625"/>
      <use xlink:href="#DejaVuSans-20" x="407.861328"/>
      <use xlink:href="#DejaVuSans-46" x="439.648438"/>
      <use xlink:href="#DejaVuSans-45" x="497.167969"/>
      <use xlink:href="#DejaVuSans-76" x="560.351562"/>
      <use xlink:href="#DejaVuSans-61" x="619.53125"/>
      <use xlink:href="#DejaVuSans-6c" x="680.810547"/>
      <use xlink:href="#DejaVuSans-73" x="708.59375"/>
      <use xlink:href="#DejaVuSans-20" x="760.693359"/>
      <use xlink:href="#DejaVuSans-2f" x="792.480469"/>
      <use xlink:href="#DejaVuSans-20" x="826.171875"/>
      <use xlink:href="#DejaVuSans-44" x="857.958984"/>
      <use xlink:href="#DejaVuSans-49" x="934.960938"/>
      <use xlink:href="#DejaVuSans-4d" x="964.453125"/>
     </g>
    </g>
   </g>
   <g id="matplotlib.axis_2">
    <g id="ytick_1">
     <g id="line2d_91">
      <path d="M 62.208 293.76 
L 460.8 293.76 
" clip-path="url(#p8f14561c33)" style="fill: none; stroke: #b0b0b0; stroke-width: 0.8; stroke-linecap: square"/>
     </g>
     <g id="line2d_92">
      <defs>
       <path id="m8ac070d32b" d="M 0 0 
L -3.5 0 
" style="stroke: #000000; stroke-width: 0.8"/>
      </defs>
      <g>
       <use xlink:href="#m8ac070d32b" x="62.208" y="293.76" style="stroke: #000000; stroke-width: 0.8"/>
      </g>
     </g>
     <g id="text_5">
      <!-- 0.0 -->
      <g transform="translate(29.763 299.83875) scale(0.16 -0.16)">
       <defs>
        <path id="DejaVuSans-2e" d="M 684 794 
L 1344 794 
L 1344 0 
L 684 0 
L 684 794 
z
" transform="scale(0.015625)"/>
       </defs>
       <use xlink:href="#DejaVuSans-30"/>
       <use xlink:href="#DejaVuSans-2e" x="63.623047"/>
       <use xlink:href="#DejaVuSans-30" x="95.410156"/>
      </g>
     </g>
    </g>
    <g id="ytick_2">
     <g id="line2d_93">
      <path d="M 62.208 236.274059 
L 460.8 236.274059 
" clip-path="url(#p8f14561c33)" style="fill: none; stroke: #b0b0b0; stroke-width: 0.8; stroke-linecap: square"/>
     </g>
     <g id="line2d_94">
      <g>
       <use xlink:href="#m8ac070d32b" x="62.208" y="236.274059" style="stroke: #000000; stroke-width: 0.8"/>
      </g>
     </g>
     <g id="text_6">
      <!-- 0.2 -->
      <g transform="translate(29.763 242.352809) scale(0.16 -0.16)">
       <use xlink:href="#DejaVuSans-30"/>
       <use xlink:href="#DejaVuSans-2e" x="63.623047"/>
       <use xlink:href="#DejaVuSans-32" x="95.410156"/>
      </g>
     </g>
    </g>
    <g id="ytick_3">
     <g id="line2d_95">
      <path d="M 62.208 178.788119 
L 460.8 178.788119 
" clip-path="url(#p8f14561c33)" style="fill: none; stroke: #b0b0b0; stroke-width: 0.8; stroke-linecap: square"/>
     </g>
     <g id="line2d_96">
      <g>
       <use xlink:href="#m8ac070d32b" x="62.208" y="178.788119" style="stroke: #000000; stroke-width: 0.8"/>
      </g>
     </g>
     <g id="text_7">
      <!-- 0.4 -->
      <g transform="translate(29.763 184.866869) scale(0.16 -0.16)">
       <use xlink:href="#DejaVuSans-30"/>
       <use xlink:href="#DejaVuSans-2e" x="63.623047"/>
       <use xlink:href="#DejaVuSans-34" x="95.410156"/>
      </g>
     </g>
    </g>
    <g id="ytick_4">
     <g id="line2d_97">
      <path d="M 62.208 121.302178 
L 460.8 121.302178 
" clip-path="url(#p8f14561c33)" style="fill: none; stroke: #b0b0b0; stroke-width: 0.8; stroke-linecap: square"/>
     </g>
     <g id="line2d_98">
      <g>
       <use xlink:href="#m8ac070d32b" x="62.208" y="121.302178" style="stroke: #000000; stroke-width: 0.8"/>
      </g>
     </g>
     <g id="text_8">
      <!-- 0.6 -->
      <g transform="translate(29.763 127.380928) scale(0.16 -0.16)">
       <defs>
        <path id="DejaVuSans-36" d="M 2113 2584 
Q 1688 2584 1439 2293 
Q 1191 2003 1191 1497 
Q 1191 994 1439 701 
Q 1688 409 2113 409 
Q 2538 409 2786 701 
Q 3034 994 3034 1497 
Q 3034 2003 2786 2293 
Q 2538 2584 2113 2584 
z
M 3366 4563 
L 3366 3988 
Q 3128 4100 2886 4159 
Q 2644 4219 2406 4219 
Q 1781 4219 1451 3797 
Q 1122 3375 1075 2522 
Q 1259 2794 1537 2939 
Q 1816 3084 2150 3084 
Q 2853 3084 3261 2657 
Q 3669 2231 3669 1497 
Q 3669 778 3244 343 
Q 2819 -91 2113 -91 
Q 1303 -91 875 529 
Q 447 1150 447 2328 
Q 447 3434 972 4092 
Q 1497 4750 2381 4750 
Q 2619 4750 2861 4703 
Q 3103 4656 3366 4563 
z
" transform="scale(0.015625)"/>
       </defs>
       <use xlink:href="#DejaVuSans-30"/>
       <use xlink:href="#DejaVuSans-2e" x="63.623047"/>
       <use xlink:href="#DejaVuSans-36" x="95.410156"/>
      </g>
     </g>
    </g>
    <g id="ytick_5">
     <g id="line2d_99">
      <path d="M 62.208 63.816238 
L 460.8 63.816238 
" clip-path="url(#p8f14561c33)" style="fill: none; stroke: #b0b0b0; stroke-width: 0.8; stroke-linecap: square"/>
     </g>
     <g id="line2d_100">
      <g>
       <use xlink:href="#m8ac070d32b" x="62.208" y="63.816238" style="stroke: #000000; stroke-width: 0.8"/>
      </g>
     </g>
     <g id="text_9">
      <!-- 0.8 -->
      <g transform="translate(29.763 69.894988) scale(0.16 -0.16)">
       <defs>
        <path id="DejaVuSans-38" d="M 2034 2216 
Q 1584 2216 1326 1975 
Q 1069 1734 1069 1313 
Q 1069 891 1326 650 
Q 1584 409 2034 409 
Q 2484 409 2743 651 
Q 3003 894 3003 1313 
Q 3003 1734 2745 1975 
Q 2488 2216 2034 2216 
z
M 1403 2484 
Q 997 2584 770 2862 
Q 544 3141 544 3541 
Q 544 4100 942 4425 
Q 1341 4750 2034 4750 
Q 2731 4750 3128 4425 
Q 3525 4100 3525 3541 
Q 3525 3141 3298 2862 
Q 3072 2584 2669 2484 
Q 3125 2378 3379 2068 
Q 3634 1759 3634 1313 
Q 3634 634 3220 271 
Q 2806 -91 2034 -91 
Q 1263 -91 848 271 
Q 434 634 434 1313 
Q 434 1759 690 2068 
Q 947 2378 1403 2484 
z
M 1172 3481 
Q 1172 3119 1398 2916 
Q 1625 2713 2034 2713 
Q 2441 2713 2670 2916 
Q 2900 3119 2900 3481 
Q 2900 3844 2670 4047 
Q 2441 4250 2034 4250 
Q 1625 4250 1398 4047 
Q 1172 3844 1172 3481 
z
" transform="scale(0.015625)"/>
       </defs>
       <use xlink:href="#DejaVuSans-30"/>
       <use xlink:href="#DejaVuSans-2e" x="63.623047"/>
       <use xlink:href="#DejaVuSans-38" x="95.410156"/>
      </g>
     </g>
    </g>
    <g id="ytick_6">
     <g id="line2d_101">
      <path d="M 62.208 6.330297 
L 460.8 6.330297 
" clip-path="url(#p8f14561c33)" style="fill: none; stroke: #b0b0b0; stroke-width: 0.8; stroke-linecap: square"/>
     </g>
     <g id="line2d_102">
      <g>
       <use xlink:href="#m8ac070d32b" x="62.208" y="6.330297" style="stroke: #000000; stroke-width: 0.8"/>
      </g>
     </g>
     <g id="text_10">
      <!-- 1.0 -->
      <g transform="translate(29.763 12.409047) scale(0.16 -0.16)">
       <use xlink:href="#DejaVuSans-31"/>
       <use xlink:href="#DejaVuSans-2e" x="63.623047"/>
       <use xlink:href="#DejaVuSans-30" x="95.410156"/>
      </g>
     </g>
    </g>
    <g id="text_11">
     <!-- proportion of trials -->
     <g transform="translate(21.603625 241.61425) rotate(-90) scale(0.2 -0.2)">
      <defs>
       <path id="DejaVuSans-70" d="M 1159 525 
L 1159 -1331 
L 581 -1331 
L 581 3500 
L 1159 3500 
L 1159 2969 
Q 1341 3281 1617 3432 
Q 1894 3584 2278 3584 
Q 2916 3584 3314 3078 
Q 3713 2572 3713 1747 
Q 3713 922 3314 415 
Q 2916 -91 2278 -91 
Q 1894 -91 1617 61 
Q 1341 213 1159 525 
z
M 3116 1747 
Q 3116 2381 2855 2742 
Q 2594 3103 2138 3103 
Q 1681 3103 1420 2742 
Q 1159 2381 1159 1747 
Q 1159 1113 1420 752 
Q 1681 391 2138 391 
Q 2594 391 2855 752 
Q 3116 1113 3116 1747 
z
" transform="scale(0.015625)"/>
       <path id="DejaVuSans-72" d="M 2631 2963 
Q 2534 3019 2420 3045 
Q 2306 3072 2169 3072 
Q 1681 3072 1420 2755 
Q 1159 2438 1159 1844 
L 1159 0 
L 581 0 
L 581 3500 
L 1159 3500 
L 1159 2956 
Q 1341 3275 1631 3429 
Q 1922 3584 2338 3584 
Q 2397 3584 2469 3576 
Q 2541 3569 2628 3553 
L 2631 2963 
z
" transform="scale(0.015625)"/>
       <path id="DejaVuSans-74" d="M 1172 4494 
L 1172 3500 
L 2356 3500 
L 2356 3053 
L 1172 3053 
L 1172 1153 
Q 1172 725 1289 603 
Q 1406 481 1766 481 
L 2356 481 
L 2356 0 
L 1766 0 
Q 1100 0 847 248 
Q 594 497 594 1153 
L 594 3053 
L 172 3053 
L 172 3500 
L 594 3500 
L 594 4494 
L 1172 4494 
z
" transform="scale(0.015625)"/>
       <path id="DejaVuSans-69" d="M 603 3500 
L 1178 3500 
L 1178 0 
L 603 0 
L 603 3500 
z
M 603 4863 
L 1178 4863 
L 1178 4134 
L 603 4134 
L 603 4863 
z
" transform="scale(0.015625)"/>
       <path id="DejaVuSans-6e" d="M 3513 2113 
L 3513 0 
L 2938 0 
L 2938 2094 
Q 2938 2591 2744 2837 
Q 2550 3084 2163 3084 
Q 1697 3084 1428 2787 
Q 1159 2491 1159 1978 
L 1159 0 
L 581 0 
L 581 3500 
L 1159 3500 
L 1159 2956 
Q 1366 3272 1645 3428 
Q 1925 3584 2291 3584 
Q 2894 3584 3203 3211 
Q 3513 2838 3513 2113 
z
" transform="scale(0.015625)"/>
      </defs>
      <use xlink:href="#DejaVuSans-70"/>
      <use xlink:href="#DejaVuSans-72" x="63.476562"/>
      <use xlink:href="#DejaVuSans-6f" x="102.339844"/>
      <use xlink:href="#DejaVuSans-70" x="163.521484"/>
      <use xlink:href="#DejaVuSans-6f" x="226.998047"/>
      <use xlink:href="#DejaVuSans-72" x="288.179688"/>
      <use xlink:href="#DejaVuSans-74" x="329.292969"/>
      <use xlink:href="#DejaVuSans-69" x="368.501953"/>
      <use xlink:href="#DejaVuSans-6f" x="396.285156"/>
      <use xlink:href="#DejaVuSans-6e" x="457.466797"/>
      <use xlink:href="#DejaVuSans-20" x="520.845703"/>
      <use xlink:href="#DejaVuSans-6f" x="552.632812"/>
      <use xlink:href="#DejaVuSans-66" x="613.814453"/>
      <use xlink:href="#DejaVuSans-20" x="649.019531"/>
      <use xlink:href="#DejaVuSans-74" x="680.806641"/>
      <use xlink:href="#DejaVuSans-72" x="720.015625"/>
      <use xlink:href="#DejaVuSans-69" x="761.128906"/>
      <use xlink:href="#DejaVuSans-61" x="788.912109"/>
      <use xlink:href="#DejaVuSans-6c" x="850.191406"/>
      <use xlink:href="#DejaVuSans-73" x="877.974609"/>
     </g>
    </g>
   </g>
   <g id="line2d_103">
    <path d="M -1 289.927604 
L 9.005868 289.927604 
L 9.005868 286.095208 
L 33.643043 286.095208 
L 33.643043 282.262812 
L 44.455211 282.262812 
L 44.455211 278.430416 
L 66.135782 278.430416 
L 66.135782 274.59802 
L 69.721566 274.59802 
L 69.721566 270.765624 
L 88.113291 270.765624 
L 88.113291 266.933228 
L 93.753329 266.933228 
L 93.753329 263.100832 
L 102.757067 263.100832 
L 102.757067 259.268436 
L 103.520247 259.268436 
L 103.520247 255.43604 
L 105.728482 255.43604 
L 105.728482 251.603644 
L 111.410168 251.603644 
L 111.410168 247.771248 
L 125.097576 247.771248 
L 125.097576 243.938851 
L 130.347735 243.938851 
L 130.347735 240.106455 
L 143.846104 240.106455 
L 143.846104 236.274059 
L 152.642138 236.274059 
L 152.642138 232.441663 
L 153.098769 232.441663 
L 153.098769 228.609267 
L 166.376934 228.609267 
L 166.376934 224.776871 
L 169.4662 224.776871 
L 169.4662 220.944475 
L 169.770338 220.944475 
L 169.770338 217.112079 
L 172.411061 217.112079 
L 172.411061 213.279683 
L 175.092925 213.279683 
L 175.092925 209.447287 
L 176.079657 209.447287 
L 176.079657 205.614891 
L 176.467828 205.614891 
L 176.467828 201.782495 
L 177.296528 201.782495 
L 177.296528 197.950099 
L 177.92284 197.950099 
L 177.92284 194.117703 
L 180.337031 194.117703 
L 180.337031 190.285307 
L 180.39561 190.285307 
L 180.39561 186.452911 
L 191.957406 186.452911 
L 191.957406 182.620515 
L 196.197542 182.620515 
L 196.197542 178.788119 
L 216.896361 178.788119 
L 216.896361 174.955723 
L 221.977641 174.955723 
L 221.977641 171.123327 
L 222.126762 171.123327 
L 222.126762 167.290931 
L 222.36001 167.290931 
L 222.36001 163.458535 
L 225.199013 163.458535 
L 225.199013 159.626139 
L 226.077735 159.626139 
L 226.077735 155.793743 
L 227.910456 155.793743 
L 227.910456 151.961347 
L 228.076442 151.961347 
L 228.076442 148.12895 
L 228.751889 148.12895 
L 228.751889 144.296554 
L 229.469861 144.296554 
L 229.469861 140.464158 
L 231.143615 140.464158 
L 231.143615 136.631762 
L 232.8013 136.631762 
L 232.8013 132.799366 
L 235.623738 132.799366 
L 235.623738 128.96697 
L 236.533165 128.96697 
L 236.533165 125.134574 
L 238.09235 125.134574 
L 238.09235 121.302178 
L 240.46231 121.302178 
L 240.46231 117.469782 
L 241.044179 117.469782 
L 241.044179 113.637386 
L 241.338732 113.637386 
L 241.338732 109.80499 
L 242.026693 109.80499 
L 242.026693 105.972594 
L 242.612912 105.972594 
L 242.612912 102.140198 
L 243.74833 102.140198 
L 243.74833 98.307802 
L 247.001413 98.307802 
L 247.001413 94.475406 
L 251.460653 94.475406 
L 251.460653 90.64301 
L 259.175484 90.64301 
L 259.175484 86.810614 
L 264.623176 86.810614 
L 264.623176 82.978218 
L 264.638338 82.978218 
L 264.638338 79.145822 
L 337.057573 79.145822 
L 337.057573 75.313426 
L 339.504457 75.313426 
L 339.504457 71.48103 
L 339.71585 71.48103 
L 339.71585 67.648634 
L 344.449575 67.648634 
L 344.449575 63.816238 
L 441.163568 63.816238 
L 441.163568 59.983842 
L 441.720624 59.983842 
L 441.720624 56.151446 
L 441.720624 56.151446 
L 441.720624 56.151446 
L 460.8 56.151446 
" clip-path="url(#p8f14561c33)" style="fill: none; stroke: #000000; stroke-width: 1.5; stroke-linecap: square"/>
   </g>
   <g id="line2d_104">
    <defs>
     <path id="m7d91d95c3c" d="M 0 14.142136 
L 8.485281 0 
L 0 -14.142136 
L -8.485281 0 
z
" style="stroke: #000000; stroke-width: 1.5; stroke-linejoin: miter"/>
    </defs>
    <g clip-path="url(#p8f14561c33)">
     <use xlink:href="#m7d91d95c3c" x="69.721566" y="274.59802" style="fill-opacity: 0; stroke: #000000; stroke-width: 1.5; stroke-linejoin: miter"/>
     <use xlink:href="#m7d91d95c3c" x="130.347735" y="243.938851" style="fill-opacity: 0; stroke: #000000; stroke-width: 1.5; stroke-linejoin: miter"/>
     <use xlink:href="#m7d91d95c3c" x="180.337031" y="194.117703" style="fill-opacity: 0; stroke: #000000; stroke-width: 1.5; stroke-linejoin: miter"/>
     <use xlink:href="#m7d91d95c3c" x="241.338732" y="113.637386" style="fill-opacity: 0; stroke: #000000; stroke-width: 1.5; stroke-linejoin: miter"/>
     <use xlink:href="#m7d91d95c3c" x="264.638338" y="82.978218" style="fill-opacity: 0; stroke: #000000; stroke-width: 1.5; stroke-linejoin: miter"/>
     <use xlink:href="#m7d91d95c3c" x="441.720624" y="59.983842" style="fill-opacity: 0; stroke: #000000; stroke-width: 1.5; stroke-linejoin: miter"/>
     <use xlink:href="#m7d91d95c3c" x="441.720624" y="56.151446" style="fill-opacity: 0; stroke: #000000; stroke-width: 1.5; stroke-linejoin: miter"/>
    </g>
   </g>
   <g id="line2d_105">
    <path clip-path="url(#p8f14561c33)" style="fill: none; stroke: #000000; stroke-width: 1.5; stroke-linecap: square"/>
    <g clip-path="url(#p8f14561c33)">
     <use xlink:href="#m7d91d95c3c" x="-1" y="581.189703" style="fill-opacity: 0; stroke: #000000; stroke-width: 1.5; stroke-linejoin: miter"/>
     <use xlink:href="#m7d91d95c3c" x="460.8" y="581.189703" style="fill-opacity: 0; stroke: #000000; stroke-width: 1.5; stroke-linejoin: miter"/>
    </g>
   </g>
   <g id="line2d_106">
    <path d="M -1 289.927604 
L 26.945553 289.927604 
L 26.945553 286.095208 
L 39.402706 286.095208 
L 39.402706 282.262812 
L 56.705102 282.262812 
L 56.705102 278.430416 
L 58.995164 278.430416 
L 58.995164 274.59802 
L 74.575467 274.59802 
L 74.575467 270.765624 
L 79.59861 270.765624 
L 79.59861 266.933228 
L 80.928097 266.933228 
L 80.928097 263.100832 
L 84.677091 263.100832 
L 84.677091 259.268436 
L 86.430995 259.268436 
L 86.430995 255.43604 
L 89.197841 255.43604 
L 89.197841 251.603644 
L 101.979487 251.603644 
L 101.979487 247.771248 
L 102.370111 247.771248 
L 102.370111 243.938851 
L 103.520247 243.938851 
L 103.520247 240.106455 
L 107.482386 240.106455 
L 107.482386 236.274059 
L 155.201238 236.274059 
L 155.201238 232.441663 
L 159.597105 232.441663 
L 159.597105 228.609267 
L 168.851106 228.609267 
L 168.851106 224.776871 
L 175.94945 224.776871 
L 175.94945 220.944475 
L 176.788534 220.944475 
L 176.788534 217.112079 
L 178.905552 217.112079 
L 178.905552 213.279683 
L 179.26811 213.279683 
L 179.26811 209.447287 
L 184.62033 209.447287 
L 184.62033 205.614891 
L 184.936121 205.614891 
L 184.936121 201.782495 
L 185.50886 201.782495 
L 185.50886 197.950099 
L 186.277257 197.950099 
L 186.277257 194.117703 
L 187.428324 194.117703 
L 187.428324 190.285307 
L 187.772362 190.285307 
L 187.772362 186.452911 
L 190.425909 186.452911 
L 190.425909 182.620515 
L 196.87022 182.620515 
L 196.87022 178.788119 
L 222.402277 178.788119 
L 222.402277 174.955723 
L 231.551643 174.955723 
L 231.551643 171.123327 
L 232.8013 171.123327 
L 232.8013 167.290931 
L 237.84623 167.290931 
L 237.84623 163.458535 
L 240.801605 163.458535 
L 240.801605 159.626139 
L 253.724477 159.626139 
L 253.724477 155.793743 
L 254.019753 155.793743 
L 254.019753 151.961347 
L 255.814093 151.961347 
L 255.814093 148.12895 
L 256.558489 148.12895 
L 256.558489 144.296554 
L 258.097049 144.296554 
L 258.097049 140.464158 
L 261.292336 140.464158 
L 261.292336 136.631762 
L 261.407266 136.631762 
L 261.407266 132.799366 
L 262.443452 132.799366 
L 262.443452 128.96697 
L 267.613246 128.96697 
L 267.613246 125.134574 
L 268.561297 125.134574 
L 268.561297 121.302178 
L 269.251515 121.302178 
L 269.251515 117.469782 
L 270.624437 117.469782 
L 270.624437 113.637386 
L 273.381492 113.637386 
L 273.381492 109.80499 
L 277.790224 109.80499 
L 277.790224 105.972594 
L 278.266715 105.972594 
L 278.266715 102.140198 
L 281.127369 102.140198 
L 281.127369 98.307802 
L 283.202819 98.307802 
L 283.202819 94.475406 
L 283.48205 94.475406 
L 283.48205 90.64301 
L 286.179484 90.64301 
L 286.179484 86.810614 
L 286.568624 86.810614 
L 286.568624 82.978218 
L 289.84496 82.978218 
L 289.84496 79.145822 
L 293.373485 79.145822 
L 293.373485 75.313426 
L 304.613969 75.313426 
L 304.613969 71.48103 
L 311.416055 71.48103 
L 311.416055 67.648634 
L 323.542916 67.648634 
L 323.542916 63.816238 
L 439.126318 63.816238 
L 439.126318 59.983842 
L 440.120069 59.983842 
L 440.120069 56.151446 
L 440.302504 56.151446 
L 440.302504 52.31905 
L 440.424354 52.31905 
L 440.424354 48.486653 
L 440.929431 48.486653 
L 440.929431 44.654257 
L 440.929431 44.654257 
L 460.8 44.654257 
L 460.8 44.654257 
" clip-path="url(#p8f14561c33)" style="fill: none; stroke: #000000; stroke-width: 1.5; stroke-linecap: square"/>
   </g>
   <g id="line2d_107">
    <defs>
     <path id="mcc8670fa3b" d="M 0 7.5 
C 1.989023 7.5 3.896849 6.709753 5.303301 5.303301 
C 6.709753 3.896849 7.5 1.989023 7.5 0 
C 7.5 -1.989023 6.709753 -3.896849 5.303301 -5.303301 
C 3.896849 -6.709753 1.989023 -7.5 0 -7.5 
C -1.989023 -7.5 -3.896849 -6.709753 -5.303301 -5.303301 
C -6.709753 -3.896849 -7.5 -1.989023 -7.5 0 
C -7.5 1.989023 -6.709753 3.896849 -5.303301 5.303301 
C -3.896849 6.709753 -1.989023 7.5 0 7.5 
z
" style="stroke: #000000; stroke-width: 1.5"/>
    </defs>
    <g clip-path="url(#p8f14561c33)">
     <use xlink:href="#mcc8670fa3b" x="84.677091" y="263.100832" style="fill-opacity: 0; stroke: #000000; stroke-width: 1.5"/>
     <use xlink:href="#mcc8670fa3b" x="168.851106" y="228.609267" style="fill-opacity: 0; stroke: #000000; stroke-width: 1.5"/>
     <use xlink:href="#mcc8670fa3b" x="232.8013" y="171.123327" style="fill-opacity: 0; stroke: #000000; stroke-width: 1.5"/>
     <use xlink:href="#mcc8670fa3b" x="270.624437" y="117.469782" style="fill-opacity: 0; stroke: #000000; stroke-width: 1.5"/>
     <use xlink:href="#mcc8670fa3b" x="311.416055" y="71.48103" style="fill-opacity: 0; stroke: #000000; stroke-width: 1.5"/>
     <use xlink:href="#mcc8670fa3b" x="440.929431" y="48.486653" style="fill-opacity: 0; stroke: #000000; stroke-width: 1.5"/>
     <use xlink:href="#mcc8670fa3b" x="440.929431" y="44.654257" style="fill-opacity: 0; stroke: #000000; stroke-width: 1.5"/>
    </g>
   </g>
   <g id="line2d_108">
    <path clip-path="url(#p8f14561c33)" style="fill: none; stroke: #000000; stroke-width: 1.5; stroke-linecap: square"/>
   </g>
   <g id="line2d_109">
    <path d="M 230.593215 293.76 
L 230.593215 289.927604 
L 234.268365 289.927604 
L 234.268365 286.095208 
L 234.990549 286.095208 
L 234.990549 282.262812 
L 240.01012 282.262812 
L 240.01012 278.430416 
L 240.380462 278.430416 
L 240.380462 274.59802 
L 240.46231 274.59802 
L 240.46231 270.765624 
L 241.365406 270.765624 
L 241.365406 266.933228 
L 241.578174 266.933228 
L 241.578174 263.100832 
L 243.873972 263.100832 
L 243.873972 259.268436 
L 244.706035 259.268436 
L 244.706035 255.43604 
L 245.231328 255.43604 
L 245.231328 251.603644 
L 248.429898 251.603644 
L 248.429898 247.771248 
L 255.284897 247.771248 
L 255.284897 243.938851 
L 261.538223 243.938851 
L 261.538223 240.106455 
L 266.8014 240.106455 
L 266.8014 236.274059 
L 336.228131 236.274059 
L 336.228131 232.441663 
L 337.437624 232.441663 
L 337.437624 228.609267 
L 338.366362 228.609267 
L 338.366362 224.776871 
L 338.439765 224.776871 
L 338.439765 220.944475 
L 338.505463 220.944475 
L 338.505463 217.112079 
L 338.698163 217.112079 
L 338.698163 213.279683 
L 338.914972 213.279683 
L 338.914972 209.447287 
L 339.216352 209.447287 
L 339.216352 205.614891 
L 339.713398 205.614891 
L 339.713398 201.782495 
L 340.096562 201.782495 
L 340.096562 197.950099 
L 340.315822 197.950099 
L 340.315822 194.117703 
L 340.736525 194.117703 
L 340.736525 190.285307 
L 341.691653 190.285307 
L 341.691653 186.452911 
L 341.768702 186.452911 
L 341.768702 182.620515 
L 342.174903 182.620515 
L 342.174903 178.788119 
L 342.507317 178.788119 
L 342.507317 174.955723 
L 342.564558 174.955723 
L 342.564558 171.123327 
L 343.120213 171.123327 
L 343.120213 167.290931 
L 344.365339 167.290931 
L 344.365339 163.458535 
L 345.043073 163.458535 
L 345.043073 159.626139 
L 345.827328 159.626139 
L 345.827328 155.793743 
L 345.976085 155.793743 
L 345.976085 151.961347 
L 346.413953 151.961347 
L 346.413953 148.12895 
L 347.337153 148.12895 
L 347.337153 144.296554 
L 347.957055 144.296554 
L 347.957055 140.464158 
L 348.863384 140.464158 
L 348.863384 136.631762 
L 349.053426 136.631762 
L 349.053426 132.799366 
L 349.066129 132.799366 
L 349.066129 128.96697 
L 349.247459 128.96697 
L 349.247459 125.134574 
L 349.668447 125.134574 
L 349.668447 121.302178 
L 349.668447 121.302178 
L 349.668447 121.302178 
L 460.8 121.302178 
" clip-path="url(#p8f14561c33)" style="fill: none; stroke: #00bfbf; stroke-width: 1.5; stroke-linecap: square"/>
   </g>
   <g id="line2d_110">
    <defs>
     <path id="m0e2ad8f0a4" d="M 0 14.142136 
L 8.485281 0 
L 0 -14.142136 
L -8.485281 0 
z
" style="stroke: #00bfbf; stroke-width: 1.5; stroke-linejoin: miter"/>
    </defs>
    <g clip-path="url(#p8f14561c33)">
     <use xlink:href="#m0e2ad8f0a4" x="261.538223" y="243.938851" style="fill-opacity: 0; stroke: #00bfbf; stroke-width: 1.5; stroke-linejoin: miter"/>
     <use xlink:href="#m0e2ad8f0a4" x="338.698163" y="217.112079" style="fill-opacity: 0; stroke: #00bfbf; stroke-width: 1.5; stroke-linejoin: miter"/>
     <use xlink:href="#m0e2ad8f0a4" x="349.668447" y="125.134574" style="fill-opacity: 0; stroke: #00bfbf; stroke-width: 1.5; stroke-linejoin: miter"/>
     <use xlink:href="#m0e2ad8f0a4" x="349.668447" y="121.302178" style="fill-opacity: 0; stroke: #00bfbf; stroke-width: 1.5; stroke-linejoin: miter"/>
    </g>
   </g>
   <g id="line2d_111">
    <path clip-path="url(#p8f14561c33)" style="fill: none; stroke: #00bfbf; stroke-width: 1.5; stroke-linecap: square"/>
    <g clip-path="url(#p8f14561c33)">
     <use xlink:href="#m0e2ad8f0a4" x="-1" y="581.189703" style="fill-opacity: 0; stroke: #00bfbf; stroke-width: 1.5; stroke-linejoin: miter"/>
     <use xlink:href="#m0e2ad8f0a4" x="460.8" y="581.189703" style="fill-opacity: 0; stroke: #00bfbf; stroke-width: 1.5; stroke-linejoin: miter"/>
    </g>
   </g>
   <g id="line2d_112">
    <path d="M 226.805449 293.76 
L 226.805449 289.927604 
L 243.178153 289.927604 
L 243.178153 286.095208 
L 245.279853 286.095208 
L 245.279853 282.262812 
L 245.977131 282.262812 
L 245.977131 278.430416 
L 248.87675 278.430416 
L 248.87675 274.59802 
L 249.897326 274.59802 
L 249.897326 270.765624 
L 256.327306 270.765624 
L 256.327306 266.933228 
L 257.316846 266.933228 
L 257.316846 263.100832 
L 257.380171 263.100832 
L 257.380171 259.268436 
L 261.201809 259.268436 
L 261.201809 255.43604 
L 262.76199 255.43604 
L 262.76199 251.603644 
L 263.469821 251.603644 
L 263.469821 247.771248 
L 264.532086 247.771248 
L 264.532086 243.938851 
L 265.060627 243.938851 
L 265.060627 240.106455 
L 265.22535 240.106455 
L 265.22535 236.274059 
L 267.330205 236.274059 
L 267.330205 232.441663 
L 269.013637 232.441663 
L 269.013637 228.609267 
L 269.149735 228.609267 
L 269.149735 224.776871 
L 270.820616 224.776871 
L 270.820616 220.944475 
L 271.093706 220.944475 
L 271.093706 217.112079 
L 272.788702 217.112079 
L 272.788702 213.279683 
L 273.123195 213.279683 
L 273.123195 209.447287 
L 274.200934 209.447287 
L 274.200934 205.614891 
L 277.751645 205.614891 
L 277.751645 201.782495 
L 279.474062 201.782495 
L 279.474062 197.950099 
L 280.140243 197.950099 
L 280.140243 194.117703 
L 284.181397 194.117703 
L 284.181397 190.285307 
L 284.65045 190.285307 
L 284.65045 186.452911 
L 288.622304 186.452911 
L 288.622304 182.620515 
L 290.254082 182.620515 
L 290.254082 178.788119 
L 293.051423 178.788119 
L 293.051423 174.955723 
L 293.131225 174.955723 
L 293.131225 171.123327 
L 293.84258 171.123327 
L 293.84258 167.290931 
L 294.306396 167.290931 
L 294.306396 163.458535 
L 295.045061 163.458535 
L 295.045061 159.626139 
L 295.305179 159.626139 
L 295.305179 155.793743 
L 295.777839 155.793743 
L 295.777839 151.961347 
L 299.933175 151.961347 
L 299.933175 148.12895 
L 300.425916 148.12895 
L 300.425916 144.296554 
L 302.702738 144.296554 
L 302.702738 140.464158 
L 308.046951 140.464158 
L 308.046951 136.631762 
L 316.570654 136.631762 
L 316.570654 132.799366 
L 354.3061 132.799366 
L 354.3061 128.96697 
L 361.58411 128.96697 
L 361.58411 125.134574 
L 409.320741 125.134574 
L 409.320741 121.302178 
L 409.320741 121.302178 
L 409.320741 121.302178 
L 460.8 121.302178 
" clip-path="url(#p8f14561c33)" style="fill: none; stroke: #00bfbf; stroke-width: 1.5; stroke-linecap: square"/>
   </g>
   <g id="line2d_113">
    <defs>
     <path id="mf24b6ecd80" d="M 0 7.5 
C 1.989023 7.5 3.896849 6.709753 5.303301 5.303301 
C 6.709753 3.896849 7.5 1.989023 7.5 0 
C 7.5 -1.989023 6.709753 -3.896849 5.303301 -5.303301 
C 3.896849 -6.709753 1.989023 -7.5 0 -7.5 
C -1.989023 -7.5 -3.896849 -6.709753 -5.303301 -5.303301 
C -6.709753 -3.896849 -7.5 -1.989023 -7.5 0 
C -7.5 1.989023 -6.709753 3.896849 -5.303301 5.303301 
C -3.896849 6.709753 -1.989023 7.5 0 7.5 
z
" style="stroke: #00bfbf; stroke-width: 1.5"/>
    </defs>
    <g clip-path="url(#p8f14561c33)">
     <use xlink:href="#mf24b6ecd80" x="265.060627" y="243.938851" style="fill-opacity: 0; stroke: #00bfbf; stroke-width: 1.5"/>
     <use xlink:href="#mf24b6ecd80" x="302.702738" y="144.296554" style="fill-opacity: 0; stroke: #00bfbf; stroke-width: 1.5"/>
     <use xlink:href="#mf24b6ecd80" x="361.58411" y="128.96697" style="fill-opacity: 0; stroke: #00bfbf; stroke-width: 1.5"/>
     <use xlink:href="#mf24b6ecd80" x="409.320741" y="121.302178" style="fill-opacity: 0; stroke: #00bfbf; stroke-width: 1.5"/>
    </g>
   </g>
   <g id="line2d_114">
    <path clip-path="url(#p8f14561c33)" style="fill: none; stroke: #00bfbf; stroke-width: 1.5; stroke-linecap: square"/>
   </g>
   <g id="line2d_115">
    <path d="M 341.866556 293.76 
L 341.866556 289.927604 
L 342.085882 289.927604 
L 342.085882 286.095208 
L 342.81661 286.095208 
L 342.81661 282.262812 
L 342.859795 282.262812 
L 342.859795 278.430416 
L 343.076171 278.430416 
L 343.076171 274.59802 
L 343.33523 274.59802 
L 343.33523 270.765624 
L 343.765261 270.765624 
L 343.765261 266.933228 
L 344.508547 266.933228 
L 344.508547 263.100832 
L 344.544544 263.100832 
L 344.544544 259.268436 
L 344.855208 259.268436 
L 344.855208 255.43604 
L 345.29973 255.43604 
L 345.29973 251.603644 
L 345.707722 251.603644 
L 345.707722 247.771248 
L 345.803011 247.771248 
L 345.803011 243.938851 
L 346.194553 243.938851 
L 346.194553 240.106455 
L 346.420204 240.106455 
L 346.420204 236.274059 
L 347.004672 236.274059 
L 347.004672 232.441663 
L 347.3616 232.441663 
L 347.3616 228.609267 
L 347.386032 228.609267 
L 347.386032 224.776871 
L 349.247459 224.776871 
L 349.247459 220.944475 
L 350.354995 220.944475 
L 350.354995 217.112079 
L 350.589173 217.112079 
L 350.589173 213.279683 
L 350.886581 213.279683 
L 350.886581 209.447287 
L 351.890402 209.447287 
L 351.890402 205.614891 
L 352.212106 205.614891 
L 352.212106 201.782495 
L 352.289882 201.782495 
L 352.289882 197.950099 
L 352.915763 197.950099 
L 352.915763 194.117703 
L 352.929109 194.117703 
L 352.929109 190.285307 
L 353.129673 190.285307 
L 353.129673 186.452911 
L 354.104277 186.452911 
L 354.104277 182.620515 
L 354.835264 182.620515 
L 354.835264 178.788119 
L 354.962478 178.788119 
L 354.962478 174.955723 
L 355.145822 174.955723 
L 355.145822 171.123327 
L 355.194688 171.123327 
L 355.194688 167.290931 
L 355.304846 167.290931 
L 355.304846 163.458535 
L 355.614399 163.458535 
L 355.614399 159.626139 
L 355.6269 159.626139 
L 355.6269 155.793743 
L 358.035675 155.793743 
L 358.035675 151.961347 
L 375.900072 151.961347 
L 375.900072 148.12895 
L 394.055867 148.12895 
L 394.055867 144.296554 
L 398.019528 144.296554 
L 398.019528 140.464158 
L 398.147114 140.464158 
L 398.147114 136.631762 
L 399.351851 136.631762 
L 399.351851 132.799366 
L 399.560692 132.799366 
L 399.560692 128.96697 
L 399.800727 128.96697 
L 399.800727 125.134574 
L 400.455599 125.134574 
L 400.455599 121.302178 
L 400.455599 121.302178 
L 400.455599 121.302178 
L 460.8 121.302178 
" clip-path="url(#p8f14561c33)" style="fill: none; stroke: #bf00bf; stroke-width: 1.5; stroke-linecap: square"/>
   </g>
   <g id="line2d_116">
    <defs>
     <path id="m0194ec179a" d="M 0 14.142136 
L 8.485281 0 
L 0 -14.142136 
L -8.485281 0 
z
" style="stroke: #bf00bf; stroke-width: 1.5; stroke-linejoin: miter"/>
    </defs>
    <g clip-path="url(#p8f14561c33)">
     <use xlink:href="#m0194ec179a" x="355.194688" y="171.123327" style="fill-opacity: 0; stroke: #bf00bf; stroke-width: 1.5; stroke-linejoin: miter"/>
     <use xlink:href="#m0194ec179a" x="400.455599" y="125.134574" style="fill-opacity: 0; stroke: #bf00bf; stroke-width: 1.5; stroke-linejoin: miter"/>
     <use xlink:href="#m0194ec179a" x="400.455599" y="121.302178" style="fill-opacity: 0; stroke: #bf00bf; stroke-width: 1.5; stroke-linejoin: miter"/>
    </g>
   </g>
   <g id="line2d_117">
    <path clip-path="url(#p8f14561c33)" style="fill: none; stroke: #bf00bf; stroke-width: 1.5; stroke-linecap: square"/>
    <g clip-path="url(#p8f14561c33)">
     <use xlink:href="#m0194ec179a" x="-1" y="581.189703" style="fill-opacity: 0; stroke: #bf00bf; stroke-width: 1.5; stroke-linejoin: miter"/>
     <use xlink:href="#m0194ec179a" x="460.8" y="581.189703" style="fill-opacity: 0; stroke: #bf00bf; stroke-width: 1.5; stroke-linejoin: miter"/>
    </g>
   </g>
   <g id="line2d_118">
    <path d="M 269.420591 293.76 
L 269.420591 289.927604 
L 272.035519 289.927604 
L 272.035519 286.095208 
L 273.619898 286.095208 
L 273.619898 282.262812 
L 274.613551 282.262812 
L 274.613551 278.430416 
L 276.040392 278.430416 
L 276.040392 274.59802 
L 277.246805 274.59802 
L 277.246805 270.765624 
L 278.861394 270.765624 
L 278.861394 266.933228 
L 279.240725 266.933228 
L 279.240725 263.100832 
L 280.363382 263.100832 
L 280.363382 259.268436 
L 281.531793 259.268436 
L 281.531793 255.43604 
L 283.968569 255.43604 
L 283.968569 251.603644 
L 283.97331 251.603644 
L 283.97331 247.771248 
L 286.519625 247.771248 
L 286.519625 243.938851 
L 287.357893 243.938851 
L 287.357893 240.106455 
L 292.730657 240.106455 
L 292.730657 236.274059 
L 293.670574 236.274059 
L 293.670574 232.441663 
L 295.445394 232.441663 
L 295.445394 228.609267 
L 296.195828 228.609267 
L 296.195828 224.776871 
L 298.1976 224.776871 
L 298.1976 220.944475 
L 300.068144 220.944475 
L 300.068144 217.112079 
L 302.918862 217.112079 
L 302.918862 213.279683 
L 303.172558 213.279683 
L 303.172558 209.447287 
L 305.238448 209.447287 
L 305.238448 205.614891 
L 305.67198 205.614891 
L 305.67198 201.782495 
L 305.834083 201.782495 
L 305.834083 197.950099 
L 310.259921 197.950099 
L 310.259921 194.117703 
L 310.482296 194.117703 
L 310.482296 190.285307 
L 310.487279 190.285307 
L 310.487279 186.452911 
L 311.095691 186.452911 
L 311.095691 182.620515 
L 311.411183 182.620515 
L 311.411183 178.788119 
L 311.641986 178.788119 
L 311.641986 174.955723 
L 313.33184 174.955723 
L 313.33184 171.123327 
L 315.29797 171.123327 
L 315.29797 167.290931 
L 315.34893 167.290931 
L 315.34893 163.458535 
L 318.782384 163.458535 
L 318.782384 159.626139 
L 322.736458 159.626139 
L 322.736458 155.793743 
L 329.559433 155.793743 
L 329.559433 151.961347 
L 335.045271 151.961347 
L 335.045271 148.12895 
L 338.504201 148.12895 
L 338.504201 144.296554 
L 346.070757 144.296554 
L 346.070757 140.464158 
L 387.853812 140.464158 
L 387.853812 136.631762 
L 393.888608 136.631762 
L 393.888608 132.799366 
L 411.004649 132.799366 
L 411.004649 128.96697 
L 423.355054 128.96697 
L 423.355054 125.134574 
L 425.199636 125.134574 
L 425.199636 121.302178 
L 425.199636 121.302178 
L 425.199636 121.302178 
L 460.8 121.302178 
" clip-path="url(#p8f14561c33)" style="fill: none; stroke: #bf00bf; stroke-width: 1.5; stroke-linecap: square"/>
   </g>
   <g id="line2d_119">
    <defs>
     <path id="mc628f8ae7b" d="M 0 7.5 
C 1.989023 7.5 3.896849 6.709753 5.303301 5.303301 
C 6.709753 3.896849 7.5 1.989023 7.5 0 
C 7.5 -1.989023 6.709753 -3.896849 5.303301 -5.303301 
C 3.896849 -6.709753 1.989023 -7.5 0 -7.5 
C -1.989023 -7.5 -3.896849 -6.709753 -5.303301 -5.303301 
C -6.709753 -3.896849 -7.5 -1.989023 -7.5 0 
C -7.5 1.989023 -6.709753 3.896849 -5.303301 5.303301 
C -3.896849 6.709753 -1.989023 7.5 0 7.5 
z
" style="stroke: #bf00bf; stroke-width: 1.5"/>
    </defs>
    <g clip-path="url(#p8f14561c33)">
     <use xlink:href="#mc628f8ae7b" x="311.095691" y="186.452911" style="fill-opacity: 0; stroke: #bf00bf; stroke-width: 1.5"/>
     <use xlink:href="#mc628f8ae7b" x="387.853812" y="140.464158" style="fill-opacity: 0; stroke: #bf00bf; stroke-width: 1.5"/>
     <use xlink:href="#mc628f8ae7b" x="425.199636" y="125.134574" style="fill-opacity: 0; stroke: #bf00bf; stroke-width: 1.5"/>
     <use xlink:href="#mc628f8ae7b" x="425.199636" y="121.302178" style="fill-opacity: 0; stroke: #bf00bf; stroke-width: 1.5"/>
    </g>
   </g>
   <g id="line2d_120">
    <path clip-path="url(#p8f14561c33)" style="fill: none; stroke: #bf00bf; stroke-width: 1.5; stroke-linecap: square"/>
   </g>
   <g id="line2d_121">
    <path d="M 346.806985 293.76 
L 346.806985 289.927604 
L 347.676069 289.927604 
L 347.676069 286.095208 
L 347.699305 286.095208 
L 347.699305 282.262812 
L 347.828382 282.262812 
L 347.828382 278.430416 
L 347.897794 278.430416 
L 347.897794 274.59802 
L 348.120332 274.59802 
L 348.120332 270.765624 
L 348.657663 270.765624 
L 348.657663 266.933228 
L 349.093477 266.933228 
L 349.093477 263.100832 
L 349.134465 263.100832 
L 349.134465 259.268436 
L 349.389236 259.268436 
L 349.389236 255.43604 
L 350.110906 255.43604 
L 350.110906 251.603644 
L 350.215557 251.603644 
L 350.215557 247.771248 
L 350.500568 247.771248 
L 350.500568 243.938851 
L 351.689201 243.938851 
L 351.689201 240.106455 
L 351.939638 240.106455 
L 351.939638 236.274059 
L 358.552707 236.274059 
L 358.552707 232.441663 
L 358.756327 232.441663 
L 358.756327 228.609267 
L 358.872011 228.609267 
L 358.872011 224.776871 
L 359.664524 224.776871 
L 359.664524 220.944475 
L 360.02332 220.944475 
L 360.02332 217.112079 
L 360.329242 217.112079 
L 360.329242 213.279683 
L 360.478393 213.279683 
L 360.478393 209.447287 
L 360.914573 209.447287 
L 360.914573 205.614891 
L 362.043046 205.614891 
L 362.043046 201.782495 
L 362.084385 201.782495 
L 362.084385 197.950099 
L 362.087235 197.950099 
L 362.087235 194.117703 
L 362.305346 194.117703 
L 362.305346 190.285307 
L 362.549789 190.285307 
L 362.549789 186.452911 
L 362.733227 186.452911 
L 362.733227 182.620515 
L 363.273155 182.620515 
L 363.273155 178.788119 
L 402.021358 178.788119 
L 402.021358 174.955723 
L 402.790439 174.955723 
L 402.790439 171.123327 
L 403.764178 171.123327 
L 403.764178 167.290931 
L 405.222745 167.290931 
L 405.222745 163.458535 
L 405.574873 163.458535 
L 405.574873 159.626139 
L 406.568076 159.626139 
L 406.568076 155.793743 
L 406.878922 155.793743 
L 406.878922 151.961347 
L 406.931742 151.961347 
L 406.931742 148.12895 
L 407.177186 148.12895 
L 407.177186 144.296554 
L 407.428763 144.296554 
L 407.428763 140.464158 
L 407.93649 140.464158 
L 407.93649 136.631762 
L 407.966451 136.631762 
L 407.966451 132.799366 
L 410.036109 132.799366 
L 410.036109 128.96697 
L 410.868793 128.96697 
L 410.868793 125.134574 
L 410.894954 125.134574 
L 410.894954 121.302178 
L 410.894954 121.302178 
L 410.894954 121.302178 
L 460.8 121.302178 
" clip-path="url(#p8f14561c33)" style="fill: none; stroke: #ff0000; stroke-width: 3; stroke-linecap: square"/>
   </g>
   <g id="line2d_122">
    <defs>
     <path id="m3746f6ce9c" d="M 0 14.142136 
L 8.485281 0 
L 0 -14.142136 
L -8.485281 0 
z
" style="stroke: #ff0000; stroke-width: 3; stroke-linejoin: miter"/>
    </defs>
    <g clip-path="url(#p8f14561c33)">
     <use xlink:href="#m3746f6ce9c" x="358.756327" y="232.441663" style="fill-opacity: 0; stroke: #ff0000; stroke-width: 3; stroke-linejoin: miter"/>
     <use xlink:href="#m3746f6ce9c" x="407.428763" y="144.296554" style="fill-opacity: 0; stroke: #ff0000; stroke-width: 3; stroke-linejoin: miter"/>
     <use xlink:href="#m3746f6ce9c" x="410.894954" y="121.302178" style="fill-opacity: 0; stroke: #ff0000; stroke-width: 3; stroke-linejoin: miter"/>
    </g>
   </g>
   <g id="line2d_123">
    <path clip-path="url(#p8f14561c33)" style="fill: none; stroke: #ff0000; stroke-width: 3; stroke-linecap: square"/>
    <g clip-path="url(#p8f14561c33)">
     <use xlink:href="#m3746f6ce9c" x="-1" y="581.189703" style="fill-opacity: 0; stroke: #ff0000; stroke-width: 3; stroke-linejoin: miter"/>
     <use xlink:href="#m3746f6ce9c" x="460.8" y="581.189703" style="fill-opacity: 0; stroke: #ff0000; stroke-width: 3; stroke-linejoin: miter"/>
    </g>
   </g>
   <g id="line2d_124">
    <path d="M 286.97617 293.76 
L 286.97617 289.927604 
L 290.013192 289.927604 
L 290.013192 286.095208 
L 291.088275 286.095208 
L 291.088275 282.262812 
L 291.749177 282.262812 
L 291.749177 278.430416 
L 292.768975 278.430416 
L 292.768975 274.59802 
L 295.380738 274.59802 
L 295.380738 270.765624 
L 295.452571 270.765624 
L 295.452571 266.933228 
L 295.841875 266.933228 
L 295.841875 263.100832 
L 296.710682 263.100832 
L 296.710682 259.268436 
L 298.661639 259.268436 
L 298.661639 255.43604 
L 299.36926 255.43604 
L 299.36926 251.603644 
L 300.47995 251.603644 
L 300.47995 247.771248 
L 301.241556 247.771248 
L 301.241556 243.938851 
L 315.235846 243.938851 
L 315.235846 240.106455 
L 317.880244 240.106455 
L 317.880244 236.274059 
L 318.843458 236.274059 
L 318.843458 232.441663 
L 319.04841 232.441663 
L 319.04841 228.609267 
L 322.693865 228.609267 
L 322.693865 224.776871 
L 324.506246 224.776871 
L 324.506246 220.944475 
L 325.592891 220.944475 
L 325.592891 217.112079 
L 325.785858 217.112079 
L 325.785858 213.279683 
L 326.594351 213.279683 
L 326.594351 209.447287 
L 327.596733 209.447287 
L 327.596733 205.614891 
L 328.033624 205.614891 
L 328.033624 201.782495 
L 329.222402 201.782495 
L 329.222402 197.950099 
L 330.212989 197.950099 
L 330.212989 194.117703 
L 330.288567 194.117703 
L 330.288567 190.285307 
L 330.376309 190.285307 
L 330.376309 186.452911 
L 330.88521 186.452911 
L 330.88521 182.620515 
L 334.826384 182.620515 
L 334.826384 178.788119 
L 335.377566 178.788119 
L 335.377566 174.955723 
L 339.426756 174.955723 
L 339.426756 171.123327 
L 339.611518 171.123327 
L 339.611518 167.290931 
L 339.902985 167.290931 
L 339.902985 163.458535 
L 340.849979 163.458535 
L 340.849979 159.626139 
L 350.778936 159.626139 
L 350.778936 155.793743 
L 353.143836 155.793743 
L 353.143836 151.961347 
L 353.760464 151.961347 
L 353.760464 148.12895 
L 359.622952 148.12895 
L 359.622952 144.296554 
L 395.269868 144.296554 
L 395.269868 140.464158 
L 412.894485 140.464158 
L 412.894485 136.631762 
L 421.345795 136.631762 
L 421.345795 132.799366 
L 424.936032 132.799366 
L 424.936032 128.96697 
L 429.61028 128.96697 
L 429.61028 125.134574 
L 436.628633 125.134574 
L 436.628633 121.302178 
L 436.628633 121.302178 
L 436.628633 121.302178 
L 460.8 121.302178 
" clip-path="url(#p8f14561c33)" style="fill: none; stroke: #ff0000; stroke-width: 3; stroke-linecap: square"/>
   </g>
   <g id="line2d_125">
    <defs>
     <path id="m1e3defdb44" d="M 0 7.5 
C 1.989023 7.5 3.896849 6.709753 5.303301 5.303301 
C 6.709753 3.896849 7.5 1.989023 7.5 0 
C 7.5 -1.989023 6.709753 -3.896849 5.303301 -5.303301 
C 3.896849 -6.709753 1.989023 -7.5 0 -7.5 
C -1.989023 -7.5 -3.896849 -6.709753 -5.303301 -5.303301 
C -6.709753 -3.896849 -7.5 -1.989023 -7.5 0 
C -7.5 1.989023 -6.709753 3.896849 -5.303301 5.303301 
C -3.896849 6.709753 -1.989023 7.5 0 7.5 
z
" style="stroke: #ff0000; stroke-width: 3"/>
    </defs>
    <g clip-path="url(#p8f14561c33)">
     <use xlink:href="#m1e3defdb44" x="325.785858" y="217.112079" style="fill-opacity: 0; stroke: #ff0000; stroke-width: 3"/>
     <use xlink:href="#m1e3defdb44" x="353.760464" y="151.961347" style="fill-opacity: 0; stroke: #ff0000; stroke-width: 3"/>
     <use xlink:href="#m1e3defdb44" x="436.628633" y="125.134574" style="fill-opacity: 0; stroke: #ff0000; stroke-width: 3"/>
     <use xlink:href="#m1e3defdb44" x="436.628633" y="121.302178" style="fill-opacity: 0; stroke: #ff0000; stroke-width: 3"/>
    </g>
   </g>
   <g id="line2d_126">
    <path clip-path="url(#p8f14561c33)" style="fill: none; stroke: #ff0000; stroke-width: 3; stroke-linecap: square"/>
   </g>
   <g id="line2d_127">
    <path d="M 441.794724 293.76 
L 441.794724 3.456 
" clip-path="url(#p8f14561c33)" style="fill: none; stroke: #000000; stroke-width: 1.5; stroke-linecap: square"/>
    <defs>
     <path id="m2cbd5c9704" d="M -10 0 
L 10 0 
M 0 10 
L 0 -10 
" style="stroke: #000000; stroke-width: 3"/>
    </defs>
    <g clip-path="url(#p8f14561c33)">
     <use xlink:href="#m2cbd5c9704" x="441.794724" y="293.76" style="stroke: #000000; stroke-width: 3"/>
     <use xlink:href="#m2cbd5c9704" x="441.794724" y="3.456" style="stroke: #000000; stroke-width: 3"/>
    </g>
   </g>
   <g id="line2d_128">
    <path d="M 441.794724 293.76 
L 441.794724 3.456 
" clip-path="url(#p8f14561c33)" style="fill: none; stroke: #000000; stroke-width: 1.5; stroke-linecap: square"/>
    <defs>
     <path id="m9d1ea9f85f" d="M 0 7.5 
C 1.989023 7.5 3.896849 6.709753 5.303301 5.303301 
C 6.709753 3.896849 7.5 1.989023 7.5 0 
C 7.5 -1.989023 6.709753 -3.896849 5.303301 -5.303301 
C 3.896849 -6.709753 1.989023 -7.5 0 -7.5 
C -1.989023 -7.5 -3.896849 -6.709753 -5.303301 -5.303301 
C -6.709753 -3.896849 -7.5 -1.989023 -7.5 0 
C -7.5 1.989023 -6.709753 3.896849 -5.303301 5.303301 
C -3.896849 6.709753 -1.989023 7.5 0 7.5 
z
" style="stroke: #000000; stroke-width: 3"/>
    </defs>
    <g clip-path="url(#p8f14561c33)">
     <use xlink:href="#m9d1ea9f85f" x="441.794724" y="293.76" style="fill-opacity: 0; stroke: #000000; stroke-width: 3"/>
     <use xlink:href="#m9d1ea9f85f" x="441.794724" y="3.456" style="fill-opacity: 0; stroke: #000000; stroke-width: 3"/>
    </g>
   </g>
   <g id="patch_3">
    <path d="M 62.208 293.76 
L 62.208 3.456 
" style="fill: none; stroke: #000000; stroke-width: 0.8; stroke-linejoin: miter; stroke-linecap: square"/>
   </g>
   <g id="patch_4">
    <path d="M 460.8 293.76 
L 460.8 3.456 
" style="fill: none; stroke: #000000; stroke-width: 0.8; stroke-linejoin: miter; stroke-linecap: square"/>
   </g>
   <g id="patch_5">
    <path d="M 62.208 293.76 
L 460.8 293.76 
" style="fill: none; stroke: #000000; stroke-width: 0.8; stroke-linejoin: miter; stroke-linecap: square"/>
   </g>
   <g id="patch_6">
    <path d="M 62.208 3.456 
L 460.8 3.456 
" style="fill: none; stroke: #000000; stroke-width: 0.8; stroke-linejoin: miter; stroke-linecap: square"/>
   </g>
   <g id="text_12">
    <!-- f10-f14 -->
    <g transform="translate(225.405563 24.458955) scale(0.2 -0.2)">
     <defs>
      <path id="DejaVuSans-2d" d="M 313 2009 
L 1997 2009 
L 1997 1497 
L 313 1497 
L 313 2009 
z
" transform="scale(0.015625)"/>
     </defs>
     <use xlink:href="#DejaVuSans-66"/>
     <use xlink:href="#DejaVuSans-31" x="35.205078"/>
     <use xlink:href="#DejaVuSans-30" x="98.828125"/>
     <use xlink:href="#DejaVuSans-2d" x="162.451172"/>
     <use xlink:href="#DejaVuSans-66" x="198.535156"/>
     <use xlink:href="#DejaVuSans-31" x="233.740234"/>
     <use xlink:href="#DejaVuSans-34" x="297.363281"/>
    </g>
   </g>
   <g id="text_13">
    <!-- absolute targets -->
    <g transform="translate(62.208 609.932673) scale(0.14 -0.14)">
     <defs>
      <path id="DejaVuSans-62" d="M 3116 1747 
Q 3116 2381 2855 2742 
Q 2594 3103 2138 3103 
Q 1681 3103 1420 2742 
Q 1159 2381 1159 1747 
Q 1159 1113 1420 752 
Q 1681 391 2138 391 
Q 2594 391 2855 752 
Q 3116 1113 3116 1747 
z
M 1159 2969 
Q 1341 3281 1617 3432 
Q 1894 3584 2278 3584 
Q 2916 3584 3314 3078 
Q 3713 2572 3713 1747 
Q 3713 922 3314 415 
Q 2916 -91 2278 -91 
Q 1894 -91 1617 61 
Q 1341 213 1159 525 
L 1159 0 
L 581 0 
L 581 4863 
L 1159 4863 
L 1159 2969 
z
" transform="scale(0.015625)"/>
      <path id="DejaVuSans-75" d="M 544 1381 
L 544 3500 
L 1119 3500 
L 1119 1403 
Q 1119 906 1312 657 
Q 1506 409 1894 409 
Q 2359 409 2629 706 
Q 2900 1003 2900 1516 
L 2900 3500 
L 3475 3500 
L 3475 0 
L 2900 0 
L 2900 538 
Q 2691 219 2414 64 
Q 2138 -91 1772 -91 
Q 1169 -91 856 284 
Q 544 659 544 1381 
z
M 1991 3584 
L 1991 3584 
z
" transform="scale(0.015625)"/>
      <path id="DejaVuSans-65" d="M 3597 1894 
L 3597 1613 
L 953 1613 
Q 991 1019 1311 708 
Q 1631 397 2203 397 
Q 2534 397 2845 478 
Q 3156 559 3463 722 
L 3463 178 
Q 3153 47 2828 -22 
Q 2503 -91 2169 -91 
Q 1331 -91 842 396 
Q 353 884 353 1716 
Q 353 2575 817 3079 
Q 1281 3584 2069 3584 
Q 2775 3584 3186 3129 
Q 3597 2675 3597 1894 
z
M 3022 2063 
Q 3016 2534 2758 2815 
Q 2500 3097 2075 3097 
Q 1594 3097 1305 2825 
Q 1016 2553 972 2059 
L 3022 2063 
z
" transform="scale(0.015625)"/>
     </defs>
     <use xlink:href="#DejaVuSans-61"/>
     <use xlink:href="#DejaVuSans-62" x="61.279297"/>
     <use xlink:href="#DejaVuSans-73" x="124.755859"/>
     <use xlink:href="#DejaVuSans-6f" x="176.855469"/>
     <use xlink:href="#DejaVuSans-6c" x="238.037109"/>
     <use xlink:href="#DejaVuSans-75" x="265.820312"/>
     <use xlink:href="#DejaVuSans-74" x="329.199219"/>
     <use xlink:href="#DejaVuSans-65" x="368.408203"/>
     <use xlink:href="#DejaVuSans-20" x="429.931641"/>
     <use xlink:href="#DejaVuSans-74" x="461.71875"/>
     <use xlink:href="#DejaVuSans-61" x="500.927734"/>
     <use xlink:href="#DejaVuSans-72" x="562.207031"/>
     <use xlink:href="#DejaVuSans-67" x="601.570312"/>
     <use xlink:href="#DejaVuSans-65" x="665.046875"/>
     <use xlink:href="#DejaVuSans-74" x="726.570312"/>
     <use xlink:href="#DejaVuSans-73" x="765.779297"/>
    </g>
   </g>
   <g id="text_14">
    <!-- v2.6.3 -->
    <g style="fill: #808080" transform="translate(245.82275 288.777272) scale(0.1 -0.1)">
     <defs>
      <path id="DejaVuSans-33" d="M 2597 2516 
Q 3050 2419 3304 2112 
Q 3559 1806 3559 1356 
Q 3559 666 3084 287 
Q 2609 -91 1734 -91 
Q 1441 -91 1130 -33 
Q 819 25 488 141 
L 488 750 
Q 750 597 1062 519 
Q 1375 441 1716 441 
Q 2309 441 2620 675 
Q 2931 909 2931 1356 
Q 2931 1769 2642 2001 
Q 2353 2234 1838 2234 
L 1294 2234 
L 1294 2753 
L 1863 2753 
Q 2328 2753 2575 2939 
Q 2822 3125 2822 3475 
Q 2822 3834 2567 4026 
Q 2313 4219 1838 4219 
Q 1578 4219 1281 4162 
Q 984 4106 628 3988 
L 628 4550 
Q 988 4650 1302 4700 
Q 1616 4750 1894 4750 
Q 2613 4750 3031 4423 
Q 3450 4097 3450 3541 
Q 3450 3153 3228 2886 
Q 3006 2619 2597 2516 
z
" transform="scale(0.015625)"/>
     </defs>
     <use xlink:href="#DejaVuSans-76"/>
     <use xlink:href="#DejaVuSans-32" x="59.179688"/>
     <use xlink:href="#DejaVuSans-2e" x="122.802734"/>
     <use xlink:href="#DejaVuSans-36" x="154.589844"/>
     <use xlink:href="#DejaVuSans-2e" x="218.212891"/>
     <use xlink:href="#DejaVuSans-33" x="250"/>
    </g>
   </g>
   <g id="legend_1">
    <g id="patch_7">
     <path d="M 76.208 136.881 
L 160.148625 136.881 
Q 164.148625 136.881 164.148625 132.881 
L 164.148625 17.456 
Q 164.148625 13.456 160.148625 13.456 
L 76.208 13.456 
Q 72.208 13.456 72.208 17.456 
L 72.208 132.881 
Q 72.208 136.881 76.208 136.881 
z
" style="fill: #ffffff; opacity: 0.2; stroke: #cccccc; stroke-linejoin: miter"/>
    </g>
    <g id="line2d_129">
     <path d="M 80.208 29.652875 
L 80.208 29.652875 
L 100.208 29.652875 
L 100.208 29.652875 
L 120.208 29.652875 
" style="fill: none; stroke: #000000; stroke-width: 1.5; stroke-linecap: square"/>
    </g>
    <g id="text_15">
     <!-- 1 -->
     <g transform="translate(136.208 36.652875) scale(0.2 -0.2)">
      <use xlink:href="#DejaVuSans-31"/>
     </g>
    </g>
    <g id="line2d_130">
     <path d="M 80.208 59.009125 
L 80.208 59.009125 
L 100.208 59.009125 
L 100.208 59.009125 
L 120.208 59.009125 
" style="fill: none; stroke: #00bfbf; stroke-width: 1.5; stroke-linecap: square"/>
    </g>
    <g id="text_16">
     <!-- -1 -->
     <g transform="translate(136.208 66.009125) scale(0.2 -0.2)">
      <use xlink:href="#DejaVuSans-2d"/>
      <use xlink:href="#DejaVuSans-31" x="36.083984"/>
     </g>
    </g>
    <g id="line2d_131">
     <path d="M 80.208 88.365375 
L 80.208 88.365375 
L 100.208 88.365375 
L 100.208 88.365375 
L 120.208 88.365375 
" style="fill: none; stroke: #bf00bf; stroke-width: 1.5; stroke-linecap: square"/>
    </g>
    <g id="text_17">
     <!-- -4 -->
     <g transform="translate(136.208 95.365375) scale(0.2 -0.2)">
      <use xlink:href="#DejaVuSans-2d"/>
      <use xlink:href="#DejaVuSans-34" x="36.083984"/>
     </g>
    </g>
    <g id="line2d_132">
     <path d="M 80.208 117.721625 
L 80.208 117.721625 
L 100.208 117.721625 
L 100.208 117.721625 
L 120.208 117.721625 
" style="fill: none; stroke: #ff0000; stroke-width: 3; stroke-linecap: square"/>
    </g>
    <g id="text_18">
     <!-- -8 -->
     <g transform="translate(136.208 124.721625) scale(0.2 -0.2)">
      <use xlink:href="#DejaVuSans-2d"/>
      <use xlink:href="#DejaVuSans-38" x="36.083984"/>
     </g>
    </g>
   </g>
  </g>
 </g>
 <defs>
  <clipPath id="p8f14561c33">
   <rect x="62.208" y="3.456" width="398.592" height="290.304"/>
  </clipPath>
 </defs>
</svg>
