<?xml version="1.0" encoding="utf-8" standalone="no"?>
<!DOCTYPE svg PUBLIC "-//W3C//DTD SVG 1.1//EN"
  "http://www.w3.org/Graphics/SVG/1.1/DTD/svg11.dtd">
<svg xmlns:xlink="http://www.w3.org/1999/xlink" width="460.8pt" height="345.6pt" viewBox="0 0 460.8 345.6" xmlns="http://www.w3.org/2000/svg" version="1.1">
 <metadata>
  <rdf:RDF xmlns:dc="http://purl.org/dc/elements/1.1/" xmlns:cc="http://creativecommons.org/ns#" xmlns:rdf="http://www.w3.org/1999/02/22-rdf-syntax-ns#">
   <cc:Work>
    <dc:type rdf:resource="http://purl.org/dc/dcmitype/StillImage"/>
    <dc:date>2024-06-05T09:57:29.699619</dc:date>
    <dc:format>image/svg+xml</dc:format>
    <dc:creator>
     <cc:Agent>
      <dc:title>Matplotlib v3.7.1, https://matplotlib.org/</dc:title>
     </cc:Agent>
    </dc:creator>
   </cc:Work>
  </rdf:RDF>
 </metadata>
 <defs>
  <style type="text/css">*{stroke-linejoin: round; stroke-linecap: butt}</style>
 </defs>
 <g id="figure_1">
  <g id="patch_1">
   <path d="M 0 345.6 
L 460.8 345.6 
L 460.8 0 
L 0 0 
z
" style="fill: #ffffff"/>
  </g>
  <g id="axes_1">
   <g id="patch_2">
    <path d="M 34.16 291.28 
L 453.192 291.28 
L 453.192 3 
L 34.16 3 
z
" style="fill: #ffffff"/>
   </g>
   <g id="matplotlib.axis_1">
    <g id="xtick_1">
     <g id="line2d_1">
      <path d="M 124.254419 291.28 
L 124.254419 3 
" clip-path="url(#p310399ddf4)" style="fill: none; stroke: #b0b0b0; stroke-width: 0.8; stroke-linecap: square"/>
     </g>
     <g id="line2d_2">
      <defs>
       <path id="m9709b5b8e7" d="M 0 0 
L 0 3.5 
" style="stroke: #000000; stroke-width: 0.8"/>
      </defs>
      <g>
       <use xlink:href="#m9709b5b8e7" x="124.254419" y="291.28" style="stroke: #000000; stroke-width: 0.8"/>
      </g>
     </g>
     <g id="text_1">
      <!-- -2 -->
      <g transform="translate(114.284107 313.476875) scale(0.2 -0.2)">
       <defs>
        <path id="DejaVuSans-2d" d="M 313 2009 
L 1997 2009 
L 1997 1497 
L 313 1497 
L 313 2009 
z
" transform="scale(0.015625)"/>
        <path id="DejaVuSans-32" d="M 1228 531 
L 3431 531 
L 3431 0 
L 469 0 
L 469 531 
Q 828 903 1448 1529 
Q 2069 2156 2228 2338 
Q 2531 2678 2651 2914 
Q 2772 3150 2772 3378 
Q 2772 3750 2511 3984 
Q 2250 4219 1831 4219 
Q 1534 4219 1204 4116 
Q 875 4013 500 3803 
L 500 4441 
Q 881 4594 1212 4672 
Q 1544 4750 1819 4750 
Q 2544 4750 2975 4387 
Q 3406 4025 3406 3419 
Q 3406 3131 3298 2873 
Q 3191 2616 2906 2266 
Q 2828 2175 2409 1742 
Q 1991 1309 1228 531 
z
" transform="scale(0.015625)"/>
       </defs>
       <use xlink:href="#DejaVuSans-2d"/>
       <use xlink:href="#DejaVuSans-32" x="36.083984"/>
      </g>
     </g>
    </g>
    <g id="xtick_2">
     <g id="line2d_3">
      <path d="M 243.676 291.28 
L 243.676 3 
" clip-path="url(#p310399ddf4)" style="fill: none; stroke: #b0b0b0; stroke-width: 0.8; stroke-linecap: square"/>
     </g>
     <g id="line2d_4">
      <g>
       <use xlink:href="#m9709b5b8e7" x="243.676" y="291.28" style="stroke: #000000; stroke-width: 0.8"/>
      </g>
     </g>
     <g id="text_2">
      <!-- 0 -->
      <g transform="translate(237.3135 313.476875) scale(0.2 -0.2)">
       <defs>
        <path id="DejaVuSans-30" d="M 2034 4250 
Q 1547 4250 1301 3770 
Q 1056 3291 1056 2328 
Q 1056 1369 1301 889 
Q 1547 409 2034 409 
Q 2525 409 2770 889 
Q 3016 1369 3016 2328 
Q 3016 3291 2770 3770 
Q 2525 4250 2034 4250 
z
M 2034 4750 
Q 2819 4750 3233 4129 
Q 3647 3509 3647 2328 
Q 3647 1150 3233 529 
Q 2819 -91 2034 -91 
Q 1250 -91 836 529 
Q 422 1150 422 2328 
Q 422 3509 836 4129 
Q 1250 4750 2034 4750 
z
" transform="scale(0.015625)"/>
       </defs>
       <use xlink:href="#DejaVuSans-30"/>
      </g>
     </g>
    </g>
    <g id="xtick_3">
     <g id="line2d_5">
      <path d="M 363.097581 291.28 
L 363.097581 3 
" clip-path="url(#p310399ddf4)" style="fill: none; stroke: #b0b0b0; stroke-width: 0.8; stroke-linecap: square"/>
     </g>
     <g id="line2d_6">
      <g>
       <use xlink:href="#m9709b5b8e7" x="363.097581" y="291.28" style="stroke: #000000; stroke-width: 0.8"/>
      </g>
     </g>
     <g id="text_3">
      <!-- 2 -->
      <g transform="translate(356.735081 313.476875) scale(0.2 -0.2)">
       <use xlink:href="#DejaVuSans-32"/>
      </g>
     </g>
    </g>
    <g id="text_4">
     <!-- log10 of FEvals ratio -->
     <g transform="translate(141.371312 336.833125) scale(0.2 -0.2)">
      <defs>
       <path id="DejaVuSans-6c" d="M 603 4863 
L 1178 4863 
L 1178 0 
L 603 0 
L 603 4863 
z
" transform="scale(0.015625)"/>
       <path id="DejaVuSans-6f" d="M 1959 3097 
Q 1497 3097 1228 2736 
Q 959 2375 959 1747 
Q 959 1119 1226 758 
Q 1494 397 1959 397 
Q 2419 397 2687 759 
Q 2956 1122 2956 1747 
Q 2956 2369 2687 2733 
Q 2419 3097 1959 3097 
z
M 1959 3584 
Q 2709 3584 3137 3096 
Q 3566 2609 3566 1747 
Q 3566 888 3137 398 
Q 2709 -91 1959 -91 
Q 1206 -91 779 398 
Q 353 888 353 1747 
Q 353 2609 779 3096 
Q 1206 3584 1959 3584 
z
" transform="scale(0.015625)"/>
       <path id="DejaVuSans-67" d="M 2906 1791 
Q 2906 2416 2648 2759 
Q 2391 3103 1925 3103 
Q 1463 3103 1205 2759 
Q 947 2416 947 1791 
Q 947 1169 1205 825 
Q 1463 481 1925 481 
Q 2391 481 2648 825 
Q 2906 1169 2906 1791 
z
M 3481 434 
Q 3481 -459 3084 -895 
Q 2688 -1331 1869 -1331 
Q 1566 -1331 1297 -1286 
Q 1028 -1241 775 -1147 
L 775 -588 
Q 1028 -725 1275 -790 
Q 1522 -856 1778 -856 
Q 2344 -856 2625 -561 
Q 2906 -266 2906 331 
L 2906 616 
Q 2728 306 2450 153 
Q 2172 0 1784 0 
Q 1141 0 747 490 
Q 353 981 353 1791 
Q 353 2603 747 3093 
Q 1141 3584 1784 3584 
Q 2172 3584 2450 3431 
Q 2728 3278 2906 2969 
L 2906 3500 
L 3481 3500 
L 3481 434 
z
" transform="scale(0.015625)"/>
       <path id="DejaVuSans-31" d="M 794 531 
L 1825 531 
L 1825 4091 
L 703 3866 
L 703 4441 
L 1819 4666 
L 2450 4666 
L 2450 531 
L 3481 531 
L 3481 0 
L 794 0 
L 794 531 
z
" transform="scale(0.015625)"/>
       <path id="DejaVuSans-20" transform="scale(0.015625)"/>
       <path id="DejaVuSans-66" d="M 2375 4863 
L 2375 4384 
L 1825 4384 
Q 1516 4384 1395 4259 
Q 1275 4134 1275 3809 
L 1275 3500 
L 2222 3500 
L 2222 3053 
L 1275 3053 
L 1275 0 
L 697 0 
L 697 3053 
L 147 3053 
L 147 3500 
L 697 3500 
L 697 3744 
Q 697 4328 969 4595 
Q 1241 4863 1831 4863 
L 2375 4863 
z
" transform="scale(0.015625)"/>
       <path id="DejaVuSans-46" d="M 628 4666 
L 3309 4666 
L 3309 4134 
L 1259 4134 
L 1259 2759 
L 3109 2759 
L 3109 2228 
L 1259 2228 
L 1259 0 
L 628 0 
L 628 4666 
z
" transform="scale(0.015625)"/>
       <path id="DejaVuSans-45" d="M 628 4666 
L 3578 4666 
L 3578 4134 
L 1259 4134 
L 1259 2753 
L 3481 2753 
L 3481 2222 
L 1259 2222 
L 1259 531 
L 3634 531 
L 3634 0 
L 628 0 
L 628 4666 
z
" transform="scale(0.015625)"/>
       <path id="DejaVuSans-76" d="M 191 3500 
L 800 3500 
L 1894 563 
L 2988 3500 
L 3597 3500 
L 2284 0 
L 1503 0 
L 191 3500 
z
" transform="scale(0.015625)"/>
       <path id="DejaVuSans-61" d="M 2194 1759 
Q 1497 1759 1228 1600 
Q 959 1441 959 1056 
Q 959 750 1161 570 
Q 1363 391 1709 391 
Q 2188 391 2477 730 
Q 2766 1069 2766 1631 
L 2766 1759 
L 2194 1759 
z
M 3341 1997 
L 3341 0 
L 2766 0 
L 2766 531 
Q 2569 213 2275 61 
Q 1981 -91 1556 -91 
Q 1019 -91 701 211 
Q 384 513 384 1019 
Q 384 1609 779 1909 
Q 1175 2209 1959 2209 
L 2766 2209 
L 2766 2266 
Q 2766 2663 2505 2880 
Q 2244 3097 1772 3097 
Q 1472 3097 1187 3025 
Q 903 2953 641 2809 
L 641 3341 
Q 956 3463 1253 3523 
Q 1550 3584 1831 3584 
Q 2591 3584 2966 3190 
Q 3341 2797 3341 1997 
z
" transform="scale(0.015625)"/>
       <path id="DejaVuSans-73" d="M 2834 3397 
L 2834 2853 
Q 2591 2978 2328 3040 
Q 2066 3103 1784 3103 
Q 1356 3103 1142 2972 
Q 928 2841 928 2578 
Q 928 2378 1081 2264 
Q 1234 2150 1697 2047 
L 1894 2003 
Q 2506 1872 2764 1633 
Q 3022 1394 3022 966 
Q 3022 478 2636 193 
Q 2250 -91 1575 -91 
Q 1294 -91 989 -36 
Q 684 19 347 128 
L 347 722 
Q 666 556 975 473 
Q 1284 391 1588 391 
Q 1994 391 2212 530 
Q 2431 669 2431 922 
Q 2431 1156 2273 1281 
Q 2116 1406 1581 1522 
L 1381 1569 
Q 847 1681 609 1914 
Q 372 2147 372 2553 
Q 372 3047 722 3315 
Q 1072 3584 1716 3584 
Q 2034 3584 2315 3537 
Q 2597 3491 2834 3397 
z
" transform="scale(0.015625)"/>
       <path id="DejaVuSans-72" d="M 2631 2963 
Q 2534 3019 2420 3045 
Q 2306 3072 2169 3072 
Q 1681 3072 1420 2755 
Q 1159 2438 1159 1844 
L 1159 0 
L 581 0 
L 581 3500 
L 1159 3500 
L 1159 2956 
Q 1341 3275 1631 3429 
Q 1922 3584 2338 3584 
Q 2397 3584 2469 3576 
Q 2541 3569 2628 3553 
L 2631 2963 
z
" transform="scale(0.015625)"/>
       <path id="DejaVuSans-74" d="M 1172 4494 
L 1172 3500 
L 2356 3500 
L 2356 3053 
L 1172 3053 
L 1172 1153 
Q 1172 725 1289 603 
Q 1406 481 1766 481 
L 2356 481 
L 2356 0 
L 1766 0 
Q 1100 0 847 248 
Q 594 497 594 1153 
L 594 3053 
L 172 3053 
L 172 3500 
L 594 3500 
L 594 4494 
L 1172 4494 
z
" transform="scale(0.015625)"/>
       <path id="DejaVuSans-69" d="M 603 3500 
L 1178 3500 
L 1178 0 
L 603 0 
L 603 3500 
z
M 603 4863 
L 1178 4863 
L 1178 4134 
L 603 4134 
L 603 4863 
z
" transform="scale(0.015625)"/>
      </defs>
      <use xlink:href="#DejaVuSans-6c"/>
      <use xlink:href="#DejaVuSans-6f" x="27.783203"/>
      <use xlink:href="#DejaVuSans-67" x="88.964844"/>
      <use xlink:href="#DejaVuSans-31" x="152.441406"/>
      <use xlink:href="#DejaVuSans-30" x="216.064453"/>
      <use xlink:href="#DejaVuSans-20" x="279.6875"/>
      <use xlink:href="#DejaVuSans-6f" x="311.474609"/>
      <use xlink:href="#DejaVuSans-66" x="372.65625"/>
      <use xlink:href="#DejaVuSans-20" x="407.861328"/>
      <use xlink:href="#DejaVuSans-46" x="439.648438"/>
      <use xlink:href="#DejaVuSans-45" x="497.167969"/>
      <use xlink:href="#DejaVuSans-76" x="560.351562"/>
      <use xlink:href="#DejaVuSans-61" x="619.53125"/>
      <use xlink:href="#DejaVuSans-6c" x="680.810547"/>
      <use xlink:href="#DejaVuSans-73" x="708.59375"/>
      <use xlink:href="#DejaVuSans-20" x="760.693359"/>
      <use xlink:href="#DejaVuSans-72" x="792.480469"/>
      <use xlink:href="#DejaVuSans-61" x="833.59375"/>
      <use xlink:href="#DejaVuSans-74" x="894.873047"/>
      <use xlink:href="#DejaVuSans-69" x="934.082031"/>
      <use xlink:href="#DejaVuSans-6f" x="961.865234"/>
     </g>
    </g>
   </g>
   <g id="matplotlib.axis_2">
    <g id="ytick_1">
     <g id="line2d_7">
      <path d="M 34.16 288.453725 
L 453.192 288.453725 
" clip-path="url(#p310399ddf4)" style="fill: none; stroke: #b0b0b0; stroke-width: 0.8; stroke-linecap: square"/>
     </g>
     <g id="line2d_8">
      <defs>
       <path id="m5fa5f585ab" d="M 0 0 
L -3.5 0 
" style="stroke: #000000; stroke-width: 0.8"/>
      </defs>
      <g>
       <use xlink:href="#m5fa5f585ab" x="34.16" y="288.453725" style="stroke: #000000; stroke-width: 0.8"/>
      </g>
     </g>
    </g>
    <g id="ytick_2">
     <g id="line2d_9">
      <path d="M 34.16 217.796863 
L 453.192 217.796863 
" clip-path="url(#p310399ddf4)" style="fill: none; stroke: #b0b0b0; stroke-width: 0.8; stroke-linecap: square"/>
     </g>
     <g id="line2d_10">
      <g>
       <use xlink:href="#m5fa5f585ab" x="34.16" y="217.796863" style="stroke: #000000; stroke-width: 0.8"/>
      </g>
     </g>
    </g>
    <g id="ytick_3">
     <g id="line2d_11">
      <path d="M 34.16 147.14 
L 453.192 147.14 
" clip-path="url(#p310399ddf4)" style="fill: none; stroke: #b0b0b0; stroke-width: 0.8; stroke-linecap: square"/>
     </g>
     <g id="line2d_12">
      <g>
       <use xlink:href="#m5fa5f585ab" x="34.16" y="147.14" style="stroke: #000000; stroke-width: 0.8"/>
      </g>
     </g>
    </g>
    <g id="ytick_4">
     <g id="line2d_13">
      <path d="M 34.16 76.483137 
L 453.192 76.483137 
" clip-path="url(#p310399ddf4)" style="fill: none; stroke: #b0b0b0; stroke-width: 0.8; stroke-linecap: square"/>
     </g>
     <g id="line2d_14">
      <g>
       <use xlink:href="#m5fa5f585ab" x="34.16" y="76.483137" style="stroke: #000000; stroke-width: 0.8"/>
      </g>
     </g>
    </g>
    <g id="ytick_5">
     <g id="line2d_15">
      <path d="M 34.16 5.826275 
L 453.192 5.826275 
" clip-path="url(#p310399ddf4)" style="fill: none; stroke: #b0b0b0; stroke-width: 0.8; stroke-linecap: square"/>
     </g>
     <g id="line2d_16">
      <g>
       <use xlink:href="#m5fa5f585ab" x="34.16" y="5.826275" style="stroke: #000000; stroke-width: 0.8"/>
      </g>
     </g>
    </g>
    <g id="text_5">
     <!-- proportion of trials -->
     <g transform="translate(19.000625 240.14625) rotate(-90) scale(0.2 -0.2)">
      <defs>
       <path id="DejaVuSans-70" d="M 1159 525 
L 1159 -1331 
L 581 -1331 
L 581 3500 
L 1159 3500 
L 1159 2969 
Q 1341 3281 1617 3432 
Q 1894 3584 2278 3584 
Q 2916 3584 3314 3078 
Q 3713 2572 3713 1747 
Q 3713 922 3314 415 
Q 2916 -91 2278 -91 
Q 1894 -91 1617 61 
Q 1341 213 1159 525 
z
M 3116 1747 
Q 3116 2381 2855 2742 
Q 2594 3103 2138 3103 
Q 1681 3103 1420 2742 
Q 1159 2381 1159 1747 
Q 1159 1113 1420 752 
Q 1681 391 2138 391 
Q 2594 391 2855 752 
Q 3116 1113 3116 1747 
z
" transform="scale(0.015625)"/>
       <path id="DejaVuSans-6e" d="M 3513 2113 
L 3513 0 
L 2938 0 
L 2938 2094 
Q 2938 2591 2744 2837 
Q 2550 3084 2163 3084 
Q 1697 3084 1428 2787 
Q 1159 2491 1159 1978 
L 1159 0 
L 581 0 
L 581 3500 
L 1159 3500 
L 1159 2956 
Q 1366 3272 1645 3428 
Q 1925 3584 2291 3584 
Q 2894 3584 3203 3211 
Q 3513 2838 3513 2113 
z
" transform="scale(0.015625)"/>
      </defs>
      <use xlink:href="#DejaVuSans-70"/>
      <use xlink:href="#DejaVuSans-72" x="63.476562"/>
      <use xlink:href="#DejaVuSans-6f" x="102.339844"/>
      <use xlink:href="#DejaVuSans-70" x="163.521484"/>
      <use xlink:href="#DejaVuSans-6f" x="226.998047"/>
      <use xlink:href="#DejaVuSans-72" x="288.179688"/>
      <use xlink:href="#DejaVuSans-74" x="329.292969"/>
      <use xlink:href="#DejaVuSans-69" x="368.501953"/>
      <use xlink:href="#DejaVuSans-6f" x="396.285156"/>
      <use xlink:href="#DejaVuSans-6e" x="457.466797"/>
      <use xlink:href="#DejaVuSans-20" x="520.845703"/>
      <use xlink:href="#DejaVuSans-6f" x="552.632812"/>
      <use xlink:href="#DejaVuSans-66" x="613.814453"/>
      <use xlink:href="#DejaVuSans-20" x="649.019531"/>
      <use xlink:href="#DejaVuSans-74" x="680.806641"/>
      <use xlink:href="#DejaVuSans-72" x="720.015625"/>
      <use xlink:href="#DejaVuSans-69" x="761.128906"/>
      <use xlink:href="#DejaVuSans-61" x="788.912109"/>
      <use xlink:href="#DejaVuSans-6c" x="850.191406"/>
      <use xlink:href="#DejaVuSans-73" x="877.974609"/>
     </g>
    </g>
   </g>
   <g id="line2d_17">
    <path d="M 34.16 265.189619 
L 52.845334 265.189619 
L 52.845334 264.87524 
L 53.026352 264.87524 
L 53.026352 264.56086 
L 65.785207 264.56086 
L 65.785207 263.9321 
L 65.966224 263.9321 
L 65.966224 263.303341 
L 77.506115 263.303341 
L 77.506115 262.988961 
L 77.687133 262.988961 
L 77.687133 262.674581 
L 78.644272 262.674581 
L 78.644272 262.360201 
L 78.994904 262.360201 
L 78.994904 262.045821 
L 79.550009 262.045821 
L 79.550009 261.731441 
L 85.692742 261.731441 
L 85.692742 261.417062 
L 85.873759 261.417062 
L 85.873759 261.102682 
L 92.018109 261.102682 
L 92.018109 260.788302 
L 92.199127 260.788302 
L 92.199127 260.473922 
L 92.714541 260.473922 
L 92.714541 260.159542 
L 98.315641 260.159542 
L 98.315641 259.845163 
L 98.561457 259.845163 
L 98.561457 259.530783 
L 98.812444 259.530783 
L 98.812444 259.216403 
L 105.654414 259.216403 
L 105.654414 258.587643 
L 108.116883 258.587643 
L 108.116883 258.273264 
L 108.467515 258.273264 
L 108.467515 257.958884 
L 109.02262 257.958884 
L 109.02262 257.644504 
L 111.936284 257.644504 
L 111.936284 257.330124 
L 113.96115 257.330124 
L 113.96115 257.015744 
L 114.105142 257.015744 
L 114.105142 256.701364 
L 117.375322 256.701364 
L 117.375322 256.386985 
L 124.876156 256.386985 
L 124.876156 255.758225 
L 125.561949 255.758225 
L 125.561949 255.443845 
L 126.901023 255.443845 
L 126.901023 254.815086 
L 127.045014 254.815086 
L 127.045014 254.186326 
L 127.788252 254.186326 
L 127.788252 253.871946 
L 128.034068 253.871946 
L 128.034068 253.557566 
L 128.285055 253.557566 
L 128.285055 253.243187 
L 131.887316 253.243187 
L 131.887316 252.928807 
L 136.597065 252.928807 
L 136.597065 252.614427 
L 138.579583 252.614427 
L 138.621931 251.985667 
L 138.765922 251.985667 
L 138.765922 251.671287 
L 138.930216 251.671287 
L 138.930216 251.356908 
L 139.48532 251.356908 
L 139.48532 251.042528 
L 144.171234 251.042528 
L 144.171234 250.728148 
L 144.352251 250.728148 
L 144.352251 250.413768 
L 144.783691 250.413768 
L 144.783691 250.099388 
L 146.808558 250.099388 
L 146.808558 249.785009 
L 146.952549 249.785009 
L 146.952549 249.470629 
L 151.109059 249.470629 
L 151.109059 249.156249 
L 153.133925 249.156249 
L 153.133925 248.841869 
L 153.277916 248.841869 
L 153.277916 248.527489 
L 158.250952 248.527489 
L 158.250952 248.21311 
L 158.496769 248.21311 
L 158.496769 247.89873 
L 158.747756 247.89873 
L 158.747756 247.58435 
L 159.245559 247.58435 
L 159.245559 247.26997 
L 162.902237 247.26997 
L 162.902237 246.95559 
L 163.128918 246.95559 
L 163.128918 246.64121 
L 174.629595 246.64121 
L 174.629595 246.326831 
L 175.842109 246.326831 
L 175.842109 245.698071 
L 176.27721 245.698071 
L 176.27721 245.383691 
L 176.446149 245.383691 
L 176.446149 245.069311 
L 176.940862 245.069311 
L 176.940862 244.754932 
L 177.972005 244.754932 
L 177.972005 244.440552 
L 179.721961 244.440552 
L 179.721961 244.126172 
L 180.466473 244.126172 
L 180.466473 243.811792 
L 181.659228 243.811792 
L 181.659228 243.497412 
L 181.840245 243.497412 
L 181.840245 243.183033 
L 182.339306 243.183033 
L 182.339306 242.868653 
L 184.040441 242.868653 
L 184.040441 242.554273 
L 184.844347 242.554273 
L 184.844347 242.239893 
L 185.863525 242.239893 
L 185.863525 241.925513 
L 186.064905 241.925513 
L 186.16145 241.296754 
L 186.19416 241.296754 
L 186.19416 240.982374 
L 186.307462 240.982374 
L 186.375178 240.039234 
L 186.867473 240.039234 
L 186.867473 239.724855 
L 187.563018 239.724855 
L 187.563018 239.410475 
L 187.911858 239.410475 
L 187.911858 239.096095 
L 188.658725 239.096095 
L 188.658725 238.781715 
L 188.839743 238.781715 
L 188.839743 238.467335 
L 189.217082 238.467335 
L 189.217082 237.838576 
L 190.619157 237.838576 
L 190.619157 237.524196 
L 191.618205 237.524196 
L 191.618205 237.209816 
L 192.561293 237.209816 
L 192.561293 236.581057 
L 192.997522 236.581057 
L 192.997522 236.266677 
L 193.214528 236.266677 
L 193.214528 235.952297 
L 193.433365 235.952297 
L 193.433365 235.637917 
L 195.749644 235.637917 
L 195.749644 235.323537 
L 196.708423 235.323537 
L 196.708423 234.694778 
L 197.211974 234.694778 
L 197.211974 234.380398 
L 197.59616 234.380398 
L 197.59616 234.066018 
L 197.80814 234.066018 
L 197.80814 233.751638 
L 198.190659 233.751638 
L 198.190659 233.437258 
L 198.418334 233.437258 
L 198.418334 233.122879 
L 198.69421 233.122879 
L 198.69421 232.808499 
L 199.238259 232.808499 
L 199.238259 232.494119 
L 199.422175 232.494119 
L 199.422175 232.179739 
L 199.539895 232.179739 
L 199.539895 231.865359 
L 199.793967 231.865359 
L 199.793967 231.55098 
L 200.119407 231.55098 
L 200.119407 231.2366 
L 200.738243 231.2366 
L 200.738243 230.92222 
L 200.937991 230.92222 
L 200.937991 230.60784 
L 201.065751 230.60784 
L 201.088875 229.97908 
L 201.36999 229.97908 
L 201.36999 229.664701 
L 201.584709 229.664701 
L 201.64398 229.035941 
L 201.939949 229.035941 
L 201.939949 228.721561 
L 202.075012 228.721561 
L 202.075012 228.407181 
L 202.900505 228.407181 
L 202.900505 228.092802 
L 203.064115 228.092802 
L 203.075841 227.464042 
L 203.250317 227.464042 
L 203.262183 226.835282 
L 203.51207 226.835282 
L 203.620346 225.577763 
L 203.645018 225.577763 
L 203.686036 224.949003 
L 203.918885 224.949003 
L 203.978002 224.320244 
L 204.06197 224.320244 
L 204.15902 222.748345 
L 204.473989 222.748345 
L 204.473989 222.433965 
L 204.589971 222.433965 
L 204.589971 222.119585 
L 205.112448 222.119585 
L 205.112448 221.805205 
L 205.28705 221.805205 
L 205.28705 221.490826 
L 205.431041 221.490826 
L 205.431041 221.176446 
L 205.593918 221.176446 
L 205.593918 220.862066 
L 206.373238 220.862066 
L 206.373238 220.233306 
L 206.638304 220.233306 
L 206.663173 219.604547 
L 206.844191 219.604547 
L 206.844191 219.290167 
L 208.022892 219.290167 
L 208.022892 218.975787 
L 208.13491 218.975787 
L 208.13491 218.661407 
L 208.500671 218.661407 
L 208.500671 218.347027 
L 208.614259 218.347027 
L 208.614259 218.032648 
L 209.096837 218.032648 
L 209.154336 216.775128 
L 209.24345 216.775128 
L 209.24345 216.460749 
L 209.898848 216.460749 
L 209.898848 215.831989 
L 210.121953 215.831989 
L 210.198112 215.203229 
L 210.536032 215.203229 
L 210.633955 214.57447 
L 211.408104 214.57447 
L 211.408104 214.26009 
L 211.723968 214.26009 
L 211.723968 213.94571 
L 212.159811 213.94571 
L 212.178131 213.002571 
L 212.362047 213.002571 
L 212.362047 212.373811 
L 212.591342 212.373811 
L 212.591342 212.059431 
L 212.73384 212.059431 
L 212.78559 211.116292 
L 213.175467 211.116292 
L 213.175467 210.801912 
L 213.712903 210.801912 
L 213.712903 210.487532 
L 213.909013 210.487532 
L 213.909013 209.858772 
L 214.189203 209.858772 
L 214.276722 208.915633 
L 214.56778 208.915633 
L 214.576518 208.286873 
L 214.79675 208.286873 
L 214.79675 207.972494 
L 214.933715 207.972494 
L 214.933715 207.658114 
L 215.186713 207.658114 
L 215.186713 207.343734 
L 215.434868 207.343734 
L 215.49728 205.771835 
L 216.393073 205.771835 
L 216.393073 205.457455 
L 216.560219 205.457455 
L 216.560219 204.828696 
L 216.887786 204.828696 
L 216.887786 204.514316 
L 217.237123 204.514316 
L 217.237123 204.199936 
L 217.49798 204.199936 
L 217.49798 203.885556 
L 218.24107 203.885556 
L 218.24107 203.571176 
L 219.015219 203.571176 
L 219.015219 203.256796 
L 219.140539 203.256796 
L 219.212422 202.628037 
L 219.285456 202.628037 
L 219.311589 201.999277 
L 219.611385 201.999277 
L 219.668884 201.370518 
L 220.002742 201.370518 
L 220.002742 201.056138 
L 220.114936 201.056138 
L 220.114936 200.741758 
L 220.279079 200.741758 
L 220.279079 200.427378 
L 220.390519 200.427378 
L 220.438586 199.169859 
L 220.532147 199.169859 
L 220.532147 198.855479 
L 220.655428 198.855479 
L 220.71266 197.59796 
L 220.906415 197.59796 
L 220.906415 197.28358 
L 221.023591 197.28358 
L 221.05058 196.340441 
L 221.369203 196.340441 
L 221.440543 195.397301 
L 221.51208 195.397301 
L 221.528435 194.768542 
L 221.872754 194.768542 
L 221.872754 194.454162 
L 222.036709 194.454162 
L 222.036709 194.139782 
L 222.238516 194.139782 
L 222.238516 193.511022 
L 222.426204 193.511022 
L 222.426204 193.196642 
L 222.646904 193.196642 
L 222.646904 192.567883 
L 222.963938 192.567883 
L 222.963938 192.253503 
L 223.239621 192.253503 
L 223.31457 191.624743 
L 223.396572 191.624743 
L 223.485438 190.995984 
L 223.736425 190.995984 
L 223.736425 190.681604 
L 223.869675 190.681604 
L 223.89904 190.052844 
L 224.082956 190.052844 
L 224.082956 189.738465 
L 224.347977 189.738465 
L 224.454748 188.480945 
L 224.548535 188.480945 
L 224.549632 187.852186 
L 224.676145 187.852186 
L 224.678455 187.223426 
L 224.791271 187.223426 
L 224.806963 186.280287 
L 225.0363 186.280287 
L 225.0363 185.965907 
L 225.207302 185.965907 
L 225.207302 185.651527 
L 225.401465 185.651527 
L 225.401465 185.337147 
L 225.829956 185.337147 
L 225.829956 185.022767 
L 225.951814 185.022767 
L 226.040247 183.765248 
L 226.063367 183.765248 
L 226.085447 183.136488 
L 226.588998 183.136488 
L 226.644349 181.878969 
L 226.837154 181.878969 
L 226.837154 181.564589 
L 226.987412 181.564589 
L 227.084633 180.93583 
L 227.129075 180.93583 
L 227.23121 180.30707 
L 227.322543 180.30707 
L 227.322543 179.99269 
L 227.623034 179.99269 
L 227.68177 179.049551 
L 227.873587 179.049551 
L 227.873587 178.735171 
L 228.082021 178.735171 
L 228.126585 177.477652 
L 228.202675 177.477652 
L 228.281127 176.848892 
L 228.527932 176.848892 
L 228.527932 176.534512 
L 228.848399 176.534512 
L 228.848399 176.220133 
L 229.206622 176.220133 
L 229.206622 175.905753 
L 229.76851 175.905753 
L 229.76851 175.591373 
L 230.251008 175.591373 
L 230.329688 174.962613 
L 230.513023 174.962613 
L 230.513023 174.648234 
L 230.75543 174.648234 
L 230.802366 173.705094 
L 230.940229 173.705094 
L 230.940229 173.390714 
L 231.228656 173.390714 
L 231.228656 173.076334 
L 231.550246 173.076334 
L 231.565128 172.447575 
L 231.679216 172.447575 
L 231.759377 171.818815 
L 232.085666 171.818815 
L 232.175323 170.246916 
L 232.218364 170.246916 
L 232.269582 169.303777 
L 232.60614 169.303777 
L 232.657901 168.360637 
L 232.722928 168.360637 
L 232.803762 167.731878 
L 233.161452 167.731878 
L 233.161452 166.788738 
L 233.313546 166.788738 
L 233.313546 166.474358 
L 233.472019 166.474358 
L 233.472019 166.159979 
L 233.771646 166.159979 
L 233.771646 165.845599 
L 234.752875 165.845599 
L 234.752875 165.531219 
L 234.885668 165.531219 
L 234.890897 164.58808 
L 235.112151 164.58808 
L 235.112151 164.2737 
L 235.336672 164.2737 
L 235.336672 163.95932 
L 235.685088 163.95932 
L 235.772515 163.016181 
L 235.837232 163.016181 
L 235.881197 161.444281 
L 236.111455 161.444281 
L 236.215809 160.815522 
L 236.467754 160.815522 
L 236.467754 160.501142 
L 236.768934 160.501142 
L 236.811975 159.558003 
L 237.103546 159.558003 
L 237.158897 158.929243 
L 237.330634 158.929243 
L 237.330634 158.614863 
L 237.741665 158.614863 
L 237.769092 157.986104 
L 237.889427 157.986104 
L 237.889427 157.671724 
L 238.089675 157.671724 
L 238.137582 157.042964 
L 238.32527 157.042964 
L 238.411034 155.785445 
L 238.59495 155.785445 
L 238.69987 154.842305 
L 238.747777 154.842305 
L 238.747777 154.527926 
L 238.966742 154.527926 
L 239.047573 153.270406 
L 239.209308 153.270406 
L 239.251328 152.641647 
L 239.403556 152.641647 
L 239.403556 152.327267 
L 239.641901 152.327267 
L 239.641901 152.012887 
L 240.213255 152.012887 
L 240.213255 151.698507 
L 240.400943 151.698507 
L 240.407504 151.069748 
L 240.621642 151.069748 
L 240.649098 150.440988 
L 240.750177 150.440988 
L 240.750177 150.126608 
L 241.112723 150.126608 
L 241.112723 149.812228 
L 241.25764 149.812228 
L 241.348078 148.869089 
L 241.451889 148.869089 
L 241.495551 148.240329 
L 241.600327 148.240329 
L 241.664755 147.29719 
L 241.886872 147.29719 
L 241.927108 146.66843 
L 242.322716 146.66843 
L 242.422999 146.039671 
L 242.440906 146.039671 
L 242.440906 145.725291 
L 242.635307 145.725291 
L 242.697315 144.467772 
L 242.775044 144.467772 
L 242.881123 143.524632 
L 242.919035 143.524632 
L 242.946636 142.895873 
L 243.096488 142.895873 
L 243.182041 141.638353 
L 243.261078 141.638353 
L 243.360776 140.695214 
L 243.430197 140.695214 
L 243.532332 140.066454 
L 243.560125 140.066454 
L 243.560125 139.752074 
L 243.676 139.752074 
L 243.741143 138.494555 
L 243.847209 138.494555 
L 243.926553 137.237036 
L 244.040391 137.237036 
L 244.040391 136.922656 
L 244.174709 136.922656 
L 244.279099 135.665137 
L 244.619088 135.665137 
L 244.656862 135.036377 
L 244.752174 135.036377 
L 244.752174 134.721997 
L 245.252399 134.721997 
L 245.28511 134.093238 
L 245.597773 134.093238 
L 245.597773 133.150098 
L 245.85122 133.150098 
L 245.85122 132.521339 
L 246.08872 132.521339 
L 246.101324 131.892579 
L 246.343305 131.892579 
L 246.343305 131.578199 
L 246.53238 131.578199 
L 246.620708 130.63506 
L 246.779148 130.63506 
L 246.855332 129.69192 
L 246.973396 129.69192 
L 247.056551 129.063161 
L 247.258524 129.063161 
L 247.309976 128.120021 
L 247.421257 128.120021 
L 247.453967 127.491262 
L 247.533272 127.491262 
L 247.624655 126.548122 
L 247.673446 126.548122 
L 247.749675 125.919363 
L 247.897614 125.919363 
L 247.897614 125.604983 
L 248.060499 125.604983 
L 248.060499 125.290603 
L 248.237209 125.290603 
L 248.304427 124.033084 
L 248.403975 124.033084 
L 248.403975 123.404324 
L 248.552583 123.404324 
L 248.552583 123.089944 
L 248.669041 123.089944 
L 248.777104 121.203666 
L 249.104884 121.203666 
L 249.104884 120.889286 
L 249.294728 120.889286 
L 249.294728 120.574906 
L 249.524985 120.574906 
L 249.524985 120.260526 
L 249.773141 120.260526 
L 249.774541 119.631766 
L 249.918532 119.631766 
L 249.918532 119.317387 
L 250.054205 119.317387 
L 250.054205 118.688627 
L 250.248454 118.688627 
L 250.248454 118.059867 
L 250.388817 118.059867 
L 250.388817 117.745488 
L 250.580879 117.745488 
L 250.580879 117.431108 
L 250.829299 117.431108 
L 250.829299 117.116728 
L 250.984983 117.116728 
L 250.984983 116.802348 
L 251.41654 116.802348 
L 251.421834 116.173589 
L 252.05983 116.173589 
L 252.05983 115.859209 
L 252.40142 115.859209 
L 252.461103 114.601689 
L 252.655658 114.601689 
L 252.655658 114.28731 
L 253.361977 114.28731 
L 253.470167 113.65855 
L 253.754705 113.65855 
L 253.754705 113.34417 
L 253.876216 113.34417 
L 253.876216 113.02979 
L 254.10649 113.02979 
L 254.190548 112.086651 
L 254.228136 112.086651 
L 254.319244 111.457891 
L 254.626392 111.457891 
L 254.626392 111.143512 
L 255.013858 111.143512 
L 255.078285 110.514752 
L 255.285731 110.514752 
L 255.326441 109.885992 
L 255.396908 109.885992 
L 255.47998 109.257233 
L 255.915567 109.257233 
L 255.915567 108.942853 
L 256.674609 108.942853 
L 256.674609 108.628473 
L 256.857853 108.628473 
L 256.922764 107.685334 
L 257.052101 107.685334 
L 257.052101 107.056574 
L 257.465606 107.056574 
L 257.465606 106.427814 
L 257.901449 106.427814 
L 257.901449 105.799055 
L 258.187994 105.799055 
L 258.187994 105.484675 
L 258.385197 105.484675 
L 258.484364 104.855915 
L 258.555831 104.855915 
L 258.555831 104.541535 
L 258.78416 104.541535 
L 258.78416 104.227156 
L 258.991674 104.227156 
L 259.011303 103.598396 
L 259.429516 103.598396 
L 259.429516 103.284016 
L 259.704921 103.284016 
L 259.704921 102.969636 
L 259.913013 102.969636 
L 259.913013 102.655257 
L 260.498013 102.655257 
L 260.498013 102.340877 
L 260.672054 102.340877 
L 260.672054 102.026497 
L 260.891697 102.026497 
L 260.979236 101.083358 
L 261.02584 101.083358 
L 261.02584 100.768978 
L 261.329869 100.768978 
L 261.395249 99.825838 
L 261.650739 99.825838 
L 261.650739 98.882699 
L 261.789868 98.882699 
L 261.898895 97.939559 
L 261.950535 97.939559 
L 261.950535 97.62518 
L 262.140501 97.62518 
L 262.15429 96.99642 
L 262.266731 96.99642 
L 262.266731 96.36766 
L 262.402446 96.36766 
L 262.402446 96.053281 
L 262.618005 96.053281 
L 262.697131 95.110141 
L 262.863822 95.110141 
L 262.863822 94.795761 
L 263.032145 94.795761 
L 263.132975 93.538242 
L 263.185629 93.538242 
L 263.277961 92.909482 
L 263.467736 92.909482 
L 263.528948 92.280723 
L 263.661984 92.280723 
L 263.661984 91.966343 
L 263.907124 91.966343 
L 263.907124 91.651963 
L 264.071029 91.651963 
L 264.071029 91.337583 
L 264.237821 91.337583 
L 264.269253 90.394444 
L 264.50329 90.394444 
L 264.584762 89.765684 
L 264.705096 89.765684 
L 264.705096 89.136925 
L 264.830071 89.136925 
L 264.830071 88.822545 
L 265.023285 88.822545 
L 265.093818 87.879405 
L 265.237809 87.879405 
L 265.258221 87.250646 
L 265.754123 87.250646 
L 265.754123 86.936266 
L 266.00197 86.936266 
L 266.00197 86.621886 
L 266.505521 86.621886 
L 266.505521 86.307506 
L 266.685606 86.307506 
L 266.685606 85.993127 
L 266.854545 85.993127 
L 266.854545 85.364367 
L 267.498257 85.364367 
L 267.603109 84.735607 
L 267.750609 84.735607 
L 267.778989 84.106848 
L 267.904569 84.106848 
L 267.92298 83.478088 
L 268.500735 83.478088 
L 268.500735 83.163708 
L 268.68464 83.163708 
L 268.68464 82.849328 
L 269.070379 82.849328 
L 269.181302 81.906189 
L 269.182466 81.906189 
L 269.182466 81.591809 
L 270.851991 81.591809 
L 270.879136 80.96305 
L 271.274828 80.96305 
L 271.314979 80.33429 
L 271.830675 80.33429 
L 271.830675 80.01991 
L 272.165287 80.01991 
L 272.165287 79.70553 
L 272.278776 79.70553 
L 272.361002 78.762391 
L 272.55525 78.762391 
L 272.55525 78.448011 
L 272.706686 78.448011 
L 272.775482 77.819251 
L 272.957168 77.819251 
L 272.957168 77.504872 
L 273.108375 77.504872 
L 273.151416 76.561732 
L 273.323161 76.561732 
L 273.323161 76.247352 
L 273.710633 76.247352 
L 273.710633 75.932973 
L 274.503091 75.932973 
L 274.503091 75.618593 
L 274.755019 75.618593 
L 274.755019 75.304213 
L 275.010007 75.304213 
L 275.010007 74.675453 
L 275.680262 74.675453 
L 275.680262 74.361074 
L 277.703705 74.361074 
L 277.703705 74.046694 
L 278.143242 74.046694 
L 278.143242 73.732314 
L 278.408825 73.732314 
L 278.408825 73.417934 
L 278.844669 73.417934 
L 278.844669 73.103554 
L 279.625478 73.103554 
L 279.625478 72.789174 
L 279.772402 72.789174 
L 279.840683 72.160415 
L 280.208245 72.160415 
L 280.276526 71.531655 
L 280.368568 71.531655 
L 280.368568 71.217275 
L 280.650605 71.217275 
L 280.650605 70.902896 
L 280.804411 70.902896 
L 280.896422 70.274136 
L 281.147408 70.274136 
L 281.147408 69.959756 
L 281.461237 69.959756 
L 281.461237 69.645376 
L 281.707054 69.645376 
L 281.707054 69.330997 
L 281.958041 69.330997 
L 281.958041 69.016617 
L 282.119726 69.016617 
L 282.119726 68.387857 
L 282.264914 68.387857 
L 282.264914 68.073477 
L 283.429332 68.073477 
L 283.459564 67.444718 
L 283.551584 67.444718 
L 283.622924 66.501578 
L 284.233118 66.501578 
L 284.233118 66.187198 
L 284.573528 66.187198 
L 284.573528 65.872819 
L 285.169694 65.872819 
L 285.169694 65.558439 
L 285.48443 65.558439 
L 285.48443 65.244059 
L 285.628421 65.244059 
L 285.628421 64.929679 
L 287.351252 64.929679 
L 287.351252 64.615299 
L 288.78311 64.615299 
L 288.78311 64.30092 
L 288.923373 64.30092 
L 288.923373 63.67216 
L 289.161341 63.67216 
L 289.161341 63.35778 
L 290.355231 63.35778 
L 290.355231 62.72902 
L 290.564158 62.72902 
L 290.564158 62.414641 
L 290.748074 62.414641 
L 290.748074 62.100261 
L 291.083114 62.100261 
L 291.119867 61.471501 
L 291.71613 61.471501 
L 291.71613 61.157121 
L 293.72255 61.157121 
L 293.72255 60.842742 
L 294.919402 60.842742 
L 294.946246 60.213982 
L 295.047462 60.213982 
L 295.047462 59.899602 
L 295.533256 59.899602 
L 295.533256 59.585222 
L 295.678444 59.585222 
L 295.678444 59.270843 
L 295.9266 59.270843 
L 295.9266 58.956463 
L 296.218352 58.956463 
L 296.251063 58.327703 
L 296.965114 58.327703 
L 296.965114 58.013323 
L 298.715628 58.013323 
L 298.715628 57.698943 
L 299.82657 57.698943 
L 299.82657 57.384564 
L 300.029675 57.384564 
L 300.029675 57.070184 
L 302.651075 57.070184 
L 302.651075 56.755804 
L 304.426522 56.755804 
L 304.426522 56.441424 
L 304.675941 56.441424 
L 304.675941 56.127044 
L 304.819932 56.127044 
L 304.819932 55.812665 
L 305.022688 55.812665 
L 305.091103 55.183905 
L 305.85838 55.183905 
L 305.85838 54.555145 
L 306.377039 54.555145 
L 306.454546 53.926386 
L 307.13608 53.926386 
L 307.13608 53.612006 
L 307.384236 53.612006 
L 307.384236 53.297626 
L 309.593325 53.297626 
L 309.626036 52.668866 
L 310.538322 52.668866 
L 310.538322 52.354487 
L 311.487311 52.354487 
L 311.487311 52.040107 
L 312.090601 52.040107 
L 312.090601 51.725727 
L 314.034905 51.725727 
L 314.034905 51.411347 
L 316.720076 51.411347 
L 316.720076 51.096967 
L 317.316017 51.096967 
L 317.316017 50.782588 
L 325.344288 50.782588 
L 325.344288 50.468208 
L 327.163131 50.468208 
L 327.163131 50.153828 
L 327.409878 50.153828 
L 327.409878 49.839448 
L 328.052152 49.839448 
L 328.052152 49.525068 
L 328.174298 49.525068 
L 328.236068 48.896309 
L 328.607861 48.896309 
L 328.607861 48.581929 
L 330.095049 48.581929 
L 330.095049 48.267549 
L 332.43424 48.267549 
L 332.43424 47.953169 
L 332.554374 47.953169 
L 332.587085 47.32441 
L 332.73829 47.32441 
L 332.771001 46.69565 
L 333.110083 46.69565 
L 333.142793 46.06689 
L 334.425517 46.06689 
L 334.425517 45.752511 
L 335.05165 45.752511 
L 335.05165 45.438131 
L 335.235566 45.438131 
L 335.235566 45.123751 
L 335.607358 45.123751 
L 335.607358 44.809371 
L 336.661751 44.809371 
L 336.661751 44.494991 
L 336.936462 44.494991 
L 336.969172 43.866232 
L 337.314564 43.866232 
L 337.314564 43.551852 
L 339.433737 43.551852 
L 339.49176 42.923092 
L 341.816786 42.923092 
L 341.849497 42.294333 
L 344.314062 42.294333 
L 344.314062 41.979953 
L 347.569983 41.979953 
L 347.569983 41.665573 
L 347.80049 41.665573 
L 347.80049 41.351193 
L 348.026316 41.351193 
L 348.026316 41.036813 
L 350.370927 41.036813 
L 350.370927 40.722434 
L 350.554843 40.722434 
L 350.554843 40.408054 
L 350.926635 40.408054 
L 350.926635 40.093674 
L 352.528538 40.093674 
L 352.561248 39.464914 
L 353.056098 39.464914 
L 353.056098 39.150535 
L 353.240014 39.150535 
L 353.240014 38.836155 
L 353.611806 38.836155 
L 353.617028 38.207395 
L 354.753014 38.207395 
L 354.753014 37.893015 
L 355.025813 37.893015 
L 355.025813 37.578636 
L 357.206122 37.578636 
L 357.206122 37.264256 
L 357.438185 37.264256 
L 357.438185 36.949876 
L 358.887446 36.949876 
L 358.887446 36.635496 
L 359.633339 36.635496 
L 359.633339 36.321116 
L 360.036131 36.321116 
L 360.036131 36.006736 
L 362.31851 36.006736 
L 362.31851 35.692357 
L 364.651125 35.692357 
L 364.651125 35.377977 
L 366.992001 35.377977 
L 366.992001 35.063597 
L 367.552681 35.063597 
L 367.552681 34.749217 
L 367.966821 34.749217 
L 367.966821 34.434837 
L 369.153348 34.434837 
L 369.186058 33.806078 
L 370.34509 33.806078 
L 370.34509 33.491698 
L 370.761539 33.491698 
L 370.761539 33.177318 
L 370.945455 33.177318 
L 370.945455 32.862938 
L 371.317247 32.862938 
L 371.317247 32.548559 
L 371.650623 32.548559 
L 371.650623 32.234179 
L 373.030261 32.234179 
L 373.030261 31.919799 
L 375.143626 31.919799 
L 375.143626 31.605419 
L 378.870144 31.605419 
L 378.870144 31.291039 
L 379.284284 31.291039 
L 379.284284 30.976659 
L 379.431817 30.976659 
L 379.431817 30.66228 
L 380.023951 30.66228 
L 380.023951 30.3479 
L 385.585281 30.3479 
L 385.585281 30.03352 
L 386.395914 30.03352 
L 386.395914 29.71914 
L 386.9699 29.71914 
L 386.9699 29.40476 
L 389.655071 29.40476 
L 389.655071 29.090381 
L 389.95305 29.090381 
L 389.95305 28.776001 
L 390.136966 28.776001 
L 390.136966 28.461621 
L 390.508758 28.461621 
L 390.508758 28.147241 
L 390.735702 28.147241 
L 390.735702 27.832861 
L 394.335137 27.832861 
L 394.335137 27.518482 
L 396.902744 27.518482 
L 396.902744 27.204102 
L 397.713376 27.204102 
L 397.713376 26.889722 
L 399.215462 26.889722 
L 399.215462 26.575342 
L 399.414515 26.575342 
L 399.414515 26.260962 
L 399.828655 26.260962 
L 399.828655 25.946582 
L 407.360512 25.946582 
L 407.360512 25.632203 
L 409.927213 25.632203 
L 409.927213 25.317823 
L 417.447115 25.317823 
L 417.447115 25.003443 
L 418.257747 25.003443 
L 418.257747 24.689063 
L 426.552023 24.689063 
L 426.552023 24.374683 
L 453.192 24.374683 
L 453.192 24.374683 
" clip-path="url(#p310399ddf4)" style="fill: none; stroke: #000000; stroke-width: 3; stroke-linecap: square"/>
   </g>
   <g id="line2d_18">
    <path clip-path="url(#p310399ddf4)" style="fill: none; stroke: #000000; stroke-width: 3; stroke-linecap: square"/>
   </g>
   <g id="line2d_19">
    <path d="M 34.16 263.826437 
L 89.587474 263.826437 
L 89.587474 263.435528 
L 91.788134 263.435528 
L 91.855339 262.653709 
L 110.914378 262.653709 
L 110.914378 262.2628 
L 128.10196 262.2628 
L 128.10196 261.871891 
L 128.887781 261.871891 
L 128.887781 261.480981 
L 132.137752 261.480981 
L 132.137752 261.090072 
L 134.338411 261.090072 
L 134.405617 260.308253 
L 148.028013 260.308253 
L 148.028013 259.917344 
L 148.492339 259.917344 
L 148.492339 259.526435 
L 148.980111 259.526435 
L 149.042631 258.353707 
L 149.151441 258.353707 
L 149.151441 257.962797 
L 149.416565 257.962797 
L 149.416565 257.571888 
L 151.806288 257.571888 
L 151.806288 257.180978 
L 152.010849 257.180978 
L 152.010849 256.790069 
L 153.464656 256.790069 
L 153.464656 256.39916 
L 164.4337 256.39916 
L 164.4337 256.00825 
L 165.385798 256.00825 
L 165.448317 255.226432 
L 165.557128 255.226432 
L 165.557128 254.835522 
L 166.99053 254.835522 
L 166.99053 254.444613 
L 167.942629 254.444613 
L 168.005148 253.662794 
L 168.113958 253.662794 
L 168.113958 253.271885 
L 168.572384 253.271885 
L 168.572384 252.880976 
L 168.897904 252.880976 
L 168.897904 252.490066 
L 169.010778 252.490066 
L 169.049433 251.708248 
L 169.146324 251.708248 
L 169.146324 251.317338 
L 169.278076 251.317338 
L 169.278076 250.926429 
L 169.524482 250.926429 
L 169.587001 250.14461 
L 169.695812 250.14461 
L 169.695812 249.753701 
L 170.314023 249.753701 
L 170.314023 249.362792 
L 170.652238 249.362792 
L 170.715499 248.580973 
L 170.961218 248.580973 
L 171.03184 247.799154 
L 171.233333 247.799154 
L 171.32864 246.626426 
L 171.43745 246.626426 
L 171.54594 245.062789 
L 171.983938 245.062789 
L 172.046458 244.28097 
L 172.155268 244.28097 
L 172.247951 243.108242 
L 172.356761 243.108242 
L 172.356761 242.717333 
L 176.15805 242.717333 
L 176.15805 242.326424 
L 181.82967 242.326424 
L 181.82967 241.935514 
L 184.030329 241.935514 
L 184.097534 241.153696 
L 185.303591 241.153696 
L 185.303591 240.762786 
L 185.416465 240.762786 
L 185.45512 239.980968 
L 185.55201 239.980968 
L 185.55201 239.590058 
L 187.121186 239.590058 
L 187.121186 239.199149 
L 187.366905 239.199149 
L 187.366905 238.80824 
L 187.522983 238.80824 
L 187.522983 238.41733 
L 187.860421 238.41733 
L 187.860421 238.026421 
L 187.973295 238.026421 
L 188.01195 237.244602 
L 188.108841 237.244602 
L 188.108841 236.853693 
L 189.442275 236.853693 
L 189.442275 236.462784 
L 189.555149 236.462784 
L 189.593804 235.680965 
L 189.678016 235.680965 
L 189.723642 234.508237 
L 189.790848 234.508237 
L 189.790848 234.117328 
L 189.923735 234.117328 
L 189.923735 233.726418 
L 190.604979 233.726418 
L 190.604979 233.335509 
L 191.042616 233.335509 
L 191.042616 232.9446 
L 191.183913 232.9446 
L 191.25987 232.162781 
L 191.296787 232.162781 
L 191.335443 231.380962 
L 191.432333 231.380962 
L 191.505589 230.599144 
L 191.545554 230.599144 
L 191.545554 230.208234 
L 191.901731 230.208234 
L 191.966842 229.426416 
L 192.014605 229.426416 
L 192.103224 228.253688 
L 192.150151 228.253688 
L 192.254753 227.08096 
L 192.351644 227.08096 
L 192.351644 226.69005 
L 193.001508 226.69005 
L 193.001508 226.299141 
L 193.247227 226.299141 
L 193.247227 225.908231 
L 193.719326 225.908231 
L 193.719326 225.517322 
L 193.920819 225.517322 
L 193.965045 224.735503 
L 194.166538 224.735503 
L 194.166538 224.344594 
L 194.356565 224.344594 
L 194.356565 223.953685 
L 194.561126 223.953685 
L 194.561126 223.562775 
L 202.65749 223.562775 
L 202.704571 222.780957 
L 203.156573 222.780957 
L 203.156573 222.390047 
L 204.474401 222.390047 
L 204.556639 221.608229 
L 204.724814 221.608229 
L 204.724814 221.217319 
L 204.85815 221.217319 
L 204.925355 220.044591 
L 204.972436 220.044591 
L 204.972436 219.653682 
L 205.319673 219.653682 
L 205.319673 219.262773 
L 206.67506 219.262773 
L 206.742266 218.480954 
L 206.925473 218.480954 
L 206.992679 217.699135 
L 207.792561 217.699135 
L 207.792561 217.308226 
L 208.578382 217.308226 
L 208.578382 216.917317 
L 208.849887 216.917317 
L 208.849887 216.526407 
L 211.219198 216.526407 
L 211.219198 216.135498 
L 211.801588 216.135498 
L 211.801588 215.744589 
L 213.419857 215.744589 
L 213.487063 214.96277 
L 218.708327 214.96277 
L 218.708327 214.571861 
L 220.20481 214.571861 
L 220.20481 214.180951 
L 220.344155 214.180951 
L 220.387042 213.399133 
L 221.129976 213.399133 
L 221.219427 212.226405 
L 221.328238 212.226405 
L 221.328238 211.835495 
L 221.481221 211.835495 
L 221.513532 211.053677 
L 222.190908 211.053677 
L 222.284454 210.271858 
L 222.46563 210.271858 
L 222.528149 208.708221 
L 222.63696 208.708221 
L 222.63696 208.317311 
L 222.907551 208.317311 
L 222.923078 207.535493 
L 223.236552 207.535493 
L 223.299071 206.753674 
L 223.407882 206.753674 
L 223.48062 205.190037 
L 223.539004 205.190037 
L 223.647814 204.017309 
L 223.686113 204.017309 
L 223.686113 203.626399 
L 223.859649 203.626399 
L 223.922168 202.844581 
L 223.984394 202.844581 
L 224.093922 201.280943 
L 224.234554 201.280943 
L 224.294853 200.499125 
L 224.391567 200.499125 
L 224.458773 199.717306 
L 224.604758 199.717306 
L 224.620131 198.935487 
L 224.782661 198.935487 
L 224.782661 198.544578 
L 225.556856 198.544578 
L 225.634749 196.980941 
L 225.728186 196.980941 
L 225.801305 195.808213 
L 226.037469 195.808213 
L 226.051718 195.026394 
L 226.823289 195.026394 
L 226.823289 194.635485 
L 227.06244 194.635485 
L 227.06244 194.244575 
L 227.231177 194.244575 
L 227.231177 193.853666 
L 228.102543 193.853666 
L 228.18294 193.071847 
L 228.602755 193.071847 
L 228.685877 192.290028 
L 228.784722 192.290028 
L 228.784722 191.899119 
L 229.107166 191.899119 
L 229.107166 191.50821 
L 229.876292 191.50821 
L 229.876292 191.1173 
L 230.636338 191.1173 
L 230.636338 190.726391 
L 231.496889 190.726391 
L 231.496889 190.335482 
L 231.70145 190.335482 
L 231.70145 189.944572 
L 232.546102 189.944572 
L 232.564623 189.162754 
L 233.524144 189.162754 
L 233.524144 188.771844 
L 235.525216 188.771844 
L 235.525216 188.380935 
L 235.816631 188.380935 
L 235.816631 187.990026 
L 236.367081 187.990026 
L 236.367081 187.599116 
L 237.18821 187.599116 
L 237.18821 187.208207 
L 237.370176 187.208207 
L 237.370176 186.817298 
L 238.922064 186.817298 
L 238.922064 186.426388 
L 240.21225 186.426388 
L 240.21225 186.035479 
L 240.734534 186.035479 
L 240.734534 185.64457 
L 241.057455 185.64457 
L 241.15536 183.690023 
L 241.171976 183.690023 
L 241.237472 181.735476 
L 241.307642 181.735476 
L 241.32312 180.953658 
L 241.583828 180.953658 
L 241.65876 180.171839 
L 241.765795 180.171839 
L 241.765795 179.78093 
L 241.957797 179.78093 
L 242.004877 178.999111 
L 242.383423 178.999111 
L 242.460361 178.217292 
L 242.496297 178.217292 
L 242.534952 177.435474 
L 242.631843 177.435474 
L 242.661292 176.653655 
L 242.892295 176.653655 
L 242.988887 175.871836 
L 243.138015 175.871836 
L 243.2393 174.699108 
L 243.258114 174.699108 
L 243.35602 172.353652 
L 243.394277 172.353652 
L 243.487422 170.008196 
L 243.507151 170.008196 
L 243.584313 167.271831 
L 243.642697 167.271831 
L 243.642697 166.880922 
L 243.774708 166.880922 
L 243.777442 166.099103 
L 243.890316 166.099103 
L 243.928971 165.317284 
L 244.02512 165.317284 
L 244.048483 164.144556 
L 244.180302 164.144556 
L 244.285977 162.580919 
L 244.446737 162.580919 
L 244.446737 162.190009 
L 244.903711 162.190009 
L 244.971939 161.017281 
L 245.085677 161.017281 
L 245.153488 160.235463 
L 245.211872 160.235463 
L 245.217659 159.453644 
L 245.399207 159.453644 
L 245.490022 157.890007 
L 245.545696 157.890007 
L 245.641551 155.544551 
L 245.723069 155.544551 
L 245.738442 154.762732 
L 245.840756 154.762732 
L 245.840756 154.371823 
L 246.024957 154.371823 
L 246.024957 153.980913 
L 246.427848 153.980913 
L 246.427848 153.590004 
L 246.930785 153.590004 
L 246.930785 153.199095 
L 247.042025 153.199095 
L 247.042025 152.808185 
L 247.292244 152.808185 
L 247.352073 151.635457 
L 247.537963 151.635457 
L 247.606811 150.462729 
L 248.865578 150.462729 
L 248.865578 150.07182 
L 249.348449 150.07182 
L 249.348449 149.680911 
L 249.598856 149.680911 
L 249.598856 149.290001 
L 249.733684 149.290001 
L 249.741796 148.508183 
L 249.929831 148.508183 
L 249.946357 147.726364 
L 250.066267 147.726364 
L 250.066267 147.335455 
L 250.26776 147.335455 
L 250.26776 146.944545 
L 250.519504 146.944545 
L 250.519504 146.553636 
L 251.180709 146.553636 
L 251.180709 146.162727 
L 251.79667 146.162727 
L 251.79667 145.771817 
L 251.930903 145.771817 
L 251.930903 145.380908 
L 252.486661 145.380908 
L 252.486661 144.989999 
L 252.871431 144.989999 
L 252.922348 144.20818 
L 253.168248 144.20818 
L 253.168248 143.817271 
L 253.350215 143.817271 
L 253.350215 143.426361 
L 253.640165 143.426361 
L 253.640165 143.035452 
L 253.841659 143.035452 
L 253.841659 142.644543 
L 254.068515 142.644543 
L 254.068515 142.253633 
L 254.351653 142.253633 
L 254.351653 141.862724 
L 254.487733 141.862724 
L 254.487733 141.471815 
L 255.723232 141.471815 
L 255.810153 140.689996 
L 255.848651 140.689996 
L 255.905198 139.908177 
L 256.069587 139.908177 
L 256.069587 139.517268 
L 256.527971 139.517268 
L 256.527971 139.126359 
L 256.729464 139.126359 
L 256.729464 138.735449 
L 257.130116 138.735449 
L 257.130116 138.34454 
L 257.26705 138.34454 
L 257.26705 137.953631 
L 257.467612 137.953631 
L 257.467612 137.562721 
L 257.811225 137.562721 
L 257.811225 137.171812 
L 258.529043 137.171812 
L 258.529043 136.780903 
L 258.730536 136.780903 
L 258.730536 136.389993 
L 259.60989 136.389993 
L 259.685099 135.608175 
L 260.024443 135.608175 
L 260.024443 135.217265 
L 260.355557 135.217265 
L 260.355557 134.826356 
L 260.586932 134.826356 
L 260.586932 134.435447 
L 260.705394 134.435447 
L 260.705394 134.044537 
L 260.834278 134.044537 
L 260.834278 133.653628 
L 260.981469 133.653628 
L 260.981469 133.262719 
L 261.163436 133.262719 
L 261.163436 132.871809 
L 261.491214 132.871809 
L 261.597312 131.699081 
L 261.606297 131.699081 
L 261.609436 130.917262 
L 261.727136 130.917262 
L 261.727136 130.526353 
L 261.909103 130.526353 
L 261.909103 130.135444 
L 262.065292 130.135444 
L 262.112373 129.353625 
L 262.384358 129.353625 
L 262.486581 128.180897 
L 262.533661 128.180897 
L 262.634546 127.399078 
L 263.347935 127.399078 
L 263.379266 126.61726 
L 263.46631 126.61726 
L 263.46631 126.22635 
L 263.629678 126.22635 
L 263.629678 125.835441 
L 263.882203 125.835441 
L 263.882203 125.444532 
L 264.031498 125.444532 
L 264.132616 124.271804 
L 264.267246 124.271804 
L 264.303492 123.489985 
L 264.458607 123.489985 
L 264.553904 122.708166 
L 264.876304 122.708166 
L 264.943336 121.535438 
L 265.080865 121.535438 
L 265.127945 120.75362 
L 265.689003 120.75362 
L 265.689003 120.36271 
L 266.693215 120.36271 
L 266.784832 119.580892 
L 266.897776 119.580892 
L 266.943627 118.799073 
L 267.148188 118.799073 
L 267.148188 118.408164 
L 268.400245 118.408164 
L 268.400245 118.017254 
L 268.85147 118.017254 
L 268.85147 117.626345 
L 270.124063 117.626345 
L 270.124063 117.235436 
L 270.627 117.235436 
L 270.627 116.844526 
L 271.048288 116.844526 
L 271.048288 116.453617 
L 271.406454 116.453617 
L 271.406454 116.062708 
L 272.42657 116.062708 
L 272.42657 115.671798 
L 273.438011 115.671798 
L 273.438011 115.280889 
L 273.642572 115.280889 
L 273.642572 114.88998 
L 274.093559 114.88998 
L 274.093559 114.49907 
L 276.664691 114.49907 
L 276.664691 114.108161 
L 277.410358 114.108161 
L 277.410358 113.717252 
L 278.895898 113.717252 
L 278.895898 113.326342 
L 279.57194 113.326342 
L 279.669846 112.544524 
L 279.822128 112.544524 
L 279.888196 111.762705 
L 280.267477 111.762705 
L 280.371561 110.589977 
L 280.449444 110.589977 
L 280.455667 109.808158 
L 280.572492 109.808158 
L 280.607949 109.02634 
L 281.095773 109.02634 
L 281.095773 108.63543 
L 281.259775 108.63543 
L 281.259775 108.244521 
L 281.441742 108.244521 
L 281.441742 107.853612 
L 281.59871 107.853612 
L 281.59871 107.462702 
L 282.019998 107.462702 
L 282.019998 107.071793 
L 284.229344 107.071793 
L 284.229344 106.680884 
L 284.409721 106.680884 
L 284.409721 106.289974 
L 284.614282 106.289974 
L 284.614282 105.899065 
L 285.221642 105.899065 
L 285.221642 105.508156 
L 289.228066 105.508156 
L 289.275147 104.726337 
L 291.044977 104.726337 
L 291.044977 104.335428 
L 291.295389 104.335428 
L 291.295389 103.944518 
L 295.950699 103.944518 
L 295.950699 103.553609 
L 296.942997 103.553609 
L 296.942997 103.1627 
L 297.789774 103.1627 
L 297.789774 102.77179 
L 299.239237 102.77179 
L 299.239237 102.380881 
L 299.962319 102.380881 
L 300.060225 101.599062 
L 300.212507 101.599062 
L 300.212507 101.208153 
L 300.465256 101.208153 
L 300.563162 100.035425 
L 300.715444 100.035425 
L 300.715444 99.644515 
L 300.886545 99.644515 
L 300.984451 98.862697 
L 301.136733 98.862697 
L 301.171822 98.080878 
L 301.31888 98.080878 
L 301.31888 97.689969 
L 301.500429 97.689969 
L 301.558813 96.90815 
L 301.941978 96.90815 
L 301.941978 96.517241 
L 302.813135 96.517241 
L 302.813135 96.126331 
L 303.276268 96.126331 
L 303.374174 95.344513 
L 303.480829 95.344513 
L 303.578735 94.171785 
L 303.639185 94.171785 
L 303.731017 92.999057 
L 303.925155 92.999057 
L 303.925155 92.608147 
L 304.121857 92.608147 
L 304.121857 92.217238 
L 304.892779 92.217238 
L 304.892779 91.826329 
L 305.074328 91.826329 
L 305.132711 91.04451 
L 305.515876 91.04451 
L 305.515876 90.653601 
L 305.70094 90.653601 
L 305.70094 90.262691 
L 307.009663 90.262691 
L 307.009663 89.871782 
L 307.213084 89.871782 
L 307.228457 89.089963 
L 307.702012 89.089963 
L 307.780584 88.308145 
L 307.962133 88.308145 
L 308.020517 87.526326 
L 308.403682 87.526326 
L 308.403682 87.135417 
L 308.761484 87.135417 
L 308.761484 86.744507 
L 309.010735 86.744507 
L 309.010735 86.353598 
L 309.566893 86.353598 
L 309.566893 85.962689 
L 309.781656 85.962689 
L 309.781656 85.571779 
L 309.963205 85.571779 
L 310.021589 84.789961 
L 310.100889 84.789961 
L 310.116262 84.008142 
L 310.404754 84.008142 
L 310.404754 83.617233 
L 312.101961 83.617233 
L 312.117334 82.835414 
L 313.238722 82.835414 
L 313.238722 82.444505 
L 313.723416 82.444505 
L 313.723416 82.053595 
L 314.547445 82.053595 
L 314.547445 81.662686 
L 315.318366 81.662686 
L 315.318366 81.271777 
L 315.499915 81.271777 
L 315.558299 80.489958 
L 315.941464 80.489958 
L 315.941464 80.099049 
L 316.47675 80.099049 
L 316.47675 79.708139 
L 317.638671 79.708139 
L 317.654044 78.926321 
L 319.41673 78.926321 
L 319.41673 78.535411 
L 322.118488 78.535411 
L 322.170063 77.753593 
L 327.62803 77.753593 
L 327.725936 76.971774 
L 327.811801 76.971774 
L 327.878218 76.189955 
L 334.551237 76.189955 
L 334.598318 75.408137 
L 336.368148 75.408137 
L 336.368148 75.017227 
L 336.61856 75.017227 
L 336.61856 74.626318 
L 337.30457 74.626318 
L 337.351651 73.844499 
L 339.121481 73.844499 
L 339.121481 73.45359 
L 339.371894 73.45359 
L 339.371894 73.062681 
L 342.946308 73.062681 
L 342.993389 72.280862 
L 343.112945 72.280862 
L 343.112945 71.889953 
L 344.763219 71.889953 
L 344.763219 71.499043 
L 345.013632 71.499043 
L 345.013632 71.108134 
L 345.866278 71.108134 
L 345.866278 70.717225 
L 351.508016 70.717225 
L 351.508016 70.326315 
L 354.084655 70.326315 
L 354.084655 69.935406 
L 356.837988 69.935406 
L 356.837988 69.544497 
L 362.479726 69.544497 
L 362.479726 69.153587 
L 372.951201 69.153587 
L 373.049107 68.371769 
L 373.201389 68.371769 
L 373.201389 67.980859 
L 375.704535 67.980859 
L 375.80244 67.19904 
L 375.954722 67.19904 
L 375.954722 66.808131 
L 381.346273 66.808131 
L 381.444178 66.026312 
L 381.59646 66.026312 
L 381.59646 65.635403 
L 453.192 65.635403 
L 453.192 65.635403 
" clip-path="url(#p310399ddf4)" style="fill: none; stroke: #00bfbf; stroke-width: 3; stroke-linecap: square"/>
   </g>
   <g id="line2d_20">
    <path clip-path="url(#p310399ddf4)" style="fill: none; stroke: #00bfbf; stroke-width: 3; stroke-linecap: square"/>
   </g>
   <g id="line2d_21">
    <path d="M 34.16 244.843555 
L 102.297346 244.843555 
L 102.297346 244.424226 
L 104.466675 244.424226 
L 104.466675 244.004898 
L 104.641871 244.004898 
L 104.641871 243.585569 
L 123.554031 243.585569 
L 123.554031 243.166241 
L 140.719396 243.166241 
L 140.719396 242.746912 
L 141.451523 242.746912 
L 141.451523 242.327584 
L 153.121911 242.327584 
L 153.121911 241.908255 
L 155.29124 241.908255 
L 155.29124 241.488927 
L 155.466436 241.488927 
L 155.466436 241.069598 
L 161.621394 241.069598 
L 161.632779 240.230941 
L 161.878772 240.230941 
L 161.878772 239.811612 
L 164.075916 239.811612 
L 164.075916 239.392284 
L 164.381132 239.392284 
L 164.381132 238.972955 
L 174.378596 238.972955 
L 174.378596 238.553627 
L 178.100621 238.553627 
L 178.100621 238.134298 
L 182.918715 238.134298 
L 182.918715 237.714969 
L 185.088044 237.714969 
L 185.088044 237.295641 
L 185.26324 237.295641 
L 185.26324 236.876312 
L 187.151806 236.876312 
L 187.151806 236.456984 
L 189.321134 236.456984 
L 189.321134 236.037655 
L 189.49633 236.037655 
L 189.49633 235.618327 
L 190.63402 235.618327 
L 190.63402 235.198998 
L 191.543961 235.198998 
L 191.543961 234.77967 
L 192.276088 234.77967 
L 192.276088 234.360341 
L 192.803349 234.360341 
L 192.803349 233.941012 
L 192.978545 233.941012 
L 192.978545 233.521684 
L 203.122508 233.521684 
L 203.122508 233.102355 
L 203.614541 233.102355 
L 203.614541 232.683027 
L 204.1754 232.683027 
L 204.1754 232.263698 
L 204.589715 232.263698 
L 204.589715 231.84437 
L 204.883462 231.84437 
L 204.883462 231.425041 
L 205.291837 231.425041 
L 205.316151 230.167055 
L 205.467033 230.167055 
L 205.467033 229.747727 
L 205.783869 229.747727 
L 205.783869 229.328398 
L 205.959065 229.328398 
L 205.959065 228.90907 
L 206.759044 228.90907 
L 206.759044 228.489741 
L 206.93424 228.489741 
L 206.93424 228.070413 
L 207.48548 228.070413 
L 207.48548 227.651084 
L 207.660676 227.651084 
L 207.660676 227.231755 
L 208.40849 227.231755 
L 208.40849 226.812427 
L 208.86188 226.812427 
L 208.903718 225.554441 
L 209.019636 225.554441 
L 209.130462 224.296455 
L 209.551057 224.296455 
L 209.592895 223.03847 
L 209.689999 223.03847 
L 209.74855 221.780484 
L 209.819639 221.780484 
L 209.819639 221.361156 
L 209.949071 221.361156 
L 209.990909 220.10317 
L 210.106828 220.10317 
L 210.217654 217.587198 
L 210.299306 217.587198 
L 210.410132 215.909884 
L 210.77719 215.909884 
L 210.77719 215.490556 
L 210.969669 215.490556 
L 210.969669 215.071227 
L 211.890705 215.071227 
L 211.890705 214.651899 
L 212.445959 214.651899 
L 212.457344 213.813241 
L 212.703337 213.813241 
L 212.703337 213.393913 
L 214.900481 213.393913 
L 214.900481 212.974584 
L 215.205697 212.974584 
L 215.205697 212.555256 
L 218.247328 212.555256 
L 218.247328 212.135927 
L 220.416656 212.135927 
L 220.416656 211.716599 
L 220.591852 211.716599 
L 220.591852 211.29727 
L 221.340765 211.29727 
L 221.340765 210.877941 
L 222.072892 210.877941 
L 222.072892 210.458613 
L 222.571625 210.458613 
L 222.571625 210.039284 
L 223.046355 210.039284 
L 223.046355 209.619956 
L 223.208978 209.619956 
L 223.208978 209.200627 
L 223.455217 209.200627 
L 223.455217 208.781299 
L 224.164823 208.781299 
L 224.209307 207.942642 
L 224.379193 207.942642 
L 224.379193 207.523313 
L 224.740953 207.523313 
L 224.740953 207.103984 
L 224.871226 207.103984 
L 224.916149 206.265327 
L 225.327206 206.265327 
L 225.327206 205.845999 
L 225.573856 205.845999 
L 225.573856 205.42667 
L 225.8464 205.42667 
L 225.8464 205.007342 
L 226.074508 205.007342 
L 226.116346 203.749356 
L 226.206724 203.749356 
L 226.305982 201.233385 
L 226.34309 201.233385 
L 226.404217 199.975399 
L 226.475306 199.975399 
L 226.572836 198.717413 
L 226.785802 198.717413 
L 226.785802 198.298085 
L 226.902627 198.298085 
L 226.902627 197.878756 
L 227.034843 197.878756 
L 227.034843 197.459427 
L 227.171575 197.459427 
L 227.171575 197.040099 
L 227.474979 197.040099 
L 227.569589 196.201442 
L 227.762067 196.201442 
L 227.872993 195.362785 
L 228.065472 195.362785 
L 228.065472 194.943456 
L 228.643202 194.943456 
L 228.643202 194.524128 
L 228.925186 194.524128 
L 228.925186 194.104799 
L 229.05607 194.104799 
L 229.05607 193.68547 
L 229.788197 193.68547 
L 229.856349 192.846813 
L 230.659263 192.846813 
L 230.659263 192.427485 
L 236.113455 192.427485 
L 236.113455 192.008156 
L 238.90128 192.008156 
L 238.90128 191.588828 
L 239.504013 191.588828 
L 239.504013 191.169499 
L 240.913354 191.169499 
L 240.963385 190.330842 
L 241.209464 190.330842 
L 241.273869 189.492185 
L 241.371872 189.492185 
L 241.371872 189.072856 
L 241.544558 189.072856 
L 241.544558 188.653528 
L 241.782515 188.653528 
L 241.782515 188.234199 
L 242.036591 188.234199 
L 242.036591 187.814871 
L 242.148548 187.814871 
L 242.254148 186.556885 
L 242.276685 186.556885 
L 242.373967 185.298899 
L 242.500141 185.298899 
L 242.500141 184.879571 
L 242.768717 184.879571 
L 242.768717 184.460242 
L 243.011765 184.460242 
L 243.063144 183.621585 
L 243.132714 183.621585 
L 243.132714 183.202256 
L 243.30791 183.202256 
L 243.378793 182.363599 
L 243.443198 182.363599 
L 243.553989 180.266956 
L 243.561388 180.266956 
L 243.653637 178.589642 
L 243.695026 178.589642 
L 243.746307 175.235014 
L 243.817397 175.235014 
L 243.902556 172.299714 
L 243.931821 172.299714 
L 244.025312 170.622399 
L 244.047739 170.622399 
L 244.158565 168.945085 
L 244.22935 168.945085 
L 244.22935 168.525757 
L 244.376933 168.525757 
L 244.470328 167.6871 
L 244.524575 167.6871 
L 244.524575 167.267771 
L 244.697285 167.267771 
L 244.718102 166.009785 
L 244.83485 166.009785 
L 244.83485 165.590457 
L 245.002501 165.590457 
L 245.112503 164.332471 
L 245.304981 164.332471 
L 245.304981 163.913142 
L 245.464544 163.913142 
L 245.464544 163.493814 
L 245.670458 163.493814 
L 245.670458 163.074485 
L 246.475853 163.074485 
L 246.487238 162.235828 
L 246.733231 162.235828 
L 246.733231 161.8165 
L 248.930375 161.8165 
L 248.986454 160.977843 
L 249.235591 160.977843 
L 249.235591 160.558514 
L 249.958068 160.558514 
L 249.969453 159.719857 
L 250.215446 159.719857 
L 250.215446 159.300528 
L 251.699603 159.300528 
L 251.699603 158.8812 
L 252.41259 158.8812 
L 252.41259 158.461871 
L 252.568764 158.461871 
L 252.568764 158.042543 
L 252.717806 158.042543 
L 252.717806 157.623214 
L 252.934796 157.623214 
L 252.934796 157.203885 
L 254.487427 157.203885 
L 254.487427 156.784557 
L 255.356588 156.784557 
L 255.356588 156.365228 
L 255.722621 156.365228 
L 255.722621 155.9459 
L 256.456706 155.9459 
L 256.456706 155.526571 
L 256.669378 155.526571 
L 256.669378 155.107243 
L 257.401504 155.107243 
L 257.401504 154.687914 
L 258.72199 154.687914 
L 258.72199 154.268586 
L 259.137295 154.268586 
L 259.244531 153.429928 
L 259.586595 153.429928 
L 259.586595 153.0106 
L 259.718811 153.0106 
L 259.718811 152.591271 
L 260.006456 152.591271 
L 260.006456 152.171943 
L 260.372488 152.171943 
L 260.420998 151.333286 
L 260.993674 151.333286 
L 260.993674 150.913957 
L 261.169332 150.913957 
L 261.237939 149.655971 
L 261.290159 149.655971 
L 261.370155 148.397986 
L 261.472736 148.397986 
L 261.5105 147.559329 
L 261.620378 147.559329 
L 261.725801 145.882014 
L 261.813905 145.882014 
L 261.813905 145.462686 
L 262.22007 145.462686 
L 262.22007 145.043357 
L 262.446556 145.043357 
L 262.530554 143.366043 
L 262.660062 143.366043 
L 262.703934 142.527386 
L 262.938588 142.527386 
L 262.95508 141.2694 
L 263.195966 141.2694 
L 263.195966 140.850072 
L 263.780934 140.850072 
L 263.780934 140.430743 
L 263.894399 140.430743 
L 263.925148 139.172757 
L 264.171141 139.172757 
L 264.171141 138.753429 
L 264.640199 138.753429 
L 264.651584 137.914772 
L 264.897577 137.914772 
L 264.901078 137.076115 
L 265.178102 137.076115 
L 265.206294 136.237457 
L 265.39311 136.237457 
L 265.39311 135.818129 
L 265.698326 135.818129 
L 265.698326 135.3988 
L 266.368285 135.3988 
L 266.437295 134.560143 
L 266.673501 134.560143 
L 266.673501 134.140815 
L 267.094721 134.140815 
L 267.094721 133.721486 
L 267.399937 133.721486 
L 267.399937 133.302157 
L 274.989388 133.302157 
L 274.989388 132.882829 
L 277.060902 132.882829 
L 277.060902 132.4635 
L 277.208543 132.4635 
L 277.208543 132.044172 
L 277.40207 132.044172 
L 277.40207 131.624843 
L 277.571375 131.624843 
L 277.58276 130.786186 
L 277.828753 130.786186 
L 277.828753 130.366858 
L 278.246209 130.366858 
L 278.246209 129.947529 
L 278.712246 129.947529 
L 278.712246 129.5282 
L 278.859887 129.5282 
L 278.925783 128.689543 
L 279.053414 128.689543 
L 279.11537 127.850886 
L 279.367082 127.850886 
L 279.417815 126.5929 
L 279.481403 126.5929 
L 279.537037 125.754243 
L 279.631514 125.754243 
L 279.695919 124.915586 
L 280.025897 124.915586 
L 280.117562 124.076929 
L 280.236243 124.076929 
L 280.331113 123.238272 
L 280.363641 123.238272 
L 280.428046 121.980286 
L 280.537367 121.980286 
L 280.602275 121.141629 
L 280.680914 121.141629 
L 280.680914 120.722301 
L 281.119426 120.722301 
L 281.119426 120.302972 
L 281.483828 120.302972 
L 281.483828 119.883643 
L 281.895672 119.883643 
L 281.907057 119.044986 
L 282.15305 119.044986 
L 282.15305 118.625658 
L 283.003313 118.625658 
L 283.003313 118.206329 
L 284.124186 118.206329 
L 284.124186 117.787001 
L 284.350194 117.787001 
L 284.350194 117.367672 
L 284.65541 117.367672 
L 284.65541 116.948344 
L 294.050602 116.948344 
L 294.050602 116.529015 
L 298.374899 116.529015 
L 298.374899 116.109686 
L 300.287433 116.109686 
L 300.298818 115.271029 
L 300.533512 115.271029 
L 300.609301 113.174386 
L 300.79089 113.174386 
L 300.855295 112.335729 
L 302.741955 112.335729 
L 302.741955 111.916401 
L 302.988034 111.916401 
L 303.052438 110.658415 
L 303.29325 110.658415 
L 303.357655 109.819758 
L 304.786192 109.819758 
L 304.786192 109.400429 
L 309.019282 109.400429 
L 309.019282 108.981101 
L 310.477718 108.981101 
L 310.477718 108.561772 
L 311.280633 108.561772 
L 311.280633 108.142444 
L 312.501497 108.142444 
L 312.501497 107.723115 
L 314.710809 107.723115 
L 314.710809 107.303787 
L 315.513723 107.303787 
L 315.513723 106.884458 
L 316.76666 106.884458 
L 316.76666 106.465129 
L 317.012739 106.465129 
L 317.077143 105.626472 
L 318.193023 105.626472 
L 318.193023 105.207144 
L 318.995938 105.207144 
L 318.995938 104.787815 
L 324.989985 104.787815 
L 324.989985 104.368487 
L 325.482017 104.368487 
L 325.482017 103.949158 
L 326.457192 103.949158 
L 326.457192 103.52983 
L 327.183628 103.52983 
L 327.183628 103.110501 
L 330.681511 103.110501 
L 330.681511 102.691172 
L 331.173544 102.691172 
L 331.173544 102.271844 
L 331.484426 102.271844 
L 331.484426 101.852515 
L 331.976458 101.852515 
L 331.976458 101.433187 
L 332.148718 101.433187 
L 332.148718 101.013858 
L 332.875154 101.013858 
L 332.951632 100.175201 
L 333.678068 100.175201 
L 333.678068 99.755872 
L 340.114805 99.755872 
L 340.114805 99.336544 
L 344.439101 99.336544 
L 344.439101 98.917215 
L 345.806331 98.917215 
L 345.806331 98.497887 
L 346.609245 98.497887 
L 346.609245 98.078558 
L 350.130627 98.078558 
L 350.130627 97.65923 
L 350.933542 97.65923 
L 350.933542 97.239901 
L 362.830862 97.239901 
L 362.830862 96.820573 
L 363.076941 96.820573 
L 363.141346 95.981915 
L 368.522388 95.981915 
L 368.522388 95.562587 
L 368.768467 95.562587 
L 368.832872 94.72393 
L 369.325303 94.72393 
L 369.325303 94.304601 
L 369.571382 94.304601 
L 369.635786 93.465944 
L 453.192 93.465944 
L 453.192 93.465944 
" clip-path="url(#p310399ddf4)" style="fill: none; stroke: #bf00bf; stroke-width: 3; stroke-linecap: square"/>
   </g>
   <g id="line2d_22">
    <path clip-path="url(#p310399ddf4)" style="fill: none; stroke: #bf00bf; stroke-width: 3; stroke-linecap: square"/>
   </g>
   <g id="line2d_23">
    <path d="M 34.16 244.843555 
L 107.612982 244.843555 
L 107.612982 244.424226 
L 109.448665 244.424226 
L 109.448665 244.004898 
L 109.823037 244.004898 
L 109.823037 243.585569 
L 128.068624 243.585569 
L 128.068624 243.166241 
L 144.904417 243.166241 
L 144.904417 242.746912 
L 146.422423 242.746912 
L 146.422423 242.327584 
L 161.808742 242.327584 
L 161.808742 241.908255 
L 163.644424 241.908255 
L 163.644424 241.488927 
L 164.018797 241.488927 
L 164.018797 241.069598 
L 165.258425 241.069598 
L 165.258425 240.650269 
L 165.995931 240.650269 
L 165.995931 240.230941 
L 166.7719 240.230941 
L 166.7719 239.811612 
L 167.793251 239.811612 
L 167.793251 239.392284 
L 168.22106 239.392284 
L 168.22106 238.972955 
L 182.106296 238.972955 
L 182.106296 238.553627 
L 182.264383 238.553627 
L 182.264383 238.134298 
L 184.134492 238.134298 
L 184.134492 237.714969 
L 185.970175 237.714969 
L 185.970175 237.295641 
L 186.344547 237.295641 
L 186.344547 236.876312 
L 188.679579 236.876312 
L 188.679579 236.456984 
L 190.515261 236.456984 
L 190.515261 236.037655 
L 190.889634 236.037655 
L 190.889634 235.618327 
L 199.100176 235.618327 
L 199.100176 235.198998 
L 200.618183 235.198998 
L 200.618183 234.77967 
L 203.625704 234.77967 
L 203.625704 234.360341 
L 203.870936 234.360341 
L 203.870936 233.941012 
L 204.590134 233.941012 
L 204.590134 233.521684 
L 205.226007 233.521684 
L 205.226007 233.102355 
L 205.461387 233.102355 
L 205.461387 232.683027 
L 205.624206 232.683027 
L 205.706619 231.84437 
L 205.835759 231.84437 
L 205.835759 231.425041 
L 205.978292 231.425041 
L 206.080991 230.586384 
L 206.14963 230.586384 
L 206.14963 230.167055 
L 207.061689 230.167055 
L 207.061689 229.747727 
L 207.26309 229.747727 
L 207.26309 229.328398 
L 207.436062 229.328398 
L 207.459888 228.489741 
L 207.813974 228.489741 
L 207.834261 227.651084 
L 208.188347 227.651084 
L 208.188347 227.231755 
L 209.13522 227.231755 
L 209.13522 226.812427 
L 210.214554 226.812427 
L 210.218493 225.97377 
L 210.350808 225.97377 
L 210.372596 225.135113 
L 210.520216 225.135113 
L 210.530752 224.296455 
L 210.858824 224.296455 
L 210.862763 223.457798 
L 210.995078 223.457798 
L 211.029669 222.199813 
L 211.164487 222.199813 
L 211.175023 220.522498 
L 211.306382 220.522498 
L 211.32817 219.683841 
L 211.47579 219.683841 
L 211.497255 218.006527 
L 211.629569 218.006527 
L 211.673939 216.748541 
L 211.798978 216.748541 
L 211.809514 215.909884 
L 211.985243 215.909884 
L 211.985243 215.490556 
L 212.30843 215.490556 
L 212.30843 215.071227 
L 218.436796 215.071227 
L 218.436796 214.651899 
L 219.257053 214.651899 
L 219.257053 214.23257 
L 219.454185 214.23257 
L 219.454185 213.813241 
L 220.19169 213.813241 
L 220.272478 212.974584 
L 220.646851 212.974584 
L 220.646851 212.555256 
L 220.967659 212.555256 
L 220.967659 212.135927 
L 221.425926 212.135927 
L 221.425926 211.716599 
L 221.98901 211.716599 
L 221.98901 211.29727 
L 222.41682 211.29727 
L 222.41682 210.877941 
L 222.732614 210.877941 
L 222.732614 210.458613 
L 222.943933 210.458613 
L 222.943933 210.039284 
L 223.100806 210.039284 
L 223.100806 209.619956 
L 224.081346 209.619956 
L 224.081346 209.200627 
L 224.200798 209.200627 
L 224.214265 208.36197 
L 224.326578 208.36197 
L 224.326578 207.942642 
L 224.568296 207.942642 
L 224.568296 207.523313 
L 224.942669 207.523313 
L 224.942669 207.103984 
L 225.295006 207.103984 
L 225.295006 206.684656 
L 225.681648 206.684656 
L 225.78376 205.845999 
L 225.971013 205.845999 
L 226.079847 205.007342 
L 226.155955 205.007342 
L 226.155955 204.588013 
L 226.433933 204.588013 
L 226.506114 203.330027 
L 226.638429 203.330027 
L 226.660217 202.49137 
L 226.807838 202.49137 
L 226.898692 200.814056 
L 227.031006 200.814056 
L 227.052794 199.975399 
L 227.200415 199.975399 
L 227.287094 198.717413 
L 227.31729 198.717413 
L 227.31729 198.298085 
L 227.48902 198.298085 
L 227.48902 197.878756 
L 227.709867 197.878756 
L 227.709867 197.459427 
L 227.931364 197.459427 
L 227.967687 196.62077 
L 228.242668 196.62077 
L 228.242668 196.201442 
L 228.565856 196.201442 
L 228.611957 195.362785 
L 228.685464 195.362785 
L 228.685464 194.943456 
L 228.923261 194.943456 
L 228.923261 194.524128 
L 229.246449 194.524128 
L 229.246449 194.104799 
L 231.727789 194.104799 
L 231.727789 193.68547 
L 236.302055 193.68547 
L 236.302055 193.266142 
L 236.638084 193.266142 
L 236.638084 192.846813 
L 238.892437 192.846813 
L 238.892437 192.427485 
L 239.762106 192.427485 
L 239.762106 192.008156 
L 240.917139 192.008156 
L 240.917139 191.588828 
L 241.151974 191.588828 
L 241.232385 190.330842 
L 241.322223 190.330842 
L 241.322223 189.911513 
L 241.512916 189.911513 
L 241.554355 189.072856 
L 241.736992 189.072856 
L 241.779935 188.234199 
L 242.185547 188.234199 
L 242.185547 187.814871 
L 242.435145 187.814871 
L 242.517441 186.556885 
L 242.557349 186.556885 
L 242.557349 186.137556 
L 242.680377 186.137556 
L 242.734936 185.298899 
L 242.91564 185.298899 
L 242.91564 184.879571 
L 243.068067 184.879571 
L 243.157905 184.040913 
L 243.188255 184.040913 
L 243.29341 182.363599 
L 243.390038 182.363599 
L 243.44244 181.524942 
L 243.512923 181.524942 
L 243.574715 180.266956 
L 243.76441 180.266956 
L 243.836111 178.170314 
L 243.951994 178.170314 
L 244.042425 176.073671 
L 244.063338 176.073671 
L 244.131938 174.396357 
L 244.199592 174.396357 
L 244.266501 172.719042 
L 244.31476 172.719042 
L 244.423264 170.203071 
L 244.433647 170.203071 
L 244.521495 168.525757 
L 244.630855 168.525757 
L 244.715056 166.429114 
L 244.74257 166.429114 
L 244.787733 164.7518 
L 244.878453 164.7518 
L 244.878453 164.332471 
L 245.091109 164.332471 
L 245.178568 163.493814 
L 245.884714 163.493814 
L 245.884714 163.074485 
L 246.325021 163.074485 
L 246.325021 162.655157 
L 247.062527 162.655157 
L 247.062527 162.235828 
L 247.838496 162.235828 
L 247.838496 161.8165 
L 248.414223 161.8165 
L 248.414223 161.397171 
L 248.859847 161.397171 
L 248.859847 160.977843 
L 249.287657 160.977843 
L 249.287657 160.558514 
L 251.995045 160.558514 
L 251.995045 160.139185 
L 252.219121 160.139185 
L 252.219121 159.719857 
L 252.667675 159.719857 
L 252.667675 159.300528 
L 255.119067 159.300528 
L 255.119067 158.8812 
L 255.343143 158.8812 
L 255.343143 158.461871 
L 255.72823 158.461871 
L 255.791697 157.623214 
L 256.366843 157.623214 
L 256.366843 157.203885 
L 257.246237 157.203885 
L 257.246237 156.784557 
L 258.627806 156.784557 
L 258.627806 156.365228 
L 258.844971 156.365228 
L 258.844971 155.9459 
L 259.237548 155.9459 
L 259.237548 155.526571 
L 259.490865 155.526571 
L 259.490865 155.107243 
L 259.780225 155.107243 
L 259.780225 154.687914 
L 260.004301 154.687914 
L 260.099969 153.429928 
L 260.133689 153.429928 
L 260.133689 153.0106 
L 260.34895 153.0106 
L 260.452856 151.752614 
L 260.492546 151.752614 
L 260.492546 151.333286 
L 260.806319 151.333286 
L 260.88828 150.494628 
L 261.135879 150.494628 
L 261.135879 150.0753 
L 261.271147 150.0753 
L 261.271147 149.655971 
L 261.435994 149.655971 
L 261.542055 147.978657 
L 261.568873 147.978657 
L 261.568873 147.559329 
L 261.688026 147.559329 
L 261.777864 146.720671 
L 261.816472 146.720671 
L 261.863575 145.882014 
L 262.008653 145.882014 
L 262.116586 144.624029 
L 262.253885 144.624029 
L 262.253885 144.2047 
L 262.705751 144.2047 
L 262.784622 143.366043 
L 262.871449 143.366043 
L 262.871449 142.946714 
L 263.029854 142.946714 
L 263.029854 142.527386 
L 263.172892 142.527386 
L 263.269649 141.688729 
L 263.608955 141.688729 
L 263.623735 140.850072 
L 263.805973 140.850072 
L 263.805973 140.430743 
L 264.007154 140.430743 
L 264.051204 139.592086 
L 264.152023 139.592086 
L 264.233782 138.753429 
L 264.36124 138.753429 
L 264.384924 137.914772 
L 264.479014 137.914772 
L 264.505487 137.076115 
L 264.783123 137.076115 
L 264.783123 136.656786 
L 265.137209 136.656786 
L 265.137209 136.237457 
L 265.406275 136.237457 
L 265.406275 135.818129 
L 265.804474 135.818129 
L 265.834084 134.979472 
L 266.15856 134.979472 
L 266.232284 134.140815 
L 266.58637 134.140815 
L 266.58637 133.721486 
L 273.452812 133.721486 
L 273.452812 133.302157 
L 276.082239 133.302157 
L 276.158536 132.4635 
L 276.406134 132.4635 
L 276.406134 132.044172 
L 276.706249 132.044172 
L 276.706249 131.624843 
L 276.819744 131.624843 
L 276.819744 131.205515 
L 277.220536 131.205515 
L 277.220536 130.786186 
L 277.413534 130.786186 
L 277.444612 129.947529 
L 277.595713 129.947529 
L 277.661132 129.108872 
L 277.893167 129.108872 
L 277.961247 128.270215 
L 278.062712 128.270215 
L 278.119018 127.431558 
L 278.286788 127.431558 
L 278.36425 126.5929 
L 278.400118 126.5929 
L 278.400118 126.173572 
L 278.523819 126.173572 
L 278.617064 124.915586 
L 278.735342 124.915586 
L 278.845789 124.076929 
L 279.044874 124.076929 
L 279.044874 123.657601 
L 279.490766 123.657601 
L 279.490766 123.238272 
L 279.71932 123.238272 
L 279.71932 122.818943 
L 279.98308 122.818943 
L 280.041826 121.980286 
L 280.117519 121.980286 
L 280.131664 121.141629 
L 280.363796 121.141629 
L 280.471605 119.883643 
L 281.115562 119.883643 
L 281.115562 119.464315 
L 281.592334 119.464315 
L 281.592334 119.044986 
L 281.891531 119.044986 
L 281.891531 118.625658 
L 282.43451 118.625658 
L 282.43451 118.206329 
L 282.912882 118.206329 
L 282.912882 117.787001 
L 283.340692 117.787001 
L 283.340692 117.367672 
L 285.923549 117.367672 
L 285.923549 116.948344 
L 292.930109 116.948344 
L 292.930109 116.529015 
L 295.778562 116.529015 
L 295.778562 116.109686 
L 297.225927 116.109686 
L 297.225927 115.690358 
L 298.877828 115.690358 
L 298.967666 114.851701 
L 299.199798 114.851701 
L 299.199798 114.432372 
L 299.615333 114.432372 
L 299.705171 113.593715 
L 299.937303 113.593715 
L 299.937303 113.174386 
L 300.323649 113.174386 
L 300.391302 112.335729 
L 300.48114 112.335729 
L 300.48114 111.916401 
L 300.713272 111.916401 
L 300.713272 111.497072 
L 301.412653 111.497072 
L 301.502491 110.658415 
L 301.734623 110.658415 
L 301.840463 109.400429 
L 301.930301 109.400429 
L 301.930301 108.981101 
L 302.162433 108.981101 
L 302.162433 108.561772 
L 306.361602 108.561772 
L 306.361602 108.142444 
L 308.249299 108.142444 
L 308.249299 107.723115 
L 312.794385 107.723115 
L 312.794385 107.303787 
L 315.269775 107.303787 
L 315.269775 106.884458 
L 315.515006 106.884458 
L 315.515006 106.465129 
L 315.725698 106.465129 
L 315.815536 105.626472 
L 316.047668 105.626472 
L 316.047668 105.207144 
L 316.870077 105.207144 
L 316.870077 104.787815 
L 317.268276 104.787815 
L 317.268276 104.368487 
L 317.622362 104.368487 
L 317.622362 103.949158 
L 321.307728 103.949158 
L 321.307728 103.52983 
L 321.55296 103.52983 
L 321.55296 103.110501 
L 322.90803 103.110501 
L 322.90803 102.691172 
L 323.30623 102.691172 
L 323.30623 102.271844 
L 323.660316 102.271844 
L 323.660316 101.852515 
L 327.740511 101.852515 
L 327.740511 101.433187 
L 327.985743 101.433187 
L 327.985743 101.013858 
L 329.340813 101.013858 
L 329.340813 100.59453 
L 329.739013 100.59453 
L 329.739013 100.175201 
L 330.080866 100.175201 
L 330.093099 99.336544 
L 334.376684 99.336544 
L 334.376684 98.917215 
L 336.11882 98.917215 
L 336.11882 98.497887 
L 340.414638 98.497887 
L 340.414638 98.078558 
L 342.551603 98.078558 
L 342.551603 97.65923 
L 346.847421 97.65923 
L 346.847421 97.239901 
L 352.876455 97.239901 
L 352.966293 96.401244 
L 353.198425 96.401244 
L 353.198425 95.981915 
L 358.914409 95.981915 
L 359.004247 95.143258 
L 359.236379 95.143258 
L 359.236379 94.72393 
L 365.347192 94.72393 
L 365.43703 93.885273 
L 365.669162 93.885273 
L 365.669162 93.465944 
L 453.192 93.465944 
L 453.192 93.465944 
" clip-path="url(#p310399ddf4)" style="fill: none; stroke: #ff0000; stroke-width: 3; stroke-linecap: square"/>
   </g>
   <g id="line2d_24">
    <path clip-path="url(#p310399ddf4)" style="fill: none; stroke: #ff0000; stroke-width: 3; stroke-linecap: square"/>
   </g>
   <g id="line2d_25">
    <path d="M 243.676 291.28 
L 243.676 3 
" clip-path="url(#p310399ddf4)" style="fill: none; stroke: #000000; stroke-width: 1.5; stroke-linecap: square"/>
   </g>
   <g id="line2d_26">
    <path d="M 34.16 147.14 
L 453.192 147.14 
" clip-path="url(#p310399ddf4)" style="fill: none; stroke-dasharray: 2,3.3; stroke-dashoffset: 0; stroke: #000000; stroke-width: 2"/>
   </g>
   <g id="patch_3">
    <path d="M 34.16 291.28 
L 34.16 3 
" style="fill: none; stroke: #000000; stroke-width: 0.8; stroke-linejoin: miter; stroke-linecap: square"/>
   </g>
   <g id="patch_4">
    <path d="M 453.192 291.28 
L 453.192 3 
" style="fill: none; stroke: #000000; stroke-width: 0.8; stroke-linejoin: miter; stroke-linecap: square"/>
   </g>
   <g id="patch_5">
    <path d="M 34.16 291.28 
L 453.192 291.28 
" style="fill: none; stroke: #000000; stroke-width: 0.8; stroke-linejoin: miter; stroke-linecap: square"/>
   </g>
   <g id="patch_6">
    <path d="M 34.16 3 
L 453.192 3 
" style="fill: none; stroke: #000000; stroke-width: 0.8; stroke-linejoin: miter; stroke-linecap: square"/>
   </g>
   <g id="text_6">
    <!-- f20-f24,10-D -->
    <g transform="translate(318.19261 285.5144) scale(0.2 -0.2)">
     <defs>
      <path id="DejaVuSans-34" d="M 2419 4116 
L 825 1625 
L 2419 1625 
L 2419 4116 
z
M 2253 4666 
L 3047 4666 
L 3047 1625 
L 3713 1625 
L 3713 1100 
L 3047 1100 
L 3047 0 
L 2419 0 
L 2419 1100 
L 313 1100 
L 313 1709 
L 2253 4666 
z
" transform="scale(0.015625)"/>
      <path id="DejaVuSans-2c" d="M 750 794 
L 1409 794 
L 1409 256 
L 897 -744 
L 494 -744 
L 750 256 
L 750 794 
z
" transform="scale(0.015625)"/>
      <path id="DejaVuSans-44" d="M 1259 4147 
L 1259 519 
L 2022 519 
Q 2988 519 3436 956 
Q 3884 1394 3884 2338 
Q 3884 3275 3436 3711 
Q 2988 4147 2022 4147 
L 1259 4147 
z
M 628 4666 
L 1925 4666 
Q 3281 4666 3915 4102 
Q 4550 3538 4550 2338 
Q 4550 1131 3912 565 
Q 3275 0 1925 0 
L 628 0 
L 628 4666 
z
" transform="scale(0.015625)"/>
     </defs>
     <use xlink:href="#DejaVuSans-66"/>
     <use xlink:href="#DejaVuSans-32" x="35.205078"/>
     <use xlink:href="#DejaVuSans-30" x="98.828125"/>
     <use xlink:href="#DejaVuSans-2d" x="162.451172"/>
     <use xlink:href="#DejaVuSans-66" x="198.535156"/>
     <use xlink:href="#DejaVuSans-32" x="233.740234"/>
     <use xlink:href="#DejaVuSans-34" x="297.363281"/>
     <use xlink:href="#DejaVuSans-2c" x="360.986328"/>
     <use xlink:href="#DejaVuSans-31" x="392.773438"/>
     <use xlink:href="#DejaVuSans-30" x="456.396484"/>
     <use xlink:href="#DejaVuSans-2d" x="520.019531"/>
     <use xlink:href="#DejaVuSans-44" x="556.103516"/>
    </g>
   </g>
   <g id="text_7">
    <!-- v2.6.3 -->
    <g style="fill: #808080" transform="translate(227.99475 286.317512) scale(0.1 -0.1)">
     <defs>
      <path id="DejaVuSans-2e" d="M 684 794 
L 1344 794 
L 1344 0 
L 684 0 
L 684 794 
z
" transform="scale(0.015625)"/>
      <path id="DejaVuSans-36" d="M 2113 2584 
Q 1688 2584 1439 2293 
Q 1191 2003 1191 1497 
Q 1191 994 1439 701 
Q 1688 409 2113 409 
Q 2538 409 2786 701 
Q 3034 994 3034 1497 
Q 3034 2003 2786 2293 
Q 2538 2584 2113 2584 
z
M 3366 4563 
L 3366 3988 
Q 3128 4100 2886 4159 
Q 2644 4219 2406 4219 
Q 1781 4219 1451 3797 
Q 1122 3375 1075 2522 
Q 1259 2794 1537 2939 
Q 1816 3084 2150 3084 
Q 2853 3084 3261 2657 
Q 3669 2231 3669 1497 
Q 3669 778 3244 343 
Q 2819 -91 2113 -91 
Q 1303 -91 875 529 
Q 447 1150 447 2328 
Q 447 3434 972 4092 
Q 1497 4750 2381 4750 
Q 2619 4750 2861 4703 
Q 3103 4656 3366 4563 
z
" transform="scale(0.015625)"/>
      <path id="DejaVuSans-33" d="M 2597 2516 
Q 3050 2419 3304 2112 
Q 3559 1806 3559 1356 
Q 3559 666 3084 287 
Q 2609 -91 1734 -91 
Q 1441 -91 1130 -33 
Q 819 25 488 141 
L 488 750 
Q 750 597 1062 519 
Q 1375 441 1716 441 
Q 2309 441 2620 675 
Q 2931 909 2931 1356 
Q 2931 1769 2642 2001 
Q 2353 2234 1838 2234 
L 1294 2234 
L 1294 2753 
L 1863 2753 
Q 2328 2753 2575 2939 
Q 2822 3125 2822 3475 
Q 2822 3834 2567 4026 
Q 2313 4219 1838 4219 
Q 1578 4219 1281 4162 
Q 984 4106 628 3988 
L 628 4550 
Q 988 4650 1302 4700 
Q 1616 4750 1894 4750 
Q 2613 4750 3031 4423 
Q 3450 4097 3450 3541 
Q 3450 3153 3228 2886 
Q 3006 2619 2597 2516 
z
" transform="scale(0.015625)"/>
     </defs>
     <use xlink:href="#DejaVuSans-76"/>
     <use xlink:href="#DejaVuSans-32" x="59.179688"/>
     <use xlink:href="#DejaVuSans-2e" x="122.802734"/>
     <use xlink:href="#DejaVuSans-36" x="154.589844"/>
     <use xlink:href="#DejaVuSans-2e" x="218.212891"/>
     <use xlink:href="#DejaVuSans-33" x="250"/>
    </g>
   </g>
   <g id="legend_1">
    <g id="patch_7">
     <path d="M 48.16 136.425 
L 177.381875 136.425 
Q 181.381875 136.425 181.381875 132.425 
L 181.381875 17 
Q 181.381875 13 177.381875 13 
L 48.16 13 
Q 44.16 13 44.16 17 
L 44.16 132.425 
Q 44.16 136.425 48.16 136.425 
z
" style="fill: #ffffff; opacity: 0.2; stroke: #cccccc; stroke-linejoin: miter"/>
    </g>
    <g id="line2d_27">
     <path d="M 52.16 29.196875 
L 72.16 29.196875 
L 92.16 29.196875 
" style="fill: none; stroke: #000000; stroke-width: 3; stroke-linecap: square"/>
    </g>
    <g id="text_8">
     <!-- 1: 5/5 -->
     <g transform="translate(108.16 36.196875) scale(0.2 -0.2)">
      <defs>
       <path id="DejaVuSans-3a" d="M 750 794 
L 1409 794 
L 1409 0 
L 750 0 
L 750 794 
z
M 750 3309 
L 1409 3309 
L 1409 2516 
L 750 2516 
L 750 3309 
z
" transform="scale(0.015625)"/>
       <path id="DejaVuSans-35" d="M 691 4666 
L 3169 4666 
L 3169 4134 
L 1269 4134 
L 1269 2991 
Q 1406 3038 1543 3061 
Q 1681 3084 1819 3084 
Q 2600 3084 3056 2656 
Q 3513 2228 3513 1497 
Q 3513 744 3044 326 
Q 2575 -91 1722 -91 
Q 1428 -91 1123 -41 
Q 819 9 494 109 
L 494 744 
Q 775 591 1075 516 
Q 1375 441 1709 441 
Q 2250 441 2565 725 
Q 2881 1009 2881 1497 
Q 2881 1984 2565 2268 
Q 2250 2553 1709 2553 
Q 1456 2553 1204 2497 
Q 953 2441 691 2322 
L 691 4666 
z
" transform="scale(0.015625)"/>
       <path id="DejaVuSans-2f" d="M 1625 4666 
L 2156 4666 
L 531 -594 
L 0 -594 
L 1625 4666 
z
" transform="scale(0.015625)"/>
      </defs>
      <use xlink:href="#DejaVuSans-31"/>
      <use xlink:href="#DejaVuSans-3a" x="63.623047"/>
      <use xlink:href="#DejaVuSans-20" x="97.314453"/>
      <use xlink:href="#DejaVuSans-35" x="129.101562"/>
      <use xlink:href="#DejaVuSans-2f" x="192.724609"/>
      <use xlink:href="#DejaVuSans-35" x="226.416016"/>
     </g>
    </g>
    <g id="line2d_28">
     <path d="M 52.16 58.553125 
L 72.16 58.553125 
L 92.16 58.553125 
" style="fill: none; stroke: #00bfbf; stroke-width: 3; stroke-linecap: square"/>
    </g>
    <g id="text_9">
     <!-- -1: 4/4 -->
     <g transform="translate(108.16 65.553125) scale(0.2 -0.2)">
      <use xlink:href="#DejaVuSans-2d"/>
      <use xlink:href="#DejaVuSans-31" x="36.083984"/>
      <use xlink:href="#DejaVuSans-3a" x="99.707031"/>
      <use xlink:href="#DejaVuSans-20" x="133.398438"/>
      <use xlink:href="#DejaVuSans-34" x="165.185547"/>
      <use xlink:href="#DejaVuSans-2f" x="228.808594"/>
      <use xlink:href="#DejaVuSans-34" x="262.5"/>
     </g>
    </g>
    <g id="line2d_29">
     <path d="M 52.16 87.909375 
L 72.16 87.909375 
L 92.16 87.909375 
" style="fill: none; stroke: #bf00bf; stroke-width: 3; stroke-linecap: square"/>
    </g>
    <g id="text_10">
     <!-- -4: 4/4 -->
     <g transform="translate(108.16 94.909375) scale(0.2 -0.2)">
      <use xlink:href="#DejaVuSans-2d"/>
      <use xlink:href="#DejaVuSans-34" x="36.083984"/>
      <use xlink:href="#DejaVuSans-3a" x="99.707031"/>
      <use xlink:href="#DejaVuSans-20" x="133.398438"/>
      <use xlink:href="#DejaVuSans-34" x="165.185547"/>
      <use xlink:href="#DejaVuSans-2f" x="228.808594"/>
      <use xlink:href="#DejaVuSans-34" x="262.5"/>
     </g>
    </g>
    <g id="line2d_30">
     <path d="M 52.16 117.265625 
L 72.16 117.265625 
L 92.16 117.265625 
" style="fill: none; stroke: #ff0000; stroke-width: 3; stroke-linecap: square"/>
    </g>
    <g id="text_11">
     <!-- -8: 4/4 -->
     <g transform="translate(108.16 124.265625) scale(0.2 -0.2)">
      <defs>
       <path id="DejaVuSans-38" d="M 2034 2216 
Q 1584 2216 1326 1975 
Q 1069 1734 1069 1313 
Q 1069 891 1326 650 
Q 1584 409 2034 409 
Q 2484 409 2743 651 
Q 3003 894 3003 1313 
Q 3003 1734 2745 1975 
Q 2488 2216 2034 2216 
z
M 1403 2484 
Q 997 2584 770 2862 
Q 544 3141 544 3541 
Q 544 4100 942 4425 
Q 1341 4750 2034 4750 
Q 2731 4750 3128 4425 
Q 3525 4100 3525 3541 
Q 3525 3141 3298 2862 
Q 3072 2584 2669 2484 
Q 3125 2378 3379 2068 
Q 3634 1759 3634 1313 
Q 3634 634 3220 271 
Q 2806 -91 2034 -91 
Q 1263 -91 848 271 
Q 434 634 434 1313 
Q 434 1759 690 2068 
Q 947 2378 1403 2484 
z
M 1172 3481 
Q 1172 3119 1398 2916 
Q 1625 2713 2034 2713 
Q 2441 2713 2670 2916 
Q 2900 3119 2900 3481 
Q 2900 3844 2670 4047 
Q 2441 4250 2034 4250 
Q 1625 4250 1398 4047 
Q 1172 3844 1172 3481 
z
" transform="scale(0.015625)"/>
      </defs>
      <use xlink:href="#DejaVuSans-2d"/>
      <use xlink:href="#DejaVuSans-38" x="36.083984"/>
      <use xlink:href="#DejaVuSans-3a" x="99.707031"/>
      <use xlink:href="#DejaVuSans-20" x="133.398438"/>
      <use xlink:href="#DejaVuSans-34" x="165.185547"/>
      <use xlink:href="#DejaVuSans-2f" x="228.808594"/>
      <use xlink:href="#DejaVuSans-34" x="262.5"/>
     </g>
    </g>
   </g>
  </g>
 </g>
 <defs>
  <clipPath id="p310399ddf4">
   <rect x="34.16" y="3" width="419.032" height="288.28"/>
  </clipPath>
 </defs>
</svg>
