<?xml version="1.0" encoding="utf-8" standalone="no"?>
<!DOCTYPE svg PUBLIC "-//W3C//DTD SVG 1.1//EN"
  "http://www.w3.org/Graphics/SVG/1.1/DTD/svg11.dtd">
<svg xmlns:xlink="http://www.w3.org/1999/xlink" width="460.8pt" height="345.6pt" viewBox="0 0 460.8 345.6" xmlns="http://www.w3.org/2000/svg" version="1.1">
 <metadata>
  <rdf:RDF xmlns:dc="http://purl.org/dc/elements/1.1/" xmlns:cc="http://creativecommons.org/ns#" xmlns:rdf="http://www.w3.org/1999/02/22-rdf-syntax-ns#">
   <cc:Work>
    <dc:type rdf:resource="http://purl.org/dc/dcmitype/StillImage"/>
    <dc:date>2024-06-05T09:57:24.629676</dc:date>
    <dc:format>image/svg+xml</dc:format>
    <dc:creator>
     <cc:Agent>
      <dc:title>Matplotlib v3.7.1, https://matplotlib.org/</dc:title>
     </cc:Agent>
    </dc:creator>
   </cc:Work>
  </rdf:RDF>
 </metadata>
 <defs>
  <style type="text/css">*{stroke-linejoin: round; stroke-linecap: butt}</style>
 </defs>
 <g id="figure_1">
  <g id="patch_1">
   <path d="M 0 345.6 
L 460.8 345.6 
L 460.8 0 
L 0 0 
z
" style="fill: #ffffff"/>
  </g>
  <g id="axes_1">
   <g id="patch_2">
    <path d="M 34.16 291.28 
L 453.192 291.28 
L 453.192 3 
L 34.16 3 
z
" style="fill: #ffffff"/>
   </g>
   <g id="matplotlib.axis_1">
    <g id="xtick_1">
     <g id="line2d_1">
      <path d="M 170.855347 291.28 
L 170.855347 3 
" clip-path="url(#p89cbf74089)" style="fill: none; stroke: #b0b0b0; stroke-width: 0.8; stroke-linecap: square"/>
     </g>
     <g id="line2d_2">
      <defs>
       <path id="m59b5814a98" d="M 0 0 
L 0 3.5 
" style="stroke: #000000; stroke-width: 0.8"/>
      </defs>
      <g>
       <use xlink:href="#m59b5814a98" x="170.855347" y="291.28" style="stroke: #000000; stroke-width: 0.8"/>
      </g>
     </g>
     <g id="text_1">
      <!-- -1 -->
      <g transform="translate(160.885035 313.476875) scale(0.2 -0.2)">
       <defs>
        <path id="DejaVuSans-2d" d="M 313 2009 
L 1997 2009 
L 1997 1497 
L 313 1497 
L 313 2009 
z
" transform="scale(0.015625)"/>
        <path id="DejaVuSans-31" d="M 794 531 
L 1825 531 
L 1825 4091 
L 703 3866 
L 703 4441 
L 1819 4666 
L 2450 4666 
L 2450 531 
L 3481 531 
L 3481 0 
L 794 0 
L 794 531 
z
" transform="scale(0.015625)"/>
       </defs>
       <use xlink:href="#DejaVuSans-2d"/>
       <use xlink:href="#DejaVuSans-31" x="36.083984"/>
      </g>
     </g>
    </g>
    <g id="xtick_2">
     <g id="line2d_3">
      <path d="M 316.496653 291.28 
L 316.496653 3 
" clip-path="url(#p89cbf74089)" style="fill: none; stroke: #b0b0b0; stroke-width: 0.8; stroke-linecap: square"/>
     </g>
     <g id="line2d_4">
      <g>
       <use xlink:href="#m59b5814a98" x="316.496653" y="291.28" style="stroke: #000000; stroke-width: 0.8"/>
      </g>
     </g>
     <g id="text_2">
      <!-- 1 -->
      <g transform="translate(310.134153 313.476875) scale(0.2 -0.2)">
       <use xlink:href="#DejaVuSans-31"/>
      </g>
     </g>
    </g>
    <g id="xtick_3">
     <g id="line2d_5">
      <defs>
       <path id="m2dfde34bb4" d="M 0 0 
L 0 2 
" style="stroke: #000000; stroke-width: 0.6"/>
      </defs>
      <g>
       <use xlink:href="#m2dfde34bb4" x="47.135242" y="291.28" style="stroke: #000000; stroke-width: 0.6"/>
      </g>
     </g>
    </g>
    <g id="xtick_4">
     <g id="line2d_6">
      <g>
       <use xlink:href="#m2dfde34bb4" x="59.958322" y="291.28" style="stroke: #000000; stroke-width: 0.6"/>
      </g>
     </g>
    </g>
    <g id="xtick_5">
     <g id="line2d_7">
      <g>
       <use xlink:href="#m2dfde34bb4" x="69.056443" y="291.28" style="stroke: #000000; stroke-width: 0.6"/>
      </g>
     </g>
    </g>
    <g id="xtick_6">
     <g id="line2d_8">
      <g>
       <use xlink:href="#m2dfde34bb4" x="76.113493" y="291.28" style="stroke: #000000; stroke-width: 0.6"/>
      </g>
     </g>
    </g>
    <g id="xtick_7">
     <g id="line2d_9">
      <g>
       <use xlink:href="#m2dfde34bb4" x="81.879523" y="291.28" style="stroke: #000000; stroke-width: 0.6"/>
      </g>
     </g>
    </g>
    <g id="xtick_8">
     <g id="line2d_10">
      <g>
       <use xlink:href="#m2dfde34bb4" x="86.754632" y="291.28" style="stroke: #000000; stroke-width: 0.6"/>
      </g>
     </g>
    </g>
    <g id="xtick_9">
     <g id="line2d_11">
      <g>
       <use xlink:href="#m2dfde34bb4" x="90.977644" y="291.28" style="stroke: #000000; stroke-width: 0.6"/>
      </g>
     </g>
    </g>
    <g id="xtick_10">
     <g id="line2d_12">
      <g>
       <use xlink:href="#m2dfde34bb4" x="94.702604" y="291.28" style="stroke: #000000; stroke-width: 0.6"/>
      </g>
     </g>
    </g>
    <g id="xtick_11">
     <g id="line2d_13">
      <g>
       <use xlink:href="#m2dfde34bb4" x="119.955895" y="291.28" style="stroke: #000000; stroke-width: 0.6"/>
      </g>
     </g>
    </g>
    <g id="xtick_12">
     <g id="line2d_14">
      <g>
       <use xlink:href="#m2dfde34bb4" x="132.778975" y="291.28" style="stroke: #000000; stroke-width: 0.6"/>
      </g>
     </g>
    </g>
    <g id="xtick_13">
     <g id="line2d_15">
      <g>
       <use xlink:href="#m2dfde34bb4" x="141.877096" y="291.28" style="stroke: #000000; stroke-width: 0.6"/>
      </g>
     </g>
    </g>
    <g id="xtick_14">
     <g id="line2d_16">
      <g>
       <use xlink:href="#m2dfde34bb4" x="148.934146" y="291.28" style="stroke: #000000; stroke-width: 0.6"/>
      </g>
     </g>
    </g>
    <g id="xtick_15">
     <g id="line2d_17">
      <g>
       <use xlink:href="#m2dfde34bb4" x="154.700176" y="291.28" style="stroke: #000000; stroke-width: 0.6"/>
      </g>
     </g>
    </g>
    <g id="xtick_16">
     <g id="line2d_18">
      <g>
       <use xlink:href="#m2dfde34bb4" x="159.575285" y="291.28" style="stroke: #000000; stroke-width: 0.6"/>
      </g>
     </g>
    </g>
    <g id="xtick_17">
     <g id="line2d_19">
      <g>
       <use xlink:href="#m2dfde34bb4" x="163.798297" y="291.28" style="stroke: #000000; stroke-width: 0.6"/>
      </g>
     </g>
    </g>
    <g id="xtick_18">
     <g id="line2d_20">
      <g>
       <use xlink:href="#m2dfde34bb4" x="167.523257" y="291.28" style="stroke: #000000; stroke-width: 0.6"/>
      </g>
     </g>
    </g>
    <g id="xtick_19">
     <g id="line2d_21">
      <g>
       <use xlink:href="#m2dfde34bb4" x="192.776548" y="291.28" style="stroke: #000000; stroke-width: 0.6"/>
      </g>
     </g>
    </g>
    <g id="xtick_20">
     <g id="line2d_22">
      <g>
       <use xlink:href="#m2dfde34bb4" x="205.599628" y="291.28" style="stroke: #000000; stroke-width: 0.6"/>
      </g>
     </g>
    </g>
    <g id="xtick_21">
     <g id="line2d_23">
      <g>
       <use xlink:href="#m2dfde34bb4" x="214.697749" y="291.28" style="stroke: #000000; stroke-width: 0.6"/>
      </g>
     </g>
    </g>
    <g id="xtick_22">
     <g id="line2d_24">
      <g>
       <use xlink:href="#m2dfde34bb4" x="221.754799" y="291.28" style="stroke: #000000; stroke-width: 0.6"/>
      </g>
     </g>
    </g>
    <g id="xtick_23">
     <g id="line2d_25">
      <g>
       <use xlink:href="#m2dfde34bb4" x="227.520829" y="291.28" style="stroke: #000000; stroke-width: 0.6"/>
      </g>
     </g>
    </g>
    <g id="xtick_24">
     <g id="line2d_26">
      <g>
       <use xlink:href="#m2dfde34bb4" x="232.395938" y="291.28" style="stroke: #000000; stroke-width: 0.6"/>
      </g>
     </g>
    </g>
    <g id="xtick_25">
     <g id="line2d_27">
      <g>
       <use xlink:href="#m2dfde34bb4" x="236.61895" y="291.28" style="stroke: #000000; stroke-width: 0.6"/>
      </g>
     </g>
    </g>
    <g id="xtick_26">
     <g id="line2d_28">
      <g>
       <use xlink:href="#m2dfde34bb4" x="240.34391" y="291.28" style="stroke: #000000; stroke-width: 0.6"/>
      </g>
     </g>
    </g>
    <g id="xtick_27">
     <g id="line2d_29">
      <g>
       <use xlink:href="#m2dfde34bb4" x="265.597201" y="291.28" style="stroke: #000000; stroke-width: 0.6"/>
      </g>
     </g>
    </g>
    <g id="xtick_28">
     <g id="line2d_30">
      <g>
       <use xlink:href="#m2dfde34bb4" x="278.420281" y="291.28" style="stroke: #000000; stroke-width: 0.6"/>
      </g>
     </g>
    </g>
    <g id="xtick_29">
     <g id="line2d_31">
      <g>
       <use xlink:href="#m2dfde34bb4" x="287.518402" y="291.28" style="stroke: #000000; stroke-width: 0.6"/>
      </g>
     </g>
    </g>
    <g id="xtick_30">
     <g id="line2d_32">
      <g>
       <use xlink:href="#m2dfde34bb4" x="294.575452" y="291.28" style="stroke: #000000; stroke-width: 0.6"/>
      </g>
     </g>
    </g>
    <g id="xtick_31">
     <g id="line2d_33">
      <g>
       <use xlink:href="#m2dfde34bb4" x="300.341482" y="291.28" style="stroke: #000000; stroke-width: 0.6"/>
      </g>
     </g>
    </g>
    <g id="xtick_32">
     <g id="line2d_34">
      <g>
       <use xlink:href="#m2dfde34bb4" x="305.216591" y="291.28" style="stroke: #000000; stroke-width: 0.6"/>
      </g>
     </g>
    </g>
    <g id="xtick_33">
     <g id="line2d_35">
      <g>
       <use xlink:href="#m2dfde34bb4" x="309.439603" y="291.28" style="stroke: #000000; stroke-width: 0.6"/>
      </g>
     </g>
    </g>
    <g id="xtick_34">
     <g id="line2d_36">
      <g>
       <use xlink:href="#m2dfde34bb4" x="313.164563" y="291.28" style="stroke: #000000; stroke-width: 0.6"/>
      </g>
     </g>
    </g>
    <g id="xtick_35">
     <g id="line2d_37">
      <g>
       <use xlink:href="#m2dfde34bb4" x="338.417854" y="291.28" style="stroke: #000000; stroke-width: 0.6"/>
      </g>
     </g>
    </g>
    <g id="xtick_36">
     <g id="line2d_38">
      <g>
       <use xlink:href="#m2dfde34bb4" x="351.240934" y="291.28" style="stroke: #000000; stroke-width: 0.6"/>
      </g>
     </g>
    </g>
    <g id="xtick_37">
     <g id="line2d_39">
      <g>
       <use xlink:href="#m2dfde34bb4" x="360.339055" y="291.28" style="stroke: #000000; stroke-width: 0.6"/>
      </g>
     </g>
    </g>
    <g id="xtick_38">
     <g id="line2d_40">
      <g>
       <use xlink:href="#m2dfde34bb4" x="367.396105" y="291.28" style="stroke: #000000; stroke-width: 0.6"/>
      </g>
     </g>
    </g>
    <g id="xtick_39">
     <g id="line2d_41">
      <g>
       <use xlink:href="#m2dfde34bb4" x="373.162135" y="291.28" style="stroke: #000000; stroke-width: 0.6"/>
      </g>
     </g>
    </g>
    <g id="xtick_40">
     <g id="line2d_42">
      <g>
       <use xlink:href="#m2dfde34bb4" x="378.037244" y="291.28" style="stroke: #000000; stroke-width: 0.6"/>
      </g>
     </g>
    </g>
    <g id="xtick_41">
     <g id="line2d_43">
      <g>
       <use xlink:href="#m2dfde34bb4" x="382.260256" y="291.28" style="stroke: #000000; stroke-width: 0.6"/>
      </g>
     </g>
    </g>
    <g id="xtick_42">
     <g id="line2d_44">
      <g>
       <use xlink:href="#m2dfde34bb4" x="385.985216" y="291.28" style="stroke: #000000; stroke-width: 0.6"/>
      </g>
     </g>
    </g>
    <g id="xtick_43">
     <g id="line2d_45">
      <g>
       <use xlink:href="#m2dfde34bb4" x="411.238507" y="291.28" style="stroke: #000000; stroke-width: 0.6"/>
      </g>
     </g>
    </g>
    <g id="xtick_44">
     <g id="line2d_46">
      <g>
       <use xlink:href="#m2dfde34bb4" x="424.061587" y="291.28" style="stroke: #000000; stroke-width: 0.6"/>
      </g>
     </g>
    </g>
    <g id="xtick_45">
     <g id="line2d_47">
      <g>
       <use xlink:href="#m2dfde34bb4" x="433.159708" y="291.28" style="stroke: #000000; stroke-width: 0.6"/>
      </g>
     </g>
    </g>
    <g id="xtick_46">
     <g id="line2d_48">
      <g>
       <use xlink:href="#m2dfde34bb4" x="440.216758" y="291.28" style="stroke: #000000; stroke-width: 0.6"/>
      </g>
     </g>
    </g>
    <g id="xtick_47">
     <g id="line2d_49">
      <g>
       <use xlink:href="#m2dfde34bb4" x="445.982788" y="291.28" style="stroke: #000000; stroke-width: 0.6"/>
      </g>
     </g>
    </g>
    <g id="xtick_48">
     <g id="line2d_50">
      <g>
       <use xlink:href="#m2dfde34bb4" x="450.857897" y="291.28" style="stroke: #000000; stroke-width: 0.6"/>
      </g>
     </g>
    </g>
    <g id="text_3">
     <!-- log10 of FEvals ratio -->
     <g transform="translate(141.371312 336.833125) scale(0.2 -0.2)">
      <defs>
       <path id="DejaVuSans-6c" d="M 603 4863 
L 1178 4863 
L 1178 0 
L 603 0 
L 603 4863 
z
" transform="scale(0.015625)"/>
       <path id="DejaVuSans-6f" d="M 1959 3097 
Q 1497 3097 1228 2736 
Q 959 2375 959 1747 
Q 959 1119 1226 758 
Q 1494 397 1959 397 
Q 2419 397 2687 759 
Q 2956 1122 2956 1747 
Q 2956 2369 2687 2733 
Q 2419 3097 1959 3097 
z
M 1959 3584 
Q 2709 3584 3137 3096 
Q 3566 2609 3566 1747 
Q 3566 888 3137 398 
Q 2709 -91 1959 -91 
Q 1206 -91 779 398 
Q 353 888 353 1747 
Q 353 2609 779 3096 
Q 1206 3584 1959 3584 
z
" transform="scale(0.015625)"/>
       <path id="DejaVuSans-67" d="M 2906 1791 
Q 2906 2416 2648 2759 
Q 2391 3103 1925 3103 
Q 1463 3103 1205 2759 
Q 947 2416 947 1791 
Q 947 1169 1205 825 
Q 1463 481 1925 481 
Q 2391 481 2648 825 
Q 2906 1169 2906 1791 
z
M 3481 434 
Q 3481 -459 3084 -895 
Q 2688 -1331 1869 -1331 
Q 1566 -1331 1297 -1286 
Q 1028 -1241 775 -1147 
L 775 -588 
Q 1028 -725 1275 -790 
Q 1522 -856 1778 -856 
Q 2344 -856 2625 -561 
Q 2906 -266 2906 331 
L 2906 616 
Q 2728 306 2450 153 
Q 2172 0 1784 0 
Q 1141 0 747 490 
Q 353 981 353 1791 
Q 353 2603 747 3093 
Q 1141 3584 1784 3584 
Q 2172 3584 2450 3431 
Q 2728 3278 2906 2969 
L 2906 3500 
L 3481 3500 
L 3481 434 
z
" transform="scale(0.015625)"/>
       <path id="DejaVuSans-30" d="M 2034 4250 
Q 1547 4250 1301 3770 
Q 1056 3291 1056 2328 
Q 1056 1369 1301 889 
Q 1547 409 2034 409 
Q 2525 409 2770 889 
Q 3016 1369 3016 2328 
Q 3016 3291 2770 3770 
Q 2525 4250 2034 4250 
z
M 2034 4750 
Q 2819 4750 3233 4129 
Q 3647 3509 3647 2328 
Q 3647 1150 3233 529 
Q 2819 -91 2034 -91 
Q 1250 -91 836 529 
Q 422 1150 422 2328 
Q 422 3509 836 4129 
Q 1250 4750 2034 4750 
z
" transform="scale(0.015625)"/>
       <path id="DejaVuSans-20" transform="scale(0.015625)"/>
       <path id="DejaVuSans-66" d="M 2375 4863 
L 2375 4384 
L 1825 4384 
Q 1516 4384 1395 4259 
Q 1275 4134 1275 3809 
L 1275 3500 
L 2222 3500 
L 2222 3053 
L 1275 3053 
L 1275 0 
L 697 0 
L 697 3053 
L 147 3053 
L 147 3500 
L 697 3500 
L 697 3744 
Q 697 4328 969 4595 
Q 1241 4863 1831 4863 
L 2375 4863 
z
" transform="scale(0.015625)"/>
       <path id="DejaVuSans-46" d="M 628 4666 
L 3309 4666 
L 3309 4134 
L 1259 4134 
L 1259 2759 
L 3109 2759 
L 3109 2228 
L 1259 2228 
L 1259 0 
L 628 0 
L 628 4666 
z
" transform="scale(0.015625)"/>
       <path id="DejaVuSans-45" d="M 628 4666 
L 3578 4666 
L 3578 4134 
L 1259 4134 
L 1259 2753 
L 3481 2753 
L 3481 2222 
L 1259 2222 
L 1259 531 
L 3634 531 
L 3634 0 
L 628 0 
L 628 4666 
z
" transform="scale(0.015625)"/>
       <path id="DejaVuSans-76" d="M 191 3500 
L 800 3500 
L 1894 563 
L 2988 3500 
L 3597 3500 
L 2284 0 
L 1503 0 
L 191 3500 
z
" transform="scale(0.015625)"/>
       <path id="DejaVuSans-61" d="M 2194 1759 
Q 1497 1759 1228 1600 
Q 959 1441 959 1056 
Q 959 750 1161 570 
Q 1363 391 1709 391 
Q 2188 391 2477 730 
Q 2766 1069 2766 1631 
L 2766 1759 
L 2194 1759 
z
M 3341 1997 
L 3341 0 
L 2766 0 
L 2766 531 
Q 2569 213 2275 61 
Q 1981 -91 1556 -91 
Q 1019 -91 701 211 
Q 384 513 384 1019 
Q 384 1609 779 1909 
Q 1175 2209 1959 2209 
L 2766 2209 
L 2766 2266 
Q 2766 2663 2505 2880 
Q 2244 3097 1772 3097 
Q 1472 3097 1187 3025 
Q 903 2953 641 2809 
L 641 3341 
Q 956 3463 1253 3523 
Q 1550 3584 1831 3584 
Q 2591 3584 2966 3190 
Q 3341 2797 3341 1997 
z
" transform="scale(0.015625)"/>
       <path id="DejaVuSans-73" d="M 2834 3397 
L 2834 2853 
Q 2591 2978 2328 3040 
Q 2066 3103 1784 3103 
Q 1356 3103 1142 2972 
Q 928 2841 928 2578 
Q 928 2378 1081 2264 
Q 1234 2150 1697 2047 
L 1894 2003 
Q 2506 1872 2764 1633 
Q 3022 1394 3022 966 
Q 3022 478 2636 193 
Q 2250 -91 1575 -91 
Q 1294 -91 989 -36 
Q 684 19 347 128 
L 347 722 
Q 666 556 975 473 
Q 1284 391 1588 391 
Q 1994 391 2212 530 
Q 2431 669 2431 922 
Q 2431 1156 2273 1281 
Q 2116 1406 1581 1522 
L 1381 1569 
Q 847 1681 609 1914 
Q 372 2147 372 2553 
Q 372 3047 722 3315 
Q 1072 3584 1716 3584 
Q 2034 3584 2315 3537 
Q 2597 3491 2834 3397 
z
" transform="scale(0.015625)"/>
       <path id="DejaVuSans-72" d="M 2631 2963 
Q 2534 3019 2420 3045 
Q 2306 3072 2169 3072 
Q 1681 3072 1420 2755 
Q 1159 2438 1159 1844 
L 1159 0 
L 581 0 
L 581 3500 
L 1159 3500 
L 1159 2956 
Q 1341 3275 1631 3429 
Q 1922 3584 2338 3584 
Q 2397 3584 2469 3576 
Q 2541 3569 2628 3553 
L 2631 2963 
z
" transform="scale(0.015625)"/>
       <path id="DejaVuSans-74" d="M 1172 4494 
L 1172 3500 
L 2356 3500 
L 2356 3053 
L 1172 3053 
L 1172 1153 
Q 1172 725 1289 603 
Q 1406 481 1766 481 
L 2356 481 
L 2356 0 
L 1766 0 
Q 1100 0 847 248 
Q 594 497 594 1153 
L 594 3053 
L 172 3053 
L 172 3500 
L 594 3500 
L 594 4494 
L 1172 4494 
z
" transform="scale(0.015625)"/>
       <path id="DejaVuSans-69" d="M 603 3500 
L 1178 3500 
L 1178 0 
L 603 0 
L 603 3500 
z
M 603 4863 
L 1178 4863 
L 1178 4134 
L 603 4134 
L 603 4863 
z
" transform="scale(0.015625)"/>
      </defs>
      <use xlink:href="#DejaVuSans-6c"/>
      <use xlink:href="#DejaVuSans-6f" x="27.783203"/>
      <use xlink:href="#DejaVuSans-67" x="88.964844"/>
      <use xlink:href="#DejaVuSans-31" x="152.441406"/>
      <use xlink:href="#DejaVuSans-30" x="216.064453"/>
      <use xlink:href="#DejaVuSans-20" x="279.6875"/>
      <use xlink:href="#DejaVuSans-6f" x="311.474609"/>
      <use xlink:href="#DejaVuSans-66" x="372.65625"/>
      <use xlink:href="#DejaVuSans-20" x="407.861328"/>
      <use xlink:href="#DejaVuSans-46" x="439.648438"/>
      <use xlink:href="#DejaVuSans-45" x="497.167969"/>
      <use xlink:href="#DejaVuSans-76" x="560.351562"/>
      <use xlink:href="#DejaVuSans-61" x="619.53125"/>
      <use xlink:href="#DejaVuSans-6c" x="680.810547"/>
      <use xlink:href="#DejaVuSans-73" x="708.59375"/>
      <use xlink:href="#DejaVuSans-20" x="760.693359"/>
      <use xlink:href="#DejaVuSans-72" x="792.480469"/>
      <use xlink:href="#DejaVuSans-61" x="833.59375"/>
      <use xlink:href="#DejaVuSans-74" x="894.873047"/>
      <use xlink:href="#DejaVuSans-69" x="934.082031"/>
      <use xlink:href="#DejaVuSans-6f" x="961.865234"/>
     </g>
    </g>
   </g>
   <g id="matplotlib.axis_2">
    <g id="ytick_1">
     <g id="line2d_51">
      <path d="M 34.16 288.453725 
L 453.192 288.453725 
" clip-path="url(#p89cbf74089)" style="fill: none; stroke: #b0b0b0; stroke-width: 0.8; stroke-linecap: square"/>
     </g>
     <g id="line2d_52">
      <defs>
       <path id="mea02ad3f7d" d="M 0 0 
L -3.5 0 
" style="stroke: #000000; stroke-width: 0.8"/>
      </defs>
      <g>
       <use xlink:href="#mea02ad3f7d" x="34.16" y="288.453725" style="stroke: #000000; stroke-width: 0.8"/>
      </g>
     </g>
    </g>
    <g id="ytick_2">
     <g id="line2d_53">
      <path d="M 34.16 217.796863 
L 453.192 217.796863 
" clip-path="url(#p89cbf74089)" style="fill: none; stroke: #b0b0b0; stroke-width: 0.8; stroke-linecap: square"/>
     </g>
     <g id="line2d_54">
      <g>
       <use xlink:href="#mea02ad3f7d" x="34.16" y="217.796863" style="stroke: #000000; stroke-width: 0.8"/>
      </g>
     </g>
    </g>
    <g id="ytick_3">
     <g id="line2d_55">
      <path d="M 34.16 147.14 
L 453.192 147.14 
" clip-path="url(#p89cbf74089)" style="fill: none; stroke: #b0b0b0; stroke-width: 0.8; stroke-linecap: square"/>
     </g>
     <g id="line2d_56">
      <g>
       <use xlink:href="#mea02ad3f7d" x="34.16" y="147.14" style="stroke: #000000; stroke-width: 0.8"/>
      </g>
     </g>
    </g>
    <g id="ytick_4">
     <g id="line2d_57">
      <path d="M 34.16 76.483137 
L 453.192 76.483137 
" clip-path="url(#p89cbf74089)" style="fill: none; stroke: #b0b0b0; stroke-width: 0.8; stroke-linecap: square"/>
     </g>
     <g id="line2d_58">
      <g>
       <use xlink:href="#mea02ad3f7d" x="34.16" y="76.483137" style="stroke: #000000; stroke-width: 0.8"/>
      </g>
     </g>
    </g>
    <g id="ytick_5">
     <g id="line2d_59">
      <path d="M 34.16 5.826275 
L 453.192 5.826275 
" clip-path="url(#p89cbf74089)" style="fill: none; stroke: #b0b0b0; stroke-width: 0.8; stroke-linecap: square"/>
     </g>
     <g id="line2d_60">
      <g>
       <use xlink:href="#mea02ad3f7d" x="34.16" y="5.826275" style="stroke: #000000; stroke-width: 0.8"/>
      </g>
     </g>
    </g>
    <g id="text_4">
     <!-- proportion of trials -->
     <g transform="translate(19.000625 240.14625) rotate(-90) scale(0.2 -0.2)">
      <defs>
       <path id="DejaVuSans-70" d="M 1159 525 
L 1159 -1331 
L 581 -1331 
L 581 3500 
L 1159 3500 
L 1159 2969 
Q 1341 3281 1617 3432 
Q 1894 3584 2278 3584 
Q 2916 3584 3314 3078 
Q 3713 2572 3713 1747 
Q 3713 922 3314 415 
Q 2916 -91 2278 -91 
Q 1894 -91 1617 61 
Q 1341 213 1159 525 
z
M 3116 1747 
Q 3116 2381 2855 2742 
Q 2594 3103 2138 3103 
Q 1681 3103 1420 2742 
Q 1159 2381 1159 1747 
Q 1159 1113 1420 752 
Q 1681 391 2138 391 
Q 2594 391 2855 752 
Q 3116 1113 3116 1747 
z
" transform="scale(0.015625)"/>
       <path id="DejaVuSans-6e" d="M 3513 2113 
L 3513 0 
L 2938 0 
L 2938 2094 
Q 2938 2591 2744 2837 
Q 2550 3084 2163 3084 
Q 1697 3084 1428 2787 
Q 1159 2491 1159 1978 
L 1159 0 
L 581 0 
L 581 3500 
L 1159 3500 
L 1159 2956 
Q 1366 3272 1645 3428 
Q 1925 3584 2291 3584 
Q 2894 3584 3203 3211 
Q 3513 2838 3513 2113 
z
" transform="scale(0.015625)"/>
      </defs>
      <use xlink:href="#DejaVuSans-70"/>
      <use xlink:href="#DejaVuSans-72" x="63.476562"/>
      <use xlink:href="#DejaVuSans-6f" x="102.339844"/>
      <use xlink:href="#DejaVuSans-70" x="163.521484"/>
      <use xlink:href="#DejaVuSans-6f" x="226.998047"/>
      <use xlink:href="#DejaVuSans-72" x="288.179688"/>
      <use xlink:href="#DejaVuSans-74" x="329.292969"/>
      <use xlink:href="#DejaVuSans-69" x="368.501953"/>
      <use xlink:href="#DejaVuSans-6f" x="396.285156"/>
      <use xlink:href="#DejaVuSans-6e" x="457.466797"/>
      <use xlink:href="#DejaVuSans-20" x="520.845703"/>
      <use xlink:href="#DejaVuSans-6f" x="552.632812"/>
      <use xlink:href="#DejaVuSans-66" x="613.814453"/>
      <use xlink:href="#DejaVuSans-20" x="649.019531"/>
      <use xlink:href="#DejaVuSans-74" x="680.806641"/>
      <use xlink:href="#DejaVuSans-72" x="720.015625"/>
      <use xlink:href="#DejaVuSans-69" x="761.128906"/>
      <use xlink:href="#DejaVuSans-61" x="788.912109"/>
      <use xlink:href="#DejaVuSans-6c" x="850.191406"/>
      <use xlink:href="#DejaVuSans-73" x="877.974609"/>
     </g>
    </g>
   </g>
   <g id="line2d_61">
    <path d="M 34.16 270.78951 
L 81.957258 270.78951 
L 81.957258 270.200703 
L 89.664916 270.200703 
L 89.664916 269.611895 
L 91.661235 269.611895 
L 91.661235 269.023088 
L 92.821938 269.023088 
L 92.821938 268.434281 
L 101.325423 268.434281 
L 101.325423 267.845474 
L 103.172306 267.845474 
L 103.172306 267.256667 
L 103.482279 267.256667 
L 103.590925 266.079052 
L 109.03308 266.079052 
L 109.03308 265.490245 
L 110.879963 265.490245 
L 110.879963 264.901438 
L 111.029399 264.901438 
L 111.029399 264.312631 
L 111.189936 264.312631 
L 111.298582 263.135016 
L 112.190102 263.135016 
L 112.190102 262.546209 
L 112.876282 262.546209 
L 112.876282 261.957402 
L 113.186255 261.957402 
L 113.294901 260.779788 
L 114.036985 260.779788 
L 114.036985 260.19098 
L 114.346958 260.19098 
L 114.455604 259.013366 
L 131.736559 259.013366 
L 131.838488 257.835752 
L 133.615644 257.835752 
L 133.615644 257.246944 
L 139.444216 257.246944 
L 139.546145 256.06933 
L 141.323302 256.06933 
L 141.323302 255.480523 
L 141.440535 255.480523 
L 141.542464 254.302908 
L 142.601238 254.302908 
L 142.703167 253.125294 
L 143.31962 253.125294 
L 143.31962 252.536487 
L 144.480323 252.536487 
L 144.480323 251.94768 
L 149.392305 251.94768 
L 149.392305 251.358873 
L 151.115429 251.358873 
L 151.115429 250.770065 
L 168.76047 250.770065 
L 168.76047 250.181258 
L 170.483593 250.181258 
L 170.483593 249.592451 
L 170.607353 249.592451 
L 170.607353 249.003644 
L 170.917325 249.003644 
L 171.025972 247.826029 
L 172.330476 247.826029 
L 172.330476 247.237222 
L 172.640449 247.237222 
L 172.749095 246.059608 
L 199.171605 246.059608 
L 199.273535 244.881993 
L 200.894729 244.881993 
L 200.996658 243.704379 
L 201.050691 243.704379 
L 201.050691 243.115572 
L 202.773814 243.115572 
L 202.773814 242.526765 
L 207.639133 242.526765 
L 207.639133 241.937958 
L 218.726581 241.937958 
L 218.726581 241.34915 
L 220.713143 241.34915 
L 220.713143 240.760343 
L 221.423371 240.760343 
L 221.423371 240.171536 
L 221.601401 240.171536 
L 221.601401 239.582729 
L 223.409933 239.582729 
L 223.409933 238.993922 
L 223.587963 238.993922 
L 223.587963 238.405114 
L 223.984372 238.405114 
L 223.984372 237.816307 
L 224.679469 237.816307 
L 224.679469 237.2275 
L 225.218152 237.2275 
L 225.304052 236.049886 
L 225.970935 236.049886 
L 225.970935 235.461078 
L 226.666031 235.461078 
L 226.666031 234.872271 
L 227.007298 234.872271 
L 227.007298 234.283464 
L 227.194474 234.283464 
L 227.290614 231.928235 
L 228.089743 231.928235 
L 228.089743 231.339428 
L 228.309694 231.339428 
L 228.309694 230.750621 
L 228.55933 230.750621 
L 228.596868 229.573007 
L 228.854181 229.573007 
L 228.854181 228.984199 
L 229.080847 228.984199 
L 229.181036 227.217778 
L 229.2728 227.217778 
L 229.2728 226.628971 
L 229.952577 226.628971 
L 230.059918 225.451356 
L 230.076306 225.451356 
L 230.130607 224.273742 
L 230.296256 224.273742 
L 230.296256 223.684935 
L 230.632388 223.684935 
L 230.733545 222.50732 
L 231.25612 222.50732 
L 231.293658 221.329706 
L 231.43415 221.329706 
L 231.471687 220.152092 
L 231.777638 220.152092 
L 231.777638 219.563284 
L 231.955667 219.563284 
L 232.04648 218.38567 
L 232.513578 218.38567 
L 232.513578 217.796863 
L 232.720108 217.796863 
L 232.720108 217.208056 
L 232.904177 217.208056 
L 232.904177 216.619248 
L 233.208675 216.619248 
L 233.208675 216.030441 
L 233.747358 216.030441 
L 233.854659 213.675212 
L 233.993849 213.675212 
L 233.993849 213.086405 
L 234.338639 213.086405 
L 234.338639 212.497598 
L 234.512218 212.497598 
L 234.549755 211.319984 
L 234.840719 211.319984 
L 234.840719 210.731176 
L 235.033735 210.731176 
L 235.136801 208.375948 
L 235.147171 208.375948 
L 235.174339 207.198333 
L 235.572419 207.198333 
L 235.658319 205.431912 
L 235.72368 205.431912 
L 235.778996 204.254297 
L 235.980412 204.254297 
L 235.980412 203.66549 
L 236.495924 203.66549 
L 236.495924 203.076683 
L 236.61895 203.076683 
L 236.61895 202.487876 
L 236.8389 202.487876 
L 236.8389 201.899069 
L 237.027223 201.899069 
L 237.064761 200.721454 
L 237.46909 200.721454 
L 237.54874 198.955033 
L 237.715539 198.955033 
L 237.715539 198.366225 
L 237.843962 198.366225 
L 237.922492 197.188611 
L 237.96003 197.188611 
L 238.021991 196.010997 
L 238.142443 196.010997 
L 238.179981 194.244575 
L 238.44401 194.244575 
L 238.44401 193.655768 
L 238.589124 193.655768 
L 238.663961 192.478154 
L 238.811327 192.478154 
L 238.857064 191.300539 
L 239.262751 191.300539 
L 239.262751 190.711732 
L 239.395748 190.711732 
L 239.481648 189.534118 
L 239.892667 189.534118 
L 239.930205 188.356503 
L 240.098511 188.356503 
L 240.16588 187.178889 
L 240.34391 187.178889 
L 240.414185 185.412467 
L 240.566294 185.412467 
L 240.603832 184.234853 
L 240.698997 184.234853 
L 240.793607 183.057239 
L 241.087812 183.057239 
L 241.116522 181.290817 
L 241.33229 181.290817 
L 241.418191 179.524395 
L 241.638742 179.524395 
L 241.724643 177.757974 
L 242.267339 177.757974 
L 242.321485 176.580359 
L 242.48729 176.580359 
L 242.523056 175.402745 
L 242.726881 175.402745 
L 242.726881 174.813938 
L 243.308612 174.813938 
L 243.395787 173.636324 
L 243.421978 173.636324 
L 243.522601 172.458709 
L 243.573817 172.458709 
L 243.615064 171.281095 
L 243.826598 171.281095 
L 243.864136 170.10348 
L 243.960661 170.10348 
L 244.046561 168.337059 
L 244.153854 168.337059 
L 244.237514 166.570637 
L 244.308047 166.570637 
L 244.378263 164.804216 
L 244.423832 164.804216 
L 244.510334 163.626601 
L 244.556292 163.626601 
L 244.556292 163.037794 
L 244.730285 163.037794 
L 244.730285 162.448987 
L 244.911141 162.448987 
L 244.911141 161.86018 
L 245.509164 161.86018 
L 245.509164 161.271373 
L 245.936983 161.271373 
L 245.956789 160.093758 
L 246.174057 160.093758 
L 246.174057 159.504951 
L 246.480509 159.504951 
L 246.518984 157.738529 
L 246.651885 157.738529 
L 246.651885 157.149722 
L 246.832253 157.149722 
L 246.939264 155.383301 
L 247.052203 155.383301 
L 247.154136 154.205686 
L 247.190568 154.205686 
L 247.276469 153.028072 
L 247.63436 153.028072 
L 247.63436 152.439265 
L 248.171445 152.439265 
L 248.258944 150.672843 
L 248.515303 150.672843 
L 248.515303 150.084036 
L 248.683906 150.084036 
L 248.683906 149.495229 
L 248.802427 149.495229 
L 248.824179 148.317614 
L 249.16689 148.317614 
L 249.16689 147.728807 
L 249.476054 147.728807 
L 249.476054 147.14 
L 249.676006 147.14 
L 249.691341 145.962386 
L 250.000553 145.962386 
L 250.107988 144.195964 
L 250.149366 144.195964 
L 250.149366 143.607157 
L 250.28211 143.607157 
L 250.28211 143.01835 
L 250.41444 143.01835 
L 250.41444 142.429542 
L 250.820498 142.429542 
L 250.850691 141.251928 
L 251.044635 141.251928 
L 251.137334 140.074314 
L 251.264586 140.074314 
L 251.264586 139.485507 
L 251.380696 139.485507 
L 251.380696 138.896699 
L 251.558726 138.896699 
L 251.558726 138.307892 
L 251.677169 138.307892 
L 251.677169 137.719085 
L 251.847436 137.719085 
L 251.847436 137.130278 
L 251.981201 137.130278 
L 252.051808 135.363856 
L 252.154234 135.363856 
L 252.191771 133.597435 
L 252.266055 133.597435 
L 252.266055 133.008627 
L 252.675751 133.008627 
L 252.736358 130.653399 
L 253.01481 130.653399 
L 253.01481 130.064592 
L 253.35535 130.064592 
L 253.398704 128.29817 
L 253.673487 128.29817 
L 253.688437 127.120556 
L 253.876868 127.120556 
L 253.941698 125.942941 
L 254.208568 125.942941 
L 254.208568 125.354134 
L 254.636794 125.354134 
L 254.636794 124.765327 
L 254.83419 124.765327 
L 254.83419 124.17652 
L 255.175477 124.17652 
L 255.261378 122.998905 
L 255.864088 122.998905 
L 255.966266 121.821291 
L 256.204887 121.821291 
L 256.204887 121.232484 
L 256.49908 121.232484 
L 256.49908 120.643676 
L 256.948741 120.643676 
L 256.948741 120.054869 
L 257.151799 120.054869 
L 257.151799 119.466062 
L 257.36559 119.466062 
L 257.418434 117.699641 
L 257.520363 117.699641 
L 257.520363 117.110833 
L 257.700197 117.110833 
L 257.710971 115.933219 
L 258.020944 115.933219 
L 258.12959 114.166797 
L 258.267019 114.166797 
L 258.267019 113.57799 
L 258.435623 113.57799 
L 258.435623 112.989183 
L 258.742075 112.989183 
L 258.844992 111.811569 
L 259.297519 111.811569 
L 259.395317 110.633954 
L 259.63674 110.633954 
L 259.700486 109.45634 
L 259.943192 109.45634 
L 260.017243 108.278725 
L 260.408824 108.278725 
L 260.408824 107.689918 
L 260.55602 107.689918 
L 260.55602 107.101111 
L 260.690871 107.101111 
L 260.690871 106.512304 
L 260.841311 106.512304 
L 260.841311 105.923497 
L 261.063994 105.923497 
L 261.063994 105.33469 
L 262.002014 105.33469 
L 262.002014 104.745882 
L 262.265111 104.745882 
L 262.265111 104.157075 
L 262.397277 104.157075 
L 262.405142 102.979461 
L 262.575306 102.979461 
L 262.575306 102.390654 
L 263.522018 102.390654 
L 263.565845 101.213039 
L 263.951175 101.213039 
L 263.951175 100.624232 
L 264.293901 100.624232 
L 264.293901 100.035425 
L 264.770247 100.035425 
L 264.770247 99.446618 
L 264.958278 99.446618 
L 264.958278 98.85781 
L 265.276376 98.85781 
L 265.368901 97.680196 
L 265.495018 97.680196 
L 265.495018 97.091389 
L 265.653374 97.091389 
L 265.678874 95.913775 
L 265.78752 95.913775 
L 265.78752 95.324967 
L 266.192057 95.324967 
L 266.277958 94.147353 
L 266.477493 94.147353 
L 266.477493 93.558546 
L 268.168379 93.558546 
L 268.168379 92.969739 
L 269.063649 92.969739 
L 269.063649 92.380931 
L 269.2836 92.380931 
L 269.2836 91.792124 
L 271.033824 91.792124 
L 271.033824 91.203317 
L 271.707451 91.203317 
L 271.707451 90.61451 
L 272.27881 90.61451 
L 272.27881 90.025703 
L 272.766869 90.025703 
L 272.766869 89.436895 
L 273.479927 89.436895 
L 273.479927 88.848088 
L 274.613752 88.848088 
L 274.613752 88.259281 
L 274.923724 88.259281 
L 275.032371 86.492859 
L 280.411689 86.492859 
L 280.513618 85.315245 
L 282.290774 85.315245 
L 282.290774 84.726438 
L 283.29539 84.726438 
L 283.29539 84.137631 
L 284.138412 84.137631 
L 284.138412 83.548824 
L 284.496507 83.548824 
L 284.496507 82.960016 
L 285.985295 82.960016 
L 285.985295 82.371209 
L 286.275224 82.371209 
L 286.377153 80.604788 
L 286.403914 80.604788 
L 286.403914 80.01598 
L 288.15431 80.01598 
L 288.15431 79.427173 
L 293.933154 79.427173 
L 294.035083 78.249559 
L 295.81224 78.249559 
L 295.81224 77.660752 
L 303.178005 77.660752 
L 303.279934 76.483137 
L 305.05709 76.483137 
L 305.05709 75.89433 
L 306.246374 75.89433 
L 306.246374 75.305523 
L 307.969497 75.305523 
L 307.969497 74.716716 
L 308.551568 74.716716 
L 308.551568 74.127908 
L 310.274692 74.127908 
L 310.274692 73.539101 
L 311.404558 73.539101 
L 311.404558 72.950294 
L 313.127681 72.950294 
L 313.127681 72.361487 
L 313.935957 72.361487 
L 313.935957 71.77268 
L 314.549548 71.77268 
L 314.651477 70.595065 
L 315.659081 70.595065 
L 315.659081 70.006258 
L 316.428633 70.006258 
L 316.428633 69.417451 
L 317.126387 69.417451 
L 317.126387 68.828644 
L 318.572381 68.828644 
L 318.572381 68.239837 
L 318.849511 68.239837 
L 318.849511 67.651029 
L 320.136213 67.651029 
L 320.136213 67.062222 
L 320.295505 67.062222 
L 320.295505 66.473415 
L 321.859336 66.473415 
L 321.859336 65.884608 
L 335.608004 65.884608 
L 335.608004 65.295801 
L 338.304794 65.295801 
L 338.304794 64.706993 
L 338.482824 64.706993 
L 338.482824 64.118186 
L 340.865795 64.118186 
L 340.865795 63.529379 
L 341.560892 63.529379 
L 341.560892 62.940572 
L 342.099575 62.940572 
L 342.185475 61.762958 
L 344.075897 61.762958 
L 344.075897 61.17415 
L 344.971166 61.17415 
L 344.971166 60.585343 
L 345.191117 60.585343 
L 345.191117 59.996536 
L 346.941341 59.996536 
L 346.941341 59.407729 
L 347.614968 59.407729 
L 347.614968 58.818922 
L 350.875272 58.818922 
L 350.875272 58.230114 
L 359.202908 58.230114 
L 359.202908 57.641307 
L 360.404024 57.641307 
L 360.404024 57.0525 
L 364.493202 57.0525 
L 364.493202 56.463693 
L 366.798396 56.463693 
L 366.798396 55.874886 
L 369.651386 55.874886 
L 369.651386 55.286078 
L 372.182785 55.286078 
L 372.182785 54.697271 
L 375.373215 54.697271 
L 375.373215 54.108464 
L 376.819209 54.108464 
L 376.819209 53.519657 
L 378.383041 53.519657 
L 378.383041 52.93085 
L 387.486457 52.93085 
L 387.486457 52.342042 
L 389.791651 52.342042 
L 389.791651 51.753235 
L 392.644641 51.753235 
L 392.644641 51.164428 
L 393.349992 51.164428 
L 393.349992 50.575621 
L 395.17604 50.575621 
L 395.17604 49.986814 
L 395.655187 49.986814 
L 395.655187 49.398007 
L 398.36647 49.398007 
L 398.36647 48.809199 
L 398.508177 48.809199 
L 398.508177 48.220392 
L 399.812464 48.220392 
L 399.812464 47.631585 
L 401.007922 47.631585 
L 401.039576 46.453971 
L 401.376296 46.453971 
L 401.376296 45.865163 
L 403.313117 45.865163 
L 403.313117 45.276356 
L 404.230006 45.276356 
L 404.230006 44.687549 
L 405.676 44.687549 
L 405.676 44.098742 
L 406.166107 44.098742 
L 406.166107 43.509935 
L 407.239832 43.509935 
L 407.239832 42.921127 
L 408.697506 42.921127 
L 408.697506 42.33232 
L 410.252773 42.33232 
L 410.252773 41.743513 
L 411.887936 41.743513 
L 411.887936 41.154706 
L 412.557967 41.154706 
L 412.557967 40.565899 
L 413.33393 40.565899 
L 413.33393 39.977092 
L 414.897762 39.977092 
L 414.897762 39.388284 
L 415.410957 39.388284 
L 415.410957 38.799477 
L 417.942356 38.799477 
L 417.942356 38.21067 
L 421.132786 38.21067 
L 421.132786 37.621863 
L 421.624316 37.621863 
L 421.624316 37.033056 
L 422.57878 37.033056 
L 422.57878 36.444248 
L 423.92951 36.444248 
L 423.92951 35.855441 
L 424.142612 35.855441 
L 424.142612 35.266634 
L 426.7825 35.266634 
L 426.7825 34.677827 
L 429.313899 34.677827 
L 429.313899 34.08902 
L 432.504329 34.08902 
L 432.504329 33.500212 
L 433.950323 33.500212 
L 433.950323 32.911405 
L 435.514155 32.911405 
L 435.514155 32.322598 
L 453.192 32.322598 
L 453.192 32.322598 
" clip-path="url(#p89cbf74089)" style="fill: none; stroke: #000000; stroke-width: 3; stroke-linecap: square"/>
   </g>
   <g id="line2d_62">
    <path clip-path="url(#p89cbf74089)" style="fill: none; stroke: #000000; stroke-width: 3; stroke-linecap: square"/>
   </g>
   <g id="line2d_63">
    <path d="M 34.16 288.453725 
L 138.722468 288.453725 
L 138.722468 287.825664 
L 140.19535 287.825664 
L 140.19535 287.197603 
L 141.827868 287.197603 
L 141.827868 286.569542 
L 157.780723 286.569542 
L 157.780723 285.941481 
L 158.028668 285.941481 
L 158.028668 285.31342 
L 158.416635 285.31342 
L 158.416635 284.685359 
L 158.934826 284.685359 
L 158.934826 284.057298 
L 159.173027 284.057298 
L 159.173027 283.429237 
L 161.649334 283.429237 
L 161.649334 282.801176 
L 168.543787 282.801176 
L 168.543787 282.173115 
L 178.036104 282.173115 
L 178.036104 281.545054 
L 179.281067 281.545054 
L 179.281067 280.916993 
L 180.081695 280.916993 
L 180.122472 279.660871 
L 184.70527 279.660871 
L 184.70527 279.03281 
L 188.163256 279.03281 
L 188.163256 278.404749 
L 189.408219 278.404749 
L 189.408219 277.776688 
L 190.208847 277.776688 
L 190.249624 276.520566 
L 192.123228 276.520566 
L 192.123228 275.892505 
L 198.529126 275.892505 
L 198.529126 275.264444 
L 199.175593 275.264444 
L 199.175593 274.636383 
L 200.386897 274.636383 
L 200.386897 274.008322 
L 200.990472 274.008322 
L 200.990472 273.380261 
L 207.210042 273.380261 
L 207.210042 272.7522 
L 207.511503 272.7522 
L 207.511503 272.124139 
L 209.298276 272.124139 
L 209.298276 271.496078 
L 210.193107 271.496078 
L 210.193107 270.868017 
L 211.742697 270.868017 
L 211.742697 270.239956 
L 212.98766 270.239956 
L 212.98766 269.611895 
L 213.529169 269.611895 
L 213.529169 268.983834 
L 213.788288 268.983834 
L 213.829065 267.727712 
L 214.192145 267.727712 
L 214.192145 267.099651 
L 214.950874 267.099651 
L 214.950874 266.47159 
L 215.665027 266.47159 
L 215.665027 265.843529 
L 217.297545 265.843529 
L 217.337194 264.587407 
L 217.569226 264.587407 
L 217.638655 263.331285 
L 218.148595 263.331285 
L 218.148595 262.703224 
L 219.393558 262.703224 
L 219.425428 261.447102 
L 220.006366 261.447102 
L 220.006366 260.819041 
L 220.194186 260.819041 
L 220.234963 259.562919 
L 221.251329 259.562919 
L 221.251329 258.934858 
L 222.051957 258.934858 
L 222.092734 257.678736 
L 224.799291 257.678736 
L 224.799291 257.050675 
L 226.272173 257.050675 
L 226.272173 256.422614 
L 226.657317 256.422614 
L 226.657317 255.794553 
L 227.904691 255.794553 
L 227.904691 255.166492 
L 233.250399 255.166492 
L 233.250399 254.538431 
L 233.498345 254.538431 
L 233.498345 253.91037 
L 233.892975 253.91037 
L 233.892975 253.282309 
L 234.404503 253.282309 
L 234.404503 252.654248 
L 234.570343 252.654248 
L 234.642704 251.398126 
L 235.365856 251.398126 
L 235.365856 250.770065 
L 235.657344 250.770065 
L 235.657344 250.142004 
L 235.815306 250.142004 
L 235.815306 249.513943 
L 236.615935 249.513943 
L 236.656711 248.257821 
L 236.981965 248.257821 
L 236.998374 247.001699 
L 237.119011 247.001699 
L 237.119011 246.373638 
L 238.454847 246.373638 
L 238.454847 245.745577 
L 240.087365 245.745577 
L 240.087365 245.117516 
L 240.916635 245.117516 
L 240.916635 244.489455 
L 241.218096 244.489455 
L 241.218096 243.861394 
L 243.004869 243.861394 
L 243.004869 243.233333 
L 243.809652 243.233333 
L 243.857546 241.977211 
L 244.105491 241.977211 
L 244.105491 241.34915 
L 245.011649 241.34915 
L 245.011649 240.721089 
L 245.24985 240.721089 
L 245.24985 240.093028 
L 246.008275 240.093028 
L 246.008275 239.464967 
L 246.517357 239.464967 
L 246.517357 238.836906 
L 247.322533 238.836906 
L 247.322533 238.208845 
L 247.481157 238.208845 
L 247.481157 237.580784 
L 247.623994 237.580784 
L 247.726157 236.324662 
L 247.990239 236.324662 
L 247.990239 235.696601 
L 248.153484 235.696601 
L 248.153484 235.06854 
L 248.275832 235.06854 
L 248.275832 234.440479 
L 248.732245 234.440479 
L 248.732245 233.812418 
L 249.113674 233.812418 
L 249.180304 232.556296 
L 249.410767 232.556296 
L 249.481765 231.300174 
L 249.622757 231.300174 
L 249.707647 229.415991 
L 249.748714 229.415991 
L 249.748714 228.78793 
L 250.086753 228.78793 
L 250.094874 227.531808 
L 250.205127 227.531808 
L 250.205127 226.903747 
L 251.180529 226.903747 
L 251.268538 225.019564 
L 251.381231 225.019564 
L 251.40121 223.763442 
L 251.559634 223.763442 
L 251.567756 222.50732 
L 251.837644 222.50732 
L 251.837644 221.879259 
L 252.813046 221.879259 
L 252.874092 220.623137 
L 252.951229 220.623137 
L 253.007954 219.367015 
L 253.192152 219.367015 
L 253.200274 217.482832 
L 254.105333 217.482832 
L 254.105333 216.854771 
L 254.343533 216.854771 
L 254.343533 216.22671 
L 254.50661 216.22671 
L 254.50661 215.598649 
L 255.276813 215.598649 
L 255.276813 214.970588 
L 256.040219 214.970588 
L 256.040219 214.342527 
L 256.288165 214.342527 
L 256.288165 213.714466 
L 256.521776 213.714466 
L 256.521776 213.086405 
L 256.81984 213.086405 
L 256.81984 212.458344 
L 257.194323 212.458344 
L 257.194323 211.830283 
L 257.322405 211.830283 
L 257.432524 209.9461 
L 258.153647 209.9461 
L 258.153647 209.318039 
L 259.166271 209.318039 
L 259.166271 208.689978 
L 259.908831 208.689978 
L 259.908831 208.061917 
L 260.174946 208.061917 
L 260.174946 207.433856 
L 263.429121 207.433856 
L 263.429121 206.805795 
L 263.744281 206.805795 
L 263.744281 206.177734 
L 264.045742 206.177734 
L 264.045742 205.549673 
L 264.674084 205.549673 
L 264.674084 204.921612 
L 265.066529 204.921612 
L 265.172329 203.66549 
L 265.314475 203.66549 
L 265.314475 203.037429 
L 265.474713 203.037429 
L 265.575611 201.153246 
L 265.823557 201.153246 
L 265.832515 199.897124 
L 266.220633 199.897124 
L 266.220633 199.269063 
L 266.458833 199.269063 
L 266.458833 198.641002 
L 266.729715 198.641002 
L 266.729715 198.012941 
L 266.967916 198.012941 
L 266.967916 197.38488 
L 267.211739 197.38488 
L 267.211739 196.756819 
L 267.334086 196.756819 
L 267.334086 196.128758 
L 267.459684 196.128758 
L 267.459684 195.500697 
L 267.582032 195.500697 
L 267.638454 194.244575 
L 267.790499 194.244575 
L 267.790499 193.616514 
L 268.038445 193.616514 
L 268.038445 192.988453 
L 268.280799 192.988453 
L 268.365842 191.732331 
L 268.48819 191.732331 
L 268.48819 191.10427 
L 268.604043 191.10427 
L 268.604043 190.476209 
L 268.72639 190.476209 
L 268.765901 189.220087 
L 268.935141 189.220087 
L 269.013847 187.335904 
L 269.111336 187.335904 
L 269.182803 184.82366 
L 269.293423 184.82366 
L 269.401074 182.939477 
L 269.444223 182.939477 
L 269.444223 182.311416 
L 269.920005 182.311416 
L 269.920005 181.683355 
L 270.158205 181.683355 
L 270.158205 181.055294 
L 270.299111 181.055294 
L 270.307232 179.799172 
L 270.459465 179.799172 
L 270.545433 177.914989 
L 270.70741 177.914989 
L 270.782093 176.030806 
L 271.08035 176.030806 
L 271.08035 175.402745 
L 271.202698 175.402745 
L 271.202698 174.774684 
L 271.613568 174.774684 
L 271.659111 173.518562 
L 271.851769 173.518562 
L 271.851769 172.890501 
L 272.627423 172.890501 
L 272.634513 171.634379 
L 273.013618 171.634379 
L 273.043336 169.750196 
L 273.872386 169.750196 
L 273.872386 169.122135 
L 274.328076 169.122135 
L 274.328076 168.494074 
L 274.64527 168.494074 
L 274.713792 166.609891 
L 275.818716 166.609891 
L 275.818716 165.98183 
L 276.460149 165.98183 
L 276.460149 165.353769 
L 279.875776 165.353769 
L 279.875776 164.725708 
L 282.964766 164.725708 
L 282.964766 164.097647 
L 283.170488 164.097647 
L 283.170488 163.469586 
L 284.380724 163.469586 
L 284.450751 162.213464 
L 284.752213 162.213464 
L 284.791798 160.957342 
L 285.252416 160.957342 
L 285.252416 160.329281 
L 285.662783 160.329281 
L 285.662783 159.70122 
L 285.945868 159.70122 
L 286.036761 158.445098 
L 286.533748 158.445098 
L 286.538985 157.188976 
L 286.696708 157.188976 
L 286.696708 156.560915 
L 286.837389 156.560915 
L 286.944654 154.676732 
L 287.067295 154.676732 
L 287.067295 154.048671 
L 287.850812 154.048671 
L 287.850812 153.42061 
L 288.089012 153.42061 
L 288.089012 152.792549 
L 288.998846 152.792549 
L 288.998846 152.164488 
L 290.56532 152.164488 
L 290.56532 151.536427 
L 291.86024 151.536427 
L 291.86024 150.908366 
L 291.991076 150.908366 
L 291.991076 150.280305 
L 292.500158 150.280305 
L 292.603059 149.024183 
L 292.872864 149.024183 
L 292.904521 147.768061 
L 293.038902 147.768061 
L 293.038902 147.14 
L 294.136286 147.14 
L 294.136286 146.511939 
L 294.258633 146.511939 
L 294.346099 145.255817 
L 294.507876 145.255817 
L 294.507876 144.627756 
L 294.691293 144.627756 
L 294.715046 143.371634 
L 295.690448 143.371634 
L 295.690448 142.743573 
L 296.069554 142.743573 
L 296.160979 140.85939 
L 296.26993 140.85939 
L 296.26993 140.231329 
L 296.6609 140.231329 
L 296.6609 139.603268 
L 297.384012 139.603268 
L 297.43509 138.347146 
L 298.266138 138.347146 
L 298.266138 137.719085 
L 299.249969 137.719085 
L 299.278762 136.462963 
L 299.605992 136.462963 
L 299.605992 135.834902 
L 300.081646 135.834902 
L 300.123909 134.57878 
L 301.136533 134.57878 
L 301.136533 133.950719 
L 301.801361 133.950719 
L 301.801361 133.322658 
L 302.102823 133.322658 
L 302.126994 132.066536 
L 303.646049 132.066536 
L 303.646049 131.438475 
L 303.889595 131.438475 
L 303.889595 130.810414 
L 305.363613 130.810414 
L 305.363613 130.182353 
L 306.461399 130.182353 
L 306.461399 129.554292 
L 306.749929 129.554292 
L 306.749929 128.926231 
L 306.970482 128.926231 
L 306.970482 128.29817 
L 308.276279 128.29817 
L 308.276279 127.670109 
L 308.452603 127.670109 
L 308.452603 127.042048 
L 308.606609 127.042048 
L 308.699675 125.785926 
L 308.728957 125.785926 
L 308.785361 124.529804 
L 309.185369 124.529804 
L 309.185369 123.901743 
L 309.525309 123.901743 
L 309.525309 123.273682 
L 310.160772 123.273682 
L 310.208798 122.01756 
L 310.421488 122.01756 
L 310.421488 121.389499 
L 310.539877 121.389499 
L 310.547999 119.505316 
L 311.000249 119.505316 
L 311.000249 118.877255 
L 311.788666 118.877255 
L 311.854335 117.621133 
L 311.975651 117.621133 
L 311.975651 116.993072 
L 312.354756 116.993072 
L 312.362878 115.73695 
L 312.73414 115.73695 
L 312.739732 114.480828 
L 313.155827 114.480828 
L 313.155827 113.852767 
L 313.621255 113.852767 
L 313.669214 112.596645 
L 313.965736 112.596645 
L 313.965736 111.968584 
L 314.267197 111.968584 
L 314.267197 111.340523 
L 314.687886 111.340523 
L 314.687886 110.712462 
L 315.013598 110.712462 
L 315.013598 110.084401 
L 315.700511 110.084401 
L 315.700511 109.45634 
L 315.828722 109.45634 
L 315.931207 108.200218 
L 316.05397 108.200218 
L 316.05397 107.572157 
L 317.478913 107.572157 
L 317.478913 106.944096 
L 317.788978 106.944096 
L 317.788978 106.316035 
L 317.987995 106.316035 
L 318.087317 105.059913 
L 319.624122 105.059913 
L 319.624122 104.431852 
L 319.74647 104.431852 
L 319.74647 103.803791 
L 320.202883 103.803791 
L 320.240341 102.547669 
L 320.814975 102.547669 
L 320.814975 101.919608 
L 321.178285 101.919608 
L 321.178285 101.291547 
L 321.324058 101.291547 
L 321.324058 100.663486 
L 321.557391 100.663486 
L 321.565512 99.407364 
L 321.827824 99.407364 
L 321.827824 98.779303 
L 322.871848 98.779303 
L 322.960185 97.523181 
L 323.082533 97.523181 
L 323.082533 96.89512 
L 323.538946 96.89512 
L 323.538946 96.267059 
L 324.493215 96.267059 
L 324.514348 95.010937 
L 324.855032 95.010937 
L 324.916814 92.498693 
L 325.364114 92.498693 
L 325.364114 91.870632 
L 326.207911 91.870632 
L 326.207911 91.242571 
L 326.350986 91.242571 
L 326.350986 90.61451 
L 326.646239 90.61451 
L 326.646239 89.986449 
L 327.000242 89.986449 
L 327.000242 89.358388 
L 327.122589 89.358388 
L 327.122589 88.730327 
L 327.579002 88.730327 
L 327.579002 88.102266 
L 328.091579 88.102266 
L 328.091579 87.474205 
L 328.50401 87.474205 
L 328.554404 86.218083 
L 328.93351 86.218083 
L 328.941632 84.961961 
L 329.577575 84.961961 
L 329.577575 84.3339 
L 329.906458 84.3339 
L 329.906458 83.705839 
L 330.247968 83.705839 
L 330.247968 83.077778 
L 332.352955 83.077778 
L 332.352955 82.449717 
L 333.788239 82.449717 
L 333.788239 81.821656 
L 333.943124 81.821656 
L 333.943124 81.193595 
L 334.452206 81.193595 
L 334.452206 80.565534 
L 335.394356 80.565534 
L 335.394356 79.937473 
L 336.088333 79.937473 
L 336.088333 79.309412 
L 336.210681 79.309412 
L 336.210681 78.681351 
L 336.406981 78.681351 
L 336.406981 78.05329 
L 336.667094 78.05329 
L 336.667094 77.425229 
L 337.642496 77.425229 
L 337.642496 76.797168 
L 338.021602 76.797168 
L 338.029723 75.541046 
L 339.109092 75.541046 
L 339.109092 74.912985 
L 339.336059 74.912985 
L 339.336059 74.284924 
L 340.194137 74.284924 
L 340.194137 73.656863 
L 340.914963 73.656863 
L 340.914963 73.028802 
L 342.051908 73.028802 
L 342.051908 72.400741 
L 342.445155 72.400741 
L 342.445155 71.77268 
L 343.067988 71.77268 
L 343.067988 71.144619 
L 343.546664 71.144619 
L 343.546664 70.516558 
L 344.559289 70.516558 
L 344.559289 69.888497 
L 346.485211 69.888497 
L 346.485211 69.260436 
L 350.284045 69.260436 
L 350.284045 68.632375 
L 352.744966 68.632375 
L 352.744966 68.004314 
L 353.059425 68.004314 
L 353.059425 67.376253 
L 353.757591 67.376253 
L 353.757591 66.748192 
L 355.573303 66.748192 
L 355.573303 66.120131 
L 356.615885 66.120131 
L 356.615885 65.49207 
L 358.436353 65.49207 
L 358.436353 64.864009 
L 361.211733 64.864009 
L 361.211733 64.235948 
L 361.621433 64.235948 
L 361.621433 63.607887 
L 363.774458 63.607887 
L 363.774458 62.979826 
L 364.909341 62.979826 
L 364.909341 62.351765 
L 365.921965 62.351765 
L 365.921965 61.723704 
L 367.634655 61.723704 
L 367.634655 61.095643 
L 369.773741 61.095643 
L 369.773741 60.467582 
L 370.410035 60.467582 
L 370.410035 59.839521 
L 371.926766 59.839521 
L 371.926766 59.21146 
L 377.322355 59.21146 
L 377.322355 58.583399 
L 378.972044 58.583399 
L 378.972044 57.955338 
L 379.79903 57.955338 
L 379.79903 57.327277 
L 381.125068 57.327277 
L 381.125068 56.699216 
L 382.57441 56.699216 
L 382.57441 56.071155 
L 385.474663 56.071155 
L 385.474663 55.443094 
L 391.136418 55.443094 
L 391.136418 54.815033 
L 393.289442 54.815033 
L 393.289442 54.186972 
L 394.672965 54.186972 
L 394.672965 53.558911 
L 406.83734 53.558911 
L 406.83734 52.93085 
L 453.192 52.93085 
L 453.192 52.93085 
" clip-path="url(#p89cbf74089)" style="fill: none; stroke: #00bfbf; stroke-width: 3; stroke-linecap: square"/>
   </g>
   <g id="line2d_64">
    <path clip-path="url(#p89cbf74089)" style="fill: none; stroke: #00bfbf; stroke-width: 3; stroke-linecap: square"/>
   </g>
   <g id="line2d_65">
    <path d="M 34.16 288.453725 
L 168.876451 288.453725 
L 168.876451 287.197603 
L 170.071601 287.197603 
L 170.071601 285.941481 
L 170.372455 285.941481 
L 170.372455 284.685359 
L 181.449559 284.685359 
L 181.449559 283.429237 
L 182.64471 283.429237 
L 182.64471 282.173115 
L 182.945564 282.173115 
L 182.945564 280.916993 
L 186.566123 280.916993 
L 186.566123 279.660871 
L 187.21653 279.660871 
L 187.21653 278.404749 
L 188.8571 278.404749 
L 188.8571 277.148627 
L 189.868244 277.148627 
L 189.868244 275.892505 
L 190.011491 275.892505 
L 190.011491 274.636383 
L 190.514232 274.636383 
L 190.514232 273.380261 
L 190.936674 273.380261 
L 190.936674 272.124139 
L 191.41743 272.124139 
L 191.41743 270.868017 
L 199.139231 270.868017 
L 199.139231 269.611895 
L 199.789638 269.611895 
L 199.789638 268.355773 
L 201.430208 268.355773 
L 201.430208 267.099651 
L 202.074601 267.099651 
L 202.074601 265.843529 
L 202.441352 265.843529 
L 202.441352 264.587407 
L 202.584599 264.587407 
L 202.584599 263.331285 
L 203.08734 263.331285 
L 203.08734 262.075163 
L 203.269751 262.075163 
L 203.269751 260.819041 
L 203.509783 260.819041 
L 203.570605 258.306797 
L 203.990538 258.306797 
L 203.990538 257.050675 
L 217.698171 257.050675 
L 217.698171 255.794553 
L 218.196747 255.794553 
L 218.203615 253.282309 
L 219.398765 253.282309 
L 219.398765 252.026187 
L 219.699619 252.026187 
L 219.764273 249.513943 
L 220.021627 249.513943 
L 220.021627 248.257821 
L 220.41468 248.257821 
L 220.41468 247.001699 
L 220.704007 247.001699 
L 220.704007 245.745577 
L 221.899158 245.745577 
L 221.899158 244.489455 
L 222.05525 244.489455 
L 222.05525 243.233333 
L 222.200011 243.233333 
L 222.200011 241.977211 
L 223.066394 241.977211 
L 223.066394 240.721089 
L 223.209641 240.721089 
L 223.209641 239.464967 
L 223.712382 239.464967 
L 223.712382 238.208845 
L 224.134825 238.208845 
L 224.134825 236.952723 
L 224.61558 236.952723 
L 224.61558 235.696601 
L 230.271279 235.696601 
L 230.271279 234.440479 
L 230.769855 234.440479 
L 230.769855 233.184357 
L 232.594736 233.184357 
L 232.594736 231.928235 
L 235.138109 231.928235 
L 235.138109 230.672113 
L 235.893287 230.672113 
L 235.893287 229.415991 
L 236.333259 229.415991 
L 236.333259 228.159869 
L 236.543694 228.159869 
L 236.634113 225.647625 
L 238.184264 225.647625 
L 238.184264 224.391503 
L 238.393679 224.391503 
L 238.393679 223.135381 
L 239.044086 223.135381 
L 239.044086 221.879259 
L 239.195408 221.879259 
L 239.195408 220.623137 
L 239.338655 220.623137 
L 239.338655 219.367015 
L 239.841396 219.367015 
L 239.841396 218.110893 
L 240.263838 218.110893 
L 240.263838 216.854771 
L 240.684656 216.854771 
L 240.744594 214.342527 
L 241.317491 214.342527 
L 241.317491 213.086405 
L 241.6958 213.086405 
L 241.6958 211.830283 
L 241.839047 211.830283 
L 241.839047 210.574161 
L 242.341788 210.574161 
L 242.341788 209.318039 
L 242.512641 209.318039 
L 242.512641 208.061917 
L 242.764231 208.061917 
L 242.813495 205.549673 
L 242.880344 205.549673 
L 242.880344 204.293551 
L 243.244986 204.293551 
L 243.244986 203.037429 
L 244.075495 203.037429 
L 244.075495 201.781307 
L 244.376348 201.781307 
L 244.376348 200.525185 
L 250.896321 200.525185 
L 250.896321 199.269063 
L 251.394897 199.269063 
L 251.394897 198.012941 
L 252.321987 198.012941 
L 252.321987 196.756819 
L 252.827781 196.756819 
L 252.827781 195.500697 
L 253.219777 195.500697 
L 253.219777 194.244575 
L 253.478188 194.244575 
L 253.517137 191.732331 
L 253.817991 191.732331 
L 253.817991 190.476209 
L 255.118758 190.476209 
L 255.118758 189.220087 
L 256.129902 189.220087 
L 256.129902 187.963965 
L 256.273149 187.963965 
L 256.273149 186.707843 
L 256.77589 186.707843 
L 256.77589 185.451721 
L 257.198332 185.451721 
L 257.198332 184.195599 
L 257.679088 184.195599 
L 257.679088 182.939477 
L 259.007163 182.939477 
L 259.007163 181.683355 
L 259.65757 181.683355 
L 259.65757 180.427233 
L 260.570016 180.427233 
L 260.570016 179.171111 
L 261.220423 179.171111 
L 261.29814 176.658867 
L 262.309284 176.658867 
L 262.309284 175.402745 
L 262.452531 175.402745 
L 262.452531 174.146623 
L 262.860993 174.146623 
L 262.955272 171.634379 
L 263.377714 171.634379 
L 263.377714 170.378257 
L 263.85847 170.378257 
L 263.872137 167.866013 
L 264.015384 167.866013 
L 264.015384 166.609891 
L 264.518125 166.609891 
L 264.518125 165.353769 
L 264.940568 165.353769 
L 264.940568 164.097647 
L 265.274065 164.097647 
L 265.274065 162.841525 
L 265.421323 162.841525 
L 265.421323 161.585403 
L 266.469216 161.585403 
L 266.469216 160.329281 
L 266.77007 160.329281 
L 266.77007 159.073159 
L 267.025335 159.073159 
L 267.025335 157.817037 
L 267.523911 157.817037 
L 267.523911 156.560915 
L 269.348791 156.560915 
L 269.348791 155.304793 
L 269.525727 155.304793 
L 269.525727 154.048671 
L 270.011659 154.048671 
L 270.024303 151.536427 
L 270.662066 151.536427 
L 270.662066 150.280305 
L 271.849183 150.280305 
L 271.849183 149.024183 
L 272.302636 149.024183 
L 272.302636 147.768061 
L 273.31378 147.768061 
L 273.31378 146.511939 
L 273.457027 146.511939 
L 273.457027 145.255817 
L 273.959768 145.255817 
L 273.959768 143.999695 
L 274.38221 143.999695 
L 274.38221 142.743573 
L 274.862966 142.743573 
L 274.862966 141.487451 
L 282.963737 141.487451 
L 282.963737 140.231329 
L 283.614145 140.231329 
L 283.614145 138.975207 
L 283.959829 138.975207 
L 283.959829 137.719085 
L 284.458405 137.719085 
L 284.458405 136.462963 
L 285.254714 136.462963 
L 285.254714 135.206841 
L 286.265858 135.206841 
L 286.283285 132.694597 
L 286.409106 132.694597 
L 286.409106 131.438475 
L 286.911846 131.438475 
L 286.911846 130.182353 
L 287.334289 130.182353 
L 287.334289 128.926231 
L 287.815045 128.926231 
L 287.815045 127.670109 
L 290.139211 127.670109 
L 290.139211 126.413987 
L 290.637787 126.413987 
L 290.637787 125.157865 
L 291.702064 125.157865 
L 291.702064 123.901743 
L 292.20064 123.901743 
L 292.20064 122.645621 
L 292.462667 122.645621 
L 292.462667 121.389499 
L 294.02552 121.389499 
L 294.02552 120.133377 
L 300.414545 120.133377 
L 300.414545 118.877255 
L 301.143707 118.877255 
L 301.143707 117.621133 
L 301.642283 117.621133 
L 301.642283 116.365011 
L 303.467163 116.365011 
L 303.467163 115.108889 
L 312.987654 115.108889 
L 312.987654 113.852767 
L 314.095786 113.852767 
L 314.095786 112.596645 
L 314.594362 112.596645 
L 314.594362 111.340523 
L 316.419242 111.340523 
L 316.419242 110.084401 
L 333.612696 110.084401 
L 333.612696 108.828279 
L 349.741709 108.828279 
L 349.741709 107.572157 
L 352.242102 107.572157 
L 352.242102 106.316035 
L 366.676203 106.316035 
L 366.676203 105.059913 
L 372.855585 105.059913 
L 372.855585 103.803791 
L 374.418439 103.803791 
L 374.418439 102.547669 
L 383.860082 102.547669 
L 383.860082 101.291547 
L 396.81216 101.291547 
L 396.81216 100.035425 
L 453.192 100.035425 
L 453.192 100.035425 
" clip-path="url(#p89cbf74089)" style="fill: none; stroke: #bf00bf; stroke-width: 3; stroke-linecap: square"/>
   </g>
   <g id="line2d_66">
    <path clip-path="url(#p89cbf74089)" style="fill: none; stroke: #bf00bf; stroke-width: 3; stroke-linecap: square"/>
   </g>
   <g id="line2d_67">
    <path d="M 34.16 288.453725 
L 169.945301 288.453725 
L 169.945301 287.197603 
L 170.693619 287.197603 
L 170.693619 285.941481 
L 171.379746 285.941481 
L 171.379746 284.685359 
L 171.559715 284.685359 
L 171.559715 283.429237 
L 185.286458 283.429237 
L 185.286458 282.173115 
L 186.034776 282.173115 
L 186.034776 280.916993 
L 186.720903 280.916993 
L 186.720903 279.660871 
L 186.900872 279.660871 
L 186.900872 278.404749 
L 187.855034 278.404749 
L 187.855034 277.148627 
L 188.083896 277.148627 
L 188.083896 275.892505 
L 190.072941 275.892505 
L 190.072941 274.636383 
L 191.165388 274.636383 
L 191.165388 273.380261 
L 191.286046 273.380261 
L 191.286046 272.124139 
L 191.628409 272.124139 
L 191.72267 269.611895 
L 192.435222 269.611895 
L 192.435222 268.355773 
L 203.196191 268.355773 
L 203.196191 267.099651 
L 203.425053 267.099651 
L 203.425053 265.843529 
L 205.414098 265.843529 
L 205.414098 264.587407 
L 206.506544 264.587407 
L 206.506544 263.331285 
L 206.627203 263.331285 
L 206.627203 262.075163 
L 206.969566 262.075163 
L 207.063827 259.562919 
L 207.776378 259.562919 
L 207.776378 258.306797 
L 208.681608 258.306797 
L 208.681608 257.050675 
L 209.429926 257.050675 
L 209.429926 255.794553 
L 210.116053 255.794553 
L 210.116053 254.538431 
L 210.296022 254.538431 
L 210.296022 253.282309 
L 218.638221 253.282309 
L 218.638221 252.026187 
L 218.809862 252.026187 
L 218.809862 250.770065 
L 219.88477 250.770065 
L 219.88477 249.513943 
L 226.289728 249.513943 
L 226.289728 248.257821 
L 226.473399 248.257821 
L 226.473399 247.001699 
L 226.591341 247.001699 
L 226.591341 245.745577 
L 226.820203 245.745577 
L 226.820203 244.489455 
L 227.038046 244.489455 
L 227.038046 243.233333 
L 227.221717 243.233333 
L 227.221717 241.977211 
L 227.724173 241.977211 
L 227.724173 240.721089 
L 227.904142 240.721089 
L 227.907844 238.208845 
L 228.087813 238.208845 
L 228.087813 236.952723 
L 228.809248 236.952723 
L 228.809248 235.696601 
L 229.901695 235.696601 
L 229.901695 234.440479 
L 230.022353 234.440479 
L 230.022353 233.184357 
L 230.364716 233.184357 
L 230.458977 230.672113 
L 231.171529 230.672113 
L 231.171529 229.415991 
L 233.979378 229.415991 
L 233.979378 228.159869 
L 234.151018 228.159869 
L 234.151018 226.903747 
L 234.774578 226.903747 
L 234.774578 225.647625 
L 235.225927 225.647625 
L 235.225927 224.391503 
L 235.522896 224.391503 
L 235.522896 223.135381 
L 236.209023 223.135381 
L 236.209023 221.879259 
L 236.388992 221.879259 
L 236.388992 220.623137 
L 241.684296 220.623137 
L 241.684296 219.367015 
L 242.432614 219.367015 
L 242.432614 218.110893 
L 243.118741 218.110893 
L 243.118741 216.854771 
L 243.29871 216.854771 
L 243.29871 215.598649 
L 244.199462 215.598649 
L 244.199462 214.342527 
L 244.383132 214.342527 
L 244.428324 211.830283 
L 244.611994 211.830283 
L 244.611994 210.574161 
L 246.417368 210.574161 
L 246.417368 209.318039 
L 246.601039 209.318039 
L 246.601039 208.061917 
L 247.509815 208.061917 
L 247.509815 206.805795 
L 247.630473 206.805795 
L 247.693485 204.293551 
L 247.814144 204.293551 
L 247.814144 203.037429 
L 247.972836 203.037429 
L 248.067097 200.525185 
L 248.156507 200.525185 
L 248.250768 198.012941 
L 248.779649 198.012941 
L 248.779649 196.756819 
L 248.96332 196.756819 
L 248.96332 195.500697 
L 252.008031 195.500697 
L 252.008031 194.244575 
L 252.684311 194.244575 
L 252.756349 191.732331 
L 252.913173 191.732331 
L 252.913173 190.476209 
L 253.442476 190.476209 
L 253.442476 189.220087 
L 253.622445 189.220087 
L 253.622445 187.963965 
L 254.902218 187.963965 
L 254.902218 186.707843 
L 255.994664 186.707843 
L 255.994664 185.451721 
L 256.115323 185.451721 
L 256.115323 184.195599 
L 256.457686 184.195599 
L 256.551947 181.683355 
L 257.264499 181.683355 
L 257.374528 179.171111 
L 257.546169 179.171111 
L 257.546169 177.914989 
L 258.621077 177.914989 
L 258.621077 176.658867 
L 259.594029 176.658867 
L 259.594029 175.402745 
L 259.822891 175.402745 
L 259.822891 174.146623 
L 261.811936 174.146623 
L 261.811936 172.890501 
L 262.904382 172.890501 
L 262.904382 171.634379 
L 263.025041 171.634379 
L 263.025041 170.378257 
L 263.367404 170.378257 
L 263.461665 167.866013 
L 264.174217 167.866013 
L 264.174217 166.609891 
L 265.672251 166.609891 
L 265.672251 165.353769 
L 266.420569 165.353769 
L 266.420569 164.097647 
L 266.547909 164.097647 
L 266.547909 162.841525 
L 267.106696 162.841525 
L 267.106696 161.585403 
L 267.286665 161.585403 
L 267.296227 159.073159 
L 267.982354 159.073159 
L 267.982354 157.817037 
L 268.162323 157.817037 
L 268.162323 156.560915 
L 269.917764 156.560915 
L 269.917764 155.304793 
L 270.146627 155.304793 
L 270.146627 154.048671 
L 272.135671 154.048671 
L 272.135671 152.792549 
L 273.228118 152.792549 
L 273.228118 151.536427 
L 273.348776 151.536427 
L 273.348776 150.280305 
L 273.691139 150.280305 
L 273.7854 147.768061 
L 274.497952 147.768061 
L 274.497952 146.511939 
L 274.982648 146.511939 
L 274.982648 145.255817 
L 275.154289 145.255817 
L 275.166319 142.743573 
L 275.337959 142.743573 
L 275.337959 141.487451 
L 276.229197 141.487451 
L 276.229197 140.231329 
L 276.412868 140.231329 
L 276.412868 138.975207 
L 283.467498 138.975207 
L 283.467498 137.719085 
L 283.581984 137.719085 
L 283.639138 135.206841 
L 283.810846 135.206841 
L 283.810846 133.950719 
L 284.457642 133.950719 
L 284.457642 132.694597 
L 284.686504 132.694597 
L 284.714047 130.182353 
L 285.799891 130.182353 
L 285.799891 128.926231 
L 286.675549 128.926231 
L 286.675549 127.670109 
L 286.892337 127.670109 
L 286.892337 126.413987 
L 287.012996 126.413987 
L 287.012996 125.157865 
L 287.355359 125.157865 
L 287.449619 122.645621 
L 287.767996 122.645621 
L 287.767996 121.389499 
L 287.888654 121.389499 
L 287.888654 120.133377 
L 288.162171 120.133377 
L 288.231017 117.621133 
L 288.325278 117.621133 
L 288.325278 116.365011 
L 289.03783 116.365011 
L 289.03783 115.108889 
L 290.377216 115.108889 
L 290.377216 113.852767 
L 290.548856 113.852767 
L 290.548856 112.596645 
L 291.623765 112.596645 
L 291.623765 111.340523 
L 300.700951 111.340523 
L 300.700951 110.084401 
L 300.872592 110.084401 
L 300.872592 108.828279 
L 301.9475 108.828279 
L 301.9475 107.572157 
L 314.365171 107.572157 
L 314.365171 106.316035 
L 314.536811 106.316035 
L 314.536811 105.059913 
L 315.240829 105.059913 
L 315.240829 103.803791 
L 315.41247 103.803791 
L 315.41247 102.547669 
L 315.61172 102.547669 
L 315.61172 101.291547 
L 316.487378 101.291547 
L 316.487378 100.035425 
L 453.192 100.035425 
L 453.192 100.035425 
" clip-path="url(#p89cbf74089)" style="fill: none; stroke: #ff0000; stroke-width: 3; stroke-linecap: square"/>
   </g>
   <g id="line2d_68">
    <path clip-path="url(#p89cbf74089)" style="fill: none; stroke: #ff0000; stroke-width: 3; stroke-linecap: square"/>
   </g>
   <g id="line2d_69">
    <path d="M 243.676 291.28 
L 243.676 3 
" clip-path="url(#p89cbf74089)" style="fill: none; stroke: #000000; stroke-width: 1.5; stroke-linecap: square"/>
   </g>
   <g id="line2d_70">
    <path d="M 34.16 147.14 
L 453.192 147.14 
" clip-path="url(#p89cbf74089)" style="fill: none; stroke-dasharray: 2,3.3; stroke-dashoffset: 0; stroke: #000000; stroke-width: 2"/>
   </g>
   <g id="patch_3">
    <path d="M 34.16 291.28 
L 34.16 3 
" style="fill: none; stroke: #000000; stroke-width: 0.8; stroke-linejoin: miter; stroke-linecap: square"/>
   </g>
   <g id="patch_4">
    <path d="M 453.192 291.28 
L 453.192 3 
" style="fill: none; stroke: #000000; stroke-width: 0.8; stroke-linejoin: miter; stroke-linecap: square"/>
   </g>
   <g id="patch_5">
    <path d="M 34.16 291.28 
L 453.192 291.28 
" style="fill: none; stroke: #000000; stroke-width: 0.8; stroke-linejoin: miter; stroke-linecap: square"/>
   </g>
   <g id="patch_6">
    <path d="M 34.16 3 
L 453.192 3 
" style="fill: none; stroke: #000000; stroke-width: 0.8; stroke-linejoin: miter; stroke-linecap: square"/>
   </g>
   <g id="text_5">
    <!-- f20-f24,40-D -->
    <g transform="translate(318.19261 285.5144) scale(0.2 -0.2)">
     <defs>
      <path id="DejaVuSans-32" d="M 1228 531 
L 3431 531 
L 3431 0 
L 469 0 
L 469 531 
Q 828 903 1448 1529 
Q 2069 2156 2228 2338 
Q 2531 2678 2651 2914 
Q 2772 3150 2772 3378 
Q 2772 3750 2511 3984 
Q 2250 4219 1831 4219 
Q 1534 4219 1204 4116 
Q 875 4013 500 3803 
L 500 4441 
Q 881 4594 1212 4672 
Q 1544 4750 1819 4750 
Q 2544 4750 2975 4387 
Q 3406 4025 3406 3419 
Q 3406 3131 3298 2873 
Q 3191 2616 2906 2266 
Q 2828 2175 2409 1742 
Q 1991 1309 1228 531 
z
" transform="scale(0.015625)"/>
      <path id="DejaVuSans-34" d="M 2419 4116 
L 825 1625 
L 2419 1625 
L 2419 4116 
z
M 2253 4666 
L 3047 4666 
L 3047 1625 
L 3713 1625 
L 3713 1100 
L 3047 1100 
L 3047 0 
L 2419 0 
L 2419 1100 
L 313 1100 
L 313 1709 
L 2253 4666 
z
" transform="scale(0.015625)"/>
      <path id="DejaVuSans-2c" d="M 750 794 
L 1409 794 
L 1409 256 
L 897 -744 
L 494 -744 
L 750 256 
L 750 794 
z
" transform="scale(0.015625)"/>
      <path id="DejaVuSans-44" d="M 1259 4147 
L 1259 519 
L 2022 519 
Q 2988 519 3436 956 
Q 3884 1394 3884 2338 
Q 3884 3275 3436 3711 
Q 2988 4147 2022 4147 
L 1259 4147 
z
M 628 4666 
L 1925 4666 
Q 3281 4666 3915 4102 
Q 4550 3538 4550 2338 
Q 4550 1131 3912 565 
Q 3275 0 1925 0 
L 628 0 
L 628 4666 
z
" transform="scale(0.015625)"/>
     </defs>
     <use xlink:href="#DejaVuSans-66"/>
     <use xlink:href="#DejaVuSans-32" x="35.205078"/>
     <use xlink:href="#DejaVuSans-30" x="98.828125"/>
     <use xlink:href="#DejaVuSans-2d" x="162.451172"/>
     <use xlink:href="#DejaVuSans-66" x="198.535156"/>
     <use xlink:href="#DejaVuSans-32" x="233.740234"/>
     <use xlink:href="#DejaVuSans-34" x="297.363281"/>
     <use xlink:href="#DejaVuSans-2c" x="360.986328"/>
     <use xlink:href="#DejaVuSans-34" x="392.773438"/>
     <use xlink:href="#DejaVuSans-30" x="456.396484"/>
     <use xlink:href="#DejaVuSans-2d" x="520.019531"/>
     <use xlink:href="#DejaVuSans-44" x="556.103516"/>
    </g>
   </g>
   <g id="text_6">
    <!-- v2.6.3 -->
    <g style="fill: #808080" transform="translate(227.99475 286.317512) scale(0.1 -0.1)">
     <defs>
      <path id="DejaVuSans-2e" d="M 684 794 
L 1344 794 
L 1344 0 
L 684 0 
L 684 794 
z
" transform="scale(0.015625)"/>
      <path id="DejaVuSans-36" d="M 2113 2584 
Q 1688 2584 1439 2293 
Q 1191 2003 1191 1497 
Q 1191 994 1439 701 
Q 1688 409 2113 409 
Q 2538 409 2786 701 
Q 3034 994 3034 1497 
Q 3034 2003 2786 2293 
Q 2538 2584 2113 2584 
z
M 3366 4563 
L 3366 3988 
Q 3128 4100 2886 4159 
Q 2644 4219 2406 4219 
Q 1781 4219 1451 3797 
Q 1122 3375 1075 2522 
Q 1259 2794 1537 2939 
Q 1816 3084 2150 3084 
Q 2853 3084 3261 2657 
Q 3669 2231 3669 1497 
Q 3669 778 3244 343 
Q 2819 -91 2113 -91 
Q 1303 -91 875 529 
Q 447 1150 447 2328 
Q 447 3434 972 4092 
Q 1497 4750 2381 4750 
Q 2619 4750 2861 4703 
Q 3103 4656 3366 4563 
z
" transform="scale(0.015625)"/>
      <path id="DejaVuSans-33" d="M 2597 2516 
Q 3050 2419 3304 2112 
Q 3559 1806 3559 1356 
Q 3559 666 3084 287 
Q 2609 -91 1734 -91 
Q 1441 -91 1130 -33 
Q 819 25 488 141 
L 488 750 
Q 750 597 1062 519 
Q 1375 441 1716 441 
Q 2309 441 2620 675 
Q 2931 909 2931 1356 
Q 2931 1769 2642 2001 
Q 2353 2234 1838 2234 
L 1294 2234 
L 1294 2753 
L 1863 2753 
Q 2328 2753 2575 2939 
Q 2822 3125 2822 3475 
Q 2822 3834 2567 4026 
Q 2313 4219 1838 4219 
Q 1578 4219 1281 4162 
Q 984 4106 628 3988 
L 628 4550 
Q 988 4650 1302 4700 
Q 1616 4750 1894 4750 
Q 2613 4750 3031 4423 
Q 3450 4097 3450 3541 
Q 3450 3153 3228 2886 
Q 3006 2619 2597 2516 
z
" transform="scale(0.015625)"/>
     </defs>
     <use xlink:href="#DejaVuSans-76"/>
     <use xlink:href="#DejaVuSans-32" x="59.179688"/>
     <use xlink:href="#DejaVuSans-2e" x="122.802734"/>
     <use xlink:href="#DejaVuSans-36" x="154.589844"/>
     <use xlink:href="#DejaVuSans-2e" x="218.212891"/>
     <use xlink:href="#DejaVuSans-33" x="250"/>
    </g>
   </g>
   <g id="legend_1">
    <g id="patch_7">
     <path d="M 48.16 136.425 
L 177.381875 136.425 
Q 181.381875 136.425 181.381875 132.425 
L 181.381875 17 
Q 181.381875 13 177.381875 13 
L 48.16 13 
Q 44.16 13 44.16 17 
L 44.16 132.425 
Q 44.16 136.425 48.16 136.425 
z
" style="fill: #ffffff; opacity: 0.2; stroke: #cccccc; stroke-linejoin: miter"/>
    </g>
    <g id="line2d_71">
     <path d="M 52.16 29.196875 
L 72.16 29.196875 
L 92.16 29.196875 
" style="fill: none; stroke: #000000; stroke-width: 3; stroke-linecap: square"/>
    </g>
    <g id="text_7">
     <!-- 1: 3/2 -->
     <g transform="translate(108.16 36.196875) scale(0.2 -0.2)">
      <defs>
       <path id="DejaVuSans-3a" d="M 750 794 
L 1409 794 
L 1409 0 
L 750 0 
L 750 794 
z
M 750 3309 
L 1409 3309 
L 1409 2516 
L 750 2516 
L 750 3309 
z
" transform="scale(0.015625)"/>
       <path id="DejaVuSans-2f" d="M 1625 4666 
L 2156 4666 
L 531 -594 
L 0 -594 
L 1625 4666 
z
" transform="scale(0.015625)"/>
      </defs>
      <use xlink:href="#DejaVuSans-31"/>
      <use xlink:href="#DejaVuSans-3a" x="63.623047"/>
      <use xlink:href="#DejaVuSans-20" x="97.314453"/>
      <use xlink:href="#DejaVuSans-33" x="129.101562"/>
      <use xlink:href="#DejaVuSans-2f" x="192.724609"/>
      <use xlink:href="#DejaVuSans-32" x="226.416016"/>
     </g>
    </g>
    <g id="line2d_72">
     <path d="M 52.16 58.553125 
L 72.16 58.553125 
L 92.16 58.553125 
" style="fill: none; stroke: #00bfbf; stroke-width: 3; stroke-linecap: square"/>
    </g>
    <g id="text_8">
     <!-- -1: 2/2 -->
     <g transform="translate(108.16 65.553125) scale(0.2 -0.2)">
      <use xlink:href="#DejaVuSans-2d"/>
      <use xlink:href="#DejaVuSans-31" x="36.083984"/>
      <use xlink:href="#DejaVuSans-3a" x="99.707031"/>
      <use xlink:href="#DejaVuSans-20" x="133.398438"/>
      <use xlink:href="#DejaVuSans-32" x="165.185547"/>
      <use xlink:href="#DejaVuSans-2f" x="228.808594"/>
      <use xlink:href="#DejaVuSans-32" x="262.5"/>
     </g>
    </g>
    <g id="line2d_73">
     <path d="M 52.16 87.909375 
L 72.16 87.909375 
L 92.16 87.909375 
" style="fill: none; stroke: #bf00bf; stroke-width: 3; stroke-linecap: square"/>
    </g>
    <g id="text_9">
     <!-- -4: 1/1 -->
     <g transform="translate(108.16 94.909375) scale(0.2 -0.2)">
      <use xlink:href="#DejaVuSans-2d"/>
      <use xlink:href="#DejaVuSans-34" x="36.083984"/>
      <use xlink:href="#DejaVuSans-3a" x="99.707031"/>
      <use xlink:href="#DejaVuSans-20" x="133.398438"/>
      <use xlink:href="#DejaVuSans-31" x="165.185547"/>
      <use xlink:href="#DejaVuSans-2f" x="228.808594"/>
      <use xlink:href="#DejaVuSans-31" x="262.5"/>
     </g>
    </g>
    <g id="line2d_74">
     <path d="M 52.16 117.265625 
L 72.16 117.265625 
L 92.16 117.265625 
" style="fill: none; stroke: #ff0000; stroke-width: 3; stroke-linecap: square"/>
    </g>
    <g id="text_10">
     <!-- -8: 1/1 -->
     <g transform="translate(108.16 124.265625) scale(0.2 -0.2)">
      <defs>
       <path id="DejaVuSans-38" d="M 2034 2216 
Q 1584 2216 1326 1975 
Q 1069 1734 1069 1313 
Q 1069 891 1326 650 
Q 1584 409 2034 409 
Q 2484 409 2743 651 
Q 3003 894 3003 1313 
Q 3003 1734 2745 1975 
Q 2488 2216 2034 2216 
z
M 1403 2484 
Q 997 2584 770 2862 
Q 544 3141 544 3541 
Q 544 4100 942 4425 
Q 1341 4750 2034 4750 
Q 2731 4750 3128 4425 
Q 3525 4100 3525 3541 
Q 3525 3141 3298 2862 
Q 3072 2584 2669 2484 
Q 3125 2378 3379 2068 
Q 3634 1759 3634 1313 
Q 3634 634 3220 271 
Q 2806 -91 2034 -91 
Q 1263 -91 848 271 
Q 434 634 434 1313 
Q 434 1759 690 2068 
Q 947 2378 1403 2484 
z
M 1172 3481 
Q 1172 3119 1398 2916 
Q 1625 2713 2034 2713 
Q 2441 2713 2670 2916 
Q 2900 3119 2900 3481 
Q 2900 3844 2670 4047 
Q 2441 4250 2034 4250 
Q 1625 4250 1398 4047 
Q 1172 3844 1172 3481 
z
" transform="scale(0.015625)"/>
      </defs>
      <use xlink:href="#DejaVuSans-2d"/>
      <use xlink:href="#DejaVuSans-38" x="36.083984"/>
      <use xlink:href="#DejaVuSans-3a" x="99.707031"/>
      <use xlink:href="#DejaVuSans-20" x="133.398438"/>
      <use xlink:href="#DejaVuSans-31" x="165.185547"/>
      <use xlink:href="#DejaVuSans-2f" x="228.808594"/>
      <use xlink:href="#DejaVuSans-31" x="262.5"/>
     </g>
    </g>
   </g>
  </g>
 </g>
 <defs>
  <clipPath id="p89cbf74089">
   <rect x="34.16" y="3" width="419.032" height="288.28"/>
  </clipPath>
 </defs>
</svg>
