<?xml version="1.0" encoding="utf-8" standalone="no"?>
<!DOCTYPE svg PUBLIC "-//W3C//DTD SVG 1.1//EN"
  "http://www.w3.org/Graphics/SVG/1.1/DTD/svg11.dtd">
<svg xmlns:xlink="http://www.w3.org/1999/xlink" width="460.8pt" height="345.6pt" viewBox="0 0 460.8 345.6" xmlns="http://www.w3.org/2000/svg" version="1.1">
 <metadata>
  <rdf:RDF xmlns:dc="http://purl.org/dc/elements/1.1/" xmlns:cc="http://creativecommons.org/ns#" xmlns:rdf="http://www.w3.org/1999/02/22-rdf-syntax-ns#">
   <cc:Work>
    <dc:type rdf:resource="http://purl.org/dc/dcmitype/StillImage"/>
    <dc:date>2024-06-05T09:57:23.858562</dc:date>
    <dc:format>image/svg+xml</dc:format>
    <dc:creator>
     <cc:Agent>
      <dc:title>Matplotlib v3.7.1, https://matplotlib.org/</dc:title>
     </cc:Agent>
    </dc:creator>
   </cc:Work>
  </rdf:RDF>
 </metadata>
 <defs>
  <style type="text/css">*{stroke-linejoin: round; stroke-linecap: butt}</style>
 </defs>
 <g id="figure_1">
  <g id="patch_1">
   <path d="M 0 345.6 
L 460.8 345.6 
L 460.8 0 
L 0 0 
z
" style="fill: #ffffff"/>
  </g>
  <g id="axes_1">
   <g id="patch_2">
    <path d="M 34.16 291.28 
L 453.192 291.28 
L 453.192 3 
L 34.16 3 
z
" style="fill: #ffffff"/>
   </g>
   <g id="matplotlib.axis_1">
    <g id="xtick_1">
     <g id="line2d_1">
      <path d="M 153.214823 291.28 
L 153.214823 3 
" clip-path="url(#pdb003a3c81)" style="fill: none; stroke: #b0b0b0; stroke-width: 0.8; stroke-linecap: square"/>
     </g>
     <g id="line2d_2">
      <defs>
       <path id="m4ede445b10" d="M 0 0 
L 0 3.5 
" style="stroke: #000000; stroke-width: 0.8"/>
      </defs>
      <g>
       <use xlink:href="#m4ede445b10" x="153.214823" y="291.28" style="stroke: #000000; stroke-width: 0.8"/>
      </g>
     </g>
     <g id="text_1">
      <!-- -1 -->
      <g transform="translate(143.244511 313.476875) scale(0.2 -0.2)">
       <defs>
        <path id="DejaVuSans-2d" d="M 313 2009 
L 1997 2009 
L 1997 1497 
L 313 1497 
L 313 2009 
z
" transform="scale(0.015625)"/>
        <path id="DejaVuSans-31" d="M 794 531 
L 1825 531 
L 1825 4091 
L 703 3866 
L 703 4441 
L 1819 4666 
L 2450 4666 
L 2450 531 
L 3481 531 
L 3481 0 
L 794 0 
L 794 531 
z
" transform="scale(0.015625)"/>
       </defs>
       <use xlink:href="#DejaVuSans-2d"/>
       <use xlink:href="#DejaVuSans-31" x="36.083984"/>
      </g>
     </g>
    </g>
    <g id="xtick_2">
     <g id="line2d_3">
      <path d="M 334.137177 291.28 
L 334.137177 3 
" clip-path="url(#pdb003a3c81)" style="fill: none; stroke: #b0b0b0; stroke-width: 0.8; stroke-linecap: square"/>
     </g>
     <g id="line2d_4">
      <g>
       <use xlink:href="#m4ede445b10" x="334.137177" y="291.28" style="stroke: #000000; stroke-width: 0.8"/>
      </g>
     </g>
     <g id="text_2">
      <!-- 1 -->
      <g transform="translate(327.774677 313.476875) scale(0.2 -0.2)">
       <use xlink:href="#DejaVuSans-31"/>
      </g>
     </g>
    </g>
    <g id="xtick_3">
     <g id="line2d_5">
      <defs>
       <path id="ma56c9507e2" d="M 0 0 
L 0 2 
" style="stroke: #000000; stroke-width: 0.6"/>
      </defs>
      <g>
       <use xlink:href="#ma56c9507e2" x="35.522118" y="291.28" style="stroke: #000000; stroke-width: 0.6"/>
      </g>
     </g>
    </g>
    <g id="xtick_4">
     <g id="line2d_6">
      <g>
       <use xlink:href="#ma56c9507e2" x="42.684947" y="291.28" style="stroke: #000000; stroke-width: 0.6"/>
      </g>
     </g>
    </g>
    <g id="xtick_5">
     <g id="line2d_7">
      <g>
       <use xlink:href="#ma56c9507e2" x="48.741032" y="291.28" style="stroke: #000000; stroke-width: 0.6"/>
      </g>
     </g>
    </g>
    <g id="xtick_6">
     <g id="line2d_8">
      <g>
       <use xlink:href="#ma56c9507e2" x="53.987052" y="291.28" style="stroke: #000000; stroke-width: 0.6"/>
      </g>
     </g>
    </g>
    <g id="xtick_7">
     <g id="line2d_9">
      <g>
       <use xlink:href="#ma56c9507e2" x="58.61437" y="291.28" style="stroke: #000000; stroke-width: 0.6"/>
      </g>
     </g>
    </g>
    <g id="xtick_8">
     <g id="line2d_10">
      <g>
       <use xlink:href="#ma56c9507e2" x="89.985174" y="291.28" style="stroke: #000000; stroke-width: 0.6"/>
      </g>
     </g>
    </g>
    <g id="xtick_9">
     <g id="line2d_11">
      <g>
       <use xlink:href="#ma56c9507e2" x="105.914596" y="291.28" style="stroke: #000000; stroke-width: 0.6"/>
      </g>
     </g>
    </g>
    <g id="xtick_10">
     <g id="line2d_12">
      <g>
       <use xlink:href="#ma56c9507e2" x="117.216701" y="291.28" style="stroke: #000000; stroke-width: 0.6"/>
      </g>
     </g>
    </g>
    <g id="xtick_11">
     <g id="line2d_13">
      <g>
       <use xlink:href="#ma56c9507e2" x="125.983295" y="291.28" style="stroke: #000000; stroke-width: 0.6"/>
      </g>
     </g>
    </g>
    <g id="xtick_12">
     <g id="line2d_14">
      <g>
       <use xlink:href="#ma56c9507e2" x="133.146124" y="291.28" style="stroke: #000000; stroke-width: 0.6"/>
      </g>
     </g>
    </g>
    <g id="xtick_13">
     <g id="line2d_15">
      <g>
       <use xlink:href="#ma56c9507e2" x="139.202209" y="291.28" style="stroke: #000000; stroke-width: 0.6"/>
      </g>
     </g>
    </g>
    <g id="xtick_14">
     <g id="line2d_16">
      <g>
       <use xlink:href="#ma56c9507e2" x="144.448229" y="291.28" style="stroke: #000000; stroke-width: 0.6"/>
      </g>
     </g>
    </g>
    <g id="xtick_15">
     <g id="line2d_17">
      <g>
       <use xlink:href="#ma56c9507e2" x="149.075547" y="291.28" style="stroke: #000000; stroke-width: 0.6"/>
      </g>
     </g>
    </g>
    <g id="xtick_16">
     <g id="line2d_18">
      <g>
       <use xlink:href="#ma56c9507e2" x="180.446351" y="291.28" style="stroke: #000000; stroke-width: 0.6"/>
      </g>
     </g>
    </g>
    <g id="xtick_17">
     <g id="line2d_19">
      <g>
       <use xlink:href="#ma56c9507e2" x="196.375773" y="291.28" style="stroke: #000000; stroke-width: 0.6"/>
      </g>
     </g>
    </g>
    <g id="xtick_18">
     <g id="line2d_20">
      <g>
       <use xlink:href="#ma56c9507e2" x="207.677878" y="291.28" style="stroke: #000000; stroke-width: 0.6"/>
      </g>
     </g>
    </g>
    <g id="xtick_19">
     <g id="line2d_21">
      <g>
       <use xlink:href="#ma56c9507e2" x="216.444472" y="291.28" style="stroke: #000000; stroke-width: 0.6"/>
      </g>
     </g>
    </g>
    <g id="xtick_20">
     <g id="line2d_22">
      <g>
       <use xlink:href="#ma56c9507e2" x="223.607301" y="291.28" style="stroke: #000000; stroke-width: 0.6"/>
      </g>
     </g>
    </g>
    <g id="xtick_21">
     <g id="line2d_23">
      <g>
       <use xlink:href="#ma56c9507e2" x="229.663386" y="291.28" style="stroke: #000000; stroke-width: 0.6"/>
      </g>
     </g>
    </g>
    <g id="xtick_22">
     <g id="line2d_24">
      <g>
       <use xlink:href="#ma56c9507e2" x="234.909406" y="291.28" style="stroke: #000000; stroke-width: 0.6"/>
      </g>
     </g>
    </g>
    <g id="xtick_23">
     <g id="line2d_25">
      <g>
       <use xlink:href="#ma56c9507e2" x="239.536724" y="291.28" style="stroke: #000000; stroke-width: 0.6"/>
      </g>
     </g>
    </g>
    <g id="xtick_24">
     <g id="line2d_26">
      <g>
       <use xlink:href="#ma56c9507e2" x="270.907528" y="291.28" style="stroke: #000000; stroke-width: 0.6"/>
      </g>
     </g>
    </g>
    <g id="xtick_25">
     <g id="line2d_27">
      <g>
       <use xlink:href="#ma56c9507e2" x="286.83695" y="291.28" style="stroke: #000000; stroke-width: 0.6"/>
      </g>
     </g>
    </g>
    <g id="xtick_26">
     <g id="line2d_28">
      <g>
       <use xlink:href="#ma56c9507e2" x="298.139055" y="291.28" style="stroke: #000000; stroke-width: 0.6"/>
      </g>
     </g>
    </g>
    <g id="xtick_27">
     <g id="line2d_29">
      <g>
       <use xlink:href="#ma56c9507e2" x="306.905649" y="291.28" style="stroke: #000000; stroke-width: 0.6"/>
      </g>
     </g>
    </g>
    <g id="xtick_28">
     <g id="line2d_30">
      <g>
       <use xlink:href="#ma56c9507e2" x="314.068478" y="291.28" style="stroke: #000000; stroke-width: 0.6"/>
      </g>
     </g>
    </g>
    <g id="xtick_29">
     <g id="line2d_31">
      <g>
       <use xlink:href="#ma56c9507e2" x="320.124563" y="291.28" style="stroke: #000000; stroke-width: 0.6"/>
      </g>
     </g>
    </g>
    <g id="xtick_30">
     <g id="line2d_32">
      <g>
       <use xlink:href="#ma56c9507e2" x="325.370583" y="291.28" style="stroke: #000000; stroke-width: 0.6"/>
      </g>
     </g>
    </g>
    <g id="xtick_31">
     <g id="line2d_33">
      <g>
       <use xlink:href="#ma56c9507e2" x="329.997901" y="291.28" style="stroke: #000000; stroke-width: 0.6"/>
      </g>
     </g>
    </g>
    <g id="xtick_32">
     <g id="line2d_34">
      <g>
       <use xlink:href="#ma56c9507e2" x="361.368705" y="291.28" style="stroke: #000000; stroke-width: 0.6"/>
      </g>
     </g>
    </g>
    <g id="xtick_33">
     <g id="line2d_35">
      <g>
       <use xlink:href="#ma56c9507e2" x="377.298127" y="291.28" style="stroke: #000000; stroke-width: 0.6"/>
      </g>
     </g>
    </g>
    <g id="xtick_34">
     <g id="line2d_36">
      <g>
       <use xlink:href="#ma56c9507e2" x="388.600232" y="291.28" style="stroke: #000000; stroke-width: 0.6"/>
      </g>
     </g>
    </g>
    <g id="xtick_35">
     <g id="line2d_37">
      <g>
       <use xlink:href="#ma56c9507e2" x="397.366826" y="291.28" style="stroke: #000000; stroke-width: 0.6"/>
      </g>
     </g>
    </g>
    <g id="xtick_36">
     <g id="line2d_38">
      <g>
       <use xlink:href="#ma56c9507e2" x="404.529655" y="291.28" style="stroke: #000000; stroke-width: 0.6"/>
      </g>
     </g>
    </g>
    <g id="xtick_37">
     <g id="line2d_39">
      <g>
       <use xlink:href="#ma56c9507e2" x="410.58574" y="291.28" style="stroke: #000000; stroke-width: 0.6"/>
      </g>
     </g>
    </g>
    <g id="xtick_38">
     <g id="line2d_40">
      <g>
       <use xlink:href="#ma56c9507e2" x="415.83176" y="291.28" style="stroke: #000000; stroke-width: 0.6"/>
      </g>
     </g>
    </g>
    <g id="xtick_39">
     <g id="line2d_41">
      <g>
       <use xlink:href="#ma56c9507e2" x="420.459078" y="291.28" style="stroke: #000000; stroke-width: 0.6"/>
      </g>
     </g>
    </g>
    <g id="xtick_40">
     <g id="line2d_42">
      <g>
       <use xlink:href="#ma56c9507e2" x="451.829882" y="291.28" style="stroke: #000000; stroke-width: 0.6"/>
      </g>
     </g>
    </g>
    <g id="text_3">
     <!-- log10 of FEvals ratio -->
     <g transform="translate(141.371312 336.833125) scale(0.2 -0.2)">
      <defs>
       <path id="DejaVuSans-6c" d="M 603 4863 
L 1178 4863 
L 1178 0 
L 603 0 
L 603 4863 
z
" transform="scale(0.015625)"/>
       <path id="DejaVuSans-6f" d="M 1959 3097 
Q 1497 3097 1228 2736 
Q 959 2375 959 1747 
Q 959 1119 1226 758 
Q 1494 397 1959 397 
Q 2419 397 2687 759 
Q 2956 1122 2956 1747 
Q 2956 2369 2687 2733 
Q 2419 3097 1959 3097 
z
M 1959 3584 
Q 2709 3584 3137 3096 
Q 3566 2609 3566 1747 
Q 3566 888 3137 398 
Q 2709 -91 1959 -91 
Q 1206 -91 779 398 
Q 353 888 353 1747 
Q 353 2609 779 3096 
Q 1206 3584 1959 3584 
z
" transform="scale(0.015625)"/>
       <path id="DejaVuSans-67" d="M 2906 1791 
Q 2906 2416 2648 2759 
Q 2391 3103 1925 3103 
Q 1463 3103 1205 2759 
Q 947 2416 947 1791 
Q 947 1169 1205 825 
Q 1463 481 1925 481 
Q 2391 481 2648 825 
Q 2906 1169 2906 1791 
z
M 3481 434 
Q 3481 -459 3084 -895 
Q 2688 -1331 1869 -1331 
Q 1566 -1331 1297 -1286 
Q 1028 -1241 775 -1147 
L 775 -588 
Q 1028 -725 1275 -790 
Q 1522 -856 1778 -856 
Q 2344 -856 2625 -561 
Q 2906 -266 2906 331 
L 2906 616 
Q 2728 306 2450 153 
Q 2172 0 1784 0 
Q 1141 0 747 490 
Q 353 981 353 1791 
Q 353 2603 747 3093 
Q 1141 3584 1784 3584 
Q 2172 3584 2450 3431 
Q 2728 3278 2906 2969 
L 2906 3500 
L 3481 3500 
L 3481 434 
z
" transform="scale(0.015625)"/>
       <path id="DejaVuSans-30" d="M 2034 4250 
Q 1547 4250 1301 3770 
Q 1056 3291 1056 2328 
Q 1056 1369 1301 889 
Q 1547 409 2034 409 
Q 2525 409 2770 889 
Q 3016 1369 3016 2328 
Q 3016 3291 2770 3770 
Q 2525 4250 2034 4250 
z
M 2034 4750 
Q 2819 4750 3233 4129 
Q 3647 3509 3647 2328 
Q 3647 1150 3233 529 
Q 2819 -91 2034 -91 
Q 1250 -91 836 529 
Q 422 1150 422 2328 
Q 422 3509 836 4129 
Q 1250 4750 2034 4750 
z
" transform="scale(0.015625)"/>
       <path id="DejaVuSans-20" transform="scale(0.015625)"/>
       <path id="DejaVuSans-66" d="M 2375 4863 
L 2375 4384 
L 1825 4384 
Q 1516 4384 1395 4259 
Q 1275 4134 1275 3809 
L 1275 3500 
L 2222 3500 
L 2222 3053 
L 1275 3053 
L 1275 0 
L 697 0 
L 697 3053 
L 147 3053 
L 147 3500 
L 697 3500 
L 697 3744 
Q 697 4328 969 4595 
Q 1241 4863 1831 4863 
L 2375 4863 
z
" transform="scale(0.015625)"/>
       <path id="DejaVuSans-46" d="M 628 4666 
L 3309 4666 
L 3309 4134 
L 1259 4134 
L 1259 2759 
L 3109 2759 
L 3109 2228 
L 1259 2228 
L 1259 0 
L 628 0 
L 628 4666 
z
" transform="scale(0.015625)"/>
       <path id="DejaVuSans-45" d="M 628 4666 
L 3578 4666 
L 3578 4134 
L 1259 4134 
L 1259 2753 
L 3481 2753 
L 3481 2222 
L 1259 2222 
L 1259 531 
L 3634 531 
L 3634 0 
L 628 0 
L 628 4666 
z
" transform="scale(0.015625)"/>
       <path id="DejaVuSans-76" d="M 191 3500 
L 800 3500 
L 1894 563 
L 2988 3500 
L 3597 3500 
L 2284 0 
L 1503 0 
L 191 3500 
z
" transform="scale(0.015625)"/>
       <path id="DejaVuSans-61" d="M 2194 1759 
Q 1497 1759 1228 1600 
Q 959 1441 959 1056 
Q 959 750 1161 570 
Q 1363 391 1709 391 
Q 2188 391 2477 730 
Q 2766 1069 2766 1631 
L 2766 1759 
L 2194 1759 
z
M 3341 1997 
L 3341 0 
L 2766 0 
L 2766 531 
Q 2569 213 2275 61 
Q 1981 -91 1556 -91 
Q 1019 -91 701 211 
Q 384 513 384 1019 
Q 384 1609 779 1909 
Q 1175 2209 1959 2209 
L 2766 2209 
L 2766 2266 
Q 2766 2663 2505 2880 
Q 2244 3097 1772 3097 
Q 1472 3097 1187 3025 
Q 903 2953 641 2809 
L 641 3341 
Q 956 3463 1253 3523 
Q 1550 3584 1831 3584 
Q 2591 3584 2966 3190 
Q 3341 2797 3341 1997 
z
" transform="scale(0.015625)"/>
       <path id="DejaVuSans-73" d="M 2834 3397 
L 2834 2853 
Q 2591 2978 2328 3040 
Q 2066 3103 1784 3103 
Q 1356 3103 1142 2972 
Q 928 2841 928 2578 
Q 928 2378 1081 2264 
Q 1234 2150 1697 2047 
L 1894 2003 
Q 2506 1872 2764 1633 
Q 3022 1394 3022 966 
Q 3022 478 2636 193 
Q 2250 -91 1575 -91 
Q 1294 -91 989 -36 
Q 684 19 347 128 
L 347 722 
Q 666 556 975 473 
Q 1284 391 1588 391 
Q 1994 391 2212 530 
Q 2431 669 2431 922 
Q 2431 1156 2273 1281 
Q 2116 1406 1581 1522 
L 1381 1569 
Q 847 1681 609 1914 
Q 372 2147 372 2553 
Q 372 3047 722 3315 
Q 1072 3584 1716 3584 
Q 2034 3584 2315 3537 
Q 2597 3491 2834 3397 
z
" transform="scale(0.015625)"/>
       <path id="DejaVuSans-72" d="M 2631 2963 
Q 2534 3019 2420 3045 
Q 2306 3072 2169 3072 
Q 1681 3072 1420 2755 
Q 1159 2438 1159 1844 
L 1159 0 
L 581 0 
L 581 3500 
L 1159 3500 
L 1159 2956 
Q 1341 3275 1631 3429 
Q 1922 3584 2338 3584 
Q 2397 3584 2469 3576 
Q 2541 3569 2628 3553 
L 2631 2963 
z
" transform="scale(0.015625)"/>
       <path id="DejaVuSans-74" d="M 1172 4494 
L 1172 3500 
L 2356 3500 
L 2356 3053 
L 1172 3053 
L 1172 1153 
Q 1172 725 1289 603 
Q 1406 481 1766 481 
L 2356 481 
L 2356 0 
L 1766 0 
Q 1100 0 847 248 
Q 594 497 594 1153 
L 594 3053 
L 172 3053 
L 172 3500 
L 594 3500 
L 594 4494 
L 1172 4494 
z
" transform="scale(0.015625)"/>
       <path id="DejaVuSans-69" d="M 603 3500 
L 1178 3500 
L 1178 0 
L 603 0 
L 603 3500 
z
M 603 4863 
L 1178 4863 
L 1178 4134 
L 603 4134 
L 603 4863 
z
" transform="scale(0.015625)"/>
      </defs>
      <use xlink:href="#DejaVuSans-6c"/>
      <use xlink:href="#DejaVuSans-6f" x="27.783203"/>
      <use xlink:href="#DejaVuSans-67" x="88.964844"/>
      <use xlink:href="#DejaVuSans-31" x="152.441406"/>
      <use xlink:href="#DejaVuSans-30" x="216.064453"/>
      <use xlink:href="#DejaVuSans-20" x="279.6875"/>
      <use xlink:href="#DejaVuSans-6f" x="311.474609"/>
      <use xlink:href="#DejaVuSans-66" x="372.65625"/>
      <use xlink:href="#DejaVuSans-20" x="407.861328"/>
      <use xlink:href="#DejaVuSans-46" x="439.648438"/>
      <use xlink:href="#DejaVuSans-45" x="497.167969"/>
      <use xlink:href="#DejaVuSans-76" x="560.351562"/>
      <use xlink:href="#DejaVuSans-61" x="619.53125"/>
      <use xlink:href="#DejaVuSans-6c" x="680.810547"/>
      <use xlink:href="#DejaVuSans-73" x="708.59375"/>
      <use xlink:href="#DejaVuSans-20" x="760.693359"/>
      <use xlink:href="#DejaVuSans-72" x="792.480469"/>
      <use xlink:href="#DejaVuSans-61" x="833.59375"/>
      <use xlink:href="#DejaVuSans-74" x="894.873047"/>
      <use xlink:href="#DejaVuSans-69" x="934.082031"/>
      <use xlink:href="#DejaVuSans-6f" x="961.865234"/>
     </g>
    </g>
   </g>
   <g id="matplotlib.axis_2">
    <g id="ytick_1">
     <g id="line2d_43">
      <path d="M 34.16 288.453725 
L 453.192 288.453725 
" clip-path="url(#pdb003a3c81)" style="fill: none; stroke: #b0b0b0; stroke-width: 0.8; stroke-linecap: square"/>
     </g>
     <g id="line2d_44">
      <defs>
       <path id="m86f0885476" d="M 0 0 
L -3.5 0 
" style="stroke: #000000; stroke-width: 0.8"/>
      </defs>
      <g>
       <use xlink:href="#m86f0885476" x="34.16" y="288.453725" style="stroke: #000000; stroke-width: 0.8"/>
      </g>
     </g>
    </g>
    <g id="ytick_2">
     <g id="line2d_45">
      <path d="M 34.16 217.796863 
L 453.192 217.796863 
" clip-path="url(#pdb003a3c81)" style="fill: none; stroke: #b0b0b0; stroke-width: 0.8; stroke-linecap: square"/>
     </g>
     <g id="line2d_46">
      <g>
       <use xlink:href="#m86f0885476" x="34.16" y="217.796863" style="stroke: #000000; stroke-width: 0.8"/>
      </g>
     </g>
    </g>
    <g id="ytick_3">
     <g id="line2d_47">
      <path d="M 34.16 147.14 
L 453.192 147.14 
" clip-path="url(#pdb003a3c81)" style="fill: none; stroke: #b0b0b0; stroke-width: 0.8; stroke-linecap: square"/>
     </g>
     <g id="line2d_48">
      <g>
       <use xlink:href="#m86f0885476" x="34.16" y="147.14" style="stroke: #000000; stroke-width: 0.8"/>
      </g>
     </g>
    </g>
    <g id="ytick_4">
     <g id="line2d_49">
      <path d="M 34.16 76.483137 
L 453.192 76.483137 
" clip-path="url(#pdb003a3c81)" style="fill: none; stroke: #b0b0b0; stroke-width: 0.8; stroke-linecap: square"/>
     </g>
     <g id="line2d_50">
      <g>
       <use xlink:href="#m86f0885476" x="34.16" y="76.483137" style="stroke: #000000; stroke-width: 0.8"/>
      </g>
     </g>
    </g>
    <g id="ytick_5">
     <g id="line2d_51">
      <path d="M 34.16 5.826275 
L 453.192 5.826275 
" clip-path="url(#pdb003a3c81)" style="fill: none; stroke: #b0b0b0; stroke-width: 0.8; stroke-linecap: square"/>
     </g>
     <g id="line2d_52">
      <g>
       <use xlink:href="#m86f0885476" x="34.16" y="5.826275" style="stroke: #000000; stroke-width: 0.8"/>
      </g>
     </g>
    </g>
    <g id="text_4">
     <!-- proportion of trials -->
     <g transform="translate(19.000625 240.14625) rotate(-90) scale(0.2 -0.2)">
      <defs>
       <path id="DejaVuSans-70" d="M 1159 525 
L 1159 -1331 
L 581 -1331 
L 581 3500 
L 1159 3500 
L 1159 2969 
Q 1341 3281 1617 3432 
Q 1894 3584 2278 3584 
Q 2916 3584 3314 3078 
Q 3713 2572 3713 1747 
Q 3713 922 3314 415 
Q 2916 -91 2278 -91 
Q 1894 -91 1617 61 
Q 1341 213 1159 525 
z
M 3116 1747 
Q 3116 2381 2855 2742 
Q 2594 3103 2138 3103 
Q 1681 3103 1420 2742 
Q 1159 2381 1159 1747 
Q 1159 1113 1420 752 
Q 1681 391 2138 391 
Q 2594 391 2855 752 
Q 3116 1113 3116 1747 
z
" transform="scale(0.015625)"/>
       <path id="DejaVuSans-6e" d="M 3513 2113 
L 3513 0 
L 2938 0 
L 2938 2094 
Q 2938 2591 2744 2837 
Q 2550 3084 2163 3084 
Q 1697 3084 1428 2787 
Q 1159 2491 1159 1978 
L 1159 0 
L 581 0 
L 581 3500 
L 1159 3500 
L 1159 2956 
Q 1366 3272 1645 3428 
Q 1925 3584 2291 3584 
Q 2894 3584 3203 3211 
Q 3513 2838 3513 2113 
z
" transform="scale(0.015625)"/>
      </defs>
      <use xlink:href="#DejaVuSans-70"/>
      <use xlink:href="#DejaVuSans-72" x="63.476562"/>
      <use xlink:href="#DejaVuSans-6f" x="102.339844"/>
      <use xlink:href="#DejaVuSans-70" x="163.521484"/>
      <use xlink:href="#DejaVuSans-6f" x="226.998047"/>
      <use xlink:href="#DejaVuSans-72" x="288.179688"/>
      <use xlink:href="#DejaVuSans-74" x="329.292969"/>
      <use xlink:href="#DejaVuSans-69" x="368.501953"/>
      <use xlink:href="#DejaVuSans-6f" x="396.285156"/>
      <use xlink:href="#DejaVuSans-6e" x="457.466797"/>
      <use xlink:href="#DejaVuSans-20" x="520.845703"/>
      <use xlink:href="#DejaVuSans-6f" x="552.632812"/>
      <use xlink:href="#DejaVuSans-66" x="613.814453"/>
      <use xlink:href="#DejaVuSans-20" x="649.019531"/>
      <use xlink:href="#DejaVuSans-74" x="680.806641"/>
      <use xlink:href="#DejaVuSans-72" x="720.015625"/>
      <use xlink:href="#DejaVuSans-69" x="761.128906"/>
      <use xlink:href="#DejaVuSans-61" x="788.912109"/>
      <use xlink:href="#DejaVuSans-6c" x="850.191406"/>
      <use xlink:href="#DejaVuSans-73" x="877.974609"/>
     </g>
    </g>
   </g>
   <g id="line2d_53">
    <path d="M 34.16 264.141687 
L 62.880614 264.141687 
L 62.880614 263.804019 
L 66.173823 263.804019 
L 66.173823 263.466352 
L 68.463861 263.466352 
L 68.463861 263.128685 
L 77.12959 263.128685 
L 77.12959 262.791018 
L 81.820445 262.791018 
L 81.820445 262.453351 
L 85.686906 262.453351 
L 85.686906 262.115683 
L 87.923451 262.115683 
L 87.923451 261.778016 
L 90.593014 261.778016 
L 90.593014 261.440349 
L 98.19547 261.440349 
L 98.19547 261.102682 
L 102.428763 261.102682 
L 102.428763 260.765015 
L 105.721972 260.765015 
L 105.721972 260.427347 
L 108.01201 260.427347 
L 108.01201 260.08968 
L 112.069992 260.08968 
L 112.069992 259.752013 
L 116.677739 259.752013 
L 116.677739 259.414346 
L 121.368594 259.414346 
L 121.368594 259.076679 
L 125.235055 259.076679 
L 125.235055 258.739011 
L 127.471599 258.739011 
L 127.471599 258.401344 
L 129.93046 258.401344 
L 129.93046 258.063677 
L 130.141163 258.063677 
L 130.141163 257.72601 
L 133.294141 257.72601 
L 133.322733 257.050675 
L 133.592269 257.050675 
L 133.592269 256.713008 
L 134.749889 256.713008 
L 134.749889 256.375341 
L 136.95595 256.375341 
L 136.984542 255.700007 
L 137.743618 255.700007 
L 137.743618 255.362339 
L 138.411698 255.362339 
L 138.411698 255.024672 
L 143.317034 255.024672 
L 143.317034 254.687005 
L 144.177455 254.687005 
L 144.177455 254.349338 
L 146.597621 254.349338 
L 146.680715 253.674003 
L 146.709307 253.674003 
L 146.709307 253.336336 
L 148.136463 253.336336 
L 148.136463 252.998669 
L 151.618141 252.998669 
L 151.618141 252.661002 
L 153.722167 252.661002 
L 153.722167 252.323335 
L 165.585273 252.323335 
L 165.585273 251.985667 
L 166.323246 251.985667 
L 166.323246 251.648 
L 168.005439 251.648 
L 168.005439 251.310333 
L 168.308498 251.310333 
L 168.308498 250.972666 
L 168.743412 250.972666 
L 168.743412 250.634998 
L 170.728663 250.634998 
L 170.728663 250.297331 
L 180.429236 250.297331 
L 180.429236 249.959664 
L 183.792917 249.959664 
L 183.821509 249.28433 
L 185.248665 249.28433 
L 185.248665 248.946662 
L 188.711864 248.946662 
L 188.711864 248.608995 
L 191.13203 248.608995 
L 191.13203 248.271328 
L 193.270316 248.271328 
L 193.270316 247.933661 
L 195.100054 247.933661 
L 195.100054 247.595994 
L 198.393264 247.595994 
L 198.393264 247.258326 
L 200.683302 247.258326 
L 200.683302 246.920659 
L 204.607763 246.920659 
L 204.607763 246.582992 
L 205.662129 246.582992 
L 205.662129 246.245325 
L 206.972941 246.245325 
L 206.972941 245.907658 
L 207.900973 245.907658 
L 207.900973 245.56999 
L 209.02581 245.56999 
L 209.054402 244.894656 
L 209.349031 244.894656 
L 209.393107 244.219322 
L 210.191011 244.219322 
L 210.191011 243.881654 
L 210.481558 243.881654 
L 210.481558 243.543987 
L 213.983117 243.543987 
L 214.039886 242.868653 
L 216.155243 242.868653 
L 216.155243 242.530986 
L 217.276327 242.530986 
L 217.276327 242.193318 
L 217.906347 242.193318 
L 217.906347 241.855651 
L 218.85674 241.855651 
L 218.85674 241.517984 
L 219.448453 241.517984 
L 219.448453 241.180317 
L 219.566364 241.180317 
L 219.667269 240.504982 
L 220.142891 240.504982 
L 220.142891 240.167315 
L 220.364658 240.167315 
L 220.364658 239.829648 
L 221.738491 239.829648 
L 221.738491 239.491981 
L 222.303828 239.491981 
L 222.345249 238.816646 
L 222.687391 238.816646 
L 222.687391 238.478979 
L 222.812247 238.478979 
L 222.812454 237.803645 
L 223.547595 237.803645 
L 223.547595 237.465977 
L 224.124227 237.465977 
L 224.124227 237.12831 
L 226.011431 237.12831 
L 226.105456 236.452976 
L 226.948362 236.452976 
L 226.948362 236.115309 
L 227.414055 236.115309 
L 227.414055 235.777641 
L 228.044884 235.777641 
L 228.057765 235.102307 
L 228.232094 235.102307 
L 228.232094 234.76464 
L 228.395494 234.76464 
L 228.395494 234.426973 
L 229.304641 234.426973 
L 229.304641 234.089305 
L 229.566466 234.089305 
L 229.6506 233.413971 
L 230.055052 233.413971 
L 230.055052 233.076304 
L 230.241572 233.076304 
L 230.241572 232.738637 
L 230.40422 232.738637 
L 230.41491 232.063302 
L 231.408565 232.063302 
L 231.437157 231.387968 
L 231.594679 231.387968 
L 231.594679 231.050301 
L 232.320163 231.050301 
L 232.320163 230.712633 
L 232.492719 230.712633 
L 232.53161 230.037299 
L 232.750804 230.037299 
L 232.750804 229.699632 
L 232.864313 229.699632 
L 232.922949 229.024297 
L 235.095075 229.024297 
L 235.095075 228.68663 
L 236.048233 228.68663 
L 236.154528 227.335961 
L 236.789409 227.335961 
L 236.853319 226.660627 
L 237.061223 226.660627 
L 237.061223 226.32296 
L 237.221061 226.32296 
L 237.221061 225.985292 
L 237.570233 225.985292 
L 237.570233 225.647625 
L 238.961536 225.647625 
L 239.025954 224.634624 
L 239.341443 224.634624 
L 239.341443 224.296956 
L 239.922619 224.296956 
L 239.922619 223.959289 
L 240.146528 223.959289 
L 240.146528 223.621622 
L 240.260408 223.621622 
L 240.260408 223.283955 
L 240.51427 223.283955 
L 240.51427 222.946288 
L 240.785277 222.946288 
L 240.785277 222.60862 
L 241.010675 222.60862 
L 241.075087 221.933286 
L 241.197339 221.933286 
L 241.19808 221.257952 
L 241.631481 221.257952 
L 241.695517 220.582617 
L 241.752078 220.582617 
L 241.841813 219.231948 
L 242.383692 219.231948 
L 242.436566 218.218947 
L 242.510449 218.218947 
L 242.510449 217.88128 
L 242.804308 217.88128 
L 242.804308 217.543612 
L 242.919872 217.543612 
L 242.956881 216.868278 
L 243.753067 216.868278 
L 243.83944 215.855276 
L 243.867643 215.855276 
L 243.867643 215.517609 
L 244.078486 215.517609 
L 244.095209 214.842275 
L 244.289433 214.842275 
L 244.303884 214.16694 
L 244.49104 214.16694 
L 244.495701 213.491606 
L 244.833181 213.491606 
L 244.833181 213.153939 
L 244.951263 213.153939 
L 244.951263 212.816271 
L 245.503622 212.816271 
L 245.503622 212.478604 
L 245.618539 212.478604 
L 245.618539 212.140937 
L 245.879293 212.140937 
L 245.888194 211.465603 
L 246.25009 211.465603 
L 246.25009 211.127935 
L 246.368524 211.127935 
L 246.476291 210.452601 
L 246.581681 210.452601 
L 246.593922 209.777267 
L 246.818433 209.777267 
L 246.818433 209.439599 
L 247.327688 209.439599 
L 247.327688 209.101932 
L 247.855084 209.101932 
L 247.855084 208.764265 
L 248.540128 208.764265 
L 248.540128 208.426598 
L 248.817724 208.426598 
L 248.874885 207.751263 
L 249.297973 207.751263 
L 249.297973 207.413596 
L 249.465583 207.413596 
L 249.465583 207.075929 
L 249.754655 207.075929 
L 249.80437 206.400595 
L 250.203555 206.400595 
L 250.29721 205.72526 
L 250.524647 205.72526 
L 250.524647 205.387593 
L 250.989497 205.387593 
L 251.054268 204.712259 
L 251.102295 204.712259 
L 251.102295 204.374591 
L 251.462871 204.374591 
L 251.470099 203.36159 
L 251.991199 203.36159 
L 251.991199 203.023923 
L 252.188807 203.023923 
L 252.200843 202.348588 
L 252.536694 202.348588 
L 252.536694 202.010921 
L 253.150483 202.010921 
L 253.150483 201.673254 
L 253.466179 201.673254 
L 253.466179 201.335586 
L 253.723831 201.335586 
L 253.797142 200.660252 
L 254.186095 200.660252 
L 254.186095 200.322585 
L 254.350377 200.322585 
L 254.350377 199.984918 
L 254.529477 199.984918 
L 254.529477 199.64725 
L 254.660763 199.64725 
L 254.660763 199.309583 
L 254.988065 199.309583 
L 255.034253 198.634249 
L 255.228387 198.634249 
L 255.259651 197.958914 
L 255.79315 197.958914 
L 255.79315 197.621247 
L 256.160892 197.621247 
L 256.160892 197.28358 
L 256.306446 197.28358 
L 256.326982 196.270578 
L 256.812292 196.270578 
L 256.812292 195.932911 
L 257.205857 195.932911 
L 257.205857 195.595244 
L 258.012185 195.595244 
L 258.012185 195.257577 
L 258.127103 195.257577 
L 258.127103 194.91991 
L 258.758318 194.91991 
L 258.854526 194.244575 
L 259.430425 194.244575 
L 259.430425 193.906908 
L 259.659611 193.906908 
L 259.725108 191.880905 
L 259.950506 191.880905 
L 260.027353 191.20557 
L 260.714262 191.20557 
L 260.714262 190.867903 
L 261.09107 190.867903 
L 261.146411 189.854901 
L 261.238015 189.854901 
L 261.326287 189.179567 
L 261.851977 189.179567 
L 261.896712 188.166565 
L 262.261459 188.166565 
L 262.263897 187.153564 
L 262.405939 187.153564 
L 262.420127 186.478229 
L 263.092234 186.478229 
L 263.190944 185.465228 
L 263.591569 185.465228 
L 263.672376 184.789893 
L 263.760634 184.789893 
L 263.816967 184.114559 
L 264.201678 184.114559 
L 264.201678 183.776892 
L 264.565719 183.776892 
L 264.630288 182.76389 
L 264.899068 182.76389 
L 264.933461 182.088556 
L 265.344622 182.088556 
L 265.344622 181.750889 
L 265.763173 181.750889 
L 265.828113 181.075554 
L 266.053512 181.075554 
L 266.067747 180.062553 
L 266.537057 180.062553 
L 266.537057 179.724885 
L 266.879658 179.724885 
L 266.879658 179.387218 
L 267.2218 179.387218 
L 267.2218 179.049551 
L 267.736951 179.049551 
L 267.736951 178.711884 
L 267.999717 178.711884 
L 267.999717 178.374217 
L 268.497677 178.374217 
L 268.497677 178.036549 
L 268.723075 178.036549 
L 268.829288 177.361215 
L 269.114614 177.361215 
L 269.114614 177.023548 
L 270.669281 177.023548 
L 270.669281 176.68588 
L 271.363089 176.68588 
L 271.363089 176.348213 
L 272.001625 176.348213 
L 272.001625 176.010546 
L 272.144892 176.010546 
L 272.221561 174.659877 
L 272.535916 174.659877 
L 272.592174 173.984543 
L 272.816999 173.984543 
L 272.816999 173.646876 
L 273.648717 173.646876 
L 273.648717 173.309208 
L 274.589462 173.309208 
L 274.589462 172.971541 
L 275.20081 172.971541 
L 275.20081 172.633874 
L 275.792513 172.633874 
L 275.792513 172.296207 
L 276.100132 172.296207 
L 276.137741 171.620872 
L 276.325531 171.620872 
L 276.325531 171.283205 
L 278.271736 171.283205 
L 278.271736 170.945538 
L 282.462755 170.945538 
L 282.462755 170.607871 
L 282.991495 170.607871 
L 282.991495 170.270204 
L 283.160144 170.270204 
L 283.160144 169.932536 
L 285.140735 169.932536 
L 285.237612 169.257202 
L 285.482876 169.257202 
L 285.482876 168.919535 
L 285.941608 168.919535 
L 286.042697 168.2442 
L 286.410439 168.2442 
L 286.410439 167.906533 
L 288.246036 167.906533 
L 288.246036 167.568866 
L 289.974655 167.568866 
L 289.974655 167.231199 
L 290.200053 167.231199 
L 290.200053 166.893532 
L 290.853251 166.893532 
L 290.853251 166.555864 
L 291.028263 166.555864 
L 291.028263 166.218197 
L 291.609716 166.218197 
L 291.638309 165.542863 
L 292.028444 165.542863 
L 292.028444 165.205195 
L 292.146259 165.205195 
L 292.146259 164.867528 
L 292.340589 164.867528 
L 292.371442 164.192194 
L 292.850538 164.192194 
L 292.850538 163.854527 
L 293.065465 163.854527 
L 293.065465 163.516859 
L 293.371623 163.516859 
L 293.418648 162.841525 
L 294.077625 162.841525 
L 294.077625 162.503858 
L 294.342331 162.503858 
L 294.342331 162.166191 
L 294.893181 162.166191 
L 294.893181 161.828523 
L 295.449316 161.828523 
L 295.536564 161.153189 
L 295.68551 161.153189 
L 295.68551 160.815522 
L 296.23636 160.815522 
L 296.23636 160.477855 
L 296.407894 160.477855 
L 296.407894 160.140187 
L 296.871728 160.140187 
L 296.871728 159.80252 
L 297.240273 159.80252 
L 297.240273 159.464853 
L 297.751073 159.464853 
L 297.826464 158.451851 
L 298.583451 158.451851 
L 298.583451 158.114184 
L 298.900245 158.114184 
L 298.928837 157.43885 
L 299.079358 157.43885 
L 299.134111 156.763515 
L 299.373661 156.763515 
L 299.373661 156.425848 
L 300.079538 156.425848 
L 300.079538 156.088181 
L 300.232711 156.088181 
L 300.303146 154.399845 
L 300.355993 154.399845 
L 300.460329 153.724511 
L 301.575889 153.724511 
L 301.598592 153.049176 
L 301.691157 153.049176 
L 301.691157 152.711509 
L 301.803508 152.711509 
L 301.803508 152.373842 
L 302.393425 152.373842 
L 302.393425 152.036174 
L 302.7153 152.036174 
L 302.7153 151.698507 
L 302.944276 151.698507 
L 302.944276 151.36084 
L 303.372168 151.36084 
L 303.372168 151.023173 
L 303.649259 151.023173 
L 303.649259 150.685506 
L 304.058479 150.685506 
L 304.058479 150.347838 
L 304.372348 150.347838 
L 304.458989 149.672504 
L 304.82467 149.672504 
L 304.849153 148.99717 
L 305.004982 148.99717 
L 305.004982 148.659502 
L 305.291367 148.659502 
L 305.291367 148.321835 
L 305.842026 148.321835 
L 305.842026 147.984168 
L 306.017384 147.984168 
L 306.017384 147.646501 
L 306.307714 147.646501 
L 306.348161 146.971166 
L 306.686235 146.971166 
L 306.686235 146.633499 
L 306.948709 146.633499 
L 306.996796 145.958165 
L 307.237085 145.958165 
L 307.237085 145.620498 
L 307.360562 145.620498 
L 307.394577 144.945163 
L 307.650893 144.945163 
L 307.650893 144.607496 
L 307.989443 144.607496 
L 307.989443 144.269829 
L 308.224388 144.269829 
L 308.306508 142.91916 
L 308.394757 142.91916 
L 308.394757 142.581493 
L 308.511423 142.581493 
L 308.511423 142.243826 
L 308.751798 142.243826 
L 308.751798 141.906158 
L 308.989623 141.906158 
L 308.989623 141.568491 
L 309.257094 141.568491 
L 309.257094 141.230824 
L 309.584177 141.230824 
L 309.584177 140.893157 
L 309.929202 140.893157 
L 309.929202 140.555489 
L 310.134836 140.555489 
L 310.134836 140.217822 
L 310.708644 140.217822 
L 310.766395 139.542488 
L 310.858464 139.542488 
L 310.858464 139.204821 
L 311.259495 139.204821 
L 311.30351 138.529486 
L 311.854361 138.529486 
L 311.896773 137.516485 
L 312.576615 137.516485 
L 312.599317 136.84115 
L 312.774208 136.84115 
L 312.804233 136.165816 
L 312.896953 136.165816 
L 312.904715 135.490481 
L 313.056077 135.490481 
L 313.056077 135.152814 
L 313.369074 135.152814 
L 313.369074 134.815147 
L 313.606586 134.815147 
L 313.6538 134.139813 
L 314.068478 134.139813 
L 314.172532 133.126811 
L 314.201452 133.126811 
L 314.201452 132.789144 
L 314.358808 132.789144 
L 314.358808 132.451477 
L 314.723382 132.451477 
L 314.752111 131.776142 
L 314.999803 131.776142 
L 315.059205 131.100808 
L 315.21084 131.100808 
L 315.21084 130.763141 
L 315.761691 130.763141 
L 315.761691 130.425473 
L 316.238095 130.425473 
L 316.238095 130.087806 
L 316.599024 130.087806 
L 316.621727 129.412472 
L 316.826642 129.412472 
L 316.852984 128.737137 
L 317.070474 128.737137 
L 317.070474 128.39947 
L 317.19389 128.39947 
L 317.276404 127.386468 
L 317.348886 127.386468 
L 317.421508 126.711134 
L 317.573482 126.711134 
L 317.621133 126.0358 
L 317.789916 126.0358 
L 317.789916 125.698132 
L 318.108782 125.698132 
L 318.108782 125.360465 
L 318.361288 125.360465 
L 318.361288 125.022798 
L 318.651541 125.022798 
L 318.659441 124.009796 
L 319.081614 124.009796 
L 319.081614 123.672129 
L 319.292613 123.672129 
L 319.360482 122.996795 
L 319.67648 122.996795 
L 319.67648 122.659128 
L 320.062912 122.659128 
L 320.085614 121.983793 
L 320.29053 121.983793 
L 320.360663 121.308459 
L 321.10122 121.308459 
L 321.123923 120.633124 
L 321.328838 120.633124 
L 321.371296 119.95779 
L 321.966162 119.95779 
L 321.966162 119.620123 
L 322.383697 119.620123 
L 322.383697 119.282456 
L 322.545501 119.282456 
L 322.545501 118.944788 
L 322.674028 118.944788 
L 322.67455 118.269454 
L 322.978563 118.269454 
L 323.059358 117.59412 
L 323.2254 117.59412 
L 323.315023 116.581118 
L 323.58381 116.581118 
L 323.58381 116.243451 
L 323.909888 116.243451 
L 323.909888 115.905783 
L 324.606554 115.905783 
L 324.606554 115.568116 
L 324.740113 115.568116 
L 324.835183 114.892782 
L 325.536039 114.892782 
L 325.572491 114.217447 
L 325.847585 114.217447 
L 325.873491 113.542113 
L 326.123151 113.542113 
L 326.137915 112.866779 
L 326.77891 112.866779 
L 326.889787 111.853777 
L 327.176223 111.853777 
L 327.176223 111.51611 
L 327.694872 111.51611 
L 327.694872 111.178443 
L 327.817218 111.178443 
L 327.817218 110.840775 
L 328.062614 110.840775 
L 328.062614 110.503108 
L 328.564929 110.503108 
L 328.587632 109.827774 
L 328.792548 109.827774 
L 328.882152 109.152439 
L 330.031802 109.152439 
L 330.082046 108.477105 
L 330.607143 108.477105 
L 330.607143 108.139438 
L 331.031983 108.139438 
L 331.047519 107.464103 
L 331.62683 107.464103 
L 331.62683 107.126436 
L 331.852228 107.126436 
L 331.852228 106.788769 
L 333.337201 106.788769 
L 333.34587 106.113435 
L 333.467139 106.113435 
L 333.467139 105.775767 
L 333.798434 105.775767 
L 333.89672 105.100433 
L 334.349602 105.100433 
L 334.349602 104.762766 
L 334.46732 104.762766 
L 334.489987 104.087431 
L 334.639933 104.087431 
L 334.639933 103.749764 
L 335.162095 103.749764 
L 335.162095 103.412097 
L 335.280928 103.412097 
L 335.313063 102.736762 
L 335.411433 102.736762 
L 335.411433 102.399095 
L 336.243811 102.399095 
L 336.243811 102.061428 
L 336.654729 102.061428 
L 336.654729 101.723761 
L 336.781207 101.723761 
L 336.794471 101.048426 
L 337.332057 101.048426 
L 337.332057 100.710759 
L 337.654909 100.710759 
L 337.654909 100.373092 
L 338.137608 100.373092 
L 338.137608 100.035425 
L 338.84677 100.035425 
L 338.84677 99.697758 
L 339.236249 99.697758 
L 339.258952 99.022423 
L 339.463868 99.022423 
L 339.463868 98.684756 
L 339.679149 98.684756 
L 339.679149 98.347089 
L 339.956237 98.347089 
L 339.968796 97.671754 
L 340.229808 97.671754 
L 340.229808 97.334087 
L 340.519647 97.334087 
L 340.519647 96.99642 
L 341.034296 96.99642 
L 341.034296 96.658753 
L 341.58227 96.658753 
L 341.58227 96.321086 
L 341.718839 96.321086 
L 341.718839 95.983418 
L 342.03436 95.983418 
L 342.03436 95.645751 
L 342.671587 95.645751 
L 342.694289 94.970417 
L 342.866738 94.970417 
L 342.899205 94.295082 
L 343.417397 94.295082 
L 343.417397 93.957415 
L 344.008521 93.957415 
L 344.008521 93.619748 
L 344.662157 93.619748 
L 344.662157 93.282081 
L 345.020922 93.282081 
L 345.020922 92.944414 
L 345.154176 92.944414 
L 345.154176 92.606746 
L 345.311253 92.606746 
L 345.311253 92.269079 
L 345.442113 92.269079 
L 345.442113 91.931412 
L 345.60815 91.931412 
L 345.60815 91.593745 
L 345.740216 91.593745 
L 345.740216 91.256077 
L 345.859176 91.256077 
L 345.952248 90.243076 
L 346.086794 90.243076 
L 346.086794 89.905409 
L 346.608331 89.905409 
L 346.608331 89.567741 
L 346.989309 89.567741 
L 346.989309 89.230074 
L 347.443858 89.230074 
L 347.443858 88.892407 
L 347.918794 88.892407 
L 347.918794 88.55474 
L 348.341766 88.55474 
L 348.341766 88.217073 
L 348.45626 88.217073 
L 348.45626 87.879405 
L 348.74659 87.879405 
L 348.74659 87.541738 
L 348.922218 87.541738 
L 348.922218 87.204071 
L 349.387585 87.204071 
L 349.473068 86.528737 
L 349.530273 86.528737 
L 349.530273 86.191069 
L 350.148032 86.191069 
L 350.148032 85.853402 
L 350.530454 85.853402 
L 350.631448 85.178068 
L 350.931365 85.178068 
L 350.987781 84.502733 
L 351.264907 84.502733 
L 351.264907 84.165066 
L 351.643849 84.165066 
L 351.695229 83.489732 
L 351.820159 83.489732 
L 351.820159 83.152065 
L 351.934179 83.152065 
L 352.009423 82.47673 
L 352.370819 82.47673 
L 352.464801 81.801396 
L 352.575174 81.801396 
L 352.624714 81.126061 
L 352.844341 81.126061 
L 352.844341 80.788394 
L 353.395191 80.788394 
L 353.395191 80.450727 
L 354.523269 80.450727 
L 354.523269 80.11306 
L 354.812597 80.11306 
L 354.909904 79.100058 
L 355.040216 79.100058 
L 355.040216 78.762391 
L 355.742283 78.762391 
L 355.742283 78.424724 
L 355.970827 78.424724 
L 355.970827 78.087056 
L 356.292942 78.087056 
L 356.343668 77.411722 
L 356.41724 77.411722 
L 356.41724 77.074055 
L 356.872742 77.074055 
L 356.872742 76.736388 
L 357.17072 76.736388 
L 357.17072 76.39872 
L 357.295187 76.39872 
L 357.295187 76.061053 
L 357.54485 76.061053 
L 357.54485 75.723386 
L 357.964436 75.723386 
L 357.964436 75.385719 
L 358.734721 75.385719 
L 358.757423 74.710384 
L 358.8818 74.710384 
L 358.962339 73.359716 
L 359.584869 73.359716 
L 359.584869 73.022048 
L 360.520363 73.022048 
L 360.59727 72.346714 
L 360.887601 72.346714 
L 360.887601 72.009047 
L 361.21731 72.009047 
L 361.21731 71.67138 
L 361.528596 71.67138 
L 361.578662 70.996045 
L 361.785906 70.996045 
L 361.785906 70.658378 
L 362.240034 70.658378 
L 362.250769 69.983044 
L 363.439928 69.983044 
L 363.506992 69.307709 
L 363.800274 69.307709 
L 363.800274 68.970042 
L 364.030977 68.970042 
L 364.030977 68.632375 
L 364.519394 68.632375 
L 364.519394 68.294708 
L 364.809724 68.294708 
L 364.809724 67.95704 
L 365.226282 67.95704 
L 365.226282 67.619373 
L 365.450719 67.619373 
L 365.450719 67.281706 
L 365.851376 67.281706 
L 365.851376 66.944039 
L 367.125591 66.944039 
L 367.125591 66.606371 
L 367.847869 66.606371 
L 367.847869 66.268704 
L 368.125772 66.268704 
L 368.230894 65.59337 
L 368.238335 65.59337 
L 368.238335 65.255703 
L 368.519977 65.255703 
L 368.519977 64.918035 
L 369.308953 64.918035 
L 369.316394 64.242701 
L 370.439659 64.242701 
L 370.439659 63.905034 
L 370.990509 63.905034 
L 370.990509 63.567367 
L 371.293615 63.567367 
L 371.391547 62.892032 
L 371.49549 62.892032 
L 371.49549 62.554365 
L 372.505222 62.554365 
L 372.505222 62.216698 
L 373.149368 62.216698 
L 373.149368 61.879031 
L 373.337601 61.879031 
L 373.406331 61.203696 
L 373.716769 61.203696 
L 373.72421 60.528362 
L 373.88826 60.528362 
L 373.88826 60.190695 
L 374.227427 60.190695 
L 374.227427 59.853027 
L 375.22673 59.853027 
L 375.271407 58.840026 
L 375.578458 58.840026 
L 375.578458 58.502359 
L 376.193451 58.502359 
L 376.200892 57.827024 
L 376.330039 57.827024 
L 376.352741 57.15169 
L 376.557657 57.15169 
L 376.557657 56.814023 
L 377.398857 56.814023 
L 377.398857 56.476355 
L 378.635243 56.476355 
L 378.635243 56.138688 
L 378.812628 56.138688 
L 378.812628 55.801021 
L 379.539564 55.801021 
L 379.547005 55.125687 
L 380.18244 55.125687 
L 380.18244 54.788019 
L 380.668969 54.788019 
L 380.746898 53.43735 
L 381.10231 53.43735 
L 381.111925 52.762016 
L 381.8187 52.762016 
L 381.8187 52.424349 
L 382.114712 52.424349 
L 382.114712 52.086682 
L 382.235461 52.086682 
L 382.235461 51.749014 
L 382.405042 51.749014 
L 382.405042 51.411347 
L 382.841095 51.411347 
L 382.841095 51.07368 
L 383.046037 51.07368 
L 383.046037 50.736013 
L 384.05586 50.736013 
L 384.05586 50.398346 
L 384.458038 50.398346 
L 384.458038 50.060678 
L 385.147399 50.060678 
L 385.154839 49.385344 
L 385.434646 49.385344 
L 385.434646 49.047677 
L 385.657931 49.047677 
L 385.657931 48.71001 
L 385.819506 48.71001 
L 385.826947 48.034675 
L 386.226516 48.034675 
L 386.226516 47.697008 
L 386.371577 47.697008 
L 386.371577 47.359341 
L 386.748917 47.359341 
L 386.748917 47.021674 
L 387.255045 47.021674 
L 387.255045 46.684006 
L 387.773713 46.684006 
L 387.773713 46.346339 
L 388.191976 46.346339 
L 388.191976 46.008672 
L 388.703198 46.008672 
L 388.80246 44.99567 
L 389.498099 44.99567 
L 389.498099 44.658003 
L 390.065873 44.658003 
L 390.065873 44.320336 
L 390.73798 44.320336 
L 390.808295 43.645002 
L 392.049311 43.645002 
L 392.049311 43.307334 
L 392.697283 43.307334 
L 392.697283 42.969667 
L 393.249204 42.969667 
L 393.249204 42.632 
L 393.634214 42.632 
L 393.713493 41.956665 
L 395.471448 41.956665 
L 395.471448 41.618998 
L 396.256626 41.618998 
L 396.276533 40.943664 
L 396.644275 40.943664 
L 396.644275 40.605997 
L 397.291847 40.605997 
L 397.291847 40.268329 
L 397.657146 40.268329 
L 397.657146 39.930662 
L 398.096932 39.930662 
L 398.098823 39.255328 
L 398.329253 39.255328 
L 398.329253 38.917661 
L 398.464674 38.917661 
L 398.464674 38.579993 
L 399.433987 38.579993 
L 399.433987 38.242326 
L 400.157389 38.242326 
L 400.208491 37.566992 
L 400.433889 37.566992 
L 400.433889 37.229325 
L 401.235448 37.229325 
L 401.304766 36.55399 
L 402.02889 36.55399 
L 402.02889 36.216323 
L 402.254288 36.216323 
L 402.254288 35.878656 
L 402.380095 35.878656 
L 402.380095 35.540989 
L 402.734085 35.540989 
L 402.734085 35.203321 
L 403.539171 35.203321 
L 403.539171 34.865654 
L 403.906912 34.865654 
L 403.906912 34.527987 
L 404.200494 34.527987 
L 404.200494 34.19032 
L 405.63198 34.19032 
L 405.643264 33.514985 
L 407.190461 33.514985 
L 407.190461 33.177318 
L 407.447917 33.177318 
L 407.471128 32.501984 
L 407.696527 32.501984 
L 407.804106 31.826649 
L 408.119946 31.826649 
L 408.119946 31.488982 
L 408.525976 31.488982 
L 408.525976 31.151315 
L 408.783081 31.151315 
L 408.783081 30.813648 
L 409.642732 30.813648 
L 409.642732 30.475981 
L 409.86114 30.475981 
L 409.86114 30.138313 
L 411.466059 30.138313 
L 411.466059 29.800646 
L 412.665952 29.800646 
L 412.665952 29.462979 
L 412.933793 29.462979 
L 412.933793 29.125312 
L 414.268956 29.125312 
L 414.268956 28.787644 
L 414.46111 28.787644 
L 414.480989 28.11231 
L 415.410474 28.11231 
L 415.410474 27.774643 
L 415.816153 27.774643 
L 415.816153 27.436976 
L 416.745638 27.436976 
L 416.745638 27.099308 
L 417.073894 27.099308 
L 417.073894 26.761641 
L 417.660294 26.761641 
L 417.746001 26.086307 
L 418.597225 26.086307 
L 418.597225 25.74864 
L 418.756587 25.74864 
L 418.756587 25.410972 
L 419.956481 25.410972 
L 419.956481 25.073305 
L 420.091751 25.073305 
L 420.091751 24.735638 
L 420.721514 24.735638 
L 420.721514 24.397971 
L 421.291644 24.397971 
L 421.291644 24.060304 
L 424.364422 24.060304 
L 424.364422 23.722636 
L 425.03653 23.722636 
L 425.03653 23.384969 
L 425.699586 23.384969 
L 425.699586 23.047302 
L 426.371693 23.047302 
L 426.371693 22.709635 
L 427.697096 22.709635 
L 427.697096 22.371968 
L 428.012043 22.371968 
L 428.012043 22.0343 
L 428.502182 22.0343 
L 428.502182 21.696633 
L 428.869923 21.696633 
L 428.869923 21.358966 
L 429.347206 21.358966 
L 429.347206 21.021299 
L 432.434139 21.021299 
L 432.434139 20.683632 
L 432.659538 20.683632 
L 432.659538 20.345964 
L 434.605744 20.345964 
L 434.605744 20.008297 
L 453.192 20.008297 
L 453.192 20.008297 
" clip-path="url(#pdb003a3c81)" style="fill: none; stroke: #000000; stroke-width: 3; stroke-linecap: square"/>
   </g>
   <g id="line2d_54">
    <path clip-path="url(#pdb003a3c81)" style="fill: none; stroke: #000000; stroke-width: 3; stroke-linecap: square"/>
   </g>
   <g id="line2d_55">
    <path d="M 34.16 175.402745 
L 240.765786 175.402745 
L 240.765786 173.141725 
L 240.830328 173.141725 
L 240.830328 170.880706 
L 241.550748 170.880706 
L 241.550748 168.619686 
L 241.61529 168.619686 
L 241.61529 166.358667 
L 242.345792 166.358667 
L 242.345792 164.097647 
L 242.410333 164.097647 
L 242.410333 161.836627 
L 242.81983 161.836627 
L 242.81983 159.575608 
L 243.274041 159.575608 
L 243.274041 157.314588 
L 243.338583 157.314588 
L 243.338583 155.053569 
L 243.604792 155.053569 
L 243.604792 152.792549 
L 244.399835 152.792549 
L 244.399835 150.531529 
L 245.328085 150.531529 
L 245.328085 148.27051 
L 248.482585 148.27051 
L 248.482585 146.00949 
L 249.054886 146.00949 
L 249.054886 143.748471 
L 249.267547 143.748471 
L 249.267547 141.487451 
L 249.839849 141.487451 
L 249.839849 139.226431 
L 250.06259 139.226431 
L 250.06259 136.965412 
L 250.634892 136.965412 
L 250.634892 134.704392 
L 250.99084 134.704392 
L 250.99084 132.443373 
L 251.563141 132.443373 
L 251.563141 130.182353 
L 264.330453 130.182353 
L 264.330453 127.921333 
L 264.394995 127.921333 
L 264.394995 125.660314 
L 266.384497 125.660314 
L 266.384497 123.399294 
L 272.047252 123.399294 
L 272.047252 121.138275 
L 272.619554 121.138275 
L 272.619554 118.877255 
L 453.192 118.877255 
" clip-path="url(#pdb003a3c81)" style="fill: none; stroke: #00bfbf; stroke-width: 3; stroke-linecap: square"/>
   </g>
   <g id="line2d_56">
    <path clip-path="url(#pdb003a3c81)" style="fill: none; stroke: #00bfbf; stroke-width: 3; stroke-linecap: square"/>
   </g>
   <g id="line2d_57">
    <path d="M 34.16 175.402745 
L 240.726746 175.402745 
L 240.726746 173.141725 
L 240.747667 173.141725 
L 240.747667 170.880706 
L 241.122594 170.880706 
L 241.122594 168.619686 
L 241.143515 168.619686 
L 241.143515 166.358667 
L 241.81711 166.358667 
L 241.81711 164.097647 
L 242.212958 164.097647 
L 242.212958 161.836627 
L 243.07469 161.836627 
L 243.07469 159.575608 
L 243.095611 159.575608 
L 243.095611 157.314588 
L 243.123881 157.314588 
L 243.123881 155.053569 
L 243.519729 155.053569 
L 243.519729 152.792549 
L 244.165054 152.792549 
L 244.165054 150.531529 
L 245.471825 150.531529 
L 245.471825 148.27051 
L 248.545616 148.27051 
L 248.545616 146.00949 
L 248.566537 146.00949 
L 248.566537 143.748471 
L 248.954244 143.748471 
L 248.954244 141.487451 
L 248.975165 141.487451 
L 248.975165 139.226431 
L 249.63598 139.226431 
L 249.63598 136.965412 
L 250.044608 136.965412 
L 250.044608 134.704392 
L 250.942751 134.704392 
L 250.942751 132.443373 
L 251.351379 132.443373 
L 251.351379 130.182353 
L 263.991396 130.182353 
L 263.991396 127.921333 
L 264.387244 127.921333 
L 264.387244 125.660314 
L 266.33934 125.660314 
L 266.33934 123.399294 
L 271.810266 123.399294 
L 271.810266 121.138275 
L 272.218894 121.138275 
L 272.218894 118.877255 
L 453.192 118.877255 
" clip-path="url(#pdb003a3c81)" style="fill: none; stroke: #bf00bf; stroke-width: 3; stroke-linecap: square"/>
   </g>
   <g id="line2d_58">
    <path clip-path="url(#pdb003a3c81)" style="fill: none; stroke: #bf00bf; stroke-width: 3; stroke-linecap: square"/>
   </g>
   <g id="line2d_59">
    <path d="M 34.16 175.402745 
L 240.716172 175.402745 
L 240.716172 173.141725 
L 240.76427 173.141725 
L 240.76427 170.880706 
L 241.56387 170.880706 
L 241.56387 168.619686 
L 241.611967 168.619686 
L 241.611967 166.358667 
L 242.551609 166.358667 
L 242.551609 164.097647 
L 242.599706 164.097647 
L 242.599706 161.836627 
L 242.983767 161.836627 
L 242.983767 159.575608 
L 243.413369 159.575608 
L 243.413369 157.314588 
L 243.461467 157.314588 
L 243.461467 155.053569 
L 243.831465 155.053569 
L 243.831465 152.792549 
L 244.819203 152.792549 
L 244.819203 150.531529 
L 245.680964 150.531529 
L 245.680964 148.27051 
L 248.283894 148.27051 
L 248.283894 146.00949 
L 248.538009 146.00949 
L 248.538009 143.748471 
L 249.131592 143.748471 
L 249.131592 141.487451 
L 249.385707 141.487451 
L 249.385707 139.226431 
L 250.11933 139.226431 
L 250.11933 136.965412 
L 250.373445 136.965412 
L 250.373445 134.704392 
L 250.981091 134.704392 
L 250.981091 132.443373 
L 251.235206 132.443373 
L 251.235206 130.182353 
L 264.435928 130.182353 
L 264.435928 127.921333 
L 264.484025 127.921333 
L 264.484025 125.660314 
L 266.703522 125.660314 
L 266.703522 123.399294 
L 272.00365 123.399294 
L 272.00365 121.138275 
L 272.257765 121.138275 
L 272.257765 118.877255 
L 453.192 118.877255 
" clip-path="url(#pdb003a3c81)" style="fill: none; stroke: #ff0000; stroke-width: 3; stroke-linecap: square"/>
   </g>
   <g id="line2d_60">
    <path clip-path="url(#pdb003a3c81)" style="fill: none; stroke: #ff0000; stroke-width: 3; stroke-linecap: square"/>
   </g>
   <g id="line2d_61">
    <path d="M 243.676 291.28 
L 243.676 3 
" clip-path="url(#pdb003a3c81)" style="fill: none; stroke: #000000; stroke-width: 1.5; stroke-linecap: square"/>
   </g>
   <g id="line2d_62">
    <path d="M 34.16 147.14 
L 453.192 147.14 
" clip-path="url(#pdb003a3c81)" style="fill: none; stroke-dasharray: 2,3.3; stroke-dashoffset: 0; stroke: #000000; stroke-width: 2"/>
   </g>
   <g id="patch_3">
    <path d="M 34.16 291.28 
L 34.16 3 
" style="fill: none; stroke: #000000; stroke-width: 0.8; stroke-linejoin: miter; stroke-linecap: square"/>
   </g>
   <g id="patch_4">
    <path d="M 453.192 291.28 
L 453.192 3 
" style="fill: none; stroke: #000000; stroke-width: 0.8; stroke-linejoin: miter; stroke-linecap: square"/>
   </g>
   <g id="patch_5">
    <path d="M 34.16 291.28 
L 453.192 291.28 
" style="fill: none; stroke: #000000; stroke-width: 0.8; stroke-linejoin: miter; stroke-linecap: square"/>
   </g>
   <g id="patch_6">
    <path d="M 34.16 3 
L 453.192 3 
" style="fill: none; stroke: #000000; stroke-width: 0.8; stroke-linejoin: miter; stroke-linecap: square"/>
   </g>
   <g id="text_5">
    <!-- f6-f9,40-D -->
    <g transform="translate(343.64261 285.5144) scale(0.2 -0.2)">
     <defs>
      <path id="DejaVuSans-36" d="M 2113 2584 
Q 1688 2584 1439 2293 
Q 1191 2003 1191 1497 
Q 1191 994 1439 701 
Q 1688 409 2113 409 
Q 2538 409 2786 701 
Q 3034 994 3034 1497 
Q 3034 2003 2786 2293 
Q 2538 2584 2113 2584 
z
M 3366 4563 
L 3366 3988 
Q 3128 4100 2886 4159 
Q 2644 4219 2406 4219 
Q 1781 4219 1451 3797 
Q 1122 3375 1075 2522 
Q 1259 2794 1537 2939 
Q 1816 3084 2150 3084 
Q 2853 3084 3261 2657 
Q 3669 2231 3669 1497 
Q 3669 778 3244 343 
Q 2819 -91 2113 -91 
Q 1303 -91 875 529 
Q 447 1150 447 2328 
Q 447 3434 972 4092 
Q 1497 4750 2381 4750 
Q 2619 4750 2861 4703 
Q 3103 4656 3366 4563 
z
" transform="scale(0.015625)"/>
      <path id="DejaVuSans-39" d="M 703 97 
L 703 672 
Q 941 559 1184 500 
Q 1428 441 1663 441 
Q 2288 441 2617 861 
Q 2947 1281 2994 2138 
Q 2813 1869 2534 1725 
Q 2256 1581 1919 1581 
Q 1219 1581 811 2004 
Q 403 2428 403 3163 
Q 403 3881 828 4315 
Q 1253 4750 1959 4750 
Q 2769 4750 3195 4129 
Q 3622 3509 3622 2328 
Q 3622 1225 3098 567 
Q 2575 -91 1691 -91 
Q 1453 -91 1209 -44 
Q 966 3 703 97 
z
M 1959 2075 
Q 2384 2075 2632 2365 
Q 2881 2656 2881 3163 
Q 2881 3666 2632 3958 
Q 2384 4250 1959 4250 
Q 1534 4250 1286 3958 
Q 1038 3666 1038 3163 
Q 1038 2656 1286 2365 
Q 1534 2075 1959 2075 
z
" transform="scale(0.015625)"/>
      <path id="DejaVuSans-2c" d="M 750 794 
L 1409 794 
L 1409 256 
L 897 -744 
L 494 -744 
L 750 256 
L 750 794 
z
" transform="scale(0.015625)"/>
      <path id="DejaVuSans-34" d="M 2419 4116 
L 825 1625 
L 2419 1625 
L 2419 4116 
z
M 2253 4666 
L 3047 4666 
L 3047 1625 
L 3713 1625 
L 3713 1100 
L 3047 1100 
L 3047 0 
L 2419 0 
L 2419 1100 
L 313 1100 
L 313 1709 
L 2253 4666 
z
" transform="scale(0.015625)"/>
      <path id="DejaVuSans-44" d="M 1259 4147 
L 1259 519 
L 2022 519 
Q 2988 519 3436 956 
Q 3884 1394 3884 2338 
Q 3884 3275 3436 3711 
Q 2988 4147 2022 4147 
L 1259 4147 
z
M 628 4666 
L 1925 4666 
Q 3281 4666 3915 4102 
Q 4550 3538 4550 2338 
Q 4550 1131 3912 565 
Q 3275 0 1925 0 
L 628 0 
L 628 4666 
z
" transform="scale(0.015625)"/>
     </defs>
     <use xlink:href="#DejaVuSans-66"/>
     <use xlink:href="#DejaVuSans-36" x="35.205078"/>
     <use xlink:href="#DejaVuSans-2d" x="98.828125"/>
     <use xlink:href="#DejaVuSans-66" x="134.912109"/>
     <use xlink:href="#DejaVuSans-39" x="170.117188"/>
     <use xlink:href="#DejaVuSans-2c" x="233.740234"/>
     <use xlink:href="#DejaVuSans-34" x="265.527344"/>
     <use xlink:href="#DejaVuSans-30" x="329.150391"/>
     <use xlink:href="#DejaVuSans-2d" x="392.773438"/>
     <use xlink:href="#DejaVuSans-44" x="428.857422"/>
    </g>
   </g>
   <g id="text_6">
    <!-- v2.6.3 -->
    <g style="fill: #808080" transform="translate(227.99475 286.317512) scale(0.1 -0.1)">
     <defs>
      <path id="DejaVuSans-32" d="M 1228 531 
L 3431 531 
L 3431 0 
L 469 0 
L 469 531 
Q 828 903 1448 1529 
Q 2069 2156 2228 2338 
Q 2531 2678 2651 2914 
Q 2772 3150 2772 3378 
Q 2772 3750 2511 3984 
Q 2250 4219 1831 4219 
Q 1534 4219 1204 4116 
Q 875 4013 500 3803 
L 500 4441 
Q 881 4594 1212 4672 
Q 1544 4750 1819 4750 
Q 2544 4750 2975 4387 
Q 3406 4025 3406 3419 
Q 3406 3131 3298 2873 
Q 3191 2616 2906 2266 
Q 2828 2175 2409 1742 
Q 1991 1309 1228 531 
z
" transform="scale(0.015625)"/>
      <path id="DejaVuSans-2e" d="M 684 794 
L 1344 794 
L 1344 0 
L 684 0 
L 684 794 
z
" transform="scale(0.015625)"/>
      <path id="DejaVuSans-33" d="M 2597 2516 
Q 3050 2419 3304 2112 
Q 3559 1806 3559 1356 
Q 3559 666 3084 287 
Q 2609 -91 1734 -91 
Q 1441 -91 1130 -33 
Q 819 25 488 141 
L 488 750 
Q 750 597 1062 519 
Q 1375 441 1716 441 
Q 2309 441 2620 675 
Q 2931 909 2931 1356 
Q 2931 1769 2642 2001 
Q 2353 2234 1838 2234 
L 1294 2234 
L 1294 2753 
L 1863 2753 
Q 2328 2753 2575 2939 
Q 2822 3125 2822 3475 
Q 2822 3834 2567 4026 
Q 2313 4219 1838 4219 
Q 1578 4219 1281 4162 
Q 984 4106 628 3988 
L 628 4550 
Q 988 4650 1302 4700 
Q 1616 4750 1894 4750 
Q 2613 4750 3031 4423 
Q 3450 4097 3450 3541 
Q 3450 3153 3228 2886 
Q 3006 2619 2597 2516 
z
" transform="scale(0.015625)"/>
     </defs>
     <use xlink:href="#DejaVuSans-76"/>
     <use xlink:href="#DejaVuSans-32" x="59.179688"/>
     <use xlink:href="#DejaVuSans-2e" x="122.802734"/>
     <use xlink:href="#DejaVuSans-36" x="154.589844"/>
     <use xlink:href="#DejaVuSans-2e" x="218.212891"/>
     <use xlink:href="#DejaVuSans-33" x="250"/>
    </g>
   </g>
   <g id="legend_1">
    <g id="patch_7">
     <path d="M 48.16 136.425 
L 177.381875 136.425 
Q 181.381875 136.425 181.381875 132.425 
L 181.381875 17 
Q 181.381875 13 177.381875 13 
L 48.16 13 
Q 44.16 13 44.16 17 
L 44.16 132.425 
Q 44.16 136.425 48.16 136.425 
z
" style="fill: #ffffff; opacity: 0.2; stroke: #cccccc; stroke-linejoin: miter"/>
    </g>
    <g id="line2d_63">
     <path d="M 52.16 29.196875 
L 72.16 29.196875 
L 92.16 29.196875 
" style="fill: none; stroke: #000000; stroke-width: 3; stroke-linecap: square"/>
    </g>
    <g id="text_7">
     <!-- 1: 4/4 -->
     <g transform="translate(108.16 36.196875) scale(0.2 -0.2)">
      <defs>
       <path id="DejaVuSans-3a" d="M 750 794 
L 1409 794 
L 1409 0 
L 750 0 
L 750 794 
z
M 750 3309 
L 1409 3309 
L 1409 2516 
L 750 2516 
L 750 3309 
z
" transform="scale(0.015625)"/>
       <path id="DejaVuSans-2f" d="M 1625 4666 
L 2156 4666 
L 531 -594 
L 0 -594 
L 1625 4666 
z
" transform="scale(0.015625)"/>
      </defs>
      <use xlink:href="#DejaVuSans-31"/>
      <use xlink:href="#DejaVuSans-3a" x="63.623047"/>
      <use xlink:href="#DejaVuSans-20" x="97.314453"/>
      <use xlink:href="#DejaVuSans-34" x="129.101562"/>
      <use xlink:href="#DejaVuSans-2f" x="192.724609"/>
      <use xlink:href="#DejaVuSans-34" x="226.416016"/>
     </g>
    </g>
    <g id="line2d_64">
     <path d="M 52.16 58.553125 
L 72.16 58.553125 
L 92.16 58.553125 
" style="fill: none; stroke: #00bfbf; stroke-width: 3; stroke-linecap: square"/>
    </g>
    <g id="text_8">
     <!-- -1: 1/1 -->
     <g transform="translate(108.16 65.553125) scale(0.2 -0.2)">
      <use xlink:href="#DejaVuSans-2d"/>
      <use xlink:href="#DejaVuSans-31" x="36.083984"/>
      <use xlink:href="#DejaVuSans-3a" x="99.707031"/>
      <use xlink:href="#DejaVuSans-20" x="133.398438"/>
      <use xlink:href="#DejaVuSans-31" x="165.185547"/>
      <use xlink:href="#DejaVuSans-2f" x="228.808594"/>
      <use xlink:href="#DejaVuSans-31" x="262.5"/>
     </g>
    </g>
    <g id="line2d_65">
     <path d="M 52.16 87.909375 
L 72.16 87.909375 
L 92.16 87.909375 
" style="fill: none; stroke: #bf00bf; stroke-width: 3; stroke-linecap: square"/>
    </g>
    <g id="text_9">
     <!-- -4: 1/1 -->
     <g transform="translate(108.16 94.909375) scale(0.2 -0.2)">
      <use xlink:href="#DejaVuSans-2d"/>
      <use xlink:href="#DejaVuSans-34" x="36.083984"/>
      <use xlink:href="#DejaVuSans-3a" x="99.707031"/>
      <use xlink:href="#DejaVuSans-20" x="133.398438"/>
      <use xlink:href="#DejaVuSans-31" x="165.185547"/>
      <use xlink:href="#DejaVuSans-2f" x="228.808594"/>
      <use xlink:href="#DejaVuSans-31" x="262.5"/>
     </g>
    </g>
    <g id="line2d_66">
     <path d="M 52.16 117.265625 
L 72.16 117.265625 
L 92.16 117.265625 
" style="fill: none; stroke: #ff0000; stroke-width: 3; stroke-linecap: square"/>
    </g>
    <g id="text_10">
     <!-- -8: 1/1 -->
     <g transform="translate(108.16 124.265625) scale(0.2 -0.2)">
      <defs>
       <path id="DejaVuSans-38" d="M 2034 2216 
Q 1584 2216 1326 1975 
Q 1069 1734 1069 1313 
Q 1069 891 1326 650 
Q 1584 409 2034 409 
Q 2484 409 2743 651 
Q 3003 894 3003 1313 
Q 3003 1734 2745 1975 
Q 2488 2216 2034 2216 
z
M 1403 2484 
Q 997 2584 770 2862 
Q 544 3141 544 3541 
Q 544 4100 942 4425 
Q 1341 4750 2034 4750 
Q 2731 4750 3128 4425 
Q 3525 4100 3525 3541 
Q 3525 3141 3298 2862 
Q 3072 2584 2669 2484 
Q 3125 2378 3379 2068 
Q 3634 1759 3634 1313 
Q 3634 634 3220 271 
Q 2806 -91 2034 -91 
Q 1263 -91 848 271 
Q 434 634 434 1313 
Q 434 1759 690 2068 
Q 947 2378 1403 2484 
z
M 1172 3481 
Q 1172 3119 1398 2916 
Q 1625 2713 2034 2713 
Q 2441 2713 2670 2916 
Q 2900 3119 2900 3481 
Q 2900 3844 2670 4047 
Q 2441 4250 2034 4250 
Q 1625 4250 1398 4047 
Q 1172 3844 1172 3481 
z
" transform="scale(0.015625)"/>
      </defs>
      <use xlink:href="#DejaVuSans-2d"/>
      <use xlink:href="#DejaVuSans-38" x="36.083984"/>
      <use xlink:href="#DejaVuSans-3a" x="99.707031"/>
      <use xlink:href="#DejaVuSans-20" x="133.398438"/>
      <use xlink:href="#DejaVuSans-31" x="165.185547"/>
      <use xlink:href="#DejaVuSans-2f" x="228.808594"/>
      <use xlink:href="#DejaVuSans-31" x="262.5"/>
     </g>
    </g>
   </g>
  </g>
 </g>
 <defs>
  <clipPath id="pdb003a3c81">
   <rect x="34.16" y="3" width="419.032" height="288.28"/>
  </clipPath>
 </defs>
</svg>
