<?xml version="1.0" encoding="utf-8" standalone="no"?>
<!DOCTYPE svg PUBLIC "-//W3C//DTD SVG 1.1//EN"
  "http://www.w3.org/Graphics/SVG/1.1/DTD/svg11.dtd">
<svg xmlns:xlink="http://www.w3.org/1999/xlink" width="460.8pt" height="345.6pt" viewBox="0 0 460.8 345.6" xmlns="http://www.w3.org/2000/svg" version="1.1">
 <metadata>
  <rdf:RDF xmlns:dc="http://purl.org/dc/elements/1.1/" xmlns:cc="http://creativecommons.org/ns#" xmlns:rdf="http://www.w3.org/1999/02/22-rdf-syntax-ns#">
   <cc:Work>
    <dc:type rdf:resource="http://purl.org/dc/dcmitype/StillImage"/>
    <dc:date>2024-05-24T12:12:02.101190</dc:date>
    <dc:format>image/svg+xml</dc:format>
    <dc:creator>
     <cc:Agent>
      <dc:title>Matplotlib v3.7.1, https://matplotlib.org/</dc:title>
     </cc:Agent>
    </dc:creator>
   </cc:Work>
  </rdf:RDF>
 </metadata>
 <defs>
  <style type="text/css">*{stroke-linejoin: round; stroke-linecap: butt}</style>
 </defs>
 <g id="figure_1">
  <g id="patch_1">
   <path d="M 0 345.6 
L 460.8 345.6 
L 460.8 0 
L 0 0 
z
" style="fill: #ffffff"/>
  </g>
  <g id="axes_1">
   <g id="patch_2">
    <path d="M 34.16 291.28 
L 453.192 291.28 
L 453.192 3 
L 34.16 3 
z
" style="fill: #ffffff"/>
   </g>
   <g id="matplotlib.axis_1">
    <g id="xtick_1">
     <g id="line2d_1">
      <path d="M 123.562804 291.28 
L 123.562804 3 
" clip-path="url(#p169b9b32ba)" style="fill: none; stroke: #b0b0b0; stroke-width: 0.8; stroke-linecap: square"/>
     </g>
     <g id="line2d_2">
      <defs>
       <path id="m8189fb26cb" d="M 0 0 
L 0 3.5 
" style="stroke: #000000; stroke-width: 0.8"/>
      </defs>
      <g>
       <use xlink:href="#m8189fb26cb" x="123.562804" y="291.28" style="stroke: #000000; stroke-width: 0.8"/>
      </g>
     </g>
     <g id="text_1">
      <!-- -1 -->
      <g transform="translate(113.592492 313.476875) scale(0.2 -0.2)">
       <defs>
        <path id="DejaVuSans-2d" d="M 313 2009 
L 1997 2009 
L 1997 1497 
L 313 1497 
L 313 2009 
z
" transform="scale(0.015625)"/>
        <path id="DejaVuSans-31" d="M 794 531 
L 1825 531 
L 1825 4091 
L 703 3866 
L 703 4441 
L 1819 4666 
L 2450 4666 
L 2450 531 
L 3481 531 
L 3481 0 
L 794 0 
L 794 531 
z
" transform="scale(0.015625)"/>
       </defs>
       <use xlink:href="#DejaVuSans-2d"/>
       <use xlink:href="#DejaVuSans-31" x="36.083984"/>
      </g>
     </g>
    </g>
    <g id="xtick_2">
     <g id="line2d_3">
      <path d="M 243.676 291.28 
L 243.676 3 
" clip-path="url(#p169b9b32ba)" style="fill: none; stroke: #b0b0b0; stroke-width: 0.8; stroke-linecap: square"/>
     </g>
     <g id="line2d_4">
      <g>
       <use xlink:href="#m8189fb26cb" x="243.676" y="291.28" style="stroke: #000000; stroke-width: 0.8"/>
      </g>
     </g>
     <g id="text_2">
      <!-- 0 -->
      <g transform="translate(237.3135 313.476875) scale(0.2 -0.2)">
       <defs>
        <path id="DejaVuSans-30" d="M 2034 4250 
Q 1547 4250 1301 3770 
Q 1056 3291 1056 2328 
Q 1056 1369 1301 889 
Q 1547 409 2034 409 
Q 2525 409 2770 889 
Q 3016 1369 3016 2328 
Q 3016 3291 2770 3770 
Q 2525 4250 2034 4250 
z
M 2034 4750 
Q 2819 4750 3233 4129 
Q 3647 3509 3647 2328 
Q 3647 1150 3233 529 
Q 2819 -91 2034 -91 
Q 1250 -91 836 529 
Q 422 1150 422 2328 
Q 422 3509 836 4129 
Q 1250 4750 2034 4750 
z
" transform="scale(0.015625)"/>
       </defs>
       <use xlink:href="#DejaVuSans-30"/>
      </g>
     </g>
    </g>
    <g id="xtick_3">
     <g id="line2d_5">
      <path d="M 363.789196 291.28 
L 363.789196 3 
" clip-path="url(#p169b9b32ba)" style="fill: none; stroke: #b0b0b0; stroke-width: 0.8; stroke-linecap: square"/>
     </g>
     <g id="line2d_6">
      <g>
       <use xlink:href="#m8189fb26cb" x="363.789196" y="291.28" style="stroke: #000000; stroke-width: 0.8"/>
      </g>
     </g>
     <g id="text_3">
      <!-- 1 -->
      <g transform="translate(357.426696 313.476875) scale(0.2 -0.2)">
       <use xlink:href="#DejaVuSans-31"/>
      </g>
     </g>
    </g>
    <g id="xtick_4">
     <g id="line2d_7">
      <defs>
       <path id="m556369579a" d="M 0 0 
L 0 2 
" style="stroke: #000000; stroke-width: 0.6"/>
      </defs>
      <g>
       <use xlink:href="#m556369579a" x="39.607283" y="291.28" style="stroke: #000000; stroke-width: 0.6"/>
      </g>
     </g>
    </g>
    <g id="xtick_5">
     <g id="line2d_8">
      <g>
       <use xlink:href="#m556369579a" x="60.758167" y="291.28" style="stroke: #000000; stroke-width: 0.6"/>
      </g>
     </g>
    </g>
    <g id="xtick_6">
     <g id="line2d_9">
      <g>
       <use xlink:href="#m556369579a" x="75.764958" y="291.28" style="stroke: #000000; stroke-width: 0.6"/>
      </g>
     </g>
    </g>
    <g id="xtick_7">
     <g id="line2d_10">
      <g>
       <use xlink:href="#m556369579a" x="87.405129" y="291.28" style="stroke: #000000; stroke-width: 0.6"/>
      </g>
     </g>
    </g>
    <g id="xtick_8">
     <g id="line2d_11">
      <g>
       <use xlink:href="#m556369579a" x="96.915842" y="291.28" style="stroke: #000000; stroke-width: 0.6"/>
      </g>
     </g>
    </g>
    <g id="xtick_9">
     <g id="line2d_12">
      <g>
       <use xlink:href="#m556369579a" x="104.957035" y="291.28" style="stroke: #000000; stroke-width: 0.6"/>
      </g>
     </g>
    </g>
    <g id="xtick_10">
     <g id="line2d_13">
      <g>
       <use xlink:href="#m556369579a" x="111.922633" y="291.28" style="stroke: #000000; stroke-width: 0.6"/>
      </g>
     </g>
    </g>
    <g id="xtick_11">
     <g id="line2d_14">
      <g>
       <use xlink:href="#m556369579a" x="118.066726" y="291.28" style="stroke: #000000; stroke-width: 0.6"/>
      </g>
     </g>
    </g>
    <g id="xtick_12">
     <g id="line2d_15">
      <g>
       <use xlink:href="#m556369579a" x="159.720479" y="291.28" style="stroke: #000000; stroke-width: 0.6"/>
      </g>
     </g>
    </g>
    <g id="xtick_13">
     <g id="line2d_16">
      <g>
       <use xlink:href="#m556369579a" x="180.871363" y="291.28" style="stroke: #000000; stroke-width: 0.6"/>
      </g>
     </g>
    </g>
    <g id="xtick_14">
     <g id="line2d_17">
      <g>
       <use xlink:href="#m556369579a" x="195.878154" y="291.28" style="stroke: #000000; stroke-width: 0.6"/>
      </g>
     </g>
    </g>
    <g id="xtick_15">
     <g id="line2d_18">
      <g>
       <use xlink:href="#m556369579a" x="207.518325" y="291.28" style="stroke: #000000; stroke-width: 0.6"/>
      </g>
     </g>
    </g>
    <g id="xtick_16">
     <g id="line2d_19">
      <g>
       <use xlink:href="#m556369579a" x="217.029038" y="291.28" style="stroke: #000000; stroke-width: 0.6"/>
      </g>
     </g>
    </g>
    <g id="xtick_17">
     <g id="line2d_20">
      <g>
       <use xlink:href="#m556369579a" x="225.070231" y="291.28" style="stroke: #000000; stroke-width: 0.6"/>
      </g>
     </g>
    </g>
    <g id="xtick_18">
     <g id="line2d_21">
      <g>
       <use xlink:href="#m556369579a" x="232.035829" y="291.28" style="stroke: #000000; stroke-width: 0.6"/>
      </g>
     </g>
    </g>
    <g id="xtick_19">
     <g id="line2d_22">
      <g>
       <use xlink:href="#m556369579a" x="238.179922" y="291.28" style="stroke: #000000; stroke-width: 0.6"/>
      </g>
     </g>
    </g>
    <g id="xtick_20">
     <g id="line2d_23">
      <g>
       <use xlink:href="#m556369579a" x="279.833675" y="291.28" style="stroke: #000000; stroke-width: 0.6"/>
      </g>
     </g>
    </g>
    <g id="xtick_21">
     <g id="line2d_24">
      <g>
       <use xlink:href="#m556369579a" x="300.984559" y="291.28" style="stroke: #000000; stroke-width: 0.6"/>
      </g>
     </g>
    </g>
    <g id="xtick_22">
     <g id="line2d_25">
      <g>
       <use xlink:href="#m556369579a" x="315.99135" y="291.28" style="stroke: #000000; stroke-width: 0.6"/>
      </g>
     </g>
    </g>
    <g id="xtick_23">
     <g id="line2d_26">
      <g>
       <use xlink:href="#m556369579a" x="327.631521" y="291.28" style="stroke: #000000; stroke-width: 0.6"/>
      </g>
     </g>
    </g>
    <g id="xtick_24">
     <g id="line2d_27">
      <g>
       <use xlink:href="#m556369579a" x="337.142234" y="291.28" style="stroke: #000000; stroke-width: 0.6"/>
      </g>
     </g>
    </g>
    <g id="xtick_25">
     <g id="line2d_28">
      <g>
       <use xlink:href="#m556369579a" x="345.183426" y="291.28" style="stroke: #000000; stroke-width: 0.6"/>
      </g>
     </g>
    </g>
    <g id="xtick_26">
     <g id="line2d_29">
      <g>
       <use xlink:href="#m556369579a" x="352.149025" y="291.28" style="stroke: #000000; stroke-width: 0.6"/>
      </g>
     </g>
    </g>
    <g id="xtick_27">
     <g id="line2d_30">
      <g>
       <use xlink:href="#m556369579a" x="358.293117" y="291.28" style="stroke: #000000; stroke-width: 0.6"/>
      </g>
     </g>
    </g>
    <g id="xtick_28">
     <g id="line2d_31">
      <g>
       <use xlink:href="#m556369579a" x="399.946871" y="291.28" style="stroke: #000000; stroke-width: 0.6"/>
      </g>
     </g>
    </g>
    <g id="xtick_29">
     <g id="line2d_32">
      <g>
       <use xlink:href="#m556369579a" x="421.097755" y="291.28" style="stroke: #000000; stroke-width: 0.6"/>
      </g>
     </g>
    </g>
    <g id="xtick_30">
     <g id="line2d_33">
      <g>
       <use xlink:href="#m556369579a" x="436.104546" y="291.28" style="stroke: #000000; stroke-width: 0.6"/>
      </g>
     </g>
    </g>
    <g id="xtick_31">
     <g id="line2d_34">
      <g>
       <use xlink:href="#m556369579a" x="447.744717" y="291.28" style="stroke: #000000; stroke-width: 0.6"/>
      </g>
     </g>
    </g>
    <g id="text_4">
     <!-- log10 of FEvals ratio -->
     <g transform="translate(141.371312 336.833125) scale(0.2 -0.2)">
      <defs>
       <path id="DejaVuSans-6c" d="M 603 4863 
L 1178 4863 
L 1178 0 
L 603 0 
L 603 4863 
z
" transform="scale(0.015625)"/>
       <path id="DejaVuSans-6f" d="M 1959 3097 
Q 1497 3097 1228 2736 
Q 959 2375 959 1747 
Q 959 1119 1226 758 
Q 1494 397 1959 397 
Q 2419 397 2687 759 
Q 2956 1122 2956 1747 
Q 2956 2369 2687 2733 
Q 2419 3097 1959 3097 
z
M 1959 3584 
Q 2709 3584 3137 3096 
Q 3566 2609 3566 1747 
Q 3566 888 3137 398 
Q 2709 -91 1959 -91 
Q 1206 -91 779 398 
Q 353 888 353 1747 
Q 353 2609 779 3096 
Q 1206 3584 1959 3584 
z
" transform="scale(0.015625)"/>
       <path id="DejaVuSans-67" d="M 2906 1791 
Q 2906 2416 2648 2759 
Q 2391 3103 1925 3103 
Q 1463 3103 1205 2759 
Q 947 2416 947 1791 
Q 947 1169 1205 825 
Q 1463 481 1925 481 
Q 2391 481 2648 825 
Q 2906 1169 2906 1791 
z
M 3481 434 
Q 3481 -459 3084 -895 
Q 2688 -1331 1869 -1331 
Q 1566 -1331 1297 -1286 
Q 1028 -1241 775 -1147 
L 775 -588 
Q 1028 -725 1275 -790 
Q 1522 -856 1778 -856 
Q 2344 -856 2625 -561 
Q 2906 -266 2906 331 
L 2906 616 
Q 2728 306 2450 153 
Q 2172 0 1784 0 
Q 1141 0 747 490 
Q 353 981 353 1791 
Q 353 2603 747 3093 
Q 1141 3584 1784 3584 
Q 2172 3584 2450 3431 
Q 2728 3278 2906 2969 
L 2906 3500 
L 3481 3500 
L 3481 434 
z
" transform="scale(0.015625)"/>
       <path id="DejaVuSans-20" transform="scale(0.015625)"/>
       <path id="DejaVuSans-66" d="M 2375 4863 
L 2375 4384 
L 1825 4384 
Q 1516 4384 1395 4259 
Q 1275 4134 1275 3809 
L 1275 3500 
L 2222 3500 
L 2222 3053 
L 1275 3053 
L 1275 0 
L 697 0 
L 697 3053 
L 147 3053 
L 147 3500 
L 697 3500 
L 697 3744 
Q 697 4328 969 4595 
Q 1241 4863 1831 4863 
L 2375 4863 
z
" transform="scale(0.015625)"/>
       <path id="DejaVuSans-46" d="M 628 4666 
L 3309 4666 
L 3309 4134 
L 1259 4134 
L 1259 2759 
L 3109 2759 
L 3109 2228 
L 1259 2228 
L 1259 0 
L 628 0 
L 628 4666 
z
" transform="scale(0.015625)"/>
       <path id="DejaVuSans-45" d="M 628 4666 
L 3578 4666 
L 3578 4134 
L 1259 4134 
L 1259 2753 
L 3481 2753 
L 3481 2222 
L 1259 2222 
L 1259 531 
L 3634 531 
L 3634 0 
L 628 0 
L 628 4666 
z
" transform="scale(0.015625)"/>
       <path id="DejaVuSans-76" d="M 191 3500 
L 800 3500 
L 1894 563 
L 2988 3500 
L 3597 3500 
L 2284 0 
L 1503 0 
L 191 3500 
z
" transform="scale(0.015625)"/>
       <path id="DejaVuSans-61" d="M 2194 1759 
Q 1497 1759 1228 1600 
Q 959 1441 959 1056 
Q 959 750 1161 570 
Q 1363 391 1709 391 
Q 2188 391 2477 730 
Q 2766 1069 2766 1631 
L 2766 1759 
L 2194 1759 
z
M 3341 1997 
L 3341 0 
L 2766 0 
L 2766 531 
Q 2569 213 2275 61 
Q 1981 -91 1556 -91 
Q 1019 -91 701 211 
Q 384 513 384 1019 
Q 384 1609 779 1909 
Q 1175 2209 1959 2209 
L 2766 2209 
L 2766 2266 
Q 2766 2663 2505 2880 
Q 2244 3097 1772 3097 
Q 1472 3097 1187 3025 
Q 903 2953 641 2809 
L 641 3341 
Q 956 3463 1253 3523 
Q 1550 3584 1831 3584 
Q 2591 3584 2966 3190 
Q 3341 2797 3341 1997 
z
" transform="scale(0.015625)"/>
       <path id="DejaVuSans-73" d="M 2834 3397 
L 2834 2853 
Q 2591 2978 2328 3040 
Q 2066 3103 1784 3103 
Q 1356 3103 1142 2972 
Q 928 2841 928 2578 
Q 928 2378 1081 2264 
Q 1234 2150 1697 2047 
L 1894 2003 
Q 2506 1872 2764 1633 
Q 3022 1394 3022 966 
Q 3022 478 2636 193 
Q 2250 -91 1575 -91 
Q 1294 -91 989 -36 
Q 684 19 347 128 
L 347 722 
Q 666 556 975 473 
Q 1284 391 1588 391 
Q 1994 391 2212 530 
Q 2431 669 2431 922 
Q 2431 1156 2273 1281 
Q 2116 1406 1581 1522 
L 1381 1569 
Q 847 1681 609 1914 
Q 372 2147 372 2553 
Q 372 3047 722 3315 
Q 1072 3584 1716 3584 
Q 2034 3584 2315 3537 
Q 2597 3491 2834 3397 
z
" transform="scale(0.015625)"/>
       <path id="DejaVuSans-72" d="M 2631 2963 
Q 2534 3019 2420 3045 
Q 2306 3072 2169 3072 
Q 1681 3072 1420 2755 
Q 1159 2438 1159 1844 
L 1159 0 
L 581 0 
L 581 3500 
L 1159 3500 
L 1159 2956 
Q 1341 3275 1631 3429 
Q 1922 3584 2338 3584 
Q 2397 3584 2469 3576 
Q 2541 3569 2628 3553 
L 2631 2963 
z
" transform="scale(0.015625)"/>
       <path id="DejaVuSans-74" d="M 1172 4494 
L 1172 3500 
L 2356 3500 
L 2356 3053 
L 1172 3053 
L 1172 1153 
Q 1172 725 1289 603 
Q 1406 481 1766 481 
L 2356 481 
L 2356 0 
L 1766 0 
Q 1100 0 847 248 
Q 594 497 594 1153 
L 594 3053 
L 172 3053 
L 172 3500 
L 594 3500 
L 594 4494 
L 1172 4494 
z
" transform="scale(0.015625)"/>
       <path id="DejaVuSans-69" d="M 603 3500 
L 1178 3500 
L 1178 0 
L 603 0 
L 603 3500 
z
M 603 4863 
L 1178 4863 
L 1178 4134 
L 603 4134 
L 603 4863 
z
" transform="scale(0.015625)"/>
      </defs>
      <use xlink:href="#DejaVuSans-6c"/>
      <use xlink:href="#DejaVuSans-6f" x="27.783203"/>
      <use xlink:href="#DejaVuSans-67" x="88.964844"/>
      <use xlink:href="#DejaVuSans-31" x="152.441406"/>
      <use xlink:href="#DejaVuSans-30" x="216.064453"/>
      <use xlink:href="#DejaVuSans-20" x="279.6875"/>
      <use xlink:href="#DejaVuSans-6f" x="311.474609"/>
      <use xlink:href="#DejaVuSans-66" x="372.65625"/>
      <use xlink:href="#DejaVuSans-20" x="407.861328"/>
      <use xlink:href="#DejaVuSans-46" x="439.648438"/>
      <use xlink:href="#DejaVuSans-45" x="497.167969"/>
      <use xlink:href="#DejaVuSans-76" x="560.351562"/>
      <use xlink:href="#DejaVuSans-61" x="619.53125"/>
      <use xlink:href="#DejaVuSans-6c" x="680.810547"/>
      <use xlink:href="#DejaVuSans-73" x="708.59375"/>
      <use xlink:href="#DejaVuSans-20" x="760.693359"/>
      <use xlink:href="#DejaVuSans-72" x="792.480469"/>
      <use xlink:href="#DejaVuSans-61" x="833.59375"/>
      <use xlink:href="#DejaVuSans-74" x="894.873047"/>
      <use xlink:href="#DejaVuSans-69" x="934.082031"/>
      <use xlink:href="#DejaVuSans-6f" x="961.865234"/>
     </g>
    </g>
   </g>
   <g id="matplotlib.axis_2">
    <g id="ytick_1">
     <g id="line2d_35">
      <path d="M 34.16 288.453725 
L 453.192 288.453725 
" clip-path="url(#p169b9b32ba)" style="fill: none; stroke: #b0b0b0; stroke-width: 0.8; stroke-linecap: square"/>
     </g>
     <g id="line2d_36">
      <defs>
       <path id="mdc75fd6edf" d="M 0 0 
L -3.5 0 
" style="stroke: #000000; stroke-width: 0.8"/>
      </defs>
      <g>
       <use xlink:href="#mdc75fd6edf" x="34.16" y="288.453725" style="stroke: #000000; stroke-width: 0.8"/>
      </g>
     </g>
    </g>
    <g id="ytick_2">
     <g id="line2d_37">
      <path d="M 34.16 217.796863 
L 453.192 217.796863 
" clip-path="url(#p169b9b32ba)" style="fill: none; stroke: #b0b0b0; stroke-width: 0.8; stroke-linecap: square"/>
     </g>
     <g id="line2d_38">
      <g>
       <use xlink:href="#mdc75fd6edf" x="34.16" y="217.796863" style="stroke: #000000; stroke-width: 0.8"/>
      </g>
     </g>
    </g>
    <g id="ytick_3">
     <g id="line2d_39">
      <path d="M 34.16 147.14 
L 453.192 147.14 
" clip-path="url(#p169b9b32ba)" style="fill: none; stroke: #b0b0b0; stroke-width: 0.8; stroke-linecap: square"/>
     </g>
     <g id="line2d_40">
      <g>
       <use xlink:href="#mdc75fd6edf" x="34.16" y="147.14" style="stroke: #000000; stroke-width: 0.8"/>
      </g>
     </g>
    </g>
    <g id="ytick_4">
     <g id="line2d_41">
      <path d="M 34.16 76.483137 
L 453.192 76.483137 
" clip-path="url(#p169b9b32ba)" style="fill: none; stroke: #b0b0b0; stroke-width: 0.8; stroke-linecap: square"/>
     </g>
     <g id="line2d_42">
      <g>
       <use xlink:href="#mdc75fd6edf" x="34.16" y="76.483137" style="stroke: #000000; stroke-width: 0.8"/>
      </g>
     </g>
    </g>
    <g id="ytick_5">
     <g id="line2d_43">
      <path d="M 34.16 5.826275 
L 453.192 5.826275 
" clip-path="url(#p169b9b32ba)" style="fill: none; stroke: #b0b0b0; stroke-width: 0.8; stroke-linecap: square"/>
     </g>
     <g id="line2d_44">
      <g>
       <use xlink:href="#mdc75fd6edf" x="34.16" y="5.826275" style="stroke: #000000; stroke-width: 0.8"/>
      </g>
     </g>
    </g>
    <g id="text_5">
     <!-- proportion of trials -->
     <g transform="translate(19.000625 240.14625) rotate(-90) scale(0.2 -0.2)">
      <defs>
       <path id="DejaVuSans-70" d="M 1159 525 
L 1159 -1331 
L 581 -1331 
L 581 3500 
L 1159 3500 
L 1159 2969 
Q 1341 3281 1617 3432 
Q 1894 3584 2278 3584 
Q 2916 3584 3314 3078 
Q 3713 2572 3713 1747 
Q 3713 922 3314 415 
Q 2916 -91 2278 -91 
Q 1894 -91 1617 61 
Q 1341 213 1159 525 
z
M 3116 1747 
Q 3116 2381 2855 2742 
Q 2594 3103 2138 3103 
Q 1681 3103 1420 2742 
Q 1159 2381 1159 1747 
Q 1159 1113 1420 752 
Q 1681 391 2138 391 
Q 2594 391 2855 752 
Q 3116 1113 3116 1747 
z
" transform="scale(0.015625)"/>
       <path id="DejaVuSans-6e" d="M 3513 2113 
L 3513 0 
L 2938 0 
L 2938 2094 
Q 2938 2591 2744 2837 
Q 2550 3084 2163 3084 
Q 1697 3084 1428 2787 
Q 1159 2491 1159 1978 
L 1159 0 
L 581 0 
L 581 3500 
L 1159 3500 
L 1159 2956 
Q 1366 3272 1645 3428 
Q 1925 3584 2291 3584 
Q 2894 3584 3203 3211 
Q 3513 2838 3513 2113 
z
" transform="scale(0.015625)"/>
      </defs>
      <use xlink:href="#DejaVuSans-70"/>
      <use xlink:href="#DejaVuSans-72" x="63.476562"/>
      <use xlink:href="#DejaVuSans-6f" x="102.339844"/>
      <use xlink:href="#DejaVuSans-70" x="163.521484"/>
      <use xlink:href="#DejaVuSans-6f" x="226.998047"/>
      <use xlink:href="#DejaVuSans-72" x="288.179688"/>
      <use xlink:href="#DejaVuSans-74" x="329.292969"/>
      <use xlink:href="#DejaVuSans-69" x="368.501953"/>
      <use xlink:href="#DejaVuSans-6f" x="396.285156"/>
      <use xlink:href="#DejaVuSans-6e" x="457.466797"/>
      <use xlink:href="#DejaVuSans-20" x="520.845703"/>
      <use xlink:href="#DejaVuSans-6f" x="552.632812"/>
      <use xlink:href="#DejaVuSans-66" x="613.814453"/>
      <use xlink:href="#DejaVuSans-20" x="649.019531"/>
      <use xlink:href="#DejaVuSans-74" x="680.806641"/>
      <use xlink:href="#DejaVuSans-72" x="720.015625"/>
      <use xlink:href="#DejaVuSans-69" x="761.128906"/>
      <use xlink:href="#DejaVuSans-61" x="788.912109"/>
      <use xlink:href="#DejaVuSans-6c" x="850.191406"/>
      <use xlink:href="#DejaVuSans-73" x="877.974609"/>
     </g>
    </g>
   </g>
   <g id="line2d_45">
    <path d="M 34.16 288.453725 
L 52.810799 288.453725 
L 52.810799 287.700052 
L 63.642203 287.700052 
L 63.642203 286.946379 
L 73.008881 286.946379 
L 73.008881 286.192706 
L 73.646012 286.192706 
L 73.646012 285.439033 
L 74.897394 285.439033 
L 74.897394 284.685359 
L 76.270224 284.685359 
L 76.270224 283.931686 
L 104.139697 283.931686 
L 104.139697 283.178013 
L 105.43003 283.178013 
L 105.43003 282.42434 
L 108.816304 282.42434 
L 108.816304 281.670667 
L 109.209191 281.670667 
L 109.209191 280.916993 
L 109.885783 280.916993 
L 109.885783 280.16332 
L 114.9711 280.16332 
L 114.9711 279.409647 
L 119.647707 279.409647 
L 119.647707 278.655974 
L 120.040595 278.655974 
L 120.040595 277.902301 
L 120.717186 277.902301 
L 120.717186 277.148627 
L 124.337778 277.148627 
L 124.337778 276.394954 
L 124.97491 276.394954 
L 124.97491 275.641281 
L 126.226292 275.641281 
L 126.226292 274.887608 
L 127.599121 274.887608 
L 127.599121 274.133935 
L 129.014385 274.133935 
L 129.014385 273.380261 
L 129.401304 273.380261 
L 129.407272 271.872915 
L 129.651517 271.872915 
L 129.651517 271.119242 
L 130.044404 271.119242 
L 130.083864 269.611895 
L 130.720996 269.611895 
L 130.720996 268.858222 
L 130.902899 268.858222 
L 130.902899 268.104549 
L 131.295786 268.104549 
L 131.295786 267.350876 
L 131.972378 267.350876 
L 131.972378 266.597203 
L 132.275728 266.597203 
L 132.275728 265.843529 
L 132.668616 265.843529 
L 132.668616 265.089856 
L 133.345207 265.089856 
L 133.345207 264.336183 
L 140.209726 264.336183 
L 140.209726 263.58251 
L 148.780513 263.58251 
L 148.780513 262.828837 
L 150.529207 262.828837 
L 150.529207 262.075163 
L 154.924606 262.075163 
L 154.924606 261.32149 
L 156.758928 261.32149 
L 156.758928 260.567817 
L 157.661732 260.567817 
L 157.661732 259.814144 
L 161.435535 259.814144 
L 161.435535 259.060471 
L 161.828422 259.060471 
L 161.828422 258.306797 
L 162.505014 258.306797 
L 162.505014 257.553124 
L 165.535998 257.553124 
L 165.535998 256.799451 
L 166.043986 256.799451 
L 166.043986 256.045778 
L 168.020982 256.045778 
L 168.020982 255.292105 
L 169.931397 255.292105 
L 169.931397 254.538431 
L 171.36065 254.538431 
L 171.36065 253.031085 
L 173.406579 253.031085 
L 173.406579 252.277412 
L 175.427475 252.277412 
L 175.427475 251.523739 
L 175.899555 251.523739 
L 175.899555 250.016392 
L 177.632754 250.016392 
L 177.632754 249.262719 
L 180.291393 249.262719 
L 180.291393 248.509046 
L 180.730202 248.509046 
L 180.770171 247.001699 
L 183.332999 247.001699 
L 183.332999 246.248026 
L 184.237982 246.248026 
L 184.237982 245.494353 
L 184.938188 245.494353 
L 184.938188 244.74068 
L 185.406808 244.74068 
L 185.406808 243.987007 
L 185.799696 243.987007 
L 185.799696 243.233333 
L 186.476287 243.233333 
L 186.476287 242.47966 
L 188.302438 242.47966 
L 188.302438 241.725987 
L 189.113575 241.725987 
L 189.113575 240.972314 
L 190.027041 240.972314 
L 190.027041 240.218641 
L 192.468794 240.218641 
L 192.511534 238.711294 
L 193.130872 238.711294 
L 193.130872 237.957621 
L 193.842333 237.957621 
L 193.842333 237.203948 
L 195.107868 237.203948 
L 195.107868 236.450275 
L 195.414466 236.450275 
L 195.414466 235.696601 
L 196.578359 235.696601 
L 196.686922 234.189255 
L 197.050439 234.189255 
L 197.050439 232.681908 
L 198.007613 232.681908 
L 198.007613 231.928235 
L 198.447536 231.928235 
L 198.447536 231.174562 
L 200.849961 231.174562 
L 200.849961 230.420889 
L 201.49876 230.420889 
L 201.51238 228.913542 
L 201.751964 228.913542 
L 201.751964 228.159869 
L 202.313482 228.159869 
L 202.313482 227.406196 
L 202.546517 227.406196 
L 202.546517 225.89885 
L 202.869019 225.89885 
L 202.869019 225.145176 
L 203.250128 225.145176 
L 203.250128 224.391503 
L 203.475756 224.391503 
L 203.475756 223.63783 
L 203.919347 223.63783 
L 203.919347 222.884157 
L 204.246398 222.884157 
L 204.246398 222.130484 
L 204.821349 222.130484 
L 204.821349 221.37681 
L 205.54962 221.37681 
L 205.54962 220.623137 
L 205.733947 220.623137 
L 205.733947 219.869464 
L 206.758843 219.869464 
L 206.815424 218.362118 
L 207.170581 218.362118 
L 207.170581 217.608444 
L 207.518325 217.608444 
L 207.518325 215.347425 
L 207.760979 215.347425 
L 207.857057 213.840078 
L 209.564254 213.840078 
L 209.564254 213.086405 
L 210.129345 213.086405 
L 210.178848 211.579059 
L 210.370629 211.579059 
L 210.370629 210.825386 
L 211.532959 210.825386 
L 211.532959 210.071712 
L 212.05723 210.071712 
L 212.05723 208.564366 
L 212.866472 208.564366 
L 212.866472 207.810693 
L 213.430059 207.810693 
L 213.430059 207.05702 
L 214.238827 207.05702 
L 214.238827 206.303346 
L 214.565878 206.303346 
L 214.565878 205.549673 
L 215.094466 205.549673 
L 215.094466 204.796 
L 215.389324 204.796 
L 215.389324 204.042327 
L 216.224945 204.042327 
L 216.224945 203.288654 
L 216.381023 203.288654 
L 216.381023 202.53498 
L 217.113927 202.53498 
L 217.113927 201.781307 
L 218.634226 201.781307 
L 218.634226 201.027634 
L 218.961277 201.027634 
L 218.961277 200.273961 
L 219.158497 200.273961 
L 219.158497 199.520288 
L 220.395657 199.520288 
L 220.395657 198.766614 
L 220.740738 198.766614 
L 220.740738 198.012941 
L 220.929219 198.012941 
L 220.929219 197.259268 
L 221.095862 197.259268 
L 221.095862 196.505595 
L 221.371352 196.505595 
L 221.371352 195.751922 
L 221.698403 195.751922 
L 221.698403 194.998248 
L 223.697401 194.998248 
L 223.757212 192.737229 
L 224.130304 192.737229 
L 224.130304 191.983556 
L 225.481815 191.983556 
L 225.481815 191.229882 
L 226.962356 191.229882 
L 226.962356 190.476209 
L 228.669209 190.476209 
L 228.669209 189.722536 
L 228.83885 189.722536 
L 228.939352 188.21519 
L 229.137055 188.21519 
L 229.245618 186.707843 
L 229.297107 186.707843 
L 229.400368 185.200497 
L 229.572669 185.200497 
L 229.572669 184.446824 
L 229.955905 184.446824 
L 229.955905 183.69315 
L 230.967576 183.69315 
L 230.967576 182.939477 
L 231.908235 182.939477 
L 231.908235 182.185804 
L 232.27902 182.185804 
L 232.27902 181.432131 
L 232.837494 181.432131 
L 232.844597 179.924784 
L 232.993002 179.924784 
L 232.993002 179.171111 
L 234.165287 179.171111 
L 234.165287 178.417438 
L 234.446498 178.417438 
L 234.446498 177.663765 
L 234.813302 177.663765 
L 234.813302 176.910092 
L 235.496133 176.910092 
L 235.496133 176.156418 
L 236.102653 176.156418 
L 236.211216 174.649072 
L 236.710402 174.649072 
L 236.710402 173.895399 
L 237.206738 173.895399 
L 237.265734 172.388052 
L 237.457515 172.388052 
L 237.457515 171.634379 
L 237.707841 171.634379 
L 237.768255 170.127033 
L 238.323793 170.127033 
L 238.323793 169.373359 
L 238.537739 169.373359 
L 238.537739 168.619686 
L 239.265106 168.619686 
L 239.265106 167.866013 
L 239.810195 167.866013 
L 239.810195 167.11234 
L 240.276123 167.11234 
L 240.276123 166.358667 
L 240.421442 166.358667 
L 240.448301 164.85132 
L 241.342375 164.85132 
L 241.342375 164.097647 
L 241.669426 164.097647 
L 241.707295 161.836627 
L 242.398438 161.836627 
L 242.398438 161.082954 
L 243.676 161.082954 
L 243.676 157.314588 
L 244.001014 157.314588 
L 244.001014 156.560915 
L 244.318315 156.560915 
L 244.328065 155.053569 
L 245.5731 155.053569 
L 245.633622 153.546222 
L 245.721929 153.546222 
L 245.825403 151.285203 
L 246.422134 151.285203 
L 246.422134 150.531529 
L 247.04262 150.531529 
L 247.04262 149.024183 
L 247.369671 149.024183 
L 247.369671 148.27051 
L 247.673534 148.27051 
L 247.673534 147.516837 
L 248.214905 147.516837 
L 248.214905 146.00949 
L 249.220808 146.00949 
L 249.220808 145.255817 
L 249.587734 145.255817 
L 249.587734 144.502144 
L 250.287939 144.502144 
L 250.287939 143.748471 
L 250.641598 143.748471 
L 250.641598 142.994797 
L 250.817532 142.994797 
L 250.817532 142.241124 
L 250.945411 142.241124 
L 250.945411 141.487451 
L 251.418255 141.487451 
L 251.418255 140.733778 
L 251.717193 140.733778 
L 251.717193 139.980105 
L 252.538698 139.980105 
L 252.538698 139.226431 
L 252.823195 139.226431 
L 252.841278 137.719085 
L 253.150247 137.719085 
L 253.150247 136.965412 
L 253.547714 136.965412 
L 253.554659 135.458065 
L 253.886918 135.458065 
L 253.886918 134.704392 
L 254.579025 134.704392 
L 254.579025 133.950719 
L 254.760703 133.950719 
L 254.760703 133.197046 
L 255.147627 133.197046 
L 255.147627 132.443373 
L 255.316171 132.443373 
L 255.316171 131.689699 
L 256.178414 131.689699 
L 256.256098 129.42868 
L 256.505465 129.42868 
L 256.505465 128.675007 
L 257.026636 128.675007 
L 257.026636 127.921333 
L 257.517885 127.921333 
L 257.517885 127.16766 
L 257.910772 127.16766 
L 257.910772 126.413987 
L 258.086619 126.413987 
L 258.15852 123.399294 
L 258.499479 123.399294 
L 258.587364 121.891948 
L 259.089877 121.891948 
L 259.089877 121.138275 
L 259.255632 121.138275 
L 259.255632 120.384601 
L 259.648519 120.384601 
L 259.648519 119.630928 
L 260.287979 119.630928 
L 260.325111 118.123582 
L 261.428925 118.123582 
L 261.428925 117.369908 
L 261.565541 117.369908 
L 261.565541 115.862562 
L 261.845244 115.862562 
L 261.845244 115.108889 
L 262.670334 115.108889 
L 262.764347 112.847869 
L 263.157235 112.847869 
L 263.231851 110.58685 
L 263.568973 110.58685 
L 263.654599 109.079503 
L 263.728643 109.079503 
L 263.833826 106.06481 
L 263.965353 106.06481 
L 263.965353 105.311137 
L 264.159371 105.311137 
L 264.245565 103.803791 
L 264.404497 103.803791 
L 264.404497 103.050118 
L 264.826884 103.050118 
L 264.835963 100.789098 
L 265.739719 100.789098 
L 265.739719 100.035425 
L 266.256138 100.035425 
L 266.256138 99.281752 
L 266.384149 99.281752 
L 266.423363 97.020732 
L 267.253577 97.020732 
L 267.253577 96.267059 
L 268.219789 96.267059 
L 268.219789 95.513386 
L 269.002272 95.513386 
L 269.002272 94.759712 
L 270.113886 94.759712 
L 270.113886 94.006039 
L 270.604173 94.006039 
L 270.604173 93.252366 
L 270.795042 93.252366 
L 270.795042 91.74502 
L 271.097218 91.74502 
L 271.09997 90.237673 
L 271.288999 90.237673 
L 271.288999 89.484 
L 271.492857 89.484 
L 271.492857 88.730327 
L 272.169449 88.730327 
L 272.169449 87.976654 
L 272.368891 87.976654 
L 272.368891 87.22298 
L 272.591341 87.22298 
L 272.591341 86.469307 
L 272.868077 86.469307 
L 272.868077 84.961961 
L 273.525681 84.961961 
L 273.525681 84.208288 
L 274.337596 84.208288 
L 274.337596 83.454614 
L 274.698598 83.454614 
L 274.698598 82.700941 
L 275.96787 82.700941 
L 275.96787 81.947268 
L 276.12942 81.947268 
L 276.234696 79.686248 
L 276.467055 79.686248 
L 276.467055 78.932575 
L 276.690938 78.932575 
L 276.690938 78.178902 
L 277.246475 78.178902 
L 277.246475 77.425229 
L 277.406982 77.425229 
L 277.406982 75.917882 
L 277.86497 75.917882 
L 277.936575 74.410536 
L 279.198805 74.410536 
L 279.225926 72.90319 
L 279.833675 72.90319 
L 279.833675 71.395843 
L 280.352729 71.395843 
L 280.352729 70.64217 
L 281.00596 70.64217 
L 281.00596 69.134824 
L 281.375595 69.134824 
L 281.438863 67.627477 
L 281.730775 67.627477 
L 281.730775 66.873804 
L 283.200294 66.873804 
L 283.200294 66.120131 
L 283.561296 66.120131 
L 283.561296 65.366458 
L 284.556304 65.366458 
L 284.556304 64.612784 
L 284.748085 64.612784 
L 284.748085 63.859111 
L 285.006502 63.859111 
L 285.006502 63.105438 
L 286.799273 63.105438 
L 286.799273 62.351765 
L 287.874868 62.351765 
L 287.874868 61.598092 
L 288.361721 61.598092 
L 288.361721 60.844418 
L 289.705389 60.844418 
L 289.705389 60.090745 
L 290.301561 60.090745 
L 290.301561 59.337072 
L 293.184311 59.337072 
L 293.184311 57.829725 
L 293.394229 57.829725 
L 293.394229 57.076052 
L 294.685564 57.076052 
L 294.685564 56.322379 
L 296.445654 56.322379 
L 296.445654 55.568706 
L 297.723216 55.568706 
L 297.723216 54.061359 
L 298.002919 54.061359 
L 298.002919 53.307686 
L 302.256927 53.307686 
L 302.256927 52.554013 
L 302.413812 52.554013 
L 302.413812 51.80034 
L 303.252938 51.80034 
L 303.252938 51.046667 
L 303.633072 51.046667 
L 303.633072 50.292993 
L 304.655938 50.292993 
L 304.655938 49.53932 
L 306.851916 49.53932 
L 306.851916 48.785647 
L 308.526566 48.785647 
L 308.526566 48.031974 
L 309.025752 48.031974 
L 309.025752 47.278301 
L 312.125544 47.278301 
L 312.125544 46.524627 
L 312.392371 46.524627 
L 312.49577 45.017281 
L 312.62473 45.017281 
L 312.62473 44.263608 
L 313.518636 44.263608 
L 313.518636 43.509935 
L 314.222892 43.509935 
L 314.222892 42.756261 
L 315.919205 42.756261 
L 315.99135 41.248915 
L 317.821871 41.248915 
L 317.821871 40.495242 
L 318.402019 40.495242 
L 318.402019 39.741569 
L 319.170093 39.741569 
L 319.170093 38.987895 
L 320.963157 38.987895 
L 320.963157 38.234222 
L 323.38078 38.234222 
L 323.38078 37.480549 
L 324.098873 37.480549 
L 324.098873 36.726876 
L 324.562136 36.726876 
L 324.562136 35.973203 
L 327.674973 35.973203 
L 327.674973 35.219529 
L 328.002025 35.219529 
L 328.002025 34.465856 
L 329.341986 34.465856 
L 329.341986 33.712183 
L 332.918523 33.712183 
L 332.918523 32.95851 
L 336.517502 32.95851 
L 336.517502 32.204837 
L 343.157366 32.204837 
L 343.157366 31.451163 
L 344.180232 31.451163 
L 344.180232 30.69749 
L 346.014461 30.69749 
L 346.014461 29.943817 
L 346.495451 29.943817 
L 346.495451 29.190144 
L 346.756345 29.190144 
L 346.756345 28.436471 
L 347.779211 28.436471 
L 347.779211 27.682797 
L 350.691068 27.682797 
L 350.691068 26.929124 
L 351.083956 26.929124 
L 351.083956 26.175451 
L 351.449332 26.175451 
L 351.449332 25.421778 
L 351.760547 25.421778 
L 351.760547 24.668105 
L 359.85828 24.668105 
L 359.85828 23.914431 
L 371.123945 23.914431 
L 371.123945 23.160758 
L 373.582337 23.160758 
L 373.606759 21.653412 
L 378.536218 21.653412 
L 378.58552 20.146065 
L 379.303613 20.146065 
L 379.303613 19.392392 
L 379.628825 19.392392 
L 379.628825 18.638719 
L 379.955877 18.638719 
L 379.955877 17.885046 
L 381.950225 17.885046 
L 381.950225 17.131373 
L 382.11164 17.131373 
L 382.11164 16.377699 
L 382.438691 16.377699 
L 382.438691 15.624026 
L 386.904106 15.624026 
L 386.904106 14.870353 
L 387.0904 14.870353 
L 387.0904 14.11668 
L 387.417451 14.11668 
L 387.417451 13.363007 
L 387.808493 13.363007 
L 387.808493 12.609333 
L 388.135545 12.609333 
L 388.135545 11.85566 
L 407.413821 11.85566 
L 407.413821 11.101987 
L 411.812132 11.101987 
L 411.812132 10.348314 
L 412.367702 10.348314 
L 412.367702 9.594641 
L 414.294946 9.594641 
L 414.294946 8.840967 
L 419.273707 8.840967 
L 419.273707 8.087294 
L 419.9918 8.087294 
L 419.9918 7.333621 
L 420.872907 7.333621 
L 420.872907 6.579948 
L 425.826788 6.579948 
L 425.826788 5.826275 
L 453.192 5.826275 
L 453.192 5.826275 
" clip-path="url(#p169b9b32ba)" style="fill: none; stroke: #000000; stroke-width: 3; stroke-linecap: square"/>
   </g>
   <g id="line2d_46">
    <path clip-path="url(#p169b9b32ba)" style="fill: none; stroke: #000000; stroke-width: 3; stroke-linecap: square"/>
   </g>
   <g id="line2d_47">
    <path d="M 34.16 253.668808 
L 129.346901 253.668808 
L 129.346901 252.799186 
L 130.331786 252.799186 
L 130.331786 251.929563 
L 132.497656 251.929563 
L 132.497656 251.05994 
L 134.81646 251.05994 
L 134.81646 250.190317 
L 136.171458 250.190317 
L 136.171458 249.320694 
L 136.634631 249.320694 
L 136.634631 248.451071 
L 141.632632 248.451071 
L 141.632632 247.581448 
L 146.241322 247.581448 
L 146.241322 246.711825 
L 151.48267 246.711825 
L 151.48267 245.842202 
L 151.742195 245.842202 
L 151.742195 244.972579 
L 158.372529 244.972579 
L 158.372529 244.102956 
L 173.926197 244.102956 
L 173.926197 243.233333 
L 185.775572 243.233333 
L 185.775572 242.36371 
L 187.816548 242.36371 
L 187.816548 241.494087 
L 189.226485 241.494087 
L 189.226485 240.624465 
L 189.62648 240.624465 
L 189.62648 239.754842 
L 194.092804 239.754842 
L 194.092804 238.885219 
L 194.722564 238.885219 
L 194.826789 237.145973 
L 198.923951 237.145973 
L 198.923951 236.27635 
L 199.617648 236.27635 
L 199.617648 235.406727 
L 200.447663 235.406727 
L 200.447663 234.537104 
L 200.634298 234.537104 
L 200.634298 233.667481 
L 201.287796 233.667481 
L 201.287796 232.797858 
L 201.46599 232.797858 
L 201.46599 231.928235 
L 203.754007 231.928235 
L 203.754007 231.058612 
L 204.146263 231.058612 
L 204.146263 230.188989 
L 204.666179 230.188989 
L 204.666179 229.319367 
L 205.775196 229.319367 
L 205.775196 228.449744 
L 206.117852 228.449744 
L 206.117852 227.580121 
L 210.68558 227.580121 
L 210.68558 226.710498 
L 216.169088 226.710498 
L 216.169088 225.840875 
L 217.412803 225.840875 
L 217.412803 224.971252 
L 218.478145 224.971252 
L 218.532932 222.362383 
L 218.891546 222.362383 
L 218.891546 221.49276 
L 219.553186 221.49276 
L 219.553186 220.623137 
L 219.776648 220.623137 
L 219.776648 219.753514 
L 219.888082 219.753514 
L 219.888082 218.883891 
L 220.364524 218.883891 
L 220.462677 217.144646 
L 220.718643 217.144646 
L 220.718643 216.275023 
L 220.857816 216.275023 
L 220.857816 215.4054 
L 221.788058 215.4054 
L 221.893768 213.666154 
L 221.91703 213.666154 
L 221.99023 211.926908 
L 222.48383 211.926908 
L 222.48383 211.057285 
L 222.826521 211.057285 
L 222.826521 210.187662 
L 223.099711 210.187662 
L 223.099711 209.318039 
L 223.303705 209.318039 
L 223.303705 208.448416 
L 223.721602 208.448416 
L 223.721602 207.578793 
L 224.548818 207.578793 
L 224.548818 206.70917 
L 224.7544 206.70917 
L 224.847675 204.969925 
L 225.19458 204.969925 
L 225.19458 204.100302 
L 225.38416 204.100302 
L 225.488385 201.491433 
L 225.971194 201.491433 
L 225.971194 200.62181 
L 226.305365 200.62181 
L 226.305365 199.752187 
L 226.420391 199.752187 
L 226.420391 198.882564 
L 226.912663 198.882564 
L 226.912663 198.012941 
L 227.085679 198.012941 
L 227.085679 197.143318 
L 227.381131 197.143318 
L 227.381131 196.273695 
L 227.649758 196.273695 
L 227.649758 195.404072 
L 228.170023 195.404072 
L 228.170023 194.534449 
L 228.495617 194.534449 
L 228.495617 193.664827 
L 228.669209 193.664827 
L 228.669209 192.795204 
L 228.784236 192.795204 
L 228.799784 191.055958 
L 228.904008 191.055958 
L 228.904008 190.186335 
L 229.08513 190.186335 
L 229.08513 189.316712 
L 230.070014 189.316712 
L 230.070014 188.447089 
L 230.507319 188.447089 
L 230.507319 187.577466 
L 231.109259 187.577466 
L 231.109259 186.707843 
L 231.295894 186.707843 
L 231.295894 185.83822 
L 231.969588 185.83822 
L 231.969588 184.968597 
L 232.127587 184.968597 
L 232.235884 183.229351 
L 232.24745 183.229351 
L 232.24745 182.359729 
L 232.871164 182.359729 
L 232.981435 178.881237 
L 233.361935 178.881237 
L 233.361935 178.011614 
L 233.991695 178.011614 
L 234.09592 175.402745 
L 234.524882 175.402745 
L 234.554688 173.663499 
L 234.711518 173.663499 
L 234.807859 171.924253 
L 234.916809 171.924253 
L 235.006757 170.185008 
L 235.120343 170.185008 
L 235.120343 169.315385 
L 235.327776 169.315385 
L 235.327776 168.445762 
L 235.54321 168.445762 
L 235.54321 167.576139 
L 235.909687 167.576139 
L 235.909687 166.706516 
L 236.136682 166.706516 
L 236.136682 165.836893 
L 236.331711 165.836893 
L 236.436793 163.228024 
L 236.5214 163.228024 
L 236.5214 162.358401 
L 237.157065 162.358401 
L 237.172627 160.619155 
L 237.304375 160.619155 
L 237.380398 158.87991 
L 237.439147 158.87991 
L 237.439147 158.010287 
L 237.60966 158.010287 
L 237.60966 157.140664 
L 238.223483 157.140664 
L 238.223483 156.271041 
L 238.461566 156.271041 
L 238.461566 155.401418 
L 238.602308 155.401418 
L 238.695555 153.662172 
L 238.743399 153.662172 
L 238.853376 150.18368 
L 238.885244 150.18368 
L 238.885244 149.314057 
L 239.23108 149.314057 
L 239.257318 147.574811 
L 239.491431 147.574811 
L 239.52078 145.835566 
L 239.620636 145.835566 
L 239.716794 144.09632 
L 239.746865 144.09632 
L 239.852416 142.357074 
L 239.903429 142.357074 
L 239.934544 140.617828 
L 240.215965 140.617828 
L 240.215965 139.748205 
L 240.430272 139.748205 
L 240.430272 138.878582 
L 240.735122 138.878582 
L 240.735122 138.008959 
L 240.846429 138.008959 
L 240.846429 137.139336 
L 240.993758 137.139336 
L 240.993758 136.269713 
L 241.309602 136.269713 
L 241.370861 133.660845 
L 241.798644 133.660845 
L 241.903249 131.921599 
L 242.300909 131.921599 
L 242.381835 130.182353 
L 242.451425 130.182353 
L 242.451425 129.31273 
L 242.820825 129.31273 
L 242.820825 128.443107 
L 243.067306 128.443107 
L 243.067306 127.573484 
L 243.415394 127.573484 
L 243.415394 126.703861 
L 243.924403 126.703861 
L 243.93531 124.094992 
L 244.255319 124.094992 
L 244.255319 123.22537 
L 244.516413 123.22537 
L 244.540284 121.486124 
L 244.700639 121.486124 
L 244.7628 119.746878 
L 244.831347 119.746878 
L 244.831347 118.877255 
L 245.044328 118.877255 
L 245.044328 118.007632 
L 245.979551 118.007632 
L 246.055637 115.398763 
L 246.272959 115.398763 
L 246.307603 113.659517 
L 246.387986 113.659517 
L 246.387986 112.789894 
L 246.51881 112.789894 
L 246.51881 111.920271 
L 247.038454 111.920271 
L 247.038454 111.050649 
L 247.745937 111.050649 
L 247.745937 110.181026 
L 247.860964 110.181026 
L 247.860964 109.311403 
L 248.840226 109.311403 
L 248.864009 107.572157 
L 249.954711 107.572157 
L 249.954711 106.702534 
L 250.474914 106.702534 
L 250.474914 105.832911 
L 250.916293 105.832911 
L 250.916293 104.963288 
L 251.220898 104.963288 
L 251.220898 104.093665 
L 251.380239 104.093665 
L 251.480424 102.354419 
L 251.516811 102.354419 
L 251.516811 101.484796 
L 251.947892 101.484796 
L 251.947892 100.615173 
L 252.161946 100.615173 
L 252.161946 99.745551 
L 252.423322 99.745551 
L 252.423322 98.875928 
L 253.194118 98.875928 
L 253.194118 98.006305 
L 253.405661 98.006305 
L 253.405661 97.136682 
L 254.105356 97.136682 
L 254.205667 95.397436 
L 254.364882 95.397436 
L 254.364882 94.527813 
L 254.48683 94.527813 
L 254.48683 93.65819 
L 254.624666 93.65819 
L 254.624666 92.788567 
L 254.795862 92.788567 
L 254.795862 91.918944 
L 255.546044 91.918944 
L 255.546044 91.049321 
L 256.125501 91.049321 
L 256.157641 89.310075 
L 256.299305 89.310075 
L 256.299305 88.440452 
L 256.417166 88.440452 
L 256.488995 85.831584 
L 257.694084 85.831584 
L 257.772283 84.092338 
L 257.961972 84.092338 
L 257.961972 83.222715 
L 258.476688 83.222715 
L 258.476688 82.353092 
L 258.873288 82.353092 
L 258.970938 80.613846 
L 259.092569 80.613846 
L 259.092569 79.744223 
L 259.987774 79.744223 
L 259.987774 78.8746 
L 260.541676 78.8746 
L 260.541676 78.004977 
L 261.366849 78.004977 
L 261.366849 77.135354 
L 261.626374 77.135354 
L 261.626374 76.265732 
L 262.298223 76.265732 
L 262.298223 75.396109 
L 262.413249 75.396109 
L 262.413249 74.526486 
L 263.864416 74.526486 
L 263.864416 73.656863 
L 266.500177 73.656863 
L 266.500177 72.78724 
L 272.324569 72.78724 
L 272.324569 71.917617 
L 272.514258 71.917617 
L 272.514258 71.047994 
L 296.079853 71.047994 
L 296.079853 70.178371 
L 296.498852 70.178371 
L 296.498852 69.308748 
L 299.355876 69.308748 
L 299.355876 68.439125 
L 299.56827 68.439125 
L 299.56827 67.569502 
L 300.845124 67.569502 
L 300.845124 66.699879 
L 302.240334 66.699879 
L 302.240334 65.830256 
L 304.292619 65.830256 
L 304.292619 64.960633 
L 305.358258 64.960633 
L 305.358258 64.091011 
L 309.501827 64.091011 
L 309.501827 63.221388 
L 338.099407 63.221388 
L 338.099407 62.351765 
L 341.536873 62.351765 
L 341.572916 60.612519 
L 342.662797 60.612519 
L 342.662797 59.742896 
L 344.421331 59.742896 
L 344.421331 58.873273 
L 346.473615 58.873273 
L 346.473615 58.00365 
L 346.776682 58.00365 
L 346.776682 57.134027 
L 349.66114 57.134027 
L 349.66114 56.264404 
L 351.682823 56.264404 
L 351.713425 54.525158 
L 352.161551 54.525158 
L 352.161551 53.655535 
L 352.932346 53.655535 
L 352.932346 52.785913 
L 355.046009 52.785913 
L 355.046009 51.91629 
L 355.816804 51.91629 
L 355.816804 51.046667 
L 356.922633 51.046667 
L 356.922633 50.177044 
L 357.098293 50.177044 
L 357.098293 49.307421 
L 357.869088 49.307421 
L 357.869088 48.437798 
L 362.307501 48.437798 
L 362.307501 47.568175 
L 363.078297 47.568175 
L 363.078297 46.698552 
L 368.761004 46.698552 
L 368.761004 45.828929 
L 372.176627 45.828929 
L 372.176627 44.959306 
L 373.324393 44.959306 
L 373.324393 44.089683 
L 373.788353 44.089683 
L 373.788353 43.22006 
L 374.207352 43.22006 
L 374.207352 42.350437 
L 376.254053 42.350437 
L 376.254053 41.480814 
L 376.740016 41.480814 
L 376.740016 40.611192 
L 377.27677 40.611192 
L 377.368538 38.871946 
L 378.553623 38.871946 
L 378.553623 38.002323 
L 380.817443 38.002323 
L 380.817443 37.1327 
L 381.931928 37.1327 
L 381.931928 36.263077 
L 453.192 36.263077 
L 453.192 36.263077 
" clip-path="url(#p169b9b32ba)" style="fill: none; stroke: #00bfbf; stroke-width: 3; stroke-linecap: square"/>
   </g>
   <g id="line2d_48">
    <path clip-path="url(#p169b9b32ba)" style="fill: none; stroke: #00bfbf; stroke-width: 3; stroke-linecap: square"/>
   </g>
   <g id="line2d_49">
    <path d="M 34.16 275.751368 
L 114.961835 275.751368 
L 114.961835 274.692838 
L 115.823511 274.692838 
L 115.823511 273.634309 
L 116.624252 273.634309 
L 116.624252 272.575779 
L 117.066093 272.575779 
L 117.066093 271.517249 
L 117.485928 271.517249 
L 117.485928 270.458719 
L 117.911653 270.458719 
L 117.927769 268.34166 
L 118.127656 268.34166 
L 118.127656 267.28313 
L 118.77333 267.28313 
L 118.77333 266.2246 
L 118.956318 266.2246 
L 118.989332 264.107541 
L 119.817994 264.107541 
L 119.817994 263.049011 
L 120.058425 263.049011 
L 120.058425 261.990481 
L 120.920102 261.990481 
L 120.920102 260.931951 
L 122.740605 260.931951 
L 122.740605 259.873421 
L 123.602282 259.873421 
L 123.602282 258.814892 
L 123.983546 258.814892 
L 123.983546 257.756362 
L 124.845223 257.756362 
L 124.845223 256.697832 
L 127.069443 256.697832 
L 127.069443 255.639302 
L 127.931119 255.639302 
L 127.931119 254.580773 
L 152.126112 254.580773 
L 152.126112 253.522243 
L 152.987788 253.522243 
L 152.987788 252.463713 
L 183.95972 252.463713 
L 183.95972 251.405183 
L 185.039504 251.405183 
L 185.039504 250.346653 
L 186.575759 250.346653 
L 186.575759 249.288124 
L 188.958619 249.288124 
L 188.958619 248.229594 
L 190.030898 248.229594 
L 190.030898 247.171064 
L 192.682766 247.171064 
L 192.682766 246.112534 
L 192.820555 246.112534 
L 192.820555 245.054005 
L 196.452107 245.054005 
L 196.452107 243.995475 
L 197.235704 243.995475 
L 197.292174 241.878415 
L 198.097381 241.878415 
L 198.097381 240.819885 
L 198.847142 240.819885 
L 198.847142 239.761356 
L 199.060311 239.761356 
L 199.060311 238.702826 
L 199.921988 238.702826 
L 200.021491 236.585766 
L 200.825805 236.585766 
L 200.912027 234.468707 
L 201.469025 234.468707 
L 201.469025 233.410177 
L 202.10441 233.410177 
L 202.10441 232.351647 
L 202.607205 232.351647 
L 202.607205 231.293117 
L 203.186918 231.293117 
L 203.186918 230.234588 
L 203.943843 230.234588 
L 204.048594 228.117528 
L 204.771678 228.117528 
L 204.776827 226.000469 
L 204.931541 226.000469 
L 204.931541 224.941939 
L 205.346969 224.941939 
L 205.346969 223.883409 
L 205.951407 223.883409 
L 205.951407 222.824879 
L 206.208646 222.824879 
L 206.208646 221.766349 
L 208.215747 221.766349 
L 208.215747 220.70782 
L 208.705309 220.70782 
L 208.705309 219.64929 
L 209.583226 219.64929 
L 209.583226 218.59076 
L 209.748634 218.59076 
L 209.748634 217.53223 
L 210.362237 217.53223 
L 210.362237 216.473701 
L 213.244214 216.473701 
L 213.244214 215.415171 
L 214.287539 215.415171 
L 214.287539 214.356641 
L 214.758844 214.356641 
L 214.758844 213.298111 
L 214.971645 213.298111 
L 214.971645 212.239581 
L 216.613382 212.239581 
L 216.613382 211.181052 
L 217.397778 211.181052 
L 217.397778 210.122522 
L 217.700962 210.122522 
L 217.700962 209.063992 
L 219.016192 209.063992 
L 219.060902 206.946933 
L 219.22942 206.946933 
L 219.22942 205.888403 
L 219.386931 205.888403 
L 219.386931 204.829873 
L 220.576916 204.829873 
L 220.576916 203.771343 
L 221.521354 203.771343 
L 221.623314 200.595754 
L 221.654426 200.595754 
L 221.654426 199.537224 
L 222.239333 199.537224 
L 222.286872 197.420165 
L 222.456297 197.420165 
L 222.456297 196.361635 
L 222.611012 196.361635 
L 222.684559 193.186045 
L 223.316843 193.186045 
L 223.316843 192.127516 
L 223.526734 192.127516 
L 223.630878 190.010456 
L 223.67031 190.010456 
L 223.758684 186.834867 
L 223.996339 186.834867 
L 223.996339 185.776337 
L 224.137392 185.776337 
L 224.137392 184.717807 
L 224.571399 184.717807 
L 224.604245 182.600748 
L 224.820247 182.600748 
L 224.820247 181.542218 
L 225.474217 181.542218 
L 225.474217 180.483688 
L 225.648909 180.483688 
L 225.673506 178.366628 
L 226.365967 178.366628 
L 226.399626 175.191039 
L 226.520253 175.191039 
L 226.520253 174.132509 
L 226.725655 174.132509 
L 226.751017 172.01545 
L 226.896281 172.01545 
L 226.896281 170.95692 
L 227.428105 170.95692 
L 227.428105 169.89839 
L 227.592531 169.89839 
L 227.592531 168.83986 
L 227.855855 168.83986 
L 227.855855 167.781331 
L 228.028385 167.781331 
L 228.028385 166.722801 
L 228.355686 166.722801 
L 228.355686 165.664271 
L 228.470226 165.664271 
L 228.470226 164.605741 
L 228.810381 164.605741 
L 228.810381 163.547212 
L 228.923197 163.547212 
L 228.923197 162.488682 
L 229.315786 162.488682 
L 229.315786 161.430152 
L 229.433196 161.430152 
L 229.531789 159.313092 
L 229.598627 159.313092 
L 229.625597 157.196033 
L 230.321978 157.196033 
L 230.382189 154.020444 
L 230.471894 154.020444 
L 230.471894 152.961914 
L 230.648007 152.961914 
L 230.676137 150.844854 
L 230.923685 150.844854 
L 230.923685 149.786324 
L 231.154962 149.786324 
L 231.154962 148.727795 
L 231.309676 148.727795 
L 231.309676 147.669265 
L 231.462558 147.669265 
L 231.539235 143.435146 
L 231.635706 143.435146 
L 231.635706 142.376616 
L 231.96701 142.376616 
L 231.96701 141.318086 
L 232.329543 141.318086 
L 232.438315 139.201027 
L 232.655572 139.201027 
L 232.684524 137.083967 
L 232.854754 137.083967 
L 232.854754 136.025437 
L 233.479467 136.025437 
L 233.565689 132.849848 
L 233.762034 132.849848 
L 233.762034 131.791318 
L 233.922096 131.791318 
L 233.927033 129.674259 
L 234.122687 129.674259 
L 234.144738 127.557199 
L 234.380933 127.557199 
L 234.380933 126.498669 
L 234.535647 126.498669 
L 234.535647 125.44014 
L 234.758072 125.44014 
L 234.758072 124.38161 
L 234.994374 124.38161 
L 235.083445 122.26455 
L 235.260866 122.26455 
L 235.260866 121.20602 
L 235.387679 121.20602 
L 235.409474 119.088961 
L 235.555513 119.088961 
L 235.555513 118.030431 
L 236.12677 118.030431 
L 236.12677 116.971901 
L 236.408775 116.971901 
L 236.452799 114.854842 
L 236.695663 114.854842 
L 236.71669 112.737782 
L 237.42534 112.737782 
L 237.42534 111.679252 
L 237.784032 111.679252 
L 237.784032 110.620723 
L 238.309416 110.620723 
L 238.387438 108.503663 
L 238.473576 108.503663 
L 238.473661 106.386604 
L 239.030659 106.386604 
L 239.030659 105.328074 
L 239.35274 105.328074 
L 239.35274 104.269544 
L 239.62235 104.269544 
L 239.666044 102.152484 
L 239.948379 102.152484 
L 239.948379 101.093955 
L 240.168838 101.093955 
L 240.168838 100.035425 
L 240.665675 100.035425 
L 240.665675 98.976895 
L 240.869409 98.976895 
L 240.869409 97.918365 
L 240.991704 97.918365 
L 240.991704 96.859835 
L 241.136979 96.859835 
L 241.136979 95.801306 
L 241.463008 95.801306 
L 241.463008 94.742776 
L 242.236888 94.742776 
L 242.333312 92.625716 
L 242.743277 92.625716 
L 242.84832 90.508657 
L 243.810618 90.508657 
L 243.891645 88.391597 
L 244.36295 88.391597 
L 244.36295 87.333067 
L 244.72194 87.333067 
L 244.808162 85.216008 
L 245.36516 85.216008 
L 245.394327 83.098948 
L 245.720356 83.098948 
L 245.789281 79.923359 
L 245.875504 79.923359 
L 245.875504 78.864829 
L 246.000545 78.864829 
L 246.000545 77.806299 
L 246.432502 77.806299 
L 246.50334 75.68924 
L 247.067887 75.68924 
L 247.14486 73.57218 
L 247.570681 73.57218 
L 247.570681 72.513651 
L 248.620298 72.513651 
L 248.667813 70.396591 
L 249.735155 70.396591 
L 249.735155 69.338061 
L 251.802109 69.338061 
L 251.802109 68.279531 
L 251.966315 68.279531 
L 251.966315 67.221002 
L 252.111882 67.221002 
L 252.111882 66.162472 
L 253.179224 66.162472 
L 253.179224 65.103942 
L 253.479361 65.103942 
L 253.479361 64.045412 
L 254.546703 64.045412 
L 254.546703 62.986883 
L 257.741193 62.986883 
L 257.741193 61.928353 
L 258.818703 61.928353 
L 258.818703 60.869823 
L 263.214712 60.869823 
L 263.214712 59.811293 
L 263.378918 59.811293 
L 263.378918 58.752763 
L 263.530245 58.752763 
L 263.530245 57.694234 
L 297.816175 57.694234 
L 297.816175 56.635704 
L 302.850785 56.635704 
L 302.850785 55.577174 
L 303.928295 55.577174 
L 303.928295 54.518644 
L 304.675392 54.518644 
L 304.675392 53.460115 
L 305.752902 53.460115 
L 305.752902 52.401585 
L 308.639837 52.401585 
L 308.639837 51.343055 
L 308.801999 51.343055 
L 308.801999 50.284525 
L 309.879509 50.284525 
L 309.879509 49.225995 
L 310.464444 49.225995 
L 310.464444 48.167466 
L 310.96205 48.167466 
L 310.96205 47.108936 
L 312.03956 47.108936 
L 312.03956 46.050406 
L 314.591051 46.050406 
L 314.591051 44.991876 
L 316.751102 44.991876 
L 316.751102 43.933347 
L 317.417292 43.933347 
L 317.417292 42.874817 
L 317.72631 42.874817 
L 317.72631 41.816287 
L 330.469837 41.816287 
L 330.469837 40.757757 
L 335.096763 40.757757 
L 335.096763 39.699227 
L 335.377809 39.699227 
L 335.405781 37.582168 
L 341.71231 37.582168 
L 341.71231 36.523638 
L 342.779652 36.523638 
L 342.779652 35.465108 
L 343.795428 35.465108 
L 343.795428 34.406579 
L 344.104446 34.406579 
L 344.121457 32.289519 
L 344.430475 32.289519 
L 344.430475 31.230989 
L 347.021398 31.230989 
L 347.021398 30.172459 
L 347.330417 30.172459 
L 347.330417 29.11393 
L 453.192 29.11393 
L 453.192 29.11393 
" clip-path="url(#p169b9b32ba)" style="fill: none; stroke: #bf00bf; stroke-width: 3; stroke-linecap: square"/>
   </g>
   <g id="line2d_50">
    <path clip-path="url(#p169b9b32ba)" style="fill: none; stroke: #bf00bf; stroke-width: 3; stroke-linecap: square"/>
   </g>
   <g id="line2d_51">
    <path d="M 34.16 275.751368 
L 134.7969 275.751368 
L 134.7969 274.692838 
L 135.893801 274.692838 
L 135.893801 272.575779 
L 136.496074 272.575779 
L 136.519282 270.458719 
L 136.844682 270.458719 
L 136.844682 269.400189 
L 137.592976 269.400189 
L 137.592976 267.28313 
L 137.990529 267.28313 
L 138.005638 265.16607 
L 138.218457 265.16607 
L 138.218457 264.107541 
L 138.543856 264.107541 
L 138.636305 261.990481 
L 139.689703 261.990481 
L 139.704813 259.873421 
L 140.194887 259.873421 
L 140.194887 258.814892 
L 140.335479 258.814892 
L 140.335479 257.756362 
L 141.764506 257.756362 
L 141.764506 256.697832 
L 141.894061 256.697832 
L 141.894061 255.639302 
L 143.46368 255.639302 
L 143.46368 254.580773 
L 150.023249 254.580773 
L 150.023249 253.522243 
L 150.841147 253.522243 
L 150.841147 252.463713 
L 151.96508 252.463713 
L 151.96508 251.405183 
L 153.12748 251.405183 
L 153.12748 250.346653 
L 153.251608 250.346653 
L 153.251608 249.288124 
L 154.203709 249.288124 
L 154.203709 248.229594 
L 154.446618 248.229594 
L 154.446618 247.171064 
L 155.228348 247.171064 
L 155.228348 246.112534 
L 156.291761 246.112534 
L 156.349442 243.995475 
L 156.699526 243.995475 
L 156.699526 242.936945 
L 157.305258 242.936945 
L 157.305258 241.878415 
L 157.49135 241.878415 
L 157.49135 240.819885 
L 158.45062 240.819885 
L 158.45062 239.761356 
L 159.025898 239.761356 
L 159.025898 238.702826 
L 159.348095 238.702826 
L 159.348095 237.644296 
L 159.537025 237.644296 
L 159.537025 236.585766 
L 159.857237 236.585766 
L 159.857237 235.527237 
L 160.208515 235.527237 
L 160.2577 233.410177 
L 160.678933 233.410177 
L 160.678933 232.351647 
L 161.638202 232.351647 
L 161.638202 231.293117 
L 161.956874 231.293117 
L 161.956874 230.234588 
L 162.383845 230.234588 
L 162.383845 229.176058 
L 162.535678 229.176058 
L 162.535678 228.117528 
L 162.978208 228.117528 
L 163.04482 226.000469 
L 163.205955 226.000469 
L 163.205955 224.941939 
L 163.396098 224.941939 
L 163.396098 223.883409 
L 163.822079 223.883409 
L 163.822079 222.824879 
L 163.985157 222.824879 
L 163.985157 221.766349 
L 164.511666 221.766349 
L 164.511666 220.70782 
L 165.568754 220.70782 
L 165.568754 219.64929 
L 166.16579 219.64929 
L 166.16579 218.59076 
L 166.393538 218.59076 
L 166.393538 217.53223 
L 167.009661 217.53223 
L 167.009661 216.473701 
L 167.144018 216.473701 
L 167.172739 214.356641 
L 167.696915 214.356641 
L 167.699249 212.239581 
L 168.748257 212.239581 
L 168.793816 208.005462 
L 169.419298 208.005462 
L 169.466986 205.888403 
L 169.744697 205.888403 
L 169.845159 202.712813 
L 170.3316 202.712813 
L 170.3316 201.654284 
L 170.47064 201.654284 
L 170.47064 200.595754 
L 170.79604 200.595754 
L 170.905653 197.420165 
L 171.53632 197.420165 
L 171.53632 196.361635 
L 171.941887 196.361635 
L 171.956996 194.244575 
L 172.587663 194.244575 
L 172.654569 192.127516 
L 173.094902 192.127516 
L 173.094902 191.068986 
L 173.609398 191.068986 
L 173.609398 190.010456 
L 174.146244 190.010456 
L 174.146244 188.951926 
L 174.664521 188.951926 
L 174.706299 185.776337 
L 175.33178 185.776337 
L 175.33178 184.717807 
L 175.65718 184.717807 
L 175.715864 182.600748 
L 176.803027 182.600748 
L 176.818136 180.483688 
L 177.448803 180.483688 
L 177.448803 179.425158 
L 179.007385 179.425158 
L 179.007385 178.366628 
L 180.577004 178.366628 
L 180.577004 177.308099 
L 186.605069 177.308099 
L 186.605069 176.249569 
L 193.157715 176.249569 
L 193.157715 175.191039 
L 194.209058 175.191039 
L 194.209058 174.132509 
L 199.012116 174.132509 
L 199.070198 172.01545 
L 199.235766 172.01545 
L 199.235766 170.95692 
L 200.711291 170.95692 
L 200.711291 169.89839 
L 201.072477 169.89839 
L 201.072477 168.83986 
L 202.60867 168.83986 
L 202.60867 167.781331 
L 202.771652 167.781331 
L 202.771652 166.722801 
L 203.750579 166.722801 
L 203.750579 165.664271 
L 204.188224 165.664271 
L 204.188224 164.605741 
L 204.709848 164.605741 
L 204.709848 163.547212 
L 204.968229 163.547212 
L 204.968229 162.488682 
L 205.607324 162.488682 
L 205.607324 161.430152 
L 205.887398 161.430152 
L 205.887398 160.371622 
L 206.116466 160.371622 
L 206.116466 159.313092 
L 206.467743 159.313092 
L 206.467743 158.254563 
L 206.667403 158.254563 
L 206.667403 157.196033 
L 208.048591 157.196033 
L 208.048591 156.137503 
L 208.86649 156.137503 
L 208.86649 155.078973 
L 209.237436 155.078973 
L 209.237436 154.020444 
L 209.465184 154.020444 
L 209.465184 152.961914 
L 209.990422 152.961914 
L 210.081307 150.844854 
L 210.244385 150.844854 
L 210.244385 149.786324 
L 210.770895 149.786324 
L 210.770895 148.727795 
L 211.152823 148.727795 
L 211.152823 147.669265 
L 211.27695 147.669265 
L 211.27695 146.610735 
L 211.827982 146.610735 
L 211.827982 145.552205 
L 212.229052 145.552205 
L 212.229052 144.493676 
L 212.47196 144.493676 
L 212.47196 143.435146 
L 213.253691 143.435146 
L 213.253691 142.376616 
L 213.403246 142.376616 
L 213.403246 141.318086 
L 214.18187 141.318086 
L 214.18187 140.259556 
L 214.317103 140.259556 
L 214.317103 139.201027 
L 214.724868 139.201027 
L 214.724868 138.142497 
L 215.323778 138.142497 
L 215.3306 136.025437 
L 215.726215 136.025437 
L 215.726215 134.966908 
L 215.906897 134.966908 
L 215.906897 133.908378 
L 216.283047 133.908378 
L 216.283047 132.849848 
L 216.724795 132.849848 
L 216.724795 131.791318 
L 217.05124 131.791318 
L 217.05124 130.732788 
L 217.180523 130.732788 
L 217.180523 129.674259 
L 217.428433 129.674259 
L 217.428433 128.615729 
L 217.689665 128.615729 
L 217.689665 127.557199 
L 217.848727 127.557199 
L 217.940434 125.44014 
L 218.040943 125.44014 
L 218.040943 124.38161 
L 218.385251 124.38161 
L 218.385251 123.32308 
L 218.758333 123.32308 
L 218.758333 122.26455 
L 219.011128 122.26455 
L 219.011128 121.20602 
L 219.135256 121.20602 
L 219.203149 119.088961 
L 219.882265 119.088961 
L 219.882265 118.030431 
L 220.087357 118.030431 
L 220.087357 116.971901 
L 220.327082 116.971901 
L 220.409188 113.796312 
L 220.810636 113.796312 
L 220.810636 112.737782 
L 220.977554 112.737782 
L 221.044666 109.562193 
L 221.111996 109.562193 
L 221.168793 107.445133 
L 221.489482 107.445133 
L 221.489482 106.386604 
L 221.61361 106.386604 
L 221.654507 104.269544 
L 221.817584 104.269544 
L 221.817584 103.211014 
L 222.119462 103.211014 
L 222.175409 100.035425 
L 222.344094 100.035425 
L 222.363803 97.918365 
L 222.565711 97.918365 
L 222.583173 95.801306 
L 222.80862 95.801306 
L 222.80862 94.742776 
L 223.078732 94.742776 
L 223.188906 91.567187 
L 223.401182 91.567187 
L 223.401182 90.508657 
L 223.59035 90.508657 
L 223.59035 89.450127 
L 223.976207 89.450127 
L 223.976207 88.391597 
L 224.208946 88.391597 
L 224.208946 87.333067 
L 224.485349 87.333067 
L 224.485349 86.274538 
L 224.616711 86.274538 
L 224.653763 84.157478 
L 224.836627 84.157478 
L 224.909545 82.040419 
L 224.976446 82.040419 
L 225.061528 79.923359 
L 225.222444 79.923359 
L 225.222444 78.864829 
L 225.66726 78.864829 
L 225.66726 77.806299 
L 226.943083 77.806299 
L 226.943083 76.74777 
L 227.299414 76.74777 
L 227.387899 74.63071 
L 227.60632 74.63071 
L 227.60632 73.57218 
L 227.834067 73.57218 
L 227.834067 72.513651 
L 228.267493 72.513651 
L 228.267493 71.455121 
L 228.450191 71.455121 
L 228.450191 70.396591 
L 228.613269 70.396591 
L 228.613269 69.338061 
L 229.139778 69.338061 
L 229.139778 68.279531 
L 230.059131 68.279531 
L 230.059131 67.221002 
L 230.196866 67.221002 
L 230.301031 65.103942 
L 230.745847 65.103942 
L 230.745847 64.045412 
L 231.77213 64.045412 
L 231.77213 62.986883 
L 231.896496 62.986883 
L 231.912132 60.869823 
L 232.963474 60.869823 
L 232.963474 59.811293 
L 233.972492 59.811293 
L 233.972492 58.752763 
L 234.095098 58.752763 
L 234.095098 57.694234 
L 235.023835 57.694234 
L 235.084079 55.577174 
L 237.088239 55.577174 
L 237.088239 54.518644 
L 237.824614 54.518644 
L 237.868244 52.401585 
L 238.139582 52.401585 
L 238.139582 51.343055 
L 238.919587 51.343055 
L 238.919587 50.284525 
L 239.884975 50.284525 
L 239.884975 49.225995 
L 243.000722 49.225995 
L 243.000722 48.167466 
L 243.780727 48.167466 
L 243.780727 47.108936 
L 245.08601 47.108936 
L 245.08601 46.050406 
L 247.766229 46.050406 
L 247.766229 44.991876 
L 249.993441 44.991876 
L 249.993441 43.933347 
L 250.551012 43.933347 
L 250.551012 42.874817 
L 262.624138 42.874817 
L 262.624138 41.816287 
L 263.181709 41.816287 
L 263.181709 40.757757 
L 278.155725 40.757757 
L 278.155725 39.699227 
L 289.728924 39.699227 
L 289.728924 38.640698 
L 296.524608 38.640698 
L 296.524608 37.582168 
L 303.111353 37.582168 
L 303.111353 36.523638 
L 305.791572 36.523638 
L 305.791572 35.465108 
L 310.969658 35.465108 
L 310.969658 34.406579 
L 313.003196 34.406579 
L 313.003196 33.348049 
L 313.448012 33.348049 
L 313.448012 32.289519 
L 313.649877 32.289519 
L 313.649877 31.230989 
L 315.683415 31.230989 
L 315.683415 30.172459 
L 316.128231 30.172459 
L 316.128231 29.11393 
L 453.192 29.11393 
L 453.192 29.11393 
" clip-path="url(#p169b9b32ba)" style="fill: none; stroke: #ff0000; stroke-width: 3; stroke-linecap: square"/>
   </g>
   <g id="line2d_52">
    <path clip-path="url(#p169b9b32ba)" style="fill: none; stroke: #ff0000; stroke-width: 3; stroke-linecap: square"/>
   </g>
   <g id="line2d_53">
    <path d="M 243.676 291.28 
L 243.676 3 
" clip-path="url(#p169b9b32ba)" style="fill: none; stroke: #000000; stroke-width: 1.5; stroke-linecap: square"/>
   </g>
   <g id="line2d_54">
    <path d="M 34.16 147.14 
L 453.192 147.14 
" clip-path="url(#p169b9b32ba)" style="fill: none; stroke-dasharray: 2,3.3; stroke-dashoffset: 0; stroke: #000000; stroke-width: 2"/>
   </g>
   <g id="patch_3">
    <path d="M 34.16 291.28 
L 34.16 3 
" style="fill: none; stroke: #000000; stroke-width: 0.8; stroke-linejoin: miter; stroke-linecap: square"/>
   </g>
   <g id="patch_4">
    <path d="M 453.192 291.28 
L 453.192 3 
" style="fill: none; stroke: #000000; stroke-width: 0.8; stroke-linejoin: miter; stroke-linecap: square"/>
   </g>
   <g id="patch_5">
    <path d="M 34.16 291.28 
L 453.192 291.28 
" style="fill: none; stroke: #000000; stroke-width: 0.8; stroke-linejoin: miter; stroke-linecap: square"/>
   </g>
   <g id="patch_6">
    <path d="M 34.16 3 
L 453.192 3 
" style="fill: none; stroke: #000000; stroke-width: 0.8; stroke-linejoin: miter; stroke-linecap: square"/>
   </g>
   <g id="text_6">
    <!-- f10-f14,10-D -->
    <g transform="translate(318.19261 285.5144) scale(0.2 -0.2)">
     <defs>
      <path id="DejaVuSans-34" d="M 2419 4116 
L 825 1625 
L 2419 1625 
L 2419 4116 
z
M 2253 4666 
L 3047 4666 
L 3047 1625 
L 3713 1625 
L 3713 1100 
L 3047 1100 
L 3047 0 
L 2419 0 
L 2419 1100 
L 313 1100 
L 313 1709 
L 2253 4666 
z
" transform="scale(0.015625)"/>
      <path id="DejaVuSans-2c" d="M 750 794 
L 1409 794 
L 1409 256 
L 897 -744 
L 494 -744 
L 750 256 
L 750 794 
z
" transform="scale(0.015625)"/>
      <path id="DejaVuSans-44" d="M 1259 4147 
L 1259 519 
L 2022 519 
Q 2988 519 3436 956 
Q 3884 1394 3884 2338 
Q 3884 3275 3436 3711 
Q 2988 4147 2022 4147 
L 1259 4147 
z
M 628 4666 
L 1925 4666 
Q 3281 4666 3915 4102 
Q 4550 3538 4550 2338 
Q 4550 1131 3912 565 
Q 3275 0 1925 0 
L 628 0 
L 628 4666 
z
" transform="scale(0.015625)"/>
     </defs>
     <use xlink:href="#DejaVuSans-66"/>
     <use xlink:href="#DejaVuSans-31" x="35.205078"/>
     <use xlink:href="#DejaVuSans-30" x="98.828125"/>
     <use xlink:href="#DejaVuSans-2d" x="162.451172"/>
     <use xlink:href="#DejaVuSans-66" x="198.535156"/>
     <use xlink:href="#DejaVuSans-31" x="233.740234"/>
     <use xlink:href="#DejaVuSans-34" x="297.363281"/>
     <use xlink:href="#DejaVuSans-2c" x="360.986328"/>
     <use xlink:href="#DejaVuSans-31" x="392.773438"/>
     <use xlink:href="#DejaVuSans-30" x="456.396484"/>
     <use xlink:href="#DejaVuSans-2d" x="520.019531"/>
     <use xlink:href="#DejaVuSans-44" x="556.103516"/>
    </g>
   </g>
   <g id="text_7">
    <!-- v2.6.3 -->
    <g style="fill: #808080" transform="translate(227.99475 286.317512) scale(0.1 -0.1)">
     <defs>
      <path id="DejaVuSans-32" d="M 1228 531 
L 3431 531 
L 3431 0 
L 469 0 
L 469 531 
Q 828 903 1448 1529 
Q 2069 2156 2228 2338 
Q 2531 2678 2651 2914 
Q 2772 3150 2772 3378 
Q 2772 3750 2511 3984 
Q 2250 4219 1831 4219 
Q 1534 4219 1204 4116 
Q 875 4013 500 3803 
L 500 4441 
Q 881 4594 1212 4672 
Q 1544 4750 1819 4750 
Q 2544 4750 2975 4387 
Q 3406 4025 3406 3419 
Q 3406 3131 3298 2873 
Q 3191 2616 2906 2266 
Q 2828 2175 2409 1742 
Q 1991 1309 1228 531 
z
" transform="scale(0.015625)"/>
      <path id="DejaVuSans-2e" d="M 684 794 
L 1344 794 
L 1344 0 
L 684 0 
L 684 794 
z
" transform="scale(0.015625)"/>
      <path id="DejaVuSans-36" d="M 2113 2584 
Q 1688 2584 1439 2293 
Q 1191 2003 1191 1497 
Q 1191 994 1439 701 
Q 1688 409 2113 409 
Q 2538 409 2786 701 
Q 3034 994 3034 1497 
Q 3034 2003 2786 2293 
Q 2538 2584 2113 2584 
z
M 3366 4563 
L 3366 3988 
Q 3128 4100 2886 4159 
Q 2644 4219 2406 4219 
Q 1781 4219 1451 3797 
Q 1122 3375 1075 2522 
Q 1259 2794 1537 2939 
Q 1816 3084 2150 3084 
Q 2853 3084 3261 2657 
Q 3669 2231 3669 1497 
Q 3669 778 3244 343 
Q 2819 -91 2113 -91 
Q 1303 -91 875 529 
Q 447 1150 447 2328 
Q 447 3434 972 4092 
Q 1497 4750 2381 4750 
Q 2619 4750 2861 4703 
Q 3103 4656 3366 4563 
z
" transform="scale(0.015625)"/>
      <path id="DejaVuSans-33" d="M 2597 2516 
Q 3050 2419 3304 2112 
Q 3559 1806 3559 1356 
Q 3559 666 3084 287 
Q 2609 -91 1734 -91 
Q 1441 -91 1130 -33 
Q 819 25 488 141 
L 488 750 
Q 750 597 1062 519 
Q 1375 441 1716 441 
Q 2309 441 2620 675 
Q 2931 909 2931 1356 
Q 2931 1769 2642 2001 
Q 2353 2234 1838 2234 
L 1294 2234 
L 1294 2753 
L 1863 2753 
Q 2328 2753 2575 2939 
Q 2822 3125 2822 3475 
Q 2822 3834 2567 4026 
Q 2313 4219 1838 4219 
Q 1578 4219 1281 4162 
Q 984 4106 628 3988 
L 628 4550 
Q 988 4650 1302 4700 
Q 1616 4750 1894 4750 
Q 2613 4750 3031 4423 
Q 3450 4097 3450 3541 
Q 3450 3153 3228 2886 
Q 3006 2619 2597 2516 
z
" transform="scale(0.015625)"/>
     </defs>
     <use xlink:href="#DejaVuSans-76"/>
     <use xlink:href="#DejaVuSans-32" x="59.179688"/>
     <use xlink:href="#DejaVuSans-2e" x="122.802734"/>
     <use xlink:href="#DejaVuSans-36" x="154.589844"/>
     <use xlink:href="#DejaVuSans-2e" x="218.212891"/>
     <use xlink:href="#DejaVuSans-33" x="250"/>
    </g>
   </g>
   <g id="legend_1">
    <g id="patch_7">
     <path d="M 48.16 136.425 
L 177.381875 136.425 
Q 181.381875 136.425 181.381875 132.425 
L 181.381875 17 
Q 181.381875 13 177.381875 13 
L 48.16 13 
Q 44.16 13 44.16 17 
L 44.16 132.425 
Q 44.16 136.425 48.16 136.425 
z
" style="fill: #ffffff; opacity: 0.2; stroke: #cccccc; stroke-linejoin: miter"/>
    </g>
    <g id="line2d_55">
     <path d="M 52.16 29.196875 
L 72.16 29.196875 
L 92.16 29.196875 
" style="fill: none; stroke: #000000; stroke-width: 3; stroke-linecap: square"/>
    </g>
    <g id="text_8">
     <!-- 1: 5/5 -->
     <g transform="translate(108.16 36.196875) scale(0.2 -0.2)">
      <defs>
       <path id="DejaVuSans-3a" d="M 750 794 
L 1409 794 
L 1409 0 
L 750 0 
L 750 794 
z
M 750 3309 
L 1409 3309 
L 1409 2516 
L 750 2516 
L 750 3309 
z
" transform="scale(0.015625)"/>
       <path id="DejaVuSans-35" d="M 691 4666 
L 3169 4666 
L 3169 4134 
L 1269 4134 
L 1269 2991 
Q 1406 3038 1543 3061 
Q 1681 3084 1819 3084 
Q 2600 3084 3056 2656 
Q 3513 2228 3513 1497 
Q 3513 744 3044 326 
Q 2575 -91 1722 -91 
Q 1428 -91 1123 -41 
Q 819 9 494 109 
L 494 744 
Q 775 591 1075 516 
Q 1375 441 1709 441 
Q 2250 441 2565 725 
Q 2881 1009 2881 1497 
Q 2881 1984 2565 2268 
Q 2250 2553 1709 2553 
Q 1456 2553 1204 2497 
Q 953 2441 691 2322 
L 691 4666 
z
" transform="scale(0.015625)"/>
       <path id="DejaVuSans-2f" d="M 1625 4666 
L 2156 4666 
L 531 -594 
L 0 -594 
L 1625 4666 
z
" transform="scale(0.015625)"/>
      </defs>
      <use xlink:href="#DejaVuSans-31"/>
      <use xlink:href="#DejaVuSans-3a" x="63.623047"/>
      <use xlink:href="#DejaVuSans-20" x="97.314453"/>
      <use xlink:href="#DejaVuSans-35" x="129.101562"/>
      <use xlink:href="#DejaVuSans-2f" x="192.724609"/>
      <use xlink:href="#DejaVuSans-35" x="226.416016"/>
     </g>
    </g>
    <g id="line2d_56">
     <path d="M 52.16 58.553125 
L 72.16 58.553125 
L 92.16 58.553125 
" style="fill: none; stroke: #00bfbf; stroke-width: 3; stroke-linecap: square"/>
    </g>
    <g id="text_9">
     <!-- -1: 5/5 -->
     <g transform="translate(108.16 65.553125) scale(0.2 -0.2)">
      <use xlink:href="#DejaVuSans-2d"/>
      <use xlink:href="#DejaVuSans-31" x="36.083984"/>
      <use xlink:href="#DejaVuSans-3a" x="99.707031"/>
      <use xlink:href="#DejaVuSans-20" x="133.398438"/>
      <use xlink:href="#DejaVuSans-35" x="165.185547"/>
      <use xlink:href="#DejaVuSans-2f" x="228.808594"/>
      <use xlink:href="#DejaVuSans-35" x="262.5"/>
     </g>
    </g>
    <g id="line2d_57">
     <path d="M 52.16 87.909375 
L 72.16 87.909375 
L 92.16 87.909375 
" style="fill: none; stroke: #bf00bf; stroke-width: 3; stroke-linecap: square"/>
    </g>
    <g id="text_10">
     <!-- -4: 4/4 -->
     <g transform="translate(108.16 94.909375) scale(0.2 -0.2)">
      <use xlink:href="#DejaVuSans-2d"/>
      <use xlink:href="#DejaVuSans-34" x="36.083984"/>
      <use xlink:href="#DejaVuSans-3a" x="99.707031"/>
      <use xlink:href="#DejaVuSans-20" x="133.398438"/>
      <use xlink:href="#DejaVuSans-34" x="165.185547"/>
      <use xlink:href="#DejaVuSans-2f" x="228.808594"/>
      <use xlink:href="#DejaVuSans-34" x="262.5"/>
     </g>
    </g>
    <g id="line2d_58">
     <path d="M 52.16 117.265625 
L 72.16 117.265625 
L 92.16 117.265625 
" style="fill: none; stroke: #ff0000; stroke-width: 3; stroke-linecap: square"/>
    </g>
    <g id="text_11">
     <!-- -8: 4/4 -->
     <g transform="translate(108.16 124.265625) scale(0.2 -0.2)">
      <defs>
       <path id="DejaVuSans-38" d="M 2034 2216 
Q 1584 2216 1326 1975 
Q 1069 1734 1069 1313 
Q 1069 891 1326 650 
Q 1584 409 2034 409 
Q 2484 409 2743 651 
Q 3003 894 3003 1313 
Q 3003 1734 2745 1975 
Q 2488 2216 2034 2216 
z
M 1403 2484 
Q 997 2584 770 2862 
Q 544 3141 544 3541 
Q 544 4100 942 4425 
Q 1341 4750 2034 4750 
Q 2731 4750 3128 4425 
Q 3525 4100 3525 3541 
Q 3525 3141 3298 2862 
Q 3072 2584 2669 2484 
Q 3125 2378 3379 2068 
Q 3634 1759 3634 1313 
Q 3634 634 3220 271 
Q 2806 -91 2034 -91 
Q 1263 -91 848 271 
Q 434 634 434 1313 
Q 434 1759 690 2068 
Q 947 2378 1403 2484 
z
M 1172 3481 
Q 1172 3119 1398 2916 
Q 1625 2713 2034 2713 
Q 2441 2713 2670 2916 
Q 2900 3119 2900 3481 
Q 2900 3844 2670 4047 
Q 2441 4250 2034 4250 
Q 1625 4250 1398 4047 
Q 1172 3844 1172 3481 
z
" transform="scale(0.015625)"/>
      </defs>
      <use xlink:href="#DejaVuSans-2d"/>
      <use xlink:href="#DejaVuSans-38" x="36.083984"/>
      <use xlink:href="#DejaVuSans-3a" x="99.707031"/>
      <use xlink:href="#DejaVuSans-20" x="133.398438"/>
      <use xlink:href="#DejaVuSans-34" x="165.185547"/>
      <use xlink:href="#DejaVuSans-2f" x="228.808594"/>
      <use xlink:href="#DejaVuSans-34" x="262.5"/>
     </g>
    </g>
   </g>
  </g>
 </g>
 <defs>
  <clipPath id="p169b9b32ba">
   <rect x="34.16" y="3" width="419.032" height="288.28"/>
  </clipPath>
 </defs>
</svg>
