<?xml version="1.0" encoding="utf-8" standalone="no"?>
<!DOCTYPE svg PUBLIC "-//W3C//DTD SVG 1.1//EN"
  "http://www.w3.org/Graphics/SVG/1.1/DTD/svg11.dtd">
<svg xmlns:xlink="http://www.w3.org/1999/xlink" width="460.8pt" height="345.6pt" viewBox="0 0 460.8 345.6" xmlns="http://www.w3.org/2000/svg" version="1.1">
 <metadata>
  <rdf:RDF xmlns:dc="http://purl.org/dc/elements/1.1/" xmlns:cc="http://creativecommons.org/ns#" xmlns:rdf="http://www.w3.org/1999/02/22-rdf-syntax-ns#">
   <cc:Work>
    <dc:type rdf:resource="http://purl.org/dc/dcmitype/StillImage"/>
    <dc:date>2024-05-24T12:12:02.405190</dc:date>
    <dc:format>image/svg+xml</dc:format>
    <dc:creator>
     <cc:Agent>
      <dc:title>Matplotlib v3.7.1, https://matplotlib.org/</dc:title>
     </cc:Agent>
    </dc:creator>
   </cc:Work>
  </rdf:RDF>
 </metadata>
 <defs>
  <style type="text/css">*{stroke-linejoin: round; stroke-linecap: butt}</style>
 </defs>
 <g id="figure_1">
  <g id="patch_1">
   <path d="M 0 345.6 
L 460.8 345.6 
L 460.8 0 
L 0 0 
z
" style="fill: #ffffff"/>
  </g>
  <g id="axes_1">
   <g id="patch_2">
    <path d="M 34.16 291.28 
L 453.192 291.28 
L 453.192 3 
L 34.16 3 
z
" style="fill: #ffffff"/>
   </g>
   <g id="matplotlib.axis_1">
    <g id="xtick_1">
     <g id="line2d_1">
      <path d="M 152.719997 291.28 
L 152.719997 3 
" clip-path="url(#paa199345ee)" style="fill: none; stroke: #b0b0b0; stroke-width: 0.8; stroke-linecap: square"/>
     </g>
     <g id="line2d_2">
      <defs>
       <path id="ma5ba7e0f78" d="M 0 0 
L 0 3.5 
" style="stroke: #000000; stroke-width: 0.8"/>
      </defs>
      <g>
       <use xlink:href="#ma5ba7e0f78" x="152.719997" y="291.28" style="stroke: #000000; stroke-width: 0.8"/>
      </g>
     </g>
     <g id="text_1">
      <!-- -1 -->
      <g transform="translate(142.749685 313.476875) scale(0.2 -0.2)">
       <defs>
        <path id="DejaVuSans-2d" d="M 313 2009 
L 1997 2009 
L 1997 1497 
L 313 1497 
L 313 2009 
z
" transform="scale(0.015625)"/>
        <path id="DejaVuSans-31" d="M 794 531 
L 1825 531 
L 1825 4091 
L 703 3866 
L 703 4441 
L 1819 4666 
L 2450 4666 
L 2450 531 
L 3481 531 
L 3481 0 
L 794 0 
L 794 531 
z
" transform="scale(0.015625)"/>
       </defs>
       <use xlink:href="#DejaVuSans-2d"/>
       <use xlink:href="#DejaVuSans-31" x="36.083984"/>
      </g>
     </g>
    </g>
    <g id="xtick_2">
     <g id="line2d_3">
      <path d="M 334.632003 291.28 
L 334.632003 3 
" clip-path="url(#paa199345ee)" style="fill: none; stroke: #b0b0b0; stroke-width: 0.8; stroke-linecap: square"/>
     </g>
     <g id="line2d_4">
      <g>
       <use xlink:href="#ma5ba7e0f78" x="334.632003" y="291.28" style="stroke: #000000; stroke-width: 0.8"/>
      </g>
     </g>
     <g id="text_2">
      <!-- 1 -->
      <g transform="translate(328.269503 313.476875) scale(0.2 -0.2)">
       <use xlink:href="#DejaVuSans-31"/>
      </g>
     </g>
    </g>
    <g id="xtick_3">
     <g id="line2d_5">
      <defs>
       <path id="mb7c3bb7b5b" d="M 0 0 
L 0 2 
" style="stroke: #000000; stroke-width: 0.6"/>
      </defs>
      <g>
       <use xlink:href="#mb7c3bb7b5b" x="34.383509" y="291.28" style="stroke: #000000; stroke-width: 0.6"/>
      </g>
     </g>
    </g>
    <g id="xtick_4">
     <g id="line2d_6">
      <g>
       <use xlink:href="#mb7c3bb7b5b" x="41.585519" y="291.28" style="stroke: #000000; stroke-width: 0.6"/>
      </g>
     </g>
    </g>
    <g id="xtick_5">
     <g id="line2d_7">
      <g>
       <use xlink:href="#mb7c3bb7b5b" x="47.674731" y="291.28" style="stroke: #000000; stroke-width: 0.6"/>
      </g>
     </g>
    </g>
    <g id="xtick_6">
     <g id="line2d_8">
      <g>
       <use xlink:href="#mb7c3bb7b5b" x="52.949447" y="291.28" style="stroke: #000000; stroke-width: 0.6"/>
      </g>
     </g>
    </g>
    <g id="xtick_7">
     <g id="line2d_9">
      <g>
       <use xlink:href="#mb7c3bb7b5b" x="57.602076" y="291.28" style="stroke: #000000; stroke-width: 0.6"/>
      </g>
     </g>
    </g>
    <g id="xtick_8">
     <g id="line2d_10">
      <g>
       <use xlink:href="#mb7c3bb7b5b" x="89.14448" y="291.28" style="stroke: #000000; stroke-width: 0.6"/>
      </g>
     </g>
    </g>
    <g id="xtick_9">
     <g id="line2d_11">
      <g>
       <use xlink:href="#mb7c3bb7b5b" x="105.161037" y="291.28" style="stroke: #000000; stroke-width: 0.6"/>
      </g>
     </g>
    </g>
    <g id="xtick_10">
     <g id="line2d_12">
      <g>
       <use xlink:href="#mb7c3bb7b5b" x="116.524965" y="291.28" style="stroke: #000000; stroke-width: 0.6"/>
      </g>
     </g>
    </g>
    <g id="xtick_11">
     <g id="line2d_13">
      <g>
       <use xlink:href="#mb7c3bb7b5b" x="125.339512" y="291.28" style="stroke: #000000; stroke-width: 0.6"/>
      </g>
     </g>
    </g>
    <g id="xtick_12">
     <g id="line2d_14">
      <g>
       <use xlink:href="#mb7c3bb7b5b" x="132.541522" y="291.28" style="stroke: #000000; stroke-width: 0.6"/>
      </g>
     </g>
    </g>
    <g id="xtick_13">
     <g id="line2d_15">
      <g>
       <use xlink:href="#mb7c3bb7b5b" x="138.630734" y="291.28" style="stroke: #000000; stroke-width: 0.6"/>
      </g>
     </g>
    </g>
    <g id="xtick_14">
     <g id="line2d_16">
      <g>
       <use xlink:href="#mb7c3bb7b5b" x="143.90545" y="291.28" style="stroke: #000000; stroke-width: 0.6"/>
      </g>
     </g>
    </g>
    <g id="xtick_15">
     <g id="line2d_17">
      <g>
       <use xlink:href="#mb7c3bb7b5b" x="148.558079" y="291.28" style="stroke: #000000; stroke-width: 0.6"/>
      </g>
     </g>
    </g>
    <g id="xtick_16">
     <g id="line2d_18">
      <g>
       <use xlink:href="#mb7c3bb7b5b" x="180.100482" y="291.28" style="stroke: #000000; stroke-width: 0.6"/>
      </g>
     </g>
    </g>
    <g id="xtick_17">
     <g id="line2d_19">
      <g>
       <use xlink:href="#mb7c3bb7b5b" x="196.117039" y="291.28" style="stroke: #000000; stroke-width: 0.6"/>
      </g>
     </g>
    </g>
    <g id="xtick_18">
     <g id="line2d_20">
      <g>
       <use xlink:href="#mb7c3bb7b5b" x="207.480967" y="291.28" style="stroke: #000000; stroke-width: 0.6"/>
      </g>
     </g>
    </g>
    <g id="xtick_19">
     <g id="line2d_21">
      <g>
       <use xlink:href="#mb7c3bb7b5b" x="216.295515" y="291.28" style="stroke: #000000; stroke-width: 0.6"/>
      </g>
     </g>
    </g>
    <g id="xtick_20">
     <g id="line2d_22">
      <g>
       <use xlink:href="#mb7c3bb7b5b" x="223.497525" y="291.28" style="stroke: #000000; stroke-width: 0.6"/>
      </g>
     </g>
    </g>
    <g id="xtick_21">
     <g id="line2d_23">
      <g>
       <use xlink:href="#mb7c3bb7b5b" x="229.586737" y="291.28" style="stroke: #000000; stroke-width: 0.6"/>
      </g>
     </g>
    </g>
    <g id="xtick_22">
     <g id="line2d_24">
      <g>
       <use xlink:href="#mb7c3bb7b5b" x="234.861453" y="291.28" style="stroke: #000000; stroke-width: 0.6"/>
      </g>
     </g>
    </g>
    <g id="xtick_23">
     <g id="line2d_25">
      <g>
       <use xlink:href="#mb7c3bb7b5b" x="239.514082" y="291.28" style="stroke: #000000; stroke-width: 0.6"/>
      </g>
     </g>
    </g>
    <g id="xtick_24">
     <g id="line2d_26">
      <g>
       <use xlink:href="#mb7c3bb7b5b" x="271.056485" y="291.28" style="stroke: #000000; stroke-width: 0.6"/>
      </g>
     </g>
    </g>
    <g id="xtick_25">
     <g id="line2d_27">
      <g>
       <use xlink:href="#mb7c3bb7b5b" x="287.073042" y="291.28" style="stroke: #000000; stroke-width: 0.6"/>
      </g>
     </g>
    </g>
    <g id="xtick_26">
     <g id="line2d_28">
      <g>
       <use xlink:href="#mb7c3bb7b5b" x="298.43697" y="291.28" style="stroke: #000000; stroke-width: 0.6"/>
      </g>
     </g>
    </g>
    <g id="xtick_27">
     <g id="line2d_29">
      <g>
       <use xlink:href="#mb7c3bb7b5b" x="307.251518" y="291.28" style="stroke: #000000; stroke-width: 0.6"/>
      </g>
     </g>
    </g>
    <g id="xtick_28">
     <g id="line2d_30">
      <g>
       <use xlink:href="#mb7c3bb7b5b" x="314.453527" y="291.28" style="stroke: #000000; stroke-width: 0.6"/>
      </g>
     </g>
    </g>
    <g id="xtick_29">
     <g id="line2d_31">
      <g>
       <use xlink:href="#mb7c3bb7b5b" x="320.54274" y="291.28" style="stroke: #000000; stroke-width: 0.6"/>
      </g>
     </g>
    </g>
    <g id="xtick_30">
     <g id="line2d_32">
      <g>
       <use xlink:href="#mb7c3bb7b5b" x="325.817455" y="291.28" style="stroke: #000000; stroke-width: 0.6"/>
      </g>
     </g>
    </g>
    <g id="xtick_31">
     <g id="line2d_33">
      <g>
       <use xlink:href="#mb7c3bb7b5b" x="330.470084" y="291.28" style="stroke: #000000; stroke-width: 0.6"/>
      </g>
     </g>
    </g>
    <g id="xtick_32">
     <g id="line2d_34">
      <g>
       <use xlink:href="#mb7c3bb7b5b" x="362.012488" y="291.28" style="stroke: #000000; stroke-width: 0.6"/>
      </g>
     </g>
    </g>
    <g id="xtick_33">
     <g id="line2d_35">
      <g>
       <use xlink:href="#mb7c3bb7b5b" x="378.029045" y="291.28" style="stroke: #000000; stroke-width: 0.6"/>
      </g>
     </g>
    </g>
    <g id="xtick_34">
     <g id="line2d_36">
      <g>
       <use xlink:href="#mb7c3bb7b5b" x="389.392973" y="291.28" style="stroke: #000000; stroke-width: 0.6"/>
      </g>
     </g>
    </g>
    <g id="xtick_35">
     <g id="line2d_37">
      <g>
       <use xlink:href="#mb7c3bb7b5b" x="398.20752" y="291.28" style="stroke: #000000; stroke-width: 0.6"/>
      </g>
     </g>
    </g>
    <g id="xtick_36">
     <g id="line2d_38">
      <g>
       <use xlink:href="#mb7c3bb7b5b" x="405.40953" y="291.28" style="stroke: #000000; stroke-width: 0.6"/>
      </g>
     </g>
    </g>
    <g id="xtick_37">
     <g id="line2d_39">
      <g>
       <use xlink:href="#mb7c3bb7b5b" x="411.498742" y="291.28" style="stroke: #000000; stroke-width: 0.6"/>
      </g>
     </g>
    </g>
    <g id="xtick_38">
     <g id="line2d_40">
      <g>
       <use xlink:href="#mb7c3bb7b5b" x="416.773458" y="291.28" style="stroke: #000000; stroke-width: 0.6"/>
      </g>
     </g>
    </g>
    <g id="xtick_39">
     <g id="line2d_41">
      <g>
       <use xlink:href="#mb7c3bb7b5b" x="421.426087" y="291.28" style="stroke: #000000; stroke-width: 0.6"/>
      </g>
     </g>
    </g>
    <g id="xtick_40">
     <g id="line2d_42">
      <g>
       <use xlink:href="#mb7c3bb7b5b" x="452.968491" y="291.28" style="stroke: #000000; stroke-width: 0.6"/>
      </g>
     </g>
    </g>
    <g id="text_3">
     <!-- log10 of FEvals ratio -->
     <g transform="translate(141.371312 336.833125) scale(0.2 -0.2)">
      <defs>
       <path id="DejaVuSans-6c" d="M 603 4863 
L 1178 4863 
L 1178 0 
L 603 0 
L 603 4863 
z
" transform="scale(0.015625)"/>
       <path id="DejaVuSans-6f" d="M 1959 3097 
Q 1497 3097 1228 2736 
Q 959 2375 959 1747 
Q 959 1119 1226 758 
Q 1494 397 1959 397 
Q 2419 397 2687 759 
Q 2956 1122 2956 1747 
Q 2956 2369 2687 2733 
Q 2419 3097 1959 3097 
z
M 1959 3584 
Q 2709 3584 3137 3096 
Q 3566 2609 3566 1747 
Q 3566 888 3137 398 
Q 2709 -91 1959 -91 
Q 1206 -91 779 398 
Q 353 888 353 1747 
Q 353 2609 779 3096 
Q 1206 3584 1959 3584 
z
" transform="scale(0.015625)"/>
       <path id="DejaVuSans-67" d="M 2906 1791 
Q 2906 2416 2648 2759 
Q 2391 3103 1925 3103 
Q 1463 3103 1205 2759 
Q 947 2416 947 1791 
Q 947 1169 1205 825 
Q 1463 481 1925 481 
Q 2391 481 2648 825 
Q 2906 1169 2906 1791 
z
M 3481 434 
Q 3481 -459 3084 -895 
Q 2688 -1331 1869 -1331 
Q 1566 -1331 1297 -1286 
Q 1028 -1241 775 -1147 
L 775 -588 
Q 1028 -725 1275 -790 
Q 1522 -856 1778 -856 
Q 2344 -856 2625 -561 
Q 2906 -266 2906 331 
L 2906 616 
Q 2728 306 2450 153 
Q 2172 0 1784 0 
Q 1141 0 747 490 
Q 353 981 353 1791 
Q 353 2603 747 3093 
Q 1141 3584 1784 3584 
Q 2172 3584 2450 3431 
Q 2728 3278 2906 2969 
L 2906 3500 
L 3481 3500 
L 3481 434 
z
" transform="scale(0.015625)"/>
       <path id="DejaVuSans-30" d="M 2034 4250 
Q 1547 4250 1301 3770 
Q 1056 3291 1056 2328 
Q 1056 1369 1301 889 
Q 1547 409 2034 409 
Q 2525 409 2770 889 
Q 3016 1369 3016 2328 
Q 3016 3291 2770 3770 
Q 2525 4250 2034 4250 
z
M 2034 4750 
Q 2819 4750 3233 4129 
Q 3647 3509 3647 2328 
Q 3647 1150 3233 529 
Q 2819 -91 2034 -91 
Q 1250 -91 836 529 
Q 422 1150 422 2328 
Q 422 3509 836 4129 
Q 1250 4750 2034 4750 
z
" transform="scale(0.015625)"/>
       <path id="DejaVuSans-20" transform="scale(0.015625)"/>
       <path id="DejaVuSans-66" d="M 2375 4863 
L 2375 4384 
L 1825 4384 
Q 1516 4384 1395 4259 
Q 1275 4134 1275 3809 
L 1275 3500 
L 2222 3500 
L 2222 3053 
L 1275 3053 
L 1275 0 
L 697 0 
L 697 3053 
L 147 3053 
L 147 3500 
L 697 3500 
L 697 3744 
Q 697 4328 969 4595 
Q 1241 4863 1831 4863 
L 2375 4863 
z
" transform="scale(0.015625)"/>
       <path id="DejaVuSans-46" d="M 628 4666 
L 3309 4666 
L 3309 4134 
L 1259 4134 
L 1259 2759 
L 3109 2759 
L 3109 2228 
L 1259 2228 
L 1259 0 
L 628 0 
L 628 4666 
z
" transform="scale(0.015625)"/>
       <path id="DejaVuSans-45" d="M 628 4666 
L 3578 4666 
L 3578 4134 
L 1259 4134 
L 1259 2753 
L 3481 2753 
L 3481 2222 
L 1259 2222 
L 1259 531 
L 3634 531 
L 3634 0 
L 628 0 
L 628 4666 
z
" transform="scale(0.015625)"/>
       <path id="DejaVuSans-76" d="M 191 3500 
L 800 3500 
L 1894 563 
L 2988 3500 
L 3597 3500 
L 2284 0 
L 1503 0 
L 191 3500 
z
" transform="scale(0.015625)"/>
       <path id="DejaVuSans-61" d="M 2194 1759 
Q 1497 1759 1228 1600 
Q 959 1441 959 1056 
Q 959 750 1161 570 
Q 1363 391 1709 391 
Q 2188 391 2477 730 
Q 2766 1069 2766 1631 
L 2766 1759 
L 2194 1759 
z
M 3341 1997 
L 3341 0 
L 2766 0 
L 2766 531 
Q 2569 213 2275 61 
Q 1981 -91 1556 -91 
Q 1019 -91 701 211 
Q 384 513 384 1019 
Q 384 1609 779 1909 
Q 1175 2209 1959 2209 
L 2766 2209 
L 2766 2266 
Q 2766 2663 2505 2880 
Q 2244 3097 1772 3097 
Q 1472 3097 1187 3025 
Q 903 2953 641 2809 
L 641 3341 
Q 956 3463 1253 3523 
Q 1550 3584 1831 3584 
Q 2591 3584 2966 3190 
Q 3341 2797 3341 1997 
z
" transform="scale(0.015625)"/>
       <path id="DejaVuSans-73" d="M 2834 3397 
L 2834 2853 
Q 2591 2978 2328 3040 
Q 2066 3103 1784 3103 
Q 1356 3103 1142 2972 
Q 928 2841 928 2578 
Q 928 2378 1081 2264 
Q 1234 2150 1697 2047 
L 1894 2003 
Q 2506 1872 2764 1633 
Q 3022 1394 3022 966 
Q 3022 478 2636 193 
Q 2250 -91 1575 -91 
Q 1294 -91 989 -36 
Q 684 19 347 128 
L 347 722 
Q 666 556 975 473 
Q 1284 391 1588 391 
Q 1994 391 2212 530 
Q 2431 669 2431 922 
Q 2431 1156 2273 1281 
Q 2116 1406 1581 1522 
L 1381 1569 
Q 847 1681 609 1914 
Q 372 2147 372 2553 
Q 372 3047 722 3315 
Q 1072 3584 1716 3584 
Q 2034 3584 2315 3537 
Q 2597 3491 2834 3397 
z
" transform="scale(0.015625)"/>
       <path id="DejaVuSans-72" d="M 2631 2963 
Q 2534 3019 2420 3045 
Q 2306 3072 2169 3072 
Q 1681 3072 1420 2755 
Q 1159 2438 1159 1844 
L 1159 0 
L 581 0 
L 581 3500 
L 1159 3500 
L 1159 2956 
Q 1341 3275 1631 3429 
Q 1922 3584 2338 3584 
Q 2397 3584 2469 3576 
Q 2541 3569 2628 3553 
L 2631 2963 
z
" transform="scale(0.015625)"/>
       <path id="DejaVuSans-74" d="M 1172 4494 
L 1172 3500 
L 2356 3500 
L 2356 3053 
L 1172 3053 
L 1172 1153 
Q 1172 725 1289 603 
Q 1406 481 1766 481 
L 2356 481 
L 2356 0 
L 1766 0 
Q 1100 0 847 248 
Q 594 497 594 1153 
L 594 3053 
L 172 3053 
L 172 3500 
L 594 3500 
L 594 4494 
L 1172 4494 
z
" transform="scale(0.015625)"/>
       <path id="DejaVuSans-69" d="M 603 3500 
L 1178 3500 
L 1178 0 
L 603 0 
L 603 3500 
z
M 603 4863 
L 1178 4863 
L 1178 4134 
L 603 4134 
L 603 4863 
z
" transform="scale(0.015625)"/>
      </defs>
      <use xlink:href="#DejaVuSans-6c"/>
      <use xlink:href="#DejaVuSans-6f" x="27.783203"/>
      <use xlink:href="#DejaVuSans-67" x="88.964844"/>
      <use xlink:href="#DejaVuSans-31" x="152.441406"/>
      <use xlink:href="#DejaVuSans-30" x="216.064453"/>
      <use xlink:href="#DejaVuSans-20" x="279.6875"/>
      <use xlink:href="#DejaVuSans-6f" x="311.474609"/>
      <use xlink:href="#DejaVuSans-66" x="372.65625"/>
      <use xlink:href="#DejaVuSans-20" x="407.861328"/>
      <use xlink:href="#DejaVuSans-46" x="439.648438"/>
      <use xlink:href="#DejaVuSans-45" x="497.167969"/>
      <use xlink:href="#DejaVuSans-76" x="560.351562"/>
      <use xlink:href="#DejaVuSans-61" x="619.53125"/>
      <use xlink:href="#DejaVuSans-6c" x="680.810547"/>
      <use xlink:href="#DejaVuSans-73" x="708.59375"/>
      <use xlink:href="#DejaVuSans-20" x="760.693359"/>
      <use xlink:href="#DejaVuSans-72" x="792.480469"/>
      <use xlink:href="#DejaVuSans-61" x="833.59375"/>
      <use xlink:href="#DejaVuSans-74" x="894.873047"/>
      <use xlink:href="#DejaVuSans-69" x="934.082031"/>
      <use xlink:href="#DejaVuSans-6f" x="961.865234"/>
     </g>
    </g>
   </g>
   <g id="matplotlib.axis_2">
    <g id="ytick_1">
     <g id="line2d_43">
      <path d="M 34.16 288.453725 
L 453.192 288.453725 
" clip-path="url(#paa199345ee)" style="fill: none; stroke: #b0b0b0; stroke-width: 0.8; stroke-linecap: square"/>
     </g>
     <g id="line2d_44">
      <defs>
       <path id="m89e864fac5" d="M 0 0 
L -3.5 0 
" style="stroke: #000000; stroke-width: 0.8"/>
      </defs>
      <g>
       <use xlink:href="#m89e864fac5" x="34.16" y="288.453725" style="stroke: #000000; stroke-width: 0.8"/>
      </g>
     </g>
    </g>
    <g id="ytick_2">
     <g id="line2d_45">
      <path d="M 34.16 217.796863 
L 453.192 217.796863 
" clip-path="url(#paa199345ee)" style="fill: none; stroke: #b0b0b0; stroke-width: 0.8; stroke-linecap: square"/>
     </g>
     <g id="line2d_46">
      <g>
       <use xlink:href="#m89e864fac5" x="34.16" y="217.796863" style="stroke: #000000; stroke-width: 0.8"/>
      </g>
     </g>
    </g>
    <g id="ytick_3">
     <g id="line2d_47">
      <path d="M 34.16 147.14 
L 453.192 147.14 
" clip-path="url(#paa199345ee)" style="fill: none; stroke: #b0b0b0; stroke-width: 0.8; stroke-linecap: square"/>
     </g>
     <g id="line2d_48">
      <g>
       <use xlink:href="#m89e864fac5" x="34.16" y="147.14" style="stroke: #000000; stroke-width: 0.8"/>
      </g>
     </g>
    </g>
    <g id="ytick_4">
     <g id="line2d_49">
      <path d="M 34.16 76.483137 
L 453.192 76.483137 
" clip-path="url(#paa199345ee)" style="fill: none; stroke: #b0b0b0; stroke-width: 0.8; stroke-linecap: square"/>
     </g>
     <g id="line2d_50">
      <g>
       <use xlink:href="#m89e864fac5" x="34.16" y="76.483137" style="stroke: #000000; stroke-width: 0.8"/>
      </g>
     </g>
    </g>
    <g id="ytick_5">
     <g id="line2d_51">
      <path d="M 34.16 5.826275 
L 453.192 5.826275 
" clip-path="url(#paa199345ee)" style="fill: none; stroke: #b0b0b0; stroke-width: 0.8; stroke-linecap: square"/>
     </g>
     <g id="line2d_52">
      <g>
       <use xlink:href="#m89e864fac5" x="34.16" y="5.826275" style="stroke: #000000; stroke-width: 0.8"/>
      </g>
     </g>
    </g>
    <g id="text_4">
     <!-- proportion of trials -->
     <g transform="translate(19.000625 240.14625) rotate(-90) scale(0.2 -0.2)">
      <defs>
       <path id="DejaVuSans-70" d="M 1159 525 
L 1159 -1331 
L 581 -1331 
L 581 3500 
L 1159 3500 
L 1159 2969 
Q 1341 3281 1617 3432 
Q 1894 3584 2278 3584 
Q 2916 3584 3314 3078 
Q 3713 2572 3713 1747 
Q 3713 922 3314 415 
Q 2916 -91 2278 -91 
Q 1894 -91 1617 61 
Q 1341 213 1159 525 
z
M 3116 1747 
Q 3116 2381 2855 2742 
Q 2594 3103 2138 3103 
Q 1681 3103 1420 2742 
Q 1159 2381 1159 1747 
Q 1159 1113 1420 752 
Q 1681 391 2138 391 
Q 2594 391 2855 752 
Q 3116 1113 3116 1747 
z
" transform="scale(0.015625)"/>
       <path id="DejaVuSans-6e" d="M 3513 2113 
L 3513 0 
L 2938 0 
L 2938 2094 
Q 2938 2591 2744 2837 
Q 2550 3084 2163 3084 
Q 1697 3084 1428 2787 
Q 1159 2491 1159 1978 
L 1159 0 
L 581 0 
L 581 3500 
L 1159 3500 
L 1159 2956 
Q 1366 3272 1645 3428 
Q 1925 3584 2291 3584 
Q 2894 3584 3203 3211 
Q 3513 2838 3513 2113 
z
" transform="scale(0.015625)"/>
      </defs>
      <use xlink:href="#DejaVuSans-70"/>
      <use xlink:href="#DejaVuSans-72" x="63.476562"/>
      <use xlink:href="#DejaVuSans-6f" x="102.339844"/>
      <use xlink:href="#DejaVuSans-70" x="163.521484"/>
      <use xlink:href="#DejaVuSans-6f" x="226.998047"/>
      <use xlink:href="#DejaVuSans-72" x="288.179688"/>
      <use xlink:href="#DejaVuSans-74" x="329.292969"/>
      <use xlink:href="#DejaVuSans-69" x="368.501953"/>
      <use xlink:href="#DejaVuSans-6f" x="396.285156"/>
      <use xlink:href="#DejaVuSans-6e" x="457.466797"/>
      <use xlink:href="#DejaVuSans-20" x="520.845703"/>
      <use xlink:href="#DejaVuSans-6f" x="552.632812"/>
      <use xlink:href="#DejaVuSans-66" x="613.814453"/>
      <use xlink:href="#DejaVuSans-20" x="649.019531"/>
      <use xlink:href="#DejaVuSans-74" x="680.806641"/>
      <use xlink:href="#DejaVuSans-72" x="720.015625"/>
      <use xlink:href="#DejaVuSans-69" x="761.128906"/>
      <use xlink:href="#DejaVuSans-61" x="788.912109"/>
      <use xlink:href="#DejaVuSans-6c" x="850.191406"/>
      <use xlink:href="#DejaVuSans-73" x="877.974609"/>
     </g>
    </g>
   </g>
   <g id="line2d_53">
    <path d="M 34.16 288.453725 
L 99.209461 288.453725 
L 99.209461 287.511634 
L 102.238949 287.511634 
L 102.238949 286.569542 
L 105.298673 286.569542 
L 105.298673 285.627451 
L 112.04829 285.627451 
L 112.04829 284.685359 
L 115.198644 284.685359 
L 115.198644 283.743268 
L 116.939322 283.743268 
L 116.939322 282.801176 
L 121.425254 282.801176 
L 121.425254 281.859085 
L 122.944737 281.859085 
L 122.944737 280.916993 
L 129.751768 280.916993 
L 129.751768 279.974902 
L 130.665898 279.974902 
L 130.665898 279.03281 
L 133.045483 279.03281 
L 133.045483 278.090719 
L 137.441811 278.090719 
L 137.441811 277.148627 
L 140.093927 277.148627 
L 140.093927 276.206536 
L 145.050506 276.206536 
L 145.050506 275.264444 
L 150.021272 275.264444 
L 150.021272 274.322353 
L 152.719997 274.322353 
L 152.734767 272.43817 
L 153.476363 272.43817 
L 153.476363 271.496078 
L 154.493438 271.496078 
L 154.493438 270.553987 
L 154.894951 270.553987 
L 154.894951 269.611895 
L 156.881916 269.611895 
L 156.881916 268.669804 
L 157.722331 268.669804 
L 157.722331 267.727712 
L 160.720048 267.727712 
L 160.720048 266.785621 
L 163.141119 266.785621 
L 163.141119 265.843529 
L 165.179363 265.843529 
L 165.179363 264.901438 
L 166.434834 264.901438 
L 166.434834 263.959346 
L 167.154859 263.959346 
L 167.154859 263.017255 
L 167.503508 263.017255 
L 167.503508 262.075163 
L 167.730087 262.075163 
L 167.730087 260.19098 
L 169.959614 260.19098 
L 169.959614 259.248889 
L 170.503698 259.248889 
L 170.503698 258.306797 
L 173.730118 258.306797 
L 173.730118 257.364706 
L 174.597001 257.364706 
L 174.654392 255.480523 
L 175.564137 255.480523 
L 175.564137 254.538431 
L 175.776244 254.538431 
L 175.776244 253.59634 
L 176.161629 253.59634 
L 176.161629 252.654248 
L 176.736605 252.654248 
L 176.736605 251.712157 
L 178.034098 251.712157 
L 178.034098 250.770065 
L 178.987685 250.770065 
L 178.987685 249.827974 
L 179.388721 249.827974 
L 179.388721 248.885882 
L 180.100482 248.885882 
L 180.100482 247.943791 
L 181.100579 247.943791 
L 181.100579 247.001699 
L 184.839078 247.001699 
L 184.839078 246.059608 
L 186.554951 246.059608 
L 186.554951 245.117516 
L 187.716849 245.117516 
L 187.716849 244.175425 
L 189.316066 244.175425 
L 189.316066 243.233333 
L 189.746675 243.233333 
L 189.746675 242.291242 
L 192.014791 242.291242 
L 192.014791 241.34915 
L 192.398791 241.34915 
L 192.398791 240.407059 
L 192.609467 240.407059 
L 192.609467 239.464967 
L 194.189745 239.464967 
L 194.189745 238.522876 
L 197.098498 238.522876 
L 197.098498 237.580784 
L 199.336152 237.580784 
L 199.336152 236.638693 
L 200.566244 236.638693 
L 200.566244 235.696601 
L 202.206252 235.696601 
L 202.206252 234.75451 
L 202.326136 234.75451 
L 202.435913 232.870327 
L 203.206348 232.870327 
L 203.206348 231.928235 
L 203.595732 231.928235 
L 203.595732 230.986144 
L 205.024861 230.986144 
L 205.024861 230.044052 
L 205.597039 230.044052 
L 205.597039 229.101961 
L 205.729628 229.101961 
L 205.729628 228.159869 
L 206.318551 228.159869 
L 206.318551 227.217778 
L 206.655456 227.217778 
L 206.655456 226.275686 
L 206.895747 226.275686 
L 206.895747 225.333595 
L 207.024881 225.333595 
L 207.024881 223.449412 
L 207.199815 223.449412 
L 207.199815 222.50732 
L 209.254408 222.50732 
L 209.254408 221.565229 
L 210.576056 221.565229 
L 210.576056 220.623137 
L 211.191433 220.623137 
L 211.191433 219.681046 
L 211.816063 219.681046 
L 211.816063 218.738954 
L 212.390937 218.738954 
L 212.390937 217.796863 
L 212.900644 217.796863 
L 212.900644 216.854771 
L 213.405073 216.854771 
L 213.405073 215.91268 
L 213.605544 215.91268 
L 213.605544 214.970588 
L 213.90074 214.970588 
L 213.90074 214.028497 
L 214.810048 214.028497 
L 214.858931 212.144314 
L 215.445983 212.144314 
L 215.445983 211.202222 
L 215.828034 211.202222 
L 215.828034 210.260131 
L 216.295515 210.260131 
L 216.295515 208.375948 
L 216.665268 208.375948 
L 216.665268 207.433856 
L 218.739698 207.433856 
L 218.739698 206.491765 
L 220.034951 206.491765 
L 220.034951 204.607582 
L 220.689115 204.607582 
L 220.689115 203.66549 
L 221.376119 203.66549 
L 221.376119 202.723399 
L 222.264478 202.723399 
L 222.264478 201.781307 
L 222.894434 201.781307 
L 222.894434 200.839216 
L 223.414885 200.839216 
L 223.414885 199.897124 
L 223.690687 199.897124 
L 223.690687 198.955033 
L 224.86993 198.955033 
L 224.86993 198.012941 
L 227.091064 198.012941 
L 227.091064 197.07085 
L 227.869001 197.07085 
L 227.869001 196.128758 
L 228.23612 196.128758 
L 228.23612 194.244575 
L 229.917297 194.244575 
L 229.917297 193.302484 
L 231.108551 193.302484 
L 231.108551 192.360392 
L 231.265608 192.360392 
L 231.265608 190.476209 
L 232.022681 190.476209 
L 232.022681 189.534118 
L 232.312072 189.534118 
L 232.312072 188.592026 
L 233.079119 188.592026 
L 233.079119 187.649935 
L 233.491314 187.649935 
L 233.491314 186.707843 
L 233.8767 186.707843 
L 233.8767 185.765752 
L 234.276232 185.765752 
L 234.325333 181.997386 
L 234.402266 181.997386 
L 234.402266 181.055294 
L 235.054615 181.055294 
L 235.054615 180.113203 
L 235.749168 180.113203 
L 235.749168 179.171111 
L 236.393292 179.171111 
L 236.393292 178.22902 
L 236.634894 178.22902 
L 236.634894 177.286928 
L 236.844032 177.286928 
L 236.844032 176.344837 
L 238.411201 176.344837 
L 238.411201 175.402745 
L 238.630946 175.402745 
L 238.630946 174.460654 
L 240.832925 174.460654 
L 240.832925 173.518562 
L 241.074949 173.518562 
L 241.118363 170.692288 
L 241.281225 170.692288 
L 241.281225 169.750196 
L 242.032493 169.750196 
L 242.032493 168.808105 
L 242.496758 168.808105 
L 242.496758 167.866013 
L 242.861503 167.866013 
L 242.861503 166.923922 
L 243.676 166.923922 
L 243.676 165.98183 
L 244.061385 165.98183 
L 244.061385 165.039739 
L 244.270022 165.039739 
L 244.270022 164.097647 
L 244.412078 164.097647 
L 244.465768 162.213464 
L 245.012214 162.213464 
L 245.062166 160.329281 
L 245.43192 160.329281 
L 245.459528 158.445098 
L 245.60048 158.445098 
L 245.60048 157.503007 
L 245.933854 157.503007 
L 245.933854 155.618824 
L 246.328116 155.618824 
L 246.328116 154.676732 
L 246.837822 154.676732 
L 246.837822 153.734641 
L 247.837918 153.734641 
L 247.837918 152.792549 
L 248.200393 152.792549 
L 248.200393 151.850458 
L 248.58597 151.850458 
L 248.58597 150.908366 
L 249.403362 150.908366 
L 249.403362 149.966275 
L 249.765212 149.966275 
L 249.765212 149.024183 
L 250.232693 149.024183 
L 250.232693 148.082092 
L 251.641016 148.082092 
L 251.641016 147.14 
L 252.832556 147.14 
L 252.832556 146.197908 
L 254.09155 146.197908 
L 254.09155 145.255817 
L 254.454707 145.255817 
L 254.454707 143.371634 
L 254.626294 143.371634 
L 254.626294 142.429542 
L 255.616605 142.429542 
L 255.616605 141.487451 
L 258.513315 141.487451 
L 258.513315 140.545359 
L 258.778428 140.545359 
L 258.87806 137.719085 
L 259.079114 137.719085 
L 259.079114 136.776993 
L 259.692557 136.776993 
L 259.692557 134.89281 
L 259.949898 134.89281 
L 259.949898 133.950719 
L 260.459604 133.950719 
L 260.459604 133.008627 
L 260.611242 133.008627 
L 260.611242 132.066536 
L 261.21204 132.066536 
L 261.21204 131.124444 
L 261.4597 131.124444 
L 261.530176 129.240261 
L 262.072142 129.240261 
L 262.072142 127.356078 
L 263.31211 127.356078 
L 263.386994 124.529804 
L 263.628104 124.529804 
L 263.628104 123.587712 
L 263.854475 123.587712 
L 263.854475 122.645621 
L 264.033622 122.645621 
L 264.101362 119.819346 
L 264.535556 119.819346 
L 264.535556 118.877255 
L 265.051588 118.877255 
L 265.051588 117.935163 
L 266.511052 117.935163 
L 266.511052 116.993072 
L 268.21341 116.993072 
L 268.248076 114.166797 
L 269.088926 114.166797 
L 269.088926 113.224706 
L 269.531134 113.224706 
L 269.546683 111.340523 
L 270.056389 111.340523 
L 270.056389 110.398431 
L 270.546779 110.398431 
L 270.546779 109.45634 
L 270.781211 109.45634 
L 270.781211 108.514248 
L 271.056485 108.514248 
L 271.056485 106.630065 
L 271.457521 106.630065 
L 271.518498 104.745882 
L 271.633162 104.745882 
L 271.633162 103.803791 
L 272.056581 103.803791 
L 272.056581 102.861699 
L 272.525119 102.861699 
L 272.525119 101.919608 
L 272.983779 101.919608 
L 272.983779 100.977516 
L 273.45126 100.977516 
L 273.496795 99.093333 
L 273.953194 99.093333 
L 273.983875 97.20915 
L 274.156247 97.20915 
L 274.218307 95.324967 
L 274.451356 95.324967 
L 274.451356 94.382876 
L 274.926877 94.382876 
L 274.926877 93.440784 
L 275.132437 93.440784 
L 275.218404 91.556601 
L 275.331105 91.556601 
L 275.331105 90.61451 
L 275.517822 90.61451 
L 275.517822 89.672418 
L 276.22213 89.672418 
L 276.331201 86.846144 
L 277.306601 86.846144 
L 277.390291 84.961961 
L 277.844861 84.961961 
L 277.844861 84.019869 
L 278.451657 84.019869 
L 278.451657 83.077778 
L 278.844957 83.077778 
L 278.844957 82.135686 
L 279.715819 82.135686 
L 279.715819 81.193595 
L 281.761426 81.193595 
L 281.835192 77.425229 
L 282.709804 77.425229 
L 282.709804 76.483137 
L 284.05618 76.483137 
L 284.05618 75.541046 
L 284.402993 75.541046 
L 284.402993 74.598954 
L 284.577369 74.598954 
L 284.577369 73.656863 
L 284.748743 73.656863 
L 284.748743 72.714771 
L 285.911144 72.714771 
L 285.927985 70.830588 
L 286.313371 70.830588 
L 286.313371 69.888497 
L 286.74899 69.888497 
L 286.74899 68.004314 
L 287.073042 68.004314 
L 287.073042 67.062222 
L 287.871083 67.062222 
L 287.871083 66.120131 
L 288.185839 66.120131 
L 288.185839 65.178039 
L 288.840186 65.178039 
L 288.840186 64.235948 
L 289.166337 64.235948 
L 289.166337 62.351765 
L 291.395864 62.351765 
L 291.431977 59.52549 
L 292.432073 59.52549 
L 292.432073 57.641307 
L 293.999778 57.641307 
L 293.999778 56.699216 
L 294.548421 56.699216 
L 294.548421 55.757124 
L 294.999874 55.757124 
L 294.999874 54.815033 
L 296.126271 54.815033 
L 296.126271 53.872941 
L 296.706693 53.872941 
L 296.706693 52.93085 
L 297.000387 52.93085 
L 297.000387 51.988758 
L 297.868591 51.988758 
L 297.868591 51.046667 
L 298.43697 51.046667 
L 298.43697 50.104575 
L 299.437066 50.104575 
L 299.437066 49.162484 
L 304.953232 49.162484 
L 304.953232 48.220392 
L 305.455677 48.220392 
L 305.455677 47.278301 
L 305.590541 47.278301 
L 305.674744 45.394118 
L 306.310957 45.394118 
L 306.310957 44.452026 
L 307.828195 44.452026 
L 307.828195 43.509935 
L 308.170203 43.509935 
L 308.170203 42.567843 
L 311.172256 42.567843 
L 311.172256 41.625752 
L 314.166241 41.625752 
L 314.166241 40.68366 
L 315.748781 40.68366 
L 315.748781 39.741569 
L 316.470293 39.741569 
L 316.470293 38.799477 
L 317.766988 38.799477 
L 317.766988 37.857386 
L 318.534748 37.857386 
L 318.534748 36.915294 
L 318.767084 36.915294 
L 318.767084 35.973203 
L 319.077459 35.973203 
L 319.077459 35.031111 
L 320.772401 35.031111 
L 320.772401 34.08902 
L 321.967805 34.08902 
L 321.967805 33.146928 
L 324.96179 33.146928 
L 324.96179 32.204837 
L 328.674244 32.204837 
L 328.674244 31.262745 
L 329.67434 31.262745 
L 329.67434 30.320654 
L 337.767394 30.320654 
L 337.767394 29.378562 
L 345.822551 29.378562 
L 345.822551 28.436471 
L 346.368997 28.436471 
L 346.41895 26.552288 
L 346.816311 26.552288 
L 346.816311 25.610196 
L 346.957263 25.610196 
L 346.957263 24.668105 
L 348.562942 24.668105 
L 348.562942 23.726013 
L 349.557176 23.726013 
L 349.557176 22.783922 
L 355.832363 22.783922 
L 355.832363 21.84183 
L 356.378809 21.84183 
L 356.428761 19.957647 
L 356.826123 19.957647 
L 356.826123 19.015556 
L 356.967075 19.015556 
L 356.967075 18.073464 
L 359.566988 18.073464 
L 359.566988 17.131373 
L 373.492427 17.131373 
L 373.492427 15.24719 
L 374.038873 15.24719 
L 374.088826 11.478824 
L 374.486188 11.478824 
L 374.486188 9.594641 
L 374.627139 9.594641 
L 374.627139 7.710458 
L 377.227052 7.710458 
L 377.227052 5.826275 
L 453.192 5.826275 
L 453.192 5.826275 
" clip-path="url(#paa199345ee)" style="fill: none; stroke: #000000; stroke-width: 3; stroke-linecap: square"/>
   </g>
   <g id="line2d_54">
    <path clip-path="url(#paa199345ee)" style="fill: none; stroke: #000000; stroke-width: 3; stroke-linecap: square"/>
   </g>
   <g id="line2d_55">
    <path d="M 34.16 258.172213 
L 69.846637 258.172213 
L 69.846637 257.050675 
L 71.058826 257.050675 
L 71.136912 254.8076 
L 72.349102 254.8076 
L 72.349102 253.686063 
L 82.983253 253.686063 
L 82.983253 252.564525 
L 84.195443 252.564525 
L 84.195443 251.442988 
L 86.068398 251.442988 
L 86.068398 250.32145 
L 86.959316 250.32145 
L 86.959316 249.199913 
L 87.280587 249.199913 
L 87.280587 248.078375 
L 104.144648 248.078375 
L 104.144648 246.956838 
L 109.582951 246.956838 
L 109.582951 245.8353 
L 119.393392 245.8353 
L 119.393392 244.713763 
L 119.704651 244.713763 
L 119.809569 242.470688 
L 121.948843 242.470688 
L 122.053762 240.227613 
L 127.50416 240.227613 
L 127.609078 235.741463 
L 129.350843 235.741463 
L 129.350843 234.619925 
L 129.732764 234.619925 
L 129.827893 232.37685 
L 131.595036 232.37685 
L 131.595036 231.255313 
L 133.755544 231.255313 
L 133.755544 230.133775 
L 133.906532 230.133775 
L 133.906532 229.012238 
L 134.789489 229.012238 
L 134.894407 226.769163 
L 135.205371 226.769163 
L 135.205371 225.647625 
L 135.383209 225.647625 
L 135.383209 224.526088 
L 137.150353 224.526088 
L 137.150353 223.40455 
L 140.671004 223.40455 
L 140.671004 222.283013 
L 142.668538 222.283013 
L 142.668538 221.161475 
L 143.456562 221.161475 
L 143.565985 218.9184 
L 144.435682 218.9184 
L 144.435682 217.796863 
L 145.015812 217.796863 
L 145.015812 216.675325 
L 145.147335 216.675325 
L 145.147335 215.553788 
L 145.700755 215.553788 
L 145.700755 214.43225 
L 146.918095 214.43225 
L 146.918095 213.310713 
L 147.391527 213.310713 
L 147.391527 212.189175 
L 151.256072 212.189175 
L 151.256072 211.067638 
L 151.752722 211.067638 
L 151.752722 209.9461 
L 152.946844 209.9461 
L 152.946844 208.824563 
L 153.202548 208.824563 
L 153.202548 207.703025 
L 158.079125 207.703025 
L 158.079125 206.581488 
L 158.5414 206.581488 
L 158.5414 205.45995 
L 159.528952 205.45995 
L 159.528952 204.338413 
L 160.232173 204.338413 
L 160.232173 203.216875 
L 164.843597 203.216875 
L 164.843597 202.095338 
L 166.293423 202.095338 
L 166.293423 200.9738 
L 176.550827 200.9738 
L 176.550827 199.852263 
L 177.763017 199.852263 
L 177.763017 198.730725 
L 199.296481 198.730725 
L 199.296481 197.609188 
L 200.50867 197.609188 
L 200.50867 196.48765 
L 210.613796 196.48765 
L 210.613796 195.366113 
L 211.643123 195.366113 
L 211.643123 194.244575 
L 211.825985 194.244575 
L 211.825985 193.123038 
L 212.855312 193.123038 
L 212.855312 192.0015 
L 213.311884 192.0015 
L 213.416802 189.758425 
L 218.76197 189.758425 
L 218.76197 188.636888 
L 219.255624 188.636888 
L 219.262165 186.393813 
L 220.148136 186.393813 
L 220.148136 185.272275 
L 220.271104 185.272275 
L 220.271104 184.150738 
L 220.725833 184.150738 
L 220.725833 183.0292 
L 221.190933 183.0292 
L 221.190933 181.907663 
L 221.381498 181.907663 
L 221.381498 180.786125 
L 222.958077 180.786125 
L 222.958077 179.664588 
L 223.374274 179.664588 
L 223.374274 178.54305 
L 223.792787 178.54305 
L 223.792787 177.421513 
L 224.66455 177.421513 
L 224.66455 176.299975 
L 230.081545 176.299975 
L 230.081545 175.178438 
L 233.603228 175.178438 
L 233.603228 174.0569 
L 236.510891 174.0569 
L 236.510891 172.935363 
L 236.82495 172.935363 
L 236.82495 171.813825 
L 237.063795 171.813825 
L 237.063795 170.692288 
L 237.443058 170.692288 
L 237.443058 169.57075 
L 238.056894 169.57075 
L 238.056894 168.449213 
L 238.268282 168.449213 
L 238.268282 167.327675 
L 238.754568 167.327675 
L 238.754568 166.206138 
L 239.069142 166.206138 
L 239.069142 165.0846 
L 239.393962 165.0846 
L 239.393962 163.963063 
L 239.530778 163.963063 
L 239.596035 161.719988 
L 239.646952 161.719988 
L 239.68725 159.476913 
L 240.301087 159.476913 
L 240.301087 158.355375 
L 241.638155 158.355375 
L 241.638155 157.233838 
L 241.774971 157.233838 
L 241.789964 154.990763 
L 241.891145 154.990763 
L 241.891145 153.869225 
L 242.625527 153.869225 
L 242.625527 152.747688 
L 242.934563 152.747688 
L 242.934563 151.62615 
L 243.428217 151.62615 
L 243.434758 149.383075 
L 243.837717 149.383075 
L 243.837717 148.261538 
L 244.320729 148.261538 
L 244.38439 146.018462 
L 244.594685 146.018462 
L 244.624459 143.775387 
L 244.878044 143.775387 
L 244.898426 140.410775 
L 245.242567 140.410775 
L 245.242567 139.289237 
L 245.770556 139.289237 
L 245.856404 137.046162 
L 246.348253 137.046162 
L 246.348253 135.924625 
L 247.193472 135.924625 
L 247.193472 134.803087 
L 247.330287 134.803087 
L 247.330287 133.68155 
L 247.446462 133.68155 
L 247.446462 132.560012 
L 248.116368 132.560012 
L 248.116368 131.438475 
L 251.359157 131.438475 
L 251.359157 130.316937 
L 251.909788 130.316937 
L 251.909788 129.1954 
L 252.527896 129.1954 
L 252.527896 128.073862 
L 253.141733 128.073862 
L 253.141733 126.952325 
L 254.478801 126.952325 
L 254.478801 125.830787 
L 254.615616 125.830787 
L 254.615616 124.70925 
L 254.731791 124.70925 
L 254.731791 123.587712 
L 254.880839 123.587712 
L 254.880839 122.466175 
L 259.556019 122.466175 
L 259.556019 121.344637 
L 260.655976 121.344637 
L 260.655976 120.2231 
L 261.127881 120.2231 
L 261.127881 119.101562 
L 264.154945 119.101562 
L 264.154945 117.980025 
L 272.065974 117.980025 
L 272.065974 116.858487 
L 274.310167 116.858487 
L 274.310167 115.73695 
L 276.40287 115.73695 
L 276.40287 114.615412 
L 276.656646 114.615412 
L 276.656646 113.493875 
L 278.647063 113.493875 
L 278.647063 112.372337 
L 278.900839 112.372337 
L 278.900839 111.2508 
L 279.865483 111.2508 
L 279.865483 110.129262 
L 283.728612 110.129262 
L 283.728612 109.007725 
L 284.202379 109.007725 
L 284.202379 107.886187 
L 284.456155 107.886187 
L 284.456155 106.76465 
L 284.828569 106.76465 
L 284.828569 105.643112 
L 285.178439 105.643112 
L 285.178439 104.521575 
L 285.300474 104.521575 
L 285.300474 103.400037 
L 286.278395 103.400037 
L 286.278395 102.2785 
L 286.750301 102.2785 
L 286.750301 101.156962 
L 287.150812 101.156962 
L 287.150812 100.035425 
L 291.487708 100.035425 
L 291.487708 98.913887 
L 291.663738 98.913887 
L 291.741484 96.670812 
L 315.836331 96.670812 
L 315.836331 95.549275 
L 317.286158 95.549275 
L 317.286158 94.427737 
L 320.727623 94.427737 
L 320.727623 93.3062 
L 329.450123 93.3062 
L 329.450123 92.184662 
L 329.943777 92.184662 
L 329.950318 89.941587 
L 330.078465 89.941587 
L 330.078465 88.82005 
L 330.432183 88.82005 
L 330.432183 87.698512 
L 330.83629 87.698512 
L 330.83629 86.576975 
L 331.050291 86.576975 
L 331.050291 85.455437 
L 331.413986 85.455437 
L 331.413986 84.3339 
L 331.664127 84.3339 
L 331.664127 83.212362 
L 332.971806 83.212362 
L 333.001196 80.969287 
L 333.138011 80.969287 
L 333.138011 79.84775 
L 333.254185 79.84775 
L 333.254185 78.726212 
L 333.46546 78.726212 
L 333.472 76.483137 
L 334.357972 76.483137 
L 334.357972 75.3616 
L 334.935669 75.3616 
L 334.935669 74.240062 
L 344.900216 74.240062 
L 344.900216 73.118525 
L 346.350043 73.118525 
L 346.350043 71.996987 
L 352.824118 71.996987 
L 352.824118 70.87545 
L 364.141433 70.87545 
L 364.141433 69.753912 
L 365.17076 69.753912 
L 365.17076 68.632375 
L 365.673207 68.632375 
L 365.673207 67.510837 
L 370.010103 67.510837 
L 370.010103 66.3893 
L 370.244173 66.3893 
L 370.263879 64.146225 
L 371.344129 64.146225 
L 371.344129 63.024687 
L 371.816035 63.024687 
L 371.816035 61.90315 
L 373.765855 61.90315 
L 373.765855 60.781612 
L 374.865811 60.781612 
L 374.865811 59.660075 
L 375.337717 59.660075 
L 375.337717 58.538537 
L 396.153165 58.538537 
L 396.153165 57.417 
L 402.351892 57.417 
L 402.351892 56.295462 
L 405.873574 56.295462 
L 405.873574 55.173925 
L 431.415776 55.173925 
L 431.415776 54.052387 
L 434.937459 54.052387 
L 434.937459 52.93085 
L 453.192 52.93085 
L 453.192 52.93085 
" clip-path="url(#paa199345ee)" style="fill: none; stroke: #00bfbf; stroke-width: 3; stroke-linecap: square"/>
   </g>
   <g id="line2d_56">
    <path clip-path="url(#paa199345ee)" style="fill: none; stroke: #00bfbf; stroke-width: 3; stroke-linecap: square"/>
   </g>
   <g id="line2d_57">
    <path d="M 34.16 264.569716 
L 76.954838 264.569716 
L 76.954838 263.242826 
L 78.08709 263.242826 
L 78.08709 261.915937 
L 87.161926 261.915937 
L 87.161926 260.589047 
L 88.294179 260.589047 
L 88.294179 259.262158 
L 90.970082 259.262158 
L 90.970082 257.935268 
L 92.102334 257.935268 
L 92.102334 256.608379 
L 100.214467 256.608379 
L 100.214467 255.281489 
L 101.346719 255.281489 
L 101.346719 253.9546 
L 119.393392 253.9546 
L 119.393392 252.627711 
L 123.050788 252.627711 
L 123.050788 251.300821 
L 124.452218 251.300821 
L 124.452218 249.973932 
L 126.362514 249.973932 
L 126.362514 248.647042 
L 132.637756 248.647042 
L 132.637756 247.320153 
L 135.190799 247.320153 
L 135.190799 245.993263 
L 138.813092 245.993263 
L 138.813092 244.666374 
L 142.630167 244.666374 
L 142.630167 243.339484 
L 143.630598 243.339484 
L 143.630598 242.012595 
L 145.015812 242.012595 
L 145.015812 240.685706 
L 145.782214 240.685706 
L 145.782214 239.358816 
L 146.258679 239.358816 
L 146.258679 238.031927 
L 147.523452 238.031927 
L 147.523452 236.705037 
L 147.660109 236.705037 
L 147.660109 235.378148 
L 148.924882 235.378148 
L 148.924882 234.051258 
L 151.984934 234.051258 
L 152.057455 231.39748 
L 152.562894 231.39748 
L 152.562894 230.07059 
L 153.964324 230.07059 
L 153.964324 228.743701 
L 154.610499 228.743701 
L 154.610499 227.416811 
L 158.260175 227.416811 
L 158.260175 226.089922 
L 160.813219 226.089922 
L 160.813219 224.763032 
L 162.049866 224.763032 
L 162.049866 223.436143 
L 166.838488 223.436143 
L 166.838488 222.109253 
L 168.103262 222.109253 
L 168.103262 220.782364 
L 168.252586 220.782364 
L 168.252586 219.455475 
L 173.142703 219.455475 
L 173.142703 218.128585 
L 177.97967 218.128585 
L 177.97967 216.801696 
L 179.111922 216.801696 
L 179.111922 215.474806 
L 199.028218 215.474806 
L 199.028218 214.147917 
L 200.16047 214.147917 
L 200.16047 212.821027 
L 210.578116 212.821027 
L 210.578116 211.494138 
L 211.710368 211.494138 
L 211.710368 210.167248 
L 211.965869 210.167248 
L 211.965869 208.840359 
L 212.246399 208.840359 
L 212.246399 207.51347 
L 213.098121 207.51347 
L 213.098121 206.18658 
L 213.70557 206.18658 
L 213.710527 203.532801 
L 214.34477 203.532801 
L 214.34477 202.205912 
L 214.968991 202.205912 
L 215.040938 199.552133 
L 216.867011 199.552133 
L 216.867011 198.225243 
L 217.675079 198.225243 
L 217.675079 196.898354 
L 219.255624 196.898354 
L 219.255624 195.571465 
L 219.851997 195.571465 
L 219.852867 192.917686 
L 220.121941 192.917686 
L 220.148136 190.263907 
L 220.586943 190.263907 
L 220.586943 188.937017 
L 221.905446 188.937017 
L 221.905446 187.610128 
L 226.821119 187.610128 
L 226.821119 186.283239 
L 227.02506 186.283239 
L 227.091064 183.62946 
L 227.882168 183.62946 
L 227.882168 182.30257 
L 228.42649 182.30257 
L 228.42649 180.975681 
L 231.690323 180.975681 
L 231.690323 179.648791 
L 233.09636 179.648791 
L 233.09636 178.321902 
L 233.366305 178.321902 
L 233.366305 176.995012 
L 235.45429 176.995012 
L 235.45429 175.668123 
L 235.649404 175.668123 
L 235.649404 174.341234 
L 235.919348 174.341234 
L 235.919348 173.014344 
L 236.719063 173.014344 
L 236.719063 171.687455 
L 236.913461 171.687455 
L 236.918418 169.033676 
L 237.552661 169.033676 
L 237.552661 167.706786 
L 238.176881 167.706786 
L 238.248829 162.399229 
L 238.675324 162.399229 
L 238.675324 161.072339 
L 238.817434 161.072339 
L 238.817434 159.74545 
L 239.272567 159.74545 
L 239.272567 158.41856 
L 239.441655 158.41856 
L 239.513602 155.764781 
L 239.567836 155.764781 
L 239.567836 154.437892 
L 240.006642 154.437892 
L 240.074902 151.784113 
L 240.934708 151.784113 
L 240.934708 150.457224 
L 241.325146 150.457224 
L 241.339675 147.803445 
L 241.758504 147.803445 
L 241.758504 146.476555 
L 242.464484 146.476555 
L 242.464484 145.149666 
L 243.088771 145.149666 
L 243.088771 143.822776 
L 243.217676 143.822776 
L 243.222632 141.168998 
L 243.358716 141.168998 
L 243.358716 139.842108 
L 243.596736 139.842108 
L 243.596736 138.515219 
L 243.856876 138.515219 
L 243.856876 137.188329 
L 244.481096 137.188329 
L 244.553044 134.53455 
L 244.878044 134.53455 
L 244.878044 133.207661 
L 245.475287 133.207661 
L 245.475287 131.880771 
L 245.770556 131.880771 
L 245.770556 130.553882 
L 246.209362 130.553882 
L 246.209362 129.226993 
L 246.379117 129.226993 
L 246.379117 127.900103 
L 247.527866 127.900103 
L 247.604869 125.246324 
L 248.431143 125.246324 
L 248.431143 123.919435 
L 248.562631 123.919435 
L 248.562631 122.592545 
L 251.601354 122.592545 
L 251.701885 118.611877 
L 259.556019 118.611877 
L 259.556019 117.284988 
L 261.064378 117.284988 
L 261.064378 115.958098 
L 262.841904 115.958098 
L 262.841904 114.631209 
L 271.639034 114.631209 
L 271.639034 113.304319 
L 271.770521 113.304319 
L 271.770521 111.97743 
L 272.903807 111.97743 
L 272.903807 110.65054 
L 273.035295 110.65054 
L 273.035295 109.323651 
L 274.809245 109.323651 
L 274.909775 105.342983 
L 276.074018 105.342983 
L 276.174549 101.362314 
L 277.943249 101.362314 
L 277.943249 100.035425 
L 278.074736 100.035425 
L 278.074736 98.708535 
L 278.975719 98.708535 
L 278.975719 97.381646 
L 280.484077 97.381646 
L 280.484077 96.054757 
L 281.11346 96.054757 
L 281.21399 92.074088 
L 282.261604 92.074088 
L 282.261604 90.747199 
L 285.178439 90.747199 
L 285.178439 89.420309 
L 286.686797 89.420309 
L 286.686797 88.09342 
L 288.464324 88.09342 
L 288.464324 86.76653 
L 292.348199 86.76653 
L 292.348199 85.439641 
L 311.767898 85.439641 
L 311.767898 84.112752 
L 316.220671 84.112752 
L 316.220671 82.785862 
L 317.679842 82.785862 
L 317.684799 80.132083 
L 317.970618 80.132083 
L 317.970618 78.805194 
L 318.319042 78.805194 
L 318.319042 77.478304 
L 318.699911 77.478304 
L 318.699911 76.151415 
L 318.943262 76.151415 
L 319.01521 73.497636 
L 319.714229 73.497636 
L 319.714229 72.170747 
L 319.984173 72.170747 
L 319.984173 70.843857 
L 320.311472 70.843857 
L 320.311472 69.516968 
L 320.581416 69.516968 
L 320.606741 66.863189 
L 320.841283 66.863189 
L 320.876685 64.20941 
L 321.045547 64.20941 
L 321.045547 62.88252 
L 321.315492 62.88252 
L 321.315492 61.555631 
L 321.553473 61.555631 
L 321.553473 60.228742 
L 322.364051 60.228742 
L 322.364051 58.901852 
L 322.633995 58.901852 
L 322.633995 57.574963 
L 339.748459 57.574963 
L 339.748459 56.248073 
L 340.973172 56.248073 
L 340.973172 54.921184 
L 347.175892 54.921184 
L 347.175892 53.594294 
L 351.298357 53.594294 
L 351.298357 52.267405 
L 352.405415 52.267405 
L 352.405415 50.940516 
L 352.536903 50.940516 
L 352.536903 49.613626 
L 352.68611 49.613626 
L 352.68611 48.286737 
L 355.575626 48.286737 
L 355.676156 44.306068 
L 360.014624 44.306068 
L 360.014624 42.979179 
L 360.284569 42.979179 
L 360.284569 41.652289 
L 361.522982 41.652289 
L 361.522982 40.3254 
L 361.792927 40.3254 
L 361.792927 38.998511 
L 363.300509 38.998511 
L 363.300509 37.671621 
L 363.570453 37.671621 
L 363.570453 36.344732 
L 383.184725 36.344732 
L 383.184725 35.017842 
L 392.806803 35.017842 
L 392.806803 33.690953 
L 393.076748 33.690953 
L 393.076748 32.364063 
L 422.012077 32.364063 
L 422.012077 31.037174 
L 422.282022 31.037174 
L 422.282022 29.710284 
L 453.192 29.710284 
L 453.192 29.710284 
" clip-path="url(#paa199345ee)" style="fill: none; stroke: #bf00bf; stroke-width: 3; stroke-linecap: square"/>
   </g>
   <g id="line2d_58">
    <path clip-path="url(#paa199345ee)" style="fill: none; stroke: #bf00bf; stroke-width: 3; stroke-linecap: square"/>
   </g>
   <g id="line2d_59">
    <path d="M 34.16 264.569716 
L 107.915226 264.569716 
L 107.915226 263.242826 
L 108.074829 263.242826 
L 108.074829 261.915937 
L 109.251729 261.915937 
L 109.251729 260.589047 
L 109.732886 260.589047 
L 109.732886 259.262158 
L 109.892489 259.262158 
L 109.892489 257.935268 
L 111.069389 257.935268 
L 111.069389 256.608379 
L 116.268638 256.608379 
L 116.268638 255.281489 
L 118.086298 255.281489 
L 118.086298 253.9546 
L 125.434299 253.9546 
L 125.434299 252.627711 
L 129.169523 252.627711 
L 129.169523 251.300821 
L 135.527828 251.300821 
L 135.527828 249.973932 
L 141.689538 249.973932 
L 141.689538 248.647042 
L 141.819123 248.647042 
L 141.819123 247.320153 
L 143.288935 247.320153 
L 143.288935 245.993263 
L 144.56745 245.993263 
L 144.56745 244.666374 
L 147.791207 244.666374 
L 147.791207 243.339484 
L 148.984773 243.339484 
L 148.984773 242.012595 
L 151.526431 242.012595 
L 151.526431 240.685706 
L 152.719997 240.685706 
L 152.719997 239.358816 
L 154.78609 239.358816 
L 154.78609 238.031927 
L 155.852323 238.031927 
L 155.852323 236.705037 
L 159.116846 236.705037 
L 159.116846 235.378148 
L 162.713295 235.378148 
L 162.713295 234.051258 
L 163.61343 234.051258 
L 163.61343 232.724369 
L 164.046446 232.724369 
L 164.046446 231.39748 
L 164.176031 231.39748 
L 164.176031 230.07059 
L 165.240012 230.07059 
L 165.240012 228.743701 
L 165.369597 228.743701 
L 165.369597 227.416811 
L 166.877952 227.416811 
L 166.924359 224.763032 
L 168.117925 224.763032 
L 168.117925 223.436143 
L 170.474402 223.436143 
L 170.474402 222.109253 
L 175.110585 222.109253 
L 175.110585 220.782364 
L 178.375107 220.782364 
L 178.375107 219.455475 
L 180.18356 219.455475 
L 180.18356 218.128585 
L 181.971556 218.128585 
L 182.00122 215.474806 
L 199.216224 215.474806 
L 199.216224 214.147917 
L 201.033884 214.147917 
L 201.033884 212.821027 
L 210.309053 212.821027 
L 210.309053 211.494138 
L 211.561996 211.494138 
L 211.561996 210.167248 
L 212.126713 210.167248 
L 212.126713 208.840359 
L 213.379656 208.840359 
L 213.379656 207.51347 
L 214.288258 207.51347 
L 214.288258 206.18658 
L 215.734477 206.18658 
L 215.734477 204.859691 
L 216.238716 204.859691 
L 216.238716 203.532801 
L 216.415157 203.532801 
L 216.415157 202.205912 
L 216.865276 202.205912 
L 216.960476 199.552133 
L 217.067817 199.552133 
L 217.067817 198.225243 
L 218.545688 198.225243 
L 218.545688 196.898354 
L 219.04157 196.898354 
L 219.04157 195.571465 
L 219.339606 195.571465 
L 219.448526 192.917686 
L 220.113644 192.917686 
L 220.113644 191.590796 
L 221.533122 191.590796 
L 221.533122 190.263907 
L 221.754692 190.263907 
L 221.754692 188.937017 
L 222.200165 188.937017 
L 222.280912 186.283239 
L 225.935389 186.283239 
L 225.935389 184.956349 
L 226.763436 184.956349 
L 226.763436 183.62946 
L 226.923039 183.62946 
L 226.923039 182.30257 
L 228.099939 182.30257 
L 228.099939 180.975681 
L 229.294229 180.975681 
L 229.294229 179.648791 
L 234.612753 179.648791 
L 234.612753 178.321902 
L 234.800927 178.321902 
L 234.800927 176.995012 
L 234.930512 176.995012 
L 234.930512 175.668123 
L 235.116848 175.668123 
L 235.116848 174.341234 
L 236.058972 174.341234 
L 236.058972 173.014344 
L 236.563211 173.014344 
L 236.563211 171.687455 
L 236.739651 171.687455 
L 236.739651 170.360565 
L 237.189771 170.360565 
L 237.28497 167.706786 
L 237.392312 167.706786 
L 237.392312 166.379897 
L 237.678839 166.379897 
L 237.678839 165.053007 
L 237.877275 165.053007 
L 237.877275 163.726118 
L 238.455404 163.726118 
L 238.455404 162.399229 
L 238.584988 162.399229 
L 238.584988 161.072339 
L 239.323494 161.072339 
L 239.323494 159.74545 
L 239.827733 159.74545 
L 239.827733 158.41856 
L 240.004174 158.41856 
L 240.004174 157.091671 
L 240.454293 157.091671 
L 240.549493 154.437892 
L 240.656834 154.437892 
L 240.656834 153.111002 
L 240.791384 153.111002 
L 240.791384 151.784113 
L 241.333316 151.784113 
L 241.398478 149.130334 
L 241.473724 149.130334 
L 241.473724 147.803445 
L 241.696514 147.803445 
L 241.805434 145.149666 
L 242.470552 145.149666 
L 242.470552 143.822776 
L 242.592044 143.822776 
L 242.592044 142.495887 
L 242.717058 142.495887 
L 242.717058 141.168998 
L 242.89008 141.168998 
L 242.999 137.188329 
L 243.424182 137.188329 
L 243.424182 135.86144 
L 243.600623 135.86144 
L 243.664118 133.207661 
L 244.050742 133.207661 
L 244.145942 129.226993 
L 244.253284 129.226993 
L 244.253284 127.900103 
L 244.534718 127.900103 
L 244.534718 126.573214 
L 245.305167 126.573214 
L 245.305167 125.246324 
L 247.515183 125.246324 
L 247.515183 123.919435 
L 248.207218 123.919435 
L 248.207218 122.592545 
L 250.387628 122.592545 
L 250.387628 121.265656 
L 250.610482 121.265656 
L 250.610482 119.938766 
L 251.221268 119.938766 
L 251.221268 118.611877 
L 259.47708 118.611877 
L 259.518736 115.958098 
L 260.78238 115.958098 
L 260.78238 114.631209 
L 267.839678 114.631209 
L 267.839678 113.304319 
L 268.531713 113.304319 
L 268.531713 111.97743 
L 270.712122 111.97743 
L 270.712122 110.65054 
L 270.934977 110.65054 
L 270.934977 109.323651 
L 271.104201 109.323651 
L 271.104201 107.996761 
L 271.545763 107.996761 
L 271.545763 106.669872 
L 271.796235 106.669872 
L 271.796235 105.342983 
L 273.976645 105.342983 
L 273.976645 104.016093 
L 274.199499 104.016093 
L 274.199499 102.689204 
L 274.70065 102.689204 
L 274.810285 100.035425 
L 275.392684 100.035425 
L 275.392684 98.708535 
L 277.573094 98.708535 
L 277.573094 97.381646 
L 277.795948 97.381646 
L 277.795948 96.054757 
L 278.406735 96.054757 
L 278.406735 94.727867 
L 281.833988 94.727867 
L 281.875644 92.074088 
L 283.027554 92.074088 
L 283.06921 89.420309 
L 283.139288 89.420309 
L 283.139288 88.09342 
L 284.332854 88.09342 
L 284.332854 86.76653 
L 290.201874 86.76653 
L 290.201874 85.439641 
L 299.03177 85.439641 
L 299.03177 84.112752 
L 300.293552 84.112752 
L 300.293552 82.785862 
L 301.739771 82.785862 
L 301.739771 81.458973 
L 302.24401 81.458973 
L 302.24401 80.132083 
L 302.42045 80.132083 
L 302.42045 78.805194 
L 302.87057 78.805194 
L 302.965769 76.151415 
L 303.073111 76.151415 
L 303.073111 74.824525 
L 312.152959 74.824525 
L 312.152959 73.497636 
L 312.450994 73.497636 
L 312.559915 69.516968 
L 313.225033 69.516968 
L 313.225033 68.190078 
L 313.752349 68.190078 
L 313.752349 66.863189 
L 314.866081 66.863189 
L 314.866081 65.536299 
L 315.807436 65.536299 
L 315.807436 64.20941 
L 316.105471 64.20941 
L 316.214391 61.555631 
L 316.87951 61.555631 
L 316.87951 60.228742 
L 318.064433 60.228742 
L 318.064433 58.901852 
L 318.520558 58.901852 
L 318.520558 57.574963 
L 319.048786 57.574963 
L 319.048786 56.248073 
L 329.157263 56.248073 
L 329.157263 54.921184 
L 330.410206 54.921184 
L 330.410206 53.594294 
L 333.520477 53.594294 
L 333.520477 52.267405 
L 334.212512 52.267405 
L 334.212512 50.940516 
L 336.392921 50.940516 
L 336.392921 49.613626 
L 336.615776 49.613626 
L 336.615776 48.286737 
L 337.226562 48.286737 
L 337.226562 46.959847 
L 341.405694 46.959847 
L 341.405694 45.632958 
L 342.59926 45.632958 
L 342.59926 44.306068 
L 352.588469 44.306068 
L 352.630125 41.652289 
L 353.893769 41.652289 
L 353.893769 40.3254 
L 356.242946 40.3254 
L 356.284601 37.671621 
L 357.548246 37.671621 
L 357.548246 36.344732 
L 361.565268 36.344732 
L 361.565268 35.017842 
L 383.313263 35.017842 
L 383.313263 33.690953 
L 386.96774 33.690953 
L 386.96774 32.364063 
L 412.160175 32.364063 
L 412.160175 31.037174 
L 415.814652 31.037174 
L 415.814652 29.710284 
L 453.192 29.710284 
L 453.192 29.710284 
" clip-path="url(#paa199345ee)" style="fill: none; stroke: #ff0000; stroke-width: 3; stroke-linecap: square"/>
   </g>
   <g id="line2d_60">
    <path clip-path="url(#paa199345ee)" style="fill: none; stroke: #ff0000; stroke-width: 3; stroke-linecap: square"/>
   </g>
   <g id="line2d_61">
    <path d="M 243.676 291.28 
L 243.676 3 
" clip-path="url(#paa199345ee)" style="fill: none; stroke: #000000; stroke-width: 1.5; stroke-linecap: square"/>
   </g>
   <g id="line2d_62">
    <path d="M 34.16 147.14 
L 453.192 147.14 
" clip-path="url(#paa199345ee)" style="fill: none; stroke-dasharray: 2,3.3; stroke-dashoffset: 0; stroke: #000000; stroke-width: 2"/>
   </g>
   <g id="patch_3">
    <path d="M 34.16 291.28 
L 34.16 3 
" style="fill: none; stroke: #000000; stroke-width: 0.8; stroke-linejoin: miter; stroke-linecap: square"/>
   </g>
   <g id="patch_4">
    <path d="M 453.192 291.28 
L 453.192 3 
" style="fill: none; stroke: #000000; stroke-width: 0.8; stroke-linejoin: miter; stroke-linecap: square"/>
   </g>
   <g id="patch_5">
    <path d="M 34.16 291.28 
L 453.192 291.28 
" style="fill: none; stroke: #000000; stroke-width: 0.8; stroke-linejoin: miter; stroke-linecap: square"/>
   </g>
   <g id="patch_6">
    <path d="M 34.16 3 
L 453.192 3 
" style="fill: none; stroke: #000000; stroke-width: 0.8; stroke-linejoin: miter; stroke-linecap: square"/>
   </g>
   <g id="text_5">
    <!-- f6-f9,10-D -->
    <g transform="translate(343.64261 285.5144) scale(0.2 -0.2)">
     <defs>
      <path id="DejaVuSans-36" d="M 2113 2584 
Q 1688 2584 1439 2293 
Q 1191 2003 1191 1497 
Q 1191 994 1439 701 
Q 1688 409 2113 409 
Q 2538 409 2786 701 
Q 3034 994 3034 1497 
Q 3034 2003 2786 2293 
Q 2538 2584 2113 2584 
z
M 3366 4563 
L 3366 3988 
Q 3128 4100 2886 4159 
Q 2644 4219 2406 4219 
Q 1781 4219 1451 3797 
Q 1122 3375 1075 2522 
Q 1259 2794 1537 2939 
Q 1816 3084 2150 3084 
Q 2853 3084 3261 2657 
Q 3669 2231 3669 1497 
Q 3669 778 3244 343 
Q 2819 -91 2113 -91 
Q 1303 -91 875 529 
Q 447 1150 447 2328 
Q 447 3434 972 4092 
Q 1497 4750 2381 4750 
Q 2619 4750 2861 4703 
Q 3103 4656 3366 4563 
z
" transform="scale(0.015625)"/>
      <path id="DejaVuSans-39" d="M 703 97 
L 703 672 
Q 941 559 1184 500 
Q 1428 441 1663 441 
Q 2288 441 2617 861 
Q 2947 1281 2994 2138 
Q 2813 1869 2534 1725 
Q 2256 1581 1919 1581 
Q 1219 1581 811 2004 
Q 403 2428 403 3163 
Q 403 3881 828 4315 
Q 1253 4750 1959 4750 
Q 2769 4750 3195 4129 
Q 3622 3509 3622 2328 
Q 3622 1225 3098 567 
Q 2575 -91 1691 -91 
Q 1453 -91 1209 -44 
Q 966 3 703 97 
z
M 1959 2075 
Q 2384 2075 2632 2365 
Q 2881 2656 2881 3163 
Q 2881 3666 2632 3958 
Q 2384 4250 1959 4250 
Q 1534 4250 1286 3958 
Q 1038 3666 1038 3163 
Q 1038 2656 1286 2365 
Q 1534 2075 1959 2075 
z
" transform="scale(0.015625)"/>
      <path id="DejaVuSans-2c" d="M 750 794 
L 1409 794 
L 1409 256 
L 897 -744 
L 494 -744 
L 750 256 
L 750 794 
z
" transform="scale(0.015625)"/>
      <path id="DejaVuSans-44" d="M 1259 4147 
L 1259 519 
L 2022 519 
Q 2988 519 3436 956 
Q 3884 1394 3884 2338 
Q 3884 3275 3436 3711 
Q 2988 4147 2022 4147 
L 1259 4147 
z
M 628 4666 
L 1925 4666 
Q 3281 4666 3915 4102 
Q 4550 3538 4550 2338 
Q 4550 1131 3912 565 
Q 3275 0 1925 0 
L 628 0 
L 628 4666 
z
" transform="scale(0.015625)"/>
     </defs>
     <use xlink:href="#DejaVuSans-66"/>
     <use xlink:href="#DejaVuSans-36" x="35.205078"/>
     <use xlink:href="#DejaVuSans-2d" x="98.828125"/>
     <use xlink:href="#DejaVuSans-66" x="134.912109"/>
     <use xlink:href="#DejaVuSans-39" x="170.117188"/>
     <use xlink:href="#DejaVuSans-2c" x="233.740234"/>
     <use xlink:href="#DejaVuSans-31" x="265.527344"/>
     <use xlink:href="#DejaVuSans-30" x="329.150391"/>
     <use xlink:href="#DejaVuSans-2d" x="392.773438"/>
     <use xlink:href="#DejaVuSans-44" x="428.857422"/>
    </g>
   </g>
   <g id="text_6">
    <!-- v2.6.3 -->
    <g style="fill: #808080" transform="translate(227.99475 286.317512) scale(0.1 -0.1)">
     <defs>
      <path id="DejaVuSans-32" d="M 1228 531 
L 3431 531 
L 3431 0 
L 469 0 
L 469 531 
Q 828 903 1448 1529 
Q 2069 2156 2228 2338 
Q 2531 2678 2651 2914 
Q 2772 3150 2772 3378 
Q 2772 3750 2511 3984 
Q 2250 4219 1831 4219 
Q 1534 4219 1204 4116 
Q 875 4013 500 3803 
L 500 4441 
Q 881 4594 1212 4672 
Q 1544 4750 1819 4750 
Q 2544 4750 2975 4387 
Q 3406 4025 3406 3419 
Q 3406 3131 3298 2873 
Q 3191 2616 2906 2266 
Q 2828 2175 2409 1742 
Q 1991 1309 1228 531 
z
" transform="scale(0.015625)"/>
      <path id="DejaVuSans-2e" d="M 684 794 
L 1344 794 
L 1344 0 
L 684 0 
L 684 794 
z
" transform="scale(0.015625)"/>
      <path id="DejaVuSans-33" d="M 2597 2516 
Q 3050 2419 3304 2112 
Q 3559 1806 3559 1356 
Q 3559 666 3084 287 
Q 2609 -91 1734 -91 
Q 1441 -91 1130 -33 
Q 819 25 488 141 
L 488 750 
Q 750 597 1062 519 
Q 1375 441 1716 441 
Q 2309 441 2620 675 
Q 2931 909 2931 1356 
Q 2931 1769 2642 2001 
Q 2353 2234 1838 2234 
L 1294 2234 
L 1294 2753 
L 1863 2753 
Q 2328 2753 2575 2939 
Q 2822 3125 2822 3475 
Q 2822 3834 2567 4026 
Q 2313 4219 1838 4219 
Q 1578 4219 1281 4162 
Q 984 4106 628 3988 
L 628 4550 
Q 988 4650 1302 4700 
Q 1616 4750 1894 4750 
Q 2613 4750 3031 4423 
Q 3450 4097 3450 3541 
Q 3450 3153 3228 2886 
Q 3006 2619 2597 2516 
z
" transform="scale(0.015625)"/>
     </defs>
     <use xlink:href="#DejaVuSans-76"/>
     <use xlink:href="#DejaVuSans-32" x="59.179688"/>
     <use xlink:href="#DejaVuSans-2e" x="122.802734"/>
     <use xlink:href="#DejaVuSans-36" x="154.589844"/>
     <use xlink:href="#DejaVuSans-2e" x="218.212891"/>
     <use xlink:href="#DejaVuSans-33" x="250"/>
    </g>
   </g>
   <g id="legend_1">
    <g id="patch_7">
     <path d="M 48.16 136.425 
L 177.381875 136.425 
Q 181.381875 136.425 181.381875 132.425 
L 181.381875 17 
Q 181.381875 13 177.381875 13 
L 48.16 13 
Q 44.16 13 44.16 17 
L 44.16 132.425 
Q 44.16 136.425 48.16 136.425 
z
" style="fill: #ffffff; opacity: 0.2; stroke: #cccccc; stroke-linejoin: miter"/>
    </g>
    <g id="line2d_63">
     <path d="M 52.16 29.196875 
L 72.16 29.196875 
L 92.16 29.196875 
" style="fill: none; stroke: #000000; stroke-width: 3; stroke-linecap: square"/>
    </g>
    <g id="text_7">
     <!-- 1: 4/4 -->
     <g transform="translate(108.16 36.196875) scale(0.2 -0.2)">
      <defs>
       <path id="DejaVuSans-3a" d="M 750 794 
L 1409 794 
L 1409 0 
L 750 0 
L 750 794 
z
M 750 3309 
L 1409 3309 
L 1409 2516 
L 750 2516 
L 750 3309 
z
" transform="scale(0.015625)"/>
       <path id="DejaVuSans-34" d="M 2419 4116 
L 825 1625 
L 2419 1625 
L 2419 4116 
z
M 2253 4666 
L 3047 4666 
L 3047 1625 
L 3713 1625 
L 3713 1100 
L 3047 1100 
L 3047 0 
L 2419 0 
L 2419 1100 
L 313 1100 
L 313 1709 
L 2253 4666 
z
" transform="scale(0.015625)"/>
       <path id="DejaVuSans-2f" d="M 1625 4666 
L 2156 4666 
L 531 -594 
L 0 -594 
L 1625 4666 
z
" transform="scale(0.015625)"/>
      </defs>
      <use xlink:href="#DejaVuSans-31"/>
      <use xlink:href="#DejaVuSans-3a" x="63.623047"/>
      <use xlink:href="#DejaVuSans-20" x="97.314453"/>
      <use xlink:href="#DejaVuSans-34" x="129.101562"/>
      <use xlink:href="#DejaVuSans-2f" x="192.724609"/>
      <use xlink:href="#DejaVuSans-34" x="226.416016"/>
     </g>
    </g>
    <g id="line2d_64">
     <path d="M 52.16 58.553125 
L 72.16 58.553125 
L 92.16 58.553125 
" style="fill: none; stroke: #00bfbf; stroke-width: 3; stroke-linecap: square"/>
    </g>
    <g id="text_8">
     <!-- -1: 4/4 -->
     <g transform="translate(108.16 65.553125) scale(0.2 -0.2)">
      <use xlink:href="#DejaVuSans-2d"/>
      <use xlink:href="#DejaVuSans-31" x="36.083984"/>
      <use xlink:href="#DejaVuSans-3a" x="99.707031"/>
      <use xlink:href="#DejaVuSans-20" x="133.398438"/>
      <use xlink:href="#DejaVuSans-34" x="165.185547"/>
      <use xlink:href="#DejaVuSans-2f" x="228.808594"/>
      <use xlink:href="#DejaVuSans-34" x="262.5"/>
     </g>
    </g>
    <g id="line2d_65">
     <path d="M 52.16 87.909375 
L 72.16 87.909375 
L 92.16 87.909375 
" style="fill: none; stroke: #bf00bf; stroke-width: 3; stroke-linecap: square"/>
    </g>
    <g id="text_9">
     <!-- -4: 3/3 -->
     <g transform="translate(108.16 94.909375) scale(0.2 -0.2)">
      <use xlink:href="#DejaVuSans-2d"/>
      <use xlink:href="#DejaVuSans-34" x="36.083984"/>
      <use xlink:href="#DejaVuSans-3a" x="99.707031"/>
      <use xlink:href="#DejaVuSans-20" x="133.398438"/>
      <use xlink:href="#DejaVuSans-33" x="165.185547"/>
      <use xlink:href="#DejaVuSans-2f" x="228.808594"/>
      <use xlink:href="#DejaVuSans-33" x="262.5"/>
     </g>
    </g>
    <g id="line2d_66">
     <path d="M 52.16 117.265625 
L 72.16 117.265625 
L 92.16 117.265625 
" style="fill: none; stroke: #ff0000; stroke-width: 3; stroke-linecap: square"/>
    </g>
    <g id="text_10">
     <!-- -8: 3/3 -->
     <g transform="translate(108.16 124.265625) scale(0.2 -0.2)">
      <defs>
       <path id="DejaVuSans-38" d="M 2034 2216 
Q 1584 2216 1326 1975 
Q 1069 1734 1069 1313 
Q 1069 891 1326 650 
Q 1584 409 2034 409 
Q 2484 409 2743 651 
Q 3003 894 3003 1313 
Q 3003 1734 2745 1975 
Q 2488 2216 2034 2216 
z
M 1403 2484 
Q 997 2584 770 2862 
Q 544 3141 544 3541 
Q 544 4100 942 4425 
Q 1341 4750 2034 4750 
Q 2731 4750 3128 4425 
Q 3525 4100 3525 3541 
Q 3525 3141 3298 2862 
Q 3072 2584 2669 2484 
Q 3125 2378 3379 2068 
Q 3634 1759 3634 1313 
Q 3634 634 3220 271 
Q 2806 -91 2034 -91 
Q 1263 -91 848 271 
Q 434 634 434 1313 
Q 434 1759 690 2068 
Q 947 2378 1403 2484 
z
M 1172 3481 
Q 1172 3119 1398 2916 
Q 1625 2713 2034 2713 
Q 2441 2713 2670 2916 
Q 2900 3119 2900 3481 
Q 2900 3844 2670 4047 
Q 2441 4250 2034 4250 
Q 1625 4250 1398 4047 
Q 1172 3844 1172 3481 
z
" transform="scale(0.015625)"/>
      </defs>
      <use xlink:href="#DejaVuSans-2d"/>
      <use xlink:href="#DejaVuSans-38" x="36.083984"/>
      <use xlink:href="#DejaVuSans-3a" x="99.707031"/>
      <use xlink:href="#DejaVuSans-20" x="133.398438"/>
      <use xlink:href="#DejaVuSans-33" x="165.185547"/>
      <use xlink:href="#DejaVuSans-2f" x="228.808594"/>
      <use xlink:href="#DejaVuSans-33" x="262.5"/>
     </g>
    </g>
   </g>
  </g>
 </g>
 <defs>
  <clipPath id="paa199345ee">
   <rect x="34.16" y="3" width="419.032" height="288.28"/>
  </clipPath>
 </defs>
</svg>
