<?xml version="1.0" encoding="utf-8" standalone="no"?>
<!DOCTYPE svg PUBLIC "-//W3C//DTD SVG 1.1//EN"
  "http://www.w3.org/Graphics/SVG/1.1/DTD/svg11.dtd">
<svg xmlns:xlink="http://www.w3.org/1999/xlink" width="460.8pt" height="345.6pt" viewBox="0 0 460.8 345.6" xmlns="http://www.w3.org/2000/svg" version="1.1">
 <metadata>
  <rdf:RDF xmlns:dc="http://purl.org/dc/elements/1.1/" xmlns:cc="http://creativecommons.org/ns#" xmlns:rdf="http://www.w3.org/1999/02/22-rdf-syntax-ns#">
   <cc:Work>
    <dc:type rdf:resource="http://purl.org/dc/dcmitype/StillImage"/>
    <dc:date>2024-05-24T12:11:59.244190</dc:date>
    <dc:format>image/svg+xml</dc:format>
    <dc:creator>
     <cc:Agent>
      <dc:title>Matplotlib v3.7.1, https://matplotlib.org/</dc:title>
     </cc:Agent>
    </dc:creator>
   </cc:Work>
  </rdf:RDF>
 </metadata>
 <defs>
  <style type="text/css">*{stroke-linejoin: round; stroke-linecap: butt}</style>
 </defs>
 <g id="figure_1">
  <g id="patch_1">
   <path d="M 0 345.6 
L 460.8 345.6 
L 460.8 0 
L 0 0 
z
" style="fill: #ffffff"/>
  </g>
  <g id="axes_1">
   <g id="patch_2">
    <path d="M 34.16 291.28 
L 448.638683 291.28 
L 448.638683 3 
L 34.16 3 
z
" style="fill: #ffffff"/>
   </g>
   <g id="matplotlib.axis_1">
    <g id="xtick_1">
     <g id="line2d_1">
      <path d="M 36.239454 291.28 
L 36.239454 3 
" clip-path="url(#p6cd71f10ce)" style="fill: none; stroke: #b0b0b0; stroke-width: 0.8; stroke-linecap: square"/>
     </g>
     <g id="line2d_2">
      <defs>
       <path id="m8074efc89f" d="M 0 0 
L 0 3.5 
" style="stroke: #000000; stroke-width: 0.8"/>
      </defs>
      <g>
       <use xlink:href="#m8074efc89f" x="36.239454" y="291.28" style="stroke: #000000; stroke-width: 0.8"/>
      </g>
     </g>
     <g id="text_1">
      <!-- -1 -->
      <g transform="translate(26.269141 313.476875) scale(0.2 -0.2)">
       <defs>
        <path id="DejaVuSans-2d" d="M 313 2009 
L 1997 2009 
L 1997 1497 
L 313 1497 
L 313 2009 
z
" transform="scale(0.015625)"/>
        <path id="DejaVuSans-31" d="M 794 531 
L 1825 531 
L 1825 4091 
L 703 3866 
L 703 4441 
L 1819 4666 
L 2450 4666 
L 2450 531 
L 3481 531 
L 3481 0 
L 794 0 
L 794 531 
z
" transform="scale(0.015625)"/>
       </defs>
       <use xlink:href="#DejaVuSans-2d"/>
       <use xlink:href="#DejaVuSans-31" x="36.083984"/>
      </g>
     </g>
    </g>
    <g id="xtick_2">
     <g id="line2d_3">
      <path d="M 241.399342 291.28 
L 241.399342 3 
" clip-path="url(#p6cd71f10ce)" style="fill: none; stroke: #b0b0b0; stroke-width: 0.8; stroke-linecap: square"/>
     </g>
     <g id="line2d_4">
      <g>
       <use xlink:href="#m8074efc89f" x="241.399342" y="291.28" style="stroke: #000000; stroke-width: 0.8"/>
      </g>
     </g>
     <g id="text_2">
      <!-- 0 -->
      <g transform="translate(235.036842 313.476875) scale(0.2 -0.2)">
       <defs>
        <path id="DejaVuSans-30" d="M 2034 4250 
Q 1547 4250 1301 3770 
Q 1056 3291 1056 2328 
Q 1056 1369 1301 889 
Q 1547 409 2034 409 
Q 2525 409 2770 889 
Q 3016 1369 3016 2328 
Q 3016 3291 2770 3770 
Q 2525 4250 2034 4250 
z
M 2034 4750 
Q 2819 4750 3233 4129 
Q 3647 3509 3647 2328 
Q 3647 1150 3233 529 
Q 2819 -91 2034 -91 
Q 1250 -91 836 529 
Q 422 1150 422 2328 
Q 422 3509 836 4129 
Q 1250 4750 2034 4750 
z
" transform="scale(0.015625)"/>
       </defs>
       <use xlink:href="#DejaVuSans-30"/>
      </g>
     </g>
    </g>
    <g id="xtick_3">
     <g id="line2d_5">
      <path d="M 446.55923 291.28 
L 446.55923 3 
" clip-path="url(#p6cd71f10ce)" style="fill: none; stroke: #b0b0b0; stroke-width: 0.8; stroke-linecap: square"/>
     </g>
     <g id="line2d_6">
      <g>
       <use xlink:href="#m8074efc89f" x="446.55923" y="291.28" style="stroke: #000000; stroke-width: 0.8"/>
      </g>
     </g>
     <g id="text_3">
      <!-- 1 -->
      <g transform="translate(440.19673 313.476875) scale(0.2 -0.2)">
       <use xlink:href="#DejaVuSans-31"/>
      </g>
     </g>
    </g>
    <g id="xtick_4">
     <g id="line2d_7">
      <defs>
       <path id="mf86b009b95" d="M 0 0 
L 0 2 
" style="stroke: #000000; stroke-width: 0.6"/>
      </defs>
      <g>
       <use xlink:href="#mf86b009b95" x="97.998734" y="291.28" style="stroke: #000000; stroke-width: 0.6"/>
      </g>
     </g>
    </g>
    <g id="xtick_5">
     <g id="line2d_8">
      <g>
       <use xlink:href="#mf86b009b95" x="134.125597" y="291.28" style="stroke: #000000; stroke-width: 0.6"/>
      </g>
     </g>
    </g>
    <g id="xtick_6">
     <g id="line2d_9">
      <g>
       <use xlink:href="#mf86b009b95" x="159.758014" y="291.28" style="stroke: #000000; stroke-width: 0.6"/>
      </g>
     </g>
    </g>
    <g id="xtick_7">
     <g id="line2d_10">
      <g>
       <use xlink:href="#mf86b009b95" x="179.640061" y="291.28" style="stroke: #000000; stroke-width: 0.6"/>
      </g>
     </g>
    </g>
    <g id="xtick_8">
     <g id="line2d_11">
      <g>
       <use xlink:href="#mf86b009b95" x="195.884877" y="291.28" style="stroke: #000000; stroke-width: 0.6"/>
      </g>
     </g>
    </g>
    <g id="xtick_9">
     <g id="line2d_12">
      <g>
       <use xlink:href="#mf86b009b95" x="209.619673" y="291.28" style="stroke: #000000; stroke-width: 0.6"/>
      </g>
     </g>
    </g>
    <g id="xtick_10">
     <g id="line2d_13">
      <g>
       <use xlink:href="#mf86b009b95" x="221.517294" y="291.28" style="stroke: #000000; stroke-width: 0.6"/>
      </g>
     </g>
    </g>
    <g id="xtick_11">
     <g id="line2d_14">
      <g>
       <use xlink:href="#mf86b009b95" x="232.01174" y="291.28" style="stroke: #000000; stroke-width: 0.6"/>
      </g>
     </g>
    </g>
    <g id="xtick_12">
     <g id="line2d_15">
      <g>
       <use xlink:href="#mf86b009b95" x="303.158622" y="291.28" style="stroke: #000000; stroke-width: 0.6"/>
      </g>
     </g>
    </g>
    <g id="xtick_13">
     <g id="line2d_16">
      <g>
       <use xlink:href="#mf86b009b95" x="339.285485" y="291.28" style="stroke: #000000; stroke-width: 0.6"/>
      </g>
     </g>
    </g>
    <g id="xtick_14">
     <g id="line2d_17">
      <g>
       <use xlink:href="#mf86b009b95" x="364.917902" y="291.28" style="stroke: #000000; stroke-width: 0.6"/>
      </g>
     </g>
    </g>
    <g id="xtick_15">
     <g id="line2d_18">
      <g>
       <use xlink:href="#mf86b009b95" x="384.799949" y="291.28" style="stroke: #000000; stroke-width: 0.6"/>
      </g>
     </g>
    </g>
    <g id="xtick_16">
     <g id="line2d_19">
      <g>
       <use xlink:href="#mf86b009b95" x="401.044765" y="291.28" style="stroke: #000000; stroke-width: 0.6"/>
      </g>
     </g>
    </g>
    <g id="xtick_17">
     <g id="line2d_20">
      <g>
       <use xlink:href="#mf86b009b95" x="414.779561" y="291.28" style="stroke: #000000; stroke-width: 0.6"/>
      </g>
     </g>
    </g>
    <g id="xtick_18">
     <g id="line2d_21">
      <g>
       <use xlink:href="#mf86b009b95" x="426.677182" y="291.28" style="stroke: #000000; stroke-width: 0.6"/>
      </g>
     </g>
    </g>
    <g id="xtick_19">
     <g id="line2d_22">
      <g>
       <use xlink:href="#mf86b009b95" x="437.171628" y="291.28" style="stroke: #000000; stroke-width: 0.6"/>
      </g>
     </g>
    </g>
    <g id="text_4">
     <!-- log10 of FEvals ratio -->
     <g transform="translate(139.094654 336.833125) scale(0.2 -0.2)">
      <defs>
       <path id="DejaVuSans-6c" d="M 603 4863 
L 1178 4863 
L 1178 0 
L 603 0 
L 603 4863 
z
" transform="scale(0.015625)"/>
       <path id="DejaVuSans-6f" d="M 1959 3097 
Q 1497 3097 1228 2736 
Q 959 2375 959 1747 
Q 959 1119 1226 758 
Q 1494 397 1959 397 
Q 2419 397 2687 759 
Q 2956 1122 2956 1747 
Q 2956 2369 2687 2733 
Q 2419 3097 1959 3097 
z
M 1959 3584 
Q 2709 3584 3137 3096 
Q 3566 2609 3566 1747 
Q 3566 888 3137 398 
Q 2709 -91 1959 -91 
Q 1206 -91 779 398 
Q 353 888 353 1747 
Q 353 2609 779 3096 
Q 1206 3584 1959 3584 
z
" transform="scale(0.015625)"/>
       <path id="DejaVuSans-67" d="M 2906 1791 
Q 2906 2416 2648 2759 
Q 2391 3103 1925 3103 
Q 1463 3103 1205 2759 
Q 947 2416 947 1791 
Q 947 1169 1205 825 
Q 1463 481 1925 481 
Q 2391 481 2648 825 
Q 2906 1169 2906 1791 
z
M 3481 434 
Q 3481 -459 3084 -895 
Q 2688 -1331 1869 -1331 
Q 1566 -1331 1297 -1286 
Q 1028 -1241 775 -1147 
L 775 -588 
Q 1028 -725 1275 -790 
Q 1522 -856 1778 -856 
Q 2344 -856 2625 -561 
Q 2906 -266 2906 331 
L 2906 616 
Q 2728 306 2450 153 
Q 2172 0 1784 0 
Q 1141 0 747 490 
Q 353 981 353 1791 
Q 353 2603 747 3093 
Q 1141 3584 1784 3584 
Q 2172 3584 2450 3431 
Q 2728 3278 2906 2969 
L 2906 3500 
L 3481 3500 
L 3481 434 
z
" transform="scale(0.015625)"/>
       <path id="DejaVuSans-20" transform="scale(0.015625)"/>
       <path id="DejaVuSans-66" d="M 2375 4863 
L 2375 4384 
L 1825 4384 
Q 1516 4384 1395 4259 
Q 1275 4134 1275 3809 
L 1275 3500 
L 2222 3500 
L 2222 3053 
L 1275 3053 
L 1275 0 
L 697 0 
L 697 3053 
L 147 3053 
L 147 3500 
L 697 3500 
L 697 3744 
Q 697 4328 969 4595 
Q 1241 4863 1831 4863 
L 2375 4863 
z
" transform="scale(0.015625)"/>
       <path id="DejaVuSans-46" d="M 628 4666 
L 3309 4666 
L 3309 4134 
L 1259 4134 
L 1259 2759 
L 3109 2759 
L 3109 2228 
L 1259 2228 
L 1259 0 
L 628 0 
L 628 4666 
z
" transform="scale(0.015625)"/>
       <path id="DejaVuSans-45" d="M 628 4666 
L 3578 4666 
L 3578 4134 
L 1259 4134 
L 1259 2753 
L 3481 2753 
L 3481 2222 
L 1259 2222 
L 1259 531 
L 3634 531 
L 3634 0 
L 628 0 
L 628 4666 
z
" transform="scale(0.015625)"/>
       <path id="DejaVuSans-76" d="M 191 3500 
L 800 3500 
L 1894 563 
L 2988 3500 
L 3597 3500 
L 2284 0 
L 1503 0 
L 191 3500 
z
" transform="scale(0.015625)"/>
       <path id="DejaVuSans-61" d="M 2194 1759 
Q 1497 1759 1228 1600 
Q 959 1441 959 1056 
Q 959 750 1161 570 
Q 1363 391 1709 391 
Q 2188 391 2477 730 
Q 2766 1069 2766 1631 
L 2766 1759 
L 2194 1759 
z
M 3341 1997 
L 3341 0 
L 2766 0 
L 2766 531 
Q 2569 213 2275 61 
Q 1981 -91 1556 -91 
Q 1019 -91 701 211 
Q 384 513 384 1019 
Q 384 1609 779 1909 
Q 1175 2209 1959 2209 
L 2766 2209 
L 2766 2266 
Q 2766 2663 2505 2880 
Q 2244 3097 1772 3097 
Q 1472 3097 1187 3025 
Q 903 2953 641 2809 
L 641 3341 
Q 956 3463 1253 3523 
Q 1550 3584 1831 3584 
Q 2591 3584 2966 3190 
Q 3341 2797 3341 1997 
z
" transform="scale(0.015625)"/>
       <path id="DejaVuSans-73" d="M 2834 3397 
L 2834 2853 
Q 2591 2978 2328 3040 
Q 2066 3103 1784 3103 
Q 1356 3103 1142 2972 
Q 928 2841 928 2578 
Q 928 2378 1081 2264 
Q 1234 2150 1697 2047 
L 1894 2003 
Q 2506 1872 2764 1633 
Q 3022 1394 3022 966 
Q 3022 478 2636 193 
Q 2250 -91 1575 -91 
Q 1294 -91 989 -36 
Q 684 19 347 128 
L 347 722 
Q 666 556 975 473 
Q 1284 391 1588 391 
Q 1994 391 2212 530 
Q 2431 669 2431 922 
Q 2431 1156 2273 1281 
Q 2116 1406 1581 1522 
L 1381 1569 
Q 847 1681 609 1914 
Q 372 2147 372 2553 
Q 372 3047 722 3315 
Q 1072 3584 1716 3584 
Q 2034 3584 2315 3537 
Q 2597 3491 2834 3397 
z
" transform="scale(0.015625)"/>
       <path id="DejaVuSans-72" d="M 2631 2963 
Q 2534 3019 2420 3045 
Q 2306 3072 2169 3072 
Q 1681 3072 1420 2755 
Q 1159 2438 1159 1844 
L 1159 0 
L 581 0 
L 581 3500 
L 1159 3500 
L 1159 2956 
Q 1341 3275 1631 3429 
Q 1922 3584 2338 3584 
Q 2397 3584 2469 3576 
Q 2541 3569 2628 3553 
L 2631 2963 
z
" transform="scale(0.015625)"/>
       <path id="DejaVuSans-74" d="M 1172 4494 
L 1172 3500 
L 2356 3500 
L 2356 3053 
L 1172 3053 
L 1172 1153 
Q 1172 725 1289 603 
Q 1406 481 1766 481 
L 2356 481 
L 2356 0 
L 1766 0 
Q 1100 0 847 248 
Q 594 497 594 1153 
L 594 3053 
L 172 3053 
L 172 3500 
L 594 3500 
L 594 4494 
L 1172 4494 
z
" transform="scale(0.015625)"/>
       <path id="DejaVuSans-69" d="M 603 3500 
L 1178 3500 
L 1178 0 
L 603 0 
L 603 3500 
z
M 603 4863 
L 1178 4863 
L 1178 4134 
L 603 4134 
L 603 4863 
z
" transform="scale(0.015625)"/>
      </defs>
      <use xlink:href="#DejaVuSans-6c"/>
      <use xlink:href="#DejaVuSans-6f" x="27.783203"/>
      <use xlink:href="#DejaVuSans-67" x="88.964844"/>
      <use xlink:href="#DejaVuSans-31" x="152.441406"/>
      <use xlink:href="#DejaVuSans-30" x="216.064453"/>
      <use xlink:href="#DejaVuSans-20" x="279.6875"/>
      <use xlink:href="#DejaVuSans-6f" x="311.474609"/>
      <use xlink:href="#DejaVuSans-66" x="372.65625"/>
      <use xlink:href="#DejaVuSans-20" x="407.861328"/>
      <use xlink:href="#DejaVuSans-46" x="439.648438"/>
      <use xlink:href="#DejaVuSans-45" x="497.167969"/>
      <use xlink:href="#DejaVuSans-76" x="560.351562"/>
      <use xlink:href="#DejaVuSans-61" x="619.53125"/>
      <use xlink:href="#DejaVuSans-6c" x="680.810547"/>
      <use xlink:href="#DejaVuSans-73" x="708.59375"/>
      <use xlink:href="#DejaVuSans-20" x="760.693359"/>
      <use xlink:href="#DejaVuSans-72" x="792.480469"/>
      <use xlink:href="#DejaVuSans-61" x="833.59375"/>
      <use xlink:href="#DejaVuSans-74" x="894.873047"/>
      <use xlink:href="#DejaVuSans-69" x="934.082031"/>
      <use xlink:href="#DejaVuSans-6f" x="961.865234"/>
     </g>
    </g>
   </g>
   <g id="matplotlib.axis_2">
    <g id="ytick_1">
     <g id="line2d_23">
      <path d="M 34.16 288.453725 
L 448.638683 288.453725 
" clip-path="url(#p6cd71f10ce)" style="fill: none; stroke: #b0b0b0; stroke-width: 0.8; stroke-linecap: square"/>
     </g>
     <g id="line2d_24">
      <defs>
       <path id="me9a7f1f8ff" d="M 0 0 
L -3.5 0 
" style="stroke: #000000; stroke-width: 0.8"/>
      </defs>
      <g>
       <use xlink:href="#me9a7f1f8ff" x="34.16" y="288.453725" style="stroke: #000000; stroke-width: 0.8"/>
      </g>
     </g>
    </g>
    <g id="ytick_2">
     <g id="line2d_25">
      <path d="M 34.16 217.796863 
L 448.638683 217.796863 
" clip-path="url(#p6cd71f10ce)" style="fill: none; stroke: #b0b0b0; stroke-width: 0.8; stroke-linecap: square"/>
     </g>
     <g id="line2d_26">
      <g>
       <use xlink:href="#me9a7f1f8ff" x="34.16" y="217.796863" style="stroke: #000000; stroke-width: 0.8"/>
      </g>
     </g>
    </g>
    <g id="ytick_3">
     <g id="line2d_27">
      <path d="M 34.16 147.14 
L 448.638683 147.14 
" clip-path="url(#p6cd71f10ce)" style="fill: none; stroke: #b0b0b0; stroke-width: 0.8; stroke-linecap: square"/>
     </g>
     <g id="line2d_28">
      <g>
       <use xlink:href="#me9a7f1f8ff" x="34.16" y="147.14" style="stroke: #000000; stroke-width: 0.8"/>
      </g>
     </g>
    </g>
    <g id="ytick_4">
     <g id="line2d_29">
      <path d="M 34.16 76.483137 
L 448.638683 76.483137 
" clip-path="url(#p6cd71f10ce)" style="fill: none; stroke: #b0b0b0; stroke-width: 0.8; stroke-linecap: square"/>
     </g>
     <g id="line2d_30">
      <g>
       <use xlink:href="#me9a7f1f8ff" x="34.16" y="76.483137" style="stroke: #000000; stroke-width: 0.8"/>
      </g>
     </g>
    </g>
    <g id="ytick_5">
     <g id="line2d_31">
      <path d="M 34.16 5.826275 
L 448.638683 5.826275 
" clip-path="url(#p6cd71f10ce)" style="fill: none; stroke: #b0b0b0; stroke-width: 0.8; stroke-linecap: square"/>
     </g>
     <g id="line2d_32">
      <g>
       <use xlink:href="#me9a7f1f8ff" x="34.16" y="5.826275" style="stroke: #000000; stroke-width: 0.8"/>
      </g>
     </g>
    </g>
    <g id="text_5">
     <!-- proportion of trials -->
     <g transform="translate(19.000625 240.14625) rotate(-90) scale(0.2 -0.2)">
      <defs>
       <path id="DejaVuSans-70" d="M 1159 525 
L 1159 -1331 
L 581 -1331 
L 581 3500 
L 1159 3500 
L 1159 2969 
Q 1341 3281 1617 3432 
Q 1894 3584 2278 3584 
Q 2916 3584 3314 3078 
Q 3713 2572 3713 1747 
Q 3713 922 3314 415 
Q 2916 -91 2278 -91 
Q 1894 -91 1617 61 
Q 1341 213 1159 525 
z
M 3116 1747 
Q 3116 2381 2855 2742 
Q 2594 3103 2138 3103 
Q 1681 3103 1420 2742 
Q 1159 2381 1159 1747 
Q 1159 1113 1420 752 
Q 1681 391 2138 391 
Q 2594 391 2855 752 
Q 3116 1113 3116 1747 
z
" transform="scale(0.015625)"/>
       <path id="DejaVuSans-6e" d="M 3513 2113 
L 3513 0 
L 2938 0 
L 2938 2094 
Q 2938 2591 2744 2837 
Q 2550 3084 2163 3084 
Q 1697 3084 1428 2787 
Q 1159 2491 1159 1978 
L 1159 0 
L 581 0 
L 581 3500 
L 1159 3500 
L 1159 2956 
Q 1366 3272 1645 3428 
Q 1925 3584 2291 3584 
Q 2894 3584 3203 3211 
Q 3513 2838 3513 2113 
z
" transform="scale(0.015625)"/>
      </defs>
      <use xlink:href="#DejaVuSans-70"/>
      <use xlink:href="#DejaVuSans-72" x="63.476562"/>
      <use xlink:href="#DejaVuSans-6f" x="102.339844"/>
      <use xlink:href="#DejaVuSans-70" x="163.521484"/>
      <use xlink:href="#DejaVuSans-6f" x="226.998047"/>
      <use xlink:href="#DejaVuSans-72" x="288.179688"/>
      <use xlink:href="#DejaVuSans-74" x="329.292969"/>
      <use xlink:href="#DejaVuSans-69" x="368.501953"/>
      <use xlink:href="#DejaVuSans-6f" x="396.285156"/>
      <use xlink:href="#DejaVuSans-6e" x="457.466797"/>
      <use xlink:href="#DejaVuSans-20" x="520.845703"/>
      <use xlink:href="#DejaVuSans-6f" x="552.632812"/>
      <use xlink:href="#DejaVuSans-66" x="613.814453"/>
      <use xlink:href="#DejaVuSans-20" x="649.019531"/>
      <use xlink:href="#DejaVuSans-74" x="680.806641"/>
      <use xlink:href="#DejaVuSans-72" x="720.015625"/>
      <use xlink:href="#DejaVuSans-69" x="761.128906"/>
      <use xlink:href="#DejaVuSans-61" x="788.912109"/>
      <use xlink:href="#DejaVuSans-6c" x="850.191406"/>
      <use xlink:href="#DejaVuSans-73" x="877.974609"/>
     </g>
    </g>
   </g>
   <g id="line2d_33">
    <path d="M 34.16 288.453725 
L 69.242947 288.453725 
L 69.242947 287.700052 
L 93.038746 287.700052 
L 93.038746 286.946379 
L 95.045173 286.946379 
L 95.045173 286.192706 
L 95.464261 286.192706 
L 95.464261 285.439033 
L 102.079844 285.439033 
L 102.079844 284.685359 
L 104.631544 284.685359 
L 104.631544 283.931686 
L 104.855625 283.931686 
L 104.855625 283.178013 
L 106.637971 283.178013 
L 106.637971 282.42434 
L 107.394893 282.42434 
L 107.394893 281.670667 
L 108.434581 281.670667 
L 108.434581 280.916993 
L 111.389232 280.916993 
L 111.389232 280.16332 
L 112.410654 280.16332 
L 112.410654 279.409647 
L 113.252225 279.409647 
L 113.351985 277.902301 
L 115.064124 277.902301 
L 115.064124 277.148627 
L 115.717308 277.148627 
L 115.717308 276.394954 
L 116.448423 276.394954 
L 116.448423 275.641281 
L 117.262541 275.641281 
L 117.262541 274.887608 
L 118.705745 274.887608 
L 118.705745 274.133935 
L 122.463217 274.133935 
L 122.463217 273.380261 
L 123.742328 273.380261 
L 123.742328 272.626588 
L 124.825428 272.626588 
L 124.845023 271.119242 
L 125.20818 271.119242 
L 125.20818 270.365569 
L 127.310106 270.365569 
L 127.310106 269.611895 
L 128.162832 269.611895 
L 128.162832 268.858222 
L 128.375227 268.858222 
L 128.375227 268.104549 
L 128.547747 268.104549 
L 128.547747 267.350876 
L 129.075426 267.350876 
L 129.075426 266.597203 
L 130.298543 266.597203 
L 130.298543 265.843529 
L 130.937338 265.843529 
L 130.937338 265.089856 
L 132.336756 265.089856 
L 132.336756 264.336183 
L 132.78335 264.336183 
L 132.78335 263.58251 
L 133.89199 263.58251 
L 133.89199 262.828837 
L 134.056015 262.828837 
L 134.056015 262.075163 
L 136.425925 262.075163 
L 136.425925 261.32149 
L 136.682146 261.32149 
L 136.682146 260.567817 
L 137.243101 260.567817 
L 137.243101 259.814144 
L 137.439449 259.814144 
L 137.550352 258.306797 
L 138.666697 258.306797 
L 138.666697 257.553124 
L 140.565267 257.553124 
L 140.673124 256.045778 
L 140.712815 256.045778 
L 140.712815 255.292105 
L 141.262319 255.292105 
L 141.307312 253.784758 
L 142.374749 253.784758 
L 142.374749 253.031085 
L 143.444316 253.031085 
L 143.483856 251.523739 
L 143.929553 251.523739 
L 143.929553 250.770065 
L 144.904894 250.770065 
L 144.904894 250.016392 
L 145.148826 250.016392 
L 145.148826 249.262719 
L 145.849025 249.262719 
L 145.957035 247.755373 
L 146.160518 247.755373 
L 146.160518 247.001699 
L 147.018917 247.001699 
L 147.069612 245.494353 
L 147.711314 245.494353 
L 147.795729 243.987007 
L 148.802517 243.987007 
L 148.835899 242.47966 
L 149.032247 242.47966 
L 149.032247 241.725987 
L 149.244866 241.725987 
L 149.244866 240.972314 
L 150.099438 240.972314 
L 150.099438 240.218641 
L 150.360029 240.218641 
L 150.360029 239.464967 
L 150.483576 239.464967 
L 150.483576 238.711294 
L 150.877984 238.711294 
L 150.877984 237.957621 
L 151.578183 237.957621 
L 151.578183 237.203948 
L 152.305613 237.203948 
L 152.305613 236.450275 
L 152.887441 236.450275 
L 152.896526 234.942928 
L 155.414487 234.942928 
L 155.414487 234.189255 
L 156.113814 234.189255 
L 156.113814 233.435582 
L 156.539101 233.435582 
L 156.648152 231.928235 
L 157.243287 231.928235 
L 157.338866 230.420889 
L 157.549833 230.420889 
L 157.549833 229.667216 
L 157.753316 229.667216 
L 157.753316 228.913542 
L 158.186792 228.913542 
L 158.254359 227.406196 
L 158.880176 227.406196 
L 158.880176 226.652523 
L 159.511897 226.652523 
L 159.511897 225.89885 
L 159.826844 225.89885 
L 159.826844 225.145176 
L 160.430248 225.145176 
L 160.430248 224.391503 
L 161.345259 224.391503 
L 161.371579 222.884157 
L 163.060173 222.884157 
L 163.154472 219.869464 
L 164.333696 219.869464 
L 164.333696 219.115791 
L 165.167757 219.115791 
L 165.167757 218.362118 
L 166.392484 218.362118 
L 166.397373 216.854771 
L 166.736064 216.854771 
L 166.736064 216.101098 
L 166.948083 216.101098 
L 166.948083 215.347425 
L 168.091168 215.347425 
L 168.091168 214.593752 
L 168.891933 214.593752 
L 168.891933 213.840078 
L 169.653333 213.840078 
L 169.690715 212.332732 
L 170.931243 212.332732 
L 170.931243 211.579059 
L 171.761923 211.579059 
L 171.761923 210.825386 
L 172.845023 210.825386 
L 172.845023 210.071712 
L 173.421752 210.071712 
L 173.477055 208.564366 
L 174.016886 208.564366 
L 174.016886 207.810693 
L 174.535623 207.810693 
L 174.535623 207.05702 
L 175.027959 207.05702 
L 175.027959 206.303346 
L 177.026332 206.303346 
L 177.028534 204.796 
L 177.708102 204.796 
L 177.708102 204.042327 
L 177.964706 204.042327 
L 177.985282 202.53498 
L 179.15091 202.53498 
L 179.15091 201.781307 
L 179.410211 201.781307 
L 179.410211 201.027634 
L 179.746044 201.027634 
L 179.746044 200.273961 
L 180.296658 200.273961 
L 180.296658 199.520288 
L 180.757117 199.520288 
L 180.757117 198.766614 
L 181.018522 198.766614 
L 181.018522 198.012941 
L 181.651498 198.012941 
L 181.651498 197.259268 
L 182.670022 197.259268 
L 182.718935 195.751922 
L 182.871052 195.751922 
L 182.871052 194.998248 
L 183.0674 194.998248 
L 183.095889 193.490902 
L 183.721682 193.490902 
L 183.788502 191.983556 
L 184.661097 191.983556 
L 184.661097 191.229882 
L 184.971372 191.229882 
L 184.971372 190.476209 
L 185.102315 190.476209 
L 185.102315 189.722536 
L 185.569946 189.722536 
L 185.569946 188.968863 
L 186.328514 188.968863 
L 186.340766 187.461516 
L 186.67671 187.461516 
L 186.67671 186.707843 
L 187.295189 186.707843 
L 187.392758 183.69315 
L 188.0555 183.69315 
L 188.139915 182.185804 
L 188.362625 182.185804 
L 188.362625 181.432131 
L 188.621332 181.432131 
L 188.621332 180.678458 
L 189.146703 180.678458 
L 189.146703 179.924784 
L 189.407275 179.924784 
L 189.45084 177.663765 
L 189.971089 177.663765 
L 189.971089 176.910092 
L 190.704215 176.910092 
L 190.704215 176.156418 
L 190.851141 176.156418 
L 190.851141 175.402745 
L 191.044418 175.402745 
L 191.044418 174.649072 
L 191.584986 174.649072 
L 191.584986 173.895399 
L 191.788469 173.895399 
L 191.788469 173.141725 
L 192.576881 173.141725 
L 192.576881 172.388052 
L 193.006793 172.388052 
L 193.105772 170.127033 
L 193.69919 170.127033 
L 193.783605 168.619686 
L 193.924988 168.619686 
L 193.924988 167.866013 
L 194.481701 167.866013 
L 194.493716 166.358667 
L 194.790393 166.358667 
L 194.790393 165.604993 
L 194.912767 165.604993 
L 194.912767 164.85132 
L 195.089206 164.85132 
L 195.089206 164.097647 
L 196.347905 164.097647 
L 196.458 162.590301 
L 197.070258 162.590301 
L 197.070258 161.836627 
L 197.659789 161.836627 
L 197.730938 160.329281 
L 198.798374 160.329281 
L 198.86675 158.821935 
L 199.69837 158.821935 
L 199.69837 158.068261 
L 199.867941 158.068261 
L 199.942888 156.560915 
L 200.17103 156.560915 
L 200.21086 155.053569 
L 200.893081 155.053569 
L 200.893081 154.299895 
L 201.055849 154.299895 
L 201.055849 153.546222 
L 202.101691 153.546222 
L 202.175736 152.038876 
L 202.403957 152.038876 
L 202.403957 151.285203 
L 202.799416 151.285203 
L 202.899507 149.777856 
L 203.309368 149.777856 
L 203.404359 148.27051 
L 203.442542 148.27051 
L 203.442542 147.516837 
L 204.134939 147.516837 
L 204.219354 145.255817 
L 205.226142 145.255817 
L 205.226142 144.502144 
L 205.511942 144.502144 
L 205.511942 143.748471 
L 205.774451 143.748471 
L 205.81472 142.241124 
L 205.932559 142.241124 
L 205.932559 141.487451 
L 206.206386 141.487451 
L 206.313952 139.980105 
L 206.741559 139.980105 
L 206.783654 138.472758 
L 207.883958 138.472758 
L 207.883958 137.719085 
L 208.762888 137.719085 
L 208.762888 136.965412 
L 209.038396 136.965412 
L 209.048049 135.458065 
L 209.575134 135.458065 
L 209.575134 134.704392 
L 210.386504 134.704392 
L 210.386504 133.950719 
L 211.155633 133.950719 
L 211.155633 133.197046 
L 211.526532 133.197046 
L 211.629001 131.689699 
L 212.020435 131.689699 
L 212.020435 130.936026 
L 212.385249 130.936026 
L 212.385249 130.182353 
L 212.520359 130.182353 
L 212.53744 128.675007 
L 212.690056 128.675007 
L 212.709959 127.16766 
L 214.038164 127.16766 
L 214.038164 126.413987 
L 214.949635 126.413987 
L 214.949635 125.660314 
L 215.54477 125.660314 
L 215.54477 124.906641 
L 216.250469 124.906641 
L 216.250469 124.152967 
L 216.555842 124.152967 
L 216.644762 122.645621 
L 216.716487 122.645621 
L 216.716487 121.891948 
L 217.586094 121.891948 
L 217.672927 120.384601 
L 219.166415 120.384601 
L 219.166415 119.630928 
L 219.298232 119.630928 
L 219.305427 118.123582 
L 219.483798 118.123582 
L 219.483798 117.369908 
L 220.653535 117.369908 
L 220.68137 115.862562 
L 221.10656 115.862562 
L 221.10656 115.108889 
L 221.591382 115.108889 
L 221.591382 114.355216 
L 222.393898 114.355216 
L 222.445645 112.847869 
L 222.656485 112.847869 
L 222.656485 112.094196 
L 222.820998 112.094196 
L 222.864184 110.58685 
L 223.571643 110.58685 
L 223.571643 109.833176 
L 224.476407 109.833176 
L 224.476407 109.079503 
L 225.249566 109.079503 
L 225.249566 108.32583 
L 226.144134 108.32583 
L 226.144134 107.572157 
L 226.506759 107.572157 
L 226.56008 106.06481 
L 227.300243 106.06481 
L 227.300243 105.311137 
L 227.496591 105.311137 
L 227.555167 103.803791 
L 227.976437 103.803791 
L 227.976437 103.050118 
L 228.39705 103.050118 
L 228.39705 102.296444 
L 228.999034 102.296444 
L 229.059537 100.789098 
L 229.383987 100.789098 
L 229.483404 99.281752 
L 230.317552 99.281752 
L 230.317552 98.528078 
L 230.769957 98.528078 
L 230.769957 97.774405 
L 232.438056 97.774405 
L 232.438056 97.020732 
L 235.012633 97.020732 
L 235.012633 96.267059 
L 236.009585 96.267059 
L 236.014178 94.759712 
L 236.21766 94.759712 
L 236.21766 94.006039 
L 237.454969 94.006039 
L 237.518387 91.74502 
L 237.68995 91.74502 
L 237.68995 90.991346 
L 238.598141 90.991346 
L 238.598141 90.237673 
L 238.972939 90.237673 
L 238.972939 89.484 
L 240.19109 89.484 
L 240.19109 88.730327 
L 240.327682 88.730327 
L 240.327682 87.976654 
L 240.812053 87.976654 
L 240.812053 87.22298 
L 241.332525 87.22298 
L 241.332525 86.469307 
L 241.78446 86.469307 
L 241.78446 85.715634 
L 242.143553 85.715634 
L 242.228975 83.454614 
L 242.615514 83.454614 
L 242.615514 82.700941 
L 242.917733 82.700941 
L 242.917733 81.947268 
L 243.111385 81.947268 
L 243.210989 79.686248 
L 244.080452 79.686248 
L 244.080452 78.932575 
L 244.280556 78.932575 
L 244.280556 78.178902 
L 245.097436 78.178902 
L 245.097436 77.425229 
L 245.293783 77.425229 
L 245.343443 75.917882 
L 245.87155 75.917882 
L 245.87155 75.164209 
L 246.03185 75.164209 
L 246.122045 73.656863 
L 246.284774 73.656863 
L 246.284774 72.90319 
L 247.470153 72.90319 
L 247.470153 72.149516 
L 247.855157 72.149516 
L 247.855157 71.395843 
L 247.996913 71.395843 
L 247.996913 70.64217 
L 248.547555 70.64217 
L 248.646891 67.627477 
L 249.200805 67.627477 
L 249.200805 66.873804 
L 249.42405 66.873804 
L 249.42405 66.120131 
L 249.638758 66.120131 
L 249.638758 65.366458 
L 250.124249 65.366458 
L 250.124249 64.612784 
L 250.548913 64.612784 
L 250.644671 63.105438 
L 251.196269 63.105438 
L 251.30372 61.598092 
L 251.992779 61.598092 
L 251.992779 60.844418 
L 252.189935 60.844418 
L 252.189935 60.090745 
L 253.81137 60.090745 
L 253.81137 59.337072 
L 254.014852 59.337072 
L 254.014852 58.583399 
L 254.283414 58.583399 
L 254.283414 57.829725 
L 256.449626 57.829725 
L 256.449626 57.076052 
L 256.675117 57.076052 
L 256.703781 55.568706 
L 256.950055 55.568706 
L 256.950055 54.815033 
L 257.758217 54.815033 
L 257.758217 54.061359 
L 258.244371 54.061359 
L 258.244371 53.307686 
L 260.012572 53.307686 
L 260.012572 52.554013 
L 260.663084 52.554013 
L 260.663084 51.80034 
L 261.012076 51.80034 
L 261.012076 51.046667 
L 261.61409 51.046667 
L 261.61409 50.292993 
L 262.4209 50.292993 
L 262.4209 49.53932 
L 263.896413 49.53932 
L 263.896413 48.785647 
L 265.726089 48.785647 
L 265.726089 48.031974 
L 266.003997 48.031974 
L 266.003997 47.278301 
L 267.074197 47.278301 
L 267.085677 45.770954 
L 267.233614 45.770954 
L 267.233614 45.017281 
L 267.677488 45.017281 
L 267.677488 44.263608 
L 269.025596 44.263608 
L 269.025596 43.509935 
L 270.483141 43.509935 
L 270.483141 42.756261 
L 273.887441 42.756261 
L 273.887441 42.002588 
L 274.246818 42.002588 
L 274.246818 41.248915 
L 275.837843 41.248915 
L 275.837843 40.495242 
L 277.120831 40.495242 
L 277.120831 39.741569 
L 277.696976 39.741569 
L 277.696976 38.987895 
L 278.29211 38.987895 
L 278.29211 38.234222 
L 278.982853 38.234222 
L 278.982853 37.480549 
L 279.303183 37.480549 
L 279.303183 36.726876 
L 280.002401 36.726876 
L 280.002401 35.973203 
L 280.376867 35.973203 
L 280.376867 35.219529 
L 282.657714 35.219529 
L 282.657714 34.465856 
L 282.925095 34.465856 
L 282.925095 33.712183 
L 284.005822 33.712183 
L 284.005822 32.95851 
L 284.445617 32.95851 
L 284.445617 32.204837 
L 284.882869 32.204837 
L 284.882869 31.451163 
L 287.996906 31.451163 
L 287.996906 30.69749 
L 289.540678 30.69749 
L 289.540678 29.943817 
L 291.119581 29.943817 
L 291.13098 28.436471 
L 294.855727 28.436471 
L 294.855727 27.682797 
L 295.811297 27.682797 
L 295.811297 26.929124 
L 297.483481 26.929124 
L 297.483481 26.175451 
L 298.756925 26.175451 
L 298.831588 23.914431 
L 299.871488 23.914431 
L 299.871488 23.160758 
L 300.114577 23.160758 
L 300.114577 22.407085 
L 300.812819 22.407085 
L 300.812819 21.653412 
L 301.345482 21.653412 
L 301.345482 20.899739 
L 302.022505 20.899739 
L 302.022505 20.146065 
L 302.524958 20.146065 
L 302.586122 18.638719 
L 303.370613 18.638719 
L 303.370613 17.885046 
L 308.40445 17.885046 
L 308.40445 17.131373 
L 311.203162 17.131373 
L 311.203162 16.377699 
L 312.286262 16.377699 
L 312.286262 15.624026 
L 320.991711 15.624026 
L 320.991711 14.870353 
L 325.011186 14.870353 
L 325.011186 14.11668 
L 334.530446 14.11668 
L 334.530446 13.363007 
L 337.10313 13.363007 
L 337.10313 12.609333 
L 341.730193 12.609333 
L 341.730193 11.85566 
L 345.647626 11.85566 
L 345.647626 11.101987 
L 347.192957 11.101987 
L 347.192957 10.348314 
L 347.345494 10.348314 
L 347.345494 9.594641 
L 357.114167 9.594641 
L 357.114167 8.840967 
L 358.558638 8.840967 
L 358.558638 8.087294 
L 376.044174 8.087294 
L 376.044174 7.333621 
L 391.631175 7.333621 
L 391.631175 6.579948 
L 430.57222 6.579948 
L 430.57222 5.826275 
L 448.638683 5.826275 
L 448.638683 5.826275 
" clip-path="url(#p6cd71f10ce)" style="fill: none; stroke: #000000; stroke-width: 3; stroke-linecap: square"/>
   </g>
   <g id="line2d_34">
    <path clip-path="url(#p6cd71f10ce)" style="fill: none; stroke: #000000; stroke-width: 3; stroke-linecap: square"/>
   </g>
   <g id="line2d_35">
    <path d="M 34.16 283.820489 
L 88.507588 283.820489 
L 88.507588 282.662179 
L 97.843372 282.662179 
L 97.843372 281.50387 
L 104.070381 281.50387 
L 104.15463 279.187252 
L 104.973427 279.187252 
L 105.057676 276.870633 
L 112.660053 276.870633 
L 112.660053 275.712324 
L 112.87924 275.712324 
L 112.87924 274.554015 
L 114.785191 274.554015 
L 114.785191 273.395706 
L 119.72725 273.395706 
L 119.72725 272.237396 
L 124.957245 272.237396 
L 125.041494 269.920778 
L 126.548625 269.920778 
L 126.548625 268.762469 
L 129.063034 268.762469 
L 129.063034 267.604159 
L 129.959592 267.604159 
L 130.043841 265.287541 
L 131.500192 265.287541 
L 131.500192 264.129232 
L 134.0716 264.129232 
L 134.155849 261.812613 
L 135.884409 261.812613 
L 135.884409 260.654304 
L 137.2439 260.654304 
L 137.2439 259.495995 
L 143.823583 259.495995 
L 143.907833 256.021067 
L 144.098902 256.021067 
L 144.098902 254.862758 
L 146.004853 254.862758 
L 146.004853 253.704449 
L 149.014236 253.704449 
L 149.098485 251.38783 
L 149.669518 251.38783 
L 149.753767 249.071212 
L 150.238085 249.071212 
L 150.238085 247.912903 
L 150.70109 247.912903 
L 150.776606 245.596284 
L 150.920277 245.596284 
L 150.920277 244.437975 
L 152.331545 244.437975 
L 152.415794 242.121356 
L 152.826228 242.121356 
L 152.826228 240.963047 
L 152.997912 240.963047 
L 153.082161 238.646429 
L 155.446113 238.646429 
L 155.446113 237.48812 
L 158.661 237.48812 
L 158.661 236.32981 
L 159.927651 236.32981 
L 159.927651 235.171501 
L 161.169678 235.171501 
L 161.169678 234.013192 
L 161.854577 234.013192 
L 161.854577 232.854883 
L 162.719853 232.854883 
L 162.719853 231.696573 
L 163.503137 231.696573 
L 163.503137 230.538264 
L 163.97793 230.538264 
L 163.97793 229.379955 
L 164.81338 229.379955 
L 164.81338 228.221646 
L 168.463561 228.221646 
L 168.463561 227.063337 
L 169.482888 227.063337 
L 169.541229 224.746718 
L 171.001975 224.746718 
L 171.001975 223.588409 
L 171.950062 223.588409 
L 171.950062 222.4301 
L 172.697775 222.4301 
L 172.697775 221.27179 
L 173.242607 221.27179 
L 173.326856 218.955172 
L 173.964426 218.955172 
L 173.964426 217.796863 
L 174.897554 217.796863 
L 174.91637 215.480244 
L 175.284937 215.480244 
L 175.284937 214.321935 
L 175.800601 214.321935 
L 175.800601 213.163626 
L 176.843967 213.163626 
L 176.950523 210.847007 
L 177.034772 210.847007 
L 177.034772 209.688698 
L 177.539912 209.688698 
L 177.539912 208.530389 
L 177.735985 208.530389 
L 177.735985 207.37208 
L 180.11579 207.37208 
L 180.135406 205.055461 
L 180.249251 205.055461 
L 180.249251 203.897152 
L 180.850777 203.897152 
L 180.850777 202.738843 
L 181.457746 202.738843 
L 181.457746 201.580534 
L 181.690534 201.580534 
L 181.690534 200.422224 
L 182.59358 200.422224 
L 182.59358 199.263915 
L 183.168985 199.263915 
L 183.168985 198.105606 
L 184.785298 198.105606 
L 184.785298 196.947297 
L 185.03875 196.947297 
L 185.03875 195.788987 
L 185.986837 195.788987 
L 185.986837 194.630678 
L 186.480724 194.630678 
L 186.480724 193.472369 
L 186.623666 193.472369 
L 186.623666 192.31406 
L 187.596074 192.31406 
L 187.596074 191.155751 
L 188.000184 191.155751 
L 188.000184 189.997441 
L 188.279122 189.997441 
L 188.279122 188.839132 
L 188.953145 188.839132 
L 188.953145 187.680823 
L 189.266836 187.680823 
L 189.266836 186.522514 
L 189.84398 186.522514 
L 189.928229 184.205895 
L 191.77276 184.205895 
L 191.77276 183.047586 
L 192.265581 183.047586 
L 192.329528 180.730968 
L 192.38934 180.730968 
L 192.38934 179.572658 
L 192.842322 179.572658 
L 192.842322 178.414349 
L 193.074238 178.414349 
L 193.074238 177.25604 
L 193.466422 177.25604 
L 193.550671 173.781112 
L 194.286025 173.781112 
L 194.382822 171.464494 
L 194.887551 171.464494 
L 194.887551 170.306185 
L 195.480468 170.306185 
L 195.480468 169.147875 
L 195.784418 169.147875 
L 195.784418 167.989566 
L 196.74712 167.989566 
L 196.74712 166.831257 
L 196.913755 166.831257 
L 196.913755 165.672948 
L 197.20576 165.672948 
L 197.20576 164.514638 
L 198.139967 164.514638 
L 198.139967 163.356329 
L 199.210715 163.356329 
L 199.210715 162.19802 
L 199.895614 162.19802 
L 199.895614 161.039711 
L 200.322605 161.039711 
L 200.341159 158.723092 
L 200.517499 158.723092 
L 200.517499 157.564783 
L 200.786765 157.564783 
L 200.786765 156.406474 
L 201.289247 156.406474 
L 201.354854 154.089855 
L 202.577398 154.089855 
L 202.621506 151.773237 
L 204.255555 151.773237 
L 204.255555 150.614928 
L 204.898773 150.614928 
L 204.898773 149.456618 
L 206.196991 149.456618 
L 206.196991 148.298309 
L 206.366303 148.298309 
L 206.366303 147.14 
L 207.075169 147.14 
L 207.075169 145.981691 
L 207.579745 145.981691 
L 207.579745 144.823382 
L 207.821443 144.823382 
L 207.821443 143.665072 
L 208.063628 143.665072 
L 208.063628 142.506763 
L 208.419597 142.506763 
L 208.419597 141.348454 
L 208.769531 141.348454 
L 208.769531 140.190145 
L 209.588435 140.190145 
L 209.588435 139.031835 
L 210.189961 139.031835 
L 210.189961 137.873526 
L 211.181594 137.873526 
L 211.181594 136.715217 
L 211.355067 136.715217 
L 211.355067 135.556908 
L 211.691753 135.556908 
L 211.735838 133.240289 
L 212.50817 133.240289 
L 212.50817 132.08198 
L 212.79524 132.08198 
L 212.79524 130.923671 
L 213.268564 130.923671 
L 213.352813 128.607052 
L 213.695829 128.607052 
L 213.695829 127.448743 
L 214.555453 127.448743 
L 214.650757 123.973815 
L 214.885004 123.973815 
L 214.885004 122.815506 
L 215.819909 122.815506 
L 215.819909 121.657197 
L 217.068719 121.657197 
L 217.068719 120.498888 
L 217.481946 120.498888 
L 217.481946 119.340579 
L 217.610224 119.340579 
L 217.670245 117.02396 
L 217.843328 117.02396 
L 217.843328 115.865651 
L 218.176443 115.865651 
L 218.176443 114.707342 
L 219.841409 114.707342 
L 219.841409 113.549032 
L 219.988453 113.549032 
L 219.988453 112.390723 
L 220.429839 112.390723 
L 220.517378 108.915796 
L 221.443736 108.915796 
L 221.443736 107.757486 
L 221.668713 107.757486 
L 221.668713 106.599177 
L 222.131025 106.599177 
L 222.131025 105.440868 
L 222.943105 105.440868 
L 222.943105 104.282559 
L 223.158718 104.282559 
L 223.158718 103.124249 
L 223.300192 103.124249 
L 223.300192 101.96594 
L 223.544631 101.96594 
L 223.544631 100.807631 
L 223.722006 100.807631 
L 223.825085 98.491013 
L 224.664703 98.491013 
L 224.664703 97.332703 
L 225.862839 97.332703 
L 225.862839 96.174394 
L 226.634389 96.174394 
L 226.634389 95.016085 
L 227.289671 95.016085 
L 227.289671 93.857776 
L 228.133416 93.857776 
L 228.133416 92.699466 
L 229.148996 92.699466 
L 229.174578 90.382848 
L 229.951698 90.382848 
L 229.951698 89.224539 
L 230.618065 89.224539 
L 230.618065 88.06623 
L 231.20229 88.06623 
L 231.20229 86.90792 
L 233.694561 86.90792 
L 233.694561 85.749611 
L 234.597607 85.749611 
L 234.597607 84.591302 
L 234.954792 84.591302 
L 235.023382 82.274683 
L 235.334059 82.274683 
L 235.334059 81.116374 
L 235.553246 81.116374 
L 235.553246 79.958065 
L 236.947705 79.958065 
L 236.947705 78.799756 
L 237.076676 78.799756 
L 237.166893 76.483137 
L 237.459197 76.483137 
L 237.459197 75.324828 
L 239.072844 75.324828 
L 239.072844 74.166519 
L 244.069781 74.166519 
L 244.069781 73.00821 
L 247.777696 73.00821 
L 247.777696 71.8499 
L 248.701608 71.8499 
L 248.701608 70.691591 
L 250.86276 70.691591 
L 250.86276 69.533282 
L 254.174198 69.533282 
L 254.174198 68.374973 
L 254.570676 68.374973 
L 254.581425 66.058354 
L 255.522983 66.058354 
L 255.522983 64.900045 
L 255.787844 64.900045 
L 255.787844 63.741736 
L 259.583772 63.741736 
L 259.583772 62.583427 
L 259.917906 62.583427 
L 259.917906 61.425117 
L 260.671153 61.425117 
L 260.671153 60.266808 
L 261.531552 60.266808 
L 261.531552 59.108499 
L 263.69578 59.108499 
L 263.69578 57.95019 
L 264.293596 57.95019 
L 264.293596 56.79188 
L 267.464133 56.79188 
L 267.464133 55.633571 
L 271.086575 55.633571 
L 271.086575 54.475262 
L 272.912091 54.475262 
L 272.912091 53.316953 
L 273.447763 53.316953 
L 273.447763 52.158644 
L 274.525737 52.158644 
L 274.525737 51.000334 
L 278.638416 51.000334 
L 278.638416 49.842025 
L 279.293698 49.842025 
L 279.293698 48.683716 
L 281.955725 48.683716 
L 281.955725 47.525407 
L 282.622091 47.525407 
L 282.622091 46.367097 
L 283.843684 46.367097 
L 283.843684 45.208788 
L 284.095737 45.208788 
L 284.095737 44.050479 
L 284.528583 44.050479 
L 284.528583 42.89217 
L 285.457331 42.89217 
L 285.457331 41.73386 
L 286.142229 41.73386 
L 286.142229 40.575551 
L 290.888717 40.575551 
L 290.888717 39.417242 
L 299.517973 39.417242 
L 299.517973 38.258933 
L 301.131619 38.258933 
L 301.131619 37.100624 
L 302.809412 37.100624 
L 302.866787 34.784005 
L 304.423058 34.784005 
L 304.423058 33.625696 
L 306.574703 33.625696 
L 306.574703 32.467387 
L 309.297672 32.467387 
L 309.297672 31.309077 
L 310.911319 31.309077 
L 310.911319 30.150768 
L 319.46816 30.150768 
L 319.46816 28.992459 
L 319.587761 28.992459 
L 319.587761 27.83415 
L 321.201407 27.83415 
L 321.201407 26.675841 
L 323.090602 26.675841 
L 323.090602 25.517531 
L 340.155952 25.517531 
L 340.155952 24.359222 
L 341.769599 24.359222 
L 341.769599 23.200913 
L 342.892743 23.200913 
L 342.892743 22.042604 
L 448.638683 22.042604 
L 448.638683 22.042604 
" clip-path="url(#p6cd71f10ce)" style="fill: none; stroke: #00bfbf; stroke-width: 3; stroke-linecap: square"/>
   </g>
   <g id="line2d_36">
    <path clip-path="url(#p6cd71f10ce)" style="fill: none; stroke: #00bfbf; stroke-width: 3; stroke-linecap: square"/>
   </g>
   <g id="line2d_37">
    <path d="M 34.16 288.453725 
L 104.070381 288.453725 
L 104.15463 285.941481 
L 104.973427 285.941481 
L 105.057676 283.429237 
L 124.957245 283.429237 
L 125.041494 280.916993 
L 129.959592 280.916993 
L 130.043841 278.404749 
L 134.0716 278.404749 
L 134.155849 275.892505 
L 143.823583 275.892505 
L 143.907833 273.380261 
L 149.014236 273.380261 
L 149.098485 270.868017 
L 149.669518 270.868017 
L 149.753767 268.355773 
L 152.331545 268.355773 
L 152.415794 265.843529 
L 152.997912 265.843529 
L 153.082161 263.331285 
L 153.460954 263.331285 
L 153.460954 262.075163 
L 154.811186 262.075163 
L 154.811186 260.819041 
L 157.06345 260.819041 
L 157.06345 259.562919 
L 158.661 259.562919 
L 158.661 258.306797 
L 160.150368 258.306797 
L 160.150368 257.050675 
L 161.500101 257.050675 
L 161.500101 255.794553 
L 163.503137 255.794553 
L 163.503137 254.538431 
L 164.049868 254.538431 
L 164.049868 253.282309 
L 164.567223 253.282309 
L 164.640727 250.770065 
L 168.2172 250.770065 
L 168.2172 249.513943 
L 168.756703 249.513943 
L 168.756703 248.257821 
L 169.64096 248.257821 
L 169.64096 247.001699 
L 171.001975 247.001699 
L 171.100225 244.489455 
L 171.859137 244.489455 
L 171.950062 241.977211 
L 172.697775 241.977211 
L 172.697775 240.721089 
L 173.242607 240.721089 
L 173.326856 238.208845 
L 174.187142 238.208845 
L 174.187142 236.952723 
L 174.897554 236.952723 
L 174.91637 234.440479 
L 175.800601 234.440479 
L 175.800601 233.184357 
L 176.843967 233.184357 
L 176.950523 230.672113 
L 177.034772 230.672113 
L 177.034772 229.415991 
L 177.539912 229.415991 
L 177.539912 228.159869 
L 177.735985 228.159869 
L 177.735985 226.903747 
L 178.086643 226.903747 
L 178.086643 225.647625 
L 180.249251 225.647625 
L 180.29991 223.135381 
L 180.850777 223.135381 
L 180.850777 221.879259 
L 181.690534 221.879259 
L 181.690534 220.623137 
L 182.59358 220.623137 
L 182.59358 219.367015 
L 183.110735 219.367015 
L 183.168985 216.854771 
L 184.680616 216.854771 
L 184.680616 215.598649 
L 185.03875 215.598649 
L 185.03875 214.342527 
L 185.986837 214.342527 
L 186.030847 211.830283 
L 186.402635 211.830283 
L 186.402635 210.574161 
L 186.623666 210.574161 
L 186.623666 209.318039 
L 188.000184 209.318039 
L 188.000184 208.061917 
L 188.953145 208.061917 
L 188.953145 206.805795 
L 189.489552 206.805795 
L 189.489552 205.549673 
L 189.84398 205.549673 
L 189.928229 203.037429 
L 191.501991 203.037429 
L 191.501991 201.781307 
L 191.77276 201.781307 
L 191.77276 200.525185 
L 191.9069 200.525185 
L 191.9069 199.269063 
L 192.329528 199.269063 
L 192.329528 198.012941 
L 192.719763 198.012941 
L 192.719763 196.756819 
L 192.842322 196.756819 
L 192.852223 194.244575 
L 193.389053 194.244575 
L 193.466422 191.732331 
L 193.550671 191.732331 
L 193.550671 190.476209 
L 193.882918 190.476209 
L 193.882918 189.220087 
L 194.286025 189.220087 
L 194.382822 186.707843 
L 194.887551 186.707843 
L 194.887551 185.451721 
L 195.480468 185.451721 
L 195.480468 184.195599 
L 195.784418 184.195599 
L 195.860389 180.427233 
L 196.913755 180.427233 
L 196.969836 177.914989 
L 197.20576 177.914989 
L 197.20576 176.658867 
L 199.436861 176.658867 
L 199.541138 174.146623 
L 199.757304 174.146623 
L 199.757304 172.890501 
L 199.976364 172.890501 
L 199.976364 171.634379 
L 200.322605 171.634379 
L 200.341159 169.122135 
L 200.786765 169.122135 
L 200.869336 165.353769 
L 201.289247 165.353769 
L 201.354854 162.841525 
L 202.577398 162.841525 
L 202.681764 159.073159 
L 202.844222 159.073159 
L 202.844222 157.817037 
L 203.078799 157.817037 
L 203.078799 156.560915 
L 204.255555 156.560915 
L 204.255555 155.304793 
L 204.898773 155.304793 
L 204.898773 154.048671 
L 205.943675 154.048671 
L 205.943675 152.792549 
L 206.196991 152.792549 
L 206.258237 150.280305 
L 206.366303 150.280305 
L 206.366303 149.024183 
L 206.743722 149.024183 
L 206.79774 146.511939 
L 207.075169 146.511939 
L 207.075169 145.255817 
L 207.579745 145.255817 
L 207.681997 142.743573 
L 207.821443 142.743573 
L 207.821443 141.487451 
L 208.063628 141.487451 
L 208.063628 140.231329 
L 208.419597 140.231329 
L 208.419597 138.975207 
L 208.769531 138.975207 
L 208.769531 137.719085 
L 209.588435 137.719085 
L 209.588435 136.462963 
L 209.900174 136.462963 
L 209.900174 135.206841 
L 210.189961 135.206841 
L 210.189961 133.950719 
L 211.519572 133.950719 
L 211.519572 132.694597 
L 211.691753 132.694597 
L 211.735838 130.182353 
L 212.50817 130.182353 
L 212.50817 128.926231 
L 213.268564 128.926231 
L 213.352813 126.413987 
L 213.695829 126.413987 
L 213.695829 125.157865 
L 214.330397 125.157865 
L 214.330397 123.901743 
L 214.555453 123.901743 
L 214.650757 120.133377 
L 214.885004 120.133377 
L 214.885004 118.877255 
L 217.068719 118.877255 
L 217.068719 117.621133 
L 217.481946 117.621133 
L 217.481946 116.365011 
L 217.610224 116.365011 
L 217.670245 113.852767 
L 217.843328 113.852767 
L 217.843328 112.596645 
L 218.315824 112.596645 
L 218.340947 110.084401 
L 218.659342 110.084401 
L 218.659342 108.828279 
L 219.666056 108.828279 
L 219.666056 107.572157 
L 219.841409 107.572157 
L 219.841409 106.316035 
L 219.988453 106.316035 
L 220.009574 103.803791 
L 220.429839 103.803791 
L 220.496691 101.291547 
L 221.151772 101.291547 
L 221.246084 98.779303 
L 221.443736 98.779303 
L 221.443736 97.523181 
L 221.668713 97.523181 
L 221.668713 96.267059 
L 222.943105 96.267059 
L 222.943105 95.010937 
L 223.158718 95.010937 
L 223.158718 93.754815 
L 223.544631 93.754815 
L 223.544631 92.498693 
L 223.722006 92.498693 
L 223.825085 89.986449 
L 224.664703 89.986449 
L 224.664703 88.730327 
L 225.862839 88.730327 
L 225.862839 87.474205 
L 226.354972 87.474205 
L 226.354972 86.218083 
L 226.634389 86.218083 
L 226.698489 83.705839 
L 227.289671 83.705839 
L 227.289671 82.449717 
L 228.133416 82.449717 
L 228.133416 81.193595 
L 228.726368 81.193595 
L 228.726368 79.937473 
L 229.148996 79.937473 
L 229.148996 78.681351 
L 229.422093 78.681351 
L 229.495598 76.169107 
L 229.765611 76.169107 
L 229.839115 73.656863 
L 229.951698 73.656863 
L 229.951698 72.400741 
L 230.618065 72.400741 
L 230.618065 71.144619 
L 231.20229 71.144619 
L 231.20229 69.888497 
L 233.07207 69.888497 
L 233.07207 68.632375 
L 233.415588 68.632375 
L 233.415588 67.376253 
L 233.611573 67.376253 
L 233.694561 64.864009 
L 233.955091 64.864009 
L 233.955091 63.607887 
L 234.49583 63.607887 
L 234.600754 59.839521 
L 234.839348 59.839521 
L 234.839348 58.583399 
L 234.954792 58.583399 
L 235.023382 56.071155 
L 236.714007 56.071155 
L 236.714007 54.815033 
L 237.057525 54.815033 
L 237.076676 52.302789 
L 241.698837 52.302789 
L 241.698837 51.046667 
L 242.042355 51.046667 
L 242.042355 49.790545 
L 244.069781 49.790545 
L 244.069781 48.534423 
L 245.15478 48.534423 
L 245.15478 47.278301 
L 245.498298 47.278301 
L 245.498298 46.022179 
L 247.777696 46.022179 
L 247.777696 44.766057 
L 247.965605 44.766057 
L 247.965605 43.509935 
L 248.309123 43.509935 
L 248.309123 42.253813 
L 248.701608 42.253813 
L 248.701608 40.997691 
L 250.86276 40.997691 
L 250.86276 39.741569 
L 251.478536 39.741569 
L 251.478536 38.485447 
L 251.822054 38.485447 
L 251.822054 37.229325 
L 254.570676 37.229325 
L 254.581425 34.717081 
L 255.522983 34.717081 
L 255.522983 33.460959 
L 259.583772 33.460959 
L 259.583772 32.204837 
L 260.671153 32.204837 
L 260.671153 30.948715 
L 261.768625 30.948715 
L 261.768625 29.692593 
L 262.112143 29.692593 
L 262.112143 28.436471 
L 263.69578 28.436471 
L 263.69578 27.180349 
L 264.293596 27.180349 
L 264.293596 25.924227 
L 267.464133 25.924227 
L 267.464133 24.668105 
L 271.086575 24.668105 
L 271.086575 23.411983 
L 273.447763 23.411983 
L 273.447763 22.155861 
L 278.638416 22.155861 
L 278.638416 20.899739 
L 279.293698 20.899739 
L 279.293698 19.643617 
L 281.955725 19.643617 
L 281.955725 18.387495 
L 282.336816 18.387495 
L 282.336816 17.131373 
L 282.622091 17.131373 
L 282.680334 14.619129 
L 284.095737 14.619129 
L 284.095737 13.363007 
L 290.888717 13.363007 
L 290.888717 12.106885 
L 302.866787 12.106885 
L 302.866787 10.850763 
L 306.574703 10.850763 
L 306.574703 9.594641 
L 319.46816 9.594641 
L 319.46816 8.338519 
L 323.090602 8.338519 
L 323.090602 7.082397 
L 342.892743 7.082397 
L 342.892743 5.826275 
L 448.638683 5.826275 
L 448.638683 5.826275 
" clip-path="url(#p6cd71f10ce)" style="fill: none; stroke: #bf00bf; stroke-width: 3; stroke-linecap: square"/>
   </g>
   <g id="line2d_38">
    <path clip-path="url(#p6cd71f10ce)" style="fill: none; stroke: #bf00bf; stroke-width: 3; stroke-linecap: square"/>
   </g>
   <g id="line2d_39">
    <path d="M 34.16 288.453725 
L 104.070381 288.453725 
L 104.15463 285.941481 
L 104.973427 285.941481 
L 105.057676 283.429237 
L 124.957245 283.429237 
L 125.041494 280.916993 
L 129.959592 280.916993 
L 130.043841 278.404749 
L 134.0716 278.404749 
L 134.155849 275.892505 
L 143.823583 275.892505 
L 143.907833 273.380261 
L 149.014236 273.380261 
L 149.098485 270.868017 
L 149.669518 270.868017 
L 149.753767 268.355773 
L 152.331545 268.355773 
L 152.415794 265.843529 
L 152.997912 265.843529 
L 153.082161 263.331285 
L 173.242607 263.331285 
L 173.326856 260.819041 
L 174.897554 260.819041 
L 174.897554 259.562919 
L 175.800601 259.562919 
L 175.800601 258.306797 
L 176.950523 258.306797 
L 177.034772 255.794553 
L 177.85277 255.794553 
L 177.85277 254.538431 
L 179.393064 254.538431 
L 179.393064 253.282309 
L 179.686521 253.282309 
L 179.686521 252.026187 
L 180.249251 252.026187 
L 180.249251 250.770065 
L 180.511591 250.770065 
L 180.575286 248.257821 
L 181.690534 248.257821 
L 181.690534 247.001699 
L 182.59358 247.001699 
L 182.59358 245.745577 
L 183.805782 245.745577 
L 183.805782 244.489455 
L 184.166662 244.489455 
L 184.166662 243.233333 
L 185.341265 243.233333 
L 185.341265 241.977211 
L 188.302628 241.977211 
L 188.341542 239.464967 
L 189.84398 239.464967 
L 189.928229 236.952723 
L 191.889545 236.952723 
L 191.9069 234.440479 
L 192.329528 234.440479 
L 192.329528 233.184357 
L 192.60811 233.184357 
L 192.60811 231.928235 
L 193.429839 231.928235 
L 193.466422 229.415991 
L 193.550671 229.415991 
L 193.550671 228.159869 
L 193.723295 228.159869 
L 193.723295 226.903747 
L 194.286025 226.903747 
L 194.382822 224.391503 
L 194.548365 224.391503 
L 194.612061 221.879259 
L 195.784418 221.879259 
L 195.784418 220.623137 
L 197.842557 220.623137 
L 197.842557 219.367015 
L 198.203437 219.367015 
L 198.203437 218.110893 
L 199.37804 218.110893 
L 199.37804 216.854771 
L 200.786765 216.854771 
L 200.786765 215.598649 
L 201.230269 215.598649 
L 201.230269 214.342527 
L 202.275982 214.342527 
L 202.378317 210.574161 
L 202.577398 210.574161 
L 202.577398 209.318039 
L 204.898773 209.318039 
L 204.898773 208.061917 
L 205.015039 208.061917 
L 205.015039 206.805795 
L 205.943675 206.805795 
L 205.976501 204.293551 
L 206.060751 204.293551 
L 206.060751 203.037429 
L 206.366303 203.037429 
L 206.366303 201.781307 
L 206.644885 201.781307 
L 206.644885 200.525185 
L 206.966136 200.525185 
L 207.022213 196.756819 
L 207.191955 196.756819 
L 207.191955 195.500697 
L 207.579745 195.500697 
L 207.579745 194.244575 
L 208.419597 194.244575 
L 208.447691 191.732331 
L 208.732249 191.732331 
L 208.732249 190.476209 
L 209.025705 190.476209 
L 209.129121 187.963965 
L 209.588435 187.963965 
L 209.588435 186.707843 
L 209.850775 186.707843 
L 209.914471 184.195599 
L 210.174833 184.195599 
L 210.174833 182.939477 
L 210.750906 182.939477 
L 210.77991 180.427233 
L 211.691753 180.427233 
L 211.741372 176.658867 
L 211.875837 176.658867 
L 211.875837 175.402745 
L 211.999291 175.402745 
L 211.999291 174.146623 
L 212.232461 174.146623 
L 212.232461 172.890501 
L 213.116288 172.890501 
L 213.193923 167.866013 
L 213.268564 167.866013 
L 213.352813 165.353769 
L 213.505846 165.353769 
L 213.505846 164.097647 
L 214.566408 164.097647 
L 214.650757 159.073159 
L 214.68045 159.073159 
L 214.68045 157.817037 
L 214.864987 157.817037 
L 214.893991 155.304793 
L 215.520206 155.304793 
L 215.520206 154.048671 
L 215.660606 154.048671 
L 215.660606 152.792549 
L 215.784061 152.792549 
L 215.784061 151.536427 
L 216.115315 151.536427 
L 216.115315 150.280305 
L 216.346542 150.280305 
L 216.408771 147.768061 
L 216.622068 147.768061 
L 216.622068 146.511939 
L 216.745523 146.511939 
L 216.745523 145.255817 
L 216.901058 145.255817 
L 216.971501 141.487451 
L 217.233841 141.487451 
L 217.297537 138.975207 
L 217.346086 138.975207 
L 217.346086 137.719085 
L 217.641813 137.719085 
L 217.680727 135.206841 
L 217.86252 135.206841 
L 217.876056 132.694597 
L 218.351177 132.694597 
L 218.364495 130.182353 
L 219.304976 130.182353 
L 219.325957 126.413987 
L 219.774688 126.413987 
L 219.841409 123.901743 
L 219.898142 123.901743 
L 219.898142 122.645621 
L 220.266438 122.645621 
L 220.344826 120.133377 
L 220.454017 120.133377 
L 220.528033 116.365011 
L 220.888913 116.365011 
L 220.914097 113.852767 
L 221.01514 113.852767 
L 221.028675 111.340523 
L 221.130855 111.340523 
L 221.130855 110.084401 
L 221.246084 110.084401 
L 221.246084 108.828279 
L 221.443736 108.828279 
L 221.52967 106.316035 
L 221.668713 106.316035 
L 221.668713 105.059913 
L 221.88512 105.059913 
L 221.947295 102.547669 
L 222.063516 102.547669 
L 222.092317 100.035425 
L 222.178576 100.035425 
L 222.178576 98.779303 
L 222.465259 98.779303 
L 222.575382 95.010937 
L 222.741306 95.010937 
L 222.741306 93.754815 
L 223.003646 93.754815 
L 223.067342 91.242571 
L 223.158718 91.242571 
L 223.158718 89.986449 
L 223.419057 89.986449 
L 223.419057 88.730327 
L 223.722006 88.730327 
L 223.825085 86.218083 
L 224.238787 86.218083 
L 224.238787 84.961961 
L 224.698866 84.961961 
L 224.698866 83.705839 
L 225.024879 83.705839 
L 225.063793 81.193595 
L 225.200249 81.193595 
L 225.244937 78.681351 
L 225.660329 78.681351 
L 225.660329 77.425229 
L 226.297837 77.425229 
L 226.297837 76.169107 
L 226.634389 76.169107 
L 226.658717 73.656863 
L 227.265537 73.656863 
L 227.294541 69.888497 
L 227.833321 69.888497 
L 227.833321 68.632375 
L 228.352869 68.632375 
L 228.352869 67.376253 
L 228.629151 67.376253 
L 228.629151 66.120131 
L 228.747092 66.120131 
L 228.812948 63.607887 
L 229.051779 63.607887 
L 229.051779 62.351765 
L 229.330361 62.351765 
L 229.330361 61.095643 
L 229.951698 61.095643 
L 229.951698 59.839521 
L 230.618065 59.839521 
L 230.618065 58.583399 
L 230.794684 58.583399 
L 230.833598 56.071155 
L 231.105073 56.071155 
L 231.105073 54.815033 
L 232.175237 54.815033 
L 232.175237 53.558911 
L 232.298692 53.558911 
L 232.298692 52.302789 
L 233.415689 52.302789 
L 233.429225 49.790545 
L 233.694561 49.790545 
L 233.694561 48.534423 
L 234.398955 48.534423 
L 234.398955 47.278301 
L 234.597607 47.278301 
L 234.597607 46.022179 
L 234.821584 46.022179 
L 234.879126 42.253813 
L 235.100166 42.253813 
L 235.100166 40.997691 
L 235.819607 40.997691 
L 235.819607 39.741569 
L 236.874877 39.741569 
L 236.874877 38.485447 
L 237.645486 38.485447 
L 237.645486 37.229325 
L 240.753418 37.229325 
L 240.753418 35.973203 
L 241.213498 35.973203 
L 241.213498 34.717081 
L 244.069781 34.717081 
L 244.069781 33.460959 
L 247.777696 33.460959 
L 247.777696 32.204837 
L 250.86276 32.204837 
L 250.86276 30.948715 
L 254.570676 30.948715 
L 254.581425 28.436471 
L 259.583772 28.436471 
L 259.583772 27.180349 
L 260.671153 27.180349 
L 260.671153 25.924227 
L 263.69578 25.924227 
L 263.69578 24.668105 
L 264.293596 24.668105 
L 264.293596 23.411983 
L 267.464133 23.411983 
L 267.464133 22.155861 
L 271.086575 22.155861 
L 271.086575 20.899739 
L 273.447763 20.899739 
L 273.447763 19.643617 
L 278.638416 19.643617 
L 278.638416 18.387495 
L 279.293698 18.387495 
L 279.293698 17.131373 
L 281.955725 17.131373 
L 281.955725 15.875251 
L 282.622091 15.875251 
L 282.622091 14.619129 
L 284.095737 14.619129 
L 284.095737 13.363007 
L 290.888717 13.363007 
L 290.888717 12.106885 
L 302.866787 12.106885 
L 302.866787 10.850763 
L 306.574703 10.850763 
L 306.574703 9.594641 
L 319.46816 9.594641 
L 319.46816 8.338519 
L 323.090602 8.338519 
L 323.090602 7.082397 
L 342.892743 7.082397 
L 342.892743 5.826275 
L 448.638683 5.826275 
L 448.638683 5.826275 
" clip-path="url(#p6cd71f10ce)" style="fill: none; stroke: #ff0000; stroke-width: 3; stroke-linecap: square"/>
   </g>
   <g id="line2d_40">
    <path clip-path="url(#p6cd71f10ce)" style="fill: none; stroke: #ff0000; stroke-width: 3; stroke-linecap: square"/>
   </g>
   <g id="line2d_41">
    <path d="M 241.399342 291.28 
L 241.399342 3 
" clip-path="url(#p6cd71f10ce)" style="fill: none; stroke: #000000; stroke-width: 1.5; stroke-linecap: square"/>
   </g>
   <g id="line2d_42">
    <path d="M 34.16 147.14 
L 448.638683 147.14 
" clip-path="url(#p6cd71f10ce)" style="fill: none; stroke-dasharray: 2,3.3; stroke-dashoffset: 0; stroke: #000000; stroke-width: 2"/>
   </g>
   <g id="patch_3">
    <path d="M 34.16 291.28 
L 34.16 3 
" style="fill: none; stroke: #000000; stroke-width: 0.8; stroke-linejoin: miter; stroke-linecap: square"/>
   </g>
   <g id="patch_4">
    <path d="M 448.638683 291.28 
L 448.638683 3 
" style="fill: none; stroke: #000000; stroke-width: 0.8; stroke-linejoin: miter; stroke-linecap: square"/>
   </g>
   <g id="patch_5">
    <path d="M 34.16 291.28 
L 448.638683 291.28 
" style="fill: none; stroke: #000000; stroke-width: 0.8; stroke-linejoin: miter; stroke-linecap: square"/>
   </g>
   <g id="patch_6">
    <path d="M 34.16 3 
L 448.638683 3 
" style="fill: none; stroke: #000000; stroke-width: 0.8; stroke-linejoin: miter; stroke-linecap: square"/>
   </g>
   <g id="text_6">
    <!-- f1-f5,40-D -->
    <g transform="translate(339.18036 285.5144) scale(0.2 -0.2)">
     <defs>
      <path id="DejaVuSans-35" d="M 691 4666 
L 3169 4666 
L 3169 4134 
L 1269 4134 
L 1269 2991 
Q 1406 3038 1543 3061 
Q 1681 3084 1819 3084 
Q 2600 3084 3056 2656 
Q 3513 2228 3513 1497 
Q 3513 744 3044 326 
Q 2575 -91 1722 -91 
Q 1428 -91 1123 -41 
Q 819 9 494 109 
L 494 744 
Q 775 591 1075 516 
Q 1375 441 1709 441 
Q 2250 441 2565 725 
Q 2881 1009 2881 1497 
Q 2881 1984 2565 2268 
Q 2250 2553 1709 2553 
Q 1456 2553 1204 2497 
Q 953 2441 691 2322 
L 691 4666 
z
" transform="scale(0.015625)"/>
      <path id="DejaVuSans-2c" d="M 750 794 
L 1409 794 
L 1409 256 
L 897 -744 
L 494 -744 
L 750 256 
L 750 794 
z
" transform="scale(0.015625)"/>
      <path id="DejaVuSans-34" d="M 2419 4116 
L 825 1625 
L 2419 1625 
L 2419 4116 
z
M 2253 4666 
L 3047 4666 
L 3047 1625 
L 3713 1625 
L 3713 1100 
L 3047 1100 
L 3047 0 
L 2419 0 
L 2419 1100 
L 313 1100 
L 313 1709 
L 2253 4666 
z
" transform="scale(0.015625)"/>
      <path id="DejaVuSans-44" d="M 1259 4147 
L 1259 519 
L 2022 519 
Q 2988 519 3436 956 
Q 3884 1394 3884 2338 
Q 3884 3275 3436 3711 
Q 2988 4147 2022 4147 
L 1259 4147 
z
M 628 4666 
L 1925 4666 
Q 3281 4666 3915 4102 
Q 4550 3538 4550 2338 
Q 4550 1131 3912 565 
Q 3275 0 1925 0 
L 628 0 
L 628 4666 
z
" transform="scale(0.015625)"/>
     </defs>
     <use xlink:href="#DejaVuSans-66"/>
     <use xlink:href="#DejaVuSans-31" x="35.205078"/>
     <use xlink:href="#DejaVuSans-2d" x="98.828125"/>
     <use xlink:href="#DejaVuSans-66" x="134.912109"/>
     <use xlink:href="#DejaVuSans-35" x="170.117188"/>
     <use xlink:href="#DejaVuSans-2c" x="233.740234"/>
     <use xlink:href="#DejaVuSans-34" x="265.527344"/>
     <use xlink:href="#DejaVuSans-30" x="329.150391"/>
     <use xlink:href="#DejaVuSans-2d" x="392.773438"/>
     <use xlink:href="#DejaVuSans-44" x="428.857422"/>
    </g>
   </g>
   <g id="text_7">
    <!-- v2.6.3 -->
    <g style="fill: #808080" transform="translate(225.718092 286.317512) scale(0.1 -0.1)">
     <defs>
      <path id="DejaVuSans-32" d="M 1228 531 
L 3431 531 
L 3431 0 
L 469 0 
L 469 531 
Q 828 903 1448 1529 
Q 2069 2156 2228 2338 
Q 2531 2678 2651 2914 
Q 2772 3150 2772 3378 
Q 2772 3750 2511 3984 
Q 2250 4219 1831 4219 
Q 1534 4219 1204 4116 
Q 875 4013 500 3803 
L 500 4441 
Q 881 4594 1212 4672 
Q 1544 4750 1819 4750 
Q 2544 4750 2975 4387 
Q 3406 4025 3406 3419 
Q 3406 3131 3298 2873 
Q 3191 2616 2906 2266 
Q 2828 2175 2409 1742 
Q 1991 1309 1228 531 
z
" transform="scale(0.015625)"/>
      <path id="DejaVuSans-2e" d="M 684 794 
L 1344 794 
L 1344 0 
L 684 0 
L 684 794 
z
" transform="scale(0.015625)"/>
      <path id="DejaVuSans-36" d="M 2113 2584 
Q 1688 2584 1439 2293 
Q 1191 2003 1191 1497 
Q 1191 994 1439 701 
Q 1688 409 2113 409 
Q 2538 409 2786 701 
Q 3034 994 3034 1497 
Q 3034 2003 2786 2293 
Q 2538 2584 2113 2584 
z
M 3366 4563 
L 3366 3988 
Q 3128 4100 2886 4159 
Q 2644 4219 2406 4219 
Q 1781 4219 1451 3797 
Q 1122 3375 1075 2522 
Q 1259 2794 1537 2939 
Q 1816 3084 2150 3084 
Q 2853 3084 3261 2657 
Q 3669 2231 3669 1497 
Q 3669 778 3244 343 
Q 2819 -91 2113 -91 
Q 1303 -91 875 529 
Q 447 1150 447 2328 
Q 447 3434 972 4092 
Q 1497 4750 2381 4750 
Q 2619 4750 2861 4703 
Q 3103 4656 3366 4563 
z
" transform="scale(0.015625)"/>
      <path id="DejaVuSans-33" d="M 2597 2516 
Q 3050 2419 3304 2112 
Q 3559 1806 3559 1356 
Q 3559 666 3084 287 
Q 2609 -91 1734 -91 
Q 1441 -91 1130 -33 
Q 819 25 488 141 
L 488 750 
Q 750 597 1062 519 
Q 1375 441 1716 441 
Q 2309 441 2620 675 
Q 2931 909 2931 1356 
Q 2931 1769 2642 2001 
Q 2353 2234 1838 2234 
L 1294 2234 
L 1294 2753 
L 1863 2753 
Q 2328 2753 2575 2939 
Q 2822 3125 2822 3475 
Q 2822 3834 2567 4026 
Q 2313 4219 1838 4219 
Q 1578 4219 1281 4162 
Q 984 4106 628 3988 
L 628 4550 
Q 988 4650 1302 4700 
Q 1616 4750 1894 4750 
Q 2613 4750 3031 4423 
Q 3450 4097 3450 3541 
Q 3450 3153 3228 2886 
Q 3006 2619 2597 2516 
z
" transform="scale(0.015625)"/>
     </defs>
     <use xlink:href="#DejaVuSans-76"/>
     <use xlink:href="#DejaVuSans-32" x="59.179688"/>
     <use xlink:href="#DejaVuSans-2e" x="122.802734"/>
     <use xlink:href="#DejaVuSans-36" x="154.589844"/>
     <use xlink:href="#DejaVuSans-2e" x="218.212891"/>
     <use xlink:href="#DejaVuSans-33" x="250"/>
    </g>
   </g>
   <g id="legend_1">
    <g id="patch_7">
     <path d="M 48.16 136.425 
L 177.381875 136.425 
Q 181.381875 136.425 181.381875 132.425 
L 181.381875 17 
Q 181.381875 13 177.381875 13 
L 48.16 13 
Q 44.16 13 44.16 17 
L 44.16 132.425 
Q 44.16 136.425 48.16 136.425 
z
" style="fill: #ffffff; opacity: 0.2; stroke: #cccccc; stroke-linejoin: miter"/>
    </g>
    <g id="line2d_43">
     <path d="M 52.16 29.196875 
L 72.16 29.196875 
L 92.16 29.196875 
" style="fill: none; stroke: #000000; stroke-width: 3; stroke-linecap: square"/>
    </g>
    <g id="text_8">
     <!-- 1: 5/5 -->
     <g transform="translate(108.16 36.196875) scale(0.2 -0.2)">
      <defs>
       <path id="DejaVuSans-3a" d="M 750 794 
L 1409 794 
L 1409 0 
L 750 0 
L 750 794 
z
M 750 3309 
L 1409 3309 
L 1409 2516 
L 750 2516 
L 750 3309 
z
" transform="scale(0.015625)"/>
       <path id="DejaVuSans-2f" d="M 1625 4666 
L 2156 4666 
L 531 -594 
L 0 -594 
L 1625 4666 
z
" transform="scale(0.015625)"/>
      </defs>
      <use xlink:href="#DejaVuSans-31"/>
      <use xlink:href="#DejaVuSans-3a" x="63.623047"/>
      <use xlink:href="#DejaVuSans-20" x="97.314453"/>
      <use xlink:href="#DejaVuSans-35" x="129.101562"/>
      <use xlink:href="#DejaVuSans-2f" x="192.724609"/>
      <use xlink:href="#DejaVuSans-35" x="226.416016"/>
     </g>
    </g>
    <g id="line2d_44">
     <path d="M 52.16 58.553125 
L 72.16 58.553125 
L 92.16 58.553125 
" style="fill: none; stroke: #00bfbf; stroke-width: 3; stroke-linecap: square"/>
    </g>
    <g id="text_9">
     <!-- -1: 4/4 -->
     <g transform="translate(108.16 65.553125) scale(0.2 -0.2)">
      <use xlink:href="#DejaVuSans-2d"/>
      <use xlink:href="#DejaVuSans-31" x="36.083984"/>
      <use xlink:href="#DejaVuSans-3a" x="99.707031"/>
      <use xlink:href="#DejaVuSans-20" x="133.398438"/>
      <use xlink:href="#DejaVuSans-34" x="165.185547"/>
      <use xlink:href="#DejaVuSans-2f" x="228.808594"/>
      <use xlink:href="#DejaVuSans-34" x="262.5"/>
     </g>
    </g>
    <g id="line2d_45">
     <path d="M 52.16 87.909375 
L 72.16 87.909375 
L 92.16 87.909375 
" style="fill: none; stroke: #bf00bf; stroke-width: 3; stroke-linecap: square"/>
    </g>
    <g id="text_10">
     <!-- -4: 3/3 -->
     <g transform="translate(108.16 94.909375) scale(0.2 -0.2)">
      <use xlink:href="#DejaVuSans-2d"/>
      <use xlink:href="#DejaVuSans-34" x="36.083984"/>
      <use xlink:href="#DejaVuSans-3a" x="99.707031"/>
      <use xlink:href="#DejaVuSans-20" x="133.398438"/>
      <use xlink:href="#DejaVuSans-33" x="165.185547"/>
      <use xlink:href="#DejaVuSans-2f" x="228.808594"/>
      <use xlink:href="#DejaVuSans-33" x="262.5"/>
     </g>
    </g>
    <g id="line2d_46">
     <path d="M 52.16 117.265625 
L 72.16 117.265625 
L 92.16 117.265625 
" style="fill: none; stroke: #ff0000; stroke-width: 3; stroke-linecap: square"/>
    </g>
    <g id="text_11">
     <!-- -8: 3/3 -->
     <g transform="translate(108.16 124.265625) scale(0.2 -0.2)">
      <defs>
       <path id="DejaVuSans-38" d="M 2034 2216 
Q 1584 2216 1326 1975 
Q 1069 1734 1069 1313 
Q 1069 891 1326 650 
Q 1584 409 2034 409 
Q 2484 409 2743 651 
Q 3003 894 3003 1313 
Q 3003 1734 2745 1975 
Q 2488 2216 2034 2216 
z
M 1403 2484 
Q 997 2584 770 2862 
Q 544 3141 544 3541 
Q 544 4100 942 4425 
Q 1341 4750 2034 4750 
Q 2731 4750 3128 4425 
Q 3525 4100 3525 3541 
Q 3525 3141 3298 2862 
Q 3072 2584 2669 2484 
Q 3125 2378 3379 2068 
Q 3634 1759 3634 1313 
Q 3634 634 3220 271 
Q 2806 -91 2034 -91 
Q 1263 -91 848 271 
Q 434 634 434 1313 
Q 434 1759 690 2068 
Q 947 2378 1403 2484 
z
M 1172 3481 
Q 1172 3119 1398 2916 
Q 1625 2713 2034 2713 
Q 2441 2713 2670 2916 
Q 2900 3119 2900 3481 
Q 2900 3844 2670 4047 
Q 2441 4250 2034 4250 
Q 1625 4250 1398 4047 
Q 1172 3844 1172 3481 
z
" transform="scale(0.015625)"/>
      </defs>
      <use xlink:href="#DejaVuSans-2d"/>
      <use xlink:href="#DejaVuSans-38" x="36.083984"/>
      <use xlink:href="#DejaVuSans-3a" x="99.707031"/>
      <use xlink:href="#DejaVuSans-20" x="133.398438"/>
      <use xlink:href="#DejaVuSans-33" x="165.185547"/>
      <use xlink:href="#DejaVuSans-2f" x="228.808594"/>
      <use xlink:href="#DejaVuSans-33" x="262.5"/>
     </g>
    </g>
   </g>
  </g>
 </g>
 <defs>
  <clipPath id="p6cd71f10ce">
   <rect x="34.16" y="3" width="414.478683" height="288.28"/>
  </clipPath>
 </defs>
</svg>
