<?xml version="1.0" encoding="utf-8" standalone="no"?>
<!DOCTYPE svg PUBLIC "-//W3C//DTD SVG 1.1//EN"
  "http://www.w3.org/Graphics/SVG/1.1/DTD/svg11.dtd">
<svg xmlns:xlink="http://www.w3.org/1999/xlink" width="460.8pt" height="345.6pt" viewBox="0 0 460.8 345.6" xmlns="http://www.w3.org/2000/svg" version="1.1">
 <metadata>
  <rdf:RDF xmlns:dc="http://purl.org/dc/elements/1.1/" xmlns:cc="http://creativecommons.org/ns#" xmlns:rdf="http://www.w3.org/1999/02/22-rdf-syntax-ns#">
   <cc:Work>
    <dc:type rdf:resource="http://purl.org/dc/dcmitype/StillImage"/>
    <dc:date>2024-05-24T12:12:01.709189</dc:date>
    <dc:format>image/svg+xml</dc:format>
    <dc:creator>
     <cc:Agent>
      <dc:title>Matplotlib v3.7.1, https://matplotlib.org/</dc:title>
     </cc:Agent>
    </dc:creator>
   </cc:Work>
  </rdf:RDF>
 </metadata>
 <defs>
  <style type="text/css">*{stroke-linejoin: round; stroke-linecap: butt}</style>
 </defs>
 <g id="figure_1">
  <g id="patch_1">
   <path d="M 0 345.6 
L 460.8 345.6 
L 460.8 0 
L 0 0 
z
" style="fill: #ffffff"/>
  </g>
  <g id="axes_1">
   <g id="patch_2">
    <path d="M 34.16 291.28 
L 453.192 291.28 
L 453.192 3 
L 34.16 3 
z
" style="fill: #ffffff"/>
   </g>
   <g id="matplotlib.axis_1">
    <g id="xtick_1">
     <g id="line2d_1">
      <path d="M 133.767922 291.28 
L 133.767922 3 
" clip-path="url(#pddad201f56)" style="fill: none; stroke: #b0b0b0; stroke-width: 0.8; stroke-linecap: square"/>
     </g>
     <g id="line2d_2">
      <defs>
       <path id="m99d01fe7ed" d="M 0 0 
L 0 3.5 
" style="stroke: #000000; stroke-width: 0.8"/>
      </defs>
      <g>
       <use xlink:href="#m99d01fe7ed" x="133.767922" y="291.28" style="stroke: #000000; stroke-width: 0.8"/>
      </g>
     </g>
     <g id="text_1">
      <!-- -1 -->
      <g transform="translate(123.79761 313.476875) scale(0.2 -0.2)">
       <defs>
        <path id="DejaVuSans-2d" d="M 313 2009 
L 1997 2009 
L 1997 1497 
L 313 1497 
L 313 2009 
z
" transform="scale(0.015625)"/>
        <path id="DejaVuSans-31" d="M 794 531 
L 1825 531 
L 1825 4091 
L 703 3866 
L 703 4441 
L 1819 4666 
L 2450 4666 
L 2450 531 
L 3481 531 
L 3481 0 
L 794 0 
L 794 531 
z
" transform="scale(0.015625)"/>
       </defs>
       <use xlink:href="#DejaVuSans-2d"/>
       <use xlink:href="#DejaVuSans-31" x="36.083984"/>
      </g>
     </g>
    </g>
    <g id="xtick_2">
     <g id="line2d_3">
      <path d="M 243.676 291.28 
L 243.676 3 
" clip-path="url(#pddad201f56)" style="fill: none; stroke: #b0b0b0; stroke-width: 0.8; stroke-linecap: square"/>
     </g>
     <g id="line2d_4">
      <g>
       <use xlink:href="#m99d01fe7ed" x="243.676" y="291.28" style="stroke: #000000; stroke-width: 0.8"/>
      </g>
     </g>
     <g id="text_2">
      <!-- 0 -->
      <g transform="translate(237.3135 313.476875) scale(0.2 -0.2)">
       <defs>
        <path id="DejaVuSans-30" d="M 2034 4250 
Q 1547 4250 1301 3770 
Q 1056 3291 1056 2328 
Q 1056 1369 1301 889 
Q 1547 409 2034 409 
Q 2525 409 2770 889 
Q 3016 1369 3016 2328 
Q 3016 3291 2770 3770 
Q 2525 4250 2034 4250 
z
M 2034 4750 
Q 2819 4750 3233 4129 
Q 3647 3509 3647 2328 
Q 3647 1150 3233 529 
Q 2819 -91 2034 -91 
Q 1250 -91 836 529 
Q 422 1150 422 2328 
Q 422 3509 836 4129 
Q 1250 4750 2034 4750 
z
" transform="scale(0.015625)"/>
       </defs>
       <use xlink:href="#DejaVuSans-30"/>
      </g>
     </g>
    </g>
    <g id="xtick_3">
     <g id="line2d_5">
      <path d="M 353.584078 291.28 
L 353.584078 3 
" clip-path="url(#pddad201f56)" style="fill: none; stroke: #b0b0b0; stroke-width: 0.8; stroke-linecap: square"/>
     </g>
     <g id="line2d_6">
      <g>
       <use xlink:href="#m99d01fe7ed" x="353.584078" y="291.28" style="stroke: #000000; stroke-width: 0.8"/>
      </g>
     </g>
     <g id="text_3">
      <!-- 1 -->
      <g transform="translate(347.221578 313.476875) scale(0.2 -0.2)">
       <use xlink:href="#DejaVuSans-31"/>
      </g>
     </g>
    </g>
    <g id="xtick_4">
     <g id="line2d_7">
      <defs>
       <path id="m455c0ef595" d="M 0 0 
L 0 2 
" style="stroke: #000000; stroke-width: 0.6"/>
      </defs>
      <g>
       <use xlink:href="#m455c0ef595" x="56.945473" y="291.28" style="stroke: #000000; stroke-width: 0.6"/>
      </g>
     </g>
    </g>
    <g id="xtick_5">
     <g id="line2d_8">
      <g>
       <use xlink:href="#m455c0ef595" x="76.299324" y="291.28" style="stroke: #000000; stroke-width: 0.6"/>
      </g>
     </g>
    </g>
    <g id="xtick_6">
     <g id="line2d_9">
      <g>
       <use xlink:href="#m455c0ef595" x="90.031101" y="291.28" style="stroke: #000000; stroke-width: 0.6"/>
      </g>
     </g>
    </g>
    <g id="xtick_7">
     <g id="line2d_10">
      <g>
       <use xlink:href="#m455c0ef595" x="100.682294" y="291.28" style="stroke: #000000; stroke-width: 0.6"/>
      </g>
     </g>
    </g>
    <g id="xtick_8">
     <g id="line2d_11">
      <g>
       <use xlink:href="#m455c0ef595" x="109.384953" y="291.28" style="stroke: #000000; stroke-width: 0.6"/>
      </g>
     </g>
    </g>
    <g id="xtick_9">
     <g id="line2d_12">
      <g>
       <use xlink:href="#m455c0ef595" x="116.742946" y="291.28" style="stroke: #000000; stroke-width: 0.6"/>
      </g>
     </g>
    </g>
    <g id="xtick_10">
     <g id="line2d_13">
      <g>
       <use xlink:href="#m455c0ef595" x="123.116729" y="291.28" style="stroke: #000000; stroke-width: 0.6"/>
      </g>
     </g>
    </g>
    <g id="xtick_11">
     <g id="line2d_14">
      <g>
       <use xlink:href="#m455c0ef595" x="128.738804" y="291.28" style="stroke: #000000; stroke-width: 0.6"/>
      </g>
     </g>
    </g>
    <g id="xtick_12">
     <g id="line2d_15">
      <g>
       <use xlink:href="#m455c0ef595" x="166.85355" y="291.28" style="stroke: #000000; stroke-width: 0.6"/>
      </g>
     </g>
    </g>
    <g id="xtick_13">
     <g id="line2d_16">
      <g>
       <use xlink:href="#m455c0ef595" x="186.207402" y="291.28" style="stroke: #000000; stroke-width: 0.6"/>
      </g>
     </g>
    </g>
    <g id="xtick_14">
     <g id="line2d_17">
      <g>
       <use xlink:href="#m455c0ef595" x="199.939179" y="291.28" style="stroke: #000000; stroke-width: 0.6"/>
      </g>
     </g>
    </g>
    <g id="xtick_15">
     <g id="line2d_18">
      <g>
       <use xlink:href="#m455c0ef595" x="210.590372" y="291.28" style="stroke: #000000; stroke-width: 0.6"/>
      </g>
     </g>
    </g>
    <g id="xtick_16">
     <g id="line2d_19">
      <g>
       <use xlink:href="#m455c0ef595" x="219.29303" y="291.28" style="stroke: #000000; stroke-width: 0.6"/>
      </g>
     </g>
    </g>
    <g id="xtick_17">
     <g id="line2d_20">
      <g>
       <use xlink:href="#m455c0ef595" x="226.651023" y="291.28" style="stroke: #000000; stroke-width: 0.6"/>
      </g>
     </g>
    </g>
    <g id="xtick_18">
     <g id="line2d_21">
      <g>
       <use xlink:href="#m455c0ef595" x="233.024807" y="291.28" style="stroke: #000000; stroke-width: 0.6"/>
      </g>
     </g>
    </g>
    <g id="xtick_19">
     <g id="line2d_22">
      <g>
       <use xlink:href="#m455c0ef595" x="238.646882" y="291.28" style="stroke: #000000; stroke-width: 0.6"/>
      </g>
     </g>
    </g>
    <g id="xtick_20">
     <g id="line2d_23">
      <g>
       <use xlink:href="#m455c0ef595" x="276.761628" y="291.28" style="stroke: #000000; stroke-width: 0.6"/>
      </g>
     </g>
    </g>
    <g id="xtick_21">
     <g id="line2d_24">
      <g>
       <use xlink:href="#m455c0ef595" x="296.11548" y="291.28" style="stroke: #000000; stroke-width: 0.6"/>
      </g>
     </g>
    </g>
    <g id="xtick_22">
     <g id="line2d_25">
      <g>
       <use xlink:href="#m455c0ef595" x="309.847256" y="291.28" style="stroke: #000000; stroke-width: 0.6"/>
      </g>
     </g>
    </g>
    <g id="xtick_23">
     <g id="line2d_26">
      <g>
       <use xlink:href="#m455c0ef595" x="320.49845" y="291.28" style="stroke: #000000; stroke-width: 0.6"/>
      </g>
     </g>
    </g>
    <g id="xtick_24">
     <g id="line2d_27">
      <g>
       <use xlink:href="#m455c0ef595" x="329.201108" y="291.28" style="stroke: #000000; stroke-width: 0.6"/>
      </g>
     </g>
    </g>
    <g id="xtick_25">
     <g id="line2d_28">
      <g>
       <use xlink:href="#m455c0ef595" x="336.559101" y="291.28" style="stroke: #000000; stroke-width: 0.6"/>
      </g>
     </g>
    </g>
    <g id="xtick_26">
     <g id="line2d_29">
      <g>
       <use xlink:href="#m455c0ef595" x="342.932885" y="291.28" style="stroke: #000000; stroke-width: 0.6"/>
      </g>
     </g>
    </g>
    <g id="xtick_27">
     <g id="line2d_30">
      <g>
       <use xlink:href="#m455c0ef595" x="348.55496" y="291.28" style="stroke: #000000; stroke-width: 0.6"/>
      </g>
     </g>
    </g>
    <g id="xtick_28">
     <g id="line2d_31">
      <g>
       <use xlink:href="#m455c0ef595" x="386.669706" y="291.28" style="stroke: #000000; stroke-width: 0.6"/>
      </g>
     </g>
    </g>
    <g id="xtick_29">
     <g id="line2d_32">
      <g>
       <use xlink:href="#m455c0ef595" x="406.023558" y="291.28" style="stroke: #000000; stroke-width: 0.6"/>
      </g>
     </g>
    </g>
    <g id="xtick_30">
     <g id="line2d_33">
      <g>
       <use xlink:href="#m455c0ef595" x="419.755334" y="291.28" style="stroke: #000000; stroke-width: 0.6"/>
      </g>
     </g>
    </g>
    <g id="xtick_31">
     <g id="line2d_34">
      <g>
       <use xlink:href="#m455c0ef595" x="430.406527" y="291.28" style="stroke: #000000; stroke-width: 0.6"/>
      </g>
     </g>
    </g>
    <g id="xtick_32">
     <g id="line2d_35">
      <g>
       <use xlink:href="#m455c0ef595" x="439.109186" y="291.28" style="stroke: #000000; stroke-width: 0.6"/>
      </g>
     </g>
    </g>
    <g id="xtick_33">
     <g id="line2d_36">
      <g>
       <use xlink:href="#m455c0ef595" x="446.467179" y="291.28" style="stroke: #000000; stroke-width: 0.6"/>
      </g>
     </g>
    </g>
    <g id="xtick_34">
     <g id="line2d_37">
      <g>
       <use xlink:href="#m455c0ef595" x="452.840962" y="291.28" style="stroke: #000000; stroke-width: 0.6"/>
      </g>
     </g>
    </g>
    <g id="text_4">
     <!-- log10 of FEvals ratio -->
     <g transform="translate(141.371312 336.833125) scale(0.2 -0.2)">
      <defs>
       <path id="DejaVuSans-6c" d="M 603 4863 
L 1178 4863 
L 1178 0 
L 603 0 
L 603 4863 
z
" transform="scale(0.015625)"/>
       <path id="DejaVuSans-6f" d="M 1959 3097 
Q 1497 3097 1228 2736 
Q 959 2375 959 1747 
Q 959 1119 1226 758 
Q 1494 397 1959 397 
Q 2419 397 2687 759 
Q 2956 1122 2956 1747 
Q 2956 2369 2687 2733 
Q 2419 3097 1959 3097 
z
M 1959 3584 
Q 2709 3584 3137 3096 
Q 3566 2609 3566 1747 
Q 3566 888 3137 398 
Q 2709 -91 1959 -91 
Q 1206 -91 779 398 
Q 353 888 353 1747 
Q 353 2609 779 3096 
Q 1206 3584 1959 3584 
z
" transform="scale(0.015625)"/>
       <path id="DejaVuSans-67" d="M 2906 1791 
Q 2906 2416 2648 2759 
Q 2391 3103 1925 3103 
Q 1463 3103 1205 2759 
Q 947 2416 947 1791 
Q 947 1169 1205 825 
Q 1463 481 1925 481 
Q 2391 481 2648 825 
Q 2906 1169 2906 1791 
z
M 3481 434 
Q 3481 -459 3084 -895 
Q 2688 -1331 1869 -1331 
Q 1566 -1331 1297 -1286 
Q 1028 -1241 775 -1147 
L 775 -588 
Q 1028 -725 1275 -790 
Q 1522 -856 1778 -856 
Q 2344 -856 2625 -561 
Q 2906 -266 2906 331 
L 2906 616 
Q 2728 306 2450 153 
Q 2172 0 1784 0 
Q 1141 0 747 490 
Q 353 981 353 1791 
Q 353 2603 747 3093 
Q 1141 3584 1784 3584 
Q 2172 3584 2450 3431 
Q 2728 3278 2906 2969 
L 2906 3500 
L 3481 3500 
L 3481 434 
z
" transform="scale(0.015625)"/>
       <path id="DejaVuSans-20" transform="scale(0.015625)"/>
       <path id="DejaVuSans-66" d="M 2375 4863 
L 2375 4384 
L 1825 4384 
Q 1516 4384 1395 4259 
Q 1275 4134 1275 3809 
L 1275 3500 
L 2222 3500 
L 2222 3053 
L 1275 3053 
L 1275 0 
L 697 0 
L 697 3053 
L 147 3053 
L 147 3500 
L 697 3500 
L 697 3744 
Q 697 4328 969 4595 
Q 1241 4863 1831 4863 
L 2375 4863 
z
" transform="scale(0.015625)"/>
       <path id="DejaVuSans-46" d="M 628 4666 
L 3309 4666 
L 3309 4134 
L 1259 4134 
L 1259 2759 
L 3109 2759 
L 3109 2228 
L 1259 2228 
L 1259 0 
L 628 0 
L 628 4666 
z
" transform="scale(0.015625)"/>
       <path id="DejaVuSans-45" d="M 628 4666 
L 3578 4666 
L 3578 4134 
L 1259 4134 
L 1259 2753 
L 3481 2753 
L 3481 2222 
L 1259 2222 
L 1259 531 
L 3634 531 
L 3634 0 
L 628 0 
L 628 4666 
z
" transform="scale(0.015625)"/>
       <path id="DejaVuSans-76" d="M 191 3500 
L 800 3500 
L 1894 563 
L 2988 3500 
L 3597 3500 
L 2284 0 
L 1503 0 
L 191 3500 
z
" transform="scale(0.015625)"/>
       <path id="DejaVuSans-61" d="M 2194 1759 
Q 1497 1759 1228 1600 
Q 959 1441 959 1056 
Q 959 750 1161 570 
Q 1363 391 1709 391 
Q 2188 391 2477 730 
Q 2766 1069 2766 1631 
L 2766 1759 
L 2194 1759 
z
M 3341 1997 
L 3341 0 
L 2766 0 
L 2766 531 
Q 2569 213 2275 61 
Q 1981 -91 1556 -91 
Q 1019 -91 701 211 
Q 384 513 384 1019 
Q 384 1609 779 1909 
Q 1175 2209 1959 2209 
L 2766 2209 
L 2766 2266 
Q 2766 2663 2505 2880 
Q 2244 3097 1772 3097 
Q 1472 3097 1187 3025 
Q 903 2953 641 2809 
L 641 3341 
Q 956 3463 1253 3523 
Q 1550 3584 1831 3584 
Q 2591 3584 2966 3190 
Q 3341 2797 3341 1997 
z
" transform="scale(0.015625)"/>
       <path id="DejaVuSans-73" d="M 2834 3397 
L 2834 2853 
Q 2591 2978 2328 3040 
Q 2066 3103 1784 3103 
Q 1356 3103 1142 2972 
Q 928 2841 928 2578 
Q 928 2378 1081 2264 
Q 1234 2150 1697 2047 
L 1894 2003 
Q 2506 1872 2764 1633 
Q 3022 1394 3022 966 
Q 3022 478 2636 193 
Q 2250 -91 1575 -91 
Q 1294 -91 989 -36 
Q 684 19 347 128 
L 347 722 
Q 666 556 975 473 
Q 1284 391 1588 391 
Q 1994 391 2212 530 
Q 2431 669 2431 922 
Q 2431 1156 2273 1281 
Q 2116 1406 1581 1522 
L 1381 1569 
Q 847 1681 609 1914 
Q 372 2147 372 2553 
Q 372 3047 722 3315 
Q 1072 3584 1716 3584 
Q 2034 3584 2315 3537 
Q 2597 3491 2834 3397 
z
" transform="scale(0.015625)"/>
       <path id="DejaVuSans-72" d="M 2631 2963 
Q 2534 3019 2420 3045 
Q 2306 3072 2169 3072 
Q 1681 3072 1420 2755 
Q 1159 2438 1159 1844 
L 1159 0 
L 581 0 
L 581 3500 
L 1159 3500 
L 1159 2956 
Q 1341 3275 1631 3429 
Q 1922 3584 2338 3584 
Q 2397 3584 2469 3576 
Q 2541 3569 2628 3553 
L 2631 2963 
z
" transform="scale(0.015625)"/>
       <path id="DejaVuSans-74" d="M 1172 4494 
L 1172 3500 
L 2356 3500 
L 2356 3053 
L 1172 3053 
L 1172 1153 
Q 1172 725 1289 603 
Q 1406 481 1766 481 
L 2356 481 
L 2356 0 
L 1766 0 
Q 1100 0 847 248 
Q 594 497 594 1153 
L 594 3053 
L 172 3053 
L 172 3500 
L 594 3500 
L 594 4494 
L 1172 4494 
z
" transform="scale(0.015625)"/>
       <path id="DejaVuSans-69" d="M 603 3500 
L 1178 3500 
L 1178 0 
L 603 0 
L 603 3500 
z
M 603 4863 
L 1178 4863 
L 1178 4134 
L 603 4134 
L 603 4863 
z
" transform="scale(0.015625)"/>
      </defs>
      <use xlink:href="#DejaVuSans-6c"/>
      <use xlink:href="#DejaVuSans-6f" x="27.783203"/>
      <use xlink:href="#DejaVuSans-67" x="88.964844"/>
      <use xlink:href="#DejaVuSans-31" x="152.441406"/>
      <use xlink:href="#DejaVuSans-30" x="216.064453"/>
      <use xlink:href="#DejaVuSans-20" x="279.6875"/>
      <use xlink:href="#DejaVuSans-6f" x="311.474609"/>
      <use xlink:href="#DejaVuSans-66" x="372.65625"/>
      <use xlink:href="#DejaVuSans-20" x="407.861328"/>
      <use xlink:href="#DejaVuSans-46" x="439.648438"/>
      <use xlink:href="#DejaVuSans-45" x="497.167969"/>
      <use xlink:href="#DejaVuSans-76" x="560.351562"/>
      <use xlink:href="#DejaVuSans-61" x="619.53125"/>
      <use xlink:href="#DejaVuSans-6c" x="680.810547"/>
      <use xlink:href="#DejaVuSans-73" x="708.59375"/>
      <use xlink:href="#DejaVuSans-20" x="760.693359"/>
      <use xlink:href="#DejaVuSans-72" x="792.480469"/>
      <use xlink:href="#DejaVuSans-61" x="833.59375"/>
      <use xlink:href="#DejaVuSans-74" x="894.873047"/>
      <use xlink:href="#DejaVuSans-69" x="934.082031"/>
      <use xlink:href="#DejaVuSans-6f" x="961.865234"/>
     </g>
    </g>
   </g>
   <g id="matplotlib.axis_2">
    <g id="ytick_1">
     <g id="line2d_38">
      <path d="M 34.16 288.453725 
L 453.192 288.453725 
" clip-path="url(#pddad201f56)" style="fill: none; stroke: #b0b0b0; stroke-width: 0.8; stroke-linecap: square"/>
     </g>
     <g id="line2d_39">
      <defs>
       <path id="m58cb6d8e6c" d="M 0 0 
L -3.5 0 
" style="stroke: #000000; stroke-width: 0.8"/>
      </defs>
      <g>
       <use xlink:href="#m58cb6d8e6c" x="34.16" y="288.453725" style="stroke: #000000; stroke-width: 0.8"/>
      </g>
     </g>
    </g>
    <g id="ytick_2">
     <g id="line2d_40">
      <path d="M 34.16 217.796863 
L 453.192 217.796863 
" clip-path="url(#pddad201f56)" style="fill: none; stroke: #b0b0b0; stroke-width: 0.8; stroke-linecap: square"/>
     </g>
     <g id="line2d_41">
      <g>
       <use xlink:href="#m58cb6d8e6c" x="34.16" y="217.796863" style="stroke: #000000; stroke-width: 0.8"/>
      </g>
     </g>
    </g>
    <g id="ytick_3">
     <g id="line2d_42">
      <path d="M 34.16 147.14 
L 453.192 147.14 
" clip-path="url(#pddad201f56)" style="fill: none; stroke: #b0b0b0; stroke-width: 0.8; stroke-linecap: square"/>
     </g>
     <g id="line2d_43">
      <g>
       <use xlink:href="#m58cb6d8e6c" x="34.16" y="147.14" style="stroke: #000000; stroke-width: 0.8"/>
      </g>
     </g>
    </g>
    <g id="ytick_4">
     <g id="line2d_44">
      <path d="M 34.16 76.483137 
L 453.192 76.483137 
" clip-path="url(#pddad201f56)" style="fill: none; stroke: #b0b0b0; stroke-width: 0.8; stroke-linecap: square"/>
     </g>
     <g id="line2d_45">
      <g>
       <use xlink:href="#m58cb6d8e6c" x="34.16" y="76.483137" style="stroke: #000000; stroke-width: 0.8"/>
      </g>
     </g>
    </g>
    <g id="ytick_5">
     <g id="line2d_46">
      <path d="M 34.16 5.826275 
L 453.192 5.826275 
" clip-path="url(#pddad201f56)" style="fill: none; stroke: #b0b0b0; stroke-width: 0.8; stroke-linecap: square"/>
     </g>
     <g id="line2d_47">
      <g>
       <use xlink:href="#m58cb6d8e6c" x="34.16" y="5.826275" style="stroke: #000000; stroke-width: 0.8"/>
      </g>
     </g>
    </g>
    <g id="text_5">
     <!-- proportion of trials -->
     <g transform="translate(19.000625 240.14625) rotate(-90) scale(0.2 -0.2)">
      <defs>
       <path id="DejaVuSans-70" d="M 1159 525 
L 1159 -1331 
L 581 -1331 
L 581 3500 
L 1159 3500 
L 1159 2969 
Q 1341 3281 1617 3432 
Q 1894 3584 2278 3584 
Q 2916 3584 3314 3078 
Q 3713 2572 3713 1747 
Q 3713 922 3314 415 
Q 2916 -91 2278 -91 
Q 1894 -91 1617 61 
Q 1341 213 1159 525 
z
M 3116 1747 
Q 3116 2381 2855 2742 
Q 2594 3103 2138 3103 
Q 1681 3103 1420 2742 
Q 1159 2381 1159 1747 
Q 1159 1113 1420 752 
Q 1681 391 2138 391 
Q 2594 391 2855 752 
Q 3116 1113 3116 1747 
z
" transform="scale(0.015625)"/>
       <path id="DejaVuSans-6e" d="M 3513 2113 
L 3513 0 
L 2938 0 
L 2938 2094 
Q 2938 2591 2744 2837 
Q 2550 3084 2163 3084 
Q 1697 3084 1428 2787 
Q 1159 2491 1159 1978 
L 1159 0 
L 581 0 
L 581 3500 
L 1159 3500 
L 1159 2956 
Q 1366 3272 1645 3428 
Q 1925 3584 2291 3584 
Q 2894 3584 3203 3211 
Q 3513 2838 3513 2113 
z
" transform="scale(0.015625)"/>
      </defs>
      <use xlink:href="#DejaVuSans-70"/>
      <use xlink:href="#DejaVuSans-72" x="63.476562"/>
      <use xlink:href="#DejaVuSans-6f" x="102.339844"/>
      <use xlink:href="#DejaVuSans-70" x="163.521484"/>
      <use xlink:href="#DejaVuSans-6f" x="226.998047"/>
      <use xlink:href="#DejaVuSans-72" x="288.179688"/>
      <use xlink:href="#DejaVuSans-74" x="329.292969"/>
      <use xlink:href="#DejaVuSans-69" x="368.501953"/>
      <use xlink:href="#DejaVuSans-6f" x="396.285156"/>
      <use xlink:href="#DejaVuSans-6e" x="457.466797"/>
      <use xlink:href="#DejaVuSans-20" x="520.845703"/>
      <use xlink:href="#DejaVuSans-6f" x="552.632812"/>
      <use xlink:href="#DejaVuSans-66" x="613.814453"/>
      <use xlink:href="#DejaVuSans-20" x="649.019531"/>
      <use xlink:href="#DejaVuSans-74" x="680.806641"/>
      <use xlink:href="#DejaVuSans-72" x="720.015625"/>
      <use xlink:href="#DejaVuSans-69" x="761.128906"/>
      <use xlink:href="#DejaVuSans-61" x="788.912109"/>
      <use xlink:href="#DejaVuSans-6c" x="850.191406"/>
      <use xlink:href="#DejaVuSans-73" x="877.974609"/>
     </g>
    </g>
   </g>
   <g id="line2d_48">
    <path d="M 34.16 288.453725 
L 59.898939 288.453725 
L 59.898939 287.700052 
L 82.946647 287.700052 
L 82.946647 286.946379 
L 93.188117 286.946379 
L 93.188117 286.192706 
L 107.881443 286.192706 
L 107.881443 285.439033 
L 115.419002 285.439033 
L 115.419002 284.685359 
L 120.515873 284.685359 
L 120.515873 283.931686 
L 138.46671 283.931686 
L 138.46671 283.178013 
L 140.394929 283.178013 
L 140.394929 282.42434 
L 148.70818 282.42434 
L 148.70818 281.670667 
L 154.616692 281.670667 
L 154.616692 280.916993 
L 155.434526 280.916993 
L 155.434526 280.16332 
L 163.401506 280.16332 
L 163.442637 278.655974 
L 164.623603 278.655974 
L 164.623603 277.148627 
L 165.827006 277.148627 
L 165.827006 276.394954 
L 166.655078 276.394954 
L 166.655078 275.641281 
L 167.926235 275.641281 
L 167.926235 274.887608 
L 168.603613 274.887608 
L 168.603613 274.133935 
L 168.975343 274.133935 
L 168.975343 273.380261 
L 171.679118 273.380261 
L 171.679118 272.626588 
L 173.684107 272.626588 
L 173.684107 271.872915 
L 175.688067 271.872915 
L 175.688067 271.119242 
L 176.035936 271.119242 
L 176.035936 270.365569 
L 177.306272 270.365569 
L 177.306272 268.858222 
L 178.482235 268.858222 
L 178.482235 268.104549 
L 178.871411 268.104549 
L 178.871411 267.350876 
L 180.585327 267.350876 
L 180.585327 266.597203 
L 181.658012 266.597203 
L 181.658012 265.089856 
L 185.262174 265.089856 
L 185.262174 264.336183 
L 185.867668 264.336183 
L 185.867668 263.58251 
L 186.311281 263.58251 
L 186.311281 262.828837 
L 188.377434 262.828837 
L 188.377434 262.075163 
L 188.693269 262.075163 
L 188.723705 260.567817 
L 188.874715 260.567817 
L 188.874715 259.814144 
L 189.160868 259.814144 
L 189.160868 259.060471 
L 189.832523 259.060471 
L 189.832523 258.306797 
L 190.54971 258.306797 
L 190.54971 256.799451 
L 191.668491 256.799451 
L 191.668491 256.045778 
L 192.581186 256.045778 
L 192.581186 255.292105 
L 194.428054 255.292105 
L 194.52972 253.784758 
L 194.726826 253.784758 
L 194.726826 253.031085 
L 195.693495 253.031085 
L 195.693495 252.277412 
L 196.265638 252.277412 
L 196.265638 251.523739 
L 197.14701 251.523739 
L 197.172222 250.016392 
L 198.841832 250.016392 
L 198.841832 249.262719 
L 198.985741 249.262719 
L 198.99395 247.001699 
L 199.116185 247.001699 
L 199.116185 246.248026 
L 199.428666 246.248026 
L 199.486735 244.74068 
L 199.939179 244.74068 
L 199.939179 243.987007 
L 200.051623 243.987007 
L 200.051623 243.233333 
L 200.235348 243.233333 
L 200.235348 242.47966 
L 200.609904 242.47966 
L 200.687519 240.218641 
L 201.011864 240.218641 
L 201.011864 239.464967 
L 201.190877 239.464967 
L 201.190877 238.711294 
L 201.614174 238.711294 
L 201.632569 237.203948 
L 201.749157 237.203948 
L 201.749157 236.450275 
L 202.060971 236.450275 
L 202.164195 234.942928 
L 203.232379 234.942928 
L 203.232379 233.435582 
L 203.417031 233.435582 
L 203.417031 232.681908 
L 203.689152 232.681908 
L 203.689152 231.928235 
L 204.018116 231.928235 
L 204.018116 231.174562 
L 204.345074 231.174562 
L 204.345074 230.420889 
L 204.73826 230.420889 
L 204.797518 228.159869 
L 204.968296 228.159869 
L 204.968296 227.406196 
L 205.22152 227.406196 
L 205.22152 226.652523 
L 205.484328 226.652523 
L 205.561254 225.145176 
L 205.786408 225.145176 
L 205.786408 224.391503 
L 206.344688 224.391503 
L 206.344688 223.63783 
L 207.006119 223.63783 
L 207.006119 222.884157 
L 208.754281 222.884157 
L 208.754281 222.130484 
L 208.915376 222.130484 
L 209.00443 220.623137 
L 209.385047 220.623137 
L 209.385047 219.869464 
L 209.893535 219.869464 
L 209.893535 219.115791 
L 210.079859 219.115791 
L 210.079859 218.362118 
L 210.590372 218.362118 
L 210.590372 217.608444 
L 210.713341 217.608444 
L 210.713341 216.854771 
L 211.525137 216.854771 
L 211.525137 216.101098 
L 212.790414 216.101098 
L 212.790414 215.347425 
L 213.543838 215.347425 
L 213.543838 214.593752 
L 213.809511 214.593752 
L 213.809511 213.840078 
L 213.924178 213.840078 
L 213.929668 212.332732 
L 214.344203 212.332732 
L 214.344203 211.579059 
L 214.482949 211.579059 
L 214.489066 210.071712 
L 214.93268 210.071712 
L 214.93268 208.564366 
L 216.051461 208.564366 
L 216.051461 207.810693 
L 216.177771 207.810693 
L 216.177771 207.05702 
L 216.862489 207.05702 
L 216.964155 205.549673 
L 217.275117 205.549673 
L 217.275117 204.796 
L 217.420929 204.796 
L 217.420929 203.288654 
L 218.059636 203.288654 
L 218.059636 202.53498 
L 218.305913 202.53498 
L 218.305913 201.781307 
L 218.525199 201.781307 
L 218.564276 200.273961 
L 218.741204 200.273961 
L 218.741204 199.520288 
L 218.91269 199.520288 
L 218.91269 198.766614 
L 219.156846 198.766614 
L 219.169744 197.259268 
L 219.39691 197.259268 
L 219.39691 196.505595 
L 219.661623 196.505595 
L 219.661623 195.751922 
L 219.963755 195.751922 
L 219.963755 194.998248 
L 220.078768 194.998248 
L 220.078768 194.244575 
L 220.321612 194.244575 
L 220.321612 193.490902 
L 220.588648 193.490902 
L 220.588648 192.737229 
L 221.103009 192.737229 
L 221.103009 191.983556 
L 222.476375 191.983556 
L 222.586231 190.476209 
L 222.897192 190.476209 
L 222.897192 189.722536 
L 223.113667 189.722536 
L 223.17992 187.461516 
L 223.635338 187.461516 
L 223.635338 186.707843 
L 223.824412 186.707843 
L 223.824412 185.95417 
L 224.881738 185.95417 
L 224.954376 184.446824 
L 225.21437 184.446824 
L 225.21437 183.69315 
L 225.69854 183.69315 
L 225.69854 182.939477 
L 225.995728 182.939477 
L 226.020992 180.678458 
L 226.161455 180.678458 
L 226.161455 179.924784 
L 226.353624 179.924784 
L 226.443941 178.417438 
L 226.843623 178.417438 
L 226.843623 177.663765 
L 227.431408 177.663765 
L 227.431408 176.910092 
L 227.57572 176.910092 
L 227.615348 173.895399 
L 227.92631 173.895399 
L 228.024194 171.634379 
L 228.090302 171.634379 
L 228.090302 170.880706 
L 228.766952 170.880706 
L 228.766952 170.127033 
L 228.982674 170.127033 
L 228.982674 169.373359 
L 229.099379 169.373359 
L 229.180488 167.866013 
L 229.664267 167.866013 
L 229.664267 167.11234 
L 229.944224 167.11234 
L 230.053828 165.604993 
L 230.222548 165.604993 
L 230.222548 164.85132 
L 230.616523 164.85132 
L 230.616523 164.097647 
L 230.762181 164.097647 
L 230.762181 163.343974 
L 230.949155 163.343974 
L 230.949155 162.590301 
L 231.680141 162.590301 
L 231.716398 161.082954 
L 232.296053 161.082954 
L 232.296053 160.329281 
L 232.578408 160.329281 
L 232.578408 159.575608 
L 232.717844 159.575608 
L 232.717844 158.821935 
L 232.909927 158.821935 
L 232.909927 158.068261 
L 233.417207 158.068261 
L 233.417207 157.314588 
L 233.529917 157.314588 
L 233.529917 156.560915 
L 233.850173 156.560915 
L 233.957719 155.053569 
L 234.524379 155.053569 
L 234.604749 152.038876 
L 235.353682 152.038876 
L 235.353682 151.285203 
L 235.702096 151.285203 
L 235.702096 150.531529 
L 235.900215 150.531529 
L 235.900215 149.777856 
L 236.176745 149.777856 
L 236.176745 149.024183 
L 236.318007 149.024183 
L 236.318007 147.516837 
L 236.591546 147.516837 
L 236.688943 145.255817 
L 236.774781 145.255817 
L 236.774781 144.502144 
L 236.971887 144.502144 
L 236.971887 143.748471 
L 237.493772 143.748471 
L 237.493772 142.994797 
L 237.823888 142.994797 
L 237.823888 141.487451 
L 238.366926 141.487451 
L 238.366926 140.733778 
L 238.81766 140.733778 
L 238.821168 139.226431 
L 239.151992 139.226431 
L 239.151992 138.472758 
L 239.337722 138.472758 
L 239.382548 136.965412 
L 239.910197 136.965412 
L 239.940829 135.458065 
L 240.295297 135.458065 
L 240.295297 134.704392 
L 240.449605 134.704392 
L 240.449605 133.950719 
L 240.634687 133.950719 
L 240.634687 133.197046 
L 241.324171 133.197046 
L 241.324171 132.443373 
L 241.839909 132.443373 
L 241.839909 131.689699 
L 242.356124 131.689699 
L 242.403059 130.182353 
L 242.979163 130.182353 
L 242.979163 129.42868 
L 243.243049 129.42868 
L 243.281515 127.921333 
L 243.676 127.921333 
L 243.676 124.906641 
L 243.929223 124.906641 
L 244.028271 123.399294 
L 245.056568 123.399294 
L 245.138378 121.891948 
L 245.257517 121.891948 
L 245.257517 121.138275 
L 245.707476 121.138275 
L 245.707476 120.384601 
L 246.004875 120.384601 
L 246.069313 118.877255 
L 246.290247 118.877255 
L 246.353289 116.616235 
L 246.442492 116.616235 
L 246.484603 115.108889 
L 246.557282 115.108889 
L 246.557282 114.355216 
L 246.833016 114.355216 
L 246.833016 113.601542 
L 247.213357 113.601542 
L 247.213357 112.847869 
L 247.411171 112.847869 
L 247.411171 112.094196 
L 247.574694 112.094196 
L 247.65601 110.58685 
L 247.703396 110.58685 
L 247.703396 109.833176 
L 248.085207 109.833176 
L 248.085207 109.079503 
L 249.148555 109.079503 
L 249.148555 108.32583 
L 249.5764 108.32583 
L 249.5764 107.572157 
L 249.750519 107.572157 
L 249.750519 106.818484 
L 250.10712 106.818484 
L 250.151667 105.311137 
L 250.506557 105.311137 
L 250.544425 103.050118 
L 250.864373 103.050118 
L 250.864373 102.296444 
L 251.033993 102.296444 
L 251.033993 101.542771 
L 251.807005 101.542771 
L 251.807005 100.789098 
L 251.964363 100.789098 
L 251.964363 100.035425 
L 252.12134 100.035425 
L 252.12134 99.281752 
L 252.362287 99.281752 
L 252.473272 97.774405 
L 252.491103 97.774405 
L 252.491103 97.020732 
L 252.603812 97.020732 
L 252.603812 96.267059 
L 253.174083 96.267059 
L 253.174083 95.513386 
L 253.501827 95.513386 
L 253.501827 94.006039 
L 253.630356 94.006039 
L 253.71392 92.498693 
L 254.327193 92.498693 
L 254.327193 90.991346 
L 254.494382 90.991346 
L 254.599174 89.484 
L 254.735587 89.484 
L 254.827014 87.22298 
L 254.865788 87.22298 
L 254.865788 86.469307 
L 254.988624 86.469307 
L 254.988624 85.715634 
L 255.132824 85.715634 
L 255.132824 84.961961 
L 255.455874 84.961961 
L 255.455874 84.208288 
L 256.31043 84.208288 
L 256.358669 81.947268 
L 256.456267 81.947268 
L 256.456267 81.193595 
L 256.720966 81.193595 
L 256.784168 79.686248 
L 257.572088 79.686248 
L 257.595964 78.178902 
L 257.724096 78.178902 
L 257.724096 77.425229 
L 257.923808 77.425229 
L 257.923808 76.671556 
L 258.225888 76.671556 
L 258.225888 75.917882 
L 258.876584 75.917882 
L 258.876584 75.164209 
L 259.294681 75.164209 
L 259.294681 74.410536 
L 259.529569 74.410536 
L 259.529569 72.90319 
L 259.692063 72.90319 
L 259.736652 70.64217 
L 260.045601 70.64217 
L 260.045601 69.888497 
L 260.221249 69.888497 
L 260.221249 69.134824 
L 260.461716 69.134824 
L 260.539904 66.873804 
L 260.818689 66.873804 
L 260.818689 66.120131 
L 261.526343 66.120131 
L 261.561044 64.612784 
L 261.906683 64.612784 
L 261.970558 63.105438 
L 262.237593 63.105438 
L 262.237593 62.351765 
L 262.425635 62.351765 
L 262.425635 61.598092 
L 263.029852 61.598092 
L 263.029852 60.844418 
L 263.311128 60.844418 
L 263.311128 60.090745 
L 263.509579 60.090745 
L 263.564889 58.583399 
L 264.130463 58.583399 
L 264.212664 57.076052 
L 264.545296 57.076052 
L 264.545296 56.322379 
L 264.828866 56.322379 
L 264.844993 54.815033 
L 265.240571 54.815033 
L 265.250367 53.307686 
L 265.995555 53.307686 
L 265.995555 52.554013 
L 266.174548 52.554013 
L 266.174548 51.80034 
L 266.392439 51.80034 
L 266.392439 51.046667 
L 266.659475 51.046667 
L 266.659475 50.292993 
L 267.623054 50.292993 
L 267.690377 48.031974 
L 267.813558 48.031974 
L 267.813558 47.278301 
L 268.16042 47.278301 
L 268.16042 46.524627 
L 268.787724 46.524627 
L 268.787724 45.770954 
L 269.004198 45.770954 
L 269.004198 45.017281 
L 269.250747 45.017281 
L 269.250747 44.263608 
L 269.978121 44.263608 
L 269.978121 43.509935 
L 270.387845 43.509935 
L 270.415898 42.002588 
L 270.594033 42.002588 
L 270.594033 41.248915 
L 270.909516 41.248915 
L 270.909516 40.495242 
L 271.452554 40.495242 
L 271.452554 39.741569 
L 272.066555 39.741569 
L 272.066555 38.987895 
L 272.212238 38.987895 
L 272.212238 37.480549 
L 272.748133 37.480549 
L 272.748133 36.726876 
L 273.224271 36.726876 
L 273.224271 35.973203 
L 273.777377 35.973203 
L 273.777377 35.219529 
L 274.133489 35.219529 
L 274.160772 33.712183 
L 274.409799 33.712183 
L 274.409799 32.95851 
L 274.541113 32.95851 
L 274.541113 32.204837 
L 274.837779 32.204837 
L 274.837779 31.451163 
L 277.479423 31.451163 
L 277.479423 30.69749 
L 277.773662 30.69749 
L 277.773662 29.943817 
L 277.884797 29.943817 
L 277.884797 29.190144 
L 278.119041 29.190144 
L 278.119041 28.436471 
L 279.287745 28.436471 
L 279.287745 27.682797 
L 279.438917 27.682797 
L 279.438917 26.929124 
L 281.170835 26.929124 
L 281.216592 25.421778 
L 282.103747 25.421778 
L 282.103747 24.668105 
L 282.506884 24.668105 
L 282.506884 23.914431 
L 283.070514 23.914431 
L 283.070514 23.160758 
L 283.192748 23.160758 
L 283.192748 22.407085 
L 284.671448 22.407085 
L 284.671448 21.653412 
L 284.844685 21.653412 
L 284.844685 20.899739 
L 287.412821 20.899739 
L 287.412821 20.146065 
L 291.822028 20.146065 
L 291.822028 19.392392 
L 291.962212 19.392392 
L 292.03828 17.885046 
L 295.141314 17.885046 
L 295.141314 16.377699 
L 297.016119 16.377699 
L 297.070161 14.870353 
L 297.305878 14.870353 
L 297.305878 14.11668 
L 298.924082 14.11668 
L 298.924082 13.363007 
L 299.131165 13.363007 
L 299.131165 12.609333 
L 301.756561 12.609333 
L 301.756561 11.85566 
L 302.876809 11.85566 
L 302.876809 11.101987 
L 306.628117 11.101987 
L 306.628117 10.348314 
L 311.204669 10.348314 
L 311.204669 9.594641 
L 313.588006 9.594641 
L 313.588006 8.840967 
L 314.984734 8.840967 
L 314.984734 8.087294 
L 318.730378 8.087294 
L 318.730378 7.333621 
L 322.481686 7.333621 
L 322.481686 6.579948 
L 329.441574 6.579948 
L 329.441574 5.826275 
L 453.192 5.826275 
L 453.192 5.826275 
" clip-path="url(#pddad201f56)" style="fill: none; stroke: #000000; stroke-width: 3; stroke-linecap: square"/>
   </g>
   <g id="line2d_49">
    <path clip-path="url(#pddad201f56)" style="fill: none; stroke: #000000; stroke-width: 3; stroke-linecap: square"/>
   </g>
   <g id="line2d_50">
    <path d="M 34.16 288.453725 
L 98.757385 288.453725 
L 98.757385 287.700052 
L 99.610862 287.700052 
L 99.610862 286.946379 
L 100.330461 286.946379 
L 100.330461 286.192706 
L 102.61586 286.192706 
L 102.61586 285.439033 
L 106.815329 285.439033 
L 106.815329 284.685359 
L 107.668805 284.685359 
L 107.668805 283.931686 
L 108.388404 283.931686 
L 108.447601 282.42434 
L 110.673803 282.42434 
L 110.673803 281.670667 
L 116.505544 281.670667 
L 116.505544 280.916993 
L 118.519559 280.916993 
L 118.519559 280.16332 
L 126.577502 280.16332 
L 126.577502 279.409647 
L 136.748122 279.409647 
L 136.748122 278.655974 
L 141.01091 278.655974 
L 141.01091 277.902301 
L 156.409942 277.902301 
L 156.409942 277.148627 
L 157.445339 277.148627 
L 157.445339 276.394954 
L 158.298816 276.394954 
L 158.298816 275.641281 
L 158.478098 275.641281 
L 158.478098 274.887608 
L 159.018415 274.887608 
L 159.018415 274.133935 
L 159.53146 274.133935 
L 159.53146 273.380261 
L 159.74305 273.380261 
L 159.74305 272.626588 
L 160.233288 272.626588 
L 160.233288 271.872915 
L 161.303814 271.872915 
L 161.303814 271.119242 
L 161.630912 271.119242 
L 161.630912 270.365569 
L 162.239015 270.365569 
L 162.239015 269.611895 
L 165.8937 269.611895 
L 165.8937 268.858222 
L 167.135555 268.858222 
L 167.135555 268.104549 
L 169.03819 268.104549 
L 169.03819 267.350876 
L 172.282105 267.350876 
L 172.282105 266.597203 
L 176.544894 266.597203 
L 176.544894 265.843529 
L 177.207512 265.843529 
L 177.207512 265.089856 
L 180.984764 265.089856 
L 180.984764 264.336183 
L 184.414251 264.336183 
L 184.414251 263.58251 
L 185.247552 263.58251 
L 185.247552 262.828837 
L 186.270249 262.828837 
L 186.270249 262.075163 
L 187.91466 262.075163 
L 187.91466 261.32149 
L 192.177448 261.32149 
L 192.177448 260.567817 
L 193.920981 260.567817 
L 194.00617 259.060471 
L 195.065444 259.060471 
L 195.065444 258.306797 
L 196.799479 258.306797 
L 196.799479 257.553124 
L 197.875669 257.553124 
L 197.875669 256.799451 
L 198.437836 256.799451 
L 198.437836 256.045778 
L 198.99395 256.045778 
L 198.99395 255.292105 
L 199.83469 255.292105 
L 199.83469 254.538431 
L 202.064113 254.538431 
L 202.122665 253.031085 
L 202.711616 253.031085 
L 202.711616 252.277412 
L 203.256738 252.277412 
L 203.256738 251.523739 
L 203.698065 251.523739 
L 203.768102 250.016392 
L 204.572174 250.016392 
L 204.572174 249.262719 
L 204.857422 249.262719 
L 204.857422 248.509046 
L 205.933612 248.509046 
L 205.933612 247.755373 
L 206.495779 247.755373 
L 206.495779 247.001699 
L 207.892633 247.001699 
L 207.960853 245.494353 
L 209.518712 245.494353 
L 209.518712 244.74068 
L 210.180608 244.74068 
L 210.180608 243.987007 
L 210.45648 243.987007 
L 210.45648 243.233333 
L 210.697999 243.233333 
L 210.769559 241.725987 
L 211.15304 241.725987 
L 211.15304 240.972314 
L 212.257011 240.972314 
L 212.257011 240.218641 
L 212.512745 240.218641 
L 212.512745 239.464967 
L 213.274833 239.464967 
L 213.274833 238.711294 
L 214.194534 238.711294 
L 214.194534 237.957621 
L 214.541298 237.957621 
L 214.541298 237.203948 
L 214.719268 237.203948 
L 214.719268 236.450275 
L 215.696089 236.450275 
L 215.696089 235.696601 
L 215.861174 235.696601 
L 215.861174 234.942928 
L 216.578969 234.942928 
L 216.578969 234.189255 
L 216.721241 234.189255 
L 216.721241 233.435582 
L 216.863091 233.435582 
L 216.863091 232.681908 
L 217.835495 232.681908 
L 217.835495 231.928235 
L 218.259787 231.928235 
L 218.259787 231.174562 
L 218.457322 231.174562 
L 218.457322 230.420889 
L 218.718389 230.420889 
L 218.80596 228.913542 
L 219.285514 228.913542 
L 219.285514 228.159869 
L 220.204729 228.159869 
L 220.278888 226.652523 
L 220.32645 226.652523 
L 220.32645 225.89885 
L 220.546585 225.89885 
L 220.568317 224.391503 
L 220.802132 224.391503 
L 220.802132 223.63783 
L 221.068934 223.63783 
L 221.068934 222.884157 
L 221.428385 222.884157 
L 221.428385 222.130484 
L 221.767292 222.130484 
L 221.804233 219.869464 
L 222.307335 219.869464 
L 222.307335 219.115791 
L 222.620769 219.115791 
L 222.620769 218.362118 
L 222.972973 218.362118 
L 222.972973 217.608444 
L 223.340368 217.608444 
L 223.340368 216.854771 
L 223.514267 216.854771 
L 223.514267 216.101098 
L 224.039473 216.101098 
L 224.079234 213.840078 
L 224.804298 213.840078 
L 224.831106 212.332732 
L 225.586658 212.332732 
L 225.691173 210.071712 
L 225.743788 210.071712 
L 225.842172 208.564366 
L 226.481404 208.564366 
L 226.508299 207.05702 
L 226.666625 207.05702 
L 226.666625 206.303346 
L 227.050461 206.303346 
L 227.050461 205.549673 
L 227.246311 205.549673 
L 227.246311 204.796 
L 227.870945 204.796 
L 227.937323 203.288654 
L 227.98826 203.288654 
L 227.98826 202.53498 
L 228.950911 202.53498 
L 228.950911 201.781307 
L 229.190821 201.781307 
L 229.190821 201.027634 
L 229.385717 201.027634 
L 229.385717 200.273961 
L 229.691644 200.273961 
L 229.691644 199.520288 
L 229.810009 199.520288 
L 229.908616 198.012941 
L 230.050888 198.012941 
L 230.050888 197.259268 
L 230.192738 197.259268 
L 230.270787 194.998248 
L 230.493388 194.998248 
L 230.559445 192.737229 
L 230.816871 192.737229 
L 230.835736 191.229882 
L 230.988582 191.229882 
L 230.988582 190.476209 
L 231.130855 190.476209 
L 231.130855 189.722536 
L 231.272705 189.722536 
L 231.313249 187.461516 
L 231.457508 187.461516 
L 231.457508 186.707843 
L 231.83105 186.707843 
L 231.876672 185.200497 
L 232.096807 185.200497 
L 232.135607 183.69315 
L 232.251048 183.69315 
L 232.352355 181.432131 
L 232.561544 181.432131 
L 232.561544 180.678458 
L 232.713944 180.678458 
L 232.713944 179.924784 
L 233.215573 179.924784 
L 233.281069 177.663765 
L 233.608535 177.663765 
L 233.652324 176.156418 
L 233.810904 176.156418 
L 233.857557 173.895399 
L 234.316734 173.895399 
L 234.322005 172.388052 
L 234.523195 172.388052 
L 234.54214 170.880706 
L 234.688501 170.880706 
L 234.797687 169.373359 
L 235.407495 169.373359 
L 235.407495 168.619686 
L 235.589695 168.619686 
L 235.589695 167.866013 
L 235.988134 167.866013 
L 235.988134 167.11234 
L 236.30289 167.11234 
L 236.322461 165.604993 
L 236.551418 165.604993 
L 236.551418 164.85132 
L 236.968528 164.85132 
L 236.994248 162.590301 
L 237.29401 162.590301 
L 237.392394 161.082954 
L 237.408881 161.082954 
L 237.474973 158.821935 
L 237.660228 158.821935 
L 237.660228 158.068261 
L 238.035027 158.068261 
L 238.133946 156.560915 
L 238.3259 156.560915 
L 238.366926 155.053569 
L 238.488848 155.053569 
L 238.488848 154.299895 
L 239.133654 154.299895 
L 239.213912 152.792549 
L 239.557946 152.792549 
L 239.557946 152.038876 
L 239.728385 152.038876 
L 239.837727 149.777856 
L 240.016548 149.777856 
L 240.016548 149.024183 
L 240.55313 149.024183 
L 240.651212 146.763163 
L 240.814206 146.763163 
L 240.814206 146.00949 
L 240.993336 146.00949 
L 240.993336 145.255817 
L 241.26697 145.255817 
L 241.26697 144.502144 
L 241.483574 144.502144 
L 241.529466 142.994797 
L 241.624609 142.994797 
L 241.710268 140.733778 
L 241.844744 140.733778 
L 241.844744 139.980105 
L 241.971088 139.980105 
L 241.971088 139.226431 
L 242.100291 139.226431 
L 242.100291 138.472758 
L 242.346936 138.472758 
L 242.346936 137.719085 
L 242.626892 137.719085 
L 242.688883 136.211739 
L 242.746548 136.211739 
L 242.831155 134.704392 
L 242.973005 134.704392 
L 242.973005 133.950719 
L 243.351656 133.950719 
L 243.351656 133.197046 
L 243.471403 133.197046 
L 243.489302 131.689699 
L 243.605494 131.689699 
L 243.605494 130.936026 
L 243.889092 130.936026 
L 243.889092 130.182353 
L 244.211724 130.182353 
L 244.271132 128.675007 
L 244.32488 128.675007 
L 244.411873 127.16766 
L 244.612126 127.16766 
L 244.612126 126.413987 
L 244.915874 126.413987 
L 244.969058 124.906641 
L 245.044478 124.906641 
L 245.044478 124.152967 
L 245.337632 124.152967 
L 245.337632 123.399294 
L 245.620925 123.399294 
L 245.620925 122.645621 
L 245.959603 122.645621 
L 245.959603 121.891948 
L 246.383843 121.891948 
L 246.484603 119.630928 
L 247.041947 119.630928 
L 247.140331 118.123582 
L 247.328597 118.123582 
L 247.329877 116.616235 
L 248.306632 116.616235 
L 248.306632 115.862562 
L 248.516078 115.862562 
L 248.56832 114.355216 
L 248.737142 114.355216 
L 248.804269 112.847869 
L 249.308138 112.847869 
L 249.308138 112.094196 
L 249.463839 112.094196 
L 249.463839 111.340523 
L 249.817109 111.340523 
L 249.833799 109.833176 
L 250.189148 109.833176 
L 250.189148 109.079503 
L 250.636477 109.079503 
L 250.636477 108.32583 
L 250.771599 108.32583 
L 250.813519 106.06481 
L 250.914213 106.06481 
L 250.943676 104.557464 
L 251.367967 104.557464 
L 251.367967 103.803791 
L 251.82657 103.803791 
L 251.901428 101.542771 
L 252.016882 101.542771 
L 252.016882 100.789098 
L 252.391666 100.789098 
L 252.393695 99.281752 
L 252.694124 99.281752 
L 252.694124 98.528078 
L 252.858386 98.528078 
L 252.858386 97.774405 
L 253.161618 97.774405 
L 253.220193 96.267059 
L 253.434631 96.267059 
L 253.434631 95.513386 
L 253.654766 95.513386 
L 253.718454 94.006039 
L 253.910313 94.006039 
L 253.910313 93.252366 
L 254.047237 93.252366 
L 254.047237 92.498693 
L 254.397394 92.498693 
L 254.397394 91.74502 
L 255.415516 91.74502 
L 255.487433 90.237673 
L 256.081154 90.237673 
L 256.081154 89.484 
L 256.563623 89.484 
L 256.669359 87.976654 
L 257.12579 87.976654 
L 257.147653 86.469307 
L 258.522644 86.469307 
L 258.522644 85.715634 
L 258.851969 85.715634 
L 258.950352 84.208288 
L 259.334757 84.208288 
L 259.340529 82.700941 
L 259.978608 82.700941 
L 260.081066 81.193595 
L 260.278329 81.193595 
L 260.278329 80.439922 
L 260.658244 80.439922 
L 260.658244 79.686248 
L 260.810619 79.686248 
L 260.810619 78.932575 
L 261.39957 78.932575 
L 261.39957 78.178902 
L 261.517409 78.178902 
L 261.517409 77.425229 
L 261.73821 77.425229 
L 261.73821 76.671556 
L 262.365352 76.671556 
L 262.365352 75.917882 
L 263.233576 75.917882 
L 263.233576 75.164209 
L 263.584887 75.164209 
L 263.685228 73.656863 
L 263.716662 73.656863 
L 263.716662 72.90319 
L 264.403023 72.90319 
L 264.480153 71.395843 
L 264.545296 71.395843 
L 264.545296 70.64217 
L 264.687146 70.64217 
L 264.687146 69.888497 
L 266.630014 69.888497 
L 266.630014 69.134824 
L 268.102942 69.134824 
L 268.102942 68.38115 
L 268.841487 68.38115 
L 268.841487 67.627477 
L 270.090445 67.627477 
L 270.090445 66.873804 
L 270.950513 66.873804 
L 270.950513 66.120131 
L 271.903289 66.120131 
L 271.903289 65.366458 
L 272.628353 65.366458 
L 272.628353 64.612784 
L 273.438511 64.612784 
L 273.438511 63.859111 
L 273.986883 63.859111 
L 273.986883 63.105438 
L 275.761377 63.105438 
L 275.761377 62.351765 
L 276.572588 62.351765 
L 276.572588 61.598092 
L 276.867426 61.598092 
L 276.867426 60.844418 
L 277.510388 60.844418 
L 277.510388 60.090745 
L 278.383499 60.090745 
L 278.383499 59.337072 
L 278.935582 59.337072 
L 278.935582 58.583399 
L 280.200534 58.583399 
L 280.200534 57.829725 
L 280.690772 57.829725 
L 280.690772 57.076052 
L 282.696499 57.076052 
L 282.696499 56.322379 
L 283.23155 56.322379 
L 283.23155 55.568706 
L 285.035918 55.568706 
L 285.035918 54.815033 
L 285.299027 54.815033 
L 285.299027 54.061359 
L 286.073546 54.061359 
L 286.073546 53.307686 
L 286.928062 53.307686 
L 286.928062 52.554013 
L 291.218943 52.554013 
L 291.218943 51.80034 
L 292.340278 51.80034 
L 292.340278 51.046667 
L 295.152651 51.046667 
L 295.152651 50.292993 
L 297.013854 50.292993 
L 297.013854 49.53932 
L 314.636576 49.53932 
L 314.636576 48.785647 
L 317.016077 48.785647 
L 317.016077 48.031974 
L 318.495318 48.031974 
L 318.495318 47.278301 
L 318.695571 47.278301 
L 318.695571 46.524627 
L 319.809386 46.524627 
L 319.809386 45.770954 
L 320.885576 45.770954 
L 320.885576 45.017281 
L 321.447743 45.017281 
L 321.447743 44.263608 
L 321.803416 44.263608 
L 321.803416 43.509935 
L 322.390078 43.509935 
L 322.390078 42.756261 
L 322.844597 42.756261 
L 322.844597 42.002588 
L 323.391584 42.002588 
L 323.391584 41.248915 
L 323.547285 41.248915 
L 323.547285 40.495242 
L 324.896965 40.495242 
L 324.896965 39.741569 
L 325.132572 39.741569 
L 325.132572 38.987895 
L 325.662159 38.987895 
L 325.721523 37.480549 
L 325.862412 37.480549 
L 325.862412 36.726876 
L 326.100328 36.726876 
L 326.100328 35.973203 
L 329.556918 35.973203 
L 329.556918 35.219529 
L 330.558424 35.219529 
L 330.558424 34.465856 
L 330.714126 34.465856 
L 330.714126 33.712183 
L 332.063805 33.712183 
L 332.063805 32.95851 
L 332.711509 32.95851 
L 332.711509 32.204837 
L 333.267168 32.204837 
L 333.267168 31.451163 
L 336.570251 31.451163 
L 336.570251 30.69749 
L 336.770504 30.69749 
L 336.770504 29.943817 
L 338.720188 29.943817 
L 338.720188 29.190144 
L 340.46501 29.190144 
L 340.46501 28.436471 
L 341.466516 28.436471 
L 341.513496 26.929124 
L 341.622218 26.929124 
L 341.622218 26.175451 
L 342.589687 26.175451 
L 342.589687 25.421778 
L 342.971898 25.421778 
L 342.971898 24.668105 
L 343.151853 24.668105 
L 343.151853 23.914431 
L 344.17526 23.914431 
L 344.17526 23.160758 
L 344.548707 23.160758 
L 344.548707 22.407085 
L 346.836683 22.407085 
L 346.836683 21.653412 
L 347.425634 21.653412 
L 347.425634 20.899739 
L 356.662231 20.899739 
L 356.662231 20.146065 
L 359.119364 20.146065 
L 359.119364 19.392392 
L 361.010614 19.392392 
L 361.011508 17.885046 
L 361.335807 17.885046 
L 361.335807 17.131373 
L 364.869357 17.131373 
L 364.869357 16.377699 
L 365.06961 16.377699 
L 365.06961 15.624026 
L 366.286204 15.624026 
L 366.286204 14.870353 
L 368.178348 14.870353 
L 368.178348 14.11668 
L 368.764116 14.11668 
L 368.764116 13.363007 
L 369.765622 13.363007 
L 369.765622 12.609333 
L 369.921323 12.609333 
L 369.921323 11.85566 
L 371.271003 11.85566 
L 371.271003 11.101987 
L 372.474366 11.101987 
L 372.474366 10.348314 
L 377.194296 10.348314 
L 377.194296 9.594641 
L 378.366342 9.594641 
L 378.366342 8.840967 
L 379.08644 8.840967 
L 379.08644 8.087294 
L 383.039917 8.087294 
L 383.039917 7.333621 
L 405.493402 7.333621 
L 405.493402 6.579948 
L 407.385546 6.579948 
L 407.385546 5.826275 
L 453.192 5.826275 
L 453.192 5.826275 
" clip-path="url(#pddad201f56)" style="fill: none; stroke: #00bfbf; stroke-width: 3; stroke-linecap: square"/>
   </g>
   <g id="line2d_51">
    <path clip-path="url(#pddad201f56)" style="fill: none; stroke: #00bfbf; stroke-width: 3; stroke-linecap: square"/>
   </g>
   <g id="line2d_52">
    <path d="M 34.16 280.950342 
L 136.748122 280.950342 
L 136.748122 280.116633 
L 141.01091 280.116633 
L 141.01091 279.282923 
L 159.53146 279.282923 
L 159.53146 278.449214 
L 161.630912 278.449214 
L 161.630912 277.615505 
L 165.8937 277.615505 
L 165.8937 276.781795 
L 166.388711 276.781795 
L 166.388711 275.948086 
L 167.607729 275.948086 
L 167.607729 275.114377 
L 168.689408 275.114377 
L 168.689408 274.280667 
L 169.03819 274.280667 
L 169.03819 273.446958 
L 169.908425 273.446958 
L 169.908425 272.613249 
L 172.282105 272.613249 
L 172.282105 271.77954 
L 176.544894 271.77954 
L 176.544894 270.94583 
L 180.984764 270.94583 
L 180.984764 270.112121 
L 184.414251 270.112121 
L 184.414251 269.278412 
L 185.247552 269.278412 
L 185.247552 268.444702 
L 186.270249 268.444702 
L 186.270249 267.610993 
L 187.91466 267.610993 
L 187.91466 266.777284 
L 192.177448 266.777284 
L 192.177448 265.943575 
L 193.920981 265.943575 
L 193.920981 265.109865 
L 195.065444 265.109865 
L 195.065444 264.276156 
L 198.99395 264.276156 
L 198.99395 263.442447 
L 201.002173 263.442447 
L 201.002173 262.608737 
L 202.22119 262.608737 
L 202.22119 261.775028 
L 202.714394 261.775028 
L 202.815261 260.107609 
L 203.256738 260.107609 
L 203.256738 259.2739 
L 203.698065 259.2739 
L 203.768102 257.606482 
L 204.572174 257.606482 
L 204.572174 256.772772 
L 204.950321 256.772772 
L 204.950321 255.939063 
L 205.864856 255.939063 
L 205.864856 255.105354 
L 206.782011 255.105354 
L 206.782011 254.271644 
L 207.713057 254.271644 
L 207.713057 253.437935 
L 207.960853 253.437935 
L 207.960853 252.604226 
L 208.165552 252.604226 
L 208.165552 251.770517 
L 208.42758 251.770517 
L 208.42758 250.936807 
L 209.082707 250.936807 
L 209.130549 249.269389 
L 209.793 249.269389 
L 209.793 248.435679 
L 210.45648 248.435679 
L 210.45648 247.60197 
L 210.697999 247.60197 
L 210.728276 245.100842 
L 211.019752 245.100842 
L 211.019752 244.267133 
L 211.15304 244.267133 
L 211.15304 243.433424 
L 213.1787 243.433424 
L 213.274833 241.766005 
L 213.31469 241.766005 
L 213.31469 240.932296 
L 214.122594 240.932296 
L 214.194534 239.264877 
L 214.719268 239.264877 
L 214.719268 238.431168 
L 215.085178 238.431168 
L 215.085178 237.597458 
L 215.827506 237.597458 
L 215.827506 236.763749 
L 216.340074 236.763749 
L 216.340074 235.93004 
L 216.594309 235.93004 
L 216.594309 235.096331 
L 216.847197 235.096331 
L 216.847197 234.262621 
L 217.385875 234.262621 
L 217.385875 233.428912 
L 217.610434 233.428912 
L 217.610434 232.595203 
L 218.457322 232.595203 
L 218.457322 231.761493 
L 218.904616 231.761493 
L 218.904616 230.927784 
L 219.259129 230.927784 
L 219.259129 230.094075 
L 219.846362 230.094075 
L 219.846362 229.260366 
L 220.204729 229.260366 
L 220.204729 228.426656 
L 220.568317 228.426656 
L 220.568317 227.592947 
L 220.779261 227.592947 
L 220.779261 226.759238 
L 221.140544 226.759238 
L 221.140544 225.925528 
L 221.428385 225.925528 
L 221.495057 224.25811 
L 221.777289 224.25811 
L 221.804233 222.590691 
L 222.378106 222.590691 
L 222.378106 221.756982 
L 222.602203 221.756982 
L 222.602203 220.923273 
L 223.036575 220.923273 
L 223.036575 220.089563 
L 224.02659 220.089563 
L 224.02659 219.255854 
L 224.689041 219.255854 
L 224.689041 218.422145 
L 224.831106 218.422145 
L 224.831106 217.588435 
L 225.320772 217.588435 
L 225.320772 216.754726 
L 225.675285 216.754726 
L 225.691173 215.087308 
L 225.915793 215.087308 
L 225.983222 213.419889 
L 226.337736 213.419889 
L 226.337736 212.58618 
L 226.473045 212.58618 
L 226.520897 210.085052 
L 227.050461 210.085052 
L 227.050461 209.251342 
L 227.209975 209.251342 
L 227.209975 208.417633 
L 227.564488 208.417633 
L 227.610898 206.750215 
L 227.735363 206.750215 
L 227.735363 205.916505 
L 227.98826 205.916505 
L 228.074741 204.249087 
L 228.210731 204.249087 
L 228.210731 203.415377 
L 229.018634 203.415377 
L 229.128264 201.747959 
L 229.324555 201.747959 
L 229.368923 200.08054 
L 229.504913 200.08054 
L 229.564417 198.413122 
L 229.723436 198.413122 
L 229.723436 197.579412 
L 229.859426 197.579412 
L 229.859426 196.745703 
L 230.158852 196.745703 
L 230.158852 195.911994 
L 230.312816 195.911994 
L 230.312816 195.078284 
L 230.506892 195.078284 
L 230.506892 194.244575 
L 230.667329 194.244575 
L 230.723547 192.577157 
L 230.833423 192.577157 
L 230.833423 190.909738 
L 231.047367 190.909738 
L 231.095219 189.242319 
L 231.171833 189.242319 
L 231.236115 186.741192 
L 231.284019 186.741192 
L 231.313249 185.073773 
L 231.49035 185.073773 
L 231.49035 184.240064 
L 231.743238 184.240064 
L 231.743238 183.406354 
L 231.898989 183.406354 
L 231.898989 182.572645 
L 232.017728 182.572645 
L 232.017728 181.738936 
L 232.251048 181.738936 
L 232.251048 180.905226 
L 232.372242 180.905226 
L 232.372242 180.071517 
L 232.530297 180.071517 
L 232.530297 179.237808 
L 232.761025 179.237808 
L 232.808877 176.73668 
L 232.88481 176.73668 
L 232.88481 175.902971 
L 233.000887 175.902971 
L 233.048739 173.401843 
L 233.139045 173.401843 
L 233.239818 171.734424 
L 233.391933 171.734424 
L 233.391933 170.900715 
L 233.54889 170.900715 
L 233.643173 168.399587 
L 233.702587 168.399587 
L 233.769995 166.732168 
L 233.827052 166.732168 
L 233.827052 165.898459 
L 234.269893 165.898459 
L 234.317745 162.563622 
L 234.395736 162.563622 
L 234.395736 161.729913 
L 234.557633 161.729913 
L 234.557633 160.896203 
L 235.335458 160.896203 
L 235.416244 158.395075 
L 235.656106 158.395075 
L 235.675302 156.727657 
L 235.964363 156.727657 
L 235.988134 155.060238 
L 236.250541 155.060238 
L 236.250541 154.226529 
L 236.406936 154.226529 
L 236.406936 153.39282 
L 236.551418 153.39282 
L 236.551418 152.55911 
L 236.925112 152.55911 
L 236.977872 149.224273 
L 237.206464 149.224273 
L 237.274147 146.723145 
L 237.323997 146.723145 
L 237.323997 145.889436 
L 237.436788 145.889436 
L 237.53372 143.388308 
L 237.832205 143.388308 
L 237.880057 141.72089 
L 237.990678 141.72089 
L 238.041954 139.219762 
L 238.123213 139.219762 
L 238.123213 138.386052 
L 238.247678 138.386052 
L 238.247678 137.552343 
L 238.568329 137.552343 
L 238.568329 136.718634 
L 238.792425 136.718634 
L 238.792425 135.884925 
L 238.922842 135.884925 
L 238.922842 135.051215 
L 239.146939 135.051215 
L 239.146939 134.217506 
L 239.400832 134.217506 
L 239.448684 132.550087 
L 239.83687 132.550087 
L 239.891257 129.21525 
L 240.076732 129.21525 
L 240.076732 128.381541 
L 240.478317 128.381541 
L 240.487425 126.714122 
L 240.649321 126.714122 
L 240.671167 125.046704 
L 240.814206 125.046704 
L 240.814206 124.212994 
L 240.97019 124.212994 
L 241.018042 122.545576 
L 241.345738 122.545576 
L 241.395472 120.044448 
L 241.696815 120.044448 
L 241.696815 119.210739 
L 242.056052 119.210739 
L 242.056052 118.377029 
L 242.411304 118.377029 
L 242.498625 116.709611 
L 242.746548 116.709611 
L 242.746548 115.875901 
L 243.041041 115.875901 
L 243.041041 115.042192 
L 243.222069 115.042192 
L 243.222069 114.208483 
L 243.351656 114.208483 
L 243.351656 113.374774 
L 243.625409 113.374774 
L 243.625409 112.541064 
L 244.211724 112.541064 
L 244.28231 110.873646 
L 244.908051 110.873646 
L 244.908051 110.039936 
L 245.069947 110.039936 
L 245.069947 109.206227 
L 245.522765 109.206227 
L 245.522765 108.372518 
L 245.959603 108.372518 
L 245.959603 107.538808 
L 246.476677 107.538808 
L 246.484603 105.87139 
L 246.919251 105.87139 
L 246.919251 105.037681 
L 248.022345 105.037681 
L 248.046035 103.370262 
L 248.516078 103.370262 
L 248.516078 102.536553 
L 249.698639 102.536553 
L 249.698639 101.702843 
L 249.833799 101.702843 
L 249.833799 100.869134 
L 250.258273 100.869134 
L 250.258273 100.035425 
L 250.771599 100.035425 
L 250.771599 99.201716 
L 252.858386 99.201716 
L 252.858386 98.368006 
L 253.220193 98.368006 
L 253.220193 97.534297 
L 253.718454 97.534297 
L 253.718454 96.700588 
L 254.438501 96.700588 
L 254.438501 95.866878 
L 255.100952 95.866878 
L 255.100952 95.033169 
L 256.327704 95.033169 
L 256.327704 94.19946 
L 258.486652 94.19946 
L 258.486652 93.36575 
L 258.622642 93.36575 
L 258.622642 92.532041 
L 259.334757 92.532041 
L 259.430545 90.030913 
L 259.978608 90.030913 
L 259.978608 89.197204 
L 260.278329 89.197204 
L 260.278329 88.363495 
L 261.135457 88.363495 
L 261.135457 87.529785 
L 261.648026 87.529785 
L 261.648026 86.696076 
L 261.902261 86.696076 
L 261.902261 85.862367 
L 262.155149 85.862367 
L 262.155149 85.028658 
L 263.716662 85.028658 
L 263.716662 84.194948 
L 264.480153 84.194948 
L 264.480153 83.361239 
L 266.087213 83.361239 
L 266.087213 82.52753 
L 267.686058 82.52753 
L 267.686058 81.69382 
L 267.910154 81.69382 
L 267.910154 80.860111 
L 268.841487 80.860111 
L 268.841487 80.026402 
L 270.090445 80.026402 
L 270.090445 79.192692 
L 270.950513 79.192692 
L 270.950513 78.358983 
L 273.692109 78.358983 
L 273.708864 76.691565 
L 273.986883 76.691565 
L 273.986883 75.857855 
L 275.992805 75.857855 
L 276.00956 74.190437 
L 276.572588 74.190437 
L 276.572588 73.356727 
L 277.510388 73.356727 
L 277.510388 72.523018 
L 277.83553 72.523018 
L 277.83553 71.689309 
L 286.073546 71.689309 
L 286.073546 70.8556 
L 291.218943 70.8556 
L 291.218943 70.02189 
L 308.30557 70.02189 
L 308.322325 68.354472 
L 319.400427 68.354472 
L 319.400427 67.520762 
L 320.619445 67.520762 
L 320.619445 66.687053 
L 325.4731 66.687053 
L 325.4731 65.853344 
L 327.143606 65.853344 
L 327.143606 65.019634 
L 328.362624 65.019634 
L 328.362624 64.185925 
L 330.370895 64.185925 
L 330.370895 63.352216 
L 333.359947 63.352216 
L 333.359947 62.518507 
L 358.876571 62.518507 
L 358.876571 61.684797 
L 359.793726 61.684797 
L 359.793726 60.851088 
L 361.439296 60.851088 
L 361.439296 60.017379 
L 366.619751 60.017379 
L 366.619751 59.183669 
L 367.536906 59.183669 
L 367.536906 58.34996 
L 368.096894 58.34996 
L 368.096894 57.516251 
L 369.182475 57.516251 
L 369.182475 56.682542 
L 375.840073 56.682542 
L 375.840073 55.848832 
L 396.233784 55.848832 
L 396.233784 55.015123 
L 403.976964 55.015123 
L 403.976964 54.181414 
L 426.703825 54.181414 
L 426.720579 52.513995 
L 434.447004 52.513995 
L 434.463759 50.846576 
L 453.192 50.846576 
L 453.192 50.846576 
" clip-path="url(#pddad201f56)" style="fill: none; stroke: #bf00bf; stroke-width: 3; stroke-linecap: square"/>
   </g>
   <g id="line2d_53">
    <path clip-path="url(#pddad201f56)" style="fill: none; stroke: #bf00bf; stroke-width: 3; stroke-linecap: square"/>
   </g>
   <g id="line2d_54">
    <path d="M 34.16 280.950342 
L 136.748122 280.950342 
L 136.748122 280.116633 
L 141.01091 280.116633 
L 141.01091 279.282923 
L 159.53146 279.282923 
L 159.53146 278.449214 
L 161.630912 278.449214 
L 161.630912 277.615505 
L 165.8937 277.615505 
L 165.8937 276.781795 
L 168.631083 276.781795 
L 168.652878 275.114377 
L 169.03819 275.114377 
L 169.03819 274.280667 
L 172.101164 274.280667 
L 172.122959 272.613249 
L 172.282105 272.613249 
L 172.282105 271.77954 
L 176.544894 271.77954 
L 176.544894 270.94583 
L 180.984764 270.94583 
L 180.984764 270.112121 
L 184.414251 270.112121 
L 184.414251 269.278412 
L 185.247552 269.278412 
L 185.247552 268.444702 
L 186.270249 268.444702 
L 186.270249 267.610993 
L 187.91466 267.610993 
L 187.91466 266.777284 
L 192.177448 266.777284 
L 192.177448 265.943575 
L 193.920981 265.943575 
L 193.920981 265.109865 
L 195.065444 265.109865 
L 195.065444 264.276156 
L 198.99395 264.276156 
L 198.99395 263.442447 
L 201.462242 263.442447 
L 201.462242 262.608737 
L 202.348082 262.608737 
L 202.369876 260.941319 
L 203.256738 260.941319 
L 203.256738 260.107609 
L 203.698065 260.107609 
L 203.768102 258.440191 
L 204.572174 258.440191 
L 204.572174 257.606482 
L 206.044421 257.606482 
L 206.044421 256.772772 
L 206.51003 256.772772 
L 206.51003 255.939063 
L 207.082316 255.939063 
L 207.082316 255.105354 
L 207.960853 255.105354 
L 207.960853 254.271644 
L 208.600687 254.271644 
L 208.600687 253.437935 
L 209.514501 253.437935 
L 209.514501 252.604226 
L 209.98011 252.604226 
L 209.98011 251.770517 
L 210.45648 251.770517 
L 210.552397 250.103098 
L 210.580538 250.103098 
L 210.580538 249.269389 
L 210.697999 249.269389 
L 210.697999 248.435679 
L 211.15304 248.435679 
L 211.15304 247.60197 
L 212.673861 247.60197 
L 212.673861 246.768261 
L 213.274833 246.768261 
L 213.274833 245.934551 
L 214.194534 245.934551 
L 214.194534 245.100842 
L 214.719268 245.100842 
L 214.719268 244.267133 
L 215.996648 244.267133 
L 215.996648 243.433424 
L 216.143941 243.433424 
L 216.143941 242.599714 
L 218.114391 242.599714 
L 218.114391 241.766005 
L 218.457322 241.766005 
L 218.514563 240.098586 
L 218.890411 240.098586 
L 218.890411 239.264877 
L 220.204729 239.264877 
L 220.204729 238.431168 
L 220.568317 238.431168 
L 220.632306 236.763749 
L 220.726502 236.763749 
L 220.726502 235.93004 
L 221.008154 235.93004 
L 221.008154 235.096331 
L 221.192538 235.096331 
L 221.192538 234.262621 
L 221.428385 234.262621 
L 221.512533 232.595203 
L 221.777289 232.595203 
L 221.804233 230.927784 
L 222.146159 230.927784 
L 222.146159 229.260366 
L 222.844245 229.260366 
L 222.844245 228.426656 
L 223.310281 228.426656 
L 223.310281 227.592947 
L 223.456815 227.592947 
L 223.456815 226.759238 
L 223.630276 226.759238 
L 223.630276 225.925528 
L 224.199486 225.925528 
L 224.263902 223.4244 
L 224.674985 223.4244 
L 224.674985 222.590691 
L 224.831106 222.590691 
L 224.831106 221.756982 
L 225.043559 221.756982 
L 225.128291 220.089563 
L 225.455676 220.089563 
L 225.455676 219.255854 
L 225.574558 219.255854 
L 225.574558 218.422145 
L 225.691173 218.422145 
L 225.691173 217.588435 
L 226.022721 217.588435 
L 226.071587 215.921017 
L 226.253435 215.921017 
L 226.335685 213.419889 
L 226.481404 213.419889 
L 226.481404 212.58618 
L 227.001677 212.58618 
L 227.050461 210.918761 
L 227.246034 210.918761 
L 227.318234 209.251342 
L 227.561474 209.251342 
L 227.573419 207.583924 
L 227.867203 207.583924 
L 227.937323 205.082796 
L 227.98826 205.082796 
L 227.98826 204.249087 
L 228.18933 204.249087 
L 228.18933 203.415377 
L 228.540636 203.415377 
L 228.550531 201.747959 
L 228.662377 201.747959 
L 228.662377 200.91425 
L 228.896683 200.91425 
L 228.916485 199.246831 
L 229.157634 199.246831 
L 229.248697 197.579412 
L 229.511133 197.579412 
L 229.527903 195.911994 
L 229.644925 195.911994 
L 229.644925 195.078284 
L 229.759094 195.078284 
L 229.773413 193.410866 
L 230.239449 193.410866 
L 230.239449 192.577157 
L 230.506892 192.577157 
L 230.559445 190.076029 
L 230.668274 190.076029 
L 230.778622 187.574901 
L 230.818334 187.574901 
L 230.818334 186.741192 
L 230.969647 186.741192 
L 231.039971 185.073773 
L 231.171833 185.073773 
L 231.218611 180.905226 
L 231.284019 180.905226 
L 231.36644 178.404099 
L 231.419794 178.404099 
L 231.419794 177.570389 
L 231.538607 177.570389 
L 231.618511 175.902971 
L 231.800883 175.902971 
L 231.800883 175.069261 
L 231.914926 175.069261 
L 231.914926 173.401843 
L 232.154381 173.401843 
L 232.251048 169.233296 
L 232.402343 169.233296 
L 232.503727 165.898459 
L 232.548096 165.898459 
L 232.61842 164.231041 
L 233.239818 164.231041 
L 233.296338 160.896203 
L 233.366662 160.896203 
L 233.421871 159.228785 
L 233.482889 159.228785 
L 233.575626 156.727657 
L 233.731855 156.727657 
L 233.731855 155.893948 
L 233.870211 155.893948 
L 233.920949 154.226529 
L 234.065596 154.226529 
L 234.175203 150.891692 
L 234.225559 150.891692 
L 234.26176 147.556855 
L 234.502587 147.556855 
L 234.558174 145.055727 
L 234.85276 145.055727 
L 234.85276 144.222017 
L 235.048145 144.222017 
L 235.154365 141.72089 
L 235.452296 141.72089 
L 235.52262 139.219762 
L 235.581649 139.219762 
L 235.581649 138.386052 
L 235.805794 138.386052 
L 235.876118 136.718634 
L 235.920445 136.718634 
L 235.988134 134.217506 
L 236.053756 134.217506 
L 236.12408 131.716378 
L 236.40983 131.716378 
L 236.40983 130.882669 
L 236.551418 130.882669 
L 236.564198 129.21525 
L 236.729825 129.21525 
L 236.729825 128.381541 
L 236.902994 128.381541 
L 236.977872 126.714122 
L 237.073283 126.714122 
L 237.143608 125.046704 
L 237.363451 125.046704 
L 237.436788 122.545576 
L 237.597442 122.545576 
L 237.597442 121.711867 
L 237.913173 121.711867 
L 237.983497 120.044448 
L 238.209587 120.044448 
L 238.295609 115.875901 
L 238.504172 115.875901 
L 238.576604 113.374774 
L 238.674107 113.374774 
L 238.769881 110.873646 
L 239.27477 110.873646 
L 239.27477 110.039936 
L 239.416777 110.039936 
L 239.416777 109.206227 
L 239.761419 109.206227 
L 239.761419 108.372518 
L 240.215611 108.372518 
L 240.285935 105.87139 
L 240.345583 105.87139 
L 240.345583 105.037681 
L 240.554407 105.037681 
L 240.624731 103.370262 
L 240.672968 103.370262 
L 240.672968 102.536553 
L 240.799315 102.536553 
L 240.814206 100.869134 
L 241.288879 100.869134 
L 241.288879 100.035425 
L 241.696815 100.035425 
L 241.696815 99.201716 
L 241.98374 99.201716 
L 241.98374 98.368006 
L 242.746548 98.368006 
L 242.746548 97.534297 
L 243.351656 97.534297 
L 243.351656 96.700588 
L 243.767823 96.700588 
L 243.767823 95.866878 
L 244.211724 95.866878 
L 244.211724 95.033169 
L 244.465989 95.033169 
L 244.465989 94.19946 
L 245.453821 94.19946 
L 245.453821 93.36575 
L 245.959603 93.36575 
L 245.959603 92.532041 
L 246.390859 92.532041 
L 246.484603 90.864623 
L 248.516078 90.864623 
L 248.516078 90.030913 
L 249.833799 90.030913 
L 249.833799 89.197204 
L 250.771599 89.197204 
L 250.771599 88.363495 
L 252.858386 88.363495 
L 252.858386 87.529785 
L 253.220193 87.529785 
L 253.220193 86.696076 
L 253.718454 86.696076 
L 253.718454 85.862367 
L 259.334757 85.862367 
L 259.340529 84.194948 
L 259.978608 84.194948 
L 259.978608 83.361239 
L 260.278329 83.361239 
L 260.278329 82.52753 
L 263.716662 82.52753 
L 263.716662 81.69382 
L 264.480153 81.69382 
L 264.480153 80.860111 
L 268.841487 80.860111 
L 268.841487 80.026402 
L 270.090445 80.026402 
L 270.090445 79.192692 
L 270.950513 79.192692 
L 270.950513 78.358983 
L 271.106846 78.358983 
L 271.106846 77.525274 
L 271.644839 77.525274 
L 271.644839 76.691565 
L 273.986883 76.691565 
L 273.986883 75.857855 
L 274.576927 75.857855 
L 274.576927 75.024146 
L 275.11492 75.024146 
L 275.11492 74.190437 
L 275.700739 74.190437 
L 275.700739 73.356727 
L 276.572588 73.356727 
L 276.572588 72.523018 
L 277.510388 72.523018 
L 277.510388 71.689309 
L 286.073546 71.689309 
L 286.073546 70.8556 
L 291.218943 70.8556 
L 291.218943 70.02189 
L 300.12697 70.02189 
L 300.12697 69.188181 
L 303.948885 69.188181 
L 303.970679 67.520762 
L 304.823845 67.520762 
L 304.823845 66.687053 
L 305.361838 66.687053 
L 305.361838 65.853344 
L 307.265415 65.853344 
L 307.265415 65.019634 
L 308.505982 65.019634 
L 308.527777 63.352216 
L 309.245266 63.352216 
L 309.245266 62.518507 
L 341.362222 62.518507 
L 341.362222 61.684797 
L 341.827831 61.684797 
L 341.827831 60.851088 
L 342.400118 60.851088 
L 342.400118 60.017379 
L 345.919319 60.017379 
L 345.919319 59.183669 
L 346.384928 59.183669 
L 346.384928 58.34996 
L 346.957215 58.34996 
L 346.957215 57.516251 
L 347.991662 57.516251 
L 347.991662 56.682542 
L 352.548759 56.682542 
L 352.548759 55.848832 
L 377.301542 55.848832 
L 377.301542 55.015123 
L 381.858639 55.015123 
L 381.858639 54.181414 
L 406.424647 54.181414 
L 406.424647 53.347704 
L 406.962641 53.347704 
L 406.962641 52.513995 
L 410.981745 52.513995 
L 410.981745 51.680286 
L 411.519738 51.680286 
L 411.519738 50.846576 
L 453.192 50.846576 
L 453.192 50.846576 
" clip-path="url(#pddad201f56)" style="fill: none; stroke: #ff0000; stroke-width: 3; stroke-linecap: square"/>
   </g>
   <g id="line2d_55">
    <path clip-path="url(#pddad201f56)" style="fill: none; stroke: #ff0000; stroke-width: 3; stroke-linecap: square"/>
   </g>
   <g id="line2d_56">
    <path d="M 243.676 291.28 
L 243.676 3 
" clip-path="url(#pddad201f56)" style="fill: none; stroke: #000000; stroke-width: 1.5; stroke-linecap: square"/>
   </g>
   <g id="line2d_57">
    <path d="M 34.16 147.14 
L 453.192 147.14 
" clip-path="url(#pddad201f56)" style="fill: none; stroke-dasharray: 2,3.3; stroke-dashoffset: 0; stroke: #000000; stroke-width: 2"/>
   </g>
   <g id="patch_3">
    <path d="M 34.16 291.28 
L 34.16 3 
" style="fill: none; stroke: #000000; stroke-width: 0.8; stroke-linejoin: miter; stroke-linecap: square"/>
   </g>
   <g id="patch_4">
    <path d="M 453.192 291.28 
L 453.192 3 
" style="fill: none; stroke: #000000; stroke-width: 0.8; stroke-linejoin: miter; stroke-linecap: square"/>
   </g>
   <g id="patch_5">
    <path d="M 34.16 291.28 
L 453.192 291.28 
" style="fill: none; stroke: #000000; stroke-width: 0.8; stroke-linejoin: miter; stroke-linecap: square"/>
   </g>
   <g id="patch_6">
    <path d="M 34.16 3 
L 453.192 3 
" style="fill: none; stroke: #000000; stroke-width: 0.8; stroke-linejoin: miter; stroke-linecap: square"/>
   </g>
   <g id="text_6">
    <!-- f1-f5,10-D -->
    <g transform="translate(343.64261 285.5144) scale(0.2 -0.2)">
     <defs>
      <path id="DejaVuSans-35" d="M 691 4666 
L 3169 4666 
L 3169 4134 
L 1269 4134 
L 1269 2991 
Q 1406 3038 1543 3061 
Q 1681 3084 1819 3084 
Q 2600 3084 3056 2656 
Q 3513 2228 3513 1497 
Q 3513 744 3044 326 
Q 2575 -91 1722 -91 
Q 1428 -91 1123 -41 
Q 819 9 494 109 
L 494 744 
Q 775 591 1075 516 
Q 1375 441 1709 441 
Q 2250 441 2565 725 
Q 2881 1009 2881 1497 
Q 2881 1984 2565 2268 
Q 2250 2553 1709 2553 
Q 1456 2553 1204 2497 
Q 953 2441 691 2322 
L 691 4666 
z
" transform="scale(0.015625)"/>
      <path id="DejaVuSans-2c" d="M 750 794 
L 1409 794 
L 1409 256 
L 897 -744 
L 494 -744 
L 750 256 
L 750 794 
z
" transform="scale(0.015625)"/>
      <path id="DejaVuSans-44" d="M 1259 4147 
L 1259 519 
L 2022 519 
Q 2988 519 3436 956 
Q 3884 1394 3884 2338 
Q 3884 3275 3436 3711 
Q 2988 4147 2022 4147 
L 1259 4147 
z
M 628 4666 
L 1925 4666 
Q 3281 4666 3915 4102 
Q 4550 3538 4550 2338 
Q 4550 1131 3912 565 
Q 3275 0 1925 0 
L 628 0 
L 628 4666 
z
" transform="scale(0.015625)"/>
     </defs>
     <use xlink:href="#DejaVuSans-66"/>
     <use xlink:href="#DejaVuSans-31" x="35.205078"/>
     <use xlink:href="#DejaVuSans-2d" x="98.828125"/>
     <use xlink:href="#DejaVuSans-66" x="134.912109"/>
     <use xlink:href="#DejaVuSans-35" x="170.117188"/>
     <use xlink:href="#DejaVuSans-2c" x="233.740234"/>
     <use xlink:href="#DejaVuSans-31" x="265.527344"/>
     <use xlink:href="#DejaVuSans-30" x="329.150391"/>
     <use xlink:href="#DejaVuSans-2d" x="392.773438"/>
     <use xlink:href="#DejaVuSans-44" x="428.857422"/>
    </g>
   </g>
   <g id="text_7">
    <!-- v2.6.3 -->
    <g style="fill: #808080" transform="translate(227.99475 286.317512) scale(0.1 -0.1)">
     <defs>
      <path id="DejaVuSans-32" d="M 1228 531 
L 3431 531 
L 3431 0 
L 469 0 
L 469 531 
Q 828 903 1448 1529 
Q 2069 2156 2228 2338 
Q 2531 2678 2651 2914 
Q 2772 3150 2772 3378 
Q 2772 3750 2511 3984 
Q 2250 4219 1831 4219 
Q 1534 4219 1204 4116 
Q 875 4013 500 3803 
L 500 4441 
Q 881 4594 1212 4672 
Q 1544 4750 1819 4750 
Q 2544 4750 2975 4387 
Q 3406 4025 3406 3419 
Q 3406 3131 3298 2873 
Q 3191 2616 2906 2266 
Q 2828 2175 2409 1742 
Q 1991 1309 1228 531 
z
" transform="scale(0.015625)"/>
      <path id="DejaVuSans-2e" d="M 684 794 
L 1344 794 
L 1344 0 
L 684 0 
L 684 794 
z
" transform="scale(0.015625)"/>
      <path id="DejaVuSans-36" d="M 2113 2584 
Q 1688 2584 1439 2293 
Q 1191 2003 1191 1497 
Q 1191 994 1439 701 
Q 1688 409 2113 409 
Q 2538 409 2786 701 
Q 3034 994 3034 1497 
Q 3034 2003 2786 2293 
Q 2538 2584 2113 2584 
z
M 3366 4563 
L 3366 3988 
Q 3128 4100 2886 4159 
Q 2644 4219 2406 4219 
Q 1781 4219 1451 3797 
Q 1122 3375 1075 2522 
Q 1259 2794 1537 2939 
Q 1816 3084 2150 3084 
Q 2853 3084 3261 2657 
Q 3669 2231 3669 1497 
Q 3669 778 3244 343 
Q 2819 -91 2113 -91 
Q 1303 -91 875 529 
Q 447 1150 447 2328 
Q 447 3434 972 4092 
Q 1497 4750 2381 4750 
Q 2619 4750 2861 4703 
Q 3103 4656 3366 4563 
z
" transform="scale(0.015625)"/>
      <path id="DejaVuSans-33" d="M 2597 2516 
Q 3050 2419 3304 2112 
Q 3559 1806 3559 1356 
Q 3559 666 3084 287 
Q 2609 -91 1734 -91 
Q 1441 -91 1130 -33 
Q 819 25 488 141 
L 488 750 
Q 750 597 1062 519 
Q 1375 441 1716 441 
Q 2309 441 2620 675 
Q 2931 909 2931 1356 
Q 2931 1769 2642 2001 
Q 2353 2234 1838 2234 
L 1294 2234 
L 1294 2753 
L 1863 2753 
Q 2328 2753 2575 2939 
Q 2822 3125 2822 3475 
Q 2822 3834 2567 4026 
Q 2313 4219 1838 4219 
Q 1578 4219 1281 4162 
Q 984 4106 628 3988 
L 628 4550 
Q 988 4650 1302 4700 
Q 1616 4750 1894 4750 
Q 2613 4750 3031 4423 
Q 3450 4097 3450 3541 
Q 3450 3153 3228 2886 
Q 3006 2619 2597 2516 
z
" transform="scale(0.015625)"/>
     </defs>
     <use xlink:href="#DejaVuSans-76"/>
     <use xlink:href="#DejaVuSans-32" x="59.179688"/>
     <use xlink:href="#DejaVuSans-2e" x="122.802734"/>
     <use xlink:href="#DejaVuSans-36" x="154.589844"/>
     <use xlink:href="#DejaVuSans-2e" x="218.212891"/>
     <use xlink:href="#DejaVuSans-33" x="250"/>
    </g>
   </g>
   <g id="legend_1">
    <g id="patch_7">
     <path d="M 48.16 136.425 
L 177.381875 136.425 
Q 181.381875 136.425 181.381875 132.425 
L 181.381875 17 
Q 181.381875 13 177.381875 13 
L 48.16 13 
Q 44.16 13 44.16 17 
L 44.16 132.425 
Q 44.16 136.425 48.16 136.425 
z
" style="fill: #ffffff; opacity: 0.2; stroke: #cccccc; stroke-linejoin: miter"/>
    </g>
    <g id="line2d_58">
     <path d="M 52.16 29.196875 
L 72.16 29.196875 
L 92.16 29.196875 
" style="fill: none; stroke: #000000; stroke-width: 3; stroke-linecap: square"/>
    </g>
    <g id="text_8">
     <!-- 1: 5/5 -->
     <g transform="translate(108.16 36.196875) scale(0.2 -0.2)">
      <defs>
       <path id="DejaVuSans-3a" d="M 750 794 
L 1409 794 
L 1409 0 
L 750 0 
L 750 794 
z
M 750 3309 
L 1409 3309 
L 1409 2516 
L 750 2516 
L 750 3309 
z
" transform="scale(0.015625)"/>
       <path id="DejaVuSans-2f" d="M 1625 4666 
L 2156 4666 
L 531 -594 
L 0 -594 
L 1625 4666 
z
" transform="scale(0.015625)"/>
      </defs>
      <use xlink:href="#DejaVuSans-31"/>
      <use xlink:href="#DejaVuSans-3a" x="63.623047"/>
      <use xlink:href="#DejaVuSans-20" x="97.314453"/>
      <use xlink:href="#DejaVuSans-35" x="129.101562"/>
      <use xlink:href="#DejaVuSans-2f" x="192.724609"/>
      <use xlink:href="#DejaVuSans-35" x="226.416016"/>
     </g>
    </g>
    <g id="line2d_59">
     <path d="M 52.16 58.553125 
L 72.16 58.553125 
L 92.16 58.553125 
" style="fill: none; stroke: #00bfbf; stroke-width: 3; stroke-linecap: square"/>
    </g>
    <g id="text_9">
     <!-- -1: 5/5 -->
     <g transform="translate(108.16 65.553125) scale(0.2 -0.2)">
      <use xlink:href="#DejaVuSans-2d"/>
      <use xlink:href="#DejaVuSans-31" x="36.083984"/>
      <use xlink:href="#DejaVuSans-3a" x="99.707031"/>
      <use xlink:href="#DejaVuSans-20" x="133.398438"/>
      <use xlink:href="#DejaVuSans-35" x="165.185547"/>
      <use xlink:href="#DejaVuSans-2f" x="228.808594"/>
      <use xlink:href="#DejaVuSans-35" x="262.5"/>
     </g>
    </g>
    <g id="line2d_60">
     <path d="M 52.16 87.909375 
L 72.16 87.909375 
L 92.16 87.909375 
" style="fill: none; stroke: #bf00bf; stroke-width: 3; stroke-linecap: square"/>
    </g>
    <g id="text_10">
     <!-- -4: 5/5 -->
     <g transform="translate(108.16 94.909375) scale(0.2 -0.2)">
      <defs>
       <path id="DejaVuSans-34" d="M 2419 4116 
L 825 1625 
L 2419 1625 
L 2419 4116 
z
M 2253 4666 
L 3047 4666 
L 3047 1625 
L 3713 1625 
L 3713 1100 
L 3047 1100 
L 3047 0 
L 2419 0 
L 2419 1100 
L 313 1100 
L 313 1709 
L 2253 4666 
z
" transform="scale(0.015625)"/>
      </defs>
      <use xlink:href="#DejaVuSans-2d"/>
      <use xlink:href="#DejaVuSans-34" x="36.083984"/>
      <use xlink:href="#DejaVuSans-3a" x="99.707031"/>
      <use xlink:href="#DejaVuSans-20" x="133.398438"/>
      <use xlink:href="#DejaVuSans-35" x="165.185547"/>
      <use xlink:href="#DejaVuSans-2f" x="228.808594"/>
      <use xlink:href="#DejaVuSans-35" x="262.5"/>
     </g>
    </g>
    <g id="line2d_61">
     <path d="M 52.16 117.265625 
L 72.16 117.265625 
L 92.16 117.265625 
" style="fill: none; stroke: #ff0000; stroke-width: 3; stroke-linecap: square"/>
    </g>
    <g id="text_11">
     <!-- -8: 5/5 -->
     <g transform="translate(108.16 124.265625) scale(0.2 -0.2)">
      <defs>
       <path id="DejaVuSans-38" d="M 2034 2216 
Q 1584 2216 1326 1975 
Q 1069 1734 1069 1313 
Q 1069 891 1326 650 
Q 1584 409 2034 409 
Q 2484 409 2743 651 
Q 3003 894 3003 1313 
Q 3003 1734 2745 1975 
Q 2488 2216 2034 2216 
z
M 1403 2484 
Q 997 2584 770 2862 
Q 544 3141 544 3541 
Q 544 4100 942 4425 
Q 1341 4750 2034 4750 
Q 2731 4750 3128 4425 
Q 3525 4100 3525 3541 
Q 3525 3141 3298 2862 
Q 3072 2584 2669 2484 
Q 3125 2378 3379 2068 
Q 3634 1759 3634 1313 
Q 3634 634 3220 271 
Q 2806 -91 2034 -91 
Q 1263 -91 848 271 
Q 434 634 434 1313 
Q 434 1759 690 2068 
Q 947 2378 1403 2484 
z
M 1172 3481 
Q 1172 3119 1398 2916 
Q 1625 2713 2034 2713 
Q 2441 2713 2670 2916 
Q 2900 3119 2900 3481 
Q 2900 3844 2670 4047 
Q 2441 4250 2034 4250 
Q 1625 4250 1398 4047 
Q 1172 3844 1172 3481 
z
" transform="scale(0.015625)"/>
      </defs>
      <use xlink:href="#DejaVuSans-2d"/>
      <use xlink:href="#DejaVuSans-38" x="36.083984"/>
      <use xlink:href="#DejaVuSans-3a" x="99.707031"/>
      <use xlink:href="#DejaVuSans-20" x="133.398438"/>
      <use xlink:href="#DejaVuSans-35" x="165.185547"/>
      <use xlink:href="#DejaVuSans-2f" x="228.808594"/>
      <use xlink:href="#DejaVuSans-35" x="262.5"/>
     </g>
    </g>
   </g>
  </g>
 </g>
 <defs>
  <clipPath id="pddad201f56">
   <rect x="34.16" y="3" width="419.032" height="288.28"/>
  </clipPath>
 </defs>
</svg>
