<?xml version="1.0" encoding="utf-8" standalone="no"?>
<!DOCTYPE svg PUBLIC "-//W3C//DTD SVG 1.1//EN"
  "http://www.w3.org/Graphics/SVG/1.1/DTD/svg11.dtd">
<svg xmlns:xlink="http://www.w3.org/1999/xlink" width="460.8pt" height="345.6pt" viewBox="0 0 460.8 345.6" xmlns="http://www.w3.org/2000/svg" version="1.1">
 <metadata>
  <rdf:RDF xmlns:dc="http://purl.org/dc/elements/1.1/" xmlns:cc="http://creativecommons.org/ns#" xmlns:rdf="http://www.w3.org/1999/02/22-rdf-syntax-ns#">
   <cc:Work>
    <dc:type rdf:resource="http://purl.org/dc/dcmitype/StillImage"/>
    <dc:date>2024-05-24T12:12:02.791190</dc:date>
    <dc:format>image/svg+xml</dc:format>
    <dc:creator>
     <cc:Agent>
      <dc:title>Matplotlib v3.7.1, https://matplotlib.org/</dc:title>
     </cc:Agent>
    </dc:creator>
   </cc:Work>
  </rdf:RDF>
 </metadata>
 <defs>
  <style type="text/css">*{stroke-linejoin: round; stroke-linecap: butt}</style>
 </defs>
 <g id="figure_1">
  <g id="patch_1">
   <path d="M 0 345.6 
L 460.8 345.6 
L 460.8 0 
L 0 0 
z
" style="fill: #ffffff"/>
  </g>
  <g id="axes_1">
   <g id="patch_2">
    <path d="M 34.16 291.28 
L 453.192 291.28 
L 453.192 3 
L 34.16 3 
z
" style="fill: #ffffff"/>
   </g>
   <g id="matplotlib.axis_1">
    <g id="xtick_1">
     <g id="line2d_1">
      <path d="M 168.021203 291.28 
L 168.021203 3 
" clip-path="url(#p65c42db255)" style="fill: none; stroke: #b0b0b0; stroke-width: 0.8; stroke-linecap: square"/>
     </g>
     <g id="line2d_2">
      <defs>
       <path id="m6f51ca7b17" d="M 0 0 
L 0 3.5 
" style="stroke: #000000; stroke-width: 0.8"/>
      </defs>
      <g>
       <use xlink:href="#m6f51ca7b17" x="168.021203" y="291.28" style="stroke: #000000; stroke-width: 0.8"/>
      </g>
     </g>
     <g id="text_1">
      <!-- -1 -->
      <g transform="translate(158.050891 313.476875) scale(0.2 -0.2)">
       <defs>
        <path id="DejaVuSans-2d" d="M 313 2009 
L 1997 2009 
L 1997 1497 
L 313 1497 
L 313 2009 
z
" transform="scale(0.015625)"/>
        <path id="DejaVuSans-31" d="M 794 531 
L 1825 531 
L 1825 4091 
L 703 3866 
L 703 4441 
L 1819 4666 
L 2450 4666 
L 2450 531 
L 3481 531 
L 3481 0 
L 794 0 
L 794 531 
z
" transform="scale(0.015625)"/>
       </defs>
       <use xlink:href="#DejaVuSans-2d"/>
       <use xlink:href="#DejaVuSans-31" x="36.083984"/>
      </g>
     </g>
    </g>
    <g id="xtick_2">
     <g id="line2d_3">
      <path d="M 319.330797 291.28 
L 319.330797 3 
" clip-path="url(#p65c42db255)" style="fill: none; stroke: #b0b0b0; stroke-width: 0.8; stroke-linecap: square"/>
     </g>
     <g id="line2d_4">
      <g>
       <use xlink:href="#m6f51ca7b17" x="319.330797" y="291.28" style="stroke: #000000; stroke-width: 0.8"/>
      </g>
     </g>
     <g id="text_2">
      <!-- 1 -->
      <g transform="translate(312.968297 313.476875) scale(0.2 -0.2)">
       <use xlink:href="#DejaVuSans-31"/>
      </g>
     </g>
    </g>
    <g id="xtick_3">
     <g id="line2d_5">
      <defs>
       <path id="md185bb77a8" d="M 0 0 
L 0 2 
" style="stroke: #000000; stroke-width: 0.6"/>
      </defs>
      <g>
       <use xlink:href="#md185bb77a8" x="39.485973" y="291.28" style="stroke: #000000; stroke-width: 0.6"/>
      </g>
     </g>
    </g>
    <g id="xtick_4">
     <g id="line2d_6">
      <g>
       <use xlink:href="#md185bb77a8" x="52.808121" y="291.28" style="stroke: #000000; stroke-width: 0.6"/>
      </g>
     </g>
    </g>
    <g id="xtick_5">
     <g id="line2d_7">
      <g>
       <use xlink:href="#md185bb77a8" x="62.260336" y="291.28" style="stroke: #000000; stroke-width: 0.6"/>
      </g>
     </g>
    </g>
    <g id="xtick_6">
     <g id="line2d_8">
      <g>
       <use xlink:href="#md185bb77a8" x="69.592043" y="291.28" style="stroke: #000000; stroke-width: 0.6"/>
      </g>
     </g>
    </g>
    <g id="xtick_7">
     <g id="line2d_9">
      <g>
       <use xlink:href="#md185bb77a8" x="75.582484" y="291.28" style="stroke: #000000; stroke-width: 0.6"/>
      </g>
     </g>
    </g>
    <g id="xtick_8">
     <g id="line2d_10">
      <g>
       <use xlink:href="#md185bb77a8" x="80.64733" y="291.28" style="stroke: #000000; stroke-width: 0.6"/>
      </g>
     </g>
    </g>
    <g id="xtick_9">
     <g id="line2d_11">
      <g>
       <use xlink:href="#md185bb77a8" x="85.034699" y="291.28" style="stroke: #000000; stroke-width: 0.6"/>
      </g>
     </g>
    </g>
    <g id="xtick_10">
     <g id="line2d_12">
      <g>
       <use xlink:href="#md185bb77a8" x="88.904633" y="291.28" style="stroke: #000000; stroke-width: 0.6"/>
      </g>
     </g>
    </g>
    <g id="xtick_11">
     <g id="line2d_13">
      <g>
       <use xlink:href="#md185bb77a8" x="115.14077" y="291.28" style="stroke: #000000; stroke-width: 0.6"/>
      </g>
     </g>
    </g>
    <g id="xtick_12">
     <g id="line2d_14">
      <g>
       <use xlink:href="#md185bb77a8" x="128.462918" y="291.28" style="stroke: #000000; stroke-width: 0.6"/>
      </g>
     </g>
    </g>
    <g id="xtick_13">
     <g id="line2d_15">
      <g>
       <use xlink:href="#md185bb77a8" x="137.915133" y="291.28" style="stroke: #000000; stroke-width: 0.6"/>
      </g>
     </g>
    </g>
    <g id="xtick_14">
     <g id="line2d_16">
      <g>
       <use xlink:href="#md185bb77a8" x="145.24684" y="291.28" style="stroke: #000000; stroke-width: 0.6"/>
      </g>
     </g>
    </g>
    <g id="xtick_15">
     <g id="line2d_17">
      <g>
       <use xlink:href="#md185bb77a8" x="151.237281" y="291.28" style="stroke: #000000; stroke-width: 0.6"/>
      </g>
     </g>
    </g>
    <g id="xtick_16">
     <g id="line2d_18">
      <g>
       <use xlink:href="#md185bb77a8" x="156.302127" y="291.28" style="stroke: #000000; stroke-width: 0.6"/>
      </g>
     </g>
    </g>
    <g id="xtick_17">
     <g id="line2d_19">
      <g>
       <use xlink:href="#md185bb77a8" x="160.689496" y="291.28" style="stroke: #000000; stroke-width: 0.6"/>
      </g>
     </g>
    </g>
    <g id="xtick_18">
     <g id="line2d_20">
      <g>
       <use xlink:href="#md185bb77a8" x="164.55943" y="291.28" style="stroke: #000000; stroke-width: 0.6"/>
      </g>
     </g>
    </g>
    <g id="xtick_19">
     <g id="line2d_21">
      <g>
       <use xlink:href="#md185bb77a8" x="190.795566" y="291.28" style="stroke: #000000; stroke-width: 0.6"/>
      </g>
     </g>
    </g>
    <g id="xtick_20">
     <g id="line2d_22">
      <g>
       <use xlink:href="#md185bb77a8" x="204.117715" y="291.28" style="stroke: #000000; stroke-width: 0.6"/>
      </g>
     </g>
    </g>
    <g id="xtick_21">
     <g id="line2d_23">
      <g>
       <use xlink:href="#md185bb77a8" x="213.56993" y="291.28" style="stroke: #000000; stroke-width: 0.6"/>
      </g>
     </g>
    </g>
    <g id="xtick_22">
     <g id="line2d_24">
      <g>
       <use xlink:href="#md185bb77a8" x="220.901637" y="291.28" style="stroke: #000000; stroke-width: 0.6"/>
      </g>
     </g>
    </g>
    <g id="xtick_23">
     <g id="line2d_25">
      <g>
       <use xlink:href="#md185bb77a8" x="226.892078" y="291.28" style="stroke: #000000; stroke-width: 0.6"/>
      </g>
     </g>
    </g>
    <g id="xtick_24">
     <g id="line2d_26">
      <g>
       <use xlink:href="#md185bb77a8" x="231.956924" y="291.28" style="stroke: #000000; stroke-width: 0.6"/>
      </g>
     </g>
    </g>
    <g id="xtick_25">
     <g id="line2d_27">
      <g>
       <use xlink:href="#md185bb77a8" x="236.344293" y="291.28" style="stroke: #000000; stroke-width: 0.6"/>
      </g>
     </g>
    </g>
    <g id="xtick_26">
     <g id="line2d_28">
      <g>
       <use xlink:href="#md185bb77a8" x="240.214226" y="291.28" style="stroke: #000000; stroke-width: 0.6"/>
      </g>
     </g>
    </g>
    <g id="xtick_27">
     <g id="line2d_29">
      <g>
       <use xlink:href="#md185bb77a8" x="266.450363" y="291.28" style="stroke: #000000; stroke-width: 0.6"/>
      </g>
     </g>
    </g>
    <g id="xtick_28">
     <g id="line2d_30">
      <g>
       <use xlink:href="#md185bb77a8" x="279.772512" y="291.28" style="stroke: #000000; stroke-width: 0.6"/>
      </g>
     </g>
    </g>
    <g id="xtick_29">
     <g id="line2d_31">
      <g>
       <use xlink:href="#md185bb77a8" x="289.224726" y="291.28" style="stroke: #000000; stroke-width: 0.6"/>
      </g>
     </g>
    </g>
    <g id="xtick_30">
     <g id="line2d_32">
      <g>
       <use xlink:href="#md185bb77a8" x="296.556434" y="291.28" style="stroke: #000000; stroke-width: 0.6"/>
      </g>
     </g>
    </g>
    <g id="xtick_31">
     <g id="line2d_33">
      <g>
       <use xlink:href="#md185bb77a8" x="302.546875" y="291.28" style="stroke: #000000; stroke-width: 0.6"/>
      </g>
     </g>
    </g>
    <g id="xtick_32">
     <g id="line2d_34">
      <g>
       <use xlink:href="#md185bb77a8" x="307.61172" y="291.28" style="stroke: #000000; stroke-width: 0.6"/>
      </g>
     </g>
    </g>
    <g id="xtick_33">
     <g id="line2d_35">
      <g>
       <use xlink:href="#md185bb77a8" x="311.999089" y="291.28" style="stroke: #000000; stroke-width: 0.6"/>
      </g>
     </g>
    </g>
    <g id="xtick_34">
     <g id="line2d_36">
      <g>
       <use xlink:href="#md185bb77a8" x="315.869023" y="291.28" style="stroke: #000000; stroke-width: 0.6"/>
      </g>
     </g>
    </g>
    <g id="xtick_35">
     <g id="line2d_37">
      <g>
       <use xlink:href="#md185bb77a8" x="342.10516" y="291.28" style="stroke: #000000; stroke-width: 0.6"/>
      </g>
     </g>
    </g>
    <g id="xtick_36">
     <g id="line2d_38">
      <g>
       <use xlink:href="#md185bb77a8" x="355.427308" y="291.28" style="stroke: #000000; stroke-width: 0.6"/>
      </g>
     </g>
    </g>
    <g id="xtick_37">
     <g id="line2d_39">
      <g>
       <use xlink:href="#md185bb77a8" x="364.879523" y="291.28" style="stroke: #000000; stroke-width: 0.6"/>
      </g>
     </g>
    </g>
    <g id="xtick_38">
     <g id="line2d_40">
      <g>
       <use xlink:href="#md185bb77a8" x="372.21123" y="291.28" style="stroke: #000000; stroke-width: 0.6"/>
      </g>
     </g>
    </g>
    <g id="xtick_39">
     <g id="line2d_41">
      <g>
       <use xlink:href="#md185bb77a8" x="378.201671" y="291.28" style="stroke: #000000; stroke-width: 0.6"/>
      </g>
     </g>
    </g>
    <g id="xtick_40">
     <g id="line2d_42">
      <g>
       <use xlink:href="#md185bb77a8" x="383.266517" y="291.28" style="stroke: #000000; stroke-width: 0.6"/>
      </g>
     </g>
    </g>
    <g id="xtick_41">
     <g id="line2d_43">
      <g>
       <use xlink:href="#md185bb77a8" x="387.653886" y="291.28" style="stroke: #000000; stroke-width: 0.6"/>
      </g>
     </g>
    </g>
    <g id="xtick_42">
     <g id="line2d_44">
      <g>
       <use xlink:href="#md185bb77a8" x="391.52382" y="291.28" style="stroke: #000000; stroke-width: 0.6"/>
      </g>
     </g>
    </g>
    <g id="xtick_43">
     <g id="line2d_45">
      <g>
       <use xlink:href="#md185bb77a8" x="417.759957" y="291.28" style="stroke: #000000; stroke-width: 0.6"/>
      </g>
     </g>
    </g>
    <g id="xtick_44">
     <g id="line2d_46">
      <g>
       <use xlink:href="#md185bb77a8" x="431.082105" y="291.28" style="stroke: #000000; stroke-width: 0.6"/>
      </g>
     </g>
    </g>
    <g id="xtick_45">
     <g id="line2d_47">
      <g>
       <use xlink:href="#md185bb77a8" x="440.53432" y="291.28" style="stroke: #000000; stroke-width: 0.6"/>
      </g>
     </g>
    </g>
    <g id="xtick_46">
     <g id="line2d_48">
      <g>
       <use xlink:href="#md185bb77a8" x="447.866027" y="291.28" style="stroke: #000000; stroke-width: 0.6"/>
      </g>
     </g>
    </g>
    <g id="text_3">
     <!-- log10 of FEvals ratio -->
     <g transform="translate(141.371312 336.833125) scale(0.2 -0.2)">
      <defs>
       <path id="DejaVuSans-6c" d="M 603 4863 
L 1178 4863 
L 1178 0 
L 603 0 
L 603 4863 
z
" transform="scale(0.015625)"/>
       <path id="DejaVuSans-6f" d="M 1959 3097 
Q 1497 3097 1228 2736 
Q 959 2375 959 1747 
Q 959 1119 1226 758 
Q 1494 397 1959 397 
Q 2419 397 2687 759 
Q 2956 1122 2956 1747 
Q 2956 2369 2687 2733 
Q 2419 3097 1959 3097 
z
M 1959 3584 
Q 2709 3584 3137 3096 
Q 3566 2609 3566 1747 
Q 3566 888 3137 398 
Q 2709 -91 1959 -91 
Q 1206 -91 779 398 
Q 353 888 353 1747 
Q 353 2609 779 3096 
Q 1206 3584 1959 3584 
z
" transform="scale(0.015625)"/>
       <path id="DejaVuSans-67" d="M 2906 1791 
Q 2906 2416 2648 2759 
Q 2391 3103 1925 3103 
Q 1463 3103 1205 2759 
Q 947 2416 947 1791 
Q 947 1169 1205 825 
Q 1463 481 1925 481 
Q 2391 481 2648 825 
Q 2906 1169 2906 1791 
z
M 3481 434 
Q 3481 -459 3084 -895 
Q 2688 -1331 1869 -1331 
Q 1566 -1331 1297 -1286 
Q 1028 -1241 775 -1147 
L 775 -588 
Q 1028 -725 1275 -790 
Q 1522 -856 1778 -856 
Q 2344 -856 2625 -561 
Q 2906 -266 2906 331 
L 2906 616 
Q 2728 306 2450 153 
Q 2172 0 1784 0 
Q 1141 0 747 490 
Q 353 981 353 1791 
Q 353 2603 747 3093 
Q 1141 3584 1784 3584 
Q 2172 3584 2450 3431 
Q 2728 3278 2906 2969 
L 2906 3500 
L 3481 3500 
L 3481 434 
z
" transform="scale(0.015625)"/>
       <path id="DejaVuSans-30" d="M 2034 4250 
Q 1547 4250 1301 3770 
Q 1056 3291 1056 2328 
Q 1056 1369 1301 889 
Q 1547 409 2034 409 
Q 2525 409 2770 889 
Q 3016 1369 3016 2328 
Q 3016 3291 2770 3770 
Q 2525 4250 2034 4250 
z
M 2034 4750 
Q 2819 4750 3233 4129 
Q 3647 3509 3647 2328 
Q 3647 1150 3233 529 
Q 2819 -91 2034 -91 
Q 1250 -91 836 529 
Q 422 1150 422 2328 
Q 422 3509 836 4129 
Q 1250 4750 2034 4750 
z
" transform="scale(0.015625)"/>
       <path id="DejaVuSans-20" transform="scale(0.015625)"/>
       <path id="DejaVuSans-66" d="M 2375 4863 
L 2375 4384 
L 1825 4384 
Q 1516 4384 1395 4259 
Q 1275 4134 1275 3809 
L 1275 3500 
L 2222 3500 
L 2222 3053 
L 1275 3053 
L 1275 0 
L 697 0 
L 697 3053 
L 147 3053 
L 147 3500 
L 697 3500 
L 697 3744 
Q 697 4328 969 4595 
Q 1241 4863 1831 4863 
L 2375 4863 
z
" transform="scale(0.015625)"/>
       <path id="DejaVuSans-46" d="M 628 4666 
L 3309 4666 
L 3309 4134 
L 1259 4134 
L 1259 2759 
L 3109 2759 
L 3109 2228 
L 1259 2228 
L 1259 0 
L 628 0 
L 628 4666 
z
" transform="scale(0.015625)"/>
       <path id="DejaVuSans-45" d="M 628 4666 
L 3578 4666 
L 3578 4134 
L 1259 4134 
L 1259 2753 
L 3481 2753 
L 3481 2222 
L 1259 2222 
L 1259 531 
L 3634 531 
L 3634 0 
L 628 0 
L 628 4666 
z
" transform="scale(0.015625)"/>
       <path id="DejaVuSans-76" d="M 191 3500 
L 800 3500 
L 1894 563 
L 2988 3500 
L 3597 3500 
L 2284 0 
L 1503 0 
L 191 3500 
z
" transform="scale(0.015625)"/>
       <path id="DejaVuSans-61" d="M 2194 1759 
Q 1497 1759 1228 1600 
Q 959 1441 959 1056 
Q 959 750 1161 570 
Q 1363 391 1709 391 
Q 2188 391 2477 730 
Q 2766 1069 2766 1631 
L 2766 1759 
L 2194 1759 
z
M 3341 1997 
L 3341 0 
L 2766 0 
L 2766 531 
Q 2569 213 2275 61 
Q 1981 -91 1556 -91 
Q 1019 -91 701 211 
Q 384 513 384 1019 
Q 384 1609 779 1909 
Q 1175 2209 1959 2209 
L 2766 2209 
L 2766 2266 
Q 2766 2663 2505 2880 
Q 2244 3097 1772 3097 
Q 1472 3097 1187 3025 
Q 903 2953 641 2809 
L 641 3341 
Q 956 3463 1253 3523 
Q 1550 3584 1831 3584 
Q 2591 3584 2966 3190 
Q 3341 2797 3341 1997 
z
" transform="scale(0.015625)"/>
       <path id="DejaVuSans-73" d="M 2834 3397 
L 2834 2853 
Q 2591 2978 2328 3040 
Q 2066 3103 1784 3103 
Q 1356 3103 1142 2972 
Q 928 2841 928 2578 
Q 928 2378 1081 2264 
Q 1234 2150 1697 2047 
L 1894 2003 
Q 2506 1872 2764 1633 
Q 3022 1394 3022 966 
Q 3022 478 2636 193 
Q 2250 -91 1575 -91 
Q 1294 -91 989 -36 
Q 684 19 347 128 
L 347 722 
Q 666 556 975 473 
Q 1284 391 1588 391 
Q 1994 391 2212 530 
Q 2431 669 2431 922 
Q 2431 1156 2273 1281 
Q 2116 1406 1581 1522 
L 1381 1569 
Q 847 1681 609 1914 
Q 372 2147 372 2553 
Q 372 3047 722 3315 
Q 1072 3584 1716 3584 
Q 2034 3584 2315 3537 
Q 2597 3491 2834 3397 
z
" transform="scale(0.015625)"/>
       <path id="DejaVuSans-72" d="M 2631 2963 
Q 2534 3019 2420 3045 
Q 2306 3072 2169 3072 
Q 1681 3072 1420 2755 
Q 1159 2438 1159 1844 
L 1159 0 
L 581 0 
L 581 3500 
L 1159 3500 
L 1159 2956 
Q 1341 3275 1631 3429 
Q 1922 3584 2338 3584 
Q 2397 3584 2469 3576 
Q 2541 3569 2628 3553 
L 2631 2963 
z
" transform="scale(0.015625)"/>
       <path id="DejaVuSans-74" d="M 1172 4494 
L 1172 3500 
L 2356 3500 
L 2356 3053 
L 1172 3053 
L 1172 1153 
Q 1172 725 1289 603 
Q 1406 481 1766 481 
L 2356 481 
L 2356 0 
L 1766 0 
Q 1100 0 847 248 
Q 594 497 594 1153 
L 594 3053 
L 172 3053 
L 172 3500 
L 594 3500 
L 594 4494 
L 1172 4494 
z
" transform="scale(0.015625)"/>
       <path id="DejaVuSans-69" d="M 603 3500 
L 1178 3500 
L 1178 0 
L 603 0 
L 603 3500 
z
M 603 4863 
L 1178 4863 
L 1178 4134 
L 603 4134 
L 603 4863 
z
" transform="scale(0.015625)"/>
      </defs>
      <use xlink:href="#DejaVuSans-6c"/>
      <use xlink:href="#DejaVuSans-6f" x="27.783203"/>
      <use xlink:href="#DejaVuSans-67" x="88.964844"/>
      <use xlink:href="#DejaVuSans-31" x="152.441406"/>
      <use xlink:href="#DejaVuSans-30" x="216.064453"/>
      <use xlink:href="#DejaVuSans-20" x="279.6875"/>
      <use xlink:href="#DejaVuSans-6f" x="311.474609"/>
      <use xlink:href="#DejaVuSans-66" x="372.65625"/>
      <use xlink:href="#DejaVuSans-20" x="407.861328"/>
      <use xlink:href="#DejaVuSans-46" x="439.648438"/>
      <use xlink:href="#DejaVuSans-45" x="497.167969"/>
      <use xlink:href="#DejaVuSans-76" x="560.351562"/>
      <use xlink:href="#DejaVuSans-61" x="619.53125"/>
      <use xlink:href="#DejaVuSans-6c" x="680.810547"/>
      <use xlink:href="#DejaVuSans-73" x="708.59375"/>
      <use xlink:href="#DejaVuSans-20" x="760.693359"/>
      <use xlink:href="#DejaVuSans-72" x="792.480469"/>
      <use xlink:href="#DejaVuSans-61" x="833.59375"/>
      <use xlink:href="#DejaVuSans-74" x="894.873047"/>
      <use xlink:href="#DejaVuSans-69" x="934.082031"/>
      <use xlink:href="#DejaVuSans-6f" x="961.865234"/>
     </g>
    </g>
   </g>
   <g id="matplotlib.axis_2">
    <g id="ytick_1">
     <g id="line2d_49">
      <path d="M 34.16 288.453725 
L 453.192 288.453725 
" clip-path="url(#p65c42db255)" style="fill: none; stroke: #b0b0b0; stroke-width: 0.8; stroke-linecap: square"/>
     </g>
     <g id="line2d_50">
      <defs>
       <path id="m39d4b7c917" d="M 0 0 
L -3.5 0 
" style="stroke: #000000; stroke-width: 0.8"/>
      </defs>
      <g>
       <use xlink:href="#m39d4b7c917" x="34.16" y="288.453725" style="stroke: #000000; stroke-width: 0.8"/>
      </g>
     </g>
    </g>
    <g id="ytick_2">
     <g id="line2d_51">
      <path d="M 34.16 217.796863 
L 453.192 217.796863 
" clip-path="url(#p65c42db255)" style="fill: none; stroke: #b0b0b0; stroke-width: 0.8; stroke-linecap: square"/>
     </g>
     <g id="line2d_52">
      <g>
       <use xlink:href="#m39d4b7c917" x="34.16" y="217.796863" style="stroke: #000000; stroke-width: 0.8"/>
      </g>
     </g>
    </g>
    <g id="ytick_3">
     <g id="line2d_53">
      <path d="M 34.16 147.14 
L 453.192 147.14 
" clip-path="url(#p65c42db255)" style="fill: none; stroke: #b0b0b0; stroke-width: 0.8; stroke-linecap: square"/>
     </g>
     <g id="line2d_54">
      <g>
       <use xlink:href="#m39d4b7c917" x="34.16" y="147.14" style="stroke: #000000; stroke-width: 0.8"/>
      </g>
     </g>
    </g>
    <g id="ytick_4">
     <g id="line2d_55">
      <path d="M 34.16 76.483137 
L 453.192 76.483137 
" clip-path="url(#p65c42db255)" style="fill: none; stroke: #b0b0b0; stroke-width: 0.8; stroke-linecap: square"/>
     </g>
     <g id="line2d_56">
      <g>
       <use xlink:href="#m39d4b7c917" x="34.16" y="76.483137" style="stroke: #000000; stroke-width: 0.8"/>
      </g>
     </g>
    </g>
    <g id="ytick_5">
     <g id="line2d_57">
      <path d="M 34.16 5.826275 
L 453.192 5.826275 
" clip-path="url(#p65c42db255)" style="fill: none; stroke: #b0b0b0; stroke-width: 0.8; stroke-linecap: square"/>
     </g>
     <g id="line2d_58">
      <g>
       <use xlink:href="#m39d4b7c917" x="34.16" y="5.826275" style="stroke: #000000; stroke-width: 0.8"/>
      </g>
     </g>
    </g>
    <g id="text_4">
     <!-- proportion of trials -->
     <g transform="translate(19.000625 240.14625) rotate(-90) scale(0.2 -0.2)">
      <defs>
       <path id="DejaVuSans-70" d="M 1159 525 
L 1159 -1331 
L 581 -1331 
L 581 3500 
L 1159 3500 
L 1159 2969 
Q 1341 3281 1617 3432 
Q 1894 3584 2278 3584 
Q 2916 3584 3314 3078 
Q 3713 2572 3713 1747 
Q 3713 922 3314 415 
Q 2916 -91 2278 -91 
Q 1894 -91 1617 61 
Q 1341 213 1159 525 
z
M 3116 1747 
Q 3116 2381 2855 2742 
Q 2594 3103 2138 3103 
Q 1681 3103 1420 2742 
Q 1159 2381 1159 1747 
Q 1159 1113 1420 752 
Q 1681 391 2138 391 
Q 2594 391 2855 752 
Q 3116 1113 3116 1747 
z
" transform="scale(0.015625)"/>
       <path id="DejaVuSans-6e" d="M 3513 2113 
L 3513 0 
L 2938 0 
L 2938 2094 
Q 2938 2591 2744 2837 
Q 2550 3084 2163 3084 
Q 1697 3084 1428 2787 
Q 1159 2491 1159 1978 
L 1159 0 
L 581 0 
L 581 3500 
L 1159 3500 
L 1159 2956 
Q 1366 3272 1645 3428 
Q 1925 3584 2291 3584 
Q 2894 3584 3203 3211 
Q 3513 2838 3513 2113 
z
" transform="scale(0.015625)"/>
      </defs>
      <use xlink:href="#DejaVuSans-70"/>
      <use xlink:href="#DejaVuSans-72" x="63.476562"/>
      <use xlink:href="#DejaVuSans-6f" x="102.339844"/>
      <use xlink:href="#DejaVuSans-70" x="163.521484"/>
      <use xlink:href="#DejaVuSans-6f" x="226.998047"/>
      <use xlink:href="#DejaVuSans-72" x="288.179688"/>
      <use xlink:href="#DejaVuSans-74" x="329.292969"/>
      <use xlink:href="#DejaVuSans-69" x="368.501953"/>
      <use xlink:href="#DejaVuSans-6f" x="396.285156"/>
      <use xlink:href="#DejaVuSans-6e" x="457.466797"/>
      <use xlink:href="#DejaVuSans-20" x="520.845703"/>
      <use xlink:href="#DejaVuSans-6f" x="552.632812"/>
      <use xlink:href="#DejaVuSans-66" x="613.814453"/>
      <use xlink:href="#DejaVuSans-20" x="649.019531"/>
      <use xlink:href="#DejaVuSans-74" x="680.806641"/>
      <use xlink:href="#DejaVuSans-72" x="720.015625"/>
      <use xlink:href="#DejaVuSans-69" x="761.128906"/>
      <use xlink:href="#DejaVuSans-61" x="788.912109"/>
      <use xlink:href="#DejaVuSans-6c" x="850.191406"/>
      <use xlink:href="#DejaVuSans-73" x="877.974609"/>
     </g>
    </g>
   </g>
   <g id="line2d_59">
    <path d="M 34.16 277.432042 
L 128.910481 277.432042 
L 128.910481 276.644779 
L 135.2546 276.644779 
L 135.2546 275.857516 
L 137.69565 275.857516 
L 137.69565 275.070253 
L 142.291459 275.070253 
L 142.291459 274.28299 
L 143.324926 274.28299 
L 143.324926 273.495727 
L 145.911687 273.495727 
L 145.911687 272.708464 
L 147.628083 272.708464 
L 147.628083 271.921201 
L 148.405787 271.921201 
L 148.405787 271.133937 
L 149.631565 271.133937 
L 149.723988 269.559411 
L 152.886224 269.559411 
L 152.886224 268.772148 
L 154.524074 268.772148 
L 154.524074 267.984885 
L 155.929078 267.984885 
L 155.929078 267.197622 
L 157.382706 267.197622 
L 157.382706 266.410359 
L 159.611698 266.410359 
L 159.611698 265.623096 
L 162.236363 265.623096 
L 162.236363 264.835833 
L 165.006993 264.835833 
L 165.006993 264.04857 
L 165.930649 264.04857 
L 165.930649 263.261306 
L 168.841156 263.261306 
L 168.841156 262.474043 
L 169.8084 262.474043 
L 169.8084 261.68678 
L 170.355187 261.68678 
L 170.355187 260.899517 
L 170.889884 260.899517 
L 170.889884 260.112254 
L 172.405928 260.112254 
L 172.405928 259.324991 
L 172.97671 259.324991 
L 172.97671 258.537728 
L 176.162546 258.537728 
L 176.162546 257.750465 
L 177.372476 257.750465 
L 177.372476 256.963202 
L 178.387971 256.963202 
L 178.387971 256.175939 
L 181.790915 256.175939 
L 181.790915 255.388676 
L 184.270862 255.388676 
L 184.270862 254.601412 
L 184.644458 254.601412 
L 184.746295 253.026886 
L 186.357688 253.026886 
L 186.357688 252.239623 
L 189.142062 252.239623 
L 189.142062 251.45236 
L 189.39223 251.45236 
L 189.39223 250.665097 
L 191.296352 250.665097 
L 191.296352 249.877834 
L 192.062139 249.877834 
L 192.062139 249.090571 
L 192.656787 249.090571 
L 192.656787 248.303308 
L 193.393822 248.303308 
L 193.479217 246.728781 
L 193.566533 246.728781 
L 193.566533 245.941518 
L 195.171893 245.941518 
L 195.171893 245.154255 
L 195.687179 245.154255 
L 195.687179 244.366992 
L 196.007583 244.366992 
L 196.044124 242.792466 
L 196.809912 242.792466 
L 196.809912 242.005203 
L 198.127274 242.005203 
L 198.127274 241.21794 
L 198.461523 241.21794 
L 198.461523 240.430677 
L 199.362109 240.430677 
L 199.362109 239.643414 
L 199.50883 239.643414 
L 199.50883 238.856151 
L 200.648475 238.856151 
L 200.648475 238.068887 
L 200.772696 238.068887 
L 200.772696 237.281624 
L 201.448934 237.281624 
L 201.448934 236.494361 
L 203.980281 236.494361 
L 203.980281 235.707098 
L 205.904911 235.707098 
L 205.904911 234.919835 
L 206.579887 234.919835 
L 206.579887 234.132572 
L 206.7748 234.132572 
L 206.7748 233.345309 
L 207.579488 233.345309 
L 207.579488 232.558046 
L 209.574856 232.558046 
L 209.574856 231.770783 
L 209.913473 231.770783 
L 209.958297 230.196256 
L 210.263139 230.196256 
L 210.286845 228.62173 
L 211.198157 228.62173 
L 211.198157 227.834467 
L 211.380468 227.834467 
L 211.380468 227.047204 
L 211.787803 227.047204 
L 211.787803 226.259941 
L 213.03663 226.259941 
L 213.03663 225.472678 
L 213.21852 225.472678 
L 213.231781 223.898152 
L 213.791559 223.898152 
L 213.874628 222.323626 
L 213.997568 222.323626 
L 213.997568 221.536362 
L 214.464714 221.536362 
L 214.464714 220.749099 
L 216.128241 220.749099 
L 216.128241 219.961836 
L 216.419274 219.961836 
L 216.419274 219.174573 
L 216.975586 219.174573 
L 216.975586 218.38731 
L 217.361259 218.38731 
L 217.361259 217.600047 
L 217.907174 217.600047 
L 217.907174 216.812784 
L 218.176737 216.812784 
L 218.176737 216.025521 
L 218.539332 216.025521 
L 218.539332 215.238258 
L 218.902378 215.238258 
L 218.902378 214.450995 
L 219.521162 214.450995 
L 219.521162 213.663731 
L 220.047405 213.663731 
L 220.047405 212.876468 
L 220.617787 212.876468 
L 220.617787 212.089205 
L 221.866047 212.089205 
L 221.866047 211.301942 
L 222.488455 211.301942 
L 222.488455 210.514679 
L 222.688834 210.514679 
L 222.688834 209.727416 
L 222.835582 209.727416 
L 222.835582 208.940153 
L 222.955835 208.940153 
L 222.955835 208.15289 
L 223.071168 208.15289 
L 223.104482 206.578364 
L 223.235621 206.578364 
L 223.235621 205.791101 
L 223.836955 205.791101 
L 223.836955 205.003837 
L 224.201831 205.003837 
L 224.201831 204.216574 
L 224.559068 204.216574 
L 224.559068 203.429311 
L 225.324856 203.429311 
L 225.324856 202.642048 
L 225.644214 202.642048 
L 225.691244 201.067522 
L 226.080766 201.067522 
L 226.167793 199.492996 
L 226.417608 199.492996 
L 226.518705 197.91847 
L 226.573586 197.91847 
L 226.573586 197.131207 
L 226.788593 197.131207 
L 226.788593 196.343943 
L 227.120249 196.343943 
L 227.120249 195.55668 
L 227.40764 195.55668 
L 227.458296 193.982154 
L 227.914404 193.982154 
L 228.017409 192.407628 
L 228.091078 192.407628 
L 228.185344 190.833102 
L 228.504989 190.833102 
L 228.608843 189.258576 
L 228.745172 189.258576 
L 228.745172 188.471312 
L 229.014636 188.471312 
L 229.014636 187.684049 
L 229.282693 187.684049 
L 229.282693 186.896786 
L 229.411121 186.896786 
L 229.503545 184.534997 
L 230.253263 184.534997 
L 230.253263 183.747734 
L 230.508471 183.747734 
L 230.600894 182.173208 
L 232.259897 182.173208 
L 232.283357 180.598682 
L 232.452506 180.598682 
L 232.452506 179.811418 
L 232.73266 179.811418 
L 232.73266 179.024155 
L 232.902141 179.024155 
L 232.902141 178.236892 
L 233.315898 178.236892 
L 233.36601 176.662366 
L 233.498448 176.662366 
L 233.535994 175.08784 
L 233.772143 175.08784 
L 233.772143 174.300577 
L 234.291741 174.300577 
L 234.303631 172.726051 
L 234.53793 172.726051 
L 234.53793 171.938787 
L 234.669303 171.938787 
L 234.742973 170.364261 
L 235.290289 170.364261 
L 235.40098 168.789735 
L 235.435091 168.789735 
L 235.50876 166.427946 
L 235.708634 166.427946 
L 235.808361 164.066157 
L 235.952772 164.066157 
L 235.952772 163.278893 
L 236.805984 163.278893 
L 236.805984 162.49163 
L 237.669168 162.49163 
L 237.679029 160.917104 
L 238.047081 160.917104 
L 238.064633 159.342578 
L 238.211274 159.342578 
L 238.211274 158.555315 
L 238.446872 158.555315 
L 238.446872 157.768052 
L 238.930152 157.768052 
L 239.009419 156.193526 
L 239.11194 156.193526 
L 239.11194 155.406262 
L 239.391254 155.406262 
L 239.391254 154.618999 
L 239.672649 154.618999 
L 239.765073 153.044473 
L 240.251584 153.044473 
L 240.251584 152.25721 
L 240.375806 152.25721 
L 240.375806 151.469947 
L 240.488603 151.469947 
L 240.488603 150.682684 
L 241.295383 150.682684 
L 241.295383 149.895421 
L 241.508855 149.895421 
L 241.508855 149.108158 
L 242.015919 149.108158 
L 242.015919 148.320895 
L 243.113269 148.320895 
L 243.155284 146.746368 
L 243.364562 146.746368 
L 243.364562 145.959105 
L 243.799416 145.959105 
L 243.799416 145.171842 
L 244.20521 145.171842 
L 244.20521 144.384579 
L 244.565159 144.384579 
L 244.643185 142.810053 
L 244.8782 142.810053 
L 244.8782 142.02279 
L 245.228563 142.02279 
L 245.30558 140.448264 
L 245.566375 140.448264 
L 245.661313 138.086474 
L 245.710206 138.086474 
L 245.710206 137.299211 
L 245.970162 137.299211 
L 245.970162 136.511948 
L 246.230098 136.511948 
L 246.240571 134.937422 
L 246.347833 134.937422 
L 246.427101 133.362896 
L 246.807555 133.362896 
L 246.807555 132.575633 
L 247.054276 132.575633 
L 247.054276 131.78837 
L 247.182598 131.78837 
L 247.182598 131.001107 
L 247.32877 131.001107 
L 247.374603 129.42658 
L 247.993387 129.42658 
L 247.993387 128.639317 
L 248.134684 128.639317 
L 248.134684 127.852054 
L 248.620712 127.852054 
L 248.620712 127.064791 
L 248.816465 127.064791 
L 248.827333 124.703002 
L 249.516582 124.703002 
L 249.571592 123.128476 
L 249.652782 123.128476 
L 249.718062 121.553949 
L 249.769821 121.553949 
L 249.769821 120.766686 
L 249.889955 120.766686 
L 249.889955 119.979423 
L 250.381851 119.979423 
L 250.472775 118.404897 
L 250.543729 118.404897 
L 250.543729 117.617634 
L 251.321433 117.617634 
L 251.321433 116.830371 
L 251.850697 116.830371 
L 251.850697 116.043108 
L 251.982683 116.043108 
L 251.982683 115.255845 
L 252.185484 115.255845 
L 252.277447 113.681318 
L 252.547211 113.681318 
L 252.639634 112.106792 
L 252.669504 112.106792 
L 252.669504 111.319529 
L 252.816777 111.319529 
L 252.881992 109.745003 
L 253.282834 109.745003 
L 253.282834 108.95774 
L 253.64778 108.95774 
L 253.64778 108.170477 
L 253.856259 108.170477 
L 253.934549 106.595951 
L 254.067824 106.595951 
L 254.067824 105.808688 
L 254.625041 105.808688 
L 254.625041 105.021424 
L 254.75342 105.021424 
L 254.827089 103.446898 
L 255.227867 103.446898 
L 255.227867 102.659635 
L 255.672348 102.659635 
L 255.672348 101.872372 
L 255.942102 101.872372 
L 255.971734 100.297846 
L 256.26735 100.297846 
L 256.26735 99.510583 
L 256.386629 99.510583 
L 256.386629 98.72332 
L 256.811992 98.72332 
L 256.811992 97.936057 
L 256.936214 97.936057 
L 257.039451 95.574267 
L 257.164511 95.574267 
L 257.23818 93.999741 
L 257.43972 93.999741 
L 257.43972 93.212478 
L 258.844724 93.212478 
L 258.88224 91.637952 
L 259.800297 91.637952 
L 259.800297 90.850689 
L 260.419081 90.850689 
L 260.512874 89.276163 
L 262.151437 89.276163 
L 262.151437 88.488899 
L 262.447012 88.488899 
L 262.527343 86.914373 
L 262.838731 86.914373 
L 262.838731 86.12711 
L 263.543265 86.12711 
L 263.543265 85.339847 
L 263.743006 85.339847 
L 263.743006 84.552584 
L 263.907711 84.552584 
L 263.907711 83.765321 
L 264.960394 83.765321 
L 264.960394 82.978058 
L 265.152009 82.978058 
L 265.152009 82.190795 
L 265.666162 82.190795 
L 265.74543 79.829005 
L 266.050482 79.829005 
L 266.07699 78.254479 
L 266.20363 78.254479 
L 266.20363 77.467216 
L 266.31761 77.467216 
L 266.31761 76.679953 
L 266.450363 76.679953 
L 266.450363 75.89269 
L 267.061405 75.89269 
L 267.061405 75.105427 
L 267.364916 75.105427 
L 267.364916 74.318164 
L 268.077253 74.318164 
L 268.156521 72.743638 
L 268.504561 72.743638 
L 268.504561 71.956374 
L 268.628782 71.956374 
L 268.696554 70.381848 
L 268.812323 70.381848 
L 268.846295 68.807322 
L 270.628232 68.807322 
L 270.628232 68.020059 
L 271.470898 68.020059 
L 271.470898 67.232796 
L 271.756802 67.232796 
L 271.756802 66.445533 
L 272.518205 66.445533 
L 272.518205 65.65827 
L 272.966109 65.65827 
L 272.966109 64.871007 
L 273.657849 64.871007 
L 273.657849 64.083744 
L 273.78207 64.083744 
L 273.78207 63.29648 
L 275.321574 63.29648 
L 275.3772 61.721954 
L 275.435575 61.721954 
L 275.435575 60.934691 
L 276.333405 60.934691 
L 276.333405 60.147428 
L 277.769559 60.147428 
L 277.769559 59.360165 
L 278.142932 59.360165 
L 278.142932 58.572902 
L 279.078191 58.572902 
L 279.078191 57.785639 
L 279.399139 57.785639 
L 279.399139 56.998376 
L 280.588863 56.998376 
L 280.588863 56.211113 
L 281.141729 56.211113 
L 281.141729 55.423849 
L 282.320801 55.423849 
L 282.320801 54.636586 
L 282.922847 54.636586 
L 282.922847 53.849323 
L 283.29622 53.849323 
L 283.29622 53.06206 
L 283.621813 53.06206 
L 283.621813 52.274797 
L 287.474089 52.274797 
L 287.474089 51.487534 
L 291.091707 51.487534 
L 291.091707 50.700271 
L 293.567423 50.700271 
L 293.567423 49.913008 
L 295.314382 49.913008 
L 295.314382 49.125745 
L 296.244996 49.125745 
L 296.244996 48.338482 
L 300.46767 48.338482 
L 300.46767 47.551219 
L 301.393489 47.551219 
L 301.393489 46.763955 
L 301.805894 46.763955 
L 301.805894 45.976692 
L 308.045383 45.976692 
L 308.045383 45.189429 
L 308.457788 45.189429 
L 308.457788 44.402166 
L 308.811171 44.402166 
L 308.811171 43.614903 
L 309.223576 43.614903 
L 309.223576 42.82764 
L 313.991 42.82764 
L 313.991 42.040377 
L 327.914241 42.040377 
L 327.914241 41.253114 
L 328.1295 41.253114 
L 328.1295 40.465851 
L 328.541905 40.465851 
L 328.541905 39.678588 
L 329.01159 39.678588 
L 329.01159 38.891324 
L 330.540591 38.891324 
L 330.540591 38.104061 
L 330.952996 38.104061 
L 330.952996 37.316798 
L 338.175769 37.316798 
L 338.175769 36.529535 
L 350.087511 36.529535 
L 350.087511 35.742272 
L 351.05033 35.742272 
L 351.05033 34.955009 
L 355.970403 34.955009 
L 355.970403 34.167746 
L 358.057228 34.167746 
L 358.057228 33.380483 
L 366.871434 33.380483 
L 366.871434 32.59322 
L 369.826814 32.59322 
L 369.826814 31.805957 
L 378.474341 31.805957 
L 378.474341 31.018694 
L 389.0608 31.018694 
L 389.0608 30.23143 
L 394.655375 30.23143 
L 394.655375 29.444167 
L 398.117149 29.444167 
L 398.117149 28.656904 
L 403.982897 28.656904 
L 403.982897 27.869641 
L 404.601681 27.869641 
L 404.601681 27.082378 
L 412.994923 27.082378 
L 412.994923 26.295115 
L 420.516005 26.295115 
L 420.516005 25.507852 
L 437.750023 25.507852 
L 437.750023 24.720589 
L 453.192 24.720589 
L 453.192 24.720589 
" clip-path="url(#p65c42db255)" style="fill: none; stroke: #000000; stroke-width: 3; stroke-linecap: square"/>
   </g>
   <g id="line2d_60">
    <path clip-path="url(#p65c42db255)" style="fill: none; stroke: #000000; stroke-width: 3; stroke-linecap: square"/>
   </g>
   <g id="line2d_61">
    <path d="M 34.16 269.758524 
L 134.143661 269.758524 
L 134.143661 268.658807 
L 134.812712 268.658807 
L 134.812712 267.559089 
L 152.22348 267.559089 
L 152.22348 266.459371 
L 153.658936 266.459371 
L 153.738816 264.259936 
L 154.407868 264.259936 
L 154.407868 263.160218 
L 156.492731 263.160218 
L 156.492731 262.0605 
L 156.787063 262.0605 
L 156.787063 260.960783 
L 160.023458 260.960783 
L 160.023458 259.861065 
L 161.988616 259.861065 
L 161.988616 258.761347 
L 165.771925 258.761347 
L 165.771925 257.66163 
L 171.895328 257.66163 
L 171.895328 256.561912 
L 172.691656 256.561912 
L 172.763831 254.362477 
L 173.290194 254.362477 
L 173.290194 253.262759 
L 173.830331 253.262759 
L 173.830331 252.163041 
L 176.382219 252.163041 
L 176.382219 251.063323 
L 176.719818 251.063323 
L 176.719818 249.963606 
L 177.682583 249.963606 
L 177.682583 248.863888 
L 178.205509 248.863888 
L 178.205509 247.76417 
L 178.617938 247.76417 
L 178.617938 246.664453 
L 179.989247 246.664453 
L 179.989247 245.564735 
L 180.107575 245.564735 
L 180.107575 244.465017 
L 180.380012 244.465017 
L 180.380012 243.365299 
L 181.147871 243.365299 
L 181.147871 242.265582 
L 183.141641 242.265582 
L 183.141641 241.165864 
L 184.167116 241.165864 
L 184.167116 240.066146 
L 184.596993 240.066146 
L 184.596993 238.966429 
L 189.7512 238.966429 
L 189.7512 237.866711 
L 193.425486 237.866711 
L 193.425486 236.766993 
L 212.338346 236.766993 
L 212.338346 235.667276 
L 213.007398 235.667276 
L 213.007398 234.567558 
L 213.875279 234.567558 
L 213.875279 233.46784 
L 214.384894 233.46784 
L 214.384894 232.368122 
L 214.576346 232.368122 
L 214.576346 231.268405 
L 215.053945 231.268405 
L 215.053945 230.168687 
L 215.245397 230.168687 
L 215.310735 227.969252 
L 215.943653 227.969252 
L 215.943653 226.869534 
L 216.612705 226.869534 
L 216.612705 225.769816 
L 218.14453 225.769816 
L 218.14453 224.670098 
L 219.221439 224.670098 
L 219.221439 223.570381 
L 219.890491 223.570381 
L 219.890491 222.470663 
L 220.030294 222.470663 
L 220.030294 221.370945 
L 220.699345 221.370945 
L 220.699345 220.271228 
L 221.675258 220.271228 
L 221.675258 219.17151 
L 223.640415 219.17151 
L 223.640415 218.071792 
L 224.96867 218.071792 
L 224.96867 216.972074 
L 225.322683 216.972074 
L 225.322683 215.872357 
L 226.404126 215.872357 
L 226.404126 214.772639 
L 227.423725 214.772639 
L 227.423725 213.672921 
L 229.237921 213.672921 
L 229.237921 212.573204 
L 229.645376 212.573204 
L 229.645376 211.473486 
L 229.799767 211.473486 
L 229.799767 210.373768 
L 230.66827 210.373768 
L 230.66827 209.274051 
L 231.00282 209.274051 
L 231.08962 205.974897 
L 231.194632 205.974897 
L 231.194632 204.87518 
L 231.871323 204.87518 
L 231.871323 203.775462 
L 232.397685 203.775462 
L 232.397685 202.675744 
L 232.768649 202.675744 
L 232.768649 201.576027 
L 233.914627 201.576027 
L 233.914627 200.476309 
L 234.24214 200.476309 
L 234.343455 198.276873 
L 234.624257 198.276873 
L 234.733806 196.077438 
L 234.981749 196.077438 
L 234.981749 194.97772 
L 235.451309 194.97772 
L 235.451309 193.878003 
L 235.587022 193.878003 
L 235.587022 192.778285 
L 235.82731 192.778285 
L 235.82731 191.678567 
L 236.109947 191.678567 
L 236.109947 190.578849 
L 236.319812 190.578849 
L 236.319812 189.479132 
L 236.446193 189.479132 
L 236.522377 187.279696 
L 236.790075 187.279696 
L 236.883195 183.980543 
L 236.96502 183.980543 
L 237.028296 181.781108 
L 237.219748 181.781108 
L 237.313 179.581672 
L 237.445354 179.581672 
L 237.445354 178.481955 
L 237.72543 178.481955 
L 237.72543 177.382237 
L 237.893685 177.382237 
L 237.893685 176.282519 
L 238.284451 176.282519 
L 238.318651 174.083084 
L 238.517116 174.083084 
L 238.606294 170.783931 
L 239.052309 170.783931 
L 239.097846 167.484778 
L 239.410511 167.484778 
L 239.487503 165.285342 
L 239.768835 165.285342 
L 239.871612 163.085907 
L 240.255362 163.085907 
L 240.275799 160.886471 
L 240.540663 160.886471 
L 240.637338 158.687036 
L 241.04608 158.687036 
L 241.152446 156.487601 
L 241.163701 156.487601 
L 241.238564 154.288165 
L 241.444065 154.288165 
L 241.444065 153.188447 
L 241.759374 153.188447 
L 241.864842 149.889294 
L 242.071554 149.889294 
L 242.17392 147.689859 
L 242.249133 147.689859 
L 242.249133 146.590141 
L 242.501431 146.590141 
L 242.501431 145.490423 
L 242.673696 145.490423 
L 242.673696 144.390706 
L 243.193821 144.390706 
L 243.274607 141.091553 
L 243.477798 141.091553 
L 243.545228 138.892117 
L 243.704484 138.892117 
L 243.704484 137.792399 
L 243.908357 137.792399 
L 243.935993 135.592964 
L 244.14685 135.592964 
L 244.14685 134.493246 
L 244.593325 134.493246 
L 244.703852 130.094376 
L 244.733282 130.094376 
L 244.733282 128.994658 
L 245.36494 128.994658 
L 245.436847 125.695505 
L 245.55609 125.695505 
L 245.55609 124.595787 
L 246.079016 124.595787 
L 246.079016 123.496069 
L 246.22233 123.496069 
L 246.22233 122.396352 
L 246.491445 122.396352 
L 246.491445 121.296634 
L 246.648331 121.296634 
L 246.697623 119.097198 
L 246.891382 119.097198 
L 246.891382 117.997481 
L 247.655638 117.997481 
L 247.723097 115.798045 
L 247.862754 115.798045 
L 247.862754 114.698328 
L 248.152974 114.698328 
L 248.253519 112.498892 
L 248.295953 112.498892 
L 248.295953 111.399174 
L 248.858691 111.399174 
L 248.858691 110.299457 
L 249.021378 110.299457 
L 249.021378 109.199739 
L 250.113552 109.199739 
L 250.113552 108.100021 
L 250.431641 108.100021 
L 250.431641 107.000304 
L 251.015149 107.000304 
L 251.015149 105.900586 
L 252.025016 105.900586 
L 252.040623 103.701151 
L 252.4705 103.701151 
L 252.4705 102.601433 
L 252.852765 102.601433 
L 252.852765 101.501715 
L 253.307181 101.501715 
L 253.307181 100.401997 
L 254.071564 100.401997 
L 254.071564 99.30228 
L 254.263016 99.30228 
L 254.263016 98.202562 
L 255.630323 98.202562 
L 255.630323 97.102844 
L 257.258915 97.102844 
L 257.351371 94.903409 
L 257.52947 94.903409 
L 257.624707 92.703973 
L 258.908109 92.703973 
L 258.908109 91.604256 
L 259.716964 91.604256 
L 259.716964 90.504538 
L 262.515014 90.504538 
L 262.515014 89.40482 
L 264.575389 89.40482 
L 264.575389 88.305103 
L 264.76729 88.305103 
L 264.76729 87.205385 
L 265.882708 87.205385 
L 265.882708 86.105667 
L 266.121201 86.105667 
L 266.121201 85.005949 
L 267.339291 85.005949 
L 267.376685 82.806514 
L 268.067914 82.806514 
L 268.067914 81.706796 
L 268.736966 81.706796 
L 268.736966 80.607079 
L 268.865733 80.607079 
L 268.865733 79.507361 
L 269.441416 79.507361 
L 269.441416 78.407643 
L 276.854071 78.407643 
L 276.854071 77.307926 
L 279.558282 77.307926 
L 279.558282 76.208208 
L 282.925976 76.208208 
L 282.925976 75.10849 
L 283.164469 75.10849 
L 283.164469 74.008772 
L 284.382558 74.008772 
L 284.419952 71.809337 
L 285.909001 71.809337 
L 285.909001 70.709619 
L 290.711317 70.709619 
L 290.711317 69.609902 
L 295.893939 69.609902 
L 295.893939 68.510184 
L 298.097993 68.510184 
L 298.097993 67.410466 
L 300.258093 67.410466 
L 300.258093 66.310748 
L 300.749646 66.310748 
L 300.749646 65.211031 
L 303.095865 65.211031 
L 303.095865 64.111313 
L 306.200391 64.111313 
L 306.200391 63.011595 
L 306.987331 63.011595 
L 306.987331 61.911878 
L 307.403444 61.911878 
L 307.403444 60.81216 
L 307.754584 60.81216 
L 307.754584 59.712442 
L 309.191384 59.712442 
L 309.191384 58.612724 
L 311.351485 58.612724 
L 311.351485 57.513007 
L 311.664036 57.513007 
L 311.664036 56.413289 
L 311.843037 56.413289 
L 311.851934 54.213854 
L 313.868089 54.213854 
L 313.868089 53.114136 
L 314.189256 53.114136 
L 314.189256 52.014418 
L 316.02819 52.014418 
L 316.02819 50.914701 
L 316.16946 50.914701 
L 316.16946 49.814983 
L 316.519742 49.814983 
L 316.519742 48.715265 
L 318.865961 48.715265 
L 318.901855 46.51583 
L 321.105909 46.51583 
L 321.105909 45.416112 
L 323.266009 45.416112 
L 323.266009 44.316394 
L 323.757561 44.316394 
L 323.757561 43.216677 
L 326.10378 43.216677 
L 326.10378 42.116959 
L 326.227189 42.116959 
L 326.227189 41.017241 
L 331.093216 41.017241 
L 331.093216 39.917523 
L 335.453601 39.917523 
L 335.453601 38.817806 
L 337.32058 38.817806 
L 337.32058 37.718088 
L 337.500148 37.718088 
L 337.500148 36.61837 
L 337.6916 36.61837 
L 337.6916 35.518653 
L 339.058908 35.518653 
L 339.058908 34.418935 
L 341.997285 34.418935 
L 341.997285 33.319217 
L 342.186607 33.319217 
L 342.186607 32.2195 
L 342.336694 32.2195 
L 342.336694 31.119782 
L 343.145548 31.119782 
L 343.145548 30.020064 
L 346.863312 30.020064 
L 346.863312 28.920346 
L 349.235104 28.920346 
L 349.235104 27.820629 
L 354.101132 27.820629 
L 354.101132 26.720911 
L 362.986866 26.720911 
L 362.986866 25.621193 
L 366.35456 25.621193 
L 366.35456 24.521476 
L 366.593053 24.521476 
L 366.593053 23.421758 
L 367.811143 23.421758 
L 367.848537 21.222322 
L 369.337585 21.222322 
L 369.337585 20.122605 
L 391.183169 20.122605 
L 391.183169 19.022887 
L 453.192 19.022887 
L 453.192 19.022887 
" clip-path="url(#p65c42db255)" style="fill: none; stroke: #00bfbf; stroke-width: 3; stroke-linecap: square"/>
   </g>
   <g id="line2d_62">
    <path clip-path="url(#p65c42db255)" style="fill: none; stroke: #00bfbf; stroke-width: 3; stroke-linecap: square"/>
   </g>
   <g id="line2d_63">
    <path d="M 34.16 265.382097 
L 147.438124 265.382097 
L 147.438124 264.228515 
L 150.46154 264.228515 
L 150.46154 263.074934 
L 152.108271 263.074934 
L 152.108271 261.921353 
L 156.463863 261.921353 
L 156.463863 260.767771 
L 159.487279 260.767771 
L 159.487279 259.61419 
L 161.134009 259.61419 
L 161.134009 258.460608 
L 164.106641 258.460608 
L 164.106641 257.307027 
L 173.13238 257.307027 
L 173.13238 256.153445 
L 175.370963 256.153445 
L 175.370963 254.999864 
L 180.071375 254.999864 
L 180.071375 253.846283 
L 180.69116 253.846283 
L 180.69116 252.692701 
L 181.642084 252.692701 
L 181.642084 251.53912 
L 184.214274 251.53912 
L 184.214274 250.385538 
L 184.543546 250.385538 
L 184.543546 249.231957 
L 187.050827 249.231957 
L 187.050827 248.078375 
L 188.288428 248.078375 
L 188.288428 246.924794 
L 188.868624 246.924794 
L 188.868624 245.771212 
L 190.717345 245.771212 
L 190.816197 243.46405 
L 191.282024 243.46405 
L 191.282024 242.310468 
L 192.736466 242.310468 
L 192.736466 241.156887 
L 193.530219 241.156887 
L 193.530219 240.003305 
L 193.725697 240.003305 
L 193.725697 238.849724 
L 193.887711 238.849724 
L 193.887711 237.696142 
L 194.241355 237.696142 
L 194.241355 236.542561 
L 196.331871 236.542561 
L 196.331871 235.38898 
L 196.526332 235.38898 
L 196.526332 234.235398 
L 196.867586 234.235398 
L 196.867586 233.081817 
L 197.314167 233.081817 
L 197.314167 231.928235 
L 198.760366 231.928235 
L 198.760366 230.774654 
L 199.203257 230.774654 
L 199.271922 228.467491 
L 210.688801 228.467491 
L 210.688801 227.31391 
L 211.75898 227.31391 
L 211.75898 226.160328 
L 212.739038 226.160328 
L 212.739038 225.006747 
L 213.54857 225.006747 
L 213.54857 223.853165 
L 213.712216 223.853165 
L 213.712216 222.699584 
L 214.782395 222.699584 
L 214.782395 221.546002 
L 215.358947 221.546002 
L 215.358947 220.392421 
L 215.700627 220.392421 
L 215.762454 218.085258 
L 216.429126 218.085258 
L 216.429126 216.931677 
L 216.571985 216.931677 
L 216.571985 215.778095 
L 217.409185 215.778095 
L 217.409185 214.624514 
L 217.606096 214.624514 
L 217.606096 213.470932 
L 218.218716 213.470932 
L 218.218716 212.317351 
L 218.724042 212.317351 
L 218.724042 211.16377 
L 220.370773 211.16377 
L 220.370773 210.010188 
L 220.629511 210.010188 
L 220.629511 208.856607 
L 221.431843 208.856607 
L 221.431843 207.703025 
L 221.653926 207.703025 
L 221.653926 206.549444 
L 222.276242 206.549444 
L 222.276242 205.395862 
L 222.522601 205.395862 
L 222.522601 204.242281 
L 223.502647 204.242281 
L 223.502647 203.088699 
L 224.067326 203.088699 
L 224.067326 201.935118 
L 224.371322 201.935118 
L 224.371322 200.781537 
L 224.936001 200.781537 
L 224.936001 199.627955 
L 225.356845 199.627955 
L 225.356845 198.474374 
L 225.521768 198.474374 
L 225.521768 197.320792 
L 226.132255 197.320792 
L 226.132255 196.167211 
L 226.31552 196.167211 
L 226.390443 193.860048 
L 226.510998 193.860048 
L 226.510998 192.706467 
L 226.673013 192.706467 
L 226.75204 190.399304 
L 227.026657 190.399304 
L 227.026657 189.245722 
L 227.184196 189.245722 
L 227.247982 186.938559 
L 227.357317 186.938559 
L 227.379673 184.631397 
L 227.541688 184.631397 
L 227.541688 183.477815 
L 227.702964 183.477815 
L 227.702964 182.324234 
L 227.895332 182.324234 
L 227.895332 181.170652 
L 228.427497 181.170652 
L 228.427497 180.017071 
L 229.096703 180.017071 
L 229.117172 177.709908 
L 229.311634 177.709908 
L 229.407555 175.402745 
L 229.652887 175.402745 
L 229.661382 173.095582 
L 229.985847 173.095582 
L 230.057258 170.788419 
L 230.180309 170.788419 
L 230.275153 167.327675 
L 230.521562 167.327675 
L 230.604426 165.020512 
L 230.677042 165.020512 
L 230.677042 163.866931 
L 231.115824 163.866931 
L 231.115824 162.713349 
L 231.367253 162.713349 
L 231.367253 161.559768 
L 231.545667 161.559768 
L 231.627966 159.252605 
L 231.909577 159.252605 
L 231.988558 156.945442 
L 232.057224 156.945442 
L 232.105054 154.638279 
L 232.267069 154.638279 
L 232.369143 152.331116 
L 232.414343 152.331116 
L 232.414343 151.177535 
L 232.620713 151.177535 
L 232.620713 150.023954 
L 232.857233 150.023954 
L 232.925899 147.716791 
L 232.994086 147.716791 
L 232.994086 146.563209 
L 233.111707 146.563209 
L 233.215974 144.256046 
L 233.780653 144.256046 
L 233.780653 143.102465 
L 234.200156 143.102465 
L 234.274613 140.795302 
L 234.351657 140.795302 
L 234.351657 139.641721 
L 234.529429 139.641721 
L 234.529429 138.488139 
L 234.659802 138.488139 
L 234.711228 136.180976 
L 234.90569 136.180976 
L 234.90569 135.027395 
L 235.235095 135.027395 
L 235.246943 132.720232 
L 236.028847 132.720232 
L 236.028847 131.566651 
L 236.224325 131.566651 
L 236.224325 130.413069 
L 236.38634 130.413069 
L 236.38634 129.259488 
L 236.739984 129.259488 
L 236.739984 128.105906 
L 236.877077 128.105906 
L 236.920905 124.645162 
L 237.03671 124.645162 
L 237.139724 122.337999 
L 237.415012 122.337999 
L 237.415012 121.184418 
L 237.582614 121.184418 
L 237.65128 118.877255 
L 237.694498 118.877255 
L 237.694498 117.723673 
L 238.314283 117.723673 
L 238.314283 116.570092 
L 238.591801 116.570092 
L 238.591801 115.416511 
L 238.830499 115.416511 
L 238.830499 114.262929 
L 239.024961 114.262929 
L 239.024961 113.109348 
L 239.265207 113.109348 
L 239.373748 108.495022 
L 239.512294 108.495022 
L 239.512294 107.341441 
L 239.842443 107.341441 
L 239.842443 106.187859 
L 239.979998 106.187859 
L 239.979998 105.034278 
L 240.438427 105.034278 
L 240.438427 103.880696 
L 240.802079 103.880696 
L 240.802079 102.727115 
L 240.930923 102.727115 
L 240.930923 101.573533 
L 241.174808 101.573533 
L 241.258994 99.266371 
L 241.433533 99.266371 
L 241.433533 98.112789 
L 241.701885 98.112789 
L 241.770551 95.805626 
L 241.837397 95.805626 
L 241.837397 94.652045 
L 242.085158 94.652045 
L 242.16667 92.344882 
L 242.397163 92.344882 
L 242.397163 91.191301 
L 242.865859 91.191301 
L 242.865859 90.037719 
L 243.005317 90.037719 
L 243.005317 88.884138 
L 243.503112 88.884138 
L 243.503112 87.730556 
L 243.711494 87.730556 
L 243.711494 86.576975 
L 243.832385 86.576975 
L 243.832385 85.423393 
L 244.043894 85.423393 
L 244.043894 84.269812 
L 244.198224 84.269812 
L 244.198224 83.11623 
L 244.456948 83.11623 
L 244.51259 80.809068 
L 244.67395 80.809068 
L 244.67395 79.655486 
L 245.844955 79.655486 
L 245.844955 78.501905 
L 246.028732 78.501905 
L 246.103679 76.194742 
L 246.339666 76.194742 
L 246.339666 75.04116 
L 247.675463 75.04116 
L 247.675463 73.887579 
L 248.43932 73.887579 
L 248.43932 72.733998 
L 250.105035 72.733998 
L 250.105035 71.580416 
L 251.539105 71.580416 
L 251.539105 70.426835 
L 252.609284 70.426835 
L 252.609284 69.273253 
L 253.589342 69.273253 
L 253.589342 68.119672 
L 254.083529 68.119672 
L 254.083529 66.96609 
L 254.398873 66.96609 
L 254.398873 65.812509 
L 256.042265 65.812509 
L 256.042265 64.658928 
L 256.51096 64.658928 
L 256.55093 62.351765 
L 257.843325 62.351765 
L 257.843325 61.198183 
L 258.10205 61.198183 
L 258.10205 60.044602 
L 258.4564 60.044602 
L 258.4564 58.89102 
L 259.673833 58.89102 
L 259.673833 57.737439 
L 261.406792 57.737439 
L 261.406792 56.583858 
L 264.976127 56.583858 
L 264.976127 55.430276 
L 265.767458 55.430276 
L 265.767458 54.276695 
L 267.999542 54.276695 
L 267.999542 53.123113 
L 269.646273 53.123113 
L 269.646273 51.969532 
L 276.496795 51.969532 
L 276.496795 50.81595 
L 277.365471 50.81595 
L 277.365471 49.662369 
L 278.265316 49.662369 
L 278.265316 48.508788 
L 280.224052 48.508788 
L 280.224052 47.355206 
L 280.412537 47.355206 
L 280.412537 46.201625 
L 280.692747 46.201625 
L 280.692747 45.048043 
L 281.644644 45.048043 
L 281.644644 43.894462 
L 282.025112 43.894462 
L 282.090851 41.587299 
L 282.283837 41.587299 
L 282.283837 40.433717 
L 282.962769 40.433717 
L 282.981785 38.126555 
L 283.855621 38.126555 
L 283.855621 36.972973 
L 284.337539 36.972973 
L 284.337539 35.819392 
L 284.652681 35.819392 
L 284.652681 34.66581 
L 285.573174 34.66581 
L 285.573174 33.512229 
L 286.210122 33.512229 
L 286.210122 32.358647 
L 286.887771 32.358647 
L 286.906787 30.051485 
L 288.577684 30.051485 
L 288.577684 28.897903 
L 289.498176 28.897903 
L 289.498176 27.744322 
L 291.97478 27.744322 
L 291.97478 26.59074 
L 293.640495 26.59074 
L 293.640495 25.437159 
L 294.525012 25.437159 
L 294.544028 23.129996 
L 296.190728 23.129996 
L 296.214925 19.669252 
L 297.135417 19.669252 
L 297.135417 18.51567 
L 297.88064 18.51567 
L 297.88064 17.362089 
L 298.801133 17.362089 
L 298.801133 16.208507 
L 305.826431 16.208507 
L 305.826431 15.054926 
L 307.467672 15.054926 
L 307.467672 13.901345 
L 311.392675 13.901345 
L 311.392675 12.747763 
L 311.828338 12.747763 
L 311.828338 11.594182 
L 315.75334 11.594182 
L 315.75334 10.4406 
L 319.029915 10.4406 
L 319.029915 9.287019 
L 320.695631 9.287019 
L 320.695631 8.133437 
L 323.390581 8.133437 
L 323.390581 6.979856 
L 325.056297 6.979856 
L 325.056297 5.826275 
L 453.192 5.826275 
L 453.192 5.826275 
" clip-path="url(#p65c42db255)" style="fill: none; stroke: #bf00bf; stroke-width: 3; stroke-linecap: square"/>
   </g>
   <g id="line2d_64">
    <path clip-path="url(#p65c42db255)" style="fill: none; stroke: #bf00bf; stroke-width: 3; stroke-linecap: square"/>
   </g>
   <g id="line2d_65">
    <path d="M 34.16 265.382097 
L 157.133647 265.382097 
L 157.133647 264.228515 
L 160.207681 264.228515 
L 160.207681 263.074934 
L 160.907526 263.074934 
L 160.907526 261.921353 
L 162.93638 261.921353 
L 162.93638 260.767771 
L 163.34025 260.767771 
L 163.34025 259.61419 
L 166.414284 259.61419 
L 166.414284 258.460608 
L 167.114129 258.460608 
L 167.114129 257.307027 
L 169.142983 257.307027 
L 169.142983 256.153445 
L 172.49282 256.153445 
L 172.49282 254.999864 
L 173.700876 254.999864 
L 173.700876 253.846283 
L 173.933221 253.846283 
L 173.933221 252.692701 
L 174.253774 252.692701 
L 174.253774 251.53912 
L 174.866085 251.53912 
L 174.866085 250.385538 
L 175.168014 250.385538 
L 175.168014 249.231957 
L 175.419123 249.231957 
L 175.43836 246.924794 
L 175.868237 246.924794 
L 175.868237 245.771212 
L 176.729972 245.771212 
L 176.803849 243.46405 
L 177.033647 243.46405 
L 177.033647 242.310468 
L 178.034978 242.310468 
L 178.034978 241.156887 
L 178.291636 241.156887 
L 178.291636 240.003305 
L 184.985512 240.003305 
L 184.985512 238.849724 
L 187.021768 238.849724 
L 187.021768 237.696142 
L 190.240476 237.696142 
L 190.250365 235.38898 
L 190.770272 235.38898 
L 190.770272 234.235398 
L 191.033185 234.235398 
L 191.033185 233.081817 
L 191.530271 233.081817 
L 191.530271 231.928235 
L 193.069441 231.928235 
L 193.069441 230.774654 
L 194.587924 230.774654 
L 194.622899 228.467491 
L 195.120985 228.467491 
L 195.120985 227.31391 
L 196.288149 227.31391 
L 196.298038 225.006747 
L 196.596475 225.006747 
L 196.596475 223.853165 
L 196.817945 223.853165 
L 196.817945 222.699584 
L 197.157241 222.699584 
L 197.157241 221.546002 
L 197.577944 221.546002 
L 197.577944 220.392421 
L 199.655757 220.392421 
L 199.655757 219.23884 
L 200.375949 219.23884 
L 200.385838 216.931677 
L 200.670572 216.931677 
L 200.670572 215.778095 
L 200.794526 215.778095 
L 200.863813 213.470932 
L 200.905745 213.470932 
L 200.905745 212.317351 
L 201.096158 212.317351 
L 201.096158 211.16377 
L 201.416711 211.16377 
L 201.416711 210.010188 
L 201.665744 210.010188 
L 201.665744 208.856607 
L 202.029023 208.856607 
L 202.029023 207.703025 
L 202.330952 207.703025 
L 202.330952 206.549444 
L 202.58206 206.549444 
L 202.644148 203.088699 
L 203.031174 203.088699 
L 203.031174 201.935118 
L 203.892909 201.935118 
L 203.966786 199.627955 
L 204.196584 199.627955 
L 204.196584 198.474374 
L 204.758372 198.474374 
L 204.758372 197.320792 
L 205.197916 197.320792 
L 205.197916 196.167211 
L 205.454573 196.167211 
L 205.454573 195.013629 
L 206.731948 195.013629 
L 206.731948 193.860048 
L 210.270077 193.860048 
L 210.270077 192.706467 
L 211.768615 192.706467 
L 211.768615 191.552885 
L 213.344111 191.552885 
L 213.344111 190.399304 
L 213.72604 190.399304 
L 213.807296 188.092141 
L 214.043956 188.092141 
L 214.043956 186.938559 
L 214.842649 186.938559 
L 214.842649 185.784978 
L 215.542494 185.784978 
L 215.542494 184.631397 
L 216.07281 184.631397 
L 216.172171 182.324234 
L 216.70987 182.324234 
L 216.800074 180.017071 
L 216.88133 180.017071 
L 216.88133 178.863489 
L 217.499919 178.863489 
L 217.581175 175.402745 
L 217.647417 175.402745 
L 217.647417 174.249164 
L 219.246205 174.249164 
L 219.246205 173.095582 
L 219.528773 173.095582 
L 219.610029 170.788419 
L 219.783905 170.788419 
L 219.783905 169.634838 
L 219.94605 169.634838 
L 219.94605 168.481257 
L 220.483749 168.481257 
L 220.483749 167.327675 
L 220.820495 167.327675 
L 220.820495 166.174094 
L 221.974904 166.174094 
L 221.98712 163.866931 
L 222.512604 163.866931 
L 222.512604 162.713349 
L 222.856752 162.713349 
L 222.856752 161.559768 
L 224.023376 161.559768 
L 224.023376 160.406186 
L 224.675739 160.406186 
L 224.675739 159.252605 
L 225.883795 159.252605 
L 225.883795 158.099024 
L 226.075459 158.099024 
L 226.11614 154.638279 
L 226.436693 154.638279 
L 226.436693 153.484698 
L 226.605256 153.484698 
L 226.605256 152.331116 
L 226.833233 152.331116 
L 226.833233 151.177535 
L 227.049005 151.177535 
L 227.049005 150.023954 
L 227.242083 150.023954 
L 227.350934 146.563209 
L 227.365254 146.563209 
L 227.365254 145.409628 
L 227.602042 145.409628 
L 227.621279 143.102465 
L 227.77188 143.102465 
L 227.77188 141.948884 
L 228.041289 141.948884 
L 228.051156 139.641721 
L 228.273634 139.641721 
L 228.273634 138.488139 
L 228.531879 138.488139 
L 228.594188 136.180976 
L 228.912892 136.180976 
L 228.986768 133.873814 
L 229.206499 133.873814 
L 229.216566 131.566651 
L 229.508428 131.566651 
L 229.508428 130.413069 
L 229.759537 130.413069 
L 229.778773 128.105906 
L 230.20865 128.105906 
L 230.217898 125.798743 
L 230.457883 125.798743 
L 230.474556 123.491581 
L 231.070386 123.491581 
L 231.144262 120.030836 
L 231.374061 120.030836 
L 231.374061 118.877255 
L 231.624507 118.877255 
L 231.624507 117.723673 
L 232.306502 117.723673 
L 232.375392 115.416511 
L 232.431459 115.416511 
L 232.538847 113.109348 
L 232.63205 113.109348 
L 232.663086 110.802185 
L 232.8594 110.802185 
L 232.8594 109.648603 
L 233.471711 109.648603 
L 233.471711 108.495022 
L 233.598083 108.495022 
L 233.598083 107.341441 
L 233.77364 107.341441 
L 233.77364 106.187859 
L 234.024749 106.187859 
L 234.043986 103.880696 
L 234.317658 103.880696 
L 234.317658 102.727115 
L 234.473863 102.727115 
L 234.473863 101.573533 
L 234.664913 101.573533 
L 234.664913 100.419952 
L 235.335598 100.419952 
L 235.409474 98.112789 
L 235.639273 98.112789 
L 235.639273 96.959208 
L 236.074784 96.959208 
L 236.074784 95.805626 
L 236.640604 95.805626 
L 236.640604 94.652045 
L 236.819912 94.652045 
L 236.897262 92.344882 
L 237.360703 92.344882 
L 237.360703 91.191301 
L 238.001205 91.191301 
L 238.001205 90.037719 
L 238.710759 90.037719 
L 238.710759 88.884138 
L 239.154899 88.884138 
L 239.154899 87.730556 
L 239.893947 87.730556 
L 239.893947 86.576975 
L 240.225383 86.576975 
L 240.225383 85.423393 
L 240.365331 85.423393 
L 240.366462 83.11623 
L 240.593791 83.11623 
L 240.593791 81.962649 
L 240.712586 81.962649 
L 240.712586 80.809068 
L 241.075239 80.809068 
L 241.075239 79.655486 
L 241.775084 79.655486 
L 241.775084 78.501905 
L 241.994126 78.501905 
L 241.994126 77.348323 
L 242.122457 77.348323 
L 242.228934 75.04116 
L 242.622646 75.04116 
L 242.622646 73.887579 
L 242.798559 73.887579 
L 242.798559 72.733998 
L 242.928778 72.733998 
L 242.928778 71.580416 
L 243.299418 71.580416 
L 243.408377 69.273253 
L 243.440496 69.273253 
L 243.440496 68.119672 
L 243.803938 68.119672 
L 243.803938 66.96609 
L 243.999262 66.96609 
L 243.999262 65.812509 
L 244.140341 65.812509 
L 244.140341 64.658928 
L 244.453131 64.658928 
L 244.453131 63.505346 
L 244.800386 63.505346 
L 244.810354 61.198183 
L 244.957633 61.198183 
L 245.06816 58.89102 
L 245.768004 58.89102 
L 245.768004 57.737439 
L 246.028116 57.737439 
L 246.028116 56.583858 
L 246.169195 56.583858 
L 246.210257 54.276695 
L 247.496176 54.276695 
L 247.496176 53.123113 
L 247.724353 53.123113 
L 247.796859 50.81595 
L 249.222892 50.81595 
L 249.222892 49.662369 
L 251.180316 49.662369 
L 251.261572 47.355206 
L 253.626447 47.355206 
L 253.626447 46.201625 
L 254.164147 46.201625 
L 254.164147 45.048043 
L 256.67565 45.048043 
L 256.67565 43.894462 
L 260.275019 43.894462 
L 260.275019 42.74088 
L 262.723323 42.74088 
L 262.723323 41.587299 
L 263.224023 41.587299 
L 263.224023 40.433717 
L 266.298058 40.433717 
L 266.322692 38.126555 
L 266.811123 38.126555 
L 266.811123 36.972973 
L 266.997902 36.972973 
L 266.997902 35.819392 
L 268.49807 35.819392 
L 268.49807 34.66581 
L 269.026757 34.66581 
L 269.026757 33.512229 
L 269.664694 33.512229 
L 269.664694 32.358647 
L 269.830336 32.358647 
L 269.830336 31.205066 
L 270.152642 31.205066 
L 270.152642 30.051485 
L 270.410492 30.051485 
L 270.499897 27.744322 
L 271.319266 27.744322 
L 271.319266 26.59074 
L 271.666521 26.59074 
L 271.666521 25.437159 
L 271.909767 25.437159 
L 271.98783 23.129996 
L 273.076391 23.129996 
L 273.076391 21.976415 
L 273.195687 21.976415 
L 273.195687 20.822833 
L 274.274189 20.822833 
L 274.362311 18.51567 
L 275.455482 18.51567 
L 275.455482 17.362089 
L 276.253043 17.362089 
L 276.253043 16.208507 
L 276.609176 16.208507 
L 276.609176 15.054926 
L 277.67966 15.054926 
L 277.67966 13.901345 
L 277.820739 13.901345 
L 277.820739 12.747763 
L 279.448402 12.747763 
L 279.448402 11.594182 
L 292.510634 11.594182 
L 292.510634 10.4406 
L 293.677258 10.4406 
L 293.677258 9.287019 
L 296.110003 9.287019 
L 296.110003 8.133437 
L 297.276627 8.133437 
L 297.276627 6.979856 
L 300.6783 6.979856 
L 300.6783 5.826275 
L 453.192 5.826275 
L 453.192 5.826275 
" clip-path="url(#p65c42db255)" style="fill: none; stroke: #ff0000; stroke-width: 3; stroke-linecap: square"/>
   </g>
   <g id="line2d_66">
    <path clip-path="url(#p65c42db255)" style="fill: none; stroke: #ff0000; stroke-width: 3; stroke-linecap: square"/>
   </g>
   <g id="line2d_67">
    <path d="M 243.676 291.28 
L 243.676 3 
" clip-path="url(#p65c42db255)" style="fill: none; stroke: #000000; stroke-width: 1.5; stroke-linecap: square"/>
   </g>
   <g id="line2d_68">
    <path d="M 34.16 147.14 
L 453.192 147.14 
" clip-path="url(#p65c42db255)" style="fill: none; stroke-dasharray: 2,3.3; stroke-dashoffset: 0; stroke: #000000; stroke-width: 2"/>
   </g>
   <g id="patch_3">
    <path d="M 34.16 291.28 
L 34.16 3 
" style="fill: none; stroke: #000000; stroke-width: 0.8; stroke-linejoin: miter; stroke-linecap: square"/>
   </g>
   <g id="patch_4">
    <path d="M 453.192 291.28 
L 453.192 3 
" style="fill: none; stroke: #000000; stroke-width: 0.8; stroke-linejoin: miter; stroke-linecap: square"/>
   </g>
   <g id="patch_5">
    <path d="M 34.16 291.28 
L 453.192 291.28 
" style="fill: none; stroke: #000000; stroke-width: 0.8; stroke-linejoin: miter; stroke-linecap: square"/>
   </g>
   <g id="patch_6">
    <path d="M 34.16 3 
L 453.192 3 
" style="fill: none; stroke: #000000; stroke-width: 0.8; stroke-linejoin: miter; stroke-linecap: square"/>
   </g>
   <g id="text_5">
    <!-- f15-f19,10-D -->
    <g transform="translate(318.19261 285.5144) scale(0.2 -0.2)">
     <defs>
      <path id="DejaVuSans-35" d="M 691 4666 
L 3169 4666 
L 3169 4134 
L 1269 4134 
L 1269 2991 
Q 1406 3038 1543 3061 
Q 1681 3084 1819 3084 
Q 2600 3084 3056 2656 
Q 3513 2228 3513 1497 
Q 3513 744 3044 326 
Q 2575 -91 1722 -91 
Q 1428 -91 1123 -41 
Q 819 9 494 109 
L 494 744 
Q 775 591 1075 516 
Q 1375 441 1709 441 
Q 2250 441 2565 725 
Q 2881 1009 2881 1497 
Q 2881 1984 2565 2268 
Q 2250 2553 1709 2553 
Q 1456 2553 1204 2497 
Q 953 2441 691 2322 
L 691 4666 
z
" transform="scale(0.015625)"/>
      <path id="DejaVuSans-39" d="M 703 97 
L 703 672 
Q 941 559 1184 500 
Q 1428 441 1663 441 
Q 2288 441 2617 861 
Q 2947 1281 2994 2138 
Q 2813 1869 2534 1725 
Q 2256 1581 1919 1581 
Q 1219 1581 811 2004 
Q 403 2428 403 3163 
Q 403 3881 828 4315 
Q 1253 4750 1959 4750 
Q 2769 4750 3195 4129 
Q 3622 3509 3622 2328 
Q 3622 1225 3098 567 
Q 2575 -91 1691 -91 
Q 1453 -91 1209 -44 
Q 966 3 703 97 
z
M 1959 2075 
Q 2384 2075 2632 2365 
Q 2881 2656 2881 3163 
Q 2881 3666 2632 3958 
Q 2384 4250 1959 4250 
Q 1534 4250 1286 3958 
Q 1038 3666 1038 3163 
Q 1038 2656 1286 2365 
Q 1534 2075 1959 2075 
z
" transform="scale(0.015625)"/>
      <path id="DejaVuSans-2c" d="M 750 794 
L 1409 794 
L 1409 256 
L 897 -744 
L 494 -744 
L 750 256 
L 750 794 
z
" transform="scale(0.015625)"/>
      <path id="DejaVuSans-44" d="M 1259 4147 
L 1259 519 
L 2022 519 
Q 2988 519 3436 956 
Q 3884 1394 3884 2338 
Q 3884 3275 3436 3711 
Q 2988 4147 2022 4147 
L 1259 4147 
z
M 628 4666 
L 1925 4666 
Q 3281 4666 3915 4102 
Q 4550 3538 4550 2338 
Q 4550 1131 3912 565 
Q 3275 0 1925 0 
L 628 0 
L 628 4666 
z
" transform="scale(0.015625)"/>
     </defs>
     <use xlink:href="#DejaVuSans-66"/>
     <use xlink:href="#DejaVuSans-31" x="35.205078"/>
     <use xlink:href="#DejaVuSans-35" x="98.828125"/>
     <use xlink:href="#DejaVuSans-2d" x="162.451172"/>
     <use xlink:href="#DejaVuSans-66" x="198.535156"/>
     <use xlink:href="#DejaVuSans-31" x="233.740234"/>
     <use xlink:href="#DejaVuSans-39" x="297.363281"/>
     <use xlink:href="#DejaVuSans-2c" x="360.986328"/>
     <use xlink:href="#DejaVuSans-31" x="392.773438"/>
     <use xlink:href="#DejaVuSans-30" x="456.396484"/>
     <use xlink:href="#DejaVuSans-2d" x="520.019531"/>
     <use xlink:href="#DejaVuSans-44" x="556.103516"/>
    </g>
   </g>
   <g id="text_6">
    <!-- v2.6.3 -->
    <g style="fill: #808080" transform="translate(227.99475 286.317512) scale(0.1 -0.1)">
     <defs>
      <path id="DejaVuSans-32" d="M 1228 531 
L 3431 531 
L 3431 0 
L 469 0 
L 469 531 
Q 828 903 1448 1529 
Q 2069 2156 2228 2338 
Q 2531 2678 2651 2914 
Q 2772 3150 2772 3378 
Q 2772 3750 2511 3984 
Q 2250 4219 1831 4219 
Q 1534 4219 1204 4116 
Q 875 4013 500 3803 
L 500 4441 
Q 881 4594 1212 4672 
Q 1544 4750 1819 4750 
Q 2544 4750 2975 4387 
Q 3406 4025 3406 3419 
Q 3406 3131 3298 2873 
Q 3191 2616 2906 2266 
Q 2828 2175 2409 1742 
Q 1991 1309 1228 531 
z
" transform="scale(0.015625)"/>
      <path id="DejaVuSans-2e" d="M 684 794 
L 1344 794 
L 1344 0 
L 684 0 
L 684 794 
z
" transform="scale(0.015625)"/>
      <path id="DejaVuSans-36" d="M 2113 2584 
Q 1688 2584 1439 2293 
Q 1191 2003 1191 1497 
Q 1191 994 1439 701 
Q 1688 409 2113 409 
Q 2538 409 2786 701 
Q 3034 994 3034 1497 
Q 3034 2003 2786 2293 
Q 2538 2584 2113 2584 
z
M 3366 4563 
L 3366 3988 
Q 3128 4100 2886 4159 
Q 2644 4219 2406 4219 
Q 1781 4219 1451 3797 
Q 1122 3375 1075 2522 
Q 1259 2794 1537 2939 
Q 1816 3084 2150 3084 
Q 2853 3084 3261 2657 
Q 3669 2231 3669 1497 
Q 3669 778 3244 343 
Q 2819 -91 2113 -91 
Q 1303 -91 875 529 
Q 447 1150 447 2328 
Q 447 3434 972 4092 
Q 1497 4750 2381 4750 
Q 2619 4750 2861 4703 
Q 3103 4656 3366 4563 
z
" transform="scale(0.015625)"/>
      <path id="DejaVuSans-33" d="M 2597 2516 
Q 3050 2419 3304 2112 
Q 3559 1806 3559 1356 
Q 3559 666 3084 287 
Q 2609 -91 1734 -91 
Q 1441 -91 1130 -33 
Q 819 25 488 141 
L 488 750 
Q 750 597 1062 519 
Q 1375 441 1716 441 
Q 2309 441 2620 675 
Q 2931 909 2931 1356 
Q 2931 1769 2642 2001 
Q 2353 2234 1838 2234 
L 1294 2234 
L 1294 2753 
L 1863 2753 
Q 2328 2753 2575 2939 
Q 2822 3125 2822 3475 
Q 2822 3834 2567 4026 
Q 2313 4219 1838 4219 
Q 1578 4219 1281 4162 
Q 984 4106 628 3988 
L 628 4550 
Q 988 4650 1302 4700 
Q 1616 4750 1894 4750 
Q 2613 4750 3031 4423 
Q 3450 4097 3450 3541 
Q 3450 3153 3228 2886 
Q 3006 2619 2597 2516 
z
" transform="scale(0.015625)"/>
     </defs>
     <use xlink:href="#DejaVuSans-76"/>
     <use xlink:href="#DejaVuSans-32" x="59.179688"/>
     <use xlink:href="#DejaVuSans-2e" x="122.802734"/>
     <use xlink:href="#DejaVuSans-36" x="154.589844"/>
     <use xlink:href="#DejaVuSans-2e" x="218.212891"/>
     <use xlink:href="#DejaVuSans-33" x="250"/>
    </g>
   </g>
   <g id="legend_1">
    <g id="patch_7">
     <path d="M 48.16 136.425 
L 177.381875 136.425 
Q 181.381875 136.425 181.381875 132.425 
L 181.381875 17 
Q 181.381875 13 177.381875 13 
L 48.16 13 
Q 44.16 13 44.16 17 
L 44.16 132.425 
Q 44.16 136.425 48.16 136.425 
z
" style="fill: #ffffff; opacity: 0.2; stroke: #cccccc; stroke-linejoin: miter"/>
    </g>
    <g id="line2d_69">
     <path d="M 52.16 29.196875 
L 72.16 29.196875 
L 92.16 29.196875 
" style="fill: none; stroke: #000000; stroke-width: 3; stroke-linecap: square"/>
    </g>
    <g id="text_7">
     <!-- 1: 5/5 -->
     <g transform="translate(108.16 36.196875) scale(0.2 -0.2)">
      <defs>
       <path id="DejaVuSans-3a" d="M 750 794 
L 1409 794 
L 1409 0 
L 750 0 
L 750 794 
z
M 750 3309 
L 1409 3309 
L 1409 2516 
L 750 2516 
L 750 3309 
z
" transform="scale(0.015625)"/>
       <path id="DejaVuSans-2f" d="M 1625 4666 
L 2156 4666 
L 531 -594 
L 0 -594 
L 1625 4666 
z
" transform="scale(0.015625)"/>
      </defs>
      <use xlink:href="#DejaVuSans-31"/>
      <use xlink:href="#DejaVuSans-3a" x="63.623047"/>
      <use xlink:href="#DejaVuSans-20" x="97.314453"/>
      <use xlink:href="#DejaVuSans-35" x="129.101562"/>
      <use xlink:href="#DejaVuSans-2f" x="192.724609"/>
      <use xlink:href="#DejaVuSans-35" x="226.416016"/>
     </g>
    </g>
    <g id="line2d_70">
     <path d="M 52.16 58.553125 
L 72.16 58.553125 
L 92.16 58.553125 
" style="fill: none; stroke: #00bfbf; stroke-width: 3; stroke-linecap: square"/>
    </g>
    <g id="text_8">
     <!-- -1: 5/4 -->
     <g transform="translate(108.16 65.553125) scale(0.2 -0.2)">
      <defs>
       <path id="DejaVuSans-34" d="M 2419 4116 
L 825 1625 
L 2419 1625 
L 2419 4116 
z
M 2253 4666 
L 3047 4666 
L 3047 1625 
L 3713 1625 
L 3713 1100 
L 3047 1100 
L 3047 0 
L 2419 0 
L 2419 1100 
L 313 1100 
L 313 1709 
L 2253 4666 
z
" transform="scale(0.015625)"/>
      </defs>
      <use xlink:href="#DejaVuSans-2d"/>
      <use xlink:href="#DejaVuSans-31" x="36.083984"/>
      <use xlink:href="#DejaVuSans-3a" x="99.707031"/>
      <use xlink:href="#DejaVuSans-20" x="133.398438"/>
      <use xlink:href="#DejaVuSans-35" x="165.185547"/>
      <use xlink:href="#DejaVuSans-2f" x="228.808594"/>
      <use xlink:href="#DejaVuSans-34" x="262.5"/>
     </g>
    </g>
    <g id="line2d_71">
     <path d="M 52.16 87.909375 
L 72.16 87.909375 
L 92.16 87.909375 
" style="fill: none; stroke: #bf00bf; stroke-width: 3; stroke-linecap: square"/>
    </g>
    <g id="text_9">
     <!-- -4: 5/3 -->
     <g transform="translate(108.16 94.909375) scale(0.2 -0.2)">
      <use xlink:href="#DejaVuSans-2d"/>
      <use xlink:href="#DejaVuSans-34" x="36.083984"/>
      <use xlink:href="#DejaVuSans-3a" x="99.707031"/>
      <use xlink:href="#DejaVuSans-20" x="133.398438"/>
      <use xlink:href="#DejaVuSans-35" x="165.185547"/>
      <use xlink:href="#DejaVuSans-2f" x="228.808594"/>
      <use xlink:href="#DejaVuSans-33" x="262.5"/>
     </g>
    </g>
    <g id="line2d_72">
     <path d="M 52.16 117.265625 
L 72.16 117.265625 
L 92.16 117.265625 
" style="fill: none; stroke: #ff0000; stroke-width: 3; stroke-linecap: square"/>
    </g>
    <g id="text_10">
     <!-- -8: 5/3 -->
     <g transform="translate(108.16 124.265625) scale(0.2 -0.2)">
      <defs>
       <path id="DejaVuSans-38" d="M 2034 2216 
Q 1584 2216 1326 1975 
Q 1069 1734 1069 1313 
Q 1069 891 1326 650 
Q 1584 409 2034 409 
Q 2484 409 2743 651 
Q 3003 894 3003 1313 
Q 3003 1734 2745 1975 
Q 2488 2216 2034 2216 
z
M 1403 2484 
Q 997 2584 770 2862 
Q 544 3141 544 3541 
Q 544 4100 942 4425 
Q 1341 4750 2034 4750 
Q 2731 4750 3128 4425 
Q 3525 4100 3525 3541 
Q 3525 3141 3298 2862 
Q 3072 2584 2669 2484 
Q 3125 2378 3379 2068 
Q 3634 1759 3634 1313 
Q 3634 634 3220 271 
Q 2806 -91 2034 -91 
Q 1263 -91 848 271 
Q 434 634 434 1313 
Q 434 1759 690 2068 
Q 947 2378 1403 2484 
z
M 1172 3481 
Q 1172 3119 1398 2916 
Q 1625 2713 2034 2713 
Q 2441 2713 2670 2916 
Q 2900 3119 2900 3481 
Q 2900 3844 2670 4047 
Q 2441 4250 2034 4250 
Q 1625 4250 1398 4047 
Q 1172 3844 1172 3481 
z
" transform="scale(0.015625)"/>
      </defs>
      <use xlink:href="#DejaVuSans-2d"/>
      <use xlink:href="#DejaVuSans-38" x="36.083984"/>
      <use xlink:href="#DejaVuSans-3a" x="99.707031"/>
      <use xlink:href="#DejaVuSans-20" x="133.398438"/>
      <use xlink:href="#DejaVuSans-35" x="165.185547"/>
      <use xlink:href="#DejaVuSans-2f" x="228.808594"/>
      <use xlink:href="#DejaVuSans-33" x="262.5"/>
     </g>
    </g>
   </g>
  </g>
 </g>
 <defs>
  <clipPath id="p65c42db255">
   <rect x="34.16" y="3" width="419.032" height="288.28"/>
  </clipPath>
 </defs>
</svg>
