<?xml version="1.0" encoding="utf-8" standalone="no"?>
<!DOCTYPE svg PUBLIC "-//W3C//DTD SVG 1.1//EN"
  "http://www.w3.org/Graphics/SVG/1.1/DTD/svg11.dtd">
<svg xmlns:xlink="http://www.w3.org/1999/xlink" width="460.8pt" height="345.6pt" viewBox="0 0 460.8 345.6" xmlns="http://www.w3.org/2000/svg" version="1.1">
 <metadata>
  <rdf:RDF xmlns:dc="http://purl.org/dc/elements/1.1/" xmlns:cc="http://creativecommons.org/ns#" xmlns:rdf="http://www.w3.org/1999/02/22-rdf-syntax-ns#">
   <cc:Work>
    <dc:type rdf:resource="http://purl.org/dc/dcmitype/StillImage"/>
    <dc:date>2024-05-24T12:12:01.421190</dc:date>
    <dc:format>image/svg+xml</dc:format>
    <dc:creator>
     <cc:Agent>
      <dc:title>Matplotlib v3.7.1, https://matplotlib.org/</dc:title>
     </cc:Agent>
    </dc:creator>
   </cc:Work>
  </rdf:RDF>
 </metadata>
 <defs>
  <style type="text/css">*{stroke-linejoin: round; stroke-linecap: butt}</style>
 </defs>
 <g id="figure_1">
  <g id="patch_1">
   <path d="M 0 345.6 
L 460.8 345.6 
L 460.8 0 
L 0 0 
z
" style="fill: #ffffff"/>
  </g>
  <g id="axes_1">
   <g id="patch_2">
    <path d="M 34.16 291.28 
L 453.192 291.28 
L 453.192 3 
L 34.16 3 
z
" style="fill: #ffffff"/>
   </g>
   <g id="matplotlib.axis_1">
    <g id="xtick_1">
     <g id="line2d_1">
      <path d="M 125.796722 291.28 
L 125.796722 3 
" clip-path="url(#p38dfd2d549)" style="fill: none; stroke: #b0b0b0; stroke-width: 0.8; stroke-linecap: square"/>
     </g>
     <g id="line2d_2">
      <defs>
       <path id="mcd5c7f02f8" d="M 0 0 
L 0 3.5 
" style="stroke: #000000; stroke-width: 0.8"/>
      </defs>
      <g>
       <use xlink:href="#mcd5c7f02f8" x="125.796722" y="291.28" style="stroke: #000000; stroke-width: 0.8"/>
      </g>
     </g>
     <g id="text_1">
      <!-- -2 -->
      <g transform="translate(115.826409 313.476875) scale(0.2 -0.2)">
       <defs>
        <path id="DejaVuSans-2d" d="M 313 2009 
L 1997 2009 
L 1997 1497 
L 313 1497 
L 313 2009 
z
" transform="scale(0.015625)"/>
        <path id="DejaVuSans-32" d="M 1228 531 
L 3431 531 
L 3431 0 
L 469 0 
L 469 531 
Q 828 903 1448 1529 
Q 2069 2156 2228 2338 
Q 2531 2678 2651 2914 
Q 2772 3150 2772 3378 
Q 2772 3750 2511 3984 
Q 2250 4219 1831 4219 
Q 1534 4219 1204 4116 
Q 875 4013 500 3803 
L 500 4441 
Q 881 4594 1212 4672 
Q 1544 4750 1819 4750 
Q 2544 4750 2975 4387 
Q 3406 4025 3406 3419 
Q 3406 3131 3298 2873 
Q 3191 2616 2906 2266 
Q 2828 2175 2409 1742 
Q 1991 1309 1228 531 
z
" transform="scale(0.015625)"/>
       </defs>
       <use xlink:href="#DejaVuSans-2d"/>
       <use xlink:href="#DejaVuSans-32" x="36.083984"/>
      </g>
     </g>
    </g>
    <g id="xtick_2">
     <g id="line2d_3">
      <path d="M 243.676 291.28 
L 243.676 3 
" clip-path="url(#p38dfd2d549)" style="fill: none; stroke: #b0b0b0; stroke-width: 0.8; stroke-linecap: square"/>
     </g>
     <g id="line2d_4">
      <g>
       <use xlink:href="#mcd5c7f02f8" x="243.676" y="291.28" style="stroke: #000000; stroke-width: 0.8"/>
      </g>
     </g>
     <g id="text_2">
      <!-- 0 -->
      <g transform="translate(237.3135 313.476875) scale(0.2 -0.2)">
       <defs>
        <path id="DejaVuSans-30" d="M 2034 4250 
Q 1547 4250 1301 3770 
Q 1056 3291 1056 2328 
Q 1056 1369 1301 889 
Q 1547 409 2034 409 
Q 2525 409 2770 889 
Q 3016 1369 3016 2328 
Q 3016 3291 2770 3770 
Q 2525 4250 2034 4250 
z
M 2034 4750 
Q 2819 4750 3233 4129 
Q 3647 3509 3647 2328 
Q 3647 1150 3233 529 
Q 2819 -91 2034 -91 
Q 1250 -91 836 529 
Q 422 1150 422 2328 
Q 422 3509 836 4129 
Q 1250 4750 2034 4750 
z
" transform="scale(0.015625)"/>
       </defs>
       <use xlink:href="#DejaVuSans-30"/>
      </g>
     </g>
    </g>
    <g id="xtick_3">
     <g id="line2d_5">
      <path d="M 361.555278 291.28 
L 361.555278 3 
" clip-path="url(#p38dfd2d549)" style="fill: none; stroke: #b0b0b0; stroke-width: 0.8; stroke-linecap: square"/>
     </g>
     <g id="line2d_6">
      <g>
       <use xlink:href="#mcd5c7f02f8" x="361.555278" y="291.28" style="stroke: #000000; stroke-width: 0.8"/>
      </g>
     </g>
     <g id="text_3">
      <!-- 2 -->
      <g transform="translate(355.192778 313.476875) scale(0.2 -0.2)">
       <use xlink:href="#DejaVuSans-32"/>
      </g>
     </g>
    </g>
    <g id="text_4">
     <!-- log10 of FEvals ratio -->
     <g transform="translate(141.371312 336.833125) scale(0.2 -0.2)">
      <defs>
       <path id="DejaVuSans-6c" d="M 603 4863 
L 1178 4863 
L 1178 0 
L 603 0 
L 603 4863 
z
" transform="scale(0.015625)"/>
       <path id="DejaVuSans-6f" d="M 1959 3097 
Q 1497 3097 1228 2736 
Q 959 2375 959 1747 
Q 959 1119 1226 758 
Q 1494 397 1959 397 
Q 2419 397 2687 759 
Q 2956 1122 2956 1747 
Q 2956 2369 2687 2733 
Q 2419 3097 1959 3097 
z
M 1959 3584 
Q 2709 3584 3137 3096 
Q 3566 2609 3566 1747 
Q 3566 888 3137 398 
Q 2709 -91 1959 -91 
Q 1206 -91 779 398 
Q 353 888 353 1747 
Q 353 2609 779 3096 
Q 1206 3584 1959 3584 
z
" transform="scale(0.015625)"/>
       <path id="DejaVuSans-67" d="M 2906 1791 
Q 2906 2416 2648 2759 
Q 2391 3103 1925 3103 
Q 1463 3103 1205 2759 
Q 947 2416 947 1791 
Q 947 1169 1205 825 
Q 1463 481 1925 481 
Q 2391 481 2648 825 
Q 2906 1169 2906 1791 
z
M 3481 434 
Q 3481 -459 3084 -895 
Q 2688 -1331 1869 -1331 
Q 1566 -1331 1297 -1286 
Q 1028 -1241 775 -1147 
L 775 -588 
Q 1028 -725 1275 -790 
Q 1522 -856 1778 -856 
Q 2344 -856 2625 -561 
Q 2906 -266 2906 331 
L 2906 616 
Q 2728 306 2450 153 
Q 2172 0 1784 0 
Q 1141 0 747 490 
Q 353 981 353 1791 
Q 353 2603 747 3093 
Q 1141 3584 1784 3584 
Q 2172 3584 2450 3431 
Q 2728 3278 2906 2969 
L 2906 3500 
L 3481 3500 
L 3481 434 
z
" transform="scale(0.015625)"/>
       <path id="DejaVuSans-31" d="M 794 531 
L 1825 531 
L 1825 4091 
L 703 3866 
L 703 4441 
L 1819 4666 
L 2450 4666 
L 2450 531 
L 3481 531 
L 3481 0 
L 794 0 
L 794 531 
z
" transform="scale(0.015625)"/>
       <path id="DejaVuSans-20" transform="scale(0.015625)"/>
       <path id="DejaVuSans-66" d="M 2375 4863 
L 2375 4384 
L 1825 4384 
Q 1516 4384 1395 4259 
Q 1275 4134 1275 3809 
L 1275 3500 
L 2222 3500 
L 2222 3053 
L 1275 3053 
L 1275 0 
L 697 0 
L 697 3053 
L 147 3053 
L 147 3500 
L 697 3500 
L 697 3744 
Q 697 4328 969 4595 
Q 1241 4863 1831 4863 
L 2375 4863 
z
" transform="scale(0.015625)"/>
       <path id="DejaVuSans-46" d="M 628 4666 
L 3309 4666 
L 3309 4134 
L 1259 4134 
L 1259 2759 
L 3109 2759 
L 3109 2228 
L 1259 2228 
L 1259 0 
L 628 0 
L 628 4666 
z
" transform="scale(0.015625)"/>
       <path id="DejaVuSans-45" d="M 628 4666 
L 3578 4666 
L 3578 4134 
L 1259 4134 
L 1259 2753 
L 3481 2753 
L 3481 2222 
L 1259 2222 
L 1259 531 
L 3634 531 
L 3634 0 
L 628 0 
L 628 4666 
z
" transform="scale(0.015625)"/>
       <path id="DejaVuSans-76" d="M 191 3500 
L 800 3500 
L 1894 563 
L 2988 3500 
L 3597 3500 
L 2284 0 
L 1503 0 
L 191 3500 
z
" transform="scale(0.015625)"/>
       <path id="DejaVuSans-61" d="M 2194 1759 
Q 1497 1759 1228 1600 
Q 959 1441 959 1056 
Q 959 750 1161 570 
Q 1363 391 1709 391 
Q 2188 391 2477 730 
Q 2766 1069 2766 1631 
L 2766 1759 
L 2194 1759 
z
M 3341 1997 
L 3341 0 
L 2766 0 
L 2766 531 
Q 2569 213 2275 61 
Q 1981 -91 1556 -91 
Q 1019 -91 701 211 
Q 384 513 384 1019 
Q 384 1609 779 1909 
Q 1175 2209 1959 2209 
L 2766 2209 
L 2766 2266 
Q 2766 2663 2505 2880 
Q 2244 3097 1772 3097 
Q 1472 3097 1187 3025 
Q 903 2953 641 2809 
L 641 3341 
Q 956 3463 1253 3523 
Q 1550 3584 1831 3584 
Q 2591 3584 2966 3190 
Q 3341 2797 3341 1997 
z
" transform="scale(0.015625)"/>
       <path id="DejaVuSans-73" d="M 2834 3397 
L 2834 2853 
Q 2591 2978 2328 3040 
Q 2066 3103 1784 3103 
Q 1356 3103 1142 2972 
Q 928 2841 928 2578 
Q 928 2378 1081 2264 
Q 1234 2150 1697 2047 
L 1894 2003 
Q 2506 1872 2764 1633 
Q 3022 1394 3022 966 
Q 3022 478 2636 193 
Q 2250 -91 1575 -91 
Q 1294 -91 989 -36 
Q 684 19 347 128 
L 347 722 
Q 666 556 975 473 
Q 1284 391 1588 391 
Q 1994 391 2212 530 
Q 2431 669 2431 922 
Q 2431 1156 2273 1281 
Q 2116 1406 1581 1522 
L 1381 1569 
Q 847 1681 609 1914 
Q 372 2147 372 2553 
Q 372 3047 722 3315 
Q 1072 3584 1716 3584 
Q 2034 3584 2315 3537 
Q 2597 3491 2834 3397 
z
" transform="scale(0.015625)"/>
       <path id="DejaVuSans-72" d="M 2631 2963 
Q 2534 3019 2420 3045 
Q 2306 3072 2169 3072 
Q 1681 3072 1420 2755 
Q 1159 2438 1159 1844 
L 1159 0 
L 581 0 
L 581 3500 
L 1159 3500 
L 1159 2956 
Q 1341 3275 1631 3429 
Q 1922 3584 2338 3584 
Q 2397 3584 2469 3576 
Q 2541 3569 2628 3553 
L 2631 2963 
z
" transform="scale(0.015625)"/>
       <path id="DejaVuSans-74" d="M 1172 4494 
L 1172 3500 
L 2356 3500 
L 2356 3053 
L 1172 3053 
L 1172 1153 
Q 1172 725 1289 603 
Q 1406 481 1766 481 
L 2356 481 
L 2356 0 
L 1766 0 
Q 1100 0 847 248 
Q 594 497 594 1153 
L 594 3053 
L 172 3053 
L 172 3500 
L 594 3500 
L 594 4494 
L 1172 4494 
z
" transform="scale(0.015625)"/>
       <path id="DejaVuSans-69" d="M 603 3500 
L 1178 3500 
L 1178 0 
L 603 0 
L 603 3500 
z
M 603 4863 
L 1178 4863 
L 1178 4134 
L 603 4134 
L 603 4863 
z
" transform="scale(0.015625)"/>
      </defs>
      <use xlink:href="#DejaVuSans-6c"/>
      <use xlink:href="#DejaVuSans-6f" x="27.783203"/>
      <use xlink:href="#DejaVuSans-67" x="88.964844"/>
      <use xlink:href="#DejaVuSans-31" x="152.441406"/>
      <use xlink:href="#DejaVuSans-30" x="216.064453"/>
      <use xlink:href="#DejaVuSans-20" x="279.6875"/>
      <use xlink:href="#DejaVuSans-6f" x="311.474609"/>
      <use xlink:href="#DejaVuSans-66" x="372.65625"/>
      <use xlink:href="#DejaVuSans-20" x="407.861328"/>
      <use xlink:href="#DejaVuSans-46" x="439.648438"/>
      <use xlink:href="#DejaVuSans-45" x="497.167969"/>
      <use xlink:href="#DejaVuSans-76" x="560.351562"/>
      <use xlink:href="#DejaVuSans-61" x="619.53125"/>
      <use xlink:href="#DejaVuSans-6c" x="680.810547"/>
      <use xlink:href="#DejaVuSans-73" x="708.59375"/>
      <use xlink:href="#DejaVuSans-20" x="760.693359"/>
      <use xlink:href="#DejaVuSans-72" x="792.480469"/>
      <use xlink:href="#DejaVuSans-61" x="833.59375"/>
      <use xlink:href="#DejaVuSans-74" x="894.873047"/>
      <use xlink:href="#DejaVuSans-69" x="934.082031"/>
      <use xlink:href="#DejaVuSans-6f" x="961.865234"/>
     </g>
    </g>
   </g>
   <g id="matplotlib.axis_2">
    <g id="ytick_1">
     <g id="line2d_7">
      <path d="M 34.16 288.453725 
L 453.192 288.453725 
" clip-path="url(#p38dfd2d549)" style="fill: none; stroke: #b0b0b0; stroke-width: 0.8; stroke-linecap: square"/>
     </g>
     <g id="line2d_8">
      <defs>
       <path id="m99a9a6db77" d="M 0 0 
L -3.5 0 
" style="stroke: #000000; stroke-width: 0.8"/>
      </defs>
      <g>
       <use xlink:href="#m99a9a6db77" x="34.16" y="288.453725" style="stroke: #000000; stroke-width: 0.8"/>
      </g>
     </g>
    </g>
    <g id="ytick_2">
     <g id="line2d_9">
      <path d="M 34.16 217.796863 
L 453.192 217.796863 
" clip-path="url(#p38dfd2d549)" style="fill: none; stroke: #b0b0b0; stroke-width: 0.8; stroke-linecap: square"/>
     </g>
     <g id="line2d_10">
      <g>
       <use xlink:href="#m99a9a6db77" x="34.16" y="217.796863" style="stroke: #000000; stroke-width: 0.8"/>
      </g>
     </g>
    </g>
    <g id="ytick_3">
     <g id="line2d_11">
      <path d="M 34.16 147.14 
L 453.192 147.14 
" clip-path="url(#p38dfd2d549)" style="fill: none; stroke: #b0b0b0; stroke-width: 0.8; stroke-linecap: square"/>
     </g>
     <g id="line2d_12">
      <g>
       <use xlink:href="#m99a9a6db77" x="34.16" y="147.14" style="stroke: #000000; stroke-width: 0.8"/>
      </g>
     </g>
    </g>
    <g id="ytick_4">
     <g id="line2d_13">
      <path d="M 34.16 76.483137 
L 453.192 76.483137 
" clip-path="url(#p38dfd2d549)" style="fill: none; stroke: #b0b0b0; stroke-width: 0.8; stroke-linecap: square"/>
     </g>
     <g id="line2d_14">
      <g>
       <use xlink:href="#m99a9a6db77" x="34.16" y="76.483137" style="stroke: #000000; stroke-width: 0.8"/>
      </g>
     </g>
    </g>
    <g id="ytick_5">
     <g id="line2d_15">
      <path d="M 34.16 5.826275 
L 453.192 5.826275 
" clip-path="url(#p38dfd2d549)" style="fill: none; stroke: #b0b0b0; stroke-width: 0.8; stroke-linecap: square"/>
     </g>
     <g id="line2d_16">
      <g>
       <use xlink:href="#m99a9a6db77" x="34.16" y="5.826275" style="stroke: #000000; stroke-width: 0.8"/>
      </g>
     </g>
    </g>
    <g id="text_5">
     <!-- proportion of trials -->
     <g transform="translate(19.000625 240.14625) rotate(-90) scale(0.2 -0.2)">
      <defs>
       <path id="DejaVuSans-70" d="M 1159 525 
L 1159 -1331 
L 581 -1331 
L 581 3500 
L 1159 3500 
L 1159 2969 
Q 1341 3281 1617 3432 
Q 1894 3584 2278 3584 
Q 2916 3584 3314 3078 
Q 3713 2572 3713 1747 
Q 3713 922 3314 415 
Q 2916 -91 2278 -91 
Q 1894 -91 1617 61 
Q 1341 213 1159 525 
z
M 3116 1747 
Q 3116 2381 2855 2742 
Q 2594 3103 2138 3103 
Q 1681 3103 1420 2742 
Q 1159 2381 1159 1747 
Q 1159 1113 1420 752 
Q 1681 391 2138 391 
Q 2594 391 2855 752 
Q 3116 1113 3116 1747 
z
" transform="scale(0.015625)"/>
       <path id="DejaVuSans-6e" d="M 3513 2113 
L 3513 0 
L 2938 0 
L 2938 2094 
Q 2938 2591 2744 2837 
Q 2550 3084 2163 3084 
Q 1697 3084 1428 2787 
Q 1159 2491 1159 1978 
L 1159 0 
L 581 0 
L 581 3500 
L 1159 3500 
L 1159 2956 
Q 1366 3272 1645 3428 
Q 1925 3584 2291 3584 
Q 2894 3584 3203 3211 
Q 3513 2838 3513 2113 
z
" transform="scale(0.015625)"/>
      </defs>
      <use xlink:href="#DejaVuSans-70"/>
      <use xlink:href="#DejaVuSans-72" x="63.476562"/>
      <use xlink:href="#DejaVuSans-6f" x="102.339844"/>
      <use xlink:href="#DejaVuSans-70" x="163.521484"/>
      <use xlink:href="#DejaVuSans-6f" x="226.998047"/>
      <use xlink:href="#DejaVuSans-72" x="288.179688"/>
      <use xlink:href="#DejaVuSans-74" x="329.292969"/>
      <use xlink:href="#DejaVuSans-69" x="368.501953"/>
      <use xlink:href="#DejaVuSans-6f" x="396.285156"/>
      <use xlink:href="#DejaVuSans-6e" x="457.466797"/>
      <use xlink:href="#DejaVuSans-20" x="520.845703"/>
      <use xlink:href="#DejaVuSans-6f" x="552.632812"/>
      <use xlink:href="#DejaVuSans-66" x="613.814453"/>
      <use xlink:href="#DejaVuSans-20" x="649.019531"/>
      <use xlink:href="#DejaVuSans-74" x="680.806641"/>
      <use xlink:href="#DejaVuSans-72" x="720.015625"/>
      <use xlink:href="#DejaVuSans-69" x="761.128906"/>
      <use xlink:href="#DejaVuSans-61" x="788.912109"/>
      <use xlink:href="#DejaVuSans-6c" x="850.191406"/>
      <use xlink:href="#DejaVuSans-73" x="877.974609"/>
     </g>
    </g>
   </g>
   <g id="line2d_17">
    <path d="M 34.16 284.909808 
L 79.36415 284.909808 
L 79.36415 284.023828 
L 97.168476 284.023828 
L 97.168476 283.137849 
L 98.428661 283.137849 
L 98.428661 282.251869 
L 99.571341 282.251869 
L 99.571341 281.36589 
L 103.046798 281.36589 
L 103.046798 280.47991 
L 114.849348 280.47991 
L 114.849348 279.593931 
L 123.25399 279.593931 
L 123.25399 278.707951 
L 130.658081 278.707951 
L 130.658081 277.821972 
L 131.918266 277.821972 
L 131.918266 276.935992 
L 135.05654 276.935992 
L 135.05654 276.050013 
L 138.569834 276.050013 
L 138.569834 275.164033 
L 152.980971 275.164033 
L 152.980971 274.278054 
L 153.125181 274.278054 
L 153.125181 273.392074 
L 154.241156 273.392074 
L 154.241156 272.506095 
L 154.385366 272.506095 
L 154.385366 271.620116 
L 156.108115 271.620116 
L 156.108115 270.734136 
L 156.988694 270.734136 
L 156.988694 269.848157 
L 157.3683 269.848157 
L 157.3683 268.962177 
L 158.248879 268.962177 
L 158.248879 268.076198 
L 158.777026 268.076198 
L 158.777026 267.190218 
L 159.349552 267.190218 
L 159.349552 266.304239 
L 160.609737 266.304239 
L 160.609737 265.418259 
L 174.357606 265.418259 
L 174.357606 264.53228 
L 175.323651 264.53228 
L 175.323651 263.6463 
L 180.069447 263.6463 
L 180.069447 261.874341 
L 181.382409 261.874341 
L 181.382409 260.988362 
L 181.627169 260.988362 
L 181.627169 260.102382 
L 182.887354 260.102382 
L 182.887354 259.216403 
L 184.993621 259.216403 
L 184.993621 258.330424 
L 186.139296 258.330424 
L 186.139296 256.558465 
L 187.235628 256.558465 
L 187.291478 254.786506 
L 188.961934 254.786506 
L 188.961934 253.900526 
L 195.402251 253.900526 
L 195.402251 253.014547 
L 196.160043 253.014547 
L 196.160043 251.242588 
L 197.324466 251.242588 
L 197.324466 250.356608 
L 198.20285 250.356608 
L 198.290512 248.584649 
L 200.783164 248.584649 
L 200.783164 247.69867 
L 202.47896 247.69867 
L 202.47896 246.81269 
L 206.704533 246.81269 
L 206.704533 245.926711 
L 207.255031 245.926711 
L 207.255031 245.040731 
L 208.548809 245.040731 
L 208.548809 244.154752 
L 210.073065 244.154752 
L 210.073065 243.268773 
L 210.202489 243.268773 
L 210.202489 242.382793 
L 210.808849 242.382793 
L 210.808849 241.496814 
L 211.278535 241.496814 
L 211.278535 240.610834 
L 211.853777 240.610834 
L 211.928794 237.952896 
L 214.241683 237.952896 
L 214.241683 237.066916 
L 214.686862 237.066916 
L 214.686862 235.294957 
L 214.872014 235.294957 
L 214.872014 234.408978 
L 215.609443 234.408978 
L 215.609443 233.522998 
L 217.320667 233.522998 
L 217.320667 231.751039 
L 217.603511 231.751039 
L 217.603511 229.97908 
L 218.483225 229.97908 
L 218.569557 228.207122 
L 218.758466 228.207122 
L 218.758466 227.321142 
L 220.145264 227.321142 
L 220.246147 223.777224 
L 220.311532 223.777224 
L 220.311532 222.891245 
L 220.756711 222.891245 
L 220.781083 220.233306 
L 221.169711 220.233306 
L 221.169711 219.347327 
L 222.918489 219.347327 
L 222.918489 218.461347 
L 223.583388 218.461347 
L 223.673361 215.803409 
L 223.750025 215.803409 
L 223.750025 214.917429 
L 224.026348 214.917429 
L 224.026348 214.03145 
L 224.549433 214.03145 
L 224.549433 213.145471 
L 224.828316 213.145471 
L 224.828316 212.259491 
L 225.268502 212.259491 
L 225.268502 211.373512 
L 226.291409 211.373512 
L 226.291409 210.487532 
L 228.988339 210.487532 
L 228.988339 209.601553 
L 229.137222 209.601553 
L 229.137222 208.715573 
L 229.671394 208.715573 
L 229.671394 207.829594 
L 230.221892 207.829594 
L 230.332279 206.057635 
L 230.777458 206.057635 
L 230.797977 202.513717 
L 231.764022 202.513717 
L 231.764022 200.741758 
L 231.984282 200.741758 
L 231.984282 199.855778 
L 232.39549 199.855778 
L 232.39549 198.969799 
L 233.694108 198.969799 
L 233.77571 195.425881 
L 234.245396 195.425881 
L 234.26329 193.653922 
L 234.849063 193.653922 
L 234.849063 192.767943 
L 235.207071 192.767943 
L 235.207071 191.881963 
L 236.312156 191.881963 
L 236.312156 190.995984 
L 236.461411 190.995984 
L 236.461411 190.110004 
L 237.194904 190.110004 
L 237.194904 189.224025 
L 237.339114 189.224025 
L 237.339114 188.338045 
L 237.606151 188.338045 
L 237.606151 187.452066 
L 237.964159 187.452066 
L 238.054131 185.680107 
L 238.187716 185.680107 
L 238.187716 184.794127 
L 239.009086 184.794127 
L 239.009086 183.908148 
L 239.73018 183.908148 
L 239.73018 183.022169 
L 240.322049 183.022169 
L 240.322049 182.136189 
L 240.453338 182.136189 
L 240.453338 181.25021 
L 240.806116 181.25021 
L 240.806116 180.36423 
L 240.950325 180.36423 
L 240.950325 179.478251 
L 241.202627 179.478251 
L 241.202627 178.592271 
L 241.440092 178.592271 
L 241.440092 177.706292 
L 243.011101 177.706292 
L 243.103973 175.934333 
L 243.18842 175.934333 
L 243.248182 174.162374 
L 243.563485 174.162374 
L 243.563485 173.276394 
L 243.676 173.276394 
L 243.676 170.618456 
L 243.827912 170.618456 
L 243.93326 168.846497 
L 244.034008 168.846497 
L 244.034008 167.960518 
L 244.422061 167.960518 
L 244.422061 167.074538 
L 244.813839 167.074538 
L 244.813839 166.188559 
L 245.103517 166.188559 
L 245.103517 165.302579 
L 245.227818 165.302579 
L 245.227818 164.4166 
L 245.402305 164.4166 
L 245.402305 162.644641 
L 245.558264 162.644641 
L 245.558264 161.758661 
L 245.682246 161.758661 
L 245.682246 160.872682 
L 246.026013 160.872682 
L 246.026013 159.986702 
L 246.231117 159.986702 
L 246.231117 159.100723 
L 246.363702 159.100723 
L 246.471192 156.442784 
L 246.993208 156.442784 
L 246.993208 155.556805 
L 247.111696 155.556805 
L 247.174696 152.898867 
L 247.428633 152.898867 
L 247.428633 152.012887 
L 248.074879 152.012887 
L 248.074879 151.126908 
L 248.235363 151.126908 
L 248.235363 150.240928 
L 248.429906 150.240928 
L 248.429906 149.354949 
L 249.387841 149.354949 
L 249.472553 146.69701 
L 250.008947 146.69701 
L 250.008947 145.811031 
L 250.542796 145.811031 
L 250.542796 144.925051 
L 251.492903 144.925051 
L 251.492903 144.039072 
L 251.938082 144.039072 
L 252.005889 141.381133 
L 253.696747 141.381133 
L 253.696747 140.495154 
L 253.864441 140.495154 
L 253.864441 139.609175 
L 254.054755 139.609175 
L 254.054755 138.723195 
L 254.643222 138.723195 
L 254.702819 136.065257 
L 254.854732 136.065257 
L 254.854732 134.293298 
L 255.362351 134.293298 
L 255.362351 133.407318 
L 255.630463 133.407318 
L 255.630463 132.521339 
L 255.930316 132.521339 
L 256.009687 130.74938 
L 256.480813 130.74938 
L 256.480813 129.8634 
L 257.223536 129.8634 
L 257.223536 128.091441 
L 257.47278 128.091441 
L 257.47278 127.205462 
L 259.942975 127.205462 
L 260.034632 125.433503 
L 260.16971 125.433503 
L 260.16971 124.547524 
L 260.504318 124.547524 
L 260.504318 123.661544 
L 260.890382 123.661544 
L 260.921551 121.889585 
L 261.647284 121.889585 
L 261.647284 121.003606 
L 263.144905 121.003606 
L 263.144905 119.231647 
L 263.695402 119.231647 
L 263.768612 116.573708 
L 265.841102 116.573708 
L 265.841102 115.687729 
L 265.977962 115.687729 
L 265.977962 114.801749 
L 266.388442 114.801749 
L 266.388442 113.91577 
L 267.249221 113.91577 
L 267.249221 112.143811 
L 267.718907 112.143811 
L 267.718907 110.371852 
L 269.137576 110.371852 
L 269.235502 108.599893 
L 269.27875 108.599893 
L 269.27875 107.713914 
L 269.39048 107.713914 
L 269.452314 105.055975 
L 269.748489 105.055975 
L 269.748489 104.169996 
L 270.397761 104.169996 
L 270.397761 103.284016 
L 271.750171 103.284016 
L 271.750171 102.398037 
L 273.25213 102.398037 
L 273.25213 101.512057 
L 274.494285 101.512057 
L 274.494285 100.626078 
L 274.857371 100.626078 
L 274.857371 99.740098 
L 275.215379 99.740098 
L 275.215379 98.854119 
L 276.661931 98.854119 
L 276.661931 97.08216 
L 277.21191 97.08216 
L 277.21191 96.19618 
L 277.547089 96.19618 
L 277.547089 95.310201 
L 278.472095 95.310201 
L 278.472095 94.424222 
L 279.350949 94.424222 
L 279.350949 93.538242 
L 280.150166 93.538242 
L 280.150166 92.652263 
L 280.466719 92.652263 
L 280.466719 90.880304 
L 281.097574 90.880304 
L 281.097574 89.994324 
L 281.435358 89.994324 
L 281.435358 89.108345 
L 281.621273 89.108345 
L 281.708874 86.450406 
L 288.835862 86.450406 
L 288.835862 84.678447 
L 289.34964 84.678447 
L 289.34964 83.792468 
L 292.236884 83.792468 
L 292.236884 82.906488 
L 299.451473 82.906488 
L 299.451473 81.134529 
L 308.823215 81.134529 
L 308.923444 79.362571 
L 310.0834 79.362571 
L 310.183629 77.590612 
L 313.070126 77.590612 
L 313.070126 76.704632 
L 326.111167 76.704632 
L 326.111167 75.818653 
L 328.635995 75.818653 
L 328.635995 74.932673 
L 329.31745 74.932673 
L 329.31745 74.046694 
L 331.383654 74.046694 
L 331.383654 73.160714 
L 332.247206 73.160714 
L 332.247206 72.274735 
L 332.928662 72.274735 
L 332.928662 71.388755 
L 334.545063 71.388755 
L 334.545063 70.502776 
L 334.994866 70.502776 
L 334.994866 69.616796 
L 335.226519 69.616796 
L 335.226519 68.730817 
L 336.183365 68.730817 
L 336.183365 67.844837 
L 337.292723 67.844837 
L 337.292723 66.958858 
L 350.955062 66.958858 
L 350.955062 66.072878 
L 353.351509 66.072878 
L 353.351509 65.186899 
L 356.962721 65.186899 
L 356.962721 64.30092 
L 359.260578 64.30092 
L 359.260578 63.41494 
L 361.027261 63.41494 
L 361.027261 62.528961 
L 361.425843 62.528961 
L 361.425843 61.642981 
L 365.037055 61.642981 
L 365.037055 60.757002 
L 367.334912 60.757002 
L 367.334912 59.871022 
L 369.902542 59.871022 
L 369.902542 58.985043 
L 372.149008 58.985043 
L 372.149008 58.099063 
L 382.221207 58.099063 
L 382.221207 57.213084 
L 390.65189 57.213084 
L 390.65189 56.327104 
L 391.599298 56.327104 
L 391.599298 55.441125 
L 393.037149 55.441125 
L 393.137377 53.669166 
L 394.746438 53.669166 
L 394.746438 52.783186 
L 396.64836 52.783186 
L 396.748589 51.011227 
L 398.946217 51.011227 
L 399.046446 49.239269 
L 400.724089 49.239269 
L 400.724089 48.353289 
L 401.671497 48.353289 
L 401.671497 47.46731 
L 415.940384 47.46731 
L 415.940384 46.58133 
L 434.443266 46.58133 
L 434.443266 45.695351 
L 435.390674 45.695351 
L 435.390674 44.809371 
L 453.192 44.809371 
L 453.192 44.809371 
" clip-path="url(#p38dfd2d549)" style="fill: none; stroke: #000000; stroke-width: 3; stroke-linecap: square"/>
   </g>
   <g id="line2d_18">
    <path clip-path="url(#p38dfd2d549)" style="fill: none; stroke: #000000; stroke-width: 3; stroke-linecap: square"/>
   </g>
   <g id="line2d_19">
    <path d="M 34.16 234.508237 
L 117.668029 234.508237 
L 117.668029 233.335509 
L 123.154435 233.335509 
L 123.154435 232.162781 
L 124.344659 232.162781 
L 124.344659 230.990053 
L 129.831065 230.990053 
L 129.831065 229.817325 
L 149.948055 229.817325 
L 149.948055 228.644597 
L 158.618375 228.644597 
L 158.618375 227.471869 
L 163.16173 227.471869 
L 163.16173 226.299141 
L 163.874222 226.299141 
L 163.874222 225.126413 
L 164.239665 225.126413 
L 164.239665 223.953685 
L 165.328519 223.953685 
L 165.41603 221.608229 
L 168.232564 221.608229 
L 168.232564 220.435501 
L 170.004229 220.435501 
L 170.004229 219.262773 
L 171.562243 219.262773 
L 171.562243 218.090045 
L 172.005149 218.090045 
L 172.092661 215.744589 
L 182.135772 215.744589 
L 182.135772 214.571861 
L 183.697177 214.571861 
L 183.697177 213.399133 
L 187.622178 213.399133 
L 187.622178 212.226405 
L 196.981849 212.226405 
L 196.981849 211.053677 
L 199.080671 211.053677 
L 199.080671 209.880949 
L 202.468256 209.880949 
L 202.468256 208.708221 
L 204.567078 208.708221 
L 204.567078 207.535493 
L 210.339928 207.535493 
L 210.339928 206.362765 
L 216.959465 206.362765 
L 216.959465 205.190037 
L 217.458484 205.190037 
L 217.458484 204.017309 
L 219.577735 204.017309 
L 219.608559 201.671853 
L 219.696588 201.671853 
L 219.696588 200.499125 
L 221.108782 200.499125 
L 221.108782 199.326397 
L 221.583644 199.326397 
L 221.583644 198.153669 
L 221.935691 198.153669 
L 221.935691 196.980941 
L 222.18601 196.980941 
L 222.18601 195.808213 
L 223.837097 195.808213 
L 223.837097 194.635485 
L 224.183457 194.635485 
L 224.183457 193.462756 
L 224.658319 193.462756 
L 224.658319 192.290028 
L 225.064141 192.290028 
L 225.064141 191.1173 
L 225.459546 191.1173 
L 225.53299 188.771844 
L 227.355831 188.771844 
L 227.355831 187.599116 
L 227.693992 187.599116 
L 227.693992 186.426388 
L 228.366908 186.426388 
L 228.366908 185.25366 
L 228.814145 185.25366 
L 228.814145 184.080932 
L 229.796262 184.080932 
L 229.883774 181.735476 
L 230.85633 181.735476 
L 230.85633 180.562748 
L 232.910264 180.562748 
L 232.910264 179.39002 
L 233.180398 179.39002 
L 233.180398 178.217292 
L 233.468063 178.217292 
L 233.468063 177.044564 
L 233.622756 177.044564 
L 233.622756 175.871836 
L 233.988198 175.871836 
L 233.988198 174.699108 
L 234.20331 174.699108 
L 234.300551 172.353652 
L 235.399685 172.353652 
L 235.399685 171.180924 
L 236.026151 171.180924 
L 236.112177 168.835468 
L 236.47762 168.835468 
L 236.47762 167.66274 
L 237.969342 167.66274 
L 237.981097 165.317284 
L 238.746666 165.317284 
L 238.746666 164.144556 
L 239.459157 164.144556 
L 239.459157 162.971828 
L 239.752763 162.971828 
L 239.8246 160.626372 
L 240.470519 160.626372 
L 240.569507 158.280916 
L 241.018606 158.280916 
L 241.018606 157.108188 
L 241.281999 157.108188 
L 241.310777 154.762732 
L 241.394623 154.762732 
L 241.493467 152.417276 
L 241.647441 152.417276 
L 241.647441 151.244548 
L 242.242184 151.244548 
L 242.242184 150.07182 
L 243.800198 150.07182 
L 243.817499 147.726364 
L 244.469298 147.726364 
L 244.469298 146.553636 
L 244.642339 146.553636 
L 244.729851 144.20818 
L 245.388747 144.20818 
L 245.388747 143.035452 
L 245.557186 143.035452 
L 245.64034 139.517268 
L 246.246878 139.517268 
L 246.246878 138.34454 
L 246.741161 138.34454 
L 246.828673 135.999084 
L 247.147178 135.999084 
L 247.147178 134.826356 
L 247.412006 134.826356 
L 247.412006 133.653628 
L 248.397655 133.653628 
L 248.397655 132.4809 
L 248.970019 132.4809 
L 248.970019 131.308172 
L 259.917516 131.308172 
L 259.917516 130.135444 
L 260.165576 130.135444 
L 260.217034 127.789988 
L 260.38782 127.789988 
L 260.38782 126.61726 
L 261.304446 126.61726 
L 261.304446 125.444532 
L 265.403922 125.444532 
L 265.403922 124.271804 
L 265.651982 124.271804 
L 265.70344 121.926348 
L 265.874226 121.926348 
L 265.874226 120.75362 
L 267.238225 120.75362 
L 267.325737 118.408164 
L 275.354482 118.408164 
L 275.441994 116.062708 
L 276.474635 116.062708 
L 276.562147 113.717252 
L 291.684225 113.717252 
L 291.684225 112.544524 
L 293.58563 112.544524 
L 293.58563 111.371796 
L 294.173646 111.371796 
L 294.173646 110.199068 
L 295.208079 110.199068 
L 295.208079 109.02634 
L 296.075052 109.02634 
L 296.075052 107.853612 
L 297.520627 107.853612 
L 297.520627 106.680884 
L 297.697501 106.680884 
L 297.697501 105.508156 
L 299.343468 105.508156 
L 299.422032 103.1627 
L 301.044481 103.1627 
L 301.044481 101.989972 
L 301.244873 101.989972 
L 301.244873 100.817244 
L 302.867322 100.817244 
L 302.867322 99.644515 
L 307.578006 99.644515 
L 307.665517 97.299059 
L 307.826066 97.299059 
L 307.913577 93.780875 
L 307.965036 93.780875 
L 308.04831 91.435419 
L 308.135822 91.435419 
L 308.135822 90.262691 
L 315.13728 90.262691 
L 315.13728 89.089963 
L 315.30572 89.089963 
L 315.30572 87.917235 
L 315.995412 87.917235 
L 315.995412 86.744507 
L 317.626702 86.744507 
L 317.626702 85.571779 
L 317.795141 85.571779 
L 317.795141 84.399051 
L 318.146188 84.399051 
L 318.146188 83.226323 
L 318.484833 83.226323 
L 318.484833 82.053595 
L 320.63561 82.053595 
L 320.63561 80.880867 
L 320.973682 80.880867 
L 320.973682 79.708139 
L 321.142121 79.708139 
L 321.142121 78.535411 
L 321.831814 78.535411 
L 321.831814 77.362683 
L 322.796523 77.362683 
L 322.796523 76.189955 
L 322.964963 76.189955 
L 322.964963 75.017227 
L 323.654655 75.017227 
L 323.654655 73.844499 
L 323.98259 73.844499 
L 323.98259 72.671771 
L 325.805431 72.671771 
L 325.805431 71.499043 
L 453.192 71.499043 
L 453.192 71.499043 
" clip-path="url(#p38dfd2d549)" style="fill: none; stroke: #00bfbf; stroke-width: 3; stroke-linecap: square"/>
   </g>
   <g id="line2d_20">
    <path clip-path="url(#p38dfd2d549)" style="fill: none; stroke: #00bfbf; stroke-width: 3; stroke-linecap: square"/>
   </g>
   <g id="line2d_21">
    <path d="M 34.16 224.165078 
L 130.356373 224.165078 
L 130.356373 222.952084 
L 134.792796 222.952084 
L 134.792796 221.739091 
L 135.344459 221.739091 
L 135.344459 220.526098 
L 139.780881 220.526098 
L 139.780881 219.313104 
L 177.708702 219.313104 
L 177.755242 216.887118 
L 182.145125 216.887118 
L 182.191665 214.461131 
L 183.019499 214.461131 
L 183.019499 213.248138 
L 184.705441 213.248138 
L 184.705441 212.035144 
L 197.534523 212.035144 
L 197.534523 210.822151 
L 199.867801 210.822151 
L 199.867801 209.609158 
L 200.674784 209.609158 
L 200.674784 208.396164 
L 202.522608 208.396164 
L 202.522608 207.183171 
L 204.117842 207.183171 
L 204.117842 205.970178 
L 204.485128 205.970178 
L 204.485128 204.757184 
L 204.855887 204.757184 
L 204.855887 203.544191 
L 205.662869 203.544191 
L 205.714422 201.118204 
L 205.803784 201.118204 
L 205.803784 199.905211 
L 206.171071 199.905211 
L 206.171071 198.692217 
L 206.376958 198.692217 
L 206.376958 197.479224 
L 207.400365 197.479224 
L 207.400365 196.266231 
L 208.071523 196.266231 
L 208.071523 195.053237 
L 209.757466 195.053237 
L 209.757466 193.840244 
L 220.503942 193.840244 
L 220.594355 191.414257 
L 220.851601 191.414257 
L 220.851601 190.201264 
L 221.603704 190.201264 
L 221.643823 187.775277 
L 223.479862 187.775277 
L 223.479862 186.562284 
L 223.698938 186.562284 
L 223.723222 184.136297 
L 223.815297 184.136297 
L 223.815297 182.923304 
L 224.45104 182.923304 
L 224.45104 181.710311 
L 225.165804 181.710311 
L 225.165804 180.497317 
L 225.409164 180.497317 
L 225.501239 176.858337 
L 227.4753 176.858337 
L 227.4753 175.645344 
L 227.842587 175.645344 
L 227.842587 174.43235 
L 228.006019 174.43235 
L 228.006019 173.219357 
L 228.774335 173.219357 
L 228.774335 172.006364 
L 229.071881 172.006364 
L 229.071881 170.79337 
L 231.428982 170.79337 
L 231.428982 169.580377 
L 232.994105 169.580377 
L 232.994105 168.367384 
L 233.76242 168.367384 
L 233.76242 167.15439 
L 240.53839 167.15439 
L 240.53839 165.941397 
L 241.290492 165.941397 
L 241.290492 164.728404 
L 241.692697 164.728404 
L 241.694413 162.302417 
L 242.027345 162.302417 
L 242.059984 159.87643 
L 242.219617 159.87643 
L 242.219617 158.663437 
L 242.691094 158.663437 
L 242.742166 156.23745 
L 243.109453 156.23745 
L 243.109453 155.024457 
L 243.289278 155.024457 
L 243.289278 153.811463 
L 243.713287 153.811463 
L 243.713287 152.59847 
L 243.905559 152.59847 
L 243.905559 151.385477 
L 244.338747 151.385477 
L 244.377037 148.95949 
L 244.541749 148.95949 
L 244.541749 147.746497 
L 244.886851 147.746497 
L 244.933391 145.32051 
L 245.646379 145.32051 
L 245.646379 144.107517 
L 246.695848 144.107517 
L 246.695848 142.894523 
L 246.837321 142.894523 
L 246.837321 141.68153 
L 247.080681 141.68153 
L 247.172756 139.255543 
L 247.22013 139.255543 
L 247.26667 136.829557 
L 248.027112 136.829557 
L 248.073653 134.40357 
L 259.998267 134.40357 
L 259.998267 133.190576 
L 260.194604 133.190576 
L 260.282976 130.76459 
L 260.366283 130.76459 
L 260.366283 129.551596 
L 261.054718 129.551596 
L 261.054718 128.338603 
L 261.298078 128.338603 
L 261.390153 124.699623 
L 262.104186 124.699623 
L 262.104186 123.48663 
L 262.347546 123.48663 
L 262.439621 121.060643 
L 264.986352 121.060643 
L 264.986352 119.84765 
L 265.182689 119.84765 
L 265.271061 117.421663 
L 265.354368 117.421663 
L 265.384804 114.995676 
L 265.577076 114.995676 
L 265.577076 113.782683 
L 266.048553 113.782683 
L 266.048553 112.569689 
L 267.85627 112.569689 
L 267.902811 110.143703 
L 275.358348 110.143703 
L 275.404888 107.717716 
L 276.126664 107.717716 
L 276.173204 105.291729 
L 279.602201 105.291729 
L 279.602201 104.078736 
L 279.794473 104.078736 
L 279.794473 102.865743 
L 280.26595 102.865743 
L 280.26595 101.652749 
L 280.651669 101.652749 
L 280.651669 100.439756 
L 280.843941 100.439756 
L 280.843941 99.226763 
L 281.315418 99.226763 
L 281.315418 98.013769 
L 307.350595 98.013769 
L 307.397135 95.587783 
L 307.546932 95.587783 
L 307.635305 91.948802 
L 307.681845 91.948802 
L 307.765152 88.309822 
L 453.192 88.309822 
L 453.192 88.309822 
" clip-path="url(#p38dfd2d549)" style="fill: none; stroke: #bf00bf; stroke-width: 3; stroke-linecap: square"/>
   </g>
   <g id="line2d_22">
    <path clip-path="url(#p38dfd2d549)" style="fill: none; stroke: #bf00bf; stroke-width: 3; stroke-linecap: square"/>
   </g>
   <g id="line2d_23">
    <path d="M 34.16 224.165078 
L 138.72262 224.165078 
L 138.72262 222.952084 
L 142.390289 222.952084 
L 142.390289 221.739091 
L 143.506949 221.739091 
L 143.506949 220.526098 
L 147.174618 220.526098 
L 147.174618 219.313104 
L 184.404927 219.313104 
L 184.404927 218.100111 
L 186.095694 218.100111 
L 186.146973 215.674124 
L 186.552731 215.674124 
L 186.552731 214.461131 
L 189.763363 214.461131 
L 189.763363 213.248138 
L 190.2204 213.248138 
L 190.2204 212.035144 
L 197.921491 212.035144 
L 197.921491 210.822151 
L 200.385231 210.822151 
L 200.385231 209.609158 
L 202.70582 209.609158 
L 202.70582 208.396164 
L 204.903646 208.396164 
L 204.903646 207.183171 
L 205.16956 207.183171 
L 205.16956 205.970178 
L 205.63424 205.970178 
L 205.63424 204.757184 
L 206.26585 204.757184 
L 206.26585 203.544191 
L 206.645691 203.544191 
L 206.645691 202.331198 
L 206.867821 202.331198 
L 206.867821 201.118204 
L 207.376285 201.118204 
L 207.376285 199.905211 
L 208.007896 199.905211 
L 208.007896 198.692217 
L 208.423461 198.692217 
L 208.423461 197.479224 
L 210.165506 197.479224 
L 210.165506 196.266231 
L 211.917327 196.266231 
L 211.917327 195.053237 
L 216.701656 195.053237 
L 216.701656 193.840244 
L 220.445813 193.840244 
L 220.445813 192.627251 
L 220.713006 192.627251 
L 220.740733 190.201264 
L 221.426598 190.201264 
L 221.426598 188.988271 
L 222.208046 188.988271 
L 222.208046 187.775277 
L 223.883142 187.775277 
L 223.883142 186.562284 
L 224.052894 186.562284 
L 224.052894 185.349291 
L 224.197312 185.349291 
L 224.197312 184.136297 
L 224.97876 184.136297 
L 224.99159 181.710311 
L 225.525062 181.710311 
L 225.625187 179.284324 
L 225.794939 179.284324 
L 225.794939 178.07133 
L 226.733635 178.07133 
L 226.733635 176.858337 
L 227.36654 176.858337 
L 227.36654 175.645344 
L 227.684172 175.645344 
L 227.684172 174.43235 
L 228.097134 174.43235 
L 228.127077 172.006364 
L 228.728744 172.006364 
L 228.728744 170.79337 
L 230.886354 170.79337 
L 230.886354 169.580377 
L 232.468501 169.580377 
L 232.468501 168.367384 
L 232.911407 168.367384 
L 232.911407 167.15439 
L 240.944531 167.15439 
L 240.944531 165.941397 
L 241.211724 165.941397 
L 241.211724 164.728404 
L 241.326035 164.728404 
L 241.326035 163.51541 
L 241.675126 163.51541 
L 241.675126 162.302417 
L 241.942318 162.302417 
L 241.951 159.87643 
L 242.107483 159.87643 
L 242.107483 158.663437 
L 242.273638 158.663437 
L 242.329769 153.811463 
L 242.573929 153.811463 
L 242.573929 152.59847 
L 243.693046 152.59847 
L 243.693046 151.385477 
L 244.058599 151.385477 
L 244.071814 148.95949 
L 244.464346 148.95949 
L 244.464346 147.746497 
L 244.731539 147.746497 
L 244.731539 146.533503 
L 245.044353 146.533503 
L 245.044353 145.32051 
L 245.294564 145.32051 
L 245.294564 144.107517 
L 245.751602 144.107517 
L 245.751602 142.894523 
L 246.346036 142.894523 
L 246.346036 141.68153 
L 246.515787 141.68153 
L 246.515787 140.468537 
L 247.454483 140.468537 
L 247.454483 139.255543 
L 247.758304 139.255543 
L 247.758304 138.04255 
L 248.215342 138.04255 
L 248.215342 136.829557 
L 259.290401 136.829557 
L 259.290401 135.616563 
L 259.578441 135.616563 
L 259.614775 133.190576 
L 259.747438 133.190576 
L 259.747438 131.977583 
L 259.912264 131.977583 
L 259.92711 128.338603 
L 260.093779 128.338603 
L 260.19122 125.912616 
L 260.360972 125.912616 
L 260.360972 124.699623 
L 261.032475 124.699623 
L 261.032475 123.48663 
L 261.299668 123.48663 
L 261.299668 122.273636 
L 262.173076 122.273636 
L 262.173076 121.060643 
L 264.362771 121.060643 
L 264.413894 117.421663 
L 264.696593 117.421663 
L 264.792662 112.569689 
L 268.113807 112.569689 
L 268.113807 111.356696 
L 268.570844 111.356696 
L 268.570844 110.143703 
L 275.057245 110.143703 
L 275.057245 108.930709 
L 275.500151 108.930709 
L 275.514283 106.504723 
L 275.957189 106.504723 
L 275.957189 105.291729 
L 277.991886 105.291729 
L 277.991886 104.078736 
L 278.259079 104.078736 
L 278.357439 101.652749 
L 278.370654 101.652749 
L 278.370654 100.439756 
L 278.624632 100.439756 
L 278.637847 98.013769 
L 306.951515 98.013769 
L 306.987849 95.587783 
L 307.285338 95.587783 
L 307.300184 93.161796 
L 307.408553 93.161796 
L 307.444886 90.735809 
L 307.742375 90.735809 
L 307.757221 88.309822 
L 453.192 88.309822 
L 453.192 88.309822 
" clip-path="url(#p38dfd2d549)" style="fill: none; stroke: #ff0000; stroke-width: 3; stroke-linecap: square"/>
   </g>
   <g id="line2d_24">
    <path clip-path="url(#p38dfd2d549)" style="fill: none; stroke: #ff0000; stroke-width: 3; stroke-linecap: square"/>
   </g>
   <g id="line2d_25">
    <path d="M 243.676 291.28 
L 243.676 3 
" clip-path="url(#p38dfd2d549)" style="fill: none; stroke: #000000; stroke-width: 1.5; stroke-linecap: square"/>
   </g>
   <g id="line2d_26">
    <path d="M 34.16 147.14 
L 453.192 147.14 
" clip-path="url(#p38dfd2d549)" style="fill: none; stroke-dasharray: 2,3.3; stroke-dashoffset: 0; stroke: #000000; stroke-width: 2"/>
   </g>
   <g id="patch_3">
    <path d="M 34.16 291.28 
L 34.16 3 
" style="fill: none; stroke: #000000; stroke-width: 0.8; stroke-linejoin: miter; stroke-linecap: square"/>
   </g>
   <g id="patch_4">
    <path d="M 453.192 291.28 
L 453.192 3 
" style="fill: none; stroke: #000000; stroke-width: 0.8; stroke-linejoin: miter; stroke-linecap: square"/>
   </g>
   <g id="patch_5">
    <path d="M 34.16 291.28 
L 453.192 291.28 
" style="fill: none; stroke: #000000; stroke-width: 0.8; stroke-linejoin: miter; stroke-linecap: square"/>
   </g>
   <g id="patch_6">
    <path d="M 34.16 3 
L 453.192 3 
" style="fill: none; stroke: #000000; stroke-width: 0.8; stroke-linejoin: miter; stroke-linecap: square"/>
   </g>
   <g id="text_6">
    <!-- f20-f24,10-D -->
    <g transform="translate(318.19261 285.5144) scale(0.2 -0.2)">
     <defs>
      <path id="DejaVuSans-34" d="M 2419 4116 
L 825 1625 
L 2419 1625 
L 2419 4116 
z
M 2253 4666 
L 3047 4666 
L 3047 1625 
L 3713 1625 
L 3713 1100 
L 3047 1100 
L 3047 0 
L 2419 0 
L 2419 1100 
L 313 1100 
L 313 1709 
L 2253 4666 
z
" transform="scale(0.015625)"/>
      <path id="DejaVuSans-2c" d="M 750 794 
L 1409 794 
L 1409 256 
L 897 -744 
L 494 -744 
L 750 256 
L 750 794 
z
" transform="scale(0.015625)"/>
      <path id="DejaVuSans-44" d="M 1259 4147 
L 1259 519 
L 2022 519 
Q 2988 519 3436 956 
Q 3884 1394 3884 2338 
Q 3884 3275 3436 3711 
Q 2988 4147 2022 4147 
L 1259 4147 
z
M 628 4666 
L 1925 4666 
Q 3281 4666 3915 4102 
Q 4550 3538 4550 2338 
Q 4550 1131 3912 565 
Q 3275 0 1925 0 
L 628 0 
L 628 4666 
z
" transform="scale(0.015625)"/>
     </defs>
     <use xlink:href="#DejaVuSans-66"/>
     <use xlink:href="#DejaVuSans-32" x="35.205078"/>
     <use xlink:href="#DejaVuSans-30" x="98.828125"/>
     <use xlink:href="#DejaVuSans-2d" x="162.451172"/>
     <use xlink:href="#DejaVuSans-66" x="198.535156"/>
     <use xlink:href="#DejaVuSans-32" x="233.740234"/>
     <use xlink:href="#DejaVuSans-34" x="297.363281"/>
     <use xlink:href="#DejaVuSans-2c" x="360.986328"/>
     <use xlink:href="#DejaVuSans-31" x="392.773438"/>
     <use xlink:href="#DejaVuSans-30" x="456.396484"/>
     <use xlink:href="#DejaVuSans-2d" x="520.019531"/>
     <use xlink:href="#DejaVuSans-44" x="556.103516"/>
    </g>
   </g>
   <g id="text_7">
    <!-- v2.6.3 -->
    <g style="fill: #808080" transform="translate(227.99475 286.317512) scale(0.1 -0.1)">
     <defs>
      <path id="DejaVuSans-2e" d="M 684 794 
L 1344 794 
L 1344 0 
L 684 0 
L 684 794 
z
" transform="scale(0.015625)"/>
      <path id="DejaVuSans-36" d="M 2113 2584 
Q 1688 2584 1439 2293 
Q 1191 2003 1191 1497 
Q 1191 994 1439 701 
Q 1688 409 2113 409 
Q 2538 409 2786 701 
Q 3034 994 3034 1497 
Q 3034 2003 2786 2293 
Q 2538 2584 2113 2584 
z
M 3366 4563 
L 3366 3988 
Q 3128 4100 2886 4159 
Q 2644 4219 2406 4219 
Q 1781 4219 1451 3797 
Q 1122 3375 1075 2522 
Q 1259 2794 1537 2939 
Q 1816 3084 2150 3084 
Q 2853 3084 3261 2657 
Q 3669 2231 3669 1497 
Q 3669 778 3244 343 
Q 2819 -91 2113 -91 
Q 1303 -91 875 529 
Q 447 1150 447 2328 
Q 447 3434 972 4092 
Q 1497 4750 2381 4750 
Q 2619 4750 2861 4703 
Q 3103 4656 3366 4563 
z
" transform="scale(0.015625)"/>
      <path id="DejaVuSans-33" d="M 2597 2516 
Q 3050 2419 3304 2112 
Q 3559 1806 3559 1356 
Q 3559 666 3084 287 
Q 2609 -91 1734 -91 
Q 1441 -91 1130 -33 
Q 819 25 488 141 
L 488 750 
Q 750 597 1062 519 
Q 1375 441 1716 441 
Q 2309 441 2620 675 
Q 2931 909 2931 1356 
Q 2931 1769 2642 2001 
Q 2353 2234 1838 2234 
L 1294 2234 
L 1294 2753 
L 1863 2753 
Q 2328 2753 2575 2939 
Q 2822 3125 2822 3475 
Q 2822 3834 2567 4026 
Q 2313 4219 1838 4219 
Q 1578 4219 1281 4162 
Q 984 4106 628 3988 
L 628 4550 
Q 988 4650 1302 4700 
Q 1616 4750 1894 4750 
Q 2613 4750 3031 4423 
Q 3450 4097 3450 3541 
Q 3450 3153 3228 2886 
Q 3006 2619 2597 2516 
z
" transform="scale(0.015625)"/>
     </defs>
     <use xlink:href="#DejaVuSans-76"/>
     <use xlink:href="#DejaVuSans-32" x="59.179688"/>
     <use xlink:href="#DejaVuSans-2e" x="122.802734"/>
     <use xlink:href="#DejaVuSans-36" x="154.589844"/>
     <use xlink:href="#DejaVuSans-2e" x="218.212891"/>
     <use xlink:href="#DejaVuSans-33" x="250"/>
    </g>
   </g>
   <g id="legend_1">
    <g id="patch_7">
     <path d="M 48.16 136.425 
L 177.381875 136.425 
Q 181.381875 136.425 181.381875 132.425 
L 181.381875 17 
Q 181.381875 13 177.381875 13 
L 48.16 13 
Q 44.16 13 44.16 17 
L 44.16 132.425 
Q 44.16 136.425 48.16 136.425 
z
" style="fill: #ffffff; opacity: 0.2; stroke: #cccccc; stroke-linejoin: miter"/>
    </g>
    <g id="line2d_27">
     <path d="M 52.16 29.196875 
L 72.16 29.196875 
L 92.16 29.196875 
" style="fill: none; stroke: #000000; stroke-width: 3; stroke-linecap: square"/>
    </g>
    <g id="text_8">
     <!-- 1: 5/5 -->
     <g transform="translate(108.16 36.196875) scale(0.2 -0.2)">
      <defs>
       <path id="DejaVuSans-3a" d="M 750 794 
L 1409 794 
L 1409 0 
L 750 0 
L 750 794 
z
M 750 3309 
L 1409 3309 
L 1409 2516 
L 750 2516 
L 750 3309 
z
" transform="scale(0.015625)"/>
       <path id="DejaVuSans-35" d="M 691 4666 
L 3169 4666 
L 3169 4134 
L 1269 4134 
L 1269 2991 
Q 1406 3038 1543 3061 
Q 1681 3084 1819 3084 
Q 2600 3084 3056 2656 
Q 3513 2228 3513 1497 
Q 3513 744 3044 326 
Q 2575 -91 1722 -91 
Q 1428 -91 1123 -41 
Q 819 9 494 109 
L 494 744 
Q 775 591 1075 516 
Q 1375 441 1709 441 
Q 2250 441 2565 725 
Q 2881 1009 2881 1497 
Q 2881 1984 2565 2268 
Q 2250 2553 1709 2553 
Q 1456 2553 1204 2497 
Q 953 2441 691 2322 
L 691 4666 
z
" transform="scale(0.015625)"/>
       <path id="DejaVuSans-2f" d="M 1625 4666 
L 2156 4666 
L 531 -594 
L 0 -594 
L 1625 4666 
z
" transform="scale(0.015625)"/>
      </defs>
      <use xlink:href="#DejaVuSans-31"/>
      <use xlink:href="#DejaVuSans-3a" x="63.623047"/>
      <use xlink:href="#DejaVuSans-20" x="97.314453"/>
      <use xlink:href="#DejaVuSans-35" x="129.101562"/>
      <use xlink:href="#DejaVuSans-2f" x="192.724609"/>
      <use xlink:href="#DejaVuSans-35" x="226.416016"/>
     </g>
    </g>
    <g id="line2d_28">
     <path d="M 52.16 58.553125 
L 72.16 58.553125 
L 92.16 58.553125 
" style="fill: none; stroke: #00bfbf; stroke-width: 3; stroke-linecap: square"/>
    </g>
    <g id="text_9">
     <!-- -1: 4/4 -->
     <g transform="translate(108.16 65.553125) scale(0.2 -0.2)">
      <use xlink:href="#DejaVuSans-2d"/>
      <use xlink:href="#DejaVuSans-31" x="36.083984"/>
      <use xlink:href="#DejaVuSans-3a" x="99.707031"/>
      <use xlink:href="#DejaVuSans-20" x="133.398438"/>
      <use xlink:href="#DejaVuSans-34" x="165.185547"/>
      <use xlink:href="#DejaVuSans-2f" x="228.808594"/>
      <use xlink:href="#DejaVuSans-34" x="262.5"/>
     </g>
    </g>
    <g id="line2d_29">
     <path d="M 52.16 87.909375 
L 72.16 87.909375 
L 92.16 87.909375 
" style="fill: none; stroke: #bf00bf; stroke-width: 3; stroke-linecap: square"/>
    </g>
    <g id="text_10">
     <!-- -4: 4/3 -->
     <g transform="translate(108.16 94.909375) scale(0.2 -0.2)">
      <use xlink:href="#DejaVuSans-2d"/>
      <use xlink:href="#DejaVuSans-34" x="36.083984"/>
      <use xlink:href="#DejaVuSans-3a" x="99.707031"/>
      <use xlink:href="#DejaVuSans-20" x="133.398438"/>
      <use xlink:href="#DejaVuSans-34" x="165.185547"/>
      <use xlink:href="#DejaVuSans-2f" x="228.808594"/>
      <use xlink:href="#DejaVuSans-33" x="262.5"/>
     </g>
    </g>
    <g id="line2d_30">
     <path d="M 52.16 117.265625 
L 72.16 117.265625 
L 92.16 117.265625 
" style="fill: none; stroke: #ff0000; stroke-width: 3; stroke-linecap: square"/>
    </g>
    <g id="text_11">
     <!-- -8: 4/3 -->
     <g transform="translate(108.16 124.265625) scale(0.2 -0.2)">
      <defs>
       <path id="DejaVuSans-38" d="M 2034 2216 
Q 1584 2216 1326 1975 
Q 1069 1734 1069 1313 
Q 1069 891 1326 650 
Q 1584 409 2034 409 
Q 2484 409 2743 651 
Q 3003 894 3003 1313 
Q 3003 1734 2745 1975 
Q 2488 2216 2034 2216 
z
M 1403 2484 
Q 997 2584 770 2862 
Q 544 3141 544 3541 
Q 544 4100 942 4425 
Q 1341 4750 2034 4750 
Q 2731 4750 3128 4425 
Q 3525 4100 3525 3541 
Q 3525 3141 3298 2862 
Q 3072 2584 2669 2484 
Q 3125 2378 3379 2068 
Q 3634 1759 3634 1313 
Q 3634 634 3220 271 
Q 2806 -91 2034 -91 
Q 1263 -91 848 271 
Q 434 634 434 1313 
Q 434 1759 690 2068 
Q 947 2378 1403 2484 
z
M 1172 3481 
Q 1172 3119 1398 2916 
Q 1625 2713 2034 2713 
Q 2441 2713 2670 2916 
Q 2900 3119 2900 3481 
Q 2900 3844 2670 4047 
Q 2441 4250 2034 4250 
Q 1625 4250 1398 4047 
Q 1172 3844 1172 3481 
z
" transform="scale(0.015625)"/>
      </defs>
      <use xlink:href="#DejaVuSans-2d"/>
      <use xlink:href="#DejaVuSans-38" x="36.083984"/>
      <use xlink:href="#DejaVuSans-3a" x="99.707031"/>
      <use xlink:href="#DejaVuSans-20" x="133.398438"/>
      <use xlink:href="#DejaVuSans-34" x="165.185547"/>
      <use xlink:href="#DejaVuSans-2f" x="228.808594"/>
      <use xlink:href="#DejaVuSans-33" x="262.5"/>
     </g>
    </g>
   </g>
  </g>
 </g>
 <defs>
  <clipPath id="p38dfd2d549">
   <rect x="34.16" y="3" width="419.032" height="288.28"/>
  </clipPath>
 </defs>
</svg>
