<?xml version="1.0" encoding="utf-8" standalone="no"?>
<!DOCTYPE svg PUBLIC "-//W3C//DTD SVG 1.1//EN"
  "http://www.w3.org/Graphics/SVG/1.1/DTD/svg11.dtd">
<svg xmlns:xlink="http://www.w3.org/1999/xlink" width="460.8pt" height="345.6pt" viewBox="0 0 460.8 345.6" xmlns="http://www.w3.org/2000/svg" version="1.1">
 <metadata>
  <rdf:RDF xmlns:dc="http://purl.org/dc/elements/1.1/" xmlns:cc="http://creativecommons.org/ns#" xmlns:rdf="http://www.w3.org/1999/02/22-rdf-syntax-ns#">
   <cc:Work>
    <dc:type rdf:resource="http://purl.org/dc/dcmitype/StillImage"/>
    <dc:date>2024-05-24T12:12:07.430194</dc:date>
    <dc:format>image/svg+xml</dc:format>
    <dc:creator>
     <cc:Agent>
      <dc:title>Matplotlib v3.7.1, https://matplotlib.org/</dc:title>
     </cc:Agent>
    </dc:creator>
   </cc:Work>
  </rdf:RDF>
 </metadata>
 <defs>
  <style type="text/css">*{stroke-linejoin: round; stroke-linecap: butt}</style>
 </defs>
 <g id="figure_1">
  <g id="patch_1">
   <path d="M 0 345.6 
L 460.8 345.6 
L 460.8 0 
L 0 0 
z
" style="fill: #ffffff"/>
  </g>
  <g id="axes_1">
   <g id="patch_2">
    <path d="M 62.208 293.76 
L 460.8 293.76 
L 460.8 3.456 
L 62.208 3.456 
z
" style="fill: #ffffff"/>
   </g>
   <g id="line2d_1">
    <path d="M 273.261096 293.76 
L 273.261096 289.927604 
L 276.635127 289.927604 
L 276.635127 286.095208 
L 284.751798 286.095208 
L 284.751798 282.262812 
L 296.935681 282.262812 
L 296.935681 278.430416 
L 318.811079 278.430416 
L 318.811079 274.59802 
L 328.411551 274.59802 
L 328.411551 270.765624 
L 328.411551 270.765624 
L 328.411551 270.765624 
L 460.8 270.765624 
" clip-path="url(#p34274e25af)" style="fill: none; stroke: #f5deb3; stroke-width: 1.5; stroke-linecap: square"/>
   </g>
   <g id="line2d_2">
    <path d="M 408.821195 293.76 
L 408.821195 282.262812 
L 408.821195 282.262812 
L 408.821195 282.262812 
L 460.8 282.262812 
" clip-path="url(#p34274e25af)" style="fill: none; stroke: #f5deb3; stroke-width: 1.5; stroke-linecap: square"/>
   </g>
   <g id="line2d_3">
    <path d="M 218.799548 293.76 
L 218.799548 289.927604 
L 225.505942 289.927604 
L 225.505942 286.095208 
L 285.122215 286.095208 
L 285.122215 282.262812 
L 288.450435 282.262812 
L 288.450435 278.430416 
L 298.73677 278.430416 
L 298.73677 274.59802 
L 301.55336 274.59802 
L 301.55336 270.765624 
L 304.766045 270.765624 
L 304.766045 266.933228 
L 316.28483 266.933228 
L 316.28483 263.100832 
L 317.554723 263.100832 
L 317.554723 259.268436 
L 317.97224 259.268436 
L 317.97224 255.43604 
L 318.598873 255.43604 
L 318.598873 251.603644 
L 322.290729 251.603644 
L 322.290729 247.771248 
L 329.190903 247.771248 
L 329.190903 243.938851 
L 334.319282 243.938851 
L 334.319282 240.106455 
L 334.874288 240.106455 
L 334.874288 236.274059 
L 343.66753 236.274059 
L 343.66753 232.441663 
L 344.913313 232.441663 
L 344.913313 228.609267 
L 348.502889 228.609267 
L 348.502889 224.776871 
L 372.933245 224.776871 
L 372.933245 220.944475 
L 374.351217 220.944475 
L 374.351217 217.112079 
L 377.078387 217.112079 
L 377.078387 213.279683 
L 379.844074 213.279683 
L 379.844074 209.447287 
L 380.91482 209.447287 
L 380.91482 205.614891 
L 387.287503 205.614891 
L 387.287503 201.782495 
L 387.783618 201.782495 
L 387.783618 197.950099 
L 404.256982 197.950099 
L 404.256982 194.117703 
L 406.05565 194.117703 
L 406.05565 190.285307 
L 408.211931 190.285307 
L 408.211931 186.452911 
L 415.160827 186.452911 
L 415.160827 182.620515 
L 427.240673 182.620515 
L 427.240673 178.788119 
L 427.240673 178.788119 
L 427.240673 178.788119 
L 460.8 178.788119 
" clip-path="url(#p34274e25af)" style="fill: none; stroke: #f5deb3; stroke-width: 1.5; stroke-linecap: square"/>
   </g>
   <g id="line2d_4">
    <path d="M 233.396087 293.76 
L 233.396087 289.927604 
L 237.517304 289.927604 
L 237.517304 286.095208 
L 265.875539 286.095208 
L 265.875539 282.262812 
L 287.137178 282.262812 
L 287.137178 278.430416 
L 288.890268 278.430416 
L 288.890268 274.59802 
L 297.798648 274.59802 
L 297.798648 270.765624 
L 302.652321 270.765624 
L 302.652321 266.933228 
L 320.525195 266.933228 
L 320.525195 263.100832 
L 321.129847 263.100832 
L 321.129847 259.268436 
L 337.861571 259.268436 
L 337.861571 255.43604 
L 339.356934 255.43604 
L 339.356934 251.603644 
L 344.661934 251.603644 
L 344.661934 247.771248 
L 350.68191 247.771248 
L 350.68191 243.938851 
L 351.274903 243.938851 
L 351.274903 240.106455 
L 357.640457 240.106455 
L 357.640457 236.274059 
L 365.040882 236.274059 
L 365.040882 232.441663 
L 381.23105 232.441663 
L 381.23105 228.609267 
L 382.546864 228.609267 
L 382.546864 224.776871 
L 383.348623 224.776871 
L 383.348623 220.944475 
L 384.021493 220.944475 
L 384.021493 217.112079 
L 387.247307 217.112079 
L 387.247307 213.279683 
L 390.653884 213.279683 
L 390.653884 209.447287 
L 397.868635 209.447287 
L 397.868635 205.614891 
L 400.618474 205.614891 
L 400.618474 201.782495 
L 400.655356 201.782495 
L 400.655356 197.950099 
L 409.164305 197.950099 
L 409.164305 194.117703 
L 417.02035 194.117703 
L 417.02035 190.285307 
L 424.85201 190.285307 
L 424.85201 186.452911 
L 430.800837 186.452911 
L 430.800837 182.620515 
L 431.958942 182.620515 
L 431.958942 178.788119 
L 431.958942 178.788119 
L 431.958942 178.788119 
L 460.8 178.788119 
" clip-path="url(#p34274e25af)" style="fill: none; stroke: #f5deb3; stroke-width: 1.5; stroke-linecap: square"/>
   </g>
   <g id="line2d_5"/>
   <g id="line2d_6"/>
   <g id="line2d_7">
    <path d="M 264.590933 293.76 
L 264.590933 289.927604 
L 373.392586 289.927604 
L 373.392586 286.095208 
L 376.5945 286.095208 
L 376.5945 282.262812 
L 379.064821 282.262812 
L 379.064821 278.430416 
L 402.005966 278.430416 
L 402.005966 274.59802 
L 405.642004 274.59802 
L 405.642004 270.765624 
L 407.237024 270.765624 
L 407.237024 266.933228 
L 412.416661 266.933228 
L 412.416661 263.100832 
L 436.652607 263.100832 
L 436.652607 259.268436 
L 445.59373 259.268436 
L 445.59373 255.43604 
L 446.734084 255.43604 
L 446.734084 251.603644 
L 452.497541 251.603644 
L 452.497541 247.771248 
L 452.560042 247.771248 
L 452.560042 243.938851 
L 461.8 243.938851 
" clip-path="url(#p34274e25af)" style="fill: none; stroke: #f5deb3; stroke-width: 1.5; stroke-linecap: square"/>
   </g>
   <g id="line2d_8">
    <path d="M 407.09585 293.76 
L 407.09585 289.927604 
L 411.421361 289.927604 
L 411.421361 286.095208 
L 441.589212 286.095208 
L 441.589212 282.262812 
L 442.99801 282.262812 
L 442.99801 278.430416 
L 461.8 278.430416 
" clip-path="url(#p34274e25af)" style="fill: none; stroke: #f5deb3; stroke-width: 1.5; stroke-linecap: square"/>
   </g>
   <g id="line2d_9">
    <path d="M 253.754989 293.76 
L 253.754989 289.927604 
L 258.309346 289.927604 
L 258.309346 286.095208 
L 360.046785 286.095208 
L 360.046785 282.262812 
L 370.412408 282.262812 
L 370.412408 278.430416 
L 381.789277 278.430416 
L 381.789277 274.59802 
L 383.597802 274.59802 
L 383.597802 270.765624 
L 384.168428 270.765624 
L 384.168428 266.933228 
L 397.636089 266.933228 
L 397.636089 263.100832 
L 398.358187 263.100832 
L 398.358187 259.268436 
L 398.425461 259.268436 
L 398.425461 255.43604 
L 399.221978 255.43604 
L 399.221978 251.603644 
L 402.959228 251.603644 
L 402.959228 247.771248 
L 412.935718 247.771248 
L 412.935718 243.938851 
L 417.811775 243.938851 
L 417.811775 240.106455 
L 427.610563 240.106455 
L 427.610563 236.274059 
L 438.109637 236.274059 
L 438.109637 232.441663 
L 441.467396 232.441663 
L 441.467396 228.609267 
L 443.951663 228.609267 
L 443.951663 224.776871 
L 444.25876 224.776871 
L 444.25876 220.944475 
L 454.485308 220.944475 
L 454.485308 217.112079 
L 456.431835 217.112079 
L 456.431835 213.279683 
L 456.518611 213.279683 
L 456.518611 209.447287 
L 459.967975 209.447287 
L 459.967975 205.614891 
L 461.8 205.614891 
" clip-path="url(#p34274e25af)" style="fill: none; stroke: #f5deb3; stroke-width: 1.5; stroke-linecap: square"/>
   </g>
   <g id="line2d_10">
    <path d="M 433.245778 293.76 
L 433.245778 289.927604 
L 442.108058 289.927604 
L 442.108058 286.095208 
L 461.8 286.095208 
" clip-path="url(#p34274e25af)" style="fill: none; stroke: #f5deb3; stroke-width: 1.5; stroke-linecap: square"/>
   </g>
   <g id="line2d_11">
    <path d="M 234.732699 293.76 
L 234.732699 289.927604 
L 235.844842 289.927604 
L 235.844842 286.095208 
L 280.233956 286.095208 
L 280.233956 282.262812 
L 337.283268 282.262812 
L 337.283268 278.430416 
L 365.53371 278.430416 
L 365.53371 274.59802 
L 378.815048 274.59802 
L 378.815048 270.765624 
L 379.703146 270.765624 
L 379.703146 266.933228 
L 382.301693 266.933228 
L 382.301693 263.100832 
L 382.899017 263.100832 
L 382.899017 259.268436 
L 390.622544 259.268436 
L 390.622544 255.43604 
L 396.196378 255.43604 
L 396.196378 251.603644 
L 402.455421 251.603644 
L 402.455421 247.771248 
L 415.834119 247.771248 
L 415.834119 243.938851 
L 416.665098 243.938851 
L 416.665098 240.106455 
L 418.089319 240.106455 
L 418.089319 236.274059 
L 424.594726 236.274059 
L 424.594726 232.441663 
L 427.042111 232.441663 
L 427.042111 228.609267 
L 440.652304 228.609267 
L 440.652304 224.776871 
L 440.721235 224.776871 
L 440.721235 220.944475 
L 441.322739 220.944475 
L 441.322739 217.112079 
L 444.835975 217.112079 
L 444.835975 213.279683 
L 449.93973 213.279683 
L 449.93973 209.447287 
L 456.420578 209.447287 
L 456.420578 205.614891 
L 456.882457 205.614891 
L 456.882457 201.782495 
L 461.072101 201.782495 
L 461.072101 197.950099 
L 461.8 197.950099 
" clip-path="url(#p34274e25af)" style="fill: none; stroke: #f5deb3; stroke-width: 1.5; stroke-linecap: square"/>
   </g>
   <g id="line2d_12">
    <path d="M 294.659171 293.76 
L 294.659171 289.927604 
L 323.774957 289.927604 
L 323.774957 286.095208 
L 335.389265 286.095208 
L 335.389265 282.262812 
L 368.348505 282.262812 
L 368.348505 278.430416 
L 381.935579 278.430416 
L 381.935579 274.59802 
L 383.156047 274.59802 
L 383.156047 270.765624 
L 386.337118 270.765624 
L 386.337118 266.933228 
L 389.144148 266.933228 
L 389.144148 263.100832 
L 390.940539 263.100832 
L 390.940539 259.268436 
L 392.661881 259.268436 
L 392.661881 255.43604 
L 397.868635 255.43604 
L 397.868635 251.603644 
L 406.529171 251.603644 
L 406.529171 247.771248 
L 411.31282 247.771248 
L 411.31282 243.938851 
L 411.31282 243.938851 
L 411.31282 243.938851 
L 460.8 243.938851 
" clip-path="url(#p34274e25af)" style="fill: none; stroke: #f5deb3; stroke-width: 1.5; stroke-linecap: square"/>
   </g>
   <g id="line2d_13">
    <path d="M 333.341108 293.76 
L 333.341108 289.927604 
L 354.807102 289.927604 
L 354.807102 286.095208 
L 358.739334 286.095208 
L 358.739334 282.262812 
L 358.739334 282.262812 
L 358.739334 282.262812 
L 460.8 282.262812 
" clip-path="url(#p34274e25af)" style="fill: none; stroke: #f5deb3; stroke-width: 1.5; stroke-linecap: square"/>
   </g>
   <g id="line2d_14">
    <path d="M 266.921056 293.76 
L 266.921056 289.927604 
L 269.451349 289.927604 
L 269.451349 286.095208 
L 327.227446 286.095208 
L 327.227446 282.262812 
L 341.631786 282.262812 
L 341.631786 278.430416 
L 346.734773 278.430416 
L 346.734773 274.59802 
L 366.322514 274.59802 
L 366.322514 270.765624 
L 371.641306 270.765624 
L 371.641306 266.933228 
L 373.284199 266.933228 
L 373.284199 263.100832 
L 374.564291 263.100832 
L 374.564291 259.268436 
L 377.54883 259.268436 
L 377.54883 255.43604 
L 379.219223 255.43604 
L 379.219223 251.603644 
L 380.525193 251.603644 
L 380.525193 247.771248 
L 397.078169 247.771248 
L 397.078169 243.938851 
L 397.924777 243.938851 
L 397.924777 240.106455 
L 399.672928 240.106455 
L 399.672928 236.274059 
L 399.80087 236.274059 
L 399.80087 232.441663 
L 400.165374 232.441663 
L 400.165374 228.609267 
L 406.813004 228.609267 
L 406.813004 224.776871 
L 407.122595 224.776871 
L 407.122595 220.944475 
L 411.919041 220.944475 
L 411.919041 217.112079 
L 413.721778 217.112079 
L 413.721778 213.279683 
L 418.938876 213.279683 
L 418.938876 209.447287 
L 422.548798 209.447287 
L 422.548798 205.614891 
L 428.005936 205.614891 
L 428.005936 201.782495 
L 440.804812 201.782495 
L 440.804812 197.950099 
L 440.804812 197.950099 
L 440.804812 197.950099 
L 460.8 197.950099 
" clip-path="url(#p34274e25af)" style="fill: none; stroke: #f5deb3; stroke-width: 1.5; stroke-linecap: square"/>
   </g>
   <g id="line2d_15">
    <path clip-path="url(#p34274e25af)" style="fill: none; stroke: #f5deb3; stroke-width: 1.5; stroke-linecap: square"/>
   </g>
   <g id="line2d_16">
    <path d="M 386.123088 293.76 
L 386.123088 289.927604 
L 420.01223 289.927604 
L 420.01223 286.095208 
L 456.04096 286.095208 
L 456.04096 282.262812 
L 461.8 282.262812 
" clip-path="url(#p34274e25af)" style="fill: none; stroke: #f5deb3; stroke-width: 1.5; stroke-linecap: square"/>
   </g>
   <g id="line2d_17">
    <path d="M 379.969761 293.76 
L 379.969761 289.927604 
L 387.893398 289.927604 
L 387.893398 286.095208 
L 395.772208 286.095208 
L 395.772208 282.262812 
L 401.389454 282.262812 
L 401.389454 278.430416 
L 401.389454 278.430416 
L 401.389454 278.430416 
L 460.8 278.430416 
" clip-path="url(#p34274e25af)" style="fill: none; stroke: #f5deb3; stroke-width: 1.5; stroke-linecap: square"/>
   </g>
   <g id="line2d_18">
    <path d="M 224.87438 293.76 
L 224.87438 289.927604 
L 230.027497 289.927604 
L 230.027497 286.095208 
L 230.027497 286.095208 
L 230.027497 282.262812 
L 232.940738 282.262812 
L 232.940738 278.430416 
L 283.177964 278.430416 
L 283.177964 274.59802 
L 292.712182 274.59802 
L 292.712182 270.765624 
L 294.556643 270.765624 
L 294.556643 266.933228 
L 296.011809 266.933228 
L 296.011809 263.100832 
L 301.305115 263.100832 
L 301.305115 259.268436 
L 307.788848 259.268436 
L 307.788848 255.43604 
L 309.741637 255.43604 
L 309.741637 251.603644 
L 313.519557 251.603644 
L 313.519557 247.771248 
L 315.97205 247.771248 
L 315.97205 243.938851 
L 326.760224 243.938851 
L 326.760224 240.106455 
L 334.16814 240.106455 
L 334.16814 236.274059 
L 342.975913 236.274059 
L 342.975913 232.441663 
L 343.707592 232.441663 
L 343.707592 228.609267 
L 345.176049 228.609267 
L 345.176049 224.776871 
L 349.34571 224.776871 
L 349.34571 220.944475 
L 365.976677 220.944475 
L 365.976677 217.112079 
L 375.149294 217.112079 
L 375.149294 213.279683 
L 378.450933 213.279683 
L 378.450933 209.447287 
L 384.505396 209.447287 
L 384.505396 205.614891 
L 399.982957 205.614891 
L 399.982957 201.782495 
L 405.992886 201.782495 
L 405.992886 197.950099 
L 407.543458 197.950099 
L 407.543458 194.117703 
L 410.628321 194.117703 
L 410.628321 190.285307 
L 410.628321 190.285307 
L 410.628321 190.285307 
L 460.8 190.285307 
" clip-path="url(#p34274e25af)" style="fill: none; stroke: #f5deb3; stroke-width: 1.5; stroke-linecap: square"/>
   </g>
   <g id="line2d_19">
    <path d="M 393.325172 293.76 
L 393.325172 290.338218 
L 394.610212 290.338218 
L 394.610212 286.916436 
L 397.384085 286.916436 
L 397.384085 283.494653 
L 404.15141 283.494653 
L 404.15141 280.072871 
L 406.05761 280.072871 
L 406.05761 276.651089 
L 406.942683 276.651089 
L 406.942683 273.229307 
L 409.045088 273.229307 
L 409.045088 269.807525 
L 409.051467 269.807525 
L 409.051467 266.385743 
L 412.122532 266.385743 
L 412.122532 262.96396 
L 415.761398 262.96396 
L 415.761398 259.542178 
L 426.730598 259.542178 
L 426.730598 256.120396 
L 433.049774 256.120396 
L 433.049774 252.698614 
L 437.048523 252.698614 
L 437.048523 249.276832 
L 437.20988 249.276832 
L 437.20988 245.85505 
L 454.845884 245.85505 
L 454.845884 242.433267 
L 461.8 242.433267 
" clip-path="url(#p34274e25af)" style="fill: none; stroke: #f5deb3; stroke-width: 1.5; stroke-linecap: square"/>
   </g>
   <g id="line2d_20">
    <path d="M 247.132046 293.76 
L 247.132046 289.927604 
L 292.819396 289.927604 
L 292.819396 286.095208 
L 295.153563 286.095208 
L 295.153563 282.262812 
L 307.62898 282.262812 
L 307.62898 278.430416 
L 310.763638 278.430416 
L 310.763638 274.59802 
L 316.206857 274.59802 
L 316.206857 270.765624 
L 323.839858 270.765624 
L 323.839858 266.933228 
L 324.305578 266.933228 
L 324.305578 263.100832 
L 333.87548 263.100832 
L 333.87548 259.268436 
L 333.92064 259.268436 
L 333.92064 255.43604 
L 348.649167 255.43604 
L 348.649167 251.603644 
L 353.386035 251.603644 
L 353.386035 247.771248 
L 353.561555 247.771248 
L 353.561555 243.938851 
L 355.817603 243.938851 
L 355.817603 240.106455 
L 359.102273 240.106455 
L 359.102273 236.274059 
L 362.804599 236.274059 
L 362.804599 232.441663 
L 368.397412 232.441663 
L 368.397412 228.609267 
L 370.766947 228.609267 
L 370.766947 224.776871 
L 372.60135 224.776871 
L 372.60135 220.944475 
L 375.962729 220.944475 
L 375.962729 217.112079 
L 383.220907 217.112079 
L 383.220907 213.279683 
L 384.160093 213.279683 
L 384.160093 209.447287 
L 385.216697 209.447287 
L 385.216697 205.614891 
L 386.016452 205.614891 
L 386.016452 201.782495 
L 394.145764 201.782495 
L 394.145764 197.950099 
L 394.435195 197.950099 
L 394.435195 194.117703 
L 402.715534 194.117703 
L 402.715534 190.285307 
L 424.809137 190.285307 
L 424.809137 186.452911 
L 432.70271 186.452911 
L 432.70271 182.620515 
L 432.70271 182.620515 
L 432.70271 182.620515 
L 460.8 182.620515 
" clip-path="url(#p34274e25af)" style="fill: none; stroke: #f5deb3; stroke-width: 1.5; stroke-linecap: square"/>
   </g>
   <g id="line2d_21"/>
   <g id="line2d_22">
    <path d="M 246.383629 293.76 
L 246.383629 289.927604 
L 262.601596 289.927604 
L 262.601596 286.095208 
L 265.757715 286.095208 
L 265.757715 282.262812 
L 267.940702 282.262812 
L 267.940702 278.430416 
L 272.816128 278.430416 
L 272.816128 274.59802 
L 313.016666 274.59802 
L 313.016666 270.765624 
L 325.53389 270.765624 
L 325.53389 266.933228 
L 335.116143 266.933228 
L 335.116143 263.100832 
L 356.068876 263.100832 
L 356.068876 259.268436 
L 366.30452 259.268436 
L 366.30452 255.43604 
L 366.891692 255.43604 
L 366.891692 251.603644 
L 368.240706 251.603644 
L 368.240706 247.771248 
L 380.034304 247.771248 
L 380.034304 243.938851 
L 383.273744 243.938851 
L 383.273744 240.106455 
L 390.915076 240.106455 
L 390.915076 236.274059 
L 408.455794 236.274059 
L 408.455794 232.441663 
L 410.988078 232.441663 
L 410.988078 228.609267 
L 424.549708 228.609267 
L 424.549708 224.776871 
L 426.931253 224.776871 
L 426.931253 220.944475 
L 428.201063 220.944475 
L 428.201063 217.112079 
L 436.323899 217.112079 
L 436.323899 213.279683 
L 439.398834 213.279683 
L 439.398834 209.447287 
L 442.040182 209.447287 
L 442.040182 205.614891 
L 445.792595 205.614891 
L 445.792595 201.782495 
L 456.888452 201.782495 
L 456.888452 197.950099 
L 459.902767 197.950099 
L 459.902767 194.117703 
L 461.8 194.117703 
" clip-path="url(#p34274e25af)" style="fill: none; stroke: #f5deb3; stroke-width: 1.5; stroke-linecap: square"/>
   </g>
   <g id="line2d_23">
    <path d="M 337.39232 293.76 
L 337.39232 289.927604 
L 340.737814 289.927604 
L 340.737814 286.095208 
L 342.685039 286.095208 
L 342.685039 282.262812 
L 346.990293 282.262812 
L 346.990293 278.430416 
L 347.399111 278.430416 
L 347.399111 274.59802 
L 350.666881 274.59802 
L 350.666881 270.765624 
L 461.8 270.765624 
" clip-path="url(#p34274e25af)" style="fill: none; stroke: #f5deb3; stroke-width: 1.5; stroke-linecap: square"/>
   </g>
   <g id="line2d_24">
    <path d="M 311.177205 293.76 
L 311.177205 289.927604 
L 315.463079 289.927604 
L 315.463079 286.095208 
L 318.113238 286.095208 
L 318.113238 282.262812 
L 323.288564 282.262812 
L 323.288564 278.430416 
L 384.444183 278.430416 
L 384.444183 274.59802 
L 389.568854 274.59802 
L 389.568854 270.765624 
L 390.049964 270.765624 
L 390.049964 266.933228 
L 390.87402 266.933228 
L 390.87402 263.100832 
L 399.332872 263.100832 
L 399.332872 259.268436 
L 404.64415 259.268436 
L 404.64415 255.43604 
L 411.752108 255.43604 
L 411.752108 251.603644 
L 412.767032 251.603644 
L 412.767032 247.771248 
L 412.91664 247.771248 
L 412.91664 243.938851 
L 446.781893 243.938851 
L 446.781893 240.106455 
L 447.264893 240.106455 
L 447.264893 236.274059 
L 447.426438 236.274059 
L 447.426438 232.441663 
L 450.417358 232.441663 
L 450.417358 228.609267 
L 452.708776 228.609267 
L 452.708776 224.776871 
L 452.773166 224.776871 
L 452.773166 220.944475 
L 454.005089 220.944475 
L 454.005089 217.112079 
L 457.336676 217.112079 
L 457.336676 213.279683 
L 461.8 213.279683 
" clip-path="url(#p34274e25af)" style="fill: none; stroke: #f5deb3; stroke-width: 1.5; stroke-linecap: square"/>
   </g>
   <g id="line2d_25">
    <path d="M 432.324734 293.76 
L 432.324734 289.927604 
L 433.823264 289.927604 
L 433.823264 286.095208 
L 434.590349 286.095208 
L 434.590349 282.262812 
L 461.8 282.262812 
" clip-path="url(#p34274e25af)" style="fill: none; stroke: #f5deb3; stroke-width: 1.5; stroke-linecap: square"/>
   </g>
   <g id="line2d_26">
    <path d="M 303.522663 293.76 
L 303.522663 289.927604 
L 324.341185 289.927604 
L 324.341185 286.095208 
L 330.694534 286.095208 
L 330.694534 282.262812 
L 335.25293 282.262812 
L 335.25293 278.430416 
L 342.138674 278.430416 
L 342.138674 274.59802 
L 391.46188 274.59802 
L 391.46188 270.765624 
L 432.257855 270.765624 
L 432.257855 266.933228 
L 432.904965 266.933228 
L 432.904965 263.100832 
L 433.345959 263.100832 
L 433.345959 259.268436 
L 440.230294 259.268436 
L 440.230294 255.43604 
L 451.02465 255.43604 
L 451.02465 251.603644 
L 451.449573 251.603644 
L 451.449573 247.771248 
L 461.8 247.771248 
" clip-path="url(#p34274e25af)" style="fill: none; stroke: #f5deb3; stroke-width: 1.5; stroke-linecap: square"/>
   </g>
   <g id="line2d_27">
    <path d="M 247.775943 293.76 
L 247.775943 289.927604 
L 297.974493 289.927604 
L 297.974493 286.095208 
L 300.360644 286.095208 
L 300.360644 282.262812 
L 305.872837 282.262812 
L 305.872837 278.430416 
L 307.414854 278.430416 
L 307.414854 274.59802 
L 326.341928 274.59802 
L 326.341928 270.765624 
L 335.454546 270.765624 
L 335.454546 266.933228 
L 335.736241 266.933228 
L 335.736241 263.100832 
L 350.296956 263.100832 
L 350.296956 259.268436 
L 354.486385 259.268436 
L 354.486385 255.43604 
L 354.520622 255.43604 
L 354.520622 251.603644 
L 369.94431 251.603644 
L 369.94431 247.771248 
L 377.788863 247.771248 
L 377.788863 243.938851 
L 380.594326 243.938851 
L 380.594326 240.106455 
L 387.13579 240.106455 
L 387.13579 236.274059 
L 387.251947 236.274059 
L 387.251947 232.441663 
L 387.467901 232.441663 
L 387.467901 228.609267 
L 390.76907 228.609267 
L 390.76907 224.776871 
L 392.816211 224.776871 
L 392.816211 220.944475 
L 405.032737 220.944475 
L 405.032737 217.112079 
L 407.564247 217.112079 
L 407.564247 213.279683 
L 408.777187 213.279683 
L 408.777187 209.447287 
L 410.508873 209.447287 
L 410.508873 205.614891 
L 414.153158 205.614891 
L 414.153158 201.782495 
L 418.223017 201.782495 
L 418.223017 197.950099 
L 441.126141 197.950099 
L 441.126141 194.117703 
L 445.160104 194.117703 
L 445.160104 190.285307 
L 447.580198 190.285307 
L 447.580198 186.452911 
L 453.897814 186.452911 
L 453.897814 182.620515 
L 461.8 182.620515 
" clip-path="url(#p34274e25af)" style="fill: none; stroke: #f5deb3; stroke-width: 1.5; stroke-linecap: square"/>
   </g>
   <g id="line2d_28">
    <path d="M 281.279344 293.76 
L 281.279344 289.927604 
L 281.400605 289.927604 
L 281.400605 286.095208 
L 284.434304 286.095208 
L 284.434304 282.262812 
L 285.835089 282.262812 
L 285.835089 278.430416 
L 306.382275 278.430416 
L 306.382275 274.59802 
L 365.336759 274.59802 
L 365.336759 270.765624 
L 367.109112 270.765624 
L 367.109112 266.933228 
L 369.71772 266.933228 
L 369.71772 263.100832 
L 389.304846 263.100832 
L 389.304846 259.268436 
L 410.83478 259.268436 
L 410.83478 255.43604 
L 411.470369 255.43604 
L 411.470369 251.603644 
L 411.681212 251.603644 
L 411.681212 247.771248 
L 412.41834 247.771248 
L 412.41834 243.938851 
L 444.005931 243.938851 
L 444.005931 240.106455 
L 455.132806 240.106455 
L 455.132806 236.274059 
L 456.31826 236.274059 
L 456.31826 232.441663 
L 456.541643 232.441663 
L 456.541643 228.609267 
L 461.8 228.609267 
" clip-path="url(#p34274e25af)" style="fill: none; stroke: #f5deb3; stroke-width: 1.5; stroke-linecap: square"/>
   </g>
   <g id="line2d_29">
    <path d="M 336.522311 293.76 
L 336.522311 289.927604 
L 336.522311 289.927604 
L 336.522311 286.095208 
L 336.522311 286.095208 
L 336.522311 282.262812 
L 344.238068 282.262812 
L 344.238068 278.430416 
L 344.238068 278.430416 
L 344.238068 274.59802 
L 344.238068 274.59802 
L 344.238068 270.765624 
L 352.143256 270.765624 
L 352.143256 266.933228 
L 352.143256 266.933228 
L 352.143256 263.100832 
L 352.143256 263.100832 
L 352.143256 259.268436 
L 352.143256 259.268436 
L 352.143256 259.268436 
L 460.8 259.268436 
" clip-path="url(#p34274e25af)" style="fill: none; stroke: #f5deb3; stroke-width: 1.5; stroke-linecap: square"/>
   </g>
   <g id="line2d_30">
    <path d="M 428.372471 293.76 
L 428.372471 289.927604 
L 440.187084 289.927604 
L 440.187084 286.095208 
L 440.729262 286.095208 
L 440.729262 282.262812 
L 440.729262 282.262812 
L 440.729262 282.262812 
L 460.8 282.262812 
" clip-path="url(#p34274e25af)" style="fill: none; stroke: #f5deb3; stroke-width: 1.5; stroke-linecap: square"/>
   </g>
   <g id="matplotlib.axis_1">
    <g id="xtick_1">
     <g id="line2d_31">
      <path d="M 157.094284 293.76 
L 157.094284 3.456 
" clip-path="url(#p34274e25af)" style="fill: none; stroke: #b0b0b0; stroke-width: 0.8; stroke-linecap: square"/>
     </g>
     <g id="line2d_32">
      <defs>
       <path id="mfb337ffa39" d="M 0 0 
L 0 3.5 
" style="stroke: #000000; stroke-width: 0.8"/>
      </defs>
      <g>
       <use xlink:href="#mfb337ffa39" x="157.094284" y="293.76" style="stroke: #000000; stroke-width: 0.8"/>
      </g>
     </g>
     <g id="text_1">
      <!-- 1 -->
      <g transform="translate(150.731784 315.956875) scale(0.2 -0.2)">
       <defs>
        <path id="DejaVuSans-31" d="M 794 531 
L 1825 531 
L 1825 4091 
L 703 3866 
L 703 4441 
L 1819 4666 
L 2450 4666 
L 2450 531 
L 3481 531 
L 3481 0 
L 794 0 
L 794 531 
z
" transform="scale(0.015625)"/>
       </defs>
       <use xlink:href="#DejaVuSans-31"/>
      </g>
     </g>
    </g>
    <g id="xtick_2">
     <g id="line2d_33">
      <path d="M 346.866852 293.76 
L 346.866852 3.456 
" clip-path="url(#p34274e25af)" style="fill: none; stroke: #b0b0b0; stroke-width: 0.8; stroke-linecap: square"/>
     </g>
     <g id="line2d_34">
      <g>
       <use xlink:href="#mfb337ffa39" x="346.866852" y="293.76" style="stroke: #000000; stroke-width: 0.8"/>
      </g>
     </g>
     <g id="text_2">
      <!-- 3 -->
      <g transform="translate(340.504352 315.956875) scale(0.2 -0.2)">
       <defs>
        <path id="DejaVuSans-33" d="M 2597 2516 
Q 3050 2419 3304 2112 
Q 3559 1806 3559 1356 
Q 3559 666 3084 287 
Q 2609 -91 1734 -91 
Q 1441 -91 1130 -33 
Q 819 25 488 141 
L 488 750 
Q 750 597 1062 519 
Q 1375 441 1716 441 
Q 2309 441 2620 675 
Q 2931 909 2931 1356 
Q 2931 1769 2642 2001 
Q 2353 2234 1838 2234 
L 1294 2234 
L 1294 2753 
L 1863 2753 
Q 2328 2753 2575 2939 
Q 2822 3125 2822 3475 
Q 2822 3834 2567 4026 
Q 2313 4219 1838 4219 
Q 1578 4219 1281 4162 
Q 984 4106 628 3988 
L 628 4550 
Q 988 4650 1302 4700 
Q 1616 4750 1894 4750 
Q 2613 4750 3031 4423 
Q 3450 4097 3450 3541 
Q 3450 3153 3228 2886 
Q 3006 2619 2597 2516 
z
" transform="scale(0.015625)"/>
       </defs>
       <use xlink:href="#DejaVuSans-33"/>
      </g>
     </g>
    </g>
    <g id="xtick_3">
     <g id="line2d_35">
      <path d="M 90.771618 293.76 
L 90.771618 3.456 
" clip-path="url(#p34274e25af)" style="fill: none; stroke: #b0b0b0; stroke-width: 0.8; stroke-linecap: square"/>
     </g>
     <g id="line2d_36">
      <defs>
       <path id="m7e4edf023f" d="M 0 0 
L 0 2 
" style="stroke: #000000; stroke-width: 0.6"/>
      </defs>
      <g>
       <use xlink:href="#m7e4edf023f" x="90.771618" y="293.76" style="stroke: #000000; stroke-width: 0.6"/>
      </g>
     </g>
    </g>
    <g id="xtick_4">
     <g id="line2d_37">
      <path d="M 107.480263 293.76 
L 107.480263 3.456 
" clip-path="url(#p34274e25af)" style="fill: none; stroke: #b0b0b0; stroke-width: 0.8; stroke-linecap: square"/>
     </g>
     <g id="line2d_38">
      <g>
       <use xlink:href="#m7e4edf023f" x="107.480263" y="293.76" style="stroke: #000000; stroke-width: 0.6"/>
      </g>
     </g>
    </g>
    <g id="xtick_5">
     <g id="line2d_39">
      <path d="M 119.335235 293.76 
L 119.335235 3.456 
" clip-path="url(#p34274e25af)" style="fill: none; stroke: #b0b0b0; stroke-width: 0.8; stroke-linecap: square"/>
     </g>
     <g id="line2d_40">
      <g>
       <use xlink:href="#m7e4edf023f" x="119.335235" y="293.76" style="stroke: #000000; stroke-width: 0.6"/>
      </g>
     </g>
    </g>
    <g id="xtick_6">
     <g id="line2d_41">
      <path d="M 128.530666 293.76 
L 128.530666 3.456 
" clip-path="url(#p34274e25af)" style="fill: none; stroke: #b0b0b0; stroke-width: 0.8; stroke-linecap: square"/>
     </g>
     <g id="line2d_42">
      <g>
       <use xlink:href="#m7e4edf023f" x="128.530666" y="293.76" style="stroke: #000000; stroke-width: 0.6"/>
      </g>
     </g>
    </g>
    <g id="xtick_7">
     <g id="line2d_43">
      <path d="M 136.043881 293.76 
L 136.043881 3.456 
" clip-path="url(#p34274e25af)" style="fill: none; stroke: #b0b0b0; stroke-width: 0.8; stroke-linecap: square"/>
     </g>
     <g id="line2d_44">
      <g>
       <use xlink:href="#m7e4edf023f" x="136.043881" y="293.76" style="stroke: #000000; stroke-width: 0.6"/>
      </g>
     </g>
    </g>
    <g id="xtick_8">
     <g id="line2d_45">
      <path d="M 142.396213 293.76 
L 142.396213 3.456 
" clip-path="url(#p34274e25af)" style="fill: none; stroke: #b0b0b0; stroke-width: 0.8; stroke-linecap: square"/>
     </g>
     <g id="line2d_46">
      <g>
       <use xlink:href="#m7e4edf023f" x="142.396213" y="293.76" style="stroke: #000000; stroke-width: 0.6"/>
      </g>
     </g>
    </g>
    <g id="xtick_9">
     <g id="line2d_47">
      <path d="M 147.898853 293.76 
L 147.898853 3.456 
" clip-path="url(#p34274e25af)" style="fill: none; stroke: #b0b0b0; stroke-width: 0.8; stroke-linecap: square"/>
     </g>
     <g id="line2d_48">
      <g>
       <use xlink:href="#m7e4edf023f" x="147.898853" y="293.76" style="stroke: #000000; stroke-width: 0.6"/>
      </g>
     </g>
    </g>
    <g id="xtick_10">
     <g id="line2d_49">
      <path d="M 152.752526 293.76 
L 152.752526 3.456 
" clip-path="url(#p34274e25af)" style="fill: none; stroke: #b0b0b0; stroke-width: 0.8; stroke-linecap: square"/>
     </g>
     <g id="line2d_50">
      <g>
       <use xlink:href="#m7e4edf023f" x="152.752526" y="293.76" style="stroke: #000000; stroke-width: 0.6"/>
      </g>
     </g>
    </g>
    <g id="xtick_11">
     <g id="line2d_51">
      <path d="M 185.657902 293.76 
L 185.657902 3.456 
" clip-path="url(#p34274e25af)" style="fill: none; stroke: #b0b0b0; stroke-width: 0.8; stroke-linecap: square"/>
     </g>
     <g id="line2d_52">
      <g>
       <use xlink:href="#m7e4edf023f" x="185.657902" y="293.76" style="stroke: #000000; stroke-width: 0.6"/>
      </g>
     </g>
    </g>
    <g id="xtick_12">
     <g id="line2d_53">
      <path d="M 202.366547 293.76 
L 202.366547 3.456 
" clip-path="url(#p34274e25af)" style="fill: none; stroke: #b0b0b0; stroke-width: 0.8; stroke-linecap: square"/>
     </g>
     <g id="line2d_54">
      <g>
       <use xlink:href="#m7e4edf023f" x="202.366547" y="293.76" style="stroke: #000000; stroke-width: 0.6"/>
      </g>
     </g>
    </g>
    <g id="xtick_13">
     <g id="line2d_55">
      <path d="M 214.221519 293.76 
L 214.221519 3.456 
" clip-path="url(#p34274e25af)" style="fill: none; stroke: #b0b0b0; stroke-width: 0.8; stroke-linecap: square"/>
     </g>
     <g id="line2d_56">
      <g>
       <use xlink:href="#m7e4edf023f" x="214.221519" y="293.76" style="stroke: #000000; stroke-width: 0.6"/>
      </g>
     </g>
    </g>
    <g id="xtick_14">
     <g id="line2d_57">
      <path d="M 223.41695 293.76 
L 223.41695 3.456 
" clip-path="url(#p34274e25af)" style="fill: none; stroke: #b0b0b0; stroke-width: 0.8; stroke-linecap: square"/>
     </g>
     <g id="line2d_58">
      <g>
       <use xlink:href="#m7e4edf023f" x="223.41695" y="293.76" style="stroke: #000000; stroke-width: 0.6"/>
      </g>
     </g>
    </g>
    <g id="xtick_15">
     <g id="line2d_59">
      <path d="M 230.930165 293.76 
L 230.930165 3.456 
" clip-path="url(#p34274e25af)" style="fill: none; stroke: #b0b0b0; stroke-width: 0.8; stroke-linecap: square"/>
     </g>
     <g id="line2d_60">
      <g>
       <use xlink:href="#m7e4edf023f" x="230.930165" y="293.76" style="stroke: #000000; stroke-width: 0.6"/>
      </g>
     </g>
    </g>
    <g id="xtick_16">
     <g id="line2d_61">
      <path d="M 237.282497 293.76 
L 237.282497 3.456 
" clip-path="url(#p34274e25af)" style="fill: none; stroke: #b0b0b0; stroke-width: 0.8; stroke-linecap: square"/>
     </g>
     <g id="line2d_62">
      <g>
       <use xlink:href="#m7e4edf023f" x="237.282497" y="293.76" style="stroke: #000000; stroke-width: 0.6"/>
      </g>
     </g>
    </g>
    <g id="xtick_17">
     <g id="line2d_63">
      <path d="M 242.785137 293.76 
L 242.785137 3.456 
" clip-path="url(#p34274e25af)" style="fill: none; stroke: #b0b0b0; stroke-width: 0.8; stroke-linecap: square"/>
     </g>
     <g id="line2d_64">
      <g>
       <use xlink:href="#m7e4edf023f" x="242.785137" y="293.76" style="stroke: #000000; stroke-width: 0.6"/>
      </g>
     </g>
    </g>
    <g id="xtick_18">
     <g id="line2d_65">
      <path d="M 247.63881 293.76 
L 247.63881 3.456 
" clip-path="url(#p34274e25af)" style="fill: none; stroke: #b0b0b0; stroke-width: 0.8; stroke-linecap: square"/>
     </g>
     <g id="line2d_66">
      <g>
       <use xlink:href="#m7e4edf023f" x="247.63881" y="293.76" style="stroke: #000000; stroke-width: 0.6"/>
      </g>
     </g>
    </g>
    <g id="xtick_19">
     <g id="line2d_67">
      <path d="M 280.544186 293.76 
L 280.544186 3.456 
" clip-path="url(#p34274e25af)" style="fill: none; stroke: #b0b0b0; stroke-width: 0.8; stroke-linecap: square"/>
     </g>
     <g id="line2d_68">
      <g>
       <use xlink:href="#m7e4edf023f" x="280.544186" y="293.76" style="stroke: #000000; stroke-width: 0.6"/>
      </g>
     </g>
    </g>
    <g id="xtick_20">
     <g id="line2d_69">
      <path d="M 297.252831 293.76 
L 297.252831 3.456 
" clip-path="url(#p34274e25af)" style="fill: none; stroke: #b0b0b0; stroke-width: 0.8; stroke-linecap: square"/>
     </g>
     <g id="line2d_70">
      <g>
       <use xlink:href="#m7e4edf023f" x="297.252831" y="293.76" style="stroke: #000000; stroke-width: 0.6"/>
      </g>
     </g>
    </g>
    <g id="xtick_21">
     <g id="line2d_71">
      <path d="M 309.107803 293.76 
L 309.107803 3.456 
" clip-path="url(#p34274e25af)" style="fill: none; stroke: #b0b0b0; stroke-width: 0.8; stroke-linecap: square"/>
     </g>
     <g id="line2d_72">
      <g>
       <use xlink:href="#m7e4edf023f" x="309.107803" y="293.76" style="stroke: #000000; stroke-width: 0.6"/>
      </g>
     </g>
    </g>
    <g id="xtick_22">
     <g id="line2d_73">
      <path d="M 318.303234 293.76 
L 318.303234 3.456 
" clip-path="url(#p34274e25af)" style="fill: none; stroke: #b0b0b0; stroke-width: 0.8; stroke-linecap: square"/>
     </g>
     <g id="line2d_74">
      <g>
       <use xlink:href="#m7e4edf023f" x="318.303234" y="293.76" style="stroke: #000000; stroke-width: 0.6"/>
      </g>
     </g>
    </g>
    <g id="xtick_23">
     <g id="line2d_75">
      <path d="M 325.816449 293.76 
L 325.816449 3.456 
" clip-path="url(#p34274e25af)" style="fill: none; stroke: #b0b0b0; stroke-width: 0.8; stroke-linecap: square"/>
     </g>
     <g id="line2d_76">
      <g>
       <use xlink:href="#m7e4edf023f" x="325.816449" y="293.76" style="stroke: #000000; stroke-width: 0.6"/>
      </g>
     </g>
    </g>
    <g id="xtick_24">
     <g id="line2d_77">
      <path d="M 332.168781 293.76 
L 332.168781 3.456 
" clip-path="url(#p34274e25af)" style="fill: none; stroke: #b0b0b0; stroke-width: 0.8; stroke-linecap: square"/>
     </g>
     <g id="line2d_78">
      <g>
       <use xlink:href="#m7e4edf023f" x="332.168781" y="293.76" style="stroke: #000000; stroke-width: 0.6"/>
      </g>
     </g>
    </g>
    <g id="xtick_25">
     <g id="line2d_79">
      <path d="M 337.671421 293.76 
L 337.671421 3.456 
" clip-path="url(#p34274e25af)" style="fill: none; stroke: #b0b0b0; stroke-width: 0.8; stroke-linecap: square"/>
     </g>
     <g id="line2d_80">
      <g>
       <use xlink:href="#m7e4edf023f" x="337.671421" y="293.76" style="stroke: #000000; stroke-width: 0.6"/>
      </g>
     </g>
    </g>
    <g id="xtick_26">
     <g id="line2d_81">
      <path d="M 342.525094 293.76 
L 342.525094 3.456 
" clip-path="url(#p34274e25af)" style="fill: none; stroke: #b0b0b0; stroke-width: 0.8; stroke-linecap: square"/>
     </g>
     <g id="line2d_82">
      <g>
       <use xlink:href="#m7e4edf023f" x="342.525094" y="293.76" style="stroke: #000000; stroke-width: 0.6"/>
      </g>
     </g>
    </g>
    <g id="xtick_27">
     <g id="line2d_83">
      <path d="M 375.43047 293.76 
L 375.43047 3.456 
" clip-path="url(#p34274e25af)" style="fill: none; stroke: #b0b0b0; stroke-width: 0.8; stroke-linecap: square"/>
     </g>
     <g id="line2d_84">
      <g>
       <use xlink:href="#m7e4edf023f" x="375.43047" y="293.76" style="stroke: #000000; stroke-width: 0.6"/>
      </g>
     </g>
    </g>
    <g id="xtick_28">
     <g id="line2d_85">
      <path d="M 392.139115 293.76 
L 392.139115 3.456 
" clip-path="url(#p34274e25af)" style="fill: none; stroke: #b0b0b0; stroke-width: 0.8; stroke-linecap: square"/>
     </g>
     <g id="line2d_86">
      <g>
       <use xlink:href="#m7e4edf023f" x="392.139115" y="293.76" style="stroke: #000000; stroke-width: 0.6"/>
      </g>
     </g>
    </g>
    <g id="xtick_29">
     <g id="line2d_87">
      <path d="M 403.994087 293.76 
L 403.994087 3.456 
" clip-path="url(#p34274e25af)" style="fill: none; stroke: #b0b0b0; stroke-width: 0.8; stroke-linecap: square"/>
     </g>
     <g id="line2d_88">
      <g>
       <use xlink:href="#m7e4edf023f" x="403.994087" y="293.76" style="stroke: #000000; stroke-width: 0.6"/>
      </g>
     </g>
    </g>
    <g id="xtick_30">
     <g id="line2d_89">
      <path d="M 413.189518 293.76 
L 413.189518 3.456 
" clip-path="url(#p34274e25af)" style="fill: none; stroke: #b0b0b0; stroke-width: 0.8; stroke-linecap: square"/>
     </g>
     <g id="line2d_90">
      <g>
       <use xlink:href="#m7e4edf023f" x="413.189518" y="293.76" style="stroke: #000000; stroke-width: 0.6"/>
      </g>
     </g>
    </g>
    <g id="xtick_31">
     <g id="line2d_91">
      <path d="M 420.702733 293.76 
L 420.702733 3.456 
" clip-path="url(#p34274e25af)" style="fill: none; stroke: #b0b0b0; stroke-width: 0.8; stroke-linecap: square"/>
     </g>
     <g id="line2d_92">
      <g>
       <use xlink:href="#m7e4edf023f" x="420.702733" y="293.76" style="stroke: #000000; stroke-width: 0.6"/>
      </g>
     </g>
    </g>
    <g id="xtick_32">
     <g id="line2d_93">
      <path d="M 427.055065 293.76 
L 427.055065 3.456 
" clip-path="url(#p34274e25af)" style="fill: none; stroke: #b0b0b0; stroke-width: 0.8; stroke-linecap: square"/>
     </g>
     <g id="line2d_94">
      <g>
       <use xlink:href="#m7e4edf023f" x="427.055065" y="293.76" style="stroke: #000000; stroke-width: 0.6"/>
      </g>
     </g>
    </g>
    <g id="xtick_33">
     <g id="line2d_95">
      <path d="M 432.557705 293.76 
L 432.557705 3.456 
" clip-path="url(#p34274e25af)" style="fill: none; stroke: #b0b0b0; stroke-width: 0.8; stroke-linecap: square"/>
     </g>
     <g id="line2d_96">
      <g>
       <use xlink:href="#m7e4edf023f" x="432.557705" y="293.76" style="stroke: #000000; stroke-width: 0.6"/>
      </g>
     </g>
    </g>
    <g id="xtick_34">
     <g id="line2d_97">
      <path d="M 437.411378 293.76 
L 437.411378 3.456 
" clip-path="url(#p34274e25af)" style="fill: none; stroke: #b0b0b0; stroke-width: 0.8; stroke-linecap: square"/>
     </g>
     <g id="line2d_98">
      <g>
       <use xlink:href="#m7e4edf023f" x="437.411378" y="293.76" style="stroke: #000000; stroke-width: 0.6"/>
      </g>
     </g>
    </g>
    <g id="text_3">
     <!-- log10 of FEvals / DIM -->
     <g transform="translate(156.430563 339.313125) scale(0.2 -0.2)">
      <defs>
       <path id="DejaVuSans-6c" d="M 603 4863 
L 1178 4863 
L 1178 0 
L 603 0 
L 603 4863 
z
" transform="scale(0.015625)"/>
       <path id="DejaVuSans-6f" d="M 1959 3097 
Q 1497 3097 1228 2736 
Q 959 2375 959 1747 
Q 959 1119 1226 758 
Q 1494 397 1959 397 
Q 2419 397 2687 759 
Q 2956 1122 2956 1747 
Q 2956 2369 2687 2733 
Q 2419 3097 1959 3097 
z
M 1959 3584 
Q 2709 3584 3137 3096 
Q 3566 2609 3566 1747 
Q 3566 888 3137 398 
Q 2709 -91 1959 -91 
Q 1206 -91 779 398 
Q 353 888 353 1747 
Q 353 2609 779 3096 
Q 1206 3584 1959 3584 
z
" transform="scale(0.015625)"/>
       <path id="DejaVuSans-67" d="M 2906 1791 
Q 2906 2416 2648 2759 
Q 2391 3103 1925 3103 
Q 1463 3103 1205 2759 
Q 947 2416 947 1791 
Q 947 1169 1205 825 
Q 1463 481 1925 481 
Q 2391 481 2648 825 
Q 2906 1169 2906 1791 
z
M 3481 434 
Q 3481 -459 3084 -895 
Q 2688 -1331 1869 -1331 
Q 1566 -1331 1297 -1286 
Q 1028 -1241 775 -1147 
L 775 -588 
Q 1028 -725 1275 -790 
Q 1522 -856 1778 -856 
Q 2344 -856 2625 -561 
Q 2906 -266 2906 331 
L 2906 616 
Q 2728 306 2450 153 
Q 2172 0 1784 0 
Q 1141 0 747 490 
Q 353 981 353 1791 
Q 353 2603 747 3093 
Q 1141 3584 1784 3584 
Q 2172 3584 2450 3431 
Q 2728 3278 2906 2969 
L 2906 3500 
L 3481 3500 
L 3481 434 
z
" transform="scale(0.015625)"/>
       <path id="DejaVuSans-30" d="M 2034 4250 
Q 1547 4250 1301 3770 
Q 1056 3291 1056 2328 
Q 1056 1369 1301 889 
Q 1547 409 2034 409 
Q 2525 409 2770 889 
Q 3016 1369 3016 2328 
Q 3016 3291 2770 3770 
Q 2525 4250 2034 4250 
z
M 2034 4750 
Q 2819 4750 3233 4129 
Q 3647 3509 3647 2328 
Q 3647 1150 3233 529 
Q 2819 -91 2034 -91 
Q 1250 -91 836 529 
Q 422 1150 422 2328 
Q 422 3509 836 4129 
Q 1250 4750 2034 4750 
z
" transform="scale(0.015625)"/>
       <path id="DejaVuSans-20" transform="scale(0.015625)"/>
       <path id="DejaVuSans-66" d="M 2375 4863 
L 2375 4384 
L 1825 4384 
Q 1516 4384 1395 4259 
Q 1275 4134 1275 3809 
L 1275 3500 
L 2222 3500 
L 2222 3053 
L 1275 3053 
L 1275 0 
L 697 0 
L 697 3053 
L 147 3053 
L 147 3500 
L 697 3500 
L 697 3744 
Q 697 4328 969 4595 
Q 1241 4863 1831 4863 
L 2375 4863 
z
" transform="scale(0.015625)"/>
       <path id="DejaVuSans-46" d="M 628 4666 
L 3309 4666 
L 3309 4134 
L 1259 4134 
L 1259 2759 
L 3109 2759 
L 3109 2228 
L 1259 2228 
L 1259 0 
L 628 0 
L 628 4666 
z
" transform="scale(0.015625)"/>
       <path id="DejaVuSans-45" d="M 628 4666 
L 3578 4666 
L 3578 4134 
L 1259 4134 
L 1259 2753 
L 3481 2753 
L 3481 2222 
L 1259 2222 
L 1259 531 
L 3634 531 
L 3634 0 
L 628 0 
L 628 4666 
z
" transform="scale(0.015625)"/>
       <path id="DejaVuSans-76" d="M 191 3500 
L 800 3500 
L 1894 563 
L 2988 3500 
L 3597 3500 
L 2284 0 
L 1503 0 
L 191 3500 
z
" transform="scale(0.015625)"/>
       <path id="DejaVuSans-61" d="M 2194 1759 
Q 1497 1759 1228 1600 
Q 959 1441 959 1056 
Q 959 750 1161 570 
Q 1363 391 1709 391 
Q 2188 391 2477 730 
Q 2766 1069 2766 1631 
L 2766 1759 
L 2194 1759 
z
M 3341 1997 
L 3341 0 
L 2766 0 
L 2766 531 
Q 2569 213 2275 61 
Q 1981 -91 1556 -91 
Q 1019 -91 701 211 
Q 384 513 384 1019 
Q 384 1609 779 1909 
Q 1175 2209 1959 2209 
L 2766 2209 
L 2766 2266 
Q 2766 2663 2505 2880 
Q 2244 3097 1772 3097 
Q 1472 3097 1187 3025 
Q 903 2953 641 2809 
L 641 3341 
Q 956 3463 1253 3523 
Q 1550 3584 1831 3584 
Q 2591 3584 2966 3190 
Q 3341 2797 3341 1997 
z
" transform="scale(0.015625)"/>
       <path id="DejaVuSans-73" d="M 2834 3397 
L 2834 2853 
Q 2591 2978 2328 3040 
Q 2066 3103 1784 3103 
Q 1356 3103 1142 2972 
Q 928 2841 928 2578 
Q 928 2378 1081 2264 
Q 1234 2150 1697 2047 
L 1894 2003 
Q 2506 1872 2764 1633 
Q 3022 1394 3022 966 
Q 3022 478 2636 193 
Q 2250 -91 1575 -91 
Q 1294 -91 989 -36 
Q 684 19 347 128 
L 347 722 
Q 666 556 975 473 
Q 1284 391 1588 391 
Q 1994 391 2212 530 
Q 2431 669 2431 922 
Q 2431 1156 2273 1281 
Q 2116 1406 1581 1522 
L 1381 1569 
Q 847 1681 609 1914 
Q 372 2147 372 2553 
Q 372 3047 722 3315 
Q 1072 3584 1716 3584 
Q 2034 3584 2315 3537 
Q 2597 3491 2834 3397 
z
" transform="scale(0.015625)"/>
       <path id="DejaVuSans-2f" d="M 1625 4666 
L 2156 4666 
L 531 -594 
L 0 -594 
L 1625 4666 
z
" transform="scale(0.015625)"/>
       <path id="DejaVuSans-44" d="M 1259 4147 
L 1259 519 
L 2022 519 
Q 2988 519 3436 956 
Q 3884 1394 3884 2338 
Q 3884 3275 3436 3711 
Q 2988 4147 2022 4147 
L 1259 4147 
z
M 628 4666 
L 1925 4666 
Q 3281 4666 3915 4102 
Q 4550 3538 4550 2338 
Q 4550 1131 3912 565 
Q 3275 0 1925 0 
L 628 0 
L 628 4666 
z
" transform="scale(0.015625)"/>
       <path id="DejaVuSans-49" d="M 628 4666 
L 1259 4666 
L 1259 0 
L 628 0 
L 628 4666 
z
" transform="scale(0.015625)"/>
       <path id="DejaVuSans-4d" d="M 628 4666 
L 1569 4666 
L 2759 1491 
L 3956 4666 
L 4897 4666 
L 4897 0 
L 4281 0 
L 4281 4097 
L 3078 897 
L 2444 897 
L 1241 4097 
L 1241 0 
L 628 0 
L 628 4666 
z
" transform="scale(0.015625)"/>
      </defs>
      <use xlink:href="#DejaVuSans-6c"/>
      <use xlink:href="#DejaVuSans-6f" x="27.783203"/>
      <use xlink:href="#DejaVuSans-67" x="88.964844"/>
      <use xlink:href="#DejaVuSans-31" x="152.441406"/>
      <use xlink:href="#DejaVuSans-30" x="216.064453"/>
      <use xlink:href="#DejaVuSans-20" x="279.6875"/>
      <use xlink:href="#DejaVuSans-6f" x="311.474609"/>
      <use xlink:href="#DejaVuSans-66" x="372.65625"/>
      <use xlink:href="#DejaVuSans-20" x="407.861328"/>
      <use xlink:href="#DejaVuSans-46" x="439.648438"/>
      <use xlink:href="#DejaVuSans-45" x="497.167969"/>
      <use xlink:href="#DejaVuSans-76" x="560.351562"/>
      <use xlink:href="#DejaVuSans-61" x="619.53125"/>
      <use xlink:href="#DejaVuSans-6c" x="680.810547"/>
      <use xlink:href="#DejaVuSans-73" x="708.59375"/>
      <use xlink:href="#DejaVuSans-20" x="760.693359"/>
      <use xlink:href="#DejaVuSans-2f" x="792.480469"/>
      <use xlink:href="#DejaVuSans-20" x="826.171875"/>
      <use xlink:href="#DejaVuSans-44" x="857.958984"/>
      <use xlink:href="#DejaVuSans-49" x="934.960938"/>
      <use xlink:href="#DejaVuSans-4d" x="964.453125"/>
     </g>
    </g>
   </g>
   <g id="matplotlib.axis_2">
    <g id="ytick_1">
     <g id="line2d_99">
      <path d="M 62.208 293.76 
L 460.8 293.76 
" clip-path="url(#p34274e25af)" style="fill: none; stroke: #b0b0b0; stroke-width: 0.8; stroke-linecap: square"/>
     </g>
     <g id="line2d_100">
      <defs>
       <path id="m9c1efae9ae" d="M 0 0 
L -3.5 0 
" style="stroke: #000000; stroke-width: 0.8"/>
      </defs>
      <g>
       <use xlink:href="#m9c1efae9ae" x="62.208" y="293.76" style="stroke: #000000; stroke-width: 0.8"/>
      </g>
     </g>
     <g id="text_4">
      <!-- 0.0 -->
      <g transform="translate(29.763 299.83875) scale(0.16 -0.16)">
       <defs>
        <path id="DejaVuSans-2e" d="M 684 794 
L 1344 794 
L 1344 0 
L 684 0 
L 684 794 
z
" transform="scale(0.015625)"/>
       </defs>
       <use xlink:href="#DejaVuSans-30"/>
       <use xlink:href="#DejaVuSans-2e" x="63.623047"/>
       <use xlink:href="#DejaVuSans-30" x="95.410156"/>
      </g>
     </g>
    </g>
    <g id="ytick_2">
     <g id="line2d_101">
      <path d="M 62.208 236.274059 
L 460.8 236.274059 
" clip-path="url(#p34274e25af)" style="fill: none; stroke: #b0b0b0; stroke-width: 0.8; stroke-linecap: square"/>
     </g>
     <g id="line2d_102">
      <g>
       <use xlink:href="#m9c1efae9ae" x="62.208" y="236.274059" style="stroke: #000000; stroke-width: 0.8"/>
      </g>
     </g>
     <g id="text_5">
      <!-- 0.2 -->
      <g transform="translate(29.763 242.352809) scale(0.16 -0.16)">
       <defs>
        <path id="DejaVuSans-32" d="M 1228 531 
L 3431 531 
L 3431 0 
L 469 0 
L 469 531 
Q 828 903 1448 1529 
Q 2069 2156 2228 2338 
Q 2531 2678 2651 2914 
Q 2772 3150 2772 3378 
Q 2772 3750 2511 3984 
Q 2250 4219 1831 4219 
Q 1534 4219 1204 4116 
Q 875 4013 500 3803 
L 500 4441 
Q 881 4594 1212 4672 
Q 1544 4750 1819 4750 
Q 2544 4750 2975 4387 
Q 3406 4025 3406 3419 
Q 3406 3131 3298 2873 
Q 3191 2616 2906 2266 
Q 2828 2175 2409 1742 
Q 1991 1309 1228 531 
z
" transform="scale(0.015625)"/>
       </defs>
       <use xlink:href="#DejaVuSans-30"/>
       <use xlink:href="#DejaVuSans-2e" x="63.623047"/>
       <use xlink:href="#DejaVuSans-32" x="95.410156"/>
      </g>
     </g>
    </g>
    <g id="ytick_3">
     <g id="line2d_103">
      <path d="M 62.208 178.788119 
L 460.8 178.788119 
" clip-path="url(#p34274e25af)" style="fill: none; stroke: #b0b0b0; stroke-width: 0.8; stroke-linecap: square"/>
     </g>
     <g id="line2d_104">
      <g>
       <use xlink:href="#m9c1efae9ae" x="62.208" y="178.788119" style="stroke: #000000; stroke-width: 0.8"/>
      </g>
     </g>
     <g id="text_6">
      <!-- 0.4 -->
      <g transform="translate(29.763 184.866869) scale(0.16 -0.16)">
       <defs>
        <path id="DejaVuSans-34" d="M 2419 4116 
L 825 1625 
L 2419 1625 
L 2419 4116 
z
M 2253 4666 
L 3047 4666 
L 3047 1625 
L 3713 1625 
L 3713 1100 
L 3047 1100 
L 3047 0 
L 2419 0 
L 2419 1100 
L 313 1100 
L 313 1709 
L 2253 4666 
z
" transform="scale(0.015625)"/>
       </defs>
       <use xlink:href="#DejaVuSans-30"/>
       <use xlink:href="#DejaVuSans-2e" x="63.623047"/>
       <use xlink:href="#DejaVuSans-34" x="95.410156"/>
      </g>
     </g>
    </g>
    <g id="ytick_4">
     <g id="line2d_105">
      <path d="M 62.208 121.302178 
L 460.8 121.302178 
" clip-path="url(#p34274e25af)" style="fill: none; stroke: #b0b0b0; stroke-width: 0.8; stroke-linecap: square"/>
     </g>
     <g id="line2d_106">
      <g>
       <use xlink:href="#m9c1efae9ae" x="62.208" y="121.302178" style="stroke: #000000; stroke-width: 0.8"/>
      </g>
     </g>
     <g id="text_7">
      <!-- 0.6 -->
      <g transform="translate(29.763 127.380928) scale(0.16 -0.16)">
       <defs>
        <path id="DejaVuSans-36" d="M 2113 2584 
Q 1688 2584 1439 2293 
Q 1191 2003 1191 1497 
Q 1191 994 1439 701 
Q 1688 409 2113 409 
Q 2538 409 2786 701 
Q 3034 994 3034 1497 
Q 3034 2003 2786 2293 
Q 2538 2584 2113 2584 
z
M 3366 4563 
L 3366 3988 
Q 3128 4100 2886 4159 
Q 2644 4219 2406 4219 
Q 1781 4219 1451 3797 
Q 1122 3375 1075 2522 
Q 1259 2794 1537 2939 
Q 1816 3084 2150 3084 
Q 2853 3084 3261 2657 
Q 3669 2231 3669 1497 
Q 3669 778 3244 343 
Q 2819 -91 2113 -91 
Q 1303 -91 875 529 
Q 447 1150 447 2328 
Q 447 3434 972 4092 
Q 1497 4750 2381 4750 
Q 2619 4750 2861 4703 
Q 3103 4656 3366 4563 
z
" transform="scale(0.015625)"/>
       </defs>
       <use xlink:href="#DejaVuSans-30"/>
       <use xlink:href="#DejaVuSans-2e" x="63.623047"/>
       <use xlink:href="#DejaVuSans-36" x="95.410156"/>
      </g>
     </g>
    </g>
    <g id="ytick_5">
     <g id="line2d_107">
      <path d="M 62.208 63.816238 
L 460.8 63.816238 
" clip-path="url(#p34274e25af)" style="fill: none; stroke: #b0b0b0; stroke-width: 0.8; stroke-linecap: square"/>
     </g>
     <g id="line2d_108">
      <g>
       <use xlink:href="#m9c1efae9ae" x="62.208" y="63.816238" style="stroke: #000000; stroke-width: 0.8"/>
      </g>
     </g>
     <g id="text_8">
      <!-- 0.8 -->
      <g transform="translate(29.763 69.894988) scale(0.16 -0.16)">
       <defs>
        <path id="DejaVuSans-38" d="M 2034 2216 
Q 1584 2216 1326 1975 
Q 1069 1734 1069 1313 
Q 1069 891 1326 650 
Q 1584 409 2034 409 
Q 2484 409 2743 651 
Q 3003 894 3003 1313 
Q 3003 1734 2745 1975 
Q 2488 2216 2034 2216 
z
M 1403 2484 
Q 997 2584 770 2862 
Q 544 3141 544 3541 
Q 544 4100 942 4425 
Q 1341 4750 2034 4750 
Q 2731 4750 3128 4425 
Q 3525 4100 3525 3541 
Q 3525 3141 3298 2862 
Q 3072 2584 2669 2484 
Q 3125 2378 3379 2068 
Q 3634 1759 3634 1313 
Q 3634 634 3220 271 
Q 2806 -91 2034 -91 
Q 1263 -91 848 271 
Q 434 634 434 1313 
Q 434 1759 690 2068 
Q 947 2378 1403 2484 
z
M 1172 3481 
Q 1172 3119 1398 2916 
Q 1625 2713 2034 2713 
Q 2441 2713 2670 2916 
Q 2900 3119 2900 3481 
Q 2900 3844 2670 4047 
Q 2441 4250 2034 4250 
Q 1625 4250 1398 4047 
Q 1172 3844 1172 3481 
z
" transform="scale(0.015625)"/>
       </defs>
       <use xlink:href="#DejaVuSans-30"/>
       <use xlink:href="#DejaVuSans-2e" x="63.623047"/>
       <use xlink:href="#DejaVuSans-38" x="95.410156"/>
      </g>
     </g>
    </g>
    <g id="ytick_6">
     <g id="line2d_109">
      <path d="M 62.208 6.330297 
L 460.8 6.330297 
" clip-path="url(#p34274e25af)" style="fill: none; stroke: #b0b0b0; stroke-width: 0.8; stroke-linecap: square"/>
     </g>
     <g id="line2d_110">
      <g>
       <use xlink:href="#m9c1efae9ae" x="62.208" y="6.330297" style="stroke: #000000; stroke-width: 0.8"/>
      </g>
     </g>
     <g id="text_9">
      <!-- 1.0 -->
      <g transform="translate(29.763 12.409047) scale(0.16 -0.16)">
       <use xlink:href="#DejaVuSans-31"/>
       <use xlink:href="#DejaVuSans-2e" x="63.623047"/>
       <use xlink:href="#DejaVuSans-30" x="95.410156"/>
      </g>
     </g>
    </g>
    <g id="text_10">
     <!-- proportion of trials -->
     <g transform="translate(21.603625 241.61425) rotate(-90) scale(0.2 -0.2)">
      <defs>
       <path id="DejaVuSans-70" d="M 1159 525 
L 1159 -1331 
L 581 -1331 
L 581 3500 
L 1159 3500 
L 1159 2969 
Q 1341 3281 1617 3432 
Q 1894 3584 2278 3584 
Q 2916 3584 3314 3078 
Q 3713 2572 3713 1747 
Q 3713 922 3314 415 
Q 2916 -91 2278 -91 
Q 1894 -91 1617 61 
Q 1341 213 1159 525 
z
M 3116 1747 
Q 3116 2381 2855 2742 
Q 2594 3103 2138 3103 
Q 1681 3103 1420 2742 
Q 1159 2381 1159 1747 
Q 1159 1113 1420 752 
Q 1681 391 2138 391 
Q 2594 391 2855 752 
Q 3116 1113 3116 1747 
z
" transform="scale(0.015625)"/>
       <path id="DejaVuSans-72" d="M 2631 2963 
Q 2534 3019 2420 3045 
Q 2306 3072 2169 3072 
Q 1681 3072 1420 2755 
Q 1159 2438 1159 1844 
L 1159 0 
L 581 0 
L 581 3500 
L 1159 3500 
L 1159 2956 
Q 1341 3275 1631 3429 
Q 1922 3584 2338 3584 
Q 2397 3584 2469 3576 
Q 2541 3569 2628 3553 
L 2631 2963 
z
" transform="scale(0.015625)"/>
       <path id="DejaVuSans-74" d="M 1172 4494 
L 1172 3500 
L 2356 3500 
L 2356 3053 
L 1172 3053 
L 1172 1153 
Q 1172 725 1289 603 
Q 1406 481 1766 481 
L 2356 481 
L 2356 0 
L 1766 0 
Q 1100 0 847 248 
Q 594 497 594 1153 
L 594 3053 
L 172 3053 
L 172 3500 
L 594 3500 
L 594 4494 
L 1172 4494 
z
" transform="scale(0.015625)"/>
       <path id="DejaVuSans-69" d="M 603 3500 
L 1178 3500 
L 1178 0 
L 603 0 
L 603 3500 
z
M 603 4863 
L 1178 4863 
L 1178 4134 
L 603 4134 
L 603 4863 
z
" transform="scale(0.015625)"/>
       <path id="DejaVuSans-6e" d="M 3513 2113 
L 3513 0 
L 2938 0 
L 2938 2094 
Q 2938 2591 2744 2837 
Q 2550 3084 2163 3084 
Q 1697 3084 1428 2787 
Q 1159 2491 1159 1978 
L 1159 0 
L 581 0 
L 581 3500 
L 1159 3500 
L 1159 2956 
Q 1366 3272 1645 3428 
Q 1925 3584 2291 3584 
Q 2894 3584 3203 3211 
Q 3513 2838 3513 2113 
z
" transform="scale(0.015625)"/>
      </defs>
      <use xlink:href="#DejaVuSans-70"/>
      <use xlink:href="#DejaVuSans-72" x="63.476562"/>
      <use xlink:href="#DejaVuSans-6f" x="102.339844"/>
      <use xlink:href="#DejaVuSans-70" x="163.521484"/>
      <use xlink:href="#DejaVuSans-6f" x="226.998047"/>
      <use xlink:href="#DejaVuSans-72" x="288.179688"/>
      <use xlink:href="#DejaVuSans-74" x="329.292969"/>
      <use xlink:href="#DejaVuSans-69" x="368.501953"/>
      <use xlink:href="#DejaVuSans-6f" x="396.285156"/>
      <use xlink:href="#DejaVuSans-6e" x="457.466797"/>
      <use xlink:href="#DejaVuSans-20" x="520.845703"/>
      <use xlink:href="#DejaVuSans-6f" x="552.632812"/>
      <use xlink:href="#DejaVuSans-66" x="613.814453"/>
      <use xlink:href="#DejaVuSans-20" x="649.019531"/>
      <use xlink:href="#DejaVuSans-74" x="680.806641"/>
      <use xlink:href="#DejaVuSans-72" x="720.015625"/>
      <use xlink:href="#DejaVuSans-69" x="761.128906"/>
      <use xlink:href="#DejaVuSans-61" x="788.912109"/>
      <use xlink:href="#DejaVuSans-6c" x="850.191406"/>
      <use xlink:href="#DejaVuSans-73" x="877.974609"/>
     </g>
    </g>
   </g>
   <g id="line2d_111">
    <path d="M 121.345809 293.76 
L 121.345809 282.262812 
L 122.315468 282.262812 
L 122.315468 270.765624 
L 122.315468 270.765624 
L 122.315468 259.268436 
L 124.188908 259.268436 
L 124.188908 247.771248 
L 130.146897 247.771248 
L 130.146897 236.274059 
L 133.930156 236.274059 
L 133.930156 224.776871 
L 155.412067 224.776871 
L 155.412067 213.279683 
L 171.544359 213.279683 
L 171.544359 201.782495 
L 176.204109 201.782495 
L 176.204109 190.285307 
L 178.473045 190.285307 
L 178.473045 178.788119 
L 181.316143 178.788119 
L 181.316143 167.290931 
L 181.544446 167.290931 
L 181.544446 155.793743 
L 185.243742 155.793743 
L 185.243742 144.296554 
L 191.057392 144.296554 
L 191.057392 132.799366 
L 194.688168 132.799366 
L 194.688168 121.302178 
L 213.178208 121.302178 
L 213.178208 109.80499 
L 324.603729 109.80499 
L 324.603729 98.307802 
L 326.632487 98.307802 
L 326.632487 86.810614 
L 369.470833 86.810614 
L 369.470833 75.313426 
L 372.583691 75.313426 
L 372.583691 63.816238 
L 405.115029 63.816238 
L 405.115029 52.31905 
L 405.115029 52.31905 
L 405.115029 52.31905 
L 460.8 52.31905 
" clip-path="url(#p34274e25af)" style="fill: none; stroke: #000000; stroke-width: 1.5; stroke-linecap: square"/>
   </g>
   <g id="line2d_112">
    <defs>
     <path id="md974abf447" d="M 0 14.142136 
L 8.485281 0 
L 0 -14.142136 
L -8.485281 0 
z
" style="stroke: #000000; stroke-width: 1.5; stroke-linejoin: miter"/>
    </defs>
    <g clip-path="url(#p34274e25af)">
     <use xlink:href="#md974abf447" x="171.544359" y="213.279683" style="fill-opacity: 0; stroke: #000000; stroke-width: 1.5; stroke-linejoin: miter"/>
     <use xlink:href="#md974abf447" x="194.688168" y="132.799366" style="fill-opacity: 0; stroke: #000000; stroke-width: 1.5; stroke-linejoin: miter"/>
     <use xlink:href="#md974abf447" x="324.603729" y="109.80499" style="fill-opacity: 0; stroke: #000000; stroke-width: 1.5; stroke-linejoin: miter"/>
     <use xlink:href="#md974abf447" x="405.115029" y="63.816238" style="fill-opacity: 0; stroke: #000000; stroke-width: 1.5; stroke-linejoin: miter"/>
     <use xlink:href="#md974abf447" x="405.115029" y="52.31905" style="fill-opacity: 0; stroke: #000000; stroke-width: 1.5; stroke-linejoin: miter"/>
    </g>
   </g>
   <g id="line2d_113">
    <path clip-path="url(#p34274e25af)" style="fill: none; stroke: #000000; stroke-width: 1.5; stroke-linecap: square"/>
    <g clip-path="url(#p34274e25af)">
     <use xlink:href="#md974abf447" x="-1" y="581.189703" style="fill-opacity: 0; stroke: #000000; stroke-width: 1.5; stroke-linejoin: miter"/>
     <use xlink:href="#md974abf447" x="460.8" y="581.189703" style="fill-opacity: 0; stroke: #000000; stroke-width: 1.5; stroke-linejoin: miter"/>
    </g>
   </g>
   <g id="line2d_114">
    <path d="M 78.916645 293.76 
L 78.916645 289.927604 
L 78.916645 289.927604 
L 78.916645 286.095208 
L 90.771618 286.095208 
L 90.771618 282.262812 
L 101.583279 282.262812 
L 101.583279 278.430416 
L 103.138505 278.430416 
L 103.138505 274.59802 
L 114.993477 274.59802 
L 114.993477 270.765624 
L 122.315468 270.765624 
L 122.315468 266.933228 
L 125.094628 266.933228 
L 125.094628 263.100832 
L 133.930156 263.100832 
L 133.930156 259.268436 
L 134.646845 259.268436 
L 134.646845 255.43604 
L 134.646845 255.43604 
L 134.646845 251.603644 
L 139.342328 251.603644 
L 139.342328 247.771248 
L 139.342328 247.771248 
L 139.342328 243.938851 
L 139.971479 243.938851 
L 139.971479 240.106455 
L 140.591168 240.106455 
L 140.591168 236.274059 
L 141.201677 236.274059 
L 141.201677 232.441663 
L 143.557095 232.441663 
L 143.557095 228.609267 
L 144.125498 228.609267 
L 144.125498 224.776871 
L 144.686168 224.776871 
L 144.686168 220.944475 
L 147.898853 220.944475 
L 147.898853 217.112079 
L 153.658246 217.112079 
L 153.658246 213.279683 
L 154.544486 213.279683 
L 154.544486 209.447287 
L 157.910322 209.447287 
L 157.910322 205.614891 
L 160.26574 205.614891 
L 160.26574 201.782495 
L 161.021882 201.782495 
L 161.021882 197.950099 
L 162.493774 197.950099 
L 162.493774 194.117703 
L 171.544359 194.117703 
L 171.544359 190.285307 
L 172.120712 190.285307 
L 172.120712 186.452911 
L 175.41916 186.452911 
L 175.41916 182.620515 
L 178.717607 182.620515 
L 178.717607 178.788119 
L 180.623546 178.788119 
L 180.623546 174.955723 
L 180.855707 174.955723 
L 180.855707 171.123327 
L 181.544446 171.123327 
L 181.544446 167.290931 
L 183.544177 167.290931 
L 183.544177 163.458535 
L 185.657902 163.458535 
L 185.657902 159.626139 
L 187.075536 159.626139 
L 187.075536 155.793743 
L 190.876255 155.793743 
L 190.876255 151.961347 
L 195.017838 151.961347 
L 195.017838 148.12895 
L 197.718404 148.12895 
L 197.718404 144.296554 
L 212.107795 144.296554 
L 212.107795 140.464158 
L 226.740749 140.464158 
L 226.740749 136.631762 
L 235.905756 136.631762 
L 235.905756 132.799366 
L 327.399646 132.799366 
L 327.399646 128.96697 
L 327.833563 128.96697 
L 327.833563 125.134574 
L 328.930631 125.134574 
L 328.930631 121.302178 
L 332.25699 121.302178 
L 332.25699 117.469782 
L 367.395563 117.469782 
L 367.395563 113.637386 
L 367.622801 113.637386 
L 367.622801 109.80499 
L 380.621583 109.80499 
L 380.621583 105.972594 
L 401.515466 105.972594 
L 401.515466 102.140198 
L 430.259213 102.140198 
L 430.259213 98.307802 
L 431.303055 98.307802 
L 431.303055 94.475406 
L 431.512281 94.475406 
L 431.512281 90.64301 
L 431.673637 90.64301 
L 431.673637 86.810614 
L 432.828276 86.810614 
L 432.828276 82.978218 
L 432.828276 82.978218 
L 432.828276 82.978218 
L 460.8 82.978218 
" clip-path="url(#p34274e25af)" style="fill: none; stroke: #000000; stroke-width: 1.5; stroke-linecap: square"/>
   </g>
   <g id="line2d_115">
    <defs>
     <path id="ma4d163f7ea" d="M 0 7.5 
C 1.989023 7.5 3.896849 6.709753 5.303301 5.303301 
C 6.709753 3.896849 7.5 1.989023 7.5 0 
C 7.5 -1.989023 6.709753 -3.896849 5.303301 -5.303301 
C 3.896849 -6.709753 1.989023 -7.5 0 -7.5 
C -1.989023 -7.5 -3.896849 -6.709753 -5.303301 -5.303301 
C -6.709753 -3.896849 -7.5 -1.989023 -7.5 0 
C -7.5 1.989023 -6.709753 3.896849 -5.303301 5.303301 
C -3.896849 6.709753 -1.989023 7.5 0 7.5 
z
" style="stroke: #000000; stroke-width: 1.5"/>
    </defs>
    <g clip-path="url(#p34274e25af)">
     <use xlink:href="#ma4d163f7ea" x="157.910322" y="209.447287" style="fill-opacity: 0; stroke: #000000; stroke-width: 1.5"/>
     <use xlink:href="#ma4d163f7ea" x="197.718404" y="148.12895" style="fill-opacity: 0; stroke: #000000; stroke-width: 1.5"/>
     <use xlink:href="#ma4d163f7ea" x="235.905756" y="136.631762" style="fill-opacity: 0; stroke: #000000; stroke-width: 1.5"/>
     <use xlink:href="#ma4d163f7ea" x="367.622801" y="113.637386" style="fill-opacity: 0; stroke: #000000; stroke-width: 1.5"/>
     <use xlink:href="#ma4d163f7ea" x="432.828276" y="86.810614" style="fill-opacity: 0; stroke: #000000; stroke-width: 1.5"/>
     <use xlink:href="#ma4d163f7ea" x="432.828276" y="82.978218" style="fill-opacity: 0; stroke: #000000; stroke-width: 1.5"/>
    </g>
   </g>
   <g id="line2d_116">
    <path clip-path="url(#p34274e25af)" style="fill: none; stroke: #000000; stroke-width: 1.5; stroke-linecap: square"/>
   </g>
   <g id="line2d_117">
    <path d="M 244.795711 293.76 
L 244.795711 282.262812 
L 247.730283 282.262812 
L 247.730283 270.765624 
L 253.11855 270.765624 
L 253.11855 259.268436 
L 257.126243 259.268436 
L 257.126243 247.771248 
L 328.630233 247.771248 
L 328.630233 236.274059 
L 328.771117 236.274059 
L 328.771117 224.776871 
L 369.413648 224.776871 
L 369.413648 213.279683 
L 374.496902 213.279683 
L 374.496902 201.782495 
L 396.666716 201.782495 
L 396.666716 190.285307 
L 401.599624 190.285307 
L 401.599624 178.788119 
L 405.499222 178.788119 
L 405.499222 167.290931 
L 406.54951 167.290931 
L 406.54951 155.793743 
L 439.666297 155.793743 
L 439.666297 144.296554 
L 439.666297 144.296554 
L 439.666297 144.296554 
L 460.8 144.296554 
" clip-path="url(#p34274e25af)" style="fill: none; stroke: #00bfbf; stroke-width: 1.5; stroke-linecap: square"/>
   </g>
   <g id="line2d_118">
    <defs>
     <path id="m0644995732" d="M 0 14.142136 
L 8.485281 0 
L 0 -14.142136 
L -8.485281 0 
z
" style="stroke: #00bfbf; stroke-width: 1.5; stroke-linejoin: miter"/>
    </defs>
    <g clip-path="url(#p34274e25af)">
     <use xlink:href="#m0644995732" x="253.11855" y="270.765624" style="fill-opacity: 0; stroke: #00bfbf; stroke-width: 1.5; stroke-linejoin: miter"/>
     <use xlink:href="#m0644995732" x="328.771117" y="236.274059" style="fill-opacity: 0; stroke: #00bfbf; stroke-width: 1.5; stroke-linejoin: miter"/>
     <use xlink:href="#m0644995732" x="396.666716" y="201.782495" style="fill-opacity: 0; stroke: #00bfbf; stroke-width: 1.5; stroke-linejoin: miter"/>
     <use xlink:href="#m0644995732" x="406.54951" y="167.290931" style="fill-opacity: 0; stroke: #00bfbf; stroke-width: 1.5; stroke-linejoin: miter"/>
     <use xlink:href="#m0644995732" x="439.666297" y="144.296554" style="fill-opacity: 0; stroke: #00bfbf; stroke-width: 1.5; stroke-linejoin: miter"/>
    </g>
   </g>
   <g id="line2d_119">
    <path clip-path="url(#p34274e25af)" style="fill: none; stroke: #00bfbf; stroke-width: 1.5; stroke-linecap: square"/>
    <g clip-path="url(#p34274e25af)">
     <use xlink:href="#m0644995732" x="-1" y="581.189703" style="fill-opacity: 0; stroke: #00bfbf; stroke-width: 1.5; stroke-linejoin: miter"/>
     <use xlink:href="#m0644995732" x="460.8" y="581.189703" style="fill-opacity: 0; stroke: #00bfbf; stroke-width: 1.5; stroke-linejoin: miter"/>
    </g>
   </g>
   <g id="line2d_120">
    <path d="M 202.640359 293.76 
L 202.640359 289.927604 
L 213.388994 289.927604 
L 213.388994 286.095208 
L 218.522048 286.095208 
L 218.522048 282.262812 
L 232.480302 282.262812 
L 232.480302 278.430416 
L 239.794601 278.430416 
L 239.794601 274.59802 
L 240.941634 274.59802 
L 240.941634 270.765624 
L 241.529956 270.765624 
L 241.529956 266.933228 
L 247.958081 266.933228 
L 247.958081 263.100832 
L 250.810266 263.100832 
L 250.810266 259.268436 
L 253.318495 259.268436 
L 253.318495 255.43604 
L 306.426278 255.43604 
L 306.426278 251.603644 
L 330.326817 251.603644 
L 330.326817 247.771248 
L 333.705687 247.771248 
L 333.705687 243.938851 
L 334.414162 243.938851 
L 334.414162 240.106455 
L 337.475214 240.106455 
L 337.475214 236.274059 
L 340.087177 236.274059 
L 340.087177 232.441663 
L 343.107043 232.441663 
L 343.107043 228.609267 
L 366.703687 228.609267 
L 366.703687 224.776871 
L 370.218792 224.776871 
L 370.218792 220.944475 
L 370.983266 220.944475 
L 370.983266 217.112079 
L 372.170981 217.112079 
L 372.170981 213.279683 
L 372.442149 213.279683 
L 372.442149 209.447287 
L 373.552477 209.447287 
L 373.552477 205.614891 
L 377.014989 205.614891 
L 377.014989 201.782495 
L 379.769961 201.782495 
L 379.769961 197.950099 
L 381.573284 197.950099 
L 381.573284 194.117703 
L 385.998918 194.117703 
L 385.998918 190.285307 
L 396.655639 190.285307 
L 396.655639 186.452911 
L 397.459003 186.452911 
L 397.459003 182.620515 
L 400.920386 182.620515 
L 400.920386 178.788119 
L 402.876746 178.788119 
L 402.876746 174.955723 
L 423.23265 174.955723 
L 423.23265 171.123327 
L 430.47921 171.123327 
L 430.47921 167.290931 
L 431.646262 167.290931 
L 431.646262 163.458535 
L 432.04561 163.458535 
L 432.04561 159.626139 
L 432.128453 159.626139 
L 432.128453 155.793743 
L 432.403399 155.793743 
L 432.403399 151.961347 
L 432.403399 151.961347 
L 432.403399 151.961347 
L 460.8 151.961347 
" clip-path="url(#p34274e25af)" style="fill: none; stroke: #00bfbf; stroke-width: 1.5; stroke-linecap: square"/>
   </g>
   <g id="line2d_121">
    <defs>
     <path id="me37466892d" d="M 0 7.5 
C 1.989023 7.5 3.896849 6.709753 5.303301 5.303301 
C 6.709753 3.896849 7.5 1.989023 7.5 0 
C 7.5 -1.989023 6.709753 -3.896849 5.303301 -5.303301 
C 3.896849 -6.709753 1.989023 -7.5 0 -7.5 
C -1.989023 -7.5 -3.896849 -6.709753 -5.303301 -5.303301 
C -6.709753 -3.896849 -7.5 -1.989023 -7.5 0 
C -7.5 1.989023 -6.709753 3.896849 -5.303301 5.303301 
C -3.896849 6.709753 -1.989023 7.5 0 7.5 
z
" style="stroke: #00bfbf; stroke-width: 1.5"/>
    </defs>
    <g clip-path="url(#p34274e25af)">
     <use xlink:href="#me37466892d" x="247.958081" y="266.933228" style="fill-opacity: 0; stroke: #00bfbf; stroke-width: 1.5"/>
     <use xlink:href="#me37466892d" x="334.414162" y="243.938851" style="fill-opacity: 0; stroke: #00bfbf; stroke-width: 1.5"/>
     <use xlink:href="#me37466892d" x="373.552477" y="209.447287" style="fill-opacity: 0; stroke: #00bfbf; stroke-width: 1.5"/>
     <use xlink:href="#me37466892d" x="402.876746" y="178.788119" style="fill-opacity: 0; stroke: #00bfbf; stroke-width: 1.5"/>
     <use xlink:href="#me37466892d" x="432.403399" y="151.961347" style="fill-opacity: 0; stroke: #00bfbf; stroke-width: 1.5"/>
    </g>
   </g>
   <g id="line2d_122">
    <path clip-path="url(#p34274e25af)" style="fill: none; stroke: #00bfbf; stroke-width: 1.5; stroke-linecap: square"/>
   </g>
   <g id="line2d_123">
    <path d="M 329.706567 293.76 
L 329.706567 282.262812 
L 329.781492 282.262812 
L 329.781492 270.765624 
L 375.852747 270.765624 
L 375.852747 259.268436 
L 376.927657 259.268436 
L 376.927657 247.771248 
L 378.617185 247.771248 
L 378.617185 236.274059 
L 397.983226 236.274059 
L 397.983226 224.776871 
L 401.505618 224.776871 
L 401.505618 213.279683 
L 402.962398 213.279683 
L 402.962398 201.782495 
L 406.013491 201.782495 
L 406.013491 190.285307 
L 407.546294 190.285307 
L 407.546294 178.788119 
L 436.394357 178.788119 
L 436.394357 167.290931 
L 439.108537 167.290931 
L 439.108537 155.793743 
L 439.108537 155.793743 
L 439.108537 155.793743 
L 460.8 155.793743 
" clip-path="url(#p34274e25af)" style="fill: none; stroke: #bf00bf; stroke-width: 1.5; stroke-linecap: square"/>
   </g>
   <g id="line2d_124">
    <defs>
     <path id="m25dfcde391" d="M 0 14.142136 
L 8.485281 0 
L 0 -14.142136 
L -8.485281 0 
z
" style="stroke: #bf00bf; stroke-width: 1.5; stroke-linejoin: miter"/>
    </defs>
    <g clip-path="url(#p34274e25af)">
     <use xlink:href="#m25dfcde391" x="329.781492" y="282.262812" style="fill-opacity: 0; stroke: #bf00bf; stroke-width: 1.5; stroke-linejoin: miter"/>
     <use xlink:href="#m25dfcde391" x="397.983226" y="236.274059" style="fill-opacity: 0; stroke: #bf00bf; stroke-width: 1.5; stroke-linejoin: miter"/>
     <use xlink:href="#m25dfcde391" x="439.108537" y="167.290931" style="fill-opacity: 0; stroke: #bf00bf; stroke-width: 1.5; stroke-linejoin: miter"/>
     <use xlink:href="#m25dfcde391" x="439.108537" y="155.793743" style="fill-opacity: 0; stroke: #bf00bf; stroke-width: 1.5; stroke-linejoin: miter"/>
    </g>
   </g>
   <g id="line2d_125">
    <path clip-path="url(#p34274e25af)" style="fill: none; stroke: #bf00bf; stroke-width: 1.5; stroke-linecap: square"/>
    <g clip-path="url(#p34274e25af)">
     <use xlink:href="#m25dfcde391" x="-1" y="581.189703" style="fill-opacity: 0; stroke: #bf00bf; stroke-width: 1.5; stroke-linejoin: miter"/>
     <use xlink:href="#m25dfcde391" x="460.8" y="581.189703" style="fill-opacity: 0; stroke: #bf00bf; stroke-width: 1.5; stroke-linejoin: miter"/>
    </g>
   </g>
   <g id="line2d_126">
    <path d="M 223.581456 293.76 
L 223.581456 289.927604 
L 230.723605 289.927604 
L 230.723605 286.095208 
L 331.730828 286.095208 
L 331.730828 282.262812 
L 335.487148 282.262812 
L 335.487148 278.430416 
L 336.7863 278.430416 
L 336.7863 274.59802 
L 341.458295 274.59802 
L 341.458295 270.765624 
L 368.709046 270.765624 
L 368.709046 266.933228 
L 370.801542 266.933228 
L 370.801542 263.100832 
L 372.012344 263.100832 
L 372.012344 259.268436 
L 375.424288 259.268436 
L 375.424288 255.43604 
L 376.015579 255.43604 
L 376.015579 251.603644 
L 377.994606 251.603644 
L 377.994606 247.771248 
L 380.786559 247.771248 
L 380.786559 243.938851 
L 381.789277 243.938851 
L 381.789277 240.106455 
L 382.023462 240.106455 
L 382.023462 236.274059 
L 385.850378 236.274059 
L 385.850378 232.441663 
L 388.142366 232.441663 
L 388.142366 228.609267 
L 398.529106 228.609267 
L 398.529106 224.776871 
L 399.710667 224.776871 
L 399.710667 220.944475 
L 401.649819 220.944475 
L 401.649819 217.112079 
L 404.356158 217.112079 
L 404.356158 213.279683 
L 406.594994 213.279683 
L 406.594994 209.447287 
L 406.986776 209.447287 
L 406.986776 205.614891 
L 407.135007 205.614891 
L 407.135007 201.782495 
L 424.387359 201.782495 
L 424.387359 197.950099 
L 431.458883 197.950099 
L 431.458883 194.117703 
L 432.29053 194.117703 
L 432.29053 190.285307 
L 432.606611 190.285307 
L 432.606611 186.452911 
L 432.748881 186.452911 
L 432.748881 182.620515 
L 432.882996 182.620515 
L 432.882996 178.788119 
L 436.454385 178.788119 
L 436.454385 174.955723 
L 436.763922 174.955723 
L 436.763922 171.123327 
L 437.522948 171.123327 
L 437.522948 167.290931 
L 437.522948 167.290931 
L 437.522948 167.290931 
L 460.8 167.290931 
" clip-path="url(#p34274e25af)" style="fill: none; stroke: #bf00bf; stroke-width: 1.5; stroke-linecap: square"/>
   </g>
   <g id="line2d_127">
    <defs>
     <path id="mfb9bbb1f03" d="M 0 7.5 
C 1.989023 7.5 3.896849 6.709753 5.303301 5.303301 
C 6.709753 3.896849 7.5 1.989023 7.5 0 
C 7.5 -1.989023 6.709753 -3.896849 5.303301 -5.303301 
C 3.896849 -6.709753 1.989023 -7.5 0 -7.5 
C -1.989023 -7.5 -3.896849 -6.709753 -5.303301 -5.303301 
C -6.709753 -3.896849 -7.5 -1.989023 -7.5 0 
C -7.5 1.989023 -6.709753 3.896849 -5.303301 5.303301 
C -3.896849 6.709753 -1.989023 7.5 0 7.5 
z
" style="stroke: #bf00bf; stroke-width: 1.5"/>
    </defs>
    <g clip-path="url(#p34274e25af)">
     <use xlink:href="#mfb9bbb1f03" x="230.723605" y="289.927604" style="fill-opacity: 0; stroke: #bf00bf; stroke-width: 1.5"/>
     <use xlink:href="#mfb9bbb1f03" x="368.709046" y="270.765624" style="fill-opacity: 0; stroke: #bf00bf; stroke-width: 1.5"/>
     <use xlink:href="#mfb9bbb1f03" x="407.135007" y="205.614891" style="fill-opacity: 0; stroke: #bf00bf; stroke-width: 1.5"/>
     <use xlink:href="#mfb9bbb1f03" x="437.522948" y="171.123327" style="fill-opacity: 0; stroke: #bf00bf; stroke-width: 1.5"/>
     <use xlink:href="#mfb9bbb1f03" x="437.522948" y="167.290931" style="fill-opacity: 0; stroke: #bf00bf; stroke-width: 1.5"/>
    </g>
   </g>
   <g id="line2d_128">
    <path clip-path="url(#p34274e25af)" style="fill: none; stroke: #bf00bf; stroke-width: 1.5; stroke-linecap: square"/>
   </g>
   <g id="line2d_129">
    <path d="M 330.804212 293.76 
L 330.804212 282.262812 
L 331.539992 282.262812 
L 331.539992 270.765624 
L 376.466105 270.765624 
L 376.466105 259.268436 
L 382.47746 259.268436 
L 382.47746 247.771248 
L 382.907611 247.771248 
L 382.907611 236.274059 
L 400.103149 236.274059 
L 400.103149 224.776871 
L 404.04145 224.776871 
L 404.04145 213.279683 
L 404.766672 213.279683 
L 404.766672 201.782495 
L 407.805388 201.782495 
L 407.805388 190.285307 
L 408.501993 190.285307 
L 408.501993 178.788119 
L 438.124941 178.788119 
L 438.124941 167.290931 
L 440.92944 167.290931 
L 440.92944 155.793743 
L 440.92944 155.793743 
L 440.92944 155.793743 
L 460.8 155.793743 
" clip-path="url(#p34274e25af)" style="fill: none; stroke: #ff0000; stroke-width: 3; stroke-linecap: square"/>
   </g>
   <g id="line2d_130">
    <defs>
     <path id="m38327f9f00" d="M 0 14.142136 
L 8.485281 0 
L 0 -14.142136 
L -8.485281 0 
z
" style="stroke: #ff0000; stroke-width: 3; stroke-linejoin: miter"/>
    </defs>
    <g clip-path="url(#p34274e25af)">
     <use xlink:href="#m38327f9f00" x="331.539992" y="282.262812" style="fill-opacity: 0; stroke: #ff0000; stroke-width: 3; stroke-linejoin: miter"/>
     <use xlink:href="#m38327f9f00" x="400.103149" y="236.274059" style="fill-opacity: 0; stroke: #ff0000; stroke-width: 3; stroke-linejoin: miter"/>
     <use xlink:href="#m38327f9f00" x="408.501993" y="190.285307" style="fill-opacity: 0; stroke: #ff0000; stroke-width: 3; stroke-linejoin: miter"/>
     <use xlink:href="#m38327f9f00" x="440.92944" y="155.793743" style="fill-opacity: 0; stroke: #ff0000; stroke-width: 3; stroke-linejoin: miter"/>
    </g>
   </g>
   <g id="line2d_131">
    <path clip-path="url(#p34274e25af)" style="fill: none; stroke: #ff0000; stroke-width: 3; stroke-linecap: square"/>
    <g clip-path="url(#p34274e25af)">
     <use xlink:href="#m38327f9f00" x="-1" y="581.189703" style="fill-opacity: 0; stroke: #ff0000; stroke-width: 3; stroke-linejoin: miter"/>
     <use xlink:href="#m38327f9f00" x="460.8" y="581.189703" style="fill-opacity: 0; stroke: #ff0000; stroke-width: 3; stroke-linejoin: miter"/>
    </g>
   </g>
   <g id="line2d_132">
    <path d="M 238.842083 293.76 
L 238.842083 289.927604 
L 244.746624 289.927604 
L 244.746624 286.095208 
L 334.145701 286.095208 
L 334.145701 282.262812 
L 338.112049 282.262812 
L 338.112049 278.430416 
L 345.509585 278.430416 
L 345.509585 274.59802 
L 356.677446 274.59802 
L 356.677446 270.765624 
L 370.882152 270.765624 
L 370.882152 266.933228 
L 372.682923 266.933228 
L 372.682923 263.100832 
L 373.940967 263.100832 
L 373.940967 259.268436 
L 378.510249 259.268436 
L 378.510249 255.43604 
L 379.686425 255.43604 
L 379.686425 251.603644 
L 380.703247 251.603644 
L 380.703247 247.771248 
L 382.060318 247.771248 
L 382.060318 243.938851 
L 382.773347 243.938851 
L 382.773347 240.106455 
L 384.176761 240.106455 
L 384.176761 236.274059 
L 389.222363 236.274059 
L 389.222363 232.441663 
L 390.182695 232.441663 
L 390.182695 228.609267 
L 400.039695 228.609267 
L 400.039695 224.776871 
L 401.593073 224.776871 
L 401.593073 220.944475 
L 404.443888 220.944475 
L 404.443888 217.112079 
L 406.244346 217.112079 
L 406.244346 213.279683 
L 409.065134 213.279683 
L 409.065134 209.447287 
L 409.338415 209.447287 
L 409.338415 205.614891 
L 410.849612 205.614891 
L 410.849612 201.782495 
L 426.228546 201.782495 
L 426.228546 197.950099 
L 432.6277 197.950099 
L 432.6277 194.117703 
L 433.406556 194.117703 
L 433.406556 190.285307 
L 433.465048 190.285307 
L 433.465048 186.452911 
L 433.943973 186.452911 
L 433.943973 182.620515 
L 433.967873 182.620515 
L 433.967873 178.788119 
L 438.152382 178.788119 
L 438.152382 174.955723 
L 438.740882 174.955723 
L 438.740882 171.123327 
L 438.762157 171.123327 
L 438.762157 167.290931 
L 438.762157 167.290931 
L 438.762157 167.290931 
L 460.8 167.290931 
" clip-path="url(#p34274e25af)" style="fill: none; stroke: #ff0000; stroke-width: 3; stroke-linecap: square"/>
   </g>
   <g id="line2d_133">
    <defs>
     <path id="m8733de16a7" d="M 0 7.5 
C 1.989023 7.5 3.896849 6.709753 5.303301 5.303301 
C 6.709753 3.896849 7.5 1.989023 7.5 0 
C 7.5 -1.989023 6.709753 -3.896849 5.303301 -5.303301 
C 3.896849 -6.709753 1.989023 -7.5 0 -7.5 
C -1.989023 -7.5 -3.896849 -6.709753 -5.303301 -5.303301 
C -6.709753 -3.896849 -7.5 -1.989023 -7.5 0 
C -7.5 1.989023 -6.709753 3.896849 -5.303301 5.303301 
C -3.896849 6.709753 -1.989023 7.5 0 7.5 
z
" style="stroke: #ff0000; stroke-width: 3"/>
    </defs>
    <g clip-path="url(#p34274e25af)">
     <use xlink:href="#m8733de16a7" x="244.746624" y="289.927604" style="fill-opacity: 0; stroke: #ff0000; stroke-width: 3"/>
     <use xlink:href="#m8733de16a7" x="345.509585" y="278.430416" style="fill-opacity: 0; stroke: #ff0000; stroke-width: 3"/>
     <use xlink:href="#m8733de16a7" x="409.338415" y="209.447287" style="fill-opacity: 0; stroke: #ff0000; stroke-width: 3"/>
     <use xlink:href="#m8733de16a7" x="438.762157" y="171.123327" style="fill-opacity: 0; stroke: #ff0000; stroke-width: 3"/>
     <use xlink:href="#m8733de16a7" x="438.762157" y="167.290931" style="fill-opacity: 0; stroke: #ff0000; stroke-width: 3"/>
    </g>
   </g>
   <g id="line2d_134">
    <path clip-path="url(#p34274e25af)" style="fill: none; stroke: #ff0000; stroke-width: 3; stroke-linecap: square"/>
   </g>
   <g id="line2d_135">
    <path d="M 441.815314 293.76 
L 441.815314 3.456 
" clip-path="url(#p34274e25af)" style="fill: none; stroke: #000000; stroke-width: 1.5; stroke-linecap: square"/>
    <defs>
     <path id="m1a98abf565" d="M -10 0 
L 10 0 
M 0 10 
L 0 -10 
" style="stroke: #000000; stroke-width: 3"/>
    </defs>
    <g clip-path="url(#p34274e25af)">
     <use xlink:href="#m1a98abf565" x="441.815314" y="293.76" style="stroke: #000000; stroke-width: 3"/>
     <use xlink:href="#m1a98abf565" x="441.815314" y="3.456" style="stroke: #000000; stroke-width: 3"/>
    </g>
   </g>
   <g id="line2d_136">
    <path d="M 441.819429 293.76 
L 441.819429 3.456 
" clip-path="url(#p34274e25af)" style="fill: none; stroke: #000000; stroke-width: 1.5; stroke-linecap: square"/>
    <defs>
     <path id="m35355130d8" d="M 0 7.5 
C 1.989023 7.5 3.896849 6.709753 5.303301 5.303301 
C 6.709753 3.896849 7.5 1.989023 7.5 0 
C 7.5 -1.989023 6.709753 -3.896849 5.303301 -5.303301 
C 3.896849 -6.709753 1.989023 -7.5 0 -7.5 
C -1.989023 -7.5 -3.896849 -6.709753 -5.303301 -5.303301 
C -6.709753 -3.896849 -7.5 -1.989023 -7.5 0 
C -7.5 1.989023 -6.709753 3.896849 -5.303301 5.303301 
C -3.896849 6.709753 -1.989023 7.5 0 7.5 
z
" style="stroke: #000000; stroke-width: 3"/>
    </defs>
    <g clip-path="url(#p34274e25af)">
     <use xlink:href="#m35355130d8" x="441.819429" y="293.76" style="fill-opacity: 0; stroke: #000000; stroke-width: 3"/>
     <use xlink:href="#m35355130d8" x="441.819429" y="3.456" style="fill-opacity: 0; stroke: #000000; stroke-width: 3"/>
    </g>
   </g>
   <g id="patch_3">
    <path d="M 62.208 293.76 
L 62.208 3.456 
" style="fill: none; stroke: #000000; stroke-width: 0.8; stroke-linejoin: miter; stroke-linecap: square"/>
   </g>
   <g id="patch_4">
    <path d="M 460.8 293.76 
L 460.8 3.456 
" style="fill: none; stroke: #000000; stroke-width: 0.8; stroke-linejoin: miter; stroke-linecap: square"/>
   </g>
   <g id="patch_5">
    <path d="M 62.208 293.76 
L 460.8 293.76 
" style="fill: none; stroke: #000000; stroke-width: 0.8; stroke-linejoin: miter; stroke-linecap: square"/>
   </g>
   <g id="patch_6">
    <path d="M 62.208 3.456 
L 460.8 3.456 
" style="fill: none; stroke: #000000; stroke-width: 0.8; stroke-linejoin: miter; stroke-linecap: square"/>
   </g>
   <g id="text_11">
    <!-- f20-f24 -->
    <g transform="translate(225.405563 24.458955) scale(0.2 -0.2)">
     <defs>
      <path id="DejaVuSans-2d" d="M 313 2009 
L 1997 2009 
L 1997 1497 
L 313 1497 
L 313 2009 
z
" transform="scale(0.015625)"/>
     </defs>
     <use xlink:href="#DejaVuSans-66"/>
     <use xlink:href="#DejaVuSans-32" x="35.205078"/>
     <use xlink:href="#DejaVuSans-30" x="98.828125"/>
     <use xlink:href="#DejaVuSans-2d" x="162.451172"/>
     <use xlink:href="#DejaVuSans-66" x="198.535156"/>
     <use xlink:href="#DejaVuSans-32" x="233.740234"/>
     <use xlink:href="#DejaVuSans-34" x="297.363281"/>
    </g>
   </g>
   <g id="text_12">
    <!-- absolute targets -->
    <g transform="translate(62.208 607.633236) scale(0.14 -0.14)">
     <defs>
      <path id="DejaVuSans-62" d="M 3116 1747 
Q 3116 2381 2855 2742 
Q 2594 3103 2138 3103 
Q 1681 3103 1420 2742 
Q 1159 2381 1159 1747 
Q 1159 1113 1420 752 
Q 1681 391 2138 391 
Q 2594 391 2855 752 
Q 3116 1113 3116 1747 
z
M 1159 2969 
Q 1341 3281 1617 3432 
Q 1894 3584 2278 3584 
Q 2916 3584 3314 3078 
Q 3713 2572 3713 1747 
Q 3713 922 3314 415 
Q 2916 -91 2278 -91 
Q 1894 -91 1617 61 
Q 1341 213 1159 525 
L 1159 0 
L 581 0 
L 581 4863 
L 1159 4863 
L 1159 2969 
z
" transform="scale(0.015625)"/>
      <path id="DejaVuSans-75" d="M 544 1381 
L 544 3500 
L 1119 3500 
L 1119 1403 
Q 1119 906 1312 657 
Q 1506 409 1894 409 
Q 2359 409 2629 706 
Q 2900 1003 2900 1516 
L 2900 3500 
L 3475 3500 
L 3475 0 
L 2900 0 
L 2900 538 
Q 2691 219 2414 64 
Q 2138 -91 1772 -91 
Q 1169 -91 856 284 
Q 544 659 544 1381 
z
M 1991 3584 
L 1991 3584 
z
" transform="scale(0.015625)"/>
      <path id="DejaVuSans-65" d="M 3597 1894 
L 3597 1613 
L 953 1613 
Q 991 1019 1311 708 
Q 1631 397 2203 397 
Q 2534 397 2845 478 
Q 3156 559 3463 722 
L 3463 178 
Q 3153 47 2828 -22 
Q 2503 -91 2169 -91 
Q 1331 -91 842 396 
Q 353 884 353 1716 
Q 353 2575 817 3079 
Q 1281 3584 2069 3584 
Q 2775 3584 3186 3129 
Q 3597 2675 3597 1894 
z
M 3022 2063 
Q 3016 2534 2758 2815 
Q 2500 3097 2075 3097 
Q 1594 3097 1305 2825 
Q 1016 2553 972 2059 
L 3022 2063 
z
" transform="scale(0.015625)"/>
     </defs>
     <use xlink:href="#DejaVuSans-61"/>
     <use xlink:href="#DejaVuSans-62" x="61.279297"/>
     <use xlink:href="#DejaVuSans-73" x="124.755859"/>
     <use xlink:href="#DejaVuSans-6f" x="176.855469"/>
     <use xlink:href="#DejaVuSans-6c" x="238.037109"/>
     <use xlink:href="#DejaVuSans-75" x="265.820312"/>
     <use xlink:href="#DejaVuSans-74" x="329.199219"/>
     <use xlink:href="#DejaVuSans-65" x="368.408203"/>
     <use xlink:href="#DejaVuSans-20" x="429.931641"/>
     <use xlink:href="#DejaVuSans-74" x="461.71875"/>
     <use xlink:href="#DejaVuSans-61" x="500.927734"/>
     <use xlink:href="#DejaVuSans-72" x="562.207031"/>
     <use xlink:href="#DejaVuSans-67" x="601.570312"/>
     <use xlink:href="#DejaVuSans-65" x="665.046875"/>
     <use xlink:href="#DejaVuSans-74" x="726.570312"/>
     <use xlink:href="#DejaVuSans-73" x="765.779297"/>
    </g>
   </g>
   <g id="text_13">
    <!-- v2.6.3 -->
    <g style="fill: #808080" transform="translate(245.82275 288.777272) scale(0.1 -0.1)">
     <use xlink:href="#DejaVuSans-76"/>
     <use xlink:href="#DejaVuSans-32" x="59.179688"/>
     <use xlink:href="#DejaVuSans-2e" x="122.802734"/>
     <use xlink:href="#DejaVuSans-36" x="154.589844"/>
     <use xlink:href="#DejaVuSans-2e" x="218.212891"/>
     <use xlink:href="#DejaVuSans-33" x="250"/>
    </g>
   </g>
   <g id="legend_1">
    <g id="patch_7">
     <path d="M 76.208 136.881 
L 160.148625 136.881 
Q 164.148625 136.881 164.148625 132.881 
L 164.148625 17.456 
Q 164.148625 13.456 160.148625 13.456 
L 76.208 13.456 
Q 72.208 13.456 72.208 17.456 
L 72.208 132.881 
Q 72.208 136.881 76.208 136.881 
z
" style="fill: #ffffff; opacity: 0.2; stroke: #cccccc; stroke-linejoin: miter"/>
    </g>
    <g id="line2d_137">
     <path d="M 80.208 29.652875 
L 80.208 29.652875 
L 100.208 29.652875 
L 100.208 29.652875 
L 120.208 29.652875 
" style="fill: none; stroke: #000000; stroke-width: 1.5; stroke-linecap: square"/>
    </g>
    <g id="text_14">
     <!-- 1 -->
     <g transform="translate(136.208 36.652875) scale(0.2 -0.2)">
      <use xlink:href="#DejaVuSans-31"/>
     </g>
    </g>
    <g id="line2d_138">
     <path d="M 80.208 59.009125 
L 80.208 59.009125 
L 100.208 59.009125 
L 100.208 59.009125 
L 120.208 59.009125 
" style="fill: none; stroke: #00bfbf; stroke-width: 1.5; stroke-linecap: square"/>
    </g>
    <g id="text_15">
     <!-- -1 -->
     <g transform="translate(136.208 66.009125) scale(0.2 -0.2)">
      <use xlink:href="#DejaVuSans-2d"/>
      <use xlink:href="#DejaVuSans-31" x="36.083984"/>
     </g>
    </g>
    <g id="line2d_139">
     <path d="M 80.208 88.365375 
L 80.208 88.365375 
L 100.208 88.365375 
L 100.208 88.365375 
L 120.208 88.365375 
" style="fill: none; stroke: #bf00bf; stroke-width: 1.5; stroke-linecap: square"/>
    </g>
    <g id="text_16">
     <!-- -4 -->
     <g transform="translate(136.208 95.365375) scale(0.2 -0.2)">
      <use xlink:href="#DejaVuSans-2d"/>
      <use xlink:href="#DejaVuSans-34" x="36.083984"/>
     </g>
    </g>
    <g id="line2d_140">
     <path d="M 80.208 117.721625 
L 80.208 117.721625 
L 100.208 117.721625 
L 100.208 117.721625 
L 120.208 117.721625 
" style="fill: none; stroke: #ff0000; stroke-width: 3; stroke-linecap: square"/>
    </g>
    <g id="text_17">
     <!-- -8 -->
     <g transform="translate(136.208 124.721625) scale(0.2 -0.2)">
      <use xlink:href="#DejaVuSans-2d"/>
      <use xlink:href="#DejaVuSans-38" x="36.083984"/>
     </g>
    </g>
   </g>
  </g>
 </g>
 <defs>
  <clipPath id="p34274e25af">
   <rect x="62.208" y="3.456" width="398.592" height="290.304"/>
  </clipPath>
 </defs>
</svg>
