<?xml version="1.0" encoding="utf-8" standalone="no"?>
<!DOCTYPE svg PUBLIC "-//W3C//DTD SVG 1.1//EN"
  "http://www.w3.org/Graphics/SVG/1.1/DTD/svg11.dtd">
<svg xmlns:xlink="http://www.w3.org/1999/xlink" width="460.8pt" height="345.6pt" viewBox="0 0 460.8 345.6" xmlns="http://www.w3.org/2000/svg" version="1.1">
 <metadata>
  <rdf:RDF xmlns:dc="http://purl.org/dc/elements/1.1/" xmlns:cc="http://creativecommons.org/ns#" xmlns:rdf="http://www.w3.org/1999/02/22-rdf-syntax-ns#">
   <cc:Work>
    <dc:type rdf:resource="http://purl.org/dc/dcmitype/StillImage"/>
    <dc:date>2024-05-24T12:12:04.961204</dc:date>
    <dc:format>image/svg+xml</dc:format>
    <dc:creator>
     <cc:Agent>
      <dc:title>Matplotlib v3.7.1, https://matplotlib.org/</dc:title>
     </cc:Agent>
    </dc:creator>
   </cc:Work>
  </rdf:RDF>
 </metadata>
 <defs>
  <style type="text/css">*{stroke-linejoin: round; stroke-linecap: butt}</style>
 </defs>
 <g id="figure_1">
  <g id="patch_1">
   <path d="M 0 345.6 
L 460.8 345.6 
L 460.8 0 
L 0 0 
z
" style="fill: #ffffff"/>
  </g>
  <g id="axes_1">
   <g id="patch_2">
    <path d="M 62.208 293.76 
L 460.8 293.76 
L 460.8 3.456 
L 62.208 3.456 
z
" style="fill: #ffffff"/>
   </g>
   <g id="line2d_1"/>
   <g id="line2d_2">
    <path d="M 351.602933 293.76 
L 351.602933 289.927604 
L 351.829231 289.927604 
L 351.829231 286.095208 
L 357.559805 286.095208 
L 357.559805 282.262812 
L 358.827319 282.262812 
L 358.827319 278.430416 
L 368.19552 278.430416 
L 368.19552 274.59802 
L 368.629927 274.59802 
L 368.629927 270.765624 
L 369.089864 270.765624 
L 369.089864 266.933228 
L 369.294306 266.933228 
L 369.294306 263.100832 
L 369.726812 263.100832 
L 369.726812 259.268436 
L 370.286396 259.268436 
L 370.286396 255.43604 
L 370.352899 255.43604 
L 370.352899 251.603644 
L 370.428022 251.603644 
L 370.428022 247.771248 
L 370.46001 247.771248 
L 370.46001 243.938851 
L 370.814859 243.938851 
L 370.814859 240.106455 
L 370.875335 240.106455 
L 370.875335 236.274059 
L 371.093462 236.274059 
L 371.093462 232.441663 
L 371.244327 232.441663 
L 371.244327 228.609267 
L 371.782686 228.609267 
L 371.782686 224.776871 
L 371.88278 224.776871 
L 371.88278 220.944475 
L 371.888396 220.944475 
L 371.888396 217.112079 
L 372.115763 217.112079 
L 372.115763 213.279683 
L 372.169342 213.279683 
L 372.169342 209.447287 
L 372.270172 209.447287 
L 372.270172 205.614891 
L 372.647892 205.614891 
L 372.647892 201.782495 
L 373.129667 201.782495 
L 373.129667 197.950099 
L 373.326452 197.950099 
L 373.326452 194.117703 
L 374.203721 194.117703 
L 374.203721 190.285307 
L 375.475537 190.285307 
L 375.475537 186.452911 
L 376.685289 186.452911 
L 376.685289 182.620515 
L 376.911603 182.620515 
L 376.911603 178.788119 
L 378.041831 178.788119 
L 378.041831 174.955723 
L 378.055372 174.955723 
L 378.055372 171.123327 
L 378.535595 171.123327 
L 378.535595 167.290931 
L 378.86831 167.290931 
L 378.86831 163.458535 
L 379.643662 163.458535 
L 379.643662 159.626139 
L 382.109071 159.626139 
L 382.109071 155.793743 
L 384.329113 155.793743 
L 384.329113 151.961347 
L 385.622815 151.961347 
L 385.622815 148.12895 
L 388.069387 148.12895 
L 388.069387 144.296554 
L 392.060035 144.296554 
L 392.060035 140.464158 
L 392.09169 140.464158 
L 392.09169 136.631762 
L 392.252343 136.631762 
L 392.252343 132.799366 
L 392.399402 132.799366 
L 392.399402 128.96697 
L 392.572462 128.96697 
L 392.572462 125.134574 
L 392.579941 125.134574 
L 392.579941 121.302178 
L 393.159446 121.302178 
L 393.159446 117.469782 
L 393.236793 117.469782 
L 393.236793 113.637386 
L 393.452994 113.637386 
L 393.452994 109.80499 
L 393.813136 109.80499 
L 393.813136 105.972594 
L 393.981686 105.972594 
L 393.981686 102.140198 
L 394.447199 102.140198 
L 394.447199 98.307802 
L 398.617746 98.307802 
L 398.617746 94.475406 
L 399.076096 94.475406 
L 399.076096 90.64301 
L 399.099896 90.64301 
L 399.099896 86.810614 
L 399.522225 86.810614 
L 399.522225 82.978218 
L 399.760485 82.978218 
L 399.760485 79.145822 
L 400.654184 79.145822 
L 400.654184 75.313426 
L 408.953891 75.313426 
L 408.953891 71.48103 
L 410.731832 71.48103 
L 410.731832 67.648634 
L 425.298861 67.648634 
L 425.298861 63.816238 
L 439.875918 63.816238 
L 439.875918 59.983842 
L 439.875918 59.983842 
L 439.875918 59.983842 
L 460.8 59.983842 
" clip-path="url(#p510a0da19c)" style="fill: none; stroke: #f5deb3; stroke-width: 1.5; stroke-linecap: square"/>
   </g>
   <g id="line2d_3"/>
   <g id="line2d_4"/>
   <g id="line2d_5">
    <path d="M 342.215304 293.76 
L 342.215304 289.927604 
L 343.544663 289.927604 
L 343.544663 286.095208 
L 345.109807 286.095208 
L 345.109807 282.262812 
L 345.452534 282.262812 
L 345.452534 278.430416 
L 345.822043 278.430416 
L 345.822043 274.59802 
L 352.003375 274.59802 
L 352.003375 270.765624 
L 352.371119 270.765624 
L 352.371119 266.933228 
L 352.863225 266.933228 
L 352.923771 259.268436 
L 353.119049 259.268436 
L 353.119049 255.43604 
L 353.375934 255.43604 
L 353.375934 251.603644 
L 353.50334 251.603644 
L 353.50334 247.771248 
L 353.760464 247.771248 
L 353.857125 240.106455 
L 354.094765 240.106455 
L 354.119837 232.441663 
L 354.558279 232.441663 
L 354.558279 228.609267 
L 357.126612 228.609267 
L 357.126612 224.776871 
L 358.110271 224.776871 
L 358.110271 220.944475 
L 358.900497 220.944475 
L 358.900497 217.112079 
L 359.719637 217.112079 
L 359.719637 213.279683 
L 360.268239 213.279683 
L 360.286103 205.614891 
L 360.50579 205.614891 
L 360.50579 201.782495 
L 361.469297 201.782495 
L 361.469297 197.950099 
L 362.326598 197.950099 
L 362.326598 194.117703 
L 362.780886 194.117703 
L 362.780886 190.285307 
L 367.429275 190.285307 
L 367.429275 186.452911 
L 369.429244 186.452911 
L 369.429244 182.620515 
L 371.140953 182.620515 
L 371.24832 174.955723 
L 371.617394 174.955723 
L 371.716197 163.458535 
L 371.746074 163.458535 
L 371.746074 159.626139 
L 371.901871 159.626139 
L 371.993835 151.961347 
L 372.22508 151.961347 
L 372.22508 148.12895 
L 372.361318 148.12895 
L 372.361318 144.296554 
L 372.612593 144.296554 
L 372.663326 136.631762 
L 372.887565 136.631762 
L 372.906745 128.96697 
L 373.433148 128.96697 
L 373.433148 125.134574 
L 376.075975 125.134574 
L 376.075975 121.302178 
L 377.261579 121.302178 
L 377.261579 117.469782 
L 377.493583 117.469782 
L 377.590519 109.80499 
L 377.649157 109.80499 
L 377.722825 98.307802 
L 377.826032 98.307802 
L 377.933345 90.64301 
L 378.022963 90.64301 
L 378.022963 86.810614 
L 378.399164 86.810614 
L 378.399164 82.978218 
L 378.784314 82.978218 
L 378.784314 79.145822 
L 379.78346 79.145822 
L 379.78346 75.313426 
L 380.274322 75.313426 
L 380.274322 71.48103 
L 380.527825 71.48103 
L 380.527825 67.648634 
L 381.485614 67.648634 
L 381.485614 63.816238 
L 444.818719 63.816238 
L 444.818719 59.983842 
L 446.340508 59.983842 
L 446.340508 56.151446 
L 446.595608 56.151446 
L 446.595608 52.31905 
L 447.138218 52.31905 
L 447.138218 48.486653 
L 461.8 48.486653 
L 461.8 48.486653 
" clip-path="url(#p510a0da19c)" style="fill: none; stroke: #f5deb3; stroke-width: 1.5; stroke-linecap: square"/>
   </g>
   <g id="line2d_6">
    <path clip-path="url(#p510a0da19c)" style="fill: none; stroke: #f5deb3; stroke-width: 1.5; stroke-linecap: square"/>
   </g>
   <g id="line2d_7"/>
   <g id="line2d_8"/>
   <g id="line2d_9"/>
   <g id="line2d_10"/>
   <g id="line2d_11">
    <path clip-path="url(#p510a0da19c)" style="fill: none; stroke: #f5deb3; stroke-width: 1.5; stroke-linecap: square"/>
   </g>
   <g id="line2d_12"/>
   <g id="line2d_13">
    <path d="M 315.741205 293.76 
L 315.741205 289.927604 
L 317.011115 289.927604 
L 317.011115 286.095208 
L 322.688306 286.095208 
L 322.688306 282.262812 
L 323.309933 282.262812 
L 323.309933 278.430416 
L 325.169343 278.430416 
L 325.169343 274.59802 
L 325.912861 274.59802 
L 325.912861 270.765624 
L 327.115236 270.765624 
L 327.115236 266.933228 
L 329.69723 266.933228 
L 329.69723 263.100832 
L 331.835589 263.100832 
L 331.835589 259.268436 
L 333.214826 259.268436 
L 333.214826 255.43604 
L 334.375324 255.43604 
L 334.375324 251.603644 
L 337.568269 251.603644 
L 337.568269 247.771248 
L 338.521871 247.771248 
L 338.521871 243.938851 
L 342.638851 243.938851 
L 342.638851 240.106455 
L 342.690206 240.106455 
L 342.690206 236.274059 
L 388.374278 236.274059 
L 388.374278 232.441663 
L 392.980424 232.441663 
L 392.980424 228.609267 
L 393.254853 228.609267 
L 393.254853 224.776871 
L 393.893218 224.776871 
L 393.893218 220.944475 
L 396.439224 220.944475 
L 396.439224 217.112079 
L 397.036864 217.112079 
L 397.036864 213.279683 
L 397.823065 213.279683 
L 397.823065 209.447287 
L 397.830546 209.447287 
L 397.830546 205.614891 
L 398.42943 205.614891 
L 398.42943 201.782495 
L 398.522224 201.782495 
L 398.522224 197.950099 
L 400.115028 197.950099 
L 400.115028 194.117703 
L 400.278899 194.117703 
L 400.278899 190.285307 
L 400.428918 190.285307 
L 400.428918 186.452911 
L 400.450826 186.452911 
L 400.450826 182.620515 
L 400.726211 182.620515 
L 400.726211 178.788119 
L 400.834294 178.788119 
L 400.834294 174.955723 
L 402.35571 174.955723 
L 402.35571 171.123327 
L 402.576315 171.123327 
L 402.576315 167.290931 
L 402.605107 167.290931 
L 402.605107 163.458535 
L 403.056736 163.458535 
L 403.056736 159.626139 
L 403.1694 159.626139 
L 403.1694 155.793743 
L 406.538049 155.793743 
L 406.538049 151.961347 
L 407.131605 151.961347 
L 407.131605 148.12895 
L 407.416197 148.12895 
L 407.416197 144.296554 
L 407.748971 144.296554 
L 407.748971 140.464158 
L 408.518922 140.464158 
L 408.518922 136.631762 
L 409.616519 136.631762 
L 409.616519 132.799366 
L 410.239663 132.799366 
L 410.239663 128.96697 
L 410.512007 128.96697 
L 410.512007 125.134574 
L 411.511872 125.134574 
L 411.511872 121.302178 
L 411.511872 121.302178 
L 411.511872 121.302178 
L 460.8 121.302178 
" clip-path="url(#p510a0da19c)" style="fill: none; stroke: #f5deb3; stroke-width: 1.5; stroke-linecap: square"/>
   </g>
   <g id="line2d_14"/>
   <g id="line2d_15"/>
   <g id="line2d_16"/>
   <g id="line2d_17">
    <path d="M 381.278215 293.76 
L 381.278215 289.927604 
L 384.912932 289.927604 
L 384.912932 286.095208 
L 387.251717 286.095208 
L 387.251717 282.262812 
L 388.573296 282.262812 
L 388.681413 274.59802 
L 390.042568 274.59802 
L 390.042568 270.765624 
L 390.46728 270.765624 
L 390.559483 263.100832 
L 391.351796 263.100832 
L 391.351796 259.268436 
L 391.478016 259.268436 
L 391.478016 255.43604 
L 391.88757 255.43604 
L 391.901394 247.771248 
L 392.238979 247.771248 
L 392.244805 240.106455 
L 392.743107 240.106455 
L 392.743107 236.274059 
L 393.027186 236.274059 
L 393.027186 232.441663 
L 393.269897 232.441663 
L 393.269897 228.609267 
L 393.490579 228.609267 
L 393.490579 224.776871 
L 393.984643 224.776871 
L 393.984643 220.944475 
L 394.983574 220.944475 
L 394.983574 217.112079 
L 395.963559 217.112079 
L 395.963559 213.279683 
L 396.213594 213.279683 
L 396.213594 209.447287 
L 396.525486 209.447287 
L 396.525486 205.614891 
L 397.029542 205.614891 
L 397.029542 201.782495 
L 397.285039 201.782495 
L 397.285039 197.950099 
L 397.649111 197.950099 
L 397.649111 194.117703 
L 400.181785 194.117703 
L 400.212017 186.452911 
L 400.363686 186.452911 
L 400.430603 178.788119 
L 400.53526 178.788119 
L 400.53526 174.955723 
L 401.3974 174.955723 
L 401.454166 163.458535 
L 402.54083 163.458535 
L 402.54083 159.626139 
L 402.74186 159.626139 
L 402.786194 151.961347 
L 403.295387 151.961347 
L 403.295387 148.12895 
L 404.073939 148.12895 
L 404.073939 144.296554 
L 404.531971 144.296554 
L 404.531971 140.464158 
L 405.732528 140.464158 
L 405.732528 136.631762 
L 407.536722 136.631762 
L 407.536722 132.799366 
L 408.429246 132.799366 
L 408.429246 128.96697 
L 409.991357 128.96697 
L 409.991357 125.134574 
L 412.998163 125.134574 
L 412.998163 121.302178 
L 416.683422 121.302178 
L 416.683422 117.469782 
L 417.829 117.469782 
L 417.829 113.637386 
L 418.806581 113.637386 
L 418.806581 109.80499 
L 419.058883 109.80499 
L 419.058883 105.972594 
L 420.476888 105.972594 
L 420.476888 102.140198 
L 421.252504 102.140198 
L 421.252504 98.307802 
L 421.97067 98.307802 
L 422.070827 86.810614 
L 422.933633 86.810614 
L 422.933633 82.978218 
L 424.054107 82.978218 
L 424.054107 79.145822 
L 424.2664 79.145822 
L 424.2664 75.313426 
L 425.054445 75.313426 
L 425.144921 67.648634 
L 427.569425 67.648634 
L 427.569425 63.816238 
L 429.758781 63.816238 
L 429.758781 59.983842 
L 431.016408 59.983842 
L 431.016408 56.151446 
L 433.927892 56.151446 
L 433.927892 52.31905 
L 440.07479 52.31905 
L 440.07479 48.486653 
L 440.576931 48.486653 
L 440.587217 40.821861 
L 442.65735 40.821861 
L 442.65735 36.989465 
L 443.655519 36.989465 
L 443.744101 29.324673 
L 443.966924 29.324673 
L 444.008027 21.659881 
L 444.711032 21.659881 
L 444.712375 13.995089 
L 447.170133 13.995089 
L 447.170133 10.162693 
L 447.625627 10.162693 
L 447.625627 6.330297 
L 447.625627 6.330297 
L 460.8 6.330297 
L 460.8 6.330297 
" clip-path="url(#p510a0da19c)" style="fill: none; stroke: #f5deb3; stroke-width: 1.5; stroke-linecap: square"/>
   </g>
   <g id="line2d_18">
    <path d="M 352.667624 293.76 
L 352.667624 289.927604 
L 356.009246 289.927604 
L 356.009246 286.095208 
L 357.551853 286.095208 
L 357.551853 282.262812 
L 360.490243 282.262812 
L 360.490243 278.430416 
L 361.000965 278.430416 
L 361.000965 274.59802 
L 361.00901 274.59802 
L 361.00901 270.765624 
L 364.003086 270.765624 
L 364.003086 266.933228 
L 368.394045 266.933228 
L 368.394045 263.100832 
L 368.433148 263.100832 
L 368.433148 259.268436 
L 376.88276 259.268436 
L 376.88276 255.43604 
L 378.455706 255.43604 
L 378.455706 251.603644 
L 379.578011 251.603644 
L 379.578011 247.771248 
L 380.721353 247.771248 
L 380.721353 243.938851 
L 385.392804 243.938851 
L 385.392804 240.106455 
L 386.83027 240.106455 
L 386.83027 236.274059 
L 421.789873 236.274059 
L 421.789873 232.441663 
L 422.904169 232.441663 
L 422.904169 228.609267 
L 423.952153 228.609267 
L 423.952153 224.776871 
L 424.164813 224.776871 
L 424.164813 220.944475 
L 424.401671 220.944475 
L 424.401671 217.112079 
L 424.551679 217.112079 
L 424.551679 213.279683 
L 424.6673 213.279683 
L 424.6673 209.447287 
L 424.682899 209.447287 
L 424.682899 205.614891 
L 424.822563 205.614891 
L 424.822563 201.782495 
L 425.998156 201.782495 
L 425.998156 197.950099 
L 426.751397 197.950099 
L 426.751397 194.117703 
L 428.023662 194.117703 
L 428.023662 190.285307 
L 428.469247 190.285307 
L 428.469247 186.452911 
L 428.902042 186.452911 
L 428.902042 182.620515 
L 430.581178 182.620515 
L 430.581178 178.788119 
L 430.581178 178.788119 
L 430.581178 178.788119 
L 460.8 178.788119 
" clip-path="url(#p510a0da19c)" style="fill: none; stroke: #f5deb3; stroke-width: 1.5; stroke-linecap: square"/>
   </g>
   <g id="line2d_19">
    <path d="M 357.02364 293.76 
L 357.02364 289.927604 
L 357.297395 289.927604 
L 357.297395 286.095208 
L 357.415647 286.095208 
L 357.501724 278.430416 
L 357.567755 278.430416 
L 357.567755 274.59802 
L 357.793684 274.59802 
L 357.793684 270.765624 
L 357.983771 270.765624 
L 358.011304 263.100832 
L 358.479686 263.100832 
L 358.479686 259.268436 
L 358.6008 259.268436 
L 358.6008 255.43604 
L 358.737015 255.43604 
L 358.822692 247.771248 
L 359.214837 247.771248 
L 359.214837 243.938851 
L 359.706054 243.938851 
L 359.706054 240.106455 
L 360.256326 240.106455 
L 360.256326 236.274059 
L 364.94623 236.274059 
L 364.94623 232.441663 
L 365.203292 232.441663 
L 365.203292 228.609267 
L 365.727655 228.609267 
L 365.727655 224.776871 
L 365.884516 224.776871 
L 365.884516 220.944475 
L 366.004525 220.944475 
L 366.004525 217.112079 
L 367.583543 217.112079 
L 367.592893 209.447287 
L 367.729783 209.447287 
L 367.729783 205.614891 
L 367.84826 205.614891 
L 367.84826 201.782495 
L 368.081734 201.782495 
L 368.081734 197.950099 
L 368.359189 197.950099 
L 368.359189 194.117703 
L 368.483193 194.117703 
L 368.483193 190.285307 
L 368.945365 190.285307 
L 368.945365 186.452911 
L 370.400667 186.452911 
L 370.400667 182.620515 
L 370.673401 182.620515 
L 370.673401 178.788119 
L 370.894899 178.788119 
L 370.894899 174.955723 
L 372.538034 174.955723 
L 372.538034 171.123327 
L 373.581629 171.123327 
L 373.581629 167.290931 
L 374.062263 167.290931 
L 374.062263 163.458535 
L 374.347341 163.458535 
L 374.355804 155.793743 
L 374.696084 155.793743 
L 374.696084 151.961347 
L 375.11103 151.961347 
L 375.11103 148.12895 
L 375.386905 148.12895 
L 375.394126 140.464158 
L 375.616338 140.464158 
L 375.616338 136.631762 
L 375.814902 136.631762 
L 375.814902 132.799366 
L 376.490885 132.799366 
L 376.490885 128.96697 
L 376.854892 128.96697 
L 376.854892 125.134574 
L 377.761802 125.134574 
L 377.761802 121.302178 
L 389.497116 121.302178 
L 389.497116 117.469782 
L 389.753093 117.469782 
L 389.753093 113.637386 
L 392.362515 113.637386 
L 392.362515 109.80499 
L 392.475802 109.80499 
L 392.475802 105.972594 
L 394.52379 105.972594 
L 394.52379 102.140198 
L 394.742391 102.140198 
L 394.742391 98.307802 
L 395.012741 98.307802 
L 395.08541 90.64301 
L 395.348124 90.64301 
L 395.429721 82.978218 
L 395.827448 82.978218 
L 395.827448 79.145822 
L 396.161901 79.145822 
L 396.161901 75.313426 
L 397.878994 75.313426 
L 397.878994 71.48103 
L 399.038336 71.48103 
L 399.038336 67.648634 
L 399.926906 67.648634 
L 400.030295 59.983842 
L 400.21597 59.983842 
L 400.240532 52.31905 
L 400.332721 52.31905 
L 400.332721 48.486653 
L 401.40865 48.486653 
L 401.40865 44.654257 
L 401.983498 44.654257 
L 402.021628 36.989465 
L 402.133919 36.989465 
L 402.211749 29.324673 
L 402.340157 29.324673 
L 402.340157 25.492277 
L 402.804232 25.492277 
L 402.804232 21.659881 
L 403.340177 21.659881 
L 403.439014 13.995089 
L 406.009495 13.995089 
L 406.009495 10.162693 
L 411.716402 10.162693 
L 411.716402 6.330297 
L 411.716402 6.330297 
L 460.8 6.330297 
L 460.8 6.330297 
" clip-path="url(#p510a0da19c)" style="fill: none; stroke: #f5deb3; stroke-width: 1.5; stroke-linecap: square"/>
   </g>
   <g id="line2d_20"/>
   <g id="matplotlib.axis_1">
    <g id="xtick_1">
     <g id="line2d_21">
      <path d="M 62.208 293.76 
L 62.208 3.456 
" clip-path="url(#p510a0da19c)" style="fill: none; stroke: #b0b0b0; stroke-width: 0.8; stroke-linecap: square"/>
     </g>
     <g id="line2d_22">
      <defs>
       <path id="mb743d53e1e" d="M 0 0 
L 0 3.5 
" style="stroke: #000000; stroke-width: 0.8"/>
      </defs>
      <g>
       <use xlink:href="#mb743d53e1e" x="62.208" y="293.76" style="stroke: #000000; stroke-width: 0.8"/>
      </g>
     </g>
     <g id="text_1">
      <!-- 0 -->
      <g transform="translate(55.8455 315.956875) scale(0.2 -0.2)">
       <defs>
        <path id="DejaVuSans-30" d="M 2034 4250 
Q 1547 4250 1301 3770 
Q 1056 3291 1056 2328 
Q 1056 1369 1301 889 
Q 1547 409 2034 409 
Q 2525 409 2770 889 
Q 3016 1369 3016 2328 
Q 3016 3291 2770 3770 
Q 2525 4250 2034 4250 
z
M 2034 4750 
Q 2819 4750 3233 4129 
Q 3647 3509 3647 2328 
Q 3647 1150 3233 529 
Q 2819 -91 2034 -91 
Q 1250 -91 836 529 
Q 422 1150 422 2328 
Q 422 3509 836 4129 
Q 1250 4750 2034 4750 
z
" transform="scale(0.015625)"/>
       </defs>
       <use xlink:href="#DejaVuSans-30"/>
      </g>
     </g>
    </g>
    <g id="xtick_2">
     <g id="line2d_23">
      <path d="M 251.989466 293.76 
L 251.989466 3.456 
" clip-path="url(#p510a0da19c)" style="fill: none; stroke: #b0b0b0; stroke-width: 0.8; stroke-linecap: square"/>
     </g>
     <g id="line2d_24">
      <g>
       <use xlink:href="#mb743d53e1e" x="251.989466" y="293.76" style="stroke: #000000; stroke-width: 0.8"/>
      </g>
     </g>
     <g id="text_2">
      <!-- 2 -->
      <g transform="translate(245.626966 315.956875) scale(0.2 -0.2)">
       <defs>
        <path id="DejaVuSans-32" d="M 1228 531 
L 3431 531 
L 3431 0 
L 469 0 
L 469 531 
Q 828 903 1448 1529 
Q 2069 2156 2228 2338 
Q 2531 2678 2651 2914 
Q 2772 3150 2772 3378 
Q 2772 3750 2511 3984 
Q 2250 4219 1831 4219 
Q 1534 4219 1204 4116 
Q 875 4013 500 3803 
L 500 4441 
Q 881 4594 1212 4672 
Q 1544 4750 1819 4750 
Q 2544 4750 2975 4387 
Q 3406 4025 3406 3419 
Q 3406 3131 3298 2873 
Q 3191 2616 2906 2266 
Q 2828 2175 2409 1742 
Q 1991 1309 1228 531 
z
" transform="scale(0.015625)"/>
       </defs>
       <use xlink:href="#DejaVuSans-32"/>
      </g>
     </g>
    </g>
    <g id="xtick_3">
     <g id="line2d_25">
      <path d="M 441.770932 293.76 
L 441.770932 3.456 
" clip-path="url(#p510a0da19c)" style="fill: none; stroke: #b0b0b0; stroke-width: 0.8; stroke-linecap: square"/>
     </g>
     <g id="line2d_26">
      <g>
       <use xlink:href="#mb743d53e1e" x="441.770932" y="293.76" style="stroke: #000000; stroke-width: 0.8"/>
      </g>
     </g>
     <g id="text_3">
      <!-- 4 -->
      <g transform="translate(435.408432 315.956875) scale(0.2 -0.2)">
       <defs>
        <path id="DejaVuSans-34" d="M 2419 4116 
L 825 1625 
L 2419 1625 
L 2419 4116 
z
M 2253 4666 
L 3047 4666 
L 3047 1625 
L 3713 1625 
L 3713 1100 
L 3047 1100 
L 3047 0 
L 2419 0 
L 2419 1100 
L 313 1100 
L 313 1709 
L 2253 4666 
z
" transform="scale(0.015625)"/>
       </defs>
       <use xlink:href="#DejaVuSans-34"/>
      </g>
     </g>
    </g>
    <g id="xtick_4">
     <g id="line2d_27">
      <path d="M 90.772957 293.76 
L 90.772957 3.456 
" clip-path="url(#p510a0da19c)" style="fill: none; stroke: #b0b0b0; stroke-width: 0.8; stroke-linecap: square"/>
     </g>
     <g id="line2d_28">
      <defs>
       <path id="m34353d097d" d="M 0 0 
L 0 2 
" style="stroke: #000000; stroke-width: 0.6"/>
      </defs>
      <g>
       <use xlink:href="#m34353d097d" x="90.772957" y="293.76" style="stroke: #000000; stroke-width: 0.6"/>
      </g>
     </g>
    </g>
    <g id="xtick_5">
     <g id="line2d_29">
      <path d="M 107.482386 293.76 
L 107.482386 3.456 
" clip-path="url(#p510a0da19c)" style="fill: none; stroke: #b0b0b0; stroke-width: 0.8; stroke-linecap: square"/>
     </g>
     <g id="line2d_30">
      <g>
       <use xlink:href="#m34353d097d" x="107.482386" y="293.76" style="stroke: #000000; stroke-width: 0.6"/>
      </g>
     </g>
    </g>
    <g id="xtick_6">
     <g id="line2d_31">
      <path d="M 119.337914 293.76 
L 119.337914 3.456 
" clip-path="url(#p510a0da19c)" style="fill: none; stroke: #b0b0b0; stroke-width: 0.8; stroke-linecap: square"/>
     </g>
     <g id="line2d_32">
      <g>
       <use xlink:href="#m34353d097d" x="119.337914" y="293.76" style="stroke: #000000; stroke-width: 0.6"/>
      </g>
     </g>
    </g>
    <g id="xtick_7">
     <g id="line2d_33">
      <path d="M 128.533776 293.76 
L 128.533776 3.456 
" clip-path="url(#p510a0da19c)" style="fill: none; stroke: #b0b0b0; stroke-width: 0.8; stroke-linecap: square"/>
     </g>
     <g id="line2d_34">
      <g>
       <use xlink:href="#m34353d097d" x="128.533776" y="293.76" style="stroke: #000000; stroke-width: 0.6"/>
      </g>
     </g>
    </g>
    <g id="xtick_8">
     <g id="line2d_35">
      <path d="M 136.047342 293.76 
L 136.047342 3.456 
" clip-path="url(#p510a0da19c)" style="fill: none; stroke: #b0b0b0; stroke-width: 0.8; stroke-linecap: square"/>
     </g>
     <g id="line2d_36">
      <g>
       <use xlink:href="#m34353d097d" x="136.047342" y="293.76" style="stroke: #000000; stroke-width: 0.6"/>
      </g>
     </g>
    </g>
    <g id="xtick_9">
     <g id="line2d_37">
      <path d="M 142.399972 293.76 
L 142.399972 3.456 
" clip-path="url(#p510a0da19c)" style="fill: none; stroke: #b0b0b0; stroke-width: 0.8; stroke-linecap: square"/>
     </g>
     <g id="line2d_38">
      <g>
       <use xlink:href="#m34353d097d" x="142.399972" y="293.76" style="stroke: #000000; stroke-width: 0.6"/>
      </g>
     </g>
    </g>
    <g id="xtick_10">
     <g id="line2d_39">
      <path d="M 147.902871 293.76 
L 147.902871 3.456 
" clip-path="url(#p510a0da19c)" style="fill: none; stroke: #b0b0b0; stroke-width: 0.8; stroke-linecap: square"/>
     </g>
     <g id="line2d_40">
      <g>
       <use xlink:href="#m34353d097d" x="147.902871" y="293.76" style="stroke: #000000; stroke-width: 0.6"/>
      </g>
     </g>
    </g>
    <g id="xtick_11">
     <g id="line2d_41">
      <path d="M 152.756771 293.76 
L 152.756771 3.456 
" clip-path="url(#p510a0da19c)" style="fill: none; stroke: #b0b0b0; stroke-width: 0.8; stroke-linecap: square"/>
     </g>
     <g id="line2d_42">
      <g>
       <use xlink:href="#m34353d097d" x="152.756771" y="293.76" style="stroke: #000000; stroke-width: 0.6"/>
      </g>
     </g>
    </g>
    <g id="xtick_12">
     <g id="line2d_43">
      <path d="M 185.66369 293.76 
L 185.66369 3.456 
" clip-path="url(#p510a0da19c)" style="fill: none; stroke: #b0b0b0; stroke-width: 0.8; stroke-linecap: square"/>
     </g>
     <g id="line2d_44">
      <g>
       <use xlink:href="#m34353d097d" x="185.66369" y="293.76" style="stroke: #000000; stroke-width: 0.6"/>
      </g>
     </g>
    </g>
    <g id="xtick_13">
     <g id="line2d_45">
      <path d="M 202.373118 293.76 
L 202.373118 3.456 
" clip-path="url(#p510a0da19c)" style="fill: none; stroke: #b0b0b0; stroke-width: 0.8; stroke-linecap: square"/>
     </g>
     <g id="line2d_46">
      <g>
       <use xlink:href="#m34353d097d" x="202.373118" y="293.76" style="stroke: #000000; stroke-width: 0.6"/>
      </g>
     </g>
    </g>
    <g id="xtick_14">
     <g id="line2d_47">
      <path d="M 214.228647 293.76 
L 214.228647 3.456 
" clip-path="url(#p510a0da19c)" style="fill: none; stroke: #b0b0b0; stroke-width: 0.8; stroke-linecap: square"/>
     </g>
     <g id="line2d_48">
      <g>
       <use xlink:href="#m34353d097d" x="214.228647" y="293.76" style="stroke: #000000; stroke-width: 0.6"/>
      </g>
     </g>
    </g>
    <g id="xtick_15">
     <g id="line2d_49">
      <path d="M 223.424509 293.76 
L 223.424509 3.456 
" clip-path="url(#p510a0da19c)" style="fill: none; stroke: #b0b0b0; stroke-width: 0.8; stroke-linecap: square"/>
     </g>
     <g id="line2d_50">
      <g>
       <use xlink:href="#m34353d097d" x="223.424509" y="293.76" style="stroke: #000000; stroke-width: 0.6"/>
      </g>
     </g>
    </g>
    <g id="xtick_16">
     <g id="line2d_51">
      <path d="M 230.938075 293.76 
L 230.938075 3.456 
" clip-path="url(#p510a0da19c)" style="fill: none; stroke: #b0b0b0; stroke-width: 0.8; stroke-linecap: square"/>
     </g>
     <g id="line2d_52">
      <g>
       <use xlink:href="#m34353d097d" x="230.938075" y="293.76" style="stroke: #000000; stroke-width: 0.6"/>
      </g>
     </g>
    </g>
    <g id="xtick_17">
     <g id="line2d_53">
      <path d="M 237.290705 293.76 
L 237.290705 3.456 
" clip-path="url(#p510a0da19c)" style="fill: none; stroke: #b0b0b0; stroke-width: 0.8; stroke-linecap: square"/>
     </g>
     <g id="line2d_54">
      <g>
       <use xlink:href="#m34353d097d" x="237.290705" y="293.76" style="stroke: #000000; stroke-width: 0.6"/>
      </g>
     </g>
    </g>
    <g id="xtick_18">
     <g id="line2d_55">
      <path d="M 242.793604 293.76 
L 242.793604 3.456 
" clip-path="url(#p510a0da19c)" style="fill: none; stroke: #b0b0b0; stroke-width: 0.8; stroke-linecap: square"/>
     </g>
     <g id="line2d_56">
      <g>
       <use xlink:href="#m34353d097d" x="242.793604" y="293.76" style="stroke: #000000; stroke-width: 0.6"/>
      </g>
     </g>
    </g>
    <g id="xtick_19">
     <g id="line2d_57">
      <path d="M 247.647504 293.76 
L 247.647504 3.456 
" clip-path="url(#p510a0da19c)" style="fill: none; stroke: #b0b0b0; stroke-width: 0.8; stroke-linecap: square"/>
     </g>
     <g id="line2d_58">
      <g>
       <use xlink:href="#m34353d097d" x="247.647504" y="293.76" style="stroke: #000000; stroke-width: 0.6"/>
      </g>
     </g>
    </g>
    <g id="xtick_20">
     <g id="line2d_59">
      <path d="M 280.554423 293.76 
L 280.554423 3.456 
" clip-path="url(#p510a0da19c)" style="fill: none; stroke: #b0b0b0; stroke-width: 0.8; stroke-linecap: square"/>
     </g>
     <g id="line2d_60">
      <g>
       <use xlink:href="#m34353d097d" x="280.554423" y="293.76" style="stroke: #000000; stroke-width: 0.6"/>
      </g>
     </g>
    </g>
    <g id="xtick_21">
     <g id="line2d_61">
      <path d="M 297.263851 293.76 
L 297.263851 3.456 
" clip-path="url(#p510a0da19c)" style="fill: none; stroke: #b0b0b0; stroke-width: 0.8; stroke-linecap: square"/>
     </g>
     <g id="line2d_62">
      <g>
       <use xlink:href="#m34353d097d" x="297.263851" y="293.76" style="stroke: #000000; stroke-width: 0.6"/>
      </g>
     </g>
    </g>
    <g id="xtick_22">
     <g id="line2d_63">
      <path d="M 309.11938 293.76 
L 309.11938 3.456 
" clip-path="url(#p510a0da19c)" style="fill: none; stroke: #b0b0b0; stroke-width: 0.8; stroke-linecap: square"/>
     </g>
     <g id="line2d_64">
      <g>
       <use xlink:href="#m34353d097d" x="309.11938" y="293.76" style="stroke: #000000; stroke-width: 0.6"/>
      </g>
     </g>
    </g>
    <g id="xtick_23">
     <g id="line2d_65">
      <path d="M 318.315242 293.76 
L 318.315242 3.456 
" clip-path="url(#p510a0da19c)" style="fill: none; stroke: #b0b0b0; stroke-width: 0.8; stroke-linecap: square"/>
     </g>
     <g id="line2d_66">
      <g>
       <use xlink:href="#m34353d097d" x="318.315242" y="293.76" style="stroke: #000000; stroke-width: 0.6"/>
      </g>
     </g>
    </g>
    <g id="xtick_24">
     <g id="line2d_67">
      <path d="M 325.828808 293.76 
L 325.828808 3.456 
" clip-path="url(#p510a0da19c)" style="fill: none; stroke: #b0b0b0; stroke-width: 0.8; stroke-linecap: square"/>
     </g>
     <g id="line2d_68">
      <g>
       <use xlink:href="#m34353d097d" x="325.828808" y="293.76" style="stroke: #000000; stroke-width: 0.6"/>
      </g>
     </g>
    </g>
    <g id="xtick_25">
     <g id="line2d_69">
      <path d="M 332.181438 293.76 
L 332.181438 3.456 
" clip-path="url(#p510a0da19c)" style="fill: none; stroke: #b0b0b0; stroke-width: 0.8; stroke-linecap: square"/>
     </g>
     <g id="line2d_70">
      <g>
       <use xlink:href="#m34353d097d" x="332.181438" y="293.76" style="stroke: #000000; stroke-width: 0.6"/>
      </g>
     </g>
    </g>
    <g id="xtick_26">
     <g id="line2d_71">
      <path d="M 337.684337 293.76 
L 337.684337 3.456 
" clip-path="url(#p510a0da19c)" style="fill: none; stroke: #b0b0b0; stroke-width: 0.8; stroke-linecap: square"/>
     </g>
     <g id="line2d_72">
      <g>
       <use xlink:href="#m34353d097d" x="337.684337" y="293.76" style="stroke: #000000; stroke-width: 0.6"/>
      </g>
     </g>
    </g>
    <g id="xtick_27">
     <g id="line2d_73">
      <path d="M 342.538237 293.76 
L 342.538237 3.456 
" clip-path="url(#p510a0da19c)" style="fill: none; stroke: #b0b0b0; stroke-width: 0.8; stroke-linecap: square"/>
     </g>
     <g id="line2d_74">
      <g>
       <use xlink:href="#m34353d097d" x="342.538237" y="293.76" style="stroke: #000000; stroke-width: 0.6"/>
      </g>
     </g>
    </g>
    <g id="xtick_28">
     <g id="line2d_75">
      <path d="M 375.445156 293.76 
L 375.445156 3.456 
" clip-path="url(#p510a0da19c)" style="fill: none; stroke: #b0b0b0; stroke-width: 0.8; stroke-linecap: square"/>
     </g>
     <g id="line2d_76">
      <g>
       <use xlink:href="#m34353d097d" x="375.445156" y="293.76" style="stroke: #000000; stroke-width: 0.6"/>
      </g>
     </g>
    </g>
    <g id="xtick_29">
     <g id="line2d_77">
      <path d="M 392.154584 293.76 
L 392.154584 3.456 
" clip-path="url(#p510a0da19c)" style="fill: none; stroke: #b0b0b0; stroke-width: 0.8; stroke-linecap: square"/>
     </g>
     <g id="line2d_78">
      <g>
       <use xlink:href="#m34353d097d" x="392.154584" y="293.76" style="stroke: #000000; stroke-width: 0.6"/>
      </g>
     </g>
    </g>
    <g id="xtick_30">
     <g id="line2d_79">
      <path d="M 404.010113 293.76 
L 404.010113 3.456 
" clip-path="url(#p510a0da19c)" style="fill: none; stroke: #b0b0b0; stroke-width: 0.8; stroke-linecap: square"/>
     </g>
     <g id="line2d_80">
      <g>
       <use xlink:href="#m34353d097d" x="404.010113" y="293.76" style="stroke: #000000; stroke-width: 0.6"/>
      </g>
     </g>
    </g>
    <g id="xtick_31">
     <g id="line2d_81">
      <path d="M 413.205975 293.76 
L 413.205975 3.456 
" clip-path="url(#p510a0da19c)" style="fill: none; stroke: #b0b0b0; stroke-width: 0.8; stroke-linecap: square"/>
     </g>
     <g id="line2d_82">
      <g>
       <use xlink:href="#m34353d097d" x="413.205975" y="293.76" style="stroke: #000000; stroke-width: 0.6"/>
      </g>
     </g>
    </g>
    <g id="xtick_32">
     <g id="line2d_83">
      <path d="M 420.719541 293.76 
L 420.719541 3.456 
" clip-path="url(#p510a0da19c)" style="fill: none; stroke: #b0b0b0; stroke-width: 0.8; stroke-linecap: square"/>
     </g>
     <g id="line2d_84">
      <g>
       <use xlink:href="#m34353d097d" x="420.719541" y="293.76" style="stroke: #000000; stroke-width: 0.6"/>
      </g>
     </g>
    </g>
    <g id="xtick_33">
     <g id="line2d_85">
      <path d="M 427.072171 293.76 
L 427.072171 3.456 
" clip-path="url(#p510a0da19c)" style="fill: none; stroke: #b0b0b0; stroke-width: 0.8; stroke-linecap: square"/>
     </g>
     <g id="line2d_86">
      <g>
       <use xlink:href="#m34353d097d" x="427.072171" y="293.76" style="stroke: #000000; stroke-width: 0.6"/>
      </g>
     </g>
    </g>
    <g id="xtick_34">
     <g id="line2d_87">
      <path d="M 432.57507 293.76 
L 432.57507 3.456 
" clip-path="url(#p510a0da19c)" style="fill: none; stroke: #b0b0b0; stroke-width: 0.8; stroke-linecap: square"/>
     </g>
     <g id="line2d_88">
      <g>
       <use xlink:href="#m34353d097d" x="432.57507" y="293.76" style="stroke: #000000; stroke-width: 0.6"/>
      </g>
     </g>
    </g>
    <g id="xtick_35">
     <g id="line2d_89">
      <path d="M 437.42897 293.76 
L 437.42897 3.456 
" clip-path="url(#p510a0da19c)" style="fill: none; stroke: #b0b0b0; stroke-width: 0.8; stroke-linecap: square"/>
     </g>
     <g id="line2d_90">
      <g>
       <use xlink:href="#m34353d097d" x="437.42897" y="293.76" style="stroke: #000000; stroke-width: 0.6"/>
      </g>
     </g>
    </g>
    <g id="text_4">
     <!-- log10 of FEvals / DIM -->
     <g transform="translate(156.430563 339.313125) scale(0.2 -0.2)">
      <defs>
       <path id="DejaVuSans-6c" d="M 603 4863 
L 1178 4863 
L 1178 0 
L 603 0 
L 603 4863 
z
" transform="scale(0.015625)"/>
       <path id="DejaVuSans-6f" d="M 1959 3097 
Q 1497 3097 1228 2736 
Q 959 2375 959 1747 
Q 959 1119 1226 758 
Q 1494 397 1959 397 
Q 2419 397 2687 759 
Q 2956 1122 2956 1747 
Q 2956 2369 2687 2733 
Q 2419 3097 1959 3097 
z
M 1959 3584 
Q 2709 3584 3137 3096 
Q 3566 2609 3566 1747 
Q 3566 888 3137 398 
Q 2709 -91 1959 -91 
Q 1206 -91 779 398 
Q 353 888 353 1747 
Q 353 2609 779 3096 
Q 1206 3584 1959 3584 
z
" transform="scale(0.015625)"/>
       <path id="DejaVuSans-67" d="M 2906 1791 
Q 2906 2416 2648 2759 
Q 2391 3103 1925 3103 
Q 1463 3103 1205 2759 
Q 947 2416 947 1791 
Q 947 1169 1205 825 
Q 1463 481 1925 481 
Q 2391 481 2648 825 
Q 2906 1169 2906 1791 
z
M 3481 434 
Q 3481 -459 3084 -895 
Q 2688 -1331 1869 -1331 
Q 1566 -1331 1297 -1286 
Q 1028 -1241 775 -1147 
L 775 -588 
Q 1028 -725 1275 -790 
Q 1522 -856 1778 -856 
Q 2344 -856 2625 -561 
Q 2906 -266 2906 331 
L 2906 616 
Q 2728 306 2450 153 
Q 2172 0 1784 0 
Q 1141 0 747 490 
Q 353 981 353 1791 
Q 353 2603 747 3093 
Q 1141 3584 1784 3584 
Q 2172 3584 2450 3431 
Q 2728 3278 2906 2969 
L 2906 3500 
L 3481 3500 
L 3481 434 
z
" transform="scale(0.015625)"/>
       <path id="DejaVuSans-31" d="M 794 531 
L 1825 531 
L 1825 4091 
L 703 3866 
L 703 4441 
L 1819 4666 
L 2450 4666 
L 2450 531 
L 3481 531 
L 3481 0 
L 794 0 
L 794 531 
z
" transform="scale(0.015625)"/>
       <path id="DejaVuSans-20" transform="scale(0.015625)"/>
       <path id="DejaVuSans-66" d="M 2375 4863 
L 2375 4384 
L 1825 4384 
Q 1516 4384 1395 4259 
Q 1275 4134 1275 3809 
L 1275 3500 
L 2222 3500 
L 2222 3053 
L 1275 3053 
L 1275 0 
L 697 0 
L 697 3053 
L 147 3053 
L 147 3500 
L 697 3500 
L 697 3744 
Q 697 4328 969 4595 
Q 1241 4863 1831 4863 
L 2375 4863 
z
" transform="scale(0.015625)"/>
       <path id="DejaVuSans-46" d="M 628 4666 
L 3309 4666 
L 3309 4134 
L 1259 4134 
L 1259 2759 
L 3109 2759 
L 3109 2228 
L 1259 2228 
L 1259 0 
L 628 0 
L 628 4666 
z
" transform="scale(0.015625)"/>
       <path id="DejaVuSans-45" d="M 628 4666 
L 3578 4666 
L 3578 4134 
L 1259 4134 
L 1259 2753 
L 3481 2753 
L 3481 2222 
L 1259 2222 
L 1259 531 
L 3634 531 
L 3634 0 
L 628 0 
L 628 4666 
z
" transform="scale(0.015625)"/>
       <path id="DejaVuSans-76" d="M 191 3500 
L 800 3500 
L 1894 563 
L 2988 3500 
L 3597 3500 
L 2284 0 
L 1503 0 
L 191 3500 
z
" transform="scale(0.015625)"/>
       <path id="DejaVuSans-61" d="M 2194 1759 
Q 1497 1759 1228 1600 
Q 959 1441 959 1056 
Q 959 750 1161 570 
Q 1363 391 1709 391 
Q 2188 391 2477 730 
Q 2766 1069 2766 1631 
L 2766 1759 
L 2194 1759 
z
M 3341 1997 
L 3341 0 
L 2766 0 
L 2766 531 
Q 2569 213 2275 61 
Q 1981 -91 1556 -91 
Q 1019 -91 701 211 
Q 384 513 384 1019 
Q 384 1609 779 1909 
Q 1175 2209 1959 2209 
L 2766 2209 
L 2766 2266 
Q 2766 2663 2505 2880 
Q 2244 3097 1772 3097 
Q 1472 3097 1187 3025 
Q 903 2953 641 2809 
L 641 3341 
Q 956 3463 1253 3523 
Q 1550 3584 1831 3584 
Q 2591 3584 2966 3190 
Q 3341 2797 3341 1997 
z
" transform="scale(0.015625)"/>
       <path id="DejaVuSans-73" d="M 2834 3397 
L 2834 2853 
Q 2591 2978 2328 3040 
Q 2066 3103 1784 3103 
Q 1356 3103 1142 2972 
Q 928 2841 928 2578 
Q 928 2378 1081 2264 
Q 1234 2150 1697 2047 
L 1894 2003 
Q 2506 1872 2764 1633 
Q 3022 1394 3022 966 
Q 3022 478 2636 193 
Q 2250 -91 1575 -91 
Q 1294 -91 989 -36 
Q 684 19 347 128 
L 347 722 
Q 666 556 975 473 
Q 1284 391 1588 391 
Q 1994 391 2212 530 
Q 2431 669 2431 922 
Q 2431 1156 2273 1281 
Q 2116 1406 1581 1522 
L 1381 1569 
Q 847 1681 609 1914 
Q 372 2147 372 2553 
Q 372 3047 722 3315 
Q 1072 3584 1716 3584 
Q 2034 3584 2315 3537 
Q 2597 3491 2834 3397 
z
" transform="scale(0.015625)"/>
       <path id="DejaVuSans-2f" d="M 1625 4666 
L 2156 4666 
L 531 -594 
L 0 -594 
L 1625 4666 
z
" transform="scale(0.015625)"/>
       <path id="DejaVuSans-44" d="M 1259 4147 
L 1259 519 
L 2022 519 
Q 2988 519 3436 956 
Q 3884 1394 3884 2338 
Q 3884 3275 3436 3711 
Q 2988 4147 2022 4147 
L 1259 4147 
z
M 628 4666 
L 1925 4666 
Q 3281 4666 3915 4102 
Q 4550 3538 4550 2338 
Q 4550 1131 3912 565 
Q 3275 0 1925 0 
L 628 0 
L 628 4666 
z
" transform="scale(0.015625)"/>
       <path id="DejaVuSans-49" d="M 628 4666 
L 1259 4666 
L 1259 0 
L 628 0 
L 628 4666 
z
" transform="scale(0.015625)"/>
       <path id="DejaVuSans-4d" d="M 628 4666 
L 1569 4666 
L 2759 1491 
L 3956 4666 
L 4897 4666 
L 4897 0 
L 4281 0 
L 4281 4097 
L 3078 897 
L 2444 897 
L 1241 4097 
L 1241 0 
L 628 0 
L 628 4666 
z
" transform="scale(0.015625)"/>
      </defs>
      <use xlink:href="#DejaVuSans-6c"/>
      <use xlink:href="#DejaVuSans-6f" x="27.783203"/>
      <use xlink:href="#DejaVuSans-67" x="88.964844"/>
      <use xlink:href="#DejaVuSans-31" x="152.441406"/>
      <use xlink:href="#DejaVuSans-30" x="216.064453"/>
      <use xlink:href="#DejaVuSans-20" x="279.6875"/>
      <use xlink:href="#DejaVuSans-6f" x="311.474609"/>
      <use xlink:href="#DejaVuSans-66" x="372.65625"/>
      <use xlink:href="#DejaVuSans-20" x="407.861328"/>
      <use xlink:href="#DejaVuSans-46" x="439.648438"/>
      <use xlink:href="#DejaVuSans-45" x="497.167969"/>
      <use xlink:href="#DejaVuSans-76" x="560.351562"/>
      <use xlink:href="#DejaVuSans-61" x="619.53125"/>
      <use xlink:href="#DejaVuSans-6c" x="680.810547"/>
      <use xlink:href="#DejaVuSans-73" x="708.59375"/>
      <use xlink:href="#DejaVuSans-20" x="760.693359"/>
      <use xlink:href="#DejaVuSans-2f" x="792.480469"/>
      <use xlink:href="#DejaVuSans-20" x="826.171875"/>
      <use xlink:href="#DejaVuSans-44" x="857.958984"/>
      <use xlink:href="#DejaVuSans-49" x="934.960938"/>
      <use xlink:href="#DejaVuSans-4d" x="964.453125"/>
     </g>
    </g>
   </g>
   <g id="matplotlib.axis_2">
    <g id="ytick_1">
     <g id="line2d_91">
      <path d="M 62.208 293.76 
L 460.8 293.76 
" clip-path="url(#p510a0da19c)" style="fill: none; stroke: #b0b0b0; stroke-width: 0.8; stroke-linecap: square"/>
     </g>
     <g id="line2d_92">
      <defs>
       <path id="mffbd8f89e2" d="M 0 0 
L -3.5 0 
" style="stroke: #000000; stroke-width: 0.8"/>
      </defs>
      <g>
       <use xlink:href="#mffbd8f89e2" x="62.208" y="293.76" style="stroke: #000000; stroke-width: 0.8"/>
      </g>
     </g>
     <g id="text_5">
      <!-- 0.0 -->
      <g transform="translate(29.763 299.83875) scale(0.16 -0.16)">
       <defs>
        <path id="DejaVuSans-2e" d="M 684 794 
L 1344 794 
L 1344 0 
L 684 0 
L 684 794 
z
" transform="scale(0.015625)"/>
       </defs>
       <use xlink:href="#DejaVuSans-30"/>
       <use xlink:href="#DejaVuSans-2e" x="63.623047"/>
       <use xlink:href="#DejaVuSans-30" x="95.410156"/>
      </g>
     </g>
    </g>
    <g id="ytick_2">
     <g id="line2d_93">
      <path d="M 62.208 236.274059 
L 460.8 236.274059 
" clip-path="url(#p510a0da19c)" style="fill: none; stroke: #b0b0b0; stroke-width: 0.8; stroke-linecap: square"/>
     </g>
     <g id="line2d_94">
      <g>
       <use xlink:href="#mffbd8f89e2" x="62.208" y="236.274059" style="stroke: #000000; stroke-width: 0.8"/>
      </g>
     </g>
     <g id="text_6">
      <!-- 0.2 -->
      <g transform="translate(29.763 242.352809) scale(0.16 -0.16)">
       <use xlink:href="#DejaVuSans-30"/>
       <use xlink:href="#DejaVuSans-2e" x="63.623047"/>
       <use xlink:href="#DejaVuSans-32" x="95.410156"/>
      </g>
     </g>
    </g>
    <g id="ytick_3">
     <g id="line2d_95">
      <path d="M 62.208 178.788119 
L 460.8 178.788119 
" clip-path="url(#p510a0da19c)" style="fill: none; stroke: #b0b0b0; stroke-width: 0.8; stroke-linecap: square"/>
     </g>
     <g id="line2d_96">
      <g>
       <use xlink:href="#mffbd8f89e2" x="62.208" y="178.788119" style="stroke: #000000; stroke-width: 0.8"/>
      </g>
     </g>
     <g id="text_7">
      <!-- 0.4 -->
      <g transform="translate(29.763 184.866869) scale(0.16 -0.16)">
       <use xlink:href="#DejaVuSans-30"/>
       <use xlink:href="#DejaVuSans-2e" x="63.623047"/>
       <use xlink:href="#DejaVuSans-34" x="95.410156"/>
      </g>
     </g>
    </g>
    <g id="ytick_4">
     <g id="line2d_97">
      <path d="M 62.208 121.302178 
L 460.8 121.302178 
" clip-path="url(#p510a0da19c)" style="fill: none; stroke: #b0b0b0; stroke-width: 0.8; stroke-linecap: square"/>
     </g>
     <g id="line2d_98">
      <g>
       <use xlink:href="#mffbd8f89e2" x="62.208" y="121.302178" style="stroke: #000000; stroke-width: 0.8"/>
      </g>
     </g>
     <g id="text_8">
      <!-- 0.6 -->
      <g transform="translate(29.763 127.380928) scale(0.16 -0.16)">
       <defs>
        <path id="DejaVuSans-36" d="M 2113 2584 
Q 1688 2584 1439 2293 
Q 1191 2003 1191 1497 
Q 1191 994 1439 701 
Q 1688 409 2113 409 
Q 2538 409 2786 701 
Q 3034 994 3034 1497 
Q 3034 2003 2786 2293 
Q 2538 2584 2113 2584 
z
M 3366 4563 
L 3366 3988 
Q 3128 4100 2886 4159 
Q 2644 4219 2406 4219 
Q 1781 4219 1451 3797 
Q 1122 3375 1075 2522 
Q 1259 2794 1537 2939 
Q 1816 3084 2150 3084 
Q 2853 3084 3261 2657 
Q 3669 2231 3669 1497 
Q 3669 778 3244 343 
Q 2819 -91 2113 -91 
Q 1303 -91 875 529 
Q 447 1150 447 2328 
Q 447 3434 972 4092 
Q 1497 4750 2381 4750 
Q 2619 4750 2861 4703 
Q 3103 4656 3366 4563 
z
" transform="scale(0.015625)"/>
       </defs>
       <use xlink:href="#DejaVuSans-30"/>
       <use xlink:href="#DejaVuSans-2e" x="63.623047"/>
       <use xlink:href="#DejaVuSans-36" x="95.410156"/>
      </g>
     </g>
    </g>
    <g id="ytick_5">
     <g id="line2d_99">
      <path d="M 62.208 63.816238 
L 460.8 63.816238 
" clip-path="url(#p510a0da19c)" style="fill: none; stroke: #b0b0b0; stroke-width: 0.8; stroke-linecap: square"/>
     </g>
     <g id="line2d_100">
      <g>
       <use xlink:href="#mffbd8f89e2" x="62.208" y="63.816238" style="stroke: #000000; stroke-width: 0.8"/>
      </g>
     </g>
     <g id="text_9">
      <!-- 0.8 -->
      <g transform="translate(29.763 69.894988) scale(0.16 -0.16)">
       <defs>
        <path id="DejaVuSans-38" d="M 2034 2216 
Q 1584 2216 1326 1975 
Q 1069 1734 1069 1313 
Q 1069 891 1326 650 
Q 1584 409 2034 409 
Q 2484 409 2743 651 
Q 3003 894 3003 1313 
Q 3003 1734 2745 1975 
Q 2488 2216 2034 2216 
z
M 1403 2484 
Q 997 2584 770 2862 
Q 544 3141 544 3541 
Q 544 4100 942 4425 
Q 1341 4750 2034 4750 
Q 2731 4750 3128 4425 
Q 3525 4100 3525 3541 
Q 3525 3141 3298 2862 
Q 3072 2584 2669 2484 
Q 3125 2378 3379 2068 
Q 3634 1759 3634 1313 
Q 3634 634 3220 271 
Q 2806 -91 2034 -91 
Q 1263 -91 848 271 
Q 434 634 434 1313 
Q 434 1759 690 2068 
Q 947 2378 1403 2484 
z
M 1172 3481 
Q 1172 3119 1398 2916 
Q 1625 2713 2034 2713 
Q 2441 2713 2670 2916 
Q 2900 3119 2900 3481 
Q 2900 3844 2670 4047 
Q 2441 4250 2034 4250 
Q 1625 4250 1398 4047 
Q 1172 3844 1172 3481 
z
" transform="scale(0.015625)"/>
       </defs>
       <use xlink:href="#DejaVuSans-30"/>
       <use xlink:href="#DejaVuSans-2e" x="63.623047"/>
       <use xlink:href="#DejaVuSans-38" x="95.410156"/>
      </g>
     </g>
    </g>
    <g id="ytick_6">
     <g id="line2d_101">
      <path d="M 62.208 6.330297 
L 460.8 6.330297 
" clip-path="url(#p510a0da19c)" style="fill: none; stroke: #b0b0b0; stroke-width: 0.8; stroke-linecap: square"/>
     </g>
     <g id="line2d_102">
      <g>
       <use xlink:href="#mffbd8f89e2" x="62.208" y="6.330297" style="stroke: #000000; stroke-width: 0.8"/>
      </g>
     </g>
     <g id="text_10">
      <!-- 1.0 -->
      <g transform="translate(29.763 12.409047) scale(0.16 -0.16)">
       <use xlink:href="#DejaVuSans-31"/>
       <use xlink:href="#DejaVuSans-2e" x="63.623047"/>
       <use xlink:href="#DejaVuSans-30" x="95.410156"/>
      </g>
     </g>
    </g>
    <g id="text_11">
     <!-- proportion of trials -->
     <g transform="translate(21.603625 241.61425) rotate(-90) scale(0.2 -0.2)">
      <defs>
       <path id="DejaVuSans-70" d="M 1159 525 
L 1159 -1331 
L 581 -1331 
L 581 3500 
L 1159 3500 
L 1159 2969 
Q 1341 3281 1617 3432 
Q 1894 3584 2278 3584 
Q 2916 3584 3314 3078 
Q 3713 2572 3713 1747 
Q 3713 922 3314 415 
Q 2916 -91 2278 -91 
Q 1894 -91 1617 61 
Q 1341 213 1159 525 
z
M 3116 1747 
Q 3116 2381 2855 2742 
Q 2594 3103 2138 3103 
Q 1681 3103 1420 2742 
Q 1159 2381 1159 1747 
Q 1159 1113 1420 752 
Q 1681 391 2138 391 
Q 2594 391 2855 752 
Q 3116 1113 3116 1747 
z
" transform="scale(0.015625)"/>
       <path id="DejaVuSans-72" d="M 2631 2963 
Q 2534 3019 2420 3045 
Q 2306 3072 2169 3072 
Q 1681 3072 1420 2755 
Q 1159 2438 1159 1844 
L 1159 0 
L 581 0 
L 581 3500 
L 1159 3500 
L 1159 2956 
Q 1341 3275 1631 3429 
Q 1922 3584 2338 3584 
Q 2397 3584 2469 3576 
Q 2541 3569 2628 3553 
L 2631 2963 
z
" transform="scale(0.015625)"/>
       <path id="DejaVuSans-74" d="M 1172 4494 
L 1172 3500 
L 2356 3500 
L 2356 3053 
L 1172 3053 
L 1172 1153 
Q 1172 725 1289 603 
Q 1406 481 1766 481 
L 2356 481 
L 2356 0 
L 1766 0 
Q 1100 0 847 248 
Q 594 497 594 1153 
L 594 3053 
L 172 3053 
L 172 3500 
L 594 3500 
L 594 4494 
L 1172 4494 
z
" transform="scale(0.015625)"/>
       <path id="DejaVuSans-69" d="M 603 3500 
L 1178 3500 
L 1178 0 
L 603 0 
L 603 3500 
z
M 603 4863 
L 1178 4863 
L 1178 4134 
L 603 4134 
L 603 4863 
z
" transform="scale(0.015625)"/>
       <path id="DejaVuSans-6e" d="M 3513 2113 
L 3513 0 
L 2938 0 
L 2938 2094 
Q 2938 2591 2744 2837 
Q 2550 3084 2163 3084 
Q 1697 3084 1428 2787 
Q 1159 2491 1159 1978 
L 1159 0 
L 581 0 
L 581 3500 
L 1159 3500 
L 1159 2956 
Q 1366 3272 1645 3428 
Q 1925 3584 2291 3584 
Q 2894 3584 3203 3211 
Q 3513 2838 3513 2113 
z
" transform="scale(0.015625)"/>
      </defs>
      <use xlink:href="#DejaVuSans-70"/>
      <use xlink:href="#DejaVuSans-72" x="63.476562"/>
      <use xlink:href="#DejaVuSans-6f" x="102.339844"/>
      <use xlink:href="#DejaVuSans-70" x="163.521484"/>
      <use xlink:href="#DejaVuSans-6f" x="226.998047"/>
      <use xlink:href="#DejaVuSans-72" x="288.179688"/>
      <use xlink:href="#DejaVuSans-74" x="329.292969"/>
      <use xlink:href="#DejaVuSans-69" x="368.501953"/>
      <use xlink:href="#DejaVuSans-6f" x="396.285156"/>
      <use xlink:href="#DejaVuSans-6e" x="457.466797"/>
      <use xlink:href="#DejaVuSans-20" x="520.845703"/>
      <use xlink:href="#DejaVuSans-6f" x="552.632812"/>
      <use xlink:href="#DejaVuSans-66" x="613.814453"/>
      <use xlink:href="#DejaVuSans-20" x="649.019531"/>
      <use xlink:href="#DejaVuSans-74" x="680.806641"/>
      <use xlink:href="#DejaVuSans-72" x="720.015625"/>
      <use xlink:href="#DejaVuSans-69" x="761.128906"/>
      <use xlink:href="#DejaVuSans-61" x="788.912109"/>
      <use xlink:href="#DejaVuSans-6c" x="850.191406"/>
      <use xlink:href="#DejaVuSans-73" x="877.974609"/>
     </g>
    </g>
   </g>
   <g id="line2d_103">
    <path d="M 18.944283 293.76 
L 18.944283 282.262812 
L 47.509239 282.262812 
L 47.509239 270.765624 
L 47.509239 270.765624 
L 47.509239 259.268436 
L 72.219939 259.268436 
L 72.219939 247.771248 
L 128.327207 247.771248 
L 128.327207 236.274059 
L 160.365622 236.274059 
L 160.365622 224.776871 
L 175.753364 224.776871 
L 175.753364 213.279683 
L 179.08723 213.279683 
L 179.08723 201.782495 
L 179.328227 201.782495 
L 179.328227 190.285307 
L 193.90064 190.285307 
L 193.90064 178.788119 
L 221.527014 178.788119 
L 221.527014 167.290931 
L 241.921597 167.290931 
L 241.921597 155.793743 
L 252.542086 155.793743 
L 252.542086 144.296554 
L 261.831364 144.296554 
L 261.831364 132.799366 
L 264.334032 132.799366 
L 264.334032 121.302178 
L 266.127051 121.302178 
L 266.127051 109.80499 
L 275.022078 109.80499 
L 275.022078 98.307802 
L 281.612204 98.307802 
L 281.612204 86.810614 
L 301.740557 86.810614 
L 301.740557 75.313426 
L 384.41332 75.313426 
L 384.41332 63.816238 
L 384.41332 63.816238 
L 384.41332 63.816238 
L 460.8 63.816238 
" clip-path="url(#p510a0da19c)" style="fill: none; stroke: #000000; stroke-width: 1.5; stroke-linecap: square"/>
   </g>
   <g id="line2d_104">
    <defs>
     <path id="m0404a9612d" d="M 0 14.142136 
L 8.485281 0 
L 0 -14.142136 
L -8.485281 0 
z
" style="stroke: #000000; stroke-width: 1.5; stroke-linejoin: miter"/>
    </defs>
    <g clip-path="url(#p510a0da19c)">
     <use xlink:href="#m0404a9612d" x="72.219939" y="259.268436" style="fill-opacity: 0; stroke: #000000; stroke-width: 1.5; stroke-linejoin: miter"/>
     <use xlink:href="#m0404a9612d" x="193.90064" y="190.285307" style="fill-opacity: 0; stroke: #000000; stroke-width: 1.5; stroke-linejoin: miter"/>
     <use xlink:href="#m0404a9612d" x="261.831364" y="144.296554" style="fill-opacity: 0; stroke: #000000; stroke-width: 1.5; stroke-linejoin: miter"/>
     <use xlink:href="#m0404a9612d" x="281.612204" y="98.307802" style="fill-opacity: 0; stroke: #000000; stroke-width: 1.5; stroke-linejoin: miter"/>
     <use xlink:href="#m0404a9612d" x="384.41332" y="75.313426" style="fill-opacity: 0; stroke: #000000; stroke-width: 1.5; stroke-linejoin: miter"/>
     <use xlink:href="#m0404a9612d" x="384.41332" y="63.816238" style="fill-opacity: 0; stroke: #000000; stroke-width: 1.5; stroke-linejoin: miter"/>
    </g>
   </g>
   <g id="line2d_105">
    <path clip-path="url(#p510a0da19c)" style="fill: none; stroke: #000000; stroke-width: 1.5; stroke-linecap: square"/>
    <g clip-path="url(#p510a0da19c)">
     <use xlink:href="#m0404a9612d" x="-1" y="581.189703" style="fill-opacity: 0; stroke: #000000; stroke-width: 1.5; stroke-linejoin: miter"/>
     <use xlink:href="#m0404a9612d" x="460.8" y="581.189703" style="fill-opacity: 0; stroke: #000000; stroke-width: 1.5; stroke-linejoin: miter"/>
    </g>
   </g>
   <g id="line2d_106">
    <path d="M -1 289.927604 
L 35.653711 289.927604 
L 35.653711 286.095208 
L 41.15661 286.095208 
L 41.15661 282.262812 
L 47.509239 282.262812 
L 47.509239 278.430416 
L 62.208 278.430416 
L 62.208 274.59802 
L 77.520328 274.59802 
L 77.520328 270.765624 
L 85.270059 270.765624 
L 85.270059 266.933228 
L 96.532619 266.933228 
L 96.532619 263.100832 
L 102.370111 263.100832 
L 102.370111 259.268436 
L 107.824384 259.268436 
L 107.824384 255.43604 
L 110.462758 255.43604 
L 110.462758 247.771248 
L 126.419953 247.771248 
L 126.419953 243.938851 
L 126.636281 243.938851 
L 126.636281 240.106455 
L 138.221221 240.106455 
L 138.221221 236.274059 
L 157.508791 236.274059 
L 157.508791 232.441663 
L 164.093921 232.441663 
L 164.093921 228.609267 
L 166.622968 228.609267 
L 166.622968 224.776871 
L 166.867541 224.776871 
L 166.867541 220.944475 
L 172.905452 220.944475 
L 172.905452 217.112079 
L 175.62212 217.112079 
L 175.62212 213.279683 
L 177.23337 213.279683 
L 177.23337 209.447287 
L 179.627506 209.447287 
L 179.627506 205.614891 
L 179.983795 205.614891 
L 179.983795 201.782495 
L 183.277849 201.782495 
L 183.277849 197.950099 
L 184.778528 197.950099 
L 184.778528 194.117703 
L 188.78757 194.117703 
L 188.78757 190.285307 
L 190.195811 190.285307 
L 190.195811 186.452911 
L 191.378534 186.452911 
L 191.378534 182.620515 
L 193.177256 182.620515 
L 193.177256 178.788119 
L 214.434186 178.788119 
L 214.434186 174.955723 
L 217.850903 174.955723 
L 217.850903 171.123327 
L 219.013806 171.123327 
L 219.013806 167.290931 
L 223.217939 167.290931 
L 223.217939 163.458535 
L 225.552754 163.458535 
L 225.552754 159.626139 
L 226.462344 159.626139 
L 226.462344 155.793743 
L 228.131622 155.793743 
L 228.131622 151.961347 
L 231.551643 151.961347 
L 231.551643 148.12895 
L 243.229156 148.12895 
L 243.229156 144.296554 
L 247.773233 144.296554 
L 247.773233 140.464158 
L 248.384945 140.464158 
L 248.384945 136.631762 
L 253.605772 136.631762 
L 253.605772 132.799366 
L 254.536293 132.799366 
L 254.536293 128.96697 
L 255.436791 128.96697 
L 255.436791 125.134574 
L 256.512356 125.134574 
L 256.512356 121.302178 
L 260.929027 121.302178 
L 260.929027 117.469782 
L 261.98524 117.469782 
L 261.98524 113.637386 
L 262.307325 113.637386 
L 262.307325 109.80499 
L 263.235226 109.80499 
L 263.235226 105.972594 
L 266.887614 105.972594 
L 266.887614 102.140198 
L 267.585029 102.140198 
L 267.648489 94.475406 
L 268.250011 94.475406 
L 268.250011 90.64301 
L 269.204049 90.64301 
L 269.204049 86.810614 
L 269.996971 86.810614 
L 269.996971 82.978218 
L 272.900502 82.978218 
L 272.900502 79.145822 
L 273.338555 79.145822 
L 273.338555 75.313426 
L 273.747702 75.313426 
L 273.747702 71.48103 
L 278.467703 71.48103 
L 278.467703 67.648634 
L 283.033397 67.648634 
L 283.033397 63.816238 
L 403.17676 63.816238 
L 403.17676 59.983842 
L 404.375519 59.983842 
L 404.375519 56.151446 
L 406.519392 56.151446 
L 406.519392 52.31905 
L 431.806847 52.31905 
L 431.806847 48.486653 
L 433.693808 48.486653 
L 433.752673 40.821861 
L 434.664649 40.821861 
L 434.664649 36.989465 
L 434.664649 36.989465 
L 460.8 36.989465 
L 460.8 36.989465 
" clip-path="url(#p510a0da19c)" style="fill: none; stroke: #000000; stroke-width: 1.5; stroke-linecap: square"/>
   </g>
   <g id="line2d_107">
    <defs>
     <path id="mb6e0b55022" d="M 0 7.5 
C 1.989023 7.5 3.896849 6.709753 5.303301 5.303301 
C 6.709753 3.896849 7.5 1.989023 7.5 0 
C 7.5 -1.989023 6.709753 -3.896849 5.303301 -5.303301 
C 3.896849 -6.709753 1.989023 -7.5 0 -7.5 
C -1.989023 -7.5 -3.896849 -6.709753 -5.303301 -5.303301 
C -6.709753 -3.896849 -7.5 -1.989023 -7.5 0 
C -7.5 1.989023 -6.709753 3.896849 -5.303301 5.303301 
C -3.896849 6.709753 -1.989023 7.5 0 7.5 
z
" style="stroke: #000000; stroke-width: 1.5"/>
    </defs>
    <g clip-path="url(#p510a0da19c)">
     <use xlink:href="#mb6e0b55022" x="107.824384" y="259.268436" style="fill-opacity: 0; stroke: #000000; stroke-width: 1.5"/>
     <use xlink:href="#mb6e0b55022" x="179.627506" y="209.447287" style="fill-opacity: 0; stroke: #000000; stroke-width: 1.5"/>
     <use xlink:href="#mb6e0b55022" x="231.551643" y="151.961347" style="fill-opacity: 0; stroke: #000000; stroke-width: 1.5"/>
     <use xlink:href="#mb6e0b55022" x="278.467703" y="71.48103" style="fill-opacity: 0; stroke: #000000; stroke-width: 1.5"/>
     <use xlink:href="#mb6e0b55022" x="283.033397" y="67.648634" style="fill-opacity: 0; stroke: #000000; stroke-width: 1.5"/>
     <use xlink:href="#mb6e0b55022" x="434.664649" y="40.821861" style="fill-opacity: 0; stroke: #000000; stroke-width: 1.5"/>
     <use xlink:href="#mb6e0b55022" x="434.664649" y="36.989465" style="fill-opacity: 0; stroke: #000000; stroke-width: 1.5"/>
    </g>
   </g>
   <g id="line2d_108">
    <path clip-path="url(#p510a0da19c)" style="fill: none; stroke: #000000; stroke-width: 1.5; stroke-linecap: square"/>
   </g>
   <g id="line2d_109">
    <path d="M 246.545398 293.76 
L 246.545398 282.262812 
L 255.757717 282.262812 
L 255.757717 270.765624 
L 258.949863 270.765624 
L 258.949863 259.268436 
L 270.05018 259.268436 
L 270.05018 247.771248 
L 270.663748 247.771248 
L 270.663748 236.274059 
L 271.40361 236.274059 
L 271.40361 224.776871 
L 275.0044 224.776871 
L 275.0044 213.279683 
L 277.922221 213.279683 
L 277.922221 201.782495 
L 280.554423 201.782495 
L 280.554423 190.285307 
L 369.41255 190.285307 
L 369.41255 178.788119 
L 369.69958 178.788119 
L 369.69958 167.290931 
L 371.280817 167.290931 
L 371.280817 155.793743 
L 377.111953 155.793743 
L 377.111953 144.296554 
L 386.172041 144.296554 
L 386.172041 132.799366 
L 411.851413 132.799366 
L 411.851413 121.302178 
L 411.851413 121.302178 
L 411.851413 121.302178 
L 460.8 121.302178 
" clip-path="url(#p510a0da19c)" style="fill: none; stroke: #00bfbf; stroke-width: 1.5; stroke-linecap: square"/>
   </g>
   <g id="line2d_110">
    <defs>
     <path id="mfde58b7778" d="M 0 14.142136 
L 8.485281 0 
L 0 -14.142136 
L -8.485281 0 
z
" style="stroke: #00bfbf; stroke-width: 1.5; stroke-linejoin: miter"/>
    </defs>
    <g clip-path="url(#p510a0da19c)">
     <use xlink:href="#mfde58b7778" x="277.922221" y="213.279683" style="fill-opacity: 0; stroke: #00bfbf; stroke-width: 1.5; stroke-linejoin: miter"/>
     <use xlink:href="#mfde58b7778" x="280.554423" y="201.782495" style="fill-opacity: 0; stroke: #00bfbf; stroke-width: 1.5; stroke-linejoin: miter"/>
     <use xlink:href="#mfde58b7778" x="411.851413" y="132.799366" style="fill-opacity: 0; stroke: #00bfbf; stroke-width: 1.5; stroke-linejoin: miter"/>
     <use xlink:href="#mfde58b7778" x="411.851413" y="121.302178" style="fill-opacity: 0; stroke: #00bfbf; stroke-width: 1.5; stroke-linejoin: miter"/>
    </g>
   </g>
   <g id="line2d_111">
    <path clip-path="url(#p510a0da19c)" style="fill: none; stroke: #00bfbf; stroke-width: 1.5; stroke-linecap: square"/>
    <g clip-path="url(#p510a0da19c)">
     <use xlink:href="#mfde58b7778" x="-1" y="581.189703" style="fill-opacity: 0; stroke: #00bfbf; stroke-width: 1.5; stroke-linejoin: miter"/>
     <use xlink:href="#mfde58b7778" x="460.8" y="581.189703" style="fill-opacity: 0; stroke: #00bfbf; stroke-width: 1.5; stroke-linejoin: miter"/>
    </g>
   </g>
   <g id="line2d_112">
    <path d="M 226.881309 293.76 
L 226.881309 289.927604 
L 230.193026 289.927604 
L 230.193026 286.095208 
L 235.868221 286.095208 
L 235.868221 282.262812 
L 238.637243 282.262812 
L 238.637243 278.430416 
L 241.631195 278.430416 
L 241.631195 274.59802 
L 241.78985 274.59802 
L 241.78985 270.765624 
L 242.729162 270.765624 
L 242.729162 266.933228 
L 243.280096 266.933228 
L 243.280096 263.100832 
L 244.521206 263.100832 
L 244.521206 259.268436 
L 247.187047 259.268436 
L 247.187047 255.43604 
L 247.590227 255.43604 
L 247.590227 251.603644 
L 249.494313 251.603644 
L 249.494313 247.771248 
L 252.623329 247.771248 
L 252.623329 243.938851 
L 254.642692 243.938851 
L 254.642692 240.106455 
L 255.701264 240.106455 
L 255.701264 236.274059 
L 256.56771 236.274059 
L 256.56771 232.441663 
L 257.135382 232.441663 
L 257.135382 228.609267 
L 257.180823 228.609267 
L 257.180823 224.776871 
L 257.775996 224.776871 
L 257.775996 220.944475 
L 259.913091 220.944475 
L 259.913091 217.112079 
L 259.947079 217.112079 
L 259.947079 213.279683 
L 264.142693 213.279683 
L 264.142693 209.447287 
L 264.364564 209.447287 
L 264.364564 205.614891 
L 265.456347 205.614891 
L 265.456347 201.782495 
L 265.885088 201.782495 
L 265.885088 197.950099 
L 267.422407 197.950099 
L 267.422407 194.117703 
L 267.648489 194.117703 
L 267.648489 190.285307 
L 269.636001 190.285307 
L 269.636001 186.452911 
L 270.229256 186.452911 
L 270.229256 182.620515 
L 270.24249 182.620515 
L 270.24249 178.788119 
L 271.787741 178.788119 
L 271.787741 174.955723 
L 273.613802 174.955723 
L 273.613802 171.123327 
L 274.398788 171.123327 
L 274.398788 167.290931 
L 276.349601 167.290931 
L 276.349601 163.458535 
L 279.627134 163.458535 
L 279.627134 159.626139 
L 281.330077 159.626139 
L 281.330077 155.793743 
L 281.682435 155.793743 
L 281.682435 151.961347 
L 283.15932 151.961347 
L 283.15932 148.12895 
L 286.309606 148.12895 
L 286.309606 144.296554 
L 289.807939 144.296554 
L 289.807939 140.464158 
L 293.588055 140.464158 
L 293.588055 136.631762 
L 294.343277 136.631762 
L 294.343277 132.799366 
L 298.288147 132.799366 
L 298.288147 128.96697 
L 298.906566 128.96697 
L 298.906566 125.134574 
L 298.98569 125.134574 
L 298.98569 121.302178 
L 298.98569 121.302178 
L 298.98569 121.302178 
L 460.8 121.302178 
" clip-path="url(#p510a0da19c)" style="fill: none; stroke: #00bfbf; stroke-width: 1.5; stroke-linecap: square"/>
   </g>
   <g id="line2d_113">
    <defs>
     <path id="m4ed39485d7" d="M 0 7.5 
C 1.989023 7.5 3.896849 6.709753 5.303301 5.303301 
C 6.709753 3.896849 7.5 1.989023 7.5 0 
C 7.5 -1.989023 6.709753 -3.896849 5.303301 -5.303301 
C 3.896849 -6.709753 1.989023 -7.5 0 -7.5 
C -1.989023 -7.5 -3.896849 -6.709753 -5.303301 -5.303301 
C -6.709753 -3.896849 -7.5 -1.989023 -7.5 0 
C -7.5 1.989023 -6.709753 3.896849 -5.303301 5.303301 
C -3.896849 6.709753 -1.989023 7.5 0 7.5 
z
" style="stroke: #00bfbf; stroke-width: 1.5"/>
    </defs>
    <g clip-path="url(#p510a0da19c)">
     <use xlink:href="#m4ed39485d7" x="252.623329" y="247.771248" style="fill-opacity: 0; stroke: #00bfbf; stroke-width: 1.5"/>
     <use xlink:href="#m4ed39485d7" x="298.906566" y="128.96697" style="fill-opacity: 0; stroke: #00bfbf; stroke-width: 1.5"/>
     <use xlink:href="#m4ed39485d7" x="298.98569" y="121.302178" style="fill-opacity: 0; stroke: #00bfbf; stroke-width: 1.5"/>
    </g>
   </g>
   <g id="line2d_114">
    <path clip-path="url(#p510a0da19c)" style="fill: none; stroke: #00bfbf; stroke-width: 1.5; stroke-linecap: square"/>
   </g>
   <g id="line2d_115">
    <path d="M 268.685155 293.76 
L 268.685155 282.262812 
L 274.945418 282.262812 
L 274.945418 270.765624 
L 282.195487 270.765624 
L 282.195487 259.268436 
L 284.543039 259.268436 
L 284.543039 247.771248 
L 288.588406 247.771248 
L 288.588406 236.274059 
L 296.867013 236.274059 
L 296.867013 224.776871 
L 300.003928 224.776871 
L 300.003928 213.279683 
L 301.157277 213.279683 
L 301.157277 201.782495 
L 310.076623 201.782495 
L 310.076623 190.285307 
L 420.139214 190.285307 
L 420.139214 178.788119 
L 420.139214 178.788119 
L 420.139214 178.788119 
L 460.8 178.788119 
" clip-path="url(#p510a0da19c)" style="fill: none; stroke: #bf00bf; stroke-width: 1.5; stroke-linecap: square"/>
   </g>
   <g id="line2d_116">
    <defs>
     <path id="mf2df6abbca" d="M 0 14.142136 
L 8.485281 0 
L 0 -14.142136 
L -8.485281 0 
z
" style="stroke: #bf00bf; stroke-width: 1.5; stroke-linejoin: miter"/>
    </defs>
    <g clip-path="url(#p510a0da19c)">
     <use xlink:href="#mf2df6abbca" x="301.157277" y="213.279683" style="fill-opacity: 0; stroke: #bf00bf; stroke-width: 1.5; stroke-linejoin: miter"/>
     <use xlink:href="#mf2df6abbca" x="310.076623" y="201.782495" style="fill-opacity: 0; stroke: #bf00bf; stroke-width: 1.5; stroke-linejoin: miter"/>
     <use xlink:href="#mf2df6abbca" x="420.139214" y="190.285307" style="fill-opacity: 0; stroke: #bf00bf; stroke-width: 1.5; stroke-linejoin: miter"/>
     <use xlink:href="#mf2df6abbca" x="420.139214" y="178.788119" style="fill-opacity: 0; stroke: #bf00bf; stroke-width: 1.5; stroke-linejoin: miter"/>
    </g>
   </g>
   <g id="line2d_117">
    <path clip-path="url(#p510a0da19c)" style="fill: none; stroke: #bf00bf; stroke-width: 1.5; stroke-linecap: square"/>
    <g clip-path="url(#p510a0da19c)">
     <use xlink:href="#mf2df6abbca" x="-1" y="581.189703" style="fill-opacity: 0; stroke: #bf00bf; stroke-width: 1.5; stroke-linejoin: miter"/>
     <use xlink:href="#mf2df6abbca" x="460.8" y="581.189703" style="fill-opacity: 0; stroke: #bf00bf; stroke-width: 1.5; stroke-linejoin: miter"/>
    </g>
   </g>
   <g id="line2d_118">
    <path d="M 259.106194 293.76 
L 259.106194 289.927604 
L 261.668765 289.927604 
L 261.668765 286.095208 
L 261.912423 286.095208 
L 261.912423 282.262812 
L 263.672063 282.262812 
L 263.672063 278.430416 
L 263.803763 278.430416 
L 263.803763 274.59802 
L 264.797204 274.59802 
L 264.797204 270.765624 
L 267.429491 270.765624 
L 267.429491 266.933228 
L 268.808643 266.933228 
L 268.808643 263.100832 
L 269.488027 263.100832 
L 269.488027 259.268436 
L 272.570442 259.268436 
L 272.570442 255.43604 
L 272.657885 255.43604 
L 272.657885 251.603644 
L 275.391576 251.603644 
L 275.391576 247.771248 
L 275.699879 247.771248 
L 275.699879 243.938851 
L 276.747005 243.938851 
L 276.747005 240.106455 
L 278.732376 240.106455 
L 278.732376 236.274059 
L 280.430605 236.274059 
L 280.430605 232.441663 
L 280.928763 232.441663 
L 280.928763 228.609267 
L 281.294675 228.609267 
L 281.294675 224.776871 
L 282.814541 224.776871 
L 282.814541 220.944475 
L 283.328226 220.944475 
L 283.328226 217.112079 
L 283.601827 217.112079 
L 283.601827 213.279683 
L 283.730797 213.279683 
L 283.730797 209.447287 
L 284.0491 209.447287 
L 284.0491 205.614891 
L 285.841043 205.614891 
L 285.841043 201.782495 
L 285.854634 201.782495 
L 285.854634 197.950099 
L 286.367803 197.950099 
L 286.367803 194.117703 
L 287.375359 194.117703 
L 287.375359 190.285307 
L 288.858807 190.285307 
L 288.858807 186.452911 
L 289.473245 186.452911 
L 289.473245 182.620515 
L 289.667781 182.620515 
L 289.667781 178.788119 
L 289.959924 178.788119 
L 289.959924 174.955723 
L 291.441811 174.955723 
L 291.441811 171.123327 
L 292.822559 171.123327 
L 292.822559 167.290931 
L 292.891352 167.290931 
L 292.891352 163.458535 
L 293.207085 163.458535 
L 293.207085 159.626139 
L 294.35802 159.626139 
L 294.35802 155.793743 
L 296.932841 155.793743 
L 296.932841 151.961347 
L 297.992296 151.961347 
L 297.992296 148.12895 
L 300.378179 148.12895 
L 300.378179 144.296554 
L 300.632135 144.296554 
L 300.632135 140.464158 
L 307.151703 140.464158 
L 307.151703 136.631762 
L 310.666283 136.631762 
L 310.666283 132.799366 
L 311.943719 132.799366 
L 311.943719 128.96697 
L 320.066055 128.96697 
L 320.066055 125.134574 
L 343.817452 125.134574 
L 343.817452 121.302178 
L 343.817452 121.302178 
L 343.817452 121.302178 
L 460.8 121.302178 
" clip-path="url(#p510a0da19c)" style="fill: none; stroke: #bf00bf; stroke-width: 1.5; stroke-linecap: square"/>
   </g>
   <g id="line2d_119">
    <defs>
     <path id="m6733dabde0" d="M 0 7.5 
C 1.989023 7.5 3.896849 6.709753 5.303301 5.303301 
C 6.709753 3.896849 7.5 1.989023 7.5 0 
C 7.5 -1.989023 6.709753 -3.896849 5.303301 -5.303301 
C 3.896849 -6.709753 1.989023 -7.5 0 -7.5 
C -1.989023 -7.5 -3.896849 -6.709753 -5.303301 -5.303301 
C -6.709753 -3.896849 -7.5 -1.989023 -7.5 0 
C -7.5 1.989023 -6.709753 3.896849 -5.303301 5.303301 
C -3.896849 6.709753 -1.989023 7.5 0 7.5 
z
" style="stroke: #bf00bf; stroke-width: 1.5"/>
    </defs>
    <g clip-path="url(#p510a0da19c)">
     <use xlink:href="#m6733dabde0" x="287.375359" y="194.117703" style="fill-opacity: 0; stroke: #bf00bf; stroke-width: 1.5"/>
     <use xlink:href="#m6733dabde0" x="320.066055" y="128.96697" style="fill-opacity: 0; stroke: #bf00bf; stroke-width: 1.5"/>
     <use xlink:href="#m6733dabde0" x="343.817452" y="121.302178" style="fill-opacity: 0; stroke: #bf00bf; stroke-width: 1.5"/>
    </g>
   </g>
   <g id="line2d_120">
    <path clip-path="url(#p510a0da19c)" style="fill: none; stroke: #bf00bf; stroke-width: 1.5; stroke-linecap: square"/>
   </g>
   <g id="line2d_121">
    <path d="M 290.127688 293.76 
L 290.127688 282.262812 
L 292.542384 282.262812 
L 292.542384 270.765624 
L 297.941655 270.765624 
L 297.941655 259.268436 
L 304.334321 259.268436 
L 304.334321 247.771248 
L 311.733947 247.771248 
L 311.733947 236.274059 
L 319.621304 236.274059 
L 319.621304 224.776871 
L 319.621304 224.776871 
L 319.621304 224.776871 
L 460.8 224.776871 
" clip-path="url(#p510a0da19c)" style="fill: none; stroke: #ff0000; stroke-width: 3; stroke-linecap: square"/>
   </g>
   <g id="line2d_122">
    <defs>
     <path id="mcbda6e9720" d="M 0 14.142136 
L 8.485281 0 
L 0 -14.142136 
L -8.485281 0 
z
" style="stroke: #ff0000; stroke-width: 3; stroke-linejoin: miter"/>
    </defs>
    <g clip-path="url(#p510a0da19c)">
     <use xlink:href="#mcbda6e9720" x="297.941655" y="270.765624" style="fill-opacity: 0; stroke: #ff0000; stroke-width: 3; stroke-linejoin: miter"/>
     <use xlink:href="#mcbda6e9720" x="319.621304" y="236.274059" style="fill-opacity: 0; stroke: #ff0000; stroke-width: 3; stroke-linejoin: miter"/>
     <use xlink:href="#mcbda6e9720" x="319.621304" y="224.776871" style="fill-opacity: 0; stroke: #ff0000; stroke-width: 3; stroke-linejoin: miter"/>
    </g>
   </g>
   <g id="line2d_123">
    <path clip-path="url(#p510a0da19c)" style="fill: none; stroke: #ff0000; stroke-width: 3; stroke-linecap: square"/>
    <g clip-path="url(#p510a0da19c)">
     <use xlink:href="#mcbda6e9720" x="-1" y="581.189703" style="fill-opacity: 0; stroke: #ff0000; stroke-width: 3; stroke-linejoin: miter"/>
     <use xlink:href="#mcbda6e9720" x="460.8" y="581.189703" style="fill-opacity: 0; stroke: #ff0000; stroke-width: 3; stroke-linejoin: miter"/>
    </g>
   </g>
   <g id="line2d_124">
    <path d="M 277.64122 293.76 
L 277.64122 289.927604 
L 278.168582 289.927604 
L 278.168582 286.095208 
L 280.800947 286.095208 
L 280.800947 282.262812 
L 280.989975 282.262812 
L 280.989975 278.430416 
L 281.967146 278.430416 
L 281.967146 274.59802 
L 283.072184 274.59802 
L 283.072184 270.765624 
L 284.143641 270.765624 
L 284.143641 266.933228 
L 285.472379 266.933228 
L 285.472379 263.100832 
L 289.634734 263.100832 
L 289.634734 259.268436 
L 290.51785 259.268436 
L 290.51785 255.43604 
L 291.508996 255.43604 
L 291.508996 251.603644 
L 298.975808 251.603644 
L 298.975808 247.771248 
L 301.508855 247.771248 
L 301.508855 243.938851 
L 303.448353 243.938851 
L 303.448353 240.106455 
L 304.565096 240.106455 
L 304.565096 236.274059 
L 304.814605 236.274059 
L 304.814605 232.441663 
L 305.368423 232.441663 
L 305.368423 228.609267 
L 306.161924 228.609267 
L 306.161924 224.776871 
L 306.319359 224.776871 
L 306.319359 220.944475 
L 308.036375 220.944475 
L 308.036375 217.112079 
L 308.202627 217.112079 
L 308.202627 213.279683 
L 308.699996 213.279683 
L 308.699996 209.447287 
L 309.034295 209.447287 
L 309.034295 205.614891 
L 309.447752 205.614891 
L 309.447752 201.782495 
L 309.809005 201.782495 
L 309.809005 197.950099 
L 310.207275 197.950099 
L 310.207275 194.117703 
L 310.599247 194.117703 
L 310.599247 190.285307 
L 310.948124 190.285307 
L 310.948124 186.452911 
L 311.058849 186.452911 
L 311.058849 182.620515 
L 311.340468 182.620515 
L 311.340468 178.788119 
L 311.391687 178.788119 
L 311.391687 174.955723 
L 312.276673 174.955723 
L 312.276673 171.123327 
L 312.38151 171.123327 
L 312.38151 167.290931 
L 312.847652 167.290931 
L 312.847652 163.458535 
L 312.875876 163.458535 
L 312.875876 159.626139 
L 315.371068 159.626139 
L 315.371068 155.793743 
L 315.986129 155.793743 
L 315.986129 151.961347 
L 316.675851 151.961347 
L 316.675851 148.12895 
L 316.778642 148.12895 
L 316.778642 144.296554 
L 320.695146 144.296554 
L 320.695146 140.464158 
L 322.821512 140.464158 
L 322.821512 136.631762 
L 323.224053 136.631762 
L 323.224053 132.799366 
L 324.555863 132.799366 
L 324.555863 128.96697 
L 326.923392 128.96697 
L 326.923392 125.134574 
L 350.798614 125.134574 
L 350.798614 121.302178 
L 350.798614 121.302178 
L 350.798614 121.302178 
L 460.8 121.302178 
" clip-path="url(#p510a0da19c)" style="fill: none; stroke: #ff0000; stroke-width: 3; stroke-linecap: square"/>
   </g>
   <g id="line2d_125">
    <defs>
     <path id="m0d813e7cb9" d="M 0 7.5 
C 1.989023 7.5 3.896849 6.709753 5.303301 5.303301 
C 6.709753 3.896849 7.5 1.989023 7.5 0 
C 7.5 -1.989023 6.709753 -3.896849 5.303301 -5.303301 
C 3.896849 -6.709753 1.989023 -7.5 0 -7.5 
C -1.989023 -7.5 -3.896849 -6.709753 -5.303301 -5.303301 
C -6.709753 -3.896849 -7.5 -1.989023 -7.5 0 
C -7.5 1.989023 -6.709753 3.896849 -5.303301 5.303301 
C -3.896849 6.709753 -1.989023 7.5 0 7.5 
z
" style="stroke: #ff0000; stroke-width: 3"/>
    </defs>
    <g clip-path="url(#p510a0da19c)">
     <use xlink:href="#m0d813e7cb9" x="312.38151" y="171.123327" style="fill-opacity: 0; stroke: #ff0000; stroke-width: 3"/>
     <use xlink:href="#m0d813e7cb9" x="350.798614" y="125.134574" style="fill-opacity: 0; stroke: #ff0000; stroke-width: 3"/>
     <use xlink:href="#m0d813e7cb9" x="350.798614" y="121.302178" style="fill-opacity: 0; stroke: #ff0000; stroke-width: 3"/>
    </g>
   </g>
   <g id="line2d_126">
    <path clip-path="url(#p510a0da19c)" style="fill: none; stroke: #ff0000; stroke-width: 3; stroke-linecap: square"/>
   </g>
   <g id="line2d_127">
    <path d="M 441.819429 293.76 
L 441.819429 3.456 
" clip-path="url(#p510a0da19c)" style="fill: none; stroke: #000000; stroke-width: 1.5; stroke-linecap: square"/>
    <defs>
     <path id="m12db03f146" d="M -10 0 
L 10 0 
M 0 10 
L 0 -10 
" style="stroke: #000000; stroke-width: 3"/>
    </defs>
    <g clip-path="url(#p510a0da19c)">
     <use xlink:href="#m12db03f146" x="441.819429" y="293.76" style="stroke: #000000; stroke-width: 3"/>
     <use xlink:href="#m12db03f146" x="441.819429" y="3.456" style="stroke: #000000; stroke-width: 3"/>
    </g>
   </g>
   <g id="line2d_128">
    <path d="M 441.817885 293.76 
L 441.817885 3.456 
" clip-path="url(#p510a0da19c)" style="fill: none; stroke: #000000; stroke-width: 1.5; stroke-linecap: square"/>
    <defs>
     <path id="m9f93b09ba1" d="M 0 7.5 
C 1.989023 7.5 3.896849 6.709753 5.303301 5.303301 
C 6.709753 3.896849 7.5 1.989023 7.5 0 
C 7.5 -1.989023 6.709753 -3.896849 5.303301 -5.303301 
C 3.896849 -6.709753 1.989023 -7.5 0 -7.5 
C -1.989023 -7.5 -3.896849 -6.709753 -5.303301 -5.303301 
C -6.709753 -3.896849 -7.5 -1.989023 -7.5 0 
C -7.5 1.989023 -6.709753 3.896849 -5.303301 5.303301 
C -3.896849 6.709753 -1.989023 7.5 0 7.5 
z
" style="stroke: #000000; stroke-width: 3"/>
    </defs>
    <g clip-path="url(#p510a0da19c)">
     <use xlink:href="#m9f93b09ba1" x="441.817885" y="293.76" style="fill-opacity: 0; stroke: #000000; stroke-width: 3"/>
     <use xlink:href="#m9f93b09ba1" x="441.817885" y="3.456" style="fill-opacity: 0; stroke: #000000; stroke-width: 3"/>
    </g>
   </g>
   <g id="patch_3">
    <path d="M 62.208 293.76 
L 62.208 3.456 
" style="fill: none; stroke: #000000; stroke-width: 0.8; stroke-linejoin: miter; stroke-linecap: square"/>
   </g>
   <g id="patch_4">
    <path d="M 460.8 293.76 
L 460.8 3.456 
" style="fill: none; stroke: #000000; stroke-width: 0.8; stroke-linejoin: miter; stroke-linecap: square"/>
   </g>
   <g id="patch_5">
    <path d="M 62.208 293.76 
L 460.8 293.76 
" style="fill: none; stroke: #000000; stroke-width: 0.8; stroke-linejoin: miter; stroke-linecap: square"/>
   </g>
   <g id="patch_6">
    <path d="M 62.208 3.456 
L 460.8 3.456 
" style="fill: none; stroke: #000000; stroke-width: 0.8; stroke-linejoin: miter; stroke-linecap: square"/>
   </g>
   <g id="text_12">
    <!-- f10-f14 -->
    <g transform="translate(225.405563 24.458955) scale(0.2 -0.2)">
     <defs>
      <path id="DejaVuSans-2d" d="M 313 2009 
L 1997 2009 
L 1997 1497 
L 313 1497 
L 313 2009 
z
" transform="scale(0.015625)"/>
     </defs>
     <use xlink:href="#DejaVuSans-66"/>
     <use xlink:href="#DejaVuSans-31" x="35.205078"/>
     <use xlink:href="#DejaVuSans-30" x="98.828125"/>
     <use xlink:href="#DejaVuSans-2d" x="162.451172"/>
     <use xlink:href="#DejaVuSans-66" x="198.535156"/>
     <use xlink:href="#DejaVuSans-31" x="233.740234"/>
     <use xlink:href="#DejaVuSans-34" x="297.363281"/>
    </g>
   </g>
   <g id="text_13">
    <!-- absolute targets -->
    <g transform="translate(62.208 609.932673) scale(0.14 -0.14)">
     <defs>
      <path id="DejaVuSans-62" d="M 3116 1747 
Q 3116 2381 2855 2742 
Q 2594 3103 2138 3103 
Q 1681 3103 1420 2742 
Q 1159 2381 1159 1747 
Q 1159 1113 1420 752 
Q 1681 391 2138 391 
Q 2594 391 2855 752 
Q 3116 1113 3116 1747 
z
M 1159 2969 
Q 1341 3281 1617 3432 
Q 1894 3584 2278 3584 
Q 2916 3584 3314 3078 
Q 3713 2572 3713 1747 
Q 3713 922 3314 415 
Q 2916 -91 2278 -91 
Q 1894 -91 1617 61 
Q 1341 213 1159 525 
L 1159 0 
L 581 0 
L 581 4863 
L 1159 4863 
L 1159 2969 
z
" transform="scale(0.015625)"/>
      <path id="DejaVuSans-75" d="M 544 1381 
L 544 3500 
L 1119 3500 
L 1119 1403 
Q 1119 906 1312 657 
Q 1506 409 1894 409 
Q 2359 409 2629 706 
Q 2900 1003 2900 1516 
L 2900 3500 
L 3475 3500 
L 3475 0 
L 2900 0 
L 2900 538 
Q 2691 219 2414 64 
Q 2138 -91 1772 -91 
Q 1169 -91 856 284 
Q 544 659 544 1381 
z
M 1991 3584 
L 1991 3584 
z
" transform="scale(0.015625)"/>
      <path id="DejaVuSans-65" d="M 3597 1894 
L 3597 1613 
L 953 1613 
Q 991 1019 1311 708 
Q 1631 397 2203 397 
Q 2534 397 2845 478 
Q 3156 559 3463 722 
L 3463 178 
Q 3153 47 2828 -22 
Q 2503 -91 2169 -91 
Q 1331 -91 842 396 
Q 353 884 353 1716 
Q 353 2575 817 3079 
Q 1281 3584 2069 3584 
Q 2775 3584 3186 3129 
Q 3597 2675 3597 1894 
z
M 3022 2063 
Q 3016 2534 2758 2815 
Q 2500 3097 2075 3097 
Q 1594 3097 1305 2825 
Q 1016 2553 972 2059 
L 3022 2063 
z
" transform="scale(0.015625)"/>
     </defs>
     <use xlink:href="#DejaVuSans-61"/>
     <use xlink:href="#DejaVuSans-62" x="61.279297"/>
     <use xlink:href="#DejaVuSans-73" x="124.755859"/>
     <use xlink:href="#DejaVuSans-6f" x="176.855469"/>
     <use xlink:href="#DejaVuSans-6c" x="238.037109"/>
     <use xlink:href="#DejaVuSans-75" x="265.820312"/>
     <use xlink:href="#DejaVuSans-74" x="329.199219"/>
     <use xlink:href="#DejaVuSans-65" x="368.408203"/>
     <use xlink:href="#DejaVuSans-20" x="429.931641"/>
     <use xlink:href="#DejaVuSans-74" x="461.71875"/>
     <use xlink:href="#DejaVuSans-61" x="500.927734"/>
     <use xlink:href="#DejaVuSans-72" x="562.207031"/>
     <use xlink:href="#DejaVuSans-67" x="601.570312"/>
     <use xlink:href="#DejaVuSans-65" x="665.046875"/>
     <use xlink:href="#DejaVuSans-74" x="726.570312"/>
     <use xlink:href="#DejaVuSans-73" x="765.779297"/>
    </g>
   </g>
   <g id="text_14">
    <!-- v2.6.3 -->
    <g style="fill: #808080" transform="translate(245.82275 288.777272) scale(0.1 -0.1)">
     <defs>
      <path id="DejaVuSans-33" d="M 2597 2516 
Q 3050 2419 3304 2112 
Q 3559 1806 3559 1356 
Q 3559 666 3084 287 
Q 2609 -91 1734 -91 
Q 1441 -91 1130 -33 
Q 819 25 488 141 
L 488 750 
Q 750 597 1062 519 
Q 1375 441 1716 441 
Q 2309 441 2620 675 
Q 2931 909 2931 1356 
Q 2931 1769 2642 2001 
Q 2353 2234 1838 2234 
L 1294 2234 
L 1294 2753 
L 1863 2753 
Q 2328 2753 2575 2939 
Q 2822 3125 2822 3475 
Q 2822 3834 2567 4026 
Q 2313 4219 1838 4219 
Q 1578 4219 1281 4162 
Q 984 4106 628 3988 
L 628 4550 
Q 988 4650 1302 4700 
Q 1616 4750 1894 4750 
Q 2613 4750 3031 4423 
Q 3450 4097 3450 3541 
Q 3450 3153 3228 2886 
Q 3006 2619 2597 2516 
z
" transform="scale(0.015625)"/>
     </defs>
     <use xlink:href="#DejaVuSans-76"/>
     <use xlink:href="#DejaVuSans-32" x="59.179688"/>
     <use xlink:href="#DejaVuSans-2e" x="122.802734"/>
     <use xlink:href="#DejaVuSans-36" x="154.589844"/>
     <use xlink:href="#DejaVuSans-2e" x="218.212891"/>
     <use xlink:href="#DejaVuSans-33" x="250"/>
    </g>
   </g>
   <g id="legend_1">
    <g id="patch_7">
     <path d="M 76.208 136.881 
L 160.148625 136.881 
Q 164.148625 136.881 164.148625 132.881 
L 164.148625 17.456 
Q 164.148625 13.456 160.148625 13.456 
L 76.208 13.456 
Q 72.208 13.456 72.208 17.456 
L 72.208 132.881 
Q 72.208 136.881 76.208 136.881 
z
" style="fill: #ffffff; opacity: 0.2; stroke: #cccccc; stroke-linejoin: miter"/>
    </g>
    <g id="line2d_129">
     <path d="M 80.208 29.652875 
L 80.208 29.652875 
L 100.208 29.652875 
L 100.208 29.652875 
L 120.208 29.652875 
" style="fill: none; stroke: #000000; stroke-width: 1.5; stroke-linecap: square"/>
    </g>
    <g id="text_15">
     <!-- 1 -->
     <g transform="translate(136.208 36.652875) scale(0.2 -0.2)">
      <use xlink:href="#DejaVuSans-31"/>
     </g>
    </g>
    <g id="line2d_130">
     <path d="M 80.208 59.009125 
L 80.208 59.009125 
L 100.208 59.009125 
L 100.208 59.009125 
L 120.208 59.009125 
" style="fill: none; stroke: #00bfbf; stroke-width: 1.5; stroke-linecap: square"/>
    </g>
    <g id="text_16">
     <!-- -1 -->
     <g transform="translate(136.208 66.009125) scale(0.2 -0.2)">
      <use xlink:href="#DejaVuSans-2d"/>
      <use xlink:href="#DejaVuSans-31" x="36.083984"/>
     </g>
    </g>
    <g id="line2d_131">
     <path d="M 80.208 88.365375 
L 80.208 88.365375 
L 100.208 88.365375 
L 100.208 88.365375 
L 120.208 88.365375 
" style="fill: none; stroke: #bf00bf; stroke-width: 1.5; stroke-linecap: square"/>
    </g>
    <g id="text_17">
     <!-- -4 -->
     <g transform="translate(136.208 95.365375) scale(0.2 -0.2)">
      <use xlink:href="#DejaVuSans-2d"/>
      <use xlink:href="#DejaVuSans-34" x="36.083984"/>
     </g>
    </g>
    <g id="line2d_132">
     <path d="M 80.208 117.721625 
L 80.208 117.721625 
L 100.208 117.721625 
L 100.208 117.721625 
L 120.208 117.721625 
" style="fill: none; stroke: #ff0000; stroke-width: 3; stroke-linecap: square"/>
    </g>
    <g id="text_18">
     <!-- -8 -->
     <g transform="translate(136.208 124.721625) scale(0.2 -0.2)">
      <use xlink:href="#DejaVuSans-2d"/>
      <use xlink:href="#DejaVuSans-38" x="36.083984"/>
     </g>
    </g>
   </g>
  </g>
 </g>
 <defs>
  <clipPath id="p510a0da19c">
   <rect x="62.208" y="3.456" width="398.592" height="290.304"/>
  </clipPath>
 </defs>
</svg>
