<?xml version="1.0" encoding="utf-8" standalone="no"?>
<!DOCTYPE svg PUBLIC "-//W3C//DTD SVG 1.1//EN"
  "http://www.w3.org/Graphics/SVG/1.1/DTD/svg11.dtd">
<svg xmlns:xlink="http://www.w3.org/1999/xlink" width="330.781875pt" height="352.095625pt" viewBox="0 0 330.781875 352.095625" xmlns="http://www.w3.org/2000/svg" version="1.1">
 <metadata>
  <rdf:RDF xmlns:dc="http://purl.org/dc/elements/1.1/" xmlns:cc="http://creativecommons.org/ns#" xmlns:rdf="http://www.w3.org/1999/02/22-rdf-syntax-ns#">
   <cc:Work>
    <dc:type rdf:resource="http://purl.org/dc/dcmitype/StillImage"/>
    <dc:date>2024-05-24T12:14:19.270195</dc:date>
    <dc:format>image/svg+xml</dc:format>
    <dc:creator>
     <cc:Agent>
      <dc:title>Matplotlib v3.7.1, https://matplotlib.org/</dc:title>
     </cc:Agent>
    </dc:creator>
   </cc:Work>
  </rdf:RDF>
 </metadata>
 <defs>
  <style type="text/css">*{stroke-linejoin: round; stroke-linecap: butt}</style>
 </defs>
 <g id="figure_1">
  <g id="patch_1">
   <path d="M 0 352.095625 
L 330.781875 352.095625 
L 330.781875 0 
L 0 0 
z
" style="fill: #ffffff"/>
  </g>
  <g id="axes_1">
   <g id="patch_2">
    <path d="M 45.941875 300.517187 
L 319.581875 300.517187 
L 319.581875 26.877187 
L 45.941875 26.877187 
z
" style="fill: #ffffff"/>
   </g>
   <g id="line2d_1">
    <path d="M 223.385704 149.452323 
L 223.385704 110.961187 
" clip-path="url(#pb4960cde90)" style="fill: none; stroke: #00bfbf; stroke-width: 1.5; stroke-linecap: square"/>
   </g>
   <g id="line2d_2">
    <path d="M 184.894568 110.961187 
L 223.385704 110.961187 
" clip-path="url(#pb4960cde90)" style="fill: none; stroke: #00bfbf; stroke-width: 1.5; stroke-linecap: square"/>
   </g>
   <g id="line2d_3">
    <path d="M 247.645552 137.295899 
L 247.645552 98.804763 
" clip-path="url(#pb4960cde90)" style="fill: none; stroke: #008000; stroke-width: 1.5; stroke-linecap: square"/>
   </g>
   <g id="line2d_4">
    <path d="M 209.154416 98.804763 
L 247.645552 98.804763 
" clip-path="url(#pb4960cde90)" style="fill: none; stroke: #008000; stroke-width: 1.5; stroke-linecap: square"/>
   </g>
   <g id="line2d_5">
    <path d="M 259.780715 125.165282 
L 259.780715 86.674147 
" clip-path="url(#pb4960cde90)" style="fill: none; stroke: #0000ff; stroke-width: 1.5; stroke-linecap: square"/>
   </g>
   <g id="line2d_6">
    <path d="M 221.289579 86.674147 
L 259.780715 86.674147 
" clip-path="url(#pb4960cde90)" style="fill: none; stroke: #0000ff; stroke-width: 1.5; stroke-linecap: square"/>
   </g>
   <g id="line2d_7">
    <path d="M 271.931936 113.028764 
L 271.931936 74.537628 
" clip-path="url(#pb4960cde90)" style="fill: none; stroke: #000000; stroke-width: 1.5; stroke-linecap: square"/>
   </g>
   <g id="line2d_8">
    <path d="M 233.4408 74.537628 
L 271.931936 74.537628 
" clip-path="url(#pb4960cde90)" style="fill: none; stroke: #000000; stroke-width: 1.5; stroke-linecap: square"/>
   </g>
   <g id="line2d_9">
    <path d="M 284.077074 100.89135 
L 284.077074 62.400214 
" clip-path="url(#pb4960cde90)" style="fill: none; stroke: #ff0000; stroke-width: 1.5; stroke-linecap: square"/>
   </g>
   <g id="line2d_10">
    <path d="M 245.585939 62.400214 
L 284.077074 62.400214 
" clip-path="url(#pb4960cde90)" style="fill: none; stroke: #ff0000; stroke-width: 1.5; stroke-linecap: square"/>
   </g>
   <g id="matplotlib.axis_1">
    <g id="xtick_1">
     <g id="line2d_11">
      <path d="M 126.615572 300.517187 
L 126.615572 26.877187 
" clip-path="url(#pb4960cde90)" style="fill: none; stroke: #b0b0b0; stroke-width: 0.8; stroke-linecap: square"/>
     </g>
     <g id="line2d_12">
      <defs>
       <path id="mb61a2fd35c" d="M 0 0 
L 0 3.5 
" style="stroke: #000000; stroke-width: 0.8"/>
      </defs>
      <g>
       <use xlink:href="#mb61a2fd35c" x="126.615572" y="300.517187" style="stroke: #000000; stroke-width: 0.8"/>
      </g>
     </g>
     <g id="text_1">
      <!-- 2 -->
      <g transform="translate(121.207447 320.434531) scale(0.17 -0.17)">
       <defs>
        <path id="DejaVuSans-32" d="M 1228 531 
L 3431 531 
L 3431 0 
L 469 0 
L 469 531 
Q 828 903 1448 1529 
Q 2069 2156 2228 2338 
Q 2531 2678 2651 2914 
Q 2772 3150 2772 3378 
Q 2772 3750 2511 3984 
Q 2250 4219 1831 4219 
Q 1534 4219 1204 4116 
Q 875 4013 500 3803 
L 500 4441 
Q 881 4594 1212 4672 
Q 1544 4750 1819 4750 
Q 2544 4750 2975 4387 
Q 3406 4025 3406 3419 
Q 3406 3131 3298 2873 
Q 3191 2616 2906 2266 
Q 2828 2175 2409 1742 
Q 1991 1309 1228 531 
z
" transform="scale(0.015625)"/>
       </defs>
       <use xlink:href="#DejaVuSans-32"/>
      </g>
     </g>
    </g>
    <g id="xtick_2">
     <g id="line2d_13">
      <path d="M 207.289269 300.517187 
L 207.289269 26.877187 
" clip-path="url(#pb4960cde90)" style="fill: none; stroke: #b0b0b0; stroke-width: 0.8; stroke-linecap: square"/>
     </g>
     <g id="line2d_14">
      <g>
       <use xlink:href="#mb61a2fd35c" x="207.289269" y="300.517187" style="stroke: #000000; stroke-width: 0.8"/>
      </g>
     </g>
     <g id="text_2">
      <!-- 4 -->
      <g transform="translate(201.881144 320.434531) scale(0.17 -0.17)">
       <defs>
        <path id="DejaVuSans-34" d="M 2419 4116 
L 825 1625 
L 2419 1625 
L 2419 4116 
z
M 2253 4666 
L 3047 4666 
L 3047 1625 
L 3713 1625 
L 3713 1100 
L 3047 1100 
L 3047 0 
L 2419 0 
L 2419 1100 
L 313 1100 
L 313 1709 
L 2253 4666 
z
" transform="scale(0.015625)"/>
       </defs>
       <use xlink:href="#DejaVuSans-34"/>
      </g>
     </g>
    </g>
    <g id="xtick_3">
     <g id="line2d_15">
      <path d="M 287.962966 300.517187 
L 287.962966 26.877187 
" clip-path="url(#pb4960cde90)" style="fill: none; stroke: #b0b0b0; stroke-width: 0.8; stroke-linecap: square"/>
     </g>
     <g id="line2d_16">
      <g>
       <use xlink:href="#mb61a2fd35c" x="287.962966" y="300.517187" style="stroke: #000000; stroke-width: 0.8"/>
      </g>
     </g>
     <g id="text_3">
      <!-- 6 -->
      <g transform="translate(282.554841 320.434531) scale(0.17 -0.17)">
       <defs>
        <path id="DejaVuSans-36" d="M 2113 2584 
Q 1688 2584 1439 2293 
Q 1191 2003 1191 1497 
Q 1191 994 1439 701 
Q 1688 409 2113 409 
Q 2538 409 2786 701 
Q 3034 994 3034 1497 
Q 3034 2003 2786 2293 
Q 2538 2584 2113 2584 
z
M 3366 4563 
L 3366 3988 
Q 3128 4100 2886 4159 
Q 2644 4219 2406 4219 
Q 1781 4219 1451 3797 
Q 1122 3375 1075 2522 
Q 1259 2794 1537 2939 
Q 1816 3084 2150 3084 
Q 2853 3084 3261 2657 
Q 3669 2231 3669 1497 
Q 3669 778 3244 343 
Q 2819 -91 2113 -91 
Q 1303 -91 875 529 
Q 447 1150 447 2328 
Q 447 3434 972 4092 
Q 1497 4750 2381 4750 
Q 2619 4750 2861 4703 
Q 3103 4656 3366 4563 
z
" transform="scale(0.015625)"/>
       </defs>
       <use xlink:href="#DejaVuSans-36"/>
      </g>
     </g>
    </g>
    <g id="text_4">
     <!-- log10(ERT of no_bias_corr) -->
     <g transform="translate(69.709219 340.887344) scale(0.17 -0.17)">
      <defs>
       <path id="DejaVuSans-6c" d="M 603 4863 
L 1178 4863 
L 1178 0 
L 603 0 
L 603 4863 
z
" transform="scale(0.015625)"/>
       <path id="DejaVuSans-6f" d="M 1959 3097 
Q 1497 3097 1228 2736 
Q 959 2375 959 1747 
Q 959 1119 1226 758 
Q 1494 397 1959 397 
Q 2419 397 2687 759 
Q 2956 1122 2956 1747 
Q 2956 2369 2687 2733 
Q 2419 3097 1959 3097 
z
M 1959 3584 
Q 2709 3584 3137 3096 
Q 3566 2609 3566 1747 
Q 3566 888 3137 398 
Q 2709 -91 1959 -91 
Q 1206 -91 779 398 
Q 353 888 353 1747 
Q 353 2609 779 3096 
Q 1206 3584 1959 3584 
z
" transform="scale(0.015625)"/>
       <path id="DejaVuSans-67" d="M 2906 1791 
Q 2906 2416 2648 2759 
Q 2391 3103 1925 3103 
Q 1463 3103 1205 2759 
Q 947 2416 947 1791 
Q 947 1169 1205 825 
Q 1463 481 1925 481 
Q 2391 481 2648 825 
Q 2906 1169 2906 1791 
z
M 3481 434 
Q 3481 -459 3084 -895 
Q 2688 -1331 1869 -1331 
Q 1566 -1331 1297 -1286 
Q 1028 -1241 775 -1147 
L 775 -588 
Q 1028 -725 1275 -790 
Q 1522 -856 1778 -856 
Q 2344 -856 2625 -561 
Q 2906 -266 2906 331 
L 2906 616 
Q 2728 306 2450 153 
Q 2172 0 1784 0 
Q 1141 0 747 490 
Q 353 981 353 1791 
Q 353 2603 747 3093 
Q 1141 3584 1784 3584 
Q 2172 3584 2450 3431 
Q 2728 3278 2906 2969 
L 2906 3500 
L 3481 3500 
L 3481 434 
z
" transform="scale(0.015625)"/>
       <path id="DejaVuSans-31" d="M 794 531 
L 1825 531 
L 1825 4091 
L 703 3866 
L 703 4441 
L 1819 4666 
L 2450 4666 
L 2450 531 
L 3481 531 
L 3481 0 
L 794 0 
L 794 531 
z
" transform="scale(0.015625)"/>
       <path id="DejaVuSans-30" d="M 2034 4250 
Q 1547 4250 1301 3770 
Q 1056 3291 1056 2328 
Q 1056 1369 1301 889 
Q 1547 409 2034 409 
Q 2525 409 2770 889 
Q 3016 1369 3016 2328 
Q 3016 3291 2770 3770 
Q 2525 4250 2034 4250 
z
M 2034 4750 
Q 2819 4750 3233 4129 
Q 3647 3509 3647 2328 
Q 3647 1150 3233 529 
Q 2819 -91 2034 -91 
Q 1250 -91 836 529 
Q 422 1150 422 2328 
Q 422 3509 836 4129 
Q 1250 4750 2034 4750 
z
" transform="scale(0.015625)"/>
       <path id="DejaVuSans-28" d="M 1984 4856 
Q 1566 4138 1362 3434 
Q 1159 2731 1159 2009 
Q 1159 1288 1364 580 
Q 1569 -128 1984 -844 
L 1484 -844 
Q 1016 -109 783 600 
Q 550 1309 550 2009 
Q 550 2706 781 3412 
Q 1013 4119 1484 4856 
L 1984 4856 
z
" transform="scale(0.015625)"/>
       <path id="DejaVuSans-45" d="M 628 4666 
L 3578 4666 
L 3578 4134 
L 1259 4134 
L 1259 2753 
L 3481 2753 
L 3481 2222 
L 1259 2222 
L 1259 531 
L 3634 531 
L 3634 0 
L 628 0 
L 628 4666 
z
" transform="scale(0.015625)"/>
       <path id="DejaVuSans-52" d="M 2841 2188 
Q 3044 2119 3236 1894 
Q 3428 1669 3622 1275 
L 4263 0 
L 3584 0 
L 2988 1197 
Q 2756 1666 2539 1819 
Q 2322 1972 1947 1972 
L 1259 1972 
L 1259 0 
L 628 0 
L 628 4666 
L 2053 4666 
Q 2853 4666 3247 4331 
Q 3641 3997 3641 3322 
Q 3641 2881 3436 2590 
Q 3231 2300 2841 2188 
z
M 1259 4147 
L 1259 2491 
L 2053 2491 
Q 2509 2491 2742 2702 
Q 2975 2913 2975 3322 
Q 2975 3731 2742 3939 
Q 2509 4147 2053 4147 
L 1259 4147 
z
" transform="scale(0.015625)"/>
       <path id="DejaVuSans-54" d="M -19 4666 
L 3928 4666 
L 3928 4134 
L 2272 4134 
L 2272 0 
L 1638 0 
L 1638 4134 
L -19 4134 
L -19 4666 
z
" transform="scale(0.015625)"/>
       <path id="DejaVuSans-20" transform="scale(0.015625)"/>
       <path id="DejaVuSans-66" d="M 2375 4863 
L 2375 4384 
L 1825 4384 
Q 1516 4384 1395 4259 
Q 1275 4134 1275 3809 
L 1275 3500 
L 2222 3500 
L 2222 3053 
L 1275 3053 
L 1275 0 
L 697 0 
L 697 3053 
L 147 3053 
L 147 3500 
L 697 3500 
L 697 3744 
Q 697 4328 969 4595 
Q 1241 4863 1831 4863 
L 2375 4863 
z
" transform="scale(0.015625)"/>
       <path id="DejaVuSans-6e" d="M 3513 2113 
L 3513 0 
L 2938 0 
L 2938 2094 
Q 2938 2591 2744 2837 
Q 2550 3084 2163 3084 
Q 1697 3084 1428 2787 
Q 1159 2491 1159 1978 
L 1159 0 
L 581 0 
L 581 3500 
L 1159 3500 
L 1159 2956 
Q 1366 3272 1645 3428 
Q 1925 3584 2291 3584 
Q 2894 3584 3203 3211 
Q 3513 2838 3513 2113 
z
" transform="scale(0.015625)"/>
       <path id="DejaVuSans-5f" d="M 3263 -1063 
L 3263 -1509 
L -63 -1509 
L -63 -1063 
L 3263 -1063 
z
" transform="scale(0.015625)"/>
       <path id="DejaVuSans-62" d="M 3116 1747 
Q 3116 2381 2855 2742 
Q 2594 3103 2138 3103 
Q 1681 3103 1420 2742 
Q 1159 2381 1159 1747 
Q 1159 1113 1420 752 
Q 1681 391 2138 391 
Q 2594 391 2855 752 
Q 3116 1113 3116 1747 
z
M 1159 2969 
Q 1341 3281 1617 3432 
Q 1894 3584 2278 3584 
Q 2916 3584 3314 3078 
Q 3713 2572 3713 1747 
Q 3713 922 3314 415 
Q 2916 -91 2278 -91 
Q 1894 -91 1617 61 
Q 1341 213 1159 525 
L 1159 0 
L 581 0 
L 581 4863 
L 1159 4863 
L 1159 2969 
z
" transform="scale(0.015625)"/>
       <path id="DejaVuSans-69" d="M 603 3500 
L 1178 3500 
L 1178 0 
L 603 0 
L 603 3500 
z
M 603 4863 
L 1178 4863 
L 1178 4134 
L 603 4134 
L 603 4863 
z
" transform="scale(0.015625)"/>
       <path id="DejaVuSans-61" d="M 2194 1759 
Q 1497 1759 1228 1600 
Q 959 1441 959 1056 
Q 959 750 1161 570 
Q 1363 391 1709 391 
Q 2188 391 2477 730 
Q 2766 1069 2766 1631 
L 2766 1759 
L 2194 1759 
z
M 3341 1997 
L 3341 0 
L 2766 0 
L 2766 531 
Q 2569 213 2275 61 
Q 1981 -91 1556 -91 
Q 1019 -91 701 211 
Q 384 513 384 1019 
Q 384 1609 779 1909 
Q 1175 2209 1959 2209 
L 2766 2209 
L 2766 2266 
Q 2766 2663 2505 2880 
Q 2244 3097 1772 3097 
Q 1472 3097 1187 3025 
Q 903 2953 641 2809 
L 641 3341 
Q 956 3463 1253 3523 
Q 1550 3584 1831 3584 
Q 2591 3584 2966 3190 
Q 3341 2797 3341 1997 
z
" transform="scale(0.015625)"/>
       <path id="DejaVuSans-73" d="M 2834 3397 
L 2834 2853 
Q 2591 2978 2328 3040 
Q 2066 3103 1784 3103 
Q 1356 3103 1142 2972 
Q 928 2841 928 2578 
Q 928 2378 1081 2264 
Q 1234 2150 1697 2047 
L 1894 2003 
Q 2506 1872 2764 1633 
Q 3022 1394 3022 966 
Q 3022 478 2636 193 
Q 2250 -91 1575 -91 
Q 1294 -91 989 -36 
Q 684 19 347 128 
L 347 722 
Q 666 556 975 473 
Q 1284 391 1588 391 
Q 1994 391 2212 530 
Q 2431 669 2431 922 
Q 2431 1156 2273 1281 
Q 2116 1406 1581 1522 
L 1381 1569 
Q 847 1681 609 1914 
Q 372 2147 372 2553 
Q 372 3047 722 3315 
Q 1072 3584 1716 3584 
Q 2034 3584 2315 3537 
Q 2597 3491 2834 3397 
z
" transform="scale(0.015625)"/>
       <path id="DejaVuSans-63" d="M 3122 3366 
L 3122 2828 
Q 2878 2963 2633 3030 
Q 2388 3097 2138 3097 
Q 1578 3097 1268 2742 
Q 959 2388 959 1747 
Q 959 1106 1268 751 
Q 1578 397 2138 397 
Q 2388 397 2633 464 
Q 2878 531 3122 666 
L 3122 134 
Q 2881 22 2623 -34 
Q 2366 -91 2075 -91 
Q 1284 -91 818 406 
Q 353 903 353 1747 
Q 353 2603 823 3093 
Q 1294 3584 2113 3584 
Q 2378 3584 2631 3529 
Q 2884 3475 3122 3366 
z
" transform="scale(0.015625)"/>
       <path id="DejaVuSans-72" d="M 2631 2963 
Q 2534 3019 2420 3045 
Q 2306 3072 2169 3072 
Q 1681 3072 1420 2755 
Q 1159 2438 1159 1844 
L 1159 0 
L 581 0 
L 581 3500 
L 1159 3500 
L 1159 2956 
Q 1341 3275 1631 3429 
Q 1922 3584 2338 3584 
Q 2397 3584 2469 3576 
Q 2541 3569 2628 3553 
L 2631 2963 
z
" transform="scale(0.015625)"/>
       <path id="DejaVuSans-29" d="M 513 4856 
L 1013 4856 
Q 1481 4119 1714 3412 
Q 1947 2706 1947 2009 
Q 1947 1309 1714 600 
Q 1481 -109 1013 -844 
L 513 -844 
Q 928 -128 1133 580 
Q 1338 1288 1338 2009 
Q 1338 2731 1133 3434 
Q 928 4138 513 4856 
z
" transform="scale(0.015625)"/>
      </defs>
      <use xlink:href="#DejaVuSans-6c"/>
      <use xlink:href="#DejaVuSans-6f" x="27.783203"/>
      <use xlink:href="#DejaVuSans-67" x="88.964844"/>
      <use xlink:href="#DejaVuSans-31" x="152.441406"/>
      <use xlink:href="#DejaVuSans-30" x="216.064453"/>
      <use xlink:href="#DejaVuSans-28" x="279.6875"/>
      <use xlink:href="#DejaVuSans-45" x="318.701172"/>
      <use xlink:href="#DejaVuSans-52" x="381.884766"/>
      <use xlink:href="#DejaVuSans-54" x="444.117188"/>
      <use xlink:href="#DejaVuSans-20" x="505.201172"/>
      <use xlink:href="#DejaVuSans-6f" x="536.988281"/>
      <use xlink:href="#DejaVuSans-66" x="598.169922"/>
      <use xlink:href="#DejaVuSans-20" x="633.375"/>
      <use xlink:href="#DejaVuSans-6e" x="665.162109"/>
      <use xlink:href="#DejaVuSans-6f" x="728.541016"/>
      <use xlink:href="#DejaVuSans-5f" x="789.722656"/>
      <use xlink:href="#DejaVuSans-62" x="839.722656"/>
      <use xlink:href="#DejaVuSans-69" x="903.199219"/>
      <use xlink:href="#DejaVuSans-61" x="930.982422"/>
      <use xlink:href="#DejaVuSans-73" x="992.261719"/>
      <use xlink:href="#DejaVuSans-5f" x="1044.361328"/>
      <use xlink:href="#DejaVuSans-63" x="1094.361328"/>
      <use xlink:href="#DejaVuSans-6f" x="1149.341797"/>
      <use xlink:href="#DejaVuSans-72" x="1210.523438"/>
      <use xlink:href="#DejaVuSans-72" x="1249.886719"/>
      <use xlink:href="#DejaVuSans-29" x="1291"/>
     </g>
    </g>
   </g>
   <g id="matplotlib.axis_2">
    <g id="ytick_1">
     <g id="line2d_17">
      <path d="M 45.941875 219.84349 
L 319.581875 219.84349 
" clip-path="url(#pb4960cde90)" style="fill: none; stroke: #b0b0b0; stroke-width: 0.8; stroke-linecap: square"/>
     </g>
     <g id="line2d_18">
      <defs>
       <path id="md52a8b55d1" d="M 0 0 
L -3.5 0 
" style="stroke: #000000; stroke-width: 0.8"/>
      </defs>
      <g>
       <use xlink:href="#md52a8b55d1" x="45.941875" y="219.84349" style="stroke: #000000; stroke-width: 0.8"/>
      </g>
     </g>
     <g id="text_5">
      <!-- 2 -->
      <g transform="translate(28.125625 226.302162) scale(0.17 -0.17)">
       <use xlink:href="#DejaVuSans-32"/>
      </g>
     </g>
    </g>
    <g id="ytick_2">
     <g id="line2d_19">
      <path d="M 45.941875 139.169793 
L 319.581875 139.169793 
" clip-path="url(#pb4960cde90)" style="fill: none; stroke: #b0b0b0; stroke-width: 0.8; stroke-linecap: square"/>
     </g>
     <g id="line2d_20">
      <g>
       <use xlink:href="#md52a8b55d1" x="45.941875" y="139.169793" style="stroke: #000000; stroke-width: 0.8"/>
      </g>
     </g>
     <g id="text_6">
      <!-- 4 -->
      <g transform="translate(28.125625 145.628465) scale(0.17 -0.17)">
       <use xlink:href="#DejaVuSans-34"/>
      </g>
     </g>
    </g>
    <g id="ytick_3">
     <g id="line2d_21">
      <path d="M 45.941875 58.496096 
L 319.581875 58.496096 
" clip-path="url(#pb4960cde90)" style="fill: none; stroke: #b0b0b0; stroke-width: 0.8; stroke-linecap: square"/>
     </g>
     <g id="line2d_22">
      <g>
       <use xlink:href="#md52a8b55d1" x="45.941875" y="58.496096" style="stroke: #000000; stroke-width: 0.8"/>
      </g>
     </g>
     <g id="text_7">
      <!-- 6 -->
      <g transform="translate(28.125625 64.954768) scale(0.17 -0.17)">
       <use xlink:href="#DejaVuSans-36"/>
      </g>
     </g>
    </g>
    <g id="text_8">
     <!-- log10(ERT of LBIC_newbounds) -->
     <g transform="translate(20.117344 295.577344) rotate(-90) scale(0.17 -0.17)">
      <defs>
       <path id="DejaVuSans-4c" d="M 628 4666 
L 1259 4666 
L 1259 531 
L 3531 531 
L 3531 0 
L 628 0 
L 628 4666 
z
" transform="scale(0.015625)"/>
       <path id="DejaVuSans-42" d="M 1259 2228 
L 1259 519 
L 2272 519 
Q 2781 519 3026 730 
Q 3272 941 3272 1375 
Q 3272 1813 3026 2020 
Q 2781 2228 2272 2228 
L 1259 2228 
z
M 1259 4147 
L 1259 2741 
L 2194 2741 
Q 2656 2741 2882 2914 
Q 3109 3088 3109 3444 
Q 3109 3797 2882 3972 
Q 2656 4147 2194 4147 
L 1259 4147 
z
M 628 4666 
L 2241 4666 
Q 2963 4666 3353 4366 
Q 3744 4066 3744 3513 
Q 3744 3084 3544 2831 
Q 3344 2578 2956 2516 
Q 3422 2416 3680 2098 
Q 3938 1781 3938 1306 
Q 3938 681 3513 340 
Q 3088 0 2303 0 
L 628 0 
L 628 4666 
z
" transform="scale(0.015625)"/>
       <path id="DejaVuSans-49" d="M 628 4666 
L 1259 4666 
L 1259 0 
L 628 0 
L 628 4666 
z
" transform="scale(0.015625)"/>
       <path id="DejaVuSans-43" d="M 4122 4306 
L 4122 3641 
Q 3803 3938 3442 4084 
Q 3081 4231 2675 4231 
Q 1875 4231 1450 3742 
Q 1025 3253 1025 2328 
Q 1025 1406 1450 917 
Q 1875 428 2675 428 
Q 3081 428 3442 575 
Q 3803 722 4122 1019 
L 4122 359 
Q 3791 134 3420 21 
Q 3050 -91 2638 -91 
Q 1578 -91 968 557 
Q 359 1206 359 2328 
Q 359 3453 968 4101 
Q 1578 4750 2638 4750 
Q 3056 4750 3426 4639 
Q 3797 4528 4122 4306 
z
" transform="scale(0.015625)"/>
       <path id="DejaVuSans-65" d="M 3597 1894 
L 3597 1613 
L 953 1613 
Q 991 1019 1311 708 
Q 1631 397 2203 397 
Q 2534 397 2845 478 
Q 3156 559 3463 722 
L 3463 178 
Q 3153 47 2828 -22 
Q 2503 -91 2169 -91 
Q 1331 -91 842 396 
Q 353 884 353 1716 
Q 353 2575 817 3079 
Q 1281 3584 2069 3584 
Q 2775 3584 3186 3129 
Q 3597 2675 3597 1894 
z
M 3022 2063 
Q 3016 2534 2758 2815 
Q 2500 3097 2075 3097 
Q 1594 3097 1305 2825 
Q 1016 2553 972 2059 
L 3022 2063 
z
" transform="scale(0.015625)"/>
       <path id="DejaVuSans-77" d="M 269 3500 
L 844 3500 
L 1563 769 
L 2278 3500 
L 2956 3500 
L 3675 769 
L 4391 3500 
L 4966 3500 
L 4050 0 
L 3372 0 
L 2619 2869 
L 1863 0 
L 1184 0 
L 269 3500 
z
" transform="scale(0.015625)"/>
       <path id="DejaVuSans-75" d="M 544 1381 
L 544 3500 
L 1119 3500 
L 1119 1403 
Q 1119 906 1312 657 
Q 1506 409 1894 409 
Q 2359 409 2629 706 
Q 2900 1003 2900 1516 
L 2900 3500 
L 3475 3500 
L 3475 0 
L 2900 0 
L 2900 538 
Q 2691 219 2414 64 
Q 2138 -91 1772 -91 
Q 1169 -91 856 284 
Q 544 659 544 1381 
z
M 1991 3584 
L 1991 3584 
z
" transform="scale(0.015625)"/>
       <path id="DejaVuSans-64" d="M 2906 2969 
L 2906 4863 
L 3481 4863 
L 3481 0 
L 2906 0 
L 2906 525 
Q 2725 213 2448 61 
Q 2172 -91 1784 -91 
Q 1150 -91 751 415 
Q 353 922 353 1747 
Q 353 2572 751 3078 
Q 1150 3584 1784 3584 
Q 2172 3584 2448 3432 
Q 2725 3281 2906 2969 
z
M 947 1747 
Q 947 1113 1208 752 
Q 1469 391 1925 391 
Q 2381 391 2643 752 
Q 2906 1113 2906 1747 
Q 2906 2381 2643 2742 
Q 2381 3103 1925 3103 
Q 1469 3103 1208 2742 
Q 947 2381 947 1747 
z
" transform="scale(0.015625)"/>
      </defs>
      <use xlink:href="#DejaVuSans-6c"/>
      <use xlink:href="#DejaVuSans-6f" x="27.783203"/>
      <use xlink:href="#DejaVuSans-67" x="88.964844"/>
      <use xlink:href="#DejaVuSans-31" x="152.441406"/>
      <use xlink:href="#DejaVuSans-30" x="216.064453"/>
      <use xlink:href="#DejaVuSans-28" x="279.6875"/>
      <use xlink:href="#DejaVuSans-45" x="318.701172"/>
      <use xlink:href="#DejaVuSans-52" x="381.884766"/>
      <use xlink:href="#DejaVuSans-54" x="444.117188"/>
      <use xlink:href="#DejaVuSans-20" x="505.201172"/>
      <use xlink:href="#DejaVuSans-6f" x="536.988281"/>
      <use xlink:href="#DejaVuSans-66" x="598.169922"/>
      <use xlink:href="#DejaVuSans-20" x="633.375"/>
      <use xlink:href="#DejaVuSans-4c" x="665.162109"/>
      <use xlink:href="#DejaVuSans-42" x="720.875"/>
      <use xlink:href="#DejaVuSans-49" x="789.478516"/>
      <use xlink:href="#DejaVuSans-43" x="818.970703"/>
      <use xlink:href="#DejaVuSans-5f" x="888.794922"/>
      <use xlink:href="#DejaVuSans-6e" x="938.794922"/>
      <use xlink:href="#DejaVuSans-65" x="1002.173828"/>
      <use xlink:href="#DejaVuSans-77" x="1063.697266"/>
      <use xlink:href="#DejaVuSans-62" x="1145.484375"/>
      <use xlink:href="#DejaVuSans-6f" x="1208.960938"/>
      <use xlink:href="#DejaVuSans-75" x="1270.142578"/>
      <use xlink:href="#DejaVuSans-6e" x="1333.521484"/>
      <use xlink:href="#DejaVuSans-64" x="1396.900391"/>
      <use xlink:href="#DejaVuSans-73" x="1460.376953"/>
      <use xlink:href="#DejaVuSans-29" x="1512.476562"/>
     </g>
    </g>
   </g>
   <g id="line2d_23">
    <defs>
     <path id="m4220d7be4d" d="M -7 0 
L 7 0 
M 0 7 
L 0 -7 
" style="stroke: #00bfbf; stroke-width: 3"/>
    </defs>
    <g>
     <use xlink:href="#m4220d7be4d" x="45.941875" y="300.517187" style="fill-opacity: 0; stroke: #00bfbf; stroke-width: 3"/>
     <use xlink:href="#m4220d7be4d" x="119.069087" y="246.907147" style="fill-opacity: 0; stroke: #00bfbf; stroke-width: 3"/>
     <use xlink:href="#m4220d7be4d" x="125.078556" y="229.086598" style="fill-opacity: 0; stroke: #00bfbf; stroke-width: 3"/>
     <use xlink:href="#m4220d7be4d" x="137.048185" y="197.025321" style="fill-opacity: 0; stroke: #00bfbf; stroke-width: 3"/>
     <use xlink:href="#m4220d7be4d" x="145.743962" y="178.944664" style="fill-opacity: 0; stroke: #00bfbf; stroke-width: 3"/>
     <use xlink:href="#m4220d7be4d" x="161.280193" y="157.825244" style="fill-opacity: 0; stroke: #00bfbf; stroke-width: 3"/>
     <use xlink:href="#m4220d7be4d" x="195.896288" y="135.555516" style="fill-opacity: 0; stroke: #00bfbf; stroke-width: 3"/>
     <use xlink:href="#m4220d7be4d" x="197.360705" y="131.251604" style="fill-opacity: 0; stroke: #00bfbf; stroke-width: 3"/>
     <use xlink:href="#m4220d7be4d" x="203.399047" y="128.444215" style="fill-opacity: 0; stroke: #00bfbf; stroke-width: 3"/>
     <use xlink:href="#m4220d7be4d" x="203.572738" y="128.313173" style="fill-opacity: 0; stroke: #00bfbf; stroke-width: 3"/>
     <use xlink:href="#m4220d7be4d" x="204.998839" y="128.056316" style="fill-opacity: 0; stroke: #00bfbf; stroke-width: 3"/>
     <use xlink:href="#m4220d7be4d" x="205.065396" y="127.469214" style="fill-opacity: 0; stroke: #00bfbf; stroke-width: 3"/>
     <use xlink:href="#m4220d7be4d" x="205.320107" y="127.341302" style="fill-opacity: 0; stroke: #00bfbf; stroke-width: 3"/>
     <use xlink:href="#m4220d7be4d" x="205.706677" y="127.235061" style="fill-opacity: 0; stroke: #00bfbf; stroke-width: 3"/>
     <use xlink:href="#m4220d7be4d" x="207.102586" y="127.173788" style="fill-opacity: 0; stroke: #00bfbf; stroke-width: 3"/>
     <use xlink:href="#m4220d7be4d" x="207.33266" y="127.125495" style="fill-opacity: 0; stroke: #00bfbf; stroke-width: 3"/>
     <use xlink:href="#m4220d7be4d" x="208.912675" y="127.067091" style="fill-opacity: 0; stroke: #00bfbf; stroke-width: 3"/>
     <use xlink:href="#m4220d7be4d" x="209.987489" y="126.444797" style="fill-opacity: 0; stroke: #00bfbf; stroke-width: 3"/>
     <use xlink:href="#m4220d7be4d" x="210.798293" y="126.168034" style="fill-opacity: 0; stroke: #00bfbf; stroke-width: 3"/>
     <use xlink:href="#m4220d7be4d" x="210.843257" y="126.146156" style="fill-opacity: 0; stroke: #00bfbf; stroke-width: 3"/>
     <use xlink:href="#m4220d7be4d" x="211.016588" y="126.118967" style="fill-opacity: 0; stroke: #00bfbf; stroke-width: 3"/>
     <use xlink:href="#m4220d7be4d" x="211.107264" y="126.04483" style="fill-opacity: 0; stroke: #00bfbf; stroke-width: 3"/>
    </g>
   </g>
   <g id="line2d_24">
    <defs>
     <path id="ma77c0da79a" d="M -0 7 
L 7 -7 
L -7 -7 
z
" style="stroke: #008000; stroke-width: 3; stroke-linejoin: miter"/>
    </defs>
    <g>
     <use xlink:href="#ma77c0da79a" x="45.941875" y="300.517187" style="fill-opacity: 0; stroke: #008000; stroke-width: 3; stroke-linejoin: miter"/>
     <use xlink:href="#ma77c0da79a" x="135.40941" y="215.981223" style="fill-opacity: 0; stroke: #008000; stroke-width: 3; stroke-linejoin: miter"/>
     <use xlink:href="#ma77c0da79a" x="191.354603" y="166.97768" style="fill-opacity: 0; stroke: #008000; stroke-width: 3; stroke-linejoin: miter"/>
     <use xlink:href="#ma77c0da79a" x="203.813219" y="145.673329" style="fill-opacity: 0; stroke: #008000; stroke-width: 3; stroke-linejoin: miter"/>
     <use xlink:href="#ma77c0da79a" x="213.1736" y="120.931179" style="fill-opacity: 0; stroke: #008000; stroke-width: 3; stroke-linejoin: miter"/>
     <use xlink:href="#ma77c0da79a" x="222.144651" y="103.35489" style="fill-opacity: 0; stroke: #008000; stroke-width: 3; stroke-linejoin: miter"/>
    </g>
   </g>
   <g id="line2d_25">
    <defs>
     <path id="m35b61d00f6" d="M -0 4 
L 4 -4 
L -4 -4 
z
" style="stroke: #008000; stroke-linejoin: miter"/>
    </defs>
    <g>
     <use xlink:href="#m35b61d00f6" x="237.608946" y="84.687378" style="fill-opacity: 0; stroke: #008000; stroke-linejoin: miter"/>
     <use xlink:href="#m35b61d00f6" x="248.433381" y="84.63798" style="fill-opacity: 0; stroke: #008000; stroke-linejoin: miter"/>
     <use xlink:href="#m35b61d00f6" x="248.529477" y="81.362421" style="fill-opacity: 0; stroke: #008000; stroke-linejoin: miter"/>
     <use xlink:href="#m35b61d00f6" x="260.123951" y="77.353564" style="fill-opacity: 0; stroke: #008000; stroke-linejoin: miter"/>
     <use xlink:href="#m35b61d00f6" x="261.534019" y="77.324302" style="fill-opacity: 0; stroke: #008000; stroke-linejoin: miter"/>
     <use xlink:href="#m35b61d00f6" x="261.588499" y="77.293206" style="fill-opacity: 0; stroke: #008000; stroke-linejoin: miter"/>
     <use xlink:href="#m35b61d00f6" x="261.774145" y="77.260809" style="fill-opacity: 0; stroke: #008000; stroke-linejoin: miter"/>
     <use xlink:href="#m35b61d00f6" x="261.793273" y="77.257077" style="fill-opacity: 0; stroke: #008000; stroke-linejoin: miter"/>
     <use xlink:href="#m35b61d00f6" x="261.889222" y="77.222567" style="fill-opacity: 0; stroke: #008000; stroke-linejoin: miter"/>
     <use xlink:href="#m35b61d00f6" x="261.910046" y="77.21619" style="fill-opacity: 0; stroke: #008000; stroke-linejoin: miter"/>
     <use xlink:href="#m35b61d00f6" x="261.938664" y="77.199827" style="fill-opacity: 0; stroke: #008000; stroke-linejoin: miter"/>
     <use xlink:href="#m35b61d00f6" x="261.938664" y="77.199827" style="fill-opacity: 0; stroke: #008000; stroke-linejoin: miter"/>
     <use xlink:href="#m35b61d00f6" x="261.938664" y="77.165696" style="fill-opacity: 0; stroke: #008000; stroke-linejoin: miter"/>
     <use xlink:href="#m35b61d00f6" x="261.938664" y="77.156722" style="fill-opacity: 0; stroke: #008000; stroke-linejoin: miter"/>
     <use xlink:href="#m35b61d00f6" x="261.971908" y="77.127051" style="fill-opacity: 0; stroke: #008000; stroke-linejoin: miter"/>
     <use xlink:href="#m35b61d00f6" x="262.070995" y="77.12185" style="fill-opacity: 0; stroke: #008000; stroke-linejoin: miter"/>
    </g>
   </g>
   <g id="line2d_26">
    <defs>
     <path id="mf3b37c6c30" d="M 0 -7 
L -1.571598 -2.163119 
L -6.657396 -2.163119 
L -2.542899 0.826238 
L -4.114497 5.663119 
L -0 2.673762 
L 4.114497 5.663119 
L 2.542899 0.826238 
L 6.657396 -2.163119 
L 1.571598 -2.163119 
z
" style="stroke: #0000ff; stroke-width: 3; stroke-linejoin: bevel"/>
    </defs>
    <g>
     <use xlink:href="#mf3b37c6c30" x="45.941875" y="300.517187" style="fill-opacity: 0; stroke: #0000ff; stroke-width: 3; stroke-linejoin: bevel"/>
     <use xlink:href="#mf3b37c6c30" x="165.016941" y="182.988817" style="fill-opacity: 0; stroke: #0000ff; stroke-width: 3; stroke-linejoin: bevel"/>
     <use xlink:href="#mf3b37c6c30" x="234.371602" y="122.123189" style="fill-opacity: 0; stroke: #0000ff; stroke-width: 3; stroke-linejoin: bevel"/>
     <use xlink:href="#mf3b37c6c30" x="245.870411" y="106.462346" style="fill-opacity: 0; stroke: #0000ff; stroke-width: 3; stroke-linejoin: bevel"/>
    </g>
   </g>
   <g id="line2d_27">
    <defs>
     <path id="m158e501cfe" d="M 0 -4 
L -0.898056 -1.236068 
L -3.804226 -1.236068 
L -1.453085 0.472136 
L -2.351141 3.236068 
L -0 1.527864 
L 2.351141 3.236068 
L 1.453085 0.472136 
L 3.804226 -1.236068 
L 0.898056 -1.236068 
z
" style="stroke: #0000ff; stroke-linejoin: bevel"/>
    </defs>
    <g>
     <use xlink:href="#m158e501cfe" x="274.158866" y="39.907664" style="fill-opacity: 0; stroke: #0000ff; stroke-linejoin: bevel"/>
    </g>
   </g>
   <g id="line2d_28">
    <g>
     <use xlink:href="#m158e501cfe" x="319.581875" y="26.877187" style="fill-opacity: 0; stroke: #0000ff; stroke-linejoin: bevel"/>
     <use xlink:href="#m158e501cfe" x="319.581875" y="26.877187" style="fill-opacity: 0; stroke: #0000ff; stroke-linejoin: bevel"/>
     <use xlink:href="#m158e501cfe" x="319.581875" y="26.877187" style="fill-opacity: 0; stroke: #0000ff; stroke-linejoin: bevel"/>
     <use xlink:href="#m158e501cfe" x="319.581875" y="26.877187" style="fill-opacity: 0; stroke: #0000ff; stroke-linejoin: bevel"/>
     <use xlink:href="#m158e501cfe" x="319.581875" y="26.877187" style="fill-opacity: 0; stroke: #0000ff; stroke-linejoin: bevel"/>
     <use xlink:href="#m158e501cfe" x="319.581875" y="26.877187" style="fill-opacity: 0; stroke: #0000ff; stroke-linejoin: bevel"/>
     <use xlink:href="#m158e501cfe" x="319.581875" y="26.877187" style="fill-opacity: 0; stroke: #0000ff; stroke-linejoin: bevel"/>
     <use xlink:href="#m158e501cfe" x="319.581875" y="26.877187" style="fill-opacity: 0; stroke: #0000ff; stroke-linejoin: bevel"/>
     <use xlink:href="#m158e501cfe" x="319.581875" y="26.877187" style="fill-opacity: 0; stroke: #0000ff; stroke-linejoin: bevel"/>
     <use xlink:href="#m158e501cfe" x="319.581875" y="26.877187" style="fill-opacity: 0; stroke: #0000ff; stroke-linejoin: bevel"/>
     <use xlink:href="#m158e501cfe" x="319.581875" y="26.877187" style="fill-opacity: 0; stroke: #0000ff; stroke-linejoin: bevel"/>
     <use xlink:href="#m158e501cfe" x="319.581875" y="26.877187" style="fill-opacity: 0; stroke: #0000ff; stroke-linejoin: bevel"/>
     <use xlink:href="#m158e501cfe" x="319.581875" y="26.877187" style="fill-opacity: 0; stroke: #0000ff; stroke-linejoin: bevel"/>
     <use xlink:href="#m158e501cfe" x="319.581875" y="26.877187" style="fill-opacity: 0; stroke: #0000ff; stroke-linejoin: bevel"/>
     <use xlink:href="#m158e501cfe" x="319.581875" y="26.877187" style="fill-opacity: 0; stroke: #0000ff; stroke-linejoin: bevel"/>
     <use xlink:href="#m158e501cfe" x="319.581875" y="26.877187" style="fill-opacity: 0; stroke: #0000ff; stroke-linejoin: bevel"/>
     <use xlink:href="#m158e501cfe" x="319.581875" y="26.877187" style="fill-opacity: 0; stroke: #0000ff; stroke-linejoin: bevel"/>
    </g>
   </g>
   <g id="line2d_29">
    <defs>
     <path id="m6c4dab83c6" d="M 0 7 
C 1.856422 7 3.637059 6.262436 4.949747 4.949747 
C 6.262436 3.637059 7 1.856422 7 0 
C 7 -1.856422 6.262436 -3.637059 4.949747 -4.949747 
C 3.637059 -6.262436 1.856422 -7 0 -7 
C -1.856422 -7 -3.637059 -6.262436 -4.949747 -4.949747 
C -6.262436 -3.637059 -7 -1.856422 -7 0 
C -7 1.856422 -6.262436 3.637059 -4.949747 4.949747 
C -3.637059 6.262436 -1.856422 7 0 7 
z
" style="stroke: #000000; stroke-width: 3"/>
    </defs>
    <g>
     <use xlink:href="#m6c4dab83c6" x="45.941875" y="300.517187" style="fill-opacity: 0; stroke: #000000; stroke-width: 3"/>
     <use xlink:href="#m6c4dab83c6" x="258.397168" y="115.491322" style="fill-opacity: 0; stroke: #000000; stroke-width: 3"/>
     <use xlink:href="#m6c4dab83c6" x="270.271563" y="90.990372" style="fill-opacity: 0; stroke: #000000; stroke-width: 3"/>
    </g>
   </g>
   <g id="line2d_30">
    <defs>
     <path id="ma233813d1a" d="M 0 4 
C 1.060812 4 2.078319 3.578535 2.828427 2.828427 
C 3.578535 2.078319 4 1.060812 4 0 
C 4 -1.060812 3.578535 -2.078319 2.828427 -2.828427 
C 2.078319 -3.578535 1.060812 -4 0 -4 
C -1.060812 -4 -2.078319 -3.578535 -2.828427 -2.828427 
C -3.578535 -2.078319 -4 -1.060812 -4 0 
C -4 1.060812 -3.578535 2.078319 -2.828427 2.828427 
C -2.078319 3.578535 -1.060812 4 0 4 
z
" style="stroke: #000000"/>
    </defs>
    <g>
     <use xlink:href="#ma233813d1a" x="319.581875" y="64.396131" style="fill-opacity: 0; stroke: #000000"/>
    </g>
   </g>
   <g id="line2d_31">
    <g>
     <use xlink:href="#ma233813d1a" x="319.581875" y="26.877187" style="fill-opacity: 0; stroke: #000000"/>
     <use xlink:href="#ma233813d1a" x="319.581875" y="26.877187" style="fill-opacity: 0; stroke: #000000"/>
     <use xlink:href="#ma233813d1a" x="319.581875" y="26.877187" style="fill-opacity: 0; stroke: #000000"/>
     <use xlink:href="#ma233813d1a" x="319.581875" y="26.877187" style="fill-opacity: 0; stroke: #000000"/>
     <use xlink:href="#ma233813d1a" x="319.581875" y="26.877187" style="fill-opacity: 0; stroke: #000000"/>
     <use xlink:href="#ma233813d1a" x="319.581875" y="26.877187" style="fill-opacity: 0; stroke: #000000"/>
     <use xlink:href="#ma233813d1a" x="319.581875" y="26.877187" style="fill-opacity: 0; stroke: #000000"/>
     <use xlink:href="#ma233813d1a" x="319.581875" y="26.877187" style="fill-opacity: 0; stroke: #000000"/>
     <use xlink:href="#ma233813d1a" x="319.581875" y="26.877187" style="fill-opacity: 0; stroke: #000000"/>
     <use xlink:href="#ma233813d1a" x="319.581875" y="26.877187" style="fill-opacity: 0; stroke: #000000"/>
     <use xlink:href="#ma233813d1a" x="319.581875" y="26.877187" style="fill-opacity: 0; stroke: #000000"/>
     <use xlink:href="#ma233813d1a" x="319.581875" y="26.877187" style="fill-opacity: 0; stroke: #000000"/>
     <use xlink:href="#ma233813d1a" x="319.581875" y="26.877187" style="fill-opacity: 0; stroke: #000000"/>
     <use xlink:href="#ma233813d1a" x="319.581875" y="26.877187" style="fill-opacity: 0; stroke: #000000"/>
     <use xlink:href="#ma233813d1a" x="319.581875" y="26.877187" style="fill-opacity: 0; stroke: #000000"/>
     <use xlink:href="#ma233813d1a" x="319.581875" y="26.877187" style="fill-opacity: 0; stroke: #000000"/>
     <use xlink:href="#ma233813d1a" x="319.581875" y="26.877187" style="fill-opacity: 0; stroke: #000000"/>
     <use xlink:href="#ma233813d1a" x="319.581875" y="26.877187" style="fill-opacity: 0; stroke: #000000"/>
    </g>
   </g>
   <g id="line2d_32">
    <defs>
     <path id="m1278b4053a" d="M -7 7 
L 7 7 
L 7 -7 
L -7 -7 
z
" style="stroke: #ff0000; stroke-width: 3; stroke-linejoin: miter"/>
    </defs>
    <g>
     <use xlink:href="#m1278b4053a" x="45.941875" y="300.517187" style="fill-opacity: 0; stroke: #ff0000; stroke-width: 3; stroke-linejoin: miter"/>
     <use xlink:href="#m1278b4053a" x="278.639398" y="99.310419" style="fill-opacity: 0; stroke: #ff0000; stroke-width: 3; stroke-linejoin: miter"/>
    </g>
   </g>
   <g id="line2d_33">
    <defs>
     <path id="md3d8f4c916" d="M -4 4 
L 4 4 
L 4 -4 
L -4 -4 
z
" style="stroke: #ff0000; stroke-linejoin: miter"/>
    </defs>
    <g>
     <use xlink:href="#md3d8f4c916" x="319.581875" y="49.042412" style="fill-opacity: 0; stroke: #ff0000; stroke-linejoin: miter"/>
    </g>
   </g>
   <g id="line2d_34">
    <g>
     <use xlink:href="#md3d8f4c916" x="319.581875" y="26.877187" style="fill-opacity: 0; stroke: #ff0000; stroke-linejoin: miter"/>
     <use xlink:href="#md3d8f4c916" x="319.581875" y="26.877187" style="fill-opacity: 0; stroke: #ff0000; stroke-linejoin: miter"/>
     <use xlink:href="#md3d8f4c916" x="319.581875" y="26.877187" style="fill-opacity: 0; stroke: #ff0000; stroke-linejoin: miter"/>
     <use xlink:href="#md3d8f4c916" x="319.581875" y="26.877187" style="fill-opacity: 0; stroke: #ff0000; stroke-linejoin: miter"/>
     <use xlink:href="#md3d8f4c916" x="319.581875" y="26.877187" style="fill-opacity: 0; stroke: #ff0000; stroke-linejoin: miter"/>
     <use xlink:href="#md3d8f4c916" x="319.581875" y="26.877187" style="fill-opacity: 0; stroke: #ff0000; stroke-linejoin: miter"/>
     <use xlink:href="#md3d8f4c916" x="319.581875" y="26.877187" style="fill-opacity: 0; stroke: #ff0000; stroke-linejoin: miter"/>
     <use xlink:href="#md3d8f4c916" x="319.581875" y="26.877187" style="fill-opacity: 0; stroke: #ff0000; stroke-linejoin: miter"/>
     <use xlink:href="#md3d8f4c916" x="319.581875" y="26.877187" style="fill-opacity: 0; stroke: #ff0000; stroke-linejoin: miter"/>
     <use xlink:href="#md3d8f4c916" x="319.581875" y="26.877187" style="fill-opacity: 0; stroke: #ff0000; stroke-linejoin: miter"/>
     <use xlink:href="#md3d8f4c916" x="319.581875" y="26.877187" style="fill-opacity: 0; stroke: #ff0000; stroke-linejoin: miter"/>
     <use xlink:href="#md3d8f4c916" x="319.581875" y="26.877187" style="fill-opacity: 0; stroke: #ff0000; stroke-linejoin: miter"/>
     <use xlink:href="#md3d8f4c916" x="319.581875" y="26.877187" style="fill-opacity: 0; stroke: #ff0000; stroke-linejoin: miter"/>
     <use xlink:href="#md3d8f4c916" x="319.581875" y="26.877187" style="fill-opacity: 0; stroke: #ff0000; stroke-linejoin: miter"/>
     <use xlink:href="#md3d8f4c916" x="319.581875" y="26.877187" style="fill-opacity: 0; stroke: #ff0000; stroke-linejoin: miter"/>
     <use xlink:href="#md3d8f4c916" x="319.581875" y="26.877187" style="fill-opacity: 0; stroke: #ff0000; stroke-linejoin: miter"/>
     <use xlink:href="#md3d8f4c916" x="319.581875" y="26.877187" style="fill-opacity: 0; stroke: #ff0000; stroke-linejoin: miter"/>
     <use xlink:href="#md3d8f4c916" x="319.581875" y="26.877187" style="fill-opacity: 0; stroke: #ff0000; stroke-linejoin: miter"/>
     <use xlink:href="#md3d8f4c916" x="319.581875" y="26.877187" style="fill-opacity: 0; stroke: #ff0000; stroke-linejoin: miter"/>
    </g>
   </g>
   <g id="line2d_35">
    <path d="M 45.941875 300.517187 
L 319.581875 26.877187 
" clip-path="url(#pb4960cde90)" style="fill: none; stroke: #000000; stroke-width: 1.5; stroke-linecap: square"/>
   </g>
   <g id="line2d_36">
    <path d="M 86.278724 300.517187 
L 331.781875 55.014036 
" clip-path="url(#pb4960cde90)" style="fill: none; stroke: #d3d3d3; stroke-linecap: square"/>
   </g>
   <g id="line2d_37">
    <path d="M 126.615572 300.517187 
L 331.781875 95.350885 
" clip-path="url(#pb4960cde90)" style="fill: none; stroke: #d3d3d3; stroke-linecap: square"/>
   </g>
   <g id="line2d_38">
    <path d="M 45.941875 260.180339 
L 307.122214 -1 
" clip-path="url(#pb4960cde90)" style="fill: none; stroke: #d3d3d3; stroke-linecap: square"/>
   </g>
   <g id="line2d_39">
    <path d="M 45.941875 219.84349 
L 266.785365 -1 
" clip-path="url(#pb4960cde90)" style="fill: none; stroke: #d3d3d3; stroke-linecap: square"/>
   </g>
   <g id="patch_3">
    <path d="M 45.941875 300.517187 
L 45.941875 26.877187 
" style="fill: none; stroke: #000000; stroke-width: 0.8; stroke-linejoin: miter; stroke-linecap: square"/>
   </g>
   <g id="patch_4">
    <path d="M 319.581875 300.517187 
L 319.581875 26.877187 
" style="fill: none; stroke: #000000; stroke-width: 0.8; stroke-linejoin: miter; stroke-linecap: square"/>
   </g>
   <g id="patch_5">
    <path d="M 45.941875 300.517187 
L 319.581875 300.517187 
" style="fill: none; stroke: #000000; stroke-width: 0.8; stroke-linejoin: miter; stroke-linecap: square"/>
   </g>
   <g id="patch_6">
    <path d="M 45.941875 26.877187 
L 319.581875 26.877187 
" style="fill: none; stroke: #000000; stroke-width: 0.8; stroke-linejoin: miter; stroke-linecap: square"/>
   </g>
   <g id="text_9">
    <!-- 22 targets: 3e21..1e-8 -->
    <g transform="translate(48.678275 40.100394) scale(0.102 -0.102)">
     <defs>
      <path id="DejaVuSans-74" d="M 1172 4494 
L 1172 3500 
L 2356 3500 
L 2356 3053 
L 1172 3053 
L 1172 1153 
Q 1172 725 1289 603 
Q 1406 481 1766 481 
L 2356 481 
L 2356 0 
L 1766 0 
Q 1100 0 847 248 
Q 594 497 594 1153 
L 594 3053 
L 172 3053 
L 172 3500 
L 594 3500 
L 594 4494 
L 1172 4494 
z
" transform="scale(0.015625)"/>
      <path id="DejaVuSans-3a" d="M 750 794 
L 1409 794 
L 1409 0 
L 750 0 
L 750 794 
z
M 750 3309 
L 1409 3309 
L 1409 2516 
L 750 2516 
L 750 3309 
z
" transform="scale(0.015625)"/>
      <path id="DejaVuSans-33" d="M 2597 2516 
Q 3050 2419 3304 2112 
Q 3559 1806 3559 1356 
Q 3559 666 3084 287 
Q 2609 -91 1734 -91 
Q 1441 -91 1130 -33 
Q 819 25 488 141 
L 488 750 
Q 750 597 1062 519 
Q 1375 441 1716 441 
Q 2309 441 2620 675 
Q 2931 909 2931 1356 
Q 2931 1769 2642 2001 
Q 2353 2234 1838 2234 
L 1294 2234 
L 1294 2753 
L 1863 2753 
Q 2328 2753 2575 2939 
Q 2822 3125 2822 3475 
Q 2822 3834 2567 4026 
Q 2313 4219 1838 4219 
Q 1578 4219 1281 4162 
Q 984 4106 628 3988 
L 628 4550 
Q 988 4650 1302 4700 
Q 1616 4750 1894 4750 
Q 2613 4750 3031 4423 
Q 3450 4097 3450 3541 
Q 3450 3153 3228 2886 
Q 3006 2619 2597 2516 
z
" transform="scale(0.015625)"/>
      <path id="DejaVuSans-2e" d="M 684 794 
L 1344 794 
L 1344 0 
L 684 0 
L 684 794 
z
" transform="scale(0.015625)"/>
      <path id="DejaVuSans-2d" d="M 313 2009 
L 1997 2009 
L 1997 1497 
L 313 1497 
L 313 2009 
z
" transform="scale(0.015625)"/>
      <path id="DejaVuSans-38" d="M 2034 2216 
Q 1584 2216 1326 1975 
Q 1069 1734 1069 1313 
Q 1069 891 1326 650 
Q 1584 409 2034 409 
Q 2484 409 2743 651 
Q 3003 894 3003 1313 
Q 3003 1734 2745 1975 
Q 2488 2216 2034 2216 
z
M 1403 2484 
Q 997 2584 770 2862 
Q 544 3141 544 3541 
Q 544 4100 942 4425 
Q 1341 4750 2034 4750 
Q 2731 4750 3128 4425 
Q 3525 4100 3525 3541 
Q 3525 3141 3298 2862 
Q 3072 2584 2669 2484 
Q 3125 2378 3379 2068 
Q 3634 1759 3634 1313 
Q 3634 634 3220 271 
Q 2806 -91 2034 -91 
Q 1263 -91 848 271 
Q 434 634 434 1313 
Q 434 1759 690 2068 
Q 947 2378 1403 2484 
z
M 1172 3481 
Q 1172 3119 1398 2916 
Q 1625 2713 2034 2713 
Q 2441 2713 2670 2916 
Q 2900 3119 2900 3481 
Q 2900 3844 2670 4047 
Q 2441 4250 2034 4250 
Q 1625 4250 1398 4047 
Q 1172 3844 1172 3481 
z
" transform="scale(0.015625)"/>
     </defs>
     <use xlink:href="#DejaVuSans-32"/>
     <use xlink:href="#DejaVuSans-32" x="63.623047"/>
     <use xlink:href="#DejaVuSans-20" x="127.246094"/>
     <use xlink:href="#DejaVuSans-74" x="159.033203"/>
     <use xlink:href="#DejaVuSans-61" x="198.242188"/>
     <use xlink:href="#DejaVuSans-72" x="259.521484"/>
     <use xlink:href="#DejaVuSans-67" x="298.884766"/>
     <use xlink:href="#DejaVuSans-65" x="362.361328"/>
     <use xlink:href="#DejaVuSans-74" x="423.884766"/>
     <use xlink:href="#DejaVuSans-73" x="463.09375"/>
     <use xlink:href="#DejaVuSans-3a" x="515.193359"/>
     <use xlink:href="#DejaVuSans-20" x="548.884766"/>
     <use xlink:href="#DejaVuSans-33" x="580.671875"/>
     <use xlink:href="#DejaVuSans-65" x="644.294922"/>
     <use xlink:href="#DejaVuSans-32" x="705.818359"/>
     <use xlink:href="#DejaVuSans-31" x="769.441406"/>
     <use xlink:href="#DejaVuSans-2e" x="833.064453"/>
     <use xlink:href="#DejaVuSans-2e" x="864.851562"/>
     <use xlink:href="#DejaVuSans-31" x="896.638672"/>
     <use xlink:href="#DejaVuSans-65" x="960.261719"/>
     <use xlink:href="#DejaVuSans-2d" x="1021.785156"/>
     <use xlink:href="#DejaVuSans-38" x="1057.869141"/>
    </g>
    <!-- 5 and 15 instances -->
    <g transform="translate(48.678275 51.522162) scale(0.102 -0.102)">
     <defs>
      <path id="DejaVuSans-35" d="M 691 4666 
L 3169 4666 
L 3169 4134 
L 1269 4134 
L 1269 2991 
Q 1406 3038 1543 3061 
Q 1681 3084 1819 3084 
Q 2600 3084 3056 2656 
Q 3513 2228 3513 1497 
Q 3513 744 3044 326 
Q 2575 -91 1722 -91 
Q 1428 -91 1123 -41 
Q 819 9 494 109 
L 494 744 
Q 775 591 1075 516 
Q 1375 441 1709 441 
Q 2250 441 2565 725 
Q 2881 1009 2881 1497 
Q 2881 1984 2565 2268 
Q 2250 2553 1709 2553 
Q 1456 2553 1204 2497 
Q 953 2441 691 2322 
L 691 4666 
z
" transform="scale(0.015625)"/>
     </defs>
     <use xlink:href="#DejaVuSans-35"/>
     <use xlink:href="#DejaVuSans-20" x="63.623047"/>
     <use xlink:href="#DejaVuSans-61" x="95.410156"/>
     <use xlink:href="#DejaVuSans-6e" x="156.689453"/>
     <use xlink:href="#DejaVuSans-64" x="220.068359"/>
     <use xlink:href="#DejaVuSans-20" x="283.544922"/>
     <use xlink:href="#DejaVuSans-31" x="315.332031"/>
     <use xlink:href="#DejaVuSans-35" x="378.955078"/>
     <use xlink:href="#DejaVuSans-20" x="442.578125"/>
     <use xlink:href="#DejaVuSans-69" x="474.365234"/>
     <use xlink:href="#DejaVuSans-6e" x="502.148438"/>
     <use xlink:href="#DejaVuSans-73" x="565.527344"/>
     <use xlink:href="#DejaVuSans-74" x="617.626953"/>
     <use xlink:href="#DejaVuSans-61" x="656.835938"/>
     <use xlink:href="#DejaVuSans-6e" x="718.115234"/>
     <use xlink:href="#DejaVuSans-63" x="781.494141"/>
     <use xlink:href="#DejaVuSans-65" x="836.474609"/>
     <use xlink:href="#DejaVuSans-73" x="897.998047"/>
    </g>
   </g>
   <g id="text_10">
    <!-- v2.6.3 -->
    <g style="fill: #808080" transform="translate(167.080625 295.7011) scale(0.1 -0.1)">
     <defs>
      <path id="DejaVuSans-76" d="M 191 3500 
L 800 3500 
L 1894 563 
L 2988 3500 
L 3597 3500 
L 2284 0 
L 1503 0 
L 191 3500 
z
" transform="scale(0.015625)"/>
     </defs>
     <use xlink:href="#DejaVuSans-76"/>
     <use xlink:href="#DejaVuSans-32" x="59.179688"/>
     <use xlink:href="#DejaVuSans-2e" x="122.802734"/>
     <use xlink:href="#DejaVuSans-36" x="154.589844"/>
     <use xlink:href="#DejaVuSans-2e" x="218.212891"/>
     <use xlink:href="#DejaVuSans-33" x="250"/>
    </g>
   </g>
   <g id="text_11">
    <!-- 10 Ellipsoid -->
    <g transform="translate(131.138438 20.877187) scale(0.18 -0.18)">
     <defs>
      <path id="DejaVuSans-70" d="M 1159 525 
L 1159 -1331 
L 581 -1331 
L 581 3500 
L 1159 3500 
L 1159 2969 
Q 1341 3281 1617 3432 
Q 1894 3584 2278 3584 
Q 2916 3584 3314 3078 
Q 3713 2572 3713 1747 
Q 3713 922 3314 415 
Q 2916 -91 2278 -91 
Q 1894 -91 1617 61 
Q 1341 213 1159 525 
z
M 3116 1747 
Q 3116 2381 2855 2742 
Q 2594 3103 2138 3103 
Q 1681 3103 1420 2742 
Q 1159 2381 1159 1747 
Q 1159 1113 1420 752 
Q 1681 391 2138 391 
Q 2594 391 2855 752 
Q 3116 1113 3116 1747 
z
" transform="scale(0.015625)"/>
     </defs>
     <use xlink:href="#DejaVuSans-31"/>
     <use xlink:href="#DejaVuSans-30" x="63.623047"/>
     <use xlink:href="#DejaVuSans-20" x="127.246094"/>
     <use xlink:href="#DejaVuSans-45" x="159.033203"/>
     <use xlink:href="#DejaVuSans-6c" x="222.216797"/>
     <use xlink:href="#DejaVuSans-6c" x="250"/>
     <use xlink:href="#DejaVuSans-69" x="277.783203"/>
     <use xlink:href="#DejaVuSans-70" x="305.566406"/>
     <use xlink:href="#DejaVuSans-73" x="369.042969"/>
     <use xlink:href="#DejaVuSans-6f" x="421.142578"/>
     <use xlink:href="#DejaVuSans-69" x="482.324219"/>
     <use xlink:href="#DejaVuSans-64" x="510.107422"/>
    </g>
   </g>
  </g>
 </g>
 <defs>
  <clipPath id="pb4960cde90">
   <rect x="45.941875" y="26.877187" width="273.64" height="273.64"/>
  </clipPath>
 </defs>
</svg>
