<?xml version="1.0" encoding="utf-8" standalone="no"?>
<!DOCTYPE svg PUBLIC "-//W3C//DTD SVG 1.1//EN"
  "http://www.w3.org/Graphics/SVG/1.1/DTD/svg11.dtd">
<svg xmlns:xlink="http://www.w3.org/1999/xlink" width="460.8pt" height="345.6pt" viewBox="0 0 460.8 345.6" xmlns="http://www.w3.org/2000/svg" version="1.1">
 <metadata>
  <rdf:RDF xmlns:dc="http://purl.org/dc/elements/1.1/" xmlns:cc="http://creativecommons.org/ns#" xmlns:rdf="http://www.w3.org/1999/02/22-rdf-syntax-ns#">
   <cc:Work>
    <dc:type rdf:resource="http://purl.org/dc/dcmitype/StillImage"/>
    <dc:date>2024-06-05T09:52:18.746541</dc:date>
    <dc:format>image/svg+xml</dc:format>
    <dc:creator>
     <cc:Agent>
      <dc:title>Matplotlib v3.7.1, https://matplotlib.org/</dc:title>
     </cc:Agent>
    </dc:creator>
   </cc:Work>
  </rdf:RDF>
 </metadata>
 <defs>
  <style type="text/css">*{stroke-linejoin: round; stroke-linecap: butt}</style>
 </defs>
 <g id="figure_1">
  <g id="patch_1">
   <path d="M 0 345.6 
L 460.8 345.6 
L 460.8 0 
L 0 0 
z
" style="fill: #ffffff"/>
  </g>
  <g id="axes_1">
   <g id="patch_2">
    <path d="M 62.208 293.76 
L 460.8 293.76 
L 460.8 3.456 
L 62.208 3.456 
z
" style="fill: #ffffff"/>
   </g>
   <g id="line2d_1"/>
   <g id="line2d_2"/>
   <g id="line2d_3"/>
   <g id="line2d_4"/>
   <g id="line2d_5">
    <path d="M 411.111668 293.76 
L 411.111668 289.927604 
L 412.557395 289.927604 
L 412.557395 286.095208 
L 412.766187 286.095208 
L 412.766187 282.262812 
L 442.09174 282.262812 
L 442.09174 278.430416 
L 442.941726 278.430416 
L 443.035551 270.765624 
L 443.16354 270.765624 
L 443.16354 266.933228 
L 443.6182 266.933228 
L 443.71905 259.268436 
L 444.210598 259.268436 
L 444.210598 255.43604 
L 444.705564 255.43604 
L 444.705564 251.603644 
L 445.922515 251.603644 
L 445.922515 247.771248 
L 447.135323 247.771248 
L 447.135323 243.938851 
L 447.94287 243.938851 
L 447.94287 240.106455 
L 448.482235 240.106455 
L 448.564356 232.441663 
L 448.764555 232.441663 
L 448.764555 228.609267 
L 449.476708 228.609267 
L 449.476708 224.776871 
L 450.952862 224.776871 
L 450.952862 220.944475 
L 458.93025 220.944475 
L 458.93025 217.112079 
L 461.8 217.112079 
L 461.8 217.112079 
" clip-path="url(#pded964c7f3)" style="fill: none; stroke: #f5deb3; stroke-width: 1.5; stroke-linecap: square"/>
   </g>
   <g id="line2d_6"/>
   <g id="line2d_7"/>
   <g id="line2d_8"/>
   <g id="line2d_9"/>
   <g id="line2d_10"/>
   <g id="line2d_11"/>
   <g id="line2d_12"/>
   <g id="line2d_13"/>
   <g id="line2d_14"/>
   <g id="line2d_15"/>
   <g id="line2d_16"/>
   <g id="line2d_17">
    <path d="M 428.075549 293.76 
L 428.075549 289.927604 
L 429.235344 289.927604 
L 429.235344 286.095208 
L 430.926297 286.095208 
L 430.926297 282.262812 
L 431.835571 282.262812 
L 431.835571 278.430416 
L 431.933659 278.430416 
L 431.933659 274.59802 
L 432.254055 274.59802 
L 432.254055 270.765624 
L 432.768049 270.765624 
L 432.768049 266.933228 
L 432.83209 266.933228 
L 432.83209 263.100832 
L 434.029585 263.100832 
L 434.029585 259.268436 
L 434.126438 259.268436 
L 434.126438 255.43604 
L 436.709789 255.43604 
L 436.709789 251.603644 
L 461.8 251.603644 
" clip-path="url(#pded964c7f3)" style="fill: none; stroke: #f5deb3; stroke-width: 1.5; stroke-linecap: square"/>
   </g>
   <g id="line2d_18"/>
   <g id="line2d_19">
    <path clip-path="url(#pded964c7f3)" style="fill: none; stroke: #f5deb3; stroke-width: 1.5; stroke-linecap: square"/>
   </g>
   <g id="line2d_20"/>
   <g id="matplotlib.axis_1">
    <g id="xtick_1">
     <g id="line2d_21">
      <path d="M 157.098733 293.76 
L 157.098733 3.456 
" clip-path="url(#pded964c7f3)" style="fill: none; stroke: #b0b0b0; stroke-width: 0.8; stroke-linecap: square"/>
     </g>
     <g id="line2d_22">
      <defs>
       <path id="md0619c2287" d="M 0 0 
L 0 3.5 
" style="stroke: #000000; stroke-width: 0.8"/>
      </defs>
      <g>
       <use xlink:href="#md0619c2287" x="157.098733" y="293.76" style="stroke: #000000; stroke-width: 0.8"/>
      </g>
     </g>
     <g id="text_1">
      <!-- 1 -->
      <g transform="translate(150.736233 315.956875) scale(0.2 -0.2)">
       <defs>
        <path id="DejaVuSans-31" d="M 794 531 
L 1825 531 
L 1825 4091 
L 703 3866 
L 703 4441 
L 1819 4666 
L 2450 4666 
L 2450 531 
L 3481 531 
L 3481 0 
L 794 0 
L 794 531 
z
" transform="scale(0.015625)"/>
       </defs>
       <use xlink:href="#DejaVuSans-31"/>
      </g>
     </g>
    </g>
    <g id="xtick_2">
     <g id="line2d_23">
      <path d="M 346.880199 293.76 
L 346.880199 3.456 
" clip-path="url(#pded964c7f3)" style="fill: none; stroke: #b0b0b0; stroke-width: 0.8; stroke-linecap: square"/>
     </g>
     <g id="line2d_24">
      <g>
       <use xlink:href="#md0619c2287" x="346.880199" y="293.76" style="stroke: #000000; stroke-width: 0.8"/>
      </g>
     </g>
     <g id="text_2">
      <!-- 3 -->
      <g transform="translate(340.517699 315.956875) scale(0.2 -0.2)">
       <defs>
        <path id="DejaVuSans-33" d="M 2597 2516 
Q 3050 2419 3304 2112 
Q 3559 1806 3559 1356 
Q 3559 666 3084 287 
Q 2609 -91 1734 -91 
Q 1441 -91 1130 -33 
Q 819 25 488 141 
L 488 750 
Q 750 597 1062 519 
Q 1375 441 1716 441 
Q 2309 441 2620 675 
Q 2931 909 2931 1356 
Q 2931 1769 2642 2001 
Q 2353 2234 1838 2234 
L 1294 2234 
L 1294 2753 
L 1863 2753 
Q 2328 2753 2575 2939 
Q 2822 3125 2822 3475 
Q 2822 3834 2567 4026 
Q 2313 4219 1838 4219 
Q 1578 4219 1281 4162 
Q 984 4106 628 3988 
L 628 4550 
Q 988 4650 1302 4700 
Q 1616 4750 1894 4750 
Q 2613 4750 3031 4423 
Q 3450 4097 3450 3541 
Q 3450 3153 3228 2886 
Q 3006 2619 2597 2516 
z
" transform="scale(0.015625)"/>
       </defs>
       <use xlink:href="#DejaVuSans-33"/>
      </g>
     </g>
    </g>
    <g id="xtick_3">
     <g id="line2d_25">
      <path d="M 90.772957 293.76 
L 90.772957 3.456 
" clip-path="url(#pded964c7f3)" style="fill: none; stroke: #b0b0b0; stroke-width: 0.8; stroke-linecap: square"/>
     </g>
     <g id="line2d_26">
      <defs>
       <path id="m843530db1f" d="M 0 0 
L 0 2 
" style="stroke: #000000; stroke-width: 0.6"/>
      </defs>
      <g>
       <use xlink:href="#m843530db1f" x="90.772957" y="293.76" style="stroke: #000000; stroke-width: 0.6"/>
      </g>
     </g>
    </g>
    <g id="xtick_4">
     <g id="line2d_27">
      <path d="M 107.482386 293.76 
L 107.482386 3.456 
" clip-path="url(#pded964c7f3)" style="fill: none; stroke: #b0b0b0; stroke-width: 0.8; stroke-linecap: square"/>
     </g>
     <g id="line2d_28">
      <g>
       <use xlink:href="#m843530db1f" x="107.482386" y="293.76" style="stroke: #000000; stroke-width: 0.6"/>
      </g>
     </g>
    </g>
    <g id="xtick_5">
     <g id="line2d_29">
      <path d="M 119.337914 293.76 
L 119.337914 3.456 
" clip-path="url(#pded964c7f3)" style="fill: none; stroke: #b0b0b0; stroke-width: 0.8; stroke-linecap: square"/>
     </g>
     <g id="line2d_30">
      <g>
       <use xlink:href="#m843530db1f" x="119.337914" y="293.76" style="stroke: #000000; stroke-width: 0.6"/>
      </g>
     </g>
    </g>
    <g id="xtick_6">
     <g id="line2d_31">
      <path d="M 128.533776 293.76 
L 128.533776 3.456 
" clip-path="url(#pded964c7f3)" style="fill: none; stroke: #b0b0b0; stroke-width: 0.8; stroke-linecap: square"/>
     </g>
     <g id="line2d_32">
      <g>
       <use xlink:href="#m843530db1f" x="128.533776" y="293.76" style="stroke: #000000; stroke-width: 0.6"/>
      </g>
     </g>
    </g>
    <g id="xtick_7">
     <g id="line2d_33">
      <path d="M 136.047342 293.76 
L 136.047342 3.456 
" clip-path="url(#pded964c7f3)" style="fill: none; stroke: #b0b0b0; stroke-width: 0.8; stroke-linecap: square"/>
     </g>
     <g id="line2d_34">
      <g>
       <use xlink:href="#m843530db1f" x="136.047342" y="293.76" style="stroke: #000000; stroke-width: 0.6"/>
      </g>
     </g>
    </g>
    <g id="xtick_8">
     <g id="line2d_35">
      <path d="M 142.399972 293.76 
L 142.399972 3.456 
" clip-path="url(#pded964c7f3)" style="fill: none; stroke: #b0b0b0; stroke-width: 0.8; stroke-linecap: square"/>
     </g>
     <g id="line2d_36">
      <g>
       <use xlink:href="#m843530db1f" x="142.399972" y="293.76" style="stroke: #000000; stroke-width: 0.6"/>
      </g>
     </g>
    </g>
    <g id="xtick_9">
     <g id="line2d_37">
      <path d="M 147.902871 293.76 
L 147.902871 3.456 
" clip-path="url(#pded964c7f3)" style="fill: none; stroke: #b0b0b0; stroke-width: 0.8; stroke-linecap: square"/>
     </g>
     <g id="line2d_38">
      <g>
       <use xlink:href="#m843530db1f" x="147.902871" y="293.76" style="stroke: #000000; stroke-width: 0.6"/>
      </g>
     </g>
    </g>
    <g id="xtick_10">
     <g id="line2d_39">
      <path d="M 152.756771 293.76 
L 152.756771 3.456 
" clip-path="url(#pded964c7f3)" style="fill: none; stroke: #b0b0b0; stroke-width: 0.8; stroke-linecap: square"/>
     </g>
     <g id="line2d_40">
      <g>
       <use xlink:href="#m843530db1f" x="152.756771" y="293.76" style="stroke: #000000; stroke-width: 0.6"/>
      </g>
     </g>
    </g>
    <g id="xtick_11">
     <g id="line2d_41">
      <path d="M 185.66369 293.76 
L 185.66369 3.456 
" clip-path="url(#pded964c7f3)" style="fill: none; stroke: #b0b0b0; stroke-width: 0.8; stroke-linecap: square"/>
     </g>
     <g id="line2d_42">
      <g>
       <use xlink:href="#m843530db1f" x="185.66369" y="293.76" style="stroke: #000000; stroke-width: 0.6"/>
      </g>
     </g>
    </g>
    <g id="xtick_12">
     <g id="line2d_43">
      <path d="M 202.373118 293.76 
L 202.373118 3.456 
" clip-path="url(#pded964c7f3)" style="fill: none; stroke: #b0b0b0; stroke-width: 0.8; stroke-linecap: square"/>
     </g>
     <g id="line2d_44">
      <g>
       <use xlink:href="#m843530db1f" x="202.373118" y="293.76" style="stroke: #000000; stroke-width: 0.6"/>
      </g>
     </g>
    </g>
    <g id="xtick_13">
     <g id="line2d_45">
      <path d="M 214.228647 293.76 
L 214.228647 3.456 
" clip-path="url(#pded964c7f3)" style="fill: none; stroke: #b0b0b0; stroke-width: 0.8; stroke-linecap: square"/>
     </g>
     <g id="line2d_46">
      <g>
       <use xlink:href="#m843530db1f" x="214.228647" y="293.76" style="stroke: #000000; stroke-width: 0.6"/>
      </g>
     </g>
    </g>
    <g id="xtick_14">
     <g id="line2d_47">
      <path d="M 223.424509 293.76 
L 223.424509 3.456 
" clip-path="url(#pded964c7f3)" style="fill: none; stroke: #b0b0b0; stroke-width: 0.8; stroke-linecap: square"/>
     </g>
     <g id="line2d_48">
      <g>
       <use xlink:href="#m843530db1f" x="223.424509" y="293.76" style="stroke: #000000; stroke-width: 0.6"/>
      </g>
     </g>
    </g>
    <g id="xtick_15">
     <g id="line2d_49">
      <path d="M 230.938075 293.76 
L 230.938075 3.456 
" clip-path="url(#pded964c7f3)" style="fill: none; stroke: #b0b0b0; stroke-width: 0.8; stroke-linecap: square"/>
     </g>
     <g id="line2d_50">
      <g>
       <use xlink:href="#m843530db1f" x="230.938075" y="293.76" style="stroke: #000000; stroke-width: 0.6"/>
      </g>
     </g>
    </g>
    <g id="xtick_16">
     <g id="line2d_51">
      <path d="M 237.290705 293.76 
L 237.290705 3.456 
" clip-path="url(#pded964c7f3)" style="fill: none; stroke: #b0b0b0; stroke-width: 0.8; stroke-linecap: square"/>
     </g>
     <g id="line2d_52">
      <g>
       <use xlink:href="#m843530db1f" x="237.290705" y="293.76" style="stroke: #000000; stroke-width: 0.6"/>
      </g>
     </g>
    </g>
    <g id="xtick_17">
     <g id="line2d_53">
      <path d="M 242.793604 293.76 
L 242.793604 3.456 
" clip-path="url(#pded964c7f3)" style="fill: none; stroke: #b0b0b0; stroke-width: 0.8; stroke-linecap: square"/>
     </g>
     <g id="line2d_54">
      <g>
       <use xlink:href="#m843530db1f" x="242.793604" y="293.76" style="stroke: #000000; stroke-width: 0.6"/>
      </g>
     </g>
    </g>
    <g id="xtick_18">
     <g id="line2d_55">
      <path d="M 247.647504 293.76 
L 247.647504 3.456 
" clip-path="url(#pded964c7f3)" style="fill: none; stroke: #b0b0b0; stroke-width: 0.8; stroke-linecap: square"/>
     </g>
     <g id="line2d_56">
      <g>
       <use xlink:href="#m843530db1f" x="247.647504" y="293.76" style="stroke: #000000; stroke-width: 0.6"/>
      </g>
     </g>
    </g>
    <g id="xtick_19">
     <g id="line2d_57">
      <path d="M 280.554423 293.76 
L 280.554423 3.456 
" clip-path="url(#pded964c7f3)" style="fill: none; stroke: #b0b0b0; stroke-width: 0.8; stroke-linecap: square"/>
     </g>
     <g id="line2d_58">
      <g>
       <use xlink:href="#m843530db1f" x="280.554423" y="293.76" style="stroke: #000000; stroke-width: 0.6"/>
      </g>
     </g>
    </g>
    <g id="xtick_20">
     <g id="line2d_59">
      <path d="M 297.263851 293.76 
L 297.263851 3.456 
" clip-path="url(#pded964c7f3)" style="fill: none; stroke: #b0b0b0; stroke-width: 0.8; stroke-linecap: square"/>
     </g>
     <g id="line2d_60">
      <g>
       <use xlink:href="#m843530db1f" x="297.263851" y="293.76" style="stroke: #000000; stroke-width: 0.6"/>
      </g>
     </g>
    </g>
    <g id="xtick_21">
     <g id="line2d_61">
      <path d="M 309.11938 293.76 
L 309.11938 3.456 
" clip-path="url(#pded964c7f3)" style="fill: none; stroke: #b0b0b0; stroke-width: 0.8; stroke-linecap: square"/>
     </g>
     <g id="line2d_62">
      <g>
       <use xlink:href="#m843530db1f" x="309.11938" y="293.76" style="stroke: #000000; stroke-width: 0.6"/>
      </g>
     </g>
    </g>
    <g id="xtick_22">
     <g id="line2d_63">
      <path d="M 318.315242 293.76 
L 318.315242 3.456 
" clip-path="url(#pded964c7f3)" style="fill: none; stroke: #b0b0b0; stroke-width: 0.8; stroke-linecap: square"/>
     </g>
     <g id="line2d_64">
      <g>
       <use xlink:href="#m843530db1f" x="318.315242" y="293.76" style="stroke: #000000; stroke-width: 0.6"/>
      </g>
     </g>
    </g>
    <g id="xtick_23">
     <g id="line2d_65">
      <path d="M 325.828808 293.76 
L 325.828808 3.456 
" clip-path="url(#pded964c7f3)" style="fill: none; stroke: #b0b0b0; stroke-width: 0.8; stroke-linecap: square"/>
     </g>
     <g id="line2d_66">
      <g>
       <use xlink:href="#m843530db1f" x="325.828808" y="293.76" style="stroke: #000000; stroke-width: 0.6"/>
      </g>
     </g>
    </g>
    <g id="xtick_24">
     <g id="line2d_67">
      <path d="M 332.181438 293.76 
L 332.181438 3.456 
" clip-path="url(#pded964c7f3)" style="fill: none; stroke: #b0b0b0; stroke-width: 0.8; stroke-linecap: square"/>
     </g>
     <g id="line2d_68">
      <g>
       <use xlink:href="#m843530db1f" x="332.181438" y="293.76" style="stroke: #000000; stroke-width: 0.6"/>
      </g>
     </g>
    </g>
    <g id="xtick_25">
     <g id="line2d_69">
      <path d="M 337.684337 293.76 
L 337.684337 3.456 
" clip-path="url(#pded964c7f3)" style="fill: none; stroke: #b0b0b0; stroke-width: 0.8; stroke-linecap: square"/>
     </g>
     <g id="line2d_70">
      <g>
       <use xlink:href="#m843530db1f" x="337.684337" y="293.76" style="stroke: #000000; stroke-width: 0.6"/>
      </g>
     </g>
    </g>
    <g id="xtick_26">
     <g id="line2d_71">
      <path d="M 342.538237 293.76 
L 342.538237 3.456 
" clip-path="url(#pded964c7f3)" style="fill: none; stroke: #b0b0b0; stroke-width: 0.8; stroke-linecap: square"/>
     </g>
     <g id="line2d_72">
      <g>
       <use xlink:href="#m843530db1f" x="342.538237" y="293.76" style="stroke: #000000; stroke-width: 0.6"/>
      </g>
     </g>
    </g>
    <g id="xtick_27">
     <g id="line2d_73">
      <path d="M 375.445156 293.76 
L 375.445156 3.456 
" clip-path="url(#pded964c7f3)" style="fill: none; stroke: #b0b0b0; stroke-width: 0.8; stroke-linecap: square"/>
     </g>
     <g id="line2d_74">
      <g>
       <use xlink:href="#m843530db1f" x="375.445156" y="293.76" style="stroke: #000000; stroke-width: 0.6"/>
      </g>
     </g>
    </g>
    <g id="xtick_28">
     <g id="line2d_75">
      <path d="M 392.154584 293.76 
L 392.154584 3.456 
" clip-path="url(#pded964c7f3)" style="fill: none; stroke: #b0b0b0; stroke-width: 0.8; stroke-linecap: square"/>
     </g>
     <g id="line2d_76">
      <g>
       <use xlink:href="#m843530db1f" x="392.154584" y="293.76" style="stroke: #000000; stroke-width: 0.6"/>
      </g>
     </g>
    </g>
    <g id="xtick_29">
     <g id="line2d_77">
      <path d="M 404.010113 293.76 
L 404.010113 3.456 
" clip-path="url(#pded964c7f3)" style="fill: none; stroke: #b0b0b0; stroke-width: 0.8; stroke-linecap: square"/>
     </g>
     <g id="line2d_78">
      <g>
       <use xlink:href="#m843530db1f" x="404.010113" y="293.76" style="stroke: #000000; stroke-width: 0.6"/>
      </g>
     </g>
    </g>
    <g id="xtick_30">
     <g id="line2d_79">
      <path d="M 413.205975 293.76 
L 413.205975 3.456 
" clip-path="url(#pded964c7f3)" style="fill: none; stroke: #b0b0b0; stroke-width: 0.8; stroke-linecap: square"/>
     </g>
     <g id="line2d_80">
      <g>
       <use xlink:href="#m843530db1f" x="413.205975" y="293.76" style="stroke: #000000; stroke-width: 0.6"/>
      </g>
     </g>
    </g>
    <g id="xtick_31">
     <g id="line2d_81">
      <path d="M 420.719541 293.76 
L 420.719541 3.456 
" clip-path="url(#pded964c7f3)" style="fill: none; stroke: #b0b0b0; stroke-width: 0.8; stroke-linecap: square"/>
     </g>
     <g id="line2d_82">
      <g>
       <use xlink:href="#m843530db1f" x="420.719541" y="293.76" style="stroke: #000000; stroke-width: 0.6"/>
      </g>
     </g>
    </g>
    <g id="xtick_32">
     <g id="line2d_83">
      <path d="M 427.072171 293.76 
L 427.072171 3.456 
" clip-path="url(#pded964c7f3)" style="fill: none; stroke: #b0b0b0; stroke-width: 0.8; stroke-linecap: square"/>
     </g>
     <g id="line2d_84">
      <g>
       <use xlink:href="#m843530db1f" x="427.072171" y="293.76" style="stroke: #000000; stroke-width: 0.6"/>
      </g>
     </g>
    </g>
    <g id="xtick_33">
     <g id="line2d_85">
      <path d="M 432.57507 293.76 
L 432.57507 3.456 
" clip-path="url(#pded964c7f3)" style="fill: none; stroke: #b0b0b0; stroke-width: 0.8; stroke-linecap: square"/>
     </g>
     <g id="line2d_86">
      <g>
       <use xlink:href="#m843530db1f" x="432.57507" y="293.76" style="stroke: #000000; stroke-width: 0.6"/>
      </g>
     </g>
    </g>
    <g id="xtick_34">
     <g id="line2d_87">
      <path d="M 437.42897 293.76 
L 437.42897 3.456 
" clip-path="url(#pded964c7f3)" style="fill: none; stroke: #b0b0b0; stroke-width: 0.8; stroke-linecap: square"/>
     </g>
     <g id="line2d_88">
      <g>
       <use xlink:href="#m843530db1f" x="437.42897" y="293.76" style="stroke: #000000; stroke-width: 0.6"/>
      </g>
     </g>
    </g>
    <g id="text_3">
     <!-- log10 of FEvals / DIM -->
     <g transform="translate(156.430563 339.313125) scale(0.2 -0.2)">
      <defs>
       <path id="DejaVuSans-6c" d="M 603 4863 
L 1178 4863 
L 1178 0 
L 603 0 
L 603 4863 
z
" transform="scale(0.015625)"/>
       <path id="DejaVuSans-6f" d="M 1959 3097 
Q 1497 3097 1228 2736 
Q 959 2375 959 1747 
Q 959 1119 1226 758 
Q 1494 397 1959 397 
Q 2419 397 2687 759 
Q 2956 1122 2956 1747 
Q 2956 2369 2687 2733 
Q 2419 3097 1959 3097 
z
M 1959 3584 
Q 2709 3584 3137 3096 
Q 3566 2609 3566 1747 
Q 3566 888 3137 398 
Q 2709 -91 1959 -91 
Q 1206 -91 779 398 
Q 353 888 353 1747 
Q 353 2609 779 3096 
Q 1206 3584 1959 3584 
z
" transform="scale(0.015625)"/>
       <path id="DejaVuSans-67" d="M 2906 1791 
Q 2906 2416 2648 2759 
Q 2391 3103 1925 3103 
Q 1463 3103 1205 2759 
Q 947 2416 947 1791 
Q 947 1169 1205 825 
Q 1463 481 1925 481 
Q 2391 481 2648 825 
Q 2906 1169 2906 1791 
z
M 3481 434 
Q 3481 -459 3084 -895 
Q 2688 -1331 1869 -1331 
Q 1566 -1331 1297 -1286 
Q 1028 -1241 775 -1147 
L 775 -588 
Q 1028 -725 1275 -790 
Q 1522 -856 1778 -856 
Q 2344 -856 2625 -561 
Q 2906 -266 2906 331 
L 2906 616 
Q 2728 306 2450 153 
Q 2172 0 1784 0 
Q 1141 0 747 490 
Q 353 981 353 1791 
Q 353 2603 747 3093 
Q 1141 3584 1784 3584 
Q 2172 3584 2450 3431 
Q 2728 3278 2906 2969 
L 2906 3500 
L 3481 3500 
L 3481 434 
z
" transform="scale(0.015625)"/>
       <path id="DejaVuSans-30" d="M 2034 4250 
Q 1547 4250 1301 3770 
Q 1056 3291 1056 2328 
Q 1056 1369 1301 889 
Q 1547 409 2034 409 
Q 2525 409 2770 889 
Q 3016 1369 3016 2328 
Q 3016 3291 2770 3770 
Q 2525 4250 2034 4250 
z
M 2034 4750 
Q 2819 4750 3233 4129 
Q 3647 3509 3647 2328 
Q 3647 1150 3233 529 
Q 2819 -91 2034 -91 
Q 1250 -91 836 529 
Q 422 1150 422 2328 
Q 422 3509 836 4129 
Q 1250 4750 2034 4750 
z
" transform="scale(0.015625)"/>
       <path id="DejaVuSans-20" transform="scale(0.015625)"/>
       <path id="DejaVuSans-66" d="M 2375 4863 
L 2375 4384 
L 1825 4384 
Q 1516 4384 1395 4259 
Q 1275 4134 1275 3809 
L 1275 3500 
L 2222 3500 
L 2222 3053 
L 1275 3053 
L 1275 0 
L 697 0 
L 697 3053 
L 147 3053 
L 147 3500 
L 697 3500 
L 697 3744 
Q 697 4328 969 4595 
Q 1241 4863 1831 4863 
L 2375 4863 
z
" transform="scale(0.015625)"/>
       <path id="DejaVuSans-46" d="M 628 4666 
L 3309 4666 
L 3309 4134 
L 1259 4134 
L 1259 2759 
L 3109 2759 
L 3109 2228 
L 1259 2228 
L 1259 0 
L 628 0 
L 628 4666 
z
" transform="scale(0.015625)"/>
       <path id="DejaVuSans-45" d="M 628 4666 
L 3578 4666 
L 3578 4134 
L 1259 4134 
L 1259 2753 
L 3481 2753 
L 3481 2222 
L 1259 2222 
L 1259 531 
L 3634 531 
L 3634 0 
L 628 0 
L 628 4666 
z
" transform="scale(0.015625)"/>
       <path id="DejaVuSans-76" d="M 191 3500 
L 800 3500 
L 1894 563 
L 2988 3500 
L 3597 3500 
L 2284 0 
L 1503 0 
L 191 3500 
z
" transform="scale(0.015625)"/>
       <path id="DejaVuSans-61" d="M 2194 1759 
Q 1497 1759 1228 1600 
Q 959 1441 959 1056 
Q 959 750 1161 570 
Q 1363 391 1709 391 
Q 2188 391 2477 730 
Q 2766 1069 2766 1631 
L 2766 1759 
L 2194 1759 
z
M 3341 1997 
L 3341 0 
L 2766 0 
L 2766 531 
Q 2569 213 2275 61 
Q 1981 -91 1556 -91 
Q 1019 -91 701 211 
Q 384 513 384 1019 
Q 384 1609 779 1909 
Q 1175 2209 1959 2209 
L 2766 2209 
L 2766 2266 
Q 2766 2663 2505 2880 
Q 2244 3097 1772 3097 
Q 1472 3097 1187 3025 
Q 903 2953 641 2809 
L 641 3341 
Q 956 3463 1253 3523 
Q 1550 3584 1831 3584 
Q 2591 3584 2966 3190 
Q 3341 2797 3341 1997 
z
" transform="scale(0.015625)"/>
       <path id="DejaVuSans-73" d="M 2834 3397 
L 2834 2853 
Q 2591 2978 2328 3040 
Q 2066 3103 1784 3103 
Q 1356 3103 1142 2972 
Q 928 2841 928 2578 
Q 928 2378 1081 2264 
Q 1234 2150 1697 2047 
L 1894 2003 
Q 2506 1872 2764 1633 
Q 3022 1394 3022 966 
Q 3022 478 2636 193 
Q 2250 -91 1575 -91 
Q 1294 -91 989 -36 
Q 684 19 347 128 
L 347 722 
Q 666 556 975 473 
Q 1284 391 1588 391 
Q 1994 391 2212 530 
Q 2431 669 2431 922 
Q 2431 1156 2273 1281 
Q 2116 1406 1581 1522 
L 1381 1569 
Q 847 1681 609 1914 
Q 372 2147 372 2553 
Q 372 3047 722 3315 
Q 1072 3584 1716 3584 
Q 2034 3584 2315 3537 
Q 2597 3491 2834 3397 
z
" transform="scale(0.015625)"/>
       <path id="DejaVuSans-2f" d="M 1625 4666 
L 2156 4666 
L 531 -594 
L 0 -594 
L 1625 4666 
z
" transform="scale(0.015625)"/>
       <path id="DejaVuSans-44" d="M 1259 4147 
L 1259 519 
L 2022 519 
Q 2988 519 3436 956 
Q 3884 1394 3884 2338 
Q 3884 3275 3436 3711 
Q 2988 4147 2022 4147 
L 1259 4147 
z
M 628 4666 
L 1925 4666 
Q 3281 4666 3915 4102 
Q 4550 3538 4550 2338 
Q 4550 1131 3912 565 
Q 3275 0 1925 0 
L 628 0 
L 628 4666 
z
" transform="scale(0.015625)"/>
       <path id="DejaVuSans-49" d="M 628 4666 
L 1259 4666 
L 1259 0 
L 628 0 
L 628 4666 
z
" transform="scale(0.015625)"/>
       <path id="DejaVuSans-4d" d="M 628 4666 
L 1569 4666 
L 2759 1491 
L 3956 4666 
L 4897 4666 
L 4897 0 
L 4281 0 
L 4281 4097 
L 3078 897 
L 2444 897 
L 1241 4097 
L 1241 0 
L 628 0 
L 628 4666 
z
" transform="scale(0.015625)"/>
      </defs>
      <use xlink:href="#DejaVuSans-6c"/>
      <use xlink:href="#DejaVuSans-6f" x="27.783203"/>
      <use xlink:href="#DejaVuSans-67" x="88.964844"/>
      <use xlink:href="#DejaVuSans-31" x="152.441406"/>
      <use xlink:href="#DejaVuSans-30" x="216.064453"/>
      <use xlink:href="#DejaVuSans-20" x="279.6875"/>
      <use xlink:href="#DejaVuSans-6f" x="311.474609"/>
      <use xlink:href="#DejaVuSans-66" x="372.65625"/>
      <use xlink:href="#DejaVuSans-20" x="407.861328"/>
      <use xlink:href="#DejaVuSans-46" x="439.648438"/>
      <use xlink:href="#DejaVuSans-45" x="497.167969"/>
      <use xlink:href="#DejaVuSans-76" x="560.351562"/>
      <use xlink:href="#DejaVuSans-61" x="619.53125"/>
      <use xlink:href="#DejaVuSans-6c" x="680.810547"/>
      <use xlink:href="#DejaVuSans-73" x="708.59375"/>
      <use xlink:href="#DejaVuSans-20" x="760.693359"/>
      <use xlink:href="#DejaVuSans-2f" x="792.480469"/>
      <use xlink:href="#DejaVuSans-20" x="826.171875"/>
      <use xlink:href="#DejaVuSans-44" x="857.958984"/>
      <use xlink:href="#DejaVuSans-49" x="934.960938"/>
      <use xlink:href="#DejaVuSans-4d" x="964.453125"/>
     </g>
    </g>
   </g>
   <g id="matplotlib.axis_2">
    <g id="ytick_1">
     <g id="line2d_89">
      <path d="M 62.208 293.76 
L 460.8 293.76 
" clip-path="url(#pded964c7f3)" style="fill: none; stroke: #b0b0b0; stroke-width: 0.8; stroke-linecap: square"/>
     </g>
     <g id="line2d_90">
      <defs>
       <path id="m5fdc92a15c" d="M 0 0 
L -3.5 0 
" style="stroke: #000000; stroke-width: 0.8"/>
      </defs>
      <g>
       <use xlink:href="#m5fdc92a15c" x="62.208" y="293.76" style="stroke: #000000; stroke-width: 0.8"/>
      </g>
     </g>
     <g id="text_4">
      <!-- 0.0 -->
      <g transform="translate(29.763 299.83875) scale(0.16 -0.16)">
       <defs>
        <path id="DejaVuSans-2e" d="M 684 794 
L 1344 794 
L 1344 0 
L 684 0 
L 684 794 
z
" transform="scale(0.015625)"/>
       </defs>
       <use xlink:href="#DejaVuSans-30"/>
       <use xlink:href="#DejaVuSans-2e" x="63.623047"/>
       <use xlink:href="#DejaVuSans-30" x="95.410156"/>
      </g>
     </g>
    </g>
    <g id="ytick_2">
     <g id="line2d_91">
      <path d="M 62.208 236.274059 
L 460.8 236.274059 
" clip-path="url(#pded964c7f3)" style="fill: none; stroke: #b0b0b0; stroke-width: 0.8; stroke-linecap: square"/>
     </g>
     <g id="line2d_92">
      <g>
       <use xlink:href="#m5fdc92a15c" x="62.208" y="236.274059" style="stroke: #000000; stroke-width: 0.8"/>
      </g>
     </g>
     <g id="text_5">
      <!-- 0.2 -->
      <g transform="translate(29.763 242.352809) scale(0.16 -0.16)">
       <defs>
        <path id="DejaVuSans-32" d="M 1228 531 
L 3431 531 
L 3431 0 
L 469 0 
L 469 531 
Q 828 903 1448 1529 
Q 2069 2156 2228 2338 
Q 2531 2678 2651 2914 
Q 2772 3150 2772 3378 
Q 2772 3750 2511 3984 
Q 2250 4219 1831 4219 
Q 1534 4219 1204 4116 
Q 875 4013 500 3803 
L 500 4441 
Q 881 4594 1212 4672 
Q 1544 4750 1819 4750 
Q 2544 4750 2975 4387 
Q 3406 4025 3406 3419 
Q 3406 3131 3298 2873 
Q 3191 2616 2906 2266 
Q 2828 2175 2409 1742 
Q 1991 1309 1228 531 
z
" transform="scale(0.015625)"/>
       </defs>
       <use xlink:href="#DejaVuSans-30"/>
       <use xlink:href="#DejaVuSans-2e" x="63.623047"/>
       <use xlink:href="#DejaVuSans-32" x="95.410156"/>
      </g>
     </g>
    </g>
    <g id="ytick_3">
     <g id="line2d_93">
      <path d="M 62.208 178.788119 
L 460.8 178.788119 
" clip-path="url(#pded964c7f3)" style="fill: none; stroke: #b0b0b0; stroke-width: 0.8; stroke-linecap: square"/>
     </g>
     <g id="line2d_94">
      <g>
       <use xlink:href="#m5fdc92a15c" x="62.208" y="178.788119" style="stroke: #000000; stroke-width: 0.8"/>
      </g>
     </g>
     <g id="text_6">
      <!-- 0.4 -->
      <g transform="translate(29.763 184.866869) scale(0.16 -0.16)">
       <defs>
        <path id="DejaVuSans-34" d="M 2419 4116 
L 825 1625 
L 2419 1625 
L 2419 4116 
z
M 2253 4666 
L 3047 4666 
L 3047 1625 
L 3713 1625 
L 3713 1100 
L 3047 1100 
L 3047 0 
L 2419 0 
L 2419 1100 
L 313 1100 
L 313 1709 
L 2253 4666 
z
" transform="scale(0.015625)"/>
       </defs>
       <use xlink:href="#DejaVuSans-30"/>
       <use xlink:href="#DejaVuSans-2e" x="63.623047"/>
       <use xlink:href="#DejaVuSans-34" x="95.410156"/>
      </g>
     </g>
    </g>
    <g id="ytick_4">
     <g id="line2d_95">
      <path d="M 62.208 121.302178 
L 460.8 121.302178 
" clip-path="url(#pded964c7f3)" style="fill: none; stroke: #b0b0b0; stroke-width: 0.8; stroke-linecap: square"/>
     </g>
     <g id="line2d_96">
      <g>
       <use xlink:href="#m5fdc92a15c" x="62.208" y="121.302178" style="stroke: #000000; stroke-width: 0.8"/>
      </g>
     </g>
     <g id="text_7">
      <!-- 0.6 -->
      <g transform="translate(29.763 127.380928) scale(0.16 -0.16)">
       <defs>
        <path id="DejaVuSans-36" d="M 2113 2584 
Q 1688 2584 1439 2293 
Q 1191 2003 1191 1497 
Q 1191 994 1439 701 
Q 1688 409 2113 409 
Q 2538 409 2786 701 
Q 3034 994 3034 1497 
Q 3034 2003 2786 2293 
Q 2538 2584 2113 2584 
z
M 3366 4563 
L 3366 3988 
Q 3128 4100 2886 4159 
Q 2644 4219 2406 4219 
Q 1781 4219 1451 3797 
Q 1122 3375 1075 2522 
Q 1259 2794 1537 2939 
Q 1816 3084 2150 3084 
Q 2853 3084 3261 2657 
Q 3669 2231 3669 1497 
Q 3669 778 3244 343 
Q 2819 -91 2113 -91 
Q 1303 -91 875 529 
Q 447 1150 447 2328 
Q 447 3434 972 4092 
Q 1497 4750 2381 4750 
Q 2619 4750 2861 4703 
Q 3103 4656 3366 4563 
z
" transform="scale(0.015625)"/>
       </defs>
       <use xlink:href="#DejaVuSans-30"/>
       <use xlink:href="#DejaVuSans-2e" x="63.623047"/>
       <use xlink:href="#DejaVuSans-36" x="95.410156"/>
      </g>
     </g>
    </g>
    <g id="ytick_5">
     <g id="line2d_97">
      <path d="M 62.208 63.816238 
L 460.8 63.816238 
" clip-path="url(#pded964c7f3)" style="fill: none; stroke: #b0b0b0; stroke-width: 0.8; stroke-linecap: square"/>
     </g>
     <g id="line2d_98">
      <g>
       <use xlink:href="#m5fdc92a15c" x="62.208" y="63.816238" style="stroke: #000000; stroke-width: 0.8"/>
      </g>
     </g>
     <g id="text_8">
      <!-- 0.8 -->
      <g transform="translate(29.763 69.894988) scale(0.16 -0.16)">
       <defs>
        <path id="DejaVuSans-38" d="M 2034 2216 
Q 1584 2216 1326 1975 
Q 1069 1734 1069 1313 
Q 1069 891 1326 650 
Q 1584 409 2034 409 
Q 2484 409 2743 651 
Q 3003 894 3003 1313 
Q 3003 1734 2745 1975 
Q 2488 2216 2034 2216 
z
M 1403 2484 
Q 997 2584 770 2862 
Q 544 3141 544 3541 
Q 544 4100 942 4425 
Q 1341 4750 2034 4750 
Q 2731 4750 3128 4425 
Q 3525 4100 3525 3541 
Q 3525 3141 3298 2862 
Q 3072 2584 2669 2484 
Q 3125 2378 3379 2068 
Q 3634 1759 3634 1313 
Q 3634 634 3220 271 
Q 2806 -91 2034 -91 
Q 1263 -91 848 271 
Q 434 634 434 1313 
Q 434 1759 690 2068 
Q 947 2378 1403 2484 
z
M 1172 3481 
Q 1172 3119 1398 2916 
Q 1625 2713 2034 2713 
Q 2441 2713 2670 2916 
Q 2900 3119 2900 3481 
Q 2900 3844 2670 4047 
Q 2441 4250 2034 4250 
Q 1625 4250 1398 4047 
Q 1172 3844 1172 3481 
z
" transform="scale(0.015625)"/>
       </defs>
       <use xlink:href="#DejaVuSans-30"/>
       <use xlink:href="#DejaVuSans-2e" x="63.623047"/>
       <use xlink:href="#DejaVuSans-38" x="95.410156"/>
      </g>
     </g>
    </g>
    <g id="ytick_6">
     <g id="line2d_99">
      <path d="M 62.208 6.330297 
L 460.8 6.330297 
" clip-path="url(#pded964c7f3)" style="fill: none; stroke: #b0b0b0; stroke-width: 0.8; stroke-linecap: square"/>
     </g>
     <g id="line2d_100">
      <g>
       <use xlink:href="#m5fdc92a15c" x="62.208" y="6.330297" style="stroke: #000000; stroke-width: 0.8"/>
      </g>
     </g>
     <g id="text_9">
      <!-- 1.0 -->
      <g transform="translate(29.763 12.409047) scale(0.16 -0.16)">
       <use xlink:href="#DejaVuSans-31"/>
       <use xlink:href="#DejaVuSans-2e" x="63.623047"/>
       <use xlink:href="#DejaVuSans-30" x="95.410156"/>
      </g>
     </g>
    </g>
    <g id="text_10">
     <!-- proportion of trials -->
     <g transform="translate(21.603625 241.61425) rotate(-90) scale(0.2 -0.2)">
      <defs>
       <path id="DejaVuSans-70" d="M 1159 525 
L 1159 -1331 
L 581 -1331 
L 581 3500 
L 1159 3500 
L 1159 2969 
Q 1341 3281 1617 3432 
Q 1894 3584 2278 3584 
Q 2916 3584 3314 3078 
Q 3713 2572 3713 1747 
Q 3713 922 3314 415 
Q 2916 -91 2278 -91 
Q 1894 -91 1617 61 
Q 1341 213 1159 525 
z
M 3116 1747 
Q 3116 2381 2855 2742 
Q 2594 3103 2138 3103 
Q 1681 3103 1420 2742 
Q 1159 2381 1159 1747 
Q 1159 1113 1420 752 
Q 1681 391 2138 391 
Q 2594 391 2855 752 
Q 3116 1113 3116 1747 
z
" transform="scale(0.015625)"/>
       <path id="DejaVuSans-72" d="M 2631 2963 
Q 2534 3019 2420 3045 
Q 2306 3072 2169 3072 
Q 1681 3072 1420 2755 
Q 1159 2438 1159 1844 
L 1159 0 
L 581 0 
L 581 3500 
L 1159 3500 
L 1159 2956 
Q 1341 3275 1631 3429 
Q 1922 3584 2338 3584 
Q 2397 3584 2469 3576 
Q 2541 3569 2628 3553 
L 2631 2963 
z
" transform="scale(0.015625)"/>
       <path id="DejaVuSans-74" d="M 1172 4494 
L 1172 3500 
L 2356 3500 
L 2356 3053 
L 1172 3053 
L 1172 1153 
Q 1172 725 1289 603 
Q 1406 481 1766 481 
L 2356 481 
L 2356 0 
L 1766 0 
Q 1100 0 847 248 
Q 594 497 594 1153 
L 594 3053 
L 172 3053 
L 172 3500 
L 594 3500 
L 594 4494 
L 1172 4494 
z
" transform="scale(0.015625)"/>
       <path id="DejaVuSans-69" d="M 603 3500 
L 1178 3500 
L 1178 0 
L 603 0 
L 603 3500 
z
M 603 4863 
L 1178 4863 
L 1178 4134 
L 603 4134 
L 603 4863 
z
" transform="scale(0.015625)"/>
       <path id="DejaVuSans-6e" d="M 3513 2113 
L 3513 0 
L 2938 0 
L 2938 2094 
Q 2938 2591 2744 2837 
Q 2550 3084 2163 3084 
Q 1697 3084 1428 2787 
Q 1159 2491 1159 1978 
L 1159 0 
L 581 0 
L 581 3500 
L 1159 3500 
L 1159 2956 
Q 1366 3272 1645 3428 
Q 1925 3584 2291 3584 
Q 2894 3584 3203 3211 
Q 3513 2838 3513 2113 
z
" transform="scale(0.015625)"/>
      </defs>
      <use xlink:href="#DejaVuSans-70"/>
      <use xlink:href="#DejaVuSans-72" x="63.476562"/>
      <use xlink:href="#DejaVuSans-6f" x="102.339844"/>
      <use xlink:href="#DejaVuSans-70" x="163.521484"/>
      <use xlink:href="#DejaVuSans-6f" x="226.998047"/>
      <use xlink:href="#DejaVuSans-72" x="288.179688"/>
      <use xlink:href="#DejaVuSans-74" x="329.292969"/>
      <use xlink:href="#DejaVuSans-69" x="368.501953"/>
      <use xlink:href="#DejaVuSans-6f" x="396.285156"/>
      <use xlink:href="#DejaVuSans-6e" x="457.466797"/>
      <use xlink:href="#DejaVuSans-20" x="520.845703"/>
      <use xlink:href="#DejaVuSans-6f" x="552.632812"/>
      <use xlink:href="#DejaVuSans-66" x="613.814453"/>
      <use xlink:href="#DejaVuSans-20" x="649.019531"/>
      <use xlink:href="#DejaVuSans-74" x="680.806641"/>
      <use xlink:href="#DejaVuSans-72" x="720.015625"/>
      <use xlink:href="#DejaVuSans-69" x="761.128906"/>
      <use xlink:href="#DejaVuSans-61" x="788.912109"/>
      <use xlink:href="#DejaVuSans-6c" x="850.191406"/>
      <use xlink:href="#DejaVuSans-73" x="877.974609"/>
     </g>
    </g>
   </g>
   <g id="line2d_101">
    <path d="M 200.331531 293.76 
L 200.331531 289.927604 
L 203.22285 289.927604 
L 203.22285 286.095208 
L 203.923329 286.095208 
L 203.923329 282.262812 
L 209.019063 282.262812 
L 209.019063 278.430416 
L 209.484067 278.430416 
L 209.484067 274.59802 
L 209.829408 274.59802 
L 209.829408 270.765624 
L 210.455115 270.765624 
L 210.455115 266.933228 
L 211.293324 266.933228 
L 211.293324 263.100832 
L 211.706121 263.100832 
L 211.706121 259.268436 
L 213.605806 259.268436 
L 213.605806 255.43604 
L 215.646348 255.43604 
L 215.646348 251.603644 
L 215.820179 251.603644 
L 215.820179 247.771248 
L 217.06501 247.771248 
L 217.06501 243.938851 
L 220.566556 243.938851 
L 220.566556 240.106455 
L 221.570144 240.106455 
L 221.570144 236.274059 
L 230.541237 236.274059 
L 230.541237 232.441663 
L 230.662419 232.441663 
L 230.662419 228.609267 
L 231.058098 228.609267 
L 231.058098 224.776871 
L 244.755182 224.776871 
L 244.755182 220.944475 
L 254.816211 220.944475 
L 254.816211 217.112079 
L 261.538223 217.112079 
L 261.538223 213.279683 
L 264.372193 213.279683 
L 264.372193 209.447287 
L 264.410319 209.447287 
L 264.410319 205.614891 
L 265.068129 205.614891 
L 265.068129 201.782495 
L 265.848303 201.782495 
L 265.848303 197.950099 
L 276.961145 197.950099 
L 276.961145 194.117703 
L 286.121019 194.117703 
L 286.121019 190.285307 
L 320.543163 190.285307 
L 320.543163 186.452911 
L 336.242804 186.452911 
L 336.242804 182.620515 
L 337.608285 182.620515 
L 337.608285 178.788119 
L 337.901407 178.788119 
L 337.901407 174.955723 
L 339.629949 174.955723 
L 339.629949 171.123327 
L 340.113563 171.123327 
L 340.113563 167.290931 
L 341.989708 167.290931 
L 341.989708 163.458535 
L 342.366168 163.458535 
L 342.366168 159.626139 
L 342.695909 159.626139 
L 342.695909 155.793743 
L 342.813199 155.793743 
L 342.813199 151.961347 
L 342.924487 151.961347 
L 342.924487 148.12895 
L 342.953962 148.12895 
L 342.953962 144.296554 
L 343.885091 144.296554 
L 343.885091 140.464158 
L 343.962573 140.464158 
L 343.962573 136.631762 
L 346.481626 136.631762 
L 346.481626 132.799366 
L 346.818337 132.799366 
L 346.818337 128.96697 
L 350.122335 128.96697 
L 350.122335 125.134574 
L 372.902362 125.134574 
L 372.902362 121.302178 
L 377.939649 121.302178 
L 377.939649 117.469782 
L 384.19394 117.469782 
L 384.19394 113.637386 
L 409.866864 113.637386 
L 409.866864 109.80499 
L 410.141452 109.80499 
L 410.141452 105.972594 
L 410.250955 105.972594 
L 410.250955 102.140198 
L 410.684544 102.140198 
L 410.684544 98.307802 
L 410.738396 98.307802 
L 410.738396 94.475406 
L 411.581376 94.475406 
L 411.581376 90.64301 
L 412.188601 90.64301 
L 412.188601 86.810614 
L 424.205541 86.810614 
L 424.205541 82.978218 
L 434.351547 82.978218 
L 434.351547 79.145822 
L 437.354495 79.145822 
L 437.354495 75.313426 
L 437.490739 75.313426 
L 437.490739 71.48103 
L 440.794722 71.48103 
L 440.794722 67.648634 
L 440.794722 67.648634 
L 440.794722 67.648634 
L 460.8 67.648634 
" clip-path="url(#pded964c7f3)" style="fill: none; stroke: #000000; stroke-width: 1.5; stroke-linecap: square"/>
   </g>
   <g id="line2d_102">
    <defs>
     <path id="m7cb60ca712" d="M 0 14.142136 
L 8.485281 0 
L 0 -14.142136 
L -8.485281 0 
z
" style="stroke: #000000; stroke-width: 1.5; stroke-linejoin: miter"/>
    </defs>
    <g clip-path="url(#pded964c7f3)">
     <use xlink:href="#m7cb60ca712" x="215.820179" y="251.603644" style="fill-opacity: 0; stroke: #000000; stroke-width: 1.5; stroke-linejoin: miter"/>
     <use xlink:href="#m7cb60ca712" x="265.848303" y="201.782495" style="fill-opacity: 0; stroke: #000000; stroke-width: 1.5; stroke-linejoin: miter"/>
     <use xlink:href="#m7cb60ca712" x="342.695909" y="159.626139" style="fill-opacity: 0; stroke: #000000; stroke-width: 1.5; stroke-linejoin: miter"/>
     <use xlink:href="#m7cb60ca712" x="410.141452" y="109.80499" style="fill-opacity: 0; stroke: #000000; stroke-width: 1.5; stroke-linejoin: miter"/>
     <use xlink:href="#m7cb60ca712" x="440.794722" y="67.648634" style="fill-opacity: 0; stroke: #000000; stroke-width: 1.5; stroke-linejoin: miter"/>
    </g>
   </g>
   <g id="line2d_103">
    <path clip-path="url(#pded964c7f3)" style="fill: none; stroke: #000000; stroke-width: 1.5; stroke-linecap: square"/>
    <g clip-path="url(#pded964c7f3)">
     <use xlink:href="#m7cb60ca712" x="-1" y="581.189703" style="fill-opacity: 0; stroke: #000000; stroke-width: 1.5; stroke-linejoin: miter"/>
     <use xlink:href="#m7cb60ca712" x="460.8" y="581.189703" style="fill-opacity: 0; stroke: #000000; stroke-width: 1.5; stroke-linejoin: miter"/>
    </g>
   </g>
   <g id="line2d_104">
    <path d="M 202.952837 293.76 
L 202.952837 289.927604 
L 206.704776 289.927604 
L 206.704776 286.095208 
L 212.438892 286.095208 
L 212.438892 282.262812 
L 212.707016 282.262812 
L 212.707016 278.430416 
L 216.848049 278.430416 
L 216.848049 274.59802 
L 218.226614 274.59802 
L 218.226614 270.765624 
L 219.196862 270.765624 
L 219.196862 266.933228 
L 222.968682 266.933228 
L 222.968682 263.100832 
L 231.855035 263.100832 
L 231.855035 259.268436 
L 235.944325 259.268436 
L 235.944325 255.43604 
L 238.106782 255.43604 
L 238.106782 251.603644 
L 238.864534 251.603644 
L 238.864534 247.771248 
L 241.151533 247.771248 
L 241.151533 243.938851 
L 244.236183 243.938851 
L 244.236183 240.106455 
L 246.262244 240.106455 
L 246.262244 236.274059 
L 246.615883 236.274059 
L 246.615883 232.441663 
L 250.553268 232.441663 
L 250.553268 228.609267 
L 256.540042 228.609267 
L 256.540042 224.776871 
L 261.668765 224.776871 
L 261.668765 220.944475 
L 266.002581 220.944475 
L 266.002581 217.112079 
L 268.062105 217.112079 
L 268.062105 213.279683 
L 269.000002 213.279683 
L 269.000002 209.447287 
L 270.630992 209.447287 
L 270.630992 205.614891 
L 279.999513 205.614891 
L 279.999513 201.782495 
L 284.355569 201.782495 
L 284.355569 197.950099 
L 350.720785 197.950099 
L 350.720785 194.117703 
L 353.384733 194.117703 
L 353.384733 190.285307 
L 353.906674 190.285307 
L 353.906674 186.452911 
L 354.352534 186.452911 
L 354.352534 182.620515 
L 354.410075 182.620515 
L 354.410075 178.788119 
L 356.655509 178.788119 
L 356.655509 174.955723 
L 357.499336 174.955723 
L 357.499336 171.123327 
L 358.585292 171.123327 
L 358.585292 167.290931 
L 360.645453 167.290931 
L 360.645453 163.458535 
L 364.033674 163.458535 
L 364.033674 159.626139 
L 372.141445 159.626139 
L 372.141445 155.793743 
L 376.189455 155.793743 
L 376.189455 151.961347 
L 378.156785 151.961347 
L 378.156785 148.12895 
L 379.467894 148.12895 
L 379.467894 144.296554 
L 381.336749 144.296554 
L 381.336749 140.464158 
L 384.619171 140.464158 
L 384.619171 136.631762 
L 386.283864 136.631762 
L 386.283864 132.799366 
L 386.764174 132.799366 
L 386.764174 128.96697 
L 388.145916 128.96697 
L 388.145916 125.134574 
L 395.010178 125.134574 
L 395.010178 121.302178 
L 397.763463 121.302178 
L 397.763463 117.469782 
L 399.446335 117.469782 
L 399.446335 113.637386 
L 415.100304 113.637386 
L 415.100304 109.80499 
L 417.118206 109.80499 
L 417.118206 105.972594 
L 417.726649 105.972594 
L 417.726649 102.140198 
L 417.852017 102.140198 
L 417.852017 98.307802 
L 419.027944 98.307802 
L 419.027944 94.475406 
L 420.17455 94.475406 
L 420.17455 90.64301 
L 420.444749 90.64301 
L 420.444749 86.810614 
L 440.0329 86.810614 
L 440.0329 82.978218 
L 440.033759 82.978218 
L 440.033759 79.145822 
L 440.033759 79.145822 
L 440.033759 79.145822 
L 460.8 79.145822 
" clip-path="url(#pded964c7f3)" style="fill: none; stroke: #000000; stroke-width: 1.5; stroke-linecap: square"/>
   </g>
   <g id="line2d_105">
    <defs>
     <path id="ma5a9d7a1f8" d="M 0 7.5 
C 1.989023 7.5 3.896849 6.709753 5.303301 5.303301 
C 6.709753 3.896849 7.5 1.989023 7.5 0 
C 7.5 -1.989023 6.709753 -3.896849 5.303301 -5.303301 
C 3.896849 -6.709753 1.989023 -7.5 0 -7.5 
C -1.989023 -7.5 -3.896849 -6.709753 -5.303301 -5.303301 
C -6.709753 -3.896849 -7.5 -1.989023 -7.5 0 
C -7.5 1.989023 -6.709753 3.896849 -5.303301 5.303301 
C -3.896849 6.709753 -1.989023 7.5 0 7.5 
z
" style="stroke: #000000; stroke-width: 1.5"/>
    </defs>
    <g clip-path="url(#pded964c7f3)">
     <use xlink:href="#ma5a9d7a1f8" x="269.000002" y="213.279683" style="fill-opacity: 0; stroke: #000000; stroke-width: 1.5"/>
     <use xlink:href="#ma5a9d7a1f8" x="354.352534" y="186.452911" style="fill-opacity: 0; stroke: #000000; stroke-width: 1.5"/>
     <use xlink:href="#ma5a9d7a1f8" x="417.726649" y="105.972594" style="fill-opacity: 0; stroke: #000000; stroke-width: 1.5"/>
     <use xlink:href="#ma5a9d7a1f8" x="440.033759" y="82.978218" style="fill-opacity: 0; stroke: #000000; stroke-width: 1.5"/>
     <use xlink:href="#ma5a9d7a1f8" x="440.033759" y="79.145822" style="fill-opacity: 0; stroke: #000000; stroke-width: 1.5"/>
    </g>
   </g>
   <g id="line2d_106">
    <path clip-path="url(#pded964c7f3)" style="fill: none; stroke: #000000; stroke-width: 1.5; stroke-linecap: square"/>
   </g>
   <g id="line2d_107">
    <path d="M 336.684542 293.76 
L 336.684542 289.927604 
L 340.366534 289.927604 
L 340.366534 286.095208 
L 341.081883 286.095208 
L 341.081883 282.262812 
L 341.743035 282.262812 
L 341.743035 278.430416 
L 342.014062 278.430416 
L 342.014062 274.59802 
L 342.114806 274.59802 
L 342.114806 270.765624 
L 342.389152 270.765624 
L 342.389152 266.933228 
L 342.659401 266.933228 
L 342.659401 263.100832 
L 342.935826 263.100832 
L 342.935826 259.268436 
L 343.508899 259.268436 
L 343.508899 255.43604 
L 343.960362 255.43604 
L 343.960362 251.603644 
L 344.025559 251.603644 
L 344.025559 247.771248 
L 344.090652 247.771248 
L 344.090652 243.938851 
L 344.113797 243.938851 
L 344.113797 240.106455 
L 345.067842 240.106455 
L 345.067842 236.274059 
L 346.320067 236.274059 
L 346.320067 232.441663 
L 347.01905 232.441663 
L 347.01905 228.609267 
L 347.699305 228.609267 
L 347.699305 224.776871 
L 347.839455 224.776871 
L 347.839455 220.944475 
L 347.8465 220.944475 
L 347.8465 217.112079 
L 349.027029 217.112079 
L 349.027029 213.279683 
L 377.214232 213.279683 
L 377.214232 209.447287 
L 378.5867 209.447287 
L 378.5867 205.614891 
L 379.255696 205.614891 
L 379.255696 201.782495 
L 380.017867 201.782495 
L 380.017867 197.950099 
L 381.210641 197.950099 
L 381.210641 194.117703 
L 382.287041 194.117703 
L 382.287041 190.285307 
L 383.046202 190.285307 
L 383.046202 186.452911 
L 386.550695 186.452911 
L 386.550695 182.620515 
L 396.160655 182.620515 
L 396.160655 178.788119 
L 396.292876 178.788119 
L 396.292876 174.955723 
L 411.450207 174.955723 
L 411.450207 171.123327 
L 412.309443 171.123327 
L 412.309443 167.290931 
L 412.480713 167.290931 
L 412.480713 163.458535 
L 412.663385 163.458535 
L 412.663385 159.626139 
L 413.245312 159.626139 
L 413.245312 155.793743 
L 413.247576 155.793743 
L 413.247576 151.961347 
L 414.276206 151.961347 
L 414.276206 148.12895 
L 416.767987 148.12895 
L 416.767987 144.296554 
L 425.222271 144.296554 
L 425.222271 140.464158 
L 436.725628 140.464158 
L 436.725628 136.631762 
L 439.227151 136.631762 
L 439.227151 132.799366 
L 439.941669 132.799366 
L 439.941669 128.96697 
L 439.941669 128.96697 
L 439.941669 128.96697 
L 460.8 128.96697 
" clip-path="url(#pded964c7f3)" style="fill: none; stroke: #00bfbf; stroke-width: 1.5; stroke-linecap: square"/>
   </g>
   <g id="line2d_108">
    <defs>
     <path id="m5e6d651b6b" d="M 0 14.142136 
L 8.485281 0 
L 0 -14.142136 
L -8.485281 0 
z
" style="stroke: #00bfbf; stroke-width: 1.5; stroke-linejoin: miter"/>
    </defs>
    <g clip-path="url(#pded964c7f3)">
     <use xlink:href="#m5e6d651b6b" x="347.8465" y="220.944475" style="fill-opacity: 0; stroke: #00bfbf; stroke-width: 1.5; stroke-linejoin: miter"/>
     <use xlink:href="#m5e6d651b6b" x="396.160655" y="182.620515" style="fill-opacity: 0; stroke: #00bfbf; stroke-width: 1.5; stroke-linejoin: miter"/>
     <use xlink:href="#m5e6d651b6b" x="439.941669" y="132.799366" style="fill-opacity: 0; stroke: #00bfbf; stroke-width: 1.5; stroke-linejoin: miter"/>
     <use xlink:href="#m5e6d651b6b" x="439.941669" y="128.96697" style="fill-opacity: 0; stroke: #00bfbf; stroke-width: 1.5; stroke-linejoin: miter"/>
    </g>
   </g>
   <g id="line2d_109">
    <path clip-path="url(#pded964c7f3)" style="fill: none; stroke: #00bfbf; stroke-width: 1.5; stroke-linecap: square"/>
    <g clip-path="url(#pded964c7f3)">
     <use xlink:href="#m5e6d651b6b" x="-1" y="581.189703" style="fill-opacity: 0; stroke: #00bfbf; stroke-width: 1.5; stroke-linejoin: miter"/>
     <use xlink:href="#m5e6d651b6b" x="460.8" y="581.189703" style="fill-opacity: 0; stroke: #00bfbf; stroke-width: 1.5; stroke-linejoin: miter"/>
    </g>
   </g>
   <g id="line2d_110">
    <path d="M 264.226991 293.76 
L 264.226991 289.927604 
L 355.457404 289.927604 
L 355.457404 286.095208 
L 358.113409 286.095208 
L 358.113409 282.262812 
L 358.332473 282.262812 
L 358.332473 278.430416 
L 358.998122 278.430416 
L 358.998122 274.59802 
L 360.241429 274.59802 
L 360.241429 270.765624 
L 361.601413 270.765624 
L 361.601413 266.933228 
L 361.815651 266.933228 
L 361.815651 263.100832 
L 362.400187 263.100832 
L 362.400187 259.268436 
L 367.486803 259.268436 
L 367.486803 255.43604 
L 377.554806 255.43604 
L 377.554806 251.603644 
L 388.992581 251.603644 
L 388.992581 247.771248 
L 389.325332 247.771248 
L 389.325332 243.938851 
L 390.571975 243.938851 
L 390.571975 240.106455 
L 390.577684 240.106455 
L 390.577684 236.274059 
L 390.918812 236.274059 
L 390.918812 232.441663 
L 391.960093 232.441663 
L 391.960093 228.609267 
L 393.000952 228.609267 
L 393.000952 224.776871 
L 393.4227 224.776871 
L 393.4227 220.944475 
L 394.234533 220.944475 
L 394.234533 217.112079 
L 396.997188 217.112079 
L 396.997188 213.279683 
L 397.925593 213.279683 
L 397.925593 209.447287 
L 399.303662 209.447287 
L 399.303662 205.614891 
L 399.756773 205.614891 
L 399.756773 201.782495 
L 400.364248 201.782495 
L 400.364248 197.950099 
L 402.58858 197.950099 
L 402.58858 194.117703 
L 414.8886 194.117703 
L 414.8886 190.285307 
L 415.931011 190.285307 
L 415.931011 186.452911 
L 416.369375 186.452911 
L 416.369375 182.620515 
L 416.465059 182.620515 
L 416.465059 178.788119 
L 418.829957 178.788119 
L 418.829957 174.955723 
L 419.323684 174.955723 
L 419.323684 171.123327 
L 420.76845 171.123327 
L 420.76845 167.290931 
L 420.874818 167.290931 
L 420.874818 163.458535 
L 420.975282 163.458535 
L 420.975282 159.626139 
L 421.411699 159.626139 
L 421.411699 155.793743 
L 422.087773 155.793743 
L 422.087773 151.961347 
L 441.765471 151.961347 
L 441.765471 148.12895 
L 441.765471 148.12895 
L 441.765471 148.12895 
L 460.8 148.12895 
" clip-path="url(#pded964c7f3)" style="fill: none; stroke: #00bfbf; stroke-width: 1.5; stroke-linecap: square"/>
   </g>
   <g id="line2d_111">
    <defs>
     <path id="m76eaee9513" d="M 0 7.5 
C 1.989023 7.5 3.896849 6.709753 5.303301 5.303301 
C 6.709753 3.896849 7.5 1.989023 7.5 0 
C 7.5 -1.989023 6.709753 -3.896849 5.303301 -5.303301 
C 3.896849 -6.709753 1.989023 -7.5 0 -7.5 
C -1.989023 -7.5 -3.896849 -6.709753 -5.303301 -5.303301 
C -6.709753 -3.896849 -7.5 -1.989023 -7.5 0 
C -7.5 1.989023 -6.709753 3.896849 -5.303301 5.303301 
C -3.896849 6.709753 -1.989023 7.5 0 7.5 
z
" style="stroke: #00bfbf; stroke-width: 1.5"/>
    </defs>
    <g clip-path="url(#pded964c7f3)">
     <use xlink:href="#m76eaee9513" x="264.226991" y="293.76" style="fill-opacity: 0; stroke: #00bfbf; stroke-width: 1.5"/>
     <use xlink:href="#m76eaee9513" x="388.992581" y="251.603644" style="fill-opacity: 0; stroke: #00bfbf; stroke-width: 1.5"/>
     <use xlink:href="#m76eaee9513" x="420.874818" y="167.290931" style="fill-opacity: 0; stroke: #00bfbf; stroke-width: 1.5"/>
     <use xlink:href="#m76eaee9513" x="441.765471" y="148.12895" style="fill-opacity: 0; stroke: #00bfbf; stroke-width: 1.5"/>
    </g>
   </g>
   <g id="line2d_112">
    <path clip-path="url(#pded964c7f3)" style="fill: none; stroke: #00bfbf; stroke-width: 1.5; stroke-linecap: square"/>
   </g>
   <g id="line2d_113">
    <path d="M 345.630269 293.76 
L 345.630269 289.927604 
L 348.758191 289.927604 
L 348.758191 286.095208 
L 349.177361 286.095208 
L 349.177361 282.262812 
L 349.440583 282.262812 
L 349.440583 278.430416 
L 349.663632 278.430416 
L 349.663632 274.59802 
L 350.337946 274.59802 
L 350.337946 270.765624 
L 350.948233 270.765624 
L 350.948233 266.933228 
L 350.979024 266.933228 
L 350.979024 263.100832 
L 350.993012 263.100832 
L 350.993012 259.268436 
L 351.079635 259.268436 
L 351.079635 255.43604 
L 351.155861 255.43604 
L 351.155861 251.603644 
L 351.167933 251.603644 
L 351.167933 247.771248 
L 352.225682 247.771248 
L 352.225682 243.938851 
L 352.492674 243.938851 
L 352.492674 240.106455 
L 352.654193 240.106455 
L 352.654193 236.274059 
L 353.837985 236.274059 
L 353.837985 232.441663 
L 354.256167 232.441663 
L 354.256167 228.609267 
L 354.27167 228.609267 
L 354.27167 224.776871 
L 354.830167 224.776871 
L 354.830167 220.944475 
L 355.34178 220.944475 
L 355.34178 217.112079 
L 355.504231 217.112079 
L 355.504231 213.279683 
L 383.638214 213.279683 
L 383.638214 209.447287 
L 383.65088 209.447287 
L 383.65088 205.614891 
L 384.408761 205.614891 
L 384.408761 201.782495 
L 385.175743 201.782495 
L 385.175743 197.950099 
L 387.145983 197.950099 
L 387.145983 194.117703 
L 387.861817 194.117703 
L 387.861817 190.285307 
L 388.730701 190.285307 
L 388.730701 186.452911 
L 389.124747 186.452911 
L 389.124747 182.620515 
L 400.386754 182.620515 
L 400.386754 178.788119 
L 400.472722 178.788119 
L 400.472722 174.955723 
L 414.842683 174.955723 
L 414.842683 171.123327 
L 415.358281 171.123327 
L 415.358281 167.290931 
L 415.839876 167.290931 
L 415.839876 163.458535 
L 416.026947 163.458535 
L 416.026947 159.626139 
L 416.337494 159.626139 
L 416.337494 155.793743 
L 416.706141 155.793743 
L 416.706141 151.961347 
L 417.492224 151.961347 
L 417.492224 148.12895 
L 422.060357 148.12895 
L 422.060357 144.296554 
L 426.33861 144.296554 
L 426.33861 140.464158 
L 440.084772 140.464158 
L 440.084772 136.631762 
L 440.084772 136.631762 
L 440.084772 136.631762 
L 460.8 136.631762 
" clip-path="url(#pded964c7f3)" style="fill: none; stroke: #bf00bf; stroke-width: 1.5; stroke-linecap: square"/>
   </g>
   <g id="line2d_114">
    <defs>
     <path id="m784c22607e" d="M 0 14.142136 
L 8.485281 0 
L 0 -14.142136 
L -8.485281 0 
z
" style="stroke: #bf00bf; stroke-width: 1.5; stroke-linejoin: miter"/>
    </defs>
    <g clip-path="url(#pded964c7f3)">
     <use xlink:href="#m784c22607e" x="400.386754" y="182.620515" style="fill-opacity: 0; stroke: #bf00bf; stroke-width: 1.5; stroke-linejoin: miter"/>
     <use xlink:href="#m784c22607e" x="440.084772" y="140.464158" style="fill-opacity: 0; stroke: #bf00bf; stroke-width: 1.5; stroke-linejoin: miter"/>
     <use xlink:href="#m784c22607e" x="440.084772" y="136.631762" style="fill-opacity: 0; stroke: #bf00bf; stroke-width: 1.5; stroke-linejoin: miter"/>
    </g>
   </g>
   <g id="line2d_115">
    <path clip-path="url(#pded964c7f3)" style="fill: none; stroke: #bf00bf; stroke-width: 1.5; stroke-linecap: square"/>
    <g clip-path="url(#pded964c7f3)">
     <use xlink:href="#m784c22607e" x="-1" y="581.189703" style="fill-opacity: 0; stroke: #bf00bf; stroke-width: 1.5; stroke-linejoin: miter"/>
     <use xlink:href="#m784c22607e" x="460.8" y="581.189703" style="fill-opacity: 0; stroke: #bf00bf; stroke-width: 1.5; stroke-linejoin: miter"/>
    </g>
   </g>
   <g id="line2d_116">
    <path d="M 301.434434 293.76 
L 301.434434 289.927604 
L 365.217159 289.927604 
L 365.217159 286.095208 
L 366.311063 286.095208 
L 366.311063 282.262812 
L 366.388145 282.262812 
L 366.388145 278.430416 
L 366.793654 278.430416 
L 366.793654 274.59802 
L 368.900709 274.59802 
L 368.900709 270.765624 
L 369.677662 270.765624 
L 369.677662 266.933228 
L 370.281725 266.933228 
L 370.281725 263.100832 
L 370.453614 263.100832 
L 370.453614 259.268436 
L 375.402893 259.268436 
L 375.402893 255.43604 
L 382.569684 255.43604 
L 382.569684 251.603644 
L 394.005334 251.603644 
L 394.005334 247.771248 
L 394.478372 247.771248 
L 394.478372 243.938851 
L 395.226859 243.938851 
L 395.226859 240.106455 
L 395.472836 240.106455 
L 395.472836 236.274059 
L 396.028633 236.274059 
L 396.028633 232.441663 
L 397.077721 232.441663 
L 397.077721 228.609267 
L 397.328377 228.609267 
L 397.328377 224.776871 
L 397.742478 224.776871 
L 397.742478 220.944475 
L 398.765149 220.944475 
L 398.765149 217.112079 
L 400.952359 217.112079 
L 400.952359 213.279683 
L 401.356216 213.279683 
L 401.356216 209.447287 
L 401.523989 209.447287 
L 401.523989 205.614891 
L 401.704431 205.614891 
L 401.704431 201.782495 
L 404.121488 201.782495 
L 404.121488 197.950099 
L 406.063931 197.950099 
L 406.063931 194.117703 
L 419.739709 194.117703 
L 419.739709 190.285307 
L 420.951042 190.285307 
L 420.951042 186.452911 
L 421.678965 186.452911 
L 421.678965 182.620515 
L 421.884293 182.620515 
L 421.884293 178.788119 
L 422.008299 178.788119 
L 422.008299 174.955723 
L 422.607376 174.955723 
L 422.607376 171.123327 
L 423.116135 171.123327 
L 423.116135 167.290931 
L 424.010059 167.290931 
L 424.010059 163.458535 
L 425.061091 163.458535 
L 425.061091 159.626139 
L 425.664005 159.626139 
L 425.664005 155.793743 
L 426.674639 155.793743 
L 426.674639 151.961347 
L 426.674639 151.961347 
L 426.674639 151.961347 
L 460.8 151.961347 
" clip-path="url(#pded964c7f3)" style="fill: none; stroke: #bf00bf; stroke-width: 1.5; stroke-linecap: square"/>
   </g>
   <g id="line2d_117">
    <defs>
     <path id="m123105d3dd" d="M 0 7.5 
C 1.989023 7.5 3.896849 6.709753 5.303301 5.303301 
C 6.709753 3.896849 7.5 1.989023 7.5 0 
C 7.5 -1.989023 6.709753 -3.896849 5.303301 -5.303301 
C 3.896849 -6.709753 1.989023 -7.5 0 -7.5 
C -1.989023 -7.5 -3.896849 -6.709753 -5.303301 -5.303301 
C -6.709753 -3.896849 -7.5 -1.989023 -7.5 0 
C -7.5 1.989023 -6.709753 3.896849 -5.303301 5.303301 
C -3.896849 6.709753 -1.989023 7.5 0 7.5 
z
" style="stroke: #bf00bf; stroke-width: 1.5"/>
    </defs>
    <g clip-path="url(#pded964c7f3)">
     <use xlink:href="#m123105d3dd" x="370.281725" y="266.933228" style="fill-opacity: 0; stroke: #bf00bf; stroke-width: 1.5"/>
     <use xlink:href="#m123105d3dd" x="397.328377" y="228.609267" style="fill-opacity: 0; stroke: #bf00bf; stroke-width: 1.5"/>
     <use xlink:href="#m123105d3dd" x="426.674639" y="155.793743" style="fill-opacity: 0; stroke: #bf00bf; stroke-width: 1.5"/>
     <use xlink:href="#m123105d3dd" x="426.674639" y="151.961347" style="fill-opacity: 0; stroke: #bf00bf; stroke-width: 1.5"/>
    </g>
   </g>
   <g id="line2d_118">
    <path clip-path="url(#pded964c7f3)" style="fill: none; stroke: #bf00bf; stroke-width: 1.5; stroke-linecap: square"/>
   </g>
   <g id="line2d_119">
    <path d="M 355.623567 293.76 
L 355.623567 289.927604 
L 357.163554 289.927604 
L 357.163554 286.095208 
L 357.212493 286.095208 
L 357.212493 282.262812 
L 358.318425 282.262812 
L 358.318425 278.430416 
L 358.327011 278.430416 
L 358.327011 274.59802 
L 358.561244 274.59802 
L 358.561244 270.765624 
L 358.639543 270.765624 
L 358.639543 266.933228 
L 358.67825 266.933228 
L 358.67825 263.100832 
L 358.910501 263.100832 
L 358.910501 259.268436 
L 359.077895 259.268436 
L 359.077895 255.43604 
L 359.11849 255.43604 
L 359.11849 251.603644 
L 359.66679 251.603644 
L 359.66679 247.771248 
L 360.225036 247.771248 
L 360.225036 243.938851 
L 360.248878 243.938851 
L 360.248878 240.106455 
L 361.290301 240.106455 
L 361.290301 236.274059 
L 361.315712 236.274059 
L 361.315712 232.441663 
L 361.831423 232.441663 
L 361.831423 228.609267 
L 361.83429 228.609267 
L 361.83429 224.776871 
L 362.620169 224.776871 
L 362.620169 220.944475 
L 362.77318 220.944475 
L 362.77318 217.112079 
L 362.851571 217.112079 
L 362.851571 213.279683 
L 387.514295 213.279683 
L 387.514295 209.447287 
L 390.093867 209.447287 
L 390.093867 205.614891 
L 392.029734 205.614891 
L 392.029734 201.782495 
L 392.413396 201.782495 
L 392.413396 197.950099 
L 392.980087 197.950099 
L 392.980087 194.117703 
L 393.440014 194.117703 
L 393.440014 190.285307 
L 394.48389 190.285307 
L 394.48389 186.452911 
L 394.802014 186.452911 
L 394.802014 182.620515 
L 405.218243 182.620515 
L 405.218243 178.788119 
L 405.834668 178.788119 
L 405.834668 174.955723 
L 418.389519 174.955723 
L 418.389519 171.123327 
L 419.067463 171.123327 
L 419.067463 167.290931 
L 419.120334 167.290931 
L 419.120334 163.458535 
L 419.613437 163.458535 
L 419.613437 159.626139 
L 419.741995 159.626139 
L 419.741995 155.793743 
L 420.350952 155.793743 
L 420.350952 151.961347 
L 420.988078 151.961347 
L 420.988078 148.12895 
L 428.457864 148.12895 
L 428.457864 144.296554 
L 428.496697 144.296554 
L 428.496697 140.464158 
L 428.496697 140.464158 
L 428.496697 140.464158 
L 460.8 140.464158 
" clip-path="url(#pded964c7f3)" style="fill: none; stroke: #ff0000; stroke-width: 3; stroke-linecap: square"/>
   </g>
   <g id="line2d_120">
    <defs>
     <path id="mcb446e503e" d="M 0 14.142136 
L 8.485281 0 
L 0 -14.142136 
L -8.485281 0 
z
" style="stroke: #ff0000; stroke-width: 3; stroke-linejoin: miter"/>
    </defs>
    <g clip-path="url(#pded964c7f3)">
     <use xlink:href="#mcb446e503e" x="392.029734" y="205.614891" style="fill-opacity: 0; stroke: #ff0000; stroke-width: 3; stroke-linejoin: miter"/>
     <use xlink:href="#mcb446e503e" x="420.350952" y="155.793743" style="fill-opacity: 0; stroke: #ff0000; stroke-width: 3; stroke-linejoin: miter"/>
     <use xlink:href="#mcb446e503e" x="428.496697" y="140.464158" style="fill-opacity: 0; stroke: #ff0000; stroke-width: 3; stroke-linejoin: miter"/>
    </g>
   </g>
   <g id="line2d_121">
    <path clip-path="url(#pded964c7f3)" style="fill: none; stroke: #ff0000; stroke-width: 3; stroke-linecap: square"/>
    <g clip-path="url(#pded964c7f3)">
     <use xlink:href="#mcb446e503e" x="-1" y="581.189703" style="fill-opacity: 0; stroke: #ff0000; stroke-width: 3; stroke-linejoin: miter"/>
     <use xlink:href="#mcb446e503e" x="460.8" y="581.189703" style="fill-opacity: 0; stroke: #ff0000; stroke-width: 3; stroke-linejoin: miter"/>
    </g>
   </g>
   <g id="line2d_122">
    <path d="M 324.422825 293.76 
L 324.422825 289.927604 
L 374.235032 289.927604 
L 374.235032 286.095208 
L 374.549992 286.095208 
L 374.549992 282.262812 
L 374.685067 282.262812 
L 374.685067 278.430416 
L 374.989328 278.430416 
L 374.989328 274.59802 
L 377.021817 274.59802 
L 377.021817 270.765624 
L 377.643785 270.765624 
L 377.643785 266.933228 
L 377.898414 266.933228 
L 377.898414 263.100832 
L 378.217032 263.100832 
L 378.217032 259.268436 
L 382.002446 259.268436 
L 382.002446 255.43604 
L 388.583783 255.43604 
L 388.583783 251.603644 
L 399.096994 251.603644 
L 399.096994 247.771248 
L 399.650976 247.771248 
L 399.650976 243.938851 
L 399.822116 243.938851 
L 399.822116 240.106455 
L 401.061235 240.106455 
L 401.061235 236.274059 
L 401.555986 236.274059 
L 401.555986 232.441663 
L 402.238646 232.441663 
L 402.238646 228.609267 
L 402.606706 228.609267 
L 402.606706 224.776871 
L 403.175183 224.776871 
L 403.175183 220.944475 
L 403.805614 220.944475 
L 403.805614 217.112079 
L 403.897144 217.112079 
L 403.897144 213.279683 
L 404.023761 213.279683 
L 404.023761 209.447287 
L 406.013176 209.447287 
L 406.013176 205.614891 
L 406.15572 205.614891 
L 406.15572 201.782495 
L 409.150118 201.782495 
L 409.150118 197.950099 
L 410.62426 197.950099 
L 410.62426 194.117703 
L 422.77238 194.117703 
L 422.77238 190.285307 
L 424.731376 190.285307 
L 424.731376 186.452911 
L 425.694758 186.452911 
L 425.694758 182.620515 
L 426.20971 182.620515 
L 426.20971 178.788119 
L 426.696775 178.788119 
L 426.696775 174.955723 
L 427.382726 174.955723 
L 427.382726 171.123327 
L 427.697772 171.123327 
L 427.697772 167.290931 
L 427.968686 167.290931 
L 427.968686 163.458535 
L 428.03229 163.458535 
L 428.03229 159.626139 
L 431.2007 159.626139 
L 431.2007 155.793743 
L 432.693123 155.793743 
L 432.693123 151.961347 
L 432.693123 151.961347 
L 432.693123 151.961347 
L 460.8 151.961347 
" clip-path="url(#pded964c7f3)" style="fill: none; stroke: #ff0000; stroke-width: 3; stroke-linecap: square"/>
   </g>
   <g id="line2d_123">
    <defs>
     <path id="m8d8106f189" d="M 0 7.5 
C 1.989023 7.5 3.896849 6.709753 5.303301 5.303301 
C 6.709753 3.896849 7.5 1.989023 7.5 0 
C 7.5 -1.989023 6.709753 -3.896849 5.303301 -5.303301 
C 3.896849 -6.709753 1.989023 -7.5 0 -7.5 
C -1.989023 -7.5 -3.896849 -6.709753 -5.303301 -5.303301 
C -6.709753 -3.896849 -7.5 -1.989023 -7.5 0 
C -7.5 1.989023 -6.709753 3.896849 -5.303301 5.303301 
C -3.896849 6.709753 -1.989023 7.5 0 7.5 
z
" style="stroke: #ff0000; stroke-width: 3"/>
    </defs>
    <g clip-path="url(#pded964c7f3)">
     <use xlink:href="#m8d8106f189" x="378.217032" y="263.100832" style="fill-opacity: 0; stroke: #ff0000; stroke-width: 3"/>
     <use xlink:href="#m8d8106f189" x="403.805614" y="220.944475" style="fill-opacity: 0; stroke: #ff0000; stroke-width: 3"/>
     <use xlink:href="#m8d8106f189" x="431.2007" y="159.626139" style="fill-opacity: 0; stroke: #ff0000; stroke-width: 3"/>
     <use xlink:href="#m8d8106f189" x="432.693123" y="151.961347" style="fill-opacity: 0; stroke: #ff0000; stroke-width: 3"/>
    </g>
   </g>
   <g id="line2d_124">
    <path clip-path="url(#pded964c7f3)" style="fill: none; stroke: #ff0000; stroke-width: 3; stroke-linecap: square"/>
   </g>
   <g id="line2d_125">
    <path d="M 441.794724 293.76 
L 441.794724 3.456 
" clip-path="url(#pded964c7f3)" style="fill: none; stroke: #000000; stroke-width: 1.5; stroke-linecap: square"/>
    <defs>
     <path id="mda8a8fc46b" d="M -10 0 
L 10 0 
M 0 10 
L 0 -10 
" style="stroke: #000000; stroke-width: 3"/>
    </defs>
    <g clip-path="url(#pded964c7f3)">
     <use xlink:href="#mda8a8fc46b" x="441.794724" y="293.76" style="stroke: #000000; stroke-width: 3"/>
     <use xlink:href="#mda8a8fc46b" x="441.794724" y="3.456" style="stroke: #000000; stroke-width: 3"/>
    </g>
   </g>
   <g id="line2d_126">
    <path d="M 441.794724 293.76 
L 441.794724 3.456 
" clip-path="url(#pded964c7f3)" style="fill: none; stroke: #000000; stroke-width: 1.5; stroke-linecap: square"/>
    <defs>
     <path id="m4709aa7e95" d="M 0 7.5 
C 1.989023 7.5 3.896849 6.709753 5.303301 5.303301 
C 6.709753 3.896849 7.5 1.989023 7.5 0 
C 7.5 -1.989023 6.709753 -3.896849 5.303301 -5.303301 
C 3.896849 -6.709753 1.989023 -7.5 0 -7.5 
C -1.989023 -7.5 -3.896849 -6.709753 -5.303301 -5.303301 
C -6.709753 -3.896849 -7.5 -1.989023 -7.5 0 
C -7.5 1.989023 -6.709753 3.896849 -5.303301 5.303301 
C -3.896849 6.709753 -1.989023 7.5 0 7.5 
z
" style="stroke: #000000; stroke-width: 3"/>
    </defs>
    <g clip-path="url(#pded964c7f3)">
     <use xlink:href="#m4709aa7e95" x="441.794724" y="293.76" style="fill-opacity: 0; stroke: #000000; stroke-width: 3"/>
     <use xlink:href="#m4709aa7e95" x="441.794724" y="3.456" style="fill-opacity: 0; stroke: #000000; stroke-width: 3"/>
    </g>
   </g>
   <g id="patch_3">
    <path d="M 62.208 293.76 
L 62.208 3.456 
" style="fill: none; stroke: #000000; stroke-width: 0.8; stroke-linejoin: miter; stroke-linecap: square"/>
   </g>
   <g id="patch_4">
    <path d="M 460.8 293.76 
L 460.8 3.456 
" style="fill: none; stroke: #000000; stroke-width: 0.8; stroke-linejoin: miter; stroke-linecap: square"/>
   </g>
   <g id="patch_5">
    <path d="M 62.208 293.76 
L 460.8 293.76 
" style="fill: none; stroke: #000000; stroke-width: 0.8; stroke-linejoin: miter; stroke-linecap: square"/>
   </g>
   <g id="patch_6">
    <path d="M 62.208 3.456 
L 460.8 3.456 
" style="fill: none; stroke: #000000; stroke-width: 0.8; stroke-linejoin: miter; stroke-linecap: square"/>
   </g>
   <g id="text_11">
    <!-- f15-f19 -->
    <g transform="translate(225.405563 24.458955) scale(0.2 -0.2)">
     <defs>
      <path id="DejaVuSans-35" d="M 691 4666 
L 3169 4666 
L 3169 4134 
L 1269 4134 
L 1269 2991 
Q 1406 3038 1543 3061 
Q 1681 3084 1819 3084 
Q 2600 3084 3056 2656 
Q 3513 2228 3513 1497 
Q 3513 744 3044 326 
Q 2575 -91 1722 -91 
Q 1428 -91 1123 -41 
Q 819 9 494 109 
L 494 744 
Q 775 591 1075 516 
Q 1375 441 1709 441 
Q 2250 441 2565 725 
Q 2881 1009 2881 1497 
Q 2881 1984 2565 2268 
Q 2250 2553 1709 2553 
Q 1456 2553 1204 2497 
Q 953 2441 691 2322 
L 691 4666 
z
" transform="scale(0.015625)"/>
      <path id="DejaVuSans-2d" d="M 313 2009 
L 1997 2009 
L 1997 1497 
L 313 1497 
L 313 2009 
z
" transform="scale(0.015625)"/>
      <path id="DejaVuSans-39" d="M 703 97 
L 703 672 
Q 941 559 1184 500 
Q 1428 441 1663 441 
Q 2288 441 2617 861 
Q 2947 1281 2994 2138 
Q 2813 1869 2534 1725 
Q 2256 1581 1919 1581 
Q 1219 1581 811 2004 
Q 403 2428 403 3163 
Q 403 3881 828 4315 
Q 1253 4750 1959 4750 
Q 2769 4750 3195 4129 
Q 3622 3509 3622 2328 
Q 3622 1225 3098 567 
Q 2575 -91 1691 -91 
Q 1453 -91 1209 -44 
Q 966 3 703 97 
z
M 1959 2075 
Q 2384 2075 2632 2365 
Q 2881 2656 2881 3163 
Q 2881 3666 2632 3958 
Q 2384 4250 1959 4250 
Q 1534 4250 1286 3958 
Q 1038 3666 1038 3163 
Q 1038 2656 1286 2365 
Q 1534 2075 1959 2075 
z
" transform="scale(0.015625)"/>
     </defs>
     <use xlink:href="#DejaVuSans-66"/>
     <use xlink:href="#DejaVuSans-31" x="35.205078"/>
     <use xlink:href="#DejaVuSans-35" x="98.828125"/>
     <use xlink:href="#DejaVuSans-2d" x="162.451172"/>
     <use xlink:href="#DejaVuSans-66" x="198.535156"/>
     <use xlink:href="#DejaVuSans-31" x="233.740234"/>
     <use xlink:href="#DejaVuSans-39" x="297.363281"/>
    </g>
   </g>
   <g id="text_12">
    <!-- absolute targets -->
    <g transform="translate(62.208 608.591335) scale(0.14 -0.14)">
     <defs>
      <path id="DejaVuSans-62" d="M 3116 1747 
Q 3116 2381 2855 2742 
Q 2594 3103 2138 3103 
Q 1681 3103 1420 2742 
Q 1159 2381 1159 1747 
Q 1159 1113 1420 752 
Q 1681 391 2138 391 
Q 2594 391 2855 752 
Q 3116 1113 3116 1747 
z
M 1159 2969 
Q 1341 3281 1617 3432 
Q 1894 3584 2278 3584 
Q 2916 3584 3314 3078 
Q 3713 2572 3713 1747 
Q 3713 922 3314 415 
Q 2916 -91 2278 -91 
Q 1894 -91 1617 61 
Q 1341 213 1159 525 
L 1159 0 
L 581 0 
L 581 4863 
L 1159 4863 
L 1159 2969 
z
" transform="scale(0.015625)"/>
      <path id="DejaVuSans-75" d="M 544 1381 
L 544 3500 
L 1119 3500 
L 1119 1403 
Q 1119 906 1312 657 
Q 1506 409 1894 409 
Q 2359 409 2629 706 
Q 2900 1003 2900 1516 
L 2900 3500 
L 3475 3500 
L 3475 0 
L 2900 0 
L 2900 538 
Q 2691 219 2414 64 
Q 2138 -91 1772 -91 
Q 1169 -91 856 284 
Q 544 659 544 1381 
z
M 1991 3584 
L 1991 3584 
z
" transform="scale(0.015625)"/>
      <path id="DejaVuSans-65" d="M 3597 1894 
L 3597 1613 
L 953 1613 
Q 991 1019 1311 708 
Q 1631 397 2203 397 
Q 2534 397 2845 478 
Q 3156 559 3463 722 
L 3463 178 
Q 3153 47 2828 -22 
Q 2503 -91 2169 -91 
Q 1331 -91 842 396 
Q 353 884 353 1716 
Q 353 2575 817 3079 
Q 1281 3584 2069 3584 
Q 2775 3584 3186 3129 
Q 3597 2675 3597 1894 
z
M 3022 2063 
Q 3016 2534 2758 2815 
Q 2500 3097 2075 3097 
Q 1594 3097 1305 2825 
Q 1016 2553 972 2059 
L 3022 2063 
z
" transform="scale(0.015625)"/>
     </defs>
     <use xlink:href="#DejaVuSans-61"/>
     <use xlink:href="#DejaVuSans-62" x="61.279297"/>
     <use xlink:href="#DejaVuSans-73" x="124.755859"/>
     <use xlink:href="#DejaVuSans-6f" x="176.855469"/>
     <use xlink:href="#DejaVuSans-6c" x="238.037109"/>
     <use xlink:href="#DejaVuSans-75" x="265.820312"/>
     <use xlink:href="#DejaVuSans-74" x="329.199219"/>
     <use xlink:href="#DejaVuSans-65" x="368.408203"/>
     <use xlink:href="#DejaVuSans-20" x="429.931641"/>
     <use xlink:href="#DejaVuSans-74" x="461.71875"/>
     <use xlink:href="#DejaVuSans-61" x="500.927734"/>
     <use xlink:href="#DejaVuSans-72" x="562.207031"/>
     <use xlink:href="#DejaVuSans-67" x="601.570312"/>
     <use xlink:href="#DejaVuSans-65" x="665.046875"/>
     <use xlink:href="#DejaVuSans-74" x="726.570312"/>
     <use xlink:href="#DejaVuSans-73" x="765.779297"/>
    </g>
   </g>
   <g id="text_13">
    <!-- v2.6.3 -->
    <g style="fill: #808080" transform="translate(245.82275 288.777272) scale(0.1 -0.1)">
     <use xlink:href="#DejaVuSans-76"/>
     <use xlink:href="#DejaVuSans-32" x="59.179688"/>
     <use xlink:href="#DejaVuSans-2e" x="122.802734"/>
     <use xlink:href="#DejaVuSans-36" x="154.589844"/>
     <use xlink:href="#DejaVuSans-2e" x="218.212891"/>
     <use xlink:href="#DejaVuSans-33" x="250"/>
    </g>
   </g>
   <g id="legend_1">
    <g id="patch_7">
     <path d="M 76.208 136.881 
L 160.148625 136.881 
Q 164.148625 136.881 164.148625 132.881 
L 164.148625 17.456 
Q 164.148625 13.456 160.148625 13.456 
L 76.208 13.456 
Q 72.208 13.456 72.208 17.456 
L 72.208 132.881 
Q 72.208 136.881 76.208 136.881 
z
" style="fill: #ffffff; opacity: 0.2; stroke: #cccccc; stroke-linejoin: miter"/>
    </g>
    <g id="line2d_127">
     <path d="M 80.208 29.652875 
L 80.208 29.652875 
L 100.208 29.652875 
L 100.208 29.652875 
L 120.208 29.652875 
" style="fill: none; stroke: #000000; stroke-width: 1.5; stroke-linecap: square"/>
    </g>
    <g id="text_14">
     <!-- 1 -->
     <g transform="translate(136.208 36.652875) scale(0.2 -0.2)">
      <use xlink:href="#DejaVuSans-31"/>
     </g>
    </g>
    <g id="line2d_128">
     <path d="M 80.208 59.009125 
L 80.208 59.009125 
L 100.208 59.009125 
L 100.208 59.009125 
L 120.208 59.009125 
" style="fill: none; stroke: #00bfbf; stroke-width: 1.5; stroke-linecap: square"/>
    </g>
    <g id="text_15">
     <!-- -1 -->
     <g transform="translate(136.208 66.009125) scale(0.2 -0.2)">
      <use xlink:href="#DejaVuSans-2d"/>
      <use xlink:href="#DejaVuSans-31" x="36.083984"/>
     </g>
    </g>
    <g id="line2d_129">
     <path d="M 80.208 88.365375 
L 80.208 88.365375 
L 100.208 88.365375 
L 100.208 88.365375 
L 120.208 88.365375 
" style="fill: none; stroke: #bf00bf; stroke-width: 1.5; stroke-linecap: square"/>
    </g>
    <g id="text_16">
     <!-- -4 -->
     <g transform="translate(136.208 95.365375) scale(0.2 -0.2)">
      <use xlink:href="#DejaVuSans-2d"/>
      <use xlink:href="#DejaVuSans-34" x="36.083984"/>
     </g>
    </g>
    <g id="line2d_130">
     <path d="M 80.208 117.721625 
L 80.208 117.721625 
L 100.208 117.721625 
L 100.208 117.721625 
L 120.208 117.721625 
" style="fill: none; stroke: #ff0000; stroke-width: 3; stroke-linecap: square"/>
    </g>
    <g id="text_17">
     <!-- -8 -->
     <g transform="translate(136.208 124.721625) scale(0.2 -0.2)">
      <use xlink:href="#DejaVuSans-2d"/>
      <use xlink:href="#DejaVuSans-38" x="36.083984"/>
     </g>
    </g>
   </g>
  </g>
 </g>
 <defs>
  <clipPath id="pded964c7f3">
   <rect x="62.208" y="3.456" width="398.592" height="290.304"/>
  </clipPath>
 </defs>
</svg>
