<?xml version="1.0" encoding="utf-8" standalone="no"?>
<!DOCTYPE svg PUBLIC "-//W3C//DTD SVG 1.1//EN"
  "http://www.w3.org/Graphics/SVG/1.1/DTD/svg11.dtd">
<svg xmlns:xlink="http://www.w3.org/1999/xlink" width="460.8pt" height="345.6pt" viewBox="0 0 460.8 345.6" xmlns="http://www.w3.org/2000/svg" version="1.1">
 <metadata>
  <rdf:RDF xmlns:dc="http://purl.org/dc/elements/1.1/" xmlns:cc="http://creativecommons.org/ns#" xmlns:rdf="http://www.w3.org/1999/02/22-rdf-syntax-ns#">
   <cc:Work>
    <dc:type rdf:resource="http://purl.org/dc/dcmitype/StillImage"/>
    <dc:date>2024-06-07T14:00:13.118588</dc:date>
    <dc:format>image/svg+xml</dc:format>
    <dc:creator>
     <cc:Agent>
      <dc:title>Matplotlib v3.7.1, https://matplotlib.org/</dc:title>
     </cc:Agent>
    </dc:creator>
   </cc:Work>
  </rdf:RDF>
 </metadata>
 <defs>
  <style type="text/css">*{stroke-linejoin: round; stroke-linecap: butt}</style>
 </defs>
 <g id="figure_1">
  <g id="patch_1">
   <path d="M 0 345.6 
L 460.8 345.6 
L 460.8 0 
L 0 0 
z
" style="fill: #ffffff"/>
  </g>
  <g id="axes_1">
   <g id="patch_2">
    <path d="M 34.16 291.28 
L 453.192 291.28 
L 453.192 3 
L 34.16 3 
z
" style="fill: #ffffff"/>
   </g>
   <g id="matplotlib.axis_1">
    <g id="xtick_1">
     <g id="line2d_1">
      <path d="M 123.861386 291.28 
L 123.861386 3 
" clip-path="url(#p990ac9437d)" style="fill: none; stroke: #b0b0b0; stroke-width: 0.8; stroke-linecap: square"/>
     </g>
     <g id="line2d_2">
      <defs>
       <path id="m447f919812" d="M 0 0 
L 0 3.5 
" style="stroke: #000000; stroke-width: 0.8"/>
      </defs>
      <g>
       <use xlink:href="#m447f919812" x="123.861386" y="291.28" style="stroke: #000000; stroke-width: 0.8"/>
      </g>
     </g>
     <g id="text_1">
      <!-- -2 -->
      <g transform="translate(113.891073 313.476875) scale(0.2 -0.2)">
       <defs>
        <path id="DejaVuSans-2d" d="M 313 2009 
L 1997 2009 
L 1997 1497 
L 313 1497 
L 313 2009 
z
" transform="scale(0.015625)"/>
        <path id="DejaVuSans-32" d="M 1228 531 
L 3431 531 
L 3431 0 
L 469 0 
L 469 531 
Q 828 903 1448 1529 
Q 2069 2156 2228 2338 
Q 2531 2678 2651 2914 
Q 2772 3150 2772 3378 
Q 2772 3750 2511 3984 
Q 2250 4219 1831 4219 
Q 1534 4219 1204 4116 
Q 875 4013 500 3803 
L 500 4441 
Q 881 4594 1212 4672 
Q 1544 4750 1819 4750 
Q 2544 4750 2975 4387 
Q 3406 4025 3406 3419 
Q 3406 3131 3298 2873 
Q 3191 2616 2906 2266 
Q 2828 2175 2409 1742 
Q 1991 1309 1228 531 
z
" transform="scale(0.015625)"/>
       </defs>
       <use xlink:href="#DejaVuSans-2d"/>
       <use xlink:href="#DejaVuSans-32" x="36.083984"/>
      </g>
     </g>
    </g>
    <g id="xtick_2">
     <g id="line2d_3">
      <path d="M 243.676 291.28 
L 243.676 3 
" clip-path="url(#p990ac9437d)" style="fill: none; stroke: #b0b0b0; stroke-width: 0.8; stroke-linecap: square"/>
     </g>
     <g id="line2d_4">
      <g>
       <use xlink:href="#m447f919812" x="243.676" y="291.28" style="stroke: #000000; stroke-width: 0.8"/>
      </g>
     </g>
     <g id="text_2">
      <!-- 0 -->
      <g transform="translate(237.3135 313.476875) scale(0.2 -0.2)">
       <defs>
        <path id="DejaVuSans-30" d="M 2034 4250 
Q 1547 4250 1301 3770 
Q 1056 3291 1056 2328 
Q 1056 1369 1301 889 
Q 1547 409 2034 409 
Q 2525 409 2770 889 
Q 3016 1369 3016 2328 
Q 3016 3291 2770 3770 
Q 2525 4250 2034 4250 
z
M 2034 4750 
Q 2819 4750 3233 4129 
Q 3647 3509 3647 2328 
Q 3647 1150 3233 529 
Q 2819 -91 2034 -91 
Q 1250 -91 836 529 
Q 422 1150 422 2328 
Q 422 3509 836 4129 
Q 1250 4750 2034 4750 
z
" transform="scale(0.015625)"/>
       </defs>
       <use xlink:href="#DejaVuSans-30"/>
      </g>
     </g>
    </g>
    <g id="xtick_3">
     <g id="line2d_5">
      <path d="M 363.490614 291.28 
L 363.490614 3 
" clip-path="url(#p990ac9437d)" style="fill: none; stroke: #b0b0b0; stroke-width: 0.8; stroke-linecap: square"/>
     </g>
     <g id="line2d_6">
      <g>
       <use xlink:href="#m447f919812" x="363.490614" y="291.28" style="stroke: #000000; stroke-width: 0.8"/>
      </g>
     </g>
     <g id="text_3">
      <!-- 2 -->
      <g transform="translate(357.128114 313.476875) scale(0.2 -0.2)">
       <use xlink:href="#DejaVuSans-32"/>
      </g>
     </g>
    </g>
    <g id="text_4">
     <!-- log10 of FEvals ratio -->
     <g transform="translate(141.371312 336.833125) scale(0.2 -0.2)">
      <defs>
       <path id="DejaVuSans-6c" d="M 603 4863 
L 1178 4863 
L 1178 0 
L 603 0 
L 603 4863 
z
" transform="scale(0.015625)"/>
       <path id="DejaVuSans-6f" d="M 1959 3097 
Q 1497 3097 1228 2736 
Q 959 2375 959 1747 
Q 959 1119 1226 758 
Q 1494 397 1959 397 
Q 2419 397 2687 759 
Q 2956 1122 2956 1747 
Q 2956 2369 2687 2733 
Q 2419 3097 1959 3097 
z
M 1959 3584 
Q 2709 3584 3137 3096 
Q 3566 2609 3566 1747 
Q 3566 888 3137 398 
Q 2709 -91 1959 -91 
Q 1206 -91 779 398 
Q 353 888 353 1747 
Q 353 2609 779 3096 
Q 1206 3584 1959 3584 
z
" transform="scale(0.015625)"/>
       <path id="DejaVuSans-67" d="M 2906 1791 
Q 2906 2416 2648 2759 
Q 2391 3103 1925 3103 
Q 1463 3103 1205 2759 
Q 947 2416 947 1791 
Q 947 1169 1205 825 
Q 1463 481 1925 481 
Q 2391 481 2648 825 
Q 2906 1169 2906 1791 
z
M 3481 434 
Q 3481 -459 3084 -895 
Q 2688 -1331 1869 -1331 
Q 1566 -1331 1297 -1286 
Q 1028 -1241 775 -1147 
L 775 -588 
Q 1028 -725 1275 -790 
Q 1522 -856 1778 -856 
Q 2344 -856 2625 -561 
Q 2906 -266 2906 331 
L 2906 616 
Q 2728 306 2450 153 
Q 2172 0 1784 0 
Q 1141 0 747 490 
Q 353 981 353 1791 
Q 353 2603 747 3093 
Q 1141 3584 1784 3584 
Q 2172 3584 2450 3431 
Q 2728 3278 2906 2969 
L 2906 3500 
L 3481 3500 
L 3481 434 
z
" transform="scale(0.015625)"/>
       <path id="DejaVuSans-31" d="M 794 531 
L 1825 531 
L 1825 4091 
L 703 3866 
L 703 4441 
L 1819 4666 
L 2450 4666 
L 2450 531 
L 3481 531 
L 3481 0 
L 794 0 
L 794 531 
z
" transform="scale(0.015625)"/>
       <path id="DejaVuSans-20" transform="scale(0.015625)"/>
       <path id="DejaVuSans-66" d="M 2375 4863 
L 2375 4384 
L 1825 4384 
Q 1516 4384 1395 4259 
Q 1275 4134 1275 3809 
L 1275 3500 
L 2222 3500 
L 2222 3053 
L 1275 3053 
L 1275 0 
L 697 0 
L 697 3053 
L 147 3053 
L 147 3500 
L 697 3500 
L 697 3744 
Q 697 4328 969 4595 
Q 1241 4863 1831 4863 
L 2375 4863 
z
" transform="scale(0.015625)"/>
       <path id="DejaVuSans-46" d="M 628 4666 
L 3309 4666 
L 3309 4134 
L 1259 4134 
L 1259 2759 
L 3109 2759 
L 3109 2228 
L 1259 2228 
L 1259 0 
L 628 0 
L 628 4666 
z
" transform="scale(0.015625)"/>
       <path id="DejaVuSans-45" d="M 628 4666 
L 3578 4666 
L 3578 4134 
L 1259 4134 
L 1259 2753 
L 3481 2753 
L 3481 2222 
L 1259 2222 
L 1259 531 
L 3634 531 
L 3634 0 
L 628 0 
L 628 4666 
z
" transform="scale(0.015625)"/>
       <path id="DejaVuSans-76" d="M 191 3500 
L 800 3500 
L 1894 563 
L 2988 3500 
L 3597 3500 
L 2284 0 
L 1503 0 
L 191 3500 
z
" transform="scale(0.015625)"/>
       <path id="DejaVuSans-61" d="M 2194 1759 
Q 1497 1759 1228 1600 
Q 959 1441 959 1056 
Q 959 750 1161 570 
Q 1363 391 1709 391 
Q 2188 391 2477 730 
Q 2766 1069 2766 1631 
L 2766 1759 
L 2194 1759 
z
M 3341 1997 
L 3341 0 
L 2766 0 
L 2766 531 
Q 2569 213 2275 61 
Q 1981 -91 1556 -91 
Q 1019 -91 701 211 
Q 384 513 384 1019 
Q 384 1609 779 1909 
Q 1175 2209 1959 2209 
L 2766 2209 
L 2766 2266 
Q 2766 2663 2505 2880 
Q 2244 3097 1772 3097 
Q 1472 3097 1187 3025 
Q 903 2953 641 2809 
L 641 3341 
Q 956 3463 1253 3523 
Q 1550 3584 1831 3584 
Q 2591 3584 2966 3190 
Q 3341 2797 3341 1997 
z
" transform="scale(0.015625)"/>
       <path id="DejaVuSans-73" d="M 2834 3397 
L 2834 2853 
Q 2591 2978 2328 3040 
Q 2066 3103 1784 3103 
Q 1356 3103 1142 2972 
Q 928 2841 928 2578 
Q 928 2378 1081 2264 
Q 1234 2150 1697 2047 
L 1894 2003 
Q 2506 1872 2764 1633 
Q 3022 1394 3022 966 
Q 3022 478 2636 193 
Q 2250 -91 1575 -91 
Q 1294 -91 989 -36 
Q 684 19 347 128 
L 347 722 
Q 666 556 975 473 
Q 1284 391 1588 391 
Q 1994 391 2212 530 
Q 2431 669 2431 922 
Q 2431 1156 2273 1281 
Q 2116 1406 1581 1522 
L 1381 1569 
Q 847 1681 609 1914 
Q 372 2147 372 2553 
Q 372 3047 722 3315 
Q 1072 3584 1716 3584 
Q 2034 3584 2315 3537 
Q 2597 3491 2834 3397 
z
" transform="scale(0.015625)"/>
       <path id="DejaVuSans-72" d="M 2631 2963 
Q 2534 3019 2420 3045 
Q 2306 3072 2169 3072 
Q 1681 3072 1420 2755 
Q 1159 2438 1159 1844 
L 1159 0 
L 581 0 
L 581 3500 
L 1159 3500 
L 1159 2956 
Q 1341 3275 1631 3429 
Q 1922 3584 2338 3584 
Q 2397 3584 2469 3576 
Q 2541 3569 2628 3553 
L 2631 2963 
z
" transform="scale(0.015625)"/>
       <path id="DejaVuSans-74" d="M 1172 4494 
L 1172 3500 
L 2356 3500 
L 2356 3053 
L 1172 3053 
L 1172 1153 
Q 1172 725 1289 603 
Q 1406 481 1766 481 
L 2356 481 
L 2356 0 
L 1766 0 
Q 1100 0 847 248 
Q 594 497 594 1153 
L 594 3053 
L 172 3053 
L 172 3500 
L 594 3500 
L 594 4494 
L 1172 4494 
z
" transform="scale(0.015625)"/>
       <path id="DejaVuSans-69" d="M 603 3500 
L 1178 3500 
L 1178 0 
L 603 0 
L 603 3500 
z
M 603 4863 
L 1178 4863 
L 1178 4134 
L 603 4134 
L 603 4863 
z
" transform="scale(0.015625)"/>
      </defs>
      <use xlink:href="#DejaVuSans-6c"/>
      <use xlink:href="#DejaVuSans-6f" x="27.783203"/>
      <use xlink:href="#DejaVuSans-67" x="88.964844"/>
      <use xlink:href="#DejaVuSans-31" x="152.441406"/>
      <use xlink:href="#DejaVuSans-30" x="216.064453"/>
      <use xlink:href="#DejaVuSans-20" x="279.6875"/>
      <use xlink:href="#DejaVuSans-6f" x="311.474609"/>
      <use xlink:href="#DejaVuSans-66" x="372.65625"/>
      <use xlink:href="#DejaVuSans-20" x="407.861328"/>
      <use xlink:href="#DejaVuSans-46" x="439.648438"/>
      <use xlink:href="#DejaVuSans-45" x="497.167969"/>
      <use xlink:href="#DejaVuSans-76" x="560.351562"/>
      <use xlink:href="#DejaVuSans-61" x="619.53125"/>
      <use xlink:href="#DejaVuSans-6c" x="680.810547"/>
      <use xlink:href="#DejaVuSans-73" x="708.59375"/>
      <use xlink:href="#DejaVuSans-20" x="760.693359"/>
      <use xlink:href="#DejaVuSans-72" x="792.480469"/>
      <use xlink:href="#DejaVuSans-61" x="833.59375"/>
      <use xlink:href="#DejaVuSans-74" x="894.873047"/>
      <use xlink:href="#DejaVuSans-69" x="934.082031"/>
      <use xlink:href="#DejaVuSans-6f" x="961.865234"/>
     </g>
    </g>
   </g>
   <g id="matplotlib.axis_2">
    <g id="ytick_1">
     <g id="line2d_7">
      <path d="M 34.16 288.453725 
L 453.192 288.453725 
" clip-path="url(#p990ac9437d)" style="fill: none; stroke: #b0b0b0; stroke-width: 0.8; stroke-linecap: square"/>
     </g>
     <g id="line2d_8">
      <defs>
       <path id="ma580f3661f" d="M 0 0 
L -3.5 0 
" style="stroke: #000000; stroke-width: 0.8"/>
      </defs>
      <g>
       <use xlink:href="#ma580f3661f" x="34.16" y="288.453725" style="stroke: #000000; stroke-width: 0.8"/>
      </g>
     </g>
    </g>
    <g id="ytick_2">
     <g id="line2d_9">
      <path d="M 34.16 217.796863 
L 453.192 217.796863 
" clip-path="url(#p990ac9437d)" style="fill: none; stroke: #b0b0b0; stroke-width: 0.8; stroke-linecap: square"/>
     </g>
     <g id="line2d_10">
      <g>
       <use xlink:href="#ma580f3661f" x="34.16" y="217.796863" style="stroke: #000000; stroke-width: 0.8"/>
      </g>
     </g>
    </g>
    <g id="ytick_3">
     <g id="line2d_11">
      <path d="M 34.16 147.14 
L 453.192 147.14 
" clip-path="url(#p990ac9437d)" style="fill: none; stroke: #b0b0b0; stroke-width: 0.8; stroke-linecap: square"/>
     </g>
     <g id="line2d_12">
      <g>
       <use xlink:href="#ma580f3661f" x="34.16" y="147.14" style="stroke: #000000; stroke-width: 0.8"/>
      </g>
     </g>
    </g>
    <g id="ytick_4">
     <g id="line2d_13">
      <path d="M 34.16 76.483137 
L 453.192 76.483137 
" clip-path="url(#p990ac9437d)" style="fill: none; stroke: #b0b0b0; stroke-width: 0.8; stroke-linecap: square"/>
     </g>
     <g id="line2d_14">
      <g>
       <use xlink:href="#ma580f3661f" x="34.16" y="76.483137" style="stroke: #000000; stroke-width: 0.8"/>
      </g>
     </g>
    </g>
    <g id="ytick_5">
     <g id="line2d_15">
      <path d="M 34.16 5.826275 
L 453.192 5.826275 
" clip-path="url(#p990ac9437d)" style="fill: none; stroke: #b0b0b0; stroke-width: 0.8; stroke-linecap: square"/>
     </g>
     <g id="line2d_16">
      <g>
       <use xlink:href="#ma580f3661f" x="34.16" y="5.826275" style="stroke: #000000; stroke-width: 0.8"/>
      </g>
     </g>
    </g>
    <g id="text_5">
     <!-- proportion of trials -->
     <g transform="translate(19.000625 240.14625) rotate(-90) scale(0.2 -0.2)">
      <defs>
       <path id="DejaVuSans-70" d="M 1159 525 
L 1159 -1331 
L 581 -1331 
L 581 3500 
L 1159 3500 
L 1159 2969 
Q 1341 3281 1617 3432 
Q 1894 3584 2278 3584 
Q 2916 3584 3314 3078 
Q 3713 2572 3713 1747 
Q 3713 922 3314 415 
Q 2916 -91 2278 -91 
Q 1894 -91 1617 61 
Q 1341 213 1159 525 
z
M 3116 1747 
Q 3116 2381 2855 2742 
Q 2594 3103 2138 3103 
Q 1681 3103 1420 2742 
Q 1159 2381 1159 1747 
Q 1159 1113 1420 752 
Q 1681 391 2138 391 
Q 2594 391 2855 752 
Q 3116 1113 3116 1747 
z
" transform="scale(0.015625)"/>
       <path id="DejaVuSans-6e" d="M 3513 2113 
L 3513 0 
L 2938 0 
L 2938 2094 
Q 2938 2591 2744 2837 
Q 2550 3084 2163 3084 
Q 1697 3084 1428 2787 
Q 1159 2491 1159 1978 
L 1159 0 
L 581 0 
L 581 3500 
L 1159 3500 
L 1159 2956 
Q 1366 3272 1645 3428 
Q 1925 3584 2291 3584 
Q 2894 3584 3203 3211 
Q 3513 2838 3513 2113 
z
" transform="scale(0.015625)"/>
      </defs>
      <use xlink:href="#DejaVuSans-70"/>
      <use xlink:href="#DejaVuSans-72" x="63.476562"/>
      <use xlink:href="#DejaVuSans-6f" x="102.339844"/>
      <use xlink:href="#DejaVuSans-70" x="163.521484"/>
      <use xlink:href="#DejaVuSans-6f" x="226.998047"/>
      <use xlink:href="#DejaVuSans-72" x="288.179688"/>
      <use xlink:href="#DejaVuSans-74" x="329.292969"/>
      <use xlink:href="#DejaVuSans-69" x="368.501953"/>
      <use xlink:href="#DejaVuSans-6f" x="396.285156"/>
      <use xlink:href="#DejaVuSans-6e" x="457.466797"/>
      <use xlink:href="#DejaVuSans-20" x="520.845703"/>
      <use xlink:href="#DejaVuSans-6f" x="552.632812"/>
      <use xlink:href="#DejaVuSans-66" x="613.814453"/>
      <use xlink:href="#DejaVuSans-20" x="649.019531"/>
      <use xlink:href="#DejaVuSans-74" x="680.806641"/>
      <use xlink:href="#DejaVuSans-72" x="720.015625"/>
      <use xlink:href="#DejaVuSans-69" x="761.128906"/>
      <use xlink:href="#DejaVuSans-61" x="788.912109"/>
      <use xlink:href="#DejaVuSans-6c" x="850.191406"/>
      <use xlink:href="#DejaVuSans-73" x="877.974609"/>
     </g>
    </g>
   </g>
   <g id="line2d_17">
    <path d="M 34.16 247.450779 
L 52.941809 247.450779 
L 52.941809 247.157901 
L 59.895945 247.157901 
L 59.895945 246.865023 
L 60.2907 246.865023 
L 60.2907 246.572145 
L 67.606332 246.572145 
L 67.606332 246.279266 
L 72.355491 246.279266 
L 72.355491 245.986388 
L 72.750246 245.986388 
L 72.750246 245.69351 
L 77.366266 245.69351 
L 77.366266 245.400632 
L 77.76102 245.400632 
L 77.76102 245.107754 
L 80.787752 245.107754 
L 80.799801 244.521997 
L 81.403983 244.521997 
L 81.403983 244.229119 
L 81.798738 244.229119 
L 81.798738 243.936241 
L 82.555386 243.936241 
L 82.555386 243.643363 
L 82.726091 243.643363 
L 82.726091 243.350485 
L 83.739102 243.350485 
L 83.739102 243.057606 
L 95.185637 243.057606 
L 95.185637 242.764728 
L 96.934087 242.764728 
L 96.934087 242.47185 
L 97.219909 242.47185 
L 97.219909 242.178972 
L 99.235993 242.178972 
L 99.235993 241.886094 
L 100.079121 241.886094 
L 100.079121 241.593215 
L 100.196411 241.593215 
L 100.196411 241.300337 
L 100.473932 241.300337 
L 100.473932 241.007459 
L 100.707273 241.007459 
L 100.707273 240.714581 
L 100.868686 240.714581 
L 100.868686 240.421703 
L 102.768758 240.421703 
L 102.768758 240.128825 
L 104.234129 240.128825 
L 104.234129 239.835946 
L 107.576087 239.835946 
L 107.576087 239.543068 
L 109.30731 239.543068 
L 109.30731 239.25019 
L 110.401329 239.25019 
L 110.413378 238.664434 
L 110.628274 238.664434 
L 110.628274 238.371555 
L 111.510209 238.371555 
L 111.59861 237.785799 
L 113.352679 237.785799 
L 113.352679 237.492921 
L 113.573716 237.492921 
L 113.661465 236.907164 
L 114.528242 236.907164 
L 114.528242 236.614286 
L 114.743644 236.614286 
L 114.743644 236.321408 
L 116.539761 236.321408 
L 116.539761 236.02853 
L 116.736864 236.02853 
L 116.736864 235.735652 
L 117.433281 235.735652 
L 117.433281 235.442774 
L 119.709256 235.442774 
L 119.709256 235.149895 
L 122.101083 235.149895 
L 122.101083 234.857017 
L 122.71618 234.857017 
L 122.71618 234.564139 
L 123.304077 234.564139 
L 123.304077 234.271261 
L 123.971832 234.271261 
L 123.971832 233.978383 
L 124.78003 233.978383 
L 124.792078 233.392626 
L 125.292797 233.392626 
L 125.292797 233.099748 
L 127.73138 233.099748 
L 127.785407 232.513992 
L 127.925064 232.513992 
L 127.937112 231.928235 
L 128.84957 231.928235 
L 128.84957 231.635357 
L 129.192765 231.635357 
L 129.192765 231.342479 
L 130.614701 231.342479 
L 130.62675 230.756723 
L 130.876414 230.756723 
L 130.876414 230.463844 
L 131.346129 230.463844 
L 131.346129 230.170966 
L 132.589518 230.170966 
L 132.589518 229.878088 
L 133.157079 229.878088 
L 133.157079 229.58521 
L 133.300925 229.58521 
L 133.300925 229.292332 
L 133.566051 229.292332 
L 133.566051 228.999453 
L 137.153252 228.999453 
L 137.165301 228.413697 
L 138.474217 228.413697 
L 138.486266 227.827941 
L 138.946763 227.827941 
L 138.946763 227.535062 
L 139.415558 227.535062 
L 139.415558 227.242184 
L 140.104603 227.242184 
L 140.169738 226.656428 
L 141.123786 226.656428 
L 141.123786 226.36355 
L 141.425567 226.36355 
L 141.425567 226.070672 
L 142.374185 226.070672 
L 142.386233 225.484915 
L 143.228271 225.484915 
L 143.229801 224.899159 
L 145.325535 224.899159 
L 145.325535 224.606281 
L 145.616625 224.606281 
L 145.616625 224.313402 
L 146.167368 224.313402 
L 146.255116 223.727646 
L 146.373305 223.727646 
L 146.373305 223.434768 
L 149.062942 223.434768 
L 149.133413 222.849011 
L 149.322833 222.849011 
L 149.330515 222.263255 
L 150.627399 222.263255 
L 150.627399 221.970377 
L 153.103139 221.970377 
L 153.103139 221.677499 
L 154.665117 221.677499 
L 154.694734 221.091742 
L 155.309832 221.091742 
L 155.309832 220.798864 
L 155.502487 220.798864 
L 155.601494 220.213108 
L 156.922458 220.213108 
L 156.922458 219.92023 
L 158.647521 219.92023 
L 158.647521 219.627351 
L 160.11423 219.627351 
L 160.11423 219.334473 
L 160.379058 219.334473 
L 160.379058 219.041595 
L 160.508985 219.041595 
L 160.508985 218.748717 
L 160.822426 218.748717 
L 160.822426 218.455839 
L 161.337158 218.455839 
L 161.337158 218.16296 
L 163.701534 218.16296 
L 163.701534 217.870082 
L 163.93978 217.870082 
L 163.93978 217.577204 
L 165.18317 217.577204 
L 165.18317 217.284326 
L 166.846568 217.284326 
L 166.846568 216.991448 
L 167.87571 216.991448 
L 167.87571 216.69857 
L 169.196674 216.69857 
L 169.196674 216.405691 
L 169.368718 216.405691 
L 169.368718 216.112813 
L 169.536205 216.112813 
L 169.536205 215.819935 
L 171.540414 215.819935 
L 171.57086 215.234179 
L 172.009209 215.234179 
L 172.009209 214.9413 
L 172.431152 214.9413 
L 172.431152 214.648422 
L 172.767051 214.648422 
L 172.767051 214.355544 
L 173.096642 214.355544 
L 173.096642 214.062666 
L 173.735065 214.062666 
L 173.735065 213.769788 
L 174.402353 213.769788 
L 174.402353 213.476909 
L 174.744008 213.476909 
L 174.744008 213.184031 
L 175.343437 213.184031 
L 175.343437 212.891153 
L 175.699264 212.891153 
L 175.699264 212.598275 
L 175.823452 212.598275 
L 175.823452 212.305397 
L 175.989964 212.305397 
L 176.074756 211.71964 
L 176.237531 211.71964 
L 176.237531 211.426762 
L 177.395721 211.426762 
L 177.395721 211.133884 
L 178.819362 211.133884 
L 178.819362 210.841006 
L 179.917871 210.841006 
L 179.917871 210.548128 
L 180.422401 210.548128 
L 180.431847 209.962371 
L 180.651776 209.962371 
L 180.651776 209.669493 
L 181.288968 209.669493 
L 181.295689 209.083737 
L 181.602058 209.083737 
L 181.602058 208.790858 
L 182.235161 208.790858 
L 182.322909 208.205102 
L 182.386913 208.205102 
L 182.408804 207.326468 
L 182.855707 207.326468 
L 182.944376 206.740711 
L 183.265925 206.740711 
L 183.265925 206.447833 
L 183.564099 206.447833 
L 183.611487 205.569198 
L 184.887894 205.569198 
L 184.887894 205.27632 
L 185.201206 205.27632 
L 185.201206 204.983442 
L 185.398308 204.983442 
L 185.398308 204.690564 
L 185.541055 204.690564 
L 185.541055 204.397686 
L 185.696791 204.397686 
L 185.696791 204.104807 
L 185.920117 204.104807 
L 185.920117 203.811929 
L 186.235383 203.811929 
L 186.235383 203.519051 
L 186.786684 203.519051 
L 186.864851 202.933295 
L 187.095675 202.933295 
L 187.095675 202.640417 
L 187.756482 202.640417 
L 187.756482 202.347538 
L 188.087197 202.347538 
L 188.087197 202.05466 
L 188.315599 202.05466 
L 188.315599 201.761782 
L 188.760352 201.761782 
L 188.760352 201.468904 
L 188.944318 201.468904 
L 188.944318 201.176026 
L 189.183064 201.176026 
L 189.257408 200.590269 
L 189.733439 200.590269 
L 189.733439 200.297391 
L 190.007959 200.297391 
L 190.051708 199.418756 
L 190.444539 199.418756 
L 190.520503 198.833 
L 190.762527 198.833 
L 190.762527 198.540122 
L 190.876755 198.540122 
L 190.90883 197.661487 
L 191.219449 197.661487 
L 191.221919 196.782853 
L 191.377624 196.782853 
L 191.377624 196.197096 
L 191.690714 196.197096 
L 191.690714 195.904218 
L 191.900439 195.904218 
L 191.900439 195.61134 
L 192.135467 195.61134 
L 192.182728 195.025584 
L 192.421496 195.025584 
L 192.458669 194.439827 
L 192.543244 194.439827 
L 192.543244 194.146949 
L 192.784314 194.146949 
L 192.872062 193.561193 
L 193.18396 193.561193 
L 193.18396 192.975436 
L 193.404861 192.975436 
L 193.483885 192.38968 
L 193.584913 192.38968 
L 193.652755 191.803924 
L 193.877396 191.803924 
L 193.877396 191.511045 
L 194.159685 191.511045 
L 194.159685 191.218167 
L 194.442034 191.218167 
L 194.507755 190.339533 
L 194.755124 190.339533 
L 194.755124 190.046654 
L 194.97655 190.046654 
L 195.046419 189.460898 
L 195.184413 189.460898 
L 195.184413 189.16802 
L 195.411832 189.16802 
L 195.411832 188.875142 
L 195.629166 188.875142 
L 195.629166 188.582264 
L 195.750359 188.582264 
L 195.750359 188.289385 
L 195.947461 188.289385 
L 196.052983 187.410751 
L 196.27229 187.410751 
L 196.27229 187.117873 
L 196.446851 187.117873 
L 196.446851 186.824994 
L 196.717165 186.824994 
L 196.717165 186.532116 
L 197.173416 186.532116 
L 197.173416 186.239238 
L 197.376343 186.239238 
L 197.376343 185.653482 
L 197.745569 185.653482 
L 197.845138 185.067725 
L 198.04096 185.067725 
L 198.099889 184.481969 
L 198.249247 184.481969 
L 198.249247 184.189091 
L 199.150373 184.189091 
L 199.150373 183.896213 
L 199.416803 183.896213 
L 199.428851 183.310456 
L 199.555789 183.310456 
L 199.555789 183.017578 
L 199.800262 183.017578 
L 199.838078 182.431822 
L 200.007573 182.431822 
L 200.0644 181.553187 
L 200.123464 181.553187 
L 200.123464 181.260309 
L 200.277095 181.260309 
L 200.318618 180.381674 
L 200.533195 180.381674 
L 200.533195 180.088796 
L 200.657384 180.088796 
L 200.657384 179.795918 
L 200.909548 179.795918 
L 200.980586 178.917283 
L 201.069656 178.917283 
L 201.069656 178.624405 
L 201.182042 178.624405 
L 201.269791 177.745771 
L 201.293675 177.745771 
L 201.31168 177.160014 
L 201.5203 177.160014 
L 201.626795 176.28138 
L 201.714544 176.28138 
L 201.802589 175.402745 
L 201.926778 175.402745 
L 202.025916 174.231232 
L 202.239867 174.231232 
L 202.271384 173.645476 
L 202.368153 173.645476 
L 202.368153 173.352598 
L 202.932514 173.352598 
L 203.003204 172.766841 
L 203.189379 172.766841 
L 203.255716 171.595329 
L 203.597605 171.595329 
L 203.597605 171.30245 
L 203.717778 171.30245 
L 203.743198 170.423816 
L 203.830947 170.423816 
L 203.92764 169.83806 
L 204.01593 169.83806 
L 204.01593 169.545181 
L 204.148088 169.545181 
L 204.256309 168.666547 
L 204.34519 168.666547 
L 204.34519 168.373669 
L 204.5749 168.373669 
L 204.59284 167.202156 
L 204.789943 167.202156 
L 204.887989 166.030643 
L 205.053505 166.030643 
L 205.053505 165.737765 
L 205.312841 165.737765 
L 205.335794 165.152009 
L 205.525703 165.152009 
L 205.603541 164.566252 
L 205.813191 164.566252 
L 205.892151 163.687618 
L 206.14073 163.687618 
L 206.14073 163.394739 
L 206.360946 163.394739 
L 206.360946 163.101861 
L 206.572823 163.101861 
L 206.677354 162.223227 
L 206.709244 162.223227 
L 206.793277 161.344592 
L 206.85003 161.344592 
L 206.906346 160.465958 
L 206.996004 160.465958 
L 206.996004 160.173079 
L 207.124898 160.173079 
L 207.187431 159.587323 
L 207.262072 159.587323 
L 207.268105 159.001567 
L 207.448099 159.001567 
L 207.448099 158.708688 
L 207.608207 158.708688 
L 207.608207 158.41581 
L 207.964616 158.41581 
L 207.964616 158.122932 
L 208.077002 158.122932 
L 208.173825 157.244297 
L 208.293609 157.244297 
L 208.394291 156.658541 
L 209.245062 156.658541 
L 209.245062 156.365663 
L 209.378782 156.365663 
L 209.425356 155.779907 
L 209.616655 155.779907 
L 209.710942 154.608394 
L 209.812955 154.608394 
L 209.872018 154.022637 
L 210.136157 154.022637 
L 210.154162 153.436881 
L 210.265352 153.436881 
L 210.326482 152.558246 
L 210.547833 152.558246 
L 210.556726 151.97249 
L 210.769259 151.97249 
L 210.860922 151.386734 
L 211.042414 151.386734 
L 211.082349 150.508099 
L 211.268854 150.508099 
L 211.355739 149.922343 
L 211.551143 149.922343 
L 211.592056 149.336586 
L 211.746659 149.336586 
L 211.800116 148.75083 
L 211.874345 148.75083 
L 211.891245 148.165074 
L 212.270565 148.165074 
L 212.270565 147.872195 
L 212.538248 147.872195 
L 212.538248 147.579317 
L 212.655118 147.579317 
L 212.655118 147.286439 
L 212.820537 147.286439 
L 212.885662 146.407805 
L 213.18506 146.407805 
L 213.272809 145.52917 
L 213.441636 145.52917 
L 213.441636 145.236292 
L 213.730471 145.236292 
L 213.730471 144.650535 
L 214.146758 144.650535 
L 214.146758 144.357657 
L 214.553151 144.357657 
L 214.553151 144.064779 
L 214.923455 144.064779 
L 214.923455 143.771901 
L 215.162423 143.771901 
L 215.18637 142.893266 
L 215.393733 142.893266 
L 215.46866 142.014632 
L 215.629411 142.014632 
L 215.640706 141.428875 
L 215.838486 141.428875 
L 215.869647 140.843119 
L 215.957396 140.843119 
L 215.963907 140.257363 
L 216.070333 140.257363 
L 216.151106 139.671606 
L 216.348208 139.671606 
L 216.348208 139.378728 
L 216.465088 139.378728 
L 216.541832 138.500093 
L 216.799622 138.500093 
L 216.9101 137.035703 
L 217.00084 137.035703 
L 217.034132 136.157068 
L 217.356761 136.157068 
L 217.356761 135.86419 
L 217.489979 135.86419 
L 217.489979 135.571312 
L 217.811226 135.571312 
L 217.865044 134.985555 
L 217.954889 134.985555 
L 217.954889 134.692677 
L 218.15736 134.692677 
L 218.15736 134.399799 
L 218.272737 134.399799 
L 218.272737 134.106921 
L 218.394631 134.106921 
L 218.394631 133.814042 
L 218.626155 133.814042 
L 218.725336 133.228286 
L 218.761663 133.228286 
L 218.835693 132.349652 
L 218.954455 132.349652 
L 219.032795 131.178139 
L 219.399208 131.178139 
L 219.467438 130.006626 
L 219.527014 130.006626 
L 219.558222 129.127991 
L 219.691541 129.127991 
L 219.703404 128.542235 
L 219.982242 128.542235 
L 220.085458 127.956479 
L 220.197844 127.956479 
L 220.268576 127.077844 
L 220.421171 127.077844 
L 220.459348 126.19921 
L 220.581665 126.19921 
L 220.642597 125.613453 
L 221.159303 125.613453 
L 221.247801 124.734819 
L 221.421964 124.734819 
L 221.515611 123.856184 
L 221.539665 123.856184 
L 221.637621 123.270428 
L 221.712427 123.270428 
L 221.764583 122.684671 
L 222.037894 122.684671 
L 222.037894 122.391793 
L 222.327524 122.391793 
L 222.405311 121.806037 
L 222.440398 121.806037 
L 222.543706 120.927402 
L 222.602413 120.927402 
L 222.602413 120.634524 
L 222.759 120.634524 
L 222.836576 120.048768 
L 222.892362 120.048768 
L 222.954047 119.170133 
L 223.127276 119.170133 
L 223.127276 118.877255 
L 223.283511 118.877255 
L 223.283511 118.584377 
L 223.867501 118.584377 
L 223.867501 118.291499 
L 224.126097 118.291499 
L 224.229302 117.705742 
L 224.3232 117.705742 
L 224.397014 116.827108 
L 224.644053 116.827108 
L 224.644053 116.534229 
L 225.012111 116.534229 
L 225.113546 115.948473 
L 225.526213 115.948473 
L 225.531155 115.362717 
L 225.642104 115.362717 
L 225.642104 115.069838 
L 225.816913 115.069838 
L 225.843712 114.484082 
L 226.432281 114.484082 
L 226.432281 114.191204 
L 226.555089 114.191204 
L 226.636521 113.605448 
L 226.73609 113.605448 
L 226.73609 113.312569 
L 226.959722 113.312569 
L 227.023884 112.433935 
L 227.098003 112.433935 
L 227.129218 111.848178 
L 227.319641 111.848178 
L 227.419594 110.383787 
L 227.468637 110.383787 
L 227.507342 109.798031 
L 227.603765 109.798031 
L 227.603765 109.505153 
L 227.789087 109.505153 
L 227.789087 109.212275 
L 227.905914 109.212275 
L 227.966632 108.626518 
L 228.581729 108.626518 
L 228.581729 108.33364 
L 228.747197 108.33364 
L 228.747197 108.040762 
L 228.906708 108.040762 
L 228.906708 107.747884 
L 229.070399 107.747884 
L 229.116245 106.869249 
L 229.424147 106.869249 
L 229.424147 106.576371 
L 229.58504 106.576371 
L 229.687418 105.990615 
L 230.016591 105.990615 
L 230.081338 105.404858 
L 230.13926 105.404858 
L 230.13926 105.11198 
L 230.302516 105.11198 
L 230.385639 104.233346 
L 230.444171 104.233346 
L 230.554037 103.061833 
L 230.582741 103.061833 
L 230.582741 102.768955 
L 230.748799 102.768955 
L 230.838127 101.89032 
L 230.880046 101.89032 
L 230.957473 101.304564 
L 230.999552 101.304564 
L 230.999552 101.011685 
L 231.142696 101.011685 
L 231.162336 100.425929 
L 231.28288 100.425929 
L 231.28288 100.133051 
L 231.469855 100.133051 
L 231.537451 99.547295 
L 232.064764 99.547295 
L 232.088818 98.961538 
L 232.200863 98.961538 
L 232.200863 98.66866 
L 232.313737 98.66866 
L 232.370981 97.790025 
L 232.664714 97.790025 
L 232.664714 97.204269 
L 233.126847 97.204269 
L 233.214595 96.325634 
L 233.322467 96.325634 
L 233.399283 95.154122 
L 233.438436 95.154122 
L 233.51957 94.568365 
L 233.64206 94.568365 
L 233.676429 93.689731 
L 233.911836 93.689731 
L 233.911836 93.396853 
L 234.885449 93.396853 
L 234.992085 92.518218 
L 235.251898 92.518218 
L 235.251898 92.22534 
L 235.371743 92.22534 
L 235.371743 91.932462 
L 235.94696 91.932462 
L 235.988786 91.346705 
L 236.092892 91.346705 
L 236.153024 90.760949 
L 236.289995 90.760949 
L 236.320376 90.175193 
L 236.52697 90.175193 
L 236.562057 89.589436 
L 237.017276 89.589436 
L 237.017276 89.296558 
L 237.211678 89.296558 
L 237.285697 88.710802 
L 237.387762 88.710802 
L 237.387762 88.417923 
L 237.576397 88.417923 
L 237.576397 88.125045 
L 237.870382 88.125045 
L 237.870382 87.832167 
L 238.067485 87.832167 
L 238.067485 87.539289 
L 238.33824 87.539289 
L 238.338307 86.953532 
L 238.455068 86.953532 
L 238.558107 86.367776 
L 238.637647 86.367776 
L 238.637647 86.074898 
L 238.883789 86.074898 
L 238.932465 85.196263 
L 239.010013 85.196263 
L 239.026902 84.610507 
L 239.198599 84.610507 
L 239.198599 84.317629 
L 239.498886 84.317629 
L 239.498886 84.024751 
L 239.976988 84.024751 
L 239.976988 83.731872 
L 240.131258 83.731872 
L 240.175854 83.146116 
L 240.38258 83.146116 
L 240.38258 82.853238 
L 240.501061 82.853238 
L 240.526013 81.974603 
L 240.711465 81.974603 
L 240.777334 81.388847 
L 241.156218 81.388847 
L 241.242694 80.803091 
L 241.297952 80.803091 
L 241.340603 80.217334 
L 241.631284 80.217334 
L 241.711489 79.3387 
L 242.02988 79.3387 
L 242.110883 78.752943 
L 242.238208 78.752943 
L 242.269311 78.167187 
L 242.46567 78.167187 
L 242.46567 77.874309 
L 242.841145 77.874309 
L 242.841145 77.58143 
L 243.272621 77.58143 
L 243.272621 77.288552 
L 243.431703 77.288552 
L 243.452411 76.702796 
L 244.046801 76.702796 
L 244.046801 76.409918 
L 244.568113 76.409918 
L 244.576346 75.824161 
L 244.812312 75.824161 
L 244.812312 75.531283 
L 245.192006 75.531283 
L 245.281107 74.652649 
L 245.525732 74.652649 
L 245.586809 73.774014 
L 246.247713 73.774014 
L 246.247713 73.481136 
L 246.391178 73.481136 
L 246.435396 72.895379 
L 246.533099 72.895379 
L 246.614417 72.309623 
L 246.869529 72.309623 
L 246.869529 72.016745 
L 247.001894 72.016745 
L 247.001894 71.723867 
L 247.338538 71.723867 
L 247.338538 71.430989 
L 248.128835 71.430989 
L 248.128835 71.13811 
L 248.35839 71.13811 
L 248.35839 70.845232 
L 249.09535 70.845232 
L 249.116028 70.259476 
L 249.372224 70.259476 
L 249.372224 69.966598 
L 250.147941 69.966598 
L 250.147941 69.673719 
L 250.769497 69.673719 
L 250.816137 69.087963 
L 250.89926 69.087963 
L 250.89926 68.795085 
L 252.142649 68.795085 
L 252.142649 68.502207 
L 252.67675 68.502207 
L 252.714483 67.91645 
L 252.79264 67.91645 
L 252.79264 67.623572 
L 253.261435 67.623572 
L 253.261435 67.330694 
L 253.614819 67.330694 
L 253.614819 67.037816 
L 253.920139 67.037816 
L 253.972842 66.452059 
L 255.39907 66.452059 
L 255.446556 65.866303 
L 255.729469 65.866303 
L 255.729469 65.573425 
L 256.198264 65.573425 
L 256.198264 65.280547 
L 257.075678 65.280547 
L 257.075678 64.987668 
L 258.499893 64.987668 
L 258.499893 64.69479 
L 258.949302 64.69479 
L 258.968688 63.816156 
L 260.012507 63.816156 
L 260.012507 63.523277 
L 260.277383 63.523277 
L 260.277383 63.230399 
L 260.689475 63.230399 
L 260.746178 62.644643 
L 260.993118 62.644643 
L 260.993118 62.351765 
L 261.813866 62.351765 
L 261.813866 62.058887 
L 262.782932 62.058887 
L 262.782932 61.766008 
L 262.961404 61.766008 
L 263.013416 61.180252 
L 263.076484 61.180252 
L 263.076484 60.887374 
L 263.212726 60.887374 
L 263.212726 60.594496 
L 263.402762 60.594496 
L 263.402762 60.301617 
L 263.797516 60.301617 
L 263.797516 60.008739 
L 264.138152 60.008739 
L 264.138152 59.715861 
L 264.518965 59.715861 
L 264.560421 59.130105 
L 264.945708 59.130105 
L 264.945708 58.837226 
L 266.827789 58.837226 
L 266.827789 58.544348 
L 266.949016 58.544348 
L 266.949016 58.25147 
L 268.375098 58.25147 
L 268.375098 57.958592 
L 269.885845 57.958592 
L 269.885845 57.665714 
L 271.223518 57.665714 
L 271.223518 57.372836 
L 272.65627 57.372836 
L 272.65627 57.079957 
L 273.366341 57.079957 
L 273.366341 56.787079 
L 274.220434 56.787079 
L 274.220434 56.494201 
L 274.43376 56.494201 
L 274.43376 56.201323 
L 274.687305 56.201323 
L 274.687305 55.908445 
L 278.587273 55.908445 
L 278.587273 55.615566 
L 279.183488 55.615566 
L 279.183488 55.322688 
L 279.422565 55.322688 
L 279.422565 55.02981 
L 284.060019 55.02981 
L 284.060019 54.736932 
L 285.992312 54.736932 
L 285.992312 54.444054 
L 286.232907 54.444054 
L 286.232907 54.151175 
L 287.689033 54.151175 
L 287.689033 53.858297 
L 289.331467 53.858297 
L 289.358634 53.272541 
L 289.66599 53.272541 
L 289.66599 52.979663 
L 291.290927 52.979663 
L 291.290927 52.686785 
L 292.364908 52.686785 
L 292.376957 52.101028 
L 293.031404 52.101028 
L 293.031404 51.80815 
L 293.891696 51.80815 
L 293.891696 51.515272 
L 294.328315 51.515272 
L 294.328315 51.222394 
L 294.619015 51.222394 
L 294.619015 50.929515 
L 295.188607 50.929515 
L 295.267037 50.343759 
L 295.316258 50.343759 
L 295.344383 49.758003 
L 295.479307 49.758003 
L 295.479307 49.465124 
L 296.80398 49.465124 
L 296.80398 49.172246 
L 297.308894 49.172246 
L 297.308894 48.58649 
L 297.777689 48.58649 
L 297.777689 48.293612 
L 298.100891 48.293612 
L 298.100891 48.000734 
L 298.391591 48.000734 
L 298.391591 47.707855 
L 299.280826 47.707855 
L 299.280826 47.414977 
L 300.141118 47.414977 
L 300.141118 47.122099 
L 300.279906 47.122099 
L 300.279906 46.829221 
L 300.565652 46.829221 
L 300.565652 46.536343 
L 300.842099 46.536343 
L 300.842099 46.243464 
L 301.576817 46.243464 
L 301.576817 45.950586 
L 301.867517 45.950586 
L 301.867517 45.657708 
L 302.240538 45.657708 
L 302.240538 45.36483 
L 303.053403 45.36483 
L 303.10083 44.779073 
L 304.40383 44.779073 
L 304.40383 44.486195 
L 306.013115 44.486195 
L 306.031476 43.900439 
L 306.529328 43.900439 
L 306.529328 43.607561 
L 307.057449 43.607561 
L 307.057449 43.314683 
L 307.38065 43.314683 
L 307.38065 43.021804 
L 307.812115 43.021804 
L 307.812115 42.728926 
L 308.326842 42.728926 
L 308.326842 42.436048 
L 308.672407 42.436048 
L 308.672407 42.14317 
L 309.48904 42.14317 
L 309.48904 41.850292 
L 310.813149 41.850292 
L 310.813149 41.557413 
L 310.974965 41.557413 
L 310.974965 40.971657 
L 311.584691 40.971657 
L 311.584691 40.678779 
L 313.392392 40.678779 
L 313.392392 40.385901 
L 313.643713 40.385901 
L 313.643713 40.093022 
L 315.060617 40.093022 
L 315.060617 39.800144 
L 316.506962 39.800144 
L 316.506962 39.507266 
L 316.947898 39.507266 
L 316.947898 39.214388 
L 317.803873 39.214388 
L 317.803873 38.92151 
L 318.094574 38.92151 
L 318.094574 38.628632 
L 322.756385 38.628632 
L 322.756385 38.335753 
L 322.886597 38.335753 
L 322.886597 38.042875 
L 323.087365 38.042875 
L 323.087365 37.749997 
L 325.716097 37.749997 
L 325.716097 37.457119 
L 326.668641 37.457119 
L 326.668641 37.164241 
L 331.286412 37.164241 
L 331.287673 36.578484 
L 334.115662 36.578484 
L 334.115662 36.285606 
L 335.412573 36.285606 
L 335.412573 35.992728 
L 335.629891 35.992728 
L 335.703273 35.406971 
L 336.490183 35.406971 
L 336.490183 35.114093 
L 336.663895 35.114093 
L 336.663895 34.821215 
L 339.402468 34.821215 
L 339.402468 34.528337 
L 340.365085 34.528337 
L 340.365085 34.235459 
L 342.878393 34.235459 
L 342.878393 33.942581 
L 343.324797 33.942581 
L 343.324797 33.649702 
L 348.896373 33.649702 
L 348.896373 33.356824 
L 359.10545 33.356824 
L 359.10545 33.063946 
L 361.987579 33.063946 
L 361.987579 32.771068 
L 376.71415 32.771068 
L 376.71415 32.47819 
L 377.059942 32.47819 
L 377.059942 32.185311 
L 385.979509 32.185311 
L 386.048504 31.599555 
L 386.299826 31.599555 
L 386.299826 31.306677 
L 387.27642 31.306677 
L 387.27642 31.013799 
L 387.56712 31.013799 
L 387.56712 30.72092 
L 392.228931 30.72092 
L 392.228931 30.428042 
L 395.188643 30.428042 
L 395.188643 30.135164 
L 400.76022 30.135164 
L 400.76022 29.842286 
L 409.320008 29.842286 
L 409.320008 29.549408 
L 428.577996 29.549408 
L 428.577996 29.25653 
L 453.192 29.25653 
L 453.192 29.25653 
" clip-path="url(#p990ac9437d)" style="fill: none; stroke: #000000; stroke-width: 3; stroke-linecap: square"/>
   </g>
   <g id="line2d_18">
    <path clip-path="url(#p990ac9437d)" style="fill: none; stroke: #000000; stroke-width: 3; stroke-linecap: square"/>
   </g>
   <g id="line2d_19">
    <path d="M 34.16 195.934425 
L 98.315374 195.934425 
L 98.315374 195.511963 
L 101.371774 195.511963 
L 101.371774 195.0895 
L 107.910326 195.0895 
L 107.910326 194.667038 
L 113.863852 194.667038 
L 113.863852 194.244575 
L 115.432423 194.244575 
L 115.432423 193.822113 
L 116.920253 193.822113 
L 116.920253 193.39965 
L 123.458804 193.39965 
L 123.458804 192.977187 
L 126.192637 192.977187 
L 126.192637 192.554725 
L 129.249038 192.554725 
L 129.249038 192.132262 
L 130.980902 192.132262 
L 130.980902 191.7098 
L 132.165178 191.7098 
L 132.165178 191.287337 
L 135.730647 191.287337 
L 135.787589 190.442412 
L 136.590882 190.442412 
L 136.590882 190.01995 
L 138.414295 190.01995 
L 138.414295 189.597487 
L 138.787048 189.597487 
L 138.787048 189.175024 
L 139.647283 189.175024 
L 139.647283 188.752562 
L 141.470696 188.752562 
L 141.470696 188.330099 
L 143.309687 188.330099 
L 143.309687 187.907637 
L 145.3256 187.907637 
L 145.3256 187.485174 
L 146.185834 187.485174 
L 146.185834 187.062712 
L 147.713657 187.062712 
L 147.713657 186.640249 
L 148.009247 186.640249 
L 148.009247 186.217787 
L 151.758089 186.217787 
L 151.758089 185.795324 
L 151.931342 185.795324 
L 151.931342 185.372861 
L 152.847697 185.372861 
L 152.847697 184.950399 
L 152.969697 184.950399 
L 152.969697 184.527936 
L 153.707932 184.527936 
L 153.707932 184.105474 
L 154.367433 184.105474 
L 154.367433 183.683011 
L 154.81449 183.683011 
L 154.81449 183.260549 
L 154.987743 183.260549 
L 154.987743 182.838086 
L 155.531345 182.838086 
L 155.531345 182.415624 
L 156.468373 182.415624 
L 156.468373 181.993161 
L 156.785544 181.993161 
L 156.785544 181.570698 
L 157.423834 181.570698 
L 157.423834 181.148236 
L 158.954613 181.148236 
L 158.954613 180.725773 
L 159.524774 180.725773 
L 159.524774 180.303311 
L 159.794038 180.303311 
L 159.794038 179.880848 
L 160.042441 179.880848 
L 160.042441 179.458386 
L 161.353041 179.458386 
L 161.353041 179.035923 
L 161.526294 179.035923 
L 161.526294 178.613461 
L 162.850439 178.613461 
L 162.850439 178.190998 
L 163.962385 178.190998 
L 163.962385 177.768535 
L 166.063326 177.768535 
L 166.063326 177.346073 
L 168.518176 177.346073 
L 168.518176 176.92361 
L 168.875139 176.92361 
L 168.978165 176.078685 
L 169.048392 176.078685 
L 169.048392 175.656223 
L 169.38899 175.656223 
L 169.38899 175.23376 
L 169.580452 175.23376 
L 169.660444 174.388835 
L 169.726787 174.388835 
L 169.726787 173.966372 
L 170.440687 173.966372 
L 170.440687 173.54391 
L 171.240536 173.54391 
L 171.240536 173.121447 
L 171.484483 173.121447 
L 171.484483 172.698985 
L 172.259259 172.698985 
L 172.334023 171.431597 
L 172.783188 171.431597 
L 172.783188 171.009134 
L 172.941538 171.009134 
L 172.941538 170.586672 
L 173.585423 170.586672 
L 173.585423 170.164209 
L 174.503092 170.164209 
L 174.52163 169.319284 
L 175.295828 169.319284 
L 175.295828 168.896822 
L 176.911088 168.896822 
L 176.911088 168.474359 
L 177.469813 168.474359 
L 177.469813 168.051897 
L 178.505831 168.051897 
L 178.576922 167.206971 
L 179.159554 167.206971 
L 179.159554 166.784509 
L 179.321739 166.784509 
L 179.321739 166.362046 
L 179.545833 166.362046 
L 179.545833 165.939584 
L 179.943606 165.939584 
L 179.943606 165.517121 
L 180.172031 165.517121 
L 180.172031 165.094659 
L 180.625885 165.094659 
L 180.625885 164.672196 
L 180.750907 164.672196 
L 180.85431 163.404808 
L 181.786925 163.404808 
L 181.786925 162.982346 
L 182.205977 162.982346 
L 182.251769 162.137421 
L 182.434401 162.137421 
L 182.440648 161.292496 
L 184.662807 161.292496 
L 184.662807 160.870033 
L 185.607894 160.870033 
L 185.607894 160.447571 
L 185.781146 160.447571 
L 185.781146 160.025108 
L 186.261268 160.025108 
L 186.261268 159.602645 
L 186.489693 159.602645 
L 186.489693 159.180183 
L 186.831876 159.180183 
L 186.843837 158.335258 
L 188.217238 158.335258 
L 188.217238 157.912795 
L 188.435253 157.912795 
L 188.435253 157.490333 
L 188.605809 157.490333 
L 188.663678 156.645408 
L 189.288088 156.645408 
L 189.288088 156.222945 
L 189.471271 156.222945 
L 189.471271 155.800482 
L 189.699696 155.800482 
L 189.699696 155.37802 
L 190.124995 155.37802 
L 190.124995 154.955557 
L 190.318178 154.955557 
L 190.384971 153.68817 
L 190.868179 153.68817 
L 190.868179 153.265707 
L 191.245206 153.265707 
L 191.245206 152.843245 
L 191.409436 152.843245 
L 191.506444 151.998319 
L 192.091715 151.998319 
L 192.091715 151.575857 
L 193.068619 151.575857 
L 193.068619 151.153394 
L 193.643842 151.153394 
L 193.671807 150.308469 
L 194.200818 150.308469 
L 194.200818 149.886007 
L 194.787538 149.886007 
L 194.787538 149.463544 
L 194.923471 149.463544 
L 194.923471 149.041082 
L 195.061052 149.041082 
L 195.094312 148.196156 
L 196.369887 148.196156 
L 196.369887 147.773694 
L 196.732188 147.773694 
L 196.732188 147.351231 
L 196.884465 147.351231 
L 196.884465 146.928769 
L 197.097456 146.928769 
L 197.097456 146.506306 
L 197.230122 146.506306 
L 197.230122 146.083844 
L 197.414467 146.083844 
L 197.414467 145.661381 
L 197.685894 145.661381 
L 197.727099 144.816456 
L 197.800247 144.816456 
L 197.800247 144.393993 
L 198.133474 144.393993 
L 198.133474 143.971531 
L 198.787198 143.971531 
L 198.787198 143.549068 
L 198.994558 143.549068 
L 199.053534 142.704143 
L 199.901084 142.704143 
L 199.977627 141.859218 
L 200.937102 141.859218 
L 200.937102 141.436755 
L 201.590825 141.436755 
L 201.590825 141.014293 
L 202.471884 141.014293 
L 202.471884 140.59183 
L 202.700309 140.59183 
L 202.700309 140.169368 
L 203.04985 140.169368 
L 203.04985 139.746905 
L 203.576591 139.746905 
L 203.576591 139.324443 
L 205.223835 139.324443 
L 205.223835 138.90198 
L 206.259853 138.90198 
L 206.259853 138.479518 
L 206.412413 138.479518 
L 206.412413 138.057055 
L 206.585666 138.057055 
L 206.585666 137.634592 
L 206.913577 137.634592 
L 206.913577 137.21213 
L 207.423097 137.21213 
L 207.423097 136.789667 
L 209.021757 136.789667 
L 209.021757 136.367205 
L 210.129032 136.367205 
L 210.228259 135.52228 
L 210.401512 135.52228 
L 210.401512 135.099817 
L 211.122697 135.099817 
L 211.134087 134.254892 
L 212.397329 134.254892 
L 212.397329 133.832429 
L 212.570581 133.832429 
L 212.570581 133.409967 
L 212.837603 133.409967 
L 212.837603 132.987504 
L 213.234373 132.987504 
L 213.234373 132.565042 
L 213.937715 132.565042 
L 213.937715 132.142579 
L 214.448362 132.142579 
L 214.448362 131.720117 
L 214.938544 131.720117 
L 215.006673 130.875192 
L 215.526105 130.875192 
L 215.526105 130.452729 
L 215.970158 130.452729 
L 215.970158 130.030266 
L 216.961107 130.030266 
L 216.961107 129.607804 
L 217.107613 129.607804 
L 217.107613 129.185341 
L 217.821342 129.185341 
L 217.821342 128.762879 
L 218.209868 128.762879 
L 218.264208 127.917954 
L 219.251252 127.917954 
L 219.260466 127.073029 
L 219.644755 127.073029 
L 219.667043 126.228103 
L 219.94863 126.228103 
L 219.94863 125.805641 
L 220.433277 125.805641 
L 220.527277 124.960716 
L 221.490962 124.960716 
L 221.490962 124.538253 
L 221.631502 124.538253 
L 221.631502 124.115791 
L 222.35069 124.115791 
L 222.35069 123.693328 
L 223.229724 123.693328 
L 223.229724 123.270866 
L 223.949868 123.270866 
L 223.949868 122.848403 
L 224.381111 122.848403 
L 224.381111 122.42594 
L 224.912596 122.42594 
L 224.912596 122.003478 
L 225.563158 122.003478 
L 225.563158 121.581015 
L 225.747225 121.581015 
L 225.747225 121.158553 
L 226.935599 121.158553 
L 226.935599 120.73609 
L 227.164024 120.73609 
L 227.230962 119.468702 
L 227.85489 119.468702 
L 227.899814 118.623777 
L 228.196957 118.623777 
L 228.196957 118.201315 
L 229.028318 118.201315 
L 229.028318 117.778852 
L 229.175308 117.778852 
L 229.175308 117.35639 
L 229.403733 117.35639 
L 229.479906 116.511465 
L 229.589248 116.511465 
L 229.589248 116.089002 
L 230.271527 116.089002 
L 230.366026 115.244077 
L 230.773574 115.244077 
L 230.773574 114.821614 
L 230.909808 114.821614 
L 230.91407 113.976689 
L 231.142495 113.976689 
L 231.142495 113.554227 
L 231.338637 113.554227 
L 231.338637 113.131764 
L 231.455853 113.131764 
L 231.455853 112.709302 
L 231.592087 112.709302 
L 231.592087 112.286839 
L 231.851619 112.286839 
L 231.851619 111.864376 
L 232.239787 111.864376 
L 232.239787 111.441914 
L 232.596942 111.441914 
L 232.596942 111.019451 
L 232.825367 111.019451 
L 232.825367 110.596989 
L 232.988549 110.596989 
L 233.035945 109.752064 
L 233.161802 109.752064 
L 233.172179 108.907139 
L 233.535197 108.907139 
L 233.535197 108.484676 
L 234.194763 108.484676 
L 234.270988 107.639751 
L 234.915309 107.639751 
L 234.915309 107.217288 
L 235.101168 107.217288 
L 235.143733 106.372363 
L 235.597801 106.372363 
L 235.694484 105.104976 
L 235.709182 105.104976 
L 235.709182 104.682513 
L 235.867737 104.682513 
L 235.961403 103.415125 
L 236.225964 103.415125 
L 236.225964 102.992663 
L 236.712665 102.992663 
L 236.7452 102.147738 
L 236.935778 102.147738 
L 236.94109 101.302813 
L 237.091237 101.302813 
L 237.091237 100.88035 
L 237.227471 100.88035 
L 237.303019 100.035425 
L 237.392901 100.035425 
L 237.460563 98.768037 
L 237.618057 98.768037 
L 237.698833 97.923112 
L 237.784816 97.923112 
L 237.837511 97.078187 
L 238.080896 97.078187 
L 238.080896 96.655724 
L 238.253135 96.655724 
L 238.303828 95.810799 
L 238.401429 95.810799 
L 238.436 94.965874 
L 239.116914 94.965874 
L 239.198148 94.120949 
L 239.265222 94.120949 
L 239.334221 93.276024 
L 239.401456 93.276024 
L 239.491764 92.431099 
L 239.576273 92.431099 
L 239.576273 92.008636 
L 239.770637 92.008636 
L 239.770637 91.586174 
L 240.076548 91.586174 
L 240.076548 91.163711 
L 240.30124 91.163711 
L 240.404769 90.318786 
L 240.437474 90.318786 
L 240.437474 89.896323 
L 240.641139 89.896323 
L 240.641139 89.473861 
L 240.954963 89.473861 
L 241.024497 88.628936 
L 241.091197 88.628936 
L 241.091197 88.206473 
L 241.259145 88.206473 
L 241.259145 87.784011 
L 241.717094 87.784011 
L 241.717094 87.361548 
L 242.379901 87.361548 
L 242.379901 86.939086 
L 243.25344 86.939086 
L 243.25344 86.516623 
L 243.577511 86.516623 
L 243.577511 86.09416 
L 243.72418 86.09416 
L 243.730433 85.249235 
L 244.062773 85.249235 
L 244.062773 84.826773 
L 245.374868 84.826773 
L 245.427425 83.981848 
L 245.96389 83.981848 
L 245.96389 83.559385 
L 246.381139 83.559385 
L 246.463443 82.71446 
L 246.887116 82.71446 
L 246.887116 82.291997 
L 247.117167 82.291997 
L 247.117167 81.869535 
L 247.702652 81.869535 
L 247.702652 81.447072 
L 248.178495 81.447072 
L 248.21068 80.602147 
L 249.385524 80.602147 
L 249.401441 79.757222 
L 249.629866 79.757222 
L 249.629866 79.33476 
L 249.745813 79.33476 
L 249.745813 78.912297 
L 250.078403 78.912297 
L 250.078403 78.489834 
L 250.541346 78.489834 
L 250.541346 78.067372 
L 250.957246 78.067372 
L 250.957246 77.644909 
L 251.12861 77.644909 
L 251.12861 77.222447 
L 251.272408 77.222447 
L 251.301863 76.377522 
L 251.70389 76.377522 
L 251.70389 75.955059 
L 251.954687 75.955059 
L 251.954687 75.532597 
L 252.109605 75.532597 
L 252.117527 74.687671 
L 252.572548 74.687671 
L 252.572548 74.265209 
L 252.684896 74.265209 
L 252.684896 73.842746 
L 253.301853 73.842746 
L 253.301853 73.420284 
L 253.420342 73.420284 
L 253.501247 72.152896 
L 253.534779 72.152896 
L 253.593595 71.307971 
L 253.663182 71.307971 
L 253.737954 70.463046 
L 254.639872 70.463046 
L 254.639872 70.040583 
L 255.838894 70.040583 
L 255.838894 69.618121 
L 256.029686 69.618121 
L 256.029686 69.195658 
L 256.699595 69.195658 
L 256.699595 68.773196 
L 257.381874 68.773196 
L 257.381874 68.350733 
L 257.590071 68.350733 
L 257.590071 67.92827 
L 257.748128 67.92827 
L 257.748128 67.505808 
L 257.905672 67.505808 
L 257.905672 67.083345 
L 258.063644 67.083345 
L 258.130627 66.23842 
L 258.961966 66.23842 
L 258.961966 65.815958 
L 259.164558 65.815958 
L 259.215901 64.971033 
L 259.464056 64.971033 
L 259.464056 64.54857 
L 259.764056 64.54857 
L 259.764056 64.126107 
L 260.628083 64.126107 
L 260.711215 63.281182 
L 260.800073 63.281182 
L 260.867271 62.436257 
L 261.310361 62.436257 
L 261.310361 62.013795 
L 261.453797 62.013795 
L 261.456291 61.16887 
L 262.890453 61.16887 
L 262.890453 60.746407 
L 263.017258 60.746407 
L 263.017258 60.323944 
L 263.759158 60.323944 
L 263.759158 59.901482 
L 265.191243 59.901482 
L 265.191243 59.479019 
L 266.190023 59.479019 
L 266.22726 58.634094 
L 266.880984 58.634094 
L 266.945745 57.789169 
L 268.50695 57.789169 
L 268.50695 57.366707 
L 268.753911 57.366707 
L 268.753911 56.944244 
L 269.097307 56.944244 
L 269.11973 56.099319 
L 269.614146 56.099319 
L 269.614146 55.676856 
L 270.155748 55.676856 
L 270.155748 55.254394 
L 270.523512 55.254394 
L 270.538152 54.409469 
L 270.809471 54.409469 
L 270.809471 53.987006 
L 270.986455 53.987006 
L 270.986455 53.564544 
L 271.38904 53.564544 
L 271.437559 52.719618 
L 273.800687 52.719618 
L 273.800687 52.297156 
L 274.209528 52.297156 
L 274.209528 51.874693 
L 276.087943 51.874693 
L 276.087943 51.452231 
L 276.259694 51.452231 
L 276.259694 51.029768 
L 276.449237 51.029768 
L 276.449237 50.607306 
L 276.581241 50.607306 
L 276.581241 50.184843 
L 277.765567 50.184843 
L 277.765567 49.76238 
L 277.901801 49.76238 
L 277.901801 49.339918 
L 278.188 49.339918 
L 278.188 48.917455 
L 278.820951 48.917455 
L 278.820951 48.494993 
L 279.227873 48.494993 
L 279.227873 48.07253 
L 279.870871 48.07253 
L 279.870871 47.650068 
L 280.005277 47.650068 
L 280.005277 47.227605 
L 280.141511 47.227605 
L 280.141511 46.805143 
L 280.559713 46.805143 
L 280.559713 46.38268 
L 281.744039 46.38268 
L 281.744039 45.960217 
L 281.880273 45.960217 
L 281.880273 45.537755 
L 282.189238 45.537755 
L 282.242585 44.69283 
L 283.156361 44.69283 
L 283.156361 44.270367 
L 283.426911 44.270367 
L 283.426911 43.847905 
L 283.563145 43.847905 
L 283.563145 43.425442 
L 283.92777 43.425442 
L 283.986594 42.580517 
L 284.560951 42.580517 
L 284.560951 42.158054 
L 284.781353 42.158054 
L 284.781353 41.735592 
L 284.954606 41.735592 
L 284.954606 41.313129 
L 285.625954 41.313129 
L 285.625954 40.890667 
L 285.745277 40.890667 
L 285.745277 40.468204 
L 285.881511 40.468204 
L 285.881511 40.045742 
L 286.16748 40.045742 
L 286.16748 39.623279 
L 286.358307 39.623279 
L 286.358307 39.200817 
L 286.486188 39.200817 
L 286.486188 38.778354 
L 287.390697 38.778354 
L 287.390697 38.355891 
L 287.542633 38.355891 
L 287.542633 37.933429 
L 287.678868 37.933429 
L 287.678868 37.510966 
L 287.906242 37.510966 
L 287.906242 37.088504 
L 288.309601 37.088504 
L 288.309601 36.666041 
L 288.588479 36.666041 
L 288.588479 36.243579 
L 288.952059 36.243579 
L 288.952059 35.821116 
L 289.491637 35.821116 
L 289.589114 34.976191 
L 291.90748 34.976191 
L 291.90748 34.553728 
L 292.817301 34.553728 
L 292.817301 34.131266 
L 293.704837 34.131266 
L 293.704837 33.708803 
L 296.67537 33.708803 
L 296.67537 33.286341 
L 298.126489 33.286341 
L 298.126489 32.863878 
L 298.264401 32.863878 
L 298.264401 32.441416 
L 298.986724 32.441416 
L 299.047083 31.596491 
L 300.231409 31.596491 
L 300.231409 31.174028 
L 300.367643 31.174028 
L 300.367643 30.751565 
L 300.504111 30.751565 
L 300.504111 30.329103 
L 300.810137 30.329103 
L 300.810137 29.90664 
L 301.653395 29.90664 
L 301.653395 29.484178 
L 301.826648 29.484178 
L 301.826648 29.061715 
L 302.242873 29.061715 
L 302.242873 28.639253 
L 302.75005 28.639253 
L 302.75005 28.21679 
L 303.691588 28.21679 
L 303.691588 27.794328 
L 303.925744 27.794328 
L 303.925744 27.371865 
L 304.262739 27.371865 
L 304.262739 26.949402 
L 305.931297 26.949402 
L 305.931297 26.52694 
L 306.244111 26.52694 
L 306.244111 26.104477 
L 306.36368 26.104477 
L 306.393613 25.259552 
L 307.620075 25.259552 
L 307.67006 24.414627 
L 308.041467 24.414627 
L 308.041467 23.992164 
L 309.352931 23.992164 
L 309.352931 23.569702 
L 309.689344 23.569702 
L 309.689344 23.147239 
L 309.859785 23.147239 
L 309.859785 22.724777 
L 311.598547 22.724777 
L 311.671298 21.879852 
L 313.281419 21.879852 
L 313.281419 21.457389 
L 313.468654 21.457389 
L 313.468654 21.034927 
L 314.153931 21.034927 
L 314.153931 20.612464 
L 314.327184 20.612464 
L 314.327184 20.190001 
L 315.599785 20.190001 
L 315.599785 19.767539 
L 316.763275 19.767539 
L 316.763275 19.345076 
L 317.397142 19.345076 
L 317.397142 18.922614 
L 318.864215 18.922614 
L 318.864215 18.500151 
L 319.622093 18.500151 
L 319.622093 18.077689 
L 320.730243 18.077689 
L 320.730243 17.655226 
L 322.18988 17.655226 
L 322.18988 17.232764 
L 326.15743 17.232764 
L 326.15743 16.810301 
L 330.085917 16.810301 
L 330.085917 16.387838 
L 332.122629 16.387838 
L 332.122629 15.965376 
L 453.192 15.965376 
L 453.192 15.965376 
" clip-path="url(#p990ac9437d)" style="fill: none; stroke: #00bfbf; stroke-width: 3; stroke-linecap: square"/>
   </g>
   <g id="line2d_20">
    <path clip-path="url(#p990ac9437d)" style="fill: none; stroke: #00bfbf; stroke-width: 3; stroke-linecap: square"/>
   </g>
   <g id="line2d_21">
    <path d="M 34.16 184.119293 
L 121.681524 184.119293 
L 121.681524 183.679063 
L 124.307772 183.679063 
L 124.307772 183.238833 
L 125.77393 183.238833 
L 125.77393 182.798604 
L 132.765489 182.798604 
L 132.765489 182.358374 
L 135.391737 182.358374 
L 135.391737 181.918144 
L 136.857895 181.918144 
L 136.857895 181.477915 
L 139.347862 181.477915 
L 139.347862 181.037685 
L 140.079002 181.037685 
L 140.079002 180.597455 
L 142.70525 180.597455 
L 142.70525 180.157226 
L 143.5562 180.157226 
L 143.5562 179.716996 
L 144.171408 179.716996 
L 144.171408 179.276766 
L 146.182448 179.276766 
L 146.182448 178.836537 
L 147.648606 178.836537 
L 147.648606 178.396307 
L 150.431828 178.396307 
L 150.431828 177.956077 
L 155.702633 177.956077 
L 155.702633 177.515848 
L 157.74534 177.515848 
L 157.74534 177.075618 
L 158.736866 177.075618 
L 158.736866 176.635388 
L 160.277706 176.635388 
L 160.277706 176.195159 
L 161.222538 176.195159 
L 161.222538 175.754929 
L 161.363114 175.754929 
L 161.363114 175.314699 
L 162.198488 175.314699 
L 162.198488 174.874469 
L 162.829272 174.874469 
L 162.903955 173.99401 
L 164.144622 173.99401 
L 164.144622 173.55378 
L 164.370112 173.55378 
L 164.370112 173.113551 
L 164.824737 173.113551 
L 164.824737 172.673321 
L 166.290894 172.673321 
L 166.290894 172.233091 
L 166.770871 172.233091 
L 166.786599 171.352632 
L 167.739209 171.352632 
L 167.739209 170.912402 
L 168.237028 170.912402 
L 168.237028 170.472173 
L 170.352884 170.472173 
L 170.365458 169.591713 
L 171.831615 169.591713 
L 171.831615 169.151484 
L 173.884176 169.151484 
L 173.884176 168.711254 
L 174.100112 168.711254 
L 174.100112 168.271024 
L 175.919719 168.271024 
L 175.919719 167.830795 
L 176.043917 167.830795 
L 176.043917 167.390565 
L 176.403204 167.390565 
L 176.403204 166.950335 
L 177.577309 166.950335 
L 177.577309 166.510106 
L 177.944045 166.510106 
L 177.944045 166.069876 
L 178.670165 166.069876 
L 178.670165 165.629646 
L 179.864827 165.629646 
L 179.864827 165.189417 
L 180.136323 165.189417 
L 180.136323 164.749187 
L 181.436849 164.749187 
L 181.436849 164.308957 
L 181.810961 164.308957 
L 181.810961 163.868728 
L 184.968142 163.868728 
L 184.968142 163.428498 
L 185.405548 163.428498 
L 185.405548 162.988268 
L 187.003685 162.988268 
L 187.003685 162.548039 
L 188.750362 162.548039 
L 188.750362 162.107809 
L 192.22756 162.107809 
L 192.281655 161.22735 
L 192.757976 161.22735 
L 192.757976 160.78712 
L 193.710255 160.78712 
L 193.710255 160.34689 
L 194.298816 160.34689 
L 194.317198 159.466431 
L 195.73219 159.466431 
L 195.758853 158.585972 
L 195.948273 158.585972 
L 195.948273 158.145742 
L 196.219598 158.145742 
L 196.219598 157.705512 
L 196.492296 157.705512 
L 196.492296 157.265283 
L 196.620621 157.265283 
L 196.620621 156.825053 
L 196.864134 156.825053 
L 196.864134 156.384823 
L 197.338052 156.384823 
L 197.338052 155.944593 
L 197.794396 155.944593 
L 197.794396 155.504364 
L 198.165732 155.504364 
L 198.165732 155.064134 
L 201.760319 155.064134 
L 201.760319 154.623904 
L 207.408226 154.623904 
L 207.422635 153.743445 
L 207.948099 153.743445 
L 207.948099 153.303215 
L 208.159937 153.303215 
L 208.159937 152.862986 
L 208.422018 152.862986 
L 208.486787 151.982526 
L 208.77648 151.982526 
L 208.77648 151.542297 
L 208.949066 151.542297 
L 208.949066 151.102067 
L 209.651594 151.102067 
L 209.651594 150.661837 
L 210.065026 150.661837 
L 210.065026 150.221608 
L 210.869848 150.221608 
L 210.939519 149.341148 
L 211.999645 149.341148 
L 211.999645 148.900919 
L 212.215728 148.900919 
L 212.215728 148.460689 
L 212.480359 148.460689 
L 212.480359 148.020459 
L 212.610021 148.020459 
L 212.610021 147.58023 
L 212.759751 147.58023 
L 212.826105 146.259541 
L 212.888076 146.259541 
L 212.975062 145.379081 
L 213.370127 145.379081 
L 213.370127 144.938852 
L 213.498453 144.938852 
L 213.498453 144.498622 
L 214.004603 144.498622 
L 214.004603 144.058392 
L 214.401141 144.058392 
L 214.401141 143.618163 
L 214.515902 143.618163 
L 214.515902 143.177933 
L 215.261612 143.177933 
L 215.296414 142.297474 
L 215.735531 142.297474 
L 215.735531 141.857244 
L 216.347275 141.857244 
L 216.436684 140.536555 
L 217.807167 140.536555 
L 217.807167 140.096325 
L 218.02325 140.096325 
L 218.02325 139.656096 
L 218.382818 139.656096 
L 218.382818 139.215866 
L 218.523501 139.215866 
L 218.567273 138.335407 
L 218.695598 138.335407 
L 218.73881 137.454947 
L 219.212729 137.454947 
L 219.212729 137.014717 
L 219.941862 137.014717 
L 219.941862 136.574488 
L 221.977405 136.574488 
L 221.977405 136.134258 
L 223.69009 136.134258 
L 223.7512 135.253799 
L 224.300466 135.253799 
L 224.345193 134.373339 
L 224.427392 134.373339 
L 224.427392 133.93311 
L 224.715277 133.93311 
L 224.754243 133.05265 
L 225.037768 133.05265 
L 225.088568 131.731961 
L 225.265697 131.731961 
L 225.364619 130.851502 
L 225.654311 130.851502 
L 225.654311 130.411272 
L 225.919049 130.411272 
L 225.919049 129.971043 
L 226.237025 129.971043 
L 226.237025 129.530813 
L 226.380379 129.530813 
L 226.380379 129.090583 
L 226.529426 129.090583 
L 226.529426 128.650354 
L 228.24657 128.650354 
L 228.24657 128.210124 
L 228.811762 128.210124 
L 228.8423 127.329665 
L 229.027846 127.329665 
L 229.058384 126.449205 
L 229.497612 126.449205 
L 229.602406 125.128516 
L 229.700194 125.128516 
L 229.730732 124.248057 
L 230.234914 124.248057 
L 230.282113 123.367598 
L 230.561765 123.367598 
L 230.561765 122.927368 
L 230.851457 122.927368 
L 230.851457 122.487138 
L 230.996621 122.487138 
L 230.996621 122.046909 
L 231.212705 122.046909 
L 231.212705 121.606679 
L 231.499828 121.606679 
L 231.499828 121.166449 
L 231.726571 121.166449 
L 231.756728 120.28599 
L 231.885053 120.28599 
L 231.885053 119.84576 
L 232.402081 119.84576 
L 232.402081 119.405531 
L 232.955294 119.405531 
L 232.955294 118.965301 
L 233.171377 118.965301 
L 233.204451 118.084841 
L 233.693892 118.084841 
L 233.7154 117.204382 
L 233.843725 117.204382 
L 233.919476 116.323923 
L 234.152873 116.323923 
L 234.152873 115.883693 
L 234.393395 115.883693 
L 234.393395 115.443463 
L 234.790957 115.443463 
L 234.790957 115.003234 
L 235.401333 115.003234 
L 235.460316 114.122774 
L 235.857496 114.122774 
L 235.934235 112.802085 
L 236.057929 112.802085 
L 236.057929 112.361856 
L 236.788264 112.361856 
L 236.788264 111.921626 
L 237.17109 111.921626 
L 237.17109 111.481396 
L 237.381098 111.481396 
L 237.381098 111.041167 
L 237.855017 111.041167 
L 237.855017 110.600937 
L 238.710974 110.600937 
L 238.710974 110.160707 
L 239.327232 110.160707 
L 239.327232 109.720478 
L 239.44131 109.720478 
L 239.44131 109.280248 
L 239.801151 109.280248 
L 239.801151 108.840018 
L 240.018655 108.840018 
L 240.018655 108.399789 
L 240.502207 108.399789 
L 240.612648 106.63887 
L 240.629032 106.63887 
L 240.629032 106.19864 
L 241.223024 106.19864 
L 241.270047 104.877951 
L 241.533152 104.877951 
L 241.596898 103.557262 
L 241.856052 103.557262 
L 241.88659 102.676803 
L 242.143528 102.676803 
L 242.143528 102.236573 
L 242.504481 102.236573 
L 242.504481 101.796344 
L 242.687066 101.796344 
L 242.761705 100.475655 
L 242.921819 100.475655 
L 242.921819 100.035425 
L 243.114857 100.035425 
L 243.114857 99.595195 
L 243.395738 99.595195 
L 243.424368 98.714736 
L 243.751219 98.714736 
L 243.751219 98.274506 
L 244.040911 98.274506 
L 244.040911 97.834276 
L 244.325713 97.834276 
L 244.325713 97.394047 
L 244.487344 97.394047 
L 244.541796 96.513587 
L 244.645739 96.513587 
L 244.703428 95.633128 
L 244.916026 95.633128 
L 244.916026 95.192898 
L 245.085819 95.192898 
L 245.154308 94.312439 
L 245.214144 94.312439 
L 245.24745 93.43198 
L 245.370391 93.43198 
L 245.383041 92.111291 
L 245.672835 92.111291 
L 245.709892 91.230831 
L 245.826177 91.230831 
L 245.914414 89.910142 
L 245.999584 89.910142 
L 246.042739 89.029683 
L 246.42017 89.029683 
L 246.432942 88.149224 
L 246.561267 88.149224 
L 246.561267 87.708994 
L 246.70261 87.708994 
L 246.70261 87.268764 
L 246.874698 87.268764 
L 246.874698 86.828535 
L 247.340674 86.828535 
L 247.340674 86.388305 
L 248.312002 86.388305 
L 248.312002 85.948075 
L 249.356066 85.948075 
L 249.356066 85.507846 
L 249.804781 85.507846 
L 249.804781 85.067616 
L 251.059945 85.067616 
L 251.059945 84.627386 
L 251.226527 84.627386 
L 251.226527 84.187157 
L 251.603074 84.187157 
L 251.700446 82.866468 
L 252.009111 82.866468 
L 252.009111 82.426238 
L 252.351756 82.426238 
L 252.457826 81.545779 
L 252.600785 81.545779 
L 252.600785 81.105549 
L 252.781419 81.105549 
L 252.781419 80.665319 
L 253.787933 80.665319 
L 253.892597 79.78486 
L 254.486042 79.78486 
L 254.521567 78.9044 
L 255.089584 78.9044 
L 255.089584 78.464171 
L 255.305668 78.464171 
L 255.305668 78.023941 
L 255.746605 78.023941 
L 255.84969 76.703252 
L 255.978016 76.703252 
L 256.016158 75.822793 
L 256.177789 75.822793 
L 256.177789 75.382563 
L 256.467701 75.382563 
L 256.564809 74.502104 
L 256.75346 74.502104 
L 256.861311 72.300955 
L 256.915091 72.300955 
L 256.915091 71.860726 
L 257.080311 71.860726 
L 257.080311 71.420496 
L 257.241942 71.420496 
L 257.33952 70.099807 
L 257.36328 70.099807 
L 257.455303 67.898659 
L 257.531634 67.898659 
L 257.582055 67.018199 
L 257.759513 67.018199 
L 257.786575 66.13774 
L 257.908906 66.13774 
L 257.908906 65.69751 
L 258.069856 65.69751 
L 258.100582 64.817051 
L 258.198598 64.817051 
L 258.245117 63.936592 
L 258.345269 63.936592 
L 258.427433 62.175673 
L 258.717125 62.175673 
L 258.717125 61.735443 
L 259.015632 61.735443 
L 259.073712 60.854984 
L 259.316598 60.854984 
L 259.347136 59.974524 
L 259.59224 59.974524 
L 259.674104 58.653835 
L 259.890187 58.653835 
L 259.890187 58.213606 
L 260.062288 58.213606 
L 260.062288 57.773376 
L 260.43421 57.773376 
L 260.530128 56.892917 
L 260.562535 56.892917 
L 260.562535 56.452687 
L 260.974304 56.452687 
L 260.974304 56.012457 
L 261.3541 56.012457 
L 261.3541 55.572228 
L 261.501457 55.572228 
L 261.568297 54.691768 
L 262.488801 54.691768 
L 262.488801 54.251539 
L 263.460129 54.251539 
L 263.460129 53.811309 
L 263.733357 53.811309 
L 263.733357 53.371079 
L 265.100088 53.371079 
L 265.100088 52.93085 
L 266.780029 52.93085 
L 266.780029 52.49062 
L 267.117024 52.49062 
L 267.117024 52.05039 
L 267.278656 52.05039 
L 267.278656 51.610161 
L 267.517331 51.610161 
L 267.517331 51.169931 
L 267.844182 51.169931 
L 267.945619 50.289472 
L 268.133874 50.289472 
L 268.133874 49.849242 
L 268.255255 49.849242 
L 268.255255 49.409012 
L 268.366996 49.409012 
L 268.464147 48.528553 
L 268.577286 48.528553 
L 268.577286 48.088323 
L 268.992557 48.088323 
L 269.008989 47.207864 
L 269.319407 47.207864 
L 269.319407 46.767634 
L 269.6091 46.767634 
L 269.658807 45.887175 
L 270.484214 45.887175 
L 270.484214 45.446945 
L 270.637657 45.446945 
L 270.637657 45.006716 
L 271.086373 45.006716 
L 271.086373 44.566486 
L 271.364549 44.566486 
L 271.364549 44.126256 
L 272.101851 44.126256 
L 272.101851 43.686027 
L 272.344723 43.686027 
L 272.428702 42.805567 
L 272.506354 42.805567 
L 272.506354 42.365337 
L 272.718394 42.365337 
L 272.718394 41.925108 
L 272.938716 41.925108 
L 272.938716 41.484878 
L 273.100347 41.484878 
L 273.173318 40.604419 
L 273.593508 40.604419 
L 273.691846 39.723959 
L 273.767311 39.723959 
L 273.85922 38.8435 
L 274.020851 38.8435 
L 274.020851 38.40327 
L 274.285838 38.40327 
L 274.285838 37.963041 
L 274.687815 37.963041 
L 274.687815 37.522811 
L 274.817322 37.522811 
L 274.830548 36.642352 
L 274.99218 36.642352 
L 274.99218 36.202122 
L 275.206342 36.202122 
L 275.206342 35.761892 
L 275.659144 35.761892 
L 275.659144 35.321663 
L 276.177671 35.321663 
L 276.177671 34.881433 
L 276.629844 34.881433 
L 276.629844 34.441203 
L 277.880896 34.441203 
L 277.880896 34.000974 
L 279.356121 34.000974 
L 279.356121 33.560744 
L 282.130835 33.560744 
L 282.130835 33.120514 
L 282.465415 33.120514 
L 282.465415 32.680285 
L 283.108595 32.680285 
L 283.108595 32.240055 
L 283.702587 32.240055 
L 283.757952 31.359596 
L 284.58382 31.359596 
L 284.623091 30.479136 
L 285.177812 30.479136 
L 285.177812 30.038907 
L 285.298792 30.038907 
L 285.298792 29.598677 
L 285.59442 29.598677 
L 285.608033 28.718218 
L 286.098317 28.718218 
L 286.098317 28.277988 
L 287.069645 28.277988 
L 287.069645 27.837758 
L 287.219574 27.837758 
L 287.219574 27.397529 
L 287.693114 27.397529 
L 287.713809 26.517069 
L 288.287107 26.517069 
L 288.287107 26.07684 
L 289.165708 26.07684 
L 289.207611 25.19638 
L 290.178939 25.19638 
L 290.178939 24.756151 
L 292.760295 24.756151 
L 292.760295 24.315921 
L 295.027322 24.315921 
L 295.027322 23.875691 
L 298.50452 23.875691 
L 298.50452 23.435461 
L 300.788699 23.435461 
L 300.788699 22.995232 
L 301.065003 22.995232 
L 301.065003 22.555002 
L 302.329539 22.555002 
L 302.329539 22.114772 
L 304.250322 22.114772 
L 304.250322 21.674543 
L 306.196456 21.674543 
L 306.196456 21.234313 
L 309.791042 21.234313 
L 309.791042 20.794083 
L 313.685186 20.794083 
L 313.685186 20.353854 
L 315.226026 20.353854 
L 315.226026 19.913624 
L 317.146809 19.913624 
L 317.146809 19.473394 
L 318.09575 19.473394 
L 318.09575 19.033165 
L 319.092943 19.033165 
L 319.092943 18.592935 
L 322.68753 18.592935 
L 322.68753 18.152705 
L 330.992237 18.152705 
L 330.992237 17.712476 
L 453.192 17.712476 
L 453.192 17.712476 
" clip-path="url(#p990ac9437d)" style="fill: none; stroke: #bf00bf; stroke-width: 3; stroke-linecap: square"/>
   </g>
   <g id="line2d_22">
    <path clip-path="url(#p990ac9437d)" style="fill: none; stroke: #bf00bf; stroke-width: 3; stroke-linecap: square"/>
   </g>
   <g id="line2d_23">
    <path d="M 34.16 184.119293 
L 129.195867 184.119293 
L 129.195867 183.679063 
L 135.797922 183.679063 
L 135.797922 183.238833 
L 137.068725 183.238833 
L 137.068725 182.798604 
L 139.889423 182.798604 
L 139.889423 182.358374 
L 142.470964 182.358374 
L 142.470964 181.918144 
L 146.491478 181.918144 
L 146.491478 181.477915 
L 147.762281 181.477915 
L 147.762281 181.037685 
L 148.149172 181.037685 
L 148.149172 180.597455 
L 151.367585 180.597455 
L 151.367585 180.157226 
L 153.16452 180.157226 
L 153.16452 179.716996 
L 154.751227 179.716996 
L 154.751227 179.276766 
L 156.02203 179.276766 
L 156.02203 178.836537 
L 157.96964 178.836537 
L 157.96964 178.396307 
L 159.240444 178.396307 
L 159.240444 177.956077 
L 159.702472 177.956077 
L 159.702472 177.515848 
L 161.424269 177.515848 
L 161.424269 177.075618 
L 164.642683 177.075618 
L 164.642683 176.635388 
L 165.376766 176.635388 
L 165.376766 176.195159 
L 166.532773 176.195159 
L 166.532773 175.754929 
L 168.965925 175.754929 
L 168.965925 175.314699 
L 170.396028 175.314699 
L 170.396028 174.874469 
L 170.626771 174.874469 
L 170.626771 174.43424 
L 171.978821 174.43424 
L 171.978821 173.99401 
L 173.134828 173.99401 
L 173.134828 173.55378 
L 173.249624 173.55378 
L 173.249624 173.113551 
L 173.681399 173.113551 
L 173.681399 172.673321 
L 174.118424 172.673321 
L 174.118424 172.233091 
L 174.240285 172.233091 
L 174.240285 171.792862 
L 174.405631 171.792862 
L 174.405631 171.352632 
L 175.567979 171.352632 
L 175.567979 170.912402 
L 176.838783 170.912402 
L 176.838783 170.472173 
L 177.108837 170.472173 
L 177.108837 170.031943 
L 177.228826 170.031943 
L 177.228826 169.591713 
L 178.499629 169.591713 
L 178.499629 169.151484 
L 178.651863 169.151484 
L 178.655777 168.271024 
L 179.80787 168.271024 
L 179.80787 167.830795 
L 180.283454 167.830795 
L 180.283454 167.390565 
L 181.554257 167.390565 
L 181.554257 166.950335 
L 181.874191 166.950335 
L 181.874191 166.510106 
L 182.241022 166.510106 
L 182.241022 166.069876 
L 182.45211 166.069876 
L 182.45211 165.629646 
L 183.901868 165.629646 
L 183.901868 165.189417 
L 184.811979 165.189417 
L 184.811979 164.749187 
L 184.933841 164.749187 
L 184.933841 164.308957 
L 186.956497 164.308957 
L 186.956497 163.868728 
L 187.802393 163.868728 
L 187.802393 163.428498 
L 189.054165 163.428498 
L 189.054165 162.988268 
L 190.324968 162.988268 
L 190.324968 162.548039 
L 193.071729 162.548039 
L 193.071729 162.107809 
L 193.19359 162.107809 
L 193.19359 161.667579 
L 195.727207 161.667579 
L 195.727207 161.22735 
L 195.883371 161.22735 
L 195.883371 160.78712 
L 196.062142 160.78712 
L 196.062142 160.34689 
L 196.290142 160.34689 
L 196.290142 159.906661 
L 196.412004 159.906661 
L 196.419948 159.026201 
L 196.611555 159.026201 
L 196.649709 158.145742 
L 197.039378 158.145742 
L 197.093058 157.265283 
L 197.16141 157.265283 
L 197.16141 156.825053 
L 198.017586 156.825053 
L 198.017586 156.384823 
L 199.280555 156.384823 
L 199.280555 155.944593 
L 199.47253 155.944593 
L 199.47253 155.504364 
L 201.133377 155.504364 
L 201.133377 155.064134 
L 204.188005 155.064134 
L 204.188005 154.623904 
L 207.74656 154.623904 
L 207.854966 153.303215 
L 208.114587 153.303215 
L 208.114587 152.862986 
L 208.711142 152.862986 
L 208.761474 151.982526 
L 209.590462 151.982526 
L 209.590462 151.542297 
L 210.299323 151.542297 
L 210.299323 151.102067 
L 210.421184 151.102067 
L 210.421184 150.661837 
L 211.455329 150.661837 
L 211.455329 150.221608 
L 211.577191 150.221608 
L 211.577191 149.781378 
L 212.898679 149.781378 
L 212.958715 148.900919 
L 213.090286 148.900919 
L 213.128439 148.020459 
L 213.289736 148.020459 
L 213.289736 147.58023 
L 213.571788 147.58023 
L 213.578799 146.69977 
L 213.700603 146.69977 
L 213.700603 146.259541 
L 213.888481 146.259541 
L 213.930363 144.938852 
L 214.010343 144.938852 
L 214.010343 144.498622 
L 214.373712 144.498622 
L 214.445742 143.618163 
L 215.549328 143.618163 
L 215.549328 143.177933 
L 215.67119 143.177933 
L 215.67119 142.737703 
L 216.114715 142.737703 
L 216.114715 142.297474 
L 216.570306 142.297474 
L 216.570306 141.857244 
L 216.878894 141.857244 
L 216.970891 140.976785 
L 218.280208 140.976785 
L 218.280208 140.536555 
L 218.471815 140.536555 
L 218.539741 139.215866 
L 218.603956 139.215866 
L 218.603956 138.775636 
L 218.725818 138.775636 
L 218.725818 138.335407 
L 218.886499 138.335407 
L 218.953317 137.454947 
L 219.333129 137.454947 
L 219.333129 137.014717 
L 220.189305 137.014717 
L 220.189305 136.574488 
L 221.594369 136.574488 
L 221.594369 136.134258 
L 223.453831 136.134258 
L 223.453831 135.694028 
L 224.22529 135.694028 
L 224.279178 133.49288 
L 224.593317 133.49288 
L 224.593317 133.05265 
L 225.027214 133.05265 
L 225.081102 132.172191 
L 225.240205 132.172191 
L 225.240205 131.731961 
L 225.395241 131.731961 
L 225.395241 131.291732 
L 225.943497 131.291732 
L 226.042129 130.411272 
L 226.069193 130.411272 
L 226.069193 129.971043 
L 226.871117 129.971043 
L 226.871117 129.530813 
L 227.263862 129.530813 
L 227.374667 128.650354 
L 227.496528 128.650354 
L 227.496528 128.210124 
L 229.363989 128.210124 
L 229.363989 127.769894 
L 229.555596 127.769894 
L 229.660707 126.008976 
L 229.811783 126.008976 
L 229.811783 125.568746 
L 229.974846 125.568746 
L 230.041543 123.807827 
L 230.36508 123.807827 
L 230.36508 123.367598 
L 230.484892 123.367598 
L 230.484892 122.927368 
L 230.621734 122.927368 
L 230.621734 122.487138 
L 231.450722 122.487138 
L 231.450722 122.046909 
L 231.562212 122.046909 
L 231.562212 121.606679 
L 231.753819 121.606679 
L 231.791972 120.72622 
L 232.093845 120.72622 
L 232.093845 120.28599 
L 232.235321 120.28599 
L 232.235321 119.84576 
L 232.532104 119.84576 
L 232.532104 119.405531 
L 233.342309 119.405531 
L 233.342309 118.965301 
L 233.637793 118.965301 
L 233.637793 118.525071 
L 234.108008 118.525071 
L 234.198485 117.644612 
L 234.294921 117.644612 
L 234.337769 116.323923 
L 234.498316 116.323923 
L 234.498316 115.883693 
L 234.781118 115.883693 
L 234.781118 115.443463 
L 235.354492 115.443463 
L 235.365229 114.563004 
L 235.523611 114.563004 
L 235.523611 114.122774 
L 235.750517 114.122774 
L 235.838869 113.242315 
L 236.167153 113.242315 
L 236.167153 112.802085 
L 236.706558 112.802085 
L 236.706558 112.361856 
L 236.931468 112.361856 
L 237.003848 111.481396 
L 237.787644 111.481396 
L 237.787644 111.041167 
L 238.592315 111.041167 
L 238.592315 110.600937 
L 238.742025 110.600937 
L 238.742025 110.160707 
L 238.907634 110.160707 
L 238.907634 109.720478 
L 239.204924 109.720478 
L 239.204924 109.280248 
L 239.44849 109.280248 
L 239.44849 108.840018 
L 239.932561 108.840018 
L 239.932561 108.399789 
L 240.6906 108.399789 
L 240.746758 105.758411 
L 241.058628 105.758411 
L 241.138394 104.877951 
L 241.192281 104.877951 
L 241.192281 104.437722 
L 241.50599 104.437722 
L 241.507941 103.117033 
L 241.646943 103.117033 
L 241.705515 102.236573 
L 242.153308 102.236573 
L 242.153308 101.796344 
L 242.422228 101.796344 
L 242.503119 100.915884 
L 242.534503 100.915884 
L 242.534503 100.475655 
L 242.888823 100.475655 
L 242.982296 99.154965 
L 243.224152 99.154965 
L 243.25685 98.274506 
L 243.903738 98.274506 
L 243.903738 97.834276 
L 244.361509 97.834276 
L 244.361509 97.394047 
L 244.553116 97.394047 
L 244.591269 96.513587 
L 244.72239 96.513587 
L 244.732726 95.633128 
L 244.913997 95.633128 
L 244.952151 94.752669 
L 245.034618 94.752669 
L 245.034618 94.312439 
L 245.31409 94.312439 
L 245.3955 93.43198 
L 245.434619 93.43198 
L 245.493892 92.111291 
L 245.685499 92.111291 
L 245.723652 91.230831 
L 245.802647 91.230831 
L 245.802647 90.790602 
L 246.085595 90.790602 
L 246.167001 89.469913 
L 246.449534 89.469913 
L 246.449534 89.029683 
L 246.732259 89.029683 
L 246.732259 88.589453 
L 246.91812 88.589453 
L 246.962019 87.268764 
L 247.278522 87.268764 
L 247.278522 86.828535 
L 247.405368 86.828535 
L 247.405368 86.388305 
L 247.803757 86.388305 
L 247.803757 85.948075 
L 249.558154 85.948075 
L 249.558154 85.507846 
L 249.759698 85.507846 
L 249.781085 84.627386 
L 250.417653 84.627386 
L 250.417653 84.187157 
L 250.915704 84.187157 
L 250.915704 83.746927 
L 251.273829 83.746927 
L 251.273829 83.306697 
L 251.75923 83.306697 
L 251.83054 82.426238 
L 251.982161 82.426238 
L 251.982161 81.986008 
L 252.278333 81.986008 
L 252.336896 81.105549 
L 252.751205 81.105549 
L 252.751205 80.665319 
L 253.348856 80.665319 
L 253.348856 80.225089 
L 253.880844 80.225089 
L 253.907212 79.34463 
L 254.028762 79.34463 
L 254.028762 78.9044 
L 255.009703 78.9044 
L 255.029023 78.023941 
L 255.22063 78.023941 
L 255.258784 77.143482 
L 255.68812 77.143482 
L 255.742008 75.822793 
L 256.049002 75.822793 
L 256.102889 74.502104 
L 256.340364 74.502104 
L 256.417029 73.181415 
L 256.574559 73.181415 
L 256.574559 72.741185 
L 256.703034 72.741185 
L 256.703034 72.300955 
L 256.820503 72.300955 
L 256.888746 70.540037 
L 256.949609 70.540037 
L 256.949609 70.099807 
L 257.063916 70.099807 
L 257.171327 67.898659 
L 257.18853 67.898659 
L 257.246899 67.018199 
L 257.532022 67.018199 
L 257.61912 64.817051 
L 257.835418 64.817051 
L 257.892904 63.936592 
L 258.001211 63.936592 
L 258.064331 62.615903 
L 258.112758 62.615903 
L 258.112758 62.175673 
L 258.426897 62.175673 
L 258.426897 61.735443 
L 258.596094 61.735443 
L 258.664406 60.854984 
L 258.887538 60.854984 
L 258.887538 60.414754 
L 259.073785 60.414754 
L 259.110566 59.534295 
L 259.302173 59.534295 
L 259.36955 57.333146 
L 259.783676 57.333146 
L 259.783676 56.892917 
L 259.902773 56.892917 
L 259.902773 56.452687 
L 261.055839 56.452687 
L 261.141891 55.131998 
L 261.913396 55.131998 
L 261.915346 54.251539 
L 263.595076 54.251539 
L 263.631557 53.371079 
L 265.871425 53.371079 
L 265.871425 52.93085 
L 266.355634 52.93085 
L 266.409522 52.05039 
L 266.723662 52.05039 
L 266.828059 51.169931 
L 266.835042 51.169931 
L 266.835042 50.729701 
L 267.188941 50.729701 
L 267.188941 50.289472 
L 267.370549 50.289472 
L 267.370549 49.849242 
L 267.960442 49.849242 
L 267.960442 49.409012 
L 268.199537 49.409012 
L 268.269245 48.088323 
L 268.583384 48.088323 
L 268.583384 47.648094 
L 269.089839 47.648094 
L 269.198809 46.767634 
L 269.230271 46.767634 
L 269.230271 46.327405 
L 269.801205 46.327405 
L 269.826549 45.446945 
L 270.024136 45.446945 
L 270.059259 44.566486 
L 270.437178 44.566486 
L 270.491065 43.686027 
L 270.805205 43.686027 
L 270.805205 43.245797 
L 271.395391 43.245797 
L 271.452092 42.365337 
L 271.756273 42.365337 
L 271.756273 41.925108 
L 272.166896 41.925108 
L 272.168846 41.044648 
L 272.28108 41.044648 
L 272.28108 40.604419 
L 272.527774 40.604419 
L 272.529728 39.28373 
L 273.299279 39.28373 
L 273.30123 38.40327 
L 273.766141 38.40327 
L 273.766141 37.963041 
L 273.885057 37.963041 
L 273.885057 37.522811 
L 274.245939 37.522811 
L 274.288632 36.642352 
L 274.537646 36.642352 
L 274.539597 35.761892 
L 275.017441 35.761892 
L 275.017441 35.321663 
L 276.255808 35.321663 
L 276.328524 34.441203 
L 277.495574 34.441203 
L 277.495574 34.000974 
L 279.355296 34.000974 
L 279.355296 33.560744 
L 281.577117 33.560744 
L 281.577117 33.120514 
L 282.062906 33.120514 
L 282.062906 32.680285 
L 282.548381 32.680285 
L 282.548381 32.240055 
L 282.834411 32.240055 
L 282.836361 31.359596 
L 283.099019 31.359596 
L 283.099019 30.919366 
L 283.922628 30.919366 
L 283.922628 30.479136 
L 284.255026 30.479136 
L 284.255026 30.038907 
L 284.552572 30.038907 
L 284.552572 29.598677 
L 284.694133 29.598677 
L 284.696083 28.718218 
L 285.766794 28.718218 
L 285.766794 28.277988 
L 286.144449 28.277988 
L 286.144449 27.837758 
L 286.412294 27.837758 
L 286.412294 27.397529 
L 286.688178 27.397529 
L 286.688178 26.957299 
L 286.915954 26.957299 
L 287.02208 25.63661 
L 288.349024 25.63661 
L 288.349024 25.19638 
L 288.634115 25.19638 
L 288.634115 24.756151 
L 291.403653 24.756151 
L 291.403653 24.315921 
L 295.281829 24.315921 
L 295.281829 23.875691 
L 298.500242 23.875691 
L 298.500242 23.435461 
L 299.775975 23.435461 
L 299.775975 22.995232 
L 300.174363 22.995232 
L 300.174363 22.555002 
L 300.931981 22.555002 
L 300.931981 22.114772 
L 303.365133 22.114772 
L 303.365133 21.674543 
L 305.02598 21.674543 
L 305.02598 21.234313 
L 308.080608 21.234313 
L 308.080608 20.794083 
L 312.509423 20.794083 
L 312.509423 20.353854 
L 313.66543 20.353854 
L 313.66543 19.913624 
L 316.098581 19.913624 
L 316.098581 19.473394 
L 316.851319 19.473394 
L 316.851319 19.033165 
L 317.759428 19.033165 
L 317.759428 18.592935 
L 320.814056 18.592935 
L 320.814056 18.152705 
L 329.584767 18.152705 
L 329.584767 17.712476 
L 453.192 17.712476 
L 453.192 17.712476 
" clip-path="url(#p990ac9437d)" style="fill: none; stroke: #ff0000; stroke-width: 3; stroke-linecap: square"/>
   </g>
   <g id="line2d_24">
    <path clip-path="url(#p990ac9437d)" style="fill: none; stroke: #ff0000; stroke-width: 3; stroke-linecap: square"/>
   </g>
   <g id="line2d_25">
    <path d="M 243.676 291.28 
L 243.676 3 
" clip-path="url(#p990ac9437d)" style="fill: none; stroke: #000000; stroke-width: 1.5; stroke-linecap: square"/>
   </g>
   <g id="line2d_26">
    <path d="M 34.16 147.14 
L 453.192 147.14 
" clip-path="url(#p990ac9437d)" style="fill: none; stroke-dasharray: 2,3.3; stroke-dashoffset: 0; stroke: #000000; stroke-width: 2"/>
   </g>
   <g id="patch_3">
    <path d="M 34.16 291.28 
L 34.16 3 
" style="fill: none; stroke: #000000; stroke-width: 0.8; stroke-linejoin: miter; stroke-linecap: square"/>
   </g>
   <g id="patch_4">
    <path d="M 453.192 291.28 
L 453.192 3 
" style="fill: none; stroke: #000000; stroke-width: 0.8; stroke-linejoin: miter; stroke-linecap: square"/>
   </g>
   <g id="patch_5">
    <path d="M 34.16 291.28 
L 453.192 291.28 
" style="fill: none; stroke: #000000; stroke-width: 0.8; stroke-linejoin: miter; stroke-linecap: square"/>
   </g>
   <g id="patch_6">
    <path d="M 34.16 3 
L 453.192 3 
" style="fill: none; stroke: #000000; stroke-width: 0.8; stroke-linejoin: miter; stroke-linecap: square"/>
   </g>
   <g id="text_6">
    <!-- f20-f24,10-D -->
    <g transform="translate(318.19261 285.5144) scale(0.2 -0.2)">
     <defs>
      <path id="DejaVuSans-34" d="M 2419 4116 
L 825 1625 
L 2419 1625 
L 2419 4116 
z
M 2253 4666 
L 3047 4666 
L 3047 1625 
L 3713 1625 
L 3713 1100 
L 3047 1100 
L 3047 0 
L 2419 0 
L 2419 1100 
L 313 1100 
L 313 1709 
L 2253 4666 
z
" transform="scale(0.015625)"/>
      <path id="DejaVuSans-2c" d="M 750 794 
L 1409 794 
L 1409 256 
L 897 -744 
L 494 -744 
L 750 256 
L 750 794 
z
" transform="scale(0.015625)"/>
      <path id="DejaVuSans-44" d="M 1259 4147 
L 1259 519 
L 2022 519 
Q 2988 519 3436 956 
Q 3884 1394 3884 2338 
Q 3884 3275 3436 3711 
Q 2988 4147 2022 4147 
L 1259 4147 
z
M 628 4666 
L 1925 4666 
Q 3281 4666 3915 4102 
Q 4550 3538 4550 2338 
Q 4550 1131 3912 565 
Q 3275 0 1925 0 
L 628 0 
L 628 4666 
z
" transform="scale(0.015625)"/>
     </defs>
     <use xlink:href="#DejaVuSans-66"/>
     <use xlink:href="#DejaVuSans-32" x="35.205078"/>
     <use xlink:href="#DejaVuSans-30" x="98.828125"/>
     <use xlink:href="#DejaVuSans-2d" x="162.451172"/>
     <use xlink:href="#DejaVuSans-66" x="198.535156"/>
     <use xlink:href="#DejaVuSans-32" x="233.740234"/>
     <use xlink:href="#DejaVuSans-34" x="297.363281"/>
     <use xlink:href="#DejaVuSans-2c" x="360.986328"/>
     <use xlink:href="#DejaVuSans-31" x="392.773438"/>
     <use xlink:href="#DejaVuSans-30" x="456.396484"/>
     <use xlink:href="#DejaVuSans-2d" x="520.019531"/>
     <use xlink:href="#DejaVuSans-44" x="556.103516"/>
    </g>
   </g>
   <g id="text_7">
    <!-- v2.6.3 -->
    <g style="fill: #808080" transform="translate(227.99475 286.317512) scale(0.1 -0.1)">
     <defs>
      <path id="DejaVuSans-2e" d="M 684 794 
L 1344 794 
L 1344 0 
L 684 0 
L 684 794 
z
" transform="scale(0.015625)"/>
      <path id="DejaVuSans-36" d="M 2113 2584 
Q 1688 2584 1439 2293 
Q 1191 2003 1191 1497 
Q 1191 994 1439 701 
Q 1688 409 2113 409 
Q 2538 409 2786 701 
Q 3034 994 3034 1497 
Q 3034 2003 2786 2293 
Q 2538 2584 2113 2584 
z
M 3366 4563 
L 3366 3988 
Q 3128 4100 2886 4159 
Q 2644 4219 2406 4219 
Q 1781 4219 1451 3797 
Q 1122 3375 1075 2522 
Q 1259 2794 1537 2939 
Q 1816 3084 2150 3084 
Q 2853 3084 3261 2657 
Q 3669 2231 3669 1497 
Q 3669 778 3244 343 
Q 2819 -91 2113 -91 
Q 1303 -91 875 529 
Q 447 1150 447 2328 
Q 447 3434 972 4092 
Q 1497 4750 2381 4750 
Q 2619 4750 2861 4703 
Q 3103 4656 3366 4563 
z
" transform="scale(0.015625)"/>
      <path id="DejaVuSans-33" d="M 2597 2516 
Q 3050 2419 3304 2112 
Q 3559 1806 3559 1356 
Q 3559 666 3084 287 
Q 2609 -91 1734 -91 
Q 1441 -91 1130 -33 
Q 819 25 488 141 
L 488 750 
Q 750 597 1062 519 
Q 1375 441 1716 441 
Q 2309 441 2620 675 
Q 2931 909 2931 1356 
Q 2931 1769 2642 2001 
Q 2353 2234 1838 2234 
L 1294 2234 
L 1294 2753 
L 1863 2753 
Q 2328 2753 2575 2939 
Q 2822 3125 2822 3475 
Q 2822 3834 2567 4026 
Q 2313 4219 1838 4219 
Q 1578 4219 1281 4162 
Q 984 4106 628 3988 
L 628 4550 
Q 988 4650 1302 4700 
Q 1616 4750 1894 4750 
Q 2613 4750 3031 4423 
Q 3450 4097 3450 3541 
Q 3450 3153 3228 2886 
Q 3006 2619 2597 2516 
z
" transform="scale(0.015625)"/>
     </defs>
     <use xlink:href="#DejaVuSans-76"/>
     <use xlink:href="#DejaVuSans-32" x="59.179688"/>
     <use xlink:href="#DejaVuSans-2e" x="122.802734"/>
     <use xlink:href="#DejaVuSans-36" x="154.589844"/>
     <use xlink:href="#DejaVuSans-2e" x="218.212891"/>
     <use xlink:href="#DejaVuSans-33" x="250"/>
    </g>
   </g>
   <g id="legend_1">
    <g id="patch_7">
     <path d="M 48.16 136.425 
L 177.381875 136.425 
Q 181.381875 136.425 181.381875 132.425 
L 181.381875 17 
Q 181.381875 13 177.381875 13 
L 48.16 13 
Q 44.16 13 44.16 17 
L 44.16 132.425 
Q 44.16 136.425 48.16 136.425 
z
" style="fill: #ffffff; opacity: 0.2; stroke: #cccccc; stroke-linejoin: miter"/>
    </g>
    <g id="line2d_27">
     <path d="M 52.16 29.196875 
L 72.16 29.196875 
L 92.16 29.196875 
" style="fill: none; stroke: #000000; stroke-width: 3; stroke-linecap: square"/>
    </g>
    <g id="text_8">
     <!-- 1: 5/5 -->
     <g transform="translate(108.16 36.196875) scale(0.2 -0.2)">
      <defs>
       <path id="DejaVuSans-3a" d="M 750 794 
L 1409 794 
L 1409 0 
L 750 0 
L 750 794 
z
M 750 3309 
L 1409 3309 
L 1409 2516 
L 750 2516 
L 750 3309 
z
" transform="scale(0.015625)"/>
       <path id="DejaVuSans-35" d="M 691 4666 
L 3169 4666 
L 3169 4134 
L 1269 4134 
L 1269 2991 
Q 1406 3038 1543 3061 
Q 1681 3084 1819 3084 
Q 2600 3084 3056 2656 
Q 3513 2228 3513 1497 
Q 3513 744 3044 326 
Q 2575 -91 1722 -91 
Q 1428 -91 1123 -41 
Q 819 9 494 109 
L 494 744 
Q 775 591 1075 516 
Q 1375 441 1709 441 
Q 2250 441 2565 725 
Q 2881 1009 2881 1497 
Q 2881 1984 2565 2268 
Q 2250 2553 1709 2553 
Q 1456 2553 1204 2497 
Q 953 2441 691 2322 
L 691 4666 
z
" transform="scale(0.015625)"/>
       <path id="DejaVuSans-2f" d="M 1625 4666 
L 2156 4666 
L 531 -594 
L 0 -594 
L 1625 4666 
z
" transform="scale(0.015625)"/>
      </defs>
      <use xlink:href="#DejaVuSans-31"/>
      <use xlink:href="#DejaVuSans-3a" x="63.623047"/>
      <use xlink:href="#DejaVuSans-20" x="97.314453"/>
      <use xlink:href="#DejaVuSans-35" x="129.101562"/>
      <use xlink:href="#DejaVuSans-2f" x="192.724609"/>
      <use xlink:href="#DejaVuSans-35" x="226.416016"/>
     </g>
    </g>
    <g id="line2d_28">
     <path d="M 52.16 58.553125 
L 72.16 58.553125 
L 92.16 58.553125 
" style="fill: none; stroke: #00bfbf; stroke-width: 3; stroke-linecap: square"/>
    </g>
    <g id="text_9">
     <!-- -1: 4/3 -->
     <g transform="translate(108.16 65.553125) scale(0.2 -0.2)">
      <use xlink:href="#DejaVuSans-2d"/>
      <use xlink:href="#DejaVuSans-31" x="36.083984"/>
      <use xlink:href="#DejaVuSans-3a" x="99.707031"/>
      <use xlink:href="#DejaVuSans-20" x="133.398438"/>
      <use xlink:href="#DejaVuSans-34" x="165.185547"/>
      <use xlink:href="#DejaVuSans-2f" x="228.808594"/>
      <use xlink:href="#DejaVuSans-33" x="262.5"/>
     </g>
    </g>
    <g id="line2d_29">
     <path d="M 52.16 87.909375 
L 72.16 87.909375 
L 92.16 87.909375 
" style="fill: none; stroke: #bf00bf; stroke-width: 3; stroke-linecap: square"/>
    </g>
    <g id="text_10">
     <!-- -4: 4/3 -->
     <g transform="translate(108.16 94.909375) scale(0.2 -0.2)">
      <use xlink:href="#DejaVuSans-2d"/>
      <use xlink:href="#DejaVuSans-34" x="36.083984"/>
      <use xlink:href="#DejaVuSans-3a" x="99.707031"/>
      <use xlink:href="#DejaVuSans-20" x="133.398438"/>
      <use xlink:href="#DejaVuSans-34" x="165.185547"/>
      <use xlink:href="#DejaVuSans-2f" x="228.808594"/>
      <use xlink:href="#DejaVuSans-33" x="262.5"/>
     </g>
    </g>
    <g id="line2d_30">
     <path d="M 52.16 117.265625 
L 72.16 117.265625 
L 92.16 117.265625 
" style="fill: none; stroke: #ff0000; stroke-width: 3; stroke-linecap: square"/>
    </g>
    <g id="text_11">
     <!-- -8: 4/3 -->
     <g transform="translate(108.16 124.265625) scale(0.2 -0.2)">
      <defs>
       <path id="DejaVuSans-38" d="M 2034 2216 
Q 1584 2216 1326 1975 
Q 1069 1734 1069 1313 
Q 1069 891 1326 650 
Q 1584 409 2034 409 
Q 2484 409 2743 651 
Q 3003 894 3003 1313 
Q 3003 1734 2745 1975 
Q 2488 2216 2034 2216 
z
M 1403 2484 
Q 997 2584 770 2862 
Q 544 3141 544 3541 
Q 544 4100 942 4425 
Q 1341 4750 2034 4750 
Q 2731 4750 3128 4425 
Q 3525 4100 3525 3541 
Q 3525 3141 3298 2862 
Q 3072 2584 2669 2484 
Q 3125 2378 3379 2068 
Q 3634 1759 3634 1313 
Q 3634 634 3220 271 
Q 2806 -91 2034 -91 
Q 1263 -91 848 271 
Q 434 634 434 1313 
Q 434 1759 690 2068 
Q 947 2378 1403 2484 
z
M 1172 3481 
Q 1172 3119 1398 2916 
Q 1625 2713 2034 2713 
Q 2441 2713 2670 2916 
Q 2900 3119 2900 3481 
Q 2900 3844 2670 4047 
Q 2441 4250 2034 4250 
Q 1625 4250 1398 4047 
Q 1172 3844 1172 3481 
z
" transform="scale(0.015625)"/>
      </defs>
      <use xlink:href="#DejaVuSans-2d"/>
      <use xlink:href="#DejaVuSans-38" x="36.083984"/>
      <use xlink:href="#DejaVuSans-3a" x="99.707031"/>
      <use xlink:href="#DejaVuSans-20" x="133.398438"/>
      <use xlink:href="#DejaVuSans-34" x="165.185547"/>
      <use xlink:href="#DejaVuSans-2f" x="228.808594"/>
      <use xlink:href="#DejaVuSans-33" x="262.5"/>
     </g>
    </g>
   </g>
  </g>
 </g>
 <defs>
  <clipPath id="p990ac9437d">
   <rect x="34.16" y="3" width="419.032" height="288.28"/>
  </clipPath>
 </defs>
</svg>
