<?xml version="1.0" encoding="utf-8" standalone="no"?>
<!DOCTYPE svg PUBLIC "-//W3C//DTD SVG 1.1//EN"
  "http://www.w3.org/Graphics/SVG/1.1/DTD/svg11.dtd">
<svg xmlns:xlink="http://www.w3.org/1999/xlink" width="460.8pt" height="345.6pt" viewBox="0 0 460.8 345.6" xmlns="http://www.w3.org/2000/svg" version="1.1">
 <metadata>
  <rdf:RDF xmlns:dc="http://purl.org/dc/elements/1.1/" xmlns:cc="http://creativecommons.org/ns#" xmlns:rdf="http://www.w3.org/1999/02/22-rdf-syntax-ns#">
   <cc:Work>
    <dc:type rdf:resource="http://purl.org/dc/dcmitype/StillImage"/>
    <dc:date>2024-06-07T14:00:09.999591</dc:date>
    <dc:format>image/svg+xml</dc:format>
    <dc:creator>
     <cc:Agent>
      <dc:title>Matplotlib v3.7.1, https://matplotlib.org/</dc:title>
     </cc:Agent>
    </dc:creator>
   </cc:Work>
  </rdf:RDF>
 </metadata>
 <defs>
  <style type="text/css">*{stroke-linejoin: round; stroke-linecap: butt}</style>
 </defs>
 <g id="figure_1">
  <g id="patch_1">
   <path d="M 0 345.6 
L 460.8 345.6 
L 460.8 0 
L 0 0 
z
" style="fill: #ffffff"/>
  </g>
  <g id="axes_1">
   <g id="patch_2">
    <path d="M 34.16 291.28 
L 453.192 291.28 
L 453.192 3 
L 34.16 3 
z
" style="fill: #ffffff"/>
   </g>
   <g id="matplotlib.axis_1">
    <g id="xtick_1">
     <g id="line2d_1">
      <path d="M 161.785942 291.28 
L 161.785942 3 
" clip-path="url(#p5f37392887)" style="fill: none; stroke: #b0b0b0; stroke-width: 0.8; stroke-linecap: square"/>
     </g>
     <g id="line2d_2">
      <defs>
       <path id="m9f89a2fe6f" d="M 0 0 
L 0 3.5 
" style="stroke: #000000; stroke-width: 0.8"/>
      </defs>
      <g>
       <use xlink:href="#m9f89a2fe6f" x="161.785942" y="291.28" style="stroke: #000000; stroke-width: 0.8"/>
      </g>
     </g>
     <g id="text_1">
      <!-- -1 -->
      <g transform="translate(151.815629 313.476875) scale(0.2 -0.2)">
       <defs>
        <path id="DejaVuSans-2d" d="M 313 2009 
L 1997 2009 
L 1997 1497 
L 313 1497 
L 313 2009 
z
" transform="scale(0.015625)"/>
        <path id="DejaVuSans-31" d="M 794 531 
L 1825 531 
L 1825 4091 
L 703 3866 
L 703 4441 
L 1819 4666 
L 2450 4666 
L 2450 531 
L 3481 531 
L 3481 0 
L 794 0 
L 794 531 
z
" transform="scale(0.015625)"/>
       </defs>
       <use xlink:href="#DejaVuSans-2d"/>
       <use xlink:href="#DejaVuSans-31" x="36.083984"/>
      </g>
     </g>
    </g>
    <g id="xtick_2">
     <g id="line2d_3">
      <path d="M 325.566058 291.28 
L 325.566058 3 
" clip-path="url(#p5f37392887)" style="fill: none; stroke: #b0b0b0; stroke-width: 0.8; stroke-linecap: square"/>
     </g>
     <g id="line2d_4">
      <g>
       <use xlink:href="#m9f89a2fe6f" x="325.566058" y="291.28" style="stroke: #000000; stroke-width: 0.8"/>
      </g>
     </g>
     <g id="text_2">
      <!-- 1 -->
      <g transform="translate(319.203558 313.476875) scale(0.2 -0.2)">
       <use xlink:href="#DejaVuSans-31"/>
      </g>
     </g>
    </g>
    <g id="xtick_3">
     <g id="line2d_5">
      <defs>
       <path id="m676e89c4df" d="M 0 0 
L 0 2 
" style="stroke: #000000; stroke-width: 0.6"/>
      </defs>
      <g>
       <use xlink:href="#m676e89c4df" x="37.077313" y="291.28" style="stroke: #000000; stroke-width: 0.6"/>
      </g>
     </g>
    </g>
    <g id="xtick_4">
     <g id="line2d_6">
      <g>
       <use xlink:href="#m676e89c4df" x="47.308553" y="291.28" style="stroke: #000000; stroke-width: 0.6"/>
      </g>
     </g>
    </g>
    <g id="xtick_5">
     <g id="line2d_7">
      <g>
       <use xlink:href="#m676e89c4df" x="55.24452" y="291.28" style="stroke: #000000; stroke-width: 0.6"/>
      </g>
     </g>
    </g>
    <g id="xtick_6">
     <g id="line2d_8">
      <g>
       <use xlink:href="#m676e89c4df" x="61.728676" y="291.28" style="stroke: #000000; stroke-width: 0.6"/>
      </g>
     </g>
    </g>
    <g id="xtick_7">
     <g id="line2d_9">
      <g>
       <use xlink:href="#m676e89c4df" x="67.210953" y="291.28" style="stroke: #000000; stroke-width: 0.6"/>
      </g>
     </g>
    </g>
    <g id="xtick_8">
     <g id="line2d_10">
      <g>
       <use xlink:href="#m676e89c4df" x="71.959917" y="291.28" style="stroke: #000000; stroke-width: 0.6"/>
      </g>
     </g>
    </g>
    <g id="xtick_9">
     <g id="line2d_11">
      <g>
       <use xlink:href="#m676e89c4df" x="76.1488" y="291.28" style="stroke: #000000; stroke-width: 0.6"/>
      </g>
     </g>
    </g>
    <g id="xtick_10">
     <g id="line2d_12">
      <g>
       <use xlink:href="#m676e89c4df" x="104.547247" y="291.28" style="stroke: #000000; stroke-width: 0.6"/>
      </g>
     </g>
    </g>
    <g id="xtick_11">
     <g id="line2d_13">
      <g>
       <use xlink:href="#m676e89c4df" x="118.967371" y="291.28" style="stroke: #000000; stroke-width: 0.6"/>
      </g>
     </g>
    </g>
    <g id="xtick_12">
     <g id="line2d_14">
      <g>
       <use xlink:href="#m676e89c4df" x="129.198611" y="291.28" style="stroke: #000000; stroke-width: 0.6"/>
      </g>
     </g>
    </g>
    <g id="xtick_13">
     <g id="line2d_15">
      <g>
       <use xlink:href="#m676e89c4df" x="137.134578" y="291.28" style="stroke: #000000; stroke-width: 0.6"/>
      </g>
     </g>
    </g>
    <g id="xtick_14">
     <g id="line2d_16">
      <g>
       <use xlink:href="#m676e89c4df" x="143.618735" y="291.28" style="stroke: #000000; stroke-width: 0.6"/>
      </g>
     </g>
    </g>
    <g id="xtick_15">
     <g id="line2d_17">
      <g>
       <use xlink:href="#m676e89c4df" x="149.101011" y="291.28" style="stroke: #000000; stroke-width: 0.6"/>
      </g>
     </g>
    </g>
    <g id="xtick_16">
     <g id="line2d_18">
      <g>
       <use xlink:href="#m676e89c4df" x="153.849975" y="291.28" style="stroke: #000000; stroke-width: 0.6"/>
      </g>
     </g>
    </g>
    <g id="xtick_17">
     <g id="line2d_19">
      <g>
       <use xlink:href="#m676e89c4df" x="158.038858" y="291.28" style="stroke: #000000; stroke-width: 0.6"/>
      </g>
     </g>
    </g>
    <g id="xtick_18">
     <g id="line2d_20">
      <g>
       <use xlink:href="#m676e89c4df" x="186.437306" y="291.28" style="stroke: #000000; stroke-width: 0.6"/>
      </g>
     </g>
    </g>
    <g id="xtick_19">
     <g id="line2d_21">
      <g>
       <use xlink:href="#m676e89c4df" x="200.857429" y="291.28" style="stroke: #000000; stroke-width: 0.6"/>
      </g>
     </g>
    </g>
    <g id="xtick_20">
     <g id="line2d_22">
      <g>
       <use xlink:href="#m676e89c4df" x="211.08867" y="291.28" style="stroke: #000000; stroke-width: 0.6"/>
      </g>
     </g>
    </g>
    <g id="xtick_21">
     <g id="line2d_23">
      <g>
       <use xlink:href="#m676e89c4df" x="219.024636" y="291.28" style="stroke: #000000; stroke-width: 0.6"/>
      </g>
     </g>
    </g>
    <g id="xtick_22">
     <g id="line2d_24">
      <g>
       <use xlink:href="#m676e89c4df" x="225.508793" y="291.28" style="stroke: #000000; stroke-width: 0.6"/>
      </g>
     </g>
    </g>
    <g id="xtick_23">
     <g id="line2d_25">
      <g>
       <use xlink:href="#m676e89c4df" x="230.991069" y="291.28" style="stroke: #000000; stroke-width: 0.6"/>
      </g>
     </g>
    </g>
    <g id="xtick_24">
     <g id="line2d_26">
      <g>
       <use xlink:href="#m676e89c4df" x="235.740033" y="291.28" style="stroke: #000000; stroke-width: 0.6"/>
      </g>
     </g>
    </g>
    <g id="xtick_25">
     <g id="line2d_27">
      <g>
       <use xlink:href="#m676e89c4df" x="239.928916" y="291.28" style="stroke: #000000; stroke-width: 0.6"/>
      </g>
     </g>
    </g>
    <g id="xtick_26">
     <g id="line2d_28">
      <g>
       <use xlink:href="#m676e89c4df" x="268.327364" y="291.28" style="stroke: #000000; stroke-width: 0.6"/>
      </g>
     </g>
    </g>
    <g id="xtick_27">
     <g id="line2d_29">
      <g>
       <use xlink:href="#m676e89c4df" x="282.747487" y="291.28" style="stroke: #000000; stroke-width: 0.6"/>
      </g>
     </g>
    </g>
    <g id="xtick_28">
     <g id="line2d_30">
      <g>
       <use xlink:href="#m676e89c4df" x="292.978728" y="291.28" style="stroke: #000000; stroke-width: 0.6"/>
      </g>
     </g>
    </g>
    <g id="xtick_29">
     <g id="line2d_31">
      <g>
       <use xlink:href="#m676e89c4df" x="300.914694" y="291.28" style="stroke: #000000; stroke-width: 0.6"/>
      </g>
     </g>
    </g>
    <g id="xtick_30">
     <g id="line2d_32">
      <g>
       <use xlink:href="#m676e89c4df" x="307.398851" y="291.28" style="stroke: #000000; stroke-width: 0.6"/>
      </g>
     </g>
    </g>
    <g id="xtick_31">
     <g id="line2d_33">
      <g>
       <use xlink:href="#m676e89c4df" x="312.881128" y="291.28" style="stroke: #000000; stroke-width: 0.6"/>
      </g>
     </g>
    </g>
    <g id="xtick_32">
     <g id="line2d_34">
      <g>
       <use xlink:href="#m676e89c4df" x="317.630092" y="291.28" style="stroke: #000000; stroke-width: 0.6"/>
      </g>
     </g>
    </g>
    <g id="xtick_33">
     <g id="line2d_35">
      <g>
       <use xlink:href="#m676e89c4df" x="321.818975" y="291.28" style="stroke: #000000; stroke-width: 0.6"/>
      </g>
     </g>
    </g>
    <g id="xtick_34">
     <g id="line2d_36">
      <g>
       <use xlink:href="#m676e89c4df" x="350.217422" y="291.28" style="stroke: #000000; stroke-width: 0.6"/>
      </g>
     </g>
    </g>
    <g id="xtick_35">
     <g id="line2d_37">
      <g>
       <use xlink:href="#m676e89c4df" x="364.637546" y="291.28" style="stroke: #000000; stroke-width: 0.6"/>
      </g>
     </g>
    </g>
    <g id="xtick_36">
     <g id="line2d_38">
      <g>
       <use xlink:href="#m676e89c4df" x="374.868786" y="291.28" style="stroke: #000000; stroke-width: 0.6"/>
      </g>
     </g>
    </g>
    <g id="xtick_37">
     <g id="line2d_39">
      <g>
       <use xlink:href="#m676e89c4df" x="382.804753" y="291.28" style="stroke: #000000; stroke-width: 0.6"/>
      </g>
     </g>
    </g>
    <g id="xtick_38">
     <g id="line2d_40">
      <g>
       <use xlink:href="#m676e89c4df" x="389.28891" y="291.28" style="stroke: #000000; stroke-width: 0.6"/>
      </g>
     </g>
    </g>
    <g id="xtick_39">
     <g id="line2d_41">
      <g>
       <use xlink:href="#m676e89c4df" x="394.771186" y="291.28" style="stroke: #000000; stroke-width: 0.6"/>
      </g>
     </g>
    </g>
    <g id="xtick_40">
     <g id="line2d_42">
      <g>
       <use xlink:href="#m676e89c4df" x="399.52015" y="291.28" style="stroke: #000000; stroke-width: 0.6"/>
      </g>
     </g>
    </g>
    <g id="xtick_41">
     <g id="line2d_43">
      <g>
       <use xlink:href="#m676e89c4df" x="403.709033" y="291.28" style="stroke: #000000; stroke-width: 0.6"/>
      </g>
     </g>
    </g>
    <g id="xtick_42">
     <g id="line2d_44">
      <g>
       <use xlink:href="#m676e89c4df" x="432.10748" y="291.28" style="stroke: #000000; stroke-width: 0.6"/>
      </g>
     </g>
    </g>
    <g id="xtick_43">
     <g id="line2d_45">
      <g>
       <use xlink:href="#m676e89c4df" x="446.527604" y="291.28" style="stroke: #000000; stroke-width: 0.6"/>
      </g>
     </g>
    </g>
    <g id="text_3">
     <!-- log10 of FEvals ratio -->
     <g transform="translate(141.371312 336.833125) scale(0.2 -0.2)">
      <defs>
       <path id="DejaVuSans-6c" d="M 603 4863 
L 1178 4863 
L 1178 0 
L 603 0 
L 603 4863 
z
" transform="scale(0.015625)"/>
       <path id="DejaVuSans-6f" d="M 1959 3097 
Q 1497 3097 1228 2736 
Q 959 2375 959 1747 
Q 959 1119 1226 758 
Q 1494 397 1959 397 
Q 2419 397 2687 759 
Q 2956 1122 2956 1747 
Q 2956 2369 2687 2733 
Q 2419 3097 1959 3097 
z
M 1959 3584 
Q 2709 3584 3137 3096 
Q 3566 2609 3566 1747 
Q 3566 888 3137 398 
Q 2709 -91 1959 -91 
Q 1206 -91 779 398 
Q 353 888 353 1747 
Q 353 2609 779 3096 
Q 1206 3584 1959 3584 
z
" transform="scale(0.015625)"/>
       <path id="DejaVuSans-67" d="M 2906 1791 
Q 2906 2416 2648 2759 
Q 2391 3103 1925 3103 
Q 1463 3103 1205 2759 
Q 947 2416 947 1791 
Q 947 1169 1205 825 
Q 1463 481 1925 481 
Q 2391 481 2648 825 
Q 2906 1169 2906 1791 
z
M 3481 434 
Q 3481 -459 3084 -895 
Q 2688 -1331 1869 -1331 
Q 1566 -1331 1297 -1286 
Q 1028 -1241 775 -1147 
L 775 -588 
Q 1028 -725 1275 -790 
Q 1522 -856 1778 -856 
Q 2344 -856 2625 -561 
Q 2906 -266 2906 331 
L 2906 616 
Q 2728 306 2450 153 
Q 2172 0 1784 0 
Q 1141 0 747 490 
Q 353 981 353 1791 
Q 353 2603 747 3093 
Q 1141 3584 1784 3584 
Q 2172 3584 2450 3431 
Q 2728 3278 2906 2969 
L 2906 3500 
L 3481 3500 
L 3481 434 
z
" transform="scale(0.015625)"/>
       <path id="DejaVuSans-30" d="M 2034 4250 
Q 1547 4250 1301 3770 
Q 1056 3291 1056 2328 
Q 1056 1369 1301 889 
Q 1547 409 2034 409 
Q 2525 409 2770 889 
Q 3016 1369 3016 2328 
Q 3016 3291 2770 3770 
Q 2525 4250 2034 4250 
z
M 2034 4750 
Q 2819 4750 3233 4129 
Q 3647 3509 3647 2328 
Q 3647 1150 3233 529 
Q 2819 -91 2034 -91 
Q 1250 -91 836 529 
Q 422 1150 422 2328 
Q 422 3509 836 4129 
Q 1250 4750 2034 4750 
z
" transform="scale(0.015625)"/>
       <path id="DejaVuSans-20" transform="scale(0.015625)"/>
       <path id="DejaVuSans-66" d="M 2375 4863 
L 2375 4384 
L 1825 4384 
Q 1516 4384 1395 4259 
Q 1275 4134 1275 3809 
L 1275 3500 
L 2222 3500 
L 2222 3053 
L 1275 3053 
L 1275 0 
L 697 0 
L 697 3053 
L 147 3053 
L 147 3500 
L 697 3500 
L 697 3744 
Q 697 4328 969 4595 
Q 1241 4863 1831 4863 
L 2375 4863 
z
" transform="scale(0.015625)"/>
       <path id="DejaVuSans-46" d="M 628 4666 
L 3309 4666 
L 3309 4134 
L 1259 4134 
L 1259 2759 
L 3109 2759 
L 3109 2228 
L 1259 2228 
L 1259 0 
L 628 0 
L 628 4666 
z
" transform="scale(0.015625)"/>
       <path id="DejaVuSans-45" d="M 628 4666 
L 3578 4666 
L 3578 4134 
L 1259 4134 
L 1259 2753 
L 3481 2753 
L 3481 2222 
L 1259 2222 
L 1259 531 
L 3634 531 
L 3634 0 
L 628 0 
L 628 4666 
z
" transform="scale(0.015625)"/>
       <path id="DejaVuSans-76" d="M 191 3500 
L 800 3500 
L 1894 563 
L 2988 3500 
L 3597 3500 
L 2284 0 
L 1503 0 
L 191 3500 
z
" transform="scale(0.015625)"/>
       <path id="DejaVuSans-61" d="M 2194 1759 
Q 1497 1759 1228 1600 
Q 959 1441 959 1056 
Q 959 750 1161 570 
Q 1363 391 1709 391 
Q 2188 391 2477 730 
Q 2766 1069 2766 1631 
L 2766 1759 
L 2194 1759 
z
M 3341 1997 
L 3341 0 
L 2766 0 
L 2766 531 
Q 2569 213 2275 61 
Q 1981 -91 1556 -91 
Q 1019 -91 701 211 
Q 384 513 384 1019 
Q 384 1609 779 1909 
Q 1175 2209 1959 2209 
L 2766 2209 
L 2766 2266 
Q 2766 2663 2505 2880 
Q 2244 3097 1772 3097 
Q 1472 3097 1187 3025 
Q 903 2953 641 2809 
L 641 3341 
Q 956 3463 1253 3523 
Q 1550 3584 1831 3584 
Q 2591 3584 2966 3190 
Q 3341 2797 3341 1997 
z
" transform="scale(0.015625)"/>
       <path id="DejaVuSans-73" d="M 2834 3397 
L 2834 2853 
Q 2591 2978 2328 3040 
Q 2066 3103 1784 3103 
Q 1356 3103 1142 2972 
Q 928 2841 928 2578 
Q 928 2378 1081 2264 
Q 1234 2150 1697 2047 
L 1894 2003 
Q 2506 1872 2764 1633 
Q 3022 1394 3022 966 
Q 3022 478 2636 193 
Q 2250 -91 1575 -91 
Q 1294 -91 989 -36 
Q 684 19 347 128 
L 347 722 
Q 666 556 975 473 
Q 1284 391 1588 391 
Q 1994 391 2212 530 
Q 2431 669 2431 922 
Q 2431 1156 2273 1281 
Q 2116 1406 1581 1522 
L 1381 1569 
Q 847 1681 609 1914 
Q 372 2147 372 2553 
Q 372 3047 722 3315 
Q 1072 3584 1716 3584 
Q 2034 3584 2315 3537 
Q 2597 3491 2834 3397 
z
" transform="scale(0.015625)"/>
       <path id="DejaVuSans-72" d="M 2631 2963 
Q 2534 3019 2420 3045 
Q 2306 3072 2169 3072 
Q 1681 3072 1420 2755 
Q 1159 2438 1159 1844 
L 1159 0 
L 581 0 
L 581 3500 
L 1159 3500 
L 1159 2956 
Q 1341 3275 1631 3429 
Q 1922 3584 2338 3584 
Q 2397 3584 2469 3576 
Q 2541 3569 2628 3553 
L 2631 2963 
z
" transform="scale(0.015625)"/>
       <path id="DejaVuSans-74" d="M 1172 4494 
L 1172 3500 
L 2356 3500 
L 2356 3053 
L 1172 3053 
L 1172 1153 
Q 1172 725 1289 603 
Q 1406 481 1766 481 
L 2356 481 
L 2356 0 
L 1766 0 
Q 1100 0 847 248 
Q 594 497 594 1153 
L 594 3053 
L 172 3053 
L 172 3500 
L 594 3500 
L 594 4494 
L 1172 4494 
z
" transform="scale(0.015625)"/>
       <path id="DejaVuSans-69" d="M 603 3500 
L 1178 3500 
L 1178 0 
L 603 0 
L 603 3500 
z
M 603 4863 
L 1178 4863 
L 1178 4134 
L 603 4134 
L 603 4863 
z
" transform="scale(0.015625)"/>
      </defs>
      <use xlink:href="#DejaVuSans-6c"/>
      <use xlink:href="#DejaVuSans-6f" x="27.783203"/>
      <use xlink:href="#DejaVuSans-67" x="88.964844"/>
      <use xlink:href="#DejaVuSans-31" x="152.441406"/>
      <use xlink:href="#DejaVuSans-30" x="216.064453"/>
      <use xlink:href="#DejaVuSans-20" x="279.6875"/>
      <use xlink:href="#DejaVuSans-6f" x="311.474609"/>
      <use xlink:href="#DejaVuSans-66" x="372.65625"/>
      <use xlink:href="#DejaVuSans-20" x="407.861328"/>
      <use xlink:href="#DejaVuSans-46" x="439.648438"/>
      <use xlink:href="#DejaVuSans-45" x="497.167969"/>
      <use xlink:href="#DejaVuSans-76" x="560.351562"/>
      <use xlink:href="#DejaVuSans-61" x="619.53125"/>
      <use xlink:href="#DejaVuSans-6c" x="680.810547"/>
      <use xlink:href="#DejaVuSans-73" x="708.59375"/>
      <use xlink:href="#DejaVuSans-20" x="760.693359"/>
      <use xlink:href="#DejaVuSans-72" x="792.480469"/>
      <use xlink:href="#DejaVuSans-61" x="833.59375"/>
      <use xlink:href="#DejaVuSans-74" x="894.873047"/>
      <use xlink:href="#DejaVuSans-69" x="934.082031"/>
      <use xlink:href="#DejaVuSans-6f" x="961.865234"/>
     </g>
    </g>
   </g>
   <g id="matplotlib.axis_2">
    <g id="ytick_1">
     <g id="line2d_46">
      <path d="M 34.16 288.453725 
L 453.192 288.453725 
" clip-path="url(#p5f37392887)" style="fill: none; stroke: #b0b0b0; stroke-width: 0.8; stroke-linecap: square"/>
     </g>
     <g id="line2d_47">
      <defs>
       <path id="m187c4bc8ba" d="M 0 0 
L -3.5 0 
" style="stroke: #000000; stroke-width: 0.8"/>
      </defs>
      <g>
       <use xlink:href="#m187c4bc8ba" x="34.16" y="288.453725" style="stroke: #000000; stroke-width: 0.8"/>
      </g>
     </g>
    </g>
    <g id="ytick_2">
     <g id="line2d_48">
      <path d="M 34.16 217.796863 
L 453.192 217.796863 
" clip-path="url(#p5f37392887)" style="fill: none; stroke: #b0b0b0; stroke-width: 0.8; stroke-linecap: square"/>
     </g>
     <g id="line2d_49">
      <g>
       <use xlink:href="#m187c4bc8ba" x="34.16" y="217.796863" style="stroke: #000000; stroke-width: 0.8"/>
      </g>
     </g>
    </g>
    <g id="ytick_3">
     <g id="line2d_50">
      <path d="M 34.16 147.14 
L 453.192 147.14 
" clip-path="url(#p5f37392887)" style="fill: none; stroke: #b0b0b0; stroke-width: 0.8; stroke-linecap: square"/>
     </g>
     <g id="line2d_51">
      <g>
       <use xlink:href="#m187c4bc8ba" x="34.16" y="147.14" style="stroke: #000000; stroke-width: 0.8"/>
      </g>
     </g>
    </g>
    <g id="ytick_4">
     <g id="line2d_52">
      <path d="M 34.16 76.483137 
L 453.192 76.483137 
" clip-path="url(#p5f37392887)" style="fill: none; stroke: #b0b0b0; stroke-width: 0.8; stroke-linecap: square"/>
     </g>
     <g id="line2d_53">
      <g>
       <use xlink:href="#m187c4bc8ba" x="34.16" y="76.483137" style="stroke: #000000; stroke-width: 0.8"/>
      </g>
     </g>
    </g>
    <g id="ytick_5">
     <g id="line2d_54">
      <path d="M 34.16 5.826275 
L 453.192 5.826275 
" clip-path="url(#p5f37392887)" style="fill: none; stroke: #b0b0b0; stroke-width: 0.8; stroke-linecap: square"/>
     </g>
     <g id="line2d_55">
      <g>
       <use xlink:href="#m187c4bc8ba" x="34.16" y="5.826275" style="stroke: #000000; stroke-width: 0.8"/>
      </g>
     </g>
    </g>
    <g id="text_4">
     <!-- proportion of trials -->
     <g transform="translate(19.000625 240.14625) rotate(-90) scale(0.2 -0.2)">
      <defs>
       <path id="DejaVuSans-70" d="M 1159 525 
L 1159 -1331 
L 581 -1331 
L 581 3500 
L 1159 3500 
L 1159 2969 
Q 1341 3281 1617 3432 
Q 1894 3584 2278 3584 
Q 2916 3584 3314 3078 
Q 3713 2572 3713 1747 
Q 3713 922 3314 415 
Q 2916 -91 2278 -91 
Q 1894 -91 1617 61 
Q 1341 213 1159 525 
z
M 3116 1747 
Q 3116 2381 2855 2742 
Q 2594 3103 2138 3103 
Q 1681 3103 1420 2742 
Q 1159 2381 1159 1747 
Q 1159 1113 1420 752 
Q 1681 391 2138 391 
Q 2594 391 2855 752 
Q 3116 1113 3116 1747 
z
" transform="scale(0.015625)"/>
       <path id="DejaVuSans-6e" d="M 3513 2113 
L 3513 0 
L 2938 0 
L 2938 2094 
Q 2938 2591 2744 2837 
Q 2550 3084 2163 3084 
Q 1697 3084 1428 2787 
Q 1159 2491 1159 1978 
L 1159 0 
L 581 0 
L 581 3500 
L 1159 3500 
L 1159 2956 
Q 1366 3272 1645 3428 
Q 1925 3584 2291 3584 
Q 2894 3584 3203 3211 
Q 3513 2838 3513 2113 
z
" transform="scale(0.015625)"/>
      </defs>
      <use xlink:href="#DejaVuSans-70"/>
      <use xlink:href="#DejaVuSans-72" x="63.476562"/>
      <use xlink:href="#DejaVuSans-6f" x="102.339844"/>
      <use xlink:href="#DejaVuSans-70" x="163.521484"/>
      <use xlink:href="#DejaVuSans-6f" x="226.998047"/>
      <use xlink:href="#DejaVuSans-72" x="288.179688"/>
      <use xlink:href="#DejaVuSans-74" x="329.292969"/>
      <use xlink:href="#DejaVuSans-69" x="368.501953"/>
      <use xlink:href="#DejaVuSans-6f" x="396.285156"/>
      <use xlink:href="#DejaVuSans-6e" x="457.466797"/>
      <use xlink:href="#DejaVuSans-20" x="520.845703"/>
      <use xlink:href="#DejaVuSans-6f" x="552.632812"/>
      <use xlink:href="#DejaVuSans-66" x="613.814453"/>
      <use xlink:href="#DejaVuSans-20" x="649.019531"/>
      <use xlink:href="#DejaVuSans-74" x="680.806641"/>
      <use xlink:href="#DejaVuSans-72" x="720.015625"/>
      <use xlink:href="#DejaVuSans-69" x="761.128906"/>
      <use xlink:href="#DejaVuSans-61" x="788.912109"/>
      <use xlink:href="#DejaVuSans-6c" x="850.191406"/>
      <use xlink:href="#DejaVuSans-73" x="877.974609"/>
     </g>
    </g>
   </g>
   <g id="line2d_56">
    <path d="M 34.16 261.898126 
L 61.722165 261.898126 
L 61.722165 261.26585 
L 65.966661 261.26585 
L 65.966661 260.633574 
L 66.145563 260.633574 
L 66.145563 260.001298 
L 70.390059 260.001298 
L 70.390059 259.369021 
L 70.975847 259.369021 
L 70.975847 258.736745 
L 73.509252 258.736745 
L 73.509252 258.104469 
L 75.399244 258.104469 
L 75.399244 257.472193 
L 77.932649 257.472193 
L 77.932649 256.839917 
L 78.780279 256.839917 
L 78.780279 256.20764 
L 79.119725 256.20764 
L 79.119725 255.575364 
L 83.203677 255.575364 
L 83.203677 254.943088 
L 83.543123 254.943088 
L 83.543123 254.310812 
L 83.722508 254.310812 
L 83.722508 253.678536 
L 88.099588 253.678536 
L 88.145905 252.413983 
L 88.290622 252.413983 
L 88.290622 251.781707 
L 89.559968 251.781707 
L 89.559968 251.149431 
L 89.763179 251.149431 
L 89.763179 250.517155 
L 92.344084 250.517155 
L 92.344084 249.884879 
L 92.535118 249.884879 
L 92.535118 249.252603 
L 93.804464 249.252603 
L 93.804464 248.620326 
L 94.186576 248.620326 
L 94.186576 247.98805 
L 96.579715 247.98805 
L 96.579715 247.355774 
L 97.35327 247.355774 
L 97.35327 246.723498 
L 97.544303 246.723498 
L 97.544303 246.091222 
L 98.81365 246.091222 
L 98.81365 245.458945 
L 99.886675 245.458945 
L 99.886675 244.826669 
L 100.077708 244.826669 
L 100.077708 244.194393 
L 101.003113 244.194393 
L 101.003113 243.562117 
L 101.347055 243.562117 
L 101.347055 242.929841 
L 105.157703 242.929841 
L 105.157703 242.297565 
L 105.348736 242.297565 
L 105.348736 241.665288 
L 105.497148 241.665288 
L 105.497148 241.033012 
L 105.688182 241.033012 
L 105.688182 240.400736 
L 106.618083 240.400736 
L 106.618083 239.76846 
L 106.957529 239.76846 
L 106.957529 239.136184 
L 110.099931 239.136184 
L 110.099931 238.503908 
L 110.290964 238.503908 
L 110.290964 237.871631 
L 111.560311 237.871631 
L 111.560311 237.239355 
L 116.140602 237.239355 
L 116.140602 236.607079 
L 116.331635 236.607079 
L 116.331635 235.974803 
L 117.600982 235.974803 
L 117.600982 235.342527 
L 122.243396 235.342527 
L 122.243396 234.71025 
L 122.957138 234.71025 
L 122.957138 234.077974 
L 123.148172 234.077974 
L 123.148172 233.445698 
L 124.417519 233.445698 
L 124.417519 232.813422 
L 125.255911 232.813422 
L 125.255911 232.181146 
L 126.487892 232.181146 
L 126.487892 231.54887 
L 129.500407 231.54887 
L 129.500407 230.916593 
L 131.491272 230.916593 
L 131.497077 229.652041 
L 131.66136 229.652041 
L 131.66136 229.019765 
L 134.030482 229.019765 
L 134.030482 228.387489 
L 134.509593 228.387489 
L 134.509593 227.755213 
L 134.948977 227.755213 
L 134.948977 227.122936 
L 135.119066 227.122936 
L 135.119066 226.49066 
L 137.042998 226.49066 
L 137.042998 225.858384 
L 137.721568 225.858384 
L 137.721568 225.226108 
L 139.30151 225.226108 
L 139.30151 224.593832 
L 139.640956 224.593832 
L 139.640956 223.961555 
L 141.179273 223.961555 
L 141.179273 223.329279 
L 142.314026 223.329279 
L 142.314026 222.697003 
L 142.653472 222.697003 
L 142.653472 222.064727 
L 143.793724 222.064727 
L 143.793724 221.432451 
L 143.963812 221.432451 
L 143.963812 220.800175 
L 144.243738 220.800175 
L 144.243738 220.167898 
L 144.440367 220.167898 
L 144.440367 219.535622 
L 144.610455 219.535622 
L 144.610455 218.903346 
L 147.250049 218.903346 
L 147.256254 217.638794 
L 147.420138 217.638794 
L 147.420138 217.006518 
L 149.57769 217.006518 
L 149.57769 216.374241 
L 149.747779 216.374241 
L 149.85392 215.109689 
L 150.024008 215.109689 
L 150.02402 213.845137 
L 150.284409 213.845137 
L 150.284409 213.21286 
L 150.670663 213.21286 
L 150.670663 212.580584 
L 152.885314 212.580584 
L 152.885314 211.948308 
L 153.055402 211.948308 
L 153.055402 211.316032 
L 153.296925 211.316032 
L 153.296925 210.683756 
L 153.480345 210.683756 
L 153.480345 210.05148 
L 155.807986 210.05148 
L 155.807986 209.419203 
L 156.084216 209.419203 
L 156.084216 208.786927 
L 157.100946 208.786927 
L 157.100946 208.154651 
L 157.472037 208.154651 
L 157.472037 207.522375 
L 157.642125 207.522375 
L 157.642125 206.890099 
L 157.803642 206.890099 
L 157.803642 206.257823 
L 157.97373 206.257823 
L 157.97373 205.625546 
L 159.11561 205.625546 
L 159.11561 204.99327 
L 160.113462 204.99327 
L 160.113462 204.360994 
L 160.783359 204.360994 
L 160.783359 203.728718 
L 160.953447 203.728718 
L 160.953447 203.096442 
L 163.702333 203.096442 
L 163.702333 202.464165 
L 163.951566 202.464165 
L 164.033938 201.199613 
L 164.121654 201.199613 
L 164.121654 200.567337 
L 165.953506 200.567337 
L 165.953506 199.935061 
L 166.123594 199.935061 
L 166.123594 199.302785 
L 166.258407 199.302785 
L 166.258407 198.670508 
L 166.428496 198.670508 
L 166.428496 198.038232 
L 167.013655 198.038232 
L 167.013655 197.405956 
L 170.181862 197.405956 
L 170.181862 196.77368 
L 170.782003 196.77368 
L 170.782003 196.141404 
L 172.183802 196.141404 
L 172.183802 195.509128 
L 172.488703 195.509128 
L 172.488703 194.876851 
L 174.298313 194.876851 
L 174.298313 194.244575 
L 174.454342 194.244575 
L 174.468401 192.980023 
L 175.2054 192.980023 
L 175.2054 192.347747 
L 178.877739 192.347747 
L 178.877739 191.71547 
L 180.528609 191.71547 
L 180.528609 191.083194 
L 190.037389 191.083194 
L 190.037389 190.450918 
L 193.155097 190.450918 
L 193.155097 189.818642 
L 193.434693 189.818642 
L 193.495094 188.55409 
L 195.233802 188.55409 
L 195.233802 187.921813 
L 196.526649 187.921813 
L 196.612802 186.657261 
L 196.892398 186.657261 
L 196.892398 186.024985 
L 197.035491 186.024985 
L 197.035491 185.392709 
L 197.159426 185.392709 
L 197.159426 184.760433 
L 197.350459 184.760433 
L 197.350459 184.128156 
L 198.619806 184.128156 
L 198.721022 182.231328 
L 199.245967 182.231328 
L 199.245967 181.599052 
L 199.984354 181.599052 
L 199.984354 180.966775 
L 200.493196 180.966775 
L 200.493196 180.334499 
L 200.831765 180.334499 
L 200.831765 179.702223 
L 201.022798 179.702223 
L 201.022798 179.069947 
L 201.611723 179.069947 
L 201.611723 178.437671 
L 201.726818 178.437671 
L 201.726818 177.805395 
L 202.178727 177.805395 
L 202.178727 177.173118 
L 202.292145 177.173118 
L 202.339841 175.908566 
L 202.442784 175.908566 
L 202.442784 175.27629 
L 202.703672 175.27629 
L 202.703672 174.644014 
L 202.986484 174.644014 
L 202.986484 174.011738 
L 205.12592 174.011738 
L 205.184523 172.747185 
L 205.457549 172.747185 
L 205.457549 172.114909 
L 205.737145 172.114909 
L 205.796166 170.850357 
L 205.856219 170.850357 
L 205.900489 169.585804 
L 206.104192 169.585804 
L 206.104192 168.953528 
L 206.383788 168.953528 
L 206.383788 168.321252 
L 207.536254 168.321252 
L 207.536254 167.688976 
L 207.714744 167.688976 
L 207.714744 167.0567 
L 208.123807 167.0567 
L 208.182897 165.792147 
L 208.400037 165.792147 
L 208.425882 164.527595 
L 208.8291 164.527595 
L 208.913875 163.263043 
L 209.19347 163.263043 
L 209.19347 162.630766 
L 209.337943 162.630766 
L 209.370416 161.366214 
L 209.475744 161.366214 
L 209.543374 160.101662 
L 209.984586 160.101662 
L 209.984586 159.469385 
L 210.296115 159.469385 
L 210.296115 158.837109 
L 210.865405 158.837109 
L 210.865405 158.204833 
L 210.992579 158.204833 
L 211.023474 156.940281 
L 211.168905 156.940281 
L 211.241515 155.043452 
L 211.431431 155.043452 
L 211.521111 153.146624 
L 211.548419 153.146624 
L 211.548419 152.514348 
L 211.670117 152.514348 
L 211.670117 151.882071 
L 211.797341 151.882071 
L 211.797341 151.249795 
L 212.195062 151.249795 
L 212.285426 149.985243 
L 212.670378 149.985243 
L 212.670378 149.352967 
L 212.794269 149.352967 
L 212.794269 148.72069 
L 213.001079 148.72069 
L 213.001079 148.088414 
L 213.32022 148.088414 
L 213.39881 146.823862 
L 213.59645 146.823862 
L 213.59645 146.191586 
L 214.02927 146.191586 
L 214.02927 145.55931 
L 214.379602 145.55931 
L 214.479799 144.294757 
L 214.540611 144.294757 
L 214.613067 142.397929 
L 214.675913 142.397929 
L 214.745235 141.133376 
L 214.828735 141.133376 
L 214.889297 139.868824 
L 215.004745 139.868824 
L 215.004745 139.236548 
L 215.121909 139.236548 
L 215.121909 138.604272 
L 215.391879 138.604272 
L 215.413401 136.707443 
L 216.018154 136.707443 
L 216.018154 136.075167 
L 216.349759 136.075167 
L 216.349759 135.442891 
L 216.627844 135.442891 
L 216.627844 134.810615 
L 216.80744 134.810615 
L 216.913007 133.546062 
L 217.08367 133.546062 
L 217.08367 132.913786 
L 217.303623 132.913786 
L 217.332385 131.649234 
L 217.485595 131.649234 
L 217.485595 131.016957 
L 217.608615 131.016957 
L 217.679564 129.752405 
L 217.920691 129.752405 
L 217.920691 129.120129 
L 218.201561 129.120129 
L 218.201561 128.487853 
L 218.429533 128.487853 
L 218.429533 127.855577 
L 218.669838 127.855577 
L 218.669838 127.2233 
L 219.009283 127.2233 
L 219.009283 126.591024 
L 219.135862 126.591024 
L 219.135862 125.958748 
L 219.329476 125.958748 
L 219.415458 124.694196 
L 219.467467 124.694196 
L 219.549797 123.429643 
L 219.747063 123.429643 
L 219.813236 122.165091 
L 220.017195 122.165091 
L 220.115064 120.268262 
L 220.212969 120.268262 
L 220.212969 119.635986 
L 220.422587 119.635986 
L 220.529202 118.371434 
L 220.640009 118.371434 
L 220.663839 117.106882 
L 220.805432 117.106882 
L 220.805432 116.474605 
L 221.214567 116.474605 
L 221.214567 115.842329 
L 221.546172 115.842329 
L 221.546172 115.210053 
L 221.727021 115.210053 
L 221.727021 114.577777 
L 221.845826 114.577777 
L 221.845826 113.945501 
L 222.083202 113.945501 
L 222.184034 112.680948 
L 222.447184 112.680948 
L 222.52348 109.519567 
L 222.72678 109.519567 
L 222.72678 108.887291 
L 222.839019 108.887291 
L 222.839019 108.255015 
L 222.955992 108.255015 
L 223.016256 106.990463 
L 223.12086 106.990463 
L 223.12086 106.358187 
L 223.347861 106.358187 
L 223.347861 105.72591 
L 223.473521 105.72591 
L 223.473521 105.093634 
L 223.612066 105.093634 
L 223.612066 104.461358 
L 223.836826 104.461358 
L 223.836826 103.829082 
L 224.499623 103.829082 
L 224.525889 102.56453 
L 224.701787 102.56453 
L 224.804524 101.299977 
L 225.033392 101.299977 
L 225.033392 100.667701 
L 225.226732 100.667701 
L 225.302151 99.403149 
L 225.483996 99.403149 
L 225.558337 98.138596 
L 225.615391 98.138596 
L 225.615391 97.50632 
L 225.801162 97.50632 
L 225.894987 94.977215 
L 226.077392 94.977215 
L 226.077392 94.344939 
L 226.327578 94.344939 
L 226.327578 93.712663 
L 227.126263 93.712663 
L 227.126263 93.080387 
L 227.354229 93.080387 
L 227.354229 92.448111 
L 227.617331 92.448111 
L 227.707583 88.654454 
L 227.896927 88.654454 
L 227.922233 86.757625 
L 228.013109 86.757625 
L 228.039188 85.493073 
L 228.201828 85.493073 
L 228.227019 84.22852 
L 228.423548 84.22852 
L 228.423548 83.596244 
L 228.538054 83.596244 
L 228.566465 82.331692 
L 228.755154 82.331692 
L 228.755154 81.699416 
L 228.986943 81.699416 
L 228.986943 81.06714 
L 229.108786 81.06714 
L 229.108786 80.434863 
L 229.495785 80.434863 
L 229.495785 79.802587 
L 229.652737 79.802587 
L 229.696036 78.538035 
L 230.000937 78.538035 
L 230.000937 77.905759 
L 230.426225 77.905759 
L 230.426225 77.273482 
L 230.937416 77.273482 
L 231.018905 75.376654 
L 231.181316 75.376654 
L 231.181316 74.744378 
L 231.293784 74.744378 
L 231.303233 73.479825 
L 231.497725 73.479825 
L 231.497725 72.847549 
L 231.706261 72.847549 
L 231.802627 70.950721 
L 232.082936 70.950721 
L 232.082936 70.318445 
L 232.296458 70.318445 
L 232.296458 69.686168 
L 232.84443 69.686168 
L 232.84443 69.053892 
L 233.166933 69.053892 
L 233.183255 67.157064 
L 233.488157 67.157064 
L 233.488157 66.524787 
L 233.695508 66.524787 
L 233.708201 65.260235 
L 234.013103 65.260235 
L 234.027114 63.995683 
L 234.187112 63.995683 
L 234.187112 63.363407 
L 234.315749 63.363407 
L 234.315749 62.73113 
L 234.903078 62.73113 
L 234.975572 61.466578 
L 235.524139 61.466578 
L 235.524139 60.834302 
L 235.855744 60.834302 
L 235.962138 59.56975 
L 236.189051 59.56975 
L 236.241734 58.305197 
L 236.466895 58.305197 
L 236.493953 56.408369 
L 236.905017 56.408369 
L 237.00683 55.143816 
L 237.209919 55.143816 
L 237.209919 54.51154 
L 237.988088 54.51154 
L 238.040843 53.246988 
L 238.337129 53.246988 
L 238.337129 52.614712 
L 238.835461 52.614712 
L 238.835461 51.982435 
L 239.209918 51.982435 
L 239.209918 51.350159 
L 239.33369 51.350159 
L 239.33369 50.717883 
L 239.842532 50.717883 
L 239.842532 50.085607 
L 239.98347 50.085607 
L 239.98347 49.453331 
L 240.175038 49.453331 
L 240.175038 48.821055 
L 241.528063 48.821055 
L 241.528063 48.188778 
L 242.003668 48.188778 
L 242.053008 46.924226 
L 242.176977 46.924226 
L 242.176977 46.29195 
L 242.481879 46.29195 
L 242.481879 45.659674 
L 243.283432 45.659674 
L 243.283432 45.027397 
L 243.681047 45.027397 
L 243.681047 44.395121 
L 243.87208 44.395121 
L 243.87208 43.762845 
L 244.005608 43.762845 
L 244.005608 43.130569 
L 244.310509 43.130569 
L 244.310509 42.498293 
L 244.533859 42.498293 
L 244.533859 41.866017 
L 245.141427 41.866017 
L 245.249825 39.969188 
L 246.026455 39.969188 
L 246.026455 39.336912 
L 250.521785 39.336912 
L 250.521785 38.704636 
L 252.350415 38.704636 
L 252.350415 38.07236 
L 254.036962 38.07236 
L 254.036962 37.440083 
L 254.227995 37.440083 
L 254.227995 36.807807 
L 255.497342 36.807807 
L 255.497342 36.175531 
L 277.824854 36.175531 
L 277.824854 35.543255 
L 280.83737 35.543255 
L 280.83737 34.910979 
L 285.103839 34.910979 
L 285.103839 34.278702 
L 288.180769 34.278702 
L 288.180769 33.646426 
L 289.527237 33.646426 
L 289.527237 33.01415 
L 291.193285 33.01415 
L 291.193285 32.381874 
L 310.671561 32.381874 
L 310.671561 31.749598 
L 311.481263 31.749598 
L 311.481263 31.117322 
L 311.672296 31.117322 
L 311.672296 30.485045 
L 312.941643 30.485045 
L 312.941643 29.852769 
L 314.185757 29.852769 
L 314.185757 29.220493 
L 314.3439 29.220493 
L 314.3439 28.588217 
L 317.48572 28.588217 
L 317.48572 27.955941 
L 317.858096 27.955941 
L 317.858096 27.323665 
L 319.355953 27.323665 
L 319.355953 26.691388 
L 320.228742 26.691388 
L 320.228742 26.059112 
L 321.158058 26.059112 
L 321.158058 25.426836 
L 323.028292 25.426836 
L 323.028292 24.79456 
L 323.901081 24.79456 
L 323.901081 24.162284 
L 345.62507 24.162284 
L 345.62507 23.530007 
L 348.637586 23.530007 
L 348.637586 22.897731 
L 357.193182 22.897731 
L 357.193182 22.265455 
L 360.707378 22.265455 
L 360.707378 21.633179 
L 364.00734 21.633179 
L 364.00734 21.000903 
L 365.877573 21.000903 
L 365.877573 20.368627 
L 366.750363 20.368627 
L 366.750363 19.73635 
L 367.549097 19.73635 
L 367.549097 19.104074 
L 371.063294 19.104074 
L 371.063294 18.471798 
L 374.363256 18.471798 
L 374.363256 17.839522 
L 376.233489 17.839522 
L 376.233489 17.207246 
L 377.106279 17.207246 
L 377.106279 16.57497 
L 424.993398 16.57497 
L 424.993398 15.942693 
L 428.507594 15.942693 
L 428.507594 15.310417 
L 431.807556 15.310417 
L 431.807556 14.678141 
L 433.677789 14.678141 
L 433.677789 14.045865 
L 434.550579 14.045865 
L 434.550579 13.413589 
L 453.192 13.413589 
L 453.192 13.413589 
" clip-path="url(#p5f37392887)" style="fill: none; stroke: #000000; stroke-width: 3; stroke-linecap: square"/>
   </g>
   <g id="line2d_57">
    <path clip-path="url(#p5f37392887)" style="fill: none; stroke: #000000; stroke-width: 3; stroke-linecap: square"/>
   </g>
   <g id="line2d_58">
    <path d="M 34.16 224.450648 
L 93.179696 224.450648 
L 93.179696 223.816954 
L 98.513731 223.816954 
L 98.513731 223.18326 
L 103.743533 223.18326 
L 103.743533 222.549567 
L 109.077568 222.549567 
L 109.077568 221.915873 
L 109.269924 221.915873 
L 109.269924 221.282179 
L 111.244477 221.282179 
L 111.244477 220.648485 
L 118.209722 220.648485 
L 118.209722 220.014791 
L 119.44601 220.014791 
L 119.44601 219.381097 
L 122.507514 219.381097 
L 122.507514 218.747403 
L 122.95382 218.747403 
L 122.95382 218.11371 
L 123.543757 218.11371 
L 123.598385 216.846322 
L 124.306634 216.846322 
L 124.306634 216.212628 
L 125.351981 216.212628 
L 125.351981 215.578934 
L 127.406814 215.578934 
L 127.406814 214.94524 
L 130.009847 214.94524 
L 130.009847 214.311547 
L 133.071351 214.311547 
L 133.071351 213.677853 
L 133.517657 213.677853 
L 133.517657 213.044159 
L 134.162222 213.044159 
L 134.162222 212.410465 
L 143.141069 212.410465 
L 143.141069 211.776771 
L 144.476035 211.776771 
L 144.476035 211.143077 
L 145.115622 211.143077 
L 145.115622 210.509384 
L 146.755263 210.509384 
L 146.755263 209.87569 
L 146.899921 209.87569 
L 146.899921 209.241996 
L 147.179005 209.241996 
L 147.179005 208.608302 
L 147.537539 208.608302 
L 147.537539 207.974608 
L 147.983846 207.974608 
L 147.983846 207.340914 
L 148.628411 207.340914 
L 148.628411 206.707221 
L 149.935799 206.707221 
L 149.935799 206.073527 
L 151.647031 206.073527 
L 151.647031 205.439833 
L 152.233957 205.439833 
L 152.233957 204.806139 
L 152.51304 204.806139 
L 152.51304 204.172445 
L 157.899558 204.172445 
L 157.987967 202.905058 
L 158.177779 202.905058 
L 158.177779 202.271364 
L 159.223126 202.271364 
L 159.268219 201.003976 
L 159.874111 201.003976 
L 159.874111 200.370282 
L 161.277959 200.370282 
L 161.277959 199.736588 
L 162.210868 199.736588 
L 162.210868 199.102895 
L 165.254166 199.102895 
L 165.254166 198.469201 
L 166.446181 198.469201 
L 166.446181 197.835507 
L 167.22872 197.835507 
L 167.22872 197.201813 
L 168.551804 197.201813 
L 168.578633 195.934425 
L 169.230705 195.934425 
L 169.230705 195.300732 
L 170.553187 195.300732 
L 170.553187 194.667038 
L 171.205258 194.667038 
L 171.205258 194.033344 
L 171.780216 194.033344 
L 171.780216 193.39965 
L 172.936267 193.39965 
L 172.936267 192.765956 
L 173.166235 192.765956 
L 173.166235 192.132262 
L 173.445319 192.132262 
L 173.445319 191.498569 
L 173.981615 191.498569 
L 173.981615 190.864875 
L 176.036448 190.864875 
L 176.036448 190.231181 
L 176.227739 190.231181 
L 176.227739 189.597487 
L 176.506823 189.597487 
L 176.506823 188.963793 
L 176.674046 188.963793 
L 176.677057 187.696406 
L 176.953129 187.696406 
L 176.953129 187.062712 
L 177.275561 187.062712 
L 177.318611 185.795324 
L 177.597694 185.795324 
L 177.597694 185.16163 
L 179.372004 185.16163 
L 179.372004 184.527936 
L 180.290876 184.527936 
L 180.290876 183.894243 
L 180.626408 183.894243 
L 180.626408 183.260549 
L 180.774281 183.260549 
L 180.774281 182.626855 
L 181.336223 182.626855 
L 181.336223 181.993161 
L 181.863858 181.993161 
L 181.863858 181.359467 
L 182.609596 181.359467 
L 182.609596 180.725773 
L 182.748834 180.725773 
L 182.748834 180.092079 
L 183.017993 180.092079 
L 183.017993 179.458386 
L 183.391056 179.458386 
L 183.391056 178.824692 
L 183.613666 178.824692 
L 183.615343 177.557304 
L 183.806944 177.557304 
L 183.806944 176.92361 
L 184.267414 176.92361 
L 184.267414 176.289916 
L 184.66069 176.289916 
L 184.706039 175.022529 
L 185.312762 175.022529 
L 185.312762 174.388835 
L 186.715523 174.388835 
L 186.715523 173.755141 
L 187.367594 173.755141 
L 187.367594 173.121447 
L 191.544922 173.121447 
L 191.544922 172.487753 
L 192.712495 172.487753 
L 192.712495 171.85406 
L 193.139363 171.85406 
L 193.139363 171.220366 
L 195.384897 171.220366 
L 195.384897 170.586672 
L 195.773999 170.586672 
L 195.810991 169.319284 
L 196.220305 169.319284 
L 196.220305 168.68559 
L 196.856338 168.68559 
L 196.86487 167.418203 
L 198.565432 167.418203 
L 198.565432 166.784509 
L 198.911171 166.784509 
L 198.911171 166.150815 
L 199.633473 166.150815 
L 199.633473 165.517121 
L 202.739505 165.517121 
L 202.739505 164.883427 
L 203.541875 164.883427 
L 203.541875 164.249734 
L 205.367256 164.249734 
L 205.367256 163.61604 
L 205.638318 163.61604 
L 205.64634 162.348652 
L 205.920041 162.348652 
L 205.920041 161.714958 
L 206.063972 161.714958 
L 206.063972 161.081264 
L 206.603379 161.081264 
L 206.603379 160.447571 
L 206.716044 160.447571 
L 206.716044 159.813877 
L 207.049685 159.813877 
L 207.049685 159.180183 
L 207.69425 159.180183 
L 207.69425 158.546489 
L 207.897852 158.546489 
L 207.897852 157.912795 
L 208.699822 157.912795 
L 208.699822 157.279101 
L 209.146128 157.279101 
L 209.244508 156.011714 
L 209.733793 156.011714 
L 209.790693 154.744326 
L 209.896579 154.744326 
L 209.896579 154.110632 
L 210.197309 154.110632 
L 210.197309 153.476938 
L 211.661297 153.476938 
L 211.708346 151.575857 
L 211.987276 151.575857 
L 211.987276 150.942163 
L 213.25996 150.942163 
L 213.25996 150.308469 
L 213.402136 150.308469 
L 213.402136 149.674775 
L 214.40307 149.674775 
L 214.40307 149.041082 
L 215.252461 149.041082 
L 215.252461 148.407388 
L 215.735003 148.407388 
L 215.735003 147.773694 
L 216.377624 147.773694 
L 216.377624 147.14 
L 217.484811 147.14 
L 217.484811 146.506306 
L 218.25962 146.506306 
L 218.25962 145.872612 
L 218.576928 145.872612 
L 218.576928 145.238918 
L 218.736171 145.238918 
L 218.736171 144.605225 
L 219.228999 144.605225 
L 219.228999 143.971531 
L 219.458717 143.971531 
L 219.458717 143.337837 
L 221.440156 143.337837 
L 221.440156 142.704143 
L 221.936613 142.704143 
L 221.936613 142.070449 
L 224.663498 142.070449 
L 224.770502 140.803062 
L 224.913516 140.803062 
L 224.913516 140.169368 
L 225.416067 140.169368 
L 225.416067 139.535674 
L 225.81585 139.535674 
L 225.81585 138.90198 
L 226.783392 138.90198 
L 226.783392 138.268286 
L 227.270649 138.268286 
L 227.270649 137.634592 
L 227.870682 137.634592 
L 227.870682 137.000899 
L 229.43978 137.000899 
L 229.43978 136.367205 
L 230.022554 136.367205 
L 230.022554 135.733511 
L 230.485127 135.733511 
L 230.493492 134.466123 
L 230.772576 134.466123 
L 230.772576 133.832429 
L 231.254452 133.832429 
L 231.254452 133.198736 
L 232.2433 133.198736 
L 232.2433 132.565042 
L 232.53996 132.565042 
L 232.53996 131.931348 
L 233.235618 131.931348 
L 233.235618 131.297654 
L 235.742896 131.297654 
L 235.742896 130.66396 
L 236.183584 130.66396 
L 236.183584 130.030266 
L 237.347229 130.030266 
L 237.347229 129.396573 
L 237.839339 129.396573 
L 237.8481 128.129185 
L 238.302119 128.129185 
L 238.302119 127.495491 
L 238.533639 127.495491 
L 238.569653 126.228103 
L 239.597908 126.228103 
L 239.66845 124.960716 
L 240.174556 124.960716 
L 240.276672 123.693328 
L 240.508192 123.693328 
L 240.508192 123.059634 
L 241.172567 123.059634 
L 241.172567 122.42594 
L 241.517619 122.42594 
L 241.517619 121.792247 
L 241.824639 121.792247 
L 241.824639 121.158553 
L 242.083832 121.158553 
L 242.083832 120.524859 
L 242.729954 120.524859 
L 242.729954 119.891165 
L 242.922375 119.891165 
L 242.922375 119.257471 
L 243.17626 119.257471 
L 243.17626 118.623777 
L 243.365655 118.623777 
L 243.365655 117.990084 
L 243.574447 117.990084 
L 243.574447 117.35639 
L 243.820825 117.35639 
L 243.820825 116.722696 
L 244.180275 116.722696 
L 244.180275 116.089002 
L 244.488742 116.089002 
L 244.488742 115.455308 
L 245.340209 115.455308 
L 245.340209 114.821614 
L 245.532442 114.821614 
L 245.532442 114.187921 
L 247.131105 114.187921 
L 247.219132 112.920533 
L 247.529165 112.920533 
L 247.529165 112.286839 
L 248.202927 112.286839 
L 248.202927 111.653145 
L 250.399667 111.653145 
L 250.399667 111.019451 
L 250.853631 111.019451 
L 250.853631 110.385757 
L 251.264431 110.385757 
L 251.264431 109.752064 
L 251.505703 109.752064 
L 251.505703 109.11837 
L 251.710738 109.11837 
L 251.813418 107.850982 
L 251.88841 107.850982 
L 251.88841 107.217288 
L 252.355303 107.217288 
L 252.355303 106.583594 
L 253.338828 106.583594 
L 253.368215 104.682513 
L 253.570349 104.682513 
L 253.632782 103.415125 
L 254.384175 103.415125 
L 254.384175 102.781431 
L 254.615696 102.781431 
L 254.615696 102.147738 
L 255.068945 102.147738 
L 255.118023 100.88035 
L 256.439008 100.88035 
L 256.439008 100.246656 
L 256.670529 100.246656 
L 256.670529 99.612962 
L 257.539981 99.612962 
L 257.539981 98.979268 
L 258.104562 98.979268 
L 258.104562 98.345575 
L 258.402365 98.345575 
L 258.402365 97.711881 
L 259.447712 97.711881 
L 259.501932 96.444493 
L 259.732087 96.444493 
L 259.732087 95.810799 
L 260.14886 95.810799 
L 260.14886 95.177105 
L 260.29093 95.177105 
L 260.29093 94.543412 
L 261.502545 94.543412 
L 261.502545 93.909718 
L 261.889594 93.909718 
L 261.889594 93.276024 
L 262.449898 93.276024 
L 262.449898 92.64233 
L 262.563436 92.64233 
L 262.563436 92.008636 
L 263.009742 92.008636 
L 263.049279 90.741249 
L 263.438597 90.741249 
L 263.438597 90.107555 
L 263.654307 90.107555 
L 263.654307 89.473861 
L 264.401365 89.473861 
L 264.401365 88.840167 
L 265.511402 88.840167 
L 265.511402 88.206473 
L 265.957708 88.206473 
L 265.957708 87.572779 
L 266.602273 87.572779 
L 266.602273 86.939086 
L 267.645539 86.939086 
L 267.645539 86.305392 
L 269.244203 86.305392 
L 269.244203 85.671698 
L 270.970006 85.671698 
L 270.970006 85.038004 
L 271.622077 85.038004 
L 271.622077 84.40431 
L 271.869471 84.40431 
L 271.869471 83.770616 
L 272.56867 83.770616 
L 272.56867 83.136923 
L 272.899957 83.136923 
L 272.899957 82.503229 
L 273.178942 82.503229 
L 273.220741 81.235841 
L 273.458026 81.235841 
L 273.458026 80.602147 
L 275.787458 80.602147 
L 275.787458 79.968453 
L 276.018978 79.968453 
L 276.018978 79.33476 
L 278.210407 79.33476 
L 278.210407 78.701066 
L 278.967993 78.701066 
L 278.967993 78.067372 
L 279.199514 78.067372 
L 279.199514 77.433678 
L 279.966741 77.433678 
L 279.966741 76.799984 
L 280.403948 76.799984 
L 280.503617 75.532597 
L 280.782701 75.532597 
L 280.850995 74.265209 
L 282.327726 74.265209 
L 282.327726 73.631515 
L 283.165654 73.631515 
L 283.165654 72.997821 
L 283.729337 72.997821 
L 283.729337 72.364127 
L 284.03153 72.364127 
L 284.077535 71.09674 
L 284.370876 71.09674 
L 284.370876 70.463046 
L 284.764317 70.463046 
L 284.764317 69.829352 
L 285.300777 69.829352 
L 285.300777 69.195658 
L 285.82578 69.195658 
L 285.82578 68.561964 
L 286.744885 68.561964 
L 286.744885 67.92827 
L 286.997004 67.92827 
L 286.997004 67.294577 
L 287.43238 67.294577 
L 287.43238 66.660883 
L 287.878686 66.660883 
L 287.878686 66.027189 
L 288.300413 66.027189 
L 288.300413 65.393495 
L 288.523251 65.393495 
L 288.531933 64.126107 
L 288.746813 64.126107 
L 288.746813 63.492414 
L 291.411126 63.492414 
L 291.411126 62.85872 
L 291.702953 62.85872 
L 291.702953 62.225026 
L 292.008791 62.225026 
L 292.008791 61.591332 
L 292.725202 61.591332 
L 292.725202 60.957638 
L 293.36395 60.957638 
L 293.36395 60.323944 
L 294.020005 60.323944 
L 294.020005 59.690251 
L 294.650919 59.690251 
L 294.650919 59.056557 
L 296.678069 59.056557 
L 296.678069 58.422863 
L 298.043889 58.422863 
L 298.043889 57.789169 
L 300.049877 57.789169 
L 300.049877 57.155475 
L 300.991855 57.155475 
L 300.991855 56.521781 
L 303.554581 56.521781 
L 303.554581 55.888088 
L 305.651025 55.888088 
L 305.651025 55.254394 
L 306.169615 55.254394 
L 306.233055 53.987006 
L 308.778493 53.987006 
L 308.778493 53.353312 
L 309.294559 53.353312 
L 309.294559 52.719618 
L 309.740866 52.719618 
L 309.740866 52.085925 
L 310.385431 52.085925 
L 310.385431 51.452231 
L 310.879257 51.452231 
L 310.896052 50.184843 
L 311.127573 50.184843 
L 311.127573 49.551149 
L 312.125165 49.551149 
L 312.125165 48.917455 
L 312.645861 48.917455 
L 312.645861 48.283762 
L 312.877381 48.283762 
L 312.9757 47.016374 
L 313.524223 47.016374 
L 313.524223 46.38268 
L 313.723829 46.38268 
L 313.723829 45.748986 
L 315.959589 45.748986 
L 315.959589 45.115292 
L 316.133102 45.115292 
L 316.133102 44.481599 
L 316.571897 44.481599 
L 316.571897 43.847905 
L 316.794443 43.847905 
L 316.84869 42.580517 
L 317.500761 42.580517 
L 317.500761 41.946823 
L 317.709398 41.946823 
L 317.709398 41.313129 
L 318.393107 41.313129 
L 318.393107 40.679436 
L 319.457569 40.679436 
L 319.457569 40.045742 
L 319.855913 40.045742 
L 319.855913 39.412048 
L 320.10964 39.412048 
L 320.10964 38.778354 
L 320.577117 38.778354 
L 320.577117 38.14466 
L 320.808637 38.14466 
L 320.808637 37.510966 
L 322.912833 37.510966 
L 322.912833 36.877272 
L 325.640654 36.877272 
L 325.640654 36.243579 
L 328.39039 36.243579 
L 328.39039 35.609885 
L 329.044338 35.609885 
L 329.044338 34.976191 
L 331.653217 34.976191 
L 331.653217 34.342497 
L 338.434077 34.342497 
L 338.434077 33.708803 
L 339.681157 33.708803 
L 339.689394 32.441416 
L 340.693491 32.441416 
L 340.693491 31.807722 
L 340.925012 31.807722 
L 340.925012 31.174028 
L 342.292155 31.174028 
L 342.292155 30.540334 
L 342.523675 30.540334 
L 342.523675 29.90664 
L 342.63736 29.90664 
L 342.63736 29.272946 
L 344.775013 29.272946 
L 344.775013 28.639253 
L 345.757028 28.639253 
L 345.757028 28.005559 
L 347.005832 28.005559 
L 347.005832 27.371865 
L 347.355692 27.371865 
L 347.355692 26.738171 
L 348.215634 26.738171 
L 348.215634 26.104477 
L 355.540309 26.104477 
L 355.540309 25.470783 
L 358.003849 25.470783 
L 358.003849 24.83709 
L 359.514639 24.83709 
L 359.514639 24.203396 
L 360.612728 24.203396 
L 360.612728 23.569702 
L 362.462605 23.569702 
L 362.462605 22.936008 
L 362.673127 22.936008 
L 362.673127 22.302314 
L 364.558338 22.302314 
L 364.558338 21.66862 
L 365.282006 21.66862 
L 365.282006 21.034927 
L 366.839314 21.034927 
L 366.839314 20.401233 
L 369.78728 20.401233 
L 369.78728 19.767539 
L 384.383583 19.767539 
L 384.383583 19.133845 
L 386.420518 19.133845 
L 386.420518 18.500151 
L 386.572175 18.500151 
L 386.572175 17.866457 
L 386.803696 17.866457 
L 386.803696 17.232764 
L 389.181054 17.232764 
L 389.181054 16.59907 
L 389.412575 16.59907 
L 389.412575 15.965376 
L 391.635712 15.965376 
L 391.708258 14.697988 
L 394.244591 14.697988 
L 394.244591 14.064294 
L 406.245762 14.064294 
L 406.245762 13.430601 
L 413.570437 13.430601 
L 413.570437 12.796907 
L 453.192 12.796907 
L 453.192 12.796907 
" clip-path="url(#p5f37392887)" style="fill: none; stroke: #00bfbf; stroke-width: 3; stroke-linecap: square"/>
   </g>
   <g id="line2d_59">
    <path clip-path="url(#p5f37392887)" style="fill: none; stroke: #00bfbf; stroke-width: 3; stroke-linecap: square"/>
   </g>
   <g id="line2d_60">
    <path d="M 34.16 216.83772 
L 106.219579 216.83772 
L 106.219579 215.558863 
L 108.869676 215.558863 
L 108.869676 214.280005 
L 111.105177 214.280005 
L 111.105177 213.001148 
L 113.61886 213.001148 
L 113.61886 211.722291 
L 125.226435 211.722291 
L 125.226435 210.443434 
L 127.876531 210.443434 
L 127.876531 209.164576 
L 130.112032 209.164576 
L 130.112032 207.885719 
L 132.625715 207.885719 
L 132.625715 206.606862 
L 133.386674 206.606862 
L 133.386674 205.328005 
L 133.547216 205.328005 
L 133.547216 204.049147 
L 135.613683 204.049147 
L 135.613683 202.77029 
L 135.763097 202.77029 
L 135.763097 201.491433 
L 136.036771 201.491433 
L 136.036771 200.212576 
L 138.272271 200.212576 
L 138.272271 198.933718 
L 140.785955 198.933718 
L 140.785955 197.654861 
L 152.554071 197.654861 
L 152.554071 196.376004 
L 154.620538 196.376004 
L 154.620538 195.097147 
L 154.769952 195.097147 
L 154.769952 193.818289 
L 155.368632 193.818289 
L 155.368632 192.539432 
L 158.018729 192.539432 
L 158.018729 191.260575 
L 160.254229 191.260575 
L 160.254229 189.981718 
L 160.714311 189.981718 
L 160.714311 188.70286 
L 162.767913 188.70286 
L 162.870025 184.866289 
L 162.930192 184.866289 
L 162.930192 183.587431 
L 168.813429 183.587431 
L 168.813429 182.308574 
L 171.463526 182.308574 
L 171.463526 181.029717 
L 173.699027 181.029717 
L 173.699027 179.75086 
L 176.21271 179.75086 
L 176.21271 178.472002 
L 177.920022 178.472002 
L 177.920022 177.193145 
L 180.55217 177.193145 
L 180.570119 174.635431 
L 181.87688 174.635431 
L 181.87688 173.356574 
L 182.696269 173.356574 
L 182.805619 170.798859 
L 183.202266 170.798859 
L 183.202266 169.520002 
L 184.762735 169.520002 
L 184.762735 168.241145 
L 184.91215 168.241145 
L 184.91215 166.962287 
L 185.319303 166.962287 
L 185.319303 165.68343 
L 185.437767 165.68343 
L 185.437767 164.404573 
L 186.687869 164.404573 
L 186.687869 163.125716 
L 187.95145 163.125716 
L 187.95145 161.846858 
L 189.337966 161.846858 
L 189.337966 160.568001 
L 190.03712 160.568001 
L 190.03712 159.289144 
L 191.573466 159.289144 
L 191.573466 158.010287 
L 194.087149 158.010287 
L 194.087149 156.731429 
L 196.141066 156.731429 
L 196.141066 155.452572 
L 198.207533 155.452572 
L 198.207533 154.173715 
L 198.356947 154.173715 
L 198.356947 152.894858 
L 204.718282 152.894858 
L 204.718282 151.616 
L 205.247659 151.616 
L 205.247659 150.337143 
L 207.314125 150.337143 
L 207.314125 149.058286 
L 207.46354 149.058286 
L 207.46354 147.779429 
L 207.879807 147.779429 
L 207.879807 146.500571 
L 209.946273 146.500571 
L 209.946273 145.221714 
L 210.095687 145.221714 
L 210.095687 143.942857 
L 212.019077 143.942857 
L 212.019077 142.664 
L 214.015506 142.664 
L 214.015506 141.385142 
L 214.296586 141.385142 
L 214.296586 140.106285 
L 216.081972 140.106285 
L 216.081972 138.827428 
L 216.231387 138.827428 
L 216.231387 137.548571 
L 216.946683 137.548571 
L 216.946683 136.269713 
L 219.182183 136.269713 
L 219.182183 134.990856 
L 221.678334 134.990856 
L 221.695867 132.433142 
L 221.910137 132.433142 
L 221.910137 131.154284 
L 223.725137 131.154284 
L 223.725137 129.875427 
L 224.016206 129.875427 
L 224.016206 128.59657 
L 224.328431 128.59657 
L 224.328431 127.317713 
L 225.463875 127.317713 
L 225.463875 126.038855 
L 226.563931 126.038855 
L 226.563931 124.759998 
L 229.077614 124.759998 
L 229.077614 123.481141 
L 231.885377 123.481141 
L 231.885377 122.202284 
L 232.608512 122.202284 
L 232.608512 120.923426 
L 234.570467 120.923426 
L 234.570467 119.644569 
L 235.258609 119.644569 
L 235.258609 118.365712 
L 236.512535 118.365712 
L 236.512535 117.086855 
L 237.202615 117.086855 
L 237.202615 115.807998 
L 237.49411 115.807998 
L 237.49411 114.52914 
L 239.162632 114.52914 
L 239.162632 113.250283 
L 240.007793 113.250283 
L 240.007793 111.971426 
L 240.916992 111.971426 
L 240.916992 110.692569 
L 241.398132 110.692569 
L 241.398132 109.413711 
L 241.624223 109.413711 
L 241.624223 108.134854 
L 243.023061 108.134854 
L 243.023061 106.855997 
L 243.338314 106.855997 
L 243.338314 105.57714 
L 243.690689 105.57714 
L 243.690689 104.298282 
L 243.840104 104.298282 
L 243.911816 101.740568 
L 249.005971 101.740568 
L 249.077232 99.182853 
L 251.072437 99.182853 
L 251.1833 96.625139 
L 251.221852 96.625139 
L 251.221852 95.346282 
L 253.867335 95.346282 
L 253.867335 94.067424 
L 259.936149 94.067424 
L 259.941596 91.50971 
L 262.002616 91.50971 
L 262.002616 90.230853 
L 262.15203 90.230853 
L 262.15203 88.951995 
L 262.591693 88.951995 
L 262.591693 87.673138 
L 263.840172 87.673138 
L 263.840172 86.394281 
L 264.827193 86.394281 
L 264.827193 85.115424 
L 265.906639 85.115424 
L 265.906639 83.836566 
L 266.056053 83.836566 
L 266.056053 82.557709 
L 267.312132 82.557709 
L 267.340877 79.999995 
L 270.947031 79.999995 
L 270.947031 78.721137 
L 271.05919 78.721137 
L 271.05919 77.44228 
L 273.165258 77.44228 
L 273.165258 76.163423 
L 276.418725 76.163423 
L 276.418725 74.884566 
L 278.328779 74.884566 
L 278.328779 73.605708 
L 279.050873 73.605708 
L 279.050873 72.326851 
L 281.500302 72.326851 
L 281.500302 71.047994 
L 284.150399 71.047994 
L 284.150399 69.769137 
L 284.503987 69.769137 
L 284.503987 68.490279 
L 285.186572 68.490279 
L 285.186572 67.211422 
L 286.385899 67.211422 
L 286.385899 65.932565 
L 286.610056 65.932565 
L 286.610056 64.653708 
L 287.269233 64.653708 
L 287.269233 63.374851 
L 288.899583 63.374851 
L 288.899583 62.095993 
L 289.258958 62.095993 
L 289.335699 59.538279 
L 289.485114 59.538279 
L 289.485114 58.259422 
L 293.162981 58.259422 
L 293.162981 56.980564 
L 293.61058 56.980564 
L 293.61058 55.701707 
L 295.716648 55.701707 
L 295.716648 54.42285 
L 296.242728 54.42285 
L 296.242728 53.143993 
L 298.348796 53.143993 
L 298.348796 51.865135 
L 302.378427 51.865135 
L 302.378427 50.586278 
L 304.484495 50.586278 
L 304.484495 49.307421 
L 308.827939 49.307421 
L 308.827939 48.028564 
L 310.894405 48.028564 
L 310.894405 46.749706 
L 311.04382 46.749706 
L 311.04382 45.470849 
L 312.795289 45.470849 
L 312.795289 44.191992 
L 316.592041 44.191992 
L 316.592041 42.913135 
L 320.177037 42.913135 
L 320.177037 41.634277 
L 329.987144 41.634277 
L 329.987144 40.35542 
L 331.107215 40.35542 
L 331.107215 39.076563 
L 332.093212 39.076563 
L 332.093212 37.797706 
L 335.011238 37.797706 
L 335.011238 36.518848 
L 337.368892 36.518848 
L 337.368892 35.239991 
L 338.150747 35.239991 
L 338.150747 33.961134 
L 339.47496 33.961134 
L 339.47496 32.682277 
L 348.29907 32.682277 
L 348.29907 31.403419 
L 350.405139 31.403419 
L 350.405139 30.124562 
L 352.203093 30.124562 
L 352.203093 28.845705 
L 354.309162 28.845705 
L 354.309162 27.566848 
L 358.440299 27.566848 
L 358.440299 26.28799 
L 375.632154 26.28799 
L 375.632154 25.009133 
L 377.738222 25.009133 
L 377.738222 23.730276 
L 379.999005 23.730276 
L 379.999005 22.451419 
L 397.19086 22.451419 
L 397.19086 21.172561 
L 399.296928 21.172561 
L 399.296928 19.893704 
L 453.192 19.893704 
L 453.192 19.893704 
" clip-path="url(#p5f37392887)" style="fill: none; stroke: #bf00bf; stroke-width: 3; stroke-linecap: square"/>
   </g>
   <g id="line2d_61">
    <path clip-path="url(#p5f37392887)" style="fill: none; stroke: #bf00bf; stroke-width: 3; stroke-linecap: square"/>
   </g>
   <g id="line2d_62">
    <path d="M 34.16 216.83772 
L 119.164391 216.83772 
L 119.164391 215.558863 
L 121.418576 215.558863 
L 121.418576 214.280005 
L 123.431079 214.280005 
L 123.431079 213.001148 
L 125.600242 213.001148 
L 125.600242 211.722291 
L 128.50933 211.722291 
L 128.50933 210.443434 
L 130.763515 210.443434 
L 130.763515 209.164576 
L 132.776018 209.164576 
L 132.776018 207.885719 
L 134.945181 207.885719 
L 134.945181 206.606862 
L 136.178595 206.606862 
L 136.178595 205.328005 
L 138.43278 205.328005 
L 138.43278 204.049147 
L 140.445283 204.049147 
L 140.445283 202.77029 
L 142.614446 202.77029 
L 142.614446 201.491433 
L 145.950968 201.491433 
L 145.950968 200.212576 
L 147.687337 200.212576 
L 147.708944 197.654861 
L 155.295907 197.654861 
L 155.295907 196.376004 
L 156.464736 196.376004 
L 156.464736 195.097147 
L 157.032275 195.097147 
L 157.053882 192.539432 
L 158.718921 192.539432 
L 158.718921 191.260575 
L 160.731424 191.260575 
L 160.731424 189.981718 
L 162.900587 189.981718 
L 162.965172 187.424003 
L 164.70154 187.424003 
L 164.723147 184.866289 
L 170.714819 184.866289 
L 170.714819 183.587431 
L 172.969004 183.587431 
L 172.969004 182.308574 
L 174.527709 182.308574 
L 174.527709 181.029717 
L 174.981507 181.029717 
L 174.981507 179.75086 
L 177.15067 179.75086 
L 177.15067 178.472002 
L 179.49823 178.472002 
L 179.49823 177.193145 
L 180.862082 177.193145 
L 180.862082 175.914288 
L 181.752415 175.914288 
L 181.752415 174.635431 
L 183.116267 174.635431 
L 183.116267 173.356574 
L 183.251313 173.356574 
L 183.251313 172.077716 
L 183.764918 172.077716 
L 183.872648 169.520002 
L 184.987682 169.520002 
L 185.009288 166.962287 
L 185.12877 166.962287 
L 185.12877 165.68343 
L 185.934081 165.68343 
L 185.934081 164.404573 
L 187.297933 164.404573 
L 187.297933 163.125716 
L 191.541912 163.125716 
L 191.541912 161.846858 
L 197.501396 161.846858 
L 197.501396 160.568001 
L 199.237764 160.568001 
L 199.259371 158.010287 
L 200.347184 158.010287 
L 200.347184 156.731429 
L 202.601369 156.731429 
L 202.601369 155.452572 
L 204.613872 155.452572 
L 204.613872 154.173715 
L 206.284807 154.173715 
L 206.284807 152.894858 
L 206.783035 152.894858 
L 206.783035 151.616 
L 207.648659 151.616 
L 207.648659 150.337143 
L 208.021176 150.337143 
L 208.042782 147.779429 
L 209.385027 147.779429 
L 209.406634 145.221714 
L 211.828054 145.221714 
L 211.828054 143.942857 
L 213.241117 143.942857 
L 213.241117 142.664 
L 214.62509 142.664 
L 214.62509 141.385142 
L 216.879275 141.385142 
L 216.879275 140.106285 
L 218.891778 140.106285 
L 218.891778 138.827428 
L 221.060941 138.827428 
L 221.060941 137.548571 
L 222.066869 137.548571 
L 222.066869 136.269713 
L 222.586055 136.269713 
L 222.586055 134.990856 
L 224.321054 134.990856 
L 224.321054 133.711999 
L 226.078136 133.711999 
L 226.078136 132.433142 
L 226.333557 132.433142 
L 226.333557 131.154284 
L 227.133761 131.154284 
L 227.133761 129.875427 
L 227.675863 129.875427 
L 227.675863 128.59657 
L 228.50272 128.59657 
L 228.50272 127.317713 
L 228.870129 127.317713 
L 228.891736 124.759998 
L 229.717558 124.759998 
L 229.717558 123.481141 
L 230.25532 123.481141 
L 230.25532 122.202284 
L 232.020102 122.202284 
L 232.020102 120.923426 
L 234.274287 120.923426 
L 234.274287 119.644569 
L 234.861548 119.644569 
L 234.861548 118.365712 
L 236.2254 118.365712 
L 236.28679 115.807998 
L 237.020801 115.807998 
L 237.036433 113.250283 
L 238.455953 113.250283 
L 238.455953 111.971426 
L 239.062497 111.971426 
L 239.062497 110.692569 
L 239.290618 110.692569 
L 239.290618 109.413711 
L 241.303121 109.413711 
L 241.411667 106.855997 
L 243.148036 106.855997 
L 243.169643 104.298282 
L 243.472284 104.298282 
L 243.472284 103.019425 
L 244.690066 103.019425 
L 244.690066 101.740568 
L 246.731762 101.740568 
L 246.731762 100.461711 
L 248.853446 100.461711 
L 248.853446 99.182853 
L 250.541462 99.182853 
L 250.611421 95.346282 
L 255.710502 95.346282 
L 255.710502 94.067424 
L 258.806679 94.067424 
L 258.806679 92.788567 
L 260.543047 92.788567 
L 260.564654 90.230853 
L 261.133416 90.230853 
L 261.133416 88.951995 
L 263.387601 88.951995 
L 263.387601 87.673138 
L 263.82301 87.673138 
L 263.82301 86.394281 
L 264.791544 86.394281 
L 264.791544 85.115424 
L 264.976208 85.115424 
L 264.976208 83.836566 
L 265.400104 83.836566 
L 265.400104 82.557709 
L 265.559378 82.557709 
L 265.580985 79.999995 
L 267.017903 79.999995 
L 267.017903 78.721137 
L 267.569267 78.721137 
L 267.569267 77.44228 
L 269.988408 77.44228 
L 269.988408 76.163423 
L 273.574956 76.163423 
L 273.574956 74.884566 
L 274.938807 74.884566 
L 274.938807 73.605708 
L 277.430187 73.605708 
L 277.430187 72.326851 
L 279.22629 72.326851 
L 279.22629 71.047994 
L 281.267986 71.047994 
L 281.267986 69.769137 
L 285.767766 69.769137 
L 285.767766 68.490279 
L 287.383419 68.490279 
L 287.383419 67.211422 
L 287.919993 67.211422 
L 288.021951 63.374851 
L 289.373553 63.374851 
L 289.373553 62.095993 
L 289.656361 62.095993 
L 289.677968 59.538279 
L 290.034454 59.538279 
L 290.051397 56.980564 
L 291.415249 56.980564 
L 291.415249 55.701707 
L 292.203617 55.701707 
L 292.203617 54.42285 
L 292.399751 54.42285 
L 292.399751 53.143993 
L 294.423909 53.143993 
L 294.423909 51.865135 
L 308.701816 51.865135 
L 308.701816 50.586278 
L 308.858655 50.586278 
L 308.858655 49.307421 
L 310.900351 49.307421 
L 310.900351 48.028564 
L 312.554343 48.028564 
L 312.554343 46.749706 
L 314.290711 46.749706 
L 314.312318 44.191992 
L 316.143594 44.191992 
L 316.143594 42.913135 
L 316.496734 42.913135 
L 316.496734 41.634277 
L 323.136562 41.634277 
L 323.136562 40.35542 
L 325.178258 40.35542 
L 325.178258 39.076563 
L 326.096827 39.076563 
L 326.096827 37.797706 
L 330.57834 37.797706 
L 330.57834 36.518848 
L 331.113158 36.518848 
L 331.113158 35.239991 
L 332.620036 35.239991 
L 332.620036 33.961134 
L 340.531573 33.961134 
L 340.531573 32.682277 
L 341.131083 32.682277 
L 341.131083 31.403419 
L 342.573269 31.403419 
L 342.573269 30.124562 
L 345.547904 30.124562 
L 345.547904 28.845705 
L 347.5896 28.845705 
L 347.5896 27.566848 
L 355.210141 27.566848 
L 355.210141 26.28799 
L 369.644887 26.28799 
L 369.644887 25.009133 
L 371.686583 25.009133 
L 371.686583 23.730276 
L 379.844491 23.730276 
L 379.844491 22.451419 
L 394.279237 22.451419 
L 394.279237 21.172561 
L 396.320933 21.172561 
L 396.320933 19.893704 
L 453.192 19.893704 
L 453.192 19.893704 
" clip-path="url(#p5f37392887)" style="fill: none; stroke: #ff0000; stroke-width: 3; stroke-linecap: square"/>
   </g>
   <g id="line2d_63">
    <path clip-path="url(#p5f37392887)" style="fill: none; stroke: #ff0000; stroke-width: 3; stroke-linecap: square"/>
   </g>
   <g id="line2d_64">
    <path d="M 243.676 291.28 
L 243.676 3 
" clip-path="url(#p5f37392887)" style="fill: none; stroke: #000000; stroke-width: 1.5; stroke-linecap: square"/>
   </g>
   <g id="line2d_65">
    <path d="M 34.16 147.14 
L 453.192 147.14 
" clip-path="url(#p5f37392887)" style="fill: none; stroke-dasharray: 2,3.3; stroke-dashoffset: 0; stroke: #000000; stroke-width: 2"/>
   </g>
   <g id="patch_3">
    <path d="M 34.16 291.28 
L 34.16 3 
" style="fill: none; stroke: #000000; stroke-width: 0.8; stroke-linejoin: miter; stroke-linecap: square"/>
   </g>
   <g id="patch_4">
    <path d="M 453.192 291.28 
L 453.192 3 
" style="fill: none; stroke: #000000; stroke-width: 0.8; stroke-linejoin: miter; stroke-linecap: square"/>
   </g>
   <g id="patch_5">
    <path d="M 34.16 291.28 
L 453.192 291.28 
" style="fill: none; stroke: #000000; stroke-width: 0.8; stroke-linejoin: miter; stroke-linecap: square"/>
   </g>
   <g id="patch_6">
    <path d="M 34.16 3 
L 453.192 3 
" style="fill: none; stroke: #000000; stroke-width: 0.8; stroke-linejoin: miter; stroke-linecap: square"/>
   </g>
   <g id="text_5">
    <!-- f20-f24,40-D -->
    <g transform="translate(318.19261 285.5144) scale(0.2 -0.2)">
     <defs>
      <path id="DejaVuSans-32" d="M 1228 531 
L 3431 531 
L 3431 0 
L 469 0 
L 469 531 
Q 828 903 1448 1529 
Q 2069 2156 2228 2338 
Q 2531 2678 2651 2914 
Q 2772 3150 2772 3378 
Q 2772 3750 2511 3984 
Q 2250 4219 1831 4219 
Q 1534 4219 1204 4116 
Q 875 4013 500 3803 
L 500 4441 
Q 881 4594 1212 4672 
Q 1544 4750 1819 4750 
Q 2544 4750 2975 4387 
Q 3406 4025 3406 3419 
Q 3406 3131 3298 2873 
Q 3191 2616 2906 2266 
Q 2828 2175 2409 1742 
Q 1991 1309 1228 531 
z
" transform="scale(0.015625)"/>
      <path id="DejaVuSans-34" d="M 2419 4116 
L 825 1625 
L 2419 1625 
L 2419 4116 
z
M 2253 4666 
L 3047 4666 
L 3047 1625 
L 3713 1625 
L 3713 1100 
L 3047 1100 
L 3047 0 
L 2419 0 
L 2419 1100 
L 313 1100 
L 313 1709 
L 2253 4666 
z
" transform="scale(0.015625)"/>
      <path id="DejaVuSans-2c" d="M 750 794 
L 1409 794 
L 1409 256 
L 897 -744 
L 494 -744 
L 750 256 
L 750 794 
z
" transform="scale(0.015625)"/>
      <path id="DejaVuSans-44" d="M 1259 4147 
L 1259 519 
L 2022 519 
Q 2988 519 3436 956 
Q 3884 1394 3884 2338 
Q 3884 3275 3436 3711 
Q 2988 4147 2022 4147 
L 1259 4147 
z
M 628 4666 
L 1925 4666 
Q 3281 4666 3915 4102 
Q 4550 3538 4550 2338 
Q 4550 1131 3912 565 
Q 3275 0 1925 0 
L 628 0 
L 628 4666 
z
" transform="scale(0.015625)"/>
     </defs>
     <use xlink:href="#DejaVuSans-66"/>
     <use xlink:href="#DejaVuSans-32" x="35.205078"/>
     <use xlink:href="#DejaVuSans-30" x="98.828125"/>
     <use xlink:href="#DejaVuSans-2d" x="162.451172"/>
     <use xlink:href="#DejaVuSans-66" x="198.535156"/>
     <use xlink:href="#DejaVuSans-32" x="233.740234"/>
     <use xlink:href="#DejaVuSans-34" x="297.363281"/>
     <use xlink:href="#DejaVuSans-2c" x="360.986328"/>
     <use xlink:href="#DejaVuSans-34" x="392.773438"/>
     <use xlink:href="#DejaVuSans-30" x="456.396484"/>
     <use xlink:href="#DejaVuSans-2d" x="520.019531"/>
     <use xlink:href="#DejaVuSans-44" x="556.103516"/>
    </g>
   </g>
   <g id="text_6">
    <!-- v2.6.3 -->
    <g style="fill: #808080" transform="translate(227.99475 286.317512) scale(0.1 -0.1)">
     <defs>
      <path id="DejaVuSans-2e" d="M 684 794 
L 1344 794 
L 1344 0 
L 684 0 
L 684 794 
z
" transform="scale(0.015625)"/>
      <path id="DejaVuSans-36" d="M 2113 2584 
Q 1688 2584 1439 2293 
Q 1191 2003 1191 1497 
Q 1191 994 1439 701 
Q 1688 409 2113 409 
Q 2538 409 2786 701 
Q 3034 994 3034 1497 
Q 3034 2003 2786 2293 
Q 2538 2584 2113 2584 
z
M 3366 4563 
L 3366 3988 
Q 3128 4100 2886 4159 
Q 2644 4219 2406 4219 
Q 1781 4219 1451 3797 
Q 1122 3375 1075 2522 
Q 1259 2794 1537 2939 
Q 1816 3084 2150 3084 
Q 2853 3084 3261 2657 
Q 3669 2231 3669 1497 
Q 3669 778 3244 343 
Q 2819 -91 2113 -91 
Q 1303 -91 875 529 
Q 447 1150 447 2328 
Q 447 3434 972 4092 
Q 1497 4750 2381 4750 
Q 2619 4750 2861 4703 
Q 3103 4656 3366 4563 
z
" transform="scale(0.015625)"/>
      <path id="DejaVuSans-33" d="M 2597 2516 
Q 3050 2419 3304 2112 
Q 3559 1806 3559 1356 
Q 3559 666 3084 287 
Q 2609 -91 1734 -91 
Q 1441 -91 1130 -33 
Q 819 25 488 141 
L 488 750 
Q 750 597 1062 519 
Q 1375 441 1716 441 
Q 2309 441 2620 675 
Q 2931 909 2931 1356 
Q 2931 1769 2642 2001 
Q 2353 2234 1838 2234 
L 1294 2234 
L 1294 2753 
L 1863 2753 
Q 2328 2753 2575 2939 
Q 2822 3125 2822 3475 
Q 2822 3834 2567 4026 
Q 2313 4219 1838 4219 
Q 1578 4219 1281 4162 
Q 984 4106 628 3988 
L 628 4550 
Q 988 4650 1302 4700 
Q 1616 4750 1894 4750 
Q 2613 4750 3031 4423 
Q 3450 4097 3450 3541 
Q 3450 3153 3228 2886 
Q 3006 2619 2597 2516 
z
" transform="scale(0.015625)"/>
     </defs>
     <use xlink:href="#DejaVuSans-76"/>
     <use xlink:href="#DejaVuSans-32" x="59.179688"/>
     <use xlink:href="#DejaVuSans-2e" x="122.802734"/>
     <use xlink:href="#DejaVuSans-36" x="154.589844"/>
     <use xlink:href="#DejaVuSans-2e" x="218.212891"/>
     <use xlink:href="#DejaVuSans-33" x="250"/>
    </g>
   </g>
   <g id="legend_1">
    <g id="patch_7">
     <path d="M 48.16 136.425 
L 177.381875 136.425 
Q 181.381875 136.425 181.381875 132.425 
L 181.381875 17 
Q 181.381875 13 177.381875 13 
L 48.16 13 
Q 44.16 13 44.16 17 
L 44.16 132.425 
Q 44.16 136.425 48.16 136.425 
z
" style="fill: #ffffff; opacity: 0.2; stroke: #cccccc; stroke-linejoin: miter"/>
    </g>
    <g id="line2d_66">
     <path d="M 52.16 29.196875 
L 72.16 29.196875 
L 92.16 29.196875 
" style="fill: none; stroke: #000000; stroke-width: 3; stroke-linecap: square"/>
    </g>
    <g id="text_7">
     <!-- 1: 2/2 -->
     <g transform="translate(108.16 36.196875) scale(0.2 -0.2)">
      <defs>
       <path id="DejaVuSans-3a" d="M 750 794 
L 1409 794 
L 1409 0 
L 750 0 
L 750 794 
z
M 750 3309 
L 1409 3309 
L 1409 2516 
L 750 2516 
L 750 3309 
z
" transform="scale(0.015625)"/>
       <path id="DejaVuSans-2f" d="M 1625 4666 
L 2156 4666 
L 531 -594 
L 0 -594 
L 1625 4666 
z
" transform="scale(0.015625)"/>
      </defs>
      <use xlink:href="#DejaVuSans-31"/>
      <use xlink:href="#DejaVuSans-3a" x="63.623047"/>
      <use xlink:href="#DejaVuSans-20" x="97.314453"/>
      <use xlink:href="#DejaVuSans-32" x="129.101562"/>
      <use xlink:href="#DejaVuSans-2f" x="192.724609"/>
      <use xlink:href="#DejaVuSans-32" x="226.416016"/>
     </g>
    </g>
    <g id="line2d_67">
     <path d="M 52.16 58.553125 
L 72.16 58.553125 
L 92.16 58.553125 
" style="fill: none; stroke: #00bfbf; stroke-width: 3; stroke-linecap: square"/>
    </g>
    <g id="text_8">
     <!-- -1: 2/2 -->
     <g transform="translate(108.16 65.553125) scale(0.2 -0.2)">
      <use xlink:href="#DejaVuSans-2d"/>
      <use xlink:href="#DejaVuSans-31" x="36.083984"/>
      <use xlink:href="#DejaVuSans-3a" x="99.707031"/>
      <use xlink:href="#DejaVuSans-20" x="133.398438"/>
      <use xlink:href="#DejaVuSans-32" x="165.185547"/>
      <use xlink:href="#DejaVuSans-2f" x="228.808594"/>
      <use xlink:href="#DejaVuSans-32" x="262.5"/>
     </g>
    </g>
    <g id="line2d_68">
     <path d="M 52.16 87.909375 
L 72.16 87.909375 
L 92.16 87.909375 
" style="fill: none; stroke: #bf00bf; stroke-width: 3; stroke-linecap: square"/>
    </g>
    <g id="text_9">
     <!-- -4: 1/1 -->
     <g transform="translate(108.16 94.909375) scale(0.2 -0.2)">
      <use xlink:href="#DejaVuSans-2d"/>
      <use xlink:href="#DejaVuSans-34" x="36.083984"/>
      <use xlink:href="#DejaVuSans-3a" x="99.707031"/>
      <use xlink:href="#DejaVuSans-20" x="133.398438"/>
      <use xlink:href="#DejaVuSans-31" x="165.185547"/>
      <use xlink:href="#DejaVuSans-2f" x="228.808594"/>
      <use xlink:href="#DejaVuSans-31" x="262.5"/>
     </g>
    </g>
    <g id="line2d_69">
     <path d="M 52.16 117.265625 
L 72.16 117.265625 
L 92.16 117.265625 
" style="fill: none; stroke: #ff0000; stroke-width: 3; stroke-linecap: square"/>
    </g>
    <g id="text_10">
     <!-- -8: 1/1 -->
     <g transform="translate(108.16 124.265625) scale(0.2 -0.2)">
      <defs>
       <path id="DejaVuSans-38" d="M 2034 2216 
Q 1584 2216 1326 1975 
Q 1069 1734 1069 1313 
Q 1069 891 1326 650 
Q 1584 409 2034 409 
Q 2484 409 2743 651 
Q 3003 894 3003 1313 
Q 3003 1734 2745 1975 
Q 2488 2216 2034 2216 
z
M 1403 2484 
Q 997 2584 770 2862 
Q 544 3141 544 3541 
Q 544 4100 942 4425 
Q 1341 4750 2034 4750 
Q 2731 4750 3128 4425 
Q 3525 4100 3525 3541 
Q 3525 3141 3298 2862 
Q 3072 2584 2669 2484 
Q 3125 2378 3379 2068 
Q 3634 1759 3634 1313 
Q 3634 634 3220 271 
Q 2806 -91 2034 -91 
Q 1263 -91 848 271 
Q 434 634 434 1313 
Q 434 1759 690 2068 
Q 947 2378 1403 2484 
z
M 1172 3481 
Q 1172 3119 1398 2916 
Q 1625 2713 2034 2713 
Q 2441 2713 2670 2916 
Q 2900 3119 2900 3481 
Q 2900 3844 2670 4047 
Q 2441 4250 2034 4250 
Q 1625 4250 1398 4047 
Q 1172 3844 1172 3481 
z
" transform="scale(0.015625)"/>
      </defs>
      <use xlink:href="#DejaVuSans-2d"/>
      <use xlink:href="#DejaVuSans-38" x="36.083984"/>
      <use xlink:href="#DejaVuSans-3a" x="99.707031"/>
      <use xlink:href="#DejaVuSans-20" x="133.398438"/>
      <use xlink:href="#DejaVuSans-31" x="165.185547"/>
      <use xlink:href="#DejaVuSans-2f" x="228.808594"/>
      <use xlink:href="#DejaVuSans-31" x="262.5"/>
     </g>
    </g>
   </g>
  </g>
 </g>
 <defs>
  <clipPath id="p5f37392887">
   <rect x="34.16" y="3" width="419.032" height="288.28"/>
  </clipPath>
 </defs>
</svg>
