<?xml version="1.0" encoding="utf-8" standalone="no"?>
<!DOCTYPE svg PUBLIC "-//W3C//DTD SVG 1.1//EN"
  "http://www.w3.org/Graphics/SVG/1.1/DTD/svg11.dtd">
<svg xmlns:xlink="http://www.w3.org/1999/xlink" width="460.8pt" height="345.6pt" viewBox="0 0 460.8 345.6" xmlns="http://www.w3.org/2000/svg" version="1.1">
 <metadata>
  <rdf:RDF xmlns:dc="http://purl.org/dc/elements/1.1/" xmlns:cc="http://creativecommons.org/ns#" xmlns:rdf="http://www.w3.org/1999/02/22-rdf-syntax-ns#">
   <cc:Work>
    <dc:type rdf:resource="http://purl.org/dc/dcmitype/StillImage"/>
    <dc:date>2024-06-07T14:23:14.716750</dc:date>
    <dc:format>image/svg+xml</dc:format>
    <dc:creator>
     <cc:Agent>
      <dc:title>Matplotlib v3.7.1, https://matplotlib.org/</dc:title>
     </cc:Agent>
    </dc:creator>
   </cc:Work>
  </rdf:RDF>
 </metadata>
 <defs>
  <style type="text/css">*{stroke-linejoin: round; stroke-linecap: butt}</style>
 </defs>
 <g id="figure_1">
  <g id="patch_1">
   <path d="M 0 345.6 
L 460.8 345.6 
L 460.8 0 
L 0 0 
z
" style="fill: #ffffff"/>
  </g>
  <g id="axes_1">
   <g id="patch_2">
    <path d="M 34.16 291.28 
L 453.192 291.28 
L 453.192 3 
L 34.16 3 
z
" style="fill: #ffffff"/>
   </g>
   <g id="matplotlib.axis_1">
    <g id="xtick_1">
     <g id="line2d_1">
      <path d="M 134.217538 291.28 
L 134.217538 3 
" clip-path="url(#p82e2af2f96)" style="fill: none; stroke: #b0b0b0; stroke-width: 0.8; stroke-linecap: square"/>
     </g>
     <g id="line2d_2">
      <defs>
       <path id="m6b8ac42dc8" d="M 0 0 
L 0 3.5 
" style="stroke: #000000; stroke-width: 0.8"/>
      </defs>
      <g>
       <use xlink:href="#m6b8ac42dc8" x="134.217538" y="291.28" style="stroke: #000000; stroke-width: 0.8"/>
      </g>
     </g>
     <g id="text_1">
      <!-- -2 -->
      <g transform="translate(124.247225 313.476875) scale(0.2 -0.2)">
       <defs>
        <path id="DejaVuSans-2d" d="M 313 2009 
L 1997 2009 
L 1997 1497 
L 313 1497 
L 313 2009 
z
" transform="scale(0.015625)"/>
        <path id="DejaVuSans-32" d="M 1228 531 
L 3431 531 
L 3431 0 
L 469 0 
L 469 531 
Q 828 903 1448 1529 
Q 2069 2156 2228 2338 
Q 2531 2678 2651 2914 
Q 2772 3150 2772 3378 
Q 2772 3750 2511 3984 
Q 2250 4219 1831 4219 
Q 1534 4219 1204 4116 
Q 875 4013 500 3803 
L 500 4441 
Q 881 4594 1212 4672 
Q 1544 4750 1819 4750 
Q 2544 4750 2975 4387 
Q 3406 4025 3406 3419 
Q 3406 3131 3298 2873 
Q 3191 2616 2906 2266 
Q 2828 2175 2409 1742 
Q 1991 1309 1228 531 
z
" transform="scale(0.015625)"/>
       </defs>
       <use xlink:href="#DejaVuSans-2d"/>
       <use xlink:href="#DejaVuSans-32" x="36.083984"/>
      </g>
     </g>
    </g>
    <g id="xtick_2">
     <g id="line2d_3">
      <path d="M 243.676 291.28 
L 243.676 3 
" clip-path="url(#p82e2af2f96)" style="fill: none; stroke: #b0b0b0; stroke-width: 0.8; stroke-linecap: square"/>
     </g>
     <g id="line2d_4">
      <g>
       <use xlink:href="#m6b8ac42dc8" x="243.676" y="291.28" style="stroke: #000000; stroke-width: 0.8"/>
      </g>
     </g>
     <g id="text_2">
      <!-- 0 -->
      <g transform="translate(237.3135 313.476875) scale(0.2 -0.2)">
       <defs>
        <path id="DejaVuSans-30" d="M 2034 4250 
Q 1547 4250 1301 3770 
Q 1056 3291 1056 2328 
Q 1056 1369 1301 889 
Q 1547 409 2034 409 
Q 2525 409 2770 889 
Q 3016 1369 3016 2328 
Q 3016 3291 2770 3770 
Q 2525 4250 2034 4250 
z
M 2034 4750 
Q 2819 4750 3233 4129 
Q 3647 3509 3647 2328 
Q 3647 1150 3233 529 
Q 2819 -91 2034 -91 
Q 1250 -91 836 529 
Q 422 1150 422 2328 
Q 422 3509 836 4129 
Q 1250 4750 2034 4750 
z
" transform="scale(0.015625)"/>
       </defs>
       <use xlink:href="#DejaVuSans-30"/>
      </g>
     </g>
    </g>
    <g id="xtick_3">
     <g id="line2d_5">
      <path d="M 353.134462 291.28 
L 353.134462 3 
" clip-path="url(#p82e2af2f96)" style="fill: none; stroke: #b0b0b0; stroke-width: 0.8; stroke-linecap: square"/>
     </g>
     <g id="line2d_6">
      <g>
       <use xlink:href="#m6b8ac42dc8" x="353.134462" y="291.28" style="stroke: #000000; stroke-width: 0.8"/>
      </g>
     </g>
     <g id="text_3">
      <!-- 2 -->
      <g transform="translate(346.771962 313.476875) scale(0.2 -0.2)">
       <use xlink:href="#DejaVuSans-32"/>
      </g>
     </g>
    </g>
    <g id="text_4">
     <!-- log10 of FEvals ratio -->
     <g transform="translate(141.371312 336.833125) scale(0.2 -0.2)">
      <defs>
       <path id="DejaVuSans-6c" d="M 603 4863 
L 1178 4863 
L 1178 0 
L 603 0 
L 603 4863 
z
" transform="scale(0.015625)"/>
       <path id="DejaVuSans-6f" d="M 1959 3097 
Q 1497 3097 1228 2736 
Q 959 2375 959 1747 
Q 959 1119 1226 758 
Q 1494 397 1959 397 
Q 2419 397 2687 759 
Q 2956 1122 2956 1747 
Q 2956 2369 2687 2733 
Q 2419 3097 1959 3097 
z
M 1959 3584 
Q 2709 3584 3137 3096 
Q 3566 2609 3566 1747 
Q 3566 888 3137 398 
Q 2709 -91 1959 -91 
Q 1206 -91 779 398 
Q 353 888 353 1747 
Q 353 2609 779 3096 
Q 1206 3584 1959 3584 
z
" transform="scale(0.015625)"/>
       <path id="DejaVuSans-67" d="M 2906 1791 
Q 2906 2416 2648 2759 
Q 2391 3103 1925 3103 
Q 1463 3103 1205 2759 
Q 947 2416 947 1791 
Q 947 1169 1205 825 
Q 1463 481 1925 481 
Q 2391 481 2648 825 
Q 2906 1169 2906 1791 
z
M 3481 434 
Q 3481 -459 3084 -895 
Q 2688 -1331 1869 -1331 
Q 1566 -1331 1297 -1286 
Q 1028 -1241 775 -1147 
L 775 -588 
Q 1028 -725 1275 -790 
Q 1522 -856 1778 -856 
Q 2344 -856 2625 -561 
Q 2906 -266 2906 331 
L 2906 616 
Q 2728 306 2450 153 
Q 2172 0 1784 0 
Q 1141 0 747 490 
Q 353 981 353 1791 
Q 353 2603 747 3093 
Q 1141 3584 1784 3584 
Q 2172 3584 2450 3431 
Q 2728 3278 2906 2969 
L 2906 3500 
L 3481 3500 
L 3481 434 
z
" transform="scale(0.015625)"/>
       <path id="DejaVuSans-31" d="M 794 531 
L 1825 531 
L 1825 4091 
L 703 3866 
L 703 4441 
L 1819 4666 
L 2450 4666 
L 2450 531 
L 3481 531 
L 3481 0 
L 794 0 
L 794 531 
z
" transform="scale(0.015625)"/>
       <path id="DejaVuSans-20" transform="scale(0.015625)"/>
       <path id="DejaVuSans-66" d="M 2375 4863 
L 2375 4384 
L 1825 4384 
Q 1516 4384 1395 4259 
Q 1275 4134 1275 3809 
L 1275 3500 
L 2222 3500 
L 2222 3053 
L 1275 3053 
L 1275 0 
L 697 0 
L 697 3053 
L 147 3053 
L 147 3500 
L 697 3500 
L 697 3744 
Q 697 4328 969 4595 
Q 1241 4863 1831 4863 
L 2375 4863 
z
" transform="scale(0.015625)"/>
       <path id="DejaVuSans-46" d="M 628 4666 
L 3309 4666 
L 3309 4134 
L 1259 4134 
L 1259 2759 
L 3109 2759 
L 3109 2228 
L 1259 2228 
L 1259 0 
L 628 0 
L 628 4666 
z
" transform="scale(0.015625)"/>
       <path id="DejaVuSans-45" d="M 628 4666 
L 3578 4666 
L 3578 4134 
L 1259 4134 
L 1259 2753 
L 3481 2753 
L 3481 2222 
L 1259 2222 
L 1259 531 
L 3634 531 
L 3634 0 
L 628 0 
L 628 4666 
z
" transform="scale(0.015625)"/>
       <path id="DejaVuSans-76" d="M 191 3500 
L 800 3500 
L 1894 563 
L 2988 3500 
L 3597 3500 
L 2284 0 
L 1503 0 
L 191 3500 
z
" transform="scale(0.015625)"/>
       <path id="DejaVuSans-61" d="M 2194 1759 
Q 1497 1759 1228 1600 
Q 959 1441 959 1056 
Q 959 750 1161 570 
Q 1363 391 1709 391 
Q 2188 391 2477 730 
Q 2766 1069 2766 1631 
L 2766 1759 
L 2194 1759 
z
M 3341 1997 
L 3341 0 
L 2766 0 
L 2766 531 
Q 2569 213 2275 61 
Q 1981 -91 1556 -91 
Q 1019 -91 701 211 
Q 384 513 384 1019 
Q 384 1609 779 1909 
Q 1175 2209 1959 2209 
L 2766 2209 
L 2766 2266 
Q 2766 2663 2505 2880 
Q 2244 3097 1772 3097 
Q 1472 3097 1187 3025 
Q 903 2953 641 2809 
L 641 3341 
Q 956 3463 1253 3523 
Q 1550 3584 1831 3584 
Q 2591 3584 2966 3190 
Q 3341 2797 3341 1997 
z
" transform="scale(0.015625)"/>
       <path id="DejaVuSans-73" d="M 2834 3397 
L 2834 2853 
Q 2591 2978 2328 3040 
Q 2066 3103 1784 3103 
Q 1356 3103 1142 2972 
Q 928 2841 928 2578 
Q 928 2378 1081 2264 
Q 1234 2150 1697 2047 
L 1894 2003 
Q 2506 1872 2764 1633 
Q 3022 1394 3022 966 
Q 3022 478 2636 193 
Q 2250 -91 1575 -91 
Q 1294 -91 989 -36 
Q 684 19 347 128 
L 347 722 
Q 666 556 975 473 
Q 1284 391 1588 391 
Q 1994 391 2212 530 
Q 2431 669 2431 922 
Q 2431 1156 2273 1281 
Q 2116 1406 1581 1522 
L 1381 1569 
Q 847 1681 609 1914 
Q 372 2147 372 2553 
Q 372 3047 722 3315 
Q 1072 3584 1716 3584 
Q 2034 3584 2315 3537 
Q 2597 3491 2834 3397 
z
" transform="scale(0.015625)"/>
       <path id="DejaVuSans-72" d="M 2631 2963 
Q 2534 3019 2420 3045 
Q 2306 3072 2169 3072 
Q 1681 3072 1420 2755 
Q 1159 2438 1159 1844 
L 1159 0 
L 581 0 
L 581 3500 
L 1159 3500 
L 1159 2956 
Q 1341 3275 1631 3429 
Q 1922 3584 2338 3584 
Q 2397 3584 2469 3576 
Q 2541 3569 2628 3553 
L 2631 2963 
z
" transform="scale(0.015625)"/>
       <path id="DejaVuSans-74" d="M 1172 4494 
L 1172 3500 
L 2356 3500 
L 2356 3053 
L 1172 3053 
L 1172 1153 
Q 1172 725 1289 603 
Q 1406 481 1766 481 
L 2356 481 
L 2356 0 
L 1766 0 
Q 1100 0 847 248 
Q 594 497 594 1153 
L 594 3053 
L 172 3053 
L 172 3500 
L 594 3500 
L 594 4494 
L 1172 4494 
z
" transform="scale(0.015625)"/>
       <path id="DejaVuSans-69" d="M 603 3500 
L 1178 3500 
L 1178 0 
L 603 0 
L 603 3500 
z
M 603 4863 
L 1178 4863 
L 1178 4134 
L 603 4134 
L 603 4863 
z
" transform="scale(0.015625)"/>
      </defs>
      <use xlink:href="#DejaVuSans-6c"/>
      <use xlink:href="#DejaVuSans-6f" x="27.783203"/>
      <use xlink:href="#DejaVuSans-67" x="88.964844"/>
      <use xlink:href="#DejaVuSans-31" x="152.441406"/>
      <use xlink:href="#DejaVuSans-30" x="216.064453"/>
      <use xlink:href="#DejaVuSans-20" x="279.6875"/>
      <use xlink:href="#DejaVuSans-6f" x="311.474609"/>
      <use xlink:href="#DejaVuSans-66" x="372.65625"/>
      <use xlink:href="#DejaVuSans-20" x="407.861328"/>
      <use xlink:href="#DejaVuSans-46" x="439.648438"/>
      <use xlink:href="#DejaVuSans-45" x="497.167969"/>
      <use xlink:href="#DejaVuSans-76" x="560.351562"/>
      <use xlink:href="#DejaVuSans-61" x="619.53125"/>
      <use xlink:href="#DejaVuSans-6c" x="680.810547"/>
      <use xlink:href="#DejaVuSans-73" x="708.59375"/>
      <use xlink:href="#DejaVuSans-20" x="760.693359"/>
      <use xlink:href="#DejaVuSans-72" x="792.480469"/>
      <use xlink:href="#DejaVuSans-61" x="833.59375"/>
      <use xlink:href="#DejaVuSans-74" x="894.873047"/>
      <use xlink:href="#DejaVuSans-69" x="934.082031"/>
      <use xlink:href="#DejaVuSans-6f" x="961.865234"/>
     </g>
    </g>
   </g>
   <g id="matplotlib.axis_2">
    <g id="ytick_1">
     <g id="line2d_7">
      <path d="M 34.16 288.453725 
L 453.192 288.453725 
" clip-path="url(#p82e2af2f96)" style="fill: none; stroke: #b0b0b0; stroke-width: 0.8; stroke-linecap: square"/>
     </g>
     <g id="line2d_8">
      <defs>
       <path id="m221604a28e" d="M 0 0 
L -3.5 0 
" style="stroke: #000000; stroke-width: 0.8"/>
      </defs>
      <g>
       <use xlink:href="#m221604a28e" x="34.16" y="288.453725" style="stroke: #000000; stroke-width: 0.8"/>
      </g>
     </g>
    </g>
    <g id="ytick_2">
     <g id="line2d_9">
      <path d="M 34.16 217.796863 
L 453.192 217.796863 
" clip-path="url(#p82e2af2f96)" style="fill: none; stroke: #b0b0b0; stroke-width: 0.8; stroke-linecap: square"/>
     </g>
     <g id="line2d_10">
      <g>
       <use xlink:href="#m221604a28e" x="34.16" y="217.796863" style="stroke: #000000; stroke-width: 0.8"/>
      </g>
     </g>
    </g>
    <g id="ytick_3">
     <g id="line2d_11">
      <path d="M 34.16 147.14 
L 453.192 147.14 
" clip-path="url(#p82e2af2f96)" style="fill: none; stroke: #b0b0b0; stroke-width: 0.8; stroke-linecap: square"/>
     </g>
     <g id="line2d_12">
      <g>
       <use xlink:href="#m221604a28e" x="34.16" y="147.14" style="stroke: #000000; stroke-width: 0.8"/>
      </g>
     </g>
    </g>
    <g id="ytick_4">
     <g id="line2d_13">
      <path d="M 34.16 76.483137 
L 453.192 76.483137 
" clip-path="url(#p82e2af2f96)" style="fill: none; stroke: #b0b0b0; stroke-width: 0.8; stroke-linecap: square"/>
     </g>
     <g id="line2d_14">
      <g>
       <use xlink:href="#m221604a28e" x="34.16" y="76.483137" style="stroke: #000000; stroke-width: 0.8"/>
      </g>
     </g>
    </g>
    <g id="ytick_5">
     <g id="line2d_15">
      <path d="M 34.16 5.826275 
L 453.192 5.826275 
" clip-path="url(#p82e2af2f96)" style="fill: none; stroke: #b0b0b0; stroke-width: 0.8; stroke-linecap: square"/>
     </g>
     <g id="line2d_16">
      <g>
       <use xlink:href="#m221604a28e" x="34.16" y="5.826275" style="stroke: #000000; stroke-width: 0.8"/>
      </g>
     </g>
    </g>
    <g id="text_5">
     <!-- proportion of trials -->
     <g transform="translate(19.000625 240.14625) rotate(-90) scale(0.2 -0.2)">
      <defs>
       <path id="DejaVuSans-70" d="M 1159 525 
L 1159 -1331 
L 581 -1331 
L 581 3500 
L 1159 3500 
L 1159 2969 
Q 1341 3281 1617 3432 
Q 1894 3584 2278 3584 
Q 2916 3584 3314 3078 
Q 3713 2572 3713 1747 
Q 3713 922 3314 415 
Q 2916 -91 2278 -91 
Q 1894 -91 1617 61 
Q 1341 213 1159 525 
z
M 3116 1747 
Q 3116 2381 2855 2742 
Q 2594 3103 2138 3103 
Q 1681 3103 1420 2742 
Q 1159 2381 1159 1747 
Q 1159 1113 1420 752 
Q 1681 391 2138 391 
Q 2594 391 2855 752 
Q 3116 1113 3116 1747 
z
" transform="scale(0.015625)"/>
       <path id="DejaVuSans-6e" d="M 3513 2113 
L 3513 0 
L 2938 0 
L 2938 2094 
Q 2938 2591 2744 2837 
Q 2550 3084 2163 3084 
Q 1697 3084 1428 2787 
Q 1159 2491 1159 1978 
L 1159 0 
L 581 0 
L 581 3500 
L 1159 3500 
L 1159 2956 
Q 1366 3272 1645 3428 
Q 1925 3584 2291 3584 
Q 2894 3584 3203 3211 
Q 3513 2838 3513 2113 
z
" transform="scale(0.015625)"/>
      </defs>
      <use xlink:href="#DejaVuSans-70"/>
      <use xlink:href="#DejaVuSans-72" x="63.476562"/>
      <use xlink:href="#DejaVuSans-6f" x="102.339844"/>
      <use xlink:href="#DejaVuSans-70" x="163.521484"/>
      <use xlink:href="#DejaVuSans-6f" x="226.998047"/>
      <use xlink:href="#DejaVuSans-72" x="288.179688"/>
      <use xlink:href="#DejaVuSans-74" x="329.292969"/>
      <use xlink:href="#DejaVuSans-69" x="368.501953"/>
      <use xlink:href="#DejaVuSans-6f" x="396.285156"/>
      <use xlink:href="#DejaVuSans-6e" x="457.466797"/>
      <use xlink:href="#DejaVuSans-20" x="520.845703"/>
      <use xlink:href="#DejaVuSans-6f" x="552.632812"/>
      <use xlink:href="#DejaVuSans-66" x="613.814453"/>
      <use xlink:href="#DejaVuSans-20" x="649.019531"/>
      <use xlink:href="#DejaVuSans-74" x="680.806641"/>
      <use xlink:href="#DejaVuSans-72" x="720.015625"/>
      <use xlink:href="#DejaVuSans-69" x="761.128906"/>
      <use xlink:href="#DejaVuSans-61" x="788.912109"/>
      <use xlink:href="#DejaVuSans-6c" x="850.191406"/>
      <use xlink:href="#DejaVuSans-73" x="877.974609"/>
     </g>
    </g>
   </g>
   <g id="line2d_17">
    <path d="M 34.16 233.306906 
L 50.687351 233.306906 
L 50.687351 233.031172 
L 64.084349 233.031172 
L 64.084349 232.755438 
L 70.826438 232.755438 
L 70.826438 232.479703 
L 76.126435 232.479703 
L 76.137443 231.928235 
L 77.101755 231.928235 
L 77.101755 231.652501 
L 77.462389 231.652501 
L 77.462389 231.376767 
L 78.822686 231.376767 
L 78.822686 231.101033 
L 84.223435 231.101033 
L 84.223435 230.825299 
L 85.190824 230.825299 
L 85.190824 230.549565 
L 85.551458 230.549565 
L 85.551458 230.273831 
L 86.959578 230.273831 
L 86.959578 229.998097 
L 92.980107 229.998097 
L 92.980107 229.722363 
L 94.808961 229.722363 
L 94.808961 229.446628 
L 96.265522 229.446628 
L 96.276529 228.89516 
L 96.730667 228.89516 
L 96.730667 228.619426 
L 97.091301 228.619426 
L 97.091301 228.343692 
L 97.958582 228.343692 
L 97.958582 228.067958 
L 98.961773 228.067958 
L 98.961773 227.792224 
L 100.356575 227.792224 
L 100.356575 227.51649 
L 103.261854 227.51649 
L 103.261854 227.240756 
L 104.193403 227.240756 
L 104.193403 226.965022 
L 106.047651 226.965022 
L 106.047651 226.689287 
L 108.205959 226.689287 
L 108.205959 226.413553 
L 111.683767 226.413553 
L 111.683767 226.137819 
L 112.398662 226.137819 
L 112.409669 225.586351 
L 113.064747 225.586351 
L 113.119193 225.034883 
L 113.186605 225.034883 
L 113.186605 224.759149 
L 113.300603 224.759149 
L 113.300603 224.483415 
L 113.425381 224.483415 
L 113.425381 224.207681 
L 115.053921 224.207681 
L 115.094913 223.656212 
L 116.658852 223.656212 
L 116.658852 223.380478 
L 117.587493 223.380478 
L 117.587493 223.104744 
L 120.248046 223.104744 
L 120.259053 222.553276 
L 122.944296 222.553276 
L 122.944296 222.277542 
L 124.33249 222.277542 
L 124.33249 222.001808 
L 126.583602 222.001808 
L 126.583602 221.726074 
L 126.697601 221.726074 
L 126.697601 221.45034 
L 128.450919 221.45034 
L 128.450919 221.174605 
L 128.700939 221.174605 
L 128.711946 220.623137 
L 129.252333 220.623137 
L 129.252333 220.347403 
L 131.39719 220.347403 
L 131.39719 220.071669 
L 131.822853 220.071669 
L 131.822853 219.795935 
L 133.921573 219.795935 
L 133.921573 219.520201 
L 137.101717 219.520201 
L 137.101717 219.244467 
L 138.625689 219.244467 
L 138.636696 218.692999 
L 138.739687 218.692999 
L 138.750695 218.14153 
L 140.46563 218.14153 
L 140.504013 217.314328 
L 141.32194 217.314328 
L 141.32194 217.038594 
L 141.435938 217.038594 
L 141.435938 216.76286 
L 143.189256 216.76286 
L 143.189256 216.487126 
L 144.030577 216.487126 
L 144.030577 216.211392 
L 145.55461 216.211392 
L 145.55461 215.935658 
L 147.955993 215.935658 
L 147.955993 215.659923 
L 148.315013 215.659923 
L 148.315013 215.384189 
L 152.119646 215.384189 
L 152.119646 215.108455 
L 155.47936 215.108455 
L 155.47936 214.832721 
L 155.593358 214.832721 
L 155.593358 214.556987 
L 155.805377 214.556987 
L 155.805377 214.281253 
L 156.767906 214.281253 
L 156.767906 214.005519 
L 157.346677 214.005519 
L 157.346677 213.729785 
L 161.649477 213.729785 
L 161.649477 213.454051 
L 162.83429 213.454051 
L 162.83429 213.178317 
L 163.099863 213.178317 
L 163.099863 212.902582 
L 163.659489 212.902582 
L 163.659489 212.626848 
L 164.25827 212.626848 
L 164.25827 212.351114 
L 166.692657 212.351114 
L 166.692657 212.07538 
L 166.806655 212.07538 
L 166.806655 211.799646 
L 167.358732 211.799646 
L 167.358732 211.523912 
L 168.559973 211.523912 
L 168.559973 211.248178 
L 170.062622 211.248178 
L 170.062622 210.972444 
L 173.277421 210.972444 
L 173.277421 210.69671 
L 174.183021 210.69671 
L 174.183021 210.420976 
L 174.297019 210.420976 
L 174.297019 210.145242 
L 175.15262 210.145242 
L 175.15262 209.869507 
L 176.050337 209.869507 
L 176.050337 209.593773 
L 177.545556 209.593773 
L 177.545556 209.318039 
L 179.696707 209.318039 
L 179.696707 209.042305 
L 179.993569 209.042305 
L 179.993569 208.766571 
L 180.182815 208.766571 
L 180.279712 208.215103 
L 181.062748 208.215103 
L 181.062748 207.939369 
L 181.348776 207.939369 
L 181.348776 207.663635 
L 181.764846 207.663635 
L 181.834183 206.836432 
L 182.973376 206.836432 
L 183.049948 206.284964 
L 183.141228 206.284964 
L 183.23895 205.733496 
L 183.905578 205.733496 
L 183.905578 205.457762 
L 184.266212 205.457762 
L 184.350601 204.906294 
L 184.873627 204.906294 
L 184.938843 204.354825 
L 185.889714 204.354825 
L 185.971816 203.527623 
L 186.971244 203.527623 
L 186.971244 203.251889 
L 187.497818 203.251889 
L 187.497818 202.976155 
L 188.039955 202.976155 
L 188.039955 202.700421 
L 188.836474 202.700421 
L 188.946769 202.148953 
L 189.325057 202.148953 
L 189.426959 201.32175 
L 189.61951 201.32175 
L 189.61951 201.046016 
L 189.905538 201.046016 
L 189.905538 200.770282 
L 190.058296 200.770282 
L 190.14544 200.218814 
L 190.201708 200.218814 
L 190.201708 199.94308 
L 190.757018 199.94308 
L 190.757018 199.667346 
L 190.942553 199.667346 
L 191.014908 199.115878 
L 191.451041 199.115878 
L 191.531205 198.564409 
L 191.69799 198.564409 
L 191.69799 198.288675 
L 191.941133 198.288675 
L 191.941133 198.012941 
L 192.724169 198.012941 
L 192.724169 197.737207 
L 192.892004 197.737207 
L 192.907363 196.910005 
L 193.010197 196.910005 
L 193.010197 196.634271 
L 193.416508 196.634271 
L 193.51918 196.082802 
L 193.579813 196.082802 
L 193.67504 194.979866 
L 193.961068 194.979866 
L 193.961068 194.428398 
L 194.160717 194.428398 
L 194.160717 194.152664 
L 194.340783 194.152664 
L 194.340783 193.87693 
L 194.685825 193.87693 
L 194.75099 193.325462 
L 194.802649 193.325462 
L 194.884446 192.498259 
L 195.291707 192.498259 
L 195.300182 191.946791 
L 195.528006 191.946791 
L 195.574227 191.395323 
L 195.681898 191.395323 
L 195.75352 190.568121 
L 195.949059 190.568121 
L 196.012022 189.740918 
L 196.228856 189.740918 
L 196.228856 189.465184 
L 196.35537 189.465184 
L 196.408922 188.913716 
L 196.590362 188.913716 
L 196.684693 188.362248 
L 196.732096 188.362248 
L 196.732096 188.086514 
L 196.962893 188.086514 
L 197.018123 187.259311 
L 197.133985 187.259311 
L 197.14773 186.432109 
L 197.424434 186.432109 
L 197.513958 185.880641 
L 197.694024 185.880641 
L 197.694024 185.604907 
L 197.921703 185.604907 
L 197.983721 184.777704 
L 198.216794 184.777704 
L 198.304639 184.226236 
L 198.632665 184.226236 
L 198.632665 183.950502 
L 198.810576 183.950502 
L 198.810576 183.674768 
L 199.106516 183.674768 
L 199.216886 183.1233 
L 199.241346 183.1233 
L 199.31378 182.571832 
L 199.37209 182.571832 
L 199.37209 182.296098 
L 199.57167 182.296098 
L 199.583536 181.468895 
L 199.803278 181.468895 
L 199.803278 181.193161 
L 200.009246 181.193161 
L 200.019949 180.641693 
L 200.418798 180.641693 
L 200.42626 180.090225 
L 200.565973 180.090225 
L 200.565973 179.814491 
L 200.744258 179.814491 
L 200.744258 179.538757 
L 200.960935 179.538757 
L 200.960935 179.263022 
L 201.08838 179.263022 
L 201.08838 178.987288 
L 201.201835 178.987288 
L 201.309485 178.160086 
L 201.487862 178.160086 
L 201.487862 177.884352 
L 201.869363 177.884352 
L 201.871417 177.332884 
L 202.039251 177.332884 
L 202.039251 176.781416 
L 202.418439 176.781416 
L 202.418439 176.505681 
L 202.594588 176.505681 
L 202.684188 175.402745 
L 202.98464 175.402745 
L 203.046902 174.575543 
L 203.156519 174.575543 
L 203.156519 174.299809 
L 203.279143 174.299809 
L 203.36931 172.921138 
L 203.467224 172.921138 
L 203.467224 172.645404 
L 203.592653 172.645404 
L 203.630958 171.542468 
L 203.753252 171.542468 
L 203.839262 170.991 
L 203.931402 170.991 
L 203.931402 170.715265 
L 204.130989 170.715265 
L 204.159563 170.163797 
L 204.375689 170.163797 
L 204.434347 169.612329 
L 204.489688 169.612329 
L 204.577377 169.060861 
L 204.661717 169.060861 
L 204.762405 168.509393 
L 204.796383 168.509393 
L 204.796383 168.233659 
L 205.096307 168.233659 
L 205.096307 167.957924 
L 205.502618 167.957924 
L 205.545704 167.406456 
L 205.6219 167.406456 
L 205.680891 166.579254 
L 205.771087 166.579254 
L 205.771087 166.30352 
L 206.294978 166.30352 
L 206.334848 165.752052 
L 206.412411 165.752052 
L 206.520324 164.097647 
L 206.684255 164.097647 
L 206.755077 163.270445 
L 206.814611 163.270445 
L 206.832677 162.718977 
L 206.9559 162.718977 
L 207.019367 162.167508 
L 207.090566 162.167508 
L 207.11033 161.61604 
L 207.221473 161.61604 
L 207.235648 161.064572 
L 207.363282 161.064572 
L 207.363282 160.513104 
L 207.625037 160.513104 
L 207.687299 159.685901 
L 207.787589 159.685901 
L 207.882926 159.134433 
L 208.186519 159.134433 
L 208.186519 158.582965 
L 208.31815 158.582965 
L 208.31815 158.307231 
L 208.69718 158.307231 
L 208.69718 158.031497 
L 208.823216 158.031497 
L 208.823216 157.755763 
L 209.149836 157.755763 
L 209.149836 157.480029 
L 209.329902 157.480029 
L 209.37699 156.652826 
L 209.566046 156.652826 
L 209.566046 156.377092 
L 209.755438 156.377092 
L 209.779828 155.825624 
L 210.281434 155.825624 
L 210.284185 155.274156 
L 210.406673 155.274156 
L 210.420337 154.722688 
L 210.530983 154.722688 
L 210.578848 154.17122 
L 210.826648 154.17122 
L 210.896105 153.068283 
L 211.04054 153.068283 
L 211.06447 152.241081 
L 211.153994 152.241081 
L 211.243575 151.138144 
L 211.350498 151.138144 
L 211.424847 150.586676 
L 211.480342 150.586676 
L 211.480342 150.310942 
L 211.619008 150.310942 
L 211.701637 149.48374 
L 211.831435 149.48374 
L 211.831435 149.208006 
L 211.94489 149.208006 
L 211.94489 148.932272 
L 212.176457 148.932272 
L 212.230917 148.380803 
L 212.442246 148.380803 
L 212.498593 147.553601 
L 212.578757 147.553601 
L 212.578757 147.277867 
L 212.7399 147.277867 
L 212.7399 147.002133 
L 213.14295 147.002133 
L 213.161494 146.450665 
L 213.353146 146.450665 
L 213.419384 145.899197 
L 213.816901 145.899197 
L 213.816901 145.623462 
L 214.023369 145.623462 
L 214.069959 145.071994 
L 214.184232 145.071994 
L 214.230465 144.244792 
L 214.327849 144.244792 
L 214.352323 143.693324 
L 214.599937 143.693324 
L 214.630974 143.141856 
L 214.792397 143.141856 
L 214.890076 142.314653 
L 215.059248 142.314653 
L 215.059248 142.038919 
L 215.208268 142.038919 
L 215.281386 141.211717 
L 215.388334 141.211717 
L 215.408793 140.660249 
L 215.674367 140.660249 
L 215.742469 139.833046 
L 215.854521 139.833046 
L 215.854521 139.557312 
L 216.054938 139.557312 
L 216.054938 139.281578 
L 216.331711 139.281578 
L 216.411875 138.73011 
L 216.457805 138.73011 
L 216.457805 138.454376 
L 216.678417 138.454376 
L 216.699113 137.902908 
L 216.853957 137.902908 
L 216.853957 137.627174 
L 216.972966 137.627174 
L 216.972966 137.35144 
L 217.127387 137.35144 
L 217.155466 136.799971 
L 217.408676 136.799971 
L 217.436075 135.972769 
L 217.619797 135.972769 
L 217.619797 135.697035 
L 217.853385 135.697035 
L 217.88779 135.145567 
L 217.978703 135.145567 
L 218.063931 134.04263 
L 218.386046 134.04263 
L 218.495742 133.215428 
L 218.543808 133.215428 
L 218.543808 132.939694 
L 218.741346 132.939694 
L 218.836649 132.388226 
L 218.887168 132.388226 
L 218.887168 132.112492 
L 219.041387 132.112492 
L 219.122676 131.561023 
L 219.221453 131.561023 
L 219.27423 131.009555 
L 219.336917 131.009555 
L 219.428681 129.906619 
L 219.838311 129.906619 
L 219.933235 129.355151 
L 220.288898 129.355151 
L 220.309101 128.803682 
L 220.465731 128.803682 
L 220.508433 128.252214 
L 220.611947 128.252214 
L 220.705059 127.700746 
L 220.739267 127.700746 
L 220.75874 126.873544 
L 220.850829 126.873544 
L 220.915129 126.046341 
L 221.01663 126.046341 
L 221.039191 125.494873 
L 221.419077 125.494873 
L 221.430084 124.943405 
L 221.534163 124.943405 
L 221.63916 124.116203 
L 221.664402 124.116203 
L 221.664402 123.840469 
L 221.799236 123.840469 
L 221.897049 123.013266 
L 222.124502 123.013266 
L 222.124502 122.737532 
L 222.333183 122.737532 
L 222.413347 121.91033 
L 222.475571 121.91033 
L 222.584076 121.083128 
L 222.637125 121.083128 
L 222.676418 120.531659 
L 222.800283 120.531659 
L 222.804466 119.980191 
L 222.9153 119.980191 
L 222.995464 119.152989 
L 223.316949 119.152989 
L 223.316949 118.877255 
L 223.435517 118.877255 
L 223.435517 118.601521 
L 223.592643 118.601521 
L 223.677583 118.050053 
L 223.743723 118.050053 
L 223.812335 117.22285 
L 224.087105 117.22285 
L 224.14873 115.84418 
L 224.220571 115.84418 
L 224.300735 114.465509 
L 224.423905 114.465509 
L 224.466197 113.914041 
L 224.552097 113.914041 
L 224.552097 113.638307 
L 224.683948 113.638307 
L 224.752712 112.811105 
L 224.93547 112.811105 
L 225.042858 112.259637 
L 225.222924 112.259637 
L 225.333543 111.432434 
L 225.447541 111.432434 
L 225.481899 110.880966 
L 225.575949 110.880966 
L 225.633131 109.77803 
L 225.713115 109.77803 
L 225.805042 109.226561 
L 226.003942 109.226561 
L 226.092863 108.399359 
L 226.364576 108.399359 
L 226.456368 107.572157 
L 226.863711 107.572157 
L 226.930247 107.020689 
L 227.110313 107.020689 
L 227.20086 105.642018 
L 227.466434 105.642018 
L 227.563746 105.09055 
L 227.727123 105.09055 
L 227.727123 104.814816 
L 228.074345 104.814816 
L 228.109325 104.263348 
L 228.288179 104.263348 
L 228.288179 103.987614 
L 228.483393 103.987614 
L 228.530919 103.436145 
L 228.73485 103.436145 
L 228.788809 102.884677 
L 229.111416 102.884677 
L 229.129101 102.333209 
L 229.315017 102.333209 
L 229.324468 101.781741 
L 229.620092 101.781741 
L 229.631885 101.230273 
L 229.857985 101.230273 
L 229.8864 100.40307 
L 229.971984 100.40307 
L 230.048367 99.300134 
L 230.123488 99.300134 
L 230.123488 99.0244 
L 230.68542 99.0244 
L 230.705605 98.472932 
L 230.916987 98.472932 
L 230.916987 98.197198 
L 231.051608 98.197198 
L 231.051608 97.921463 
L 231.267537 97.921463 
L 231.277532 97.369995 
L 231.725302 97.369995 
L 231.725302 97.094261 
L 232.010876 97.094261 
L 232.010876 96.818527 
L 232.52489 96.818527 
L 232.572808 95.715591 
L 232.675873 95.715591 
L 232.675873 95.439857 
L 233.348128 95.439857 
L 233.427113 94.888388 
L 233.532927 94.888388 
L 233.633734 93.785452 
L 233.688867 93.785452 
L 233.703886 93.233984 
L 233.970576 93.233984 
L 233.970576 92.95825 
L 234.136073 92.95825 
L 234.136073 92.682516 
L 234.429192 92.682516 
L 234.517469 92.131047 
L 234.758502 92.131047 
L 234.798106 91.579579 
L 234.912297 91.579579 
L 234.912297 91.303845 
L 235.316489 91.303845 
L 235.316489 91.028111 
L 235.678525 91.028111 
L 235.678525 90.476643 
L 235.898606 90.476643 
L 235.898606 90.200909 
L 236.1068 90.200909 
L 236.1068 89.925175 
L 236.263246 89.925175 
L 236.263246 89.64944 
L 236.443312 89.64944 
L 236.443312 89.373706 
L 236.677572 89.373706 
L 236.726347 88.822238 
L 236.838199 88.822238 
L 236.838199 88.546504 
L 237.203877 88.546504 
L 237.203877 88.27077 
L 237.484102 88.27077 
L 237.592938 87.719302 
L 237.606766 87.719302 
L 237.651874 87.167834 
L 237.765872 87.167834 
L 237.770421 86.616365 
L 238.272748 86.616365 
L 238.333573 86.064897 
L 238.541971 86.064897 
L 238.56944 85.513429 
L 238.906338 85.513429 
L 238.986502 84.686227 
L 239.151558 84.686227 
L 239.151558 84.410493 
L 239.42674 84.410493 
L 239.51919 83.58329 
L 239.591359 83.58329 
L 239.591359 83.307556 
L 239.705358 83.307556 
L 239.705358 83.031822 
L 239.939918 83.031822 
L 239.939918 82.756088 
L 240.237728 82.756088 
L 240.317892 81.653152 
L 240.411182 81.653152 
L 240.456829 81.101683 
L 240.597394 81.101683 
L 240.597394 80.825949 
L 241.179231 80.825949 
L 241.179231 80.550215 
L 241.343876 80.550215 
L 241.343876 80.274481 
L 241.592746 80.274481 
L 241.616014 79.723013 
L 241.79608 79.723013 
L 241.905807 79.171545 
L 242.552865 79.171545 
L 242.570284 78.620077 
L 242.947403 78.620077 
L 242.947403 78.344342 
L 243.127469 78.344342 
L 243.127469 78.068608 
L 243.424478 78.068608 
L 243.424478 77.792874 
L 244.173776 77.792874 
L 244.173776 77.51714 
L 244.451657 77.51714 
L 244.498525 76.965672 
L 244.687583 76.965672 
L 244.714095 76.414204 
L 244.812291 76.414204 
L 244.812291 76.13847 
L 244.962389 76.13847 
L 244.962389 75.862736 
L 245.14237 75.862736 
L 245.241998 75.035533 
L 245.297962 75.035533 
L 245.297962 74.759799 
L 245.513115 74.759799 
L 245.602632 74.208331 
L 245.658596 74.208331 
L 245.658596 73.932597 
L 245.890408 73.932597 
L 245.970572 73.105395 
L 246.095232 73.105395 
L 246.095232 72.82966 
L 246.369665 72.82966 
L 246.369665 72.553926 
L 246.523507 72.553926 
L 246.536877 72.002458 
L 246.696643 72.002458 
L 246.696643 71.726724 
L 246.860768 71.726724 
L 246.860768 71.45099 
L 247.258575 71.45099 
L 247.258575 71.175256 
L 247.400503 71.175256 
L 247.400503 70.899522 
L 247.56572 70.899522 
L 247.56572 70.623788 
L 247.828778 70.623788 
L 247.929455 69.796585 
L 248.028033 69.796585 
L 248.028033 69.520851 
L 248.290089 69.520851 
L 248.290089 69.245117 
L 248.589965 69.245117 
L 248.62693 68.142181 
L 248.780149 68.142181 
L 248.806234 67.590713 
L 249.42595 67.590713 
L 249.526189 66.76351 
L 249.537196 66.76351 
L 249.537196 66.487776 
L 249.789828 66.487776 
L 249.789828 66.212042 
L 250.008067 66.212042 
L 250.008067 65.936308 
L 250.640037 65.936308 
L 250.640037 65.660574 
L 250.834401 65.660574 
L 250.925745 65.109106 
L 250.972995 65.109106 
L 250.972995 64.833372 
L 251.313338 64.833372 
L 251.313338 64.557637 
L 251.810691 64.557637 
L 251.889644 64.006169 
L 252.22244 64.006169 
L 252.22244 63.730435 
L 252.444416 63.730435 
L 252.444416 63.454701 
L 253.140476 63.454701 
L 253.221034 62.903233 
L 253.680713 62.903233 
L 253.680713 62.627499 
L 254.242645 62.627499 
L 254.242645 62.351765 
L 254.466769 62.351765 
L 254.466769 62.076031 
L 254.615633 62.076031 
L 254.615633 61.800297 
L 255.142596 61.800297 
L 255.142596 61.524562 
L 256.278513 61.524562 
L 256.296598 60.973094 
L 256.473985 60.973094 
L 256.473985 60.69736 
L 256.733503 60.69736 
L 256.733503 60.421626 
L 256.976408 60.421626 
L 256.976408 60.145892 
L 257.161778 60.145892 
L 257.248104 59.594424 
L 257.609903 59.594424 
L 257.646868 59.042956 
L 258.130401 59.042956 
L 258.130401 58.767221 
L 258.445888 58.767221 
L 258.445888 58.491487 
L 258.873714 58.491487 
L 258.873714 58.215753 
L 259.028005 58.215753 
L 259.028005 57.940019 
L 259.301055 57.940019 
L 259.301055 57.664285 
L 260.333276 57.664285 
L 260.333276 57.388551 
L 260.646337 57.388551 
L 260.646337 57.112817 
L 262.08627 57.112817 
L 262.126665 56.561349 
L 262.514545 56.561349 
L 262.514545 56.285615 
L 262.72733 56.285615 
L 262.807494 55.734146 
L 263.065226 55.734146 
L 263.065226 55.458412 
L 263.179224 55.458412 
L 263.262583 54.906944 
L 263.41766 54.906944 
L 263.41766 54.63121 
L 263.845935 54.63121 
L 263.845935 54.355476 
L 264.444409 54.355476 
L 264.444409 54.079742 
L 264.932543 54.079742 
L 264.932543 53.804008 
L 265.308484 53.804008 
L 265.308484 53.528274 
L 265.437005 53.528274 
L 265.437005 53.252539 
L 265.617071 53.252539 
L 265.617071 52.976805 
L 265.999105 52.976805 
L 266.098825 52.425337 
L 266.154788 52.425337 
L 266.154788 52.149603 
L 266.37986 52.149603 
L 266.4267 51.598135 
L 267.218191 51.598135 
L 267.218191 51.322401 
L 267.330495 51.322401 
L 267.330495 51.046667 
L 268.422546 51.046667 
L 268.422546 50.770933 
L 268.786281 50.770933 
L 268.786281 50.495198 
L 269.07034 50.495198 
L 269.07034 50.219464 
L 269.498615 50.219464 
L 269.498615 49.94373 
L 269.666276 49.94373 
L 269.666276 49.667996 
L 270.517635 49.667996 
L 270.517635 49.392262 
L 271.079567 49.392262 
L 271.079567 49.116528 
L 272.983175 49.116528 
L 272.983175 48.840794 
L 275.019043 48.840794 
L 275.019043 48.56506 
L 275.710636 48.56506 
L 275.710636 48.289326 
L 276.255476 48.289326 
L 276.350433 47.737857 
L 277.593157 47.737857 
L 277.593157 47.462123 
L 278.266145 47.462123 
L 278.266145 47.186389 
L 278.963587 47.186389 
L 279.029258 46.634921 
L 280.099505 46.634921 
L 280.099505 46.359187 
L 282.003113 46.359187 
L 282.003113 46.083453 
L 285.083521 46.083453 
L 285.083521 45.807719 
L 285.596528 45.807719 
L 285.596528 45.531985 
L 285.907262 45.531985 
L 285.907262 45.256251 
L 286.335537 45.256251 
L 286.335537 44.980516 
L 286.822907 44.980516 
L 286.822907 44.704782 
L 287.361804 44.704782 
L 287.361804 44.429048 
L 288.507681 44.429048 
L 288.507681 44.153314 
L 289.692494 44.153314 
L 289.692494 43.87758 
L 289.820097 43.87758 
L 289.927566 43.326112 
L 289.958068 43.326112 
L 289.958068 43.050378 
L 290.245771 43.050378 
L 290.245771 42.774644 
L 290.878437 42.774644 
L 290.878437 42.223176 
L 291.034385 42.223176 
L 291.144941 41.671707 
L 292.329754 41.671707 
L 292.329754 41.395973 
L 292.595328 41.395973 
L 292.595328 41.120239 
L 292.932764 41.120239 
L 292.932764 40.844505 
L 293.935492 40.844505 
L 293.935492 40.568771 
L 294.216936 40.568771 
L 294.216936 40.293037 
L 294.341803 40.293037 
L 294.341803 40.017303 
L 295.134163 40.017303 
L 295.134163 39.741569 
L 295.425304 39.741569 
L 295.425304 39.465835 
L 295.83487 39.465835 
L 295.83487 39.1901 
L 296.854196 39.1901 
L 296.920826 38.638632 
L 297.190579 38.638632 
L 297.190579 38.362898 
L 298.199086 38.362898 
L 298.199086 38.087164 
L 298.405231 38.087164 
L 298.405231 37.81143 
L 298.840035 37.81143 
L 298.840035 37.535696 
L 299.558086 37.535696 
L 299.558086 37.259962 
L 299.964361 37.259962 
L 299.964361 36.984228 
L 300.538764 36.984228 
L 300.538764 36.708494 
L 300.670621 36.708494 
L 300.670621 36.432759 
L 301.579086 36.432759 
L 301.579086 36.157025 
L 302.010825 36.157025 
L 302.010825 35.881291 
L 304.648084 35.881291 
L 304.648084 35.605557 
L 305.663646 35.605557 
L 305.663646 35.329823 
L 306.262308 35.329823 
L 306.262308 35.054089 
L 306.942118 35.054089 
L 306.942118 34.778355 
L 307.447121 34.778355 
L 307.447121 34.502621 
L 307.712694 34.502621 
L 307.712694 34.226887 
L 308.096111 34.226887 
L 308.126931 33.675418 
L 308.267867 33.675418 
L 308.267867 33.399684 
L 308.392505 33.399684 
L 308.437427 32.848216 
L 309.148286 32.848216 
L 309.148286 32.572482 
L 309.266765 32.572482 
L 309.280923 32.021014 
L 309.546497 32.021014 
L 309.546497 31.74528 
L 310.451577 31.74528 
L 310.451577 31.469546 
L 310.717151 31.469546 
L 310.717151 31.193812 
L 311.380479 31.193812 
L 311.380479 30.918077 
L 311.803334 30.918077 
L 311.803334 30.642343 
L 311.971563 30.642343 
L 311.971563 30.366609 
L 312.17082 30.366609 
L 312.226784 29.815141 
L 312.651373 29.815141 
L 312.651373 29.539407 
L 313.805366 29.539407 
L 313.805366 29.263673 
L 314.494542 29.263673 
L 314.494542 28.987939 
L 314.675453 28.987939 
L 314.675453 28.712205 
L 314.858277 28.712205 
L 314.858277 28.436471 
L 314.97602 28.436471 
L 314.97602 28.160736 
L 315.355263 28.160736 
L 315.355263 27.885002 
L 316.040045 27.885002 
L 316.040045 27.609268 
L 316.509255 27.609268 
L 316.509255 27.333534 
L 317.210496 27.333534 
L 317.210496 27.0578 
L 317.679909 27.0578 
L 317.679909 26.782066 
L 319.765451 26.782066 
L 319.765451 26.506332 
L 320.445261 26.506332 
L 320.445261 26.230598 
L 321.599254 26.230598 
L 321.599254 25.954864 
L 322.769908 25.954864 
L 322.769908 25.67913 
L 327.424177 25.67913 
L 327.424177 25.403396 
L 330.061437 25.403396 
L 330.061437 25.127661 
L 335.049231 25.127661 
L 335.049231 24.851927 
L 336.234043 24.851927 
L 336.234043 24.576193 
L 336.499617 24.576193 
L 336.499617 24.300459 
L 340.758486 24.300459 
L 340.758486 24.024725 
L 343.462375 24.024725 
L 343.462375 23.748991 
L 345.178804 23.748991 
L 345.178804 23.473257 
L 345.858614 23.473257 
L 345.858614 23.197523 
L 347.012606 23.197523 
L 347.012606 22.921789 
L 348.18326 22.921789 
L 348.18326 22.646055 
L 348.552374 22.646055 
L 348.552374 22.37032 
L 356.621867 22.37032 
L 356.621867 22.094586 
L 357.410481 22.094586 
L 357.410481 21.818852 
L 359.30886 21.818852 
L 359.30886 21.543118 
L 366.91486 21.543118 
L 366.91486 21.267384 
L 373.965726 21.267384 
L 373.965726 20.99165 
L 377.756575 20.99165 
L 377.756575 20.715916 
L 378.546916 20.715916 
L 378.60288 20.164448 
L 380.870638 20.164448 
L 380.870638 19.888714 
L 381.234372 19.888714 
L 381.234372 19.612979 
L 453.192 19.612979 
L 453.192 19.612979 
" clip-path="url(#p82e2af2f96)" style="fill: none; stroke: #000000; stroke-width: 3; stroke-linecap: square"/>
   </g>
   <g id="line2d_18">
    <path clip-path="url(#p82e2af2f96)" style="fill: none; stroke: #000000; stroke-width: 3; stroke-linecap: square"/>
   </g>
   <g id="line2d_19">
    <path d="M 34.16 176.770297 
L 109.244429 176.770297 
L 109.244429 176.390422 
L 123.448978 176.390422 
L 123.448978 176.010546 
L 124.302839 176.010546 
L 124.302839 175.63067 
L 134.712126 175.63067 
L 134.712126 175.250795 
L 138.507387 175.250795 
L 138.507387 174.870919 
L 143.425721 174.870919 
L 143.425721 174.491044 
L 144.211601 174.491044 
L 144.211601 174.111168 
L 145.877408 174.111168 
L 145.877408 173.731292 
L 149.770536 173.731292 
L 149.770536 173.351417 
L 158.067834 173.351417 
L 158.067834 172.971541 
L 158.226111 172.971541 
L 158.226111 172.591666 
L 158.484131 172.591666 
L 158.484131 172.21179 
L 159.270011 172.21179 
L 159.270011 171.831914 
L 160.451639 171.831914 
L 160.451639 171.452039 
L 160.935818 171.452039 
L 160.935818 171.072163 
L 162.370986 171.072163 
L 162.370986 170.692288 
L 163.02394 170.692288 
L 163.02394 170.312412 
L 165.409197 170.312412 
L 165.509854 169.552661 
L 167.039712 169.552661 
L 167.039712 169.172785 
L 173.126244 169.172785 
L 173.126244 168.79291 
L 173.284521 168.79291 
L 173.284521 168.413034 
L 174.483411 168.413034 
L 174.483411 168.033158 
L 175.510049 168.033158 
L 175.510049 167.653283 
L 177.228489 167.653283 
L 177.228489 167.273407 
L 177.429396 167.273407 
L 177.429396 166.893532 
L 179.714403 166.893532 
L 179.714403 166.513656 
L 180.467607 166.513656 
L 180.467607 166.13378 
L 181.244261 166.13378 
L 181.348447 165.374029 
L 181.618547 165.374029 
L 181.618547 164.994153 
L 181.869009 164.994153 
L 181.971767 164.234402 
L 182.176424 164.234402 
L 182.176424 163.854527 
L 182.463372 163.854527 
L 182.463372 163.474651 
L 182.79973 163.474651 
L 182.79973 163.094775 
L 182.978802 163.094775 
L 183.086679 162.335024 
L 183.508652 162.335024 
L 183.508652 161.955149 
L 184.243247 161.955149 
L 184.243247 161.575273 
L 184.530195 161.575273 
L 184.530195 161.195397 
L 184.922972 161.195397 
L 184.922972 160.815522 
L 187.94802 160.815522 
L 187.94802 160.435646 
L 188.234969 160.435646 
L 188.234969 160.055771 
L 188.491638 160.055771 
L 188.491638 159.675895 
L 189.54182 159.675895 
L 189.54182 159.296019 
L 189.934097 159.296019 
L 189.934097 158.916144 
L 190.221046 158.916144 
L 190.221046 158.536268 
L 190.880567 158.536268 
L 190.977552 157.776517 
L 191.167516 157.776517 
L 191.167516 157.396641 
L 191.477787 157.396641 
L 191.477787 157.016766 
L 191.764735 157.016766 
L 191.764735 156.63689 
L 192.50741 156.63689 
L 192.50741 156.257015 
L 194.366101 156.257015 
L 194.366101 155.877139 
L 194.989408 155.877139 
L 194.989408 155.497263 
L 195.552996 155.497263 
L 195.552996 155.117388 
L 195.823096 155.117388 
L 195.823096 154.737512 
L 196.073558 154.737512 
L 196.176316 153.597885 
L 196.432924 153.597885 
L 196.432924 153.21801 
L 196.791973 153.21801 
L 196.791973 152.838134 
L 197.183351 152.838134 
L 197.244444 151.698507 
L 197.713201 151.698507 
L 197.713201 151.318632 
L 197.991113 151.318632 
L 198.029816 150.55888 
L 198.23549 150.55888 
L 198.23549 150.179005 
L 199.127521 150.179005 
L 199.127521 149.799129 
L 199.656919 149.799129 
L 199.691146 149.039378 
L 200.137698 149.039378 
L 200.137698 148.659502 
L 200.477027 148.659502 
L 200.477027 148.279627 
L 201.221004 148.279627 
L 201.221004 147.899751 
L 201.940263 147.899751 
L 202.006885 147.14 
L 202.123775 147.14 
L 202.142833 146.380249 
L 202.757475 146.380249 
L 202.757475 146.000373 
L 203.044423 146.000373 
L 203.070245 145.240622 
L 203.667464 145.240622 
L 203.672691 144.480871 
L 203.92634 144.480871 
L 203.92634 144.100995 
L 204.87281 144.100995 
L 204.87281 143.72112 
L 205.470029 143.72112 
L 205.470029 143.341244 
L 206.816144 143.341244 
L 206.816144 142.961368 
L 207.086245 142.961368 
L 207.086245 142.581493 
L 207.336707 142.581493 
L 207.439465 141.821742 
L 208.446499 141.821742 
L 208.446499 141.441866 
L 208.97635 141.441866 
L 208.97635 141.06199 
L 210.094892 141.06199 
L 210.094892 140.682115 
L 210.390669 140.682115 
L 210.390669 140.302239 
L 211.448993 140.302239 
L 211.448993 139.922363 
L 211.847345 139.922363 
L 211.847345 139.542488 
L 212.005623 139.542488 
L 212.005623 139.162612 
L 212.234365 139.162612 
L 212.234365 138.782737 
L 214.231151 138.782737 
L 214.333259 138.022985 
L 214.491537 138.022985 
L 214.491537 137.64311 
L 214.947152 137.64311 
L 214.947152 137.263234 
L 215.213348 137.263234 
L 215.213348 136.883359 
L 215.529739 136.883359 
L 215.529739 136.503483 
L 215.79984 136.503483 
L 215.863117 135.743732 
L 216.021395 135.743732 
L 216.050301 134.983981 
L 216.150497 134.983981 
L 216.15306 134.224229 
L 216.315619 134.224229 
L 216.315619 133.844354 
L 216.58572 133.844354 
L 216.58572 133.464478 
L 216.717065 133.464478 
L 216.749718 132.704727 
L 216.836182 132.704727 
L 216.93894 131.944976 
L 217.068984 131.944976 
L 217.160094 131.185225 
L 217.689944 131.185225 
L 217.689944 130.805349 
L 217.945974 130.805349 
L 217.981426 130.045598 
L 218.246923 130.045598 
L 218.251526 129.285847 
L 218.475824 129.285847 
L 218.501988 128.526095 
L 218.604746 128.526095 
L 218.636411 127.766344 
L 219.104264 127.766344 
L 219.188708 127.006593 
L 219.611781 127.006593 
L 219.611781 126.626717 
L 219.890144 126.626717 
L 219.890144 126.246842 
L 220.141631 126.246842 
L 220.166269 125.48709 
L 221.555951 125.48709 
L 221.555951 125.107215 
L 221.674622 125.107215 
L 221.674622 124.727339 
L 222.712142 124.727339 
L 222.712142 124.347464 
L 223.20448 124.347464 
L 223.20448 123.967588 
L 223.497514 123.967588 
L 223.497514 123.587712 
L 224.299441 123.587712 
L 224.299441 123.207837 
L 225.106673 123.207837 
L 225.106673 122.827961 
L 225.393622 122.827961 
L 225.393622 122.448086 
L 227.152794 122.448086 
L 227.152794 122.06821 
L 227.439742 122.06821 
L 227.439742 121.688334 
L 228.193134 121.688334 
L 228.262922 120.928583 
L 228.379721 120.928583 
L 228.379721 120.548708 
L 228.741266 120.548708 
L 228.81644 119.788956 
L 229.028215 119.788956 
L 229.028215 119.409081 
L 229.40432 119.409081 
L 229.40432 119.029205 
L 230.027626 119.029205 
L 230.027626 118.64933 
L 230.171852 118.64933 
L 230.27868 117.129827 
L 230.33013 117.129827 
L 230.33013 116.749952 
L 230.441952 116.749952 
L 230.441952 116.370076 
L 230.565628 116.370076 
L 230.60023 115.610325 
L 230.692414 115.610325 
L 230.795172 114.470698 
L 230.850692 114.470698 
L 230.95345 113.710947 
L 231.425736 113.710947 
L 231.471143 112.57132 
L 231.802207 112.57132 
L 231.802207 112.191444 
L 231.960484 112.191444 
L 231.960484 111.811569 
L 232.072289 111.811569 
L 232.074315 111.051817 
L 232.211108 111.051817 
L 232.278694 109.912191 
L 232.332057 109.912191 
L 232.396658 109.152439 
L 232.490335 109.152439 
L 232.555658 108.392688 
L 232.683607 108.392688 
L 232.695596 107.632937 
L 232.825758 107.632937 
L 232.825758 107.253061 
L 232.996989 107.253061 
L 233.07622 106.113435 
L 233.178978 106.113435 
L 233.178978 105.733559 
L 233.517832 105.733559 
L 233.517832 105.353683 
L 233.746377 105.353683 
L 233.746377 104.973808 
L 233.877423 104.973808 
L 233.96473 103.07443 
L 234.038661 103.07443 
L 234.139112 102.314678 
L 234.186013 102.314678 
L 234.208141 101.554927 
L 234.325609 101.554927 
L 234.325609 101.175052 
L 234.475004 101.175052 
L 234.511308 100.4153 
L 234.662795 100.4153 
L 234.745104 99.275674 
L 234.831447 99.275674 
L 234.85931 98.515922 
L 234.995566 98.515922 
L 235.098324 97.756171 
L 235.175916 97.756171 
L 235.175916 97.376296 
L 235.56259 97.376296 
L 235.656078 96.616544 
L 235.950807 96.616544 
L 235.954825 95.856793 
L 236.105359 95.856793 
L 236.142961 94.717166 
L 236.274964 94.717166 
L 236.279384 93.957415 
L 236.635209 93.957415 
L 236.635209 93.57754 
L 236.766267 93.57754 
L 236.766267 93.197664 
L 236.897277 93.197664 
L 236.897277 92.817788 
L 237.161993 92.817788 
L 237.222605 92.058037 
L 237.296351 92.058037 
L 237.296351 91.678162 
L 237.494497 91.678162 
L 237.513215 90.91841 
L 237.7229 90.91841 
L 237.783316 90.158659 
L 237.843886 90.158659 
L 237.843886 89.778783 
L 238.033777 89.778783 
L 238.136536 88.259281 
L 238.209784 88.259281 
L 238.209784 87.879405 
L 238.705682 87.879405 
L 238.705682 87.49953 
L 239.098916 87.49953 
L 239.208682 86.359903 
L 239.342471 86.359903 
L 239.342471 85.980027 
L 239.659598 85.980027 
L 239.67342 85.220276 
L 239.829963 85.220276 
L 239.829963 84.840401 
L 239.979737 84.840401 
L 239.979737 84.460525 
L 240.155152 84.460525 
L 240.155152 84.080649 
L 240.283773 84.080649 
L 240.283773 83.700774 
L 240.752371 83.700774 
L 240.776433 82.941023 
L 240.930944 82.941023 
L 240.930944 82.561147 
L 241.08774 82.561147 
L 241.145036 81.801396 
L 241.373652 81.801396 
L 241.427674 81.041645 
L 241.645675 81.041645 
L 241.645675 80.661769 
L 241.914557 80.661769 
L 241.965814 79.902018 
L 242.139408 79.902018 
L 242.139408 79.522142 
L 242.468357 79.522142 
L 242.468357 79.142266 
L 242.592145 79.142266 
L 242.592145 78.762391 
L 242.733509 78.762391 
L 242.733509 78.382515 
L 242.912284 78.382515 
L 242.912284 78.00264 
L 243.189365 78.00264 
L 243.189365 77.622764 
L 243.413751 77.622764 
L 243.509504 76.863013 
L 243.900634 76.863013 
L 243.900634 76.483137 
L 244.270922 76.483137 
L 244.360221 75.34351 
L 244.586336 75.34351 
L 244.586336 74.963635 
L 244.847104 74.963635 
L 244.95744 74.203884 
L 245.062065 74.203884 
L 245.062065 73.824008 
L 245.444323 73.824008 
L 245.444323 73.444132 
L 245.630685 73.444132 
L 245.630685 73.064257 
L 245.917633 73.064257 
L 245.917633 72.684381 
L 246.067849 72.684381 
L 246.067849 72.304506 
L 246.226127 72.304506 
L 246.228338 71.544754 
L 246.388901 71.544754 
L 246.388901 71.164879 
L 246.587429 71.164879 
L 246.587429 70.785003 
L 246.727871 70.785003 
L 246.727871 70.405128 
L 246.853221 70.405128 
L 246.857529 69.645376 
L 247.011499 69.645376 
L 247.107991 68.50575 
L 247.210749 68.50575 
L 247.210749 68.125874 
L 247.846783 68.125874 
L 247.846783 67.745998 
L 248.030903 67.745998 
L 248.030903 67.366123 
L 248.217784 67.366123 
L 248.217784 66.986247 
L 248.451655 66.986247 
L 248.451655 66.606371 
L 248.747634 66.606371 
L 248.774185 65.84662 
L 248.935987 65.84662 
L 248.935987 65.466745 
L 249.237027 65.466745 
L 249.237027 65.086869 
L 249.702418 65.086869 
L 249.804896 63.947242 
L 249.985371 63.947242 
L 249.985371 63.567367 
L 250.161954 63.567367 
L 250.161954 63.187491 
L 250.332937 63.187491 
L 250.428202 62.047864 
L 250.791622 62.047864 
L 250.791622 61.667989 
L 251.156373 61.667989 
L 251.156373 61.288113 
L 251.681615 61.288113 
L 251.776454 60.528362 
L 251.871719 60.528362 
L 251.871719 60.148486 
L 252.03206 60.148486 
L 252.03206 59.768611 
L 252.65334 59.768611 
L 252.65334 59.388735 
L 252.94132 59.388735 
L 252.94132 59.008859 
L 253.409212 59.008859 
L 253.409212 58.628984 
L 253.564627 58.628984 
L 253.564627 58.249108 
L 254.194584 58.249108 
L 254.194584 57.869233 
L 254.469053 57.869233 
L 254.469053 57.489357 
L 254.730884 57.489357 
L 254.789192 56.729606 
L 254.88672 56.729606 
L 254.88672 56.34973 
L 255.008143 56.34973 
L 255.008143 55.969855 
L 255.481227 55.969855 
L 255.576492 55.210103 
L 256.237128 55.210103 
L 256.237128 54.830228 
L 256.586519 54.830228 
L 256.586519 54.450352 
L 256.724012 54.450352 
L 256.742356 53.690601 
L 257.467304 53.690601 
L 257.562569 52.93085 
L 257.820362 52.93085 
L 257.820362 52.550974 
L 258.133942 52.550974 
L 258.133942 52.171098 
L 258.413774 52.171098 
L 258.509039 51.411347 
L 258.712917 51.411347 
L 258.712917 51.031472 
L 258.918297 51.031472 
L 259.010993 49.891845 
L 259.076575 49.891845 
L 259.106258 49.132094 
L 259.622927 49.132094 
L 259.622927 48.752218 
L 259.989577 48.752218 
L 259.989577 48.372342 
L 260.698994 48.372342 
L 260.698994 47.992467 
L 261.275531 47.992467 
L 261.302103 47.232716 
L 261.645464 47.232716 
L 261.645464 46.85284 
L 262.242683 46.85284 
L 262.242683 46.472964 
L 262.483426 46.472964 
L 262.483426 46.093089 
L 263.131166 46.093089 
L 263.221449 45.333338 
L 263.268798 45.333338 
L 263.3772 44.573586 
L 263.684866 44.573586 
L 263.684866 44.193711 
L 265.232835 44.193711 
L 265.232835 43.813835 
L 265.540501 43.813835 
L 265.540501 43.43396 
L 266.25966 43.43396 
L 266.25966 43.054084 
L 266.524723 43.054084 
L 266.524723 42.674208 
L 267.613927 42.674208 
L 267.613927 42.294333 
L 270.290682 42.294333 
L 270.385947 41.534581 
L 271.123383 41.534581 
L 271.123383 41.154706 
L 272.334569 41.154706 
L 272.334569 40.77483 
L 273.169504 40.77483 
L 273.169504 40.394955 
L 273.408824 40.394955 
L 273.408824 40.015079 
L 273.522371 40.015079 
L 273.56466 39.255328 
L 274.380689 39.255328 
L 274.381258 38.495577 
L 274.757976 38.495577 
L 274.757976 38.115701 
L 275.002539 38.115701 
L 275.002539 37.735825 
L 275.333874 37.735825 
L 275.333874 37.35595 
L 275.969162 37.35595 
L 275.969162 36.976074 
L 276.29539 36.976074 
L 276.29539 36.596199 
L 276.427379 36.596199 
L 276.427379 36.216323 
L 276.811882 36.216323 
L 276.818251 35.456572 
L 277.048659 35.456572 
L 277.13839 34.696821 
L 277.506575 34.696821 
L 277.506575 34.316945 
L 278.015851 34.316945 
L 278.015851 33.937069 
L 278.413368 33.937069 
L 278.413368 33.557194 
L 278.586327 33.557194 
L 278.637132 32.797443 
L 278.864372 32.797443 
L 278.864372 32.417567 
L 279.07321 32.417567 
L 279.07321 32.037691 
L 279.184511 32.037691 
L 279.184511 31.657816 
L 279.553264 31.657816 
L 279.624554 30.898065 
L 279.953471 30.898065 
L 280.055371 30.138313 
L 280.174545 30.138313 
L 280.174545 29.758438 
L 280.452845 29.758438 
L 280.452845 29.378562 
L 280.632447 29.378562 
L 280.632447 28.998686 
L 280.772983 28.998686 
L 280.772983 28.618811 
L 281.119331 28.618811 
L 281.119331 28.238935 
L 281.266556 28.238935 
L 281.266556 27.85906 
L 281.671243 27.85906 
L 281.671243 27.479184 
L 281.990258 27.479184 
L 282.05514 26.719433 
L 282.22092 26.719433 
L 282.310397 25.579806 
L 282.362806 25.579806 
L 282.362806 25.19993 
L 282.707803 25.19993 
L 282.707803 24.820055 
L 283.313246 24.820055 
L 283.313246 24.440179 
L 283.758333 24.440179 
L 283.758333 24.060304 
L 283.934526 24.060304 
L 283.934526 23.680428 
L 284.108236 23.680428 
L 284.108236 23.300552 
L 284.245216 23.300552 
L 284.245216 22.920677 
L 284.428375 22.920677 
L 284.428375 22.540801 
L 285.750239 22.540801 
L 285.750239 22.160926 
L 285.876312 22.160926 
L 285.876312 21.78105 
L 286.070378 21.78105 
L 286.070378 21.401174 
L 286.363195 21.401174 
L 286.363195 21.021299 
L 287.518314 21.021299 
L 287.518314 20.641423 
L 288.005197 20.641423 
L 288.005197 20.261548 
L 291.647395 20.261548 
L 291.647395 19.881672 
L 292.63988 19.881672 
L 292.735145 19.121921 
L 292.85858 19.121921 
L 292.85858 18.742045 
L 294.686001 18.742045 
L 294.781266 17.982294 
L 294.90527 17.982294 
L 294.90527 17.602418 
L 295.52655 17.602418 
L 295.52655 17.222543 
L 295.871569 17.222543 
L 295.871569 16.842667 
L 296.274473 16.842667 
L 296.369738 16.082916 
L 297.342263 16.082916 
L 297.342263 15.70304 
L 297.662402 15.70304 
L 297.662402 15.323165 
L 297.811886 15.323165 
L 297.91769 14.183538 
L 299.110338 14.183538 
L 299.110338 13.803662 
L 299.506163 13.803662 
L 299.597221 13.043911 
L 299.929865 13.043911 
L 300.02513 12.28416 
L 301.043576 12.28416 
L 301.043576 11.904284 
L 301.571867 11.904284 
L 301.667133 11.144533 
L 303.161555 11.144533 
L 303.161555 10.764657 
L 304.803557 10.764657 
L 304.803557 10.384782 
L 313.163891 10.384782 
L 313.259156 9.625031 
L 316.395581 9.625031 
L 316.395581 9.245155 
L 453.192 9.245155 
L 453.192 9.245155 
" clip-path="url(#p82e2af2f96)" style="fill: none; stroke: #00bfbf; stroke-width: 3; stroke-linecap: square"/>
   </g>
   <g id="line2d_20">
    <path clip-path="url(#p82e2af2f96)" style="fill: none; stroke: #00bfbf; stroke-width: 3; stroke-linecap: square"/>
   </g>
   <g id="line2d_21">
    <path d="M 34.16 159.675895 
L 130.954217 159.675895 
L 130.954217 159.296019 
L 140.271152 159.296019 
L 140.271152 158.916144 
L 141.080142 158.916144 
L 141.080142 158.536268 
L 147.761513 158.536268 
L 147.761513 158.156393 
L 150.397077 158.156393 
L 150.397077 157.776517 
L 150.93816 157.776517 
L 150.93816 157.396641 
L 157.078448 157.396641 
L 157.078448 157.016766 
L 160.255095 157.016766 
L 160.255095 156.63689 
L 164.806688 156.63689 
L 164.806688 156.257015 
L 166.214346 156.257015 
L 166.214346 155.877139 
L 167.969106 155.877139 
L 167.969106 155.497263 
L 169.747026 155.497263 
L 169.747026 155.117388 
L 173.030916 155.117388 
L 173.030916 154.737512 
L 174.123623 154.737512 
L 174.123623 154.357637 
L 175.531281 154.357637 
L 175.531281 153.977761 
L 177.286041 153.977761 
L 177.286041 153.597885 
L 178.812641 153.597885 
L 178.812641 153.21801 
L 179.010047 153.21801 
L 179.063961 152.458258 
L 179.141947 152.458258 
L 179.141947 152.078383 
L 179.507048 152.078383 
L 179.507048 151.698507 
L 179.624281 151.698507 
L 179.624281 151.318632 
L 179.768848 151.318632 
L 179.768848 150.938756 
L 180.617808 150.938756 
L 180.617808 150.55888 
L 182.34785 150.55888 
L 182.34785 150.179005 
L 182.614172 150.179005 
L 182.614172 149.799129 
L 189.267872 149.799129 
L 189.267872 149.419254 
L 189.492625 149.419254 
L 189.492625 149.039378 
L 189.894773 149.039378 
L 189.934742 148.279627 
L 190.166198 148.279627 
L 190.166198 147.899751 
L 190.464797 147.899751 
L 190.464797 147.519876 
L 190.72945 147.519876 
L 190.72945 147.14 
L 191.528924 147.14 
L 191.528924 146.760124 
L 192.740097 146.760124 
L 192.740097 146.380249 
L 195.949243 146.380249 
L 195.949243 146.000373 
L 196.172989 146.000373 
L 196.172989 145.620498 
L 196.576144 145.620498 
L 196.649752 144.860746 
L 196.832783 144.860746 
L 196.832783 144.480871 
L 197.49005 144.480871 
L 197.49005 144.100995 
L 198.138558 144.100995 
L 198.138558 143.72112 
L 198.460698 143.72112 
L 198.460698 143.341244 
L 199.060706 143.341244 
L 199.12589 142.581493 
L 199.421468 142.581493 
L 199.421468 142.201617 
L 199.63399 142.201617 
L 199.63399 141.821742 
L 199.752791 141.821742 
L 199.752791 141.441866 
L 202.598115 141.441866 
L 202.598115 141.06199 
L 204.409834 141.06199 
L 204.409834 140.682115 
L 204.952485 140.682115 
L 204.952485 140.302239 
L 205.793425 140.302239 
L 205.793425 139.922363 
L 206.298914 139.922363 
L 206.298914 139.542488 
L 206.680797 139.542488 
L 206.775678 138.782737 
L 206.958708 138.782737 
L 206.958708 138.402861 
L 207.615975 138.402861 
L 207.615975 138.022985 
L 208.264483 138.022985 
L 208.264483 137.64311 
L 208.586624 137.64311 
L 208.586624 137.263234 
L 209.186631 137.263234 
L 209.186631 136.883359 
L 211.822713 136.883359 
L 211.822713 136.503483 
L 212.552591 136.503483 
L 212.552591 136.123607 
L 212.980285 136.123607 
L 212.994418 135.363856 
L 213.457048 135.363856 
L 213.457048 134.983981 
L 213.621319 134.983981 
L 213.640079 134.224229 
L 213.983052 134.224229 
L 213.983052 133.844354 
L 214.297346 133.844354 
L 214.402076 133.084603 
L 214.945854 133.084603 
L 215.028977 132.324851 
L 215.267994 132.324851 
L 215.267994 131.944976 
L 215.868002 131.944976 
L 215.868002 131.5651 
L 216.156836 131.5651 
L 216.156931 130.805349 
L 216.406782 130.805349 
L 216.466643 130.045598 
L 216.633695 130.045598 
L 216.633695 129.665722 
L 216.783737 129.665722 
L 216.816726 128.905971 
L 217.473993 128.905971 
L 217.473993 128.526095 
L 217.874301 128.526095 
L 217.934756 127.766344 
L 218.122501 127.766344 
L 218.122501 127.386468 
L 218.444641 127.386468 
L 218.444641 127.006593 
L 218.561657 127.006593 
L 218.561657 126.626717 
L 219.044649 126.626717 
L 219.044649 126.246842 
L 219.629061 126.246842 
L 219.629061 125.866966 
L 221.218646 125.866966 
L 221.218646 125.48709 
L 221.406981 125.48709 
L 221.406981 125.107215 
L 221.845546 125.107215 
L 221.948638 124.347464 
L 222.678516 124.347464 
L 222.678516 123.967588 
L 224.474006 123.967588 
L 224.474006 123.587712 
L 224.671413 123.587712 
L 224.69087 122.827961 
L 224.901629 122.827961 
L 224.901629 122.448086 
L 225.168413 122.448086 
L 225.168413 122.06821 
L 225.285646 122.06821 
L 225.357378 121.308459 
L 225.554784 121.308459 
L 225.554784 120.928583 
L 226.051785 120.928583 
L 226.051785 120.548708 
L 226.169018 120.548708 
L 226.169018 120.168832 
L 226.556756 120.168832 
L 226.556756 119.788956 
L 226.754162 119.788956 
L 226.754162 119.409081 
L 227.246183 119.409081 
L 227.287253 118.269454 
L 227.368396 118.269454 
L 227.44359 117.509703 
L 227.48466 117.509703 
L 227.48466 117.129827 
L 227.94059 117.129827 
L 227.98166 116.370076 
L 228.057823 116.370076 
L 228.120383 115.230449 
L 228.378101 115.230449 
L 228.378101 114.850573 
L 228.575507 114.850573 
L 228.630009 114.090822 
L 228.805538 114.090822 
L 228.805538 113.710947 
L 229.072508 113.710947 
L 229.072508 113.331071 
L 229.189741 113.331071 
L 229.189741 112.951195 
L 229.359887 112.951195 
L 229.432438 112.191444 
L 230.02546 112.191444 
L 230.02546 111.811569 
L 230.502224 111.811569 
L 230.544112 111.051817 
L 230.685254 111.051817 
L 230.685254 110.671942 
L 231.342521 110.671942 
L 231.433118 109.912191 
L 231.806656 109.912191 
L 231.909882 109.152439 
L 231.991029 109.152439 
L 232.092912 108.392688 
L 232.277762 108.392688 
L 232.31317 107.632937 
L 232.419885 107.632937 
L 232.419885 107.253061 
L 232.536534 107.253061 
L 232.536534 106.873186 
L 232.750179 106.873186 
L 232.750179 106.49331 
L 232.913177 106.49331 
L 232.913177 106.113435 
L 233.187877 106.113435 
L 233.187877 105.733559 
L 233.398687 105.733559 
L 233.425173 104.973808 
L 233.664641 104.973808 
L 233.720828 104.214057 
L 233.847672 104.214057 
L 233.847672 103.834181 
L 234.320835 103.834181 
L 234.320835 103.454305 
L 234.504939 103.454305 
L 234.504939 103.07443 
L 234.843615 103.07443 
L 234.843615 102.694554 
L 234.965798 102.694554 
L 235.027554 101.934803 
L 235.153447 101.934803 
L 235.15399 101.175052 
L 235.442562 101.175052 
L 235.475587 100.4153 
L 235.625592 100.4153 
L 235.625592 100.035425 
L 235.827564 100.035425 
L 235.827564 99.655549 
L 236.037362 99.655549 
L 236.126163 98.515922 
L 236.282859 98.515922 
L 236.390816 97.376296 
L 236.563882 97.376296 
L 236.563882 96.99642 
L 236.710935 96.99642 
L 236.710935 96.616544 
L 236.931367 96.616544 
L 237.009535 95.856793 
L 237.060883 95.856793 
L 237.060883 95.476918 
L 237.178116 95.476918 
L 237.274188 93.57754 
L 237.853515 93.57754 
L 237.926167 92.437913 
L 237.967237 92.437913 
L 238.073661 91.678162 
L 238.119321 91.678162 
L 238.208912 90.91841 
L 238.249687 90.91841 
L 238.316728 90.158659 
L 238.473565 90.158659 
L 238.473565 89.778783 
L 238.599741 89.778783 
L 238.640811 89.019032 
L 238.724139 89.019032 
L 238.813728 87.879405 
L 238.89834 87.879405 
L 238.93941 85.600152 
L 239.058085 85.600152 
L 239.162993 84.460525 
L 239.204063 84.460525 
L 239.273039 83.700774 
L 239.37803 83.700774 
L 239.418546 82.941023 
L 239.535779 82.941023 
L 239.611508 81.041645 
L 239.712651 81.041645 
L 239.731659 80.281893 
L 239.962467 80.281893 
L 240.072437 78.762391 
L 240.18967 78.762391 
L 240.294911 77.622764 
L 240.537397 77.622764 
L 240.537397 77.242888 
L 241.094385 77.242888 
L 241.137405 76.483137 
L 241.708925 76.483137 
L 241.708925 76.103262 
L 242.035237 76.103262 
L 242.035237 75.723386 
L 244.885572 75.723386 
L 244.885572 75.34351 
L 245.295355 75.34351 
L 245.295355 74.963635 
L 245.675184 74.963635 
L 245.675184 74.583759 
L 245.836579 74.583759 
L 245.836579 74.203884 
L 246.178727 74.203884 
L 246.178727 73.824008 
L 246.313343 73.824008 
L 246.405062 73.064257 
L 246.496374 73.064257 
L 246.496374 72.684381 
L 247.04646 72.684381 
L 247.15364 71.544754 
L 247.3609 71.544754 
L 247.378105 70.785003 
L 247.562504 70.785003 
L 247.562504 70.405128 
L 247.720033 70.405128 
L 247.81272 69.265501 
L 248.018633 69.265501 
L 248.124289 67.745998 
L 248.283285 67.745998 
L 248.283285 67.366123 
L 248.607477 67.366123 
L 248.662325 66.606371 
L 248.724297 66.606371 
L 248.804883 65.466745 
L 248.837602 65.466745 
L 248.837602 65.086869 
L 248.977172 65.086869 
L 249.082759 64.327118 
L 249.174578 64.327118 
L 249.19945 63.567367 
L 249.301883 63.567367 
L 249.404123 62.807615 
L 249.419117 62.807615 
L 249.472879 62.047864 
L 249.56748 62.047864 
L 249.671579 60.528362 
L 249.771462 60.528362 
L 249.788812 59.008859 
L 250.036131 59.008859 
L 250.077696 57.489357 
L 250.254568 57.489357 
L 250.268463 56.729606 
L 250.376296 56.729606 
L 250.385696 55.969855 
L 250.553167 55.969855 
L 250.640949 54.450352 
L 250.731588 54.450352 
L 250.835605 53.310725 
L 250.954571 53.310725 
L 251.030187 52.550974 
L 251.086054 52.550974 
L 251.086054 52.171098 
L 251.29484 52.171098 
L 251.3454 51.411347 
L 251.440423 51.411347 
L 251.497222 50.27172 
L 251.617294 50.27172 
L 251.617294 49.891845 
L 251.862006 49.891845 
L 251.862006 49.511969 
L 252.094314 49.511969 
L 252.153949 48.752218 
L 252.338162 48.752218 
L 252.342162 47.992467 
L 252.696599 47.992467 
L 252.696599 47.612591 
L 252.843376 47.612591 
L 252.884446 46.85284 
L 253.225534 46.85284 
L 253.225534 46.472964 
L 253.386027 46.472964 
L 253.427097 45.713213 
L 253.53754 45.713213 
L 253.53754 45.333338 
L 253.899412 45.333338 
L 253.987105 44.193711 
L 254.063057 44.193711 
L 254.063057 43.813835 
L 254.226968 43.813835 
L 254.268038 43.054084 
L 254.424912 43.054084 
L 254.517945 42.294333 
L 254.62929 42.294333 
L 254.62929 41.914457 
L 255.11434 41.914457 
L 255.15541 41.154706 
L 255.358886 41.154706 
L 255.358886 40.77483 
L 256.246257 40.77483 
L 256.246257 40.394955 
L 256.410835 40.394955 
L 256.486786 39.635203 
L 257.187825 39.635203 
L 257.22149 38.875452 
L 258.7541 38.875452 
L 258.7541 38.495577 
L 258.940671 38.495577 
L 258.940671 38.115701 
L 259.053629 38.115701 
L 259.053629 37.735825 
L 259.28746 37.735825 
L 259.28746 37.35595 
L 259.545488 37.35595 
L 259.64522 36.596199 
L 259.657156 36.596199 
L 259.72236 35.836447 
L 259.961034 35.836447 
L 259.961034 35.456572 
L 260.161758 35.456572 
L 260.259633 33.557194 
L 260.33073 33.557194 
L 260.33073 33.177318 
L 260.524286 33.177318 
L 260.629329 32.417567 
L 260.893982 32.417567 
L 260.927613 31.657816 
L 261.226212 31.657816 
L 261.32376 30.898065 
L 261.486303 30.898065 
L 261.490865 30.138313 
L 261.693456 30.138313 
L 261.693456 29.758438 
L 261.916518 29.758438 
L 261.963669 28.998686 
L 262.216182 28.998686 
L 262.290339 28.238935 
L 262.50632 28.238935 
L 262.50632 27.85906 
L 262.633965 27.85906 
L 262.633965 27.479184 
L 263.34726 27.479184 
L 263.34726 27.099308 
L 263.516361 27.099308 
L 263.516361 26.719433 
L 263.642842 26.719433 
L 263.716514 25.579806 
L 264.234632 25.579806 
L 264.321332 24.440179 
L 264.498204 24.440179 
L 264.498204 24.060304 
L 264.863983 24.060304 
L 264.863983 23.680428 
L 264.975223 23.680428 
L 265.040854 22.920677 
L 265.100106 22.920677 
L 265.100106 22.540801 
L 265.517874 22.540801 
L 265.517874 22.160926 
L 265.704923 22.160926 
L 265.704923 21.78105 
L 265.881795 21.78105 
L 265.987478 20.641423 
L 266.066572 20.641423 
L 266.066572 20.261548 
L 266.358815 20.261548 
L 266.358815 19.881672 
L 266.592295 19.881672 
L 266.592295 19.501796 
L 266.769167 19.501796 
L 266.803021 18.742045 
L 266.978328 18.742045 
L 266.978328 18.36217 
L 267.246186 18.36217 
L 267.246186 17.982294 
L 268.104446 17.982294 
L 268.104446 17.602418 
L 269.428826 17.602418 
L 269.428826 17.222543 
L 269.798521 17.222543 
L 269.798521 16.842667 
L 270.395405 16.842667 
L 270.395405 16.462791 
L 273.429227 16.462791 
L 273.505178 15.70304 
L 274.20467 15.70304 
L 274.20467 15.323165 
L 274.56522 15.323165 
L 274.574365 14.563413 
L 274.74732 14.563413 
L 274.74732 14.183538 
L 275.117016 14.183538 
L 275.171249 13.423787 
L 275.588261 13.423787 
L 275.588261 13.043911 
L 275.7139 13.043911 
L 275.7139 12.664035 
L 275.957957 12.664035 
L 275.957957 12.28416 
L 276.475633 12.28416 
L 276.55484 11.524409 
L 276.663612 11.524409 
L 276.663612 11.144533 
L 276.845328 11.144533 
L 276.845328 10.764657 
L 277.442212 10.764657 
L 277.442212 10.384782 
L 279.652356 10.384782 
L 279.652356 10.004906 
L 282.958483 10.004906 
L 282.958483 9.625031 
L 283.084963 9.625031 
L 283.084963 9.245155 
L 453.192 9.245155 
L 453.192 9.245155 
" clip-path="url(#p82e2af2f96)" style="fill: none; stroke: #bf00bf; stroke-width: 3; stroke-linecap: square"/>
   </g>
   <g id="line2d_22">
    <path clip-path="url(#p82e2af2f96)" style="fill: none; stroke: #bf00bf; stroke-width: 3; stroke-linecap: square"/>
   </g>
   <g id="line2d_23">
    <path d="M 34.16 162.841525 
L 139.946628 162.841525 
L 139.946628 162.453833 
L 149.715889 162.453833 
L 149.715889 162.066141 
L 150.366589 162.066141 
L 150.366589 161.678449 
L 157.261708 161.678449 
L 157.261708 161.290757 
L 160.135849 161.290757 
L 160.201939 160.515373 
L 167.681669 160.515373 
L 167.681669 160.127681 
L 170.621899 160.127681 
L 170.621899 159.739989 
L 173.000238 159.739989 
L 173.000238 159.352297 
L 174.056326 159.352297 
L 174.056326 158.964605 
L 176.279169 158.964605 
L 176.279169 158.576913 
L 177.79646 158.576913 
L 177.79646 158.189221 
L 180.461191 158.189221 
L 180.461191 157.801529 
L 180.587062 157.801529 
L 180.671092 156.638453 
L 181.07612 156.638453 
L 181.07612 156.250761 
L 181.626219 156.250761 
L 181.626219 155.863069 
L 181.811777 155.863069 
L 181.811777 155.475377 
L 183.213634 155.475377 
L 183.213634 155.087686 
L 183.420199 155.087686 
L 183.420199 154.699994 
L 184.476287 154.699994 
L 184.476287 154.312302 
L 186.699129 154.312302 
L 186.699129 153.92461 
L 188.216421 153.92461 
L 188.216421 153.536918 
L 188.599678 153.536918 
L 188.599678 153.149226 
L 190.808789 153.149226 
L 190.858019 152.373842 
L 191.007023 152.373842 
L 191.007023 151.98615 
L 191.145006 151.98615 
L 191.145006 151.598458 
L 191.39548 151.598458 
L 191.39548 151.210766 
L 191.581037 151.210766 
L 191.581037 150.823074 
L 191.73598 150.823074 
L 191.73598 150.435382 
L 192.493314 150.435382 
L 192.493314 150.04769 
L 192.982894 150.04769 
L 192.982894 149.659998 
L 197.577529 149.659998 
L 197.577529 149.272306 
L 197.95245 149.272306 
L 198.045992 148.496922 
L 198.182719 148.496922 
L 198.182719 148.10923 
L 198.941299 148.10923 
L 199.019639 146.946154 
L 199.126857 146.946154 
L 199.126857 146.558462 
L 199.560464 146.558462 
L 199.560464 146.17077 
L 200.528713 146.17077 
L 200.589035 145.395386 
L 200.985849 145.395386 
L 200.985849 145.007694 
L 201.88153 145.007694 
L 201.88153 144.620002 
L 202.067087 144.620002 
L 202.067087 144.23231 
L 203.468944 144.23231 
L 203.468944 143.844618 
L 205.158405 143.844618 
L 205.158405 143.456926 
L 205.863225 143.456926 
L 205.865007 142.681542 
L 207.346789 142.681542 
L 207.432878 141.906158 
L 207.72171 141.906158 
L 207.815253 141.130774 
L 207.95198 141.130774 
L 207.95198 140.743082 
L 208.770242 140.743082 
L 208.770242 140.35539 
L 209.329725 140.35539 
L 209.329725 139.967698 
L 210.358296 139.967698 
L 210.358296 139.580006 
L 213.015716 139.580006 
L 213.015716 139.192314 
L 213.573268 139.192314 
L 213.573268 138.804623 
L 214.67983 138.804623 
L 214.67983 138.416931 
L 214.865387 138.416931 
L 214.892609 137.641547 
L 215.267529 137.641547 
L 215.361072 136.866163 
L 215.488881 136.866163 
L 215.497799 136.090779 
L 215.735917 136.090779 
L 215.735917 135.703087 
L 215.921474 135.703087 
L 215.921474 135.315395 
L 216.267244 135.315395 
L 216.316062 134.540011 
L 216.875544 134.540011 
L 216.875544 134.152319 
L 217.323331 134.152319 
L 217.323331 133.764627 
L 217.499707 133.764627 
L 217.499707 133.376935 
L 217.832839 133.376935 
L 217.904115 132.601551 
L 217.95876 132.601551 
L 217.95876 132.213859 
L 218.144317 132.213859 
L 218.20776 131.438475 
L 218.301303 131.438475 
L 218.301303 131.050783 
L 218.43803 131.050783 
L 218.43803 130.663091 
L 219.256292 130.663091 
L 219.256292 130.275399 
L 219.476052 130.275399 
L 219.546174 129.500015 
L 219.661609 129.500015 
L 219.661609 129.112323 
L 219.815775 129.112323 
L 219.815775 128.724631 
L 220.844346 128.724631 
L 220.844346 128.336939 
L 221.063466 128.336939 
L 221.063466 127.949247 
L 222.266654 127.949247 
L 222.266654 127.561555 
L 222.452211 127.561555 
L 222.452211 127.173863 
L 222.784976 127.173863 
L 222.784976 126.786171 
L 223.342529 126.786171 
L 223.342529 126.398479 
L 223.854068 126.398479 
L 223.854068 126.010787 
L 225.592511 126.010787 
L 225.592511 125.623095 
L 225.837982 125.623095 
L 225.837982 125.235403 
L 226.013028 125.235403 
L 226.047883 124.460019 
L 226.452911 124.460019 
L 226.554197 123.684635 
L 226.647706 123.684635 
L 226.729242 122.909251 
L 226.764098 122.909251 
L 226.857607 121.746176 
L 227.169126 121.746176 
L 227.262635 120.970792 
L 227.860768 120.970792 
L 227.860768 120.5831 
L 228.035814 120.5831 
L 228.070669 119.807716 
L 228.409209 119.807716 
L 228.475697 119.032332 
L 228.70274 119.032332 
L 228.70274 118.64464 
L 228.877786 118.64464 
L 228.912641 117.869256 
L 229.317669 117.869256 
L 229.317669 117.481564 
L 229.666978 117.481564 
L 229.666978 117.093872 
L 229.842023 117.093872 
L 229.876879 116.318488 
L 230.27927 116.318488 
L 230.330796 115.155412 
L 230.420036 115.155412 
L 230.464827 114.380028 
L 230.631139 114.380028 
L 230.631139 113.992336 
L 230.888348 113.992336 
L 230.888348 113.604644 
L 231.00606 113.604644 
L 231.099603 112.82926 
L 231.236329 112.82926 
L 231.236329 112.441568 
L 231.687226 112.441568 
L 231.687226 112.053876 
L 231.866684 112.053876 
L 231.866684 111.666184 
L 232.054592 111.666184 
L 232.15569 110.503108 
L 232.292417 110.503108 
L 232.292417 110.115416 
L 232.614074 110.115416 
L 232.614074 109.727724 
L 233.110679 109.727724 
L 233.110679 109.340032 
L 233.271026 109.340032 
L 233.330442 108.564648 
L 233.642645 108.564648 
L 233.670162 107.789264 
L 233.828579 107.789264 
L 233.910069 107.01388 
L 233.982227 107.01388 
L 233.982227 106.626188 
L 234.28499 106.626188 
L 234.378533 105.850804 
L 234.51526 105.850804 
L 234.51526 105.463113 
L 234.698733 105.463113 
L 234.698733 105.075421 
L 235.333522 105.075421 
L 235.427361 103.524653 
L 235.802282 103.524653 
L 235.895825 102.361577 
L 236.032552 102.361577 
L 236.032552 101.973885 
L 236.18558 101.973885 
L 236.23481 101.198501 
L 236.521797 101.198501 
L 236.521797 100.810809 
L 236.850814 100.810809 
L 236.951024 99.260041 
L 236.995304 99.260041 
L 237.044534 98.484657 
L 237.112771 98.484657 
L 237.112771 98.096965 
L 237.238011 98.096965 
L 237.33152 97.321581 
L 237.410297 97.321581 
L 237.410297 96.933889 
L 237.828985 96.933889 
L 237.922494 95.770813 
L 238.208366 95.770813 
L 238.257596 94.220045 
L 238.385517 94.220045 
L 238.438868 93.056969 
L 238.544583 93.056969 
L 238.592884 91.893893 
L 238.679829 91.893893 
L 238.686427 91.118509 
L 238.823153 91.118509 
L 238.825401 90.343125 
L 238.969148 90.343125 
L 239.050338 89.567741 
L 239.099568 89.567741 
L 239.17905 88.016974 
L 239.386555 88.016974 
L 239.386555 87.629282 
L 239.584078 87.629282 
L 239.641416 86.853898 
L 239.762698 86.853898 
L 239.82483 86.078514 
L 239.892891 86.078514 
L 239.999875 84.527746 
L 240.014576 84.527746 
L 240.125583 82.589286 
L 240.200898 82.589286 
L 240.221937 81.813902 
L 240.350792 81.813902 
L 240.439759 80.263134 
L 240.530612 80.263134 
L 240.530612 79.875442 
L 240.734863 79.875442 
L 240.836866 79.100058 
L 240.941766 79.100058 
L 240.941766 78.712366 
L 241.22947 78.712366 
L 241.22947 78.324674 
L 241.699101 78.324674 
L 241.773525 77.54929 
L 242.907591 77.54929 
L 242.907591 77.161598 
L 245.847822 77.161598 
L 245.847822 76.773906 
L 246.069326 76.773906 
L 246.069326 76.386214 
L 246.230579 76.386214 
L 246.230579 75.998522 
L 246.362641 75.998522 
L 246.362641 75.61083 
L 246.6055 75.61083 
L 246.699043 74.447754 
L 246.83577 74.447754 
L 246.902556 73.67237 
L 247.078855 73.67237 
L 247.172364 72.509294 
L 247.654032 72.509294 
L 247.745323 71.346219 
L 248.213515 71.346219 
L 248.213515 70.958527 
L 248.385427 70.958527 
L 248.385427 70.570835 
L 248.558069 70.570835 
L 248.607299 69.795451 
L 248.894286 69.795451 
L 248.978578 69.020067 
L 249.227399 69.020067 
L 249.316746 67.856991 
L 249.348257 67.856991 
L 249.365976 67.081607 
L 249.48526 67.081607 
L 249.48526 66.693915 
L 249.652963 66.693915 
L 249.756149 65.918531 
L 249.905809 65.918531 
L 249.905809 65.530839 
L 250.172428 65.530839 
L 250.26328 63.204687 
L 250.31251 63.204687 
L 250.31251 62.816995 
L 250.508645 62.816995 
L 250.618765 60.490843 
L 250.727062 60.490843 
L 250.761917 59.715459 
L 250.865548 59.715459 
L 250.905752 58.940075 
L 250.989404 58.940075 
L 251.099619 57.776999 
L 251.166946 57.776999 
L 251.251411 55.450848 
L 251.283194 55.450848 
L 251.359837 54.287772 
L 251.394693 54.287772 
L 251.496726 52.349312 
L 251.799721 52.349312 
L 251.898123 50.798544 
L 251.947805 50.798544 
L 252.051522 48.860084 
L 252.25406 48.860084 
L 252.25406 48.472392 
L 252.557982 48.472392 
L 252.557982 48.0847 
L 252.809669 48.0847 
L 252.809669 47.697008 
L 253.262802 47.697008 
L 253.264584 46.921624 
L 253.399954 46.921624 
L 253.399954 46.533932 
L 253.525883 46.533932 
L 253.619393 45.758548 
L 253.65615 45.758548 
L 253.65615 45.370856 
L 254.08515 45.370856 
L 254.106556 44.20778 
L 254.213702 44.20778 
L 254.213702 43.820088 
L 254.343903 43.820088 
L 254.364192 43.044704 
L 254.832455 43.044704 
L 254.832455 42.657012 
L 255.069012 42.657012 
L 255.070794 41.881628 
L 255.674427 41.881628 
L 255.674427 41.493936 
L 256.095977 41.493936 
L 256.095977 41.106244 
L 256.354729 41.106244 
L 256.354729 40.718552 
L 256.638664 40.718552 
L 256.638664 40.33086 
L 257.46985 40.33086 
L 257.46985 39.943168 
L 258.256045 39.943168 
L 258.256045 39.555476 
L 258.646122 39.555476 
L 258.73513 38.780093 
L 259.480676 38.780093 
L 259.493807 38.004709 
L 259.702209 38.004709 
L 259.702209 37.617017 
L 260.348493 37.617017 
L 260.440341 36.453941 
L 260.746596 36.453941 
L 260.746596 36.066249 
L 260.899614 36.066249 
L 260.948844 35.290865 
L 261.235831 35.290865 
L 261.235831 34.903173 
L 261.53239 34.903173 
L 261.630791 33.740097 
L 261.668766 33.740097 
L 261.680021 32.964713 
L 261.826805 32.964713 
L 261.925052 31.801637 
L 261.967008 31.801637 
L 261.967008 31.413945 
L 262.226318 31.413945 
L 262.226318 31.026253 
L 262.359319 31.026253 
L 262.459581 30.250869 
L 262.557982 30.250869 
L 262.584139 29.475485 
L 262.907685 29.475485 
L 262.907685 29.087793 
L 263.216915 29.087793 
L 263.315317 28.312409 
L 263.442344 28.312409 
L 263.442344 27.924717 
L 263.612506 27.924717 
L 263.715461 25.986257 
L 264.371183 25.986257 
L 264.372965 25.210873 
L 264.522044 25.210873 
L 264.612896 24.435489 
L 264.919151 24.435489 
L 264.919151 24.047797 
L 265.182158 24.047797 
L 265.228646 22.884721 
L 265.317717 22.884721 
L 265.319498 22.109338 
L 265.623971 22.109338 
L 265.726287 20.55857 
L 265.940835 20.55857 
L 265.940835 20.170878 
L 266.232946 20.170878 
L 266.238669 19.395494 
L 266.796517 19.395494 
L 266.887369 18.62011 
L 267.193624 18.62011 
L 267.193624 18.232418 
L 267.471924 18.232418 
L 267.471924 17.844726 
L 271.076675 17.844726 
L 271.076675 17.457034 
L 271.709451 17.457034 
L 271.807852 16.68165 
L 272.578497 16.68165 
L 272.578497 16.293958 
L 272.83725 16.293958 
L 272.83725 15.906266 
L 274.245562 15.906266 
L 274.245562 15.518574 
L 275.249231 15.518574 
L 275.249231 15.130882 
L 275.882006 15.130882 
L 275.980408 13.192422 
L 276.586826 13.192422 
L 276.68701 11.641654 
L 277.523703 11.641654 
L 277.523703 11.253962 
L 278.156479 11.253962 
L 278.25488 10.478578 
L 278.84184 10.478578 
L 278.84184 10.090886 
L 282.161407 10.090886 
L 282.208807 9.315502 
L 453.192 9.315502 
L 453.192 9.315502 
" clip-path="url(#p82e2af2f96)" style="fill: none; stroke: #ff0000; stroke-width: 3; stroke-linecap: square"/>
   </g>
   <g id="line2d_24">
    <path clip-path="url(#p82e2af2f96)" style="fill: none; stroke: #ff0000; stroke-width: 3; stroke-linecap: square"/>
   </g>
   <g id="line2d_25">
    <path d="M 243.676 291.28 
L 243.676 3 
" clip-path="url(#p82e2af2f96)" style="fill: none; stroke: #000000; stroke-width: 1.5; stroke-linecap: square"/>
   </g>
   <g id="line2d_26">
    <path d="M 34.16 147.14 
L 453.192 147.14 
" clip-path="url(#p82e2af2f96)" style="fill: none; stroke-dasharray: 2,3.3; stroke-dashoffset: 0; stroke: #000000; stroke-width: 2"/>
   </g>
   <g id="patch_3">
    <path d="M 34.16 291.28 
L 34.16 3 
" style="fill: none; stroke: #000000; stroke-width: 0.8; stroke-linejoin: miter; stroke-linecap: square"/>
   </g>
   <g id="patch_4">
    <path d="M 453.192 291.28 
L 453.192 3 
" style="fill: none; stroke: #000000; stroke-width: 0.8; stroke-linejoin: miter; stroke-linecap: square"/>
   </g>
   <g id="patch_5">
    <path d="M 34.16 291.28 
L 453.192 291.28 
" style="fill: none; stroke: #000000; stroke-width: 0.8; stroke-linejoin: miter; stroke-linecap: square"/>
   </g>
   <g id="patch_6">
    <path d="M 34.16 3 
L 453.192 3 
" style="fill: none; stroke: #000000; stroke-width: 0.8; stroke-linejoin: miter; stroke-linecap: square"/>
   </g>
   <g id="text_6">
    <!-- f20-f24,10-D -->
    <g transform="translate(318.19261 285.5144) scale(0.2 -0.2)">
     <defs>
      <path id="DejaVuSans-34" d="M 2419 4116 
L 825 1625 
L 2419 1625 
L 2419 4116 
z
M 2253 4666 
L 3047 4666 
L 3047 1625 
L 3713 1625 
L 3713 1100 
L 3047 1100 
L 3047 0 
L 2419 0 
L 2419 1100 
L 313 1100 
L 313 1709 
L 2253 4666 
z
" transform="scale(0.015625)"/>
      <path id="DejaVuSans-2c" d="M 750 794 
L 1409 794 
L 1409 256 
L 897 -744 
L 494 -744 
L 750 256 
L 750 794 
z
" transform="scale(0.015625)"/>
      <path id="DejaVuSans-44" d="M 1259 4147 
L 1259 519 
L 2022 519 
Q 2988 519 3436 956 
Q 3884 1394 3884 2338 
Q 3884 3275 3436 3711 
Q 2988 4147 2022 4147 
L 1259 4147 
z
M 628 4666 
L 1925 4666 
Q 3281 4666 3915 4102 
Q 4550 3538 4550 2338 
Q 4550 1131 3912 565 
Q 3275 0 1925 0 
L 628 0 
L 628 4666 
z
" transform="scale(0.015625)"/>
     </defs>
     <use xlink:href="#DejaVuSans-66"/>
     <use xlink:href="#DejaVuSans-32" x="35.205078"/>
     <use xlink:href="#DejaVuSans-30" x="98.828125"/>
     <use xlink:href="#DejaVuSans-2d" x="162.451172"/>
     <use xlink:href="#DejaVuSans-66" x="198.535156"/>
     <use xlink:href="#DejaVuSans-32" x="233.740234"/>
     <use xlink:href="#DejaVuSans-34" x="297.363281"/>
     <use xlink:href="#DejaVuSans-2c" x="360.986328"/>
     <use xlink:href="#DejaVuSans-31" x="392.773438"/>
     <use xlink:href="#DejaVuSans-30" x="456.396484"/>
     <use xlink:href="#DejaVuSans-2d" x="520.019531"/>
     <use xlink:href="#DejaVuSans-44" x="556.103516"/>
    </g>
   </g>
   <g id="text_7">
    <!-- v2.6.3 -->
    <g style="fill: #808080" transform="translate(227.99475 286.317512) scale(0.1 -0.1)">
     <defs>
      <path id="DejaVuSans-2e" d="M 684 794 
L 1344 794 
L 1344 0 
L 684 0 
L 684 794 
z
" transform="scale(0.015625)"/>
      <path id="DejaVuSans-36" d="M 2113 2584 
Q 1688 2584 1439 2293 
Q 1191 2003 1191 1497 
Q 1191 994 1439 701 
Q 1688 409 2113 409 
Q 2538 409 2786 701 
Q 3034 994 3034 1497 
Q 3034 2003 2786 2293 
Q 2538 2584 2113 2584 
z
M 3366 4563 
L 3366 3988 
Q 3128 4100 2886 4159 
Q 2644 4219 2406 4219 
Q 1781 4219 1451 3797 
Q 1122 3375 1075 2522 
Q 1259 2794 1537 2939 
Q 1816 3084 2150 3084 
Q 2853 3084 3261 2657 
Q 3669 2231 3669 1497 
Q 3669 778 3244 343 
Q 2819 -91 2113 -91 
Q 1303 -91 875 529 
Q 447 1150 447 2328 
Q 447 3434 972 4092 
Q 1497 4750 2381 4750 
Q 2619 4750 2861 4703 
Q 3103 4656 3366 4563 
z
" transform="scale(0.015625)"/>
      <path id="DejaVuSans-33" d="M 2597 2516 
Q 3050 2419 3304 2112 
Q 3559 1806 3559 1356 
Q 3559 666 3084 287 
Q 2609 -91 1734 -91 
Q 1441 -91 1130 -33 
Q 819 25 488 141 
L 488 750 
Q 750 597 1062 519 
Q 1375 441 1716 441 
Q 2309 441 2620 675 
Q 2931 909 2931 1356 
Q 2931 1769 2642 2001 
Q 2353 2234 1838 2234 
L 1294 2234 
L 1294 2753 
L 1863 2753 
Q 2328 2753 2575 2939 
Q 2822 3125 2822 3475 
Q 2822 3834 2567 4026 
Q 2313 4219 1838 4219 
Q 1578 4219 1281 4162 
Q 984 4106 628 3988 
L 628 4550 
Q 988 4650 1302 4700 
Q 1616 4750 1894 4750 
Q 2613 4750 3031 4423 
Q 3450 4097 3450 3541 
Q 3450 3153 3228 2886 
Q 3006 2619 2597 2516 
z
" transform="scale(0.015625)"/>
     </defs>
     <use xlink:href="#DejaVuSans-76"/>
     <use xlink:href="#DejaVuSans-32" x="59.179688"/>
     <use xlink:href="#DejaVuSans-2e" x="122.802734"/>
     <use xlink:href="#DejaVuSans-36" x="154.589844"/>
     <use xlink:href="#DejaVuSans-2e" x="218.212891"/>
     <use xlink:href="#DejaVuSans-33" x="250"/>
    </g>
   </g>
   <g id="legend_1">
    <g id="patch_7">
     <path d="M 48.16 136.425 
L 177.381875 136.425 
Q 181.381875 136.425 181.381875 132.425 
L 181.381875 17 
Q 181.381875 13 177.381875 13 
L 48.16 13 
Q 44.16 13 44.16 17 
L 44.16 132.425 
Q 44.16 136.425 48.16 136.425 
z
" style="fill: #ffffff; opacity: 0.2; stroke: #cccccc; stroke-linejoin: miter"/>
    </g>
    <g id="line2d_27">
     <path d="M 52.16 29.196875 
L 72.16 29.196875 
L 92.16 29.196875 
" style="fill: none; stroke: #000000; stroke-width: 3; stroke-linecap: square"/>
    </g>
    <g id="text_8">
     <!-- 1: 5/5 -->
     <g transform="translate(108.16 36.196875) scale(0.2 -0.2)">
      <defs>
       <path id="DejaVuSans-3a" d="M 750 794 
L 1409 794 
L 1409 0 
L 750 0 
L 750 794 
z
M 750 3309 
L 1409 3309 
L 1409 2516 
L 750 2516 
L 750 3309 
z
" transform="scale(0.015625)"/>
       <path id="DejaVuSans-35" d="M 691 4666 
L 3169 4666 
L 3169 4134 
L 1269 4134 
L 1269 2991 
Q 1406 3038 1543 3061 
Q 1681 3084 1819 3084 
Q 2600 3084 3056 2656 
Q 3513 2228 3513 1497 
Q 3513 744 3044 326 
Q 2575 -91 1722 -91 
Q 1428 -91 1123 -41 
Q 819 9 494 109 
L 494 744 
Q 775 591 1075 516 
Q 1375 441 1709 441 
Q 2250 441 2565 725 
Q 2881 1009 2881 1497 
Q 2881 1984 2565 2268 
Q 2250 2553 1709 2553 
Q 1456 2553 1204 2497 
Q 953 2441 691 2322 
L 691 4666 
z
" transform="scale(0.015625)"/>
       <path id="DejaVuSans-2f" d="M 1625 4666 
L 2156 4666 
L 531 -594 
L 0 -594 
L 1625 4666 
z
" transform="scale(0.015625)"/>
      </defs>
      <use xlink:href="#DejaVuSans-31"/>
      <use xlink:href="#DejaVuSans-3a" x="63.623047"/>
      <use xlink:href="#DejaVuSans-20" x="97.314453"/>
      <use xlink:href="#DejaVuSans-35" x="129.101562"/>
      <use xlink:href="#DejaVuSans-2f" x="192.724609"/>
      <use xlink:href="#DejaVuSans-35" x="226.416016"/>
     </g>
    </g>
    <g id="line2d_28">
     <path d="M 52.16 58.553125 
L 72.16 58.553125 
L 92.16 58.553125 
" style="fill: none; stroke: #00bfbf; stroke-width: 3; stroke-linecap: square"/>
    </g>
    <g id="text_9">
     <!-- -1: 4/3 -->
     <g transform="translate(108.16 65.553125) scale(0.2 -0.2)">
      <use xlink:href="#DejaVuSans-2d"/>
      <use xlink:href="#DejaVuSans-31" x="36.083984"/>
      <use xlink:href="#DejaVuSans-3a" x="99.707031"/>
      <use xlink:href="#DejaVuSans-20" x="133.398438"/>
      <use xlink:href="#DejaVuSans-34" x="165.185547"/>
      <use xlink:href="#DejaVuSans-2f" x="228.808594"/>
      <use xlink:href="#DejaVuSans-33" x="262.5"/>
     </g>
    </g>
    <g id="line2d_29">
     <path d="M 52.16 87.909375 
L 72.16 87.909375 
L 92.16 87.909375 
" style="fill: none; stroke: #bf00bf; stroke-width: 3; stroke-linecap: square"/>
    </g>
    <g id="text_10">
     <!-- -4: 4/3 -->
     <g transform="translate(108.16 94.909375) scale(0.2 -0.2)">
      <use xlink:href="#DejaVuSans-2d"/>
      <use xlink:href="#DejaVuSans-34" x="36.083984"/>
      <use xlink:href="#DejaVuSans-3a" x="99.707031"/>
      <use xlink:href="#DejaVuSans-20" x="133.398438"/>
      <use xlink:href="#DejaVuSans-34" x="165.185547"/>
      <use xlink:href="#DejaVuSans-2f" x="228.808594"/>
      <use xlink:href="#DejaVuSans-33" x="262.5"/>
     </g>
    </g>
    <g id="line2d_30">
     <path d="M 52.16 117.265625 
L 72.16 117.265625 
L 92.16 117.265625 
" style="fill: none; stroke: #ff0000; stroke-width: 3; stroke-linecap: square"/>
    </g>
    <g id="text_11">
     <!-- -8: 4/3 -->
     <g transform="translate(108.16 124.265625) scale(0.2 -0.2)">
      <defs>
       <path id="DejaVuSans-38" d="M 2034 2216 
Q 1584 2216 1326 1975 
Q 1069 1734 1069 1313 
Q 1069 891 1326 650 
Q 1584 409 2034 409 
Q 2484 409 2743 651 
Q 3003 894 3003 1313 
Q 3003 1734 2745 1975 
Q 2488 2216 2034 2216 
z
M 1403 2484 
Q 997 2584 770 2862 
Q 544 3141 544 3541 
Q 544 4100 942 4425 
Q 1341 4750 2034 4750 
Q 2731 4750 3128 4425 
Q 3525 4100 3525 3541 
Q 3525 3141 3298 2862 
Q 3072 2584 2669 2484 
Q 3125 2378 3379 2068 
Q 3634 1759 3634 1313 
Q 3634 634 3220 271 
Q 2806 -91 2034 -91 
Q 1263 -91 848 271 
Q 434 634 434 1313 
Q 434 1759 690 2068 
Q 947 2378 1403 2484 
z
M 1172 3481 
Q 1172 3119 1398 2916 
Q 1625 2713 2034 2713 
Q 2441 2713 2670 2916 
Q 2900 3119 2900 3481 
Q 2900 3844 2670 4047 
Q 2441 4250 2034 4250 
Q 1625 4250 1398 4047 
Q 1172 3844 1172 3481 
z
" transform="scale(0.015625)"/>
      </defs>
      <use xlink:href="#DejaVuSans-2d"/>
      <use xlink:href="#DejaVuSans-38" x="36.083984"/>
      <use xlink:href="#DejaVuSans-3a" x="99.707031"/>
      <use xlink:href="#DejaVuSans-20" x="133.398438"/>
      <use xlink:href="#DejaVuSans-34" x="165.185547"/>
      <use xlink:href="#DejaVuSans-2f" x="228.808594"/>
      <use xlink:href="#DejaVuSans-33" x="262.5"/>
     </g>
    </g>
   </g>
  </g>
 </g>
 <defs>
  <clipPath id="p82e2af2f96">
   <rect x="34.16" y="3" width="419.032" height="288.28"/>
  </clipPath>
 </defs>
</svg>
