<?xml version="1.0" encoding="utf-8" standalone="no"?>
<!DOCTYPE svg PUBLIC "-//W3C//DTD SVG 1.1//EN"
  "http://www.w3.org/Graphics/SVG/1.1/DTD/svg11.dtd">
<svg xmlns:xlink="http://www.w3.org/1999/xlink" width="460.8pt" height="345.6pt" viewBox="0 0 460.8 345.6" xmlns="http://www.w3.org/2000/svg" version="1.1">
 <metadata>
  <rdf:RDF xmlns:dc="http://purl.org/dc/elements/1.1/" xmlns:cc="http://creativecommons.org/ns#" xmlns:rdf="http://www.w3.org/1999/02/22-rdf-syntax-ns#">
   <cc:Work>
    <dc:type rdf:resource="http://purl.org/dc/dcmitype/StillImage"/>
    <dc:date>2024-06-07T14:23:11.622748</dc:date>
    <dc:format>image/svg+xml</dc:format>
    <dc:creator>
     <cc:Agent>
      <dc:title>Matplotlib v3.7.1, https://matplotlib.org/</dc:title>
     </cc:Agent>
    </dc:creator>
   </cc:Work>
  </rdf:RDF>
 </metadata>
 <defs>
  <style type="text/css">*{stroke-linejoin: round; stroke-linecap: butt}</style>
 </defs>
 <g id="figure_1">
  <g id="patch_1">
   <path d="M 0 345.6 
L 460.8 345.6 
L 460.8 0 
L 0 0 
z
" style="fill: #ffffff"/>
  </g>
  <g id="axes_1">
   <g id="patch_2">
    <path d="M 34.16 291.28 
L 453.192 291.28 
L 453.192 3 
L 34.16 3 
z
" style="fill: #ffffff"/>
   </g>
   <g id="matplotlib.axis_1">
    <g id="xtick_1">
     <g id="line2d_1">
      <path d="M 157.645686 291.28 
L 157.645686 3 
" clip-path="url(#p44ae8249b5)" style="fill: none; stroke: #b0b0b0; stroke-width: 0.8; stroke-linecap: square"/>
     </g>
     <g id="line2d_2">
      <defs>
       <path id="md273192c9f" d="M 0 0 
L 0 3.5 
" style="stroke: #000000; stroke-width: 0.8"/>
      </defs>
      <g>
       <use xlink:href="#md273192c9f" x="157.645686" y="291.28" style="stroke: #000000; stroke-width: 0.8"/>
      </g>
     </g>
     <g id="text_1">
      <!-- -1 -->
      <g transform="translate(147.675374 313.476875) scale(0.2 -0.2)">
       <defs>
        <path id="DejaVuSans-2d" d="M 313 2009 
L 1997 2009 
L 1997 1497 
L 313 1497 
L 313 2009 
z
" transform="scale(0.015625)"/>
        <path id="DejaVuSans-31" d="M 794 531 
L 1825 531 
L 1825 4091 
L 703 3866 
L 703 4441 
L 1819 4666 
L 2450 4666 
L 2450 531 
L 3481 531 
L 3481 0 
L 794 0 
L 794 531 
z
" transform="scale(0.015625)"/>
       </defs>
       <use xlink:href="#DejaVuSans-2d"/>
       <use xlink:href="#DejaVuSans-31" x="36.083984"/>
      </g>
     </g>
    </g>
    <g id="xtick_2">
     <g id="line2d_3">
      <path d="M 329.706314 291.28 
L 329.706314 3 
" clip-path="url(#p44ae8249b5)" style="fill: none; stroke: #b0b0b0; stroke-width: 0.8; stroke-linecap: square"/>
     </g>
     <g id="line2d_4">
      <g>
       <use xlink:href="#md273192c9f" x="329.706314" y="291.28" style="stroke: #000000; stroke-width: 0.8"/>
      </g>
     </g>
     <g id="text_2">
      <!-- 1 -->
      <g transform="translate(323.343814 313.476875) scale(0.2 -0.2)">
       <use xlink:href="#DejaVuSans-31"/>
      </g>
     </g>
    </g>
    <g id="xtick_3">
     <g id="line2d_5">
      <defs>
       <path id="mfb64a7955e" d="M 0 0 
L 0 2 
" style="stroke: #000000; stroke-width: 0.6"/>
      </defs>
      <g>
       <use xlink:href="#mfb64a7955e" x="37.380469" y="291.28" style="stroke: #000000; stroke-width: 0.6"/>
      </g>
     </g>
    </g>
    <g id="xtick_4">
     <g id="line2d_6">
      <g>
       <use xlink:href="#mfb64a7955e" x="45.717668" y="291.28" style="stroke: #000000; stroke-width: 0.6"/>
      </g>
     </g>
    </g>
    <g id="xtick_5">
     <g id="line2d_7">
      <g>
       <use xlink:href="#mfb64a7955e" x="52.529655" y="291.28" style="stroke: #000000; stroke-width: 0.6"/>
      </g>
     </g>
    </g>
    <g id="xtick_6">
     <g id="line2d_8">
      <g>
       <use xlink:href="#mfb64a7955e" x="58.289108" y="291.28" style="stroke: #000000; stroke-width: 0.6"/>
      </g>
     </g>
    </g>
    <g id="xtick_7">
     <g id="line2d_9">
      <g>
       <use xlink:href="#mfb64a7955e" x="63.278174" y="291.28" style="stroke: #000000; stroke-width: 0.6"/>
      </g>
     </g>
    </g>
    <g id="xtick_8">
     <g id="line2d_10">
      <g>
       <use xlink:href="#mfb64a7955e" x="67.678841" y="291.28" style="stroke: #000000; stroke-width: 0.6"/>
      </g>
     </g>
    </g>
    <g id="xtick_9">
     <g id="line2d_11">
      <g>
       <use xlink:href="#mfb64a7955e" x="97.513078" y="291.28" style="stroke: #000000; stroke-width: 0.6"/>
      </g>
     </g>
    </g>
    <g id="xtick_10">
     <g id="line2d_12">
      <g>
       <use xlink:href="#mfb64a7955e" x="112.662264" y="291.28" style="stroke: #000000; stroke-width: 0.6"/>
      </g>
     </g>
    </g>
    <g id="xtick_11">
     <g id="line2d_13">
      <g>
       <use xlink:href="#mfb64a7955e" x="123.410783" y="291.28" style="stroke: #000000; stroke-width: 0.6"/>
      </g>
     </g>
    </g>
    <g id="xtick_12">
     <g id="line2d_14">
      <g>
       <use xlink:href="#mfb64a7955e" x="131.747981" y="291.28" style="stroke: #000000; stroke-width: 0.6"/>
      </g>
     </g>
    </g>
    <g id="xtick_13">
     <g id="line2d_15">
      <g>
       <use xlink:href="#mfb64a7955e" x="138.559969" y="291.28" style="stroke: #000000; stroke-width: 0.6"/>
      </g>
     </g>
    </g>
    <g id="xtick_14">
     <g id="line2d_16">
      <g>
       <use xlink:href="#mfb64a7955e" x="144.319422" y="291.28" style="stroke: #000000; stroke-width: 0.6"/>
      </g>
     </g>
    </g>
    <g id="xtick_15">
     <g id="line2d_17">
      <g>
       <use xlink:href="#mfb64a7955e" x="149.308488" y="291.28" style="stroke: #000000; stroke-width: 0.6"/>
      </g>
     </g>
    </g>
    <g id="xtick_16">
     <g id="line2d_18">
      <g>
       <use xlink:href="#mfb64a7955e" x="153.709155" y="291.28" style="stroke: #000000; stroke-width: 0.6"/>
      </g>
     </g>
    </g>
    <g id="xtick_17">
     <g id="line2d_19">
      <g>
       <use xlink:href="#mfb64a7955e" x="183.543391" y="291.28" style="stroke: #000000; stroke-width: 0.6"/>
      </g>
     </g>
    </g>
    <g id="xtick_18">
     <g id="line2d_20">
      <g>
       <use xlink:href="#mfb64a7955e" x="198.692578" y="291.28" style="stroke: #000000; stroke-width: 0.6"/>
      </g>
     </g>
    </g>
    <g id="xtick_19">
     <g id="line2d_21">
      <g>
       <use xlink:href="#mfb64a7955e" x="209.441096" y="291.28" style="stroke: #000000; stroke-width: 0.6"/>
      </g>
     </g>
    </g>
    <g id="xtick_20">
     <g id="line2d_22">
      <g>
       <use xlink:href="#mfb64a7955e" x="217.778295" y="291.28" style="stroke: #000000; stroke-width: 0.6"/>
      </g>
     </g>
    </g>
    <g id="xtick_21">
     <g id="line2d_23">
      <g>
       <use xlink:href="#mfb64a7955e" x="224.590282" y="291.28" style="stroke: #000000; stroke-width: 0.6"/>
      </g>
     </g>
    </g>
    <g id="xtick_22">
     <g id="line2d_24">
      <g>
       <use xlink:href="#mfb64a7955e" x="230.349736" y="291.28" style="stroke: #000000; stroke-width: 0.6"/>
      </g>
     </g>
    </g>
    <g id="xtick_23">
     <g id="line2d_25">
      <g>
       <use xlink:href="#mfb64a7955e" x="235.338801" y="291.28" style="stroke: #000000; stroke-width: 0.6"/>
      </g>
     </g>
    </g>
    <g id="xtick_24">
     <g id="line2d_26">
      <g>
       <use xlink:href="#mfb64a7955e" x="239.739469" y="291.28" style="stroke: #000000; stroke-width: 0.6"/>
      </g>
     </g>
    </g>
    <g id="xtick_25">
     <g id="line2d_27">
      <g>
       <use xlink:href="#mfb64a7955e" x="269.573705" y="291.28" style="stroke: #000000; stroke-width: 0.6"/>
      </g>
     </g>
    </g>
    <g id="xtick_26">
     <g id="line2d_28">
      <g>
       <use xlink:href="#mfb64a7955e" x="284.722891" y="291.28" style="stroke: #000000; stroke-width: 0.6"/>
      </g>
     </g>
    </g>
    <g id="xtick_27">
     <g id="line2d_29">
      <g>
       <use xlink:href="#mfb64a7955e" x="295.47141" y="291.28" style="stroke: #000000; stroke-width: 0.6"/>
      </g>
     </g>
    </g>
    <g id="xtick_28">
     <g id="line2d_30">
      <g>
       <use xlink:href="#mfb64a7955e" x="303.808609" y="291.28" style="stroke: #000000; stroke-width: 0.6"/>
      </g>
     </g>
    </g>
    <g id="xtick_29">
     <g id="line2d_31">
      <g>
       <use xlink:href="#mfb64a7955e" x="310.620596" y="291.28" style="stroke: #000000; stroke-width: 0.6"/>
      </g>
     </g>
    </g>
    <g id="xtick_30">
     <g id="line2d_32">
      <g>
       <use xlink:href="#mfb64a7955e" x="316.380049" y="291.28" style="stroke: #000000; stroke-width: 0.6"/>
      </g>
     </g>
    </g>
    <g id="xtick_31">
     <g id="line2d_33">
      <g>
       <use xlink:href="#mfb64a7955e" x="321.369115" y="291.28" style="stroke: #000000; stroke-width: 0.6"/>
      </g>
     </g>
    </g>
    <g id="xtick_32">
     <g id="line2d_34">
      <g>
       <use xlink:href="#mfb64a7955e" x="325.769782" y="291.28" style="stroke: #000000; stroke-width: 0.6"/>
      </g>
     </g>
    </g>
    <g id="xtick_33">
     <g id="line2d_35">
      <g>
       <use xlink:href="#mfb64a7955e" x="355.604019" y="291.28" style="stroke: #000000; stroke-width: 0.6"/>
      </g>
     </g>
    </g>
    <g id="xtick_34">
     <g id="line2d_36">
      <g>
       <use xlink:href="#mfb64a7955e" x="370.753205" y="291.28" style="stroke: #000000; stroke-width: 0.6"/>
      </g>
     </g>
    </g>
    <g id="xtick_35">
     <g id="line2d_37">
      <g>
       <use xlink:href="#mfb64a7955e" x="381.501724" y="291.28" style="stroke: #000000; stroke-width: 0.6"/>
      </g>
     </g>
    </g>
    <g id="xtick_36">
     <g id="line2d_38">
      <g>
       <use xlink:href="#mfb64a7955e" x="389.838922" y="291.28" style="stroke: #000000; stroke-width: 0.6"/>
      </g>
     </g>
    </g>
    <g id="xtick_37">
     <g id="line2d_39">
      <g>
       <use xlink:href="#mfb64a7955e" x="396.65091" y="291.28" style="stroke: #000000; stroke-width: 0.6"/>
      </g>
     </g>
    </g>
    <g id="xtick_38">
     <g id="line2d_40">
      <g>
       <use xlink:href="#mfb64a7955e" x="402.410363" y="291.28" style="stroke: #000000; stroke-width: 0.6"/>
      </g>
     </g>
    </g>
    <g id="xtick_39">
     <g id="line2d_41">
      <g>
       <use xlink:href="#mfb64a7955e" x="407.399429" y="291.28" style="stroke: #000000; stroke-width: 0.6"/>
      </g>
     </g>
    </g>
    <g id="xtick_40">
     <g id="line2d_42">
      <g>
       <use xlink:href="#mfb64a7955e" x="411.800096" y="291.28" style="stroke: #000000; stroke-width: 0.6"/>
      </g>
     </g>
    </g>
    <g id="xtick_41">
     <g id="line2d_43">
      <g>
       <use xlink:href="#mfb64a7955e" x="441.634332" y="291.28" style="stroke: #000000; stroke-width: 0.6"/>
      </g>
     </g>
    </g>
    <g id="text_3">
     <!-- log10 of FEvals ratio -->
     <g transform="translate(141.371312 336.833125) scale(0.2 -0.2)">
      <defs>
       <path id="DejaVuSans-6c" d="M 603 4863 
L 1178 4863 
L 1178 0 
L 603 0 
L 603 4863 
z
" transform="scale(0.015625)"/>
       <path id="DejaVuSans-6f" d="M 1959 3097 
Q 1497 3097 1228 2736 
Q 959 2375 959 1747 
Q 959 1119 1226 758 
Q 1494 397 1959 397 
Q 2419 397 2687 759 
Q 2956 1122 2956 1747 
Q 2956 2369 2687 2733 
Q 2419 3097 1959 3097 
z
M 1959 3584 
Q 2709 3584 3137 3096 
Q 3566 2609 3566 1747 
Q 3566 888 3137 398 
Q 2709 -91 1959 -91 
Q 1206 -91 779 398 
Q 353 888 353 1747 
Q 353 2609 779 3096 
Q 1206 3584 1959 3584 
z
" transform="scale(0.015625)"/>
       <path id="DejaVuSans-67" d="M 2906 1791 
Q 2906 2416 2648 2759 
Q 2391 3103 1925 3103 
Q 1463 3103 1205 2759 
Q 947 2416 947 1791 
Q 947 1169 1205 825 
Q 1463 481 1925 481 
Q 2391 481 2648 825 
Q 2906 1169 2906 1791 
z
M 3481 434 
Q 3481 -459 3084 -895 
Q 2688 -1331 1869 -1331 
Q 1566 -1331 1297 -1286 
Q 1028 -1241 775 -1147 
L 775 -588 
Q 1028 -725 1275 -790 
Q 1522 -856 1778 -856 
Q 2344 -856 2625 -561 
Q 2906 -266 2906 331 
L 2906 616 
Q 2728 306 2450 153 
Q 2172 0 1784 0 
Q 1141 0 747 490 
Q 353 981 353 1791 
Q 353 2603 747 3093 
Q 1141 3584 1784 3584 
Q 2172 3584 2450 3431 
Q 2728 3278 2906 2969 
L 2906 3500 
L 3481 3500 
L 3481 434 
z
" transform="scale(0.015625)"/>
       <path id="DejaVuSans-30" d="M 2034 4250 
Q 1547 4250 1301 3770 
Q 1056 3291 1056 2328 
Q 1056 1369 1301 889 
Q 1547 409 2034 409 
Q 2525 409 2770 889 
Q 3016 1369 3016 2328 
Q 3016 3291 2770 3770 
Q 2525 4250 2034 4250 
z
M 2034 4750 
Q 2819 4750 3233 4129 
Q 3647 3509 3647 2328 
Q 3647 1150 3233 529 
Q 2819 -91 2034 -91 
Q 1250 -91 836 529 
Q 422 1150 422 2328 
Q 422 3509 836 4129 
Q 1250 4750 2034 4750 
z
" transform="scale(0.015625)"/>
       <path id="DejaVuSans-20" transform="scale(0.015625)"/>
       <path id="DejaVuSans-66" d="M 2375 4863 
L 2375 4384 
L 1825 4384 
Q 1516 4384 1395 4259 
Q 1275 4134 1275 3809 
L 1275 3500 
L 2222 3500 
L 2222 3053 
L 1275 3053 
L 1275 0 
L 697 0 
L 697 3053 
L 147 3053 
L 147 3500 
L 697 3500 
L 697 3744 
Q 697 4328 969 4595 
Q 1241 4863 1831 4863 
L 2375 4863 
z
" transform="scale(0.015625)"/>
       <path id="DejaVuSans-46" d="M 628 4666 
L 3309 4666 
L 3309 4134 
L 1259 4134 
L 1259 2759 
L 3109 2759 
L 3109 2228 
L 1259 2228 
L 1259 0 
L 628 0 
L 628 4666 
z
" transform="scale(0.015625)"/>
       <path id="DejaVuSans-45" d="M 628 4666 
L 3578 4666 
L 3578 4134 
L 1259 4134 
L 1259 2753 
L 3481 2753 
L 3481 2222 
L 1259 2222 
L 1259 531 
L 3634 531 
L 3634 0 
L 628 0 
L 628 4666 
z
" transform="scale(0.015625)"/>
       <path id="DejaVuSans-76" d="M 191 3500 
L 800 3500 
L 1894 563 
L 2988 3500 
L 3597 3500 
L 2284 0 
L 1503 0 
L 191 3500 
z
" transform="scale(0.015625)"/>
       <path id="DejaVuSans-61" d="M 2194 1759 
Q 1497 1759 1228 1600 
Q 959 1441 959 1056 
Q 959 750 1161 570 
Q 1363 391 1709 391 
Q 2188 391 2477 730 
Q 2766 1069 2766 1631 
L 2766 1759 
L 2194 1759 
z
M 3341 1997 
L 3341 0 
L 2766 0 
L 2766 531 
Q 2569 213 2275 61 
Q 1981 -91 1556 -91 
Q 1019 -91 701 211 
Q 384 513 384 1019 
Q 384 1609 779 1909 
Q 1175 2209 1959 2209 
L 2766 2209 
L 2766 2266 
Q 2766 2663 2505 2880 
Q 2244 3097 1772 3097 
Q 1472 3097 1187 3025 
Q 903 2953 641 2809 
L 641 3341 
Q 956 3463 1253 3523 
Q 1550 3584 1831 3584 
Q 2591 3584 2966 3190 
Q 3341 2797 3341 1997 
z
" transform="scale(0.015625)"/>
       <path id="DejaVuSans-73" d="M 2834 3397 
L 2834 2853 
Q 2591 2978 2328 3040 
Q 2066 3103 1784 3103 
Q 1356 3103 1142 2972 
Q 928 2841 928 2578 
Q 928 2378 1081 2264 
Q 1234 2150 1697 2047 
L 1894 2003 
Q 2506 1872 2764 1633 
Q 3022 1394 3022 966 
Q 3022 478 2636 193 
Q 2250 -91 1575 -91 
Q 1294 -91 989 -36 
Q 684 19 347 128 
L 347 722 
Q 666 556 975 473 
Q 1284 391 1588 391 
Q 1994 391 2212 530 
Q 2431 669 2431 922 
Q 2431 1156 2273 1281 
Q 2116 1406 1581 1522 
L 1381 1569 
Q 847 1681 609 1914 
Q 372 2147 372 2553 
Q 372 3047 722 3315 
Q 1072 3584 1716 3584 
Q 2034 3584 2315 3537 
Q 2597 3491 2834 3397 
z
" transform="scale(0.015625)"/>
       <path id="DejaVuSans-72" d="M 2631 2963 
Q 2534 3019 2420 3045 
Q 2306 3072 2169 3072 
Q 1681 3072 1420 2755 
Q 1159 2438 1159 1844 
L 1159 0 
L 581 0 
L 581 3500 
L 1159 3500 
L 1159 2956 
Q 1341 3275 1631 3429 
Q 1922 3584 2338 3584 
Q 2397 3584 2469 3576 
Q 2541 3569 2628 3553 
L 2631 2963 
z
" transform="scale(0.015625)"/>
       <path id="DejaVuSans-74" d="M 1172 4494 
L 1172 3500 
L 2356 3500 
L 2356 3053 
L 1172 3053 
L 1172 1153 
Q 1172 725 1289 603 
Q 1406 481 1766 481 
L 2356 481 
L 2356 0 
L 1766 0 
Q 1100 0 847 248 
Q 594 497 594 1153 
L 594 3053 
L 172 3053 
L 172 3500 
L 594 3500 
L 594 4494 
L 1172 4494 
z
" transform="scale(0.015625)"/>
       <path id="DejaVuSans-69" d="M 603 3500 
L 1178 3500 
L 1178 0 
L 603 0 
L 603 3500 
z
M 603 4863 
L 1178 4863 
L 1178 4134 
L 603 4134 
L 603 4863 
z
" transform="scale(0.015625)"/>
      </defs>
      <use xlink:href="#DejaVuSans-6c"/>
      <use xlink:href="#DejaVuSans-6f" x="27.783203"/>
      <use xlink:href="#DejaVuSans-67" x="88.964844"/>
      <use xlink:href="#DejaVuSans-31" x="152.441406"/>
      <use xlink:href="#DejaVuSans-30" x="216.064453"/>
      <use xlink:href="#DejaVuSans-20" x="279.6875"/>
      <use xlink:href="#DejaVuSans-6f" x="311.474609"/>
      <use xlink:href="#DejaVuSans-66" x="372.65625"/>
      <use xlink:href="#DejaVuSans-20" x="407.861328"/>
      <use xlink:href="#DejaVuSans-46" x="439.648438"/>
      <use xlink:href="#DejaVuSans-45" x="497.167969"/>
      <use xlink:href="#DejaVuSans-76" x="560.351562"/>
      <use xlink:href="#DejaVuSans-61" x="619.53125"/>
      <use xlink:href="#DejaVuSans-6c" x="680.810547"/>
      <use xlink:href="#DejaVuSans-73" x="708.59375"/>
      <use xlink:href="#DejaVuSans-20" x="760.693359"/>
      <use xlink:href="#DejaVuSans-72" x="792.480469"/>
      <use xlink:href="#DejaVuSans-61" x="833.59375"/>
      <use xlink:href="#DejaVuSans-74" x="894.873047"/>
      <use xlink:href="#DejaVuSans-69" x="934.082031"/>
      <use xlink:href="#DejaVuSans-6f" x="961.865234"/>
     </g>
    </g>
   </g>
   <g id="matplotlib.axis_2">
    <g id="ytick_1">
     <g id="line2d_44">
      <path d="M 34.16 288.453725 
L 453.192 288.453725 
" clip-path="url(#p44ae8249b5)" style="fill: none; stroke: #b0b0b0; stroke-width: 0.8; stroke-linecap: square"/>
     </g>
     <g id="line2d_45">
      <defs>
       <path id="m0049634eb1" d="M 0 0 
L -3.5 0 
" style="stroke: #000000; stroke-width: 0.8"/>
      </defs>
      <g>
       <use xlink:href="#m0049634eb1" x="34.16" y="288.453725" style="stroke: #000000; stroke-width: 0.8"/>
      </g>
     </g>
    </g>
    <g id="ytick_2">
     <g id="line2d_46">
      <path d="M 34.16 217.796863 
L 453.192 217.796863 
" clip-path="url(#p44ae8249b5)" style="fill: none; stroke: #b0b0b0; stroke-width: 0.8; stroke-linecap: square"/>
     </g>
     <g id="line2d_47">
      <g>
       <use xlink:href="#m0049634eb1" x="34.16" y="217.796863" style="stroke: #000000; stroke-width: 0.8"/>
      </g>
     </g>
    </g>
    <g id="ytick_3">
     <g id="line2d_48">
      <path d="M 34.16 147.14 
L 453.192 147.14 
" clip-path="url(#p44ae8249b5)" style="fill: none; stroke: #b0b0b0; stroke-width: 0.8; stroke-linecap: square"/>
     </g>
     <g id="line2d_49">
      <g>
       <use xlink:href="#m0049634eb1" x="34.16" y="147.14" style="stroke: #000000; stroke-width: 0.8"/>
      </g>
     </g>
    </g>
    <g id="ytick_4">
     <g id="line2d_50">
      <path d="M 34.16 76.483137 
L 453.192 76.483137 
" clip-path="url(#p44ae8249b5)" style="fill: none; stroke: #b0b0b0; stroke-width: 0.8; stroke-linecap: square"/>
     </g>
     <g id="line2d_51">
      <g>
       <use xlink:href="#m0049634eb1" x="34.16" y="76.483137" style="stroke: #000000; stroke-width: 0.8"/>
      </g>
     </g>
    </g>
    <g id="ytick_5">
     <g id="line2d_52">
      <path d="M 34.16 5.826275 
L 453.192 5.826275 
" clip-path="url(#p44ae8249b5)" style="fill: none; stroke: #b0b0b0; stroke-width: 0.8; stroke-linecap: square"/>
     </g>
     <g id="line2d_53">
      <g>
       <use xlink:href="#m0049634eb1" x="34.16" y="5.826275" style="stroke: #000000; stroke-width: 0.8"/>
      </g>
     </g>
    </g>
    <g id="text_4">
     <!-- proportion of trials -->
     <g transform="translate(19.000625 240.14625) rotate(-90) scale(0.2 -0.2)">
      <defs>
       <path id="DejaVuSans-70" d="M 1159 525 
L 1159 -1331 
L 581 -1331 
L 581 3500 
L 1159 3500 
L 1159 2969 
Q 1341 3281 1617 3432 
Q 1894 3584 2278 3584 
Q 2916 3584 3314 3078 
Q 3713 2572 3713 1747 
Q 3713 922 3314 415 
Q 2916 -91 2278 -91 
Q 1894 -91 1617 61 
Q 1341 213 1159 525 
z
M 3116 1747 
Q 3116 2381 2855 2742 
Q 2594 3103 2138 3103 
Q 1681 3103 1420 2742 
Q 1159 2381 1159 1747 
Q 1159 1113 1420 752 
Q 1681 391 2138 391 
Q 2594 391 2855 752 
Q 3116 1113 3116 1747 
z
" transform="scale(0.015625)"/>
       <path id="DejaVuSans-6e" d="M 3513 2113 
L 3513 0 
L 2938 0 
L 2938 2094 
Q 2938 2591 2744 2837 
Q 2550 3084 2163 3084 
Q 1697 3084 1428 2787 
Q 1159 2491 1159 1978 
L 1159 0 
L 581 0 
L 581 3500 
L 1159 3500 
L 1159 2956 
Q 1366 3272 1645 3428 
Q 1925 3584 2291 3584 
Q 2894 3584 3203 3211 
Q 3513 2838 3513 2113 
z
" transform="scale(0.015625)"/>
      </defs>
      <use xlink:href="#DejaVuSans-70"/>
      <use xlink:href="#DejaVuSans-72" x="63.476562"/>
      <use xlink:href="#DejaVuSans-6f" x="102.339844"/>
      <use xlink:href="#DejaVuSans-70" x="163.521484"/>
      <use xlink:href="#DejaVuSans-6f" x="226.998047"/>
      <use xlink:href="#DejaVuSans-72" x="288.179688"/>
      <use xlink:href="#DejaVuSans-74" x="329.292969"/>
      <use xlink:href="#DejaVuSans-69" x="368.501953"/>
      <use xlink:href="#DejaVuSans-6f" x="396.285156"/>
      <use xlink:href="#DejaVuSans-6e" x="457.466797"/>
      <use xlink:href="#DejaVuSans-20" x="520.845703"/>
      <use xlink:href="#DejaVuSans-6f" x="552.632812"/>
      <use xlink:href="#DejaVuSans-66" x="613.814453"/>
      <use xlink:href="#DejaVuSans-20" x="649.019531"/>
      <use xlink:href="#DejaVuSans-74" x="680.806641"/>
      <use xlink:href="#DejaVuSans-72" x="720.015625"/>
      <use xlink:href="#DejaVuSans-69" x="761.128906"/>
      <use xlink:href="#DejaVuSans-61" x="788.912109"/>
      <use xlink:href="#DejaVuSans-6c" x="850.191406"/>
      <use xlink:href="#DejaVuSans-73" x="877.974609"/>
     </g>
    </g>
   </g>
   <g id="line2d_54">
    <path d="M 34.16 263.628341 
L 52.099439 263.628341 
L 52.099439 262.991793 
L 53.200729 262.991793 
L 53.200729 262.355245 
L 56.746478 262.355245 
L 56.746478 261.718696 
L 57.847768 261.718696 
L 57.847768 261.082148 
L 59.422405 261.082148 
L 59.422405 260.4456 
L 64.069444 260.4456 
L 64.069444 259.809051 
L 68.298203 259.809051 
L 68.298203 259.172503 
L 72.945242 259.172503 
L 72.945242 258.535955 
L 76.448641 258.535955 
L 76.448641 257.899406 
L 79.810471 257.899406 
L 79.810471 257.262858 
L 80.011163 257.262858 
L 80.011163 256.62631 
L 80.864715 256.62631 
L 80.911761 255.353213 
L 81.095679 255.353213 
L 81.112453 254.080117 
L 81.344686 254.080117 
L 81.344686 253.443568 
L 82.445976 253.443568 
L 82.445976 252.80702 
L 85.511753 252.80702 
L 85.511753 252.170472 
L 87.133436 252.170472 
L 87.133436 251.533923 
L 87.334128 251.533923 
L 87.334128 250.897375 
L 88.667651 250.897375 
L 88.667651 250.260827 
L 96.009234 250.260827 
L 96.009234 249.624278 
L 96.209926 249.624278 
L 96.209926 248.98773 
L 97.543449 248.98773 
L 97.543449 248.351182 
L 104.159672 248.351182 
L 104.159672 247.714633 
L 104.360364 247.714633 
L 104.360364 247.078085 
L 105.693887 247.078085 
L 105.693887 246.441537 
L 108.575746 246.441537 
L 108.575746 245.804989 
L 108.776438 245.804989 
L 108.776438 245.16844 
L 110.109961 245.16844 
L 110.109961 244.531892 
L 115.680545 244.531892 
L 115.680545 243.895344 
L 116.781835 243.895344 
L 116.781835 243.258795 
L 118.845369 243.258795 
L 118.845369 242.622247 
L 119.946659 242.622247 
L 119.946659 241.985699 
L 123.003511 241.985699 
L 123.003511 241.34915 
L 126.168335 241.34915 
L 126.168335 240.712602 
L 131.879308 240.712602 
L 131.879308 240.076054 
L 132.30698 240.076054 
L 132.30698 239.439505 
L 132.485668 239.439505 
L 132.485668 238.802957 
L 133.062822 238.802957 
L 133.062822 238.166409 
L 133.24151 238.166409 
L 133.24151 237.52986 
L 135.044133 237.52986 
L 135.044133 236.893312 
L 137.168572 236.893312 
L 137.168572 236.256764 
L 137.34726 236.256764 
L 137.34726 235.620216 
L 138.182602 235.620216 
L 138.182602 234.983667 
L 138.361289 234.983667 
L 138.399448 233.710571 
L 138.578136 233.710571 
L 138.578136 233.074022 
L 138.852272 233.074022 
L 138.852272 232.437474 
L 139.608113 232.437474 
L 139.608113 231.800926 
L 140.029746 231.800926 
L 140.029746 231.164377 
L 140.948353 231.164377 
L 140.948353 230.527829 
L 141.127041 230.527829 
L 141.127041 229.891281 
L 141.509603 229.891281 
L 141.509603 229.254732 
L 141.688291 229.254732 
L 141.688291 228.618184 
L 143.194571 228.618184 
L 143.194571 227.981636 
L 143.410129 227.981636 
L 143.410129 227.345087 
L 143.588816 227.345087 
L 143.588816 226.708539 
L 143.713864 226.708539 
L 143.713864 226.071991 
L 144.306872 226.071991 
L 144.306872 225.435443 
L 144.44582 225.435443 
L 144.485559 224.162346 
L 144.727893 224.162346 
L 144.727893 223.525798 
L 144.944739 223.525798 
L 144.944739 222.889249 
L 146.840287 222.889249 
L 146.874771 221.616153 
L 147.018975 221.616153 
L 147.053458 220.343056 
L 147.493645 220.343056 
L 147.493645 219.706508 
L 147.610645 219.706508 
L 147.610645 219.069959 
L 148.054894 219.069959 
L 148.054894 218.433411 
L 148.658281 218.433411 
L 148.658281 217.796863 
L 148.836968 217.796863 
L 148.836968 217.160314 
L 149.95542 217.160314 
L 149.95542 216.523766 
L 150.852163 216.523766 
L 150.852163 215.887218 
L 151.198766 215.887218 
L 151.198766 215.250669 
L 151.377453 215.250669 
L 151.377453 214.614121 
L 153.385579 214.614121 
L 153.420062 213.341025 
L 155.203572 213.341025 
L 155.203572 212.704476 
L 157.744057 212.704476 
L 157.744057 212.067928 
L 159.627953 212.067928 
L 159.627953 211.43138 
L 159.80664 211.43138 
L 159.80664 210.794831 
L 160.090577 210.794831 
L 160.090577 210.158283 
L 160.269264 210.158283 
L 160.269264 209.521735 
L 166.173244 209.521735 
L 166.173244 208.885186 
L 166.635868 208.885186 
L 166.635868 208.248638 
L 176.400689 208.248638 
L 176.400689 207.61209 
L 178.683756 207.61209 
L 178.683756 206.975541 
L 181.047727 206.975541 
L 181.047727 206.338993 
L 181.299114 206.338993 
L 181.299114 205.702445 
L 183.330795 205.702445 
L 183.330795 205.065896 
L 185.946153 205.065896 
L 185.946153 204.429348 
L 193.813113 204.429348 
L 193.813113 203.7928 
L 194.568955 203.7928 
L 194.568955 203.156252 
L 197.088449 203.156252 
L 197.088449 202.519703 
L 197.382181 202.519703 
L 197.382181 201.883155 
L 197.84429 201.883155 
L 197.84429 201.246607 
L 198.138022 201.246607 
L 198.138022 200.610058 
L 198.674705 200.610058 
L 198.674705 199.97351 
L 199.061632 199.97351 
L 199.061632 199.336962 
L 199.27225 199.336962 
L 199.27225 198.700413 
L 199.688735 198.700413 
L 199.688735 198.063865 
L 199.905581 198.063865 
L 199.905581 197.427317 
L 200.028092 197.427317 
L 200.028092 196.790768 
L 200.162922 196.790768 
L 200.162922 196.15422 
L 200.630462 196.15422 
L 200.630462 195.517672 
L 201.16503 195.517672 
L 201.16503 194.881123 
L 201.386303 194.881123 
L 201.386303 194.244575 
L 201.920872 194.244575 
L 201.95004 192.971479 
L 202.243772 192.971479 
L 202.243772 192.33493 
L 202.454486 192.33493 
L 202.454486 191.698382 
L 202.753502 191.698382 
L 202.753502 191.061834 
L 202.935779 191.061834 
L 203.015736 189.152189 
L 203.180916 189.152189 
L 203.257802 187.879092 
L 203.474648 187.879092 
L 203.487265 186.605995 
L 203.691621 186.605995 
L 203.691621 185.969447 
L 203.854792 185.969447 
L 203.854792 185.332899 
L 204.11172 185.332899 
L 204.133842 184.059802 
L 204.243107 184.059802 
L 204.312412 182.786706 
L 204.916262 182.786706 
L 204.916262 182.150157 
L 205.147872 182.150157 
L 205.147872 181.513609 
L 205.364718 181.513609 
L 205.364718 180.877061 
L 205.492053 180.877061 
L 205.492053 180.240512 
L 205.624681 180.240512 
L 205.729821 178.330867 
L 205.813004 178.330867 
L 205.813004 177.694319 
L 206.023553 177.694319 
L 206.093545 175.784674 
L 206.220306 175.784674 
L 206.291071 174.511577 
L 206.384598 174.511577 
L 206.394788 173.238481 
L 206.506083 173.238481 
L 206.59548 171.328836 
L 206.722929 171.328836 
L 206.722929 170.692288 
L 206.845709 170.692288 
L 206.849386 169.419191 
L 207.040652 169.419191 
L 207.040652 168.782643 
L 207.257498 168.782643 
L 207.321596 167.509546 
L 207.60155 167.509546 
L 207.60155 166.872998 
L 207.797371 166.872998 
L 207.797371 166.236449 
L 207.913623 166.236449 
L 207.929003 164.963353 
L 208.185096 164.963353 
L 208.191597 163.690256 
L 208.34642 163.690256 
L 208.380904 161.780611 
L 208.474873 161.780611 
L 208.485329 160.507515 
L 208.811401 160.507515 
L 208.811401 159.870966 
L 209.010145 159.870966 
L 209.102013 157.324773 
L 209.210837 157.324773 
L 209.286386 155.415128 
L 209.362887 155.415128 
L 209.382072 154.142031 
L 209.579733 154.142031 
L 209.579733 153.505483 
L 209.806403 153.505483 
L 209.833084 152.232387 
L 210.076468 152.232387 
L 210.164414 150.95929 
L 210.203303 150.95929 
L 210.27172 149.686193 
L 210.367653 149.686193 
L 210.375399 148.413097 
L 210.54436 148.413097 
L 210.54436 147.776548 
L 210.955136 147.776548 
L 210.955136 147.14 
L 211.272141 147.14 
L 211.272141 146.503452 
L 211.577152 146.503452 
L 211.656239 144.593807 
L 211.7073 144.593807 
L 211.73361 143.32071 
L 211.915488 143.32071 
L 211.969166 141.411065 
L 212.128638 141.411065 
L 212.186012 139.50142 
L 212.268179 139.50142 
L 212.268179 138.864872 
L 212.384212 138.864872 
L 212.384212 138.228324 
L 212.630353 138.228324 
L 212.72133 135.68213 
L 212.844523 135.68213 
L 212.938176 134.409034 
L 213.140054 134.409034 
L 213.164922 133.135937 
L 213.401612 133.135937 
L 213.439749 131.86284 
L 213.543272 131.86284 
L 213.543272 131.226292 
L 213.733481 131.226292 
L 213.84004 129.316647 
L 214.038928 129.316647 
L 214.038928 128.680099 
L 214.305296 128.680099 
L 214.305296 128.043551 
L 214.590414 128.043551 
L 214.590414 127.407002 
L 214.734917 127.407002 
L 214.734917 126.770454 
L 214.935671 126.770454 
L 214.935671 126.133906 
L 215.061137 126.133906 
L 215.163769 124.860809 
L 215.198252 124.860809 
L 215.296167 122.951164 
L 215.487081 122.951164 
L 215.508061 121.041519 
L 215.623551 121.041519 
L 215.732821 119.131874 
L 215.980234 119.131874 
L 216.048331 117.858778 
L 216.273966 117.858778 
L 216.273966 117.222229 
L 216.424978 117.222229 
L 216.424978 116.585681 
L 216.981762 116.585681 
L 216.981762 115.949133 
L 217.196693 115.949133 
L 217.245804 114.676036 
L 217.469086 114.676036 
L 217.516331 112.129843 
L 217.948857 112.129843 
L 218.055056 109.58365 
L 218.093436 109.58365 
L 218.164036 108.310553 
L 218.259834 108.310553 
L 218.259834 107.674005 
L 218.47668 107.674005 
L 218.47668 107.037456 
L 218.8456 107.037456 
L 218.952266 105.76436 
L 219.166887 105.76436 
L 219.166887 105.127811 
L 219.28708 105.127811 
L 219.28708 104.491263 
L 219.522247 104.491263 
L 219.522247 103.854715 
L 219.838566 103.854715 
L 219.838566 103.218166 
L 220.056816 103.218166 
L 220.056816 102.581618 
L 220.180917 102.581618 
L 220.180917 101.94507 
L 220.397763 101.94507 
L 220.397763 101.308521 
L 220.626852 101.308521 
L 220.661335 100.035425 
L 221.025585 100.035425 
L 221.134086 98.762328 
L 221.379016 98.762328 
L 221.413499 97.489232 
L 221.586835 97.489232 
L 221.596709 96.216135 
L 221.827565 96.216135 
L 221.827565 95.579587 
L 222.379051 95.579587 
L 222.444845 93.669942 
L 222.946668 93.669942 
L 222.946668 93.033393 
L 223.197009 93.033393 
L 223.197009 92.396845 
L 223.410834 92.396845 
L 223.507918 90.4872 
L 224.383859 90.4872 
L 224.409421 88.577555 
L 224.703153 88.577555 
L 224.703153 87.941007 
L 224.872045 87.941007 
L 224.872045 87.304459 
L 224.98533 87.304459 
L 224.98533 86.66791 
L 225.165777 86.66791 
L 225.165777 86.031362 
L 225.300776 86.031362 
L 225.408444 84.758265 
L 225.737494 84.758265 
L 225.737494 84.121717 
L 226.305187 84.121717 
L 226.305187 83.485169 
L 226.593222 83.485169 
L 226.593222 82.84862 
L 226.917519 82.84862 
L 226.952002 81.575524 
L 227.055846 81.575524 
L 227.102704 80.302427 
L 227.826908 80.302427 
L 227.826908 79.665879 
L 227.951434 79.665879 
L 227.951434 79.029331 
L 228.414058 79.029331 
L 228.486003 77.756234 
L 228.735513 77.756234 
L 228.838603 76.483137 
L 228.873086 76.483137 
L 228.948627 75.210041 
L 230.256752 75.210041 
L 230.256752 74.573492 
L 230.569508 74.573492 
L 230.656596 73.300396 
L 230.719376 73.300396 
L 230.808238 72.027299 
L 231.270861 72.027299 
L 231.275998 70.754202 
L 231.518778 70.754202 
L 231.518778 70.117654 
L 232.534297 70.117654 
L 232.534297 69.481106 
L 233.197081 69.481106 
L 233.197081 68.844557 
L 233.335713 68.844557 
L 233.414517 67.571461 
L 233.451214 67.571461 
L 233.536405 66.298364 
L 233.877141 66.298364 
L 233.877141 65.661816 
L 234.166681 65.661816 
L 234.166681 65.025268 
L 234.629305 65.025268 
L 234.629305 64.388719 
L 234.869928 64.388719 
L 234.869928 63.752171 
L 234.985582 63.752171 
L 234.985582 63.115623 
L 236.950371 63.115623 
L 236.950371 62.479074 
L 237.867288 62.479074 
L 237.867288 61.842526 
L 239.705184 61.842526 
L 239.705184 61.205978 
L 239.981794 61.205978 
L 239.981794 60.569429 
L 240.167808 60.569429 
L 240.167808 59.932881 
L 240.555555 59.932881 
L 240.555555 59.296333 
L 240.756247 59.296333 
L 240.756247 58.659784 
L 241.112643 58.659784 
L 241.112643 58.023236 
L 241.313335 58.023236 
L 241.313335 57.386688 
L 241.626268 57.386688 
L 241.626268 56.75014 
L 242.088892 56.75014 
L 242.08977 55.477043 
L 242.264862 55.477043 
L 242.264862 54.840495 
L 242.646858 54.840495 
L 242.646858 54.203946 
L 243.146619 54.203946 
L 243.146619 53.567398 
L 244.88022 53.567398 
L 244.88022 52.93085 
L 245.429687 52.93085 
L 245.429687 52.294301 
L 248.045044 52.294301 
L 248.045044 51.657753 
L 253.88565 51.657753 
L 253.88565 51.021205 
L 258.532689 51.021205 
L 258.532689 50.384656 
L 269.205787 50.384656 
L 269.205787 49.748108 
L 272.370612 49.748108 
L 272.370612 49.11156 
L 276.425629 49.11156 
L 276.425629 48.475011 
L 276.982717 48.475011 
L 276.982717 47.838463 
L 279.590453 47.838463 
L 279.590453 47.201915 
L 280.147542 47.201915 
L 280.147542 46.565367 
L 281.596682 46.565367 
L 281.596682 45.928818 
L 281.797373 45.928818 
L 281.797373 45.29227 
L 283.130897 45.29227 
L 283.130897 44.655722 
L 317.466756 44.655722 
L 317.466756 44.019173 
L 320.63158 44.019173 
L 320.63158 43.382625 
L 323.362882 43.382625 
L 323.362882 42.746077 
L 325.64595 42.746077 
L 325.64595 42.109528 
L 327.054752 42.109528 
L 327.054752 41.47298 
L 328.261307 41.47298 
L 328.261307 40.836432 
L 329.33782 40.836432 
L 329.33782 40.199883 
L 330.521556 40.199883 
L 330.521556 39.563335 
L 331.953177 39.563335 
L 331.953177 38.926787 
L 332.486345 38.926787 
L 332.486345 38.290238 
L 332.804623 38.290238 
L 332.804623 37.65369 
L 333.403262 37.65369 
L 333.403262 37.017142 
L 334.769413 37.017142 
L 334.769413 36.380594 
L 335.419981 36.380594 
L 335.419981 35.744045 
L 335.68633 35.744045 
L 335.68633 35.107497 
L 337.384771 35.107497 
L 337.384771 34.470949 
L 338.301688 34.470949 
L 338.301688 33.8344 
L 352.586875 33.8344 
L 352.586875 33.197852 
L 356.278745 33.197852 
L 356.278745 32.561304 
L 359.745549 32.561304 
L 359.806716 31.288207 
L 360.363805 31.288207 
L 360.363805 30.651659 
L 361.710338 30.651659 
L 361.710338 30.01511 
L 362.627255 30.01511 
L 362.627255 29.378562 
L 363.498586 29.378562 
L 363.498586 28.742014 
L 364.055675 28.742014 
L 364.055675 28.105465 
L 366.96539 28.105465 
L 366.96539 27.468917 
L 367.522479 27.468917 
L 367.522479 26.832369 
L 368.93018 26.832369 
L 368.93018 26.195821 
L 369.487268 26.195821 
L 369.487268 25.559272 
L 369.847097 25.559272 
L 369.847097 24.922724 
L 370.404185 24.922724 
L 370.404185 24.286176 
L 400.847843 24.286176 
L 400.847843 23.649627 
L 404.539713 23.649627 
L 404.539713 23.013079 
L 408.006517 23.013079 
L 408.006517 22.376531 
L 409.971307 22.376531 
L 409.971307 21.739982 
L 410.888224 21.739982 
L 410.888224 21.103434 
L 453.192 21.103434 
L 453.192 21.103434 
" clip-path="url(#p44ae8249b5)" style="fill: none; stroke: #000000; stroke-width: 3; stroke-linecap: square"/>
   </g>
   <g id="line2d_55">
    <path clip-path="url(#p44ae8249b5)" style="fill: none; stroke: #000000; stroke-width: 3; stroke-linecap: square"/>
   </g>
   <g id="line2d_56">
    <path d="M 34.16 226.429149 
L 84.961516 226.429149 
L 84.961516 225.789721 
L 90.565233 225.789721 
L 90.565233 225.150292 
L 112.555821 225.150292 
L 112.555821 224.510863 
L 115.77211 224.510863 
L 115.77211 223.871435 
L 116.240981 223.871435 
L 116.240981 223.232006 
L 116.918135 223.232006 
L 116.918135 222.592577 
L 146.384884 222.592577 
L 146.384884 221.953149 
L 153.046409 221.953149 
L 153.046409 221.31372 
L 171.753662 221.31372 
L 171.753662 220.674292 
L 172.806147 220.674292 
L 172.806147 220.034863 
L 174.557782 220.034863 
L 174.557782 219.395434 
L 176.066512 219.395434 
L 176.066512 218.756006 
L 176.757993 218.756006 
L 176.757993 218.116577 
L 177.357379 218.116577 
L 177.357379 217.477148 
L 178.409864 217.477148 
L 178.409864 216.83772 
L 178.935482 216.83772 
L 178.975416 215.558863 
L 180.161499 215.558863 
L 180.161499 214.919434 
L 182.36171 214.919434 
L 182.36171 214.280005 
L 196.797457 214.280005 
L 196.797457 213.640577 
L 198.037413 213.640577 
L 198.037413 213.001148 
L 198.174242 213.001148 
L 198.174242 212.361719 
L 198.852348 212.361719 
L 198.852348 211.722291 
L 199.073734 211.722291 
L 199.073734 211.082862 
L 199.347967 211.082862 
L 199.347967 210.443434 
L 199.89881 210.443434 
L 199.89881 209.804005 
L 200.400452 209.804005 
L 200.400452 209.164576 
L 201.080035 209.164576 
L 201.080035 208.525148 
L 201.934385 208.525148 
L 201.934385 207.885719 
L 202.152087 207.885719 
L 202.152087 207.24629 
L 202.564257 207.24629 
L 202.564257 206.606862 
L 203.033128 206.606862 
L 203.033128 205.967433 
L 203.616742 205.967433 
L 203.710281 204.688576 
L 204.085613 204.688576 
L 204.085613 204.049147 
L 204.352297 204.049147 
L 204.352297 203.409719 
L 204.586037 203.409719 
L 204.586037 202.77029 
L 204.762766 202.77029 
L 204.762766 202.130862 
L 205.368377 202.130862 
L 205.368377 201.491433 
L 205.837248 201.491433 
L 205.837248 200.852004 
L 206.514401 200.852004 
L 206.514401 200.212576 
L 206.683752 200.212576 
L 206.683752 199.573147 
L 207.002824 199.573147 
L 207.002824 198.933718 
L 207.568587 198.933718 
L 207.568587 198.29429 
L 208.037458 198.29429 
L 208.037458 197.654861 
L 208.714612 197.654861 
L 208.714612 197.015433 
L 210.189754 197.015433 
L 210.189754 196.376004 
L 211.650138 196.376004 
L 211.650138 195.736575 
L 212.606541 195.736575 
L 212.606541 195.097147 
L 214.519108 195.097147 
L 214.559042 193.818289 
L 217.625041 193.818289 
L 217.625041 193.178861 
L 220.679351 193.178861 
L 220.679351 192.539432 
L 222.945659 192.539432 
L 222.945659 191.900004 
L 223.123265 191.900004 
L 223.123265 191.260575 
L 223.378802 191.260575 
L 223.378802 190.621146 
L 225.232386 190.621146 
L 225.320042 189.342289 
L 227.090218 189.342289 
L 227.154797 188.063432 
L 228.67434 188.063432 
L 228.67434 187.424003 
L 230.023767 187.424003 
L 230.063701 186.145146 
L 231.89063 186.145146 
L 231.89063 185.505717 
L 232.180341 185.505717 
L 232.180341 184.866289 
L 232.359501 184.866289 
L 232.359501 184.22686 
L 232.476035 184.22686 
L 232.476035 183.587431 
L 232.693935 183.587431 
L 232.693935 182.948003 
L 233.036654 182.948003 
L 233.036654 182.308574 
L 233.17703 182.308574 
L 233.17703 181.669146 
L 233.621039 181.669146 
L 233.621039 181.029717 
L 233.757868 181.029717 
L 233.757868 180.390288 
L 234.229515 180.390288 
L 234.229515 179.75086 
L 234.435974 179.75086 
L 234.435974 179.111431 
L 234.597129 179.111431 
L 234.65736 177.832574 
L 234.881245 177.832574 
L 234.881245 177.193145 
L 235.396631 177.193145 
L 235.482436 175.914288 
L 235.865502 175.914288 
L 235.865502 175.274859 
L 235.98115 175.274859 
L 235.98115 174.635431 
L 236.542655 174.635431 
L 236.542655 173.996002 
L 237.518011 173.996002 
L 237.518011 173.356574 
L 237.750215 173.356574 
L 237.813418 171.438288 
L 238.079752 171.438288 
L 238.181361 170.15943 
L 238.282289 170.15943 
L 238.373793 168.880573 
L 238.959443 168.880573 
L 239.058832 167.601716 
L 239.838556 167.601716 
L 239.838556 166.962287 
L 240.891041 166.962287 
L 240.891041 166.322859 
L 241.242763 166.322859 
L 241.282696 165.044001 
L 241.927802 165.044001 
L 241.967736 163.765144 
L 242.642676 163.765144 
L 242.642676 163.125716 
L 244.842886 163.125716 
L 244.842886 162.486287 
L 247.943899 162.486287 
L 247.943899 161.846858 
L 249.125698 161.846858 
L 249.125698 161.20743 
L 249.254879 161.20743 
L 249.262527 159.928572 
L 249.940633 159.928572 
L 249.962542 158.649715 
L 250.162019 158.649715 
L 250.162019 158.010287 
L 250.987095 158.010287 
L 251.056585 156.731429 
L 251.186037 156.731429 
L 251.186037 156.092001 
L 253.02267 156.092001 
L 253.02267 155.452572 
L 253.547616 155.452572 
L 253.547616 154.813143 
L 254.055007 154.813143 
L 254.09494 153.534286 
L 254.684522 153.534286 
L 254.684522 152.894858 
L 254.858596 152.894858 
L 254.858596 152.255429 
L 255.566259 152.255429 
L 255.566259 151.616 
L 256.262977 151.616 
L 256.262977 150.976572 
L 256.852146 150.976572 
L 256.852146 150.337143 
L 256.988975 150.337143 
L 256.988975 149.697714 
L 257.667081 149.697714 
L 257.667081 149.058286 
L 257.888467 149.058286 
L 257.900812 147.779429 
L 258.369683 147.779429 
L 258.369683 147.14 
L 258.529285 147.14 
L 258.529285 146.500571 
L 258.706891 146.500571 
L 258.713543 145.221714 
L 258.962428 145.221714 
L 259.046836 143.942857 
L 260.07034 143.942857 
L 260.07034 143.303428 
L 260.344694 143.303428 
L 260.344694 142.664 
L 260.481523 142.664 
L 260.481523 142.024571 
L 260.749118 142.024571 
L 260.816012 140.745714 
L 261.029733 140.745714 
L 261.029733 140.106285 
L 261.159629 140.106285 
L 261.166562 138.827428 
L 261.381014 138.827428 
L 261.381014 138.187999 
L 261.844668 138.187999 
L 261.844668 137.548571 
L 262.066054 137.548571 
L 262.066054 136.909142 
L 262.20609 136.909142 
L 262.20609 136.269713 
L 262.503403 136.269713 
L 262.503403 135.630285 
L 262.89113 135.630285 
L 262.89113 134.990856 
L 263.28663 134.990856 
L 263.28663 134.351428 
L 263.755501 134.351428 
L 263.755501 133.711999 
L 264.241666 133.711999 
L 264.241666 133.07257 
L 264.432654 133.07257 
L 264.432654 132.433142 
L 264.926705 132.433142 
L 264.926705 131.793713 
L 266.009405 131.793713 
L 266.009405 131.154284 
L 268.426192 131.154284 
L 268.426192 130.514856 
L 269.164929 130.514856 
L 269.164929 129.875427 
L 271.767636 129.875427 
L 271.767636 129.235999 
L 272.67093 129.235999 
L 272.67093 128.59657 
L 273.156938 128.59657 
L 273.156938 127.957141 
L 273.293767 127.957141 
L 273.293767 127.317713 
L 273.971873 127.317713 
L 274.033944 126.038855 
L 274.193258 126.038855 
L 274.21155 124.759998 
L 274.467087 124.759998 
L 274.467087 124.12057 
L 275.018334 124.12057 
L 275.087718 122.841712 
L 275.538204 122.841712 
L 275.538204 122.202284 
L 276.320671 122.202284 
L 276.320671 121.562855 
L 276.849184 121.562855 
L 276.849184 120.923426 
L 277.05391 120.923426 
L 277.05391 120.283998 
L 277.556847 120.283998 
L 277.556847 119.644569 
L 278.754493 119.644569 
L 278.754493 119.005141 
L 279.223364 119.005141 
L 279.223364 118.365712 
L 279.494084 118.365712 
L 279.494084 117.726283 
L 279.900518 117.726283 
L 279.900518 117.086855 
L 280.065473 117.086855 
L 280.065473 116.447426 
L 280.534344 116.447426 
L 280.534344 115.807998 
L 280.773137 115.807998 
L 280.773137 115.168569 
L 281.211498 115.168569 
L 281.242008 113.889712 
L 281.609704 113.889712 
L 281.609704 113.250283 
L 281.760392 113.250283 
L 281.760392 112.610854 
L 281.919161 112.610854 
L 281.937998 111.331997 
L 282.193535 111.331997 
L 282.193535 110.692569 
L 282.986631 110.692569 
L 282.986631 110.05314 
L 283.589604 110.05314 
L 283.671671 108.774283 
L 284.047119 108.774283 
L 284.047119 108.134854 
L 284.478674 108.134854 
L 284.518607 106.855997 
L 284.642089 106.855997 
L 284.642089 106.216568 
L 285.252939 106.216568 
L 285.252939 105.57714 
L 285.430545 105.57714 
L 285.430545 104.937711 
L 285.686083 104.937711 
L 285.686083 104.298282 
L 285.937979 104.298282 
L 285.937979 103.658854 
L 286.115585 103.658854 
L 286.115585 103.019425 
L 286.371122 103.019425 
L 286.393724 101.740568 
L 286.515054 101.740568 
L 286.515054 101.101139 
L 286.640211 101.101139 
L 286.640211 100.461711 
L 287.539667 100.461711 
L 287.539667 99.822282 
L 288.224706 99.822282 
L 288.224706 99.182853 
L 288.513586 99.182853 
L 288.593934 97.903996 
L 289.384024 97.903996 
L 289.423958 96.625139 
L 293.899403 96.625139 
L 293.899403 95.98571 
L 295.175111 95.98571 
L 295.175111 95.346282 
L 295.798875 95.346282 
L 295.798875 94.706853 
L 298.065183 94.706853 
L 298.065183 94.067424 
L 298.242789 94.067424 
L 298.242789 93.427996 
L 298.498327 93.427996 
L 298.498327 92.788567 
L 300.351911 92.788567 
L 300.351911 92.149138 
L 300.560929 92.149138 
L 300.560929 91.50971 
L 302.14487 91.50971 
L 302.14487 90.870281 
L 303.580605 90.870281 
L 303.580605 90.230853 
L 303.717434 90.230853 
L 303.717434 89.591424 
L 304.39554 89.591424 
L 304.417187 88.312567 
L 304.616925 88.312567 
L 304.616925 87.673138 
L 305.442001 87.673138 
L 305.469672 86.394281 
L 307.221307 86.394281 
L 307.221307 85.754852 
L 307.477577 85.754852 
L 307.477577 85.115424 
L 308.485955 85.115424 
L 308.485955 84.475995 
L 308.622784 84.475995 
L 308.622784 83.836566 
L 309.30089 83.836566 
L 309.367267 82.557709 
L 309.421518 82.557709 
L 309.522276 81.278852 
L 309.871318 81.278852 
L 309.871318 80.639423 
L 310.347352 80.639423 
L 310.347352 79.999995 
L 310.678247 79.999995 
L 310.678247 79.360566 
L 311.38591 79.360566 
L 311.38591 78.721137 
L 311.622407 78.721137 
L 311.622407 78.081709 
L 311.865633 78.081709 
L 311.865633 77.44228 
L 312.112188 77.44228 
L 312.112188 76.802852 
L 312.382927 76.802852 
L 312.382927 76.163423 
L 312.915977 76.163423 
L 312.915977 75.523994 
L 313.164673 75.523994 
L 313.164673 74.884566 
L 313.363866 74.884566 
L 313.363866 74.245137 
L 314.048905 74.245137 
L 314.048905 73.605708 
L 314.491377 73.605708 
L 314.531311 72.326851 
L 314.734603 72.326851 
L 314.774537 71.047994 
L 314.916308 71.047994 
L 314.916308 70.408565 
L 316.028793 70.408565 
L 316.028793 69.769137 
L 316.421978 69.769137 
L 316.421978 69.129708 
L 316.94195 69.129708 
L 316.94195 68.490279 
L 317.116519 68.490279 
L 317.116519 67.850851 
L 317.339773 67.850851 
L 317.339773 67.211422 
L 318.047436 67.211422 
L 318.047436 66.571994 
L 318.838766 66.571994 
L 318.838766 65.932565 
L 319.81092 65.932565 
L 319.850854 64.653708 
L 326.17611 64.653708 
L 326.222542 63.374851 
L 328.48885 63.374851 
L 328.48885 62.735422 
L 328.666456 62.735422 
L 328.666456 62.095993 
L 328.921994 62.095993 
L 328.921994 61.456565 
L 330.775578 61.456565 
L 330.775578 60.817136 
L 331.127893 60.817136 
L 331.127893 60.177707 
L 333.394201 60.177707 
L 333.394201 59.538279 
L 333.571807 59.538279 
L 333.593308 58.259422 
L 333.730137 58.259422 
L 333.836534 55.701707 
L 333.973363 55.701707 
L 333.973363 55.062278 
L 334.408243 55.062278 
L 334.408243 54.42285 
L 334.629629 54.42285 
L 334.651469 53.143993 
L 334.872855 53.143993 
L 334.872855 52.504564 
L 335.454705 52.504564 
L 335.454705 51.865135 
L 335.680928 51.865135 
L 335.697931 50.586278 
L 337.249561 50.586278 
L 337.249561 49.946849 
L 337.49028 49.946849 
L 337.49028 49.307421 
L 337.733506 49.307421 
L 337.733506 48.667992 
L 338.912851 48.667992 
L 338.926159 47.389135 
L 339.04968 47.389135 
L 339.04968 46.749706 
L 339.666349 46.749706 
L 339.727786 45.470849 
L 339.949172 45.470849 
L 339.949172 44.83142 
L 340.774248 44.83142 
L 340.774248 44.191992 
L 341.438561 44.191992 
L 341.438561 43.552563 
L 342.809823 43.552563 
L 342.809823 42.913135 
L 344.311977 42.913135 
L 344.311977 42.273706 
L 344.944563 42.273706 
L 344.944563 41.634277 
L 347.36135 41.634277 
L 347.36135 40.994849 
L 356.235246 40.994849 
L 356.235246 40.35542 
L 356.478472 40.35542 
L 356.478472 39.715991 
L 356.599777 39.715991 
L 356.599777 39.076563 
L 358.501554 39.076563 
L 358.501554 38.437134 
L 358.67916 38.437134 
L 358.74478 37.158277 
L 358.922386 37.158277 
L 358.934697 35.87942 
L 359.177923 35.87942 
L 359.177923 35.239991 
L 359.753742 35.239991 
L 359.779841 33.961134 
L 360.788282 33.961134 
L 360.788282 33.321705 
L 361.031507 33.321705 
L 361.090821 32.042848 
L 361.505127 32.042848 
L 361.554789 30.763991 
L 361.798484 30.763991 
L 361.798484 30.124562 
L 363.821097 30.124562 
L 363.821097 29.485134 
L 363.998703 29.485134 
L 363.998703 28.845705 
L 364.25424 28.845705 
L 364.25424 28.206276 
L 365.13956 28.206276 
L 365.13956 27.566848 
L 366.107824 27.566848 
L 366.107824 26.927419 
L 367.448744 26.927419 
L 367.448744 26.28799 
L 372.834561 26.28799 
L 372.834561 25.648562 
L 380.607424 25.648562 
L 380.607424 25.009133 
L 381.918404 25.009133 
L 381.918404 24.369705 
L 382.626067 24.369705 
L 382.626067 23.730276 
L 386.612481 23.730276 
L 386.612481 23.090847 
L 386.855706 23.090847 
L 386.855706 22.451419 
L 388.302425 22.451419 
L 388.302425 21.81199 
L 389.613405 21.81199 
L 389.613405 21.172561 
L 390.321068 21.172561 
L 390.321068 20.533133 
L 391.932023 20.533133 
L 391.932023 19.893704 
L 453.192 19.893704 
L 453.192 19.893704 
" clip-path="url(#p44ae8249b5)" style="fill: none; stroke: #00bfbf; stroke-width: 3; stroke-linecap: square"/>
   </g>
   <g id="line2d_57">
    <path clip-path="url(#p44ae8249b5)" style="fill: none; stroke: #00bfbf; stroke-width: 3; stroke-linecap: square"/>
   </g>
   <g id="line2d_58">
    <path d="M 34.16 220.727332 
L 100.927157 220.727332 
L 100.927157 219.424901 
L 103.71124 219.424901 
L 103.71124 218.12247 
L 106.059764 218.12247 
L 106.059764 216.82004 
L 108.700536 216.82004 
L 108.700536 215.517609 
L 129.636444 215.517609 
L 129.636444 214.215178 
L 131.807388 214.215178 
L 131.807388 212.912748 
L 131.964357 212.912748 
L 131.964357 211.610317 
L 160.441776 211.610317 
L 160.441776 210.307887 
L 173.551214 210.307887 
L 173.551214 209.005456 
L 173.834498 209.005456 
L 173.834498 207.703025 
L 175.423753 207.703025 
L 175.423753 206.400595 
L 176.335296 206.400595 
L 176.335296 205.098164 
L 176.618581 205.098164 
L 176.618581 203.795733 
L 178.207835 203.795733 
L 178.207835 202.493303 
L 178.604573 202.493303 
L 178.68382 199.888441 
L 178.967105 199.888441 
L 178.967105 198.586011 
L 180.55636 198.586011 
L 180.55636 197.28358 
L 181.324592 197.28358 
L 181.388655 194.678719 
L 181.607877 194.678719 
L 181.607877 193.376288 
L 183.197132 193.376288 
L 183.197132 192.073857 
L 183.737179 192.073857 
L 183.737179 190.771427 
L 186.377951 190.771427 
L 186.377951 189.468996 
L 202.112745 189.468996 
L 202.112745 188.166565 
L 202.2605 188.166565 
L 202.2605 186.864135 
L 202.543785 186.864135 
L 202.543785 185.561704 
L 204.13304 185.561704 
L 204.13304 184.259274 
L 204.405827 184.259274 
L 204.431445 181.654412 
L 204.588413 181.654412 
L 204.588413 180.351982 
L 204.71473 180.351982 
L 204.71473 179.049551 
L 204.871698 179.049551 
L 204.896827 176.44469 
L 205.106208 176.44469 
L 205.106208 175.142259 
L 206.303984 175.142259 
L 206.303984 173.839828 
L 206.460953 173.839828 
L 206.460953 172.537398 
L 207.245351 172.537398 
L 207.31386 169.932536 
L 207.89029 169.932536 
L 207.89029 168.630106 
L 208.547713 168.630106 
L 208.547713 167.327675 
L 209.484804 167.327675 
L 209.484804 166.025244 
L 209.641773 166.025244 
L 209.641773 164.722814 
L 209.886124 164.722814 
L 209.886124 163.420383 
L 210.238814 163.420383 
L 210.238814 162.117952 
L 211.331795 162.117952 
L 211.331795 160.815522 
L 212.879586 160.815522 
L 212.879586 159.513091 
L 213.680319 159.513091 
L 213.680319 158.210661 
L 216.321091 158.210661 
L 216.321091 156.90823 
L 222.46688 156.90823 
L 222.46688 155.605799 
L 224.679429 155.605799 
L 224.679429 154.303369 
L 228.239916 154.303369 
L 228.239916 153.000938 
L 230.822032 153.000938 
L 230.822032 151.698507 
L 231.023998 151.698507 
L 231.023998 150.396077 
L 232.992976 150.396077 
L 233.065832 147.791215 
L 233.149945 147.791215 
L 233.149945 146.488785 
L 233.311321 146.488785 
L 233.372523 142.581493 
L 233.815495 142.581493 
L 233.815495 141.279062 
L 234.938372 141.279062 
L 234.938372 139.976631 
L 235.986439 139.976631 
L 236.095403 136.069339 
L 236.143408 136.069339 
L 236.143408 134.766909 
L 237.256999 134.766909 
L 237.256999 133.464478 
L 238.119191 133.464478 
L 238.119191 132.162048 
L 238.443928 132.162048 
L 238.443928 130.859617 
L 239.427944 130.859617 
L 239.427944 129.557186 
L 239.584912 129.557186 
L 239.584912 128.254756 
L 241.0847 128.254756 
L 241.0847 126.952325 
L 249.102883 126.952325 
L 249.102883 125.649894 
L 250.297638 125.649894 
L 250.297638 124.347464 
L 250.722849 124.347464 
L 250.722849 123.045033 
L 251.886965 123.045033 
L 251.886965 121.742602 
L 253.08172 121.742602 
L 253.08172 120.440172 
L 253.506932 120.440172 
L 253.506932 119.137741 
L 254.23549 119.137741 
L 254.23549 117.83531 
L 255.430244 117.83531 
L 255.430244 116.53288 
L 255.855456 116.53288 
L 255.855456 115.230449 
L 256.876262 115.230449 
L 256.949203 112.625588 
L 258.071017 112.625588 
L 258.071017 111.323157 
L 258.496228 111.323157 
L 258.496228 110.020726 
L 259.120147 110.020726 
L 259.120147 108.718296 
L 259.277116 108.718296 
L 259.277116 107.415865 
L 261.627364 107.415865 
L 261.627364 106.113435 
L 262.020608 106.113435 
L 262.020608 104.811004 
L 264.191552 104.811004 
L 264.191552 103.508573 
L 264.348521 103.508573 
L 264.348521 102.206143 
L 264.620826 102.206143 
L 264.620826 100.903712 
L 268.062331 100.903712 
L 268.062331 99.601281 
L 277.029884 99.601281 
L 277.029884 98.298851 
L 277.313168 98.298851 
L 277.313168 96.99642 
L 277.81217 96.99642 
L 277.81217 95.693989 
L 278.902423 95.693989 
L 279.006925 93.089128 
L 279.432136 93.089128 
L 279.432136 91.786697 
L 279.983114 91.786697 
L 279.983114 90.484267 
L 280.140083 90.484267 
L 280.140083 89.181836 
L 281.177869 89.181836 
L 281.177869 87.879405 
L 281.334838 87.879405 
L 281.334838 86.576975 
L 281.603081 86.576975 
L 281.603081 85.274544 
L 281.760049 85.274544 
L 281.760049 83.972113 
L 282.083243 83.972113 
L 282.083243 82.669683 
L 287.754535 82.669683 
L 287.754535 81.367252 
L 292.82594 81.367252 
L 292.82594 80.064822 
L 295.090936 80.064822 
L 295.090936 78.762391 
L 295.374221 78.762391 
L 295.374221 77.45996 
L 296.963476 77.45996 
L 296.963476 76.15753 
L 297.303485 76.15753 
L 297.303485 74.855099 
L 297.58677 74.855099 
L 297.58677 73.552668 
L 299.176024 73.552668 
L 299.176024 72.250238 
L 300.144296 72.250238 
L 300.144296 70.947807 
L 302.356844 70.947807 
L 302.356844 69.645376 
L 305.591415 69.645376 
L 305.591415 68.342946 
L 308.584878 68.342946 
L 308.617502 65.738084 
L 309.812256 65.738084 
L 309.812256 64.435654 
L 310.237468 64.435654 
L 310.237468 63.133223 
L 312.026383 63.133223 
L 312.026383 61.830792 
L 323.652468 61.830792 
L 323.652468 60.528362 
L 325.865016 60.528362 
L 325.865016 59.225931 
L 326.645931 59.225931 
L 326.645931 57.9235 
L 328.858479 57.9235 
L 328.858479 56.62107 
L 330.087435 56.62107 
L 330.087435 55.318639 
L 331.718586 55.318639 
L 331.718586 54.016209 
L 332.299984 54.016209 
L 332.299984 52.713778 
L 336.789991 52.713778 
L 336.789991 51.411347 
L 349.779639 51.411347 
L 349.779639 50.108917 
L 351.992187 50.108917 
L 351.992187 48.806486 
L 352.581553 48.806486 
L 352.581553 47.504055 
L 353.776308 47.504055 
L 353.776308 46.201625 
L 354.201519 46.201625 
L 354.201519 44.899194 
L 354.851044 44.899194 
L 354.851044 43.596763 
L 357.063592 43.596763 
L 357.063592 42.294333 
L 370.642606 42.294333 
L 370.642606 40.991902 
L 371.837361 40.991902 
L 371.837361 39.689471 
L 372.262572 39.689471 
L 372.262572 38.387041 
L 372.855155 38.387041 
L 372.855155 37.08461 
L 374.049909 37.08461 
L 374.049909 35.782179 
L 374.475121 35.782179 
L 374.475121 34.479749 
L 453.192 34.479749 
L 453.192 34.479749 
" clip-path="url(#p44ae8249b5)" style="fill: none; stroke: #bf00bf; stroke-width: 3; stroke-linecap: square"/>
   </g>
   <g id="line2d_59">
    <path clip-path="url(#p44ae8249b5)" style="fill: none; stroke: #bf00bf; stroke-width: 3; stroke-linecap: square"/>
   </g>
   <g id="line2d_60">
    <path d="M 34.16 220.727332 
L 116.231145 220.727332 
L 116.231145 219.424901 
L 118.599298 219.424901 
L 118.599298 218.12247 
L 120.713551 218.12247 
L 120.713551 216.82004 
L 122.992384 216.82004 
L 122.992384 215.517609 
L 144.372016 215.517609 
L 144.372016 214.215178 
L 146.196173 214.215178 
L 146.218872 211.610317 
L 174.39356 211.610317 
L 174.39356 210.307887 
L 175.880582 210.307887 
L 175.945961 207.703025 
L 177.752832 207.703025 
L 177.752832 206.400595 
L 178.248736 206.400595 
L 178.314115 203.795733 
L 180.120986 203.795733 
L 180.120986 202.493303 
L 180.362989 202.493303 
L 180.428367 199.888441 
L 181.082451 199.888441 
L 181.082451 198.586011 
L 182.235238 198.586011 
L 182.235238 197.28358 
L 182.641822 197.28358 
L 182.7072 194.678719 
L 183.450605 194.678719 
L 183.450605 193.376288 
L 184.514071 193.376288 
L 184.514071 192.073857 
L 185.564858 192.073857 
L 185.564858 190.771427 
L 187.843691 190.771427 
L 187.843691 189.468996 
L 202.769611 189.468996 
L 202.769611 188.166565 
L 204.021454 188.166565 
L 204.086833 185.561704 
L 205.137765 185.561704 
L 205.137765 184.259274 
L 205.845611 184.259274 
L 205.933689 177.74712 
L 206.667671 177.74712 
L 206.667671 176.44469 
L 207.252017 176.44469 
L 207.252017 175.142259 
L 207.717861 175.142259 
L 207.74056 172.537398 
L 209.035825 172.537398 
L 209.035825 171.234967 
L 209.223323 171.234967 
L 209.223323 169.932536 
L 209.53085 169.932536 
L 209.53085 168.630106 
L 210.093172 168.630106 
L 210.093172 167.327675 
L 211.04748 167.327675 
L 211.150078 163.420383 
L 212.461325 163.420383 
L 212.461325 162.117952 
L 213.428911 162.117952 
L 213.428911 160.815522 
L 214.575578 160.815522 
L 214.575578 159.513091 
L 215.064267 159.513091 
L 215.064267 158.210661 
L 216.854411 158.210661 
L 216.854411 156.90823 
L 228.464738 156.90823 
L 228.464738 155.605799 
L 230.228816 155.605799 
L 230.228816 154.303369 
L 230.832892 154.303369 
L 230.910482 151.698507 
L 232.373737 151.698507 
L 232.373737 150.396077 
L 232.734639 150.396077 
L 232.757339 147.791215 
L 232.947144 147.791215 
L 232.947144 146.488785 
L 233.480777 146.488785 
L 233.480777 145.186354 
L 234.042998 145.186354 
L 234.108376 142.581493 
L 234.808543 142.581493 
L 234.808543 141.279062 
L 235.225977 141.279062 
L 235.225977 139.976631 
L 235.848931 139.976631 
L 235.915247 137.37177 
L 236.6327 137.37177 
L 236.655399 134.766909 
L 237.963183 134.766909 
L 237.963183 133.464478 
L 238.234043 133.464478 
L 238.234043 132.162048 
L 239.244866 132.162048 
L 239.244866 130.859617 
L 240.0582 130.859617 
L 240.080899 128.254756 
L 240.242016 128.254756 
L 240.242016 126.952325 
L 250.727683 126.952325 
L 250.727683 125.649894 
L 251.943647 125.649894 
L 251.943647 124.347464 
L 252.156066 124.347464 
L 252.156066 123.045033 
L 253.095837 123.045033 
L 253.095837 121.742602 
L 254.311801 121.742602 
L 254.311801 120.440172 
L 254.52422 120.440172 
L 254.52422 119.137741 
L 255.210089 119.137741 
L 255.210089 117.83531 
L 256.426054 117.83531 
L 256.426054 116.53288 
L 256.605609 116.53288 
L 256.638473 113.928018 
L 257.488922 113.928018 
L 257.488922 112.625588 
L 258.429766 112.625588 
L 258.452466 110.020726 
L 258.704887 110.020726 
L 258.704887 108.718296 
L 258.917306 108.718296 
L 258.917306 107.415865 
L 260.932026 107.415865 
L 260.932026 106.113435 
L 261.621649 106.113435 
L 261.621649 104.811004 
L 263.445806 104.811004 
L 263.468505 102.206143 
L 264.830087 102.206143 
L 264.830087 100.903712 
L 268.255587 100.903712 
L 268.255587 99.601281 
L 274.713705 99.601281 
L 274.779084 96.99642 
L 276.585955 96.99642 
L 276.585955 95.693989 
L 278.868555 95.693989 
L 278.868555 94.391559 
L 279.915574 94.391559 
L 279.915574 93.089128 
L 280.084519 93.089128 
L 280.084519 91.786697 
L 280.296938 91.786697 
L 280.296938 90.484267 
L 280.692712 90.484267 
L 280.715411 87.879405 
L 281.908676 87.879405 
L 281.931375 85.274544 
L 282.121095 85.274544 
L 282.143794 82.669683 
L 286.627153 82.669683 
L 286.627153 81.367252 
L 289.878253 81.367252 
L 289.943632 78.762391 
L 291.643192 78.762391 
L 291.750503 76.15753 
L 292.023175 76.15753 
L 292.088553 73.552668 
L 293.895424 73.552668 
L 293.895424 72.250238 
L 295.080122 72.250238 
L 295.080122 70.947807 
L 297.225044 70.947807 
L 297.225044 69.645376 
L 301.602734 69.645376 
L 301.602734 68.342946 
L 305.500794 68.342946 
L 305.500794 67.040515 
L 308.890098 67.040515 
L 308.926295 64.435654 
L 310.106063 64.435654 
L 310.106063 63.133223 
L 310.318482 63.133223 
L 310.318482 61.830792 
L 316.767282 61.830792 
L 316.767282 60.528362 
L 318.912203 60.528362 
L 318.912203 59.225931 
L 320.665342 59.225931 
L 320.665342 57.9235 
L 322.810264 57.9235 
L 322.810264 56.62107 
L 324.090843 56.62107 
L 324.090843 55.318639 
L 326.235764 55.318639 
L 326.235764 54.016209 
L 327.297861 54.016209 
L 327.297861 52.713778 
L 332.3139 52.713778 
L 332.3139 51.411347 
L 342.462409 51.411347 
L 342.462409 50.108917 
L 344.60733 50.108917 
L 344.60733 48.806486 
L 347.478448 48.806486 
L 347.478448 47.504055 
L 349.560806 47.504055 
L 349.623369 44.899194 
L 350.77677 44.899194 
L 350.77677 43.596763 
L 350.989189 43.596763 
L 350.989189 42.294333 
L 364.725354 42.294333 
L 364.725354 40.991902 
L 365.941318 40.991902 
L 365.941318 39.689471 
L 366.153737 39.689471 
L 366.153737 38.387041 
L 366.870275 38.387041 
L 366.870275 37.08461 
L 368.08624 37.08461 
L 368.08624 35.782179 
L 368.298659 35.782179 
L 368.298659 34.479749 
L 453.192 34.479749 
L 453.192 34.479749 
" clip-path="url(#p44ae8249b5)" style="fill: none; stroke: #ff0000; stroke-width: 3; stroke-linecap: square"/>
   </g>
   <g id="line2d_61">
    <path clip-path="url(#p44ae8249b5)" style="fill: none; stroke: #ff0000; stroke-width: 3; stroke-linecap: square"/>
   </g>
   <g id="line2d_62">
    <path d="M 243.676 291.28 
L 243.676 3 
" clip-path="url(#p44ae8249b5)" style="fill: none; stroke: #000000; stroke-width: 1.5; stroke-linecap: square"/>
   </g>
   <g id="line2d_63">
    <path d="M 34.16 147.14 
L 453.192 147.14 
" clip-path="url(#p44ae8249b5)" style="fill: none; stroke-dasharray: 2,3.3; stroke-dashoffset: 0; stroke: #000000; stroke-width: 2"/>
   </g>
   <g id="patch_3">
    <path d="M 34.16 291.28 
L 34.16 3 
" style="fill: none; stroke: #000000; stroke-width: 0.8; stroke-linejoin: miter; stroke-linecap: square"/>
   </g>
   <g id="patch_4">
    <path d="M 453.192 291.28 
L 453.192 3 
" style="fill: none; stroke: #000000; stroke-width: 0.8; stroke-linejoin: miter; stroke-linecap: square"/>
   </g>
   <g id="patch_5">
    <path d="M 34.16 291.28 
L 453.192 291.28 
" style="fill: none; stroke: #000000; stroke-width: 0.8; stroke-linejoin: miter; stroke-linecap: square"/>
   </g>
   <g id="patch_6">
    <path d="M 34.16 3 
L 453.192 3 
" style="fill: none; stroke: #000000; stroke-width: 0.8; stroke-linejoin: miter; stroke-linecap: square"/>
   </g>
   <g id="text_5">
    <!-- f20-f24,40-D -->
    <g transform="translate(318.19261 285.5144) scale(0.2 -0.2)">
     <defs>
      <path id="DejaVuSans-32" d="M 1228 531 
L 3431 531 
L 3431 0 
L 469 0 
L 469 531 
Q 828 903 1448 1529 
Q 2069 2156 2228 2338 
Q 2531 2678 2651 2914 
Q 2772 3150 2772 3378 
Q 2772 3750 2511 3984 
Q 2250 4219 1831 4219 
Q 1534 4219 1204 4116 
Q 875 4013 500 3803 
L 500 4441 
Q 881 4594 1212 4672 
Q 1544 4750 1819 4750 
Q 2544 4750 2975 4387 
Q 3406 4025 3406 3419 
Q 3406 3131 3298 2873 
Q 3191 2616 2906 2266 
Q 2828 2175 2409 1742 
Q 1991 1309 1228 531 
z
" transform="scale(0.015625)"/>
      <path id="DejaVuSans-34" d="M 2419 4116 
L 825 1625 
L 2419 1625 
L 2419 4116 
z
M 2253 4666 
L 3047 4666 
L 3047 1625 
L 3713 1625 
L 3713 1100 
L 3047 1100 
L 3047 0 
L 2419 0 
L 2419 1100 
L 313 1100 
L 313 1709 
L 2253 4666 
z
" transform="scale(0.015625)"/>
      <path id="DejaVuSans-2c" d="M 750 794 
L 1409 794 
L 1409 256 
L 897 -744 
L 494 -744 
L 750 256 
L 750 794 
z
" transform="scale(0.015625)"/>
      <path id="DejaVuSans-44" d="M 1259 4147 
L 1259 519 
L 2022 519 
Q 2988 519 3436 956 
Q 3884 1394 3884 2338 
Q 3884 3275 3436 3711 
Q 2988 4147 2022 4147 
L 1259 4147 
z
M 628 4666 
L 1925 4666 
Q 3281 4666 3915 4102 
Q 4550 3538 4550 2338 
Q 4550 1131 3912 565 
Q 3275 0 1925 0 
L 628 0 
L 628 4666 
z
" transform="scale(0.015625)"/>
     </defs>
     <use xlink:href="#DejaVuSans-66"/>
     <use xlink:href="#DejaVuSans-32" x="35.205078"/>
     <use xlink:href="#DejaVuSans-30" x="98.828125"/>
     <use xlink:href="#DejaVuSans-2d" x="162.451172"/>
     <use xlink:href="#DejaVuSans-66" x="198.535156"/>
     <use xlink:href="#DejaVuSans-32" x="233.740234"/>
     <use xlink:href="#DejaVuSans-34" x="297.363281"/>
     <use xlink:href="#DejaVuSans-2c" x="360.986328"/>
     <use xlink:href="#DejaVuSans-34" x="392.773438"/>
     <use xlink:href="#DejaVuSans-30" x="456.396484"/>
     <use xlink:href="#DejaVuSans-2d" x="520.019531"/>
     <use xlink:href="#DejaVuSans-44" x="556.103516"/>
    </g>
   </g>
   <g id="text_6">
    <!-- v2.6.3 -->
    <g style="fill: #808080" transform="translate(227.99475 286.317512) scale(0.1 -0.1)">
     <defs>
      <path id="DejaVuSans-2e" d="M 684 794 
L 1344 794 
L 1344 0 
L 684 0 
L 684 794 
z
" transform="scale(0.015625)"/>
      <path id="DejaVuSans-36" d="M 2113 2584 
Q 1688 2584 1439 2293 
Q 1191 2003 1191 1497 
Q 1191 994 1439 701 
Q 1688 409 2113 409 
Q 2538 409 2786 701 
Q 3034 994 3034 1497 
Q 3034 2003 2786 2293 
Q 2538 2584 2113 2584 
z
M 3366 4563 
L 3366 3988 
Q 3128 4100 2886 4159 
Q 2644 4219 2406 4219 
Q 1781 4219 1451 3797 
Q 1122 3375 1075 2522 
Q 1259 2794 1537 2939 
Q 1816 3084 2150 3084 
Q 2853 3084 3261 2657 
Q 3669 2231 3669 1497 
Q 3669 778 3244 343 
Q 2819 -91 2113 -91 
Q 1303 -91 875 529 
Q 447 1150 447 2328 
Q 447 3434 972 4092 
Q 1497 4750 2381 4750 
Q 2619 4750 2861 4703 
Q 3103 4656 3366 4563 
z
" transform="scale(0.015625)"/>
      <path id="DejaVuSans-33" d="M 2597 2516 
Q 3050 2419 3304 2112 
Q 3559 1806 3559 1356 
Q 3559 666 3084 287 
Q 2609 -91 1734 -91 
Q 1441 -91 1130 -33 
Q 819 25 488 141 
L 488 750 
Q 750 597 1062 519 
Q 1375 441 1716 441 
Q 2309 441 2620 675 
Q 2931 909 2931 1356 
Q 2931 1769 2642 2001 
Q 2353 2234 1838 2234 
L 1294 2234 
L 1294 2753 
L 1863 2753 
Q 2328 2753 2575 2939 
Q 2822 3125 2822 3475 
Q 2822 3834 2567 4026 
Q 2313 4219 1838 4219 
Q 1578 4219 1281 4162 
Q 984 4106 628 3988 
L 628 4550 
Q 988 4650 1302 4700 
Q 1616 4750 1894 4750 
Q 2613 4750 3031 4423 
Q 3450 4097 3450 3541 
Q 3450 3153 3228 2886 
Q 3006 2619 2597 2516 
z
" transform="scale(0.015625)"/>
     </defs>
     <use xlink:href="#DejaVuSans-76"/>
     <use xlink:href="#DejaVuSans-32" x="59.179688"/>
     <use xlink:href="#DejaVuSans-2e" x="122.802734"/>
     <use xlink:href="#DejaVuSans-36" x="154.589844"/>
     <use xlink:href="#DejaVuSans-2e" x="218.212891"/>
     <use xlink:href="#DejaVuSans-33" x="250"/>
    </g>
   </g>
   <g id="legend_1">
    <g id="patch_7">
     <path d="M 48.16 136.425 
L 177.381875 136.425 
Q 181.381875 136.425 181.381875 132.425 
L 181.381875 17 
Q 181.381875 13 177.381875 13 
L 48.16 13 
Q 44.16 13 44.16 17 
L 44.16 132.425 
Q 44.16 136.425 48.16 136.425 
z
" style="fill: #ffffff; opacity: 0.2; stroke: #cccccc; stroke-linejoin: miter"/>
    </g>
    <g id="line2d_64">
     <path d="M 52.16 29.196875 
L 72.16 29.196875 
L 92.16 29.196875 
" style="fill: none; stroke: #000000; stroke-width: 3; stroke-linecap: square"/>
    </g>
    <g id="text_7">
     <!-- 1: 2/2 -->
     <g transform="translate(108.16 36.196875) scale(0.2 -0.2)">
      <defs>
       <path id="DejaVuSans-3a" d="M 750 794 
L 1409 794 
L 1409 0 
L 750 0 
L 750 794 
z
M 750 3309 
L 1409 3309 
L 1409 2516 
L 750 2516 
L 750 3309 
z
" transform="scale(0.015625)"/>
       <path id="DejaVuSans-2f" d="M 1625 4666 
L 2156 4666 
L 531 -594 
L 0 -594 
L 1625 4666 
z
" transform="scale(0.015625)"/>
      </defs>
      <use xlink:href="#DejaVuSans-31"/>
      <use xlink:href="#DejaVuSans-3a" x="63.623047"/>
      <use xlink:href="#DejaVuSans-20" x="97.314453"/>
      <use xlink:href="#DejaVuSans-32" x="129.101562"/>
      <use xlink:href="#DejaVuSans-2f" x="192.724609"/>
      <use xlink:href="#DejaVuSans-32" x="226.416016"/>
     </g>
    </g>
    <g id="line2d_65">
     <path d="M 52.16 58.553125 
L 72.16 58.553125 
L 92.16 58.553125 
" style="fill: none; stroke: #00bfbf; stroke-width: 3; stroke-linecap: square"/>
    </g>
    <g id="text_8">
     <!-- -1: 2/2 -->
     <g transform="translate(108.16 65.553125) scale(0.2 -0.2)">
      <use xlink:href="#DejaVuSans-2d"/>
      <use xlink:href="#DejaVuSans-31" x="36.083984"/>
      <use xlink:href="#DejaVuSans-3a" x="99.707031"/>
      <use xlink:href="#DejaVuSans-20" x="133.398438"/>
      <use xlink:href="#DejaVuSans-32" x="165.185547"/>
      <use xlink:href="#DejaVuSans-2f" x="228.808594"/>
      <use xlink:href="#DejaVuSans-32" x="262.5"/>
     </g>
    </g>
    <g id="line2d_66">
     <path d="M 52.16 87.909375 
L 72.16 87.909375 
L 92.16 87.909375 
" style="fill: none; stroke: #bf00bf; stroke-width: 3; stroke-linecap: square"/>
    </g>
    <g id="text_9">
     <!-- -4: 1/1 -->
     <g transform="translate(108.16 94.909375) scale(0.2 -0.2)">
      <use xlink:href="#DejaVuSans-2d"/>
      <use xlink:href="#DejaVuSans-34" x="36.083984"/>
      <use xlink:href="#DejaVuSans-3a" x="99.707031"/>
      <use xlink:href="#DejaVuSans-20" x="133.398438"/>
      <use xlink:href="#DejaVuSans-31" x="165.185547"/>
      <use xlink:href="#DejaVuSans-2f" x="228.808594"/>
      <use xlink:href="#DejaVuSans-31" x="262.5"/>
     </g>
    </g>
    <g id="line2d_67">
     <path d="M 52.16 117.265625 
L 72.16 117.265625 
L 92.16 117.265625 
" style="fill: none; stroke: #ff0000; stroke-width: 3; stroke-linecap: square"/>
    </g>
    <g id="text_10">
     <!-- -8: 1/1 -->
     <g transform="translate(108.16 124.265625) scale(0.2 -0.2)">
      <defs>
       <path id="DejaVuSans-38" d="M 2034 2216 
Q 1584 2216 1326 1975 
Q 1069 1734 1069 1313 
Q 1069 891 1326 650 
Q 1584 409 2034 409 
Q 2484 409 2743 651 
Q 3003 894 3003 1313 
Q 3003 1734 2745 1975 
Q 2488 2216 2034 2216 
z
M 1403 2484 
Q 997 2584 770 2862 
Q 544 3141 544 3541 
Q 544 4100 942 4425 
Q 1341 4750 2034 4750 
Q 2731 4750 3128 4425 
Q 3525 4100 3525 3541 
Q 3525 3141 3298 2862 
Q 3072 2584 2669 2484 
Q 3125 2378 3379 2068 
Q 3634 1759 3634 1313 
Q 3634 634 3220 271 
Q 2806 -91 2034 -91 
Q 1263 -91 848 271 
Q 434 634 434 1313 
Q 434 1759 690 2068 
Q 947 2378 1403 2484 
z
M 1172 3481 
Q 1172 3119 1398 2916 
Q 1625 2713 2034 2713 
Q 2441 2713 2670 2916 
Q 2900 3119 2900 3481 
Q 2900 3844 2670 4047 
Q 2441 4250 2034 4250 
Q 1625 4250 1398 4047 
Q 1172 3844 1172 3481 
z
" transform="scale(0.015625)"/>
      </defs>
      <use xlink:href="#DejaVuSans-2d"/>
      <use xlink:href="#DejaVuSans-38" x="36.083984"/>
      <use xlink:href="#DejaVuSans-3a" x="99.707031"/>
      <use xlink:href="#DejaVuSans-20" x="133.398438"/>
      <use xlink:href="#DejaVuSans-31" x="165.185547"/>
      <use xlink:href="#DejaVuSans-2f" x="228.808594"/>
      <use xlink:href="#DejaVuSans-31" x="262.5"/>
     </g>
    </g>
   </g>
  </g>
 </g>
 <defs>
  <clipPath id="p44ae8249b5">
   <rect x="34.16" y="3" width="419.032" height="288.28"/>
  </clipPath>
 </defs>
</svg>
