<?xml version="1.0" encoding="utf-8" standalone="no"?>
<!DOCTYPE svg PUBLIC "-//W3C//DTD SVG 1.1//EN"
  "http://www.w3.org/Graphics/SVG/1.1/DTD/svg11.dtd">
<svg xmlns:xlink="http://www.w3.org/1999/xlink" width="460.8pt" height="345.6pt" viewBox="0 0 460.8 345.6" xmlns="http://www.w3.org/2000/svg" version="1.1">
 <metadata>
  <rdf:RDF xmlns:dc="http://purl.org/dc/elements/1.1/" xmlns:cc="http://creativecommons.org/ns#" xmlns:rdf="http://www.w3.org/1999/02/22-rdf-syntax-ns#">
   <cc:Work>
    <dc:type rdf:resource="http://purl.org/dc/dcmitype/StillImage"/>
    <dc:date>2024-06-07T14:17:52.033835</dc:date>
    <dc:format>image/svg+xml</dc:format>
    <dc:creator>
     <cc:Agent>
      <dc:title>Matplotlib v3.7.1, https://matplotlib.org/</dc:title>
     </cc:Agent>
    </dc:creator>
   </cc:Work>
  </rdf:RDF>
 </metadata>
 <defs>
  <style type="text/css">*{stroke-linejoin: round; stroke-linecap: butt}</style>
 </defs>
 <g id="figure_1">
  <g id="patch_1">
   <path d="M 0 345.6 
L 460.8 345.6 
L 460.8 0 
L 0 0 
z
" style="fill: #ffffff"/>
  </g>
  <g id="axes_1">
   <g id="patch_2">
    <path d="M 34.16 291.28 
L 453.192 291.28 
L 453.192 3 
L 34.16 3 
z
" style="fill: #ffffff"/>
   </g>
   <g id="matplotlib.axis_1">
    <g id="xtick_1">
     <g id="line2d_1">
      <path d="M 151.238102 291.28 
L 151.238102 3 
" clip-path="url(#p34f66e64ff)" style="fill: none; stroke: #b0b0b0; stroke-width: 0.8; stroke-linecap: square"/>
     </g>
     <g id="line2d_2">
      <defs>
       <path id="me1d52943f6" d="M 0 0 
L 0 3.5 
" style="stroke: #000000; stroke-width: 0.8"/>
      </defs>
      <g>
       <use xlink:href="#me1d52943f6" x="151.238102" y="291.28" style="stroke: #000000; stroke-width: 0.8"/>
      </g>
     </g>
     <g id="text_1">
      <!-- -1 -->
      <g transform="translate(141.26779 313.476875) scale(0.2 -0.2)">
       <defs>
        <path id="DejaVuSans-2d" d="M 313 2009 
L 1997 2009 
L 1997 1497 
L 313 1497 
L 313 2009 
z
" transform="scale(0.015625)"/>
        <path id="DejaVuSans-31" d="M 794 531 
L 1825 531 
L 1825 4091 
L 703 3866 
L 703 4441 
L 1819 4666 
L 2450 4666 
L 2450 531 
L 3481 531 
L 3481 0 
L 794 0 
L 794 531 
z
" transform="scale(0.015625)"/>
       </defs>
       <use xlink:href="#DejaVuSans-2d"/>
       <use xlink:href="#DejaVuSans-31" x="36.083984"/>
      </g>
     </g>
    </g>
    <g id="xtick_2">
     <g id="line2d_3">
      <path d="M 336.113898 291.28 
L 336.113898 3 
" clip-path="url(#p34f66e64ff)" style="fill: none; stroke: #b0b0b0; stroke-width: 0.8; stroke-linecap: square"/>
     </g>
     <g id="line2d_4">
      <g>
       <use xlink:href="#me1d52943f6" x="336.113898" y="291.28" style="stroke: #000000; stroke-width: 0.8"/>
      </g>
     </g>
     <g id="text_2">
      <!-- 1 -->
      <g transform="translate(329.751398 313.476875) scale(0.2 -0.2)">
       <use xlink:href="#DejaVuSans-31"/>
      </g>
     </g>
    </g>
    <g id="xtick_3">
     <g id="line2d_5">
      <defs>
       <path id="m04232b8cb9" d="M 0 0 
L 0 2 
" style="stroke: #000000; stroke-width: 0.6"/>
      </defs>
      <g>
       <use xlink:href="#m04232b8cb9" x="38.292972" y="291.28" style="stroke: #000000; stroke-width: 0.6"/>
      </g>
     </g>
    </g>
    <g id="xtick_4">
     <g id="line2d_6">
      <g>
       <use xlink:href="#m04232b8cb9" x="44.481393" y="291.28" style="stroke: #000000; stroke-width: 0.6"/>
      </g>
     </g>
    </g>
    <g id="xtick_5">
     <g id="line2d_7">
      <g>
       <use xlink:href="#m04232b8cb9" x="49.842046" y="291.28" style="stroke: #000000; stroke-width: 0.6"/>
      </g>
     </g>
    </g>
    <g id="xtick_6">
     <g id="line2d_8">
      <g>
       <use xlink:href="#m04232b8cb9" x="54.570478" y="291.28" style="stroke: #000000; stroke-width: 0.6"/>
      </g>
     </g>
    </g>
    <g id="xtick_7">
     <g id="line2d_9">
      <g>
       <use xlink:href="#m04232b8cb9" x="86.626784" y="291.28" style="stroke: #000000; stroke-width: 0.6"/>
      </g>
     </g>
    </g>
    <g id="xtick_8">
     <g id="line2d_10">
      <g>
       <use xlink:href="#m04232b8cb9" x="102.90429" y="291.28" style="stroke: #000000; stroke-width: 0.6"/>
      </g>
     </g>
    </g>
    <g id="xtick_9">
     <g id="line2d_11">
      <g>
       <use xlink:href="#m04232b8cb9" x="114.453364" y="291.28" style="stroke: #000000; stroke-width: 0.6"/>
      </g>
     </g>
    </g>
    <g id="xtick_10">
     <g id="line2d_12">
      <g>
       <use xlink:href="#m04232b8cb9" x="123.411522" y="291.28" style="stroke: #000000; stroke-width: 0.6"/>
      </g>
     </g>
    </g>
    <g id="xtick_11">
     <g id="line2d_13">
      <g>
       <use xlink:href="#m04232b8cb9" x="130.73087" y="291.28" style="stroke: #000000; stroke-width: 0.6"/>
      </g>
     </g>
    </g>
    <g id="xtick_12">
     <g id="line2d_14">
      <g>
       <use xlink:href="#m04232b8cb9" x="136.919291" y="291.28" style="stroke: #000000; stroke-width: 0.6"/>
      </g>
     </g>
    </g>
    <g id="xtick_13">
     <g id="line2d_15">
      <g>
       <use xlink:href="#m04232b8cb9" x="142.279944" y="291.28" style="stroke: #000000; stroke-width: 0.6"/>
      </g>
     </g>
    </g>
    <g id="xtick_14">
     <g id="line2d_16">
      <g>
       <use xlink:href="#m04232b8cb9" x="147.008376" y="291.28" style="stroke: #000000; stroke-width: 0.6"/>
      </g>
     </g>
    </g>
    <g id="xtick_15">
     <g id="line2d_17">
      <g>
       <use xlink:href="#m04232b8cb9" x="179.064682" y="291.28" style="stroke: #000000; stroke-width: 0.6"/>
      </g>
     </g>
    </g>
    <g id="xtick_16">
     <g id="line2d_18">
      <g>
       <use xlink:href="#m04232b8cb9" x="195.342188" y="291.28" style="stroke: #000000; stroke-width: 0.6"/>
      </g>
     </g>
    </g>
    <g id="xtick_17">
     <g id="line2d_19">
      <g>
       <use xlink:href="#m04232b8cb9" x="206.891262" y="291.28" style="stroke: #000000; stroke-width: 0.6"/>
      </g>
     </g>
    </g>
    <g id="xtick_18">
     <g id="line2d_20">
      <g>
       <use xlink:href="#m04232b8cb9" x="215.84942" y="291.28" style="stroke: #000000; stroke-width: 0.6"/>
      </g>
     </g>
    </g>
    <g id="xtick_19">
     <g id="line2d_21">
      <g>
       <use xlink:href="#m04232b8cb9" x="223.168768" y="291.28" style="stroke: #000000; stroke-width: 0.6"/>
      </g>
     </g>
    </g>
    <g id="xtick_20">
     <g id="line2d_22">
      <g>
       <use xlink:href="#m04232b8cb9" x="229.357188" y="291.28" style="stroke: #000000; stroke-width: 0.6"/>
      </g>
     </g>
    </g>
    <g id="xtick_21">
     <g id="line2d_23">
      <g>
       <use xlink:href="#m04232b8cb9" x="234.717842" y="291.28" style="stroke: #000000; stroke-width: 0.6"/>
      </g>
     </g>
    </g>
    <g id="xtick_22">
     <g id="line2d_24">
      <g>
       <use xlink:href="#m04232b8cb9" x="239.446274" y="291.28" style="stroke: #000000; stroke-width: 0.6"/>
      </g>
     </g>
    </g>
    <g id="xtick_23">
     <g id="line2d_25">
      <g>
       <use xlink:href="#m04232b8cb9" x="271.50258" y="291.28" style="stroke: #000000; stroke-width: 0.6"/>
      </g>
     </g>
    </g>
    <g id="xtick_24">
     <g id="line2d_26">
      <g>
       <use xlink:href="#m04232b8cb9" x="287.780086" y="291.28" style="stroke: #000000; stroke-width: 0.6"/>
      </g>
     </g>
    </g>
    <g id="xtick_25">
     <g id="line2d_27">
      <g>
       <use xlink:href="#m04232b8cb9" x="299.32916" y="291.28" style="stroke: #000000; stroke-width: 0.6"/>
      </g>
     </g>
    </g>
    <g id="xtick_26">
     <g id="line2d_28">
      <g>
       <use xlink:href="#m04232b8cb9" x="308.287318" y="291.28" style="stroke: #000000; stroke-width: 0.6"/>
      </g>
     </g>
    </g>
    <g id="xtick_27">
     <g id="line2d_29">
      <g>
       <use xlink:href="#m04232b8cb9" x="315.606666" y="291.28" style="stroke: #000000; stroke-width: 0.6"/>
      </g>
     </g>
    </g>
    <g id="xtick_28">
     <g id="line2d_30">
      <g>
       <use xlink:href="#m04232b8cb9" x="321.795086" y="291.28" style="stroke: #000000; stroke-width: 0.6"/>
      </g>
     </g>
    </g>
    <g id="xtick_29">
     <g id="line2d_31">
      <g>
       <use xlink:href="#m04232b8cb9" x="327.15574" y="291.28" style="stroke: #000000; stroke-width: 0.6"/>
      </g>
     </g>
    </g>
    <g id="xtick_30">
     <g id="line2d_32">
      <g>
       <use xlink:href="#m04232b8cb9" x="331.884172" y="291.28" style="stroke: #000000; stroke-width: 0.6"/>
      </g>
     </g>
    </g>
    <g id="xtick_31">
     <g id="line2d_33">
      <g>
       <use xlink:href="#m04232b8cb9" x="363.940478" y="291.28" style="stroke: #000000; stroke-width: 0.6"/>
      </g>
     </g>
    </g>
    <g id="xtick_32">
     <g id="line2d_34">
      <g>
       <use xlink:href="#m04232b8cb9" x="380.217984" y="291.28" style="stroke: #000000; stroke-width: 0.6"/>
      </g>
     </g>
    </g>
    <g id="xtick_33">
     <g id="line2d_35">
      <g>
       <use xlink:href="#m04232b8cb9" x="391.767058" y="291.28" style="stroke: #000000; stroke-width: 0.6"/>
      </g>
     </g>
    </g>
    <g id="xtick_34">
     <g id="line2d_36">
      <g>
       <use xlink:href="#m04232b8cb9" x="400.725216" y="291.28" style="stroke: #000000; stroke-width: 0.6"/>
      </g>
     </g>
    </g>
    <g id="xtick_35">
     <g id="line2d_37">
      <g>
       <use xlink:href="#m04232b8cb9" x="408.044564" y="291.28" style="stroke: #000000; stroke-width: 0.6"/>
      </g>
     </g>
    </g>
    <g id="xtick_36">
     <g id="line2d_38">
      <g>
       <use xlink:href="#m04232b8cb9" x="414.232984" y="291.28" style="stroke: #000000; stroke-width: 0.6"/>
      </g>
     </g>
    </g>
    <g id="xtick_37">
     <g id="line2d_39">
      <g>
       <use xlink:href="#m04232b8cb9" x="419.593638" y="291.28" style="stroke: #000000; stroke-width: 0.6"/>
      </g>
     </g>
    </g>
    <g id="xtick_38">
     <g id="line2d_40">
      <g>
       <use xlink:href="#m04232b8cb9" x="424.32207" y="291.28" style="stroke: #000000; stroke-width: 0.6"/>
      </g>
     </g>
    </g>
    <g id="text_3">
     <!-- log10 of FEvals ratio -->
     <g transform="translate(141.371312 336.833125) scale(0.2 -0.2)">
      <defs>
       <path id="DejaVuSans-6c" d="M 603 4863 
L 1178 4863 
L 1178 0 
L 603 0 
L 603 4863 
z
" transform="scale(0.015625)"/>
       <path id="DejaVuSans-6f" d="M 1959 3097 
Q 1497 3097 1228 2736 
Q 959 2375 959 1747 
Q 959 1119 1226 758 
Q 1494 397 1959 397 
Q 2419 397 2687 759 
Q 2956 1122 2956 1747 
Q 2956 2369 2687 2733 
Q 2419 3097 1959 3097 
z
M 1959 3584 
Q 2709 3584 3137 3096 
Q 3566 2609 3566 1747 
Q 3566 888 3137 398 
Q 2709 -91 1959 -91 
Q 1206 -91 779 398 
Q 353 888 353 1747 
Q 353 2609 779 3096 
Q 1206 3584 1959 3584 
z
" transform="scale(0.015625)"/>
       <path id="DejaVuSans-67" d="M 2906 1791 
Q 2906 2416 2648 2759 
Q 2391 3103 1925 3103 
Q 1463 3103 1205 2759 
Q 947 2416 947 1791 
Q 947 1169 1205 825 
Q 1463 481 1925 481 
Q 2391 481 2648 825 
Q 2906 1169 2906 1791 
z
M 3481 434 
Q 3481 -459 3084 -895 
Q 2688 -1331 1869 -1331 
Q 1566 -1331 1297 -1286 
Q 1028 -1241 775 -1147 
L 775 -588 
Q 1028 -725 1275 -790 
Q 1522 -856 1778 -856 
Q 2344 -856 2625 -561 
Q 2906 -266 2906 331 
L 2906 616 
Q 2728 306 2450 153 
Q 2172 0 1784 0 
Q 1141 0 747 490 
Q 353 981 353 1791 
Q 353 2603 747 3093 
Q 1141 3584 1784 3584 
Q 2172 3584 2450 3431 
Q 2728 3278 2906 2969 
L 2906 3500 
L 3481 3500 
L 3481 434 
z
" transform="scale(0.015625)"/>
       <path id="DejaVuSans-30" d="M 2034 4250 
Q 1547 4250 1301 3770 
Q 1056 3291 1056 2328 
Q 1056 1369 1301 889 
Q 1547 409 2034 409 
Q 2525 409 2770 889 
Q 3016 1369 3016 2328 
Q 3016 3291 2770 3770 
Q 2525 4250 2034 4250 
z
M 2034 4750 
Q 2819 4750 3233 4129 
Q 3647 3509 3647 2328 
Q 3647 1150 3233 529 
Q 2819 -91 2034 -91 
Q 1250 -91 836 529 
Q 422 1150 422 2328 
Q 422 3509 836 4129 
Q 1250 4750 2034 4750 
z
" transform="scale(0.015625)"/>
       <path id="DejaVuSans-20" transform="scale(0.015625)"/>
       <path id="DejaVuSans-66" d="M 2375 4863 
L 2375 4384 
L 1825 4384 
Q 1516 4384 1395 4259 
Q 1275 4134 1275 3809 
L 1275 3500 
L 2222 3500 
L 2222 3053 
L 1275 3053 
L 1275 0 
L 697 0 
L 697 3053 
L 147 3053 
L 147 3500 
L 697 3500 
L 697 3744 
Q 697 4328 969 4595 
Q 1241 4863 1831 4863 
L 2375 4863 
z
" transform="scale(0.015625)"/>
       <path id="DejaVuSans-46" d="M 628 4666 
L 3309 4666 
L 3309 4134 
L 1259 4134 
L 1259 2759 
L 3109 2759 
L 3109 2228 
L 1259 2228 
L 1259 0 
L 628 0 
L 628 4666 
z
" transform="scale(0.015625)"/>
       <path id="DejaVuSans-45" d="M 628 4666 
L 3578 4666 
L 3578 4134 
L 1259 4134 
L 1259 2753 
L 3481 2753 
L 3481 2222 
L 1259 2222 
L 1259 531 
L 3634 531 
L 3634 0 
L 628 0 
L 628 4666 
z
" transform="scale(0.015625)"/>
       <path id="DejaVuSans-76" d="M 191 3500 
L 800 3500 
L 1894 563 
L 2988 3500 
L 3597 3500 
L 2284 0 
L 1503 0 
L 191 3500 
z
" transform="scale(0.015625)"/>
       <path id="DejaVuSans-61" d="M 2194 1759 
Q 1497 1759 1228 1600 
Q 959 1441 959 1056 
Q 959 750 1161 570 
Q 1363 391 1709 391 
Q 2188 391 2477 730 
Q 2766 1069 2766 1631 
L 2766 1759 
L 2194 1759 
z
M 3341 1997 
L 3341 0 
L 2766 0 
L 2766 531 
Q 2569 213 2275 61 
Q 1981 -91 1556 -91 
Q 1019 -91 701 211 
Q 384 513 384 1019 
Q 384 1609 779 1909 
Q 1175 2209 1959 2209 
L 2766 2209 
L 2766 2266 
Q 2766 2663 2505 2880 
Q 2244 3097 1772 3097 
Q 1472 3097 1187 3025 
Q 903 2953 641 2809 
L 641 3341 
Q 956 3463 1253 3523 
Q 1550 3584 1831 3584 
Q 2591 3584 2966 3190 
Q 3341 2797 3341 1997 
z
" transform="scale(0.015625)"/>
       <path id="DejaVuSans-73" d="M 2834 3397 
L 2834 2853 
Q 2591 2978 2328 3040 
Q 2066 3103 1784 3103 
Q 1356 3103 1142 2972 
Q 928 2841 928 2578 
Q 928 2378 1081 2264 
Q 1234 2150 1697 2047 
L 1894 2003 
Q 2506 1872 2764 1633 
Q 3022 1394 3022 966 
Q 3022 478 2636 193 
Q 2250 -91 1575 -91 
Q 1294 -91 989 -36 
Q 684 19 347 128 
L 347 722 
Q 666 556 975 473 
Q 1284 391 1588 391 
Q 1994 391 2212 530 
Q 2431 669 2431 922 
Q 2431 1156 2273 1281 
Q 2116 1406 1581 1522 
L 1381 1569 
Q 847 1681 609 1914 
Q 372 2147 372 2553 
Q 372 3047 722 3315 
Q 1072 3584 1716 3584 
Q 2034 3584 2315 3537 
Q 2597 3491 2834 3397 
z
" transform="scale(0.015625)"/>
       <path id="DejaVuSans-72" d="M 2631 2963 
Q 2534 3019 2420 3045 
Q 2306 3072 2169 3072 
Q 1681 3072 1420 2755 
Q 1159 2438 1159 1844 
L 1159 0 
L 581 0 
L 581 3500 
L 1159 3500 
L 1159 2956 
Q 1341 3275 1631 3429 
Q 1922 3584 2338 3584 
Q 2397 3584 2469 3576 
Q 2541 3569 2628 3553 
L 2631 2963 
z
" transform="scale(0.015625)"/>
       <path id="DejaVuSans-74" d="M 1172 4494 
L 1172 3500 
L 2356 3500 
L 2356 3053 
L 1172 3053 
L 1172 1153 
Q 1172 725 1289 603 
Q 1406 481 1766 481 
L 2356 481 
L 2356 0 
L 1766 0 
Q 1100 0 847 248 
Q 594 497 594 1153 
L 594 3053 
L 172 3053 
L 172 3500 
L 594 3500 
L 594 4494 
L 1172 4494 
z
" transform="scale(0.015625)"/>
       <path id="DejaVuSans-69" d="M 603 3500 
L 1178 3500 
L 1178 0 
L 603 0 
L 603 3500 
z
M 603 4863 
L 1178 4863 
L 1178 4134 
L 603 4134 
L 603 4863 
z
" transform="scale(0.015625)"/>
      </defs>
      <use xlink:href="#DejaVuSans-6c"/>
      <use xlink:href="#DejaVuSans-6f" x="27.783203"/>
      <use xlink:href="#DejaVuSans-67" x="88.964844"/>
      <use xlink:href="#DejaVuSans-31" x="152.441406"/>
      <use xlink:href="#DejaVuSans-30" x="216.064453"/>
      <use xlink:href="#DejaVuSans-20" x="279.6875"/>
      <use xlink:href="#DejaVuSans-6f" x="311.474609"/>
      <use xlink:href="#DejaVuSans-66" x="372.65625"/>
      <use xlink:href="#DejaVuSans-20" x="407.861328"/>
      <use xlink:href="#DejaVuSans-46" x="439.648438"/>
      <use xlink:href="#DejaVuSans-45" x="497.167969"/>
      <use xlink:href="#DejaVuSans-76" x="560.351562"/>
      <use xlink:href="#DejaVuSans-61" x="619.53125"/>
      <use xlink:href="#DejaVuSans-6c" x="680.810547"/>
      <use xlink:href="#DejaVuSans-73" x="708.59375"/>
      <use xlink:href="#DejaVuSans-20" x="760.693359"/>
      <use xlink:href="#DejaVuSans-72" x="792.480469"/>
      <use xlink:href="#DejaVuSans-61" x="833.59375"/>
      <use xlink:href="#DejaVuSans-74" x="894.873047"/>
      <use xlink:href="#DejaVuSans-69" x="934.082031"/>
      <use xlink:href="#DejaVuSans-6f" x="961.865234"/>
     </g>
    </g>
   </g>
   <g id="matplotlib.axis_2">
    <g id="ytick_1">
     <g id="line2d_41">
      <path d="M 34.16 288.453725 
L 453.192 288.453725 
" clip-path="url(#p34f66e64ff)" style="fill: none; stroke: #b0b0b0; stroke-width: 0.8; stroke-linecap: square"/>
     </g>
     <g id="line2d_42">
      <defs>
       <path id="mebcaafaaf5" d="M 0 0 
L -3.5 0 
" style="stroke: #000000; stroke-width: 0.8"/>
      </defs>
      <g>
       <use xlink:href="#mebcaafaaf5" x="34.16" y="288.453725" style="stroke: #000000; stroke-width: 0.8"/>
      </g>
     </g>
    </g>
    <g id="ytick_2">
     <g id="line2d_43">
      <path d="M 34.16 217.796863 
L 453.192 217.796863 
" clip-path="url(#p34f66e64ff)" style="fill: none; stroke: #b0b0b0; stroke-width: 0.8; stroke-linecap: square"/>
     </g>
     <g id="line2d_44">
      <g>
       <use xlink:href="#mebcaafaaf5" x="34.16" y="217.796863" style="stroke: #000000; stroke-width: 0.8"/>
      </g>
     </g>
    </g>
    <g id="ytick_3">
     <g id="line2d_45">
      <path d="M 34.16 147.14 
L 453.192 147.14 
" clip-path="url(#p34f66e64ff)" style="fill: none; stroke: #b0b0b0; stroke-width: 0.8; stroke-linecap: square"/>
     </g>
     <g id="line2d_46">
      <g>
       <use xlink:href="#mebcaafaaf5" x="34.16" y="147.14" style="stroke: #000000; stroke-width: 0.8"/>
      </g>
     </g>
    </g>
    <g id="ytick_4">
     <g id="line2d_47">
      <path d="M 34.16 76.483137 
L 453.192 76.483137 
" clip-path="url(#p34f66e64ff)" style="fill: none; stroke: #b0b0b0; stroke-width: 0.8; stroke-linecap: square"/>
     </g>
     <g id="line2d_48">
      <g>
       <use xlink:href="#mebcaafaaf5" x="34.16" y="76.483137" style="stroke: #000000; stroke-width: 0.8"/>
      </g>
     </g>
    </g>
    <g id="ytick_5">
     <g id="line2d_49">
      <path d="M 34.16 5.826275 
L 453.192 5.826275 
" clip-path="url(#p34f66e64ff)" style="fill: none; stroke: #b0b0b0; stroke-width: 0.8; stroke-linecap: square"/>
     </g>
     <g id="line2d_50">
      <g>
       <use xlink:href="#mebcaafaaf5" x="34.16" y="5.826275" style="stroke: #000000; stroke-width: 0.8"/>
      </g>
     </g>
    </g>
    <g id="text_4">
     <!-- proportion of trials -->
     <g transform="translate(19.000625 240.14625) rotate(-90) scale(0.2 -0.2)">
      <defs>
       <path id="DejaVuSans-70" d="M 1159 525 
L 1159 -1331 
L 581 -1331 
L 581 3500 
L 1159 3500 
L 1159 2969 
Q 1341 3281 1617 3432 
Q 1894 3584 2278 3584 
Q 2916 3584 3314 3078 
Q 3713 2572 3713 1747 
Q 3713 922 3314 415 
Q 2916 -91 2278 -91 
Q 1894 -91 1617 61 
Q 1341 213 1159 525 
z
M 3116 1747 
Q 3116 2381 2855 2742 
Q 2594 3103 2138 3103 
Q 1681 3103 1420 2742 
Q 1159 2381 1159 1747 
Q 1159 1113 1420 752 
Q 1681 391 2138 391 
Q 2594 391 2855 752 
Q 3116 1113 3116 1747 
z
" transform="scale(0.015625)"/>
       <path id="DejaVuSans-6e" d="M 3513 2113 
L 3513 0 
L 2938 0 
L 2938 2094 
Q 2938 2591 2744 2837 
Q 2550 3084 2163 3084 
Q 1697 3084 1428 2787 
Q 1159 2491 1159 1978 
L 1159 0 
L 581 0 
L 581 3500 
L 1159 3500 
L 1159 2956 
Q 1366 3272 1645 3428 
Q 1925 3584 2291 3584 
Q 2894 3584 3203 3211 
Q 3513 2838 3513 2113 
z
" transform="scale(0.015625)"/>
      </defs>
      <use xlink:href="#DejaVuSans-70"/>
      <use xlink:href="#DejaVuSans-72" x="63.476562"/>
      <use xlink:href="#DejaVuSans-6f" x="102.339844"/>
      <use xlink:href="#DejaVuSans-70" x="163.521484"/>
      <use xlink:href="#DejaVuSans-6f" x="226.998047"/>
      <use xlink:href="#DejaVuSans-72" x="288.179688"/>
      <use xlink:href="#DejaVuSans-74" x="329.292969"/>
      <use xlink:href="#DejaVuSans-69" x="368.501953"/>
      <use xlink:href="#DejaVuSans-6f" x="396.285156"/>
      <use xlink:href="#DejaVuSans-6e" x="457.466797"/>
      <use xlink:href="#DejaVuSans-20" x="520.845703"/>
      <use xlink:href="#DejaVuSans-6f" x="552.632812"/>
      <use xlink:href="#DejaVuSans-66" x="613.814453"/>
      <use xlink:href="#DejaVuSans-20" x="649.019531"/>
      <use xlink:href="#DejaVuSans-74" x="680.806641"/>
      <use xlink:href="#DejaVuSans-72" x="720.015625"/>
      <use xlink:href="#DejaVuSans-69" x="761.128906"/>
      <use xlink:href="#DejaVuSans-61" x="788.912109"/>
      <use xlink:href="#DejaVuSans-6c" x="850.191406"/>
      <use xlink:href="#DejaVuSans-73" x="877.974609"/>
     </g>
    </g>
   </g>
   <g id="line2d_51">
    <path d="M 34.16 164.804216 
L 52.34936 164.804216 
L 52.34936 164.509812 
L 55.166256 164.509812 
L 55.166256 164.215408 
L 59.124986 164.215408 
L 59.124986 163.921005 
L 59.510767 163.921005 
L 59.510767 163.626601 
L 61.941882 163.626601 
L 61.941882 163.332198 
L 62.208759 163.332198 
L 62.208759 163.037794 
L 62.327663 163.037794 
L 62.327663 162.743391 
L 65.207871 162.743391 
L 65.207871 162.448987 
L 68.024767 162.448987 
L 68.024767 162.154583 
L 68.984385 162.154583 
L 68.984385 161.86018 
L 69.14095 161.86018 
L 69.14095 161.565776 
L 69.370166 161.565776 
L 69.370166 161.271373 
L 72.321581 161.271373 
L 72.321581 160.976969 
L 75.06727 160.976969 
L 75.06727 160.682565 
L 75.916576 160.682565 
L 75.916576 160.388162 
L 76.302357 160.388162 
L 76.302357 160.093758 
L 76.697317 160.093758 
L 76.697317 159.799355 
L 78.099107 159.799355 
L 78.099107 159.504951 
L 79.097207 159.504951 
L 79.097207 159.210547 
L 79.482988 159.210547 
L 79.514212 158.62174 
L 81.99946 158.62174 
L 81.99946 158.327337 
L 83.073785 158.327337 
L 83.073785 158.032933 
L 84.874734 158.032933 
L 84.874734 157.738529 
L 85.180092 157.738529 
L 85.260515 157.149722 
L 86.556715 157.149722 
L 86.556715 156.855319 
L 89.849412 156.855319 
L 89.957302 156.266511 
L 90.235193 156.266511 
L 90.235193 155.972108 
L 90.957618 155.972108 
L 90.957618 155.677704 
L 92.672994 155.677704 
L 92.672994 155.383301 
L 93.488906 155.383301 
L 93.488906 155.088897 
L 95.932296 155.088897 
L 95.932296 154.794493 
L 96.669537 154.794493 
L 96.669537 154.50009 
L 97.305713 154.50009 
L 97.305713 154.205686 
L 100.122608 154.205686 
L 100.122608 153.911283 
L 102.447064 153.911283 
L 102.447064 153.616879 
L 107.165111 153.616879 
L 107.165111 153.322475 
L 107.421742 153.322475 
L 107.421742 153.028072 
L 112.446927 153.028072 
L 112.446927 152.733668 
L 113.408043 152.733668 
L 113.408043 152.439265 
L 113.915054 152.439265 
L 113.915054 152.144861 
L 114.097302 152.144861 
L 114.097302 151.850458 
L 115.162618 151.850458 
L 115.162618 151.556054 
L 116.123735 151.556054 
L 116.123735 151.26165 
L 116.630746 151.26165 
L 116.630746 150.967247 
L 117.277933 150.967247 
L 117.277933 150.672843 
L 118.551156 150.672843 
L 118.551156 150.37844 
L 120.375723 150.37844 
L 120.375723 150.084036 
L 121.266848 150.084036 
L 121.266848 149.789632 
L 123.05546 149.789632 
L 123.091414 149.200825 
L 126.958559 149.200825 
L 126.958559 148.906422 
L 128.030138 148.906422 
L 128.030138 148.612018 
L 129.67425 148.612018 
L 129.67425 148.317614 
L 137.692778 148.317614 
L 137.692778 148.023211 
L 138.03949 148.023211 
L 138.03949 147.728807 
L 138.422539 147.728807 
L 138.422539 147.434404 
L 139.230642 147.434404 
L 139.230642 147.14 
L 142.32676 147.14 
L 142.32676 146.845596 
L 144.468404 146.845596 
L 144.468404 146.551193 
L 144.815116 146.551193 
L 144.854185 145.962386 
L 145.198165 145.962386 
L 145.200897 145.373578 
L 145.583946 145.373578 
L 145.583946 145.079175 
L 146.006269 145.079175 
L 146.006269 144.784771 
L 146.39205 144.784771 
L 146.39205 144.490368 
L 148.629312 144.490368 
L 148.629312 144.195964 
L 149.102386 144.195964 
L 149.20405 143.607157 
L 149.488167 143.607157 
L 149.488167 143.312753 
L 150.551289 143.312753 
L 150.551289 143.01835 
L 150.898001 143.01835 
L 150.898001 142.723946 
L 151.28105 142.723946 
L 151.28105 142.429542 
L 152.089153 142.429542 
L 152.089153 142.135139 
L 155.185271 142.135139 
L 155.185271 141.840735 
L 155.404938 141.840735 
L 155.404938 141.546332 
L 155.790719 141.546332 
L 155.790719 141.251928 
L 155.979676 141.251928 
L 155.979676 140.957525 
L 156.365457 140.957525 
L 156.365457 140.663121 
L 161.487823 140.663121 
L 161.487823 140.368717 
L 162.040734 140.368717 
L 162.062561 139.77991 
L 162.387446 139.77991 
L 162.387446 139.485507 
L 162.770495 139.485507 
L 162.770495 139.191103 
L 163.578599 139.191103 
L 163.578599 138.896699 
L 166.674716 138.896699 
L 166.674716 138.602296 
L 171.995882 138.602296 
L 171.995882 138.307892 
L 172.977268 138.307892 
L 172.977268 138.013489 
L 173.552006 138.013489 
L 173.552006 137.719085 
L 173.823016 137.719085 
L 173.823016 137.424681 
L 174.405625 137.424681 
L 174.405625 137.130278 
L 177.186438 137.130278 
L 177.186438 136.835874 
L 178.002348 136.835874 
L 178.002348 136.541471 
L 179.874907 136.541471 
L 179.874907 136.247067 
L 182.64913 136.247067 
L 182.64913 135.952663 
L 182.995842 135.952663 
L 182.995842 135.65826 
L 183.378891 135.65826 
L 183.378891 135.363856 
L 183.57398 135.363856 
L 183.57398 135.069453 
L 184.186995 135.069453 
L 184.186995 134.775049 
L 184.953838 134.775049 
L 184.953838 134.480645 
L 185.225039 134.480645 
L 185.225039 134.186242 
L 185.881544 134.186242 
L 185.881544 133.891838 
L 187.283112 133.891838 
L 187.283112 133.597435 
L 188.48204 133.597435 
L 188.48204 133.303031 
L 190.259723 133.303031 
L 190.30397 132.714224 
L 192.706687 132.714224 
L 192.706687 132.41982 
L 193.585664 132.41982 
L 193.585664 132.125417 
L 193.827092 132.125417 
L 193.827092 131.831013 
L 194.024922 131.831013 
L 194.024922 131.536609 
L 194.160402 131.536609 
L 194.160402 131.242206 
L 194.485507 131.242206 
L 194.485507 130.947802 
L 194.932203 130.947802 
L 194.932203 130.653399 
L 195.338654 130.653399 
L 195.446623 130.064592 
L 195.953634 130.064592 
L 195.953634 129.770188 
L 196.31233 129.770188 
L 196.379034 128.886977 
L 196.895249 128.886977 
L 196.895249 128.592574 
L 197.273757 128.592574 
L 197.273757 128.29817 
L 197.780768 128.29817 
L 197.856366 127.414959 
L 198.056819 127.414959 
L 198.056819 127.120556 
L 198.363377 127.120556 
L 198.363377 126.826152 
L 199.177224 126.826152 
L 199.177224 126.531748 
L 199.300911 126.531748 
L 199.375054 125.942941 
L 199.676063 125.942941 
L 199.732656 125.354134 
L 200.491972 125.354134 
L 200.589736 124.765327 
L 200.637179 124.765327 
L 200.637179 124.470923 
L 201.14419 124.470923 
L 201.14419 124.17652 
L 201.391261 124.17652 
L 201.453089 123.587712 
L 201.516574 123.587712 
L 201.516574 123.293309 
L 201.629596 123.293309 
L 201.729166 122.704502 
L 201.9601 122.704502 
L 201.9601 122.410098 
L 202.414303 122.410098 
L 202.41687 121.821291 
L 202.583007 121.821291 
L 202.583007 121.526887 
L 202.892765 121.526887 
L 202.999479 120.93808 
L 203.091503 120.93808 
L 203.13975 120.349273 
L 203.520748 120.349273 
L 203.520748 120.054869 
L 203.708171 120.054869 
L 203.708171 119.760466 
L 204.185209 119.760466 
L 204.241437 118.877255 
L 204.409738 118.877255 
L 204.409738 118.582851 
L 204.651043 118.582851 
L 204.651043 118.288448 
L 204.811588 118.288448 
L 204.824045 117.699641 
L 205.780292 117.699641 
L 205.780292 117.405237 
L 206.063605 117.405237 
L 206.063605 117.110833 
L 206.595505 117.110833 
L 206.596202 116.522026 
L 206.76385 116.522026 
L 206.803128 115.933219 
L 207.024721 115.933219 
L 207.024721 115.638815 
L 207.531732 115.638815 
L 207.604858 115.050008 
L 207.661938 115.050008 
L 207.661938 114.755605 
L 208.174434 114.755605 
L 208.242897 114.166797 
L 208.371168 114.166797 
L 208.420768 113.283587 
L 208.787102 113.283587 
L 208.87088 112.400376 
L 208.923014 112.400376 
L 208.997139 111.811569 
L 209.144109 111.811569 
L 209.144109 111.517165 
L 209.26414 111.517165 
L 209.332285 110.928358 
L 209.447635 110.928358 
L 209.447635 110.633954 
L 209.685727 110.633954 
L 209.685727 110.339551 
L 209.839295 110.339551 
L 209.839295 110.045147 
L 210.264515 110.045147 
L 210.32642 109.161936 
L 210.462345 109.161936 
L 210.462345 108.867533 
L 210.824273 108.867533 
L 210.824273 108.573129 
L 210.971664 108.573129 
L 210.971664 108.278725 
L 211.406881 108.278725 
L 211.406881 107.984322 
L 211.882059 107.984322 
L 211.93278 107.395515 
L 212.167834 107.395515 
L 212.167834 107.101111 
L 212.439791 107.101111 
L 212.439791 106.806708 
L 212.564436 106.806708 
L 212.564436 106.512304 
L 212.816457 106.512304 
L 212.816457 106.2179 
L 213.042111 106.2179 
L 213.042111 105.923497 
L 213.277581 105.923497 
L 213.277581 105.629093 
L 213.684842 105.629093 
L 213.684842 105.33469 
L 213.882672 105.33469 
L 213.9924 104.451479 
L 214.001946 104.451479 
L 214.084233 103.862672 
L 214.187694 103.862672 
L 214.227041 103.273864 
L 214.348354 103.273864 
L 214.348354 102.979461 
L 214.475397 102.979461 
L 214.527889 102.09625 
L 214.797767 102.09625 
L 214.797767 101.801846 
L 215.003604 101.801846 
L 215.003604 101.507443 
L 215.414786 101.507443 
L 215.46876 100.918636 
L 215.66659 100.918636 
L 215.738334 100.035425 
L 215.809335 100.035425 
L 215.809335 99.741021 
L 216.236784 99.741021 
L 216.299964 99.152214 
L 216.535192 99.152214 
L 216.53995 98.563407 
L 216.733022 98.563407 
L 216.733022 98.269003 
L 217.016988 98.269003 
L 217.075893 97.680196 
L 217.421827 97.680196 
L 217.421827 97.385792 
L 217.647368 97.385792 
L 217.660356 96.796985 
L 217.791742 96.796985 
L 217.858186 95.913775 
L 218.020702 95.913775 
L 218.020702 95.619371 
L 218.137394 95.619371 
L 218.137394 95.324967 
L 218.266922 95.324967 
L 218.335224 94.73616 
L 218.382943 94.73616 
L 218.382943 94.441757 
L 218.889954 94.441757 
L 218.90046 93.852949 
L 219.087134 93.852949 
L 219.15866 93.264142 
L 219.330187 93.264142 
L 219.434365 92.380931 
L 219.606821 92.380931 
L 219.634907 91.792124 
L 219.832451 91.792124 
L 219.832451 91.497721 
L 219.958171 91.497721 
L 219.958171 91.203317 
L 220.212298 91.203317 
L 220.212298 90.908913 
L 220.417651 90.908913 
L 220.507434 90.025703 
L 220.575236 90.025703 
L 220.575236 89.731299 
L 220.689336 89.731299 
L 220.755313 88.848088 
L 220.888266 88.848088 
L 220.953143 87.964877 
L 221.622882 87.964877 
L 221.622882 87.670474 
L 221.754794 87.670474 
L 221.754794 87.37607 
L 222.009011 87.37607 
L 222.09992 86.787263 
L 222.750514 86.787263 
L 222.750514 86.492859 
L 222.8752 86.492859 
L 222.8828 85.904052 
L 223.07303 85.904052 
L 223.134175 85.020842 
L 223.307255 85.020842 
L 223.378497 84.137631 
L 223.526056 84.137631 
L 223.611213 83.548824 
L 224.469049 83.548824 
L 224.534432 82.960016 
L 224.717839 82.960016 
L 224.717839 82.665613 
L 225.162415 82.665613 
L 225.162415 82.371209 
L 225.350623 82.371209 
L 225.427142 81.782402 
L 225.483296 81.782402 
L 225.483296 81.487998 
L 225.600864 81.487998 
L 225.600864 81.193595 
L 225.885058 81.193595 
L 225.977552 80.604788 
L 226.228848 80.604788 
L 226.229132 80.01598 
L 226.726028 80.01598 
L 226.758641 79.427173 
L 226.837726 79.427173 
L 226.837726 79.13277 
L 227.203067 79.13277 
L 227.278015 78.543962 
L 227.354012 78.543962 
L 227.359669 77.955155 
L 227.83105 77.955155 
L 227.831752 77.366348 
L 228.299106 77.366348 
L 228.349018 76.777541 
L 228.480075 76.777541 
L 228.480075 76.483137 
L 228.641115 76.483137 
L 228.677905 75.89433 
L 229.305384 75.89433 
L 229.305384 75.599926 
L 229.76152 75.599926 
L 229.820985 75.011119 
L 229.95935 75.011119 
L 229.993707 74.422312 
L 230.178968 74.422312 
L 230.178968 74.127908 
L 230.448969 74.127908 
L 230.547443 73.244698 
L 231.014797 73.244698 
L 231.098702 72.067083 
L 231.933459 72.067083 
L 231.962886 71.183873 
L 232.155735 71.183873 
L 232.219108 70.595065 
L 232.313462 70.595065 
L 232.416938 70.006258 
L 232.442601 70.006258 
L 232.442601 69.711855 
L 232.568855 69.711855 
L 232.568855 69.417451 
L 233.029318 69.417451 
L 233.029318 69.123047 
L 233.280899 69.123047 
L 233.280899 68.828644 
L 233.724046 68.828644 
L 233.757937 68.239837 
L 233.941982 68.239837 
L 233.953893 67.651029 
L 234.154482 67.651029 
L 234.183998 67.062222 
L 234.63152 67.062222 
L 234.63152 66.767819 
L 234.77105 66.767819 
L 234.77105 66.473415 
L 235.235339 66.473415 
L 235.235339 66.179011 
L 235.698448 66.179011 
L 235.7259 65.590204 
L 235.882569 65.590204 
L 235.882569 65.295801 
L 236.181634 65.295801 
L 236.181634 65.001397 
L 236.375856 65.001397 
L 236.375856 64.706993 
L 236.792333 64.706993 
L 236.792333 64.41259 
L 237.249439 64.41259 
L 237.249439 64.118186 
L 237.52303 64.118186 
L 237.545747 63.529379 
L 237.692927 63.529379 
L 237.692927 63.234975 
L 237.917497 63.234975 
L 237.917497 62.940572 
L 238.17373 62.940572 
L 238.17373 62.646168 
L 238.394535 62.646168 
L 238.495742 61.762958 
L 238.59826 61.762958 
L 238.59826 61.468554 
L 238.827193 61.468554 
L 238.827193 61.17415 
L 239.26293 61.17415 
L 239.369326 60.585343 
L 239.455176 60.585343 
L 239.455176 60.29094 
L 240.305604 60.29094 
L 240.305604 59.996536 
L 241.012454 59.996536 
L 241.012454 59.702132 
L 241.26672 59.702132 
L 241.28478 59.113325 
L 241.773731 59.113325 
L 241.773731 58.818922 
L 241.912764 58.818922 
L 241.912764 58.524518 
L 242.873162 58.524518 
L 242.873162 58.230114 
L 243.13234 58.230114 
L 243.13234 57.935711 
L 244.100617 57.935711 
L 244.100617 57.641307 
L 244.806834 57.641307 
L 244.806834 57.346904 
L 244.974201 57.346904 
L 244.974201 57.0525 
L 245.382063 57.0525 
L 245.382063 56.758096 
L 246.255646 56.758096 
L 246.255646 56.463693 
L 246.409833 56.463693 
L 246.409833 56.169289 
L 246.585948 56.169289 
L 246.585948 55.874886 
L 247.015778 55.874886 
L 247.015778 55.580482 
L 247.83965 55.580482 
L 247.907846 54.991675 
L 248.136184 54.991675 
L 248.2344 54.402868 
L 248.334014 54.402868 
L 248.334014 54.108464 
L 248.628418 54.108464 
L 248.737215 53.225253 
L 250.018661 53.225253 
L 250.018661 52.93085 
L 250.688126 52.93085 
L 250.688126 52.636446 
L 252.09871 52.636446 
L 252.09871 52.342042 
L 252.476248 52.342042 
L 252.476248 52.047639 
L 253.610002 52.047639 
L 253.610002 51.753235 
L 253.960453 51.753235 
L 253.960453 51.458832 
L 254.817236 51.458832 
L 254.817236 51.164428 
L 257.201856 51.164428 
L 257.201856 50.870025 
L 257.38078 50.870025 
L 257.38078 50.575621 
L 257.829839 50.575621 
L 257.829839 50.281217 
L 258.246811 50.281217 
L 258.246811 49.986814 
L 259.164698 49.986814 
L 259.164698 49.69241 
L 260.23113 49.69241 
L 260.23113 49.398007 
L 261.356294 49.398007 
L 261.356294 49.103603 
L 261.833332 49.103603 
L 261.833332 48.809199 
L 263.756726 48.809199 
L 263.756726 48.514796 
L 264.451251 48.514796 
L 264.451251 48.220392 
L 264.63031 48.220392 
L 264.63031 47.925989 
L 266.571138 47.925989 
L 266.571138 47.631585 
L 267.296458 47.631585 
L 267.296458 47.337181 
L 268.257575 47.337181 
L 268.257575 47.042778 
L 268.393324 47.042778 
L 268.393324 46.748374 
L 268.764586 46.748374 
L 268.764586 46.453971 
L 271.118043 46.453971 
L 271.118043 46.159567 
L 272.079159 46.159567 
L 272.176013 45.57076 
L 272.58617 45.57076 
L 272.58617 45.276356 
L 273.400688 45.276356 
L 273.457458 44.687549 
L 275.225254 44.687549 
L 275.225254 44.393145 
L 275.915046 44.393145 
L 275.915046 44.098742 
L 277.222272 44.098742 
L 277.222272 43.804338 
L 279.046839 43.804338 
L 279.046839 43.509935 
L 280.736436 43.509935 
L 280.736436 43.215531 
L 281.697552 43.215531 
L 281.80809 42.626724 
L 282.204563 42.626724 
L 282.204563 42.33232 
L 285.629675 42.33232 
L 285.629675 42.037917 
L 286.840665 42.037917 
L 286.840665 41.743513 
L 288.665232 41.743513 
L 288.665232 41.449109 
L 291.832122 41.449109 
L 291.832122 41.154706 
L 292.365 41.154706 
L 292.365 40.860302 
L 294.192134 40.860302 
L 294.192134 40.565899 
L 294.774742 40.565899 
L 294.774742 40.271495 
L 295.248068 40.271495 
L 295.248068 39.977092 
L 297.555555 39.977092 
L 297.555555 39.682688 
L 298.371465 39.682688 
L 298.371465 39.388284 
L 298.96535 39.388284 
L 298.96535 39.093881 
L 299.830322 39.093881 
L 299.830322 38.799477 
L 301.657456 38.799477 
L 301.657456 38.505074 
L 302.240065 38.505074 
L 302.240065 38.21067 
L 302.456231 38.21067 
L 302.456231 37.916266 
L 303.943097 37.916266 
L 303.943097 37.621863 
L 304.283365 37.621863 
L 304.315482 37.033056 
L 304.865974 37.033056 
L 304.865974 36.738652 
L 305.020878 36.738652 
L 305.020878 36.444248 
L 305.836788 36.444248 
L 305.836788 36.149845 
L 306.250661 36.149845 
L 306.250661 35.855441 
L 307.646787 35.855441 
L 307.646787 35.561038 
L 308.462697 35.561038 
L 308.462697 35.266634 
L 308.851157 35.266634 
L 308.851157 34.97223 
L 309.316595 34.97223 
L 309.350166 34.383423 
L 309.870332 34.383423 
L 309.870332 34.08902 
L 310.337686 34.08902 
L 310.337686 33.794616 
L 311.143729 33.794616 
L 311.143729 33.500212 
L 311.40842 33.500212 
L 311.40842 33.205809 
L 311.697466 33.205809 
L 311.726338 32.617002 
L 312.16482 32.617002 
L 312.16482 32.322598 
L 312.280074 32.322598 
L 312.280074 32.028194 
L 312.747429 32.028194 
L 312.747429 31.733791 
L 313.715984 31.733791 
L 313.715984 31.439387 
L 314.034329 31.439387 
L 314.034329 31.144984 
L 314.507151 31.144984 
L 314.507151 30.85058 
L 315.060888 30.85058 
L 315.060888 30.556176 
L 315.30132 30.556176 
L 315.402773 29.672966 
L 315.528242 29.672966 
L 315.528242 29.378562 
L 315.876797 29.378562 
L 315.876797 29.084158 
L 316.31648 29.084158 
L 316.344152 28.200948 
L 317.737028 28.200948 
L 317.737028 27.906544 
L 317.921148 27.906544 
L 317.921148 27.612141 
L 318.823099 27.612141 
L 318.823099 27.317737 
L 318.942388 27.317737 
L 318.942388 27.023333 
L 319.564162 27.023333 
L 319.564162 26.72893 
L 319.748282 26.72893 
L 319.748282 26.434526 
L 320.146771 26.434526 
L 320.146771 26.140123 
L 320.330891 26.140123 
L 320.330891 25.845719 
L 320.607017 25.845719 
L 320.607017 25.551315 
L 320.894693 25.551315 
L 320.894693 25.256912 
L 321.44843 25.256912 
L 321.44843 24.962508 
L 321.67345 24.962508 
L 321.67345 24.668105 
L 321.915784 24.668105 
L 321.915784 24.373701 
L 322.766642 24.373701 
L 322.798614 23.784894 
L 322.927584 23.784894 
L 322.927584 23.49049 
L 323.111704 23.49049 
L 323.202256 22.901683 
L 323.275652 22.901683 
L 323.275652 22.607279 
L 323.743494 22.607279 
L 323.755993 22.018472 
L 323.927614 22.018472 
L 323.927614 21.724069 
L 324.223347 21.724069 
L 324.223347 21.429665 
L 325.392551 21.429665 
L 325.392551 21.135261 
L 325.802752 21.135261 
L 325.89357 20.546454 
L 326.356489 20.546454 
L 326.356489 20.252051 
L 326.823843 20.252051 
L 326.823843 19.957647 
L 328.013457 19.957647 
L 328.013457 19.663243 
L 329.315126 19.663243 
L 329.315126 19.36884 
L 329.499246 19.36884 
L 329.499246 19.074436 
L 331.622689 19.074436 
L 331.622689 18.780033 
L 331.80681 18.780033 
L 331.80681 18.485629 
L 332.252915 18.485629 
L 332.252915 18.191225 
L 332.806652 18.191225 
L 332.806652 17.896822 
L 333.274006 17.896822 
L 333.274006 17.602418 
L 333.618332 17.602418 
L 333.618332 17.308015 
L 334.223185 17.308015 
L 334.223185 17.013611 
L 334.407306 17.013611 
L 334.407306 16.719208 
L 334.899778 16.719208 
L 334.899778 16.424804 
L 337.357365 16.424804 
L 337.357365 16.1304 
L 338.185096 16.1304 
L 338.185096 15.835997 
L 340.673348 15.835997 
L 340.673348 15.541593 
L 340.857469 15.541593 
L 340.857469 15.24719 
L 345.650419 15.24719 
L 345.650419 14.952786 
L 348.276328 14.952786 
L 348.276328 14.658382 
L 353.274441 14.658382 
L 353.274441 14.363979 
L 355.136692 14.363979 
L 355.136692 14.069575 
L 355.690429 14.069575 
L 355.690429 13.775172 
L 356.157783 13.775172 
L 356.157783 13.480768 
L 363.557125 13.480768 
L 363.557125 13.186364 
L 363.741245 13.186364 
L 363.741245 12.891961 
L 365.175951 12.891961 
L 365.175951 12.597557 
L 368.997536 12.597557 
L 368.997536 12.303154 
L 372.641274 12.303154 
L 372.641274 12.00875 
L 375.267182 12.00875 
L 375.267182 11.714346 
L 376.462858 11.714346 
L 376.462858 11.419943 
L 378.615929 11.419943 
L 378.615929 11.125539 
L 379.088767 11.125539 
L 379.088767 10.831136 
L 382.127547 10.831136 
L 382.127547 10.536732 
L 382.681283 10.536732 
L 382.681283 10.242328 
L 383.148637 10.242328 
L 383.148637 9.947925 
L 385.949131 9.947925 
L 385.949131 9.653521 
L 386.081251 9.653521 
L 386.081251 9.359118 
L 386.502868 9.359118 
L 386.502868 9.064714 
L 386.970222 9.064714 
L 386.970222 8.77031 
L 388.70716 8.77031 
L 388.70716 8.475907 
L 390.547979 8.475907 
L 390.547979 8.181503 
L 390.7321 8.181503 
L 390.7321 7.8871 
L 394.369564 7.8871 
L 394.369564 7.592696 
L 394.553685 7.592696 
L 394.553685 7.298292 
L 395.567524 7.298292 
L 395.567524 7.003889 
L 396.121261 7.003889 
L 396.121261 6.709485 
L 396.588615 6.709485 
L 396.588615 6.415082 
L 403.987957 6.415082 
L 403.987957 6.120678 
L 404.172077 6.120678 
L 404.172077 5.826275 
L 453.192 5.826275 
L 453.192 5.826275 
" clip-path="url(#p34f66e64ff)" style="fill: none; stroke: #000000; stroke-width: 3; stroke-linecap: square"/>
   </g>
   <g id="line2d_52">
    <path clip-path="url(#p34f66e64ff)" style="fill: none; stroke: #000000; stroke-width: 3; stroke-linecap: square"/>
   </g>
   <g id="line2d_53">
    <path d="M 34.16 109.648603 
L 112.24937 109.648603 
L 112.24937 109.264076 
L 114.879173 109.264076 
L 114.879173 108.879549 
L 124.726275 108.879549 
L 124.726275 108.495022 
L 138.286213 108.495022 
L 138.286213 108.110495 
L 139.531137 108.110495 
L 139.531137 107.725968 
L 145.82812 107.725968 
L 145.82812 107.341441 
L 148.87485 107.341441 
L 148.87485 106.956913 
L 153.063496 106.956913 
L 153.063496 106.572386 
L 172.203068 106.572386 
L 172.203068 106.187859 
L 173.780582 106.187859 
L 173.780582 105.803332 
L 174.197482 105.803332 
L 174.197482 105.418805 
L 174.832871 105.418805 
L 174.832871 105.034278 
L 176.410386 105.034278 
L 176.410386 104.649751 
L 176.827285 104.649751 
L 176.827285 104.265223 
L 177.546662 104.265223 
L 177.546662 103.880696 
L 179.389858 103.880696 
L 179.389858 103.496169 
L 180.176466 103.496169 
L 180.176466 103.111642 
L 182.019661 103.111642 
L 182.019661 102.727115 
L 182.669807 102.727115 
L 182.669807 102.342588 
L 184.679973 102.342588 
L 184.679973 101.958061 
L 185.299611 101.958061 
L 185.299611 101.573533 
L 186.257488 101.573533 
L 186.257488 101.189006 
L 186.674387 101.189006 
L 186.674387 100.804479 
L 190.023568 100.804479 
L 190.023568 100.419952 
L 191.866763 100.419952 
L 191.866763 100.035425 
L 192.411665 100.035425 
L 192.411665 99.650898 
L 195.041469 99.650898 
L 195.146713 98.881843 
L 198.239911 98.881843 
L 198.239911 98.497316 
L 199.484835 98.497316 
L 199.484835 98.112789 
L 199.817426 98.112789 
L 199.817426 97.728262 
L 200.234325 97.728262 
L 200.234325 97.343735 
L 201.06235 97.343735 
L 201.06235 96.959208 
L 201.479249 96.959208 
L 201.479249 96.574681 
L 203.583506 96.574681 
L 203.583506 96.190153 
L 203.911006 96.190153 
L 203.911006 95.805626 
L 204.82843 95.805626 
L 204.888571 95.036572 
L 205.426701 95.036572 
L 205.426701 94.652045 
L 205.781818 94.652045 
L 205.781818 94.267518 
L 206.671625 94.267518 
L 206.671625 93.882991 
L 207.359332 93.882991 
L 207.359332 93.498463 
L 207.776232 93.498463 
L 207.776232 93.113936 
L 208.706651 93.113936 
L 208.706651 92.729409 
L 208.828548 92.729409 
L 208.828548 92.344882 
L 209.951575 92.344882 
L 209.951575 91.960355 
L 210.406062 91.960355 
L 210.406062 91.575828 
L 210.822962 91.575828 
L 210.822962 91.191301 
L 211.125412 91.191301 
L 211.125412 90.806773 
L 212.968608 90.806773 
L 213.017194 90.037719 
L 214.172142 90.037719 
L 214.172142 89.653192 
L 214.594708 89.653192 
L 214.62994 88.884138 
L 215.011608 88.884138 
L 215.011608 88.499611 
L 216.015338 88.499611 
L 216.015338 88.115083 
L 216.248557 88.115083 
L 216.248557 87.730556 
L 218.12142 87.730556 
L 218.12142 87.346029 
L 218.360788 87.346029 
L 218.448509 86.576975 
L 219.295287 86.576975 
L 219.295287 86.192448 
L 219.693433 86.192448 
L 219.693433 85.807921 
L 220.203984 85.807921 
L 220.203984 85.423393 
L 222.810933 85.423393 
L 222.810933 85.038866 
L 223.483933 85.038866 
L 223.483933 84.654339 
L 223.63787 84.654339 
L 223.63787 84.269812 
L 225.990415 84.269812 
L 225.990415 83.885285 
L 226.267674 83.885285 
L 226.267674 83.500758 
L 228.383599 83.500758 
L 228.383599 83.11623 
L 228.840354 83.11623 
L 228.840354 82.731703 
L 229.037145 82.731703 
L 229.122472 81.962649 
L 233.225791 81.962649 
L 233.225791 81.578122 
L 233.892762 81.578122 
L 233.892762 81.193595 
L 234.157922 81.193595 
L 234.157922 80.809068 
L 235.450098 80.809068 
L 235.450098 80.42454 
L 235.81665 80.42454 
L 235.81665 80.040013 
L 236.114776 80.040013 
L 236.114776 79.655486 
L 236.787726 79.655486 
L 236.787726 79.270959 
L 238.446454 79.270959 
L 238.446454 78.886432 
L 239.572903 78.886432 
L 239.572903 78.501905 
L 242.202706 78.501905 
L 242.202706 78.117378 
L 243.315947 78.117378 
L 243.315947 77.73285 
L 245.945751 77.73285 
L 245.945751 77.348323 
L 246.634828 77.348323 
L 246.634828 76.963796 
L 248.293556 76.963796 
L 248.293556 76.579269 
L 249.674714 76.579269 
L 249.674714 76.194742 
L 250.919638 76.194742 
L 250.919638 75.810215 
L 252.049808 75.810215 
L 252.049808 75.425688 
L 253.258313 75.425688 
L 253.258313 75.04116 
L 255.792853 75.04116 
L 255.888116 74.272106 
L 257.216621 74.272106 
L 257.216621 73.887579 
L 260.194766 73.887579 
L 260.26335 73.118525 
L 261.250665 73.118525 
L 261.250665 72.733998 
L 261.43969 72.733998 
L 261.43969 72.34947 
L 261.853494 72.34947 
L 261.853494 71.964943 
L 262.435449 71.964943 
L 262.435449 71.580416 
L 263.098418 71.580416 
L 263.098418 71.195889 
L 264.451996 71.195889 
L 264.451996 70.811362 
L 265.215774 70.811362 
L 265.215774 70.426835 
L 265.609746 70.426835 
L 265.609746 70.042308 
L 265.735218 70.042308 
L 265.735218 69.65778 
L 266.85467 69.65778 
L 266.868938 68.888726 
L 267.736672 68.888726 
L 267.736672 68.504199 
L 269.352791 68.504199 
L 269.3954 67.735145 
L 269.498742 67.735145 
L 269.587325 66.96609 
L 270.597715 66.96609 
L 270.597715 66.581563 
L 270.783402 66.581563 
L 270.783402 66.197036 
L 271.969599 66.197036 
L 271.969599 65.812509 
L 272.44213 65.812509 
L 272.44213 65.427982 
L 273.151653 65.427982 
L 273.154383 64.658928 
L 274.972048 64.658928 
L 274.972048 64.2744 
L 275.29918 64.2744 
L 275.29918 63.889873 
L 275.934708 63.889873 
L 275.934708 63.505346 
L 276.198383 63.505346 
L 276.198383 63.120819 
L 276.630776 63.120819 
L 276.630776 62.736292 
L 276.894698 62.736292 
L 276.894698 62.351765 
L 279.295156 62.351765 
L 279.345844 61.58271 
L 279.941428 61.58271 
L 279.941428 61.198183 
L 280.306259 61.198183 
L 280.387029 60.429129 
L 280.54008 60.429129 
L 280.54008 60.044602 
L 282.764631 60.044602 
L 282.764631 59.660075 
L 284.130074 59.660075 
L 284.130074 59.275548 
L 284.342146 59.275548 
L 284.342146 58.89102 
L 284.657778 58.89102 
L 284.759045 58.121966 
L 286.018114 58.121966 
L 286.018114 57.737439 
L 286.837063 57.737439 
L 286.837063 57.352912 
L 287.122391 57.352912 
L 287.122391 56.968385 
L 288.108226 56.968385 
L 288.108226 56.583858 
L 288.302618 56.583858 
L 288.337297 55.814803 
L 288.565202 55.814803 
L 288.565202 55.430276 
L 289.07617 55.430276 
L 289.07617 55.045749 
L 289.883793 55.045749 
L 289.951421 53.892168 
L 290.331711 53.892168 
L 290.331711 53.50764 
L 290.653684 53.50764 
L 290.653684 53.123113 
L 291.070584 53.123113 
L 291.070584 52.738586 
L 291.618458 52.738586 
L 291.618458 52.354059 
L 292.905782 52.354059 
L 292.905782 51.969532 
L 293.231371 51.969532 
L 293.231371 51.585005 
L 293.680891 51.585005 
L 293.680891 51.200478 
L 293.84646 51.200478 
L 293.84646 50.81595 
L 294.072439 50.81595 
L 294.150706 50.046896 
L 294.419764 50.046896 
L 294.419764 49.662369 
L 294.570368 49.662369 
L 294.570368 49.277842 
L 295.376712 49.277842 
L 295.423974 48.12426 
L 295.524087 48.12426 
L 295.524087 47.739733 
L 295.840874 47.739733 
L 295.840874 47.355206 
L 296.26296 47.355206 
L 296.26296 46.970679 
L 296.981311 46.970679 
L 296.981311 46.586152 
L 297.398211 46.586152 
L 297.398211 46.201625 
L 297.841325 46.201625 
L 297.841325 45.817098 
L 298.804036 45.817098 
L 298.804036 45.43257 
L 299.021552 45.43257 
L 299.021552 45.048043 
L 299.190054 45.048043 
L 299.284136 44.278989 
L 299.542909 44.278989 
L 299.542909 43.894462 
L 300.447689 43.894462 
L 300.447689 43.509935 
L 300.747391 43.509935 
L 300.747391 43.125407 
L 301.03325 43.125407 
L 301.03325 42.74088 
L 302.337392 42.74088 
L 302.337392 42.356353 
L 302.590587 42.356353 
L 302.590587 41.971826 
L 302.973229 41.971826 
L 302.973229 41.587299 
L 303.494418 41.587299 
L 303.494418 41.202772 
L 303.929271 41.202772 
L 303.929271 40.818245 
L 304.313199 40.818245 
L 304.313199 40.433717 
L 305.325554 40.433717 
L 305.325554 40.04919 
L 305.870536 40.04919 
L 305.870536 39.664663 
L 307.235384 39.664663 
L 307.235384 39.280136 
L 307.683064 39.280136 
L 307.683064 38.895609 
L 308.545894 38.895609 
L 308.545894 38.511082 
L 308.780782 38.511082 
L 308.780782 38.126555 
L 309.284767 38.126555 
L 309.284767 37.742027 
L 312.18605 37.742027 
L 312.18605 37.3575 
L 314.055057 37.3575 
L 314.055057 36.972973 
L 314.722016 36.972973 
L 314.722016 36.588446 
L 315.612394 36.588446 
L 315.612394 36.203919 
L 317.954318 36.203919 
L 317.954318 35.819392 
L 318.139685 35.819392 
L 318.139685 35.434865 
L 319.535968 35.434865 
L 319.535968 35.050337 
L 322.904984 35.050337 
L 322.904984 34.66581 
L 325.44095 34.66581 
L 325.44095 34.281283 
L 334.199434 34.281283 
L 334.199434 33.896756 
L 339.772099 33.896756 
L 339.772099 33.512229 
L 340.510972 33.512229 
L 340.510972 33.127702 
L 344.719486 33.127702 
L 344.719486 32.743175 
L 345.281262 32.743175 
L 345.281262 32.358647 
L 346.378214 32.358647 
L 346.378214 31.97412 
L 346.838599 31.97412 
L 346.838599 31.589593 
L 350.134466 31.589593 
L 350.134466 31.205066 
L 350.292151 31.205066 
L 350.292151 30.820539 
L 351.031024 30.820539 
L 351.031024 30.436012 
L 351.910027 30.436012 
L 351.950879 29.666957 
L 352.689752 29.666957 
L 352.689752 29.28243 
L 353.094811 29.28243 
L 353.094811 28.897903 
L 353.877511 28.897903 
L 353.877511 28.513376 
L 355.707132 28.513376 
L 355.801314 27.744322 
L 355.875136 27.744322 
L 355.875136 27.359795 
L 356.446005 27.359795 
L 356.446005 26.975267 
L 357.358651 26.975267 
L 357.460042 26.206213 
L 359.017379 26.206213 
L 359.017379 25.821686 
L 359.450177 25.821686 
L 359.450177 25.437159 
L 360.18905 25.437159 
L 360.246688 24.668105 
L 361.216295 24.668105 
L 361.26893 23.89905 
L 362.453714 23.89905 
L 362.453714 23.514523 
L 362.665213 23.514523 
L 362.773631 22.745469 
L 363.819876 22.745469 
L 363.849997 21.976415 
L 364.959339 21.976415 
L 364.959339 21.591887 
L 365.234039 21.591887 
L 365.234039 21.20736 
L 365.958543 21.20736 
L 365.958543 20.822833 
L 366.516676 20.822833 
L 366.516676 20.438306 
L 366.630322 20.438306 
L 366.630322 20.053779 
L 369.392542 20.053779 
L 369.392542 19.669252 
L 369.605591 19.669252 
L 369.605591 19.284725 
L 370.131415 19.284725 
L 370.131415 18.900197 
L 371.001873 18.900197 
L 371.001873 18.51567 
L 374.901705 18.51567 
L 374.901705 18.131143 
L 375.31714 18.131143 
L 375.317446 17.362089 
L 376.459041 17.362089 
L 376.459041 16.977562 
L 376.713728 16.977562 
L 376.713728 16.593035 
L 377.430502 16.593035 
L 377.430502 16.208507 
L 377.781753 16.208507 
L 377.781753 15.82398 
L 378.961981 15.82398 
L 378.961981 15.439453 
L 379.224564 15.439453 
L 379.224564 15.054926 
L 382.277821 15.054926 
L 382.277821 14.670399 
L 383.003167 14.670399 
L 383.003167 14.285872 
L 383.74204 14.285872 
L 383.74204 13.901345 
L 384.676043 13.901345 
L 384.676043 13.516817 
L 386.072326 13.516817 
L 386.072326 13.13229 
L 387.140656 13.13229 
L 387.140656 12.747763 
L 388.320884 12.747763 
L 388.320884 12.363236 
L 388.51233 12.363236 
L 388.583467 11.209655 
L 389.717166 11.209655 
L 389.717166 10.825127 
L 389.97975 10.825127 
L 390.069667 10.056073 
L 391.636724 10.056073 
L 391.636724 9.671546 
L 393.033006 9.671546 
L 393.033006 9.287019 
L 397.894747 9.287019 
L 397.894747 8.902492 
L 402.845413 8.902492 
L 402.845413 8.517965 
L 405.381378 8.517965 
L 405.381378 8.133437 
L 407.25365 8.133437 
L 407.25365 7.74891 
L 408.649932 7.74891 
L 408.649932 7.364383 
L 412.204316 7.364383 
L 412.204316 6.979856 
L 413.600598 6.979856 
L 413.600598 6.595329 
L 414.740281 6.595329 
L 414.740281 6.210802 
L 416.136564 6.210802 
L 416.136564 5.826275 
L 453.192 5.826275 
L 453.192 5.826275 
" clip-path="url(#p34f66e64ff)" style="fill: none; stroke: #00bfbf; stroke-width: 3; stroke-linecap: square"/>
   </g>
   <g id="line2d_54">
    <path clip-path="url(#p34f66e64ff)" style="fill: none; stroke: #00bfbf; stroke-width: 3; stroke-linecap: square"/>
   </g>
   <g id="line2d_55">
    <path d="M 34.16 111.811569 
L 136.284674 111.811569 
L 136.284674 111.419031 
L 138.439204 111.419031 
L 138.439204 111.026492 
L 147.361318 111.026492 
L 147.361318 110.633954 
L 161.114113 110.633954 
L 161.114113 110.241416 
L 161.61461 110.241416 
L 161.61461 109.848878 
L 167.659062 109.848878 
L 167.659062 109.45634 
L 170.816723 109.45634 
L 170.816723 109.063802 
L 172.949618 109.063802 
L 172.949618 108.671264 
L 177.650732 108.671264 
L 177.650732 108.278725 
L 179.805263 108.278725 
L 179.805263 107.886187 
L 180.15008 107.886187 
L 180.15008 107.493649 
L 182.30461 107.493649 
L 182.30461 107.101111 
L 182.584199 107.101111 
L 182.670561 106.316035 
L 183.6608 106.316035 
L 183.6608 105.923497 
L 184.73873 105.923497 
L 184.825092 105.13842 
L 185.815331 105.13842 
L 185.815331 104.745882 
L 186.217429 104.745882 
L 186.217429 104.353344 
L 188.37196 104.353344 
L 188.37196 103.960806 
L 188.727377 103.960806 
L 188.727377 103.568268 
L 191.226724 103.568268 
L 191.226724 103.17573 
L 193.660844 103.17573 
L 193.747206 102.390654 
L 193.973143 102.390654 
L 193.973143 101.998115 
L 194.737445 101.998115 
L 194.737445 101.605577 
L 196.127674 101.605577 
L 196.127674 101.213039 
L 197.294074 101.213039 
L 197.294074 100.820501 
L 202.480172 100.820501 
L 202.480172 100.427963 
L 202.980669 100.427963 
L 202.980669 100.035425 
L 204.979519 100.035425 
L 205.049788 99.250349 
L 205.480016 99.250349 
L 205.480016 98.85781 
L 207.413638 98.85781 
L 207.5 98.072734 
L 207.914135 98.072734 
L 208.000497 97.287658 
L 208.49024 97.287658 
L 208.490282 96.502582 
L 208.990737 96.502582 
L 209.025121 95.717505 
L 211.046869 95.717505 
L 211.046869 95.324967 
L 211.524468 95.324967 
L 211.547366 94.539891 
L 212.182782 94.539891 
L 212.182782 94.147353 
L 213.958587 94.147353 
L 214.044949 93.362277 
L 214.315676 93.362277 
L 214.315676 92.969739 
L 214.682129 92.969739 
L 214.682129 92.5772 
L 215.035189 92.5772 
L 215.035189 92.184662 
L 216.734212 92.184662 
L 216.815024 91.399586 
L 217.116248 91.399586 
L 217.20261 90.61451 
L 217.591818 90.61451 
L 217.591818 90.221972 
L 218.19285 90.221972 
L 218.19285 89.829434 
L 218.802583 89.829434 
L 218.802583 89.436895 
L 219.249143 89.436895 
L 219.335505 88.259281 
L 220.325744 88.259281 
L 220.400246 87.474205 
L 220.749479 87.474205 
L 220.749479 87.081667 
L 222.568116 87.081667 
L 222.568116 86.689129 
L 222.882373 86.689129 
L 222.882373 86.29659 
L 223.551619 86.29659 
L 223.627118 85.511514 
L 224.27921 85.511514 
L 224.27921 85.118976 
L 225.347532 85.118976 
L 225.347532 84.726438 
L 226.433741 84.726438 
L 226.433741 84.3339 
L 227.63439 84.3339 
L 227.63439 83.941362 
L 228.505192 83.941362 
L 228.505192 83.548824 
L 228.644176 83.548824 
L 228.644176 83.156285 
L 229.957693 83.156285 
L 229.957693 82.763747 
L 230.638087 82.763747 
L 230.638087 82.371209 
L 232.333545 82.371209 
L 232.333545 81.978671 
L 234.488076 81.978671 
L 234.488076 81.586133 
L 235.104421 81.586133 
L 235.104421 81.193595 
L 235.355855 81.193595 
L 235.355855 80.801057 
L 237.153972 80.801057 
L 237.258952 80.01598 
L 239.308503 80.01598 
L 239.308503 79.623442 
L 240.648105 79.623442 
L 240.648105 79.230904 
L 242.802636 79.230904 
L 242.802636 78.838366 
L 243.41019 78.838366 
L 243.41019 78.445828 
L 246.181066 78.445828 
L 246.181066 78.05329 
L 248.230617 78.05329 
L 248.230617 77.660752 
L 249.10865 77.660752 
L 249.10865 77.268214 
L 249.609147 77.268214 
L 249.609147 76.875675 
L 251.145545 76.875675 
L 251.145545 76.483137 
L 251.72475 76.483137 
L 251.72475 76.090599 
L 253.300076 76.090599 
L 253.300076 75.698061 
L 255.653599 75.698061 
L 255.653599 75.305523 
L 257.162985 75.305523 
L 257.162985 74.912985 
L 257.663482 74.912985 
L 257.663482 74.520447 
L 258.811259 74.520447 
L 258.811259 74.127908 
L 259.93386 74.127908 
L 259.93386 73.73537 
L 260.434357 73.73537 
L 260.454246 72.950294 
L 260.944154 72.950294 
L 260.944154 72.557756 
L 261.516434 72.557756 
L 261.516434 72.165218 
L 261.983412 72.165218 
L 261.983412 71.77268 
L 262.22219 71.77268 
L 262.22219 71.380142 
L 262.483909 71.380142 
L 262.483909 70.987603 
L 263.536801 70.987603 
L 263.536801 70.595065 
L 263.707934 70.595065 
L 263.707934 70.202527 
L 263.934175 70.202527 
L 263.934175 69.809989 
L 264.212564 69.809989 
L 264.212564 69.417451 
L 264.917678 69.417451 
L 264.993177 68.632375 
L 265.477544 68.632375 
L 265.477544 68.239837 
L 265.978041 68.239837 
L 265.978041 67.847298 
L 266.367095 67.847298 
L 266.433522 67.062222 
L 266.478809 67.062222 
L 266.478809 66.669684 
L 266.865594 66.669684 
L 266.865594 66.277146 
L 267.417025 66.277146 
L 267.492524 65.49207 
L 267.693892 65.49207 
L 267.693892 65.099532 
L 268.528361 65.099532 
L 268.528361 64.706993 
L 268.698176 64.706993 
L 268.698176 64.314455 
L 268.867642 64.314455 
L 268.954004 63.529379 
L 268.998489 63.529379 
L 269.000449 62.744303 
L 269.63647 62.744303 
L 269.63647 62.351765 
L 269.760364 62.351765 
L 269.851144 61.566688 
L 269.926643 61.566688 
L 270.013005 59.996536 
L 270.927746 59.996536 
L 271.003245 59.21146 
L 271.323752 59.21146 
L 271.323752 58.818922 
L 271.499796 58.818922 
L 271.499796 58.426383 
L 271.686021 58.426383 
L 271.780731 56.856231 
L 272.022493 56.856231 
L 272.022493 56.463693 
L 272.236393 56.463693 
L 272.236393 56.071155 
L 272.500872 56.071155 
L 272.500872 55.678617 
L 273.484375 55.678617 
L 273.559874 54.89354 
L 273.818916 54.89354 
L 273.823099 54.108464 
L 273.933916 54.108464 
L 274.020278 52.93085 
L 275.010517 52.93085 
L 275.075695 52.145773 
L 275.180154 52.145773 
L 275.289209 51.360697 
L 275.937821 51.360697 
L 275.974985 50.575621 
L 276.257219 50.575621 
L 276.343581 49.790545 
L 276.475482 49.790545 
L 276.475482 49.398007 
L 277.313049 49.398007 
L 277.33382 48.61293 
L 277.567146 48.61293 
L 277.567146 48.220392 
L 279.890449 48.220392 
L 279.977836 47.435316 
L 280.256586 47.435316 
L 280.256586 47.042778 
L 281.240089 47.042778 
L 281.315588 46.257702 
L 282.519933 46.257702 
L 282.519933 45.865163 
L 283.019306 45.865163 
L 283.019306 45.472625 
L 284.146356 45.472625 
L 284.146356 45.080087 
L 285.32286 45.080087 
L 285.32286 44.687549 
L 285.577572 44.687549 
L 285.677594 43.902473 
L 285.909623 43.902473 
L 285.909623 43.509935 
L 286.378807 43.509935 
L 286.378807 43.117397 
L 286.58621 43.117397 
L 286.58621 42.724858 
L 286.985659 42.724858 
L 286.985659 42.33232 
L 287.646163 42.33232 
L 287.646163 41.939782 
L 287.810489 41.939782 
L 287.810489 41.547244 
L 288.158986 41.547244 
L 288.158986 41.154706 
L 289.042003 41.154706 
L 289.042003 40.762168 
L 289.5425 40.762168 
L 289.5425 40.36963 
L 291.263236 40.36963 
L 291.263236 39.977092 
L 293.821502 39.977092 
L 293.821502 39.584553 
L 294.622737 39.584553 
L 294.622737 39.192015 
L 294.83014 39.192015 
L 294.83014 38.799477 
L 295.586952 38.799477 
L 295.586952 38.406939 
L 296.402915 38.406939 
L 296.402915 38.014401 
L 298.744613 38.014401 
L 298.744613 37.621863 
L 300.877508 37.621863 
L 300.877508 37.229325 
L 306.592474 37.229325 
L 306.592474 36.836786 
L 310.562653 36.836786 
L 310.562653 36.444248 
L 311.379916 36.444248 
L 311.379916 36.05171 
L 311.546156 36.05171 
L 311.621655 35.266634 
L 313.159882 35.266634 
L 313.159882 34.874096 
L 314.836404 34.874096 
L 314.836404 34.481558 
L 315.628927 34.481558 
L 315.628927 34.08902 
L 317.95223 34.08902 
L 317.95223 33.696481 
L 318.616988 33.696481 
L 318.616988 33.303943 
L 319.600491 33.303943 
L 319.67599 32.126329 
L 321.387864 32.126329 
L 321.403811 31.341253 
L 322.371366 31.341253 
L 322.446865 30.556176 
L 323.437415 30.556176 
L 323.437415 30.163638 
L 323.683262 30.163638 
L 323.683262 29.7711 
L 324.200357 29.7711 
L 324.200357 29.378562 
L 324.420918 29.378562 
L 324.496417 28.593486 
L 325.262545 28.593486 
L 325.262545 28.200948 
L 325.963624 28.200948 
L 326.006565 27.415871 
L 326.454138 27.415871 
L 326.454138 27.023333 
L 326.931547 27.023333 
L 327.039659 25.845719 
L 327.282912 25.845719 
L 327.282912 25.453181 
L 327.91505 25.453181 
L 327.990549 24.668105 
L 328.101847 24.668105 
L 328.101847 24.275566 
L 328.503689 24.275566 
L 328.503689 23.883028 
L 328.777441 23.883028 
L 328.777441 23.49049 
L 329.046179 23.49049 
L 329.046179 23.097952 
L 330.122214 23.097952 
L 330.122214 22.705414 
L 330.826992 22.705414 
L 330.826992 22.312876 
L 331.440002 22.312876 
L 331.440002 21.920338 
L 331.997822 21.920338 
L 331.997822 21.5278 
L 333.203269 21.5278 
L 333.203269 21.135261 
L 334.279305 21.135261 
L 334.321125 20.350185 
L 335.480017 20.350185 
L 335.480017 19.957647 
L 337.243284 19.957647 
L 337.243284 19.565109 
L 337.428988 19.565109 
L 337.428988 19.172571 
L 338.319319 19.172571 
L 338.412491 18.387495 
L 338.487989 18.387495 
L 338.487989 17.994956 
L 342.495262 17.994956 
L 342.495262 17.602418 
L 344.818565 17.602418 
L 344.818565 17.20988 
L 346.765417 17.20988 
L 346.765417 16.817342 
L 348.528683 16.817342 
L 348.528683 16.424804 
L 349.323683 16.424804 
L 349.323683 16.032266 
L 349.604719 16.032266 
L 349.604719 15.639728 
L 350.124918 15.639728 
L 350.124918 15.24719 
L 350.332321 15.24719 
L 350.332321 14.854651 
L 350.496007 14.854651 
L 350.496007 14.462113 
L 351.086949 14.462113 
L 351.086949 14.069575 
L 351.479509 14.069575 
L 351.555008 13.284499 
L 351.888184 13.284499 
L 351.905096 12.499423 
L 352.095588 12.499423 
L 352.162985 11.714346 
L 352.96422 11.714346 
L 352.96422 11.321808 
L 353.171623 11.321808 
L 353.171623 10.92927 
L 353.668363 10.92927 
L 353.668363 10.536732 
L 354.744399 10.536732 
L 354.744399 10.144194 
L 355.562281 10.144194 
L 355.562281 9.751656 
L 357.885584 9.751656 
L 357.885584 9.359118 
L 370.338585 9.359118 
L 370.338585 8.96658 
L 372.101852 8.96658 
L 372.101852 8.574041 
L 373.177887 8.574041 
L 373.177887 8.181503 
L 375.126027 8.181503 
L 375.126027 7.788965 
L 376.889293 7.788965 
L 376.905992 7.003889 
L 377.965329 7.003889 
L 377.965329 6.611351 
L 378.669259 6.611351 
L 378.669259 6.218813 
L 379.745295 6.218813 
L 379.745295 5.826275 
L 453.192 5.826275 
L 453.192 5.826275 
" clip-path="url(#p34f66e64ff)" style="fill: none; stroke: #bf00bf; stroke-width: 3; stroke-linecap: square"/>
   </g>
   <g id="line2d_56">
    <path clip-path="url(#p34f66e64ff)" style="fill: none; stroke: #bf00bf; stroke-width: 3; stroke-linecap: square"/>
   </g>
   <g id="line2d_57">
    <path d="M 34.16 116.419625 
L 149.836126 116.419625 
L 149.836126 116.01002 
L 150.775985 116.01002 
L 150.775985 115.600415 
L 159.496651 115.600415 
L 159.496651 115.19081 
L 172.406386 115.19081 
L 172.406386 114.781205 
L 173.533844 114.781205 
L 173.533844 114.3716 
L 179.021704 114.3716 
L 179.021704 113.961995 
L 179.335814 113.961995 
L 179.335814 113.55239 
L 183.419559 113.55239 
L 183.497838 112.73318 
L 184.207505 112.73318 
L 184.207505 112.323575 
L 184.359419 112.323575 
L 184.359419 111.91397 
L 185.147365 111.91397 
L 185.147365 111.504365 
L 186.307485 111.504365 
L 186.307485 111.09476 
L 186.920223 111.09476 
L 186.920223 110.685155 
L 187.247345 110.685155 
L 187.247345 110.27555 
L 187.860083 110.27555 
L 187.886497 109.45634 
L 188.826357 109.45634 
L 188.826357 109.046735 
L 190.372724 109.046735 
L 190.372724 108.63713 
L 191.312584 108.63713 
L 191.312584 108.227525 
L 193.080084 108.227525 
L 193.080084 107.81792 
L 193.868031 107.81792 
L 193.868031 107.408315 
L 195.96801 107.408315 
L 195.96801 106.99871 
L 196.519679 106.99871 
L 196.580749 106.1795 
L 197.459539 106.1795 
L 197.547022 105.36029 
L 200.033249 105.36029 
L 200.033249 104.950685 
L 205.989819 104.950685 
L 205.989819 104.54108 
L 206.180204 104.54108 
L 206.180204 104.131475 
L 206.777766 104.131475 
L 206.777766 103.72187 
L 207.117277 103.72187 
L 207.117277 103.312265 
L 207.905224 103.312265 
L 207.905224 102.90266 
L 208.877745 102.90266 
L 208.877745 102.493055 
L 209.490484 102.493055 
L 209.490484 102.08345 
L 210.005203 102.08345 
L 210.005203 101.673845 
L 210.373284 101.673845 
L 210.456757 100.854635 
L 210.617942 100.854635 
L 210.617942 100.44503 
L 211.584215 100.44503 
L 211.584215 100.035425 
L 212.605137 100.035425 
L 212.605137 99.62582 
L 212.919248 99.62582 
L 212.942984 98.80661 
L 213.393084 98.80661 
L 213.393084 98.397005 
L 213.707194 98.397005 
L 213.707194 97.9874 
L 214.070442 97.9874 
L 214.070442 97.577795 
L 215.493063 97.577795 
L 215.493063 97.16819 
L 215.807174 97.16819 
L 215.807174 96.758585 
L 216.105802 96.758585 
L 216.105802 96.34898 
L 216.419912 96.34898 
L 216.419912 95.939375 
L 217.072075 95.939375 
L 217.081271 95.120165 
L 217.386186 95.120165 
L 217.386186 94.71056 
L 217.869218 94.71056 
L 217.869218 94.300955 
L 218.422016 94.300955 
L 218.422016 93.89135 
L 219.089939 93.89135 
L 219.089939 93.481745 
L 219.558302 93.481745 
L 219.558302 93.07214 
L 219.872413 93.07214 
L 219.969197 92.25293 
L 220.217397 92.25293 
L 220.305085 91.43372 
L 220.581936 91.43372 
L 220.581936 91.024115 
L 221.447395 91.024115 
L 221.548209 90.204905 
L 221.764484 90.204905 
L 221.764484 89.7953 
L 222.105807 89.7953 
L 222.105807 89.385695 
L 222.533054 89.385695 
L 222.533054 88.97609 
L 224.034436 88.97609 
L 224.034436 88.566485 
L 224.611313 88.566485 
L 224.611313 88.15688 
L 225.379678 88.15688 
L 225.379678 87.747275 
L 225.551173 87.747275 
L 225.551173 87.33767 
L 225.705257 87.33767 
L 225.705257 86.928065 
L 226.019368 86.928065 
L 226.019368 86.51846 
L 228.353817 86.51846 
L 228.353817 86.108855 
L 230.181391 86.108855 
L 230.181391 85.69925 
L 231.007795 85.69925 
L 231.007795 85.289645 
L 231.947655 85.289645 
L 231.947655 84.88004 
L 234.271839 84.88004 
L 234.271839 84.470435 
L 234.93386 84.470435 
L 234.93386 84.06083 
L 235.12145 84.06083 
L 235.12145 83.651225 
L 235.873719 83.651225 
L 235.873719 83.24162 
L 236.06131 83.24162 
L 236.06131 82.832015 
L 238.580722 82.832015 
L 238.580722 82.42241 
L 239.520582 82.42241 
L 239.520582 82.012805 
L 240.66832 82.012805 
L 240.66832 81.6032 
L 244.594385 81.6032 
L 244.594385 81.193595 
L 244.781975 81.193595 
L 244.781975 80.78399 
L 247.181574 80.78399 
L 247.181574 80.374385 
L 248.241247 80.374385 
L 248.309032 79.555175 
L 249.652168 79.555175 
L 249.652168 79.14557 
L 250.592027 79.14557 
L 250.592027 78.735965 
L 253.578056 78.735965 
L 253.578056 78.32636 
L 253.796892 78.32636 
L 253.796892 77.916755 
L 254.111002 77.916755 
L 254.111002 77.50715 
L 254.705514 77.50715 
L 254.705514 77.097545 
L 255.030829 77.097545 
L 255.030829 76.68794 
L 255.347918 76.68794 
L 255.347918 76.278335 
L 255.68924 76.278335 
L 255.68924 75.86873 
L 255.818775 75.86873 
L 255.818775 75.459125 
L 256.116487 75.459125 
L 256.135864 74.639915 
L 256.477186 74.639915 
L 256.477186 74.23031 
L 256.904434 74.23031 
L 256.904434 73.820705 
L 257.50412 73.820705 
L 257.50412 73.4111 
L 257.69171 73.4111 
L 257.754761 72.182285 
L 257.918755 72.182285 
L 257.918755 71.77268 
L 258.235844 71.77268 
L 258.273025 70.95347 
L 258.531493 70.95347 
L 258.631578 69.724655 
L 258.819169 69.724655 
L 258.848582 68.905445 
L 258.963112 68.905445 
L 259.004413 67.67663 
L 259.189905 67.67663 
L 259.189905 67.267025 
L 259.312693 67.267025 
L 259.312693 66.85742 
L 259.497767 66.85742 
L 259.497767 66.447815 
L 259.611679 66.447815 
L 259.617152 65.628605 
L 259.751058 65.628605 
L 259.814856 64.809395 
L 260.156178 64.809395 
L 260.193373 63.990185 
L 260.507484 63.990185 
L 260.583425 63.170975 
L 260.705379 63.170975 
L 260.705379 62.76137 
L 261.150982 62.76137 
L 261.150982 62.351765 
L 261.467037 62.351765 
L 261.467037 61.94216 
L 261.801765 61.94216 
L 261.851038 61.12295 
L 261.983994 61.12295 
L 261.983994 60.713345 
L 262.27844 60.713345 
L 262.301083 59.894135 
L 262.463776 59.894135 
L 262.463776 59.48453 
L 262.642405 59.48453 
L 262.741625 58.66532 
L 263.024584 58.66532 
L 263.069652 57.84611 
L 263.43005 57.84611 
L 263.43005 57.436505 
L 264.119438 57.436505 
L 264.119438 57.0269 
L 264.307028 57.0269 
L 264.307028 56.617295 
L 264.433548 56.617295 
L 264.433548 56.20769 
L 264.621139 56.20769 
L 264.669507 55.38848 
L 265.758209 55.38848 
L 265.803493 54.56927 
L 265.916277 54.56927 
L 265.916277 54.159665 
L 266.082752 54.159665 
L 266.082752 53.75006 
L 267.660411 53.75006 
L 267.7663 52.93085 
L 268.080411 52.93085 
L 268.130949 52.11164 
L 268.448038 52.11164 
L 268.448038 51.702035 
L 268.595572 51.702035 
L 268.595572 51.29243 
L 268.783162 51.29243 
L 268.78936 50.47322 
L 268.915312 50.47322 
L 268.915312 50.063615 
L 269.216607 50.063615 
L 269.216607 49.65401 
L 270.63718 49.65401 
L 270.63718 49.244405 
L 271.073316 49.244405 
L 271.073316 48.8348 
L 271.398838 48.8348 
L 271.46229 48.01559 
L 272.063232 48.01559 
L 272.063232 47.605985 
L 272.222428 47.605985 
L 272.242434 46.786775 
L 273.349886 46.786775 
L 273.349886 46.37717 
L 274.131484 46.37717 
L 274.131484 45.967565 
L 278.837746 45.967565 
L 278.837746 45.55796 
L 279.151857 45.55796 
L 279.151857 45.148355 
L 279.91497 45.148355 
L 279.91497 44.73875 
L 282.173637 44.73875 
L 282.173637 44.329145 
L 282.397295 44.329145 
L 282.397295 43.91954 
L 282.987453 43.91954 
L 282.987453 43.509935 
L 283.235469 43.509935 
L 283.31388 42.690725 
L 284.372025 42.690725 
L 284.372025 42.28112 
L 285.499483 42.28112 
L 285.499483 41.871515 
L 287.963702 41.871515 
L 287.963702 41.46191 
L 290.222369 41.46191 
L 290.222369 41.052305 
L 290.446027 41.052305 
L 290.446027 40.6427 
L 290.987343 40.6427 
L 291.036185 39.82349 
L 291.284201 39.82349 
L 291.301454 39.00428 
L 295.463477 39.00428 
L 295.463477 38.594675 
L 296.222583 38.594675 
L 296.222583 38.18507 
L 296.539672 38.18507 
L 296.539672 37.775465 
L 296.880994 37.775465 
L 296.880994 37.36586 
L 297.308242 37.36586 
L 297.308242 36.956255 
L 300.154866 36.956255 
L 300.154866 36.54665 
L 302.619065 36.54665 
L 302.619065 36.137045 
L 302.936154 36.137045 
L 302.936154 35.72744 
L 303.277476 35.72744 
L 303.277476 35.317835 
L 303.704724 35.317835 
L 303.704724 34.90823 
L 304.347675 34.90823 
L 304.347675 34.498625 
L 306.319704 34.498625 
L 306.364989 33.679415 
L 306.545129 33.679415 
L 306.551348 32.860205 
L 306.73272 32.860205 
L 306.73272 32.4506 
L 306.862218 32.4506 
L 306.862218 32.040995 
L 307.049809 32.040995 
L 307.049809 31.63139 
L 307.203541 31.63139 
L 307.203541 31.221785 
L 307.391131 31.221785 
L 307.391131 30.81218 
L 307.630788 30.81218 
L 307.630788 30.402575 
L 307.818378 30.402575 
L 307.818378 29.99297 
L 308.041572 29.99297 
L 308.086856 29.17376 
L 308.221907 29.17376 
L 308.221907 28.764155 
L 308.33621 28.764155 
L 308.33621 28.35455 
L 308.80323 28.35455 
L 308.848514 27.53534 
L 309.943774 27.53534 
L 309.943774 27.125735 
L 310.068455 27.125735 
L 310.068455 26.71613 
L 310.191992 26.71613 
L 310.191992 26.306525 
L 310.477412 26.306525 
L 310.509081 25.487315 
L 310.665003 25.487315 
L 310.705432 24.668105 
L 310.850403 24.668105 
L 310.850403 24.2585 
L 311.27765 24.2585 
L 311.27765 23.848895 
L 311.634811 23.848895 
L 311.634811 23.43929 
L 312.396407 23.43929 
L 312.396407 23.029685 
L 313.356679 23.029685 
L 313.356679 22.62008 
L 314.118336 22.62008 
L 314.124275 21.80087 
L 314.692979 21.80087 
L 314.692979 21.391265 
L 316.384942 21.391265 
L 316.414847 20.572055 
L 317.176504 20.572055 
L 317.176504 20.16245 
L 318.117187 20.16245 
L 318.117187 19.752845 
L 321.263437 19.752845 
L 321.263437 19.34324 
L 321.580527 19.34324 
L 321.580527 18.933635 
L 321.921849 18.933635 
L 321.921849 18.52403 
L 322.349096 18.52403 
L 322.349096 18.114425 
L 325.19572 18.114425 
L 325.19572 17.70482 
L 328.525198 17.70482 
L 328.525198 17.295215 
L 330.247065 17.295215 
L 330.247065 16.88561 
L 330.783865 16.88561 
L 330.783865 16.476005 
L 331.007522 16.476005 
L 331.008723 15.656795 
L 331.59768 15.656795 
L 331.59768 15.24719 
L 331.845697 15.24719 
L 331.845697 14.837585 
L 332.505733 14.837585 
L 332.505733 14.42798 
L 332.72939 14.42798 
L 332.72939 14.018375 
L 333.26739 14.018375 
L 333.319548 13.199165 
L 333.413035 13.199165 
L 333.491047 12.379955 
L 333.567565 12.379955 
L 333.567565 11.97035 
L 333.730124 11.97035 
L 333.730124 11.560745 
L 334.071446 11.560745 
L 334.081205 10.741535 
L 334.329222 10.741535 
L 334.329222 10.33193 
L 334.498693 10.33193 
L 334.498693 9.922325 
L 337.345318 9.922325 
L 337.345318 9.51272 
L 352.957902 9.51272 
L 352.957902 9.103115 
L 354.67977 9.103115 
L 354.67977 8.69351 
L 355.441427 8.69351 
L 355.441427 8.283905 
L 356.946437 8.283905 
L 356.946437 7.8743 
L 358.668305 7.8743 
L 358.678682 7.05509 
L 359.429963 7.05509 
L 359.429963 6.645485 
L 360.40055 6.645485 
L 360.40055 6.23588 
L 361.162207 6.23588 
L 361.162207 5.826275 
L 453.192 5.826275 
L 453.192 5.826275 
" clip-path="url(#p34f66e64ff)" style="fill: none; stroke: #ff0000; stroke-width: 3; stroke-linecap: square"/>
   </g>
   <g id="line2d_58">
    <path clip-path="url(#p34f66e64ff)" style="fill: none; stroke: #ff0000; stroke-width: 3; stroke-linecap: square"/>
   </g>
   <g id="line2d_59">
    <path d="M 243.676 291.28 
L 243.676 3 
" clip-path="url(#p34f66e64ff)" style="fill: none; stroke: #000000; stroke-width: 1.5; stroke-linecap: square"/>
   </g>
   <g id="line2d_60">
    <path d="M 34.16 147.14 
L 453.192 147.14 
" clip-path="url(#p34f66e64ff)" style="fill: none; stroke-dasharray: 2,3.3; stroke-dashoffset: 0; stroke: #000000; stroke-width: 2"/>
   </g>
   <g id="patch_3">
    <path d="M 34.16 291.28 
L 34.16 3 
" style="fill: none; stroke: #000000; stroke-width: 0.8; stroke-linejoin: miter; stroke-linecap: square"/>
   </g>
   <g id="patch_4">
    <path d="M 453.192 291.28 
L 453.192 3 
" style="fill: none; stroke: #000000; stroke-width: 0.8; stroke-linejoin: miter; stroke-linecap: square"/>
   </g>
   <g id="patch_5">
    <path d="M 34.16 291.28 
L 453.192 291.28 
" style="fill: none; stroke: #000000; stroke-width: 0.8; stroke-linejoin: miter; stroke-linecap: square"/>
   </g>
   <g id="patch_6">
    <path d="M 34.16 3 
L 453.192 3 
" style="fill: none; stroke: #000000; stroke-width: 0.8; stroke-linejoin: miter; stroke-linecap: square"/>
   </g>
   <g id="text_5">
    <!-- f15-f19,40-D -->
    <g transform="translate(318.19261 285.5144) scale(0.2 -0.2)">
     <defs>
      <path id="DejaVuSans-35" d="M 691 4666 
L 3169 4666 
L 3169 4134 
L 1269 4134 
L 1269 2991 
Q 1406 3038 1543 3061 
Q 1681 3084 1819 3084 
Q 2600 3084 3056 2656 
Q 3513 2228 3513 1497 
Q 3513 744 3044 326 
Q 2575 -91 1722 -91 
Q 1428 -91 1123 -41 
Q 819 9 494 109 
L 494 744 
Q 775 591 1075 516 
Q 1375 441 1709 441 
Q 2250 441 2565 725 
Q 2881 1009 2881 1497 
Q 2881 1984 2565 2268 
Q 2250 2553 1709 2553 
Q 1456 2553 1204 2497 
Q 953 2441 691 2322 
L 691 4666 
z
" transform="scale(0.015625)"/>
      <path id="DejaVuSans-39" d="M 703 97 
L 703 672 
Q 941 559 1184 500 
Q 1428 441 1663 441 
Q 2288 441 2617 861 
Q 2947 1281 2994 2138 
Q 2813 1869 2534 1725 
Q 2256 1581 1919 1581 
Q 1219 1581 811 2004 
Q 403 2428 403 3163 
Q 403 3881 828 4315 
Q 1253 4750 1959 4750 
Q 2769 4750 3195 4129 
Q 3622 3509 3622 2328 
Q 3622 1225 3098 567 
Q 2575 -91 1691 -91 
Q 1453 -91 1209 -44 
Q 966 3 703 97 
z
M 1959 2075 
Q 2384 2075 2632 2365 
Q 2881 2656 2881 3163 
Q 2881 3666 2632 3958 
Q 2384 4250 1959 4250 
Q 1534 4250 1286 3958 
Q 1038 3666 1038 3163 
Q 1038 2656 1286 2365 
Q 1534 2075 1959 2075 
z
" transform="scale(0.015625)"/>
      <path id="DejaVuSans-2c" d="M 750 794 
L 1409 794 
L 1409 256 
L 897 -744 
L 494 -744 
L 750 256 
L 750 794 
z
" transform="scale(0.015625)"/>
      <path id="DejaVuSans-34" d="M 2419 4116 
L 825 1625 
L 2419 1625 
L 2419 4116 
z
M 2253 4666 
L 3047 4666 
L 3047 1625 
L 3713 1625 
L 3713 1100 
L 3047 1100 
L 3047 0 
L 2419 0 
L 2419 1100 
L 313 1100 
L 313 1709 
L 2253 4666 
z
" transform="scale(0.015625)"/>
      <path id="DejaVuSans-44" d="M 1259 4147 
L 1259 519 
L 2022 519 
Q 2988 519 3436 956 
Q 3884 1394 3884 2338 
Q 3884 3275 3436 3711 
Q 2988 4147 2022 4147 
L 1259 4147 
z
M 628 4666 
L 1925 4666 
Q 3281 4666 3915 4102 
Q 4550 3538 4550 2338 
Q 4550 1131 3912 565 
Q 3275 0 1925 0 
L 628 0 
L 628 4666 
z
" transform="scale(0.015625)"/>
     </defs>
     <use xlink:href="#DejaVuSans-66"/>
     <use xlink:href="#DejaVuSans-31" x="35.205078"/>
     <use xlink:href="#DejaVuSans-35" x="98.828125"/>
     <use xlink:href="#DejaVuSans-2d" x="162.451172"/>
     <use xlink:href="#DejaVuSans-66" x="198.535156"/>
     <use xlink:href="#DejaVuSans-31" x="233.740234"/>
     <use xlink:href="#DejaVuSans-39" x="297.363281"/>
     <use xlink:href="#DejaVuSans-2c" x="360.986328"/>
     <use xlink:href="#DejaVuSans-34" x="392.773438"/>
     <use xlink:href="#DejaVuSans-30" x="456.396484"/>
     <use xlink:href="#DejaVuSans-2d" x="520.019531"/>
     <use xlink:href="#DejaVuSans-44" x="556.103516"/>
    </g>
   </g>
   <g id="text_6">
    <!-- v2.6.3 -->
    <g style="fill: #808080" transform="translate(227.99475 286.317512) scale(0.1 -0.1)">
     <defs>
      <path id="DejaVuSans-32" d="M 1228 531 
L 3431 531 
L 3431 0 
L 469 0 
L 469 531 
Q 828 903 1448 1529 
Q 2069 2156 2228 2338 
Q 2531 2678 2651 2914 
Q 2772 3150 2772 3378 
Q 2772 3750 2511 3984 
Q 2250 4219 1831 4219 
Q 1534 4219 1204 4116 
Q 875 4013 500 3803 
L 500 4441 
Q 881 4594 1212 4672 
Q 1544 4750 1819 4750 
Q 2544 4750 2975 4387 
Q 3406 4025 3406 3419 
Q 3406 3131 3298 2873 
Q 3191 2616 2906 2266 
Q 2828 2175 2409 1742 
Q 1991 1309 1228 531 
z
" transform="scale(0.015625)"/>
      <path id="DejaVuSans-2e" d="M 684 794 
L 1344 794 
L 1344 0 
L 684 0 
L 684 794 
z
" transform="scale(0.015625)"/>
      <path id="DejaVuSans-36" d="M 2113 2584 
Q 1688 2584 1439 2293 
Q 1191 2003 1191 1497 
Q 1191 994 1439 701 
Q 1688 409 2113 409 
Q 2538 409 2786 701 
Q 3034 994 3034 1497 
Q 3034 2003 2786 2293 
Q 2538 2584 2113 2584 
z
M 3366 4563 
L 3366 3988 
Q 3128 4100 2886 4159 
Q 2644 4219 2406 4219 
Q 1781 4219 1451 3797 
Q 1122 3375 1075 2522 
Q 1259 2794 1537 2939 
Q 1816 3084 2150 3084 
Q 2853 3084 3261 2657 
Q 3669 2231 3669 1497 
Q 3669 778 3244 343 
Q 2819 -91 2113 -91 
Q 1303 -91 875 529 
Q 447 1150 447 2328 
Q 447 3434 972 4092 
Q 1497 4750 2381 4750 
Q 2619 4750 2861 4703 
Q 3103 4656 3366 4563 
z
" transform="scale(0.015625)"/>
      <path id="DejaVuSans-33" d="M 2597 2516 
Q 3050 2419 3304 2112 
Q 3559 1806 3559 1356 
Q 3559 666 3084 287 
Q 2609 -91 1734 -91 
Q 1441 -91 1130 -33 
Q 819 25 488 141 
L 488 750 
Q 750 597 1062 519 
Q 1375 441 1716 441 
Q 2309 441 2620 675 
Q 2931 909 2931 1356 
Q 2931 1769 2642 2001 
Q 2353 2234 1838 2234 
L 1294 2234 
L 1294 2753 
L 1863 2753 
Q 2328 2753 2575 2939 
Q 2822 3125 2822 3475 
Q 2822 3834 2567 4026 
Q 2313 4219 1838 4219 
Q 1578 4219 1281 4162 
Q 984 4106 628 3988 
L 628 4550 
Q 988 4650 1302 4700 
Q 1616 4750 1894 4750 
Q 2613 4750 3031 4423 
Q 3450 4097 3450 3541 
Q 3450 3153 3228 2886 
Q 3006 2619 2597 2516 
z
" transform="scale(0.015625)"/>
     </defs>
     <use xlink:href="#DejaVuSans-76"/>
     <use xlink:href="#DejaVuSans-32" x="59.179688"/>
     <use xlink:href="#DejaVuSans-2e" x="122.802734"/>
     <use xlink:href="#DejaVuSans-36" x="154.589844"/>
     <use xlink:href="#DejaVuSans-2e" x="218.212891"/>
     <use xlink:href="#DejaVuSans-33" x="250"/>
    </g>
   </g>
   <g id="legend_1">
    <g id="patch_7">
     <path d="M 309.970125 281.28 
L 439.192 281.28 
Q 443.192 281.28 443.192 277.28 
L 443.192 161.855 
Q 443.192 157.855 439.192 157.855 
L 309.970125 157.855 
Q 305.970125 157.855 305.970125 161.855 
L 305.970125 277.28 
Q 305.970125 281.28 309.970125 281.28 
z
" style="fill: #ffffff; opacity: 0.2; stroke: #cccccc; stroke-linejoin: miter"/>
    </g>
    <g id="line2d_61">
     <path d="M 313.970125 174.051875 
L 333.970125 174.051875 
L 353.970125 174.051875 
" style="fill: none; stroke: #000000; stroke-width: 3; stroke-linecap: square"/>
    </g>
    <g id="text_7">
     <!-- 1: 5/3 -->
     <g transform="translate(369.970125 181.051875) scale(0.2 -0.2)">
      <defs>
       <path id="DejaVuSans-3a" d="M 750 794 
L 1409 794 
L 1409 0 
L 750 0 
L 750 794 
z
M 750 3309 
L 1409 3309 
L 1409 2516 
L 750 2516 
L 750 3309 
z
" transform="scale(0.015625)"/>
       <path id="DejaVuSans-2f" d="M 1625 4666 
L 2156 4666 
L 531 -594 
L 0 -594 
L 1625 4666 
z
" transform="scale(0.015625)"/>
      </defs>
      <use xlink:href="#DejaVuSans-31"/>
      <use xlink:href="#DejaVuSans-3a" x="63.623047"/>
      <use xlink:href="#DejaVuSans-20" x="97.314453"/>
      <use xlink:href="#DejaVuSans-35" x="129.101562"/>
      <use xlink:href="#DejaVuSans-2f" x="192.724609"/>
      <use xlink:href="#DejaVuSans-33" x="226.416016"/>
     </g>
    </g>
    <g id="line2d_62">
     <path d="M 313.970125 203.408125 
L 333.970125 203.408125 
L 353.970125 203.408125 
" style="fill: none; stroke: #00bfbf; stroke-width: 3; stroke-linecap: square"/>
    </g>
    <g id="text_8">
     <!-- -1: 4/2 -->
     <g transform="translate(369.970125 210.408125) scale(0.2 -0.2)">
      <use xlink:href="#DejaVuSans-2d"/>
      <use xlink:href="#DejaVuSans-31" x="36.083984"/>
      <use xlink:href="#DejaVuSans-3a" x="99.707031"/>
      <use xlink:href="#DejaVuSans-20" x="133.398438"/>
      <use xlink:href="#DejaVuSans-34" x="165.185547"/>
      <use xlink:href="#DejaVuSans-2f" x="228.808594"/>
      <use xlink:href="#DejaVuSans-32" x="262.5"/>
     </g>
    </g>
    <g id="line2d_63">
     <path d="M 313.970125 232.764375 
L 333.970125 232.764375 
L 353.970125 232.764375 
" style="fill: none; stroke: #bf00bf; stroke-width: 3; stroke-linecap: square"/>
    </g>
    <g id="text_9">
     <!-- -4: 4/2 -->
     <g transform="translate(369.970125 239.764375) scale(0.2 -0.2)">
      <use xlink:href="#DejaVuSans-2d"/>
      <use xlink:href="#DejaVuSans-34" x="36.083984"/>
      <use xlink:href="#DejaVuSans-3a" x="99.707031"/>
      <use xlink:href="#DejaVuSans-20" x="133.398438"/>
      <use xlink:href="#DejaVuSans-34" x="165.185547"/>
      <use xlink:href="#DejaVuSans-2f" x="228.808594"/>
      <use xlink:href="#DejaVuSans-32" x="262.5"/>
     </g>
    </g>
    <g id="line2d_64">
     <path d="M 313.970125 262.120625 
L 333.970125 262.120625 
L 353.970125 262.120625 
" style="fill: none; stroke: #ff0000; stroke-width: 3; stroke-linecap: square"/>
    </g>
    <g id="text_10">
     <!-- -8: 4/2 -->
     <g transform="translate(369.970125 269.120625) scale(0.2 -0.2)">
      <defs>
       <path id="DejaVuSans-38" d="M 2034 2216 
Q 1584 2216 1326 1975 
Q 1069 1734 1069 1313 
Q 1069 891 1326 650 
Q 1584 409 2034 409 
Q 2484 409 2743 651 
Q 3003 894 3003 1313 
Q 3003 1734 2745 1975 
Q 2488 2216 2034 2216 
z
M 1403 2484 
Q 997 2584 770 2862 
Q 544 3141 544 3541 
Q 544 4100 942 4425 
Q 1341 4750 2034 4750 
Q 2731 4750 3128 4425 
Q 3525 4100 3525 3541 
Q 3525 3141 3298 2862 
Q 3072 2584 2669 2484 
Q 3125 2378 3379 2068 
Q 3634 1759 3634 1313 
Q 3634 634 3220 271 
Q 2806 -91 2034 -91 
Q 1263 -91 848 271 
Q 434 634 434 1313 
Q 434 1759 690 2068 
Q 947 2378 1403 2484 
z
M 1172 3481 
Q 1172 3119 1398 2916 
Q 1625 2713 2034 2713 
Q 2441 2713 2670 2916 
Q 2900 3119 2900 3481 
Q 2900 3844 2670 4047 
Q 2441 4250 2034 4250 
Q 1625 4250 1398 4047 
Q 1172 3844 1172 3481 
z
" transform="scale(0.015625)"/>
      </defs>
      <use xlink:href="#DejaVuSans-2d"/>
      <use xlink:href="#DejaVuSans-38" x="36.083984"/>
      <use xlink:href="#DejaVuSans-3a" x="99.707031"/>
      <use xlink:href="#DejaVuSans-20" x="133.398438"/>
      <use xlink:href="#DejaVuSans-34" x="165.185547"/>
      <use xlink:href="#DejaVuSans-2f" x="228.808594"/>
      <use xlink:href="#DejaVuSans-32" x="262.5"/>
     </g>
    </g>
   </g>
  </g>
 </g>
 <defs>
  <clipPath id="p34f66e64ff">
   <rect x="34.16" y="3" width="419.032" height="288.28"/>
  </clipPath>
 </defs>
</svg>
