<?xml version="1.0" encoding="utf-8" standalone="no"?>
<!DOCTYPE svg PUBLIC "-//W3C//DTD SVG 1.1//EN"
  "http://www.w3.org/Graphics/SVG/1.1/DTD/svg11.dtd">
<svg xmlns:xlink="http://www.w3.org/1999/xlink" width="460.8pt" height="345.6pt" viewBox="0 0 460.8 345.6" xmlns="http://www.w3.org/2000/svg" version="1.1">
 <metadata>
  <rdf:RDF xmlns:dc="http://purl.org/dc/elements/1.1/" xmlns:cc="http://creativecommons.org/ns#" xmlns:rdf="http://www.w3.org/1999/02/22-rdf-syntax-ns#">
   <cc:Work>
    <dc:type rdf:resource="http://purl.org/dc/dcmitype/StillImage"/>
    <dc:date>2024-06-07T14:17:54.410836</dc:date>
    <dc:format>image/svg+xml</dc:format>
    <dc:creator>
     <cc:Agent>
      <dc:title>Matplotlib v3.7.1, https://matplotlib.org/</dc:title>
     </cc:Agent>
    </dc:creator>
   </cc:Work>
  </rdf:RDF>
 </metadata>
 <defs>
  <style type="text/css">*{stroke-linejoin: round; stroke-linecap: butt}</style>
 </defs>
 <g id="figure_1">
  <g id="patch_1">
   <path d="M 0 345.6 
L 460.8 345.6 
L 460.8 0 
L 0 0 
z
" style="fill: #ffffff"/>
  </g>
  <g id="axes_1">
   <g id="patch_2">
    <path d="M 34.16 291.28 
L 453.192 291.28 
L 453.192 3 
L 34.16 3 
z
" style="fill: #ffffff"/>
   </g>
   <g id="matplotlib.axis_1">
    <g id="xtick_1">
     <g id="line2d_1">
      <path d="M 170.97138 291.28 
L 170.97138 3 
" clip-path="url(#pa7fb0ba514)" style="fill: none; stroke: #b0b0b0; stroke-width: 0.8; stroke-linecap: square"/>
     </g>
     <g id="line2d_2">
      <defs>
       <path id="mc26879c7aa" d="M 0 0 
L 0 3.5 
" style="stroke: #000000; stroke-width: 0.8"/>
      </defs>
      <g>
       <use xlink:href="#mc26879c7aa" x="170.97138" y="291.28" style="stroke: #000000; stroke-width: 0.8"/>
      </g>
     </g>
     <g id="text_1">
      <!-- -1 -->
      <g transform="translate(161.001067 313.476875) scale(0.2 -0.2)">
       <defs>
        <path id="DejaVuSans-2d" d="M 313 2009 
L 1997 2009 
L 1997 1497 
L 313 1497 
L 313 2009 
z
" transform="scale(0.015625)"/>
        <path id="DejaVuSans-31" d="M 794 531 
L 1825 531 
L 1825 4091 
L 703 3866 
L 703 4441 
L 1819 4666 
L 2450 4666 
L 2450 531 
L 3481 531 
L 3481 0 
L 794 0 
L 794 531 
z
" transform="scale(0.015625)"/>
       </defs>
       <use xlink:href="#DejaVuSans-2d"/>
       <use xlink:href="#DejaVuSans-31" x="36.083984"/>
      </g>
     </g>
    </g>
    <g id="xtick_2">
     <g id="line2d_3">
      <path d="M 316.38062 291.28 
L 316.38062 3 
" clip-path="url(#pa7fb0ba514)" style="fill: none; stroke: #b0b0b0; stroke-width: 0.8; stroke-linecap: square"/>
     </g>
     <g id="line2d_4">
      <g>
       <use xlink:href="#mc26879c7aa" x="316.38062" y="291.28" style="stroke: #000000; stroke-width: 0.8"/>
      </g>
     </g>
     <g id="text_2">
      <!-- 1 -->
      <g transform="translate(310.01812 313.476875) scale(0.2 -0.2)">
       <use xlink:href="#DejaVuSans-31"/>
      </g>
     </g>
    </g>
    <g id="xtick_3">
     <g id="line2d_5">
      <defs>
       <path id="mbe75e3c8b1" d="M 0 0 
L 0 2 
" style="stroke: #000000; stroke-width: 0.6"/>
      </defs>
      <g>
       <use xlink:href="#mbe75e3c8b1" x="47.448411" y="291.28" style="stroke: #000000; stroke-width: 0.6"/>
      </g>
     </g>
    </g>
    <g id="xtick_4">
     <g id="line2d_6">
      <g>
       <use xlink:href="#mbe75e3c8b1" x="60.251059" y="291.28" style="stroke: #000000; stroke-width: 0.6"/>
      </g>
     </g>
    </g>
    <g id="xtick_5">
     <g id="line2d_7">
      <g>
       <use xlink:href="#mbe75e3c8b1" x="69.334683" y="291.28" style="stroke: #000000; stroke-width: 0.6"/>
      </g>
     </g>
    </g>
    <g id="xtick_6">
     <g id="line2d_8">
      <g>
       <use xlink:href="#mbe75e3c8b1" x="76.380488" y="291.28" style="stroke: #000000; stroke-width: 0.6"/>
      </g>
     </g>
    </g>
    <g id="xtick_7">
     <g id="line2d_9">
      <g>
       <use xlink:href="#mbe75e3c8b1" x="82.137331" y="291.28" style="stroke: #000000; stroke-width: 0.6"/>
      </g>
     </g>
    </g>
    <g id="xtick_8">
     <g id="line2d_10">
      <g>
       <use xlink:href="#mbe75e3c8b1" x="87.004672" y="291.28" style="stroke: #000000; stroke-width: 0.6"/>
      </g>
     </g>
    </g>
    <g id="xtick_9">
     <g id="line2d_11">
      <g>
       <use xlink:href="#mbe75e3c8b1" x="91.220954" y="291.28" style="stroke: #000000; stroke-width: 0.6"/>
      </g>
     </g>
    </g>
    <g id="xtick_10">
     <g id="line2d_12">
      <g>
       <use xlink:href="#mbe75e3c8b1" x="94.939979" y="291.28" style="stroke: #000000; stroke-width: 0.6"/>
      </g>
     </g>
    </g>
    <g id="xtick_11">
     <g id="line2d_13">
      <g>
       <use xlink:href="#mbe75e3c8b1" x="120.153031" y="291.28" style="stroke: #000000; stroke-width: 0.6"/>
      </g>
     </g>
    </g>
    <g id="xtick_12">
     <g id="line2d_14">
      <g>
       <use xlink:href="#mbe75e3c8b1" x="132.955679" y="291.28" style="stroke: #000000; stroke-width: 0.6"/>
      </g>
     </g>
    </g>
    <g id="xtick_13">
     <g id="line2d_15">
      <g>
       <use xlink:href="#mbe75e3c8b1" x="142.039303" y="291.28" style="stroke: #000000; stroke-width: 0.6"/>
      </g>
     </g>
    </g>
    <g id="xtick_14">
     <g id="line2d_16">
      <g>
       <use xlink:href="#mbe75e3c8b1" x="149.085108" y="291.28" style="stroke: #000000; stroke-width: 0.6"/>
      </g>
     </g>
    </g>
    <g id="xtick_15">
     <g id="line2d_17">
      <g>
       <use xlink:href="#mbe75e3c8b1" x="154.841951" y="291.28" style="stroke: #000000; stroke-width: 0.6"/>
      </g>
     </g>
    </g>
    <g id="xtick_16">
     <g id="line2d_18">
      <g>
       <use xlink:href="#mbe75e3c8b1" x="159.709292" y="291.28" style="stroke: #000000; stroke-width: 0.6"/>
      </g>
     </g>
    </g>
    <g id="xtick_17">
     <g id="line2d_19">
      <g>
       <use xlink:href="#mbe75e3c8b1" x="163.925574" y="291.28" style="stroke: #000000; stroke-width: 0.6"/>
      </g>
     </g>
    </g>
    <g id="xtick_18">
     <g id="line2d_20">
      <g>
       <use xlink:href="#mbe75e3c8b1" x="167.644599" y="291.28" style="stroke: #000000; stroke-width: 0.6"/>
      </g>
     </g>
    </g>
    <g id="xtick_19">
     <g id="line2d_21">
      <g>
       <use xlink:href="#mbe75e3c8b1" x="192.857651" y="291.28" style="stroke: #000000; stroke-width: 0.6"/>
      </g>
     </g>
    </g>
    <g id="xtick_20">
     <g id="line2d_22">
      <g>
       <use xlink:href="#mbe75e3c8b1" x="205.660299" y="291.28" style="stroke: #000000; stroke-width: 0.6"/>
      </g>
     </g>
    </g>
    <g id="xtick_21">
     <g id="line2d_23">
      <g>
       <use xlink:href="#mbe75e3c8b1" x="214.743923" y="291.28" style="stroke: #000000; stroke-width: 0.6"/>
      </g>
     </g>
    </g>
    <g id="xtick_22">
     <g id="line2d_24">
      <g>
       <use xlink:href="#mbe75e3c8b1" x="221.789729" y="291.28" style="stroke: #000000; stroke-width: 0.6"/>
      </g>
     </g>
    </g>
    <g id="xtick_23">
     <g id="line2d_25">
      <g>
       <use xlink:href="#mbe75e3c8b1" x="227.546571" y="291.28" style="stroke: #000000; stroke-width: 0.6"/>
      </g>
     </g>
    </g>
    <g id="xtick_24">
     <g id="line2d_26">
      <g>
       <use xlink:href="#mbe75e3c8b1" x="232.413912" y="291.28" style="stroke: #000000; stroke-width: 0.6"/>
      </g>
     </g>
    </g>
    <g id="xtick_25">
     <g id="line2d_27">
      <g>
       <use xlink:href="#mbe75e3c8b1" x="236.630194" y="291.28" style="stroke: #000000; stroke-width: 0.6"/>
      </g>
     </g>
    </g>
    <g id="xtick_26">
     <g id="line2d_28">
      <g>
       <use xlink:href="#mbe75e3c8b1" x="240.349219" y="291.28" style="stroke: #000000; stroke-width: 0.6"/>
      </g>
     </g>
    </g>
    <g id="xtick_27">
     <g id="line2d_29">
      <g>
       <use xlink:href="#mbe75e3c8b1" x="265.562271" y="291.28" style="stroke: #000000; stroke-width: 0.6"/>
      </g>
     </g>
    </g>
    <g id="xtick_28">
     <g id="line2d_30">
      <g>
       <use xlink:href="#mbe75e3c8b1" x="278.36492" y="291.28" style="stroke: #000000; stroke-width: 0.6"/>
      </g>
     </g>
    </g>
    <g id="xtick_29">
     <g id="line2d_31">
      <g>
       <use xlink:href="#mbe75e3c8b1" x="287.448543" y="291.28" style="stroke: #000000; stroke-width: 0.6"/>
      </g>
     </g>
    </g>
    <g id="xtick_30">
     <g id="line2d_32">
      <g>
       <use xlink:href="#mbe75e3c8b1" x="294.494349" y="291.28" style="stroke: #000000; stroke-width: 0.6"/>
      </g>
     </g>
    </g>
    <g id="xtick_31">
     <g id="line2d_33">
      <g>
       <use xlink:href="#mbe75e3c8b1" x="300.251191" y="291.28" style="stroke: #000000; stroke-width: 0.6"/>
      </g>
     </g>
    </g>
    <g id="xtick_32">
     <g id="line2d_34">
      <g>
       <use xlink:href="#mbe75e3c8b1" x="305.118532" y="291.28" style="stroke: #000000; stroke-width: 0.6"/>
      </g>
     </g>
    </g>
    <g id="xtick_33">
     <g id="line2d_35">
      <g>
       <use xlink:href="#mbe75e3c8b1" x="309.334814" y="291.28" style="stroke: #000000; stroke-width: 0.6"/>
      </g>
     </g>
    </g>
    <g id="xtick_34">
     <g id="line2d_36">
      <g>
       <use xlink:href="#mbe75e3c8b1" x="313.053839" y="291.28" style="stroke: #000000; stroke-width: 0.6"/>
      </g>
     </g>
    </g>
    <g id="xtick_35">
     <g id="line2d_37">
      <g>
       <use xlink:href="#mbe75e3c8b1" x="338.266892" y="291.28" style="stroke: #000000; stroke-width: 0.6"/>
      </g>
     </g>
    </g>
    <g id="xtick_36">
     <g id="line2d_38">
      <g>
       <use xlink:href="#mbe75e3c8b1" x="351.06954" y="291.28" style="stroke: #000000; stroke-width: 0.6"/>
      </g>
     </g>
    </g>
    <g id="xtick_37">
     <g id="line2d_39">
      <g>
       <use xlink:href="#mbe75e3c8b1" x="360.153163" y="291.28" style="stroke: #000000; stroke-width: 0.6"/>
      </g>
     </g>
    </g>
    <g id="xtick_38">
     <g id="line2d_40">
      <g>
       <use xlink:href="#mbe75e3c8b1" x="367.198969" y="291.28" style="stroke: #000000; stroke-width: 0.6"/>
      </g>
     </g>
    </g>
    <g id="xtick_39">
     <g id="line2d_41">
      <g>
       <use xlink:href="#mbe75e3c8b1" x="372.955811" y="291.28" style="stroke: #000000; stroke-width: 0.6"/>
      </g>
     </g>
    </g>
    <g id="xtick_40">
     <g id="line2d_42">
      <g>
       <use xlink:href="#mbe75e3c8b1" x="377.823152" y="291.28" style="stroke: #000000; stroke-width: 0.6"/>
      </g>
     </g>
    </g>
    <g id="xtick_41">
     <g id="line2d_43">
      <g>
       <use xlink:href="#mbe75e3c8b1" x="382.039435" y="291.28" style="stroke: #000000; stroke-width: 0.6"/>
      </g>
     </g>
    </g>
    <g id="xtick_42">
     <g id="line2d_44">
      <g>
       <use xlink:href="#mbe75e3c8b1" x="385.758459" y="291.28" style="stroke: #000000; stroke-width: 0.6"/>
      </g>
     </g>
    </g>
    <g id="xtick_43">
     <g id="line2d_45">
      <g>
       <use xlink:href="#mbe75e3c8b1" x="410.971512" y="291.28" style="stroke: #000000; stroke-width: 0.6"/>
      </g>
     </g>
    </g>
    <g id="xtick_44">
     <g id="line2d_46">
      <g>
       <use xlink:href="#mbe75e3c8b1" x="423.77416" y="291.28" style="stroke: #000000; stroke-width: 0.6"/>
      </g>
     </g>
    </g>
    <g id="xtick_45">
     <g id="line2d_47">
      <g>
       <use xlink:href="#mbe75e3c8b1" x="432.857783" y="291.28" style="stroke: #000000; stroke-width: 0.6"/>
      </g>
     </g>
    </g>
    <g id="xtick_46">
     <g id="line2d_48">
      <g>
       <use xlink:href="#mbe75e3c8b1" x="439.903589" y="291.28" style="stroke: #000000; stroke-width: 0.6"/>
      </g>
     </g>
    </g>
    <g id="xtick_47">
     <g id="line2d_49">
      <g>
       <use xlink:href="#mbe75e3c8b1" x="445.660431" y="291.28" style="stroke: #000000; stroke-width: 0.6"/>
      </g>
     </g>
    </g>
    <g id="xtick_48">
     <g id="line2d_50">
      <g>
       <use xlink:href="#mbe75e3c8b1" x="450.527772" y="291.28" style="stroke: #000000; stroke-width: 0.6"/>
      </g>
     </g>
    </g>
    <g id="text_3">
     <!-- log10 of FEvals ratio -->
     <g transform="translate(141.371312 336.833125) scale(0.2 -0.2)">
      <defs>
       <path id="DejaVuSans-6c" d="M 603 4863 
L 1178 4863 
L 1178 0 
L 603 0 
L 603 4863 
z
" transform="scale(0.015625)"/>
       <path id="DejaVuSans-6f" d="M 1959 3097 
Q 1497 3097 1228 2736 
Q 959 2375 959 1747 
Q 959 1119 1226 758 
Q 1494 397 1959 397 
Q 2419 397 2687 759 
Q 2956 1122 2956 1747 
Q 2956 2369 2687 2733 
Q 2419 3097 1959 3097 
z
M 1959 3584 
Q 2709 3584 3137 3096 
Q 3566 2609 3566 1747 
Q 3566 888 3137 398 
Q 2709 -91 1959 -91 
Q 1206 -91 779 398 
Q 353 888 353 1747 
Q 353 2609 779 3096 
Q 1206 3584 1959 3584 
z
" transform="scale(0.015625)"/>
       <path id="DejaVuSans-67" d="M 2906 1791 
Q 2906 2416 2648 2759 
Q 2391 3103 1925 3103 
Q 1463 3103 1205 2759 
Q 947 2416 947 1791 
Q 947 1169 1205 825 
Q 1463 481 1925 481 
Q 2391 481 2648 825 
Q 2906 1169 2906 1791 
z
M 3481 434 
Q 3481 -459 3084 -895 
Q 2688 -1331 1869 -1331 
Q 1566 -1331 1297 -1286 
Q 1028 -1241 775 -1147 
L 775 -588 
Q 1028 -725 1275 -790 
Q 1522 -856 1778 -856 
Q 2344 -856 2625 -561 
Q 2906 -266 2906 331 
L 2906 616 
Q 2728 306 2450 153 
Q 2172 0 1784 0 
Q 1141 0 747 490 
Q 353 981 353 1791 
Q 353 2603 747 3093 
Q 1141 3584 1784 3584 
Q 2172 3584 2450 3431 
Q 2728 3278 2906 2969 
L 2906 3500 
L 3481 3500 
L 3481 434 
z
" transform="scale(0.015625)"/>
       <path id="DejaVuSans-30" d="M 2034 4250 
Q 1547 4250 1301 3770 
Q 1056 3291 1056 2328 
Q 1056 1369 1301 889 
Q 1547 409 2034 409 
Q 2525 409 2770 889 
Q 3016 1369 3016 2328 
Q 3016 3291 2770 3770 
Q 2525 4250 2034 4250 
z
M 2034 4750 
Q 2819 4750 3233 4129 
Q 3647 3509 3647 2328 
Q 3647 1150 3233 529 
Q 2819 -91 2034 -91 
Q 1250 -91 836 529 
Q 422 1150 422 2328 
Q 422 3509 836 4129 
Q 1250 4750 2034 4750 
z
" transform="scale(0.015625)"/>
       <path id="DejaVuSans-20" transform="scale(0.015625)"/>
       <path id="DejaVuSans-66" d="M 2375 4863 
L 2375 4384 
L 1825 4384 
Q 1516 4384 1395 4259 
Q 1275 4134 1275 3809 
L 1275 3500 
L 2222 3500 
L 2222 3053 
L 1275 3053 
L 1275 0 
L 697 0 
L 697 3053 
L 147 3053 
L 147 3500 
L 697 3500 
L 697 3744 
Q 697 4328 969 4595 
Q 1241 4863 1831 4863 
L 2375 4863 
z
" transform="scale(0.015625)"/>
       <path id="DejaVuSans-46" d="M 628 4666 
L 3309 4666 
L 3309 4134 
L 1259 4134 
L 1259 2759 
L 3109 2759 
L 3109 2228 
L 1259 2228 
L 1259 0 
L 628 0 
L 628 4666 
z
" transform="scale(0.015625)"/>
       <path id="DejaVuSans-45" d="M 628 4666 
L 3578 4666 
L 3578 4134 
L 1259 4134 
L 1259 2753 
L 3481 2753 
L 3481 2222 
L 1259 2222 
L 1259 531 
L 3634 531 
L 3634 0 
L 628 0 
L 628 4666 
z
" transform="scale(0.015625)"/>
       <path id="DejaVuSans-76" d="M 191 3500 
L 800 3500 
L 1894 563 
L 2988 3500 
L 3597 3500 
L 2284 0 
L 1503 0 
L 191 3500 
z
" transform="scale(0.015625)"/>
       <path id="DejaVuSans-61" d="M 2194 1759 
Q 1497 1759 1228 1600 
Q 959 1441 959 1056 
Q 959 750 1161 570 
Q 1363 391 1709 391 
Q 2188 391 2477 730 
Q 2766 1069 2766 1631 
L 2766 1759 
L 2194 1759 
z
M 3341 1997 
L 3341 0 
L 2766 0 
L 2766 531 
Q 2569 213 2275 61 
Q 1981 -91 1556 -91 
Q 1019 -91 701 211 
Q 384 513 384 1019 
Q 384 1609 779 1909 
Q 1175 2209 1959 2209 
L 2766 2209 
L 2766 2266 
Q 2766 2663 2505 2880 
Q 2244 3097 1772 3097 
Q 1472 3097 1187 3025 
Q 903 2953 641 2809 
L 641 3341 
Q 956 3463 1253 3523 
Q 1550 3584 1831 3584 
Q 2591 3584 2966 3190 
Q 3341 2797 3341 1997 
z
" transform="scale(0.015625)"/>
       <path id="DejaVuSans-73" d="M 2834 3397 
L 2834 2853 
Q 2591 2978 2328 3040 
Q 2066 3103 1784 3103 
Q 1356 3103 1142 2972 
Q 928 2841 928 2578 
Q 928 2378 1081 2264 
Q 1234 2150 1697 2047 
L 1894 2003 
Q 2506 1872 2764 1633 
Q 3022 1394 3022 966 
Q 3022 478 2636 193 
Q 2250 -91 1575 -91 
Q 1294 -91 989 -36 
Q 684 19 347 128 
L 347 722 
Q 666 556 975 473 
Q 1284 391 1588 391 
Q 1994 391 2212 530 
Q 2431 669 2431 922 
Q 2431 1156 2273 1281 
Q 2116 1406 1581 1522 
L 1381 1569 
Q 847 1681 609 1914 
Q 372 2147 372 2553 
Q 372 3047 722 3315 
Q 1072 3584 1716 3584 
Q 2034 3584 2315 3537 
Q 2597 3491 2834 3397 
z
" transform="scale(0.015625)"/>
       <path id="DejaVuSans-72" d="M 2631 2963 
Q 2534 3019 2420 3045 
Q 2306 3072 2169 3072 
Q 1681 3072 1420 2755 
Q 1159 2438 1159 1844 
L 1159 0 
L 581 0 
L 581 3500 
L 1159 3500 
L 1159 2956 
Q 1341 3275 1631 3429 
Q 1922 3584 2338 3584 
Q 2397 3584 2469 3576 
Q 2541 3569 2628 3553 
L 2631 2963 
z
" transform="scale(0.015625)"/>
       <path id="DejaVuSans-74" d="M 1172 4494 
L 1172 3500 
L 2356 3500 
L 2356 3053 
L 1172 3053 
L 1172 1153 
Q 1172 725 1289 603 
Q 1406 481 1766 481 
L 2356 481 
L 2356 0 
L 1766 0 
Q 1100 0 847 248 
Q 594 497 594 1153 
L 594 3053 
L 172 3053 
L 172 3500 
L 594 3500 
L 594 4494 
L 1172 4494 
z
" transform="scale(0.015625)"/>
       <path id="DejaVuSans-69" d="M 603 3500 
L 1178 3500 
L 1178 0 
L 603 0 
L 603 3500 
z
M 603 4863 
L 1178 4863 
L 1178 4134 
L 603 4134 
L 603 4863 
z
" transform="scale(0.015625)"/>
      </defs>
      <use xlink:href="#DejaVuSans-6c"/>
      <use xlink:href="#DejaVuSans-6f" x="27.783203"/>
      <use xlink:href="#DejaVuSans-67" x="88.964844"/>
      <use xlink:href="#DejaVuSans-31" x="152.441406"/>
      <use xlink:href="#DejaVuSans-30" x="216.064453"/>
      <use xlink:href="#DejaVuSans-20" x="279.6875"/>
      <use xlink:href="#DejaVuSans-6f" x="311.474609"/>
      <use xlink:href="#DejaVuSans-66" x="372.65625"/>
      <use xlink:href="#DejaVuSans-20" x="407.861328"/>
      <use xlink:href="#DejaVuSans-46" x="439.648438"/>
      <use xlink:href="#DejaVuSans-45" x="497.167969"/>
      <use xlink:href="#DejaVuSans-76" x="560.351562"/>
      <use xlink:href="#DejaVuSans-61" x="619.53125"/>
      <use xlink:href="#DejaVuSans-6c" x="680.810547"/>
      <use xlink:href="#DejaVuSans-73" x="708.59375"/>
      <use xlink:href="#DejaVuSans-20" x="760.693359"/>
      <use xlink:href="#DejaVuSans-72" x="792.480469"/>
      <use xlink:href="#DejaVuSans-61" x="833.59375"/>
      <use xlink:href="#DejaVuSans-74" x="894.873047"/>
      <use xlink:href="#DejaVuSans-69" x="934.082031"/>
      <use xlink:href="#DejaVuSans-6f" x="961.865234"/>
     </g>
    </g>
   </g>
   <g id="matplotlib.axis_2">
    <g id="ytick_1">
     <g id="line2d_51">
      <path d="M 34.16 288.453725 
L 453.192 288.453725 
" clip-path="url(#pa7fb0ba514)" style="fill: none; stroke: #b0b0b0; stroke-width: 0.8; stroke-linecap: square"/>
     </g>
     <g id="line2d_52">
      <defs>
       <path id="m03c0e8b789" d="M 0 0 
L -3.5 0 
" style="stroke: #000000; stroke-width: 0.8"/>
      </defs>
      <g>
       <use xlink:href="#m03c0e8b789" x="34.16" y="288.453725" style="stroke: #000000; stroke-width: 0.8"/>
      </g>
     </g>
    </g>
    <g id="ytick_2">
     <g id="line2d_53">
      <path d="M 34.16 217.796863 
L 453.192 217.796863 
" clip-path="url(#pa7fb0ba514)" style="fill: none; stroke: #b0b0b0; stroke-width: 0.8; stroke-linecap: square"/>
     </g>
     <g id="line2d_54">
      <g>
       <use xlink:href="#m03c0e8b789" x="34.16" y="217.796863" style="stroke: #000000; stroke-width: 0.8"/>
      </g>
     </g>
    </g>
    <g id="ytick_3">
     <g id="line2d_55">
      <path d="M 34.16 147.14 
L 453.192 147.14 
" clip-path="url(#pa7fb0ba514)" style="fill: none; stroke: #b0b0b0; stroke-width: 0.8; stroke-linecap: square"/>
     </g>
     <g id="line2d_56">
      <g>
       <use xlink:href="#m03c0e8b789" x="34.16" y="147.14" style="stroke: #000000; stroke-width: 0.8"/>
      </g>
     </g>
    </g>
    <g id="ytick_4">
     <g id="line2d_57">
      <path d="M 34.16 76.483137 
L 453.192 76.483137 
" clip-path="url(#pa7fb0ba514)" style="fill: none; stroke: #b0b0b0; stroke-width: 0.8; stroke-linecap: square"/>
     </g>
     <g id="line2d_58">
      <g>
       <use xlink:href="#m03c0e8b789" x="34.16" y="76.483137" style="stroke: #000000; stroke-width: 0.8"/>
      </g>
     </g>
    </g>
    <g id="ytick_5">
     <g id="line2d_59">
      <path d="M 34.16 5.826275 
L 453.192 5.826275 
" clip-path="url(#pa7fb0ba514)" style="fill: none; stroke: #b0b0b0; stroke-width: 0.8; stroke-linecap: square"/>
     </g>
     <g id="line2d_60">
      <g>
       <use xlink:href="#m03c0e8b789" x="34.16" y="5.826275" style="stroke: #000000; stroke-width: 0.8"/>
      </g>
     </g>
    </g>
    <g id="text_4">
     <!-- proportion of trials -->
     <g transform="translate(19.000625 240.14625) rotate(-90) scale(0.2 -0.2)">
      <defs>
       <path id="DejaVuSans-70" d="M 1159 525 
L 1159 -1331 
L 581 -1331 
L 581 3500 
L 1159 3500 
L 1159 2969 
Q 1341 3281 1617 3432 
Q 1894 3584 2278 3584 
Q 2916 3584 3314 3078 
Q 3713 2572 3713 1747 
Q 3713 922 3314 415 
Q 2916 -91 2278 -91 
Q 1894 -91 1617 61 
Q 1341 213 1159 525 
z
M 3116 1747 
Q 3116 2381 2855 2742 
Q 2594 3103 2138 3103 
Q 1681 3103 1420 2742 
Q 1159 2381 1159 1747 
Q 1159 1113 1420 752 
Q 1681 391 2138 391 
Q 2594 391 2855 752 
Q 3116 1113 3116 1747 
z
" transform="scale(0.015625)"/>
       <path id="DejaVuSans-6e" d="M 3513 2113 
L 3513 0 
L 2938 0 
L 2938 2094 
Q 2938 2591 2744 2837 
Q 2550 3084 2163 3084 
Q 1697 3084 1428 2787 
Q 1159 2491 1159 1978 
L 1159 0 
L 581 0 
L 581 3500 
L 1159 3500 
L 1159 2956 
Q 1366 3272 1645 3428 
Q 1925 3584 2291 3584 
Q 2894 3584 3203 3211 
Q 3513 2838 3513 2113 
z
" transform="scale(0.015625)"/>
      </defs>
      <use xlink:href="#DejaVuSans-70"/>
      <use xlink:href="#DejaVuSans-72" x="63.476562"/>
      <use xlink:href="#DejaVuSans-6f" x="102.339844"/>
      <use xlink:href="#DejaVuSans-70" x="163.521484"/>
      <use xlink:href="#DejaVuSans-6f" x="226.998047"/>
      <use xlink:href="#DejaVuSans-72" x="288.179688"/>
      <use xlink:href="#DejaVuSans-74" x="329.292969"/>
      <use xlink:href="#DejaVuSans-69" x="368.501953"/>
      <use xlink:href="#DejaVuSans-6f" x="396.285156"/>
      <use xlink:href="#DejaVuSans-6e" x="457.466797"/>
      <use xlink:href="#DejaVuSans-20" x="520.845703"/>
      <use xlink:href="#DejaVuSans-6f" x="552.632812"/>
      <use xlink:href="#DejaVuSans-66" x="613.814453"/>
      <use xlink:href="#DejaVuSans-20" x="649.019531"/>
      <use xlink:href="#DejaVuSans-74" x="680.806641"/>
      <use xlink:href="#DejaVuSans-72" x="720.015625"/>
      <use xlink:href="#DejaVuSans-69" x="761.128906"/>
      <use xlink:href="#DejaVuSans-61" x="788.912109"/>
      <use xlink:href="#DejaVuSans-6c" x="850.191406"/>
      <use xlink:href="#DejaVuSans-73" x="877.974609"/>
     </g>
    </g>
   </g>
   <g id="line2d_61">
    <path d="M 34.16 288.453725 
L 50.495764 288.453725 
L 50.495764 288.035018 
L 63.752739 288.035018 
L 63.752739 287.616311 
L 67.331117 287.616311 
L 67.331117 287.197603 
L 69.055254 287.197603 
L 69.055254 286.778896 
L 69.509582 286.778896 
L 69.509582 286.360189 
L 79.482706 286.360189 
L 79.482706 285.941481 
L 85.276073 285.941481 
L 85.276073 285.522774 
L 92.64871 285.522774 
L 92.64871 285.104067 
L 131.484592 285.104067 
L 131.484592 284.685359 
L 133.902917 284.685359 
L 133.902917 284.266652 
L 140.938483 284.266652 
L 140.938483 283.847945 
L 141.635536 283.847945 
L 141.635536 283.429237 
L 143.264095 283.429237 
L 143.264095 283.01053 
L 144.644263 283.01053 
L 144.644263 282.591823 
L 147.362032 282.591823 
L 147.362032 282.173115 
L 147.492293 282.173115 
L 147.492293 281.754408 
L 147.796145 281.754408 
L 147.796145 281.335701 
L 151.689313 281.335701 
L 151.689313 280.916993 
L 154.195459 280.916993 
L 154.195459 280.498286 
L 154.892512 280.498286 
L 154.892512 280.079579 
L 157.733205 280.079579 
L 157.773836 279.242164 
L 158.470889 279.242164 
L 158.470889 278.823457 
L 158.69942 278.823457 
L 158.69942 278.404749 
L 159.497974 278.404749 
L 159.497974 277.986042 
L 159.952301 277.986042 
L 159.952301 277.567335 
L 160.195027 277.567335 
L 160.195027 277.148627 
L 160.619008 277.148627 
L 160.649354 276.311213 
L 160.749269 276.311213 
L 160.749269 275.892505 
L 164.197385 275.892505 
L 164.267886 275.055091 
L 164.327646 275.055091 
L 164.327646 274.636383 
L 164.705249 274.636383 
L 164.705249 274.217676 
L 165.921523 274.217676 
L 165.921523 273.798969 
L 166.051784 273.798969 
L 166.051784 273.380261 
L 166.209115 273.380261 
L 166.209115 272.961554 
L 166.37585 272.961554 
L 166.37585 272.542847 
L 166.506111 272.542847 
L 166.506111 272.124139 
L 168.598417 272.124139 
L 168.598417 271.705432 
L 168.800052 271.705432 
L 168.800052 271.286725 
L 169.017651 271.286725 
L 169.017651 270.868017 
L 169.925426 270.868017 
L 169.925426 270.44931 
L 170.102282 270.44931 
L 170.102282 270.030603 
L 170.622479 270.030603 
L 170.622479 269.611895 
L 170.8713 269.611895 
L 170.8713 269.193188 
L 172.171273 269.193188 
L 172.171273 268.774481 
L 172.340179 268.774481 
L 172.340179 267.937066 
L 172.746925 267.937066 
L 172.746925 267.518359 
L 172.910818 267.518359 
L 172.910818 267.099651 
L 174.242522 267.099651 
L 174.242522 266.680944 
L 174.642308 266.680944 
L 174.642308 266.262237 
L 175.608524 266.262237 
L 175.718793 264.587407 
L 176.146174 264.587407 
L 176.197534 263.749993 
L 176.348975 263.749993 
L 176.415846 262.912578 
L 176.479236 262.912578 
L 176.578728 262.075163 
L 176.937586 262.075163 
L 176.937586 261.656456 
L 177.11239 261.656456 
L 177.11239 261.237749 
L 177.224461 261.237749 
L 177.224461 260.819041 
L 177.524862 260.819041 
L 177.524862 260.400334 
L 178.414363 260.400334 
L 178.414363 259.981627 
L 178.649977 259.981627 
L 178.649977 259.562919 
L 178.95471 259.562919 
L 178.95471 259.144212 
L 179.295709 259.144212 
L 179.295709 258.725505 
L 179.920926 258.725505 
L 179.920926 258.306797 
L 180.090702 258.306797 
L 180.118856 257.050675 
L 180.764589 257.050675 
L 180.764589 256.213261 
L 181.062939 256.213261 
L 181.141236 254.957139 
L 181.785585 254.957139 
L 181.785585 254.538431 
L 182.142342 254.538431 
L 182.142342 254.119724 
L 182.272603 254.119724 
L 182.272603 253.701017 
L 182.827377 253.701017 
L 182.827377 253.282309 
L 183.091429 253.282309 
L 183.091429 252.863602 
L 183.281704 252.863602 
L 183.281704 252.444895 
L 183.788482 252.444895 
L 183.788482 252.026187 
L 184.434161 252.026187 
L 184.434161 251.60748 
L 184.605003 251.60748 
L 184.605003 251.188773 
L 185.034403 251.188773 
L 185.034403 250.770065 
L 185.460169 250.770065 
L 185.460169 250.351358 
L 186.134593 250.351358 
L 186.204089 249.095236 
L 186.838772 249.095236 
L 186.838772 248.676529 
L 187.100809 248.676529 
L 187.100809 247.839114 
L 188.469608 247.839114 
L 188.49817 247.001699 
L 188.831391 247.001699 
L 188.841616 246.164285 
L 189.487348 246.164285 
L 189.514978 245.32687 
L 189.645239 245.32687 
L 189.645239 244.908163 
L 190.097257 244.908163 
L 190.194561 244.070748 
L 190.586559 244.070748 
L 190.586559 243.652041 
L 190.786403 243.652041 
L 190.786403 243.233333 
L 191.078295 243.233333 
L 191.078295 242.814626 
L 191.619249 242.814626 
L 191.619249 242.395919 
L 191.84083 242.395919 
L 191.84083 241.977211 
L 192.044511 241.977211 
L 192.044511 241.558504 
L 192.205472 241.558504 
L 192.205472 241.139797 
L 192.595615 241.139797 
L 192.657808 240.302382 
L 192.750798 240.302382 
L 192.857651 239.04626 
L 193.238846 239.04626 
L 193.254829 238.208845 
L 193.524874 238.208845 
L 193.524874 237.790138 
L 193.772939 237.790138 
L 193.860596 236.952723 
L 193.884578 236.952723 
L 193.884578 236.534016 
L 194.126687 236.534016 
L 194.20148 235.277894 
L 194.326531 235.277894 
L 194.433925 234.021772 
L 194.542062 234.021772 
L 194.542062 233.603065 
L 194.755446 233.603065 
L 194.822046 232.76565 
L 195.497076 232.76565 
L 195.508278 231.928235 
L 195.951404 231.928235 
L 195.951404 231.509528 
L 196.141149 231.509528 
L 196.248285 230.672113 
L 196.290926 230.672113 
L 196.39871 229.415991 
L 196.532235 229.415991 
L 196.532235 228.997284 
L 196.845403 228.997284 
L 196.956481 227.741162 
L 197.107364 227.741162 
L 197.107364 227.322455 
L 197.681168 227.322455 
L 197.681168 226.903747 
L 198.21036 226.903747 
L 198.21036 226.48504 
L 198.916651 226.48504 
L 198.916651 226.066333 
L 199.048196 226.066333 
L 199.048196 225.647625 
L 199.903457 225.647625 
L 199.903457 225.228918 
L 200.10267 225.228918 
L 200.200871 224.391503 
L 200.281608 224.391503 
L 200.385531 223.135381 
L 200.400715 223.135381 
L 200.400715 222.716674 
L 200.527356 222.716674 
L 200.527356 222.297967 
L 201.750487 222.297967 
L 201.750487 221.460552 
L 202.36511 221.460552 
L 202.36511 221.041845 
L 202.849447 221.041845 
L 202.849447 220.623137 
L 203.049291 220.623137 
L 203.049291 220.20443 
L 203.473892 220.20443 
L 203.473892 219.785723 
L 203.891209 219.785723 
L 203.891209 219.367015 
L 204.009913 219.367015 
L 204.009913 218.948308 
L 204.310912 218.948308 
L 204.310912 218.529601 
L 204.6595 218.529601 
L 204.6595 218.110893 
L 204.876224 218.110893 
L 204.956644 217.273479 
L 205.013685 217.273479 
L 205.013685 216.854771 
L 205.462448 216.854771 
L 205.513778 216.017357 
L 205.606827 216.017357 
L 205.606827 215.598649 
L 205.870102 215.598649 
L 205.962457 214.342527 
L 206.420832 214.342527 
L 206.459715 213.505113 
L 206.730748 213.505113 
L 206.730748 213.086405 
L 207.246677 213.086405 
L 207.246677 212.667698 
L 207.431336 212.667698 
L 207.44652 211.411576 
L 207.643251 211.411576 
L 207.690901 210.155454 
L 207.824671 210.155454 
L 207.881347 209.318039 
L 208.199628 209.318039 
L 208.199628 208.480625 
L 208.322315 208.480625 
L 208.322315 208.061917 
L 208.454602 208.061917 
L 208.52708 207.224503 
L 208.98708 207.224503 
L 209.040825 206.387088 
L 209.108291 206.387088 
L 209.146955 205.130966 
L 209.410915 205.130966 
L 209.504719 204.293551 
L 209.655686 204.293551 
L 209.766755 203.037429 
L 210.178739 203.037429 
L 210.256116 201.781307 
L 210.45596 201.781307 
L 210.473247 200.943893 
L 210.633067 200.943893 
L 210.633067 200.525185 
L 210.764963 200.525185 
L 210.764963 200.106478 
L 211.008584 200.106478 
L 211.110584 198.850356 
L 211.21929 198.850356 
L 211.270621 197.594234 
L 211.664549 197.594234 
L 211.717895 196.756819 
L 212.420355 196.756819 
L 212.527208 195.500697 
L 212.61445 195.500697 
L 212.61445 195.08199 
L 212.993416 195.08199 
L 212.993416 194.663282 
L 213.168415 194.663282 
L 213.234063 193.40716 
L 213.447743 193.40716 
L 213.50552 192.151038 
L 213.782167 192.151038 
L 213.81712 190.476209 
L 214.079157 190.476209 
L 214.079157 190.057502 
L 214.273812 190.057502 
L 214.273812 189.638794 
L 214.590272 189.638794 
L 214.590272 189.220087 
L 214.870477 189.220087 
L 214.9582 188.382672 
L 215.221139 188.382672 
L 215.221139 187.963965 
L 215.412528 187.963965 
L 215.515971 185.870428 
L 215.807162 185.870428 
L 215.807162 185.451721 
L 215.970299 185.451721 
L 215.976951 184.614306 
L 216.094138 184.614306 
L 216.154096 183.776892 
L 216.51496 183.776892 
L 216.51496 183.358184 
L 216.773377 183.358184 
L 216.773377 182.939477 
L 216.922388 182.939477 
L 216.922388 182.52077 
L 217.36271 182.52077 
L 217.36271 182.102062 
L 217.573446 182.102062 
L 217.675335 181.264648 
L 217.869715 181.264648 
L 217.879916 180.427233 
L 218.318743 180.427233 
L 218.318743 180.008526 
L 218.518587 180.008526 
L 218.601392 179.171111 
L 218.902674 179.171111 
L 218.902674 178.752404 
L 219.019353 178.752404 
L 219.090532 176.658867 
L 219.541174 176.658867 
L 219.541174 176.24016 
L 220.4459 176.24016 
L 220.551326 174.984038 
L 220.606192 174.984038 
L 220.606192 174.56533 
L 220.900227 174.56533 
L 220.997004 173.727916 
L 221.192415 173.727916 
L 221.25904 172.471794 
L 221.319617 172.471794 
L 221.319617 172.053086 
L 221.889178 172.053086 
L 221.927311 171.215672 
L 222.089022 171.215672 
L 222.089022 170.796964 
L 222.266945 170.796964 
L 222.266945 170.378257 
L 222.602869 170.378257 
L 222.624364 169.540842 
L 222.912521 169.540842 
L 222.912521 169.122135 
L 223.156834 169.122135 
L 223.156834 168.703428 
L 223.420868 168.703428 
L 223.420868 168.28472 
L 223.560766 168.28472 
L 223.560766 167.866013 
L 223.719226 167.866013 
L 223.719226 167.447306 
L 223.909666 167.447306 
L 223.909666 167.028598 
L 224.053417 167.028598 
L 224.053417 166.609891 
L 224.329057 166.609891 
L 224.345637 165.772476 
L 224.478605 165.772476 
L 224.577587 164.935062 
L 224.685442 164.935062 
L 224.685442 164.516354 
L 225.04269 164.516354 
L 225.116509 163.67894 
L 225.276384 163.67894 
L 225.385653 162.841525 
L 225.508753 162.841525 
L 225.508753 162.422818 
L 225.647198 162.422818 
L 225.647198 162.00411 
L 225.940705 162.00411 
L 226.006011 159.910574 
L 226.082557 159.910574 
L 226.082557 159.491866 
L 226.202742 159.491866 
L 226.202742 158.654452 
L 226.399558 158.654452 
L 226.399558 158.235744 
L 226.657069 158.235744 
L 226.766896 157.39833 
L 226.985782 157.39833 
L 226.985782 156.979622 
L 227.122736 156.979622 
L 227.122736 156.560915 
L 227.546571 156.560915 
L 227.546571 156.142208 
L 227.765085 156.142208 
L 227.765085 155.7235 
L 228.100536 155.7235 
L 228.148022 154.886086 
L 228.350861 154.886086 
L 228.350861 154.467378 
L 228.481121 154.467378 
L 228.481121 154.048671 
L 228.656637 154.048671 
L 228.656637 153.629964 
L 228.956413 153.629964 
L 228.956413 153.211256 
L 229.07444 153.211256 
L 229.087131 152.373842 
L 229.214235 152.373842 
L 229.214235 151.955134 
L 229.404472 151.955134 
L 229.514299 150.699012 
L 229.666509 150.699012 
L 229.666509 150.280305 
L 229.922628 150.280305 
L 229.922628 149.861598 
L 230.112467 149.861598 
L 230.166038 149.024183 
L 230.460183 149.024183 
L 230.460183 148.605476 
L 230.769186 148.605476 
L 230.769186 148.186768 
L 230.899447 148.186768 
L 231.010338 146.930646 
L 231.015904 146.930646 
L 231.026259 146.093232 
L 231.179019 146.093232 
L 231.265596 145.255817 
L 231.564303 145.255817 
L 231.623392 143.580988 
L 231.736791 143.580988 
L 231.736791 143.16228 
L 232.162315 143.16228 
L 232.162315 142.743573 
L 232.391684 142.743573 
L 232.445662 141.906158 
L 232.609425 141.906158 
L 232.609425 141.487451 
L 232.980299 141.487451 
L 232.980299 141.068744 
L 233.16339 141.068744 
L 233.16339 140.650036 
L 233.339011 140.650036 
L 233.339011 140.231329 
L 233.537259 140.231329 
L 233.537259 139.812622 
L 233.706814 139.812622 
L 233.772195 138.975207 
L 233.846204 138.975207 
L 233.846204 138.5565 
L 234.35335 138.5565 
L 234.424868 136.88167 
L 234.490026 136.88167 
L 234.490026 136.462963 
L 235.086983 136.462963 
L 235.193827 135.206841 
L 235.307666 135.206841 
L 235.307666 134.788134 
L 235.484524 134.788134 
L 235.484524 134.369426 
L 235.784036 134.369426 
L 235.784036 133.950719 
L 235.962119 133.950719 
L 235.962119 133.532012 
L 236.089113 133.532012 
L 236.089113 133.113304 
L 236.586871 133.113304 
L 236.630194 131.857182 
L 236.719264 131.857182 
L 236.719264 131.438475 
L 236.853117 131.438475 
L 236.909446 130.60106 
L 237.059796 130.60106 
L 237.059796 130.182353 
L 237.498849 130.182353 
L 237.498849 129.763646 
L 237.944714 129.763646 
L 238.026011 128.926231 
L 238.551656 128.926231 
L 238.590447 128.088816 
L 239.02419 128.088816 
L 239.109427 127.251402 
L 239.963923 127.251402 
L 239.990406 126.413987 
L 240.130364 126.413987 
L 240.130364 125.99528 
L 240.260625 125.99528 
L 240.289699 125.157865 
L 240.397242 125.157865 
L 240.397242 124.739158 
L 240.801167 124.739158 
L 240.801167 124.32045 
L 241.363458 124.32045 
L 241.363458 123.901743 
L 241.510532 123.901743 
L 241.604752 122.645621 
L 241.640793 122.645621 
L 241.640793 122.226914 
L 242.423561 122.226914 
L 242.494631 121.389499 
L 242.680303 121.389499 
L 242.680303 120.970792 
L 242.915115 120.970792 
L 242.915115 120.133377 
L 243.234381 120.133377 
L 243.234381 119.71467 
L 243.676 119.71467 
L 243.676 119.295962 
L 244.172389 119.295962 
L 244.172389 118.877255 
L 244.371378 118.877255 
L 244.418981 117.621133 
L 245.017111 117.621133 
L 245.017111 117.202426 
L 245.174766 117.202426 
L 245.256714 115.946304 
L 246.548453 115.946304 
L 246.548453 115.527596 
L 246.804817 115.527596 
L 246.804817 115.108889 
L 247.103179 115.108889 
L 247.103179 114.690182 
L 247.227517 114.690182 
L 247.227517 113.852767 
L 247.67504 113.852767 
L 247.67504 113.43406 
L 247.988402 113.43406 
L 247.988402 113.015352 
L 248.579844 113.015352 
L 248.579844 112.596645 
L 249.225576 112.596645 
L 249.225576 112.177938 
L 249.796198 112.177938 
L 249.796198 111.75923 
L 250.01222 111.75923 
L 250.01222 111.340523 
L 250.669572 111.340523 
L 250.681557 110.503108 
L 250.860948 110.503108 
L 250.931609 109.665694 
L 251.052439 109.665694 
L 251.060791 108.828279 
L 251.611307 108.828279 
L 251.611307 108.409572 
L 251.952545 108.409572 
L 251.952545 107.990864 
L 252.128855 107.990864 
L 252.152389 107.15345 
L 252.275438 107.15345 
L 252.275438 106.734742 
L 252.405694 106.734742 
L 252.405694 106.316035 
L 252.829403 106.316035 
L 252.860022 105.47862 
L 253.025186 105.47862 
L 253.086831 104.641206 
L 253.664419 104.641206 
L 253.664419 104.222498 
L 254.116784 104.222498 
L 254.116784 103.803791 
L 254.4074 103.803791 
L 254.4074 102.966376 
L 255.168285 102.966376 
L 255.168285 102.547669 
L 255.500077 102.547669 
L 255.500077 102.128962 
L 255.735668 102.128962 
L 255.755125 101.291547 
L 257.036217 101.291547 
L 257.119791 100.454132 
L 257.204547 100.454132 
L 257.204547 99.616718 
L 257.926414 99.616718 
L 257.926414 99.19801 
L 258.211389 99.19801 
L 258.211389 98.779303 
L 258.324017 98.779303 
L 258.416386 97.523181 
L 258.484748 97.523181 
L 258.581637 96.267059 
L 258.843673 96.267059 
L 258.843673 95.848351 
L 259.351102 95.848351 
L 259.351102 95.010937 
L 259.576345 95.010937 
L 259.576345 94.592229 
L 259.907532 94.592229 
L 259.907532 94.173522 
L 260.111987 94.173522 
L 260.187502 93.336107 
L 260.34474 93.336107 
L 260.34474 92.9174 
L 260.543448 92.9174 
L 260.553264 92.079985 
L 260.741467 92.079985 
L 260.741467 91.661278 
L 262.587675 91.661278 
L 262.587675 91.242571 
L 262.787519 91.242571 
L 262.833146 89.567741 
L 263.189644 89.567741 
L 263.278731 88.730327 
L 263.575754 88.730327 
L 263.66719 87.892912 
L 263.818823 87.892912 
L 263.886697 87.055497 
L 264.08086 87.055497 
L 264.165597 86.218083 
L 264.413955 86.218083 
L 264.413955 85.380668 
L 264.638053 85.380668 
L 264.638053 84.961961 
L 264.751914 84.961961 
L 264.751914 84.543253 
L 264.933888 84.543253 
L 264.933888 84.124546 
L 265.174841 84.124546 
L 265.257195 83.287131 
L 265.424689 83.287131 
L 265.424689 82.868424 
L 265.881216 82.868424 
L 265.978654 81.612302 
L 266.003009 81.612302 
L 266.025486 80.774887 
L 266.4274 80.774887 
L 266.4274 80.35618 
L 266.972813 80.35618 
L 266.972813 79.937473 
L 267.961543 79.937473 
L 267.961543 79.518765 
L 268.391795 79.518765 
L 268.391795 79.100058 
L 268.626513 79.100058 
L 268.626513 78.681351 
L 268.846519 78.681351 
L 268.904376 77.843936 
L 269.261469 77.843936 
L 269.261469 77.425229 
L 269.465409 77.425229 
L 269.465409 77.006521 
L 269.613194 77.006521 
L 269.705917 76.169107 
L 269.743455 76.169107 
L 269.764846 75.331692 
L 270.211475 75.331692 
L 270.211475 74.912985 
L 270.324537 74.912985 
L 270.353066 74.07557 
L 270.89602 74.07557 
L 270.89602 73.656863 
L 271.086085 73.656863 
L 271.086085 73.238155 
L 271.27732 73.238155 
L 271.27732 72.819448 
L 271.683859 72.819448 
L 271.683859 72.400741 
L 271.922206 72.400741 
L 271.922206 71.982033 
L 272.184242 71.982033 
L 272.273945 71.144619 
L 272.45215 71.144619 
L 272.45215 70.725911 
L 272.608077 70.725911 
L 272.608077 70.307204 
L 273.194301 70.307204 
L 273.194301 69.888497 
L 273.333976 69.888497 
L 273.399477 69.051082 
L 273.528071 69.051082 
L 273.528071 68.632375 
L 273.886601 68.632375 
L 273.915363 67.79496 
L 274.082037 67.79496 
L 274.148637 66.538838 
L 275.026403 66.538838 
L 275.026403 66.120131 
L 275.259652 66.120131 
L 275.259652 65.701423 
L 275.422753 65.701423 
L 275.521689 64.445301 
L 275.612626 64.445301 
L 275.612626 64.026594 
L 275.776586 64.026594 
L 275.776586 63.607887 
L 275.892324 63.607887 
L 275.99915 62.770472 
L 276.046431 62.770472 
L 276.079601 61.933057 
L 276.390826 61.933057 
L 276.390826 61.51435 
L 276.652862 61.51435 
L 276.660616 60.676935 
L 276.77973 60.676935 
L 276.868184 59.420813 
L 277.007759 59.420813 
L 277.007759 59.002106 
L 277.387538 59.002106 
L 277.419483 58.164691 
L 277.607943 58.164691 
L 277.607943 57.745984 
L 277.841079 57.745984 
L 277.945309 56.908569 
L 277.996691 56.908569 
L 277.996691 56.489862 
L 278.550657 56.489862 
L 278.550657 56.071155 
L 278.972154 56.071155 
L 278.972154 55.652447 
L 279.189385 55.652447 
L 279.189385 55.23374 
L 279.453828 55.23374 
L 279.453828 54.815033 
L 279.805864 54.815033 
L 279.805864 54.396325 
L 280.174206 54.396325 
L 280.174206 53.977618 
L 280.345206 53.977618 
L 280.363635 53.140203 
L 280.988196 53.140203 
L 280.988196 52.721496 
L 281.396603 52.721496 
L 281.476379 51.884081 
L 281.516185 51.884081 
L 281.539163 51.046667 
L 283.294848 51.046667 
L 283.294848 50.627959 
L 283.93451 50.627959 
L 283.967594 49.790545 
L 284.079968 49.790545 
L 284.079968 48.95313 
L 284.303315 48.95313 
L 284.39753 47.697008 
L 284.426571 47.697008 
L 284.426571 47.278301 
L 284.664647 47.278301 
L 284.664647 46.859593 
L 284.840854 46.859593 
L 284.840854 46.440886 
L 284.967038 46.440886 
L 285.000368 45.184764 
L 285.767748 45.184764 
L 285.767748 44.766057 
L 286.353972 44.766057 
L 286.353972 44.347349 
L 286.519048 44.347349 
L 286.519048 43.928642 
L 287.202256 43.928642 
L 287.220012 43.091227 
L 287.503314 43.091227 
L 287.503314 42.67252 
L 287.861297 42.67252 
L 287.861297 42.253813 
L 287.988303 42.253813 
L 287.988303 41.835105 
L 288.582425 41.835105 
L 288.63208 40.997691 
L 288.935631 40.997691 
L 288.935631 40.578983 
L 289.167041 40.578983 
L 289.167041 40.160276 
L 289.460384 40.160276 
L 289.460384 39.741569 
L 289.724812 39.741569 
L 289.724812 39.322861 
L 290.391143 39.322861 
L 290.391143 38.904154 
L 290.521404 38.904154 
L 290.547209 38.066739 
L 290.726864 38.066739 
L 290.726864 37.648032 
L 290.857125 37.648032 
L 290.857125 37.229325 
L 291.050405 37.229325 
L 291.10498 36.39191 
L 291.992033 36.39191 
L 291.992033 35.554495 
L 292.315884 35.554495 
L 292.315884 35.135788 
L 292.529954 35.135788 
L 292.529954 34.717081 
L 292.752918 34.717081 
L 292.752918 34.298373 
L 293.295688 34.298373 
L 293.295688 33.879666 
L 294.494349 33.879666 
L 294.494349 33.460959 
L 294.675856 33.460959 
L 294.675856 33.042251 
L 295.8674 33.042251 
L 295.8674 32.623544 
L 296.998574 32.623544 
L 296.998574 32.204837 
L 297.229219 32.204837 
L 297.229219 31.367422 
L 297.990105 31.367422 
L 297.990105 30.948715 
L 298.831001 30.948715 
L 298.831001 30.530007 
L 299.188747 30.530007 
L 299.188747 30.1113 
L 300.411583 30.1113 
L 300.411583 29.692593 
L 301.791751 29.692593 
L 301.791751 29.273885 
L 305.332602 29.273885 
L 305.332602 28.436471 
L 306.093487 28.436471 
L 306.093487 28.017763 
L 307.296997 28.017763 
L 307.296997 26.761641 
L 307.632718 26.761641 
L 307.632718 26.342934 
L 308.057882 26.342934 
L 308.057882 25.924227 
L 308.670048 25.924227 
L 308.670048 25.086812 
L 309.126396 25.086812 
L 309.126396 24.668105 
L 309.430934 24.668105 
L 309.430934 24.249397 
L 309.801222 24.249397 
L 309.801222 23.411983 
L 310.562107 23.411983 
L 310.562107 22.993275 
L 313.87041 22.993275 
L 313.938808 22.155861 
L 314.456634 22.155861 
L 314.456634 21.737153 
L 314.835032 21.737153 
L 314.835032 21.318446 
L 315.030405 21.318446 
L 315.030405 20.899739 
L 316.685086 20.899739 
L 316.685086 20.481031 
L 317.038461 20.481031 
L 317.038461 20.062324 
L 317.253357 20.062324 
L 317.253357 19.643617 
L 318.649871 19.643617 
L 318.649871 19.224909 
L 319.207642 19.224909 
L 319.207642 18.806202 
L 319.966696 18.806202 
L 319.966696 18.387495 
L 320.302418 18.387495 
L 320.302418 17.968787 
L 321.457069 17.968787 
L 321.457069 17.55008 
L 322.275647 17.55008 
L 322.275647 17.131373 
L 322.778518 17.131373 
L 322.778518 16.712665 
L 325.665535 16.712665 
L 325.665535 16.293958 
L 326.614535 16.293958 
L 326.614535 15.875251 
L 327.994703 15.875251 
L 327.994703 15.456543 
L 329.894413 15.456543 
L 329.894413 15.037836 
L 330.37903 15.037836 
L 330.37903 14.619129 
L 332.343425 14.619129 
L 332.343425 14.200421 
L 333.716477 14.200421 
L 333.716477 13.781714 
L 334.648359 13.781714 
L 334.648359 13.363007 
L 334.84765 13.363007 
L 334.84765 12.944299 
L 334.984081 12.944299 
L 334.984081 12.525592 
L 335.234583 12.525592 
L 335.234583 12.106885 
L 335.570304 12.106885 
L 335.570304 11.688177 
L 336.993223 11.688177 
L 336.993223 11.26947 
L 337.463036 11.26947 
L 337.463036 10.850763 
L 337.798757 10.850763 
L 337.798757 10.432055 
L 339.42782 10.432055 
L 339.42782 10.013348 
L 339.763542 10.013348 
L 339.763542 9.594641 
L 339.985591 9.594641 
L 339.985591 9.175933 
L 340.321313 9.175933 
L 340.321313 8.757226 
L 343.556467 8.757226 
L 343.556467 8.338519 
L 343.892189 8.338519 
L 343.892189 7.919811 
L 350.672362 7.919811 
L 350.672362 7.501104 
L 351.008084 7.501104 
L 351.008084 7.082397 
L 356.097365 7.082397 
L 356.097365 6.663689 
L 376.875314 6.663689 
L 376.875314 6.244982 
L 377.211036 6.244982 
L 377.211036 5.826275 
L 453.192 5.826275 
L 453.192 5.826275 
" clip-path="url(#pa7fb0ba514)" style="fill: none; stroke: #000000; stroke-width: 3; stroke-linecap: square"/>
   </g>
   <g id="line2d_62">
    <path clip-path="url(#pa7fb0ba514)" style="fill: none; stroke: #000000; stroke-width: 3; stroke-linecap: square"/>
   </g>
   <g id="line2d_63">
    <path d="M 34.16 158.873631 
L 76.926681 158.873631 
L 76.926681 158.363473 
L 87.399226 158.363473 
L 87.399226 157.853315 
L 88.418966 157.853315 
L 88.423661 156.832999 
L 98.896205 156.832999 
L 98.896205 156.322841 
L 99.915946 156.322841 
L 99.915946 155.812684 
L 126.236551 155.812684 
L 126.241221 154.792368 
L 132.737908 154.792368 
L 132.737908 154.28221 
L 136.709096 154.28221 
L 136.713765 153.261894 
L 137.728837 153.261894 
L 137.733506 152.241579 
L 138.691408 152.241579 
L 138.691408 151.731421 
L 143.210453 151.731421 
L 143.274335 150.711105 
L 144.230194 150.711105 
L 144.291524 149.690789 
L 145.426039 149.690789 
L 145.426039 149.180631 
L 155.898584 149.180631 
L 155.898584 148.670474 
L 156.918325 148.670474 
L 156.918325 148.160316 
L 158.239663 148.160316 
L 158.239663 147.650158 
L 159.192742 147.650158 
L 159.192742 147.14 
L 159.630487 147.14 
L 159.630487 146.629842 
L 160.241729 146.629842 
L 160.241729 146.119684 
L 160.515702 146.119684 
L 160.515702 145.609526 
L 167.572003 145.609526 
L 167.572003 145.099369 
L 168.615365 145.099369 
L 168.615365 144.589211 
L 169.665286 144.589211 
L 169.736642 143.568895 
L 169.924965 143.568895 
L 169.924965 143.058737 
L 170.685027 143.058737 
L 170.68652 142.038421 
L 171.127467 142.038421 
L 171.127467 141.528264 
L 171.590664 141.528264 
L 171.590664 141.018106 
L 171.738709 141.018106 
L 171.738709 140.507948 
L 172.012682 140.507948 
L 172.012682 139.99779 
L 178.717492 139.99779 
L 178.717492 139.487632 
L 180.226805 139.487632 
L 180.226805 138.977474 
L 181.733126 138.977474 
L 181.733126 138.467316 
L 182.585563 138.467316 
L 182.585563 137.957159 
L 183.388885 137.957159 
L 183.388885 137.447001 
L 186.684961 137.447001 
L 186.684961 136.936843 
L 187.16849 136.936843 
L 187.16849 136.426685 
L 188.185679 136.426685 
L 188.185679 135.916527 
L 193.641959 135.916527 
L 193.641959 135.406369 
L 194.885864 135.406369 
L 194.885864 134.896212 
L 195.433388 134.896212 
L 195.433388 134.386054 
L 197.144254 134.386054 
L 197.144254 133.875896 
L 198.192417 133.875896 
L 198.192417 133.365738 
L 200.813897 133.365738 
L 200.813897 132.85558 
L 202.436285 132.85558 
L 202.436285 132.345422 
L 204.97008 132.345422 
L 204.97008 131.835264 
L 205.696951 131.835264 
L 205.696951 131.325107 
L 206.930367 131.325107 
L 206.930367 130.814949 
L 207.549533 130.814949 
L 207.554202 129.794633 
L 207.946291 129.794633 
L 207.946291 129.284475 
L 208.641234 129.284475 
L 208.641234 128.774317 
L 208.940358 128.774317 
L 208.945027 127.754002 
L 209.5516 127.754002 
L 209.556269 126.733686 
L 209.825573 126.733686 
L 209.830242 125.71337 
L 211.466158 125.71337 
L 211.466158 125.203212 
L 212.50952 125.203212 
L 212.565895 124.182897 
L 213.193998 124.182897 
L 213.193998 123.672739 
L 213.81912 123.672739 
L 213.81912 123.162581 
L 213.933264 123.162581 
L 213.933264 122.652423 
L 214.05089 122.652423 
L 214.05089 122.142265 
L 214.513726 122.142265 
L 214.580675 121.121949 
L 215.441715 121.121949 
L 215.484819 120.101634 
L 216.052957 120.101634 
L 216.052957 119.591476 
L 216.32693 119.591476 
L 216.32693 119.081318 
L 217.776925 119.081318 
L 217.776925 118.57116 
L 218.794115 118.57116 
L 218.794115 118.061002 
L 219.374962 118.061002 
L 219.374962 117.550844 
L 219.730323 117.550844 
L 219.730323 117.040687 
L 220.42759 117.040687 
L 220.42759 116.530529 
L 221.820002 116.530529 
L 221.820002 116.020371 
L 222.611647 116.020371 
L 222.611647 115.510213 
L 224.062875 115.510213 
L 224.12096 114.489897 
L 224.986271 114.489897 
L 224.986271 113.97974 
L 225.627281 113.97974 
L 225.627281 113.469582 
L 226.006011 113.469582 
L 226.006011 112.959424 
L 226.402928 112.959424 
L 226.402928 112.449266 
L 226.739021 112.449266 
L 226.794941 111.42895 
L 227.420118 111.42895 
L 227.420118 110.918792 
L 228.129846 110.918792 
L 228.129846 110.408635 
L 228.741088 110.408635 
L 228.741088 109.898477 
L 229.015061 109.898477 
L 229.015061 109.388319 
L 229.131946 109.388319 
L 229.131946 108.878161 
L 229.593468 108.878161 
L 229.593468 108.368003 
L 230.579116 108.368003 
L 230.579116 107.857845 
L 230.871942 107.857845 
L 230.871942 107.347687 
L 231.227302 107.347687 
L 231.227302 106.83753 
L 232.698755 106.83753 
L 232.703424 105.817214 
L 233.714872 105.817214 
L 233.714872 105.307056 
L 234.176394 105.307056 
L 234.176394 104.796898 
L 234.732062 104.796898 
L 234.732062 104.28674 
L 235.193584 104.28674 
L 235.193584 103.776582 
L 237.536114 103.776582 
L 237.536114 103.266425 
L 238.291921 103.266425 
L 238.291921 102.756267 
L 239.200112 102.756267 
L 239.200112 102.246109 
L 240.505723 102.246109 
L 240.505723 101.735951 
L 241.896548 101.735951 
L 241.896548 101.225793 
L 242.074593 101.225793 
L 242.074593 100.715635 
L 242.50779 100.715635 
L 242.50779 100.205477 
L 242.781763 100.205477 
L 242.781763 99.69532 
L 243.117955 99.69532 
L 243.117955 99.185162 
L 244.427555 99.185162 
L 244.427555 98.675004 
L 244.743258 98.675004 
L 244.747927 97.654688 
L 245.18911 97.654688 
L 245.18911 97.14453 
L 246.093255 97.14453 
L 246.093255 96.634372 
L 246.454124 96.634372 
L 246.458794 95.614057 
L 248.864235 95.614057 
L 248.864235 95.103899 
L 250.700597 95.103899 
L 250.700597 94.593741 
L 251.244615 94.593741 
L 251.244615 94.083583 
L 251.743959 94.083583 
L 251.840446 92.042952 
L 251.888243 92.042952 
L 251.888243 91.532794 
L 252.955481 91.532794 
L 253.053559 90.512478 
L 253.220083 90.512478 
L 253.220083 90.00232 
L 253.815114 90.00232 
L 253.815114 89.492163 
L 254.719258 89.492163 
L 254.729395 88.471847 
L 256.235716 88.471847 
L 256.235716 87.961689 
L 258.012541 87.961689 
L 258.012541 87.451531 
L 258.247512 87.451531 
L 258.247512 86.941373 
L 258.474063 86.941373 
L 258.474063 86.431215 
L 259.055903 86.431215 
L 259.055903 85.921058 
L 259.517424 85.921058 
L 259.517424 85.4109 
L 260.365503 85.4109 
L 260.365503 84.900742 
L 260.827024 84.900742 
L 260.827024 84.390584 
L 261.127058 84.390584 
L 261.187551 83.370268 
L 261.58858 83.370268 
L 261.58858 82.86011 
L 261.846086 82.86011 
L 261.880435 81.329637 
L 262.031202 81.329637 
L 262.031202 80.819479 
L 262.492724 80.819479 
L 262.492724 80.309321 
L 263.355399 80.309321 
L 263.355399 79.799163 
L 263.932746 79.799163 
L 263.932746 79.289005 
L 264.86172 79.289005 
L 264.86172 78.778848 
L 265.643612 78.778848 
L 265.654945 77.758532 
L 266.845683 77.758532 
L 266.845683 77.248374 
L 267.2241 77.248374 
L 267.2241 76.738216 
L 268.144549 76.738216 
L 268.144549 76.228058 
L 268.377123 76.228058 
L 268.377123 75.7179 
L 268.684833 75.7179 
L 268.689502 74.697585 
L 269.040193 74.697585 
L 269.044862 73.677269 
L 269.15803 73.677269 
L 269.15803 73.167111 
L 269.467162 73.167111 
L 269.467162 72.656953 
L 269.619552 72.656953 
L 269.619552 72.146795 
L 269.813555 72.146795 
L 269.813555 71.636638 
L 270.667343 71.636638 
L 270.667343 71.12648 
L 270.935643 71.12648 
L 270.935643 70.616322 
L 271.128865 70.616322 
L 271.128865 70.106164 
L 271.807026 70.106164 
L 271.807026 69.596006 
L 272.173664 69.596006 
L 272.173664 69.085848 
L 272.635185 69.085848 
L 272.635185 68.575691 
L 272.824216 68.575691 
L 272.824216 68.065533 
L 274.350216 68.065533 
L 274.350216 67.555375 
L 275.18619 67.555375 
L 275.18619 67.045217 
L 275.54155 67.045217 
L 275.54155 66.535059 
L 276.104812 66.535059 
L 276.109481 65.514743 
L 276.770553 65.514743 
L 276.770553 65.004586 
L 277.125499 65.004586 
L 277.125499 64.494428 
L 277.587021 64.494428 
L 277.587021 63.98427 
L 277.699448 63.98427 
L 277.699448 63.474112 
L 279.177139 63.474112 
L 279.177139 62.963954 
L 279.410315 62.963954 
L 279.472671 61.943638 
L 281.065254 61.943638 
L 281.065254 61.433481 
L 282.448882 61.433481 
L 282.448882 60.923323 
L 282.606169 60.923323 
L 282.606169 60.413165 
L 283.760066 60.413165 
L 283.760066 59.903007 
L 284.082497 59.903007 
L 284.082497 59.392849 
L 284.544018 59.392849 
L 284.544018 58.882691 
L 284.702345 58.882691 
L 284.777255 57.862376 
L 287.874321 57.862376 
L 287.874321 57.352218 
L 288.098674 57.352218 
L 288.098674 56.84206 
L 288.229681 56.84206 
L 288.229681 56.331902 
L 289.080855 56.331902 
L 289.080855 55.821744 
L 291.074885 55.821744 
L 291.074885 55.311586 
L 294.831956 55.311586 
L 294.831956 54.801428 
L 295.2943 54.801428 
L 295.2943 54.291271 
L 295.410618 54.291271 
L 295.410618 53.781113 
L 295.826708 53.781113 
L 295.87214 52.760797 
L 296.104695 52.760797 
L 296.104695 52.250639 
L 297.148057 52.250639 
L 297.217532 51.230323 
L 297.828774 51.230323 
L 297.828774 50.720166 
L 298.102747 50.720166 
L 298.102747 50.210008 
L 298.386829 50.210008 
L 298.457657 49.189692 
L 298.848351 49.189692 
L 298.848351 48.679534 
L 299.219212 48.679534 
L 299.219212 48.169376 
L 300.123356 48.169376 
L 300.123356 47.659219 
L 301.641023 47.659219 
L 301.641023 47.149061 
L 301.996383 47.149061 
L 301.996383 46.638903 
L 306.877851 46.638903 
L 306.877851 46.128745 
L 307.250184 46.128745 
L 307.250184 45.618587 
L 308.057734 45.618587 
L 308.057734 45.108429 
L 308.759497 45.108429 
L 308.759497 44.598271 
L 309.061002 44.598271 
L 309.101096 43.577956 
L 309.49933 43.577956 
L 309.49933 43.067798 
L 310.265817 43.067798 
L 310.265817 42.55764 
L 310.410696 42.55764 
L 310.410696 42.047482 
L 311.172251 42.047482 
L 311.172251 41.537324 
L 312.076395 41.537324 
L 312.076395 41.027166 
L 314.382384 41.027166 
L 314.382384 40.517009 
L 315.217653 40.517009 
L 315.217653 40.006851 
L 319.203223 40.006851 
L 319.203223 39.496693 
L 320.712536 39.496693 
L 320.712536 38.986535 
L 320.975929 38.986535 
L 320.975929 38.476377 
L 322.17465 38.476377 
L 322.218857 37.456061 
L 327.170692 37.456061 
L 327.170692 36.945904 
L 329.113023 36.945904 
L 329.113023 36.435746 
L 333.020433 36.435746 
L 333.020433 35.925588 
L 333.502772 35.925588 
L 333.502772 35.41543 
L 334.12769 35.41543 
L 334.12769 34.905272 
L 334.731299 34.905272 
L 334.731299 34.395114 
L 336.478983 34.395114 
L 336.478983 33.884956 
L 339.978002 33.884956 
L 340.02333 32.864641 
L 342.599482 32.864641 
L 342.599482 32.354483 
L 345.455811 32.354483 
L 345.455811 31.844325 
L 347.482535 31.844325 
L 347.482535 31.334167 
L 348.432022 31.334167 
L 348.432022 30.824009 
L 350.15294 30.824009 
L 350.15294 30.313851 
L 356.962007 30.313851 
L 356.962007 29.803694 
L 357.317368 29.803694 
L 357.317368 29.293536 
L 362.213174 29.293536 
L 362.213174 28.783378 
L 364.381986 28.783378 
L 364.381986 28.27322 
L 453.192 28.27322 
L 453.192 28.27322 
" clip-path="url(#pa7fb0ba514)" style="fill: none; stroke: #00bfbf; stroke-width: 3; stroke-linecap: square"/>
   </g>
   <g id="line2d_64">
    <path clip-path="url(#pa7fb0ba514)" style="fill: none; stroke: #00bfbf; stroke-width: 3; stroke-linecap: square"/>
   </g>
   <g id="line2d_65">
    <path d="M 34.16 156.560915 
L 99.515087 156.560915 
L 99.515087 155.932854 
L 105.358556 155.932854 
L 105.358556 155.304793 
L 112.338724 155.304793 
L 112.338724 154.676732 
L 118.182193 154.676732 
L 118.182193 154.048671 
L 139.896111 154.048671 
L 139.896111 153.42061 
L 144.949906 153.42061 
L 144.949906 152.792549 
L 146.422685 152.792549 
L 146.422685 152.164488 
L 149.590078 152.164488 
L 149.590078 151.536427 
L 150.092058 151.536427 
L 150.092058 150.908366 
L 155.114637 150.908366 
L 155.114637 150.280305 
L 155.433546 150.280305 
L 155.433546 149.652244 
L 155.761704 149.652244 
L 155.761704 149.024183 
L 155.935526 149.024183 
L 155.935526 148.396122 
L 158.53078 148.396122 
L 158.53078 147.768061 
L 159.375829 147.768061 
L 159.375829 147.14 
L 160.495748 147.14 
L 160.495748 146.511939 
L 160.958106 146.511939 
L 160.958106 145.883878 
L 161.605172 145.883878 
L 161.605172 145.255817 
L 161.740921 145.255817 
L 161.740921 144.627756 
L 168.538909 144.627756 
L 168.538909 143.999695 
L 169.123138 143.999695 
L 169.123138 143.371634 
L 169.536558 143.371634 
L 169.536558 142.743573 
L 170.451525 142.743573 
L 170.451525 142.115512 
L 171.354416 142.115512 
L 171.354416 141.487451 
L 172.158996 141.487451 
L 172.199465 140.231329 
L 172.804771 140.231329 
L 172.804771 139.603268 
L 173.319385 139.603268 
L 173.319385 138.975207 
L 174.382378 138.975207 
L 174.382378 138.347146 
L 174.564557 138.347146 
L 174.564557 137.719085 
L 179.318512 137.719085 
L 179.318512 137.091024 
L 180.032683 137.091024 
L 180.032683 136.462963 
L 181.698852 136.462963 
L 181.698852 135.834902 
L 184.178672 135.834902 
L 184.178672 135.206841 
L 185.464536 135.206841 
L 185.464536 134.57878 
L 188.062898 134.57878 
L 188.062898 133.950719 
L 189.232467 133.950719 
L 189.232467 133.322658 
L 190.705247 133.322658 
L 190.705247 132.694597 
L 193.76804 132.694597 
L 193.76804 132.066536 
L 194.047857 132.066536 
L 194.047857 131.438475 
L 195.926186 131.438475 
L 195.926186 130.810414 
L 198.288173 130.810414 
L 198.288173 130.182353 
L 201.868771 130.182353 
L 201.868771 129.554292 
L 205.284464 129.554292 
L 205.284464 128.926231 
L 206.10925 128.926231 
L 206.10925 128.29817 
L 206.591676 128.29817 
L 206.591676 127.670109 
L 208.60577 127.670109 
L 208.60577 127.042048 
L 208.749822 127.042048 
L 208.749822 126.413987 
L 209.068697 126.413987 
L 209.10775 125.157865 
L 209.450819 125.157865 
L 209.450819 124.529804 
L 209.952799 124.529804 
L 209.952799 123.901743 
L 210.570738 123.901743 
L 210.570738 123.273682 
L 211.033696 123.273682 
L 211.072718 122.01756 
L 211.815911 122.01756 
L 211.815911 121.389499 
L 212.317891 121.389499 
L 212.317891 120.761438 
L 213.4057 120.761438 
L 213.4057 120.133377 
L 213.81912 120.133377 
L 213.81912 119.505316 
L 214.130329 119.505316 
L 214.130329 118.877255 
L 214.692408 118.877255 
L 214.787108 116.365011 
L 214.975378 116.365011 
L 214.975378 115.73695 
L 215.622445 115.73695 
L 215.622445 115.108889 
L 216.095298 115.108889 
L 216.095298 114.480828 
L 216.441558 114.480828 
L 216.441558 113.852767 
L 216.742364 113.852767 
L 216.742364 113.224706 
L 217.087332 113.224706 
L 217.087332 112.596645 
L 217.31416 112.596645 
L 217.34047 111.340523 
L 217.987537 111.340523 
L 217.987537 110.712462 
L 218.108101 110.712462 
L 218.198028 109.45634 
L 219.840903 109.45634 
L 219.840903 108.828279 
L 221.313682 108.828279 
L 221.313682 108.200218 
L 222.650062 108.200218 
L 222.650062 107.572157 
L 223.601074 107.572157 
L 223.601074 106.944096 
L 223.857332 106.944096 
L 223.857332 106.316035 
L 224.315245 106.316035 
L 224.315245 105.687974 
L 225.844968 105.687974 
L 225.844968 105.059913 
L 225.981414 105.059913 
L 225.981414 104.431852 
L 227.554601 104.431852 
L 227.554601 103.803791 
L 227.703858 103.803791 
L 227.703858 103.17573 
L 228.39965 103.17573 
L 228.39965 102.547669 
L 229.176637 102.547669 
L 229.176637 101.919608 
L 229.519569 101.919608 
L 229.519569 101.291547 
L 229.646017 101.291547 
L 229.646017 100.663486 
L 230.137796 100.663486 
L 230.137796 100.035425 
L 230.725055 100.035425 
L 230.764742 98.779303 
L 231.021665 98.779303 
L 231.021665 98.151242 
L 232.34546 98.151242 
L 232.34546 97.523181 
L 234.699812 97.523181 
L 234.699812 96.89512 
L 235.539527 96.89512 
L 235.539527 96.267059 
L 235.77885 96.267059 
L 235.77885 95.638998 
L 236.041507 95.638998 
L 236.041507 95.010937 
L 236.172591 95.010937 
L 236.172591 94.382876 
L 237.25163 94.382876 
L 237.25163 93.754815 
L 238.304625 93.754815 
L 238.330418 92.498693 
L 238.668605 92.498693 
L 238.668605 91.870632 
L 241.064086 91.870632 
L 241.064086 91.242571 
L 241.711153 91.242571 
L 241.711153 90.61451 
L 243.84303 90.61451 
L 243.84303 89.986449 
L 244.014135 89.986449 
L 244.014135 89.358388 
L 244.148094 89.358388 
L 244.148094 88.730327 
L 244.34501 88.730327 
L 244.427555 87.474205 
L 245.342521 87.474205 
L 245.342521 86.846144 
L 246.001176 86.846144 
L 246.001176 86.218083 
L 246.503156 86.218083 
L 246.503156 85.590022 
L 247.049993 85.590022 
L 247.049993 84.961961 
L 247.695768 84.961961 
L 247.695768 84.3339 
L 249.367589 84.3339 
L 249.367589 83.705839 
L 250.014656 83.705839 
L 250.014656 83.077778 
L 250.391812 83.077778 
L 250.391812 82.449717 
L 251.525735 82.449717 
L 251.525735 81.821656 
L 251.87709 81.821656 
L 251.943762 80.565534 
L 252.172802 80.565534 
L 252.172802 79.937473 
L 252.29051 79.937473 
L 252.29051 79.309412 
L 252.445742 79.309412 
L 252.445742 78.681351 
L 253.205476 78.681351 
L 253.205476 78.05329 
L 253.351258 78.05329 
L 253.351258 77.425229 
L 254.209509 77.425229 
L 254.209509 76.797168 
L 254.488358 76.797168 
L 254.488358 76.169107 
L 254.912948 76.169107 
L 254.92368 74.912985 
L 255.359455 74.912985 
L 255.359455 74.284924 
L 255.558722 74.284924 
L 255.558722 73.656863 
L 255.861435 73.656863 
L 255.861435 73.028802 
L 256.589849 73.028802 
L 256.589849 72.400741 
L 257.468321 72.400741 
L 257.468321 71.77268 
L 258.115388 71.77268 
L 258.115388 71.144619 
L 258.873044 71.144619 
L 258.873044 70.516558 
L 259.286464 70.516558 
L 259.286464 69.888497 
L 259.952083 69.888497 
L 259.952083 69.260436 
L 260.201431 69.260436 
L 260.201431 68.632375 
L 260.365503 68.632375 
L 260.365503 68.004314 
L 260.884014 68.004314 
L 260.884014 67.376253 
L 261.108686 67.376253 
L 261.108686 66.748192 
L 261.280469 66.748192 
L 261.280469 66.120131 
L 261.531081 66.120131 
L 261.610666 64.864009 
L 261.908903 64.864009 
L 261.908903 64.235948 
L 262.072464 64.235948 
L 262.072464 63.607887 
L 262.554677 63.607887 
L 262.554677 62.979826 
L 262.786635 62.979826 
L 262.791861 61.723704 
L 262.953895 61.723704 
L 262.987941 60.467582 
L 263.633715 60.467582 
L 263.633715 59.839521 
L 264.452804 59.839521 
L 264.452804 59.21146 
L 264.950007 59.21146 
L 264.950007 58.583399 
L 266.633245 58.583399 
L 266.633245 57.955338 
L 267.280312 57.955338 
L 267.38915 56.699216 
L 267.751013 56.699216 
L 267.751013 56.071155 
L 267.89113 56.071155 
L 267.89113 55.443094 
L 268.273019 55.443094 
L 268.273019 54.815033 
L 268.774999 54.815033 
L 268.774999 54.186972 
L 268.938854 54.186972 
L 268.938854 53.558911 
L 269.068418 53.558911 
L 269.068418 52.93085 
L 269.782589 52.93085 
L 269.782589 52.302789 
L 270.147457 52.302789 
L 270.147457 51.674728 
L 270.81685 51.674728 
L 270.892593 49.790545 
L 271.448758 49.790545 
L 271.448758 49.162484 
L 272.527796 49.162484 
L 272.527796 48.534423 
L 272.804808 48.534423 
L 272.913709 47.278301 
L 273.560776 47.278301 
L 273.560776 46.65024 
L 273.797578 46.65024 
L 273.797578 46.022179 
L 274.277587 46.022179 
L 274.308286 44.766057 
L 274.444644 44.766057 
L 274.444644 44.137996 
L 275.919958 44.137996 
L 275.919958 43.509935 
L 276.421938 43.509935 
L 276.421938 42.881874 
L 276.801808 42.881874 
L 276.801808 42.253813 
L 277.812804 42.253813 
L 277.812804 41.625752 
L 278.891843 41.625752 
L 278.891843 40.997691 
L 280.057517 40.997691 
L 280.057517 40.36963 
L 280.770248 40.36963 
L 280.770248 39.741569 
L 281.000247 39.741569 
L 281.000247 39.113508 
L 281.444518 39.113508 
L 281.444518 38.485447 
L 282.091584 38.485447 
L 282.091584 37.857386 
L 283.797763 37.857386 
L 283.797763 37.229325 
L 283.959693 37.229325 
L 283.959693 36.601264 
L 284.876801 36.601264 
L 284.876801 35.973203 
L 285.824044 35.973203 
L 285.824044 35.345142 
L 286.337981 35.345142 
L 286.337981 34.717081 
L 287.22185 34.717081 
L 287.296823 33.460959 
L 288.863202 33.460959 
L 288.863202 32.832898 
L 291.822648 32.832898 
L 291.822648 32.204837 
L 294.86879 32.204837 
L 294.86879 31.576776 
L 295.859156 31.576776 
L 295.859156 30.948715 
L 296.938194 30.948715 
L 296.978041 29.692593 
L 297.320317 29.692593 
L 297.391461 28.436471 
L 298.165366 28.436471 
L 298.165366 27.80841 
L 298.306427 27.80841 
L 298.306427 27.180349 
L 298.818603 27.180349 
L 298.818603 26.552288 
L 299.285286 26.552288 
L 299.285286 25.924227 
L 299.897641 25.924227 
L 299.897641 25.296166 
L 300.013899 25.296166 
L 300.013899 24.668105 
L 300.530458 24.668105 
L 300.530458 24.040044 
L 300.659673 24.040044 
L 300.659673 23.411983 
L 307.173415 23.411983 
L 307.173415 22.783922 
L 307.887586 22.783922 
L 307.887586 22.155861 
L 309.553754 22.155861 
L 309.553754 21.5278 
L 309.997276 21.5278 
L 309.997276 20.899739 
L 310.410696 20.899739 
L 310.410696 20.271678 
L 311.325662 20.271678 
L 311.325662 19.643617 
L 313.033134 19.643617 
L 313.033134 19.015556 
L 313.678908 19.015556 
L 313.678908 18.387495 
L 315.917801 18.387495 
L 315.917801 17.759434 
L 320.19265 17.759434 
L 320.19265 17.131373 
L 320.906821 17.131373 
L 320.906821 16.503312 
L 321.902759 16.503312 
L 321.902759 15.875251 
L 322.57299 15.875251 
L 322.57299 15.24719 
L 324.254074 15.24719 
L 324.254074 14.619129 
L 328.937036 14.619129 
L 328.937036 13.991068 
L 332.557577 13.991068 
L 332.557577 13.363007 
L 333.964152 13.363007 
L 333.964152 12.734946 
L 334.715723 12.734946 
L 334.715723 12.106885 
L 334.921994 12.106885 
L 334.921994 11.478824 
L 336.923599 11.478824 
L 336.923599 10.850763 
L 340.658309 10.850763 
L 340.658309 10.222702 
L 344.074002 10.222702 
L 344.074002 9.594641 
L 346.983388 9.594641 
L 346.983388 8.96658 
L 349.823233 8.96658 
L 349.823233 8.338519 
L 349.942834 8.338519 
L 349.942834 7.710458 
L 356.103697 7.710458 
L 356.103697 7.082397 
L 356.987566 7.082397 
L 356.987566 6.454336 
L 364.634506 6.454336 
L 364.634506 5.826275 
L 453.192 5.826275 
L 453.192 5.826275 
" clip-path="url(#pa7fb0ba514)" style="fill: none; stroke: #bf00bf; stroke-width: 3; stroke-linecap: square"/>
   </g>
   <g id="line2d_66">
    <path clip-path="url(#pa7fb0ba514)" style="fill: none; stroke: #bf00bf; stroke-width: 3; stroke-linecap: square"/>
   </g>
   <g id="line2d_67">
    <path d="M 34.16 156.560915 
L 117.769452 156.560915 
L 117.769452 155.932854 
L 121.334432 155.932854 
L 121.334432 155.304793 
L 130.176588 155.304793 
L 130.176588 154.676732 
L 133.741568 154.676732 
L 133.741568 154.048671 
L 142.689033 154.048671 
L 142.689033 153.42061 
L 144.949906 153.42061 
L 144.949906 152.792549 
L 148.063917 152.792549 
L 148.063917 152.164488 
L 162.721063 152.164488 
L 162.721063 151.536427 
L 164.204309 151.536427 
L 164.204309 150.908366 
L 165.486808 150.908366 
L 165.486808 150.280305 
L 165.712663 150.280305 
L 165.712663 149.652244 
L 166.298634 149.652244 
L 166.311672 148.396122 
L 169.277643 148.396122 
L 169.277643 147.768061 
L 169.876652 147.768061 
L 169.876652 147.14 
L 170.751798 147.14 
L 170.751798 146.511939 
L 171.605936 146.511939 
L 171.605936 145.883878 
L 171.831088 145.883878 
L 171.878141 144.627756 
L 172.262386 144.627756 
L 172.262386 143.999695 
L 173.328018 143.999695 
L 173.328018 143.371634 
L 174.316778 143.371634 
L 174.316778 142.743573 
L 175.128199 142.743573 
L 175.170916 141.487451 
L 176.611445 141.487451 
L 176.611445 140.85939 
L 176.735032 140.85939 
L 176.735032 140.231329 
L 177.893944 140.231329 
L 177.893944 139.603268 
L 178.70577 139.603268 
L 178.70577 138.975207 
L 180.699467 138.975207 
L 180.699467 138.347146 
L 181.950479 138.347146 
L 181.950479 137.719085 
L 182.360977 137.719085 
L 182.360977 137.091024 
L 184.061785 137.091024 
L 184.061785 136.462963 
L 184.559266 136.462963 
L 184.559266 135.834902 
L 185.925957 135.834902 
L 185.925957 135.206841 
L 186.820139 135.206841 
L 186.820139 134.57878 
L 188.062898 134.57878 
L 188.062898 133.950719 
L 188.68996 133.950719 
L 188.68996 133.322658 
L 189.93415 133.322658 
L 189.93415 132.694597 
L 194.599593 132.694597 
L 194.599593 132.066536 
L 195.581606 132.066536 
L 195.581606 131.438475 
L 197.623785 131.438475 
L 197.623785 130.810414 
L 201.097096 130.810414 
L 201.097096 130.182353 
L 204.180978 130.182353 
L 204.180978 129.554292 
L 205.900948 129.554292 
L 205.900948 128.926231 
L 206.509542 128.926231 
L 206.509542 128.29817 
L 207.988742 128.29817 
L 207.988742 127.670109 
L 209.54609 127.670109 
L 209.54609 127.042048 
L 210.030921 127.042048 
L 210.030921 126.413987 
L 210.664274 126.413987 
L 210.664274 125.785926 
L 211.263283 125.785926 
L 211.263283 125.157865 
L 212.147521 125.157865 
L 212.147521 124.529804 
L 212.746529 124.529804 
L 212.830339 123.273682 
L 213.43002 123.273682 
L 213.43002 122.645621 
L 213.701321 122.645621 
L 213.748374 121.389499 
L 214.029028 121.389499 
L 214.132619 120.133377 
L 214.241845 120.133377 
L 214.241845 119.505316 
L 214.840854 119.505316 
L 214.840854 118.877255 
L 215.19825 118.877255 
L 215.19825 118.249194 
L 215.703409 118.249194 
L 215.703409 117.621133 
L 216.557547 117.621133 
L 216.588114 116.365011 
L 217.186656 116.365011 
L 217.186656 115.73695 
L 217.58003 115.73695 
L 217.58003 115.108889 
L 218.040793 115.108889 
L 218.040793 114.480828 
L 218.302219 114.480828 
L 218.308084 113.224706 
L 218.469155 113.224706 
L 218.469155 112.596645 
L 218.605264 112.596645 
L 218.605264 111.968584 
L 218.953792 111.968584 
L 218.953792 111.340523 
L 219.28098 111.340523 
L 219.323292 110.084401 
L 219.840903 110.084401 
L 219.840903 109.45634 
L 220.135118 109.45634 
L 220.135118 108.828279 
L 222.569699 108.828279 
L 222.569699 108.200218 
L 222.954914 108.200218 
L 222.954914 107.572157 
L 223.619313 107.572157 
L 223.619313 106.944096 
L 223.820712 106.944096 
L 223.820712 106.316035 
L 225.237475 106.316035 
L 225.237475 105.687974 
L 225.880185 105.687974 
L 225.932018 104.431852 
L 226.830177 104.431852 
L 226.830177 103.803791 
L 227.312588 103.803791 
L 227.312588 103.17573 
L 228.795834 103.17573 
L 228.795834 102.547669 
L 228.994197 102.547669 
L 228.994197 101.919608 
L 229.933131 101.919608 
L 229.933131 101.291547 
L 230.078333 101.291547 
L 230.078333 100.663486 
L 230.709355 100.663486 
L 230.741953 99.407364 
L 230.847028 99.407364 
L 230.890159 98.151242 
L 231.360928 98.151242 
L 231.360928 97.523181 
L 233.002825 97.523181 
L 233.107901 96.267059 
L 236.116837 96.267059 
L 236.221912 94.382876 
L 236.469826 94.382876 
L 236.469826 93.754815 
L 236.633171 93.754815 
L 236.633171 93.126754 
L 237.232179 93.126754 
L 237.232179 92.498693 
L 239.237313 92.498693 
L 239.237313 91.870632 
L 239.74366 91.870632 
L 239.74366 91.242571 
L 241.672306 91.242571 
L 241.672306 90.61451 
L 242.526444 90.61451 
L 242.526444 89.986449 
L 243.524817 89.986449 
L 243.524817 89.358388 
L 244.123826 89.358388 
L 244.123826 88.730327 
L 245.566997 88.730327 
L 245.566997 88.102266 
L 246.166005 88.102266 
L 246.166005 87.474205 
L 246.722085 87.474205 
L 246.769138 86.218083 
L 247.153383 86.218083 
L 247.153383 85.590022 
L 248.219014 85.590022 
L 248.219014 84.961961 
L 248.379774 84.961961 
L 248.379774 84.3339 
L 248.563952 84.3339 
L 248.563952 83.705839 
L 249.41809 83.705839 
L 249.41809 83.077778 
L 250.606132 83.077778 
L 250.606132 82.449717 
L 251.416323 82.449717 
L 251.460269 81.193595 
L 251.626029 81.193595 
L 251.626029 80.565534 
L 252.124189 80.565534 
L 252.124189 79.937473 
L 252.723197 79.937473 
L 252.808421 78.05329 
L 253.192666 78.05329 
L 253.281485 76.797168 
L 253.844159 76.797168 
L 253.844159 76.169107 
L 254.258297 76.169107 
L 254.258297 75.541046 
L 254.443167 75.541046 
L 254.443167 74.912985 
L 255.590464 74.912985 
L 255.590464 74.284924 
L 256.841476 74.284924 
L 256.841476 73.656863 
L 257.163324 73.656863 
L 257.163324 73.028802 
L 257.665311 73.028802 
L 257.665311 72.400741 
L 258.017462 72.400741 
L 258.017462 71.77268 
L 258.883294 71.77268 
L 258.952782 70.516558 
L 259.737432 70.516558 
L 259.737432 69.888497 
L 259.884007 69.888497 
L 259.989083 68.004314 
L 260.036136 68.004314 
L 260.036136 67.376253 
L 260.173131 67.376253 
L 260.173131 66.748192 
L 260.315305 66.748192 
L 260.420381 65.49207 
L 260.773551 65.49207 
L 260.773551 64.864009 
L 261.372559 64.864009 
L 261.380937 63.607887 
L 261.486012 63.607887 
L 261.486012 62.979826 
L 261.629746 62.979826 
L 261.629746 62.351765 
L 262.21531 62.351765 
L 262.21531 61.723704 
L 262.880758 61.723704 
L 262.953895 60.467582 
L 264.196505 60.467582 
L 264.196505 59.839521 
L 264.787951 59.839521 
L 264.893026 58.583399 
L 264.992065 58.583399 
L 264.992065 57.955338 
L 265.812686 57.955338 
L 265.812686 57.327277 
L 266.093406 57.327277 
L 266.093406 56.699216 
L 266.24543 56.699216 
L 266.24543 56.071155 
L 266.457377 56.071155 
L 266.457377 55.443094 
L 266.666823 55.443094 
L 266.666823 54.815033 
L 266.844438 54.815033 
L 266.897004 53.558911 
L 267.496012 53.558911 
L 267.496012 52.93085 
L 268.354279 52.93085 
L 268.354279 52.302789 
L 268.752386 52.302789 
L 268.857461 50.418606 
L 268.993178 50.418606 
L 268.993178 49.790545 
L 269.49059 49.790545 
L 269.571389 48.534423 
L 270.003398 48.534423 
L 270.108474 47.278301 
L 270.492473 47.278301 
L 270.492473 46.65024 
L 271.284565 46.65024 
L 271.284565 46.022179 
L 271.46829 46.022179 
L 271.46829 45.394118 
L 271.936139 45.394118 
L 271.936139 44.766057 
L 272.114704 44.766057 
L 272.21978 42.881874 
L 272.790276 42.881874 
L 272.790276 42.253813 
L 274.773389 42.253813 
L 274.773389 41.625752 
L 275.372397 41.625752 
L 275.372397 40.997691 
L 275.529873 40.997691 
L 275.529873 40.36963 
L 276.115817 40.36963 
L 276.220893 39.113508 
L 277.421864 39.113508 
L 277.421864 38.485447 
L 279.812524 38.485447 
L 279.812524 37.857386 
L 280.666661 37.857386 
L 280.666661 37.229325 
L 281.130291 37.229325 
L 281.130291 36.601264 
L 281.400539 36.601264 
L 281.400539 35.973203 
L 282.613537 35.973203 
L 282.652512 34.717081 
L 282.757588 34.717081 
L 282.757588 34.08902 
L 282.893744 34.08902 
L 282.893744 33.460959 
L 283.545317 33.460959 
L 283.545317 32.832898 
L 283.896036 32.832898 
L 283.896036 32.204837 
L 284.437087 32.204837 
L 284.437087 31.576776 
L 284.707862 31.576776 
L 284.707862 30.948715 
L 287.439821 30.948715 
L 287.439821 30.320654 
L 290.476369 30.320654 
L 290.476369 29.692593 
L 291.421702 29.692593 
L 291.421702 29.064532 
L 293.338559 29.064532 
L 293.385612 27.80841 
L 293.769857 27.80841 
L 293.769857 27.180349 
L 294.562461 27.180349 
L 294.667536 25.924227 
L 294.835489 25.924227 
L 294.835489 25.296166 
L 295.235461 25.296166 
L 295.282514 24.040044 
L 295.666759 24.040044 
L 295.666759 23.411983 
L 296.73239 23.411983 
L 296.73239 22.783922 
L 297.599009 22.783922 
L 297.704085 21.5278 
L 298.242503 21.5278 
L 298.242503 20.899739 
L 300.139404 20.899739 
L 300.139404 20.271678 
L 302.206938 20.271678 
L 302.206938 19.643617 
L 303.45795 19.643617 
L 303.45795 19.015556 
L 304.103839 19.015556 
L 304.103839 18.387495 
L 305.354852 18.387495 
L 305.354852 17.759434 
L 305.569256 17.759434 
L 305.569256 17.131373 
L 307.099187 17.131373 
L 307.099187 16.503312 
L 307.466158 16.503312 
L 307.466158 15.875251 
L 309.570369 15.875251 
L 309.570369 15.24719 
L 311.467271 15.24719 
L 311.467271 14.619129 
L 313.990834 14.619129 
L 313.990834 13.991068 
L 316.033013 13.991068 
L 316.107064 12.734946 
L 318.003966 12.734946 
L 318.003966 12.106885 
L 322.590205 12.106885 
L 322.590205 11.478824 
L 324.310175 11.478824 
L 324.310175 10.850763 
L 328.017013 10.850763 
L 328.017013 10.222702 
L 329.913914 10.222702 
L 329.913914 9.594641 
L 331.053561 9.594641 
L 331.053561 8.96658 
L 331.239567 8.96658 
L 331.239567 8.338519 
L 332.950463 8.338519 
L 332.950463 7.710458 
L 336.711446 7.710458 
L 336.711446 7.082397 
L 337.36302 7.082397 
L 337.36302 6.454336 
L 345.239405 6.454336 
L 345.239405 5.826275 
L 453.192 5.826275 
L 453.192 5.826275 
" clip-path="url(#pa7fb0ba514)" style="fill: none; stroke: #ff0000; stroke-width: 3; stroke-linecap: square"/>
   </g>
   <g id="line2d_68">
    <path clip-path="url(#pa7fb0ba514)" style="fill: none; stroke: #ff0000; stroke-width: 3; stroke-linecap: square"/>
   </g>
   <g id="line2d_69">
    <path d="M 243.676 291.28 
L 243.676 3 
" clip-path="url(#pa7fb0ba514)" style="fill: none; stroke: #000000; stroke-width: 1.5; stroke-linecap: square"/>
   </g>
   <g id="line2d_70">
    <path d="M 34.16 147.14 
L 453.192 147.14 
" clip-path="url(#pa7fb0ba514)" style="fill: none; stroke-dasharray: 2,3.3; stroke-dashoffset: 0; stroke: #000000; stroke-width: 2"/>
   </g>
   <g id="patch_3">
    <path d="M 34.16 291.28 
L 34.16 3 
" style="fill: none; stroke: #000000; stroke-width: 0.8; stroke-linejoin: miter; stroke-linecap: square"/>
   </g>
   <g id="patch_4">
    <path d="M 453.192 291.28 
L 453.192 3 
" style="fill: none; stroke: #000000; stroke-width: 0.8; stroke-linejoin: miter; stroke-linecap: square"/>
   </g>
   <g id="patch_5">
    <path d="M 34.16 291.28 
L 453.192 291.28 
" style="fill: none; stroke: #000000; stroke-width: 0.8; stroke-linejoin: miter; stroke-linecap: square"/>
   </g>
   <g id="patch_6">
    <path d="M 34.16 3 
L 453.192 3 
" style="fill: none; stroke: #000000; stroke-width: 0.8; stroke-linejoin: miter; stroke-linecap: square"/>
   </g>
   <g id="text_5">
    <!-- f6-f8,10-D -->
    <g transform="translate(343.64261 285.5144) scale(0.2 -0.2)">
     <defs>
      <path id="DejaVuSans-36" d="M 2113 2584 
Q 1688 2584 1439 2293 
Q 1191 2003 1191 1497 
Q 1191 994 1439 701 
Q 1688 409 2113 409 
Q 2538 409 2786 701 
Q 3034 994 3034 1497 
Q 3034 2003 2786 2293 
Q 2538 2584 2113 2584 
z
M 3366 4563 
L 3366 3988 
Q 3128 4100 2886 4159 
Q 2644 4219 2406 4219 
Q 1781 4219 1451 3797 
Q 1122 3375 1075 2522 
Q 1259 2794 1537 2939 
Q 1816 3084 2150 3084 
Q 2853 3084 3261 2657 
Q 3669 2231 3669 1497 
Q 3669 778 3244 343 
Q 2819 -91 2113 -91 
Q 1303 -91 875 529 
Q 447 1150 447 2328 
Q 447 3434 972 4092 
Q 1497 4750 2381 4750 
Q 2619 4750 2861 4703 
Q 3103 4656 3366 4563 
z
" transform="scale(0.015625)"/>
      <path id="DejaVuSans-38" d="M 2034 2216 
Q 1584 2216 1326 1975 
Q 1069 1734 1069 1313 
Q 1069 891 1326 650 
Q 1584 409 2034 409 
Q 2484 409 2743 651 
Q 3003 894 3003 1313 
Q 3003 1734 2745 1975 
Q 2488 2216 2034 2216 
z
M 1403 2484 
Q 997 2584 770 2862 
Q 544 3141 544 3541 
Q 544 4100 942 4425 
Q 1341 4750 2034 4750 
Q 2731 4750 3128 4425 
Q 3525 4100 3525 3541 
Q 3525 3141 3298 2862 
Q 3072 2584 2669 2484 
Q 3125 2378 3379 2068 
Q 3634 1759 3634 1313 
Q 3634 634 3220 271 
Q 2806 -91 2034 -91 
Q 1263 -91 848 271 
Q 434 634 434 1313 
Q 434 1759 690 2068 
Q 947 2378 1403 2484 
z
M 1172 3481 
Q 1172 3119 1398 2916 
Q 1625 2713 2034 2713 
Q 2441 2713 2670 2916 
Q 2900 3119 2900 3481 
Q 2900 3844 2670 4047 
Q 2441 4250 2034 4250 
Q 1625 4250 1398 4047 
Q 1172 3844 1172 3481 
z
" transform="scale(0.015625)"/>
      <path id="DejaVuSans-2c" d="M 750 794 
L 1409 794 
L 1409 256 
L 897 -744 
L 494 -744 
L 750 256 
L 750 794 
z
" transform="scale(0.015625)"/>
      <path id="DejaVuSans-44" d="M 1259 4147 
L 1259 519 
L 2022 519 
Q 2988 519 3436 956 
Q 3884 1394 3884 2338 
Q 3884 3275 3436 3711 
Q 2988 4147 2022 4147 
L 1259 4147 
z
M 628 4666 
L 1925 4666 
Q 3281 4666 3915 4102 
Q 4550 3538 4550 2338 
Q 4550 1131 3912 565 
Q 3275 0 1925 0 
L 628 0 
L 628 4666 
z
" transform="scale(0.015625)"/>
     </defs>
     <use xlink:href="#DejaVuSans-66"/>
     <use xlink:href="#DejaVuSans-36" x="35.205078"/>
     <use xlink:href="#DejaVuSans-2d" x="98.828125"/>
     <use xlink:href="#DejaVuSans-66" x="134.912109"/>
     <use xlink:href="#DejaVuSans-38" x="170.117188"/>
     <use xlink:href="#DejaVuSans-2c" x="233.740234"/>
     <use xlink:href="#DejaVuSans-31" x="265.527344"/>
     <use xlink:href="#DejaVuSans-30" x="329.150391"/>
     <use xlink:href="#DejaVuSans-2d" x="392.773438"/>
     <use xlink:href="#DejaVuSans-44" x="428.857422"/>
    </g>
   </g>
   <g id="text_6">
    <!-- v2.6.3 -->
    <g style="fill: #808080" transform="translate(227.99475 286.317512) scale(0.1 -0.1)">
     <defs>
      <path id="DejaVuSans-32" d="M 1228 531 
L 3431 531 
L 3431 0 
L 469 0 
L 469 531 
Q 828 903 1448 1529 
Q 2069 2156 2228 2338 
Q 2531 2678 2651 2914 
Q 2772 3150 2772 3378 
Q 2772 3750 2511 3984 
Q 2250 4219 1831 4219 
Q 1534 4219 1204 4116 
Q 875 4013 500 3803 
L 500 4441 
Q 881 4594 1212 4672 
Q 1544 4750 1819 4750 
Q 2544 4750 2975 4387 
Q 3406 4025 3406 3419 
Q 3406 3131 3298 2873 
Q 3191 2616 2906 2266 
Q 2828 2175 2409 1742 
Q 1991 1309 1228 531 
z
" transform="scale(0.015625)"/>
      <path id="DejaVuSans-2e" d="M 684 794 
L 1344 794 
L 1344 0 
L 684 0 
L 684 794 
z
" transform="scale(0.015625)"/>
      <path id="DejaVuSans-33" d="M 2597 2516 
Q 3050 2419 3304 2112 
Q 3559 1806 3559 1356 
Q 3559 666 3084 287 
Q 2609 -91 1734 -91 
Q 1441 -91 1130 -33 
Q 819 25 488 141 
L 488 750 
Q 750 597 1062 519 
Q 1375 441 1716 441 
Q 2309 441 2620 675 
Q 2931 909 2931 1356 
Q 2931 1769 2642 2001 
Q 2353 2234 1838 2234 
L 1294 2234 
L 1294 2753 
L 1863 2753 
Q 2328 2753 2575 2939 
Q 2822 3125 2822 3475 
Q 2822 3834 2567 4026 
Q 2313 4219 1838 4219 
Q 1578 4219 1281 4162 
Q 984 4106 628 3988 
L 628 4550 
Q 988 4650 1302 4700 
Q 1616 4750 1894 4750 
Q 2613 4750 3031 4423 
Q 3450 4097 3450 3541 
Q 3450 3153 3228 2886 
Q 3006 2619 2597 2516 
z
" transform="scale(0.015625)"/>
     </defs>
     <use xlink:href="#DejaVuSans-76"/>
     <use xlink:href="#DejaVuSans-32" x="59.179688"/>
     <use xlink:href="#DejaVuSans-2e" x="122.802734"/>
     <use xlink:href="#DejaVuSans-36" x="154.589844"/>
     <use xlink:href="#DejaVuSans-2e" x="218.212891"/>
     <use xlink:href="#DejaVuSans-33" x="250"/>
    </g>
   </g>
   <g id="legend_1">
    <g id="patch_7">
     <path d="M 48.16 136.425 
L 177.381875 136.425 
Q 181.381875 136.425 181.381875 132.425 
L 181.381875 17 
Q 181.381875 13 177.381875 13 
L 48.16 13 
Q 44.16 13 44.16 17 
L 44.16 132.425 
Q 44.16 136.425 48.16 136.425 
z
" style="fill: #ffffff; opacity: 0.2; stroke: #cccccc; stroke-linejoin: miter"/>
    </g>
    <g id="line2d_71">
     <path d="M 52.16 29.196875 
L 72.16 29.196875 
L 92.16 29.196875 
" style="fill: none; stroke: #000000; stroke-width: 3; stroke-linecap: square"/>
    </g>
    <g id="text_7">
     <!-- 1: 3/3 -->
     <g transform="translate(108.16 36.196875) scale(0.2 -0.2)">
      <defs>
       <path id="DejaVuSans-3a" d="M 750 794 
L 1409 794 
L 1409 0 
L 750 0 
L 750 794 
z
M 750 3309 
L 1409 3309 
L 1409 2516 
L 750 2516 
L 750 3309 
z
" transform="scale(0.015625)"/>
       <path id="DejaVuSans-2f" d="M 1625 4666 
L 2156 4666 
L 531 -594 
L 0 -594 
L 1625 4666 
z
" transform="scale(0.015625)"/>
      </defs>
      <use xlink:href="#DejaVuSans-31"/>
      <use xlink:href="#DejaVuSans-3a" x="63.623047"/>
      <use xlink:href="#DejaVuSans-20" x="97.314453"/>
      <use xlink:href="#DejaVuSans-33" x="129.101562"/>
      <use xlink:href="#DejaVuSans-2f" x="192.724609"/>
      <use xlink:href="#DejaVuSans-33" x="226.416016"/>
     </g>
    </g>
    <g id="line2d_72">
     <path d="M 52.16 58.553125 
L 72.16 58.553125 
L 92.16 58.553125 
" style="fill: none; stroke: #00bfbf; stroke-width: 3; stroke-linecap: square"/>
    </g>
    <g id="text_8">
     <!-- -1: 3/3 -->
     <g transform="translate(108.16 65.553125) scale(0.2 -0.2)">
      <use xlink:href="#DejaVuSans-2d"/>
      <use xlink:href="#DejaVuSans-31" x="36.083984"/>
      <use xlink:href="#DejaVuSans-3a" x="99.707031"/>
      <use xlink:href="#DejaVuSans-20" x="133.398438"/>
      <use xlink:href="#DejaVuSans-33" x="165.185547"/>
      <use xlink:href="#DejaVuSans-2f" x="228.808594"/>
      <use xlink:href="#DejaVuSans-33" x="262.5"/>
     </g>
    </g>
    <g id="line2d_73">
     <path d="M 52.16 87.909375 
L 72.16 87.909375 
L 92.16 87.909375 
" style="fill: none; stroke: #bf00bf; stroke-width: 3; stroke-linecap: square"/>
    </g>
    <g id="text_9">
     <!-- -4: 2/2 -->
     <g transform="translate(108.16 94.909375) scale(0.2 -0.2)">
      <defs>
       <path id="DejaVuSans-34" d="M 2419 4116 
L 825 1625 
L 2419 1625 
L 2419 4116 
z
M 2253 4666 
L 3047 4666 
L 3047 1625 
L 3713 1625 
L 3713 1100 
L 3047 1100 
L 3047 0 
L 2419 0 
L 2419 1100 
L 313 1100 
L 313 1709 
L 2253 4666 
z
" transform="scale(0.015625)"/>
      </defs>
      <use xlink:href="#DejaVuSans-2d"/>
      <use xlink:href="#DejaVuSans-34" x="36.083984"/>
      <use xlink:href="#DejaVuSans-3a" x="99.707031"/>
      <use xlink:href="#DejaVuSans-20" x="133.398438"/>
      <use xlink:href="#DejaVuSans-32" x="165.185547"/>
      <use xlink:href="#DejaVuSans-2f" x="228.808594"/>
      <use xlink:href="#DejaVuSans-32" x="262.5"/>
     </g>
    </g>
    <g id="line2d_74">
     <path d="M 52.16 117.265625 
L 72.16 117.265625 
L 92.16 117.265625 
" style="fill: none; stroke: #ff0000; stroke-width: 3; stroke-linecap: square"/>
    </g>
    <g id="text_10">
     <!-- -8: 2/2 -->
     <g transform="translate(108.16 124.265625) scale(0.2 -0.2)">
      <use xlink:href="#DejaVuSans-2d"/>
      <use xlink:href="#DejaVuSans-38" x="36.083984"/>
      <use xlink:href="#DejaVuSans-3a" x="99.707031"/>
      <use xlink:href="#DejaVuSans-20" x="133.398438"/>
      <use xlink:href="#DejaVuSans-32" x="165.185547"/>
      <use xlink:href="#DejaVuSans-2f" x="228.808594"/>
      <use xlink:href="#DejaVuSans-32" x="262.5"/>
     </g>
    </g>
   </g>
  </g>
 </g>
 <defs>
  <clipPath id="pa7fb0ba514">
   <rect x="34.16" y="3" width="419.032" height="288.28"/>
  </clipPath>
 </defs>
</svg>
