<?xml version="1.0" encoding="utf-8" standalone="no"?>
<!DOCTYPE svg PUBLIC "-//W3C//DTD SVG 1.1//EN"
  "http://www.w3.org/Graphics/SVG/1.1/DTD/svg11.dtd">
<svg xmlns:xlink="http://www.w3.org/1999/xlink" width="460.8pt" height="345.6pt" viewBox="0 0 460.8 345.6" xmlns="http://www.w3.org/2000/svg" version="1.1">
 <metadata>
  <rdf:RDF xmlns:dc="http://purl.org/dc/elements/1.1/" xmlns:cc="http://creativecommons.org/ns#" xmlns:rdf="http://www.w3.org/1999/02/22-rdf-syntax-ns#">
   <cc:Work>
    <dc:type rdf:resource="http://purl.org/dc/dcmitype/StillImage"/>
    <dc:date>2024-06-07T14:18:00.055838</dc:date>
    <dc:format>image/svg+xml</dc:format>
    <dc:creator>
     <cc:Agent>
      <dc:title>Matplotlib v3.7.1, https://matplotlib.org/</dc:title>
     </cc:Agent>
    </dc:creator>
   </cc:Work>
  </rdf:RDF>
 </metadata>
 <defs>
  <style type="text/css">*{stroke-linejoin: round; stroke-linecap: butt}</style>
 </defs>
 <g id="figure_1">
  <g id="patch_1">
   <path d="M 0 345.6 
L 460.8 345.6 
L 460.8 0 
L 0 0 
z
" style="fill: #ffffff"/>
  </g>
  <g id="axes_1">
   <g id="patch_2">
    <path d="M 62.208 293.76 
L 460.8 293.76 
L 460.8 3.456 
L 62.208 3.456 
z
" style="fill: #ffffff"/>
   </g>
   <g id="line2d_1">
    <path d="M 258.371696 293.76 
L 258.371696 289.927604 
L 261.507696 289.927604 
L 261.507696 286.095208 
L 269.051751 286.095208 
L 269.051751 282.262812 
L 280.376084 282.262812 
L 280.376084 278.430416 
L 300.708213 278.430416 
L 300.708213 274.59802 
L 309.631391 274.59802 
L 309.631391 270.765624 
L 309.631391 270.765624 
L 309.631391 270.765624 
L 460.8 270.765624 
" clip-path="url(#pcf167777f1)" style="fill: none; stroke: #f5deb3; stroke-width: 1.5; stroke-linecap: square"/>
   </g>
   <g id="line2d_2">
    <path d="M 384.368285 293.76 
L 384.368285 282.262812 
L 384.368285 282.262812 
L 384.368285 282.262812 
L 460.8 282.262812 
" clip-path="url(#pcf167777f1)" style="fill: none; stroke: #f5deb3; stroke-width: 1.5; stroke-linecap: square"/>
   </g>
   <g id="line2d_3">
    <path d="M 207.752309 293.76 
L 207.752309 289.927604 
L 213.985579 289.927604 
L 213.985579 286.095208 
L 269.396035 286.095208 
L 269.396035 282.262812 
L 272.489456 282.262812 
L 272.489456 278.430416 
L 282.05011 278.430416 
L 282.05011 274.59802 
L 284.667994 274.59802 
L 284.667994 270.765624 
L 287.65403 270.765624 
L 287.65403 266.933228 
L 298.360187 266.933228 
L 298.360187 263.100832 
L 299.540491 263.100832 
L 299.540491 259.268436 
L 299.928553 259.268436 
L 299.928553 255.43604 
L 300.510978 255.43604 
L 300.510978 251.603644 
L 303.94238 251.603644 
L 303.94238 247.771248 
L 310.35576 247.771248 
L 310.35576 243.938851 
L 315.122342 243.938851 
L 315.122342 240.106455 
L 315.638193 240.106455 
L 315.638193 236.274059 
L 323.811088 236.274059 
L 323.811088 232.441663 
L 324.968984 232.441663 
L 324.968984 228.609267 
L 328.305322 228.609267 
L 328.305322 224.776871 
L 351.012162 224.776871 
L 351.012162 220.944475 
L 352.3301 220.944475 
L 352.3301 217.112079 
L 354.864872 217.112079 
L 354.864872 213.279683 
L 357.435446 213.279683 
L 357.435446 209.447287 
L 358.430652 209.447287 
L 358.430652 205.614891 
L 364.353754 205.614891 
L 364.353754 201.782495 
L 364.81487 201.782495 
L 364.81487 197.950099 
L 380.126069 197.950099 
L 380.126069 194.117703 
L 381.797844 194.117703 
L 381.797844 190.285307 
L 383.802003 190.285307 
L 383.802003 186.452911 
L 390.260668 186.452911 
L 390.260668 182.620515 
L 401.488304 182.620515 
L 401.488304 178.788119 
L 401.488304 178.788119 
L 401.488304 178.788119 
L 460.8 178.788119 
" clip-path="url(#pcf167777f1)" style="fill: none; stroke: #f5deb3; stroke-width: 1.5; stroke-linecap: square"/>
   </g>
   <g id="line2d_4">
    <path d="M 221.319088 293.76 
L 221.319088 289.927604 
L 225.149562 289.927604 
L 225.149562 286.095208 
L 251.507176 286.095208 
L 251.507176 282.262812 
L 271.268847 282.262812 
L 271.268847 278.430416 
L 272.89826 278.430416 
L 272.89826 274.59802 
L 281.17817 274.59802 
L 281.17817 270.765624 
L 285.689425 270.765624 
L 285.689425 266.933228 
L 302.301402 266.933228 
L 302.301402 263.100832 
L 302.863396 263.100832 
L 302.863396 259.268436 
L 318.414729 259.268436 
L 318.414729 255.43604 
L 319.804597 255.43604 
L 319.804597 251.603644 
L 324.735339 251.603644 
L 324.735339 247.771248 
L 330.330617 247.771248 
L 330.330617 243.938851 
L 330.881776 243.938851 
L 330.881776 240.106455 
L 336.798252 240.106455 
L 336.798252 236.274059 
L 343.676591 236.274059 
L 343.676591 232.441663 
L 358.724573 232.441663 
L 358.724573 228.609267 
L 359.947558 228.609267 
L 359.947558 224.776871 
L 360.692755 224.776871 
L 360.692755 220.944475 
L 361.318155 220.944475 
L 361.318155 217.112079 
L 364.316394 217.112079 
L 364.316394 213.279683 
L 367.482644 213.279683 
L 367.482644 209.447287 
L 374.188408 209.447287 
L 374.188408 205.614891 
L 376.74425 205.614891 
L 376.74425 201.782495 
L 376.778531 201.782495 
L 376.778531 197.950099 
L 384.687189 197.950099 
L 384.687189 194.117703 
L 391.989005 194.117703 
L 391.989005 190.285307 
L 399.268156 190.285307 
L 399.268156 186.452911 
L 404.797305 186.452911 
L 404.797305 182.620515 
L 405.873707 182.620515 
L 405.873707 178.788119 
L 405.873707 178.788119 
L 405.873707 178.788119 
L 460.8 178.788119 
" clip-path="url(#pcf167777f1)" style="fill: none; stroke: #f5deb3; stroke-width: 1.5; stroke-linecap: square"/>
   </g>
   <g id="line2d_5"/>
   <g id="line2d_6"/>
   <g id="line2d_7">
    <path d="M 250.313197 293.76 
L 250.313197 289.927604 
L 351.439098 289.927604 
L 351.439098 286.095208 
L 354.415122 286.095208 
L 354.415122 282.262812 
L 356.711167 282.262812 
L 356.711167 278.430416 
L 378.033858 278.430416 
L 378.033858 274.59802 
L 381.41338 274.59802 
L 381.41338 270.765624 
L 382.895874 270.765624 
L 382.895874 266.933228 
L 387.710097 266.933228 
L 387.710097 263.100832 
L 410.236243 263.100832 
L 410.236243 259.268436 
L 418.546586 259.268436 
L 418.546586 255.43604 
L 419.606491 255.43604 
L 419.606491 251.603644 
L 424.963346 251.603644 
L 424.963346 247.771248 
L 425.021439 247.771248 
L 425.021439 243.938851 
L 439.764306 243.938851 
L 439.764306 240.106455 
L 459.680741 240.106455 
L 459.680741 236.274059 
L 461.8 236.274059 
" clip-path="url(#pcf167777f1)" style="fill: none; stroke: #f5deb3; stroke-width: 1.5; stroke-linecap: square"/>
   </g>
   <g id="line2d_8">
    <path d="M 382.764659 293.76 
L 382.764659 289.927604 
L 386.785014 289.927604 
L 386.785014 286.095208 
L 414.82458 286.095208 
L 414.82458 282.262812 
L 416.133989 282.262812 
L 416.133989 278.430416 
L 456.769301 278.430416 
L 456.769301 274.59802 
L 461.8 274.59802 
" clip-path="url(#pcf167777f1)" style="fill: none; stroke: #f5deb3; stroke-width: 1.5; stroke-linecap: square"/>
   </g>
   <g id="line2d_9">
    <path d="M 240.241708 293.76 
L 240.241708 289.927604 
L 244.474764 289.927604 
L 244.474764 286.095208 
L 339.034818 286.095208 
L 339.034818 282.262812 
L 348.669165 282.262812 
L 348.669165 278.430416 
L 359.243418 278.430416 
L 359.243418 274.59802 
L 360.924355 274.59802 
L 360.924355 270.765624 
L 361.454724 270.765624 
L 361.454724 266.933228 
L 373.972267 266.933228 
L 373.972267 263.100832 
L 374.643422 263.100832 
L 374.643422 259.268436 
L 374.70595 259.268436 
L 374.70595 255.43604 
L 375.446275 255.43604 
L 375.446275 251.603644 
L 378.919869 251.603644 
L 378.919869 247.771248 
L 388.192536 247.771248 
L 388.192536 243.938851 
L 392.724596 243.938851 
L 392.724596 240.106455 
L 401.832098 240.106455 
L 401.832098 236.274059 
L 411.590483 236.274059 
L 411.590483 232.441663 
L 414.711358 232.441663 
L 414.711358 228.609267 
L 417.020364 228.609267 
L 417.020364 224.776871 
L 417.305796 224.776871 
L 417.305796 220.944475 
L 426.810881 220.944475 
L 426.810881 217.112079 
L 428.620083 217.112079 
L 428.620083 213.279683 
L 428.700737 213.279683 
L 428.700737 209.447287 
L 431.906756 209.447287 
L 431.906756 205.614891 
L 436.300102 205.614891 
L 436.300102 201.782495 
L 443.310371 201.782495 
L 443.310371 197.950099 
L 445.929991 197.950099 
L 445.929991 194.117703 
L 446.97881 194.117703 
L 446.97881 190.285307 
L 449.04946 190.285307 
L 449.04946 186.452911 
L 454.949353 186.452911 
L 454.949353 182.620515 
L 455.532197 182.620515 
L 455.532197 178.788119 
L 461.8 178.788119 
" clip-path="url(#pcf167777f1)" style="fill: none; stroke: #f5deb3; stroke-width: 1.5; stroke-linecap: square"/>
   </g>
   <g id="line2d_10">
    <path d="M 407.069759 293.76 
L 407.069759 289.927604 
L 415.306822 289.927604 
L 415.306822 286.095208 
L 461.73395 286.095208 
L 461.73395 282.262812 
L 461.8 282.262812 
" clip-path="url(#pcf167777f1)" style="fill: none; stroke: #f5deb3; stroke-width: 1.5; stroke-linecap: square"/>
   </g>
   <g id="line2d_11">
    <path d="M 222.561405 293.76 
L 222.561405 289.927604 
L 223.595089 289.927604 
L 223.595089 286.095208 
L 264.852635 286.095208 
L 264.852635 282.262812 
L 317.877224 282.262812 
L 317.877224 278.430416 
L 344.13465 278.430416 
L 344.13465 274.59802 
L 356.479015 274.59802 
L 356.479015 270.765624 
L 357.304459 270.765624 
L 357.304459 266.933228 
L 359.719684 266.933228 
L 359.719684 263.100832 
L 360.274868 263.100832 
L 360.274868 259.268436 
L 367.453514 259.268436 
L 367.453514 255.43604 
L 372.634125 255.43604 
L 372.634125 251.603644 
L 378.451604 251.603644 
L 378.451604 247.771248 
L 390.88646 247.771248 
L 390.88646 243.938851 
L 391.658815 243.938851 
L 391.658815 240.106455 
L 392.98256 240.106455 
L 392.98256 236.274059 
L 399.029023 236.274059 
L 399.029023 232.441663 
L 401.30375 232.441663 
L 401.30375 228.609267 
L 413.953769 228.609267 
L 413.953769 224.776871 
L 414.017837 224.776871 
L 414.017837 220.944475 
L 414.576906 220.944475 
L 414.576906 217.112079 
L 417.842289 217.112079 
L 417.842289 213.279683 
L 422.585984 213.279683 
L 422.585984 209.447287 
L 428.609621 209.447287 
L 428.609621 205.614891 
L 429.038915 205.614891 
L 429.038915 201.782495 
L 432.932987 201.782495 
L 432.932987 197.950099 
L 434.334503 197.950099 
L 434.334503 194.117703 
L 440.784862 194.117703 
L 440.784862 190.285307 
L 442.80086 190.285307 
L 442.80086 186.452911 
L 445.789415 186.452911 
L 445.789415 182.620515 
L 461.8 182.620515 
" clip-path="url(#pcf167777f1)" style="fill: none; stroke: #f5deb3; stroke-width: 1.5; stroke-linecap: square"/>
   </g>
   <g id="line2d_12">
    <path d="M 278.260177 293.76 
L 278.260177 289.927604 
L 305.321899 289.927604 
L 305.321899 286.095208 
L 316.11684 286.095208 
L 316.11684 282.262812 
L 346.750868 282.262812 
L 346.750868 278.430416 
L 359.379398 278.430416 
L 359.379398 274.59802 
L 360.513765 274.59802 
L 360.513765 270.765624 
L 363.470417 270.765624 
L 363.470417 266.933228 
L 366.079416 266.933228 
L 366.079416 263.100832 
L 367.749076 263.100832 
L 367.749076 259.268436 
L 369.34898 259.268436 
L 369.34898 255.43604 
L 374.188408 255.43604 
L 374.188408 251.603644 
L 382.237959 251.603644 
L 382.237959 247.771248 
L 386.68413 247.771248 
L 386.68413 243.938851 
L 386.68413 243.938851 
L 386.68413 243.938851 
L 460.8 243.938851 
" clip-path="url(#pcf167777f1)" style="fill: none; stroke: #f5deb3; stroke-width: 1.5; stroke-linecap: square"/>
   </g>
   <g id="line2d_13">
    <path d="M 314.213176 293.76 
L 314.213176 289.927604 
L 334.164785 289.927604 
L 334.164785 286.095208 
L 337.819606 286.095208 
L 337.819606 282.262812 
L 337.819606 282.262812 
L 337.819606 282.262812 
L 460.8 282.262812 
" clip-path="url(#pcf167777f1)" style="fill: none; stroke: #f5deb3; stroke-width: 1.5; stroke-linecap: square"/>
   </g>
   <g id="line2d_14">
    <path d="M 252.478934 293.76 
L 252.478934 289.927604 
L 254.83072 289.927604 
L 254.83072 286.095208 
L 308.530822 286.095208 
L 308.530822 282.262812 
L 321.918962 282.262812 
L 321.918962 278.430416 
L 326.661943 278.430416 
L 326.661943 274.59802 
L 344.867806 274.59802 
L 344.867806 270.765624 
L 349.811367 270.765624 
L 349.811367 266.933228 
L 351.338358 266.933228 
L 351.338358 263.100832 
L 352.528141 263.100832 
L 352.528141 259.268436 
L 355.302126 259.268436 
L 355.302126 255.43604 
L 356.854677 255.43604 
L 356.854677 251.603644 
L 358.068513 251.603644 
L 358.068513 247.771248 
L 373.453707 247.771248 
L 373.453707 243.938851 
L 374.240589 243.938851 
L 374.240589 240.106455 
L 375.865411 240.106455 
L 375.865411 236.274059 
L 375.984327 236.274059 
L 375.984327 232.441663 
L 376.323116 232.441663 
L 376.323116 228.609267 
L 382.501768 228.609267 
L 382.501768 224.776871 
L 382.789518 224.776871 
L 382.789518 220.944475 
L 387.247583 220.944475 
L 387.247583 217.112079 
L 388.923141 217.112079 
L 388.923141 213.279683 
L 393.772183 213.279683 
L 393.772183 209.447287 
L 397.127431 209.447287 
L 397.127431 205.614891 
L 402.199578 205.614891 
L 402.199578 201.782495 
L 414.095518 201.782495 
L 414.095518 197.950099 
L 414.095518 197.950099 
L 414.095518 197.950099 
L 460.8 197.950099 
" clip-path="url(#pcf167777f1)" style="fill: none; stroke: #f5deb3; stroke-width: 1.5; stroke-linecap: square"/>
   </g>
   <g id="line2d_15">
    <path d="M 442.121731 293.76 
L 442.121731 289.927604 
L 446.925624 289.927604 
L 446.925624 286.095208 
L 449.305557 286.095208 
L 449.305557 282.262812 
L 449.305557 282.262812 
L 449.305557 282.262812 
L 460.8 282.262812 
" clip-path="url(#pcf167777f1)" style="fill: none; stroke: #f5deb3; stroke-width: 1.5; stroke-linecap: square"/>
   </g>
   <g id="line2d_16">
    <path d="M 363.271487 293.76 
L 363.271487 289.927604 
L 394.769814 289.927604 
L 394.769814 286.095208 
L 428.256784 286.095208 
L 428.256784 282.262812 
L 439.869434 282.262812 
L 439.869434 278.430416 
L 440.580088 278.430416 
L 440.580088 274.59802 
L 455.998706 274.59802 
L 455.998706 270.765624 
L 461.8 270.765624 
" clip-path="url(#pcf167777f1)" style="fill: none; stroke: #f5deb3; stroke-width: 1.5; stroke-linecap: square"/>
   </g>
   <g id="line2d_17">
    <path d="M 357.552265 293.76 
L 357.552265 289.927604 
L 364.916905 289.927604 
L 364.916905 286.095208 
L 372.239879 286.095208 
L 372.239879 282.262812 
L 377.460839 282.262812 
L 377.460839 278.430416 
L 377.460839 278.430416 
L 377.460839 278.430416 
L 460.8 278.430416 
" clip-path="url(#pcf167777f1)" style="fill: none; stroke: #f5deb3; stroke-width: 1.5; stroke-linecap: square"/>
   </g>
   <g id="line2d_18">
    <path d="M 213.398573 293.76 
L 213.398573 289.927604 
L 218.188147 289.927604 
L 218.188147 286.095208 
L 218.188147 286.095208 
L 218.188147 282.262812 
L 220.895864 282.262812 
L 220.895864 278.430416 
L 267.588948 278.430416 
L 267.588948 274.59802 
L 276.450545 274.59802 
L 276.450545 270.765624 
L 278.164883 270.765624 
L 278.164883 266.933228 
L 279.517389 266.933228 
L 279.517389 263.100832 
L 284.437262 263.100832 
L 284.437262 259.268436 
L 290.463581 259.268436 
L 290.463581 255.43604 
L 292.278604 255.43604 
L 292.278604 251.603644 
L 295.789998 251.603644 
L 295.789998 247.771248 
L 298.069473 247.771248 
L 298.069473 243.938851 
L 308.096561 243.938851 
L 308.096561 240.106455 
L 314.981863 240.106455 
L 314.981863 236.274059 
L 323.168264 236.274059 
L 323.168264 232.441663 
L 323.848324 232.441663 
L 323.848324 228.609267 
L 325.213185 228.609267 
L 325.213185 224.776871 
L 329.088684 224.776871 
L 329.088684 220.944475 
L 344.546367 220.944475 
L 344.546367 217.112079 
L 353.071873 217.112079 
L 353.071873 213.279683 
L 356.140588 213.279683 
L 356.140588 209.447287 
L 361.767919 209.447287 
L 361.767919 205.614891 
L 376.153568 205.614891 
L 376.153568 201.782495 
L 381.739507 201.782495 
L 381.739507 197.950099 
L 383.18069 197.950099 
L 383.18069 194.117703 
L 386.047921 194.117703 
L 386.047921 190.285307 
L 386.047921 190.285307 
L 386.047921 190.285307 
L 460.8 190.285307 
" clip-path="url(#pcf167777f1)" style="fill: none; stroke: #f5deb3; stroke-width: 1.5; stroke-linecap: square"/>
   </g>
   <g id="line2d_19">
    <path d="M 369.965478 293.76 
L 369.965478 290.338218 
L 371.15986 290.338218 
L 371.15986 286.916436 
L 373.738041 286.916436 
L 373.738041 283.494653 
L 380.027944 283.494653 
L 380.027944 280.072871 
L 381.799665 280.072871 
L 381.799665 276.651089 
L 382.622298 276.651089 
L 382.622298 273.229307 
L 384.576383 273.229307 
L 384.576383 269.807525 
L 384.582312 269.807525 
L 384.582312 266.385743 
L 387.436719 266.385743 
L 387.436719 262.96396 
L 390.81887 262.96396 
L 390.81887 259.542178 
L 401.014213 259.542178 
L 401.014213 256.120396 
L 406.887583 256.120396 
L 406.887583 252.698614 
L 410.604228 252.698614 
L 410.604228 249.276832 
L 410.754201 249.276832 
L 410.754201 245.85505 
L 427.146019 245.85505 
L 427.146019 242.433267 
L 436.642305 242.433267 
L 436.642305 239.011485 
L 437.249429 239.011485 
L 437.249429 235.589703 
L 447.062098 235.589703 
L 447.062098 232.167921 
L 449.50868 232.167921 
L 449.50868 228.746139 
L 449.924644 228.746139 
L 449.924644 225.324356 
L 455.28376 225.324356 
L 455.28376 221.902574 
L 456.760425 221.902574 
L 456.760425 218.480792 
L 456.825856 218.480792 
L 456.825856 215.05901 
L 459.937616 215.05901 
L 459.937616 211.637228 
L 461.8 211.637228 
" clip-path="url(#pcf167777f1)" style="fill: none; stroke: #f5deb3; stroke-width: 1.5; stroke-linecap: square"/>
   </g>
   <g id="line2d_20">
    <path d="M 234.086002 293.76 
L 234.086002 289.927604 
L 276.550195 289.927604 
L 276.550195 286.095208 
L 278.719691 286.095208 
L 278.719691 282.262812 
L 290.314991 282.262812 
L 290.314991 278.430416 
L 293.228505 278.430416 
L 293.228505 274.59802 
L 298.287715 274.59802 
L 298.287715 270.765624 
L 305.382221 270.765624 
L 305.382221 266.933228 
L 305.815086 266.933228 
L 305.815086 263.100832 
L 314.709849 263.100832 
L 314.709849 259.268436 
L 314.751823 259.268436 
L 314.751823 255.43604 
L 328.44128 255.43604 
L 328.44128 251.603644 
L 332.843971 251.603644 
L 332.843971 247.771248 
L 333.007109 247.771248 
L 333.007109 243.938851 
L 335.103997 243.938851 
L 335.103997 240.106455 
L 338.156939 240.106455 
L 338.156939 236.274059 
L 341.598073 236.274059 
L 341.598073 232.441663 
L 346.796324 232.441663 
L 346.796324 228.609267 
L 348.998693 228.609267 
L 348.998693 224.776871 
L 350.703682 224.776871 
L 350.703682 220.944475 
L 353.827922 220.944475 
L 353.827922 217.112079 
L 360.574049 217.112079 
L 360.574049 213.279683 
L 361.446978 213.279683 
L 361.446978 209.447287 
L 362.42904 209.447287 
L 362.42904 205.614891 
L 363.172374 205.614891 
L 363.172374 201.782495 
L 370.728178 201.782495 
L 370.728178 197.950099 
L 370.99719 197.950099 
L 370.99719 194.117703 
L 378.693367 194.117703 
L 378.693367 190.285307 
L 399.228308 190.285307 
L 399.228308 186.452911 
L 406.565004 186.452911 
L 406.565004 182.620515 
L 406.565004 182.620515 
L 406.565004 182.620515 
L 460.8 182.620515 
" clip-path="url(#pcf167777f1)" style="fill: none; stroke: #f5deb3; stroke-width: 1.5; stroke-linecap: square"/>
   </g>
   <g id="line2d_21"/>
   <g id="line2d_22">
    <path d="M 233.390384 293.76 
L 233.390384 289.927604 
L 248.464204 289.927604 
L 248.464204 286.095208 
L 251.397665 286.095208 
L 251.397665 282.262812 
L 253.426646 282.262812 
L 253.426646 278.430416 
L 257.95812 278.430416 
L 257.95812 274.59802 
L 295.322586 274.59802 
L 295.322586 270.765624 
L 306.956743 270.765624 
L 306.956743 266.933228 
L 315.862986 266.933228 
L 315.862986 263.100832 
L 335.337543 263.100832 
L 335.337543 259.268436 
L 344.851081 259.268436 
L 344.851081 255.43604 
L 345.39683 255.43604 
L 345.39683 251.603644 
L 346.650674 251.603644 
L 346.650674 247.771248 
L 357.612255 247.771248 
L 357.612255 243.938851 
L 360.623159 243.938851 
L 360.623159 240.106455 
L 367.725409 240.106455 
L 367.725409 236.274059 
L 384.028662 236.274059 
L 384.028662 232.441663 
L 386.382299 232.441663 
L 386.382299 228.609267 
L 398.987181 228.609267 
L 398.987181 224.776871 
L 401.200712 224.776871 
L 401.200712 220.944475 
L 402.38094 220.944475 
L 402.38094 217.112079 
L 409.930725 217.112079 
L 409.930725 213.279683 
L 412.788728 213.279683 
L 412.788728 209.447287 
L 415.243735 209.447287 
L 415.243735 205.614891 
L 418.731422 205.614891 
L 418.731422 201.782495 
L 429.044487 201.782495 
L 429.044487 197.950099 
L 431.846148 197.950099 
L 431.846148 194.117703 
L 439.453448 194.117703 
L 439.453448 190.285307 
L 440.611286 190.285307 
L 440.611286 186.452911 
L 445.668264 186.452911 
L 445.668264 182.620515 
L 450.996689 182.620515 
L 450.996689 178.788119 
L 450.996689 178.788119 
L 450.996689 178.788119 
L 460.8 178.788119 
" clip-path="url(#pcf167777f1)" style="fill: none; stroke: #f5deb3; stroke-width: 1.5; stroke-linecap: square"/>
   </g>
   <g id="line2d_23">
    <path d="M 317.978583 293.76 
L 317.978583 289.927604 
L 321.088058 289.927604 
L 321.088058 286.095208 
L 322.89791 286.095208 
L 322.89791 282.262812 
L 326.899437 282.262812 
L 326.899437 278.430416 
L 327.279414 278.430416 
L 327.279414 274.59802 
L 330.316648 274.59802 
L 330.316648 270.765624 
L 443.02563 270.765624 
L 443.02563 266.933228 
L 443.02563 266.933228 
L 443.02563 266.933228 
L 460.8 266.933228 
" clip-path="url(#pcf167777f1)" style="fill: none; stroke: #f5deb3; stroke-width: 1.5; stroke-linecap: square"/>
   </g>
   <g id="line2d_24">
    <path d="M 293.612895 293.76 
L 293.612895 289.927604 
L 297.596409 289.927604 
L 297.596409 286.095208 
L 300.059604 286.095208 
L 300.059604 282.262812 
L 304.86982 282.262812 
L 304.86982 278.430416 
L 361.711025 278.430416 
L 361.711025 274.59802 
L 366.47416 274.59802 
L 366.47416 270.765624 
L 366.921329 270.765624 
L 366.921329 266.933228 
L 367.687249 266.933228 
L 367.687249 263.100832 
L 375.549345 263.100832 
L 375.549345 259.268436 
L 380.485922 259.268436 
L 380.485922 255.43604 
L 387.092427 255.43604 
L 387.092427 251.603644 
L 388.035751 251.603644 
L 388.035751 247.771248 
L 388.174804 247.771248 
L 388.174804 243.938851 
L 419.650927 243.938851 
L 419.650927 240.106455 
L 420.099852 240.106455 
L 420.099852 236.274059 
L 420.250001 236.274059 
L 420.250001 232.441663 
L 423.029917 232.441663 
L 423.029917 228.609267 
L 425.159679 228.609267 
L 425.159679 224.776871 
L 425.219526 224.776871 
L 425.219526 220.944475 
L 426.36454 220.944475 
L 426.36454 217.112079 
L 429.46109 217.112079 
L 429.46109 213.279683 
L 456.010779 213.279683 
L 456.010779 209.447287 
L 457.549534 209.447287 
L 457.549534 205.614891 
L 461.8 205.614891 
" clip-path="url(#pcf167777f1)" style="fill: none; stroke: #f5deb3; stroke-width: 1.5; stroke-linecap: square"/>
   </g>
   <g id="line2d_25">
    <path d="M 406.213694 293.76 
L 406.213694 289.927604 
L 407.606505 289.927604 
L 407.606505 286.095208 
L 408.319473 286.095208 
L 408.319473 282.262812 
L 436.290443 282.262812 
L 436.290443 278.430416 
L 436.629685 278.430416 
L 436.629685 274.59802 
L 436.929692 274.59802 
L 436.929692 270.765624 
L 438.434923 270.765624 
L 438.434923 266.933228 
L 450.340855 266.933228 
L 450.340855 263.100832 
L 450.340855 263.100832 
L 450.340855 263.100832 
L 460.8 263.100832 
" clip-path="url(#pcf167777f1)" style="fill: none; stroke: #f5deb3; stroke-width: 1.5; stroke-linecap: square"/>
   </g>
   <g id="line2d_26">
    <path d="M 286.498367 293.76 
L 286.498367 289.927604 
L 305.848181 289.927604 
L 305.848181 286.095208 
L 311.753313 286.095208 
L 311.753313 282.262812 
L 315.990123 282.262812 
L 315.990123 278.430416 
L 322.390091 278.430416 
L 322.390091 274.59802 
L 368.233637 274.59802 
L 368.233637 270.765624 
L 406.151532 270.765624 
L 406.151532 266.933228 
L 406.752991 266.933228 
L 406.752991 263.100832 
L 407.162872 263.100832 
L 407.162872 259.268436 
L 413.561531 259.268436 
L 413.561531 255.43604 
L 423.594366 255.43604 
L 423.594366 251.603644 
L 423.98931 251.603644 
L 423.98931 247.771248 
L 439.269249 247.771248 
L 439.269249 243.938851 
L 441.148242 243.938851 
L 441.148242 240.106455 
L 442.931598 240.106455 
L 442.931598 236.274059 
L 446.496948 236.274059 
L 446.496948 232.441663 
L 447.638953 232.441663 
L 447.638953 228.609267 
L 449.759572 228.609267 
L 449.759572 224.776871 
L 450.852249 224.776871 
L 450.852249 220.944475 
L 452.06544 220.944475 
L 452.06544 217.112079 
L 452.937366 217.112079 
L 452.937366 213.279683 
L 453.184923 213.279683 
L 453.184923 209.447287 
L 461.8 209.447287 
" clip-path="url(#pcf167777f1)" style="fill: none; stroke: #f5deb3; stroke-width: 1.5; stroke-linecap: square"/>
   </g>
   <g id="line2d_27">
    <path d="M 234.684473 293.76 
L 234.684473 289.927604 
L 281.34161 289.927604 
L 281.34161 286.095208 
L 283.559422 286.095208 
L 283.559422 282.262812 
L 288.68274 282.262812 
L 288.68274 278.430416 
L 290.115971 278.430416 
L 290.115971 274.59802 
L 307.707775 274.59802 
L 307.707775 270.765624 
L 316.177515 270.765624 
L 316.177515 266.933228 
L 316.439338 266.933228 
L 316.439338 263.100832 
L 329.972821 263.100832 
L 329.972821 259.268436 
L 333.866693 259.268436 
L 333.866693 255.43604 
L 333.898516 255.43604 
L 333.898516 251.603644 
L 348.234091 251.603644 
L 348.234091 247.771248 
L 355.525226 247.771248 
L 355.525226 243.938851 
L 358.132768 243.938851 
L 358.132768 240.106455 
L 364.212744 240.106455 
L 364.212744 236.274059 
L 364.320706 236.274059 
L 364.320706 232.441663 
L 364.521425 232.441663 
L 364.521425 228.609267 
L 367.589703 228.609267 
L 367.589703 224.776871 
L 369.492422 224.776871 
L 369.492422 220.944475 
L 380.847095 220.944475 
L 380.847095 217.112079 
L 383.200013 217.112079 
L 383.200013 213.279683 
L 384.327382 213.279683 
L 384.327382 209.447287 
L 385.9369 209.447287 
L 385.9369 205.614891 
L 389.324088 205.614891 
L 389.324088 201.782495 
L 393.106826 201.782495 
L 393.106826 197.950099 
L 414.394177 197.950099 
L 414.394177 194.117703 
L 418.143552 194.117703 
L 418.143552 190.285307 
L 420.392913 190.285307 
L 420.392913 186.452911 
L 426.264833 186.452911 
L 426.264833 182.620515 
L 433.740725 182.620515 
L 433.740725 178.788119 
L 433.740725 178.788119 
L 433.740725 178.788119 
L 460.8 178.788119 
" clip-path="url(#pcf167777f1)" style="fill: none; stroke: #f5deb3; stroke-width: 1.5; stroke-linecap: square"/>
   </g>
   <g id="line2d_28">
    <path d="M 265.824272 293.76 
L 265.824272 289.927604 
L 265.936978 289.927604 
L 265.936978 286.095208 
L 268.756656 286.095208 
L 268.756656 282.262812 
L 270.058618 282.262812 
L 270.058618 278.430416 
L 289.156239 278.430416 
L 289.156239 274.59802 
L 343.951594 274.59802 
L 343.951594 270.765624 
L 345.598911 270.765624 
L 345.598911 266.933228 
L 348.023486 266.933228 
L 348.023486 263.100832 
L 366.228777 263.100832 
L 366.228777 259.268436 
L 386.239815 259.268436 
L 386.239815 255.43604 
L 386.830565 255.43604 
L 386.830565 251.603644 
L 387.026533 251.603644 
L 387.026533 247.771248 
L 387.711658 247.771248 
L 387.711658 243.938851 
L 417.070804 243.938851 
L 417.070804 240.106455 
L 427.412698 240.106455 
L 427.412698 236.274059 
L 428.514521 236.274059 
L 428.514521 232.441663 
L 428.722145 232.441663 
L 428.722145 228.609267 
L 440.531376 228.609267 
L 440.531376 224.776871 
L 441.913195 224.776871 
L 441.913195 220.944475 
L 442.87063 220.944475 
L 442.87063 217.112079 
L 443.377943 217.112079 
L 443.377943 213.279683 
L 445.550177 213.279683 
L 445.550177 209.447287 
L 461.8 209.447287 
" clip-path="url(#pcf167777f1)" style="fill: none; stroke: #f5deb3; stroke-width: 1.5; stroke-linecap: square"/>
   </g>
   <g id="line2d_29">
    <path d="M 317.169952 293.76 
L 317.169952 289.927604 
L 317.169952 289.927604 
L 317.169952 286.095208 
L 317.169952 286.095208 
L 317.169952 282.262812 
L 324.341376 282.262812 
L 324.341376 278.430416 
L 324.341376 278.430416 
L 324.341376 274.59802 
L 324.341376 274.59802 
L 324.341376 270.765624 
L 331.688868 270.765624 
L 331.688868 266.933228 
L 331.688868 266.933228 
L 331.688868 263.100832 
L 331.688868 263.100832 
L 331.688868 259.268436 
L 331.688868 259.268436 
L 331.688868 259.268436 
L 460.8 259.268436 
" clip-path="url(#pcf167777f1)" style="fill: none; stroke: #f5deb3; stroke-width: 1.5; stroke-linecap: square"/>
   </g>
   <g id="line2d_30">
    <path d="M 402.540255 293.76 
L 402.540255 289.927604 
L 413.521369 289.927604 
L 413.521369 286.095208 
L 414.025298 286.095208 
L 414.025298 282.262812 
L 414.025298 282.262812 
L 414.025298 282.262812 
L 460.8 282.262812 
" clip-path="url(#pcf167777f1)" style="fill: none; stroke: #f5deb3; stroke-width: 1.5; stroke-linecap: square"/>
   </g>
   <g id="matplotlib.axis_1">
    <g id="xtick_1">
     <g id="line2d_31">
      <path d="M 150.400235 293.76 
L 150.400235 3.456 
" clip-path="url(#pcf167777f1)" style="fill: none; stroke: #b0b0b0; stroke-width: 0.8; stroke-linecap: square"/>
     </g>
     <g id="line2d_32">
      <defs>
       <path id="m9689afea51" d="M 0 0 
L 0 3.5 
" style="stroke: #000000; stroke-width: 0.8"/>
      </defs>
      <g>
       <use xlink:href="#m9689afea51" x="150.400235" y="293.76" style="stroke: #000000; stroke-width: 0.8"/>
      </g>
     </g>
     <g id="text_1">
      <!-- 1 -->
      <g transform="translate(144.037735 315.956875) scale(0.2 -0.2)">
       <defs>
        <path id="DejaVuSans-31" d="M 794 531 
L 1825 531 
L 1825 4091 
L 703 3866 
L 703 4441 
L 1819 4666 
L 2450 4666 
L 2450 531 
L 3481 531 
L 3481 0 
L 794 0 
L 794 531 
z
" transform="scale(0.015625)"/>
       </defs>
       <use xlink:href="#DejaVuSans-31"/>
      </g>
     </g>
    </g>
    <g id="xtick_2">
     <g id="line2d_33">
      <path d="M 326.784704 293.76 
L 326.784704 3.456 
" clip-path="url(#pcf167777f1)" style="fill: none; stroke: #b0b0b0; stroke-width: 0.8; stroke-linecap: square"/>
     </g>
     <g id="line2d_34">
      <g>
       <use xlink:href="#m9689afea51" x="326.784704" y="293.76" style="stroke: #000000; stroke-width: 0.8"/>
      </g>
     </g>
     <g id="text_2">
      <!-- 3 -->
      <g transform="translate(320.422204 315.956875) scale(0.2 -0.2)">
       <defs>
        <path id="DejaVuSans-33" d="M 2597 2516 
Q 3050 2419 3304 2112 
Q 3559 1806 3559 1356 
Q 3559 666 3084 287 
Q 2609 -91 1734 -91 
Q 1441 -91 1130 -33 
Q 819 25 488 141 
L 488 750 
Q 750 597 1062 519 
Q 1375 441 1716 441 
Q 2309 441 2620 675 
Q 2931 909 2931 1356 
Q 2931 1769 2642 2001 
Q 2353 2234 1838 2234 
L 1294 2234 
L 1294 2753 
L 1863 2753 
Q 2328 2753 2575 2939 
Q 2822 3125 2822 3475 
Q 2822 3834 2567 4026 
Q 2313 4219 1838 4219 
Q 1578 4219 1281 4162 
Q 984 4106 628 3988 
L 628 4550 
Q 988 4650 1302 4700 
Q 1616 4750 1894 4750 
Q 2613 4750 3031 4423 
Q 3450 4097 3450 3541 
Q 3450 3153 3228 2886 
Q 3006 2619 2597 2516 
z
" transform="scale(0.015625)"/>
       </defs>
       <use xlink:href="#DejaVuSans-33"/>
      </g>
     </g>
    </g>
    <g id="xtick_3">
     <g id="line2d_35">
      <path d="M 88.756508 293.76 
L 88.756508 3.456 
" clip-path="url(#pcf167777f1)" style="fill: none; stroke: #b0b0b0; stroke-width: 0.8; stroke-linecap: square"/>
     </g>
     <g id="line2d_36">
      <defs>
       <path id="ma236c75ae8" d="M 0 0 
L 0 2 
" style="stroke: #000000; stroke-width: 0.6"/>
      </defs>
      <g>
       <use xlink:href="#ma236c75ae8" x="88.756508" y="293.76" style="stroke: #000000; stroke-width: 0.6"/>
      </g>
     </g>
    </g>
    <g id="xtick_4">
     <g id="line2d_37">
      <path d="M 104.28639 293.76 
L 104.28639 3.456 
" clip-path="url(#pcf167777f1)" style="fill: none; stroke: #b0b0b0; stroke-width: 0.8; stroke-linecap: square"/>
     </g>
     <g id="line2d_38">
      <g>
       <use xlink:href="#ma236c75ae8" x="104.28639" y="293.76" style="stroke: #000000; stroke-width: 0.6"/>
      </g>
     </g>
    </g>
    <g id="xtick_5">
     <g id="line2d_39">
      <path d="M 115.305016 293.76 
L 115.305016 3.456 
" clip-path="url(#pcf167777f1)" style="fill: none; stroke: #b0b0b0; stroke-width: 0.8; stroke-linecap: square"/>
     </g>
     <g id="line2d_40">
      <g>
       <use xlink:href="#ma236c75ae8" x="115.305016" y="293.76" style="stroke: #000000; stroke-width: 0.6"/>
      </g>
     </g>
    </g>
    <g id="xtick_6">
     <g id="line2d_41">
      <path d="M 123.851727 293.76 
L 123.851727 3.456 
" clip-path="url(#pcf167777f1)" style="fill: none; stroke: #b0b0b0; stroke-width: 0.8; stroke-linecap: square"/>
     </g>
     <g id="line2d_42">
      <g>
       <use xlink:href="#ma236c75ae8" x="123.851727" y="293.76" style="stroke: #000000; stroke-width: 0.6"/>
      </g>
     </g>
    </g>
    <g id="xtick_7">
     <g id="line2d_43">
      <path d="M 130.834898 293.76 
L 130.834898 3.456 
" clip-path="url(#pcf167777f1)" style="fill: none; stroke: #b0b0b0; stroke-width: 0.8; stroke-linecap: square"/>
     </g>
     <g id="line2d_44">
      <g>
       <use xlink:href="#ma236c75ae8" x="130.834898" y="293.76" style="stroke: #000000; stroke-width: 0.6"/>
      </g>
     </g>
    </g>
    <g id="xtick_8">
     <g id="line2d_45">
      <path d="M 136.739085 293.76 
L 136.739085 3.456 
" clip-path="url(#pcf167777f1)" style="fill: none; stroke: #b0b0b0; stroke-width: 0.8; stroke-linecap: square"/>
     </g>
     <g id="line2d_46">
      <g>
       <use xlink:href="#ma236c75ae8" x="136.739085" y="293.76" style="stroke: #000000; stroke-width: 0.6"/>
      </g>
     </g>
    </g>
    <g id="xtick_9">
     <g id="line2d_47">
      <path d="M 141.853524 293.76 
L 141.853524 3.456 
" clip-path="url(#pcf167777f1)" style="fill: none; stroke: #b0b0b0; stroke-width: 0.8; stroke-linecap: square"/>
     </g>
     <g id="line2d_48">
      <g>
       <use xlink:href="#ma236c75ae8" x="141.853524" y="293.76" style="stroke: #000000; stroke-width: 0.6"/>
      </g>
     </g>
    </g>
    <g id="xtick_10">
     <g id="line2d_49">
      <path d="M 146.364779 293.76 
L 146.364779 3.456 
" clip-path="url(#pcf167777f1)" style="fill: none; stroke: #b0b0b0; stroke-width: 0.8; stroke-linecap: square"/>
     </g>
     <g id="line2d_50">
      <g>
       <use xlink:href="#ma236c75ae8" x="146.364779" y="293.76" style="stroke: #000000; stroke-width: 0.6"/>
      </g>
     </g>
    </g>
    <g id="xtick_11">
     <g id="line2d_51">
      <path d="M 176.948743 293.76 
L 176.948743 3.456 
" clip-path="url(#pcf167777f1)" style="fill: none; stroke: #b0b0b0; stroke-width: 0.8; stroke-linecap: square"/>
     </g>
     <g id="line2d_52">
      <g>
       <use xlink:href="#ma236c75ae8" x="176.948743" y="293.76" style="stroke: #000000; stroke-width: 0.6"/>
      </g>
     </g>
    </g>
    <g id="xtick_12">
     <g id="line2d_53">
      <path d="M 192.478625 293.76 
L 192.478625 3.456 
" clip-path="url(#pcf167777f1)" style="fill: none; stroke: #b0b0b0; stroke-width: 0.8; stroke-linecap: square"/>
     </g>
     <g id="line2d_54">
      <g>
       <use xlink:href="#ma236c75ae8" x="192.478625" y="293.76" style="stroke: #000000; stroke-width: 0.6"/>
      </g>
     </g>
    </g>
    <g id="xtick_13">
     <g id="line2d_55">
      <path d="M 203.497251 293.76 
L 203.497251 3.456 
" clip-path="url(#pcf167777f1)" style="fill: none; stroke: #b0b0b0; stroke-width: 0.8; stroke-linecap: square"/>
     </g>
     <g id="line2d_56">
      <g>
       <use xlink:href="#ma236c75ae8" x="203.497251" y="293.76" style="stroke: #000000; stroke-width: 0.6"/>
      </g>
     </g>
    </g>
    <g id="xtick_14">
     <g id="line2d_57">
      <path d="M 212.043962 293.76 
L 212.043962 3.456 
" clip-path="url(#pcf167777f1)" style="fill: none; stroke: #b0b0b0; stroke-width: 0.8; stroke-linecap: square"/>
     </g>
     <g id="line2d_58">
      <g>
       <use xlink:href="#ma236c75ae8" x="212.043962" y="293.76" style="stroke: #000000; stroke-width: 0.6"/>
      </g>
     </g>
    </g>
    <g id="xtick_15">
     <g id="line2d_59">
      <path d="M 219.027133 293.76 
L 219.027133 3.456 
" clip-path="url(#pcf167777f1)" style="fill: none; stroke: #b0b0b0; stroke-width: 0.8; stroke-linecap: square"/>
     </g>
     <g id="line2d_60">
      <g>
       <use xlink:href="#ma236c75ae8" x="219.027133" y="293.76" style="stroke: #000000; stroke-width: 0.6"/>
      </g>
     </g>
    </g>
    <g id="xtick_16">
     <g id="line2d_61">
      <path d="M 224.93132 293.76 
L 224.93132 3.456 
" clip-path="url(#pcf167777f1)" style="fill: none; stroke: #b0b0b0; stroke-width: 0.8; stroke-linecap: square"/>
     </g>
     <g id="line2d_62">
      <g>
       <use xlink:href="#ma236c75ae8" x="224.93132" y="293.76" style="stroke: #000000; stroke-width: 0.6"/>
      </g>
     </g>
    </g>
    <g id="xtick_17">
     <g id="line2d_63">
      <path d="M 230.045759 293.76 
L 230.045759 3.456 
" clip-path="url(#pcf167777f1)" style="fill: none; stroke: #b0b0b0; stroke-width: 0.8; stroke-linecap: square"/>
     </g>
     <g id="line2d_64">
      <g>
       <use xlink:href="#ma236c75ae8" x="230.045759" y="293.76" style="stroke: #000000; stroke-width: 0.6"/>
      </g>
     </g>
    </g>
    <g id="xtick_18">
     <g id="line2d_65">
      <path d="M 234.557014 293.76 
L 234.557014 3.456 
" clip-path="url(#pcf167777f1)" style="fill: none; stroke: #b0b0b0; stroke-width: 0.8; stroke-linecap: square"/>
     </g>
     <g id="line2d_66">
      <g>
       <use xlink:href="#ma236c75ae8" x="234.557014" y="293.76" style="stroke: #000000; stroke-width: 0.6"/>
      </g>
     </g>
    </g>
    <g id="xtick_19">
     <g id="line2d_67">
      <path d="M 265.140978 293.76 
L 265.140978 3.456 
" clip-path="url(#pcf167777f1)" style="fill: none; stroke: #b0b0b0; stroke-width: 0.8; stroke-linecap: square"/>
     </g>
     <g id="line2d_68">
      <g>
       <use xlink:href="#ma236c75ae8" x="265.140978" y="293.76" style="stroke: #000000; stroke-width: 0.6"/>
      </g>
     </g>
    </g>
    <g id="xtick_20">
     <g id="line2d_69">
      <path d="M 280.670859 293.76 
L 280.670859 3.456 
" clip-path="url(#pcf167777f1)" style="fill: none; stroke: #b0b0b0; stroke-width: 0.8; stroke-linecap: square"/>
     </g>
     <g id="line2d_70">
      <g>
       <use xlink:href="#ma236c75ae8" x="280.670859" y="293.76" style="stroke: #000000; stroke-width: 0.6"/>
      </g>
     </g>
    </g>
    <g id="xtick_21">
     <g id="line2d_71">
      <path d="M 291.689486 293.76 
L 291.689486 3.456 
" clip-path="url(#pcf167777f1)" style="fill: none; stroke: #b0b0b0; stroke-width: 0.8; stroke-linecap: square"/>
     </g>
     <g id="line2d_72">
      <g>
       <use xlink:href="#ma236c75ae8" x="291.689486" y="293.76" style="stroke: #000000; stroke-width: 0.6"/>
      </g>
     </g>
    </g>
    <g id="xtick_22">
     <g id="line2d_73">
      <path d="M 300.236196 293.76 
L 300.236196 3.456 
" clip-path="url(#pcf167777f1)" style="fill: none; stroke: #b0b0b0; stroke-width: 0.8; stroke-linecap: square"/>
     </g>
     <g id="line2d_74">
      <g>
       <use xlink:href="#ma236c75ae8" x="300.236196" y="293.76" style="stroke: #000000; stroke-width: 0.6"/>
      </g>
     </g>
    </g>
    <g id="xtick_23">
     <g id="line2d_75">
      <path d="M 307.219367 293.76 
L 307.219367 3.456 
" clip-path="url(#pcf167777f1)" style="fill: none; stroke: #b0b0b0; stroke-width: 0.8; stroke-linecap: square"/>
     </g>
     <g id="line2d_76">
      <g>
       <use xlink:href="#ma236c75ae8" x="307.219367" y="293.76" style="stroke: #000000; stroke-width: 0.6"/>
      </g>
     </g>
    </g>
    <g id="xtick_24">
     <g id="line2d_77">
      <path d="M 313.123554 293.76 
L 313.123554 3.456 
" clip-path="url(#pcf167777f1)" style="fill: none; stroke: #b0b0b0; stroke-width: 0.8; stroke-linecap: square"/>
     </g>
     <g id="line2d_78">
      <g>
       <use xlink:href="#ma236c75ae8" x="313.123554" y="293.76" style="stroke: #000000; stroke-width: 0.6"/>
      </g>
     </g>
    </g>
    <g id="xtick_25">
     <g id="line2d_79">
      <path d="M 318.237994 293.76 
L 318.237994 3.456 
" clip-path="url(#pcf167777f1)" style="fill: none; stroke: #b0b0b0; stroke-width: 0.8; stroke-linecap: square"/>
     </g>
     <g id="line2d_80">
      <g>
       <use xlink:href="#ma236c75ae8" x="318.237994" y="293.76" style="stroke: #000000; stroke-width: 0.6"/>
      </g>
     </g>
    </g>
    <g id="xtick_26">
     <g id="line2d_81">
      <path d="M 322.749249 293.76 
L 322.749249 3.456 
" clip-path="url(#pcf167777f1)" style="fill: none; stroke: #b0b0b0; stroke-width: 0.8; stroke-linecap: square"/>
     </g>
     <g id="line2d_82">
      <g>
       <use xlink:href="#ma236c75ae8" x="322.749249" y="293.76" style="stroke: #000000; stroke-width: 0.6"/>
      </g>
     </g>
    </g>
    <g id="xtick_27">
     <g id="line2d_83">
      <path d="M 353.333213 293.76 
L 353.333213 3.456 
" clip-path="url(#pcf167777f1)" style="fill: none; stroke: #b0b0b0; stroke-width: 0.8; stroke-linecap: square"/>
     </g>
     <g id="line2d_84">
      <g>
       <use xlink:href="#ma236c75ae8" x="353.333213" y="293.76" style="stroke: #000000; stroke-width: 0.6"/>
      </g>
     </g>
    </g>
    <g id="xtick_28">
     <g id="line2d_85">
      <path d="M 368.863094 293.76 
L 368.863094 3.456 
" clip-path="url(#pcf167777f1)" style="fill: none; stroke: #b0b0b0; stroke-width: 0.8; stroke-linecap: square"/>
     </g>
     <g id="line2d_86">
      <g>
       <use xlink:href="#ma236c75ae8" x="368.863094" y="293.76" style="stroke: #000000; stroke-width: 0.6"/>
      </g>
     </g>
    </g>
    <g id="xtick_29">
     <g id="line2d_87">
      <path d="M 379.881721 293.76 
L 379.881721 3.456 
" clip-path="url(#pcf167777f1)" style="fill: none; stroke: #b0b0b0; stroke-width: 0.8; stroke-linecap: square"/>
     </g>
     <g id="line2d_88">
      <g>
       <use xlink:href="#ma236c75ae8" x="379.881721" y="293.76" style="stroke: #000000; stroke-width: 0.6"/>
      </g>
     </g>
    </g>
    <g id="xtick_30">
     <g id="line2d_89">
      <path d="M 388.428431 293.76 
L 388.428431 3.456 
" clip-path="url(#pcf167777f1)" style="fill: none; stroke: #b0b0b0; stroke-width: 0.8; stroke-linecap: square"/>
     </g>
     <g id="line2d_90">
      <g>
       <use xlink:href="#ma236c75ae8" x="388.428431" y="293.76" style="stroke: #000000; stroke-width: 0.6"/>
      </g>
     </g>
    </g>
    <g id="xtick_31">
     <g id="line2d_91">
      <path d="M 395.411602 293.76 
L 395.411602 3.456 
" clip-path="url(#pcf167777f1)" style="fill: none; stroke: #b0b0b0; stroke-width: 0.8; stroke-linecap: square"/>
     </g>
     <g id="line2d_92">
      <g>
       <use xlink:href="#ma236c75ae8" x="395.411602" y="293.76" style="stroke: #000000; stroke-width: 0.6"/>
      </g>
     </g>
    </g>
    <g id="xtick_32">
     <g id="line2d_93">
      <path d="M 401.315789 293.76 
L 401.315789 3.456 
" clip-path="url(#pcf167777f1)" style="fill: none; stroke: #b0b0b0; stroke-width: 0.8; stroke-linecap: square"/>
     </g>
     <g id="line2d_94">
      <g>
       <use xlink:href="#ma236c75ae8" x="401.315789" y="293.76" style="stroke: #000000; stroke-width: 0.6"/>
      </g>
     </g>
    </g>
    <g id="xtick_33">
     <g id="line2d_95">
      <path d="M 406.430229 293.76 
L 406.430229 3.456 
" clip-path="url(#pcf167777f1)" style="fill: none; stroke: #b0b0b0; stroke-width: 0.8; stroke-linecap: square"/>
     </g>
     <g id="line2d_96">
      <g>
       <use xlink:href="#ma236c75ae8" x="406.430229" y="293.76" style="stroke: #000000; stroke-width: 0.6"/>
      </g>
     </g>
    </g>
    <g id="xtick_34">
     <g id="line2d_97">
      <path d="M 410.941484 293.76 
L 410.941484 3.456 
" clip-path="url(#pcf167777f1)" style="fill: none; stroke: #b0b0b0; stroke-width: 0.8; stroke-linecap: square"/>
     </g>
     <g id="line2d_98">
      <g>
       <use xlink:href="#ma236c75ae8" x="410.941484" y="293.76" style="stroke: #000000; stroke-width: 0.6"/>
      </g>
     </g>
    </g>
    <g id="xtick_35">
     <g id="line2d_99">
      <path d="M 441.525447 293.76 
L 441.525447 3.456 
" clip-path="url(#pcf167777f1)" style="fill: none; stroke: #b0b0b0; stroke-width: 0.8; stroke-linecap: square"/>
     </g>
     <g id="line2d_100">
      <g>
       <use xlink:href="#ma236c75ae8" x="441.525447" y="293.76" style="stroke: #000000; stroke-width: 0.6"/>
      </g>
     </g>
    </g>
    <g id="xtick_36">
     <g id="line2d_101">
      <path d="M 457.055329 293.76 
L 457.055329 3.456 
" clip-path="url(#pcf167777f1)" style="fill: none; stroke: #b0b0b0; stroke-width: 0.8; stroke-linecap: square"/>
     </g>
     <g id="line2d_102">
      <g>
       <use xlink:href="#ma236c75ae8" x="457.055329" y="293.76" style="stroke: #000000; stroke-width: 0.6"/>
      </g>
     </g>
    </g>
    <g id="text_3">
     <!-- log10 of FEvals / DIM -->
     <g transform="translate(156.430563 339.313125) scale(0.2 -0.2)">
      <defs>
       <path id="DejaVuSans-6c" d="M 603 4863 
L 1178 4863 
L 1178 0 
L 603 0 
L 603 4863 
z
" transform="scale(0.015625)"/>
       <path id="DejaVuSans-6f" d="M 1959 3097 
Q 1497 3097 1228 2736 
Q 959 2375 959 1747 
Q 959 1119 1226 758 
Q 1494 397 1959 397 
Q 2419 397 2687 759 
Q 2956 1122 2956 1747 
Q 2956 2369 2687 2733 
Q 2419 3097 1959 3097 
z
M 1959 3584 
Q 2709 3584 3137 3096 
Q 3566 2609 3566 1747 
Q 3566 888 3137 398 
Q 2709 -91 1959 -91 
Q 1206 -91 779 398 
Q 353 888 353 1747 
Q 353 2609 779 3096 
Q 1206 3584 1959 3584 
z
" transform="scale(0.015625)"/>
       <path id="DejaVuSans-67" d="M 2906 1791 
Q 2906 2416 2648 2759 
Q 2391 3103 1925 3103 
Q 1463 3103 1205 2759 
Q 947 2416 947 1791 
Q 947 1169 1205 825 
Q 1463 481 1925 481 
Q 2391 481 2648 825 
Q 2906 1169 2906 1791 
z
M 3481 434 
Q 3481 -459 3084 -895 
Q 2688 -1331 1869 -1331 
Q 1566 -1331 1297 -1286 
Q 1028 -1241 775 -1147 
L 775 -588 
Q 1028 -725 1275 -790 
Q 1522 -856 1778 -856 
Q 2344 -856 2625 -561 
Q 2906 -266 2906 331 
L 2906 616 
Q 2728 306 2450 153 
Q 2172 0 1784 0 
Q 1141 0 747 490 
Q 353 981 353 1791 
Q 353 2603 747 3093 
Q 1141 3584 1784 3584 
Q 2172 3584 2450 3431 
Q 2728 3278 2906 2969 
L 2906 3500 
L 3481 3500 
L 3481 434 
z
" transform="scale(0.015625)"/>
       <path id="DejaVuSans-30" d="M 2034 4250 
Q 1547 4250 1301 3770 
Q 1056 3291 1056 2328 
Q 1056 1369 1301 889 
Q 1547 409 2034 409 
Q 2525 409 2770 889 
Q 3016 1369 3016 2328 
Q 3016 3291 2770 3770 
Q 2525 4250 2034 4250 
z
M 2034 4750 
Q 2819 4750 3233 4129 
Q 3647 3509 3647 2328 
Q 3647 1150 3233 529 
Q 2819 -91 2034 -91 
Q 1250 -91 836 529 
Q 422 1150 422 2328 
Q 422 3509 836 4129 
Q 1250 4750 2034 4750 
z
" transform="scale(0.015625)"/>
       <path id="DejaVuSans-20" transform="scale(0.015625)"/>
       <path id="DejaVuSans-66" d="M 2375 4863 
L 2375 4384 
L 1825 4384 
Q 1516 4384 1395 4259 
Q 1275 4134 1275 3809 
L 1275 3500 
L 2222 3500 
L 2222 3053 
L 1275 3053 
L 1275 0 
L 697 0 
L 697 3053 
L 147 3053 
L 147 3500 
L 697 3500 
L 697 3744 
Q 697 4328 969 4595 
Q 1241 4863 1831 4863 
L 2375 4863 
z
" transform="scale(0.015625)"/>
       <path id="DejaVuSans-46" d="M 628 4666 
L 3309 4666 
L 3309 4134 
L 1259 4134 
L 1259 2759 
L 3109 2759 
L 3109 2228 
L 1259 2228 
L 1259 0 
L 628 0 
L 628 4666 
z
" transform="scale(0.015625)"/>
       <path id="DejaVuSans-45" d="M 628 4666 
L 3578 4666 
L 3578 4134 
L 1259 4134 
L 1259 2753 
L 3481 2753 
L 3481 2222 
L 1259 2222 
L 1259 531 
L 3634 531 
L 3634 0 
L 628 0 
L 628 4666 
z
" transform="scale(0.015625)"/>
       <path id="DejaVuSans-76" d="M 191 3500 
L 800 3500 
L 1894 563 
L 2988 3500 
L 3597 3500 
L 2284 0 
L 1503 0 
L 191 3500 
z
" transform="scale(0.015625)"/>
       <path id="DejaVuSans-61" d="M 2194 1759 
Q 1497 1759 1228 1600 
Q 959 1441 959 1056 
Q 959 750 1161 570 
Q 1363 391 1709 391 
Q 2188 391 2477 730 
Q 2766 1069 2766 1631 
L 2766 1759 
L 2194 1759 
z
M 3341 1997 
L 3341 0 
L 2766 0 
L 2766 531 
Q 2569 213 2275 61 
Q 1981 -91 1556 -91 
Q 1019 -91 701 211 
Q 384 513 384 1019 
Q 384 1609 779 1909 
Q 1175 2209 1959 2209 
L 2766 2209 
L 2766 2266 
Q 2766 2663 2505 2880 
Q 2244 3097 1772 3097 
Q 1472 3097 1187 3025 
Q 903 2953 641 2809 
L 641 3341 
Q 956 3463 1253 3523 
Q 1550 3584 1831 3584 
Q 2591 3584 2966 3190 
Q 3341 2797 3341 1997 
z
" transform="scale(0.015625)"/>
       <path id="DejaVuSans-73" d="M 2834 3397 
L 2834 2853 
Q 2591 2978 2328 3040 
Q 2066 3103 1784 3103 
Q 1356 3103 1142 2972 
Q 928 2841 928 2578 
Q 928 2378 1081 2264 
Q 1234 2150 1697 2047 
L 1894 2003 
Q 2506 1872 2764 1633 
Q 3022 1394 3022 966 
Q 3022 478 2636 193 
Q 2250 -91 1575 -91 
Q 1294 -91 989 -36 
Q 684 19 347 128 
L 347 722 
Q 666 556 975 473 
Q 1284 391 1588 391 
Q 1994 391 2212 530 
Q 2431 669 2431 922 
Q 2431 1156 2273 1281 
Q 2116 1406 1581 1522 
L 1381 1569 
Q 847 1681 609 1914 
Q 372 2147 372 2553 
Q 372 3047 722 3315 
Q 1072 3584 1716 3584 
Q 2034 3584 2315 3537 
Q 2597 3491 2834 3397 
z
" transform="scale(0.015625)"/>
       <path id="DejaVuSans-2f" d="M 1625 4666 
L 2156 4666 
L 531 -594 
L 0 -594 
L 1625 4666 
z
" transform="scale(0.015625)"/>
       <path id="DejaVuSans-44" d="M 1259 4147 
L 1259 519 
L 2022 519 
Q 2988 519 3436 956 
Q 3884 1394 3884 2338 
Q 3884 3275 3436 3711 
Q 2988 4147 2022 4147 
L 1259 4147 
z
M 628 4666 
L 1925 4666 
Q 3281 4666 3915 4102 
Q 4550 3538 4550 2338 
Q 4550 1131 3912 565 
Q 3275 0 1925 0 
L 628 0 
L 628 4666 
z
" transform="scale(0.015625)"/>
       <path id="DejaVuSans-49" d="M 628 4666 
L 1259 4666 
L 1259 0 
L 628 0 
L 628 4666 
z
" transform="scale(0.015625)"/>
       <path id="DejaVuSans-4d" d="M 628 4666 
L 1569 4666 
L 2759 1491 
L 3956 4666 
L 4897 4666 
L 4897 0 
L 4281 0 
L 4281 4097 
L 3078 897 
L 2444 897 
L 1241 4097 
L 1241 0 
L 628 0 
L 628 4666 
z
" transform="scale(0.015625)"/>
      </defs>
      <use xlink:href="#DejaVuSans-6c"/>
      <use xlink:href="#DejaVuSans-6f" x="27.783203"/>
      <use xlink:href="#DejaVuSans-67" x="88.964844"/>
      <use xlink:href="#DejaVuSans-31" x="152.441406"/>
      <use xlink:href="#DejaVuSans-30" x="216.064453"/>
      <use xlink:href="#DejaVuSans-20" x="279.6875"/>
      <use xlink:href="#DejaVuSans-6f" x="311.474609"/>
      <use xlink:href="#DejaVuSans-66" x="372.65625"/>
      <use xlink:href="#DejaVuSans-20" x="407.861328"/>
      <use xlink:href="#DejaVuSans-46" x="439.648438"/>
      <use xlink:href="#DejaVuSans-45" x="497.167969"/>
      <use xlink:href="#DejaVuSans-76" x="560.351562"/>
      <use xlink:href="#DejaVuSans-61" x="619.53125"/>
      <use xlink:href="#DejaVuSans-6c" x="680.810547"/>
      <use xlink:href="#DejaVuSans-73" x="708.59375"/>
      <use xlink:href="#DejaVuSans-20" x="760.693359"/>
      <use xlink:href="#DejaVuSans-2f" x="792.480469"/>
      <use xlink:href="#DejaVuSans-20" x="826.171875"/>
      <use xlink:href="#DejaVuSans-44" x="857.958984"/>
      <use xlink:href="#DejaVuSans-49" x="934.960938"/>
      <use xlink:href="#DejaVuSans-4d" x="964.453125"/>
     </g>
    </g>
   </g>
   <g id="matplotlib.axis_2">
    <g id="ytick_1">
     <g id="line2d_103">
      <path d="M 62.208 293.76 
L 460.8 293.76 
" clip-path="url(#pcf167777f1)" style="fill: none; stroke: #b0b0b0; stroke-width: 0.8; stroke-linecap: square"/>
     </g>
     <g id="line2d_104">
      <defs>
       <path id="m69e0a82502" d="M 0 0 
L -3.5 0 
" style="stroke: #000000; stroke-width: 0.8"/>
      </defs>
      <g>
       <use xlink:href="#m69e0a82502" x="62.208" y="293.76" style="stroke: #000000; stroke-width: 0.8"/>
      </g>
     </g>
     <g id="text_4">
      <!-- 0.0 -->
      <g transform="translate(29.763 299.83875) scale(0.16 -0.16)">
       <defs>
        <path id="DejaVuSans-2e" d="M 684 794 
L 1344 794 
L 1344 0 
L 684 0 
L 684 794 
z
" transform="scale(0.015625)"/>
       </defs>
       <use xlink:href="#DejaVuSans-30"/>
       <use xlink:href="#DejaVuSans-2e" x="63.623047"/>
       <use xlink:href="#DejaVuSans-30" x="95.410156"/>
      </g>
     </g>
    </g>
    <g id="ytick_2">
     <g id="line2d_105">
      <path d="M 62.208 236.274059 
L 460.8 236.274059 
" clip-path="url(#pcf167777f1)" style="fill: none; stroke: #b0b0b0; stroke-width: 0.8; stroke-linecap: square"/>
     </g>
     <g id="line2d_106">
      <g>
       <use xlink:href="#m69e0a82502" x="62.208" y="236.274059" style="stroke: #000000; stroke-width: 0.8"/>
      </g>
     </g>
     <g id="text_5">
      <!-- 0.2 -->
      <g transform="translate(29.763 242.352809) scale(0.16 -0.16)">
       <defs>
        <path id="DejaVuSans-32" d="M 1228 531 
L 3431 531 
L 3431 0 
L 469 0 
L 469 531 
Q 828 903 1448 1529 
Q 2069 2156 2228 2338 
Q 2531 2678 2651 2914 
Q 2772 3150 2772 3378 
Q 2772 3750 2511 3984 
Q 2250 4219 1831 4219 
Q 1534 4219 1204 4116 
Q 875 4013 500 3803 
L 500 4441 
Q 881 4594 1212 4672 
Q 1544 4750 1819 4750 
Q 2544 4750 2975 4387 
Q 3406 4025 3406 3419 
Q 3406 3131 3298 2873 
Q 3191 2616 2906 2266 
Q 2828 2175 2409 1742 
Q 1991 1309 1228 531 
z
" transform="scale(0.015625)"/>
       </defs>
       <use xlink:href="#DejaVuSans-30"/>
       <use xlink:href="#DejaVuSans-2e" x="63.623047"/>
       <use xlink:href="#DejaVuSans-32" x="95.410156"/>
      </g>
     </g>
    </g>
    <g id="ytick_3">
     <g id="line2d_107">
      <path d="M 62.208 178.788119 
L 460.8 178.788119 
" clip-path="url(#pcf167777f1)" style="fill: none; stroke: #b0b0b0; stroke-width: 0.8; stroke-linecap: square"/>
     </g>
     <g id="line2d_108">
      <g>
       <use xlink:href="#m69e0a82502" x="62.208" y="178.788119" style="stroke: #000000; stroke-width: 0.8"/>
      </g>
     </g>
     <g id="text_6">
      <!-- 0.4 -->
      <g transform="translate(29.763 184.866869) scale(0.16 -0.16)">
       <defs>
        <path id="DejaVuSans-34" d="M 2419 4116 
L 825 1625 
L 2419 1625 
L 2419 4116 
z
M 2253 4666 
L 3047 4666 
L 3047 1625 
L 3713 1625 
L 3713 1100 
L 3047 1100 
L 3047 0 
L 2419 0 
L 2419 1100 
L 313 1100 
L 313 1709 
L 2253 4666 
z
" transform="scale(0.015625)"/>
       </defs>
       <use xlink:href="#DejaVuSans-30"/>
       <use xlink:href="#DejaVuSans-2e" x="63.623047"/>
       <use xlink:href="#DejaVuSans-34" x="95.410156"/>
      </g>
     </g>
    </g>
    <g id="ytick_4">
     <g id="line2d_109">
      <path d="M 62.208 121.302178 
L 460.8 121.302178 
" clip-path="url(#pcf167777f1)" style="fill: none; stroke: #b0b0b0; stroke-width: 0.8; stroke-linecap: square"/>
     </g>
     <g id="line2d_110">
      <g>
       <use xlink:href="#m69e0a82502" x="62.208" y="121.302178" style="stroke: #000000; stroke-width: 0.8"/>
      </g>
     </g>
     <g id="text_7">
      <!-- 0.6 -->
      <g transform="translate(29.763 127.380928) scale(0.16 -0.16)">
       <defs>
        <path id="DejaVuSans-36" d="M 2113 2584 
Q 1688 2584 1439 2293 
Q 1191 2003 1191 1497 
Q 1191 994 1439 701 
Q 1688 409 2113 409 
Q 2538 409 2786 701 
Q 3034 994 3034 1497 
Q 3034 2003 2786 2293 
Q 2538 2584 2113 2584 
z
M 3366 4563 
L 3366 3988 
Q 3128 4100 2886 4159 
Q 2644 4219 2406 4219 
Q 1781 4219 1451 3797 
Q 1122 3375 1075 2522 
Q 1259 2794 1537 2939 
Q 1816 3084 2150 3084 
Q 2853 3084 3261 2657 
Q 3669 2231 3669 1497 
Q 3669 778 3244 343 
Q 2819 -91 2113 -91 
Q 1303 -91 875 529 
Q 447 1150 447 2328 
Q 447 3434 972 4092 
Q 1497 4750 2381 4750 
Q 2619 4750 2861 4703 
Q 3103 4656 3366 4563 
z
" transform="scale(0.015625)"/>
       </defs>
       <use xlink:href="#DejaVuSans-30"/>
       <use xlink:href="#DejaVuSans-2e" x="63.623047"/>
       <use xlink:href="#DejaVuSans-36" x="95.410156"/>
      </g>
     </g>
    </g>
    <g id="ytick_5">
     <g id="line2d_111">
      <path d="M 62.208 63.816238 
L 460.8 63.816238 
" clip-path="url(#pcf167777f1)" style="fill: none; stroke: #b0b0b0; stroke-width: 0.8; stroke-linecap: square"/>
     </g>
     <g id="line2d_112">
      <g>
       <use xlink:href="#m69e0a82502" x="62.208" y="63.816238" style="stroke: #000000; stroke-width: 0.8"/>
      </g>
     </g>
     <g id="text_8">
      <!-- 0.8 -->
      <g transform="translate(29.763 69.894988) scale(0.16 -0.16)">
       <defs>
        <path id="DejaVuSans-38" d="M 2034 2216 
Q 1584 2216 1326 1975 
Q 1069 1734 1069 1313 
Q 1069 891 1326 650 
Q 1584 409 2034 409 
Q 2484 409 2743 651 
Q 3003 894 3003 1313 
Q 3003 1734 2745 1975 
Q 2488 2216 2034 2216 
z
M 1403 2484 
Q 997 2584 770 2862 
Q 544 3141 544 3541 
Q 544 4100 942 4425 
Q 1341 4750 2034 4750 
Q 2731 4750 3128 4425 
Q 3525 4100 3525 3541 
Q 3525 3141 3298 2862 
Q 3072 2584 2669 2484 
Q 3125 2378 3379 2068 
Q 3634 1759 3634 1313 
Q 3634 634 3220 271 
Q 2806 -91 2034 -91 
Q 1263 -91 848 271 
Q 434 634 434 1313 
Q 434 1759 690 2068 
Q 947 2378 1403 2484 
z
M 1172 3481 
Q 1172 3119 1398 2916 
Q 1625 2713 2034 2713 
Q 2441 2713 2670 2916 
Q 2900 3119 2900 3481 
Q 2900 3844 2670 4047 
Q 2441 4250 2034 4250 
Q 1625 4250 1398 4047 
Q 1172 3844 1172 3481 
z
" transform="scale(0.015625)"/>
       </defs>
       <use xlink:href="#DejaVuSans-30"/>
       <use xlink:href="#DejaVuSans-2e" x="63.623047"/>
       <use xlink:href="#DejaVuSans-38" x="95.410156"/>
      </g>
     </g>
    </g>
    <g id="ytick_6">
     <g id="line2d_113">
      <path d="M 62.208 6.330297 
L 460.8 6.330297 
" clip-path="url(#pcf167777f1)" style="fill: none; stroke: #b0b0b0; stroke-width: 0.8; stroke-linecap: square"/>
     </g>
     <g id="line2d_114">
      <g>
       <use xlink:href="#m69e0a82502" x="62.208" y="6.330297" style="stroke: #000000; stroke-width: 0.8"/>
      </g>
     </g>
     <g id="text_9">
      <!-- 1.0 -->
      <g transform="translate(29.763 12.409047) scale(0.16 -0.16)">
       <use xlink:href="#DejaVuSans-31"/>
       <use xlink:href="#DejaVuSans-2e" x="63.623047"/>
       <use xlink:href="#DejaVuSans-30" x="95.410156"/>
      </g>
     </g>
    </g>
    <g id="text_10">
     <!-- proportion of trials -->
     <g transform="translate(21.603625 241.61425) rotate(-90) scale(0.2 -0.2)">
      <defs>
       <path id="DejaVuSans-70" d="M 1159 525 
L 1159 -1331 
L 581 -1331 
L 581 3500 
L 1159 3500 
L 1159 2969 
Q 1341 3281 1617 3432 
Q 1894 3584 2278 3584 
Q 2916 3584 3314 3078 
Q 3713 2572 3713 1747 
Q 3713 922 3314 415 
Q 2916 -91 2278 -91 
Q 1894 -91 1617 61 
Q 1341 213 1159 525 
z
M 3116 1747 
Q 3116 2381 2855 2742 
Q 2594 3103 2138 3103 
Q 1681 3103 1420 2742 
Q 1159 2381 1159 1747 
Q 1159 1113 1420 752 
Q 1681 391 2138 391 
Q 2594 391 2855 752 
Q 3116 1113 3116 1747 
z
" transform="scale(0.015625)"/>
       <path id="DejaVuSans-72" d="M 2631 2963 
Q 2534 3019 2420 3045 
Q 2306 3072 2169 3072 
Q 1681 3072 1420 2755 
Q 1159 2438 1159 1844 
L 1159 0 
L 581 0 
L 581 3500 
L 1159 3500 
L 1159 2956 
Q 1341 3275 1631 3429 
Q 1922 3584 2338 3584 
Q 2397 3584 2469 3576 
Q 2541 3569 2628 3553 
L 2631 2963 
z
" transform="scale(0.015625)"/>
       <path id="DejaVuSans-74" d="M 1172 4494 
L 1172 3500 
L 2356 3500 
L 2356 3053 
L 1172 3053 
L 1172 1153 
Q 1172 725 1289 603 
Q 1406 481 1766 481 
L 2356 481 
L 2356 0 
L 1766 0 
Q 1100 0 847 248 
Q 594 497 594 1153 
L 594 3053 
L 172 3053 
L 172 3500 
L 594 3500 
L 594 4494 
L 1172 4494 
z
" transform="scale(0.015625)"/>
       <path id="DejaVuSans-69" d="M 603 3500 
L 1178 3500 
L 1178 0 
L 603 0 
L 603 3500 
z
M 603 4863 
L 1178 4863 
L 1178 4134 
L 603 4134 
L 603 4863 
z
" transform="scale(0.015625)"/>
       <path id="DejaVuSans-6e" d="M 3513 2113 
L 3513 0 
L 2938 0 
L 2938 2094 
Q 2938 2591 2744 2837 
Q 2550 3084 2163 3084 
Q 1697 3084 1428 2787 
Q 1159 2491 1159 1978 
L 1159 0 
L 581 0 
L 581 3500 
L 1159 3500 
L 1159 2956 
Q 1366 3272 1645 3428 
Q 1925 3584 2291 3584 
Q 2894 3584 3203 3211 
Q 3513 2838 3513 2113 
z
" transform="scale(0.015625)"/>
      </defs>
      <use xlink:href="#DejaVuSans-70"/>
      <use xlink:href="#DejaVuSans-72" x="63.476562"/>
      <use xlink:href="#DejaVuSans-6f" x="102.339844"/>
      <use xlink:href="#DejaVuSans-70" x="163.521484"/>
      <use xlink:href="#DejaVuSans-6f" x="226.998047"/>
      <use xlink:href="#DejaVuSans-72" x="288.179688"/>
      <use xlink:href="#DejaVuSans-74" x="329.292969"/>
      <use xlink:href="#DejaVuSans-69" x="368.501953"/>
      <use xlink:href="#DejaVuSans-6f" x="396.285156"/>
      <use xlink:href="#DejaVuSans-6e" x="457.466797"/>
      <use xlink:href="#DejaVuSans-20" x="520.845703"/>
      <use xlink:href="#DejaVuSans-6f" x="552.632812"/>
      <use xlink:href="#DejaVuSans-66" x="613.814453"/>
      <use xlink:href="#DejaVuSans-20" x="649.019531"/>
      <use xlink:href="#DejaVuSans-74" x="680.806641"/>
      <use xlink:href="#DejaVuSans-72" x="720.015625"/>
      <use xlink:href="#DejaVuSans-69" x="761.128906"/>
      <use xlink:href="#DejaVuSans-61" x="788.912109"/>
      <use xlink:href="#DejaVuSans-6c" x="850.191406"/>
      <use xlink:href="#DejaVuSans-73" x="877.974609"/>
     </g>
    </g>
   </g>
   <g id="line2d_115">
    <path d="M 48.54685 293.76 
L 48.54685 289.927604 
L 133.900646 289.927604 
L 133.900646 286.095208 
L 147.206602 286.095208 
L 147.206602 282.262812 
L 148.43563 282.262812 
L 148.43563 278.430416 
L 154.050748 278.430416 
L 154.050748 274.59802 
L 154.740882 274.59802 
L 154.740882 270.765624 
L 163.830884 270.765624 
L 163.830884 266.933228 
L 164.099667 266.933228 
L 164.099667 263.100832 
L 165.930117 263.100832 
L 165.930117 259.268436 
L 166.938106 259.268436 
L 166.938106 255.43604 
L 171.172015 255.43604 
L 171.172015 251.603644 
L 178.634651 251.603644 
L 178.634651 247.771248 
L 179.540164 247.771248 
L 179.540164 243.938851 
L 181.798951 243.938851 
L 181.798951 240.106455 
L 183.125539 240.106455 
L 183.125539 236.274059 
L 187.437071 236.274059 
L 187.437071 232.441663 
L 187.727234 232.441663 
L 187.727234 228.609267 
L 188.158399 228.609267 
L 188.158399 224.776871 
L 189.145967 224.776871 
L 189.145967 220.944475 
L 189.561538 220.944475 
L 189.561538 217.112079 
L 191.704833 217.112079 
L 191.704833 213.279683 
L 191.964504 213.279683 
L 191.964504 209.447287 
L 192.093683 209.447287 
L 192.093683 205.614891 
L 192.478625 205.614891 
L 192.478625 201.782495 
L 195.662042 201.782495 
L 195.662042 197.950099 
L 196.360567 197.950099 
L 196.360567 194.117703 
L 199.88502 194.117703 
L 199.88502 190.285307 
L 200.717692 190.285307 
L 200.717692 186.452911 
L 200.923062 186.452911 
L 200.923062 182.620515 
L 201.833838 182.620515 
L 201.833838 178.788119 
L 204.722246 178.788119 
L 204.722246 174.955723 
L 205.183159 174.955723 
L 205.183159 171.123327 
L 206.444967 171.123327 
L 206.444967 167.290931 
L 207.580553 167.290931 
L 207.580553 163.458535 
L 208.008506 163.458535 
L 208.008506 159.626139 
L 209.917747 159.626139 
L 209.917747 155.793743 
L 211.03495 155.793743 
L 211.03495 151.961347 
L 217.728656 151.961347 
L 217.728656 148.12895 
L 290.433909 148.12895 
L 290.433909 144.296554 
L 299.438947 144.296554 
L 299.438947 140.464158 
L 302.504094 140.464158 
L 302.504094 136.631762 
L 320.573518 136.631762 
L 320.573518 132.799366 
L 335.039213 132.799366 
L 335.039213 128.96697 
L 343.387186 128.96697 
L 343.387186 125.134574 
L 347.714264 125.134574 
L 347.714264 121.302178 
L 347.732001 121.302178 
L 347.732001 117.469782 
L 348.692952 117.469782 
L 348.692952 113.637386 
L 351.537567 113.637386 
L 351.537567 109.80499 
L 367.136961 109.80499 
L 367.136961 105.972594 
L 373.680667 105.972594 
L 373.680667 102.140198 
L 382.428371 102.140198 
L 382.428371 98.307802 
L 388.725263 98.307802 
L 388.725263 94.475406 
L 401.461059 94.475406 
L 401.461059 90.64301 
L 406.708813 90.64301 
L 406.708813 86.810614 
L 407.289949 86.810614 
L 407.289949 82.978218 
L 407.289949 82.978218 
L 407.289949 82.978218 
L 460.8 82.978218 
" clip-path="url(#pcf167777f1)" style="fill: none; stroke: #000000; stroke-width: 1.5; stroke-linecap: square"/>
   </g>
   <g id="line2d_116">
    <defs>
     <path id="m1aa4f55af5" d="M 0 14.142136 
L 8.485281 0 
L 0 -14.142136 
L -8.485281 0 
z
" style="stroke: #000000; stroke-width: 1.5; stroke-linejoin: miter"/>
    </defs>
    <g clip-path="url(#pcf167777f1)">
     <use xlink:href="#m1aa4f55af5" x="133.900646" y="289.927604" style="fill-opacity: 0; stroke: #000000; stroke-width: 1.5; stroke-linejoin: miter"/>
     <use xlink:href="#m1aa4f55af5" x="187.437071" y="236.274059" style="fill-opacity: 0; stroke: #000000; stroke-width: 1.5; stroke-linejoin: miter"/>
     <use xlink:href="#m1aa4f55af5" x="205.183159" y="174.955723" style="fill-opacity: 0; stroke: #000000; stroke-width: 1.5; stroke-linejoin: miter"/>
     <use xlink:href="#m1aa4f55af5" x="217.728656" y="151.961347" style="fill-opacity: 0; stroke: #000000; stroke-width: 1.5; stroke-linejoin: miter"/>
     <use xlink:href="#m1aa4f55af5" x="347.732001" y="121.302178" style="fill-opacity: 0; stroke: #000000; stroke-width: 1.5; stroke-linejoin: miter"/>
     <use xlink:href="#m1aa4f55af5" x="401.461059" y="94.475406" style="fill-opacity: 0; stroke: #000000; stroke-width: 1.5; stroke-linejoin: miter"/>
     <use xlink:href="#m1aa4f55af5" x="407.289949" y="82.978218" style="fill-opacity: 0; stroke: #000000; stroke-width: 1.5; stroke-linejoin: miter"/>
    </g>
   </g>
   <g id="line2d_117">
    <path clip-path="url(#pcf167777f1)" style="fill: none; stroke: #000000; stroke-width: 1.5; stroke-linecap: square"/>
    <g clip-path="url(#pcf167777f1)">
     <use xlink:href="#m1aa4f55af5" x="-1" y="581.189703" style="fill-opacity: 0; stroke: #000000; stroke-width: 1.5; stroke-linejoin: miter"/>
     <use xlink:href="#m1aa4f55af5" x="460.8" y="581.189703" style="fill-opacity: 0; stroke: #000000; stroke-width: 1.5; stroke-linejoin: miter"/>
    </g>
   </g>
   <g id="line2d_118">
    <path d="M 48.54685 293.76 
L 48.54685 289.927604 
L 69.191171 289.927604 
L 69.191171 286.095208 
L 72.256919 286.095208 
L 72.256919 282.262812 
L 80.209797 282.262812 
L 80.209797 278.430416 
L 86.791903 278.430416 
L 86.791903 274.59802 
L 109.080313 274.59802 
L 109.080313 270.765624 
L 111.269561 270.765624 
L 111.269561 266.933228 
L 112.31898 266.933228 
L 112.31898 263.100832 
L 119.816271 263.100832 
L 119.816271 259.268436 
L 123.077935 259.268436 
L 123.077935 255.43604 
L 128.192374 255.43604 
L 128.192374 251.603644 
L 129.536421 251.603644 
L 129.536421 247.771248 
L 136.739085 247.771248 
L 136.739085 243.938851 
L 137.282376 243.938851 
L 137.282376 236.274059 
L 138.346372 236.274059 
L 138.346372 232.441663 
L 139.381608 232.441663 
L 139.381608 228.609267 
L 141.853524 228.609267 
L 141.853524 224.776871 
L 143.722256 224.776871 
L 143.722256 220.944475 
L 145.504038 220.944475 
L 145.504038 217.112079 
L 146.364779 217.112079 
L 146.364779 213.279683 
L 148.43563 213.279683 
L 148.43563 209.447287 
L 150.015293 209.447287 
L 150.015293 205.614891 
L 150.781346 205.614891 
L 150.781346 201.782495 
L 151.902443 201.782495 
L 151.902443 197.950099 
L 153.700961 197.950099 
L 153.700961 194.117703 
L 156.73967 194.117703 
L 156.73967 190.285307 
L 159.855322 190.285307 
L 159.855322 182.620515 
L 162.17733 182.620515 
L 162.17733 178.788119 
L 166.938106 178.788119 
L 166.938106 174.955723 
L 168.402032 174.955723 
L 168.402032 171.123327 
L 174.169184 171.123327 
L 174.169184 167.290931 
L 175.185196 167.290931 
L 175.185196 163.458535 
L 183.931914 163.458535 
L 183.931914 159.626139 
L 184.091172 159.626139 
L 184.091172 155.793743 
L 184.407714 155.793743 
L 184.407714 151.961347 
L 184.877676 151.961347 
L 184.877676 148.12895 
L 187.291161 148.12895 
L 187.291161 144.296554 
L 191.311994 144.296554 
L 191.311994 140.464158 
L 193.237093 140.464158 
L 193.237093 136.631762 
L 280.091986 136.631762 
L 280.091986 132.799366 
L 284.88591 132.799366 
L 284.88591 128.96697 
L 286.869381 128.96697 
L 286.869381 125.134574 
L 298.384314 125.134574 
L 298.384314 121.302178 
L 316.248182 121.302178 
L 316.248182 117.469782 
L 326.857408 117.469782 
L 326.857408 113.637386 
L 327.670632 113.637386 
L 327.670632 109.80499 
L 343.100582 109.80499 
L 343.100582 105.972594 
L 348.128933 105.972594 
L 348.128933 102.140198 
L 348.314953 102.140198 
L 348.314953 98.307802 
L 361.701791 98.307802 
L 361.701791 94.475406 
L 368.280332 94.475406 
L 368.280332 90.64301 
L 368.924327 90.64301 
L 368.924327 86.810614 
L 382.813474 86.810614 
L 382.813474 82.978218 
L 384.01663 82.978218 
L 384.01663 79.145822 
L 407.591645 79.145822 
L 407.591645 75.313426 
L 409.560592 75.313426 
L 409.560592 71.48103 
L 416.846765 71.48103 
L 416.846765 67.648634 
L 419.209369 67.648634 
L 419.209369 63.816238 
L 424.047084 63.816238 
L 424.047084 59.983842 
L 429.968625 59.983842 
L 429.968625 56.151446 
L 432.442127 56.151446 
L 432.442127 52.31905 
L 435.100831 52.31905 
L 435.100831 48.486653 
L 435.100831 48.486653 
L 460.8 48.486653 
L 460.8 48.486653 
" clip-path="url(#pcf167777f1)" style="fill: none; stroke: #000000; stroke-width: 1.5; stroke-linecap: square"/>
   </g>
   <g id="line2d_119">
    <defs>
     <path id="m4628f241cb" d="M 0 7.5 
C 1.989023 7.5 3.896849 6.709753 5.303301 5.303301 
C 6.709753 3.896849 7.5 1.989023 7.5 0 
C 7.5 -1.989023 6.709753 -3.896849 5.303301 -5.303301 
C 3.896849 -6.709753 1.989023 -7.5 0 -7.5 
C -1.989023 -7.5 -3.896849 -6.709753 -5.303301 -5.303301 
C -6.709753 -3.896849 -7.5 -1.989023 -7.5 0 
C -7.5 1.989023 -6.709753 3.896849 -5.303301 5.303301 
C -3.896849 6.709753 -1.989023 7.5 0 7.5 
z
" style="stroke: #000000; stroke-width: 1.5"/>
    </defs>
    <g clip-path="url(#pcf167777f1)">
     <use xlink:href="#m4628f241cb" x="111.269561" y="270.765624" style="fill-opacity: 0; stroke: #000000; stroke-width: 1.5"/>
     <use xlink:href="#m4628f241cb" x="159.855322" y="190.285307" style="fill-opacity: 0; stroke: #000000; stroke-width: 1.5"/>
     <use xlink:href="#m4628f241cb" x="191.311994" y="144.296554" style="fill-opacity: 0; stroke: #000000; stroke-width: 1.5"/>
     <use xlink:href="#m4628f241cb" x="286.869381" y="128.96697" style="fill-opacity: 0; stroke: #000000; stroke-width: 1.5"/>
     <use xlink:href="#m4628f241cb" x="348.314953" y="102.140198" style="fill-opacity: 0; stroke: #000000; stroke-width: 1.5"/>
     <use xlink:href="#m4628f241cb" x="429.968625" y="59.983842" style="fill-opacity: 0; stroke: #000000; stroke-width: 1.5"/>
     <use xlink:href="#m4628f241cb" x="435.100831" y="48.486653" style="fill-opacity: 0; stroke: #000000; stroke-width: 1.5"/>
    </g>
   </g>
   <g id="line2d_120">
    <path clip-path="url(#pcf167777f1)" style="fill: none; stroke: #000000; stroke-width: 1.5; stroke-linecap: square"/>
   </g>
   <g id="line2d_121">
    <path d="M 208.43173 293.76 
L 208.43173 289.927604 
L 227.111446 289.927604 
L 227.111446 286.095208 
L 229.757416 286.095208 
L 229.757416 282.262812 
L 233.170387 282.262812 
L 233.170387 278.430416 
L 235.647818 278.430416 
L 235.647818 274.59802 
L 238.207528 274.59802 
L 238.207528 270.765624 
L 241.504705 270.765624 
L 241.504705 266.933228 
L 277.518836 266.933228 
L 277.518836 263.100832 
L 295.695246 263.100832 
L 295.695246 259.268436 
L 296.657622 259.268436 
L 296.657622 255.43604 
L 298.182791 255.43604 
L 298.182791 251.603644 
L 301.383211 251.603644 
L 301.383211 247.771248 
L 307.353188 247.771248 
L 307.353188 243.938851 
L 308.431996 243.938851 
L 308.431996 240.106455 
L 309.679312 240.106455 
L 309.679312 236.274059 
L 310.683725 236.274059 
L 310.683725 232.441663 
L 323.054441 232.441663 
L 323.054441 228.609267 
L 327.950301 228.609267 
L 327.950301 224.776871 
L 331.043189 224.776871 
L 331.043189 220.944475 
L 334.629469 220.944475 
L 334.629469 217.112079 
L 334.884522 217.112079 
L 334.884522 213.279683 
L 354.52852 213.279683 
L 354.52852 209.447287 
L 357.212848 209.447287 
L 357.212848 205.614891 
L 358.479238 205.614891 
L 358.479238 201.782495 
L 371.471216 201.782495 
L 371.471216 197.950099 
L 372.520571 197.950099 
L 372.520571 194.117703 
L 390.670328 194.117703 
L 390.670328 190.285307 
L 398.579155 190.285307 
L 398.579155 186.452911 
L 401.569379 186.452911 
L 401.569379 182.620515 
L 413.559941 182.620515 
L 413.559941 178.788119 
L 413.559941 178.788119 
L 413.559941 178.788119 
L 460.8 178.788119 
" clip-path="url(#pcf167777f1)" style="fill: none; stroke: #00bfbf; stroke-width: 1.5; stroke-linecap: square"/>
   </g>
   <g id="line2d_122">
    <defs>
     <path id="m6d95dac5fb" d="M 0 14.142136 
L 8.485281 0 
L 0 -14.142136 
L -8.485281 0 
z
" style="stroke: #00bfbf; stroke-width: 1.5; stroke-linejoin: miter"/>
    </defs>
    <g clip-path="url(#pcf167777f1)">
     <use xlink:href="#m6d95dac5fb" x="241.504705" y="270.765624" style="fill-opacity: 0; stroke: #00bfbf; stroke-width: 1.5; stroke-linejoin: miter"/>
     <use xlink:href="#m6d95dac5fb" x="327.950301" y="228.609267" style="fill-opacity: 0; stroke: #00bfbf; stroke-width: 1.5; stroke-linejoin: miter"/>
     <use xlink:href="#m6d95dac5fb" x="357.212848" y="209.447287" style="fill-opacity: 0; stroke: #00bfbf; stroke-width: 1.5; stroke-linejoin: miter"/>
     <use xlink:href="#m6d95dac5fb" x="413.559941" y="182.620515" style="fill-opacity: 0; stroke: #00bfbf; stroke-width: 1.5; stroke-linejoin: miter"/>
     <use xlink:href="#m6d95dac5fb" x="413.559941" y="178.788119" style="fill-opacity: 0; stroke: #00bfbf; stroke-width: 1.5; stroke-linejoin: miter"/>
    </g>
   </g>
   <g id="line2d_123">
    <path clip-path="url(#pcf167777f1)" style="fill: none; stroke: #00bfbf; stroke-width: 1.5; stroke-linecap: square"/>
    <g clip-path="url(#pcf167777f1)">
     <use xlink:href="#m6d95dac5fb" x="-1" y="581.189703" style="fill-opacity: 0; stroke: #00bfbf; stroke-width: 1.5; stroke-linejoin: miter"/>
     <use xlink:href="#m6d95dac5fb" x="460.8" y="581.189703" style="fill-opacity: 0; stroke: #00bfbf; stroke-width: 1.5; stroke-linejoin: miter"/>
    </g>
   </g>
   <g id="line2d_124">
    <path d="M 184.565009 293.76 
L 184.565009 289.927604 
L 216.792798 289.927604 
L 216.792798 286.095208 
L 221.558848 286.095208 
L 221.558848 282.262812 
L 227.2662 282.262812 
L 227.2662 278.430416 
L 239.12497 278.430416 
L 239.12497 274.59802 
L 284.076858 274.59802 
L 284.076858 270.765624 
L 286.001727 270.765624 
L 286.001727 266.933228 
L 286.123724 266.933228 
L 286.123724 263.100832 
L 288.203315 263.100832 
L 288.203315 259.268436 
L 291.333549 259.268436 
L 291.333549 255.43604 
L 294.164394 255.43604 
L 294.164394 251.603644 
L 294.370292 251.603644 
L 294.370292 247.771248 
L 296.522817 247.771248 
L 296.522817 243.938851 
L 303.558 243.938851 
L 303.558 240.106455 
L 305.429073 240.106455 
L 305.429073 236.274059 
L 306.782806 236.274059 
L 306.782806 232.441663 
L 319.165067 232.441663 
L 319.165067 228.609267 
L 320.981245 228.609267 
L 320.981245 224.776871 
L 323.582745 224.776871 
L 323.582745 220.944475 
L 328.958628 220.944475 
L 328.958628 217.112079 
L 329.13554 217.112079 
L 329.13554 213.279683 
L 331.628163 213.279683 
L 331.628163 209.447287 
L 333.234341 209.447287 
L 333.234341 205.614891 
L 333.279626 205.614891 
L 333.279626 201.782495 
L 337.632509 201.782495 
L 337.632509 197.950099 
L 344.044452 197.950099 
L 344.044452 194.117703 
L 350.114593 194.117703 
L 350.114593 190.285307 
L 351.37667 190.285307 
L 351.37667 186.452911 
L 357.407907 186.452911 
L 357.407907 182.620515 
L 366.001078 182.620515 
L 366.001078 178.788119 
L 369.680346 178.788119 
L 369.680346 174.955723 
L 373.606291 174.955723 
L 373.606291 171.123327 
L 381.467622 171.123327 
L 381.467622 167.290931 
L 381.600602 167.290931 
L 381.600602 163.458535 
L 387.58814 163.458535 
L 387.58814 159.626139 
L 398.801828 159.626139 
L 398.801828 155.793743 
L 402.784311 155.793743 
L 402.784311 151.961347 
L 406.972643 151.961347 
L 406.972643 148.12895 
L 408.266573 148.12895 
L 408.266573 144.296554 
L 410.363907 144.296554 
L 410.363907 140.464158 
L 421.312479 140.464158 
L 421.312479 136.631762 
L 426.090436 136.631762 
L 426.090436 132.799366 
L 427.05252 132.799366 
L 427.05252 128.96697 
L 434.245211 128.96697 
L 434.245211 125.134574 
L 434.504876 125.134574 
L 434.504876 121.302178 
L 434.788832 121.302178 
L 434.788832 117.469782 
L 435.955256 117.469782 
L 435.955256 113.637386 
L 440.665772 113.637386 
L 440.665772 109.80499 
L 441.292635 109.80499 
L 441.292635 105.972594 
L 441.292635 105.972594 
L 441.292635 105.972594 
L 460.8 105.972594 
" clip-path="url(#pcf167777f1)" style="fill: none; stroke: #00bfbf; stroke-width: 1.5; stroke-linecap: square"/>
   </g>
   <g id="line2d_125">
    <defs>
     <path id="mef283db631" d="M 0 7.5 
C 1.989023 7.5 3.896849 6.709753 5.303301 5.303301 
C 6.709753 3.896849 7.5 1.989023 7.5 0 
C 7.5 -1.989023 6.709753 -3.896849 5.303301 -5.303301 
C 3.896849 -6.709753 1.989023 -7.5 0 -7.5 
C -1.989023 -7.5 -3.896849 -6.709753 -5.303301 -5.303301 
C -6.709753 -3.896849 -7.5 -1.989023 -7.5 0 
C -7.5 1.989023 -6.709753 3.896849 -5.303301 5.303301 
C -3.896849 6.709753 -1.989023 7.5 0 7.5 
z
" style="stroke: #00bfbf; stroke-width: 1.5"/>
    </defs>
    <g clip-path="url(#pcf167777f1)">
     <use xlink:href="#mef283db631" x="284.076858" y="274.59802" style="fill-opacity: 0; stroke: #00bfbf; stroke-width: 1.5"/>
     <use xlink:href="#mef283db631" x="320.981245" y="228.609267" style="fill-opacity: 0; stroke: #00bfbf; stroke-width: 1.5"/>
     <use xlink:href="#mef283db631" x="381.600602" y="167.290931" style="fill-opacity: 0; stroke: #00bfbf; stroke-width: 1.5"/>
     <use xlink:href="#mef283db631" x="441.292635" y="109.80499" style="fill-opacity: 0; stroke: #00bfbf; stroke-width: 1.5"/>
     <use xlink:href="#mef283db631" x="441.292635" y="105.972594" style="fill-opacity: 0; stroke: #00bfbf; stroke-width: 1.5"/>
    </g>
   </g>
   <g id="line2d_126">
    <path clip-path="url(#pcf167777f1)" style="fill: none; stroke: #00bfbf; stroke-width: 1.5; stroke-linecap: square"/>
   </g>
   <g id="line2d_127">
    <path d="M 311.531506 293.76 
L 311.531506 289.927604 
L 323.757239 289.927604 
L 323.757239 286.095208 
L 329.048992 286.095208 
L 329.048992 282.262812 
L 331.913983 282.262812 
L 331.913983 278.430416 
L 334.741652 278.430416 
L 334.741652 274.59802 
L 337.009992 274.59802 
L 337.009992 270.765624 
L 358.470865 270.765624 
L 358.470865 266.933228 
L 359.358132 266.933228 
L 359.358132 263.100832 
L 359.900801 263.100832 
L 359.900801 259.268436 
L 361.255917 259.268436 
L 361.255917 255.43604 
L 362.13036 255.43604 
L 362.13036 251.603644 
L 364.477071 251.603644 
L 364.477071 247.771248 
L 369.82629 247.771248 
L 369.82629 243.938851 
L 372.792307 243.938851 
L 372.792307 240.106455 
L 375.243622 240.106455 
L 375.243622 236.274059 
L 382.887022 236.274059 
L 382.887022 232.441663 
L 384.175317 232.441663 
L 384.175317 228.609267 
L 384.601787 228.609267 
L 384.601787 224.776871 
L 385.082958 224.776871 
L 385.082958 220.944475 
L 386.168374 220.944475 
L 386.168374 217.112079 
L 391.560824 217.112079 
L 391.560824 213.279683 
L 400.216226 213.279683 
L 400.216226 209.447287 
L 402.070502 209.447287 
L 402.070502 205.614891 
L 402.259416 205.614891 
L 402.259416 201.782495 
L 403.060296 201.782495 
L 403.060296 197.950099 
L 403.378402 197.950099 
L 403.378402 194.117703 
L 404.121893 194.117703 
L 404.121893 190.285307 
L 404.121893 190.285307 
L 404.121893 190.285307 
L 460.8 190.285307 
" clip-path="url(#pcf167777f1)" style="fill: none; stroke: #bf00bf; stroke-width: 1.5; stroke-linecap: square"/>
   </g>
   <g id="line2d_128">
    <defs>
     <path id="m11e3f28b5b" d="M 0 14.142136 
L 8.485281 0 
L 0 -14.142136 
L -8.485281 0 
z
" style="stroke: #bf00bf; stroke-width: 1.5; stroke-linejoin: miter"/>
    </defs>
    <g clip-path="url(#pcf167777f1)">
     <use xlink:href="#m11e3f28b5b" x="337.009992" y="274.59802" style="fill-opacity: 0; stroke: #bf00bf; stroke-width: 1.5; stroke-linejoin: miter"/>
     <use xlink:href="#m11e3f28b5b" x="372.792307" y="243.938851" style="fill-opacity: 0; stroke: #bf00bf; stroke-width: 1.5; stroke-linejoin: miter"/>
     <use xlink:href="#m11e3f28b5b" x="403.378402" y="197.950099" style="fill-opacity: 0; stroke: #bf00bf; stroke-width: 1.5; stroke-linejoin: miter"/>
     <use xlink:href="#m11e3f28b5b" x="404.121893" y="190.285307" style="fill-opacity: 0; stroke: #bf00bf; stroke-width: 1.5; stroke-linejoin: miter"/>
    </g>
   </g>
   <g id="line2d_129">
    <path clip-path="url(#pcf167777f1)" style="fill: none; stroke: #bf00bf; stroke-width: 1.5; stroke-linecap: square"/>
    <g clip-path="url(#pcf167777f1)">
     <use xlink:href="#m11e3f28b5b" x="-1" y="581.189703" style="fill-opacity: 0; stroke: #bf00bf; stroke-width: 1.5; stroke-linejoin: miter"/>
     <use xlink:href="#m11e3f28b5b" x="460.8" y="581.189703" style="fill-opacity: 0; stroke: #bf00bf; stroke-width: 1.5; stroke-linejoin: miter"/>
    </g>
   </g>
   <g id="line2d_130">
    <path d="M 214.778298 293.76 
L 214.778298 289.927604 
L 226.275366 289.927604 
L 226.275366 286.095208 
L 285.261472 286.095208 
L 285.261472 282.262812 
L 288.402067 282.262812 
L 288.402067 278.430416 
L 288.454199 278.430416 
L 288.454199 274.59802 
L 293.329552 274.59802 
L 293.329552 270.765624 
L 321.871094 270.765624 
L 321.871094 266.933228 
L 329.536868 266.933228 
L 329.536868 263.100832 
L 330.099484 263.100832 
L 330.099484 259.268436 
L 331.012333 259.268436 
L 331.012333 255.43604 
L 331.404751 255.43604 
L 331.404751 251.603644 
L 339.206897 251.603644 
L 339.206897 247.771248 
L 343.200514 247.771248 
L 343.200514 243.938851 
L 344.599326 243.938851 
L 344.599326 240.106455 
L 351.541581 240.106455 
L 351.541581 236.274059 
L 352.522274 236.274059 
L 352.522274 232.441663 
L 359.205651 232.441663 
L 359.205651 228.609267 
L 359.971721 228.609267 
L 359.971721 224.776871 
L 365.911548 224.776871 
L 365.911548 220.944475 
L 367.379266 220.944475 
L 367.379266 217.112079 
L 368.090605 217.112079 
L 368.090605 213.279683 
L 368.412326 213.279683 
L 368.412326 209.447287 
L 371.709011 209.447287 
L 371.709011 205.614891 
L 375.11479 205.614891 
L 375.11479 201.782495 
L 378.049932 201.782495 
L 378.049932 197.950099 
L 382.647249 197.950099 
L 382.647249 194.117703 
L 383.29823 194.117703 
L 383.29823 190.285307 
L 383.58095 190.285307 
L 383.58095 186.452911 
L 384.476297 186.452911 
L 384.476297 182.620515 
L 384.971615 182.620515 
L 384.971615 178.788119 
L 388.992648 178.788119 
L 388.992648 174.955723 
L 400.343276 174.955723 
L 400.343276 171.123327 
L 403.901585 171.123327 
L 403.901585 167.290931 
L 405.848925 167.290931 
L 405.848925 163.458535 
L 408.383677 163.458535 
L 408.383677 159.626139 
L 408.789168 159.626139 
L 408.789168 155.793743 
L 411.388692 155.793743 
L 411.388692 151.961347 
L 419.421748 151.961347 
L 419.421748 148.12895 
L 423.084506 148.12895 
L 423.084506 144.296554 
L 426.614939 144.296554 
L 426.614939 140.464158 
L 429.062256 140.464158 
L 429.062256 136.631762 
L 435.255432 136.631762 
L 435.255432 132.799366 
L 435.864784 132.799366 
L 435.864784 128.96697 
L 435.940636 128.96697 
L 435.940636 125.134574 
L 436.591801 125.134574 
L 436.591801 121.302178 
L 437.19779 121.302178 
L 437.19779 117.469782 
L 438.552452 117.469782 
L 438.552452 113.637386 
L 438.552452 113.637386 
L 438.552452 113.637386 
L 460.8 113.637386 
" clip-path="url(#pcf167777f1)" style="fill: none; stroke: #bf00bf; stroke-width: 1.5; stroke-linecap: square"/>
   </g>
   <g id="line2d_131">
    <defs>
     <path id="mf928174f19" d="M 0 7.5 
C 1.989023 7.5 3.896849 6.709753 5.303301 5.303301 
C 6.709753 3.896849 7.5 1.989023 7.5 0 
C 7.5 -1.989023 6.709753 -3.896849 5.303301 -5.303301 
C 3.896849 -6.709753 1.989023 -7.5 0 -7.5 
C -1.989023 -7.5 -3.896849 -6.709753 -5.303301 -5.303301 
C -6.709753 -3.896849 -7.5 -1.989023 -7.5 0 
C -7.5 1.989023 -6.709753 3.896849 -5.303301 5.303301 
C -3.896849 6.709753 -1.989023 7.5 0 7.5 
z
" style="stroke: #bf00bf; stroke-width: 1.5"/>
    </defs>
    <g clip-path="url(#pcf167777f1)">
     <use xlink:href="#mf928174f19" x="288.402067" y="282.262812" style="fill-opacity: 0; stroke: #bf00bf; stroke-width: 1.5"/>
     <use xlink:href="#mf928174f19" x="344.599326" y="243.938851" style="fill-opacity: 0; stroke: #bf00bf; stroke-width: 1.5"/>
     <use xlink:href="#mf928174f19" x="384.476297" y="186.452911" style="fill-opacity: 0; stroke: #bf00bf; stroke-width: 1.5"/>
     <use xlink:href="#mf928174f19" x="435.864784" y="132.799366" style="fill-opacity: 0; stroke: #bf00bf; stroke-width: 1.5"/>
     <use xlink:href="#mf928174f19" x="438.552452" y="113.637386" style="fill-opacity: 0; stroke: #bf00bf; stroke-width: 1.5"/>
    </g>
   </g>
   <g id="line2d_132">
    <path clip-path="url(#pcf167777f1)" style="fill: none; stroke: #bf00bf; stroke-width: 1.5; stroke-linecap: square"/>
   </g>
   <g id="line2d_133">
    <path d="M 314.063978 293.76 
L 314.063978 289.927604 
L 326.975734 289.927604 
L 326.975734 286.095208 
L 331.472589 286.095208 
L 331.472589 282.262812 
L 333.917596 282.262812 
L 333.917596 278.430416 
L 337.499548 278.430416 
L 337.499548 274.59802 
L 339.201358 274.59802 
L 339.201358 270.765624 
L 359.824901 270.765624 
L 359.824901 266.933228 
L 361.841603 266.933228 
L 361.841603 263.100832 
L 364.368114 263.100832 
L 364.368114 259.268436 
L 364.370985 259.268436 
L 364.370985 255.43604 
L 364.562872 255.43604 
L 364.562872 251.603644 
L 365.506752 251.603644 
L 365.506752 247.771248 
L 372.230527 247.771248 
L 372.230527 243.938851 
L 375.225244 243.938851 
L 375.225244 240.106455 
L 376.722419 240.106455 
L 376.722419 236.274059 
L 385.915639 236.274059 
L 385.915639 232.441663 
L 387.136029 232.441663 
L 387.136029 228.609267 
L 388.088341 228.609267 
L 388.088341 224.776871 
L 388.5508 224.776871 
L 388.5508 220.944475 
L 388.630131 220.944475 
L 388.630131 217.112079 
L 392.464882 217.112079 
L 392.464882 213.279683 
L 401.785644 213.279683 
L 401.785644 209.447287 
L 404.313629 209.447287 
L 404.313629 205.614891 
L 404.966303 205.614891 
L 404.966303 201.782495 
L 405.02247 201.782495 
L 405.02247 197.950099 
L 405.025947 197.950099 
L 405.025947 194.117703 
L 405.304543 194.117703 
L 405.304543 190.285307 
L 405.304543 190.285307 
L 405.304543 190.285307 
L 460.8 190.285307 
" clip-path="url(#pcf167777f1)" style="fill: none; stroke: #ff0000; stroke-width: 3; stroke-linecap: square"/>
   </g>
   <g id="line2d_134">
    <defs>
     <path id="me7d026537a" d="M 0 14.142136 
L 8.485281 0 
L 0 -14.142136 
L -8.485281 0 
z
" style="stroke: #ff0000; stroke-width: 3; stroke-linejoin: miter"/>
    </defs>
    <g clip-path="url(#pcf167777f1)">
     <use xlink:href="#me7d026537a" x="337.499548" y="278.430416" style="fill-opacity: 0; stroke: #ff0000; stroke-width: 3; stroke-linejoin: miter"/>
     <use xlink:href="#me7d026537a" x="375.225244" y="243.938851" style="fill-opacity: 0; stroke: #ff0000; stroke-width: 3; stroke-linejoin: miter"/>
     <use xlink:href="#me7d026537a" x="388.630131" y="220.944475" style="fill-opacity: 0; stroke: #ff0000; stroke-width: 3; stroke-linejoin: miter"/>
     <use xlink:href="#me7d026537a" x="405.304543" y="190.285307" style="fill-opacity: 0; stroke: #ff0000; stroke-width: 3; stroke-linejoin: miter"/>
    </g>
   </g>
   <g id="line2d_135">
    <path clip-path="url(#pcf167777f1)" style="fill: none; stroke: #ff0000; stroke-width: 3; stroke-linecap: square"/>
    <g clip-path="url(#pcf167777f1)">
     <use xlink:href="#me7d026537a" x="-1" y="581.189703" style="fill-opacity: 0; stroke: #ff0000; stroke-width: 3; stroke-linejoin: miter"/>
     <use xlink:href="#me7d026537a" x="460.8" y="581.189703" style="fill-opacity: 0; stroke: #ff0000; stroke-width: 3; stroke-linejoin: miter"/>
    </g>
   </g>
   <g id="line2d_136">
    <path d="M 223.253618 293.76 
L 223.253618 289.927604 
L 233.170387 289.927604 
L 233.170387 286.095208 
L 286.101572 286.095208 
L 286.101572 282.262812 
L 289.966024 282.262812 
L 289.966024 278.430416 
L 292.933025 278.430416 
L 292.933025 274.59802 
L 296.497488 274.59802 
L 296.497488 270.765624 
L 324.731299 270.765624 
L 324.731299 266.933228 
L 331.036335 266.933228 
L 331.036335 263.100832 
L 331.645035 263.100832 
L 331.645035 259.268436 
L 334.862815 259.268436 
L 334.862815 255.43604 
L 336.33841 255.43604 
L 336.33841 251.603644 
L 342.94517 251.603644 
L 342.94517 247.771248 
L 345.281211 247.771248 
L 345.281211 243.938851 
L 346.002222 243.938851 
L 346.002222 240.106455 
L 353.314057 240.106455 
L 353.314057 236.274059 
L 354.112328 236.274059 
L 354.112328 232.441663 
L 364.036473 232.441663 
L 364.036473 228.609267 
L 365.930849 228.609267 
L 365.930849 224.776871 
L 367.954881 224.776871 
L 367.954881 220.944475 
L 368.364498 220.944475 
L 368.364498 217.112079 
L 369.604035 217.112079 
L 369.604035 213.279683 
L 370.525783 213.279683 
L 370.525783 209.447287 
L 372.803828 209.447287 
L 372.803828 205.614891 
L 376.433288 205.614891 
L 376.433288 201.782495 
L 381.185464 201.782495 
L 381.185464 197.950099 
L 384.015771 197.950099 
L 384.015771 194.117703 
L 385.302183 194.117703 
L 385.302183 190.285307 
L 386.619939 190.285307 
L 386.619939 186.452911 
L 387.708536 186.452911 
L 387.708536 182.620515 
L 389.16812 182.620515 
L 389.16812 178.788119 
L 389.372698 178.788119 
L 389.372698 174.955723 
L 402.506323 174.955723 
L 402.506323 171.123327 
L 403.901585 171.123327 
L 403.901585 167.290931 
L 409.288737 167.290931 
L 409.288737 163.458535 
L 409.804676 163.458535 
L 409.804676 159.626139 
L 410.022811 159.626139 
L 410.022811 155.793743 
L 412.905749 155.793743 
L 412.905749 151.961347 
L 421.789289 151.961347 
L 421.789289 148.12895 
L 424.69207 148.12895 
L 424.69207 144.296554 
L 426.823533 144.296554 
L 426.823533 140.464158 
L 430.615952 140.464158 
L 430.615952 136.631762 
L 435.86545 136.631762 
L 435.86545 132.799366 
L 436.433763 132.799366 
L 436.433763 128.96697 
L 436.637519 128.96697 
L 436.637519 125.134574 
L 437.848976 125.134574 
L 437.848976 121.302178 
L 439.054553 121.302178 
L 439.054553 117.469782 
L 439.054553 117.469782 
L 439.054553 117.469782 
L 460.8 117.469782 
" clip-path="url(#pcf167777f1)" style="fill: none; stroke: #ff0000; stroke-width: 3; stroke-linecap: square"/>
   </g>
   <g id="line2d_137">
    <defs>
     <path id="m9a920e1a37" d="M 0 7.5 
C 1.989023 7.5 3.896849 6.709753 5.303301 5.303301 
C 6.709753 3.896849 7.5 1.989023 7.5 0 
C 7.5 -1.989023 6.709753 -3.896849 5.303301 -5.303301 
C 3.896849 -6.709753 1.989023 -7.5 0 -7.5 
C -1.989023 -7.5 -3.896849 -6.709753 -5.303301 -5.303301 
C -6.709753 -3.896849 -7.5 -1.989023 -7.5 0 
C -7.5 1.989023 -6.709753 3.896849 -5.303301 5.303301 
C -3.896849 6.709753 -1.989023 7.5 0 7.5 
z
" style="stroke: #ff0000; stroke-width: 3"/>
    </defs>
    <g clip-path="url(#pcf167777f1)">
     <use xlink:href="#m9a920e1a37" x="296.497488" y="274.59802" style="fill-opacity: 0; stroke: #ff0000; stroke-width: 3"/>
     <use xlink:href="#m9a920e1a37" x="365.930849" y="228.609267" style="fill-opacity: 0; stroke: #ff0000; stroke-width: 3"/>
     <use xlink:href="#m9a920e1a37" x="402.506323" y="174.955723" style="fill-opacity: 0; stroke: #ff0000; stroke-width: 3"/>
     <use xlink:href="#m9a920e1a37" x="439.054553" y="121.302178" style="fill-opacity: 0; stroke: #ff0000; stroke-width: 3"/>
     <use xlink:href="#m9a920e1a37" x="439.054553" y="117.469782" style="fill-opacity: 0; stroke: #ff0000; stroke-width: 3"/>
    </g>
   </g>
   <g id="line2d_138">
    <path clip-path="url(#pcf167777f1)" style="fill: none; stroke: #ff0000; stroke-width: 3; stroke-linecap: square"/>
   </g>
   <g id="line2d_139">
    <path d="M 415.422464 293.76 
L 415.422464 3.456 
" clip-path="url(#pcf167777f1)" style="fill: none; stroke: #000000; stroke-width: 1.5; stroke-linecap: square"/>
    <defs>
     <path id="m0726b3cda6" d="M -10 0 
L 10 0 
M 0 10 
L 0 -10 
" style="stroke: #000000; stroke-width: 3"/>
    </defs>
    <g clip-path="url(#pcf167777f1)">
     <use xlink:href="#m0726b3cda6" x="415.422464" y="293.76" style="stroke: #000000; stroke-width: 3"/>
     <use xlink:href="#m0726b3cda6" x="415.422464" y="3.456" style="stroke: #000000; stroke-width: 3"/>
    </g>
   </g>
   <g id="line2d_140">
    <path d="M 441.819429 293.76 
L 441.819429 3.456 
" clip-path="url(#pcf167777f1)" style="fill: none; stroke: #000000; stroke-width: 1.5; stroke-linecap: square"/>
    <defs>
     <path id="m15cc7eb198" d="M 0 7.5 
C 1.989023 7.5 3.896849 6.709753 5.303301 5.303301 
C 6.709753 3.896849 7.5 1.989023 7.5 0 
C 7.5 -1.989023 6.709753 -3.896849 5.303301 -5.303301 
C 3.896849 -6.709753 1.989023 -7.5 0 -7.5 
C -1.989023 -7.5 -3.896849 -6.709753 -5.303301 -5.303301 
C -6.709753 -3.896849 -7.5 -1.989023 -7.5 0 
C -7.5 1.989023 -6.709753 3.896849 -5.303301 5.303301 
C -3.896849 6.709753 -1.989023 7.5 0 7.5 
z
" style="stroke: #000000; stroke-width: 3"/>
    </defs>
    <g clip-path="url(#pcf167777f1)">
     <use xlink:href="#m15cc7eb198" x="441.819429" y="293.76" style="fill-opacity: 0; stroke: #000000; stroke-width: 3"/>
     <use xlink:href="#m15cc7eb198" x="441.819429" y="3.456" style="fill-opacity: 0; stroke: #000000; stroke-width: 3"/>
    </g>
   </g>
   <g id="patch_3">
    <path d="M 62.208 293.76 
L 62.208 3.456 
" style="fill: none; stroke: #000000; stroke-width: 0.8; stroke-linejoin: miter; stroke-linecap: square"/>
   </g>
   <g id="patch_4">
    <path d="M 460.8 293.76 
L 460.8 3.456 
" style="fill: none; stroke: #000000; stroke-width: 0.8; stroke-linejoin: miter; stroke-linecap: square"/>
   </g>
   <g id="patch_5">
    <path d="M 62.208 293.76 
L 460.8 293.76 
" style="fill: none; stroke: #000000; stroke-width: 0.8; stroke-linejoin: miter; stroke-linecap: square"/>
   </g>
   <g id="patch_6">
    <path d="M 62.208 3.456 
L 460.8 3.456 
" style="fill: none; stroke: #000000; stroke-width: 0.8; stroke-linejoin: miter; stroke-linecap: square"/>
   </g>
   <g id="text_11">
    <!-- f20-f24 -->
    <g transform="translate(225.405563 24.458955) scale(0.2 -0.2)">
     <defs>
      <path id="DejaVuSans-2d" d="M 313 2009 
L 1997 2009 
L 1997 1497 
L 313 1497 
L 313 2009 
z
" transform="scale(0.015625)"/>
     </defs>
     <use xlink:href="#DejaVuSans-66"/>
     <use xlink:href="#DejaVuSans-32" x="35.205078"/>
     <use xlink:href="#DejaVuSans-30" x="98.828125"/>
     <use xlink:href="#DejaVuSans-2d" x="162.451172"/>
     <use xlink:href="#DejaVuSans-66" x="198.535156"/>
     <use xlink:href="#DejaVuSans-32" x="233.740234"/>
     <use xlink:href="#DejaVuSans-34" x="297.363281"/>
    </g>
   </g>
   <g id="text_12">
    <!-- absolute targets -->
    <g transform="translate(62.208 607.824855) scale(0.14 -0.14)">
     <defs>
      <path id="DejaVuSans-62" d="M 3116 1747 
Q 3116 2381 2855 2742 
Q 2594 3103 2138 3103 
Q 1681 3103 1420 2742 
Q 1159 2381 1159 1747 
Q 1159 1113 1420 752 
Q 1681 391 2138 391 
Q 2594 391 2855 752 
Q 3116 1113 3116 1747 
z
M 1159 2969 
Q 1341 3281 1617 3432 
Q 1894 3584 2278 3584 
Q 2916 3584 3314 3078 
Q 3713 2572 3713 1747 
Q 3713 922 3314 415 
Q 2916 -91 2278 -91 
Q 1894 -91 1617 61 
Q 1341 213 1159 525 
L 1159 0 
L 581 0 
L 581 4863 
L 1159 4863 
L 1159 2969 
z
" transform="scale(0.015625)"/>
      <path id="DejaVuSans-75" d="M 544 1381 
L 544 3500 
L 1119 3500 
L 1119 1403 
Q 1119 906 1312 657 
Q 1506 409 1894 409 
Q 2359 409 2629 706 
Q 2900 1003 2900 1516 
L 2900 3500 
L 3475 3500 
L 3475 0 
L 2900 0 
L 2900 538 
Q 2691 219 2414 64 
Q 2138 -91 1772 -91 
Q 1169 -91 856 284 
Q 544 659 544 1381 
z
M 1991 3584 
L 1991 3584 
z
" transform="scale(0.015625)"/>
      <path id="DejaVuSans-65" d="M 3597 1894 
L 3597 1613 
L 953 1613 
Q 991 1019 1311 708 
Q 1631 397 2203 397 
Q 2534 397 2845 478 
Q 3156 559 3463 722 
L 3463 178 
Q 3153 47 2828 -22 
Q 2503 -91 2169 -91 
Q 1331 -91 842 396 
Q 353 884 353 1716 
Q 353 2575 817 3079 
Q 1281 3584 2069 3584 
Q 2775 3584 3186 3129 
Q 3597 2675 3597 1894 
z
M 3022 2063 
Q 3016 2534 2758 2815 
Q 2500 3097 2075 3097 
Q 1594 3097 1305 2825 
Q 1016 2553 972 2059 
L 3022 2063 
z
" transform="scale(0.015625)"/>
     </defs>
     <use xlink:href="#DejaVuSans-61"/>
     <use xlink:href="#DejaVuSans-62" x="61.279297"/>
     <use xlink:href="#DejaVuSans-73" x="124.755859"/>
     <use xlink:href="#DejaVuSans-6f" x="176.855469"/>
     <use xlink:href="#DejaVuSans-6c" x="238.037109"/>
     <use xlink:href="#DejaVuSans-75" x="265.820312"/>
     <use xlink:href="#DejaVuSans-74" x="329.199219"/>
     <use xlink:href="#DejaVuSans-65" x="368.408203"/>
     <use xlink:href="#DejaVuSans-20" x="429.931641"/>
     <use xlink:href="#DejaVuSans-74" x="461.71875"/>
     <use xlink:href="#DejaVuSans-61" x="500.927734"/>
     <use xlink:href="#DejaVuSans-72" x="562.207031"/>
     <use xlink:href="#DejaVuSans-67" x="601.570312"/>
     <use xlink:href="#DejaVuSans-65" x="665.046875"/>
     <use xlink:href="#DejaVuSans-74" x="726.570312"/>
     <use xlink:href="#DejaVuSans-73" x="765.779297"/>
    </g>
   </g>
   <g id="text_13">
    <!-- v2.6.3 -->
    <g style="fill: #808080" transform="translate(245.82275 288.777272) scale(0.1 -0.1)">
     <use xlink:href="#DejaVuSans-76"/>
     <use xlink:href="#DejaVuSans-32" x="59.179688"/>
     <use xlink:href="#DejaVuSans-2e" x="122.802734"/>
     <use xlink:href="#DejaVuSans-36" x="154.589844"/>
     <use xlink:href="#DejaVuSans-2e" x="218.212891"/>
     <use xlink:href="#DejaVuSans-33" x="250"/>
    </g>
   </g>
   <g id="legend_1">
    <g id="patch_7">
     <path d="M 76.208 136.881 
L 160.148625 136.881 
Q 164.148625 136.881 164.148625 132.881 
L 164.148625 17.456 
Q 164.148625 13.456 160.148625 13.456 
L 76.208 13.456 
Q 72.208 13.456 72.208 17.456 
L 72.208 132.881 
Q 72.208 136.881 76.208 136.881 
z
" style="fill: #ffffff; opacity: 0.2; stroke: #cccccc; stroke-linejoin: miter"/>
    </g>
    <g id="line2d_141">
     <path d="M 80.208 29.652875 
L 80.208 29.652875 
L 100.208 29.652875 
L 100.208 29.652875 
L 120.208 29.652875 
" style="fill: none; stroke: #000000; stroke-width: 1.5; stroke-linecap: square"/>
    </g>
    <g id="text_14">
     <!-- 1 -->
     <g transform="translate(136.208 36.652875) scale(0.2 -0.2)">
      <use xlink:href="#DejaVuSans-31"/>
     </g>
    </g>
    <g id="line2d_142">
     <path d="M 80.208 59.009125 
L 80.208 59.009125 
L 100.208 59.009125 
L 100.208 59.009125 
L 120.208 59.009125 
" style="fill: none; stroke: #00bfbf; stroke-width: 1.5; stroke-linecap: square"/>
    </g>
    <g id="text_15">
     <!-- -1 -->
     <g transform="translate(136.208 66.009125) scale(0.2 -0.2)">
      <use xlink:href="#DejaVuSans-2d"/>
      <use xlink:href="#DejaVuSans-31" x="36.083984"/>
     </g>
    </g>
    <g id="line2d_143">
     <path d="M 80.208 88.365375 
L 80.208 88.365375 
L 100.208 88.365375 
L 100.208 88.365375 
L 120.208 88.365375 
" style="fill: none; stroke: #bf00bf; stroke-width: 1.5; stroke-linecap: square"/>
    </g>
    <g id="text_16">
     <!-- -4 -->
     <g transform="translate(136.208 95.365375) scale(0.2 -0.2)">
      <use xlink:href="#DejaVuSans-2d"/>
      <use xlink:href="#DejaVuSans-34" x="36.083984"/>
     </g>
    </g>
    <g id="line2d_144">
     <path d="M 80.208 117.721625 
L 80.208 117.721625 
L 100.208 117.721625 
L 100.208 117.721625 
L 120.208 117.721625 
" style="fill: none; stroke: #ff0000; stroke-width: 3; stroke-linecap: square"/>
    </g>
    <g id="text_17">
     <!-- -8 -->
     <g transform="translate(136.208 124.721625) scale(0.2 -0.2)">
      <use xlink:href="#DejaVuSans-2d"/>
      <use xlink:href="#DejaVuSans-38" x="36.083984"/>
     </g>
    </g>
   </g>
  </g>
 </g>
 <defs>
  <clipPath id="pcf167777f1">
   <rect x="62.208" y="3.456" width="398.592" height="290.304"/>
  </clipPath>
 </defs>
</svg>
