<?xml version="1.0" encoding="utf-8" standalone="no"?>
<!DOCTYPE svg PUBLIC "-//W3C//DTD SVG 1.1//EN"
  "http://www.w3.org/Graphics/SVG/1.1/DTD/svg11.dtd">
<svg xmlns:xlink="http://www.w3.org/1999/xlink" width="460.8pt" height="345.6pt" viewBox="0 0 460.8 345.6" xmlns="http://www.w3.org/2000/svg" version="1.1">
 <metadata>
  <rdf:RDF xmlns:dc="http://purl.org/dc/elements/1.1/" xmlns:cc="http://creativecommons.org/ns#" xmlns:rdf="http://www.w3.org/1999/02/22-rdf-syntax-ns#">
   <cc:Work>
    <dc:type rdf:resource="http://purl.org/dc/dcmitype/StillImage"/>
    <dc:date>2024-06-05T13:49:51.326048</dc:date>
    <dc:format>image/svg+xml</dc:format>
    <dc:creator>
     <cc:Agent>
      <dc:title>Matplotlib v3.7.1, https://matplotlib.org/</dc:title>
     </cc:Agent>
    </dc:creator>
   </cc:Work>
  </rdf:RDF>
 </metadata>
 <defs>
  <style type="text/css">*{stroke-linejoin: round; stroke-linecap: butt}</style>
 </defs>
 <g id="figure_1">
  <g id="patch_1">
   <path d="M 0 345.6 
L 460.8 345.6 
L 460.8 0 
L 0 0 
z
" style="fill: #ffffff"/>
  </g>
  <g id="axes_1">
   <g id="patch_2">
    <path d="M 34.16 291.28 
L 453.192 291.28 
L 453.192 3 
L 34.16 3 
z
" style="fill: #ffffff"/>
   </g>
   <g id="matplotlib.axis_1">
    <g id="xtick_1">
     <g id="line2d_1">
      <path d="M 169.711719 291.28 
L 169.711719 3 
" clip-path="url(#p0190c20ea1)" style="fill: none; stroke: #b0b0b0; stroke-width: 0.8; stroke-linecap: square"/>
     </g>
     <g id="line2d_2">
      <defs>
       <path id="m9595d39374" d="M 0 0 
L 0 3.5 
" style="stroke: #000000; stroke-width: 0.8"/>
      </defs>
      <g>
       <use xlink:href="#m9595d39374" x="169.711719" y="291.28" style="stroke: #000000; stroke-width: 0.8"/>
      </g>
     </g>
     <g id="text_1">
      <!-- -1 -->
      <g transform="translate(159.741407 313.476875) scale(0.2 -0.2)">
       <defs>
        <path id="DejaVuSans-2d" d="M 313 2009 
L 1997 2009 
L 1997 1497 
L 313 1497 
L 313 2009 
z
" transform="scale(0.015625)"/>
        <path id="DejaVuSans-31" d="M 794 531 
L 1825 531 
L 1825 4091 
L 703 3866 
L 703 4441 
L 1819 4666 
L 2450 4666 
L 2450 531 
L 3481 531 
L 3481 0 
L 794 0 
L 794 531 
z
" transform="scale(0.015625)"/>
       </defs>
       <use xlink:href="#DejaVuSans-2d"/>
       <use xlink:href="#DejaVuSans-31" x="36.083984"/>
      </g>
     </g>
    </g>
    <g id="xtick_2">
     <g id="line2d_3">
      <path d="M 317.640281 291.28 
L 317.640281 3 
" clip-path="url(#p0190c20ea1)" style="fill: none; stroke: #b0b0b0; stroke-width: 0.8; stroke-linecap: square"/>
     </g>
     <g id="line2d_4">
      <g>
       <use xlink:href="#m9595d39374" x="317.640281" y="291.28" style="stroke: #000000; stroke-width: 0.8"/>
      </g>
     </g>
     <g id="text_2">
      <!-- 1 -->
      <g transform="translate(311.277781 313.476875) scale(0.2 -0.2)">
       <use xlink:href="#DejaVuSans-31"/>
      </g>
     </g>
    </g>
    <g id="xtick_3">
     <g id="line2d_5">
      <defs>
       <path id="m42d898e7fe" d="M 0 0 
L 0 2 
" style="stroke: #000000; stroke-width: 0.6"/>
      </defs>
      <g>
       <use xlink:href="#m42d898e7fe" x="44.048625" y="291.28" style="stroke: #000000; stroke-width: 0.6"/>
      </g>
     </g>
    </g>
    <g id="xtick_4">
     <g id="line2d_6">
      <g>
       <use xlink:href="#m42d898e7fe" x="57.073088" y="291.28" style="stroke: #000000; stroke-width: 0.6"/>
      </g>
     </g>
    </g>
    <g id="xtick_5">
     <g id="line2d_7">
      <g>
       <use xlink:href="#m42d898e7fe" x="66.314092" y="291.28" style="stroke: #000000; stroke-width: 0.6"/>
      </g>
     </g>
    </g>
    <g id="xtick_6">
     <g id="line2d_8">
      <g>
       <use xlink:href="#m42d898e7fe" x="73.481971" y="291.28" style="stroke: #000000; stroke-width: 0.6"/>
      </g>
     </g>
    </g>
    <g id="xtick_7">
     <g id="line2d_9">
      <g>
       <use xlink:href="#m42d898e7fe" x="79.338555" y="291.28" style="stroke: #000000; stroke-width: 0.6"/>
      </g>
     </g>
    </g>
    <g id="xtick_8">
     <g id="line2d_10">
      <g>
       <use xlink:href="#m42d898e7fe" x="84.290226" y="291.28" style="stroke: #000000; stroke-width: 0.6"/>
      </g>
     </g>
    </g>
    <g id="xtick_9">
     <g id="line2d_11">
      <g>
       <use xlink:href="#m42d898e7fe" x="88.579559" y="291.28" style="stroke: #000000; stroke-width: 0.6"/>
      </g>
     </g>
    </g>
    <g id="xtick_10">
     <g id="line2d_12">
      <g>
       <use xlink:href="#m42d898e7fe" x="92.363018" y="291.28" style="stroke: #000000; stroke-width: 0.6"/>
      </g>
     </g>
    </g>
    <g id="xtick_11">
     <g id="line2d_13">
      <g>
       <use xlink:href="#m42d898e7fe" x="118.012905" y="291.28" style="stroke: #000000; stroke-width: 0.6"/>
      </g>
     </g>
    </g>
    <g id="xtick_12">
     <g id="line2d_14">
      <g>
       <use xlink:href="#m42d898e7fe" x="131.037369" y="291.28" style="stroke: #000000; stroke-width: 0.6"/>
      </g>
     </g>
    </g>
    <g id="xtick_13">
     <g id="line2d_15">
      <g>
       <use xlink:href="#m42d898e7fe" x="140.278373" y="291.28" style="stroke: #000000; stroke-width: 0.6"/>
      </g>
     </g>
    </g>
    <g id="xtick_14">
     <g id="line2d_16">
      <g>
       <use xlink:href="#m42d898e7fe" x="147.446252" y="291.28" style="stroke: #000000; stroke-width: 0.6"/>
      </g>
     </g>
    </g>
    <g id="xtick_15">
     <g id="line2d_17">
      <g>
       <use xlink:href="#m42d898e7fe" x="153.302836" y="291.28" style="stroke: #000000; stroke-width: 0.6"/>
      </g>
     </g>
    </g>
    <g id="xtick_16">
     <g id="line2d_18">
      <g>
       <use xlink:href="#m42d898e7fe" x="158.254507" y="291.28" style="stroke: #000000; stroke-width: 0.6"/>
      </g>
     </g>
    </g>
    <g id="xtick_17">
     <g id="line2d_19">
      <g>
       <use xlink:href="#m42d898e7fe" x="162.54384" y="291.28" style="stroke: #000000; stroke-width: 0.6"/>
      </g>
     </g>
    </g>
    <g id="xtick_18">
     <g id="line2d_20">
      <g>
       <use xlink:href="#m42d898e7fe" x="166.327299" y="291.28" style="stroke: #000000; stroke-width: 0.6"/>
      </g>
     </g>
    </g>
    <g id="xtick_19">
     <g id="line2d_21">
      <g>
       <use xlink:href="#m42d898e7fe" x="191.977186" y="291.28" style="stroke: #000000; stroke-width: 0.6"/>
      </g>
     </g>
    </g>
    <g id="xtick_20">
     <g id="line2d_22">
      <g>
       <use xlink:href="#m42d898e7fe" x="205.00165" y="291.28" style="stroke: #000000; stroke-width: 0.6"/>
      </g>
     </g>
    </g>
    <g id="xtick_21">
     <g id="line2d_23">
      <g>
       <use xlink:href="#m42d898e7fe" x="214.242653" y="291.28" style="stroke: #000000; stroke-width: 0.6"/>
      </g>
     </g>
    </g>
    <g id="xtick_22">
     <g id="line2d_24">
      <g>
       <use xlink:href="#m42d898e7fe" x="221.410533" y="291.28" style="stroke: #000000; stroke-width: 0.6"/>
      </g>
     </g>
    </g>
    <g id="xtick_23">
     <g id="line2d_25">
      <g>
       <use xlink:href="#m42d898e7fe" x="227.267117" y="291.28" style="stroke: #000000; stroke-width: 0.6"/>
      </g>
     </g>
    </g>
    <g id="xtick_24">
     <g id="line2d_26">
      <g>
       <use xlink:href="#m42d898e7fe" x="232.218788" y="291.28" style="stroke: #000000; stroke-width: 0.6"/>
      </g>
     </g>
    </g>
    <g id="xtick_25">
     <g id="line2d_27">
      <g>
       <use xlink:href="#m42d898e7fe" x="236.508121" y="291.28" style="stroke: #000000; stroke-width: 0.6"/>
      </g>
     </g>
    </g>
    <g id="xtick_26">
     <g id="line2d_28">
      <g>
       <use xlink:href="#m42d898e7fe" x="240.29158" y="291.28" style="stroke: #000000; stroke-width: 0.6"/>
      </g>
     </g>
    </g>
    <g id="xtick_27">
     <g id="line2d_29">
      <g>
       <use xlink:href="#m42d898e7fe" x="265.941467" y="291.28" style="stroke: #000000; stroke-width: 0.6"/>
      </g>
     </g>
    </g>
    <g id="xtick_28">
     <g id="line2d_30">
      <g>
       <use xlink:href="#m42d898e7fe" x="278.96593" y="291.28" style="stroke: #000000; stroke-width: 0.6"/>
      </g>
     </g>
    </g>
    <g id="xtick_29">
     <g id="line2d_31">
      <g>
       <use xlink:href="#m42d898e7fe" x="288.206934" y="291.28" style="stroke: #000000; stroke-width: 0.6"/>
      </g>
     </g>
    </g>
    <g id="xtick_30">
     <g id="line2d_32">
      <g>
       <use xlink:href="#m42d898e7fe" x="295.374814" y="291.28" style="stroke: #000000; stroke-width: 0.6"/>
      </g>
     </g>
    </g>
    <g id="xtick_31">
     <g id="line2d_33">
      <g>
       <use xlink:href="#m42d898e7fe" x="301.231398" y="291.28" style="stroke: #000000; stroke-width: 0.6"/>
      </g>
     </g>
    </g>
    <g id="xtick_32">
     <g id="line2d_34">
      <g>
       <use xlink:href="#m42d898e7fe" x="306.183069" y="291.28" style="stroke: #000000; stroke-width: 0.6"/>
      </g>
     </g>
    </g>
    <g id="xtick_33">
     <g id="line2d_35">
      <g>
       <use xlink:href="#m42d898e7fe" x="310.472401" y="291.28" style="stroke: #000000; stroke-width: 0.6"/>
      </g>
     </g>
    </g>
    <g id="xtick_34">
     <g id="line2d_36">
      <g>
       <use xlink:href="#m42d898e7fe" x="314.255861" y="291.28" style="stroke: #000000; stroke-width: 0.6"/>
      </g>
     </g>
    </g>
    <g id="xtick_35">
     <g id="line2d_37">
      <g>
       <use xlink:href="#m42d898e7fe" x="339.905748" y="291.28" style="stroke: #000000; stroke-width: 0.6"/>
      </g>
     </g>
    </g>
    <g id="xtick_36">
     <g id="line2d_38">
      <g>
       <use xlink:href="#m42d898e7fe" x="352.930211" y="291.28" style="stroke: #000000; stroke-width: 0.6"/>
      </g>
     </g>
    </g>
    <g id="xtick_37">
     <g id="line2d_39">
      <g>
       <use xlink:href="#m42d898e7fe" x="362.171215" y="291.28" style="stroke: #000000; stroke-width: 0.6"/>
      </g>
     </g>
    </g>
    <g id="xtick_38">
     <g id="line2d_40">
      <g>
       <use xlink:href="#m42d898e7fe" x="369.339095" y="291.28" style="stroke: #000000; stroke-width: 0.6"/>
      </g>
     </g>
    </g>
    <g id="xtick_39">
     <g id="line2d_41">
      <g>
       <use xlink:href="#m42d898e7fe" x="375.195678" y="291.28" style="stroke: #000000; stroke-width: 0.6"/>
      </g>
     </g>
    </g>
    <g id="xtick_40">
     <g id="line2d_42">
      <g>
       <use xlink:href="#m42d898e7fe" x="380.14735" y="291.28" style="stroke: #000000; stroke-width: 0.6"/>
      </g>
     </g>
    </g>
    <g id="xtick_41">
     <g id="line2d_43">
      <g>
       <use xlink:href="#m42d898e7fe" x="384.436682" y="291.28" style="stroke: #000000; stroke-width: 0.6"/>
      </g>
     </g>
    </g>
    <g id="xtick_42">
     <g id="line2d_44">
      <g>
       <use xlink:href="#m42d898e7fe" x="388.220142" y="291.28" style="stroke: #000000; stroke-width: 0.6"/>
      </g>
     </g>
    </g>
    <g id="xtick_43">
     <g id="line2d_45">
      <g>
       <use xlink:href="#m42d898e7fe" x="413.870029" y="291.28" style="stroke: #000000; stroke-width: 0.6"/>
      </g>
     </g>
    </g>
    <g id="xtick_44">
     <g id="line2d_46">
      <g>
       <use xlink:href="#m42d898e7fe" x="426.894492" y="291.28" style="stroke: #000000; stroke-width: 0.6"/>
      </g>
     </g>
    </g>
    <g id="xtick_45">
     <g id="line2d_47">
      <g>
       <use xlink:href="#m42d898e7fe" x="436.135496" y="291.28" style="stroke: #000000; stroke-width: 0.6"/>
      </g>
     </g>
    </g>
    <g id="xtick_46">
     <g id="line2d_48">
      <g>
       <use xlink:href="#m42d898e7fe" x="443.303375" y="291.28" style="stroke: #000000; stroke-width: 0.6"/>
      </g>
     </g>
    </g>
    <g id="xtick_47">
     <g id="line2d_49">
      <g>
       <use xlink:href="#m42d898e7fe" x="449.159959" y="291.28" style="stroke: #000000; stroke-width: 0.6"/>
      </g>
     </g>
    </g>
    <g id="text_3">
     <!-- log10 of FEvals ratio -->
     <g transform="translate(141.371312 336.833125) scale(0.2 -0.2)">
      <defs>
       <path id="DejaVuSans-6c" d="M 603 4863 
L 1178 4863 
L 1178 0 
L 603 0 
L 603 4863 
z
" transform="scale(0.015625)"/>
       <path id="DejaVuSans-6f" d="M 1959 3097 
Q 1497 3097 1228 2736 
Q 959 2375 959 1747 
Q 959 1119 1226 758 
Q 1494 397 1959 397 
Q 2419 397 2687 759 
Q 2956 1122 2956 1747 
Q 2956 2369 2687 2733 
Q 2419 3097 1959 3097 
z
M 1959 3584 
Q 2709 3584 3137 3096 
Q 3566 2609 3566 1747 
Q 3566 888 3137 398 
Q 2709 -91 1959 -91 
Q 1206 -91 779 398 
Q 353 888 353 1747 
Q 353 2609 779 3096 
Q 1206 3584 1959 3584 
z
" transform="scale(0.015625)"/>
       <path id="DejaVuSans-67" d="M 2906 1791 
Q 2906 2416 2648 2759 
Q 2391 3103 1925 3103 
Q 1463 3103 1205 2759 
Q 947 2416 947 1791 
Q 947 1169 1205 825 
Q 1463 481 1925 481 
Q 2391 481 2648 825 
Q 2906 1169 2906 1791 
z
M 3481 434 
Q 3481 -459 3084 -895 
Q 2688 -1331 1869 -1331 
Q 1566 -1331 1297 -1286 
Q 1028 -1241 775 -1147 
L 775 -588 
Q 1028 -725 1275 -790 
Q 1522 -856 1778 -856 
Q 2344 -856 2625 -561 
Q 2906 -266 2906 331 
L 2906 616 
Q 2728 306 2450 153 
Q 2172 0 1784 0 
Q 1141 0 747 490 
Q 353 981 353 1791 
Q 353 2603 747 3093 
Q 1141 3584 1784 3584 
Q 2172 3584 2450 3431 
Q 2728 3278 2906 2969 
L 2906 3500 
L 3481 3500 
L 3481 434 
z
" transform="scale(0.015625)"/>
       <path id="DejaVuSans-30" d="M 2034 4250 
Q 1547 4250 1301 3770 
Q 1056 3291 1056 2328 
Q 1056 1369 1301 889 
Q 1547 409 2034 409 
Q 2525 409 2770 889 
Q 3016 1369 3016 2328 
Q 3016 3291 2770 3770 
Q 2525 4250 2034 4250 
z
M 2034 4750 
Q 2819 4750 3233 4129 
Q 3647 3509 3647 2328 
Q 3647 1150 3233 529 
Q 2819 -91 2034 -91 
Q 1250 -91 836 529 
Q 422 1150 422 2328 
Q 422 3509 836 4129 
Q 1250 4750 2034 4750 
z
" transform="scale(0.015625)"/>
       <path id="DejaVuSans-20" transform="scale(0.015625)"/>
       <path id="DejaVuSans-66" d="M 2375 4863 
L 2375 4384 
L 1825 4384 
Q 1516 4384 1395 4259 
Q 1275 4134 1275 3809 
L 1275 3500 
L 2222 3500 
L 2222 3053 
L 1275 3053 
L 1275 0 
L 697 0 
L 697 3053 
L 147 3053 
L 147 3500 
L 697 3500 
L 697 3744 
Q 697 4328 969 4595 
Q 1241 4863 1831 4863 
L 2375 4863 
z
" transform="scale(0.015625)"/>
       <path id="DejaVuSans-46" d="M 628 4666 
L 3309 4666 
L 3309 4134 
L 1259 4134 
L 1259 2759 
L 3109 2759 
L 3109 2228 
L 1259 2228 
L 1259 0 
L 628 0 
L 628 4666 
z
" transform="scale(0.015625)"/>
       <path id="DejaVuSans-45" d="M 628 4666 
L 3578 4666 
L 3578 4134 
L 1259 4134 
L 1259 2753 
L 3481 2753 
L 3481 2222 
L 1259 2222 
L 1259 531 
L 3634 531 
L 3634 0 
L 628 0 
L 628 4666 
z
" transform="scale(0.015625)"/>
       <path id="DejaVuSans-76" d="M 191 3500 
L 800 3500 
L 1894 563 
L 2988 3500 
L 3597 3500 
L 2284 0 
L 1503 0 
L 191 3500 
z
" transform="scale(0.015625)"/>
       <path id="DejaVuSans-61" d="M 2194 1759 
Q 1497 1759 1228 1600 
Q 959 1441 959 1056 
Q 959 750 1161 570 
Q 1363 391 1709 391 
Q 2188 391 2477 730 
Q 2766 1069 2766 1631 
L 2766 1759 
L 2194 1759 
z
M 3341 1997 
L 3341 0 
L 2766 0 
L 2766 531 
Q 2569 213 2275 61 
Q 1981 -91 1556 -91 
Q 1019 -91 701 211 
Q 384 513 384 1019 
Q 384 1609 779 1909 
Q 1175 2209 1959 2209 
L 2766 2209 
L 2766 2266 
Q 2766 2663 2505 2880 
Q 2244 3097 1772 3097 
Q 1472 3097 1187 3025 
Q 903 2953 641 2809 
L 641 3341 
Q 956 3463 1253 3523 
Q 1550 3584 1831 3584 
Q 2591 3584 2966 3190 
Q 3341 2797 3341 1997 
z
" transform="scale(0.015625)"/>
       <path id="DejaVuSans-73" d="M 2834 3397 
L 2834 2853 
Q 2591 2978 2328 3040 
Q 2066 3103 1784 3103 
Q 1356 3103 1142 2972 
Q 928 2841 928 2578 
Q 928 2378 1081 2264 
Q 1234 2150 1697 2047 
L 1894 2003 
Q 2506 1872 2764 1633 
Q 3022 1394 3022 966 
Q 3022 478 2636 193 
Q 2250 -91 1575 -91 
Q 1294 -91 989 -36 
Q 684 19 347 128 
L 347 722 
Q 666 556 975 473 
Q 1284 391 1588 391 
Q 1994 391 2212 530 
Q 2431 669 2431 922 
Q 2431 1156 2273 1281 
Q 2116 1406 1581 1522 
L 1381 1569 
Q 847 1681 609 1914 
Q 372 2147 372 2553 
Q 372 3047 722 3315 
Q 1072 3584 1716 3584 
Q 2034 3584 2315 3537 
Q 2597 3491 2834 3397 
z
" transform="scale(0.015625)"/>
       <path id="DejaVuSans-72" d="M 2631 2963 
Q 2534 3019 2420 3045 
Q 2306 3072 2169 3072 
Q 1681 3072 1420 2755 
Q 1159 2438 1159 1844 
L 1159 0 
L 581 0 
L 581 3500 
L 1159 3500 
L 1159 2956 
Q 1341 3275 1631 3429 
Q 1922 3584 2338 3584 
Q 2397 3584 2469 3576 
Q 2541 3569 2628 3553 
L 2631 2963 
z
" transform="scale(0.015625)"/>
       <path id="DejaVuSans-74" d="M 1172 4494 
L 1172 3500 
L 2356 3500 
L 2356 3053 
L 1172 3053 
L 1172 1153 
Q 1172 725 1289 603 
Q 1406 481 1766 481 
L 2356 481 
L 2356 0 
L 1766 0 
Q 1100 0 847 248 
Q 594 497 594 1153 
L 594 3053 
L 172 3053 
L 172 3500 
L 594 3500 
L 594 4494 
L 1172 4494 
z
" transform="scale(0.015625)"/>
       <path id="DejaVuSans-69" d="M 603 3500 
L 1178 3500 
L 1178 0 
L 603 0 
L 603 3500 
z
M 603 4863 
L 1178 4863 
L 1178 4134 
L 603 4134 
L 603 4863 
z
" transform="scale(0.015625)"/>
      </defs>
      <use xlink:href="#DejaVuSans-6c"/>
      <use xlink:href="#DejaVuSans-6f" x="27.783203"/>
      <use xlink:href="#DejaVuSans-67" x="88.964844"/>
      <use xlink:href="#DejaVuSans-31" x="152.441406"/>
      <use xlink:href="#DejaVuSans-30" x="216.064453"/>
      <use xlink:href="#DejaVuSans-20" x="279.6875"/>
      <use xlink:href="#DejaVuSans-6f" x="311.474609"/>
      <use xlink:href="#DejaVuSans-66" x="372.65625"/>
      <use xlink:href="#DejaVuSans-20" x="407.861328"/>
      <use xlink:href="#DejaVuSans-46" x="439.648438"/>
      <use xlink:href="#DejaVuSans-45" x="497.167969"/>
      <use xlink:href="#DejaVuSans-76" x="560.351562"/>
      <use xlink:href="#DejaVuSans-61" x="619.53125"/>
      <use xlink:href="#DejaVuSans-6c" x="680.810547"/>
      <use xlink:href="#DejaVuSans-73" x="708.59375"/>
      <use xlink:href="#DejaVuSans-20" x="760.693359"/>
      <use xlink:href="#DejaVuSans-72" x="792.480469"/>
      <use xlink:href="#DejaVuSans-61" x="833.59375"/>
      <use xlink:href="#DejaVuSans-74" x="894.873047"/>
      <use xlink:href="#DejaVuSans-69" x="934.082031"/>
      <use xlink:href="#DejaVuSans-6f" x="961.865234"/>
     </g>
    </g>
   </g>
   <g id="matplotlib.axis_2">
    <g id="ytick_1">
     <g id="line2d_50">
      <path d="M 34.16 288.453725 
L 453.192 288.453725 
" clip-path="url(#p0190c20ea1)" style="fill: none; stroke: #b0b0b0; stroke-width: 0.8; stroke-linecap: square"/>
     </g>
     <g id="line2d_51">
      <defs>
       <path id="m0503d9cd38" d="M 0 0 
L -3.5 0 
" style="stroke: #000000; stroke-width: 0.8"/>
      </defs>
      <g>
       <use xlink:href="#m0503d9cd38" x="34.16" y="288.453725" style="stroke: #000000; stroke-width: 0.8"/>
      </g>
     </g>
    </g>
    <g id="ytick_2">
     <g id="line2d_52">
      <path d="M 34.16 217.796863 
L 453.192 217.796863 
" clip-path="url(#p0190c20ea1)" style="fill: none; stroke: #b0b0b0; stroke-width: 0.8; stroke-linecap: square"/>
     </g>
     <g id="line2d_53">
      <g>
       <use xlink:href="#m0503d9cd38" x="34.16" y="217.796863" style="stroke: #000000; stroke-width: 0.8"/>
      </g>
     </g>
    </g>
    <g id="ytick_3">
     <g id="line2d_54">
      <path d="M 34.16 147.14 
L 453.192 147.14 
" clip-path="url(#p0190c20ea1)" style="fill: none; stroke: #b0b0b0; stroke-width: 0.8; stroke-linecap: square"/>
     </g>
     <g id="line2d_55">
      <g>
       <use xlink:href="#m0503d9cd38" x="34.16" y="147.14" style="stroke: #000000; stroke-width: 0.8"/>
      </g>
     </g>
    </g>
    <g id="ytick_4">
     <g id="line2d_56">
      <path d="M 34.16 76.483137 
L 453.192 76.483137 
" clip-path="url(#p0190c20ea1)" style="fill: none; stroke: #b0b0b0; stroke-width: 0.8; stroke-linecap: square"/>
     </g>
     <g id="line2d_57">
      <g>
       <use xlink:href="#m0503d9cd38" x="34.16" y="76.483137" style="stroke: #000000; stroke-width: 0.8"/>
      </g>
     </g>
    </g>
    <g id="ytick_5">
     <g id="line2d_58">
      <path d="M 34.16 5.826275 
L 453.192 5.826275 
" clip-path="url(#p0190c20ea1)" style="fill: none; stroke: #b0b0b0; stroke-width: 0.8; stroke-linecap: square"/>
     </g>
     <g id="line2d_59">
      <g>
       <use xlink:href="#m0503d9cd38" x="34.16" y="5.826275" style="stroke: #000000; stroke-width: 0.8"/>
      </g>
     </g>
    </g>
    <g id="text_4">
     <!-- proportion of trials -->
     <g transform="translate(19.000625 240.14625) rotate(-90) scale(0.2 -0.2)">
      <defs>
       <path id="DejaVuSans-70" d="M 1159 525 
L 1159 -1331 
L 581 -1331 
L 581 3500 
L 1159 3500 
L 1159 2969 
Q 1341 3281 1617 3432 
Q 1894 3584 2278 3584 
Q 2916 3584 3314 3078 
Q 3713 2572 3713 1747 
Q 3713 922 3314 415 
Q 2916 -91 2278 -91 
Q 1894 -91 1617 61 
Q 1341 213 1159 525 
z
M 3116 1747 
Q 3116 2381 2855 2742 
Q 2594 3103 2138 3103 
Q 1681 3103 1420 2742 
Q 1159 2381 1159 1747 
Q 1159 1113 1420 752 
Q 1681 391 2138 391 
Q 2594 391 2855 752 
Q 3116 1113 3116 1747 
z
" transform="scale(0.015625)"/>
       <path id="DejaVuSans-6e" d="M 3513 2113 
L 3513 0 
L 2938 0 
L 2938 2094 
Q 2938 2591 2744 2837 
Q 2550 3084 2163 3084 
Q 1697 3084 1428 2787 
Q 1159 2491 1159 1978 
L 1159 0 
L 581 0 
L 581 3500 
L 1159 3500 
L 1159 2956 
Q 1366 3272 1645 3428 
Q 1925 3584 2291 3584 
Q 2894 3584 3203 3211 
Q 3513 2838 3513 2113 
z
" transform="scale(0.015625)"/>
      </defs>
      <use xlink:href="#DejaVuSans-70"/>
      <use xlink:href="#DejaVuSans-72" x="63.476562"/>
      <use xlink:href="#DejaVuSans-6f" x="102.339844"/>
      <use xlink:href="#DejaVuSans-70" x="163.521484"/>
      <use xlink:href="#DejaVuSans-6f" x="226.998047"/>
      <use xlink:href="#DejaVuSans-72" x="288.179688"/>
      <use xlink:href="#DejaVuSans-74" x="329.292969"/>
      <use xlink:href="#DejaVuSans-69" x="368.501953"/>
      <use xlink:href="#DejaVuSans-6f" x="396.285156"/>
      <use xlink:href="#DejaVuSans-6e" x="457.466797"/>
      <use xlink:href="#DejaVuSans-20" x="520.845703"/>
      <use xlink:href="#DejaVuSans-6f" x="552.632812"/>
      <use xlink:href="#DejaVuSans-66" x="613.814453"/>
      <use xlink:href="#DejaVuSans-20" x="649.019531"/>
      <use xlink:href="#DejaVuSans-74" x="680.806641"/>
      <use xlink:href="#DejaVuSans-72" x="720.015625"/>
      <use xlink:href="#DejaVuSans-69" x="761.128906"/>
      <use xlink:href="#DejaVuSans-61" x="788.912109"/>
      <use xlink:href="#DejaVuSans-6c" x="850.191406"/>
      <use xlink:href="#DejaVuSans-73" x="877.974609"/>
     </g>
    </g>
   </g>
   <g id="line2d_60">
    <path d="M 34.16 249.570688 
L 52.674091 249.570688 
L 52.674091 248.990344 
L 55.614846 248.990344 
L 55.614846 248.41 
L 60.867733 248.41 
L 60.867733 247.829657 
L 63.101068 247.829657 
L 63.101068 247.249313 
L 73.754362 247.249313 
L 73.754362 246.668969 
L 75.152055 246.668969 
L 75.152055 246.088625 
L 76.695117 246.088625 
L 76.695117 245.508281 
L 79.911528 245.508281 
L 79.911528 244.927937 
L 81.948004 244.927937 
L 81.948004 244.347594 
L 84.181339 244.347594 
L 84.181339 243.76725 
L 92.42334 243.76725 
L 92.498616 242.606562 
L 92.888065 242.606562 
L 92.888065 242.026218 
L 93.746795 242.026218 
L 93.746795 241.445874 
L 95.364095 241.445874 
L 95.439371 240.285187 
L 95.82882 240.285187 
L 95.82882 239.704843 
L 96.232326 239.704843 
L 96.232326 239.124499 
L 96.68755 239.124499 
L 96.68755 238.544155 
L 100.616982 238.544155 
L 100.692257 237.383467 
L 100.991799 237.383467 
L 101.081707 236.22278 
L 101.940437 236.22278 
L 101.940437 235.642436 
L 102.850317 235.642436 
L 102.925593 234.481748 
L 103.315042 234.481748 
L 103.315042 233.901404 
L 104.173772 233.901404 
L 104.173772 233.321061 
L 114.901304 233.321061 
L 114.97658 232.160373 
L 115.366029 232.160373 
L 115.366029 231.580029 
L 116.224759 231.580029 
L 116.224759 230.999685 
L 119.660777 230.999685 
L 119.736053 229.838997 
L 120.125502 229.838997 
L 120.125502 229.258654 
L 120.45427 229.258654 
L 120.45427 228.67831 
L 120.752138 228.67831 
L 120.752138 228.097966 
L 120.984232 228.097966 
L 120.984232 227.517622 
L 122.090145 227.517622 
L 122.090145 226.937278 
L 123.395024 226.937278 
L 123.395024 226.356934 
L 123.692892 226.356934 
L 123.692892 225.776591 
L 125.0309 225.776591 
L 125.0309 225.196247 
L 128.647911 225.196247 
L 128.647911 224.615903 
L 128.945779 224.615903 
L 128.945779 224.035559 
L 130.283787 224.035559 
L 130.283787 223.455215 
L 130.881247 223.455215 
L 130.881247 222.874871 
L 131.179115 222.874871 
L 131.179115 222.294528 
L 132.517122 222.294528 
L 132.517122 221.714184 
L 142.932233 221.714184 
L 142.932233 221.13384 
L 143.230101 221.13384 
L 143.230101 220.553496 
L 144.568109 220.553496 
L 144.568109 219.973152 
L 147.691706 219.973152 
L 147.691706 219.392808 
L 147.989574 219.392808 
L 147.989574 218.812464 
L 149.327582 218.812464 
L 149.327582 218.232121 
L 179.473808 218.232121 
L 179.473808 217.651777 
L 195.257636 217.651777 
L 195.257636 217.071433 
L 200.554078 217.071433 
L 200.554078 216.491089 
L 216.337906 216.491089 
L 216.337906 215.910745 
L 219.223056 215.910745 
L 219.298332 214.750058 
L 219.687782 214.750058 
L 219.687782 214.169714 
L 220.546512 214.169714 
L 220.546512 213.58937 
L 222.271574 213.58937 
L 222.271574 213.009026 
L 222.385487 213.009026 
L 222.392975 211.848338 
L 223.010211 211.848338 
L 223.010211 211.267995 
L 224.205537 211.267995 
L 224.205537 210.687651 
L 224.386508 210.687651 
L 224.386508 210.107307 
L 224.83026 210.107307 
L 224.83026 209.526963 
L 224.96772 209.526963 
L 225.011231 208.366275 
L 225.592444 208.366275 
L 225.592444 207.785931 
L 226.270153 207.785931 
L 226.270153 207.205588 
L 226.566603 207.205588 
L 226.566603 206.625244 
L 226.759467 206.625244 
L 226.759467 206.0449 
L 226.894877 206.0449 
L 226.894877 205.464556 
L 227.191327 205.464556 
L 227.191327 204.884212 
L 227.498421 204.884212 
L 227.498421 204.303868 
L 227.847533 204.303868 
L 227.847533 203.723525 
L 228.073094 203.723525 
L 228.073094 203.143181 
L 228.472256 203.143181 
L 228.472256 202.562837 
L 229.318471 202.562837 
L 229.318471 201.982493 
L 229.499442 201.982493 
L 229.499442 201.402149 
L 229.700222 201.402149 
L 229.700222 200.821805 
L 230.039427 200.821805 
L 230.080654 199.661118 
L 230.317175 199.661118 
L 230.317175 199.080774 
L 230.664151 199.080774 
L 230.664151 198.50043 
L 230.828077 198.50043 
L 230.828077 197.920086 
L 231.013849 197.920086 
L 231.081725 196.759398 
L 231.383087 196.759398 
L 231.383087 196.179055 
L 231.679537 196.179055 
L 231.734344 194.438023 
L 231.954001 194.438023 
L 231.954001 193.857679 
L 232.137225 193.857679 
L 232.137225 193.277335 
L 232.318196 193.277335 
L 232.359068 192.116648 
L 232.648127 192.116648 
L 232.648127 191.536304 
L 232.829098 191.536304 
L 232.899408 190.375616 
L 232.960467 190.375616 
L 232.960467 189.795272 
L 233.41031 189.795272 
L 233.41031 189.214929 
L 233.582142 189.214929 
L 233.582142 188.634585 
L 234.201841 188.634585 
L 234.201841 188.054241 
L 234.498291 188.054241 
L 234.498291 187.473897 
L 234.712743 187.473897 
L 234.712743 186.893553 
L 234.953109 186.893553 
L 235.009193 185.152522 
L 235.08216 185.152522 
L 235.152361 183.41149 
L 235.402192 183.41149 
L 235.47161 182.250802 
L 235.583163 182.250802 
L 235.583163 181.670459 
L 235.761428 181.670459 
L 235.779221 180.509771 
L 236.164375 180.509771 
L 236.266736 178.768739 
L 236.290123 178.768739 
L 236.33034 177.608052 
L 236.847278 177.608052 
L 236.847278 177.027708 
L 237.186444 177.027708 
L 237.186444 176.447364 
L 237.466808 176.447364 
L 237.466808 175.86702 
L 237.685458 175.86702 
L 237.763258 174.706332 
L 237.971115 174.706332 
L 237.971115 174.125989 
L 238.482017 174.125989 
L 238.500072 172.965301 
L 239.013413 172.965301 
L 239.044188 171.804613 
L 239.524315 171.804613 
L 239.524315 171.224269 
L 239.666032 171.224269 
L 239.666032 170.643926 
L 240.176934 170.643926 
L 240.249639 169.483238 
L 240.522885 169.483238 
L 240.626213 168.32255 
L 240.697463 168.32255 
L 240.697463 167.742206 
L 241.18106 167.742206 
L 241.236082 166.581519 
L 241.805784 166.581519 
L 241.805784 166.001175 
L 242.27838 166.001175 
L 242.342934 164.840487 
L 242.517512 164.840487 
L 242.523905 163.679799 
L 242.698483 163.679799 
L 242.698483 163.099456 
L 242.869937 163.099456 
L 242.930999 161.938768 
L 243.010722 161.938768 
L 243.105117 160.197736 
L 243.279695 160.197736 
L 243.351845 159.037049 
L 243.436816 159.037049 
L 243.473246 157.876361 
L 243.579295 157.876361 
L 243.676 156.715673 
L 244.40755 156.715673 
L 244.40755 156.13533 
L 244.582128 156.13533 
L 244.689987 154.974642 
L 244.704001 154.974642 
L 244.750097 153.813954 
L 244.830771 153.813954 
L 244.878579 152.072923 
L 245.011742 152.072923 
L 245.011742 151.492579 
L 245.256865 151.492579 
L 245.256865 150.912235 
L 245.437836 150.912235 
L 245.45217 149.751547 
L 245.592955 149.751547 
L 245.592955 149.171203 
L 245.8791 149.171203 
L 245.98493 147.430172 
L 246.015914 147.430172 
L 246.019049 146.269484 
L 246.159508 146.269484 
L 246.159508 145.68914 
L 246.293994 145.68914 
L 246.33336 144.528453 
L 246.570147 144.528453 
L 246.616755 143.367765 
L 246.751118 143.367765 
L 246.754603 142.207077 
L 246.895388 142.207077 
L 246.895388 141.626734 
L 247.051053 141.626734 
L 247.051053 141.04639 
L 247.191838 141.04639 
L 247.253986 139.885702 
L 247.321482 139.885702 
L 247.33233 138.725014 
L 247.551854 138.725014 
L 247.617932 137.564327 
L 247.732842 137.564327 
L 247.835964 136.403639 
L 247.913813 136.403639 
L 248.016935 135.242951 
L 248.112435 135.242951 
L 248.176825 134.082264 
L 248.331983 134.082264 
L 248.351403 132.921576 
L 248.472767 132.921576 
L 248.495026 131.760888 
L 248.598147 131.760888 
L 248.634763 130.600201 
L 248.889862 130.600201 
L 248.931213 128.859169 
L 249.112748 128.859169 
L 249.219122 127.698481 
L 249.237431 127.698481 
L 249.237431 127.118137 
L 249.3937 127.118137 
L 249.3937 126.537794 
L 249.62365 126.537794 
L 249.62365 125.95745 
L 249.797459 125.95745 
L 249.90058 124.216418 
L 250.04632 124.216418 
L 250.093909 123.055731 
L 250.19703 123.055731 
L 250.212143 121.895043 
L 250.523878 121.895043 
L 250.551058 120.734355 
L 250.664662 120.734355 
L 250.664662 120.154011 
L 251.090756 120.154011 
L 251.090756 119.573668 
L 251.374838 119.573668 
L 251.47796 118.41298 
L 251.566175 118.41298 
L 251.566175 117.832636 
L 251.706959 117.832636 
L 251.706959 117.252292 
L 251.869642 117.252292 
L 251.869642 116.671948 
L 252.133053 116.671948 
L 252.218795 115.511261 
L 252.359579 115.511261 
L 252.404037 113.770229 
L 252.785673 113.770229 
L 252.785673 113.189885 
L 253.034272 113.189885 
L 253.034272 112.609541 
L 253.274102 112.609541 
L 253.274102 112.029198 
L 253.446335 112.029198 
L 253.44868 110.86851 
L 253.566733 110.86851 
L 253.669854 109.707822 
L 253.996904 109.707822 
L 254.102977 107.966791 
L 254.60903 107.966791 
L 254.712152 106.806103 
L 255.26165 106.806103 
L 255.364771 105.065071 
L 255.621155 105.065071 
L 255.621155 104.484728 
L 255.761939 104.484728 
L 255.761939 103.904384 
L 256.188033 103.904384 
L 256.188033 103.32404 
L 257.501315 103.32404 
L 257.501315 102.743696 
L 257.799394 102.743696 
L 257.799394 102.163352 
L 258.66401 102.163352 
L 258.767132 101.002665 
L 259.318458 101.002665 
L 259.318458 100.422321 
L 259.493036 100.422321 
L 259.493036 99.841977 
L 259.619444 99.841977 
L 259.619444 99.261633 
L 259.800415 99.261633 
L 259.800415 98.681289 
L 260.163422 98.681289 
L 260.163422 98.100945 
L 260.381627 98.100945 
L 260.381627 97.520602 
L 261.66551 97.520602 
L 261.68406 96.359914 
L 261.806295 96.359914 
L 261.806295 95.77957 
L 261.98051 95.77957 
L 262.020823 94.618882 
L 262.096099 94.618882 
L 262.142224 93.458195 
L 262.2175 93.458195 
L 262.232389 92.297507 
L 262.485548 92.297507 
L 262.485548 91.717163 
L 262.606949 91.717163 
L 262.606949 91.136819 
L 263.037814 91.136819 
L 263.037814 90.556475 
L 263.26144 90.556475 
L 263.344278 88.815444 
L 263.465679 88.815444 
L 263.54567 87.654756 
L 264.67369 87.654756 
L 264.708366 86.494069 
L 264.811487 86.494069 
L 264.811487 85.913725 
L 264.922895 85.913725 
L 264.922895 85.333381 
L 265.453334 85.333381 
L 265.453334 84.753037 
L 266.153964 84.753037 
L 266.153964 84.172693 
L 266.495632 84.172693 
L 266.495632 83.592349 
L 267.148251 83.592349 
L 267.148251 83.012005 
L 270.550612 83.012005 
L 270.550612 82.431662 
L 270.913437 82.431662 
L 270.913437 81.851318 
L 271.70325 81.851318 
L 271.778526 80.69063 
L 272.167975 80.69063 
L 272.167975 80.110286 
L 273.026705 80.110286 
L 273.026705 79.529942 
L 276.594967 79.529942 
L 276.594967 78.949599 
L 290.051753 78.949599 
L 290.051753 78.369255 
L 290.173154 78.369255 
L 290.173154 77.788911 
L 290.349621 77.788911 
L 290.349621 77.208567 
L 290.471022 77.208567 
L 290.471022 76.628223 
L 291.687628 76.628223 
L 291.687628 76.047879 
L 291.809029 76.047879 
L 291.809029 75.467536 
L 299.73418 75.467536 
L 299.73418 74.887192 
L 300.032048 74.887192 
L 300.032048 74.306848 
L 301.370055 74.306848 
L 301.370055 73.726504 
L 334.695458 73.726504 
L 334.695458 73.14616 
L 335.320182 73.14616 
L 335.320182 72.565816 
L 339.808392 72.565816 
L 339.808392 71.985472 
L 342.627146 71.985472 
L 342.627146 71.405129 
L 343.138048 71.405129 
L 343.138048 70.824785 
L 345.892113 70.824785 
L 345.892113 70.244441 
L 352.832856 70.244441 
L 352.832856 69.664097 
L 353.007434 69.664097 
L 353.007434 69.083753 
L 353.559184 69.083753 
L 353.559184 68.503409 
L 354.872811 68.503409 
L 354.872811 67.923066 
L 355.179908 67.923066 
L 355.179908 67.342722 
L 355.320693 67.342722 
L 355.320693 66.762378 
L 355.52344 66.762378 
L 355.52344 66.182034 
L 355.746787 66.182034 
L 355.746787 65.60169 
L 356.148164 65.60169 
L 356.148164 65.021346 
L 357.060068 65.021346 
L 357.060068 64.441003 
L 358.222764 64.441003 
L 358.325885 63.280315 
L 360.636374 63.280315 
L 360.636374 62.699971 
L 363.455128 62.699971 
L 363.455128 62.119627 
L 363.96603 62.119627 
L 363.96603 61.539283 
L 364.485175 61.539283 
L 364.485175 60.958939 
L 366.720095 60.958939 
L 366.720095 60.378596 
L 369.343012 60.378596 
L 369.343012 59.798252 
L 370.109365 59.798252 
L 370.109365 59.217908 
L 370.475717 59.217908 
L 370.475717 58.637564 
L 370.656639 58.637564 
L 370.656639 58.05722 
L 373.660838 58.05722 
L 373.660838 57.476876 
L 373.835416 57.476876 
L 373.835416 56.896533 
L 376.007891 56.896533 
L 376.007891 56.316189 
L 376.148675 56.316189 
L 376.148675 55.735845 
L 376.574769 55.735845 
L 376.574769 55.155501 
L 377.88805 55.155501 
L 377.88805 54.575157 
L 378.051874 54.575157 
L 378.051874 53.994813 
L 378.676598 53.994813 
L 378.676598 53.41447 
L 379.050746 53.41447 
L 379.153867 52.253782 
L 380.269003 52.253782 
L 380.269003 51.673438 
L 383.164808 51.673438 
L 383.164808 51.093094 
L 385.983562 51.093094 
L 385.983562 50.51275 
L 386.259545 50.51275 
L 386.259545 49.932406 
L 386.494464 49.932406 
L 386.494464 49.352063 
L 389.248529 49.352063 
L 389.248529 48.771719 
L 390.937347 48.771719 
L 390.937347 48.191375 
L 396.189271 48.191375 
L 396.189271 47.611031 
L 396.35695 47.611031 
L 396.363849 46.450343 
L 396.478351 46.450343 
L 396.478351 45.87 
L 397.670578 45.87 
L 397.670578 45.289656 
L 397.791978 45.289656 
L 397.791978 44.709312 
L 398.536324 44.709312 
L 398.536324 44.128968 
L 398.677109 44.128968 
L 398.677109 43.548624 
L 399.103203 43.548624 
L 399.103203 42.96828 
L 400.416484 42.96828 
L 400.416484 42.387937 
L 401.57918 42.387937 
L 401.682301 41.227249 
L 406.039377 41.227249 
L 406.039377 40.646905 
L 407.282941 40.646905 
L 407.353005 39.486217 
L 407.404342 39.486217 
L 407.404342 38.905873 
L 413.273483 38.905873 
L 413.273483 38.32553 
L 413.394884 38.32553 
L 413.465781 37.164842 
L 416.965368 37.164842 
L 416.965368 36.584498 
L 422.95591 36.584498 
L 422.95591 36.004154 
L 453.192 36.004154 
L 453.192 36.004154 
" clip-path="url(#p0190c20ea1)" style="fill: none; stroke: #000000; stroke-width: 3; stroke-linecap: square"/>
   </g>
   <g id="line2d_61">
    <path clip-path="url(#p0190c20ea1)" style="fill: none; stroke: #000000; stroke-width: 3; stroke-linecap: square"/>
   </g>
   <g id="line2d_62">
    <path d="M 34.16 278.082076 
L 196.961916 278.082076 
L 196.961916 277.433848 
L 200.897737 277.433848 
L 200.897737 276.78562 
L 210.828703 276.78562 
L 210.828703 276.137392 
L 215.174829 276.137392 
L 215.174829 275.489164 
L 215.69217 275.489164 
L 215.69217 274.840935 
L 218.496765 274.840935 
L 218.496765 274.192707 
L 218.990496 274.192707 
L 218.990496 273.544479 
L 219.110651 273.544479 
L 219.110651 272.896251 
L 221.090464 272.896251 
L 221.090464 272.248023 
L 222.432587 272.248023 
L 222.432587 271.599795 
L 223.535318 271.599795 
L 223.535318 270.951567 
L 225.456379 270.951567 
L 225.456379 270.303339 
L 227.600801 270.303339 
L 227.600801 269.655111 
L 229.041617 269.655111 
L 229.041617 269.006883 
L 230.796322 269.006883 
L 230.796322 268.358654 
L 232.363552 268.358654 
L 232.363552 267.710426 
L 232.477718 267.710426 
L 232.477718 267.062198 
L 233.442088 267.062198 
L 233.442088 266.41397 
L 233.716569 266.41397 
L 233.716569 265.765742 
L 234.385017 265.765742 
L 234.385017 265.117514 
L 234.525922 265.117514 
L 234.525922 264.469286 
L 234.963945 264.469286 
L 234.963945 263.821058 
L 236.204288 263.821058 
L 236.204288 263.17283 
L 236.48159 263.17283 
L 236.48159 262.524602 
L 237.160973 262.524602 
L 237.239827 261.228145 
L 237.442769 261.228145 
L 237.495004 259.931689 
L 237.824248 259.931689 
L 237.924833 257.987005 
L 238.262271 257.987005 
L 238.350418 256.690549 
L 238.835819 256.690549 
L 238.835819 256.042321 
L 239.303378 256.042321 
L 239.303378 255.394092 
L 239.502614 255.394092 
L 239.502614 254.745864 
L 239.76236 254.745864 
L 239.779916 253.449408 
L 241.175649 253.449408 
L 241.175649 252.80118 
L 241.378591 252.80118 
L 241.378591 252.152952 
L 241.748231 252.152952 
L 241.815088 250.856496 
L 241.860655 250.856496 
L 241.860655 250.208268 
L 242.625313 250.208268 
L 242.625313 249.56004 
L 242.771641 249.56004 
L 242.771641 248.911811 
L 243.506908 248.911811 
L 243.506908 248.263583 
L 244.290131 248.263583 
L 244.290131 247.615355 
L 244.728154 247.615355 
L 244.728154 246.967127 
L 245.070167 246.967127 
L 245.070167 246.318899 
L 245.968497 246.318899 
L 245.968497 245.670671 
L 246.245799 245.670671 
L 246.245799 245.022443 
L 246.434553 245.022443 
L 246.434553 244.374215 
L 246.872575 244.374215 
L 246.872575 243.725987 
L 248.112919 243.725987 
L 248.112919 243.077759 
L 248.390221 243.077759 
L 248.390221 242.42953 
L 249.630074 242.42953 
L 249.630074 241.781302 
L 250.068097 241.781302 
L 250.068097 241.133074 
L 250.690632 241.133074 
L 250.690632 240.484846 
L 251.106614 240.484846 
L 251.106614 239.836618 
L 251.30844 239.836618 
L 251.309557 238.540162 
L 251.585742 238.540162 
L 251.585742 237.891934 
L 251.746053 237.891934 
L 251.791621 236.595478 
L 252.275839 236.595478 
L 252.275839 235.94725 
L 252.55032 235.94725 
L 252.645561 234.650793 
L 252.702606 234.650793 
L 252.713862 233.354337 
L 252.988343 233.354337 
L 252.988343 232.706109 
L 253.218768 232.706109 
L 253.218768 232.057881 
L 253.656791 232.057881 
L 253.656791 231.409653 
L 253.954205 231.409653 
L 254.012567 230.113197 
L 254.228686 230.113197 
L 254.231508 228.81674 
L 254.505988 228.81674 
L 254.505988 228.168512 
L 254.814385 228.168512 
L 254.897134 226.872056 
L 255.174436 226.872056 
L 255.174436 226.223828 
L 255.994724 226.223828 
L 255.994724 225.5756 
L 256.199584 225.5756 
L 256.199584 224.927372 
L 256.328755 224.927372 
L 256.432747 223.630916 
L 256.766778 223.630916 
L 256.766778 222.982688 
L 257.18417 222.982688 
L 257.18417 222.334459 
L 257.598356 222.334459 
L 257.67309 220.389775 
L 257.950392 220.389775 
L 258.007121 219.093319 
L 258.112711 219.093319 
L 258.112711 218.445091 
L 258.284423 218.445091 
L 258.284423 217.796863 
L 258.596111 217.796863 
L 258.596111 217.148635 
L 258.862536 217.148635 
L 258.862536 216.500407 
L 259.034134 216.500407 
L 259.139838 215.20395 
L 259.49791 215.20395 
L 259.49791 214.555722 
L 260.274477 214.555722 
L 260.274477 213.907494 
L 260.55178 213.907494 
L 260.55178 213.259266 
L 260.896682 213.259266 
L 260.896682 212.611038 
L 261.083645 212.611038 
L 261.083645 211.96281 
L 261.368375 211.96281 
L 261.368375 211.314582 
L 261.571317 211.314582 
L 261.571317 210.666354 
L 261.719821 210.666354 
L 261.719821 210.018126 
L 262.007814 210.018126 
L 262.053382 208.721669 
L 262.964367 208.721669 
L 262.964367 208.073441 
L 263.188272 208.073441 
L 263.188272 207.425213 
L 263.705884 207.425213 
L 263.813229 206.128757 
L 264.016171 206.128757 
L 264.016171 205.480529 
L 264.452668 205.480529 
L 264.498235 204.184073 
L 264.578594 204.184073 
L 264.578594 203.535845 
L 265.019467 203.535845 
L 265.041757 202.239388 
L 265.262682 202.239388 
L 265.262682 201.59116 
L 265.409221 201.59116 
L 265.409221 200.942932 
L 265.963793 200.942932 
L 265.963793 200.294704 
L 266.723016 200.294704 
L 266.723016 199.646476 
L 267.124093 199.646476 
L 267.124093 198.998248 
L 267.362565 198.998248 
L 267.362565 198.35002 
L 267.641705 198.35002 
L 267.641705 197.701792 
L 268.108215 197.701792 
L 268.108215 197.053564 
L 269.198504 197.053564 
L 269.198504 196.405335 
L 269.506987 196.405335 
L 269.506987 195.757107 
L 269.918537 195.757107 
L 269.918537 195.108879 
L 270.858475 195.108879 
L 270.858475 194.460651 
L 271.303736 194.460651 
L 271.303736 193.812423 
L 272.564303 193.812423 
L 272.564303 193.164195 
L 272.702508 193.164195 
L 272.755629 191.867739 
L 272.838783 191.867739 
L 272.838783 191.219511 
L 272.958571 191.219511 
L 272.958571 190.571283 
L 273.395068 190.571283 
L 273.440636 189.274826 
L 273.507232 189.274826 
L 273.507232 188.626598 
L 273.949502 188.626598 
L 273.949502 187.97837 
L 274.180411 187.97837 
L 274.223982 186.681914 
L 274.351621 186.681914 
L 274.351621 186.033686 
L 274.89243 186.033686 
L 274.950433 184.73723 
L 275.348274 184.73723 
L 275.348274 184.089002 
L 275.622754 184.089002 
L 275.622754 183.440774 
L 276.283187 183.440774 
L 276.291203 182.144317 
L 276.617218 182.144317 
L 276.617218 181.496089 
L 277.055059 181.496089 
L 277.055059 180.847861 
L 277.472633 180.847861 
L 277.572671 179.551405 
L 277.668386 179.551405 
L 277.668386 178.903177 
L 278.002417 178.903177 
L 278.002417 178.254949 
L 278.857832 178.254949 
L 278.884575 176.958493 
L 279.067158 176.958493 
L 279.129469 175.662036 
L 279.401189 175.662036 
L 279.401189 175.013808 
L 280.256604 175.013808 
L 280.269774 173.717352 
L 281.668546 173.717352 
L 281.668546 173.069124 
L 282.100136 173.069124 
L 282.100136 172.420896 
L 283.784819 172.420896 
L 283.784819 171.772668 
L 283.987761 171.772668 
L 283.987761 171.12444 
L 284.424258 171.12444 
L 284.469825 169.827983 
L 285.212193 169.827983 
L 285.212193 169.179755 
L 285.380811 169.179755 
L 285.398462 167.883299 
L 285.585355 167.883299 
L 285.585355 167.235071 
L 287.31682 167.235071 
L 287.31682 166.586843 
L 287.657047 166.586843 
L 287.657047 165.938615 
L 287.834432 165.938615 
L 287.834432 165.290387 
L 288.883681 165.290387 
L 288.883681 164.642159 
L 289.39123 164.642159 
L 289.39123 163.993931 
L 289.761673 163.993931 
L 289.761673 163.345702 
L 290.279286 163.345702 
L 290.279286 162.697474 
L 291.836084 162.697474 
L 291.864345 161.401018 
L 292.923473 161.401018 
L 292.923473 160.75279 
L 293.126415 160.75279 
L 293.126415 160.104562 
L 293.562912 160.104562 
L 293.608479 158.808106 
L 294.008767 158.808106 
L 294.008767 158.159878 
L 294.519465 158.159878 
L 294.519465 157.51165 
L 295.349564 157.51165 
L 295.349564 156.863421 
L 296.599447 156.863421 
L 296.599447 156.215193 
L 297.204288 156.215193 
L 297.204288 155.566965 
L 297.493986 155.566965 
L 297.493986 154.918737 
L 298.704074 154.918737 
L 298.704074 154.270509 
L 299.221686 154.270509 
L 299.221686 153.622281 
L 299.850054 153.622281 
L 299.850054 152.974053 
L 300.124535 152.974053 
L 300.124535 152.325825 
L 300.282826 152.325825 
L 300.282826 151.677597 
L 300.689508 151.677597 
L 300.792983 149.732912 
L 303.335273 149.732912 
L 303.335273 149.084684 
L 303.568939 149.084684 
L 303.609754 147.14 
L 303.90297 147.14 
L 303.90297 146.491772 
L 304.278202 146.491772 
L 304.278202 145.843544 
L 304.758384 145.843544 
L 304.758384 145.195316 
L 306.170326 145.195316 
L 306.170326 144.547088 
L 307.054158 144.547088 
L 307.054158 143.89886 
L 307.388189 143.89886 
L 307.388189 143.250631 
L 307.628637 143.250631 
L 307.628637 142.602403 
L 308.243603 142.602403 
L 308.243603 141.954175 
L 309.655545 141.954175 
L 309.733263 140.657719 
L 310.047035 140.657719 
L 310.047035 140.009491 
L 310.237391 140.009491 
L 310.250876 138.713035 
L 311.807674 138.713035 
L 311.807674 138.064807 
L 312.191457 138.064807 
L 312.191457 137.416579 
L 313.535717 137.416579 
L 313.535717 136.76835 
L 315.386978 136.76835 
L 315.386978 136.120122 
L 316.120427 136.120122 
L 316.120427 135.471894 
L 316.767291 135.471894 
L 316.767291 134.823666 
L 318.032743 134.823666 
L 318.032743 134.175438 
L 318.307224 134.175438 
L 318.307224 133.52721 
L 318.871917 133.52721 
L 318.975672 132.230754 
L 319.389529 132.230754 
L 319.418753 130.934298 
L 320.0016 130.934298 
L 320.0016 130.286069 
L 320.946328 130.286069 
L 320.946328 129.637841 
L 321.751628 129.637841 
L 321.751628 128.989613 
L 322.085659 128.989613 
L 322.146022 127.693157 
L 322.941074 127.693157 
L 322.941074 127.044929 
L 324.353015 127.044929 
L 324.353015 126.396701 
L 325.341543 126.396701 
L 325.341543 125.748473 
L 325.884636 125.748473 
L 325.884636 125.100245 
L 327.987308 125.100245 
L 328.029057 123.803788 
L 328.261789 123.803788 
L 328.261789 123.15556 
L 328.930237 123.15556 
L 328.930237 122.507332 
L 331.224579 122.507332 
L 331.224579 121.859104 
L 331.706193 121.859104 
L 331.706193 121.210876 
L 332.040224 121.210876 
L 332.040224 120.562648 
L 332.895639 120.562648 
L 332.895639 119.91442 
L 333.305776 119.91442 
L 333.305776 119.266192 
L 333.870344 119.266192 
L 333.870344 118.617964 
L 334.144825 118.617964 
L 334.144825 117.969736 
L 334.30758 117.969736 
L 334.30758 117.321507 
L 334.813273 117.321507 
L 334.813273 116.673279 
L 337.241598 116.673279 
L 337.241598 116.025051 
L 337.589229 116.025051 
L 337.589229 115.376823 
L 337.92326 115.376823 
L 337.92326 114.728595 
L 338.778675 114.728595 
L 338.778675 114.080367 
L 340.190616 114.080367 
L 340.190616 113.432139 
L 342.038795 113.432139 
L 342.038795 112.783911 
L 343.062192 112.783911 
L 343.062192 112.135683 
L 345.337121 112.135683 
L 345.337121 111.487455 
L 346.360518 111.487455 
L 346.360518 110.839226 
L 347.172563 110.839226 
L 347.172563 110.190998 
L 351.803004 110.190998 
L 351.803004 109.54277 
L 352.826401 109.54277 
L 352.826401 108.894542 
L 353.947426 108.894542 
L 353.947426 108.246314 
L 354.970823 108.246314 
L 354.970823 107.598086 
L 357.142947 107.598086 
L 357.142947 106.949858 
L 357.434324 106.949858 
L 357.434324 106.30163 
L 358.166344 106.30163 
L 358.166344 105.653402 
L 359.788713 105.653402 
L 359.879178 104.356945 
L 360.063193 104.356945 
L 360.063193 103.708717 
L 360.731641 103.708717 
L 360.81211 102.412261 
L 361.08659 102.412261 
L 361.08659 101.764033 
L 361.755038 101.764033 
L 361.755038 101.115805 
L 363.507597 101.115805 
L 363.507597 100.467577 
L 363.841628 100.467577 
L 363.841628 99.819349 
L 364.530994 99.819349 
L 364.530994 99.171121 
L 364.697043 99.171121 
L 364.697043 98.522893 
L 364.865025 98.522893 
L 364.865025 97.874665 
L 365.72044 97.874665 
L 365.72044 97.226436 
L 366.108985 97.226436 
L 366.108985 96.578208 
L 367.132382 96.578208 
L 367.132382 95.92998 
L 368.821578 95.92998 
L 368.821578 95.281752 
L 379.850768 95.281752 
L 379.850768 94.633524 
L 388.989422 94.633524 
L 388.989422 93.985296 
L 453.192 93.985296 
L 453.192 93.985296 
" clip-path="url(#p0190c20ea1)" style="fill: none; stroke: #00bfbf; stroke-width: 3; stroke-linecap: square"/>
   </g>
   <g id="line2d_63">
    <path clip-path="url(#p0190c20ea1)" style="fill: none; stroke: #00bfbf; stroke-width: 3; stroke-linecap: square"/>
   </g>
   <g id="line2d_64">
    <path d="M 34.16 269.521743 
L 198.861415 269.521743 
L 198.861415 268.169459 
L 201.089781 268.169459 
L 201.089781 266.817174 
L 218.166802 266.817174 
L 218.166802 265.46489 
L 219.734829 265.46489 
L 219.734829 264.112605 
L 220.395168 264.112605 
L 220.395168 262.760321 
L 221.385363 262.760321 
L 221.385363 261.408036 
L 222.707218 261.408036 
L 222.707218 260.055752 
L 222.86451 260.055752 
L 222.86451 258.703467 
L 223.613728 258.703467 
L 223.613728 257.351183 
L 225.092875 257.351183 
L 225.092875 255.998899 
L 229.59025 255.998899 
L 229.59025 254.646614 
L 231.818615 254.646614 
L 231.818615 253.29433 
L 232.259255 253.29433 
L 232.259255 251.942045 
L 234.48762 251.942045 
L 234.48762 250.589761 
L 239.040216 250.589761 
L 239.040216 249.237476 
L 240.27493 249.237476 
L 240.27493 247.885192 
L 242.012605 247.885192 
L 242.04992 245.180623 
L 242.177535 245.180623 
L 242.258776 239.771485 
L 242.503296 239.771485 
L 242.503296 238.419201 
L 243.087388 238.419201 
L 243.087388 237.066916 
L 243.737923 237.066916 
L 243.737923 235.714632 
L 245.231165 235.714632 
L 245.231165 234.362347 
L 246.710312 234.362347 
L 246.710312 233.010063 
L 250.463663 233.010063 
L 250.463663 231.657778 
L 253.132668 231.657778 
L 253.132668 230.305494 
L 253.436052 230.305494 
L 253.436052 228.953209 
L 256.105057 228.953209 
L 256.105057 227.600925 
L 261.148343 227.600925 
L 261.148343 226.248641 
L 261.355307 226.248641 
L 261.355307 224.896356 
L 261.482922 224.896356 
L 261.555382 220.839503 
L 262.392775 220.839503 
L 262.392775 219.487218 
L 264.120732 219.487218 
L 264.120732 218.134934 
L 264.573868 218.134934 
L 264.573868 216.782649 
L 264.701482 216.782649 
L 264.773942 212.725796 
L 265.524982 212.725796 
L 265.611335 210.021227 
L 266.053015 210.021227 
L 266.053015 208.668943 
L 266.180629 208.668943 
L 266.253089 204.612089 
L 266.710203 204.612089 
L 266.710203 203.259805 
L 267.090482 203.259805 
L 267.090482 201.90752 
L 268.142332 201.90752 
L 268.142332 200.555236 
L 269.764448 200.555236 
L 269.764448 199.202951 
L 272.778755 199.202951 
L 272.778755 197.850667 
L 272.906369 197.850667 
L 272.978829 193.793814 
L 273.816222 193.793814 
L 273.816222 192.441529 
L 275.44776 192.441529 
L 275.44776 191.089245 
L 275.575374 191.089245 
L 275.647834 187.032391 
L 276.485227 187.032391 
L 276.485227 185.680107 
L 283.463435 185.680107 
L 283.463435 184.327822 
L 283.591049 184.327822 
L 283.663509 180.270969 
L 284.500903 180.270969 
L 284.500903 178.918685 
L 284.830369 178.918685 
L 284.830369 177.5664 
L 286.01559 177.5664 
L 286.01559 176.214116 
L 287.447719 176.214116 
L 287.447719 174.861831 
L 288.048929 174.861831 
L 288.048929 173.509547 
L 289.069835 173.509547 
L 289.069835 172.157262 
L 289.23415 172.157262 
L 289.23415 170.804978 
L 289.528076 170.804978 
L 289.528076 169.452693 
L 290.666279 169.452693 
L 290.713297 166.748125 
L 292.145426 166.748125 
L 292.145426 165.39584 
L 292.288395 165.39584 
L 292.288395 164.043556 
L 293.767542 164.043556 
L 293.767542 162.691271 
L 296.253816 162.691271 
L 296.253816 161.338987 
L 297.439037 161.338987 
L 297.439037 159.986702 
L 298.871166 159.986702 
L 298.922821 157.282133 
L 300.108042 157.282133 
L 300.108042 155.929849 
L 300.493282 155.929849 
L 300.493282 154.577564 
L 301.540171 154.577564 
L 301.540171 153.22528 
L 303.162287 153.22528 
L 303.162287 151.872996 
L 306.938496 151.872996 
L 306.938496 150.520711 
L 308.123717 150.520711 
L 308.123717 149.168427 
L 309.555846 149.168427 
L 309.555846 147.816142 
L 311.177963 147.816142 
L 311.177963 146.463858 
L 453.192 146.463858 
L 453.192 146.463858 
" clip-path="url(#p0190c20ea1)" style="fill: none; stroke: #bf00bf; stroke-width: 3; stroke-linecap: square"/>
   </g>
   <g id="line2d_65">
    <path clip-path="url(#p0190c20ea1)" style="fill: none; stroke: #bf00bf; stroke-width: 3; stroke-linecap: square"/>
   </g>
   <g id="line2d_66">
    <path d="M 34.16 272.069525 
L 197.65593 272.069525 
L 197.65593 270.704175 
L 199.568463 270.704175 
L 199.568463 269.338825 
L 217.769961 269.338825 
L 217.769961 267.973475 
L 218.536056 267.973475 
L 218.536056 266.608125 
L 219.682494 266.608125 
L 219.682494 265.242775 
L 221.313321 265.242775 
L 221.313321 263.877425 
L 222.125857 263.877425 
L 222.125857 262.512075 
L 224.03839 262.512075 
L 224.03839 261.146725 
L 224.629559 261.146725 
L 224.629559 259.781375 
L 226.542092 259.781375 
L 226.542092 258.416025 
L 229.126566 258.416025 
L 229.126566 257.050675 
L 231.039099 257.050675 
L 231.039099 255.685325 
L 238.650087 255.685325 
L 238.650087 254.319975 
L 239.451758 254.319975 
L 239.451758 252.954625 
L 240.723134 252.954625 
L 240.723134 251.589275 
L 241.251671 251.589275 
L 241.339974 247.493225 
L 241.364292 247.493225 
L 241.427352 244.762525 
L 242.10032 244.762525 
L 242.10032 243.397175 
L 243.005983 243.397175 
L 243.005983 242.031825 
L 245.509685 242.031825 
L 245.509685 240.666475 
L 245.783248 240.666475 
L 245.783248 239.301125 
L 248.28695 239.301125 
L 248.28695 237.935775 
L 250.006692 237.935775 
L 250.006692 236.570425 
L 252.783957 236.570425 
L 252.783957 235.205075 
L 260.331884 235.205075 
L 260.331884 233.839725 
L 260.837165 233.839725 
L 260.837165 232.474375 
L 261.365701 232.474375 
L 261.454005 228.378325 
L 262.214351 228.378325 
L 262.214351 227.012975 
L 263.109149 227.012975 
L 263.109149 225.647625 
L 264.311351 225.647625 
L 264.311351 224.282275 
L 265.193061 224.282275 
L 265.193061 222.916925 
L 265.721598 222.916925 
L 265.809901 217.455525 
L 266.570248 217.455525 
L 266.570248 216.090175 
L 267.377706 216.090175 
L 267.377706 214.724825 
L 267.696763 214.724825 
L 267.696763 213.359475 
L 268.225299 213.359475 
L 268.313603 209.263425 
L 268.425193 209.263425 
L 268.425193 207.898075 
L 269.073949 207.898075 
L 269.073949 206.532725 
L 272.19377 206.532725 
L 272.19377 205.167375 
L 272.722307 205.167375 
L 272.81061 201.071325 
L 273.570957 201.071325 
L 273.570957 199.705975 
L 282.518962 199.705975 
L 282.518962 198.340625 
L 283.047499 198.340625 
L 283.135802 194.244575 
L 283.896149 194.244575 
L 283.896149 192.879225 
L 284.425382 192.879225 
L 284.425382 191.513875 
L 285.865869 191.513875 
L 285.865869 190.148525 
L 287.491737 190.148525 
L 287.491737 188.783175 
L 288.539224 188.783175 
L 288.539224 187.417825 
L 288.781278 187.417825 
L 288.781278 186.052475 
L 290.221765 186.052475 
L 290.221765 184.687125 
L 291.28498 184.687125 
L 291.28498 183.321775 
L 291.847633 183.321775 
L 291.847633 181.956425 
L 292.725467 181.956425 
L 292.725467 180.591075 
L 292.89512 180.591075 
L 292.89512 179.225725 
L 294.351335 179.225725 
L 294.351335 177.860375 
L 295.398822 177.860375 
L 295.398822 176.495025 
L 295.781987 176.495025 
L 295.781987 175.129675 
L 297.222474 175.129675 
L 297.222474 173.764325 
L 298.848342 173.764325 
L 298.848342 172.398975 
L 299.895829 172.398975 
L 299.895829 171.033625 
L 306.10718 171.033625 
L 306.10718 169.668275 
L 307.547667 169.668275 
L 307.547667 168.302925 
L 309.173534 168.302925 
L 309.173534 166.937575 
L 310.221021 166.937575 
L 310.221021 165.572225 
L 453.192 165.572225 
L 453.192 165.572225 
" clip-path="url(#p0190c20ea1)" style="fill: none; stroke: #ff0000; stroke-width: 3; stroke-linecap: square"/>
   </g>
   <g id="line2d_67">
    <path clip-path="url(#p0190c20ea1)" style="fill: none; stroke: #ff0000; stroke-width: 3; stroke-linecap: square"/>
   </g>
   <g id="line2d_68">
    <path d="M 243.676 291.28 
L 243.676 3 
" clip-path="url(#p0190c20ea1)" style="fill: none; stroke: #000000; stroke-width: 1.5; stroke-linecap: square"/>
   </g>
   <g id="line2d_69">
    <path d="M 34.16 147.14 
L 453.192 147.14 
" clip-path="url(#p0190c20ea1)" style="fill: none; stroke-dasharray: 2,3.3; stroke-dashoffset: 0; stroke: #000000; stroke-width: 2"/>
   </g>
   <g id="patch_3">
    <path d="M 34.16 291.28 
L 34.16 3 
" style="fill: none; stroke: #000000; stroke-width: 0.8; stroke-linejoin: miter; stroke-linecap: square"/>
   </g>
   <g id="patch_4">
    <path d="M 453.192 291.28 
L 453.192 3 
" style="fill: none; stroke: #000000; stroke-width: 0.8; stroke-linejoin: miter; stroke-linecap: square"/>
   </g>
   <g id="patch_5">
    <path d="M 34.16 291.28 
L 453.192 291.28 
" style="fill: none; stroke: #000000; stroke-width: 0.8; stroke-linejoin: miter; stroke-linecap: square"/>
   </g>
   <g id="patch_6">
    <path d="M 34.16 3 
L 453.192 3 
" style="fill: none; stroke: #000000; stroke-width: 0.8; stroke-linejoin: miter; stroke-linecap: square"/>
   </g>
   <g id="text_5">
    <!-- f20-f24,40-D -->
    <g transform="translate(318.19261 285.5144) scale(0.2 -0.2)">
     <defs>
      <path id="DejaVuSans-32" d="M 1228 531 
L 3431 531 
L 3431 0 
L 469 0 
L 469 531 
Q 828 903 1448 1529 
Q 2069 2156 2228 2338 
Q 2531 2678 2651 2914 
Q 2772 3150 2772 3378 
Q 2772 3750 2511 3984 
Q 2250 4219 1831 4219 
Q 1534 4219 1204 4116 
Q 875 4013 500 3803 
L 500 4441 
Q 881 4594 1212 4672 
Q 1544 4750 1819 4750 
Q 2544 4750 2975 4387 
Q 3406 4025 3406 3419 
Q 3406 3131 3298 2873 
Q 3191 2616 2906 2266 
Q 2828 2175 2409 1742 
Q 1991 1309 1228 531 
z
" transform="scale(0.015625)"/>
      <path id="DejaVuSans-34" d="M 2419 4116 
L 825 1625 
L 2419 1625 
L 2419 4116 
z
M 2253 4666 
L 3047 4666 
L 3047 1625 
L 3713 1625 
L 3713 1100 
L 3047 1100 
L 3047 0 
L 2419 0 
L 2419 1100 
L 313 1100 
L 313 1709 
L 2253 4666 
z
" transform="scale(0.015625)"/>
      <path id="DejaVuSans-2c" d="M 750 794 
L 1409 794 
L 1409 256 
L 897 -744 
L 494 -744 
L 750 256 
L 750 794 
z
" transform="scale(0.015625)"/>
      <path id="DejaVuSans-44" d="M 1259 4147 
L 1259 519 
L 2022 519 
Q 2988 519 3436 956 
Q 3884 1394 3884 2338 
Q 3884 3275 3436 3711 
Q 2988 4147 2022 4147 
L 1259 4147 
z
M 628 4666 
L 1925 4666 
Q 3281 4666 3915 4102 
Q 4550 3538 4550 2338 
Q 4550 1131 3912 565 
Q 3275 0 1925 0 
L 628 0 
L 628 4666 
z
" transform="scale(0.015625)"/>
     </defs>
     <use xlink:href="#DejaVuSans-66"/>
     <use xlink:href="#DejaVuSans-32" x="35.205078"/>
     <use xlink:href="#DejaVuSans-30" x="98.828125"/>
     <use xlink:href="#DejaVuSans-2d" x="162.451172"/>
     <use xlink:href="#DejaVuSans-66" x="198.535156"/>
     <use xlink:href="#DejaVuSans-32" x="233.740234"/>
     <use xlink:href="#DejaVuSans-34" x="297.363281"/>
     <use xlink:href="#DejaVuSans-2c" x="360.986328"/>
     <use xlink:href="#DejaVuSans-34" x="392.773438"/>
     <use xlink:href="#DejaVuSans-30" x="456.396484"/>
     <use xlink:href="#DejaVuSans-2d" x="520.019531"/>
     <use xlink:href="#DejaVuSans-44" x="556.103516"/>
    </g>
   </g>
   <g id="text_6">
    <!-- v2.6.3 -->
    <g style="fill: #808080" transform="translate(227.99475 286.317512) scale(0.1 -0.1)">
     <defs>
      <path id="DejaVuSans-2e" d="M 684 794 
L 1344 794 
L 1344 0 
L 684 0 
L 684 794 
z
" transform="scale(0.015625)"/>
      <path id="DejaVuSans-36" d="M 2113 2584 
Q 1688 2584 1439 2293 
Q 1191 2003 1191 1497 
Q 1191 994 1439 701 
Q 1688 409 2113 409 
Q 2538 409 2786 701 
Q 3034 994 3034 1497 
Q 3034 2003 2786 2293 
Q 2538 2584 2113 2584 
z
M 3366 4563 
L 3366 3988 
Q 3128 4100 2886 4159 
Q 2644 4219 2406 4219 
Q 1781 4219 1451 3797 
Q 1122 3375 1075 2522 
Q 1259 2794 1537 2939 
Q 1816 3084 2150 3084 
Q 2853 3084 3261 2657 
Q 3669 2231 3669 1497 
Q 3669 778 3244 343 
Q 2819 -91 2113 -91 
Q 1303 -91 875 529 
Q 447 1150 447 2328 
Q 447 3434 972 4092 
Q 1497 4750 2381 4750 
Q 2619 4750 2861 4703 
Q 3103 4656 3366 4563 
z
" transform="scale(0.015625)"/>
      <path id="DejaVuSans-33" d="M 2597 2516 
Q 3050 2419 3304 2112 
Q 3559 1806 3559 1356 
Q 3559 666 3084 287 
Q 2609 -91 1734 -91 
Q 1441 -91 1130 -33 
Q 819 25 488 141 
L 488 750 
Q 750 597 1062 519 
Q 1375 441 1716 441 
Q 2309 441 2620 675 
Q 2931 909 2931 1356 
Q 2931 1769 2642 2001 
Q 2353 2234 1838 2234 
L 1294 2234 
L 1294 2753 
L 1863 2753 
Q 2328 2753 2575 2939 
Q 2822 3125 2822 3475 
Q 2822 3834 2567 4026 
Q 2313 4219 1838 4219 
Q 1578 4219 1281 4162 
Q 984 4106 628 3988 
L 628 4550 
Q 988 4650 1302 4700 
Q 1616 4750 1894 4750 
Q 2613 4750 3031 4423 
Q 3450 4097 3450 3541 
Q 3450 3153 3228 2886 
Q 3006 2619 2597 2516 
z
" transform="scale(0.015625)"/>
     </defs>
     <use xlink:href="#DejaVuSans-76"/>
     <use xlink:href="#DejaVuSans-32" x="59.179688"/>
     <use xlink:href="#DejaVuSans-2e" x="122.802734"/>
     <use xlink:href="#DejaVuSans-36" x="154.589844"/>
     <use xlink:href="#DejaVuSans-2e" x="218.212891"/>
     <use xlink:href="#DejaVuSans-33" x="250"/>
    </g>
   </g>
   <g id="legend_1">
    <g id="patch_7">
     <path d="M 48.16 136.425 
L 177.381875 136.425 
Q 181.381875 136.425 181.381875 132.425 
L 181.381875 17 
Q 181.381875 13 177.381875 13 
L 48.16 13 
Q 44.16 13 44.16 17 
L 44.16 132.425 
Q 44.16 136.425 48.16 136.425 
z
" style="fill: #ffffff; opacity: 0.2; stroke: #cccccc; stroke-linejoin: miter"/>
    </g>
    <g id="line2d_70">
     <path d="M 52.16 29.196875 
L 72.16 29.196875 
L 92.16 29.196875 
" style="fill: none; stroke: #000000; stroke-width: 3; stroke-linecap: square"/>
    </g>
    <g id="text_7">
     <!-- 1: 3/2 -->
     <g transform="translate(108.16 36.196875) scale(0.2 -0.2)">
      <defs>
       <path id="DejaVuSans-3a" d="M 750 794 
L 1409 794 
L 1409 0 
L 750 0 
L 750 794 
z
M 750 3309 
L 1409 3309 
L 1409 2516 
L 750 2516 
L 750 3309 
z
" transform="scale(0.015625)"/>
       <path id="DejaVuSans-2f" d="M 1625 4666 
L 2156 4666 
L 531 -594 
L 0 -594 
L 1625 4666 
z
" transform="scale(0.015625)"/>
      </defs>
      <use xlink:href="#DejaVuSans-31"/>
      <use xlink:href="#DejaVuSans-3a" x="63.623047"/>
      <use xlink:href="#DejaVuSans-20" x="97.314453"/>
      <use xlink:href="#DejaVuSans-33" x="129.101562"/>
      <use xlink:href="#DejaVuSans-2f" x="192.724609"/>
      <use xlink:href="#DejaVuSans-32" x="226.416016"/>
     </g>
    </g>
    <g id="line2d_71">
     <path d="M 52.16 58.553125 
L 72.16 58.553125 
L 92.16 58.553125 
" style="fill: none; stroke: #00bfbf; stroke-width: 3; stroke-linecap: square"/>
    </g>
    <g id="text_8">
     <!-- -1: 2/2 -->
     <g transform="translate(108.16 65.553125) scale(0.2 -0.2)">
      <use xlink:href="#DejaVuSans-2d"/>
      <use xlink:href="#DejaVuSans-31" x="36.083984"/>
      <use xlink:href="#DejaVuSans-3a" x="99.707031"/>
      <use xlink:href="#DejaVuSans-20" x="133.398438"/>
      <use xlink:href="#DejaVuSans-32" x="165.185547"/>
      <use xlink:href="#DejaVuSans-2f" x="228.808594"/>
      <use xlink:href="#DejaVuSans-32" x="262.5"/>
     </g>
    </g>
    <g id="line2d_72">
     <path d="M 52.16 87.909375 
L 72.16 87.909375 
L 92.16 87.909375 
" style="fill: none; stroke: #bf00bf; stroke-width: 3; stroke-linecap: square"/>
    </g>
    <g id="text_9">
     <!-- -4: 1/1 -->
     <g transform="translate(108.16 94.909375) scale(0.2 -0.2)">
      <use xlink:href="#DejaVuSans-2d"/>
      <use xlink:href="#DejaVuSans-34" x="36.083984"/>
      <use xlink:href="#DejaVuSans-3a" x="99.707031"/>
      <use xlink:href="#DejaVuSans-20" x="133.398438"/>
      <use xlink:href="#DejaVuSans-31" x="165.185547"/>
      <use xlink:href="#DejaVuSans-2f" x="228.808594"/>
      <use xlink:href="#DejaVuSans-31" x="262.5"/>
     </g>
    </g>
    <g id="line2d_73">
     <path d="M 52.16 117.265625 
L 72.16 117.265625 
L 92.16 117.265625 
" style="fill: none; stroke: #ff0000; stroke-width: 3; stroke-linecap: square"/>
    </g>
    <g id="text_10">
     <!-- -8: 1/1 -->
     <g transform="translate(108.16 124.265625) scale(0.2 -0.2)">
      <defs>
       <path id="DejaVuSans-38" d="M 2034 2216 
Q 1584 2216 1326 1975 
Q 1069 1734 1069 1313 
Q 1069 891 1326 650 
Q 1584 409 2034 409 
Q 2484 409 2743 651 
Q 3003 894 3003 1313 
Q 3003 1734 2745 1975 
Q 2488 2216 2034 2216 
z
M 1403 2484 
Q 997 2584 770 2862 
Q 544 3141 544 3541 
Q 544 4100 942 4425 
Q 1341 4750 2034 4750 
Q 2731 4750 3128 4425 
Q 3525 4100 3525 3541 
Q 3525 3141 3298 2862 
Q 3072 2584 2669 2484 
Q 3125 2378 3379 2068 
Q 3634 1759 3634 1313 
Q 3634 634 3220 271 
Q 2806 -91 2034 -91 
Q 1263 -91 848 271 
Q 434 634 434 1313 
Q 434 1759 690 2068 
Q 947 2378 1403 2484 
z
M 1172 3481 
Q 1172 3119 1398 2916 
Q 1625 2713 2034 2713 
Q 2441 2713 2670 2916 
Q 2900 3119 2900 3481 
Q 2900 3844 2670 4047 
Q 2441 4250 2034 4250 
Q 1625 4250 1398 4047 
Q 1172 3844 1172 3481 
z
" transform="scale(0.015625)"/>
      </defs>
      <use xlink:href="#DejaVuSans-2d"/>
      <use xlink:href="#DejaVuSans-38" x="36.083984"/>
      <use xlink:href="#DejaVuSans-3a" x="99.707031"/>
      <use xlink:href="#DejaVuSans-20" x="133.398438"/>
      <use xlink:href="#DejaVuSans-31" x="165.185547"/>
      <use xlink:href="#DejaVuSans-2f" x="228.808594"/>
      <use xlink:href="#DejaVuSans-31" x="262.5"/>
     </g>
    </g>
   </g>
  </g>
 </g>
 <defs>
  <clipPath id="p0190c20ea1">
   <rect x="34.16" y="3" width="419.032" height="288.28"/>
  </clipPath>
 </defs>
</svg>
