<?xml version="1.0" encoding="utf-8" standalone="no"?>
<!DOCTYPE svg PUBLIC "-//W3C//DTD SVG 1.1//EN"
  "http://www.w3.org/Graphics/SVG/1.1/DTD/svg11.dtd">
<svg xmlns:xlink="http://www.w3.org/1999/xlink" width="460.8pt" height="345.6pt" viewBox="0 0 460.8 345.6" xmlns="http://www.w3.org/2000/svg" version="1.1">
 <metadata>
  <rdf:RDF xmlns:dc="http://purl.org/dc/elements/1.1/" xmlns:cc="http://creativecommons.org/ns#" xmlns:rdf="http://www.w3.org/1999/02/22-rdf-syntax-ns#">
   <cc:Work>
    <dc:type rdf:resource="http://purl.org/dc/dcmitype/StillImage"/>
    <dc:date>2024-06-05T13:49:52.116731</dc:date>
    <dc:format>image/svg+xml</dc:format>
    <dc:creator>
     <cc:Agent>
      <dc:title>Matplotlib v3.7.1, https://matplotlib.org/</dc:title>
     </cc:Agent>
    </dc:creator>
   </cc:Work>
  </rdf:RDF>
 </metadata>
 <defs>
  <style type="text/css">*{stroke-linejoin: round; stroke-linecap: butt}</style>
 </defs>
 <g id="figure_1">
  <g id="patch_1">
   <path d="M 0 345.6 
L 460.8 345.6 
L 460.8 0 
L 0 0 
z
" style="fill: #ffffff"/>
  </g>
  <g id="axes_1">
   <g id="patch_2">
    <path d="M 34.16 291.28 
L 453.192 291.28 
L 453.192 3 
L 34.16 3 
z
" style="fill: #ffffff"/>
   </g>
   <g id="matplotlib.axis_1">
    <g id="xtick_1">
     <g id="line2d_1">
      <path d="M 154.109894 291.28 
L 154.109894 3 
" clip-path="url(#p79eb78c2d9)" style="fill: none; stroke: #b0b0b0; stroke-width: 0.8; stroke-linecap: square"/>
     </g>
     <g id="line2d_2">
      <defs>
       <path id="mbcf1cb78b4" d="M 0 0 
L 0 3.5 
" style="stroke: #000000; stroke-width: 0.8"/>
      </defs>
      <g>
       <use xlink:href="#mbcf1cb78b4" x="154.109894" y="291.28" style="stroke: #000000; stroke-width: 0.8"/>
      </g>
     </g>
     <g id="text_1">
      <!-- -1 -->
      <g transform="translate(144.139582 313.476875) scale(0.2 -0.2)">
       <defs>
        <path id="DejaVuSans-2d" d="M 313 2009 
L 1997 2009 
L 1997 1497 
L 313 1497 
L 313 2009 
z
" transform="scale(0.015625)"/>
        <path id="DejaVuSans-31" d="M 794 531 
L 1825 531 
L 1825 4091 
L 703 3866 
L 703 4441 
L 1819 4666 
L 2450 4666 
L 2450 531 
L 3481 531 
L 3481 0 
L 794 0 
L 794 531 
z
" transform="scale(0.015625)"/>
       </defs>
       <use xlink:href="#DejaVuSans-2d"/>
       <use xlink:href="#DejaVuSans-31" x="36.083984"/>
      </g>
     </g>
    </g>
    <g id="xtick_2">
     <g id="line2d_3">
      <path d="M 333.242106 291.28 
L 333.242106 3 
" clip-path="url(#p79eb78c2d9)" style="fill: none; stroke: #b0b0b0; stroke-width: 0.8; stroke-linecap: square"/>
     </g>
     <g id="line2d_4">
      <g>
       <use xlink:href="#mbcf1cb78b4" x="333.242106" y="291.28" style="stroke: #000000; stroke-width: 0.8"/>
      </g>
     </g>
     <g id="text_2">
      <!-- 1 -->
      <g transform="translate(326.879606 313.476875) scale(0.2 -0.2)">
       <use xlink:href="#DejaVuSans-31"/>
      </g>
     </g>
    </g>
    <g id="xtick_3">
     <g id="line2d_5">
      <defs>
       <path id="mdb8ec63f89" d="M 0 0 
L 0 2 
" style="stroke: #000000; stroke-width: 0.6"/>
      </defs>
      <g>
       <use xlink:href="#mdb8ec63f89" x="37.581704" y="291.28" style="stroke: #000000; stroke-width: 0.6"/>
      </g>
     </g>
    </g>
    <g id="xtick_4">
     <g id="line2d_6">
      <g>
       <use xlink:href="#mdb8ec63f89" x="44.67366" y="291.28" style="stroke: #000000; stroke-width: 0.6"/>
      </g>
     </g>
    </g>
    <g id="xtick_5">
     <g id="line2d_7">
      <g>
       <use xlink:href="#mdb8ec63f89" x="50.669823" y="291.28" style="stroke: #000000; stroke-width: 0.6"/>
      </g>
     </g>
    </g>
    <g id="xtick_6">
     <g id="line2d_8">
      <g>
       <use xlink:href="#mdb8ec63f89" x="55.863936" y="291.28" style="stroke: #000000; stroke-width: 0.6"/>
      </g>
     </g>
    </g>
    <g id="xtick_7">
     <g id="line2d_9">
      <g>
       <use xlink:href="#mdb8ec63f89" x="60.445468" y="291.28" style="stroke: #000000; stroke-width: 0.6"/>
      </g>
     </g>
    </g>
    <g id="xtick_8">
     <g id="line2d_10">
      <g>
       <use xlink:href="#mdb8ec63f89" x="91.505873" y="291.28" style="stroke: #000000; stroke-width: 0.6"/>
      </g>
     </g>
    </g>
    <g id="xtick_9">
     <g id="line2d_11">
      <g>
       <use xlink:href="#mdb8ec63f89" x="107.277681" y="291.28" style="stroke: #000000; stroke-width: 0.6"/>
      </g>
     </g>
    </g>
    <g id="xtick_10">
     <g id="line2d_12">
      <g>
       <use xlink:href="#mdb8ec63f89" x="118.467957" y="291.28" style="stroke: #000000; stroke-width: 0.6"/>
      </g>
     </g>
    </g>
    <g id="xtick_11">
     <g id="line2d_13">
      <g>
       <use xlink:href="#mdb8ec63f89" x="127.14781" y="291.28" style="stroke: #000000; stroke-width: 0.6"/>
      </g>
     </g>
    </g>
    <g id="xtick_12">
     <g id="line2d_14">
      <g>
       <use xlink:href="#mdb8ec63f89" x="134.239766" y="291.28" style="stroke: #000000; stroke-width: 0.6"/>
      </g>
     </g>
    </g>
    <g id="xtick_13">
     <g id="line2d_15">
      <g>
       <use xlink:href="#mdb8ec63f89" x="140.235929" y="291.28" style="stroke: #000000; stroke-width: 0.6"/>
      </g>
     </g>
    </g>
    <g id="xtick_14">
     <g id="line2d_16">
      <g>
       <use xlink:href="#mdb8ec63f89" x="145.430042" y="291.28" style="stroke: #000000; stroke-width: 0.6"/>
      </g>
     </g>
    </g>
    <g id="xtick_15">
     <g id="line2d_17">
      <g>
       <use xlink:href="#mdb8ec63f89" x="150.011574" y="291.28" style="stroke: #000000; stroke-width: 0.6"/>
      </g>
     </g>
    </g>
    <g id="xtick_16">
     <g id="line2d_18">
      <g>
       <use xlink:href="#mdb8ec63f89" x="181.071979" y="291.28" style="stroke: #000000; stroke-width: 0.6"/>
      </g>
     </g>
    </g>
    <g id="xtick_17">
     <g id="line2d_19">
      <g>
       <use xlink:href="#mdb8ec63f89" x="196.843787" y="291.28" style="stroke: #000000; stroke-width: 0.6"/>
      </g>
     </g>
    </g>
    <g id="xtick_18">
     <g id="line2d_20">
      <g>
       <use xlink:href="#mdb8ec63f89" x="208.034063" y="291.28" style="stroke: #000000; stroke-width: 0.6"/>
      </g>
     </g>
    </g>
    <g id="xtick_19">
     <g id="line2d_21">
      <g>
       <use xlink:href="#mdb8ec63f89" x="216.713916" y="291.28" style="stroke: #000000; stroke-width: 0.6"/>
      </g>
     </g>
    </g>
    <g id="xtick_20">
     <g id="line2d_22">
      <g>
       <use xlink:href="#mdb8ec63f89" x="223.805871" y="291.28" style="stroke: #000000; stroke-width: 0.6"/>
      </g>
     </g>
    </g>
    <g id="xtick_21">
     <g id="line2d_23">
      <g>
       <use xlink:href="#mdb8ec63f89" x="229.802035" y="291.28" style="stroke: #000000; stroke-width: 0.6"/>
      </g>
     </g>
    </g>
    <g id="xtick_22">
     <g id="line2d_24">
      <g>
       <use xlink:href="#mdb8ec63f89" x="234.996148" y="291.28" style="stroke: #000000; stroke-width: 0.6"/>
      </g>
     </g>
    </g>
    <g id="xtick_23">
     <g id="line2d_25">
      <g>
       <use xlink:href="#mdb8ec63f89" x="239.57768" y="291.28" style="stroke: #000000; stroke-width: 0.6"/>
      </g>
     </g>
    </g>
    <g id="xtick_24">
     <g id="line2d_26">
      <g>
       <use xlink:href="#mdb8ec63f89" x="270.638084" y="291.28" style="stroke: #000000; stroke-width: 0.6"/>
      </g>
     </g>
    </g>
    <g id="xtick_25">
     <g id="line2d_27">
      <g>
       <use xlink:href="#mdb8ec63f89" x="286.409893" y="291.28" style="stroke: #000000; stroke-width: 0.6"/>
      </g>
     </g>
    </g>
    <g id="xtick_26">
     <g id="line2d_28">
      <g>
       <use xlink:href="#mdb8ec63f89" x="297.600169" y="291.28" style="stroke: #000000; stroke-width: 0.6"/>
      </g>
     </g>
    </g>
    <g id="xtick_27">
     <g id="line2d_29">
      <g>
       <use xlink:href="#mdb8ec63f89" x="306.280021" y="291.28" style="stroke: #000000; stroke-width: 0.6"/>
      </g>
     </g>
    </g>
    <g id="xtick_28">
     <g id="line2d_30">
      <g>
       <use xlink:href="#mdb8ec63f89" x="313.371977" y="291.28" style="stroke: #000000; stroke-width: 0.6"/>
      </g>
     </g>
    </g>
    <g id="xtick_29">
     <g id="line2d_31">
      <g>
       <use xlink:href="#mdb8ec63f89" x="319.36814" y="291.28" style="stroke: #000000; stroke-width: 0.6"/>
      </g>
     </g>
    </g>
    <g id="xtick_30">
     <g id="line2d_32">
      <g>
       <use xlink:href="#mdb8ec63f89" x="324.562253" y="291.28" style="stroke: #000000; stroke-width: 0.6"/>
      </g>
     </g>
    </g>
    <g id="xtick_31">
     <g id="line2d_33">
      <g>
       <use xlink:href="#mdb8ec63f89" x="329.143786" y="291.28" style="stroke: #000000; stroke-width: 0.6"/>
      </g>
     </g>
    </g>
    <g id="xtick_32">
     <g id="line2d_34">
      <g>
       <use xlink:href="#mdb8ec63f89" x="360.20419" y="291.28" style="stroke: #000000; stroke-width: 0.6"/>
      </g>
     </g>
    </g>
    <g id="xtick_33">
     <g id="line2d_35">
      <g>
       <use xlink:href="#mdb8ec63f89" x="375.975999" y="291.28" style="stroke: #000000; stroke-width: 0.6"/>
      </g>
     </g>
    </g>
    <g id="xtick_34">
     <g id="line2d_36">
      <g>
       <use xlink:href="#mdb8ec63f89" x="387.166275" y="291.28" style="stroke: #000000; stroke-width: 0.6"/>
      </g>
     </g>
    </g>
    <g id="xtick_35">
     <g id="line2d_37">
      <g>
       <use xlink:href="#mdb8ec63f89" x="395.846127" y="291.28" style="stroke: #000000; stroke-width: 0.6"/>
      </g>
     </g>
    </g>
    <g id="xtick_36">
     <g id="line2d_38">
      <g>
       <use xlink:href="#mdb8ec63f89" x="402.938083" y="291.28" style="stroke: #000000; stroke-width: 0.6"/>
      </g>
     </g>
    </g>
    <g id="xtick_37">
     <g id="line2d_39">
      <g>
       <use xlink:href="#mdb8ec63f89" x="408.934246" y="291.28" style="stroke: #000000; stroke-width: 0.6"/>
      </g>
     </g>
    </g>
    <g id="xtick_38">
     <g id="line2d_40">
      <g>
       <use xlink:href="#mdb8ec63f89" x="414.128359" y="291.28" style="stroke: #000000; stroke-width: 0.6"/>
      </g>
     </g>
    </g>
    <g id="xtick_39">
     <g id="line2d_41">
      <g>
       <use xlink:href="#mdb8ec63f89" x="418.709891" y="291.28" style="stroke: #000000; stroke-width: 0.6"/>
      </g>
     </g>
    </g>
    <g id="xtick_40">
     <g id="line2d_42">
      <g>
       <use xlink:href="#mdb8ec63f89" x="449.770296" y="291.28" style="stroke: #000000; stroke-width: 0.6"/>
      </g>
     </g>
    </g>
    <g id="text_3">
     <!-- log10 of FEvals ratio -->
     <g transform="translate(141.371312 336.833125) scale(0.2 -0.2)">
      <defs>
       <path id="DejaVuSans-6c" d="M 603 4863 
L 1178 4863 
L 1178 0 
L 603 0 
L 603 4863 
z
" transform="scale(0.015625)"/>
       <path id="DejaVuSans-6f" d="M 1959 3097 
Q 1497 3097 1228 2736 
Q 959 2375 959 1747 
Q 959 1119 1226 758 
Q 1494 397 1959 397 
Q 2419 397 2687 759 
Q 2956 1122 2956 1747 
Q 2956 2369 2687 2733 
Q 2419 3097 1959 3097 
z
M 1959 3584 
Q 2709 3584 3137 3096 
Q 3566 2609 3566 1747 
Q 3566 888 3137 398 
Q 2709 -91 1959 -91 
Q 1206 -91 779 398 
Q 353 888 353 1747 
Q 353 2609 779 3096 
Q 1206 3584 1959 3584 
z
" transform="scale(0.015625)"/>
       <path id="DejaVuSans-67" d="M 2906 1791 
Q 2906 2416 2648 2759 
Q 2391 3103 1925 3103 
Q 1463 3103 1205 2759 
Q 947 2416 947 1791 
Q 947 1169 1205 825 
Q 1463 481 1925 481 
Q 2391 481 2648 825 
Q 2906 1169 2906 1791 
z
M 3481 434 
Q 3481 -459 3084 -895 
Q 2688 -1331 1869 -1331 
Q 1566 -1331 1297 -1286 
Q 1028 -1241 775 -1147 
L 775 -588 
Q 1028 -725 1275 -790 
Q 1522 -856 1778 -856 
Q 2344 -856 2625 -561 
Q 2906 -266 2906 331 
L 2906 616 
Q 2728 306 2450 153 
Q 2172 0 1784 0 
Q 1141 0 747 490 
Q 353 981 353 1791 
Q 353 2603 747 3093 
Q 1141 3584 1784 3584 
Q 2172 3584 2450 3431 
Q 2728 3278 2906 2969 
L 2906 3500 
L 3481 3500 
L 3481 434 
z
" transform="scale(0.015625)"/>
       <path id="DejaVuSans-30" d="M 2034 4250 
Q 1547 4250 1301 3770 
Q 1056 3291 1056 2328 
Q 1056 1369 1301 889 
Q 1547 409 2034 409 
Q 2525 409 2770 889 
Q 3016 1369 3016 2328 
Q 3016 3291 2770 3770 
Q 2525 4250 2034 4250 
z
M 2034 4750 
Q 2819 4750 3233 4129 
Q 3647 3509 3647 2328 
Q 3647 1150 3233 529 
Q 2819 -91 2034 -91 
Q 1250 -91 836 529 
Q 422 1150 422 2328 
Q 422 3509 836 4129 
Q 1250 4750 2034 4750 
z
" transform="scale(0.015625)"/>
       <path id="DejaVuSans-20" transform="scale(0.015625)"/>
       <path id="DejaVuSans-66" d="M 2375 4863 
L 2375 4384 
L 1825 4384 
Q 1516 4384 1395 4259 
Q 1275 4134 1275 3809 
L 1275 3500 
L 2222 3500 
L 2222 3053 
L 1275 3053 
L 1275 0 
L 697 0 
L 697 3053 
L 147 3053 
L 147 3500 
L 697 3500 
L 697 3744 
Q 697 4328 969 4595 
Q 1241 4863 1831 4863 
L 2375 4863 
z
" transform="scale(0.015625)"/>
       <path id="DejaVuSans-46" d="M 628 4666 
L 3309 4666 
L 3309 4134 
L 1259 4134 
L 1259 2759 
L 3109 2759 
L 3109 2228 
L 1259 2228 
L 1259 0 
L 628 0 
L 628 4666 
z
" transform="scale(0.015625)"/>
       <path id="DejaVuSans-45" d="M 628 4666 
L 3578 4666 
L 3578 4134 
L 1259 4134 
L 1259 2753 
L 3481 2753 
L 3481 2222 
L 1259 2222 
L 1259 531 
L 3634 531 
L 3634 0 
L 628 0 
L 628 4666 
z
" transform="scale(0.015625)"/>
       <path id="DejaVuSans-76" d="M 191 3500 
L 800 3500 
L 1894 563 
L 2988 3500 
L 3597 3500 
L 2284 0 
L 1503 0 
L 191 3500 
z
" transform="scale(0.015625)"/>
       <path id="DejaVuSans-61" d="M 2194 1759 
Q 1497 1759 1228 1600 
Q 959 1441 959 1056 
Q 959 750 1161 570 
Q 1363 391 1709 391 
Q 2188 391 2477 730 
Q 2766 1069 2766 1631 
L 2766 1759 
L 2194 1759 
z
M 3341 1997 
L 3341 0 
L 2766 0 
L 2766 531 
Q 2569 213 2275 61 
Q 1981 -91 1556 -91 
Q 1019 -91 701 211 
Q 384 513 384 1019 
Q 384 1609 779 1909 
Q 1175 2209 1959 2209 
L 2766 2209 
L 2766 2266 
Q 2766 2663 2505 2880 
Q 2244 3097 1772 3097 
Q 1472 3097 1187 3025 
Q 903 2953 641 2809 
L 641 3341 
Q 956 3463 1253 3523 
Q 1550 3584 1831 3584 
Q 2591 3584 2966 3190 
Q 3341 2797 3341 1997 
z
" transform="scale(0.015625)"/>
       <path id="DejaVuSans-73" d="M 2834 3397 
L 2834 2853 
Q 2591 2978 2328 3040 
Q 2066 3103 1784 3103 
Q 1356 3103 1142 2972 
Q 928 2841 928 2578 
Q 928 2378 1081 2264 
Q 1234 2150 1697 2047 
L 1894 2003 
Q 2506 1872 2764 1633 
Q 3022 1394 3022 966 
Q 3022 478 2636 193 
Q 2250 -91 1575 -91 
Q 1294 -91 989 -36 
Q 684 19 347 128 
L 347 722 
Q 666 556 975 473 
Q 1284 391 1588 391 
Q 1994 391 2212 530 
Q 2431 669 2431 922 
Q 2431 1156 2273 1281 
Q 2116 1406 1581 1522 
L 1381 1569 
Q 847 1681 609 1914 
Q 372 2147 372 2553 
Q 372 3047 722 3315 
Q 1072 3584 1716 3584 
Q 2034 3584 2315 3537 
Q 2597 3491 2834 3397 
z
" transform="scale(0.015625)"/>
       <path id="DejaVuSans-72" d="M 2631 2963 
Q 2534 3019 2420 3045 
Q 2306 3072 2169 3072 
Q 1681 3072 1420 2755 
Q 1159 2438 1159 1844 
L 1159 0 
L 581 0 
L 581 3500 
L 1159 3500 
L 1159 2956 
Q 1341 3275 1631 3429 
Q 1922 3584 2338 3584 
Q 2397 3584 2469 3576 
Q 2541 3569 2628 3553 
L 2631 2963 
z
" transform="scale(0.015625)"/>
       <path id="DejaVuSans-74" d="M 1172 4494 
L 1172 3500 
L 2356 3500 
L 2356 3053 
L 1172 3053 
L 1172 1153 
Q 1172 725 1289 603 
Q 1406 481 1766 481 
L 2356 481 
L 2356 0 
L 1766 0 
Q 1100 0 847 248 
Q 594 497 594 1153 
L 594 3053 
L 172 3053 
L 172 3500 
L 594 3500 
L 594 4494 
L 1172 4494 
z
" transform="scale(0.015625)"/>
       <path id="DejaVuSans-69" d="M 603 3500 
L 1178 3500 
L 1178 0 
L 603 0 
L 603 3500 
z
M 603 4863 
L 1178 4863 
L 1178 4134 
L 603 4134 
L 603 4863 
z
" transform="scale(0.015625)"/>
      </defs>
      <use xlink:href="#DejaVuSans-6c"/>
      <use xlink:href="#DejaVuSans-6f" x="27.783203"/>
      <use xlink:href="#DejaVuSans-67" x="88.964844"/>
      <use xlink:href="#DejaVuSans-31" x="152.441406"/>
      <use xlink:href="#DejaVuSans-30" x="216.064453"/>
      <use xlink:href="#DejaVuSans-20" x="279.6875"/>
      <use xlink:href="#DejaVuSans-6f" x="311.474609"/>
      <use xlink:href="#DejaVuSans-66" x="372.65625"/>
      <use xlink:href="#DejaVuSans-20" x="407.861328"/>
      <use xlink:href="#DejaVuSans-46" x="439.648438"/>
      <use xlink:href="#DejaVuSans-45" x="497.167969"/>
      <use xlink:href="#DejaVuSans-76" x="560.351562"/>
      <use xlink:href="#DejaVuSans-61" x="619.53125"/>
      <use xlink:href="#DejaVuSans-6c" x="680.810547"/>
      <use xlink:href="#DejaVuSans-73" x="708.59375"/>
      <use xlink:href="#DejaVuSans-20" x="760.693359"/>
      <use xlink:href="#DejaVuSans-72" x="792.480469"/>
      <use xlink:href="#DejaVuSans-61" x="833.59375"/>
      <use xlink:href="#DejaVuSans-74" x="894.873047"/>
      <use xlink:href="#DejaVuSans-69" x="934.082031"/>
      <use xlink:href="#DejaVuSans-6f" x="961.865234"/>
     </g>
    </g>
   </g>
   <g id="matplotlib.axis_2">
    <g id="ytick_1">
     <g id="line2d_43">
      <path d="M 34.16 288.453725 
L 453.192 288.453725 
" clip-path="url(#p79eb78c2d9)" style="fill: none; stroke: #b0b0b0; stroke-width: 0.8; stroke-linecap: square"/>
     </g>
     <g id="line2d_44">
      <defs>
       <path id="mb59e783890" d="M 0 0 
L -3.5 0 
" style="stroke: #000000; stroke-width: 0.8"/>
      </defs>
      <g>
       <use xlink:href="#mb59e783890" x="34.16" y="288.453725" style="stroke: #000000; stroke-width: 0.8"/>
      </g>
     </g>
    </g>
    <g id="ytick_2">
     <g id="line2d_45">
      <path d="M 34.16 217.796863 
L 453.192 217.796863 
" clip-path="url(#p79eb78c2d9)" style="fill: none; stroke: #b0b0b0; stroke-width: 0.8; stroke-linecap: square"/>
     </g>
     <g id="line2d_46">
      <g>
       <use xlink:href="#mb59e783890" x="34.16" y="217.796863" style="stroke: #000000; stroke-width: 0.8"/>
      </g>
     </g>
    </g>
    <g id="ytick_3">
     <g id="line2d_47">
      <path d="M 34.16 147.14 
L 453.192 147.14 
" clip-path="url(#p79eb78c2d9)" style="fill: none; stroke: #b0b0b0; stroke-width: 0.8; stroke-linecap: square"/>
     </g>
     <g id="line2d_48">
      <g>
       <use xlink:href="#mb59e783890" x="34.16" y="147.14" style="stroke: #000000; stroke-width: 0.8"/>
      </g>
     </g>
    </g>
    <g id="ytick_4">
     <g id="line2d_49">
      <path d="M 34.16 76.483137 
L 453.192 76.483137 
" clip-path="url(#p79eb78c2d9)" style="fill: none; stroke: #b0b0b0; stroke-width: 0.8; stroke-linecap: square"/>
     </g>
     <g id="line2d_50">
      <g>
       <use xlink:href="#mb59e783890" x="34.16" y="76.483137" style="stroke: #000000; stroke-width: 0.8"/>
      </g>
     </g>
    </g>
    <g id="ytick_5">
     <g id="line2d_51">
      <path d="M 34.16 5.826275 
L 453.192 5.826275 
" clip-path="url(#p79eb78c2d9)" style="fill: none; stroke: #b0b0b0; stroke-width: 0.8; stroke-linecap: square"/>
     </g>
     <g id="line2d_52">
      <g>
       <use xlink:href="#mb59e783890" x="34.16" y="5.826275" style="stroke: #000000; stroke-width: 0.8"/>
      </g>
     </g>
    </g>
    <g id="text_4">
     <!-- proportion of trials -->
     <g transform="translate(19.000625 240.14625) rotate(-90) scale(0.2 -0.2)">
      <defs>
       <path id="DejaVuSans-70" d="M 1159 525 
L 1159 -1331 
L 581 -1331 
L 581 3500 
L 1159 3500 
L 1159 2969 
Q 1341 3281 1617 3432 
Q 1894 3584 2278 3584 
Q 2916 3584 3314 3078 
Q 3713 2572 3713 1747 
Q 3713 922 3314 415 
Q 2916 -91 2278 -91 
Q 1894 -91 1617 61 
Q 1341 213 1159 525 
z
M 3116 1747 
Q 3116 2381 2855 2742 
Q 2594 3103 2138 3103 
Q 1681 3103 1420 2742 
Q 1159 2381 1159 1747 
Q 1159 1113 1420 752 
Q 1681 391 2138 391 
Q 2594 391 2855 752 
Q 3116 1113 3116 1747 
z
" transform="scale(0.015625)"/>
       <path id="DejaVuSans-6e" d="M 3513 2113 
L 3513 0 
L 2938 0 
L 2938 2094 
Q 2938 2591 2744 2837 
Q 2550 3084 2163 3084 
Q 1697 3084 1428 2787 
Q 1159 2491 1159 1978 
L 1159 0 
L 581 0 
L 581 3500 
L 1159 3500 
L 1159 2956 
Q 1366 3272 1645 3428 
Q 1925 3584 2291 3584 
Q 2894 3584 3203 3211 
Q 3513 2838 3513 2113 
z
" transform="scale(0.015625)"/>
      </defs>
      <use xlink:href="#DejaVuSans-70"/>
      <use xlink:href="#DejaVuSans-72" x="63.476562"/>
      <use xlink:href="#DejaVuSans-6f" x="102.339844"/>
      <use xlink:href="#DejaVuSans-70" x="163.521484"/>
      <use xlink:href="#DejaVuSans-6f" x="226.998047"/>
      <use xlink:href="#DejaVuSans-72" x="288.179688"/>
      <use xlink:href="#DejaVuSans-74" x="329.292969"/>
      <use xlink:href="#DejaVuSans-69" x="368.501953"/>
      <use xlink:href="#DejaVuSans-6f" x="396.285156"/>
      <use xlink:href="#DejaVuSans-6e" x="457.466797"/>
      <use xlink:href="#DejaVuSans-20" x="520.845703"/>
      <use xlink:href="#DejaVuSans-6f" x="552.632812"/>
      <use xlink:href="#DejaVuSans-66" x="613.814453"/>
      <use xlink:href="#DejaVuSans-20" x="649.019531"/>
      <use xlink:href="#DejaVuSans-74" x="680.806641"/>
      <use xlink:href="#DejaVuSans-72" x="720.015625"/>
      <use xlink:href="#DejaVuSans-69" x="761.128906"/>
      <use xlink:href="#DejaVuSans-61" x="788.912109"/>
      <use xlink:href="#DejaVuSans-6c" x="850.191406"/>
      <use xlink:href="#DejaVuSans-73" x="877.974609"/>
     </g>
    </g>
   </g>
   <g id="line2d_53">
    <path d="M 34.16 280.387519 
L 145.616809 280.387519 
L 145.721978 279.767042 
L 147.370494 279.767042 
L 147.370494 279.456803 
L 148.840578 279.456803 
L 148.840578 279.146565 
L 149.158395 279.146565 
L 149.158395 278.836326 
L 149.380666 278.836326 
L 149.380666 278.526087 
L 150.489094 278.526087 
L 150.489094 278.215849 
L 150.806911 278.215849 
L 150.806911 277.90561 
L 151.536095 277.90561 
L 151.60923 277.285132 
L 151.810434 277.285132 
L 151.810434 276.974894 
L 152.48811 276.974894 
L 152.499266 276.354416 
L 152.817083 276.354416 
L 152.817083 276.044178 
L 153.042922 276.044178 
L 153.042922 275.733939 
L 153.184612 275.733939 
L 153.257746 275.113462 
L 154.136626 275.113462 
L 154.136626 274.803223 
L 154.691438 274.803223 
L 154.691438 274.492984 
L 154.929034 274.492984 
L 154.929034 274.182746 
L 155.169126 274.182746 
L 155.267918 272.941791 
L 155.625602 272.941791 
L 155.625602 272.631552 
L 156.103756 272.631552 
L 156.146798 272.011075 
L 156.70161 272.011075 
L 156.70161 271.700836 
L 156.817642 271.700836 
L 156.817642 271.390597 
L 157.274118 271.390597 
L 157.274118 271.080359 
L 157.624551 271.080359 
L 157.697685 270.459881 
L 158.576566 270.459881 
L 158.576566 270.149642 
L 158.827814 270.149642 
L 158.827814 269.839404 
L 159.131377 269.839404 
L 159.222356 269.218926 
L 159.28429 269.218926 
L 159.28429 268.908688 
L 159.540173 268.908688 
L 159.540173 268.598449 
L 161.257581 268.598449 
L 161.257581 268.28821 
L 161.714058 268.28821 
L 161.714058 267.977972 
L 161.917873 267.977972 
L 161.991008 267.357494 
L 162.869888 267.357494 
L 162.869888 267.047256 
L 163.424699 267.047256 
L 163.424699 266.737017 
L 165.550904 266.737017 
L 165.550904 266.426778 
L 166.00738 266.426778 
L 166.00738 266.116539 
L 166.482907 266.116539 
L 166.482907 265.806301 
L 167.686999 265.806301 
L 167.686999 265.496062 
L 169.601508 265.496062 
L 169.601508 265.185823 
L 169.919324 265.185823 
L 169.919324 264.875585 
L 170.805599 264.875585 
L 170.805599 264.565346 
L 171.123415 264.565346 
L 171.123415 264.255107 
L 172.297025 264.255107 
L 172.370159 263.63463 
L 173.24904 263.63463 
L 173.24904 263.324391 
L 173.501116 263.324391 
L 173.574251 262.703914 
L 173.803851 262.703914 
L 173.912528 262.083436 
L 174.017571 262.083436 
L 174.12828 261.462959 
L 174.453131 261.462959 
L 174.453131 261.15272 
L 174.794853 261.15272 
L 174.794853 260.842482 
L 175.007942 260.842482 
L 175.007942 260.532243 
L 175.930055 260.532243 
L 175.930055 260.222004 
L 176.386532 260.222004 
L 176.386532 259.911766 
L 177.134146 259.911766 
L 177.134146 259.601527 
L 177.590623 259.601527 
L 177.590623 259.291288 
L 178.312067 259.291288 
L 178.312067 258.981049 
L 178.653746 258.981049 
L 178.653746 258.670811 
L 178.930421 258.670811 
L 178.930421 258.360572 
L 179.746926 258.360572 
L 179.746926 258.050333 
L 180.21928 258.050333 
L 180.21928 257.740095 
L 181.430667 257.740095 
L 181.430667 257.429856 
L 181.748484 257.429856 
L 181.748484 257.119617 
L 184.126185 257.119617 
L 184.199319 256.49914 
L 185.078199 256.49914 
L 185.078199 256.188901 
L 185.633011 256.188901 
L 185.633011 255.878663 
L 187.759215 255.878663 
L 187.759215 255.568424 
L 188.215691 255.568424 
L 188.215691 255.258185 
L 188.353455 255.258185 
L 188.353455 254.947946 
L 191.319898 254.947946 
L 191.319898 254.637708 
L 191.509844 254.637708 
L 191.509844 254.327469 
L 195.037963 254.327469 
L 195.037963 254.01723 
L 195.518734 254.01723 
L 195.518734 253.706992 
L 198.920047 253.706992 
L 198.920047 253.396753 
L 200.140942 253.396753 
L 200.140942 253.086514 
L 202.516974 253.086514 
L 202.516974 252.776276 
L 205.12035 252.776276 
L 205.12035 252.466037 
L 206.684979 252.466037 
L 206.684979 252.155798 
L 206.933917 252.155798 
L 206.933917 251.84556 
L 207.526576 251.84556 
L 207.526576 251.535321 
L 208.026744 251.535321 
L 208.026744 251.225082 
L 209.803564 251.225082 
L 209.803564 250.914843 
L 209.932164 250.914843 
L 209.932164 250.604605 
L 210.052503 250.604605 
L 210.052503 250.294366 
L 210.181102 250.294366 
L 210.181102 249.984127 
L 210.493019 249.984127 
L 210.493019 249.673889 
L 210.682965 249.673889 
L 210.682965 249.36365 
L 211.145329 249.36365 
L 211.145329 249.053411 
L 211.273928 249.053411 
L 211.273928 248.743173 
L 212.766606 248.743173 
L 212.766606 248.432934 
L 213.015544 248.432934 
L 213.015544 248.122695 
L 214.108371 248.122695 
L 214.108371 247.812456 
L 214.691855 247.812456 
L 214.777856 247.191979 
L 214.946834 247.191979 
L 214.946834 246.88174 
L 216.426372 246.88174 
L 216.426372 246.571502 
L 216.925741 246.571502 
L 216.925741 246.261263 
L 218.436544 246.261263 
L 218.436544 245.951024 
L 219.314063 245.951024 
L 219.314063 245.640786 
L 220.866312 245.640786 
L 220.866312 245.330547 
L 221.690095 245.330547 
L 221.751371 244.71007 
L 223.812951 244.71007 
L 223.812951 244.399831 
L 224.293471 244.399831 
L 224.293471 244.089592 
L 225.056434 244.089592 
L 225.159634 243.469115 
L 225.267121 243.469115 
L 225.267121 243.158876 
L 225.817498 243.158876 
L 225.848907 242.538399 
L 226.001195 242.538399 
L 226.001195 242.22816 
L 226.39549 242.22816 
L 226.466607 241.607683 
L 226.624414 241.607683 
L 226.660401 240.987205 
L 226.915637 240.987205 
L 226.915637 240.676966 
L 227.416156 240.676966 
L 227.416156 240.366728 
L 227.528568 240.366728 
L 227.625377 239.74625 
L 228.072168 239.74625 
L 228.072168 239.436012 
L 228.237189 239.436012 
L 228.321531 237.57458 
L 228.361697 237.57458 
L 228.361697 237.264341 
L 228.898537 237.264341 
L 228.967492 236.023386 
L 229.096091 236.023386 
L 229.11978 235.402909 
L 229.24838 235.402909 
L 229.335348 234.782431 
L 229.585192 234.782431 
L 229.627208 234.161954 
L 229.713792 234.161954 
L 229.773704 233.541477 
L 229.937666 233.541477 
L 230.029588 232.920999 
L 230.114618 232.920999 
L 230.114618 232.61076 
L 230.283102 232.61076 
L 230.3579 231.680044 
L 230.504252 231.680044 
L 230.504252 231.369806 
L 230.743962 231.369806 
L 230.743962 231.059567 
L 230.872562 231.059567 
L 230.872562 230.749328 
L 230.983864 230.749328 
L 230.983864 230.43909 
L 231.292306 230.43909 
L 231.387897 228.887896 
L 231.484374 228.887896 
L 231.516496 228.267419 
L 231.886022 228.267419 
L 231.930534 227.646941 
L 232.017123 227.646941 
L 232.082822 226.716225 
L 232.145722 226.716225 
L 232.211986 225.785509 
L 232.548234 225.785509 
L 232.650896 225.165032 
L 232.71287 225.165032 
L 232.748857 224.544554 
L 232.994036 224.544554 
L 232.994036 224.234316 
L 233.324343 224.234316 
L 233.324343 223.924077 
L 233.514289 223.924077 
L 233.514289 223.613838 
L 233.662963 223.613838 
L 233.707004 222.683122 
L 233.934856 222.683122 
L 233.934856 222.372883 
L 234.119955 222.372883 
L 234.119955 222.062645 
L 234.259069 222.062645 
L 234.350939 221.131929 
L 234.508007 221.131929 
L 234.508007 220.82169 
L 234.653047 220.82169 
L 234.653047 220.511451 
L 234.980165 220.511451 
L 235.087579 218.650019 
L 235.105577 218.650019 
L 235.105577 218.33978 
L 235.303685 218.33978 
L 235.354515 217.719303 
L 235.423803 217.719303 
L 235.514836 217.098826 
L 235.538785 217.098826 
L 235.648899 215.857871 
L 235.680166 215.857871 
L 235.763774 215.237394 
L 235.867132 215.237394 
L 235.877375 214.616916 
L 236.098862 214.616916 
L 236.204968 213.6862 
L 236.396511 213.6862 
L 236.447342 213.065723 
L 236.629406 213.065723 
L 236.629406 212.755484 
L 236.742877 212.755484 
L 236.819352 212.135007 
L 236.856601 212.135007 
L 236.959958 211.20429 
L 237.006192 211.20429 
L 237.042179 210.583813 
L 237.219139 210.583813 
L 237.328682 209.963336 
L 237.460692 209.963336 
L 237.523179 209.342858 
L 237.968463 209.342858 
L 237.968463 209.03262 
L 238.121865 209.03262 
L 238.158409 208.412142 
L 238.721147 208.412142 
L 238.721147 208.101904 
L 239.110781 208.101904 
L 239.110781 207.791665 
L 239.323554 207.791665 
L 239.338854 207.171187 
L 239.452153 207.171187 
L 239.452153 206.860949 
L 239.717126 206.860949 
L 239.717126 206.55071 
L 239.894503 206.55071 
L 239.901955 205.930233 
L 240.084449 205.930233 
L 240.084449 205.619994 
L 240.492551 205.619994 
L 240.492551 205.309755 
L 240.818515 205.309755 
L 240.850943 204.379039 
L 241.257425 204.379039 
L 241.257425 204.0688 
L 241.687591 204.0688 
L 241.768622 203.448323 
L 241.877537 203.448323 
L 241.877537 203.138084 
L 242.077224 203.138084 
L 242.167299 202.207368 
L 242.26717 202.207368 
L 242.286595 201.586891 
L 242.868399 201.586891 
L 242.868399 201.276652 
L 242.986072 201.276652 
L 243.058344 200.656175 
L 243.458995 200.656175 
L 243.458995 200.345936 
L 243.64894 200.345936 
L 243.64894 200.035697 
L 243.784958 200.035697 
L 243.784958 199.725459 
L 243.974904 199.725459 
L 243.974904 199.41522 
L 244.093339 199.41522 
L 244.133146 198.794743 
L 244.223869 198.794743 
L 244.223869 198.484504 
L 244.413815 198.484504 
L 244.521419 197.864027 
L 245.221238 197.864027 
L 245.221238 197.553788 
L 245.45045 197.553788 
L 245.45045 197.243549 
L 245.886427 197.243549 
L 245.886427 196.933311 
L 246.02805 196.933311 
L 246.067221 196.002594 
L 246.27606 196.002594 
L 246.27606 195.692356 
L 246.589277 195.692356 
L 246.589277 195.382117 
L 246.728394 195.382117 
L 246.789506 194.76164 
L 247.067234 194.76164 
L 247.124795 194.141162 
L 247.232142 194.141162 
L 247.251731 193.520685 
L 247.367945 193.520685 
L 247.42133 192.27973 
L 247.534818 192.27973 
L 247.534818 191.969491 
L 247.65783 191.969491 
L 247.65783 191.659253 
L 247.826482 191.659253 
L 247.826482 191.349014 
L 247.983794 191.349014 
L 247.983794 191.038775 
L 248.422705 191.038775 
L 248.422705 190.728537 
L 248.589435 190.728537 
L 248.625422 190.108059 
L 248.715547 190.108059 
L 248.715547 189.797821 
L 248.946825 189.797821 
L 249.033665 189.177343 
L 249.165539 189.177343 
L 249.22361 188.556866 
L 249.457472 188.556866 
L 249.457472 188.246627 
L 249.694838 188.246627 
L 249.694838 187.936388 
L 249.884783 187.936388 
L 249.884783 187.62615 
L 250.096277 187.62615 
L 250.096277 187.315911 
L 250.214773 187.315911 
L 250.214773 187.005672 
L 250.429858 187.005672 
L 250.508634 186.074956 
L 250.898268 186.074956 
L 250.898268 185.764718 
L 251.091579 185.764718 
L 251.091579 185.454479 
L 251.300368 185.454479 
L 251.300368 185.14424 
L 251.689442 185.14424 
L 251.768915 184.523763 
L 252.280038 184.523763 
L 252.280038 184.213524 
L 252.423916 184.213524 
L 252.423916 183.903285 
L 252.606002 183.903285 
L 252.613861 183.282808 
L 252.849845 183.282808 
L 252.884667 182.662331 
L 253.002134 182.662331 
L 253.044913 182.041853 
L 253.2325 182.041853 
L 253.2743 181.421376 
L 253.422996 181.421376 
L 253.467546 180.800898 
L 253.575285 180.800898 
L 253.575285 180.49066 
L 253.694955 180.49066 
L 253.760375 179.870182 
L 253.893673 179.870182 
L 253.893673 179.559944 
L 254.040697 179.559944 
L 254.113217 178.629228 
L 254.21826 178.629228 
L 254.328969 177.388273 
L 254.370963 177.388273 
L 254.421793 176.767795 
L 254.626316 176.767795 
L 254.678764 175.837079 
L 254.782121 175.837079 
L 254.887205 174.596124 
L 254.93441 174.596124 
L 255.041302 173.35517 
L 255.193591 173.35517 
L 255.296464 171.803976 
L 255.399822 171.803976 
L 255.488043 170.87326 
L 255.659003 170.87326 
L 255.659003 170.563021 
L 255.811279 170.563021 
L 255.899476 169.322067 
L 255.945457 169.322067 
L 256.045975 168.391351 
L 256.367887 168.391351 
L 256.47293 166.840157 
L 256.518608 166.840157 
L 256.622751 164.978725 
L 256.639079 164.978725 
L 256.68991 163.427531 
L 256.800084 163.427531 
L 256.817772 162.807054 
L 256.951279 162.807054 
L 256.951279 162.496815 
L 257.067046 162.496815 
L 257.170404 161.566099 
L 257.202526 161.566099 
L 257.268305 160.325145 
L 257.314286 160.325145 
L 257.365116 159.394428 
L 257.429584 159.394428 
L 257.466658 158.463712 
L 257.58541 158.463712 
L 257.645187 157.843235 
L 257.728395 157.843235 
L 257.831752 156.912519 
L 257.854708 156.912519 
L 257.922926 155.671564 
L 258.024321 155.671564 
L 258.090933 154.740848 
L 258.136914 154.740848 
L 258.233385 153.810132 
L 258.325307 153.810132 
L 258.43035 152.879416 
L 258.449137 152.879416 
L 258.541059 151.9487 
L 258.805252 151.9487 
L 258.854435 151.328222 
L 258.930186 151.328222 
L 258.930186 151.017984 
L 259.115711 151.017984 
L 259.214503 149.777029 
L 259.25049 149.777029 
L 259.25049 149.46679 
L 260.109707 149.46679 
L 260.109707 149.156552 
L 260.230741 149.156552 
L 260.256342 148.536074 
L 260.358645 148.536074 
L 260.419969 147.915597 
L 260.891914 147.915597 
L 260.891914 147.605358 
L 261.109105 147.605358 
L 261.210986 146.984881 
L 261.244959 146.984881 
L 261.325551 146.364403 
L 261.38578 146.364403 
L 261.451472 145.743926 
L 261.595399 145.743926 
L 261.602225 145.123448 
L 261.925437 145.123448 
L 261.925437 144.81321 
L 262.235249 144.81321 
L 262.235249 144.502971 
L 262.664145 144.502971 
L 262.674639 143.882494 
L 262.834117 143.882494 
L 262.940819 142.951778 
L 262.948765 142.951778 
L 263.053808 142.021062 
L 263.066526 142.021062 
L 263.164517 141.400584 
L 263.205907 141.400584 
L 263.251278 140.780107 
L 263.3432 140.780107 
L 263.4098 139.849391 
L 263.488341 139.849391 
L 263.59905 138.298197 
L 263.620991 138.298197 
L 263.620991 137.987959 
L 263.779058 137.987959 
L 263.831091 137.367481 
L 264.229678 137.367481 
L 264.329587 136.436765 
L 264.540137 136.436765 
L 264.647403 134.885572 
L 265.034825 134.885572 
L 265.138183 134.265094 
L 265.314527 134.265094 
L 265.397364 133.644617 
L 265.500346 133.644617 
L 265.500346 133.334378 
L 265.70416 133.334378 
L 265.70416 133.024139 
L 265.817396 133.024139 
L 265.817396 132.713901 
L 266.013049 132.713901 
L 266.013049 132.403662 
L 266.224368 132.403662 
L 266.261988 131.783185 
L 266.495335 131.783185 
L 266.5284 131.162707 
L 266.815928 131.162707 
L 266.846217 130.54223 
L 267.025104 130.54223 
L 267.098238 129.611514 
L 267.293433 129.611514 
L 267.354814 128.991036 
L 267.411894 128.991036 
L 267.411894 128.680798 
L 267.683067 128.680798 
L 267.689984 128.06032 
L 267.850805 128.06032 
L 267.850805 127.750082 
L 267.966658 127.750082 
L 267.977119 127.129604 
L 268.124517 127.129604 
L 268.124517 126.819365 
L 268.270255 126.819365 
L 268.270255 126.509127 
L 268.401191 126.509127 
L 268.474241 125.888649 
L 268.53193 125.888649 
L 268.53193 125.578411 
L 269.064837 125.578411 
L 269.122459 124.957933 
L 269.2118 124.957933 
L 269.297052 123.716979 
L 269.390801 123.716979 
L 269.420601 123.096501 
L 269.69005 123.096501 
L 269.69005 122.786262 
L 269.829711 122.786262 
L 269.829711 122.476024 
L 270.175932 122.476024 
L 270.175932 122.165785 
L 270.366142 122.165785 
L 270.461516 121.545308 
L 270.656507 121.545308 
L 270.730743 120.614592 
L 271.114611 120.614592 
L 271.134085 119.994114 
L 271.700455 119.994114 
L 271.778149 119.063398 
L 272.3304 119.063398 
L 272.387556 118.442921 
L 272.502914 118.442921 
L 272.553744 117.822443 
L 272.648216 117.822443 
L 272.725664 116.891727 
L 272.856947 116.891727 
L 272.963003 116.27125 
L 273.066361 116.27125 
L 273.066361 115.961011 
L 273.296751 115.961011 
L 273.325542 114.720056 
L 273.516956 114.720056 
L 273.621999 114.099579 
L 273.671205 114.099579 
L 273.775108 113.168863 
L 273.79126 113.168863 
L 273.79126 112.858624 
L 274.064721 112.858624 
L 274.092924 112.238147 
L 274.180643 112.238147 
L 274.180643 111.927908 
L 274.399282 111.927908 
L 274.399282 111.617669 
L 274.570277 111.617669 
L 274.639507 110.997192 
L 275.010262 110.997192 
L 275.099051 109.756237 
L 275.238652 109.756237 
L 275.30068 109.13576 
L 275.361451 109.13576 
L 275.361451 108.825521 
L 275.952047 108.825521 
L 276.050852 107.584566 
L 276.278011 107.584566 
L 276.278011 107.274328 
L 276.422269 107.274328 
L 276.532743 106.343612 
L 276.543759 106.343612 
L 276.601814 105.723134 
L 276.716922 105.723134 
L 276.716922 105.412896 
L 276.90986 105.412896 
L 276.936302 104.482179 
L 277.227676 104.482179 
L 277.227676 104.171941 
L 277.42264 104.171941 
L 277.493322 103.551463 
L 277.621424 103.551463 
L 277.709767 102.930986 
L 277.783849 102.930986 
L 277.783849 102.620747 
L 277.94087 102.620747 
L 278.029758 101.690031 
L 278.173482 101.690031 
L 278.258175 101.069554 
L 278.348309 101.069554 
L 278.348309 100.759315 
L 278.534849 100.759315 
L 278.534849 100.449076 
L 278.658947 100.449076 
L 278.72939 99.828599 
L 278.964656 99.828599 
L 279.048361 99.208122 
L 279.115424 99.208122 
L 279.119023 98.587644 
L 279.273635 98.587644 
L 279.35882 97.967167 
L 279.425923 97.967167 
L 279.50173 97.036451 
L 279.555253 97.036451 
L 279.605377 96.415973 
L 279.678512 96.415973 
L 279.678512 96.105735 
L 279.823708 96.105735 
L 279.910197 94.244303 
L 279.989589 94.244303 
L 280.046951 93.623825 
L 280.103655 93.623825 
L 280.141397 93.003348 
L 280.320127 93.003348 
L 280.364767 92.38287 
L 280.500794 92.38287 
L 280.560132 91.141916 
L 280.740025 91.141916 
L 280.826757 90.521438 
L 281.050105 90.521438 
L 281.112203 89.590722 
L 281.265668 89.590722 
L 281.322204 88.970245 
L 281.526717 88.970245 
L 281.526717 88.660006 
L 281.659998 88.660006 
L 281.69404 87.72929 
L 281.9128 87.72929 
L 281.9128 87.419051 
L 282.049632 87.419051 
L 282.056094 86.798574 
L 282.161137 86.798574 
L 282.271846 85.557619 
L 282.323266 85.557619 
L 282.369246 84.937142 
L 282.677675 84.937142 
L 282.742468 84.316664 
L 282.815602 84.316664 
L 282.840806 83.696187 
L 282.938419 83.696187 
L 282.938419 83.385948 
L 283.238407 83.385948 
L 283.238407 83.07571 
L 283.431402 83.07571 
L 283.508676 81.834755 
L 283.694483 81.834755 
L 283.757366 80.904039 
L 284.0742 80.904039 
L 284.0742 80.5938 
L 284.196277 80.5938 
L 284.249294 79.973323 
L 284.387557 79.973323 
L 284.387557 79.663084 
L 284.508733 79.663084 
L 284.508733 79.352845 
L 284.916968 79.352845 
L 284.942368 78.732368 
L 285.129923 78.732368 
L 285.176977 78.11189 
L 285.329266 78.11189 
L 285.329266 77.801652 
L 285.791095 77.801652 
L 285.794677 77.181174 
L 286.075463 77.181174 
L 286.075463 76.870936 
L 286.375498 76.870936 
L 286.375498 76.560697 
L 286.736636 76.560697 
L 286.831975 75.629981 
L 286.953447 75.629981 
L 286.953447 75.319742 
L 287.068572 75.319742 
L 287.073987 74.699265 
L 287.48747 74.699265 
L 287.597382 73.45831 
L 288.044658 73.45831 
L 288.148643 72.837833 
L 288.226608 72.837833 
L 288.272588 72.217355 
L 288.362846 72.217355 
L 288.457284 71.596878 
L 288.520173 71.596878 
L 288.520173 71.286639 
L 289.006072 71.286639 
L 289.006072 70.9764 
L 289.465714 70.9764 
L 289.465714 70.666162 
L 289.629696 70.666162 
L 289.667245 70.045684 
L 290.877721 70.045684 
L 290.877721 69.735446 
L 292.396323 69.735446 
L 292.396323 69.425207 
L 293.8846 69.425207 
L 293.8846 69.114968 
L 294.642391 69.114968 
L 294.642391 68.80473 
L 295.111647 68.80473 
L 295.21669 68.184252 
L 295.327399 68.184252 
L 295.327399 67.874013 
L 295.533039 67.874013 
L 295.533039 67.563775 
L 295.993973 67.563775 
L 295.993973 67.253536 
L 297.557874 67.253536 
L 297.557874 66.943297 
L 299.852866 66.943297 
L 299.852866 66.633059 
L 299.996174 66.633059 
L 300.101217 66.012581 
L 300.12954 66.012581 
L 300.211926 65.392104 
L 300.878499 65.392104 
L 300.878499 65.081865 
L 301.418399 65.081865 
L 301.418399 64.771627 
L 303.181529 64.771627 
L 303.181529 64.461388 
L 303.461217 64.461388 
L 303.461217 64.151149 
L 304.737392 64.151149 
L 304.737392 63.84091 
L 305.014067 63.84091 
L 305.014067 63.530672 
L 306.302925 63.530672 
L 306.302925 63.220433 
L 307.729257 63.220433 
L 307.729257 62.910194 
L 309.983927 62.910194 
L 309.983927 62.599956 
L 310.200373 62.599956 
L 310.200373 62.289717 
L 311.538967 62.289717 
L 311.538967 61.979478 
L 311.737288 61.979478 
L 311.842331 61.359001 
L 311.849426 61.359001 
L 311.95304 60.428285 
L 312.619614 60.428285 
L 312.619614 60.118046 
L 316.237082 60.118046 
L 316.340377 59.497569 
L 316.44542 59.497569 
L 316.556129 58.566853 
L 316.564806 58.566853 
L 316.564806 58.256614 
L 316.755181 58.256614 
L 316.755181 57.946375 
L 316.999339 57.946375 
L 316.999339 57.636137 
L 317.222703 57.636137 
L 317.222703 57.325898 
L 318.04404 57.325898 
L 318.04404 57.015659 
L 321.081596 57.015659 
L 321.121608 56.395182 
L 321.35827 56.395182 
L 321.35827 56.084943 
L 322.647129 56.084943 
L 322.647129 55.774704 
L 327.132997 55.774704 
L 327.132997 55.464466 
L 330.266864 55.464466 
L 330.266864 55.154227 
L 332.465678 55.154227 
L 332.465678 54.843988 
L 332.862723 54.843988 
L 332.862723 54.53375 
L 335.672134 54.53375 
L 335.672134 54.223511 
L 337.465812 54.223511 
L 337.465812 53.913272 
L 338.267678 53.913272 
L 338.267678 53.603034 
L 339.712385 53.603034 
L 339.712385 53.292795 
L 340.756129 53.292795 
L 340.756129 52.982556 
L 342.113423 52.982556 
L 342.149409 52.362079 
L 342.847138 52.362079 
L 342.954943 51.741601 
L 344.312236 51.741601 
L 344.348223 51.121124 
L 344.824356 51.121124 
L 344.824356 50.810885 
L 345.984229 50.810885 
L 345.984229 50.500647 
L 346.677302 50.500647 
L 346.677302 50.190408 
L 347.02317 50.190408 
L 347.02317 49.880169 
L 348.727688 49.880169 
L 348.756942 49.259692 
L 350.114236 49.259692 
L 350.20165 48.328976 
L 351.169175 48.328976 
L 351.169175 48.018737 
L 351.558944 48.018737 
L 351.59493 47.39826 
L 352.825169 47.39826 
L 352.825169 47.088021 
L 353.336403 47.088021 
L 353.367988 46.467544 
L 353.612214 46.467544 
L 353.612214 46.157305 
L 354.269877 46.157305 
L 354.269877 45.847066 
L 354.693696 45.847066 
L 354.729683 45.226589 
L 356.473493 45.226589 
L 356.473493 44.91635 
L 357.166567 44.91635 
L 357.166567 44.606111 
L 357.404629 44.606111 
L 357.404629 44.295873 
L 357.830787 44.295873 
L 357.866774 43.675395 
L 358.523861 43.675395 
L 358.559847 43.054918 
L 359.169988 43.054918 
L 359.169988 42.744679 
L 359.70242 42.744679 
L 359.70242 42.43444 
L 360.075896 42.43444 
L 360.075896 42.124202 
L 360.190278 42.124202 
L 360.190278 41.813963 
L 360.54172 41.813963 
L 360.614696 41.193486 
L 361.234794 41.193486 
L 361.234794 40.883247 
L 361.95709 40.883247 
L 361.95709 40.573008 
L 362.173535 40.573008 
L 362.173535 40.26277 
L 362.330566 40.26277 
L 362.330566 39.952531 
L 362.444948 39.952531 
L 362.547011 39.332054 
L 362.661393 39.332054 
L 362.661393 39.021815 
L 363.512129 39.021815 
L 363.512129 38.711576 
L 363.749448 38.711576 
L 363.822588 38.091099 
L 363.885605 38.091099 
L 363.91451 37.470621 
L 363.999988 37.470621 
L 363.999988 37.160383 
L 364.196064 37.160383 
L 364.287986 36.539905 
L 364.310446 36.539905 
L 364.402368 35.919428 
L 365.353329 35.919428 
L 365.353329 35.609189 
L 366.886539 35.609189 
L 366.886539 35.298951 
L 367.579613 35.298951 
L 367.579613 34.988712 
L 368.537968 34.988712 
L 368.537968 34.678473 
L 368.657974 34.678473 
L 368.657974 34.368234 
L 368.911444 34.368234 
L 368.972501 33.747757 
L 369.025827 33.747757 
L 369.025827 33.437518 
L 369.345977 33.437518 
L 369.345977 33.12728 
L 369.460359 33.12728 
L 369.460359 32.817041 
L 369.956418 32.817041 
L 369.956418 32.506802 
L 370.912643 32.506802 
L 370.912643 32.196564 
L 371.129089 32.196564 
L 371.129089 31.886325 
L 372.467683 31.886325 
L 372.467683 31.576086 
L 372.778142 31.576086 
L 372.870064 30.955609 
L 374.085289 30.955609 
L 374.085289 30.64537 
L 376.339959 30.64537 
L 376.339959 30.335131 
L 376.556404 30.335131 
L 376.556404 30.024893 
L 377.493522 30.024893 
L 377.493522 29.714654 
L 377.894998 29.714654 
L 377.928055 29.094177 
L 378.205457 29.094177 
L 378.297379 28.473699 
L 379.106159 28.473699 
L 379.106159 28.163461 
L 379.479635 28.163461 
L 379.479635 27.853222 
L 379.594017 27.853222 
L 379.594017 27.542983 
L 382.920837 27.542983 
L 382.920837 27.232744 
L 383.35537 27.232744 
L 383.35537 26.922506 
L 387.645297 26.922506 
L 387.645297 26.612267 
L 388.018773 26.612267 
L 388.061713 25.99179 
L 388.133155 25.99179 
L 388.133155 25.681551 
L 393.489028 25.681551 
L 393.489028 25.371312 
L 396.600851 25.371312 
L 396.600851 25.061074 
L 400.70085 25.061074 
L 400.70085 24.750835 
L 401.074326 24.750835 
L 401.074326 24.440596 
L 401.188708 24.440596 
L 401.188708 24.130358 
L 402.028166 24.130358 
L 402.028166 23.820119 
L 405.585376 23.820119 
L 405.585376 23.50988 
L 405.958853 23.50988 
L 405.958853 23.199641 
L 406.073235 23.199641 
L 406.073235 22.889403 
L 409.656404 22.889403 
L 409.656404 22.579164 
L 414.54093 22.579164 
L 414.54093 22.268925 
L 415.083719 22.268925 
L 415.083719 21.958687 
L 417.326491 21.958687 
L 417.326491 21.648448 
L 417.699967 21.648448 
L 417.699967 21.338209 
L 417.81435 21.338209 
L 417.81435 21.027971 
L 419.968246 21.027971 
L 419.968246 20.717732 
L 421.92958 20.717732 
L 421.92958 20.407493 
L 422.303056 20.407493 
L 422.303056 20.097254 
L 422.417438 20.097254 
L 422.417438 19.787016 
L 426.282045 19.787016 
L 426.282045 19.476777 
L 430.885134 19.476777 
L 430.885134 19.166538 
L 431.70936 19.166538 
L 431.70936 18.8563 
L 436.312449 18.8563 
L 436.312449 18.546061 
L 453.192 18.546061 
L 453.192 18.546061 
" clip-path="url(#p79eb78c2d9)" style="fill: none; stroke: #000000; stroke-width: 3; stroke-linecap: square"/>
   </g>
   <g id="line2d_54">
    <path clip-path="url(#p79eb78c2d9)" style="fill: none; stroke: #000000; stroke-width: 3; stroke-linecap: square"/>
   </g>
   <g id="line2d_55">
    <path d="M 34.16 273.513067 
L 98.721432 273.513067 
L 98.721432 273.098049 
L 118.047618 273.098049 
L 118.047618 272.683031 
L 118.17242 272.683031 
L 118.17242 272.268012 
L 130.550979 272.268012 
L 130.550979 271.852994 
L 131.26754 271.852994 
L 131.26754 271.437976 
L 134.128787 271.437976 
L 134.128787 271.022958 
L 134.760243 271.022958 
L 134.760243 270.607939 
L 166.398249 270.607939 
L 166.398249 270.192921 
L 167.320606 270.192921 
L 167.320606 269.777903 
L 167.443585 269.777903 
L 167.443585 269.362884 
L 169.185581 269.362884 
L 169.280672 268.532848 
L 169.53649 268.532848 
L 169.53649 268.11783 
L 170.835752 268.11783 
L 170.835752 267.702811 
L 174.311135 267.702811 
L 174.311135 267.287793 
L 192.396303 267.287793 
L 192.396303 266.872775 
L 208.744436 266.872775 
L 208.744436 266.457756 
L 209.335346 266.457756 
L 209.41886 265.62772 
L 209.873321 265.62772 
L 209.873321 265.212702 
L 210.00977 265.212702 
L 210.00977 264.797683 
L 210.547745 264.797683 
L 210.547745 264.382665 
L 211.72249 264.382665 
L 211.780014 263.552628 
L 211.847292 263.552628 
L 211.847292 263.13761 
L 212.370925 263.13761 
L 212.370925 262.722592 
L 212.908899 262.722592 
L 212.908899 262.307574 
L 224.22585 262.307574 
L 224.22585 261.892555 
L 224.904062 261.892555 
L 224.942412 261.062519 
L 226.027681 261.062519 
L 226.027681 260.647501 
L 226.32467 260.647501 
L 226.32467 260.232482 
L 226.564971 260.232482 
L 226.564971 259.817464 
L 226.704519 259.817464 
L 226.704519 259.402446 
L 227.291543 259.402446 
L 227.291543 258.987427 
L 227.803658 258.987427 
L 227.803658 258.572409 
L 228.091959 258.572409 
L 228.091959 258.157391 
L 228.435115 258.157391 
L 228.51967 257.327354 
L 228.766383 257.327354 
L 228.783689 256.497318 
L 229.194094 256.497318 
L 229.194094 256.082299 
L 229.357825 256.082299 
L 229.458113 255.252263 
L 229.722209 255.252263 
L 229.799839 254.422226 
L 229.899718 254.422226 
L 229.899718 254.007208 
L 230.096828 254.007208 
L 230.169591 253.177171 
L 230.337129 253.177171 
L 230.396633 252.347135 
L 230.476677 252.347135 
L 230.476677 251.932117 
L 230.615725 251.932117 
L 230.642596 251.10208 
L 230.844014 251.10208 
L 230.844014 250.687062 
L 231.127538 250.687062 
L 231.127538 250.272043 
L 231.287292 250.272043 
L 231.31702 249.026989 
L 231.555249 249.026989 
L 231.555249 248.61197 
L 231.819267 248.61197 
L 231.819267 248.196952 
L 231.961716 248.196952 
L 231.961716 247.781934 
L 232.757787 247.781934 
L 232.757787 247.366915 
L 232.969727 247.366915 
L 232.969727 246.951897 
L 233.205169 246.951897 
L 233.205169 246.536879 
L 233.560637 246.536879 
L 233.651304 245.706842 
L 233.678174 245.706842 
L 233.678174 245.291824 
L 233.940636 245.291824 
L 233.942773 244.461787 
L 234.098612 244.461787 
L 234.098612 244.046769 
L 234.32287 244.046769 
L 234.32287 243.631751 
L 234.492047 243.631751 
L 234.533684 242.386696 
L 234.664469 242.386696 
L 234.664469 241.971678 
L 234.826128 241.971678 
L 234.826128 241.556659 
L 235.069521 241.556659 
L 235.082958 240.311605 
L 235.255379 240.311605 
L 235.255379 239.896586 
L 235.417039 239.896586 
L 235.417039 239.481568 
L 235.620932 239.481568 
L 235.637149 238.651531 
L 235.793354 238.651531 
L 235.793354 238.236513 
L 235.955013 238.236513 
L 235.955013 237.821495 
L 236.22806 237.821495 
L 236.22806 237.406477 
L 236.766034 237.406477 
L 236.766034 236.991458 
L 238.49468 236.991458 
L 238.49468 236.57644 
L 239.169103 236.57644 
L 239.169103 236.161422 
L 239.789088 236.161422 
L 239.789088 235.746404 
L 241.530258 235.746404 
L 241.530258 235.331385 
L 243.561245 235.331385 
L 243.561245 234.916367 
L 244.230249 234.916367 
L 244.230249 234.501349 
L 244.355051 234.501349 
L 244.355051 234.08633 
L 245.36486 234.08633 
L 245.36486 233.671312 
L 246.61773 233.671312 
L 246.61773 233.256294 
L 246.742532 233.256294 
L 246.742532 232.841276 
L 248.684012 232.841276 
L 248.734571 232.011239 
L 248.808813 232.011239 
L 248.808813 231.596221 
L 249.225905 231.596221 
L 249.225905 231.181202 
L 249.350707 231.181202 
L 249.350707 230.766184 
L 249.486762 230.766184 
L 249.553688 229.936148 
L 251.750941 229.936148 
L 251.750941 229.521129 
L 252.31725 229.521129 
L 252.31725 229.106111 
L 252.744961 229.106111 
L 252.744961 228.691093 
L 253.00898 228.691093 
L 253.00898 228.276074 
L 253.28816 228.276074 
L 253.290297 227.446038 
L 253.715871 227.446038 
L 253.718008 226.616001 
L 253.83957 226.616001 
L 253.9475 225.785965 
L 253.97989 225.785965 
L 254.011992 224.54091 
L 254.173652 224.54091 
L 254.267281 223.710873 
L 254.394881 223.710873 
L 254.439703 222.880837 
L 254.5313 222.880837 
L 254.601363 222.0508 
L 254.703722 222.0508 
L 254.703722 221.635782 
L 254.841016 221.635782 
L 254.920546 219.56069 
L 254.984673 219.56069 
L 254.984673 219.145672 
L 255.365791 219.145672 
L 255.46982 217.485599 
L 255.512583 217.485599 
L 255.512583 217.070581 
L 255.642242 217.070581 
L 255.676402 216.240544 
L 255.803901 216.240544 
L 255.840934 214.165453 
L 255.917202 214.165453 
L 255.94981 213.335416 
L 256.089624 213.335416 
L 256.150184 212.50538 
L 256.251283 212.50538 
L 256.251283 212.090361 
L 256.363337 212.090361 
L 256.405366 210.845306 
L 256.483492 210.845306 
L 256.562629 209.185233 
L 256.614922 209.185233 
L 256.724288 207.52516 
L 256.733609 207.52516 
L 256.733609 207.110142 
L 256.942656 207.110142 
L 257.034903 206.280105 
L 257.062304 206.280105 
L 257.082204 205.450069 
L 257.207325 205.450069 
L 257.207325 205.035051 
L 257.368984 205.035051 
L 257.450171 204.205014 
L 257.508439 204.205014 
L 257.535309 202.544941 
L 257.658587 202.544941 
L 257.658587 202.129923 
L 257.81664 202.129923 
L 257.82329 201.299886 
L 257.955576 201.299886 
L 258.063591 200.054831 
L 258.180005 200.054831 
L 258.203139 198.394758 
L 258.300671 198.394758 
L 258.335425 197.564721 
L 258.59766 197.564721 
L 258.59766 197.149703 
L 258.837961 197.149703 
L 258.837961 196.734685 
L 258.960431 196.734685 
L 258.977509 195.904648 
L 259.12109 195.904648 
L 259.139469 195.074612 
L 259.25742 195.074612 
L 259.25742 194.659593 
L 259.497721 194.659593 
L 259.497721 194.244575 
L 259.637269 194.244575 
L 259.73038 193.414539 
L 259.837651 193.414539 
L 259.922342 192.584502 
L 260.073121 192.584502 
L 260.073121 192.169484 
L 260.268354 192.169484 
L 260.311417 191.339447 
L 260.942874 191.339447 
L 261.042901 189.679374 
L 261.118457 189.679374 
L 261.187372 188.434319 
L 261.33989 188.434319 
L 261.423177 187.604283 
L 261.580191 187.604283 
L 261.663478 186.359228 
L 261.719739 186.359228 
L 261.803026 185.114173 
L 261.903933 185.114173 
L 261.910844 184.284136 
L 262.151146 184.284136 
L 262.154772 183.4541 
L 262.290693 183.4541 
L 262.290693 183.039082 
L 262.415686 183.039082 
L 262.451761 181.794027 
L 262.67077 181.794027 
L 262.71997 179.718935 
L 262.83161 179.718935 
L 262.860452 178.888899 
L 262.952976 178.888899 
L 262.967759 177.643844 
L 263.092524 177.643844 
L 263.092524 177.228826 
L 263.20806 177.228826 
L 263.211362 176.398789 
L 263.330354 176.398789 
L 263.347608 175.568752 
L 263.69088 175.568752 
L 263.693017 174.738716 
L 263.904684 174.738716 
L 263.904684 174.323698 
L 264.201673 174.323698 
L 264.242291 173.493661 
L 264.414713 173.493661 
L 264.510624 172.248606 
L 264.576372 172.248606 
L 264.581522 171.41857 
L 264.691047 171.41857 
L 264.778006 170.173515 
L 264.815849 170.173515 
L 264.815849 169.758496 
L 265.305718 169.758496 
L 265.396636 168.098423 
L 265.896629 168.098423 
L 265.93853 166.853368 
L 266.434604 166.853368 
L 266.434604 166.43835 
L 267.986007 166.43835 
L 268.060758 165.608314 
L 268.18556 165.608314 
L 268.18556 165.193295 
L 268.812948 165.193295 
L 268.879874 164.363259 
L 268.93775 164.363259 
L 269.004676 163.533222 
L 269.701838 163.533222 
L 269.701838 163.118204 
L 270.166773 163.118204 
L 270.166773 162.703186 
L 271.077128 162.703186 
L 271.077128 162.288167 
L 271.20193 162.288167 
L 271.287708 161.043112 
L 271.419993 161.043112 
L 271.419993 160.628094 
L 272.062077 160.628094 
L 272.062077 160.213076 
L 272.721838 160.213076 
L 272.721838 159.798058 
L 274.804308 159.798058 
L 274.887594 158.968021 
L 275.275997 158.968021 
L 275.375262 158.137985 
L 275.400799 158.137985 
L 275.400799 157.722966 
L 275.916178 157.722966 
L 275.916178 157.307948 
L 276.177093 157.307948 
L 276.177093 156.89293 
L 276.432177 156.89293 
L 276.432177 156.477911 
L 277.194407 156.477911 
L 277.194407 156.062893 
L 277.66609 156.062893 
L 277.66609 155.647875 
L 277.910969 155.647875 
L 277.910969 155.232857 
L 278.230891 155.232857 
L 278.230891 154.817838 
L 278.476343 154.817838 
L 278.486993 153.987802 
L 278.914704 153.987802 
L 278.914704 153.572783 
L 279.178723 153.572783 
L 279.178723 153.157765 
L 280.117242 153.157765 
L 280.117242 152.742747 
L 280.564118 152.742747 
L 280.564624 151.91271 
L 280.772215 151.91271 
L 280.772215 151.497692 
L 281.010759 151.497692 
L 281.037629 150.667655 
L 281.28068 150.667655 
L 281.383235 149.422601 
L 281.403672 149.422601 
L 281.403672 149.007582 
L 281.682325 149.007582 
L 281.682325 148.592564 
L 282.003048 148.592564 
L 282.099796 147.347509 
L 282.248501 147.347509 
L 282.248501 146.932491 
L 283.469233 146.932491 
L 283.469233 146.517473 
L 283.580488 146.517473 
L 283.580488 146.102454 
L 284.101177 146.102454 
L 284.141926 145.272418 
L 284.297049 145.272418 
L 284.297049 144.857399 
L 284.653242 144.857399 
L 284.653242 144.442381 
L 284.773383 144.442381 
L 284.773383 144.027363 
L 284.894117 144.027363 
L 284.961043 143.197326 
L 285.080953 143.197326 
L 285.080953 142.782308 
L 285.344972 142.782308 
L 285.344972 142.36729 
L 285.525573 142.36729 
L 285.592499 141.537253 
L 286.283491 141.537253 
L 286.283491 141.122235 
L 286.527869 141.122235 
L 286.527869 140.707217 
L 286.730873 140.707217 
L 286.730873 140.292198 
L 287.158296 140.292198 
L 287.241391 138.632125 
L 287.642154 138.632125 
L 287.648804 137.802089 
L 287.779357 137.802089 
L 287.873335 135.726997 
L 288.423174 135.726997 
L 288.495919 134.896961 
L 288.889713 134.896961 
L 288.889713 134.481942 
L 289.082934 134.481942 
L 289.082934 134.066924 
L 291.165404 134.066924 
L 291.248691 133.236888 
L 291.357165 133.236888 
L 291.383533 132.406851 
L 291.736358 132.406851 
L 291.736358 131.991833 
L 291.988622 131.991833 
L 291.988622 131.576814 
L 292.277275 131.576814 
L 292.277275 131.161796 
L 292.497818 131.161796 
L 292.58088 129.501723 
L 292.636753 129.501723 
L 292.636753 129.086705 
L 292.793273 129.086705 
L 292.793273 128.671686 
L 293.278837 128.671686 
L 293.278837 128.256668 
L 293.503236 128.256668 
L 293.503236 127.84165 
L 293.626216 127.84165 
L 293.626216 127.426632 
L 293.938598 127.426632 
L 294.027187 126.596595 
L 294.968361 126.596595 
L 295.055962 125.766558 
L 295.368211 125.766558 
L 295.463302 124.936522 
L 295.719121 124.936522 
L 295.719121 124.521504 
L 295.890717 124.521504 
L 295.890717 124.106485 
L 296.013697 124.106485 
L 296.104355 122.86143 
L 296.307366 122.86143 
L 296.307366 122.446412 
L 296.592022 122.446412 
L 296.592022 122.031394 
L 297.018382 122.031394 
L 297.034642 121.201357 
L 297.132939 121.201357 
L 297.132939 120.786339 
L 297.393853 120.786339 
L 297.428301 119.541284 
L 297.560586 119.541284 
L 297.648937 118.296229 
L 297.755692 118.296229 
L 297.850783 117.466193 
L 297.956999 117.466193 
L 297.956999 117.051174 
L 298.079979 117.051174 
L 298.106602 116.221138 
L 298.20267 116.221138 
L 298.20267 115.80612 
L 298.498892 115.80612 
L 298.498892 115.391101 
L 298.621872 115.391101 
L 298.621872 114.976083 
L 298.862431 114.976083 
L 298.882851 114.146046 
L 299.405863 114.146046 
L 299.405863 113.731028 
L 299.821974 113.731028 
L 299.917065 112.900992 
L 300.172884 112.900992 
L 300.172884 112.485973 
L 300.363867 112.485973 
L 300.458958 111.655937 
L 300.493766 111.655937 
L 300.49414 110.8259 
L 300.714777 110.8259 
L 300.714777 110.410882 
L 300.9449 110.410882 
L 301.028187 109.580845 
L 301.472145 109.580845 
L 301.515855 108.750809 
L 302.014038 108.750809 
L 302.056771 107.920772 
L 302.317685 107.920772 
L 302.317685 107.505754 
L 302.57277 107.505754 
L 302.57277 107.090736 
L 302.881247 107.090736 
L 302.881247 106.675717 
L 303.806683 106.675717 
L 303.806683 106.260699 
L 304.266298 106.260699 
L 304.266298 105.845681 
L 304.947529 105.845681 
L 304.947529 105.430663 
L 305.489422 105.430663 
L 305.489422 105.015644 
L 308.608576 105.015644 
L 308.608576 104.600626 
L 308.854028 104.600626 
L 308.854028 104.185608 
L 309.722861 104.185608 
L 309.729511 103.355571 
L 309.861796 103.355571 
L 309.968314 102.525535 
L 309.974964 102.525535 
L 309.974964 102.110516 
L 310.107249 102.110516 
L 310.107249 101.695498 
L 310.50388 101.695498 
L 310.50388 101.28048 
L 310.749333 101.28048 
L 310.749333 100.865461 
L 311.163641 100.865461 
L 311.163641 100.450443 
L 311.409094 100.450443 
L 311.409094 100.035425 
L 313.041678 100.035425 
L 313.041678 99.620407 
L 313.246111 99.620407 
L 313.329397 98.79037 
L 313.491563 98.79037 
L 313.57485 97.960333 
L 313.817065 97.960333 
L 313.846919 97.130297 
L 313.964034 97.130297 
L 314.062518 96.30026 
L 314.087014 96.30026 
L 314.087014 95.885242 
L 314.357981 95.885242 
L 314.357981 95.470224 
L 314.478862 95.470224 
L 314.478862 95.055205 
L 314.603434 95.055205 
L 314.618896 94.225169 
L 314.864348 94.225169 
L 314.967854 92.565096 
L 315.100139 92.565096 
L 315.119433 91.735059 
L 315.593148 91.735059 
L 315.599798 90.905023 
L 315.732083 90.905023 
L 315.829009 89.659968 
L 315.9241 89.659968 
L 315.9241 89.244949 
L 316.107893 89.244949 
L 316.179919 88.414913 
L 316.353346 88.414913 
L 316.411389 86.75484 
L 317.033928 86.75484 
L 317.033928 86.339821 
L 317.163579 86.339821 
L 317.230505 85.509785 
L 317.333745 85.509785 
L 317.333745 85.094767 
L 317.456725 85.094767 
L 317.47918 84.26473 
L 318.085935 84.26473 
L 318.152862 83.434694 
L 318.208915 83.434694 
L 318.275841 82.604657 
L 318.484453 82.604657 
L 318.56774 81.77462 
L 319.055408 81.77462 
L 319.116397 80.944584 
L 319.198721 80.944584 
L 319.293811 79.699529 
L 319.427759 79.699529 
L 319.427759 79.284511 
L 319.54963 79.284511 
L 319.596324 78.454474 
L 319.687352 78.454474 
L 319.687352 78.039456 
L 319.857238 78.039456 
L 319.950911 77.209419 
L 320.017837 77.209419 
L 320.112928 75.549346 
L 320.228268 75.549346 
L 320.30182 74.71931 
L 320.350115 74.71931 
L 320.368746 73.889273 
L 320.473095 73.889273 
L 320.489182 73.059236 
L 320.744267 73.059236 
L 320.848892 72.2292 
L 320.954564 72.2292 
L 320.954564 71.814182 
L 321.346236 71.814182 
L 321.346236 71.399163 
L 321.601082 71.399163 
L 321.668008 70.569127 
L 321.97818 70.569127 
L 321.97818 70.154108 
L 322.21509 70.154108 
L 322.310181 69.324072 
L 322.566 69.324072 
L 322.566 68.909054 
L 323.626628 68.909054 
L 323.626628 68.494035 
L 323.865261 68.494035 
L 323.865261 68.079017 
L 324.324275 68.079017 
L 324.324275 67.663999 
L 324.548984 67.663999 
L 324.548984 67.24898 
L 324.671964 67.24898 
L 324.671964 66.833962 
L 325.076465 66.833962 
L 325.143392 66.003926 
L 326.413959 66.003926 
L 326.50905 65.173889 
L 326.764869 65.173889 
L 326.764869 64.758871 
L 327.340645 64.758871 
L 327.340645 64.343852 
L 328.06413 64.343852 
L 328.06413 63.928834 
L 330.871825 63.928834 
L 330.871825 63.513816 
L 331.539514 63.513816 
L 331.539514 63.098798 
L 331.98611 63.098798 
L 331.99276 62.268761 
L 332.125046 62.268761 
L 332.125046 61.853743 
L 332.76713 61.853743 
L 332.76713 61.438724 
L 333.42689 61.438724 
L 333.42689 61.023706 
L 335.50936 61.023706 
L 335.592647 60.19367 
L 336.080314 60.19367 
L 336.080314 59.778651 
L 336.621231 59.778651 
L 336.621231 59.363633 
L 336.882145 59.363633 
L 336.882145 58.948615 
L 337.137229 58.948615 
L 337.137229 58.533596 
L 338.371143 58.533596 
L 338.371143 58.118578 
L 453.192 58.118578 
L 453.192 58.118578 
" clip-path="url(#p79eb78c2d9)" style="fill: none; stroke: #00bfbf; stroke-width: 3; stroke-linecap: square"/>
   </g>
   <g id="line2d_56">
    <path clip-path="url(#p79eb78c2d9)" style="fill: none; stroke: #00bfbf; stroke-width: 3; stroke-linecap: square"/>
   </g>
   <g id="line2d_57">
    <path d="M 34.16 263.331285 
L 137.823719 263.331285 
L 137.823719 262.912578 
L 158.200002 262.912578 
L 158.281146 262.075163 
L 169.28314 262.075163 
L 169.28314 261.656456 
L 170.103268 261.656456 
L 170.103268 261.237749 
L 172.638618 261.237749 
L 172.638618 260.819041 
L 173.362561 260.819041 
L 173.362561 260.400334 
L 197.023738 260.400334 
L 197.023738 259.981627 
L 203.487733 259.981627 
L 203.487733 259.562919 
L 203.739744 259.562919 
L 203.739744 259.144212 
L 204.821482 259.144212 
L 204.821482 258.725505 
L 205.521553 258.725505 
L 205.521553 258.306797 
L 206.158029 258.306797 
L 206.158029 257.88809 
L 206.368562 257.88809 
L 206.368562 257.469383 
L 206.617013 257.469383 
L 206.617013 257.050675 
L 209.965067 257.050675 
L 209.965067 256.631968 
L 210.902871 256.631968 
L 210.902871 256.213261 
L 211.829261 256.213261 
L 211.829261 255.794553 
L 212.624194 255.794553 
L 212.624194 255.375846 
L 217.40002 255.375846 
L 217.481165 254.538431 
L 224.769362 254.538431 
L 224.769362 254.119724 
L 228.002532 254.119724 
L 228.002532 253.701017 
L 228.483158 253.701017 
L 228.483158 253.282309 
L 228.815151 253.282309 
L 228.815151 252.863602 
L 229.178507 252.863602 
L 229.178507 252.444895 
L 229.303287 252.444895 
L 229.303287 252.026187 
L 230.083656 252.026187 
L 230.083656 251.60748 
L 230.315041 251.60748 
L 230.377548 250.770065 
L 230.80202 250.770065 
L 230.80202 250.351358 
L 231.031536 250.351358 
L 231.031536 249.932651 
L 231.313469 249.932651 
L 231.313469 249.513943 
L 231.572054 249.513943 
L 231.572054 249.095236 
L 231.838636 249.095236 
L 231.883101 248.257821 
L 232.118345 248.257821 
L 232.227678 247.420407 
L 232.333602 247.420407 
L 232.333602 247.001699 
L 232.484138 247.001699 
L 232.591614 245.32687 
L 232.969651 245.32687 
L 232.969651 244.908163 
L 233.154069 244.908163 
L 233.154069 244.489455 
L 233.277659 244.489455 
L 233.317612 243.652041 
L 233.610733 243.652041 
L 233.610733 243.233333 
L 233.787307 243.233333 
L 233.896041 242.395919 
L 233.949002 242.395919 
L 233.949002 241.977211 
L 234.241878 241.977211 
L 234.244002 241.139797 
L 234.537124 241.139797 
L 234.537124 240.721089 
L 234.690974 240.721089 
L 234.728545 239.464967 
L 234.882991 239.464967 
L 234.882991 239.04626 
L 235.038935 239.04626 
L 235.038935 238.627553 
L 235.168269 238.627553 
L 235.168269 238.208845 
L 235.332057 238.208845 
L 235.332057 237.790138 
L 235.50863 237.790138 
L 235.50863 237.371431 
L 235.654935 237.371431 
L 235.654935 236.952723 
L 235.795074 236.952723 
L 235.795074 236.534016 
L 235.963202 236.534016 
L 235.963202 236.115309 
L 236.449868 236.115309 
L 236.449868 235.696601 
L 239.991659 235.696601 
L 239.991659 235.277894 
L 241.460679 235.277894 
L 241.460679 234.859187 
L 244.771615 234.859187 
L 244.771615 234.440479 
L 245.025395 234.440479 
L 245.025395 234.021772 
L 245.145645 234.021772 
L 245.226789 233.184357 
L 248.366277 233.184357 
L 248.366277 232.76565 
L 248.785105 232.76565 
L 248.790608 231.928235 
L 249.191434 231.928235 
L 249.272579 231.090821 
L 250.459938 231.090821 
L 250.541083 230.253406 
L 250.691324 230.253406 
L 250.772468 229.415991 
L 250.872355 229.415991 
L 250.872355 228.997284 
L 251.702355 228.997284 
L 251.702355 228.578577 
L 252.126827 228.578577 
L 252.126827 228.159869 
L 252.356343 228.159869 
L 252.444328 227.322455 
L 252.792289 227.322455 
L 252.8688 226.48504 
L 253.08541 226.48504 
L 253.098316 225.647625 
L 253.207909 225.647625 
L 253.261984 224.391503 
L 253.443153 224.391503 
L 253.509882 223.135381 
L 253.65841 223.135381 
L 253.739398 221.460552 
L 253.915972 221.460552 
L 253.949881 220.20443 
L 254.141027 220.20443 
L 254.203222 218.948308 
L 254.297842 218.948308 
L 254.400382 217.692186 
L 254.533087 217.692186 
L 254.627694 216.017357 
L 254.658394 216.017357 
L 254.767537 214.761235 
L 254.826208 214.761235 
L 254.876551 213.505113 
L 255.002782 213.505113 
L 255.041464 212.248991 
L 255.218038 212.248991 
L 255.299476 210.992869 
L 255.344439 210.992869 
L 255.344439 210.574161 
L 255.457353 210.574161 
L 255.47605 209.736747 
L 255.67261 209.736747 
L 255.708775 208.480625 
L 255.930621 208.480625 
L 255.985521 207.224503 
L 256.159276 207.224503 
L 256.228783 205.968381 
L 256.417288 205.968381 
L 256.417288 205.549673 
L 256.616666 205.549673 
L 256.616666 205.130966 
L 256.885559 205.130966 
L 256.885559 204.712259 
L 257.048911 204.712259 
L 257.103333 203.874844 
L 257.868763 203.874844 
L 257.868763 203.456137 
L 258.022098 203.456137 
L 258.022098 203.037429 
L 258.505003 203.037429 
L 258.505003 202.618722 
L 259.003364 202.618722 
L 259.046794 200.943893 
L 259.198073 200.943893 
L 259.198073 200.525185 
L 259.441511 200.525185 
L 259.441511 200.106478 
L 259.584261 200.106478 
L 259.680978 199.269063 
L 259.929754 199.269063 
L 259.929754 198.850356 
L 260.196496 198.850356 
L 260.274572 197.175527 
L 260.308204 197.175527 
L 260.308204 196.756819 
L 260.558876 196.756819 
L 260.617485 195.919405 
L 260.724687 195.919405 
L 260.724687 195.500697 
L 261.073594 195.500697 
L 261.0947 194.663282 
L 261.316466 194.663282 
L 261.316466 194.244575 
L 261.438285 194.244575 
L 261.543076 193.40716 
L 261.59162 193.40716 
L 261.59162 192.988453 
L 261.734851 192.988453 
L 261.774462 192.151038 
L 261.961737 192.151038 
L 262.058439 190.894916 
L 262.074525 190.894916 
L 262.16911 189.220087 
L 262.350369 189.220087 
L 262.4064 187.963965 
L 262.503704 187.963965 
L 262.601683 186.707843 
L 262.616316 186.707843 
L 262.699521 185.451721 
L 262.876095 185.451721 
L 262.986609 184.195599 
L 263.011032 184.195599 
L 263.011032 183.776892 
L 263.137712 183.776892 
L 263.149106 182.939477 
L 263.302817 182.939477 
L 263.345084 181.264648 
L 263.513766 181.264648 
L 263.528399 180.427233 
L 263.63005 180.427233 
L 263.63005 180.008526 
L 263.817333 180.008526 
L 263.923116 179.171111 
L 264.021501 179.171111 
L 264.128398 178.333696 
L 264.170074 178.333696 
L 264.236261 177.496282 
L 264.353994 177.496282 
L 264.38453 176.658867 
L 264.721571 176.658867 
L 264.721571 176.24016 
L 264.898554 176.24016 
L 264.898554 175.821452 
L 265.040482 175.821452 
L 265.12994 174.56533 
L 265.358047 174.56533 
L 265.412235 173.309208 
L 265.482823 173.309208 
L 265.568581 171.634379 
L 265.622498 171.634379 
L 265.709568 170.378257 
L 265.738632 170.378257 
L 265.817032 169.122135 
L 265.853883 169.122135 
L 265.891397 168.28472 
L 266.443343 168.28472 
L 266.454737 167.447306 
L 266.608448 167.447306 
L 266.650715 166.191184 
L 267.805783 166.191184 
L 267.805783 165.772476 
L 268.717866 165.772476 
L 268.823704 164.516354 
L 269.107787 164.516354 
L 269.16689 162.841525 
L 269.242532 162.841525 
L 269.248035 162.00411 
L 271.248637 162.00411 
L 271.329782 160.747988 
L 271.480245 160.747988 
L 271.480245 160.329281 
L 271.96315 160.329281 
L 271.96315 159.910574 
L 272.490308 159.910574 
L 272.50494 159.073159 
L 272.899657 159.073159 
L 272.899657 158.654452 
L 274.017023 158.654452 
L 274.017023 158.235744 
L 275.252833 158.235744 
L 275.333978 157.39833 
L 275.419884 157.39833 
L 275.431278 156.560915 
L 275.584989 156.560915 
L 275.627256 155.304793 
L 276.484816 155.304793 
L 276.484816 154.886086 
L 277.304944 154.886086 
L 277.385847 153.629964 
L 277.694407 153.629964 
L 277.694407 153.211256 
L 278.478041 153.211256 
L 278.478041 152.792549 
L 278.902513 152.792549 
L 278.902513 152.373842 
L 279.132029 152.373842 
L 279.132029 151.955134 
L 279.825697 151.955134 
L 279.840294 151.11772 
L 279.983594 151.11772 
L 279.983594 150.699012 
L 280.218838 150.699012 
L 280.250028 149.44289 
L 280.434095 149.44289 
L 280.434095 149.024183 
L 280.564238 149.024183 
L 280.645826 148.186768 
L 280.678314 148.186768 
L 280.696783 146.930646 
L 281.064654 146.930646 
L 281.070157 146.093232 
L 281.378152 146.093232 
L 281.378152 145.674524 
L 281.941759 145.674524 
L 281.941759 145.255817 
L 282.157544 145.255817 
L 282.157544 144.83711 
L 282.331775 144.83711 
L 282.331775 144.418402 
L 283.151903 144.418402 
L 283.181175 143.580988 
L 283.600003 143.580988 
L 283.644751 142.324866 
L 283.905119 142.324866 
L 283.905119 141.906158 
L 284.069223 141.906158 
L 284.069223 141.487451 
L 284.298739 141.487451 
L 284.32945 140.231329 
L 285.150304 140.231329 
L 285.252696 139.393914 
L 285.385549 139.393914 
L 285.468481 138.5565 
L 285.600805 138.5565 
L 285.687253 137.719085 
L 285.858817 137.719085 
L 285.858817 137.300378 
L 286.335971 137.300378 
L 286.411197 136.462963 
L 286.544862 136.462963 
L 286.544862 136.044256 
L 286.75179 136.044256 
L 286.75179 135.625548 
L 286.905126 135.625548 
L 286.905126 135.206841 
L 287.1561 135.206841 
L 287.1561 134.788134 
L 287.388031 134.788134 
L 287.388031 134.369426 
L 287.915188 134.369426 
L 287.929821 133.532012 
L 288.092152 133.532012 
L 288.092152 133.113304 
L 288.324538 133.113304 
L 288.324538 132.694597 
L 289.441904 132.694597 
L 289.441904 132.27589 
L 289.691449 132.27589 
L 289.691449 131.857182 
L 290.415393 131.857182 
L 290.433376 131.019768 
L 290.685387 131.019768 
L 290.685387 130.60106 
L 290.844764 130.60106 
L 290.939825 129.344938 
L 291.00987 129.344938 
L 291.09316 127.670109 
L 291.576065 127.670109 
L 291.576065 127.251402 
L 291.767125 127.251402 
L 291.767125 126.832694 
L 292.103222 126.832694 
L 292.117855 125.99528 
L 292.467196 125.99528 
L 292.512572 125.157865 
L 293.103671 125.157865 
L 293.119288 124.32045 
L 293.258862 124.32045 
L 293.314205 123.483036 
L 293.562656 123.483036 
L 293.629938 122.645621 
L 294.479165 122.645621 
L 294.479165 122.226914 
L 294.731176 122.226914 
L 294.731176 121.808206 
L 295.032799 121.808206 
L 295.044193 120.970792 
L 295.197904 120.970792 
L 295.240171 119.71467 
L 295.663081 119.71467 
L 295.74767 118.877255 
L 295.812914 118.877255 
L 295.816417 118.03984 
L 295.979055 118.03984 
L 295.99968 117.202426 
L 296.231066 117.202426 
L 296.299322 116.365011 
L 296.512985 116.365011 
L 296.512985 115.946304 
L 296.826479 115.946304 
L 296.91071 114.690182 
L 297.081419 114.690182 
L 297.149461 113.852767 
L 297.235829 113.852767 
L 297.312804 112.596645 
L 297.359994 112.596645 
L 297.359994 112.177938 
L 297.608446 112.177938 
L 297.608446 111.75923 
L 297.781489 111.75923 
L 297.781489 111.340523 
L 298.012875 111.340523 
L 298.012875 110.921816 
L 298.353195 110.921816 
L 298.417965 110.084401 
L 298.628499 110.084401 
L 298.64935 109.246986 
L 298.859884 109.246986 
L 298.87695 108.409572 
L 299.108335 108.409572 
L 299.108335 107.990864 
L 299.756056 107.990864 
L 299.76745 107.15345 
L 299.921161 107.15345 
L 299.963428 105.897328 
L 300.956499 105.897328 
L 300.956499 105.47862 
L 302.030579 105.47862 
L 302.030579 105.059913 
L 302.225003 105.059913 
L 302.225003 104.641206 
L 302.456388 104.641206 
L 302.456388 104.222498 
L 307.233609 104.222498 
L 307.252078 103.385084 
L 307.386944 103.385084 
L 307.405413 102.547669 
L 307.869849 102.547669 
L 307.888318 101.710254 
L 308.397006 101.710254 
L 308.430108 100.035425 
L 308.806356 100.035425 
L 308.824825 99.19801 
L 309.923722 99.19801 
L 309.942191 98.360595 
L 310.689409 98.360595 
L 310.689409 97.941888 
L 310.94142 97.941888 
L 310.94142 97.523181 
L 311.326583 97.523181 
L 311.356446 95.848351 
L 311.491688 95.848351 
L 311.552424 93.336107 
L 311.80799 93.336107 
L 311.80799 92.9174 
L 311.961325 92.9174 
L 312.023775 91.661278 
L 312.17711 91.661278 
L 312.17711 91.242571 
L 312.44423 91.242571 
L 312.44423 90.823863 
L 312.660016 90.823863 
L 312.723229 89.986449 
L 312.971388 89.986449 
L 312.986021 89.149034 
L 313.187173 89.149034 
L 313.201806 88.311619 
L 313.359705 88.311619 
L 313.380738 87.474205 
L 313.570238 87.474205 
L 313.619575 85.799375 
L 313.81869 85.799375 
L 313.81869 85.380668 
L 314.030291 85.380668 
L 314.030291 84.961961 
L 314.282302 84.961961 
L 314.282302 84.543253 
L 314.449119 84.543253 
L 314.498103 83.287131 
L 314.70113 83.287131 
L 314.713888 82.031009 
L 315.36404 82.031009 
L 315.36404 81.612302 
L 315.782868 81.612302 
L 315.788371 80.774887 
L 315.900964 80.774887 
L 315.912359 79.937473 
L 316.064111 79.937473 
L 316.128144 77.425229 
L 316.281855 77.425229 
L 316.324122 76.169107 
L 316.482939 76.169107 
L 316.536369 74.912985 
L 316.700586 74.912985 
L 316.788379 74.07557 
L 316.91112 74.07557 
L 316.91112 73.656863 
L 317.119414 73.656863 
L 317.166743 71.982033 
L 317.329948 71.982033 
L 317.335451 71.144619 
L 317.578399 71.144619 
L 317.583902 70.307204 
L 317.870118 70.307204 
L 317.870118 69.888497 
L 318.175488 69.888497 
L 318.175488 69.469789 
L 318.391273 69.469789 
L 318.391273 69.051082 
L 318.570188 69.051082 
L 318.570188 68.632375 
L 319.206664 68.632375 
L 319.206664 68.213667 
L 319.417197 68.213667 
L 319.417197 67.79496 
L 319.665649 67.79496 
L 319.665649 67.376253 
L 320.507624 67.376253 
L 320.540565 66.538838 
L 320.792576 66.538838 
L 320.792576 66.120131 
L 320.926452 66.120131 
L 320.931955 65.282716 
L 321.874314 65.282716 
L 321.874314 64.864009 
L 322.574384 64.864009 
L 322.574384 64.445301 
L 323.013702 64.445301 
L 323.013702 64.026594 
L 323.21086 64.026594 
L 323.21086 63.607887 
L 323.421394 63.607887 
L 323.421394 63.189179 
L 323.669845 63.189179 
L 323.669845 62.770472 
L 327.017898 62.770472 
L 327.017898 62.351765 
L 453.192 62.351765 
L 453.192 62.351765 
" clip-path="url(#p79eb78c2d9)" style="fill: none; stroke: #bf00bf; stroke-width: 3; stroke-linecap: square"/>
   </g>
   <g id="line2d_58">
    <path clip-path="url(#p79eb78c2d9)" style="fill: none; stroke: #bf00bf; stroke-width: 3; stroke-linecap: square"/>
   </g>
   <g id="line2d_59">
    <path d="M 34.16 258.172213 
L 160.541188 258.172213 
L 160.541188 257.751636 
L 181.931577 257.751636 
L 181.931577 257.33106 
L 182.513413 257.33106 
L 182.513413 256.910483 
L 192.345153 256.910483 
L 192.345153 256.489907 
L 192.645427 256.489907 
L 192.645427 256.06933 
L 194.599738 256.06933 
L 194.599738 255.648754 
L 194.961872 255.648754 
L 194.961872 255.228177 
L 201.057082 255.228177 
L 201.057082 254.8076 
L 222.447471 254.8076 
L 222.447471 254.387024 
L 223.029307 254.387024 
L 223.029307 253.966447 
L 223.976415 253.966447 
L 223.976415 253.545871 
L 224.959401 253.545871 
L 224.959401 253.125294 
L 225.508826 253.125294 
L 225.508826 252.704718 
L 225.982568 252.704718 
L 225.982568 252.284141 
L 226.222678 252.284141 
L 226.222678 251.863564 
L 226.773426 251.863564 
L 226.78153 251.022411 
L 227.871597 251.022411 
L 227.871597 250.601835 
L 229.192495 250.601835 
L 229.192495 250.181258 
L 229.325171 250.181258 
L 229.325171 249.760682 
L 230.588579 249.760682 
L 230.588579 249.340105 
L 230.81058 249.340105 
L 230.81058 248.919528 
L 231.050506 248.919528 
L 231.050506 248.498952 
L 231.727863 248.498952 
L 231.727863 248.078375 
L 232.329237 248.078375 
L 232.329237 247.657799 
L 232.861047 247.657799 
L 232.904024 246.816646 
L 233.025368 246.816646 
L 233.108538 245.554916 
L 233.161321 245.554916 
L 233.161321 245.134339 
L 233.490802 245.134339 
L 233.540706 244.293186 
L 233.709913 244.293186 
L 233.728972 243.452033 
L 234.180608 243.452033 
L 234.2847 242.190303 
L 234.330346 242.190303 
L 234.406044 241.34915 
L 234.546378 241.34915 
L 234.576165 240.507997 
L 234.871477 240.507997 
L 234.921382 239.246268 
L 235.026477 239.246268 
L 235.115632 238.405114 
L 235.477766 238.405114 
L 235.561283 236.722808 
L 236.181717 236.722808 
L 236.255314 235.881655 
L 237.704762 235.881655 
L 237.734549 235.040502 
L 242.493806 235.040502 
L 242.493806 234.619925 
L 244.461022 234.619925 
L 244.461022 234.199349 
L 245.65219 234.199349 
L 245.65219 233.778772 
L 247.372956 233.778772 
L 247.372956 233.358196 
L 247.631375 233.358196 
L 247.631375 232.937619 
L 247.954793 232.937619 
L 247.964889 232.096466 
L 248.379851 232.096466 
L 248.379851 231.675889 
L 249.350014 231.675889 
L 249.350014 231.255313 
L 250.582883 231.255313 
L 250.582883 230.834736 
L 250.806877 230.834736 
L 250.806877 230.41416 
L 251.16472 230.41416 
L 251.16472 229.993583 
L 251.408252 229.993583 
L 251.408252 229.573007 
L 251.596678 229.573007 
L 251.596678 229.15243 
L 251.978967 229.15243 
L 252.056587 227.8907 
L 252.104383 227.8907 
L 252.200969 226.628971 
L 252.560804 226.628971 
L 252.657962 224.526088 
L 252.768929 224.526088 
L 252.782805 223.264358 
L 252.894183 223.264358 
L 252.977526 222.423205 
L 253.114708 222.423205 
L 253.114708 222.002628 
L 253.232748 222.002628 
L 253.259622 220.740899 
L 253.354093 220.740899 
L 253.409521 219.058592 
L 253.5789 219.058592 
L 253.619155 218.217439 
L 253.716083 218.217439 
L 253.819526 216.535133 
L 253.869431 216.535133 
L 253.94509 215.273403 
L 254.049423 215.273403 
L 254.153687 214.011674 
L 254.275031 214.011674 
L 254.327363 212.749944 
L 254.400876 212.749944 
L 254.509332 211.067638 
L 254.531868 211.067638 
L 254.581772 210.226485 
L 254.740465 210.226485 
L 254.790369 209.385331 
L 254.877647 209.385331 
L 254.927552 208.123602 
L 255.023494 208.123602 
L 255.090682 207.282449 
L 255.221674 207.282449 
L 255.221674 206.861872 
L 255.430271 206.861872 
L 255.538832 205.600142 
L 255.567454 205.600142 
L 255.567454 205.179566 
L 256.178733 205.179566 
L 256.178733 204.758989 
L 257.674909 204.758989 
L 257.674909 204.338413 
L 257.786532 204.338413 
L 257.786532 203.917836 
L 258.086806 203.917836 
L 258.164234 203.076683 
L 259.54491 203.076683 
L 259.54491 202.656106 
L 259.922532 202.656106 
L 260.018188 201.394377 
L 260.041117 201.394377 
L 260.140949 200.553224 
L 260.165344 200.553224 
L 260.165344 200.132647 
L 260.403251 200.132647 
L 260.449239 199.291494 
L 260.619563 199.291494 
L 260.619563 198.870917 
L 260.833292 198.870917 
L 260.885436 197.609188 
L 260.996459 197.609188 
L 260.996459 197.188611 
L 261.19435 197.188611 
L 261.296733 196.347458 
L 261.315694 196.347458 
L 261.372208 195.506305 
L 261.781127 195.506305 
L 261.831032 194.665152 
L 261.968956 194.665152 
L 262.042948 193.823999 
L 262.187373 193.823999 
L 262.187373 193.403422 
L 262.392544 193.403422 
L 262.470933 192.141692 
L 262.614545 192.141692 
L 262.692817 191.300539 
L 262.914819 191.300539 
L 262.93186 190.03881 
L 263.251044 190.03881 
L 263.323323 189.197656 
L 263.418404 189.197656 
L 263.522183 186.25362 
L 263.607623 186.25362 
L 263.666608 184.571314 
L 263.861674 184.571314 
L 263.972114 183.309585 
L 264.378602 183.309585 
L 264.448107 181.206702 
L 264.492309 181.206702 
L 264.492309 180.786125 
L 264.647128 180.786125 
L 264.703998 179.944972 
L 264.86808 179.944972 
L 264.897868 178.683242 
L 265.009263 178.683242 
L 265.009263 178.262666 
L 265.231264 178.262666 
L 265.324432 177.000936 
L 265.475295 177.000936 
L 265.530878 175.739206 
L 265.851411 175.739206 
L 265.944633 173.636324 
L 266.018539 173.636324 
L 266.02472 172.79517 
L 266.433247 172.79517 
L 266.479042 171.954017 
L 266.738571 171.954017 
L 266.738571 171.533441 
L 266.94201 171.533441 
L 267.010113 169.851134 
L 267.28932 169.851134 
L 267.394081 167.327675 
L 267.423868 167.327675 
L 267.497774 166.065945 
L 268.387491 166.065945 
L 268.387491 165.645369 
L 268.741055 165.645369 
L 268.770842 164.804216 
L 269.021763 164.804216 
L 269.021763 164.383639 
L 269.355277 164.383639 
L 269.355277 163.963063 
L 269.6036 163.963063 
L 269.637426 163.121909 
L 269.77024 163.121909 
L 269.841064 162.280756 
L 269.937114 162.280756 
L 269.937114 161.86018 
L 270.352076 161.86018 
L 270.352076 161.439603 
L 270.740403 161.439603 
L 270.740403 161.019027 
L 271.322239 161.019027 
L 271.365832 160.177873 
L 271.439824 160.177873 
L 271.439824 159.757297 
L 271.58425 159.757297 
L 271.58425 159.33672 
L 272.32603 159.33672 
L 272.328736 158.495567 
L 272.815509 158.495567 
L 272.815509 158.074991 
L 273.844984 158.074991 
L 273.844984 157.654414 
L 274.889438 157.654414 
L 274.927755 156.813261 
L 275.009544 156.813261 
L 275.009544 156.392684 
L 275.304975 156.392684 
L 275.415415 155.130955 
L 275.59138 155.130955 
L 275.59138 154.710378 
L 276.264987 154.710378 
L 276.264987 154.289802 
L 276.565261 154.289802 
L 276.565261 153.869225 
L 276.688483 153.869225 
L 276.688483 153.448648 
L 277.036619 153.448648 
L 277.036619 153.028072 
L 277.243249 153.028072 
L 277.25828 152.186919 
L 278.033049 152.186919 
L 278.033049 151.766342 
L 278.492959 151.766342 
L 278.519572 150.925189 
L 278.881706 150.925189 
L 278.881706 150.504613 
L 279.074309 150.504613 
L 279.074309 150.084036 
L 279.2053 150.084036 
L 279.2053 149.663459 
L 279.413898 149.663459 
L 279.523755 148.40173 
L 279.55108 148.40173 
L 279.55108 147.981153 
L 279.735613 147.981153 
L 279.768853 147.14 
L 280.069127 147.14 
L 280.16236 146.298847 
L 280.183816 146.298847 
L 280.195003 145.457694 
L 280.416664 145.457694 
L 280.484089 144.616541 
L 281.006201 144.616541 
L 281.006201 144.195964 
L 281.153979 144.195964 
L 281.153979 143.775387 
L 281.454253 143.775387 
L 281.454253 143.354811 
L 281.689924 143.354811 
L 281.689924 142.934234 
L 282.023438 142.934234 
L 282.052059 142.093081 
L 282.385572 142.093081 
L 282.438401 140.831352 
L 282.682139 140.831352 
L 282.682139 140.410775 
L 282.800535 140.410775 
L 282.800535 139.990198 
L 283.192138 139.990198 
L 283.192138 139.569622 
L 283.408564 139.569622 
L 283.408564 139.149045 
L 283.652047 139.149045 
L 283.652047 138.728469 
L 283.770698 138.728469 
L 283.770698 138.307892 
L 284.164585 138.307892 
L 284.233397 137.466739 
L 284.364389 137.466739 
L 284.364389 137.046162 
L 284.572986 137.046162 
L 284.572986 136.625586 
L 284.710169 136.625586 
L 284.710169 136.205009 
L 285.321448 136.205009 
L 285.42312 135.363856 
L 285.723394 135.363856 
L 285.723394 134.94328 
L 286.45456 134.94328 
L 286.546934 134.102127 
L 286.620927 134.102127 
L 286.620927 133.68155 
L 286.765352 133.68155 
L 286.765352 133.260973 
L 287.507132 133.260973 
L 287.509838 132.41982 
L 287.677705 132.41982 
L 287.677705 131.999244 
L 287.996611 131.999244 
L 288.039839 131.158091 
L 289.026086 131.158091 
L 289.026086 130.737514 
L 289.321265 130.737514 
L 289.417794 129.475784 
L 289.539683 129.475784 
L 289.539683 129.055208 
L 290.07054 129.055208 
L 290.108857 128.214055 
L 290.281463 128.214055 
L 290.284169 127.372901 
L 290.40078 127.372901 
L 290.486077 126.531748 
L 290.522612 126.531748 
L 290.596517 125.690595 
L 290.770942 125.690595 
L 290.770942 125.270019 
L 290.950205 125.270019 
L 290.950205 124.849442 
L 291.613648 124.849442 
L 291.664057 124.008289 
L 291.800417 124.008289 
L 291.869586 123.167136 
L 292.214805 123.167136 
L 292.222909 122.325983 
L 292.627721 122.325983 
L 292.627721 121.905406 
L 292.844871 121.905406 
L 292.883188 121.064253 
L 293.260408 121.064253 
L 293.370848 119.381947 
L 293.610707 119.381947 
L 293.610707 118.96137 
L 294.023806 118.96137 
L 294.023806 118.540794 
L 294.160132 118.540794 
L 294.245807 117.699641 
L 294.643916 117.699641 
L 294.643916 117.279064 
L 294.76655 117.279064 
L 294.873984 116.437911 
L 295.006791 116.437911 
L 295.006791 116.017334 
L 295.228793 116.017334 
L 295.228793 115.596758 
L 295.351068 115.596758 
L 295.432836 113.914451 
L 295.556216 113.914451 
L 295.569485 113.073298 
L 295.778218 113.073298 
L 295.778218 112.652722 
L 296.270068 112.652722 
L 296.313972 111.390992 
L 296.49207 111.390992 
L 296.522903 110.549839 
L 296.800745 110.549839 
L 296.82892 109.288109 
L 297.042818 109.288109 
L 297.050922 108.446956 
L 297.830219 108.446956 
L 297.918987 107.605803 
L 297.976477 107.605803 
L 297.976477 107.185226 
L 298.140989 107.185226 
L 298.140989 106.76465 
L 298.874674 106.76465 
L 298.91299 105.923497 
L 299.29021 105.923497 
L 299.400651 104.24119 
L 299.594563 104.24119 
L 299.594563 103.820614 
L 300.673719 103.820614 
L 300.673719 103.400037 
L 305.908645 103.400037 
L 305.982637 102.558884 
L 306.127062 102.558884 
L 306.204298 101.297155 
L 306.348723 101.297155 
L 306.348723 100.876578 
L 306.868843 100.876578 
L 306.871549 100.035425 
L 307.090504 100.035425 
L 307.09321 99.194272 
L 307.358321 99.194272 
L 307.358321 98.773695 
L 307.579982 98.773695 
L 307.579982 98.353119 
L 307.896249 98.353119 
L 307.896249 97.932542 
L 308.387796 97.932542 
L 308.469773 96.670812 
L 308.609457 96.670812 
L 308.614199 95.829659 
L 308.879235 95.829659 
L 308.879235 95.409083 
L 309.355979 95.409083 
L 309.432251 93.726776 
L 309.470567 93.726776 
L 309.470567 93.3062 
L 309.653912 93.3062 
L 309.692228 92.465047 
L 309.845458 92.465047 
L 309.952219 90.362164 
L 309.958228 90.362164 
L 309.958228 89.941587 
L 310.069448 89.941587 
L 310.179889 87.838704 
L 310.69326 87.838704 
L 310.701363 86.997551 
L 310.838425 86.997551 
L 310.874932 85.735822 
L 311.066602 85.735822 
L 311.066602 85.315245 
L 311.231296 85.315245 
L 311.327904 84.474092 
L 311.400115 84.474092 
L 311.452957 83.632939 
L 311.791431 83.632939 
L 311.815078 82.791786 
L 311.919387 82.791786 
L 311.957703 81.950633 
L 312.049587 81.950633 
L 312.049587 81.530056 
L 312.334923 81.530056 
L 312.445364 79.427173 
L 312.599012 79.427173 
L 312.599012 79.006597 
L 312.785241 79.006597 
L 312.798063 78.165444 
L 312.932526 78.165444 
L 312.932526 77.744867 
L 313.245004 77.744867 
L 313.347488 76.483137 
L 313.401833 76.483137 
L 313.440149 75.641984 
L 313.646378 75.641984 
L 313.718432 74.800831 
L 313.768227 74.800831 
L 313.871716 72.697948 
L 313.92781 72.697948 
L 313.92781 72.277372 
L 314.06134 72.277372 
L 314.06134 71.856795 
L 314.197126 71.856795 
L 314.20523 71.015642 
L 314.317652 71.015642 
L 314.317652 70.595065 
L 314.612088 70.595065 
L 314.620192 69.753912 
L 314.961783 69.753912 
L 315.031503 68.912759 
L 315.200878 68.912759 
L 315.295297 68.071606 
L 315.582252 68.071606 
L 315.590355 67.230453 
L 315.710259 67.230453 
L 315.710259 66.809876 
L 316.415357 66.809876 
L 316.415357 66.3893 
L 316.680423 66.3893 
L 316.748871 65.548147 
L 317.054382 65.548147 
L 317.163833 64.706993 
L 318.037368 64.706993 
L 318.133997 63.86584 
L 318.586793 63.86584 
L 318.586793 63.445264 
L 319.300644 63.445264 
L 319.300644 63.024687 
L 319.851393 63.024687 
L 319.859496 62.183534 
L 320.949564 62.183534 
L 320.949564 61.762958 
L 322.403137 61.762958 
L 322.403137 61.342381 
L 453.192 61.342381 
L 453.192 61.342381 
" clip-path="url(#p79eb78c2d9)" style="fill: none; stroke: #ff0000; stroke-width: 3; stroke-linecap: square"/>
   </g>
   <g id="line2d_60">
    <path clip-path="url(#p79eb78c2d9)" style="fill: none; stroke: #ff0000; stroke-width: 3; stroke-linecap: square"/>
   </g>
   <g id="line2d_61">
    <path d="M 243.676 291.28 
L 243.676 3 
" clip-path="url(#p79eb78c2d9)" style="fill: none; stroke: #000000; stroke-width: 1.5; stroke-linecap: square"/>
   </g>
   <g id="line2d_62">
    <path d="M 34.16 147.14 
L 453.192 147.14 
" clip-path="url(#p79eb78c2d9)" style="fill: none; stroke-dasharray: 2,3.3; stroke-dashoffset: 0; stroke: #000000; stroke-width: 2"/>
   </g>
   <g id="patch_3">
    <path d="M 34.16 291.28 
L 34.16 3 
" style="fill: none; stroke: #000000; stroke-width: 0.8; stroke-linejoin: miter; stroke-linecap: square"/>
   </g>
   <g id="patch_4">
    <path d="M 453.192 291.28 
L 453.192 3 
" style="fill: none; stroke: #000000; stroke-width: 0.8; stroke-linejoin: miter; stroke-linecap: square"/>
   </g>
   <g id="patch_5">
    <path d="M 34.16 291.28 
L 453.192 291.28 
" style="fill: none; stroke: #000000; stroke-width: 0.8; stroke-linejoin: miter; stroke-linecap: square"/>
   </g>
   <g id="patch_6">
    <path d="M 34.16 3 
L 453.192 3 
" style="fill: none; stroke: #000000; stroke-width: 0.8; stroke-linejoin: miter; stroke-linecap: square"/>
   </g>
   <g id="text_5">
    <!-- f15-f19,40-D -->
    <g transform="translate(318.19261 285.5144) scale(0.2 -0.2)">
     <defs>
      <path id="DejaVuSans-35" d="M 691 4666 
L 3169 4666 
L 3169 4134 
L 1269 4134 
L 1269 2991 
Q 1406 3038 1543 3061 
Q 1681 3084 1819 3084 
Q 2600 3084 3056 2656 
Q 3513 2228 3513 1497 
Q 3513 744 3044 326 
Q 2575 -91 1722 -91 
Q 1428 -91 1123 -41 
Q 819 9 494 109 
L 494 744 
Q 775 591 1075 516 
Q 1375 441 1709 441 
Q 2250 441 2565 725 
Q 2881 1009 2881 1497 
Q 2881 1984 2565 2268 
Q 2250 2553 1709 2553 
Q 1456 2553 1204 2497 
Q 953 2441 691 2322 
L 691 4666 
z
" transform="scale(0.015625)"/>
      <path id="DejaVuSans-39" d="M 703 97 
L 703 672 
Q 941 559 1184 500 
Q 1428 441 1663 441 
Q 2288 441 2617 861 
Q 2947 1281 2994 2138 
Q 2813 1869 2534 1725 
Q 2256 1581 1919 1581 
Q 1219 1581 811 2004 
Q 403 2428 403 3163 
Q 403 3881 828 4315 
Q 1253 4750 1959 4750 
Q 2769 4750 3195 4129 
Q 3622 3509 3622 2328 
Q 3622 1225 3098 567 
Q 2575 -91 1691 -91 
Q 1453 -91 1209 -44 
Q 966 3 703 97 
z
M 1959 2075 
Q 2384 2075 2632 2365 
Q 2881 2656 2881 3163 
Q 2881 3666 2632 3958 
Q 2384 4250 1959 4250 
Q 1534 4250 1286 3958 
Q 1038 3666 1038 3163 
Q 1038 2656 1286 2365 
Q 1534 2075 1959 2075 
z
" transform="scale(0.015625)"/>
      <path id="DejaVuSans-2c" d="M 750 794 
L 1409 794 
L 1409 256 
L 897 -744 
L 494 -744 
L 750 256 
L 750 794 
z
" transform="scale(0.015625)"/>
      <path id="DejaVuSans-34" d="M 2419 4116 
L 825 1625 
L 2419 1625 
L 2419 4116 
z
M 2253 4666 
L 3047 4666 
L 3047 1625 
L 3713 1625 
L 3713 1100 
L 3047 1100 
L 3047 0 
L 2419 0 
L 2419 1100 
L 313 1100 
L 313 1709 
L 2253 4666 
z
" transform="scale(0.015625)"/>
      <path id="DejaVuSans-44" d="M 1259 4147 
L 1259 519 
L 2022 519 
Q 2988 519 3436 956 
Q 3884 1394 3884 2338 
Q 3884 3275 3436 3711 
Q 2988 4147 2022 4147 
L 1259 4147 
z
M 628 4666 
L 1925 4666 
Q 3281 4666 3915 4102 
Q 4550 3538 4550 2338 
Q 4550 1131 3912 565 
Q 3275 0 1925 0 
L 628 0 
L 628 4666 
z
" transform="scale(0.015625)"/>
     </defs>
     <use xlink:href="#DejaVuSans-66"/>
     <use xlink:href="#DejaVuSans-31" x="35.205078"/>
     <use xlink:href="#DejaVuSans-35" x="98.828125"/>
     <use xlink:href="#DejaVuSans-2d" x="162.451172"/>
     <use xlink:href="#DejaVuSans-66" x="198.535156"/>
     <use xlink:href="#DejaVuSans-31" x="233.740234"/>
     <use xlink:href="#DejaVuSans-39" x="297.363281"/>
     <use xlink:href="#DejaVuSans-2c" x="360.986328"/>
     <use xlink:href="#DejaVuSans-34" x="392.773438"/>
     <use xlink:href="#DejaVuSans-30" x="456.396484"/>
     <use xlink:href="#DejaVuSans-2d" x="520.019531"/>
     <use xlink:href="#DejaVuSans-44" x="556.103516"/>
    </g>
   </g>
   <g id="text_6">
    <!-- v2.6.3 -->
    <g style="fill: #808080" transform="translate(227.99475 286.317512) scale(0.1 -0.1)">
     <defs>
      <path id="DejaVuSans-32" d="M 1228 531 
L 3431 531 
L 3431 0 
L 469 0 
L 469 531 
Q 828 903 1448 1529 
Q 2069 2156 2228 2338 
Q 2531 2678 2651 2914 
Q 2772 3150 2772 3378 
Q 2772 3750 2511 3984 
Q 2250 4219 1831 4219 
Q 1534 4219 1204 4116 
Q 875 4013 500 3803 
L 500 4441 
Q 881 4594 1212 4672 
Q 1544 4750 1819 4750 
Q 2544 4750 2975 4387 
Q 3406 4025 3406 3419 
Q 3406 3131 3298 2873 
Q 3191 2616 2906 2266 
Q 2828 2175 2409 1742 
Q 1991 1309 1228 531 
z
" transform="scale(0.015625)"/>
      <path id="DejaVuSans-2e" d="M 684 794 
L 1344 794 
L 1344 0 
L 684 0 
L 684 794 
z
" transform="scale(0.015625)"/>
      <path id="DejaVuSans-36" d="M 2113 2584 
Q 1688 2584 1439 2293 
Q 1191 2003 1191 1497 
Q 1191 994 1439 701 
Q 1688 409 2113 409 
Q 2538 409 2786 701 
Q 3034 994 3034 1497 
Q 3034 2003 2786 2293 
Q 2538 2584 2113 2584 
z
M 3366 4563 
L 3366 3988 
Q 3128 4100 2886 4159 
Q 2644 4219 2406 4219 
Q 1781 4219 1451 3797 
Q 1122 3375 1075 2522 
Q 1259 2794 1537 2939 
Q 1816 3084 2150 3084 
Q 2853 3084 3261 2657 
Q 3669 2231 3669 1497 
Q 3669 778 3244 343 
Q 2819 -91 2113 -91 
Q 1303 -91 875 529 
Q 447 1150 447 2328 
Q 447 3434 972 4092 
Q 1497 4750 2381 4750 
Q 2619 4750 2861 4703 
Q 3103 4656 3366 4563 
z
" transform="scale(0.015625)"/>
      <path id="DejaVuSans-33" d="M 2597 2516 
Q 3050 2419 3304 2112 
Q 3559 1806 3559 1356 
Q 3559 666 3084 287 
Q 2609 -91 1734 -91 
Q 1441 -91 1130 -33 
Q 819 25 488 141 
L 488 750 
Q 750 597 1062 519 
Q 1375 441 1716 441 
Q 2309 441 2620 675 
Q 2931 909 2931 1356 
Q 2931 1769 2642 2001 
Q 2353 2234 1838 2234 
L 1294 2234 
L 1294 2753 
L 1863 2753 
Q 2328 2753 2575 2939 
Q 2822 3125 2822 3475 
Q 2822 3834 2567 4026 
Q 2313 4219 1838 4219 
Q 1578 4219 1281 4162 
Q 984 4106 628 3988 
L 628 4550 
Q 988 4650 1302 4700 
Q 1616 4750 1894 4750 
Q 2613 4750 3031 4423 
Q 3450 4097 3450 3541 
Q 3450 3153 3228 2886 
Q 3006 2619 2597 2516 
z
" transform="scale(0.015625)"/>
     </defs>
     <use xlink:href="#DejaVuSans-76"/>
     <use xlink:href="#DejaVuSans-32" x="59.179688"/>
     <use xlink:href="#DejaVuSans-2e" x="122.802734"/>
     <use xlink:href="#DejaVuSans-36" x="154.589844"/>
     <use xlink:href="#DejaVuSans-2e" x="218.212891"/>
     <use xlink:href="#DejaVuSans-33" x="250"/>
    </g>
   </g>
   <g id="legend_1">
    <g id="patch_7">
     <path d="M 48.16 136.425 
L 177.381875 136.425 
Q 181.381875 136.425 181.381875 132.425 
L 181.381875 17 
Q 181.381875 13 177.381875 13 
L 48.16 13 
Q 44.16 13 44.16 17 
L 44.16 132.425 
Q 44.16 136.425 48.16 136.425 
z
" style="fill: #ffffff; opacity: 0.2; stroke: #cccccc; stroke-linejoin: miter"/>
    </g>
    <g id="line2d_63">
     <path d="M 52.16 29.196875 
L 72.16 29.196875 
L 92.16 29.196875 
" style="fill: none; stroke: #000000; stroke-width: 3; stroke-linecap: square"/>
    </g>
    <g id="text_7">
     <!-- 1: 4/5 -->
     <g transform="translate(108.16 36.196875) scale(0.2 -0.2)">
      <defs>
       <path id="DejaVuSans-3a" d="M 750 794 
L 1409 794 
L 1409 0 
L 750 0 
L 750 794 
z
M 750 3309 
L 1409 3309 
L 1409 2516 
L 750 2516 
L 750 3309 
z
" transform="scale(0.015625)"/>
       <path id="DejaVuSans-2f" d="M 1625 4666 
L 2156 4666 
L 531 -594 
L 0 -594 
L 1625 4666 
z
" transform="scale(0.015625)"/>
      </defs>
      <use xlink:href="#DejaVuSans-31"/>
      <use xlink:href="#DejaVuSans-3a" x="63.623047"/>
      <use xlink:href="#DejaVuSans-20" x="97.314453"/>
      <use xlink:href="#DejaVuSans-34" x="129.101562"/>
      <use xlink:href="#DejaVuSans-2f" x="192.724609"/>
      <use xlink:href="#DejaVuSans-35" x="226.416016"/>
     </g>
    </g>
    <g id="line2d_64">
     <path d="M 52.16 58.553125 
L 72.16 58.553125 
L 92.16 58.553125 
" style="fill: none; stroke: #00bfbf; stroke-width: 3; stroke-linecap: square"/>
    </g>
    <g id="text_8">
     <!-- -1: 3/4 -->
     <g transform="translate(108.16 65.553125) scale(0.2 -0.2)">
      <use xlink:href="#DejaVuSans-2d"/>
      <use xlink:href="#DejaVuSans-31" x="36.083984"/>
      <use xlink:href="#DejaVuSans-3a" x="99.707031"/>
      <use xlink:href="#DejaVuSans-20" x="133.398438"/>
      <use xlink:href="#DejaVuSans-33" x="165.185547"/>
      <use xlink:href="#DejaVuSans-2f" x="228.808594"/>
      <use xlink:href="#DejaVuSans-34" x="262.5"/>
     </g>
    </g>
    <g id="line2d_65">
     <path d="M 52.16 87.909375 
L 72.16 87.909375 
L 92.16 87.909375 
" style="fill: none; stroke: #bf00bf; stroke-width: 3; stroke-linecap: square"/>
    </g>
    <g id="text_9">
     <!-- -4: 3/4 -->
     <g transform="translate(108.16 94.909375) scale(0.2 -0.2)">
      <use xlink:href="#DejaVuSans-2d"/>
      <use xlink:href="#DejaVuSans-34" x="36.083984"/>
      <use xlink:href="#DejaVuSans-3a" x="99.707031"/>
      <use xlink:href="#DejaVuSans-20" x="133.398438"/>
      <use xlink:href="#DejaVuSans-33" x="165.185547"/>
      <use xlink:href="#DejaVuSans-2f" x="228.808594"/>
      <use xlink:href="#DejaVuSans-34" x="262.5"/>
     </g>
    </g>
    <g id="line2d_66">
     <path d="M 52.16 117.265625 
L 72.16 117.265625 
L 92.16 117.265625 
" style="fill: none; stroke: #ff0000; stroke-width: 3; stroke-linecap: square"/>
    </g>
    <g id="text_10">
     <!-- -8: 3/4 -->
     <g transform="translate(108.16 124.265625) scale(0.2 -0.2)">
      <defs>
       <path id="DejaVuSans-38" d="M 2034 2216 
Q 1584 2216 1326 1975 
Q 1069 1734 1069 1313 
Q 1069 891 1326 650 
Q 1584 409 2034 409 
Q 2484 409 2743 651 
Q 3003 894 3003 1313 
Q 3003 1734 2745 1975 
Q 2488 2216 2034 2216 
z
M 1403 2484 
Q 997 2584 770 2862 
Q 544 3141 544 3541 
Q 544 4100 942 4425 
Q 1341 4750 2034 4750 
Q 2731 4750 3128 4425 
Q 3525 4100 3525 3541 
Q 3525 3141 3298 2862 
Q 3072 2584 2669 2484 
Q 3125 2378 3379 2068 
Q 3634 1759 3634 1313 
Q 3634 634 3220 271 
Q 2806 -91 2034 -91 
Q 1263 -91 848 271 
Q 434 634 434 1313 
Q 434 1759 690 2068 
Q 947 2378 1403 2484 
z
M 1172 3481 
Q 1172 3119 1398 2916 
Q 1625 2713 2034 2713 
Q 2441 2713 2670 2916 
Q 2900 3119 2900 3481 
Q 2900 3844 2670 4047 
Q 2441 4250 2034 4250 
Q 1625 4250 1398 4047 
Q 1172 3844 1172 3481 
z
" transform="scale(0.015625)"/>
      </defs>
      <use xlink:href="#DejaVuSans-2d"/>
      <use xlink:href="#DejaVuSans-38" x="36.083984"/>
      <use xlink:href="#DejaVuSans-3a" x="99.707031"/>
      <use xlink:href="#DejaVuSans-20" x="133.398438"/>
      <use xlink:href="#DejaVuSans-33" x="165.185547"/>
      <use xlink:href="#DejaVuSans-2f" x="228.808594"/>
      <use xlink:href="#DejaVuSans-34" x="262.5"/>
     </g>
    </g>
   </g>
  </g>
 </g>
 <defs>
  <clipPath id="p79eb78c2d9">
   <rect x="34.16" y="3" width="419.032" height="288.28"/>
  </clipPath>
 </defs>
</svg>
