<?xml version="1.0" encoding="utf-8" standalone="no"?>
<!DOCTYPE svg PUBLIC "-//W3C//DTD SVG 1.1//EN"
  "http://www.w3.org/Graphics/SVG/1.1/DTD/svg11.dtd">
<svg xmlns:xlink="http://www.w3.org/1999/xlink" width="460.8pt" height="345.6pt" viewBox="0 0 460.8 345.6" xmlns="http://www.w3.org/2000/svg" version="1.1">
 <metadata>
  <rdf:RDF xmlns:dc="http://purl.org/dc/elements/1.1/" xmlns:cc="http://creativecommons.org/ns#" xmlns:rdf="http://www.w3.org/1999/02/22-rdf-syntax-ns#">
   <cc:Work>
    <dc:type rdf:resource="http://purl.org/dc/dcmitype/StillImage"/>
    <dc:date>2024-06-05T13:49:56.162073</dc:date>
    <dc:format>image/svg+xml</dc:format>
    <dc:creator>
     <cc:Agent>
      <dc:title>Matplotlib v3.7.1, https://matplotlib.org/</dc:title>
     </cc:Agent>
    </dc:creator>
   </cc:Work>
  </rdf:RDF>
 </metadata>
 <defs>
  <style type="text/css">*{stroke-linejoin: round; stroke-linecap: butt}</style>
 </defs>
 <g id="figure_1">
  <g id="patch_1">
   <path d="M 0 345.6 
L 460.8 345.6 
L 460.8 0 
L 0 0 
z
" style="fill: #ffffff"/>
  </g>
  <g id="axes_1">
   <g id="patch_2">
    <path d="M 34.16 291.28 
L 453.192 291.28 
L 453.192 3 
L 34.16 3 
z
" style="fill: #ffffff"/>
   </g>
   <g id="matplotlib.axis_1">
    <g id="xtick_1">
     <g id="line2d_1">
      <path d="M 121.104527 291.28 
L 121.104527 3 
" clip-path="url(#p19861d27fa)" style="fill: none; stroke: #b0b0b0; stroke-width: 0.8; stroke-linecap: square"/>
     </g>
     <g id="line2d_2">
      <defs>
       <path id="m9e158b0c66" d="M 0 0 
L 0 3.5 
" style="stroke: #000000; stroke-width: 0.8"/>
      </defs>
      <g>
       <use xlink:href="#m9e158b0c66" x="121.104527" y="291.28" style="stroke: #000000; stroke-width: 0.8"/>
      </g>
     </g>
     <g id="text_1">
      <!-- -2 -->
      <g transform="translate(111.134215 313.476875) scale(0.2 -0.2)">
       <defs>
        <path id="DejaVuSans-2d" d="M 313 2009 
L 1997 2009 
L 1997 1497 
L 313 1497 
L 313 2009 
z
" transform="scale(0.015625)"/>
        <path id="DejaVuSans-32" d="M 1228 531 
L 3431 531 
L 3431 0 
L 469 0 
L 469 531 
Q 828 903 1448 1529 
Q 2069 2156 2228 2338 
Q 2531 2678 2651 2914 
Q 2772 3150 2772 3378 
Q 2772 3750 2511 3984 
Q 2250 4219 1831 4219 
Q 1534 4219 1204 4116 
Q 875 4013 500 3803 
L 500 4441 
Q 881 4594 1212 4672 
Q 1544 4750 1819 4750 
Q 2544 4750 2975 4387 
Q 3406 4025 3406 3419 
Q 3406 3131 3298 2873 
Q 3191 2616 2906 2266 
Q 2828 2175 2409 1742 
Q 1991 1309 1228 531 
z
" transform="scale(0.015625)"/>
       </defs>
       <use xlink:href="#DejaVuSans-2d"/>
       <use xlink:href="#DejaVuSans-32" x="36.083984"/>
      </g>
     </g>
    </g>
    <g id="xtick_2">
     <g id="line2d_3">
      <path d="M 243.676 291.28 
L 243.676 3 
" clip-path="url(#p19861d27fa)" style="fill: none; stroke: #b0b0b0; stroke-width: 0.8; stroke-linecap: square"/>
     </g>
     <g id="line2d_4">
      <g>
       <use xlink:href="#m9e158b0c66" x="243.676" y="291.28" style="stroke: #000000; stroke-width: 0.8"/>
      </g>
     </g>
     <g id="text_2">
      <!-- 0 -->
      <g transform="translate(237.3135 313.476875) scale(0.2 -0.2)">
       <defs>
        <path id="DejaVuSans-30" d="M 2034 4250 
Q 1547 4250 1301 3770 
Q 1056 3291 1056 2328 
Q 1056 1369 1301 889 
Q 1547 409 2034 409 
Q 2525 409 2770 889 
Q 3016 1369 3016 2328 
Q 3016 3291 2770 3770 
Q 2525 4250 2034 4250 
z
M 2034 4750 
Q 2819 4750 3233 4129 
Q 3647 3509 3647 2328 
Q 3647 1150 3233 529 
Q 2819 -91 2034 -91 
Q 1250 -91 836 529 
Q 422 1150 422 2328 
Q 422 3509 836 4129 
Q 1250 4750 2034 4750 
z
" transform="scale(0.015625)"/>
       </defs>
       <use xlink:href="#DejaVuSans-30"/>
      </g>
     </g>
    </g>
    <g id="xtick_3">
     <g id="line2d_5">
      <path d="M 366.247473 291.28 
L 366.247473 3 
" clip-path="url(#p19861d27fa)" style="fill: none; stroke: #b0b0b0; stroke-width: 0.8; stroke-linecap: square"/>
     </g>
     <g id="line2d_6">
      <g>
       <use xlink:href="#m9e158b0c66" x="366.247473" y="291.28" style="stroke: #000000; stroke-width: 0.8"/>
      </g>
     </g>
     <g id="text_3">
      <!-- 2 -->
      <g transform="translate(359.884973 313.476875) scale(0.2 -0.2)">
       <use xlink:href="#DejaVuSans-32"/>
      </g>
     </g>
    </g>
    <g id="text_4">
     <!-- log10 of FEvals ratio -->
     <g transform="translate(141.371312 336.833125) scale(0.2 -0.2)">
      <defs>
       <path id="DejaVuSans-6c" d="M 603 4863 
L 1178 4863 
L 1178 0 
L 603 0 
L 603 4863 
z
" transform="scale(0.015625)"/>
       <path id="DejaVuSans-6f" d="M 1959 3097 
Q 1497 3097 1228 2736 
Q 959 2375 959 1747 
Q 959 1119 1226 758 
Q 1494 397 1959 397 
Q 2419 397 2687 759 
Q 2956 1122 2956 1747 
Q 2956 2369 2687 2733 
Q 2419 3097 1959 3097 
z
M 1959 3584 
Q 2709 3584 3137 3096 
Q 3566 2609 3566 1747 
Q 3566 888 3137 398 
Q 2709 -91 1959 -91 
Q 1206 -91 779 398 
Q 353 888 353 1747 
Q 353 2609 779 3096 
Q 1206 3584 1959 3584 
z
" transform="scale(0.015625)"/>
       <path id="DejaVuSans-67" d="M 2906 1791 
Q 2906 2416 2648 2759 
Q 2391 3103 1925 3103 
Q 1463 3103 1205 2759 
Q 947 2416 947 1791 
Q 947 1169 1205 825 
Q 1463 481 1925 481 
Q 2391 481 2648 825 
Q 2906 1169 2906 1791 
z
M 3481 434 
Q 3481 -459 3084 -895 
Q 2688 -1331 1869 -1331 
Q 1566 -1331 1297 -1286 
Q 1028 -1241 775 -1147 
L 775 -588 
Q 1028 -725 1275 -790 
Q 1522 -856 1778 -856 
Q 2344 -856 2625 -561 
Q 2906 -266 2906 331 
L 2906 616 
Q 2728 306 2450 153 
Q 2172 0 1784 0 
Q 1141 0 747 490 
Q 353 981 353 1791 
Q 353 2603 747 3093 
Q 1141 3584 1784 3584 
Q 2172 3584 2450 3431 
Q 2728 3278 2906 2969 
L 2906 3500 
L 3481 3500 
L 3481 434 
z
" transform="scale(0.015625)"/>
       <path id="DejaVuSans-31" d="M 794 531 
L 1825 531 
L 1825 4091 
L 703 3866 
L 703 4441 
L 1819 4666 
L 2450 4666 
L 2450 531 
L 3481 531 
L 3481 0 
L 794 0 
L 794 531 
z
" transform="scale(0.015625)"/>
       <path id="DejaVuSans-20" transform="scale(0.015625)"/>
       <path id="DejaVuSans-66" d="M 2375 4863 
L 2375 4384 
L 1825 4384 
Q 1516 4384 1395 4259 
Q 1275 4134 1275 3809 
L 1275 3500 
L 2222 3500 
L 2222 3053 
L 1275 3053 
L 1275 0 
L 697 0 
L 697 3053 
L 147 3053 
L 147 3500 
L 697 3500 
L 697 3744 
Q 697 4328 969 4595 
Q 1241 4863 1831 4863 
L 2375 4863 
z
" transform="scale(0.015625)"/>
       <path id="DejaVuSans-46" d="M 628 4666 
L 3309 4666 
L 3309 4134 
L 1259 4134 
L 1259 2759 
L 3109 2759 
L 3109 2228 
L 1259 2228 
L 1259 0 
L 628 0 
L 628 4666 
z
" transform="scale(0.015625)"/>
       <path id="DejaVuSans-45" d="M 628 4666 
L 3578 4666 
L 3578 4134 
L 1259 4134 
L 1259 2753 
L 3481 2753 
L 3481 2222 
L 1259 2222 
L 1259 531 
L 3634 531 
L 3634 0 
L 628 0 
L 628 4666 
z
" transform="scale(0.015625)"/>
       <path id="DejaVuSans-76" d="M 191 3500 
L 800 3500 
L 1894 563 
L 2988 3500 
L 3597 3500 
L 2284 0 
L 1503 0 
L 191 3500 
z
" transform="scale(0.015625)"/>
       <path id="DejaVuSans-61" d="M 2194 1759 
Q 1497 1759 1228 1600 
Q 959 1441 959 1056 
Q 959 750 1161 570 
Q 1363 391 1709 391 
Q 2188 391 2477 730 
Q 2766 1069 2766 1631 
L 2766 1759 
L 2194 1759 
z
M 3341 1997 
L 3341 0 
L 2766 0 
L 2766 531 
Q 2569 213 2275 61 
Q 1981 -91 1556 -91 
Q 1019 -91 701 211 
Q 384 513 384 1019 
Q 384 1609 779 1909 
Q 1175 2209 1959 2209 
L 2766 2209 
L 2766 2266 
Q 2766 2663 2505 2880 
Q 2244 3097 1772 3097 
Q 1472 3097 1187 3025 
Q 903 2953 641 2809 
L 641 3341 
Q 956 3463 1253 3523 
Q 1550 3584 1831 3584 
Q 2591 3584 2966 3190 
Q 3341 2797 3341 1997 
z
" transform="scale(0.015625)"/>
       <path id="DejaVuSans-73" d="M 2834 3397 
L 2834 2853 
Q 2591 2978 2328 3040 
Q 2066 3103 1784 3103 
Q 1356 3103 1142 2972 
Q 928 2841 928 2578 
Q 928 2378 1081 2264 
Q 1234 2150 1697 2047 
L 1894 2003 
Q 2506 1872 2764 1633 
Q 3022 1394 3022 966 
Q 3022 478 2636 193 
Q 2250 -91 1575 -91 
Q 1294 -91 989 -36 
Q 684 19 347 128 
L 347 722 
Q 666 556 975 473 
Q 1284 391 1588 391 
Q 1994 391 2212 530 
Q 2431 669 2431 922 
Q 2431 1156 2273 1281 
Q 2116 1406 1581 1522 
L 1381 1569 
Q 847 1681 609 1914 
Q 372 2147 372 2553 
Q 372 3047 722 3315 
Q 1072 3584 1716 3584 
Q 2034 3584 2315 3537 
Q 2597 3491 2834 3397 
z
" transform="scale(0.015625)"/>
       <path id="DejaVuSans-72" d="M 2631 2963 
Q 2534 3019 2420 3045 
Q 2306 3072 2169 3072 
Q 1681 3072 1420 2755 
Q 1159 2438 1159 1844 
L 1159 0 
L 581 0 
L 581 3500 
L 1159 3500 
L 1159 2956 
Q 1341 3275 1631 3429 
Q 1922 3584 2338 3584 
Q 2397 3584 2469 3576 
Q 2541 3569 2628 3553 
L 2631 2963 
z
" transform="scale(0.015625)"/>
       <path id="DejaVuSans-74" d="M 1172 4494 
L 1172 3500 
L 2356 3500 
L 2356 3053 
L 1172 3053 
L 1172 1153 
Q 1172 725 1289 603 
Q 1406 481 1766 481 
L 2356 481 
L 2356 0 
L 1766 0 
Q 1100 0 847 248 
Q 594 497 594 1153 
L 594 3053 
L 172 3053 
L 172 3500 
L 594 3500 
L 594 4494 
L 1172 4494 
z
" transform="scale(0.015625)"/>
       <path id="DejaVuSans-69" d="M 603 3500 
L 1178 3500 
L 1178 0 
L 603 0 
L 603 3500 
z
M 603 4863 
L 1178 4863 
L 1178 4134 
L 603 4134 
L 603 4863 
z
" transform="scale(0.015625)"/>
      </defs>
      <use xlink:href="#DejaVuSans-6c"/>
      <use xlink:href="#DejaVuSans-6f" x="27.783203"/>
      <use xlink:href="#DejaVuSans-67" x="88.964844"/>
      <use xlink:href="#DejaVuSans-31" x="152.441406"/>
      <use xlink:href="#DejaVuSans-30" x="216.064453"/>
      <use xlink:href="#DejaVuSans-20" x="279.6875"/>
      <use xlink:href="#DejaVuSans-6f" x="311.474609"/>
      <use xlink:href="#DejaVuSans-66" x="372.65625"/>
      <use xlink:href="#DejaVuSans-20" x="407.861328"/>
      <use xlink:href="#DejaVuSans-46" x="439.648438"/>
      <use xlink:href="#DejaVuSans-45" x="497.167969"/>
      <use xlink:href="#DejaVuSans-76" x="560.351562"/>
      <use xlink:href="#DejaVuSans-61" x="619.53125"/>
      <use xlink:href="#DejaVuSans-6c" x="680.810547"/>
      <use xlink:href="#DejaVuSans-73" x="708.59375"/>
      <use xlink:href="#DejaVuSans-20" x="760.693359"/>
      <use xlink:href="#DejaVuSans-72" x="792.480469"/>
      <use xlink:href="#DejaVuSans-61" x="833.59375"/>
      <use xlink:href="#DejaVuSans-74" x="894.873047"/>
      <use xlink:href="#DejaVuSans-69" x="934.082031"/>
      <use xlink:href="#DejaVuSans-6f" x="961.865234"/>
     </g>
    </g>
   </g>
   <g id="matplotlib.axis_2">
    <g id="ytick_1">
     <g id="line2d_7">
      <path d="M 34.16 288.453725 
L 453.192 288.453725 
" clip-path="url(#p19861d27fa)" style="fill: none; stroke: #b0b0b0; stroke-width: 0.8; stroke-linecap: square"/>
     </g>
     <g id="line2d_8">
      <defs>
       <path id="ma8cc227491" d="M 0 0 
L -3.5 0 
" style="stroke: #000000; stroke-width: 0.8"/>
      </defs>
      <g>
       <use xlink:href="#ma8cc227491" x="34.16" y="288.453725" style="stroke: #000000; stroke-width: 0.8"/>
      </g>
     </g>
    </g>
    <g id="ytick_2">
     <g id="line2d_9">
      <path d="M 34.16 217.796863 
L 453.192 217.796863 
" clip-path="url(#p19861d27fa)" style="fill: none; stroke: #b0b0b0; stroke-width: 0.8; stroke-linecap: square"/>
     </g>
     <g id="line2d_10">
      <g>
       <use xlink:href="#ma8cc227491" x="34.16" y="217.796863" style="stroke: #000000; stroke-width: 0.8"/>
      </g>
     </g>
    </g>
    <g id="ytick_3">
     <g id="line2d_11">
      <path d="M 34.16 147.14 
L 453.192 147.14 
" clip-path="url(#p19861d27fa)" style="fill: none; stroke: #b0b0b0; stroke-width: 0.8; stroke-linecap: square"/>
     </g>
     <g id="line2d_12">
      <g>
       <use xlink:href="#ma8cc227491" x="34.16" y="147.14" style="stroke: #000000; stroke-width: 0.8"/>
      </g>
     </g>
    </g>
    <g id="ytick_4">
     <g id="line2d_13">
      <path d="M 34.16 76.483137 
L 453.192 76.483137 
" clip-path="url(#p19861d27fa)" style="fill: none; stroke: #b0b0b0; stroke-width: 0.8; stroke-linecap: square"/>
     </g>
     <g id="line2d_14">
      <g>
       <use xlink:href="#ma8cc227491" x="34.16" y="76.483137" style="stroke: #000000; stroke-width: 0.8"/>
      </g>
     </g>
    </g>
    <g id="ytick_5">
     <g id="line2d_15">
      <path d="M 34.16 5.826275 
L 453.192 5.826275 
" clip-path="url(#p19861d27fa)" style="fill: none; stroke: #b0b0b0; stroke-width: 0.8; stroke-linecap: square"/>
     </g>
     <g id="line2d_16">
      <g>
       <use xlink:href="#ma8cc227491" x="34.16" y="5.826275" style="stroke: #000000; stroke-width: 0.8"/>
      </g>
     </g>
    </g>
    <g id="text_5">
     <!-- proportion of trials -->
     <g transform="translate(19.000625 240.14625) rotate(-90) scale(0.2 -0.2)">
      <defs>
       <path id="DejaVuSans-70" d="M 1159 525 
L 1159 -1331 
L 581 -1331 
L 581 3500 
L 1159 3500 
L 1159 2969 
Q 1341 3281 1617 3432 
Q 1894 3584 2278 3584 
Q 2916 3584 3314 3078 
Q 3713 2572 3713 1747 
Q 3713 922 3314 415 
Q 2916 -91 2278 -91 
Q 1894 -91 1617 61 
Q 1341 213 1159 525 
z
M 3116 1747 
Q 3116 2381 2855 2742 
Q 2594 3103 2138 3103 
Q 1681 3103 1420 2742 
Q 1159 2381 1159 1747 
Q 1159 1113 1420 752 
Q 1681 391 2138 391 
Q 2594 391 2855 752 
Q 3116 1113 3116 1747 
z
" transform="scale(0.015625)"/>
       <path id="DejaVuSans-6e" d="M 3513 2113 
L 3513 0 
L 2938 0 
L 2938 2094 
Q 2938 2591 2744 2837 
Q 2550 3084 2163 3084 
Q 1697 3084 1428 2787 
Q 1159 2491 1159 1978 
L 1159 0 
L 581 0 
L 581 3500 
L 1159 3500 
L 1159 2956 
Q 1366 3272 1645 3428 
Q 1925 3584 2291 3584 
Q 2894 3584 3203 3211 
Q 3513 2838 3513 2113 
z
" transform="scale(0.015625)"/>
      </defs>
      <use xlink:href="#DejaVuSans-70"/>
      <use xlink:href="#DejaVuSans-72" x="63.476562"/>
      <use xlink:href="#DejaVuSans-6f" x="102.339844"/>
      <use xlink:href="#DejaVuSans-70" x="163.521484"/>
      <use xlink:href="#DejaVuSans-6f" x="226.998047"/>
      <use xlink:href="#DejaVuSans-72" x="288.179688"/>
      <use xlink:href="#DejaVuSans-74" x="329.292969"/>
      <use xlink:href="#DejaVuSans-69" x="368.501953"/>
      <use xlink:href="#DejaVuSans-6f" x="396.285156"/>
      <use xlink:href="#DejaVuSans-6e" x="457.466797"/>
      <use xlink:href="#DejaVuSans-20" x="520.845703"/>
      <use xlink:href="#DejaVuSans-6f" x="552.632812"/>
      <use xlink:href="#DejaVuSans-66" x="613.814453"/>
      <use xlink:href="#DejaVuSans-20" x="649.019531"/>
      <use xlink:href="#DejaVuSans-74" x="680.806641"/>
      <use xlink:href="#DejaVuSans-72" x="720.015625"/>
      <use xlink:href="#DejaVuSans-69" x="761.128906"/>
      <use xlink:href="#DejaVuSans-61" x="788.912109"/>
      <use xlink:href="#DejaVuSans-6c" x="850.191406"/>
      <use xlink:href="#DejaVuSans-73" x="877.974609"/>
     </g>
    </g>
   </g>
   <g id="line2d_17">
    <path d="M 34.16 255.203437 
L 52.605824 255.203437 
L 52.605824 254.916797 
L 60.221057 254.916797 
L 60.221057 254.630156 
L 60.950238 254.630156 
L 60.950238 254.343516 
L 69.350122 254.343516 
L 69.350122 254.056875 
L 70.738093 254.056875 
L 70.738093 253.770235 
L 79.946895 253.770235 
L 79.946895 253.483595 
L 80.529667 253.483595 
L 80.529667 253.196954 
L 83.621612 253.196954 
L 83.621612 252.910314 
L 92.255197 252.910314 
L 92.255197 252.623673 
L 92.646134 252.623673 
L 92.646134 252.337033 
L 94.999867 252.337033 
L 94.999867 252.050393 
L 95.14136 252.050393 
L 95.228006 251.477112 
L 96.167006 251.477112 
L 96.167006 251.190471 
L 96.697576 251.190471 
L 96.697576 250.903831 
L 97.56903 250.903831 
L 97.56903 250.61719 
L 100.365911 250.61719 
L 100.365911 250.33055 
L 100.917136 250.33055 
L 100.917136 250.04391 
L 101.753882 250.04391 
L 101.753882 249.757269 
L 106.899278 249.757269 
L 106.899278 249.470629 
L 112.911304 249.470629 
L 112.911304 249.183988 
L 113.441875 249.183988 
L 113.441875 248.897348 
L 114.299275 248.897348 
L 114.299275 248.610708 
L 114.829845 248.610708 
L 114.829845 248.324067 
L 120.590755 248.324067 
L 120.590755 247.750786 
L 121.43355 247.750786 
L 121.43355 247.464146 
L 123.270986 247.464146 
L 123.270986 247.177505 
L 123.643576 247.177505 
L 123.661923 246.604225 
L 123.75785 246.604225 
L 123.75785 246.317584 
L 125.031547 246.317584 
L 125.031547 246.030944 
L 125.949605 246.030944 
L 126.015656 245.457663 
L 126.157149 245.457663 
L 126.243795 244.884382 
L 129.125056 244.884382 
L 129.125056 244.597742 
L 135.81638 244.597742 
L 135.81638 244.311101 
L 136.207316 244.311101 
L 136.207316 244.024461 
L 136.34695 244.024461 
L 136.34695 243.73782 
L 136.737886 243.73782 
L 136.737886 243.45118 
L 137.335053 243.45118 
L 137.335053 242.877899 
L 138.177848 242.877899 
L 138.177848 242.591259 
L 138.56105 242.591259 
L 138.56105 242.304618 
L 138.702542 242.304618 
L 138.789189 241.158057 
L 139.09162 241.158057 
L 139.09162 240.871416 
L 139.233113 240.871416 
L 139.319759 240.298135 
L 139.565819 240.298135 
L 139.565819 240.011495 
L 145.869355 240.011495 
L 145.869355 239.724855 
L 146.548652 239.724855 
L 146.548652 239.438214 
L 146.939588 239.438214 
L 146.939588 239.151574 
L 147.257325 239.151574 
L 147.257325 238.864933 
L 149.293322 238.864933 
L 149.293322 238.578293 
L 149.434814 238.578293 
L 149.521461 238.005012 
L 151.992134 238.005012 
L 151.992134 237.718372 
L 158.93621 237.718372 
L 158.93621 237.431731 
L 159.743647 237.431731 
L 159.743647 237.145091 
L 160.240128 237.145091 
L 160.240128 236.57181 
L 160.631065 236.57181 
L 160.631065 235.998529 
L 161.082923 235.998529 
L 161.082923 235.711889 
L 161.47386 235.711889 
L 161.47386 235.425248 
L 162.984799 235.425248 
L 162.984799 234.851968 
L 163.126291 234.851968 
L 163.212938 233.705406 
L 163.827594 233.705406 
L 163.827594 233.418765 
L 163.969086 233.418765 
L 164.055733 232.845485 
L 164.958717 232.845485 
L 164.958717 232.272204 
L 168.007361 232.272204 
L 168.007361 231.985563 
L 168.77443 231.985563 
L 168.77443 231.698923 
L 169.165366 231.698923 
L 169.165366 231.412283 
L 171.013389 231.412283 
L 171.013389 231.125642 
L 171.5191 231.125642 
L 171.5191 230.839002 
L 171.660593 230.839002 
L 171.747239 230.265721 
L 172.5714 230.265721 
L 172.5714 229.97908 
L 177.353388 229.97908 
L 177.353388 229.69244 
L 180.322914 229.69244 
L 180.322914 229.4058 
L 183.759445 229.4058 
L 183.759445 229.119159 
L 185.127814 229.119159 
L 185.127814 228.832519 
L 185.537983 228.832519 
L 185.537983 228.259238 
L 186.199044 228.259238 
L 186.199044 227.972598 
L 186.573924 227.972598 
L 186.573924 227.685957 
L 187.757055 227.685957 
L 187.757055 227.399317 
L 188.586627 227.399317 
L 188.586627 227.112676 
L 188.889824 227.112676 
L 188.889824 226.826036 
L 189.951999 226.826036 
L 189.951999 226.539395 
L 190.344615 226.539395 
L 190.35493 225.966115 
L 190.60368 225.966115 
L 190.60368 225.679474 
L 191.592656 225.679474 
L 191.592656 225.392834 
L 192.410007 225.392834 
L 192.410007 225.106193 
L 194.325438 225.106193 
L 194.325438 224.819553 
L 194.585473 224.819553 
L 194.585473 224.532913 
L 194.703478 224.532913 
L 194.703478 224.246272 
L 194.860505 224.246272 
L 194.860505 223.959632 
L 195.508568 223.959632 
L 195.508568 223.672991 
L 195.953841 223.672991 
L 195.953841 223.386351 
L 196.736225 223.386351 
L 196.736225 223.09971 
L 197.162091 223.09971 
L 197.162091 222.81307 
L 197.932654 222.81307 
L 197.932654 222.52643 
L 198.380495 222.52643 
L 198.380495 222.239789 
L 198.537522 222.239789 
L 198.537522 221.953149 
L 199.540507 221.953149 
L 199.540507 221.379868 
L 200.655094 221.379868 
L 200.723637 220.519947 
L 200.839109 220.519947 
L 200.839109 220.233306 
L 201.023304 220.233306 
L 201.023304 219.946666 
L 202.497392 219.946666 
L 202.589151 219.086745 
L 203.027963 219.086745 
L 203.027963 218.800104 
L 203.155008 218.800104 
L 203.236035 218.226823 
L 203.465831 218.226823 
L 203.465831 217.940183 
L 203.772282 217.940183 
L 203.799496 217.366902 
L 203.951094 217.366902 
L 203.956524 216.793621 
L 204.298442 216.793621 
L 204.298442 216.506981 
L 205.106798 216.506981 
L 205.106798 216.22034 
L 205.235398 216.22034 
L 205.235398 215.9337 
L 205.574116 215.9337 
L 205.595179 215.360419 
L 205.964579 215.360419 
L 205.964579 215.073779 
L 206.25811 215.073779 
L 206.303297 214.500498 
L 206.77831 214.500498 
L 206.77831 213.640577 
L 207.614485 213.640577 
L 207.614485 213.353936 
L 208.299642 213.353936 
L 208.299642 213.067296 
L 208.425189 213.067296 
L 208.425189 212.780655 
L 208.783815 212.780655 
L 208.783815 212.494015 
L 209.46909 212.494015 
L 209.46909 212.207375 
L 210.017403 212.207375 
L 210.017403 211.920734 
L 210.17443 211.920734 
L 210.17443 211.634094 
L 210.455327 211.634094 
L 210.455327 211.347453 
L 210.923882 211.347453 
L 210.923882 211.060813 
L 211.217344 211.060813 
L 211.217344 210.774173 
L 211.441552 210.774173 
L 211.441552 210.487532 
L 211.630991 210.487532 
L 211.630991 210.200892 
L 211.935178 210.200892 
L 211.976659 209.627611 
L 212.476016 209.627611 
L 212.476016 209.34097 
L 212.60401 209.34097 
L 212.60401 209.05433 
L 212.84102 209.05433 
L 212.84102 208.76769 
L 213.118309 208.76769 
L 213.118309 208.481049 
L 213.229664 208.481049 
L 213.229664 208.194409 
L 213.467309 208.194409 
L 213.467309 207.907768 
L 213.786068 207.907768 
L 213.786068 207.621128 
L 214.120286 207.621128 
L 214.202816 207.047847 
L 214.277313 207.047847 
L 214.277313 206.761207 
L 215.054279 206.761207 
L 215.074291 206.187926 
L 215.18507 206.187926 
L 215.202761 205.614645 
L 215.365999 205.614645 
L 215.365999 205.328005 
L 215.874329 205.328005 
L 215.874329 205.041364 
L 216.176703 205.041364 
L 216.176703 204.754724 
L 216.432413 204.754724 
L 216.518038 203.608162 
L 216.5789 203.608162 
L 216.5789 203.321522 
L 217.144327 203.321522 
L 217.169355 202.748241 
L 217.315492 202.748241 
L 217.399392 201.88832 
L 217.463086 201.88832 
L 217.463086 201.601679 
L 217.674365 201.601679 
L 217.674365 201.315039 
L 217.831393 201.315039 
L 217.831393 201.028398 
L 218.537723 201.028398 
L 218.537723 200.741758 
L 218.787363 200.741758 
L 218.787363 200.455118 
L 219.039037 200.455118 
L 219.039037 200.168477 
L 219.193066 200.168477 
L 219.193066 199.881837 
L 219.309609 199.881837 
L 219.309609 199.595196 
L 219.481058 199.595196 
L 219.481058 199.308556 
L 220.132979 199.308556 
L 220.132979 199.021915 
L 220.355524 199.021915 
L 220.437027 198.161994 
L 220.581068 198.161994 
L 220.594054 197.302073 
L 220.69758 197.302073 
L 220.780834 196.442152 
L 220.809285 196.442152 
L 220.809285 196.155511 
L 220.966313 196.155511 
L 221.04274 195.58223 
L 221.370719 195.58223 
L 221.391772 194.722309 
L 221.619469 194.722309 
L 221.619469 194.435669 
L 221.895806 194.435669 
L 221.963965 193.575748 
L 222.052833 193.575748 
L 222.092235 193.002467 
L 222.430711 193.002467 
L 222.487086 192.429186 
L 222.563328 192.429186 
L 222.563328 192.142545 
L 222.882087 192.142545 
L 222.954275 191.282624 
L 223.114367 191.282624 
L 223.114367 190.995984 
L 223.267899 190.995984 
L 223.278769 190.422703 
L 223.435796 190.422703 
L 223.471614 189.849422 
L 223.613567 189.849422 
L 223.629712 189.276141 
L 223.724852 189.276141 
L 223.788099 188.41622 
L 223.843548 188.41622 
L 223.843548 188.12958 
L 224.354419 188.12958 
L 224.440416 186.696378 
L 224.523606 186.696378 
L 224.593409 185.836456 
L 224.654745 185.836456 
L 224.750437 184.976535 
L 224.772169 184.976535 
L 224.772169 184.689895 
L 224.926405 184.689895 
L 224.961236 184.116614 
L 225.227155 184.116614 
L 225.299954 183.543333 
L 225.384182 183.543333 
L 225.464766 182.970052 
L 225.544008 182.970052 
L 225.570593 182.110131 
L 225.737383 182.110131 
L 225.819917 181.53685 
L 225.882726 181.53685 
L 225.882726 181.25021 
L 226.109536 181.25021 
L 226.195118 180.676929 
L 226.635741 180.676929 
L 226.635741 180.390288 
L 226.790551 180.390288 
L 226.790551 180.103648 
L 226.921141 180.103648 
L 226.921141 179.530367 
L 227.052023 179.530367 
L 227.052023 178.957086 
L 227.446445 178.957086 
L 227.465116 178.097165 
L 227.685769 178.097165 
L 227.763936 177.237244 
L 228.077685 177.237244 
L 228.169344 176.090682 
L 228.619237 176.090682 
L 228.619237 175.804042 
L 228.781234 175.804042 
L 228.827084 175.230761 
L 229.099993 175.230761 
L 229.099993 174.94412 
L 229.749198 174.94412 
L 229.801131 174.37084 
L 230.462807 174.37084 
L 230.462807 174.084199 
L 230.596669 174.084199 
L 230.677975 173.510918 
L 230.753696 173.510918 
L 230.840347 172.937638 
L 231.212605 172.937638 
L 231.318015 171.791076 
L 231.625265 171.791076 
L 231.625265 171.504435 
L 232.00562 171.504435 
L 232.089549 170.357874 
L 232.210257 170.357874 
L 232.299126 169.211312 
L 232.464958 169.211312 
L 232.511859 168.351391 
L 232.884118 168.351391 
L 232.975739 167.204829 
L 233.055282 167.204829 
L 233.055282 166.918189 
L 233.202877 166.918189 
L 233.202877 166.631548 
L 233.682089 166.631548 
L 233.786443 166.058268 
L 233.916112 166.058268 
L 233.970638 165.484987 
L 234.033191 165.484987 
L 234.061092 164.911706 
L 234.164862 164.911706 
L 234.224017 164.338425 
L 234.354992 164.338425 
L 234.446682 163.478504 
L 234.548163 163.478504 
L 234.548163 163.191863 
L 234.695432 163.191863 
L 234.695432 162.905223 
L 234.878166 162.905223 
L 234.966882 162.331942 
L 234.996729 162.331942 
L 235.054264 161.472021 
L 235.353601 161.472021 
L 235.455443 160.89874 
L 235.49197 160.89874 
L 235.49197 160.6121 
L 235.630475 160.6121 
L 235.630475 160.325459 
L 235.764336 160.325459 
L 235.811908 159.752178 
L 236.019038 159.752178 
L 236.019038 159.465538 
L 236.246534 159.465538 
L 236.246534 159.178898 
L 236.393918 159.178898 
L 236.438197 158.605617 
L 236.668242 158.605617 
L 236.768835 157.459055 
L 236.802806 157.459055 
L 236.874933 156.885774 
L 237.301987 156.885774 
L 237.301987 156.599134 
L 237.672741 156.599134 
L 237.736798 156.025853 
L 237.965264 156.025853 
L 238.060293 155.452572 
L 238.189573 155.452572 
L 238.189573 154.879291 
L 238.574569 154.879291 
L 238.574569 154.592651 
L 238.823319 154.592651 
L 238.919929 154.01937 
L 238.946828 154.01937 
L 238.946828 153.73273 
L 239.102024 153.73273 
L 239.200858 153.159449 
L 239.519617 153.159449 
L 239.573117 152.586168 
L 239.773994 152.586168 
L 239.773994 152.299528 
L 239.891876 152.299528 
L 239.891876 152.012887 
L 240.033348 152.012887 
L 240.121921 151.439606 
L 240.304467 151.439606 
L 240.363521 150.866325 
L 240.445853 150.866325 
L 240.445853 150.579685 
L 240.564015 150.579685 
L 240.659637 150.006404 
L 240.695404 150.006404 
L 240.695404 149.719764 
L 240.978396 149.719764 
L 240.999989 149.146483 
L 241.416312 149.146483 
L 241.416312 148.859843 
L 241.812605 148.859843 
L 241.920459 147.713281 
L 242.042601 147.713281 
L 242.042601 147.42664 
L 242.209064 147.42664 
L 242.214685 146.85336 
L 242.36136 146.85336 
L 242.36136 146.566719 
L 242.492869 146.566719 
L 242.583372 145.993438 
L 242.605621 145.993438 
L 242.671501 145.133517 
L 242.730952 145.133517 
L 242.840205 144.273596 
L 242.922089 144.273596 
L 243.031165 143.700315 
L 243.049137 143.700315 
L 243.049137 143.413675 
L 243.19063 143.413675 
L 243.277276 142.553753 
L 243.357241 142.553753 
L 243.422977 141.407192 
L 243.528728 141.407192 
L 243.597035 140.833911 
L 243.676 140.833911 
L 243.777961 139.400709 
L 243.947815 139.400709 
L 243.990987 138.827428 
L 244.145431 138.827428 
L 244.192833 137.967507 
L 244.309746 137.967507 
L 244.400291 137.107585 
L 244.512175 137.107585 
L 244.584486 136.534305 
L 244.648384 136.534305 
L 244.648384 136.247664 
L 244.897134 136.247664 
L 244.959355 135.674383 
L 245.100847 135.674383 
L 245.187494 134.527822 
L 245.322879 134.527822 
L 245.322879 134.241181 
L 245.648462 134.241181 
L 245.724399 133.38126 
L 245.864854 133.38126 
L 245.966967 132.521339 
L 245.9919 132.521339 
L 246.070067 131.948058 
L 246.212781 131.948058 
L 246.270195 131.374777 
L 246.438661 131.374777 
L 246.438661 131.088137 
L 246.692486 131.088137 
L 246.777671 130.228215 
L 246.81092 130.228215 
L 246.920625 129.081654 
L 247.027675 129.081654 
L 247.032771 128.221732 
L 247.395912 128.221732 
L 247.395912 127.935092 
L 247.512276 127.935092 
L 247.567982 127.361811 
L 247.897441 127.361811 
L 247.897441 127.075171 
L 248.042846 127.075171 
L 248.042846 126.78853 
L 248.209922 126.78853 
L 248.209922 126.50189 
L 248.339242 126.50189 
L 248.401139 125.928609 
L 248.734211 125.928609 
L 248.734211 125.641969 
L 248.93635 125.641969 
L 248.93635 125.355328 
L 249.280404 125.355328 
L 249.3605 123.922126 
L 249.401417 123.922126 
L 249.5017 123.062205 
L 249.521648 123.062205 
L 249.521648 122.775565 
L 249.671972 122.775565 
L 249.76686 121.915643 
L 249.794033 121.915643 
L 249.893906 121.342362 
L 250.076319 121.342362 
L 250.094783 120.769082 
L 250.227092 120.769082 
L 250.227092 120.482441 
L 250.595044 120.482441 
L 250.595044 119.90916 
L 250.782678 119.90916 
L 250.853381 119.33588 
L 250.949991 119.33588 
L 250.980427 118.475958 
L 251.17214 118.475958 
L 251.22879 117.902677 
L 252.08276 117.902677 
L 252.100451 117.329397 
L 252.358577 117.329397 
L 252.428522 116.182835 
L 253.082347 116.182835 
L 253.169281 115.609554 
L 253.245947 115.609554 
L 253.245947 115.322914 
L 253.555243 115.322914 
L 253.648862 114.749633 
L 253.678031 114.749633 
L 253.678031 114.176352 
L 254.311776 114.176352 
L 254.311776 113.889712 
L 254.467882 113.889712 
L 254.467882 113.603071 
L 254.628705 113.603071 
L 254.628705 113.316431 
L 254.820418 113.316431 
L 254.887042 112.45651 
L 255.316758 112.45651 
L 255.415173 111.883229 
L 255.683332 111.883229 
L 255.787957 111.309948 
L 255.936727 111.309948 
L 255.997748 110.450027 
L 256.185643 110.450027 
L 256.218543 109.590105 
L 256.411524 109.590105 
L 256.411524 109.303465 
L 256.598304 109.303465 
L 256.598304 109.016825 
L 256.783782 109.016825 
L 256.783782 108.730184 
L 257.348101 108.730184 
L 257.391519 108.156903 
L 257.602802 108.156903 
L 257.602802 107.870263 
L 257.870303 107.870263 
L 257.935686 107.296982 
L 258.091184 107.296982 
L 258.091184 107.010342 
L 258.244548 107.010342 
L 258.339861 106.15042 
L 258.588611 106.15042 
L 258.615461 105.290499 
L 258.77736 105.290499 
L 258.77736 105.003859 
L 259.046392 105.003859 
L 259.146031 104.430578 
L 259.182656 104.430578 
L 259.253266 103.857297 
L 259.422346 103.857297 
L 259.431406 103.284016 
L 259.588064 103.284016 
L 259.68129 102.710735 
L 259.739723 102.710735 
L 259.739723 102.424095 
L 259.946852 102.424095 
L 259.946852 102.137455 
L 260.46234 102.137455 
L 260.567907 101.277533 
L 260.941714 101.277533 
L 261.038324 100.704252 
L 261.17417 100.704252 
L 261.27982 99.844331 
L 261.755172 99.844331 
L 261.755172 99.557691 
L 262.05242 99.557691 
L 262.05242 99.27105 
L 262.502384 99.27105 
L 262.604426 98.69777 
L 262.874643 98.69777 
L 262.874643 98.411129 
L 263.104688 98.411129 
L 263.104688 98.124489 
L 263.766884 98.124489 
L 263.810446 97.264567 
L 263.961163 97.264567 
L 263.961163 96.977927 
L 264.255266 96.977927 
L 264.255266 96.691287 
L 265.114139 96.691287 
L 265.141208 96.118006 
L 265.344127 96.118006 
L 265.344127 95.831365 
L 265.505076 95.831365 
L 265.505076 95.544725 
L 266.100249 95.544725 
L 266.100249 95.258085 
L 266.365636 95.258085 
L 266.365636 94.971444 
L 266.571166 94.971444 
L 266.658767 93.824882 
L 266.698821 93.824882 
L 266.698821 93.538242 
L 266.874162 93.538242 
L 266.874162 93.251602 
L 267.122912 93.251602 
L 267.122912 92.964961 
L 267.253342 92.964961 
L 267.292512 92.10504 
L 267.48822 92.10504 
L 267.48822 91.8184 
L 267.85881 91.8184 
L 267.85881 91.531759 
L 268.000302 91.531759 
L 268.086949 90.385197 
L 268.268002 90.385197 
L 268.333351 89.811917 
L 268.392419 89.811917 
L 268.392419 89.525276 
L 268.695287 89.525276 
L 268.772192 88.951995 
L 268.863921 88.951995 
L 268.863921 88.665355 
L 269.008235 88.665355 
L 269.110909 87.805434 
L 269.347733 87.805434 
L 269.347733 87.518793 
L 269.85103 87.518793 
L 269.85103 87.232153 
L 270.201912 87.232153 
L 270.201912 86.945512 
L 270.600828 86.945512 
L 270.600828 86.658872 
L 270.807422 86.658872 
L 270.807422 86.372232 
L 270.958782 86.372232 
L 270.963946 85.798951 
L 271.080409 85.798951 
L 271.080409 85.51231 
L 271.302664 85.51231 
L 271.302664 85.22567 
L 271.457948 85.22567 
L 271.457948 84.93903 
L 271.618126 84.93903 
L 271.618126 84.652389 
L 271.830207 84.652389 
L 271.936025 83.792468 
L 272.242867 83.792468 
L 272.242867 83.505827 
L 272.413573 83.505827 
L 272.413573 83.219187 
L 272.662026 83.219187 
L 272.662026 82.932547 
L 272.77882 82.932547 
L 272.77882 82.645906 
L 272.916727 82.645906 
L 272.916727 82.072625 
L 273.291608 82.072625 
L 273.291608 81.785985 
L 274.154907 81.785985 
L 274.154907 81.499345 
L 274.299691 81.499345 
L 274.299691 81.212704 
L 274.634488 81.212704 
L 274.634488 80.926064 
L 274.746399 80.926064 
L 274.841618 80.352783 
L 275.614331 80.352783 
L 275.614331 79.779502 
L 275.796946 79.779502 
L 275.796946 79.492862 
L 276.127369 79.492862 
L 276.127369 79.206221 
L 276.248077 79.206221 
L 276.248077 78.919581 
L 277.019611 78.919581 
L 277.019611 78.63294 
L 277.238075 78.63294 
L 277.238075 78.3463 
L 277.542536 78.3463 
L 277.542536 78.05966 
L 278.25779 78.05966 
L 278.25779 77.773019 
L 278.395697 77.773019 
L 278.395697 77.486379 
L 278.677894 77.486379 
L 278.677894 77.199738 
L 278.805183 77.199738 
L 278.818149 76.626457 
L 279.065623 76.626457 
L 279.065623 76.339817 
L 279.440921 76.339817 
L 279.440921 76.053177 
L 279.928855 76.053177 
L 279.928855 75.766536 
L 280.27294 75.766536 
L 280.27294 75.479896 
L 280.470326 75.479896 
L 280.57369 74.906615 
L 281.138009 74.906615 
L 281.138009 74.619975 
L 281.383646 74.619975 
L 281.383646 74.333334 
L 281.617591 74.333334 
L 281.617591 74.046694 
L 282.231974 74.046694 
L 282.231974 73.760053 
L 283.03921 73.760053 
L 283.110471 72.900132 
L 283.336351 72.900132 
L 283.336351 72.613492 
L 283.70861 72.613492 
L 283.70861 72.326851 
L 283.882005 72.326851 
L 283.882005 72.040211 
L 284.79513 72.040211 
L 284.79513 71.75357 
L 285.223966 71.75357 
L 285.223966 71.46693 
L 286.178094 71.46693 
L 286.178094 71.18029 
L 286.651161 71.18029 
L 286.66455 70.607009 
L 287.492734 70.607009 
L 287.556792 69.747087 
L 287.775256 69.747087 
L 287.775256 69.460447 
L 288.12648 69.460447 
L 288.12648 69.173807 
L 288.842915 69.173807 
L 288.842915 68.887166 
L 289.005324 68.887166 
L 289.005324 68.600526 
L 289.396261 68.600526 
L 289.396261 68.313885 
L 291.573511 68.313885 
L 291.573511 68.027245 
L 291.749994 68.027245 
L 291.749994 67.740605 
L 291.891487 67.740605 
L 291.978133 67.167324 
L 292.7571 67.167324 
L 292.7571 66.594043 
L 293.083333 66.594043 
L 293.083333 66.307402 
L 293.495994 66.307402 
L 293.599895 65.734122 
L 293.699949 65.734122 
L 293.699949 65.447481 
L 294.194039 65.447481 
L 294.194039 65.160841 
L 294.988874 65.160841 
L 294.988874 64.8742 
L 295.149697 64.8742 
L 295.149697 64.58756 
L 296.032775 64.58756 
L 296.032775 64.30092 
L 297.254028 64.30092 
L 297.254028 64.014279 
L 299.298351 64.014279 
L 299.298351 63.727639 
L 299.586854 63.727639 
L 299.586854 63.440998 
L 300.109055 63.440998 
L 300.109055 63.154358 
L 301.291401 63.154358 
L 301.291401 62.867717 
L 301.559316 62.867717 
L 301.559316 62.581077 
L 302.670022 62.581077 
L 302.670022 62.294437 
L 303.125418 62.294437 
L 303.125418 62.007796 
L 304.287876 62.007796 
L 304.287876 61.721156 
L 305.113395 61.721156 
L 305.113395 61.434515 
L 306.224101 61.434515 
L 306.224101 61.147875 
L 306.886627 61.147875 
L 306.98548 60.574594 
L 308.895697 60.574594 
L 308.895697 60.287954 
L 310.628828 60.287954 
L 310.722903 59.714673 
L 325.744958 59.714673 
L 325.744958 59.428032 
L 328.077784 59.428032 
L 328.077784 59.141392 
L 331.795152 59.141392 
L 331.795152 58.854752 
L 333.604325 58.854752 
L 333.604325 58.568111 
L 334.715031 58.568111 
L 334.715031 58.281471 
L 338.4042 58.281471 
L 338.4042 57.99483 
L 338.65295 57.99483 
L 338.65295 57.70819 
L 340.314417 57.70819 
L 340.314417 57.42155 
L 340.563167 57.42155 
L 340.563167 57.134909 
L 342.047548 57.134909 
L 342.047548 56.848269 
L 342.296298 56.848269 
L 342.296298 56.561628 
L 349.072574 56.561628 
L 349.072574 56.274988 
L 350.982791 56.274988 
L 350.982791 55.988347 
L 352.000364 55.988347 
L 352.000364 55.701707 
L 352.715922 55.701707 
L 352.715922 55.415067 
L 353.910581 55.415067 
L 353.910581 55.128426 
L 355.643712 55.128426 
L 355.686337 54.555145 
L 363.103549 54.555145 
L 363.213872 53.981865 
L 363.462622 53.981865 
L 363.462622 53.695224 
L 365.013766 53.695224 
L 365.013766 53.408584 
L 366.746897 53.408584 
L 366.746897 53.121943 
L 372.821439 53.121943 
L 372.821439 52.835303 
L 373.882246 52.835303 
L 373.882246 52.548662 
L 374.731656 52.548662 
L 374.731656 52.262022 
L 376.464787 52.262022 
L 376.464787 51.975382 
L 376.810036 51.975382 
L 376.810036 51.688741 
L 377.4793 51.688741 
L 377.4793 51.402101 
L 377.818017 51.402101 
L 377.818017 51.11546 
L 387.105057 51.11546 
L 387.105057 50.82882 
L 387.353807 50.82882 
L 387.353807 50.54218 
L 387.913221 50.54218 
L 387.913221 50.255539 
L 395.358269 50.255539 
L 395.358269 49.968899 
L 397.631111 49.968899 
L 397.631111 49.682258 
L 397.77343 49.682258 
L 397.77343 49.395618 
L 399.482224 49.395618 
L 399.482224 49.108977 
L 399.820941 49.108977 
L 399.820941 48.822337 
L 400.701221 48.822337 
L 400.701221 48.535697 
L 411.804406 48.535697 
L 411.804406 48.249056 
L 417.361193 48.249056 
L 417.361193 47.962416 
L 421.522296 47.962416 
L 421.522296 47.675775 
L 453.192 47.675775 
L 453.192 47.675775 
" clip-path="url(#p19861d27fa)" style="fill: none; stroke: #000000; stroke-width: 3; stroke-linecap: square"/>
   </g>
   <g id="line2d_18">
    <path clip-path="url(#p19861d27fa)" style="fill: none; stroke: #000000; stroke-width: 3; stroke-linecap: square"/>
   </g>
   <g id="line2d_19">
    <path d="M 34.16 258.548287 
L 126.586239 258.548287 
L 126.586239 258.127084 
L 127.231406 258.127084 
L 127.231406 257.705881 
L 133.888497 257.705881 
L 133.888497 257.284677 
L 134.533665 257.284677 
L 134.533665 256.863474 
L 140.127862 256.863474 
L 140.127862 256.442271 
L 142.820575 256.442271 
L 142.820575 256.021067 
L 143.596488 256.021067 
L 143.65987 255.17866 
L 145.099769 255.17866 
L 145.099769 254.757457 
L 145.682981 254.757457 
L 145.682981 254.336254 
L 145.938076 254.336254 
L 145.938076 253.91505 
L 148.300305 253.91505 
L 148.300305 253.493847 
L 150.962128 253.493847 
L 150.993018 252.65144 
L 151.768931 252.65144 
L 151.768931 252.230237 
L 152.402028 252.230237 
L 152.402028 251.809034 
L 152.985239 251.809034 
L 152.985239 251.38783 
L 153.240334 251.38783 
L 153.240334 250.966627 
L 163.633715 250.966627 
L 163.633715 250.545424 
L 163.77314 250.545424 
L 163.834719 249.703017 
L 163.972386 249.703017 
L 163.972386 249.281814 
L 164.34397 249.281814 
L 164.34397 248.86061 
L 164.576351 248.86061 
L 164.576351 248.439407 
L 165.422398 248.439407 
L 165.422398 248.018203 
L 165.56556 248.018203 
L 165.583509 247.175797 
L 166.283933 247.175797 
L 166.330353 246.33339 
L 166.407113 246.33339 
L 166.407113 245.912187 
L 169.007447 245.912187 
L 169.007447 245.490983 
L 170.166744 245.490983 
L 170.166744 245.06978 
L 171.806158 245.06978 
L 171.806158 244.648577 
L 171.945582 244.648577 
L 172.007161 243.80617 
L 172.144828 243.80617 
L 172.144828 243.384967 
L 172.516413 243.384967 
L 172.516413 242.963763 
L 172.748793 242.963763 
L 172.748793 242.54256 
L 173.594841 242.54256 
L 173.632611 241.700153 
L 173.738003 241.700153 
L 173.755952 240.857746 
L 174.456375 240.857746 
L 174.456375 240.436543 
L 174.579555 240.436543 
L 174.579555 240.01534 
L 176.309706 240.01534 
L 176.309706 239.594136 
L 177.469002 239.594136 
L 177.469002 239.172933 
L 186.297659 239.172933 
L 186.297659 238.75173 
L 186.942826 238.75173 
L 186.942826 238.330526 
L 201.073852 238.330526 
L 201.073852 237.909323 
L 201.71902 237.909323 
L 201.71902 237.48812 
L 202.12245 237.48812 
L 202.12245 237.066916 
L 202.767618 237.066916 
L 202.767618 236.645713 
L 203.371289 236.645713 
L 203.371289 236.22451 
L 204.811189 236.22451 
L 204.811189 235.803306 
L 205.3944 235.803306 
L 205.3944 235.382103 
L 205.649495 235.382103 
L 205.649495 234.960899 
L 209.378265 234.960899 
L 209.378265 234.539696 
L 211.778163 234.539696 
L 211.778163 234.118493 
L 212.070978 234.118493 
L 212.070978 233.697289 
L 212.846891 233.697289 
L 212.846891 233.276086 
L 213.594542 233.276086 
L 213.594542 232.854883 
L 213.809916 232.854883 
L 213.809916 232.433679 
L 214.470876 232.433679 
L 214.470876 232.012476 
L 215.246789 232.012476 
L 215.246789 231.591273 
L 216.387027 231.591273 
L 216.387027 231.170069 
L 218.147483 231.170069 
L 218.147483 230.748866 
L 219.07974 230.748866 
L 219.07974 230.327663 
L 219.196081 230.327663 
L 219.196081 229.906459 
L 219.587383 229.906459 
L 219.587383 229.485256 
L 219.744012 229.485256 
L 219.811752 228.642849 
L 219.855653 228.642849 
L 219.855653 228.221646 
L 220.170594 228.221646 
L 220.170594 227.800442 
L 220.425689 227.800442 
L 220.425689 227.379239 
L 220.635981 227.379239 
L 220.635981 226.958036 
L 221.007871 226.958036 
L 221.007871 226.536832 
L 221.179796 226.536832 
L 221.224169 225.273222 
L 221.439543 225.273222 
L 221.474287 224.430816 
L 222.229875 224.430816 
L 222.229875 224.009612 
L 222.436725 224.009612 
L 222.504465 223.167206 
L 222.603552 223.167206 
L 222.603552 222.746002 
L 222.7524 222.746002 
L 222.7524 222.324799 
L 223.212638 222.324799 
L 223.280378 221.482392 
L 223.700584 221.482392 
L 223.807925 220.639985 
L 223.872509 220.639985 
L 223.872509 220.218782 
L 224.097195 220.218782 
L 224.097195 219.797579 
L 224.453092 219.797579 
L 224.476497 218.955172 
L 224.648422 218.955172 
L 224.742362 217.691562 
L 224.922588 217.691562 
L 225.00437 216.849155 
L 225.219744 216.849155 
L 225.219744 216.427952 
L 225.37686 216.427952 
L 225.445113 215.585545 
L 225.596269 215.585545 
L 225.698501 214.743138 
L 225.811643 214.743138 
L 225.811643 214.321935 
L 226.041772 214.321935 
L 226.041772 213.900732 
L 226.221026 213.900732 
L 226.223688 213.058325 
L 228.718867 213.058325 
L 228.813084 211.794715 
L 228.916401 211.794715 
L 228.916401 211.373512 
L 229.692314 211.373512 
L 229.692314 210.952308 
L 229.878164 210.952308 
L 229.878164 210.531105 
L 230.355497 210.531105 
L 230.355497 210.109902 
L 230.775994 210.109902 
L 230.775994 209.688698 
L 231.308554 209.688698 
L 231.308554 209.267495 
L 232.793924 209.267495 
L 232.884118 208.425088 
L 233.023542 208.425088 
L 233.085121 207.582681 
L 233.222788 207.582681 
L 233.222788 207.161478 
L 233.594372 207.161478 
L 233.594372 206.740275 
L 233.826753 206.740275 
L 233.826753 206.319071 
L 234.672801 206.319071 
L 234.672801 205.897868 
L 234.815962 205.897868 
L 234.833912 205.055461 
L 235.284016 205.055461 
L 235.284016 204.634258 
L 235.42344 204.634258 
L 235.534335 203.370648 
L 235.622686 203.370648 
L 235.657515 202.528241 
L 235.968738 202.528241 
L 235.99427 201.685834 
L 236.226651 201.685834 
L 236.226651 201.264631 
L 236.355726 201.264631 
L 236.442711 200.422224 
L 237.072699 200.422224 
L 237.072699 200.001021 
L 237.215861 200.001021 
L 237.23381 199.158614 
L 237.934233 199.158614 
L 237.985124 198.316208 
L 238.057413 198.316208 
L 238.057413 197.895004 
L 238.938181 197.895004 
L 238.938181 197.473801 
L 239.150422 197.473801 
L 239.150422 197.052598 
L 239.89288 197.052598 
L 239.89288 196.631394 
L 240.032304 196.631394 
L 240.135927 194.946581 
L 240.222912 194.946581 
L 240.23155 194.104174 
L 240.603135 194.104174 
L 240.603135 193.682971 
L 240.727826 193.682971 
L 240.835516 191.998157 
L 240.881556 191.998157 
L 240.881556 191.576954 
L 241.170826 191.576954 
L 241.170826 191.155751 
L 241.681563 191.155751 
L 241.765325 190.313344 
L 241.805323 190.313344 
L 241.866564 188.207327 
L 242.082528 188.207327 
L 242.130102 187.36492 
L 242.321455 187.36492 
L 242.357224 186.522514 
L 242.543097 186.522514 
L 242.619048 185.258904 
L 242.666277 185.258904 
L 242.718382 184.416497 
L 242.904667 184.416497 
L 243.011719 183.57409 
L 243.159762 183.57409 
L 243.249865 181.889277 
L 243.310281 181.889277 
L 243.389289 180.625667 
L 243.449031 180.625667 
L 243.518608 178.51965 
L 243.588535 178.51965 
L 243.656886 176.834837 
L 243.828434 176.834837 
L 243.891359 175.99243 
L 243.960119 175.99243 
L 244.027859 175.150023 
L 244.083529 175.150023 
L 244.1925 173.886413 
L 244.26024 173.886413 
L 244.26024 173.46521 
L 244.513724 173.46521 
L 244.543659 172.622803 
L 244.653148 172.622803 
L 244.714727 170.93799 
L 244.775241 170.93799 
L 244.852394 169.253176 
L 244.886652 169.253176 
L 244.905641 168.410769 
L 245.024319 168.410769 
L 245.121015 166.725956 
L 245.18171 166.725956 
L 245.267399 164.619939 
L 245.395903 164.619939 
L 245.456359 163.777533 
L 245.551154 163.777533 
L 245.628284 162.513922 
L 245.702955 162.513922 
L 245.735728 161.671516 
L 245.875152 161.671516 
L 245.967822 159.986702 
L 246.023262 159.986702 
L 246.091002 158.723092 
L 246.258253 158.723092 
L 246.302407 157.880686 
L 246.397677 157.880686 
L 246.474332 155.353465 
L 246.596923 155.353465 
L 246.678363 153.668652 
L 246.968507 153.668652 
L 246.968507 153.247449 
L 247.163941 153.247449 
L 247.200888 152.405042 
L 247.287121 152.405042 
L 247.378566 151.141432 
L 247.459046 151.141432 
L 247.524411 150.299025 
L 247.667573 150.299025 
L 247.685522 149.456618 
L 247.970465 149.456618 
L 248.046936 148.614212 
L 248.190098 148.614212 
L 248.208047 147.771805 
L 248.385945 147.771805 
L 248.385945 147.350602 
L 248.509125 147.350602 
L 248.585678 146.508195 
L 248.90847 146.508195 
L 248.90847 146.086992 
L 249.03165 146.086992 
L 249.03165 145.665788 
L 249.230845 145.665788 
L 249.230845 145.244585 
L 249.729541 145.244585 
L 249.729541 144.823382 
L 249.868965 144.823382 
L 249.930544 143.980975 
L 250.068211 143.980975 
L 250.068211 143.559771 
L 250.439795 143.559771 
L 250.439795 143.138568 
L 250.672176 143.138568 
L 250.672176 142.717365 
L 251.518224 142.717365 
L 251.568906 141.874958 
L 251.661386 141.874958 
L 251.679335 141.032551 
L 252.379758 141.032551 
L 252.379758 140.611348 
L 252.502938 140.611348 
L 252.502938 140.190145 
L 254.658289 140.190145 
L 254.658289 139.768941 
L 256.261643 139.768941 
L 256.261643 139.347738 
L 258.871164 139.347738 
L 258.871164 138.926535 
L 259.022915 138.926535 
L 259.1099 138.084128 
L 260.037198 138.084128 
L 260.124183 136.820518 
L 260.652314 136.820518 
L 260.652314 136.399314 
L 261.525249 136.399314 
L 261.605371 135.556908 
L 261.666596 135.556908 
L 261.666596 135.135704 
L 261.960548 135.135704 
L 262.0476 134.293298 
L 262.108461 134.293298 
L 262.205979 133.450891 
L 262.262974 133.450891 
L 262.363556 132.608484 
L 262.619653 132.608484 
L 262.656275 131.766078 
L 262.795699 131.766078 
L 262.857278 130.502467 
L 262.994946 130.502467 
L 262.994946 130.081264 
L 263.36653 130.081264 
L 263.36653 129.660061 
L 263.552039 129.660061 
L 263.598911 128.396451 
L 263.841309 128.396451 
L 263.841309 127.975247 
L 264.444958 127.975247 
L 264.475806 127.132841 
L 264.58812 127.132841 
L 264.606069 126.290434 
L 265.306492 126.290434 
L 265.306492 125.869231 
L 265.429672 125.869231 
L 265.429672 125.448027 
L 265.588381 125.448027 
L 265.659309 124.184417 
L 265.727806 124.184417 
L 265.836958 122.499604 
L 265.927052 122.499604 
L 265.974625 121.657197 
L 266.229133 121.657197 
L 266.298636 120.393587 
L 266.346209 120.393587 
L 266.346209 119.972384 
L 266.518403 119.972384 
L 266.57859 118.708774 
L 267.099209 118.708774 
L 267.152901 117.866367 
L 267.279837 117.866367 
L 267.38843 116.602757 
L 267.424638 116.602757 
L 267.520226 115.76035 
L 267.538176 115.76035 
L 267.591812 114.075537 
L 267.6777 114.075537 
L 267.68242 113.23313 
L 267.807186 113.23313 
L 267.807186 112.811927 
L 267.937515 112.811927 
L 267.937515 112.390723 
L 268.238599 112.390723 
L 268.312198 111.127113 
L 268.361779 111.127113 
L 268.409352 110.284706 
L 277.179157 110.284706 
L 277.266142 109.4423 
L 278.808555 109.4423 
L 278.808555 109.021096 
L 279.27961 109.021096 
L 279.27961 108.599893 
L 279.761612 108.599893 
L 279.761612 108.17869 
L 280.71951 108.17869 
L 280.71951 107.757486 
L 281.302721 107.757486 
L 281.302721 107.336283 
L 281.557816 107.336283 
L 281.557816 106.91508 
L 282.723369 106.91508 
L 282.810354 105.65147 
L 284.352767 105.65147 
L 284.421796 104.809063 
L 285.305824 104.809063 
L 285.305824 104.38786 
L 285.432927 104.38786 
L 285.432927 103.966656 
L 286.592224 103.966656 
L 286.592224 103.545453 
L 288.329792 103.545453 
L 288.329792 103.124249 
L 289.966008 103.124249 
L 289.966008 102.703046 
L 291.006887 102.703046 
L 291.006887 102.281843 
L 291.853954 102.281843 
L 291.853954 101.860639 
L 292.166183 101.860639 
L 292.166183 101.439436 
L 292.505344 101.439436 
L 292.505344 101.018233 
L 294.253852 101.018233 
L 294.253852 100.597029 
L 298.862717 100.597029 
L 298.862717 100.175826 
L 301.950093 100.175826 
L 301.950093 99.754623 
L 302.219701 99.754623 
L 302.287441 98.912216 
L 303.48356 98.912216 
L 303.48356 98.491013 
L 303.655485 98.491013 
L 303.655485 98.069809 
L 304.627188 98.069809 
L 304.705564 97.227402 
L 305.228089 97.227402 
L 305.228089 96.806199 
L 305.786484 96.806199 
L 305.786484 96.384996 
L 307.281538 96.384996 
L 307.281538 95.963792 
L 308.330135 95.963792 
L 308.330135 95.542589 
L 308.699377 95.542589 
L 308.699377 95.121386 
L 311.280325 95.121386 
L 311.280325 94.700182 
L 314.369709 94.700182 
L 314.369709 94.278979 
L 315.973062 94.278979 
L 315.973062 93.857776 
L 321.626112 93.857776 
L 321.626112 93.436572 
L 324.558218 93.436572 
L 324.605791 92.594166 
L 326.056519 92.594166 
L 326.056519 92.172962 
L 327.105117 92.172962 
L 327.105117 91.751759 
L 329.145903 91.751759 
L 329.145903 91.330556 
L 330.01561 91.330556 
L 330.01561 90.909352 
L 330.194501 90.909352 
L 330.30488 90.066945 
L 330.749256 90.066945 
L 330.749256 89.645742 
L 330.939378 89.645742 
L 330.939378 89.224539 
L 331.797854 89.224539 
L 331.797854 88.803335 
L 348.790592 88.803335 
L 348.790592 88.382132 
L 349.079862 88.382132 
L 349.079862 87.960929 
L 349.219404 87.960929 
L 349.219404 87.539725 
L 349.714359 87.539725 
L 349.714359 87.118522 
L 351.879975 87.118522 
L 351.879975 86.697319 
L 352.169245 86.697319 
L 352.169245 86.276115 
L 352.803743 86.276115 
L 352.803743 85.854912 
L 353.483329 85.854912 
L 353.483329 85.433709 
L 353.772599 85.433709 
L 353.772599 85.012505 
L 354.407096 85.012505 
L 354.407096 84.591302 
L 354.793363 84.591302 
L 354.793363 84.170098 
L 367.994386 84.170098 
L 367.994386 83.748895 
L 368.413664 83.748895 
L 368.413664 83.327692 
L 371.083769 83.327692 
L 371.083769 82.906488 
L 372.687123 82.906488 
L 372.687123 82.485285 
L 373.568345 82.485285 
L 373.568345 82.064082 
L 376.657729 82.064082 
L 376.657729 81.642878 
L 378.261082 81.642878 
L 378.261082 81.221675 
L 387.188646 81.221675 
L 387.188646 80.800472 
L 390.27803 80.800472 
L 390.27803 80.379268 
L 391.881383 80.379268 
L 391.881383 79.958065 
L 453.192 79.958065 
L 453.192 79.958065 
" clip-path="url(#p19861d27fa)" style="fill: none; stroke: #00bfbf; stroke-width: 3; stroke-linecap: square"/>
   </g>
   <g id="line2d_20">
    <path clip-path="url(#p19861d27fa)" style="fill: none; stroke: #00bfbf; stroke-width: 3; stroke-linecap: square"/>
   </g>
   <g id="line2d_21">
    <path d="M 34.16 230.746834 
L 136.042514 230.746834 
L 136.042514 230.292449 
L 136.673724 230.292449 
L 136.673724 229.838064 
L 139.67525 229.838064 
L 139.67525 229.383679 
L 140.30646 229.383679 
L 140.30646 228.929294 
L 153.323093 228.929294 
L 153.323093 228.47491 
L 154.350084 228.47491 
L 154.350084 228.020525 
L 154.843254 228.020525 
L 154.843254 227.56614 
L 155.199863 227.56614 
L 155.199863 227.111755 
L 156.955829 227.111755 
L 156.955829 226.65737 
L 157.98282 226.65737 
L 157.98282 226.202985 
L 158.47599 226.202985 
L 158.47599 225.7486 
L 158.832599 225.7486 
L 158.832599 225.294215 
L 159.014701 225.294215 
L 159.014701 224.83983 
L 162.647437 224.83983 
L 162.647437 224.385445 
L 175.469969 224.385445 
L 175.469969 223.93106 
L 177.926554 223.93106 
L 177.926554 223.476675 
L 178.197506 223.476675 
L 178.197506 223.02229 
L 179.102705 223.02229 
L 179.102705 222.567905 
L 181.55929 222.567905 
L 181.55929 222.11352 
L 181.830242 222.11352 
L 181.830242 221.659135 
L 201.584267 221.659135 
L 201.584267 221.20475 
L 202.215476 221.20475 
L 202.215476 220.750365 
L 202.426923 220.750365 
L 202.426923 220.29598 
L 203.058132 220.29598 
L 203.058132 219.841595 
L 207.252396 219.841595 
L 207.252396 219.38721 
L 207.725667 219.38721 
L 207.725667 218.932825 
L 208.643797 218.932825 
L 208.643797 218.47844 
L 209.117068 218.47844 
L 209.117068 218.024055 
L 213.835513 218.024055 
L 213.835513 217.56967 
L 214.119871 217.56967 
L 214.119871 217.115285 
L 218.864846 217.115285 
L 218.864846 216.6609 
L 219.707501 216.6609 
L 219.707501 216.206515 
L 219.891837 216.206515 
L 219.891837 215.75213 
L 220.385007 215.75213 
L 220.385007 215.297745 
L 220.734493 215.297745 
L 220.741616 214.388975 
L 221.227662 214.388975 
L 221.227662 213.934591 
L 221.584272 213.934591 
L 221.584272 213.480206 
L 221.751914 213.480206 
L 221.751914 213.025821 
L 222.036272 213.025821 
L 222.036272 212.571436 
L 223.854109 212.571436 
L 223.91666 211.662666 
L 224.386196 211.662666 
L 224.386196 211.208281 
L 224.517228 211.208281 
L 224.620685 209.390741 
L 224.915532 209.390741 
L 225.017405 208.481971 
L 225.090407 208.481971 
L 225.15819 207.573201 
L 225.245511 207.573201 
L 225.245511 207.118816 
L 225.39911 207.118816 
L 225.458939 206.210046 
L 225.743297 206.210046 
L 225.829826 204.846891 
L 225.90863 204.846891 
L 226.012087 203.483736 
L 226.047007 203.483736 
L 226.047007 203.029351 
L 226.186404 203.029351 
L 226.186404 202.574966 
L 226.303097 202.574966 
L 226.306934 201.666196 
L 226.470762 201.666196 
L 226.520278 200.303041 
L 227.320254 200.303041 
L 227.320254 199.848656 
L 228.531612 199.848656 
L 228.531612 199.394271 
L 229.352714 199.394271 
L 229.352714 198.939887 
L 229.767623 198.939887 
L 229.854496 198.031117 
L 230.485705 198.031117 
L 230.485705 197.576732 
L 230.787534 197.576732 
L 230.787534 197.122347 
L 235.458288 197.122347 
L 235.458288 196.667962 
L 236.448012 196.667962 
L 236.448012 196.213577 
L 237.269114 196.213577 
L 237.269114 195.759192 
L 237.684023 195.759192 
L 237.684023 195.304807 
L 238.703934 195.304807 
L 238.703934 194.850422 
L 240.155037 194.850422 
L 240.155037 194.396037 
L 240.882502 194.396037 
L 240.976139 193.487267 
L 241.011722 193.487267 
L 241.011722 193.032882 
L 241.197238 193.032882 
L 241.197238 192.578497 
L 241.391048 192.578497 
L 241.391048 192.124112 
L 241.666774 192.124112 
L 241.703604 191.215342 
L 241.854377 191.215342 
L 241.854377 190.760957 
L 242.118513 190.760957 
L 242.224229 189.852187 
L 242.410959 189.852187 
L 242.439667 188.034647 
L 242.64872 188.034647 
L 242.717399 186.671492 
L 242.837723 186.671492 
L 242.912938 185.762722 
L 243.074009 185.762722 
L 243.138424 184.399567 
L 243.186935 184.399567 
L 243.198116 183.490798 
L 243.311839 183.490798 
L 243.415296 181.673258 
L 243.465759 181.673258 
L 243.543545 179.401333 
L 243.667838 179.401333 
L 243.739259 178.038178 
L 243.83067 178.038178 
L 243.885019 177.129408 
L 243.958929 177.129408 
L 243.958929 176.675023 
L 244.135702 176.675023 
L 244.187556 175.766253 
L 244.310963 175.766253 
L 244.420059 174.403098 
L 244.506283 174.403098 
L 244.581914 173.494328 
L 244.660827 173.494328 
L 244.747161 171.676788 
L 245.031518 171.676788 
L 245.031518 171.222403 
L 245.1702 171.222403 
L 245.1702 170.768018 
L 245.398704 170.768018 
L 245.398704 170.313633 
L 246.888847 170.313633 
L 246.888847 169.859248 
L 247.081714 169.859248 
L 247.135075 168.950479 
L 247.358383 168.950479 
L 247.358383 168.496094 
L 247.809178 168.496094 
L 247.809178 168.041709 
L 248.086209 168.041709 
L 248.162066 166.678554 
L 248.655236 166.678554 
L 248.717418 165.769784 
L 249.011845 165.769784 
L 249.03144 164.861014 
L 252.826683 164.861014 
L 252.826683 164.406629 
L 255.700767 164.406629 
L 255.700767 163.952244 
L 256.111607 163.952244 
L 256.111607 163.497859 
L 258.8318 163.497859 
L 258.8318 163.043474 
L 259.04138 163.043474 
L 259.04138 162.589089 
L 259.333503 162.589089 
L 259.443259 161.680319 
L 259.652902 161.680319 
L 259.744343 160.317164 
L 259.807956 160.317164 
L 259.807956 159.862779 
L 259.959113 159.862779 
L 260.067811 158.954009 
L 260.102804 158.954009 
L 260.118302 158.045239 
L 260.264361 158.045239 
L 260.277679 157.136469 
L 260.622232 157.136469 
L 260.725688 155.773314 
L 260.78927 155.773314 
L 260.78927 155.318929 
L 261.020536 155.318929 
L 261.116123 153.955775 
L 261.145293 153.955775 
L 261.195411 153.047005 
L 261.298642 153.047005 
L 261.298642 152.59262 
L 261.452389 152.59262 
L 261.555846 151.68385 
L 261.638463 151.68385 
L 261.699181 150.77508 
L 261.838028 150.77508 
L 261.850693 149.86631 
L 261.961761 149.86631 
L 262.065218 147.14 
L 262.122386 147.14 
L 262.122386 146.685615 
L 262.360065 146.685615 
L 262.360065 146.23123 
L 262.53494 146.23123 
L 262.53494 145.776845 
L 262.679922 145.776845 
L 262.679922 145.32246 
L 262.864013 145.32246 
L 262.864013 144.868075 
L 263.344114 144.868075 
L 263.373385 143.959305 
L 263.81365 143.959305 
L 263.81365 143.50492 
L 264.585644 143.50492 
L 264.585644 143.050535 
L 265.366788 143.050535 
L 265.366788 142.59615 
L 265.758476 142.59615 
L 265.80991 141.232995 
L 266.071651 141.232995 
L 266.071651 140.77861 
L 266.270236 140.77861 
L 266.369935 139.86984 
L 266.393779 139.86984 
L 266.393779 139.415456 
L 266.541187 139.415456 
L 266.541187 138.961071 
L 266.762288 138.961071 
L 266.762288 138.506686 
L 266.886949 138.506686 
L 266.886949 138.052301 
L 267.042229 138.052301 
L 267.046646 137.143531 
L 267.243558 137.143531 
L 267.313181 136.234761 
L 269.28195 136.234761 
L 269.28195 135.780376 
L 271.058396 135.780376 
L 271.058396 135.325991 
L 271.738536 135.325991 
L 271.738536 134.871606 
L 272.009487 134.871606 
L 272.009487 134.417221 
L 276.534126 134.417221 
L 276.534126 133.962836 
L 277.355228 133.962836 
L 277.355228 133.508451 
L 277.770137 133.508451 
L 277.770137 133.054066 
L 278.790048 133.054066 
L 278.790048 132.599681 
L 279.329291 132.599681 
L 279.329291 132.145296 
L 280.356282 132.145296 
L 280.356282 131.690911 
L 280.849452 131.690911 
L 280.849452 131.236526 
L 281.206062 131.236526 
L 281.206062 130.782141 
L 281.458387 130.782141 
L 281.458387 130.327756 
L 282.265178 130.327756 
L 282.279488 129.418986 
L 282.694397 129.418986 
L 282.694397 128.964601 
L 283.460802 128.964601 
L 283.460802 128.510216 
L 283.714308 128.510216 
L 283.714308 128.055831 
L 284.721763 128.055831 
L 284.721763 127.601446 
L 284.992715 127.601446 
L 285.0209 126.692676 
L 287.513664 126.692676 
L 287.513664 126.238291 
L 288.385063 126.238291 
L 288.385063 125.783906 
L 289.970249 125.783906 
L 289.970249 125.329521 
L 290.2412 125.329521 
L 290.2412 124.875136 
L 301.476167 124.875136 
L 301.476167 124.420752 
L 303.932752 124.420752 
L 303.932752 123.966367 
L 304.203704 123.966367 
L 304.203704 123.511982 
L 310.940457 123.511982 
L 310.940457 123.057597 
L 311.783112 123.057597 
L 311.783112 122.603212 
L 321.242519 122.603212 
L 321.242519 122.148827 
L 321.65336 122.148827 
L 321.65336 121.694442 
L 322.085175 121.694442 
L 322.085175 121.240057 
L 322.496015 121.240057 
L 322.496015 120.785672 
L 333.272849 120.785672 
L 333.272849 120.331287 
L 333.742385 120.331287 
L 333.742385 119.876902 
L 334.514379 119.876902 
L 334.514379 119.422517 
L 339.210686 119.422517 
L 339.210686 118.968132 
L 343.574912 118.968132 
L 343.574912 118.513747 
L 343.985752 118.513747 
L 344.044448 117.604977 
L 344.455289 117.604977 
L 344.455289 117.150592 
L 344.816442 117.150592 
L 344.816442 116.696207 
L 345.227282 116.696207 
L 345.227282 116.241822 
L 349.512748 116.241822 
L 349.512748 115.787437 
L 349.923589 115.787437 
L 349.923589 115.333052 
L 352.193913 115.333052 
L 352.193913 114.878667 
L 357.442399 114.878667 
L 357.442399 114.424282 
L 362.495975 114.424282 
L 362.495975 113.969897 
L 362.906816 113.969897 
L 362.906816 113.515512 
L 367.744461 113.515512 
L 367.744461 113.061127 
L 368.155302 113.061127 
L 368.155302 112.606742 
L 371.404902 112.606742 
L 371.404902 112.152357 
L 381.706965 112.152357 
L 381.706965 111.697972 
L 382.117805 111.697972 
L 382.117805 111.243587 
L 453.192 111.243587 
L 453.192 111.243587 
" clip-path="url(#p19861d27fa)" style="fill: none; stroke: #bf00bf; stroke-width: 3; stroke-linecap: square"/>
   </g>
   <g id="line2d_22">
    <path clip-path="url(#p19861d27fa)" style="fill: none; stroke: #bf00bf; stroke-width: 3; stroke-linecap: square"/>
   </g>
   <g id="line2d_23">
    <path d="M 34.16 226.772816 
L 139.655744 226.772816 
L 139.655744 226.312511 
L 140.380337 226.312511 
L 140.380337 225.852205 
L 141.513078 225.852205 
L 141.513078 225.3919 
L 142.23767 225.3919 
L 142.23767 224.931595 
L 156.334961 224.931595 
L 156.334961 224.47129 
L 157.809916 224.47129 
L 157.809916 224.010984 
L 158.192295 224.010984 
L 158.192295 223.550679 
L 158.453833 223.550679 
L 158.482074 222.630068 
L 159.667249 222.630068 
L 159.667249 222.169763 
L 160.311167 222.169763 
L 160.339408 221.249152 
L 163.301126 221.249152 
L 163.301126 220.788847 
L 165.158459 220.788847 
L 165.158459 220.328542 
L 178.697788 220.328542 
L 178.697788 219.868237 
L 180.555122 219.868237 
L 180.555122 219.407931 
L 181.187944 219.407931 
L 181.187944 218.947626 
L 181.622514 218.947626 
L 181.622514 218.487321 
L 183.045278 218.487321 
L 183.045278 218.027015 
L 183.479848 218.027015 
L 183.479848 217.56671 
L 201.351424 217.56671 
L 201.351424 217.106405 
L 202.076016 217.106405 
L 202.076016 216.6461 
L 202.556553 216.6461 
L 202.556553 216.185794 
L 203.281145 216.185794 
L 203.281145 215.725489 
L 209.490777 215.725489 
L 209.534293 214.804878 
L 210.407793 214.804878 
L 210.451309 213.884268 
L 218.030641 213.884268 
L 218.030641 213.423962 
L 219.23577 213.423962 
L 219.23577 212.963657 
L 219.505595 212.963657 
L 219.505595 212.503352 
L 220.149512 212.503352 
L 220.177754 211.582741 
L 220.710724 211.582741 
L 220.710724 211.122436 
L 221.354642 211.122436 
L 221.382883 210.201825 
L 222.536598 210.201825 
L 222.536598 209.74152 
L 222.771177 209.74152 
L 222.771177 209.281215 
L 223.700087 209.281215 
L 223.700087 208.820909 
L 224.42468 208.820909 
L 224.42468 208.360604 
L 224.598032 208.360604 
L 224.598032 207.900299 
L 224.996805 207.900299 
L 224.996805 207.439994 
L 225.210688 207.439994 
L 225.210688 206.979688 
L 225.322624 206.979688 
L 225.349427 206.059078 
L 225.935281 206.059078 
L 225.966663 205.138467 
L 226.159892 205.138467 
L 226.266443 203.297246 
L 226.394471 203.297246 
L 226.400292 202.376635 
L 226.686712 202.376635 
L 226.686712 201.91633 
L 226.883679 201.91633 
L 226.921291 200.995719 
L 227.021874 200.995719 
L 227.065389 200.075109 
L 227.140073 200.075109 
L 227.248474 198.694193 
L 227.299524 198.694193 
L 227.317309 197.773582 
L 227.520028 197.773582 
L 227.520028 197.313277 
L 228.21654 197.313277 
L 228.21654 196.852972 
L 228.437044 196.852972 
L 228.437044 196.392667 
L 230.088488 196.392667 
L 230.088488 195.932361 
L 230.81308 195.932361 
L 230.81308 195.472056 
L 236.530096 195.472056 
L 236.530096 195.011751 
L 237.15425 195.011751 
L 237.15425 194.551445 
L 237.582566 194.551445 
L 237.582566 194.09114 
L 238.892076 194.09114 
L 238.892076 193.630835 
L 239.483167 193.630835 
L 239.483167 193.170529 
L 240.15339 193.170529 
L 240.15339 192.710224 
L 240.379304 192.710224 
L 240.393468 191.789614 
L 240.68021 191.789614 
L 240.777545 190.869003 
L 241.20586 190.869003 
L 241.304365 189.488087 
L 241.340501 189.488087 
L 241.340501 189.027782 
L 241.598597 189.027782 
L 241.598597 188.567477 
L 241.73268 188.567477 
L 241.73268 188.107171 
L 241.854259 188.107171 
L 241.889905 187.186561 
L 242.498176 187.186561 
L 242.526417 185.805645 
L 242.752203 185.805645 
L 242.857851 184.424729 
L 242.880523 184.424729 
L 242.889527 183.043813 
L 243.042191 183.043813 
L 243.063608 182.123202 
L 243.318194 182.123202 
L 243.424362 179.821676 
L 243.49071 179.821676 
L 243.534226 178.44076 
L 243.61412 178.44076 
L 243.680844 177.520149 
L 243.754153 177.520149 
L 243.754153 177.059844 
L 243.931389 177.059844 
L 244.037018 175.218623 
L 244.088753 175.218623 
L 244.147098 173.377402 
L 244.523323 173.377402 
L 244.523323 172.917097 
L 244.83062 172.917097 
L 244.919088 171.075875 
L 245.013705 171.075875 
L 245.092094 169.694959 
L 245.234209 169.694959 
L 245.302145 168.774349 
L 245.536723 168.774349 
L 245.536723 168.314044 
L 246.767704 168.314044 
L 246.767704 167.853738 
L 246.960599 167.853738 
L 246.960599 167.393433 
L 247.345469 167.393433 
L 247.345469 166.933128 
L 247.487419 166.933128 
L 247.487419 166.472822 
L 248.242659 166.472822 
L 248.243413 165.552212 
L 248.404083 165.552212 
L 248.404083 165.091906 
L 248.85607 165.091906 
L 248.914817 163.710991 
L 249.128675 163.710991 
L 249.128675 163.250685 
L 249.544341 163.250685 
L 249.544341 162.79038 
L 251.401674 162.79038 
L 251.401674 162.330075 
L 253.733869 162.330075 
L 253.733869 161.869769 
L 254.785122 161.869769 
L 254.785122 161.409464 
L 256.642455 161.409464 
L 256.642455 160.949159 
L 258.672985 160.949159 
L 258.672985 160.488854 
L 258.851013 160.488854 
L 258.851013 160.028548 
L 259.290221 160.028548 
L 259.34936 158.647632 
L 259.475168 158.647632 
L 259.568744 157.266716 
L 259.72385 157.266716 
L 259.72385 156.806411 
L 259.903484 156.806411 
L 259.966596 154.96519 
L 260.22299 154.96519 
L 260.22299 154.504885 
L 260.348113 154.504885 
L 260.400225 153.584274 
L 260.579468 153.584274 
L 260.623082 152.663664 
L 260.734222 152.663664 
L 260.843586 151.282748 
L 261.013097 151.282748 
L 261.043698 150.362137 
L 261.212994 150.362137 
L 261.299457 149.441526 
L 261.351458 149.441526 
L 261.396386 148.520916 
L 261.519961 148.520916 
L 261.630964 147.14 
L 261.656335 147.14 
L 261.715857 145.298779 
L 261.785088 145.298779 
L 261.785088 144.838474 
L 261.912329 144.838474 
L 261.912329 144.378168 
L 262.132833 144.378168 
L 262.132833 143.917863 
L 262.380928 143.917863 
L 262.380928 143.457558 
L 262.684319 143.457558 
L 262.742131 142.536947 
L 262.904823 142.536947 
L 262.904823 142.076642 
L 263.640076 142.076642 
L 263.640076 141.616336 
L 264.252732 141.616336 
L 264.252732 141.156031 
L 265.0833 141.156031 
L 265.0833 140.695726 
L 265.232287 140.695726 
L 265.232287 140.235421 
L 265.658222 140.235421 
L 265.666857 139.31481 
L 266.060619 139.31481 
L 266.130232 137.933894 
L 266.295198 137.933894 
L 266.295198 137.473589 
L 266.534909 137.473589 
L 266.564802 136.092673 
L 266.742888 136.092673 
L 266.742888 135.632368 
L 267.177458 135.632368 
L 267.230412 134.251452 
L 269.130532 134.251452 
L 269.130532 133.791146 
L 271.620688 133.791146 
L 271.620688 133.330841 
L 272.049464 133.330841 
L 272.055258 132.410231 
L 275.389884 132.410231 
L 275.389884 131.949925 
L 276.014038 131.949925 
L 276.014038 131.48962 
L 276.442354 131.48962 
L 276.442354 131.029315 
L 277.751864 131.029315 
L 277.751864 130.569009 
L 278.335552 130.569009 
L 278.335552 130.108704 
L 279.810507 130.108704 
L 279.810507 129.648399 
L 280.054117 129.648399 
L 280.054117 129.188094 
L 280.454424 129.188094 
L 280.482665 128.267483 
L 280.678272 128.267483 
L 280.678272 127.807178 
L 281.106587 127.807178 
L 281.106587 127.346872 
L 281.931571 127.346872 
L 281.931571 126.886567 
L 282.197092 126.886567 
L 282.197092 126.426262 
L 282.416098 126.426262 
L 282.416098 125.965956 
L 284.421727 125.965956 
L 284.421727 125.505651 
L 284.856297 125.505651 
L 284.856297 125.045346 
L 285.301717 125.045346 
L 285.301717 124.585041 
L 286.861326 124.585041 
L 286.861326 124.124735 
L 287.446127 124.124735 
L 287.446127 123.66443 
L 289.936283 123.66443 
L 289.936283 123.204125 
L 290.370853 123.204125 
L 290.370853 122.743819 
L 300.698379 122.743819 
L 300.698379 122.283514 
L 301.178847 122.283514 
L 301.178847 121.823209 
L 302.383976 121.823209 
L 302.383976 121.362903 
L 303.188535 121.362903 
L 303.188535 120.902598 
L 303.623105 120.902598 
L 303.623105 120.442293 
L 311.24002 120.442293 
L 311.24002 119.981988 
L 312.445149 119.981988 
L 312.445149 119.521682 
L 316.480801 119.521682 
L 316.480801 119.061377 
L 317.68593 119.061377 
L 317.68593 118.601072 
L 323.52751 118.601072 
L 323.52751 118.140766 
L 324.425455 118.140766 
L 324.425455 117.680461 
L 325.038111 117.680461 
L 325.038111 117.220156 
L 329.91591 117.220156 
L 329.91591 116.759851 
L 333.588684 116.759851 
L 333.588684 116.299545 
L 334.486628 116.299545 
L 334.486628 115.83924 
L 335.099285 115.83924 
L 335.099285 115.378935 
L 338.829465 115.378935 
L 338.829465 114.918629 
L 339.727409 114.918629 
L 339.727409 114.458324 
L 339.977084 114.458324 
L 339.977084 113.998019 
L 340.340066 113.998019 
L 340.340066 113.537713 
L 342.71695 113.537713 
L 342.71695 113.077408 
L 345.217865 113.077408 
L 345.217865 112.617103 
L 348.231505 112.617103 
L 348.231505 112.156798 
L 352.778124 112.156798 
L 352.778124 111.696492 
L 358.018904 111.696492 
L 358.018904 111.236187 
L 358.292679 111.236187 
L 358.292679 110.775882 
L 361.483758 110.775882 
L 361.483758 110.315576 
L 363.53346 110.315576 
L 363.53346 109.855271 
L 371.544932 109.855271 
L 371.544932 109.394966 
L 376.785713 109.394966 
L 376.785713 108.934661 
L 453.192 108.934661 
L 453.192 108.934661 
" clip-path="url(#p19861d27fa)" style="fill: none; stroke: #ff0000; stroke-width: 3; stroke-linecap: square"/>
   </g>
   <g id="line2d_24">
    <path clip-path="url(#p19861d27fa)" style="fill: none; stroke: #ff0000; stroke-width: 3; stroke-linecap: square"/>
   </g>
   <g id="line2d_25">
    <path d="M 243.676 291.28 
L 243.676 3 
" clip-path="url(#p19861d27fa)" style="fill: none; stroke: #000000; stroke-width: 1.5; stroke-linecap: square"/>
   </g>
   <g id="line2d_26">
    <path d="M 34.16 147.14 
L 453.192 147.14 
" clip-path="url(#p19861d27fa)" style="fill: none; stroke-dasharray: 2,3.3; stroke-dashoffset: 0; stroke: #000000; stroke-width: 2"/>
   </g>
   <g id="patch_3">
    <path d="M 34.16 291.28 
L 34.16 3 
" style="fill: none; stroke: #000000; stroke-width: 0.8; stroke-linejoin: miter; stroke-linecap: square"/>
   </g>
   <g id="patch_4">
    <path d="M 453.192 291.28 
L 453.192 3 
" style="fill: none; stroke: #000000; stroke-width: 0.8; stroke-linejoin: miter; stroke-linecap: square"/>
   </g>
   <g id="patch_5">
    <path d="M 34.16 291.28 
L 453.192 291.28 
" style="fill: none; stroke: #000000; stroke-width: 0.8; stroke-linejoin: miter; stroke-linecap: square"/>
   </g>
   <g id="patch_6">
    <path d="M 34.16 3 
L 453.192 3 
" style="fill: none; stroke: #000000; stroke-width: 0.8; stroke-linejoin: miter; stroke-linecap: square"/>
   </g>
   <g id="text_6">
    <!-- f20-f24,10-D -->
    <g transform="translate(318.19261 285.5144) scale(0.2 -0.2)">
     <defs>
      <path id="DejaVuSans-34" d="M 2419 4116 
L 825 1625 
L 2419 1625 
L 2419 4116 
z
M 2253 4666 
L 3047 4666 
L 3047 1625 
L 3713 1625 
L 3713 1100 
L 3047 1100 
L 3047 0 
L 2419 0 
L 2419 1100 
L 313 1100 
L 313 1709 
L 2253 4666 
z
" transform="scale(0.015625)"/>
      <path id="DejaVuSans-2c" d="M 750 794 
L 1409 794 
L 1409 256 
L 897 -744 
L 494 -744 
L 750 256 
L 750 794 
z
" transform="scale(0.015625)"/>
      <path id="DejaVuSans-44" d="M 1259 4147 
L 1259 519 
L 2022 519 
Q 2988 519 3436 956 
Q 3884 1394 3884 2338 
Q 3884 3275 3436 3711 
Q 2988 4147 2022 4147 
L 1259 4147 
z
M 628 4666 
L 1925 4666 
Q 3281 4666 3915 4102 
Q 4550 3538 4550 2338 
Q 4550 1131 3912 565 
Q 3275 0 1925 0 
L 628 0 
L 628 4666 
z
" transform="scale(0.015625)"/>
     </defs>
     <use xlink:href="#DejaVuSans-66"/>
     <use xlink:href="#DejaVuSans-32" x="35.205078"/>
     <use xlink:href="#DejaVuSans-30" x="98.828125"/>
     <use xlink:href="#DejaVuSans-2d" x="162.451172"/>
     <use xlink:href="#DejaVuSans-66" x="198.535156"/>
     <use xlink:href="#DejaVuSans-32" x="233.740234"/>
     <use xlink:href="#DejaVuSans-34" x="297.363281"/>
     <use xlink:href="#DejaVuSans-2c" x="360.986328"/>
     <use xlink:href="#DejaVuSans-31" x="392.773438"/>
     <use xlink:href="#DejaVuSans-30" x="456.396484"/>
     <use xlink:href="#DejaVuSans-2d" x="520.019531"/>
     <use xlink:href="#DejaVuSans-44" x="556.103516"/>
    </g>
   </g>
   <g id="text_7">
    <!-- v2.6.3 -->
    <g style="fill: #808080" transform="translate(227.99475 286.317512) scale(0.1 -0.1)">
     <defs>
      <path id="DejaVuSans-2e" d="M 684 794 
L 1344 794 
L 1344 0 
L 684 0 
L 684 794 
z
" transform="scale(0.015625)"/>
      <path id="DejaVuSans-36" d="M 2113 2584 
Q 1688 2584 1439 2293 
Q 1191 2003 1191 1497 
Q 1191 994 1439 701 
Q 1688 409 2113 409 
Q 2538 409 2786 701 
Q 3034 994 3034 1497 
Q 3034 2003 2786 2293 
Q 2538 2584 2113 2584 
z
M 3366 4563 
L 3366 3988 
Q 3128 4100 2886 4159 
Q 2644 4219 2406 4219 
Q 1781 4219 1451 3797 
Q 1122 3375 1075 2522 
Q 1259 2794 1537 2939 
Q 1816 3084 2150 3084 
Q 2853 3084 3261 2657 
Q 3669 2231 3669 1497 
Q 3669 778 3244 343 
Q 2819 -91 2113 -91 
Q 1303 -91 875 529 
Q 447 1150 447 2328 
Q 447 3434 972 4092 
Q 1497 4750 2381 4750 
Q 2619 4750 2861 4703 
Q 3103 4656 3366 4563 
z
" transform="scale(0.015625)"/>
      <path id="DejaVuSans-33" d="M 2597 2516 
Q 3050 2419 3304 2112 
Q 3559 1806 3559 1356 
Q 3559 666 3084 287 
Q 2609 -91 1734 -91 
Q 1441 -91 1130 -33 
Q 819 25 488 141 
L 488 750 
Q 750 597 1062 519 
Q 1375 441 1716 441 
Q 2309 441 2620 675 
Q 2931 909 2931 1356 
Q 2931 1769 2642 2001 
Q 2353 2234 1838 2234 
L 1294 2234 
L 1294 2753 
L 1863 2753 
Q 2328 2753 2575 2939 
Q 2822 3125 2822 3475 
Q 2822 3834 2567 4026 
Q 2313 4219 1838 4219 
Q 1578 4219 1281 4162 
Q 984 4106 628 3988 
L 628 4550 
Q 988 4650 1302 4700 
Q 1616 4750 1894 4750 
Q 2613 4750 3031 4423 
Q 3450 4097 3450 3541 
Q 3450 3153 3228 2886 
Q 3006 2619 2597 2516 
z
" transform="scale(0.015625)"/>
     </defs>
     <use xlink:href="#DejaVuSans-76"/>
     <use xlink:href="#DejaVuSans-32" x="59.179688"/>
     <use xlink:href="#DejaVuSans-2e" x="122.802734"/>
     <use xlink:href="#DejaVuSans-36" x="154.589844"/>
     <use xlink:href="#DejaVuSans-2e" x="218.212891"/>
     <use xlink:href="#DejaVuSans-33" x="250"/>
    </g>
   </g>
   <g id="legend_1">
    <g id="patch_7">
     <path d="M 48.16 136.425 
L 177.381875 136.425 
Q 181.381875 136.425 181.381875 132.425 
L 181.381875 17 
Q 181.381875 13 177.381875 13 
L 48.16 13 
Q 44.16 13 44.16 17 
L 44.16 132.425 
Q 44.16 136.425 48.16 136.425 
z
" style="fill: #ffffff; opacity: 0.2; stroke: #cccccc; stroke-linejoin: miter"/>
    </g>
    <g id="line2d_27">
     <path d="M 52.16 29.196875 
L 72.16 29.196875 
L 92.16 29.196875 
" style="fill: none; stroke: #000000; stroke-width: 3; stroke-linecap: square"/>
    </g>
    <g id="text_8">
     <!-- 1: 5/5 -->
     <g transform="translate(108.16 36.196875) scale(0.2 -0.2)">
      <defs>
       <path id="DejaVuSans-3a" d="M 750 794 
L 1409 794 
L 1409 0 
L 750 0 
L 750 794 
z
M 750 3309 
L 1409 3309 
L 1409 2516 
L 750 2516 
L 750 3309 
z
" transform="scale(0.015625)"/>
       <path id="DejaVuSans-35" d="M 691 4666 
L 3169 4666 
L 3169 4134 
L 1269 4134 
L 1269 2991 
Q 1406 3038 1543 3061 
Q 1681 3084 1819 3084 
Q 2600 3084 3056 2656 
Q 3513 2228 3513 1497 
Q 3513 744 3044 326 
Q 2575 -91 1722 -91 
Q 1428 -91 1123 -41 
Q 819 9 494 109 
L 494 744 
Q 775 591 1075 516 
Q 1375 441 1709 441 
Q 2250 441 2565 725 
Q 2881 1009 2881 1497 
Q 2881 1984 2565 2268 
Q 2250 2553 1709 2553 
Q 1456 2553 1204 2497 
Q 953 2441 691 2322 
L 691 4666 
z
" transform="scale(0.015625)"/>
       <path id="DejaVuSans-2f" d="M 1625 4666 
L 2156 4666 
L 531 -594 
L 0 -594 
L 1625 4666 
z
" transform="scale(0.015625)"/>
      </defs>
      <use xlink:href="#DejaVuSans-31"/>
      <use xlink:href="#DejaVuSans-3a" x="63.623047"/>
      <use xlink:href="#DejaVuSans-20" x="97.314453"/>
      <use xlink:href="#DejaVuSans-35" x="129.101562"/>
      <use xlink:href="#DejaVuSans-2f" x="192.724609"/>
      <use xlink:href="#DejaVuSans-35" x="226.416016"/>
     </g>
    </g>
    <g id="line2d_28">
     <path d="M 52.16 58.553125 
L 72.16 58.553125 
L 92.16 58.553125 
" style="fill: none; stroke: #00bfbf; stroke-width: 3; stroke-linecap: square"/>
    </g>
    <g id="text_9">
     <!-- -1: 3/4 -->
     <g transform="translate(108.16 65.553125) scale(0.2 -0.2)">
      <use xlink:href="#DejaVuSans-2d"/>
      <use xlink:href="#DejaVuSans-31" x="36.083984"/>
      <use xlink:href="#DejaVuSans-3a" x="99.707031"/>
      <use xlink:href="#DejaVuSans-20" x="133.398438"/>
      <use xlink:href="#DejaVuSans-33" x="165.185547"/>
      <use xlink:href="#DejaVuSans-2f" x="228.808594"/>
      <use xlink:href="#DejaVuSans-34" x="262.5"/>
     </g>
    </g>
    <g id="line2d_29">
     <path d="M 52.16 87.909375 
L 72.16 87.909375 
L 92.16 87.909375 
" style="fill: none; stroke: #bf00bf; stroke-width: 3; stroke-linecap: square"/>
    </g>
    <g id="text_10">
     <!-- -4: 3/4 -->
     <g transform="translate(108.16 94.909375) scale(0.2 -0.2)">
      <use xlink:href="#DejaVuSans-2d"/>
      <use xlink:href="#DejaVuSans-34" x="36.083984"/>
      <use xlink:href="#DejaVuSans-3a" x="99.707031"/>
      <use xlink:href="#DejaVuSans-20" x="133.398438"/>
      <use xlink:href="#DejaVuSans-33" x="165.185547"/>
      <use xlink:href="#DejaVuSans-2f" x="228.808594"/>
      <use xlink:href="#DejaVuSans-34" x="262.5"/>
     </g>
    </g>
    <g id="line2d_30">
     <path d="M 52.16 117.265625 
L 72.16 117.265625 
L 92.16 117.265625 
" style="fill: none; stroke: #ff0000; stroke-width: 3; stroke-linecap: square"/>
    </g>
    <g id="text_11">
     <!-- -8: 3/4 -->
     <g transform="translate(108.16 124.265625) scale(0.2 -0.2)">
      <defs>
       <path id="DejaVuSans-38" d="M 2034 2216 
Q 1584 2216 1326 1975 
Q 1069 1734 1069 1313 
Q 1069 891 1326 650 
Q 1584 409 2034 409 
Q 2484 409 2743 651 
Q 3003 894 3003 1313 
Q 3003 1734 2745 1975 
Q 2488 2216 2034 2216 
z
M 1403 2484 
Q 997 2584 770 2862 
Q 544 3141 544 3541 
Q 544 4100 942 4425 
Q 1341 4750 2034 4750 
Q 2731 4750 3128 4425 
Q 3525 4100 3525 3541 
Q 3525 3141 3298 2862 
Q 3072 2584 2669 2484 
Q 3125 2378 3379 2068 
Q 3634 1759 3634 1313 
Q 3634 634 3220 271 
Q 2806 -91 2034 -91 
Q 1263 -91 848 271 
Q 434 634 434 1313 
Q 434 1759 690 2068 
Q 947 2378 1403 2484 
z
M 1172 3481 
Q 1172 3119 1398 2916 
Q 1625 2713 2034 2713 
Q 2441 2713 2670 2916 
Q 2900 3119 2900 3481 
Q 2900 3844 2670 4047 
Q 2441 4250 2034 4250 
Q 1625 4250 1398 4047 
Q 1172 3844 1172 3481 
z
" transform="scale(0.015625)"/>
      </defs>
      <use xlink:href="#DejaVuSans-2d"/>
      <use xlink:href="#DejaVuSans-38" x="36.083984"/>
      <use xlink:href="#DejaVuSans-3a" x="99.707031"/>
      <use xlink:href="#DejaVuSans-20" x="133.398438"/>
      <use xlink:href="#DejaVuSans-33" x="165.185547"/>
      <use xlink:href="#DejaVuSans-2f" x="228.808594"/>
      <use xlink:href="#DejaVuSans-34" x="262.5"/>
     </g>
    </g>
   </g>
  </g>
 </g>
 <defs>
  <clipPath id="p19861d27fa">
   <rect x="34.16" y="3" width="419.032" height="288.28"/>
  </clipPath>
 </defs>
</svg>
